<svg xmlns="http://www.w3.org/2000/svg" width="84" height="324" viewBox="0 0 84 324" version="1.1">
	<path d="M 7.571 63.571 C 6.707 64.436, 6 65.332, 6 65.564 C 6 67.123, 23.710 101.058, 24.727 101.449 C 25.427 101.717, 26.573 101.717, 27.273 101.449 C 29.129 100.736, 46.063 66.328, 45.403 64.609 C 44.732 62.858, 42.483 61.877, 40.705 62.560 C 39.993 62.833, 36.520 68.894, 32.986 76.028 C 29.453 83.163, 26.308 89, 25.997 89 C 25.687 89, 22.748 83.534, 19.467 76.853 C 11.925 61.499, 10.847 60.296, 7.571 63.571 M 56.372 62.765 C 54.418 64.037, 38.003 97.844, 38.593 99.381 C 39.268 101.141, 41.513 102.124, 43.295 101.440 C 44.007 101.167, 47.480 95.106, 51.014 87.972 C 54.547 80.837, 57.691 75, 58 75 C 58.309 75, 61.453 80.837, 64.986 87.972 C 68.520 95.106, 71.993 101.167, 72.705 101.440 C 74.487 102.124, 76.732 101.141, 77.407 99.381 C 77.716 98.575, 74.096 90.173, 69.363 80.708 C 61.638 65.261, 59.672 62.031, 58 62.031 C 57.725 62.031, 56.992 62.361, 56.372 62.765 " stroke="none" fill="black" fill-rule="evenodd"/>
</svg>