<svg xmlns="http://www.w3.org/2000/svg" width="52" height="324" viewBox="0 0 52 324" version="1.1">
	<path d="M 7.571 63.571 C 5.320 65.823, 5.320 82.177, 7.571 84.429 C 8.436 85.293, 9.529 86, 10 86 C 10.471 86, 11.564 85.293, 12.429 84.429 C 14.680 82.177, 14.680 65.823, 12.429 63.571 C 11.564 62.707, 10.471 62, 10 62 C 9.529 62, 8.436 62.707, 7.571 63.571 M 7.571 94.571 C 6.707 95.436, 6 96.529, 6 97 C 6 98.111, 8.889 101, 10 101 C 11.111 101, 14 98.111, 14 97 C 14 95.889, 11.111 93, 10 93 C 9.529 93, 8.436 93.707, 7.571 94.571 " stroke="none" fill="black" fill-rule="evenodd"/>
</svg>