<svg xmlns="http://www.w3.org/2000/svg" width="52" height="324" viewBox="0 0 52 324" version="1.1">
	<path d="M 7.250 62.662 C 5.315 63.443, 5.757 66.443, 8.581 71.697 C 12.054 78.160, 11.667 85.882, 7.560 92.088 C 4.499 96.714, 4.885 99.228, 8.745 99.805 C 11.023 100.147, 14.052 96.513, 16.627 90.351 C 19.922 82.465, 17.725 69.725, 12.101 64.101 C 9.947 61.947, 9.414 61.789, 7.250 62.662 M 23.616 63.527 C 22.727 64.416, 22 65.529, 22 66 C 22 67.389, 25.140 70.120, 26.295 69.735 C 28.395 69.035, 29.549 66.094, 28.423 64.310 C 26.905 61.902, 25.474 61.669, 23.616 63.527 " stroke="none" fill="black" fill-rule="evenodd"/>
</svg>