<svg xmlns="http://www.w3.org/2000/svg" width="68" height="324" viewBox="0 0 68 324" version="1.1">
	<path d="M 7.250 62.662 C 5.299 63.450, 5.829 67.121, 8.526 71.500 C 12.225 77.506, 11.984 85.056, 7.888 91.515 C 4.455 96.929, 4.844 99.500, 9.099 99.500 C 10.905 99.500, 12.235 98.236, 14.610 94.261 C 19.805 85.569, 20.026 78.088, 15.365 68.786 C 13.420 64.905, 10.299 61.708, 8.816 62.079 C 8.642 62.122, 7.938 62.385, 7.250 62.662 M 37.968 64.193 C 31.955 70.453, 30.034 82.826, 33.780 91.174 C 36.447 97.116, 40.477 101.214, 43.265 100.818 C 46.556 100.350, 46.753 96.398, 43.647 93.142 C 37.582 86.783, 37.346 75.543, 43.149 69.348 C 44.311 68.107, 45.024 66.202, 44.832 64.848 C 44.374 61.609, 40.780 61.265, 37.968 64.193 " stroke="none" fill="black" fill-rule="evenodd"/>
</svg>