<svg xmlns="http://www.w3.org/2000/svg" width="84" height="324" viewBox="0 0 84 324" version="1.1">
	<path d="M 23.500 126.494 C 22.950 126.676, 21.271 127.096, 19.768 127.427 C 16.331 128.184, 10.394 133.337, 8.306 137.375 C 6.398 141.064, 6.220 149.639, 7.979 153.049 C 11.642 160.146, 18.097 164.286, 25.500 164.286 C 36.133 164.286, 44.286 156.133, 44.286 145.500 C 44.286 135.932, 37.610 128.232, 28 126.715 C 26.075 126.411, 24.050 126.312, 23.500 126.494 M 72.369 126.765 C 70.390 128.050, 6.009 257.860, 6.594 259.385 C 7.263 261.129, 9.511 262.125, 11.261 261.453 C 12.262 261.069, 78 131.164, 78 129.569 C 78 128.870, 74.913 125.999, 74.179 126.015 C 73.805 126.024, 72.991 126.361, 72.369 126.765 M 17.400 137.400 C 14.498 140.302, 14 141.488, 14 145.500 C 14 149.512, 14.498 150.698, 17.400 153.600 C 20.302 156.502, 21.488 157, 25.500 157 C 29.512 157, 30.698 156.502, 33.600 153.600 C 36.502 150.698, 37 149.512, 37 145.500 C 37 141.488, 36.502 140.302, 33.600 137.400 C 30.698 134.498, 29.512 134, 25.500 134 C 21.488 134, 20.302 134.498, 17.400 137.400 M 55.500 222.494 C 54.950 222.676, 53.271 223.096, 51.768 223.427 C 48.331 224.184, 42.394 229.337, 40.306 233.375 C 38.398 237.064, 38.220 245.639, 39.979 249.049 C 43.642 256.146, 50.097 260.286, 57.500 260.286 C 68.133 260.286, 76.286 252.133, 76.286 241.500 C 76.286 231.932, 69.610 224.232, 60 222.715 C 58.075 222.411, 56.050 222.312, 55.500 222.494 M 49.400 233.400 C 46.498 236.302, 46 237.488, 46 241.500 C 46 245.512, 46.498 246.698, 49.400 249.600 C 52.302 252.502, 53.488 253, 57.500 253 C 61.512 253, 62.698 252.502, 65.600 249.600 C 68.502 246.698, 69 245.512, 69 241.500 C 69 237.488, 68.502 236.302, 65.600 233.400 C 62.698 230.498, 61.512 230, 57.500 230 C 53.488 230, 52.302 230.498, 49.400 233.400 " stroke="none" fill="black" fill-rule="evenodd"/>
</svg>