<svg xmlns="http://www.w3.org/2000/svg" width="20" height="324" viewBox="0 0 20 324" version="1.1">
	<path d="M 7.571 223.571 C 6.707 224.436, 6 225.529, 6 226 C 6 227.111, 8.889 230, 10 230 C 11.111 230, 14 227.111, 14 226 C 14 224.889, 11.111 222, 10 222 C 9.529 222, 8.436 222.707, 7.571 223.571 M 7.571 255.571 C 6.707 256.436, 6 257.529, 6 258 C 6 259.111, 8.889 262, 10 262 C 11.111 262, 14 259.111, 14 258 C 14 256.889, 11.111 254, 10 254 C 9.529 254, 8.436 254.707, 7.571 255.571 " stroke="none" fill="black" fill-rule="evenodd"/>
</svg>