<svg xmlns="http://www.w3.org/2000/svg" width="52" height="324" viewBox="0 0 52 324" version="1.1">
	<path d="M 20.648 127.027 C 10.713 130.005, 4.444 140.509, 6.981 149.929 C 8.873 156.957, 15.233 162.841, 22.666 164.441 C 29.678 165.950, 39.697 160.363, 42.649 153.298 C 44.380 149.155, 44.380 141.845, 42.649 137.702 C 40.863 133.428, 34.978 128.365, 30.277 127.060 C 25.928 125.852, 24.582 125.848, 20.648 127.027 M 17.400 137.400 C 14.498 140.302, 14 141.488, 14 145.500 C 14 149.512, 14.498 150.698, 17.400 153.600 C 20.278 156.478, 21.504 157, 25.384 157 C 29.036 157, 30.632 156.407, 33.234 154.082 C 36.194 151.437, 36.500 150.633, 36.500 145.500 C 36.500 140.367, 36.194 139.563, 33.234 136.918 C 30.632 134.593, 29.036 134, 25.384 134 C 21.504 134, 20.278 134.522, 17.400 137.400 " stroke="none" fill="black" fill-rule="evenodd"/>
</svg>