<svg xmlns="http://www.w3.org/2000/svg" width="52" height="324" viewBox="0 0 52 324" version="1.1">
	<path d="M 15.184 199.365 C 10.133 204.516, 6 209.209, 6 209.794 C 6 211.133, 8.816 214, 10.131 214 C 10.675 214, 13.568 211.685, 16.560 208.855 L 22 203.710 22 228.855 L 22 254 15.571 254 C 11.061 254, 8.674 254.469, 7.571 255.571 C 5.593 257.550, 5.597 258.455, 7.595 260.452 C 8.952 261.810, 11.721 262.006, 26.237 261.773 C 41.203 261.533, 43.419 261.286, 44.387 259.750 C 46.532 256.345, 44 254.532, 36.646 254.204 L 30 253.909 30 223.526 C 30 197.238, 29.788 192.931, 28.429 191.571 C 27.564 190.707, 26.297 190, 25.613 190 C 24.928 190, 20.236 194.214, 15.184 199.365 " stroke="none" fill="black" fill-rule="evenodd"/>
</svg>