<svg xmlns="http://www.w3.org/2000/svg" width="52" height="324" viewBox="0 0 52 324" version="1.1">
	<path d="M 7.222 191.178 C 5.514 192.886, 5.493 227.093, 7.200 228.800 C 7.982 229.582, 12.084 230, 18.977 230 C 30.586 230, 32.817 230.811, 35.506 236.011 C 37.623 240.105, 37.361 244.169, 34.728 248.076 C 31.898 252.276, 27.169 253.820, 16.821 253.923 C 9.442 253.997, 6 255.294, 6 258 C 6 262.706, 22.062 263.743, 31.221 259.629 C 40.069 255.655, 44 250.049, 44 241.403 C 44 235.457, 42.068 231.145, 37.676 227.289 C 33.303 223.450, 28.565 222.013, 20.250 222.006 L 14 222 14 210.027 L 14 198.053 28.643 197.777 C 41.314 197.537, 43.433 197.264, 44.387 195.750 C 45.191 194.475, 45.190 193.525, 44.387 192.250 C 43.417 190.711, 41.187 190.467, 25.864 190.228 C 13.160 190.029, 8.113 190.287, 7.222 191.178 " stroke="none" fill="black" fill-rule="evenodd"/>
</svg>