<svg xmlns="http://www.w3.org/2000/svg" width="52" height="324" viewBox="0 0 52 324" version="1.1">
	<path d="M 20.764 190.996 C 15.745 192.507, 11.448 195.858, 8.962 200.201 C 6.561 204.394, 6.500 205.018, 6.500 225.500 C 6.500 245.592, 6.600 246.674, 8.803 250.517 C 15.007 261.337, 28.497 263.771, 37.662 255.724 C 42.087 251.838, 44 247.545, 44 241.500 C 44 235.455, 42.087 231.162, 37.662 227.276 C 31.522 221.886, 24.003 220.940, 16.750 224.646 L 14 226.051 14 215.426 L 14 204.800 17.400 201.400 C 20.264 198.536, 21.512 198, 25.323 198 C 30.859 198, 35.532 201.460, 36.501 206.277 C 37.627 211.875, 38.036 212.800, 39.665 213.425 C 43.666 214.960, 45.378 208.235, 42.649 201.702 C 40.863 197.428, 34.978 192.365, 30.277 191.060 C 25.951 189.859, 24.571 189.849, 20.764 190.996 M 17.400 233.400 C 14.498 236.302, 14 237.488, 14 241.500 C 14 245.512, 14.498 246.698, 17.400 249.600 C 20.297 252.497, 21.491 253, 25.477 253 C 29.294 253, 30.682 252.472, 33.026 250.128 C 40.898 242.256, 36.208 230, 25.323 230 C 21.512 230, 20.264 230.536, 17.400 233.400 " stroke="none" fill="black" fill-rule="evenodd"/>
</svg>