<svg xmlns="http://www.w3.org/2000/svg" width="52" height="324" viewBox="0 0 52 324" version="1.1">
	<path d="M 13 223.727 C 7.644 226.440, 6.003 230.748, 6.002 242.102 C 6 250.425, 6.302 252.152, 8.266 255.067 C 9.527 256.938, 12.161 259.049, 14.204 259.827 C 17.500 261.081, 18.265 261.034, 21.679 259.362 C 27.448 256.537, 29.968 251.255, 29.962 242 C 29.951 227.285, 22.283 219.024, 13 223.727 M 14.456 231.254 C 14.163 232.018, 14.053 237.110, 14.212 242.571 L 14.500 252.500 17.250 252.816 C 20.783 253.223, 22.038 250.219, 21.900 241.685 C 21.757 232.779, 20.948 230.561, 17.705 230.183 C 16.069 229.992, 14.777 230.418, 14.456 231.254 " stroke="none" fill="black" fill-rule="evenodd"/>
</svg>