<svg xmlns="http://www.w3.org/2000/svg" width="52" height="324" viewBox="0 0 52 324" version="1.1">
	<path d="M 13 223.746 C 7.658 226.423, 6.003 230.744, 6.005 242 C 6.007 249.766, 6.376 252.104, 8.026 254.810 C 13.947 264.523, 28 260.849, 28 249.588 C 28 247.309, 27.266 244.397, 26.369 243.117 C 24.349 240.233, 18.528 237.698, 15.865 238.543 C 14.060 239.116, 13.905 238.773, 14.188 234.837 C 14.480 230.779, 14.689 230.500, 17.428 230.500 C 19.817 230.500, 20.500 231.036, 21.136 233.415 C 22.091 236.987, 23.812 238.171, 26.196 236.895 C 29.173 235.302, 28.573 229.419, 25.077 225.923 C 23.469 224.315, 21.481 223, 20.659 223 C 19.836 223, 18.564 222.773, 17.832 222.496 C 17.099 222.219, 14.925 222.781, 13 223.746 M 14.410 247.375 C 13.211 250.498, 14.424 252.500, 17.514 252.500 C 20.165 252.500, 20.500 252.164, 20.500 249.500 C 20.500 246.969, 20.069 246.450, 17.744 246.183 C 15.986 245.981, 14.779 246.412, 14.410 247.375 " stroke="none" fill="black" fill-rule="evenodd"/>
</svg>