<svg xmlns="http://www.w3.org/2000/svg" width="52" height="324" viewBox="0 0 52 324" version="1.1">
	<path d="M 13.325 223.459 C 7.404 226.035, 4.911 232.496, 7.716 238 C 9.425 241.353, 9.425 241.647, 7.727 245 C 4.858 250.664, 7.442 257.033, 13.664 259.633 C 18.023 261.454, 22.982 260.110, 25.984 256.293 C 28.365 253.266, 28.693 246.434, 26.600 243.446 C 25.400 241.733, 25.400 241.174, 26.600 239.532 C 28.498 236.936, 28.369 229.972, 26.369 227.117 C 24.917 225.044, 19.355 221.935, 17.282 222.039 C 16.852 222.061, 15.071 222.700, 13.325 223.459 M 14.410 231.375 C 13.211 234.498, 14.424 236.500, 17.514 236.500 C 20.165 236.500, 20.500 236.164, 20.500 233.500 C 20.500 230.969, 20.069 230.450, 17.744 230.183 C 15.986 229.981, 14.779 230.412, 14.410 231.375 M 14.410 247.375 C 13.211 250.498, 14.424 252.500, 17.514 252.500 C 20.165 252.500, 20.500 252.164, 20.500 249.500 C 20.500 246.969, 20.069 246.450, 17.744 246.183 C 15.986 245.981, 14.779 246.412, 14.410 247.375 " stroke="none" fill="black" fill-rule="evenodd"/>
</svg>