<svg xmlns="http://www.w3.org/2000/svg" width="52" height="324" viewBox="0 0 52 324" version="1.1">
	<path d="M 13 223.727 C 10.877 224.802, 8.767 227, 7.638 229.312 C 5.981 232.704, 5.926 233.519, 7.139 236.705 C 9.003 241.603, 13.117 244.489, 18.049 244.360 C 22.369 244.247, 22.937 245.405, 21.025 250.435 C 19.587 254.215, 15.244 254, 13.878 250.080 C 12.792 246.966, 10.891 245.721, 8.577 246.609 C 4.893 248.023, 6.733 255.468, 11.546 258.622 C 17.376 262.442, 24.404 260.049, 27.987 253.025 C 30.698 247.711, 30.736 236.218, 28.062 230.328 C 24.919 223.405, 18.869 220.754, 13 223.727 M 14.410 231.375 C 13.211 234.498, 14.424 236.500, 17.514 236.500 C 20.165 236.500, 20.500 236.164, 20.500 233.500 C 20.500 230.969, 20.069 230.450, 17.744 230.183 C 15.986 229.981, 14.779 230.412, 14.410 231.375 " stroke="none" fill="black" fill-rule="evenodd"/>
</svg>