<svg xmlns="http://www.w3.org/2000/svg" width="84" height="324" viewBox="0 0 84 324" version="1.1">
	<path d="M 22.034 217.752 C 18.397 219.586, 14.397 225.216, 15.483 226.973 C 15.832 227.538, 17.451 228, 19.080 228 C 21.254 228, 22.340 227.347, 23.159 225.550 C 25.365 220.709, 35.427 219.916, 38.524 224.338 C 39.336 225.497, 40 227.920, 40 229.723 L 40 233 33.750 233.024 C 21.460 233.071, 14.724 236.626, 13.383 243.772 C 11.791 252.260, 17.228 258.989, 25.685 258.996 C 31.250 259.001, 34.522 257.647, 37.913 253.935 L 40.722 250.859 41.339 253.946 C 42.074 257.619, 45.822 259.444, 50.740 258.521 C 54.973 257.727, 55.374 254.293, 51.290 253.816 C 47.715 253.399, 47.223 251.352, 47.100 236.385 C 46.988 222.797, 45.893 220.107, 39.364 217.379 C 34.769 215.459, 26.214 215.643, 22.034 217.752 M 25 239.752 C 21.837 241.332, 21.471 241.952, 21.198 246.193 C 20.934 250.288, 21.219 251.097, 23.443 252.555 C 26.816 254.765, 32.109 253.768, 36.143 250.164 C 38.481 248.075, 39.321 246.330, 39.728 242.718 L 40.260 238 34.380 238.002 C 30.786 238.003, 27.139 238.683, 25 239.752 " stroke="none" fill="black" fill-rule="evenodd"/>
</svg>