<svg xmlns="http://www.w3.org/2000/svg" width="84" height="324" viewBox="0 0 84 324" version="1.1">
	<path d="M 15 229 L 15 257 18.500 257 C 21.632 257, 22 256.717, 22 254.313 L 22 251.626 24.999 254.499 C 27.442 256.840, 29.063 257.441, 33.749 257.741 C 44.628 258.439, 49.080 253.165, 49.806 238.718 C 50.576 223.410, 45.863 216, 35.358 216 C 29.348 216, 26.414 217.106, 23.772 220.367 C 22.110 222.419, 22.044 222.093, 22.022 211.750 L 22 201 18.500 201 L 15 201 15 229 M 27.942 222.472 C 23.096 225.107, 20.812 234.878, 22.954 243.807 C 24.408 249.870, 26.536 251.994, 31.874 252.710 C 35.377 253.180, 36.290 252.864, 38.859 250.295 C 43.324 245.830, 44.268 234.494, 40.892 225.880 C 39.121 221.363, 32.961 219.742, 27.942 222.472 " stroke="none" fill="black" fill-rule="evenodd"/>
</svg>