<svg xmlns="http://www.w3.org/2000/svg" width="84" height="324" viewBox="0 0 84 324" version="1.1">
	<path d="M 40.970 211.750 C 40.948 219.542, 40.659 222.018, 39.920 220.750 C 37.270 216.200, 26.459 214.434, 20.999 217.660 C 12.081 222.928, 10.229 245.628, 18.006 254.333 C 20.707 257.356, 21.177 257.500, 28.337 257.500 C 34.797 257.500, 36.180 257.179, 38.296 255.191 L 40.754 252.883 41.396 255.441 C 41.905 257.470, 42.655 258, 45.019 258 L 48 258 48 229.500 L 48 201 44.500 201 L 41 201 40.970 211.750 M 26.302 221.965 C 22.195 223.706, 20.781 228.310, 21.158 238.716 C 21.481 247.645, 21.657 248.311, 24.306 250.588 C 29.233 254.824, 36.154 253.155, 39.248 246.986 C 42.536 240.432, 41.102 226.815, 36.744 223.202 C 34.659 221.473, 29.035 220.807, 26.302 221.965 " stroke="none" fill="black" fill-rule="evenodd"/>
</svg>