<svg xmlns="http://www.w3.org/2000/svg" width="84" height="324" viewBox="0 0 84 324" version="1.1">
	<path d="M 23.450 217.407 C 9.714 223.390, 9.819 251.848, 23.600 257.606 C 31.579 260.940, 43.721 258.129, 47.266 252.126 C 48.816 249.502, 48.831 249.149, 47.413 248.605 C 44.570 247.514, 42.501 247.968, 41.261 249.954 C 40.590 251.028, 38.289 252.432, 36.149 253.074 C 28.358 255.408, 21.013 250.159, 21.004 242.250 L 21 239 35.640 239 L 50.280 239 49.714 233.518 C 48.942 226.039, 45.649 220.493, 40.500 218 C 35.729 215.690, 28.008 215.422, 23.450 217.407 M 27.500 221.945 C 24.306 223.253, 21.961 226.465, 21.321 230.411 L 20.727 234.070 31.613 233.785 L 42.500 233.500 42.146 231 C 41.069 223.405, 34.244 219.185, 27.500 221.945 " stroke="none" fill="black" fill-rule="evenodd"/>
</svg>