<svg xmlns="http://www.w3.org/2000/svg" width="84" height="324" viewBox="0 0 84 324" version="1.1">
	<path d="M 20.401 218.020 C 15.507 221.155, 13.490 226.887, 13.556 237.472 C 13.593 243.531, 14.149 247.726, 15.246 250.228 C 19.087 258.993, 31.006 260.754, 38.750 253.701 L 41 251.651 41 256.375 C 41 262.737, 38.868 266.559, 34.517 267.994 C 30.253 269.402, 24.543 267.883, 22.957 264.920 C 21.825 262.805, 16.591 262.234, 15.438 264.100 C 14.450 265.700, 18.101 270.215, 22.071 272.303 C 26.799 274.789, 37.784 274.283, 41.718 271.398 C 47.523 267.141, 47.997 264.749, 47.998 239.687 L 48 216.873 44.789 217.187 C 42.314 217.428, 41.443 218.073, 40.987 220 C 40.496 222.079, 40.236 222.237, 39.448 220.940 C 36.336 215.818, 26.250 214.272, 20.401 218.020 M 26.302 222.012 C 22.209 223.660, 20.781 228.297, 21.158 238.716 C 21.481 247.645, 21.657 248.311, 24.306 250.588 C 31.974 257.181, 41 249.835, 41 237 C 41 225.387, 34.467 218.724, 26.302 222.012 " stroke="none" fill="black" fill-rule="evenodd"/>
</svg>