<svg xmlns="http://www.w3.org/2000/svg" width="116" height="324" viewBox="0 0 116 324" version="1.1">
	<path d="M 28.388 216.980 C 27.227 217.449, 25.314 219.057, 24.138 220.552 L 22 223.270 22 220.135 C 22 217.219, 21.756 217, 18.500 217 L 15 217 15 237.500 L 15 258 18.500 258 L 22 258 22.024 245.750 C 22.061 226.738, 23.961 221.917, 31.501 221.703 C 34.299 221.624, 35.732 222.185, 37.127 223.909 C 38.782 225.952, 39 228.072, 39 242.111 L 39 258 42.500 258 L 46 258 46.006 245.250 C 46.014 226.584, 47.907 221.918, 55.563 221.701 C 58.295 221.624, 59.742 222.198, 61.127 223.909 C 62.782 225.952, 63 228.072, 63 242.111 L 63 258 66.563 258 L 70.126 258 69.813 239.916 L 69.500 221.831 66.234 218.916 C 63.713 216.664, 62.004 216.001, 58.734 216.006 C 54.065 216.013, 49.352 218.052, 47.328 220.942 C 46.082 222.721, 45.843 222.643, 42.608 219.408 C 39.741 216.541, 38.509 216.010, 34.850 216.063 C 32.458 216.098, 29.550 216.511, 28.388 216.980 " stroke="none" fill="black" fill-rule="evenodd"/>
</svg>