<svg xmlns="http://www.w3.org/2000/svg" width="84" height="324" viewBox="0 0 84 324" version="1.1">
	<path d="M 24.001 217.071 C 17.633 219.743, 14.173 225.345, 13.333 234.336 C 12.271 245.709, 16.606 255.024, 24.315 257.936 C 32.278 260.945, 43.078 257.831, 47.095 251.368 C 49.217 247.956, 49.500 246.322, 49.500 237.500 C 49.500 226.482, 48.129 222.669, 42.718 218.635 C 39.516 216.249, 28.211 215.304, 24.001 217.071 M 27.500 221.945 C 22.768 223.882, 21.517 226.729, 21.170 236.353 C 20.872 244.590, 21.071 245.840, 23.170 248.923 C 26.142 253.289, 29.974 254.624, 35.113 253.084 C 39.760 251.692, 41.688 248.503, 42.606 240.692 C 43.568 232.508, 41.552 225.308, 37.629 222.916 C 34.341 220.910, 30.846 220.576, 27.500 221.945 " stroke="none" fill="black" fill-rule="evenodd"/>
</svg>