<svg xmlns="http://www.w3.org/2000/svg" width="84" height="324" viewBox="0 0 84 324" version="1.1">
	<path d="M 15 245 L 15 274 18.500 274 L 22 274 22 263.313 L 22 252.626 24.999 255.499 C 27.442 257.840, 29.063 258.441, 33.749 258.741 C 44.401 259.425, 49.149 253.725, 49.814 239.456 C 50.285 229.342, 48.764 223.564, 44.510 219.310 C 41.542 216.342, 40.614 216, 35.534 216 C 29.355 216, 26.430 217.086, 23.772 220.367 C 22.052 222.491, 22.044 222.486, 22.022 219.250 C 22.001 216.207, 21.777 216, 18.500 216 L 15 216 15 245 M 28.302 222.012 C 24.620 223.495, 22.639 228.671, 22.566 237 C 22.488 245.820, 24.156 250.512, 28.091 252.547 C 35.264 256.256, 41.340 252.128, 42.512 242.752 C 44.481 226.989, 38.310 217.982, 28.302 222.012 " stroke="none" fill="black" fill-rule="evenodd"/>
</svg>