<svg xmlns="http://www.w3.org/2000/svg" width="68" height="324" viewBox="0 0 68 324" version="1.1">
	<path d="M 26.660 217.131 C 25.647 217.719, 24.202 219.618, 23.449 221.350 L 22.078 224.500 22.039 220.750 C 22.001 217.138, 21.871 217, 18.500 217 L 15 217 15 237.500 L 15 258 19 258 L 23 258 23.004 243.750 C 23.007 231.308, 23.259 229.088, 24.989 226.250 C 26.695 223.452, 27.529 223, 30.985 223 C 34.907 223, 35 222.919, 35 219.500 C 35 216.212, 34.803 216.002, 31.750 216.030 C 29.962 216.047, 27.672 216.542, 26.660 217.131 " stroke="none" fill="black" fill-rule="evenodd"/>
</svg>