<svg xmlns="http://www.w3.org/2000/svg" width="100" height="324" viewBox="0 0 100 324" version="1.1">
	<path d="M 16 231 L 16 258 30.288 258 C 43.119 258, 45.030 257.771, 49.030 255.750 C 60.359 250.027, 60.960 236.018, 50.085 231.149 L 46.211 229.415 49.147 227.730 C 55.354 224.168, 56.561 214.282, 51.441 208.938 C 47.842 205.182, 42.245 204, 28.057 204 L 16 204 16 231 M 24 218.500 L 24 227 31.532 227 C 43.820 227, 47.732 224.281, 46.828 216.371 C 46.338 212.080, 41.421 210.003, 31.750 210.002 L 24 210 24 218.500 M 24 242.500 L 24 252.182 34.422 251.841 C 43.826 251.533, 45.096 251.263, 47.422 249.076 C 51.045 245.669, 51.045 239.331, 47.422 235.924 C 45.096 233.737, 43.826 233.467, 34.422 233.159 L 24 232.818 24 242.500 " stroke="none" fill="black" fill-rule="evenodd"/>
</svg>