<svg xmlns="http://www.w3.org/2000/svg" width="84" height="324" viewBox="0 0 84 324" version="1.1">
	<path d="M 26 208 C 26 210.933, 26.111 211, 31 211 L 36 211 35.985 228.250 C 35.969 246.793, 35.422 249.345, 30.916 251.874 C 26.408 254.404, 19 250.554, 19 245.681 C 19 244.007, 18.499 243.820, 15.376 244.326 C 13.383 244.650, 11.531 245.135, 11.262 245.405 C 10.992 245.675, 11.770 247.959, 12.991 250.481 C 15.975 256.645, 21.194 259.397, 28.716 258.774 C 34.935 258.258, 38.719 255.889, 41.248 250.929 C 42.750 247.983, 42.997 244.505, 42.998 226.250 L 43 205 34.500 205 L 26 205 26 208 " stroke="none" fill="black" fill-rule="evenodd"/>
</svg>