<svg xmlns="http://www.w3.org/2000/svg" width="100" height="324" viewBox="0 0 100 324" version="1.1">
	<path d="M 30.340 205.376 C 24.336 207.339, 20.387 210.483, 17.291 215.766 C 15.003 219.671, 14.512 221.836, 14.177 229.508 C 13.836 237.296, 14.104 239.371, 16.029 243.845 C 18.835 250.369, 25.422 256.365, 31.451 257.883 C 45.604 261.447, 58.077 256.674, 63.483 245.625 C 70.513 231.255, 66.236 213.830, 54.020 207.074 C 48.653 204.106, 36.819 203.257, 30.340 205.376 M 32.741 211.429 C 27.855 213.173, 26.264 214.562, 23.944 219.109 C 19.072 228.660, 20.878 241.947, 27.914 248.303 C 36.845 256.372, 51.350 253.719, 56.750 243.030 C 60.968 234.680, 59.201 219.980, 53.355 214.788 C 48.259 210.264, 39.848 208.893, 32.741 211.429 " stroke="none" fill="black" fill-rule="evenodd"/>
</svg>