<svg xmlns="http://www.w3.org/2000/svg" width="84" height="324" viewBox="0 0 84 324" version="1.1">
	<path d="M 12 204.567 C 12 204.879, 16.500 212.005, 22 220.403 L 32 235.672 32 246.836 L 32 258 36 258 L 40 258 40 246.815 L 40 235.631 50 220.452 C 55.500 212.103, 60 204.986, 60 204.636 C 60 204.286, 58.313 204.001, 56.250 204.001 C 52.544 204.002, 52.406 204.149, 44.500 216.493 C 40.100 223.363, 36.271 228.987, 35.991 228.992 C 35.711 228.996, 31.917 223.375, 27.560 216.500 C 19.679 204.065, 19.618 204, 15.819 204 C 13.719 204, 12 204.255, 12 204.567 " stroke="none" fill="black" fill-rule="evenodd"/>
</svg>