<svg xmlns="http://www.w3.org/2000/svg" width="52" height="324" viewBox="0 0 52 324" version="1.1">
	<path d="M 13 63.752 C 7.120 66.689, 4.169 75.700, 8.538 77.376 C 11.003 78.322, 12.959 76.938, 13.813 73.643 C 14.493 71.017, 15.111 70.500, 17.564 70.500 C 20.031 70.500, 20.551 70.944, 20.819 73.278 C 21.086 75.605, 20.639 76.230, 18.063 77.128 C 14.800 78.265, 13.346 81.365, 14.448 84.835 C 15.686 88.736, 18.079 88.245, 23.138 83.051 C 27.429 78.646, 28 77.554, 28 73.752 C 28 68.574, 25.897 65.273, 21.401 63.394 C 17.215 61.645, 17.217 61.645, 13 63.752 M 15.616 94.527 C 14.727 95.416, 14 96.529, 14 97 C 14 98.389, 17.140 101.120, 18.295 100.735 C 20.395 100.035, 21.549 97.094, 20.423 95.310 C 18.905 92.902, 17.474 92.669, 15.616 94.527 " stroke="none" fill="black" fill-rule="evenodd"/>
</svg>