<svg xmlns="http://www.w3.org/2000/svg" width="68" height="324" viewBox="0 0 68 324" version="1.1">
	<path d="M 7.571 63.571 C 6.707 64.436, 6 65.529, 6 66 C 6 67.111, 8.889 70, 10 70 C 11.111 70, 14 67.111, 14 66 C 14 64.889, 11.111 62, 10 62 C 9.529 62, 8.436 62.707, 7.571 63.571 M 23.596 63.894 C 21.960 65.702, 22.274 66.570, 30.563 83.144 C 35.337 92.690, 39.751 100.837, 40.372 101.249 C 40.992 101.661, 42.121 101.886, 42.879 101.749 C 44.415 101.472, 61.922 68.491, 61.970 65.785 C 61.986 64.842, 61.063 63.569, 59.917 62.955 C 56.838 61.308, 55.357 63.127, 48.533 76.930 C 45.252 83.568, 42.312 89, 42 89 C 41.688 89, 38.748 83.534, 35.467 76.853 C 27.827 61.299, 26.880 60.265, 23.596 63.894 " stroke="none" fill="black" fill-rule="evenodd"/>
</svg>