<svg xmlns="http://www.w3.org/2000/svg" width="68" height="324" viewBox="0 0 68 324" version="1.1">
	<path d="M 13 63.727 C 7.116 66.707, 4.176 75.702, 8.538 77.376 C 11.003 78.322, 12.959 76.938, 13.813 73.643 C 14.493 71.017, 15.111 70.500, 17.564 70.500 C 20.023 70.500, 20.551 70.946, 20.816 73.250 C 21.073 75.478, 20.603 76.200, 18.337 77.062 C 15.082 78.300, 14.037 79.658, 14.015 82.679 C 14 84.864, 16.367 88, 18.032 88 C 18.521 88, 19.501 87.300, 20.211 86.445 C 20.920 85.590, 22.954 83.500, 24.732 81.801 C 30.280 76.497, 29.963 69.166, 24 64.885 C 20.128 62.105, 16.877 61.763, 13 63.727 M 37.968 64.193 C 31.955 70.453, 30.034 82.826, 33.780 91.174 C 36.447 97.116, 40.477 101.214, 43.265 100.818 C 46.556 100.350, 46.753 96.398, 43.647 93.142 C 37.582 86.783, 37.346 75.543, 43.149 69.348 C 44.311 68.107, 45.024 66.202, 44.832 64.848 C 44.374 61.609, 40.780 61.265, 37.968 64.193 M 15.571 94.571 C 14.707 95.436, 14 96.529, 14 97 C 14 98.111, 16.889 101, 18 101 C 19.111 101, 22 98.111, 22 97 C 22 95.889, 19.111 93, 18 93 C 17.529 93, 16.436 93.707, 15.571 94.571 " stroke="none" fill="black" fill-rule="evenodd"/>
</svg>