<svg xmlns="http://www.w3.org/2000/svg" width="116" height="324" viewBox="0 0 116 324" version="1.1">
	<path d="M 24.270 70.784 C 14.794 75.552, 6.820 80.026, 6.551 80.727 C 6.283 81.427, 6.283 82.573, 6.551 83.273 C 7.264 85.129, 41.672 102.063, 43.391 101.403 C 45.142 100.732, 46.123 98.483, 45.440 96.705 C 45.167 95.993, 39.106 92.520, 31.972 88.986 C 24.837 85.453, 19 82.308, 19 81.997 C 19 81.687, 24.466 78.748, 31.147 75.467 C 43.023 69.633, 46 67.736, 46 66 C 46 64.952, 43.117 61.978, 42.179 62.057 C 41.805 62.089, 33.747 66.016, 24.270 70.784 M 61.378 63.414 C 57.376 65.185, 55 68.607, 55 72.600 C 55 78.689, 60.300 79.502, 61.807 73.643 C 62.788 69.831, 67.203 68.643, 68.863 71.744 C 70.045 73.953, 69.120 75.750, 65.983 77.340 C 62.362 79.176, 61.530 81.254, 63.113 84.505 C 64.811 87.992, 66.396 88.618, 68.161 86.499 C 68.897 85.614, 70.954 83.500, 72.732 81.801 C 78.280 76.497, 77.963 69.166, 72 64.885 C 68.411 62.309, 64.957 61.830, 61.378 63.414 M 85.778 64.710 C 84.309 66.244, 82.407 69.173, 81.553 71.218 C 79.411 76.345, 79.583 86.505, 81.896 91.500 C 84.221 96.521, 89.213 101.297, 91.651 100.832 C 94.542 100.281, 94.540 96.175, 91.647 93.142 C 85.582 86.783, 85.346 75.543, 91.149 69.348 C 93.670 66.656, 93.289 62.613, 90.475 62.210 C 89.288 62.040, 87.346 63.074, 85.778 64.710 M 64.200 94.200 C 62.111 96.289, 63.447 101, 66.129 101 C 67.139 101, 70 98.044, 70 97 C 70 95.956, 67.139 93, 66.129 93 C 65.728 93, 64.860 93.540, 64.200 94.200 " stroke="none" fill="black" fill-rule="evenodd"/>
</svg>