<svg xmlns="http://www.w3.org/2000/svg" width="52" height="324" viewBox="0 0 52 324" version="1.1">
	<path d="M 24.270 70.787 C 14.794 75.553, 6.820 80.026, 6.551 80.727 C 6.283 81.427, 6.283 82.573, 6.551 83.273 C 6.820 83.973, 14.949 88.493, 24.615 93.317 C 38.869 100.430, 42.464 101.859, 43.643 100.881 C 47.137 97.982, 44.812 95.659, 31.752 89 C 24.740 85.425, 19.003 82.267, 19.002 81.981 C 19.001 81.696, 24.641 78.653, 31.536 75.218 C 38.431 71.784, 44.353 68.244, 44.696 67.351 C 45.343 65.664, 44.041 62.802, 42.429 62.370 C 41.918 62.233, 33.747 66.021, 24.270 70.787 " stroke="none" fill="black" fill-rule="evenodd"/>
</svg>