<svg xmlns="http://www.w3.org/2000/svg" width="100" height="324" viewBox="0 0 100 324" version="1.1">
	<path d="M 24.270 70.787 C 14.794 75.553, 6.820 80.026, 6.551 80.727 C 6.283 81.427, 6.283 82.573, 6.551 83.273 C 6.820 83.973, 14.949 88.493, 24.615 93.317 C 38.869 100.430, 42.464 101.859, 43.643 100.881 C 47.137 97.982, 44.812 95.659, 31.752 89 C 24.740 85.425, 19.003 82.267, 19.002 81.981 C 19.001 81.696, 24.641 78.653, 31.536 75.218 C 38.431 71.784, 44.353 68.244, 44.696 67.351 C 45.343 65.664, 44.041 62.802, 42.429 62.370 C 41.918 62.233, 33.747 66.021, 24.270 70.787 M 61.500 63.403 C 55.376 66.106, 52.183 73.040, 55.524 76.381 C 57.833 78.690, 59.169 78.049, 61.287 73.615 C 62.788 70.474, 63.510 69.925, 65.787 70.187 C 67.915 70.433, 68.569 71.099, 68.819 73.278 C 69.086 75.605, 68.639 76.230, 66.063 77.128 C 62.800 78.265, 61.346 81.365, 62.448 84.835 C 63.686 88.736, 66.079 88.245, 71.138 83.051 C 75.429 78.646, 76 77.554, 76 73.752 C 76 68.574, 73.897 65.273, 69.401 63.394 C 65.403 61.724, 65.303 61.724, 61.500 63.403 M 63.616 94.527 C 62.727 95.416, 62 96.529, 62 97 C 62 98.389, 65.140 101.120, 66.295 100.735 C 68.395 100.035, 69.549 97.094, 68.423 95.310 C 66.905 92.902, 65.474 92.669, 63.616 94.527 " stroke="none" fill="black" fill-rule="evenodd"/>
</svg>