<svg xmlns="http://www.w3.org/2000/svg" width="52" height="324" viewBox="0 0 52 324" version="1.1">
	<path d="M 7.571 63.571 C 6.707 64.436, 6 65.609, 6 66.178 C 6 66.747, 9.226 70.540, 13.169 74.607 L 20.338 82 13.169 89.393 C 9.226 93.460, 6 97.253, 6 97.822 C 6 99.161, 8.839 102, 10.178 102 C 10.747 102, 14.540 98.774, 18.607 94.831 L 26 87.662 33.393 94.831 C 37.460 98.774, 41.195 102, 41.693 102 C 43.129 102, 45 99.749, 45 98.021 C 45 97.153, 42.075 93.543, 38.500 90 C 34.925 86.457, 32 82.857, 32 82 C 32 81.143, 34.925 77.543, 38.500 74 C 42.075 70.457, 45 66.847, 45 65.979 C 45 64.251, 43.129 62, 41.693 62 C 41.195 62, 37.460 65.226, 33.393 69.169 L 26 76.338 18.607 69.169 C 14.540 65.226, 10.747 62, 10.178 62 C 9.609 62, 8.436 62.707, 7.571 63.571 " stroke="none" fill="black" fill-rule="evenodd"/>
</svg>