<svg xmlns="http://www.w3.org/2000/svg" width="340" height="324" viewBox="0 0 340 324" version="1.1">
	<path d="M 255.205 127.092 C 230.609 130.840, 209.098 149.266, 201.555 173.046 C 200.238 177.197, 198.850 183.752, 198.469 187.614 C 197.891 193.479, 198.055 194.912, 199.460 196.317 C 200.386 197.243, 201.535 198, 202.015 198 C 203.925 198, 206 193.308, 206 188.988 C 206 170.320, 220.525 148.844, 239.054 140.119 C 243.699 137.931, 249.049 135.829, 250.942 135.449 L 254.384 134.757 250.092 139.628 C 235.685 155.978, 228.068 180.905, 230.819 202.692 C 233.359 222.802, 240.480 237.431, 254.732 251.822 C 264.313 261.496, 266.925 262.723, 269.398 258.712 C 270.339 257.185, 269.507 256.034, 263.718 250.846 C 256.172 244.083, 249.847 235.714, 245.050 226.144 C 235.456 207.002, 235.456 179.998, 245.050 160.856 C 249.326 152.324, 255.768 143.390, 261.360 138.236 C 266.621 133.386, 269.481 132.958, 279.540 135.515 C 301.389 141.069, 318.328 158.232, 323.443 180 C 324.283 183.575, 324.977 188.622, 324.985 191.215 C 324.997 194.946, 325.431 196.160, 327.064 197.034 C 334.863 201.208, 333.093 178.561, 324.303 161.700 C 321.753 156.809, 317.954 151.890, 312.457 146.361 C 305.703 139.568, 302.806 137.478, 294.933 133.719 C 289.745 131.242, 283.475 128.743, 281 128.165 C 274.002 126.530, 262.132 126.036, 255.205 127.092 M 33.384 159.412 C 15.480 163.757, 3.543 181.833, 6.993 199.372 C 9.077 209.960, 14.986 218.563, 23.673 223.654 C 27.992 226.185, 41.830 230.214, 43.238 229.350 C 43.644 229.101, 46.569 228.222, 49.738 227.396 C 65.948 223.175, 76.252 210.003, 76.252 193.500 C 76.252 176.888, 65.367 163.178, 49.147 159.360 C 42.397 157.772, 40.111 157.779, 33.384 159.412 M 276.764 158.996 C 268.990 161.336, 263.634 167.182, 262.444 174.624 C 261.954 177.686, 262.202 179.059, 263.471 180.328 C 266.454 183.312, 268.134 182.008, 269.921 175.323 C 272.813 164.505, 286.535 162.399, 291.506 172.011 C 292.328 173.600, 293 176.206, 293 177.802 C 293 181.774, 289.068 187.286, 285.469 188.360 C 277.504 190.737, 278 189.869, 278 201.443 C 278 211.014, 278.180 212.026, 280.064 213.034 C 283.745 215.004, 285 212.704, 285 203.986 C 285 196.548, 285.106 196.190, 287.482 195.594 C 290.987 194.714, 297.050 189.124, 298.649 185.298 C 300.380 181.155, 300.380 173.845, 298.649 169.702 C 296.863 165.428, 290.978 160.365, 286.277 159.060 C 281.951 157.859, 280.571 157.849, 276.764 158.996 M 31.054 167.728 C 25.018 169.859, 17.781 177.260, 15.667 183.463 C 10.058 199.925, 18.847 216.571, 35.250 220.550 L 38 221.217 38 193.608 C 38 172.146, 37.722 166.018, 36.750 166.079 C 36.063 166.122, 33.499 166.864, 31.054 167.728 M 46 193.500 L 46 221.135 48.250 220.448 C 56.638 217.886, 63.034 212.627, 66.470 205.467 C 68.918 200.365, 69.597 191.204, 67.960 185.357 C 65.541 176.717, 57.808 169.329, 48.250 166.525 L 46 165.865 46 193.500 M 103.585 191.558 C 102.713 192.430, 102 193.529, 102 194 C 102 194.471, 102.713 195.570, 103.585 196.442 C 104.978 197.835, 109.159 197.995, 138.226 197.763 C 168.452 197.523, 171.377 197.350, 172.386 195.750 C 173.191 194.474, 173.191 193.526, 172.386 192.250 C 171.377 190.650, 168.452 190.477, 138.226 190.237 C 109.159 190.005, 104.978 190.165, 103.585 191.558 M 279.750 222.080 C 277.372 223.465, 277.542 226.685, 280.064 228.034 C 283.753 230.008, 286.819 225.219, 283.800 222.200 C 282.367 220.767, 282.022 220.757, 279.750 222.080 M 7.571 255.571 C 6.707 256.436, 6 257.529, 6 258 C 6 258.471, 6.707 259.564, 7.571 260.429 C 8.936 261.793, 13.463 262, 42 262 C 70.537 262, 75.064 261.793, 76.429 260.429 C 77.293 259.564, 78 258.471, 78 258 C 78 257.529, 77.293 256.436, 76.429 255.571 C 75.064 254.207, 70.537 254, 42 254 C 13.463 254, 8.936 254.207, 7.571 255.571 " stroke="none" fill="black" fill-rule="evenodd"/>
</svg>