<svg xmlns="http://www.w3.org/2000/svg" width="212" height="324" viewBox="0 0 212 324" version="1.1">
	<path d="M 7.571 127.571 C 6.206 128.937, 6 133.497, 6 162.371 C 6 186.883, 6.315 195.915, 7.200 196.800 C 8.081 197.681, 16.578 198, 39.200 198 L 70 198 70 228.429 C 70 254.758, 70.212 259.069, 71.571 260.429 C 73.545 262.402, 74.455 262.402, 76.429 260.429 C 77.824 259.034, 78 251.848, 78 196.429 C 78 137.634, 78.102 134.001, 79.750 134.015 C 84.205 134.052, 94.953 137.387, 101.397 140.732 C 118.972 149.853, 133 171.273, 133 188.988 C 133 193.308, 135.075 198, 136.985 198 C 137.465 198, 138.614 197.243, 139.540 196.317 C 143.234 192.623, 138.505 171.319, 131.293 159.168 C 120.918 141.686, 102.776 129.862, 81.831 126.932 C 66.770 124.825, 49.712 128.774, 36.773 137.363 C 30.503 141.524, 19.024 153.217, 16.285 158.231 C 14.500 161.500, 14.500 161.500, 14 144.711 C 13.600 131.265, 13.201 127.734, 12 126.977 C 9.946 125.681, 9.386 125.757, 7.571 127.571 M 59 135.576 C 42.630 139.875, 27.627 151.802, 20.670 166.046 C 17.044 173.472, 14 183.357, 14 187.710 L 14 190 42 190 L 70 190 70 162 L 70 134 67.250 134.066 C 65.737 134.102, 62.025 134.782, 59 135.576 M 167.557 160.223 C 166.254 162.082, 166 166.310, 166 186.112 C 166 207.494, 166.175 209.995, 167.817 212.022 C 169.364 213.933, 169.958 214.093, 171.817 213.098 C 173.975 211.943, 174 211.631, 174 186 C 174 161.388, 173.902 160.018, 172.066 159.035 C 169.462 157.642, 169.343 157.673, 167.557 160.223 M 168.200 222.200 C 165.181 225.219, 168.247 230.008, 171.936 228.034 C 174.536 226.643, 174.606 223.395, 172.066 222.035 C 169.655 220.745, 169.655 220.745, 168.200 222.200 " stroke="none" fill="black" fill-rule="evenodd"/>
</svg>