<svg xmlns="http://www.w3.org/2000/svg" width="468" height="324" viewBox="0 0 468 324" version="1.1">
	<path d="M 61.500 127.401 C 46.645 130.266, 35.144 136.774, 24.168 148.528 C 13.801 159.628, 8.225 172.265, 6.488 188.598 C 5.401 198.807, 0.053 198, 68.774 198 L 128.405 198 115.202 211.333 C 107.941 218.666, 102 225.159, 102 225.761 C 102 227.178, 104.822 230, 106.239 230 C 106.841 230, 113.334 224.059, 120.667 216.798 L 134 203.595 134 231.226 C 134 255.012, 134.219 259.076, 135.571 260.429 C 137.545 262.402, 138.455 262.402, 140.429 260.429 C 141.825 259.032, 142 251.628, 142 194 C 142 136.372, 141.825 128.968, 140.429 127.571 C 138.455 125.598, 137.545 125.598, 135.571 127.571 C 134.265 128.878, 134 132.037, 134 146.313 L 134 163.483 129.965 157.307 C 121.197 143.889, 105.462 132.416, 90.500 128.533 C 81.877 126.295, 69.699 125.820, 61.500 127.401 M 391.571 127.571 C 390.175 128.968, 390 136.372, 390 194 C 390 251.628, 390.175 259.032, 391.571 260.429 C 392.936 261.793, 397.463 262, 426 262 C 454.537 262, 459.064 261.793, 460.429 260.429 C 461.293 259.564, 462 258.471, 462 258 C 462 257.529, 461.293 256.436, 460.429 255.571 C 459.069 254.212, 454.758 254, 428.429 254 L 398 254 398 191.571 C 398 136.152, 397.824 128.966, 396.429 127.571 C 395.564 126.707, 394.471 126, 394 126 C 393.529 126, 392.436 126.707, 391.571 127.571 M 59.217 135.449 C 42.756 139.435, 27.478 151.839, 20.165 167.154 C 16.488 174.855, 14 183.288, 14 188.049 C 14 189.961, 15.148 190, 71.202 190 L 128.405 190 115.202 176.667 C 107.941 169.334, 102 162.841, 102 162.239 C 102 160.825, 104.820 158, 106.232 158 C 106.831 158, 112.933 163.512, 119.791 170.250 C 133.118 183.343, 133.357 183.375, 128.904 171.474 C 126.075 163.911, 119.938 155.058, 113.355 149.041 C 107.110 143.334, 94.312 136.759, 86.201 135.090 C 79.260 133.662, 65.861 133.841, 59.217 135.449 M 290.223 159.008 C 279.924 161.167, 269.980 169.445, 265.216 179.825 C 261.512 187.894, 261.512 199.106, 265.216 207.175 C 270.398 218.465, 279.875 225.843, 292.008 228.033 C 297.522 229.028, 299.479 228.950, 305 227.511 C 308.575 226.580, 312.400 225.818, 313.500 225.818 C 314.600 225.818, 318.425 226.580, 322 227.511 C 345.463 233.625, 368.904 211.228, 363.986 187.396 C 362.451 179.961, 359.911 174.944, 354.967 169.580 C 345.544 159.357, 329.520 155.563, 317.130 160.622 C 314.236 161.804, 313.141 161.788, 309.366 160.506 C 303.546 158.530, 295.504 157.901, 290.223 159.008 M 423.282 175.282 C 413.777 184.787, 406 193.210, 406 194 C 406 195.693, 440.031 230, 441.710 230 C 443.173 230, 446 227.200, 446 225.751 C 446 225.143, 439.156 217.750, 430.792 209.323 L 415.584 194 430.792 178.677 C 439.156 170.250, 446 162.857, 446 162.249 C 446 160.800, 443.173 158, 441.710 158 C 441.079 158, 432.787 165.777, 423.282 175.282 M 287.054 167.728 C 281.018 169.859, 273.781 177.260, 271.667 183.463 C 267.948 194.378, 270.390 205.587, 278.128 213.125 C 283.620 218.474, 289.864 221, 297.596 221 C 305.911 221, 306.562 220.404, 302.858 216.186 C 291.683 203.458, 291.683 183.542, 302.858 170.814 C 305.476 167.832, 305.743 167.116, 304.425 166.610 C 301.521 165.495, 291.562 166.136, 287.054 167.728 M 322.226 166.670 C 321.345 167.025, 321.881 168.239, 323.970 170.619 C 335.397 183.633, 335.404 203.359, 323.987 216.362 C 320.446 220.395, 321.152 221, 329.404 221 C 337.293 221, 343.432 218.473, 348.952 212.952 C 359.862 202.043, 359.862 184.957, 348.952 174.048 C 345.942 171.037, 342.363 168.630, 339.392 167.618 C 334.914 166.092, 325.022 165.546, 322.226 166.670 M 308.632 175.117 C 300.239 184.923, 299.770 200.455, 307.560 210.668 C 312.053 216.558, 313.612 216.753, 318.022 211.976 C 327.336 201.887, 327.369 185.148, 318.094 175.102 C 316.011 172.846, 313.823 171, 313.232 171 C 312.640 171, 310.570 172.852, 308.632 175.117 M 167.571 191.571 C 166.707 192.436, 166 193.529, 166 194 C 166 194.471, 166.707 195.564, 167.571 196.429 C 168.936 197.793, 173.463 198, 202 198 C 230.537 198, 235.064 197.793, 236.429 196.429 C 237.293 195.564, 238 194.471, 238 194 C 238 193.529, 237.293 192.436, 236.429 191.571 C 235.064 190.207, 230.537 190, 202 190 C 173.463 190, 168.936 190.207, 167.571 191.571 " stroke="none" fill="black" fill-rule="evenodd"/>
</svg>