<svg xmlns="http://www.w3.org/2000/svg" width="436" height="324" viewBox="0 0 436 324" version="1.1">
	<path d="M 7.571 127.571 C 6.175 128.968, 6 136.372, 6 194 C 6 251.628, 6.175 259.032, 7.571 260.429 C 8.436 261.293, 9.666 262, 10.305 262 C 12.018 262, 78 195.721, 78 194 C 78 192.279, 12.018 126, 10.305 126 C 9.666 126, 8.436 126.707, 7.571 127.571 M 255.500 127.042 C 233.069 130.454, 211.857 147.040, 203.440 167.749 C 202.256 170.662, 201.097 173.236, 200.865 173.469 C 200.632 173.701, 197.305 174.390, 193.471 175.001 C 183.222 176.632, 173.701 181.605, 166.500 189.086 C 162.472 193.272, 158.364 196.335, 154 198.410 C 148.014 201.256, 146.670 201.500, 137 201.496 C 125.269 201.492, 119.704 199.711, 111.237 193.248 C 106.707 189.790, 103.754 189.594, 102.572 192.673 C 102.167 193.728, 103.299 195.546, 105.907 198.026 C 114.576 206.273, 130.099 210.946, 142.666 209.094 C 155.062 207.266, 166.062 201.718, 171.547 194.528 C 174.925 190.099, 182.094 185.588, 188.932 183.588 C 198.835 180.692, 198.496 180.351, 198.527 193.250 C 198.548 202.105, 199.044 206.096, 200.858 212 C 203.404 220.283, 208.272 229.622, 212.848 235 L 215.826 238.500 206.913 247.615 C 202.011 252.629, 198 257.209, 198 257.794 C 198 259.169, 200.831 262, 202.206 262 C 202.791 262, 207.371 257.995, 212.385 253.101 L 221.500 244.202 225.933 247.637 C 236.621 255.920, 250.413 260.340, 265.500 260.319 C 284.199 260.292, 298.950 254.089, 312.584 240.521 C 325.867 227.301, 332 212.448, 332 193.500 C 332 178.394, 327.853 165.379, 319.349 153.794 L 315.707 148.833 324.354 140.147 C 333.033 131.427, 334.225 129.262, 331.564 127.053 C 329.534 125.368, 327.801 126.545, 318.602 135.851 L 310.704 143.842 305.602 140.013 C 291.361 129.328, 272.527 124.452, 255.500 127.042 M 391.750 127.080 C 390.140 128.018, 390 130.699, 390 160.546 L 390 192.992 373.756 225.498 C 360.426 252.173, 357.710 258.317, 358.615 259.752 C 359.621 261.348, 362.540 261.524, 392.109 261.779 C 409.924 261.933, 425.463 261.825, 426.640 261.538 C 427.817 261.252, 429.047 260.321, 429.373 259.470 C 429.722 258.560, 423.177 244.347, 413.484 224.967 L 397 192.012 397 160.206 C 397 125.492, 396.787 124.146, 391.750 127.080 M 249.500 135.893 C 233.834 140.465, 218.855 152.619, 212.243 166.123 C 210.459 169.765, 209 173.229, 209 173.821 C 209 174.413, 211.739 175.665, 215.086 176.604 C 218.434 177.544, 223.857 180.047, 227.138 182.168 L 233.103 186.023 236.353 183.544 C 245.392 176.650, 259.845 173.138, 271.511 175.002 L 278.390 176.101 291.945 162.541 L 305.500 148.982 302.500 146.479 C 298.104 142.812, 284.311 136.347, 278.201 135.090 C 270.351 133.475, 256.453 133.864, 249.500 135.893 M 14 194 L 14 248.495 41.248 221.248 L 68.495 194 41.248 166.752 L 14 139.505 14 194 M 297.640 166.860 L 285.811 178.720 289.655 181.085 C 300.072 187.492, 304.944 194.931, 299.794 196.565 C 298.581 196.950, 295.094 198.965, 292.044 201.043 C 283.849 206.627, 275.250 209.246, 264.770 209.349 L 256.040 209.436 241.270 224.255 L 226.500 239.075 229 241.016 C 233.645 244.623, 244.464 249.820, 250.644 251.415 C 257.760 253.251, 270.565 253.481, 278.201 251.910 C 281.115 251.310, 287.244 249.032, 291.820 246.847 C 316.843 234.900, 330.032 205.996, 323.003 178.511 C 320.615 169.173, 313.002 155, 310.374 155 C 309.876 155, 304.146 160.337, 297.640 166.860 M 206.648 182.685 C 205.370 183.963, 206.018 202.648, 207.543 208.505 C 209.428 215.741, 214.071 225.292, 217.993 230 L 220.909 233.500 234.402 220.066 L 247.895 206.633 243.844 204.819 C 238.673 202.504, 229.875 195.537, 228.246 192.468 C 226.312 188.826, 208.553 180.781, 206.648 182.685 M 252 183.871 C 246.554 185.617, 238 190.584, 238 192 C 238 193.086, 244.896 197.396, 249.591 199.245 L 253.682 200.857 263.071 191.428 L 272.460 182 264.980 182.054 C 260.730 182.084, 255.125 182.869, 252 183.871 M 270.978 193.612 L 262.500 202.224 269.196 201.731 C 275.751 201.249, 285.566 197.474, 290.441 193.559 C 292.363 192.016, 292.363 191.985, 290.441 190.477 C 288.037 188.592, 281.366 185, 280.268 185 C 279.821 185, 275.641 188.875, 270.978 193.612 M 380.743 228.500 L 368.005 254 393.503 254 C 407.526 254, 419 253.772, 419 253.492 C 419 252.827, 394.070 203, 393.737 203 C 393.597 203, 387.750 214.475, 380.743 228.500 " stroke="none" fill="black" fill-rule="evenodd"/>
</svg>