<svg xmlns="http://www.w3.org/2000/svg" width="148" height="324" viewBox="0 0 148 324" version="1.1">
	<path d="M 70.572 64.250 C 67.027 69.664, 54.107 98.115, 54.605 99.412 C 55.267 101.138, 57.523 102.120, 59.278 101.447 C 59.981 101.177, 63.522 95.005, 67.147 87.731 L 73.738 74.505 80.311 87.624 C 83.927 94.839, 87.586 101.011, 88.442 101.340 C 90.461 102.114, 92.697 101.232, 93.407 99.381 C 93.997 97.844, 77.582 64.037, 75.628 62.765 C 73.651 61.478, 72.087 61.937, 70.572 64.250 M 71.571 127.571 C 70.212 128.931, 70 133.242, 70 159.571 L 70 190 39.571 190 C 13.242 190, 8.931 190.212, 7.571 191.571 C 5.598 193.545, 5.598 194.455, 7.571 196.429 C 8.931 197.788, 13.242 198, 39.571 198 L 70 198 70 228.429 C 70 254.758, 70.212 259.069, 71.571 260.429 C 72.436 261.293, 73.529 262, 74 262 C 74.471 262, 75.564 261.293, 76.429 260.429 C 77.788 259.069, 78 254.759, 78 228.443 L 78 198.029 108.641 197.764 C 136.566 197.523, 139.381 197.345, 140.386 195.750 C 141.191 194.474, 141.191 193.526, 140.386 192.250 C 139.381 190.655, 136.566 190.477, 108.641 190.236 L 78 189.971 78 159.557 C 78 133.241, 77.788 128.931, 76.429 127.571 C 75.564 126.707, 74.471 126, 74 126 C 73.529 126, 72.436 126.707, 71.571 127.571 " stroke="none" fill="black" fill-rule="evenodd"/>
</svg>