<svg xmlns="http://www.w3.org/2000/svg" width="180" height="324" viewBox="0 0 180 324" version="1.1">
	<path d="M 135.571 95.571 C 134.288 96.855, 134 99.788, 134 111.571 L 134 126 119.571 126 C 107.788 126, 104.855 126.288, 103.571 127.571 C 102.175 128.968, 102 136.372, 102 194 C 102 251.628, 102.175 259.032, 103.571 260.429 C 104.855 261.712, 107.788 262, 119.571 262 L 134 262 134 276.429 C 134 288.212, 134.288 291.145, 135.571 292.429 C 136.436 293.293, 137.529 294, 138 294 C 138.471 294, 139.564 293.293, 140.429 292.429 C 141.712 291.145, 142 288.212, 142 276.429 L 142 262 156.429 262 C 168.212 262, 171.145 261.712, 172.429 260.429 C 173.825 259.032, 174 251.628, 174 194 C 174 136.372, 173.825 128.968, 172.429 127.571 C 171.145 126.288, 168.212 126, 156.429 126 L 142 126 142 111.571 C 142 99.788, 141.712 96.855, 140.429 95.571 C 139.564 94.707, 138.471 94, 138 94 C 137.529 94, 136.436 94.707, 135.571 95.571 M 7.652 127.491 C 6.150 128.993, 6 135.031, 6 194 C 6 252.209, 6.165 259.022, 7.605 260.463 C 8.488 261.345, 9.951 261.835, 10.855 261.551 C 11.760 261.266, 16.100 260.404, 20.500 259.634 C 36.073 256.911, 47.509 250.597, 58.832 238.472 C 70.723 225.740, 76.376 211.249, 76.376 193.500 C 76.376 174.216, 70.602 160.524, 56.539 146.461 C 44.143 134.065, 32.744 128.546, 15.402 126.543 C 10.418 125.968, 9.002 126.141, 7.652 127.491 M 14 193.500 C 14 244.825, 14.199 253, 15.451 253 C 19.737 253, 28.473 250.355, 35.899 246.809 C 51.510 239.355, 64.473 222.910, 67.910 206.201 C 69.306 199.413, 69.306 187.587, 67.910 180.799 C 64.473 164.090, 51.510 147.645, 35.899 140.191 C 28.473 136.645, 19.737 134, 15.451 134 C 14.199 134, 14 142.175, 14 193.500 M 110 194 L 110 254 138 254 L 166 254 166 194 L 166 134 138 134 L 110 134 110 194 " stroke="none" fill="black" fill-rule="evenodd"/>
</svg>