<svg xmlns="http://www.w3.org/2000/svg" width="292" height="324" viewBox="0 0 292 324" version="1.1">
	<path d="M 159.500 127.099 C 125.918 131.887, 99.664 164.374, 102.466 197.673 C 103.980 215.672, 109.543 227.590, 122.474 240.539 C 136.530 254.615, 150.156 260.346, 169.500 260.319 C 188.199 260.292, 202.950 254.089, 216.584 240.521 C 229.867 227.301, 236 212.448, 236 193.500 C 236 174.879, 229.913 159.885, 217.121 146.995 C 205.603 135.389, 193.653 129.243, 178.284 127.020 C 170.518 125.898, 167.851 125.909, 159.500 127.099 M 153.500 135.870 C 143.383 138.782, 135.105 143.806, 126.993 151.957 C 115.146 163.860, 110 176.442, 110 193.500 C 110 210.553, 115.144 223.132, 126.993 235.054 C 139.057 247.193, 152.600 253, 168.845 253 C 179.674 253, 185.916 251.576, 195.820 246.847 C 220.843 234.900, 234.032 205.996, 227.003 178.511 C 222.717 161.754, 211.079 147.438, 195.820 140.153 C 191.244 137.968, 185.115 135.690, 182.201 135.090 C 174.410 133.487, 160.459 133.866, 153.500 135.870 M 135.616 159.527 C 134.727 160.416, 134 161.529, 134 162 C 134 163.389, 137.140 166.120, 138.295 165.735 C 140.395 165.035, 141.549 162.094, 140.423 160.310 C 138.905 157.902, 137.474 157.669, 135.616 159.527 M 167.571 159.571 C 166.212 160.931, 166 165.242, 166 191.571 L 166 222 151.571 222 C 139.788 222, 136.855 222.288, 135.571 223.571 C 133.595 225.548, 133.598 226.455, 135.585 228.442 C 136.978 229.835, 141.159 229.995, 170.226 229.763 C 200.452 229.523, 203.377 229.350, 204.386 227.750 C 205.190 226.475, 205.191 225.525, 204.387 224.250 C 203.433 222.736, 201.314 222.463, 188.643 222.223 L 174 221.947 174 192.196 C 174 166.887, 173.768 162.113, 172.443 160.223 C 170.598 157.588, 169.678 157.465, 167.571 159.571 M 199.616 159.527 C 198.727 160.416, 198 161.529, 198 162 C 198 163.389, 201.140 166.120, 202.295 165.735 C 204.395 165.035, 205.549 162.094, 204.423 160.310 C 202.905 157.902, 201.474 157.669, 199.616 159.527 M 263.315 175.213 C 253.792 184.680, 246 193.134, 246 194 C 246 195.680, 279.953 230, 281.615 230 C 283.105 230, 285 227.795, 285 226.062 C 285 225.216, 278.143 217.656, 269.762 209.262 L 254.524 194 269.762 178.738 C 278.143 170.344, 285 162.784, 285 161.938 C 285 160.205, 283.105 158, 281.615 158 C 281.073 158, 272.838 165.746, 263.315 175.213 M 7.571 191.571 C 6.707 192.436, 6 193.640, 6 194.249 C 6 194.857, 12.844 202.250, 21.208 210.677 L 36.416 226 21.208 241.323 C 12.844 249.750, 6 257.143, 6 257.751 C 6 259.181, 8.819 262, 10.249 262 C 10.857 262, 18.250 255.156, 26.677 246.792 L 42 231.584 57.323 246.792 C 65.750 255.156, 73.143 262, 73.751 262 C 75.181 262, 78 259.181, 78 257.751 C 78 257.143, 71.156 249.750, 62.792 241.323 L 47.584 226 62.792 210.677 C 71.156 202.250, 78 194.857, 78 194.249 C 78 192.819, 75.181 190, 73.751 190 C 73.143 190, 65.750 196.844, 57.323 205.208 L 42 220.416 26.677 205.208 C 18.250 196.844, 10.857 190, 10.249 190 C 9.640 190, 8.436 190.707, 7.571 191.571 M 215.616 191.527 C 214.727 192.416, 214 193.529, 214 194 C 214 195.389, 217.140 198.120, 218.295 197.735 C 220.395 197.035, 221.549 194.094, 220.423 192.310 C 218.905 189.902, 217.474 189.669, 215.616 191.527 " stroke="none" fill="black" fill-rule="evenodd"/>
</svg>