<svg xmlns="http://www.w3.org/2000/svg" width="324" height="324" viewBox="0 0 324 324" version="1.1">
	<path d="M 63.102 127.108 C 37.633 130.963, 15.059 151.541, 8.374 177 C 6.113 185.610, 6.113 201.390, 8.374 210 C 12.447 225.511, 23.726 241.091, 37.307 249.965 L 43.483 254 26.313 254 C 12.037 254, 8.878 254.265, 7.571 255.571 C 5.598 257.545, 5.598 258.455, 7.571 260.429 C 8.968 261.825, 16.372 262, 74 262 C 131.628 262, 139.032 261.825, 140.429 260.429 C 142.402 258.455, 142.402 257.545, 140.429 255.571 C 139.119 254.261, 135.917 254, 121.187 254 L 103.517 254 109.693 249.965 C 118.532 244.189, 128.968 232.618, 133.287 223.806 C 138.427 213.315, 140.302 205.237, 140.319 193.500 C 140.346 174.163, 134.618 160.540, 120.539 146.461 C 110.823 136.745, 102.203 131.569, 90.831 128.621 C 83.080 126.612, 70.806 125.942, 63.102 127.108 M 167.571 127.571 C 166.175 128.968, 166 136.372, 166 194 C 166 251.628, 166.175 259.032, 167.571 260.429 C 168.436 261.293, 169.529 262, 170 262 C 170.471 262, 171.564 261.293, 172.429 260.429 C 173.825 259.032, 174 251.628, 174 194 C 174 136.372, 173.825 128.968, 172.429 127.571 C 171.564 126.707, 170.471 126, 170 126 C 169.529 126, 168.436 126.707, 167.571 127.571 M 58.645 135.584 C 38.671 140.419, 20.279 158.986, 15.537 179.103 C 13.610 187.282, 13.610 199.718, 15.537 207.897 C 20.338 228.261, 38.739 246.662, 59.103 251.463 C 79.742 256.328, 100.600 250.431, 115.516 235.516 C 134.200 216.831, 138.470 189.002, 126.243 165.603 C 118.839 151.435, 103.149 139.133, 87.897 135.537 C 79.998 133.676, 66.439 133.697, 58.645 135.584 M 199.571 191.571 C 198.707 192.436, 198 193.529, 198 194 C 198 194.471, 198.707 195.564, 199.571 196.429 C 200.436 197.293, 201.529 198, 202 198 C 202.471 198, 203.564 197.293, 204.429 196.429 C 205.293 195.564, 206 194.471, 206 194 C 206 193.529, 205.293 192.436, 204.429 191.571 C 203.564 190.707, 202.471 190, 202 190 C 201.529 190, 200.436 190.707, 199.571 191.571 M 239.308 199.308 C 234.188 204.427, 230 209.120, 230 209.736 C 230 211.121, 232.789 214, 234.131 214 C 234.675 214, 237.568 211.685, 240.560 208.855 L 246 203.710 246 228.855 L 246 254 239.571 254 C 235.061 254, 232.674 254.469, 231.571 255.571 C 229.598 257.545, 229.598 258.455, 231.571 260.429 C 232.876 261.733, 236.009 262, 250 262 C 263.991 262, 267.124 261.733, 268.429 260.429 C 270.402 258.455, 270.402 257.545, 268.429 255.571 C 267.326 254.469, 264.939 254, 260.429 254 L 254 254 254 223.571 C 254 197.242, 253.788 192.931, 252.429 191.571 C 251.564 190.707, 250.353 190, 249.736 190 C 249.120 190, 244.427 194.188, 239.308 199.308 M 292.764 190.952 C 285.186 193.355, 279.955 199.277, 278.503 207.096 C 277.855 210.586, 279.585 214, 282 214 C 283.861 214, 286 210.700, 286 207.829 C 286 205.718, 287.030 203.770, 289.400 201.400 C 292.302 198.498, 293.488 198, 297.500 198 C 301.512 198, 302.698 198.498, 305.600 201.400 C 311.296 207.096, 310.903 208.183, 293.941 233.589 C 285.658 245.994, 278.657 256.729, 278.383 257.443 C 278.109 258.158, 278.618 259.475, 279.514 260.371 C 281.895 262.753, 314.054 262.803, 316.429 260.429 C 318.402 258.455, 318.402 257.545, 316.429 255.571 C 315.162 254.305, 312.348 254, 301.926 254 L 288.995 254 303.477 232.250 L 317.960 210.500 316.402 206 C 315.546 203.525, 314.002 200.133, 312.972 198.462 C 309.448 192.747, 299.161 188.924, 292.764 190.952 " stroke="none" fill="black" fill-rule="evenodd"/>
</svg>