<svg xmlns="http://www.w3.org/2000/svg" width="84" height="324" viewBox="0 0 84 324" version="1.1">
	<path d="M 23.571 63.571 C 22.707 64.436, 22 65.332, 22 65.564 C 22 67.123, 39.710 101.058, 40.727 101.449 C 41.427 101.717, 42.573 101.717, 43.273 101.449 C 45.129 100.736, 62.063 66.328, 61.403 64.609 C 60.732 62.858, 58.483 61.877, 56.705 62.560 C 55.993 62.833, 52.520 68.894, 48.986 76.028 C 45.453 83.163, 42.308 89, 41.997 89 C 41.687 89, 38.748 83.534, 35.467 76.853 C 27.925 61.499, 26.847 60.296, 23.571 63.571 M 7.571 127.571 C 4.149 130.994, 7.242 134, 14.188 134 L 19.233 134 15.660 137.955 C 5.450 149.255, 3.560 164.882, 10.781 178.288 C 15.413 186.888, 25.189 194.207, 33.908 195.601 L 38 196.256 38 225.128 L 38 254 23.571 254 C 11.788 254, 8.855 254.288, 7.571 255.571 C 5.598 257.545, 5.598 258.455, 7.571 260.429 C 8.936 261.793, 13.463 262, 42 262 C 70.537 262, 75.064 261.793, 76.429 260.429 C 78.402 258.455, 78.402 257.545, 76.429 255.571 C 75.145 254.288, 72.212 254, 60.429 254 L 46 254 46 225.111 L 46 196.223 49.750 195.527 C 55.247 194.508, 62.532 190.232, 66.967 185.420 C 79.675 171.633, 79.831 151.781, 67.340 137.955 L 63.767 134 69.312 134 C 74.565 134, 78 132.419, 78 130 C 78 129.529, 77.293 128.436, 76.429 127.571 C 75.064 126.207, 70.537 126, 42 126 C 13.463 126, 8.936 126.207, 7.571 127.571 M 31.054 135.728 C 25.018 137.859, 17.781 145.260, 15.667 151.463 C 11.995 162.241, 14.382 173.477, 21.952 181.048 C 32.673 191.769, 50.327 191.769, 61.048 181.048 C 71.769 170.327, 71.769 152.673, 61.048 141.952 C 53.519 134.424, 41.696 131.970, 31.054 135.728 " stroke="none" fill="black" fill-rule="evenodd"/>
</svg>