<svg xmlns="http://www.w3.org/2000/svg" width="403" height="324" viewBox="0 0 403 324" version="1.1">
	<path d="M 72.316 62.784 C 70.369 64.022, 54.007 97.855, 54.604 99.410 C 55.450 101.615, 58.110 102.210, 59.895 100.594 C 60.778 99.795, 64.185 93.709, 67.467 87.070 C 70.748 80.432, 73.687 75, 73.997 75 C 74.308 75, 77.453 80.837, 80.986 87.972 C 84.520 95.106, 88.050 101.189, 88.832 101.489 C 90.716 102.212, 93 100.227, 93 97.866 C 93 95.626, 77.264 63.831, 75.628 62.765 C 74.214 61.845, 73.789 61.847, 72.316 62.784 M 67 126.586 C 49.194 129.554, 38.125 134.768, 27.164 145.349 C 15.107 156.987, 8.421 170.983, 6.503 188.598 C 5.964 193.549, 6.150 195.007, 7.491 196.348 C 10.992 199.850, 14 196.834, 14 189.823 C 14 176.973, 20.772 162.004, 31.388 151.388 C 43.001 139.775, 56.914 133.986, 73.144 134.015 C 90.134 134.045, 103.617 139.608, 115.595 151.531 C 125.979 161.867, 133 177.441, 133 190.139 C 133 194.470, 134.738 198, 136.871 198 C 140.482 198, 141.008 188.263, 138.028 176.609 C 134.978 164.686, 129.782 155.740, 120.457 146.361 C 113.725 139.590, 110.779 137.461, 102.933 133.695 C 97.745 131.206, 91.250 128.714, 88.500 128.159 C 82.282 126.904, 70.335 126.030, 67 126.586 M 167.571 127.571 C 166.707 128.436, 166 129.657, 166 130.285 C 166 130.913, 180.053 145.506, 197.229 162.713 L 228.458 194 197.229 225.287 C 180.053 242.494, 166 257.087, 166 257.715 C 166 258.956, 168.719 262, 169.827 262 C 171.243 262, 237 195.423, 237 193.989 C 237 192.562, 171.226 126, 169.816 126 C 169.446 126, 168.436 126.707, 167.571 127.571 M 231.750 127.080 C 230.787 127.641, 230 128.862, 230 129.794 C 230 130.726, 244.060 145.553, 261.244 162.744 L 292.488 194 261.244 225.256 C 244.060 242.447, 230 257.281, 230 258.221 C 230 259.161, 230.961 260.444, 232.136 261.073 C 234.103 262.126, 236.918 259.572, 267.636 228.864 C 285.986 210.520, 301 194.831, 301 194 C 301 192.663, 235.237 125.954, 233.994 126.030 C 233.723 126.047, 232.713 126.519, 231.750 127.080 M 359.231 127.250 C 357.335 129.588, 294 256.986, 294 258.462 C 294 260.714, 297.410 262.167, 299.279 260.711 C 300.135 260.045, 313.672 233.850, 329.362 202.500 L 357.890 145.500 357.945 199.750 L 358 254 343.934 254 C 336.151 254, 329.005 254.462, 327.934 255.035 C 325.446 256.367, 325.446 259.633, 327.934 260.965 C 330.564 262.372, 392.436 262.372, 395.066 260.965 C 397.554 259.633, 397.554 256.367, 395.066 255.035 C 393.995 254.462, 386.849 254, 379.066 254 L 365 254 365 191.200 C 365 143.689, 364.708 128.108, 363.800 127.200 C 362.254 125.654, 360.510 125.673, 359.231 127.250 M 67.045 159.064 C 48.204 162.879, 35.445 181.220, 38.987 199.396 C 42.341 216.611, 56.264 228.252, 73.500 228.252 C 83.223 228.252, 90.603 225.284, 97.353 218.661 C 105.450 210.714, 107.500 205.633, 107.500 193.500 C 107.500 181.367, 105.450 176.286, 97.353 168.339 C 89.455 160.589, 77.532 156.940, 67.045 159.064 M 63.627 167.468 C 58.247 169.386, 53.039 173.829, 49.500 179.519 C 45.527 185.908, 44.712 197.311, 47.741 204.129 C 52.266 214.311, 60.193 219.995, 70.941 220.764 C 79.955 221.409, 86.579 219.206, 92.259 213.674 C 98.701 207.400, 100.500 202.997, 100.500 193.500 C 100.500 184.107, 98.733 179.694, 92.453 173.406 C 85.664 166.608, 73.228 164.046, 63.627 167.468 " stroke="none" fill="black" fill-rule="evenodd"/>
</svg>