<svg xmlns="http://www.w3.org/2000/svg" width="148" height="324" viewBox="0 0 148 324" version="1.1">
	<path d="M 71.550 62.918 C 67.869 68.875, 54.190 98.331, 54.604 99.410 C 55.269 101.144, 57.524 102.120, 59.295 101.440 C 60.007 101.167, 63.480 95.106, 67.014 87.972 C 70.547 80.837, 73.691 75, 74 75 C 74.309 75, 77.453 80.837, 80.986 87.972 C 84.520 95.106, 88.050 101.189, 88.832 101.489 C 90.716 102.212, 93 100.227, 93 97.866 C 93 95.626, 77.264 63.831, 75.628 62.765 C 74.071 61.751, 72.229 61.820, 71.550 62.918 M 103.616 159.527 C 102.727 160.416, 102 161.636, 102 162.239 C 102 162.841, 107.941 169.334, 115.202 176.667 L 128.405 190 68.774 190 C 15.897 190, 8.965 190.178, 7.571 191.571 C 5.598 193.545, 5.598 194.455, 7.571 196.429 C 8.965 197.822, 15.897 198, 68.774 198 L 128.405 198 115.202 211.333 C 107.941 218.666, 102 225.159, 102 225.761 C 102 227.200, 104.997 230.172, 106.068 229.795 C 107.353 229.342, 142 194.827, 142 194 C 142 193.173, 107.353 158.658, 106.068 158.205 C 105.608 158.043, 104.505 158.638, 103.616 159.527 " stroke="none" fill="black" fill-rule="evenodd"/>
</svg>