<svg xmlns="http://www.w3.org/2000/svg" width="148" height="324" viewBox="0 0 148 324" version="1.1">
	<path d="M 71.550 62.918 C 67.869 68.875, 54.190 98.331, 54.604 99.410 C 55.269 101.144, 57.524 102.120, 59.295 101.440 C 60.007 101.167, 63.480 95.106, 67.014 87.972 C 70.547 80.837, 73.691 75, 74 75 C 74.309 75, 77.453 80.837, 80.986 87.972 C 84.520 95.106, 88.050 101.189, 88.832 101.489 C 90.716 102.212, 93 100.227, 93 97.866 C 93 95.626, 77.264 63.831, 75.628 62.765 C 74.071 61.751, 72.229 61.820, 71.550 62.918 M 103.616 159.527 C 102.727 160.416, 102 161.636, 102 162.239 C 102 162.841, 107.941 169.334, 115.202 176.667 L 128.405 190 68.774 190 C 15.897 190, 8.965 190.178, 7.571 191.571 C 5.598 193.545, 5.598 194.455, 7.571 196.429 C 8.965 197.822, 15.900 198, 68.808 198 L 128.472 198 115.236 211.263 C 107.956 218.558, 102 225.190, 102 226 C 102 226.810, 107.956 233.442, 115.236 240.737 L 128.472 254 68.808 254 C 15.900 254, 8.965 254.178, 7.571 255.571 C 5.598 257.545, 5.598 258.455, 7.571 260.429 C 8.965 261.822, 15.897 262, 68.774 262 L 128.405 262 115.202 275.333 C 107.941 282.666, 102 289.159, 102 289.761 C 102 291.200, 104.997 294.172, 106.068 293.795 C 107.932 293.138, 142.033 258.598, 141.726 257.678 C 141.544 257.132, 134.444 249.781, 125.947 241.342 L 110.500 226 125.947 210.658 C 134.444 202.219, 141.544 194.868, 141.726 194.322 C 142.033 193.402, 107.932 158.862, 106.068 158.205 C 105.608 158.043, 104.505 158.638, 103.616 159.527 " stroke="none" fill="black" fill-rule="evenodd"/>
</svg>