<svg xmlns="http://www.w3.org/2000/svg" width="308" height="324" viewBox="0 0 308 324" version="1.1">
	<path d="M 55.571 63.571 C 54.707 64.436, 54 65.317, 54 65.531 C 54 66.993, 71.421 100.653, 72.488 101.252 C 73.225 101.665, 74.440 101.768, 75.188 101.481 C 76.837 100.849, 93 68.755, 93 66.115 C 93 63.770, 90.710 61.790, 88.832 62.511 C 88.050 62.811, 84.520 68.894, 80.986 76.028 C 77.453 83.163, 74.306 89, 73.994 89 C 73.683 89, 70.969 83.984, 67.964 77.854 C 62.437 66.580, 59.559 62, 57.999 62 C 57.528 62, 56.436 62.707, 55.571 63.571 M 63.102 127.104 C 37.582 130.982, 15.178 151.424, 8.414 177 C 6.134 185.626, 6.134 201.374, 8.414 210 C 11.688 222.378, 16.581 230.659, 26.461 240.539 C 40.473 254.551, 54.166 260.304, 73.500 260.304 C 85.636 260.304, 93.507 258.373, 104.500 252.697 C 114.958 247.297, 126.889 235.544, 132.264 225.348 C 146.412 198.512, 141.626 167.296, 120.095 145.981 C 104.892 130.930, 83.831 123.955, 63.102 127.104 M 167.200 127.200 C 165.465 128.935, 165.465 259.065, 167.200 260.800 C 168.935 262.535, 298.065 262.535, 299.800 260.800 C 301.535 259.065, 301.535 128.935, 299.800 127.200 C 298.065 125.465, 168.935 125.465, 167.200 127.200 M 57.500 135.870 C 37.436 141.645, 20.733 158.691, 15.585 178.644 C 13.554 186.517, 13.554 200.483, 15.585 208.356 C 20.838 228.716, 38.284 246.162, 58.644 251.415 C 65.760 253.251, 78.565 253.481, 86.201 251.910 C 89.115 251.310, 95.244 249.032, 99.820 246.847 C 115.079 239.562, 126.717 225.246, 131.003 208.489 C 132.101 204.194, 133 200.077, 133 199.340 C 133 198.250, 127.480 198, 103.434 198 C 84.966 198, 73.142 197.611, 71.934 196.965 C 70.086 195.976, 70 194.555, 70 164.965 L 70 134 66.750 134.071 C 64.963 134.110, 60.800 134.920, 57.500 135.870 M 78 162 L 78 190 105.500 190 C 137.156 190, 134.273 191.299, 131.003 178.511 C 125.680 157.698, 108.268 140.339, 87.897 135.537 C 76.926 132.951, 78 130.080, 78 162 M 206 161.500 L 233.486 189 260.743 161.757 C 275.734 146.773, 288 134.398, 288 134.257 C 288 134.116, 263.366 134, 233.257 134 L 178.514 134 206 161.500 M 173 194 L 173 249.495 200.748 221.748 L 228.495 194 200.748 166.252 L 173 138.505 173 194 M 265.998 166.502 L 238.509 194.005 266.255 221.750 L 294 249.495 294 194.248 C 294 163.861, 293.884 139, 293.743 139 C 293.602 139, 281.116 151.376, 265.998 166.502 M 206 226.500 L 178.514 254 233.500 254 L 288.486 254 261 226.500 C 245.883 211.375, 233.508 199, 233.500 199 C 233.492 199, 221.117 211.375, 206 226.500 " stroke="none" fill="black" fill-rule="evenodd"/>
</svg>