<svg xmlns="http://www.w3.org/2000/svg" width="180" height="324" viewBox="0 0 180 324" version="1.1">
	<path d="M 39.571 159.571 C 38.288 160.855, 38 163.788, 38 175.571 L 38 190 23.571 190 C 11.788 190, 8.855 190.288, 7.571 191.571 C 5.598 193.545, 5.598 194.455, 7.571 196.429 C 8.855 197.712, 11.788 198, 23.571 198 L 38 198 38 212.429 C 38 224.212, 38.288 227.145, 39.571 228.429 C 41.545 230.402, 42.455 230.402, 44.429 228.429 C 45.712 227.145, 46 224.212, 46 212.429 L 46 198 60.429 198 C 72.212 198, 75.145 197.712, 76.429 196.429 C 78.402 194.455, 78.402 193.545, 76.429 191.571 C 75.145 190.288, 72.212 190, 60.429 190 L 46 190 46 175.571 C 46 163.788, 45.712 160.855, 44.429 159.571 C 43.564 158.707, 42.471 158, 42 158 C 41.529 158, 40.436 158.707, 39.571 159.571 M 135.571 159.571 C 134.288 160.855, 134 163.788, 134 175.571 L 134 190 119.571 190 C 107.788 190, 104.855 190.288, 103.571 191.571 C 101.598 193.545, 101.598 194.455, 103.571 196.429 C 104.855 197.712, 107.788 198, 119.571 198 L 134 198 134 212.429 C 134 224.212, 134.288 227.145, 135.571 228.429 C 137.545 230.402, 138.455 230.402, 140.429 228.429 C 141.712 227.145, 142 224.212, 142 212.429 L 142 198 156.429 198 C 168.212 198, 171.145 197.712, 172.429 196.429 C 174.402 194.455, 174.402 193.545, 172.429 191.571 C 171.145 190.288, 168.212 190, 156.429 190 L 142 190 142 175.571 C 142 163.788, 141.712 160.855, 140.429 159.571 C 139.564 158.707, 138.471 158, 138 158 C 137.529 158, 136.436 158.707, 135.571 159.571 " stroke="none" fill="black" fill-rule="evenodd"/>
</svg>