<svg xmlns="http://www.w3.org/2000/svg" width="212" height="324" viewBox="0 0 212 324" version="1.1">
	<path d="M 179.605 130.307 C 177.664 132.675, 174.643 137.674, 172.893 141.415 C 170.248 147.068, 169.628 149.782, 169.225 157.484 C 168.497 171.402, 171.004 179.767, 179.416 191.497 L 183 196.494 183 224.813 C 183 243.529, 182.626 253.830, 181.898 255.191 C 180.985 256.896, 181.211 257.666, 183.211 259.665 C 185.957 262.411, 188.548 262.003, 189.606 258.658 C 189.981 257.471, 191.330 255.131, 192.604 253.458 C 196.409 248.461, 199.844 239.949, 201.165 232.245 C 203.197 220.396, 199.654 205.790, 192.460 196.359 L 190 193.133 190 161.501 C 190 141.608, 189.616 129.151, 188.965 127.934 C 187.191 124.621, 183.497 125.557, 179.605 130.307 M 179.340 144.750 C 175.657 153.052, 175.081 163.618, 177.820 172.628 C 178.969 176.408, 180.590 180.400, 181.423 181.500 C 182.789 183.305, 182.939 181.335, 182.968 161.250 C 182.986 149.012, 182.750 139, 182.445 139 C 182.140 139, 180.742 141.588, 179.340 144.750 M 104.451 158.952 C 95.128 168.275, 87.350 176.622, 87.167 177.500 C 86.802 179.256, 88.673 182, 90.237 182 C 90.783 182, 94.685 178.637, 98.908 174.527 L 106.587 167.055 118.027 178.527 L 129.467 190 69.305 190 C 15.945 190, 8.965 190.178, 7.571 191.571 C 4.148 194.995, 7.242 198, 14.190 198 L 19.237 198 16.080 201.229 C 9.099 208.370, 5.165 221.291, 7.001 231.046 C 9.182 242.632, 15.839 251.825, 25.432 256.502 C 42.181 264.666, 61.301 259.632, 70.874 244.538 L 73.516 240.371 76.946 245.559 C 82.952 254.641, 93.468 260.150, 105 260.256 C 113.515 260.334, 118.529 258.830, 125.683 254.053 C 135.806 247.293, 142.056 233.605, 140.544 221.505 C 139.723 214.935, 135.290 205.444, 131.073 201.227 L 127.846 198 133.723 198 C 139.654 198, 142 196.884, 142 194.062 C 142 193.216, 135.159 185.671, 126.797 177.297 L 111.594 162.070 118.797 154.642 C 122.759 150.556, 126 146.747, 126 146.178 C 126 144.996, 123.224 142, 122.129 142 C 121.729 142, 113.774 149.628, 104.451 158.952 M 31.502 199.604 C 24.122 202.305, 24.185 202.733, 33.278 211.779 L 41.543 220.001 49.896 211.605 L 58.248 203.209 55.747 201.570 C 49.994 197.800, 38.891 196.900, 31.502 199.604 M 65.926 200.145 C 67.192 201.325, 69.446 204.211, 70.934 206.557 L 73.640 210.824 75.443 207.476 C 76.435 205.635, 78.594 202.749, 80.242 201.064 L 83.237 198 73.430 198 L 63.623 198 65.926 200.145 M 96.398 199.326 C 94.693 199.972, 92.312 201.175, 91.109 202 C 88.952 203.479, 89.041 203.618, 97.468 211.985 L 106.015 220.470 114.257 212.183 L 122.500 203.896 120.170 201.973 C 115.529 198.142, 103.164 196.765, 96.398 199.326 M 190.163 225 C 190.163 241.676, 190.301 243.186, 191.557 240.317 C 195.054 232.332, 195.068 217.716, 191.586 209.755 C 190.289 206.789, 190.163 208.142, 190.163 225 M 18.184 210.278 C 14.139 215.152, 12.867 227.319, 15.573 235.260 C 18.178 242.906, 18.711 242.838, 27.809 233.692 L 36.001 225.457 27.671 217.170 C 20.854 210.389, 19.131 209.137, 18.184 210.278 M 55.177 217.322 L 46.999 225.543 55.329 233.830 C 64.415 242.869, 64.481 242.879, 67.479 235.705 C 70.481 228.519, 68.486 212.273, 64.282 209.674 C 63.772 209.359, 59.675 212.801, 55.177 217.322 M 81.781 211.250 C 76.635 219.237, 76.769 233.101, 82.058 240.058 L 83.915 242.500 91.958 234.523 C 96.381 230.136, 100 226.076, 100 225.500 C 100 224.407, 84.913 209, 83.843 209 C 83.506 209, 82.578 210.012, 81.781 211.250 M 119.177 217.322 L 110.999 225.543 119.329 233.830 C 128.415 242.869, 128.481 242.879, 131.479 235.705 C 134.481 228.519, 132.486 212.273, 128.282 209.674 C 127.772 209.359, 123.675 212.801, 119.177 217.322 M 33.170 239.329 C 24.017 248.530, 24.002 248.678, 31.962 251.487 C 37.497 253.439, 45.426 253.415, 51.260 251.427 C 58.906 248.822, 58.838 248.289, 49.692 239.191 L 41.457 230.999 33.170 239.329 M 97.159 239.340 L 88.863 247.680 91.181 249.174 C 99.199 254.342, 113.801 254.272, 120.170 249.034 L 122.500 247.118 114.523 239.059 C 110.136 234.627, 106.301 231, 106.001 231 C 105.701 231, 101.722 234.753, 97.159 239.340 " stroke="none" fill="black" fill-rule="evenodd"/>
</svg>