<svg xmlns="http://www.w3.org/2000/svg" width="308" height="324" viewBox="0 0 308 324" version="1.1">
	<path d="M 190.263 175.461 C 182.652 177.179, 173.479 181.942, 167.949 187.047 C 163.664 191.003, 163.155 193.439, 166.214 195.365 C 167.555 196.209, 168.535 195.956, 170.714 194.204 C 183.464 183.952, 189.890 181.559, 202.984 182.185 C 210.295 182.534, 212.814 183.128, 218.127 185.756 C 224.110 188.715, 225.996 190.215, 233.500 197.977 C 235.150 199.684, 239.650 202.629, 243.500 204.521 C 260.406 212.829, 279.011 210.782, 294.778 198.878 C 300.393 194.639, 301.305 191.835, 297.786 189.630 C 296.449 188.792, 295.460 189.046, 293.286 190.788 C 282.054 199.789, 274.870 202.389, 263 201.750 C 250.834 201.094, 244.456 198.379, 236.708 190.559 C 233.294 187.113, 228.623 183.119, 226.329 181.684 C 216.467 175.515, 201.481 172.929, 190.263 175.461 M 7.579 191.564 C 5.598 193.545, 5.596 194.454, 7.571 196.429 C 8.844 197.701, 11.697 198, 22.575 198 L 36.006 198 21.020 227.961 C 12.777 244.439, 6.285 258.580, 6.594 259.384 C 7.265 261.133, 9.512 262.125, 11.274 261.448 C 11.975 261.180, 19.056 247.919, 27.010 231.980 C 34.964 216.041, 41.717 203, 42.016 203 C 42.315 203, 49.071 216.093, 57.030 232.095 C 64.988 248.098, 71.842 261.402, 72.259 261.660 C 74.831 263.250, 77.526 258.979, 91.125 231.762 L 105.744 202.502 120.310 231.620 C 128.485 247.962, 135.617 261.023, 136.565 261.386 C 138.679 262.198, 141 260.358, 141 257.871 C 141 256.835, 134.480 242.952, 126.511 227.021 L 112.021 198.056 125.653 197.778 C 137.361 197.539, 139.441 197.253, 140.388 195.750 C 141.191 194.475, 141.190 193.525, 140.386 192.250 C 139.356 190.617, 134.934 190.483, 74.220 190.243 C 16.058 190.013, 8.990 190.153, 7.579 191.564 M 60.743 223.500 C 67.750 237.525, 73.752 249, 74.082 249 C 74.649 249, 99 199.690, 99 198.541 C 99 198.243, 87.526 198, 73.503 198 L 48.005 198 60.743 223.500 M 167.750 255.076 C 165.417 256.440, 165.526 259.676, 167.948 260.972 C 169.256 261.672, 191.132 261.930, 234.589 261.757 C 294.951 261.517, 299.356 261.383, 300.386 259.750 C 301.191 258.474, 301.191 257.526, 300.386 256.250 C 299.356 254.616, 294.963 254.485, 234.391 254.276 C 191.547 254.129, 168.905 254.400, 167.750 255.076 " stroke="none" fill="black" fill-rule="evenodd"/>
</svg>