<svg xmlns="http://www.w3.org/2000/svg" width="308" height="324" viewBox="0 0 308 324" version="1.1">
	<path d="M 39.230 159.285 C 20.953 177.591, 6 193.084, 6 193.713 C 6 195.191, 8.808 198, 10.285 198 C 10.913 198, 25.506 183.947, 42.713 166.771 L 74 135.542 105.287 166.771 C 122.494 183.947, 137.064 198, 137.664 198 C 139.256 198, 141.219 195.324, 140.833 193.681 C 140.315 191.479, 75.592 126, 73.933 126 C 73.123 126, 57.506 140.978, 39.230 159.285 M 167.750 191.076 C 165.422 192.437, 165.524 195.675, 167.934 196.965 C 168.998 197.534, 175.523 198, 182.434 198 C 189.345 198, 195 198.228, 195 198.507 C 195 198.785, 188.475 212.057, 180.500 228 C 172.525 243.943, 166 257.649, 166 258.458 C 166 260.785, 169.808 262.404, 171.663 260.865 C 172.507 260.164, 179.620 246.753, 187.468 231.063 L 201.739 202.535 216.620 232.018 C 228.660 255.873, 231.882 261.500, 233.500 261.500 C 235.116 261.500, 238.280 256, 250 232.817 C 257.975 217.042, 264.811 203.831, 265.192 203.459 C 265.573 203.087, 272.407 215.822, 280.380 231.760 C 288.513 248.018, 295.617 261.023, 296.565 261.386 C 298.495 262.127, 301 260.424, 301 258.371 C 301 257.610, 294.475 243.943, 286.500 228 C 278.525 212.057, 272 198.798, 272 198.535 C 272 198.272, 278.139 197.931, 285.643 197.778 C 297.360 197.539, 299.441 197.253, 300.388 195.750 C 301.191 194.475, 301.190 193.525, 300.386 192.250 C 299.356 190.616, 294.963 190.485, 234.391 190.276 C 191.547 190.129, 168.905 190.400, 167.750 191.076 M 208 198.508 C 208 199.477, 233.010 249, 233.500 249 C 233.990 249, 259 199.477, 259 198.508 C 259 198.228, 247.525 198, 233.500 198 C 219.475 198, 208 198.228, 208 198.508 " stroke="none" fill="black" fill-rule="evenodd"/>
</svg>