<svg xmlns="http://www.w3.org/2000/svg" width="372" height="324" viewBox="0 0 372 324" version="1.1">
	<path d="M 7.571 191.571 C 6.707 192.436, 6 193.529, 6 194 C 6 194.471, 6.707 195.564, 7.571 196.429 C 8.844 197.701, 11.697 198, 22.575 198 L 36.006 198 21.020 227.961 C 12.777 244.439, 6.285 258.580, 6.594 259.384 C 7.265 261.133, 9.512 262.125, 11.274 261.448 C 11.975 261.180, 19.056 247.919, 27.010 231.980 C 34.964 216.041, 41.710 203, 42 203 C 42.290 203, 49.036 216.041, 56.990 231.980 C 64.944 247.919, 72.025 261.180, 72.726 261.448 C 73.427 261.717, 74.573 261.717, 75.274 261.448 C 75.975 261.180, 83.056 247.919, 91.010 231.980 C 98.964 216.041, 105.710 203, 106 203 C 106.290 203, 113.036 216.041, 120.990 231.980 C 128.944 247.919, 136.025 261.180, 136.726 261.448 C 138.488 262.125, 140.735 261.133, 141.406 259.384 C 141.715 258.580, 135.223 244.439, 126.980 227.961 L 111.994 198 125.425 198 C 136.303 198, 139.156 197.701, 140.429 196.429 C 141.293 195.564, 142 194.471, 142 194 C 142 193.529, 141.293 192.436, 140.429 191.571 C 139.032 190.175, 131.628 190, 74 190 C 16.372 190, 8.968 190.175, 7.571 191.571 M 195.045 191.092 C 179.977 194.046, 168.919 206.108, 166.587 222.135 C 166.064 225.723, 166.277 227.134, 167.527 228.385 C 168.416 229.273, 169.529 230, 170 230 C 171.912 230, 174 226.663, 174 223.607 C 174 213.949, 182.088 202.862, 191.463 199.667 C 209.211 193.620, 226.150 203.813, 228.977 222.242 C 231.208 236.781, 235.118 245.293, 242.587 251.868 C 258.498 265.873, 284.842 261.780, 295.464 243.651 C 298.114 239.129, 300.755 230.508, 302.023 222.242 C 304.850 203.813, 321.789 193.620, 339.537 199.667 C 348.912 202.862, 357 213.949, 357 223.607 C 357 226.663, 359.088 230, 361 230 C 361.471 230, 362.584 229.273, 363.473 228.385 C 366.944 224.913, 362.375 209.858, 355.545 202.261 C 341.819 186.995, 317.764 186.684, 304.019 201.595 C 297.964 208.164, 296.021 213.052, 292.992 229.339 C 290.294 243.850, 279.662 253, 265.500 253 C 251.338 253, 240.706 243.850, 238.008 229.339 C 234.883 212.535, 232.229 206.309, 225.579 200.180 C 219.959 194.999, 214.905 192.454, 207.535 191.091 C 200.969 189.877, 201.243 189.877, 195.045 191.092 M 60.743 223.500 C 67.750 237.525, 73.715 249, 74 249 C 74.285 249, 80.250 237.525, 87.257 223.500 L 99.995 198 74 198 L 48.005 198 60.743 223.500 " stroke="none" fill="black" fill-rule="evenodd"/>
</svg>