<svg xmlns="http://www.w3.org/2000/svg" width="308" height="324" viewBox="0 0 308 324" version="1.1">
	<path d="M 199.244 159.256 C 180.960 177.546, 166 193.280, 166 194.220 C 166 195.160, 166.961 196.444, 168.136 197.073 C 170.102 198.125, 172.791 195.699, 201.886 166.618 L 233.500 135.019 265.131 166.608 C 294.135 195.573, 296.939 198.103, 298.881 197.063 C 300.047 196.440, 301 195.155, 301 194.209 C 301 192.424, 235.256 126, 233.489 126 C 232.939 126, 217.529 140.965, 199.244 159.256 M 7.579 191.564 C 5.598 193.545, 5.596 194.454, 7.571 196.429 C 8.844 197.701, 11.697 198, 22.575 198 L 36.006 198 21.020 227.961 C 12.777 244.439, 6.285 258.580, 6.594 259.384 C 7.265 261.133, 9.512 262.125, 11.274 261.448 C 11.975 261.180, 19.056 247.919, 27.010 231.980 C 34.964 216.041, 41.717 203, 42.016 203 C 42.315 203, 49.042 216.034, 56.965 231.964 C 64.888 247.894, 71.962 261.155, 72.685 261.433 C 73.408 261.710, 74.573 261.717, 75.274 261.448 C 75.975 261.180, 83.056 247.919, 91.010 231.980 C 98.964 216.041, 105.712 203, 106.004 203 C 106.297 203, 112.798 215.853, 120.452 231.563 C 128.405 247.888, 135.173 260.558, 136.248 261.133 C 138.537 262.358, 141 260.668, 141 257.871 C 141 256.835, 134.480 242.952, 126.511 227.021 L 112.021 198.056 125.653 197.778 C 137.361 197.539, 139.441 197.253, 140.388 195.750 C 141.191 194.475, 141.190 193.525, 140.386 192.250 C 139.356 190.617, 134.934 190.483, 74.220 190.243 C 16.058 190.013, 8.990 190.153, 7.579 191.564 M 60.743 223.500 C 67.750 237.525, 73.715 249, 74 249 C 74.285 249, 80.250 237.525, 87.257 223.500 L 99.995 198 74 198 L 48.005 198 60.743 223.500 " stroke="none" fill="black" fill-rule="evenodd"/>
</svg>