<svg xmlns="http://www.w3.org/2000/svg" width="403" height="324" viewBox="0 0 403 324" version="1.1">
	<path d="M 35.650 127.077 C 20.150 129.589, 7.411 143.603, 6.912 158.693 C 6.728 164.229, 10.436 179.602, 14.976 192.133 C 18.628 202.212, 26.063 215.568, 33.594 225.579 C 47.004 243.404, 74.270 264.227, 77.454 259.074 C 77.769 258.565, 81.706 255.570, 86.203 252.418 C 112.244 234.171, 130.998 205.598, 138.382 172.924 C 141.241 160.269, 140.650 153.876, 135.776 144.731 C 123.473 121.648, 90.098 120.484, 76.014 142.647 L 73.379 146.793 70.597 142.395 C 63.345 130.933, 49.448 124.841, 35.650 127.077 M 183.213 143.315 C 173.746 152.838, 166 161.131, 166 161.743 C 166 162.951, 168.728 166, 169.808 166 C 170.175 166, 176.667 159.819, 184.237 152.263 L 198 138.527 198 198.692 C 198 252.054, 198.178 259.035, 199.571 260.429 C 200.436 261.293, 201.471 262, 201.871 262 C 204.854 262, 205 259.055, 205 199.096 L 205 138.592 218.913 152.378 C 231.627 164.976, 233.011 166.065, 234.973 165.014 C 236.266 164.323, 236.998 163.103, 236.811 161.953 C 236.465 159.825, 203.270 126, 201.528 126 C 200.921 126, 192.680 133.792, 183.213 143.315 M 263.724 127.134 C 262.121 128.031, 262 132.373, 262 188.754 L 262 249.408 248.087 235.622 C 235.537 223.187, 233.970 221.946, 232.087 222.953 C 230.939 223.568, 230 224.847, 230 225.796 C 230 227.625, 263.778 262, 265.576 262 C 267.285 262, 300.471 228.139, 300.811 226.047 C 300.998 224.897, 300.266 223.677, 298.973 222.986 C 297.011 221.935, 295.627 223.024, 282.913 235.622 L 269 249.408 269 188.739 C 269 131.647, 268.895 128.014, 267.224 127.120 C 266.098 126.517, 264.818 126.522, 263.724 127.134 M 350.582 135.274 C 338.475 147.637, 332.834 157.463, 328.281 174.121 C 325.870 182.946, 325.870 204.054, 328.281 212.879 C 332.842 229.568, 338.473 239.362, 350.662 251.807 C 357.845 259.142, 360.329 261.091, 362.162 260.831 C 363.717 260.611, 364.610 259.726, 364.828 258.189 C 365.079 256.413, 363.608 254.459, 358.476 249.757 C 345.625 237.981, 337.440 223.200, 334.530 206.510 C 332.619 195.552, 332.615 191.469, 334.506 180.627 C 337.420 163.915, 345.322 149.422, 357.822 137.863 C 365.028 131.200, 366.024 129.424, 363.800 127.200 C 361.501 124.901, 359.606 126.059, 350.582 135.274 M 31.748 135.427 C 23.846 138.247, 15.822 147.101, 14.426 154.541 C 13.596 158.967, 16.454 173.491, 20.617 186 C 28.807 210.611, 45.624 232.964, 66.868 247.480 L 73.830 252.237 81.660 246.869 C 106.190 230.050, 125.148 201.197, 131.495 171.022 C 133.741 160.345, 133.447 156.214, 129.940 149.196 C 124.861 139.032, 116.432 133.980, 104.624 134.022 C 97.621 134.047, 92.185 136.143, 86.752 140.913 C 82.287 144.833, 78 153.190, 78 157.974 C 78 161.875, 75.695 166, 73.515 166 C 71.134 166, 69 162.978, 69 159.607 C 69 149.949, 60.912 138.862, 51.537 135.667 C 45.704 133.680, 36.941 133.573, 31.748 135.427 M 372 159.175 C 370.075 159.722, 367.084 161.244, 365.352 162.558 C 359.307 167.144, 355.777 178.740, 359.776 180.880 C 362.121 182.135, 365 180.503, 365 177.918 C 365 165.778, 382.012 161.388, 387.551 172.099 C 391.512 179.759, 387.598 186.591, 377.500 189.638 L 374.500 190.544 374.212 201.008 C 373.969 209.860, 374.183 211.661, 375.601 212.697 C 376.770 213.552, 377.839 213.621, 379.138 212.926 C 380.713 212.083, 381 210.711, 381 204.032 C 381 196.711, 381.164 196.085, 383.250 195.451 C 387.324 194.214, 392.187 189.801, 394.087 185.616 C 399.092 174.594, 393.264 162.317, 381.500 159.104 C 376.890 157.845, 376.676 157.846, 372 159.175 M 375.724 222.134 C 371.838 224.309, 375.294 229.983, 379.224 227.880 C 380.201 227.357, 381 226.061, 381 225 C 381 222.485, 378.005 220.858, 375.724 222.134 " stroke="none" fill="black" fill-rule="evenodd"/>
</svg>