<svg xmlns="http://www.w3.org/2000/svg" width="372" height="324" viewBox="0 0 372 324" version="1.1">
	<path d="M 264.370 126.765 C 262.401 128.045, 230.007 193.855, 230.594 195.384 C 231.265 197.133, 233.512 198.124, 235.274 197.448 C 235.975 197.180, 243.056 183.919, 251.010 167.980 C 258.964 152.041, 265.710 139, 266 139 C 266.290 139, 273.036 152.041, 280.990 167.980 C 288.944 183.919, 296.025 197.180, 296.726 197.448 C 298.488 198.124, 300.735 197.133, 301.406 195.384 C 301.993 193.855, 269.599 128.045, 267.630 126.765 C 267.009 126.361, 266.275 126.031, 266 126.031 C 265.725 126.031, 264.991 126.361, 264.370 126.765 M 327.571 159.571 C 326.227 160.916, 326 164.736, 326 186 C 326 207.264, 326.227 211.084, 327.571 212.429 C 328.436 213.293, 329.529 214, 330 214 C 330.471 214, 331.564 213.293, 332.429 212.429 C 333.773 211.084, 334 207.264, 334 186 C 334 164.736, 333.773 160.916, 332.429 159.571 C 331.564 158.707, 330.471 158, 330 158 C 329.529 158, 328.436 158.707, 327.571 159.571 M 40.370 190.765 C 38.401 192.045, 6.007 257.855, 6.594 259.384 C 7.265 261.133, 9.512 262.124, 11.274 261.448 C 11.975 261.180, 19.056 247.919, 27.010 231.980 C 34.964 216.041, 41.710 203, 42 203 C 42.290 203, 49.036 216.041, 56.990 231.980 C 64.944 247.919, 72.025 261.180, 72.726 261.448 C 73.427 261.717, 74.573 261.717, 75.274 261.448 C 75.975 261.180, 83.056 247.919, 91.010 231.980 C 98.964 216.041, 105.710 203, 106 203 C 106.290 203, 113.036 216.041, 120.990 231.980 C 128.944 247.919, 136.025 261.180, 136.726 261.448 C 137.427 261.717, 138.573 261.717, 139.274 261.448 C 139.975 261.180, 147.056 247.919, 155.010 231.980 C 162.964 216.041, 169.710 203, 170 203 C 170.290 203, 177.036 216.041, 184.990 231.980 C 192.944 247.919, 200.025 261.180, 200.726 261.448 C 202.486 262.124, 204.735 261.134, 205.404 259.389 C 206.061 257.677, 173.125 191.262, 171.265 190.548 C 170.569 190.281, 169.427 190.283, 168.726 190.552 C 168.025 190.820, 160.944 204.081, 152.990 220.020 C 145.036 235.959, 138.290 249, 138 249 C 137.710 249, 130.964 235.959, 123.010 220.020 C 115.056 204.081, 107.975 190.820, 107.274 190.552 C 106.573 190.283, 105.427 190.283, 104.726 190.552 C 104.025 190.820, 96.944 204.081, 88.990 220.020 C 81.036 235.959, 74.290 249, 74 249 C 73.709 249, 67.178 236.339, 59.486 220.864 C 51.794 205.389, 44.905 192.114, 44.179 191.364 C 42.686 189.823, 41.988 189.713, 40.370 190.765 M 264.370 190.765 C 262.401 192.045, 230.007 257.855, 230.594 259.384 C 231.265 261.133, 233.512 262.124, 235.274 261.448 C 235.975 261.180, 243.056 247.919, 251.010 231.980 C 258.964 216.041, 265.710 203, 266 203 C 266.290 203, 273.036 216.041, 280.990 231.980 C 288.944 247.919, 296.025 261.180, 296.726 261.448 C 298.488 262.124, 300.735 261.133, 301.406 259.384 C 301.993 257.855, 269.599 192.045, 267.630 190.765 C 267.009 190.361, 266.275 190.031, 266 190.031 C 265.725 190.031, 264.991 190.361, 264.370 190.765 M 327.571 222.571 C 326.707 223.436, 326 224.529, 326 225 C 326 226.111, 328.889 229, 330 229 C 331.111 229, 334 226.111, 334 225 C 334 223.889, 331.111 221, 330 221 C 329.529 221, 328.436 221.707, 327.571 222.571 " stroke="none" fill="black" fill-rule="evenodd"/>
</svg>