<svg xmlns="http://www.w3.org/2000/svg" width="180" height="324" viewBox="0 0 180 324" version="1.1">
	<path d="M 167.571 127.571 C 166.175 128.968, 166 136.372, 166 194 C 166 251.628, 166.175 259.032, 167.571 260.429 C 168.436 261.293, 169.529 262, 170 262 C 170.471 262, 171.564 261.293, 172.429 260.429 C 173.825 259.032, 174 251.628, 174 194 C 174 136.372, 173.825 128.968, 172.429 127.571 C 171.564 126.707, 170.471 126, 170 126 C 169.529 126, 168.436 126.707, 167.571 127.571 M 103.571 159.571 C 102.707 160.436, 102 161.636, 102 162.239 C 102 162.841, 107.941 169.334, 115.202 176.667 L 128.405 190 68.774 190 C 15.897 190, 8.965 190.178, 7.571 191.571 C 5.598 193.545, 5.598 194.455, 7.571 196.429 C 8.965 197.822, 15.897 198, 68.774 198 L 128.405 198 115.202 211.333 C 107.941 218.666, 102 225.159, 102 225.761 C 102 227.187, 104.825 230, 106.257 230 C 108.006 230, 142 195.761, 142 194 C 142 192.239, 108.006 158, 106.257 158 C 105.644 158, 104.436 158.707, 103.571 159.571 " stroke="none" fill="black" fill-rule="evenodd"/>
</svg>