<svg xmlns="http://www.w3.org/2000/svg" width="372" height="324" viewBox="0 0 372 324" version="1.1">
	<path d="M 72.372 62.765 C 70.418 64.037, 54.003 97.844, 54.593 99.381 C 55.268 101.141, 57.513 102.124, 59.295 101.440 C 60.007 101.167, 63.480 95.106, 67.014 87.972 C 70.547 80.837, 73.691 75, 74 75 C 74.309 75, 77.453 80.837, 80.986 87.972 C 84.520 95.106, 87.993 101.167, 88.705 101.440 C 90.487 102.124, 92.732 101.141, 93.407 99.381 C 93.716 98.575, 90.096 90.173, 85.363 80.708 C 77.638 65.261, 75.672 62.031, 74 62.031 C 73.725 62.031, 72.992 62.361, 72.372 62.765 M 7.571 127.571 C 6.707 128.436, 6 129.335, 6 129.569 C 6 131.164, 71.738 261.069, 72.739 261.453 C 73.432 261.719, 74.568 261.719, 75.261 261.453 C 77.123 260.739, 142.060 130.320, 141.404 128.612 C 140.736 126.870, 138.487 125.876, 136.735 126.548 C 136.039 126.815, 121.755 154.476, 104.992 188.017 C 88.228 221.558, 74.282 249, 74 249 C 73.718 249, 59.990 221.941, 43.493 188.869 C 26.997 155.796, 12.905 128.121, 12.179 127.369 C 10.471 125.600, 9.500 125.643, 7.571 127.571 M 227 126.637 C 208.805 129.294, 196.051 135.795, 184.287 148.411 C 174.039 159.400, 168.260 172.458, 166.503 188.598 C 165.964 193.549, 166.150 195.007, 167.491 196.348 C 169.547 198.404, 170.439 198.418, 172.429 196.429 C 173.404 195.453, 174.006 193.082, 174.015 190.179 C 174.057 176.942, 180.682 162.237, 191.459 151.459 C 206.346 136.573, 227.259 130.673, 247.897 135.537 C 272.441 141.323, 292.909 166.127, 292.985 190.179 C 292.994 193.082, 293.596 195.453, 294.571 196.429 C 296.561 198.418, 297.453 198.404, 299.509 196.348 C 300.850 195.007, 301.036 193.549, 300.497 188.598 C 298.021 165.862, 286.306 147.112, 267.500 135.789 C 255.767 128.724, 238.866 124.905, 227 126.637 M 231.571 159.571 C 230.288 160.855, 230 163.788, 230 175.571 L 230 190 215.571 190 C 203.788 190, 200.855 190.288, 199.571 191.571 C 197.598 193.545, 197.598 194.455, 199.571 196.429 C 200.855 197.712, 203.788 198, 215.571 198 L 230 198 230 212.429 C 230 224.212, 230.288 227.145, 231.571 228.429 C 233.545 230.402, 234.455 230.402, 236.429 228.429 C 237.712 227.145, 238 224.212, 238 212.429 L 238 198 252.429 198 C 264.212 198, 267.145 197.712, 268.429 196.429 C 270.402 194.455, 270.402 193.545, 268.429 191.571 C 267.145 190.288, 264.212 190, 252.429 190 L 238 190 238 175.571 C 238 163.788, 237.712 160.855, 236.429 159.571 C 235.564 158.707, 234.471 158, 234 158 C 233.529 158, 232.436 158.707, 231.571 159.571 M 327.571 159.571 C 326.227 160.916, 326 164.736, 326 186 C 326 207.264, 326.227 211.084, 327.571 212.429 C 328.436 213.293, 329.529 214, 330 214 C 330.471 214, 331.564 213.293, 332.429 212.429 C 333.773 211.084, 334 207.264, 334 186 C 334 164.736, 333.773 160.916, 332.429 159.571 C 331.564 158.707, 330.471 158, 330 158 C 329.529 158, 328.436 158.707, 327.571 159.571 M 327.571 222.571 C 326.707 223.436, 326 224.529, 326 225 C 326 226.111, 328.889 229, 330 229 C 331.111 229, 334 226.111, 334 225 C 334 223.889, 331.111 221, 330 221 C 329.529 221, 328.436 221.707, 327.571 222.571 " stroke="none" fill="black" fill-rule="evenodd"/>
</svg>