<svg xmlns="http://www.w3.org/2000/svg" width="500" height="324" viewBox="0 0 500 324" version="1.1">
	<path d="M 40.372 62.765 C 38.418 64.037, 22.003 97.844, 22.593 99.381 C 23.449 101.612, 26.101 102.219, 27.895 100.594 C 28.778 99.795, 32.185 93.709, 35.467 87.070 C 38.748 80.432, 41.687 75, 41.997 75 C 42.308 75, 45.453 80.837, 48.986 87.972 C 52.520 95.106, 56.050 101.189, 56.832 101.489 C 58.716 102.212, 61 100.227, 61 97.866 C 61 95.626, 45.264 63.831, 43.628 62.765 C 43.008 62.361, 42.275 62.031, 42 62.031 C 41.725 62.031, 40.992 62.361, 40.372 62.765 M 163.650 127.064 C 149.022 129.472, 136.620 142.208, 134.500 157 C 133.784 161.989, 136.372 176.121, 139.993 187 C 143.620 197.898, 152.593 215.028, 159.423 224.092 C 167.820 235.237, 180.800 247.461, 192.238 254.997 C 197.250 258.298, 201.684 261, 202.091 261 C 202.497 261, 203.881 260.096, 205.165 258.992 C 206.449 257.887, 211.305 254.224, 215.955 250.852 C 239.707 233.626, 257.505 207.288, 265.166 178.031 C 268.324 165.968, 268.624 156.599, 266.069 149.847 C 260.537 135.232, 248.291 126.664, 233.039 126.737 C 221.260 126.794, 210.217 132.857, 203.981 142.692 L 201.274 146.960 198.223 142.052 C 191.416 131.102, 177.024 124.863, 163.650 127.064 M 327.724 127.134 C 326.121 128.031, 326 132.373, 326 188.754 L 326 249.408 312.087 235.622 C 299.537 223.187, 297.970 221.946, 296.087 222.953 C 294.939 223.568, 294 224.847, 294 225.796 C 294 227.625, 327.778 262, 329.576 262 C 331.285 262, 364.471 228.139, 364.811 226.047 C 364.998 224.897, 364.266 223.677, 362.973 222.986 C 361.011 221.935, 359.627 223.024, 346.913 235.622 L 333 249.408 333 188.739 C 333 131.647, 332.895 128.014, 331.224 127.120 C 330.098 126.517, 328.818 126.522, 327.724 127.134 M 454.667 127.667 C 452.925 129.408, 454.673 132.189, 462.753 140.529 C 477.998 156.266, 484.421 171.967, 484.421 193.500 C 484.421 215.300, 478.032 230.712, 462.256 246.972 C 457.172 252.213, 453.009 256.805, 453.006 257.179 C 452.997 258.180, 455.995 261, 457.068 261 C 459.154 261, 473.650 246.002, 478.051 239.290 C 488.305 223.656, 492.667 207.716, 491.672 189.520 C 490.914 175.678, 489.178 169.086, 482.975 156.500 C 474.872 140.060, 458.722 123.611, 454.667 127.667 M 158.435 135.890 C 148.309 140.489, 142 149.970, 142 160.587 C 142 171.727, 148.481 192.226, 156.582 206.713 C 165.037 221.832, 179.625 237.739, 194.134 247.659 C 201.769 252.879, 201.070 252.989, 212.210 244.801 C 221.679 237.842, 236.546 221.755, 242.842 211.655 C 253.111 195.181, 260.130 175.088, 260.363 161.500 C 260.485 154.347, 260.182 152.924, 257.500 148.061 C 254.429 142.492, 248.651 137.526, 242.684 135.326 C 237.655 133.472, 227.113 133.766, 222.435 135.890 C 213.279 140.049, 207.798 147.294, 205.866 157.792 C 204.755 163.830, 203.587 166, 201.449 166 C 198.996 166, 197.297 163.158, 196.691 158.041 C 195.496 147.947, 188.289 138.777, 178.965 135.488 C 173.124 133.427, 163.441 133.617, 158.435 135.890 M 35.045 159.064 C 13.497 163.427, 1.173 185.901, 9.037 206.493 C 12.164 214.680, 20.320 222.836, 28.507 225.963 C 36.625 229.063, 46.366 229.065, 54.500 225.966 C 62.548 222.901, 70.935 214.461, 73.955 206.392 C 76.864 198.616, 76.864 188.384, 73.955 180.608 C 68.393 165.742, 50.631 155.907, 35.045 159.064 M 391.750 159.080 C 390.788 159.641, 390 160.859, 390 161.788 C 390 162.717, 396.857 170.344, 405.238 178.738 L 420.476 194 405.238 209.262 C 396.857 217.656, 390 225.290, 390 226.227 C 390 227.163, 390.944 228.435, 392.097 229.052 C 394 230.070, 395.809 228.570, 411.597 212.875 C 421.169 203.360, 429 194.866, 429 194 C 429 192.656, 395.162 157.945, 393.935 158.030 C 393.696 158.047, 392.712 158.519, 391.750 159.080 M 31.627 167.408 C 21.770 171.075, 15.005 180.157, 14.256 190.731 C 13.662 199.129, 15.100 204.665, 19.312 210.187 C 24.335 216.772, 30.610 220.168, 38.847 220.757 C 48.352 221.437, 54.942 219.153, 61.024 213.071 C 73.836 200.259, 70.989 178.524, 55.293 169.326 C 49.680 166.037, 37.885 165.081, 31.627 167.408 M 98.820 251.586 C 97.407 252.327, 95.999 253.896, 95.691 255.074 C 94.994 257.740, 96.370 261.544, 98.300 262.285 C 99.270 262.657, 99.582 263.735, 99.239 265.528 C 98.730 268.192, 100.107 269.952, 102.727 269.985 C 106.038 270.026, 109.707 258.646, 107.760 254.373 C 106.313 251.198, 102.080 249.878, 98.820 251.586 " stroke="none" fill="black" fill-rule="evenodd"/>
</svg>