<svg xmlns="http://www.w3.org/2000/svg" width="244" height="324" viewBox="0 0 244 324" version="1.1">
	<path d="M 127.870 127.049 C 120.570 128.150, 110.676 131.475, 105 134.735 C 91.149 142.689, 79.245 156.639, 74.412 170.581 L 72.651 175.661 66.575 169.485 C 58.985 161.768, 51.932 158.748, 41.500 158.748 C 18.953 158.748, 3.629 177.719, 6.941 201.532 C 9.255 218.166, 14.661 228.854, 26.916 241.026 C 40.507 254.525, 54.473 260.304, 73.500 260.304 C 92.176 260.304, 106.938 254.102, 120.584 240.521 C 133.398 227.767, 140.024 212.314, 140.100 195 C 140.143 185.479, 138.687 180.312, 134.072 173.604 C 124.146 159.178, 105.748 154.487, 89.822 162.322 L 85.144 164.623 86.720 161.562 C 87.587 159.878, 91.492 155.300, 95.398 151.388 C 105.925 140.846, 117.657 135.362, 132.396 134.094 C 139.982 133.441, 142.495 131.605, 140.394 128.250 C 139.112 126.203, 135.668 125.873, 127.870 127.049 M 31.054 167.728 C 25.018 169.859, 17.781 177.260, 15.667 183.463 C 10.326 199.140, 16.971 221.052, 31.459 235.541 C 46.346 250.427, 67.259 256.327, 87.897 251.463 C 113.305 245.473, 133 220.578, 133 194.450 C 133 181.951, 125.922 171.470, 114.684 167.326 C 110.110 165.640, 101.095 165.748, 95.795 167.554 C 86.288 170.793, 78 181.539, 78 190.625 C 78 194.804, 76.114 198.016, 73.679 197.985 C 70.990 197.950, 69.650 195.890, 68.948 190.712 C 66.907 175.676, 55.810 165.870, 41.072 166.079 C 38.007 166.122, 33.499 166.864, 31.054 167.728 M 167.585 191.558 C 165.598 193.545, 165.595 194.452, 167.571 196.429 C 168.855 197.712, 171.788 198, 183.571 198 L 198 198 198 226 L 198 254 183.571 254 C 171.788 254, 168.855 254.288, 167.571 255.571 C 165.595 257.548, 165.598 258.455, 167.585 260.442 C 168.978 261.835, 173.159 261.995, 202.226 261.763 C 232.452 261.523, 235.377 261.350, 236.386 259.750 C 237.190 258.475, 237.191 257.525, 236.387 256.250 C 235.430 254.730, 233.291 254.464, 220.142 254.224 L 205 253.948 205 226 L 205 198.052 220.142 197.776 C 233.291 197.536, 235.430 197.270, 236.387 195.750 C 237.191 194.475, 237.190 193.525, 236.386 192.250 C 235.377 190.650, 232.452 190.477, 202.226 190.237 C 173.159 190.005, 168.978 190.165, 167.585 191.558 M 69.202 208.750 C 64.844 214.949, 63.633 218.482, 63.635 225 C 63.636 230.411, 64.187 232.548, 66.923 237.757 C 69.202 242.096, 70.949 244.200, 72.618 244.619 C 75.247 245.279, 78 243.595, 78 241.328 C 78 240.543, 78.690 238.567, 79.533 236.937 C 83.729 228.822, 83.128 218.747, 77.960 210.598 C 74.565 205.245, 72.042 204.713, 69.202 208.750 M 71.607 218.582 C 70.672 221.019, 70.918 230.322, 71.961 231.971 C 73.250 234.009, 74.075 232.861, 74.707 228.146 C 75.661 221.033, 73.374 213.977, 71.607 218.582 " stroke="none" fill="black" fill-rule="evenodd"/>
</svg>