<svg xmlns="http://www.w3.org/2000/svg" width="308" height="324" viewBox="0 0 308 324" version="1.1">
	<path d="M 40.316 62.784 C 38.369 64.022, 22.007 97.855, 22.604 99.410 C 23.269 101.144, 25.524 102.120, 27.295 101.440 C 28.007 101.167, 31.480 95.106, 35.014 87.972 C 38.547 80.837, 41.691 75, 42 75 C 42.309 75, 45.453 80.837, 48.986 87.972 C 52.520 95.106, 56.076 101.199, 56.889 101.511 C 57.701 101.823, 59.219 101.225, 60.261 100.183 C 62.121 98.324, 61.994 97.966, 53.456 80.894 C 44.033 62.053, 43.222 60.935, 40.316 62.784 M 33.384 159.357 C 15.361 163.923, 3.562 181.820, 6.987 199.396 C 9.923 214.467, 20.510 225.032, 35.660 228.013 C 51.129 231.056, 68.389 221.266, 74.002 206.266 C 76.889 198.550, 76.845 188.335, 73.893 180.443 C 68.130 165.041, 49.410 155.297, 33.384 159.357 M 199.750 159.082 C 198.787 159.642, 198 160.858, 198 161.786 C 198 162.714, 203.956 169.442, 211.236 176.737 L 224.472 190 164.808 190 C 111.900 190, 104.965 190.178, 103.571 191.571 C 101.598 193.545, 101.598 194.455, 103.571 196.429 C 104.965 197.822, 111.900 198, 164.808 198 L 224.472 198 211.236 211.263 C 203.956 218.558, 198 225.292, 198 226.228 C 198 227.164, 198.954 228.440, 200.120 229.064 C 202.049 230.097, 203.785 228.687, 219.471 213.349 C 229.859 203.191, 236.762 195.679, 236.851 194.432 C 236.955 192.986, 231.880 187.274, 219.968 175.432 C 210.600 166.120, 202.613 158.402, 202.218 158.282 C 201.823 158.162, 200.713 158.522, 199.750 159.082 M 263.750 159.080 C 262.155 160.009, 262 162.388, 262 186.015 C 262 211.174, 262.060 211.962, 264.064 213.034 C 265.596 213.854, 266.498 213.832, 267.564 212.947 C 268.744 211.968, 269 207.174, 269 186.078 C 269 157.906, 268.671 156.214, 263.750 159.080 M 31.054 167.728 C 25.018 169.859, 17.781 177.260, 15.667 183.463 C 9.189 202.476, 21.963 221, 41.552 221 C 56.843 221, 69 208.819, 69 193.500 C 69 182.038, 61.486 171.200, 50.965 167.488 C 45.610 165.598, 36.784 165.705, 31.054 167.728 M 263.750 222.080 C 261.372 223.465, 261.542 226.685, 264.064 228.034 C 267.753 230.008, 270.819 225.219, 267.800 222.200 C 266.367 220.767, 266.022 220.757, 263.750 222.080 M 119.315 239.213 C 109.792 248.680, 102 257.134, 102 258 C 102 259.680, 135.953 294, 137.615 294 C 139.114 294, 141 291.791, 141 290.036 C 141 289.175, 135.143 282.628, 127.985 275.486 L 114.970 262.500 175.126 262 C 231.013 261.535, 235.361 261.376, 236.386 259.750 C 237.191 258.474, 237.191 257.526, 236.386 256.250 C 235.361 254.624, 231.013 254.465, 175.126 254 L 114.970 253.500 127.985 240.514 C 135.143 233.372, 141 226.825, 141 225.964 C 141 224.209, 139.114 222, 137.615 222 C 137.073 222, 128.838 229.746, 119.315 239.213 " stroke="none" fill="black" fill-rule="evenodd"/>
</svg>