<svg xmlns="http://www.w3.org/2000/svg" width="403" height="324" viewBox="0 0 403 324" version="1.1">
	<path d="M 39.571 127.571 C 38.176 128.966, 38 136.152, 38 191.571 L 38 254 23.571 254 C 11.788 254, 8.855 254.288, 7.571 255.571 C 5.598 257.545, 5.598 258.455, 7.571 260.429 C 8.936 261.793, 13.463 262, 42 262 C 70.537 262, 75.064 261.793, 76.429 260.429 C 77.293 259.564, 78 258.471, 78 258 C 78 257.529, 77.293 256.436, 76.429 255.571 C 75.145 254.288, 72.212 254, 60.429 254 L 46 254 46 191.571 C 46 136.152, 45.824 128.966, 44.429 127.571 C 43.564 126.707, 42.471 126, 42 126 C 41.529 126, 40.436 126.707, 39.571 127.571 M 159.205 127.092 C 145.411 129.194, 132.167 136.058, 121.939 146.407 C 110.696 157.782, 104.016 171.921, 102.469 187.614 C 101.891 193.479, 102.055 194.912, 103.460 196.317 C 104.386 197.243, 105.535 198, 106.015 198 C 107.925 198, 110 193.308, 110 188.988 C 110 176.638, 116.422 162.611, 126.993 151.875 C 138.948 139.732, 152.493 134.046, 169.540 134.015 C 179.270 133.997, 187.180 135.890, 196.500 140.468 C 214.383 149.252, 226.924 167.970, 228.656 188.463 C 229.170 194.542, 229.690 196.299, 231.214 197.115 C 238.880 201.217, 236.961 178.149, 228.264 161.652 C 225.771 156.922, 221.777 151.762, 216.433 146.367 C 209.680 139.549, 206.828 137.488, 198.933 133.719 C 193.745 131.242, 187.475 128.743, 185 128.165 C 178.002 126.530, 166.132 126.036, 159.205 127.092 M 295.244 159.256 L 262 192.511 262 226.056 C 262 250.812, 262.314 259.914, 263.200 260.800 C 264.109 261.709, 280.200 262, 329.500 262 C 378.800 262, 394.891 261.709, 395.800 260.800 C 396.686 259.914, 397 250.810, 397 226.044 L 397 192.489 363.744 159.244 C 345.454 140.960, 330.039 126, 329.489 126 C 328.939 126, 313.529 140.965, 295.244 159.256 M 299.236 165.280 L 269 195.576 269 224.788 L 269 254 329.500 254 L 390 254 390 224.744 L 390 195.488 359.736 165.236 L 329.472 134.984 299.236 165.280 M 135.250 223.237 C 116.963 241.538, 102 257.206, 102 258.056 C 102 261.987, 102.227 262, 169.118 262 C 204.713 262, 234.548 261.727, 235.418 261.393 C 239.696 259.752, 236.813 256.270, 204.020 223.479 C 185.882 205.340, 170.469 190.379, 169.770 190.232 C 169.072 190.084, 153.537 204.936, 135.250 223.237 M 142.454 226.211 L 115.500 253.500 142.750 253.766 C 157.738 253.912, 182.153 253.912, 197.008 253.766 L 224.015 253.500 196.712 226.211 L 169.408 198.921 142.454 226.211 " stroke="none" fill="black" fill-rule="evenodd"/>
</svg>