<svg xmlns="http://www.w3.org/2000/svg" width="403" height="324" viewBox="0 0 403 324" version="1.1">
	<path d="M 135.571 127.571 C 134.176 128.966, 134 136.152, 134 191.571 L 134 254 119.571 254 C 107.788 254, 104.855 254.288, 103.571 255.571 C 101.595 257.548, 101.598 258.455, 103.585 260.442 C 104.978 261.835, 109.159 261.995, 138.226 261.763 C 168.452 261.523, 171.377 261.350, 172.386 259.750 C 173.190 258.475, 173.191 257.525, 172.387 256.250 C 171.430 254.730, 169.291 254.464, 156.142 254.224 L 141 253.948 141 191.174 C 141 128.929, 140.859 126, 137.871 126 C 137.471 126, 136.436 126.707, 135.571 127.571 M 263.750 127.080 C 262.788 127.641, 262 128.859, 262 129.788 C 262 130.717, 268.858 138.346, 277.241 146.741 L 292.482 162.006 263 191.500 L 233.518 220.995 217.891 205.391 C 203.624 191.145, 202.079 189.887, 200.132 190.929 C 198.960 191.557, 198 192.837, 198 193.773 C 198 194.710, 204.857 202.344, 213.238 210.738 L 228.476 226 213.238 241.262 C 204.857 249.656, 198 257.290, 198 258.227 C 198 259.163, 198.960 260.443, 200.132 261.071 C 202.079 262.113, 203.624 260.855, 217.895 246.605 L 233.524 230.998 248.012 245.564 C 255.980 253.576, 263.316 260.582, 264.314 261.135 C 266.445 262.314, 269 260.681, 269 258.139 C 269 257.251, 262.142 249.654, 253.759 241.259 L 238.518 225.994 268.005 196.495 L 297.492 166.996 326.989 196.493 L 356.486 225.990 341.243 241.257 C 332.859 249.653, 326 257.290, 326 258.227 C 326 259.163, 326.942 260.434, 328.094 261.050 C 329.988 262.064, 331.674 260.694, 345.850 246.617 L 361.514 231.064 377.159 246.620 C 391.334 260.713, 393.001 262.070, 394.902 261.052 C 396.056 260.435, 397 259.163, 397 258.227 C 397 257.290, 390.143 249.656, 381.762 241.262 L 366.524 226 381.762 210.738 C 390.143 202.344, 397 194.710, 397 193.773 C 397 192.837, 396.058 191.566, 394.906 190.950 C 393.012 189.936, 391.325 191.307, 377.134 205.398 L 361.455 220.967 331.987 191.487 L 302.518 162.006 317.759 146.741 C 326.142 138.346, 333 130.710, 333 129.773 C 333 128.837, 332.058 127.566, 330.906 126.950 C 329.012 125.936, 327.325 127.307, 313.131 141.401 L 297.449 156.973 281.987 141.486 C 273.482 132.969, 266.294 126.014, 266.012 126.030 C 265.730 126.047, 264.712 126.519, 263.750 127.080 M 7.571 191.571 C 6.707 192.436, 6 193.640, 6 194.249 C 6 194.857, 12.844 202.250, 21.208 210.677 L 36.416 226 21.208 241.323 C 12.844 249.750, 6 257.143, 6 257.751 C 6 259.181, 8.819 262, 10.249 262 C 10.857 262, 18.250 255.156, 26.677 246.792 L 42 231.584 57.323 246.792 C 65.750 255.156, 73.085 262, 73.623 262 C 75.244 262, 77 259.725, 77 257.625 C 77 256.420, 71.267 249.871, 62.293 240.825 L 47.586 226 62.293 211.175 C 71.267 202.129, 77 195.580, 77 194.375 C 77 192.275, 75.244 190, 73.623 190 C 73.085 190, 65.750 196.844, 57.323 205.208 L 42 220.416 26.677 205.208 C 18.250 196.844, 10.857 190, 10.249 190 C 9.640 190, 8.436 190.707, 7.571 191.571 " stroke="none" fill="black" fill-rule="evenodd"/>
</svg>