<svg xmlns="http://www.w3.org/2000/svg" width="436" height="324" viewBox="0 0 436 324" version="1.1">
	<path d="M 72.357 126.765 C 70.385 128.033, 6.012 257.866, 6.598 259.394 C 7.264 261.130, 9.514 262.124, 11.262 261.453 C 11.956 261.187, 25.431 235.213, 41.206 203.734 L 69.888 146.500 69.944 200.250 L 70 254 55.571 254 C 43.788 254, 40.855 254.288, 39.571 255.571 C 37.598 257.545, 37.598 258.455, 39.571 260.429 C 40.936 261.793, 45.463 262, 74 262 C 102.537 262, 107.064 261.793, 108.429 260.429 C 109.293 259.564, 110 258.471, 110 258 C 110 257.529, 109.293 256.436, 108.429 255.571 C 107.145 254.288, 104.212 254, 92.429 254 L 78 254 78 191.571 C 78 136.152, 77.824 128.966, 76.429 127.571 C 74.679 125.822, 74.026 125.693, 72.357 126.765 M 147.513 130.250 C 133.192 146.959, 132.717 172.492, 146.395 190.319 L 150.093 195.139 149.943 227.257 C 149.804 257.095, 149.921 259.469, 151.588 260.688 C 155.030 263.205, 155.245 262.965, 163.651 247.316 C 167.917 239.374, 169.177 234.142, 169.150 224.480 C 169.123 214.882, 166.644 206.473, 161.443 198.344 L 158 192.961 158 161.415 C 158 141.582, 157.616 129.150, 156.965 127.934 C 155.214 124.663, 151.527 125.567, 147.513 130.250 M 351.536 127.055 C 335.069 129.613, 320.955 137.694, 309.470 151.140 C 305.059 156.305, 298 168.881, 298 171.575 C 298 173.507, 296.629 174.062, 289.272 175.104 C 285.346 175.660, 279.716 177.457, 275.556 179.481 C 269.321 182.516, 266.442 184.823, 258.500 193.153 C 257.400 194.306, 253.575 196.657, 250 198.375 C 243.989 201.265, 242.710 201.500, 233 201.496 C 221.269 201.492, 215.704 199.711, 207.237 193.248 C 202.707 189.790, 199.754 189.594, 198.572 192.673 C 197.731 194.864, 204.434 201.087, 211.201 204.398 C 218.627 208.031, 230.003 210.260, 236.926 209.438 C 249.301 207.969, 261.890 201.714, 268.002 193.998 C 271.623 189.425, 277.526 185.803, 284.932 183.609 C 294.825 180.678, 294.496 180.348, 294.527 193.250 C 294.566 210.110, 298.788 222.373, 308.882 234.950 C 322.325 251.701, 340.262 260.349, 361.500 260.319 C 380.240 260.292, 395.028 254.065, 408.500 240.527 C 421.957 227.005, 428 212.262, 428 192.953 C 428 174.668, 421.444 159.196, 408.095 145.981 C 393.016 131.053, 371.708 123.923, 351.536 127.055 M 345.345 135.904 C 334.940 138.882, 328.007 142.998, 319.921 151 C 312.628 158.218, 306.861 166.656, 305.509 172.087 C 304.899 174.538, 305.215 174.789, 311.509 176.855 C 315.163 178.055, 320.614 180.611, 323.622 182.535 L 329.090 186.033 332.347 183.549 C 347.553 171.950, 370.289 171.536, 387.500 182.543 C 397.221 188.760, 400.146 193.824, 395.500 196.390 C 394.400 196.998, 392.035 198.533, 390.244 199.803 C 371.654 212.980, 348.409 212.604, 330.575 198.837 C 326.959 196.045, 323.997 193.252, 323.993 192.630 C 323.973 189.272, 304.136 180.353, 302.516 182.974 C 302.182 183.514, 301.917 188.128, 301.926 193.228 C 301.958 210.896, 306.999 223.028, 319.489 235.500 C 331.586 247.580, 344.395 253, 360.845 253 C 371.674 253, 377.916 251.576, 387.820 246.847 C 412.843 234.900, 426.032 205.996, 419.003 178.511 C 414.717 161.754, 403.079 147.438, 387.820 140.153 C 383.244 137.968, 377.115 135.690, 374.201 135.090 C 366.350 133.475, 352.464 133.867, 345.345 135.904 M 148.512 140.981 C 146.098 144.886, 144 154.197, 144 161 C 144 168.416, 146.604 179.004, 149.023 181.423 C 149.659 182.059, 150 175.004, 150 161.200 C 150 149.540, 149.802 140, 149.559 140 C 149.316 140, 148.845 140.442, 148.512 140.981 M 348 183.818 C 342.107 185.773, 334 190.457, 334 191.908 C 334 192.394, 336.137 194.152, 338.750 195.814 C 350.134 203.059, 366.092 204.048, 378.045 198.249 C 381.595 196.527, 385.374 194.416, 386.441 193.559 C 388.363 192.016, 388.363 191.984, 386.441 190.441 C 385.374 189.584, 381.575 187.463, 378 185.728 C 372.430 183.025, 370.212 182.532, 362.500 182.284 C 355.842 182.070, 352.069 182.469, 348 183.818 M 158.163 225 C 158.163 242.010, 158.209 242.402, 159.813 239 C 161.019 236.441, 161.463 232.676, 161.463 225 C 161.463 217.324, 161.019 213.559, 159.813 211 C 158.209 207.598, 158.163 207.990, 158.163 225 " stroke="none" fill="black" fill-rule="evenodd"/>
</svg>