<svg xmlns="http://www.w3.org/2000/svg" width="276" height="324" viewBox="0 0 276 324" version="1.1">
	<path d="M 163.434 126.877 C 153.511 128.606, 142.813 136.565, 138.166 145.675 C 137.079 147.806, 135.659 152.247, 135.010 155.544 C 133.953 160.916, 134.089 162.678, 136.323 172.519 C 142.171 198.280, 152.392 217.718, 169.788 236.158 C 176.488 243.261, 192.402 255.858, 199.229 259.463 L 202.946 261.426 205.723 258.885 C 207.250 257.487, 211.650 254.155, 215.500 251.481 C 236.288 237.037, 255.441 210.592, 263.286 185.500 C 267.700 171.384, 269.171 162.179, 268.004 155.983 C 265.718 143.837, 258.321 134.332, 247.175 129.216 C 242.498 127.069, 240.094 126.623, 233.500 126.679 C 220.981 126.787, 210.475 132.479, 204.005 142.662 L 201.360 146.824 199.503 143.377 C 193.369 131.986, 177.022 124.509, 163.434 126.877 M 159.054 135.728 C 156.517 136.623, 152.606 139.299, 149.948 141.957 C 143.771 148.133, 141.502 154.735, 142.365 164.020 C 143.753 178.951, 152.608 201.354, 163.185 216.693 C 170.082 226.695, 183.474 240.104, 193.282 246.829 L 201.055 252.158 205.520 249.541 C 216.326 243.208, 229.290 230.807, 239.180 217.342 C 250.596 201.799, 261 174.511, 261 160.113 C 261 145.916, 248.451 134, 233.500 134 C 218.803 134, 206 145.922, 206 159.607 C 206 162.970, 203.867 166, 201.500 166 C 199.133 166, 197 162.970, 197 159.607 C 197 149.949, 188.912 138.862, 179.537 135.667 C 173.516 133.616, 164.964 133.641, 159.054 135.728 M 39.267 223.267 C 20.970 241.563, 6 257.056, 6 257.695 C 6 258.334, 6.707 259.564, 7.571 260.429 C 8.968 261.825, 16.372 262, 74 262 C 131.628 262, 139.032 261.825, 140.429 260.429 C 141.293 259.564, 142 258.334, 142 257.695 C 142 255.982, 75.721 190, 74 190 C 73.193 190, 57.563 204.970, 39.267 223.267 M 46.500 227 L 19.514 254 74 254 L 128.486 254 101.500 227 C 86.658 212.150, 74.283 200, 74 200 C 73.717 200, 61.342 212.150, 46.500 227 " stroke="none" fill="black" fill-rule="evenodd"/>
</svg>