<svg xmlns="http://www.w3.org/2000/svg" width="403" height="324" viewBox="0 0 403 324" version="1.1">
	<path d="M 326.652 64.189 C 325.841 65.460, 310.852 95.187, 293.343 130.249 C 267.098 182.805, 261.702 194.305, 262.612 195.749 C 263.559 197.253, 265.636 197.539, 277.357 197.778 C 284.861 197.931, 291 198.267, 291 198.524 C 291 198.781, 284.365 212.269, 276.257 228.498 C 264.169 252.690, 261.712 258.320, 262.616 259.752 C 263.647 261.387, 267.973 261.500, 329.500 261.500 C 391.027 261.500, 395.353 261.387, 396.384 259.752 C 397.288 258.320, 394.831 252.690, 382.743 228.498 C 374.635 212.269, 368 198.781, 368 198.524 C 368 198.267, 374.139 197.931, 381.643 197.778 C 393.378 197.539, 395.440 197.254, 396.391 195.744 C 397.305 194.294, 391.759 182.557, 364.499 128.244 C 342.523 84.461, 330.937 62.396, 329.813 62.189 C 328.885 62.018, 327.463 62.918, 326.652 64.189 M 300.747 131.500 C 284.936 163.128, 272 189.229, 272 189.502 C 272 189.776, 277.288 190, 283.750 189.999 L 295.500 189.998 311.500 158.249 C 324.476 132.500, 327.878 126.500, 329.500 126.500 C 331.122 126.500, 334.524 132.500, 347.500 158.249 L 363.500 189.998 375.250 189.999 C 381.712 190, 386.975 189.662, 386.945 189.250 C 386.915 188.838, 373.976 162.736, 358.192 131.248 L 329.494 73.995 300.747 131.500 M 7.627 127.515 C 6.158 128.985, 6 135.425, 6 194 C 6 252.599, 6.157 259.014, 7.629 260.486 C 8.557 261.414, 9.956 261.837, 10.879 261.468 C 11.771 261.112, 14.975 260.460, 18 260.019 C 33.519 257.756, 45.237 251.850, 56.615 240.555 C 63.384 233.836, 65.485 230.924, 69.288 223 C 74.633 211.860, 76.302 204.665, 76.245 193 C 76.164 176.215, 69.882 160.293, 58.573 148.203 C 46.459 135.253, 33.133 128.645, 14.877 126.537 C 10.402 126.020, 8.923 126.220, 7.627 127.515 M 135.244 159.256 L 102 192.511 102 226.056 C 102 250.812, 102.314 259.914, 103.200 260.800 C 104.109 261.709, 120.115 262, 169.118 262 C 204.713 262, 234.548 261.727, 235.418 261.393 C 236.818 260.856, 237 256.849, 237 226.576 L 237 192.366 221.750 177.202 L 206.500 162.038 221.750 146.757 C 230.137 138.353, 237 130.784, 237 129.938 C 237 128.207, 235.106 126, 233.621 126 C 233.082 126, 225.617 132.975, 217.032 141.500 L 201.422 157 186.032 141.500 C 177.567 132.975, 170.157 126, 169.565 126 C 168.973 126, 153.529 140.965, 135.244 159.256 M 14 193.500 C 14 249.506, 14.103 252.999, 15.750 252.985 C 20.233 252.947, 30.962 249.606, 37.397 246.243 C 56.519 236.251, 69 215.421, 69 193.500 C 69 171.579, 56.519 150.749, 37.397 140.757 C 30.962 137.394, 20.233 134.053, 15.750 134.015 C 14.103 134.001, 14 137.494, 14 193.500 M 139.709 164.906 L 110 194.886 110 221.692 L 110 248.497 153.247 205.250 L 196.494 162.003 182.956 148.465 L 169.418 134.927 139.709 164.906 M 300.998 195.014 C 285.324 226.374, 272.350 252.474, 272.167 253.016 C 271.951 253.654, 292.079 254, 329.417 254 C 361.087 254, 386.975 253.662, 386.945 253.250 C 386.915 252.838, 373.977 226.737, 358.193 195.249 L 329.495 137.998 300.998 195.014 M 161.461 207.254 C 139.450 229.389, 120.132 248.963, 118.533 250.750 L 115.626 254 172.813 254 L 230 254 230 224.737 L 230 195.474 215.741 181.241 L 201.483 167.008 161.461 207.254 " stroke="none" fill="black" fill-rule="evenodd"/>
</svg>