<svg xmlns="http://www.w3.org/2000/svg" width="308" height="324" viewBox="0 0 308 324" version="1.1">
	<path d="M 167.750 127.080 C 166.111 128.035, 166 132.293, 166 194.015 C 166 259.587, 166.011 259.935, 168.064 261.034 C 172.459 263.386, 173 261.270, 173 241.723 L 173 223.690 176.903 229.728 C 184.711 241.809, 198.078 252.382, 211.289 256.928 C 240.011 266.809, 272.244 255.732, 288.988 230.227 L 294 222.593 294 241.261 C 294 258.121, 294.172 260.022, 295.776 260.880 C 296.902 261.483, 298.182 261.478, 299.276 260.866 C 300.881 259.967, 301 255.347, 301 194 C 301 132.653, 300.881 128.033, 299.276 127.134 C 298.182 126.522, 296.902 126.517, 295.776 127.120 C 294.172 127.978, 294 129.881, 294 146.770 L 294 165.470 291.894 161.485 C 276.778 132.874, 241.097 119.286, 210.371 130.439 C 197.124 135.248, 184.710 145.192, 176.931 157.227 L 173 163.310 173 145.855 C 173 126.429, 172.421 124.359, 167.750 127.080 M 218 135.579 C 207.816 138.259, 200.019 142.918, 191.411 151.467 C 178.784 164.007, 174.024 175.514, 174.024 193.500 C 174.024 211.486, 178.784 222.993, 191.411 235.533 C 204.776 248.806, 217.298 253.636, 235.988 252.725 C 248.298 252.126, 255.893 249.808, 265.145 243.828 C 279.815 234.346, 289.173 219.719, 292.385 201.250 L 292.950 198 262.675 198 C 240.461 198, 232.080 197.680, 231.200 196.800 C 230.319 195.919, 230 187.422, 230 164.800 L 230 134 226.750 134.066 C 224.963 134.102, 221.025 134.783, 218 135.579 M 237 161.864 L 237 190 265.045 190 L 293.091 190 292.464 186.250 C 289.397 167.913, 280.543 153.521, 266.585 144.185 C 258.861 139.019, 249.901 135.479, 241.750 134.373 L 237 133.728 237 161.864 M 39.388 223.146 C 21.024 241.509, 6 257.056, 6 257.695 C 6 259.199, 8.801 261.997, 10.321 262.012 C 10.970 262.018, 25.389 248.068, 42.364 231.012 C 59.340 213.955, 73.517 200, 73.870 200 C 74.223 200, 88.457 213.950, 105.500 231 C 122.543 248.050, 136.941 261.993, 137.494 261.985 C 141.057 261.930, 141.152 260.978, 141.040 226.454 C 140.934 193.912, 140.602 190, 137.949 190 C 137.506 190, 136.436 190.707, 135.571 191.571 C 134.218 192.925, 133.999 197.045, 133.992 221.321 L 133.984 249.500 104.579 220.029 C 88.407 203.820, 74.635 190.378, 73.975 190.158 C 73.315 189.938, 57.751 204.783, 39.388 223.146 " stroke="none" fill="black" fill-rule="evenodd"/>
</svg>