<svg xmlns="http://www.w3.org/2000/svg" width="180" height="324" viewBox="0 0 180 324" version="1.1">
	<path d="M 33.384 159.412 C 15.475 163.758, 3.559 181.807, 6.987 199.396 C 8.500 207.161, 12.212 214.019, 17.580 218.967 C 38.277 238.045, 70.591 227.221, 76.013 199.396 C 79.488 181.565, 67.484 163.676, 49.147 159.360 C 42.397 157.772, 40.111 157.779, 33.384 159.412 M 103.571 159.571 C 101.215 161.927, 101.215 210.073, 103.571 212.429 C 104.436 213.293, 105.529 214, 106 214 C 106.471 214, 107.564 213.293, 108.429 212.429 C 110.785 210.073, 110.785 161.927, 108.429 159.571 C 107.564 158.707, 106.471 158, 106 158 C 105.529 158, 104.436 158.707, 103.571 159.571 M 135.571 159.571 C 133.215 161.927, 133.215 210.073, 135.571 212.429 C 136.436 213.293, 137.529 214, 138 214 C 138.471 214, 139.564 213.293, 140.429 212.429 C 142.785 210.073, 142.785 161.927, 140.429 159.571 C 139.564 158.707, 138.471 158, 138 158 C 137.529 158, 136.436 158.707, 135.571 159.571 M 31.054 167.728 C 25.018 169.859, 17.781 177.260, 15.667 183.463 C 11.995 194.241, 14.382 205.477, 21.952 213.048 C 32.673 223.769, 50.327 223.769, 61.048 213.048 C 71.769 202.327, 71.769 184.673, 61.048 173.952 C 53.519 166.424, 41.696 163.970, 31.054 167.728 M 39.571 191.571 C 38.707 192.436, 38 193.529, 38 194 C 38 195.111, 40.889 198, 42 198 C 43.111 198, 46 195.111, 46 194 C 46 192.889, 43.111 190, 42 190 C 41.529 190, 40.436 190.707, 39.571 191.571 M 103.571 222.571 C 102.707 223.436, 102 224.529, 102 225 C 102 225.471, 102.707 226.564, 103.571 227.429 C 104.436 228.293, 105.529 229, 106 229 C 106.471 229, 107.564 228.293, 108.429 227.429 C 109.293 226.564, 110 225.471, 110 225 C 110 224.529, 109.293 223.436, 108.429 222.571 C 107.564 221.707, 106.471 221, 106 221 C 105.529 221, 104.436 221.707, 103.571 222.571 M 135.571 222.571 C 134.707 223.436, 134 224.529, 134 225 C 134 225.471, 134.707 226.564, 135.571 227.429 C 136.436 228.293, 137.529 229, 138 229 C 138.471 229, 139.564 228.293, 140.429 227.429 C 141.293 226.564, 142 225.471, 142 225 C 142 224.529, 141.293 223.436, 140.429 222.571 C 139.564 221.707, 138.471 221, 138 221 C 137.529 221, 136.436 221.707, 135.571 222.571 " stroke="none" fill="black" fill-rule="evenodd"/>
</svg>