<svg xmlns="http://www.w3.org/2000/svg" width="148" height="324" viewBox="0 0 148 324" version="1.1">
	<path d="M 71.550 62.918 C 67.869 68.875, 54.190 98.331, 54.604 99.410 C 55.269 101.144, 57.524 102.120, 59.295 101.440 C 60.007 101.167, 63.480 95.106, 67.014 87.972 C 70.547 80.837, 73.677 75.022, 73.969 75.048 C 74.261 75.074, 77.290 80.868, 80.700 87.922 C 84.109 94.976, 87.654 101.037, 88.576 101.391 C 90.682 102.199, 93 100.352, 93 97.866 C 93 95.626, 77.264 63.831, 75.628 62.765 C 74.071 61.751, 72.229 61.820, 71.550 62.918 M 23.315 175.213 C 13.792 184.680, 6 193.134, 6 194 C 6 195.761, 39.994 230, 41.743 230 C 43.175 230, 46 227.187, 46 225.761 C 46 225.159, 40.063 218.670, 32.806 211.341 L 19.611 198.016 79.447 197.758 C 135.182 197.518, 139.358 197.380, 140.386 195.750 C 141.191 194.474, 141.191 193.526, 140.386 192.250 C 139.358 190.620, 135.182 190.482, 79.447 190.242 L 19.611 189.984 32.806 176.659 C 40.063 169.330, 46 162.841, 46 162.239 C 46 160.813, 43.175 158, 41.743 158 C 41.131 158, 32.838 165.746, 23.315 175.213 " stroke="none" fill="black" fill-rule="evenodd"/>
</svg>