<svg xmlns="http://www.w3.org/2000/svg" width="356" height="324" viewBox="0 0 356 324" version="1.1">
	<path d="M 311.200 63.200 C 309.512 64.888, 309.512 99.112, 311.200 100.800 C 312.886 102.486, 346.114 102.486, 347.800 100.800 C 349.488 99.112, 349.488 64.888, 347.800 63.200 C 346.114 61.514, 312.886 61.514, 311.200 63.200 M 317 82 L 317 94 329.500 94 L 342 94 342 82 L 342 70 329.500 70 L 317 70 317 82 M 103.482 127.661 C 102.186 128.957, 101.968 130.329, 102.490 133.911 C 104.564 148.149, 116.424 161.145, 129.547 163.561 C 133.847 164.352, 134.961 165.383, 134.985 168.590 C 135.012 172.331, 140.948 182.697, 145.427 186.826 C 154.262 194.970, 161.231 197.055, 181.750 197.695 C 189.037 197.922, 195 198.312, 195 198.561 C 195 198.810, 188.475 212.057, 180.500 228 C 172.525 243.943, 166 257.649, 166 258.458 C 166 260.785, 169.808 262.404, 171.663 260.865 C 172.507 260.164, 179.622 246.749, 187.474 231.052 L 201.750 202.514 216.399 231.797 C 224.455 247.903, 231.717 261.338, 232.536 261.652 C 233.355 261.967, 234.586 261.759, 235.270 261.191 C 235.955 260.622, 243.030 247.060, 250.991 231.052 L 265.467 201.947 280.171 231.343 C 288.430 247.852, 295.616 261.022, 296.565 261.386 C 298.495 262.127, 301 260.424, 301 258.371 C 301 257.610, 294.475 243.943, 286.500 228 C 278.525 212.057, 272 198.798, 272 198.535 C 272 198.272, 278.139 197.931, 285.643 197.778 C 297.360 197.539, 299.441 197.253, 300.388 195.750 C 301.191 194.475, 301.190 193.525, 300.387 192.250 C 299.360 190.621, 294.635 190.462, 231.892 189.944 C 182.422 189.536, 163.509 189.060, 160.775 188.154 C 152.332 185.356, 143.637 175.702, 142.335 167.678 C 141.857 164.730, 142.055 164, 143.332 164 C 147.749 164, 156.414 159.507, 161.342 154.661 C 167.208 148.892, 170.186 143.295, 171.963 134.700 C 173.564 126.961, 172.607 125.738, 165.614 126.590 C 158.602 127.445, 151.029 131.011, 145.602 136.013 C 140.776 140.461, 135 150.681, 135 154.771 C 135 157.059, 134.750 157.177, 131.250 156.537 C 120.790 154.624, 110.091 142.999, 110.022 133.473 C 110 130.420, 107.629 126, 106.015 126 C 105.535 126, 104.395 126.747, 103.482 127.661 M 327.724 127.134 C 326.119 128.033, 326 132.654, 326 194.015 C 326 256.133, 326.102 259.984, 327.776 260.880 C 328.902 261.483, 330.182 261.478, 331.276 260.866 C 332.881 259.967, 333 255.346, 333 193.985 C 333 131.867, 332.898 128.016, 331.224 127.120 C 330.098 126.517, 328.818 126.522, 327.724 127.134 M 159.885 135.380 C 154.779 137.204, 150.287 140.622, 146.963 145.210 C 144.139 149.108, 141.389 155.722, 142.238 156.572 C 143.041 157.374, 149.448 154.718, 153.727 151.809 C 158.035 148.881, 162.385 142.630, 163.976 137.084 C 164.970 133.619, 164.897 133.589, 159.885 135.380 M 33.384 159.370 C 15.387 163.885, 3.561 181.817, 6.987 199.396 C 9.885 214.269, 20.376 224.886, 35.198 227.944 C 50.783 231.161, 68.362 221.340, 74.002 206.266 C 76.889 198.550, 76.845 188.335, 73.893 180.443 C 68.147 165.086, 49.423 155.345, 33.384 159.370 M 31.463 167.591 C 17.822 172.435, 10.648 188.393, 15.519 203.058 C 21.549 221.212, 46.463 227.109, 60.280 213.653 C 66.701 207.401, 68.500 202.989, 68.500 193.500 C 68.500 187.546, 67.994 184.477, 66.523 181.500 C 63.688 175.767, 56.795 169.459, 51.329 167.597 C 45.635 165.656, 36.919 165.654, 31.463 167.591 M 220.208 222.750 C 226.848 236.363, 232.636 247.896, 233.071 248.381 C 233.698 249.080, 259 200.414, 259 198.508 C 259 198.228, 247.555 198, 233.567 198 L 208.135 198 220.208 222.750 M 7.585 255.558 C 6.713 256.430, 6 257.529, 6 258 C 6 258.471, 6.713 259.570, 7.585 260.442 C 8.978 261.835, 13.159 261.995, 42.226 261.763 C 72.452 261.523, 75.377 261.350, 76.386 259.750 C 77.191 258.474, 77.191 257.526, 76.386 256.250 C 75.377 254.650, 72.452 254.477, 42.226 254.237 C 13.159 254.005, 8.978 254.165, 7.585 255.558 " stroke="none" fill="black" fill-rule="evenodd"/>
</svg>