<svg xmlns="http://www.w3.org/2000/svg" width="436" height="324" viewBox="0 0 436 324" version="1.1">
	<path d="M 135.571 127.571 C 134.707 128.436, 134 129.529, 134 130 C 134 130.471, 134.707 131.564, 135.571 132.429 C 136.966 133.824, 144.152 134, 199.571 134 L 262 134 262 194 L 262 254 135.571 254 C 21.970 254, 8.983 254.159, 7.571 255.571 C 5.598 257.545, 5.598 258.455, 7.571 260.429 C 8.984 261.841, 22.190 262, 138 262 C 253.810 262, 267.016 261.841, 268.429 260.429 C 269.825 259.032, 270 251.628, 270 194 C 270 136.372, 269.825 128.968, 268.429 127.571 C 267.032 126.175, 259.628 126, 202 126 C 144.372 126, 136.968 126.175, 135.571 127.571 M 295.750 127.080 C 294.788 127.641, 294 128.867, 294 129.806 C 294 130.744, 308.400 145.906, 326 163.500 L 358 195.488 358 224.744 L 358 254 327.934 254 C 309.122 254, 297.145 254.387, 295.934 255.035 C 293.440 256.370, 293.448 259.634, 295.948 260.972 C 297.256 261.672, 319.132 261.930, 362.589 261.757 C 422.951 261.517, 427.356 261.383, 428.386 259.750 C 429.191 258.474, 429.191 257.526, 428.386 256.250 C 427.381 254.655, 424.566 254.477, 396.641 254.236 L 366 253.971 366 224.514 L 366 195.057 397.500 163.157 C 414.825 145.612, 429 130.614, 429 129.829 C 429 128.174, 427.062 126, 425.587 126 C 425.029 126, 410.494 140.053, 393.287 157.229 L 362 188.458 330.713 157.229 C 313.506 140.053, 298.993 126.014, 298.463 126.030 C 297.933 126.047, 296.712 126.519, 295.750 127.080 " stroke="none" fill="black" fill-rule="evenodd"/>
</svg>