<svg xmlns="http://www.w3.org/2000/svg" width="260" height="324" viewBox="0 0 260 324" version="1.1">
	<path d="M 232.245 79.263 C 222.755 88.743, 214.726 96.804, 214.404 97.175 C 213.438 98.285, 214.790 99.780, 232.646 117.347 C 248.225 132.675, 249.960 134.092, 251.885 133.062 C 253.048 132.439, 254 131.163, 254 130.227 C 254 129.290, 247.143 121.656, 238.762 113.262 L 223.524 98 238.762 82.738 C 247.143 74.344, 254 66.710, 254 65.773 C 254 64.408, 251.270 61.954, 249.816 62.013 C 249.642 62.020, 241.735 69.782, 232.245 79.263 M 132.518 97.974 C 125.781 107.695, 126.059 119.730, 133.233 129 C 134.297 130.375, 136.059 131.981, 137.147 132.569 C 138.942 133.538, 138.570 133.981, 133.149 137.327 C 120.339 145.234, 108.001 162.517, 104.383 177.624 C 102.275 186.422, 102.275 200.578, 104.383 209.376 C 107.722 223.316, 119.176 240.209, 130.636 248.093 C 142.953 256.568, 154.810 260.298, 169.500 260.319 C 185.445 260.341, 198.218 256.041, 210.642 246.467 C 226.551 234.206, 237 213.210, 237 193.500 C 237 173.790, 226.551 152.794, 210.642 140.533 C 200.810 132.957, 186.228 127, 177.512 127 C 167.283 127, 163.061 109.983, 171.149 101.348 C 173.937 98.371, 173.287 94.592, 169.921 94.200 C 167.894 93.964, 166.781 94.714, 164.727 97.700 C 163.288 99.790, 161.613 102.830, 161.003 104.455 C 159.379 108.781, 159.602 118.111, 161.433 122.494 C 162.309 124.591, 162.908 126.376, 162.763 126.460 C 162.618 126.543, 159.575 127.184, 156 127.884 C 152.425 128.584, 147.661 129.963, 145.413 130.950 L 141.326 132.743 141.792 130.310 C 142.113 128.630, 141.463 127.045, 139.692 125.189 C 133.582 118.783, 133.326 107.565, 139.149 101.348 C 141.937 98.371, 141.287 94.592, 137.921 94.200 C 135.871 93.962, 134.761 94.737, 132.518 97.974 M 197.972 96.193 C 189.781 104.735, 189.979 121.388, 198.379 130.318 C 200.085 132.131, 201.826 133.022, 203.265 132.818 C 206.797 132.316, 206.612 128.644, 202.816 123.921 C 199.799 120.166, 199.500 119.188, 199.500 113.069 C 199.500 107.235, 199.873 105.855, 202.317 102.651 C 203.949 100.511, 205 98.021, 204.817 96.729 C 204.373 93.607, 200.726 93.321, 197.972 96.193 M 39.571 127.571 C 38.176 128.966, 38 136.152, 38 191.571 L 38 254 23.571 254 C 11.788 254, 8.855 254.288, 7.571 255.571 C 5.598 257.545, 5.598 258.455, 7.571 260.429 C 8.936 261.793, 13.463 262, 42 262 C 70.537 262, 75.064 261.793, 76.429 260.429 C 77.293 259.564, 78 258.471, 78 258 C 78 257.529, 77.293 256.436, 76.429 255.571 C 75.145 254.288, 72.212 254, 60.429 254 L 46 254 46 191.571 C 46 136.152, 45.824 128.966, 44.429 127.571 C 43.564 126.707, 42.471 126, 42 126 C 41.529 126, 40.436 126.707, 39.571 127.571 M 155.217 135.449 C 134.426 140.483, 116.949 158.085, 111.515 179.460 C 104.829 205.762, 118.590 235.105, 143.101 246.809 C 153.018 251.545, 159.332 253.005, 169.799 252.985 C 195.828 252.935, 218.713 236.220, 226.596 211.500 C 229.991 200.853, 230.147 186.819, 226.985 176.500 C 220.909 156.675, 204.300 140.760, 184.269 135.570 C 177.052 133.700, 162.689 133.640, 155.217 135.449 M 167.557 160.223 C 166.232 162.113, 166 166.887, 166 192.196 L 166 221.947 151.357 222.223 C 138.686 222.463, 136.567 222.736, 135.613 224.250 C 134.809 225.525, 134.810 226.475, 135.614 227.750 C 136.622 229.349, 139.531 229.523, 169.399 229.764 C 203.209 230.037, 206 229.750, 206 226 C 206 222.738, 202.692 222, 188.066 222 L 174 222 174 191.571 C 174 165.242, 173.788 160.931, 172.429 159.571 C 170.322 157.465, 169.402 157.588, 167.557 160.223 " stroke="none" fill="black" fill-rule="evenodd"/>
</svg>