<svg xmlns="http://www.w3.org/2000/svg" width="244" height="324" viewBox="0 0 244 324" version="1.1">
	<path d="M 39.267 159.267 L 6 192.533 6 225.695 C 6 254.509, 6.206 259.063, 7.571 260.429 C 8.968 261.825, 16.372 262, 74 262 C 131.628 262, 139.032 261.825, 140.429 260.429 C 141.794 259.063, 142 254.509, 142 225.695 L 142 192.533 108.733 159.267 C 90.437 140.970, 74.807 126, 74 126 C 73.193 126, 57.563 140.970, 39.267 159.267 M 194.355 126.986 C 172.853 131.520, 160.274 155.905, 169.329 175.500 C 172.298 181.925, 178.624 189.175, 183.488 191.729 C 186.304 193.207, 186.364 193.361, 184.533 194.399 C 179.291 197.369, 172.085 205.413, 169.411 211.278 C 165.384 220.111, 165.352 230.894, 169.329 239.500 C 174.300 250.257, 183.699 257.737, 195.279 260.151 C 201.996 261.551, 202.409 261.535, 209.301 259.615 C 217.313 257.383, 220.562 255.534, 225.945 250.146 C 232.478 243.606, 235.252 237.365, 235.795 227.986 C 236.568 214.631, 231.433 203.736, 220.990 196.574 L 216.480 193.481 220.990 190.413 C 227.025 186.309, 232.686 178.707, 234.640 172.085 C 236.870 164.527, 236.122 152.961, 232.982 146.429 C 226.293 132.517, 209.118 123.872, 194.355 126.986 M 191.627 135.468 C 186.247 137.386, 181.039 141.829, 177.500 147.519 C 173.527 153.908, 172.712 165.311, 175.741 172.129 C 179.420 180.408, 186.903 186.846, 194.750 188.481 L 198 189.159 198 161.579 C 198 140.159, 197.721 134.010, 196.750 134.044 C 196.063 134.068, 193.757 134.709, 191.627 135.468 M 205 161.608 L 205 189.217 207.750 188.543 C 213.349 187.172, 220.453 182.281, 223.708 177.558 C 231.144 166.768, 230.669 154.393, 222.396 143.335 C 220.160 140.346, 209.244 134, 206.340 134 C 205.252 134, 205 139.197, 205 161.608 M 43.744 165.756 L 14 195.512 14 224.756 L 14 254 74 254 L 134 254 134 224.744 L 134 195.487 104.244 165.744 C 87.878 149.385, 74.263 136, 73.988 136 C 73.713 136, 60.103 149.390, 43.744 165.756 M 191.627 199.468 C 186.247 201.386, 181.039 205.829, 177.500 211.519 C 173.527 217.908, 172.712 229.311, 175.741 236.129 C 179.420 244.408, 186.903 250.846, 194.750 252.481 L 198 253.159 198 225.579 C 198 204.159, 197.721 198.010, 196.750 198.044 C 196.063 198.068, 193.757 198.709, 191.627 199.468 M 205 225.608 L 205 253.217 207.750 252.543 C 213.349 251.172, 220.453 246.281, 223.708 241.558 C 231.144 230.768, 230.669 218.393, 222.396 207.335 C 220.160 204.346, 209.244 198, 206.340 198 C 205.252 198, 205 203.197, 205 225.608 " stroke="none" fill="black" fill-rule="evenodd"/>
</svg>