<svg xmlns="http://www.w3.org/2000/svg" width="84" height="324" viewBox="0 0 84 324" version="1.1">
	<path d="M 40.372 62.765 C 38.418 64.037, 22.003 97.844, 22.593 99.381 C 23.268 101.141, 25.513 102.124, 27.295 101.440 C 28.007 101.167, 31.480 95.106, 35.014 87.972 C 38.547 80.837, 41.691 75, 42 75 C 42.309 75, 45.453 80.837, 48.986 87.972 C 52.520 95.106, 55.993 101.167, 56.705 101.440 C 58.487 102.124, 60.732 101.141, 61.407 99.381 C 61.716 98.575, 58.096 90.173, 53.363 80.708 C 45.638 65.261, 43.672 62.031, 42 62.031 C 41.725 62.031, 40.992 62.361, 40.372 62.765 M 35.045 159.064 C 8.339 164.471, -2.514 196.753, 15.601 216.901 C 21.564 223.534, 33.107 228.904, 42 229.184 C 44.987 229.278, 55.595 225.840, 59.651 223.464 C 73.790 215.179, 80.040 196.420, 73.963 180.507 C 68.282 165.630, 50.635 155.907, 35.045 159.064 M 31.054 167.728 C 25.018 169.859, 17.781 177.260, 15.667 183.463 C 10.058 199.925, 18.847 216.571, 35.250 220.550 L 38 221.217 38 193.608 C 38 172.146, 37.722 166.018, 36.750 166.079 C 36.063 166.122, 33.499 166.864, 31.054 167.728 M 46 193.500 L 46 221.135 48.250 220.475 C 61.167 216.686, 69 206.503, 69 193.500 C 69 180.497, 61.167 170.314, 48.250 166.525 L 46 165.865 46 193.500 " stroke="none" fill="black" fill-rule="evenodd"/>
</svg>