<svg xmlns="http://www.w3.org/2000/svg" width="388" height="324" viewBox="0 0 388 324" version="1.1">
	<path d="M 231.285 159.230 C 212.978 177.506, 198 193.153, 198 194 C 198 195.655, 263.911 262, 265.555 262 C 266.864 262, 333.500 195.311, 333.500 194 C 333.500 192.689, 266.864 126, 265.555 126 C 265.013 126, 249.591 140.953, 231.285 159.230 M 236 164.500 L 206.508 194.004 236.008 223.504 L 265.508 253.004 295 223.500 L 324.492 193.996 294.992 164.496 L 265.492 134.996 236 164.500 M 359.315 175.213 C 349.792 184.680, 342 193.134, 342 194 C 342 195.680, 375.953 230, 377.615 230 C 379.105 230, 381 227.795, 381 226.062 C 381 225.216, 374.143 217.656, 365.762 209.262 L 350.524 194 365.762 178.738 C 374.143 170.344, 381 162.784, 381 161.938 C 381 160.205, 379.105 158, 377.615 158 C 377.073 158, 368.838 165.746, 359.315 175.213 M 40.370 190.765 C 38.401 192.045, 6.007 257.855, 6.594 259.384 C 7.265 261.133, 9.512 262.124, 11.274 261.448 C 11.975 261.180, 19.056 247.919, 27.010 231.980 C 34.964 216.041, 41.710 203, 42 203 C 42.290 203, 49.036 216.041, 56.990 231.980 C 64.944 247.919, 72.108 261.211, 72.909 261.519 C 73.711 261.826, 75.218 261.226, 76.259 260.185 C 78.116 258.328, 77.837 257.662, 61.456 224.896 C 46.453 194.886, 43.744 190.031, 42 190.031 C 41.725 190.031, 40.991 190.361, 40.370 190.765 M 131.045 191.064 C 112.204 194.879, 99.445 213.220, 102.987 231.396 C 106.288 248.338, 120.149 260.118, 137 260.301 C 153.584 260.481, 167.305 249.680, 171.552 233.103 C 174.510 221.559, 170.785 209.595, 161.353 200.339 C 153.455 192.589, 141.532 188.940, 131.045 191.064 M 127.627 199.468 C 119.862 202.236, 111.901 211.144, 110.394 218.750 L 109.750 222 137.375 222 C 152.569 222, 165 221.630, 165 221.178 C 165 217.676, 161.084 210.193, 157.125 206.128 C 149.802 198.610, 137.699 195.878, 127.627 199.468 M 110.442 232.750 C 112.310 240.539, 121.199 249.850, 128.775 251.954 C 144.614 256.353, 159.699 248.023, 164.456 232.250 L 165.135 230 137.459 230 L 109.783 230 110.442 232.750 " stroke="none" fill="black" fill-rule="evenodd"/>
</svg>