<svg xmlns="http://www.w3.org/2000/svg" width="308" height="324" viewBox="0 0 308 324" version="1.1">
	<path d="M 39.230 159.285 L 6 192.569 6 225.713 C 6 254.511, 6.206 259.063, 7.571 260.429 C 8.968 261.825, 16.343 261.998, 73.821 261.985 C 109.395 261.976, 139.081 261.601, 139.791 261.150 C 140.805 260.507, 141.078 253.049, 141.065 226.416 L 141.047 192.500 108.274 159.223 C 90.248 140.920, 74.816 125.958, 73.980 125.973 C 73.144 125.988, 57.506 140.978, 39.230 159.285 M 43.744 165.756 L 14 195.512 14 224.756 L 14 254 74 254 L 134 254 134 224.744 L 134 195.487 104.244 165.744 C 87.878 149.385, 74.263 136, 73.988 136 C 73.713 136, 60.103 149.390, 43.744 165.756 M 167.750 191.076 C 165.422 192.437, 165.524 195.675, 167.934 196.965 C 168.998 197.534, 175.523 198, 182.434 198 C 189.345 198, 195 198.228, 195 198.507 C 195 198.785, 188.475 212.057, 180.500 228 C 172.525 243.943, 166 257.649, 166 258.458 C 166 260.785, 169.808 262.404, 171.663 260.865 C 172.507 260.164, 179.622 246.749, 187.474 231.052 L 201.750 202.514 216.399 231.797 C 224.455 247.903, 231.746 261.349, 232.601 261.677 C 233.456 262.005, 234.763 261.649, 235.506 260.887 C 236.249 260.124, 243.210 246.734, 250.975 231.130 C 258.740 215.527, 265.410 203.069, 265.797 203.447 C 266.184 203.826, 273.025 217.042, 281 232.817 C 295.925 262.340, 297.431 264.434, 300.384 259.752 C 301.288 258.320, 298.831 252.690, 286.743 228.498 C 278.635 212.269, 272 198.781, 272 198.524 C 272 198.267, 278.139 197.931, 285.643 197.778 C 297.360 197.539, 299.441 197.253, 300.388 195.750 C 301.191 194.475, 301.190 193.525, 300.386 192.250 C 299.356 190.616, 294.963 190.485, 234.391 190.276 C 191.547 190.129, 168.905 190.400, 167.750 191.076 M 216.427 215.250 C 227.475 238.242, 232.919 249, 233.507 249 C 233.992 249, 259 199.468, 259 198.508 C 259 198.228, 247.556 198, 233.569 198 L 208.139 198 216.427 215.250 " stroke="none" fill="black" fill-rule="evenodd"/>
</svg>