<svg xmlns="http://www.w3.org/2000/svg" width="244" height="324" viewBox="0 0 244 324" version="1.1">
	<path d="M 72.316 62.784 C 70.369 64.022, 54.007 97.855, 54.604 99.410 C 55.269 101.144, 57.524 102.120, 59.295 101.440 C 60.007 101.167, 63.480 95.106, 67.014 87.972 C 70.547 80.837, 73.691 75, 74 75 C 74.309 75, 77.453 80.837, 80.986 87.972 C 84.520 95.106, 87.993 101.167, 88.705 101.440 C 90.487 102.124, 92.732 101.141, 93.407 99.381 C 93.997 97.844, 77.582 64.037, 75.628 62.765 C 74.214 61.845, 73.789 61.847, 72.316 62.784 M 103.571 159.571 C 102.707 160.436, 102 161.636, 102 162.239 C 102 162.841, 107.941 169.334, 115.202 176.667 L 128.405 190 68.774 190 C 15.897 190, 8.965 190.178, 7.571 191.571 C 5.598 193.545, 5.598 194.455, 7.571 196.429 C 8.965 197.822, 15.897 198, 68.774 198 L 128.405 198 115.202 211.333 C 107.941 218.666, 102 225.159, 102 225.761 C 102 227.202, 104.832 230, 106.290 230 C 107.969 230, 142 195.693, 142 194 C 142 192.307, 107.969 158, 106.290 158 C 105.659 158, 104.436 158.707, 103.571 159.571 M 194.355 158.986 C 172.853 163.520, 160.274 187.905, 169.329 207.500 C 174.300 218.257, 183.699 225.737, 195.279 228.151 C 201.996 229.551, 202.409 229.535, 209.301 227.615 C 217.317 225.382, 220.565 223.532, 225.934 218.146 C 233.444 210.610, 235.475 205.372, 235.488 193.500 C 235.502 181.368, 233.458 176.293, 225.353 168.339 C 217.361 160.497, 204.948 156.752, 194.355 158.986 M 191.627 167.468 C 186.247 169.386, 181.039 173.829, 177.500 179.519 C 173.527 185.908, 172.712 197.311, 175.741 204.129 C 179.420 212.408, 186.903 218.846, 194.750 220.481 L 198 221.159 198 193.579 C 198 172.159, 197.721 166.010, 196.750 166.044 C 196.063 166.068, 193.757 166.709, 191.627 167.468 M 205 193.392 C 205 215.803, 205.252 221, 206.340 221 C 209.244 221, 220.160 214.654, 222.396 211.665 C 228.230 203.868, 230.323 194.569, 228.098 186.343 C 225.616 177.169, 216.964 168.714, 207.750 166.457 L 205 165.783 205 193.392 " stroke="none" fill="black" fill-rule="evenodd"/>
</svg>