<svg xmlns="http://www.w3.org/2000/svg" width="244" height="324" viewBox="0 0 244 324" version="1.1">
	<path d="M 151.200 63.200 C 149.512 64.888, 149.512 99.112, 151.200 100.800 C 152.605 102.205, 185.658 102.503, 187.823 101.130 C 189.743 99.913, 189.743 64.087, 187.823 62.870 C 185.658 61.497, 152.605 61.795, 151.200 63.200 M 157 82 L 157 94 169.500 94 L 182 94 182 82 L 182 70 169.500 70 L 157 70 157 82 M 159.102 127.104 C 144.535 129.318, 131.327 136.578, 120.208 148.484 C 108.225 161.315, 102.624 175.654, 102.624 193.500 C 102.624 212.874, 108.315 226.360, 122.474 240.539 C 134.950 253.033, 142.951 256.843, 165 260.792 C 168.255 261.375, 171.188 261.414, 172.184 260.888 C 173.111 260.400, 175.296 260, 177.040 260 C 182.511 260, 192.193 256.986, 200.500 252.697 C 210.958 247.297, 222.889 235.544, 228.264 225.348 C 238.612 205.720, 238.612 181.280, 228.264 161.652 C 220.409 146.751, 202.756 132.797, 186.500 128.638 C 178.410 126.568, 166.879 125.923, 159.102 127.104 M 154.072 135.591 C 143.666 138.388, 135.974 142.984, 127.479 151.479 C 115.117 163.841, 110 176.143, 110 193.500 C 110 210.869, 115.121 223.174, 127.479 235.500 C 133.017 241.023, 137.512 244.479, 142 246.663 C 148.839 249.990, 159 253, 163.394 253 L 166 253 166 193.500 L 166 134 162.750 134.066 C 160.963 134.102, 157.057 134.788, 154.072 135.591 M 173 193.500 C 173 251.833, 173.038 253, 174.951 253 C 179.707 253, 188.142 250.513, 195.820 246.847 C 232.330 229.416, 240.239 179.768, 211.087 150.999 C 207.160 147.123, 201.632 142.993, 197.397 140.772 C 190.674 137.245, 180.193 134.047, 175.250 134.015 L 173 134 173 193.500 M 40.370 190.765 C 38.401 192.045, 6.007 257.855, 6.594 259.384 C 7.265 261.133, 9.512 262.124, 11.274 261.448 C 11.975 261.180, 19.056 247.919, 27.010 231.980 C 34.964 216.041, 41.710 203, 42 203 C 42.290 203, 49.036 216.041, 56.990 231.980 C 64.944 247.919, 72.108 261.211, 72.909 261.519 C 73.711 261.826, 75.218 261.226, 76.259 260.185 C 78.116 258.328, 77.837 257.662, 61.456 224.896 C 46.453 194.886, 43.744 190.031, 42 190.031 C 41.725 190.031, 40.991 190.361, 40.370 190.765 " stroke="none" fill="black" fill-rule="evenodd"/>
</svg>