<svg xmlns="http://www.w3.org/2000/svg" width="276" height="324" viewBox="0 0 276 324" version="1.1">
	<path d="M 35.045 127.092 C 19.667 130.107, 7.255 144.071, 6.841 158.824 C 6.689 164.231, 10.459 179.667, 14.976 192.133 C 21.053 208.902, 33.075 227.074, 46.717 240.107 C 55.946 248.924, 71.175 260, 74.070 260 C 75.196 260, 77.778 258.733, 79.809 257.185 C 81.839 255.636, 86.988 251.763, 91.250 248.578 C 115.277 230.626, 133.502 200.630, 139.339 169.426 C 143.276 148.377, 131.638 130.742, 111.384 127.070 C 97.823 124.611, 83.450 130.945, 76.005 142.662 L 73.360 146.824 71.503 143.377 C 69.181 139.064, 62.418 132.764, 57.318 130.162 C 55.183 129.073, 50.781 127.691, 47.535 127.091 C 40.969 125.877, 41.243 125.877, 35.045 127.092 M 200.369 126.765 C 199.416 127.384, 134 257.155, 134 258.426 C 134 258.663, 134.707 259.564, 135.571 260.429 C 136.968 261.825, 144.372 262, 202 262 C 259.628 262, 267.032 261.825, 268.429 260.429 C 269.293 259.564, 270 258.663, 270 258.426 C 270 257.155, 204.584 127.384, 203.631 126.765 C 203.009 126.361, 202.275 126.031, 202 126.031 C 201.725 126.031, 200.991 126.361, 200.369 126.765 M 31.054 135.728 C 24.787 137.940, 17.726 145.297, 15.534 151.899 C 13.881 156.875, 13.875 157.704, 15.430 166.205 C 18.776 184.494, 25.269 200.593, 35.513 216 C 41.749 225.379, 57.225 240.966, 66.659 247.369 L 73.817 252.228 79.235 248.632 C 104.319 231.983, 122.938 205.409, 130.553 175.392 C 134.737 158.897, 133.307 150.212, 125.048 141.952 C 117.477 134.382, 106.241 131.995, 95.463 135.667 C 86.088 138.862, 78 149.949, 78 159.607 C 78 162.970, 75.867 166, 73.500 166 C 71.133 166, 69 162.970, 69 159.607 C 69 149.949, 60.912 138.862, 51.537 135.667 C 45.516 133.616, 36.964 133.641, 31.054 135.728 M 172.747 196.500 L 144.002 254 202 254 L 259.998 254 231.253 196.500 C 215.443 164.875, 202.279 139, 202 139 C 201.721 139, 188.557 164.875, 172.747 196.500 M 195.637 175.465 C 188.890 177.870, 183.867 183.861, 182.503 191.131 C 181.855 194.586, 183.593 198, 186 198 C 187.861 198, 190 194.700, 190 191.829 C 190 189.718, 191.030 187.770, 193.400 185.400 C 196.302 182.498, 197.488 182, 201.500 182 C 205.512 182, 206.698 182.498, 209.600 185.400 C 212.502 188.302, 213 189.488, 213 193.500 C 213 197.512, 212.502 198.698, 209.600 201.600 C 207.526 203.674, 205.214 205, 203.671 205 C 199.012 205, 198 207.231, 198 217.500 C 198 224.673, 198.367 227.224, 199.571 228.429 C 200.436 229.293, 201.529 230, 202 230 C 204.689 230, 206 226.575, 206 219.550 C 206 212.379, 206.056 212.219, 208.989 211.004 C 216.077 208.069, 221.944 197.649, 220.441 190.666 C 218.872 183.379, 213.022 176.933, 206.277 175.060 C 201.498 173.733, 200.376 173.776, 195.637 175.465 M 199.571 238.571 C 198.707 239.436, 198 240.529, 198 241 C 198 241.471, 198.707 242.564, 199.571 243.429 C 200.436 244.293, 201.529 245, 202 245 C 202.471 245, 203.564 244.293, 204.429 243.429 C 205.293 242.564, 206 241.471, 206 241 C 206 240.529, 205.293 239.436, 204.429 238.571 C 203.564 237.707, 202.471 237, 202 237 C 201.529 237, 200.436 237.707, 199.571 238.571 " stroke="none" fill="black" fill-rule="evenodd"/>
</svg>