<svg xmlns="http://www.w3.org/2000/svg" width="356" height="324" viewBox="0 0 356 324" version="1.1">
	<path d="M 7.571 63.571 C 5.243 65.900, 5.243 98.100, 7.571 100.429 C 9.900 102.757, 42.100 102.757, 44.429 100.429 C 46.757 98.100, 46.757 65.900, 44.429 63.571 C 42.100 61.243, 9.900 61.243, 7.571 63.571 M 14 82 L 14 94 26 94 L 38 94 38 82 L 38 70 26 70 L 14 70 14 82 M 23.571 127.571 C 22.175 128.968, 22 136.372, 22 194 C 22 251.628, 22.175 259.032, 23.571 260.429 C 24.436 261.293, 25.529 262, 26 262 C 26.471 262, 27.564 261.293, 28.429 260.429 C 29.825 259.032, 30 251.628, 30 194 C 30 136.372, 29.825 128.968, 28.429 127.571 C 27.564 126.707, 26.471 126, 26 126 C 25.529 126, 24.436 126.707, 23.571 127.571 M 126.582 135.250 C 112.571 149.521, 105.499 164.013, 102.855 183.874 C 101.882 191.182, 101.874 195.209, 102.819 202.692 C 105.360 222.808, 112.395 237.222, 127 252.237 L 136.500 262.004 201.360 262.002 L 266.220 262 274.266 253.790 C 291.652 236.050, 300 216.492, 300 193.500 C 300 170.569, 291.375 150.233, 274.684 133.809 L 266.748 126 201.205 126 L 135.663 126 126.582 135.250 M 133.360 138.236 C 124.775 146.150, 117.240 158.382, 112.816 171.586 C 110.805 177.590, 110.500 180.474, 110.500 193.500 C 110.500 206.526, 110.805 209.410, 112.816 215.414 C 117.374 229.019, 125.019 241.235, 134.065 249.368 L 139.216 254 201.357 254 L 263.498 254 271.499 245.714 C 280.690 236.194, 286.592 225.999, 290.146 213.500 C 293.361 202.195, 293.361 184.805, 290.146 173.500 C 286.787 161.688, 280.671 150.931, 272.146 141.841 L 264.792 134 201.374 134 L 137.955 134 133.360 138.236 M 55.571 159.571 C 54.707 160.436, 54 161.640, 54 162.249 C 54 162.857, 60.844 170.250, 69.208 178.677 L 84.416 194 69.208 209.323 C 60.844 217.750, 54 225.143, 54 225.751 C 54 227.200, 56.827 230, 58.290 230 C 59.969 230, 94 195.693, 94 194 C 94 192.307, 59.969 158, 58.290 158 C 57.659 158, 56.436 158.707, 55.571 159.571 M 327.239 175.260 C 317.758 184.754, 310 193.196, 310 194.021 C 310 194.846, 317.877 203.388, 327.503 213.003 C 342.490 227.971, 345.258 230.327, 346.753 229.386 C 350.681 226.912, 349.403 224.927, 333.862 209.362 L 318.524 194 333.762 178.738 C 342.143 170.344, 349 162.784, 349 161.938 C 349 160.168, 347.095 158, 345.539 158 C 344.956 158, 336.721 165.767, 327.239 175.260 " stroke="none" fill="black" fill-rule="evenodd"/>
</svg>