<svg xmlns="http://www.w3.org/2000/svg" width="276" height="324" viewBox="0 0 276 324" version="1.1">
	<path d="M 167.571 111.571 C 166.707 112.436, 166 113.609, 166 114.178 C 166 114.747, 169.119 118.430, 172.931 122.361 L 179.862 129.510 171.681 133.448 C 165.054 136.639, 161.783 139.108, 154.461 146.443 C 140.378 160.554, 134.654 174.172, 134.681 193.500 C 134.698 205.257, 136.562 213.266, 141.778 224 C 146.922 234.587, 160.441 248.092, 171 253.193 C 181.909 258.463, 189.807 260.304, 201.500 260.304 C 220.834 260.304, 234.527 254.551, 248.539 240.539 C 262.551 226.527, 268.304 212.834, 268.304 193.500 C 268.304 181.743, 266.451 173.760, 261.222 163 C 256.032 152.318, 242.596 138.939, 231.693 133.596 L 223.885 129.770 230.943 122.492 C 234.824 118.488, 238 114.747, 238 114.178 C 238 112.825, 235.156 110, 233.794 110 C 233.209 110, 228.629 113.966, 223.615 118.814 L 214.500 127.627 209 126.822 C 205.975 126.379, 200.211 126.293, 196.191 126.631 L 188.882 127.246 180.070 118.623 C 175.223 113.880, 170.782 110, 170.200 110 C 169.619 110, 168.436 110.707, 167.571 111.571 M 198.769 137.231 L 202 140.462 205.231 137.231 L 208.462 134 202 134 L 195.538 134 198.769 137.231 M 174.866 140.168 C 145.057 155.019, 133.256 191.733, 148.757 221.397 C 153.685 230.827, 164.173 241.315, 173.603 246.243 C 197.002 258.470, 224.831 254.200, 243.516 235.516 C 262.200 216.831, 266.470 189.002, 254.243 165.603 C 249.316 156.174, 238.810 145.664, 229.500 140.849 C 218.058 134.931, 218.841 134.846, 210.528 142.908 C 206.505 146.808, 202.667 150, 202 150 C 201.333 150, 197.538 146.850, 193.568 143 C 189.597 139.150, 185.647 136, 184.790 136 C 183.933 136, 179.467 137.876, 174.866 140.168 M 65.384 159.412 C 47.475 163.758, 35.559 181.807, 38.987 199.396 C 40.500 207.161, 44.212 214.019, 49.580 218.967 C 70.277 238.045, 102.591 227.221, 108.013 199.396 C 111.488 181.565, 99.484 163.676, 81.147 159.360 C 74.397 157.772, 72.111 157.779, 65.384 159.412 M 167.571 159.571 C 166.707 160.436, 166 161.529, 166 162 C 166 162.471, 166.707 163.564, 167.571 164.429 C 168.436 165.293, 169.529 166, 170 166 C 170.471 166, 171.564 165.293, 172.429 164.429 C 173.293 163.564, 174 162.471, 174 162 C 174 161.529, 173.293 160.436, 172.429 159.571 C 171.564 158.707, 170.471 158, 170 158 C 169.529 158, 168.436 158.707, 167.571 159.571 M 199.571 159.571 C 198.212 160.931, 198 165.242, 198 191.571 L 198 222 183.571 222 C 171.788 222, 168.855 222.288, 167.571 223.571 C 165.598 225.545, 165.598 226.455, 167.571 228.429 C 168.936 229.793, 173.463 230, 202 230 C 230.537 230, 235.064 229.793, 236.429 228.429 C 238.402 226.455, 238.402 225.545, 236.429 223.571 C 235.145 222.288, 232.212 222, 220.429 222 L 206 222 206 191.571 C 206 165.242, 205.788 160.931, 204.429 159.571 C 203.564 158.707, 202.471 158, 202 158 C 201.529 158, 200.436 158.707, 199.571 159.571 M 231.571 159.571 C 230.707 160.436, 230 161.529, 230 162 C 230 162.471, 230.707 163.564, 231.571 164.429 C 232.436 165.293, 233.529 166, 234 166 C 234.471 166, 235.564 165.293, 236.429 164.429 C 237.293 163.564, 238 162.471, 238 162 C 238 161.529, 237.293 160.436, 236.429 159.571 C 235.564 158.707, 234.471 158, 234 158 C 233.529 158, 232.436 158.707, 231.571 159.571 M 63.054 167.728 C 57.018 169.859, 49.781 177.260, 47.667 183.463 C 41.198 202.450, 53.964 221, 73.500 221 C 89.108 221, 101 209.108, 101 193.500 C 101 177.670, 88.965 165.854, 73.072 166.079 C 70.007 166.122, 65.499 166.864, 63.054 167.728 M 7.571 191.571 C 6.707 192.436, 6 193.529, 6 194 C 6 195.111, 8.889 198, 10 198 C 11.111 198, 14 195.111, 14 194 C 14 192.889, 11.111 190, 10 190 C 9.529 190, 8.436 190.707, 7.571 191.571 M 71.571 191.571 C 70.707 192.436, 70 193.529, 70 194 C 70 194.471, 70.707 195.564, 71.571 196.429 C 72.436 197.293, 73.529 198, 74 198 C 74.471 198, 75.564 197.293, 76.429 196.429 C 77.293 195.564, 78 194.471, 78 194 C 78 193.529, 77.293 192.436, 76.429 191.571 C 75.564 190.707, 74.471 190, 74 190 C 73.529 190, 72.436 190.707, 71.571 191.571 M 39.571 255.571 C 38.707 256.436, 38 257.529, 38 258 C 38 258.471, 38.707 259.564, 39.571 260.429 C 40.936 261.793, 45.463 262, 74 262 C 102.537 262, 107.064 261.793, 108.429 260.429 C 109.293 259.564, 110 258.471, 110 258 C 110 257.529, 109.293 256.436, 108.429 255.571 C 107.064 254.207, 102.537 254, 74 254 C 45.463 254, 40.936 254.207, 39.571 255.571 " stroke="none" fill="black" fill-rule="evenodd"/>
</svg>