<svg xmlns="http://www.w3.org/2000/svg" width="308" height="324" viewBox="0 0 308 324" version="1.1">
	<path d="M 215.724 63.134 C 214.776 63.665, 214.020 64.865, 214.045 65.800 C 214.070 66.735, 218.007 75.150, 222.795 84.500 C 229.673 97.932, 231.920 101.500, 233.500 101.500 C 235.080 101.500, 237.327 97.932, 244.205 84.500 C 248.993 75.150, 252.930 66.728, 252.955 65.785 C 253.019 63.342, 249.691 61.754, 247.725 63.289 C 246.872 63.955, 243.314 70.248, 239.818 77.273 L 233.462 90.047 226.981 76.932 C 223.416 69.719, 219.813 63.447, 218.974 62.994 C 218.132 62.539, 216.676 62.602, 215.724 63.134 M 263.724 63.134 C 259.838 65.309, 263.294 70.983, 267.224 68.880 C 268.201 68.357, 269 67.061, 269 66 C 269 63.485, 266.005 61.858, 263.724 63.134 M 7.572 127.571 C 5.598 129.545, 5.598 130.455, 7.571 132.429 C 8.538 133.395, 10.888 134, 13.677 134 C 32.327 134, 53.964 148.577, 62.809 167.101 C 67.167 176.226, 69 183.322, 69 191.062 C 69 195.240, 67.816 198.390, 61.515 210.970 C 57.398 219.190, 54.283 226.574, 54.592 227.380 C 55.449 229.612, 58.100 230.219, 59.895 228.594 C 60.778 227.795, 64.185 221.709, 67.467 215.070 C 70.748 208.432, 73.687 203, 73.997 203 C 74.308 203, 77.453 208.837, 80.986 215.972 C 84.520 223.106, 88.050 229.189, 88.832 229.489 C 90.717 230.212, 93 228.227, 93 225.865 C 93 224.826, 89.625 217.236, 85.500 209 C 79.287 196.594, 78 193.201, 78 189.223 C 78 177.643, 84.296 162.974, 93.500 153.108 C 104.046 141.805, 116.888 135.385, 131.395 134.164 C 140.026 133.438, 142.607 131.735, 140.363 128.250 C 138.217 124.918, 121.182 127.236, 109.669 132.427 C 94.723 139.166, 79.892 154.851, 74.930 169.167 L 73.659 172.833 69.203 163.719 C 61.092 147.127, 43.839 132.974, 26.500 128.690 C 16.318 126.175, 9.379 125.764, 7.572 127.571 M 199.244 159.256 C 180.960 177.546, 166 193.280, 166 194.220 C 166 195.160, 166.953 196.440, 168.119 197.063 C 170.061 198.103, 172.865 195.573, 201.865 166.616 L 233.493 135.034 265.130 166.614 C 294.124 195.556, 296.944 198.100, 298.884 197.062 C 300.048 196.439, 301 195.155, 301 194.209 C 301 192.424, 235.256 126, 233.489 126 C 232.939 126, 217.529 140.965, 199.244 159.256 " stroke="none" fill="black" fill-rule="evenodd"/>
</svg>