<svg xmlns="http://www.w3.org/2000/svg" width="244" height="324" viewBox="0 0 244 324" version="1.1">
	<path d="M 167.750 127.057 C 164.707 128.869, 165.807 131.236, 172.876 138.084 C 184.924 149.756, 192.231 162.764, 195.412 178.208 C 200.625 203.510, 192.525 229.771, 173.908 247.932 L 167.687 254 136.415 254 C 109.319 254, 104.933 254.210, 103.571 255.571 C 101.596 257.546, 101.598 258.455, 103.579 260.436 C 104.990 261.847, 112.058 261.987, 170.220 261.757 C 230.934 261.517, 235.356 261.383, 236.386 259.750 C 237.191 258.474, 237.191 257.526, 236.387 256.250 C 235.413 254.704, 233.140 254.468, 216.895 254.226 L 198.506 253.953 204.003 250.824 C 211.691 246.447, 222.896 234.879, 227.551 226.513 C 238.982 205.964, 238.987 181.091, 227.564 160.487 C 219.535 146.004, 202.218 132.591, 186.500 128.680 C 177.892 126.538, 169.799 125.837, 167.750 127.057 M 186.411 142.061 C 210.054 172.278, 210.054 214.722, 186.411 244.939 L 180.712 252.222 184.106 251.522 C 185.973 251.137, 191.244 249.034, 195.820 246.849 C 211.080 239.561, 222.717 225.245, 227.003 208.489 C 234.032 181.004, 220.845 152.103, 195.820 140.151 C 191.244 137.966, 185.973 135.863, 184.106 135.478 L 180.712 134.778 186.411 142.061 M 33.384 159.357 C 15.361 163.923, 3.562 181.820, 6.987 199.396 C 9.923 214.467, 20.510 225.032, 35.660 228.013 C 51.154 231.061, 68.354 221.287, 74.043 206.202 C 76.983 198.405, 76.941 188.485, 73.934 180.507 C 68.097 165.023, 49.437 155.290, 33.384 159.357 M 31.054 167.728 C 25.018 169.859, 17.781 177.260, 15.667 183.463 C 11.995 194.241, 14.382 205.477, 21.952 213.048 C 32.402 223.497, 49.888 223.773, 60.280 213.653 C 66.701 207.401, 68.500 202.989, 68.500 193.500 C 68.500 184.011, 66.701 179.599, 60.280 173.347 C 53.109 166.363, 41.332 164.099, 31.054 167.728 M 39.571 191.571 C 38.707 192.436, 38 193.529, 38 194 C 38 195.111, 40.889 198, 42 198 C 43.111 198, 46 195.111, 46 194 C 46 192.889, 43.111 190, 42 190 C 41.529 190, 40.436 190.707, 39.571 191.571 M 7.571 255.571 C 6.707 256.436, 6 257.529, 6 258 C 6 258.471, 6.707 259.564, 7.571 260.429 C 8.936 261.793, 13.463 262, 42 262 C 70.537 262, 75.064 261.793, 76.429 260.429 C 77.293 259.564, 78 258.471, 78 258 C 78 257.529, 77.293 256.436, 76.429 255.571 C 75.064 254.207, 70.537 254, 42 254 C 13.463 254, 8.936 254.207, 7.571 255.571 " stroke="none" fill="black" fill-rule="evenodd"/>
</svg>