<svg xmlns="http://www.w3.org/2000/svg" width="468" height="324" viewBox="0 0 468 324" version="1.1">
	<path d="M 39.571 127.571 C 38.288 128.855, 38 131.788, 38 143.571 L 38 158 23.571 158 C 11.788 158, 8.855 158.288, 7.571 159.571 C 5.598 161.545, 5.598 162.455, 7.571 164.429 C 8.855 165.712, 11.788 166, 23.571 166 L 38 166 38 194 L 38 222 23.571 222 C 11.788 222, 8.855 222.288, 7.571 223.571 C 6.707 224.436, 6 225.529, 6 226 C 6 226.471, 6.707 227.564, 7.571 228.429 C 8.855 229.712, 11.788 230, 23.571 230 L 38 230 38 244.429 C 38 256.212, 38.288 259.145, 39.571 260.429 C 40.436 261.293, 41.529 262, 42 262 C 42.471 262, 43.564 261.293, 44.429 260.429 C 45.712 259.145, 46 256.212, 46 244.429 L 46 230 74 230 L 102 230 102 244.429 C 102 256.212, 102.288 259.145, 103.571 260.429 C 105.545 262.402, 106.455 262.402, 108.429 260.429 C 109.712 259.145, 110 256.212, 110 244.429 L 110 230 124.429 230 C 136.212 230, 139.145 229.712, 140.429 228.429 C 142.402 226.455, 142.402 225.545, 140.429 223.571 C 139.145 222.288, 136.212 222, 124.429 222 L 110 222 110 194 L 110 166 124.429 166 C 136.212 166, 139.145 165.712, 140.429 164.429 C 142.402 162.455, 142.402 161.545, 140.429 159.571 C 139.145 158.288, 136.212 158, 124.429 158 L 110 158 110 143.571 C 110 131.788, 109.712 128.855, 108.429 127.571 C 106.455 125.598, 105.545 125.598, 103.571 127.571 C 102.288 128.855, 102 131.788, 102 143.571 L 102 158 74 158 L 46 158 46 143.571 C 46 131.788, 45.712 128.855, 44.429 127.571 C 43.564 126.707, 42.471 126, 42 126 C 41.529 126, 40.436 126.707, 39.571 127.571 M 199.230 159.285 C 180.953 177.591, 166 193.084, 166 193.713 C 166 195.191, 168.808 198, 170.285 198 C 170.913 198, 185.506 183.947, 202.713 166.771 L 234 135.542 265.287 166.771 C 282.494 183.947, 297.087 198, 297.715 198 C 299.192 198, 302 195.191, 302 193.713 C 302 191.963, 235.757 126, 234 126 C 233.153 126, 217.506 140.978, 199.230 159.285 M 327.571 127.571 C 326.175 128.968, 326 136.372, 326 194 C 326 251.628, 326.175 259.032, 327.571 260.429 C 328.436 261.293, 329.529 262, 330 262 C 330.471 262, 331.564 261.293, 332.429 260.429 C 333.788 259.069, 334 254.758, 334 228.429 L 334 198 394 198 L 454 198 454 228.429 C 454 254.758, 454.212 259.069, 455.571 260.429 C 457.545 262.402, 458.455 262.402, 460.429 260.429 C 461.825 259.032, 462 251.594, 462 193.629 C 462 126.176, 461.990 126, 458.044 126 C 457.188 126, 442.094 140.400, 424.500 158 L 392.512 190 363.256 190 L 334 190 334 159.571 C 334 133.242, 333.788 128.931, 332.429 127.571 C 331.564 126.707, 330.471 126, 330 126 C 329.529 126, 328.436 126.707, 327.571 127.571 M 428.500 165 L 403.515 190 428.758 190 L 454 190 454 165 C 454 151.250, 453.884 140, 453.742 140 C 453.601 140, 442.242 151.250, 428.500 165 M 46 194 L 46 222 74 222 L 102 222 102 194 L 102 166 74 166 L 46 166 46 194 " stroke="none" fill="black" fill-rule="evenodd"/>
</svg>