<svg xmlns="http://www.w3.org/2000/svg" width="244" height="324" viewBox="0 0 244 324" version="1.1">
	<path d="M 103.207 127.193 C 102.543 127.857, 102 129.096, 102 129.947 C 102 130.798, 129.561 159.058, 163.247 192.747 L 224.494 254 164.818 254 C 111.901 254, 104.965 254.178, 103.571 255.571 C 102.707 256.436, 102 257.529, 102 258 C 102 258.471, 102.707 259.564, 103.571 260.429 C 104.968 261.825, 112.372 262, 170 262 C 227.628 262, 235.032 261.825, 236.429 260.429 C 237.293 259.564, 238 258.452, 238 257.957 C 238 257.462, 210.601 229.481, 177.113 195.778 L 116.226 134.500 175.754 134 C 231.043 133.536, 235.361 133.375, 236.386 131.750 C 237.191 130.474, 237.191 129.526, 236.386 128.250 C 235.356 126.617, 230.916 126.483, 169.848 126.243 C 119.786 126.046, 104.131 126.269, 103.207 127.193 M 39.571 159.571 C 38.707 160.436, 38 161.529, 38 162 C 38 163.111, 40.889 166, 42 166 C 43.111 166, 46 163.111, 46 162 C 46 160.889, 43.111 158, 42 158 C 41.529 158, 40.436 158.707, 39.571 159.571 M 7.571 191.571 C 6.707 192.436, 6 193.529, 6 194 C 6 194.471, 6.707 195.564, 7.571 196.429 C 8.936 197.793, 13.463 198, 42 198 C 70.537 198, 75.064 197.793, 76.429 196.429 C 77.293 195.564, 78 194.471, 78 194 C 78 193.529, 77.293 192.436, 76.429 191.571 C 75.064 190.207, 70.537 190, 42 190 C 13.463 190, 8.936 190.207, 7.571 191.571 M 39.571 223.571 C 38.707 224.436, 38 225.529, 38 226 C 38 227.111, 40.889 230, 42 230 C 43.111 230, 46 227.111, 46 226 C 46 224.889, 43.111 222, 42 222 C 41.529 222, 40.436 222.707, 39.571 223.571 " stroke="none" fill="black" fill-rule="evenodd"/>
</svg>