<svg xmlns="http://www.w3.org/2000/svg" width="148" height="324" viewBox="0 0 148 324" version="1.1">
	<path d="M 33.384 159.357 C 15.361 163.923, 3.562 181.820, 6.987 199.396 C 9.923 214.467, 20.510 225.032, 35.660 228.013 C 51.129 231.056, 68.389 221.266, 74.002 206.266 C 76.889 198.550, 76.845 188.335, 73.893 180.443 C 68.130 165.041, 49.410 155.297, 33.384 159.357 M 31.054 167.728 C 25.018 169.859, 17.781 177.260, 15.667 183.463 C 9.189 202.476, 21.963 221, 41.552 221 C 56.843 221, 69 208.819, 69 193.500 C 69 182.038, 61.486 171.200, 50.965 167.488 C 45.610 165.598, 36.784 165.705, 31.054 167.728 M 39.571 191.571 C 38.707 192.436, 38 193.529, 38 194 C 38 195.111, 40.889 198, 42 198 C 43.111 198, 46 195.111, 46 194 C 46 192.889, 43.111 190, 42 190 C 41.529 190, 40.436 190.707, 39.571 191.571 M 115.558 191.492 C 110.025 193.463, 106.966 195.986, 104.569 200.557 C 102.716 204.088, 102.468 206.576, 102.191 224.368 C 101.883 244.095, 101.900 244.276, 104.515 249.620 C 108.630 258.030, 117.517 262.276, 126.166 259.963 C 131.584 258.515, 138.079 252.018, 139.777 246.349 C 141.667 240.040, 141.413 209.569, 139.421 203.724 C 137.530 198.171, 131.735 192.576, 126.321 191.072 C 121.483 189.729, 120.387 189.772, 115.558 191.492 M 113.886 200.811 C 109.977 204.303, 109.125 208.789, 109.103 226 C 109.082 242.255, 109.963 246.685, 113.922 250.222 C 117.540 253.454, 124.086 254.029, 127.783 251.439 C 132.830 247.904, 133.500 244.865, 133.500 225.500 C 133.500 206.135, 132.830 203.096, 127.783 199.561 C 124.068 196.959, 117.540 197.546, 113.886 200.811 M 7.585 255.558 C 6.713 256.430, 6 257.529, 6 258 C 6 258.471, 6.713 259.570, 7.585 260.442 C 8.978 261.835, 13.159 261.995, 42.226 261.763 C 72.452 261.523, 75.377 261.350, 76.386 259.750 C 77.191 258.474, 77.191 257.526, 76.386 256.250 C 75.377 254.650, 72.452 254.477, 42.226 254.237 C 13.159 254.005, 8.978 254.165, 7.585 255.558 " stroke="none" fill="black" fill-rule="evenodd"/>
</svg>