<svg xmlns="http://www.w3.org/2000/svg" width="724" height="324" viewBox="0 0 724 324" version="1.1">
	<path d="M 39.267 159.267 L 6 192.533 6 225.695 C 6 254.509, 6.206 259.063, 7.571 260.429 C 8.968 261.825, 16.372 262, 74 262 C 131.628 262, 139.032 261.825, 140.429 260.429 C 141.794 259.063, 142 254.509, 142 225.695 L 142 192.533 108.733 159.267 C 90.437 140.970, 74.807 126, 74 126 C 73.193 126, 57.563 140.970, 39.267 159.267 M 311.213 143.315 C 301.746 152.838, 294 161.131, 294 161.743 C 294 163.175, 296.813 166, 298.239 166 C 298.841 166, 305.334 160.059, 312.667 152.798 L 326 139.595 326 194 L 326 248.405 312.667 235.202 C 305.334 227.941, 298.841 222, 298.239 222 C 296.825 222, 294 224.820, 294 226.232 C 294 226.831, 299.512 232.922, 306.250 239.767 C 317.854 251.556, 318.316 252.178, 315 251.551 C 313.075 251.188, 307.675 249.043, 303 246.786 C 284.415 237.813, 270 216.361, 270 197.677 C 270 194.888, 269.395 192.538, 268.429 191.571 C 266.435 189.578, 265.547 189.596, 263.473 191.670 C 262.091 193.052, 261.924 194.470, 262.506 199.903 C 263.924 213.145, 268.673 224.722, 276.882 234.950 C 286.371 246.775, 299.831 255.521, 313 258.420 C 327.295 261.568, 329.543 261.845, 333.506 260.953 C 335.703 260.459, 340.425 259.509, 344 258.843 C 347.605 258.172, 354.508 255.644, 359.500 253.168 C 366.729 249.582, 370.106 247.086, 376.665 240.481 C 388.548 228.514, 394.241 216.199, 396.398 197.796 C 396.931 193.245, 395.517 190, 393 190 C 390.976 190, 389 193.414, 389 196.911 C 389 203.032, 385.266 215.832, 381.533 222.507 C 373.476 236.914, 361.207 246.387, 344 251.486 C 342.288 251.993, 345.363 248.300, 353.750 239.774 C 360.488 232.925, 366 226.831, 366 226.232 C 366 224.820, 363.175 222, 361.761 222 C 361.159 222, 354.666 227.941, 347.333 235.202 L 334 248.405 334 194 L 334 139.595 347.333 152.798 C 354.666 160.059, 361.159 166, 361.761 166 C 363.202 166, 366 163.168, 366 161.710 C 366 159.988, 331.671 126, 329.931 126 C 329.103 126, 320.680 133.792, 311.213 143.315 M 477.500 127.480 C 452.738 132.078, 433.466 149.056, 425.265 173.500 L 422.580 181.500 422.217 220.309 C 421.945 249.402, 422.153 259.480, 423.049 260.559 C 424.068 261.787, 433.920 262, 489.551 262 C 548.240 262, 555.020 261.837, 556.467 260.391 C 557.898 258.960, 558.032 255.110, 557.676 225.641 C 557.456 207.413, 556.771 189.374, 556.153 185.553 C 551.084 154.199, 528.539 131.395, 498.284 127.020 C 489.726 125.783, 486.223 125.861, 477.500 127.480 M 583.207 127.193 C 582.543 127.857, 582 129.096, 582 129.947 C 582 130.798, 609.561 159.058, 643.247 192.747 L 704.494 254 645.181 254 C 606.208 254, 585.205 254.355, 583.934 255.035 C 581.446 256.367, 581.446 259.633, 583.934 260.965 C 585.210 261.648, 607.818 262, 650.363 262 C 708.417 262, 715.019 261.839, 716.473 260.384 C 717.362 259.495, 717.957 258.384, 717.795 257.914 C 717.633 257.445, 690.050 229.484, 656.500 195.780 L 595.500 134.500 655.391 134 C 711.025 133.536, 715.361 133.376, 716.386 131.750 C 717.191 130.474, 717.191 129.526, 716.386 128.250 C 715.356 126.617, 710.916 126.483, 649.848 126.243 C 599.786 126.046, 584.131 126.269, 583.207 127.193 M 474.645 135.584 C 454.654 140.423, 436.831 158.195, 431.520 178.584 C 430.301 183.265, 430 191.307, 430 219.210 L 430 254 490.115 254 L 550.230 254 549.747 220.250 C 549.313 189.886, 549.050 185.708, 547.135 178.601 C 541.371 157.218, 524.907 140.946, 503.540 135.515 C 496.213 133.653, 482.488 133.685, 474.645 135.584 M 43.744 165.756 L 14 195.512 14 224.756 L 14 254 74 254 L 134 254 134 224.744 L 134 195.487 104.244 165.744 C 87.878 149.385, 74.263 136, 73.988 136 C 73.713 136, 60.103 149.390, 43.744 165.756 M 167.571 159.571 C 166.707 160.436, 166 161.640, 166 162.249 C 166 162.857, 172.844 170.250, 181.208 178.677 L 196.416 194 181.208 209.323 C 172.844 217.750, 166 225.143, 166 225.751 C 166 227.200, 168.827 230, 170.290 230 C 171.969 230, 206 195.693, 206 194 C 206 192.307, 171.969 158, 170.290 158 C 169.659 158, 168.436 158.707, 167.571 159.571 M 199.571 159.571 C 198.707 160.436, 198 161.640, 198 162.249 C 198 162.857, 204.844 170.250, 213.208 178.677 L 228.416 194 213.208 209.323 C 204.844 217.750, 198 225.143, 198 225.751 C 198 227.200, 200.827 230, 202.290 230 C 203.969 230, 238 195.693, 238 194 C 238 192.307, 203.969 158, 202.290 158 C 201.659 158, 200.436 158.707, 199.571 159.571 " stroke="none" fill="black" fill-rule="evenodd"/>
</svg>