<svg xmlns="http://www.w3.org/2000/svg" width="148" height="324" viewBox="0 0 148 324" version="1.1">
	<path d="M 39.571 63.571 C 38.707 64.436, 38 65.317, 38 65.531 C 38 66.993, 55.421 100.653, 56.488 101.252 C 57.225 101.665, 58.440 101.768, 59.188 101.481 C 60.837 100.849, 77 68.755, 77 66.115 C 77 63.770, 74.710 61.790, 72.832 62.511 C 72.050 62.811, 68.520 68.894, 64.986 76.028 C 61.453 83.163, 58.306 89, 57.994 89 C 57.683 89, 54.969 83.984, 51.964 77.854 C 46.437 66.580, 43.559 62, 41.999 62 C 41.528 62, 40.436 62.707, 39.571 63.571 M 112.046 150.387 L 87.500 174.774 82.313 169.358 C 62.561 148.738, 28.791 158.986, 23.008 187.357 C 20.681 198.769, 25.268 211.779, 34.391 219.646 L 38.860 223.500 22.430 240.067 C 13.393 249.178, 6 257.134, 6 257.745 C 6 259.185, 8.818 262, 10.258 262 C 10.872 262, 19.295 254.123, 28.977 244.495 L 46.580 226.990 52.086 228.008 C 58.391 229.174, 65.648 228.134, 72.567 225.073 C 78.260 222.555, 85.925 214.845, 89.043 208.500 C 91.199 204.112, 91.506 202.118, 91.550 192.208 L 91.599 180.916 116.300 156.200 C 129.885 142.607, 141 130.791, 141 129.943 C 141 128.196, 139.104 126, 137.596 126 C 137.044 126, 125.546 136.974, 112.046 150.387 M 47.627 167.468 C 42.247 169.386, 37.039 173.829, 33.500 179.519 C 30.736 183.963, 30.500 185.064, 30.500 193.500 C 30.500 201.936, 30.736 203.037, 33.500 207.481 C 35.150 210.134, 38.204 213.678, 40.286 215.357 L 44.072 218.408 62.982 199.518 L 81.893 180.627 80.196 177.716 C 77.909 173.790, 72.098 169.299, 66.965 167.488 C 61.743 165.645, 52.766 165.636, 47.627 167.468 M 68.162 204.750 L 53.132 220.500 57.669 220.809 C 67.597 221.485, 77.013 215.664, 81.940 205.804 C 84.207 201.268, 85 198.296, 85 194.340 C 85 191.403, 84.593 189, 84.096 189 C 83.598 189, 76.428 196.088, 68.162 204.750 M 55.616 191.527 C 54.727 192.416, 54 193.529, 54 194 C 54 195.389, 57.140 198.120, 58.295 197.735 C 60.395 197.035, 61.549 194.094, 60.423 192.310 C 58.905 189.902, 57.474 189.669, 55.616 191.527 " stroke="none" fill="black" fill-rule="evenodd"/>
</svg>