<svg xmlns="http://www.w3.org/2000/svg" width="403" height="324" viewBox="0 0 403 324" version="1.1">
	<path d="M 7.627 127.515 C 6.732 128.411, 6 129.529, 6 130 C 6 132.122, 9.426 134.001, 13.321 134.015 C 31.886 134.080, 53.672 148.320, 62.330 166.046 C 66.690 174.975, 69 183.519, 69 190.723 C 69 195.322, 68.008 198.005, 61.515 210.970 C 54.288 225.399, 53.532 228.223, 56.577 229.391 C 59.364 230.461, 60.668 228.784, 67.014 215.972 C 70.547 208.837, 73.691 203, 74 203 C 74.309 203, 77.453 208.837, 80.986 215.972 C 84.520 223.106, 88.050 229.189, 88.832 229.489 C 90.717 230.212, 93 228.227, 93 225.865 C 93 224.826, 89.625 217.236, 85.500 209 C 77.207 192.441, 76.646 189.618, 79.487 178.711 C 85.940 153.936, 110.164 134.092, 134.050 134.015 C 138.831 133.999, 141 132.722, 141 129.922 C 141 126.350, 138.591 125.734, 129.412 126.955 C 119.515 128.272, 110.250 131.487, 102.131 136.423 C 91.157 143.093, 79.122 157.257, 75.311 167.988 L 73.683 172.570 69.260 163.734 C 60.434 146.105, 44.614 133.199, 26.202 128.608 C 15.985 126.061, 9.466 125.677, 7.627 127.515 M 263.750 127.076 C 261.417 128.440, 261.526 131.676, 263.948 132.972 C 265.256 133.672, 287.132 133.930, 330.589 133.757 C 390.951 133.517, 395.356 133.383, 396.386 131.750 C 397.191 130.474, 397.191 129.526, 396.386 128.250 C 395.356 126.616, 390.963 126.485, 330.391 126.276 C 287.547 126.129, 264.905 126.400, 263.750 127.076 M 194.355 158.986 C 183.790 161.214, 174.114 169.146, 169.329 179.500 C 167.026 184.484, 166.558 186.854, 166.565 193.500 C 166.577 203.515, 169.873 211.488, 176.824 218.311 C 190.305 231.544, 211.416 231.936, 224.828 219.201 C 227.551 216.616, 231.066 212.025, 232.639 209 C 235.228 204.021, 235.498 202.553, 235.498 193.500 C 235.498 184.447, 235.228 182.979, 232.639 178 C 225.345 163.972, 209.061 155.884, 194.355 158.986 M 191.885 167.380 C 180.704 171.375, 173.875 181.280, 173.875 193.500 C 173.875 208.910, 184.144 219.796, 199.616 220.789 C 206.399 221.224, 207.556 221.001, 213.397 218.125 C 225.374 212.229, 231.511 198.958, 228.096 186.337 C 224.933 174.647, 213.616 165.959, 201.663 166.044 C 198.273 166.068, 193.873 166.669, 191.885 167.380 M 199.750 191.080 C 197.372 192.465, 197.542 195.685, 200.064 197.034 C 203.753 199.008, 206.819 194.219, 203.800 191.200 C 202.367 189.767, 202.022 189.757, 199.750 191.080 M 167.750 255.073 C 165.413 256.444, 165.527 259.677, 167.960 260.979 C 169.243 261.665, 181.208 261.936, 202.601 261.764 C 232.469 261.523, 235.378 261.349, 236.386 259.750 C 237.191 258.474, 237.191 257.526, 236.386 256.250 C 235.377 254.649, 232.483 254.481, 202.391 254.273 C 181.280 254.127, 168.873 254.414, 167.750 255.073 " stroke="none" fill="black" fill-rule="evenodd"/>
</svg>