<svg xmlns="http://www.w3.org/2000/svg" width="308" height="324" viewBox="0 0 308 324" version="1.1">
	<path d="M 40.316 62.784 C 38.369 64.022, 22.007 97.855, 22.604 99.410 C 23.269 101.144, 25.524 102.120, 27.295 101.440 C 28.007 101.167, 31.480 95.106, 35.014 87.972 C 38.547 80.837, 41.691 75, 42 75 C 42.309 75, 45.453 80.837, 48.986 87.972 C 52.520 95.106, 55.993 101.167, 56.705 101.440 C 58.487 102.124, 60.732 101.141, 61.407 99.381 C 61.997 97.844, 45.582 64.037, 43.628 62.765 C 42.214 61.845, 41.789 61.847, 40.316 62.784 M 103.571 127.571 C 102.707 128.436, 102 129.529, 102 130 C 102 130.471, 102.707 131.564, 103.571 132.429 C 104.966 133.823, 112.015 134, 166.071 134 C 199.582 134, 227 134.223, 227 134.495 C 227 134.768, 220.816 147.368, 213.258 162.495 L 199.517 190 184.693 190 C 169.298 190, 166 190.706, 166 194 C 166 197.203, 169.276 198, 182.434 198 C 189.345 198, 195 198.223, 195 198.496 C 195 198.768, 188.365 212.269, 180.257 228.498 C 168.169 252.690, 165.712 258.320, 166.616 259.752 C 167.629 261.360, 170.432 261.500, 201.500 261.500 C 232.586 261.500, 235.370 261.360, 236.386 259.750 C 237.191 258.474, 237.191 257.526, 236.386 256.250 C 235.382 254.658, 232.613 254.476, 205.645 254.235 L 176.008 253.970 190.007 225.985 L 204.007 198 246.240 198 L 288.472 198 275.236 211.263 C 267.956 218.558, 262 225.292, 262 226.228 C 262 227.164, 262.960 228.443, 264.133 229.071 C 266.084 230.115, 267.752 228.729, 283.633 212.867 C 293.185 203.327, 301 194.837, 301 194 C 301 193.163, 293.185 184.673, 283.633 175.133 C 267.752 159.271, 266.084 157.885, 264.133 158.929 C 262.960 159.557, 262 160.836, 262 161.772 C 262 162.708, 267.956 169.442, 275.236 176.737 L 288.472 190 248.294 190 L 208.116 190 212.443 180.678 C 214.822 175.551, 221.321 162.321, 226.885 151.278 C 232.448 140.235, 237 130.570, 237 129.800 C 237 126.035, 236.374 126, 169.871 126 C 112.361 126, 104.968 126.175, 103.571 127.571 M 33.384 159.357 C 15.361 163.923, 3.562 181.820, 6.987 199.396 C 9.923 214.467, 20.510 225.032, 35.660 228.013 C 51.154 231.061, 68.354 221.287, 74.043 206.202 C 76.983 198.405, 76.941 188.485, 73.934 180.507 C 68.097 165.023, 49.437 155.290, 33.384 159.357 M 31.054 167.728 C 25.018 169.859, 17.781 177.260, 15.667 183.463 C 9.189 202.476, 21.963 221, 41.552 221 C 56.843 221, 69 208.819, 69 193.500 C 69 182.038, 61.486 171.200, 50.965 167.488 C 45.610 165.598, 36.784 165.705, 31.054 167.728 " stroke="none" fill="black" fill-rule="evenodd"/>
</svg>