<svg xmlns="http://www.w3.org/2000/svg" width="308" height="324" viewBox="0 0 308 324" version="1.1">
	<path d="M 72.316 62.784 C 70.369 64.022, 54.007 97.855, 54.604 99.410 C 55.450 101.615, 58.110 102.210, 59.895 100.594 C 60.778 99.795, 64.185 93.709, 67.467 87.070 C 70.748 80.432, 73.687 75, 73.997 75 C 74.308 75, 77.453 80.837, 80.986 87.972 C 84.520 95.106, 88.050 101.189, 88.832 101.489 C 90.716 102.212, 93 100.227, 93 97.866 C 93 95.626, 77.264 63.831, 75.628 62.765 C 74.214 61.845, 73.789 61.847, 72.316 62.784 M 71.571 127.571 C 70.178 128.965, 70 135.897, 70 188.774 L 70 248.405 56.667 235.202 C 49.334 227.941, 42.841 222, 42.239 222 C 40.825 222, 38 224.820, 38 226.232 C 38 226.831, 43.512 232.922, 50.250 239.767 C 61.854 251.556, 62.316 252.178, 59 251.551 C 57.075 251.188, 51.675 249.043, 47 246.786 C 28.415 237.813, 14 216.361, 14 197.677 C 14 194.888, 13.395 192.538, 12.429 191.571 C 10.444 189.587, 9.546 189.597, 7.515 191.627 C 4.472 194.671, 7.724 211.409, 13.807 224 C 16.625 229.833, 19.438 233.508, 26.465 240.535 C 36.770 250.839, 45.643 255.880, 58.182 258.555 C 62.207 259.413, 67.300 260.507, 69.500 260.986 C 71.813 261.490, 75.187 261.477, 77.500 260.956 C 79.700 260.460, 84.425 259.509, 88 258.843 C 91.642 258.165, 98.427 255.671, 103.431 253.169 C 119.881 244.949, 132.500 229.667, 137.719 211.649 C 141.018 200.260, 140.616 190, 136.871 190 C 134.965 190, 133 193.509, 133 196.911 C 133 203.127, 129.245 215.866, 125.340 222.899 C 119.913 232.674, 109.977 241.998, 99.820 246.849 C 95.244 249.034, 89.925 251.129, 88 251.505 C 84.699 252.148, 85.197 251.484, 96.750 239.829 C 103.487 233.032, 109 226.780, 109 225.936 C 109 224.213, 107.106 222, 105.633 222 C 105.101 222, 98.666 227.941, 91.333 235.202 L 78 248.405 78 189.425 C 78 137.662, 77.810 130.173, 76.443 128.223 C 74.598 125.588, 73.678 125.465, 71.571 127.571 M 167.750 127.080 C 166.111 128.035, 166 132.293, 166 194.015 C 166 259.587, 166.011 259.935, 168.064 261.034 C 172.351 263.329, 172.933 261.210, 173.227 242.230 L 173.500 224.668 177.269 230.347 C 203.893 270.464, 262.614 270.401, 288.988 230.227 L 294 222.593 294 241.261 C 294 258.121, 294.172 260.022, 295.776 260.880 C 296.902 261.483, 298.182 261.478, 299.276 260.866 C 300.881 259.967, 301 255.347, 301 194 C 301 132.653, 300.881 128.033, 299.276 127.134 C 298.182 126.522, 296.902 126.517, 295.776 127.120 C 294.172 127.978, 294 129.881, 294 146.770 L 294 165.470 291.894 161.485 C 276.778 132.874, 241.097 119.286, 210.371 130.439 C 197.366 135.160, 185.071 144.897, 177.269 156.653 L 173.500 162.332 173.225 145.489 C 172.918 126.653, 172.263 124.452, 167.750 127.080 M 218 135.579 C 207.816 138.259, 200.019 142.918, 191.411 151.467 C 178.784 164.007, 174.024 175.514, 174.024 193.500 C 174.024 211.480, 178.782 222.985, 191.411 235.543 C 204.669 248.725, 217.395 253.631, 235.988 252.725 C 248.298 252.126, 255.893 249.808, 265.145 243.828 C 279.815 234.346, 289.173 219.719, 292.385 201.250 L 292.950 198 262.675 198 C 240.461 198, 232.080 197.680, 231.200 196.800 C 230.319 195.919, 230 187.422, 230 164.800 L 230 134 226.750 134.066 C 224.963 134.102, 221.025 134.783, 218 135.579 M 237 161.864 L 237 190 265.045 190 L 293.091 190 292.464 186.250 C 287.825 158.510, 267.668 137.890, 241.750 134.373 L 237 133.728 237 161.864 " stroke="none" fill="black" fill-rule="evenodd"/>
</svg>