<svg xmlns="http://www.w3.org/2000/svg" width="244" height="324" viewBox="0 0 244 324" version="1.1">
	<path d="M 103.571 127.571 C 102.707 128.436, 102 129.657, 102 130.285 C 102 130.913, 116.057 145.510, 133.238 162.723 L 164.476 194.019 137.238 221.257 L 110 248.495 110 221.470 C 110 198.629, 109.759 194.101, 108.443 192.223 C 106.598 189.588, 105.678 189.465, 103.571 191.571 C 102.206 192.937, 102 197.512, 102 226.536 C 102 258.528, 102.081 259.973, 103.934 260.965 C 104.998 261.534, 106.040 262, 106.250 262 C 106.460 262, 120.768 247.819, 138.046 230.486 L 169.460 198.971 201.096 230.596 C 227.927 257.417, 233.056 262.117, 234.866 261.543 C 236.040 261.170, 237.012 260.108, 237.026 259.183 C 237.430 232.980, 236.727 192.377, 235.852 191.321 C 234.423 189.600, 233.488 189.655, 231.571 191.571 C 230.217 192.926, 230 197.038, 230 221.319 L 230 249.495 202.254 221.750 L 174.508 194.004 205.754 162.746 C 222.939 145.554, 237 130.793, 237 129.944 C 237 128.191, 235.103 126, 233.586 126 C 233.029 126, 218.375 140.172, 201.023 157.493 L 169.474 188.985 137.993 157.493 C 120.678 140.172, 106.204 126, 105.827 126 C 105.451 126, 104.436 126.707, 103.571 127.571 M 40.370 190.765 C 38.401 192.045, 6.007 257.855, 6.594 259.384 C 7.265 261.133, 9.512 262.124, 11.274 261.448 C 11.975 261.180, 19.056 247.919, 27.010 231.980 C 34.964 216.041, 41.710 203, 42 203 C 42.290 203, 49.036 216.041, 56.990 231.980 C 64.944 247.919, 72.083 261.201, 72.853 261.497 C 74.717 262.213, 77 260.217, 77 257.871 C 77 255.637, 45.272 191.833, 43.630 190.765 C 43.009 190.361, 42.275 190.031, 42 190.031 C 41.725 190.031, 40.991 190.361, 40.370 190.765 " stroke="none" fill="black" fill-rule="evenodd"/>
</svg>