<svg xmlns="http://www.w3.org/2000/svg" width="468" height="324" viewBox="0 0 468 324" version="1.1">
	<path d="M 264.369 62.765 C 263.416 63.384, 198 193.155, 198 194.426 C 198 194.663, 198.707 195.564, 199.571 196.429 C 200.844 197.701, 203.697 198, 214.575 198 L 228.006 198 213.003 227.994 C 204.751 244.490, 198 258.183, 198 258.422 C 198 258.661, 198.707 259.564, 199.571 260.429 C 200.968 261.825, 208.372 262, 266 262 C 323.628 262, 331.032 261.825, 332.429 260.429 C 333.293 259.564, 334 258.661, 334 258.422 C 334 258.183, 327.249 244.490, 318.997 227.994 L 303.994 198 317.425 198 C 328.303 198, 331.156 197.701, 332.429 196.429 C 333.293 195.564, 334 194.663, 334 194.426 C 334 193.155, 268.584 63.384, 267.631 62.765 C 267.009 62.361, 266.275 62.031, 266 62.031 C 265.725 62.031, 264.991 62.361, 264.369 62.765 M 236.747 132.500 L 208.002 190 220.003 190 L 232.004 190 247.736 158.517 C 256.389 141.202, 264.038 126.816, 264.734 126.549 C 265.430 126.281, 266.570 126.281, 267.266 126.549 C 267.962 126.816, 275.611 141.202, 284.264 158.517 L 299.996 190 311.997 190 L 323.998 190 295.253 132.500 C 279.443 100.875, 266.279 75, 266 75 C 265.721 75, 252.557 100.875, 236.747 132.500 M 236.747 196.500 L 208.002 254 266 254 L 323.998 254 295.253 196.500 C 279.443 164.875, 266.279 139, 266 139 C 265.721 139, 252.557 164.875, 236.747 196.500 M 33.384 159.412 C 15.475 163.758, 3.559 181.807, 6.987 199.396 C 12.338 226.857, 44.320 237.903, 64.901 219.399 C 73.749 211.444, 78.194 198.748, 76.013 187.660 C 73.149 173.102, 63.256 162.681, 49.147 159.360 C 42.397 157.772, 40.111 157.779, 33.384 159.412 M 103.571 159.571 C 102.707 160.436, 102 161.640, 102 162.249 C 102 162.857, 108.844 170.250, 117.208 178.677 L 132.416 194 117.208 209.323 C 108.844 217.750, 102 225.143, 102 225.751 C 102 227.200, 104.827 230, 106.290 230 C 107.969 230, 142 195.693, 142 194 C 142 192.307, 107.969 158, 106.290 158 C 105.659 158, 104.436 158.707, 103.571 159.571 M 167.571 159.571 C 166.207 160.936, 166 165.463, 166 194 C 166 222.537, 166.207 227.064, 167.571 228.429 C 169.545 230.402, 170.455 230.402, 172.429 228.429 C 173.793 227.064, 174 222.537, 174 194 C 174 165.463, 173.793 160.936, 172.429 159.571 C 171.564 158.707, 170.471 158, 170 158 C 169.529 158, 168.436 158.707, 167.571 159.571 M 31.054 167.728 C 25.018 169.859, 17.781 177.260, 15.667 183.463 C 11.995 194.241, 14.382 205.477, 21.952 213.048 C 32.673 223.769, 50.327 223.769, 61.048 213.048 C 71.769 202.327, 71.769 184.673, 61.048 173.952 C 53.519 166.424, 41.696 163.970, 31.054 167.728 M 391.571 191.571 C 390.707 192.436, 390 193.529, 390 194 C 390 194.471, 390.707 195.564, 391.571 196.429 C 392.855 197.712, 395.788 198, 407.571 198 L 422 198 422 226 L 422 254 407.571 254 C 395.788 254, 392.855 254.288, 391.571 255.571 C 389.598 257.545, 389.598 258.455, 391.571 260.429 C 392.936 261.793, 397.463 262, 426 262 C 454.537 262, 459.064 261.793, 460.429 260.429 C 462.402 258.455, 462.402 257.545, 460.429 255.571 C 459.145 254.288, 456.212 254, 444.429 254 L 430 254 430 226 L 430 198 444.429 198 C 456.212 198, 459.145 197.712, 460.429 196.429 C 461.293 195.564, 462 194.471, 462 194 C 462 193.529, 461.293 192.436, 460.429 191.571 C 459.064 190.207, 454.537 190, 426 190 C 397.463 190, 392.936 190.207, 391.571 191.571 M 354.875 251.515 C 350.728 253.755, 350.461 259.659, 354.393 262.210 C 354.995 262.600, 355.348 264.248, 355.177 265.871 C 354.933 268.201, 355.343 268.974, 357.122 269.539 C 362.616 271.282, 367.476 256.011, 362.652 252.163 C 360.394 250.363, 357.461 250.118, 354.875 251.515 " stroke="none" fill="black" fill-rule="evenodd"/>
</svg>