<svg xmlns="http://www.w3.org/2000/svg" width="148" height="324" viewBox="0 0 148 324" version="1.1">
	<path d="M 55.200 63.200 C 53.512 64.888, 53.512 99.112, 55.200 100.800 C 56.040 101.640, 61.562 102, 73.629 102 C 87.958 102, 91.122 101.736, 92.429 100.429 C 94.757 98.100, 94.757 65.900, 92.429 63.571 C 91.122 62.264, 87.958 62, 73.629 62 C 61.562 62, 56.040 62.360, 55.200 63.200 M 62 82 L 62 94 74 94 L 86 94 86 82 L 86 70 74 70 L 62 70 62 82 M 63.102 127.104 C 48.516 129.321, 35.328 136.577, 24.168 148.528 C 13.801 159.628, 8.225 172.265, 6.488 188.598 C 5.962 193.536, 6.153 195.010, 7.491 196.348 C 9.547 198.404, 10.439 198.418, 12.429 196.429 C 13.404 195.453, 14.006 193.082, 14.015 190.179 C 14.091 166.127, 34.559 141.323, 59.103 135.537 C 91.523 127.895, 123.871 147.778, 131.443 180 C 132.283 183.575, 132.977 188.622, 132.985 191.215 C 132.997 194.946, 133.431 196.160, 135.064 197.034 C 142.986 201.274, 141.161 178.669, 132.196 161.516 C 126.915 151.410, 114.917 139.609, 104.500 134.271 C 91.374 127.546, 76.799 125.023, 63.102 127.104 " stroke="none" fill="black" fill-rule="evenodd"/>
</svg>