<svg xmlns="http://www.w3.org/2000/svg" width="244" height="324" viewBox="0 0 244 324" version="1.1">
	<path d="M 130.344 158.988 C 120.010 161.166, 109.930 169.366, 105.417 179.266 C 101.446 187.975, 101.356 198.913, 105.189 207.175 C 110.358 218.320, 119.718 225.697, 131.635 228.019 C 146.456 230.908, 162.062 222.659, 169.203 208.162 C 171.135 204.241, 171.500 201.911, 171.500 193.500 C 171.500 181.464, 169.483 176.393, 161.518 168.404 C 153.736 160.597, 140.983 156.745, 130.344 158.988 M 127.627 167.468 C 122.247 169.386, 117.039 173.829, 113.500 179.519 C 110.969 183.589, 110.444 185.570, 110.143 192.193 C 109.830 199.089, 110.110 200.705, 112.454 205.496 C 117.309 215.419, 126.653 221.078, 137.928 220.924 C 148.142 220.784, 156.647 215.739, 161.500 206.939 C 164.130 202.171, 164.500 200.513, 164.500 193.500 C 164.500 186.487, 164.130 184.829, 161.500 180.061 C 158.429 174.492, 152.651 169.526, 146.684 167.326 C 142.327 165.720, 132.323 165.794, 127.627 167.468 M 7.571 191.571 C 6.707 192.436, 6 193.640, 6 194.249 C 6 194.857, 12.844 202.250, 21.208 210.677 L 36.416 226 21.208 241.323 C 12.844 249.750, 6 257.143, 6 257.751 C 6 259.181, 8.819 262, 10.249 262 C 10.857 262, 18.250 255.156, 26.677 246.792 L 42 231.584 57.323 246.792 C 65.750 255.156, 73.143 262, 73.751 262 C 75.181 262, 78 259.181, 78 257.751 C 78 257.143, 71.156 249.750, 62.792 241.323 L 47.584 226 62.792 210.677 C 71.156 202.250, 78 194.857, 78 194.249 C 78 192.819, 75.181 190, 73.751 190 C 73.143 190, 65.750 196.844, 57.323 205.208 L 42 220.416 26.677 205.208 C 18.250 196.844, 10.857 190, 10.249 190 C 9.640 190, 8.436 190.707, 7.571 191.571 M 207.230 199.269 C 202.154 204.367, 198 209.301, 198 210.234 C 198 211.166, 198.954 212.440, 200.120 213.064 C 202.004 214.073, 202.896 213.550, 208.120 208.381 L 214 202.563 214 228.281 L 214 254 207.934 254 C 201.019 254, 198 255.216, 198 258 C 198 261.473, 201.211 262.061, 218.622 261.774 C 233.221 261.534, 235.421 261.283, 236.387 259.750 C 237.189 258.477, 237.190 257.523, 236.390 256.250 C 235.542 254.901, 233.647 254.433, 228.109 254.205 L 220.927 253.911 221.044 222.814 C 221.190 183.906, 221.686 184.753, 207.230 199.269 M 103.585 255.558 C 102.713 256.430, 102 257.529, 102 258 C 102 258.471, 102.713 259.570, 103.585 260.442 C 104.978 261.835, 109.159 261.995, 138.226 261.763 C 168.452 261.523, 171.377 261.350, 172.386 259.750 C 173.191 258.474, 173.191 257.526, 172.386 256.250 C 171.377 254.650, 168.452 254.477, 138.226 254.237 C 109.159 254.005, 104.978 254.165, 103.585 255.558 " stroke="none" fill="black" fill-rule="evenodd"/>
</svg>