<svg xmlns="http://www.w3.org/2000/svg" width="436" height="324" viewBox="0 0 436 324" version="1.1">
	<path d="M 193.384 127.357 C 182.730 130.056, 174 137.453, 169.163 147.880 C 165.441 155.904, 165.452 167.118, 169.189 175.175 C 174.054 185.665, 184.158 194.042, 193.807 195.585 L 198 196.256 198 227.556 C 198 254.678, 198.210 259.067, 199.571 260.429 C 201.678 262.535, 202.598 262.412, 204.443 259.777 C 205.770 257.883, 206 253.015, 206 226.777 C 206 200.437, 206.211 196, 207.462 196 C 208.267 196, 211.529 195.028, 214.712 193.840 C 222.525 190.925, 230.957 182.402, 233.955 174.392 C 236.864 166.616, 236.864 156.384, 233.955 148.608 C 228.154 133.104, 209.424 123.294, 193.384 127.357 M 191.627 135.468 C 186.247 137.386, 181.039 141.829, 177.500 147.519 C 174.969 151.589, 174.444 153.570, 174.143 160.193 C 173.830 167.089, 174.110 168.705, 176.454 173.496 C 179.617 179.959, 185.485 185.296, 191.795 187.446 C 197.095 189.252, 206.110 189.360, 210.684 187.674 C 221.521 183.679, 229 172.991, 229 161.500 C 229 150.038, 221.486 139.200, 210.965 135.488 C 205.743 133.645, 196.766 133.636, 191.627 135.468 M 67.045 159.064 C 51.466 162.218, 39.110 176.089, 38.674 190.913 L 38.500 196.812 35.101 195.395 C 30.385 193.428, 21.563 191.309, 14.877 190.537 C 10.402 190.020, 8.923 190.220, 7.627 191.515 C 6.732 192.411, 6 193.529, 6 194 C 6 196.122, 9.426 198.001, 13.321 198.015 C 32.426 198.082, 53.897 212.438, 62.809 231.101 C 66.508 238.848, 69 247.279, 69 252.049 C 69 253.940, 68.082 254, 39.071 254 C 13.197 254, 8.930 254.213, 7.571 255.571 C 5.598 257.545, 5.598 258.455, 7.571 260.429 C 8.968 261.825, 16.372 262, 74 262 C 131.628 262, 139.032 261.825, 140.429 260.429 C 142.402 258.455, 142.402 257.545, 140.429 255.571 C 139.069 254.212, 134.758 254, 108.429 254 L 78 254 78 251.394 C 78 249.961, 78.713 246.024, 79.585 242.644 C 85.939 218.018, 110.316 198.090, 134.179 198.015 C 137.082 198.006, 139.453 197.404, 140.429 196.429 C 142.418 194.439, 142.404 193.547, 140.348 191.491 C 139.007 190.150, 137.549 189.964, 132.598 190.503 C 125.593 191.266, 116.829 193.338, 111.899 195.397 L 108.500 196.817 108.266 191.488 C 107.363 170.943, 87.099 155.003, 67.045 159.064 M 290.344 158.988 C 280.010 161.166, 269.930 169.366, 265.417 179.266 C 261.361 188.161, 261.361 198.839, 265.417 207.734 C 275.534 229.926, 304.172 235.520, 321.353 218.661 C 329.450 210.714, 331.500 205.633, 331.500 193.500 C 331.500 181.367, 329.450 176.286, 321.353 168.339 C 313.358 160.494, 300.950 156.752, 290.344 158.988 M 63.054 167.728 C 54.073 170.898, 46 182.218, 46 191.639 C 46 193.659, 45.213 195.655, 43.955 196.828 C 41.911 198.732, 41.913 198.735, 46.705 201.821 C 56.466 208.105, 67.012 220.981, 71.558 232.166 L 73.455 236.832 75.634 231.477 C 76.832 228.532, 79.450 223.655, 81.451 220.640 C 85.595 214.397, 97.386 202.886, 102.172 200.411 C 105.193 198.849, 105.272 198.672, 103.526 197.395 C 102.333 196.523, 101.409 194.110, 100.937 190.635 C 98.908 175.679, 87.778 165.871, 73.072 166.079 C 70.007 166.122, 65.499 166.864, 63.054 167.728 M 287.627 167.468 C 282.247 169.386, 277.039 173.829, 273.500 179.519 C 269.527 185.908, 268.712 197.311, 271.741 204.129 C 276.181 214.120, 284.127 219.919, 294.521 220.754 C 306.446 221.711, 316.036 216.794, 321.500 206.921 C 324.132 202.166, 324.500 200.518, 324.500 193.500 C 324.500 186.487, 324.130 184.829, 321.500 180.061 C 318.429 174.492, 312.651 169.526, 306.684 167.326 C 302.327 165.720, 292.323 165.794, 287.627 167.468 M 295.616 191.527 C 294.727 192.416, 294 193.529, 294 194 C 294 195.389, 297.140 198.120, 298.295 197.735 C 300.395 197.035, 301.549 194.094, 300.423 192.310 C 298.905 189.902, 297.474 189.669, 295.616 191.527 M 415.235 191.123 C 401.277 193.174, 388.489 199.697, 378.087 210.070 C 366.796 221.332, 359.683 236.620, 358.339 252.517 C 357.762 259.343, 357.861 259.855, 359.979 260.989 C 363.410 262.825, 364.744 260.687, 365.900 251.500 C 367.849 236.014, 373.660 224.289, 384.332 214.306 C 395.012 204.315, 405.999 199.318, 419.895 198.132 C 427.995 197.440, 430.540 195.678, 428.394 192.250 C 427.091 190.169, 423.704 189.879, 415.235 191.123 M 263.585 255.558 C 262.713 256.430, 262 257.529, 262 258 C 262 258.471, 262.713 259.570, 263.585 260.442 C 264.978 261.835, 269.159 261.995, 298.226 261.763 C 328.452 261.523, 331.377 261.350, 332.386 259.750 C 333.191 258.474, 333.191 257.526, 332.386 256.250 C 331.377 254.650, 328.452 254.477, 298.226 254.237 C 269.159 254.005, 264.978 254.165, 263.585 255.558 " stroke="none" fill="black" fill-rule="evenodd"/>
</svg>