<svg xmlns="http://www.w3.org/2000/svg" width="276" height="324" viewBox="0 0 276 324" version="1.1">
	<path d="M 40.316 62.784 C 38.369 64.022, 22.007 97.855, 22.604 99.410 C 23.269 101.144, 25.524 102.120, 27.295 101.440 C 28.007 101.167, 31.480 95.106, 35.014 87.972 C 38.547 80.837, 41.691 75, 42 75 C 42.309 75, 45.453 80.837, 48.986 87.972 C 52.520 95.106, 55.993 101.167, 56.705 101.440 C 58.476 102.120, 60.731 101.144, 61.396 99.410 C 61.993 97.855, 45.631 64.022, 43.684 62.784 C 42.206 61.844, 41.794 61.844, 40.316 62.784 M 7.571 127.571 C 6.207 128.936, 6 133.463, 6 162 C 6 199.522, 5.654 198, 14.190 198 L 19.237 198 16.059 201.250 C 14.311 203.037, 11.467 207.370, 9.740 210.877 C 6.989 216.464, 6.600 218.277, 6.600 225.500 C 6.600 232.734, 6.988 234.533, 9.762 240.168 C 13.752 248.274, 18.695 253.232, 26.726 257.186 C 31.971 259.768, 34.270 260.305, 40.272 260.349 C 44.247 260.378, 49.351 259.861, 51.613 259.199 C 58.425 257.207, 66.390 251.278, 70.369 245.234 C 75.010 238.188, 76.415 233.261, 76.349 224.272 C 76.305 218.281, 75.767 215.969, 73.208 210.772 C 71.509 207.322, 68.689 203.037, 66.941 201.250 L 63.763 198 69.310 198 C 78.428 198, 78 199.772, 78 162 C 78 133.463, 77.793 128.936, 76.429 127.571 C 75.064 126.207, 70.537 126, 42 126 C 13.463 126, 8.936 126.207, 7.571 127.571 M 263.571 127.571 C 262.175 128.968, 262 136.372, 262 194 C 262 251.628, 262.175 259.032, 263.571 260.429 C 264.436 261.293, 265.529 262, 266 262 C 266.471 262, 267.564 261.293, 268.429 260.429 C 269.825 259.032, 270 251.628, 270 194 C 270 136.372, 269.825 128.968, 268.429 127.571 C 267.564 126.707, 266.471 126, 266 126 C 265.529 126, 264.436 126.707, 263.571 127.571 M 14 162 L 14 190 42 190 L 70 190 70 162 L 70 134 42 134 L 14 134 14 162 M 199.571 159.571 C 198.707 160.436, 198 161.636, 198 162.239 C 198 162.841, 203.941 169.334, 211.202 176.667 L 224.405 190 164.774 190 C 111.897 190, 104.965 190.178, 103.571 191.571 C 101.598 193.545, 101.598 194.455, 103.571 196.429 C 104.965 197.822, 111.897 198, 164.774 198 L 224.405 198 211.202 211.333 C 203.941 218.666, 198 225.159, 198 225.761 C 198 227.187, 200.825 230, 202.257 230 C 204.006 230, 238 195.761, 238 194 C 238 192.239, 204.006 158, 202.257 158 C 201.644 158, 200.436 158.707, 199.571 159.571 M 32.500 199.326 C 23.842 202.714, 23.821 202.273, 33.103 211.603 L 41.457 220.001 49.692 211.809 C 55.755 205.778, 57.656 203.291, 56.902 202.381 C 53.818 198.666, 38.946 196.804, 32.500 199.326 M 18.184 210.278 C 14.139 215.152, 12.867 227.319, 15.573 235.260 C 18.178 242.906, 18.711 242.838, 27.809 233.692 L 36.001 225.457 27.671 217.170 C 20.854 210.389, 19.131 209.137, 18.184 210.278 M 55.191 217.308 L 46.999 225.543 55.339 233.840 L 63.680 242.137 65.174 239.819 C 69.239 233.513, 70.153 223.740, 67.427 215.740 C 64.822 208.094, 64.289 208.162, 55.191 217.308 M 33.160 239.339 L 24.863 247.680 27.181 249.174 C 33.487 253.239, 43.260 254.153, 51.260 251.427 C 58.906 248.822, 58.838 248.289, 49.692 239.191 L 41.457 230.999 33.160 239.339 " stroke="none" fill="black" fill-rule="evenodd"/>
</svg>