<svg xmlns="http://www.w3.org/2000/svg" width="180" height="324" viewBox="0 0 180 324" version="1.1">
	<path d="M 72.369 126.765 C 71.416 127.384, 6 257.155, 6 258.426 C 6 258.663, 6.707 259.564, 7.571 260.429 C 8.936 261.793, 13.463 262, 42 262 C 70.537 262, 75.064 261.793, 76.429 260.429 C 78.402 258.455, 78.402 257.545, 76.429 255.571 C 75.071 254.214, 70.848 254, 45.427 254 L 15.997 254 46.998 192.003 C 64.049 157.905, 78 129.812, 78 129.575 C 78 128.872, 74.916 125.999, 74.179 126.015 C 73.805 126.024, 72.991 126.361, 72.369 126.765 M 131.045 159.064 C 109.497 163.427, 97.173 185.901, 105.037 206.493 C 108.164 214.680, 116.320 222.836, 124.507 225.963 C 137.863 231.064, 152.079 228.081, 162.080 218.080 C 183.084 197.076, 170.303 161.904, 140.500 158.699 C 137.750 158.403, 133.495 158.567, 131.045 159.064 M 127.054 167.728 C 121.018 169.859, 113.781 177.260, 111.667 183.463 C 105.198 202.450, 117.964 221, 137.500 221 C 153.108 221, 165 209.108, 165 193.500 C 165 177.670, 152.965 165.854, 137.072 166.079 C 134.007 166.122, 129.499 166.864, 127.054 167.728 " stroke="none" fill="black" fill-rule="evenodd"/>
</svg>