<svg xmlns="http://www.w3.org/2000/svg" width="148" height="324" viewBox="0 0 148 324" version="1.1">
	<path d="M 71.205 63.253 C 68.820 66.127, 54.136 98.192, 54.624 99.462 C 55.269 101.144, 57.542 102.113, 59.278 101.447 C 59.981 101.177, 63.522 95.005, 67.147 87.731 L 73.738 74.505 80.311 87.624 C 83.927 94.839, 87.586 101.011, 88.442 101.340 C 90.461 102.114, 92.697 101.232, 93.407 99.381 C 93.997 97.844, 77.582 64.037, 75.628 62.765 C 73.950 61.672, 72.373 61.846, 71.205 63.253 M 7.571 127.571 C 6.206 128.937, 6 133.497, 6 162.371 C 6 186.883, 6.315 195.915, 7.200 196.800 C 8.081 197.681, 16.578 198, 39.200 198 L 70 198 70 228.429 C 70 254.758, 70.212 259.069, 71.571 260.429 C 73.545 262.402, 74.455 262.402, 76.429 260.429 C 77.788 259.069, 78 254.758, 78 228.429 L 78 198 108.250 197.985 C 124.888 197.976, 139.096 197.591, 139.825 197.129 C 140.886 196.456, 141.128 189.539, 141.040 162.395 C 140.921 125.938, 140.718 124.475, 136.117 126.938 C 134.031 128.054, 134 128.525, 134 159.035 L 134 190 106 190 L 78 190 78 159.571 C 78 133.242, 77.788 128.931, 76.429 127.571 C 74.455 125.598, 73.545 125.598, 71.571 127.571 C 70.212 128.931, 70 133.242, 70 159.571 L 70 190 42 190 L 14 190 14 159.571 C 14 133.242, 13.788 128.931, 12.429 127.571 C 11.564 126.707, 10.471 126, 10 126 C 9.529 126, 8.436 126.707, 7.571 127.571 " stroke="none" fill="black" fill-rule="evenodd"/>
</svg>