<svg xmlns="http://www.w3.org/2000/svg" width="308" height="324" viewBox="0 0 308 324" version="1.1">
	<path d="M 167.750 127.080 C 166.787 127.641, 166 128.862, 166 129.794 C 166 130.726, 180.061 145.554, 197.246 162.746 L 228.492 194.004 200.746 221.750 L 173 249.495 173 220.870 C 173 197.212, 172.751 192.038, 171.564 191.053 C 170.494 190.165, 169.598 190.145, 168.051 190.973 C 166.002 192.069, 165.977 192.553, 166.237 226.184 C 166.478 257.399, 166.648 260.376, 168.250 261.386 C 169.756 262.336, 174.407 258.082, 201.753 230.746 L 233.508 199.004 265.252 230.748 C 292.610 258.106, 297.238 262.340, 298.748 261.387 C 300.352 260.376, 300.522 257.426, 300.765 226.391 C 301.004 195.836, 300.867 192.381, 299.377 191.289 C 298.226 190.446, 297.158 190.380, 295.862 191.074 C 294.112 192.010, 294 193.804, 294 220.783 L 294 249.495 266.254 221.750 L 238.508 194.004 269.754 162.746 C 286.939 145.554, 301 130.719, 301 129.779 C 301 128.839, 300.048 127.561, 298.884 126.938 C 296.944 125.900, 294.123 128.445, 265.121 157.395 L 233.474 188.985 201.993 157.493 C 184.678 140.172, 170.284 126.014, 170.006 126.030 C 169.728 126.047, 168.713 126.519, 167.750 127.080 M 71.482 159.661 C 67.893 163.250, 72.565 177.318, 80.038 185.425 L 84.255 190 46.699 190 C 13.890 190, 8.944 190.199, 7.571 191.571 C 5.598 193.545, 5.598 194.455, 7.571 196.429 C 8.844 197.701, 11.697 198, 22.575 198 L 36.006 198 21.020 227.961 C 12.777 244.439, 6.285 258.580, 6.594 259.384 C 7.265 261.133, 9.512 262.125, 11.274 261.448 C 11.975 261.180, 19.056 247.919, 27.010 231.980 C 34.964 216.041, 41.717 203, 42.016 203 C 42.315 203, 49.042 216.034, 56.965 231.964 C 64.888 247.894, 71.962 261.155, 72.685 261.433 C 73.408 261.710, 74.573 261.717, 75.274 261.448 C 75.975 261.180, 83.056 247.919, 91.010 231.980 C 98.964 216.041, 105.710 203, 106 203 C 106.290 203, 113.036 216.041, 120.990 231.980 C 128.944 247.919, 136.083 261.201, 136.853 261.497 C 138.718 262.213, 141 260.217, 141 257.871 C 141 256.835, 134.480 242.952, 126.511 227.021 L 112.021 198.056 125.653 197.778 C 137.361 197.539, 139.441 197.253, 140.388 195.750 C 142.530 192.348, 140 190.532, 132.662 190.205 L 126.034 189.909 129.359 186.990 C 136.542 180.683, 142.504 163.722, 139.016 159.519 C 138.322 158.683, 137.392 158, 136.949 158 C 135.079 158, 133 161.376, 133 164.412 C 133 166.210, 131.623 170.436, 129.940 173.804 C 124.861 183.968, 116.432 189.020, 104.624 188.978 C 97.621 188.953, 92.185 186.857, 86.752 182.087 C 82.473 178.330, 78 169.866, 78 165.526 C 78 162.438, 75.650 158, 74.015 158 C 73.535 158, 72.395 158.747, 71.482 159.661 M 60.743 223.500 C 67.750 237.525, 73.715 249, 74 249 C 74.285 249, 80.250 237.525, 87.257 223.500 L 99.995 198 74 198 L 48.005 198 60.743 223.500 " stroke="none" fill="black" fill-rule="evenodd"/>
</svg>