<svg xmlns="http://www.w3.org/2000/svg" width="244" height="324" viewBox="0 0 244 324" version="1.1">
	<path d="M 71.527 159.615 C 67.961 163.182, 72.653 177.414, 80.038 185.425 L 84.255 190 46.699 190 C 13.890 190, 8.944 190.199, 7.571 191.571 C 5.598 193.545, 5.598 194.455, 7.571 196.429 C 8.844 197.701, 11.697 198, 22.575 198 L 36.006 198 21.020 227.961 C 12.777 244.439, 6.285 258.580, 6.594 259.384 C 7.265 261.133, 9.512 262.125, 11.274 261.448 C 11.975 261.180, 19.056 247.919, 27.010 231.980 C 34.964 216.041, 41.717 203, 42.016 203 C 42.315 203, 49.042 216.034, 56.965 231.964 C 64.888 247.894, 71.962 261.155, 72.685 261.433 C 73.408 261.710, 74.573 261.717, 75.274 261.448 C 75.975 261.180, 83.056 247.919, 91.010 231.980 C 98.964 216.041, 105.710 203, 106 203 C 106.290 203, 113.036 216.041, 120.990 231.980 C 128.944 247.919, 136.083 261.201, 136.853 261.497 C 138.718 262.213, 141 260.217, 141 257.871 C 141 256.835, 134.480 242.952, 126.511 227.021 L 112.021 198.056 125.653 197.778 C 137.361 197.539, 139.441 197.253, 140.388 195.750 C 142.509 192.382, 139.994 190.532, 132.856 190.209 L 126.421 189.918 130.547 185.612 C 132.817 183.243, 135.730 179.124, 137.021 176.457 C 140.839 168.570, 140.798 158, 136.949 158 C 135.079 158, 133 161.376, 133 164.412 C 133 169.239, 127.520 179.420, 122.992 183.006 C 111.475 192.128, 93.617 190.628, 84.451 179.770 C 80.654 175.272, 78.048 169.212, 78.022 164.821 C 78.002 161.403, 75.995 158, 74 158 C 73.529 158, 72.416 158.727, 71.527 159.615 M 198.574 192.250 C 194.358 198.690, 166.059 257.990, 166.568 259.316 C 167.403 261.492, 169.999 262.246, 171.726 260.813 C 172.535 260.141, 179.622 246.749, 187.474 231.052 L 201.750 202.514 216.313 231.626 C 224.486 247.965, 231.617 261.023, 232.565 261.386 C 234.679 262.198, 237 260.358, 237 257.871 C 237 255.637, 205.272 191.833, 203.630 190.765 C 201.650 189.478, 200.087 189.937, 198.574 192.250 M 60.743 223.500 C 67.750 237.525, 73.715 249, 74 249 C 74.285 249, 80.250 237.525, 87.257 223.500 L 99.995 198 74 198 L 48.005 198 60.743 223.500 " stroke="none" fill="black" fill-rule="evenodd"/>
</svg>