<svg xmlns="http://www.w3.org/2000/svg" width="180" height="324" viewBox="0 0 180 324" version="1.1">
	<path d="M 40.372 62.765 C 38.418 64.037, 22.003 97.844, 22.593 99.381 C 23.268 101.141, 25.513 102.124, 27.295 101.440 C 28.007 101.167, 31.480 95.106, 35.014 87.972 C 38.547 80.837, 41.691 75, 42 75 C 42.309 75, 45.453 80.837, 48.986 87.972 C 52.520 95.106, 55.993 101.167, 56.705 101.440 C 58.487 102.124, 60.732 101.141, 61.407 99.381 C 61.716 98.575, 58.096 90.173, 53.363 80.708 C 45.638 65.261, 43.672 62.031, 42 62.031 C 41.725 62.031, 40.992 62.361, 40.372 62.765 M 33.384 127.412 C 15.480 131.757, 3.543 149.833, 6.993 167.372 C 7.651 170.715, 9.079 175.194, 10.166 177.325 C 12.765 182.419, 19.066 189.182, 23.377 191.503 L 26.824 193.360 22.662 196.005 C 14.442 201.228, 9.123 209.179, 7.014 219.396 C 4.201 233.027, 11.253 248.375, 23.673 255.654 C 28.824 258.673, 41.869 262.124, 44 261.032 C 44.825 260.609, 47.300 259.941, 49.500 259.548 C 58.256 257.981, 68.364 250.087, 72.834 241.325 C 80.896 225.522, 75.396 205.573, 60.338 196.005 L 56.176 193.360 59.623 191.503 C 63.934 189.182, 70.235 182.419, 72.834 177.325 C 83.106 157.191, 71.453 132.611, 49.147 127.360 C 42.397 125.772, 40.111 125.779, 33.384 127.412 M 31.054 135.728 C 25.018 137.859, 17.781 145.260, 15.667 151.463 C 10.058 167.925, 18.847 184.571, 35.250 188.550 L 38 189.217 38 161.608 C 38 140.146, 37.722 134.018, 36.750 134.079 C 36.063 134.122, 33.499 134.864, 31.054 135.728 M 46 161.500 L 46 189.135 48.250 188.475 C 61.167 184.686, 69 174.503, 69 161.500 C 69 148.497, 61.167 138.314, 48.250 134.525 L 46 133.865 46 161.500 M 103.571 159.571 C 102.207 160.936, 102 165.463, 102 194 C 102 222.537, 102.207 227.064, 103.571 228.429 C 104.936 229.793, 109.463 230, 138 230 C 166.537 230, 171.064 229.793, 172.429 228.429 C 173.793 227.064, 174 222.537, 174 194 C 174 165.463, 173.793 160.936, 172.429 159.571 C 171.064 158.207, 166.537 158, 138 158 C 109.463 158, 104.936 158.207, 103.571 159.571 M 110 194 L 110 222 138 222 L 166 222 166 194 L 166 166 138 166 L 110 166 110 194 M 31.054 199.728 C 25.018 201.859, 17.781 209.260, 15.667 215.463 C 10.058 231.925, 18.847 248.571, 35.250 252.550 L 38 253.217 38 225.608 C 38 204.146, 37.722 198.018, 36.750 198.079 C 36.063 198.122, 33.499 198.864, 31.054 199.728 M 46 225.500 L 46 253.135 48.250 252.475 C 61.167 248.686, 69 238.503, 69 225.500 C 69 212.497, 61.167 202.314, 48.250 198.525 L 46 197.865 46 225.500 " stroke="none" fill="black" fill-rule="evenodd"/>
</svg>