<svg xmlns="http://www.w3.org/2000/svg" width="308" height="324" viewBox="0 0 308 324" version="1.1">
	<path d="M 64.500 126.955 C 48.723 129.475, 38.148 134.827, 26.916 145.978 C 17.776 155.051, 13.450 161.671, 10.074 171.747 C -2.361 208.862, 18.907 248.219, 57 258.585 C 65.567 260.916, 81.223 260.905, 90 258.562 C 113.016 252.418, 132.195 233.197, 138.014 210.444 C 142.092 194.501, 139.936 176.203, 132.264 161.652 C 124.401 146.736, 106.682 132.739, 90.500 128.660 C 82.790 126.717, 70.880 125.936, 64.500 126.955 M 223.531 127.067 C 195.490 131.370, 173.314 152.437, 167.589 180.208 C 165.337 191.134, 165.478 195.650, 168.117 197.062 C 171.328 198.781, 172.564 196.672, 173.826 187.325 C 175.862 172.246, 181.191 161.108, 191 151.433 C 202.766 139.826, 213.837 134.944, 230.012 134.228 C 248.214 133.422, 262.869 138.938, 275.146 151.215 C 285.449 161.518, 292.919 178.689, 292.983 192.215 C 293.002 196.428, 295.359 198.498, 298.276 196.866 C 302.091 194.731, 299.123 176.088, 292.982 163.615 C 280.508 138.277, 251.150 122.828, 223.531 127.067 M 58.159 135.569 C 37.914 141.015, 20.798 158.320, 15.487 178.711 C 13.563 186.100, 13.583 200.980, 15.528 208.448 C 18.052 218.136, 23.717 227.793, 31.459 235.602 C 35.332 239.508, 39.927 243.439, 41.671 244.337 L 44.842 245.970 42.501 241.735 C 37.057 231.890, 37.154 219.160, 42.751 208.767 C 53.736 188.368, 81.411 184.304, 97.777 200.687 C 105.483 208.400, 107.500 213.557, 107.500 225.542 C 107.500 234.521, 107.212 236.139, 104.777 240.833 L 102.053 246.081 105.218 244.291 C 110.825 241.117, 121.562 229.703, 125.340 222.899 C 135.319 204.928, 135.319 182.072, 125.340 164.101 C 118.010 150.900, 103.072 139.382, 88.356 135.585 C 80.745 133.622, 65.427 133.613, 58.159 135.569 M 231.724 159.134 C 230.192 159.992, 230 162.094, 230 178 C 230 193.906, 230.192 196.008, 231.724 196.866 C 232.818 197.478, 234.098 197.483, 235.224 196.880 C 236.824 196.024, 237 194.152, 237 178 C 237 161.848, 236.824 159.976, 235.224 159.120 C 234.098 158.517, 232.818 158.522, 231.724 159.134 M 63.603 199.477 C 55.740 202.279, 55.802 202.922, 64.825 212.179 L 72.936 220.500 81.431 212.058 C 90.855 202.695, 90.930 202.186, 83.260 199.573 C 77.621 197.652, 68.844 197.609, 63.603 199.477 M 227.558 207.469 C 221.900 209.518, 218.897 212.054, 216.289 216.986 C 208.930 230.902, 222.188 247.954, 237.250 243.946 C 253.602 239.596, 257.321 219.287, 243.492 209.863 C 238.492 206.456, 232.741 205.592, 227.558 207.469 M 50.192 210.269 C 45.752 215.619, 44.575 229.264, 47.918 236.627 C 48.948 238.896, 50.209 241.011, 50.718 241.326 C 51.228 241.641, 55.325 238.199, 59.823 233.678 L 68.001 225.457 59.671 217.170 C 52.884 210.419, 51.128 209.140, 50.192 210.269 M 86.727 216.772 C 82.477 221.047, 79 224.995, 79 225.546 C 79 226.709, 94.165 242, 95.318 242 C 95.744 242, 97.192 239.637, 98.536 236.750 C 100.274 233.018, 100.980 229.765, 100.980 225.500 C 100.980 219.632, 97.303 209, 95.273 209 C 94.822 209, 90.976 212.497, 86.727 216.772 M 226.881 215.503 C 224.218 216.951, 221 222.420, 221 225.500 C 221 228.694, 224.267 234.087, 227.085 235.544 C 237.707 241.037, 248.933 230.506, 243.551 220.099 C 240.601 214.394, 232.853 212.258, 226.881 215.503 M 64.477 239.059 L 56.500 247.118 58.830 249.034 C 63.737 253.069, 75.248 254.235, 83.038 251.487 C 90.998 248.678, 90.983 248.530, 81.830 239.329 C 77.273 234.748, 73.299 231, 72.999 231 C 72.699 231, 68.864 234.627, 64.477 239.059 " stroke="none" fill="black" fill-rule="evenodd"/>
</svg>