<svg xmlns="http://www.w3.org/2000/svg" width="244" height="324" viewBox="0 0 244 324" version="1.1">
	<path d="M 39.244 159.256 L 6 192.511 6 226.056 C 6 250.812, 6.314 259.914, 7.200 260.800 C 8.109 261.709, 24.229 262, 73.629 262 C 131.594 262, 139.032 261.825, 140.429 260.429 C 141.794 259.063, 142 254.509, 142 225.695 L 142 192.533 108.733 159.267 C 90.437 140.970, 74.797 126, 73.978 126 C 73.159 126, 57.529 140.965, 39.244 159.256 M 43.744 165.756 L 14 195.512 14 224.756 L 14 254 74 254 L 134 254 134 224.744 L 134 195.487 104.244 165.744 C 87.878 149.385, 74.263 136, 73.988 136 C 73.713 136, 60.103 149.390, 43.744 165.756 M 167.750 191.073 C 165.423 192.438, 165.524 195.675, 167.934 196.965 C 169.005 197.538, 176.151 198, 183.934 198 L 198 198 198 226 L 198 254 183.934 254 C 169.308 254, 166 254.738, 166 258 C 166 261.750, 168.791 262.037, 202.601 261.764 C 232.469 261.523, 235.378 261.349, 236.386 259.750 C 237.190 258.475, 237.191 257.525, 236.387 256.250 C 235.433 254.736, 233.314 254.463, 220.643 254.223 L 206 253.947 206 226 L 206 198.053 220.643 197.777 C 233.314 197.537, 235.433 197.264, 236.387 195.750 C 237.191 194.475, 237.190 193.525, 236.386 192.250 C 235.377 190.649, 232.483 190.481, 202.391 190.273 C 181.280 190.127, 168.873 190.414, 167.750 191.073 " stroke="none" fill="black" fill-rule="evenodd"/>
</svg>