<svg xmlns="http://www.w3.org/2000/svg" width="532" height="324" viewBox="0 0 532 324" version="1.1">
	<path d="M 103.571 95.571 C 102.219 96.924, 102 100.988, 102 124.774 L 102 152.405 88.667 139.202 C 81.334 131.941, 74.841 126, 74.239 126 C 72.813 126, 70 128.825, 70 130.257 C 70 132.006, 104.239 166, 106 166 C 107.761 166, 142 132.006, 142 130.257 C 142 128.825, 139.187 126, 137.761 126 C 137.159 126, 130.666 131.941, 123.333 139.202 L 110 152.405 110 124.774 C 110 100.988, 109.781 96.924, 108.429 95.571 C 107.564 94.707, 106.471 94, 106 94 C 105.529 94, 104.436 94.707, 103.571 95.571 M 294.722 127.420 C 293.935 128.208, 293.017 131.911, 292.661 135.734 C 290.803 155.732, 277.928 174.202, 259.820 182.847 C 251.178 186.974, 243.669 189, 237.022 189 C 233.416 189, 230 190.946, 230 193 C 230 193.471, 230.740 194.598, 231.645 195.502 C 234.752 198.610, 249.603 195.672, 262.858 189.329 C 270.415 185.712, 273.708 183.373, 279.969 177.175 C 284.233 172.954, 289.130 167.025, 290.851 164 L 293.981 158.500 293.991 206.250 L 294 254 263.571 254 C 237.242 254, 232.931 254.212, 231.571 255.571 C 229.596 257.546, 229.598 258.455, 231.579 260.436 C 232.990 261.847, 240.058 261.987, 298.220 261.757 C 358.934 261.517, 363.356 261.383, 364.386 259.750 C 365.191 258.474, 365.191 257.526, 364.386 256.250 C 363.381 254.655, 360.566 254.477, 332.641 254.236 L 302 253.971 302 207.836 L 302 161.700 305.154 166.100 C 318.644 184.917, 336.480 195.305, 356.864 196.216 C 362.031 196.447, 363.440 196.171, 364.358 194.750 C 366.509 191.423, 363.995 189.565, 356.395 188.865 C 352.603 188.516, 347.489 187.685, 345.032 187.018 C 321.871 180.733, 302 156.186, 302 133.861 C 302 127.188, 298.263 123.880, 294.722 127.420 M 391.750 127.080 C 390.111 128.035, 390 132.293, 390 194.015 L 390 259.930 392.183 261.098 C 394.042 262.093, 394.636 261.933, 396.183 260.022 C 397.771 258.061, 398 255.747, 398 241.657 L 398 225.536 400.674 229.518 C 405.152 236.187, 409.434 240.808, 416.117 246.185 C 428.165 255.878, 441.236 260.342, 457.500 260.319 C 469.653 260.301, 477.549 258.356, 488.500 252.683 C 497.904 247.810, 509.886 236.566, 514.800 228 L 517.956 222.500 517.978 241.215 C 517.999 259.239, 518.078 259.971, 520.117 261.062 C 525.076 263.717, 525.023 264.446, 525.023 194 C 525.023 123.554, 525.076 124.283, 520.117 126.938 C 518.081 128.027, 517.999 128.771, 517.978 146.285 L 517.956 164.500 514.800 159 C 513.065 155.975, 508.237 150.116, 504.072 145.981 C 485.666 127.705, 459.617 121.703, 435.184 130.109 C 422.541 134.458, 409.242 144.780, 401.537 156.222 L 398 161.473 398 145.959 C 398 133.536, 397.690 130.002, 396.443 128.223 C 394.702 125.736, 394.248 125.625, 391.750 127.080 M 441.500 135.893 C 430.817 139.011, 423.045 143.698, 415 151.876 C 403.036 164.038, 398 176.368, 398 193.500 C 398 210.512, 403.128 223.074, 414.993 235.125 C 426.948 247.268, 440.493 252.954, 457.540 252.985 C 477.339 253.022, 495.225 243.604, 506.388 227.266 C 511.076 220.405, 515.236 210.108, 516.495 202.250 L 517.176 198 486.788 198 C 464.486 198, 456.081 197.681, 455.200 196.800 C 454.319 195.919, 454 187.422, 454 164.800 L 454 134 450.750 134.071 C 448.962 134.110, 444.800 134.930, 441.500 135.893 M 461 162 L 461 190 489.114 190 L 517.227 190 516.537 185.250 C 514.630 172.127, 506.529 157.147, 496.617 148.415 C 488.543 141.301, 471.662 134, 463.290 134 L 461 134 461 162 M 39.571 159.571 C 38.707 160.436, 38 161.636, 38 162.239 C 38 162.841, 43.941 169.334, 51.202 176.667 L 64.405 190 36.774 190 C 12.988 190, 8.924 190.219, 7.571 191.571 C 5.598 193.545, 5.598 194.455, 7.571 196.429 C 8.924 197.781, 12.988 198, 36.774 198 L 64.405 198 51.202 211.333 C 43.941 218.666, 38 225.159, 38 225.761 C 38 227.187, 40.825 230, 42.257 230 C 44.006 230, 78 195.761, 78 194 C 78 192.239, 44.006 158, 42.257 158 C 41.644 158, 40.436 158.707, 39.571 159.571 M 151.315 175.213 C 141.792 184.680, 134 193.134, 134 194 C 134 195.761, 167.994 230, 169.743 230 C 171.175 230, 174 227.187, 174 225.761 C 174 225.159, 168.059 218.666, 160.798 211.333 L 147.595 198 175.226 198 C 199.012 198, 203.076 197.781, 204.429 196.429 C 206.402 194.455, 206.402 193.545, 204.429 191.571 C 203.076 190.219, 199.012 190, 175.226 190 L 147.595 190 160.798 176.667 C 168.059 169.334, 174 162.841, 174 162.239 C 174 160.813, 171.175 158, 169.743 158 C 169.131 158, 160.838 165.746, 151.315 175.213 M 87.213 239.315 C 77.746 248.838, 70 257.131, 70 257.743 C 70 259.175, 72.813 262, 74.239 262 C 74.841 262, 81.334 256.059, 88.667 248.798 L 102 235.595 102 263.226 C 102 287.012, 102.219 291.076, 103.571 292.429 C 104.436 293.293, 105.529 294, 106 294 C 106.471 294, 107.564 293.293, 108.429 292.429 C 109.781 291.076, 110 287.012, 110 263.226 L 110 235.595 123.333 248.798 C 130.666 256.059, 137.159 262, 137.761 262 C 139.187 262, 142 259.175, 142 257.743 C 142 255.994, 107.761 222, 106 222 C 105.134 222, 96.680 229.792, 87.213 239.315 " stroke="none" fill="black" fill-rule="evenodd"/>
</svg>