<svg xmlns="http://www.w3.org/2000/svg" width="436" height="324" viewBox="0 0 436 324" version="1.1">
	<path d="M 7.571 127.571 C 6.175 128.968, 6 136.372, 6 194 C 6 251.628, 6.175 259.032, 7.571 260.429 C 8.968 261.825, 16.372 262, 74 262 C 131.628 262, 139.032 261.825, 140.429 260.429 C 141.825 259.032, 142 251.628, 142 194 C 142 136.372, 141.825 128.968, 140.429 127.571 C 139.032 126.175, 131.628 126, 74 126 C 16.372 126, 8.968 126.175, 7.571 127.571 M 179.505 130.127 C 171.125 139.402, 166.730 155.086, 168.874 168.067 C 170.220 176.220, 174.317 185.760, 178.919 191.461 L 182.117 195.423 181.928 227.419 C 181.746 258.329, 181.806 259.460, 183.723 260.732 C 186.188 262.369, 188.710 261.490, 189.600 258.684 C 189.972 257.511, 191.761 254.290, 193.574 251.526 C 203.916 235.762, 203.864 214.635, 193.443 198.344 L 190 192.961 190 161.415 C 190 141.582, 189.616 129.150, 188.965 127.934 C 187.255 124.740, 183.607 125.586, 179.505 130.127 M 254.660 135.250 C 240.589 149.460, 233.513 163.913, 230.855 183.874 C 229.882 191.182, 229.874 195.209, 230.819 202.692 C 233.360 222.808, 240.395 237.222, 255 252.237 L 264.500 262.004 329.322 262.002 L 394.143 262 399.169 257.250 C 412.706 244.454, 422.168 228.823, 425.953 213 C 428.711 201.470, 428.711 185.530, 425.953 174 C 422.103 157.905, 411.454 140.427, 399.296 130.248 L 394.222 126 329.021 126 L 263.821 126 254.660 135.250 M 14 194 L 14 254 74 254 L 134 254 134 194 L 134 134 74 134 L 14 134 14 194 M 261.614 138.109 C 255.535 143.459, 248.796 152.980, 244.590 162.160 C 231.212 191.353, 238.805 228.928, 262.220 249.411 L 267.466 254 329.595 254 L 391.724 254 399.630 245.750 C 408.404 236.595, 414.223 226.617, 418.146 214 C 421.507 203.194, 421.507 183.806, 418.146 173 C 414.325 160.713, 408.370 150.383, 400.131 141.750 L 392.735 134 329.508 134 L 266.282 134 261.614 138.109 M 179.472 143.721 C 174.947 154.551, 174.854 167.715, 179.237 177 L 181.833 182.500 181.917 161.250 C 181.962 149.563, 181.781 140, 181.513 140 C 181.246 140, 180.327 141.674, 179.472 143.721 M 190.163 225 C 190.163 241.935, 190.216 242.387, 191.792 239 C 192.970 236.466, 193.420 232.602, 193.420 225 C 193.420 217.398, 192.970 213.534, 191.792 211 C 190.216 207.613, 190.163 208.065, 190.163 225 " stroke="none" fill="black" fill-rule="evenodd"/>
</svg>