<svg xmlns="http://www.w3.org/2000/svg" width="244" height="324" viewBox="0 0 244 324" version="1.1">
	<path d="M 55.571 63.571 C 54.707 64.436, 54 65.317, 54 65.531 C 54 66.993, 71.421 100.653, 72.488 101.252 C 73.225 101.665, 74.440 101.768, 75.188 101.481 C 76.837 100.849, 93 68.755, 93 66.115 C 93 63.770, 90.710 61.790, 88.832 62.511 C 88.050 62.811, 84.520 68.894, 80.986 76.028 C 77.453 83.163, 74.308 89, 73.997 89 C 73.687 89, 70.748 83.534, 67.467 76.853 C 59.925 61.499, 58.847 60.296, 55.571 63.571 M 64.500 126.944 C 48.438 129.544, 38.175 134.825, 26.498 146.500 C 13.978 159.017, 8.459 170.637, 6.503 188.598 C 5.964 193.549, 6.150 195.007, 7.491 196.348 C 10.992 199.850, 14 196.834, 14 189.823 C 14 166.418, 34.185 141.896, 58.644 135.585 C 65.760 133.749, 78.565 133.519, 86.201 135.090 C 102.352 138.413, 119.170 151.386, 126.330 166.046 C 130.578 174.744, 133 183.494, 133 190.139 C 133 193.095, 133.587 195.444, 134.571 196.429 C 137.965 199.823, 140 197.230, 140 189.510 C 140 181.302, 137.806 173.186, 132.850 163.065 C 125.016 147.065, 107.789 133.061, 90.500 128.638 C 82.849 126.680, 70.928 125.904, 64.500 126.944 M 65.972 159.329 C 47.771 163.347, 35.510 181.552, 38.987 199.396 C 43.487 222.492, 66.872 234.706, 88.333 225.168 C 96.301 221.627, 103.444 213.643, 106.591 204.761 C 108.855 198.369, 108.544 187.529, 105.893 180.443 C 100.184 165.185, 82.298 155.726, 65.972 159.329 M 167.571 159.571 C 165.215 161.927, 165.215 210.073, 167.571 212.429 C 169.457 214.315, 170.219 214.381, 171.800 212.800 C 173.508 211.092, 173.508 160.908, 171.800 159.200 C 170.219 157.619, 169.457 157.685, 167.571 159.571 M 199.571 159.571 C 197.215 161.927, 197.215 210.073, 199.571 212.429 C 201.457 214.315, 202.219 214.381, 203.800 212.800 C 205.508 211.092, 205.508 160.908, 203.800 159.200 C 202.219 157.619, 201.457 157.685, 199.571 159.571 M 63.627 167.468 C 58.302 169.367, 53.047 173.815, 49.618 179.328 C 46.254 184.737, 45.041 194.780, 46.916 201.708 C 48.446 207.361, 53.544 213.823, 59.266 217.361 C 65.398 221.152, 75.268 222.068, 82.852 219.549 C 88.768 217.584, 95.558 211.496, 98.523 205.500 C 101.293 199.895, 101.292 187.102, 98.521 181.500 C 95.571 175.538, 89.083 169.557, 83.504 167.656 C 77.655 165.663, 68.923 165.580, 63.627 167.468 M 71.571 191.571 C 70.707 192.436, 70 193.529, 70 194 C 70 195.068, 72.871 198, 73.916 198 C 74.342 198, 75.505 197.100, 76.500 196 C 78.247 194.070, 78.247 193.930, 76.500 192 C 74.318 189.589, 73.615 189.528, 71.571 191.571 M 167.616 222.527 C 166.727 223.416, 166 224.529, 166 225 C 166 226.389, 169.140 229.120, 170.295 228.735 C 172.395 228.035, 173.549 225.094, 172.423 223.310 C 170.905 220.902, 169.474 220.669, 167.616 222.527 M 199.616 222.527 C 198.727 223.416, 198 224.529, 198 225 C 198 226.389, 201.140 229.120, 202.295 228.735 C 204.395 228.035, 205.549 225.094, 204.423 223.310 C 202.905 220.902, 201.474 220.669, 199.616 222.527 " stroke="none" fill="black" fill-rule="evenodd"/>
</svg>