<svg xmlns="http://www.w3.org/2000/svg" width="84" height="324" viewBox="0 0 84 324" version="1.1">
	<path d="M 40.372 62.765 C 38.418 64.037, 22.003 97.844, 22.593 99.381 C 23.268 101.141, 25.513 102.124, 27.295 101.440 C 28.007 101.167, 31.480 95.106, 35.014 87.972 C 38.547 80.837, 41.691 75, 42 75 C 42.309 75, 45.453 80.837, 48.986 87.972 C 52.520 95.106, 55.993 101.167, 56.705 101.440 C 58.487 102.124, 60.732 101.141, 61.407 99.381 C 61.716 98.575, 58.096 90.173, 53.363 80.708 C 45.638 65.261, 43.672 62.031, 42 62.031 C 41.725 62.031, 40.992 62.361, 40.372 62.765 M 7.571 127.571 C 6.207 128.936, 6 133.463, 6 162 C 6 199.522, 5.654 198, 14.190 198 L 19.237 198 16.244 201.062 C 8.737 208.740, 4.914 221.372, 7 231.604 C 9.237 242.579, 15.471 251.231, 24.767 256.262 C 45.938 267.721, 71.337 255.397, 76.013 231.396 C 78.022 221.088, 74.249 208.726, 66.756 201.062 L 63.763 198 69.310 198 C 78.428 198, 78 199.772, 78 162 C 78 133.463, 77.793 128.936, 76.429 127.571 C 75.064 126.207, 70.537 126, 42 126 C 13.463 126, 8.936 126.207, 7.571 127.571 M 14 162 L 14 190 42 190 L 70 190 70 162 L 70 134 42 134 L 14 134 14 162 M 31.605 199.568 C 24.049 202.337, 24.073 202.527, 33.170 211.671 L 41.457 220.001 49.692 211.809 C 58.838 202.711, 58.906 202.178, 51.260 199.573 C 45.620 197.651, 36.842 197.649, 31.605 199.568 M 18.184 210.278 C 14.139 215.152, 12.867 227.319, 15.573 235.260 C 18.178 242.906, 18.711 242.838, 27.809 233.692 L 36.001 225.457 27.671 217.170 C 20.854 210.389, 19.131 209.137, 18.184 210.278 M 55.191 217.308 L 46.999 225.543 55.329 233.830 C 64.530 242.983, 64.678 242.998, 67.487 235.038 C 69.439 229.503, 69.415 221.574, 67.427 215.740 C 64.822 208.094, 64.289 208.162, 55.191 217.308 M 33.170 239.329 C 24.017 248.530, 24.002 248.678, 31.962 251.487 C 37.497 253.439, 45.426 253.415, 51.260 251.427 C 58.906 248.822, 58.838 248.289, 49.692 239.191 L 41.457 230.999 33.170 239.329 " stroke="none" fill="black" fill-rule="evenodd"/>
</svg>