<svg xmlns="http://www.w3.org/2000/svg" width="372" height="324" viewBox="0 0 372 324" version="1.1">
	<path d="M 257.608 132.122 C 245.790 142.951, 237.186 157.368, 232.913 173.500 C 229.957 184.658, 229.957 202.342, 232.913 213.500 C 235.537 223.407, 240.666 234.377, 246.491 242.539 C 251.446 249.483, 263.481 261, 265.783 261 C 267.890 261, 279.346 249.660, 284.563 242.411 C 288.352 237.147, 293.339 227.539, 296.707 219.014 C 297.670 216.578, 297.715 216.608, 298.982 220.514 C 300.993 226.714, 305.814 235.905, 310.581 242.628 C 315.437 249.475, 327.482 261, 329.783 261 C 331.890 261, 343.346 249.660, 348.563 242.411 C 359.152 227.698, 364.207 211.895, 364.207 193.500 C 364.207 175.133, 359.194 159.434, 348.581 144.561 C 343.895 137.995, 331.588 126, 329.536 126 C 327.440 126, 315.189 137.875, 310.581 144.372 C 305.814 151.095, 300.993 160.286, 298.982 166.486 C 297.715 170.392, 297.670 170.422, 296.707 167.986 C 293.364 159.525, 288.357 149.853, 284.581 144.561 C 279.895 137.995, 267.588 126, 265.536 126 C 264.850 126, 261.283 128.755, 257.608 132.122 M 261.619 138.029 C 256.293 142.706, 249.146 152.590, 245.372 160.500 C 233.096 186.227, 236.204 216.971, 253.376 239.664 C 255.942 243.055, 259.651 247.242, 261.619 248.971 C 264.879 251.832, 265.390 251.987, 267.349 250.709 C 271.622 247.920, 281.218 235.362, 285.073 227.516 C 295.796 205.692, 295.796 181.308, 285.073 159.484 C 281.218 151.638, 271.622 139.080, 267.349 136.291 C 265.390 135.013, 264.879 135.168, 261.619 138.029 M 325.619 138.029 C 320.293 142.706, 313.146 152.590, 309.372 160.500 C 297.096 186.227, 300.204 216.971, 317.376 239.664 C 319.942 243.055, 323.651 247.242, 325.619 248.971 C 328.879 251.832, 329.390 251.987, 331.349 250.709 C 335.622 247.920, 345.218 235.362, 349.073 227.516 C 359.796 205.692, 359.796 181.308, 349.073 159.484 C 345.218 151.638, 335.622 139.080, 331.349 136.291 C 329.390 135.013, 328.879 135.168, 325.619 138.029 M 7.571 255.571 C 4.156 258.987, 7.242 262, 14.156 262 L 19.170 262 15.118 266.603 C 8.541 274.075, 4.146 289.003, 7.527 292.385 C 8.416 293.273, 9.529 294, 10 294 C 11.912 294, 14 290.663, 14 287.607 C 14 277.949, 22.088 266.862, 31.463 263.667 C 49.208 257.621, 66.090 267.774, 68.998 286.242 C 71.384 301.386, 74.938 309.135, 82.587 315.868 C 95.113 326.893, 115.887 326.893, 128.413 315.868 C 135.882 309.293, 139.792 300.781, 142.023 286.242 C 144.850 267.813, 161.789 257.620, 179.537 263.667 C 188.912 266.862, 197 277.949, 197 287.607 C 197 290.663, 199.088 294, 201 294 C 201.471 294, 202.584 293.273, 203.473 292.385 C 206.854 289.003, 202.459 274.075, 195.882 266.603 L 191.830 262 197.344 262 C 204.759 262, 207.956 259.099, 204.429 255.571 C 203.022 254.164, 192.719 254, 106 254 C 19.281 254, 8.978 254.164, 7.571 255.571 M 67.496 266.128 C 73.079 272.307, 75.041 277.386, 78.008 293.339 C 80.706 307.850, 91.338 317, 105.500 317 C 119.662 317, 130.294 307.850, 132.992 293.339 C 135.959 277.386, 137.921 272.307, 143.504 266.128 L 147.233 262 105.500 262 L 63.767 262 67.496 266.128 " stroke="none" fill="black" fill-rule="evenodd"/>
</svg>