<svg xmlns="http://www.w3.org/2000/svg" width="244" height="324" viewBox="0 0 244 324" version="1.1">
	<path d="M 40.316 62.784 C 38.369 64.022, 22.007 97.855, 22.604 99.410 C 23.269 101.144, 25.524 102.120, 27.295 101.440 C 28.007 101.167, 31.480 95.106, 35.014 87.972 C 38.547 80.837, 41.691 75, 42 75 C 42.309 75, 45.453 80.837, 48.986 87.972 C 52.520 95.106, 55.993 101.167, 56.705 101.440 C 58.487 102.124, 60.732 101.141, 61.407 99.381 C 61.997 97.844, 45.582 64.037, 43.628 62.765 C 42.214 61.845, 41.789 61.847, 40.316 62.784 M 71.571 127.571 C 70.178 128.965, 70 135.899, 70 188.799 L 70 248.455 40.711 219.227 C 24.602 203.152, 10.909 190, 10.282 190 C 8.799 190, 6 192.814, 6 194.305 C 6 195.823, 72.177 262, 73.695 262 C 74.334 262, 75.564 261.293, 76.429 260.429 C 77.825 259.032, 78 251.628, 78 194 C 78 136.372, 77.825 128.968, 76.429 127.571 C 75.564 126.707, 74.471 126, 74 126 C 73.529 126, 72.436 126.707, 71.571 127.571 M 167.571 127.571 C 166.178 128.965, 166 135.946, 166 189.316 L 166 249.488 152.398 235.744 C 144.917 228.185, 138.424 222, 137.969 222 C 136.771 222, 134 224.955, 134 226.232 C 134 226.831, 139.512 232.922, 146.250 239.767 C 157.832 251.534, 158.309 252.176, 155 251.536 C 153.075 251.164, 147.730 249.084, 143.122 246.914 C 124.842 238.307, 110 216.568, 110 198.401 C 110 193.436, 107.381 189.533, 104.733 190.549 C 102.060 191.575, 101.709 194.944, 103.319 204.120 C 106.005 219.434, 111.188 229.569, 121.944 240.535 C 131.827 250.611, 146.090 258.112, 158.040 259.518 C 161.043 259.871, 164.773 260.563, 166.328 261.055 C 168.027 261.593, 170.822 261.572, 173.328 261.002 C 175.623 260.480, 180.425 259.509, 184 258.843 C 187.643 258.165, 194.425 255.671, 199.431 253.169 C 210.563 247.606, 221.743 237.013, 227.564 226.513 C 236.894 209.682, 239.164 186.631, 231.064 190.966 C 229.469 191.819, 229 193.049, 229 196.375 C 229 203.078, 225.374 215.635, 221.340 222.899 C 215.913 232.674, 205.977 241.998, 195.820 246.849 C 191.244 249.034, 185.925 251.129, 184 251.505 C 180.699 252.148, 181.197 251.484, 192.750 239.829 C 199.488 233.032, 205 226.780, 205 225.936 C 205 224.212, 203.106 222, 201.630 222 C 201.097 222, 194.437 228.167, 186.830 235.704 L 173 249.408 173 188.904 C 173 128.945, 172.854 126, 169.871 126 C 169.471 126, 168.436 126.707, 167.571 127.571 " stroke="none" fill="black" fill-rule="evenodd"/>
</svg>