<svg xmlns="http://www.w3.org/2000/svg" width="84" height="324" viewBox="0 0 84 324" version="1.1">
	<path d="M 40.500 70.638 C 31.150 75.318, 23.140 79.789, 22.700 80.573 C 22.260 81.358, 22.260 82.642, 22.700 83.426 C 23.854 85.484, 57.700 102.052, 59.410 101.396 C 61.144 100.731, 62.120 98.476, 61.440 96.705 C 61.167 95.993, 55.106 92.520, 47.972 88.986 C 40.837 85.453, 35 82.308, 35 81.997 C 35 81.687, 40.466 78.748, 47.147 75.467 C 59.023 69.633, 62 67.736, 62 66 C 62 64.948, 59.113 61.975, 58.179 62.065 C 57.805 62.101, 49.850 65.959, 40.500 70.638 M 7.571 127.571 C 6.175 128.968, 6 136.372, 6 194 C 6 251.628, 6.175 259.032, 7.571 260.429 C 8.436 261.293, 9.666 262, 10.305 262 C 12.018 262, 78 195.721, 78 194 C 78 192.279, 12.018 126, 10.305 126 C 9.666 126, 8.436 126.707, 7.571 127.571 M 14 194 L 14 248.495 41.248 221.248 L 68.495 194 41.248 166.752 L 14 139.505 14 194 " stroke="none" fill="black" fill-rule="evenodd"/>
</svg>