<svg xmlns="http://www.w3.org/2000/svg" width="500" height="324" viewBox="0 0 500 324" version="1.1">
	<path d="M 253.500 127.436 C 239.659 130.162, 228.212 136.072, 218.767 145.367 C 191.468 172.233, 191.241 214.145, 218.248 241.152 C 221.080 243.985, 226.120 248.030, 229.449 250.141 L 235.500 253.981 218.684 253.990 C 209.025 253.996, 201.045 254.441, 199.934 255.035 C 197.440 256.370, 197.448 259.634, 199.948 260.972 C 201.256 261.672, 223.132 261.930, 266.589 261.757 C 326.951 261.517, 331.356 261.383, 332.386 259.750 C 333.191 258.474, 333.191 257.526, 332.387 256.250 C 331.413 254.704, 329.140 254.468, 312.895 254.226 L 294.506 253.953 300.003 250.837 C 307.871 246.378, 319.714 233.923, 324.264 225.323 C 329.388 215.638, 332 204.894, 332 193.500 C 332 174.782, 325.805 159.843, 312.500 146.473 C 296.602 130.498, 274.370 123.325, 253.500 127.436 M 386.355 126.992 C 372.952 129.797, 361.502 141.185, 358.861 154.338 C 356.042 168.377, 365.517 197.966, 379.630 219.195 C 385.381 227.846, 400.409 243.785, 408.360 249.666 L 414.220 254 388.044 254 C 371.913 254, 361.126 254.397, 359.934 255.035 C 357.440 256.370, 357.448 259.634, 359.948 260.972 C 361.256 261.672, 383.132 261.930, 426.589 261.757 C 486.951 261.517, 491.356 261.383, 492.386 259.750 C 493.191 258.474, 493.191 257.526, 492.386 256.250 C 491.386 254.663, 488.703 254.475, 463.564 254.234 L 435.844 253.968 441.684 249.578 C 450.324 243.084, 464.841 227.616, 470.852 218.500 C 483.835 198.812, 493.154 171.466, 491.695 157.336 C 489.712 138.116, 470.342 123.432, 451.553 126.906 C 441.707 128.726, 431.940 135.214, 427.350 142.984 C 426.370 144.643, 425.328 145.984, 425.034 145.963 C 424.740 145.943, 423.201 143.878, 421.613 141.374 C 414.853 130.711, 399.164 124.312, 386.355 126.992 M 249.345 135.904 C 240.075 138.557, 232.550 142.761, 225.485 149.235 C 212.108 161.492, 205.917 175.498, 205.917 193.500 C 205.917 211.395, 212.205 225.597, 225.540 237.815 C 252.011 262.072, 294.615 256.786, 314.702 226.753 C 321.900 215.992, 324.500 207.166, 324.500 193.500 C 324.500 184.542, 324.047 181.117, 322.060 175.050 C 315.769 155.839, 299.356 140.581, 279.540 135.522 C 271.580 133.489, 257.143 133.672, 249.345 135.904 M 383.627 135.468 C 371.463 139.804, 363.946 152.643, 366.009 165.558 C 368.632 181.975, 376.204 200.919, 386.007 215.586 C 392.479 225.269, 407.972 240.817, 417.750 247.441 L 425 252.353 432.250 247.441 C 441.877 240.920, 457.491 225.315, 463.719 215.992 C 473.837 200.846, 481.279 182.584, 483.974 166.292 C 485.547 156.781, 483.800 150.326, 477.808 143.519 C 466.764 130.972, 447.745 130.649, 436.773 142.821 C 432.381 147.693, 430.298 152.276, 429.400 159.041 C 428.603 165.054, 426.955 166.756, 423.470 165.168 C 421.687 164.356, 421 163.253, 421 161.203 C 421 151.685, 413.663 140.615, 404.538 136.366 C 398.698 133.646, 389.810 133.265, 383.627 135.468 M 20.169 193.460 C 12.479 202.218, 8.620 212.757, 8.619 225 C 8.618 238.017, 12.746 248.480, 21.814 258.446 L 25.062 262.014 90.172 261.757 C 154.111 261.505, 155.302 261.464, 156.389 259.500 C 156.997 258.400, 158.533 256.035, 159.803 254.244 C 161.072 252.454, 163.548 247.954, 165.305 244.244 C 168.368 237.778, 168.500 236.984, 168.500 225 C 168.500 213.016, 168.368 212.222, 165.305 205.756 C 162.278 199.364, 157.708 192.374, 155.506 190.765 C 154.953 190.361, 124.959 190.024, 88.854 190.015 L 23.207 190 20.169 193.460 M 22.005 203.250 C 13.176 218.522, 14.167 236.864, 24.557 250.485 L 27.237 254 89 254 L 150.763 254 153.442 250.487 C 154.916 248.555, 157.313 244.392, 158.769 241.237 C 161.091 236.204, 161.419 234.211, 161.443 225 C 161.472 213.927, 160.156 209.295, 154.701 201.257 L 152.500 198.014 88.770 198.007 L 25.040 198 22.005 203.250 " stroke="none" fill="black" fill-rule="evenodd"/>
</svg>