<svg xmlns="http://www.w3.org/2000/svg" width="340" height="324" viewBox="0 0 340 324" version="1.1">
	<path d="M 39.571 223.571 C 38.707 224.436, 38 225.636, 38 226.239 C 38 226.841, 43.941 233.334, 51.202 240.667 L 64.405 254 36.774 254 C 12.988 254, 8.924 254.219, 7.571 255.571 C 5.598 257.545, 5.598 258.455, 7.571 260.429 C 8.968 261.825, 16.372 262, 74 262 C 131.628 262, 139.032 261.825, 140.429 260.429 C 142.402 258.455, 142.402 257.545, 140.429 255.571 C 139.076 254.219, 135.012 254, 111.226 254 L 83.595 254 96.798 240.667 C 104.059 233.334, 110 226.841, 110 226.239 C 110 224.817, 107.176 222, 105.751 222 C 105.143 222, 97.750 228.844, 89.323 237.208 L 74 252.416 58.677 237.208 C 50.250 228.844, 42.857 222, 42.249 222 C 41.640 222, 40.436 222.707, 39.571 223.571 M 167.579 255.564 C 166.710 256.432, 166 257.529, 166 258 C 166 258.471, 166.710 259.568, 167.579 260.436 C 168.990 261.847, 176.058 261.987, 234.220 261.757 C 294.934 261.517, 299.356 261.383, 300.386 259.750 C 301.191 258.474, 301.191 257.526, 300.386 256.250 C 299.356 254.617, 294.934 254.483, 234.220 254.243 C 176.058 254.013, 168.990 254.153, 167.579 255.564 M 295.750 287.080 C 294.207 287.979, 294 289.866, 294 303.050 L 294 318 231.571 318 C 175.420 318, 168.980 318.162, 167.527 319.616 C 166.638 320.505, 166.081 321.742, 166.289 322.366 C 166.565 323.196, 184.719 323.500, 234.083 323.500 L 301.500 323.500 301.775 307.113 C 302.001 293.669, 301.773 290.302, 300.502 288.363 C 298.783 285.739, 298.284 285.604, 295.750 287.080 " stroke="none" fill="black" fill-rule="evenodd"/>
</svg>