<svg xmlns="http://www.w3.org/2000/svg" width="308" height="324" viewBox="0 0 308 324" version="1.1">
	<path d="M 126.582 135.250 C 112.571 149.521, 105.499 164.013, 102.855 183.874 C 101.882 191.182, 101.874 195.209, 102.819 202.692 C 105.360 222.808, 112.395 237.222, 127 252.237 L 136.500 262.004 201.298 262.002 L 266.097 262 272.853 255.250 C 285.460 242.656, 292.811 230.627, 297.198 215.415 C 299.089 208.857, 299.481 205.100, 299.481 193.500 C 299.481 181.900, 299.089 178.143, 297.198 171.585 C 292.744 156.139, 282.955 140.496, 271.645 130.750 L 266.134 126 200.898 126 L 135.663 126 126.582 135.250 M 133.360 138.236 C 123.968 146.893, 115.267 161.727, 111.932 174.766 C 109.297 185.067, 109.297 201.933, 111.932 212.234 C 115.368 225.668, 124.216 240.514, 134.065 249.368 L 139.216 254 201.182 254 L 263.148 254 269.194 248.250 C 299.961 218.989, 300.627 170.784, 270.686 140.250 L 264.558 134 201.257 134 L 137.955 134 133.360 138.236 M 39.571 159.571 C 38.707 160.436, 38 161.529, 38 162 C 38 163.111, 40.889 166, 42 166 C 43.111 166, 46 163.111, 46 162 C 46 160.889, 43.111 158, 42 158 C 41.529 158, 40.436 158.707, 39.571 159.571 M 198.611 160.250 C 197.822 161.488, 190.052 176.788, 181.345 194.252 C 168.358 220.298, 165.711 226.318, 166.615 227.752 C 167.623 229.350, 170.573 229.523, 200.990 229.764 C 234.669 230.031, 237 229.813, 237 226.399 C 237 224.424, 205.113 159.692, 203.696 158.791 C 201.634 157.480, 200.096 157.921, 198.611 160.250 M 188.743 196.500 L 176.005 222 201.503 222 C 215.526 222, 227 221.772, 227 221.492 C 227 220.827, 202.070 171, 201.737 171 C 201.597 171, 195.750 182.475, 188.743 196.500 M 7.571 191.571 C 6.707 192.436, 6 193.529, 6 194 C 6 194.471, 6.707 195.564, 7.571 196.429 C 8.936 197.793, 13.463 198, 42 198 C 70.537 198, 75.064 197.793, 76.429 196.429 C 77.293 195.564, 78 194.471, 78 194 C 78 193.529, 77.293 192.436, 76.429 191.571 C 75.064 190.207, 70.537 190, 42 190 C 13.463 190, 8.936 190.207, 7.571 191.571 M 39.571 223.571 C 38.707 224.436, 38 225.529, 38 226 C 38 227.111, 40.889 230, 42 230 C 43.111 230, 46 227.111, 46 226 C 46 224.889, 43.111 222, 42 222 C 41.529 222, 40.436 222.707, 39.571 223.571 " stroke="none" fill="black" fill-rule="evenodd"/>
</svg>