<svg xmlns="http://www.w3.org/2000/svg" width="532" height="324" viewBox="0 0 532 324" version="1.1">
	<path d="M 447.102 127.104 C 420.265 131.182, 396.608 153.741, 391.824 179.817 C 391.250 182.943, 390.152 186.985, 389.382 188.801 C 388.477 190.939, 388.301 192.700, 388.884 193.801 C 389.379 194.735, 390.270 198.656, 390.864 202.513 C 394.346 225.111, 408.462 244.437, 428.457 253.979 C 437.437 258.265, 457.058 262.538, 460.184 260.888 C 461.111 260.400, 463.274 260, 464.991 260 C 470.426 260, 477.208 257.923, 486.933 253.281 C 494.828 249.512, 497.680 247.451, 504.433 240.633 C 517.821 227.116, 524 212.233, 524 193.500 C 524 174.782, 517.805 159.843, 504.500 146.473 C 489.045 130.943, 468.179 123.902, 447.102 127.104 M 442.072 135.591 C 423.603 140.556, 406.762 156.186, 400.899 173.802 C 399.742 177.281, 398.997 180.330, 399.243 180.577 C 399.490 180.824, 402.261 179.890, 405.400 178.502 C 419.516 172.259, 437.095 173.510, 450.250 181.692 L 454 184.025 454 159.013 L 454 134 450.750 134.066 C 448.962 134.102, 445.057 134.788, 442.072 135.591 M 461 161.918 C 461 177.273, 461.265 190.527, 461.589 191.371 C 461.913 192.215, 464.275 194.240, 466.839 195.871 C 480.537 204.588, 499.285 203.960, 513.250 194.317 C 517.706 191.240, 517.873 189.734, 515.003 178.511 C 510.717 161.754, 499.079 147.438, 483.820 140.153 C 476.142 136.487, 467.707 134, 462.951 134 C 461.063 134, 461 134.901, 461 161.918 M 411.276 183.896 C 408.403 184.961, 404.128 187.129, 401.776 188.714 L 397.500 191.595 397.864 198.047 C 399.128 220.431, 414.842 241.384, 436.469 249.525 C 440.061 250.876, 445.474 252.273, 448.499 252.629 L 454 253.275 454 223.256 L 454 193.237 450.485 190.557 C 443.111 184.932, 436.244 182.609, 426 182.272 C 418.504 182.026, 415.398 182.368, 411.276 183.896 M 7.571 191.571 C 6.707 192.436, 6 193.529, 6 194 C 6 194.471, 6.707 195.564, 7.571 196.429 C 8.844 197.701, 11.697 198, 22.575 198 L 36.006 198 21.020 227.961 C 12.777 244.439, 6.285 258.580, 6.594 259.384 C 7.265 261.133, 9.512 262.125, 11.274 261.448 C 11.975 261.180, 19.056 247.919, 27.010 231.980 C 34.964 216.041, 41.710 203, 42 203 C 42.290 203, 49.036 216.041, 56.990 231.980 C 64.944 247.919, 72.025 261.180, 72.726 261.448 C 73.427 261.717, 74.573 261.717, 75.274 261.448 C 75.975 261.180, 83.056 247.919, 91.010 231.980 C 98.964 216.041, 105.710 203, 106 203 C 106.290 203, 113.036 216.041, 120.990 231.980 C 128.944 247.919, 136.108 261.211, 136.909 261.519 C 137.711 261.826, 139.218 261.226, 140.260 260.185 C 142.117 258.328, 141.868 257.724, 127.073 228.146 L 111.994 198 125.342 198 C 137.420 198, 138.862 197.810, 140.500 196 C 142.247 194.070, 142.247 193.930, 140.500 192 C 138.726 190.039, 137.420 190, 73.916 190 C 16.365 190, 8.968 190.175, 7.571 191.571 M 195.045 191.064 C 180.708 193.967, 169.545 205.276, 166.901 219.575 C 165.772 225.686, 166.282 228.511, 168.683 229.432 C 171.390 230.471, 173.998 227.131, 174.022 222.595 C 174.048 217.824, 176.543 211.860, 180.451 207.230 C 189.590 196.403, 208.108 194.871, 219.211 204.022 C 223.432 207.501, 228.987 217.905, 229.029 222.410 C 229.074 227.214, 232.416 238.328, 235.290 243.232 C 248.435 265.662, 280.749 266.209, 294.847 244.239 C 297.693 239.804, 301.078 228.607, 302.500 218.927 C 303.612 211.352, 311.582 202.341, 319.748 199.427 C 324.422 197.759, 333.601 197.625, 338.101 199.159 C 347.516 202.368, 355.285 211.558, 356.560 220.995 C 357.441 227.522, 357.891 228.744, 359.665 229.425 C 362.845 230.645, 364.235 227.983, 363.778 221.542 C 363.214 213.580, 359.845 206.734, 353.342 200.339 C 337.264 184.530, 309.611 188.744, 298.790 208.652 C 296.206 213.404, 293 224.896, 293 229.402 C 293 230.655, 291.589 234.505, 289.864 237.957 C 286.620 244.449, 281.340 249.220, 274.684 251.674 C 270.654 253.160, 261.625 253.301, 256.775 251.954 C 247.965 249.508, 239.766 239.906, 237.986 229.951 C 234.817 212.227, 232.172 206.138, 224.738 199.454 C 217.001 192.498, 204.878 189.072, 195.045 191.064 M 60.743 223.500 C 67.750 237.525, 73.715 249, 74 249 C 74.285 249, 80.250 237.525, 87.257 223.500 L 99.995 198 74 198 L 48.005 198 60.743 223.500 M 509.500 204.542 C 494.497 211.792, 482.445 211.230, 462.250 202.336 C 461.268 201.904, 461 207.281, 461 227.393 C 461 256.515, 460.055 253.997, 470.201 251.910 C 491.493 247.530, 510.539 228.714, 515.405 207.250 C 516.185 203.813, 516.750 201.036, 516.661 201.080 C 516.573 201.123, 513.350 202.682, 509.500 204.542 " stroke="none" fill="black" fill-rule="evenodd"/>
</svg>