<svg xmlns="http://www.w3.org/2000/svg" width="340" height="324" viewBox="0 0 340 324" version="1.1">
	<path d="M 327.750 127.080 C 326.111 128.035, 326 132.293, 326 194.015 C 326 259.587, 326.011 259.935, 328.064 261.034 C 333.084 263.721, 333 264.854, 333 194.078 C 333 123.068, 333.071 123.981, 327.750 127.080 M 7.579 191.564 C 5.598 193.545, 5.596 194.454, 7.571 196.429 C 8.844 197.701, 11.697 198, 22.575 198 L 36.006 198 21.020 227.961 C 12.777 244.439, 6.285 258.580, 6.594 259.384 C 7.265 261.133, 9.512 262.125, 11.274 261.448 C 11.975 261.180, 19.056 247.919, 27.010 231.980 C 34.964 216.041, 41.717 203, 42.016 203 C 42.315 203, 49.042 216.034, 56.965 231.964 C 64.888 247.894, 71.962 261.155, 72.685 261.433 C 73.408 261.710, 74.573 261.717, 75.274 261.448 C 75.975 261.180, 83.056 247.919, 91.010 231.980 C 98.964 216.041, 105.710 203, 106 203 C 106.290 203, 113.036 216.041, 120.990 231.980 C 128.944 247.919, 136.083 261.201, 136.853 261.497 C 138.718 262.213, 141 260.217, 141 257.871 C 141 256.835, 134.480 242.952, 126.511 227.021 L 112.021 198.056 125.653 197.778 C 137.361 197.539, 139.441 197.253, 140.388 195.750 C 141.191 194.475, 141.190 193.525, 140.386 192.250 C 139.356 190.617, 134.934 190.483, 74.220 190.243 C 16.058 190.013, 8.990 190.153, 7.579 191.564 M 167.200 191.200 C 166.540 191.860, 166.021 192.873, 166.047 193.450 C 166.158 195.899, 199.849 261.522, 201.112 261.749 C 201.875 261.886, 203.008 261.661, 203.630 261.249 C 204.251 260.837, 211.283 247.453, 219.255 231.507 L 233.750 202.514 248.337 231.674 C 256.360 247.713, 263.395 261.126, 263.971 261.482 C 266.896 263.290, 269.237 259.553, 285.251 227.508 C 294.463 209.074, 302 193.801, 302 193.568 C 302 193.334, 301.293 192.436, 300.429 191.571 C 299.032 190.175, 291.594 190, 233.629 190 C 184.229 190, 168.109 190.291, 167.200 191.200 M 60.743 223.500 C 67.750 237.525, 73.715 249, 74 249 C 74.285 249, 80.250 237.525, 87.257 223.500 L 99.995 198 74 198 L 48.005 198 60.743 223.500 M 188.743 223.500 C 195.750 237.525, 201.715 249, 202 249 C 202.285 249, 208.250 237.525, 215.257 223.500 L 227.995 198 202 198 L 176.005 198 188.743 223.500 M 252.608 223.250 C 259.546 237.137, 265.371 248.661, 265.553 248.859 C 265.878 249.211, 291 199.502, 291 198.508 C 291 198.228, 279.523 198, 265.496 198 L 239.992 198 252.608 223.250 " stroke="none" fill="black" fill-rule="evenodd"/>
</svg>