<svg xmlns="http://www.w3.org/2000/svg" width="84" height="324" viewBox="0 0 84 324" version="1.1">
	<path d="M 40.372 62.765 C 38.418 64.037, 22.003 97.844, 22.593 99.381 C 23.268 101.141, 25.513 102.124, 27.295 101.440 C 28.007 101.167, 31.480 95.106, 35.014 87.972 C 38.547 80.837, 41.691 75, 42 75 C 42.309 75, 45.453 80.837, 48.986 87.972 C 52.520 95.106, 55.993 101.167, 56.705 101.440 C 58.487 102.124, 60.732 101.141, 61.407 99.381 C 61.716 98.575, 58.096 90.173, 53.363 80.708 C 45.638 65.261, 43.672 62.031, 42 62.031 C 41.725 62.031, 40.992 62.361, 40.372 62.765 M 7.571 127.571 C 6.707 128.436, 6 129.640, 6 130.249 C 6 130.857, 12.844 138.250, 21.208 146.677 L 36.416 162 21.208 177.323 C 12.844 185.750, 6 193.143, 6 193.751 C 6 196.313, 9.250 198, 14.188 198 L 19.233 198 15.660 201.955 C -2.973 222.579, 8.042 254.643, 35.604 260.013 C 58.718 264.517, 80.546 242.700, 76.007 219.628 C 74.555 212.252, 72.077 207.198, 67.340 201.955 L 63.767 198 69.312 198 C 74.753 198, 78 196.412, 78 193.751 C 78 193.143, 71.156 185.750, 62.792 177.323 L 47.584 162 62.792 146.677 C 71.156 138.250, 78 130.857, 78 130.249 C 78 128.819, 75.181 126, 73.751 126 C 73.143 126, 65.750 132.844, 57.323 141.208 L 42 156.416 26.677 141.208 C 18.250 132.844, 10.857 126, 10.249 126 C 9.640 126, 8.436 126.707, 7.571 127.571 M 30.500 179 L 19.534 190 42 190 L 64.466 190 53.500 179 C 47.469 172.950, 42.294 168, 42 168 C 41.706 168, 36.531 172.950, 30.500 179 M 31.054 199.728 C 25.018 201.859, 17.781 209.260, 15.667 215.463 C 11.995 226.241, 14.382 237.477, 21.952 245.048 C 32.673 255.769, 50.327 255.769, 61.048 245.048 C 71.769 234.327, 71.769 216.673, 61.048 205.952 C 53.519 198.424, 41.696 195.970, 31.054 199.728 M 39.571 223.571 C 38.707 224.436, 38 225.529, 38 226 C 38 227.111, 40.889 230, 42 230 C 43.111 230, 46 227.111, 46 226 C 46 224.889, 43.111 222, 42 222 C 41.529 222, 40.436 222.707, 39.571 223.571 " stroke="none" fill="black" fill-rule="evenodd"/>
</svg>