<svg xmlns="http://www.w3.org/2000/svg" width="212" height="324" viewBox="0 0 212 324" version="1.1">
	<path d="M 72.372 62.765 C 70.418 64.037, 54.003 97.844, 54.593 99.381 C 55.268 101.141, 57.513 102.124, 59.295 101.440 C 60.007 101.167, 63.480 95.106, 67.014 87.972 C 70.547 80.837, 73.692 75, 74.003 75 C 74.313 75, 77.252 80.432, 80.533 87.070 C 83.815 93.709, 87.222 99.795, 88.105 100.594 C 89.890 102.210, 92.550 101.615, 93.396 99.410 C 93.993 97.855, 77.631 64.022, 75.684 62.784 C 74.211 61.847, 73.786 61.845, 72.372 62.765 M 89.692 173.173 L 41.883 220.300 26.619 205.150 C 18.224 196.818, 10.857 190, 10.249 190 C 8.819 190, 6 192.819, 6 194.249 C 6 194.857, 12.844 202.250, 21.208 210.677 L 36.416 226 21.208 241.323 C 12.844 249.750, 6 257.143, 6 257.751 C 6 259.181, 8.819 262, 10.249 262 C 10.857 262, 18.250 255.156, 26.677 246.792 L 42 231.584 57.323 246.792 C 65.750 255.156, 73.143 262, 73.751 262 C 75.181 262, 78 259.181, 78 257.751 C 78 257.143, 71.150 249.744, 62.778 241.309 L 47.556 225.972 94.778 178.712 C 120.750 152.718, 142 130.932, 142 130.297 C 142 129.038, 139.271 125.986, 138.179 126.023 C 137.805 126.036, 115.986 147.253, 89.692 173.173 M 168.200 159.200 C 166.492 160.908, 166.492 211.092, 168.200 212.800 C 169.781 214.381, 170.543 214.315, 172.429 212.429 C 174.785 210.073, 174.785 161.927, 172.429 159.571 C 170.543 157.685, 169.781 157.619, 168.200 159.200 M 168.200 222.200 C 166.111 224.289, 167.447 229, 170.129 229 C 171.139 229, 174 226.044, 174 225 C 174 223.956, 171.139 221, 170.129 221 C 169.728 221, 168.860 221.540, 168.200 222.200 " stroke="none" fill="black" fill-rule="evenodd"/>
</svg>