<svg xmlns="http://www.w3.org/2000/svg" width="372" height="324" viewBox="0 0 372 324" version="1.1">
	<path d="M 263.571 95.571 C 262.288 96.855, 262 99.788, 262 111.571 L 262 126 247.200 126 C 237.022 126, 232.025 126.375, 231.200 127.200 C 229.465 128.935, 229.465 259.065, 231.200 260.800 C 232.025 261.625, 237.022 262, 247.200 262 L 262 262 262 276.429 C 262 288.212, 262.288 291.145, 263.571 292.429 C 264.436 293.293, 265.529 294, 266 294 C 266.471 294, 267.564 293.293, 268.429 292.429 C 269.712 291.145, 270 288.212, 270 276.429 L 270 262 298 262 L 326 262 326 276.429 C 326 288.212, 326.288 291.145, 327.571 292.429 C 329.545 294.402, 330.455 294.402, 332.429 292.429 C 333.712 291.145, 334 288.212, 334 276.429 L 334 262 348.800 262 C 358.978 262, 363.975 261.625, 364.800 260.800 C 366.535 259.065, 366.535 128.935, 364.800 127.200 C 363.975 126.375, 358.978 126, 348.800 126 L 334 126 334 111.571 C 334 99.788, 333.712 96.855, 332.429 95.571 C 330.455 93.598, 329.545 93.598, 327.571 95.571 C 326.288 96.855, 326 99.788, 326 111.571 L 326 126 298 126 L 270 126 270 111.571 C 270 99.788, 269.712 96.855, 268.429 95.571 C 267.564 94.707, 266.471 94, 266 94 C 265.529 94, 264.436 94.707, 263.571 95.571 M 71.200 127.200 C 69.465 128.935, 69.465 259.065, 71.200 260.800 C 72.935 262.535, 203.065 262.535, 204.800 260.800 C 206.535 259.065, 206.535 128.935, 204.800 127.200 C 203.065 125.465, 72.935 125.465, 71.200 127.200 M 78 194 L 78 254 106 254 L 134 254 134 194 L 134 134 106 134 L 78 134 78 194 M 142 194 L 142 254 170 254 L 198 254 198 194 L 198 134 170 134 L 142 134 142 194 M 238 194 L 238 254 298 254 L 358 254 358 194 L 358 134 298 134 L 238 134 238 194 M 7.200 191.200 C 5.512 192.888, 5.512 227.112, 7.200 228.800 C 7.987 229.587, 12.156 230, 19.300 230 L 30.200 230 33.600 233.400 C 36.478 236.278, 37 237.504, 37 241.384 C 37 250.249, 30.959 253.927, 16.321 253.976 C 11.154 253.993, 8.703 254.440, 7.571 255.571 C 5.598 257.545, 5.598 258.455, 7.571 260.429 C 8.755 261.612, 11.252 262, 17.678 262 C 25.126 262, 27.027 261.612, 32.590 258.957 C 37.753 256.493, 39.486 255.027, 41.697 251.254 C 47.170 241.915, 44.132 230.253, 34.872 225.048 C 31.551 223.182, 28.627 222.517, 22.274 222.183 L 14 221.749 14 209.875 L 14 198 28.429 198 C 40.212 198, 43.145 197.712, 44.429 196.429 C 46.402 194.455, 46.402 193.545, 44.429 191.571 C 43.122 190.264, 39.958 190, 25.629 190 C 13.562 190, 8.040 190.360, 7.200 191.200 " stroke="none" fill="black" fill-rule="evenodd"/>
</svg>