<svg xmlns="http://www.w3.org/2000/svg" width="308" height="324" viewBox="0 0 308 324" version="1.1">
	<path d="M 230.652 64.189 C 229.841 65.460, 214.852 95.187, 197.343 130.249 C 171.098 182.805, 165.702 194.305, 166.612 195.749 C 167.559 197.253, 169.636 197.539, 181.357 197.778 C 188.861 197.931, 195 198.267, 195 198.524 C 195 198.781, 188.365 212.269, 180.257 228.498 C 168.169 252.690, 165.712 258.320, 166.616 259.752 C 167.647 261.387, 171.973 261.500, 233.500 261.500 C 295.027 261.500, 299.353 261.387, 300.384 259.752 C 301.288 258.320, 298.831 252.690, 286.743 228.498 C 278.635 212.269, 272 198.781, 272 198.524 C 272 198.267, 278.139 197.931, 285.643 197.778 C 297.378 197.539, 299.440 197.254, 300.391 195.744 C 301.305 194.294, 295.759 182.557, 268.499 128.244 C 246.523 84.461, 234.937 62.396, 233.813 62.189 C 232.885 62.018, 231.463 62.918, 230.652 64.189 M 214.071 113.250 C 203.740 134.287, 190.946 160.162, 185.639 170.750 L 175.990 190 187.745 189.999 L 199.500 189.998 215.500 158.249 C 228.476 132.500, 231.878 126.500, 233.500 126.500 C 235.122 126.500, 238.524 132.500, 251.500 158.249 L 267.500 189.998 279.250 189.999 C 285.712 190, 291 189.773, 291 189.497 C 291 188.424, 233.964 75, 233.425 75 C 233.111 75, 224.401 92.213, 214.071 113.250 M 39.230 159.285 L 6 192.569 6 225.713 C 6 254.511, 6.206 259.063, 7.571 260.429 C 8.968 261.825, 16.343 261.998, 73.821 261.985 C 109.395 261.976, 139.081 261.601, 139.790 261.151 C 140.802 260.509, 141.081 253.044, 141.083 226.553 L 141.086 192.774 108.215 159.387 C 90.135 141.024, 74.694 126, 73.902 126 C 73.109 126, 57.506 140.978, 39.230 159.285 M 43.744 165.756 L 14 195.512 14 224.756 L 14 254 74 254 L 134 254 134 224.744 L 134 195.487 104.244 165.744 C 87.878 149.385, 74.263 136, 73.988 136 C 73.713 136, 60.103 149.390, 43.744 165.756 M 204.680 196.250 L 176.407 253.500 233.362 253.758 C 264.687 253.900, 290.496 253.837, 290.715 253.618 C 291.203 253.131, 234.207 139, 233.475 139 C 233.189 139, 220.231 164.762, 204.680 196.250 " stroke="none" fill="black" fill-rule="evenodd"/>
</svg>