<svg xmlns="http://www.w3.org/2000/svg" width="468" height="324" viewBox="0 0 468 324" version="1.1">
	<path d="M 7.571 127.571 C 6.707 128.436, 6 129.529, 6 130 C 6 130.471, 6.707 131.564, 7.571 132.429 C 8.966 133.824, 16.152 134, 71.571 134 L 134 134 134 194 L 134 254 71.571 254 C 16.152 254, 8.966 254.176, 7.571 255.571 C 5.598 257.545, 5.598 258.455, 7.571 260.429 C 8.968 261.825, 16.372 262, 74 262 C 131.628 262, 139.032 261.825, 140.429 260.429 C 141.825 259.032, 142 251.628, 142 194 C 142 136.372, 141.825 128.968, 140.429 127.571 C 139.032 126.175, 131.628 126, 74 126 C 16.372 126, 8.968 126.175, 7.571 127.571 M 215.213 143.315 C 205.746 152.838, 198 161.131, 198 161.743 C 198 163.175, 200.813 166, 202.239 166 C 202.841 166, 209.334 160.059, 216.667 152.798 L 230 139.595 230 196.298 C 230 251.856, 229.961 253, 228.049 253 C 223.279 253, 214.848 250.508, 207.101 246.809 C 188.438 237.897, 174.082 216.426, 174.015 197.321 C 174.001 193.426, 172.122 190, 170 190 C 169.529 190, 168.399 190.743, 167.491 191.652 C 164.366 194.777, 167.569 211.386, 173.692 223.806 C 180.199 237.006, 194.307 250.007, 208.314 255.712 C 217.177 259.321, 232.914 261.930, 238.829 260.771 C 260.952 256.434, 268.121 252.956, 280.539 240.539 C 292.935 228.143, 298.454 216.744, 300.457 199.402 C 301.032 194.418, 300.859 193.002, 299.509 191.652 C 298.601 190.743, 297.471 190, 297 190 C 294.946 190, 293 193.416, 293 197.022 C 293 216.251, 278.630 237.865, 259.899 246.809 C 252.473 250.355, 243.737 253, 239.451 253 C 238.200 253, 238 245.178, 238 196.298 L 238 139.595 251.333 152.798 C 258.666 160.059, 265.159 166, 265.761 166 C 267.187 166, 270 163.175, 270 161.743 C 270 159.994, 235.761 126, 234 126 C 233.134 126, 224.680 133.792, 215.213 143.315 M 381.500 127.401 C 356.255 132.270, 335.601 151.354, 328.364 176.500 C 326.900 181.586, 326.577 188.303, 326.246 220.606 C 325.893 254.956, 326.017 258.874, 327.499 260.356 C 328.990 261.848, 335.157 262, 394 262 C 451.628 262, 459.032 261.825, 460.429 260.429 C 461.792 259.066, 461.998 254.656, 461.987 227.179 C 461.976 200.654, 461.669 193.792, 460.099 185 C 456.838 166.727, 451.171 156.026, 438.472 144.168 C 423.247 129.949, 401.491 123.546, 381.500 127.401 M 379 135.576 C 362.069 140.023, 347.451 151.897, 340.191 167.101 C 337.985 171.720, 335.690 177.885, 335.090 180.799 C 334.429 184.014, 334 199.452, 334 220.049 L 334 254 394.114 254 L 454.228 254 453.742 219.750 C 453.202 181.762, 452.886 179.471, 446.330 166.046 C 439.277 151.605, 424.223 139.756, 407.540 135.515 C 400.134 133.632, 386.288 133.662, 379 135.576 " stroke="none" fill="black" fill-rule="evenodd"/>
</svg>