<svg xmlns="http://www.w3.org/2000/svg" width="372" height="324" viewBox="0 0 372 324" version="1.1">
	<path d="M 39.571 127.571 C 38.176 128.966, 38 136.152, 38 191.571 L 38 254 23.571 254 C 11.788 254, 8.855 254.288, 7.571 255.571 C 5.598 257.545, 5.598 258.455, 7.571 260.429 C 8.936 261.793, 13.463 262, 42 262 C 70.537 262, 75.064 261.793, 76.429 260.429 C 77.293 259.564, 78 258.471, 78 258 C 78 257.529, 77.293 256.436, 76.429 255.571 C 75.145 254.288, 72.212 254, 60.429 254 L 46 254 46 191.571 C 46 136.152, 45.824 128.966, 44.429 127.571 C 43.564 126.707, 42.471 126, 42 126 C 41.529 126, 40.436 126.707, 39.571 127.571 M 168.369 126.765 C 166.390 128.050, 102.009 257.860, 102.594 259.385 C 103.263 261.129, 105.511 262.125, 107.262 261.453 C 107.956 261.187, 121.431 235.213, 137.206 203.734 L 165.888 146.500 165.944 200.250 L 166 254 151.571 254 C 139.788 254, 136.855 254.288, 135.571 255.571 C 133.598 257.545, 133.598 258.455, 135.571 260.429 C 136.936 261.793, 141.463 262, 170 262 C 198.537 262, 203.064 261.793, 204.429 260.429 C 205.293 259.564, 206 258.471, 206 258 C 206 257.529, 205.293 256.436, 204.429 255.571 C 203.145 254.288, 200.212 254, 188.429 254 L 174 254 174 191.571 C 174 136.152, 173.824 128.966, 172.429 127.571 C 170.680 125.822, 170.022 125.692, 168.369 126.765 M 289.384 127.412 C 271.480 131.757, 259.543 149.833, 262.993 167.372 C 263.651 170.715, 265.079 175.194, 266.166 177.325 C 268.765 182.419, 275.066 189.182, 279.377 191.503 L 282.824 193.360 278.662 196.005 C 266.797 203.544, 260.388 218.007, 262.978 231.396 C 263.628 234.753, 265.222 239.423, 266.522 241.772 L 268.884 246.045 265.726 244.272 C 259.716 240.900, 248.627 228.803, 244.757 221.397 C 240.760 213.749, 238.039 204.029, 238.015 197.321 C 238.001 193.426, 236.122 190, 234 190 C 233.529 190, 232.411 190.732, 231.515 191.627 C 228.440 194.703, 231.720 211.693, 237.765 224 C 242.167 232.963, 255.342 246.899, 264 251.751 C 275.225 258.041, 294.282 262.452, 302.877 260.748 C 325.027 256.357, 332.203 252.876, 344.535 240.539 C 351.559 233.512, 354.376 229.831, 357.193 224 C 363.276 211.409, 366.528 194.671, 363.485 191.627 C 362.589 190.732, 361.471 190, 361 190 C 358.878 190, 356.999 193.426, 356.985 197.321 C 356.961 204.029, 354.240 213.749, 350.243 221.397 C 346.373 228.803, 335.284 240.900, 329.274 244.272 L 326.116 246.045 328.478 241.772 C 337.071 226.234, 331.630 205.722, 316.338 196.005 L 312.176 193.360 315.623 191.503 C 319.934 189.182, 326.235 182.419, 328.834 177.325 C 339.106 157.191, 327.453 132.611, 305.147 127.360 C 298.397 125.772, 296.111 125.779, 289.384 127.412 M 287.054 135.728 C 281.018 137.859, 273.781 145.260, 271.667 151.463 C 266.058 167.925, 274.847 184.571, 291.250 188.550 L 294 189.217 294 161.608 C 294 140.146, 293.722 134.018, 292.750 134.079 C 292.063 134.122, 289.499 134.864, 287.054 135.728 M 302 161.500 L 302 189.135 304.250 188.475 C 317.167 184.686, 325 174.503, 325 161.500 C 325 148.497, 317.167 138.314, 304.250 134.525 L 302 133.865 302 161.500 M 287.054 199.728 C 281.018 201.859, 273.781 209.260, 271.667 215.463 C 266.058 231.925, 274.847 248.571, 291.250 252.550 L 294 253.217 294 225.608 C 294 204.146, 293.722 198.018, 292.750 198.079 C 292.063 198.122, 289.499 198.864, 287.054 199.728 M 302 225.500 L 302 253.135 304.250 252.475 C 317.167 248.686, 325 238.503, 325 225.500 C 325 212.497, 317.167 202.314, 304.250 198.525 L 302 197.865 302 225.500 " stroke="none" fill="black" fill-rule="evenodd"/>
</svg>