<svg xmlns="http://www.w3.org/2000/svg" width="340" height="324" viewBox="0 0 340 324" version="1.1">
	<path d="M 135.571 127.571 C 134.707 128.436, 134 129.529, 134 130 C 134 130.471, 134.707 131.564, 135.571 132.429 C 136.966 133.824, 144.152 134, 199.571 134 L 262 134 262 194 L 262 254 135.571 254 C 21.970 254, 8.983 254.159, 7.571 255.571 C 5.598 257.545, 5.598 258.455, 7.571 260.429 C 8.984 261.841, 22.190 262, 138 262 C 253.810 262, 267.016 261.841, 268.429 260.429 C 269.825 259.032, 270 251.628, 270 194 C 270 136.372, 269.825 128.968, 268.429 127.571 C 267.032 126.175, 259.628 126, 202 126 C 144.372 126, 136.968 126.175, 135.571 127.571 M 307.102 130.270 C 298.742 140.678, 294.748 155.205, 296.728 168 C 297.946 175.870, 302.148 185.538, 306.923 191.461 L 310.117 195.423 309.928 227.419 C 309.741 259.062, 309.763 259.430, 311.870 260.830 C 313.580 261.965, 314.297 261.999, 315.500 261 C 316.325 260.315, 317 259.290, 317 258.722 C 317 258.154, 318.150 256.181, 319.555 254.339 C 320.960 252.496, 323.548 247.954, 325.305 244.244 C 328.368 237.778, 328.500 236.984, 328.500 225 C 328.500 213.406, 328.297 212.065, 325.701 206.500 C 324.161 203.200, 321.686 198.739, 320.201 196.588 L 317.500 192.675 317 159.588 L 316.500 126.500 313.500 126.270 C 311.044 126.082, 309.884 126.807, 307.102 130.270 M 307.026 144.500 C 304.828 148.943, 304.553 150.780, 304.553 161 C 304.553 171.220, 304.828 173.057, 307.026 177.500 L 309.500 182.500 309.784 171.750 C 309.940 165.838, 309.940 156.162, 309.784 150.250 L 309.500 139.500 307.026 144.500 M 317 225 C 317 236.601, 317.350 243.049, 317.948 242.450 C 319.462 240.934, 322 230.003, 322 225 C 322 219.997, 319.462 209.066, 317.948 207.550 C 317.350 206.951, 317 213.399, 317 225 " stroke="none" fill="black" fill-rule="evenodd"/>
</svg>