<svg xmlns="http://www.w3.org/2000/svg" width="372" height="324" viewBox="0 0 372 324" version="1.1">
	<path d="M 103.571 95.571 C 102.219 96.924, 102 100.988, 102 124.774 L 102 152.405 88.667 139.202 C 81.334 131.941, 74.841 126, 74.239 126 C 72.813 126, 70 128.825, 70 130.257 C 70 132.006, 104.239 166, 106 166 C 107.761 166, 142 132.006, 142 130.257 C 142 128.825, 139.187 126, 137.761 126 C 137.159 126, 130.666 131.941, 123.333 139.202 L 110 152.405 110 124.774 C 110 100.988, 109.781 96.924, 108.429 95.571 C 107.564 94.707, 106.471 94, 106 94 C 105.529 94, 104.436 94.707, 103.571 95.571 M 285.500 127.401 C 270.645 130.266, 259.144 136.774, 248.168 148.528 C 237.839 159.588, 232.206 172.225, 230.499 188.168 C 229.924 193.530, 230.094 194.951, 231.473 196.330 C 233.547 198.404, 234.435 198.422, 236.429 196.429 C 237.413 195.444, 238 193.095, 238 190.139 C 238 187.544, 238.682 182.738, 239.515 179.460 C 246.351 152.568, 270.034 134, 297.500 134 C 324.966 134, 348.649 152.568, 355.485 179.460 C 356.318 182.738, 357 187.544, 357 190.139 C 357 193.095, 357.587 195.444, 358.571 196.429 C 360.565 198.422, 361.453 198.404, 363.527 196.330 C 366.769 193.088, 363.517 175.834, 357.244 163 C 352.086 152.448, 338.552 138.914, 328 133.756 C 314.332 127.076, 299.043 124.790, 285.500 127.401 M 39.571 159.571 C 38.707 160.436, 38 161.636, 38 162.239 C 38 162.841, 43.941 169.334, 51.202 176.667 L 64.405 190 36.774 190 C 12.988 190, 8.924 190.219, 7.571 191.571 C 5.598 193.545, 5.598 194.455, 7.571 196.429 C 8.924 197.781, 12.988 198, 36.774 198 L 64.405 198 51.202 211.333 C 43.941 218.666, 38 225.159, 38 225.761 C 38 227.187, 40.825 230, 42.257 230 C 44.006 230, 78 195.761, 78 194 C 78 192.239, 44.006 158, 42.257 158 C 41.644 158, 40.436 158.707, 39.571 159.571 M 151.315 175.213 C 141.792 184.680, 134 193.134, 134 194 C 134 195.761, 167.994 230, 169.743 230 C 171.175 230, 174 227.187, 174 225.761 C 174 225.159, 168.059 218.666, 160.798 211.333 L 147.595 198 175.226 198 C 199.012 198, 203.076 197.781, 204.429 196.429 C 206.402 194.455, 206.402 193.545, 204.429 191.571 C 203.076 190.219, 199.012 190, 175.226 190 L 147.595 190 160.798 176.667 C 168.059 169.334, 174 162.841, 174 162.239 C 174 160.813, 171.175 158, 169.743 158 C 169.131 158, 160.838 165.746, 151.315 175.213 M 295.571 159.571 C 294.227 160.916, 294 164.736, 294 186 C 294 207.264, 294.227 211.084, 295.571 212.429 C 296.436 213.293, 297.529 214, 298 214 C 298.471 214, 299.564 213.293, 300.429 212.429 C 301.773 211.084, 302 207.264, 302 186 C 302 164.736, 301.773 160.916, 300.429 159.571 C 299.564 158.707, 298.471 158, 298 158 C 297.529 158, 296.436 158.707, 295.571 159.571 M 295.571 222.571 C 294.707 223.436, 294 224.529, 294 225 C 294 226.111, 296.889 229, 298 229 C 299.111 229, 302 226.111, 302 225 C 302 223.889, 299.111 221, 298 221 C 297.529 221, 296.436 221.707, 295.571 222.571 M 87.213 239.315 C 77.746 248.838, 70 257.131, 70 257.743 C 70 259.175, 72.813 262, 74.239 262 C 74.841 262, 81.334 256.059, 88.667 248.798 L 102 235.595 102 263.226 C 102 287.012, 102.219 291.076, 103.571 292.429 C 104.436 293.293, 105.529 294, 106 294 C 106.471 294, 107.564 293.293, 108.429 292.429 C 109.781 291.076, 110 287.012, 110 263.226 L 110 235.595 123.333 248.798 C 130.666 256.059, 137.159 262, 137.761 262 C 139.187 262, 142 259.175, 142 257.743 C 142 255.994, 107.761 222, 106 222 C 105.134 222, 96.680 229.792, 87.213 239.315 " stroke="none" fill="black" fill-rule="evenodd"/>
</svg>