<svg xmlns="http://www.w3.org/2000/svg" width="276" height="324" viewBox="0 0 276 324" version="1.1">
	<path d="M 95.870 127.071 C 82.123 129.090, 70.356 134.869, 59.895 144.738 C 52.200 151.997, 46.884 159.480, 43.492 167.828 C 41.496 172.740, 40.638 176.249, 38.409 188.620 C 38.119 190.232, 37.044 190.897, 33.922 191.397 C 25.196 192.792, 15.433 200.093, 10.768 208.712 C -1.903 232.120, 14.953 260.405, 41.500 260.281 C 66.177 260.166, 82.976 235.700, 74.102 212.798 C 70.156 202.616, 59.495 193.279, 49.750 191.473 C 45.345 190.656, 45.116 189.375, 47.537 179.103 C 53.323 154.559, 78.127 134.091, 102.179 134.015 C 106.567 134.001, 110 132.239, 110 130 C 110 129.529, 109.293 128.436, 108.429 127.571 C 106.733 125.875, 104.589 125.790, 95.870 127.071 M 163.045 127.092 C 147.977 130.046, 136.919 142.108, 134.587 158.135 C 134.064 161.723, 134.277 163.134, 135.527 164.385 C 136.416 165.273, 137.529 166, 138 166 C 139.912 166, 142 162.663, 142 159.607 C 142 149.949, 150.088 138.862, 159.463 135.667 C 170.241 131.995, 181.477 134.382, 189.048 141.952 C 197.456 150.360, 197.311 149.285, 197.944 208.287 C 198.422 252.820, 198.710 260.208, 200 261.022 C 202.053 262.319, 202.613 262.244, 204.429 260.429 C 205.816 259.041, 206 252.865, 206 207.607 C 206 149.063, 205.884 150.021, 213.952 141.952 C 224.673 131.231, 242.327 131.231, 253.048 141.952 C 257.897 146.802, 261 153.690, 261 159.607 C 261 162.663, 263.088 166, 265 166 C 265.471 166, 266.584 165.273, 267.473 164.385 C 270.944 160.913, 266.375 145.858, 259.545 138.261 C 244.054 121.032, 216.355 123.227, 204.005 142.662 L 201.360 146.824 199.503 143.377 C 197.181 139.064, 190.418 132.764, 185.318 130.162 C 183.183 129.073, 178.781 127.691, 175.535 127.091 C 168.969 125.877, 169.243 125.877, 163.045 127.092 M 31.054 199.728 C 25.018 201.859, 17.781 209.260, 15.667 215.463 C 11.995 226.241, 14.382 237.477, 21.952 245.048 C 32.673 255.769, 50.327 255.769, 61.048 245.048 C 71.769 234.327, 71.769 216.673, 61.048 205.952 C 53.519 198.424, 41.696 195.970, 31.054 199.728 " stroke="none" fill="black" fill-rule="evenodd"/>
</svg>