<svg xmlns="http://www.w3.org/2000/svg" width="403" height="324" viewBox="0 0 403 324" version="1.1">
	<path d="M 71.750 127.080 C 70.145 128.015, 70 130.581, 70 158.053 L 70 188.006 40.039 173.020 C 23.561 164.777, 9.420 158.285, 8.616 158.594 C 6.870 159.264, 5.875 161.511, 6.549 163.266 C 6.816 163.962, 21.202 171.611, 38.517 180.264 L 70 195.996 70 227.963 C 70 258.544, 70.084 259.975, 71.934 260.965 C 74.286 262.224, 201.829 262.395, 203.804 261.142 C 204.833 260.490, 205.092 253.932, 205.030 230.157 C 204.987 213.571, 205.190 200, 205.482 200 C 205.774 200, 219.550 206.772, 236.096 215.048 C 260.614 227.312, 266.449 229.872, 267.638 228.886 C 271.686 225.526, 269.451 223.979, 236.732 207.500 L 204.964 191.500 205.033 159.591 C 205.088 134.419, 204.828 127.507, 203.802 126.856 C 201.851 125.619, 73.886 125.836, 71.750 127.080 M 322.355 126.992 C 312.044 129.150, 302.073 137.080, 297.205 146.993 C 294.861 151.764, 294.504 153.702, 294.534 161.500 C 294.562 169.177, 294.961 171.310, 297.244 176.013 C 298.716 179.044, 301.851 183.493, 304.210 185.899 C 308.910 190.689, 318.916 195.998, 323.250 195.999 L 326 196 326 227.878 C 326 255.743, 326.199 259.921, 327.584 261.070 C 330.671 263.632, 332.412 260.952, 333.636 251.754 C 334.949 241.897, 336.195 237.658, 340.046 229.959 C 348.585 212.887, 367.777 199.776, 386.402 198.293 C 394.636 197.637, 397 196.679, 397 194 C 397 190.593, 393.763 189.800, 384.844 191.021 C 375.290 192.329, 366.238 195.434, 358.301 200.123 C 351.268 204.278, 340.243 215.023, 336.556 221.315 C 335.046 223.892, 333.628 226, 333.405 226 C 333.182 226, 333 219.356, 333 211.237 L 333 196.473 338.250 195.240 C 356.486 190.958, 368.062 170.043, 362.522 151.386 C 357.496 134.460, 339.344 123.437, 322.355 126.992 M 78 147.500 C 78 154.925, 78.149 161, 78.332 161 C 78.514 161, 80.081 158.812, 81.814 156.138 C 85.411 150.586, 97.486 138.835, 101.981 136.510 C 103.642 135.651, 105 134.735, 105 134.474 C 105 134.213, 98.925 134, 91.500 134 L 78 134 78 147.500 M 121.500 135.865 C 110.740 138.953, 103.995 143.006, 95.479 151.500 C 89.896 157.069, 86.490 161.486, 84.272 166.035 C 80.597 173.573, 78 182.754, 78 188.207 L 78 191.993 106 206 L 134 220.007 134 190.126 C 134 164.033, 134.202 160.078, 135.590 158.925 C 136.953 157.794, 141.386 159.707, 166.703 172.357 C 182.940 180.470, 196.400 186.933, 196.614 186.719 C 196.828 186.506, 196.103 182.814, 195.004 178.517 C 190.717 161.754, 179.081 147.439, 163.820 140.153 C 159.244 137.968, 153.115 135.690, 150.201 135.090 C 142.422 133.490, 128.461 133.867, 121.500 135.865 M 174.805 138.028 C 182.062 142.875, 190.599 151.878, 194.846 159.165 L 197.956 164.500 197.978 149.250 L 198 134 183.386 134 L 168.772 134 174.805 138.028 M 317.500 136.353 C 311.873 138.979, 305.871 145.089, 303.378 150.728 C 302.340 153.077, 301.711 157.141, 301.711 161.500 C 301.711 169.703, 303.431 174.254, 308.773 180.179 C 319.638 192.232, 338.403 192.034, 349.683 179.746 C 353.999 175.045, 357 167.561, 357 161.500 C 357 151.480, 349.989 140.797, 340.500 136.358 C 333.632 133.146, 324.377 133.144, 317.500 136.353 M 142 197.431 C 142 222.849, 141.786 227.071, 140.429 228.429 C 139.564 229.293, 138.633 230, 138.360 230 C 138.086 230, 124.349 223.219, 107.832 214.932 L 77.801 199.864 78.518 204.182 C 82.159 226.128, 100.429 245.651, 122.731 251.430 C 129.762 253.252, 142.586 253.476, 150.201 251.910 C 153.115 251.310, 159.244 249.032, 163.820 246.847 C 179.079 239.562, 190.717 225.246, 195.003 208.489 C 198.473 194.922, 200.835 197.399, 169.500 181.744 L 142 168.005 142 197.431 M 194.576 228.251 C 190.791 235.046, 179.013 246.830, 172 250.838 L 166.500 253.981 182.250 253.991 L 198 254 198 238.500 C 198 229.975, 197.887 223, 197.750 223.001 C 197.613 223.002, 196.184 225.364, 194.576 228.251 M 78 240 L 78 254 92.727 254 L 107.454 254 101.977 250.426 C 95.019 245.885, 85.769 236.880, 81.765 230.750 C 80.059 228.137, 78.514 226, 78.332 226 C 78.149 226, 78 232.300, 78 240 " stroke="none" fill="black" fill-rule="evenodd"/>
</svg>