<svg xmlns="http://www.w3.org/2000/svg" width="276" height="324" viewBox="0 0 276 324" version="1.1">
	<path d="M 197.400 128.848 C 184.901 137.974, 173.653 155.604, 168.913 173.500 C 165.960 184.646, 165.957 202.335, 168.907 213.500 C 173.166 229.623, 182.203 244.586, 194.284 255.519 C 200.610 261.243, 203.327 262.046, 205.367 258.791 C 206.262 257.362, 205.119 255.807, 198.383 249.291 C 189.479 240.678, 185.331 235.068, 180.961 225.730 C 166.837 195.546, 174.742 157.607, 199.574 136.392 C 205.144 131.634, 206.634 127.841, 203.418 126.607 C 201.329 125.805, 201.814 125.625, 197.400 128.848 M 231.200 128.200 C 229.137 130.263, 229.835 131.616, 235.426 136.392 C 269.385 165.404, 269.385 221.596, 235.426 250.608 C 229.878 255.348, 228.850 257.801, 231.495 259.996 C 233.316 261.507, 236.024 259.927, 243.350 253.079 C 253.432 243.657, 262.092 228.581, 266.087 213.500 C 267.684 207.472, 268.207 202.542, 268.207 193.500 C 268.207 184.458, 267.684 179.528, 266.087 173.500 C 261.866 157.563, 253.116 142.798, 241.856 132.608 C 235.588 126.936, 233.378 126.022, 231.200 128.200 M 67.045 159.064 C 60.174 160.455, 52.626 164.597, 48.188 169.412 C 44.345 173.581, 43.789 173.832, 36.116 174.865 C 31.370 175.504, 25.411 177.154, 21.583 178.890 C 13.738 182.447, 4.772 190.406, 5.204 193.430 C 5.738 197.166, 9.662 196.567, 14.627 191.990 C 19.955 187.078, 28.428 183.092, 35.258 182.283 L 40.146 181.704 39.340 185.602 C 33.644 213.134, 60.156 236.029, 86.202 226.072 C 92.168 223.791, 100.564 217.051, 102.918 212.653 C 103.989 210.651, 105.321 209.941, 108.898 209.460 C 120.393 207.918, 129.337 204.155, 136.540 197.831 C 140.501 194.353, 141.161 190.503, 137.970 189.490 C 136.520 189.030, 134.888 189.769, 132.267 192.070 C 127.791 196, 117.965 200.693, 112.381 201.568 L 108.263 202.214 108.265 194.357 C 108.269 183.373, 105.421 176.261, 98.080 168.920 C 89.841 160.681, 77.855 156.875, 67.045 159.064 M 211.045 159.064 C 189.497 163.427, 177.173 185.901, 185.037 206.493 C 188.164 214.680, 196.320 222.836, 204.507 225.963 C 217.863 231.064, 232.079 228.081, 242.080 218.080 C 263.084 197.076, 250.303 161.904, 220.500 158.699 C 217.750 158.403, 213.495 158.567, 211.045 159.064 M 63.364 167.624 C 58.236 169.443, 50.517 175.895, 53.395 175.958 C 57.968 176.059, 69.601 182.942, 75.395 188.975 C 81.501 195.333, 87.380 198.948, 94.910 200.976 C 100.322 202.433, 100.963 201.690, 100.985 193.928 C 101.029 177.691, 89.163 165.851, 73.072 166.079 C 70.007 166.122, 65.639 166.818, 63.364 167.624 M 207.054 167.728 C 201.018 169.859, 193.781 177.260, 191.667 183.463 C 187.995 194.241, 190.382 205.477, 197.952 213.048 C 208.673 223.769, 226.327 223.769, 237.048 213.048 C 247.769 202.327, 247.769 184.673, 237.048 173.952 C 229.519 166.424, 217.696 163.970, 207.054 167.728 M 47.096 185.154 C 43.975 194.108, 46.895 205.991, 53.952 213.048 C 61.430 220.525, 72.763 223.004, 83.205 219.446 C 87.976 217.820, 96.315 211.445, 95.778 209.833 C 95.606 209.319, 92.549 207.878, 88.983 206.631 C 80.656 203.719, 75.229 200.086, 70.073 193.972 C 66.069 189.223, 57.531 184.186, 50.846 182.628 C 48.538 182.091, 48.049 182.420, 47.096 185.154 M 39.571 255.571 C 38.707 256.436, 38 257.529, 38 258 C 38 258.471, 38.707 259.564, 39.571 260.429 C 40.936 261.793, 45.463 262, 74 262 C 102.537 262, 107.064 261.793, 108.429 260.429 C 109.293 259.564, 110 258.471, 110 258 C 110 257.529, 109.293 256.436, 108.429 255.571 C 107.064 254.207, 102.537 254, 74 254 C 45.463 254, 40.936 254.207, 39.571 255.571 " stroke="none" fill="black" fill-rule="evenodd"/>
</svg>