<svg xmlns="http://www.w3.org/2000/svg" width="308" height="324" viewBox="0 0 308 324" version="1.1">
	<path d="M 39.571 127.571 C 38.288 128.855, 38 131.788, 38 143.571 L 38 158 23.571 158 C 11.788 158, 8.855 158.288, 7.571 159.571 C 5.598 161.545, 5.598 162.455, 7.571 164.429 C 8.820 165.677, 11.534 166, 20.774 166 L 32.405 166 19.202 179.333 C 11.941 186.666, 6 193.159, 6 193.761 C 6 195.178, 8.822 198, 10.239 198 C 10.841 198, 17.334 192.059, 24.667 184.798 L 38 171.595 38 196.798 L 38 222 23.571 222 C 11.788 222, 8.855 222.288, 7.571 223.571 C 6.707 224.436, 6 225.529, 6 226 C 6 226.471, 6.707 227.564, 7.571 228.429 C 8.855 229.712, 11.788 230, 23.571 230 L 38 230 38 244.429 C 38 256.212, 38.288 259.145, 39.571 260.429 C 40.436 261.293, 41.529 262, 42 262 C 42.471 262, 43.564 261.293, 44.429 260.429 C 45.712 259.145, 46 256.212, 46 244.429 L 46 230 74 230 L 102 230 102 244.965 C 102 258.719, 102.156 260.013, 103.928 260.961 C 106.455 262.314, 108.660 261.393, 109.388 258.681 C 109.709 257.481, 109.979 250.550, 109.986 243.277 L 110 230.053 124.643 229.777 C 137.314 229.537, 139.433 229.264, 140.387 227.750 C 141.191 226.475, 141.191 225.525, 140.387 224.250 C 139.433 222.736, 137.314 222.463, 124.643 222.223 L 110 221.947 110 196.771 L 110 171.595 123.333 184.798 C 130.666 192.059, 137.101 198, 137.633 198 C 139.202 198, 141 195.741, 141 193.769 C 141 192.761, 135.324 186.116, 128.387 179.001 L 115.775 166.065 127.531 165.783 C 137.445 165.544, 139.459 165.226, 140.388 163.750 C 141.190 162.476, 141.190 161.524, 140.387 160.250 C 139.433 158.736, 137.314 158.463, 124.643 158.223 L 110 157.947 109.986 144.723 C 109.979 137.450, 109.709 130.519, 109.388 129.319 C 108.660 126.607, 106.455 125.686, 103.928 127.039 C 102.186 127.971, 102 129.246, 102 140.237 L 102 152.405 88.667 139.202 C 81.334 131.941, 74.703 126, 73.930 126 C 73.158 126, 66.558 131.956, 59.263 139.236 L 46 152.472 46 140.808 C 46 131.537, 45.678 128.820, 44.429 127.571 C 43.564 126.707, 42.471 126, 42 126 C 41.529 126, 40.436 126.707, 39.571 127.571 M 62.500 147 L 51.534 158 74 158 L 96.466 158 85.500 147 C 79.469 140.950, 74.294 136, 74 136 C 73.706 136, 68.531 140.950, 62.500 147 M 231.040 159.452 C 228.392 162.642, 232.299 167.657, 235.416 165.070 C 237.297 163.508, 237.470 160.870, 235.800 159.200 C 234.197 157.597, 232.505 157.686, 231.040 159.452 M 46 194 L 46 222 74 222 L 102 222 102 194 L 102 166 74 166 L 46 166 46 194 M 167.750 191.076 C 165.417 192.440, 165.526 195.676, 167.948 196.972 C 169.256 197.672, 191.132 197.930, 234.589 197.757 C 294.951 197.517, 299.356 197.383, 300.386 195.750 C 301.191 194.474, 301.191 193.526, 300.386 192.250 C 299.356 190.616, 294.963 190.485, 234.391 190.276 C 191.547 190.129, 168.905 190.400, 167.750 191.076 " stroke="none" fill="black" fill-rule="evenodd"/>
</svg>