<svg xmlns="http://www.w3.org/2000/svg" width="148" height="324" viewBox="0 0 148 324" version="1.1">
	<path d="M 71.619 62.714 C 69.727 64.607, 54.164 98.264, 54.626 99.467 C 55.269 101.145, 57.543 102.112, 59.278 101.447 C 59.981 101.177, 63.522 95.005, 67.147 87.731 L 73.738 74.505 80.311 87.624 C 83.927 94.839, 87.586 101.011, 88.442 101.340 C 90.951 102.302, 93 100.972, 93 98.381 C 93 95.782, 77.486 63.976, 75.628 62.765 C 74.185 61.825, 72.529 61.804, 71.619 62.714 M 7.571 191.571 C 6.206 192.937, 6 197.512, 6 226.536 C 6 258.528, 6.081 259.973, 7.934 260.965 C 10.302 262.232, 137.835 262.391, 139.825 261.129 C 140.886 260.456, 141.128 253.539, 141.040 226.395 C 140.921 189.938, 140.718 188.475, 136.117 190.938 C 134.031 192.054, 134 192.525, 134 223.035 L 134 254 106 254 L 78 254 78 223.571 C 78 197.242, 77.788 192.931, 76.429 191.571 C 74.455 189.598, 73.545 189.598, 71.571 191.571 C 70.212 192.931, 70 197.242, 70 223.571 L 70 254 42 254 L 14 254 14 223.571 C 14 197.242, 13.788 192.931, 12.429 191.571 C 11.564 190.707, 10.471 190, 10 190 C 9.529 190, 8.436 190.707, 7.571 191.571 " stroke="none" fill="black" fill-rule="evenodd"/>
</svg>