<svg xmlns="http://www.w3.org/2000/svg" width="212" height="324" viewBox="0 0 212 324" version="1.1">
	<path d="M 87.571 63.571 C 86.707 64.436, 86 65.332, 86 65.564 C 86 65.796, 89.934 73.868, 94.741 83.502 C 103.072 100.196, 105.702 103.726, 108.035 101.349 C 110.136 99.210, 125.885 65.863, 125.396 64.590 C 124.550 62.385, 121.890 61.790, 120.105 63.406 C 119.222 64.205, 115.815 70.291, 112.533 76.930 C 109.252 83.568, 106.312 89, 106 89 C 105.688 89, 102.748 83.534, 99.467 76.853 C 91.925 61.499, 90.847 60.296, 87.571 63.571 M 23.282 175.282 C 13.777 184.787, 6 193.210, 6 194 C 6 195.693, 40.031 230, 41.710 230 C 43.173 230, 46 227.200, 46 225.751 C 46 225.143, 39.156 217.750, 30.792 209.323 L 15.584 194 30.792 178.677 C 39.156 170.250, 46 162.857, 46 162.249 C 46 160.800, 43.173 158, 41.710 158 C 41.079 158, 32.787 165.777, 23.282 175.282 M 72 158.977 C 70.982 159.619, 70.339 162.240, 70 167.129 L 69.500 174.334 63.059 175.643 C 54.383 177.407, 46.682 181.337, 40.810 186.996 C 35.744 191.879, 35.266 194.315, 39.132 195.542 C 40.512 195.980, 42.272 195.084, 45.167 192.468 C 49.973 188.127, 59.743 183.353, 65.750 182.411 L 70 181.744 70 204.301 C 70 223.473, 70.236 227.093, 71.571 228.429 C 72.937 229.794, 77.497 230, 106.371 230 C 130.883 230, 139.915 229.685, 140.800 228.800 C 141.559 228.041, 142 224.230, 142 218.436 L 142 209.272 146.689 208.629 C 153.063 207.755, 164.842 201.770, 169.427 197.075 C 172.690 193.734, 173.039 192.942, 172.059 191.111 C 170.461 188.125, 169.232 188.423, 162.556 193.417 C 157.589 197.131, 146.485 202, 142.979 202 C 142.372 202, 142 194.103, 142 181.200 C 142 166.356, 141.656 160.056, 140.800 159.200 C 139.309 157.709, 74.344 157.498, 72 158.977 M 168.200 159.200 C 167.540 159.860, 167 161.092, 167 161.938 C 167 162.784, 173.857 170.344, 182.238 178.738 L 197.476 194 182.238 209.262 C 173.857 217.656, 167 225.216, 167 226.062 C 167 227.795, 168.895 230, 170.385 230 C 172.047 230, 206 195.680, 206 194 C 206 192.320, 172.047 158, 170.385 158 C 169.843 158, 168.860 158.540, 168.200 159.200 M 78 170.500 C 78 174.553, 78.233 175, 80.343 175 C 83.079 175, 92.181 178.011, 97.087 180.539 C 98.964 181.506, 103.663 185.360, 107.528 189.102 C 114.906 196.246, 122.300 200.398, 129.750 201.581 L 134 202.256 134 184.128 L 134 166 106 166 L 78 166 78 170.500 M 78 202 L 78 222 106.048 222 L 134.095 222 133.798 215.834 L 133.500 209.668 127.362 208.420 C 118.284 206.573, 110.241 202.276, 104 195.937 C 100.975 192.865, 96.996 189.312, 95.158 188.042 C 92.226 186.016, 81.427 182, 78.911 182 C 78.393 182, 78 190.637, 78 202 " stroke="none" fill="black" fill-rule="evenodd"/>
</svg>