<svg xmlns="http://www.w3.org/2000/svg" width="148" height="324" viewBox="0 0 148 324" version="1.1">
	<path d="M 55.571 63.571 C 54.707 64.436, 54 65.317, 54 65.531 C 54 66.993, 71.421 100.653, 72.488 101.252 C 73.225 101.665, 74.440 101.768, 75.188 101.481 C 76.837 100.849, 93 68.755, 93 66.115 C 93 63.770, 90.710 61.790, 88.832 62.511 C 88.050 62.811, 84.520 68.894, 80.986 76.028 C 77.453 83.163, 74.306 89, 73.994 89 C 73.683 89, 70.969 83.984, 67.964 77.854 C 62.437 66.580, 59.559 62, 57.999 62 C 57.528 62, 56.436 62.707, 55.571 63.571 M 35.045 127.064 C 24.674 129.164, 14.828 136.537, 10.151 145.705 C 7.578 150.747, 5.616 161.395, 6.828 163.738 C 7.329 164.707, 8.527 169.100, 9.490 173.500 C 11.617 183.220, 16.181 196.402, 20.224 204.500 C 28.105 220.286, 43.443 238.960, 56.899 249.153 L 63.298 254 36.221 254 C 12.938 254, 8.923 254.220, 7.571 255.571 C 5.596 257.546, 5.598 258.455, 7.579 260.436 C 8.990 261.847, 16.058 261.987, 74.220 261.757 C 134.934 261.517, 139.356 261.383, 140.386 259.750 C 141.191 258.474, 141.191 257.526, 140.387 256.250 C 139.394 254.675, 136.579 254.450, 112.169 254 L 85.054 253.500 92.125 248 C 115.187 230.063, 132.712 201.092, 138.835 170.781 C 140.987 160.130, 140.347 153.626, 136.362 145.662 C 124.406 121.766, 90.345 120.095, 75.981 142.700 L 73.312 146.900 71.124 143.007 C 64.711 131.596, 48.355 124.368, 35.045 127.064 M 31.591 135.573 C 23.452 138.555, 15.998 146.866, 14.553 154.569 C 13.726 158.977, 16.225 172.568, 20.050 184.464 C 25.992 202.943, 35.743 218.759, 49.988 233.026 C 55.220 238.265, 62.724 244.731, 66.665 247.394 L 73.830 252.237 81.502 246.934 C 96.559 236.525, 111.143 219.907, 119.764 203.337 C 127.733 188.019, 133.910 165.555, 132.584 156.712 C 131.161 147.222, 123.232 138.158, 113.609 135.020 C 107.591 133.058, 97.093 134.170, 91.680 137.342 C 83.949 141.872, 78.067 150.781, 78.022 158.027 C 77.998 161.891, 75.675 166, 73.515 166 C 71.013 166, 69 162.918, 69 159.088 C 69 153.811, 63.742 143.755, 59.031 140.024 C 51.664 134.190, 40.368 132.357, 31.591 135.573 " stroke="none" fill="black" fill-rule="evenodd"/>
</svg>