<svg xmlns="http://www.w3.org/2000/svg" width="308" height="324" viewBox="0 0 308 324" version="1.1">
	<path d="M 199.724 127.134 C 198.157 128.012, 198 130.619, 198 155.858 L 198 183.617 190.250 179.806 C 174.192 171.911, 154.702 173.190, 141.119 183.029 L 137.027 185.993 131.650 182.553 C 123.612 177.411, 114.921 174.811, 105.500 174.730 C 91.138 174.607, 79.708 179.442, 69.830 189.821 C 66.419 193.406, 61.839 196.918, 58.330 198.639 C 52.989 201.260, 51.578 201.500, 41.500 201.500 C 29.125 201.500, 24.325 199.966, 16.411 193.481 C 11.568 189.512, 8.445 189.024, 7.473 192.085 C 6.686 194.563, 9.333 197.707, 15.824 202.007 C 34.446 214.342, 62.021 210.697, 75.950 194.059 C 78.568 190.932, 82.243 188.148, 86.713 185.906 C 93.208 182.646, 93.975 182.500, 104.552 182.500 C 115.366 182.500, 115.772 182.583, 123.426 186.366 C 128.044 188.648, 131.446 190.988, 131.731 192.079 C 132.453 194.839, 144.387 203.627, 150.539 205.929 C 164.396 211.113, 177.325 210.548, 190.250 204.194 L 198 200.383 198 230.157 C 198 258.170, 198.110 259.989, 199.862 260.926 C 201.159 261.620, 202.209 261.555, 203.323 260.711 C 205.016 259.429, 205.228 247.119, 205.061 159.785 C 205.005 130.464, 204.866 127.999, 203.224 127.120 C 202.098 126.517, 200.818 126.522, 199.724 127.134 M 155.061 183.972 C 148.985 186.220, 142 190.514, 142 192.002 C 142 193.489, 149.622 197.973, 155.894 200.176 C 164.639 203.247, 177.413 202.439, 186 198.272 C 189.575 196.537, 193.374 194.416, 194.441 193.559 C 196.363 192.016, 196.363 191.984, 194.441 190.441 C 193.374 189.584, 189.575 187.460, 186 185.723 C 180.339 182.971, 178.274 182.524, 170 182.261 C 162.414 182.021, 159.404 182.365, 155.061 183.972 M 263.268 191.207 C 261.374 193.543, 230 256.953, 230 258.444 C 230 260.431, 233.097 262.022, 234.974 260.999 C 235.813 260.542, 243.021 247.076, 250.991 231.074 L 265.483 201.979 279.825 230.740 C 287.714 246.558, 294.867 260.045, 295.722 260.711 C 297.692 262.247, 301.021 260.657, 300.950 258.215 C 300.859 255.092, 267.585 190.516, 265.908 190.207 C 265.032 190.046, 263.844 190.496, 263.268 191.207 " stroke="none" fill="black" fill-rule="evenodd"/>
</svg>