<svg xmlns="http://www.w3.org/2000/svg" width="308" height="324" viewBox="0 0 308 324" version="1.1">
	<path d="M 55.213 143.315 C 45.746 152.838, 38 161.131, 38 161.743 C 38 163.175, 40.813 166, 42.239 166 C 42.841 166, 49.334 160.059, 56.667 152.798 L 70 139.595 70 194 L 70 248.405 56.667 235.202 C 49.334 227.941, 42.841 222, 42.239 222 C 40.825 222, 38 224.820, 38 226.232 C 38 226.831, 43.513 232.922, 50.250 239.767 C 61.854 251.556, 62.316 252.178, 59 251.551 C 57.075 251.188, 51.675 249.043, 47 246.786 C 28.415 237.813, 14 216.361, 14 197.677 C 14 194.888, 13.395 192.538, 12.429 191.571 C 10.444 189.587, 9.546 189.597, 7.515 191.627 C 4.472 194.671, 7.724 211.409, 13.807 224 C 16.625 229.833, 19.438 233.508, 26.465 240.535 C 36.770 250.839, 45.643 255.880, 58.182 258.555 C 62.207 259.413, 67.300 260.507, 69.500 260.986 C 71.813 261.490, 75.187 261.477, 77.500 260.956 C 79.700 260.460, 84.425 259.509, 88 258.843 C 91.642 258.165, 98.427 255.671, 103.431 253.169 C 119.881 244.949, 132.500 229.667, 137.719 211.649 C 141.018 200.260, 140.616 190, 136.871 190 C 134.965 190, 133 193.509, 133 196.911 C 133 203.127, 129.245 215.866, 125.340 222.899 C 119.913 232.674, 109.977 241.998, 99.820 246.849 C 95.244 249.034, 89.925 251.129, 88 251.505 C 84.699 252.148, 85.197 251.484, 96.750 239.829 C 103.488 233.032, 109 226.780, 109 225.936 C 109 224.213, 107.106 222, 105.633 222 C 105.101 222, 98.666 227.941, 91.333 235.202 L 78 248.405 78 194 L 78 139.595 91.333 152.798 C 98.666 160.059, 105.136 166, 105.710 166 C 107.285 166, 109.210 163.294, 108.833 161.610 C 108.362 159.509, 75.344 126, 73.744 126 C 73.019 126, 64.680 133.792, 55.213 143.315 M 167.750 127.080 C 164.602 128.913, 165.877 131.337, 174.596 140.096 L 183.191 148.732 179.436 153.616 C 174.232 160.384, 169.474 171.065, 167.589 180.208 C 165.353 191.054, 165.483 195.653, 168.064 197.034 C 171.181 198.702, 172.681 196.794, 173.422 190.220 C 174.897 177.127, 178.655 166.681, 184.970 158.120 L 188.200 153.741 197.044 162.544 L 205.889 171.348 204.013 173.981 C 200.020 179.589, 198.497 185.204, 198.582 194 C 198.684 204.480, 200.840 209.836, 208.010 217.417 C 215.122 224.937, 223.016 228.373, 233 228.295 C 240.933 228.233, 247.092 226.495, 252.154 222.890 L 255.176 220.738 275.984 241.460 C 294.931 260.330, 296.980 262.081, 298.896 261.056 C 300.053 260.436, 301 259.162, 301 258.224 C 301 257.286, 291.945 247.455, 280.879 236.378 L 260.757 216.239 264.011 209.628 C 273.608 190.136, 264.540 167.225, 244.500 160.329 C 241.508 159.300, 236.591 158.622, 232.258 158.643 C 225.976 158.673, 224.054 159.157, 217.758 162.300 L 210.500 165.922 202 157.399 L 193.500 148.875 196.866 146.017 C 201.482 142.100, 211.351 137.381, 219.060 135.406 C 227.865 133.150, 244.045 133.924, 252.858 137.022 C 261.597 140.094, 273.093 148.027, 278.660 154.828 C 286.771 164.737, 292.929 180.812, 292.983 192.215 C 293.003 196.661, 295.614 198.734, 298.518 196.611 C 302.648 193.591, 297.799 171.015, 290.406 158.845 C 276.966 136.721, 250.718 123.727, 225.891 126.908 C 212.724 128.595, 202.802 132.451, 193.642 139.443 C 191.079 141.400, 188.639 143, 188.219 143 C 187.799 143, 183.651 139.175, 179 134.500 C 174.349 129.825, 170.309 126.014, 170.022 126.030 C 169.735 126.047, 168.713 126.519, 167.750 127.080 M 221.054 168.554 L 215.609 171.089 235.045 190.545 C 245.735 201.245, 254.848 210, 255.297 210 C 256.674 210, 260.062 201.273, 260.667 196.166 C 261.975 185.122, 255.115 173.324, 244.500 168.358 C 237.449 165.060, 228.398 165.136, 221.054 168.554 M 207.921 182.170 C 203.060 192.552, 205.630 205.536, 214.161 213.693 C 222.135 221.319, 234.629 223.248, 244.946 218.446 L 250.391 215.911 230.955 196.455 C 220.265 185.755, 211.254 177, 210.931 177 C 210.607 177, 209.252 179.327, 207.921 182.170 " stroke="none" fill="black" fill-rule="evenodd"/>
</svg>