<svg xmlns="http://www.w3.org/2000/svg" width="212" height="324" viewBox="0 0 212 324" version="1.1">
	<path d="M 72.372 62.751 C 70.408 64.054, 54.005 97.849, 54.593 99.381 C 55.268 101.141, 57.513 102.124, 59.295 101.440 C 60.007 101.167, 63.480 95.106, 67.014 87.972 C 70.547 80.837, 73.691 75, 74 75 C 74.309 75, 77.453 80.837, 80.986 87.972 C 84.520 95.106, 87.993 101.167, 88.705 101.440 C 90.478 102.121, 92.731 101.144, 93.398 99.406 C 94.127 97.506, 76.754 62.573, 74.920 62.251 C 74.139 62.114, 72.992 62.339, 72.372 62.751 M 168.200 159.200 C 167.540 159.860, 167 161.091, 167 161.937 C 167 162.782, 172.956 169.442, 180.236 176.737 L 193.472 190 133.308 190 C 79.946 190, 72.965 190.178, 71.571 191.571 C 69.598 193.545, 69.598 194.455, 71.571 196.429 C 72.965 197.822, 79.946 198, 133.308 198 L 193.472 198 180.236 211.263 C 172.956 218.558, 167 225.218, 167 226.063 C 167 227.796, 168.896 230, 170.385 230 C 172.047 230, 206 195.680, 206 194 C 206 192.320, 172.047 158, 170.385 158 C 169.843 158, 168.860 158.540, 168.200 159.200 M 103.571 223.571 C 102.707 224.436, 101.995 225.673, 101.990 226.321 C 101.984 226.970, 108.047 233.463, 115.464 240.750 L 128.948 254 69.045 254 C 15.922 254, 8.965 254.178, 7.571 255.571 C 5.598 257.545, 5.598 258.455, 7.571 260.429 C 8.965 261.822, 15.905 262, 68.862 262 L 128.582 262 115.291 275.291 C 107.981 282.601, 102 289.094, 102 289.719 C 102 291.179, 104.805 294, 106.257 294 C 108.006 294, 142 259.761, 142 258 C 142 256.239, 108.006 222, 106.257 222 C 105.644 222, 104.436 222.707, 103.571 223.571 " stroke="none" fill="black" fill-rule="evenodd"/>
</svg>