<svg xmlns="http://www.w3.org/2000/svg" width="308" height="324" viewBox="0 0 308 324" version="1.1">
	<path d="M 72.316 62.784 C 70.369 64.022, 54.007 97.855, 54.604 99.410 C 55.450 101.615, 58.110 102.210, 59.895 100.594 C 60.778 99.795, 64.185 93.709, 67.467 87.070 C 70.748 80.432, 73.687 75, 73.997 75 C 74.308 75, 77.453 80.837, 80.986 87.972 C 84.520 95.106, 88.050 101.189, 88.832 101.489 C 90.716 102.212, 93 100.227, 93 97.866 C 93 95.626, 77.264 63.831, 75.628 62.765 C 74.214 61.845, 73.789 61.847, 72.316 62.784 M 64.500 126.944 C 56.325 128.268, 50.930 129.991, 43 133.814 C 32.444 138.903, 18.927 152.404, 13.778 163 C 7.648 175.615, 4.334 193.191, 7.491 196.348 C 10.992 199.850, 14 196.834, 14 189.823 C 14 176.930, 20.788 161.952, 31.388 151.459 C 43.158 139.807, 56.947 134, 72.845 134 C 83.674 134, 89.916 135.424, 99.820 140.153 C 109.977 145.002, 119.912 154.325, 125.340 164.101 C 129.365 171.350, 133 183.919, 133 190.589 C 133 194.479, 134.839 198, 136.871 198 C 140.482 198, 141.008 188.263, 138.028 176.609 C 134.978 164.686, 129.782 155.740, 120.457 146.361 C 113.703 139.568, 110.806 137.478, 102.933 133.719 C 97.745 131.242, 91.475 128.743, 89 128.165 C 82.400 126.623, 70.232 126.016, 64.500 126.944 M 280.617 141.914 L 264.424 158 233.146 158 C 213.498 158, 201.149 158.385, 199.934 159.035 C 197.446 160.367, 197.446 163.633, 199.934 164.965 C 201.132 165.606, 212.266 166, 229.180 166 L 256.492 166 211.246 211.254 C 186.361 236.144, 166 257.278, 166 258.219 C 166 259.160, 166.960 260.443, 168.133 261.071 C 170.081 262.114, 171.661 260.819, 186.394 246.106 L 202.522 230 233.827 230 C 253.494 230, 265.851 229.615, 267.066 228.965 C 269.554 227.633, 269.554 224.367, 267.066 223.035 C 265.868 222.394, 254.734 222, 237.820 222 L 210.508 222 255.754 176.746 C 280.639 151.856, 301 130.722, 301 129.781 C 301 128.840, 300.057 127.566, 298.905 126.949 C 297.007 125.934, 295.285 127.343, 280.617 141.914 M 65.384 159.370 C 47.314 163.903, 35.553 181.772, 38.999 199.458 C 44.456 227.466, 77.912 238.198, 97.777 218.313 C 105.474 210.608, 107.500 205.439, 107.500 193.500 C 107.500 181.367, 105.450 176.286, 97.353 168.339 C 89.041 160.183, 76.342 156.620, 65.384 159.370 M 63.627 167.468 C 58.247 169.386, 53.039 173.829, 49.500 179.519 C 46.982 183.568, 46.444 185.582, 46.150 192.050 C 45.760 200.623, 47.420 205.822, 52.447 211.770 C 58.859 219.355, 71.147 222.900, 81.231 220.074 C 92.579 216.894, 101 205.574, 101 193.500 C 101 182.038, 93.486 171.200, 82.965 167.488 C 77.743 165.645, 68.766 165.636, 63.627 167.468 M 71.616 191.527 C 70.727 192.416, 70 193.529, 70 194 C 70 195.389, 73.140 198.120, 74.295 197.735 C 76.395 197.035, 77.549 194.094, 76.423 192.310 C 74.905 189.902, 73.474 189.669, 71.616 191.527 " stroke="none" fill="black" fill-rule="evenodd"/>
</svg>