<svg xmlns="http://www.w3.org/2000/svg" width="308" height="324" viewBox="0 0 308 324" version="1.1">
	<path d="M 40.348 126.765 C 38.390 128.014, 6.011 193.865, 6.600 195.400 C 7.266 197.135, 9.518 198.122, 11.274 197.448 C 11.975 197.180, 19.056 183.919, 27.010 167.980 C 34.964 152.041, 41.710 139, 42 139 C 42.290 139, 49.036 152.041, 56.990 167.980 C 64.944 183.919, 72.083 197.201, 72.853 197.497 C 74.717 198.213, 77 196.217, 77 193.871 C 77 191.637, 45.272 127.833, 43.630 126.765 C 43.009 126.361, 42.275 126.031, 42 126.031 C 41.725 126.031, 40.981 126.361, 40.348 126.765 M 126.660 135.250 C 112.589 149.460, 105.513 163.913, 102.855 183.874 C 101.882 191.182, 101.874 195.209, 102.819 202.692 C 105.360 222.808, 112.395 237.222, 127 252.237 L 136.500 262.004 201.243 262.002 L 265.987 262 271.800 256.250 C 285.036 243.159, 292.797 230.658, 297.234 215.285 C 299.085 208.870, 299.481 205.037, 299.481 193.500 C 299.481 181.963, 299.085 178.130, 297.234 171.715 C 292.751 156.183, 283.495 141.433, 271.550 130.787 L 266.179 126 201 126 L 135.821 126 126.660 135.250 M 133.901 137.709 C 124.173 146.498, 115.359 161.366, 111.930 174.774 C 109.298 185.067, 109.298 201.937, 111.932 212.234 C 115.368 225.668, 124.216 240.514, 134.065 249.368 L 139.216 254 201.357 254 L 263.498 254 271.552 245.708 C 277.946 239.124, 280.562 235.467, 284.251 227.958 C 290.768 214.692, 292.347 207.970, 292.347 193.500 C 292.347 179.072, 290.766 172.305, 284.336 159.213 C 280.934 152.287, 277.870 147.902, 272.283 141.963 L 264.792 134 201.399 134 L 138.006 134 133.901 137.709 M 198.611 160.250 C 197.822 161.488, 190.052 176.788, 181.345 194.252 C 168.358 220.298, 165.711 226.318, 166.615 227.752 C 167.623 229.350, 170.573 229.523, 200.990 229.764 C 234.777 230.031, 237 229.820, 237 226.342 C 237 224.886, 205.605 161.486, 203.777 159.250 C 202.228 157.355, 200.208 157.747, 198.611 160.250 M 188.743 196.500 L 176.005 222 201.503 222 C 215.526 222, 227 221.772, 227 221.492 C 227 220.827, 202.070 171, 201.737 171 C 201.597 171, 195.750 182.475, 188.743 196.500 M 40.348 190.765 C 38.390 192.014, 6.011 257.865, 6.600 259.400 C 7.266 261.135, 9.518 262.122, 11.274 261.448 C 11.975 261.180, 19.056 247.919, 27.010 231.980 C 34.964 216.041, 41.710 203, 42 203 C 42.290 203, 49.036 216.041, 56.990 231.980 C 64.944 247.919, 72.083 261.201, 72.853 261.497 C 74.717 262.213, 77 260.217, 77 257.871 C 77 255.637, 45.272 191.833, 43.630 190.765 C 43.009 190.361, 42.275 190.031, 42 190.031 C 41.725 190.031, 40.981 190.361, 40.348 190.765 " stroke="none" fill="black" fill-rule="evenodd"/>
</svg>