<svg xmlns="http://www.w3.org/2000/svg" width="212" height="324" viewBox="0 0 212 324" version="1.1">
	<path d="M 55.571 63.571 C 54.707 64.436, 54 65.332, 54 65.564 C 54 67.204, 71.738 101.069, 72.813 101.482 C 73.560 101.768, 74.775 101.665, 75.512 101.252 C 77.510 100.131, 94.035 66.256, 93.396 64.590 C 92.731 62.856, 90.476 61.880, 88.705 62.560 C 87.993 62.833, 84.520 68.894, 80.986 76.028 C 77.453 83.163, 74.308 89, 73.997 89 C 73.687 89, 70.748 83.534, 67.467 76.853 C 59.925 61.499, 58.847 60.296, 55.571 63.571 M 67 126.637 C 48.763 129.300, 36.067 135.786, 24.183 148.511 C 13.871 159.553, 8.287 172.214, 6.503 188.598 C 5.964 193.549, 6.150 195.007, 7.491 196.348 C 9.547 198.404, 10.439 198.418, 12.429 196.429 C 13.379 195.478, 14 193.126, 14 190.478 C 14 177.343, 20.860 161.930, 31.395 151.395 C 39.204 143.586, 50.825 137.142, 60.799 135.090 C 68.240 133.559, 80.354 133.759, 87.897 135.537 C 112.055 141.232, 133 166.053, 133 188.988 C 133 193.308, 135.075 198, 136.985 198 C 137.465 198, 138.614 197.243, 139.540 196.317 C 140.945 194.912, 141.109 193.479, 140.531 187.614 C 137.455 156.402, 113.515 131.353, 82.678 127.083 C 74.947 126.013, 71.876 125.925, 67 126.637 M 71.571 159.571 C 70.288 160.855, 70 163.788, 70 175.571 L 70 190 55.571 190 C 43.788 190, 40.855 190.288, 39.571 191.571 C 37.598 193.545, 37.598 194.455, 39.571 196.429 C 40.855 197.712, 43.788 198, 55.571 198 L 70 198 70 212.429 C 70 224.212, 70.288 227.145, 71.571 228.429 C 73.545 230.402, 74.455 230.402, 76.429 228.429 C 77.712 227.145, 78 224.212, 78 212.429 L 78 198 92.429 198 C 104.212 198, 107.145 197.712, 108.429 196.429 C 110.402 194.455, 110.402 193.545, 108.429 191.571 C 107.145 190.288, 104.212 190, 92.429 190 L 78 190 78 175.571 C 78 163.788, 77.712 160.855, 76.429 159.571 C 75.564 158.707, 74.471 158, 74 158 C 73.529 158, 72.436 158.707, 71.571 159.571 M 168.200 159.200 C 166.290 161.110, 166.511 211.349, 168.436 212.947 C 169.502 213.832, 170.404 213.854, 171.936 213.034 C 173.940 211.962, 174 211.174, 174 186 C 174 161.388, 173.902 160.018, 172.066 159.035 C 169.655 157.745, 169.655 157.745, 168.200 159.200 M 168.200 222.200 C 165.181 225.219, 168.247 230.008, 171.936 228.034 C 174.536 226.643, 174.606 223.395, 172.066 222.035 C 169.655 220.745, 169.655 220.745, 168.200 222.200 " stroke="none" fill="black" fill-rule="evenodd"/>
</svg>