<svg xmlns="http://www.w3.org/2000/svg" width="276" height="324" viewBox="0 0 276 324" version="1.1">
	<path d="M 34.223 127.012 C 23.933 129.160, 13.981 137.443, 9.216 147.825 C 5.512 155.894, 5.512 167.106, 9.216 175.175 C 12.212 181.701, 18.377 188.811, 23.377 191.503 L 26.824 193.360 22.662 196.005 C 17.047 199.573, 12.227 205.265, 9.157 211.954 C 5.526 219.863, 5.540 231.168, 9.191 239.120 C 12.319 245.936, 17.835 252.233, 23.673 255.654 C 28.824 258.673, 41.869 262.124, 44 261.032 C 44.825 260.609, 47.300 259.941, 49.500 259.548 C 58.256 257.981, 68.364 250.087, 72.834 241.325 C 80.896 225.522, 75.396 205.573, 60.338 196.005 L 56.176 193.360 59.623 191.503 C 71.276 185.228, 78.731 168.792, 76 155.396 C 72.022 135.884, 53.148 123.060, 34.223 127.012 M 119.282 143.282 C 109.777 152.787, 102 161.079, 102 161.710 C 102 163.173, 104.800 166, 106.249 166 C 106.857 166, 114.250 159.156, 122.677 150.792 L 138 135.584 153.323 150.792 C 161.750 159.156, 169.143 166, 169.751 166 C 171.200 166, 174 163.173, 174 161.710 C 174 160.031, 139.693 126, 138 126 C 137.210 126, 128.787 133.777, 119.282 143.282 M 31.054 135.728 C 25.018 137.859, 17.781 145.260, 15.667 151.463 C 11.964 162.333, 14.320 173.225, 22.048 180.952 C 26.185 185.090, 33.537 189, 37.178 189 C 37.630 189, 38 176.625, 38 161.500 C 38 140.125, 37.722 134.018, 36.750 134.079 C 36.063 134.122, 33.499 134.864, 31.054 135.728 M 46 161.500 L 46 189.135 48.250 188.448 C 57.341 185.671, 64.783 179.020, 67.403 171.329 C 72.854 155.332, 64.639 139.558, 48.250 134.552 L 46 133.865 46 161.500 M 199.571 159.571 C 198.207 160.936, 198 165.463, 198 194 C 198 222.537, 198.207 227.064, 199.571 228.429 C 200.936 229.793, 205.463 230, 234 230 C 262.537 230, 267.064 229.793, 268.429 228.429 C 269.793 227.064, 270 222.537, 270 194 C 270 165.463, 269.793 160.936, 268.429 159.571 C 267.064 158.207, 262.537 158, 234 158 C 205.463 158, 200.936 158.207, 199.571 159.571 M 206 194 L 206 222 234 222 L 262 222 262 194 L 262 166 234 166 L 206 166 206 194 M 31.054 199.728 C 25.018 201.859, 17.781 209.260, 15.667 215.463 C 11.964 226.333, 14.320 237.225, 22.048 244.952 C 26.185 249.090, 33.537 253, 37.178 253 C 37.630 253, 38 240.625, 38 225.500 C 38 204.125, 37.722 198.018, 36.750 198.079 C 36.063 198.122, 33.499 198.864, 31.054 199.728 M 46 225.500 L 46 253.135 48.250 252.448 C 57.341 249.671, 64.783 243.020, 67.403 235.329 C 72.854 219.332, 64.639 203.558, 48.250 198.552 L 46 197.865 46 225.500 M 103.571 223.571 C 102.707 224.436, 102 225.659, 102 226.290 C 102 227.969, 136.307 262, 138 262 C 139.693 262, 174 227.969, 174 226.290 C 174 224.827, 171.200 222, 169.751 222 C 169.143 222, 161.750 228.844, 153.323 237.208 L 138 252.416 122.677 237.208 C 114.250 228.844, 106.857 222, 106.249 222 C 105.640 222, 104.436 222.707, 103.571 223.571 " stroke="none" fill="black" fill-rule="evenodd"/>
</svg>