<svg xmlns="http://www.w3.org/2000/svg" width="340" height="324" viewBox="0 0 340 324" version="1.1">
	<path d="M 151.571 63.571 C 150.707 64.436, 150 65.317, 150 65.531 C 150 66.316, 167.159 100.529, 167.965 101.349 C 170.275 103.702, 172.913 100.229, 180.760 84.501 C 185.292 75.417, 189 67.143, 189 66.115 C 189 63.770, 186.710 61.790, 184.832 62.511 C 184.050 62.811, 180.520 68.894, 176.986 76.028 C 173.453 83.163, 170.308 89, 169.997 89 C 169.687 89, 166.748 83.534, 163.467 76.853 C 155.925 61.499, 154.847 60.296, 151.571 63.571 M 23.282 143.282 C 13.777 152.787, 6 161.079, 6 161.710 C 6 163.168, 8.798 166, 10.239 166 C 10.841 166, 17.334 160.059, 24.667 152.798 L 38 139.595 38 199.763 C 38 258.906, 38.034 259.948, 40 261 C 41.309 261.701, 42.604 261.739, 43.750 261.111 C 46.436 259.638, 78 227.514, 78 226.253 C 78 224.824, 75.185 222, 73.761 222 C 73.159 222, 66.666 227.941, 59.333 235.202 L 46 248.405 46 188.774 C 46 135.897, 45.822 128.965, 44.429 127.571 C 43.564 126.707, 42.341 126, 41.710 126 C 41.079 126, 32.787 133.777, 23.282 143.282 M 166.667 126.667 C 165.220 128.113, 166.142 131.392, 169.016 135.020 C 170.675 137.115, 173.262 141.454, 174.765 144.664 C 177.199 149.860, 177.498 151.651, 177.498 161 C 177.498 170.310, 177.193 172.151, 174.806 177.247 C 173.325 180.407, 169.156 186.781, 165.541 191.411 C 157.638 201.532, 154.489 208.093, 152.900 217.750 C 150.696 231.143, 155.311 246.958, 164.255 256.661 C 168.469 261.232, 170.917 262.010, 173.038 259.454 C 174.105 258.168, 173.958 257.452, 172.166 255.204 C 166.515 248.115, 163.722 243.505, 161.940 238.327 C 159.343 230.779, 159.346 219.213, 161.947 211.654 C 163.856 206.106, 165.302 203.776, 173.627 192.839 C 178.549 186.374, 182.358 179.100, 183.985 173.056 C 185.892 165.974, 185.440 153.242, 183.026 146.078 C 178.731 133.327, 170.167 123.166, 166.667 126.667 M 119.315 175.213 C 109.792 184.680, 102 193.134, 102 194 C 102 195.761, 135.994 230, 137.743 230 C 139.180 230, 142 227.185, 142 225.751 C 142 225.143, 135.156 217.750, 126.792 209.323 L 111.584 194 126.792 178.677 C 135.156 170.250, 142 162.857, 142 162.249 C 142 160.815, 139.180 158, 137.743 158 C 137.131 158, 128.838 165.746, 119.315 175.213 M 199.571 159.571 C 198.707 160.436, 198 161.640, 198 162.249 C 198 162.857, 204.844 170.250, 213.208 178.677 L 228.416 194 213.208 209.323 C 204.844 217.750, 198 225.143, 198 225.751 C 198 227.200, 200.827 230, 202.290 230 C 203.969 230, 238 195.693, 238 194 C 238 192.307, 203.969 158, 202.290 158 C 201.659 158, 200.436 158.707, 199.571 159.571 M 263.750 191.073 C 261.423 192.438, 261.524 195.675, 263.934 196.965 C 265.005 197.538, 272.151 198, 279.934 198 L 294 198 294 226 L 294 254 279.934 254 C 265.308 254, 262 254.738, 262 258 C 262 261.750, 264.791 262.037, 298.601 261.764 C 328.469 261.523, 331.378 261.349, 332.386 259.750 C 333.190 258.475, 333.191 257.525, 332.387 256.250 C 331.430 254.730, 329.291 254.464, 316.142 254.224 L 301 253.948 301 226 L 301 198.052 316.142 197.776 C 329.291 197.536, 331.430 197.270, 332.387 195.750 C 333.191 194.475, 333.190 193.525, 332.386 192.250 C 331.377 190.649, 328.483 190.481, 298.391 190.273 C 277.280 190.127, 264.873 190.414, 263.750 191.073 " stroke="none" fill="black" fill-rule="evenodd"/>
</svg>