<svg xmlns="http://www.w3.org/2000/svg" width="180" height="324" viewBox="0 0 180 324" version="1.1">
	<path d="M 39.571 127.571 C 38.176 128.966, 38 136.152, 38 191.571 L 38 254 23.571 254 C 11.788 254, 8.855 254.288, 7.571 255.571 C 5.598 257.545, 5.598 258.455, 7.571 260.429 C 8.936 261.793, 13.463 262, 42 262 C 70.537 262, 75.064 261.793, 76.429 260.429 C 77.293 259.564, 78 258.471, 78 258 C 78 257.529, 77.293 256.436, 76.429 255.571 C 75.145 254.288, 72.212 254, 60.429 254 L 46 254 46 191.571 C 46 136.152, 45.824 128.966, 44.429 127.571 C 43.564 126.707, 42.471 126, 42 126 C 41.529 126, 40.436 126.707, 39.571 127.571 M 135.571 127.571 C 134.176 128.966, 134 136.152, 134 191.571 L 134 254 119.571 254 C 107.788 254, 104.855 254.288, 103.571 255.571 C 101.598 257.545, 101.598 258.455, 103.571 260.429 C 104.936 261.793, 109.463 262, 138 262 C 166.537 262, 171.064 261.793, 172.429 260.429 C 173.293 259.564, 174 258.471, 174 258 C 174 257.529, 173.293 256.436, 172.429 255.571 C 171.145 254.288, 168.212 254, 156.429 254 L 142 254 142 191.571 C 142 136.152, 141.824 128.966, 140.429 127.571 C 139.564 126.707, 138.471 126, 138 126 C 137.529 126, 136.436 126.707, 135.571 127.571 " stroke="none" fill="black" fill-rule="evenodd"/>
</svg>