<svg xmlns="http://www.w3.org/2000/svg" width="532" height="324" viewBox="0 0 532 324" version="1.1">
	<path d="M 39.267 159.267 C 20.970 177.563, 6 193.056, 6 193.695 C 6 195.187, 8.799 198, 10.285 198 C 10.913 198, 25.506 183.947, 42.713 166.771 L 74 135.542 105.287 166.771 C 122.494 183.947, 137.087 198, 137.715 198 C 139.201 198, 142 195.187, 142 193.695 C 142 191.982, 75.721 126, 74 126 C 73.193 126, 57.563 140.970, 39.267 159.267 M 199.267 159.267 C 180.970 177.563, 166 193.056, 166 193.695 C 166 195.187, 168.799 198, 170.285 198 C 170.913 198, 185.506 183.947, 202.713 166.771 L 234 135.542 265.287 166.771 C 282.494 183.947, 297.064 198, 297.664 198 C 299.588 198, 301.241 195.097, 300.647 192.763 C 299.948 190.014, 236.026 126, 233.981 126 C 233.185 126, 217.563 140.970, 199.267 159.267 M 423.230 159.285 C 404.953 177.591, 390 193.084, 390 193.713 C 390 194.949, 392.716 198, 393.815 198 C 394.185 198, 407.878 184.615, 424.244 168.256 L 454 138.513 454 196.256 L 454 254 439.571 254 C 427.788 254, 424.855 254.288, 423.571 255.571 C 421.595 257.548, 421.598 258.455, 423.585 260.442 C 424.978 261.835, 429.159 261.995, 458.226 261.763 C 488.452 261.523, 491.377 261.350, 492.386 259.750 C 493.190 258.475, 493.191 257.525, 492.387 256.250 C 491.430 254.730, 489.291 254.464, 476.142 254.224 L 461 253.948 461 196.246 L 461 138.545 490.788 168.272 C 507.172 184.623, 521.067 198, 521.666 198 C 523.295 198, 525.211 195.310, 524.833 193.554 C 524.425 191.664, 458.990 126, 457.515 126 C 456.935 126, 441.506 140.978, 423.230 159.285 M 40.370 190.765 C 38.401 192.045, 6.007 257.855, 6.594 259.384 C 7.265 261.133, 9.512 262.124, 11.274 261.448 C 11.975 261.180, 19.056 247.919, 27.010 231.980 C 34.964 216.041, 41.714 203, 42.009 203 C 42.304 203, 49.101 216.162, 57.113 232.250 L 71.681 261.500 104.090 261.779 C 121.916 261.933, 137.463 261.825, 138.640 261.538 C 139.817 261.252, 141.046 260.323, 141.371 259.475 C 142.058 257.686, 109.206 191.293, 107.265 190.548 C 106.569 190.281, 105.408 190.290, 104.685 190.567 C 103.962 190.845, 96.888 204.106, 88.965 220.036 C 81.042 235.966, 74.314 249, 74.015 249 C 73.716 249, 67.178 236.339, 59.486 220.864 C 51.794 205.389, 44.905 192.114, 44.179 191.364 C 42.686 189.823, 41.988 189.713, 40.370 190.765 M 200.348 190.765 C 198.390 192.014, 166.011 257.865, 166.600 259.400 C 167.266 261.135, 169.518 262.122, 171.274 261.448 C 171.975 261.180, 179.056 247.919, 187.010 231.980 C 194.964 216.041, 201.714 203, 202.009 203 C 202.304 203, 209.101 216.162, 217.113 232.250 L 231.681 261.500 264.090 261.779 C 281.916 261.933, 297.463 261.825, 298.640 261.538 C 299.817 261.252, 301.046 260.323, 301.371 259.475 C 302.058 257.686, 269.206 191.293, 267.265 190.548 C 266.569 190.281, 265.408 190.290, 264.685 190.567 C 263.962 190.845, 256.888 204.106, 248.965 220.036 C 241.042 235.966, 234.314 249, 234.015 249 C 233.716 249, 227.178 236.339, 219.486 220.864 C 211.794 205.389, 204.905 192.114, 204.179 191.364 C 202.685 189.822, 201.996 189.714, 200.348 190.765 M 340.994 190.934 C 333.407 193.242, 329.380 197.101, 327.044 204.303 C 325.592 208.778, 326.281 212.510, 328.733 213.451 C 330.954 214.303, 334 210.740, 334 207.289 C 334 205.792, 335.355 203.445, 337.400 201.400 C 340.264 198.536, 341.512 198, 345.323 198 C 351.042 198, 355.630 201.510, 356.588 206.618 C 357.201 209.886, 356.219 211.654, 341.622 233.554 C 333.030 246.446, 326 257.615, 326 258.374 C 326 261.607, 328.614 262.051, 346.024 261.774 C 361.193 261.533, 363.418 261.288, 364.387 259.750 C 365.190 258.475, 365.191 257.525, 364.388 256.250 C 363.445 254.753, 361.383 254.460, 350.151 254.221 L 337.015 253.942 351.008 232.988 C 358.703 221.464, 365 211.207, 365 210.196 C 365 205.877, 361.660 198.925, 357.992 195.612 C 352.730 190.858, 346.700 189.199, 340.994 190.934 M 92.743 228.500 L 80.005 254 106 254 L 131.995 254 119.257 228.500 C 112.250 214.475, 106.285 203, 106 203 C 105.715 203, 99.750 214.475, 92.743 228.500 M 252.743 228.500 L 240.005 254 266 254 L 291.995 254 279.257 228.500 C 272.250 214.475, 266.285 203, 266 203 C 265.715 203, 259.750 214.475, 252.743 228.500 " stroke="none" fill="black" fill-rule="evenodd"/>
</svg>