<svg xmlns="http://www.w3.org/2000/svg" width="372" height="324" viewBox="0 0 372 324" version="1.1">
	<path d="M 35.434 126.877 C 25.518 128.605, 14.795 136.579, 10.187 145.651 C 7.760 150.428, 5.598 160.546, 6.520 162.811 C 6.898 163.740, 8.454 169.450, 9.979 175.500 C 16.730 202.297, 28.153 222.371, 46.773 240.161 C 56.017 248.992, 71.189 260, 74.117 260 C 77.118 260, 97.353 244.489, 105.191 236.180 C 122.563 217.765, 132.828 198.283, 138.635 172.706 C 140.748 163.399, 140.940 161.127, 140.034 156.206 C 137.764 143.889, 130.409 134.372, 119.175 129.216 C 114.498 127.069, 112.094 126.623, 105.500 126.679 C 92.981 126.787, 82.475 132.479, 76.005 142.662 L 73.360 146.824 71.503 143.377 C 65.369 131.986, 49.022 124.509, 35.434 126.877 M 295.571 127.571 C 294.206 128.937, 294 133.497, 294 162.371 C 294 186.883, 294.315 195.915, 295.200 196.800 C 296.085 197.685, 305.117 198, 329.629 198 C 359.001 198, 363.046 197.811, 364.486 196.371 C 365.442 195.415, 365.834 194.072, 365.434 193.121 C 365.060 192.229, 364.354 189.475, 363.866 187 C 361.648 175.765, 353.937 166.156, 343.175 161.216 C 338.498 159.069, 336.094 158.623, 329.500 158.679 C 320.073 158.760, 312.741 161.529, 306.125 167.506 L 302 171.233 302 150.188 C 302 132.389, 301.758 128.900, 300.429 127.571 C 299.564 126.707, 298.471 126, 298 126 C 297.529 126, 296.436 126.707, 295.571 127.571 M 31.054 135.728 C 24.808 137.933, 17.726 145.299, 15.549 151.854 C 13.909 156.790, 13.905 157.621, 15.478 166.296 C 21.704 200.631, 41.401 230.834, 69.696 249.436 L 73.892 252.194 81.691 246.847 C 91.524 240.106, 104.912 226.704, 111.815 216.693 C 122.392 201.354, 131.247 178.951, 132.635 164.020 C 134.570 143.192, 115.675 128.780, 95.463 135.667 C 86.088 138.862, 78 149.949, 78 159.607 C 78 162.970, 75.867 166, 73.500 166 C 71.133 166, 69 162.970, 69 159.607 C 69 149.949, 60.912 138.862, 51.537 135.667 C 45.516 133.616, 36.964 133.641, 31.054 135.728 M 319.385 167.617 C 311.428 170.439, 304.611 178.342, 302.450 187.250 L 301.783 190 329.500 190 L 357.217 190 356.550 187.250 C 354.335 178.120, 347.528 170.390, 339.205 167.554 C 333.596 165.643, 324.873 165.671, 319.385 167.617 M 167.267 223.267 C 148.970 241.563, 134 257.056, 134 257.695 C 134 259.187, 136.799 262, 138.285 262 C 138.913 262, 153.506 247.947, 170.713 230.771 L 202 199.542 233.287 230.771 C 250.494 247.947, 265.087 262, 265.715 262 C 266.343 262, 267.564 261.293, 268.429 260.429 C 269.793 259.064, 270 254.537, 270 226 C 270 197.463, 269.793 192.936, 268.429 191.571 C 266.455 189.598, 265.545 189.598, 263.571 191.571 C 262.219 192.924, 262 196.990, 262 220.799 L 262 248.455 232.711 219.227 C 216.602 203.152, 202.772 190, 201.978 190 C 201.183 190, 185.563 204.970, 167.267 223.267 " stroke="none" fill="black" fill-rule="evenodd"/>
</svg>