<svg xmlns="http://www.w3.org/2000/svg" width="308" height="324" viewBox="0 0 308 324" version="1.1">
	<path d="M 67.500 126.596 C 45.302 129.520, 27.644 140.567, 16.128 158.736 C -0.142 184.406, 4.598 219.999, 27.164 241.611 C 48.235 261.791, 76.515 266.175, 102.933 253.355 C 110.746 249.564, 113.750 247.380, 120.433 240.633 C 133.821 227.116, 140 212.233, 140 193.500 C 140 174.767, 133.821 159.884, 120.433 146.367 C 113.709 139.579, 110.794 137.467, 102.933 133.688 C 91.314 128.103, 77.321 125.302, 67.500 126.596 M 183.239 143.260 C 173.758 152.754, 166 161.288, 166 162.225 C 166 163.163, 166.939 164.432, 168.087 165.047 C 169.970 166.054, 171.537 164.813, 184.087 152.378 L 198 138.592 198 199.261 C 198 256.353, 198.105 259.986, 199.776 260.880 C 200.902 261.483, 202.182 261.478, 203.276 260.866 C 204.879 259.969, 205 255.627, 205 199.246 L 205 138.592 218.913 152.378 C 231.627 164.976, 233.011 166.065, 234.973 165.014 C 236.266 164.323, 236.998 163.103, 236.811 161.953 C 236.468 159.845, 203.279 126, 201.554 126 C 200.963 126, 192.721 133.767, 183.239 143.260 M 263.724 127.134 C 262.121 128.031, 262 132.373, 262 188.754 L 262 249.408 248.087 235.622 C 235.537 223.187, 233.970 221.946, 232.087 222.953 C 230.939 223.568, 230 224.847, 230 225.796 C 230 227.590, 263.761 262, 265.521 262 C 267.266 262, 301 227.556, 301 225.775 C 301 224.837, 300.061 223.568, 298.913 222.953 C 297.030 221.946, 295.463 223.187, 282.913 235.622 L 269 249.408 269 188.739 C 269 131.647, 268.895 128.014, 267.224 127.120 C 266.098 126.517, 264.818 126.522, 263.724 127.134 M 58.072 135.591 C 47.666 138.388, 39.974 142.984, 31.479 151.479 C 19.117 163.841, 14 176.143, 14 193.500 C 14 210.467, 19.136 223.035, 31 235.102 C 35.125 239.298, 39.927 243.459, 41.671 244.350 L 44.842 245.970 42.501 241.735 C 33.329 225.147, 40.391 202.806, 57.432 194.498 C 71.666 187.560, 87.032 189.917, 97.766 200.687 C 105.447 208.393, 107.475 213.567, 107.488 225.500 C 107.499 234.446, 107.212 236.058, 104.768 240.796 L 102.037 246.091 105.209 244.296 C 114.870 238.828, 126.274 223.893, 130.633 211 C 133.254 203.248, 133.254 183.752, 130.633 176 C 123.917 156.136, 107.617 140.554, 88.356 135.585 C 80.711 133.613, 65.418 133.616, 58.072 135.591 M 62.373 199.918 C 60.104 200.948, 57.908 202.340, 57.494 203.009 C 57.015 203.785, 59.689 207.174, 64.864 212.349 L 72.985 220.470 81.456 212.044 C 90.853 202.695, 90.927 202.185, 83.260 199.573 C 76.963 197.427, 67.514 197.583, 62.373 199.918 M 50.192 210.269 C 45.752 215.619, 44.575 229.264, 47.918 236.627 C 48.948 238.896, 50.209 241.011, 50.718 241.326 C 51.228 241.641, 55.325 238.199, 59.823 233.678 L 68.001 225.457 59.671 217.170 C 52.884 210.419, 51.128 209.140, 50.192 210.269 M 86.727 216.772 C 82.477 221.047, 79 224.995, 79 225.546 C 79 226.709, 94.165 242, 95.318 242 C 95.744 242, 97.192 239.637, 98.536 236.750 C 100.274 233.018, 100.980 229.765, 100.980 225.500 C 100.980 219.632, 97.303 209, 95.273 209 C 94.822 209, 90.976 212.497, 86.727 216.772 M 64.477 239.059 L 56.500 247.118 58.830 249.034 C 63.737 253.069, 75.248 254.235, 83.038 251.487 C 90.998 248.678, 90.983 248.530, 81.830 239.329 C 77.273 234.748, 73.299 231, 72.999 231 C 72.699 231, 68.864 234.627, 64.477 239.059 " stroke="none" fill="black" fill-rule="evenodd"/>
</svg>