<svg xmlns="http://www.w3.org/2000/svg" width="212" height="324" viewBox="0 0 212 324" version="1.1">
	<path d="M 72.372 62.751 C 70.408 64.054, 54.005 97.849, 54.593 99.381 C 55.268 101.141, 57.513 102.124, 59.295 101.440 C 60.007 101.167, 63.480 95.106, 67.014 87.972 C 70.547 80.837, 73.691 75, 74 75 C 74.309 75, 77.453 80.837, 80.986 87.972 C 84.520 95.106, 87.993 101.167, 88.705 101.440 C 90.478 102.121, 92.731 101.144, 93.398 99.406 C 94.127 97.506, 76.754 62.573, 74.920 62.251 C 74.139 62.114, 72.992 62.339, 72.372 62.751 M 71.571 127.571 C 70.178 128.965, 70 135.897, 70 188.774 L 70 248.405 56.667 235.202 C 49.334 227.941, 42.841 222, 42.239 222 C 40.822 222, 38 224.822, 38 226.239 C 38 226.841, 43.941 233.334, 51.202 240.667 L 64.405 254 36.774 254 C 12.988 254, 8.924 254.219, 7.571 255.571 C 5.598 257.545, 5.598 258.455, 7.571 260.429 C 8.968 261.825, 16.339 262, 73.637 262 C 116.182 262, 138.790 261.648, 140.066 260.965 C 141.130 260.395, 142 259.061, 142 258 C 142 256.939, 141.130 255.605, 140.066 255.035 C 138.868 254.394, 127.748 254, 110.863 254 L 83.595 254 96.798 240.667 C 104.059 233.334, 110 226.841, 110 226.239 C 110 224.822, 107.178 222, 105.761 222 C 105.159 222, 98.666 227.941, 91.333 235.202 L 78 248.405 78 188.774 C 78 135.897, 77.822 128.965, 76.429 127.571 C 75.564 126.707, 74.471 126, 74 126 C 73.529 126, 72.436 126.707, 71.571 127.571 M 167.557 160.223 C 166.254 162.082, 166 166.310, 166 186.112 C 166 207.494, 166.175 209.995, 167.817 212.022 C 169.364 213.933, 169.958 214.093, 171.817 213.098 C 173.975 211.943, 174 211.631, 174 186 C 174 161.388, 173.902 160.018, 172.066 159.035 C 169.462 157.642, 169.343 157.673, 167.557 160.223 M 168.200 222.200 C 165.181 225.219, 168.247 230.008, 171.936 228.034 C 174.536 226.643, 174.606 223.395, 172.066 222.035 C 169.655 220.745, 169.655 220.745, 168.200 222.200 " stroke="none" fill="black" fill-rule="evenodd"/>
</svg>