<svg xmlns="http://www.w3.org/2000/svg" width="244" height="324" viewBox="0 0 244 324" version="1.1">
	<path d="M 7.571 127.571 C 6.707 128.436, 6 129.665, 6 130.303 C 6 131.611, 133.462 259.554, 136.367 261.162 C 138.933 262.583, 141.477 260.020, 140.662 256.835 C 140.009 254.284, 12.192 126, 10.303 126 C 9.665 126, 8.436 126.707, 7.571 127.571 M 194.355 158.986 C 183.790 161.214, 174.114 169.146, 169.329 179.500 C 165.374 188.059, 165.386 198.895, 169.361 207.610 C 172.861 215.285, 179.689 222.075, 187.480 225.629 C 195.387 229.236, 205.732 229.409, 214.297 226.077 C 221.354 223.331, 229.569 215.634, 233.056 208.500 C 235.152 204.212, 235.500 202.075, 235.500 193.500 C 235.500 181.367, 233.450 176.286, 225.353 168.339 C 217.361 160.497, 204.948 156.752, 194.355 158.986 M 191.627 167.468 C 186.247 169.386, 181.039 173.829, 177.500 179.519 C 173.527 185.908, 172.712 197.311, 175.741 204.129 C 180.289 214.364, 188.183 219.994, 199.078 220.773 C 206.881 221.332, 212.235 219.787, 218.674 215.119 C 226.430 209.497, 230.774 196.233, 228.098 186.343 C 224.899 174.521, 213.747 165.958, 201.663 166.044 C 198.273 166.068, 193.757 166.709, 191.627 167.468 M 199.750 191.080 C 197.372 192.465, 197.542 195.685, 200.064 197.034 C 203.753 199.008, 206.819 194.219, 203.800 191.200 C 202.367 189.767, 202.022 189.757, 199.750 191.080 M 167.585 255.558 C 166.713 256.430, 166 257.529, 166 258 C 166 258.471, 166.713 259.570, 167.585 260.442 C 168.978 261.835, 173.159 261.995, 202.226 261.763 C 232.452 261.523, 235.377 261.350, 236.386 259.750 C 237.191 258.474, 237.191 257.526, 236.386 256.250 C 235.377 254.650, 232.452 254.477, 202.226 254.237 C 173.159 254.005, 168.978 254.165, 167.585 255.558 " stroke="none" fill="black" fill-rule="evenodd"/>
</svg>