<svg xmlns="http://www.w3.org/2000/svg" width="372" height="324" viewBox="0 0 372 324" version="1.1">
	<path d="M 223.102 127.104 C 197.616 130.977, 175.059 151.543, 168.374 177 C 166.114 185.608, 166.133 201.372, 168.414 210 C 171.688 222.381, 176.580 230.659, 186.461 240.535 C 193.518 247.589, 197.161 250.372, 203.076 253.230 C 213.781 258.402, 231.347 262.280, 237.823 260.900 C 239.845 260.469, 244.875 259.396, 249 258.516 C 261.502 255.849, 270.171 250.907, 280.539 240.539 C 294.551 226.527, 300.304 212.834, 300.304 193.500 C 300.304 181.743, 298.451 173.760, 293.222 163 C 288.088 152.433, 274.567 138.912, 264 133.778 C 251.072 127.496, 236.343 125.092, 223.102 127.104 M 218.645 135.584 C 198.562 140.445, 180.305 158.877, 175.537 179.103 C 173.610 187.282, 173.610 199.718, 175.537 207.897 C 180.338 228.261, 198.739 246.662, 219.103 251.463 C 222.621 252.292, 226.512 252.977, 227.750 252.985 L 230 253 230 193.500 L 230 134 227.250 134.083 C 225.738 134.129, 221.865 134.804, 218.645 135.584 M 238 193.500 C 238 249.506, 238.103 252.999, 239.750 252.985 C 240.713 252.977, 244.379 252.292, 247.897 251.463 C 268.261 246.662, 286.662 228.261, 291.463 207.897 C 293.390 199.718, 293.390 187.282, 291.463 179.103 C 286.662 158.739, 268.261 140.338, 247.897 135.537 C 244.379 134.708, 240.713 134.023, 239.750 134.015 C 238.103 134.001, 238 137.494, 238 193.500 M 65.384 159.412 C 58.802 161.009, 52.250 164.874, 47.831 169.766 C 44.577 173.367, 43.753 173.723, 36.211 174.790 C 31.539 175.451, 25.334 177.189, 21.593 178.885 C 13.739 182.446, 4.771 190.405, 5.204 193.430 C 5.738 197.166, 9.662 196.567, 14.627 191.990 C 19.975 187.060, 28.433 183.091, 35.332 182.274 C 40.181 181.700, 40.282 181.742, 39.716 184.093 C 36.460 197.615, 40.003 210.139, 49.580 218.967 C 64.380 232.610, 86.172 231.613, 99.598 216.679 C 102.019 213.987, 104 211.410, 104 210.953 C 104 210.496, 106.138 209.835, 108.750 209.483 C 120.410 207.912, 129.306 204.182, 136.540 197.831 C 140.501 194.353, 141.161 190.503, 137.970 189.490 C 136.520 189.030, 134.888 189.769, 132.267 192.070 C 127.712 196.070, 117.937 200.698, 112.114 201.611 L 107.728 202.299 108.429 197.623 C 109.247 192.171, 107.630 183.196, 104.841 177.705 C 100.264 168.695, 91.293 161.748, 81.147 159.360 C 74.397 157.772, 72.111 157.779, 65.384 159.412 M 327.571 159.571 C 326.227 160.916, 326 164.736, 326 186 C 326 207.264, 326.227 211.084, 327.571 212.429 C 328.436 213.293, 329.529 214, 330 214 C 330.471 214, 331.564 213.293, 332.429 212.429 C 333.773 211.084, 334 207.264, 334 186 C 334 164.736, 333.773 160.916, 332.429 159.571 C 331.564 158.707, 330.471 158, 330 158 C 329.529 158, 328.436 158.707, 327.571 159.571 M 63.364 167.624 C 61.090 168.431, 57.490 170.626, 55.364 172.504 C 52.028 175.451, 51.789 175.922, 53.616 175.958 C 57.390 176.033, 69.494 182.826, 74.308 187.572 C 76.889 190.116, 79 192.541, 79 192.960 C 79 194.135, 89.974 199.677, 94.893 200.985 C 100.324 202.430, 100.963 201.689, 100.985 193.928 C 101.029 177.691, 89.163 165.851, 73.072 166.079 C 70.007 166.122, 65.639 166.818, 63.364 167.624 M 47.072 185.224 C 45.498 189.739, 45.765 197.954, 47.667 203.537 C 53.575 220.875, 77.473 226.703, 91.928 214.330 C 94.217 212.371, 95.938 210.313, 95.753 209.758 C 95.568 209.203, 92.853 207.956, 89.720 206.986 C 82.259 204.678, 75.024 199.955, 70.512 194.449 C 66.324 189.339, 60.710 185.816, 53.322 183.661 L 48.143 182.150 47.072 185.224 M 327.571 222.571 C 326.707 223.436, 326 224.529, 326 225 C 326 226.111, 328.889 229, 330 229 C 331.111 229, 334 226.111, 334 225 C 334 223.889, 331.111 221, 330 221 C 329.529 221, 328.436 221.707, 327.571 222.571 M 39.571 255.571 C 38.707 256.436, 38 257.529, 38 258 C 38 258.471, 38.707 259.564, 39.571 260.429 C 40.936 261.793, 45.463 262, 74 262 C 102.537 262, 107.064 261.793, 108.429 260.429 C 109.293 259.564, 110 258.471, 110 258 C 110 257.529, 109.293 256.436, 108.429 255.571 C 107.064 254.207, 102.537 254, 74 254 C 45.463 254, 40.936 254.207, 39.571 255.571 " stroke="none" fill="black" fill-rule="evenodd"/>
</svg>