<svg xmlns="http://www.w3.org/2000/svg" width="148" height="324" viewBox="0 0 148 324" version="1.1">
	<path d="M 55.200 63.200 C 53.512 64.888, 53.512 99.112, 55.200 100.800 C 56.040 101.640, 61.562 102, 73.629 102 C 87.958 102, 91.122 101.736, 92.429 100.429 C 94.757 98.100, 94.757 65.900, 92.429 63.571 C 91.122 62.264, 87.958 62, 73.629 62 C 61.562 62, 56.040 62.360, 55.200 63.200 M 62 82 L 62 94 74 94 L 86 94 86 82 L 86 70 74 70 L 62 70 62 82 M 63.102 127.162 C 37.857 130.771, 15.160 151.431, 8.349 177 C 6.078 185.527, 6.091 201.277, 8.377 210 C 11.584 222.236, 16.558 230.636, 26.461 240.539 C 33.440 247.518, 37.223 250.422, 43.060 253.282 C 53.575 258.433, 71.327 262.308, 77.823 260.869 C 79.845 260.421, 84.425 259.509, 88 258.843 C 105.563 255.573, 124.610 240.762, 132.824 223.988 C 138.346 212.711, 140 205.683, 140 193.500 C 140 181.435, 138.345 174.289, 133.041 163.450 C 123.603 144.165, 104.156 130.182, 82.398 127.037 C 74.447 125.887, 71.899 125.904, 63.102 127.162 M 58.645 135.584 C 38.562 140.445, 20.305 158.877, 15.537 179.103 C 13.610 187.282, 13.610 199.718, 15.537 207.897 C 20.363 228.369, 38.631 246.637, 59.103 251.463 C 62.621 252.292, 66.513 252.977, 67.750 252.985 L 70 253 70 193.500 L 70 134 67.250 134.083 C 65.737 134.129, 61.865 134.804, 58.645 135.584 M 78 193.614 L 78 253.227 82.538 252.547 C 105.542 249.097, 125.184 231.241, 131.003 208.489 C 138.032 181.004, 124.843 152.100, 99.820 140.153 C 92.461 136.639, 83.724 134, 79.451 134 C 78.199 134, 78 142.189, 78 193.614 " stroke="none" fill="black" fill-rule="evenodd"/>
</svg>