<svg xmlns="http://www.w3.org/2000/svg" width="244" height="324" viewBox="0 0 244 324" version="1.1">
	<path d="M 40.372 62.765 C 38.418 64.037, 22.003 97.844, 22.593 99.381 C 23.268 101.141, 25.513 102.124, 27.295 101.440 C 28.007 101.167, 31.480 95.106, 35.014 87.972 C 38.547 80.837, 41.691 75, 42 75 C 42.309 75, 45.453 80.837, 48.986 87.972 C 52.520 95.106, 56.076 101.199, 56.889 101.511 C 57.701 101.823, 59.219 101.225, 60.261 100.183 C 62.121 98.324, 61.994 97.966, 53.456 80.894 C 45.647 65.280, 43.673 62.031, 42 62.031 C 41.725 62.031, 40.992 62.361, 40.372 62.765 M 167.571 127.571 C 166.219 128.924, 166 132.971, 166 156.584 L 166 184.025 162.079 181.550 C 144.534 170.474, 119.166 173.012, 104.250 187.335 C 99.486 191.910, 99.367 192.224, 101.571 194.429 C 103.766 196.623, 104.488 196.447, 108.747 192.681 C 110.811 190.856, 114.075 188.437, 116 187.304 C 129.866 179.150, 149.521 180.533, 162.708 190.591 L 166 193.102 166 221.287 L 166 249.473 152.237 235.737 C 144.667 228.181, 138.175 222, 137.808 222 C 136.728 222, 134 225.049, 134 226.257 C 134 227.709, 168.085 262, 169.528 262 C 171.020 262, 204.413 228.356, 204.833 226.430 C 205.208 224.709, 203.297 222, 201.708 222 C 201.132 222, 194.437 228.167, 186.830 235.704 L 173 249.408 173 225.704 C 173 205.732, 173.227 202, 174.441 202 C 175.234 202, 176.142 202.421, 176.460 202.935 C 177.398 204.453, 187.437 207.866, 194.135 208.944 C 206.454 210.928, 221.606 206.661, 231.748 198.350 C 236.328 194.598, 237.045 191.672, 233.873 189.685 C 232.605 188.890, 231.264 189.469, 227.803 192.305 C 213.842 203.745, 193.545 205.229, 178.857 195.883 C 176.304 194.259, 173.948 191.933, 173.621 190.715 C 173.294 189.497, 173.021 174.977, 173.014 158.450 C 173.004 136.427, 172.679 128.079, 171.800 127.200 C 170.219 125.619, 169.457 125.685, 167.571 127.571 M 35.045 159.064 C 13.497 163.427, 1.173 185.901, 9.037 206.493 C 12.164 214.680, 20.320 222.836, 28.507 225.963 C 41.863 231.064, 56.079 228.081, 66.080 218.080 C 75.936 208.224, 78.916 193.869, 73.893 180.443 C 68.367 165.675, 50.623 155.909, 35.045 159.064 M 31.627 167.468 C 26.302 169.367, 21.047 173.815, 17.618 179.328 C 14.254 184.737, 13.041 194.780, 14.916 201.708 C 16.446 207.361, 21.544 213.823, 27.266 217.361 C 33.473 221.198, 43.261 222.070, 51.058 219.481 C 69.624 213.314, 75.164 188.069, 61.048 173.952 C 53.696 166.601, 41.563 163.927, 31.627 167.468 M 39.571 191.571 C 38.707 192.436, 38 193.529, 38 194 C 38 195.111, 40.889 198, 42 198 C 43.111 198, 46 195.111, 46 194 C 46 192.889, 43.111 190, 42 190 C 41.529 190, 40.436 190.707, 39.571 191.571 " stroke="none" fill="black" fill-rule="evenodd"/>
</svg>