<svg xmlns="http://www.w3.org/2000/svg" width="100" height="324" viewBox="0 0 100 324" version="1.1">
	<path d="M 23.571 63.571 C 22.707 64.436, 22 65.317, 22 65.531 C 22 66.993, 39.421 100.653, 40.488 101.252 C 41.225 101.665, 42.440 101.768, 43.188 101.481 C 44.837 100.849, 61 68.755, 61 66.115 C 61 63.770, 58.710 61.790, 56.832 62.511 C 56.050 62.811, 52.520 68.894, 48.986 76.028 C 45.453 83.163, 42.306 89, 41.994 89 C 41.683 89, 38.969 83.984, 35.964 77.854 C 30.437 66.580, 27.559 62, 25.999 62 C 25.528 62, 24.436 62.707, 23.571 63.571 M 7.250 190.662 C 5.004 191.569, 5.929 194.866, 9.905 200.119 C 17.746 210.478, 20.152 225.676, 15.933 238.199 C 14.138 243.526, 12.304 246.695, 6.225 254.972 C 5.524 255.926, 5.235 257.448, 5.582 258.354 C 6.626 261.074, 10.555 260.271, 13.694 256.696 C 29.147 239.096, 29.147 210.904, 13.694 193.304 C 10.858 190.075, 9.791 189.637, 7.250 190.662 M 67.450 194.250 C 62.483 199.946, 58.296 209.320, 56.874 217.933 C 54.697 231.115, 59.062 246.109, 68.050 256.319 C 72.342 261.195, 74.863 262.075, 77.038 259.454 C 78.105 258.168, 77.958 257.452, 76.166 255.204 C 66.672 243.294, 63.864 236.400, 63.906 225.101 C 63.922 220.921, 64.613 215.250, 65.441 212.500 C 66.763 208.116, 68.426 205.298, 75.622 195.245 C 76.923 193.428, 76.996 192.700, 75.996 191.495 C 73.905 188.975, 71.324 189.807, 67.450 194.250 " stroke="none" fill="black" fill-rule="evenodd"/>
</svg>