<svg xmlns="http://www.w3.org/2000/svg" width="196" height="324" viewBox="0 0 196 324" version="1.1">
	<path d="M 23.571 63.571 C 22.707 64.436, 22 65.609, 22 66.178 C 22 66.747, 25.226 70.540, 29.169 74.607 L 36.338 82 29.169 89.393 C 25.226 93.460, 22 97.253, 22 97.822 C 22 99.161, 24.839 102, 26.178 102 C 26.747 102, 30.540 98.774, 34.607 94.831 L 42 87.662 49.393 94.831 C 53.460 98.774, 57.253 102, 57.822 102 C 59.161 102, 62 99.161, 62 97.822 C 62 97.253, 58.774 93.460, 54.831 89.393 L 47.662 82 54.831 74.607 C 58.774 70.540, 62 66.747, 62 66.178 C 62 64.839, 59.161 62, 57.822 62 C 57.253 62, 53.460 65.226, 49.393 69.169 L 42 76.338 34.607 69.169 C 30.540 65.226, 26.747 62, 26.178 62 C 25.609 62, 24.436 62.707, 23.571 63.571 M 33.384 159.357 C 15.366 163.922, 3.545 181.845, 6.993 199.372 C 9.077 209.960, 14.986 218.563, 23.673 223.654 C 27.992 226.185, 41.830 230.214, 43.238 229.350 C 43.644 229.101, 46.569 228.222, 49.738 227.396 C 70.579 221.970, 81.549 200.710, 73.934 180.507 C 68.097 165.023, 49.437 155.290, 33.384 159.357 M 31.054 167.728 C 25.018 169.859, 17.781 177.260, 15.667 183.463 C 10.058 199.925, 18.847 216.571, 35.250 220.550 L 38 221.217 38 193.608 C 38 172.146, 37.722 166.018, 36.750 166.079 C 36.063 166.122, 33.499 166.864, 31.054 167.728 M 46 193.433 C 46 208.595, 46.168 221, 46.374 221 C 46.580 221, 48.646 220.331, 50.965 219.512 C 57.653 217.153, 62.596 212.567, 66.080 205.488 C 68.890 199.782, 69.186 198.354, 68.817 192.295 C 68.028 179.334, 60.904 170.417, 48.250 166.552 L 46 165.865 46 193.433 M 102.667 190.667 C 101.220 192.113, 102.142 195.392, 105.016 199.020 C 106.675 201.115, 109.262 205.454, 110.765 208.664 C 113.199 213.860, 113.498 215.651, 113.498 225 C 113.498 234.388, 113.204 236.128, 110.722 241.430 C 109.195 244.692, 106.350 249.307, 104.401 251.686 C 100.361 256.617, 100.275 259.356, 104.146 259.806 C 106.220 260.047, 107.530 259.190, 110.350 255.749 C 121.740 241.848, 124.482 221.174, 117.042 205.275 C 111.917 194.325, 105.515 187.818, 102.667 190.667 M 163.505 194.127 C 158.520 199.644, 154.336 208.901, 152.828 217.750 C 150.559 231.065, 155.101 246.730, 164.042 256.430 C 168.456 261.219, 170.894 262.038, 173.038 259.454 C 174.105 258.168, 173.958 257.452, 172.166 255.204 C 162.672 243.294, 159.864 236.400, 159.906 225.101 C 159.922 220.921, 160.613 215.250, 161.441 212.500 C 162.763 208.116, 164.426 205.298, 171.622 195.245 C 172.923 193.428, 172.996 192.700, 171.996 191.495 C 169.933 189.010, 167.425 189.787, 163.505 194.127 M 7.571 255.571 C 6.707 256.436, 6 257.529, 6 258 C 6 258.471, 6.707 259.564, 7.571 260.429 C 8.936 261.793, 13.463 262, 42 262 C 70.537 262, 75.064 261.793, 76.429 260.429 C 77.293 259.564, 78 258.471, 78 258 C 78 257.529, 77.293 256.436, 76.429 255.571 C 75.064 254.207, 70.537 254, 42 254 C 13.463 254, 8.936 254.207, 7.571 255.571 " stroke="none" fill="black" fill-rule="evenodd"/>
</svg>