<svg xmlns="http://www.w3.org/2000/svg" width="148" height="324" viewBox="0 0 148 324" version="1.1">
	<path d="M 71.550 62.918 C 67.869 68.875, 54.190 98.331, 54.604 99.410 C 55.450 101.615, 58.110 102.210, 59.895 100.594 C 60.778 99.795, 64.185 93.709, 67.467 87.070 C 70.748 80.432, 73.687 75, 73.997 75 C 74.308 75, 77.453 80.837, 80.986 87.972 C 84.520 95.106, 88.050 101.189, 88.832 101.489 C 90.716 102.212, 93 100.227, 93 97.866 C 93 95.626, 77.264 63.831, 75.628 62.765 C 74.071 61.751, 72.229 61.820, 71.550 62.918 M 71.571 127.571 C 70.199 128.944, 70 133.887, 70 166.664 L 70 204.185 64.952 199.646 C 56.744 192.267, 45.354 188.960, 35.295 191.035 C 20.472 194.095, 10.023 204.568, 7 219.396 C 4.131 233.464, 11.708 249.216, 24.712 256.219 C 38.104 263.432, 54.144 261.361, 65.426 250.962 L 70 246.745 70 252.801 C 70 258.577, 71.494 262, 74.015 262 C 75.993 262, 78 257.298, 78 252.661 L 78 247.767 81.955 251.340 C 95.950 263.984, 116.582 263.540, 129.766 250.313 C 137.455 242.600, 139.477 237.432, 139.477 225.500 C 139.477 213.568, 137.455 208.400, 129.766 200.687 C 116.582 187.460, 95.950 187.016, 81.955 199.660 L 78 203.233 78 166.839 C 78 135.518, 77.783 130.135, 76.443 128.223 C 74.598 125.588, 73.678 125.465, 71.571 127.571 M 31.054 199.728 C 25.018 201.859, 17.781 209.260, 15.667 215.463 C 9.189 234.476, 21.963 253, 41.552 253 C 56.843 253, 69 240.819, 69 225.500 C 69 214.038, 61.486 203.200, 50.965 199.488 C 45.610 197.598, 36.784 197.705, 31.054 199.728 M 95.627 199.468 C 90.247 201.386, 85.039 205.829, 81.500 211.519 C 77.527 217.908, 76.712 229.311, 79.741 236.129 C 84.181 246.120, 92.127 251.919, 102.521 252.754 C 114.446 253.711, 124.036 248.794, 129.500 238.921 C 132.132 234.166, 132.500 232.518, 132.500 225.500 C 132.500 218.487, 132.130 216.829, 129.500 212.061 C 126.429 206.492, 120.651 201.526, 114.684 199.326 C 110.327 197.720, 100.323 197.794, 95.627 199.468 " stroke="none" fill="black" fill-rule="evenodd"/>
</svg>