<svg xmlns="http://www.w3.org/2000/svg" width="148" height="324" viewBox="0 0 148 324" version="1.1">
	<path d="M 55.571 63.571 C 54.707 64.436, 54 65.317, 54 65.531 C 54 66.316, 71.159 100.529, 71.965 101.349 C 74.275 103.702, 76.913 100.229, 84.760 84.501 C 89.292 75.417, 93 67.143, 93 66.115 C 93 63.770, 90.710 61.790, 88.832 62.511 C 88.050 62.811, 84.520 68.894, 80.986 76.028 C 77.453 83.163, 74.308 89, 73.997 89 C 73.687 89, 70.748 83.534, 67.467 76.853 C 59.925 61.499, 58.847 60.296, 55.571 63.571 M 71.663 126.750 C 70.604 128.495, 6 258.061, 6 258.440 C 6 258.670, 6.707 259.564, 7.571 260.429 C 8.968 261.825, 16.372 262, 74 262 C 131.628 262, 139.032 261.825, 140.429 260.429 C 141.293 259.564, 142 258.663, 142 258.426 C 142 257.155, 76.584 127.384, 75.631 126.765 C 74.159 125.809, 72.238 125.802, 71.663 126.750 M 44.747 196.500 L 16.002 254 73.584 254 C 106.294 254, 131.023 253.620, 130.833 253.121 C 129.563 249.770, 74.395 139.002, 73.996 139.001 C 73.719 139, 60.557 164.875, 44.747 196.500 M 71.571 159.571 C 69.215 161.927, 69.215 210.073, 71.571 212.429 C 73.678 214.535, 74.598 214.412, 76.443 211.777 C 77.745 209.919, 78 205.701, 78 186 C 78 166.299, 77.745 162.081, 76.443 160.223 C 74.598 157.588, 73.678 157.465, 71.571 159.571 M 71.616 222.527 C 70.727 223.416, 70 224.529, 70 225 C 70 226.389, 73.140 229.120, 74.295 228.735 C 76.395 228.035, 77.549 225.094, 76.423 223.310 C 74.905 220.902, 73.474 220.669, 71.616 222.527 " stroke="none" fill="black" fill-rule="evenodd"/>
</svg>