<svg xmlns="http://www.w3.org/2000/svg" width="500" height="324" viewBox="0 0 500 324" version="1.1">
	<path d="M 359.750 127.080 C 358.140 128.018, 358 130.700, 358 160.556 L 358 193.012 342 225 C 333.200 242.593, 326 257.650, 326 258.459 C 326 260.671, 329.793 262.417, 331.507 260.994 C 332.266 260.364, 339.184 247.058, 346.881 231.425 C 354.578 215.791, 361.127 203, 361.434 203 C 361.742 203, 368.492 215.991, 376.435 231.869 C 384.535 248.062, 391.617 261.023, 392.565 261.386 C 394.483 262.122, 397 260.428, 397 258.401 C 397 257.656, 389.800 242.612, 381 224.969 L 365 192.892 365 160.646 C 365 125.461, 364.794 124.142, 359.750 127.080 M 455.750 127.080 C 454.140 128.018, 454 130.699, 454 160.546 L 454 192.992 437.756 225.498 C 424.424 252.177, 421.710 258.317, 422.615 259.752 C 423.630 261.360, 426.427 261.500, 457.500 261.500 C 488.573 261.500, 491.370 261.360, 492.385 259.752 C 493.290 258.317, 490.576 252.177, 477.244 225.498 L 461 192.992 461 160.696 C 461 125.458, 460.794 124.142, 455.750 127.080 M 103.571 159.571 C 102.707 160.436, 102 161.636, 102 162.239 C 102 162.841, 107.941 169.334, 115.202 176.667 L 128.405 190 68.774 190 C 15.897 190, 8.965 190.178, 7.571 191.571 C 5.598 193.545, 5.598 194.455, 7.571 196.429 C 8.965 197.822, 15.897 198, 68.774 198 L 128.405 198 115.202 211.333 C 107.941 218.666, 102 225.159, 102 225.761 C 102 227.202, 104.832 230, 106.290 230 C 107.969 230, 142 195.693, 142 194 C 142 192.307, 107.969 158, 106.290 158 C 105.659 158, 104.436 158.707, 103.571 159.571 M 183.315 175.213 C 173.792 184.680, 166 193.134, 166 194 C 166 195.680, 199.953 230, 201.615 230 C 203.114 230, 205 227.791, 205 226.036 C 205 225.175, 199.143 218.628, 191.985 211.486 L 178.970 198.500 239.126 198 C 295.013 197.535, 299.361 197.376, 300.386 195.750 C 301.191 194.474, 301.191 193.526, 300.386 192.250 C 299.361 190.624, 295.013 190.465, 239.126 190 L 178.970 189.500 191.985 176.514 C 199.143 169.372, 205 162.825, 205 161.964 C 205 160.209, 203.114 158, 201.615 158 C 201.073 158, 192.838 165.746, 183.315 175.213 M 444.744 227.500 C 437.735 241.531, 432 253.233, 432 253.505 C 432 253.777, 443.475 254, 457.500 254 C 471.525 254, 482.976 253.662, 482.946 253.250 C 482.917 252.838, 477.176 241.135, 470.190 227.245 L 457.487 201.989 444.744 227.500 " stroke="none" fill="black" fill-rule="evenodd"/>
</svg>