<svg xmlns="http://www.w3.org/2000/svg" width="244" height="324" viewBox="0 0 244 324" version="1.1">
	<path d="M 33.384 127.357 C 15.361 131.923, 3.562 149.820, 6.987 167.396 C 11.622 191.187, 35.789 203.119, 57.703 192.436 C 73.004 184.976, 80.269 165.314, 73.934 148.507 C 68.097 133.023, 49.437 123.290, 33.384 127.357 M 185.302 173.208 L 138.055 220.417 122.646 205.208 C 114.172 196.844, 106.767 190, 106.190 190 C 104.808 190, 102 192.847, 102 194.249 C 102 194.857, 108.844 202.250, 117.208 210.677 L 132.416 226 117.208 241.323 C 108.844 249.750, 102 257.143, 102 257.751 C 102 259.153, 104.808 262, 106.190 262 C 106.767 262, 114.165 255.162, 122.632 246.805 L 138.027 231.610 153.336 246.805 C 161.756 255.162, 169.085 262, 169.623 262 C 171.065 262, 173 259.810, 173 258.178 C 173 257.396, 166.475 250.040, 158.500 241.831 C 150.525 233.622, 144 226.384, 144 225.748 C 144 225.111, 164.925 203.634, 190.500 178.021 C 216.075 152.408, 237 130.765, 237 129.926 C 237 128.183, 235.095 126, 233.575 126 C 233.011 126, 211.288 147.244, 185.302 173.208 M 31.054 135.728 C 25.018 137.859, 17.781 145.260, 15.667 151.463 C 11.995 162.241, 14.382 173.477, 21.952 181.048 C 32.402 191.497, 49.888 191.773, 60.280 181.653 C 66.701 175.401, 68.500 170.989, 68.500 161.500 C 68.500 152.107, 66.733 147.694, 60.453 141.406 C 53.491 134.434, 41.355 132.091, 31.054 135.728 M 7.571 191.571 C 6.707 192.436, 6 193.640, 6 194.249 C 6 194.857, 12.844 202.250, 21.208 210.677 L 36.416 226 21.208 241.323 C 12.844 249.750, 6 257.143, 6 257.751 C 6 259.181, 8.819 262, 10.249 262 C 10.857 262, 18.250 255.156, 26.677 246.792 L 42 231.584 57.323 246.792 C 65.750 255.156, 73.143 262, 73.751 262 C 75.181 262, 78 259.181, 78 257.751 C 78 257.143, 71.156 249.750, 62.792 241.323 L 47.584 226 62.792 210.677 C 71.156 202.250, 78 194.857, 78 194.249 C 78 192.819, 75.181 190, 73.751 190 C 73.143 190, 65.750 196.844, 57.323 205.208 L 42 220.416 26.677 205.208 C 18.250 196.844, 10.857 190, 10.249 190 C 9.640 190, 8.436 190.707, 7.571 191.571 " stroke="none" fill="black" fill-rule="evenodd"/>
</svg>