<svg xmlns="http://www.w3.org/2000/svg" width="148" height="324" viewBox="0 0 148 324" version="1.1">
	<path d="M 55.571 63.571 C 54.707 64.436, 54 65.317, 54 65.531 C 54 66.993, 71.421 100.653, 72.488 101.252 C 73.225 101.665, 74.440 101.768, 75.188 101.481 C 76.837 100.849, 93 68.755, 93 66.115 C 93 63.770, 90.710 61.790, 88.832 62.511 C 88.050 62.811, 84.520 68.894, 80.986 76.028 C 77.453 83.163, 74.306 89, 73.994 89 C 73.683 89, 70.969 83.984, 67.964 77.854 C 62.437 66.580, 59.559 62, 57.999 62 C 57.528 62, 56.436 62.707, 55.571 63.571 M 67.045 127.064 C 52.708 129.967, 41.545 141.276, 38.901 155.575 C 37.772 161.686, 38.282 164.511, 40.683 165.432 C 43.390 166.471, 45.998 163.131, 46.022 158.595 C 46.048 153.824, 48.543 147.860, 52.451 143.230 C 61.564 132.434, 79.477 130.873, 90.853 139.883 C 95.329 143.429, 99.653 150.978, 100.600 156.900 L 101.285 161.187 53.643 208.868 C 27.439 235.092, 6 257.068, 6 257.703 C 6 259.185, 8.789 261.987, 10.321 262.045 C 10.970 262.069, 30.850 242.492, 54.500 218.540 C 78.150 194.588, 97.794 174.993, 98.153 174.995 C 99.545 175.005, 94.615 189.022, 89.517 199.552 C 79.792 219.637, 64.918 236.777, 47.014 248.534 C 39.180 253.677, 37.967 254.845, 38.214 257 C 38.704 261.284, 42.015 260.573, 51.608 254.125 C 63.806 245.925, 73.626 236.653, 82.261 225.181 C 94.170 209.360, 101.829 192.993, 106.007 174.437 L 108.244 164.500 124.622 147.989 C 133.630 138.908, 141 130.786, 141 129.939 C 141 128.211, 139.107 126, 137.627 126 C 137.093 126, 130.216 132.384, 122.347 140.186 C 114.477 147.988, 107.902 154.176, 107.736 153.936 C 107.569 153.696, 106.821 151.700, 106.075 149.500 C 100.801 133.964, 83.131 123.806, 67.045 127.064 " stroke="none" fill="black" fill-rule="evenodd"/>
</svg>