<svg xmlns="http://www.w3.org/2000/svg" width="308" height="324" viewBox="0 0 308 324" version="1.1">
	<path d="M 39.230 159.285 C 20.953 177.591, 6 193.084, 6 193.713 C 6 195.191, 8.808 198, 10.285 198 C 10.913 198, 25.506 183.947, 42.713 166.771 L 74 135.542 105.287 166.771 C 122.494 183.947, 137.064 198, 137.664 198 C 139.269 198, 141.216 195.319, 140.833 193.637 C 140.348 191.512, 75.448 126, 73.828 126 C 73.075 126, 57.506 140.978, 39.230 159.285 M 223.531 127.056 C 206.194 129.748, 190.606 138.917, 180.275 152.500 C 155.804 184.675, 164.046 229.048, 198.558 250.935 L 203.392 254 186.630 254 C 176.988 254, 169.047 254.440, 167.934 255.035 C 165.446 256.367, 165.446 259.633, 167.934 260.965 C 169.209 261.647, 191.550 262, 233.500 262 C 275.450 262, 297.791 261.647, 299.066 260.965 C 300.130 260.395, 301 259.061, 301 258 C 301 254.620, 297.740 254, 279.982 254 L 262.832 254 270.347 248.974 C 288.344 236.937, 298.720 218.412, 299.766 196.451 C 301.515 159.710, 273.807 129.033, 236.673 126.599 C 232.728 126.341, 226.814 126.546, 223.531 127.056 M 218.072 135.532 C 207.628 138.453, 199.923 143.060, 191.384 151.489 C 179.132 163.583, 173.639 176.587, 173.639 193.500 C 173.639 210.413, 179.132 223.417, 191.384 235.511 C 200.259 244.272, 207.970 248.753, 219.060 251.594 C 227.800 253.833, 244.050 253.075, 252.723 250.024 C 266.832 245.060, 279.471 233.874, 286.082 220.500 C 295.079 202.297, 295.070 184.715, 286.055 166.423 C 279.478 153.078, 266.927 141.986, 252.723 136.966 C 244.494 134.058, 226.068 133.296, 218.072 135.532 " stroke="none" fill="black" fill-rule="evenodd"/>
</svg>