<svg xmlns="http://www.w3.org/2000/svg" width="308" height="324" viewBox="0 0 308 324" version="1.1">
	<path d="M 39.571 127.571 C 38.176 128.966, 38 136.152, 38 191.571 L 38 254 23.571 254 C 11.788 254, 8.855 254.288, 7.571 255.571 C 5.595 257.548, 5.598 258.455, 7.585 260.442 C 8.978 261.835, 13.159 261.995, 42.226 261.763 C 72.452 261.523, 75.377 261.350, 76.386 259.750 C 77.190 258.475, 77.191 257.525, 76.387 256.250 C 75.433 254.736, 73.314 254.463, 60.643 254.223 L 46 253.947 46 191.545 C 46 136.149, 45.824 128.966, 44.429 127.571 C 43.564 126.707, 42.471 126, 42 126 C 41.529 126, 40.436 126.707, 39.571 127.571 M 115.505 130.127 C 107.027 139.511, 102.615 155.263, 104.828 168.250 C 106.227 176.458, 110.209 185.615, 114.923 191.461 L 118.117 195.423 117.928 227.419 C 117.741 259.062, 117.763 259.430, 119.870 260.830 C 121.580 261.965, 122.297 261.999, 123.500 261 C 124.325 260.315, 125 259.290, 125 258.722 C 125 258.154, 126.150 256.181, 127.555 254.339 C 128.960 252.496, 131.548 247.954, 133.305 244.244 C 136.368 237.778, 136.500 236.984, 136.500 225 C 136.500 213.094, 136.353 212.191, 133.406 206 C 131.704 202.425, 129.117 197.750, 127.656 195.610 L 125 191.721 125 160.442 C 125 143.239, 124.727 128.452, 124.393 127.582 C 123.287 124.700, 119.402 125.813, 115.505 130.127 M 115.026 144.500 C 112.828 148.943, 112.553 150.780, 112.553 161 C 112.553 171.220, 112.828 173.057, 115.026 177.500 L 117.500 182.500 117.784 171.750 C 117.940 165.838, 117.940 156.162, 117.784 150.250 L 117.500 139.500 115.026 144.500 M 167.207 191.193 C 166.543 191.857, 166 192.988, 166 193.706 C 166 196.102, 199.023 261.072, 200.536 261.652 C 201.355 261.967, 202.757 261.616, 203.651 260.874 C 204.546 260.132, 211.517 246.734, 219.143 231.100 C 226.769 215.467, 233.344 203.004, 233.754 203.405 C 234.164 203.807, 241.025 217.042, 249 232.817 C 260.720 256, 263.884 261.500, 265.500 261.500 C 268.458 261.500, 302.035 194.864, 300.390 192.257 C 299.355 190.615, 295.014 190.483, 233.848 190.243 C 183.786 190.046, 168.131 190.269, 167.207 191.193 M 188.608 223.250 C 195.546 237.137, 201.371 248.661, 201.553 248.859 C 201.878 249.211, 227 199.502, 227 198.508 C 227 198.228, 215.523 198, 201.496 198 L 175.992 198 188.608 223.250 M 240 198.508 C 240 199.477, 265.010 249, 265.500 249 C 265.990 249, 291 199.477, 291 198.508 C 291 198.228, 279.525 198, 265.500 198 C 251.475 198, 240 198.228, 240 198.508 M 125 225 C 125 236.072, 125.362 243.022, 125.909 242.450 C 127.648 240.633, 130 230.602, 130 225 C 130 219.398, 127.648 209.367, 125.909 207.550 C 125.362 206.978, 125 213.928, 125 225 " stroke="none" fill="black" fill-rule="evenodd"/>
</svg>