<svg xmlns="http://www.w3.org/2000/svg" width="196" height="324" viewBox="0 0 196 324" version="1.1">
	<path d="M 7.571 63.571 C 5.243 65.900, 5.243 98.100, 7.571 100.429 C 9.900 102.757, 42.100 102.757, 44.429 100.429 C 46.757 98.100, 46.757 65.900, 44.429 63.571 C 42.100 61.243, 9.900 61.243, 7.571 63.571 M 14 82 L 14 94 26 94 L 38 94 38 82 L 38 70 26 70 L 14 70 14 82 M 23.571 127.571 C 22.175 128.968, 22 136.372, 22 194 C 22 251.628, 22.175 259.032, 23.571 260.429 C 24.436 261.293, 25.529 262, 26 262 C 26.471 262, 27.564 261.293, 28.429 260.429 C 29.825 259.032, 30 251.628, 30 194 C 30 136.372, 29.825 128.968, 28.429 127.571 C 27.564 126.707, 26.471 126, 26 126 C 25.529 126, 24.436 126.707, 23.571 127.571 M 55.200 191.200 C 54.540 191.860, 54.021 192.873, 54.047 193.450 C 54.158 195.899, 87.849 261.522, 89.112 261.749 C 89.875 261.886, 91.008 261.661, 91.630 261.249 C 92.251 260.837, 99.283 247.453, 107.255 231.507 L 121.750 202.514 136.337 231.674 C 144.360 247.713, 151.395 261.126, 151.971 261.482 C 154.896 263.290, 157.237 259.553, 173.251 227.508 C 182.463 209.074, 190 193.801, 190 193.568 C 190 193.334, 189.293 192.436, 188.429 191.571 C 187.032 190.175, 179.594 190, 121.629 190 C 72.229 190, 56.109 190.291, 55.200 191.200 M 76.743 223.500 C 83.750 237.525, 89.711 248.985, 89.991 248.967 C 90.402 248.941, 113.658 202.071, 114.833 198.899 C 115.025 198.382, 104.313 198, 89.586 198 L 64.005 198 76.743 223.500 M 140.608 223.250 C 147.546 237.137, 153.371 248.661, 153.553 248.859 C 153.878 249.211, 179 199.502, 179 198.508 C 179 198.228, 167.523 198, 153.496 198 L 127.992 198 140.608 223.250 " stroke="none" fill="black" fill-rule="evenodd"/>
</svg>