<svg xmlns="http://www.w3.org/2000/svg" width="244" height="324" viewBox="0 0 244 324" version="1.1">
	<path d="M 231.750 127.080 C 230.148 128.013, 230 130.520, 230 156.786 L 230 185.473 216.131 171.631 C 203.495 159.019, 202.073 157.890, 200.131 158.930 C 198.959 159.557, 198 160.836, 198 161.772 C 198 162.708, 203.956 169.442, 211.236 176.737 L 224.472 190 164.808 190 C 111.900 190, 104.965 190.178, 103.571 191.571 C 101.598 193.545, 101.598 194.455, 103.571 196.429 C 104.965 197.822, 111.900 198, 164.808 198 L 224.472 198 211.236 211.263 C 203.956 218.558, 198 225.292, 198 226.228 C 198 227.164, 198.959 228.443, 200.131 229.070 C 202.073 230.110, 203.495 228.981, 216.131 216.369 L 230 202.527 230 231.228 C 230 259.433, 230.037 259.949, 232.117 261.062 C 237.076 263.716, 237.023 264.441, 237.023 194.069 C 237.023 123.438, 237.066 123.984, 231.750 127.080 M 33.384 159.412 C 15.475 163.758, 3.559 181.807, 6.987 199.396 C 9.923 214.467, 20.510 225.032, 35.660 228.013 C 51.154 231.061, 68.354 221.287, 74.043 206.202 C 81.597 186.168, 69.952 164.257, 49.147 159.360 C 42.397 157.772, 40.111 157.779, 33.384 159.412 M 31.054 167.728 C 25.018 169.859, 17.781 177.260, 15.667 183.463 C 11.995 194.241, 14.382 205.477, 21.952 213.048 C 32.402 223.497, 49.888 223.773, 60.280 213.653 C 66.701 207.401, 68.500 202.989, 68.500 193.500 C 68.500 184.011, 66.701 179.599, 60.280 173.347 C 53.109 166.363, 41.332 164.099, 31.054 167.728 M 7.571 255.571 C 6.707 256.436, 6 257.529, 6 258 C 6 258.471, 6.707 259.564, 7.571 260.429 C 8.936 261.793, 13.463 262, 42 262 C 70.537 262, 75.064 261.793, 76.429 260.429 C 77.293 259.564, 78 258.471, 78 258 C 78 257.529, 77.293 256.436, 76.429 255.571 C 75.064 254.207, 70.537 254, 42 254 C 13.463 254, 8.936 254.207, 7.571 255.571 " stroke="none" fill="black" fill-rule="evenodd"/>
</svg>