<svg xmlns="http://www.w3.org/2000/svg" width="244" height="324" viewBox="0 0 244 324" version="1.1">
	<path d="M 199.232 127.250 C 197.350 129.573, 166 192.975, 166 194.459 C 166 196.786, 169.809 198.404, 171.663 196.865 C 172.507 196.164, 179.622 182.749, 187.474 167.052 L 201.750 138.514 216.313 167.626 C 224.486 183.965, 231.617 197.023, 232.565 197.386 C 234.679 198.198, 237 196.358, 237 193.871 C 237 191.637, 205.272 127.833, 203.630 126.765 C 201.949 125.672, 200.369 125.846, 199.232 127.250 M 7.571 191.571 C 6.207 192.936, 6 197.463, 6 226 C 6 254.537, 6.207 259.064, 7.571 260.429 C 8.436 261.293, 9.529 262, 10 262 C 10.471 262, 11.564 261.293, 12.429 260.429 C 13.788 259.069, 14 254.758, 14 228.429 L 14 198 74 198 L 134 198 134 228.429 C 134 254.758, 134.212 259.069, 135.571 260.429 C 137.545 262.402, 138.455 262.402, 140.429 260.429 C 141.793 259.064, 142 254.537, 142 226 C 142 197.463, 141.793 192.936, 140.429 191.571 C 139.032 190.175, 131.628 190, 74 190 C 16.372 190, 8.968 190.175, 7.571 191.571 M 199.232 191.250 C 197.350 193.573, 166 256.975, 166 258.459 C 166 260.786, 169.809 262.404, 171.663 260.865 C 172.507 260.164, 179.622 246.749, 187.474 231.052 L 201.750 202.514 216.313 231.626 C 224.486 247.965, 231.617 261.023, 232.565 261.386 C 234.679 262.198, 237 260.358, 237 257.871 C 237 255.637, 205.272 191.833, 203.630 190.765 C 201.949 189.672, 200.369 189.846, 199.232 191.250 " stroke="none" fill="black" fill-rule="evenodd"/>
</svg>