<svg xmlns="http://www.w3.org/2000/svg" width="212" height="324" viewBox="0 0 212 324" version="1.1">
	<path d="M 39.500 64 C 37.753 65.930, 37.753 66.070, 39.500 68 C 40.495 69.100, 41.658 70, 42.084 70 C 43.129 70, 46 67.068, 46 66 C 46 64.932, 43.129 62, 42.084 62 C 41.658 62, 40.495 62.900, 39.500 64 M 56.200 63.200 C 55.540 63.860, 55 65.206, 55 66.192 C 55 68.779, 71.193 100.860, 72.812 101.481 C 73.560 101.768, 74.775 101.665, 75.512 101.252 C 77.510 100.131, 94.035 66.256, 93.396 64.590 C 92.550 62.385, 89.890 61.790, 88.105 63.406 C 87.222 64.205, 83.815 70.291, 80.533 76.930 C 77.252 83.568, 74.312 89, 74 89 C 73.688 89, 70.748 83.534, 67.467 76.853 C 60.164 61.985, 58.921 60.479, 56.200 63.200 M 35.650 127.038 C 20.065 129.688, 7.456 143.565, 6.892 158.693 C 6.679 164.396, 11.407 183.181, 15.905 194.500 C 22.549 211.220, 34.786 229.060, 48.006 241.299 C 56.998 249.624, 71.427 260, 74.013 260 C 77.369 260, 93.026 248.092, 103.521 237.558 C 122.209 218.800, 133.614 197.500, 139.158 171 C 141.524 159.693, 141.096 154.970, 136.922 146.315 C 129.092 130.081, 109.859 122.513, 92.798 128.955 C 86.387 131.375, 78.368 138.045, 75.529 143.317 L 73.640 146.824 70.976 142.624 C 63.688 131.131, 49.194 124.736, 35.650 127.038 M 183.200 127.200 C 181.294 129.106, 181.773 130.977, 185.149 134.822 C 192.129 142.773, 195.690 155.978, 193.892 167.250 C 192.554 175.637, 189.389 182.102, 182.509 190.500 C 179.355 194.350, 175.180 200.875, 173.231 205 C 170.139 211.546, 169.628 213.727, 169.215 222.147 C 168.641 233.856, 170.845 242.381, 176.813 251.542 C 181.656 258.975, 184.191 261.252, 187.157 260.830 C 190.418 260.366, 190.650 257.290, 187.660 254.151 C 179.610 245.700, 175.282 233.103, 176.292 221.059 C 177.055 211.957, 180.018 205.407, 187.810 195.598 C 195.626 185.758, 199.451 178.056, 201.097 168.844 C 203.432 155.778, 198.980 139.518, 190.495 130.127 C 186.577 125.790, 185.173 125.227, 183.200 127.200 M 31.054 135.668 C 24.769 137.971, 17.706 145.357, 15.534 151.899 C 13.884 156.865, 13.877 157.716, 15.413 166.115 C 21.735 200.669, 41.525 231.171, 69.294 249.160 L 74.089 252.265 81.235 247.383 C 89.665 241.623, 104.051 227.771, 109.672 220 C 119.774 206.036, 126.373 192.178, 130.558 176.141 C 133.813 163.665, 133.777 155.952, 130.433 149.241 C 124.026 136.383, 109.691 130.819, 95.463 135.667 C 86.088 138.862, 78 149.949, 78 159.607 C 78 162.978, 75.866 166, 73.485 166 C 71.325 166, 69.002 161.891, 68.978 158.027 C 68.933 150.758, 63.050 141.872, 55.261 137.307 C 49.484 133.922, 37.949 133.141, 31.054 135.668 " stroke="none" fill="black" fill-rule="evenodd"/>
</svg>