<svg xmlns="http://www.w3.org/2000/svg" width="244" height="324" viewBox="0 0 244 324" version="1.1">
	<path d="M 40.316 62.784 C 38.369 64.022, 22.007 97.855, 22.604 99.410 C 23.269 101.144, 25.524 102.120, 27.295 101.440 C 28.007 101.167, 31.480 95.106, 35.014 87.972 C 38.547 80.837, 41.691 75, 42 75 C 42.309 75, 45.453 80.837, 48.986 87.972 C 52.520 95.106, 55.993 101.167, 56.705 101.440 C 58.487 102.124, 60.732 101.141, 61.407 99.381 C 61.997 97.844, 45.582 64.037, 43.628 62.765 C 42.214 61.845, 41.789 61.847, 40.316 62.784 M 167.571 127.571 C 166.212 128.931, 166 133.242, 166 159.571 L 166 190 135.571 190 C 109.242 190, 104.931 190.212, 103.571 191.571 C 101.598 193.545, 101.598 194.455, 103.571 196.429 C 104.931 197.788, 109.242 198, 135.571 198 L 166 198 166 228.429 C 166 254.758, 166.212 259.069, 167.571 260.429 C 169.678 262.535, 170.598 262.412, 172.443 259.777 C 173.768 257.887, 174 253.110, 174 227.777 L 174 198 199.236 198 L 224.472 198 211.236 211.263 C 203.956 218.558, 198 225.292, 198 226.228 C 198 227.164, 198.952 228.439, 200.115 229.062 C 202.040 230.092, 203.775 228.675, 219.354 213.347 C 228.772 204.081, 236.843 195.938, 237.289 195.250 C 237.734 194.563, 237.734 193.438, 237.289 192.750 C 236.843 192.063, 228.772 183.919, 219.354 174.653 C 203.775 159.325, 202.040 157.908, 200.115 158.938 C 198.952 159.561, 198 160.836, 198 161.772 C 198 162.708, 203.956 169.442, 211.236 176.737 L 224.472 190 199.236 190 L 174 190 174 160.223 C 174 134.890, 173.768 130.113, 172.443 128.223 C 170.598 125.588, 169.678 125.465, 167.571 127.571 M 33.384 159.412 C 15.475 163.758, 3.559 181.807, 6.987 199.396 C 8.500 207.161, 12.212 214.019, 17.580 218.967 C 40.258 239.870, 76.252 224.246, 76.252 193.500 C 76.252 176.888, 65.367 163.178, 49.147 159.360 C 42.397 157.772, 40.111 157.779, 33.384 159.412 M 31.054 167.728 C 25.018 169.859, 17.781 177.260, 15.667 183.463 C 11.995 194.241, 14.382 205.477, 21.952 213.048 C 32.402 223.497, 49.888 223.773, 60.280 213.653 C 66.701 207.401, 68.500 202.989, 68.500 193.500 C 68.500 184.011, 66.701 179.599, 60.280 173.347 C 53.109 166.363, 41.332 164.099, 31.054 167.728 M 7.571 255.571 C 6.707 256.436, 6 257.529, 6 258 C 6 258.471, 6.707 259.564, 7.571 260.429 C 8.936 261.793, 13.463 262, 42 262 C 70.537 262, 75.064 261.793, 76.429 260.429 C 77.293 259.564, 78 258.471, 78 258 C 78 257.529, 77.293 256.436, 76.429 255.571 C 75.064 254.207, 70.537 254, 42 254 C 13.463 254, 8.936 254.207, 7.571 255.571 " stroke="none" fill="black" fill-rule="evenodd"/>
</svg>