<svg xmlns="http://www.w3.org/2000/svg" width="244" height="324" viewBox="0 0 244 324" version="1.1">
	<path d="M 167.750 127.080 C 166.143 128.016, 166 130.628, 166 159.050 L 166 190 135.571 190 C 109.242 190, 104.931 190.212, 103.571 191.571 C 101.598 193.545, 101.598 194.455, 103.571 196.429 C 104.931 197.788, 109.242 198, 135.571 198 L 166 198 166 228.965 C 166 259.771, 166.011 259.936, 168.183 261.098 C 170.042 262.093, 170.636 261.933, 172.183 260.022 C 173.848 257.966, 174 255.285, 174 227.889 L 174 198 199.236 198 L 224.472 198 211.236 211.263 C 203.956 218.558, 198 225.292, 198 226.228 C 198 227.164, 198.952 228.439, 200.115 229.062 C 202.040 230.092, 203.775 228.675, 219.354 213.347 C 228.772 204.081, 236.843 195.938, 237.289 195.250 C 237.734 194.563, 237.734 193.438, 237.289 192.750 C 236.843 192.063, 228.772 183.919, 219.354 174.653 C 203.775 159.325, 202.040 157.908, 200.115 158.938 C 198.952 159.561, 198 160.836, 198 161.772 C 198 162.708, 203.956 169.442, 211.236 176.737 L 224.472 190 199.236 190 L 174 190 174 160.223 C 174 134.890, 173.768 130.113, 172.443 128.223 C 170.702 125.736, 170.248 125.625, 167.750 127.080 M 34.223 159.062 C 24.045 161.068, 13.996 169.411, 9.216 179.825 C 5.512 187.894, 5.512 199.106, 9.216 207.175 C 20.136 230.966, 50.306 235.913, 67.545 216.739 C 85.211 197.090, 75.070 165.462, 49.147 159.360 C 42.857 157.880, 40.464 157.832, 34.223 159.062 M 31.054 167.728 C 25.018 169.859, 17.781 177.260, 15.667 183.463 C 9.122 202.673, 22.106 221.195, 41.928 220.924 C 44.993 220.882, 48.933 220.320, 50.684 219.674 C 61.521 215.679, 69 204.991, 69 193.500 C 69 182.009, 61.521 171.321, 50.684 167.326 C 46.195 165.671, 36.306 165.873, 31.054 167.728 M 7.571 255.571 C 6.707 256.436, 6 257.529, 6 258 C 6 258.471, 6.707 259.564, 7.571 260.429 C 8.936 261.793, 13.463 262, 42 262 C 70.537 262, 75.064 261.793, 76.429 260.429 C 77.293 259.564, 78 258.471, 78 258 C 78 257.529, 77.293 256.436, 76.429 255.571 C 75.064 254.207, 70.537 254, 42 254 C 13.463 254, 8.936 254.207, 7.571 255.571 " stroke="none" fill="black" fill-rule="evenodd"/>
</svg>