<svg xmlns="http://www.w3.org/2000/svg" width="452" height="324" viewBox="0 0 452 324" version="1.1">
	<path d="M 167.200 127.200 C 166.319 128.081, 166 136.578, 166 159.200 L 166 190 135.571 190 C 109.242 190, 104.931 190.212, 103.571 191.571 C 101.598 193.545, 101.598 194.455, 103.571 196.429 C 104.931 197.788, 109.242 198, 135.571 198 L 166 198 166 228.800 C 166 251.422, 166.319 259.919, 167.200 260.800 C 168.109 261.709, 184.115 262, 233.118 262 C 268.713 262, 298.548 261.727, 299.418 261.393 C 300.839 260.848, 301 253.978, 301 194 C 301 134.022, 300.839 127.152, 299.418 126.607 C 298.548 126.273, 268.713 126, 233.118 126 C 184.115 126, 168.109 126.291, 167.200 127.200 M 375.750 127.080 C 374.111 128.035, 374 132.289, 374 193.927 C 374 248.419, 374.236 259.951, 375.369 260.891 C 376.345 261.701, 386.290 261.952, 410.010 261.764 C 440.441 261.523, 443.377 261.351, 444.386 259.750 C 445.191 258.474, 445.191 257.526, 444.386 256.250 C 443.380 254.654, 440.542 254.477, 412.141 254.236 L 381 253.972 381 191.186 C 381 123.280, 381.058 123.988, 375.750 127.080 M 174 162 L 174 190 199.236 190 L 224.472 190 211.236 176.737 C 203.956 169.442, 198 162.708, 198 161.772 C 198 160.836, 198.952 159.561, 200.115 158.938 C 202.040 157.908, 203.775 159.325, 219.354 174.653 C 228.772 183.919, 236.843 192.063, 237.289 192.750 C 237.734 193.438, 237.734 194.563, 237.289 195.250 C 236.843 195.938, 228.772 204.081, 219.354 213.347 C 203.775 228.675, 202.040 230.092, 200.115 229.062 C 198.952 228.439, 198 227.164, 198 226.228 C 198 225.292, 203.956 218.558, 211.236 211.263 L 224.472 198 199.236 198 L 174 198 174 226 L 174 254 234 254 L 294 254 294 194 L 294 134 234 134 L 174 134 174 162 M 7.571 159.571 C 6.207 160.936, 6 165.463, 6 194 C 6 222.537, 6.207 227.064, 7.571 228.429 C 8.936 229.793, 13.463 230, 42 230 C 70.537 230, 75.064 229.793, 76.429 228.429 C 77.793 227.064, 78 222.537, 78 194 C 78 165.463, 77.793 160.936, 76.429 159.571 C 75.064 158.207, 70.537 158, 42 158 C 13.463 158, 8.936 158.207, 7.571 159.571 M 327.750 159.080 C 326.788 159.641, 326 160.859, 326 161.788 C 326 162.717, 332.857 170.344, 341.238 178.738 L 356.476 194 341.238 209.262 C 332.857 217.656, 326 225.290, 326 226.227 C 326 227.163, 326.960 228.443, 328.133 229.071 C 330.084 230.115, 331.752 228.729, 347.633 212.867 C 357.185 203.327, 365 194.837, 365 194 C 365 192.655, 331.224 157.954, 329.990 158.030 C 329.720 158.047, 328.712 158.519, 327.750 159.080 M 407.239 175.260 C 397.758 184.754, 390 193.196, 390 194.021 C 390 194.846, 397.877 203.388, 407.503 213.003 C 422.490 227.971, 425.258 230.327, 426.753 229.386 C 430.681 226.912, 429.403 224.927, 413.862 209.362 L 398.524 194 413.762 178.738 C 422.143 170.344, 429 162.784, 429 161.938 C 429 160.168, 427.095 158, 425.539 158 C 424.956 158, 416.721 165.767, 407.239 175.260 M 14 194 L 14 222 42 222 L 70 222 70 194 L 70 166 42 166 L 14 166 14 194 M 7.571 255.571 C 6.707 256.436, 6 257.529, 6 258 C 6 258.471, 6.707 259.564, 7.571 260.429 C 8.936 261.793, 13.463 262, 42 262 C 70.537 262, 75.064 261.793, 76.429 260.429 C 77.293 259.564, 78 258.471, 78 258 C 78 257.529, 77.293 256.436, 76.429 255.571 C 75.064 254.207, 70.537 254, 42 254 C 13.463 254, 8.936 254.207, 7.571 255.571 " stroke="none" fill="black" fill-rule="evenodd"/>
</svg>