<svg xmlns="http://www.w3.org/2000/svg" width="244" height="324" viewBox="0 0 244 324" version="1.1">
	<path d="M 40.316 62.784 C 38.369 64.022, 22.007 97.855, 22.604 99.410 C 23.269 101.144, 25.524 102.120, 27.295 101.440 C 28.007 101.167, 31.480 95.106, 35.014 87.972 C 38.547 80.837, 41.691 75, 42 75 C 42.309 75, 45.453 80.837, 48.986 87.972 C 52.520 95.106, 55.993 101.167, 56.705 101.440 C 58.487 102.124, 60.732 101.141, 61.407 99.381 C 61.997 97.844, 45.582 64.037, 43.628 62.765 C 42.214 61.845, 41.789 61.847, 40.316 62.784 M 33.384 159.412 C 15.475 163.758, 3.559 181.807, 6.987 199.396 C 9.923 214.467, 20.510 225.032, 35.660 228.013 C 51.154 231.061, 68.354 221.287, 74.043 206.202 C 81.597 186.168, 69.952 164.257, 49.147 159.360 C 42.397 157.772, 40.111 157.779, 33.384 159.412 M 199.750 159.082 C 198.787 159.642, 198 160.858, 198 161.786 C 198 162.714, 203.956 169.442, 211.236 176.737 L 224.472 190 164.808 190 C 111.900 190, 104.965 190.178, 103.571 191.571 C 101.598 193.545, 101.598 194.455, 103.571 196.429 C 104.965 197.822, 111.900 198, 164.808 198 L 224.472 198 211.236 211.263 C 203.956 218.558, 198 225.292, 198 226.228 C 198 227.164, 198.952 228.439, 200.115 229.062 C 202.040 230.092, 203.774 228.675, 219.348 213.347 C 236.797 196.174, 237.958 194.961, 237.985 193.886 C 238.002 193.179, 203.261 158.610, 202.202 158.282 C 201.816 158.162, 200.713 158.522, 199.750 159.082 M 31.054 167.728 C 25.018 169.859, 17.781 177.260, 15.667 183.463 C 11.995 194.241, 14.382 205.477, 21.952 213.048 C 32.402 223.497, 49.888 223.773, 60.280 213.653 C 66.701 207.401, 68.500 202.989, 68.500 193.500 C 68.500 184.011, 66.701 179.599, 60.280 173.347 C 53.109 166.363, 41.332 164.099, 31.054 167.728 M 119.315 239.213 C 109.792 248.680, 102 257.134, 102 258 C 102 259.680, 135.953 294, 137.615 294 C 139.240 294, 141 291.731, 141 289.636 C 141 288.461, 135.902 282.519, 128.307 274.844 L 115.615 262.016 175.448 261.758 C 231.182 261.518, 235.358 261.380, 236.386 259.750 C 237.191 258.474, 237.191 257.526, 236.386 256.250 C 235.358 254.620, 231.182 254.482, 175.448 254.242 L 115.615 253.984 128.307 241.156 C 135.902 233.481, 141 227.539, 141 226.364 C 141 224.269, 139.240 222, 137.615 222 C 137.073 222, 128.838 229.746, 119.315 239.213 " stroke="none" fill="black" fill-rule="evenodd"/>
</svg>