<svg xmlns="http://www.w3.org/2000/svg" width="468" height="324" viewBox="0 0 468 324" version="1.1">
	<path d="M 103.571 95.571 C 102.219 96.924, 102 100.988, 102 124.774 L 102 152.405 88.667 139.202 C 81.334 131.941, 74.841 126, 74.239 126 C 72.813 126, 70 128.825, 70 130.257 C 70 132.006, 104.239 166, 106 166 C 107.761 166, 142 132.006, 142 130.257 C 142 128.825, 139.187 126, 137.761 126 C 137.159 126, 130.666 131.941, 123.333 139.202 L 110 152.405 110 124.774 C 110 100.988, 109.781 96.924, 108.429 95.571 C 107.564 94.707, 106.471 94, 106 94 C 105.529 94, 104.436 94.707, 103.571 95.571 M 287.102 127.108 C 261.640 130.961, 239.155 151.450, 232.349 177 C 230.078 185.527, 230.091 201.277, 232.377 210 C 235.584 222.236, 240.558 230.636, 250.461 240.539 C 264.528 254.606, 278.138 260.333, 297.500 260.333 C 316.862 260.333, 330.472 254.606, 344.539 240.539 C 358.606 226.472, 364.333 212.862, 364.333 193.500 C 364.333 174.138, 358.606 160.528, 344.539 146.461 C 334.823 136.745, 326.203 131.569, 314.831 128.621 C 307.080 126.612, 294.806 125.942, 287.102 127.108 M 418.223 127.012 C 404.302 129.919, 392.402 143.057, 390.515 157.605 C 389.991 161.637, 390.198 163.055, 391.498 164.355 C 392.402 165.260, 393.529 166, 394 166 C 395.912 166, 398 162.663, 398 159.607 C 398 153.681, 401.099 146.803, 405.917 142.035 C 416.792 131.273, 434.331 131.236, 445.048 141.952 C 452.663 149.568, 454.380 157.309, 451.495 171.022 C 444.749 203.094, 424.415 232.643, 397.500 249.488 C 390.042 254.156, 388.749 255.662, 390.074 258.138 C 391.695 261.167, 394.349 260.347, 404.184 253.781 C 427.277 238.366, 446.995 212.020, 455.286 185.500 C 459.885 170.789, 461.288 161.720, 459.967 155.238 C 456.024 135.888, 437.075 123.076, 418.223 127.012 M 282.645 135.584 C 262.671 140.419, 244.279 158.986, 239.537 179.103 C 234.672 199.742, 240.569 220.600, 255.484 235.516 C 270.400 250.431, 291.258 256.328, 311.897 251.463 C 332.261 246.662, 350.662 228.261, 355.463 207.897 C 357.390 199.718, 357.390 187.282, 355.463 179.103 C 350.662 158.739, 332.261 140.338, 311.897 135.537 C 303.998 133.676, 290.439 133.697, 282.645 135.584 M 39.571 159.571 C 38.707 160.436, 38 161.636, 38 162.239 C 38 162.841, 43.941 169.334, 51.202 176.667 L 64.405 190 36.774 190 C 12.988 190, 8.924 190.219, 7.571 191.571 C 5.598 193.545, 5.598 194.455, 7.571 196.429 C 8.924 197.781, 12.988 198, 36.774 198 L 64.405 198 51.202 211.333 C 43.941 218.666, 38 225.159, 38 225.761 C 38 227.187, 40.825 230, 42.257 230 C 44.006 230, 78 195.761, 78 194 C 78 192.239, 44.006 158, 42.257 158 C 41.644 158, 40.436 158.707, 39.571 159.571 M 151.315 175.213 C 141.792 184.680, 134 193.134, 134 194 C 134 195.761, 167.994 230, 169.743 230 C 171.175 230, 174 227.187, 174 225.761 C 174 225.159, 168.059 218.666, 160.798 211.333 L 147.595 198 175.226 198 C 199.012 198, 203.076 197.781, 204.429 196.429 C 206.402 194.455, 206.402 193.545, 204.429 191.571 C 203.076 190.219, 199.012 190, 175.226 190 L 147.595 190 160.798 176.667 C 168.059 169.334, 174 162.841, 174 162.239 C 174 160.813, 171.175 158, 169.743 158 C 169.131 158, 160.838 165.746, 151.315 175.213 M 295.571 191.571 C 294.707 192.436, 294 193.529, 294 194 C 294 195.111, 296.889 198, 298 198 C 299.111 198, 302 195.111, 302 194 C 302 192.889, 299.111 190, 298 190 C 297.529 190, 296.436 190.707, 295.571 191.571 M 87.213 239.315 C 77.746 248.838, 70 257.131, 70 257.743 C 70 259.175, 72.813 262, 74.239 262 C 74.841 262, 81.334 256.059, 88.667 248.798 L 102 235.595 102 263.226 C 102 287.012, 102.219 291.076, 103.571 292.429 C 104.436 293.293, 105.529 294, 106 294 C 106.471 294, 107.564 293.293, 108.429 292.429 C 109.781 291.076, 110 287.012, 110 263.226 L 110 235.595 123.333 248.798 C 130.666 256.059, 137.159 262, 137.761 262 C 139.187 262, 142 259.175, 142 257.743 C 142 255.994, 107.761 222, 106 222 C 105.134 222, 96.680 229.792, 87.213 239.315 " stroke="none" fill="black" fill-rule="evenodd"/>
</svg>