<svg xmlns="http://www.w3.org/2000/svg" width="148" height="324" viewBox="0 0 148 324" version="1.1">
	<path d="M 71.550 62.918 C 67.869 68.875, 54.190 98.331, 54.604 99.410 C 55.267 101.138, 57.522 102.121, 59.278 101.447 C 59.981 101.177, 63.522 95.005, 67.147 87.731 L 73.738 74.505 80.311 87.624 C 83.927 94.839, 87.586 101.011, 88.442 101.340 C 90.951 102.302, 93 100.972, 93 98.381 C 93 95.782, 77.486 63.976, 75.628 62.765 C 74.071 61.751, 72.229 61.820, 71.550 62.918 M 71.571 159.571 C 70.707 160.436, 70 161.529, 70 162 C 70 162.471, 70.707 163.564, 71.571 164.429 C 72.436 165.293, 73.529 166, 74 166 C 74.471 166, 75.564 165.293, 76.429 164.429 C 77.293 163.564, 78 162.471, 78 162 C 78 161.529, 77.293 160.436, 76.429 159.571 C 75.564 158.707, 74.471 158, 74 158 C 73.529 158, 72.436 158.707, 71.571 159.571 M 7.579 191.564 C 6.710 192.432, 6 193.529, 6 194 C 6 194.471, 6.710 195.568, 7.579 196.436 C 8.990 197.847, 16.058 197.987, 74.220 197.757 C 134.934 197.517, 139.356 197.383, 140.386 195.750 C 141.191 194.474, 141.191 193.526, 140.386 192.250 C 139.356 190.617, 134.934 190.483, 74.220 190.243 C 16.058 190.013, 8.990 190.153, 7.579 191.564 M 71.571 223.571 C 70.707 224.436, 70 225.529, 70 226 C 70 226.471, 70.707 227.564, 71.571 228.429 C 72.436 229.293, 73.529 230, 74 230 C 74.471 230, 75.564 229.293, 76.429 228.429 C 77.293 227.564, 78 226.471, 78 226 C 78 225.529, 77.293 224.436, 76.429 223.571 C 75.564 222.707, 74.471 222, 74 222 C 73.529 222, 72.436 222.707, 71.571 223.571 " stroke="none" fill="black" fill-rule="evenodd"/>
</svg>