<svg xmlns="http://www.w3.org/2000/svg" width="308" height="324" viewBox="0 0 308 324" version="1.1">
	<path d="M 72.316 62.784 C 70.369 64.022, 54.007 97.855, 54.604 99.410 C 55.450 101.615, 58.110 102.210, 59.895 100.594 C 60.778 99.795, 64.185 93.709, 67.467 87.070 C 70.748 80.432, 73.687 75, 73.997 75 C 74.308 75, 77.453 80.837, 80.986 87.972 C 84.520 95.106, 88.050 101.189, 88.832 101.489 C 90.716 102.212, 93 100.227, 93 97.866 C 93 95.626, 77.264 63.831, 75.628 62.765 C 74.214 61.845, 73.789 61.847, 72.316 62.784 M 35.045 127.064 C 19.586 130.194, 7.255 144.080, 6.841 158.824 C 6.690 164.215, 10.476 179.767, 14.874 191.818 C 23.661 215.893, 40.982 238.086, 63.261 253.815 C 71.459 259.602, 76.072 261.311, 77.454 259.074 C 77.769 258.565, 81.706 255.570, 86.203 252.418 C 112.720 233.838, 132.201 203.621, 138.835 170.781 C 141.070 159.718, 140.309 153.236, 135.776 144.731 C 123.412 121.533, 90.149 120.403, 75.981 142.700 L 73.312 146.900 71.124 143.007 C 64.711 131.596, 48.355 124.368, 35.045 127.064 M 31.591 135.573 C 23.309 138.608, 15.842 147.057, 14.518 154.893 C 13.681 159.850, 17.098 176.394, 21.507 188.729 C 29.718 211.703, 46.703 233.702, 66.868 247.480 L 73.830 252.237 81.502 246.934 C 106.693 229.519, 125.566 200.428, 131.602 169.707 C 133.613 159.473, 133.015 154.354, 128.987 147.302 C 125.806 141.732, 120.020 137.111, 113.609 135.020 C 107.591 133.058, 97.093 134.170, 91.680 137.342 C 83.949 141.872, 78.067 150.781, 78.022 158.027 C 77.998 161.891, 75.675 166, 73.515 166 C 71.013 166, 69 162.918, 69 159.088 C 69 154.001, 63.752 143.766, 59.235 140.042 C 52.269 134.300, 40.333 132.370, 31.591 135.573 M 263.724 159.134 C 262.161 160.009, 262 162.521, 262 186.015 C 262 209.816, 262.145 212.007, 263.776 212.880 C 264.902 213.483, 266.182 213.478, 267.276 212.866 C 268.839 211.991, 269 209.479, 269 185.985 C 269 162.184, 268.855 159.993, 267.224 159.120 C 266.098 158.517, 264.818 158.522, 263.724 159.134 M 167.750 191.073 C 165.413 192.444, 165.527 195.677, 167.960 196.979 C 169.243 197.665, 181.208 197.936, 202.601 197.764 C 232.469 197.523, 235.378 197.349, 236.386 195.750 C 237.191 194.474, 237.191 193.526, 236.386 192.250 C 235.377 190.649, 232.483 190.481, 202.391 190.273 C 181.280 190.127, 168.873 190.414, 167.750 191.073 M 263.724 222.134 C 259.838 224.309, 263.294 229.983, 267.224 227.880 C 268.201 227.357, 269 226.061, 269 225 C 269 222.485, 266.005 220.858, 263.724 222.134 " stroke="none" fill="black" fill-rule="evenodd"/>
</svg>