<svg xmlns="http://www.w3.org/2000/svg" width="148" height="324" viewBox="0 0 148 324" version="1.1">
	<path d="M 39.571 127.571 C 38.176 128.966, 38 136.152, 38 191.571 L 38 254 23.571 254 C 11.788 254, 8.855 254.288, 7.571 255.571 C 5.598 257.545, 5.598 258.455, 7.571 260.429 C 8.936 261.793, 13.463 262, 42 262 C 70.537 262, 75.064 261.793, 76.429 260.429 C 77.293 259.564, 78 258.471, 78 258 C 78 257.529, 77.293 256.436, 76.429 255.571 C 75.145 254.288, 72.212 254, 60.429 254 L 46 254 46 191.571 C 46 136.152, 45.824 128.966, 44.429 127.571 C 43.564 126.707, 42.471 126, 42 126 C 41.529 126, 40.436 126.707, 39.571 127.571 M 115.550 130.076 C 107.027 139.511, 102.610 155.234, 104.828 168.250 C 106.227 176.458, 110.209 185.615, 114.923 191.461 L 118.117 195.423 117.928 227.419 C 117.741 259.062, 117.763 259.430, 119.870 260.830 C 121.580 261.965, 122.297 261.999, 123.500 261 C 124.325 260.315, 125 259.290, 125 258.722 C 125 258.154, 126.150 256.181, 127.555 254.339 C 128.960 252.496, 131.548 247.954, 133.305 244.244 C 136.368 237.778, 136.500 236.984, 136.500 225 C 136.500 213.406, 136.297 212.065, 133.701 206.500 C 132.161 203.200, 129.686 198.739, 128.201 196.588 L 125.500 192.675 125 159.588 L 124.500 126.500 121.912 126.199 C 119.941 125.970, 118.426 126.893, 115.550 130.076 M 115.026 144.500 C 112.828 148.943, 112.553 150.780, 112.553 161 C 112.553 171.220, 112.828 173.057, 115.026 177.500 L 117.500 182.500 117.784 171.750 C 117.940 165.838, 117.940 156.162, 117.784 150.250 L 117.500 139.500 115.026 144.500 M 125 225 C 125 236.072, 125.362 243.022, 125.909 242.450 C 127.648 240.633, 130 230.602, 130 225 C 130 219.398, 127.648 209.367, 125.909 207.550 C 125.362 206.978, 125 213.928, 125 225 " stroke="none" fill="black" fill-rule="evenodd"/>
</svg>