<svg xmlns="http://www.w3.org/2000/svg" width="403" height="324" viewBox="0 0 403 324" version="1.1">
	<path d="M 72.316 62.784 C 70.369 64.022, 54.007 97.855, 54.604 99.410 C 55.269 101.144, 57.524 102.120, 59.295 101.440 C 60.007 101.167, 63.480 95.106, 67.014 87.972 C 70.547 80.837, 73.691 75, 74 75 C 74.309 75, 77.453 80.837, 80.986 87.972 C 84.520 95.106, 88.050 101.189, 88.832 101.489 C 90.716 102.212, 93 100.227, 93 97.866 C 93 95.626, 77.264 63.831, 75.628 62.765 C 74.214 61.845, 73.789 61.847, 72.316 62.784 M 7.571 127.571 C 6.707 128.436, 6 129.665, 6 130.303 C 6 131.595, 133.442 259.542, 136.314 261.134 C 138.539 262.367, 141 260.645, 141 257.855 C 141 255.769, 12.339 125.922, 10.321 125.971 C 9.673 125.987, 8.436 126.707, 7.571 127.571 M 263.200 127.200 C 261.465 128.935, 261.465 259.065, 263.200 260.800 C 264.935 262.535, 394.065 262.535, 395.800 260.800 C 397.535 259.065, 397.535 128.935, 395.800 127.200 C 394.065 125.465, 264.935 125.465, 263.200 127.200 M 269 194 L 269 254 329.500 254 L 390 254 390 194 L 390 134 329.500 134 L 269 134 269 194 M 194.355 158.998 C 183.822 161.188, 174.117 169.138, 169.329 179.500 C 165.374 188.059, 165.386 198.895, 169.361 207.610 C 178.830 228.373, 204.381 234.913, 222.500 221.212 C 227.866 217.154, 233.383 208.986, 235.138 202.500 C 236.952 195.795, 235.742 184.321, 232.553 178 C 225.551 164.118, 209.097 155.933, 194.355 158.998 M 191.885 167.380 C 180.704 171.375, 173.875 181.280, 173.875 193.500 C 173.875 208.910, 184.144 219.796, 199.616 220.789 C 206.399 221.224, 207.556 221.001, 213.397 218.125 C 225.374 212.229, 231.511 198.958, 228.096 186.337 C 224.933 174.647, 213.616 165.959, 201.663 166.044 C 198.273 166.068, 193.873 166.669, 191.885 167.380 M 199.750 191.080 C 197.372 192.465, 197.542 195.685, 200.064 197.034 C 203.753 199.008, 206.819 194.219, 203.800 191.200 C 202.367 189.767, 202.022 189.757, 199.750 191.080 " stroke="none" fill="black" fill-rule="evenodd"/>
</svg>