<svg xmlns="http://www.w3.org/2000/svg" width="308" height="324" viewBox="0 0 308 324" version="1.1">
	<path d="M 39.571 127.571 C 38.288 128.855, 38 131.788, 38 143.571 L 38 158 23.571 158 C 11.788 158, 8.855 158.288, 7.571 159.571 C 5.598 161.545, 5.598 162.455, 7.571 164.429 C 8.820 165.677, 11.534 166, 20.774 166 L 32.405 166 19.202 179.333 C 11.941 186.666, 6 193.159, 6 193.761 C 6 195.178, 8.822 198, 10.239 198 C 10.841 198, 17.334 192.059, 24.667 184.798 L 38 171.595 38 196.798 L 38 222 23.571 222 C 11.788 222, 8.855 222.288, 7.571 223.571 C 6.707 224.436, 6 225.529, 6 226 C 6 226.471, 6.707 227.564, 7.571 228.429 C 8.855 229.712, 11.788 230, 23.571 230 L 38 230 38 244.429 C 38 256.212, 38.288 259.145, 39.571 260.429 C 40.436 261.293, 41.529 262, 42 262 C 42.471 262, 43.564 261.293, 44.429 260.429 C 45.712 259.145, 46 256.212, 46 244.429 L 46 230 74 230 L 102 230 102 244.429 C 102 256.212, 102.288 259.145, 103.571 260.429 C 105.678 262.535, 106.598 262.412, 108.443 259.777 C 109.669 258.028, 110 254.631, 110 243.804 L 110 230.053 124.643 229.777 C 137.314 229.537, 139.433 229.264, 140.387 227.750 C 141.191 226.475, 141.191 225.525, 140.387 224.250 C 139.433 222.736, 137.314 222.463, 124.643 222.223 L 110 221.947 110 196.771 L 110 171.595 123.333 184.798 C 130.666 192.059, 137.101 198, 137.633 198 C 139.132 198, 141.005 195.770, 140.951 194.050 C 140.924 193.198, 135.318 186.650, 128.493 179.500 L 116.083 166.500 127.686 166 C 137.302 165.586, 139.478 165.200, 140.389 163.750 C 141.190 162.477, 141.190 161.523, 140.387 160.250 C 139.433 158.736, 137.314 158.463, 124.643 158.223 L 110 157.947 110 144.196 C 110 133.369, 109.669 129.972, 108.443 128.223 C 106.598 125.588, 105.678 125.465, 103.571 127.571 C 102.323 128.820, 102 131.534, 102 140.774 L 102 152.405 88.667 139.202 C 81.334 131.941, 74.703 126, 73.930 126 C 73.158 126, 66.558 131.956, 59.263 139.236 L 46 152.472 46 140.808 C 46 131.537, 45.678 128.820, 44.429 127.571 C 43.564 126.707, 42.471 126, 42 126 C 41.529 126, 40.436 126.707, 39.571 127.571 M 194.355 126.992 C 182.270 129.522, 171.438 139.455, 167.837 151.310 C 165.876 157.768, 165.771 159.211, 166.773 165.986 C 169.347 183.383, 177.520 203.969, 188.043 219.564 C 194.242 228.750, 207.910 243.259, 216.320 249.581 L 222.198 254 196.033 254 C 179.910 254, 169.126 254.397, 167.934 255.035 C 165.440 256.370, 165.448 259.634, 167.948 260.972 C 169.256 261.672, 191.132 261.930, 234.589 261.757 C 294.951 261.517, 299.356 261.383, 300.386 259.750 C 301.191 258.474, 301.191 257.526, 300.386 256.250 C 299.386 254.663, 296.703 254.475, 271.553 254.234 L 243.823 253.968 249.662 249.635 C 263.927 239.047, 279.039 220.664, 287.334 203.809 C 295.472 187.272, 300.741 167.465, 299.695 157.336 C 297.705 138.053, 278.403 123.421, 259.553 126.906 C 249.707 128.726, 239.940 135.214, 235.350 142.984 C 234.370 144.643, 233.328 145.984, 233.034 145.963 C 232.740 145.943, 231.201 143.878, 229.613 141.374 C 222.853 130.711, 207.164 124.312, 194.355 126.992 M 192.764 134.996 C 185.375 137.221, 178.353 143.890, 175.481 151.410 C 170.660 164.033, 178.787 192.352, 193.698 214.889 C 200.542 225.234, 215.773 240.708, 225.750 247.452 L 233 252.353 240.248 247.427 C 266.247 229.754, 285.650 199.872, 291.541 168.430 C 293.881 155.944, 291.581 148.372, 283.132 140.738 C 277.459 135.613, 271.414 133.630, 263.245 134.215 C 259.527 134.481, 255.031 135.450, 253.256 136.368 C 244.687 140.799, 238.706 149.416, 237.384 159.233 C 236.599 165.064, 234.926 166.743, 231.470 165.168 C 229.687 164.356, 229 163.253, 229 161.203 C 229 151.481, 221.866 140.739, 212.500 136.358 C 207.273 133.913, 198.395 133.300, 192.764 134.996 M 62.500 147 L 51.534 158 74 158 L 96.466 158 85.500 147 C 79.469 140.950, 74.294 136, 74 136 C 73.706 136, 68.531 140.950, 62.500 147 M 46 194 L 46 222 74 222 L 102 222 102 194 L 102 166 74 166 L 46 166 46 194 " stroke="none" fill="black" fill-rule="evenodd"/>
</svg>