<svg xmlns="http://www.w3.org/2000/svg" width="372" height="324" viewBox="0 0 372 324" version="1.1">
	<path d="M 7.571 127.571 C 6.207 128.936, 6 133.463, 6 162 C 6 199.522, 5.654 198, 14.190 198 L 19.237 198 16.059 201.250 C 14.311 203.037, 11.467 207.370, 9.740 210.877 C 6.989 216.464, 6.600 218.277, 6.600 225.500 C 6.600 232.734, 6.988 234.533, 9.762 240.168 C 13.766 248.302, 18.698 253.234, 26.832 257.238 C 32.467 260.012, 34.266 260.400, 41.500 260.400 C 48.734 260.400, 50.533 260.012, 56.168 257.238 C 63.150 253.801, 68.665 248.894, 71.533 243.568 L 73.360 240.176 76.064 244.440 C 79.867 250.436, 83.524 253.596, 90.877 257.240 C 96.479 260.016, 98.258 260.400, 105.500 260.400 C 112.742 260.400, 114.521 260.016, 120.123 257.240 C 127.476 253.596, 131.133 250.436, 134.936 244.440 L 137.640 240.176 139.467 243.568 C 142.335 248.894, 147.850 253.801, 154.832 257.238 C 160.467 260.012, 162.266 260.400, 169.500 260.400 C 176.734 260.400, 178.533 260.012, 184.168 257.238 C 192.302 253.234, 197.234 248.302, 201.238 240.168 C 204.012 234.533, 204.400 232.734, 204.400 225.500 C 204.400 218.277, 204.011 216.464, 201.260 210.877 C 199.533 207.370, 196.689 203.037, 194.941 201.250 L 191.763 198 197.310 198 C 202.753 198, 206 196.412, 206 193.751 C 206 193.143, 199.165 185.759, 190.812 177.343 L 175.623 162.040 182.812 154.626 C 186.765 150.549, 190 146.747, 190 146.178 C 190 144.786, 187.139 142, 185.710 142 C 184.212 142, 150 176.212, 150 177.710 C 150 179.139, 152.786 182, 154.178 182 C 154.747 182, 158.557 178.757, 162.645 174.794 L 170.077 167.588 181.283 178.794 L 192.489 190 135.244 190 L 78 190 78 159.571 C 78 133.242, 77.788 128.931, 76.429 127.571 C 75.064 126.207, 70.537 126, 42 126 C 13.463 126, 8.936 126.207, 7.571 127.571 M 231.571 127.571 C 230.175 128.968, 230 136.372, 230 194 C 230 251.628, 230.175 259.032, 231.571 260.429 C 232.931 261.788, 237.242 262, 263.571 262 L 294 262 294 287.202 L 294 312.405 280.667 299.202 C 273.334 291.941, 266.841 286, 266.239 286 C 264.815 286, 262 288.824, 262 290.253 C 262 290.863, 269.295 298.706, 278.210 307.681 C 293.143 322.714, 294.703 324, 298 324 C 301.297 324, 302.857 322.714, 317.790 307.681 C 326.705 298.706, 334 290.863, 334 290.253 C 334 288.824, 331.185 286, 329.761 286 C 329.159 286, 322.666 291.941, 315.333 299.202 L 302 312.405 302 287.202 L 302 262 332.429 262 C 358.758 262, 363.069 261.788, 364.429 260.429 C 365.825 259.032, 366 251.628, 366 194 C 366 136.372, 365.825 128.968, 364.429 127.571 C 363.032 126.175, 355.628 126, 298 126 C 240.372 126, 232.968 126.175, 231.571 127.571 M 14 162 L 14 190 42 190 L 70 190 70 162 L 70 134 42 134 L 14 134 14 162 M 238 194 L 238 254 266 254 L 294 254 294 223.571 C 294 197.242, 294.212 192.931, 295.571 191.571 C 296.436 190.707, 297.529 190, 298 190 C 298.471 190, 299.564 190.707, 300.429 191.571 C 301.788 192.931, 302 197.242, 302 223.571 L 302 254 330 254 L 358 254 358 194 L 358 134 298 134 L 238 134 238 194 M 32.500 199.326 C 23.842 202.714, 23.821 202.273, 33.103 211.603 L 41.457 220.001 49.692 211.809 C 55.755 205.778, 57.656 203.291, 56.902 202.381 C 53.818 198.666, 38.946 196.804, 32.500 199.326 M 65.926 200.145 C 67.192 201.325, 69.446 204.211, 70.934 206.557 L 73.640 210.824 75.443 207.476 C 76.435 205.635, 78.594 202.749, 80.242 201.064 L 83.237 198 73.430 198 L 63.623 198 65.926 200.145 M 96.500 199.326 C 87.842 202.714, 87.821 202.273, 97.103 211.603 L 105.457 220.001 113.692 211.809 C 119.755 205.778, 121.656 203.291, 120.902 202.381 C 117.818 198.666, 102.946 196.804, 96.500 199.326 M 129.926 200.145 C 131.192 201.325, 133.446 204.211, 134.934 206.557 L 137.640 210.824 139.443 207.476 C 140.435 205.635, 142.594 202.749, 144.242 201.064 L 147.237 198 137.430 198 L 127.623 198 129.926 200.145 M 160.500 199.326 C 151.842 202.714, 151.821 202.273, 161.103 211.603 L 169.457 220.001 177.692 211.809 C 183.755 205.778, 185.656 203.291, 184.902 202.381 C 181.818 198.666, 166.946 196.804, 160.500 199.326 M 18.184 210.278 C 12.920 216.621, 12.741 233.028, 17.863 239.818 C 19.523 242.019, 19.529 242.016, 27.763 233.739 L 36.001 225.457 27.671 217.170 C 20.854 210.389, 19.131 209.137, 18.184 210.278 M 55.237 217.261 L 46.999 225.543 55.339 233.840 L 63.680 242.137 65.174 239.819 C 70.273 231.908, 70.255 217.967, 65.137 211.182 C 63.477 208.981, 63.471 208.984, 55.237 217.261 M 82.184 210.278 C 76.920 216.621, 76.741 233.028, 81.863 239.818 C 83.523 242.019, 83.529 242.016, 91.763 233.739 L 100.001 225.457 91.671 217.170 C 84.854 210.389, 83.131 209.137, 82.184 210.278 M 119.237 217.261 L 110.999 225.543 119.339 233.840 L 127.680 242.137 129.174 239.819 C 134.273 231.908, 134.255 217.967, 129.137 211.182 C 127.477 208.981, 127.471 208.984, 119.237 217.261 M 146.184 210.278 C 140.920 216.621, 140.741 233.028, 145.863 239.818 C 147.523 242.019, 147.529 242.016, 155.763 233.739 L 164.001 225.457 155.671 217.170 C 148.854 210.389, 147.131 209.137, 146.184 210.278 M 183.237 217.261 L 174.999 225.543 183.339 233.840 L 191.680 242.137 193.174 239.819 C 198.273 231.908, 198.255 217.967, 193.137 211.182 C 191.477 208.981, 191.471 208.984, 183.237 217.261 M 33.160 239.339 L 24.863 247.680 27.181 249.174 C 33.487 253.239, 43.260 254.153, 51.260 251.427 C 58.906 248.822, 58.838 248.289, 49.692 239.191 L 41.457 230.999 33.160 239.339 M 97.160 239.339 L 88.863 247.680 91.181 249.174 C 97.487 253.239, 107.260 254.153, 115.260 251.427 C 122.906 248.822, 122.838 248.289, 113.692 239.191 L 105.457 230.999 97.160 239.339 M 161.160 239.339 L 152.863 247.680 155.181 249.174 C 161.487 253.239, 171.260 254.153, 179.260 251.427 C 186.906 248.822, 186.838 248.289, 177.692 239.191 L 169.457 230.999 161.160 239.339 " stroke="none" fill="black" fill-rule="evenodd"/>
</svg>