<svg xmlns="http://www.w3.org/2000/svg" width="340" height="324" viewBox="0 0 340 324" version="1.1">
	<path d="M 63.102 127.162 C 37.850 130.772, 15.064 151.522, 8.374 177 C 6.113 185.610, 6.113 201.390, 8.374 210 C 12.447 225.511, 23.726 241.091, 37.307 249.965 L 43.483 254 26.313 254 C 12.037 254, 8.878 254.265, 7.571 255.571 C 5.598 257.545, 5.598 258.455, 7.571 260.429 C 8.968 261.825, 16.372 262, 74 262 C 131.628 262, 139.032 261.825, 140.429 260.429 C 142.402 258.455, 142.402 257.545, 140.429 255.571 C 139.119 254.261, 135.918 254, 121.189 254 L 103.521 254 110.011 249.646 C 123.699 240.461, 134.973 224.591, 138.617 209.376 C 140.725 200.578, 140.725 186.422, 138.617 177.624 C 136.241 167.702, 129.650 155.726, 122.246 147.878 C 111.216 136.185, 98.049 129.299, 82.398 127.037 C 74.447 125.887, 71.899 125.904, 63.102 127.162 M 183.213 143.315 C 173.746 152.838, 166 161.131, 166 161.743 C 166 163.175, 168.813 166, 170.239 166 C 170.841 166, 177.334 160.059, 184.667 152.798 L 198 139.595 198 199.226 C 198 252.103, 198.178 259.035, 199.571 260.429 C 201.678 262.535, 202.598 262.412, 204.443 259.777 C 205.810 257.827, 206 250.338, 206 198.575 L 206 139.595 219.333 152.798 C 226.666 160.059, 233.101 166, 233.633 166 C 235.213 166, 237 163.736, 237 161.734 C 237 159.469, 204.169 125.975, 201.963 125.990 C 201.117 125.995, 192.680 133.792, 183.213 143.315 M 295.750 127.080 C 294.207 127.979, 294 129.866, 294 143.050 L 294 158 279.934 158 C 265.308 158, 262 158.738, 262 162 C 262 165.262, 265.308 166, 279.934 166 L 294 166 294 212.965 C 294 259.391, 294.024 259.942, 296.064 261.034 C 300.971 263.661, 301 263.383, 301 212.904 L 301 166.052 316.142 165.776 C 329.291 165.536, 331.430 165.270, 332.387 163.750 C 333.191 162.475, 333.191 161.525, 332.387 160.250 C 331.430 158.730, 329.291 158.464, 316.142 158.224 L 301 157.948 301 143.174 C 301 126.586, 300.297 124.432, 295.750 127.080 M 58.645 135.584 C 38.562 140.445, 20.305 158.877, 15.537 179.103 C 10.672 199.742, 16.569 220.600, 31.484 235.516 C 54.996 259.027, 92.031 259.066, 115.494 235.603 C 127.011 224.086, 133 209.682, 133 193.500 C 133 166.315, 113.802 141.644, 87.897 135.537 C 79.998 133.676, 66.439 133.697, 58.645 135.584 " stroke="none" fill="black" fill-rule="evenodd"/>
</svg>