<svg xmlns="http://www.w3.org/2000/svg" width="244" height="324" viewBox="0 0 244 324" version="1.1">
	<path d="M 55.571 63.571 C 53.243 65.900, 53.243 98.100, 55.571 100.429 C 57.900 102.757, 90.100 102.757, 92.429 100.429 C 94.757 98.100, 94.757 65.900, 92.429 63.571 C 90.100 61.243, 57.900 61.243, 55.571 63.571 M 62 82 L 62 94 74 94 L 86 94 86 82 L 86 70 74 70 L 62 70 62 82 M 63.870 127.071 C 48.893 129.271, 37.652 135.158, 25.974 146.916 C 12.475 160.507, 6.696 174.473, 6.696 193.500 C 6.696 212.527, 12.475 226.493, 25.974 240.084 C 35.053 249.225, 41.673 253.551, 51.747 256.926 C 65.925 261.677, 80.994 261.718, 94.863 257.046 C 110.473 251.788, 125.724 238.489, 132.861 223.913 C 138.375 212.651, 140.053 205.555, 140.053 193.500 C 140.053 181.543, 138.374 174.349, 133.041 163.450 C 123.603 144.165, 104.156 130.182, 82.398 127.037 C 74.550 125.902, 71.791 125.907, 63.870 127.071 M 199.285 159.230 C 180.978 177.506, 166 193.166, 166 194.030 C 166 197.785, 167.649 198, 196.427 198 L 224.455 198 195.227 227.289 C 179.152 243.398, 166 257.091, 166 257.718 C 166 259.207, 168.984 262.174, 170.100 261.795 C 171.372 261.363, 238 194.696, 238 193.856 C 238 193.464, 237.293 192.436, 236.429 191.571 C 235.074 190.217, 230.963 190, 206.685 190 L 178.513 190 207.756 160.744 C 223.840 144.653, 237 130.793, 237 129.944 C 237 128.191, 235.103 126, 233.585 126 C 233.026 126, 217.591 140.953, 199.285 159.230 M 57.500 135.870 C 37.436 141.645, 20.733 158.691, 15.585 178.644 C 13.554 186.517, 13.554 200.483, 15.585 208.356 C 20.838 228.716, 38.284 246.162, 58.644 251.415 C 66.367 253.407, 79.556 253.429, 87.897 251.463 C 113.802 245.356, 133 220.685, 133 193.500 C 133 166.315, 113.802 141.644, 87.897 135.537 C 79.386 133.531, 65.080 133.688, 57.500 135.870 M 65.384 159.370 C 47.387 163.885, 35.561 181.817, 38.987 199.396 C 41.885 214.269, 52.376 224.886, 67.198 227.944 C 82.783 231.161, 100.362 221.340, 106.002 206.266 C 108.889 198.550, 108.845 188.335, 105.893 180.443 C 100.147 165.086, 81.423 155.345, 65.384 159.370 M 63.627 167.468 C 58.247 169.386, 53.039 173.829, 49.500 179.519 C 46.741 183.955, 46.500 185.073, 46.500 193.422 C 46.500 201.524, 46.796 203.003, 49.249 207.176 C 56.156 218.926, 70.075 223.920, 83.329 219.403 C 88.795 217.541, 95.688 211.233, 98.523 205.500 C 101.292 199.897, 101.292 187.103, 98.523 181.500 C 95.688 175.767, 88.795 169.459, 83.329 167.597 C 77.637 165.657, 68.868 165.600, 63.627 167.468 M 71.571 191.571 C 70.707 192.436, 70 193.529, 70 194 C 70 194.471, 70.707 195.564, 71.571 196.429 C 72.436 197.293, 73.529 198, 74 198 C 74.471 198, 75.564 197.293, 76.429 196.429 C 77.293 195.564, 78 194.471, 78 194 C 78 193.529, 77.293 192.436, 76.429 191.571 C 75.564 190.707, 74.471 190, 74 190 C 73.529 190, 72.436 190.707, 71.571 191.571 " stroke="none" fill="black" fill-rule="evenodd"/>
</svg>