<svg xmlns="http://www.w3.org/2000/svg" width="244" height="324" viewBox="0 0 244 324" version="1.1">
	<path d="M 232 126.956 C 231.175 127.449, 215.878 157.136, 198.006 192.927 C 171.220 246.569, 165.705 258.309, 166.615 259.751 C 167.630 261.360, 170.421 261.500, 201.500 261.500 C 232.586 261.500, 235.370 261.360, 236.386 259.750 C 237.191 258.474, 237.191 257.526, 236.386 256.250 C 235.382 254.658, 232.613 254.476, 205.647 254.235 L 176.012 253.970 206.506 192.988 C 223.278 159.448, 237 131.195, 237 130.203 C 237 128.485, 235.219 125.966, 234.050 126.030 C 233.748 126.047, 232.825 126.464, 232 126.956 M 7.579 191.564 C 5.598 193.545, 5.596 194.454, 7.571 196.429 C 8.844 197.701, 11.697 198, 22.575 198 L 36.006 198 21.020 227.961 C 12.777 244.439, 6.285 258.580, 6.594 259.384 C 7.265 261.133, 9.512 262.125, 11.274 261.448 C 11.975 261.180, 19.056 247.919, 27.010 231.980 C 34.964 216.041, 41.717 203, 42.016 203 C 42.315 203, 49.042 216.034, 56.965 231.964 C 64.888 247.894, 71.962 261.155, 72.685 261.433 C 73.408 261.710, 74.573 261.717, 75.274 261.448 C 75.975 261.180, 83.056 247.919, 91.010 231.980 C 98.964 216.041, 105.710 203, 106 203 C 106.290 203, 113.036 216.041, 120.990 231.980 C 128.944 247.919, 136.083 261.201, 136.853 261.497 C 138.718 262.213, 141 260.217, 141 257.871 C 141 256.835, 134.480 242.952, 126.511 227.021 L 112.021 198.056 125.653 197.778 C 137.361 197.539, 139.441 197.253, 140.388 195.750 C 141.191 194.475, 141.190 193.525, 140.386 192.250 C 139.356 190.617, 134.934 190.483, 74.220 190.243 C 16.058 190.013, 8.990 190.153, 7.579 191.564 M 60.743 223.500 C 67.750 237.525, 73.715 249, 74 249 C 74.285 249, 80.250 237.525, 87.257 223.500 L 99.995 198 74 198 L 48.005 198 60.743 223.500 " stroke="none" fill="black" fill-rule="evenodd"/>
</svg>