<svg xmlns="http://www.w3.org/2000/svg" width="532" height="324" viewBox="0 0 532 324" version="1.1">
	<path d="M 7.627 127.515 C 6.158 128.985, 6 135.425, 6 194 C 6 252.599, 6.157 259.014, 7.629 260.486 C 8.557 261.414, 9.956 261.837, 10.879 261.468 C 11.771 261.112, 14.975 260.455, 18 260.008 C 33.573 257.703, 44.651 252.318, 55.841 241.611 C 69.557 228.488, 76.467 212.105, 76.346 193 C 76.275 181.765, 74.300 173.450, 69.222 163 C 64.103 152.465, 50.580 138.930, 40 133.751 C 27.664 127.714, 10.697 124.445, 7.627 127.515 M 135.571 127.571 C 134.175 128.968, 134 136.372, 134 194 C 134 251.628, 134.175 259.032, 135.571 260.429 C 136.436 261.293, 137.529 262, 138 262 C 138.471 262, 139.564 261.293, 140.429 260.429 C 141.825 259.032, 142 251.628, 142 194 C 142 136.372, 141.825 128.968, 140.429 127.571 C 139.564 126.707, 138.471 126, 138 126 C 137.529 126, 136.436 126.707, 135.571 127.571 M 358.571 127.571 C 357.699 128.444, 357 130.819, 357 132.911 C 357 139.127, 353.245 151.866, 349.340 158.899 C 344.205 168.148, 334.052 177.887, 324.875 182.369 C 313.205 188.067, 300 190.811, 300 187.538 C 300 182.944, 295.319 174.159, 290.080 168.920 C 273.780 152.620, 246.863 156.020, 235.245 175.846 C 233.790 178.328, 232.078 182.415, 231.440 184.929 L 230.280 189.500 199.103 190 C 172.854 190.421, 167.775 190.737, 166.978 192 C 165.681 194.053, 165.756 194.613, 167.571 196.429 C 168.969 197.826, 176.647 198, 237.022 198 C 282.107 198, 306.681 198.366, 310.201 199.090 C 313.115 199.690, 319.244 201.968, 323.820 204.153 C 333.977 209.002, 343.912 218.325, 349.340 228.101 C 353.365 235.350, 357 247.919, 357 254.589 C 357 258.538, 358.844 262, 360.949 262 C 363.096 262, 364.311 258.526, 364.110 252.962 C 363.260 229.388, 345.445 204.528, 322.896 195.450 L 318.293 193.597 327.344 189.172 C 343.046 181.497, 355.852 166.530, 361.429 149.336 C 363.985 141.455, 364.934 130.351, 363.257 127.956 C 361.599 125.589, 360.633 125.510, 358.571 127.571 M 454.610 128.250 C 453.820 129.488, 450.109 136.680, 446.363 144.233 L 439.552 157.965 415.634 158.233 C 394.172 158.473, 391.604 158.679, 390.620 160.240 C 389.725 161.659, 391.731 166.407, 401.495 185.990 L 413.467 210 401.495 234.010 C 391.731 253.593, 389.725 258.341, 390.620 259.760 C 391.604 261.321, 394.172 261.527, 415.644 261.767 L 439.570 262.035 447.035 277.094 C 451.141 285.377, 455.041 292.607, 455.702 293.160 C 458.453 295.461, 460.700 292.659, 468.257 277.509 L 475.992 262 499.424 262 C 519.394 262, 523.089 261.768, 524.429 260.429 C 525.293 259.564, 526 258.661, 526 258.421 C 526 258.180, 520.598 247.188, 513.996 233.992 L 501.992 210 513.996 186.008 C 520.598 172.812, 526 161.820, 526 161.579 C 526 161.339, 525.293 160.436, 524.429 159.571 C 523.089 158.232, 519.395 158, 499.435 158 L 476.013 158 468.384 142.750 C 464.188 134.363, 460.248 127.169, 459.628 126.765 C 457.649 125.476, 456.085 125.938, 454.610 128.250 M 14 193.500 C 14 249.506, 14.103 252.999, 15.750 252.985 C 16.712 252.977, 20.379 252.292, 23.897 251.463 C 40.095 247.644, 55.545 235.113, 62.809 219.899 C 67.503 210.069, 69 203.687, 69 193.500 C 69 183.313, 67.503 176.931, 62.809 167.101 C 55.545 151.887, 40.095 139.356, 23.897 135.537 C 20.379 134.708, 16.712 134.023, 15.750 134.015 C 14.103 134.001, 14 137.494, 14 193.500 M 452.732 148.500 L 448.013 158 457.507 158 C 462.728 158, 467 157.766, 467 157.480 C 467 156.797, 458.059 139, 457.716 139 C 457.570 139, 455.328 143.275, 452.732 148.500 M 255.385 167.617 C 249.552 169.686, 243.605 175.144, 240.588 181.199 C 235.895 190.618, 234.144 190, 265.519 190 L 293.038 190 292.392 187.250 C 290.374 178.665, 283.032 170.404, 274.684 167.326 C 270.298 165.709, 260.343 165.859, 255.385 167.617 M 408.607 183.250 C 413.347 192.738, 417.373 200.661, 417.553 200.857 C 417.877 201.210, 435 167.501, 435 166.511 C 435 166.230, 427.122 166, 417.494 166 L 399.989 166 408.607 183.250 M 433 188 L 421.991 210 433 232 L 444.009 254 457.773 254 L 471.536 254 482.500 232 L 493.464 210 482.500 188 L 471.536 166 457.773 166 L 444.009 166 433 188 M 488.607 183.250 C 493.347 192.738, 497.373 200.661, 497.553 200.857 C 497.877 201.210, 515 167.501, 515 166.511 C 515 166.230, 507.122 166, 497.494 166 L 479.989 166 488.607 183.250 M 103.571 191.571 C 102.707 192.436, 102 193.529, 102 194 C 102 194.471, 102.707 195.564, 103.571 196.429 C 104.436 197.293, 105.529 198, 106 198 C 106.471 198, 107.564 197.293, 108.429 196.429 C 109.293 195.564, 110 194.471, 110 194 C 110 193.529, 109.293 192.436, 108.429 191.571 C 107.564 190.707, 106.471 190, 106 190 C 105.529 190, 104.436 190.707, 103.571 191.571 M 408.740 236.500 L 400.007 254 417.504 254 C 427.127 254, 435 253.770, 435 253.489 C 435 252.819, 418.067 219, 417.731 219 C 417.589 219, 413.544 226.875, 408.740 236.500 M 488.740 236.500 L 480.007 254 497.504 254 C 507.127 254, 515 253.770, 515 253.489 C 515 252.819, 498.067 219, 497.731 219 C 497.589 219, 493.544 226.875, 488.740 236.500 M 452.605 271.250 C 455.149 276.337, 457.376 280.659, 457.553 280.854 C 457.875 281.209, 467 263.500, 467 262.520 C 467 262.234, 462.720 262, 457.490 262 L 447.980 262 452.605 271.250 " stroke="none" fill="black" fill-rule="evenodd"/>
</svg>