<svg xmlns="http://www.w3.org/2000/svg" width="308" height="324" viewBox="0 0 308 324" version="1.1">
	<path d="M 7.571 127.571 C 6.707 128.436, 6 129.529, 6 130 C 6 130.471, 6.707 131.564, 7.571 132.429 C 8.966 133.824, 16.152 134, 71.571 134 L 134 134 134 194 L 134 254 71.571 254 C 16.152 254, 8.966 254.176, 7.571 255.571 C 5.598 257.545, 5.598 258.455, 7.571 260.429 C 8.968 261.825, 16.343 261.998, 73.821 261.985 C 109.395 261.976, 139.072 261.606, 139.772 261.162 C 141.639 259.977, 141.639 128.023, 139.772 126.838 C 139.072 126.394, 109.395 126.024, 73.821 126.015 C 16.343 126.002, 8.968 126.175, 7.571 127.571 M 183.239 143.260 C 173.758 152.754, 166 161.288, 166 162.225 C 166 163.163, 166.959 164.443, 168.131 165.070 C 170.073 166.110, 171.495 164.981, 184.131 152.369 L 198 138.527 198 199.228 C 198 259.533, 198.013 259.937, 200.064 261.034 C 205.059 263.708, 205 264.453, 205 199.174 L 205 138.592 218.830 152.296 C 226.437 159.833, 233.132 166, 233.708 166 C 235.297 166, 237.208 163.291, 236.833 161.570 C 236.418 159.665, 203.028 126, 201.554 126 C 200.963 126, 192.721 133.767, 183.239 143.260 M 263.750 127.080 C 262.114 128.033, 262 132.044, 262 188.786 L 262 249.473 248.131 235.631 C 235.495 223.019, 234.073 221.890, 232.131 222.930 C 230.959 223.557, 230 224.847, 230 225.796 C 230 227.590, 263.761 262, 265.521 262 C 267.266 262, 301 227.556, 301 225.775 C 301 224.837, 300.061 223.568, 298.913 222.953 C 297.030 221.946, 295.463 223.187, 282.913 235.622 L 269 249.408 269 188.904 C 269 123.446, 269.047 123.995, 263.750 127.080 " stroke="none" fill="black" fill-rule="evenodd"/>
</svg>