<svg xmlns="http://www.w3.org/2000/svg" width="308" height="324" viewBox="0 0 308 324" version="1.1">
	<path d="M 55.571 63.571 C 54.707 64.436, 54 65.317, 54 65.531 C 54 66.993, 71.421 100.653, 72.488 101.252 C 73.225 101.665, 74.440 101.768, 75.188 101.481 C 76.837 100.849, 93 68.755, 93 66.115 C 93 63.770, 90.710 61.790, 88.832 62.511 C 88.050 62.811, 84.520 68.894, 80.986 76.028 C 77.453 83.163, 74.306 89, 73.994 89 C 73.683 89, 70.969 83.984, 67.964 77.854 C 62.437 66.580, 59.559 62, 57.999 62 C 57.528 62, 56.436 62.707, 55.571 63.571 M 103.616 63.527 C 102.727 64.416, 102 65.529, 102 66 C 102 67.389, 105.140 70.120, 106.295 69.735 C 108.395 69.035, 109.549 66.094, 108.423 64.310 C 106.905 61.902, 105.474 61.669, 103.616 63.527 M 35.045 127.064 C 19.595 130.192, 7.301 144.028, 6.821 158.824 C 6.644 164.267, 11.379 182.964, 15.864 194.532 C 18.981 202.574, 27.719 218.270, 32.426 224.285 L 34.931 227.486 20.466 242.068 C 12.510 250.088, 6 257.147, 6 257.754 C 6 258.361, 6.710 259.568, 7.579 260.436 C 8.990 261.847, 16.058 261.987, 74.220 261.757 C 134.934 261.517, 139.356 261.383, 140.386 259.750 C 141.191 258.474, 141.191 257.526, 140.387 256.250 C 139.394 254.675, 136.579 254.450, 112.169 254 L 85.054 253.500 92.125 248 C 114.881 230.301, 132.646 201.186, 138.590 171.852 C 140.866 160.622, 140.134 152.816, 136.110 145.387 L 132.976 139.600 136.988 135.512 C 141.155 131.266, 141.840 129.240, 139.800 127.200 C 137.987 125.387, 137.334 125.651, 132.409 130.190 C 127.878 134.368, 127.855 134.375, 125.182 132.636 C 108.404 121.720, 86.475 126.185, 76.014 142.647 L 73.379 146.793 70.597 142.395 C 63.298 130.857, 48.284 124.383, 35.045 127.064 M 183.239 143.260 C 173.758 152.754, 166 161.288, 166 162.225 C 166 163.163, 166.959 164.443, 168.131 165.070 C 170.073 166.110, 171.495 164.981, 184.131 152.369 L 198 138.527 198 199.228 C 198 259.533, 198.013 259.937, 200.064 261.034 C 205.059 263.708, 205 264.453, 205 199.174 L 205 138.592 218.913 152.378 C 231.627 164.976, 233.011 166.065, 234.973 165.014 C 236.266 164.323, 236.998 163.103, 236.811 161.953 C 236.468 159.845, 203.279 126, 201.554 126 C 200.963 126, 192.721 133.767, 183.239 143.260 M 263.724 127.134 C 262.121 128.031, 262 132.373, 262 188.754 L 262 249.408 248.087 235.622 C 235.537 223.187, 233.970 221.946, 232.087 222.953 C 230.939 223.568, 230 224.847, 230 225.796 C 230 227.590, 263.761 262, 265.521 262 C 267.266 262, 301 227.556, 301 225.775 C 301 224.837, 300.061 223.568, 298.913 222.953 C 297.030 221.946, 295.463 223.187, 282.913 235.622 L 269 249.408 269 188.739 C 269 131.647, 268.895 128.014, 267.224 127.120 C 266.098 126.517, 264.818 126.522, 263.724 127.134 M 31.627 135.468 C 26.246 137.386, 21.038 141.829, 17.500 147.519 C 14.970 151.588, 14.517 153.296, 14.610 158.422 C 14.741 165.654, 17.661 178.218, 21.986 190.156 C 24.729 197.728, 33.988 214.730, 38.497 220.472 C 39.979 222.359, 41.823 220.668, 81.024 181.476 C 103.562 158.943, 121.862 140.085, 121.690 139.570 C 120.912 137.235, 113.202 134.512, 106.377 134.161 C 98.200 133.740, 92.813 135.592, 86.766 140.900 C 82.289 144.832, 78 153.184, 78 157.974 C 78 161.875, 75.695 166, 73.515 166 C 71.013 166, 69 162.918, 69 159.088 C 69 154.001, 63.752 143.766, 59.235 140.042 C 52.315 134.338, 40.357 132.357, 31.627 135.468 M 85.965 186.705 L 44.686 228.411 52.208 235.507 C 56.346 239.410, 62.903 244.771, 66.781 247.420 L 73.830 252.237 81.502 246.934 C 106.584 229.595, 125.314 200.826, 131.546 170.069 C 133.457 160.638, 133.040 154.959, 129.998 148.997 C 128.877 146.799, 127.798 145, 127.601 145 C 127.404 145, 108.668 163.767, 85.965 186.705 M 29.500 244 L 19.538 254 41.418 254 L 63.298 254 56.899 249.104 C 53.380 246.412, 48.267 241.912, 45.538 239.104 C 42.808 236.297, 40.325 234, 40.019 234 C 39.713 234, 34.979 238.500, 29.500 244 " stroke="none" fill="black" fill-rule="evenodd"/>
</svg>