<svg xmlns="http://www.w3.org/2000/svg" width="308" height="324" viewBox="0 0 308 324" version="1.1">
	<path d="M 72.357 126.765 C 71.406 127.377, 6 257.165, 6 258.440 C 6 258.670, 6.707 259.564, 7.571 260.429 C 8.968 261.825, 16.372 262, 74 262 C 131.628 262, 139.032 261.825, 140.429 260.429 C 141.293 259.564, 142 258.663, 142 258.426 C 142 257.155, 76.584 127.384, 75.631 126.765 C 75.009 126.361, 74.275 126.031, 74 126.031 C 73.725 126.031, 72.986 126.361, 72.357 126.765 M 167.750 127.080 C 166.111 128.035, 166 132.293, 166 194.015 C 166 259.587, 166.011 259.935, 168.064 261.034 C 172.351 263.329, 172.933 261.210, 173.227 242.230 L 173.500 224.668 177.269 230.347 C 203.893 270.464, 262.614 270.401, 288.988 230.227 L 294 222.593 294 241.261 C 294 258.121, 294.172 260.022, 295.776 260.880 C 296.902 261.483, 298.182 261.478, 299.276 260.866 C 300.881 259.967, 301 255.347, 301 194 C 301 132.653, 300.881 128.033, 299.276 127.134 C 298.182 126.522, 296.902 126.517, 295.776 127.120 C 294.172 127.978, 294 129.881, 294 146.770 L 294 165.470 291.881 161.485 C 279.334 137.886, 251.929 123.572, 225.721 126.930 C 205.397 129.533, 188.310 140.016, 177.269 156.653 L 173.500 162.332 173.225 145.489 C 172.918 126.653, 172.263 124.452, 167.750 127.080 M 218 135.579 C 207.816 138.259, 200.019 142.918, 191.411 151.467 C 178.784 164.007, 174.024 175.514, 174.024 193.500 C 174.024 211.514, 178.789 223.036, 191.401 235.511 C 204.770 248.735, 217.443 253.629, 235.988 252.725 C 248.298 252.126, 255.893 249.808, 265.145 243.828 C 279.815 234.346, 289.173 219.719, 292.385 201.250 L 292.950 198 262.675 198 C 240.461 198, 232.080 197.680, 231.200 196.800 C 230.319 195.919, 230 187.422, 230 164.800 L 230 134 226.750 134.066 C 224.963 134.102, 221.025 134.783, 218 135.579 M 237 161.864 L 237 190 265.045 190 L 293.091 190 292.464 186.250 C 287.825 158.510, 267.668 137.890, 241.750 134.373 L 237 133.728 237 161.864 M 44.747 196.500 L 16.002 254 73.501 254 C 105.126 254, 131 253.786, 131 253.523 C 131 252.434, 74.624 139, 74.083 139 C 73.758 139, 60.557 164.875, 44.747 196.500 M 71.571 159.571 C 69.215 161.927, 69.215 210.073, 71.571 212.429 C 73.678 214.535, 74.598 214.412, 76.443 211.777 C 77.745 209.919, 78 205.701, 78 186 C 78 166.299, 77.745 162.081, 76.443 160.223 C 74.598 157.588, 73.678 157.465, 71.571 159.571 M 71.616 222.527 C 70.727 223.416, 70 224.529, 70 225 C 70 226.389, 73.140 229.120, 74.295 228.735 C 76.395 228.035, 77.549 225.094, 76.423 223.310 C 74.905 220.902, 73.474 220.669, 71.616 222.527 " stroke="none" fill="black" fill-rule="evenodd"/>
</svg>