<svg xmlns="http://www.w3.org/2000/svg" width="244" height="324" viewBox="0 0 244 324" version="1.1">
	<path d="M 72.316 62.784 C 70.369 64.022, 54.007 97.855, 54.604 99.410 C 55.450 101.615, 58.110 102.210, 59.895 100.594 C 60.778 99.795, 64.185 93.709, 67.467 87.070 C 70.748 80.432, 73.687 75, 73.997 75 C 74.308 75, 77.453 80.837, 80.986 87.972 C 84.520 95.106, 88.050 101.189, 88.832 101.489 C 90.716 102.212, 93 100.227, 93 97.866 C 93 95.626, 77.264 63.831, 75.628 62.765 C 74.214 61.845, 73.789 61.847, 72.316 62.784 M 35.045 127.093 C 19.668 130.106, 7.255 144.071, 6.841 158.824 C 6.689 164.231, 10.459 179.667, 14.976 192.133 C 18.628 202.212, 26.063 215.568, 33.594 225.579 C 47.004 243.404, 74.270 264.227, 77.454 259.074 C 77.769 258.565, 81.733 255.561, 86.263 252.400 C 112.642 233.993, 132.161 203.833, 138.872 171.112 C 141.968 156.020, 139.235 146.037, 129.353 136.339 C 116.531 123.758, 95.705 123.368, 82.257 135.459 C 79.595 137.852, 76.567 141.388, 75.529 143.317 L 73.640 146.824 70.976 142.624 C 63.647 131.067, 48.399 124.476, 35.045 127.093 M 183.213 143.315 C 173.746 152.838, 166 161.131, 166 161.743 C 166 162.951, 168.728 166, 169.808 166 C 170.175 166, 176.667 159.819, 184.237 152.263 L 198 138.527 198 198.692 C 198 252.054, 198.178 259.035, 199.571 260.429 C 200.436 261.293, 201.471 262, 201.871 262 C 204.854 262, 205 259.055, 205 199.096 L 205 138.592 218.830 152.296 C 226.437 159.833, 233.132 166, 233.708 166 C 235.297 166, 237.208 163.291, 236.833 161.570 C 236.413 159.644, 203.020 126, 201.528 126 C 200.921 126, 192.680 133.792, 183.213 143.315 M 31.748 135.427 C 23.566 138.346, 15.839 147.077, 14.518 154.893 C 13.681 159.850, 17.098 176.394, 21.507 188.729 C 29.718 211.703, 46.703 233.702, 66.868 247.480 L 73.830 252.237 81.660 246.869 C 97.276 236.162, 112.220 218.638, 121.388 200.283 C 127.714 187.616, 133 169.094, 133 159.594 C 133 153.973, 127.994 143.965, 123.211 140.022 C 112.108 130.871, 93.590 132.403, 84.451 143.230 C 80.698 147.676, 78.048 153.774, 78.022 158.027 C 77.998 161.891, 75.675 166, 73.515 166 C 71.134 166, 69 162.978, 69 159.607 C 69 149.949, 60.912 138.862, 51.537 135.667 C 45.704 133.680, 36.941 133.573, 31.748 135.427 " stroke="none" fill="black" fill-rule="evenodd"/>
</svg>