<svg xmlns="http://www.w3.org/2000/svg" width="436" height="324" viewBox="0 0 436 324" version="1.1">
	<path d="M 55.571 63.571 C 54.707 64.436, 54 65.317, 54 65.531 C 54 66.993, 71.421 100.653, 72.488 101.252 C 73.225 101.665, 74.440 101.768, 75.187 101.482 C 77.102 100.747, 94.082 66.377, 93.403 64.609 C 92.732 62.858, 90.483 61.877, 88.705 62.560 C 87.993 62.833, 84.520 68.894, 80.986 76.028 C 77.453 83.163, 74.308 89, 73.997 89 C 73.687 89, 70.748 83.534, 67.467 76.853 C 59.925 61.499, 58.847 60.296, 55.571 63.571 M 35.045 127.092 C 24.744 129.112, 14.837 136.518, 10.151 145.705 C 7.578 150.747, 5.616 161.395, 6.828 163.738 C 7.329 164.707, 8.525 169.100, 9.484 173.500 C 14.997 198.781, 28.030 222.125, 46.649 240.065 C 55.769 248.853, 71.103 260, 74.070 260 C 75.196 260, 77.778 258.733, 79.809 257.185 C 81.839 255.636, 86.988 251.763, 91.250 248.578 C 114.809 230.976, 132.816 201.755, 138.913 171.234 C 140.415 163.715, 140.654 160.266, 139.962 156.078 C 136.330 134.093, 113.566 120.989, 92.798 128.928 C 86.373 131.384, 78.359 138.062, 75.529 143.317 L 73.640 146.824 70.995 142.662 C 65.716 134.353, 57.568 128.946, 47.535 127.091 C 40.969 125.877, 41.243 125.877, 35.045 127.092 M 183.250 126.662 C 181.121 127.521, 181.864 131.041, 185.016 135.020 C 186.675 137.115, 189.262 141.454, 190.766 144.664 C 193.201 149.861, 193.500 151.650, 193.500 161 C 193.500 173.747, 191.824 178.007, 181.467 191.580 C 173.498 202.024, 170.443 208.430, 168.861 218.011 C 166.698 231.110, 171.087 246.137, 180.050 256.319 C 184.342 261.195, 186.863 262.075, 189.038 259.454 C 190.105 258.168, 189.958 257.452, 188.166 255.204 C 182.515 248.115, 179.722 243.505, 177.940 238.327 C 175.343 230.779, 175.346 219.213, 177.947 211.654 C 179.856 206.106, 181.302 203.776, 189.627 192.839 C 198.135 181.663, 201.185 173.097, 201.150 160.480 C 201.116 148.485, 196.718 136.814, 189.192 128.750 C 186.651 126.027, 185.674 125.684, 183.250 126.662 M 263.571 127.571 C 262.175 128.968, 262 136.372, 262 194 C 262 251.628, 262.175 259.032, 263.571 260.429 C 265.678 262.535, 266.598 262.412, 268.443 259.777 C 269.813 257.823, 270 249.904, 270 194 C 270 138.096, 269.813 130.177, 268.443 128.223 C 266.598 125.588, 265.678 125.465, 263.571 127.571 M 31.054 135.728 C 24.820 137.929, 17.726 145.300, 15.557 151.828 C 14.045 156.381, 13.979 157.954, 15.032 164.270 C 20.746 198.525, 39.651 228.764, 67.165 247.660 L 73.830 252.237 81.647 246.869 C 106.364 229.892, 125.112 201.366, 131.495 171.022 C 133.741 160.345, 133.447 156.214, 129.940 149.196 C 125.018 139.347, 116.437 134, 105.552 134 C 91.078 134, 80.126 143.563, 78.163 157.916 C 77.355 163.825, 76.081 165.949, 73.321 165.985 C 71.127 166.013, 69 162.874, 69 159.607 C 69 149.949, 60.912 138.862, 51.537 135.667 C 45.516 133.616, 36.964 133.641, 31.054 135.728 M 308.994 190.934 C 301.407 193.242, 297.380 197.101, 295.044 204.303 C 293.592 208.778, 294.281 212.510, 296.733 213.451 C 298.954 214.303, 302 210.740, 302 207.289 C 302 205.792, 303.355 203.445, 305.400 201.400 C 308.264 198.536, 309.512 198, 313.323 198 C 319.042 198, 323.630 201.510, 324.588 206.618 C 325.201 209.886, 324.219 211.654, 309.622 233.554 C 301.030 246.446, 294 257.615, 294 258.374 C 294 261.607, 296.614 262.051, 314.024 261.774 C 329.193 261.533, 331.418 261.288, 332.387 259.750 C 333.190 258.475, 333.191 257.525, 332.388 256.250 C 331.445 254.753, 329.383 254.460, 318.151 254.221 L 305.015 253.942 319.008 232.988 C 326.703 221.464, 333 211.207, 333 210.196 C 333 205.877, 329.660 198.925, 325.992 195.612 C 320.730 190.858, 314.700 189.199, 308.994 190.934 M 391.750 191.080 C 390.207 191.979, 390 193.866, 390 207.050 L 390 222 375.934 222 C 361.308 222, 358 222.738, 358 226 C 358 229.262, 361.308 230, 375.934 230 L 390 230 390 242 L 390 254 375.934 254 C 361.308 254, 358 254.738, 358 258 C 358 261.750, 360.791 262.037, 394.601 261.764 C 424.469 261.523, 427.378 261.349, 428.386 259.750 C 429.190 258.475, 429.191 257.525, 428.387 256.250 C 427.430 254.730, 425.291 254.464, 412.142 254.224 L 397 253.948 397 242 L 397 230.052 412.142 229.776 C 425.291 229.536, 427.430 229.270, 428.387 227.750 C 429.191 226.475, 429.191 225.525, 428.387 224.250 C 427.430 222.730, 425.291 222.464, 412.142 222.224 L 397 221.948 397 207.174 C 397 190.586, 396.297 188.432, 391.750 191.080 M 227.235 251.037 C 222.947 252.760, 222.303 261.028, 226.337 262.576 C 227.197 262.906, 227.522 264.047, 227.215 265.656 C 226.731 268.188, 228.163 269.953, 230.727 269.985 C 234.006 270.026, 237.688 259.304, 235.915 254.880 C 235.102 252.852, 230.988 249.662, 229.703 250.063 C 229.591 250.098, 228.481 250.536, 227.235 251.037 " stroke="none" fill="black" fill-rule="evenodd"/>
</svg>