<svg xmlns="http://www.w3.org/2000/svg" width="148" height="324" viewBox="0 0 148 324" version="1.1">
	<path d="M 72.316 62.784 C 70.369 64.022, 54.007 97.855, 54.604 99.410 C 55.450 101.615, 58.110 102.210, 59.895 100.594 C 60.778 99.795, 64.185 93.709, 67.467 87.070 C 70.748 80.432, 73.687 75, 73.997 75 C 74.308 75, 77.453 80.837, 80.986 87.972 C 84.520 95.106, 88.050 101.189, 88.832 101.489 C 90.716 102.212, 93 100.227, 93 97.866 C 93 95.626, 77.264 63.831, 75.628 62.765 C 74.214 61.845, 73.789 61.847, 72.316 62.784 M 7.571 127.571 C 6.707 128.436, 6 129.330, 6 129.560 C 6 131.041, 71.463 260.648, 72.516 261.252 C 73.238 261.665, 74.434 261.771, 75.175 261.486 C 76.816 260.857, 141 132.765, 141 130.120 C 141 127.701, 138.693 125.797, 136.691 126.565 C 135.832 126.895, 121.516 154.578, 104.877 188.082 C 88.239 221.587, 74.370 249, 74.056 249 C 73.743 249, 59.990 221.941, 43.493 188.869 C 26.997 155.796, 12.905 128.121, 12.179 127.369 C 10.471 125.600, 9.500 125.643, 7.571 127.571 " stroke="none" fill="black" fill-rule="evenodd"/>
</svg>