<svg xmlns="http://www.w3.org/2000/svg" width="468" height="324" viewBox="0 0 468 324" version="1.1">
	<path d="M 72.372 62.765 C 70.418 64.037, 54.003 97.844, 54.593 99.381 C 55.268 101.141, 57.513 102.124, 59.295 101.440 C 60.007 101.167, 63.480 95.106, 67.014 87.972 C 70.547 80.837, 73.691 75, 74 75 C 74.309 75, 77.453 80.837, 80.986 87.972 C 84.520 95.106, 87.993 101.167, 88.705 101.440 C 90.487 102.124, 92.732 101.141, 93.407 99.381 C 93.716 98.575, 90.096 90.173, 85.363 80.708 C 77.638 65.261, 75.672 62.031, 74 62.031 C 73.725 62.031, 72.992 62.361, 72.372 62.765 M 7.571 127.571 C 6.707 128.436, 6 129.335, 6 129.569 C 6 131.164, 71.738 261.069, 72.739 261.453 C 73.432 261.719, 74.568 261.719, 75.261 261.453 C 77.123 260.739, 142.060 130.320, 141.404 128.612 C 140.736 126.870, 138.487 125.876, 136.735 126.548 C 136.039 126.815, 121.755 154.476, 104.992 188.017 C 88.228 221.558, 74.282 249, 74 249 C 73.718 249, 59.990 221.941, 43.493 188.869 C 26.997 155.796, 12.905 128.121, 12.179 127.369 C 10.471 125.600, 9.500 125.643, 7.571 127.571 M 195.270 127.054 C 180.642 129.941, 169.828 140.938, 167.037 155.763 C 165.395 164.491, 170.007 184.128, 177.628 200.851 C 182.391 211.303, 192.507 226.199, 201.065 235.363 C 208.112 242.909, 222.478 254.414, 230.694 259.092 L 234.889 261.481 237.694 258.912 C 239.238 257.500, 243.650 254.155, 247.500 251.481 C 262.883 240.793, 280.030 220.331, 288.329 202.759 C 296.774 184.876, 301.707 165.027, 299.982 155.864 C 295.595 132.558, 272.273 120.266, 250.616 129.845 C 245.222 132.232, 239.372 137.363, 236.005 142.662 L 233.360 146.824 231.503 143.377 C 229.181 139.064, 222.418 132.764, 217.318 130.162 C 215.183 129.073, 210.781 127.691, 207.535 127.091 C 200.994 125.882, 201.205 125.883, 195.270 127.054 M 191.054 135.728 C 181.529 139.091, 173.980 150.255, 174.015 160.928 C 174.060 174.876, 183.486 199.677, 195.271 216.856 C 202.012 226.682, 215.407 240.049, 225.350 246.871 C 234.326 253.030, 233.198 253.158, 244.549 244.694 C 260.290 232.957, 272.032 218.728, 281.018 200.500 C 287.591 187.167, 291.827 173.889, 292.692 163.905 C 294.493 143.139, 275.597 128.807, 255.463 135.667 C 246.088 138.862, 238 149.949, 238 159.607 C 238 162.970, 235.867 166, 233.500 166 C 231.133 166, 229 162.970, 229 159.607 C 229 149.949, 220.912 138.862, 211.537 135.667 C 205.516 133.616, 196.964 133.641, 191.054 135.728 M 359.571 159.571 C 358.288 160.855, 358 163.788, 358 175.571 L 358 190 343.571 190 C 331.788 190, 328.855 190.288, 327.571 191.571 C 325.598 193.545, 325.598 194.455, 327.571 196.429 C 328.855 197.712, 331.788 198, 343.571 198 L 358 198 358 212.429 C 358 224.212, 358.288 227.145, 359.571 228.429 C 361.545 230.402, 362.455 230.402, 364.429 228.429 C 365.712 227.145, 366 224.212, 366 212.429 L 366 198 380.429 198 C 392.212 198, 395.145 197.712, 396.429 196.429 C 398.402 194.455, 398.402 193.545, 396.429 191.571 C 395.145 190.288, 392.212 190, 380.429 190 L 366 190 366 175.571 C 366 163.788, 365.712 160.855, 364.429 159.571 C 363.564 158.707, 362.471 158, 362 158 C 361.529 158, 360.436 158.707, 359.571 159.571 M 423.571 159.571 C 422.227 160.916, 422 164.736, 422 186 C 422 207.264, 422.227 211.084, 423.571 212.429 C 424.436 213.293, 425.529 214, 426 214 C 426.471 214, 427.564 213.293, 428.429 212.429 C 429.773 211.084, 430 207.264, 430 186 C 430 164.736, 429.773 160.916, 428.429 159.571 C 427.564 158.707, 426.471 158, 426 158 C 425.529 158, 424.436 158.707, 423.571 159.571 M 423.571 222.571 C 422.707 223.436, 422 224.529, 422 225 C 422 226.111, 424.889 229, 426 229 C 427.111 229, 430 226.111, 430 225 C 430 223.889, 427.111 221, 426 221 C 425.529 221, 424.436 221.707, 423.571 222.571 " stroke="none" fill="black" fill-rule="evenodd"/>
</svg>