<svg xmlns="http://www.w3.org/2000/svg" width="532" height="324" viewBox="0 0 532 324" version="1.1">
	<path d="M 199.571 127.571 C 198.175 128.968, 198 136.372, 198 194 C 198 251.628, 198.175 259.032, 199.571 260.429 C 200.436 261.293, 201.529 262, 202 262 C 202.471 262, 203.564 261.293, 204.429 260.429 C 205.825 259.032, 206 251.628, 206 194 C 206 136.372, 205.825 128.968, 204.429 127.571 C 203.564 126.707, 202.471 126, 202 126 C 201.529 126, 200.436 126.707, 199.571 127.571 M 287.531 127.113 C 262.038 130.827, 240.665 149.546, 232.855 175 C 229.609 185.577, 229.609 201.423, 232.855 212 C 237.776 228.040, 247.209 240.488, 261.837 250.250 L 267.457 254 250.300 254 C 236.036 254, 232.878 254.265, 231.571 255.571 C 229.596 257.546, 229.598 258.455, 231.579 260.436 C 232.990 261.847, 240.058 261.987, 298.220 261.757 C 358.934 261.517, 363.356 261.383, 364.386 259.750 C 365.191 258.474, 365.191 257.526, 364.387 256.250 C 363.413 254.704, 361.140 254.468, 344.895 254.226 L 326.506 253.953 332.003 250.837 C 340.966 245.757, 352.036 233.767, 356.861 223.913 C 362.375 212.651, 364.053 205.555, 364.053 193.500 C 364.053 181.543, 362.374 174.349, 357.041 163.450 C 347.603 144.165, 328.156 130.182, 306.398 127.037 C 298.494 125.894, 295.826 125.905, 287.531 127.113 M 418.344 127 C 408.370 129.073, 398.361 136.997, 393.932 146.328 C 389.903 154.818, 389.515 159.804, 391.952 171.764 C 398.110 201.985, 414.579 228.833, 438.816 248.165 L 446.131 254 419.637 254 C 396.885 254, 392.921 254.222, 391.571 255.571 C 389.596 257.546, 389.598 258.455, 391.579 260.436 C 392.990 261.847, 400.058 261.987, 458.220 261.757 C 518.934 261.517, 523.356 261.383, 524.386 259.750 C 525.191 258.474, 525.191 257.526, 524.387 256.250 C 523.394 254.674, 520.570 254.450, 495.968 254 L 468.652 253.500 472.576 250.548 C 498.783 230.834, 516.329 202.986, 522.835 170.781 C 525.830 155.957, 522.762 145.231, 512.828 135.799 C 503.124 126.585, 487.588 123.837, 475.774 129.246 C 469.217 132.248, 460.787 139.686, 458.970 144.073 L 457.728 147.070 454.429 142.170 C 446.605 130.552, 431.601 124.245, 418.344 127 M 281.500 135.870 C 271.383 138.782, 263.105 143.806, 254.993 151.957 C 243.146 163.860, 238 176.442, 238 193.500 C 238 210.512, 243.128 223.074, 254.993 235.125 C 266.860 247.179, 280.506 252.953, 297.201 252.985 C 307.649 253.005, 313.980 251.545, 323.820 246.847 C 348.843 234.900, 362.032 205.996, 355.003 178.511 C 350.717 161.754, 339.079 147.438, 323.820 140.153 C 319.244 137.968, 313.115 135.690, 310.201 135.090 C 302.410 133.487, 288.459 133.866, 281.500 135.870 M 415.627 135.468 C 410.258 137.382, 405.040 141.826, 401.525 147.478 C 397.315 154.249, 396.973 162.240, 400.328 175.508 C 407.797 205.046, 425.663 230.927, 450.134 247.659 C 457.802 252.902, 457.045 253.036, 468.560 244.402 C 482.643 233.844, 497.367 216.231, 505.264 200.500 C 511.837 187.405, 517.699 165.114, 516.626 157.291 C 513.866 137.151, 489.006 126.961, 472.797 139.325 C 467.118 143.656, 463.172 150.296, 462.001 157.492 C 460.831 164.680, 459.093 166.819, 455.686 165.267 C 453.718 164.370, 453.199 163.216, 452.733 158.702 C 451.272 144.548, 439.599 133.943, 425.590 134.044 C 422.241 134.068, 417.757 134.709, 415.627 135.468 M 71.750 191.057 C 68.717 192.863, 69.781 194.918, 77.932 202.993 C 90.574 215.517, 98.734 231.686, 100.561 247.836 L 101.258 254 55.201 254 C 14.663 254, 8.955 254.188, 7.571 255.571 C 5.598 257.545, 5.598 258.455, 7.571 260.429 C 8.968 261.825, 16.372 262, 74 262 C 132.599 262, 139.014 261.843, 140.486 260.371 C 141.421 259.436, 141.836 258.052, 141.459 257.121 C 141.099 256.229, 140.451 252.800, 140.019 249.500 C 136.398 221.811, 116.587 199.187, 90.202 192.608 C 81.877 190.533, 73.775 189.852, 71.750 191.057 M 167.571 191.571 C 166.707 192.436, 166 193.529, 166 194 C 166 194.471, 166.707 195.564, 167.571 196.429 C 168.436 197.293, 169.529 198, 170 198 C 170.471 198, 171.564 197.293, 172.429 196.429 C 173.293 195.564, 174 194.471, 174 194 C 174 193.529, 173.293 192.436, 172.429 191.571 C 171.564 190.707, 170.471 190, 170 190 C 169.529 190, 168.436 190.707, 167.571 191.571 M 89.906 205.078 C 99.298 216.733, 106.244 233.039, 107.790 247.061 L 108.500 253.500 120.750 253.781 C 134.883 254.105, 134.327 254.640, 131.485 243.460 C 127.111 226.253, 115.412 211.691, 99.942 204.198 C 95.299 201.950, 90.005 199.817, 88.177 199.459 L 84.854 198.809 89.906 205.078 " stroke="none" fill="black" fill-rule="evenodd"/>
</svg>