<svg xmlns="http://www.w3.org/2000/svg" width="244" height="324" viewBox="0 0 244 324" version="1.1">
	<path d="M 7.200 127.200 C 5.465 128.935, 5.465 259.065, 7.200 260.800 C 8.109 261.709, 24.348 262, 74.165 262 C 138.161 262, 139.957 261.948, 140.965 260.066 C 142.395 257.393, 142.395 130.607, 140.965 127.934 C 139.957 126.052, 138.161 126, 74.165 126 C 24.348 126, 8.109 126.291, 7.200 127.200 M 199.750 127.080 C 198.113 128.034, 198 132.152, 198 191.050 L 198 254 183.934 254 C 169.308 254, 166 254.738, 166 258 C 166 261.750, 168.791 262.037, 202.601 261.764 C 232.469 261.523, 235.378 261.349, 236.386 259.750 C 237.190 258.475, 237.191 257.525, 236.387 256.250 C 235.433 254.736, 233.314 254.463, 220.643 254.223 L 206 253.947 206 192.196 C 206 137.925, 205.811 130.176, 204.443 128.223 C 202.702 125.736, 202.248 125.625, 199.750 127.080 M 46.752 161.248 L 74 188.495 101.248 161.248 L 128.495 134 74 134 L 19.505 134 46.752 161.248 M 14 194 L 14 248.495 41.248 221.248 L 68.495 194 41.248 166.752 L 14 139.505 14 194 M 106.498 167.002 L 79.509 194.005 106.755 221.250 L 134 248.495 134 194.248 C 134 164.411, 133.884 140, 133.743 140 C 133.602 140, 121.341 152.151, 106.498 167.002 M 46.500 227 L 19.514 254 74 254 L 128.486 254 101.500 227 C 86.658 212.150, 74.283 200, 74 200 C 73.717 200, 61.342 212.150, 46.500 227 " stroke="none" fill="black" fill-rule="evenodd"/>
</svg>