<svg xmlns="http://www.w3.org/2000/svg" width="276" height="324" viewBox="0 0 276 324" version="1.1">
	<path d="M 35.045 127.092 C 24.744 129.112, 14.837 136.518, 10.151 145.705 C 7.418 151.062, 5.668 161.129, 6.945 164.147 C 7.492 165.441, 8.820 170.325, 9.895 175 C 15.658 200.055, 28.427 222.633, 46.717 240.107 C 55.956 248.934, 71.176 260, 74.078 260 C 76.541 260, 93.157 247.871, 101.374 240.074 C 118.435 223.886, 131.251 201.675, 137.721 177.085 C 142.272 159.784, 140.418 148.131, 131.545 138.261 C 116.054 121.032, 88.355 123.227, 76.005 142.662 L 73.360 146.824 71.503 143.377 C 69.181 139.064, 62.418 132.764, 57.318 130.162 C 55.183 129.073, 50.781 127.691, 47.535 127.091 C 40.969 125.877, 41.243 125.877, 35.045 127.092 M 31.054 135.728 C 24.820 137.929, 17.726 145.300, 15.557 151.828 C 14.045 156.381, 13.979 157.954, 15.032 164.270 C 20.746 198.525, 39.651 228.764, 67.165 247.660 L 73.830 252.237 81.654 246.869 C 91.636 240.019, 104.997 226.670, 111.815 216.732 C 122.428 201.263, 131.249 178.930, 132.635 164.020 C 134.570 143.192, 115.675 128.780, 95.463 135.667 C 86.088 138.862, 78 149.949, 78 159.607 C 78 162.970, 75.867 166, 73.500 166 C 71.133 166, 69 162.970, 69 159.607 C 69 149.949, 60.912 138.862, 51.537 135.667 C 45.516 133.616, 36.964 133.641, 31.054 135.728 M 167.571 159.571 C 165.215 161.927, 165.215 210.073, 167.571 212.429 C 168.436 213.293, 169.529 214, 170 214 C 170.471 214, 171.564 213.293, 172.429 212.429 C 174.785 210.073, 174.785 161.927, 172.429 159.571 C 171.564 158.707, 170.471 158, 170 158 C 169.529 158, 168.436 158.707, 167.571 159.571 M 199.571 159.571 C 197.215 161.927, 197.215 210.073, 199.571 212.429 C 200.436 213.293, 201.529 214, 202 214 C 202.471 214, 203.564 213.293, 204.429 212.429 C 206.785 210.073, 206.785 161.927, 204.429 159.571 C 203.564 158.707, 202.471 158, 202 158 C 201.529 158, 200.436 158.707, 199.571 159.571 M 231.571 159.571 C 229.215 161.927, 229.215 210.073, 231.571 212.429 C 232.436 213.293, 233.529 214, 234 214 C 234.471 214, 235.564 213.293, 236.429 212.429 C 238.785 210.073, 238.785 161.927, 236.429 159.571 C 235.564 158.707, 234.471 158, 234 158 C 233.529 158, 232.436 158.707, 231.571 159.571 M 167.571 222.571 C 166.707 223.436, 166 224.529, 166 225 C 166 225.471, 166.707 226.564, 167.571 227.429 C 168.436 228.293, 169.529 229, 170 229 C 170.471 229, 171.564 228.293, 172.429 227.429 C 173.293 226.564, 174 225.471, 174 225 C 174 224.529, 173.293 223.436, 172.429 222.571 C 171.564 221.707, 170.471 221, 170 221 C 169.529 221, 168.436 221.707, 167.571 222.571 M 199.571 222.571 C 198.707 223.436, 198 224.529, 198 225 C 198 225.471, 198.707 226.564, 199.571 227.429 C 200.436 228.293, 201.529 229, 202 229 C 202.471 229, 203.564 228.293, 204.429 227.429 C 205.293 226.564, 206 225.471, 206 225 C 206 224.529, 205.293 223.436, 204.429 222.571 C 203.564 221.707, 202.471 221, 202 221 C 201.529 221, 200.436 221.707, 199.571 222.571 M 231.571 222.571 C 230.707 223.436, 230 224.529, 230 225 C 230 225.471, 230.707 226.564, 231.571 227.429 C 232.436 228.293, 233.529 229, 234 229 C 234.471 229, 235.564 228.293, 236.429 227.429 C 237.293 226.564, 238 225.471, 238 225 C 238 224.529, 237.293 223.436, 236.429 222.571 C 235.564 221.707, 234.471 221, 234 221 C 233.529 221, 232.436 221.707, 231.571 222.571 " stroke="none" fill="black" fill-rule="evenodd"/>
</svg>