<svg xmlns="http://www.w3.org/2000/svg" width="148" height="324" viewBox="0 0 148 324" version="1.1">
	<path d="M 72.316 62.784 C 70.369 64.022, 54.007 97.855, 54.604 99.410 C 55.450 101.615, 58.110 102.210, 59.895 100.594 C 60.778 99.795, 64.185 93.709, 67.467 87.070 C 70.748 80.432, 73.687 75, 73.997 75 C 74.308 75, 77.453 80.837, 80.986 87.972 C 84.520 95.106, 88.050 101.189, 88.832 101.489 C 90.716 102.212, 93 100.227, 93 97.866 C 93 95.626, 77.264 63.831, 75.628 62.765 C 74.214 61.845, 73.789 61.847, 72.316 62.784 M 64.500 126.944 C 48.438 129.544, 38.175 134.825, 26.498 146.500 C 13.978 159.017, 8.459 170.637, 6.503 188.598 C 5.964 193.549, 6.150 195.007, 7.491 196.348 C 10.992 199.850, 14 196.834, 14 189.823 C 14 170.477, 28.353 148.923, 47.122 140.086 C 51.730 137.916, 56.995 135.841, 58.823 135.475 L 62.146 134.809 56.996 141.155 C 50.655 148.968, 42.800 164.974, 40.388 175 C 37.838 185.595, 38.069 202.856, 40.902 213.500 C 45.211 229.687, 53.798 244.056, 65.656 254.922 C 72.610 261.294, 75.276 262.154, 77.398 258.712 C 78.339 257.185, 77.507 256.034, 71.718 250.846 C 61.052 241.288, 53.645 229.828, 48.816 215.414 C 46.805 209.410, 46.500 206.526, 46.500 193.500 C 46.500 180.474, 46.805 177.590, 48.816 171.586 C 53.240 158.382, 60.775 146.150, 69.360 138.236 C 72.925 134.950, 74.734 134, 77.428 134 C 83.674 134, 91.352 136.110, 99.820 140.153 C 109.977 145.002, 119.912 154.325, 125.340 164.101 C 129.365 171.350, 133 183.919, 133 190.589 C 133 194.479, 134.839 198, 136.871 198 C 140.488 198, 141.008 188.260, 138.014 176.556 C 135.002 164.779, 129.769 155.793, 120.433 146.367 C 113.680 139.549, 110.828 137.488, 102.933 133.719 C 97.745 131.242, 91.475 128.743, 89 128.165 C 82.400 126.623, 70.232 126.016, 64.500 126.944 M 84.764 158.974 C 79.141 160.712, 75.139 164.079, 72.571 169.234 C 71.157 172.071, 70 175.397, 70 176.625 C 70 178.848, 72.355 182, 74.015 182 C 75.484 182, 78 177.693, 78 175.177 C 78 173.807, 79.440 171.360, 81.400 169.400 C 84.278 166.522, 85.504 166, 89.384 166 C 93.036 166, 94.632 166.593, 97.234 168.918 C 100.194 171.563, 100.500 172.367, 100.500 177.500 C 100.500 182.633, 100.194 183.437, 97.234 186.082 C 95.438 187.687, 92.883 189, 91.556 189 C 87.018 189, 86 191.291, 86 201.500 C 86 208.673, 86.367 211.224, 87.571 212.429 C 91.207 216.064, 93 213.251, 93 203.908 C 93 196.553, 93.109 196.190, 95.482 195.594 C 98.987 194.714, 105.050 189.124, 106.649 185.298 C 108.268 181.424, 108.406 174.205, 106.936 170.315 C 105.657 166.929, 101.434 162.304, 98 160.529 C 94.518 158.729, 88.024 157.966, 84.764 158.974 M 87.616 222.527 C 86.727 223.416, 86 224.529, 86 225 C 86 226.389, 89.140 229.120, 90.295 228.735 C 92.395 228.035, 93.549 225.094, 92.423 223.310 C 90.905 220.902, 89.474 220.669, 87.616 222.527 " stroke="none" fill="black" fill-rule="evenodd"/>
</svg>