<svg xmlns="http://www.w3.org/2000/svg" width="180" height="324" viewBox="0 0 180 324" version="1.1">
	<path d="M 72.316 62.784 C 70.369 64.022, 54.007 97.855, 54.604 99.410 C 55.269 101.144, 57.524 102.120, 59.295 101.440 C 60.007 101.167, 63.480 95.106, 67.014 87.972 C 70.547 80.837, 73.691 75, 74 75 C 74.309 75, 77.453 80.837, 80.986 87.972 C 84.520 95.106, 87.993 101.167, 88.705 101.440 C 90.476 102.120, 92.731 101.144, 93.396 99.410 C 93.993 97.855, 77.631 64.022, 75.684 62.784 C 74.206 61.844, 73.794 61.844, 72.316 62.784 M 7.571 127.571 C 6.175 128.968, 6 136.372, 6 194 C 6 251.628, 6.175 259.032, 7.571 260.429 C 8.968 261.825, 16.372 262, 74 262 C 131.628 262, 139.032 261.825, 140.429 260.429 C 141.825 259.032, 142 251.628, 142 194 C 142 136.372, 141.825 128.968, 140.429 127.571 C 139.032 126.175, 131.628 126, 74 126 C 16.372 126, 8.968 126.175, 7.571 127.571 M 14 194 L 14 254 74 254 L 134 254 134 194 L 134 134 74 134 L 14 134 14 194 M 167.571 191.571 C 166.707 192.436, 166 193.529, 166 194 C 166 194.471, 166.707 195.564, 167.571 196.429 C 168.436 197.293, 169.529 198, 170 198 C 170.471 198, 171.564 197.293, 172.429 196.429 C 173.293 195.564, 174 194.471, 174 194 C 174 193.529, 173.293 192.436, 172.429 191.571 C 171.564 190.707, 170.471 190, 170 190 C 169.529 190, 168.436 190.707, 167.571 191.571 " stroke="none" fill="black" fill-rule="evenodd"/>
</svg>