<svg xmlns="http://www.w3.org/2000/svg" width="212" height="324" viewBox="0 0 212 324" version="1.1">
	<path d="M 72.372 62.751 C 70.408 64.054, 54.005 97.849, 54.593 99.381 C 55.268 101.141, 57.513 102.124, 59.295 101.440 C 60.007 101.167, 63.480 95.106, 67.014 87.972 C 70.547 80.837, 73.691 75, 74 75 C 74.309 75, 77.453 80.837, 80.986 87.972 C 84.520 95.106, 87.993 101.167, 88.705 101.440 C 90.478 102.121, 92.731 101.144, 93.398 99.406 C 94.127 97.506, 76.754 62.573, 74.920 62.251 C 74.139 62.114, 72.992 62.339, 72.372 62.751 M 7.571 127.571 C 6.175 128.968, 6 136.372, 6 194 C 6 251.628, 6.175 259.032, 7.571 260.429 C 8.968 261.825, 16.406 262, 74.371 262 C 123.771 262, 139.891 261.709, 140.800 260.800 C 141.681 259.919, 142 251.422, 142 228.800 L 142 198 167.750 198.017 L 193.500 198.035 180.250 211.132 C 172.963 218.335, 167 224.987, 167 225.914 C 167 227.773, 168.846 230, 170.385 230 C 172.047 230, 206 195.680, 206 194 C 206 192.320, 172.047 158, 170.385 158 C 168.896 158, 167 160.204, 167 161.937 C 167 162.782, 172.956 169.442, 180.236 176.737 L 193.472 190 167.736 190 L 142 190 142 159.200 C 142 136.578, 141.681 128.081, 140.800 127.200 C 139.891 126.291, 123.771 126, 74.371 126 C 16.406 126, 8.968 126.175, 7.571 127.571 M 14 194 L 14 254 74 254 L 134 254 134 226 L 134 198 103.571 198 C 77.242 198, 72.931 197.788, 71.571 196.429 C 70.707 195.564, 70 194.471, 70 194 C 70 193.529, 70.707 192.436, 71.571 191.571 C 72.931 190.212, 77.242 190, 103.571 190 L 134 190 134 162 L 134 134 74 134 L 14 134 14 194 " stroke="none" fill="black" fill-rule="evenodd"/>
</svg>