<svg xmlns="http://www.w3.org/2000/svg" width="276" height="324" viewBox="0 0 276 324" version="1.1">
	<path d="M 7.571 127.571 C 6.175 128.968, 6 136.372, 6 194 C 6 251.628, 6.175 259.032, 7.571 260.429 C 8.436 261.293, 9.666 262, 10.305 262 C 12.018 262, 78 195.721, 78 194 C 78 192.279, 12.018 126, 10.305 126 C 9.666 126, 8.436 126.707, 7.571 127.571 M 199.571 127.571 C 198.175 128.968, 198 136.372, 198 194 C 198 251.628, 198.175 259.032, 199.571 260.429 C 200.936 261.793, 205.463 262, 234 262 C 262.537 262, 267.064 261.793, 268.429 260.429 C 269.293 259.564, 270 258.471, 270 258 C 270 257.529, 269.293 256.436, 268.429 255.571 C 267.069 254.212, 262.758 254, 236.429 254 L 206 254 206 191.571 C 206 136.152, 205.824 128.966, 204.429 127.571 C 203.564 126.707, 202.471 126, 202 126 C 201.529 126, 200.436 126.707, 199.571 127.571 M 14 194 L 14 248.495 41.248 221.248 L 68.495 194 41.248 166.752 L 14 139.505 14 194 M 130.223 159.012 C 119.933 161.160, 109.981 169.443, 105.216 179.825 C 103.092 184.453, 102.610 186.998, 102.606 193.623 C 102.601 200.746, 102.994 202.545, 105.800 208.245 C 109.618 216.001, 115.965 222.176, 123.825 225.784 C 131.894 229.488, 143.106 229.488, 151.175 225.784 C 159.035 222.176, 165.382 216.001, 169.200 208.245 C 172.016 202.526, 172.400 200.755, 172.400 193.500 C 172.400 186.245, 172.016 184.474, 169.200 178.755 C 161.955 164.039, 145.665 155.788, 130.223 159.012 M 231.282 175.282 C 221.777 184.787, 214 193.210, 214 194 C 214 195.693, 248.031 230, 249.710 230 C 251.173 230, 254 227.200, 254 225.751 C 254 225.143, 247.156 217.750, 238.792 209.323 L 223.584 194 238.792 178.677 C 247.156 170.250, 254 162.857, 254 162.249 C 254 160.800, 251.173 158, 249.710 158 C 249.079 158, 240.787 165.777, 231.282 175.282 M 128.500 167.227 C 123.591 168.977, 117.568 173.567, 114.804 177.663 C 111.063 183.207, 109.723 188.353, 110.195 195.349 C 111.162 209.654, 121.349 219.839, 135.659 220.805 C 147.145 221.581, 157.485 215.690, 162.523 205.500 C 165.292 199.897, 165.292 187.103, 162.523 181.500 C 159.688 175.767, 152.795 169.459, 147.329 167.597 C 142.052 165.798, 133.007 165.621, 128.500 167.227 M 135.571 191.571 C 134.707 192.436, 134 193.529, 134 194 C 134 194.471, 134.707 195.564, 135.571 196.429 C 136.436 197.293, 137.529 198, 138 198 C 138.471 198, 139.564 197.293, 140.429 196.429 C 141.293 195.564, 142 194.471, 142 194 C 142 193.529, 141.293 192.436, 140.429 191.571 C 139.564 190.707, 138.471 190, 138 190 C 137.529 190, 136.436 190.707, 135.571 191.571 " stroke="none" fill="black" fill-rule="evenodd"/>
</svg>