<svg xmlns="http://www.w3.org/2000/svg" width="308" height="324" viewBox="0 0 308 324" version="1.1">
	<path d="M 40.316 62.784 C 38.369 64.022, 22.007 97.855, 22.604 99.410 C 23.269 101.144, 25.524 102.120, 27.295 101.440 C 28.007 101.167, 31.480 95.106, 35.014 87.972 C 38.547 80.837, 41.691 75, 42 75 C 42.309 75, 45.453 80.837, 48.986 87.972 C 52.520 95.106, 56.076 101.199, 56.889 101.511 C 57.701 101.823, 59.219 101.225, 60.261 100.183 C 62.121 98.324, 61.994 97.966, 53.456 80.894 C 44.033 62.053, 43.222 60.935, 40.316 62.784 M 223.531 127.056 C 194.964 131.492, 173.014 152.713, 167.390 181.334 L 165.687 190 135.415 190 C 109.228 190, 104.931 190.212, 103.571 191.571 C 101.598 193.545, 101.598 194.455, 103.571 196.429 C 104.931 197.788, 109.242 198, 135.571 198 L 166 198 166 228.800 C 166 251.422, 166.319 259.919, 167.200 260.800 C 168.109 261.709, 184.200 262, 233.500 262 C 282.800 262, 298.891 261.709, 299.800 260.800 C 301.363 259.237, 301.466 198.541, 299.926 187.322 C 297.549 170.012, 291.149 156.914, 279.468 145.448 C 264.978 131.225, 243.070 124.022, 223.531 127.056 M 218.072 135.532 C 215.086 136.367, 209.686 138.482, 206.072 140.232 C 197.063 144.594, 184.497 157.095, 180.125 166.045 C 176.536 173.392, 174.030 181.880, 174.012 186.750 L 174 190 199.236 190 L 224.472 190 211.236 176.737 C 203.956 169.442, 198 162.708, 198 161.772 C 198 160.836, 198.954 159.560, 200.120 158.936 C 202.049 157.903, 203.785 159.313, 219.471 174.651 C 232.692 187.578, 236.703 192.082, 236.703 194 C 236.703 195.918, 232.692 200.422, 219.471 213.349 C 203.785 228.687, 202.049 230.097, 200.120 229.064 C 198.954 228.440, 198 227.164, 198 226.228 C 198 225.292, 203.956 218.558, 211.236 211.263 L 224.472 198 198.736 198 L 173 198 173 226 L 173 254 233.601 254 L 294.203 254 293.723 221.250 C 293.191 184.884, 292.525 179.824, 286.657 167.529 C 282.020 157.811, 275.346 150.045, 266.617 144.206 C 255.830 136.992, 248.918 134.846, 235 134.390 C 226.770 134.121, 221.957 134.445, 218.072 135.532 M 33.384 159.357 C 15.361 163.923, 3.562 181.820, 6.987 199.396 C 9.885 214.269, 20.376 224.886, 35.198 227.944 C 50.783 231.161, 68.362 221.340, 74.002 206.266 C 76.889 198.550, 76.845 188.335, 73.893 180.443 C 68.130 165.041, 49.410 155.297, 33.384 159.357 M 31.054 167.728 C 25.018 169.859, 17.781 177.260, 15.667 183.463 C 9.189 202.476, 21.963 221, 41.552 221 C 56.843 221, 69 208.819, 69 193.500 C 69 182.038, 61.486 171.200, 50.965 167.488 C 45.610 165.598, 36.784 165.705, 31.054 167.728 " stroke="none" fill="black" fill-rule="evenodd"/>
</svg>