<svg xmlns="http://www.w3.org/2000/svg" width="276" height="324" viewBox="0 0 276 324" version="1.1">
	<path d="M 199.571 111.571 C 198.707 112.436, 198 113.659, 198 114.290 C 198 115.969, 232.307 150, 234 150 C 235.693 150, 270 115.969, 270 114.290 C 270 112.827, 267.200 110, 265.751 110 C 265.143 110, 257.750 116.844, 249.323 125.208 L 234 140.416 218.677 125.208 C 210.250 116.844, 202.857 110, 202.249 110 C 201.640 110, 200.436 110.707, 199.571 111.571 M 33.384 159.412 C 15.475 163.758, 3.559 181.807, 6.987 199.396 C 8.500 207.161, 12.212 214.019, 17.580 218.967 C 38.277 238.045, 70.591 227.221, 76.013 199.396 C 79.488 181.565, 67.484 163.676, 49.147 159.360 C 42.397 157.772, 40.111 157.779, 33.384 159.412 M 135.571 159.571 C 134.288 160.855, 134 163.788, 134 175.571 L 134 190 119.571 190 C 107.788 190, 104.855 190.288, 103.571 191.571 C 101.598 193.545, 101.598 194.455, 103.571 196.429 C 104.855 197.712, 107.788 198, 119.571 198 L 134 198 134 212.429 C 134 224.212, 134.288 227.145, 135.571 228.429 C 137.545 230.402, 138.455 230.402, 140.429 228.429 C 141.712 227.145, 142 224.212, 142 212.429 L 142 198 156.429 198 C 168.212 198, 171.145 197.712, 172.429 196.429 C 174.402 194.455, 174.402 193.545, 172.429 191.571 C 171.145 190.288, 168.212 190, 156.429 190 L 142 190 142 175.571 C 142 163.788, 141.712 160.855, 140.429 159.571 C 139.564 158.707, 138.471 158, 138 158 C 137.529 158, 136.436 158.707, 135.571 159.571 M 225.384 159.412 C 207.475 163.758, 195.559 181.807, 198.987 199.396 C 200.500 207.161, 204.212 214.019, 209.580 218.967 C 230.277 238.045, 262.591 227.221, 268.013 199.396 C 271.488 181.565, 259.484 163.676, 241.147 159.360 C 234.397 157.772, 232.111 157.779, 225.384 159.412 M 31.054 167.728 C 25.018 169.859, 17.781 177.260, 15.667 183.463 C 11.995 194.241, 14.382 205.477, 21.952 213.048 C 32.673 223.769, 50.327 223.769, 61.048 213.048 C 71.769 202.327, 71.769 184.673, 61.048 173.952 C 53.519 166.424, 41.696 163.970, 31.054 167.728 M 223.054 167.728 C 217.018 169.859, 209.781 177.260, 207.667 183.463 C 203.995 194.241, 206.382 205.477, 213.952 213.048 C 224.673 223.769, 242.327 223.769, 253.048 213.048 C 263.769 202.327, 263.769 184.673, 253.048 173.952 C 245.519 166.424, 233.696 163.970, 223.054 167.728 M 39.571 191.571 C 38.707 192.436, 38 193.529, 38 194 C 38 195.111, 40.889 198, 42 198 C 43.111 198, 46 195.111, 46 194 C 46 192.889, 43.111 190, 42 190 C 41.529 190, 40.436 190.707, 39.571 191.571 M 231.571 191.571 C 230.707 192.436, 230 193.529, 230 194 C 230 194.471, 230.707 195.564, 231.571 196.429 C 232.436 197.293, 233.529 198, 234 198 C 234.471 198, 235.564 197.293, 236.429 196.429 C 237.293 195.564, 238 194.471, 238 194 C 238 193.529, 237.293 192.436, 236.429 191.571 C 235.564 190.707, 234.471 190, 234 190 C 233.529 190, 232.436 190.707, 231.571 191.571 M 215.282 255.282 C 205.777 264.787, 198 273.079, 198 273.710 C 198 275.173, 200.800 278, 202.249 278 C 202.857 278, 210.250 271.156, 218.677 262.792 L 234 247.584 249.323 262.792 C 257.750 271.156, 265.143 278, 265.751 278 C 267.200 278, 270 275.173, 270 273.710 C 270 272.031, 235.693 238, 234 238 C 233.210 238, 224.787 245.777, 215.282 255.282 M 7.571 255.571 C 6.707 256.436, 6 257.529, 6 258 C 6 258.471, 6.707 259.564, 7.571 260.429 C 8.936 261.793, 13.463 262, 42 262 C 70.537 262, 75.064 261.793, 76.429 260.429 C 77.293 259.564, 78 258.471, 78 258 C 78 257.529, 77.293 256.436, 76.429 255.571 C 75.064 254.207, 70.537 254, 42 254 C 13.463 254, 8.936 254.207, 7.571 255.571 " stroke="none" fill="black" fill-rule="evenodd"/>
</svg>