<svg xmlns="http://www.w3.org/2000/svg" width="403" height="324" viewBox="0 0 403 324" version="1.1">
	<path d="M 64.500 126.944 C 56.325 128.268, 50.930 129.991, 43 133.814 C 32.444 138.903, 18.927 152.404, 13.778 163 C 7.648 175.615, 4.334 193.191, 7.491 196.348 C 9.547 198.404, 10.439 198.418, 12.429 196.429 C 13.404 195.453, 14.006 193.082, 14.015 190.179 C 14.091 166.127, 34.559 141.323, 59.103 135.537 C 79.614 130.703, 100.794 136.651, 115.404 151.351 C 119.422 155.393, 123.931 161.188, 125.780 164.686 C 129.503 171.731, 133 184.277, 133 190.589 C 133 194.479, 134.839 198, 136.871 198 C 140.257 198, 141.072 187.652, 138.490 177.460 C 137.660 174.182, 135.122 167.704, 132.850 163.065 C 125.016 147.065, 107.789 133.061, 90.500 128.638 C 82.849 126.680, 70.928 125.904, 64.500 126.944 M 319.531 127.056 C 296.612 130.614, 278.300 144.503, 268.182 166 C 266.240 170.125, 264.605 173.588, 264.547 173.695 C 264.489 173.803, 261.305 174.390, 257.471 175.001 C 247.067 176.657, 237.099 181.861, 229.663 189.520 C 221.606 197.818, 214.494 201.186, 203.709 201.811 C 193.244 202.416, 185.002 200.151, 176.780 194.408 C 169.646 189.425, 168.519 189.161, 166.946 192.102 C 165.993 193.882, 166.255 194.660, 168.660 197.191 C 172.296 201.016, 178.220 204.498, 185.080 206.844 C 203.025 212.979, 221.865 208.369, 235.445 194.519 C 242.494 187.329, 250.015 183.259, 257.998 182.314 L 262.627 181.766 262.225 190.633 C 260.896 219.948, 279.898 247.857, 307.375 256.946 C 342.790 268.662, 380.114 250.283, 392.321 215.118 C 399.724 193.792, 395.602 169.739, 381.456 151.715 C 367.358 133.753, 341.842 123.592, 319.531 127.056 M 314 135.520 C 297.317 140.089, 283.406 151.616, 275.410 167.498 L 271.886 174.496 277.193 176.084 C 283.034 177.833, 289.970 181.179, 294.128 184.253 L 296.817 186.241 300.201 183.660 C 309.489 176.576, 323.553 173.120, 335.566 174.971 C 343.990 176.269, 354.889 181.390, 361.373 187.097 C 366.456 191.571, 367.114 194.435, 363.500 196.362 C 362.400 196.949, 359.599 198.702, 357.276 200.258 C 341.813 210.615, 324.003 212.381, 308.500 205.095 C 301.886 201.987, 292 194.516, 292 192.626 C 292 190.235, 275.681 182, 270.943 182 C 269.266 182, 268.934 195.681, 270.409 203.972 C 272.678 216.732, 277.517 225.718, 287.406 235.533 C 296.307 244.368, 303.974 248.836, 314.988 251.606 C 323.829 253.829, 340.071 253.068, 348.723 250.024 C 362.832 245.060, 375.471 233.874, 382.082 220.500 C 391.069 202.317, 391.069 184.683, 382.082 166.500 C 375.475 153.133, 362.856 141.961, 348.723 136.966 C 340.518 134.066, 322.108 133.300, 314 135.520 M 315.061 183.972 C 309.025 186.205, 302 190.511, 302 191.978 C 302 193.657, 309.251 197.921, 315.827 200.109 C 327.943 204.141, 344.438 201.495, 353 194.146 L 355.500 192 353 189.854 C 351.625 188.674, 348.025 186.556, 345 185.146 C 337.354 181.584, 323.034 181.023, 315.061 183.972 M 39.267 223.267 C 20.970 241.563, 6 257.056, 6 257.695 C 6 258.334, 6.707 259.564, 7.571 260.429 C 8.968 261.825, 16.372 262, 74 262 C 131.628 262, 139.032 261.825, 140.429 260.429 C 141.293 259.564, 142 258.478, 142 258.015 C 142 256.473, 75.526 189.938, 74.017 189.969 C 73.201 189.986, 57.563 204.970, 39.267 223.267 M 46.500 227 L 19.514 254 74 254 L 128.486 254 101.500 227 C 86.658 212.150, 74.283 200, 74 200 C 73.717 200, 61.342 212.150, 46.500 227 " stroke="none" fill="black" fill-rule="evenodd"/>
</svg>