<svg xmlns="http://www.w3.org/2000/svg" width="308" height="324" viewBox="0 0 308 324" version="1.1">
	<path d="M 222.582 135.274 C 210.462 147.649, 204.782 157.552, 200.299 174.121 C 197.916 182.926, 197.916 204.074, 200.299 212.879 C 204.782 229.448, 210.462 239.351, 222.582 251.726 C 231.923 261.266, 234.955 262.821, 236.948 259.097 C 237.819 257.471, 236.622 255.828, 228.733 247.825 C 218.408 237.350, 213.972 230.556, 209.849 218.905 C 203.940 202.207, 203.947 184.772, 209.871 168.032 C 213.942 156.528, 218.427 149.609, 228.250 139.681 C 233.063 134.817, 237 130.289, 237 129.619 C 237 127.951, 234.914 126, 233.132 126 C 232.324 126, 227.576 130.173, 222.582 135.274 M 262.667 127.667 C 260.922 129.412, 262.679 132.191, 270.795 140.521 C 277.981 147.897, 280.432 151.269, 284.240 159.021 C 290.811 172.395, 292.384 179.057, 292.384 193.500 C 292.384 207.941, 290.813 214.595, 284.237 228 C 280.331 235.961, 278.072 239.028, 270.288 246.936 C 265.180 252.126, 261 256.706, 261 257.115 C 261 258.131, 263.946 261, 264.990 261 C 265.457 261, 268.328 258.863, 271.372 256.250 C 283.138 246.151, 292.694 231.015, 297.234 215.285 C 299.085 208.870, 299.481 205.037, 299.481 193.500 C 299.481 177.274, 297.673 169.271, 291.015 156.030 C 282.853 139.796, 266.699 123.634, 262.667 127.667 M 33.384 159.370 C 15.387 163.885, 3.561 181.817, 6.987 199.396 C 9.925 214.478, 20.711 225.228, 35.616 227.930 C 51.498 230.810, 68.384 221.280, 74.002 206.266 C 76.889 198.550, 76.845 188.335, 73.893 180.443 C 68.147 165.086, 49.423 155.345, 33.384 159.370 M 242.355 158.998 C 232.040 161.143, 222.046 169.099, 217.244 178.987 C 214.948 183.715, 214.567 185.781, 214.567 193.500 C 214.567 201.219, 214.948 203.285, 217.244 208.013 C 220.869 215.478, 227.195 221.667, 234.942 225.326 C 240.419 227.912, 242.517 228.359, 248.942 228.302 C 257.759 228.225, 263.267 226.443, 270.033 221.475 C 288.515 207.909, 288.515 179.091, 270.033 165.525 C 262.036 159.654, 251.336 157.131, 242.355 158.998 M 31.627 167.468 C 26.247 169.386, 21.039 173.829, 17.500 179.519 C 14.741 183.955, 14.500 185.073, 14.500 193.422 C 14.500 201.524, 14.796 203.003, 17.249 207.176 C 22.461 216.043, 31.176 221, 41.552 221 C 52.593 221, 61.089 215.627, 66.080 205.488 C 68.890 199.782, 69.186 198.354, 68.817 192.295 C 68.582 188.431, 67.571 183.775, 66.474 181.500 C 63.729 175.807, 56.825 169.469, 51.329 167.597 C 45.637 165.657, 36.868 165.600, 31.627 167.468 M 237.500 168.353 C 231.873 170.979, 225.871 177.089, 223.378 182.728 C 221.161 187.744, 221.161 199.256, 223.378 204.272 C 229.614 218.381, 246.819 225.041, 260.500 218.642 C 269.989 214.203, 277 203.520, 277 193.500 C 277 183.480, 269.989 172.797, 260.500 168.358 C 253.632 165.146, 244.377 165.144, 237.500 168.353 M 130.355 190.998 C 119.822 193.188, 110.117 201.138, 105.329 211.500 C 101.350 220.111, 101.383 230.888, 105.417 239.734 C 111.923 254.005, 127.915 262.781, 142.498 260.085 C 154.228 257.917, 162.602 252.018, 167.711 242.326 C 173.693 230.980, 173.877 220.691, 168.300 209.540 C 161.600 196.144, 144.886 187.977, 130.355 190.998 M 127.741 199.429 C 121.069 201.810, 115.496 206.917, 112.383 213.500 C 108.075 222.613, 106.263 222, 137.519 222 L 165.038 222 164.392 219.250 C 162.374 210.665, 155.032 202.404, 146.684 199.326 C 142.367 197.734, 132.337 197.789, 127.741 199.429 M 110.442 232.750 C 112.310 240.539, 121.199 249.850, 128.775 251.954 C 144.170 256.230, 159.758 247.790, 164.040 232.861 L 164.860 230 137.322 230 L 109.783 230 110.442 232.750 M 7.585 255.558 C 6.713 256.430, 6 257.529, 6 258 C 6 258.471, 6.713 259.570, 7.585 260.442 C 8.978 261.835, 13.159 261.995, 42.226 261.763 C 72.452 261.523, 75.377 261.350, 76.386 259.750 C 77.191 258.474, 77.191 257.526, 76.386 256.250 C 75.377 254.650, 72.452 254.477, 42.226 254.237 C 13.159 254.005, 8.978 254.165, 7.585 255.558 " stroke="none" fill="black" fill-rule="evenodd"/>
</svg>