<svg xmlns="http://www.w3.org/2000/svg" width="403" height="324" viewBox="0 0 403 324" version="1.1">
	<path d="M 103.571 127.571 C 102.175 128.968, 102 136.372, 102 194 C 102 251.628, 102.175 259.032, 103.571 260.429 C 105.678 262.535, 106.598 262.412, 108.443 259.777 C 109.813 257.823, 110 249.904, 110 194 C 110 138.096, 109.813 130.177, 108.443 128.223 C 106.598 125.588, 105.678 125.465, 103.571 127.571 M 231.750 127.080 C 230.111 128.035, 230 132.293, 230 194.015 C 230 259.587, 230.011 259.935, 232.064 261.034 C 237.084 263.721, 237 264.854, 237 194.078 C 237 123.068, 237.071 123.981, 231.750 127.080 M 295.750 127.080 C 294.207 127.979, 294 129.866, 294 143.050 L 294 158 279.934 158 C 265.308 158, 262 158.738, 262 162 C 262 165.147, 265.234 166, 277.170 166 L 288.472 166 275.236 179.263 C 267.956 186.558, 262 193.292, 262 194.228 C 262 195.164, 262.959 196.443, 264.131 197.070 C 266.073 198.110, 267.495 196.981, 280.131 184.369 L 294 170.527 294 196.263 L 294 222 279.934 222 C 265.308 222, 262 222.738, 262 226 C 262 229.262, 265.308 230, 279.934 230 L 294 230 294 244.965 C 294 259.061, 294.120 259.994, 296.064 261.034 C 300.316 263.310, 301 261.071, 301 244.878 L 301 230 329.500 230 L 358 230 358 244.878 C 358 257.232, 358.269 259.978, 359.584 261.070 C 360.732 262.023, 361.626 262.095, 362.834 261.334 C 364.248 260.444, 364.542 257.994, 364.776 245.168 L 365.052 230.052 380.168 229.776 C 393.293 229.536, 395.430 229.269, 396.387 227.750 C 397.191 226.475, 397.191 225.525, 396.387 224.250 C 395.430 222.730, 393.291 222.464, 380.142 222.224 L 365 221.948 365 196.237 L 365 170.527 379.005 184.505 C 390.959 196.436, 393.266 198.322, 394.755 197.384 C 398.615 194.954, 397.380 192.907, 383.896 179.396 L 370.592 166.065 382.939 165.782 C 393.418 165.543, 395.453 165.235, 396.388 163.750 C 397.190 162.475, 397.190 161.525, 396.387 160.250 C 395.430 158.730, 393.291 158.464, 380.142 158.224 L 365 157.948 365 143.096 C 365 130.766, 364.731 128.022, 363.416 126.930 C 362.269 125.978, 361.373 125.905, 360.166 126.664 C 358.802 127.522, 358.409 130.005, 358 140.374 L 357.500 153.037 344.014 139.518 C 336.597 132.083, 330.077 126, 329.527 126 C 328.976 126, 322.333 132.181, 314.763 139.737 L 301 153.473 301 140.937 C 301 126.708, 300.166 124.508, 295.750 127.080 M 318 146.500 L 306.533 158 329.500 158 L 352.467 158 341 146.500 C 334.693 140.175, 329.518 135, 329.500 135 C 329.482 135, 324.307 140.175, 318 146.500 M 7.571 159.571 C 6.207 160.936, 6 165.463, 6 194 C 6 222.537, 6.207 227.064, 7.571 228.429 C 8.936 229.793, 13.463 230, 42 230 C 70.537 230, 75.064 229.793, 76.429 228.429 C 77.793 227.064, 78 222.537, 78 194 C 78 165.463, 77.793 160.936, 76.429 159.571 C 75.064 158.207, 70.537 158, 42 158 C 13.463 158, 8.936 158.207, 7.571 159.571 M 167.750 159.080 C 166.207 159.979, 166 161.866, 166 175.050 L 166 190 151.571 190 C 139.788 190, 136.855 190.288, 135.571 191.571 C 133.598 193.545, 133.598 194.455, 135.571 196.429 C 136.855 197.712, 139.788 198, 151.571 198 L 166 198 166 212.965 C 166 227.061, 166.120 227.994, 168.064 229.034 C 172.315 231.309, 173 229.069, 173 212.904 L 173 198.052 188.142 197.776 C 201.291 197.536, 203.430 197.270, 204.387 195.750 C 205.191 194.475, 205.191 193.525, 204.387 192.250 C 203.430 190.730, 201.291 190.464, 188.142 190.224 L 173 189.948 173 175.174 C 173 158.586, 172.297 156.432, 167.750 159.080 M 14 194 L 14 222 42 222 L 70 222 70 194 L 70 166 42 166 L 14 166 14 194 M 301 194 L 301 222 329.500 222 L 358 222 358 194 L 358 166 329.500 166 L 301 166 301 194 " stroke="none" fill="black" fill-rule="evenodd"/>
</svg>