<svg xmlns="http://www.w3.org/2000/svg" width="244" height="324" viewBox="0 0 244 324" version="1.1">
	<path d="M 103.627 127.515 C 102.732 128.411, 102 129.529, 102 130 C 102 132.054, 105.416 134, 109.022 134 C 115.685 134, 123.185 136.030, 131.899 140.191 C 142.084 145.054, 152.729 155.129, 157.780 164.686 C 161.503 171.731, 165 184.277, 165 190.589 C 165 194.919, 166.877 198, 169.515 198 C 171.881 198, 174 193.741, 174 188.988 C 174 182.842, 176.414 173.962, 180.241 166.035 C 184.510 157.190, 197.019 144.713, 206.005 140.337 C 213.963 136.462, 223.167 134, 229.694 134 C 234.803 134, 237 132.774, 237 129.922 C 237 126.353, 234.589 125.734, 225.439 126.951 C 210.034 129.001, 197.834 134.751, 187.034 145.050 C 180.459 151.321, 173.745 161.134, 171.278 168.079 L 169.619 172.752 165.394 164.126 C 154.992 142.891, 135.378 129.367, 110.877 126.537 C 106.402 126.020, 104.923 126.220, 103.627 127.515 M 39.571 159.571 C 38.707 160.436, 38 161.529, 38 162 C 38 163.111, 40.889 166, 42 166 C 43.111 166, 46 163.111, 46 162 C 46 160.889, 43.111 158, 42 158 C 41.529 158, 40.436 158.707, 39.571 159.571 M 7.571 191.571 C 6.707 192.436, 6 193.529, 6 194 C 6 194.471, 6.707 195.564, 7.571 196.429 C 8.936 197.793, 13.463 198, 42 198 C 70.537 198, 75.064 197.793, 76.429 196.429 C 77.293 195.564, 78 194.471, 78 194 C 78 193.529, 77.293 192.436, 76.429 191.571 C 75.064 190.207, 70.537 190, 42 190 C 13.463 190, 8.936 190.207, 7.571 191.571 M 39.571 223.571 C 38.707 224.436, 38 225.529, 38 226 C 38 227.111, 40.889 230, 42 230 C 43.111 230, 46 227.111, 46 226 C 46 224.889, 43.111 222, 42 222 C 41.529 222, 40.436 222.707, 39.571 223.571 " stroke="none" fill="black" fill-rule="evenodd"/>
</svg>