<svg xmlns="http://www.w3.org/2000/svg" width="244" height="324" viewBox="0 0 244 324" version="1.1">
	<path d="M 40.316 62.784 C 38.369 64.022, 22.007 97.855, 22.604 99.410 C 23.269 101.144, 25.524 102.120, 27.295 101.440 C 28.007 101.167, 31.480 95.106, 35.014 87.972 C 38.547 80.837, 41.691 75, 42 75 C 42.309 75, 45.453 80.837, 48.986 87.972 C 52.520 95.106, 55.993 101.167, 56.705 101.440 C 58.487 102.124, 60.732 101.141, 61.407 99.381 C 61.997 97.844, 45.582 64.037, 43.628 62.765 C 42.214 61.845, 41.789 61.847, 40.316 62.784 M 33.384 159.412 C 6.324 165.979, -2.761 200.217, 17.580 218.967 C 40.258 239.870, 76.252 224.246, 76.252 193.500 C 76.252 176.888, 65.367 163.178, 49.147 159.360 C 42.397 157.772, 40.111 157.779, 33.384 159.412 M 31.054 167.728 C 25.018 169.859, 17.781 177.260, 15.667 183.463 C 9.189 202.476, 21.963 221, 41.552 221 C 52.593 221, 61.089 215.627, 66.080 205.488 C 68.890 199.782, 69.186 198.354, 68.817 192.295 C 68.317 184.070, 65.991 178.908, 60.280 173.347 C 53.109 166.363, 41.332 164.099, 31.054 167.728 M 39.571 191.571 C 38.707 192.436, 38 193.529, 38 194 C 38 195.111, 40.889 198, 42 198 C 43.111 198, 46 195.111, 46 194 C 46 192.889, 43.111 190, 42 190 C 41.529 190, 40.436 190.707, 39.571 191.571 M 135.200 223.200 C 134.375 224.025, 134 229.022, 134 239.200 L 134 254 119.571 254 C 107.788 254, 104.855 254.288, 103.571 255.571 C 101.598 257.545, 101.598 258.455, 103.571 260.429 C 104.855 261.712, 107.788 262, 119.571 262 L 134 262 134 276.800 C 134 286.978, 134.375 291.975, 135.200 292.800 C 136.657 294.257, 201.652 294.506, 203.932 293.063 C 205.091 292.329, 205.316 289.283, 205.110 277.105 L 204.855 262.053 220.070 261.776 C 233.288 261.536, 235.430 261.270, 236.387 259.750 C 237.191 258.475, 237.191 257.525, 236.387 256.250 C 235.430 254.730, 233.288 254.464, 220.070 254.224 L 204.855 253.947 205.110 238.895 C 205.316 226.717, 205.091 223.671, 203.932 222.937 C 201.652 221.494, 136.657 221.743, 135.200 223.200 M 142 242 L 142 254 170 254 L 198 254 198 242 L 198 230 170 230 L 142 230 142 242 M 142 274 L 142 286 170 286 L 198 286 198 274 L 198 262 170 262 L 142 262 142 274 " stroke="none" fill="black" fill-rule="evenodd"/>
</svg>