<svg xmlns="http://www.w3.org/2000/svg" width="244" height="324" viewBox="0 0 244 324" version="1.1">
	<path d="M 71.571 127.571 C 70.707 128.436, 70.026 129.448, 70.058 129.821 C 70.090 130.195, 84.878 159.975, 102.920 196 L 135.724 261.500 169.612 261.493 C 198.936 261.486, 204.281 261.251, 209.301 259.742 C 217.469 257.288, 220.639 255.459, 225.934 250.146 C 239.854 236.178, 239.782 214.748, 225.766 200.687 C 215.191 190.076, 198.912 187.450, 185.608 194.209 C 179.138 197.495, 172.513 204.474, 169.417 211.266 C 165.383 220.112, 165.350 230.889, 169.329 239.500 C 170.854 242.800, 173.972 247.412, 176.259 249.750 L 180.416 254 160.210 254 L 140.003 254 108.898 191.750 C 91.789 157.512, 77.094 128.713, 76.241 127.750 C 74.332 125.596, 73.576 125.567, 71.571 127.571 M 40.370 190.765 C 38.401 192.045, 6.007 257.855, 6.594 259.384 C 7.265 261.133, 9.512 262.124, 11.274 261.448 C 11.975 261.180, 19.056 247.919, 27.010 231.980 C 34.964 216.041, 41.710 203, 42 203 C 42.290 203, 49.036 216.041, 56.990 231.980 C 64.944 247.919, 72.108 261.211, 72.909 261.519 C 73.711 261.826, 75.218 261.226, 76.259 260.185 C 78.116 258.328, 77.837 257.662, 61.456 224.896 C 46.453 194.886, 43.744 190.031, 42 190.031 C 41.725 190.031, 40.991 190.361, 40.370 190.765 M 191.741 199.429 C 185.069 201.810, 179.496 206.917, 176.383 213.500 C 172.075 222.613, 170.263 222, 201.519 222 L 229.038 222 228.392 219.250 C 226.374 210.665, 219.032 202.404, 210.684 199.326 C 206.367 197.734, 196.337 197.789, 191.741 199.429 M 174.442 232.750 C 176.310 240.539, 185.199 249.850, 192.775 251.954 C 197.724 253.329, 205.893 253.276, 210.101 251.841 C 218.479 248.986, 225.540 241.576, 227.976 233.084 L 228.860 230 201.322 230 L 173.783 230 174.442 232.750 " stroke="none" fill="black" fill-rule="evenodd"/>
</svg>