<svg xmlns="http://www.w3.org/2000/svg" width="308" height="324" viewBox="0 0 308 324" version="1.1">
	<path d="M 35.650 127.077 C 20.150 129.589, 7.411 143.603, 6.912 158.693 C 6.728 164.229, 10.436 179.602, 14.976 192.133 C 18.628 202.212, 26.063 215.568, 33.594 225.579 C 47.004 243.404, 74.270 264.227, 77.454 259.074 C 77.769 258.565, 81.706 255.570, 86.203 252.418 C 112.393 234.066, 132.136 203.704, 138.590 171.852 C 140.892 160.493, 140.145 152.929, 135.945 145.049 C 123.451 121.607, 90.230 120.276, 76.014 142.647 L 73.379 146.793 70.597 142.395 C 63.345 130.933, 49.448 124.841, 35.650 127.077 M 167.750 127.080 C 166.111 128.035, 166 132.293, 166 194.015 C 166 259.587, 166.011 259.935, 168.064 261.034 C 173.084 263.721, 173 264.854, 173 194.078 C 173 123.068, 173.071 123.981, 167.750 127.080 M 295.724 127.134 C 294.119 128.033, 294 132.654, 294 194.015 C 294 256.133, 294.102 259.984, 295.776 260.880 C 296.902 261.483, 298.182 261.478, 299.276 260.866 C 300.881 259.967, 301 255.346, 301 193.985 C 301 131.867, 300.898 128.016, 299.224 127.120 C 298.098 126.517, 296.818 126.522, 295.724 127.134 M 31.748 135.427 C 23.846 138.247, 15.822 147.101, 14.426 154.541 C 13.596 158.967, 16.454 173.491, 20.617 186 C 28.807 210.611, 45.624 232.964, 66.868 247.480 L 73.830 252.237 81.502 246.934 C 106.738 229.488, 125.548 200.517, 131.584 169.798 C 133.614 159.468, 133.025 154.372, 128.987 147.302 C 125.914 141.920, 120.154 137.222, 114.101 135.159 C 108.929 133.396, 99.123 133.761, 94.435 135.890 C 85.573 139.915, 78 150.092, 78 157.974 C 78 161.875, 75.695 166, 73.515 166 C 71.013 166, 69 162.918, 69 159.088 C 69 154.001, 63.752 143.766, 59.235 140.042 C 52.354 134.370, 40.355 132.355, 31.748 135.427 M 231.724 159.134 C 230.212 159.981, 230 161.936, 230 175.050 L 230 190 215.934 190 C 201.308 190, 198 190.738, 198 194 C 198 197.262, 201.308 198, 215.934 198 L 230 198 230 212.965 C 230 226.276, 230.196 228.035, 231.776 228.880 C 232.902 229.483, 234.182 229.478, 235.276 228.866 C 236.788 228.019, 237 226.064, 237 212.950 L 237 198 251.066 198 C 265.692 198, 269 197.262, 269 194 C 269 190.738, 265.692 190, 251.066 190 L 237 190 237 175.035 C 237 161.724, 236.804 159.965, 235.224 159.120 C 234.098 158.517, 232.818 158.522, 231.724 159.134 " stroke="none" fill="black" fill-rule="evenodd"/>
</svg>