<svg xmlns="http://www.w3.org/2000/svg" width="372" height="324" viewBox="0 0 372 324" version="1.1">
	<path d="M 7.571 127.571 C 6.207 128.936, 6 133.463, 6 162 C 6 199.522, 5.654 198, 14.190 198 L 19.237 198 16.059 201.250 C 14.311 203.037, 11.467 207.370, 9.740 210.877 C 6.989 216.464, 6.600 218.277, 6.600 225.500 C 6.600 232.734, 6.988 234.533, 9.762 240.168 C 15.173 251.159, 23.676 257.689, 35.604 260.013 C 48.964 262.617, 63.421 256.279, 70.866 244.556 L 73.500 240.408 76.861 245.563 C 80.577 251.264, 88.752 257.272, 95.387 259.179 C 100.659 260.694, 110.341 260.694, 115.613 259.179 C 122.248 257.272, 130.423 251.264, 134.139 245.563 L 137.500 240.408 140.134 244.556 C 147.593 256.301, 162.311 262.710, 175.604 260 C 190.656 256.932, 201.083 246.432, 204.013 231.396 C 206.022 221.088, 202.249 208.726, 194.756 201.062 L 191.763 198 197.310 198 C 202.753 198, 206 196.412, 206 193.751 C 206 193.143, 199.165 185.759, 190.812 177.343 L 175.623 162.040 182.812 154.626 C 186.765 150.549, 190 146.747, 190 146.178 C 190 144.786, 187.139 142, 185.710 142 C 184.212 142, 150 176.212, 150 177.710 C 150 179.139, 152.786 182, 154.178 182 C 154.747 182, 158.557 178.757, 162.645 174.794 L 170.077 167.588 181.283 178.794 L 192.489 190 135.244 190 L 78 190 78 159.571 C 78 133.242, 77.788 128.931, 76.429 127.571 C 75.064 126.207, 70.537 126, 42 126 C 13.463 126, 8.936 126.207, 7.571 127.571 M 295.250 126.662 C 293.097 127.531, 293.875 130.819, 297.293 135.297 C 303.709 143.703, 305.492 149.289, 305.496 161 C 305.503 179.333, 302.648 183.430, 259.834 226.538 C 243.425 243.059, 230 257.089, 230 257.716 C 230 259.185, 232.807 262, 234.272 262 C 234.892 262, 245.548 251.888, 257.950 239.528 L 280.500 217.056 280.571 225.278 C 280.677 237.629, 284.748 248.287, 292.732 257.125 C 296.618 261.426, 300.462 262.272, 301.484 259.049 C 301.924 257.665, 300.848 255.557, 297.777 251.787 C 290.556 242.921, 288.537 237.191, 288.517 225.500 C 288.488 208.625, 286.832 210.951, 329.129 168.456 C 349.408 148.082, 366 130.902, 366 130.278 C 366 128.812, 363.190 126, 361.725 126 C 361.103 126, 349.632 136.913, 336.234 150.250 C 317.184 169.214, 312.044 173.846, 312.652 171.500 C 313.080 169.850, 313.414 164.900, 313.394 160.500 C 313.341 148.732, 309.354 138.028, 301.831 129.460 C 298.865 126.082, 297.805 125.631, 295.250 126.662 M 14 162 L 14 190 42 190 L 70 190 70 162 L 70 134 42 134 L 14 134 14 162 M 31.605 199.568 C 24.049 202.337, 24.073 202.527, 33.170 211.671 L 41.457 220.001 49.692 211.809 C 58.838 202.711, 58.906 202.178, 51.260 199.573 C 45.620 197.651, 36.842 197.649, 31.605 199.568 M 65.926 200.145 C 67.192 201.325, 69.446 204.211, 70.934 206.557 L 73.640 210.824 75.443 207.476 C 76.435 205.635, 78.594 202.749, 80.242 201.064 L 83.237 198 73.430 198 L 63.623 198 65.926 200.145 M 95.605 199.568 C 88.049 202.337, 88.073 202.527, 97.170 211.671 L 105.457 220.001 113.692 211.809 C 122.838 202.711, 122.906 202.178, 115.260 199.573 C 109.620 197.651, 100.842 197.649, 95.605 199.568 M 129.926 200.145 C 131.192 201.325, 133.446 204.211, 134.934 206.557 L 137.640 210.824 139.443 207.476 C 140.435 205.635, 142.594 202.749, 144.242 201.064 L 147.237 198 137.430 198 L 127.623 198 129.926 200.145 M 159.605 199.568 C 152.049 202.337, 152.073 202.527, 161.170 211.671 L 169.457 220.001 177.692 211.809 C 186.838 202.711, 186.906 202.178, 179.260 199.573 C 173.620 197.651, 164.842 197.649, 159.605 199.568 M 18.184 210.278 C 14.139 215.152, 12.867 227.319, 15.573 235.260 C 18.178 242.906, 18.711 242.838, 27.809 233.692 L 36.001 225.457 27.671 217.170 C 20.854 210.389, 19.131 209.137, 18.184 210.278 M 55.191 217.308 L 46.999 225.543 55.329 233.830 C 64.530 242.983, 64.678 242.998, 67.487 235.038 C 69.439 229.503, 69.415 221.574, 67.427 215.740 C 64.822 208.094, 64.289 208.162, 55.191 217.308 M 82.184 210.278 C 78.139 215.152, 76.867 227.319, 79.573 235.260 C 82.178 242.906, 82.711 242.838, 91.809 233.692 L 100.001 225.457 91.671 217.170 C 84.854 210.389, 83.131 209.137, 82.184 210.278 M 119.191 217.308 L 110.999 225.543 119.329 233.830 C 128.530 242.983, 128.678 242.998, 131.487 235.038 C 133.439 229.503, 133.415 221.574, 131.427 215.740 C 128.822 208.094, 128.289 208.162, 119.191 217.308 M 146.184 210.278 C 142.139 215.152, 140.867 227.319, 143.573 235.260 C 146.178 242.906, 146.711 242.838, 155.809 233.692 L 164.001 225.457 155.671 217.170 C 148.854 210.389, 147.131 209.137, 146.184 210.278 M 183.191 217.308 L 174.999 225.543 183.329 233.830 C 192.530 242.983, 192.678 242.998, 195.487 235.038 C 197.439 229.503, 197.415 221.574, 195.427 215.740 C 192.822 208.094, 192.289 208.162, 183.191 217.308 M 33.170 239.329 C 24.017 248.530, 24.002 248.678, 31.962 251.487 C 37.497 253.439, 45.426 253.415, 51.260 251.427 C 58.906 248.822, 58.838 248.289, 49.692 239.191 L 41.457 230.999 33.170 239.329 M 97.170 239.329 C 88.017 248.530, 88.002 248.678, 95.962 251.487 C 101.497 253.439, 109.426 253.415, 115.260 251.427 C 122.906 248.822, 122.838 248.289, 113.692 239.191 L 105.457 230.999 97.170 239.329 M 161.170 239.329 C 152.017 248.530, 152.002 248.678, 159.962 251.487 C 165.497 253.439, 173.426 253.415, 179.260 251.427 C 186.906 248.822, 186.838 248.289, 177.692 239.191 L 169.457 230.999 161.170 239.329 " stroke="none" fill="black" fill-rule="evenodd"/>
</svg>