<svg xmlns="http://www.w3.org/2000/svg" width="84" height="324" viewBox="0 0 84 324" version="1.1">
	<path d="M 7.571 63.571 C 6.707 64.436, 6 65.332, 6 65.564 C 6 67.123, 23.710 101.058, 24.727 101.449 C 25.427 101.717, 26.573 101.717, 27.273 101.449 C 29.129 100.736, 46.063 66.328, 45.403 64.609 C 44.732 62.858, 42.483 61.877, 40.705 62.560 C 39.993 62.833, 36.520 68.894, 32.986 76.028 C 29.453 83.163, 26.308 89, 25.997 89 C 25.687 89, 22.748 83.534, 19.467 76.853 C 11.925 61.499, 10.847 60.296, 7.571 63.571 M 15.308 199.308 C 10.188 204.427, 6 209.120, 6 209.736 C 6 211.121, 8.789 214, 10.131 214 C 10.675 214, 13.568 211.685, 16.560 208.855 L 22 203.710 22 228.855 L 22 254 15.571 254 C 11.061 254, 8.674 254.469, 7.571 255.571 C 5.598 257.545, 5.598 258.455, 7.571 260.429 C 9.900 262.757, 42.100 262.757, 44.429 260.429 C 46.402 258.455, 46.402 257.545, 44.429 255.571 C 43.326 254.469, 40.939 254, 36.429 254 L 30 254 30 223.571 C 30 197.242, 29.788 192.931, 28.429 191.571 C 27.564 190.707, 26.353 190, 25.736 190 C 25.120 190, 20.427 194.188, 15.308 199.308 M 71.571 255.571 C 70.707 256.436, 70 257.529, 70 258 C 70 259.111, 72.889 262, 74 262 C 75.111 262, 78 259.111, 78 258 C 78 256.889, 75.111 254, 74 254 C 73.529 254, 72.436 254.707, 71.571 255.571 " stroke="none" fill="black" fill-rule="evenodd"/>
</svg>