<svg xmlns="http://www.w3.org/2000/svg" width="68" height="324" viewBox="0 0 68 324" version="1.1">
	<path d="M 7.571 63.571 C 6.707 64.436, 6 65.529, 6 66 C 6 67.111, 8.889 70, 10 70 C 11.111 70, 14 67.111, 14 66 C 14 64.889, 11.111 62, 10 62 C 9.529 62, 8.436 62.707, 7.571 63.571 M 24.200 63.200 C 23.540 63.860, 23 65.206, 23 66.192 C 23 68.779, 39.193 100.860, 40.812 101.481 C 41.560 101.768, 42.758 101.665, 43.474 101.252 C 45.660 99.990, 62.150 66.555, 61.466 64.772 C 60.557 62.404, 57.946 61.738, 56.105 63.406 C 55.222 64.205, 51.815 70.291, 48.533 76.930 C 45.252 83.568, 42.312 89, 42 89 C 41.688 89, 38.748 83.534, 35.467 76.853 C 28.164 61.985, 26.921 60.479, 24.200 63.200 M 39.200 127.200 C 37.294 129.106, 37.773 130.977, 41.149 134.822 C 50.615 145.604, 53.011 164.737, 46.610 178.435 C 45.309 181.221, 41.667 186.650, 38.517 190.500 C 27.430 204.051, 23.431 216.522, 25.222 231.954 C 26.644 244.201, 37.201 261.463, 42.866 260.804 C 46.883 260.337, 46.563 257.663, 41.787 251.799 C 34.418 242.753, 32.507 237.234, 32.507 225 C 32.507 212.155, 34.245 207.635, 43.815 195.598 C 51.708 185.669, 55.556 177.753, 57.109 168.250 C 59.264 155.057, 54.920 139.451, 46.495 130.127 C 42.577 125.790, 41.173 125.227, 39.200 127.200 " stroke="none" fill="black" fill-rule="evenodd"/>
</svg>