<svg xmlns="http://www.w3.org/2000/svg" width="308" height="324" viewBox="0 0 308 324" version="1.1">
	<path d="M 71.571 127.571 C 70.178 128.965, 70 135.897, 70 188.774 L 70 248.405 56.667 235.202 C 49.334 227.941, 42.841 222, 42.239 222 C 40.825 222, 38 224.820, 38 226.232 C 38 226.831, 43.512 232.922, 50.250 239.767 C 61.854 251.556, 62.316 252.178, 59 251.551 C 57.075 251.188, 51.675 249.043, 47 246.786 C 28.415 237.813, 14 216.361, 14 197.677 C 14 194.888, 13.395 192.538, 12.429 191.571 C 10.444 189.587, 9.546 189.597, 7.515 191.627 C 6.224 192.919, 6.019 194.415, 6.522 198.877 C 8.523 216.624, 14.012 228.091, 26.461 240.535 C 36.770 250.839, 45.645 255.881, 58.182 258.555 C 62.207 259.413, 67.300 260.507, 69.500 260.986 C 71.813 261.490, 75.187 261.477, 77.500 260.956 C 79.700 260.460, 84.425 259.509, 88 258.843 C 91.642 258.165, 98.427 255.671, 103.431 253.169 C 114.563 247.606, 125.743 237.013, 131.564 226.513 C 140.894 209.682, 143.164 186.631, 135.064 190.966 C 133.469 191.819, 133 193.049, 133 196.375 C 133 203.078, 129.374 215.635, 125.340 222.899 C 119.901 232.695, 109.975 242.003, 99.820 246.829 C 95.244 249.004, 90.191 251.084, 88.591 251.451 C 85.931 252.061, 86.287 251.450, 92.758 244.309 C 96.649 240.014, 101.896 234.494, 104.417 232.042 C 106.938 229.590, 109 226.867, 109 225.992 C 109 224.222, 107.126 222, 105.633 222 C 105.101 222, 98.666 227.941, 91.333 235.202 L 78 248.405 78 189.425 C 78 137.662, 77.810 130.173, 76.443 128.223 C 74.598 125.588, 73.678 125.465, 71.571 127.571 M 167.750 191.080 C 166.612 191.743, 166 193.321, 166 195.592 C 166 201.211, 168.949 214.046, 171.615 220.035 L 174.080 225.570 171.605 231.167 C 168.813 237.480, 166 249.904, 166 255.923 C 166 258.980, 166.502 260.198, 168.117 261.062 C 171.351 262.793, 172.654 260.620, 173.851 251.500 C 174.428 247.100, 175.659 241.162, 176.585 238.304 L 178.269 233.108 185.502 240.304 C 189.480 244.262, 195.273 249.020, 198.376 250.877 C 211.213 258.563, 226.981 261.920, 241.138 259.981 C 257.006 257.808, 269.073 251.810, 280.697 240.318 L 287.961 233.135 289.985 239.686 C 291.098 243.289, 292.298 249.353, 292.652 253.162 C 293.360 260.785, 295.158 263.067, 298.518 260.611 C 301.225 258.631, 300.035 246.635, 296.013 235.355 C 294.276 230.485, 292.855 226.050, 292.855 225.500 C 292.855 224.950, 294.276 220.515, 296.013 215.645 C 299.832 204.935, 301.118 193.173, 298.691 191.159 C 297.561 190.220, 296.596 190.146, 295.206 190.890 C 293.741 191.674, 293.126 193.466, 292.617 198.436 C 292.249 202.021, 291.052 207.859, 289.955 211.410 L 287.961 217.865 280.702 210.605 C 265.614 195.517, 245.289 188.310, 225.320 190.967 C 209.072 193.130, 197.072 199.069, 185.459 210.699 L 178.271 217.897 176.591 212.699 C 175.667 209.839, 174.442 204.125, 173.869 200 C 172.550 190.516, 171.457 188.921, 167.750 191.080 M 218.072 199.532 C 207.418 202.512, 199.923 206.996, 191.250 215.579 C 186.713 220.069, 183 224.546, 183 225.528 C 183 226.509, 186.713 230.955, 191.250 235.406 C 203.830 247.748, 216.293 253, 233 253 C 247.037 253, 258.343 249.194, 269.587 240.683 C 275.697 236.058, 283 227.752, 283 225.428 C 283 222.743, 273.639 212.903, 266.617 208.206 C 255.830 200.992, 248.918 198.846, 235 198.390 C 226.770 198.121, 221.957 198.445, 218.072 199.532 " stroke="none" fill="black" fill-rule="evenodd"/>
</svg>