<svg xmlns="http://www.w3.org/2000/svg" width="148" height="324" viewBox="0 0 148 324" version="1.1">
	<path d="M 71.550 62.918 C 67.869 68.875, 54.190 98.331, 54.604 99.410 C 55.269 101.144, 57.524 102.120, 59.295 101.440 C 60.007 101.167, 63.480 95.106, 67.014 87.972 C 70.547 80.837, 73.677 75.022, 73.969 75.048 C 74.261 75.074, 77.290 80.868, 80.700 87.922 C 84.109 94.976, 87.654 101.037, 88.576 101.391 C 90.682 102.199, 93 100.352, 93 97.866 C 93 95.626, 77.264 63.831, 75.628 62.765 C 74.071 61.751, 72.229 61.820, 71.550 62.918 M 7.571 127.571 C 6.175 128.968, 6 136.372, 6 194 C 6 251.753, 6.173 259.030, 7.579 260.436 C 8.990 261.847, 16.058 261.987, 74.220 261.757 C 134.934 261.517, 139.356 261.383, 140.386 259.750 C 141.191 258.474, 141.191 257.526, 140.386 256.250 C 139.386 254.663, 136.698 254.475, 111.457 254.234 L 83.631 253.968 96.315 241.148 C 103.905 233.478, 109 227.539, 109 226.364 C 109 224.276, 107.241 222, 105.627 222 C 105.093 222, 98.265 228.335, 90.456 236.078 L 76.256 250.157 74.977 243.379 C 74.244 239.494, 71.807 232.822, 69.267 227.749 C 59.710 208.657, 41.676 194.994, 21.500 191.559 L 14.500 190.368 14 159.146 C 13.579 132.859, 13.263 127.775, 12 126.978 C 9.947 125.681, 9.387 125.756, 7.571 127.571 M 14 226 L 14 254 39.202 254 L 64.405 254 51.202 240.667 C 43.941 233.334, 38 226.841, 38 226.239 C 38 224.825, 40.820 222, 42.232 222 C 42.831 222, 48.933 227.512, 55.791 234.250 C 69.118 247.343, 69.357 247.375, 64.904 235.474 C 58.558 218.511, 41.694 203.733, 23.897 199.537 C 12.926 196.951, 14 194.080, 14 226 " stroke="none" fill="black" fill-rule="evenodd"/>
</svg>