<svg xmlns="http://www.w3.org/2000/svg" width="148" height="324" viewBox="0 0 148 324" version="1.1">
	<path d="M 55.571 63.571 C 54.707 64.436, 54 65.317, 54 65.531 C 54 66.993, 71.421 100.653, 72.488 101.252 C 73.225 101.665, 74.440 101.768, 75.188 101.481 C 76.837 100.849, 93 68.755, 93 66.115 C 93 63.770, 90.710 61.790, 88.832 62.511 C 88.050 62.811, 84.520 68.894, 80.986 76.028 C 77.453 83.163, 74.306 89, 73.994 89 C 73.683 89, 70.969 83.984, 67.964 77.854 C 62.437 66.580, 59.559 62, 57.999 62 C 57.528 62, 56.436 62.707, 55.571 63.571 M 7.627 127.515 C 5.597 129.546, 5.587 130.444, 7.571 132.429 C 8.538 133.395, 10.888 134, 13.677 134 C 31.791 134, 53.739 148.457, 62.330 166.046 C 66.578 174.744, 69 183.494, 69 190.139 C 69 194.922, 70.768 198, 73.515 198 C 75.881 198, 78 193.741, 78 188.988 C 78 182.842, 80.414 173.962, 84.241 166.035 C 88.520 157.169, 101.018 144.691, 110.035 140.282 C 118.117 136.330, 126.824 134, 133.510 134 C 138.790 134, 141 132.797, 141 129.922 C 141 126.416, 138.547 125.730, 130.079 126.870 C 119.811 128.252, 111.135 131.169, 103 135.976 C 91.330 142.871, 79.272 156.834, 75.278 168.079 L 73.619 172.752 69.394 164.126 C 58.992 142.891, 39.378 129.367, 14.877 126.537 C 10.402 126.020, 8.923 126.220, 7.627 127.515 " stroke="none" fill="black" fill-rule="evenodd"/>
</svg>