<svg xmlns="http://www.w3.org/2000/svg" width="148" height="324" viewBox="0 0 148 324" version="1.1">
	<path d="M 72.316 62.784 C 70.369 64.022, 54.007 97.855, 54.604 99.410 C 55.450 101.615, 58.110 102.210, 59.895 100.594 C 60.778 99.795, 64.185 93.709, 67.467 87.070 C 70.748 80.432, 73.687 75, 73.997 75 C 74.308 75, 77.453 80.837, 80.986 87.972 C 84.520 95.106, 88.050 101.189, 88.832 101.489 C 90.716 102.212, 93 100.227, 93 97.866 C 93 95.626, 77.264 63.831, 75.628 62.765 C 74.214 61.845, 73.789 61.847, 72.316 62.784 M 7.627 127.515 C 5.597 129.546, 5.587 130.444, 7.571 132.429 C 8.538 133.395, 10.888 134, 13.677 134 C 31.791 134, 53.739 148.457, 62.330 166.046 C 66.578 174.744, 69 183.494, 69 190.139 C 69 194.922, 70.768 198, 73.515 198 C 75.881 198, 78 193.741, 78 188.988 C 78 182.842, 80.414 173.962, 84.241 166.035 C 88.520 157.169, 101.018 144.691, 110.035 140.282 C 118.117 136.330, 126.824 134, 133.510 134 C 138.790 134, 141 132.797, 141 129.922 C 141 126.416, 138.547 125.730, 130.079 126.870 C 119.811 128.252, 111.135 131.169, 103 135.976 C 91.330 142.871, 79.272 156.834, 75.278 168.079 L 73.619 172.752 69.394 164.126 C 58.992 142.891, 39.378 129.367, 14.877 126.537 C 10.402 126.020, 8.923 126.220, 7.627 127.515 " stroke="none" fill="black" fill-rule="evenodd"/>
</svg>