<svg xmlns="http://www.w3.org/2000/svg" width="308" height="324" viewBox="0 0 308 324" version="1.1">
	<path d="M 159.536 127.055 C 142.549 129.693, 127.930 138.283, 116.779 152.178 C 106.828 164.577, 102.553 176.995, 102.553 193.500 C 102.553 210.065, 106.823 222.417, 116.882 234.950 C 130.157 251.492, 148.140 260.259, 169 260.360 C 181.055 260.419, 187.156 258.964, 199 253.205 C 219.039 243.461, 232.721 224.187, 235.840 201.307 C 237.649 188.036, 234.130 171.604, 226.821 159.191 C 224.994 156.089, 220.085 150.098, 215.911 145.876 C 209.663 139.557, 206.661 137.409, 198.911 133.709 C 193.735 131.238, 187.475 128.743, 185 128.165 C 178.082 126.548, 166.148 126.028, 159.536 127.055 M 154.072 135.591 C 140.454 139.252, 127.030 149.097, 119.028 161.292 C 106.737 180.025, 106.737 206.975, 119.028 225.708 C 127.167 238.111, 140.543 247.823, 154.495 251.457 C 162.057 253.426, 175.869 253.437, 183.540 251.478 C 197.818 247.833, 210.603 238.879, 218.508 226.988 C 223.346 219.710, 227.279 209.874, 228.399 202.250 L 229.024 198 198.712 198 C 176.469 198, 168.081 197.681, 167.200 196.800 C 166.319 195.919, 166 187.422, 166 164.800 L 166 134 162.750 134.066 C 160.963 134.102, 157.057 134.788, 154.072 135.591 M 173 162 L 173 190 201 190 C 222.743 190, 228.996 189.721, 228.983 188.750 C 228.925 184.609, 225.691 173.264, 223.050 167.941 C 216.578 154.898, 207.800 145.947, 195.713 140.066 C 189.337 136.964, 179.358 134, 175.290 134 L 173 134 173 162 M 33.384 159.370 C 15.387 163.885, 3.561 181.817, 6.987 199.396 C 9.885 214.269, 20.376 224.886, 35.198 227.944 C 50.783 231.161, 68.362 221.340, 74.002 206.266 C 76.889 198.550, 76.845 188.335, 73.893 180.443 C 68.147 165.086, 49.423 155.345, 33.384 159.370 M 31.463 167.591 C 17.822 172.435, 10.648 188.393, 15.519 203.058 C 19.042 213.663, 29.687 221, 41.552 221 C 52.593 221, 61.089 215.627, 66.080 205.488 C 68.890 199.782, 69.186 198.354, 68.817 192.295 C 68.582 188.431, 67.571 183.775, 66.474 181.500 C 63.729 175.807, 56.825 169.469, 51.329 167.597 C 45.635 165.656, 36.919 165.654, 31.463 167.591 M 263.750 191.080 C 262.187 191.990, 262 194, 262 209.850 C 262 222.322, 262.357 227.957, 263.200 228.800 C 264.025 229.625, 269.022 230, 279.200 230 L 294 230 294 244.965 C 294 258.276, 294.196 260.035, 295.776 260.880 C 296.902 261.483, 298.182 261.478, 299.276 260.866 C 300.855 259.982, 301 257.053, 301 226 C 301 194.947, 300.855 192.018, 299.276 191.134 C 298.182 190.522, 296.902 190.517, 295.776 191.120 C 294.196 191.965, 294 193.724, 294 207.035 L 294 222 281.500 222 L 269 222 269 207.200 C 269 190.584, 268.299 188.431, 263.750 191.080 M 7.585 255.558 C 6.713 256.430, 6 257.529, 6 258 C 6 258.471, 6.713 259.570, 7.585 260.442 C 8.978 261.835, 13.159 261.995, 42.226 261.763 C 72.452 261.523, 75.377 261.350, 76.386 259.750 C 77.191 258.474, 77.191 257.526, 76.386 256.250 C 75.377 254.650, 72.452 254.477, 42.226 254.237 C 13.159 254.005, 8.978 254.165, 7.585 255.558 " stroke="none" fill="black" fill-rule="evenodd"/>
</svg>