<svg xmlns="http://www.w3.org/2000/svg" width="180" height="324" viewBox="0 0 180 324" version="1.1">
	<path d="M 88.372 62.765 C 86.418 64.037, 70.003 97.844, 70.593 99.381 C 71.268 101.141, 73.513 102.124, 75.295 101.440 C 76.007 101.167, 79.480 95.106, 83.014 87.972 C 86.547 80.837, 89.691 75, 90 75 C 90.309 75, 93.453 80.837, 96.986 87.972 C 100.520 95.106, 103.993 101.167, 104.705 101.440 C 106.487 102.124, 108.732 101.141, 109.407 99.381 C 109.716 98.575, 106.096 90.173, 101.363 80.708 C 93.638 65.261, 91.672 62.031, 90 62.031 C 89.725 62.031, 88.992 62.361, 88.372 62.765 M 103.571 159.571 C 102.245 160.898, 102 164.345, 102 181.699 L 102 202.256 97.750 201.612 C 91.423 200.655, 79.851 194.626, 77.504 191.064 C 70.200 179.983, 49.558 172.318, 34.172 174.974 C 21.318 177.192, 4.416 187.883, 5.188 193.307 C 5.707 196.956, 9.685 196.696, 13.870 192.741 C 22.169 184.898, 31.586 181.546, 43.367 182.241 C 55.664 182.967, 61.841 185.752, 70.520 194.487 C 78.548 202.568, 85.268 206.366, 95.059 208.358 L 101.500 209.667 102 218.873 C 102.363 225.556, 102.911 228.338, 104 229.024 C 104.862 229.567, 119.409 229.976, 138.179 229.985 C 166.567 229.998, 171.063 229.794, 172.429 228.429 C 173.793 227.064, 174 222.537, 174 194 C 174 165.463, 173.793 160.936, 172.429 159.571 C 171.064 158.207, 166.537 158, 138 158 C 109.463 158, 104.936 158.207, 103.571 159.571 M 110 184.079 L 110 202.159 113.250 201.497 C 118.462 200.435, 128.288 195.564, 132.267 192.070 C 136.453 188.395, 140 188.538, 140 192.380 C 140 197.830, 121.411 209, 112.343 209 C 110.126 209, 110 209.349, 110 215.500 L 110 222 138 222 L 166 222 166 194 L 166 166 138 166 L 110 166 110 184.079 " stroke="none" fill="black" fill-rule="evenodd"/>
</svg>