<svg xmlns="http://www.w3.org/2000/svg" width="500" height="324" viewBox="0 0 500 324" version="1.1">
	<path d="M 192.244 175.065 C 185.250 176.290, 175.542 180.817, 170 185.439 C 164.563 189.974, 163.232 192.370, 164.980 194.476 C 166.869 196.752, 168.595 196.353, 172.747 192.681 C 181.753 184.718, 191.051 181.542, 203.454 182.193 C 214.589 182.777, 222.411 186.470, 231.072 195.230 C 242.304 206.591, 256.429 211.388, 271.614 208.998 C 283.858 207.072, 300.513 197.467, 299.805 192.740 C 299.161 188.438, 296.629 188.460, 290.858 192.818 C 282.615 199.041, 276.754 201.285, 267.409 201.793 C 254.100 202.518, 243.651 198.491, 236.054 189.708 C 226.542 178.712, 207.593 172.378, 192.244 175.065 M 7.579 191.564 C 5.598 193.545, 5.596 194.454, 7.571 196.429 C 8.844 197.701, 11.697 198, 22.575 198 L 36.006 198 21.020 227.961 C 12.777 244.439, 6.285 258.580, 6.594 259.384 C 7.265 261.133, 9.512 262.125, 11.274 261.448 C 11.975 261.180, 19.056 247.919, 27.010 231.980 C 34.964 216.041, 41.717 203, 42.016 203 C 42.315 203, 49.042 216.034, 56.965 231.964 C 64.888 247.894, 71.962 261.155, 72.685 261.433 C 73.408 261.710, 74.573 261.717, 75.274 261.448 C 75.975 261.180, 83.056 247.919, 91.010 231.980 C 98.964 216.041, 105.710 203, 106 203 C 106.290 203, 113.036 216.041, 120.990 231.980 C 128.944 247.919, 136.083 261.201, 136.853 261.497 C 138.718 262.213, 141 260.217, 141 257.871 C 141 256.835, 134.480 242.952, 126.511 227.021 L 112.021 198.056 125.653 197.778 C 137.361 197.539, 139.441 197.253, 140.388 195.750 C 141.191 194.475, 141.190 193.525, 140.386 192.250 C 139.356 190.617, 134.934 190.483, 74.220 190.243 C 16.058 190.013, 8.990 190.153, 7.579 191.564 M 381.500 191.418 C 354.067 196.754, 333.127 217.084, 327.531 243.815 C 325.307 254.439, 325.484 259.654, 328.117 261.062 C 331.328 262.781, 332.564 260.672, 333.826 251.325 C 337.051 227.435, 350.629 209.983, 372.803 201.225 C 378.803 198.856, 380.853 198.576, 392.500 198.540 C 403.626 198.506, 406.484 198.840, 412.326 200.857 C 426.402 205.717, 439.427 216.978, 445.971 229.945 C 448.322 234.601, 452 244.957, 452 246.917 C 452 247.222, 446.209 241.693, 439.131 234.630 C 427.421 222.947, 426.069 221.892, 424.131 222.930 C 422.959 223.557, 422 224.825, 422 225.747 C 422 227.465, 453.046 259.753, 456.310 261.430 C 457.820 262.205, 461.011 259.471, 475.560 244.940 C 485.152 235.360, 493 226.745, 493 225.796 C 493 224.847, 492.060 223.567, 490.911 222.952 C 489.025 221.943, 487.428 223.216, 474.468 236.067 C 460.329 250.084, 460.104 250.255, 459.501 247.399 C 454.641 224.362, 442.280 207.403, 423.500 198.007 C 409.759 191.132, 394.932 188.806, 381.500 191.418 M 60.743 223.500 C 67.750 237.525, 73.715 249, 74 249 C 74.285 249, 80.250 237.525, 87.257 223.500 L 99.995 198 74 198 L 48.005 198 60.743 223.500 M 167.579 255.564 C 166.710 256.432, 166 257.529, 166 258 C 166 258.471, 166.710 259.568, 167.579 260.436 C 168.990 261.847, 176.058 261.987, 234.220 261.757 C 294.934 261.517, 299.356 261.383, 300.386 259.750 C 301.191 258.474, 301.191 257.526, 300.386 256.250 C 299.356 254.617, 294.934 254.483, 234.220 254.243 C 176.058 254.013, 168.990 254.153, 167.579 255.564 " stroke="none" fill="black" fill-rule="evenodd"/>
</svg>