<svg xmlns="http://www.w3.org/2000/svg" width="532" height="324" viewBox="0 0 532 324" version="1.1">
	<path d="M 319.500 127.042 C 293.957 130.927, 272.658 149.621, 264.858 175 C 261.609 185.573, 261.607 201.417, 264.855 212 C 270.400 230.074, 283.188 245.358, 299.560 253.482 C 309.533 258.431, 327.420 262.287, 333.823 260.869 C 335.845 260.421, 340.425 259.509, 344 258.843 C 361.563 255.573, 380.610 240.762, 388.824 223.988 C 394.346 212.711, 396 205.683, 396 193.500 C 396 181.317, 394.346 174.289, 388.824 163.012 C 381.046 147.128, 363.696 133.037, 346.500 128.638 C 338.545 126.602, 326.910 125.915, 319.500 127.042 M 511.235 127.123 C 497.277 129.174, 484.489 135.697, 474.087 146.070 C 463.566 156.563, 456.524 170.843, 454.519 185.750 C 453.868 190.588, 453.604 191, 451.156 191.001 C 446.896 191.002, 436.855 196.398, 432.301 201.134 C 422.366 211.464, 419.577 226.928, 425.361 239.610 C 428.863 247.289, 435.690 254.075, 443.492 257.635 C 451.327 261.209, 461.643 261.367, 470.297 258.046 C 477.397 255.321, 485.594 247.610, 488.949 240.500 C 492.167 233.680, 492.892 222.022, 490.544 214.845 C 486.965 203.904, 478.314 195.293, 467.794 192.202 C 462.090 190.526, 462.003 190.444, 462.001 186.802 C 462.001 184.768, 463.109 179.593, 464.465 175.302 C 471.679 152.471, 492.043 136.169, 515.895 134.132 C 523.995 133.440, 526.540 131.678, 524.394 128.250 C 523.091 126.169, 519.704 125.879, 511.235 127.123 M 313.500 135.893 C 302.823 139.009, 295.044 143.699, 286.993 151.876 C 275.129 163.924, 270 176.487, 270 193.500 C 270 210.512, 275.128 223.074, 286.993 235.125 C 292.286 240.501, 296.590 243.799, 301.587 246.306 C 308.864 249.956, 318.779 253, 323.394 253 L 326 253 326 193.500 L 326 134 322.750 134.071 C 320.962 134.110, 316.800 134.930, 313.500 135.893 M 334 193.500 C 334 244.825, 334.199 253, 335.451 253 C 339.724 253, 348.461 250.361, 355.820 246.847 C 371.079 239.562, 382.717 225.246, 387.003 208.489 C 394.032 181.004, 380.843 152.100, 355.820 140.153 C 348.461 136.639, 339.724 134, 335.451 134 C 334.199 134, 334 142.175, 334 193.500 M 33.384 159.412 C 15.475 163.758, 3.559 181.807, 6.987 199.396 C 10.713 218.519, 28.557 231.395, 46.698 228.051 C 64.470 224.776, 76.252 211.002, 76.252 193.500 C 76.252 176.888, 65.367 163.178, 49.147 159.360 C 42.397 157.772, 40.111 157.779, 33.384 159.412 M 161.384 159.357 C 154.720 161.045, 148.211 164.917, 143.768 169.835 C 140.542 173.406, 139.602 173.844, 133.852 174.458 C 125.830 175.314, 118.884 177.461, 112.500 181.059 C 106.019 184.712, 99.728 191.127, 100.543 193.250 C 101.559 195.900, 104.224 196.233, 106.951 194.051 C 116.414 186.478, 126.089 182, 132.988 182 C 135.831 182, 135.987 182.187, 135.287 184.750 C 134.873 186.262, 134.572 190.686, 134.617 194.581 C 134.854 215.186, 154.679 231.741, 174.698 228.051 C 184.990 226.155, 195.325 219.390, 199.599 211.752 C 200.191 210.695, 202.917 209.732, 207.303 209.031 C 215.464 207.728, 220.820 205.724, 227.500 201.473 C 235.902 196.128, 237.984 192.278, 233.873 189.690 C 232.602 188.890, 231.271 189.464, 227.803 192.305 C 222.501 196.650, 214.084 200.655, 208.337 201.567 L 204.174 202.228 204.189 194.364 C 204.210 183.318, 201.396 176.236, 194.080 168.920 C 185.351 160.191, 172.699 156.491, 161.384 159.357 M 31.054 167.728 C 25.018 169.859, 17.781 177.260, 15.667 183.463 C 11.995 194.241, 14.382 205.477, 21.952 213.048 C 32.673 223.769, 50.327 223.769, 61.048 213.048 C 71.769 202.327, 71.769 184.673, 61.048 173.952 C 53.519 166.424, 41.696 163.970, 31.054 167.728 M 159.463 167.591 C 157.242 168.380, 153.706 170.442, 151.604 172.175 L 147.783 175.325 153.653 177.450 C 160.940 180.089, 167.228 184.365, 172.732 190.427 C 176.976 195.102, 186.070 200.136, 192.713 201.489 C 195.581 202.072, 195.996 201.863, 196.581 199.535 C 197.640 195.312, 196.523 185.812, 194.459 181.500 C 191.741 175.819, 184.834 169.472, 179.329 167.597 C 173.635 165.656, 164.919 165.654, 159.463 167.591 M 143.194 183.815 C 142.812 184.742, 142.500 189.325, 142.500 194 C 142.500 201.471, 142.833 203.066, 145.249 207.176 C 153.974 222.019, 174.562 225.724, 187.216 214.729 C 192.556 210.089, 192.373 209.122, 185.762 207.035 C 178.301 204.680, 171.021 199.952, 166.658 194.627 C 163.053 190.228, 154.352 184.968, 147.694 183.162 C 144.453 182.283, 143.784 182.380, 143.194 183.815 M 447.885 199.380 C 433.023 204.691, 425.571 222.196, 431.991 236.714 C 436.442 246.779, 444.401 252.129, 455.883 252.774 C 462.995 253.173, 463.931 252.978, 470 249.830 C 480.444 244.411, 485.773 234.629, 484.713 222.821 C 483.772 212.346, 476.582 202.975, 466.684 199.326 C 462.419 197.754, 452.355 197.782, 447.885 199.380 M 7.571 255.571 C 6.707 256.436, 6 257.529, 6 258 C 6 258.471, 6.707 259.564, 7.571 260.429 C 8.936 261.793, 13.463 262, 42 262 C 70.537 262, 75.064 261.793, 76.429 260.429 C 77.293 259.564, 78 258.471, 78 258 C 78 257.529, 77.293 256.436, 76.429 255.571 C 75.064 254.207, 70.537 254, 42 254 C 13.463 254, 8.936 254.207, 7.571 255.571 M 135.571 255.571 C 134.707 256.436, 134 257.529, 134 258 C 134 258.471, 134.707 259.564, 135.571 260.429 C 136.936 261.793, 141.456 262, 169.916 262 C 201.420 262, 202.760 261.922, 204.500 260 C 206.247 258.070, 206.247 257.930, 204.500 256 C 202.760 254.078, 201.420 254, 169.916 254 C 141.456 254, 136.936 254.207, 135.571 255.571 " stroke="none" fill="black" fill-rule="evenodd"/>
</svg>