<svg xmlns="http://www.w3.org/2000/svg" width="436" height="324" viewBox="0 0 436 324" version="1.1">
	<path d="M 311.315 111.213 C 301.792 120.680, 294 129.134, 294 130 C 294 131.680, 327.953 166, 329.615 166 C 331.114 166, 333 163.791, 333 162.036 C 333 161.175, 327.143 154.628, 319.985 147.486 L 306.970 134.500 367.126 134 C 423.013 133.535, 427.361 133.376, 428.386 131.750 C 429.191 130.474, 429.191 129.526, 428.386 128.250 C 427.361 126.624, 423.013 126.465, 367.126 126 L 306.970 125.500 319.985 112.514 C 327.143 105.372, 333 98.825, 333 97.964 C 333 96.209, 331.114 94, 329.615 94 C 329.073 94, 320.838 101.746, 311.315 111.213 M 35.045 127.092 C 24.744 129.112, 14.837 136.518, 10.151 145.705 C 7.578 150.747, 5.616 161.395, 6.828 163.738 C 7.329 164.707, 8.527 169.100, 9.490 173.500 C 14.781 197.683, 25.816 218.363, 43.042 236.382 C 52.341 246.109, 70.580 260, 74.053 260 C 75.188 260, 77.778 258.733, 79.809 257.185 C 81.839 255.636, 86.988 251.763, 91.250 248.578 C 114.809 230.976, 132.816 201.755, 138.913 171.234 C 140.415 163.715, 140.654 160.266, 139.962 156.078 C 138.665 148.229, 134.623 140.745, 128.901 135.601 C 112.881 121.197, 87.491 124.586, 76.005 142.662 L 73.360 146.824 71.503 143.377 C 69.181 139.064, 62.418 132.764, 57.318 130.162 C 55.183 129.073, 50.781 127.691, 47.535 127.091 C 40.969 125.877, 41.243 125.877, 35.045 127.092 M 31.054 135.728 C 24.820 137.929, 17.726 145.300, 15.557 151.828 C 14.045 156.381, 13.979 157.954, 15.032 164.270 C 20.746 198.525, 39.651 228.764, 67.165 247.660 L 73.830 252.237 81.622 246.869 C 106.324 229.847, 125.140 201.233, 131.495 171.022 C 133.741 160.345, 133.447 156.214, 129.940 149.196 C 125.018 139.347, 116.437 134, 105.552 134 C 91.078 134, 80.126 143.563, 78.163 157.916 C 77.355 163.825, 76.081 165.949, 73.321 165.985 C 71.127 166.013, 69 162.874, 69 159.607 C 69 149.949, 60.912 138.862, 51.537 135.667 C 45.516 133.616, 36.964 133.641, 31.054 135.728 M 263.616 159.527 C 262.727 160.416, 262 161.636, 262 162.239 C 262 162.841, 267.941 169.334, 275.202 176.667 L 288.405 190 228.774 190 C 175.897 190, 168.965 190.178, 167.571 191.571 C 165.598 193.545, 165.598 194.455, 167.571 196.429 C 168.965 197.822, 175.897 198, 228.774 198 L 288.405 198 275.202 211.333 C 267.941 218.666, 262 225.159, 262 225.761 C 262 227.200, 264.997 230.172, 266.068 229.795 C 267.353 229.342, 302 194.827, 302 194 C 302 193.173, 267.353 158.658, 266.068 158.205 C 265.608 158.043, 264.505 158.638, 263.616 159.527 M 311.315 239.213 C 301.792 248.680, 294 257.134, 294 258 C 294 259.680, 327.953 294, 329.615 294 C 331.114 294, 333 291.791, 333 290.036 C 333 289.175, 327.143 282.628, 319.985 275.486 L 306.970 262.500 367.126 262 C 423.013 261.535, 427.361 261.376, 428.386 259.750 C 429.191 258.474, 429.191 257.526, 428.386 256.250 C 427.361 254.624, 423.013 254.465, 367.126 254 L 306.970 253.500 319.985 240.514 C 327.143 233.372, 333 226.825, 333 225.964 C 333 224.209, 331.114 222, 329.615 222 C 329.073 222, 320.838 229.746, 311.315 239.213 " stroke="none" fill="black" fill-rule="evenodd"/>
</svg>