<svg xmlns="http://www.w3.org/2000/svg" width="212" height="324" viewBox="0 0 212 324" version="1.1">
	<path d="M 104.372 30.751 C 102.408 32.054, 86.005 65.849, 86.593 67.381 C 87.268 69.141, 89.513 70.124, 91.295 69.440 C 92.007 69.167, 95.480 63.106, 99.014 55.972 C 102.547 48.837, 105.692 43, 106.003 43 C 106.313 43, 109.252 48.432, 112.533 55.070 C 115.815 61.709, 119.222 67.795, 120.105 68.594 C 121.908 70.227, 124.552 69.609, 125.418 67.354 C 126.154 65.435, 108.760 30.581, 106.902 30.251 C 106.131 30.114, 104.992 30.339, 104.372 30.751 M 103.571 95.571 C 102.219 96.924, 102 100.988, 102 124.774 L 102 152.405 88.667 139.202 C 81.334 131.941, 74.841 126, 74.239 126 C 72.798 126, 70 128.832, 70 130.290 C 70 132.012, 104.329 166, 106.069 166 C 107.784 166, 142 131.962, 142 130.257 C 142 128.893, 139.214 126, 137.901 126 C 137.375 126, 130.995 131.822, 123.723 138.937 L 110.500 151.874 110 123.900 C 109.582 100.500, 109.255 95.770, 108 94.978 C 105.946 93.681, 105.387 93.756, 103.571 95.571 M 39.571 159.571 C 38.707 160.436, 38 161.636, 38 162.239 C 38 162.841, 43.941 169.334, 51.202 176.667 L 64.405 190 36.774 190 C 12.988 190, 8.924 190.219, 7.571 191.571 C 5.598 193.545, 5.598 194.455, 7.571 196.429 C 8.924 197.781, 12.988 198, 36.774 198 L 64.405 198 51.202 211.333 C 43.941 218.666, 38 225.159, 38 225.761 C 38 227.187, 40.825 230, 42.257 230 C 44.006 230, 78 195.761, 78 194 C 78 192.239, 44.006 158, 42.257 158 C 41.644 158, 40.436 158.707, 39.571 159.571 M 152.245 175.263 C 142.755 184.743, 134.726 192.804, 134.404 193.175 C 133.438 194.285, 134.790 195.780, 152.646 213.347 C 168.225 228.675, 169.960 230.092, 171.885 229.062 C 173.048 228.439, 174 227.164, 174 226.228 C 174 225.292, 168.044 218.558, 160.764 211.263 L 147.528 198 174.830 198 C 191.737 198, 202.868 197.606, 204.066 196.965 C 205.130 196.395, 206 195.061, 206 194 C 206 192.939, 205.130 191.605, 204.066 191.035 C 202.868 190.394, 191.737 190, 174.830 190 L 147.528 190 160.764 176.737 C 168.044 169.442, 174 162.708, 174 161.772 C 174 160.408, 171.269 157.954, 169.816 158.013 C 169.642 158.020, 161.735 165.782, 152.245 175.263 M 87.282 239.282 C 77.777 248.787, 70 257.079, 70 257.710 C 70 259.168, 72.798 262, 74.239 262 C 74.841 262, 81.334 256.059, 88.667 248.798 L 102 235.595 102 263.226 C 102 287.012, 102.219 291.076, 103.571 292.429 C 105.387 294.244, 105.946 294.319, 108 293.022 C 109.255 292.230, 109.582 287.498, 110 264.076 L 110.500 236.077 123.812 249.039 C 131.133 256.167, 137.514 262, 137.990 262 C 139.232 262, 142 259.061, 142 257.743 C 142 256.038, 107.784 222, 106.069 222 C 105.241 222, 96.787 229.777, 87.282 239.282 " stroke="none" fill="black" fill-rule="evenodd"/>
</svg>