<svg xmlns="http://www.w3.org/2000/svg" width="244" height="324" viewBox="0 0 244 324" version="1.1">
	<path d="M 33.829 175.066 C 30.710 175.529, 25.219 177.241, 21.626 178.870 C 13.744 182.444, 4.771 190.400, 5.204 193.430 C 5.738 197.166, 9.662 196.567, 14.627 191.990 C 17.111 189.700, 21.699 186.636, 24.822 185.180 C 29.869 182.828, 31.722 182.532, 41.500 182.517 C 51.923 182.501, 52.852 182.672, 59.222 185.788 C 63.802 188.028, 67.277 190.655, 70.122 194.030 C 82.967 209.263, 105.831 213.805, 124.943 204.920 C 137.310 199.170, 142.761 192.748, 137.873 189.685 C 136.605 188.890, 135.264 189.469, 131.803 192.305 C 124.517 198.276, 116.710 201.317, 107.409 201.807 C 93.641 202.534, 84.712 198.951, 75.355 188.948 C 65.106 177.991, 49.427 172.750, 33.829 175.066 M 193.972 191.321 C 182.903 193.781, 174.526 200.543, 169.601 210.993 C 166.977 216.561, 166.535 218.654, 166.535 225.500 C 166.535 232.362, 166.975 234.434, 169.630 240.068 C 182.049 266.424, 218.348 267.462, 231.999 241.851 C 234.727 236.732, 235.438 234.140, 235.788 228.025 C 236.302 219.073, 235.181 214.377, 230.778 207.035 C 223.396 194.726, 208.079 188.187, 193.972 191.321 M 190.373 199.918 C 188.104 200.948, 185.908 202.340, 185.494 203.009 C 185.015 203.785, 187.689 207.174, 192.864 212.349 L 200.985 220.470 209.456 212.044 C 218.853 202.695, 218.927 202.185, 211.260 199.573 C 204.963 197.427, 195.514 197.583, 190.373 199.918 M 175.998 214.226 C 174.491 217.729, 173.750 221.446, 173.750 225.500 C 173.750 231.160, 177.130 242, 178.895 242 C 179.252 242, 183.247 238.278, 187.773 233.729 L 196.001 225.457 187.730 217.229 C 183.180 212.703, 179.186 209, 178.852 209 C 178.519 209, 177.235 211.352, 175.998 214.226 M 214.727 216.772 C 210.477 221.047, 207 224.995, 207 225.546 C 207 226.667, 222.144 242, 223.252 242 C 223.641 242, 224.973 240.088, 226.212 237.750 C 228.008 234.363, 228.465 231.875, 228.465 225.500 C 228.465 219.125, 228.008 216.637, 226.212 213.250 C 224.973 210.912, 223.620 209, 223.206 209 C 222.792 209, 218.976 212.497, 214.727 216.772 M 192.603 238.896 C 187.652 243.876, 185.029 247.238, 185.500 248 C 188.250 252.449, 202.714 254.424, 211.038 251.487 C 218.998 248.678, 218.983 248.530, 209.830 239.329 C 205.273 234.748, 201.299 231, 200.999 231 C 200.699 231, 196.921 234.553, 192.603 238.896 " stroke="none" fill="black" fill-rule="evenodd"/>
</svg>