<svg xmlns="http://www.w3.org/2000/svg" width="180" height="324" viewBox="0 0 180 324" version="1.1">
	<path d="M 7.571 127.571 C 6.175 128.968, 6 136.372, 6 194 C 6 251.628, 6.175 259.032, 7.571 260.429 C 8.936 261.793, 13.463 262, 42 262 C 70.537 262, 75.064 261.793, 76.429 260.429 C 78.402 258.455, 78.402 257.545, 76.429 255.571 C 75.069 254.212, 70.758 254, 44.429 254 L 14 254 14 191.571 C 14 136.152, 13.824 128.966, 12.429 127.571 C 11.564 126.707, 10.471 126, 10 126 C 9.529 126, 8.436 126.707, 7.571 127.571 M 39.282 175.282 C 29.777 184.787, 22 193.210, 22 194 C 22 195.693, 56.031 230, 57.710 230 C 59.173 230, 62 227.200, 62 225.751 C 62 225.143, 55.156 217.750, 46.792 209.323 L 31.584 194 46.792 178.677 C 55.156 170.250, 62 162.857, 62 162.249 C 62 160.800, 59.173 158, 57.710 158 C 57.079 158, 48.787 165.777, 39.282 175.282 M 136.370 190.765 C 134.401 192.045, 102.007 257.855, 102.594 259.384 C 103.265 261.133, 105.512 262.124, 107.274 261.448 C 107.975 261.180, 115.056 247.919, 123.010 231.980 C 130.964 216.041, 137.710 203, 138 203 C 138.290 203, 145.036 216.041, 152.990 231.980 C 160.944 247.919, 168.025 261.180, 168.726 261.448 C 170.488 262.124, 172.735 261.133, 173.406 259.384 C 173.993 257.855, 141.599 192.045, 139.630 190.765 C 139.009 190.361, 138.275 190.031, 138 190.031 C 137.725 190.031, 136.991 190.361, 136.370 190.765 " stroke="none" fill="black" fill-rule="evenodd"/>
</svg>