<svg xmlns="http://www.w3.org/2000/svg" width="180" height="324" viewBox="0 0 180 324" version="1.1">
	<path d="M 104.316 62.784 C 102.369 64.022, 86.007 97.855, 86.604 99.410 C 87.269 101.144, 89.524 102.120, 91.295 101.440 C 92.007 101.167, 95.480 95.106, 99.014 87.972 C 102.547 80.837, 105.691 75, 106 75 C 106.309 75, 109.453 80.837, 112.986 87.972 C 116.520 95.106, 119.993 101.167, 120.705 101.440 C 122.476 102.120, 124.731 101.144, 125.396 99.410 C 125.993 97.855, 109.631 64.022, 107.684 62.784 C 106.206 61.844, 105.794 61.844, 104.316 62.784 M 7.571 127.571 C 6.175 128.968, 6 136.372, 6 194 C 6 251.628, 6.175 259.032, 7.571 260.429 C 8.436 261.293, 9.529 262, 10 262 C 10.471 262, 11.564 261.293, 12.429 260.429 C 13.825 259.032, 14 251.628, 14 194 C 14 136.372, 13.825 128.968, 12.429 127.571 C 11.564 126.707, 10.471 126, 10 126 C 9.529 126, 8.436 126.707, 7.571 127.571 M 135.571 159.571 C 134.707 160.436, 134 161.636, 134 162.239 C 134 162.841, 139.941 169.334, 147.202 176.667 L 160.405 190 100.774 190 C 47.897 190, 40.965 190.178, 39.571 191.571 C 37.598 193.545, 37.598 194.455, 39.571 196.429 C 40.965 197.822, 47.897 198, 100.774 198 L 160.405 198 147.202 211.333 C 139.941 218.666, 134 225.159, 134 225.761 C 134 227.187, 136.825 230, 138.257 230 C 140.006 230, 174 195.761, 174 194 C 174 192.239, 140.006 158, 138.257 158 C 137.644 158, 136.436 158.707, 135.571 159.571 " stroke="none" fill="black" fill-rule="evenodd"/>
</svg>