<svg xmlns="http://www.w3.org/2000/svg" width="180" height="324" viewBox="0 0 180 324" version="1.1">
	<path d="M 34.223 127.012 C 23.933 129.160, 13.981 137.443, 9.216 147.825 C 7.092 152.453, 6.610 154.998, 6.606 161.623 C 6.601 168.746, 6.994 170.545, 9.800 176.245 C 13.618 184.001, 19.965 190.176, 27.825 193.784 C 35.894 197.488, 47.106 197.488, 55.175 193.784 C 63.035 190.176, 69.382 184.001, 73.200 176.245 C 76.016 170.526, 76.400 168.755, 76.400 161.500 C 76.400 154.245, 76.016 152.474, 73.200 146.755 C 65.955 132.039, 49.665 123.788, 34.223 127.012 M 103.571 127.571 C 102.175 128.968, 102 136.372, 102 194 C 102 251.628, 102.175 259.032, 103.571 260.429 C 104.936 261.793, 109.463 262, 138 262 C 166.537 262, 171.064 261.793, 172.429 260.429 C 173.825 259.032, 174 251.628, 174 194 C 174 136.372, 173.825 128.968, 172.429 127.571 C 170.455 125.598, 169.545 125.598, 167.571 127.571 C 166.176 128.966, 166 136.152, 166 191.571 L 166 254 138 254 L 110 254 110 191.571 C 110 136.152, 109.824 128.966, 108.429 127.571 C 107.564 126.707, 106.471 126, 106 126 C 105.529 126, 104.436 126.707, 103.571 127.571 M 32.453 135.326 C 17.492 141.091, 10.431 156.170, 15.597 171.329 C 17.470 176.829, 23.813 183.734, 29.500 186.467 C 35.100 189.158, 44.583 189.632, 50.895 187.535 C 56.766 185.585, 63.568 179.476, 66.523 173.500 C 69.292 167.897, 69.292 155.103, 66.523 149.500 C 63.688 143.767, 56.795 137.459, 51.329 135.597 C 45.921 133.754, 36.871 133.624, 32.453 135.326 M 7.571 191.571 C 6.707 192.436, 6 193.640, 6 194.249 C 6 194.857, 12.844 202.250, 21.208 210.677 L 36.416 226 21.208 241.323 C 12.844 249.750, 6 257.143, 6 257.751 C 6 259.181, 8.819 262, 10.249 262 C 10.857 262, 18.250 255.156, 26.677 246.792 L 42 231.584 57.323 246.792 C 65.750 255.156, 73.143 262, 73.751 262 C 75.181 262, 78 259.181, 78 257.751 C 78 257.143, 71.156 249.750, 62.792 241.323 L 47.584 226 62.792 210.677 C 71.156 202.250, 78 194.857, 78 194.249 C 78 192.819, 75.181 190, 73.751 190 C 73.143 190, 65.750 196.844, 57.323 205.208 L 42 220.416 26.677 205.208 C 18.250 196.844, 10.857 190, 10.249 190 C 9.640 190, 8.436 190.707, 7.571 191.571 " stroke="none" fill="black" fill-rule="evenodd"/>
</svg>