<svg xmlns="http://www.w3.org/2000/svg" width="340" height="324" viewBox="0 0 340 324" version="1.1">
	<path d="M 135.550 62.918 C 131.869 68.875, 118.190 98.331, 118.604 99.410 C 119.269 101.144, 121.524 102.120, 123.295 101.440 C 124.007 101.167, 127.480 95.106, 131.014 87.972 C 134.547 80.837, 137.691 75, 138 75 C 138.309 75, 141.453 80.837, 144.986 87.972 C 148.520 95.106, 151.993 101.167, 152.705 101.440 C 154.487 102.124, 156.732 101.141, 157.407 99.381 C 157.997 97.844, 141.582 64.037, 139.628 62.765 C 138.071 61.751, 136.229 61.820, 135.550 62.918 M 71.240 191.268 C 35.358 227.165, 6 257.058, 6 257.696 C 6 259.196, 8.803 262, 10.302 262 C 10.940 262, 39.033 234.442, 72.731 200.761 L 134 139.522 134 164.761 L 134 190 119.200 190 C 109.022 190, 104.025 190.375, 103.200 191.200 C 101.481 192.919, 101.481 259.081, 103.200 260.800 C 104.085 261.685, 113.117 262, 137.629 262 C 166.503 262, 171.063 261.794, 172.429 260.429 C 173.793 259.064, 174 254.537, 174 226 C 174 197.463, 173.793 192.936, 172.429 191.571 C 171.145 190.288, 168.212 190, 156.429 190 L 142 190 142 159.571 C 142 133.242, 141.788 128.931, 140.429 127.571 C 139.564 126.707, 138.322 126, 137.668 126 C 137.014 126, 107.121 155.371, 71.240 191.268 M 199.571 127.571 C 198.175 128.968, 198 136.372, 198 194 C 198 251.628, 198.175 259.032, 199.571 260.429 C 200.436 261.293, 201.529 262, 202 262 C 202.471 262, 203.564 261.293, 204.429 260.429 C 205.825 259.032, 206 251.628, 206 194 C 206 136.372, 205.825 128.968, 204.429 127.571 C 203.564 126.707, 202.471 126, 202 126 C 201.529 126, 200.436 126.707, 199.571 127.571 M 327.750 127.080 C 326.111 128.035, 326 132.293, 326 194.015 C 326 259.587, 326.011 259.935, 328.064 261.034 C 333.084 263.721, 333 264.854, 333 194.078 C 333 123.068, 333.071 123.981, 327.750 127.080 M 263.750 159.080 C 262.207 159.979, 262 161.866, 262 175.050 L 262 190 247.934 190 C 233.308 190, 230 190.738, 230 194 C 230 197.262, 233.308 198, 247.934 198 L 262 198 262 212.965 C 262 227.324, 262.088 227.977, 264.183 229.098 C 266.042 230.093, 266.636 229.933, 268.183 228.022 C 269.744 226.095, 270 223.823, 270 211.916 L 270 198.053 284.643 197.777 C 297.314 197.537, 299.433 197.264, 300.387 195.750 C 301.191 194.475, 301.191 193.525, 300.387 192.250 C 299.433 190.736, 297.314 190.463, 284.643 190.223 L 270 189.947 270 176.196 C 270 165.369, 269.669 161.972, 268.443 160.223 C 266.702 157.736, 266.248 157.625, 263.750 159.080 M 110 226 L 110 254 138 254 L 166 254 166 226 L 166 198 138 198 L 110 198 110 226 " stroke="none" fill="black" fill-rule="evenodd"/>
</svg>