<svg xmlns="http://www.w3.org/2000/svg" width="244" height="324" viewBox="0 0 244 324" version="1.1">
	<path d="M 39.267 159.267 C 20.970 177.563, 6 193.056, 6 193.695 C 6 195.187, 8.799 198, 10.285 198 C 10.913 198, 25.506 183.947, 42.713 166.771 L 74 135.542 105.287 166.771 C 122.494 183.947, 137.064 198, 137.664 198 C 139.588 198, 141.241 195.097, 140.647 192.763 C 139.948 190.014, 76.026 126, 73.981 126 C 73.185 126, 57.563 140.970, 39.267 159.267 M 231.750 127.080 C 230.114 128.033, 230 132.045, 230 188.793 L 230 249.487 200.244 219.744 C 183.878 203.385, 170.185 190, 169.815 190 C 168.716 190, 166 193.051, 166 194.287 C 166 195.713, 232.079 262.006, 233.480 261.985 C 237.089 261.931, 237.085 262.010, 237.021 194.493 C 236.955 123.527, 236.994 124.026, 231.750 127.080 " stroke="none" fill="black" fill-rule="evenodd"/>
</svg>