<svg xmlns="http://www.w3.org/2000/svg" width="308" height="324" viewBox="0 0 308 324" version="1.1">
	<path d="M 195.500 126.926 C 181.279 129.401, 168.570 142.348, 166.444 156.525 C 165.111 165.414, 171.276 188.637, 179.098 204.195 C 185.780 217.484, 192.578 226.769, 203.905 238.076 C 213.166 247.321, 231.140 261, 234.027 261 C 234.519 261, 235.727 260.170, 236.711 259.156 C 237.695 258.141, 241.425 255.375, 245 253.008 C 253.950 247.083, 272.513 228.169, 278.868 218.500 C 288.425 203.959, 295.047 187.932, 298.506 170.968 C 300.613 160.642, 300.049 153.665, 296.529 146.470 C 288.277 129.604, 267.929 121.983, 251.196 129.493 C 245.361 132.111, 237.069 139.455, 234.261 144.492 C 233.650 145.587, 232.987 146.262, 232.788 145.992 C 232.589 145.721, 231.135 143.574, 229.556 141.220 C 222.714 131.016, 207.848 124.776, 195.500 126.926 M 190.363 135.922 C 180.214 140.531, 173.657 150.503, 173.805 161.104 C 173.941 170.879, 179.211 188.548, 186.006 202.013 C 194.395 218.638, 210.807 237.414, 225.728 247.458 L 232.956 252.323 239.996 247.642 C 263.425 232.062, 282.951 204.205, 289.862 176.500 C 293.076 163.615, 293.371 159.790, 291.618 153.759 C 285.697 133.391, 258.912 127.137, 244.773 142.821 C 240.381 147.693, 238.298 152.276, 237.400 159.041 C 236.616 164.952, 234.940 166.749, 231.620 165.237 C 229.782 164.399, 229.175 163.122, 228.697 159.091 C 227.449 148.550, 221.871 140.712, 212.521 136.358 C 206.112 133.373, 196.398 133.182, 190.363 135.922 M 7.498 191.645 C 6.209 192.933, 5.987 194.399, 6.472 198.395 C 7.507 206.919, 9.097 213.215, 11.732 219.214 L 14.241 224.929 11.754 231.214 C 8.962 238.270, 7.365 244.839, 6.439 253.084 C 5.937 257.548, 6.145 259.002, 7.477 260.334 C 10.992 263.850, 14 260.848, 14 253.823 C 14 248.944, 16.293 238.190, 18.021 234.960 C 18.712 233.670, 20.425 234.881, 27.185 241.442 C 40.454 254.317, 54.876 260.262, 73 260.324 C 85.024 260.365, 91.157 258.928, 102.858 253.329 C 110.434 249.703, 113.730 247.359, 120.167 241.016 L 128.118 233.181 129.129 235.838 C 130.974 240.693, 132.970 250.443, 132.985 254.679 C 132.999 258.476, 134.869 262, 136.871 262 C 141.915 262, 140.186 241.126, 134.165 229.324 C 132.222 225.515, 132.222 225.457, 134.161 221.677 C 136.933 216.275, 140 203.595, 140 197.540 C 140 192.878, 138.806 190, 136.871 190 C 134.992 190, 132.999 193.499, 132.985 196.821 C 132.970 200.636, 130.889 210.532, 129.129 215.162 L 128.118 217.819 120.167 209.984 C 113.730 203.641, 110.434 201.297, 102.858 197.671 C 91.050 192.020, 84.914 190.578, 73 190.654 C 54.866 190.769, 40.527 196.691, 27.211 209.564 C 20.048 216.489, 18.740 217.383, 17.944 215.895 C 16.198 212.634, 14 202.581, 14 197.861 C 14 194.905, 13.413 192.556, 12.429 191.571 C 10.440 189.583, 9.546 189.596, 7.498 191.645 M 57.500 199.893 C 45.111 203.509, 33.892 211.036, 25.954 221.058 L 22.835 224.996 24.952 228.423 C 28.370 233.953, 38.663 242.805, 45.932 246.466 C 55.056 251.060, 63.163 253.003, 73.144 252.985 C 89.770 252.956, 103.552 247.376, 115.099 236.001 C 124.697 226.546, 124.804 226.197, 119.979 220.093 C 112.154 210.194, 98.458 201.686, 86.201 199.113 C 78.406 197.476, 64.487 197.855, 57.500 199.893 " stroke="none" fill="black" fill-rule="evenodd"/>
</svg>