<svg xmlns="http://www.w3.org/2000/svg" width="340" height="324" viewBox="0 0 340 324" version="1.1">
	<path d="M 103.627 127.515 C 102.732 128.411, 102 129.529, 102 130 C 102 132.122, 105.426 134.001, 109.321 134.015 C 127.886 134.080, 149.672 148.320, 158.330 166.046 C 162.690 174.975, 165 183.519, 165 190.723 C 165 195.322, 164.008 198.005, 157.515 210.970 C 153.398 219.190, 150.283 226.574, 150.592 227.380 C 151.449 229.612, 154.100 230.219, 155.895 228.594 C 156.778 227.795, 160.185 221.709, 163.467 215.070 C 166.748 208.432, 169.687 203, 169.997 203 C 170.308 203, 173.453 208.837, 176.986 215.972 C 180.520 223.106, 184.050 229.189, 184.832 229.489 C 186.717 230.212, 189 228.227, 189 225.865 C 189 224.826, 185.625 217.236, 181.500 209 C 173.177 192.382, 172.641 189.637, 175.543 178.495 C 181.921 154.011, 206.274 134, 229.694 134 C 234.803 134, 237 132.774, 237 129.922 C 237 126.350, 234.591 125.734, 225.412 126.955 C 210.149 128.986, 196.998 135.298, 186.498 145.632 C 179.947 152.078, 173.676 161.327, 171.278 168.079 L 169.619 172.752 165.394 164.126 C 154.992 142.891, 135.378 129.367, 110.877 126.537 C 106.402 126.020, 104.923 126.220, 103.627 127.515 M 263.585 127.558 C 261.598 129.545, 261.595 130.452, 263.571 132.429 C 264.855 133.712, 267.788 134, 279.571 134 L 294 134 294 194 L 294 254 279.571 254 C 267.788 254, 264.855 254.288, 263.571 255.571 C 261.595 257.548, 261.598 258.455, 263.585 260.442 C 264.978 261.835, 269.159 261.995, 298.226 261.763 C 328.452 261.523, 331.377 261.350, 332.386 259.750 C 333.190 258.475, 333.191 257.525, 332.387 256.250 C 331.430 254.730, 329.291 254.464, 316.142 254.224 L 301 253.948 301 194 L 301 134.052 316.142 133.776 C 329.291 133.536, 331.430 133.270, 332.387 131.750 C 333.191 130.475, 333.190 129.525, 332.386 128.250 C 331.377 126.650, 328.452 126.477, 298.226 126.237 C 269.159 126.005, 264.978 126.165, 263.585 127.558 M 33.384 159.357 C 15.361 163.923, 3.562 181.820, 6.987 199.396 C 9.923 214.467, 20.510 225.032, 35.660 228.013 C 51.142 231.059, 68.292 221.320, 74.072 206.202 C 77.061 198.384, 77.019 188.509, 73.963 180.507 C 68.039 164.996, 49.424 155.293, 33.384 159.357 M 31.054 167.728 C 25.018 169.859, 17.781 177.260, 15.667 183.463 C 11.995 194.241, 14.382 205.477, 21.952 213.048 C 32.402 223.497, 49.888 223.773, 60.280 213.653 C 65.822 208.256, 68.291 202.953, 68.805 195.341 C 69.388 186.717, 67.028 180.189, 61.146 174.150 C 53.627 166.431, 41.848 163.917, 31.054 167.728 M 7.571 255.571 C 6.707 256.436, 6 257.529, 6 258 C 6 258.471, 6.707 259.564, 7.571 260.429 C 8.936 261.793, 13.463 262, 42 262 C 70.537 262, 75.064 261.793, 76.429 260.429 C 77.293 259.564, 78 258.471, 78 258 C 78 257.529, 77.293 256.436, 76.429 255.571 C 75.064 254.207, 70.537 254, 42 254 C 13.463 254, 8.936 254.207, 7.571 255.571 M 130.500 270.655 C 120.946 272.065, 109.763 277.553, 103.655 283.828 C 100.318 287.257, 99.960 288.056, 100.941 289.889 C 102.506 292.814, 104.160 292.544, 108.894 288.589 C 118.725 280.375, 127.053 277.542, 139.454 278.193 C 150.578 278.777, 158.673 282.581, 167.208 291.236 C 180.418 304.630, 198.254 308.824, 216.446 302.812 C 226.270 299.565, 236.531 291.956, 235.838 288.432 C 235.074 284.545, 232.442 284.504, 227.803 288.305 C 216.616 297.472, 201.185 300.467, 188.040 296.022 C 180.453 293.456, 176.862 291.115, 171.766 285.409 C 166.926 279.992, 159.459 275.244, 152.248 273.001 C 146.091 271.085, 135.400 269.931, 130.500 270.655 " stroke="none" fill="black" fill-rule="evenodd"/>
</svg>