<svg xmlns="http://www.w3.org/2000/svg" width="403" height="324" viewBox="0 0 403 324" version="1.1">
	<path d="M 63.870 127.071 C 56.345 128.176, 46.724 131.478, 40 135.262 C 32.923 139.244, 19.244 152.923, 15.262 160 C 0.163 186.829, 4.825 219.861, 26.710 241.125 C 29.895 244.219, 34.969 248.382, 37.987 250.375 L 43.473 254 26.308 254 C 12.037 254, 8.878 254.265, 7.571 255.571 C 5.596 257.546, 5.598 258.455, 7.579 260.436 C 8.990 261.847, 16.058 261.987, 74.220 261.757 C 134.934 261.517, 139.356 261.383, 140.386 259.750 C 141.191 258.474, 141.191 257.526, 140.387 256.250 C 139.413 254.704, 137.140 254.468, 120.895 254.226 L 102.506 253.953 108.003 250.837 C 116.966 245.757, 128.036 233.767, 132.861 223.913 C 138.346 212.711, 140 205.664, 140 193.500 C 140 174.879, 133.913 159.885, 121.121 146.995 C 109.603 135.389, 97.653 129.243, 82.284 127.020 C 74.551 125.902, 71.772 125.910, 63.870 127.071 M 223.536 127.066 C 215.344 128.323, 208.592 130.620, 201.500 134.560 C 185.847 143.256, 174.873 156.529, 169.304 173.500 C 167.060 180.336, 166.678 183.245, 166.678 193.500 C 166.678 203.755, 167.060 206.664, 169.304 213.500 C 172.032 221.815, 177.383 231.661, 181.552 236.039 L 183.969 238.577 175.915 246.539 C 167.066 255.286, 165.727 257.124, 166.581 259.350 C 168.061 263.208, 170.426 262.036, 179.608 252.893 L 188.836 243.702 192.668 246.696 C 202.029 254.010, 211.889 258.119, 224.753 260.068 C 233.690 261.421, 233.434 261.422, 242 260.031 C 257.621 257.496, 269.528 251.531, 280 240.995 C 293.076 227.838, 298.955 214.838, 299.781 197.254 C 300.555 180.760, 297.264 168.813, 288.329 155.677 L 283.687 148.854 292.344 140.157 C 297.105 135.374, 301 130.698, 301 129.765 C 301 128.833, 300.071 127.573, 298.936 126.966 C 297.102 125.984, 295.850 126.860, 287.686 134.830 L 278.500 143.798 274.069 140.364 C 268.349 135.931, 257.012 130.414, 249.933 128.618 C 242.211 126.658, 230.629 125.977, 223.536 127.066 M 359.724 127.134 C 358.212 127.981, 358 129.936, 358 143.050 L 358 158 343.934 158 C 329.308 158, 326 158.738, 326 162 C 326 165.262, 329.308 166, 343.934 166 L 358 166 358 212.965 C 358 256.930, 358.113 259.990, 359.776 260.880 C 360.902 261.483, 362.182 261.478, 363.276 260.866 C 364.870 259.973, 365 256.357, 365 212.950 L 365 166 379.066 166 C 393.692 166, 397 165.262, 397 162 C 397 158.738, 393.692 158, 379.066 158 L 365 158 365 143.035 C 365 129.724, 364.804 127.965, 363.224 127.120 C 362.098 126.517, 360.818 126.522, 359.724 127.134 M 57.500 135.870 C 37.436 141.645, 20.733 158.691, 15.585 178.644 C 13.554 186.517, 13.554 200.483, 15.585 208.356 C 20.838 228.716, 38.284 246.162, 58.644 251.415 C 66.367 253.407, 79.556 253.429, 87.897 251.463 C 108.383 246.634, 126.119 228.764, 131.491 207.540 C 133.425 199.900, 133.422 187.081, 131.485 179.460 C 126.100 158.274, 109.042 140.922, 88.356 135.585 C 80.226 133.488, 65.296 133.625, 57.500 135.870 M 218.072 135.591 C 207.792 138.355, 199.969 143.015, 191.384 151.489 C 178.828 163.883, 173.517 176.803, 173.705 194.500 C 173.776 201.237, 174.451 205.531, 176.389 211.578 C 178.818 219.157, 185.303 230.833, 188.013 232.508 C 188.795 232.992, 196.446 226.042, 209.612 212.888 L 230 192.518 230 163.259 L 230 134 226.750 134.066 C 224.963 134.102, 221.057 134.788, 218.072 135.591 M 237 159.747 L 237 185.493 255.158 167.335 L 273.317 149.176 270.408 146.614 C 266.236 142.937, 252.410 136.351, 246.201 135.083 C 236.051 133.009, 237 130.466, 237 159.747 M 257.226 175.298 L 237 195.611 237 224.306 L 237 253 239.290 253 C 243.117 253, 253.152 250.085, 259.500 247.129 C 272.933 240.874, 285.220 226.729, 290.060 211.950 C 293.535 201.339, 293.537 185.666, 290.064 175.062 C 287.758 168.021, 280.693 155.970, 278.476 155.295 C 277.913 155.124, 268.350 164.125, 257.226 175.298 M 211.671 220.829 L 193.863 238.658 197.541 241.464 C 205.260 247.351, 219.788 253, 227.210 253 L 230 253 230 228 C 230 214.250, 229.883 203, 229.740 203 C 229.596 203, 221.465 211.023, 211.671 220.829 " stroke="none" fill="black" fill-rule="evenodd"/>
</svg>