<svg xmlns="http://www.w3.org/2000/svg" width="308" height="324" viewBox="0 0 308 324" version="1.1">
	<path d="M 55.571 63.571 C 54.707 64.436, 54 65.317, 54 65.531 C 54 66.993, 71.421 100.653, 72.488 101.252 C 73.225 101.665, 74.440 101.768, 75.188 101.481 C 76.837 100.849, 93 68.755, 93 66.115 C 93 63.770, 90.710 61.790, 88.832 62.511 C 88.050 62.811, 84.520 68.894, 80.986 76.028 C 77.453 83.163, 74.306 89, 73.994 89 C 73.683 89, 70.969 83.984, 67.964 77.854 C 62.437 66.580, 59.559 62, 57.999 62 C 57.528 62, 56.436 62.707, 55.571 63.571 M 35.045 127.064 C 19.595 130.192, 7.301 144.028, 6.821 158.824 C 6.644 164.267, 11.379 182.964, 15.864 194.532 C 19.588 204.139, 28.137 218.881, 34.899 227.356 C 49.091 245.144, 74.403 264.011, 77.454 259.074 C 77.769 258.565, 81.706 255.570, 86.203 252.418 C 112.833 233.758, 132.377 203.343, 138.842 170.500 C 141.013 159.468, 140.261 153.146, 135.776 144.731 C 123.450 121.604, 90.124 120.442, 76.014 142.647 L 73.379 146.793 70.597 142.395 C 63.298 130.857, 48.284 124.383, 35.045 127.064 M 31.748 135.427 C 23.566 138.346, 15.839 147.077, 14.518 154.893 C 13.681 159.850, 17.098 176.394, 21.507 188.729 C 29.749 211.789, 46.627 233.650, 66.868 247.480 L 73.830 252.237 81.502 246.934 C 106.693 229.519, 125.566 200.428, 131.602 169.707 C 133.613 159.473, 133.015 154.354, 128.987 147.302 C 125.914 141.920, 120.154 137.222, 114.101 135.159 C 108.929 133.396, 99.123 133.761, 94.435 135.890 C 85.573 139.915, 78 150.092, 78 157.974 C 78 161.875, 75.695 166, 73.515 166 C 71.013 166, 69 162.918, 69 159.088 C 69 154.001, 63.752 143.766, 59.235 140.042 C 52.354 134.370, 40.355 132.355, 31.748 135.427 M 199.750 159.080 C 198.207 159.979, 198 161.866, 198 175.050 L 198 190 183.934 190 C 169.308 190, 166 190.738, 166 194 C 166 197.262, 169.308 198, 183.934 198 L 198 198 198 212.965 C 198 227.061, 198.120 227.994, 200.064 229.034 C 204.316 231.310, 205 229.071, 205 212.878 L 205 198 219.066 198 C 233.692 198, 237 197.262, 237 194 C 237 190.738, 233.692 190, 219.066 190 L 205 190 205 175.200 C 205 158.584, 204.299 156.431, 199.750 159.080 M 263.724 159.134 C 262.161 160.009, 262 162.521, 262 186.015 C 262 209.816, 262.145 212.007, 263.776 212.880 C 264.902 213.483, 266.182 213.478, 267.276 212.866 C 268.839 211.991, 269 209.479, 269 185.985 C 269 162.184, 268.855 159.993, 267.224 159.120 C 266.098 158.517, 264.818 158.522, 263.724 159.134 M 263.724 222.134 C 259.838 224.309, 263.294 229.983, 267.224 227.880 C 268.201 227.357, 269 226.061, 269 225 C 269 222.485, 266.005 220.858, 263.724 222.134 " stroke="none" fill="black" fill-rule="evenodd"/>
</svg>