<svg xmlns="http://www.w3.org/2000/svg" width="403" height="324" viewBox="0 0 403 324" version="1.1">
	<path d="M 40.370 190.765 C 38.401 192.045, 6.007 257.855, 6.594 259.384 C 7.265 261.133, 9.512 262.124, 11.274 261.448 C 11.975 261.180, 19.056 247.919, 27.010 231.980 C 34.964 216.041, 41.717 203, 42.016 203 C 42.315 203, 49.042 216.034, 56.965 231.964 C 64.888 247.894, 71.962 261.155, 72.685 261.433 C 73.408 261.710, 74.573 261.717, 75.274 261.448 C 75.975 261.180, 83.056 247.919, 91.010 231.980 C 98.964 216.041, 105.717 203, 106.016 203 C 106.315 203, 113.042 216.034, 120.965 231.964 C 128.888 247.894, 135.962 261.155, 136.685 261.433 C 137.408 261.710, 138.570 261.719, 139.267 261.451 C 139.963 261.184, 147.106 247.811, 155.139 231.734 L 169.744 202.502 184.310 231.620 C 192.485 247.962, 199.617 261.023, 200.565 261.386 C 202.675 262.196, 205 260.359, 205 257.882 C 205 256.851, 197.688 241.376, 188.751 223.493 C 173.609 193.190, 170.855 188.735, 168.259 190.340 C 167.842 190.598, 160.988 203.902, 153.030 219.905 C 145.071 235.907, 138.315 249, 138.016 249 C 137.717 249, 130.964 235.959, 123.010 220.020 C 115.056 204.081, 107.975 190.820, 107.274 190.552 C 106.573 190.283, 105.408 190.290, 104.685 190.567 C 103.962 190.845, 96.888 204.106, 88.965 220.036 C 81.042 235.966, 74.314 249, 74.015 249 C 73.716 249, 67.178 236.339, 59.486 220.864 C 51.794 205.389, 44.905 192.114, 44.179 191.364 C 42.686 189.823, 41.988 189.713, 40.370 190.765 M 287.531 191.067 C 259.490 195.370, 237.314 216.437, 231.589 244.208 C 229.337 255.134, 229.478 259.650, 232.117 261.062 C 235.328 262.781, 236.564 260.672, 237.826 251.325 C 239.862 236.246, 245.191 225.108, 255 215.433 C 266.766 203.826, 277.837 198.944, 294.012 198.228 C 306.422 197.679, 313.762 199.193, 324.763 204.571 C 338.231 211.156, 349.836 225.392, 354.404 240.932 C 355.282 243.919, 356 246.597, 356 246.882 C 356 247.168, 350.188 241.650, 343.083 234.621 C 331.458 223.118, 329.959 221.952, 328.083 222.955 C 326.938 223.569, 326 224.825, 326 225.747 C 326 227.465, 357.046 259.753, 360.310 261.430 C 361.820 262.205, 365.011 259.471, 379.560 244.940 C 389.152 235.360, 397 226.745, 397 225.796 C 397 224.847, 396.060 223.567, 394.911 222.952 C 393.025 221.943, 391.428 223.216, 378.468 236.067 C 364.329 250.084, 364.104 250.255, 363.501 247.399 C 360.570 233.502, 353.730 219.582, 345.692 211.153 C 341.208 206.451, 331.233 199.453, 324.877 196.550 C 313.805 191.493, 298.957 189.313, 287.531 191.067 " stroke="none" fill="black" fill-rule="evenodd"/>
</svg>