<svg xmlns="http://www.w3.org/2000/svg" width="180" height="324" viewBox="0 0 180 324" version="1.1">
	<path d="M 33.384 159.412 C 15.475 163.758, 3.559 181.807, 6.987 199.396 C 9.921 214.454, 20.511 225.033, 35.628 228.007 C 58.713 232.548, 80.720 210.337, 75.965 187.295 C 73.006 172.962, 63.102 162.645, 49.147 159.360 C 42.397 157.772, 40.111 157.779, 33.384 159.412 M 31.054 167.728 C 25.018 169.859, 17.781 177.260, 15.667 183.463 C 11.995 194.241, 14.382 205.477, 21.952 213.048 C 32.673 223.769, 50.327 223.769, 61.048 213.048 C 71.769 202.327, 71.769 184.673, 61.048 173.952 C 53.519 166.424, 41.696 163.970, 31.054 167.728 M 39.571 191.571 C 38.707 192.436, 38 193.529, 38 194 C 38 195.111, 40.889 198, 42 198 C 43.111 198, 46 195.111, 46 194 C 46 192.889, 43.111 190, 42 190 C 41.529 190, 40.436 190.707, 39.571 191.571 M 159.870 191.071 C 144.893 193.271, 133.652 199.158, 121.974 210.916 C 109.989 222.983, 104.432 234.878, 102.503 252.598 C 101.964 257.549, 102.150 259.007, 103.491 260.348 C 105.547 262.404, 106.439 262.418, 108.429 260.429 C 109.404 259.453, 110.006 257.082, 110.015 254.179 C 110.104 225.902, 137.902 198.104, 166.179 198.015 C 170.567 198.001, 174 196.239, 174 194 C 174 193.529, 173.293 192.436, 172.429 191.571 C 170.733 189.875, 168.589 189.790, 159.870 191.071 M 7.571 255.571 C 6.707 256.436, 6 257.529, 6 258 C 6 258.471, 6.707 259.564, 7.571 260.429 C 8.936 261.793, 13.463 262, 42 262 C 70.537 262, 75.064 261.793, 76.429 260.429 C 77.293 259.564, 78 258.471, 78 258 C 78 257.529, 77.293 256.436, 76.429 255.571 C 75.064 254.207, 70.537 254, 42 254 C 13.463 254, 8.936 254.207, 7.571 255.571 " stroke="none" fill="black" fill-rule="evenodd"/>
</svg>