<svg xmlns="http://www.w3.org/2000/svg" width="340" height="324" viewBox="0 0 340 324" version="1.1">
	<path d="M 35.045 127.064 C 24.674 129.164, 14.828 136.537, 10.151 145.705 C 7.578 150.747, 5.616 161.395, 6.828 163.738 C 7.329 164.707, 8.525 169.100, 9.484 173.500 C 14.997 198.781, 28.030 222.125, 46.649 240.065 C 55.769 248.853, 71.103 260, 74.070 260 C 75.196 260, 77.778 258.733, 79.809 257.185 C 81.839 255.636, 87.009 251.747, 91.298 248.542 C 105.496 237.932, 118.913 221.497, 127.526 204.162 C 136.027 187.055, 141.511 165.812, 139.941 156.078 C 136.401 134.137, 113.568 120.988, 92.798 128.928 C 86.373 131.384, 78.359 138.062, 75.529 143.317 L 73.640 146.824 70.976 142.624 C 63.636 131.049, 48.255 124.389, 35.045 127.064 M 31.054 135.728 C 24.787 137.940, 17.726 145.297, 15.534 151.899 C 13.881 156.875, 13.875 157.704, 15.430 166.205 C 18.769 184.454, 25.331 200.650, 35.740 216.330 C 41.769 225.412, 57.344 241.046, 66.665 247.373 L 73.830 252.237 81.660 246.869 C 106.190 230.050, 125.148 201.197, 131.495 171.022 C 133.741 160.345, 133.447 156.214, 129.940 149.196 C 123.554 136.416, 109.612 130.846, 95.795 135.554 C 86.288 138.793, 78 149.539, 78 158.625 C 78 162.910, 76.115 166, 73.500 166 C 71.133 166, 69 162.970, 69 159.607 C 69 149.949, 60.912 138.862, 51.537 135.667 C 45.516 133.616, 36.964 133.641, 31.054 135.728 M 199.571 159.571 C 198.288 160.855, 198 163.788, 198 175.571 L 198 190 183.571 190 C 171.788 190, 168.855 190.288, 167.571 191.571 C 165.598 193.545, 165.598 194.455, 167.571 196.429 C 168.855 197.712, 171.788 198, 183.571 198 L 198 198 198 212.429 C 198 224.212, 198.288 227.145, 199.571 228.429 C 201.678 230.535, 202.598 230.412, 204.443 227.777 C 205.669 226.028, 206 222.631, 206 211.804 L 206 198.053 220.643 197.777 C 233.314 197.537, 235.433 197.264, 236.387 195.750 C 237.191 194.475, 237.191 193.525, 236.387 192.250 C 235.433 190.736, 233.314 190.463, 220.643 190.223 L 206 189.947 206 176.196 C 206 165.369, 205.669 161.972, 204.443 160.223 C 202.598 157.588, 201.678 157.465, 199.571 159.571 M 263.571 159.571 C 262.227 160.916, 262 164.736, 262 186 C 262 207.264, 262.227 211.084, 263.571 212.429 C 265.457 214.315, 266.219 214.381, 267.800 212.800 C 269.508 211.092, 269.508 160.908, 267.800 159.200 C 266.219 157.619, 265.457 157.685, 263.571 159.571 M 295.750 159.080 C 294.155 160.009, 294 162.388, 294 186.015 C 294 211.174, 294.060 211.962, 296.064 213.034 C 297.596 213.854, 298.498 213.832, 299.564 212.947 C 300.744 211.968, 301 207.174, 301 186.078 C 301 157.906, 300.671 156.214, 295.750 159.080 M 263.616 222.527 C 262.727 223.416, 262 224.529, 262 225 C 262 226.389, 265.140 229.120, 266.295 228.735 C 268.395 228.035, 269.549 225.094, 268.423 223.310 C 266.905 220.902, 265.474 220.669, 263.616 222.527 M 295.750 222.080 C 293.372 223.465, 293.542 226.685, 296.064 228.034 C 299.753 230.008, 302.819 225.219, 299.800 222.200 C 298.367 220.767, 298.022 220.757, 295.750 222.080 " stroke="none" fill="black" fill-rule="evenodd"/>
</svg>