<svg xmlns="http://www.w3.org/2000/svg" width="244" height="324" viewBox="0 0 244 324" version="1.1">
	<path d="M 166.571 127.571 C 165.699 128.444, 165 130.819, 165 132.911 C 165 139.127, 161.245 151.866, 157.340 158.899 C 151.912 168.675, 141.977 177.998, 131.820 182.847 C 123.178 186.974, 115.669 189, 109.022 189 C 105.416 189, 102 190.946, 102 193 C 102 193.471, 102.732 194.589, 103.627 195.485 C 106.840 198.697, 124.038 195.139, 136.500 188.683 C 145.952 183.786, 158.030 172.472, 162.851 164 L 165.981 158.500 165.991 208.679 C 165.999 252.954, 166.185 259.042, 167.571 260.429 C 168.436 261.293, 169.506 262, 169.949 262 C 172.734 262, 172.988 257.978, 173.240 209.909 L 173.500 160.500 175.904 164.367 C 187.364 182.803, 208.127 195.289, 228.864 196.216 C 234.031 196.447, 235.440 196.171, 236.358 194.750 C 238.568 191.332, 236.014 189.561, 227.895 188.881 C 212.965 187.632, 199.764 181.005, 189.170 169.444 C 180.001 159.438, 174 145.361, 174 133.861 C 174 129.087, 172.233 126, 169.500 126 C 168.754 126, 167.436 126.707, 166.571 127.571 M 7.571 191.571 C 6.707 192.436, 6 193.640, 6 194.249 C 6 194.857, 12.844 202.250, 21.208 210.677 L 36.416 226 21.208 241.323 C 12.844 249.750, 6 257.143, 6 257.751 C 6 259.181, 8.819 262, 10.249 262 C 10.857 262, 18.250 255.156, 26.677 246.792 L 42 231.584 57.323 246.792 C 65.750 255.156, 73.143 262, 73.751 262 C 75.181 262, 78 259.181, 78 257.751 C 78 257.143, 71.156 249.750, 62.792 241.323 L 47.584 226 62.792 210.677 C 71.156 202.250, 78 194.857, 78 194.249 C 78 192.819, 75.181 190, 73.751 190 C 73.143 190, 65.750 196.844, 57.323 205.208 L 42 220.416 26.677 205.208 C 18.250 196.844, 10.857 190, 10.249 190 C 9.640 190, 8.436 190.707, 7.571 191.571 " stroke="none" fill="black" fill-rule="evenodd"/>
</svg>