<svg xmlns="http://www.w3.org/2000/svg" width="276" height="324" viewBox="0 0 276 324" version="1.1">
	<path d="M 39.267 159.267 L 6 192.533 6 225.695 C 6 254.509, 6.206 259.063, 7.571 260.429 C 8.968 261.825, 16.372 262, 74 262 C 131.628 262, 139.032 261.825, 140.429 260.429 C 141.794 259.063, 142 254.509, 142 225.695 L 142 192.533 108.733 159.267 C 90.437 140.970, 74.807 126, 74 126 C 73.193 126, 57.563 140.970, 39.267 159.267 M 194.223 127.012 C 183.933 129.160, 173.981 137.443, 169.216 147.825 C 165.512 155.894, 165.512 167.106, 169.216 175.175 C 174.017 185.635, 184.144 194.040, 193.807 195.585 L 198 196.256 198 227.556 C 198 254.678, 198.210 259.067, 199.571 260.429 C 200.436 261.293, 201.529 262, 202 262 C 204.179 262, 206 258.575, 206 254.478 C 206 234.749, 220.156 213.193, 239 204.225 C 248.016 199.935, 255.313 198, 262.478 198 C 265.126 198, 267.478 197.379, 268.429 196.429 C 270.422 194.435, 270.404 193.547, 268.330 191.473 C 265.098 188.241, 247.767 191.494, 235.194 197.692 C 226.836 201.812, 214.796 212.448, 209.850 220.081 C 208.097 222.787, 206.514 225, 206.332 225 C 206.149 225, 206 218.525, 206 210.611 L 206 196.223 209.703 195.528 C 222.283 193.168, 233.284 181.405, 236.013 167.396 C 240.589 143.912, 217.969 122.054, 194.223 127.012 M 191.054 135.728 C 185.018 137.859, 177.781 145.260, 175.667 151.463 C 172.117 161.882, 174.321 173.066, 181.347 180.280 C 186.744 185.822, 192.047 188.291, 199.659 188.805 C 211.162 189.582, 221.604 183.621, 226.467 173.500 C 229.171 167.874, 229.632 158.419, 227.514 152.042 C 225.290 145.346, 217.926 137.844, 211.392 135.618 C 205.504 133.612, 196.916 133.658, 191.054 135.728 M 43.744 165.756 L 14 195.512 14 224.756 L 14 254 74 254 L 134 254 134 224.744 L 134 195.487 104.244 165.744 C 87.878 149.385, 74.263 136, 73.988 136 C 73.713 136, 60.103 149.390, 43.744 165.756 " stroke="none" fill="black" fill-rule="evenodd"/>
</svg>