<svg xmlns="http://www.w3.org/2000/svg" width="308" height="324" viewBox="0 0 308 324" version="1.1">
	<path d="M 55.571 63.571 C 54.707 64.436, 54 65.317, 54 65.531 C 54 66.316, 71.159 100.529, 71.965 101.349 C 74.275 103.702, 76.913 100.229, 84.760 84.501 C 89.292 75.417, 93 67.143, 93 66.115 C 93 63.770, 90.710 61.790, 88.832 62.511 C 88.050 62.811, 84.520 68.894, 80.986 76.028 C 77.453 83.163, 74.306 89, 73.994 89 C 73.683 89, 70.969 83.984, 67.964 77.854 C 62.437 66.580, 59.559 62, 57.999 62 C 57.528 62, 56.436 62.707, 55.571 63.571 M 63.870 127.014 C 48.636 129.407, 37.616 135.194, 25.974 146.916 C 13.989 158.983, 8.432 170.878, 6.503 188.598 C 5.964 193.549, 6.150 195.007, 7.491 196.348 C 9.547 198.404, 10.439 198.418, 12.429 196.429 C 13.404 195.453, 14.006 193.082, 14.015 190.179 C 14.091 166.127, 34.559 141.323, 59.103 135.537 C 90.978 128.024, 122.983 147.153, 131.003 178.511 C 132.101 182.806, 133 188.482, 133 191.125 C 133 194.956, 133.418 196.154, 135.064 197.034 C 142.869 201.211, 141.090 178.529, 132.293 161.700 C 124.457 146.708, 106.926 132.840, 90.500 128.638 C 82.632 126.625, 70.901 125.909, 63.870 127.014 M 263.750 159.080 C 262.155 160.009, 262 162.388, 262 186.015 C 262 211.174, 262.060 211.962, 264.064 213.034 C 265.596 213.854, 266.498 213.832, 267.564 212.947 C 268.744 211.968, 269 207.174, 269 186.078 C 269 157.906, 268.671 156.214, 263.750 159.080 M 39.585 191.558 C 37.598 193.545, 37.595 194.452, 39.571 196.429 C 40.844 197.701, 43.699 198, 54.589 198 L 68.036 198 53.018 227.931 C 44.758 244.393, 38 258.327, 38 258.896 C 38 261.580, 42.920 262, 74.363 262 C 102.570 262, 107.064 261.793, 108.429 260.429 C 109.293 259.564, 110 258.661, 110 258.422 C 110 258.183, 103.255 244.503, 95.011 228.022 L 80.022 198.056 93.654 197.778 C 105.361 197.539, 107.441 197.253, 108.388 195.750 C 109.191 194.475, 109.190 193.525, 108.386 192.250 C 107.377 190.650, 104.452 190.477, 74.226 190.237 C 45.159 190.005, 40.978 190.165, 39.585 191.558 M 167.750 191.073 C 165.413 192.444, 165.527 195.677, 167.960 196.979 C 169.243 197.665, 181.208 197.936, 202.601 197.764 C 232.469 197.523, 235.378 197.349, 236.386 195.750 C 237.191 194.474, 237.191 193.526, 236.386 192.250 C 235.377 190.649, 232.483 190.481, 202.391 190.273 C 181.280 190.127, 168.873 190.414, 167.750 191.073 M 60.743 228.500 L 48.005 254 74 254 L 99.995 254 87.257 228.500 C 80.250 214.475, 74.285 203, 74 203 C 73.715 203, 67.750 214.475, 60.743 228.500 M 263.750 222.080 C 261.372 223.465, 261.542 226.685, 264.064 228.034 C 267.753 230.008, 270.819 225.219, 267.800 222.200 C 266.367 220.767, 266.022 220.757, 263.750 222.080 " stroke="none" fill="black" fill-rule="evenodd"/>
</svg>