<svg xmlns="http://www.w3.org/2000/svg" width="468" height="324" viewBox="0 0 468 324" version="1.1">
	<path d="M 7.571 127.571 C 6.175 128.968, 6 136.372, 6 194 C 6 251.628, 6.175 259.032, 7.571 260.429 C 9.386 262.244, 9.946 262.319, 12 261.023 C 13.204 260.264, 13.599 256.693, 14 242.906 L 14.500 225.735 17.769 230.786 C 25.792 243.184, 41.920 254.638, 57 258.648 C 65.639 260.945, 81.361 260.945, 90 258.648 C 105.576 254.506, 121.101 243.258, 129.965 229.693 L 134 223.517 134 241.187 C 134 255.917, 134.261 259.119, 135.571 260.429 C 137.545 262.402, 138.455 262.402, 140.429 260.429 C 141.825 259.032, 142 251.628, 142 194 C 142 136.372, 141.825 128.968, 140.429 127.571 C 139.564 126.707, 138.471 126, 138 126 C 137.529 126, 136.436 126.707, 135.571 127.571 C 134.265 128.878, 134 132.037, 134 146.313 L 134 163.483 129.965 157.307 C 124.214 148.506, 112.622 138.039, 103.806 133.687 C 93.292 128.497, 85.255 126.624, 73.500 126.624 C 61.745 126.624, 53.708 128.497, 43.194 133.687 C 34.777 137.842, 22.778 148.473, 17.769 156.214 L 14.500 161.265 14 144.594 C 13.600 131.252, 13.200 127.734, 12 126.977 C 9.946 125.681, 9.386 125.757, 7.571 127.571 M 199.571 127.571 C 198.176 128.966, 198 136.152, 198 191.571 L 198 254 183.571 254 C 171.788 254, 168.855 254.288, 167.571 255.571 C 165.598 257.545, 165.598 258.455, 167.571 260.429 C 168.936 261.793, 173.463 262, 202 262 C 230.537 262, 235.064 261.793, 236.429 260.429 C 237.293 259.564, 238 258.471, 238 258 C 238 257.529, 237.293 256.436, 236.429 255.571 C 235.145 254.288, 232.212 254, 220.429 254 L 206 254 206 191.571 C 206 136.152, 205.824 128.966, 204.429 127.571 C 203.564 126.707, 202.471 126, 202 126 C 201.529 126, 200.436 126.707, 199.571 127.571 M 263.571 127.571 C 262.175 128.968, 262 136.372, 262 194 C 262 251.628, 262.175 259.032, 263.571 260.429 C 264.968 261.825, 272.372 262, 330 262 C 387.628 262, 395.032 261.825, 396.429 260.429 C 397.825 259.032, 398 251.628, 398 194 C 398 136.372, 397.825 128.968, 396.429 127.571 C 395.564 126.707, 394.471 126, 394 126 C 393.529 126, 392.436 126.707, 391.571 127.571 C 390.176 128.966, 390 136.152, 390 191.571 L 390 254 330 254 L 270 254 270 191.571 C 270 136.152, 269.824 128.966, 268.429 127.571 C 267.564 126.707, 266.471 126, 266 126 C 265.529 126, 264.436 126.707, 263.571 127.571 M 58.645 135.584 C 38.671 140.419, 20.279 158.986, 15.537 179.103 C 10.661 199.790, 16.552 220.547, 31.585 235.649 C 43.014 247.131, 57.192 253, 73.500 253 C 83.687 253, 90.069 251.503, 99.899 246.809 C 111.586 241.229, 121.229 231.586, 126.809 219.899 C 130.355 212.473, 133 203.737, 133 199.451 C 133 198.215, 128.557 198, 103.071 198 C 77.197 198, 72.930 197.787, 71.571 196.429 C 70.212 195.069, 70 190.758, 70 164.429 L 70 134 67.250 134.083 C 65.737 134.129, 61.865 134.804, 58.645 135.584 M 78 162 L 78 190 105.500 190 C 136.778 190, 134.002 190.967, 131.910 180.799 C 127.595 159.824, 108.761 140.456, 87.897 135.537 C 76.926 132.951, 78 130.080, 78 162 M 322.223 159.012 C 311.933 161.160, 301.981 169.443, 297.216 179.825 C 293.512 187.894, 293.512 199.106, 297.216 207.175 C 300.462 214.246, 306.459 220.848, 312.712 224.232 C 333.892 235.696, 359.341 223.376, 364.013 199.396 C 368.589 175.912, 345.969 154.054, 322.223 159.012 M 423.571 159.571 C 422.227 160.916, 422 164.736, 422 186 C 422 207.264, 422.227 211.084, 423.571 212.429 C 424.436 213.293, 425.529 214, 426 214 C 426.471 214, 427.564 213.293, 428.429 212.429 C 429.773 211.084, 430 207.264, 430 186 C 430 164.736, 429.773 160.916, 428.429 159.571 C 427.564 158.707, 426.471 158, 426 158 C 425.529 158, 424.436 158.707, 423.571 159.571 M 319.054 167.728 C 313.018 169.859, 305.781 177.260, 303.667 183.463 C 299.964 194.333, 302.320 205.225, 310.048 212.952 C 320.957 223.862, 338.043 223.862, 348.952 212.952 C 359.862 202.043, 359.862 184.957, 348.952 174.048 C 341.269 166.364, 329.789 163.938, 319.054 167.728 M 327.571 191.571 C 326.707 192.436, 326 193.529, 326 194 C 326 195.111, 328.889 198, 330 198 C 331.111 198, 334 195.111, 334 194 C 334 192.889, 331.111 190, 330 190 C 329.529 190, 328.436 190.707, 327.571 191.571 M 423.571 222.571 C 422.707 223.436, 422 224.529, 422 225 C 422 226.111, 424.889 229, 426 229 C 427.111 229, 430 226.111, 430 225 C 430 223.889, 427.111 221, 426 221 C 425.529 221, 424.436 221.707, 423.571 222.571 " stroke="none" fill="black" fill-rule="evenodd"/>
</svg>