<svg xmlns="http://www.w3.org/2000/svg" width="276" height="324" viewBox="0 0 276 324" version="1.1">
	<path d="M 263.571 127.571 C 262.178 128.965, 262 135.899, 262 188.799 L 262 248.455 232.711 219.227 C 216.602 203.152, 202.909 190, 202.282 190 C 200.799 190, 198 192.814, 198 194.305 C 198 195.823, 264.177 262, 265.695 262 C 266.334 262, 267.564 261.293, 268.429 260.429 C 269.825 259.032, 270 251.628, 270 194 C 270 136.372, 269.825 128.968, 268.429 127.571 C 267.564 126.707, 266.471 126, 266 126 C 265.529 126, 264.436 126.707, 263.571 127.571 M 40.370 190.765 C 38.401 192.045, 6.007 257.855, 6.594 259.384 C 7.265 261.133, 9.512 262.124, 11.274 261.448 C 11.975 261.180, 19.056 247.919, 27.010 231.980 C 34.964 216.041, 41.710 203, 42 203 C 42.290 203, 49.036 216.041, 56.990 231.980 C 64.944 247.919, 72.025 261.180, 72.726 261.448 C 74.488 262.124, 76.735 261.133, 77.406 259.384 C 77.993 257.855, 45.599 192.045, 43.630 190.765 C 43.009 190.361, 42.275 190.031, 42 190.031 C 41.725 190.031, 40.991 190.361, 40.370 190.765 M 129.384 191.412 C 111.475 195.758, 99.559 213.807, 102.987 231.396 C 105.921 246.454, 116.511 257.033, 131.628 260.007 C 138.581 261.375, 146.727 260.177, 153.349 256.813 C 162.073 252.382, 169.982 242.250, 171.548 233.500 C 171.941 231.300, 172.609 228.825, 173.032 228 C 174.124 225.869, 170.673 212.824, 167.654 207.673 C 162.742 199.290, 154.159 193.234, 144.201 191.123 C 137.812 189.769, 136.008 189.804, 129.384 191.412 M 127.385 199.617 C 119.428 202.439, 112.611 210.342, 110.450 219.250 L 109.783 222 137.500 222 L 165.217 222 164.550 219.250 C 162.335 210.120, 155.528 202.390, 147.205 199.554 C 141.596 197.643, 132.873 197.671, 127.385 199.617 M 110.525 232.250 C 114.314 245.167, 124.497 253, 137.500 253 C 150.503 253, 160.686 245.167, 164.475 232.250 L 165.135 230 137.500 230 L 109.865 230 110.525 232.250 " stroke="none" fill="black" fill-rule="evenodd"/>
</svg>