<svg xmlns="http://www.w3.org/2000/svg" width="436" height="324" viewBox="0 0 436 324" version="1.1">
	<path d="M 168.372 126.765 C 167.751 127.169, 163.538 134.925, 159.009 144 C 154.480 153.075, 150.713 160.573, 150.637 160.662 C 150.562 160.751, 147.800 160.133, 144.500 159.289 C 129.291 155.399, 112.366 164.246, 105.216 179.825 C 103.092 184.453, 102.610 186.998, 102.606 193.623 C 102.601 200.762, 102.991 202.540, 105.831 208.307 C 107.872 212.454, 110.910 216.532, 114.085 219.386 L 119.108 223.903 110.554 240.836 C 105.849 250.149, 102 258.255, 102 258.849 C 102 261.585, 106.790 262, 138.363 262 C 166.570 262, 171.064 261.793, 172.429 260.429 C 173.293 259.564, 174 258.471, 174 258 C 174 257.529, 173.293 256.436, 172.429 255.571 C 171.071 254.214, 166.849 254, 141.433 254 L 112.009 254 118.755 240.456 L 125.500 226.912 129.500 227.706 C 157.400 233.243, 179.927 207.016, 169.966 180.595 C 168.465 176.611, 166.012 172.905, 162.432 169.209 L 157.124 163.729 165.562 146.876 C 170.203 137.606, 174 129.824, 174 129.583 C 174 128.874, 170.920 125.999, 170.179 126.015 C 169.805 126.024, 168.992 126.361, 168.372 126.765 M 215.213 143.315 C 205.746 152.838, 198 161.131, 198 161.743 C 198 163.175, 200.813 166, 202.239 166 C 202.841 166, 209.334 160.059, 216.667 152.798 L 230 139.595 230 199.226 C 230 252.103, 230.178 259.035, 231.571 260.429 C 233.678 262.535, 234.598 262.412, 236.443 259.777 C 237.810 257.827, 238 250.338, 238 198.575 L 238 139.595 251.438 152.902 C 258.829 160.220, 265.434 166.022, 266.117 165.794 C 268.605 164.965, 269.473 162.253, 268.082 159.654 C 266.153 156.050, 235.625 126, 233.892 126 C 233.085 126, 224.680 133.792, 215.213 143.315 M 33.384 159.412 C 15.475 163.758, 3.559 181.807, 6.987 199.396 C 9.923 214.467, 20.510 225.032, 35.660 228.013 C 46.748 230.194, 59.444 225.749, 67.399 216.901 C 85.210 197.091, 75.186 165.489, 49.147 159.360 C 42.397 157.772, 40.111 157.779, 33.384 159.412 M 31.054 167.728 C 25.018 169.859, 17.781 177.260, 15.667 183.463 C 11.995 194.241, 14.382 205.477, 21.952 213.048 C 32.402 223.497, 49.888 223.773, 60.280 213.653 C 65.822 208.256, 68.291 202.953, 68.805 195.341 C 69.388 186.717, 67.028 180.189, 61.146 174.150 C 53.627 166.431, 41.848 163.917, 31.054 167.728 M 127.463 167.541 C 121.930 169.575, 116.531 174.240, 113.249 179.824 C 110.800 183.989, 110.500 185.483, 110.500 193.500 C 110.500 201.502, 110.803 203.015, 113.230 207.145 C 114.732 209.699, 117.408 213.007, 119.176 214.495 L 122.392 217.201 134.754 192.492 C 141.553 178.902, 146.835 167.502, 146.491 167.158 C 145.145 165.811, 131.415 166.088, 127.463 167.541 M 141.251 195.485 C 127.848 222.317, 128.044 221, 137.456 221 C 148.440 221, 157.002 215.686, 161.940 205.804 C 166.917 195.845, 165.899 185.689, 158.947 175.925 C 154.223 169.291, 154.473 169.015, 141.251 195.485 M 351.235 191.123 C 337.300 193.171, 324.686 199.612, 314.131 210.071 C 302.970 221.131, 296.028 235.799, 294.469 251.614 C 293.891 257.479, 294.055 258.912, 295.460 260.317 C 296.386 261.243, 297.535 262, 298.015 262 C 299.925 262, 302 257.308, 302 252.988 C 302 240.577, 308.422 226.527, 318.960 215.885 C 329.910 204.825, 341.350 199.389, 356.396 198.094 C 363.982 197.441, 366.495 195.605, 364.394 192.250 C 363.091 190.169, 359.704 189.879, 351.235 191.123 M 415.235 191.123 C 401.277 193.174, 388.489 199.697, 378.087 210.070 C 366.796 221.332, 359.683 236.620, 358.339 252.517 C 357.762 259.343, 357.861 259.855, 359.979 260.989 C 363.453 262.848, 364.911 260.525, 365.969 251.442 C 367.741 236.220, 373.625 224.322, 384.332 214.306 C 395.012 204.315, 405.999 199.318, 419.895 198.132 C 427.995 197.440, 430.540 195.678, 428.394 192.250 C 427.091 190.169, 423.704 189.879, 415.235 191.123 M 7.571 255.571 C 6.707 256.436, 6 257.529, 6 258 C 6 258.471, 6.707 259.564, 7.571 260.429 C 8.936 261.793, 13.463 262, 42 262 C 70.537 262, 75.064 261.793, 76.429 260.429 C 77.293 259.564, 78 258.471, 78 258 C 78 257.529, 77.293 256.436, 76.429 255.571 C 75.064 254.207, 70.537 254, 42 254 C 13.463 254, 8.936 254.207, 7.571 255.571 " stroke="none" fill="black" fill-rule="evenodd"/>
</svg>