<svg xmlns="http://www.w3.org/2000/svg" width="244" height="324" viewBox="0 0 244 324" version="1.1">
	<path d="M 103.571 127.571 C 100.149 130.994, 103.242 134, 110.188 134 L 115.233 134 111.502 138.130 C 107.081 143.023, 103.396 150.748, 102.500 157 C 101.779 162.030, 104.405 176.286, 108.027 187 C 111.565 197.468, 118.240 210.869, 124.416 219.907 L 130.161 228.314 116.080 242.419 C 108.336 250.177, 102 257.291, 102 258.227 C 102 259.164, 102.877 260.399, 103.948 260.972 C 105.256 261.672, 127.132 261.930, 170.589 261.757 C 230.951 261.517, 235.356 261.383, 236.386 259.750 C 237.191 258.474, 237.191 257.526, 236.387 256.250 C 235.394 254.675, 232.579 254.450, 208.169 254 L 181.054 253.500 188.125 248 C 211.187 230.063, 228.712 201.092, 234.835 170.781 C 237.055 159.795, 236.298 153.119, 231.915 145.028 L 228.931 139.518 233.466 135.172 C 238.490 130.358, 238.693 129.836, 236.429 127.571 C 235.032 126.175, 227.628 126, 170 126 C 112.372 126, 104.968 126.175, 103.571 127.571 M 127.385 135.617 C 117.726 139.043, 110 149.714, 110 159.631 C 110 174.646, 118.309 197.665, 130.106 215.329 L 135.334 223.157 176.667 181.833 C 199.400 159.105, 218 140.145, 218 139.699 C 218 139.254, 215.475 137.733, 212.389 136.320 C 201.676 131.416, 187.909 134.395, 180.451 143.230 C 176.666 147.714, 174.048 153.784, 174.022 158.139 C 173.993 162.857, 171.158 166.502, 168.239 165.576 C 165.919 164.840, 165.481 163.819, 164.560 156.995 C 163.285 147.558, 155.516 138.368, 146.101 135.159 C 141.535 133.602, 132.438 133.825, 127.385 135.617 M 162.173 136.750 C 163.575 138.262, 165.865 141.228, 167.264 143.341 C 169.677 146.983, 169.844 147.066, 170.517 144.945 C 170.908 143.715, 173.033 140.749, 175.241 138.354 L 179.255 134 169.440 134 L 159.626 134 162.173 136.750 M 182.191 186.368 C 159.536 209.121, 141 228.197, 141 228.760 C 141 230.930, 161.987 248.635, 167.641 251.237 C 169.401 252.047, 170.827 251.505, 175.641 248.199 C 193.034 236.257, 207.512 219.805, 216.754 201.481 C 223.874 187.367, 229.755 165.528, 228.636 157.363 C 228.135 153.706, 224.639 145, 223.671 145 C 223.512 145, 204.847 163.616, 182.191 186.368 M 7.571 191.571 C 6.707 192.436, 6 193.640, 6 194.249 C 6 194.857, 12.844 202.250, 21.208 210.677 L 36.416 226 21.208 241.323 C 12.844 249.750, 6 257.143, 6 257.751 C 6 259.181, 8.819 262, 10.249 262 C 10.857 262, 18.250 255.156, 26.677 246.792 L 42 231.584 57.323 246.792 C 65.750 255.156, 73.143 262, 73.751 262 C 75.181 262, 78 259.181, 78 257.751 C 78 257.143, 71.156 249.750, 62.792 241.323 L 47.584 226 62.792 210.677 C 71.156 202.250, 78 194.857, 78 194.249 C 78 192.819, 75.181 190, 73.751 190 C 73.143 190, 65.750 196.844, 57.323 205.208 L 42 220.416 26.677 205.208 C 18.250 196.844, 10.857 190, 10.249 190 C 9.640 190, 8.436 190.707, 7.571 191.571 M 125.496 244.004 L 115.538 254 136.859 254 L 158.180 254 152.840 249.867 C 149.903 247.593, 144.790 243.095, 141.477 239.871 L 135.454 234.008 125.496 244.004 " stroke="none" fill="black" fill-rule="evenodd"/>
</svg>