<svg xmlns="http://www.w3.org/2000/svg" width="212" height="324" viewBox="0 0 212 324" version="1.1">
	<path d="M 104.372 62.751 C 102.408 64.054, 86.005 97.849, 86.593 99.381 C 87.268 101.141, 89.513 102.124, 91.295 101.440 C 92.007 101.167, 95.480 95.106, 99.014 87.972 C 102.547 80.837, 105.692 75, 106.003 75 C 106.313 75, 109.252 80.432, 112.533 87.070 C 115.815 93.709, 119.222 99.795, 120.105 100.594 C 121.891 102.212, 124.550 101.615, 125.398 99.406 C 126.127 97.506, 108.754 62.573, 106.920 62.251 C 106.139 62.114, 104.992 62.339, 104.372 62.751 M 7.571 191.571 C 6.707 192.436, 6 193.529, 6 194 C 6 194.471, 6.707 195.564, 7.571 196.429 C 8.967 197.825, 16.314 198, 73.359 198 L 137.576 198 153.469 214 C 162.210 222.800, 169.848 230, 170.442 230 C 172.240 230, 206 195.607, 206 193.775 C 206 192.837, 205.040 191.557, 203.868 190.929 C 201.921 189.887, 200.376 191.145, 186.106 205.394 L 170.477 221.001 155 205.500 L 139.524 190 74.334 190 C 16.403 190, 8.968 190.175, 7.571 191.571 " stroke="none" fill="black" fill-rule="evenodd"/>
</svg>