<svg xmlns="http://www.w3.org/2000/svg" width="276" height="324" viewBox="0 0 276 324" version="1.1">
	<path d="M 89.288 173.222 L 42.028 220.444 26.691 205.222 C 18.256 196.850, 10.857 190, 10.249 190 C 8.819 190, 6 192.819, 6 194.249 C 6 194.857, 12.844 202.250, 21.208 210.677 L 36.416 226 21.208 241.323 C 12.844 249.750, 6 257.143, 6 257.751 C 6 259.181, 8.819 262, 10.249 262 C 10.857 262, 18.250 255.156, 26.677 246.792 L 42 231.584 57.323 246.792 C 65.750 255.156, 73.143 262, 73.751 262 C 75.181 262, 78 259.181, 78 257.751 C 78 257.143, 71.150 249.744, 62.778 241.309 L 47.556 225.972 94.778 178.712 C 120.750 152.718, 142 130.932, 142 130.297 C 142 129.662, 141.293 128.436, 140.429 127.571 C 139.564 126.707, 138.338 126, 137.703 126 C 137.068 126, 115.282 147.250, 89.288 173.222 M 189.500 191.466 C 174.827 194.160, 163.189 200.726, 152.168 212.528 C 141.839 223.588, 136.206 236.225, 134.499 252.168 C 133.924 257.530, 134.094 258.951, 135.473 260.330 C 137.547 262.404, 138.435 262.422, 140.429 260.429 C 141.379 259.478, 142 257.126, 142 254.478 C 142 241.343, 148.860 225.930, 159.395 215.395 C 169.930 204.860, 185.343 198, 198.478 198 C 202.575 198, 206 196.179, 206 194 C 206 192.072, 202.658 190.006, 199.679 190.090 C 197.930 190.140, 193.350 190.759, 189.500 191.466 M 253.500 191.466 C 238.827 194.160, 227.189 200.726, 216.168 212.528 C 205.839 223.588, 200.206 236.225, 198.499 252.168 C 197.924 257.530, 198.094 258.951, 199.473 260.330 C 201.547 262.404, 202.435 262.422, 204.429 260.429 C 205.379 259.478, 206 257.126, 206 254.478 C 206 241.343, 212.860 225.930, 223.395 215.395 C 233.930 204.860, 249.343 198, 262.478 198 C 266.575 198, 270 196.179, 270 194 C 270 192.072, 266.658 190.006, 263.679 190.090 C 261.930 190.140, 257.350 190.759, 253.500 191.466 " stroke="none" fill="black" fill-rule="evenodd"/>
</svg>