<svg xmlns="http://www.w3.org/2000/svg" width="148" height="324" viewBox="0 0 148 324" version="1.1">
	<path d="M 39.571 127.571 C 38.207 128.935, 38 133.425, 38 161.577 L 38 194.012 22.016 225.967 C 13.225 243.542, 6.285 258.580, 6.594 259.384 C 7.265 261.133, 9.512 262.124, 11.274 261.448 C 11.975 261.180, 19.056 247.919, 27.010 231.980 C 34.964 216.041, 41.710 203, 42 203 C 42.290 203, 49.036 216.041, 56.990 231.980 C 64.944 247.919, 72.083 261.201, 72.853 261.497 C 74.717 262.213, 77 260.217, 77 257.871 C 77 256.835, 70.025 242.043, 61.500 225 L 46 194.012 46 161.578 C 46 133.425, 45.793 128.935, 44.429 127.571 C 43.564 126.707, 42.471 126, 42 126 C 41.529 126, 40.436 126.707, 39.571 127.571 M 116.764 190.952 C 111.097 192.749, 107.134 196.091, 104.571 201.234 C 101.615 207.166, 101.344 210.201, 103.571 212.429 C 106.448 215.305, 108.154 213.933, 109.921 207.323 C 112.813 196.505, 126.535 194.399, 131.506 204.011 C 132.328 205.600, 133 208.070, 133 209.500 C 133 214.947, 127.983 221, 123.469 221 C 117.507 221, 116.047 228.332, 121.765 229.554 C 126.874 230.646, 129.001 231.953, 130.999 235.230 C 133.375 239.128, 133.544 243.047, 131.506 246.989 C 126.639 256.400, 112.830 254.508, 110.012 244.043 C 108.819 239.615, 106.930 237.706, 104.618 238.593 C 101.661 239.728, 101.605 243.673, 104.463 249.513 C 110.197 261.234, 124.035 264.177, 133.662 255.724 C 138.087 251.838, 140 247.545, 140 241.500 C 140 235.968, 138.144 231.317, 134.651 228.097 L 132.044 225.693 135.466 221.906 C 143.264 213.275, 140.752 198.874, 130.389 192.801 C 126.769 190.679, 120.364 189.810, 116.764 190.952 " stroke="none" fill="black" fill-rule="evenodd"/>
</svg>