<svg xmlns="http://www.w3.org/2000/svg" width="468" height="324" viewBox="0 0 468 324" version="1.1">
	<path d="M 135.571 127.571 C 134.219 128.924, 134 132.988, 134 156.774 L 134 184.405 120.667 171.202 C 113.334 163.941, 106.841 158, 106.239 158 C 104.822 158, 102 160.822, 102 162.239 C 102 162.841, 107.941 169.334, 115.202 176.667 L 128.405 190 68.774 190 C 15.897 190, 8.965 190.178, 7.571 191.571 C 5.598 193.545, 5.598 194.455, 7.571 196.429 C 8.965 197.822, 15.897 198, 68.774 198 L 128.405 198 115.202 211.333 C 107.941 218.666, 102 225.159, 102 225.761 C 102 227.178, 104.822 230, 106.239 230 C 106.841 230, 113.334 224.059, 120.667 216.798 L 134 203.595 134 231.226 C 134 255.012, 134.219 259.076, 135.571 260.429 C 136.436 261.293, 137.529 262, 138 262 C 138.471 262, 139.564 261.293, 140.429 260.429 C 141.825 259.032, 142 251.628, 142 194 C 142 136.372, 141.825 128.968, 140.429 127.571 C 139.564 126.707, 138.471 126, 138 126 C 137.529 126, 136.436 126.707, 135.571 127.571 M 223.102 127.108 C 197.633 130.963, 175.059 151.541, 168.374 177 C 167.312 181.044, 166.667 187.278, 166.667 193.500 C 166.667 205.288, 168.542 213.383, 173.687 223.806 C 178.039 232.622, 188.506 244.214, 197.307 249.965 L 203.483 254 186.313 254 C 172.037 254, 168.878 254.265, 167.571 255.571 C 165.598 257.545, 165.598 258.455, 167.571 260.429 C 168.968 261.825, 176.372 262, 234 262 C 291.628 262, 299.032 261.825, 300.429 260.429 C 302.402 258.455, 302.402 257.545, 300.429 255.571 C 299.119 254.261, 295.917 254, 281.187 254 L 263.517 254 269.693 249.965 C 278.532 244.189, 288.968 232.618, 293.287 223.806 C 298.427 213.315, 300.302 205.237, 300.319 193.500 C 300.346 174.163, 294.618 160.540, 280.539 146.461 C 270.823 136.745, 262.203 131.569, 250.831 128.621 C 243.080 126.612, 230.806 125.942, 223.102 127.108 M 354.873 126.888 C 348.674 128.182, 340.395 132.847, 336.180 137.421 C 331.025 143.013, 328.489 148.025, 327.010 155.544 C 325.953 160.916, 326.089 162.678, 328.323 172.519 C 334.158 198.221, 344.400 217.725, 361.681 236.045 C 365.266 239.846, 371.312 245.328, 375.116 248.227 L 382.032 253.500 354.978 254 C 332.398 254.417, 327.768 254.748, 326.978 256 C 325.681 258.054, 325.756 258.613, 327.571 260.429 C 328.968 261.825, 336.372 262, 394 262 C 451.628 262, 459.032 261.825, 460.429 260.429 C 462.244 258.613, 462.319 258.054, 461.022 256 C 460.231 254.747, 455.552 254.418, 432.564 254 L 405.053 253.500 412.138 248 C 431.253 233.163, 447.943 208.988, 455.286 185.500 C 459.885 170.789, 461.288 161.720, 459.967 155.238 C 457.595 143.595, 450.120 134.240, 439.175 129.216 C 431.256 125.581, 419.969 125.577, 411.946 129.205 C 405.273 132.223, 399.589 137.021, 396.005 142.662 L 393.360 146.824 391.503 143.377 C 388.873 138.492, 381.737 132.223, 375.675 129.472 C 369.980 126.886, 360.510 125.710, 354.873 126.888 M 218.645 135.584 C 198.671 140.419, 180.279 158.986, 175.537 179.103 C 170.672 199.742, 176.569 220.600, 191.484 235.516 C 206.400 250.431, 227.258 256.328, 247.897 251.463 C 268.261 246.662, 286.662 228.261, 291.463 207.897 C 293.390 199.718, 293.390 187.282, 291.463 179.103 C 286.662 158.739, 268.261 140.338, 247.897 135.537 C 239.998 133.676, 226.439 133.697, 218.645 135.584 M 351.054 135.728 C 348.517 136.623, 344.606 139.299, 341.948 141.957 C 335.771 148.133, 333.502 154.735, 334.365 164.020 C 335.753 178.951, 344.608 201.354, 355.185 216.693 C 362.082 226.695, 375.474 240.104, 385.282 246.829 L 393.055 252.158 397.520 249.541 C 408.326 243.208, 421.290 230.807, 431.180 217.342 C 442.596 201.799, 453 174.511, 453 160.113 C 453 145.916, 440.451 134, 425.500 134 C 410.803 134, 398 145.922, 398 159.607 C 398 162.970, 395.867 166, 393.500 166 C 391.133 166, 389 162.970, 389 159.607 C 389 149.949, 380.912 138.862, 371.537 135.667 C 365.516 133.616, 356.964 133.641, 351.054 135.728 " stroke="none" fill="black" fill-rule="evenodd"/>
</svg>