<svg xmlns="http://www.w3.org/2000/svg" width="244" height="324" viewBox="0 0 244 324" version="1.1">
	<path d="M 55.571 63.571 C 54.707 64.436, 54 65.317, 54 65.531 C 54 66.993, 71.421 100.653, 72.488 101.252 C 73.225 101.665, 74.440 101.768, 75.187 101.482 C 77.102 100.747, 94.082 66.377, 93.403 64.609 C 92.732 62.858, 90.483 61.877, 88.705 62.560 C 87.993 62.833, 84.520 68.894, 80.986 76.028 C 77.453 83.163, 74.308 89, 73.997 89 C 73.687 89, 70.748 83.534, 67.467 76.853 C 59.925 61.499, 58.847 60.296, 55.571 63.571 M 199.750 127.080 C 198.114 128.033, 198 132.044, 198 188.786 L 198 249.473 184.237 235.737 C 176.667 228.181, 170.175 222, 169.808 222 C 168.728 222, 166 225.049, 166 226.257 C 166 227.709, 200.085 262, 201.528 262 C 203.020 262, 236.413 228.356, 236.833 226.430 C 237.208 224.709, 235.297 222, 233.708 222 C 233.132 222, 226.437 228.167, 218.830 235.704 L 205 249.408 205 188.904 C 205 123.446, 205.047 123.995, 199.750 127.080 M 7.579 191.564 C 5.598 193.545, 5.596 194.454, 7.571 196.429 C 8.929 197.786, 13.153 198, 38.589 198 L 68.036 198 53.018 227.931 C 44.758 244.393, 38 258.086, 38 258.360 C 38 258.633, 38.707 259.564, 39.571 260.429 C 40.936 261.793, 45.463 262, 74 262 C 102.537 262, 107.064 261.793, 108.429 260.429 C 109.293 259.564, 110 258.661, 110 258.422 C 110 258.183, 103.252 244.497, 95.004 228.008 L 80.008 198.030 109.646 197.765 C 136.613 197.524, 139.382 197.342, 140.386 195.750 C 141.191 194.474, 141.191 193.526, 140.386 192.250 C 139.356 190.617, 134.934 190.483, 74.220 190.243 C 16.058 190.013, 8.990 190.153, 7.579 191.564 M 60.743 228.500 L 48.005 254 74 254 L 99.995 254 87.257 228.500 C 80.250 214.475, 74.285 203, 74 203 C 73.715 203, 67.750 214.475, 60.743 228.500 " stroke="none" fill="black" fill-rule="evenodd"/>
</svg>