<svg xmlns="http://www.w3.org/2000/svg" width="148" height="324" viewBox="0 0 148 324" version="1.1">
	<path d="M 55.750 63.080 C 54.186 63.991, 54 66.007, 54 82.015 C 54 98.703, 54.132 100, 55.934 100.965 C 58.266 102.213, 89.906 102.346, 91.848 101.115 C 93.810 99.872, 93.810 64.128, 91.848 62.885 C 89.929 61.669, 57.875 61.843, 55.750 63.080 M 62 82 L 62 94 74 94 L 86 94 86 82 L 86 70 74 70 L 62 70 62 82 M 35.045 127.064 C 19.595 130.192, 7.301 144.028, 6.821 158.824 C 6.644 164.268, 11.383 182.979, 15.856 194.500 C 24.708 217.300, 41.759 238.635, 63.261 253.815 C 71.459 259.602, 76.072 261.311, 77.454 259.074 C 77.769 258.565, 81.706 255.570, 86.203 252.418 C 112.720 233.838, 132.201 203.621, 138.835 170.781 C 140.987 160.130, 140.347 153.626, 136.362 145.662 C 124.406 121.766, 90.345 120.095, 75.981 142.700 L 73.312 146.900 71.124 143.007 C 64.711 131.596, 48.355 124.368, 35.045 127.064 M 31.591 135.573 C 23.452 138.555, 15.998 146.866, 14.553 154.569 C 13.726 158.977, 16.225 172.568, 20.050 184.464 C 25.992 202.943, 35.743 218.759, 49.988 233.026 C 55.220 238.265, 62.724 244.731, 66.665 247.394 L 73.830 252.237 81.502 246.934 C 96.559 236.525, 111.143 219.907, 119.764 203.337 C 127.733 188.019, 133.910 165.555, 132.584 156.712 C 131.161 147.222, 123.232 138.158, 113.609 135.020 C 107.591 133.058, 97.093 134.170, 91.680 137.342 C 83.949 141.872, 78.067 150.781, 78.022 158.027 C 77.998 161.891, 75.675 166, 73.515 166 C 71.013 166, 69 162.918, 69 159.088 C 69 153.811, 63.742 143.755, 59.031 140.024 C 51.664 134.190, 40.368 132.357, 31.591 135.573 " stroke="none" fill="black" fill-rule="evenodd"/>
</svg>