<svg xmlns="http://www.w3.org/2000/svg" width="308" height="324" viewBox="0 0 308 324" version="1.1">
	<path d="M 55.750 63.080 C 54.186 63.991, 54 66.007, 54 82.015 C 54 98.703, 54.132 100, 55.934 100.965 C 57.043 101.558, 64.905 102, 74.363 102 C 88.024 102, 91.127 101.730, 92.429 100.429 C 94.757 98.100, 94.757 65.900, 92.429 63.571 C 91.123 62.266, 88.036 62.005, 74.179 62.030 C 64.720 62.048, 56.742 62.502, 55.750 63.080 M 62 82 L 62 94 74 94 L 86 94 86 82 L 86 70 74 70 L 62 70 62 82 M 71.663 126.750 C 66.982 134.462, 6.204 258.367, 6.598 259.394 C 7.264 261.130, 9.514 262.124, 11.262 261.453 C 11.956 261.187, 25.431 235.213, 41.206 203.734 L 69.888 146.500 69.944 200.250 L 70 254 55.571 254 C 43.788 254, 40.855 254.288, 39.571 255.571 C 37.595 257.548, 37.598 258.455, 39.585 260.442 C 40.978 261.835, 45.159 261.995, 74.226 261.763 C 104.452 261.523, 107.377 261.350, 108.386 259.750 C 109.190 258.475, 109.191 257.525, 108.387 256.250 C 107.433 254.736, 105.314 254.463, 92.643 254.223 L 78 253.947 78 191.545 C 78 136.149, 77.824 128.966, 76.429 127.571 C 74.763 125.905, 72.420 125.502, 71.663 126.750 M 162.920 126.982 C 148.387 129.532, 136.209 142.866, 134.406 158.202 C 133.805 163.316, 133.941 163.898, 135.991 164.995 C 139.173 166.698, 140.829 164.696, 141.953 157.786 C 144.253 143.655, 153.544 135.129, 167.639 134.214 C 173.729 133.819, 175.574 134.116, 180.205 136.236 C 187.230 139.453, 192.445 144.900, 194.976 151.667 C 197.462 158.311, 197.474 161.177, 195.062 172 C 191.528 187.858, 186.560 199.635, 177.543 213.530 C 168.474 227.504, 154.597 241.338, 141.338 249.622 C 133.840 254.307, 132.207 256.340, 134.105 258.627 C 136.003 260.913, 138.406 260.221, 146.122 255.166 C 174.532 236.553, 194.616 207.413, 202.062 174 C 205.430 158.887, 203.876 149.259, 196.508 139.600 C 189.211 130.033, 175.304 124.808, 162.920 126.982 M 263.383 159.132 C 245.022 177.462, 230 193.166, 230 194.030 C 230 197.785, 231.648 198, 260.444 198 L 288.487 198 259.244 227.256 C 243.160 243.347, 230 257.281, 230 258.221 C 230 259.161, 230.961 260.444, 232.136 261.073 C 234.103 262.126, 236.918 259.572, 267.636 228.864 C 285.986 210.520, 301 194.811, 301 193.956 C 301 190.217, 299.331 190, 270.556 190 L 242.513 190 271.756 160.744 C 287.840 144.653, 301 130.719, 301 129.779 C 301 128.839, 300.047 127.560, 298.883 126.937 C 296.941 125.898, 293.994 128.571, 263.383 159.132 " stroke="none" fill="black" fill-rule="evenodd"/>
</svg>