<svg xmlns="http://www.w3.org/2000/svg" width="116" height="324" viewBox="0 0 116 324" version="1.1">
	<path d="M 72.372 62.751 C 70.408 64.054, 54.005 97.849, 54.593 99.381 C 55.265 101.133, 57.519 102.129, 59.250 101.438 C 59.938 101.164, 63.602 95.014, 67.394 87.772 L 74.287 74.605 80.551 87.103 C 83.997 93.978, 87.503 100.173, 88.344 100.870 C 90.291 102.487, 94.021 100.722, 93.955 98.215 C 93.879 95.310, 76.594 62.516, 75 62.251 C 74.175 62.114, 72.992 62.339, 72.372 62.751 M 72.369 126.765 C 70.390 128.050, 6.009 257.860, 6.594 259.385 C 7.264 261.131, 9.512 262.125, 11.266 261.451 C 11.962 261.184, 24.675 236.642, 39.516 206.913 C 54.357 177.184, 67.285 151.654, 68.243 150.180 C 69.913 147.613, 69.987 149.753, 69.993 200.750 L 70 254 55.571 254 C 43.788 254, 40.855 254.288, 39.571 255.571 C 37.598 257.545, 37.598 258.455, 39.571 260.429 C 40.936 261.793, 45.430 262, 73.637 262 C 94.124 262, 106.846 261.617, 108.066 260.965 C 110.554 259.633, 110.554 256.367, 108.066 255.035 C 106.995 254.462, 99.849 254, 92.066 254 L 78 254 78 191.200 C 78 127.763, 77.905 125.966, 74.550 126.015 C 73.972 126.024, 72.991 126.361, 72.369 126.765 " stroke="none" fill="black" fill-rule="evenodd"/>
</svg>