<svg xmlns="http://www.w3.org/2000/svg" width="276" height="324" viewBox="0 0 276 324" version="1.1">
	<path d="M 35.045 127.092 C 19.667 130.107, 7.255 144.071, 6.841 158.824 C 6.689 164.231, 10.459 179.667, 14.976 192.133 C 21.053 208.902, 33.075 227.074, 46.717 240.107 C 55.990 248.967, 71.179 260, 74.103 260 C 75.247 260, 77.380 259.083, 78.842 257.962 C 80.304 256.841, 85.561 252.856, 90.524 249.106 C 115.693 230.086, 133.319 201.269, 139.405 169.189 C 140.580 162.992, 140.715 159.758, 139.963 155.763 C 135.596 132.560, 112.226 120.286, 90.616 129.845 C 85.222 132.232, 79.372 137.363, 76.005 142.662 L 73.360 146.824 71.503 143.377 C 69.181 139.064, 62.418 132.764, 57.318 130.162 C 55.183 129.073, 50.781 127.691, 47.535 127.091 C 40.969 125.877, 41.243 125.877, 35.045 127.092 M 167.571 127.571 C 166.207 128.935, 166 133.425, 166 161.577 L 166 194.012 150.016 225.967 C 141.225 243.542, 134.285 258.580, 134.594 259.384 C 135.265 261.133, 137.512 262.124, 139.274 261.448 C 139.975 261.180, 147.056 247.919, 155.010 231.980 C 162.964 216.041, 169.714 203, 170.009 203 C 170.304 203, 177.101 216.162, 185.113 232.250 L 199.681 261.500 232.090 261.779 C 249.916 261.933, 265.463 261.825, 266.640 261.538 C 267.817 261.252, 269.047 260.321, 269.373 259.470 C 269.722 258.560, 263.377 244.746, 253.984 225.967 L 238 194.012 238 161.577 C 238 133.425, 237.793 128.935, 236.429 127.571 C 234.455 125.598, 233.545 125.598, 231.571 127.571 C 230.207 128.935, 230 133.424, 230 161.567 L 230 193.991 216.258 221.495 C 208.701 236.623, 202.284 249, 202 249 C 201.716 249, 195.299 236.623, 187.742 221.495 L 174 193.991 174 161.567 C 174 133.424, 173.793 128.935, 172.429 127.571 C 171.564 126.707, 170.471 126, 170 126 C 169.529 126, 168.436 126.707, 167.571 127.571 M 31.054 135.728 C 24.787 137.940, 17.726 145.297, 15.534 151.899 C 13.881 156.875, 13.875 157.704, 15.430 166.205 C 18.769 184.454, 25.331 200.650, 35.740 216.330 C 41.768 225.410, 57.343 241.046, 66.659 247.369 L 73.817 252.228 79.235 248.632 C 104.319 231.983, 122.938 205.409, 130.553 175.392 C 134.737 158.897, 133.307 150.212, 125.048 141.952 C 117.477 134.382, 106.241 131.995, 95.463 135.667 C 86.088 138.862, 78 149.949, 78 159.607 C 78 162.970, 75.867 166, 73.500 166 C 71.133 166, 69 162.970, 69 159.607 C 69 149.949, 60.912 138.862, 51.537 135.667 C 45.516 133.616, 36.964 133.641, 31.054 135.728 M 220.743 228.500 L 208.005 254 234 254 L 259.995 254 247.257 228.500 C 240.250 214.475, 234.285 203, 234 203 C 233.715 203, 227.750 214.475, 220.743 228.500 " stroke="none" fill="black" fill-rule="evenodd"/>
</svg>