<svg xmlns="http://www.w3.org/2000/svg" width="212" height="324" viewBox="0 0 212 324" version="1.1">
	<path d="M 39.571 127.571 C 38.176 128.966, 38 136.152, 38 191.571 L 38 254 23.571 254 C 11.788 254, 8.855 254.288, 7.571 255.571 C 5.598 257.545, 5.598 258.455, 7.571 260.429 C 8.936 261.793, 13.463 262, 42 262 C 70.537 262, 75.064 261.793, 76.429 260.429 C 77.293 259.564, 78 258.471, 78 258 C 78 257.529, 77.293 256.436, 76.429 255.571 C 75.145 254.288, 72.212 254, 60.429 254 L 46 254 46 191.571 C 46 136.152, 45.824 128.966, 44.429 127.571 C 43.564 126.707, 42.471 126, 42 126 C 41.529 126, 40.436 126.707, 39.571 127.571 M 168.369 126.765 C 166.390 128.050, 102.009 257.860, 102.594 259.385 C 103.301 261.228, 105.539 262.114, 107.543 261.345 C 108.392 261.019, 121.869 235.271, 137.492 204.127 L 165.898 147.500 165.949 200.750 L 166 254 151.571 254 C 139.788 254, 136.855 254.288, 135.571 255.571 C 133.598 257.545, 133.598 258.455, 135.571 260.429 C 136.936 261.793, 141.430 262, 169.637 262 C 190.124 262, 202.846 261.617, 204.066 260.965 C 206.554 259.633, 206.554 256.367, 204.066 255.035 C 202.995 254.462, 195.849 254, 188.066 254 L 174 254 174 191.200 C 174 127.763, 173.905 125.966, 170.550 126.015 C 169.972 126.024, 168.991 126.361, 168.369 126.765 " stroke="none" fill="black" fill-rule="evenodd"/>
</svg>