<svg xmlns="http://www.w3.org/2000/svg" width="180" height="324" viewBox="0 0 180 324" version="1.1">
	<path d="M 40.316 62.784 C 38.369 64.022, 22.007 97.855, 22.604 99.410 C 23.269 101.144, 25.524 102.120, 27.295 101.440 C 28.007 101.167, 31.480 95.106, 35.014 87.972 C 38.547 80.837, 41.691 75, 42 75 C 42.309 75, 45.453 80.837, 48.986 87.972 C 52.520 95.106, 55.993 101.167, 56.705 101.440 C 58.476 102.120, 60.731 101.144, 61.396 99.410 C 61.993 97.855, 45.631 64.022, 43.684 62.784 C 42.206 61.844, 41.794 61.844, 40.316 62.784 M 71.571 127.571 C 70.178 128.965, 70 135.899, 70 188.799 L 70 248.455 40.711 219.227 C 24.602 203.152, 10.909 190, 10.282 190 C 8.799 190, 6 192.814, 6 194.305 C 6 195.823, 72.177 262, 73.695 262 C 74.334 262, 75.564 261.293, 76.429 260.429 C 77.825 259.032, 78 251.628, 78 194 C 78 136.372, 77.825 128.968, 76.429 127.571 C 75.564 126.707, 74.471 126, 74 126 C 73.529 126, 72.436 126.707, 71.571 127.571 M 103.571 159.571 C 101.215 161.927, 101.215 210.073, 103.571 212.429 C 104.436 213.293, 105.529 214, 106 214 C 106.471 214, 107.564 213.293, 108.429 212.429 C 110.785 210.073, 110.785 161.927, 108.429 159.571 C 107.564 158.707, 106.471 158, 106 158 C 105.529 158, 104.436 158.707, 103.571 159.571 M 135.571 159.571 C 133.215 161.927, 133.215 210.073, 135.571 212.429 C 136.436 213.293, 137.529 214, 138 214 C 138.471 214, 139.564 213.293, 140.429 212.429 C 142.785 210.073, 142.785 161.927, 140.429 159.571 C 139.564 158.707, 138.471 158, 138 158 C 137.529 158, 136.436 158.707, 135.571 159.571 M 103.571 222.571 C 102.707 223.436, 102 224.529, 102 225 C 102 225.471, 102.707 226.564, 103.571 227.429 C 104.436 228.293, 105.529 229, 106 229 C 106.471 229, 107.564 228.293, 108.429 227.429 C 109.293 226.564, 110 225.471, 110 225 C 110 224.529, 109.293 223.436, 108.429 222.571 C 107.564 221.707, 106.471 221, 106 221 C 105.529 221, 104.436 221.707, 103.571 222.571 M 135.571 222.571 C 134.707 223.436, 134 224.529, 134 225 C 134 225.471, 134.707 226.564, 135.571 227.429 C 136.436 228.293, 137.529 229, 138 229 C 138.471 229, 139.564 228.293, 140.429 227.429 C 141.293 226.564, 142 225.471, 142 225 C 142 224.529, 141.293 223.436, 140.429 222.571 C 139.564 221.707, 138.471 221, 138 221 C 137.529 221, 136.436 221.707, 135.571 222.571 " stroke="none" fill="black" fill-rule="evenodd"/>
</svg>