<svg xmlns="http://www.w3.org/2000/svg" width="244" height="324" viewBox="0 0 244 324" version="1.1">
	<path d="M 39.571 127.571 C 38.207 128.935, 38 133.425, 38 161.577 L 38 194.012 22.016 225.967 C 13.225 243.542, 6.285 258.580, 6.594 259.384 C 7.265 261.133, 9.512 262.124, 11.274 261.448 C 11.975 261.180, 19.056 247.919, 27.010 231.980 C 34.964 216.041, 41.710 203, 42 203 C 42.290 203, 49.036 216.041, 56.990 231.980 C 64.944 247.919, 72.025 261.180, 72.726 261.448 C 74.488 262.124, 76.735 261.133, 77.406 259.384 C 77.715 258.580, 70.775 243.542, 61.984 225.967 L 46 194.012 46 161.577 C 46 133.425, 45.793 128.935, 44.429 127.571 C 43.564 126.707, 42.471 126, 42 126 C 41.529 126, 40.436 126.707, 39.571 127.571 M 116.764 190.996 C 111.184 192.676, 107.145 196.067, 104.571 201.234 C 103.157 204.071, 102 207.397, 102 208.625 C 102 210.848, 104.355 214, 106.015 214 C 107.484 214, 110 209.693, 110 207.177 C 110 205.807, 111.440 203.360, 113.400 201.400 C 116.278 198.522, 117.504 198, 121.384 198 C 125.036 198, 126.632 198.593, 129.234 200.918 C 132.194 203.563, 132.500 204.367, 132.500 209.500 C 132.500 214.633, 132.194 215.437, 129.234 218.082 C 127.438 219.687, 124.883 221, 123.556 221 C 120.914 221, 118 223.360, 118 225.500 C 118 227.640, 120.914 230, 123.556 230 C 124.883 230, 127.438 231.313, 129.234 232.918 C 132.194 235.563, 132.500 236.367, 132.500 241.500 C 132.500 246.633, 132.194 247.437, 129.234 250.082 C 122.621 255.991, 112.361 252.767, 110.012 244.043 C 108.819 239.615, 106.930 237.706, 104.618 238.593 C 99.507 240.554, 104.016 253.202, 111.324 257.403 C 119.745 262.244, 127.133 261.585, 134.001 255.380 C 141.973 248.178, 142.385 236.174, 134.924 228.438 L 131.972 225.375 134.581 222.938 C 138.558 219.222, 140 215.647, 140 209.500 C 140 202.952, 138.435 199.467, 133.578 195.203 C 128.492 190.737, 122.556 189.252, 116.764 190.996 M 199.571 223.571 C 198.288 224.855, 198 227.788, 198 239.571 L 198 254 183.571 254 C 171.788 254, 168.855 254.288, 167.571 255.571 C 165.598 257.545, 165.598 258.455, 167.571 260.429 C 168.855 261.712, 171.788 262, 183.571 262 L 198 262 198 276.429 C 198 288.212, 198.288 291.145, 199.571 292.429 C 201.457 294.315, 202.219 294.381, 203.800 292.800 C 204.625 291.975, 205 286.984, 205 276.826 L 205 262.052 220.142 261.776 C 233.291 261.536, 235.430 261.270, 236.387 259.750 C 237.191 258.475, 237.191 257.525, 236.387 256.250 C 235.430 254.730, 233.291 254.464, 220.142 254.224 L 205 253.948 205 239.174 C 205 229.016, 204.625 224.025, 203.800 223.200 C 202.219 221.619, 201.457 221.685, 199.571 223.571 " stroke="none" fill="black" fill-rule="evenodd"/>
</svg>