<svg xmlns="http://www.w3.org/2000/svg" width="308" height="324" viewBox="0 0 308 324" version="1.1">
	<path d="M 39.230 159.285 L 6 192.569 6 225.713 C 6 254.511, 6.206 259.063, 7.571 260.429 C 8.968 261.825, 16.343 261.998, 73.821 261.985 C 109.395 261.976, 139.081 261.601, 139.790 261.151 C 140.802 260.509, 141.081 253.049, 141.083 226.582 L 141.086 192.831 108.228 159.416 C 90.156 141.037, 74.715 126, 73.915 126 C 73.115 126, 57.506 140.978, 39.230 159.285 M 194.355 126.992 C 182.348 129.505, 171.821 139.118, 167.974 151.080 C 165.830 157.748, 165.732 158.949, 166.763 165.917 C 169.339 183.326, 177.441 203.786, 188.019 219.593 C 195.438 230.680, 212.399 247.376, 223.859 254.876 C 229.007 258.244, 233.602 261, 234.070 261 C 234.539 261, 235.727 260.170, 236.711 259.156 C 237.695 258.141, 241.425 255.351, 245 252.956 C 253.910 246.986, 269.469 231.680, 276.366 222.100 C 290.484 202.493, 301.261 172.506, 299.683 157.222 C 297.723 138.227, 278.178 123.462, 259.553 126.906 C 249.707 128.726, 239.940 135.214, 235.350 142.984 C 234.370 144.643, 233.328 145.984, 233.034 145.963 C 232.740 145.943, 231.201 143.878, 229.613 141.374 C 222.853 130.711, 207.164 124.312, 194.355 126.992 M 191.885 135.380 C 181.179 139.205, 173.857 149.373, 173.857 160.413 C 173.857 167.041, 177.008 180.497, 180.952 190.707 C 189.502 212.843, 206.390 234.171, 225.953 247.538 L 233 252.353 240.248 247.427 C 266.491 229.588, 285.804 199.720, 291.608 167.996 C 293.073 159.989, 293.075 158.769, 291.625 153.781 C 285.964 134.309, 260.721 127.383, 246.161 141.307 C 241.750 145.524, 238.265 152.523, 237.426 158.845 C 236.603 165.047, 234.982 166.768, 231.470 165.168 C 229.687 164.356, 229 163.253, 229 161.203 C 229 151.481, 221.866 140.739, 212.500 136.358 C 206.785 133.685, 197.818 133.259, 191.885 135.380 M 43.744 165.756 L 14 195.512 14 224.756 L 14 254 74 254 L 134 254 134 224.744 L 134 195.487 104.244 165.744 C 87.878 149.385, 74.263 136, 73.988 136 C 73.713 136, 60.103 149.390, 43.744 165.756 " stroke="none" fill="black" fill-rule="evenodd"/>
</svg>