<svg xmlns="http://www.w3.org/2000/svg" width="308" height="324" viewBox="0 0 308 324" version="1.1">
	<path d="M 232.207 126.681 C 231.495 126.964, 227.110 134.791, 222.462 144.075 L 214.011 160.955 211.256 159.846 C 209.740 159.237, 205.125 158.717, 201 158.692 C 190.675 158.629, 182.981 162.092, 175.502 170.171 C 166.507 179.887, 164.020 191.380, 168.074 204.506 C 169.825 210.173, 171.114 212.181, 176.324 217.361 L 182.500 223.500 174.010 240.757 C 167.113 254.775, 165.726 258.342, 166.619 259.757 C 167.629 261.358, 170.467 261.500, 201.500 261.500 C 232.586 261.500, 235.370 261.360, 236.386 259.750 C 237.191 258.474, 237.191 257.526, 236.386 256.250 C 235.382 254.658, 232.613 254.476, 205.654 254.235 L 176.024 253.970 182.733 240.509 L 189.442 227.047 193.471 227.774 C 211.625 231.047, 227.690 222.092, 234.052 205.153 C 238.612 193.010, 235.109 178.056, 225.437 168.385 L 220.715 163.662 229.092 146.815 C 235.725 133.474, 237.249 129.619, 236.413 128.293 C 235.208 126.383, 234.061 125.943, 232.207 126.681 M 278.200 127.200 C 276.401 128.999, 276.707 130.189, 279.992 134.174 C 284.495 139.637, 287.719 146.742, 289.103 154.256 C 291.437 166.925, 287.681 178.270, 276.456 192.453 C 273.429 196.278, 269.890 201.678, 268.591 204.453 C 260.684 221.349, 263.177 240.914, 275.155 255.957 C 278.479 260.132, 279.753 261.050, 281.878 260.804 C 285.969 260.330, 285.862 256.697, 281.619 252 C 277.114 247.013, 274.372 241.612, 272.361 233.764 C 269.235 221.561, 272.414 209.845, 282.420 196.693 C 290.709 185.798, 293.539 180.719, 295.426 173.356 C 299.263 158.378, 296.083 143.254, 286.442 130.628 C 282.898 125.986, 280.437 124.963, 278.200 127.200 M 189.500 168.387 C 172.075 176.639, 168.184 200.009, 181.991 213.491 L 185.858 217.268 198.381 192.238 C 212.539 163.940, 212.370 166.031, 200.500 166.023 C 196.258 166.021, 193.035 166.713, 189.500 168.387 M 205.106 195.170 C 197.236 211.359, 193.650 219.746, 194.389 220.235 C 195 220.639, 198.200 220.972, 201.500 220.975 C 219.609 220.992, 232.747 203.388, 227.663 185.917 C 226.007 180.226, 222.545 174.770, 219.025 172.305 C 216.988 170.878, 216.625 171.475, 205.106 195.170 M 127.500 191.077 C 113.839 193.075, 100.021 200.074, 90.048 210.048 C 79.165 220.930, 73.238 233.125, 70.507 250.250 L 69.909 254 39.526 254 C 13.238 254, 8.931 254.212, 7.571 255.571 C 5.598 257.545, 5.598 258.455, 7.571 260.429 C 8.864 261.721, 11.880 262, 24.584 262 L 40.025 262 55.263 292.926 L 70.500 323.853 73.747 323.926 L 76.994 324 92.487 293.025 L 107.981 262.051 123.633 261.775 C 137.268 261.535, 139.427 261.274, 140.387 259.750 C 141.191 258.475, 141.190 257.525, 140.386 256.250 C 139.381 254.655, 136.559 254.477, 108.505 254.235 L 77.728 253.971 78.373 248.485 C 80.420 231.067, 93.525 212.797, 109.877 204.562 C 118.141 200.400, 123.509 198.859, 132.396 198.094 C 139.982 197.441, 142.495 195.605, 140.394 192.250 C 139.102 190.186, 135.706 189.877, 127.500 191.077 M 60.743 287.500 C 67.750 301.525, 73.715 313, 74 313 C 74.285 313, 80.250 301.525, 87.257 287.500 L 99.995 262 74 262 L 48.005 262 60.743 287.500 " stroke="none" fill="black" fill-rule="evenodd"/>
</svg>