<svg xmlns="http://www.w3.org/2000/svg" width="212" height="324" viewBox="0 0 212 324" version="1.1">
	<path d="M 39.267 159.267 L 6 192.533 6 225.695 C 6 254.509, 6.206 259.063, 7.571 260.429 C 8.968 261.825, 16.406 262, 74.371 262 C 123.771 262, 139.891 261.709, 140.800 260.800 C 141.686 259.914, 142 250.810, 142 226.044 L 142 192.489 108.744 159.244 C 90.454 140.960, 74.824 126, 74.011 126 C 73.198 126, 57.563 140.970, 39.267 159.267 M 179.605 130.307 C 177.664 132.675, 174.596 137.738, 172.788 141.557 C 169.616 148.254, 169.500 148.942, 169.500 161 C 169.500 172.978, 169.633 173.781, 172.687 180.227 C 174.440 183.927, 177.477 189.054, 179.437 191.621 L 183 196.288 183 224.710 C 183 243.501, 182.627 253.829, 181.898 255.191 C 180.983 256.900, 181.217 257.671, 183.273 259.727 C 185.361 261.816, 186.083 262.026, 187.875 261.067 C 189.044 260.441, 190 259.240, 190 258.398 C 190 257.556, 191.107 255.415, 192.460 253.641 C 199.654 244.210, 203.197 229.604, 201.165 217.755 C 199.826 209.947, 196.398 201.522, 192.460 196.359 L 190 193.133 190 160.767 C 190 136.926, 189.684 128.084, 188.800 127.200 C 186.422 124.822, 183.210 125.908, 179.605 130.307 M 43.745 165.755 L 14 195.512 14 224.756 L 14 254 74 254 L 134 254 134 224.604 L 134 195.207 104.448 165.854 C 88.195 149.709, 74.580 136.387, 74.193 136.248 C 73.807 136.110, 60.105 149.388, 43.745 165.755 M 180.634 141.750 C 178.041 146.782, 176 155.295, 176 161.076 C 176 167.151, 178.943 178.216, 181.436 181.514 C 182.785 183.299, 182.940 181.253, 182.968 161.250 C 182.986 149.012, 182.787 139, 182.526 139 C 182.265 139, 181.414 140.238, 180.634 141.750 M 190.163 225 C 190.163 241.949, 190.284 243.224, 191.601 240.209 C 194.886 232.692, 194.917 217.412, 191.663 209.943 C 190.260 206.722, 190.163 207.691, 190.163 225 " stroke="none" fill="black" fill-rule="evenodd"/>
</svg>