<svg xmlns="http://www.w3.org/2000/svg" width="148" height="324" viewBox="0 0 148 324" version="1.1">
	<path d="M 3.875 187.506 C 2.432 188.291, 1 189.893, 0.693 191.067 C 0.095 193.354, 1.761 198, 3.180 198 C 3.652 198, 3.800 199.012, 3.509 200.250 C 2.780 203.349, 4.265 205.240, 7.111 204.837 C 8.968 204.575, 9.996 203.238, 11.752 198.806 C 14.318 192.330, 13.646 189.071, 9.343 187.110 C 6.466 185.800, 7.101 185.754, 3.875 187.506 M 34.875 187.506 C 33.432 188.291, 31.999 189.896, 31.691 191.074 C 30.994 193.740, 32.370 197.544, 34.300 198.285 C 35.270 198.657, 35.582 199.735, 35.239 201.528 C 34.352 206.172, 38.902 207.605, 41.577 203.523 C 45.778 197.111, 45.212 189.329, 40.385 187.130 C 37.460 185.797, 38.102 185.753, 34.875 187.506 M 103.656 190.750 C 99.525 197.458, 70.200 258.358, 70.600 259.400 C 71.406 261.502, 74.026 262.224, 75.726 260.813 C 76.535 260.141, 83.622 246.749, 91.474 231.052 L 105.750 202.514 120.313 231.626 C 128.486 247.965, 135.617 261.023, 136.565 261.386 C 138.679 262.198, 141 260.358, 141 257.871 C 141 255.637, 109.272 191.833, 107.630 190.765 C 106.160 189.809, 104.240 189.802, 103.656 190.750 " stroke="none" fill="black" fill-rule="evenodd"/>
</svg>