<svg xmlns="http://www.w3.org/2000/svg" width="532" height="324" viewBox="0 0 532 324" version="1.1">
	<path d="M 162.223 159.062 C 152.059 161.065, 142.033 169.381, 137.189 179.825 C 133.440 187.907, 133.440 199.093, 137.189 207.175 C 144.145 222.173, 160.486 231.176, 175.135 228.082 C 192.857 224.339, 204.193 210.848, 204.193 193.500 C 204.193 176.826, 193.384 163.182, 177.147 159.360 C 170.857 157.880, 168.464 157.832, 162.223 159.062 M 391.750 159.080 C 390.138 160.019, 390 162.769, 390 194.015 C 390 227.854, 390.005 227.932, 392.183 229.098 C 394.042 230.093, 394.636 229.933, 396.183 228.022 C 397.744 226.094, 398 223.822, 398 211.889 L 398 198 458 198 L 518 198 518 212.965 C 518 227.181, 518.106 227.986, 520.117 229.062 C 524.830 231.585, 525.043 230.068, 525.043 194 C 525.043 157.932, 524.830 156.415, 520.117 158.938 C 518.106 160.014, 518 160.819, 518 175.035 L 518 190 458 190 L 398 190 398 176.223 C 398 165.371, 397.669 161.973, 396.443 160.223 C 394.702 157.736, 394.248 157.625, 391.750 159.080 M 159.463 167.591 C 153.971 169.541, 148.552 174.205, 145.249 179.824 C 142.800 183.989, 142.500 185.483, 142.500 193.500 C 142.500 201.517, 142.800 203.011, 145.249 207.176 C 153.926 221.937, 173.604 225.610, 187.031 214.976 C 192.751 210.445, 197 201.292, 197 193.500 C 197 182.038, 189.486 171.200, 178.965 167.488 C 173.740 165.644, 164.813 165.692, 159.463 167.591 M 20.169 193.460 C 12.479 202.218, 8.620 212.757, 8.619 225 C 8.618 238.014, 12.746 248.481, 21.808 258.438 L 25.049 262 57.953 262 C 86.533 262, 91.064 261.793, 92.429 260.429 C 93.293 259.564, 94 258.454, 94 257.962 C 94 257.470, 95.730 254.391, 97.844 251.120 C 108.175 235.136, 107.782 213.046, 96.890 197.444 C 94.608 194.175, 92.236 191.169, 91.620 190.765 C 91.004 190.361, 75.359 190.024, 56.854 190.015 L 23.207 190 20.169 193.460 M 231.579 191.564 C 229.598 193.545, 229.596 194.454, 231.571 196.429 C 232.844 197.701, 235.697 198, 246.575 198 L 260.006 198 245.020 227.961 C 236.777 244.439, 230.285 258.580, 230.594 259.384 C 231.265 261.133, 233.512 262.125, 235.274 261.448 C 235.975 261.180, 243.056 247.919, 251.010 231.980 C 258.964 216.041, 265.727 203, 266.038 203 C 266.350 203, 273.069 216.070, 280.971 232.045 C 288.872 248.020, 295.715 261.324, 296.178 261.610 C 298.840 263.255, 301.419 259.193, 315.125 231.762 L 329.744 202.502 344.310 231.620 C 352.485 247.962, 359.617 261.023, 360.565 261.386 C 362.679 262.198, 365 260.358, 365 257.871 C 365 256.835, 358.480 242.952, 350.511 227.021 L 336.021 198.056 349.653 197.778 C 361.361 197.539, 363.441 197.253, 364.388 195.750 C 365.191 194.475, 365.190 193.525, 364.386 192.250 C 363.356 190.617, 358.934 190.483, 298.220 190.243 C 240.058 190.013, 232.990 190.153, 231.579 191.564 M 23.299 201.257 C 17.819 209.332, 16.500 213.937, 16.500 225 C 16.500 234.307, 16.805 236.152, 19.188 241.235 C 20.666 244.390, 23.082 248.552, 24.557 250.485 L 27.237 254 57 254 L 86.763 254 89.443 250.485 C 90.918 248.552, 93.334 244.390, 94.812 241.235 C 97.195 236.152, 97.500 234.307, 97.500 225 C 97.500 213.937, 96.181 209.332, 90.701 201.257 L 88.500 198.014 57 198.014 L 25.500 198.014 23.299 201.257 M 284.608 223.250 C 291.546 237.137, 297.371 248.661, 297.553 248.859 C 297.878 249.211, 323 199.502, 323 198.508 C 323 198.228, 311.523 198, 297.496 198 L 271.992 198 284.608 223.250 M 135.571 255.571 C 134.707 256.436, 134 257.529, 134 258 C 134 258.471, 134.707 259.564, 135.571 260.429 C 136.936 261.793, 141.463 262, 170 262 C 198.537 262, 203.064 261.793, 204.429 260.429 C 205.293 259.564, 206 258.471, 206 258 C 206 257.529, 205.293 256.436, 204.429 255.571 C 203.064 254.207, 198.537 254, 170 254 C 141.463 254, 136.936 254.207, 135.571 255.571 " stroke="none" fill="black" fill-rule="evenodd"/>
</svg>