<svg xmlns="http://www.w3.org/2000/svg" width="212" height="324" viewBox="0 0 212 324" version="1.1">
	<path d="M 67 126.637 C 49.023 129.262, 36.267 135.634, 24.973 147.630 C 17.823 155.225, 13.393 162.294, 10.411 170.869 C -2.910 209.174, 19.283 249.463, 59 259.075 C 66.559 260.905, 82.075 260.687, 89.887 258.643 C 103.272 255.140, 116.213 246.952, 125.002 236.426 C 137.019 222.034, 142.971 202.319, 140.331 185.649 C 137.021 164.758, 126.795 148.359, 110.208 137.350 C 98.120 129.326, 79.760 124.774, 67 126.637 M 179.637 127.420 C 174.879 129.171, 170.204 133.447, 168.377 137.718 C 166.623 141.818, 166.610 149.132, 168.351 153.298 C 171.298 160.350, 181.285 165.930, 188.334 164.463 C 193.494 163.389, 199.662 159.282, 202.157 155.259 C 205.419 149.999, 205.419 141.001, 202.157 135.741 C 197.660 128.490, 187.214 124.630, 179.637 127.420 M 58.645 135.584 C 38.671 140.419, 20.279 158.986, 15.537 179.103 C 10.672 199.742, 16.569 220.600, 31.484 235.516 C 50.007 254.038, 77.391 258.389, 100.908 246.546 C 117.250 238.316, 130.280 220.445, 132.580 203.106 L 133.258 198 103.200 198 C 77.209 198, 72.930 197.787, 71.571 196.429 C 70.212 195.069, 70 190.758, 70 164.429 L 70 134 67.250 134.083 C 65.737 134.129, 61.865 134.804, 58.645 135.584 M 78 162 L 78 190 105.638 190 L 133.275 190 132.629 184.499 C 130.022 162.323, 111.143 141.464, 88.356 135.585 C 76.914 132.633, 78 129.863, 78 162 M 179.217 135.561 C 176.408 137.528, 174 142.116, 174 145.500 C 174 148.884, 176.408 153.472, 179.217 155.439 C 182.749 157.913, 189.318 157.445, 192.857 154.467 C 199.036 149.268, 198.872 141.191, 192.486 136.168 C 189.176 133.564, 182.504 133.258, 179.217 135.561 " stroke="none" fill="black" fill-rule="evenodd"/>
</svg>