<svg xmlns="http://www.w3.org/2000/svg" width="180" height="324" viewBox="0 0 180 324" version="1.1">
	<path d="M 40.372 62.765 C 38.418 64.037, 22.003 97.844, 22.593 99.381 C 23.268 101.141, 25.513 102.124, 27.295 101.440 C 28.007 101.167, 31.480 95.106, 35.014 87.972 C 38.547 80.837, 41.691 75, 42 75 C 42.309 75, 45.453 80.837, 48.986 87.972 C 52.520 95.106, 55.993 101.167, 56.705 101.440 C 58.487 102.124, 60.732 101.141, 61.407 99.381 C 61.716 98.575, 58.096 90.173, 53.363 80.708 C 45.638 65.261, 43.672 62.031, 42 62.031 C 41.725 62.031, 40.992 62.361, 40.372 62.765 M 7.571 127.571 C 6.207 128.936, 6 133.463, 6 162 C 6 190.537, 6.207 195.064, 7.571 196.429 C 8.936 197.793, 13.463 198, 42 198 C 70.537 198, 75.064 197.793, 76.429 196.429 C 78.402 194.455, 78.402 193.545, 76.429 191.571 C 75.069 190.212, 70.758 190, 44.429 190 L 14 190 14 159.571 C 14 133.242, 13.788 128.931, 12.429 127.571 C 11.564 126.707, 10.471 126, 10 126 C 9.529 126, 8.436 126.707, 7.571 127.571 M 103.627 127.515 C 102.732 128.411, 102 129.529, 102 130 C 102 132.122, 105.426 134.001, 109.321 134.015 C 132.830 134.098, 157.745 154.847, 163.463 179.103 C 165.390 187.282, 165.390 199.718, 163.463 207.897 C 157.754 232.113, 132.791 252.902, 109.321 252.985 C 105.426 252.999, 102 254.878, 102 257 C 102 257.471, 102.732 258.589, 103.627 259.485 C 106.671 262.528, 123.409 259.276, 136 253.193 C 146.580 248.082, 160.082 234.580, 165.193 224 C 170.463 213.091, 172.304 205.193, 172.304 193.500 C 172.304 175.955, 166.691 161.310, 155.214 148.914 C 142.734 135.434, 129.328 128.668, 110.877 126.537 C 106.402 126.020, 104.923 126.220, 103.627 127.515 M 103.571 191.571 C 102.707 192.436, 102 193.529, 102 194 C 102 194.471, 102.707 195.564, 103.571 196.429 C 104.436 197.293, 105.529 198, 106 198 C 106.471 198, 107.564 197.293, 108.429 196.429 C 109.293 195.564, 110 194.471, 110 194 C 110 193.529, 109.293 192.436, 108.429 191.571 C 107.564 190.707, 106.471 190, 106 190 C 105.529 190, 104.436 190.707, 103.571 191.571 " stroke="none" fill="black" fill-rule="evenodd"/>
</svg>