<svg xmlns="http://www.w3.org/2000/svg" width="148" height="324" viewBox="0 0 148 324" version="1.1">
	<path d="M 23.571 63.571 C 22.707 64.436, 22 65.317, 22 65.531 C 22 66.993, 39.421 100.653, 40.488 101.252 C 41.225 101.665, 42.440 101.768, 43.188 101.481 C 44.837 100.849, 61 68.755, 61 66.115 C 61 63.770, 58.710 61.790, 56.832 62.511 C 56.050 62.811, 52.520 68.894, 48.986 76.028 C 45.453 83.163, 42.308 89, 41.997 89 C 41.687 89, 38.748 83.534, 35.467 76.853 C 27.925 61.499, 26.847 60.296, 23.571 63.571 M 71.821 127.358 C 71.095 128.105, 66.907 135.987, 62.516 144.875 C 56.444 157.166, 54.170 160.894, 53.016 160.448 C 48.296 158.622, 41.188 158.059, 35.616 159.070 C 6.841 164.288, -3.524 199.958, 18.088 219.389 L 23.075 223.873 14.553 240.895 C 9.641 250.706, 6.283 258.573, 6.626 259.467 C 6.953 260.320, 8.183 261.252, 9.360 261.538 C 10.537 261.825, 25.851 261.933, 43.391 261.780 C 72.497 261.524, 75.379 261.347, 76.386 259.750 C 77.191 258.474, 77.191 257.526, 76.386 256.250 C 75.382 254.658, 72.613 254.476, 45.654 254.235 L 16.024 253.970 22.757 240.461 L 29.490 226.951 33.995 227.725 C 46.270 229.836, 57.177 226.683, 65.353 218.661 C 73.450 210.714, 75.500 205.633, 75.500 193.500 C 75.500 181.634, 73.572 176.662, 65.877 168.678 L 61.118 163.741 69.059 147.882 C 77.139 131.747, 77.927 129.327, 75.800 127.200 C 74.255 125.655, 73.447 125.688, 71.821 127.358 M 118.667 126.667 C 117.220 128.113, 118.142 131.392, 121.016 135.020 C 122.675 137.115, 125.256 141.454, 126.753 144.664 C 129.148 149.802, 129.472 151.696, 129.459 160.500 C 129.441 173.225, 127.299 178.934, 118.299 190.258 C 110.295 200.328, 106.450 208.212, 104.891 217.750 C 102.704 231.139, 107.236 246.876, 116.024 256.410 C 120.318 261.069, 122.636 261.964, 124.800 259.800 C 126.570 258.030, 126.387 257.569, 121.833 252.311 C 113.896 243.148, 110.473 231.275, 112.177 218.815 C 113.289 210.681, 116.494 204.052, 123.449 195.500 C 133.206 183.504, 137 173.844, 137 161 C 137 149.392, 133.373 138.957, 126.312 130.250 C 123.137 126.334, 120.320 125.013, 118.667 126.667 M 31.627 167.417 C 26.202 169.422, 21.016 173.865, 17.500 179.519 C 14.741 183.955, 14.500 185.073, 14.500 193.422 C 14.500 201.509, 14.798 203.007, 17.230 207.145 C 18.732 209.699, 21.408 213.007, 23.176 214.495 L 26.392 217.201 38.754 192.492 C 45.553 178.902, 50.835 167.502, 50.491 167.158 C 49.157 165.824, 35.427 166.013, 31.627 167.417 M 45.289 195.408 C 31.853 222.308, 32.051 221, 41.404 221 C 52.081 221, 61.969 214.883, 66.459 205.500 C 68.877 200.449, 69.607 191.238, 68.035 185.623 C 66.867 181.452, 60.556 171.994, 58.492 171.323 C 57.937 171.142, 51.996 181.981, 45.289 195.408 " stroke="none" fill="black" fill-rule="evenodd"/>
</svg>