<svg xmlns="http://www.w3.org/2000/svg" width="148" height="324" viewBox="0 0 148 324" version="1.1">
	<path d="M 39.571 127.571 C 38.207 128.935, 38 133.425, 38 161.577 L 38 194.012 22 226 C 13.200 243.593, 6 258.183, 6 258.423 C 6 258.662, 6.707 259.564, 7.571 260.429 C 8.936 261.793, 13.463 262, 42 262 C 70.537 262, 75.064 261.793, 76.429 260.429 C 77.293 259.564, 78 258.662, 78 258.423 C 78 258.183, 70.800 243.593, 62 226 L 46 194.012 46 161.577 C 46 133.425, 45.793 128.935, 44.429 127.571 C 43.564 126.707, 42.471 126, 42 126 C 41.529 126, 40.436 126.707, 39.571 127.571 M 111.184 199.365 C 106.133 204.516, 102 209.209, 102 209.794 C 102 210.954, 104.747 214, 105.792 214 C 106.150 214, 109.043 211.427, 112.221 208.281 L 118 202.563 118 228.281 L 118 254 111.571 254 C 107.061 254, 104.674 254.469, 103.571 255.571 C 101.593 257.550, 101.597 258.455, 103.595 260.452 C 104.952 261.810, 107.721 262.006, 122.237 261.773 C 137.203 261.533, 139.419 261.286, 140.387 259.750 C 141.189 258.477, 141.190 257.523, 140.390 256.250 C 139.542 254.901, 137.647 254.433, 132.109 254.205 L 124.927 253.911 125.044 222.814 C 125.190 183.877, 125.635 184.630, 111.184 199.365 M 28.743 228.500 L 16.005 254 42 254 L 67.995 254 55.257 228.500 C 48.250 214.475, 42.285 203, 42 203 C 41.715 203, 35.750 214.475, 28.743 228.500 " stroke="none" fill="black" fill-rule="evenodd"/>
</svg>