<svg xmlns="http://www.w3.org/2000/svg" width="340" height="324" viewBox="0 0 340 324" version="1.1">
	<path d="M 55.571 63.571 C 54.707 64.436, 54 65.317, 54 65.531 C 54 66.993, 71.421 100.653, 72.488 101.252 C 73.225 101.665, 74.440 101.768, 75.187 101.482 C 77.102 100.747, 94.082 66.377, 93.403 64.609 C 92.732 62.858, 90.483 61.877, 88.705 62.560 C 87.993 62.833, 84.520 68.894, 80.986 76.028 C 77.453 83.163, 74.308 89, 73.997 89 C 73.687 89, 70.748 83.534, 67.467 76.853 C 59.925 61.499, 58.847 60.296, 55.571 63.571 M 35.045 127.064 C 19.586 130.194, 7.255 144.080, 6.841 158.824 C 6.689 164.231, 10.459 179.667, 14.976 192.133 C 18.628 202.212, 26.063 215.568, 33.594 225.579 C 47.004 243.404, 74.270 264.227, 77.454 259.074 C 77.769 258.565, 81.733 255.561, 86.263 252.400 C 102.796 240.863, 118.290 222.751, 127.526 204.162 C 136.027 187.055, 141.511 165.812, 139.941 156.078 C 136.401 134.137, 113.568 120.988, 92.798 128.928 C 86.373 131.384, 78.359 138.062, 75.529 143.317 L 73.640 146.824 70.976 142.624 C 63.636 131.049, 48.255 124.389, 35.045 127.064 M 31.054 135.728 C 24.787 137.940, 17.726 145.297, 15.534 151.899 C 13.881 156.875, 13.875 157.704, 15.430 166.205 C 18.776 184.494, 25.269 200.593, 35.513 216 C 41.751 225.381, 57.226 240.966, 66.665 247.373 L 73.830 252.237 81.647 246.869 C 97.272 236.137, 111.646 219.492, 120.594 201.768 C 127.665 187.762, 133 169.625, 133 159.594 C 133 153.984, 127.997 143.968, 123.235 140.042 C 113.249 131.811, 97.154 132.040, 87.205 140.557 C 82.124 144.906, 78 153, 78 158.625 C 78 162.910, 76.115 166, 73.500 166 C 71.133 166, 69 162.970, 69 159.607 C 69 149.949, 60.912 138.862, 51.537 135.667 C 45.516 133.616, 36.964 133.641, 31.054 135.728 M 290.355 158.998 C 279.822 161.188, 270.117 169.138, 265.329 179.500 C 261.350 188.111, 261.383 198.888, 265.417 207.734 C 268.513 214.526, 275.138 221.505, 281.608 224.791 C 294.912 231.550, 311.191 228.924, 321.766 218.313 C 329.455 210.600, 331.477 205.432, 331.477 193.500 C 331.477 181.374, 329.431 176.293, 321.342 168.339 C 313.458 160.587, 300.909 156.804, 290.355 158.998 M 287.885 167.380 C 273.023 172.691, 265.571 190.196, 271.991 204.714 C 276.442 214.779, 284.401 220.129, 295.883 220.774 C 302.995 221.173, 303.931 220.978, 310 217.830 C 320.444 212.411, 325.773 202.629, 324.713 190.821 C 323.772 180.346, 316.582 170.975, 306.684 167.326 C 302.419 165.754, 292.355 165.782, 287.885 167.380 M 167.585 191.558 C 166.713 192.430, 166 193.529, 166 194 C 166 194.471, 166.713 195.570, 167.585 196.442 C 168.978 197.835, 173.159 197.995, 202.226 197.763 C 232.452 197.523, 235.377 197.350, 236.386 195.750 C 237.191 194.474, 237.191 193.526, 236.386 192.250 C 235.377 190.650, 232.452 190.477, 202.226 190.237 C 173.159 190.005, 168.978 190.165, 167.585 191.558 M 263.585 255.558 C 262.713 256.430, 262 257.529, 262 258 C 262 258.471, 262.713 259.570, 263.585 260.442 C 264.978 261.835, 269.159 261.995, 298.226 261.763 C 328.452 261.523, 331.377 261.350, 332.386 259.750 C 333.191 258.474, 333.191 257.526, 332.386 256.250 C 331.377 254.650, 328.452 254.477, 298.226 254.237 C 269.159 254.005, 264.978 254.165, 263.585 255.558 " stroke="none" fill="black" fill-rule="evenodd"/>
</svg>