<svg xmlns="http://www.w3.org/2000/svg" width="148" height="324" viewBox="0 0 148 324" version="1.1">
	<path d="M 39.571 127.571 C 38.176 128.966, 38 136.152, 38 191.571 L 38 254 23.571 254 C 11.788 254, 8.855 254.288, 7.571 255.571 C 5.598 257.545, 5.598 258.455, 7.571 260.429 C 8.936 261.793, 13.463 262, 42 262 C 70.537 262, 75.064 261.793, 76.429 260.429 C 77.293 259.564, 78 258.471, 78 258 C 78 257.529, 77.293 256.436, 76.429 255.571 C 75.145 254.288, 72.212 254, 60.429 254 L 46 254 46 191.571 C 46 136.152, 45.824 128.966, 44.429 127.571 C 43.564 126.707, 42.471 126, 42 126 C 41.529 126, 40.436 126.707, 39.571 127.571 M 111.230 199.269 C 106.154 204.367, 102 209.301, 102 210.234 C 102 211.720, 104.720 214, 106.494 214 C 106.838 214, 109.568 211.685, 112.560 208.855 L 118 203.710 118 228.855 L 118 254 111.934 254 C 105.019 254, 102 255.216, 102 258 C 102 261.473, 105.211 262.061, 122.622 261.774 C 137.221 261.534, 139.421 261.283, 140.387 259.750 C 142.532 256.345, 140 254.532, 132.646 254.204 L 126 253.909 126 223.526 C 126 197.238, 125.788 192.931, 124.429 191.571 C 123.564 190.707, 122.318 190, 121.659 190 C 121 190, 116.307 194.171, 111.230 199.269 " stroke="none" fill="black" fill-rule="evenodd"/>
</svg>