<svg xmlns="http://www.w3.org/2000/svg" width="308" height="324" viewBox="0 0 308 324" version="1.1">
	<path d="M 55.571 63.571 C 54.707 64.436, 54 65.317, 54 65.531 C 54 66.316, 71.159 100.529, 71.965 101.349 C 74.275 103.702, 76.913 100.229, 84.760 84.501 C 89.292 75.417, 93 67.143, 93 66.115 C 93 63.770, 90.710 61.790, 88.832 62.511 C 88.050 62.811, 84.520 68.894, 80.986 76.028 C 77.453 83.163, 74.306 89, 73.994 89 C 73.683 89, 70.969 83.984, 67.964 77.854 C 62.437 66.580, 59.559 62, 57.999 62 C 57.528 62, 56.436 62.707, 55.571 63.571 M 35.045 127.064 C 24.674 129.164, 14.828 136.537, 10.151 145.705 C 7.578 150.747, 5.616 161.395, 6.828 163.738 C 7.329 164.707, 8.527 169.100, 9.490 173.500 C 13.122 190.101, 19.200 204.421, 28.736 218.844 C 42.121 239.090, 73.693 265.161, 77.454 259.074 C 77.769 258.565, 81.706 255.570, 86.203 252.418 C 96.512 245.195, 107.905 233.942, 115.936 223.052 C 130.445 203.377, 142.081 170.827, 139.802 156.293 C 138.613 148.709, 134.671 141.346, 128.828 135.799 C 113.374 121.125, 87.558 124.480, 76.005 142.662 L 73.360 146.824 71.471 143.317 C 65.358 131.965, 48.340 124.371, 35.045 127.064 M 31.054 135.728 C 24.787 137.940, 17.726 145.297, 15.534 151.899 C 13.881 156.875, 13.875 157.704, 15.430 166.205 C 18.772 184.475, 25.252 200.548, 35.502 216 C 41.742 225.407, 57.252 241.032, 66.665 247.394 L 73.830 252.237 81.502 246.934 C 96.559 236.525, 111.143 219.907, 119.764 203.337 C 127.733 188.019, 133.910 165.555, 132.584 156.712 C 131.161 147.222, 123.232 138.158, 113.609 135.020 C 107.591 133.058, 97.093 134.170, 91.680 137.342 C 83.949 141.872, 78.067 150.781, 78.022 158.027 C 77.998 161.891, 75.675 166, 73.515 166 C 71.013 166, 69 162.918, 69 159.088 C 69 153.811, 63.742 143.755, 59.031 140.024 C 51.523 134.078, 40.514 132.388, 31.054 135.728 M 167.750 191.080 C 165.422 192.436, 165.524 195.675, 167.934 196.965 C 169.209 197.647, 191.550 198, 233.500 198 C 275.450 198, 297.791 197.647, 299.066 196.965 C 300.130 196.395, 301 195.061, 301 194 C 301 192.939, 300.130 191.605, 299.066 191.035 C 296.420 189.619, 170.184 189.662, 167.750 191.080 M 231.750 223.080 C 229.372 224.465, 229.542 227.685, 232.064 229.034 C 235.753 231.008, 238.819 226.219, 235.800 223.200 C 234.367 221.767, 234.022 221.757, 231.750 223.080 " stroke="none" fill="black" fill-rule="evenodd"/>
</svg>