<svg xmlns="http://www.w3.org/2000/svg" width="212" height="324" viewBox="0 0 212 324" version="1.1">
	<path d="M 54.535 0.944 C 53.758 2.201, 71.072 36.814, 72.813 37.482 C 73.560 37.768, 74.775 37.665, 75.512 37.252 C 77.319 36.238, 94.182 2.104, 93.456 0.929 C 93.140 0.418, 91.556 0, 89.936 0 C 87.164 0, 86.622 0.738, 80.763 12.500 C 77.339 19.375, 74.295 25, 74 25 C 73.705 25, 70.661 19.375, 67.237 12.500 C 61.378 0.738, 60.836 -0, 58.064 -0 C 56.444 -0, 54.856 0.425, 54.535 0.944 M 67 62.580 C 47.642 65.850, 36.088 71.756, 24.287 84.411 C 14.039 95.400, 8.260 108.458, 6.503 124.598 C 5.964 129.549, 6.150 131.007, 7.491 132.348 C 9.547 134.404, 10.439 134.418, 12.429 132.429 C 13.404 131.453, 14.006 129.082, 14.015 126.179 C 14.077 106.508, 28.124 85.239, 47 76.235 C 57.020 71.455, 63.312 69.995, 73.799 70.015 C 90.494 70.047, 104.140 75.821, 116.007 87.875 C 126.578 98.611, 133 112.638, 133 124.988 C 133 129.308, 135.075 134, 136.985 134 C 137.465 134, 138.614 133.243, 139.540 132.317 C 143.184 128.673, 138.489 107.177, 131.522 95.606 C 122.371 80.410, 107.070 68.857, 90.500 64.632 C 84.129 63.008, 71.167 61.876, 67 62.580 M 67 126.580 C 47.642 129.850, 36.088 135.756, 24.287 148.411 C 14.039 159.400, 8.260 172.458, 6.503 188.598 C 5.964 193.549, 6.150 195.007, 7.491 196.348 C 9.547 198.404, 10.439 198.418, 12.429 196.429 C 13.404 195.453, 14.006 193.082, 14.015 190.179 C 14.077 170.508, 28.124 149.239, 47 140.235 C 57.020 135.455, 63.312 133.995, 73.799 134.015 C 90.494 134.047, 104.140 139.821, 116.007 151.875 C 126.578 162.611, 133 176.638, 133 188.988 C 133 193.308, 135.075 198, 136.985 198 C 137.465 198, 138.614 197.243, 139.540 196.317 C 143.184 192.673, 138.489 171.177, 131.522 159.606 C 122.371 144.410, 107.070 132.857, 90.500 128.632 C 84.129 127.008, 71.167 125.876, 67 126.580 M 168.200 159.200 C 166.492 160.908, 166.492 211.092, 168.200 212.800 C 169.781 214.381, 170.543 214.315, 172.429 212.429 C 174.785 210.073, 174.785 161.927, 172.429 159.571 C 170.543 157.685, 169.781 157.619, 168.200 159.200 M 39.571 191.571 C 38.707 192.436, 38 193.529, 38 194 C 38 194.471, 38.707 195.564, 39.571 196.429 C 40.936 197.793, 45.463 198, 74 198 C 102.537 198, 107.064 197.793, 108.429 196.429 C 109.293 195.564, 110 194.471, 110 194 C 110 193.529, 109.293 192.436, 108.429 191.571 C 107.064 190.207, 102.537 190, 74 190 C 45.463 190, 40.936 190.207, 39.571 191.571 M 168.200 222.200 C 166.111 224.289, 167.447 229, 170.129 229 C 171.139 229, 174 226.044, 174 225 C 174 223.956, 171.139 221, 170.129 221 C 169.728 221, 168.860 221.540, 168.200 222.200 " stroke="none" fill="black" fill-rule="evenodd"/>
</svg>