<svg xmlns="http://www.w3.org/2000/svg" width="116" height="324" viewBox="0 0 116 324" version="1.1">
	<path d="M 19.637 159.420 C 12.850 161.919, 7.863 167.884, 6.503 175.131 C 5.855 178.586, 7.593 182, 10 182 C 11.861 182, 14 178.700, 14 175.829 C 14 173.718, 15.030 171.770, 17.400 169.400 C 20.302 166.498, 21.488 166, 25.500 166 C 29.512 166, 30.698 166.498, 33.600 169.400 C 36.502 172.302, 37 173.488, 37 177.500 C 37 181.512, 36.502 182.698, 33.600 185.600 C 31.526 187.674, 29.214 189, 27.671 189 C 23.012 189, 22 191.231, 22 201.500 C 22 208.673, 22.367 211.224, 23.571 212.429 C 24.436 213.293, 25.529 214, 26 214 C 28.689 214, 30 210.575, 30 203.550 C 30 196.488, 30.094 196.204, 32.803 195.082 C 41.073 191.656, 46.352 181.557, 44.113 173.447 C 41.035 162.298, 29.607 155.749, 19.637 159.420 M 72.200 159.200 C 71.540 159.860, 71 161.092, 71 161.938 C 71 162.784, 77.857 170.344, 86.238 178.738 L 101.476 194 86.238 209.262 C 77.857 217.656, 71 225.216, 71 226.062 C 71 227.795, 72.895 230, 74.385 230 C 76.047 230, 110 195.680, 110 194 C 110 192.320, 76.047 158, 74.385 158 C 73.843 158, 72.860 158.540, 72.200 159.200 M 72.200 191.200 C 70.111 193.289, 71.447 198, 74.129 198 C 75.139 198, 78 195.044, 78 194 C 78 192.956, 75.139 190, 74.129 190 C 73.728 190, 72.860 190.540, 72.200 191.200 M 23.571 222.571 C 22.707 223.436, 22 224.529, 22 225 C 22 226.111, 24.889 229, 26 229 C 27.111 229, 30 226.111, 30 225 C 30 223.889, 27.111 221, 26 221 C 25.529 221, 24.436 221.707, 23.571 222.571 " stroke="none" fill="black" fill-rule="evenodd"/>
</svg>