<svg xmlns="http://www.w3.org/2000/svg" width="212" height="324" viewBox="0 0 212 324" version="1.1">
	<path d="M 55.571 63.571 C 54.707 64.436, 54 65.332, 54 65.564 C 54 67.204, 71.738 101.069, 72.813 101.482 C 73.560 101.768, 74.775 101.665, 75.512 101.252 C 77.510 100.131, 94.035 66.256, 93.396 64.590 C 92.550 62.385, 89.890 61.790, 88.105 63.406 C 87.222 64.205, 83.815 70.291, 80.533 76.930 C 77.252 83.568, 74.312 89, 74 89 C 73.688 89, 70.748 83.534, 67.467 76.853 C 59.925 61.499, 58.847 60.296, 55.571 63.571 M 67 126.580 C 47.642 129.850, 36.088 135.756, 24.287 148.411 C 14.039 159.400, 8.260 172.458, 6.503 188.598 C 5.964 193.549, 6.150 195.007, 7.491 196.348 C 9.547 198.404, 10.439 198.418, 12.429 196.429 C 13.379 195.478, 14 193.126, 14 190.478 C 14 177.343, 20.860 161.930, 31.395 151.395 C 39.204 143.586, 50.825 137.142, 60.799 135.090 C 68.192 133.569, 80.340 133.756, 87.754 135.504 C 112.196 141.267, 133 165.859, 133 188.988 C 133 193.308, 135.075 198, 136.985 198 C 137.465 198, 138.614 197.243, 139.540 196.317 C 143.164 192.693, 138.495 171.186, 131.597 159.730 C 122.292 144.279, 107.263 132.906, 90.500 128.632 C 84.129 127.008, 71.167 125.876, 67 126.580 M 168.200 159.200 C 166.492 160.908, 166.492 211.092, 168.200 212.800 C 169.781 214.381, 170.543 214.315, 172.429 212.429 C 174.785 210.073, 174.785 161.927, 172.429 159.571 C 170.543 157.685, 169.781 157.619, 168.200 159.200 M 39.571 191.571 C 38.707 192.436, 38 193.529, 38 194 C 38 194.471, 38.707 195.564, 39.571 196.429 C 40.936 197.793, 45.463 198, 74 198 C 102.537 198, 107.064 197.793, 108.429 196.429 C 109.293 195.564, 110 194.471, 110 194 C 110 193.529, 109.293 192.436, 108.429 191.571 C 107.064 190.207, 102.537 190, 74 190 C 45.463 190, 40.936 190.207, 39.571 191.571 M 168.200 222.200 C 166.111 224.289, 167.447 229, 170.129 229 C 171.139 229, 174 226.044, 174 225 C 174 223.956, 171.139 221, 170.129 221 C 169.728 221, 168.860 221.540, 168.200 222.200 " stroke="none" fill="black" fill-rule="evenodd"/>
</svg>