<svg xmlns="http://www.w3.org/2000/svg" width="468" height="324" viewBox="0 0 468 324" version="1.1">
	<path d="M 63.102 127.104 C 37.616 130.977, 15.059 151.543, 8.374 177 C 6.114 185.608, 6.133 201.372, 8.414 210 C 12.552 225.647, 23.709 241.079, 37.307 249.965 L 43.483 254 26.313 254 C 12.037 254, 8.878 254.265, 7.571 255.571 C 5.598 257.545, 5.598 258.455, 7.571 260.429 C 8.968 261.825, 16.372 262, 74 262 C 131.628 262, 139.032 261.825, 140.429 260.429 C 142.402 258.455, 142.402 257.545, 140.429 255.571 C 139.119 254.261, 135.917 254, 121.187 254 L 103.517 254 109.693 249.965 C 118.532 244.189, 128.968 232.618, 133.287 223.806 C 138.440 213.290, 140.304 205.238, 140.304 193.500 C 140.304 174.166, 134.551 160.473, 120.539 146.461 C 113.540 139.462, 109.807 136.600, 104 133.778 C 91.072 127.496, 76.343 125.092, 63.102 127.104 M 231.571 127.571 C 230.176 128.966, 230 136.152, 230 191.571 L 230 254 199.571 254 C 173.242 254, 168.931 254.212, 167.571 255.571 C 165.598 257.545, 165.598 258.455, 167.571 260.429 C 168.968 261.825, 176.372 262, 234 262 C 291.628 262, 299.032 261.825, 300.429 260.429 C 301.293 259.564, 302 258.471, 302 258 C 302 257.529, 301.293 256.436, 300.429 255.571 C 299.069 254.212, 294.758 254, 268.429 254 L 238 254 238 226 L 238 198 268.429 198 C 294.758 198, 299.069 197.788, 300.429 196.429 C 301.793 195.064, 302 190.537, 302 162 C 302 133.463, 301.793 128.936, 300.429 127.571 C 299.064 126.207, 294.537 126, 266 126 C 237.463 126, 232.936 126.207, 231.571 127.571 M 392.372 126.765 C 391.752 127.169, 387.812 134.363, 383.616 142.750 L 375.987 158 352.565 158 C 332.605 158, 328.911 158.232, 327.571 159.571 C 326.707 160.436, 326 161.339, 326 161.579 C 326 161.820, 331.402 172.812, 338.004 186.008 L 350.008 210 338.004 233.992 C 331.402 247.188, 326 258.180, 326 258.421 C 326 258.661, 326.707 259.564, 327.571 260.429 C 328.911 261.768, 332.606 262, 352.576 262 L 376.008 262 383.729 277.479 C 387.975 285.993, 392.023 293.179, 392.725 293.448 C 395.371 294.463, 396.754 292.552, 404.271 277.479 L 411.992 262 435.424 262 C 455.394 262, 459.089 261.768, 460.429 260.429 C 461.293 259.564, 462 258.661, 462 258.421 C 462 258.180, 456.598 247.188, 449.996 233.992 L 437.992 210 449.996 186.008 C 456.598 172.812, 462 161.820, 462 161.579 C 462 161.339, 461.293 160.436, 460.429 159.571 C 459.089 158.232, 455.395 158, 435.435 158 L 412.013 158 404.384 142.750 C 397.537 129.062, 395.654 126.031, 394 126.031 C 393.725 126.031, 392.993 126.361, 392.372 126.765 M 58.645 135.584 C 38.562 140.445, 20.305 158.877, 15.537 179.103 C 13.610 187.282, 13.610 199.718, 15.537 207.897 C 20.338 228.261, 38.739 246.662, 59.103 251.463 C 79.742 256.328, 100.600 250.431, 115.516 235.516 C 134.200 216.831, 138.470 189.002, 126.243 165.603 C 118.839 151.435, 103.149 139.133, 87.897 135.537 C 79.998 133.676, 66.439 133.697, 58.645 135.584 M 238 162 L 238 190 266 190 L 294 190 294 162 L 294 134 266 134 L 238 134 238 162 M 388.732 148.500 L 384.013 158 394 158 L 403.987 158 399.268 148.500 C 396.672 143.275, 394.302 139, 394 139 C 393.698 139, 391.328 143.275, 388.732 148.500 M 344.740 183.500 C 349.544 193.125, 353.710 201, 354 201 C 354.290 201, 358.456 193.125, 363.260 183.500 L 371.993 166 354 166 L 336.007 166 344.740 183.500 M 369 188 L 357.991 210 369 232 L 380.009 254 394 254 L 407.991 254 419 232 L 430.009 210 419 188 L 407.991 166 394 166 L 380.009 166 369 188 M 424.740 183.500 C 429.544 193.125, 433.710 201, 434 201 C 434.290 201, 438.456 193.125, 443.260 183.500 L 451.993 166 434 166 L 416.007 166 424.740 183.500 M 344.740 236.500 L 336.007 254 354 254 L 371.993 254 363.260 236.500 C 358.456 226.875, 354.290 219, 354 219 C 353.710 219, 349.544 226.875, 344.740 236.500 M 424.740 236.500 L 416.007 254 434 254 L 451.993 254 443.260 236.500 C 438.456 226.875, 434.290 219, 434 219 C 433.710 219, 429.544 226.875, 424.740 236.500 M 388.732 271.500 C 391.328 276.725, 393.698 281, 394 281 C 394.302 281, 396.672 276.725, 399.268 271.500 L 403.987 262 394 262 L 384.013 262 388.732 271.500 " stroke="none" fill="black" fill-rule="evenodd"/>
</svg>