<svg xmlns="http://www.w3.org/2000/svg" width="148" height="324" viewBox="0 0 148 324" version="1.1">
	<path d="M 71.236 63.250 C 68.816 66.250, 54.152 98.232, 54.628 99.472 C 55.270 101.145, 57.546 102.112, 59.278 101.447 C 59.981 101.177, 63.522 95.005, 67.147 87.731 L 73.738 74.505 80.311 87.624 C 83.927 94.839, 87.586 101.011, 88.442 101.340 C 90.461 102.114, 92.697 101.232, 93.407 99.381 C 93.997 97.844, 77.582 64.037, 75.628 62.765 C 73.949 61.672, 72.369 61.846, 71.236 63.250 M 7.750 127.080 C 6.111 128.035, 6 132.293, 6 194.015 C 6 258.159, 6.052 259.957, 7.934 260.965 C 10.262 262.211, 137.819 262.402, 139.772 261.162 C 141.639 259.977, 141.639 128.023, 139.772 126.838 C 137.842 125.613, 9.866 125.848, 7.750 127.080 M 14 194 L 14 254 74 254 L 134 254 134 194 L 134 134 74 134 L 14 134 14 194 M 71.571 191.571 C 70.707 192.436, 70 193.529, 70 194 C 70 194.471, 70.707 195.564, 71.571 196.429 C 72.436 197.293, 73.529 198, 74 198 C 74.471 198, 75.564 197.293, 76.429 196.429 C 77.293 195.564, 78 194.471, 78 194 C 78 193.529, 77.293 192.436, 76.429 191.571 C 75.564 190.707, 74.471 190, 74 190 C 73.529 190, 72.436 190.707, 71.571 191.571 " stroke="none" fill="black" fill-rule="evenodd"/>
</svg>