<svg xmlns="http://www.w3.org/2000/svg" width="340" height="324" viewBox="0 0 340 324" version="1.1">
	<path d="M 231.616 63.527 C 230.727 64.416, 230 65.529, 230 66 C 230 67.389, 233.140 70.120, 234.295 69.735 C 236.395 69.035, 237.549 66.094, 236.423 64.310 C 234.905 61.902, 233.474 61.669, 231.616 63.527 M 247.537 63.605 C 246.508 64.635, 246.172 65.980, 246.600 67.355 C 247.771 71.118, 262.889 100.814, 263.975 101.484 C 266.685 103.159, 268.956 100.142, 276.760 84.501 C 281.292 75.417, 285 67.143, 285 66.115 C 285 63.642, 282.675 61.804, 280.569 62.612 C 279.643 62.967, 275.930 69.156, 272.318 76.363 L 265.751 89.469 259.767 77.484 C 253.953 65.839, 251.511 62, 249.916 62 C 249.491 62, 248.420 62.722, 247.537 63.605 M 255.102 127.104 C 246.901 128.351, 235.907 132.627, 228.830 137.325 C 217.979 144.527, 207.231 157.390, 203.426 167.727 C 202.460 170.352, 201.359 172.862, 200.980 173.305 C 200.601 173.748, 197.213 174.546, 193.452 175.078 C 183.418 176.499, 173.807 181.495, 166.500 189.086 C 162.472 193.272, 158.364 196.335, 154 198.410 C 148.014 201.256, 146.670 201.500, 137 201.496 C 125.269 201.492, 119.704 199.711, 111.237 193.248 C 106.707 189.790, 103.754 189.594, 102.572 192.673 C 101.731 194.864, 108.434 201.087, 115.201 204.398 C 122.627 208.031, 134.003 210.260, 140.926 209.438 C 153.301 207.969, 165.890 201.714, 172.002 193.998 C 175.623 189.425, 181.526 185.803, 188.932 183.609 C 198.825 180.678, 198.496 180.348, 198.527 193.250 C 198.566 210.110, 202.788 222.373, 212.882 234.950 C 226.273 251.636, 244.344 260.349, 265.500 260.319 C 284.240 260.292, 299.028 254.065, 312.500 240.527 C 325.805 227.157, 332 212.218, 332 193.500 C 332 174.782, 325.805 159.843, 312.500 146.473 C 297.045 130.943, 276.179 123.902, 255.102 127.104 M 250.072 135.591 C 247.086 136.394, 241.686 138.498, 238.072 140.268 C 226.811 145.781, 211.920 162.403, 209.487 172.173 C 208.849 174.737, 209.075 174.917, 214.997 176.579 C 218.394 177.532, 223.857 180.047, 227.138 182.168 L 233.103 186.023 236.353 183.544 C 245.278 176.737, 260.039 173.169, 271.622 175.019 C 279.493 176.277, 284.905 178.325, 291.500 182.543 C 301.221 188.760, 304.146 193.824, 299.500 196.390 C 298.400 196.998, 296.035 198.533, 294.244 199.803 C 288.332 203.994, 278.607 207.911, 271.348 209.025 C 263.324 210.257, 255.460 209.266, 246.420 205.884 C 240.365 203.619, 228.446 194.815, 227.731 192.079 C 227.166 189.920, 213.987 183.197, 209.500 182.779 L 206.500 182.500 206.213 192.331 C 205.688 210.284, 210.660 222.715, 223.479 235.500 C 235.593 247.582, 248.400 253, 264.845 253 C 275.674 253, 281.916 251.576, 291.820 246.847 C 316.843 234.900, 330.032 205.996, 323.003 178.511 C 318.717 161.754, 307.079 147.438, 291.820 140.153 C 287.244 137.968, 281.115 135.690, 278.201 135.090 C 270.879 133.584, 256.591 133.838, 250.072 135.591 M 251.416 183.900 C 245.652 186.015, 238 190.583, 238 191.908 C 238 192.394, 240.137 194.152, 242.750 195.814 C 254.134 203.059, 270.092 204.048, 282.045 198.249 C 285.595 196.527, 289.374 194.416, 290.441 193.559 C 292.363 192.016, 292.363 191.984, 290.441 190.441 C 289.374 189.584, 285.575 187.460, 282 185.723 C 276.307 182.955, 274.320 182.530, 266 182.299 C 258.710 182.096, 255.317 182.468, 251.416 183.900 M 7.571 191.571 C 6.707 192.436, 6 193.529, 6 194 C 6 194.471, 6.707 195.564, 7.571 196.429 C 8.936 197.793, 13.463 198, 42 198 C 70.537 198, 75.064 197.793, 76.429 196.429 C 77.293 195.564, 78 194.471, 78 194 C 78 193.529, 77.293 192.436, 76.429 191.571 C 75.064 190.207, 70.537 190, 42 190 C 13.463 190, 8.936 190.207, 7.571 191.571 " stroke="none" fill="black" fill-rule="evenodd"/>
</svg>