<svg xmlns="http://www.w3.org/2000/svg" width="148" height="324" viewBox="0 0 148 324" version="1.1">
	<path d="M 33.384 159.357 C 15.361 163.923, 3.562 181.820, 6.987 199.396 C 9.923 214.467, 20.510 225.032, 35.660 228.013 C 51.129 231.056, 68.389 221.266, 74.002 206.266 C 76.889 198.550, 76.845 188.335, 73.893 180.443 C 68.130 165.041, 49.410 155.297, 33.384 159.357 M 31.054 167.728 C 25.018 169.859, 17.781 177.260, 15.667 183.463 C 9.189 202.476, 21.963 221, 41.552 221 C 56.843 221, 69 208.819, 69 193.500 C 69 182.038, 61.486 171.200, 50.965 167.488 C 45.610 165.598, 36.784 165.705, 31.054 167.728 M 39.571 191.571 C 38.707 192.436, 38 193.529, 38 194 C 38 195.111, 40.889 198, 42 198 C 43.111 198, 46 195.111, 46 194 C 46 192.889, 43.111 190, 42 190 C 41.529 190, 40.436 190.707, 39.571 191.571 M 115.558 191.492 C 110.025 193.463, 106.966 195.986, 104.569 200.557 C 102.716 204.088, 102.468 206.576, 102.191 224.368 C 101.883 244.095, 101.900 244.276, 104.515 249.620 C 110.195 261.231, 124.079 264.138, 133.662 255.724 C 138.087 251.838, 140 247.545, 140 241.500 C 140 235.455, 138.087 231.162, 133.662 227.276 C 127.539 221.900, 120.002 220.941, 112.800 224.620 C 111.314 225.379, 109.852 226, 109.550 226 C 108.738 226, 108.994 214.263, 109.930 208.561 C 111.023 201.902, 115.221 198, 121.293 198 C 123.637 198, 126.558 198.702, 127.783 199.561 C 130.566 201.510, 133 206.108, 133 209.415 C 133 212.560, 136.417 214.729, 138.564 212.947 C 140.373 211.446, 140.415 205.928, 138.649 201.702 C 136.863 197.428, 130.978 192.365, 126.277 191.060 C 121.486 189.730, 120.380 189.774, 115.558 191.492 M 113.400 233.400 C 110.498 236.302, 110 237.488, 110 241.500 C 110 245.512, 110.498 246.698, 113.400 249.600 C 116.231 252.431, 117.533 253, 121.177 253 C 126.176 253, 129.354 251.151, 131.506 246.989 C 134.251 241.680, 132.628 234.954, 127.783 231.561 C 126.558 230.702, 123.585 230, 121.177 230 C 117.533 230, 116.231 230.569, 113.400 233.400 M 7.585 255.558 C 6.713 256.430, 6 257.529, 6 258 C 6 258.471, 6.713 259.570, 7.585 260.442 C 8.978 261.835, 13.159 261.995, 42.226 261.763 C 72.452 261.523, 75.377 261.350, 76.386 259.750 C 77.191 258.474, 77.191 257.526, 76.386 256.250 C 75.377 254.650, 72.452 254.477, 42.226 254.237 C 13.159 254.005, 8.978 254.165, 7.585 255.558 " stroke="none" fill="black" fill-rule="evenodd"/>
</svg>