<svg xmlns="http://www.w3.org/2000/svg" width="148" height="324" viewBox="0 0 148 324" version="1.1">
	<path d="M 55.571 63.571 C 54.707 64.436, 54 65.317, 54 65.531 C 54 66.993, 71.421 100.653, 72.488 101.252 C 73.225 101.665, 74.440 101.768, 75.188 101.481 C 76.837 100.849, 93 68.755, 93 66.115 C 93 63.770, 90.710 61.790, 88.832 62.511 C 88.050 62.811, 84.520 68.894, 80.986 76.028 C 77.453 83.163, 74.306 89, 73.994 89 C 73.683 89, 70.969 83.984, 67.964 77.854 C 62.437 66.580, 59.559 62, 57.999 62 C 57.528 62, 56.436 62.707, 55.571 63.571 M 64.500 126.944 C 56.325 128.268, 50.930 129.991, 43 133.814 C 32.444 138.903, 18.927 152.404, 13.778 163 C 7.648 175.615, 4.334 193.191, 7.491 196.348 C 10.992 199.850, 14 196.834, 14 189.823 C 14 176.987, 20.739 162.179, 31.459 151.459 C 43.091 139.828, 56.905 134, 72.845 134 C 83.674 134, 89.916 135.424, 99.820 140.153 C 109.977 145.002, 119.912 154.325, 125.340 164.101 C 129.485 171.566, 133 183.966, 133 191.125 C 133 194.956, 133.418 196.154, 135.064 197.034 C 142.863 201.208, 141.093 178.561, 132.303 161.700 C 129.753 156.809, 125.954 151.890, 120.457 146.361 C 113.703 139.568, 110.806 137.478, 102.933 133.719 C 97.745 131.242, 91.475 128.743, 89 128.165 C 82.400 126.623, 70.232 126.016, 64.500 126.944 M 71.571 159.571 C 69.215 161.927, 69.215 210.073, 71.571 212.429 C 73.678 214.535, 74.598 214.412, 76.443 211.777 C 77.745 209.919, 78 205.701, 78 186 C 78 166.299, 77.745 162.081, 76.443 160.223 C 74.598 157.588, 73.678 157.465, 71.571 159.571 M 71.616 222.527 C 70.727 223.416, 70 224.529, 70 225 C 70 226.389, 73.140 229.120, 74.295 228.735 C 76.395 228.035, 77.549 225.094, 76.423 223.310 C 74.905 220.902, 73.474 220.669, 71.616 222.527 " stroke="none" fill="black" fill-rule="evenodd"/>
</svg>