<svg xmlns="http://www.w3.org/2000/svg" width="372" height="324" viewBox="0 0 372 324" version="1.1">
	<path d="M 40.372 62.765 C 38.418 64.037, 22.003 97.844, 22.593 99.381 C 23.268 101.141, 25.513 102.124, 27.295 101.440 C 28.007 101.167, 31.480 95.106, 35.014 87.972 C 38.547 80.837, 41.691 75, 42 75 C 42.309 75, 45.453 80.837, 48.986 87.972 C 52.520 95.106, 55.993 101.167, 56.705 101.440 C 58.487 102.124, 60.732 101.141, 61.407 99.381 C 61.716 98.575, 58.096 90.173, 53.363 80.708 C 45.638 65.261, 43.672 62.031, 42 62.031 C 41.725 62.031, 40.992 62.361, 40.372 62.765 M 7.571 127.571 C 6.175 128.968, 6 136.372, 6 194 C 6 251.628, 6.175 259.032, 7.571 260.429 C 8.436 261.293, 9.666 262, 10.305 262 C 12.018 262, 78 195.721, 78 194 C 78 192.279, 12.018 126, 10.305 126 C 9.666 126, 8.436 126.707, 7.571 127.571 M 130.344 126.991 C 116.860 129.822, 105.472 141.668, 102.910 155.531 C 102.025 160.316, 102.199 162.816, 104.003 171.241 C 109.825 198.435, 120.807 218.803, 140 238.005 C 148.996 247.005, 163.855 258.472, 169.159 260.508 C 171.776 261.512, 191.949 246.086, 201.822 235.531 C 218.736 217.450, 228.904 197.949, 234.677 172.519 C 236.908 162.688, 237.047 160.908, 235.997 155.519 C 233.695 143.706, 226.248 134.298, 215.175 129.216 C 207.165 125.539, 195.888 125.515, 187.954 129.157 C 181.265 132.227, 175.573 137.047, 172.005 142.662 L 169.360 146.824 167.503 143.377 C 164.873 138.492, 157.737 132.223, 151.675 129.472 C 145.777 126.794, 136.450 125.710, 130.344 126.991 M 127 135.824 C 120.578 138.216, 113.697 145.385, 111.514 151.957 C 108.225 161.860, 111.778 179.403, 120.991 198.743 C 127.436 212.272, 134.633 222.524, 145.005 232.951 C 152.278 240.262, 167.372 252, 169.500 252 C 171.537 252, 186.586 240.382, 193.610 233.385 C 210.324 216.739, 222.067 195.546, 227.070 173 C 230.477 157.650, 228.968 149.873, 221.048 141.952 C 210.331 131.236, 192.792 131.273, 181.917 142.035 C 177.099 146.803, 174 153.681, 174 159.607 C 174 162.970, 171.867 166, 169.500 166 C 167.133 166, 165 162.970, 165 159.607 C 165 149.949, 156.912 138.862, 147.537 135.667 C 141.401 133.576, 132.858 133.642, 127 135.824 M 14 194 L 14 248.495 41.248 221.248 L 68.495 194 41.248 166.752 L 14 139.505 14 194 M 263.267 223.267 C 244.970 241.563, 230 257.056, 230 257.695 C 230 259.187, 232.799 262, 234.285 262 C 234.913 262, 249.506 247.947, 266.713 230.771 L 298 199.542 329.287 230.771 C 346.494 247.947, 361.087 262, 361.715 262 C 362.343 262, 363.564 261.293, 364.429 260.429 C 365.793 259.064, 366 254.537, 366 226 C 366 197.463, 365.793 192.936, 364.429 191.571 C 362.455 189.598, 361.545 189.598, 359.571 191.571 C 358.219 192.924, 358 196.990, 358 220.799 L 358 248.455 328.711 219.227 C 312.602 203.152, 298.772 190, 297.978 190 C 297.183 190, 281.563 204.970, 263.267 223.267 " stroke="none" fill="black" fill-rule="evenodd"/>
</svg>