<svg xmlns="http://www.w3.org/2000/svg" width="148" height="324" viewBox="0 0 148 324" version="1.1">
	<path d="M 71.550 62.918 C 67.869 68.875, 54.190 98.331, 54.604 99.410 C 55.269 101.144, 57.524 102.120, 59.295 101.440 C 60.007 101.167, 63.480 95.106, 67.014 87.972 C 70.547 80.837, 73.691 75, 74 75 C 74.309 75, 77.453 80.837, 80.986 87.972 C 84.520 95.106, 88.050 101.189, 88.832 101.489 C 90.716 102.212, 93 100.227, 93 97.866 C 93 95.626, 77.264 63.831, 75.628 62.765 C 74.071 61.751, 72.229 61.820, 71.550 62.918 M 98.344 159 C 92.530 160.208, 86.552 163.450, 81.427 168.174 C 76.867 172.377, 71 182.710, 71 186.537 C 71 189.668, 69.337 190.633, 62.647 191.385 C 38.831 194.058, 14.810 215.898, 8.625 240.500 C 7.795 243.800, 6.816 249.231, 6.449 252.570 C 5.321 262.840, -0.676 262.002, 73.821 261.985 C 109.395 261.976, 139.081 261.601, 139.791 261.150 C 141.667 259.960, 141.573 194.829, 139.684 187 C 137.667 178.641, 135.097 174.005, 129.339 168.339 C 121.456 160.584, 108.912 156.804, 98.344 159 M 95.385 167.617 C 89.552 169.686, 83.605 175.144, 80.588 181.199 C 75.895 190.618, 74.144 190, 105.519 190 L 133.038 190 132.379 187.250 C 130.467 179.277, 125.249 172.780, 117.745 169.030 C 110.822 165.571, 102.617 165.052, 95.385 167.617 M 58.645 199.584 C 38.562 204.445, 20.305 222.877, 15.537 243.103 C 14.708 246.621, 14.023 250.512, 14.015 251.750 L 14 254 74 254 L 134 254 134 226 L 134 198 99.250 198.083 C 72.919 198.146, 63.081 198.510, 58.645 199.584 " stroke="none" fill="black" fill-rule="evenodd"/>
</svg>