<svg xmlns="http://www.w3.org/2000/svg" width="244" height="324" viewBox="0 0 244 324" version="1.1">
	<path d="M 35.045 127.064 C 19.586 130.194, 7.255 144.080, 6.841 158.824 C 6.689 164.231, 10.459 179.667, 14.976 192.133 C 18.628 202.212, 26.063 215.568, 33.594 225.579 C 47.004 243.404, 74.270 264.227, 77.454 259.074 C 77.769 258.565, 81.733 255.556, 86.263 252.388 C 112.818 233.821, 132.129 203.986, 138.872 171.112 C 141.968 156.020, 139.235 146.037, 129.353 136.339 C 116.492 123.720, 95.745 123.332, 82.257 135.459 C 79.595 137.852, 76.567 141.388, 75.529 143.317 L 73.640 146.824 70.976 142.624 C 63.636 131.049, 48.255 124.389, 35.045 127.064 M 31.591 135.573 C 23.309 138.608, 15.842 147.057, 14.518 154.893 C 13.681 159.850, 17.098 176.394, 21.507 188.729 C 29.718 211.703, 46.703 233.702, 66.868 247.480 L 73.830 252.237 81.622 246.869 C 97.401 235.996, 112.223 218.632, 121.388 200.283 C 127.714 187.616, 133 169.094, 133 159.594 C 133 153.770, 127.985 143.949, 122.992 139.994 C 111.475 130.872, 93.617 132.372, 84.451 143.230 C 80.698 147.676, 78.048 153.774, 78.022 158.027 C 77.998 161.891, 75.675 166, 73.515 166 C 71.134 166, 69 162.978, 69 159.607 C 69 149.949, 60.912 138.862, 51.537 135.667 C 45.642 133.659, 36.928 133.618, 31.591 135.573 M 167.571 159.571 C 166.207 160.936, 166 165.463, 166 194 C 166 222.537, 166.207 227.064, 167.571 228.429 C 169.457 230.315, 170.219 230.381, 171.800 228.800 C 173.519 227.081, 173.519 160.919, 171.800 159.200 C 170.219 157.619, 169.457 157.685, 167.571 159.571 M 231.571 159.571 C 230.207 160.936, 230 165.463, 230 194 C 230 222.537, 230.207 227.064, 231.571 228.429 C 233.457 230.315, 234.219 230.381, 235.800 228.800 C 237.519 227.081, 237.519 160.919, 235.800 159.200 C 234.219 157.619, 233.457 157.685, 231.571 159.571 " stroke="none" fill="black" fill-rule="evenodd"/>
</svg>