<svg xmlns="http://www.w3.org/2000/svg" width="308" height="324" viewBox="0 0 308 324" version="1.1">
	<path d="M 71.200 127.200 C 70.292 128.108, 70 143.689, 70 191.200 L 70 254 39.571 254 C 13.242 254, 8.931 254.212, 7.571 255.571 C 5.596 257.546, 5.598 258.455, 7.579 260.436 C 8.990 261.847, 16.058 261.987, 74.220 261.757 C 134.934 261.517, 139.356 261.383, 140.386 259.750 C 141.191 258.474, 141.191 257.526, 140.386 256.250 C 139.381 254.655, 136.566 254.477, 108.641 254.236 L 78 253.971 78 225.986 L 78 198 108.250 197.985 C 124.888 197.976, 139.081 197.601, 139.791 197.150 C 141.679 195.953, 141.679 128.047, 139.791 126.850 C 137.610 125.466, 72.602 125.798, 71.200 127.200 M 230.610 128.250 C 229.820 129.488, 226.109 136.680, 222.363 144.233 L 215.552 157.965 191.634 158.233 C 170.172 158.473, 167.604 158.679, 166.620 160.240 C 165.725 161.659, 167.731 166.407, 177.495 185.990 L 189.467 210 177.495 234.010 C 167.731 253.593, 165.725 258.341, 166.620 259.760 C 167.604 261.321, 170.172 261.527, 191.632 261.767 L 215.547 262.035 223.288 277.554 C 227.545 286.090, 231.703 293.332, 232.527 293.649 C 235.012 294.602, 236.343 292.677, 244.014 277.038 L 251.374 262.035 275.329 261.767 C 296.826 261.527, 299.396 261.322, 300.380 259.760 C 301.275 258.341, 299.269 253.593, 289.505 234.010 L 277.533 210 289.505 185.990 C 299.269 166.407, 301.275 161.659, 300.380 160.240 C 299.396 158.678, 296.826 158.473, 275.329 158.233 L 251.374 157.965 244.061 143.056 C 240.039 134.857, 236.264 127.664, 235.674 127.074 C 233.985 125.385, 232.170 125.806, 230.610 128.250 M 78 162 L 78 190 106 190 L 134 190 134 162 L 134 134 106 134 L 78 134 78 162 M 228.510 147.980 C 226.030 152.919, 224 157.194, 224 157.480 C 224 157.766, 228.275 158, 233.500 158 C 238.725 158, 243 157.766, 243 157.480 C 243 156.530, 233.988 139, 233.500 139 C 233.236 139, 230.991 143.041, 228.510 147.980 M 184.607 183.250 C 189.347 192.738, 193.373 200.661, 193.553 200.857 C 193.877 201.210, 211 167.501, 211 166.511 C 211 166.230, 203.122 166, 193.494 166 L 175.989 166 184.607 183.250 M 209 188 L 197.991 210 209 232 L 220.009 254 233.773 254 L 247.536 254 258.500 232 L 269.464 210 258.500 188 L 247.536 166 233.773 166 L 220.009 166 209 188 M 256 166.511 C 256 167.475, 273.011 201, 273.500 201 C 273.989 201, 291 167.475, 291 166.511 C 291 166.230, 283.125 166, 273.500 166 C 263.875 166, 256 166.230, 256 166.511 M 184.740 236.500 L 176.007 254 193.504 254 C 203.127 254, 211 253.770, 211 253.489 C 211 252.819, 194.067 219, 193.731 219 C 193.589 219, 189.544 226.875, 184.740 236.500 M 264.506 235.989 C 259.828 245.333, 256 253.208, 256 253.489 C 256 253.770, 263.875 254, 273.500 254 C 283.125 254, 291 253.770, 291 253.489 C 291 252.525, 273.989 219, 273.500 219 C 273.231 219, 269.184 226.645, 264.506 235.989 M 224 262.520 C 224 263.470, 233.012 281, 233.500 281 C 233.988 281, 243 263.470, 243 262.520 C 243 262.234, 238.725 262, 233.500 262 C 228.275 262, 224 262.234, 224 262.520 " stroke="none" fill="black" fill-rule="evenodd"/>
</svg>