<svg xmlns="http://www.w3.org/2000/svg" width="628" height="324" viewBox="0 0 628 324" version="1.1">
	<path d="M 135.571 127.571 C 134.219 128.924, 134 132.988, 134 156.774 L 134 184.405 120.667 171.202 C 113.334 163.941, 106.841 158, 106.239 158 C 104.822 158, 102 160.822, 102 162.239 C 102 162.841, 107.941 169.334, 115.202 176.667 L 128.405 190 68.774 190 C 15.897 190, 8.965 190.178, 7.571 191.571 C 5.598 193.545, 5.598 194.455, 7.571 196.429 C 8.965 197.822, 15.897 198, 68.774 198 L 128.405 198 115.202 211.333 C 107.941 218.666, 102 225.159, 102 225.761 C 102 227.178, 104.822 230, 106.239 230 C 106.841 230, 113.334 224.059, 120.667 216.798 L 134 203.595 134 231.226 C 134 255.012, 134.219 259.076, 135.571 260.429 C 136.436 261.293, 137.529 262, 138 262 C 138.471 262, 139.564 261.293, 140.429 260.429 C 141.825 259.032, 142 251.628, 142 194 C 142 136.372, 141.825 128.968, 140.429 127.571 C 139.564 126.707, 138.471 126, 138 126 C 137.529 126, 136.436 126.707, 135.571 127.571 M 319.536 127.113 C 303.195 129.493, 288.400 137.996, 277.445 151.303 C 272.940 156.776, 266 169.030, 266 171.514 C 266 173.446, 265.208 173.769, 257.421 175.009 C 247.222 176.632, 237.688 181.618, 230.500 189.086 C 226.472 193.272, 222.364 196.335, 218 198.410 C 212.014 201.256, 210.670 201.500, 201 201.496 C 189.269 201.492, 183.704 199.711, 175.237 193.248 C 170.806 189.865, 167.755 189.590, 166.648 192.474 C 165.369 195.807, 175.181 203.450, 185.136 206.875 C 193.723 209.829, 201.436 210.357, 209.976 208.574 C 220.289 206.421, 227.525 202.642, 234 196.027 C 241.183 188.688, 244.293 186.596, 251.759 184.081 C 262.737 180.383, 262.496 180.178, 262.527 193.250 C 262.548 202.105, 263.044 206.096, 264.858 212 C 271.941 235.047, 290.090 252.593, 313.113 258.652 C 321.650 260.899, 337.441 260.857, 345.983 258.564 C 369.458 252.264, 388.405 233.118, 394.538 209.500 C 396.569 201.679, 396.569 185.321, 394.538 177.500 C 387.673 151.061, 365.267 130.920, 338.398 127.037 C 330.495 125.894, 327.826 125.905, 319.536 127.113 M 446.660 135.250 C 432.589 149.460, 425.513 163.913, 422.855 183.874 C 421.882 191.182, 421.874 195.209, 422.819 202.692 C 425.372 222.903, 432.426 237.321, 447.063 252.248 L 456.626 262 521.469 262 L 586.312 262 594.406 253.736 C 607.385 240.485, 614.195 228.656, 618.014 212.726 C 620.709 201.485, 620.683 185.416, 617.953 174 C 614.103 157.905, 603.454 140.427, 591.296 130.248 L 586.222 126 521.021 126 L 455.821 126 446.660 135.250 M 314.645 135.584 C 299.611 139.223, 282.923 152.520, 276.250 166.177 C 274.462 169.836, 273 173.246, 273 173.756 C 273 174.266, 275.776 175.524, 279.169 176.551 C 282.562 177.579, 287.985 180.130, 291.221 182.221 L 297.103 186.023 300.353 183.544 C 311.665 174.916, 328.774 172.202, 343.500 176.699 C 357.623 181.012, 371.286 194.188, 364.025 196.492 C 362.939 196.837, 359.451 198.823, 356.275 200.906 C 341.860 210.360, 326.828 212.056, 310.804 206.036 C 304.432 203.643, 294.164 196.150, 292.246 192.495 C 290.819 189.777, 278.154 183.213, 273.500 182.779 L 270.500 182.500 270.213 192.331 C 269.699 209.922, 274.691 222.622, 287 235.041 C 299.080 247.229, 312.543 252.953, 329.201 252.985 C 339.649 253.005, 345.980 251.545, 355.820 246.847 C 380.843 234.900, 394.032 205.996, 387.003 178.511 C 382.717 161.754, 371.079 147.438, 355.820 140.153 C 351.244 137.968, 345.115 135.690, 342.201 135.090 C 335.038 133.617, 321.791 133.854, 314.645 135.584 M 453.360 138.236 C 443.968 146.893, 435.267 161.727, 431.932 174.766 C 427.815 190.864, 429.910 211.899, 437.050 226.144 C 441.517 235.057, 448.022 243.935, 454.065 249.368 L 459.216 254 521.470 254 L 583.724 254 591.630 245.750 C 600.395 236.604, 606.207 226.643, 610.157 214 C 612.141 207.650, 612.494 204.431, 612.461 193 C 612.424 180.479, 612.190 178.831, 609.236 170.269 C 605.182 158.519, 599.217 148.739, 591.080 140.500 L 584.661 134 521.308 134 L 457.955 134 453.360 138.236 M 518.611 160.250 C 517.822 161.488, 510.052 176.788, 501.345 194.252 C 488.358 220.298, 485.711 226.318, 486.615 227.752 C 487.621 229.348, 490.541 229.524, 520.109 229.779 C 537.924 229.933, 553.463 229.825, 554.640 229.538 C 555.817 229.252, 557.047 228.321, 557.373 227.470 C 557.990 225.862, 525.696 160.108, 523.630 158.765 C 521.647 157.476, 520.085 157.938, 518.611 160.250 M 508.743 196.500 L 496.005 222 521.503 222 C 535.526 222, 547 221.772, 547 221.492 C 547 220.827, 522.070 171, 521.737 171 C 521.597 171, 515.750 182.475, 508.743 196.500 M 316 183.814 C 309.583 185.937, 301.782 190.823, 302.285 192.404 C 302.477 193.007, 306.148 195.300, 310.444 197.500 C 318.109 201.425, 318.453 201.500, 328.877 201.500 C 338.797 201.500, 339.930 201.289, 346 198.309 C 349.575 196.554, 353.374 194.416, 354.441 193.559 C 356.363 192.016, 356.363 191.984, 354.441 190.441 C 353.374 189.584, 349.575 187.463, 346 185.728 C 340.430 183.025, 338.212 182.532, 330.500 182.284 C 323.852 182.070, 320.063 182.470, 316 183.814 " stroke="none" fill="black" fill-rule="evenodd"/>
</svg>