<svg xmlns="http://www.w3.org/2000/svg" width="436" height="324" viewBox="0 0 436 324" version="1.1">
	<path d="M 55.571 63.571 C 54.707 64.436, 54 65.317, 54 65.531 C 54 66.993, 71.421 100.653, 72.488 101.252 C 73.225 101.665, 74.440 101.768, 75.187 101.482 C 77.102 100.747, 94.082 66.377, 93.403 64.609 C 92.732 62.858, 90.483 61.877, 88.705 62.560 C 87.993 62.833, 84.520 68.894, 80.986 76.028 C 77.453 83.163, 74.308 89, 73.997 89 C 73.687 89, 70.748 83.534, 67.467 76.853 C 59.925 61.499, 58.847 60.296, 55.571 63.571 M 35.045 127.092 C 24.744 129.112, 14.837 136.518, 10.151 145.705 C 7.578 150.747, 5.616 161.395, 6.828 163.738 C 7.329 164.707, 8.527 169.100, 9.490 173.500 C 14.781 197.683, 25.816 218.363, 43.042 236.382 C 52.341 246.109, 70.580 260, 74.053 260 C 75.188 260, 77.778 258.733, 79.809 257.185 C 81.839 255.636, 86.988 251.763, 91.250 248.578 C 114.809 230.976, 132.816 201.755, 138.913 171.234 C 140.415 163.715, 140.654 160.266, 139.962 156.078 C 138.665 148.229, 134.623 140.745, 128.901 135.601 C 112.881 121.197, 87.491 124.586, 76.005 142.662 L 73.360 146.824 71.503 143.377 C 69.181 139.064, 62.418 132.764, 57.318 130.162 C 55.183 129.073, 50.781 127.691, 47.535 127.091 C 40.969 125.877, 41.243 125.877, 35.045 127.092 M 263.571 127.571 C 262.175 128.968, 262 136.372, 262 194 C 262 251.628, 262.175 259.032, 263.571 260.429 C 265.678 262.535, 266.598 262.412, 268.443 259.777 C 269.813 257.823, 270 249.904, 270 194 C 270 138.096, 269.813 130.177, 268.443 128.223 C 266.598 125.588, 265.678 125.465, 263.571 127.571 M 31.054 135.728 C 24.820 137.929, 17.726 145.300, 15.557 151.828 C 14.045 156.381, 13.979 157.954, 15.032 164.270 C 20.746 198.525, 39.651 228.764, 67.165 247.660 L 73.830 252.237 81.622 246.869 C 106.324 229.847, 125.140 201.233, 131.495 171.022 C 133.741 160.345, 133.447 156.214, 129.940 149.196 C 125.018 139.347, 116.437 134, 105.552 134 C 91.078 134, 80.126 143.563, 78.163 157.916 C 77.355 163.825, 76.081 165.949, 73.321 165.985 C 71.127 166.013, 69 162.874, 69 159.607 C 69 149.949, 60.912 138.862, 51.537 135.667 C 45.516 133.616, 36.964 133.641, 31.054 135.728 M 183.315 175.213 C 173.792 184.680, 166 193.134, 166 194 C 166 195.680, 199.953 230, 201.615 230 C 203.261 230, 205 227.720, 205 225.562 C 205 224.272, 199.595 218.111, 190.263 208.762 L 175.525 194 190.263 179.238 C 199.595 169.889, 205 163.728, 205 162.438 C 205 160.280, 203.261 158, 201.615 158 C 201.073 158, 192.838 165.746, 183.315 175.213 M 215.315 175.213 C 205.792 184.680, 198 193.134, 198 194 C 198 195.680, 231.953 230, 233.615 230 C 235.243 230, 237 227.729, 237 225.625 C 237 224.420, 231.267 217.871, 222.293 208.825 L 207.586 194 222.293 179.175 C 231.267 170.129, 237 163.580, 237 162.375 C 237 160.271, 235.243 158, 233.615 158 C 233.073 158, 224.838 165.746, 215.315 175.213 M 308.994 190.934 C 301.407 193.242, 297.380 197.101, 295.044 204.303 C 293.592 208.778, 294.281 212.510, 296.733 213.451 C 298.954 214.303, 302 210.740, 302 207.289 C 302 205.792, 303.355 203.445, 305.400 201.400 C 308.264 198.536, 309.512 198, 313.323 198 C 319.042 198, 323.630 201.510, 324.588 206.618 C 325.201 209.886, 324.219 211.654, 309.622 233.554 C 301.030 246.446, 294 257.615, 294 258.374 C 294 261.607, 296.614 262.051, 314.024 261.774 C 329.193 261.533, 331.418 261.288, 332.387 259.750 C 333.190 258.475, 333.191 257.525, 332.388 256.250 C 331.445 254.753, 329.383 254.460, 318.151 254.221 L 305.015 253.942 319.008 232.988 C 326.703 221.464, 333 211.207, 333 210.196 C 333 205.877, 329.660 198.925, 325.992 195.612 C 320.730 190.858, 314.700 189.199, 308.994 190.934 M 391.750 191.080 C 390.207 191.979, 390 193.866, 390 207.050 L 390 222 375.934 222 C 361.308 222, 358 222.738, 358 226 C 358 229.262, 361.308 230, 375.934 230 L 390 230 390 242 L 390 254 375.934 254 C 361.308 254, 358 254.738, 358 258 C 358 261.750, 360.791 262.037, 394.601 261.764 C 424.469 261.523, 427.378 261.349, 428.386 259.750 C 429.190 258.475, 429.191 257.525, 428.387 256.250 C 427.430 254.730, 425.291 254.464, 412.142 254.224 L 397 253.948 397 242 L 397 230.052 412.142 229.776 C 425.291 229.536, 427.430 229.270, 428.387 227.750 C 429.191 226.475, 429.191 225.525, 428.387 224.250 C 427.430 222.730, 425.291 222.464, 412.142 222.224 L 397 221.948 397 207.174 C 397 190.586, 396.297 188.432, 391.750 191.080 " stroke="none" fill="black" fill-rule="evenodd"/>
</svg>