<svg xmlns="http://www.w3.org/2000/svg" width="116" height="324" viewBox="0 0 116 324" version="1.1">
	<path d="M 7.571 191.571 C 6.207 192.936, 6 197.463, 6 226 C 6 254.537, 6.207 259.064, 7.571 260.429 C 8.436 261.293, 9.529 262, 10 262 C 10.471 262, 11.564 261.293, 12.429 260.429 C 13.793 259.064, 14 254.537, 14 226 C 14 197.463, 13.793 192.936, 12.429 191.571 C 11.564 190.707, 10.471 190, 10 190 C 9.529 190, 8.436 190.707, 7.571 191.571 M 71.571 223.571 C 70.288 224.855, 70 227.788, 70 239.571 L 70 254 55.571 254 C 43.788 254, 40.855 254.288, 39.571 255.571 C 37.598 257.545, 37.598 258.455, 39.571 260.429 C 40.855 261.712, 43.788 262, 55.571 262 L 70 262 70 276.429 C 70 288.212, 70.288 291.145, 71.571 292.429 C 73.431 294.288, 73.564 294.304, 76.066 292.965 C 77.846 292.012, 78 290.737, 78 276.965 L 78 262 92.066 262 C 106.692 262, 110 261.262, 110 258 C 110 254.738, 106.692 254, 92.066 254 L 78 254 78 239.035 C 78 225.263, 77.846 223.988, 76.066 223.035 C 73.564 221.696, 73.431 221.712, 71.571 223.571 " stroke="none" fill="black" fill-rule="evenodd"/>
</svg>