<svg xmlns="http://www.w3.org/2000/svg" width="403" height="324" viewBox="0 0 403 324" version="1.1">
	<path d="M 7.627 127.515 C 6.158 128.985, 6 135.425, 6 194 C 6 252.599, 6.157 259.014, 7.629 260.486 C 8.557 261.414, 9.956 261.837, 10.879 261.468 C 11.771 261.112, 14.975 260.460, 18 260.019 C 40.232 256.777, 58.611 243.853, 68.777 224.312 C 74.035 214.205, 76.264 205.031, 76.264 193.500 C 76.264 181.969, 74.035 172.795, 68.777 162.688 C 59.981 145.781, 44.104 133.072, 26.202 128.608 C 15.985 126.061, 9.466 125.677, 7.627 127.515 M 167.200 127.200 C 166.292 128.108, 166 143.689, 166 191.200 L 166 254 135.571 254 C 109.242 254, 104.931 254.212, 103.571 255.571 C 101.596 257.546, 101.598 258.455, 103.579 260.436 C 104.990 261.847, 112.058 261.987, 170.220 261.757 C 230.934 261.517, 235.356 261.383, 236.386 259.750 C 237.191 258.474, 237.191 257.526, 236.386 256.250 C 235.380 254.654, 232.542 254.477, 204.141 254.236 L 173 253.972 173 225.986 L 173 198 203.750 197.985 C 220.662 197.976, 235.075 197.605, 235.777 197.159 C 236.773 196.527, 237.055 188.782, 237.055 162 C 237.055 135.218, 236.773 127.473, 235.777 126.841 C 233.606 125.463, 168.597 125.803, 167.200 127.200 M 326.650 128.189 C 325.838 129.460, 322.109 136.680, 318.363 144.233 L 311.552 157.965 287.634 158.233 C 266.172 158.473, 263.604 158.679, 262.620 160.240 C 261.725 161.659, 263.731 166.407, 273.495 185.990 L 285.467 210 273.495 234.010 C 263.731 253.593, 261.725 258.341, 262.620 259.760 C 263.604 261.321, 266.171 261.527, 287.612 261.767 L 311.507 262.034 319.504 277.767 C 325.806 290.168, 327.924 293.500, 329.500 293.500 C 331.076 293.500, 333.194 290.168, 339.496 277.767 L 347.493 262.034 371.388 261.767 C 392.829 261.527, 395.396 261.321, 396.380 259.760 C 397.275 258.341, 395.269 253.593, 385.505 234.010 L 373.533 210 385.505 185.990 C 395.269 166.407, 397.275 161.659, 396.380 160.240 C 395.396 158.679, 392.829 158.473, 371.388 158.233 L 347.493 157.966 339.496 142.233 C 334.537 132.475, 330.859 126.382, 329.813 126.189 C 328.885 126.018, 327.462 126.918, 326.650 128.189 M 14 193.500 C 14 249.506, 14.103 252.999, 15.750 252.985 C 20.233 252.947, 30.962 249.606, 37.397 246.243 C 56.519 236.251, 69 215.421, 69 193.500 C 69 171.579, 56.519 150.749, 37.397 140.757 C 30.962 137.394, 20.233 134.053, 15.750 134.015 C 14.103 134.001, 14 137.494, 14 193.500 M 173 162 L 173 190 201.500 190 L 230 190 230 162 L 230 134 201.500 134 L 173 134 173 162 M 324.510 147.980 C 322.030 152.919, 320 157.194, 320 157.480 C 320 157.766, 324.275 158, 329.500 158 C 334.725 158, 339 157.766, 339 157.480 C 339 156.530, 329.988 139, 329.500 139 C 329.236 139, 326.991 143.041, 324.510 147.980 M 277.921 178.250 C 285.483 194.248, 288.923 201, 289.511 201 C 289.993 201, 307 167.461, 307 166.511 C 307 166.230, 299.154 166, 289.565 166 L 272.131 166 277.921 178.250 M 304.500 188 L 293.536 210 304.500 232 L 315.464 254 329.500 254 L 343.536 254 354.500 232 L 365.464 210 354.500 188 L 343.536 166 329.500 166 L 315.464 166 304.500 188 M 352 166.511 C 352 167.475, 369.011 201, 369.500 201 C 369.989 201, 387 167.475, 387 166.511 C 387 166.230, 379.125 166, 369.500 166 C 359.875 166, 352 166.230, 352 166.511 M 280.578 236.250 L 272.297 253.500 289.291 253.774 C 298.638 253.925, 306.472 253.861, 306.702 253.632 C 307.220 253.113, 290.202 219, 289.424 219 C 289.113 219, 285.133 226.762, 280.578 236.250 M 360.506 235.989 C 355.828 245.333, 352 253.208, 352 253.489 C 352 253.770, 359.875 254, 369.500 254 C 379.125 254, 387 253.770, 387 253.489 C 387 252.525, 369.989 219, 369.500 219 C 369.231 219, 365.184 226.645, 360.506 235.989 M 320 262.520 C 320 263.470, 329.012 281, 329.500 281 C 329.988 281, 339 263.470, 339 262.520 C 339 262.234, 334.725 262, 329.500 262 C 324.275 262, 320 262.234, 320 262.520 " stroke="none" fill="black" fill-rule="evenodd"/>
</svg>