<svg xmlns="http://www.w3.org/2000/svg" width="148" height="324" viewBox="0 0 148 324" version="1.1">
	<path d="M 55.571 63.571 C 54.707 64.436, 54 65.317, 54 65.531 C 54 66.316, 71.159 100.529, 71.965 101.349 C 74.275 103.702, 76.913 100.229, 84.760 84.501 C 89.292 75.417, 93 67.143, 93 66.115 C 93 63.770, 90.710 61.790, 88.832 62.511 C 88.050 62.811, 84.520 68.894, 80.986 76.028 C 77.453 83.163, 74.306 89, 73.994 89 C 73.683 89, 70.969 83.984, 67.964 77.854 C 62.437 66.580, 59.559 62, 57.999 62 C 57.528 62, 56.436 62.707, 55.571 63.571 M 71.520 126.968 C 71.191 127.500, 67.575 134.700, 63.484 142.968 L 56.045 158 32.594 158 C 12.608 158, 8.911 158.232, 7.571 159.571 C 6.707 160.436, 6 161.339, 6 161.579 C 6 161.820, 11.402 172.812, 18.004 186.008 L 30.008 210 18.004 233.992 C 11.402 247.188, 6 258.180, 6 258.421 C 6 258.661, 6.707 259.564, 7.571 260.429 C 8.911 261.768, 12.608 262, 32.594 262 L 56.045 262 63.584 277.250 C 67.730 285.637, 71.500 292.882, 71.961 293.349 C 74.252 295.672, 76.895 292.268, 84.257 277.509 L 91.992 262 115.424 262 C 135.394 262, 139.089 261.768, 140.429 260.429 C 141.293 259.564, 142 258.661, 142 258.421 C 142 258.180, 136.598 247.188, 129.996 233.992 L 117.992 210 129.996 186.008 C 136.598 172.812, 142 161.820, 142 161.579 C 142 161.339, 141.293 160.436, 140.429 159.571 C 139.089 158.232, 135.395 158, 115.435 158 L 92.013 158 84.384 142.750 C 80.188 134.363, 76.248 127.169, 75.628 126.765 C 74.047 125.736, 72.226 125.825, 71.520 126.968 M 68.732 148.500 L 64.013 158 74 158 L 83.987 158 79.268 148.500 C 76.672 143.275, 74.302 139, 74 139 C 73.698 139, 71.328 143.275, 68.732 148.500 M 24.740 183.500 C 29.544 193.125, 33.710 201, 34 201 C 34.290 201, 38.456 193.125, 43.260 183.500 L 51.993 166 34 166 L 16.007 166 24.740 183.500 M 49.014 187.973 L 37.991 210 49.014 232.027 L 60.036 254.055 74.182 253.777 L 88.328 253.500 98.826 231.750 L 109.323 210 98.826 188.250 L 88.328 166.500 74.182 166.223 L 60.036 165.945 49.014 187.973 M 104.607 183.250 C 109.347 192.738, 113.373 200.661, 113.553 200.857 C 113.877 201.210, 131 167.501, 131 166.511 C 131 166.230, 123.122 166, 113.494 166 L 95.989 166 104.607 183.250 M 24.740 236.500 L 16.007 254 34 254 L 51.993 254 43.260 236.500 C 38.456 226.875, 34.290 219, 34 219 C 33.710 219, 29.544 226.875, 24.740 236.500 M 104.740 236.500 L 96.007 254 113.504 254 C 123.127 254, 131 253.770, 131 253.489 C 131 252.819, 114.067 219, 113.731 219 C 113.589 219, 109.544 226.875, 104.740 236.500 M 68.732 271.500 C 71.328 276.725, 73.698 281, 74 281 C 74.302 281, 76.672 276.725, 79.268 271.500 L 83.987 262 74 262 L 64.013 262 68.732 271.500 " stroke="none" fill="black" fill-rule="evenodd"/>
</svg>