<svg xmlns="http://www.w3.org/2000/svg" width="468" height="324" viewBox="0 0 468 324" version="1.1">
	<path d="M 40.372 62.765 C 38.418 64.037, 22.003 97.844, 22.593 99.381 C 23.268 101.141, 25.513 102.124, 27.295 101.440 C 28.007 101.167, 31.480 95.106, 35.014 87.972 C 38.547 80.837, 41.691 75, 42 75 C 42.309 75, 45.453 80.837, 48.986 87.972 C 52.520 95.106, 55.993 101.167, 56.705 101.440 C 58.487 102.124, 60.732 101.141, 61.407 99.381 C 61.716 98.575, 58.096 90.173, 53.363 80.708 C 45.638 65.261, 43.672 62.031, 42 62.031 C 41.725 62.031, 40.992 62.361, 40.372 62.765 M 163.270 127.054 C 148.553 129.959, 137.830 140.930, 134.996 155.983 C 133.830 162.177, 135.311 171.454, 139.691 185.381 C 145.298 203.209, 155.932 221.300, 169.082 235.380 C 176.196 242.999, 192.083 255.689, 199.229 259.463 L 202.946 261.426 205.723 258.885 C 207.250 257.487, 211.650 254.155, 215.500 251.481 C 231.200 240.573, 248.047 220.304, 256.902 201.670 C 264.747 185.163, 269.659 164.776, 267.963 155.763 C 263.596 132.560, 240.226 120.286, 218.616 129.845 C 213.222 132.232, 207.372 137.363, 204.005 142.662 L 201.360 146.824 199.503 143.377 C 197.181 139.064, 190.418 132.764, 185.318 130.162 C 183.183 129.073, 178.781 127.691, 175.535 127.091 C 168.994 125.882, 169.205 125.883, 163.270 127.054 M 311.213 143.315 C 301.746 152.838, 294 161.131, 294 161.743 C 294 163.175, 296.813 166, 298.239 166 C 298.841 166, 305.334 160.059, 312.667 152.798 L 326 139.595 326 199.226 C 326 252.103, 326.178 259.035, 327.571 260.429 C 328.436 261.293, 329.529 262, 330 262 C 330.471 262, 331.564 261.293, 332.429 260.429 C 333.822 259.035, 334 252.103, 334 199.226 L 334 139.595 347.333 152.798 C 354.666 160.059, 361.159 166, 361.761 166 C 363.187 166, 366 163.175, 366 161.743 C 366 159.994, 331.761 126, 330 126 C 329.134 126, 320.680 133.792, 311.213 143.315 M 159.054 135.728 C 153.018 137.859, 145.781 145.260, 143.667 151.463 C 141.381 158.172, 141.573 164.061, 144.447 175.392 C 152.037 205.310, 169.871 230.935, 194.962 247.974 L 201.091 252.137 205.411 249.605 C 216.977 242.827, 232.549 227.507, 241.920 213.687 C 250.596 200.890, 259.373 177.598, 260.635 164.020 C 262.570 143.192, 243.675 128.780, 223.463 135.667 C 214.088 138.862, 206 149.949, 206 159.607 C 206 162.970, 203.867 166, 201.500 166 C 199.133 166, 197 162.970, 197 159.607 C 197 149.949, 188.912 138.862, 179.537 135.667 C 173.516 133.616, 164.964 133.641, 159.054 135.728 M 33.384 159.412 C 15.475 163.758, 3.559 181.807, 6.987 199.396 C 12.474 227.556, 46.003 238.157, 66.080 218.080 C 85.609 198.551, 76.140 165.714, 49.147 159.360 C 42.397 157.772, 40.111 157.779, 33.384 159.412 M 417.384 159.412 C 399.475 163.758, 387.559 181.807, 390.987 199.396 C 396.474 227.556, 430.003 238.157, 450.080 218.080 C 469.609 198.551, 460.140 165.714, 433.147 159.360 C 426.397 157.772, 424.111 157.779, 417.384 159.412 M 31.054 167.728 C 25.018 169.859, 17.781 177.260, 15.667 183.463 C 11.995 194.241, 14.382 205.477, 21.952 213.048 C 32.673 223.769, 50.327 223.769, 61.048 213.048 C 71.769 202.327, 71.769 184.673, 61.048 173.952 C 53.519 166.424, 41.696 163.970, 31.054 167.728 M 415.054 167.728 C 409.018 169.859, 401.781 177.260, 399.667 183.463 C 393.198 202.450, 405.964 221, 425.500 221 C 441.108 221, 453 209.108, 453 193.500 C 453 177.670, 440.965 165.854, 425.072 166.079 C 422.007 166.122, 417.499 166.864, 415.054 167.728 M 98.875 251.506 C 94.728 253.760, 94.462 259.659, 98.393 262.210 C 98.995 262.600, 99.348 264.248, 99.177 265.871 C 98.750 269.943, 102.526 271.304, 105.175 268.032 C 109.922 262.170, 109.436 252.876, 104.279 250.916 C 101.430 249.833, 102.087 249.761, 98.875 251.506 " stroke="none" fill="black" fill-rule="evenodd"/>
</svg>