<svg xmlns="http://www.w3.org/2000/svg" width="148" height="324" viewBox="0 0 148 324" version="1.1">
	<path d="M 7.627 127.515 C 6.158 128.985, 6 135.425, 6 194 C 6 252.599, 6.157 259.014, 7.629 260.486 C 8.557 261.414, 9.956 261.837, 10.879 261.468 C 11.771 261.112, 14.975 260.460, 18 260.019 C 33.661 257.736, 45.290 251.848, 56.665 240.444 C 63.403 233.689, 65.618 230.619, 69.338 222.879 C 74.555 212.025, 76.200 204.983, 76.200 193.500 C 76.200 182.108, 74.559 174.984, 69.521 164.500 C 59.160 142.937, 39.675 129.401, 14.877 126.537 C 10.402 126.020, 8.923 126.220, 7.627 127.515 M 14 193.500 C 14 249.506, 14.103 252.999, 15.750 252.985 C 16.712 252.977, 20.379 252.292, 23.897 251.463 C 44.383 246.634, 62.119 228.764, 67.491 207.540 C 69.425 199.900, 69.422 187.081, 67.485 179.460 C 62.050 158.078, 44.501 140.394, 23.897 135.537 C 20.379 134.708, 16.712 134.023, 15.750 134.015 C 14.103 134.001, 14 137.494, 14 193.500 M 103.571 191.571 C 102.707 192.436, 102 193.529, 102 194 C 102 194.471, 102.707 195.564, 103.571 196.429 C 104.850 197.707, 107.749 198, 119.139 198 C 132.002 198, 133.092 198.142, 132.609 199.750 C 131.369 203.872, 118 258.038, 118 258.938 C 118 259.484, 118.952 260.439, 120.117 261.062 C 121.780 261.953, 122.548 261.880, 123.704 260.725 C 124.512 259.916, 128.661 245.360, 132.923 228.377 C 137.184 211.395, 140.985 196.535, 141.370 195.355 C 141.826 193.955, 141.511 192.654, 140.463 191.605 C 138.103 189.246, 105.927 189.216, 103.571 191.571 " stroke="none" fill="black" fill-rule="evenodd"/>
</svg>