<svg xmlns="http://www.w3.org/2000/svg" width="244" height="324" viewBox="0 0 244 324" version="1.1">
	<path d="M 55.571 63.571 C 54.707 64.436, 54 65.317, 54 65.531 C 54 66.993, 71.421 100.653, 72.488 101.252 C 73.225 101.665, 74.440 101.768, 75.188 101.481 C 76.837 100.849, 93 68.755, 93 66.115 C 93 63.770, 90.710 61.790, 88.832 62.511 C 88.050 62.811, 84.520 68.894, 80.986 76.028 C 77.453 83.163, 74.308 89, 73.997 89 C 73.687 89, 70.748 83.534, 67.467 76.853 C 59.925 61.499, 58.847 60.296, 55.571 63.571 M 35.045 127.064 C 19.586 130.194, 7.255 144.080, 6.841 158.824 C 6.689 164.231, 10.459 179.667, 14.976 192.133 C 18.628 202.212, 26.063 215.568, 33.594 225.579 C 47.004 243.404, 74.270 264.227, 77.454 259.074 C 77.769 258.565, 81.733 255.556, 86.263 252.388 C 112.818 233.821, 132.129 203.986, 138.872 171.112 C 141.945 156.133, 139.262 146.177, 129.518 136.404 C 116.900 123.746, 95.755 123.323, 82.257 135.459 C 79.595 137.852, 76.567 141.388, 75.529 143.317 L 73.640 146.824 70.976 142.624 C 63.636 131.049, 48.255 124.389, 35.045 127.064 M 199.583 126.750 C 197.559 128.774, 134.174 258.291, 134.629 259.475 C 135.410 261.512, 138.051 262.203, 139.728 260.810 C 140.540 260.137, 153.958 234.142, 169.547 203.043 L 197.890 146.500 197.945 200.250 L 198 254 183.571 254 C 171.788 254, 168.855 254.288, 167.571 255.571 C 165.595 257.548, 165.598 258.455, 167.585 260.442 C 168.978 261.835, 173.159 261.995, 202.226 261.763 C 232.452 261.523, 235.377 261.350, 236.386 259.750 C 237.190 258.475, 237.191 257.525, 236.387 256.250 C 235.430 254.730, 233.290 254.464, 220.122 254.224 L 204.959 253.948 205.022 190.810 C 205.088 125.898, 205.098 126.067, 201.417 126.015 C 200.821 126.007, 199.996 126.338, 199.583 126.750 M 31.591 135.573 C 23.452 138.555, 15.998 146.866, 14.553 154.569 C 13.726 158.977, 16.225 172.568, 20.050 184.464 C 25.992 202.943, 35.743 218.759, 49.988 233.026 C 55.220 238.265, 62.724 244.731, 66.665 247.394 L 73.830 252.237 81.554 246.898 C 106.445 229.690, 125.123 201.313, 131.495 171.022 C 133.741 160.345, 133.447 156.214, 129.940 149.196 C 124.547 138.404, 115.427 133.343, 102.977 134.234 C 89.428 135.203, 78.088 146.273, 78.022 158.595 C 78 162.601, 75.807 166, 73.243 166 C 71.111 166, 69 162.820, 69 159.607 C 69 149.949, 60.912 138.862, 51.537 135.667 C 45.642 133.659, 36.928 133.618, 31.591 135.573 " stroke="none" fill="black" fill-rule="evenodd"/>
</svg>