<svg xmlns="http://www.w3.org/2000/svg" width="724" height="324" viewBox="0 0 724 324" version="1.1">
	<path d="M 479.536 127.055 C 462.549 129.693, 447.930 138.283, 436.779 152.178 C 430.868 159.543, 427.929 165.183, 424.874 175.025 C 421.604 185.556, 421.598 201.391, 424.858 212 C 429.839 228.206, 439.383 240.781, 454.017 250.419 L 459.454 254 442.299 254 C 428.036 254, 424.878 254.265, 423.571 255.571 C 421.596 257.546, 421.598 258.455, 423.579 260.436 C 424.990 261.847, 432.058 261.987, 490.220 261.757 C 550.934 261.517, 555.356 261.383, 556.386 259.750 C 557.191 258.474, 557.191 257.526, 556.387 256.250 C 555.413 254.704, 553.140 254.468, 536.895 254.226 L 518.506 253.953 524.003 250.837 C 532.966 245.757, 544.036 233.767, 548.861 223.913 C 554.346 212.711, 556 205.664, 556 193.500 C 556 181.317, 554.346 174.289, 548.824 163.012 C 541.046 147.128, 523.696 133.037, 506.500 128.638 C 498.524 126.597, 486.885 125.914, 479.536 127.055 M 610.344 127 C 596.571 129.862, 584.442 142.877, 582.519 156.859 C 581.745 162.490, 584.759 178.427, 588.642 189.234 C 596.908 212.237, 613.431 235.120, 631.899 249.142 L 638.298 254 612.083 254 C 595.925 254, 585.126 254.397, 583.934 255.035 C 581.440 256.370, 581.448 259.634, 583.948 260.972 C 585.256 261.672, 607.132 261.930, 650.589 261.757 C 710.951 261.517, 715.356 261.383, 716.386 259.750 C 717.191 258.474, 717.191 257.526, 716.387 256.250 C 715.394 254.674, 712.570 254.450, 687.968 254 L 660.652 253.500 664.576 250.548 C 690.783 230.834, 708.329 202.986, 714.835 170.781 C 717.830 155.957, 714.762 145.231, 704.828 135.799 C 695.124 126.585, 679.588 123.837, 667.774 129.246 C 661.217 132.248, 652.787 139.686, 650.970 144.073 L 649.728 147.070 646.429 142.170 C 638.605 130.552, 623.601 124.245, 610.344 127 M 473.500 135.893 C 462.823 139.009, 455.044 143.699, 446.993 151.876 C 435.129 163.924, 430 176.487, 430 193.500 C 430 210.512, 435.128 223.074, 446.993 235.125 C 479.553 268.197, 535.546 253.285, 547.003 208.489 C 554.032 181.004, 540.843 152.100, 515.820 140.153 C 511.244 137.968, 505.115 135.690, 502.201 135.090 C 494.351 133.475, 480.453 133.864, 473.500 135.893 M 607.627 135.468 C 602.258 137.382, 597.040 141.826, 593.525 147.478 C 589.445 154.040, 588.978 162.424, 592.015 174.593 C 599.511 204.630, 617.450 230.782, 642.134 247.659 C 649.802 252.902, 649.045 253.036, 660.560 244.402 C 674.643 233.844, 689.367 216.231, 697.264 200.500 C 703.837 187.405, 709.699 165.114, 708.626 157.291 C 705.866 137.151, 681.006 126.961, 664.797 139.325 C 659.118 143.656, 655.172 150.296, 654.001 157.492 C 652.831 164.680, 651.093 166.819, 647.686 165.267 C 645.719 164.371, 645.199 163.216, 644.735 158.717 C 642.905 140.995, 624.490 129.457, 607.627 135.468 M 33.384 159.412 C 15.475 163.758, 3.559 181.807, 6.987 199.396 C 8.500 207.161, 12.212 214.019, 17.580 218.967 C 40.258 239.870, 76.252 224.246, 76.252 193.500 C 76.252 176.888, 65.367 163.178, 49.147 159.360 C 42.397 157.772, 40.111 157.779, 33.384 159.412 M 199.571 159.571 C 198.707 160.436, 198 161.636, 198 162.239 C 198 162.841, 203.941 169.334, 211.202 176.667 L 224.405 190 164.774 190 C 111.897 190, 104.965 190.178, 103.571 191.571 C 101.598 193.545, 101.598 194.455, 103.571 196.429 C 104.965 197.822, 111.897 198, 164.774 198 L 224.405 198 211.202 211.333 C 203.941 218.666, 198 225.159, 198 225.761 C 198 227.202, 200.832 230, 202.290 230 C 203.969 230, 238 195.693, 238 194 C 238 192.307, 203.969 158, 202.290 158 C 201.659 158, 200.436 158.707, 199.571 159.571 M 279.315 175.213 C 269.792 184.680, 262 193.134, 262 194 C 262 195.761, 295.994 230, 297.743 230 C 299.175 230, 302 227.187, 302 225.761 C 302 225.159, 296.063 218.670, 288.806 211.341 L 275.611 198.016 335.447 197.758 C 391.182 197.518, 395.358 197.380, 396.386 195.750 C 397.191 194.474, 397.191 193.526, 396.386 192.250 C 395.358 190.620, 391.182 190.482, 335.447 190.242 L 275.611 189.984 288.806 176.659 C 296.063 169.330, 302 162.841, 302 162.239 C 302 160.813, 299.175 158, 297.743 158 C 297.131 158, 288.838 165.746, 279.315 175.213 M 31.054 167.728 C 25.018 169.859, 17.781 177.260, 15.667 183.463 C 11.995 194.241, 14.382 205.477, 21.952 213.048 C 32.761 223.857, 50.503 223.777, 61.125 212.872 C 78.475 195.060, 65.904 165.727, 41.072 166.079 C 38.007 166.122, 33.499 166.864, 31.054 167.728 " stroke="none" fill="black" fill-rule="evenodd"/>
</svg>