<svg xmlns="http://www.w3.org/2000/svg" width="148" height="324" viewBox="0 0 148 324" version="1.1">
	<path d="M 7.627 127.515 C 6.158 128.985, 6 135.425, 6 194 C 6 252.599, 6.157 259.014, 7.629 260.486 C 8.557 261.414, 9.956 261.837, 10.879 261.468 C 11.771 261.112, 14.975 260.460, 18 260.019 C 33.632 257.740, 45.294 251.844, 56.610 240.500 C 69.895 227.181, 76.096 212.225, 76.096 193.500 C 76.096 181.478, 74.421 174.443, 68.850 163.065 C 61.003 147.039, 43.646 132.946, 26.500 128.680 C 15.983 126.063, 9.481 125.661, 7.627 127.515 M 14 193.500 C 14 249.506, 14.103 252.999, 15.750 252.985 C 20.233 252.947, 30.962 249.606, 37.397 246.243 C 56.519 236.251, 69 215.421, 69 193.500 C 69 171.579, 56.519 150.749, 37.397 140.757 C 30.962 137.394, 20.233 134.053, 15.750 134.015 C 14.103 134.001, 14 137.494, 14 193.500 M 116.994 190.934 C 111.666 192.555, 107.885 195.217, 105.246 199.205 L 102.500 203.354 102.500 225.427 L 102.500 247.500 105.268 251.576 C 112.073 261.599, 124.846 263.464, 133.662 255.724 C 138.087 251.838, 140 247.545, 140 241.500 C 140 235.455, 138.087 231.162, 133.662 227.276 C 127.539 221.900, 120.002 220.941, 112.800 224.620 C 111.314 225.379, 109.852 226, 109.550 226 C 108.738 226, 108.994 214.263, 109.930 208.561 C 111.023 201.902, 115.221 198, 121.293 198 C 123.637 198, 126.558 198.702, 127.783 199.561 C 130.566 201.510, 133 206.108, 133 209.415 C 133 212.560, 136.417 214.729, 138.564 212.947 C 140.373 211.446, 140.415 205.928, 138.649 201.702 C 136.863 197.428, 130.978 192.365, 126.277 191.060 C 121.999 189.872, 120.550 189.852, 116.994 190.934 M 113.400 233.400 C 110.498 236.302, 110 237.488, 110 241.500 C 110 245.512, 110.498 246.698, 113.400 249.600 C 116.231 252.431, 117.533 253, 121.177 253 C 126.176 253, 129.354 251.151, 131.506 246.989 C 134.251 241.680, 132.628 234.954, 127.783 231.561 C 126.558 230.702, 123.585 230, 121.177 230 C 117.533 230, 116.231 230.569, 113.400 233.400 " stroke="none" fill="black" fill-rule="evenodd"/>
</svg>