<svg xmlns="http://www.w3.org/2000/svg" width="500" height="324" viewBox="0 0 500 324" version="1.1">
	<path d="M 7.627 127.515 C 6.158 128.985, 6 135.425, 6 194 C 6 252.599, 6.157 259.014, 7.629 260.486 C 8.557 261.414, 9.956 261.837, 10.879 261.468 C 11.771 261.112, 14.975 260.460, 18 260.019 C 41.012 256.663, 59.565 243.150, 69.511 222.500 C 74.635 211.863, 76.301 204.562, 76.245 193 C 76.191 181.811, 73.910 172.555, 68.777 162.688 C 58.159 142.280, 38.809 129.301, 14.877 126.537 C 10.402 126.020, 8.923 126.220, 7.627 127.515 M 131.045 127.055 C 116.450 130.037, 104.580 142.490, 102.500 157 C 101.777 162.039, 104.411 176.318, 108.033 187 C 117.885 216.055, 138.454 241.982, 163.930 257.458 C 169.332 260.739, 170.305 261.029, 171.948 259.846 C 172.976 259.106, 177.419 255.930, 181.821 252.789 C 208.654 233.642, 228.119 203.786, 234.590 171.852 C 236.892 160.493, 236.145 152.929, 231.945 145.049 C 219.392 121.496, 186.297 120.170, 172.014 142.647 L 169.379 146.793 166.535 142.298 C 159.386 130.997, 144.031 124.402, 131.045 127.055 M 279.239 143.260 C 269.758 152.754, 262 161.288, 262 162.225 C 262 163.163, 262.959 164.443, 264.131 165.070 C 266.073 166.110, 267.495 164.981, 280.131 152.369 L 294 138.527 294 199.228 C 294 259.533, 294.013 259.937, 296.064 261.034 C 301.059 263.708, 301 264.453, 301 199.174 L 301 138.592 314.830 152.296 C 322.437 159.833, 329.132 166, 329.708 166 C 331.297 166, 333.208 163.291, 332.833 161.570 C 332.418 159.665, 299.028 126, 297.554 126 C 296.963 126, 288.721 133.767, 279.239 143.260 M 415.536 127.066 C 393.107 130.509, 374.284 144.560, 364.499 165.164 C 347.469 201.025, 365.829 244.039, 403.732 257.080 C 431.693 266.700, 464.127 255.629, 480.607 230.839 C 496.745 206.563, 495.476 174.674, 477.456 151.715 C 463.383 133.784, 437.887 123.635, 415.536 127.066 M 14 193.500 L 14 253 16.106 253 C 17.264 253, 20.976 252.287, 24.356 251.415 C 40.631 247.216, 55.638 234.916, 62.809 219.899 C 67.503 210.069, 69 203.687, 69 193.500 C 69 183.313, 67.503 176.931, 62.809 167.101 C 55.638 152.084, 40.631 139.784, 24.356 135.585 C 20.976 134.713, 17.264 134, 16.106 134 L 14 134 14 193.500 M 127.627 135.468 C 118.721 138.643, 111.076 148.151, 110.214 157.125 C 108.877 171.037, 117.530 196.568, 129.750 214.772 C 138.855 228.334, 155.683 244.744, 166.410 250.522 L 169.728 252.308 177.450 246.969 C 198.565 232.373, 215 210.176, 223.428 184.873 C 229.973 165.226, 230.328 156.653, 224.987 147.302 C 220.054 138.663, 211.459 133.983, 200.601 134.022 C 187.052 134.071, 176.257 143.630, 173.985 157.593 C 172.914 164.173, 171.200 166.516, 168.163 165.552 C 165.920 164.840, 165.477 163.789, 164.560 156.995 C 163.285 147.558, 155.516 138.368, 146.101 135.159 C 141.559 133.611, 132.409 133.764, 127.627 135.468 M 410 135.524 C 389.947 141.029, 373.930 156.561, 367.745 176.500 C 364.732 186.213, 364.731 200.780, 367.742 210.500 C 373.374 228.679, 388.154 244.088, 405.810 250.188 C 411.411 252.124, 414.534 252.500, 425 252.500 C 435.466 252.500, 438.589 252.124, 444.190 250.188 C 458.774 245.149, 471.375 234.131, 478.055 220.577 C 487.080 202.265, 487.080 184.735, 478.055 166.423 C 471.478 153.078, 458.927 141.986, 444.723 136.966 C 436.510 134.064, 418.103 133.299, 410 135.524 M 418.355 158.998 C 408.059 161.139, 398.075 169.076, 393.205 178.993 C 390.873 183.740, 390.500 185.743, 390.500 193.500 C 390.500 201.257, 390.873 203.260, 393.205 208.007 C 399.233 220.282, 411.471 228.274, 424.412 228.388 C 452.916 228.638, 469.719 197.546, 453.948 173.736 C 446.696 162.787, 431.130 156.342, 418.355 158.998 M 413.500 168.353 C 407.905 170.964, 401.611 177.362, 399.229 182.860 C 398.289 185.028, 397.652 189.331, 397.652 193.500 C 397.652 201.759, 399.289 206.097, 404.653 212.046 C 415.640 224.234, 434.345 224.097, 445.683 211.746 C 449.999 207.045, 453 199.561, 453 193.500 C 453 183.480, 445.989 172.797, 436.500 168.358 C 429.632 165.146, 420.377 165.144, 413.500 168.353 M 423.724 191.134 C 419.838 193.309, 423.294 198.983, 427.224 196.880 C 428.201 196.357, 429 195.061, 429 194 C 429 191.485, 426.005 189.858, 423.724 191.134 " stroke="none" fill="black" fill-rule="evenodd"/>
</svg>