<svg xmlns="http://www.w3.org/2000/svg" width="403" height="324" viewBox="0 0 403 324" version="1.1">
	<path d="M 7.571 127.571 C 6.707 128.436, 6 129.529, 6 130 C 6 130.471, 6.707 131.564, 7.571 132.429 C 8.966 133.824, 16.152 134, 71.571 134 L 134 134 134 194 L 134 254 71.571 254 C 16.152 254, 8.966 254.176, 7.571 255.571 C 5.598 257.545, 5.598 258.455, 7.571 260.429 C 8.968 261.825, 16.372 262, 74 262 C 131.628 262, 139.032 261.825, 140.429 260.429 C 141.825 259.032, 142 251.628, 142 194 C 142 136.372, 141.825 128.968, 140.429 127.571 C 139.032 126.175, 131.628 126, 74 126 C 16.372 126, 8.968 126.175, 7.571 127.571 M 352 159.534 C 344.221 161.686, 336.723 167.165, 332.116 174.065 C 317.732 195.604, 330.049 223.411, 356.120 228.259 C 366.863 230.257, 381.028 224.803, 388.018 215.977 C 397.775 203.657, 398.518 186.674, 389.870 173.617 C 381.975 161.698, 365.853 155.703, 352 159.534 M 352.994 166.934 C 345.681 169.159, 338.550 175.553, 335.378 182.728 C 333.161 187.744, 333.161 199.256, 335.378 204.272 C 337.662 209.439, 343.537 215.721, 348.432 218.231 C 354.736 221.462, 365.244 221.811, 371.767 219.005 C 377.566 216.510, 384.297 209.855, 386.750 204.190 C 388.845 199.355, 388.856 187.671, 386.771 182.860 C 384.389 177.362, 378.095 170.964, 372.500 168.353 C 367.348 165.948, 358.379 165.296, 352.994 166.934 M 199.244 223.256 C 180.960 241.546, 166 257.206, 166 258.056 C 166 261.988, 166.208 262, 233.578 262 C 302.635 262, 301.803 262.055, 300.833 257.554 C 300.427 255.676, 234.995 190, 233.529 190 C 232.957 190, 217.529 204.965, 199.244 223.256 M 206 226.500 L 178.514 254 233.500 254 L 288.486 254 261 226.500 C 245.883 211.375, 233.508 199, 233.500 199 C 233.492 199, 221.117 211.375, 206 226.500 M 327.213 255.187 C 325.601 256.799, 325.675 259.485, 327.369 260.891 C 328.345 261.701, 338.290 261.952, 362.010 261.764 C 392.441 261.523, 395.377 261.351, 396.386 259.750 C 397.191 258.474, 397.191 257.526, 396.386 256.250 C 395.377 254.649, 392.434 254.478, 361.854 254.237 C 336.691 254.039, 328.126 254.274, 327.213 255.187 " stroke="none" fill="black" fill-rule="evenodd"/>
</svg>