<svg xmlns="http://www.w3.org/2000/svg" width="148" height="324" viewBox="0 0 148 324" version="1.1">
	<path d="M 71.550 62.918 C 67.869 68.875, 54.190 98.331, 54.604 99.410 C 55.269 101.144, 57.524 102.120, 59.295 101.440 C 60.007 101.167, 63.480 95.106, 67.014 87.972 C 70.547 80.837, 73.691 75, 74 75 C 74.309 75, 77.453 80.837, 80.986 87.972 C 84.520 95.106, 88.050 101.189, 88.832 101.489 C 90.716 102.212, 93 100.227, 93 97.866 C 93 95.626, 77.264 63.831, 75.628 62.765 C 74.071 61.751, 72.229 61.820, 71.550 62.918 M 63.102 127.104 C 37.873 130.938, 15.675 150.973, 8.374 176.500 C 6.927 181.561, 6.594 188.462, 6.248 220.597 C 5.877 255.034, 5.996 258.854, 7.490 260.347 C 8.993 261.850, 14.995 261.999, 73.821 261.985 C 109.395 261.976, 139.097 261.591, 139.826 261.129 C 140.888 260.456, 141.130 253.663, 141.041 227.058 C 140.926 192.963, 140.290 183.576, 137.443 174 C 132.654 157.893, 119.395 141.902, 104.500 134.271 C 91.374 127.546, 76.799 125.023, 63.102 127.104 M 58.645 135.584 C 38.562 140.445, 20.305 158.877, 15.537 179.103 C 14.349 184.144, 14.026 192.762, 14.015 219.750 L 14 254 74.115 254 L 134.230 254 133.721 220.250 C 133.317 193.496, 132.869 185.153, 131.563 180 C 125.944 157.834, 109.342 141.057, 87.540 135.515 C 80.213 133.653, 66.488 133.685, 58.645 135.584 " stroke="none" fill="black" fill-rule="evenodd"/>
</svg>