<svg xmlns="http://www.w3.org/2000/svg" width="595" height="324" viewBox="0 0 595 324" version="1.1">
	<path d="M 135.571 127.571 C 134.707 128.436, 134 129.529, 134 130 C 134 130.471, 134.707 131.564, 135.571 132.429 C 136.966 133.824, 144.152 134, 199.571 134 L 262 134 262 194 L 262 254 135.571 254 C 21.970 254, 8.983 254.159, 7.571 255.571 C 5.598 257.545, 5.598 258.455, 7.571 260.429 C 8.984 261.841, 22.161 261.998, 137.821 261.985 C 208.595 261.976, 267.072 261.606, 267.772 261.162 C 268.780 260.522, 269.044 246.603, 269.044 194 C 269.044 141.397, 268.780 127.478, 267.772 126.838 C 267.072 126.394, 237.395 126.024, 201.821 126.015 C 144.343 126.002, 136.968 126.175, 135.571 127.571 M 487.750 127.080 C 486.207 127.979, 486 129.866, 486 143.050 L 486 158 471.934 158 C 457.308 158, 454 158.738, 454 162 C 454 165.147, 457.234 166, 469.170 166 L 480.472 166 467.236 179.263 C 459.956 186.558, 454 193.292, 454 194.228 C 454 195.164, 454.959 196.443, 456.131 197.070 C 458.073 198.110, 459.495 196.981, 472.131 184.369 L 486 170.527 486 196.263 L 486 222 471.934 222 C 457.308 222, 454 222.738, 454 226 C 454 229.262, 457.308 230, 471.934 230 L 486 230 486 244.965 C 486 259.061, 486.120 259.994, 488.064 261.034 C 492.316 263.310, 493 261.071, 493 244.878 L 493 230 521.500 230 L 550 230 550 244.965 C 550 259.061, 550.120 259.994, 552.064 261.034 C 556.315 263.309, 557 261.069, 557 244.904 L 557 230.052 572.142 229.776 C 585.291 229.536, 587.430 229.270, 588.387 227.750 C 589.191 226.475, 589.191 225.525, 588.387 224.250 C 587.430 222.730, 585.291 222.464, 572.142 222.224 L 557 221.948 557 196.237 L 557 170.527 571.005 184.505 C 582.959 196.436, 585.266 198.322, 586.755 197.384 C 590.615 194.954, 589.380 192.907, 575.896 179.396 L 562.592 166.065 574.939 165.782 C 585.418 165.543, 587.453 165.235, 588.388 163.750 C 589.190 162.475, 589.190 161.525, 588.387 160.250 C 587.430 158.730, 585.291 158.464, 572.142 158.224 L 557 157.948 557 143.096 C 557 126.931, 556.315 124.691, 552.064 126.966 C 550.145 127.993, 550 128.963, 550 140.772 L 550 153.473 536.237 139.737 C 528.667 132.181, 522.036 126, 521.500 126 C 520.964 126, 514.333 132.181, 506.763 139.737 L 493 153.473 493 140.937 C 493 126.708, 492.166 124.508, 487.750 127.080 M 510 146.500 L 498.533 158 521.500 158 L 544.467 158 533 146.500 C 526.693 140.175, 521.518 135, 521.500 135 C 521.482 135, 516.307 140.175, 510 146.500 M 493 194 L 493 222 521.500 222 L 550 222 550 194 L 550 166 521.500 166 L 493 166 493 194 M 320.320 175.054 C 313.644 176.226, 305.089 180.030, 298.880 184.588 C 292.942 188.947, 291.405 191.422, 292.800 194.375 C 293.352 195.544, 294.546 200.550, 295.452 205.500 C 299.265 226.318, 312.519 243.977, 331.449 253.460 C 341.122 258.306, 349.686 260.306, 361 260.360 C 372.940 260.418, 379.063 258.973, 390.911 253.303 C 412.015 243.202, 427.131 220.758, 427.397 199.127 C 427.534 187.989, 426.381 187.138, 418.858 192.818 C 410.615 199.041, 404.754 201.285, 395.409 201.793 C 382.100 202.518, 371.651 198.491, 364.054 189.708 C 354.562 178.735, 335.583 172.375, 320.320 175.054 M 314.879 184.251 C 311.238 185.524, 306.634 187.804, 304.649 189.319 L 301.038 192.073 301.653 198.286 C 304.200 224.046, 322.081 245.004, 347.085 251.535 C 355.881 253.833, 372.007 253.089, 380.858 249.978 C 388.983 247.122, 400.776 239.243, 405.966 233.203 C 408.188 230.616, 411.750 225.125, 413.882 221 C 417.655 213.698, 420.911 203.578, 419.834 202.500 C 419.539 202.206, 416.419 203.307, 412.899 204.946 C 404.322 208.942, 394.422 210.414, 385.434 209.029 C 377.293 207.775, 365.839 202.476, 361.500 197.956 C 359.850 196.237, 357.150 193.449, 355.500 191.759 C 353.850 190.070, 349.575 187.313, 346 185.631 C 336.980 181.388, 324.637 180.841, 314.879 184.251 " stroke="none" fill="black" fill-rule="evenodd"/>
</svg>