<svg xmlns="http://www.w3.org/2000/svg" width="340" height="324" viewBox="0 0 340 324" version="1.1">
	<path d="M 72.372 62.765 C 70.418 64.037, 54.003 97.844, 54.593 99.381 C 55.268 101.141, 57.513 102.124, 59.295 101.440 C 60.007 101.167, 63.480 95.106, 67.014 87.972 C 70.547 80.837, 73.691 75, 74 75 C 74.309 75, 77.453 80.837, 80.986 87.972 C 84.520 95.106, 88.050 101.189, 88.832 101.489 C 90.716 102.212, 93 100.227, 93 97.866 C 93 95.626, 77.264 63.831, 75.628 62.765 C 75.008 62.361, 74.275 62.031, 74 62.031 C 73.725 62.031, 72.992 62.361, 72.372 62.765 M 35.045 127.064 C 19.586 130.194, 7.255 144.080, 6.841 158.824 C 6.689 164.231, 10.459 179.667, 14.976 192.133 C 18.628 202.212, 26.063 215.568, 33.594 225.579 C 47.004 243.404, 74.270 264.227, 77.454 259.074 C 77.769 258.565, 81.733 255.556, 86.263 252.388 C 112.818 233.821, 132.129 203.986, 138.872 171.112 C 141.087 160.313, 140.405 153.306, 136.360 145.311 C 126.288 125.404, 98.973 120.430, 82.257 135.459 C 79.595 137.852, 76.567 141.388, 75.529 143.317 L 73.640 146.824 70.976 142.624 C 63.636 131.049, 48.255 124.389, 35.045 127.064 M 183.213 143.315 C 173.746 152.838, 166 161.131, 166 161.743 C 166 162.951, 168.728 166, 169.808 166 C 170.175 166, 176.667 159.819, 184.237 152.263 L 198 138.527 198 198.692 C 198 252.054, 198.178 259.035, 199.571 260.429 C 200.436 261.293, 201.471 262, 201.871 262 C 204.854 262, 205 259.055, 205 199.096 L 205 138.592 218.830 152.296 C 226.437 159.833, 233.132 166, 233.708 166 C 235.291 166, 237.209 163.294, 236.833 161.591 C 236.399 159.629, 203.089 126, 201.579 126 C 200.944 126, 192.680 133.792, 183.213 143.315 M 31.591 135.573 C 23.452 138.555, 15.998 146.866, 14.553 154.569 C 13.726 158.977, 16.225 172.568, 20.050 184.464 C 25.992 202.943, 35.743 218.759, 49.988 233.026 C 55.220 238.265, 62.724 244.731, 66.665 247.394 L 73.830 252.237 81.647 246.869 C 106.364 229.892, 125.112 201.366, 131.495 171.022 C 134.373 157.343, 132.737 149.943, 125.102 142.105 C 114.085 130.794, 94.491 131.337, 84.451 143.230 C 80.543 147.860, 78.048 153.824, 78.022 158.595 C 78 162.601, 75.807 166, 73.243 166 C 71.111 166, 69 162.820, 69 159.607 C 69 149.949, 60.912 138.862, 51.537 135.667 C 45.642 133.659, 36.928 133.618, 31.591 135.573 M 290 159.350 C 282.851 160.984, 278.754 163.215, 272.972 168.623 C 258.895 181.790, 258.902 205.216, 272.987 218.392 C 278.946 223.965, 283.990 226.547, 291.616 227.930 C 306.249 230.584, 320.803 223.351, 327.999 209.851 C 330.727 204.732, 331.438 202.140, 331.788 196.025 C 332.302 187.073, 331.181 182.377, 326.778 175.035 C 319.390 162.716, 303.996 156.151, 290 159.350 M 286.363 167.922 C 259.418 180.158, 267.293 220.873, 296.624 220.978 C 307.938 221.019, 316.326 216.256, 321.551 206.824 C 324.127 202.173, 324.500 200.488, 324.500 193.500 C 324.500 186.512, 324.127 184.827, 321.551 180.176 C 318.179 174.090, 313.063 169.639, 306.965 167.488 C 301.084 165.413, 291.442 165.616, 286.363 167.922 " stroke="none" fill="black" fill-rule="evenodd"/>
</svg>