<svg xmlns="http://www.w3.org/2000/svg" width="308" height="324" viewBox="0 0 308 324" version="1.1">
	<path d="M 71.550 62.918 C 67.869 68.875, 54.190 98.331, 54.604 99.410 C 55.450 101.615, 58.110 102.210, 59.895 100.594 C 60.778 99.795, 64.185 93.709, 67.467 87.070 C 70.748 80.432, 73.687 75, 73.997 75 C 74.308 75, 77.453 80.837, 80.986 87.972 C 84.520 95.106, 88.050 101.189, 88.832 101.489 C 90.716 102.212, 93 100.227, 93 97.866 C 93 95.626, 77.264 63.831, 75.628 62.765 C 74.071 61.751, 72.229 61.820, 71.550 62.918 M 71.571 127.571 C 70.178 128.965, 70 135.897, 70 188.774 L 70 248.405 56.667 235.202 C 49.334 227.941, 42.841 222, 42.239 222 C 40.825 222, 38 224.820, 38 226.232 C 38 226.831, 43.512 232.922, 50.250 239.767 C 61.854 251.556, 62.316 252.178, 59 251.551 C 57.075 251.188, 51.675 249.043, 47 246.786 C 28.415 237.813, 14 216.361, 14 197.677 C 14 194.888, 13.395 192.538, 12.429 191.571 C 10.444 189.587, 9.546 189.597, 7.515 191.627 C 6.224 192.919, 6.019 194.415, 6.522 198.877 C 8.523 216.624, 14.012 228.091, 26.461 240.535 C 36.770 250.839, 45.645 255.881, 58.182 258.555 C 62.207 259.413, 67.300 260.507, 69.500 260.986 C 71.813 261.490, 75.187 261.477, 77.500 260.956 C 79.700 260.460, 84.425 259.509, 88 258.843 C 91.642 258.165, 98.427 255.671, 103.431 253.169 C 114.563 247.606, 125.743 237.013, 131.564 226.513 C 140.894 209.682, 143.164 186.631, 135.064 190.966 C 133.469 191.819, 133 193.049, 133 196.375 C 133 203.078, 129.374 215.635, 125.340 222.899 C 119.901 232.695, 109.975 242.003, 99.820 246.829 C 95.244 249.004, 90.191 251.084, 88.591 251.451 C 85.931 252.061, 86.287 251.450, 92.758 244.309 C 96.649 240.014, 101.896 234.494, 104.417 232.042 C 106.938 229.590, 109 226.867, 109 225.992 C 109 224.222, 107.126 222, 105.633 222 C 105.101 222, 98.666 227.941, 91.333 235.202 L 78 248.405 78 189.425 C 78 137.662, 77.810 130.173, 76.443 128.223 C 74.598 125.588, 73.678 125.465, 71.571 127.571 M 221.500 127.480 C 194.021 132.583, 173.225 152.937, 167.583 180.254 C 165.541 190.137, 165.215 258.815, 167.200 260.800 C 168.109 261.709, 184.200 262, 233.500 262 C 282.800 262, 298.891 261.709, 299.800 260.800 C 301.363 259.237, 301.466 198.541, 299.926 187.322 C 297.544 169.976, 291.151 156.915, 279.399 145.380 C 269.933 136.090, 257.607 129.764, 244.619 127.528 C 234.209 125.737, 230.926 125.730, 221.500 127.480 M 218.072 135.532 C 215.086 136.367, 209.686 138.482, 206.072 140.232 C 197.063 144.594, 184.497 157.095, 180.125 166.045 C 174.016 178.549, 173.796 180.241, 173.273 218.750 L 172.795 254 233.499 254 L 294.203 254 293.723 221.250 C 293.191 184.884, 292.525 179.824, 286.657 167.529 C 282.020 157.811, 275.346 150.045, 266.617 144.206 C 255.830 136.992, 248.918 134.846, 235 134.390 C 226.770 134.121, 221.957 134.445, 218.072 135.532 " stroke="none" fill="black" fill-rule="evenodd"/>
</svg>