<svg xmlns="http://www.w3.org/2000/svg" width="244" height="324" viewBox="0 0 244 324" version="1.1">
	<path d="M 39.571 127.571 C 38.176 128.966, 38 136.152, 38 191.571 L 38 254 23.571 254 C 11.788 254, 8.855 254.288, 7.571 255.571 C 5.598 257.545, 5.598 258.455, 7.571 260.429 C 8.936 261.793, 13.463 262, 42 262 C 70.537 262, 75.064 261.793, 76.429 260.429 C 77.293 259.564, 78 258.471, 78 258 C 78 257.529, 77.293 256.436, 76.429 255.571 C 75.145 254.288, 72.212 254, 60.429 254 L 46 254 46 191.571 C 46 136.152, 45.824 128.966, 44.429 127.571 C 43.564 126.707, 42.471 126, 42 126 C 41.529 126, 40.436 126.707, 39.571 127.571 M 103.200 127.200 C 101.465 128.935, 101.465 259.065, 103.200 260.800 C 104.109 261.709, 120.172 261.996, 169.450 261.985 C 205.227 261.976, 235.072 261.606, 235.772 261.162 C 237.639 259.977, 237.639 128.023, 235.772 126.838 C 235.072 126.394, 205.228 126.024, 169.450 126.015 C 120.172 126.004, 104.109 126.291, 103.200 127.200 M 142.752 161.248 L 170 188.495 197.248 161.248 L 224.495 134 170 134 L 115.505 134 142.752 161.248 M 201.570 167.608 C 186.208 183.337, 172.570 196.694, 171.263 197.290 C 169.030 198.308, 167.103 196.591, 139.443 168.943 L 110 139.513 110 196.756 L 110 254 170 254 L 230 254 230 196.500 C 230 164.875, 229.887 139.002, 229.750 139.004 C 229.613 139.007, 216.931 151.878, 201.570 167.608 " stroke="none" fill="black" fill-rule="evenodd"/>
</svg>