<svg xmlns="http://www.w3.org/2000/svg" width="180" height="324" viewBox="0 0 180 324" version="1.1">
	<path d="M 119.571 63.571 C 118.707 64.436, 118 65.317, 118 65.531 C 118 67.066, 135.449 100.669, 136.574 101.300 C 137.358 101.740, 138.642 101.740, 139.426 101.300 C 141.484 100.146, 158.052 66.300, 157.396 64.590 C 156.731 62.856, 154.476 61.880, 152.705 62.560 C 151.993 62.833, 148.520 68.894, 144.986 76.028 C 141.453 83.163, 138.308 89, 137.997 89 C 137.687 89, 134.748 83.534, 131.467 76.853 C 123.925 61.499, 122.847 60.296, 119.571 63.571 M 23.282 143.282 C 13.777 152.787, 6 161.079, 6 161.710 C 6 163.168, 8.798 166, 10.239 166 C 10.841 166, 17.334 160.059, 24.667 152.798 L 38 139.595 38 199.226 C 38 252.103, 38.178 259.035, 39.571 260.429 C 40.436 261.293, 41.659 262, 42.290 262 C 43.788 262, 78 227.788, 78 226.290 C 78 224.832, 75.202 222, 73.761 222 C 73.159 222, 66.666 227.941, 59.333 235.202 L 46 248.405 46 188.774 C 46 135.897, 45.822 128.965, 44.429 127.571 C 43.564 126.707, 42.341 126, 41.710 126 C 41.079 126, 32.787 133.777, 23.282 143.282 M 103.571 127.571 C 102.707 128.436, 102 129.640, 102 130.249 C 102 130.857, 108.844 138.250, 117.208 146.677 L 132.416 162 117.208 177.323 C 108.844 185.750, 102 193.143, 102 193.751 C 102 194.360, 102.707 195.564, 103.571 196.429 C 104.936 197.793, 109.463 198, 138 198 C 166.537 198, 171.064 197.793, 172.429 196.429 C 173.293 195.564, 174 194.360, 174 193.751 C 174 193.143, 167.156 185.750, 158.792 177.323 L 143.584 162 158.792 146.677 C 167.156 138.250, 174 130.857, 174 130.249 C 174 128.819, 171.181 126, 169.751 126 C 169.143 126, 161.750 132.844, 153.323 141.208 L 138 156.416 122.677 141.208 C 114.250 132.844, 106.857 126, 106.249 126 C 105.640 126, 104.436 126.707, 103.571 127.571 M 126.500 179 L 115.534 190 138 190 L 160.466 190 149.500 179 C 143.469 172.950, 138.294 168, 138 168 C 137.706 168, 132.531 172.950, 126.500 179 " stroke="none" fill="black" fill-rule="evenodd"/>
</svg>