<svg xmlns="http://www.w3.org/2000/svg" width="308" height="324" viewBox="0 0 308 324" version="1.1">
	<path d="M 39.230 159.285 L 6 192.569 6 225.713 C 6 254.511, 6.206 259.063, 7.571 260.429 C 8.968 261.825, 16.343 261.998, 73.821 261.985 C 109.395 261.976, 139.081 261.601, 139.790 261.151 C 140.802 260.509, 141.081 253.044, 141.083 226.553 L 141.086 192.774 108.215 159.387 C 90.135 141.024, 74.694 126, 73.902 126 C 73.109 126, 57.506 140.978, 39.230 159.285 M 167.200 127.200 C 165.465 128.935, 165.465 259.065, 167.200 260.800 C 168.935 262.535, 298.065 262.535, 299.800 260.800 C 301.535 259.065, 301.535 128.935, 299.800 127.200 C 298.065 125.465, 168.935 125.465, 167.200 127.200 M 173 194 L 173 254 201.500 254 L 230 254 230 194 L 230 134 201.500 134 L 173 134 173 194 M 237 194 L 237 254 265.500 254 L 294 254 294 194 L 294 134 265.500 134 L 237 134 237 194 M 43.744 165.756 L 14 195.512 14 224.756 L 14 254 74 254 L 134 254 134 224.744 L 134 195.487 104.244 165.744 C 87.878 149.385, 74.263 136, 73.988 136 C 73.713 136, 60.103 149.390, 43.744 165.756 " stroke="none" fill="black" fill-rule="evenodd"/>
</svg>