<svg xmlns="http://www.w3.org/2000/svg" width="244" height="324" viewBox="0 0 244 324" version="1.1">
	<path d="M 40.316 62.784 C 38.369 64.022, 22.007 97.855, 22.604 99.410 C 23.269 101.144, 25.524 102.120, 27.295 101.440 C 28.007 101.167, 31.480 95.106, 35.014 87.972 C 38.547 80.837, 41.691 75, 42 75 C 42.309 75, 45.453 80.837, 48.986 87.972 C 52.520 95.106, 55.993 101.167, 56.705 101.440 C 58.487 102.124, 60.732 101.141, 61.407 99.381 C 61.997 97.844, 45.582 64.037, 43.628 62.765 C 42.214 61.845, 41.789 61.847, 40.316 62.784 M 23.213 143.315 C 13.746 152.838, 6 161.131, 6 161.743 C 6 163.175, 8.813 166, 10.239 166 C 10.841 166, 17.334 160.059, 24.667 152.798 L 38 139.595 38 199.226 C 38 252.103, 38.178 259.035, 39.571 260.429 C 40.436 261.293, 41.529 262, 42 262 C 42.471 262, 43.564 261.293, 44.429 260.429 C 45.822 259.035, 46 252.103, 46 199.226 L 46 139.595 59.333 152.798 C 66.666 160.059, 73.159 166, 73.761 166 C 75.187 166, 78 163.175, 78 161.743 C 78 159.994, 43.761 126, 42 126 C 41.134 126, 32.680 133.792, 23.213 143.315 M 103.579 191.564 C 101.598 193.545, 101.596 194.454, 103.571 196.429 C 104.928 197.785, 109.106 198, 134.071 198 C 149.982 198, 163 198.223, 163 198.496 C 163 198.768, 156.365 212.269, 148.257 228.498 C 136.171 252.687, 133.712 258.320, 134.615 259.752 C 135.621 261.347, 138.545 261.524, 168.109 261.779 C 185.924 261.933, 201.463 261.825, 202.640 261.538 C 203.817 261.252, 205.047 260.321, 205.373 259.469 C 205.722 258.561, 199.778 245.548, 190.988 227.976 L 176.008 198.030 205.646 197.765 C 232.613 197.524, 235.382 197.342, 236.386 195.750 C 237.191 194.474, 237.191 193.526, 236.386 192.250 C 235.356 190.617, 230.934 190.483, 170.220 190.243 C 112.058 190.013, 104.990 190.153, 103.579 191.564 M 156.743 228.500 L 144.005 254 169.503 254 C 183.526 254, 195 253.772, 195 253.492 C 195 252.827, 170.070 203, 169.737 203 C 169.597 203, 163.750 214.475, 156.743 228.500 " stroke="none" fill="black" fill-rule="evenodd"/>
</svg>