<svg xmlns="http://www.w3.org/2000/svg" width="52" height="324" viewBox="0 0 52 324" version="1.1">
	<path d="M 7.200 63.200 C 5.512 64.888, 5.512 99.112, 7.200 100.800 C 8.040 101.640, 13.562 102, 25.629 102 C 39.958 102, 43.122 101.736, 44.429 100.429 C 46.757 98.100, 46.757 65.900, 44.429 63.571 C 43.122 62.264, 39.958 62, 25.629 62 C 13.562 62, 8.040 62.360, 7.200 63.200 M 14 82 L 14 94 26 94 L 38 94 38 82 L 38 70 26 70 L 14 70 14 82 M 23.571 127.571 C 22.175 128.968, 22 136.372, 22 194 C 22 251.628, 22.175 259.032, 23.571 260.429 C 24.436 261.293, 25.529 262, 26 262 C 26.471 262, 27.564 261.293, 28.429 260.429 C 29.825 259.032, 30 251.628, 30 194 C 30 136.372, 29.825 128.968, 28.429 127.571 C 27.564 126.707, 26.471 126, 26 126 C 25.529 126, 24.436 126.707, 23.571 127.571 " stroke="none" fill="black" fill-rule="evenodd"/>
</svg>