<svg xmlns="http://www.w3.org/2000/svg" width="52" height="324" viewBox="0 0 52 324" version="1.1">
	<path d="M 7.571 63.571 C 6.707 64.436, 6 65.317, 6 65.531 C 6 66.316, 23.159 100.529, 23.965 101.349 C 26.275 103.702, 28.913 100.229, 36.760 84.501 C 41.292 75.417, 45 67.143, 45 66.115 C 45 63.642, 42.675 61.804, 40.569 62.612 C 39.643 62.967, 35.930 69.156, 32.318 76.364 L 25.750 89.470 19.252 76.485 C 11.693 61.381, 10.776 60.367, 7.571 63.571 M 23.571 127.571 C 22.175 128.968, 22 136.372, 22 194 C 22 251.628, 22.175 259.032, 23.571 260.429 C 24.436 261.293, 25.529 262, 26 262 C 26.471 262, 27.564 261.293, 28.429 260.429 C 29.825 259.032, 30 251.628, 30 194 C 30 136.372, 29.825 128.968, 28.429 127.571 C 27.564 126.707, 26.471 126, 26 126 C 25.529 126, 24.436 126.707, 23.571 127.571 " stroke="none" fill="black" fill-rule="evenodd"/>
</svg>