<svg xmlns="http://www.w3.org/2000/svg" width="308" height="324" viewBox="0 0 308 324" version="1.1">
	<path d="M 95.870 127.049 C 80.795 129.323, 69.638 135.172, 57.974 146.916 C 46.364 158.605, 41.320 169.029, 38.518 187.126 C 38.001 190.464, 37.633 190.803, 33.886 191.402 C 16.678 194.154, 3.409 213.993, 7 231.604 C 10.110 246.859, 20.914 257.359, 36.248 260.030 C 51.885 262.753, 68.412 253.206, 74.022 238.211 C 78.909 225.151, 75.823 210.663, 66.080 200.920 C 60.776 195.616, 52.046 191, 47.320 191 C 45.958 191, 45.809 190.105, 46.333 185.088 C 48.180 167.416, 61.286 148.917, 77.877 140.562 C 86.141 136.400, 91.509 134.859, 100.396 134.094 C 107.982 133.441, 110.495 131.605, 108.394 128.250 C 107.112 126.203, 103.668 125.873, 95.870 127.049 M 162.355 158.992 C 140.871 163.489, 128.274 187.905, 137.329 207.500 C 149.748 234.376, 186.198 235.744, 199.999 209.851 C 202.727 204.732, 203.438 202.140, 203.788 196.025 C 204.302 187.073, 203.181 182.377, 198.778 175.035 C 191.625 163.108, 175.862 156.165, 162.355 158.992 M 158.363 167.922 C 148.077 172.593, 141.750 182.353, 141.750 193.549 C 141.750 208.674, 152.273 219.804, 167.494 220.781 C 173.721 221.181, 175.555 220.892, 180.145 218.791 C 201.658 208.942, 202.784 180.023, 182.073 169.250 C 176.828 166.521, 174.756 166.004, 169.163 166.022 C 164.819 166.036, 161.060 166.698, 158.363 167.922 M 167.750 191.080 C 165.372 192.465, 165.542 195.685, 168.064 197.034 C 171.753 199.008, 174.819 194.219, 171.800 191.200 C 170.367 189.767, 170.022 189.757, 167.750 191.080 M 287.235 191.145 C 273.081 193.175, 260.516 199.667, 249.396 210.696 C 243.702 216.343, 241.153 219.893, 237.549 227.196 C 230.441 241.596, 227.671 258.683, 232.064 261.034 C 235.317 262.775, 236.669 260.741, 237.436 252.950 C 238.681 240.317, 242.224 231.311, 250.143 220.646 C 258.982 208.743, 275.692 199.465, 290.402 198.293 C 294.306 197.982, 298.288 197.323, 299.250 196.828 C 301.582 195.631, 301.477 192.325, 299.066 191.035 C 296.893 189.872, 296.058 189.880, 287.235 191.145 M 38.282 202.450 C 32.281 211.715, 30.222 227.422, 33.678 237.572 C 35.475 242.853, 40.032 251, 41.188 251 C 41.575 251, 43.603 247.536, 45.695 243.302 C 49.378 235.850, 49.500 235.265, 49.500 225 C 49.500 214.735, 49.378 214.150, 45.695 206.698 C 43.603 202.464, 41.578 199.006, 41.195 199.012 C 40.813 199.019, 39.502 200.566, 38.282 202.450 M 51.440 201.307 C 58.889 212.884, 58.881 237.129, 51.425 248.715 C 49.446 251.790, 49.614 252.097, 52.644 250.945 C 57.891 248.950, 62.915 243.919, 66.080 237.488 C 68.890 231.782, 69.186 230.354, 68.817 224.295 C 68.582 220.431, 67.571 215.775, 66.474 213.500 C 64.087 208.551, 57.039 201.558, 53.028 200.160 C 50.101 199.139, 50.063 199.167, 51.440 201.307 M 24.849 203.285 C 22.481 205.091, 19.183 208.768, 17.521 211.456 C 14.735 215.963, 14.500 217.056, 14.500 225.500 C 14.500 233.944, 14.735 235.037, 17.521 239.544 C 20.603 244.528, 27.992 251, 30.601 251 C 31.843 251, 31.834 250.676, 30.537 248.697 C 28.228 245.173, 25.365 236.131, 24.593 229.925 C 23.727 222.958, 25.133 213.950, 28.318 206.065 C 29.665 202.729, 30.405 200, 29.961 200 C 29.518 200, 27.218 201.478, 24.849 203.285 M 135.585 255.558 C 134.713 256.430, 134 257.529, 134 258 C 134 258.471, 134.713 259.570, 135.585 260.442 C 136.978 261.835, 141.159 261.995, 170.226 261.763 C 200.452 261.523, 203.377 261.350, 204.386 259.750 C 205.191 258.474, 205.191 257.526, 204.386 256.250 C 203.377 254.650, 200.452 254.477, 170.226 254.237 C 141.159 254.005, 136.978 254.165, 135.585 255.558 " stroke="none" fill="black" fill-rule="evenodd"/>
</svg>