<svg xmlns="http://www.w3.org/2000/svg" width="340" height="324" viewBox="0 0 340 324" version="1.1">
	<path d="M 55.571 63.571 C 54.707 64.436, 54 65.317, 54 65.531 C 54 66.993, 71.421 100.653, 72.488 101.252 C 73.225 101.665, 74.440 101.768, 75.187 101.482 C 77.102 100.747, 94.082 66.377, 93.403 64.609 C 92.732 62.858, 90.483 61.877, 88.705 62.560 C 87.993 62.833, 84.520 68.894, 80.986 76.028 C 77.453 83.163, 74.308 89, 73.997 89 C 73.687 89, 70.748 83.534, 67.467 76.853 C 59.925 61.499, 58.847 60.296, 55.571 63.571 M 35.045 127.064 C 19.586 130.194, 7.255 144.080, 6.841 158.824 C 6.689 164.231, 10.459 179.667, 14.976 192.133 C 21.053 208.902, 33.075 227.074, 46.717 240.107 C 55.946 248.924, 71.175 260, 74.070 260 C 75.196 260, 77.778 258.733, 79.809 257.185 C 81.839 255.636, 87.009 251.747, 91.298 248.542 C 105.496 237.932, 118.913 221.497, 127.526 204.162 C 136.027 187.055, 141.511 165.812, 139.941 156.078 C 136.401 134.137, 113.568 120.988, 92.798 128.928 C 86.373 131.384, 78.359 138.062, 75.529 143.317 L 73.640 146.824 70.976 142.624 C 63.636 131.049, 48.255 124.389, 35.045 127.064 M 295.750 127.080 C 294.113 128.034, 294 132.152, 294 191.050 L 294 254 279.571 254 C 267.788 254, 264.855 254.288, 263.571 255.571 C 261.595 257.548, 261.598 258.455, 263.585 260.442 C 264.978 261.835, 269.159 261.995, 298.226 261.763 C 328.452 261.523, 331.377 261.350, 332.386 259.750 C 333.190 258.475, 333.191 257.525, 332.387 256.250 C 331.430 254.730, 329.291 254.464, 316.142 254.224 L 301 253.948 301 191.174 C 301 123.280, 301.058 123.988, 295.750 127.080 M 31.054 135.728 C 24.787 137.940, 17.726 145.297, 15.534 151.899 C 13.881 156.875, 13.875 157.704, 15.430 166.205 C 18.776 184.494, 25.269 200.593, 35.513 216 C 41.751 225.381, 57.226 240.966, 66.665 247.373 L 73.830 252.237 81.660 246.869 C 106.190 230.050, 125.148 201.197, 131.495 171.022 C 133.741 160.345, 133.447 156.214, 129.940 149.196 C 123.554 136.416, 109.612 130.846, 95.795 135.554 C 86.288 138.793, 78 149.539, 78 158.625 C 78 162.910, 76.115 166, 73.500 166 C 71.133 166, 69 162.970, 69 159.607 C 69 149.949, 60.912 138.862, 51.537 135.667 C 45.516 133.616, 36.964 133.641, 31.054 135.728 M 167.585 191.558 C 166.713 192.430, 166 193.529, 166 194 C 166 194.471, 166.713 195.570, 167.585 196.442 C 168.978 197.835, 173.159 197.995, 202.226 197.763 C 232.452 197.523, 235.377 197.350, 236.386 195.750 C 237.191 194.474, 237.191 193.526, 236.386 192.250 C 235.377 190.650, 232.452 190.477, 202.226 190.237 C 173.159 190.005, 168.978 190.165, 167.585 191.558 " stroke="none" fill="black" fill-rule="evenodd"/>
</svg>