<svg xmlns="http://www.w3.org/2000/svg" width="148" height="324" viewBox="0 0 148 324" version="1.1">
	<path d="M 71.550 62.918 C 67.869 68.875, 54.190 98.331, 54.604 99.410 C 55.269 101.144, 57.524 102.120, 59.295 101.440 C 60.007 101.167, 63.480 95.106, 67.014 87.972 C 70.547 80.837, 73.691 75, 74 75 C 74.309 75, 77.453 80.837, 80.986 87.972 C 84.520 95.106, 88.050 101.189, 88.832 101.489 C 90.716 102.212, 93 100.227, 93 97.866 C 93 95.626, 77.264 63.831, 75.628 62.765 C 74.071 61.751, 72.229 61.820, 71.550 62.918 M 7.571 191.571 C 5.678 193.464, 5.668 193.955, 7.360 201.147 C 10.681 215.256, 21.102 225.149, 35.660 228.013 C 51.056 231.042, 68.391 221.263, 73.946 206.414 C 75.076 203.395, 76 200.267, 76 199.462 C 76 198.213, 80.219 198, 105 198 L 134 198 134 228.965 C 134 259.475, 134.031 259.946, 136.117 261.062 C 140.718 263.525, 140.921 262.062, 141.040 225.605 C 141.128 198.461, 140.886 191.544, 139.825 190.871 C 139.096 190.409, 109.395 190.024, 73.821 190.015 C 16.343 190.002, 8.968 190.175, 7.571 191.571 M 14.525 200.250 C 18.320 213.188, 28.495 221, 41.552 221 C 54.126 221, 64.628 212.899, 68.454 200.250 L 69.135 198 41.500 198 L 13.865 198 14.525 200.250 " stroke="none" fill="black" fill-rule="evenodd"/>
</svg>