<svg xmlns="http://www.w3.org/2000/svg" width="148" height="324" viewBox="0 0 148 324" version="1.1">
	<path d="M 71.550 62.918 C 67.869 68.875, 54.190 98.331, 54.604 99.410 C 55.269 101.144, 57.524 102.120, 59.295 101.440 C 60.007 101.167, 63.480 95.106, 67.014 87.972 C 70.547 80.837, 73.701 75, 74.023 75 C 74.344 75, 77.371 80.793, 80.750 87.872 C 84.128 94.952, 87.649 101.035, 88.573 101.390 C 90.682 102.199, 93 100.353, 93 97.866 C 93 95.626, 77.264 63.831, 75.628 62.765 C 74.071 61.751, 72.229 61.820, 71.550 62.918 M 39.230 159.285 L 6 192.569 6 225.713 C 6 254.511, 6.206 259.063, 7.571 260.429 C 8.968 261.825, 16.343 261.998, 73.821 261.985 C 109.395 261.976, 139.081 261.601, 139.791 261.150 C 140.805 260.507, 141.080 253.043, 141.072 226.416 L 141.062 192.500 108.281 159.220 C 90.251 140.916, 74.816 125.954, 73.980 125.970 C 73.144 125.987, 57.506 140.978, 39.230 159.285 M 43.744 165.756 L 14 195.512 14 224.756 L 14 254 74 254 L 134 254 134 224.744 L 134 195.487 104.244 165.744 C 87.878 149.385, 74.263 136, 73.988 136 C 73.713 136, 60.103 149.390, 43.744 165.756 " stroke="none" fill="black" fill-rule="evenodd"/>
</svg>