<svg xmlns="http://www.w3.org/2000/svg" width="308" height="324" viewBox="0 0 308 324" version="1.1">
	<path d="M 35.045 127.064 C 24.674 129.164, 14.828 136.537, 10.151 145.705 C 7.578 150.747, 5.616 161.395, 6.828 163.738 C 7.329 164.707, 8.527 169.100, 9.490 173.500 C 13.122 190.101, 19.200 204.421, 28.736 218.844 C 42.121 239.090, 73.693 265.161, 77.454 259.074 C 77.769 258.565, 81.706 255.570, 86.203 252.418 C 112.824 233.764, 132.230 203.632, 138.874 170.631 C 141.826 155.967, 138.718 145.190, 128.828 135.799 C 113.374 121.125, 87.558 124.480, 76.005 142.662 L 73.360 146.824 71.471 143.317 C 65.358 131.965, 48.340 124.371, 35.045 127.064 M 31.054 135.728 C 24.787 137.940, 17.726 145.297, 15.534 151.899 C 13.881 156.875, 13.875 157.704, 15.430 166.205 C 18.772 184.475, 25.252 200.548, 35.502 216 C 41.742 225.407, 57.252 241.032, 66.665 247.394 L 73.830 252.237 81.502 246.934 C 96.559 236.525, 111.143 219.907, 119.764 203.337 C 127.733 188.019, 133.910 165.555, 132.584 156.712 C 131.161 147.222, 123.232 138.158, 113.609 135.020 C 107.591 133.058, 97.093 134.170, 91.680 137.342 C 83.949 141.872, 78.067 150.781, 78.022 158.027 C 77.998 161.891, 75.675 166, 73.515 166 C 71.013 166, 69 162.918, 69 159.088 C 69 153.811, 63.742 143.755, 59.031 140.024 C 51.523 134.078, 40.514 132.388, 31.054 135.728 M 167.750 191.080 C 165.422 192.436, 165.524 195.675, 167.934 196.965 C 169.209 197.647, 191.550 198, 233.500 198 C 275.450 198, 297.791 197.647, 299.066 196.965 C 300.130 196.395, 301 195.061, 301 194 C 301 192.939, 300.130 191.605, 299.066 191.035 C 296.420 189.619, 170.184 189.662, 167.750 191.080 " stroke="none" fill="black" fill-rule="evenodd"/>
</svg>