<svg xmlns="http://www.w3.org/2000/svg" width="340" height="324" viewBox="0 0 340 324" version="1.1">
	<path d="M 135.550 62.918 C 131.869 68.875, 118.190 98.331, 118.604 99.410 C 119.269 101.144, 121.524 102.120, 123.295 101.440 C 124.007 101.167, 127.480 95.106, 131.014 87.972 C 134.547 80.837, 137.691 75, 138 75 C 138.309 75, 141.453 80.837, 144.986 87.972 C 148.520 95.106, 151.993 101.167, 152.705 101.440 C 154.487 102.124, 156.732 101.141, 157.407 99.381 C 157.997 97.844, 141.582 64.037, 139.628 62.765 C 138.071 61.751, 136.229 61.820, 135.550 62.918 M 23.213 143.315 C 13.746 152.838, 6 161.131, 6 161.743 C 6 163.175, 8.813 166, 10.239 166 C 10.841 166, 17.334 160.059, 24.667 152.798 L 38 139.595 38 199.598 C 38 261.687, 38.020 262, 41.987 262 C 43.757 262, 78 228.013, 78 226.257 C 78 224.825, 75.187 222, 73.761 222 C 73.159 222, 66.666 227.941, 59.333 235.202 L 46 248.405 46 188.402 C 46 126.313, 45.980 126, 42.013 126 C 41.140 126, 32.680 133.792, 23.213 143.315 M 130.223 159.008 C 119.939 161.164, 110.017 169.415, 105.189 179.825 C 101.440 187.907, 101.440 199.093, 105.189 207.175 C 112.145 222.173, 128.486 231.176, 143.135 228.082 C 165.666 223.323, 177.892 201.619, 169.934 180.507 C 164.266 165.471, 146.158 155.667, 130.223 159.008 M 127.463 167.591 C 121.971 169.541, 116.552 174.205, 113.249 179.824 C 110.800 183.989, 110.500 185.483, 110.500 193.500 C 110.500 201.517, 110.800 203.011, 113.249 207.176 C 121.926 221.937, 141.604 225.610, 155.031 214.976 C 160.751 210.445, 165 201.292, 165 193.500 C 165 182.038, 157.486 171.200, 146.965 167.488 C 141.740 165.644, 132.813 165.692, 127.463 167.591 M 135.571 191.571 C 134.707 192.436, 134 193.529, 134 194 C 134 194.471, 134.707 195.564, 135.571 196.429 C 136.436 197.293, 137.529 198, 138 198 C 138.471 198, 139.564 197.293, 140.429 196.429 C 141.293 195.564, 142 194.471, 142 194 C 142 193.529, 141.293 192.436, 140.429 191.571 C 139.564 190.707, 138.471 190, 138 190 C 137.529 190, 136.436 190.707, 135.571 191.571 M 231.200 223.200 C 230.375 224.025, 230 229.022, 230 239.200 L 230 254 215.571 254 C 203.788 254, 200.855 254.288, 199.571 255.571 C 197.598 257.545, 197.598 258.455, 199.571 260.429 C 200.855 261.712, 203.788 262, 215.571 262 L 230 262 230 276.800 C 230 286.978, 230.375 291.975, 231.200 292.800 C 232.641 294.241, 297.639 294.514, 299.890 293.089 C 300.991 292.392, 301.239 289.076, 301.082 277.131 L 300.885 262.053 316.085 261.776 C 329.288 261.536, 331.430 261.270, 332.387 259.750 C 333.191 258.475, 333.191 257.525, 332.387 256.250 C 331.430 254.730, 329.288 254.464, 316.085 254.224 L 300.885 253.947 301.082 238.869 C 301.239 226.924, 300.991 223.608, 299.890 222.911 C 297.639 221.486, 232.641 221.759, 231.200 223.200 M 238 242 L 238 254 266 254 L 294 254 294 242 L 294 230 266 230 L 238 230 238 242 M 238 274 L 238 286 266 286 L 294 286 294 274 L 294 262 266 262 L 238 262 238 274 " stroke="none" fill="black" fill-rule="evenodd"/>
</svg>