<svg xmlns="http://www.w3.org/2000/svg" width="276" height="324" viewBox="0 0 276 324" version="1.1">
	<path d="M 136.372 62.765 C 134.418 64.037, 118.003 97.844, 118.593 99.381 C 119.268 101.141, 121.513 102.124, 123.295 101.440 C 124.007 101.167, 127.480 95.106, 131.014 87.972 C 134.547 80.837, 137.691 75, 138 75 C 138.309 75, 141.453 80.837, 144.986 87.972 C 148.520 95.106, 151.993 101.167, 152.705 101.440 C 154.487 102.124, 156.732 101.141, 157.407 99.381 C 157.716 98.575, 154.096 90.173, 149.363 80.708 C 141.638 65.261, 139.672 62.031, 138 62.031 C 137.725 62.031, 136.992 62.361, 136.372 62.765 M 99.045 127.092 C 88.744 129.112, 78.837 136.518, 74.151 145.705 C 73.055 147.852, 71.662 152.351, 71.054 155.703 C 70.108 160.921, 70.248 163.179, 72.030 171.404 C 73.174 176.687, 74.986 183.553, 76.056 186.661 C 78.401 193.479, 78.406 193.549, 76.429 191.571 C 75.064 190.207, 70.537 190, 42 190 C 13.463 190, 8.936 190.207, 7.571 191.571 C 5.598 193.545, 5.598 194.455, 7.571 196.429 C 8.936 197.794, 13.471 198, 42.081 198 C 73.232 198, 75.108 197.897, 76.650 196.095 C 78.206 194.278, 78.493 194.612, 82.891 203.345 C 89.138 215.753, 95.700 225.268, 104.664 234.917 C 111.975 242.787, 127.892 255.590, 135.077 259.381 L 138.642 261.262 150.770 252.092 C 169.452 237.968, 182.965 222.200, 191.295 204.806 L 194.500 198.113 225.452 198.056 L 256.405 198 243.202 211.333 C 235.941 218.666, 230 225.159, 230 225.761 C 230 227.187, 232.825 230, 234.257 230 C 236.006 230, 270 195.761, 270 194 C 270 192.239, 236.006 158, 234.257 158 C 232.825 158, 230 160.813, 230 162.239 C 230 162.841, 235.941 169.334, 243.202 176.667 L 256.405 190 227.095 190 C 199.581 190, 197.829 189.893, 198.487 188.250 C 200.982 182.019, 204.241 166.572, 204.236 161 C 204.221 144.248, 192.207 130.094, 175.438 127.073 C 161.808 124.617, 147.460 130.929, 140.005 142.662 L 137.360 146.824 135.503 143.377 C 133.181 139.064, 126.418 132.764, 121.318 130.162 C 119.183 129.073, 114.781 127.691, 111.535 127.091 C 104.969 125.877, 105.243 125.877, 99.045 127.092 M 95.054 135.728 C 88.760 137.950, 81.727 145.295, 79.514 151.957 C 76.225 161.860, 79.778 179.403, 88.991 198.743 C 95.436 212.272, 102.633 222.524, 113.005 232.951 C 120.278 240.262, 135.372 252, 137.500 252 C 137.870 252, 141.609 249.637, 145.808 246.750 C 160.290 236.792, 175.544 219.619, 183.091 204.779 C 184.691 201.632, 186 198.819, 186 198.529 C 186 198.238, 175.007 198, 161.571 198 C 140.697 198, 136.914 197.771, 135.571 196.429 C 133.598 194.455, 133.598 193.545, 135.571 191.571 C 136.921 190.222, 140.881 190, 163.596 190 L 190.050 190 191.078 187.294 C 193.447 181.063, 196.063 170.060, 196.641 163.899 C 198.581 143.203, 179.615 128.801, 159.463 135.667 C 150.088 138.862, 142 149.949, 142 159.607 C 142 162.970, 139.867 166, 137.500 166 C 135.133 166, 133 162.970, 133 159.607 C 133 149.949, 124.912 138.862, 115.537 135.667 C 109.516 133.616, 100.964 133.641, 95.054 135.728 " stroke="none" fill="black" fill-rule="evenodd"/>
</svg>