<svg xmlns="http://www.w3.org/2000/svg" width="803" height="324" viewBox="0 0 803 324" version="1.1">
	<path d="M 551.200 63.200 C 550.358 64.042, 550 69.644, 550 82 C 550 94.356, 550.358 99.958, 551.200 100.800 C 552.886 102.486, 586.114 102.486, 587.800 100.800 C 588.642 99.958, 589 94.356, 589 82 C 589 69.644, 588.642 64.042, 587.800 63.200 C 586.114 61.514, 552.886 61.514, 551.200 63.200 M 711.200 63.200 C 708.951 65.449, 709.997 67.450, 717.225 74.726 L 724.450 82 717.225 89.274 C 709.909 96.639, 708.841 98.793, 711.436 100.947 C 713.416 102.591, 715.236 101.427, 722.974 93.568 L 729.449 86.993 737.099 94.599 C 743.968 101.427, 744.967 102.088, 746.875 101.067 C 750.361 99.201, 749.377 96.926, 741.775 89.274 L 734.550 82 741.775 74.726 C 749.377 67.074, 750.361 64.799, 746.875 62.933 C 744.967 61.912, 743.969 62.571, 737.125 69.363 L 729.500 76.931 721.876 69.465 C 717.683 65.359, 713.835 62, 713.326 62 C 712.817 62, 711.860 62.540, 711.200 63.200 M 557 82 L 557 94 569.500 94 L 582 94 582 82 L 582 70 569.500 70 L 557 70 557 82 M 134.571 127.571 C 133.640 128.503, 133 130.860, 133 133.361 C 133 139.530, 130.472 148.473, 126.330 156.954 C 117.672 174.680, 95.886 188.920, 77.321 188.985 C 73.426 188.999, 70 190.878, 70 193 C 70 193.471, 70.732 194.589, 71.627 195.485 C 74.840 198.697, 92.038 195.139, 104.500 188.683 C 113.952 183.786, 126.030 172.472, 130.851 164 L 133.981 158.500 133.991 208.679 C 133.999 252.954, 134.185 259.042, 135.571 260.429 C 137.563 262.420, 138.419 262.405, 140.128 260.347 C 141.233 259.015, 141.597 249.276, 142 210.220 L 142.500 161.746 145.736 166.623 C 157.281 184.026, 176.685 195.251, 196.864 196.201 C 202.041 196.444, 203.438 196.174, 204.358 194.750 C 206.568 191.332, 204.014 189.561, 195.895 188.881 C 180.951 187.630, 167.764 181.006, 157.141 169.413 C 148.100 159.546, 142 145.223, 142 133.861 C 142 129.087, 140.233 126, 137.500 126 C 136.754 126, 135.436 126.707, 134.571 127.571 M 399.531 127.067 C 382.235 129.721, 366.518 138.934, 356.341 152.383 C 337.453 177.343, 337.427 209.718, 356.275 234.500 C 361.180 240.948, 366.853 246.048, 374.558 250.935 L 379.392 254 362.630 254 C 352.988 254, 345.047 254.440, 343.934 255.035 C 341.446 256.367, 341.446 259.633, 343.934 260.965 C 345.209 261.647, 367.550 262, 409.500 262 C 451.450 262, 473.791 261.647, 475.066 260.965 C 476.130 260.395, 477 259.061, 477 258 C 477 254.620, 473.740 254, 455.982 254 L 438.832 254 446.347 248.974 C 478.802 227.267, 485.722 182.632, 461.431 151.682 C 447.383 133.784, 421.870 123.638, 399.531 127.067 M 535.244 159.256 C 516.960 177.546, 502 193.280, 502 194.220 C 502 195.160, 502.953 196.440, 504.119 197.063 C 506.061 198.103, 508.865 195.573, 537.865 166.616 L 569.493 135.034 601.130 166.614 C 630.124 195.556, 632.944 198.100, 634.884 197.062 C 636.048 196.439, 637 195.155, 637 194.209 C 637 192.424, 571.256 126, 569.489 126 C 568.939 126, 553.529 140.965, 535.244 159.256 M 726.253 127.250 C 725.708 127.938, 724.755 131.994, 724.135 136.263 C 721.867 151.891, 716.539 162.349, 705.500 172.845 C 695.241 182.598, 680.774 189, 668.990 189 C 664.175 189, 662 190.269, 662 193.078 C 662 196.566, 664.347 197.185, 673.061 195.992 C 682.753 194.665, 691.823 191.551, 699.610 186.877 C 707.269 182.280, 717.709 171.709, 722.250 163.952 L 726 157.546 726 208.650 C 726 263.712, 725.997 263.678, 730.936 261.034 C 732.978 259.941, 733 259.410, 733.019 210.215 L 733.038 160.500 736.158 165.500 C 737.874 168.250, 742.478 173.650, 746.389 177.500 C 757.013 187.958, 769.926 194.130, 785.256 196.078 C 793.786 197.162, 797 196.320, 797 193 C 797 190.423, 794.075 189, 788.776 189 C 778.392 189, 762.435 182.473, 753.314 174.494 C 742.633 165.150, 734.575 149.326, 733.324 135.238 C 732.680 127.984, 731.752 126, 729 126 C 728.035 126, 726.799 126.563, 726.253 127.250 M 394 135.520 C 371.045 141.806, 354.118 160.659, 350.266 184.230 C 348.865 192.800, 348.868 194.580, 350.290 203.016 C 354.326 226.952, 371.592 245.721, 394.988 251.606 C 403.829 253.829, 420.071 253.068, 428.723 250.024 C 436.962 247.125, 446.114 241.102, 452.710 234.237 C 462.032 224.536, 468.965 207.159, 468.965 193.500 C 468.965 180.904, 463.161 165.213, 454.660 154.828 C 449.100 148.035, 437.611 140.102, 428.858 137.012 C 420.514 134.066, 402.176 133.281, 394 135.520 M 231.315 175.213 C 221.792 184.680, 214 193.134, 214 194 C 214 195.680, 247.953 230, 249.615 230 C 251.105 230, 253 227.795, 253 226.062 C 253 225.216, 246.143 217.656, 237.762 209.262 L 222.524 194 237.762 178.738 C 246.143 170.344, 253 162.784, 253 161.938 C 253 160.205, 251.105 158, 249.615 158 C 249.073 158, 240.838 165.746, 231.315 175.213 M 19.637 191.465 C 12.890 193.870, 7.867 199.861, 6.503 207.131 C 5.855 210.586, 7.593 214, 10 214 C 11.861 214, 14 210.700, 14 207.829 C 14 205.718, 15.030 203.770, 17.400 201.400 C 20.302 198.498, 21.488 198, 25.500 198 C 29.512 198, 30.698 198.498, 33.600 201.400 C 36.502 204.302, 37 205.488, 37 209.500 C 37 213.512, 36.502 214.698, 33.600 217.600 C 31.526 219.674, 29.214 221, 27.671 221 C 24.930 221, 22 223.325, 22 225.500 C 22 227.675, 24.930 230, 27.671 230 C 29.214 230, 31.526 231.326, 33.600 233.400 C 36.502 236.302, 37 237.488, 37 241.500 C 37 245.512, 36.502 246.698, 33.600 249.600 C 30.698 252.502, 29.512 253, 25.500 253 C 21.488 253, 20.302 252.502, 17.400 249.600 C 15.326 247.526, 14 245.214, 14 243.671 C 14 241.214, 11.733 238, 10 238 C 9.529 238, 8.412 238.731, 7.519 239.624 C 4.563 242.580, 7.485 250.584, 13.422 255.797 C 16.476 258.479, 22.315 260.989, 25.500 260.989 C 28.685 260.989, 34.524 258.479, 37.578 255.797 C 42.366 251.594, 44.286 247.501, 44.286 241.500 C 44.286 235.905, 42.517 231.740, 38.581 228.062 L 35.972 225.625 38.866 222.562 C 40.458 220.878, 42.328 218.397, 43.023 217.049 C 44.781 213.637, 44.601 205.062, 42.694 201.375 C 40.458 197.052, 34.736 192.298, 30.277 191.060 C 25.498 189.733, 24.376 189.776, 19.637 191.465 M 279.750 191.067 C 277.423 192.440, 277.524 195.675, 279.934 196.965 C 280.998 197.534, 288.003 198, 295.502 198 C 308.019 198, 309.092 198.143, 308.609 199.750 C 307.369 203.872, 294 258.038, 294 258.938 C 294 259.484, 294.982 260.455, 296.183 261.098 C 298.010 262.076, 298.621 261.949, 299.933 260.317 C 300.795 259.245, 305.092 243.876, 309.483 226.165 C 315.686 201.138, 317.222 193.576, 316.375 192.231 C 315.421 190.717, 313.165 190.471, 298.392 190.268 C 288.141 190.127, 280.812 190.441, 279.750 191.067 " stroke="none" fill="black" fill-rule="evenodd"/>
</svg>