<svg xmlns="http://www.w3.org/2000/svg" width="148" height="324" viewBox="0 0 148 324" version="1.1">
	<path d="M 7.627 127.515 C 6.158 128.985, 6 135.425, 6 194 C 6 252.599, 6.157 259.014, 7.629 260.486 C 8.557 261.414, 9.956 261.837, 10.879 261.468 C 11.771 261.112, 14.975 260.460, 18 260.019 C 33.495 257.760, 45.212 251.838, 56.584 240.521 C 69.839 227.328, 76.096 212.250, 76.096 193.500 C 76.096 181.478, 74.421 174.443, 68.850 163.065 C 61.003 147.039, 43.646 132.946, 26.500 128.680 C 15.983 126.063, 9.481 125.661, 7.627 127.515 M 14 193.500 C 14 249.506, 14.103 252.999, 15.750 252.985 C 20.233 252.947, 30.962 249.606, 37.397 246.243 C 56.519 236.251, 69 215.421, 69 193.500 C 69 171.579, 56.519 150.749, 37.397 140.757 C 30.962 137.394, 20.233 134.053, 15.750 134.015 C 14.103 134.001, 14 137.494, 14 193.500 M 115.921 191.322 C 113.953 192.050, 111.382 193.319, 110.208 194.142 C 103.170 199.071, 99.572 211.471, 104.618 213.407 C 107.005 214.323, 108.633 212.516, 109.879 207.567 C 112.655 196.542, 126.469 194.271, 131.506 204.011 C 132.328 205.600, 133 208.206, 133 209.802 C 133 213.774, 129.068 219.286, 125.469 220.360 C 118.858 222.333, 118 222.924, 118 225.500 C 118 228.076, 118.858 228.667, 125.469 230.640 C 129.068 231.714, 133 237.226, 133 241.198 C 133 242.794, 132.328 245.400, 131.506 246.989 C 126.639 256.400, 112.830 254.508, 110.012 244.043 C 108.819 239.615, 106.930 237.706, 104.618 238.593 C 101.661 239.728, 101.605 243.673, 104.463 249.513 C 110.197 261.234, 124.035 264.177, 133.662 255.724 C 138.087 251.838, 140 247.545, 140 241.500 C 140 235.968, 138.144 231.317, 134.651 228.097 L 132.044 225.693 135.466 221.906 C 143.264 213.275, 140.752 198.874, 130.389 192.801 C 126.276 190.391, 120.134 189.763, 115.921 191.322 " stroke="none" fill="black" fill-rule="evenodd"/>
</svg>