<svg xmlns="http://www.w3.org/2000/svg" width="148" height="324" viewBox="0 0 148 324" version="1.1">
	<path d="M 7.571 127.571 C 6.175 128.968, 6 136.372, 6 194 C 6 252.599, 6.157 259.014, 7.629 260.486 C 8.557 261.414, 9.956 261.837, 10.879 261.468 C 11.771 261.112, 14.975 260.460, 18 260.019 C 40.232 256.777, 58.611 243.853, 68.777 224.312 C 74.005 214.263, 76.218 205.100, 76.218 193.500 C 76.218 181.900, 74.005 172.737, 68.777 162.688 C 58.830 143.569, 39.707 129.976, 18.678 127.078 C 8.881 125.728, 9.440 125.703, 7.571 127.571 M 14 193.500 C 14 244.825, 14.199 253, 15.451 253 C 19.737 253, 28.473 250.355, 35.899 246.809 C 51.136 239.533, 63.184 224.558, 67.491 207.540 C 69.423 199.909, 69.423 187.091, 67.491 179.460 C 62.119 158.236, 44.383 140.366, 23.897 135.537 C 20.379 134.708, 16.712 134.023, 15.750 134.015 C 14.103 134.001, 14 137.494, 14 193.500 M 103.222 191.178 C 101.514 192.886, 101.493 227.093, 103.200 228.800 C 103.969 229.569, 107.897 230, 114.135 230 C 125.622 230, 128.320 230.836, 130.996 235.225 C 133.383 239.140, 133.544 243.047, 131.483 247.033 C 129.146 251.553, 124.754 253.254, 113.712 253.917 C 104.410 254.476, 102.080 255.325, 102.015 258.179 C 101.913 262.707, 118.273 263.648, 127.221 259.629 C 136.069 255.655, 140 250.049, 140 241.403 C 140 235.457, 138.068 231.145, 133.676 227.289 C 129.303 223.450, 124.565 222.013, 116.250 222.006 L 110 222 110 210.027 L 110 198.053 124.643 197.777 C 137.314 197.537, 139.433 197.264, 140.387 195.750 C 141.191 194.475, 141.190 193.525, 140.387 192.250 C 139.417 190.711, 137.187 190.467, 121.864 190.228 C 109.160 190.029, 104.113 190.287, 103.222 191.178 " stroke="none" fill="black" fill-rule="evenodd"/>
</svg>