<svg xmlns="http://www.w3.org/2000/svg" width="340" height="324" viewBox="0 0 340 324" version="1.1">
	<path d="M 104.316 62.784 C 102.369 64.022, 86.007 97.855, 86.604 99.410 C 87.269 101.144, 89.524 102.120, 91.295 101.440 C 92.007 101.167, 95.480 95.106, 99.014 87.972 C 102.547 80.837, 105.691 75, 106 75 C 106.309 75, 109.453 80.837, 112.986 87.972 C 116.520 95.106, 119.993 101.167, 120.705 101.440 C 122.487 102.124, 124.732 101.141, 125.407 99.381 C 125.997 97.844, 109.582 64.037, 107.628 62.765 C 106.214 61.845, 105.789 61.847, 104.316 62.784 M 67.045 127.064 C 52.675 129.974, 41.545 141.273, 38.887 155.652 C 38.030 160.292, 38.216 162.894, 40.003 171.241 C 45.819 198.405, 56.767 218.724, 76 238.051 C 85.231 247.328, 103.249 261, 106.243 261 C 106.733 261, 108.792 259.663, 110.817 258.030 C 112.843 256.396, 118.191 252.329, 122.702 248.992 C 146.599 231.311, 164.442 202.464, 170.872 171.112 C 173.981 155.958, 170.751 144.457, 160.901 135.601 C 144.881 121.197, 119.491 124.586, 108.005 142.662 L 105.360 146.824 103.471 143.317 C 97.358 131.965, 80.340 124.371, 67.045 127.064 M 263.571 127.571 C 262.212 128.931, 262 133.242, 262 159.571 L 262 190 231.571 190 C 205.242 190, 200.931 190.212, 199.571 191.571 C 197.598 193.545, 197.598 194.455, 199.571 196.429 C 200.931 197.788, 205.242 198, 231.571 198 L 262 198 262 228.429 C 262 254.758, 262.212 259.069, 263.571 260.429 C 265.457 262.315, 266.219 262.381, 267.800 260.800 C 268.681 259.919, 269 251.425, 269 228.814 L 269 198.028 300.141 197.764 C 328.542 197.523, 331.380 197.346, 332.386 195.750 C 333.191 194.474, 333.191 193.526, 332.386 192.250 C 331.380 190.654, 328.542 190.477, 300.141 190.236 L 269 189.972 269 159.186 C 269 136.575, 268.681 128.081, 267.800 127.200 C 266.219 125.619, 265.457 125.685, 263.571 127.571 M 63.463 135.591 C 50.394 140.232, 43.876 153.512, 46.961 169.217 C 51.658 193.134, 63.691 215.669, 81.011 232.989 C 88.307 240.285, 103.397 252, 105.500 252 C 107.318 252, 122.011 240.811, 128.418 234.549 C 146.017 217.345, 158.511 194.718, 163.495 171.022 C 165.754 160.285, 165.453 156.225, 161.864 149.043 C 158.620 142.551, 153.340 137.780, 146.684 135.326 C 142.110 133.640, 133.095 133.748, 127.795 135.554 C 118.288 138.793, 110 149.539, 110 158.625 C 110 162.910, 108.115 166, 105.500 166 C 103.012 166, 101 162.910, 101 159.088 C 101 154.001, 95.752 143.766, 91.235 140.042 C 84.252 134.286, 72.461 132.396, 63.463 135.591 M 7.571 159.571 C 5.215 161.927, 5.215 210.073, 7.571 212.429 C 8.436 213.293, 9.529 214, 10 214 C 10.471 214, 11.564 213.293, 12.429 212.429 C 14.785 210.073, 14.785 161.927, 12.429 159.571 C 11.564 158.707, 10.471 158, 10 158 C 9.529 158, 8.436 158.707, 7.571 159.571 M 7.571 222.571 C 6.707 223.436, 6 224.529, 6 225 C 6 226.111, 8.889 229, 10 229 C 11.111 229, 14 226.111, 14 225 C 14 223.889, 11.111 221, 10 221 C 9.529 221, 8.436 221.707, 7.571 222.571 " stroke="none" fill="black" fill-rule="evenodd"/>
</svg>