<svg xmlns="http://www.w3.org/2000/svg" width="244" height="324" viewBox="0 0 244 324" version="1.1">
	<path d="M 167.585 127.558 C 164.129 131.014, 167.229 134, 174.274 134 L 179.406 134 175.755 137.750 C 166.403 147.357, 163.689 163.296, 169.329 175.500 C 170.854 178.800, 173.991 183.465, 176.301 185.866 C 180.896 190.645, 190.907 195.998, 195.250 195.999 L 198 196 198 225 L 198 254 183.571 254 C 171.788 254, 168.855 254.288, 167.571 255.571 C 165.595 257.548, 165.598 258.455, 167.585 260.442 C 168.978 261.835, 173.159 261.995, 202.226 261.763 C 232.452 261.523, 235.377 261.350, 236.386 259.750 C 237.190 258.475, 237.191 257.525, 236.387 256.250 C 235.430 254.730, 233.290 254.464, 220.127 254.224 L 204.969 253.948 205.235 225.419 L 205.500 196.890 212.139 194.656 C 219.950 192.028, 226.543 186.952, 230.803 180.289 C 234.879 173.911, 236.358 167.480, 235.788 158.605 C 235.258 150.335, 232.912 144.593, 227.461 138.225 L 223.931 134.102 229.612 133.801 C 235.976 133.464, 238.414 131.466, 236.386 128.250 C 235.377 126.650, 232.452 126.477, 202.226 126.237 C 173.159 126.005, 168.978 126.165, 167.585 127.558 M 191.627 135.468 C 186.247 137.386, 181.039 141.829, 177.500 147.519 C 173.527 153.908, 172.712 165.311, 175.741 172.129 C 180.389 182.589, 188.227 188.058, 199.616 188.789 C 206.399 189.224, 207.556 189.001, 213.397 186.125 C 225.374 180.229, 231.511 166.958, 228.096 154.337 C 224.933 142.647, 213.616 133.959, 201.663 134.044 C 198.273 134.068, 193.757 134.709, 191.627 135.468 M 103.571 159.571 C 102.707 160.436, 102 161.636, 102 162.239 C 102 162.841, 107.941 169.334, 115.202 176.667 L 128.405 190 68.774 190 C 15.897 190, 8.965 190.178, 7.571 191.571 C 5.598 193.545, 5.598 194.455, 7.571 196.429 C 8.965 197.822, 15.897 198, 68.774 198 L 128.405 198 115.202 211.333 C 107.941 218.666, 102 225.159, 102 225.761 C 102 227.202, 104.832 230, 106.290 230 C 107.969 230, 142 195.693, 142 194 C 142 192.307, 107.969 158, 106.290 158 C 105.659 158, 104.436 158.707, 103.571 159.571 " stroke="none" fill="black" fill-rule="evenodd"/>
</svg>