<svg xmlns="http://www.w3.org/2000/svg" width="180" height="324" viewBox="0 0 180 324" version="1.1">
	<path d="M 130.223 159.062 C 120.045 161.068, 109.996 169.411, 105.216 179.825 C 101.512 187.894, 101.512 199.106, 105.216 207.175 C 115.614 229.828, 143.328 235.643, 161.420 218.967 C 181.946 200.047, 172.603 165.823, 145.147 159.360 C 138.857 157.880, 136.464 157.832, 130.223 159.062 M 127.054 167.728 C 121.018 169.859, 113.781 177.260, 111.667 183.463 C 105.215 202.399, 118.016 221, 137.500 221 C 145.295 221, 151.452 218.453, 156.952 212.952 C 164.640 205.265, 167.036 194.330, 163.382 183.608 C 161.237 177.311, 153.689 169.763, 147.392 167.618 C 141.504 165.612, 132.916 165.658, 127.054 167.728 M 7.571 191.571 C 6.707 192.436, 6 193.640, 6 194.249 C 6 194.857, 12.844 202.250, 21.208 210.677 L 36.416 226 21.208 241.323 C 12.844 249.750, 6 257.143, 6 257.751 C 6 259.181, 8.819 262, 10.249 262 C 10.857 262, 18.250 255.156, 26.677 246.792 L 42 231.584 57.323 246.792 C 65.750 255.156, 73.143 262, 73.751 262 C 75.181 262, 78 259.181, 78 257.751 C 78 257.143, 71.156 249.750, 62.792 241.323 L 47.584 226 62.792 210.677 C 71.156 202.250, 78 194.857, 78 194.249 C 78 192.819, 75.181 190, 73.751 190 C 73.143 190, 65.750 196.844, 57.323 205.208 L 42 220.416 26.677 205.208 C 18.250 196.844, 10.857 190, 10.249 190 C 9.640 190, 8.436 190.707, 7.571 191.571 M 103.571 255.571 C 102.707 256.436, 102 257.529, 102 258 C 102 258.471, 102.707 259.564, 103.571 260.429 C 104.936 261.793, 109.463 262, 138 262 C 166.537 262, 171.064 261.793, 172.429 260.429 C 173.293 259.564, 174 258.471, 174 258 C 174 257.529, 173.293 256.436, 172.429 255.571 C 171.064 254.207, 166.537 254, 138 254 C 109.463 254, 104.936 254.207, 103.571 255.571 " stroke="none" fill="black" fill-rule="evenodd"/>
</svg>