<svg xmlns="http://www.w3.org/2000/svg" width="340" height="324" viewBox="0 0 340 324" version="1.1">
	<path d="M 33.384 159.412 C 15.475 163.758, 3.559 181.807, 6.987 199.396 C 9.923 214.467, 20.510 225.032, 35.660 228.013 C 46.748 230.194, 59.444 225.749, 67.399 216.901 C 85.210 197.091, 75.186 165.489, 49.147 159.360 C 42.397 157.772, 40.111 157.779, 33.384 159.412 M 31.054 167.728 C 25.018 169.859, 17.781 177.260, 15.667 183.463 C 11.995 194.241, 14.382 205.477, 21.952 213.048 C 32.402 223.497, 49.888 223.773, 60.280 213.653 C 65.822 208.256, 68.291 202.953, 68.805 195.341 C 69.388 186.717, 67.028 180.189, 61.146 174.150 C 53.627 166.431, 41.848 163.917, 31.054 167.728 M 103.579 191.564 C 101.598 193.545, 101.596 194.454, 103.571 196.429 C 104.844 197.701, 107.697 198, 118.575 198 L 132.006 198 117.020 227.961 C 108.777 244.439, 102.285 258.580, 102.594 259.384 C 103.265 261.133, 105.512 262.125, 107.274 261.448 C 107.975 261.180, 115.056 247.919, 123.010 231.980 C 130.964 216.041, 137.717 203, 138.016 203 C 138.315 203, 145.071 216.093, 153.030 232.095 C 160.988 248.098, 167.842 261.402, 168.259 261.660 C 170.839 263.255, 173.516 259.019, 186.996 232.009 C 194.958 216.054, 201.729 203, 202.043 203 C 202.356 203, 208.955 215.985, 216.707 231.855 C 224.975 248.782, 231.514 260.983, 232.527 261.372 C 234.674 262.196, 237 260.375, 237 257.871 C 237 256.835, 230.480 242.952, 222.511 227.021 L 208.021 198.056 221.653 197.778 C 233.361 197.539, 235.441 197.253, 236.388 195.750 C 237.191 194.475, 237.190 193.525, 236.386 192.250 C 235.356 190.617, 230.934 190.483, 170.220 190.243 C 112.058 190.013, 104.990 190.153, 103.579 191.564 M 290.355 190.986 C 279.790 193.214, 270.114 201.146, 265.329 211.500 C 261.374 220.059, 261.386 230.895, 265.361 239.610 C 268.861 247.285, 275.689 254.075, 283.480 257.629 C 288.315 259.835, 290.902 260.355, 296.980 260.345 C 307.202 260.327, 314.435 257.452, 321.342 250.661 C 336.113 236.136, 336.113 214.864, 321.342 200.339 C 313.368 192.498, 300.953 188.751, 290.355 190.986 M 156.743 223.500 C 163.750 237.525, 169.715 249, 170 249 C 170.285 249, 176.250 237.525, 183.257 223.500 L 195.995 198 170 198 L 144.005 198 156.743 223.500 M 287.627 199.468 C 279.862 202.236, 271.901 211.144, 270.394 218.750 L 269.750 222 297.394 222 L 325.038 222 324.379 219.250 C 322.432 211.130, 317.425 204.868, 309.854 201.085 C 302.871 197.595, 294.574 196.992, 287.627 199.468 M 270.442 232.750 C 270.805 234.262, 272.326 237.509, 273.822 239.965 C 286.216 260.308, 317.395 256.030, 323.976 233.084 L 324.860 230 297.322 230 L 269.783 230 270.442 232.750 M 7.571 255.571 C 6.707 256.436, 6 257.529, 6 258 C 6 258.471, 6.707 259.564, 7.571 260.429 C 8.936 261.793, 13.463 262, 42 262 C 70.537 262, 75.064 261.793, 76.429 260.429 C 77.293 259.564, 78 258.471, 78 258 C 78 257.529, 77.293 256.436, 76.429 255.571 C 75.064 254.207, 70.537 254, 42 254 C 13.463 254, 8.936 254.207, 7.571 255.571 " stroke="none" fill="black" fill-rule="evenodd"/>
</svg>