<svg xmlns="http://www.w3.org/2000/svg" width="468" height="324" viewBox="0 0 468 324" version="1.1">
	<path d="M 193.608 132.122 C 181.806 142.937, 173.219 157.313, 168.894 173.500 C 167.274 179.564, 166.757 184.404, 166.757 193.500 C 166.757 217.690, 175.862 238.351, 193.980 255.274 L 201.181 262 265.974 262 L 330.767 262 338.041 254.525 C 347.256 245.056, 351.251 239.521, 356.105 229.500 C 362.108 217.105, 364.243 207.661, 364.243 193.500 C 364.243 184.404, 363.726 179.564, 362.106 173.500 C 357.819 157.456, 349.480 143.415, 337.608 132.250 L 330.962 126 265.626 126 L 200.289 126 193.608 132.122 M 391.627 127.515 C 390.158 128.985, 390 135.425, 390 194 C 390 252.599, 390.157 259.014, 391.629 260.486 C 392.557 261.414, 393.956 261.837, 394.879 261.468 C 395.771 261.112, 398.975 260.460, 402 260.019 C 418.303 257.642, 428.669 252.400, 440.535 240.535 C 450.384 230.686, 455.197 222.532, 458.560 210 C 460.869 201.395, 460.881 185.682, 458.586 177 C 452.380 153.532, 433.141 134.322, 410.093 128.580 C 399.976 126.060, 393.459 125.684, 391.627 127.515 M 195.107 140.861 C 181.087 155.421, 174.035 173.039, 174.035 193.500 C 174.035 214.314, 181.179 231.858, 195.686 246.665 L 202.871 254 265.500 254 L 328.129 254 335.314 246.665 C 349.821 231.858, 356.965 214.314, 356.965 193.500 C 356.965 173.039, 349.913 155.421, 335.893 140.861 L 329.287 134 265.500 134 L 201.713 134 195.107 140.861 M 398 193.500 C 398 249.506, 398.103 252.999, 399.750 252.985 C 400.712 252.977, 404.379 252.292, 407.897 251.463 C 428.261 246.662, 446.662 228.261, 451.463 207.897 C 453.390 199.718, 453.390 187.282, 451.463 179.103 C 446.650 158.685, 428.315 140.350, 407.897 135.537 C 404.379 134.708, 400.712 134.023, 399.750 134.015 C 398.103 134.001, 398 137.494, 398 193.500 M 264.370 158.765 C 263.414 159.387, 230 225.162, 230 226.423 C 230 226.662, 230.707 227.564, 231.571 228.429 C 232.936 229.793, 237.463 230, 266 230 C 294.537 230, 299.064 229.793, 300.429 228.429 C 301.293 227.564, 302 226.662, 302 226.423 C 302 226.184, 294.521 211.028, 285.380 192.744 C 270.446 162.871, 267.744 158.031, 266 158.031 C 265.725 158.031, 264.991 158.361, 264.370 158.765 M 252.743 196.500 L 240.005 222 266 222 L 291.995 222 279.257 196.500 C 272.250 182.475, 266.285 171, 266 171 C 265.715 171, 259.750 182.475, 252.743 196.500 M 33.244 175.109 C 21.572 177.054, 4.461 188.234, 5.204 193.430 C 5.738 197.166, 9.662 196.567, 14.627 191.990 C 17.111 189.700, 21.699 186.637, 24.822 185.183 C 29.833 182.851, 31.733 182.542, 41 182.552 C 55.478 182.568, 60.825 184.730, 70.520 194.487 C 78.736 202.757, 85.162 206.307, 96.006 208.568 C 110.068 211.500, 125.682 207.364, 136.540 197.831 C 140.501 194.353, 141.161 190.503, 137.970 189.490 C 136.520 189.030, 134.888 189.769, 132.267 192.070 C 130.247 193.844, 125.648 196.691, 122.047 198.397 C 116.011 201.258, 114.676 201.500, 104.948 201.500 C 94.786 201.500, 94.121 201.363, 86.948 197.796 C 82.314 195.492, 78.746 192.948, 77.504 191.064 C 72.864 184.024, 60.066 176.839, 49 175.060 C 41.669 173.882, 40.594 173.885, 33.244 175.109 " stroke="none" fill="black" fill-rule="evenodd"/>
</svg>