<svg xmlns="http://www.w3.org/2000/svg" width="148" height="324" viewBox="0 0 148 324" version="1.1">
	<path d="M 55.571 63.571 C 54.707 64.436, 54 65.317, 54 65.531 C 54 66.993, 71.421 100.653, 72.488 101.252 C 73.225 101.665, 74.440 101.768, 75.188 101.481 C 76.837 100.849, 93 68.755, 93 66.115 C 93 63.770, 90.710 61.790, 88.832 62.511 C 88.050 62.811, 84.520 68.894, 80.986 76.028 C 77.453 83.163, 74.306 89, 73.994 89 C 73.683 89, 70.969 83.984, 67.964 77.854 C 62.437 66.580, 59.559 62, 57.999 62 C 57.528 62, 56.436 62.707, 55.571 63.571 M 64.500 126.944 C 48.438 129.544, 38.175 134.825, 26.498 146.500 C 13.978 159.017, 8.459 170.637, 6.503 188.598 C 5.964 193.549, 6.150 195.007, 7.491 196.348 C 10.992 199.850, 14 196.834, 14 189.823 C 14 176.973, 20.772 162.004, 31.388 151.388 C 42.912 139.864, 56.893 134, 72.845 134 C 83.674 134, 89.916 135.424, 99.820 140.153 C 109.977 145.002, 119.912 154.325, 125.340 164.101 C 129.365 171.350, 133 183.919, 133 190.589 C 133 194.479, 134.839 198, 136.871 198 C 140.488 198, 141.008 188.260, 138.014 176.556 C 135.002 164.779, 129.769 155.793, 120.433 146.367 C 113.680 139.549, 110.828 137.488, 102.933 133.719 C 97.745 131.242, 91.475 128.743, 89 128.165 C 82.400 126.623, 70.232 126.016, 64.500 126.944 " stroke="none" fill="black" fill-rule="evenodd"/>
</svg>