<svg xmlns="http://www.w3.org/2000/svg" width="403" height="324" viewBox="0 0 403 324" version="1.1">
	<path d="M 135.571 95.571 C 134.288 96.855, 134 99.788, 134 111.571 L 134 126 119.200 126 C 109.022 126, 104.025 126.375, 103.200 127.200 C 101.465 128.935, 101.465 259.065, 103.200 260.800 C 104.025 261.625, 109.022 262, 119.200 262 L 134 262 134 276.429 C 134 288.212, 134.288 291.145, 135.571 292.429 C 137.678 294.535, 138.598 294.412, 140.443 291.777 C 141.669 290.027, 142 286.629, 142 275.777 L 142 262 170 262 L 198 262 198 276.965 C 198 291.061, 198.120 291.994, 200.064 293.034 C 204.316 295.310, 205 293.071, 205 276.878 L 205 262 219.750 261.985 C 227.863 261.976, 235.069 261.608, 235.765 261.167 C 236.763 260.533, 237.029 246.410, 237.029 194 C 237.029 141.590, 236.763 127.467, 235.765 126.833 C 235.069 126.392, 227.863 126.024, 219.750 126.015 L 205 126 205 111.122 C 205 94.929, 204.316 92.690, 200.064 94.966 C 198.120 96.006, 198 96.939, 198 111.035 L 198 126 170 126 L 142 126 142 112.223 C 142 101.371, 141.669 97.973, 140.443 96.223 C 138.598 93.588, 137.678 93.465, 135.571 95.571 M 263.200 127.200 C 262.291 128.109, 262 144.348, 262 194.165 C 262 259.585, 262.011 259.935, 264.064 261.034 C 269.071 263.714, 269 264.634, 269 196.878 L 269 134 329.493 134 L 389.985 134 390.243 197.141 C 390.478 254.807, 390.644 260.373, 392.166 261.333 C 393.375 262.096, 394.267 262.023, 395.416 261.070 C 396.832 259.895, 397 252.783, 397 194.078 C 397 144.328, 396.709 128.109, 395.800 127.200 C 394.065 125.465, 264.935 125.465, 263.200 127.200 M 110 194 L 110 254 170 254 L 230 254 230 194 L 230 134 170 134 L 110 134 110 194 M 39.571 159.571 C 38.707 160.436, 38 161.529, 38 162 C 38 163.111, 40.889 166, 42 166 C 43.111 166, 46 163.111, 46 162 C 46 160.889, 43.111 158, 42 158 C 41.529 158, 40.436 158.707, 39.571 159.571 M 7.571 191.571 C 6.707 192.436, 6 193.529, 6 194 C 6 194.471, 6.707 195.564, 7.571 196.429 C 8.936 197.793, 13.463 198, 42 198 C 70.537 198, 75.064 197.793, 76.429 196.429 C 77.293 195.564, 78 194.471, 78 194 C 78 193.529, 77.293 192.436, 76.429 191.571 C 75.064 190.207, 70.537 190, 42 190 C 13.463 190, 8.936 190.207, 7.571 191.571 M 39.571 223.571 C 38.707 224.436, 38 225.529, 38 226 C 38 227.111, 40.889 230, 42 230 C 43.111 230, 46 227.111, 46 226 C 46 224.889, 43.111 222, 42 222 C 41.529 222, 40.436 222.707, 39.571 223.571 " stroke="none" fill="black" fill-rule="evenodd"/>
</svg>