<svg xmlns="http://www.w3.org/2000/svg" width="564" height="324" viewBox="0 0 564 324" version="1.1">
	<path d="M 488.369 62.765 C 487.416 63.384, 422 193.155, 422 194.426 C 422 194.663, 422.707 195.564, 423.571 196.429 C 424.844 197.701, 427.697 198, 438.575 198 L 452.006 198 437.003 227.994 C 428.751 244.490, 422 258.183, 422 258.422 C 422 258.661, 422.707 259.564, 423.571 260.429 C 424.968 261.825, 432.372 262, 490 262 C 547.628 262, 555.032 261.825, 556.429 260.429 C 557.293 259.564, 558 258.661, 558 258.422 C 558 258.183, 551.249 244.490, 542.997 227.994 L 527.994 198 541.425 198 C 552.303 198, 555.156 197.701, 556.429 196.429 C 557.293 195.564, 558 194.663, 558 194.426 C 558 193.155, 492.584 63.384, 491.631 62.765 C 491.009 62.361, 490.275 62.031, 490 62.031 C 489.725 62.031, 488.991 62.361, 488.369 62.765 M 460.747 132.500 L 432.002 190 444.003 190 L 456.004 190 471.736 158.517 C 480.389 141.202, 488.038 126.816, 488.734 126.549 C 489.430 126.281, 490.570 126.281, 491.266 126.549 C 491.962 126.816, 499.611 141.202, 508.264 158.517 L 523.996 190 535.997 190 L 547.998 190 519.253 132.500 C 503.443 100.875, 490.279 75, 490 75 C 489.721 75, 476.557 100.875, 460.747 132.500 M 39.571 127.571 C 38.176 128.966, 38 136.152, 38 191.571 L 38 254 23.571 254 C 11.788 254, 8.855 254.288, 7.571 255.571 C 5.598 257.545, 5.598 258.455, 7.571 260.429 C 8.936 261.793, 13.463 262, 42 262 C 70.537 262, 75.064 261.793, 76.429 260.429 C 77.293 259.564, 78 258.471, 78 258 C 78 257.529, 77.293 256.436, 76.429 255.571 C 75.145 254.288, 72.212 254, 60.429 254 L 46 254 46 191.571 C 46 136.152, 45.824 128.966, 44.429 127.571 C 43.564 126.707, 42.471 126, 42 126 C 41.529 126, 40.436 126.707, 39.571 127.571 M 151.213 143.315 C 141.746 152.838, 134 161.131, 134 161.743 C 134 163.175, 136.813 166, 138.239 166 C 138.841 166, 145.334 160.059, 152.667 152.798 L 166 139.595 166 196.298 L 166 253 163.750 252.985 C 158.823 252.953, 148.332 249.759, 141.603 246.243 C 123.924 237.005, 110.079 215.563, 110.015 197.321 C 110.001 193.426, 108.122 190, 106 190 C 105.529 190, 104.411 190.732, 103.515 191.627 C 100.472 194.671, 103.724 211.409, 109.807 224 C 114.903 234.548, 128.408 248.071, 139 253.232 C 149.524 258.360, 167.337 262.282, 173.823 260.900 C 175.845 260.469, 180.875 259.396, 185 258.516 C 197.504 255.848, 206.171 250.907, 216.535 240.539 C 223.559 233.512, 226.376 229.831, 229.193 224 C 235.276 211.409, 238.528 194.671, 235.485 191.627 C 234.589 190.732, 233.471 190, 233 190 C 230.878 190, 228.999 193.426, 228.985 197.321 C 228.921 215.546, 214.957 237.187, 197.397 246.278 C 190.949 249.615, 180.195 252.948, 175.750 252.985 C 174.104 252.999, 174 249.639, 174 196.298 L 174 139.595 187.333 152.798 C 194.666 160.059, 201.159 166, 201.761 166 C 203.187 166, 206 163.175, 206 161.743 C 206 159.994, 171.761 126, 170 126 C 169.134 126, 160.680 133.792, 151.213 143.315 M 320.500 126.944 C 312.325 128.268, 306.930 129.991, 299 133.814 C 288.442 138.905, 274.925 152.405, 269.780 163 C 262.893 177.182, 262.744 178.323, 262.267 220.597 C 261.879 255.050, 261.996 258.853, 263.490 260.347 C 264.993 261.850, 271.020 262, 330 262 C 387.628 262, 395.032 261.825, 396.429 260.429 C 397.791 259.066, 398 254.649, 398 227.239 C 398 208.625, 397.548 193.128, 396.902 189.560 C 392.767 166.735, 389.124 159.032, 376.539 146.498 C 366.713 136.712, 358.022 131.540, 346.500 128.622 C 338.819 126.677, 326.903 125.908, 320.500 126.944 M 314.645 135.584 C 294.562 140.445, 276.305 158.877, 271.537 179.103 C 270.349 184.144, 270.026 192.762, 270.015 219.750 L 270 254 330.114 254 L 390.228 254 389.702 219.750 C 389.382 198.896, 388.716 183.544, 387.999 180.500 C 385.613 170.363, 379.215 159.005, 371.605 151.395 C 363.796 143.586, 352.175 137.142, 342.201 135.090 C 335.038 133.617, 321.791 133.854, 314.645 135.584 M 460.747 196.500 L 432.002 254 490 254 L 547.998 254 519.253 196.500 C 503.443 164.875, 490.279 139, 490 139 C 489.721 139, 476.557 164.875, 460.747 196.500 " stroke="none" fill="black" fill-rule="evenodd"/>
</svg>