<svg xmlns="http://www.w3.org/2000/svg" width="308" height="324" viewBox="0 0 308 324" version="1.1">
	<path d="M 71.550 62.918 C 67.869 68.875, 54.190 98.331, 54.604 99.410 C 55.450 101.615, 58.110 102.210, 59.895 100.594 C 60.778 99.795, 64.185 93.709, 67.467 87.070 C 70.748 80.432, 73.687 75, 73.997 75 C 74.308 75, 77.453 80.837, 80.986 87.972 C 84.520 95.106, 88.050 101.189, 88.832 101.489 C 90.716 102.212, 93 100.227, 93 97.866 C 93 95.626, 77.264 63.831, 75.628 62.765 C 74.071 61.751, 72.229 61.820, 71.550 62.918 M 35.045 127.064 C 24.674 129.164, 14.828 136.537, 10.151 145.705 C 7.578 150.747, 5.616 161.395, 6.828 163.738 C 7.329 164.707, 8.527 169.100, 9.490 173.500 C 13.122 190.101, 19.200 204.421, 28.736 218.844 C 42.121 239.090, 73.693 265.161, 77.454 259.074 C 77.769 258.565, 81.706 255.570, 86.203 252.418 C 96.512 245.195, 107.905 233.942, 115.936 223.052 C 130.445 203.377, 142.081 170.827, 139.802 156.293 C 138.613 148.709, 134.671 141.346, 128.828 135.799 C 113.374 121.125, 87.558 124.480, 76.005 142.662 L 73.360 146.824 71.471 143.317 C 65.358 131.965, 48.340 124.371, 35.045 127.064 M 31.054 135.728 C 24.787 137.940, 17.726 145.297, 15.534 151.899 C 13.881 156.875, 13.875 157.704, 15.430 166.205 C 18.772 184.475, 25.252 200.548, 35.502 216 C 41.742 225.407, 57.252 241.032, 66.665 247.394 L 73.830 252.237 81.502 246.934 C 96.559 236.525, 111.143 219.907, 119.764 203.337 C 127.733 188.019, 133.910 165.555, 132.584 156.712 C 131.161 147.222, 123.232 138.158, 113.609 135.020 C 107.591 133.058, 97.093 134.170, 91.680 137.342 C 83.949 141.872, 78.067 150.781, 78.022 158.027 C 77.998 161.891, 75.675 166, 73.515 166 C 71.013 166, 69 162.918, 69 159.088 C 69 153.811, 63.742 143.755, 59.031 140.024 C 51.523 134.078, 40.514 132.388, 31.054 135.728 M 167.750 191.080 C 165.422 192.436, 165.524 195.675, 167.934 196.965 C 169.209 197.647, 191.550 198, 233.500 198 C 275.450 198, 297.791 197.647, 299.066 196.965 C 300.130 196.395, 301 195.061, 301 194 C 301 192.939, 300.130 191.605, 299.066 191.035 C 296.420 189.619, 170.184 189.662, 167.750 191.080 " stroke="none" fill="black" fill-rule="evenodd"/>
</svg>