<svg xmlns="http://www.w3.org/2000/svg" width="403" height="324" viewBox="0 0 403 324" version="1.1">
	<path d="M 7.571 127.571 C 6.707 128.436, 6 129.529, 6 130 C 6 130.471, 6.707 131.564, 7.571 132.429 C 8.966 133.824, 16.152 134, 71.571 134 L 134 134 134 194 L 134 254 71.571 254 C 16.152 254, 8.966 254.176, 7.571 255.571 C 5.598 257.545, 5.598 258.455, 7.571 260.429 C 8.968 261.825, 16.343 261.998, 73.821 261.985 C 109.395 261.976, 139.076 261.604, 139.779 261.158 C 141.659 259.965, 141.659 128.035, 139.779 126.842 C 139.076 126.396, 109.395 126.024, 73.821 126.015 C 16.343 126.002, 8.968 126.175, 7.571 127.571 M 194.920 126.982 C 180.998 129.425, 168.482 142.592, 166.519 156.859 C 165.747 162.472, 168.748 178.377, 172.628 189.234 C 181.917 215.229, 200.779 239.380, 223.816 254.775 C 228.939 258.199, 233.513 261, 233.981 261 C 234.448 261, 235.881 260.096, 237.165 258.992 C 238.449 257.887, 243.140 254.345, 247.589 251.120 C 271.474 233.806, 289.219 207.727, 297.001 178.500 C 300.313 166.059, 300.662 156.699, 298.069 149.847 C 295.246 142.389, 290.244 135.994, 284.316 132.261 C 277.493 127.965, 272.572 126.606, 264.190 126.701 C 258.141 126.770, 255.795 127.319, 250.585 129.883 C 244.825 132.719, 237.326 139.383, 234.125 144.511 C 233.323 145.796, 232.706 146.081, 232.380 145.315 C 230.913 141.863, 225.570 135.800, 221.568 133.047 C 213.633 127.587, 203.984 125.391, 194.920 126.982 M 343.239 143.260 C 333.758 152.754, 326 161.288, 326 162.225 C 326 163.163, 326.959 164.443, 328.131 165.070 C 330.073 166.110, 331.495 164.981, 344.131 152.369 L 358 138.527 358 199.228 C 358 259.533, 358.013 259.937, 360.064 261.034 C 365.059 263.708, 365 264.453, 365 199.174 L 365 138.592 378.913 152.378 C 391.463 164.813, 393.030 166.054, 394.913 165.047 C 396.061 164.432, 397 163.153, 397 162.204 C 397 160.410, 363.239 126, 361.479 126 C 360.929 126, 352.721 133.767, 343.239 143.260 M 191.627 135.468 C 186.258 137.382, 181.040 141.826, 177.525 147.478 C 173.237 154.373, 172.931 162.519, 176.445 176.166 C 182.102 198.133, 192.933 217.088, 208.936 233.026 C 214.196 238.265, 221.753 244.750, 225.728 247.437 L 232.956 252.323 240.116 247.561 C 261.587 233.284, 279.813 208.751, 287.852 183.303 C 293.615 165.062, 293.999 156.700, 289.477 147.955 C 285.226 139.734, 275.167 134.013, 265 134.032 C 250.574 134.059, 239.738 143.976, 237.481 159.218 C 236.632 164.952, 234.900 166.731, 231.620 165.236 C 229.729 164.375, 229.194 163.165, 228.735 158.717 C 226.905 140.995, 208.490 129.457, 191.627 135.468 " stroke="none" fill="black" fill-rule="evenodd"/>
</svg>