<svg xmlns="http://www.w3.org/2000/svg" width="436" height="324" viewBox="0 0 436 324" version="1.1">
	<path d="M 391.750 127.080 C 390.113 128.034, 390 132.152, 390 191.050 L 390 254 375.934 254 C 361.308 254, 358 254.738, 358 258 C 358 261.750, 360.791 262.037, 394.601 261.764 C 424.469 261.523, 427.378 261.349, 428.386 259.750 C 429.190 258.475, 429.191 257.525, 428.387 256.250 C 427.430 254.730, 425.291 254.464, 412.142 254.224 L 397 253.948 397 191.174 C 397 123.280, 397.058 123.988, 391.750 127.080 M 167.571 159.571 C 166.207 160.936, 166 165.463, 166 194 C 166 222.537, 166.207 227.064, 167.571 228.429 C 169.545 230.402, 170.455 230.402, 172.429 228.429 C 173.793 227.064, 174 222.537, 174 194 C 174 165.463, 173.793 160.936, 172.429 159.571 C 171.564 158.707, 170.471 158, 170 158 C 169.529 158, 168.436 158.707, 167.571 159.571 M 231.571 159.571 C 230.207 160.936, 230 165.463, 230 194 C 230 222.537, 230.207 227.064, 231.571 228.429 C 233.678 230.535, 234.598 230.412, 236.443 227.777 C 237.772 225.880, 238 220.941, 238 194 C 238 167.059, 237.772 162.120, 236.443 160.223 C 234.598 157.588, 233.678 157.465, 231.571 159.571 M 263.585 159.558 C 262.713 160.430, 262 161.529, 262 162 C 262 162.471, 262.713 163.570, 263.585 164.442 C 264.978 165.835, 269.159 165.995, 298.226 165.763 C 328.452 165.523, 331.377 165.350, 332.386 163.750 C 333.191 162.474, 333.191 161.526, 332.386 160.250 C 331.377 158.650, 328.452 158.477, 298.226 158.237 C 269.159 158.005, 264.978 158.165, 263.585 159.558 M 7.571 191.571 C 6.707 192.436, 6 193.529, 6 194 C 6 194.471, 6.707 195.564, 7.571 196.429 C 8.844 197.701, 11.697 198, 22.575 198 L 36.006 198 21.020 227.961 C 12.777 244.439, 6.285 258.580, 6.594 259.384 C 7.265 261.133, 9.512 262.125, 11.274 261.448 C 11.975 261.180, 19.056 247.919, 27.010 231.980 C 34.964 216.041, 41.717 203, 42.016 203 C 42.315 203, 49.042 216.034, 56.965 231.964 C 64.888 247.894, 71.962 261.155, 72.685 261.433 C 73.408 261.710, 74.573 261.717, 75.274 261.448 C 75.975 261.180, 83.056 247.919, 91.010 231.980 C 98.964 216.041, 105.710 203, 106 203 C 106.290 203, 113.036 216.041, 120.990 231.980 C 128.944 247.919, 136.025 261.180, 136.726 261.448 C 138.488 262.125, 140.735 261.133, 141.406 259.384 C 141.715 258.580, 135.223 244.439, 126.980 227.961 L 111.994 198 125.425 198 C 136.303 198, 139.156 197.701, 140.429 196.429 C 141.293 195.564, 142 194.471, 142 194 C 142 193.529, 141.293 192.436, 140.429 191.571 C 139.032 190.175, 131.628 190, 74 190 C 16.372 190, 8.968 190.175, 7.571 191.571 M 60.743 223.500 C 67.750 237.525, 73.715 249, 74 249 C 74.285 249, 80.250 237.525, 87.257 223.500 L 99.995 198 74 198 L 48.005 198 60.743 223.500 M 263.585 223.558 C 262.713 224.430, 262 225.529, 262 226 C 262 226.471, 262.713 227.570, 263.585 228.442 C 264.978 229.835, 269.159 229.995, 298.226 229.763 C 328.452 229.523, 331.377 229.350, 332.386 227.750 C 333.191 226.474, 333.191 225.526, 332.386 224.250 C 331.377 222.650, 328.452 222.477, 298.226 222.237 C 269.159 222.005, 264.978 222.165, 263.585 223.558 " stroke="none" fill="black" fill-rule="evenodd"/>
</svg>