<svg xmlns="http://www.w3.org/2000/svg" width="84" height="324" viewBox="0 0 84 324" version="1.1">
	<path d="M 23.571 63.571 C 22.707 64.436, 22 65.332, 22 65.564 C 22 67.123, 39.710 101.058, 40.727 101.449 C 41.427 101.717, 42.573 101.717, 43.273 101.449 C 45.129 100.736, 62.063 66.328, 61.403 64.609 C 60.732 62.858, 58.483 61.877, 56.705 62.560 C 55.993 62.833, 52.520 68.894, 48.986 76.028 C 45.453 83.163, 42.308 89, 41.997 89 C 41.687 89, 38.748 83.534, 35.467 76.853 C 27.925 61.499, 26.847 60.296, 23.571 63.571 M 7.571 127.571 C 6.707 128.436, 6 129.640, 6 130.249 C 6 130.857, 12.844 138.250, 21.208 146.677 L 36.416 162 21.208 177.323 C 12.844 185.750, 6 193.143, 6 193.751 C 6 194.360, 6.707 195.564, 7.571 196.429 C 8.936 197.793, 13.463 198, 42 198 C 70.537 198, 75.064 197.793, 76.429 196.429 C 77.293 195.564, 78 194.360, 78 193.751 C 78 193.143, 71.156 185.750, 62.792 177.323 L 47.584 162 62.792 146.677 C 71.156 138.250, 78 130.857, 78 130.249 C 78 128.819, 75.181 126, 73.751 126 C 73.143 126, 65.750 132.844, 57.323 141.208 L 42 156.416 26.677 141.208 C 18.250 132.844, 10.857 126, 10.249 126 C 9.640 126, 8.436 126.707, 7.571 127.571 M 30.500 179 L 19.534 190 42 190 L 64.466 190 53.500 179 C 47.469 172.950, 42.294 168, 42 168 C 41.706 168, 36.531 172.950, 30.500 179 " stroke="none" fill="black" fill-rule="evenodd"/>
</svg>