<svg xmlns="http://www.w3.org/2000/svg" width="244" height="324" viewBox="0 0 244 324" version="1.1">
	<path d="M 71.482 127.661 C 67.932 131.211, 72.554 145.307, 79.872 153.245 C 87.796 161.842, 100.649 166.297, 111.135 164.082 C 123.041 161.567, 132.081 154.661, 137.137 144.217 C 140.852 136.544, 140.743 126, 136.949 126 C 135.079 126, 133 129.376, 133 132.412 C 133 137.216, 127.521 147.420, 123.031 150.976 C 112.620 159.221, 97.192 158.992, 87.205 150.443 C 82.348 146.286, 78 137.988, 78 132.875 C 78 129.413, 76.014 126, 74 126 C 73.529 126, 72.395 126.747, 71.482 127.661 M 167.585 127.558 C 165.598 129.545, 165.595 130.452, 167.571 132.429 C 168.855 133.712, 171.788 134, 183.571 134 L 198 134 198 194 L 198 254 183.571 254 C 171.788 254, 168.855 254.288, 167.571 255.571 C 165.595 257.548, 165.598 258.455, 167.585 260.442 C 168.978 261.835, 173.159 261.995, 202.226 261.763 C 232.452 261.523, 235.377 261.350, 236.386 259.750 C 237.190 258.475, 237.191 257.525, 236.387 256.250 C 235.430 254.730, 233.291 254.464, 220.142 254.224 L 205 253.948 205 194 L 205 134.052 220.142 133.776 C 233.291 133.536, 235.430 133.270, 236.387 131.750 C 237.191 130.475, 237.190 129.525, 236.386 128.250 C 235.377 126.650, 232.452 126.477, 202.226 126.237 C 173.159 126.005, 168.978 126.165, 167.585 127.558 M 7.579 191.564 C 5.598 193.545, 5.596 194.454, 7.571 196.429 C 8.844 197.701, 11.697 198, 22.575 198 L 36.006 198 21.020 227.961 C 12.777 244.439, 6.285 258.580, 6.594 259.384 C 7.265 261.133, 9.512 262.125, 11.274 261.448 C 11.975 261.180, 19.056 247.919, 27.010 231.980 C 34.964 216.041, 41.717 203, 42.016 203 C 42.315 203, 49.042 216.034, 56.965 231.964 C 64.888 247.894, 71.962 261.155, 72.685 261.433 C 73.408 261.710, 74.573 261.717, 75.274 261.448 C 75.975 261.180, 83.056 247.919, 91.010 231.980 C 98.964 216.041, 105.710 203, 106 203 C 106.290 203, 113.036 216.041, 120.990 231.980 C 128.944 247.919, 136.083 261.201, 136.853 261.497 C 138.718 262.213, 141 260.217, 141 257.871 C 141 256.835, 134.480 242.952, 126.511 227.021 L 112.021 198.056 125.653 197.778 C 137.361 197.539, 139.441 197.253, 140.388 195.750 C 141.191 194.475, 141.190 193.525, 140.386 192.250 C 139.356 190.617, 134.934 190.483, 74.220 190.243 C 16.058 190.013, 8.990 190.153, 7.579 191.564 M 60.743 223.500 C 67.750 237.525, 73.715 249, 74 249 C 74.285 249, 80.250 237.525, 87.257 223.500 L 99.995 198 74 198 L 48.005 198 60.743 223.500 " stroke="none" fill="black" fill-rule="evenodd"/>
</svg>