<svg xmlns="http://www.w3.org/2000/svg" width="308" height="324" viewBox="0 0 308 324" version="1.1">
	<path d="M 33.384 127.357 C 19.974 130.754, 10.013 141.164, 7.123 154.799 C 5.447 162.706, 5.639 225.832, 7.360 233.147 C 13.465 259.084, 44.606 269.302, 64.413 251.868 C 70.378 246.617, 73.376 241.369, 75.976 231.622 C 77.946 224.239, 78.056 221.753, 77.711 192.122 C 77.323 158.758, 76.818 154.271, 72.438 145.297 C 65.839 131.776, 48.102 123.628, 33.384 127.357 M 103.200 127.200 C 101.465 128.935, 101.465 259.065, 103.200 260.800 C 104.935 262.535, 234.065 262.535, 235.800 260.800 C 236.681 259.919, 237 251.422, 237 228.800 L 237 198 262.736 198 L 288.472 198 275.236 211.263 C 267.956 218.558, 262 225.292, 262 226.228 C 262 227.164, 262.960 228.443, 264.133 229.071 C 266.084 230.115, 267.752 228.729, 283.633 212.867 C 293.185 203.327, 301 194.837, 301 194 C 301 193.163, 293.185 184.673, 283.633 175.133 C 267.752 159.271, 266.084 157.885, 264.133 158.929 C 262.960 159.557, 262 160.836, 262 161.772 C 262 162.708, 267.956 169.442, 275.236 176.737 L 288.472 190 262.736 190 L 237 190 237 159.200 C 237 136.578, 236.681 128.081, 235.800 127.200 C 234.065 125.465, 104.935 125.465, 103.200 127.200 M 31.054 135.728 C 25.018 137.859, 17.781 145.260, 15.667 151.463 C 9.189 170.476, 21.963 189, 41.552 189 C 56.843 189, 69 176.819, 69 161.500 C 69 150.038, 61.486 139.200, 50.965 135.488 C 45.610 133.598, 36.784 133.705, 31.054 135.728 M 109 148 C 109 155.700, 109.161 162, 109.358 162 C 109.556 162, 111.321 159.584, 113.282 156.631 C 117.672 150.018, 125.782 141.932, 132.185 137.783 C 134.833 136.067, 137 134.514, 137 134.332 C 137 134.149, 130.700 134, 123 134 L 109 134 109 148 M 154.072 135.591 C 143.659 138.390, 135.974 142.983, 127.489 151.479 C 115.024 163.958, 110 176.031, 110 193.500 C 110 210.969, 115.024 223.042, 127.489 235.521 C 139.641 247.688, 152.312 253, 169.184 253 C 196.557 253, 219.582 235.308, 227.098 208.500 C 228.902 202.067, 228.906 184.955, 227.105 178.500 C 221.262 157.551, 204.234 140.747, 183.540 135.509 C 176.088 133.622, 161.240 133.664, 154.072 135.591 M 206.728 137.977 C 213.926 142.784, 220.580 149.736, 225.981 158.092 L 230 164.310 230 149.155 L 230 134 215.386 134 L 200.772 134 206.728 137.977 M 162.355 158.992 C 140.871 163.489, 128.274 187.905, 137.329 207.500 C 149.748 234.376, 186.198 235.744, 199.999 209.851 C 202.727 204.732, 203.438 202.140, 203.788 196.025 C 204.302 187.073, 203.181 182.377, 198.778 175.035 C 191.625 163.108, 175.862 156.165, 162.355 158.992 M 159.885 167.380 C 148.798 171.342, 141.750 181.493, 141.750 193.500 C 141.750 208.676, 152.250 219.803, 167.494 220.781 C 173.739 221.182, 175.551 220.895, 180.205 218.764 C 201.623 208.958, 202.716 179.988, 182.073 169.250 C 176.947 166.583, 174.719 166.008, 169.663 166.044 C 166.273 166.068, 161.873 166.669, 159.885 167.380 M 66.500 186.010 C 62.241 190.508, 56.461 193.667, 48.975 195.587 C 38.214 198.348, 26.772 195.306, 17.955 187.340 L 14 183.767 14 207.205 C 14 234.744, 14.626 237.721, 21.952 245.048 C 27.273 250.368, 33.759 253, 41.552 253 C 52.705 253, 61.082 247.642, 66.208 237.230 L 69.485 230.573 69.841 209.536 C 70.038 197.966, 70.041 187.227, 69.849 185.671 L 69.500 182.842 66.500 186.010 M 167.750 191.080 C 165.372 192.465, 165.542 195.685, 168.064 197.034 C 171.753 199.008, 174.819 194.219, 171.800 191.200 C 170.367 189.767, 170.022 189.757, 167.750 191.080 M 225 230.165 C 219.851 238.229, 211.167 246.716, 203.658 251.023 L 198.500 253.981 214.250 253.991 L 230 254 230 238.500 C 230 229.975, 229.887 223.026, 229.750 223.059 C 229.613 223.091, 227.475 226.289, 225 230.165 M 109 239.500 L 109 254 124.242 254 L 139.483 254 133.428 250.043 C 126.010 245.197, 117.897 237.249, 113.223 230.250 C 111.295 227.363, 109.556 225, 109.358 225 C 109.161 225, 109 231.525, 109 239.500 " stroke="none" fill="black" fill-rule="evenodd"/>
</svg>