<svg xmlns="http://www.w3.org/2000/svg" width="420" height="324" viewBox="0 0 420 324" version="1.1">
	<path d="M 391.282 111.282 C 381.777 120.787, 374 129.210, 374 130 C 374 131.693, 408.031 166, 409.710 166 C 411.173 166, 414 163.200, 414 161.751 C 414 161.143, 407.156 153.750, 398.792 145.323 L 383.584 130 398.792 114.677 C 407.156 106.250, 414 98.857, 414 98.249 C 414 96.800, 411.173 94, 409.710 94 C 409.079 94, 400.787 101.777, 391.282 111.282 M 39.627 127.515 C 37.597 129.546, 37.587 130.444, 39.571 132.429 C 40.538 133.395, 42.888 134, 45.677 134 C 68.759 134, 93.776 154.978, 99.463 179.103 C 102.619 192.492, 102.467 193.054, 87.759 222.495 C 80.476 237.073, 74.282 249, 73.995 249 C 73.708 249, 66.964 235.959, 59.010 220.020 C 51.056 204.081, 43.975 190.820, 43.274 190.552 C 42.573 190.283, 41.431 190.281, 40.735 190.548 C 38.875 191.262, 5.939 257.677, 6.596 259.389 C 7.265 261.134, 9.514 262.124, 11.274 261.448 C 11.975 261.180, 19.056 247.919, 27.010 231.980 C 34.964 216.041, 41.710 203, 42 203 C 42.290 203, 49.036 216.041, 56.990 231.980 C 64.944 247.919, 72.025 261.180, 72.726 261.448 C 73.427 261.717, 74.573 261.717, 75.274 261.448 C 75.975 261.180, 83.056 247.919, 91.010 231.980 C 98.964 216.041, 105.710 203, 106 203 C 106.290 203, 113.036 216.041, 120.990 231.980 C 128.944 247.919, 136.025 261.180, 136.726 261.448 C 137.427 261.717, 138.573 261.717, 139.274 261.448 C 139.975 261.180, 147.056 247.919, 155.010 231.980 C 162.964 216.041, 169.710 203, 170 203 C 170.290 203, 177.036 216.041, 184.990 231.980 C 192.944 247.919, 200.025 261.180, 200.726 261.448 C 202.486 262.124, 204.735 261.134, 205.404 259.389 C 206.061 257.677, 173.125 191.262, 171.265 190.548 C 170.569 190.281, 169.427 190.283, 168.726 190.552 C 168.025 190.820, 160.944 204.081, 152.990 220.020 C 145.036 235.959, 138.293 249, 138.005 249 C 137.718 249, 131.299 236.623, 123.742 221.495 C 108.659 191.306, 108.660 191.310, 111.537 179.103 C 117.323 154.559, 142.127 134.091, 166.179 134.015 C 169.082 134.006, 171.453 133.404, 172.429 132.429 C 174.418 130.439, 174.404 129.547, 172.348 127.491 C 170.458 125.601, 163.095 126.031, 152.500 128.650 C 133.555 133.333, 114.966 149.455, 107.581 167.606 L 105.350 173.090 103.952 168.856 C 102.006 162.959, 95.768 153.491, 89.656 147.159 C 77.974 135.056, 64.532 128.576, 46.877 126.537 C 42.402 126.020, 40.923 126.220, 39.627 127.515 M 313.288 173.222 L 266.028 220.444 250.691 205.222 C 242.256 196.850, 234.857 190, 234.249 190 C 232.819 190, 230 192.819, 230 194.249 C 230 194.857, 236.844 202.250, 245.208 210.677 L 260.416 226 245.208 241.323 C 236.844 249.750, 230 257.143, 230 257.751 C 230 259.181, 232.819 262, 234.249 262 C 234.857 262, 242.250 255.156, 250.677 246.792 L 266 231.584 281.323 246.792 C 289.750 255.156, 297.143 262, 297.751 262 C 299.181 262, 302 259.181, 302 257.751 C 302 257.143, 295.150 249.744, 286.778 241.309 L 271.556 225.972 318.778 178.712 C 344.750 152.718, 366 130.932, 366 130.297 C 366 128.805, 363.195 126, 361.703 126 C 361.068 126, 339.282 147.250, 313.288 173.222 " stroke="none" fill="black" fill-rule="evenodd"/>
</svg>