<svg xmlns="http://www.w3.org/2000/svg" width="403" height="324" viewBox="0 0 403 324" version="1.1">
	<path d="M 7.579 191.564 C 5.598 193.545, 5.596 194.454, 7.571 196.429 C 8.844 197.701, 11.697 198, 22.575 198 L 36.006 198 21.020 227.961 C 12.777 244.439, 6.285 258.580, 6.594 259.384 C 7.265 261.133, 9.512 262.125, 11.274 261.448 C 11.975 261.180, 19.056 247.919, 27.010 231.980 C 34.964 216.041, 41.717 203, 42.016 203 C 42.315 203, 49.042 216.034, 56.965 231.964 C 64.888 247.894, 71.962 261.155, 72.685 261.433 C 73.408 261.710, 74.573 261.717, 75.274 261.448 C 75.975 261.180, 83.056 247.919, 91.010 231.980 C 98.964 216.041, 105.736 203, 106.058 203 C 106.380 203, 112.891 215.859, 120.528 231.575 C 128.363 247.701, 135.222 260.583, 136.270 261.145 C 138.536 262.357, 141 260.652, 141 257.871 C 141 256.835, 134.480 242.952, 126.511 227.021 L 112.021 198.056 125.653 197.778 C 137.361 197.539, 139.441 197.253, 140.388 195.750 C 141.191 194.475, 141.190 193.525, 140.386 192.250 C 139.356 190.617, 134.934 190.483, 74.220 190.243 C 16.058 190.013, 8.990 190.153, 7.579 191.564 M 167.200 191.200 C 166.540 191.860, 166 192.988, 166 193.706 C 166 195.501, 198.667 260.676, 199.970 261.482 C 202.864 263.270, 205.167 259.696, 219.125 231.762 L 233.744 202.502 248.396 231.792 C 256.454 247.901, 263.717 261.338, 264.536 261.652 C 265.355 261.967, 266.732 261.638, 267.595 260.921 C 269.281 259.522, 301 195.599, 301 193.599 C 301 190.065, 299.783 190, 233.500 190 C 184.200 190, 168.109 190.291, 167.200 191.200 M 327.750 191.073 C 325.423 192.438, 325.524 195.675, 327.934 196.965 C 329.005 197.538, 336.151 198, 343.934 198 L 358 198 358 226 L 358 254 343.934 254 C 329.308 254, 326 254.738, 326 258 C 326 261.750, 328.791 262.037, 362.601 261.764 C 392.469 261.523, 395.378 261.349, 396.386 259.750 C 397.190 258.475, 397.191 257.525, 396.387 256.250 C 395.430 254.730, 393.291 254.464, 380.142 254.224 L 365 253.948 365 226 L 365 198.052 380.142 197.776 C 393.291 197.536, 395.430 197.270, 396.387 195.750 C 397.191 194.475, 397.190 193.525, 396.386 192.250 C 395.377 190.649, 392.483 190.481, 362.391 190.273 C 341.280 190.127, 328.873 190.414, 327.750 191.073 M 60.743 223.500 C 67.750 237.525, 73.715 249, 74 249 C 74.285 249, 80.250 237.525, 87.257 223.500 L 99.995 198 74 198 L 48.005 198 60.743 223.500 M 188.608 223.250 C 195.546 237.137, 201.371 248.661, 201.553 248.859 C 201.878 249.211, 227 199.502, 227 198.508 C 227 198.228, 215.523 198, 201.496 198 L 175.992 198 188.608 223.250 M 252.608 223.250 C 259.546 237.137, 265.371 248.661, 265.553 248.859 C 265.878 249.211, 291 199.502, 291 198.508 C 291 198.228, 279.523 198, 265.496 198 L 239.992 198 252.608 223.250 " stroke="none" fill="black" fill-rule="evenodd"/>
</svg>