<svg xmlns="http://www.w3.org/2000/svg" width="292" height="324" viewBox="0 0 292 324" version="1.1">
	<path d="M 71.550 62.918 C 67.869 68.875, 54.190 98.331, 54.604 99.410 C 55.269 101.144, 57.524 102.120, 59.295 101.440 C 60.007 101.167, 63.480 95.106, 67.014 87.972 C 70.547 80.837, 73.691 75, 74 75 C 74.309 75, 77.453 80.837, 80.986 87.972 C 84.520 95.106, 87.993 101.167, 88.705 101.440 C 90.487 102.124, 92.732 101.141, 93.407 99.381 C 93.997 97.844, 77.582 64.037, 75.628 62.765 C 74.071 61.751, 72.229 61.820, 71.550 62.918 M 120.530 142 L 104.424 158 72.412 158 C 48.847 158, 40.083 158.317, 39.200 159.200 C 38.317 160.083, 38 168.847, 38 192.412 L 38 224.424 22 240.530 C 13.200 249.389, 6 257.137, 6 257.747 C 6 259.182, 8.818 262, 10.253 262 C 10.863 262, 18.611 254.800, 27.470 246 L 43.576 230 75.217 230 C 102.647 230, 107.066 229.791, 108.429 228.429 C 109.791 227.066, 110 222.647, 110 195.217 L 110 163.576 126 147.470 C 134.800 138.611, 142 130.863, 142 130.253 C 142 129.642, 141.293 128.436, 140.429 127.571 C 139.564 126.707, 138.358 126, 137.747 126 C 137.137 126, 129.389 133.200, 120.530 142 M 215.750 127.080 C 214.111 128.035, 214 132.289, 214 193.927 C 214 248.419, 214.236 259.951, 215.369 260.891 C 216.345 261.701, 226.290 261.952, 250.010 261.764 C 280.441 261.523, 283.377 261.351, 284.386 259.750 C 285.191 258.474, 285.191 257.526, 284.386 256.250 C 283.381 254.655, 280.566 254.477, 252.641 254.236 L 222 253.971 222 192.208 C 222 137.926, 221.811 130.176, 220.443 128.223 C 218.702 125.736, 218.248 125.625, 215.750 127.080 M 167.571 159.571 C 166.707 160.436, 166 161.640, 166 162.249 C 166 162.857, 172.844 170.250, 181.208 178.677 L 196.416 194 181.208 209.323 C 172.844 217.750, 166 225.143, 166 225.751 C 166 227.200, 168.827 230, 170.290 230 C 171.969 230, 206 195.693, 206 194 C 206 192.307, 171.969 158, 170.290 158 C 169.659 158, 168.436 158.707, 167.571 159.571 M 46 191.242 L 46 216.485 71 191.500 C 84.750 177.758, 96 166.399, 96 166.258 C 96 166.116, 84.750 166, 71 166 L 46 166 46 191.242 M 76.500 197 L 51.515 222 76.758 222 L 102 222 102 197 C 102 183.250, 101.884 172, 101.742 172 C 101.601 172, 90.242 183.250, 76.500 197 " stroke="none" fill="black" fill-rule="evenodd"/>
</svg>