<svg xmlns="http://www.w3.org/2000/svg" width="84" height="324" viewBox="0 0 84 324" version="1.1">
	<path d="M 23.571 63.571 C 22.707 64.436, 22 65.332, 22 65.564 C 22 67.123, 39.710 101.058, 40.727 101.449 C 41.427 101.717, 42.573 101.717, 43.273 101.449 C 45.129 100.736, 62.063 66.328, 61.403 64.609 C 60.732 62.858, 58.483 61.877, 56.705 62.560 C 55.993 62.833, 52.520 68.894, 48.986 76.028 C 45.453 83.163, 42.308 89, 41.997 89 C 41.687 89, 38.748 83.534, 35.467 76.853 C 27.925 61.499, 26.847 60.296, 23.571 63.571 M 7.571 191.571 C 6.707 192.436, 6 193.640, 6 194.249 C 6 194.857, 12.844 202.250, 21.208 210.677 L 36.416 226 21.208 241.323 C 12.844 249.750, 6 257.143, 6 257.751 C 6 259.181, 8.819 262, 10.249 262 C 10.857 262, 18.250 255.156, 26.677 246.792 L 42 231.584 57.323 246.792 C 65.750 255.156, 73.143 262, 73.751 262 C 75.181 262, 78 259.181, 78 257.751 C 78 257.143, 71.156 249.750, 62.792 241.323 L 47.584 226 62.792 210.677 C 71.156 202.250, 78 194.857, 78 194.249 C 78 192.819, 75.181 190, 73.751 190 C 73.143 190, 65.750 196.844, 57.323 205.208 L 42 220.416 26.677 205.208 C 18.250 196.844, 10.857 190, 10.249 190 C 9.640 190, 8.436 190.707, 7.571 191.571 " stroke="none" fill="black" fill-rule="evenodd"/>
</svg>