<svg xmlns="http://www.w3.org/2000/svg" width="148" height="324" viewBox="0 0 148 324" version="1.1">
	<path d="M 55.200 63.200 C 53.512 64.888, 53.512 99.112, 55.200 100.800 C 56.040 101.640, 61.562 102, 73.629 102 C 87.958 102, 91.122 101.736, 92.429 100.429 C 94.757 98.100, 94.757 65.900, 92.429 63.571 C 91.122 62.264, 87.958 62, 73.629 62 C 61.562 62, 56.040 62.360, 55.200 63.200 M 62 82 L 62 94 74 94 L 86 94 86 82 L 86 70 74 70 L 62 70 62 82 M 7.571 127.571 C 6.707 128.436, 6 129.657, 6 130.285 C 6 130.913, 20.053 145.506, 37.229 162.713 L 68.458 194 37.229 225.287 C 20.053 242.494, 6 257.087, 6 257.715 C 6 259.191, 8.809 262, 10.285 262 C 10.913 262, 25.506 247.947, 42.713 230.771 L 74 199.542 105.287 230.771 C 122.494 247.947, 137.029 262, 137.587 262 C 139.056 262, 141 259.829, 141 258.188 C 141 257.412, 127.275 242.839, 110.500 225.805 C 93.725 208.770, 80 194.437, 80 193.953 C 80 193.469, 93.725 179.163, 110.500 162.162 C 127.275 145.162, 141 130.610, 141 129.826 C 141 128.173, 139.061 126, 137.587 126 C 137.029 126, 122.494 140.053, 105.287 157.229 L 74 188.458 42.713 157.229 C 25.506 140.053, 10.913 126, 10.285 126 C 9.657 126, 8.436 126.707, 7.571 127.571 " stroke="none" fill="black" fill-rule="evenodd"/>
</svg>