<svg xmlns="http://www.w3.org/2000/svg" width="372" height="324" viewBox="0 0 372 324" version="1.1">
	<path d="M 39.267 159.267 L 6 192.533 6 225.695 C 6 254.509, 6.206 259.063, 7.571 260.429 C 8.968 261.825, 16.372 262, 74 262 C 131.628 262, 139.032 261.825, 140.429 260.429 C 141.794 259.063, 142 254.509, 142 225.695 L 142 192.533 108.733 159.267 C 90.437 140.970, 74.807 126, 74 126 C 73.193 126, 57.563 140.970, 39.267 159.267 M 167.571 127.571 C 166.175 128.968, 166 136.372, 166 194 C 166 251.628, 166.175 259.032, 167.571 260.429 C 168.968 261.825, 176.372 262, 234 262 C 291.628 262, 299.032 261.825, 300.429 260.429 C 301.788 259.069, 302 254.758, 302 228.429 L 302 198 327.202 198 L 352.405 198 339.202 211.333 C 331.941 218.666, 326 225.159, 326 225.761 C 326 227.187, 328.825 230, 330.257 230 C 332.006 230, 366 195.761, 366 194 C 366 192.239, 332.006 158, 330.257 158 C 328.825 158, 326 160.813, 326 162.239 C 326 162.841, 331.941 169.334, 339.202 176.667 L 352.405 190 327.202 190 L 302 190 302 159.571 C 302 133.242, 301.788 128.931, 300.429 127.571 C 299.032 126.175, 291.628 126, 234 126 C 176.372 126, 168.968 126.175, 167.571 127.571 M 174 147.500 C 174 154.925, 174.149 161, 174.332 161 C 174.514 161, 176.081 158.812, 177.814 156.138 C 181.411 150.586, 193.486 138.835, 197.981 136.510 C 199.642 135.651, 201 134.735, 201 134.474 C 201 134.213, 194.925 134, 187.500 134 L 174 134 174 147.500 M 218.645 135.584 C 198.671 140.419, 180.279 158.986, 175.537 179.103 C 170.661 199.790, 176.552 220.547, 191.585 235.649 C 203.014 247.131, 217.192 253, 233.500 253 C 249.846 253, 263.950 247.146, 275.548 235.548 C 287.146 223.950, 293 209.846, 293 193.500 C 293 183.313, 291.503 176.931, 286.809 167.101 C 279.545 151.887, 264.095 139.356, 247.897 135.537 C 239.998 133.676, 226.439 133.697, 218.645 135.584 M 266 134.332 C 266 134.514, 268.137 136.059, 270.750 137.765 C 276.880 141.769, 285.885 151.019, 290.426 157.977 L 294 163.454 294 148.727 L 294 134 280 134 C 272.300 134, 266 134.149, 266 134.332 M 43.744 165.756 L 14 195.512 14 224.756 L 14 254 74 254 L 134 254 134 224.744 L 134 195.487 104.244 165.744 C 87.878 149.385, 74.263 136, 73.988 136 C 73.713 136, 60.103 149.390, 43.744 165.756 M 226.223 159.012 C 215.933 161.160, 205.981 169.443, 201.216 179.825 C 197.512 187.894, 197.512 199.106, 201.216 207.175 C 204.462 214.246, 210.459 220.848, 216.712 224.232 C 237.892 235.696, 263.341 223.376, 268.013 199.396 C 272.589 175.912, 249.969 154.054, 226.223 159.012 M 223.054 167.728 C 217.018 169.859, 209.781 177.260, 207.667 183.463 C 204.117 193.882, 206.321 205.066, 213.347 212.280 C 218.744 217.822, 224.047 220.291, 231.659 220.805 C 243.162 221.582, 253.604 215.621, 258.467 205.500 C 261.171 199.874, 261.632 190.419, 259.514 184.042 C 257.290 177.346, 249.926 169.844, 243.392 167.618 C 237.504 165.612, 228.916 165.658, 223.054 167.728 M 231.571 191.571 C 230.707 192.436, 230 193.529, 230 194 C 230 194.471, 230.707 195.564, 231.571 196.429 C 232.436 197.293, 233.529 198, 234 198 C 234.471 198, 235.564 197.293, 236.429 196.429 C 237.293 195.564, 238 194.471, 238 194 C 238 193.529, 237.293 192.436, 236.429 191.571 C 235.564 190.707, 234.471 190, 234 190 C 233.529 190, 232.436 190.707, 231.571 191.571 M 291.052 228.121 C 287.645 234.183, 276.644 245.423, 269.635 250.002 L 263.517 254 278.758 254 L 294 254 294 239 C 294 230.750, 293.858 224, 293.684 224 C 293.510 224, 292.326 225.855, 291.052 228.121 M 174 240 L 174 254 188.727 254 L 203.454 254 197.977 250.426 C 191.019 245.885, 181.769 236.880, 177.765 230.750 C 176.059 228.137, 174.514 226, 174.332 226 C 174.149 226, 174 232.300, 174 240 " stroke="none" fill="black" fill-rule="evenodd"/>
</svg>