<svg xmlns="http://www.w3.org/2000/svg" width="148" height="324" viewBox="0 0 148 324" version="1.1">
	<path d="M 72.316 62.784 C 70.369 64.022, 54.007 97.855, 54.604 99.410 C 55.450 101.615, 58.110 102.210, 59.895 100.594 C 60.778 99.795, 64.185 93.709, 67.467 87.070 C 70.748 80.432, 73.687 75, 73.997 75 C 74.308 75, 77.453 80.837, 80.986 87.972 C 84.520 95.106, 88.050 101.189, 88.832 101.489 C 90.716 102.212, 93 100.227, 93 97.866 C 93 95.626, 77.264 63.831, 75.628 62.765 C 74.214 61.845, 73.789 61.847, 72.316 62.784 M 7.571 127.571 C 6.707 128.436, 6 129.657, 6 130.285 C 6 130.913, 20.053 145.506, 37.229 162.713 L 68.458 194 37.229 225.287 C 20.053 242.494, 6 257.087, 6 257.715 C 6 259.191, 8.809 262, 10.285 262 C 10.913 262, 25.506 247.947, 42.713 230.771 L 74 199.542 105.287 230.771 C 122.494 247.947, 137.029 262, 137.587 262 C 139.083 262, 141 259.817, 141 258.112 C 141 257.294, 127.275 242.814, 110.500 225.935 C 93.725 209.056, 80 194.659, 80 193.941 C 80 193.223, 93.725 178.864, 110.500 162.032 C 127.275 145.200, 141 130.747, 141 129.914 C 141 128.187, 139.093 126, 137.587 126 C 137.029 126, 122.494 140.053, 105.287 157.229 L 74 188.458 42.713 157.229 C 25.506 140.053, 10.913 126, 10.285 126 C 9.657 126, 8.436 126.707, 7.571 127.571 " stroke="none" fill="black" fill-rule="evenodd"/>
</svg>