<svg xmlns="http://www.w3.org/2000/svg" width="148" height="324" viewBox="0 0 148 324" version="1.1">
	<path d="M 71.550 62.918 C 67.869 68.875, 54.190 98.331, 54.604 99.410 C 55.269 101.144, 57.524 102.120, 59.295 101.440 C 60.007 101.167, 63.480 95.106, 67.014 87.972 C 70.547 80.837, 73.701 75, 74.023 75 C 74.344 75, 77.371 80.793, 80.750 87.872 C 84.128 94.952, 87.649 101.035, 88.573 101.390 C 90.682 102.199, 93 100.353, 93 97.866 C 93 95.626, 77.264 63.831, 75.628 62.765 C 74.071 61.751, 72.229 61.820, 71.550 62.918 M 7.571 127.571 C 6.206 128.937, 6 133.497, 6 162.371 C 6 186.883, 6.315 195.915, 7.200 196.800 C 8.081 197.681, 16.578 198, 39.200 198 L 70 198 70 228.429 C 70 254.758, 70.212 259.069, 71.571 260.429 C 73.545 262.402, 74.455 262.402, 76.429 260.429 C 77.824 259.034, 78 251.848, 78 196.429 C 78 137.109, 78.089 134, 79.790 134 C 83.684 134, 93.881 137.216, 100.981 140.684 C 118.934 149.452, 132.924 171.540, 132.985 191.215 C 132.997 194.946, 133.431 196.160, 135.064 197.034 C 142.926 201.242, 141.164 178.620, 132.320 161.788 C 128.325 154.187, 118.951 143.439, 112.364 138.907 C 100.087 130.460, 88.226 126.722, 73.500 126.660 C 49.437 126.558, 31.001 136.987, 15.446 159.500 C 14.244 161.239, 14.059 159.392, 14.032 145.321 C 14.006 131.977, 13.725 128.868, 12.429 127.571 C 11.564 126.707, 10.471 126, 10 126 C 9.529 126, 8.436 126.707, 7.571 127.571 M 58.645 135.584 C 38.562 140.445, 20.305 158.877, 15.537 179.103 C 14.708 182.621, 14.023 186.512, 14.015 187.750 L 14 190 42 190 L 70 190 70 162 L 70 134 67.250 134.083 C 65.737 134.129, 61.865 134.804, 58.645 135.584 " stroke="none" fill="black" fill-rule="evenodd"/>
</svg>