<svg xmlns="http://www.w3.org/2000/svg" width="180" height="324" viewBox="0 0 180 324" version="1.1">
	<path d="M 39.571 127.571 C 38.176 128.966, 38 136.152, 38 191.571 L 38 254 23.571 254 C 11.788 254, 8.855 254.288, 7.571 255.571 C 5.598 257.545, 5.598 258.455, 7.571 260.429 C 8.936 261.793, 13.463 262, 42 262 C 70.537 262, 75.064 261.793, 76.429 260.429 C 77.293 259.564, 78 258.471, 78 258 C 78 257.529, 77.293 256.436, 76.429 255.571 C 75.145 254.288, 72.212 254, 60.429 254 L 46 254 46 191.571 C 46 136.152, 45.824 128.966, 44.429 127.571 C 43.564 126.707, 42.471 126, 42 126 C 41.529 126, 40.436 126.707, 39.571 127.571 M 167.571 127.571 C 166.199 128.944, 166 133.890, 166 166.699 L 166 204.255 161.425 200.038 C 154.253 193.427, 147.107 190.611, 137.500 190.611 C 131 190.611, 128.436 191.099, 123.825 193.216 C 115.965 196.824, 109.618 202.999, 105.800 210.755 C 102.994 216.455, 102.601 218.254, 102.606 225.377 C 102.610 232.002, 103.092 234.547, 105.216 239.175 C 119.545 270.392, 162.625 266.497, 171.877 233.147 C 173.180 228.449, 173.493 219.235, 173.740 178.340 C 174.005 134.487, 173.865 129.008, 172.447 127.590 C 170.455 125.597, 169.549 125.594, 167.571 127.571 M 127.054 199.728 C 121.018 201.859, 113.781 209.260, 111.667 215.463 C 107.964 226.333, 110.320 237.225, 118.048 244.952 C 128.957 255.862, 146.043 255.862, 156.952 244.952 C 164.640 237.265, 167.036 226.330, 163.382 215.608 C 161.237 209.311, 153.689 201.763, 147.392 199.618 C 141.504 197.612, 132.916 197.658, 127.054 199.728 " stroke="none" fill="black" fill-rule="evenodd"/>
</svg>