<svg xmlns="http://www.w3.org/2000/svg" width="308" height="324" viewBox="0 0 308 324" version="1.1">
	<path d="M 7.579 191.564 C 5.598 193.545, 5.596 194.454, 7.571 196.429 C 8.844 197.701, 11.697 198, 22.575 198 L 36.006 198 21.020 227.961 C 12.777 244.439, 6.285 258.580, 6.594 259.384 C 7.265 261.133, 9.512 262.125, 11.274 261.448 C 11.975 261.180, 19.056 247.919, 27.010 231.980 C 34.964 216.041, 41.717 203, 42.016 203 C 42.315 203, 49.071 216.093, 57.030 232.095 C 64.988 248.098, 71.842 261.402, 72.259 261.660 C 74.831 263.250, 77.526 258.979, 91.125 231.762 L 105.744 202.502 120.310 231.620 C 128.485 247.962, 135.617 261.023, 136.565 261.386 C 138.679 262.198, 141 260.358, 141 257.871 C 141 256.835, 134.480 242.952, 126.511 227.021 L 112.021 198.056 125.653 197.778 C 137.361 197.539, 139.441 197.253, 140.388 195.750 C 141.191 194.475, 141.190 193.525, 140.386 192.250 C 139.356 190.617, 134.934 190.483, 74.220 190.243 C 16.058 190.013, 8.990 190.153, 7.579 191.564 M 167.207 191.193 C 166.543 191.857, 166 192.988, 166 193.706 C 166 196.166, 199.044 261.080, 200.601 261.677 C 201.456 262.005, 202.763 261.649, 203.506 260.887 C 204.249 260.124, 211.210 246.734, 218.975 231.130 C 226.740 215.527, 233.410 203.069, 233.797 203.447 C 234.184 203.826, 241.025 217.042, 249 232.817 C 260.720 256, 263.884 261.500, 265.500 261.500 C 268.458 261.500, 302.035 194.864, 300.390 192.257 C 299.355 190.615, 295.014 190.483, 233.848 190.243 C 183.786 190.046, 168.131 190.269, 167.207 191.193 M 60.743 223.500 C 67.750 237.525, 73.715 249, 74 249 C 74.285 249, 80.250 237.525, 87.257 223.500 L 99.995 198 74 198 L 48.005 198 60.743 223.500 M 188.608 223.250 C 195.546 237.137, 201.371 248.661, 201.553 248.859 C 201.878 249.211, 227 199.502, 227 198.508 C 227 198.228, 215.523 198, 201.496 198 L 175.992 198 188.608 223.250 M 240.054 198.750 C 240.083 199.162, 245.824 210.865, 252.810 224.755 L 265.513 250.011 278.256 224.500 C 285.265 210.469, 291 198.767, 291 198.495 C 291 198.223, 279.525 198, 265.500 198 C 251.475 198, 240.024 198.338, 240.054 198.750 M 33.244 271.109 C 21.572 273.054, 4.461 284.234, 5.204 289.430 C 5.738 293.166, 9.662 292.567, 14.627 287.990 C 21.254 281.881, 28.827 278.798, 38.591 278.234 C 52.522 277.428, 61.396 281.082, 72 291.989 C 81.847 302.117, 96.822 307.132, 111 305.048 C 123.634 303.191, 140.536 293.622, 139.805 288.740 C 139.178 284.551, 136.558 284.409, 131.803 288.305 C 120.616 297.472, 105.185 300.467, 92.040 296.022 C 84.258 293.390, 81.019 291.203, 74.658 284.285 C 68.766 277.876, 58.327 272.483, 49 271.029 C 41.654 269.883, 40.571 269.889, 33.244 271.109 " stroke="none" fill="black" fill-rule="evenodd"/>
</svg>