<svg xmlns="http://www.w3.org/2000/svg" width="244" height="324" viewBox="0 0 244 324" version="1.1">
	<path d="M 151.537 63.605 C 150.508 64.635, 150.172 65.980, 150.600 67.355 C 151.771 71.118, 166.889 100.814, 167.975 101.484 C 170.685 103.159, 172.956 100.142, 180.760 84.501 C 185.292 75.417, 189 67.143, 189 66.115 C 189 63.642, 186.675 61.804, 184.569 62.612 C 183.643 62.967, 179.930 69.156, 176.318 76.363 L 169.751 89.469 163.767 77.484 C 157.953 65.839, 155.511 62, 153.916 62 C 153.491 62, 152.420 62.722, 151.537 63.605 M 23.282 143.282 C 13.777 152.787, 6 161.079, 6 161.710 C 6 163.168, 8.798 166, 10.239 166 C 10.841 166, 17.334 160.059, 24.667 152.798 L 38 139.595 38 199.763 C 38 258.906, 38.034 259.948, 40 261 C 41.309 261.701, 42.604 261.739, 43.750 261.111 C 46.436 259.638, 78 227.514, 78 226.253 C 78 224.824, 75.185 222, 73.761 222 C 73.159 222, 66.666 227.941, 59.333 235.202 L 46 248.405 46 188.774 C 46 135.897, 45.822 128.965, 44.429 127.571 C 43.564 126.707, 42.341 126, 41.710 126 C 41.079 126, 32.787 133.777, 23.282 143.282 M 103.571 127.571 C 102.175 128.968, 102 136.372, 102 194 C 102 251.628, 102.175 259.032, 103.571 260.429 C 104.436 261.293, 105.529 262, 106 262 C 106.471 262, 107.564 261.293, 108.429 260.429 C 109.781 259.076, 110 255.012, 110 231.226 L 110 203.595 123.333 216.798 C 130.666 224.059, 137.101 230, 137.633 230 C 139.263 230, 141 227.710, 141 225.562 C 141 224.272, 135.595 218.111, 126.263 208.762 L 111.525 194 126.263 179.238 C 135.595 169.889, 141 163.728, 141 162.438 C 141 160.290, 139.263 158, 137.633 158 C 137.101 158, 130.666 163.941, 123.333 171.202 L 110 184.405 110 156.774 C 110 132.988, 109.781 128.924, 108.429 127.571 C 107.564 126.707, 106.471 126, 106 126 C 105.529 126, 104.436 126.707, 103.571 127.571 M 231.750 127.080 C 230.148 128.013, 230 130.520, 230 156.786 L 230 185.473 216.131 171.631 C 203.495 159.019, 202.073 157.890, 200.131 158.930 C 198.959 159.557, 198 160.837, 198 161.773 C 198 162.710, 204.857 170.344, 213.238 178.738 L 228.476 194 213.238 209.262 C 204.857 217.656, 198 225.290, 198 226.227 C 198 227.163, 198.959 228.443, 200.131 229.070 C 202.073 230.110, 203.495 228.981, 216.131 216.369 L 230 202.527 230 231.228 C 230 259.433, 230.037 259.949, 232.117 261.062 C 237.076 263.716, 237.023 264.441, 237.023 194.069 C 237.023 123.438, 237.066 123.984, 231.750 127.080 " stroke="none" fill="black" fill-rule="evenodd"/>
</svg>