<svg xmlns="http://www.w3.org/2000/svg" width="84" height="324" viewBox="0 0 84 324" version="1.1">
	<path d="M 23.571 63.571 C 22.707 64.436, 22 65.332, 22 65.564 C 22 67.123, 39.710 101.058, 40.727 101.449 C 41.427 101.717, 42.573 101.717, 43.273 101.449 C 45.129 100.736, 62.063 66.328, 61.403 64.609 C 60.732 62.858, 58.483 61.877, 56.705 62.560 C 55.993 62.833, 52.520 68.894, 48.986 76.028 C 45.453 83.163, 42.308 89, 41.997 89 C 41.687 89, 38.748 83.534, 35.467 76.853 C 27.925 61.499, 26.847 60.296, 23.571 63.571 M 7.571 159.571 C 6.207 160.936, 6 165.463, 6 194 C 6 222.537, 6.207 227.064, 7.571 228.429 C 9.545 230.402, 10.455 230.402, 12.429 228.429 C 13.793 227.064, 14 222.537, 14 194 C 14 165.463, 13.793 160.936, 12.429 159.571 C 11.564 158.707, 10.471 158, 10 158 C 9.529 158, 8.436 158.707, 7.571 159.571 M 71.571 159.571 C 70.207 160.936, 70 165.463, 70 194 C 70 222.537, 70.207 227.064, 71.571 228.429 C 73.545 230.402, 74.455 230.402, 76.429 228.429 C 77.793 227.064, 78 222.537, 78 194 C 78 165.463, 77.793 160.936, 76.429 159.571 C 75.564 158.707, 74.471 158, 74 158 C 73.529 158, 72.436 158.707, 71.571 159.571 " stroke="none" fill="black" fill-rule="evenodd"/>
</svg>