<svg xmlns="http://www.w3.org/2000/svg" width="244" height="324" viewBox="0 0 244 324" version="1.1">
	<path d="M 39.571 127.571 C 38.288 128.855, 38 131.788, 38 143.571 L 38 158 23.571 158 C 11.788 158, 8.855 158.288, 7.571 159.571 C 5.598 161.545, 5.598 162.455, 7.571 164.429 C 8.855 165.712, 11.788 166, 23.571 166 L 38 166 38 194 L 38 222 23.571 222 C 11.788 222, 8.855 222.288, 7.571 223.571 C 6.707 224.436, 6 225.529, 6 226 C 6 226.471, 6.707 227.564, 7.571 228.429 C 8.855 229.712, 11.788 230, 23.571 230 L 38 230 38 244.429 C 38 256.212, 38.288 259.145, 39.571 260.429 C 40.436 261.293, 41.529 262, 42 262 C 42.471 262, 43.564 261.293, 44.429 260.429 C 45.712 259.145, 46 256.212, 46 244.429 L 46 230 74 230 L 102 230 102 244.429 C 102 256.212, 102.288 259.145, 103.571 260.429 C 105.545 262.402, 106.455 262.402, 108.429 260.429 C 109.712 259.145, 110 256.212, 110 244.429 L 110 230 124.429 230 C 136.212 230, 139.145 229.712, 140.429 228.429 C 142.402 226.455, 142.402 225.545, 140.429 223.571 C 139.145 222.288, 136.212 222, 124.429 222 L 110 222 110 194 L 110 166 124.429 166 C 136.212 166, 139.145 165.712, 140.429 164.429 C 142.402 162.455, 142.402 161.545, 140.429 159.571 C 139.145 158.288, 136.212 158, 124.429 158 L 110 158 110 143.571 C 110 131.788, 109.712 128.855, 108.429 127.571 C 106.455 125.598, 105.545 125.598, 103.571 127.571 C 102.288 128.855, 102 131.788, 102 143.571 L 102 158 74 158 L 46 158 46 143.571 C 46 131.788, 45.712 128.855, 44.429 127.571 C 43.564 126.707, 42.471 126, 42 126 C 41.529 126, 40.436 126.707, 39.571 127.571 M 193.746 159.027 C 183.233 161.669, 174.023 169.382, 169.302 179.500 C 166.964 184.509, 166.503 186.822, 166.511 193.500 C 166.518 200.145, 166.996 202.535, 169.334 207.610 C 172.865 215.277, 179.702 222.073, 187.500 225.665 C 203.961 233.249, 224.762 225.410, 233.049 208.500 C 235.153 204.207, 235.500 202.086, 235.500 193.500 C 235.500 181.464, 233.483 176.393, 225.518 168.404 C 217.687 160.548, 203.894 156.477, 193.746 159.027 M 46 194 L 46 222 74 222 L 102 222 102 194 L 102 166 74 166 L 46 166 46 194 M 191.385 167.617 C 176.729 172.815, 169.477 191.530, 176.588 205.801 C 186.682 226.057, 215.796 226.002, 226.150 205.707 C 228.708 200.692, 229.594 191.874, 228.096 186.337 C 224.926 174.621, 213.582 165.926, 201.663 166.079 C 198.273 166.122, 193.648 166.815, 191.385 167.617 M 167.750 255.073 C 165.413 256.444, 165.527 259.677, 167.960 260.979 C 169.243 261.665, 181.208 261.936, 202.601 261.764 C 232.469 261.523, 235.378 261.349, 236.386 259.750 C 237.191 258.474, 237.191 257.526, 236.386 256.250 C 235.377 254.649, 232.483 254.481, 202.391 254.273 C 181.280 254.127, 168.873 254.414, 167.750 255.073 " stroke="none" fill="black" fill-rule="evenodd"/>
</svg>