<svg xmlns="http://www.w3.org/2000/svg" width="116" height="324" viewBox="0 0 116 324" version="1.1">
	<path d="M 23.571 63.571 C 22.707 64.436, 22 65.332, 22 65.564 C 22 67.204, 39.738 101.069, 40.813 101.482 C 41.560 101.768, 42.775 101.665, 43.512 101.252 C 45.510 100.131, 62.035 66.256, 61.396 64.590 C 60.550 62.385, 57.890 61.790, 56.105 63.406 C 55.222 64.205, 51.815 70.291, 48.533 76.930 C 45.252 83.568, 42.312 89, 42 89 C 41.688 89, 38.748 83.534, 35.467 76.853 C 27.925 61.499, 26.847 60.296, 23.571 63.571 M 103.759 127.750 C 102.906 128.713, 88.211 157.512, 71.102 191.750 L 39.997 254 24.570 254 C 11.879 254, 8.864 254.279, 7.571 255.571 C 5.598 257.545, 5.598 258.455, 7.571 260.429 C 8.936 261.793, 13.463 262, 42 262 C 70.537 262, 75.064 261.793, 76.429 260.429 C 78.402 258.455, 78.402 257.545, 76.429 255.571 C 75.155 254.298, 72.297 254, 61.361 254 L 47.866 254 78.933 192.617 C 96.020 158.856, 110 130.522, 110 129.652 C 110 128.782, 109.130 127.605, 108.066 127.035 C 105.566 125.697, 105.580 125.695, 103.759 127.750 " stroke="none" fill="black" fill-rule="evenodd"/>
</svg>