<svg xmlns="http://www.w3.org/2000/svg" width="372" height="324" viewBox="0 0 372 324" version="1.1">
	<path d="M 39.267 159.267 C 20.970 177.563, 6 193.056, 6 193.695 C 6 195.187, 8.799 198, 10.285 198 C 10.913 198, 25.506 183.947, 42.713 166.771 L 74 135.542 105.287 166.771 C 122.494 183.947, 137.087 198, 137.715 198 C 139.201 198, 142 195.187, 142 193.695 C 142 191.982, 75.721 126, 74 126 C 73.193 126, 57.563 140.970, 39.267 159.267 M 199.267 159.267 C 180.970 177.563, 166 193.056, 166 193.695 C 166 195.187, 168.799 198, 170.285 198 C 170.913 198, 185.506 183.947, 202.713 166.771 L 234 135.542 265.287 166.771 C 282.494 183.947, 297.087 198, 297.715 198 C 299.201 198, 302 195.187, 302 193.695 C 302 191.982, 235.721 126, 234 126 C 233.193 126, 217.563 140.970, 199.267 159.267 M 72.370 190.765 C 70.401 192.045, 38.007 257.855, 38.594 259.384 C 39.265 261.133, 41.512 262.124, 43.274 261.448 C 43.975 261.180, 51.056 247.919, 59.010 231.980 C 66.964 216.041, 73.710 203, 74 203 C 74.290 203, 81.036 216.041, 88.990 231.980 C 96.944 247.919, 104.025 261.180, 104.726 261.448 C 106.488 262.124, 108.735 261.133, 109.406 259.384 C 109.993 257.855, 77.599 192.045, 75.630 190.765 C 75.009 190.361, 74.275 190.031, 74 190.031 C 73.725 190.031, 72.991 190.361, 72.370 190.765 M 200.370 190.765 C 198.401 192.045, 166.007 257.855, 166.594 259.384 C 167.265 261.133, 169.512 262.124, 171.274 261.448 C 171.975 261.180, 179.056 247.919, 187.010 231.980 C 194.964 216.041, 201.714 203, 202.009 203 C 202.304 203, 209.101 216.162, 217.113 232.250 L 231.681 261.500 264.090 261.779 C 281.916 261.933, 297.463 261.825, 298.640 261.538 C 299.817 261.252, 301.046 260.323, 301.371 259.475 C 302.058 257.686, 269.206 191.293, 267.265 190.548 C 266.569 190.281, 265.427 190.283, 264.726 190.552 C 264.025 190.820, 256.944 204.081, 248.990 220.020 C 241.036 235.959, 234.290 249, 234 249 C 233.709 249, 227.178 236.339, 219.486 220.864 C 211.794 205.389, 204.905 192.114, 204.179 191.364 C 202.686 189.823, 201.988 189.713, 200.370 190.765 M 340.648 190.983 C 333.384 193.272, 327.912 199.505, 326.503 207.096 C 325.855 210.586, 327.585 214, 330 214 C 331.861 214, 334 210.700, 334 207.829 C 334 205.718, 335.030 203.770, 337.400 201.400 C 340.302 198.498, 341.488 198, 345.500 198 C 349.512 198, 350.698 198.498, 353.600 201.400 C 359.296 207.096, 358.903 208.183, 341.941 233.589 C 333.658 245.994, 326.657 256.729, 326.383 257.443 C 326.109 258.158, 326.618 259.475, 327.514 260.371 C 329.895 262.753, 362.054 262.803, 364.429 260.429 C 366.402 258.455, 366.402 257.545, 364.429 255.571 C 363.162 254.305, 360.348 254, 349.926 254 L 336.995 254 351.499 232.239 L 366.002 210.477 364.025 205.068 C 360.046 194.184, 349.898 188.069, 340.648 190.983 M 252.743 228.500 L 240.005 254 266 254 L 291.995 254 279.257 228.500 C 272.250 214.475, 266.285 203, 266 203 C 265.715 203, 259.750 214.475, 252.743 228.500 " stroke="none" fill="black" fill-rule="evenodd"/>
</svg>