<svg xmlns="http://www.w3.org/2000/svg" width="340" height="324" viewBox="0 0 340 324" version="1.1">
	<path d="M 39.571 127.571 C 38.176 128.966, 38 136.152, 38 191.571 L 38 254 23.571 254 C 11.788 254, 8.855 254.288, 7.571 255.571 C 5.598 257.545, 5.598 258.455, 7.571 260.429 C 8.936 261.793, 13.463 262, 42 262 C 70.537 262, 75.064 261.793, 76.429 260.429 C 77.293 259.564, 78 258.471, 78 258 C 78 257.529, 77.293 256.436, 76.429 255.571 C 75.145 254.288, 72.212 254, 60.429 254 L 46 254 46 191.571 C 46 136.152, 45.824 128.966, 44.429 127.571 C 43.564 126.707, 42.471 126, 42 126 C 41.529 126, 40.436 126.707, 39.571 127.571 M 135.244 159.256 L 102 192.511 102 226.056 C 102 250.812, 102.314 259.914, 103.200 260.800 C 104.109 261.709, 120.229 262, 169.629 262 C 227.594 262, 235.032 261.825, 236.429 260.429 C 237.794 259.063, 238 254.509, 238 225.695 L 238 192.533 204.733 159.267 C 186.437 140.970, 170.797 126, 169.978 126 C 169.159 126, 153.529 140.965, 135.244 159.256 M 139.744 165.756 L 110 195.512 110 224.756 L 110 254 170 254 L 230 254 230 224.744 L 230 195.487 200.244 165.744 C 183.878 149.385, 170.263 136, 169.988 136 C 169.713 136, 156.103 149.390, 139.744 165.756 M 263.750 159.080 C 262.138 160.019, 262 162.769, 262 194.015 C 262 227.854, 262.005 227.932, 264.183 229.098 C 266.042 230.093, 266.636 229.933, 268.183 228.022 C 269.854 225.959, 270 223.225, 270 194.112 C 270 167.069, 269.773 162.120, 268.443 160.223 C 266.702 157.736, 266.248 157.625, 263.750 159.080 M 327.750 159.080 C 326.138 160.019, 326 162.769, 326 194.015 C 326 227.256, 326.041 227.952, 328.064 229.034 C 329.596 229.854, 330.498 229.832, 331.564 228.947 C 332.760 227.954, 333 222.127, 333 194.078 C 333 157.363, 332.815 156.130, 327.750 159.080 " stroke="none" fill="black" fill-rule="evenodd"/>
</svg>