<svg xmlns="http://www.w3.org/2000/svg" width="148" height="324" viewBox="0 0 148 324" version="1.1">
	<path d="M 103.616 159.527 C 102.727 160.416, 102 161.640, 102 162.249 C 102 162.857, 108.844 170.250, 117.208 178.677 L 132.416 194 117.208 209.323 C 108.844 217.750, 102 225.143, 102 225.751 C 102 227.207, 104.995 230.171, 106.087 229.795 C 107.273 229.386, 142 194.774, 142 194 C 142 193.226, 107.273 158.614, 106.087 158.205 C 105.617 158.043, 104.505 158.638, 103.616 159.527 M 7.585 191.558 C 5.595 193.548, 5.595 194.452, 7.585 196.442 C 8.978 197.835, 13.159 197.995, 42.226 197.763 C 72.452 197.523, 75.377 197.350, 76.386 195.750 C 77.191 194.474, 77.191 193.526, 76.386 192.250 C 75.377 190.650, 72.452 190.477, 42.226 190.237 C 13.159 190.005, 8.978 190.165, 7.585 191.558 M 103.616 191.527 C 102.727 192.416, 102 193.529, 102 194 C 102 195.389, 105.140 198.120, 106.295 197.735 C 108.395 197.035, 109.549 194.094, 108.423 192.310 C 106.905 189.902, 105.474 189.669, 103.616 191.527 " stroke="none" fill="black" fill-rule="evenodd"/>
</svg>