<svg xmlns="http://www.w3.org/2000/svg" width="372" height="324" viewBox="0 0 372 324" version="1.1">
	<path d="M 55.571 63.571 C 54.707 64.436, 54 65.332, 54 65.564 C 54 67.123, 71.710 101.058, 72.727 101.449 C 73.427 101.717, 74.573 101.717, 75.273 101.449 C 77.129 100.736, 94.063 66.328, 93.403 64.609 C 92.732 62.858, 90.483 61.877, 88.705 62.560 C 87.993 62.833, 84.520 68.894, 80.986 76.028 C 77.453 83.163, 74.308 89, 73.997 89 C 73.687 89, 70.748 83.534, 67.467 76.853 C 59.925 61.499, 58.847 60.296, 55.571 63.571 M 35.045 127.092 C 19.667 130.107, 7.255 144.071, 6.841 158.824 C 6.689 164.231, 10.459 179.667, 14.976 192.133 C 21.053 208.902, 33.075 227.074, 46.717 240.107 C 55.990 248.967, 71.179 260, 74.103 260 C 75.247 260, 77.380 259.083, 78.842 257.962 C 80.304 256.841, 85.561 252.856, 90.524 249.106 C 115.739 230.051, 133.308 201.328, 139.405 169.189 C 140.580 162.992, 140.715 159.758, 139.963 155.763 C 135.596 132.560, 112.226 120.286, 90.616 129.845 C 85.222 132.232, 79.372 137.363, 76.005 142.662 L 73.360 146.824 71.503 143.377 C 69.181 139.064, 62.418 132.764, 57.318 130.162 C 55.183 129.073, 50.781 127.691, 47.535 127.091 C 40.969 125.877, 41.243 125.877, 35.045 127.092 M 224.500 127.002 C 216.514 128.203, 211.023 129.952, 203 133.853 C 192.394 139.010, 178.890 152.479, 173.778 163 C 167.648 175.615, 164.334 193.191, 167.491 196.348 C 169.547 198.404, 170.439 198.418, 172.429 196.429 C 173.404 195.453, 174.006 193.082, 174.015 190.179 C 174.074 171.373, 187.719 150.014, 205.603 140.732 C 218.233 134.177, 233.941 132.248, 247.897 135.537 C 272.441 141.323, 292.909 166.127, 292.985 190.179 C 292.994 193.082, 293.596 195.453, 294.571 196.429 C 296.561 198.418, 297.453 198.404, 299.509 196.348 C 301.405 194.452, 300.963 186.993, 298.334 176.536 C 290.299 144.578, 256.848 122.136, 224.500 127.002 M 31.054 135.728 C 24.820 137.929, 17.726 145.300, 15.557 151.828 C 14.045 156.381, 13.979 157.954, 15.032 164.270 C 20.743 198.505, 39.652 228.765, 67.125 247.633 L 73.751 252.183 77.672 249.707 C 90.364 241.695, 103.917 228.375, 113.025 214.964 C 122.598 200.867, 131.489 177.784, 132.692 163.905 C 134.493 143.139, 115.597 128.807, 95.463 135.667 C 86.088 138.862, 78 149.949, 78 159.607 C 78 162.970, 75.867 166, 73.500 166 C 71.133 166, 69 162.970, 69 159.607 C 69 149.949, 60.912 138.862, 51.537 135.667 C 45.516 133.616, 36.964 133.641, 31.054 135.728 M 231.571 159.571 C 230.288 160.855, 230 163.788, 230 175.571 L 230 190 215.571 190 C 203.788 190, 200.855 190.288, 199.571 191.571 C 197.598 193.545, 197.598 194.455, 199.571 196.429 C 200.855 197.712, 203.788 198, 215.571 198 L 230 198 230 212.429 C 230 224.212, 230.288 227.145, 231.571 228.429 C 233.545 230.402, 234.455 230.402, 236.429 228.429 C 237.712 227.145, 238 224.212, 238 212.429 L 238 198 252.429 198 C 264.212 198, 267.145 197.712, 268.429 196.429 C 270.402 194.455, 270.402 193.545, 268.429 191.571 C 267.145 190.288, 264.212 190, 252.429 190 L 238 190 238 175.571 C 238 163.788, 237.712 160.855, 236.429 159.571 C 235.564 158.707, 234.471 158, 234 158 C 233.529 158, 232.436 158.707, 231.571 159.571 M 327.571 159.571 C 326.227 160.916, 326 164.736, 326 186 C 326 207.264, 326.227 211.084, 327.571 212.429 C 328.436 213.293, 329.529 214, 330 214 C 330.471 214, 331.564 213.293, 332.429 212.429 C 333.773 211.084, 334 207.264, 334 186 C 334 164.736, 333.773 160.916, 332.429 159.571 C 331.564 158.707, 330.471 158, 330 158 C 329.529 158, 328.436 158.707, 327.571 159.571 M 327.571 222.571 C 326.707 223.436, 326 224.529, 326 225 C 326 226.111, 328.889 229, 330 229 C 331.111 229, 334 226.111, 334 225 C 334 223.889, 331.111 221, 330 221 C 329.529 221, 328.436 221.707, 327.571 222.571 " stroke="none" fill="black" fill-rule="evenodd"/>
</svg>