<svg xmlns="http://www.w3.org/2000/svg" width="212" height="324" viewBox="0 0 212 324" version="1.1">
	<path d="M 55.571 63.571 C 54.707 64.436, 54 65.332, 54 65.564 C 54 67.204, 71.738 101.069, 72.813 101.482 C 73.560 101.768, 74.775 101.665, 75.512 101.252 C 77.510 100.131, 94.035 66.256, 93.396 64.590 C 92.550 62.385, 89.890 61.790, 88.105 63.406 C 87.222 64.205, 83.815 70.291, 80.533 76.930 C 77.252 83.568, 74.312 89, 74 89 C 73.688 89, 70.748 83.534, 67.467 76.853 C 59.925 61.499, 58.847 60.296, 55.571 63.571 M 67 126.637 C 49.023 129.262, 36.267 135.634, 24.973 147.630 C 14.512 158.742, 9.067 170.184, 6.930 185.546 C 5.617 194.991, 6.854 205.902, 10.391 216.076 C 17.827 237.456, 38.105 255.002, 60.008 259.009 C 63.579 259.662, 68.245 260.569, 70.379 261.025 C 72.594 261.498, 75.302 261.455, 76.694 260.926 C 78.034 260.417, 80.356 260, 81.855 260 C 90.362 260, 105.690 253.550, 115.067 246.025 C 129.206 234.677, 136.563 221.589, 140.516 200.750 L 141.038 198 167.255 198 L 193.472 198 180.236 211.263 C 172.956 218.558, 167 225.218, 167 226.063 C 167 227.796, 168.896 230, 170.385 230 C 172.047 230, 206 195.680, 206 194 C 206 192.320, 172.047 158, 170.385 158 C 168.896 158, 167 160.204, 167 161.937 C 167 162.782, 172.956 169.442, 180.236 176.737 L 193.472 190 167.281 190 L 141.091 190 140.526 186.250 C 135.788 154.774, 112.792 131.253, 82.678 127.083 C 74.947 126.013, 71.876 125.925, 67 126.637 M 58.645 135.584 C 38.671 140.419, 20.279 158.986, 15.537 179.103 C 13.610 187.282, 13.610 199.718, 15.537 207.897 C 20.338 228.261, 38.739 246.662, 59.103 251.463 C 62.621 252.292, 66.513 252.977, 67.750 252.985 L 70 253 70 193.500 L 70 134 67.250 134.083 C 65.737 134.129, 61.865 134.804, 58.645 135.584 M 78 162 L 78 190 105.638 190 L 133.275 190 132.629 184.499 C 130.022 162.323, 111.143 141.464, 88.356 135.585 C 76.914 132.633, 78 129.863, 78 162 M 78 225.500 C 78 256.852, 76.931 254.047, 87.897 251.463 C 110.334 246.174, 129.639 225.283, 132.580 203.106 L 133.258 198 105.629 198 L 78 198 78 225.500 " stroke="none" fill="black" fill-rule="evenodd"/>
</svg>