<svg xmlns="http://www.w3.org/2000/svg" width="212" height="324" viewBox="0 0 212 324" version="1.1">
	<path d="M 7.571 127.571 C 6.707 128.436, 6 129.619, 6 130.200 C 6 130.782, 9.859 135.201, 14.576 140.021 L 23.151 148.785 19.620 153.699 C 12.180 164.056, 7.950 175.310, 6.503 188.598 C 5.964 193.549, 6.150 195.007, 7.491 196.348 C 9.547 198.404, 10.439 198.418, 12.429 196.429 C 13.404 195.453, 14.006 193.082, 14.015 190.179 C 14.046 180.253, 18.186 168.455, 25.257 158.142 L 28.244 153.785 36.996 162.496 L 45.748 171.208 42.864 176.854 C 37.051 188.232, 37.101 198.839, 43.021 210.442 L 46.053 216.384 26.027 236.498 C 15.012 247.560, 6 257.117, 6 257.734 C 6 259.186, 8.814 262, 10.266 262 C 10.883 262, 20.483 252.946, 31.597 241.879 L 51.806 221.758 57.153 224.365 C 68.597 229.945, 80.317 229.761, 90.899 223.837 L 96.297 220.815 116.952 241.452 C 137.569 262.051, 139.766 263.659, 141.419 259.350 C 141.735 258.528, 141.573 257.100, 141.060 256.178 C 140.547 255.255, 131.388 245.793, 120.706 235.152 L 101.284 215.803 104.892 208.772 C 108.165 202.394, 108.500 200.983, 108.500 193.599 C 108.500 186.377, 108.120 184.686, 105.133 178.618 L 101.765 171.778 110.111 163.389 C 114.700 158.775, 118.760 155, 119.131 155 C 120.532 155, 127.167 166.205, 129.611 172.698 C 131.010 176.415, 132.398 182.616, 132.695 186.478 C 133.210 193.170, 134.994 198, 136.952 198 C 137.450 198, 138.614 197.243, 139.540 196.317 C 140.942 194.915, 141.108 193.478, 140.538 187.684 C 139.317 175.300, 134.595 162.863, 127.667 153.787 L 124.204 149.250 132.171 141.375 C 140.934 132.714, 142.272 130.873, 141.419 128.650 C 139.940 124.794, 137.574 125.964, 128.426 135.073 L 119.232 144.230 114.052 140.136 C 102.839 131.272, 89.031 126.696, 73.500 126.696 C 58.434 126.696, 46.126 130.693, 33.699 139.620 L 28.785 143.151 20.021 134.576 C 15.201 129.859, 10.782 126, 10.200 126 C 9.619 126, 8.436 126.707, 7.571 127.571 M 58.773 135.555 C 52.456 137.086, 44.826 140.674, 38.142 145.257 L 33.785 148.244 42.496 156.996 L 51.208 165.748 56.854 162.864 C 68.544 156.892, 79.706 157.043, 91.248 163.329 L 96.996 166.460 105.547 157.980 L 114.098 149.500 110.799 146.671 C 106.191 142.721, 95.461 137.433, 88.269 135.570 C 80.886 133.657, 66.634 133.649, 58.773 135.555 M 168.200 159.200 C 166.492 160.908, 166.492 211.092, 168.200 212.800 C 169.781 214.381, 170.543 214.315, 172.429 212.429 C 174.785 210.073, 174.785 161.927, 172.429 159.571 C 170.543 157.685, 169.781 157.619, 168.200 159.200 M 64.500 167.266 C 55.808 170.841, 55.753 170.208, 65.602 180.103 L 74.458 189 82.729 180.772 C 87.278 176.247, 91 172.280, 91 171.956 C 91 171.633, 89.110 170.306, 86.799 169.007 C 81.823 166.210, 69.422 165.242, 64.500 167.266 M 50.167 178.299 C 46.214 183.061, 44.851 195.492, 47.468 202.910 C 50.650 211.928, 50.639 211.929, 60.107 202.207 L 68.586 193.500 59.947 185.212 C 52.937 178.488, 51.092 177.184, 50.167 178.299 M 87.500 186 L 79.547 194 87.450 201.950 C 91.797 206.322, 95.771 209.642, 96.281 209.326 C 98.703 207.829, 100.956 200.204, 100.956 193.500 C 100.956 186.719, 98.323 178, 96.275 178 C 95.823 178, 91.874 181.600, 87.500 186 M 65.985 207.544 C 58.039 215.559, 57.627 216.179, 59.500 217.301 C 67.865 222.315, 81.927 222.180, 88.170 217.027 L 90.500 215.104 82.485 207.044 L 74.470 198.985 65.985 207.544 M 168.200 222.200 C 166.111 224.289, 167.447 229, 170.129 229 C 171.139 229, 174 226.044, 174 225 C 174 223.956, 171.139 221, 170.129 221 C 169.728 221, 168.860 221.540, 168.200 222.200 " stroke="none" fill="black" fill-rule="evenodd"/>
</svg>