<svg xmlns="http://www.w3.org/2000/svg" width="148" height="324" viewBox="0 0 148 324" version="1.1">
	<path d="M 119.315 175.213 C 109.792 184.680, 102 193.134, 102 194 C 102 195.680, 135.953 230, 137.615 230 C 139.105 230, 141 227.795, 141 226.062 C 141 225.216, 134.143 217.656, 125.762 209.262 L 110.524 194 125.762 178.738 C 134.143 170.344, 141 162.784, 141 161.938 C 141 160.205, 139.105 158, 137.615 158 C 137.073 158, 128.838 165.746, 119.315 175.213 M 7.585 191.558 C 5.595 193.548, 5.595 194.452, 7.585 196.442 C 8.978 197.835, 13.159 197.995, 42.226 197.763 C 72.452 197.523, 75.377 197.350, 76.386 195.750 C 77.191 194.474, 77.191 193.526, 76.386 192.250 C 75.377 190.650, 72.452 190.477, 42.226 190.237 C 13.159 190.005, 8.978 190.165, 7.585 191.558 M 135.750 191.080 C 133.372 192.465, 133.542 195.685, 136.064 197.034 C 139.753 199.008, 142.819 194.219, 139.800 191.200 C 138.367 189.767, 138.022 189.757, 135.750 191.080 " stroke="none" fill="black" fill-rule="evenodd"/>
</svg>