<svg xmlns="http://www.w3.org/2000/svg" width="308" height="324" viewBox="0 0 308 324" version="1.1">
	<path d="M 126.582 135.250 C 112.571 149.521, 105.499 164.013, 102.855 183.874 C 101.882 191.182, 101.874 195.209, 102.819 202.692 C 105.360 222.808, 112.395 237.222, 127 252.237 L 136.500 262.004 201.243 262.002 L 265.987 262 271.800 256.250 C 285.036 243.159, 292.797 230.658, 297.234 215.285 C 299.085 208.870, 299.481 205.037, 299.481 193.500 C 299.481 181.963, 299.085 178.130, 297.234 171.715 C 292.767 156.237, 284.177 142.397, 272.145 131.289 L 266.500 126.078 201.082 126.039 L 135.663 126 126.582 135.250 M 133.901 137.709 C 124.173 146.498, 115.359 161.366, 111.930 174.774 C 109.298 185.067, 109.298 201.937, 111.932 212.234 C 115.368 225.668, 124.216 240.514, 134.065 249.368 L 139.216 254 201.182 254 L 263.148 254 269.194 248.250 C 279.367 238.575, 286.773 226.012, 290.596 211.942 C 292.978 203.180, 292.991 183.927, 290.622 175 C 287.509 163.268, 280.575 150.777, 272.283 141.963 L 264.792 134 201.399 134 L 138.006 134 133.901 137.709 M 39.571 159.571 C 38.707 160.436, 38 161.529, 38 162 C 38 163.111, 40.889 166, 42 166 C 43.111 166, 46 163.111, 46 162 C 46 160.889, 43.111 158, 42 158 C 41.529 158, 40.436 158.707, 39.571 159.571 M 7.585 191.558 C 5.595 193.548, 5.595 194.452, 7.585 196.442 C 8.978 197.835, 13.159 197.995, 42.226 197.763 C 72.452 197.523, 75.377 197.350, 76.386 195.750 C 77.191 194.474, 77.191 193.526, 76.386 192.250 C 75.377 190.650, 72.452 190.477, 42.226 190.237 C 13.159 190.005, 8.978 190.165, 7.585 191.558 M 151.239 207.260 C 141.758 216.754, 134 225.288, 134 226.225 C 134 227.163, 134.960 228.443, 136.132 229.071 C 138.079 230.113, 139.624 228.855, 153.894 214.606 L 169.523 198.999 185 214.500 C 193.512 223.025, 200.963 230, 201.559 230 C 202.155 230, 209.567 223.025, 218.032 214.500 L 233.422 199 249.032 214.500 C 257.617 223.025, 265.082 230, 265.621 230 C 267.113 230, 269 227.789, 269 226.039 C 269 224.371, 235.145 190, 233.501 190 C 232.963 190, 225.531 196.981, 216.986 205.514 L 201.450 221.028 186.046 205.514 C 177.574 196.981, 170.155 190, 169.560 190 C 168.965 190, 160.721 197.767, 151.239 207.260 M 39.571 223.571 C 38.707 224.436, 38 225.529, 38 226 C 38 227.111, 40.889 230, 42 230 C 43.111 230, 46 227.111, 46 226 C 46 224.889, 43.111 222, 42 222 C 41.529 222, 40.436 222.707, 39.571 223.571 " stroke="none" fill="black" fill-rule="evenodd"/>
</svg>