<svg xmlns="http://www.w3.org/2000/svg" width="148" height="324" viewBox="0 0 148 324" version="1.1">
	<path d="M 55.571 63.571 C 54.707 64.436, 54 65.317, 54 65.531 C 54 66.993, 71.421 100.653, 72.488 101.252 C 73.225 101.665, 74.440 101.768, 75.188 101.481 C 76.837 100.849, 93 68.755, 93 66.115 C 93 63.770, 90.710 61.790, 88.832 62.511 C 88.050 62.811, 84.520 68.894, 80.986 76.028 C 77.453 83.163, 74.306 89, 73.994 89 C 73.683 89, 70.969 83.984, 67.964 77.854 C 62.437 66.580, 59.559 62, 57.999 62 C 57.528 62, 56.436 62.707, 55.571 63.571 M 116.289 146.234 C 98.356 164.090, 95.763 166.321, 94.233 165.209 C 80.068 154.918, 59.708 156.914, 47.872 169.755 C 41.372 176.806, 38.612 183.943, 38.606 193.717 C 38.600 201.238, 38.915 202.548, 42.313 209.173 L 46.027 216.410 26.013 236.511 C 15.006 247.566, 6 257.117, 6 257.734 C 6 259.186, 8.814 262, 10.266 262 C 10.883 262, 20.509 252.919, 31.656 241.820 L 51.923 221.640 56.712 224.238 C 70.243 231.578, 86.932 229.170, 97.777 218.313 C 104.641 211.443, 107.285 205.408, 107.809 195.416 C 108.281 186.416, 107.205 181.699, 103.291 175.614 L 100.791 171.727 120.895 151.605 C 131.953 140.537, 141 130.789, 141 129.941 C 141 128.201, 139.105 126, 137.606 126 C 137.059 126, 127.466 135.105, 116.289 146.234 M 63.627 167.468 C 58.247 169.386, 53.039 173.829, 49.500 179.519 C 46.969 183.589, 46.444 185.570, 46.143 192.193 C 45.828 199.133, 46.104 200.691, 48.524 205.638 L 51.261 211.233 70.809 191.684 C 92.389 170.105, 92.135 170.597, 83.260 167.573 C 77.631 165.655, 68.846 165.608, 63.627 167.468 M 76.832 196.055 C 66.749 206.535, 58.359 215.509, 58.186 215.996 C 57.596 217.664, 64.405 220.263, 70.686 220.767 C 74.186 221.048, 78.850 220.742, 81.231 220.074 C 96.964 215.665, 105.454 197.109, 98.536 182.250 C 97.192 179.363, 95.883 177, 95.628 177 C 95.372 177, 86.914 185.575, 76.832 196.055 " stroke="none" fill="black" fill-rule="evenodd"/>
</svg>