<svg xmlns="http://www.w3.org/2000/svg" width="148" height="324" viewBox="0 0 148 324" version="1.1">
	<path d="M 55.571 63.571 C 54.707 64.436, 54 65.317, 54 65.531 C 54 66.993, 71.421 100.653, 72.488 101.252 C 73.225 101.665, 74.440 101.768, 75.188 101.481 C 76.837 100.849, 93 68.755, 93 66.115 C 93 63.770, 90.710 61.790, 88.832 62.511 C 88.050 62.811, 84.520 68.894, 80.986 76.028 C 77.453 83.163, 74.306 89, 73.994 89 C 73.683 89, 70.969 83.984, 67.964 77.854 C 62.437 66.580, 59.559 62, 57.999 62 C 57.528 62, 56.436 62.707, 55.571 63.571 M 63.870 127.024 C 48.685 129.381, 37.622 135.188, 25.974 146.916 C 12.475 160.507, 6.696 174.473, 6.696 193.500 C 6.696 212.834, 12.449 226.527, 26.461 240.539 C 40.492 254.570, 54.209 260.328, 73.500 260.283 C 85.677 260.254, 93.634 258.307, 104.500 252.697 C 114.958 247.297, 126.889 235.544, 132.264 225.348 C 142.612 205.720, 142.612 181.280, 132.264 161.652 C 124.401 146.736, 106.682 132.739, 90.500 128.660 C 82.568 126.661, 70.849 125.941, 63.870 127.024 M 58.159 135.569 C 37.914 141.015, 20.798 158.320, 15.487 178.711 C 13.543 186.176, 13.590 200.623, 15.585 208.356 C 20.886 228.903, 38.095 246.083, 58.731 251.430 C 66.366 253.409, 79.578 253.423, 87.897 251.463 C 97.403 249.222, 107.521 243.468, 115.087 236.001 C 138.900 212.500, 138.900 174.500, 115.087 150.999 C 107.714 143.722, 97.850 138.035, 88.356 135.585 C 80.745 133.622, 65.427 133.613, 58.159 135.569 M 55.282 159.282 C 45.777 168.787, 38 177.079, 38 177.710 C 38 179.196, 40.802 181.993, 42.321 182.024 C 42.970 182.037, 50.250 175.054, 58.500 166.505 L 73.500 150.962 88 165.546 C 95.975 173.567, 103.316 180.582, 104.314 181.135 C 106.584 182.392, 109.229 180.472, 108.798 177.880 C 108.459 175.836, 75.310 142, 73.648 142 C 73.052 142, 64.787 149.777, 55.282 159.282 " stroke="none" fill="black" fill-rule="evenodd"/>
</svg>