<svg xmlns="http://www.w3.org/2000/svg" width="436" height="324" viewBox="0 0 436 324" version="1.1">
	<path d="M 131.500 126.608 C 113.209 128.944, 100.065 135.651, 87.786 148.914 C 78.656 158.775, 71 175.414, 71 185.394 C 71 186.827, 70.772 188, 70.494 188 C 70.215 188, 56.508 181.257, 40.033 173.016 C 23.558 164.775, 9.420 158.285, 8.616 158.594 C 6.867 159.265, 5.875 161.512, 6.551 163.273 C 6.820 163.973, 21.018 171.510, 38.104 180.023 C 55.189 188.535, 69.580 196.258, 70.084 197.184 C 70.588 198.111, 71 200.071, 71 201.540 C 71 206.235, 74.025 216.278, 77.693 223.765 C 83.770 236.166, 97.436 249.159, 110.407 254.867 C 123.165 260.482, 140.978 261.984, 154 258.544 C 171.878 253.822, 188.967 240.031, 196.824 223.988 C 200.894 215.676, 204 205.850, 204 201.287 C 204 199.180, 206.530 200.259, 235.090 214.545 C 260.430 227.220, 266.449 229.872, 267.638 228.886 C 271.688 225.524, 269.458 223.983, 236.500 207.365 L 204.500 191.229 203.801 185.026 C 200.894 159.233, 179.674 134.976, 154.500 128.670 C 148.001 127.041, 136.311 125.994, 131.500 126.608 M 352.169 126.974 C 325.822 131.064, 304.712 149.393, 296.855 175 C 293.609 185.577, 293.609 201.423, 296.855 212 C 302.362 229.950, 314.508 244.588, 330.979 253.125 C 338.542 257.045, 348.701 260, 354.615 260 C 358.068 260, 359.483 261.152, 375.500 277 C 384.950 286.350, 393.113 294, 393.641 294 C 395.117 294, 397 291.778, 397 290.037 C 397 289.177, 390.699 282.185, 382.999 274.499 L 368.998 260.525 376.249 258.770 C 400.575 252.882, 419.980 234.039, 426.014 210.444 C 428.648 200.145, 428.648 186.855, 426.014 176.556 C 423.002 164.779, 417.769 155.793, 408.433 146.367 C 401.702 139.572, 398.802 137.472, 390.933 133.695 C 377.964 127.471, 364.264 125.096, 352.169 126.974 M 122.159 135.569 C 119.221 136.359, 113.821 138.467, 110.159 140.253 C 101.080 144.680, 88.645 157.064, 84.272 166.035 C 80.597 173.573, 78 182.754, 78 188.207 L 78 191.993 106 206 L 134 220.007 134 190.126 C 134 164.033, 134.202 160.078, 135.590 158.925 C 136.953 157.794, 141.386 159.707, 166.703 172.357 C 182.940 180.470, 196.409 186.924, 196.633 186.700 C 197.685 185.649, 194.420 174.663, 190.809 167.101 C 183.638 152.084, 168.631 139.784, 152.356 135.585 C 144.745 133.622, 129.427 133.613, 122.159 135.569 M 346.072 135.591 C 332.454 139.252, 319.030 149.097, 311.028 161.292 C 298.618 180.206, 298.618 206.794, 311.028 225.708 C 321.335 241.416, 340.836 253, 356.973 253 C 361.505 253, 361.591 252.934, 376.013 238.435 C 383.981 230.424, 391.316 223.418, 392.314 222.865 C 394.444 221.686, 397 223.319, 397 225.858 C 397 226.745, 391.488 233.032, 384.750 239.829 C 373.148 251.533, 372.685 252.152, 376 251.539 C 377.925 251.182, 383.263 249.068, 387.863 246.841 C 412.944 234.696, 426.029 205.984, 419.003 178.511 C 413.729 157.892, 396.810 140.862, 376.356 135.585 C 368.711 133.613, 353.418 133.616, 346.072 135.591 M 142 197.431 C 142 222.849, 141.786 227.071, 140.429 228.429 C 139.564 229.293, 138.633 230, 138.360 230 C 138.086 230, 124.349 223.219, 107.832 214.932 L 77.801 199.864 78.518 204.182 C 82.143 226.030, 100.546 245.740, 122.711 251.513 C 130.176 253.457, 144.623 253.410, 152.356 251.415 C 168.631 247.216, 183.638 234.916, 190.809 219.899 C 194.711 211.727, 197 203.702, 197 198.192 C 197 195.645, 195.352 194.660, 169.500 181.744 L 142 168.005 142 197.431 M 311.616 175.527 C 310.727 176.416, 310 177.609, 310 178.178 C 310 178.747, 313.226 182.540, 317.169 186.607 L 324.338 194 317.169 201.393 C 313.226 205.460, 310 209.253, 310 209.822 C 310 211.214, 313.021 214.164, 314.067 213.795 C 315.346 213.343, 334 194.819, 334 194 C 334 193.181, 315.346 174.657, 314.067 174.205 C 313.608 174.043, 312.505 174.638, 311.616 175.527 M 356.764 174.974 C 348.803 177.435, 342 185.971, 342 193.500 C 342 199.009, 346.651 206.711, 351.801 209.729 C 360.441 214.793, 369.754 212.872, 376.394 204.657 C 379.235 201.142, 379.500 200.191, 379.500 193.500 C 379.500 186.809, 379.235 185.858, 376.394 182.343 C 374.686 180.229, 371.986 177.756, 370.394 176.847 C 366.735 174.757, 360.317 173.875, 356.764 174.974 M 354.514 184.168 C 352.998 185.360, 351.115 187.874, 350.330 189.754 C 345.882 200.397, 360.850 210.304, 369.026 202.128 C 376.796 194.357, 372.212 182, 361.558 182 C 358.673 182, 356.368 182.709, 354.514 184.168 " stroke="none" fill="black" fill-rule="evenodd"/>
</svg>