<svg xmlns="http://www.w3.org/2000/svg" width="308" height="324" viewBox="0 0 308 324" version="1.1">
	<path d="M 39.571 127.571 C 38.176 128.966, 38 136.152, 38 191.571 L 38 254 23.571 254 C 11.788 254, 8.855 254.288, 7.571 255.571 C 5.595 257.548, 5.598 258.455, 7.585 260.442 C 8.978 261.835, 13.159 261.995, 42.226 261.763 C 72.452 261.523, 75.377 261.350, 76.386 259.750 C 77.190 258.475, 77.191 257.525, 76.387 256.250 C 75.433 254.736, 73.314 254.463, 60.643 254.223 L 46 253.947 46 191.545 C 46 136.149, 45.824 128.966, 44.429 127.571 C 43.564 126.707, 42.471 126, 42 126 C 41.529 126, 40.436 126.707, 39.571 127.571 M 135.230 159.285 C 116.953 177.591, 102 193.084, 102 193.713 C 102 194.955, 104.718 198, 105.827 198 C 106.204 198, 120.678 183.828, 137.993 166.507 L 169.474 135.015 201.023 166.507 C 218.375 183.828, 233.063 198, 233.664 198 C 235.295 198, 237.212 195.311, 236.833 193.554 C 236.425 191.664, 170.990 126, 169.515 126 C 168.935 126, 153.506 140.978, 135.230 159.285 M 273.684 132.250 C 260.654 150.686, 260.998 174.266, 274.541 191.128 L 278.053 195.500 277.896 227.418 C 277.753 256.612, 277.887 259.444, 279.467 260.600 C 281.822 262.321, 283.794 261.357, 285.541 257.629 C 286.347 255.908, 288.548 252.071, 290.432 249.103 C 295.177 241.625, 297.407 231.920, 296.741 221.642 C 296.148 212.501, 293.725 205.438, 288.458 197.502 L 285 192.293 285 160.346 C 285 126.590, 284.920 126, 280.351 126 C 278.729 126, 276.868 127.745, 273.684 132.250 M 275.037 144.135 C 269.957 155.944, 270.138 168.827, 275.526 179 L 277.910 183.500 277.955 161.250 C 277.980 149.012, 277.830 139, 277.623 139 C 277.416 139, 276.252 141.311, 275.037 144.135 M 285.071 225 C 285.071 241.397, 285.230 243.216, 286.474 241 C 289.224 236.098, 290.433 225.622, 289.098 218.250 C 288.426 214.537, 287.245 210.375, 286.474 209 C 285.230 206.784, 285.071 208.603, 285.071 225 " stroke="none" fill="black" fill-rule="evenodd"/>
</svg>