<svg xmlns="http://www.w3.org/2000/svg" width="308" height="324" viewBox="0 0 308 324" version="1.1">
	<path d="M 230.807 127.250 C 229.813 128.039, 229.001 130.897, 228.604 135 C 226.674 154.967, 214.165 173.634, 196.935 182.260 C 188.740 186.363, 179.659 189, 173.724 189 C 168.894 189, 166 190.499, 166 193 C 166 196.326, 169.274 197.207, 177.417 196.075 C 197.296 193.310, 213.864 182.958, 224.959 166.370 L 230 158.832 230 209.381 C 230 259.428, 230.020 259.941, 232.064 261.034 C 236.995 263.673, 237 263.623, 237 209.794 L 237 159.832 242.129 167.500 C 253.303 184.207, 272.947 195.326, 292.864 196.216 C 298.031 196.447, 299.440 196.171, 300.358 194.750 C 302.606 191.274, 300.026 189.564, 291.395 188.811 C 277.279 187.578, 264.973 181.760, 255.024 171.616 C 244.881 161.275, 239.643 150.572, 237.892 136.613 C 236.611 126.394, 234.838 124.051, 230.807 127.250 M 7.579 255.564 C 6.710 256.432, 6 257.529, 6 258 C 6 258.471, 6.710 259.568, 7.579 260.436 C 8.990 261.847, 16.058 261.987, 74.220 261.757 C 134.934 261.517, 139.356 261.383, 140.386 259.750 C 141.191 258.474, 141.191 257.526, 140.386 256.250 C 139.356 254.617, 134.934 254.483, 74.220 254.243 C 16.058 254.013, 8.990 254.153, 7.579 255.564 M 39.571 287.571 C 38.707 288.436, 38 289.529, 38 290 C 38 291.111, 40.889 294, 42 294 C 43.111 294, 46 291.111, 46 290 C 46 288.889, 43.111 286, 42 286 C 41.529 286, 40.436 286.707, 39.571 287.571 M 103.616 287.527 C 102.727 288.416, 102 289.529, 102 290 C 102 291.389, 105.140 294.120, 106.295 293.735 C 108.395 293.035, 109.549 290.094, 108.423 288.310 C 106.905 285.902, 105.474 285.669, 103.616 287.527 " stroke="none" fill="black" fill-rule="evenodd"/>
</svg>