<svg xmlns="http://www.w3.org/2000/svg" width="340" height="324" viewBox="0 0 340 324" version="1.1">
	<path d="M 7.571 191.571 C 6.707 192.436, 6 193.640, 6 194.249 C 6 194.857, 12.844 202.250, 21.208 210.677 L 36.416 226 21.208 241.323 C 12.844 249.750, 6 257.143, 6 257.751 C 6 259.181, 8.819 262, 10.249 262 C 10.857 262, 18.250 255.156, 26.677 246.792 L 42 231.584 57.323 246.792 C 65.750 255.156, 73.143 262, 73.751 262 C 75.181 262, 78 259.181, 78 257.751 C 78 257.143, 71.156 249.750, 62.792 241.323 L 47.584 226 62.792 210.677 C 71.156 202.250, 78 194.857, 78 194.249 C 78 192.819, 75.181 190, 73.751 190 C 73.143 190, 65.750 196.844, 57.323 205.208 L 42 220.416 26.677 205.208 C 18.250 196.844, 10.857 190, 10.249 190 C 9.640 190, 8.436 190.707, 7.571 191.571 M 103.571 191.571 C 102.707 192.436, 102 193.640, 102 194.249 C 102 194.857, 108.844 202.250, 117.208 210.677 L 132.416 226 117.208 241.323 C 108.844 249.750, 102 257.143, 102 257.751 C 102 259.181, 104.819 262, 106.249 262 C 106.857 262, 114.250 255.156, 122.677 246.792 L 138 231.584 153.323 246.792 C 161.750 255.156, 169.085 262, 169.623 262 C 171.262 262, 173 259.716, 173 257.562 C 173 256.272, 167.595 250.111, 158.263 240.762 L 143.525 226 158.263 211.238 C 167.595 201.889, 173 195.728, 173 194.438 C 173 192.284, 171.262 190, 169.623 190 C 169.085 190, 161.750 196.844, 153.323 205.208 L 138 220.416 122.677 205.208 C 114.250 196.844, 106.857 190, 106.249 190 C 105.640 190, 104.436 190.707, 103.571 191.571 M 224.067 239.091 C 216.845 240.348, 205.510 245.979, 200.250 250.924 C 195.704 255.198, 195.097 257.006, 197.530 259.025 C 199.407 260.583, 201.377 259.674, 208.500 253.964 C 215.611 248.263, 224.713 245.629, 235.374 246.189 C 246.596 246.778, 254.388 250.446, 263.072 259.230 C 274.304 270.591, 288.429 275.388, 303.614 272.998 C 315.858 271.072, 332.513 261.467, 331.805 256.740 C 331.178 252.551, 328.558 252.409, 323.803 256.305 C 316.517 262.276, 308.710 265.317, 299.409 265.807 C 285.975 266.516, 275.819 262.549, 267.766 253.449 C 257.917 242.319, 239.772 236.357, 224.067 239.091 " stroke="none" fill="black" fill-rule="evenodd"/>
</svg>