<svg xmlns="http://www.w3.org/2000/svg" width="372" height="324" viewBox="0 0 372 324" version="1.1">
	<path d="M 40.372 62.765 C 38.418 64.037, 22.003 97.844, 22.593 99.381 C 23.268 101.141, 25.513 102.124, 27.295 101.440 C 28.007 101.167, 31.480 95.106, 35.014 87.972 C 38.547 80.837, 41.691 75, 42 75 C 42.309 75, 45.453 80.837, 48.986 87.972 C 52.520 95.106, 55.993 101.167, 56.705 101.440 C 58.487 102.124, 60.732 101.141, 61.407 99.381 C 61.716 98.575, 58.096 90.173, 53.363 80.708 C 45.638 65.261, 43.672 62.031, 42 62.031 C 41.725 62.031, 40.992 62.361, 40.372 62.765 M 224.500 126.944 C 208.464 129.540, 198.190 134.822, 186.461 146.500 C 179.435 153.496, 176.611 157.170, 173.778 163 C 167.648 175.615, 164.334 193.191, 167.491 196.348 C 169.547 198.404, 170.439 198.418, 172.429 196.429 C 173.404 195.453, 174.006 193.082, 174.015 190.179 C 174.074 171.373, 187.719 150.014, 205.603 140.732 C 218.233 134.177, 233.941 132.248, 247.897 135.537 C 272.441 141.323, 292.909 166.127, 292.985 190.179 C 293.011 198.191, 292.245 198, 324.274 198 L 352.405 198 339.202 211.333 C 331.941 218.666, 326 225.159, 326 225.761 C 326 227.187, 328.825 230, 330.257 230 C 332.006 230, 366 195.761, 366 194 C 366 192.239, 332.006 158, 330.257 158 C 328.825 158, 326 160.813, 326 162.239 C 326 162.841, 331.949 169.342, 339.219 176.684 L 352.439 190.035 326.469 189.767 L 300.500 189.500 299.873 184.500 C 297.990 169.480, 292.282 158.283, 280.500 146.498 C 270.714 136.709, 262.051 131.547, 250.500 128.622 C 242.819 126.677, 230.903 125.908, 224.500 126.944 M 119.282 175.282 C 109.777 184.787, 102 193.210, 102 194 C 102 195.693, 136.031 230, 137.710 230 C 139.173 230, 142 227.200, 142 225.751 C 142 225.143, 135.156 217.750, 126.792 209.323 L 111.584 194 126.792 178.677 C 135.156 170.250, 142 162.857, 142 162.249 C 142 160.800, 139.173 158, 137.710 158 C 137.079 158, 128.787 165.777, 119.282 175.282 M 40.370 190.765 C 38.401 192.045, 6.007 257.855, 6.594 259.384 C 7.265 261.133, 9.512 262.124, 11.274 261.448 C 11.975 261.180, 19.056 247.919, 27.010 231.980 C 34.964 216.041, 41.710 203, 42 203 C 42.290 203, 49.036 216.041, 56.990 231.980 C 64.944 247.919, 72.025 261.180, 72.726 261.448 C 74.488 262.124, 76.735 261.133, 77.406 259.384 C 77.993 257.855, 45.599 192.045, 43.630 190.765 C 43.009 190.361, 42.275 190.031, 42 190.031 C 41.725 190.031, 40.991 190.361, 40.370 190.765 " stroke="none" fill="black" fill-rule="evenodd"/>
</svg>