<svg xmlns="http://www.w3.org/2000/svg" width="308" height="324" viewBox="0 0 308 324" version="1.1">
	<path d="M 151.750 63.080 C 150.787 63.641, 150 64.757, 150 65.561 C 150 67.454, 166.603 100.636, 167.974 101.484 C 170.685 103.159, 172.956 100.143, 180.760 84.501 C 185.292 75.417, 189 67.143, 189 66.115 C 189 63.642, 186.675 61.804, 184.569 62.612 C 183.643 62.967, 179.930 69.156, 176.318 76.363 L 169.751 89.469 163.767 77.484 C 158.136 66.205, 155.479 61.960, 154.095 62.030 C 153.768 62.047, 152.713 62.519, 151.750 63.080 M 23.213 143.315 C 13.746 152.838, 6 161.131, 6 161.743 C 6 163.175, 8.813 166, 10.239 166 C 10.841 166, 17.334 160.059, 24.667 152.798 L 38 139.595 38 199.675 C 38 263.846, 37.943 263.105, 42.742 261.582 C 45.830 260.602, 77 228.574, 77 226.381 C 77 224.281, 75.247 222, 73.633 222 C 73.101 222, 66.666 227.941, 59.333 235.202 L 46 248.405 46 188.774 C 46 135.897, 45.822 128.965, 44.429 127.571 C 43.564 126.707, 42.310 126, 41.641 126 C 40.972 126, 32.680 133.792, 23.213 143.315 M 159.536 127.055 C 142.549 129.693, 127.930 138.283, 116.779 152.178 C 110.868 159.543, 107.929 165.183, 104.874 175.025 C 101.604 185.556, 101.598 201.391, 104.858 212 C 110.466 230.246, 123.559 245.767, 140.219 253.917 C 149.402 258.409, 167.622 262.207, 173.823 260.921 C 193.276 256.888, 203.891 252.306, 213.383 243.847 C 224.572 233.874, 232.749 219.378, 235.155 205.250 L 236.390 198 262.431 198 L 288.472 198 275.236 211.263 C 267.956 218.558, 262 225.292, 262 226.228 C 262 227.164, 262.944 228.435, 264.097 229.052 C 266 230.070, 267.809 228.570, 283.597 212.875 C 293.169 203.360, 301 194.866, 301 194 C 301 193.134, 293.169 184.640, 283.597 175.125 C 267.809 159.430, 266 157.930, 264.097 158.948 C 262.944 159.565, 262 160.836, 262 161.772 C 262 162.708, 267.956 169.442, 275.236 176.737 L 288.472 190 262.462 190 L 236.451 190 235.254 182.477 C 232.950 167.998, 224.789 153.352, 213.268 143.019 C 207.157 137.538, 192.777 129.982, 185 128.165 C 178.082 126.548, 166.148 126.028, 159.536 127.055 M 154.072 135.591 C 140.454 139.252, 127.030 149.097, 119.028 161.292 C 107.411 178.998, 106.662 204.225, 117.203 222.808 C 121.161 229.786, 129.754 238.979, 136.516 243.467 C 143.279 247.956, 153.295 251.782, 160.499 252.629 L 166 253.275 166 193.638 L 166 134 162.750 134.066 C 160.963 134.102, 157.057 134.788, 154.072 135.591 M 173 162 L 173 190 201 190 C 222.743 190, 228.996 189.721, 228.983 188.750 C 228.925 184.609, 225.691 173.264, 223.050 167.941 C 216.578 154.898, 207.800 145.947, 195.713 140.066 C 189.337 136.964, 179.358 134, 175.290 134 L 173 134 173 162 M 173 225.500 L 173 253 175.290 253 C 179.379 253, 189.351 250.029, 195.807 246.888 C 212.591 238.720, 225.673 220.803, 228.399 202.250 L 229.024 198 201.012 198 L 173 198 173 225.500 " stroke="none" fill="black" fill-rule="evenodd"/>
</svg>