<svg xmlns="http://www.w3.org/2000/svg" width="212" height="324" viewBox="0 0 212 324" version="1.1">
	<path d="M 120.200 63.200 C 118.073 65.327, 118.857 67.698, 127.240 84.501 C 135.044 100.143, 137.315 103.159, 140.026 101.484 C 142.125 100.186, 158.094 66.872, 157.505 65.017 C 156.735 62.590, 154.106 61.667, 152.281 63.182 C 151.475 63.851, 148.005 70.006, 144.569 76.861 L 138.323 89.324 131.497 76.412 C 123.730 61.718, 122.786 60.614, 120.200 63.200 M 131 126.584 C 122.821 127.953, 116.906 129.457, 112.500 131.289 C 93.011 139.394, 77.836 156.722, 72.457 177.017 C 70.176 185.623, 70.176 201.377, 72.457 209.983 C 78.687 233.485, 97.426 252.233, 121.017 258.564 C 129.555 260.856, 145.324 260.896, 154 258.650 C 179.744 251.983, 198.494 231.573, 203.905 204.326 C 205.810 194.737, 205.839 193.651, 204.406 185.443 C 202.581 174.986, 200.769 169.340, 196.871 161.959 C 188.526 146.159, 171.786 132.870, 154.831 128.584 C 148.743 127.046, 135.090 125.900, 131 126.584 M 123.217 135.449 C 102.426 140.483, 84.949 158.085, 79.515 179.460 C 72.829 205.762, 86.590 235.105, 111.101 246.809 C 121.018 251.545, 127.332 253.005, 137.799 252.985 C 158.106 252.946, 176.762 242.792, 188.002 225.661 C 192.197 219.267, 197 206.077, 197 200.948 L 197 198 167.071 198 C 141.197 198, 136.930 197.787, 135.571 196.429 C 134.212 195.069, 134 190.758, 134 164.429 L 134 134 131.250 134.085 C 129.738 134.132, 126.123 134.746, 123.217 135.449 M 142 162 L 142 190 169.500 190 L 197 190 197 186.552 C 197 180.978, 192.363 167.985, 188.002 161.339 C 179.881 148.962, 166.382 139.227, 152.269 135.570 C 140.930 132.631, 142 129.877, 142 162 M 15.308 199.308 C 10.188 204.427, 6 209.120, 6 209.736 C 6 211.121, 8.789 214, 10.131 214 C 10.675 214, 13.568 211.685, 16.560 208.855 L 22 203.710 22 228.855 L 22 254 15.571 254 C 11.061 254, 8.674 254.469, 7.571 255.571 C 5.598 257.545, 5.598 258.455, 7.571 260.429 C 9.900 262.757, 42.100 262.757, 44.429 260.429 C 46.402 258.455, 46.402 257.545, 44.429 255.571 C 43.326 254.469, 40.939 254, 36.429 254 L 30 254 30 223.571 C 30 197.242, 29.788 192.931, 28.429 191.571 C 27.564 190.707, 26.353 190, 25.736 190 C 25.120 190, 20.427 194.188, 15.308 199.308 " stroke="none" fill="black" fill-rule="evenodd"/>
</svg>