<svg xmlns="http://www.w3.org/2000/svg" width="148" height="324" viewBox="0 0 148 324" version="1.1">
	<path d="M 55.571 63.571 C 54.707 64.436, 54 65.317, 54 65.531 C 54 66.316, 71.159 100.529, 71.965 101.349 C 74.275 103.702, 76.913 100.229, 84.760 84.501 C 93 67.984, 94.315 63.719, 91.500 62.638 C 88.441 61.465, 86.733 63.561, 80.318 76.364 L 73.750 89.470 67.252 76.485 C 59.693 61.381, 58.776 60.367, 55.571 63.571 M 7.571 127.571 C 6.175 128.968, 6 136.372, 6 194 C 6 251.628, 6.175 259.032, 7.571 260.429 C 8.968 261.825, 16.343 261.998, 73.821 261.985 C 109.395 261.976, 139.081 261.601, 139.792 261.150 C 140.827 260.493, 141.071 247.248, 141.021 194.431 C 140.955 123.627, 141.005 124.321, 136.117 126.938 L 134 128.070 134 191.035 L 134 254 74 254 L 14 254 14 191.571 C 14 136.152, 13.824 128.966, 12.429 127.571 C 11.564 126.707, 10.471 126, 10 126 C 9.529 126, 8.436 126.707, 7.571 127.571 " stroke="none" fill="black" fill-rule="evenodd"/>
</svg>