<svg xmlns="http://www.w3.org/2000/svg" width="212" height="324" viewBox="0 0 212 324" version="1.1">
	<path d="M 130.473 133.076 C 126.638 136.968, 105.143 158.192, 82.706 180.241 L 41.912 220.329 26.633 205.165 C 18.230 196.824, 10.857 190, 10.249 190 C 8.819 190, 6 192.819, 6 194.249 C 6 194.857, 12.844 202.250, 21.208 210.677 L 36.416 226 21.208 241.323 C 12.844 249.750, 6 257.143, 6 257.751 C 6 259.181, 8.819 262, 10.249 262 C 10.857 262, 18.250 255.156, 26.677 246.792 L 42 231.584 57.323 246.792 C 65.750 255.156, 73.143 262, 73.751 262 C 75.181 262, 78 259.181, 78 257.751 C 78 257.143, 71.150 249.744, 62.778 241.309 L 47.556 225.972 94.778 178.712 C 120.750 152.718, 142 130.932, 142 130.297 C 142 129.035, 139.282 126, 138.152 126 C 137.764 126, 134.308 129.184, 130.473 133.076 M 179.605 130.307 C 177.664 132.675, 174.617 137.730, 172.835 141.539 C 170.139 147.299, 169.522 149.964, 169.168 157.368 C 168.503 171.271, 171.539 181.278, 179.640 191.888 L 183 196.288 183 224.710 C 183 243.501, 182.627 253.829, 181.898 255.191 C 180.983 256.900, 181.217 257.671, 183.273 259.727 C 185.361 261.816, 186.083 262.026, 187.875 261.067 C 189.044 260.441, 190 259.240, 190 258.398 C 190 257.556, 191.107 255.415, 192.460 253.641 C 199.654 244.210, 203.197 229.604, 201.165 217.755 C 199.826 209.947, 196.398 201.522, 192.460 196.359 L 190 193.133 190 160.767 C 190 136.926, 189.684 128.084, 188.800 127.200 C 186.422 124.822, 183.210 125.908, 179.605 130.307 M 180.634 141.750 C 178.041 146.782, 176 155.295, 176 161.076 C 176 167.151, 178.943 178.216, 181.436 181.514 C 182.785 183.299, 182.940 181.253, 182.968 161.250 C 182.986 149.012, 182.787 139, 182.526 139 C 182.265 139, 181.414 140.238, 180.634 141.750 M 190.163 225 C 190.163 241.676, 190.301 243.186, 191.557 240.317 C 195.054 232.332, 195.068 217.716, 191.586 209.755 C 190.289 206.789, 190.163 208.142, 190.163 225 " stroke="none" fill="black" fill-rule="evenodd"/>
</svg>