<svg xmlns="http://www.w3.org/2000/svg" width="340" height="324" viewBox="0 0 340 324" version="1.1">
	<path d="M 35.045 127.064 C 24.674 129.164, 14.828 136.537, 10.151 145.705 C 7.578 150.747, 5.616 161.395, 6.828 163.738 C 7.329 164.707, 8.525 169.100, 9.484 173.500 C 14.997 198.781, 28.030 222.125, 46.649 240.065 C 55.769 248.853, 71.103 260, 74.070 260 C 75.196 260, 77.778 258.733, 79.809 257.185 C 81.839 255.636, 87.009 251.747, 91.298 248.542 C 105.496 237.932, 118.913 221.497, 127.526 204.162 C 136.027 187.055, 141.511 165.812, 139.941 156.078 C 136.401 134.137, 113.568 120.988, 92.798 128.928 C 86.373 131.384, 78.359 138.062, 75.529 143.317 L 73.640 146.824 70.976 142.624 C 63.636 131.049, 48.255 124.389, 35.045 127.064 M 263.571 127.571 C 262.175 128.968, 262 136.413, 262 194.449 C 262 248.499, 262.236 259.951, 263.369 260.891 C 264.345 261.701, 274.290 261.952, 298.010 261.764 C 328.441 261.523, 331.377 261.351, 332.386 259.750 C 333.191 258.474, 333.191 257.526, 332.386 256.250 C 331.380 254.654, 328.542 254.477, 300.141 254.236 L 269 253.972 269 191.186 C 269 128.929, 268.859 126, 265.871 126 C 265.471 126, 264.436 126.707, 263.571 127.571 M 31.054 135.728 C 24.787 137.940, 17.726 145.297, 15.534 151.899 C 13.881 156.875, 13.875 157.704, 15.430 166.205 C 18.769 184.454, 25.331 200.650, 35.740 216.330 C 41.769 225.412, 57.344 241.046, 66.665 247.373 L 73.830 252.237 81.660 246.869 C 106.190 230.050, 125.148 201.197, 131.495 171.022 C 133.741 160.345, 133.447 156.214, 129.940 149.196 C 123.554 136.416, 109.612 130.846, 95.795 135.554 C 86.288 138.793, 78 149.539, 78 158.625 C 78 162.910, 76.115 166, 73.500 166 C 71.133 166, 69 162.970, 69 159.607 C 69 149.949, 60.912 138.862, 51.537 135.667 C 45.516 133.616, 36.964 133.641, 31.054 135.728 M 167.571 159.571 C 165.215 161.927, 165.215 210.073, 167.571 212.429 C 169.678 214.535, 170.598 214.412, 172.443 211.777 C 173.745 209.919, 174 205.701, 174 186 C 174 166.299, 173.745 162.081, 172.443 160.223 C 170.598 157.588, 169.678 157.465, 167.571 159.571 M 199.571 159.571 C 197.215 161.927, 197.215 210.073, 199.571 212.429 C 201.678 214.535, 202.598 214.412, 204.443 211.777 C 205.745 209.919, 206 205.701, 206 186 C 206 166.299, 205.745 162.081, 204.443 160.223 C 202.598 157.588, 201.678 157.465, 199.571 159.571 M 231.571 159.571 C 229.215 161.927, 229.215 210.073, 231.571 212.429 C 233.457 214.315, 234.219 214.381, 235.800 212.800 C 237.508 211.092, 237.508 160.908, 235.800 159.200 C 234.219 157.619, 233.457 157.685, 231.571 159.571 M 295.315 175.213 C 285.792 184.680, 278 193.134, 278 194 C 278 195.680, 311.953 230, 313.615 230 C 315.105 230, 317 227.795, 317 226.062 C 317 225.216, 310.143 217.656, 301.762 209.262 L 286.524 194 301.762 178.738 C 310.143 170.344, 317 162.784, 317 161.938 C 317 160.205, 315.105 158, 313.615 158 C 313.073 158, 304.838 165.746, 295.315 175.213 M 167.616 222.527 C 166.727 223.416, 166 224.529, 166 225 C 166 226.389, 169.140 229.120, 170.295 228.735 C 172.395 228.035, 173.549 225.094, 172.423 223.310 C 170.905 220.902, 169.474 220.669, 167.616 222.527 M 199.616 222.527 C 198.727 223.416, 198 224.529, 198 225 C 198 226.389, 201.140 229.120, 202.295 228.735 C 204.395 228.035, 205.549 225.094, 204.423 223.310 C 202.905 220.902, 201.474 220.669, 199.616 222.527 M 231.616 222.527 C 230.727 223.416, 230 224.529, 230 225 C 230 226.389, 233.140 229.120, 234.295 228.735 C 236.395 228.035, 237.549 225.094, 236.423 223.310 C 234.905 220.902, 233.474 220.669, 231.616 222.527 " stroke="none" fill="black" fill-rule="evenodd"/>
</svg>