<svg xmlns="http://www.w3.org/2000/svg" width="372" height="324" viewBox="0 0 372 324" version="1.1">
	<path d="M 7.627 127.515 C 5.597 129.546, 5.587 130.444, 7.571 132.429 C 8.538 133.395, 10.888 134, 13.677 134 C 41.107 134, 69 162.439, 69 190.407 C 69 195.400, 68.167 197.689, 61.515 210.970 C 54.288 225.399, 53.532 228.223, 56.577 229.391 C 59.364 230.461, 60.668 228.784, 67.014 215.972 C 70.547 208.837, 73.691 203, 74 203 C 74.309 203, 77.453 208.837, 80.986 215.972 C 87.332 228.784, 88.636 230.461, 91.423 229.391 C 94.488 228.215, 93.685 225.347, 85.985 209.970 C 77.126 192.278, 76.658 189.989, 79.585 178.644 C 85.896 154.185, 110.418 134, 133.823 134 C 138.568 134, 142 132.321, 142 130 C 142 128.528, 138.937 125.999, 137.179 126.020 C 132.623 126.074, 121.256 128.229, 115.716 130.089 C 98.809 135.766, 82.230 151.263, 75.581 167.607 L 73.395 172.980 72.076 169.240 C 69.888 163.032, 63.925 153.845, 58.049 147.630 C 46.282 135.182, 32.832 128.611, 14.877 126.537 C 10.402 126.020, 8.923 126.220, 7.627 127.515 M 232.369 126.765 C 231.416 127.384, 166 257.155, 166 258.426 C 166 258.663, 166.707 259.564, 167.571 260.429 C 168.936 261.793, 173.463 262, 202 262 C 230.537 262, 235.064 261.793, 236.429 260.429 C 237.293 259.564, 238 258.471, 238 258 C 238 257.529, 237.293 256.436, 236.429 255.571 C 235.071 254.214, 230.849 254, 205.430 254 L 176.002 254 204.747 196.500 C 220.557 164.875, 233.722 139, 234.003 139 C 234.284 139, 248.010 166.059, 264.507 199.131 C 281.003 232.204, 295.095 259.879, 295.821 260.631 C 296.887 261.735, 303.506 262, 330 262 C 358.537 262, 363.064 261.793, 364.429 260.429 C 366.402 258.455, 366.402 257.545, 364.429 255.571 C 363.067 254.210, 358.667 254, 331.430 254 L 300.003 254 268.383 190.750 C 239.939 133.854, 235.783 126.031, 234 126.031 C 233.725 126.031, 232.991 126.361, 232.369 126.765 " stroke="none" fill="black" fill-rule="evenodd"/>
</svg>