<svg xmlns="http://www.w3.org/2000/svg" width="84" height="324" viewBox="0 0 84 324" version="1.1">
	<path d="M 7.571 127.571 C 6.175 128.968, 6 136.372, 6 194 C 6 251.628, 6.175 259.032, 7.571 260.429 C 8.436 261.293, 9.529 262, 10 262 C 10.471 262, 11.564 261.293, 12.429 260.429 C 13.825 259.032, 14 251.628, 14 194 C 14 136.372, 13.825 128.968, 12.429 127.571 C 11.564 126.707, 10.471 126, 10 126 C 9.529 126, 8.436 126.707, 7.571 127.571 M 52.764 190.952 C 45.186 193.355, 39.955 199.277, 38.503 207.096 C 37.855 210.586, 39.585 214, 42 214 C 43.861 214, 46 210.700, 46 207.829 C 46 205.718, 47.030 203.770, 49.400 201.400 C 52.302 198.498, 53.488 198, 57.500 198 C 61.512 198, 62.698 198.498, 65.600 201.400 C 71.296 207.096, 70.903 208.183, 53.941 233.589 C 45.658 245.994, 38.657 256.729, 38.383 257.443 C 38.109 258.158, 38.618 259.475, 39.514 260.371 C 41.895 262.753, 74.054 262.803, 76.429 260.429 C 78.402 258.455, 78.402 257.545, 76.429 255.571 C 75.162 254.305, 72.348 254, 61.926 254 L 48.995 254 63.477 232.250 L 77.960 210.500 76.402 206 C 75.546 203.525, 74.002 200.133, 72.972 198.462 C 69.448 192.747, 59.161 188.924, 52.764 190.952 " stroke="none" fill="black" fill-rule="evenodd"/>
</svg>