<svg xmlns="http://www.w3.org/2000/svg" width="308" height="324" viewBox="0 0 308 324" version="1.1">
	<path d="M 135.571 127.571 C 134.175 128.968, 134 136.413, 134 194.449 C 134 248.499, 134.236 259.951, 135.369 260.891 C 136.345 261.701, 146.290 261.952, 170.010 261.764 C 200.441 261.523, 203.377 261.351, 204.386 259.750 C 205.191 258.474, 205.191 257.526, 204.386 256.250 C 203.380 254.654, 200.542 254.477, 172.141 254.236 L 141 253.972 141 191.186 C 141 128.929, 140.859 126, 137.871 126 C 137.471 126, 136.436 126.707, 135.571 127.571 M 33.972 159.329 C 15.771 163.347, 3.510 181.552, 6.987 199.396 C 11.307 221.570, 33.425 234.026, 54.339 226.063 C 56.550 225.221, 58.212 225.343, 61.839 226.613 C 73.842 230.815, 88.255 227.588, 97.353 218.661 C 105.450 210.714, 107.500 205.633, 107.500 193.500 C 107.500 181.367, 105.450 176.286, 97.353 168.339 C 88.262 159.419, 73.677 156.133, 61.871 160.345 C 57.824 161.790, 56.754 161.825, 53.351 160.624 C 47.281 158.482, 40.010 157.996, 33.972 159.329 M 167.315 175.213 C 157.792 184.680, 150 193.134, 150 194 C 150 195.680, 183.953 230, 185.615 230 C 187.105 230, 189 227.795, 189 226.062 C 189 225.216, 182.143 217.656, 173.762 209.262 L 158.524 194 173.762 178.738 C 182.143 170.344, 189 162.784, 189 161.938 C 189 160.205, 187.105 158, 185.615 158 C 185.073 158, 176.838 165.746, 167.315 175.213 M 258.355 158.998 C 248.059 161.139, 238.075 169.076, 233.205 178.993 C 230.873 183.740, 230.500 185.743, 230.500 193.500 C 230.500 201.257, 230.873 203.260, 233.205 208.007 C 239.233 220.282, 251.471 228.274, 264.412 228.388 C 292.916 228.638, 309.719 197.546, 293.948 173.736 C 286.696 162.787, 271.130 156.342, 258.355 158.998 M 31.627 167.468 C 26.247 169.386, 21.039 173.829, 17.500 179.519 C 14.741 183.955, 14.500 185.073, 14.500 193.422 C 14.500 201.524, 14.796 203.003, 17.249 207.176 C 22.469 216.057, 31.176 221, 41.596 221 C 49.848 221, 50.554 220.395, 47.013 216.362 C 35.571 203.330, 35.571 183.670, 47.013 170.638 C 49.516 167.787, 49.750 167.118, 48.425 166.610 C 45.620 165.533, 35.622 166.044, 31.627 167.468 M 66.313 166.641 C 65.556 166.950, 66.553 169.007, 69.060 172.312 C 74.043 178.884, 76.125 185.126, 76.125 193.500 C 76.125 201.869, 74.044 208.116, 69.072 214.672 C 65.964 218.770, 65.462 219.963, 66.656 220.422 C 69.184 221.392, 79.306 220.919, 82.684 219.674 C 93.521 215.679, 101 204.991, 101 193.500 C 101 182.038, 93.486 171.200, 82.965 167.488 C 78.997 166.088, 68.929 165.576, 66.313 166.641 M 253.500 168.353 C 247.873 170.979, 241.871 177.089, 239.378 182.728 C 237.161 187.744, 237.161 199.256, 239.378 204.272 C 245.620 218.394, 262.797 225.033, 276.538 218.634 C 285.789 214.327, 293 203.316, 293 193.500 C 293 183.684, 285.789 172.673, 276.538 168.366 C 269.625 165.146, 260.382 165.141, 253.500 168.353 M 52.972 174.685 C 47.925 180.432, 46.047 185.532, 46.022 193.554 C 45.997 201.531, 48.749 208.469, 53.891 213.396 C 56.327 215.729, 57.130 216.001, 58.861 215.075 C 61.555 213.633, 66.377 206.523, 67.966 201.651 C 69.606 196.621, 68.882 186.523, 66.533 181.650 C 64.508 177.450, 58.878 171, 57.236 171 C 56.670 171, 54.751 172.658, 52.972 174.685 " stroke="none" fill="black" fill-rule="evenodd"/>
</svg>