<svg xmlns="http://www.w3.org/2000/svg" width="244" height="324" viewBox="0 0 244 324" version="1.1">
	<path d="M 198.590 128.250 C 197.790 129.488, 190.106 144.692, 181.517 162.037 C 171.752 181.756, 166.134 194.187, 166.527 195.209 C 167.398 197.481, 169.967 198.273, 171.726 196.813 C 172.535 196.141, 179.622 182.749, 187.474 167.052 L 201.750 138.514 216.313 167.626 C 224.486 183.965, 231.617 197.023, 232.565 197.386 C 234.679 198.198, 237 196.358, 237 193.871 C 237 191.637, 205.272 127.833, 203.630 126.765 C 201.649 125.477, 200.087 125.938, 198.590 128.250 M 71.527 159.615 C 67.961 163.182, 72.653 177.414, 80.038 185.425 L 84.255 190 46.699 190 C 13.890 190, 8.944 190.199, 7.571 191.571 C 5.598 193.545, 5.598 194.455, 7.571 196.429 C 8.844 197.701, 11.697 198, 22.575 198 L 36.006 198 21.020 227.961 C 12.777 244.439, 6.285 258.580, 6.594 259.384 C 7.265 261.133, 9.512 262.125, 11.274 261.448 C 11.975 261.180, 19.056 247.919, 27.010 231.980 C 34.964 216.041, 41.717 203, 42.016 203 C 42.315 203, 49.042 216.034, 56.965 231.964 C 64.888 247.894, 71.962 261.155, 72.685 261.433 C 73.408 261.710, 74.573 261.717, 75.274 261.448 C 75.975 261.180, 83.056 247.919, 91.010 231.980 C 98.964 216.041, 105.710 203, 106 203 C 106.290 203, 113.036 216.041, 120.990 231.980 C 128.944 247.919, 136.083 261.201, 136.853 261.497 C 138.718 262.213, 141 260.217, 141 257.871 C 141 256.835, 134.480 242.952, 126.511 227.021 L 112.021 198.056 125.653 197.778 C 137.361 197.539, 139.441 197.253, 140.388 195.750 C 142.478 192.431, 139.987 190.534, 133.104 190.201 L 126.916 189.902 130.911 185.364 C 133.109 182.867, 135.910 178.751, 137.137 176.217 C 140.852 168.544, 140.743 158, 136.949 158 C 135.079 158, 133 161.376, 133 164.412 C 133 169.239, 127.520 179.420, 122.992 183.006 C 111.475 192.128, 93.617 190.628, 84.451 179.770 C 80.654 175.272, 78.048 169.212, 78.022 164.821 C 78.002 161.403, 75.995 158, 74 158 C 73.529 158, 72.416 158.727, 71.527 159.615 M 198.590 192.250 C 197.790 193.488, 190.106 208.692, 181.517 226.037 C 171.752 245.756, 166.134 258.187, 166.527 259.209 C 167.398 261.481, 169.967 262.273, 171.726 260.813 C 172.535 260.141, 179.622 246.749, 187.474 231.052 L 201.750 202.514 216.313 231.626 C 224.486 247.965, 231.617 261.023, 232.565 261.386 C 234.679 262.198, 237 260.358, 237 257.871 C 237 255.637, 205.272 191.833, 203.630 190.765 C 201.649 189.477, 200.087 189.938, 198.590 192.250 M 60.743 223.500 C 67.750 237.525, 73.715 249, 74 249 C 74.285 249, 80.250 237.525, 87.257 223.500 L 99.995 198 74 198 L 48.005 198 60.743 223.500 " stroke="none" fill="black" fill-rule="evenodd"/>
</svg>