<svg xmlns="http://www.w3.org/2000/svg" width="276" height="324" viewBox="0 0 276 324" version="1.1">
	<path d="M 35.045 127.092 C 24.744 129.112, 14.837 136.518, 10.151 145.705 C 7.578 150.747, 5.616 161.395, 6.828 163.738 C 7.329 164.707, 8.525 169.100, 9.484 173.500 C 15.002 198.806, 28.176 222.394, 46.651 240.044 C 55.999 248.975, 71.173 260, 74.117 260 C 77.343 260, 97.892 244.006, 106.315 234.940 C 123.254 216.706, 134.286 194.893, 139.417 169.483 C 140.690 163.183, 140.816 160.292, 140.004 155.983 C 135.594 132.555, 112.327 120.242, 90.616 129.845 C 85.222 132.232, 79.372 137.363, 76.005 142.662 L 73.360 146.824 71.503 143.377 C 69.181 139.064, 62.418 132.764, 57.318 130.162 C 55.183 129.073, 50.781 127.691, 47.535 127.091 C 40.969 125.877, 41.243 125.877, 35.045 127.092 M 31.054 135.728 C 24.820 137.929, 17.726 145.300, 15.557 151.828 C 14.045 156.381, 13.979 157.954, 15.032 164.270 C 20.746 198.525, 39.651 228.764, 67.165 247.660 L 73.830 252.237 81.654 246.869 C 91.636 240.019, 104.997 226.670, 111.815 216.732 C 122.428 201.263, 131.249 178.930, 132.635 164.020 C 134.570 143.192, 115.675 128.780, 95.463 135.667 C 86.088 138.862, 78 149.949, 78 159.607 C 78 162.970, 75.867 166, 73.500 166 C 71.133 166, 69 162.970, 69 159.607 C 69 149.949, 60.912 138.862, 51.537 135.667 C 45.516 133.616, 36.964 133.641, 31.054 135.728 M 167.267 223.267 C 148.970 241.563, 134 257.056, 134 257.695 C 134 259.187, 136.799 262, 138.285 262 C 138.913 262, 153.506 247.947, 170.713 230.771 L 202 199.542 233.287 230.771 C 250.494 247.947, 265.087 262, 265.715 262 C 266.343 262, 267.564 261.293, 268.429 260.429 C 269.793 259.064, 270 254.537, 270 226 C 270 197.463, 269.793 192.936, 268.429 191.571 C 266.455 189.598, 265.545 189.598, 263.571 191.571 C 262.219 192.924, 262 196.990, 262 220.799 L 262 248.455 232.711 219.227 C 216.602 203.152, 202.772 190, 201.978 190 C 201.183 190, 185.563 204.970, 167.267 223.267 " stroke="none" fill="black" fill-rule="evenodd"/>
</svg>