<svg xmlns="http://www.w3.org/2000/svg" width="436" height="324" viewBox="0 0 436 324" version="1.1">
	<path d="M 71.240 191.268 C 35.358 227.165, 6 257.058, 6 257.696 C 6 259.196, 8.803 262, 10.302 262 C 10.940 262, 39.033 234.442, 72.731 200.761 L 134 139.522 134 164.761 L 134 190 119.200 190 C 109.022 190, 104.025 190.375, 103.200 191.200 C 101.481 192.919, 101.481 259.081, 103.200 260.800 C 104.085 261.685, 113.117 262, 137.629 262 C 166.503 262, 171.063 261.794, 172.429 260.429 C 173.793 259.064, 174 254.537, 174 226 C 174 197.463, 173.793 192.936, 172.429 191.571 C 171.145 190.288, 168.212 190, 156.429 190 L 142 190 142 159.571 C 142 133.242, 141.788 128.931, 140.429 127.571 C 139.564 126.707, 138.322 126, 137.668 126 C 137.014 126, 107.121 155.371, 71.240 191.268 M 226.355 158.986 C 215.790 161.214, 206.114 169.146, 201.329 179.500 C 197.350 188.111, 197.383 198.888, 201.417 207.734 C 204.868 215.303, 211.786 222.097, 219.762 225.749 C 227.442 229.264, 237.845 229.364, 246.493 226.003 C 254.707 222.811, 262.874 214.625, 265.893 206.557 C 268.893 198.539, 268.893 188.461, 265.893 180.443 C 260.319 165.546, 242.109 155.663, 226.355 158.986 M 223.385 167.617 C 208.729 172.815, 201.477 191.530, 208.588 205.801 C 219.799 228.298, 253.531 224.930, 260.098 200.657 C 263.721 187.265, 255.838 172.176, 242.684 167.326 C 238.298 165.709, 228.343 165.859, 223.385 167.617 M 319.712 175.084 C 312.833 176.485, 304.404 180.445, 298.336 185.127 C 292.423 189.689, 291.008 192.436, 293.360 194.789 C 295.262 196.691, 297.104 195.893, 304.500 189.964 C 311.611 184.263, 320.713 181.629, 331.374 182.189 C 342.658 182.781, 350.390 186.441, 359.159 195.340 C 370.658 207.010, 385.925 211.835, 401.382 208.682 C 413.812 206.148, 428.487 197.293, 427.805 192.740 C 427.161 188.438, 424.629 188.460, 418.858 192.818 C 410.432 199.179, 404.784 201.302, 395 201.786 C 381.696 202.444, 371.965 198.588, 363.766 189.409 C 353.735 178.180, 334.775 172.015, 319.712 175.084 M 231.571 191.571 C 230.707 192.436, 230 193.529, 230 194 C 230 194.471, 230.707 195.564, 231.571 196.429 C 232.436 197.293, 233.529 198, 234 198 C 234.471 198, 235.564 197.293, 236.429 196.429 C 237.293 195.564, 238 194.471, 238 194 C 238 193.529, 237.293 192.436, 236.429 191.571 C 235.564 190.707, 234.471 190, 234 190 C 233.529 190, 232.436 190.707, 231.571 191.571 M 110 226 L 110 254 138 254 L 166 254 166 226 L 166 198 138 198 L 110 198 110 226 M 199.585 255.558 C 198.713 256.430, 198 257.529, 198 258 C 198 258.471, 198.713 259.570, 199.585 260.442 C 200.978 261.835, 205.159 261.995, 234.226 261.763 C 264.452 261.523, 267.377 261.350, 268.386 259.750 C 269.191 258.474, 269.191 257.526, 268.386 256.250 C 267.377 254.650, 264.452 254.477, 234.226 254.237 C 205.159 254.005, 200.978 254.165, 199.585 255.558 " stroke="none" fill="black" fill-rule="evenodd"/>
</svg>