<svg xmlns="http://www.w3.org/2000/svg" width="52" height="324" viewBox="0 0 52 324" version="1.1">
	<path d="M 7.750 63.080 C 6.186 63.991, 6 66.007, 6 82.015 C 6 98.703, 6.132 100, 7.934 100.965 C 10.250 102.204, 41.900 102.350, 43.823 101.130 C 45.743 99.913, 45.743 64.087, 43.823 62.870 C 41.923 61.665, 9.859 61.852, 7.750 63.080 M 14 82 L 14 94 26 94 L 38 94 38 82 L 38 70 26 70 L 14 70 14 82 M 20.764 190.996 C 13.281 193.249, 7.958 199.258, 6.503 207.096 C 5.855 210.586, 7.585 214, 10 214 C 11.861 214, 14 210.700, 14 207.829 C 14 205.718, 15.030 203.770, 17.400 201.400 C 20.231 198.569, 21.533 198, 25.177 198 C 27.585 198, 30.558 198.702, 31.783 199.561 C 34.328 201.343, 37.005 206.042, 36.990 208.700 C 36.985 209.690, 30.010 221.075, 21.491 234 C 12.972 246.925, 6.002 258.047, 6.001 258.715 C 5.999 261.423, 10.187 262.045, 26.622 261.774 C 41.221 261.534, 43.421 261.283, 44.387 259.750 C 45.190 258.475, 45.191 257.525, 44.388 256.250 C 43.445 254.753, 41.383 254.460, 30.151 254.221 L 17.015 253.942 31.008 232.988 C 38.703 221.464, 45 211.207, 45 210.196 C 45 205.877, 41.660 198.925, 37.992 195.612 C 32.651 190.786, 26.729 189.200, 20.764 190.996 " stroke="none" fill="black" fill-rule="evenodd"/>
</svg>