<svg xmlns="http://www.w3.org/2000/svg" width="340" height="324" viewBox="0 0 340 324" version="1.1">
	<path d="M 7.627 127.515 C 5.597 129.546, 5.587 130.444, 7.571 132.429 C 8.538 133.395, 10.888 134, 13.677 134 C 32.327 134, 53.964 148.577, 62.809 167.101 C 67.167 176.226, 69 183.322, 69 191.062 C 69 195.240, 67.816 198.390, 61.515 210.970 C 54.288 225.399, 53.532 228.223, 56.577 229.391 C 59.364 230.461, 60.668 228.784, 67.014 215.972 C 70.547 208.837, 73.691 203, 74 203 C 74.309 203, 77.453 208.837, 80.986 215.972 C 87.332 228.784, 88.636 230.461, 91.423 229.391 C 94.488 228.215, 93.685 225.347, 85.985 209.970 C 77.135 192.297, 76.657 189.970, 79.570 178.731 C 82.259 168.354, 87.568 159.201, 95.388 151.459 C 106.159 140.796, 117.758 135.353, 132.396 134.094 C 137.428 133.661, 139.589 133.027, 140.391 131.750 C 145.194 124.100, 124.288 125.337, 107.194 133.713 C 94.358 140.003, 80.994 154.300, 75.634 167.477 L 73.455 172.832 71.558 168.166 C 63.797 149.071, 45.991 133.542, 26.202 128.608 C 15.985 126.061, 9.466 125.677, 7.627 127.515 M 161.384 159.370 C 150.752 162.037, 142.004 169.445, 137.163 179.880 C 133.441 187.904, 133.452 199.118, 137.189 207.175 C 147.823 230.103, 176.384 235.724, 193.777 218.313 C 201.474 210.608, 203.500 205.439, 203.500 193.500 C 203.500 181.464, 201.483 176.393, 193.518 168.404 C 185.421 160.282, 172.371 156.613, 161.384 159.370 M 159.627 167.468 C 154.247 169.386, 149.039 173.829, 145.500 179.519 C 142.982 183.568, 142.444 185.582, 142.150 192.050 C 141.760 200.623, 143.420 205.822, 148.447 211.770 C 157.626 222.629, 175.475 224.128, 186.992 215.006 C 192.752 210.444, 197 201.316, 197 193.500 C 197 182.038, 189.486 171.200, 178.965 167.488 C 173.743 165.645, 164.766 165.636, 159.627 167.468 M 263.585 191.558 C 261.598 193.545, 261.595 194.452, 263.571 196.429 C 264.855 197.712, 267.788 198, 279.571 198 L 294 198 294 226 L 294 254 279.571 254 C 267.788 254, 264.855 254.288, 263.571 255.571 C 261.595 257.548, 261.598 258.455, 263.585 260.442 C 264.978 261.835, 269.159 261.995, 298.226 261.763 C 328.452 261.523, 331.377 261.350, 332.386 259.750 C 333.190 258.475, 333.191 257.525, 332.387 256.250 C 331.430 254.730, 329.291 254.464, 316.142 254.224 L 301 253.948 301 226 L 301 198.052 316.142 197.776 C 329.291 197.536, 331.430 197.270, 332.387 195.750 C 333.191 194.475, 333.190 193.525, 332.386 192.250 C 331.377 190.650, 328.452 190.477, 298.226 190.237 C 269.159 190.005, 264.978 190.165, 263.585 191.558 M 227.017 251.286 C 225.651 251.977, 224.102 253.768, 223.575 255.267 C 222.795 257.485, 223.039 258.562, 224.889 261.064 C 226.139 262.754, 226.919 264.768, 226.623 265.540 C 226.013 267.129, 228.476 270, 230.449 270 C 232.482 270, 234.229 267.317, 235.530 262.194 C 236.977 256.493, 235.916 252.738, 232.403 251.138 C 229.418 249.778, 230.031 249.761, 227.017 251.286 " stroke="none" fill="black" fill-rule="evenodd"/>
</svg>