<svg xmlns="http://www.w3.org/2000/svg" width="468" height="324" viewBox="0 0 468 324" version="1.1">
	<path d="M 103.571 95.571 C 102.219 96.924, 102 100.988, 102 124.774 L 102 152.405 88.667 139.202 C 81.334 131.941, 74.841 126, 74.239 126 C 72.813 126, 70 128.825, 70 130.257 C 70 132.006, 104.239 166, 106 166 C 107.761 166, 142 132.006, 142 130.257 C 142 128.825, 139.187 126, 137.761 126 C 137.159 126, 130.666 131.941, 123.333 139.202 L 110 152.405 110 124.774 C 110 100.988, 109.781 96.924, 108.429 95.571 C 107.564 94.707, 106.471 94, 106 94 C 105.529 94, 104.436 94.707, 103.571 95.571 M 258.344 126.991 C 244.860 129.822, 233.472 141.668, 230.910 155.531 C 230.025 160.316, 230.199 162.816, 232.003 171.241 C 237.819 198.405, 248.767 218.724, 268 238.051 C 277.663 247.762, 295.288 261, 298.553 261 C 299.214 261, 300.318 260.322, 301.005 259.494 C 301.693 258.666, 305.910 255.434, 310.378 252.312 C 332.614 236.775, 351.097 211.492, 359.309 185.381 C 363.733 171.313, 365.249 161.800, 364.077 155.460 C 361.973 144.076, 354.150 134.253, 343.175 129.216 C 335.165 125.539, 323.888 125.515, 315.954 129.157 C 309.265 132.227, 303.573 137.047, 300.005 142.662 L 297.360 146.824 295.503 143.377 C 292.873 138.492, 285.737 132.223, 279.675 129.472 C 273.777 126.794, 264.450 125.710, 258.344 126.991 M 407.213 143.315 C 397.746 152.838, 390 161.131, 390 161.743 C 390 163.175, 392.813 166, 394.239 166 C 394.841 166, 401.334 160.059, 408.667 152.798 L 422 139.595 422 199.226 C 422 252.103, 422.178 259.035, 423.571 260.429 C 424.436 261.293, 425.529 262, 426 262 C 426.471 262, 427.564 261.293, 428.429 260.429 C 429.822 259.035, 430 252.103, 430 199.226 L 430 139.595 443.333 152.798 C 450.666 160.059, 457.159 166, 457.761 166 C 459.187 166, 462 163.175, 462 161.743 C 462 159.994, 427.761 126, 426 126 C 425.134 126, 416.680 133.792, 407.213 143.315 M 255 135.824 C 248.840 138.118, 241.750 145.350, 239.667 151.463 C 237.533 157.727, 237.591 162.461, 239.930 173 C 246.408 202.194, 265.033 230.021, 289.341 246.825 C 298.132 252.902, 297.092 253.039, 308.866 244.266 C 332.377 226.749, 349.396 200.015, 355.495 171.022 C 358.370 157.357, 356.735 149.941, 349.125 142.128 C 341.539 134.341, 330.363 131.932, 319.500 135.745 C 309.948 139.098, 302 149.935, 302 159.607 C 302 162.970, 299.867 166, 297.500 166 C 295.133 166, 293 162.970, 293 159.607 C 293 150.076, 284.798 138.823, 275.556 135.674 C 269.402 133.577, 260.864 133.639, 255 135.824 M 39.571 159.571 C 38.707 160.436, 38 161.636, 38 162.239 C 38 162.841, 43.941 169.334, 51.202 176.667 L 64.405 190 36.774 190 C 12.988 190, 8.924 190.219, 7.571 191.571 C 5.598 193.545, 5.598 194.455, 7.571 196.429 C 8.924 197.781, 12.988 198, 36.774 198 L 64.405 198 51.202 211.333 C 43.941 218.666, 38 225.159, 38 225.761 C 38 227.187, 40.825 230, 42.257 230 C 44.006 230, 78 195.761, 78 194 C 78 192.239, 44.006 158, 42.257 158 C 41.644 158, 40.436 158.707, 39.571 159.571 M 151.315 175.213 C 141.792 184.680, 134 193.134, 134 194 C 134 195.761, 167.994 230, 169.743 230 C 171.175 230, 174 227.187, 174 225.761 C 174 225.159, 168.059 218.666, 160.798 211.333 L 147.595 198 175.226 198 C 199.012 198, 203.076 197.781, 204.429 196.429 C 206.402 194.455, 206.402 193.545, 204.429 191.571 C 203.076 190.219, 199.012 190, 175.226 190 L 147.595 190 160.798 176.667 C 168.059 169.334, 174 162.841, 174 162.239 C 174 160.813, 171.175 158, 169.743 158 C 169.131 158, 160.838 165.746, 151.315 175.213 M 87.213 239.315 C 77.746 248.838, 70 257.131, 70 257.743 C 70 259.175, 72.813 262, 74.239 262 C 74.841 262, 81.334 256.059, 88.667 248.798 L 102 235.595 102 263.226 C 102 287.012, 102.219 291.076, 103.571 292.429 C 104.436 293.293, 105.529 294, 106 294 C 106.471 294, 107.564 293.293, 108.429 292.429 C 109.781 291.076, 110 287.012, 110 263.226 L 110 235.595 123.333 248.798 C 130.666 256.059, 137.159 262, 137.761 262 C 139.187 262, 142 259.175, 142 257.743 C 142 255.994, 107.761 222, 106 222 C 105.134 222, 96.680 229.792, 87.213 239.315 " stroke="none" fill="black" fill-rule="evenodd"/>
</svg>