<svg xmlns="http://www.w3.org/2000/svg" width="212" height="324" viewBox="0 0 212 324" version="1.1">
	<path d="M 7.627 127.515 C 5.597 129.546, 5.587 130.444, 7.571 132.429 C 8.538 133.395, 10.888 134, 13.677 134 C 16.171 134, 20.976 134.713, 24.356 135.585 C 49.259 142.010, 69 166.170, 69 190.223 C 69 195.451, 68.250 197.522, 61.422 211.156 C 53.983 226.008, 53.878 226.323, 55.738 228.183 C 56.781 229.225, 58.299 229.823, 59.111 229.511 C 59.924 229.199, 63.480 223.106, 67.014 215.972 C 70.547 208.837, 73.692 203, 74.003 203 C 74.313 203, 77.252 208.432, 80.533 215.070 C 83.815 221.709, 87.222 227.795, 88.105 228.594 C 89.899 230.219, 92.551 229.612, 93.407 227.381 C 93.717 226.575, 90.376 218.740, 85.985 209.970 C 77.426 192.878, 76.987 191.021, 79.090 180.799 C 84.262 155.658, 109.656 134.092, 134.179 134.015 C 137.082 134.006, 139.453 133.404, 140.429 132.429 C 142.410 130.447, 142.403 129.546, 140.391 127.534 C 138.536 125.679, 130.826 126.125, 120.500 128.685 C 103.056 133.010, 85.937 147.066, 77.771 163.772 L 73.341 172.833 72.055 169.167 C 67.003 154.768, 51.266 138.330, 36.459 131.982 C 30.770 129.544, 22.210 127.384, 14.877 126.537 C 10.402 126.020, 8.923 126.220, 7.627 127.515 M 163.270 159.054 C 152.601 161.160, 142.766 168.715, 137.957 178.500 C 135.845 182.799, 135.500 184.903, 135.500 193.500 C 135.500 205.344, 137.532 210.618, 144.957 218.043 C 162.364 235.449, 191.354 230.172, 201.583 207.734 C 207.594 194.552, 204.466 178.386, 194.013 168.608 C 188.090 163.068, 183.074 160.485, 175.535 159.091 C 168.994 157.882, 169.205 157.883, 163.270 159.054 M 160.316 167.326 C 149.479 171.321, 142 182.009, 142 193.500 C 142 205.574, 150.421 216.894, 161.769 220.074 C 164.192 220.753, 168.825 221.047, 172.479 220.754 C 186.871 219.598, 197.250 208.200, 197.250 193.549 C 197.250 182.353, 190.923 172.593, 180.637 167.922 C 175.887 165.766, 165.384 165.457, 160.316 167.326 " stroke="none" fill="black" fill-rule="evenodd"/>
</svg>