<svg xmlns="http://www.w3.org/2000/svg" width="308" height="324" viewBox="0 0 308 324" version="1.1">
	<path d="M 23.282 143.282 C 13.777 152.787, 6 161.079, 6 161.710 C 6 163.168, 8.798 166, 10.239 166 C 10.841 166, 17.334 160.059, 24.667 152.798 L 38 139.595 38 199.226 C 38 252.103, 38.178 259.035, 39.571 260.429 C 40.436 261.293, 41.673 262.012, 42.321 262.027 C 44.036 262.066, 76.976 227.787, 76.989 225.950 C 77.001 224.219, 75.116 222, 73.633 222 C 73.101 222, 66.666 227.941, 59.333 235.202 L 46 248.405 46 188.774 C 46 135.897, 45.822 128.965, 44.429 127.571 C 43.564 126.707, 42.341 126, 41.710 126 C 41.079 126, 32.787 133.777, 23.282 143.282 M 167.750 127.080 C 166.787 127.641, 166 128.859, 166 129.788 C 166 130.717, 172.858 138.346, 181.241 146.741 L 196.482 162.006 167 191.500 L 137.518 220.995 121.997 205.497 C 113.461 196.974, 106.177 190, 105.810 190 C 104.731 190, 102 193.046, 102 194.249 C 102 194.857, 108.844 202.250, 117.208 210.677 L 132.416 226 117.208 241.323 C 108.844 249.750, 102 257.143, 102 257.751 C 102 258.967, 104.736 262, 105.834 262 C 106.213 262, 113.482 255.031, 121.987 246.514 L 137.449 231.027 153.045 246.514 C 161.623 255.031, 169.082 262, 169.621 262 C 171.106 262, 173 259.793, 173 258.062 C 173 257.216, 166.143 249.655, 157.761 241.261 L 142.523 225.998 172.020 196.501 L 201.517 167.004 230.999 196.499 L 260.482 225.994 245.241 241.259 C 236.858 249.654, 230 257.290, 230 258.227 C 230 259.163, 230.942 260.434, 232.094 261.050 C 233.988 262.064, 235.674 260.694, 249.850 246.617 L 265.514 231.064 281.159 246.620 C 295.334 260.713, 297.001 262.070, 298.902 261.052 C 300.056 260.435, 301 259.163, 301 258.227 C 301 257.290, 294.143 249.656, 285.762 241.262 L 270.524 226 285.762 210.738 C 294.143 202.344, 301 194.710, 301 193.773 C 301 192.837, 300.058 191.566, 298.906 190.950 C 297.012 189.936, 295.325 191.307, 281.134 205.398 L 265.455 220.967 235.987 191.487 L 206.518 162.006 221.759 146.741 C 230.142 138.346, 237 130.710, 237 129.773 C 237 128.837, 236.058 127.566, 234.906 126.950 C 233.012 125.936, 231.325 127.307, 217.131 141.401 L 201.449 156.973 185.987 141.486 C 177.482 132.969, 170.294 126.014, 170.012 126.030 C 169.730 126.047, 168.713 126.519, 167.750 127.080 " stroke="none" fill="black" fill-rule="evenodd"/>
</svg>