<svg xmlns="http://www.w3.org/2000/svg" width="308" height="324" viewBox="0 0 308 324" version="1.1">
	<path d="M 55.200 63.200 C 53.512 64.888, 53.512 99.112, 55.200 100.800 C 56.040 101.640, 61.562 102, 73.629 102 C 87.958 102, 91.122 101.736, 92.429 100.429 C 94.757 98.100, 94.757 65.900, 92.429 63.571 C 91.122 62.264, 87.958 62, 73.629 62 C 61.562 62, 56.040 62.360, 55.200 63.200 M 62 82 L 62 94 74 94 L 86 94 86 82 L 86 70 74 70 L 62 70 62 82 M 71.571 127.571 C 70.212 128.931, 70 133.242, 70 159.571 L 70 190 39.571 190 C 13.242 190, 8.931 190.212, 7.571 191.571 C 5.598 193.545, 5.598 194.455, 7.571 196.429 C 8.931 197.788, 13.242 198, 39.571 198 L 70 198 70 228.429 C 70 254.758, 70.212 259.069, 71.571 260.429 C 72.436 261.293, 73.529 262, 74 262 C 74.471 262, 75.564 261.293, 76.429 260.429 C 77.788 259.069, 78 254.759, 78 228.443 L 78 198.029 108.641 197.764 C 136.566 197.523, 139.381 197.345, 140.386 195.750 C 141.191 194.474, 141.191 193.526, 140.386 192.250 C 139.381 190.655, 136.566 190.477, 108.641 190.236 L 78 189.971 78 159.557 C 78 133.241, 77.788 128.931, 76.429 127.571 C 75.564 126.707, 74.471 126, 74 126 C 73.529 126, 72.436 126.707, 71.571 127.571 M 232.207 126.681 C 231.495 126.964, 227.136 134.740, 222.520 143.960 L 214.127 160.724 208.405 159.267 C 193.510 155.473, 176.503 164.037, 169.244 178.987 C 166.948 183.715, 166.567 185.781, 166.567 193.500 C 166.567 201.253, 166.944 203.276, 169.286 208.101 C 170.856 211.336, 174.241 215.773, 177.297 218.601 L 182.589 223.500 174.054 240.757 C 167.119 254.781, 165.725 258.341, 166.619 259.757 C 167.629 261.358, 170.467 261.500, 201.500 261.500 C 232.586 261.500, 235.370 261.360, 236.386 259.750 C 237.191 258.474, 237.191 257.526, 236.386 256.250 C 235.382 254.658, 232.613 254.476, 205.642 254.235 L 176.001 253.970 182.614 240.735 C 186.251 233.456, 189.315 227.399, 189.422 227.275 C 189.529 227.151, 192.369 227.562, 195.732 228.187 C 200.828 229.135, 202.972 229.047, 208.588 227.662 C 219.933 224.862, 227.281 219.081, 232.805 208.607 C 235.209 204.048, 235.499 202.427, 235.499 193.500 C 235.500 184.006, 235.326 183.180, 232.070 177.174 C 230.184 173.695, 226.895 169.354, 224.762 167.528 L 220.883 164.208 229.135 147.022 C 235.473 133.820, 237.151 129.463, 236.372 128.227 C 235.207 126.381, 234.046 125.950, 232.207 126.681 M 278.200 127.200 C 276.361 129.039, 276.740 130.632, 279.868 134.215 C 284.172 139.145, 287.757 146.951, 289.124 154.371 C 291.433 166.901, 287.640 178.324, 276.495 192.403 C 273.490 196.199, 270.082 201.264, 268.923 203.659 C 260.633 220.784, 262.997 240.696, 275.145 256.065 C 278.415 260.201, 279.628 261.063, 281.820 260.810 C 286.030 260.323, 285.885 256.723, 281.461 251.825 C 273.853 243.404, 269.919 229.923, 271.858 218.917 C 273.162 211.511, 276.675 203.589, 280.709 198.954 C 286.235 192.605, 292.750 182.266, 294.635 176.855 C 296.037 172.829, 296.486 168.770, 296.443 160.500 C 296.376 147.530, 294.511 141.631, 287.440 132.025 C 283.040 126.048, 280.617 124.783, 278.200 127.200 M 191.885 167.380 C 176.988 172.703, 169.528 190.089, 175.926 204.573 C 178.127 209.556, 183.501 216, 185.456 216 C 186.040 216, 192.003 205.021, 198.706 191.603 C 210.277 168.436, 210.781 167.175, 208.696 166.616 C 204.933 165.607, 195.667 166.028, 191.885 167.380 M 205.297 195.366 C 195.523 214.954, 193.400 219.939, 194.629 220.411 C 195.473 220.735, 198.714 220.996, 201.832 220.990 C 216.103 220.966, 229 207.915, 229 193.500 C 229 187.352, 225.982 179.864, 221.668 175.310 L 217.500 170.909 205.297 195.366 " stroke="none" fill="black" fill-rule="evenodd"/>
</svg>