<svg xmlns="http://www.w3.org/2000/svg" width="244" height="324" viewBox="0 0 244 324" version="1.1">
	<path d="M 39.571 127.571 C 38.176 128.966, 38 136.152, 38 191.571 L 38 254 23.571 254 C 11.788 254, 8.855 254.288, 7.571 255.571 C 5.598 257.545, 5.598 258.455, 7.571 260.429 C 8.936 261.793, 13.463 262, 42 262 C 70.537 262, 75.064 261.793, 76.429 260.429 C 77.293 259.564, 78 258.471, 78 258 C 78 257.529, 77.293 256.436, 76.429 255.571 C 75.145 254.288, 72.212 254, 60.429 254 L 46 254 46 191.571 C 46 136.152, 45.824 128.966, 44.429 127.571 C 43.564 126.707, 42.471 126, 42 126 C 41.529 126, 40.436 126.707, 39.571 127.571 M 103.627 127.515 C 102.732 128.411, 102 129.529, 102 130 C 102 132.122, 105.426 134.001, 109.321 134.015 C 121.695 134.059, 136.809 140.855, 147.088 150.999 C 156.924 160.705, 162.918 172.493, 164.514 185.267 C 165.216 190.882, 165.180 191, 162.775 191 C 159.158 191, 148.863 196.460, 144.513 200.685 C 142.429 202.708, 139.332 207.319, 137.630 210.932 C 134.975 216.566, 134.535 218.638, 134.535 225.500 C 134.535 232.362, 134.975 234.434, 137.630 240.068 C 148.038 262.157, 176.185 267.507, 193.353 250.661 C 200.627 243.523, 203.374 237.487, 203.847 227.598 C 204.059 223.176, 203.696 217.892, 203.023 215.598 C 199.908 204.979, 190.223 195.243, 179.776 192.228 L 173.788 190.500 174.369 184.838 C 176.663 162.512, 195.540 141.509, 218.644 135.577 C 222.024 134.710, 226.996 134, 229.694 134 C 234.803 134, 237 132.774, 237 129.922 C 237 126.353, 234.589 125.734, 225.439 126.951 C 210.034 129.001, 197.834 134.751, 187.034 145.050 C 180.459 151.321, 173.745 161.134, 171.278 168.079 L 169.619 172.752 165.394 164.126 C 154.992 142.891, 135.378 129.367, 110.877 126.537 C 106.402 126.020, 104.923 126.220, 103.627 127.515 M 159.603 199.477 C 151.528 202.354, 151.594 203.079, 160.764 212.249 L 168.985 220.470 177.503 211.997 C 186.013 203.531, 186.018 203.522, 183.818 201.863 C 178.670 197.980, 167.024 196.832, 159.603 199.477 M 146.192 210.269 C 141.752 215.619, 140.575 229.264, 143.918 236.627 C 144.948 238.896, 146.209 241.011, 146.718 241.326 C 147.228 241.641, 151.325 238.199, 155.823 233.678 L 164.001 225.457 155.671 217.170 C 148.884 210.419, 147.128 209.140, 146.192 210.269 M 182.727 216.772 C 178.477 221.047, 175 224.995, 175 225.546 C 175 226.667, 190.144 242, 191.252 242 C 191.641 242, 192.973 240.088, 194.212 237.750 C 196.008 234.363, 196.465 231.875, 196.465 225.500 C 196.465 219.125, 196.008 216.637, 194.212 213.250 C 192.973 210.912, 191.620 209, 191.206 209 C 190.792 209, 186.976 212.497, 182.727 216.772 M 160.477 239.059 L 152.500 247.118 154.830 249.034 C 161.199 254.272, 175.801 254.342, 183.819 249.174 L 186.137 247.680 177.841 239.340 C 173.278 234.753, 169.299 231, 168.999 231 C 168.699 231, 164.864 234.627, 160.477 239.059 " stroke="none" fill="black" fill-rule="evenodd"/>
</svg>