<svg xmlns="http://www.w3.org/2000/svg" width="276" height="324" viewBox="0 0 276 324" version="1.1">
	<path d="M 103.571 127.571 C 102.175 128.968, 102 136.372, 102 194 C 102 251.628, 102.175 259.032, 103.571 260.429 C 104.968 261.825, 112.372 262, 170 262 C 227.628 262, 235.032 261.825, 236.429 260.429 C 237.825 259.032, 238 251.628, 238 194 C 238 136.372, 237.825 128.968, 236.429 127.571 C 235.032 126.175, 227.628 126, 170 126 C 112.372 126, 104.968 126.175, 103.571 127.571 M 110 194 L 110 254 170 254 L 230 254 230 194 L 230 134 170 134 L 110 134 110 194 M 34.223 159.012 C 23.933 161.160, 13.981 169.443, 9.216 179.825 C 7.092 184.453, 6.610 186.998, 6.606 193.623 C 6.601 200.746, 6.994 202.545, 9.800 208.245 C 13.618 216.001, 19.965 222.176, 27.825 225.784 C 35.894 229.488, 47.106 229.488, 55.175 225.784 C 63.035 222.176, 69.382 216.001, 73.200 208.245 C 76.016 202.526, 76.400 200.755, 76.400 193.500 C 76.400 186.245, 76.016 184.474, 73.200 178.755 C 65.955 164.039, 49.665 155.788, 34.223 159.012 M 32.500 167.227 C 27.591 168.977, 21.568 173.567, 18.804 177.663 C 15.063 183.207, 13.723 188.353, 14.195 195.349 C 15.162 209.654, 25.349 219.839, 39.659 220.805 C 51.145 221.581, 61.485 215.690, 66.523 205.500 C 69.292 199.897, 69.292 187.103, 66.523 181.500 C 63.688 175.767, 56.795 169.459, 51.329 167.597 C 46.052 165.798, 37.007 165.621, 32.500 167.227 M 263.571 191.571 C 262.707 192.436, 262 193.529, 262 194 C 262 195.111, 264.889 198, 266 198 C 267.111 198, 270 195.111, 270 194 C 270 192.889, 267.111 190, 266 190 C 265.529 190, 264.436 190.707, 263.571 191.571 M 7.571 255.571 C 6.707 256.436, 6 257.529, 6 258 C 6 258.471, 6.707 259.564, 7.571 260.429 C 8.936 261.793, 13.463 262, 42 262 C 70.537 262, 75.064 261.793, 76.429 260.429 C 77.293 259.564, 78 258.471, 78 258 C 78 257.529, 77.293 256.436, 76.429 255.571 C 75.064 254.207, 70.537 254, 42 254 C 13.463 254, 8.936 254.207, 7.571 255.571 " stroke="none" fill="black" fill-rule="evenodd"/>
</svg>