<svg xmlns="http://www.w3.org/2000/svg" width="340" height="324" viewBox="0 0 340 324" version="1.1">
	<path d="M 263.571 127.571 C 262.219 128.924, 262 132.971, 262 156.584 L 262 184.025 258.250 181.692 C 240.341 170.552, 214.857 172.900, 200.250 187.037 C 195.505 191.629, 195.609 191.402, 197.035 194.066 C 198.511 196.823, 200.458 196.474, 204.747 192.681 C 206.811 190.856, 210.075 188.437, 212 187.304 C 225.898 179.131, 245.284 180.488, 258.485 190.557 L 262 193.237 262 221.337 L 262 249.437 256.221 243.719 C 253.043 240.573, 250.150 238, 249.792 238 C 248.759 238, 246 241.040, 246 242.178 C 246 242.747, 249.226 246.540, 253.169 250.607 L 260.338 258 253.169 265.393 C 249.226 269.460, 246 273.253, 246 273.822 C 246 274.960, 248.759 278, 249.792 278 C 250.150 278, 253.043 275.427, 256.221 272.281 L 262 266.563 262 278.710 C 262 288.420, 262.315 291.172, 263.571 292.429 C 265.457 294.315, 266.219 294.381, 267.800 292.800 C 268.605 291.995, 269 287.500, 269 279.148 L 269 266.696 274.926 272.348 C 281.212 278.344, 281.907 278.693, 283.800 276.800 C 286.049 274.551, 285.003 272.550, 277.775 265.274 L 270.550 258 277.775 250.726 C 285.003 243.450, 286.049 241.449, 283.800 239.200 C 281.907 237.307, 281.212 237.656, 274.926 243.652 L 269 249.304 269 225.545 C 269 206.911, 269.270 201.905, 270.250 202.336 C 285.448 209.029, 293.166 210.589, 303.348 209.025 C 315.768 207.118, 332.522 197.530, 331.805 192.740 C 331.178 188.551, 328.558 188.409, 323.803 192.305 C 309.842 203.745, 289.545 205.229, 274.857 195.883 C 272.304 194.259, 269.948 191.933, 269.621 190.715 C 269.294 189.497, 269.021 174.977, 269.014 158.450 C 269.004 136.427, 268.679 128.079, 267.800 127.200 C 266.219 125.619, 265.457 125.685, 263.571 127.571 M 33.384 159.370 C 15.387 163.885, 3.561 181.817, 6.987 199.396 C 12.468 227.526, 46.025 238.135, 66.080 218.080 C 76.010 208.150, 78.986 193.911, 73.934 180.507 C 68.114 165.068, 49.449 155.339, 33.384 159.370 M 129.384 159.370 C 118.736 162.041, 109.966 169.476, 105.191 179.880 C 101.513 187.892, 101.524 199.131, 105.216 207.175 C 118.701 236.555, 159.865 235.035, 170.591 204.761 C 172.855 198.369, 172.544 187.529, 169.893 180.443 C 164.147 165.086, 145.423 155.345, 129.384 159.370 M 31.054 167.728 C 25.018 169.859, 17.781 177.260, 15.667 183.463 C 11.995 194.241, 14.382 205.477, 21.952 213.048 C 32.673 223.769, 50.327 223.769, 61.048 213.048 C 71.769 202.327, 71.769 184.673, 61.048 173.952 C 53.519 166.424, 41.696 163.970, 31.054 167.728 M 127.627 167.468 C 122.247 169.386, 117.039 173.829, 113.500 179.519 C 110.982 183.568, 110.444 185.582, 110.150 192.050 C 109.760 200.623, 111.420 205.822, 116.447 211.770 C 125.626 222.629, 143.475 224.128, 154.992 215.006 C 160.752 210.444, 165 201.316, 165 193.500 C 165 182.038, 157.486 171.200, 146.965 167.488 C 141.743 165.645, 132.766 165.636, 127.627 167.468 M 39.571 191.571 C 38.707 192.436, 38 193.529, 38 194 C 38 195.111, 40.889 198, 42 198 C 43.111 198, 46 195.111, 46 194 C 46 192.889, 43.111 190, 42 190 C 41.529 190, 40.436 190.707, 39.571 191.571 M 7.571 255.571 C 6.707 256.436, 6 257.529, 6 258 C 6 258.471, 6.707 259.564, 7.571 260.429 C 8.936 261.793, 13.463 262, 42 262 C 70.537 262, 75.064 261.793, 76.429 260.429 C 77.293 259.564, 78 258.471, 78 258 C 78 257.529, 77.293 256.436, 76.429 255.571 C 75.064 254.207, 70.537 254, 42 254 C 13.463 254, 8.936 254.207, 7.571 255.571 " stroke="none" fill="black" fill-rule="evenodd"/>
</svg>