<svg xmlns="http://www.w3.org/2000/svg" width="228" height="324" viewBox="0 0 228 324" version="1.1">
	<path d="M 72.372 62.765 C 70.418 64.037, 54.003 97.844, 54.593 99.381 C 55.268 101.141, 57.513 102.124, 59.295 101.440 C 60.007 101.167, 63.480 95.106, 67.014 87.972 C 70.547 80.837, 73.691 75, 74 75 C 74.309 75, 77.453 80.837, 80.986 87.972 C 84.520 95.106, 87.993 101.167, 88.705 101.440 C 90.487 102.124, 92.732 101.141, 93.407 99.381 C 93.716 98.575, 90.096 90.173, 85.363 80.708 C 77.638 65.261, 75.672 62.031, 74 62.031 C 73.725 62.031, 72.992 62.361, 72.372 62.765 M 7.571 191.571 C 6.707 192.436, 6 193.529, 6 194 C 6 194.471, 6.707 195.564, 7.571 196.429 C 8.968 197.825, 16.372 198, 74 198 C 131.628 198, 139.032 197.825, 140.429 196.429 C 141.293 195.564, 142 194.471, 142 194 C 142 193.529, 141.293 192.436, 140.429 191.571 C 139.032 190.175, 131.628 190, 74 190 C 16.372 190, 8.968 190.175, 7.571 191.571 M 181.202 208.750 C 176.844 214.949, 175.633 218.482, 175.635 225 C 175.636 230.411, 176.187 232.548, 178.923 237.757 C 181.202 242.096, 182.949 244.200, 184.618 244.619 C 187.242 245.278, 190 243.596, 190 241.338 C 190 240.558, 190.981 238.026, 192.180 235.710 C 195.651 229.007, 195.237 220.161, 191.081 212.250 C 187.289 205.033, 184.509 204.048, 181.202 208.750 M 183.422 220.563 C 182.372 226.162, 183.848 234.485, 185.584 232.749 C 187.560 230.774, 187.049 217, 185 217 C 184.500 217, 183.790 218.604, 183.422 220.563 " stroke="none" fill="black" fill-rule="evenodd"/>
</svg>