<svg xmlns="http://www.w3.org/2000/svg" width="308" height="324" viewBox="0 0 308 324" version="1.1">
	<path d="M 223.531 127.056 C 195.536 131.403, 173.095 152.711, 167.553 180.208 C 165.580 190, 165.589 197.093, 167.589 206.792 C 172.350 229.886, 189.519 249.588, 211.290 256.940 C 231.397 263.731, 252.599 260.845, 270.484 248.882 C 288.338 236.941, 298.723 218.345, 299.766 196.451 C 301.515 159.710, 273.807 129.033, 236.673 126.599 C 232.728 126.341, 226.814 126.546, 223.531 127.056 M 218.072 135.532 C 207.628 138.453, 199.923 143.060, 191.384 151.489 C 179.132 163.583, 173.639 176.587, 173.639 193.500 C 173.639 210.413, 179.132 223.417, 191.384 235.511 C 200.259 244.272, 207.970 248.753, 219.060 251.594 C 227.800 253.833, 244.050 253.075, 252.723 250.024 C 266.832 245.060, 279.471 233.874, 286.082 220.500 C 295.079 202.297, 295.070 184.715, 286.055 166.423 C 279.478 153.078, 266.927 141.986, 252.723 136.966 C 244.494 134.058, 226.068 133.296, 218.072 135.532 M 33.384 159.357 C 15.361 163.923, 3.562 181.820, 6.987 199.396 C 9.885 214.269, 20.376 224.886, 35.198 227.944 C 50.783 231.161, 68.362 221.340, 74.002 206.266 C 76.889 198.550, 76.845 188.335, 73.893 180.443 C 68.130 165.041, 49.410 155.297, 33.384 159.357 M 31.054 167.728 C 25.018 169.859, 17.781 177.260, 15.667 183.463 C 9.189 202.476, 21.963 221, 41.552 221 C 56.843 221, 69 208.819, 69 193.500 C 69 182.038, 61.486 171.200, 50.965 167.488 C 45.610 165.598, 36.784 165.705, 31.054 167.728 M 39.571 191.571 C 38.707 192.436, 38 193.529, 38 194 C 38 195.111, 40.889 198, 42 198 C 43.111 198, 46 195.111, 46 194 C 46 192.889, 43.111 190, 42 190 C 41.529 190, 40.436 190.707, 39.571 191.571 M 111.184 199.365 C 106.133 204.516, 102 209.209, 102 209.794 C 102 210.954, 104.747 214, 105.792 214 C 106.150 214, 109.043 211.427, 112.221 208.281 L 118 202.563 118 228.281 L 118 254 111.571 254 C 107.061 254, 104.674 254.469, 103.571 255.571 C 101.593 257.550, 101.597 258.455, 103.595 260.452 C 104.952 261.810, 107.721 262.006, 122.237 261.773 C 137.203 261.533, 139.419 261.286, 140.387 259.750 C 141.189 258.477, 141.190 257.523, 140.390 256.250 C 139.542 254.901, 137.647 254.433, 132.109 254.205 L 124.927 253.911 125.044 222.814 C 125.190 183.877, 125.635 184.630, 111.184 199.365 M 7.585 255.558 C 6.713 256.430, 6 257.529, 6 258 C 6 258.471, 6.713 259.570, 7.585 260.442 C 8.978 261.835, 13.159 261.995, 42.226 261.763 C 72.452 261.523, 75.377 261.350, 76.386 259.750 C 77.191 258.474, 77.191 257.526, 76.386 256.250 C 75.377 254.650, 72.452 254.477, 42.226 254.237 C 13.159 254.005, 8.978 254.165, 7.585 255.558 " stroke="none" fill="black" fill-rule="evenodd"/>
</svg>