<svg xmlns="http://www.w3.org/2000/svg" width="468" height="324" viewBox="0 0 468 324" version="1.1">
	<path d="M 71.240 191.268 C 35.358 227.165, 6 257.058, 6 257.696 C 6 259.196, 8.803 262, 10.302 262 C 10.940 262, 39.033 234.442, 72.731 200.761 L 134 139.522 134 164.761 L 134 190 119.200 190 C 109.022 190, 104.025 190.375, 103.200 191.200 C 101.481 192.919, 101.481 259.081, 103.200 260.800 C 104.086 261.686, 113.200 262, 138 262 C 162.800 262, 171.914 261.686, 172.800 260.800 C 174.519 259.081, 174.519 192.919, 172.800 191.200 C 171.975 190.375, 166.978 190, 156.800 190 L 142 190 142 159.200 C 142 127.556, 141.814 126, 138.040 126 C 137.181 126, 107.121 155.371, 71.240 191.268 M 322.223 159.012 C 311.933 161.160, 301.981 169.443, 297.216 179.825 C 295.092 184.453, 294.610 186.998, 294.606 193.623 C 294.601 200.746, 294.994 202.545, 297.800 208.245 C 301.618 216.001, 307.965 222.176, 315.825 225.784 C 323.894 229.488, 335.106 229.488, 343.175 225.784 C 351.035 222.176, 357.382 216.001, 361.200 208.245 C 364.016 202.526, 364.400 200.755, 364.400 193.500 C 364.400 186.245, 364.016 184.474, 361.200 178.755 C 353.955 164.039, 337.665 155.788, 322.223 159.012 M 391.200 159.200 C 389.481 160.919, 389.481 227.081, 391.200 228.800 C 392.919 230.519, 459.081 230.519, 460.800 228.800 C 462.519 227.081, 462.519 160.919, 460.800 159.200 C 459.081 157.481, 392.919 157.481, 391.200 159.200 M 320.453 167.326 C 308.177 172.056, 301.331 182.563, 302.195 195.349 C 303.162 209.654, 313.349 219.839, 327.659 220.805 C 335.989 221.368, 342.768 219.022, 348.259 213.674 C 354.701 207.400, 356.500 202.997, 356.500 193.500 C 356.500 187.546, 355.994 184.477, 354.523 181.500 C 351.688 175.767, 344.795 169.459, 339.329 167.597 C 333.921 165.754, 324.871 165.624, 320.453 167.326 M 398 194 L 398 222 426 222 L 454 222 454 194 L 454 166 426 166 L 398 166 398 194 M 199.571 191.571 C 198.707 192.436, 198 193.640, 198 194.249 C 198 194.857, 204.844 202.250, 213.208 210.677 L 228.416 226 213.208 241.323 C 204.844 249.750, 198 257.143, 198 257.751 C 198 259.181, 200.819 262, 202.249 262 C 202.857 262, 210.250 255.156, 218.677 246.792 L 234 231.584 249.323 246.792 C 257.750 255.156, 265.143 262, 265.751 262 C 267.181 262, 270 259.181, 270 257.751 C 270 257.143, 263.156 249.750, 254.792 241.323 L 239.584 226 254.792 210.677 C 263.156 202.250, 270 194.857, 270 194.249 C 270 192.819, 267.181 190, 265.751 190 C 265.143 190, 257.750 196.844, 249.323 205.208 L 234 220.416 218.677 205.208 C 210.250 196.844, 202.857 190, 202.249 190 C 201.640 190, 200.436 190.707, 199.571 191.571 M 327.571 191.571 C 326.707 192.436, 326 193.529, 326 194 C 326 195.111, 328.889 198, 330 198 C 331.111 198, 334 195.111, 334 194 C 334 192.889, 331.111 190, 330 190 C 329.529 190, 328.436 190.707, 327.571 191.571 M 110 226 L 110 254 138 254 L 166 254 166 226 L 166 198 138 198 L 110 198 110 226 " stroke="none" fill="black" fill-rule="evenodd"/>
</svg>