<svg xmlns="http://www.w3.org/2000/svg" width="308" height="324" viewBox="0 0 308 324" version="1.1">
	<path d="M 120.530 142 L 104.424 158 72.412 158 C 48.847 158, 40.083 158.317, 39.200 159.200 C 38.317 160.083, 38 168.847, 38 192.412 L 38 224.424 22 240.530 C 13.200 249.389, 6 257.137, 6 257.747 C 6 259.182, 8.818 262, 10.253 262 C 10.863 262, 18.611 254.800, 27.470 246 L 43.576 230 75.217 230 C 102.647 230, 107.066 229.791, 108.429 228.429 C 109.791 227.066, 110 222.656, 110 195.316 L 110 163.774 125.500 147.810 C 134.025 139.029, 141 131.070, 141 130.123 C 141 128.235, 139.167 126, 137.619 126 C 137.079 126, 129.389 133.200, 120.530 142 M 167.750 127.076 C 165.417 128.440, 165.526 131.676, 167.948 132.972 C 169.256 133.672, 191.132 133.930, 234.589 133.757 C 294.951 133.517, 299.356 133.383, 300.386 131.750 C 301.191 130.474, 301.191 129.526, 300.386 128.250 C 299.356 126.616, 294.963 126.485, 234.391 126.276 C 191.547 126.129, 168.905 126.400, 167.750 127.076 M 46 191.242 L 46 216.485 71 191.500 C 84.750 177.758, 96 166.399, 96 166.258 C 96 166.116, 84.750 166, 71 166 L 46 166 46 191.242 M 76.500 197 L 51.515 222 76.758 222 L 102 222 102 197 C 102 183.250, 101.884 172, 101.742 172 C 101.601 172, 90.242 183.250, 76.500 197 M 190.389 175.488 C 183.141 177.065, 177.380 179.821, 170.325 185.088 C 164.778 189.229, 163.107 192.220, 165.040 194.548 C 166.867 196.750, 168.629 196.323, 172.747 192.681 C 181.895 184.592, 191.164 181.479, 203.760 182.265 C 213.061 182.845, 222.122 186.490, 227.235 191.709 C 228.739 193.244, 231.439 195.982, 233.235 197.793 C 237.956 202.555, 248.673 207.596, 257.099 209.017 C 269.955 211.185, 285.208 206.987, 295.693 198.395 C 300.055 194.821, 300.980 192.380, 298.800 190.200 C 296.908 188.308, 295.495 188.743, 290.845 192.651 C 280.935 200.978, 265.931 204.143, 253.448 200.540 C 245.706 198.305, 241.989 195.947, 234.579 188.566 C 227.638 181.654, 219.948 177.521, 210.174 175.449 C 202.110 173.740, 198.392 173.747, 190.389 175.488 M 167.750 255.076 C 165.417 256.440, 165.526 259.676, 167.948 260.972 C 169.256 261.672, 191.132 261.930, 234.589 261.757 C 294.951 261.517, 299.356 261.383, 300.386 259.750 C 301.191 258.474, 301.191 257.526, 300.386 256.250 C 299.356 254.616, 294.963 254.485, 234.391 254.276 C 191.547 254.129, 168.905 254.400, 167.750 255.076 " stroke="none" fill="black" fill-rule="evenodd"/>
</svg>