<svg xmlns="http://www.w3.org/2000/svg" width="244" height="324" viewBox="0 0 244 324" version="1.1">
	<path d="M 39.571 127.571 C 38.176 128.966, 38 136.152, 38 191.571 L 38 254 23.571 254 C 11.788 254, 8.855 254.288, 7.571 255.571 C 5.598 257.545, 5.598 258.455, 7.571 260.429 C 8.936 261.793, 13.463 262, 42 262 C 70.537 262, 75.064 261.793, 76.429 260.429 C 77.293 259.564, 78 258.471, 78 258 C 78 257.529, 77.293 256.436, 76.429 255.571 C 75.145 254.288, 72.212 254, 60.429 254 L 46 254 46 191.571 C 46 136.152, 45.824 128.966, 44.429 127.571 C 43.564 126.707, 42.471 126, 42 126 C 41.529 126, 40.436 126.707, 39.571 127.571 M 135.230 159.285 C 116.953 177.591, 102 193.084, 102 193.713 C 102 195.191, 104.808 198, 106.285 198 C 106.913 198, 121.506 183.947, 138.713 166.771 L 170 135.542 201.287 166.771 C 218.494 183.947, 233.029 198, 233.587 198 C 235.117 198, 237 195.802, 237 194.016 C 237 191.944, 171.965 125.903, 169.980 125.958 C 169.144 125.981, 153.506 140.978, 135.230 159.285 " stroke="none" fill="black" fill-rule="evenodd"/>
</svg>