<svg xmlns="http://www.w3.org/2000/svg" width="340" height="324" viewBox="0 0 340 324" version="1.1">
	<path d="M 258.344 127 C 248.071 129.135, 237.964 137.339, 233.380 147.266 L 230.500 153.500 230.500 193.500 L 230.500 233.500 233.301 239.500 C 234.841 242.800, 237.972 247.412, 240.259 249.750 L 244.416 254 222.780 254 C 204.443 254, 200.903 254.240, 199.571 255.571 C 198.707 256.436, 198 257.529, 198 258 C 198 258.471, 198.707 259.564, 199.571 260.429 C 200.930 261.787, 205.197 262, 231.071 262 C 255.420 262, 261 262.250, 261 263.340 C 261 264.077, 260.101 268.194, 259.003 272.489 C 254.717 289.246, 243.079 303.562, 227.820 310.847 C 219.178 314.974, 211.669 317, 205.022 317 C 200.802 317, 197.533 319.340, 198.442 321.711 C 198.749 322.510, 199 323.352, 199 323.582 C 199 324.663, 212.888 323.825, 218.356 322.414 C 235.747 317.924, 253.022 303.919, 260.824 287.988 C 265.049 279.360, 268 269.825, 268 264.804 L 268 262.028 299.641 261.764 C 328.518 261.523, 331.379 261.347, 332.386 259.750 C 333.191 258.474, 333.191 257.526, 332.387 256.250 C 331.397 254.681, 328.939 254.472, 308.588 254.231 L 285.892 253.962 288.843 251.479 C 293.248 247.772, 297.705 240.231, 299.450 233.530 C 300.700 228.733, 301 221.135, 301 194.339 C 301 151.773, 300.006 146.826, 289.342 136.339 C 281.455 128.584, 268.910 124.804, 258.344 127 M 255.627 135.468 C 250.248 137.386, 245.039 141.828, 241.500 147.517 L 238.500 152.340 238.217 192.201 C 237.953 229.364, 238.061 232.348, 239.809 236.281 C 244.444 246.711, 252.348 252.126, 263.883 252.774 C 270.995 253.173, 271.931 252.978, 278 249.830 C 285.112 246.140, 289.890 240.376, 292.236 232.657 C 294.028 226.764, 294.026 160.232, 292.235 154.337 C 288.603 142.387, 277.568 133.959, 265.663 134.044 C 262.273 134.068, 257.757 134.709, 255.627 135.468 M 33.384 159.412 C 15.475 163.758, 3.559 181.807, 6.987 199.396 C 9.923 214.467, 20.510 225.032, 35.660 228.013 C 46.748 230.194, 59.444 225.749, 67.399 216.901 C 85.210 197.091, 75.186 165.489, 49.147 159.360 C 42.397 157.772, 40.111 157.779, 33.384 159.412 M 263.750 159.080 C 261.372 160.465, 261.542 163.685, 264.064 165.034 C 267.753 167.008, 270.819 162.219, 267.800 159.200 C 266.367 157.767, 266.022 157.757, 263.750 159.080 M 31.054 167.728 C 25.018 169.859, 17.781 177.260, 15.667 183.463 C 11.995 194.241, 14.382 205.477, 21.952 213.048 C 32.402 223.497, 49.888 223.773, 60.280 213.653 C 66.701 207.401, 68.500 202.989, 68.500 193.500 C 68.500 184.011, 66.701 179.599, 60.280 173.347 C 53.109 166.363, 41.332 164.099, 31.054 167.728 M 167.616 191.527 C 166.727 192.416, 166 193.529, 166 194 C 166 195.389, 169.140 198.120, 170.295 197.735 C 172.395 197.035, 173.549 194.094, 172.423 192.310 C 170.905 189.902, 169.474 189.669, 167.616 191.527 M 263.750 191.080 C 261.372 192.465, 261.542 195.685, 264.064 197.034 C 267.753 199.008, 270.819 194.219, 267.800 191.200 C 266.367 189.767, 266.022 189.757, 263.750 191.080 M 263.750 223.080 C 261.372 224.465, 261.542 227.685, 264.064 229.034 C 267.753 231.008, 270.819 226.219, 267.800 223.200 C 266.367 221.767, 266.022 221.757, 263.750 223.080 M 7.571 255.571 C 6.707 256.436, 6 257.529, 6 258 C 6 258.471, 6.707 259.564, 7.571 260.429 C 8.936 261.793, 13.463 262, 42 262 C 70.537 262, 75.064 261.793, 76.429 260.429 C 77.293 259.564, 78 258.471, 78 258 C 78 257.529, 77.293 256.436, 76.429 255.571 C 75.064 254.207, 70.537 254, 42 254 C 13.463 254, 8.936 254.207, 7.571 255.571 M 103.571 255.571 C 102.707 256.436, 102 257.529, 102 258 C 102 259.111, 104.889 262, 106 262 C 107.111 262, 110 259.111, 110 258 C 110 256.889, 107.111 254, 106 254 C 105.529 254, 104.436 254.707, 103.571 255.571 M 167.616 255.527 C 166.727 256.416, 166 257.529, 166 258 C 166 259.389, 169.140 262.120, 170.295 261.735 C 172.395 261.035, 173.549 258.094, 172.423 256.310 C 170.905 253.902, 169.474 253.669, 167.616 255.527 " stroke="none" fill="black" fill-rule="evenodd"/>
</svg>