<svg xmlns="http://www.w3.org/2000/svg" width="340" height="324" viewBox="0 0 340 324" version="1.1">
	<path d="M 71.240 191.268 C 35.358 227.165, 6 257.058, 6 257.696 C 6 259.196, 8.803 262, 10.302 262 C 10.940 262, 39.033 234.442, 72.731 200.761 L 134 139.522 134 164.761 L 134 190 119.934 190 C 112.151 190, 105.005 190.462, 103.934 191.035 C 102.080 192.027, 102 193.478, 102 226 C 102 258.522, 102.080 259.973, 103.934 260.965 C 105.154 261.617, 117.876 262, 138.363 262 C 166.570 262, 171.064 261.793, 172.429 260.429 C 173.793 259.064, 174 254.537, 174 226 C 174 197.463, 173.793 192.936, 172.429 191.571 C 171.145 190.288, 168.212 190, 156.429 190 L 142 190 142 159.571 C 142 133.242, 141.788 128.931, 140.429 127.571 C 139.564 126.707, 138.322 126, 137.668 126 C 137.014 126, 107.121 155.371, 71.240 191.268 M 255.536 127.055 C 238.549 129.693, 223.930 138.283, 212.779 152.178 C 206.868 159.543, 203.929 165.183, 200.874 175.025 C 197.599 185.573, 197.597 201.400, 200.867 212 C 203.623 220.930, 207.781 229.015, 212.438 234.500 L 215.835 238.500 206.917 247.615 C 202.013 252.629, 198 257.209, 198 257.794 C 198 259.059, 200.787 262, 201.986 262 C 202.450 262, 206.855 257.881, 211.775 252.848 L 220.721 243.695 225.534 247.370 C 232.174 252.441, 241.274 256.721, 249 258.410 C 261.376 261.115, 266.162 261.680, 269.823 260.869 C 271.845 260.421, 276.425 259.509, 280 258.843 C 290.663 256.858, 303.077 249.981, 312.026 241.103 C 325.580 227.657, 332 212.394, 332 193.617 C 332 178.308, 328.713 167.813, 319.784 154.618 L 315.804 148.736 324.402 140.098 C 333.035 131.425, 334.224 129.260, 331.564 127.053 C 329.534 125.368, 327.801 126.545, 318.602 135.851 L 310.704 143.842 305.602 140.029 C 291.293 129.338, 272.387 124.439, 255.536 127.055 M 249.500 135.893 C 228.956 141.888, 212.807 158.285, 207.543 178.495 C 205.563 186.096, 205.563 200.904, 207.543 208.505 C 209.429 215.745, 214.073 225.295, 217.995 230 L 220.913 233.500 241.457 213.009 L 262 192.518 262 163.259 L 262 134 258.750 134.071 C 256.962 134.110, 252.800 134.930, 249.500 135.893 M 269 159.747 L 269 185.493 287.250 167.238 L 305.500 148.983 302.500 146.479 C 298.105 142.812, 284.312 136.347, 278.201 135.090 C 268.053 133.003, 269 130.465, 269 159.747 M 289.218 175.306 L 269 195.611 269 224.306 L 269 253 271.290 253 C 279.699 253, 296.547 245.694, 304.701 238.512 C 311.733 232.318, 319.479 220.467, 322.244 211.675 C 325.406 201.618, 325.428 185.440, 322.292 175.500 C 320.037 168.352, 312.337 155, 310.470 155 C 309.901 155, 300.338 164.138, 289.218 175.306 M 110 226 L 110 254 138 254 L 166 254 166 226 L 166 198 138 198 L 110 198 110 226 M 244.239 220.260 C 234.758 229.754, 227 237.994, 227 238.572 C 227 242.575, 250.408 253, 259.394 253 L 262 253 262 228 C 262 214.250, 261.883 203, 261.739 203 C 261.596 203, 253.721 210.767, 244.239 220.260 " stroke="none" fill="black" fill-rule="evenodd"/>
</svg>