<svg xmlns="http://www.w3.org/2000/svg" width="308" height="324" viewBox="0 0 308 324" version="1.1">
	<path d="M 39.230 159.285 L 6 192.569 6 225.713 C 6 254.511, 6.206 259.063, 7.571 260.429 C 8.968 261.825, 16.343 261.998, 73.821 261.985 C 109.395 261.976, 139.081 261.601, 139.790 261.151 C 140.802 260.509, 141.081 253.044, 141.083 226.553 L 141.086 192.774 108.215 159.387 C 90.135 141.024, 74.694 126, 73.902 126 C 73.109 126, 57.506 140.978, 39.230 159.285 M 167.200 127.200 C 165.465 128.935, 165.465 259.065, 167.200 260.800 C 168.935 262.535, 298.065 262.535, 299.800 260.800 C 301.535 259.065, 301.535 128.935, 299.800 127.200 C 298.065 125.465, 168.935 125.465, 167.200 127.200 M 206 161.500 L 233.486 189 260.743 161.757 C 275.734 146.773, 288 134.398, 288 134.257 C 288 134.116, 263.366 134, 233.257 134 L 178.514 134 206 161.500 M 43.744 165.756 L 14 195.512 14 224.756 L 14 254 74 254 L 134 254 134 224.744 L 134 195.487 104.244 165.744 C 87.878 149.385, 74.263 136, 73.988 136 C 73.713 136, 60.103 149.390, 43.744 165.756 M 173 196.256 L 173 254 233.500 254 L 294 254 294 196.256 L 294 138.513 264.244 168.256 C 247.878 184.615, 234.043 198, 233.500 198 C 232.957 198, 219.122 184.615, 202.756 168.256 L 173 138.513 173 196.256 " stroke="none" fill="black" fill-rule="evenodd"/>
</svg>