<svg xmlns="http://www.w3.org/2000/svg" width="148" height="324" viewBox="0 0 148 324" version="1.1">
	<path d="M 7.571 63.571 C 6.707 64.436, 6 65.529, 6 66 C 6 67.111, 8.889 70, 10 70 C 11.111 70, 14 67.111, 14 66 C 14 64.889, 11.111 62, 10 62 C 9.529 62, 8.436 62.707, 7.571 63.571 M 23.571 63.571 C 22.707 64.436, 22 65.317, 22 65.531 C 22 66.993, 39.421 100.653, 40.488 101.252 C 41.225 101.665, 42.440 101.768, 43.188 101.481 C 44.837 100.849, 61 68.755, 61 66.115 C 61 63.770, 58.710 61.790, 56.832 62.511 C 56.050 62.811, 52.520 68.894, 48.986 76.028 C 45.453 83.163, 42.308 89, 41.997 89 C 41.687 89, 38.748 83.534, 35.467 76.853 C 27.925 61.499, 26.847 60.296, 23.571 63.571 M 33.384 159.370 C 15.392 163.884, 3.545 181.843, 6.993 199.372 C 9.077 209.960, 14.986 218.563, 23.673 223.654 C 29.196 226.891, 41.876 230.134, 44.184 228.900 C 45.111 228.405, 46.556 228, 47.397 228 C 50.783 228, 59.909 223.769, 63.909 220.346 C 75.271 210.620, 79.244 194.744, 73.893 180.443 C 68.147 165.086, 49.423 155.345, 33.384 159.370 M 116.764 158.952 C 111.097 160.749, 107.134 164.091, 104.571 169.234 C 101.615 175.166, 101.344 178.201, 103.571 180.429 C 106.448 183.305, 108.154 181.933, 109.921 175.323 C 112.813 164.505, 126.535 162.399, 131.506 172.011 C 132.328 173.600, 133 176.206, 133 177.802 C 133 181.774, 129.068 187.286, 125.469 188.360 C 117.531 190.729, 118 189.941, 118 200.907 C 118 208.619, 118.353 211.211, 119.571 212.429 C 123.195 216.052, 125 213.249, 125 204.001 L 125 196.402 128.414 195.167 C 130.292 194.488, 133.416 192.175, 135.358 190.026 C 145.393 178.918, 138.441 160.497, 123.495 158.593 C 121.298 158.313, 118.269 158.475, 116.764 158.952 M 31.463 167.591 C 14.076 173.765, 8.232 197.396, 20.536 211.771 C 23.933 215.739, 29.766 219.219, 35.250 220.550 L 38 221.217 38 193.608 C 38 172.146, 37.722 166.018, 36.750 166.079 C 36.063 166.122, 33.683 166.803, 31.463 167.591 M 46 193.500 C 46 208.625, 46.168 221, 46.374 221 C 46.580 221, 48.646 220.331, 50.965 219.512 C 61.486 215.800, 69 204.962, 69 193.500 C 69 182.038, 61.486 171.200, 50.965 167.488 C 48.646 166.669, 46.580 166, 46.374 166 C 46.168 166, 46 178.375, 46 193.500 M 119.616 222.527 C 118.727 223.416, 118 224.529, 118 225 C 118 226.389, 121.140 229.120, 122.295 228.735 C 124.395 228.035, 125.549 225.094, 124.423 223.310 C 122.905 220.902, 121.474 220.669, 119.616 222.527 " stroke="none" fill="black" fill-rule="evenodd"/>
</svg>