<svg xmlns="http://www.w3.org/2000/svg" width="403" height="324" viewBox="0 0 403 324" version="1.1">
	<path d="M 327.750 127.080 C 326.150 128.012, 326 130.476, 326 155.858 L 326 183.617 318.250 179.815 C 300.713 171.212, 282.187 173.068, 266.367 185.013 C 260.776 189.234, 259.108 192.220, 261.040 194.548 C 262.922 196.816, 264.513 196.317, 269.689 191.835 C 277.017 185.491, 283.924 182.773, 294.098 182.229 C 304.785 181.658, 311.397 183.414, 319.872 189.074 L 326 193.165 326 221.301 L 326 249.437 320.120 243.619 C 314.896 238.450, 314.004 237.927, 312.120 238.936 C 308.640 240.798, 309.626 243.076, 317.225 250.726 L 324.450 258 317.225 265.274 C 309.626 272.924, 308.640 275.202, 312.120 277.064 C 314.004 278.073, 314.896 277.550, 320.120 272.381 L 326 266.563 326 279.246 C 326 291.037, 326.145 292.007, 328.064 293.034 C 332.177 295.236, 333 292.934, 333 279.225 L 333 266.696 338.976 272.396 C 344.153 277.334, 345.223 277.951, 346.976 277.013 C 350.355 275.204, 349.321 272.870, 341.775 265.274 L 334.550 258 341.775 250.726 C 349.321 243.130, 350.355 240.796, 346.976 238.987 C 345.223 238.049, 344.153 238.666, 338.976 243.604 L 333 249.304 333 225.335 L 333 201.365 339.750 204.671 C 356.388 212.820, 375.129 210.693, 390.778 198.878 C 396.367 194.658, 397.305 191.835, 393.838 189.663 C 392.521 188.838, 391.055 189.486, 386.787 192.779 C 377.301 200.097, 373.072 201.500, 360.500 201.500 C 350.652 201.500, 348.900 201.219, 343.768 198.814 C 340.616 197.336, 336.903 194.994, 335.518 193.609 L 333 191.091 333 159.745 C 333 125.523, 332.779 124.151, 327.750 127.080 M 194.355 158.998 C 183.822 161.188, 174.117 169.138, 169.329 179.500 C 165.372 188.063, 165.372 198.937, 169.329 207.500 C 181.749 234.379, 218.029 235.724, 232.070 209.826 C 235.326 203.820, 235.500 202.994, 235.499 193.500 C 235.499 184.448, 235.227 182.979, 232.639 178 C 225.375 164.029, 209.073 155.938, 194.355 158.998 M 191.885 167.380 C 176.986 172.704, 169.526 190.094, 175.929 204.573 C 180.388 214.659, 188.281 220.062, 199.616 220.789 C 206.399 221.224, 207.556 221.001, 213.397 218.125 C 225.374 212.229, 231.511 198.958, 228.096 186.337 C 224.933 174.647, 213.616 165.959, 201.663 166.044 C 198.273 166.068, 193.873 166.669, 191.885 167.380 M 127.870 191.049 C 108.261 194.007, 90.431 205.787, 80.149 222.579 C 76.174 229.070, 72.383 239.140, 71.512 245.517 C 70.228 254.921, 73.703 254, 39.504 254 C 13.236 254, 8.931 254.212, 7.571 255.571 C 5.598 257.545, 5.598 258.455, 7.571 260.429 C 8.900 261.758, 12.389 262, 30.188 262 L 51.233 262 47.660 265.955 C 31.947 283.347, 37.048 310.168, 58.151 321.114 C 64.789 324.557, 78.464 324.957, 86.469 321.941 C 93.556 319.271, 101.430 311.924, 104.885 304.758 C 110.930 292.217, 108.597 276.201, 99.212 265.813 L 95.803 262.040 117.543 261.770 C 136.984 261.529, 139.400 261.315, 140.387 259.750 C 141.191 258.474, 141.191 257.526, 140.386 256.250 C 139.381 254.655, 136.559 254.477, 108.505 254.235 L 77.728 253.971 78.373 248.485 C 80.420 231.067, 93.525 212.797, 109.877 204.562 C 118.141 200.400, 123.509 198.859, 132.396 198.094 C 139.982 197.441, 142.495 195.605, 140.394 192.250 C 139.112 190.203, 135.668 189.873, 127.870 191.049 M 199.750 191.080 C 197.372 192.465, 197.542 195.685, 200.064 197.034 C 203.753 199.008, 206.819 194.219, 203.800 191.200 C 202.367 189.767, 202.022 189.757, 199.750 191.080 M 167.585 255.558 C 166.713 256.430, 166 257.529, 166 258 C 166 258.471, 166.713 259.570, 167.585 260.442 C 168.978 261.835, 173.159 261.995, 202.226 261.763 C 232.452 261.523, 235.377 261.350, 236.386 259.750 C 237.191 258.474, 237.191 257.526, 236.386 256.250 C 235.377 254.650, 232.452 254.477, 202.226 254.237 C 173.159 254.005, 168.978 254.165, 167.585 255.558 M 63.627 263.468 C 58.247 265.386, 53.039 269.829, 49.500 275.519 C 46.741 279.955, 46.500 281.073, 46.500 289.422 C 46.500 297.524, 46.796 299.003, 49.249 303.176 C 57.926 317.937, 77.604 321.610, 91.031 310.976 C 96.751 306.445, 101 297.292, 101 289.500 C 101 278.038, 93.486 267.200, 82.965 263.488 C 77.743 261.645, 68.766 261.636, 63.627 263.468 " stroke="none" fill="black" fill-rule="evenodd"/>
</svg>