<svg xmlns="http://www.w3.org/2000/svg" width="244" height="324" viewBox="0 0 244 324" version="1.1">
	<path d="M 72.316 62.784 C 70.369 64.022, 54.007 97.855, 54.604 99.410 C 55.269 101.144, 57.524 102.120, 59.295 101.440 C 60.007 101.167, 63.480 95.106, 67.014 87.972 C 70.547 80.837, 73.691 75, 74 75 C 74.309 75, 77.453 80.837, 80.986 87.972 C 84.520 95.106, 87.993 101.167, 88.705 101.440 C 90.487 102.124, 92.732 101.141, 93.407 99.381 C 93.997 97.844, 77.582 64.037, 75.628 62.765 C 74.214 61.845, 73.789 61.847, 72.316 62.784 M 194.355 158.986 C 183.790 161.214, 174.114 169.146, 169.329 179.500 C 165.374 188.059, 165.386 198.895, 169.361 207.610 C 172.861 215.285, 179.689 222.075, 187.480 225.629 C 195.387 229.236, 205.732 229.409, 214.297 226.077 C 221.354 223.331, 229.569 215.634, 233.056 208.500 C 235.152 204.212, 235.500 202.075, 235.500 193.500 C 235.500 181.367, 233.450 176.286, 225.353 168.339 C 217.361 160.497, 204.948 156.752, 194.355 158.986 M 191.627 167.468 C 186.247 169.386, 181.039 173.829, 177.500 179.519 C 173.527 185.908, 172.712 197.311, 175.741 204.129 C 180.446 214.717, 188.286 220.123, 199.883 220.774 C 206.994 221.173, 207.926 220.979, 213.911 217.851 C 234.057 207.321, 234.024 179.164, 213.854 169.085 C 206.871 165.595, 198.574 164.992, 191.627 167.468 M 39.267 223.267 C 20.970 241.563, 6 257.056, 6 257.695 C 6 258.334, 6.707 259.564, 7.571 260.429 C 8.968 261.825, 16.372 262, 74 262 C 131.628 262, 139.032 261.825, 140.429 260.429 C 141.293 259.564, 142 258.334, 142 257.695 C 142 255.982, 75.721 190, 74 190 C 73.193 190, 57.563 204.970, 39.267 223.267 M 46.500 227 L 19.514 254 74 254 L 128.486 254 101.500 227 C 86.658 212.150, 74.283 200, 74 200 C 73.717 200, 61.342 212.150, 46.500 227 M 167.585 255.558 C 166.713 256.430, 166 257.529, 166 258 C 166 258.471, 166.713 259.570, 167.585 260.442 C 168.978 261.835, 173.159 261.995, 202.226 261.763 C 232.452 261.523, 235.377 261.350, 236.386 259.750 C 237.191 258.474, 237.191 257.526, 236.386 256.250 C 235.377 254.650, 232.452 254.477, 202.226 254.237 C 173.159 254.005, 168.978 254.165, 167.585 255.558 " stroke="none" fill="black" fill-rule="evenodd"/>
</svg>