<svg xmlns="http://www.w3.org/2000/svg" width="436" height="324" viewBox="0 0 436 324" version="1.1">
	<path d="M 55.571 63.571 C 54.707 64.436, 54 65.317, 54 65.531 C 54 66.316, 71.159 100.529, 71.965 101.349 C 74.297 103.725, 76.927 100.197, 85.239 83.541 C 90.036 73.928, 93.710 65.408, 93.403 64.609 C 92.732 62.858, 90.483 61.877, 88.705 62.560 C 87.993 62.833, 84.520 68.894, 80.986 76.028 C 77.453 83.163, 74.308 89, 73.997 89 C 73.687 89, 70.748 83.534, 67.467 76.853 C 59.925 61.499, 58.847 60.296, 55.571 63.571 M 7.571 127.571 C 6.175 128.968, 6 136.372, 6 194 C 6 251.628, 6.175 259.032, 7.571 260.429 C 8.968 261.825, 16.372 262, 74 262 C 131.628 262, 139.032 261.825, 140.429 260.429 C 141.825 259.032, 142 251.628, 142 194 C 142 136.372, 141.825 128.968, 140.429 127.571 C 139.032 126.175, 131.628 126, 74 126 C 16.372 126, 8.968 126.175, 7.571 127.571 M 391.750 127.080 C 390.113 128.034, 390 132.152, 390 191.050 L 390 254 375.934 254 C 361.308 254, 358 254.738, 358 258 C 358 261.750, 360.791 262.037, 394.601 261.764 C 424.469 261.523, 427.378 261.349, 428.386 259.750 C 429.190 258.475, 429.191 257.525, 428.387 256.250 C 427.430 254.730, 425.291 254.464, 412.142 254.224 L 397 253.948 397 191.174 C 397 123.280, 397.058 123.988, 391.750 127.080 M 14 194 L 14 254 74 254 L 134 254 134 194 L 134 134 74 134 L 14 134 14 194 M 167.571 191.571 C 166.707 192.436, 166 193.640, 166 194.249 C 166 194.857, 172.844 202.250, 181.208 210.677 L 196.416 226 181.208 241.323 C 172.844 249.750, 166 257.143, 166 257.751 C 166 259.181, 168.819 262, 170.249 262 C 170.857 262, 178.250 255.156, 186.677 246.792 L 202 231.584 217.323 246.792 C 225.750 255.156, 233.143 262, 233.751 262 C 235.181 262, 238 259.181, 238 257.751 C 238 257.143, 231.156 249.750, 222.792 241.323 L 207.584 226 222.792 210.677 C 231.156 202.250, 238 194.857, 238 194.249 C 238 192.819, 235.181 190, 233.751 190 C 233.143 190, 225.750 196.844, 217.323 205.208 L 202 220.416 186.677 205.208 C 178.250 196.844, 170.857 190, 170.249 190 C 169.640 190, 168.436 190.707, 167.571 191.571 M 263.571 191.571 C 262.707 192.436, 262 193.640, 262 194.249 C 262 194.857, 268.844 202.250, 277.208 210.677 L 292.416 226 277.208 241.323 C 268.844 249.750, 262 257.143, 262 257.751 C 262 259.181, 264.819 262, 266.249 262 C 266.857 262, 274.250 255.156, 282.677 246.792 L 298 231.584 313.323 246.792 C 321.750 255.156, 329.085 262, 329.623 262 C 331.244 262, 333 259.725, 333 257.625 C 333 256.420, 327.267 249.871, 318.293 240.825 L 303.586 226 318.293 211.175 C 327.267 202.129, 333 195.580, 333 194.375 C 333 192.275, 331.244 190, 329.623 190 C 329.085 190, 321.750 196.844, 313.323 205.208 L 298 220.416 282.677 205.208 C 274.250 196.844, 266.857 190, 266.249 190 C 265.640 190, 264.436 190.707, 263.571 191.571 " stroke="none" fill="black" fill-rule="evenodd"/>
</svg>