<svg xmlns="http://www.w3.org/2000/svg" width="244" height="324" viewBox="0 0 244 324" version="1.1">
	<path d="M 40.372 62.765 C 38.418 64.037, 22.003 97.844, 22.593 99.381 C 23.268 101.141, 25.513 102.124, 27.295 101.440 C 28.007 101.167, 31.480 95.106, 35.014 87.972 C 38.547 80.837, 41.691 75, 42 75 C 42.309 75, 45.453 80.837, 48.986 87.972 C 52.520 95.106, 56.076 101.199, 56.889 101.511 C 57.701 101.823, 59.219 101.225, 60.261 100.183 C 62.121 98.324, 61.994 97.966, 53.456 80.894 C 45.647 65.280, 43.673 62.031, 42 62.031 C 41.725 62.031, 40.992 62.361, 40.372 62.765 M 222.660 135.250 C 208.589 149.460, 201.513 163.913, 198.855 183.874 C 196.631 200.575, 200.421 219.113, 209.306 235 C 214.605 244.476, 230.796 261.317, 234.130 260.822 C 235.321 260.645, 236.792 259.695, 237.398 258.712 C 238.338 257.187, 237.533 256.057, 231.925 251.031 C 208.176 229.747, 199.733 198.696, 209.619 169 C 213.328 157.857, 219.277 148.574, 228.681 139.255 C 237.071 130.939, 237.988 129.388, 235.800 127.200 C 233.546 124.946, 231.815 126.006, 222.660 135.250 M 35.045 159.064 C 13.497 163.427, 1.173 185.901, 9.037 206.493 C 12.164 214.680, 20.320 222.836, 28.507 225.963 C 41.989 231.112, 56.191 228.077, 66.149 217.918 C 76.006 207.863, 78.904 193.837, 73.893 180.443 C 68.367 165.675, 50.623 155.909, 35.045 159.064 M 31.627 167.468 C 26.302 169.367, 21.047 173.815, 17.618 179.328 C 14.254 184.737, 13.041 194.780, 14.916 201.708 C 16.446 207.361, 21.544 213.823, 27.266 217.361 C 33.473 221.198, 43.261 222.070, 51.058 219.481 C 69.624 213.314, 75.164 188.069, 61.048 173.952 C 53.696 166.601, 41.563 163.927, 31.627 167.468 M 136.348 190.765 C 134.390 192.014, 102.011 257.865, 102.600 259.400 C 103.451 261.618, 106.109 262.213, 107.895 260.584 C 108.778 259.779, 115.794 246.493, 123.486 231.060 C 131.178 215.627, 137.709 203, 138 203 C 138.290 203, 145.036 216.041, 152.990 231.980 C 160.944 247.919, 168.083 261.201, 168.853 261.497 C 170.717 262.213, 173 260.217, 173 257.871 C 173 255.637, 141.272 191.833, 139.630 190.765 C 139.009 190.361, 138.275 190.031, 138 190.031 C 137.725 190.031, 136.981 190.361, 136.348 190.765 " stroke="none" fill="black" fill-rule="evenodd"/>
</svg>