<svg xmlns="http://www.w3.org/2000/svg" width="340" height="324" viewBox="0 0 340 324" version="1.1">
	<path d="M 35.045 127.092 C 18.472 130.341, 6.748 144.597, 6.748 161.500 C 6.748 178.585, 17.910 192.035, 35.500 196.146 C 38.250 196.789, 46.677 197.492, 54.227 197.710 L 67.954 198.105 52.993 228.013 C 44.765 244.463, 38.285 258.580, 38.594 259.384 C 39.265 261.133, 41.512 262.125, 43.274 261.448 C 43.975 261.180, 51.056 247.919, 59.010 231.980 C 66.964 216.041, 73.717 203, 74.016 203 C 74.315 203, 81.042 216.034, 88.965 231.964 C 96.888 247.894, 103.962 261.155, 104.685 261.433 C 105.408 261.710, 106.573 261.717, 107.274 261.448 C 107.975 261.180, 115.056 247.919, 123.010 231.980 C 130.964 216.041, 137.710 203, 138 203 C 138.290 203, 145.036 216.041, 152.990 231.980 C 160.944 247.919, 168.083 261.201, 168.853 261.497 C 170.718 262.213, 173 260.217, 173 257.871 C 173 256.835, 166.480 242.952, 158.511 227.021 L 144.021 198.056 157.653 197.778 C 169.361 197.539, 171.441 197.253, 172.388 195.750 C 173.191 194.475, 173.190 193.525, 172.387 192.250 C 171.359 190.620, 166.648 190.463, 103.892 189.965 C 27.298 189.357, 30.623 189.719, 21.952 181.048 C 14.382 173.477, 11.995 162.241, 15.667 151.463 C 18.862 142.088, 29.949 134, 39.607 134 C 42.663 134, 46 131.912, 46 130 C 46 128.488, 42.912 125.996, 41.179 126.110 C 40.255 126.170, 37.495 126.612, 35.045 127.092 M 225.500 191.364 C 218.664 193.110, 214.523 195.430, 208.972 200.623 C 194.895 213.790, 194.902 237.216, 208.987 250.392 C 214.772 255.802, 219.730 258.403, 227.198 259.944 C 237.607 262.092, 249.252 258.558, 257.358 250.790 L 262 246.343 262 252.600 C 262 258.457, 263.459 262, 265.871 262 C 268.433 262, 269 258.884, 269 244.800 L 269 230 297.500 230 L 326 230 326 244.965 C 326 259.181, 326.106 259.986, 328.117 261.062 C 332.830 263.585, 333.043 262.068, 333.043 226 C 333.043 189.932, 332.830 188.415, 328.117 190.938 C 326.106 192.014, 326 192.819, 326 207.035 L 326 222 297.500 222 L 269 222 269 207.200 C 269 193.116, 268.433 190, 265.871 190 C 263.545 190, 262 193.541, 262 198.872 L 262 204.602 256.938 199.850 C 248.730 192.143, 235.949 188.694, 225.500 191.364 M 92.743 223.500 C 99.750 237.525, 105.715 249, 106 249 C 106.285 249, 112.250 237.525, 119.257 223.500 L 131.995 198 106 198 L 80.005 198 92.743 223.500 M 223.627 199.468 C 218.247 201.386, 213.039 205.829, 209.500 211.519 C 205.527 217.908, 204.712 229.311, 207.741 236.129 C 212.181 246.120, 220.127 251.919, 230.521 252.754 C 242.446 253.711, 252.036 248.794, 257.500 238.921 C 260.132 234.166, 260.500 232.518, 260.500 225.500 C 260.500 218.487, 260.130 216.829, 257.500 212.061 C 254.429 206.492, 248.651 201.526, 242.684 199.326 C 238.327 197.720, 228.323 197.794, 223.627 199.468 " stroke="none" fill="black" fill-rule="evenodd"/>
</svg>