<svg xmlns="http://www.w3.org/2000/svg" width="148" height="324" viewBox="0 0 148 324" version="1.1">
	<path d="M 39.550 62.918 C 35.869 68.875, 22.190 98.331, 22.604 99.410 C 23.269 101.144, 25.524 102.120, 27.295 101.440 C 28.007 101.167, 31.480 95.106, 35.014 87.972 C 38.547 80.837, 41.691 75, 42 75 C 42.309 75, 45.453 80.837, 48.986 87.972 C 52.520 95.106, 55.993 101.167, 56.705 101.440 C 58.487 102.124, 60.732 101.141, 61.407 99.381 C 61.997 97.844, 45.582 64.037, 43.628 62.765 C 42.071 61.751, 40.229 61.820, 39.550 62.918 M 7.571 159.571 C 6.207 160.936, 6 165.463, 6 194 C 6 222.537, 6.207 227.064, 7.571 228.429 C 8.936 229.793, 13.463 230, 42 230 C 70.537 230, 75.064 229.793, 76.429 228.429 C 77.712 227.145, 78 224.212, 78 212.429 L 78 198 103.236 198 L 128.472 198 115.236 211.263 C 107.956 218.558, 102 225.292, 102 226.228 C 102 228.579, 105.514 230.330, 107.788 229.113 C 109.828 228.022, 142 194.951, 142 193.945 C 142 192.939, 109.856 159.994, 107.802 158.894 C 105.514 157.669, 102 159.412, 102 161.772 C 102 162.708, 107.956 169.442, 115.236 176.737 L 128.472 190 103.236 190 L 78 190 78 175.571 C 78 163.788, 77.712 160.855, 76.429 159.571 C 75.064 158.207, 70.537 158, 42 158 C 13.463 158, 8.936 158.207, 7.571 159.571 M 14 194 L 14 222 42 222 L 70 222 70 194 L 70 166 42 166 L 14 166 14 194 " stroke="none" fill="black" fill-rule="evenodd"/>
</svg>