<svg xmlns="http://www.w3.org/2000/svg" width="212" height="324" viewBox="0 0 212 324" version="1.1">
	<path d="M 55.571 63.571 C 54.707 64.436, 54 65.332, 54 65.564 C 54 65.796, 57.934 73.868, 62.741 83.502 C 71.072 100.196, 73.702 103.726, 76.035 101.349 C 78.136 99.210, 93.885 65.863, 93.396 64.590 C 92.731 62.856, 90.476 61.880, 88.705 62.560 C 87.993 62.833, 84.520 68.894, 80.986 76.028 C 77.453 83.163, 74.308 89, 73.997 89 C 73.687 89, 70.748 83.534, 67.467 76.853 C 59.925 61.499, 58.847 60.296, 55.571 63.571 M 103.571 159.571 C 102.707 160.436, 101.995 161.673, 101.990 162.321 C 101.984 162.970, 108.047 169.463, 115.464 176.750 L 128.948 190 69.045 190 C 15.922 190, 8.965 190.178, 7.571 191.571 C 5.598 193.545, 5.598 194.455, 7.571 196.429 C 8.965 197.822, 15.905 198, 68.862 198 L 128.582 198 115.291 211.291 C 107.981 218.601, 102 225.094, 102 225.719 C 102 227.179, 104.805 230, 106.257 230 C 108.006 230, 142 195.761, 142 194 C 142 192.239, 108.006 158, 106.257 158 C 105.644 158, 104.436 158.707, 103.571 159.571 M 167.557 160.223 C 166.254 162.082, 166 166.310, 166 186.112 C 166 207.494, 166.175 209.995, 167.817 212.022 C 169.364 213.933, 169.958 214.093, 171.817 213.098 C 173.975 211.943, 174 211.631, 174 186 C 174 161.388, 173.902 160.018, 172.066 159.035 C 169.462 157.642, 169.343 157.673, 167.557 160.223 M 168.200 222.200 C 165.181 225.219, 168.247 230.008, 171.936 228.034 C 174.536 226.643, 174.606 223.395, 172.066 222.035 C 169.655 220.745, 169.655 220.745, 168.200 222.200 " stroke="none" fill="black" fill-rule="evenodd"/>
</svg>