<svg xmlns="http://www.w3.org/2000/svg" width="308" height="324" viewBox="0 0 308 324" version="1.1">
	<path d="M 39.571 127.571 C 38.288 128.855, 38 131.788, 38 143.571 L 38 158 23.571 158 C 11.788 158, 8.855 158.288, 7.571 159.571 C 5.598 161.545, 5.598 162.455, 7.571 164.429 C 8.820 165.677, 11.534 166, 20.774 166 L 32.405 166 19.202 179.333 C 11.941 186.666, 6 193.159, 6 193.761 C 6 195.178, 8.822 198, 10.239 198 C 10.841 198, 17.334 192.059, 24.667 184.798 L 38 171.595 38 196.798 L 38 222 23.571 222 C 11.788 222, 8.855 222.288, 7.571 223.571 C 6.707 224.436, 6 225.529, 6 226 C 6 226.471, 6.707 227.564, 7.571 228.429 C 8.855 229.712, 11.788 230, 23.571 230 L 38 230 38 244.429 C 38 256.212, 38.288 259.145, 39.571 260.429 C 40.436 261.293, 41.529 262, 42 262 C 42.471 262, 43.564 261.293, 44.429 260.429 C 45.712 259.145, 46 256.212, 46 244.429 L 46 230 74 230 L 102 230 102 244.429 C 102 256.212, 102.288 259.145, 103.571 260.429 C 105.678 262.535, 106.598 262.412, 108.443 259.777 C 109.669 258.028, 110 254.631, 110 243.804 L 110 230.053 124.643 229.777 C 137.314 229.537, 139.433 229.264, 140.387 227.750 C 141.191 226.475, 141.191 225.525, 140.387 224.250 C 139.433 222.736, 137.314 222.463, 124.643 222.223 L 110 221.947 110 196.771 L 110 171.595 123.333 184.798 C 130.666 192.059, 137.101 198, 137.633 198 C 139.132 198, 141.005 195.770, 140.951 194.050 C 140.924 193.198, 135.318 186.650, 128.493 179.500 L 116.083 166.500 127.686 166 C 137.302 165.586, 139.478 165.200, 140.389 163.750 C 141.190 162.477, 141.190 161.523, 140.387 160.250 C 139.433 158.736, 137.314 158.463, 124.643 158.223 L 110 157.947 110 144.196 C 110 133.369, 109.669 129.972, 108.443 128.223 C 106.598 125.588, 105.678 125.465, 103.571 127.571 C 102.323 128.820, 102 131.534, 102 140.774 L 102 152.405 88.667 139.202 C 81.334 131.941, 74.703 126, 73.930 126 C 73.158 126, 66.558 131.956, 59.263 139.236 L 46 152.472 46 140.808 C 46 131.537, 45.678 128.820, 44.429 127.571 C 43.564 126.707, 42.471 126, 42 126 C 41.529 126, 40.436 126.707, 39.571 127.571 M 167.200 127.200 C 165.465 128.935, 165.465 259.065, 167.200 260.800 C 168.935 262.535, 298.065 262.535, 299.800 260.800 C 301.535 259.065, 301.535 128.935, 299.800 127.200 C 298.065 125.465, 168.935 125.465, 167.200 127.200 M 173 194 L 173 254 233.500 254 L 294 254 294 194 L 294 134 233.500 134 L 173 134 173 194 M 62.500 147 L 51.534 158 74 158 L 96.466 158 85.500 147 C 79.469 140.950, 74.294 136, 74 136 C 73.706 136, 68.531 140.950, 62.500 147 M 225.746 159.086 C 215.627 161.471, 205.959 169.313, 201.205 178.993 C 198.873 183.740, 198.500 185.743, 198.500 193.500 C 198.500 201.257, 198.873 203.260, 201.205 208.007 C 208.717 223.303, 225.518 231.545, 241.066 227.562 C 276.625 218.452, 276.964 168.779, 241.530 159.550 C 235.001 157.849, 231.437 157.744, 225.746 159.086 M 46 194 L 46 222 74 222 L 102 222 102 194 L 102 166 74 166 L 46 166 46 194 M 224.994 166.934 C 205.612 172.830, 199.176 198.099, 213.301 212.838 C 220.789 220.650, 233.836 223.277, 243.820 218.982 C 253.439 214.844, 261 203.630, 261 193.500 C 261 183.480, 253.989 172.797, 244.500 168.358 C 239.347 165.948, 230.386 165.294, 224.994 166.934 M 231.750 191.080 C 229.372 192.465, 229.542 195.685, 232.064 197.034 C 235.753 199.008, 238.819 194.219, 235.800 191.200 C 234.367 189.767, 234.022 189.757, 231.750 191.080 " stroke="none" fill="black" fill-rule="evenodd"/>
</svg>