<svg xmlns="http://www.w3.org/2000/svg" width="308" height="324" viewBox="0 0 308 324" version="1.1">
	<path d="M 223.531 127.113 C 195.888 131.140, 173.141 152.778, 167.530 180.384 C 166.648 184.720, 165.448 189.163, 164.862 190.259 C 164.137 191.613, 164.117 192.930, 164.800 194.375 C 165.352 195.544, 166.546 200.550, 167.452 205.500 C 173.845 240.404, 206.700 264.696, 241.138 259.981 C 271.237 255.860, 294.109 233.888, 299.065 204.334 C 299.696 200.576, 300.690 196.488, 301.275 195.250 C 302.029 193.653, 302.023 192.347, 301.252 190.750 C 300.655 189.512, 299.641 185.575, 298.999 182 C 293.933 153.812, 272.568 132.614, 244 127.431 C 235.603 125.907, 232.177 125.854, 223.531 127.113 M 218 135.520 C 204.250 139.286, 189.343 150.433, 182.192 162.299 C 178.806 167.917, 174.308 179.642, 175.197 180.531 C 175.470 180.803, 178.261 179.890, 181.400 178.502 C 196.554 171.800, 214.878 173.772, 229.192 183.645 L 232.883 186.191 236.234 183.635 C 249.683 173.377, 269.506 171.638, 285.250 179.335 C 288.962 181.150, 292 182.573, 292 182.499 C 292 182.424, 291.282 179.919, 290.404 176.932 C 285.035 158.664, 270.501 143.249, 252.723 136.966 C 244.518 134.066, 226.108 133.300, 218 135.520 M 187.061 184.028 C 181.041 186.193, 174 190.491, 174 192.002 C 174 192.537, 175.912 194.185, 178.250 195.665 C 192.276 204.542, 212.173 203.970, 224.816 194.327 L 228.241 191.714 222.871 188.324 C 219.917 186.460, 215.281 184.274, 212.568 183.467 C 205.548 181.378, 193.705 181.639, 187.061 184.028 M 251.061 183.972 C 244.987 186.219, 238 190.514, 238 192 C 238 193.572, 245.165 197.857, 251.566 200.114 C 263.233 204.227, 280.453 201.481, 289 194.146 L 291.500 192 289 189.854 C 287.625 188.674, 284.025 186.556, 281 185.146 C 273.354 181.584, 259.034 181.023, 251.061 183.972 M 7.579 191.564 C 5.598 193.545, 5.596 194.454, 7.571 196.429 C 8.844 197.701, 11.697 198, 22.575 198 L 36.006 198 21.020 227.961 C 12.777 244.439, 6.285 258.580, 6.594 259.384 C 7.265 261.133, 9.512 262.125, 11.274 261.448 C 11.975 261.180, 19.056 247.919, 27.010 231.980 C 34.964 216.041, 41.717 203, 42.016 203 C 42.315 203, 49.042 216.034, 56.965 231.964 C 64.888 247.894, 71.962 261.155, 72.685 261.433 C 73.408 261.710, 74.573 261.717, 75.274 261.448 C 75.975 261.180, 83.056 247.919, 91.010 231.980 C 98.964 216.041, 105.704 203.014, 105.986 203.030 C 106.269 203.047, 112.783 215.907, 120.462 231.609 C 128.260 247.552, 135.242 260.595, 136.276 261.148 C 138.536 262.357, 141 260.648, 141 257.871 C 141 256.835, 134.480 242.952, 126.511 227.021 L 112.021 198.056 125.653 197.778 C 137.361 197.539, 139.441 197.253, 140.388 195.750 C 141.191 194.475, 141.190 193.525, 140.386 192.250 C 139.356 190.617, 134.934 190.483, 74.220 190.243 C 16.058 190.013, 8.990 190.153, 7.579 191.564 M 199.750 191.080 C 197.372 192.465, 197.542 195.685, 200.064 197.034 C 203.753 199.008, 206.819 194.219, 203.800 191.200 C 202.367 189.767, 202.022 189.757, 199.750 191.080 M 263.724 191.134 C 259.838 193.309, 263.294 198.983, 267.224 196.880 C 268.201 196.357, 269 195.061, 269 194 C 269 191.485, 266.005 189.858, 263.724 191.134 M 60.743 223.500 C 67.750 237.525, 73.715 249, 74 249 C 74.285 249, 80.250 237.525, 87.257 223.500 L 99.995 198 74 198 L 48.005 198 60.743 223.500 M 229.698 200.023 C 221.889 206.165, 205.614 210.739, 196.114 209.461 C 190.384 208.690, 182.712 206.335, 177.655 203.794 L 173.811 201.863 174.513 205.181 C 177.171 217.743, 182.921 227.805, 192.653 236.926 C 200.503 244.283, 209.047 249.029, 219.060 251.594 C 227.800 253.833, 244.050 253.075, 252.723 250.024 C 270.475 243.779, 285.033 228.342, 290.404 210.068 C 293.057 201.042, 292.930 200.910, 285.250 204.671 C 269.605 212.334, 249.676 210.617, 236.359 200.460 C 232.481 197.502, 232.870 197.528, 229.698 200.023 " stroke="none" fill="black" fill-rule="evenodd"/>
</svg>