<svg xmlns="http://www.w3.org/2000/svg" width="276" height="324" viewBox="0 0 276 324" version="1.1">
	<path d="M 40.316 62.784 C 38.369 64.022, 22.007 97.855, 22.604 99.410 C 23.269 101.144, 25.524 102.120, 27.295 101.440 C 28.007 101.167, 31.480 95.106, 35.014 87.972 C 38.547 80.837, 41.691 75, 42 75 C 42.309 75, 45.453 80.837, 48.986 87.972 C 52.520 95.106, 55.993 101.167, 56.705 101.440 C 58.476 102.120, 60.731 101.144, 61.396 99.410 C 61.993 97.855, 45.631 64.022, 43.684 62.784 C 42.206 61.844, 41.794 61.844, 40.316 62.784 M 7.571 127.571 C 6.175 128.968, 6 136.372, 6 194 C 6 251.628, 6.175 259.032, 7.571 260.429 C 8.436 261.293, 9.666 262, 10.305 262 C 12.018 262, 78 195.721, 78 194 C 78 192.279, 12.018 126, 10.305 126 C 9.666 126, 8.436 126.707, 7.571 127.571 M 130.223 127.012 C 119.933 129.160, 109.981 137.443, 105.216 147.825 C 101.512 155.894, 101.512 167.106, 105.216 175.175 C 110.017 185.635, 120.144 194.040, 129.807 195.585 L 134 196.256 134 227.556 C 134 254.678, 134.210 259.067, 135.571 260.429 C 136.436 261.293, 137.529 262, 138 262 C 138.471 262, 139.564 261.293, 140.429 260.429 C 141.790 259.067, 142 254.677, 142 227.540 L 142 196.223 145.703 195.528 C 158.283 193.168, 169.284 181.405, 172.013 167.396 C 176.589 143.912, 153.969 122.054, 130.223 127.012 M 215.213 143.315 C 205.746 152.838, 198 161.131, 198 161.743 C 198 163.175, 200.813 166, 202.239 166 C 202.841 166, 209.334 160.059, 216.667 152.798 L 230 139.595 230 199.226 C 230 252.103, 230.178 259.035, 231.571 260.429 C 232.436 261.293, 233.529 262, 234 262 C 234.471 262, 235.564 261.293, 236.429 260.429 C 237.822 259.035, 238 252.103, 238 199.226 L 238 139.595 251.333 152.798 C 258.666 160.059, 265.159 166, 265.761 166 C 267.187 166, 270 163.175, 270 161.743 C 270 159.994, 235.761 126, 234 126 C 233.134 126, 224.680 133.792, 215.213 143.315 M 127.054 135.728 C 121.018 137.859, 113.781 145.260, 111.667 151.463 C 108.117 161.882, 110.321 173.066, 117.347 180.280 C 122.744 185.822, 128.047 188.291, 135.659 188.805 C 147.162 189.582, 157.604 183.621, 162.467 173.500 C 165.171 167.874, 165.632 158.419, 163.514 152.042 C 161.290 145.346, 153.926 137.844, 147.392 135.618 C 141.504 133.612, 132.916 133.658, 127.054 135.728 M 14 194 L 14 248.495 41.248 221.248 L 68.495 194 41.248 166.752 L 14 139.505 14 194 " stroke="none" fill="black" fill-rule="evenodd"/>
</svg>