<svg xmlns="http://www.w3.org/2000/svg" width="148" height="324" viewBox="0 0 148 324" version="1.1">
	<path d="M 55.571 63.571 C 54.707 64.436, 54 65.317, 54 65.531 C 54 66.316, 71.159 100.529, 71.965 101.349 C 74.275 103.702, 76.913 100.229, 84.760 84.501 C 89.292 75.417, 93 67.143, 93 66.115 C 93 63.770, 90.710 61.790, 88.832 62.511 C 88.050 62.811, 84.520 68.894, 80.986 76.028 C 77.453 83.163, 74.308 89, 73.997 89 C 73.687 89, 70.748 83.534, 67.467 76.853 C 59.925 61.499, 58.847 60.296, 55.571 63.571 M 71.571 127.571 C 70.220 128.922, 70 132.932, 70 156.155 C 70 171.011, 69.662 182.996, 69.250 182.788 C 53.760 174.977, 45.799 173.198, 34.434 175.007 C 21.573 177.054, 4.402 187.776, 5.183 193.271 C 5.738 197.173, 9.568 196.653, 14.627 191.990 C 27.871 179.782, 50.585 178.668, 65.250 189.508 L 70 193.019 70 220.712 L 70 248.405 56.667 235.202 C 49.334 227.941, 42.841 222, 42.239 222 C 40.813 222, 38 224.825, 38 226.257 C 38 227.979, 72.224 261.999, 73.963 262.005 C 75.921 262.011, 108.913 228.025, 108.963 225.950 C 109.004 224.227, 107.127 222, 105.633 222 C 105.101 222, 98.666 227.941, 91.333 235.202 L 78 248.405 78 225.182 L 78 201.959 81.750 203.843 C 98.079 212.043, 116.922 211.133, 131.528 201.437 C 140.095 195.751, 141.974 192.272, 137.873 189.690 C 136.602 188.890, 135.271 189.464, 131.803 192.305 C 129.359 194.308, 124.692 197.195, 121.430 198.723 C 116.114 201.213, 114.401 201.500, 104.877 201.500 C 94.464 201.500, 94.100 201.421, 86.377 197.500 L 78.500 193.500 78 161.402 C 77.608 136.239, 77.203 128.947, 76.128 127.652 C 74.419 125.595, 73.563 125.580, 71.571 127.571 " stroke="none" fill="black" fill-rule="evenodd"/>
</svg>