<svg xmlns="http://www.w3.org/2000/svg" width="244" height="324" viewBox="0 0 244 324" version="1.1">
	<path d="M 23.571 63.571 C 22.707 64.436, 22 65.332, 22 65.564 C 22 67.123, 39.710 101.058, 40.727 101.449 C 41.427 101.717, 42.573 101.717, 43.274 101.448 C 44.863 100.839, 61 68.672, 61 66.115 C 61 63.770, 58.710 61.790, 56.832 62.511 C 56.050 62.811, 52.520 68.894, 48.986 76.028 C 45.453 83.163, 42.306 89, 41.994 89 C 41.683 89, 38.969 83.984, 35.964 77.854 C 30.437 66.580, 27.559 62, 25.999 62 C 25.528 62, 24.436 62.707, 23.571 63.571 M 71.616 63.527 C 70.727 64.416, 70 65.529, 70 66 C 70 67.389, 73.140 70.120, 74.295 69.735 C 76.395 69.035, 77.549 66.094, 76.423 64.310 C 74.905 61.902, 73.474 61.669, 71.616 63.527 M 222.640 135.278 C 208.421 149.712, 201.326 164.330, 198.880 184.233 C 196.791 201.231, 200.501 219.287, 209.306 234.972 C 214.647 244.487, 230.795 261.317, 234.112 260.824 C 235.313 260.646, 236.757 259.763, 237.322 258.863 C 238.160 257.525, 236.696 255.599, 229.346 248.363 C 223.895 242.996, 218.722 236.739, 216.230 232.500 C 207.887 218.305, 204.102 200.619, 206.061 184.975 C 208.366 166.567, 215.421 152.294, 228.647 139.283 C 237.051 131.016, 238.005 129.405, 235.800 127.200 C 233.533 124.933, 231.759 126.021, 222.640 135.278 M 103.616 159.527 C 102.727 160.416, 102 161.640, 102 162.249 C 102 162.857, 108.844 170.250, 117.208 178.677 L 132.416 194 117.208 209.323 C 108.844 217.750, 102 225.143, 102 225.751 C 102 227.198, 104.994 230.173, 106.068 229.795 C 107.353 229.342, 142 194.827, 142 194 C 142 193.173, 107.353 158.658, 106.068 158.205 C 105.608 158.043, 104.505 158.638, 103.616 159.527 M 135.616 159.527 C 134.727 160.416, 134 161.640, 134 162.249 C 134 162.857, 140.844 170.250, 149.208 178.677 L 164.416 194 149.208 209.323 C 140.844 217.750, 134 225.143, 134 225.751 C 134 227.207, 136.995 230.171, 138.087 229.795 C 139.273 229.386, 174 194.774, 174 194 C 174 193.226, 139.273 158.614, 138.087 158.205 C 137.617 158.043, 136.505 158.638, 135.616 159.527 M 40.370 190.765 C 38.401 192.045, 6.007 257.855, 6.594 259.384 C 7.265 261.133, 9.512 262.124, 11.274 261.448 C 11.975 261.180, 19.056 247.919, 27.010 231.980 C 34.964 216.041, 41.710 203, 42 203 C 42.290 203, 49.036 216.041, 56.990 231.980 C 64.944 247.919, 72.083 261.201, 72.853 261.497 C 74.717 262.213, 77 260.217, 77 257.871 C 77 255.637, 45.272 191.833, 43.630 190.765 C 43.009 190.361, 42.275 190.031, 42 190.031 C 41.725 190.031, 40.991 190.361, 40.370 190.765 " stroke="none" fill="black" fill-rule="evenodd"/>
</svg>