<svg xmlns="http://www.w3.org/2000/svg" width="372" height="324" viewBox="0 0 372 324" version="1.1">
	<path d="M 72.372 62.765 C 70.418 64.037, 54.003 97.844, 54.593 99.381 C 55.268 101.141, 57.513 102.124, 59.295 101.440 C 60.007 101.167, 63.480 95.106, 67.014 87.972 C 70.547 80.837, 73.691 75, 74 75 C 74.309 75, 77.453 80.837, 80.986 87.972 C 84.520 95.106, 87.993 101.167, 88.705 101.440 C 90.487 102.124, 92.732 101.141, 93.407 99.381 C 93.716 98.575, 90.096 90.173, 85.363 80.708 C 77.638 65.261, 75.672 62.031, 74 62.031 C 73.725 62.031, 72.992 62.361, 72.372 62.765 M 35.045 127.092 C 24.744 129.112, 14.837 136.518, 10.151 145.705 C 7.418 151.062, 5.668 161.129, 6.945 164.147 C 7.492 165.441, 8.820 170.325, 9.895 175 C 15.658 200.055, 28.427 222.633, 46.717 240.107 C 55.956 248.934, 71.176 260, 74.078 260 C 76.541 260, 93.157 247.871, 101.374 240.074 C 118.435 223.886, 131.251 201.675, 137.721 177.085 C 142.272 159.784, 140.418 148.131, 131.545 138.261 C 116.054 121.032, 88.355 123.227, 76.005 142.662 L 73.360 146.824 71.503 143.377 C 69.181 139.064, 62.418 132.764, 57.318 130.162 C 55.183 129.073, 50.781 127.691, 47.535 127.091 C 40.969 125.877, 41.243 125.877, 35.045 127.092 M 199.571 127.571 C 198.178 128.965, 198 135.897, 198 188.774 L 198 248.405 184.667 235.202 C 177.334 227.941, 170.841 222, 170.239 222 C 168.813 222, 166 224.825, 166 226.257 C 166 228.006, 200.239 262, 202 262 C 203.761 262, 238 228.006, 238 226.257 C 238 224.825, 235.187 222, 233.761 222 C 233.159 222, 226.666 227.941, 219.333 235.202 L 206 248.405 206 188.774 C 206 135.897, 205.822 128.965, 204.429 127.571 C 203.564 126.707, 202.471 126, 202 126 C 201.529 126, 200.436 126.707, 199.571 127.571 M 327.200 128.200 C 326.540 128.860, 326 129.784, 326 130.252 C 326 130.721, 329.712 134.816, 334.250 139.353 C 349.729 154.828, 356.965 172.078, 356.965 193.500 C 356.965 214.922, 349.729 232.172, 334.250 247.647 C 325.840 256.055, 324.871 257.818, 327.472 259.977 C 329.490 261.651, 334.021 258.765, 341.121 251.280 C 348.040 243.988, 352.186 237.927, 356.536 228.744 C 362.148 216.898, 364.243 207.318, 364.243 193.500 C 364.243 184.404, 363.726 179.564, 362.106 173.500 C 357.868 157.641, 349.304 143.126, 338.021 132.680 C 331.863 126.979, 329.429 125.971, 327.200 128.200 M 31.054 135.728 C 24.820 137.929, 17.726 145.300, 15.557 151.828 C 14.045 156.381, 13.979 157.954, 15.032 164.270 C 20.746 198.525, 39.651 228.764, 67.165 247.660 L 73.830 252.237 81.654 246.869 C 91.636 240.019, 104.997 226.670, 111.815 216.732 C 122.428 201.263, 131.249 178.930, 132.635 164.020 C 134.570 143.192, 115.675 128.780, 95.463 135.667 C 86.088 138.862, 78 149.949, 78 159.607 C 78 162.970, 75.867 166, 73.500 166 C 71.133 166, 69 162.970, 69 159.607 C 69 149.949, 60.912 138.862, 51.537 135.667 C 45.516 133.616, 36.964 133.641, 31.054 135.728 M 263.571 159.571 C 262.707 160.436, 262 161.640, 262 162.249 C 262 162.857, 268.844 170.250, 277.208 178.677 L 292.416 194 277.208 209.323 C 268.844 217.750, 262 225.143, 262 225.751 C 262 227.200, 264.827 230, 266.290 230 C 267.969 230, 302 195.693, 302 194 C 302 192.307, 267.969 158, 266.290 158 C 265.659 158, 264.436 158.707, 263.571 159.571 " stroke="none" fill="black" fill-rule="evenodd"/>
</svg>