<svg xmlns="http://www.w3.org/2000/svg" width="468" height="324" viewBox="0 0 468 324" version="1.1">
	<path d="M 61.500 127.401 C 36.003 132.318, 15.028 151.893, 8.352 177 C 6.055 185.639, 6.055 201.361, 8.352 210 C 12.494 225.576, 23.742 241.101, 37.307 249.965 L 43.483 254 26.313 254 C 12.037 254, 8.878 254.265, 7.571 255.571 C 5.598 257.545, 5.598 258.455, 7.571 260.429 C 8.968 261.825, 16.372 262, 74 262 C 131.628 262, 139.032 261.825, 140.429 260.429 C 142.402 258.455, 142.402 257.545, 140.429 255.571 C 139.119 254.261, 135.917 254, 121.187 254 L 103.517 254 109.693 249.965 C 118.494 244.214, 128.961 232.622, 133.313 223.806 C 138.458 213.383, 140.333 205.288, 140.333 193.500 C 140.333 181.692, 138.469 173.665, 133.249 163 C 128.083 152.445, 114.546 138.911, 104 133.756 C 90.332 127.076, 75.043 124.790, 61.500 127.401 M 183.282 143.282 C 173.777 152.787, 166 161.079, 166 161.710 C 166 163.168, 168.798 166, 170.239 166 C 170.841 166, 177.334 160.059, 184.667 152.798 L 198 139.595 198 199.226 C 198 252.103, 198.178 259.035, 199.571 260.429 C 200.436 261.293, 201.659 262, 202.290 262 C 203.788 262, 238 227.788, 238 226.290 C 238 224.832, 235.202 222, 233.761 222 C 233.159 222, 226.666 227.941, 219.333 235.202 L 206 248.405 206 188.774 C 206 135.897, 205.822 128.965, 204.429 127.571 C 203.564 126.707, 202.341 126, 201.710 126 C 201.079 126, 192.787 133.777, 183.282 143.282 M 317.500 127.401 C 292.252 132.270, 271.553 151.401, 264.374 176.500 C 262.927 181.561, 262.594 188.462, 262.248 220.597 C 261.877 255.034, 261.996 258.854, 263.490 260.347 C 264.993 261.850, 271.020 262, 330 262 C 387.628 262, 395.032 261.825, 396.429 260.429 C 397.788 259.069, 398 254.758, 398 228.429 L 398 198 423.202 198 L 448.405 198 435.202 211.333 C 427.941 218.666, 422 225.159, 422 225.761 C 422 227.187, 424.825 230, 426.257 230 C 428.006 230, 462 195.761, 462 194 C 462 192.239, 428.006 158, 426.257 158 C 424.825 158, 422 160.813, 422 162.239 C 422 162.841, 427.949 169.342, 435.219 176.684 L 448.439 190.035 422.470 189.767 L 396.502 189.500 395.713 183.102 C 392.685 158.555, 371.450 135.008, 346.500 128.533 C 337.877 126.295, 325.699 125.820, 317.500 127.401 M 58.645 135.584 C 38.671 140.419, 20.279 158.986, 15.537 179.103 C 10.672 199.742, 16.569 220.600, 31.484 235.516 C 55.022 259.054, 92.029 259.068, 115.548 235.548 C 123.508 227.589, 129.851 216.212, 131.910 206.201 C 133.441 198.760, 133.241 186.646, 131.463 179.103 C 126.662 158.739, 108.261 140.338, 87.897 135.537 C 79.998 133.676, 66.439 133.697, 58.645 135.584 M 315.217 135.449 C 298.756 139.435, 283.478 151.839, 276.165 167.154 C 273.974 171.744, 271.690 177.885, 271.090 180.799 C 270.429 184.014, 270 199.452, 270 220.049 L 270 254 330 254 L 390 254 390 226 L 390 198 359.571 198 C 333.242 198, 328.931 197.788, 327.571 196.429 C 326.707 195.564, 326 194.471, 326 194 C 326 193.529, 326.707 192.436, 327.571 191.571 C 328.930 190.213, 333.197 190, 359.071 190 L 389 190 389 187.710 C 389 186.451, 388.318 182.738, 387.485 179.460 C 383.100 162.208, 371.303 147.508, 356 140.225 C 351.325 138, 345.115 135.690, 342.201 135.090 C 335.260 133.662, 321.861 133.841, 315.217 135.449 " stroke="none" fill="black" fill-rule="evenodd"/>
</svg>