<svg xmlns="http://www.w3.org/2000/svg" width="148" height="324" viewBox="0 0 148 324" version="1.1">
	<path d="M 72.316 62.784 C 70.369 64.022, 54.007 97.855, 54.604 99.410 C 55.450 101.615, 58.110 102.210, 59.895 100.594 C 60.778 99.795, 64.185 93.709, 67.467 87.070 C 70.748 80.432, 73.687 75, 73.997 75 C 74.308 75, 77.453 80.837, 80.986 87.972 C 84.520 95.106, 88.050 101.189, 88.832 101.489 C 90.716 102.212, 93 100.227, 93 97.866 C 93 95.626, 77.264 63.831, 75.628 62.765 C 74.214 61.845, 73.789 61.847, 72.316 62.784 M 35.045 127.064 C 24.674 129.164, 14.828 136.537, 10.151 145.705 C 7.578 150.747, 5.616 161.395, 6.828 163.738 C 7.329 164.707, 8.527 169.100, 9.490 173.500 C 11.617 183.220, 16.181 196.402, 20.224 204.500 C 28.105 220.286, 43.443 238.960, 56.899 249.153 L 63.298 254 36.221 254 C 12.938 254, 8.923 254.220, 7.571 255.571 C 5.596 257.546, 5.598 258.455, 7.579 260.436 C 8.990 261.847, 16.058 261.987, 74.220 261.757 C 134.934 261.517, 139.356 261.383, 140.386 259.750 C 141.191 258.474, 141.191 257.526, 140.387 256.250 C 139.394 254.675, 136.579 254.450, 112.169 254 L 85.054 253.500 92.125 248 C 115.187 230.063, 132.712 201.092, 138.835 170.781 C 140.987 160.130, 140.347 153.626, 136.362 145.662 C 124.406 121.766, 90.345 120.095, 75.981 142.700 L 73.312 146.900 71.124 143.007 C 64.711 131.596, 48.355 124.368, 35.045 127.064 M 31.591 135.573 C 23.452 138.555, 15.998 146.866, 14.553 154.569 C 13.726 158.977, 16.225 172.568, 20.050 184.464 C 25.992 202.943, 35.743 218.759, 49.988 233.026 C 55.220 238.265, 62.724 244.731, 66.665 247.394 L 73.830 252.237 81.502 246.934 C 96.559 236.525, 111.143 219.907, 119.764 203.337 C 127.733 188.019, 133.910 165.555, 132.584 156.712 C 131.161 147.222, 123.232 138.158, 113.609 135.020 C 107.591 133.058, 97.093 134.170, 91.680 137.342 C 83.949 141.872, 78.067 150.781, 78.022 158.027 C 77.998 161.891, 75.675 166, 73.515 166 C 71.013 166, 69 162.918, 69 159.088 C 69 153.811, 63.742 143.755, 59.031 140.024 C 51.664 134.190, 40.368 132.357, 31.591 135.573 " stroke="none" fill="black" fill-rule="evenodd"/>
</svg>