<svg xmlns="http://www.w3.org/2000/svg" width="564" height="324" viewBox="0 0 564 324" version="1.1">
	<path d="M 39.267 159.267 L 6 192.533 6 225.695 C 6 254.509, 6.206 259.063, 7.571 260.429 C 8.968 261.825, 16.372 262, 74 262 C 131.628 262, 139.032 261.825, 140.429 260.429 C 141.794 259.063, 142 254.509, 142 225.695 L 142 192.533 108.733 159.267 C 90.437 140.970, 74.807 126, 74 126 C 73.193 126, 57.563 140.970, 39.267 159.267 M 311.213 143.315 C 301.746 152.838, 294 161.131, 294 161.743 C 294 163.175, 296.813 166, 298.239 166 C 298.841 166, 305.334 160.059, 312.667 152.798 L 326 139.595 326 194 L 326 248.405 312.667 235.202 C 305.334 227.941, 298.841 222, 298.239 222 C 296.825 222, 294 224.820, 294 226.232 C 294 226.831, 299.512 232.922, 306.250 239.767 C 317.806 251.507, 318.302 252.173, 315 251.517 C 313.075 251.135, 307.720 249.017, 303.101 246.810 C 284.368 237.863, 270 216.251, 270 197.022 C 270 193.416, 268.054 190, 266 190 C 265.529 190, 264.399 190.743, 263.491 191.652 C 260.356 194.787, 263.559 211.320, 269.756 224 C 274.924 234.572, 288.441 248.079, 299.060 253.282 C 309.977 258.630, 327.666 262.518, 334.278 261.022 C 336.600 260.497, 341.623 259.373, 345.440 258.526 C 357.509 255.847, 366.337 250.741, 376.539 240.539 C 388.935 228.143, 394.454 216.744, 396.457 199.402 C 397.032 194.418, 396.859 193.002, 395.509 191.652 C 394.601 190.743, 393.471 190, 393 190 C 390.946 190, 389 193.416, 389 197.022 C 389 216.262, 374.611 237.896, 355.899 246.791 C 340.230 254.239, 340.042 253.620, 353.750 239.732 C 360.488 232.906, 366 226.831, 366 226.232 C 366 224.820, 363.175 222, 361.761 222 C 361.159 222, 354.666 227.941, 347.333 235.202 L 334 248.405 334 194 L 334 139.595 347.333 152.798 C 354.666 160.059, 361.159 166, 361.761 166 C 363.187 166, 366 163.175, 366 161.743 C 366 159.994, 331.761 126, 330 126 C 329.134 126, 320.680 133.792, 311.213 143.315 M 477.500 127.401 C 455.005 131.739, 435.829 147.363, 427.285 168.314 C 422.758 179.415, 422.073 186.711, 422.035 224.179 C 422.004 254.402, 422.202 259.059, 423.571 260.429 C 424.968 261.825, 432.372 262, 490 262 C 547.628 262, 555.032 261.825, 556.429 260.429 C 557.792 259.066, 557.998 254.656, 557.987 227.179 C 557.976 200.654, 557.669 193.792, 556.099 185 C 552.838 166.727, 547.171 156.026, 534.472 144.168 C 519.247 129.949, 497.491 123.546, 477.500 127.401 M 475 135.576 C 458.630 139.875, 443.627 151.802, 436.670 166.046 C 430.296 179.098, 430 181.481, 430 219.710 L 430 254 490.114 254 L 550.228 254 549.742 219.750 C 549.202 181.762, 548.886 179.471, 542.330 166.046 C 535.277 151.605, 520.223 139.756, 503.540 135.515 C 496.134 133.632, 482.288 133.662, 475 135.576 M 43.744 165.756 L 14 195.512 14 224.756 L 14 254 74 254 L 134 254 134 224.744 L 134 195.487 104.244 165.744 C 87.878 149.385, 74.263 136, 73.988 136 C 73.713 136, 60.103 149.390, 43.744 165.756 M 167.571 159.571 C 166.707 160.436, 166 161.640, 166 162.249 C 166 162.857, 172.844 170.250, 181.208 178.677 L 196.416 194 181.208 209.323 C 172.844 217.750, 166 225.143, 166 225.751 C 166 227.200, 168.827 230, 170.290 230 C 171.969 230, 206 195.693, 206 194 C 206 192.307, 171.969 158, 170.290 158 C 169.659 158, 168.436 158.707, 167.571 159.571 M 199.571 159.571 C 198.707 160.436, 198 161.640, 198 162.249 C 198 162.857, 204.844 170.250, 213.208 178.677 L 228.416 194 213.208 209.323 C 204.844 217.750, 198 225.143, 198 225.751 C 198 227.200, 200.827 230, 202.290 230 C 203.969 230, 238 195.693, 238 194 C 238 192.307, 203.969 158, 202.290 158 C 201.659 158, 200.436 158.707, 199.571 159.571 " stroke="none" fill="black" fill-rule="evenodd"/>
</svg>