<svg xmlns="http://www.w3.org/2000/svg" width="244" height="324" viewBox="0 0 244 324" version="1.1">
	<path d="M 39.571 127.571 C 38.176 128.966, 38 136.152, 38 191.571 L 38 254 23.571 254 C 11.788 254, 8.855 254.288, 7.571 255.571 C 5.598 257.545, 5.598 258.455, 7.571 260.429 C 8.936 261.793, 13.463 262, 42 262 C 70.537 262, 75.064 261.793, 76.429 260.429 C 77.293 259.564, 78 258.471, 78 258 C 78 257.529, 77.293 256.436, 76.429 255.571 C 75.145 254.288, 72.212 254, 60.429 254 L 46 254 46 191.571 C 46 136.152, 45.824 128.966, 44.429 127.571 C 43.564 126.707, 42.471 126, 42 126 C 41.529 126, 40.436 126.707, 39.571 127.571 M 135.244 159.256 L 102 192.511 102 226.056 C 102 250.812, 102.314 259.914, 103.200 260.800 C 104.607 262.207, 233.589 262.548, 235.791 261.150 C 236.804 260.507, 237.082 253.025, 237.082 226.364 L 237.082 192.397 204.291 159.165 C 186.256 140.888, 170.822 125.949, 169.994 125.967 C 169.166 125.985, 153.529 140.965, 135.244 159.256 M 139.744 165.756 L 110 195.512 110 224.756 L 110 254 170 254 L 230 254 230 224.744 L 230 195.487 200.244 165.744 C 183.878 149.385, 170.263 136, 169.988 136 C 169.713 136, 156.103 149.390, 139.744 165.756 " stroke="none" fill="black" fill-rule="evenodd"/>
</svg>