<svg xmlns="http://www.w3.org/2000/svg" width="468" height="324" viewBox="0 0 468 324" version="1.1">
	<path d="M 34.223 127.012 C 19.896 130.003, 7.209 144.402, 6.799 158.134 C 6.617 164.269, 11.085 182.211, 15.856 194.500 C 22.268 211.017, 32.956 226.822, 46.667 240.065 C 55.658 248.748, 71.085 260, 74 260 C 77.389 260, 93.045 248.091, 103.500 237.561 C 122.253 218.674, 133.237 198.142, 139.008 171.187 C 140.893 162.385, 141.016 160.380, 139.982 155.307 C 137.594 143.593, 130.144 134.251, 119.175 129.216 C 111.165 125.539, 99.888 125.515, 91.954 129.157 C 85.265 132.227, 79.573 137.047, 76.005 142.662 L 73.360 146.824 71.503 143.377 C 68.873 138.492, 61.737 132.223, 55.675 129.472 C 49.740 126.777, 40.448 125.712, 34.223 127.012 M 263.571 127.571 C 262.176 128.966, 262 136.152, 262 191.571 L 262 254 247.571 254 C 235.788 254, 232.855 254.288, 231.571 255.571 C 229.598 257.545, 229.598 258.455, 231.571 260.429 C 232.936 261.793, 237.463 262, 266 262 C 294.537 262, 299.064 261.793, 300.429 260.429 C 301.293 259.564, 302 258.471, 302 258 C 302 257.529, 301.293 256.436, 300.429 255.571 C 299.145 254.288, 296.212 254, 284.429 254 L 270 254 270 191.571 C 270 136.152, 269.824 128.966, 268.429 127.571 C 267.564 126.707, 266.471 126, 266 126 C 265.529 126, 264.436 126.707, 263.571 127.571 M 31 135.824 C 24.627 138.198, 17.696 145.388, 15.549 151.854 C 13.909 156.790, 13.905 157.621, 15.478 166.296 C 21.694 200.574, 41.448 230.865, 69.696 249.436 L 73.892 252.194 81.678 246.847 C 105.825 230.263, 124.589 202.209, 131.070 173 C 134.477 157.650, 132.968 149.873, 125.048 141.952 C 114.331 131.236, 96.792 131.273, 85.917 142.035 C 81.099 146.803, 78 153.681, 78 159.607 C 78 162.970, 75.867 166, 73.500 166 C 71.133 166, 69 162.970, 69 159.607 C 69 149.949, 60.912 138.862, 51.537 135.667 C 45.401 133.576, 36.858 133.642, 31 135.824 M 167.571 159.571 C 166.707 160.436, 166 161.640, 166 162.249 C 166 162.857, 172.844 170.250, 181.208 178.677 L 196.416 194 181.208 209.323 C 172.844 217.750, 166 225.143, 166 225.751 C 166 227.200, 168.827 230, 170.290 230 C 171.969 230, 206 195.693, 206 194 C 206 192.307, 171.969 158, 170.290 158 C 169.659 158, 168.436 158.707, 167.571 159.571 M 391.571 159.571 C 390.707 160.436, 390 161.529, 390 162 C 390 163.111, 392.889 166, 394 166 C 395.111 166, 398 163.111, 398 162 C 398 160.889, 395.111 158, 394 158 C 393.529 158, 392.436 158.707, 391.571 159.571 M 327.571 191.571 C 326.707 192.436, 326 193.529, 326 194 C 326 194.471, 326.707 195.564, 327.571 196.429 C 328.968 197.825, 336.372 198, 394 198 C 451.628 198, 459.032 197.825, 460.429 196.429 C 461.293 195.564, 462 194.471, 462 194 C 462 193.529, 461.293 192.436, 460.429 191.571 C 459.032 190.175, 451.628 190, 394 190 C 336.372 190, 328.968 190.175, 327.571 191.571 " stroke="none" fill="black" fill-rule="evenodd"/>
</svg>