<svg xmlns="http://www.w3.org/2000/svg" width="436" height="324" viewBox="0 0 436 324" version="1.1">
	<path d="M 226.223 127.062 C 212.476 129.771, 200.334 143.110, 198.450 157.573 C 197.925 161.606, 198.133 162.990, 199.466 164.323 C 201.547 166.404, 202.434 166.423, 204.429 164.429 C 205.362 163.495, 206 161.139, 206 158.625 C 206 153, 210.124 144.906, 215.205 140.557 C 230.484 127.479, 254.749 134.926, 260.124 154.343 C 262.275 162.114, 257.994 181.349, 250.465 197.739 C 241.900 216.388, 223.237 238.039, 206.307 248.969 C 201.802 251.878, 197.923 254.763, 197.689 255.379 C 196.898 257.459, 198.897 260.936, 201.207 261.500 C 202.468 261.807, 217.851 261.933, 235.391 261.780 C 264.497 261.524, 267.379 261.347, 268.386 259.750 C 269.191 258.474, 269.191 257.526, 268.387 256.250 C 267.394 254.674, 264.572 254.450, 240.028 254 L 212.772 253.500 217.448 250.143 C 224.791 244.872, 237.153 232.268, 243.702 223.375 C 258.574 203.181, 269.995 171.798, 267.951 156.740 C 265.962 142.079, 255.647 130.773, 241.147 127.360 C 234.857 125.880, 232.464 125.832, 226.223 127.062 M 423.750 127.080 C 422.148 128.013, 422 130.520, 422 156.786 L 422 185.473 408.131 171.631 C 395.495 159.019, 394.073 157.890, 392.131 158.930 C 390.959 159.557, 390 160.836, 390 161.772 C 390 162.708, 395.956 169.442, 403.236 176.737 L 416.472 190 357.170 190 C 318.204 190, 297.205 190.355, 295.934 191.035 C 294.870 191.605, 294 192.939, 294 194 C 294 195.061, 294.870 196.395, 295.934 196.965 C 297.205 197.645, 318.204 198, 357.170 198 L 416.472 198 403.236 211.263 C 395.956 218.558, 390 225.292, 390 226.228 C 390 227.164, 390.959 228.443, 392.131 229.070 C 394.073 230.110, 395.495 228.981, 408.131 216.369 L 422 202.527 422 231.228 C 422 259.433, 422.037 259.949, 424.117 261.062 C 429.076 263.716, 429.023 264.441, 429.023 194.069 C 429.023 123.438, 429.066 123.984, 423.750 127.080 M 7.571 159.571 C 6.207 160.936, 6 165.463, 6 194 C 6 222.537, 6.207 227.064, 7.571 228.429 C 9.545 230.402, 10.455 230.402, 12.429 228.429 C 13.793 227.064, 14 222.537, 14 194 C 14 165.463, 13.793 160.936, 12.429 159.571 C 11.564 158.707, 10.471 158, 10 158 C 9.529 158, 8.436 158.707, 7.571 159.571 M 71.571 159.571 C 70.207 160.936, 70 165.463, 70 194 C 70 222.537, 70.207 227.064, 71.571 228.429 C 73.545 230.402, 74.455 230.402, 76.429 228.429 C 77.793 227.064, 78 222.537, 78 194 C 78 165.463, 77.793 160.936, 76.429 159.571 C 75.564 158.707, 74.471 158, 74 158 C 73.529 158, 72.436 158.707, 71.571 159.571 M 103.571 159.571 C 102.707 160.436, 102 161.529, 102 162 C 102 162.471, 102.707 163.564, 103.571 164.429 C 104.936 165.793, 109.463 166, 138 166 C 166.537 166, 171.064 165.793, 172.429 164.429 C 173.293 163.564, 174 162.471, 174 162 C 174 161.529, 173.293 160.436, 172.429 159.571 C 171.064 158.207, 166.537 158, 138 158 C 109.463 158, 104.936 158.207, 103.571 159.571 M 103.571 223.571 C 102.707 224.436, 102 225.529, 102 226 C 102 226.471, 102.707 227.564, 103.571 228.429 C 104.936 229.793, 109.463 230, 138 230 C 166.537 230, 171.064 229.793, 172.429 228.429 C 173.293 227.564, 174 226.471, 174 226 C 174 225.529, 173.293 224.436, 172.429 223.571 C 171.064 222.207, 166.537 222, 138 222 C 109.463 222, 104.936 222.207, 103.571 223.571 " stroke="none" fill="black" fill-rule="evenodd"/>
</svg>