<svg xmlns="http://www.w3.org/2000/svg" width="372" height="324" viewBox="0 0 372 324" version="1.1">
	<path d="M 231.571 159.571 C 230.207 160.936, 230 165.463, 230 194 C 230 222.537, 230.207 227.064, 231.571 228.429 C 233.545 230.402, 234.455 230.402, 236.429 228.429 C 237.712 227.145, 238 224.212, 238 212.429 L 238 198 298 198 L 358 198 358 212.429 C 358 224.212, 358.288 227.145, 359.571 228.429 C 361.545 230.402, 362.455 230.402, 364.429 228.429 C 365.793 227.064, 366 222.537, 366 194 C 366 165.463, 365.793 160.936, 364.429 159.571 C 363.564 158.707, 362.471 158, 362 158 C 361.529 158, 360.436 158.707, 359.571 159.571 C 358.288 160.855, 358 163.788, 358 175.571 L 358 190 298 190 L 238 190 238 175.571 C 238 163.788, 237.712 160.855, 236.429 159.571 C 235.564 158.707, 234.471 158, 234 158 C 233.529 158, 232.436 158.707, 231.571 159.571 M 7.571 191.571 C 6.707 192.436, 6 193.529, 6 194 C 6 196.638, 9.429 198, 16.071 198 C 22.669 198, 23 198.112, 23 200.340 C 23 204.333, 28.832 214.591, 33.602 218.987 C 40.748 225.574, 47.903 228.389, 57.500 228.389 C 67.097 228.389, 74.252 225.574, 81.398 218.987 C 86.168 214.591, 92 204.333, 92 200.340 L 92 198 147.429 198 C 196.485 198, 203.038 197.819, 204.429 196.429 C 206.402 194.455, 206.402 193.545, 204.429 191.571 C 203.022 190.164, 192.719 190, 106 190 C 19.281 190, 8.978 190.164, 7.571 191.571 M 30.552 200.250 C 33.113 208.634, 38.364 215.023, 45.533 218.478 C 51.097 221.159, 60.591 221.629, 66.895 219.535 C 74.777 216.917, 81.733 209.278, 84.456 200.250 L 85.135 198 57.500 198 L 29.865 198 30.552 200.250 " stroke="none" fill="black" fill-rule="evenodd"/>
</svg>