<svg xmlns="http://www.w3.org/2000/svg" width="84" height="324" viewBox="0 0 84 324" version="1.1">
	<path d="M 23.571 63.571 C 22.707 64.436, 22 65.332, 22 65.564 C 22 67.123, 39.710 101.058, 40.727 101.449 C 41.427 101.717, 42.573 101.717, 43.273 101.449 C 45.129 100.736, 62.063 66.328, 61.403 64.609 C 60.732 62.858, 58.483 61.877, 56.705 62.560 C 55.993 62.833, 52.520 68.894, 48.986 76.028 C 45.453 83.163, 42.308 89, 41.997 89 C 41.687 89, 38.748 83.534, 35.467 76.853 C 27.925 61.499, 26.847 60.296, 23.571 63.571 M 7.571 127.571 C 6.175 128.968, 6 136.372, 6 194 C 6 251.628, 6.175 259.032, 7.571 260.429 C 8.436 261.293, 9.529 262, 10 262 C 10.471 262, 11.564 261.293, 12.429 260.429 C 13.824 259.034, 14 251.848, 14 196.429 L 14 134 44.429 134 C 70.758 134, 75.069 133.788, 76.429 132.429 C 77.293 131.564, 78 130.471, 78 130 C 78 129.529, 77.293 128.436, 76.429 127.571 C 75.064 126.207, 70.537 126, 42 126 C 13.463 126, 8.936 126.207, 7.571 127.571 " stroke="none" fill="black" fill-rule="evenodd"/>
</svg>