<svg xmlns="http://www.w3.org/2000/svg" width="468" height="324" viewBox="0 0 468 324" version="1.1">
	<path d="M 7.627 127.515 C 5.597 129.546, 5.587 130.444, 7.571 132.429 C 8.538 133.395, 10.888 134, 13.677 134 C 36.721 134, 61.785 155.018, 67.463 179.103 C 70.386 191.505, 69.865 194.298, 61.515 210.970 C 54.288 225.399, 53.532 228.223, 56.577 229.391 C 59.364 230.461, 60.668 228.784, 67.014 215.972 C 70.547 208.837, 73.691 203, 74 203 C 74.309 203, 77.453 208.837, 80.986 215.972 C 87.332 228.784, 88.636 230.461, 91.423 229.391 C 94.488 228.215, 93.685 225.347, 85.985 209.970 C 77.178 192.381, 76.816 190.649, 79.537 179.103 C 85.323 154.559, 110.127 134.091, 134.179 134.015 C 137.082 134.006, 139.453 133.404, 140.429 132.429 C 142.418 130.439, 142.404 129.547, 140.348 127.491 C 138.458 125.601, 131.095 126.031, 120.500 128.650 C 101.581 133.327, 82.965 149.457, 75.603 167.551 L 73.395 172.980 72.081 169.240 C 66.999 154.762, 51.301 138.344, 36.459 131.982 C 30.770 129.544, 22.210 127.384, 14.877 126.537 C 10.402 126.020, 8.923 126.220, 7.627 127.515 M 232.369 126.765 C 231.416 127.384, 166 257.155, 166 258.426 C 166 258.663, 166.707 259.564, 167.571 260.429 C 168.936 261.793, 173.463 262, 202 262 C 230.537 262, 235.064 261.793, 236.429 260.429 C 237.293 259.564, 238 258.471, 238 258 C 238 257.529, 237.293 256.436, 236.429 255.571 C 235.071 254.214, 230.849 254, 205.430 254 L 176.002 254 204.747 196.500 C 220.557 164.875, 233.722 139, 234.003 139 C 234.284 139, 248.010 166.059, 264.507 199.131 C 281.003 232.204, 295.095 259.879, 295.821 260.631 C 296.887 261.735, 303.506 262, 330 262 C 358.537 262, 363.064 261.793, 364.429 260.429 C 366.402 258.455, 366.402 257.545, 364.429 255.571 C 363.067 254.210, 358.667 254, 331.430 254 L 300.003 254 268.383 190.750 C 239.939 133.854, 235.783 126.031, 234 126.031 C 233.725 126.031, 232.991 126.361, 232.369 126.765 M 391.571 191.571 C 390.707 192.436, 390 193.529, 390 194 C 390 194.471, 390.707 195.564, 391.571 196.429 C 392.855 197.712, 395.788 198, 407.571 198 L 422 198 422 226 L 422 254 407.571 254 C 395.788 254, 392.855 254.288, 391.571 255.571 C 389.598 257.545, 389.598 258.455, 391.571 260.429 C 392.936 261.793, 397.463 262, 426 262 C 454.537 262, 459.064 261.793, 460.429 260.429 C 462.402 258.455, 462.402 257.545, 460.429 255.571 C 459.145 254.288, 456.212 254, 444.429 254 L 430 254 430 226 L 430 198 444.429 198 C 456.212 198, 459.145 197.712, 460.429 196.429 C 461.293 195.564, 462 194.471, 462 194 C 462 193.529, 461.293 192.436, 460.429 191.571 C 459.064 190.207, 454.537 190, 426 190 C 397.463 190, 392.936 190.207, 391.571 191.571 " stroke="none" fill="black" fill-rule="evenodd"/>
</svg>