<svg xmlns="http://www.w3.org/2000/svg" width="308" height="324" viewBox="0 0 308 324" version="1.1">
	<path d="M 7.571 127.571 C 6.175 128.968, 6 136.372, 6 194 C 6 251.628, 6.175 259.032, 7.571 260.429 C 8.436 261.293, 9.529 262, 10 262 C 10.471 262, 11.564 261.293, 12.429 260.429 C 13.788 259.069, 14 254.758, 14 228.429 L 14 198 42 198 L 70 198 70 228.429 C 70 254.758, 70.212 259.069, 71.571 260.429 C 73.678 262.535, 74.598 262.412, 76.443 259.777 C 78.793 256.422, 78.780 193.923, 76.429 191.571 C 75.069 190.212, 70.758 190, 44.429 190 L 14 190 14 159.571 C 14 133.242, 13.788 128.931, 12.429 127.571 C 11.564 126.707, 10.471 126, 10 126 C 9.529 126, 8.436 126.707, 7.571 127.571 M 119.213 207.315 C 109.746 216.838, 102 225.131, 102 225.743 C 102 226.967, 104.733 230, 105.835 230 C 106.216 230, 112.590 223.925, 120 216.500 C 127.410 209.075, 133.744 203, 134.077 203 C 134.410 203, 135.242 205.588, 135.926 208.750 C 137.619 216.574, 143.944 229.362, 149.335 235.859 C 162.514 251.746, 180.470 260.261, 201 260.360 C 212.959 260.418, 219.166 258.960, 230.539 253.422 C 248.502 244.675, 261.732 228.468, 265.985 210 C 266.682 206.975, 267.440 203.850, 267.669 203.056 C 267.937 202.128, 273.252 206.769, 282.548 216.048 C 294.884 228.362, 297.266 230.323, 298.755 229.390 C 302.759 226.880, 301.331 224.774, 283.667 207.150 C 274.104 197.607, 265.653 189.957, 264.889 190.150 C 262.603 190.726, 230 224.485, 230 226.276 C 230 227.185, 230.959 228.443, 232.131 229.070 C 234.069 230.108, 235.423 229.052, 247.149 217.355 L 260.037 204.500 258.422 210 C 253.039 228.337, 238.504 243.769, 220.723 250.024 C 212.012 253.088, 195.816 253.816, 187.085 251.535 C 175.649 248.548, 168.214 244.230, 159.489 235.508 C 151.062 227.085, 146.559 219.611, 143.541 209.039 L 141.983 203.578 155.324 216.789 C 162.662 224.055, 169.136 230, 169.710 230 C 171.298 230, 173.207 227.290, 172.833 225.570 C 172.413 223.644, 139.020 190, 137.528 190 C 136.921 190, 128.680 197.792, 119.213 207.315 " stroke="none" fill="black" fill-rule="evenodd"/>
</svg>