<svg xmlns="http://www.w3.org/2000/svg" width="148" height="324" viewBox="0 0 148 324" version="1.1">
	<path d="M 55.200 63.200 C 53.512 64.888, 53.512 99.112, 55.200 100.800 C 56.040 101.640, 61.562 102, 73.629 102 C 87.958 102, 91.122 101.736, 92.429 100.429 C 94.757 98.100, 94.757 65.900, 92.429 63.571 C 91.122 62.264, 87.958 62, 73.629 62 C 61.562 62, 56.040 62.360, 55.200 63.200 M 62 82 L 62 94 74 94 L 86 94 86 82 L 86 70 74 70 L 62 70 62 82 M 39.230 159.285 C 20.953 177.591, 6 193.084, 6 193.713 C 6 195.191, 8.808 198, 10.285 198 C 10.913 198, 25.506 183.947, 42.713 166.771 L 74 135.542 105.287 166.771 C 122.494 183.947, 137.029 198, 137.587 198 C 139.123 198, 141 195.800, 141 193.999 C 141 191.918, 75.976 125.903, 73.980 125.958 C 73.144 125.981, 57.506 140.978, 39.230 159.285 " stroke="none" fill="black" fill-rule="evenodd"/>
</svg>