<svg xmlns="http://www.w3.org/2000/svg" width="148" height="324" viewBox="0 0 148 324" version="1.1">
	<path d="M 55.200 63.200 C 53.512 64.888, 53.512 99.112, 55.200 100.800 C 56.040 101.640, 61.562 102, 73.629 102 C 87.958 102, 91.122 101.736, 92.429 100.429 C 94.757 98.100, 94.757 65.900, 92.429 63.571 C 91.122 62.264, 87.958 62, 73.629 62 C 61.562 62, 56.040 62.360, 55.200 63.200 M 62 82 L 62 94 74 94 L 86 94 86 82 L 86 70 74 70 L 62 70 62 82 M 7.571 159.571 C 6.207 160.936, 6 165.463, 6 194 C 6 222.537, 6.207 227.064, 7.571 228.429 C 9.545 230.402, 10.455 230.402, 12.429 228.429 C 13.712 227.145, 14 224.212, 14 212.429 L 14 198 42 198 L 70 198 70 212.429 C 70 224.212, 70.288 227.145, 71.571 228.429 C 72.436 229.293, 73.529 230, 74 230 C 74.471 230, 75.564 229.293, 76.429 228.429 C 77.712 227.145, 78 224.212, 78 212.429 L 78 198 106 198 L 134 198 134 212.965 C 134 227.181, 134.106 227.986, 136.117 229.062 C 140.856 231.599, 141.072 230.068, 141.072 194 C 141.072 157.932, 140.856 156.401, 136.117 158.938 C 134.106 160.014, 134 160.819, 134 175.035 L 134 190 106 190 L 78 190 78 175.571 C 78 163.788, 77.712 160.855, 76.429 159.571 C 74.455 157.598, 73.545 157.598, 71.571 159.571 C 70.288 160.855, 70 163.788, 70 175.571 L 70 190 42 190 L 14 190 14 175.571 C 14 163.788, 13.712 160.855, 12.429 159.571 C 11.564 158.707, 10.471 158, 10 158 C 9.529 158, 8.436 158.707, 7.571 159.571 " stroke="none" fill="black" fill-rule="evenodd"/>
</svg>