<svg xmlns="http://www.w3.org/2000/svg" width="340" height="324" viewBox="0 0 340 324" version="1.1">
	<path d="M 23.571 63.571 C 22.707 64.436, 22 65.332, 22 65.564 C 22 67.123, 39.710 101.058, 40.727 101.449 C 41.427 101.717, 42.573 101.717, 43.273 101.449 C 45.129 100.736, 62.063 66.328, 61.403 64.609 C 60.732 62.858, 58.483 61.877, 56.705 62.560 C 55.993 62.833, 52.520 68.894, 48.986 76.028 C 45.453 83.163, 42.308 89, 41.997 89 C 41.687 89, 38.748 83.534, 35.467 76.853 C 27.925 61.499, 26.847 60.296, 23.571 63.571 M 255.536 127.055 C 238.549 129.693, 223.930 138.283, 212.779 152.178 C 202.828 164.577, 198.553 176.995, 198.553 193.500 C 198.553 210.065, 202.823 222.417, 212.882 234.950 C 226.325 251.701, 244.262 260.349, 265.500 260.319 C 283.884 260.292, 298.916 254.066, 312.095 241.019 C 325.603 227.646, 332 212.375, 332 193.500 C 332 174.625, 325.603 159.354, 312.095 145.981 C 297.016 131.053, 275.708 123.923, 255.536 127.055 M 249.345 135.904 C 238.677 138.957, 232.033 142.962, 223.479 151.497 C 211.121 163.828, 206 176.133, 206 193.500 C 206 210.512, 211.128 223.074, 222.993 235.125 C 234.911 247.231, 248.528 253, 265.184 253 C 275.272 253, 283.110 251.144, 292.500 246.532 C 301.645 242.040, 308.725 235.691, 314.924 226.422 C 334.805 196.697, 323.744 155.395, 291.820 140.153 C 287.244 137.968, 281.115 135.690, 278.201 135.090 C 270.350 133.475, 256.464 133.867, 249.345 135.904 M 33.384 159.412 C 15.475 163.758, 3.559 181.807, 6.987 199.396 C 9.923 214.467, 20.510 225.032, 35.660 228.013 C 46.748 230.194, 59.444 225.749, 67.399 216.901 C 85.210 197.091, 75.186 165.489, 49.147 159.360 C 42.397 157.772, 40.111 157.779, 33.384 159.412 M 103.750 159.080 C 102.138 160.019, 102 162.769, 102 194.015 C 102 226.522, 102.080 227.973, 103.934 228.965 C 105.154 229.617, 117.876 230, 138.363 230 C 166.570 230, 171.064 229.793, 172.429 228.429 C 173.793 227.064, 174 222.537, 174 194 C 174 165.463, 173.793 160.936, 172.429 159.571 C 171.063 158.206, 166.580 158.004, 138.179 158.030 C 117.849 158.049, 104.839 158.446, 103.750 159.080 M 31.054 167.728 C 25.018 169.859, 17.781 177.260, 15.667 183.463 C 11.995 194.241, 14.382 205.477, 21.952 213.048 C 32.402 223.497, 49.888 223.773, 60.280 213.653 C 65.822 208.256, 68.291 202.953, 68.805 195.341 C 69.388 186.717, 67.028 180.189, 61.146 174.150 C 53.627 166.431, 41.848 163.917, 31.054 167.728 M 110 194 L 110 222 138 222 L 166 222 166 194 L 166 166 138 166 L 110 166 110 194 M 39.571 191.571 C 38.707 192.436, 38 193.529, 38 194 C 38 195.111, 40.889 198, 42 198 C 43.111 198, 46 195.111, 46 194 C 46 192.889, 43.111 190, 42 190 C 41.529 190, 40.436 190.707, 39.571 191.571 " stroke="none" fill="black" fill-rule="evenodd"/>
</svg>