<svg xmlns="http://www.w3.org/2000/svg" width="436" height="324" viewBox="0 0 436 324" version="1.1">
	<path d="M 72.316 62.784 C 70.369 64.022, 54.007 97.855, 54.604 99.410 C 55.269 101.144, 57.524 102.120, 59.295 101.440 C 60.007 101.167, 63.480 95.106, 67.014 87.972 C 70.547 80.837, 73.691 75, 74 75 C 74.309 75, 77.453 80.837, 80.986 87.972 C 84.520 95.106, 87.993 101.167, 88.705 101.440 C 90.487 102.124, 92.732 101.141, 93.407 99.381 C 93.997 97.844, 77.582 64.037, 75.628 62.765 C 74.214 61.845, 73.789 61.847, 72.316 62.784 M 72.357 126.765 C 71.406 127.377, 6 257.165, 6 258.440 C 6 258.670, 6.707 259.564, 7.571 260.429 C 8.936 261.793, 13.463 262, 42 262 C 70.537 262, 75.064 261.793, 76.429 260.429 C 78.402 258.455, 78.402 257.545, 76.429 255.571 C 75.071 254.214, 70.849 254, 45.430 254 L 16.002 254 44.747 196.500 C 60.557 164.875, 73.725 139, 74.010 139 C 74.296 139, 88.247 166.470, 105.014 200.043 C 127.857 245.786, 136 261.209, 137.499 261.573 C 138.600 261.840, 153.851 261.933, 171.391 261.780 C 200.497 261.524, 203.379 261.347, 204.386 259.750 C 205.191 258.474, 205.191 257.526, 204.386 256.250 C 203.379 254.653, 200.518 254.477, 171.636 254.236 L 139.989 253.972 108.376 190.736 C 79.938 133.852, 75.783 126.031, 74 126.031 C 73.725 126.031, 72.986 126.361, 72.357 126.765 M 327.616 159.527 C 326.727 160.416, 326 161.636, 326 162.239 C 326 162.841, 331.941 169.334, 339.202 176.667 L 352.405 190 292.774 190 C 239.897 190, 232.965 190.178, 231.571 191.571 C 229.598 193.545, 229.598 194.455, 231.571 196.429 C 232.965 197.822, 239.897 198, 292.774 198 L 352.405 198 339.202 211.333 C 331.941 218.666, 326 225.159, 326 225.761 C 326 227.200, 328.997 230.172, 330.068 229.795 C 331.353 229.342, 366 194.827, 366 194 C 366 193.173, 331.353 158.658, 330.068 158.205 C 329.608 158.043, 328.505 158.638, 327.616 159.527 M 391.750 159.080 C 390.155 160.009, 390 162.388, 390 186.015 C 390 211.174, 390.060 211.962, 392.064 213.034 C 393.596 213.854, 394.498 213.832, 395.564 212.947 C 396.744 211.968, 397 207.174, 397 186.078 C 397 157.906, 396.671 156.214, 391.750 159.080 M 391.750 222.080 C 389.372 223.465, 389.542 226.685, 392.064 228.034 C 395.753 230.008, 398.819 225.219, 395.800 222.200 C 394.367 220.767, 394.022 220.757, 391.750 222.080 " stroke="none" fill="black" fill-rule="evenodd"/>
</svg>