<svg xmlns="http://www.w3.org/2000/svg" width="308" height="324" viewBox="0 0 308 324" version="1.1">
	<path d="M 55.571 63.571 C 54.707 64.436, 54 65.317, 54 65.531 C 54 66.993, 71.421 100.653, 72.488 101.252 C 73.225 101.665, 74.440 101.768, 75.188 101.481 C 76.837 100.849, 93 68.755, 93 66.115 C 93 63.770, 90.710 61.790, 88.832 62.511 C 88.050 62.811, 84.520 68.894, 80.986 76.028 C 77.453 83.163, 74.306 89, 73.994 89 C 73.683 89, 70.969 83.984, 67.964 77.854 C 62.437 66.580, 59.559 62, 57.999 62 C 57.528 62, 56.436 62.707, 55.571 63.571 M 35.650 127.064 C 20.120 129.621, 7.411 143.607, 6.912 158.693 C 6.728 164.229, 10.436 179.602, 14.976 192.133 C 18.628 202.212, 26.063 215.568, 33.594 225.579 C 47.004 243.404, 74.270 264.227, 77.454 259.074 C 77.769 258.565, 81.706 255.570, 86.203 252.418 C 112.393 234.066, 132.136 203.704, 138.590 171.852 C 140.892 160.493, 140.145 152.929, 135.945 145.049 C 123.475 121.651, 90.203 120.318, 76.014 142.647 L 73.379 146.793 70.535 142.298 C 63.454 131.105, 49.123 124.847, 35.650 127.064 M 199.244 159.256 C 180.960 177.546, 166 193.280, 166 194.220 C 166 195.160, 166.953 196.440, 168.119 197.063 C 170.061 198.103, 172.865 195.573, 201.865 166.616 L 233.493 135.034 265.130 166.614 C 294.124 195.556, 296.944 198.100, 298.884 197.062 C 300.048 196.439, 301 195.155, 301 194.209 C 301 192.424, 235.256 126, 233.489 126 C 232.939 126, 217.529 140.965, 199.244 159.256 M 29.199 136.588 C 23.114 139.620, 17.737 145.504, 15.358 151.732 C 13.768 155.897, 13.769 156.740, 15.378 165.831 C 21.352 199.589, 39.959 229.094, 66.868 247.480 L 73.830 252.237 81.502 246.934 C 106.634 229.560, 125.322 200.871, 131.540 170.116 C 133.568 160.085, 133.024 154.652, 129.306 147.820 C 124.385 138.780, 115.803 133.982, 104.624 134.022 C 97.621 134.047, 92.185 136.143, 86.752 140.913 C 82.287 144.833, 78 153.190, 78 157.974 C 78 161.875, 75.695 166, 73.515 166 C 71.134 166, 69 162.978, 69 159.607 C 69 149.949, 60.912 138.862, 51.537 135.667 C 44.062 133.120, 35.445 133.476, 29.199 136.588 " stroke="none" fill="black" fill-rule="evenodd"/>
</svg>