<svg xmlns="http://www.w3.org/2000/svg" width="308" height="324" viewBox="0 0 308 324" version="1.1">
	<path d="M 63.102 127.104 C 37.616 130.977, 15.059 151.543, 8.374 177 C 6.114 185.608, 6.133 201.372, 8.414 210 C 12.552 225.647, 23.709 241.079, 37.307 249.965 L 43.483 254 26.313 254 C 12.037 254, 8.878 254.265, 7.571 255.571 C 5.596 257.546, 5.598 258.455, 7.579 260.436 C 8.990 261.847, 16.058 261.987, 74.220 261.757 C 134.934 261.517, 139.356 261.383, 140.386 259.750 C 141.191 258.474, 141.191 257.526, 140.387 256.250 C 139.413 254.704, 137.140 254.468, 120.895 254.226 L 102.506 253.953 108.003 250.824 C 115.691 246.447, 126.896 234.879, 131.551 226.513 C 142.982 205.964, 142.987 181.091, 131.564 160.487 C 123.551 146.033, 106.351 132.693, 90.500 128.638 C 82.410 126.568, 70.879 125.923, 63.102 127.104 M 194.801 126.991 C 182.924 129.086, 171.849 139.031, 167.974 151.080 C 165.830 157.748, 165.732 158.949, 166.763 165.917 C 169.347 183.383, 177.503 203.944, 188.043 219.564 C 194.242 228.750, 207.910 243.259, 216.320 249.581 L 222.198 254 196.033 254 C 179.910 254, 169.126 254.397, 167.934 255.035 C 165.446 256.367, 165.446 259.633, 167.934 260.965 C 170.607 262.395, 296.393 262.395, 299.066 260.965 C 301.554 259.633, 301.554 256.367, 299.066 255.035 C 297.871 254.396, 286.935 254, 270.467 254 L 243.802 254 249.663 249.594 C 258.321 243.085, 272.835 227.625, 278.852 218.500 C 291.887 198.733, 301.154 171.472, 299.683 157.222 C 297.723 138.227, 278.178 123.462, 259.553 126.906 C 249.754 128.717, 239.874 135.347, 235.196 143.250 C 234.301 144.762, 233.328 145.984, 233.034 145.963 C 232.740 145.943, 231.201 143.878, 229.613 141.374 C 222.870 130.739, 208.115 124.642, 194.801 126.991 M 57.500 135.870 C 37.436 141.645, 20.733 158.691, 15.585 178.644 C 13.554 186.517, 13.554 200.483, 15.585 208.356 C 20.838 228.716, 38.284 246.162, 58.644 251.415 C 65.760 253.251, 78.565 253.481, 86.201 251.910 C 89.115 251.310, 95.244 249.032, 99.820 246.847 C 115.079 239.562, 126.717 225.246, 131.003 208.489 C 138.032 181.004, 124.843 152.100, 99.820 140.153 C 95.244 137.968, 89.115 135.690, 86.201 135.090 C 78.410 133.487, 64.459 133.866, 57.500 135.870 M 190.363 135.922 C 180.449 140.424, 173.857 150.223, 173.857 160.459 C 173.857 167.046, 177.018 180.522, 180.952 190.707 C 189.502 212.843, 206.390 234.171, 225.953 247.538 L 233 252.353 240.248 247.427 C 266.491 229.588, 285.804 199.720, 291.608 167.996 C 293.073 159.989, 293.075 158.769, 291.625 153.781 C 285.964 134.309, 260.721 127.383, 246.161 141.307 C 241.750 145.524, 238.265 152.523, 237.426 158.845 C 236.603 165.047, 234.982 166.768, 231.470 165.168 C 229.687 164.356, 229 163.253, 229 161.203 C 229 151.481, 221.866 140.739, 212.500 136.358 C 206.116 133.372, 196.400 133.181, 190.363 135.922 " stroke="none" fill="black" fill-rule="evenodd"/>
</svg>