<svg xmlns="http://www.w3.org/2000/svg" width="340" height="324" viewBox="0 0 340 324" version="1.1">
	<path d="M 7.571 191.571 C 6.207 192.936, 6 197.463, 6 226 C 6 254.537, 6.207 259.064, 7.571 260.429 C 8.968 261.825, 16.372 262, 74 262 C 131.628 262, 139.032 261.825, 140.429 260.429 C 141.793 259.064, 142 254.537, 142 226 C 142 197.463, 141.793 192.936, 140.429 191.571 C 139.564 190.707, 138.471 190, 138 190 C 137.529 190, 136.436 190.707, 135.571 191.571 C 134.212 192.931, 134 197.242, 134 223.571 L 134 254 74 254 L 14 254 14 223.571 C 14 197.242, 13.788 192.931, 12.429 191.571 C 11.564 190.707, 10.471 190, 10 190 C 9.529 190, 8.436 190.707, 7.571 191.571 M 231.750 191.080 C 229.372 192.465, 229.542 195.685, 232.064 197.034 C 235.753 199.008, 238.819 194.219, 235.800 191.200 C 234.367 189.767, 234.022 189.757, 231.750 191.080 M 295.244 223.256 C 276.960 241.546, 262 257.206, 262 258.056 C 262 261.835, 263.488 262, 297.450 261.985 C 315.627 261.976, 331.081 261.601, 331.791 261.150 C 332.805 260.507, 333.082 252.958, 333.082 226 C 333.082 191.142, 332.975 190.068, 329.494 190.015 C 328.941 190.007, 313.529 204.965, 295.244 223.256 M 300.777 228.079 L 276.053 253.500 300.675 253.768 C 314.218 253.915, 325.464 253.870, 325.666 253.667 C 325.869 253.464, 325.915 241.904, 325.767 227.978 L 325.500 202.658 300.777 228.079 M 167.571 255.571 C 166.707 256.436, 166 257.529, 166 258 C 166 259.111, 168.889 262, 170 262 C 171.111 262, 174 259.111, 174 258 C 174 256.889, 171.111 254, 170 254 C 169.529 254, 168.436 254.707, 167.571 255.571 M 231.750 255.080 C 229.372 256.465, 229.542 259.685, 232.064 261.034 C 235.753 263.008, 238.819 258.219, 235.800 255.200 C 234.367 253.767, 234.022 253.757, 231.750 255.080 " stroke="none" fill="black" fill-rule="evenodd"/>
</svg>