<svg xmlns="http://www.w3.org/2000/svg" width="403" height="324" viewBox="0 0 403 324" version="1.1">
	<path d="M 232.207 126.677 C 231.495 126.962, 227.110 134.791, 222.462 144.075 L 214.011 160.955 211.256 159.846 C 209.740 159.237, 205.125 158.717, 201 158.692 C 191.486 158.634, 183.373 162.015, 176.689 168.824 C 169.741 175.902, 166.559 183.644, 166.546 193.500 C 166.536 200.377, 166.968 202.412, 169.617 208 C 171.591 212.162, 174.481 216.118, 177.651 219 L 182.602 223.500 174.061 240.757 C 167.119 254.782, 165.725 258.341, 166.619 259.757 C 167.629 261.358, 170.467 261.500, 201.500 261.500 C 232.586 261.500, 235.370 261.360, 236.386 259.750 C 237.191 258.474, 237.191 257.526, 236.386 256.250 C 235.382 254.658, 232.613 254.476, 205.642 254.235 L 176.001 253.970 182.614 240.735 C 186.251 233.456, 189.325 227.389, 189.444 227.253 C 189.564 227.117, 192.213 227.477, 195.331 228.053 C 209.837 230.735, 224.743 223.340, 232.070 209.826 C 235.326 203.821, 235.500 202.993, 235.500 193.500 C 235.500 184.007, 235.326 183.179, 232.070 177.174 C 230.184 173.695, 226.895 169.354, 224.762 167.528 L 220.884 164.209 228.942 148.116 C 237.136 131.751, 237.930 129.330, 235.800 127.200 C 234.516 125.916, 234.212 125.872, 232.207 126.677 M 345.117 173.393 L 297.482 220.990 281.878 205.386 C 267.616 191.124, 266.091 189.881, 264.137 190.926 C 262.962 191.556, 262 192.837, 262 193.773 C 262 194.710, 268.857 202.344, 277.238 210.738 L 292.476 226 277.238 241.262 C 268.857 249.656, 262 257.290, 262 258.227 C 262 259.163, 262.960 260.443, 264.132 261.071 C 266.079 262.113, 267.624 260.855, 281.895 246.605 L 297.524 230.998 312.012 245.564 C 319.980 253.576, 327.316 260.582, 328.314 261.135 C 330.445 262.314, 333 260.681, 333 258.139 C 333 257.251, 326.141 249.654, 317.758 241.258 L 302.516 225.992 349.758 178.742 C 375.741 152.755, 397 130.722, 397 129.781 C 397 128.840, 396.044 127.559, 394.876 126.934 C 392.922 125.888, 388.948 129.598, 345.117 173.393 M 67.045 159.064 C 51.466 162.218, 39.110 176.089, 38.674 190.913 L 38.500 196.812 35.101 195.395 C 30.385 193.428, 21.563 191.309, 14.877 190.537 C 10.402 190.020, 8.923 190.220, 7.627 191.515 C 5.597 193.546, 5.587 194.444, 7.571 196.429 C 8.538 197.395, 10.888 198, 13.677 198 C 31.791 198, 53.739 212.457, 62.330 230.046 C 65.956 237.472, 69 247.357, 69 251.710 L 69 254 39.071 254 C 13.197 254, 8.930 254.213, 7.571 255.571 C 5.596 257.546, 5.598 258.455, 7.579 260.436 C 8.990 261.847, 16.058 261.987, 74.220 261.757 C 134.934 261.517, 139.356 261.383, 140.386 259.750 C 141.191 258.474, 141.191 257.526, 140.386 256.250 C 139.381 254.655, 136.559 254.477, 108.505 254.235 L 77.728 253.971 78.373 248.485 C 80.420 231.067, 93.525 212.797, 109.877 204.562 C 118.141 200.400, 123.509 198.859, 132.396 198.094 C 140.001 197.439, 142.518 195.591, 140.358 192.250 C 138.269 189.018, 121.978 191.080, 110.404 196.041 C 106.806 197.583, 106.006 197.697, 106.976 196.529 C 109.094 193.977, 107.797 184.103, 104.483 177.555 C 97.688 164.123, 81.512 156.134, 67.045 159.064 M 63.385 167.617 C 54.231 170.864, 46 181.756, 46 190.625 C 46 195.134, 43.759 198.505, 41.371 197.589 C 38.616 196.532, 40.133 197.798, 45.848 201.326 C 54.911 206.920, 64.159 217.401, 69.287 227.890 L 73.659 236.833 74.930 233.167 C 78.661 222.401, 89.872 208.466, 100.169 201.793 C 104.972 198.681, 104.994 198.643, 103.005 196.790 C 101.678 195.553, 101 193.637, 101 191.121 C 101 185.810, 95.758 175.768, 91.031 172.024 C 83.623 166.158, 72.501 164.384, 63.385 167.617 M 191.885 167.380 C 176.988 172.703, 169.528 190.089, 175.926 204.573 C 178.127 209.556, 183.501 216, 185.456 216 C 186.040 216, 192.003 205.021, 198.706 191.603 C 210.277 168.436, 210.781 167.175, 208.696 166.616 C 204.933 165.607, 195.667 166.028, 191.885 167.380 M 205.251 195.485 C 195.515 214.977, 193.400 219.939, 194.629 220.411 C 195.473 220.735, 198.787 221, 201.994 221 C 206.624 221, 209.112 220.331, 214.073 217.750 C 229.402 209.777, 233.575 191.538, 223.423 176.888 C 218.107 169.218, 218.647 168.666, 205.251 195.485 " stroke="none" fill="black" fill-rule="evenodd"/>
</svg>