<svg xmlns="http://www.w3.org/2000/svg" width="244" height="324" viewBox="0 0 244 324" version="1.1">
	<path d="M 7.571 127.571 C 6.707 128.436, 6 129.529, 6 130 C 6 130.471, 6.707 131.564, 7.571 132.429 C 8.924 133.781, 12.988 134, 36.774 134 L 64.405 134 51.202 147.333 C 43.941 154.666, 38 161.159, 38 161.761 C 38 163.178, 40.822 166, 42.239 166 C 42.841 166, 49.334 160.059, 56.667 152.798 L 70 139.595 70 161.381 C 70 173.363, 69.662 182.996, 69.250 182.788 C 53.583 174.888, 45.367 173.083, 33.889 175.019 C 21.070 177.181, 4.398 187.718, 5.170 193.170 C 5.707 196.959, 9.610 196.767, 13.870 192.741 C 27.527 179.835, 50.203 178.411, 65.250 189.514 L 70 193.019 70 223.510 L 70 254 39.571 254 C 13.242 254, 8.931 254.212, 7.571 255.571 C 5.598 257.545, 5.598 258.455, 7.571 260.429 C 8.968 261.825, 16.372 262, 74 262 C 131.628 262, 139.032 261.825, 140.429 260.429 C 141.825 259.032, 142 251.628, 142 194 C 142 136.372, 141.825 128.968, 140.429 127.571 C 139.032 126.175, 131.628 126, 74 126 C 16.372 126, 8.968 126.175, 7.571 127.571 M 96.798 147.333 C 104.059 154.666, 110 161.159, 110 161.761 C 110 163.178, 107.178 166, 105.761 166 C 105.159 166, 98.666 160.059, 91.333 152.798 L 78 139.595 78 165.726 C 78 195.685, 77.284 193.341, 87.983 198.412 C 93.979 201.253, 95.340 201.500, 105 201.500 C 114.307 201.500, 116.152 201.195, 121.235 198.812 C 124.390 197.334, 128.552 194.918, 130.485 193.443 L 134 190.763 134 162.381 L 134 134 108.798 134 L 83.595 134 96.798 147.333 M 199.244 223.256 C 180.960 241.546, 166 257.206, 166 258.056 C 166 261.835, 167.488 262, 201.450 261.985 C 219.627 261.976, 235.081 261.601, 235.791 261.150 C 236.805 260.507, 237.082 252.958, 237.082 226 C 237.082 191.142, 236.975 190.068, 233.494 190.015 C 232.941 190.007, 217.529 204.965, 199.244 223.256 M 130.050 202.534 C 117.847 211.150, 97.405 211.704, 81.750 203.843 L 78 201.959 78 227.980 L 78 254 106 254 L 134 254 134 227 C 134 212.150, 133.887 200.022, 133.750 200.049 C 133.613 200.076, 131.948 201.194, 130.050 202.534 M 204.646 228.500 L 179.843 254 204.921 254 L 230 254 230 228.500 C 230 214.475, 229.876 203, 229.725 203 C 229.574 203, 218.288 214.475, 204.646 228.500 " stroke="none" fill="black" fill-rule="evenodd"/>
</svg>