<svg xmlns="http://www.w3.org/2000/svg" width="84" height="324" viewBox="0 0 84 324" version="1.1">
	<path d="M 40.372 62.765 C 38.418 64.037, 22.003 97.844, 22.593 99.381 C 23.268 101.141, 25.513 102.124, 27.295 101.440 C 28.007 101.167, 31.480 95.106, 35.014 87.972 C 38.547 80.837, 41.691 75, 42 75 C 42.309 75, 45.453 80.837, 48.986 87.972 C 52.520 95.106, 55.993 101.167, 56.705 101.440 C 58.487 102.124, 60.732 101.141, 61.407 99.381 C 61.716 98.575, 58.096 90.173, 53.363 80.708 C 45.638 65.261, 43.672 62.031, 42 62.031 C 41.725 62.031, 40.992 62.361, 40.372 62.765 M 35.045 159.064 C 13.497 163.427, 1.173 185.901, 9.037 206.493 C 12.164 214.680, 20.320 222.836, 28.507 225.963 C 41.863 231.064, 56.079 228.081, 66.080 218.080 C 87.084 197.076, 74.303 161.904, 44.500 158.699 C 41.750 158.403, 37.495 158.567, 35.045 159.064 M 31.627 167.408 C 21.770 171.075, 15.005 180.157, 14.256 190.731 C 13.662 199.129, 15.100 204.665, 19.312 210.187 C 24.310 216.739, 30.619 220.169, 38.731 220.744 C 47.129 221.338, 52.665 219.900, 58.187 215.688 C 64.739 210.690, 68.169 204.381, 68.744 196.269 C 69.007 192.546, 68.710 187.606, 68.084 185.292 C 66.549 179.620, 61.451 173.174, 55.677 169.604 C 51.715 167.154, 49.639 166.607, 43.212 166.316 C 38.161 166.088, 34.164 166.465, 31.627 167.408 " stroke="none" fill="black" fill-rule="evenodd"/>
</svg>