<svg xmlns="http://www.w3.org/2000/svg" width="308" height="324" viewBox="0 0 308 324" version="1.1">
	<path d="M 39.571 127.571 C 38.288 128.855, 38 131.788, 38 143.571 L 38 158 23.571 158 C 11.788 158, 8.855 158.288, 7.571 159.571 C 5.598 161.545, 5.598 162.455, 7.571 164.429 C 8.820 165.677, 11.534 166, 20.774 166 L 32.405 166 19.202 179.333 C 11.941 186.666, 6 193.159, 6 193.761 C 6 195.178, 8.822 198, 10.239 198 C 10.841 198, 17.334 192.059, 24.667 184.798 L 38 171.595 38 196.798 L 38 222 23.571 222 C 11.788 222, 8.855 222.288, 7.571 223.571 C 6.707 224.436, 6 225.529, 6 226 C 6 226.471, 6.707 227.564, 7.571 228.429 C 8.855 229.712, 11.788 230, 23.571 230 L 38 230 38 244.429 C 38 256.212, 38.288 259.145, 39.571 260.429 C 40.436 261.293, 41.529 262, 42 262 C 42.471 262, 43.564 261.293, 44.429 260.429 C 45.712 259.145, 46 256.212, 46 244.429 L 46 230 74 230 L 102 230 102 244.429 C 102 256.212, 102.288 259.145, 103.571 260.429 C 105.678 262.535, 106.598 262.412, 108.443 259.777 C 109.669 258.028, 110 254.631, 110 243.804 L 110 230.053 124.643 229.777 C 137.314 229.537, 139.433 229.264, 140.387 227.750 C 141.191 226.475, 141.191 225.525, 140.387 224.250 C 139.433 222.736, 137.314 222.463, 124.643 222.223 L 110 221.947 110 196.771 L 110 171.595 123.333 184.798 C 130.666 192.059, 137.101 198, 137.633 198 C 139.116 198, 141 195.782, 141 194.036 C 141 193.175, 135.141 186.628, 127.981 179.486 L 114.961 166.500 127.125 166 C 137.276 165.583, 139.471 165.210, 140.389 163.750 C 141.190 162.476, 141.190 161.524, 140.387 160.250 C 139.433 158.736, 137.314 158.463, 124.643 158.223 L 110 157.947 110 144.196 C 110 133.369, 109.669 129.972, 108.443 128.223 C 106.598 125.588, 105.678 125.465, 103.571 127.571 C 102.319 128.824, 102 131.558, 102 141.040 L 102 152.937 89.386 140 C 82.448 132.884, 75.865 126.775, 74.758 126.423 C 73.137 125.909, 70.132 128.390, 59.372 139.128 L 46 152.472 46 140.808 C 46 131.537, 45.678 128.820, 44.429 127.571 C 43.564 126.707, 42.471 126, 42 126 C 41.529 126, 40.436 126.707, 39.571 127.571 M 221.500 127.418 C 199.159 131.764, 182.217 144.901, 172.350 165.528 C 168.681 173.199, 166 185.065, 166 193.630 C 166 212.517, 176.151 233.739, 190.809 245.497 C 195.773 249.478, 206.984 255.690, 212.250 257.377 C 213.826 257.882, 214 259.627, 214 274.933 C 214 291.082, 214.103 291.985, 216.064 293.034 C 220.355 295.331, 221 293.119, 221 276.095 L 221 260.435 233.500 260.393 L 246 260.350 246 276.140 C 246 291.069, 246.112 291.990, 248.064 293.034 C 252.408 295.359, 253 293.190, 253 274.963 L 253 258.171 261.250 254.137 C 280.794 244.581, 292.936 229.734, 298.124 209.049 C 303.910 185.983, 295.798 159.845, 277.801 143.558 C 271.325 137.697, 256.936 130.003, 248.974 128.142 C 241.072 126.295, 228.920 125.975, 221.500 127.418 M 218.072 135.532 C 207.628 138.453, 199.923 143.060, 191.384 151.489 C 179.132 163.583, 173.639 176.587, 173.639 193.500 C 173.639 210.413, 179.132 223.417, 191.384 235.511 C 200.259 244.272, 207.970 248.753, 219.060 251.594 C 227.800 253.833, 244.050 253.075, 252.723 250.024 C 266.832 245.060, 279.471 233.874, 286.082 220.500 C 295.079 202.297, 295.070 184.715, 286.055 166.423 C 279.478 153.078, 266.927 141.986, 252.723 136.966 C 244.494 134.058, 226.068 133.296, 218.072 135.532 M 62.500 147 L 51.534 158 74 158 L 96.466 158 85.500 147 C 79.469 140.950, 74.294 136, 74 136 C 73.706 136, 68.531 140.950, 62.500 147 M 231.750 159.080 C 230.143 160.016, 230 162.628, 230 191.050 L 230 222 215.934 222 C 201.308 222, 198 222.738, 198 226 C 198 229.750, 200.791 230.037, 234.601 229.764 C 264.469 229.523, 267.378 229.349, 268.386 227.750 C 269.190 226.475, 269.191 225.525, 268.387 224.250 C 267.430 222.730, 265.291 222.464, 252.142 222.224 L 237 221.948 237 191.174 C 237 157.562, 236.770 156.156, 231.750 159.080 M 46 194 L 46 222 74 222 L 102 222 102 194 L 102 166 74 166 L 46 166 46 194 M 279.239 271.260 C 269.758 280.754, 262 289.196, 262 290.022 C 262 290.847, 269.317 298.830, 278.261 307.761 C 292.576 322.057, 294.910 324, 297.761 324 C 300.171 324, 301 323.555, 301 322.262 C 301 321.306, 294.143 313.656, 285.762 305.262 L 270.524 290 285.762 274.738 C 294.143 266.344, 301 258.784, 301 257.938 C 301 256.168, 299.095 254, 297.539 254 C 296.956 254, 288.721 261.767, 279.239 271.260 " stroke="none" fill="black" fill-rule="evenodd"/>
</svg>