<svg xmlns="http://www.w3.org/2000/svg" width="308" height="324" viewBox="0 0 308 324" version="1.1">
	<path d="M 55.750 63.080 C 54.186 63.991, 54 66.007, 54 82.015 C 54 98.703, 54.132 100, 55.934 100.965 C 57.043 101.558, 64.905 102, 74.363 102 C 88.024 102, 91.127 101.730, 92.429 100.429 C 94.757 98.100, 94.757 65.900, 92.429 63.571 C 91.123 62.266, 88.036 62.005, 74.179 62.030 C 64.720 62.048, 56.742 62.502, 55.750 63.080 M 215.750 63.080 C 212.687 64.864, 213.818 67.270, 221.225 74.726 L 228.450 82 221.225 89.274 C 213.623 96.926, 212.639 99.201, 216.125 101.067 C 218.033 102.088, 219.032 101.427, 225.901 94.599 L 233.551 86.993 240.026 93.568 C 247.764 101.427, 249.584 102.591, 251.564 100.947 C 254.159 98.793, 253.091 96.639, 245.775 89.274 L 238.550 82 245.775 74.726 C 249.749 70.726, 253 66.766, 253 65.926 C 253 64.238, 251.110 62, 249.685 62 C 249.182 62, 245.313 65.365, 241.087 69.477 L 233.404 76.954 225.977 69.477 C 221.892 65.365, 218.314 62.014, 218.025 62.030 C 217.736 62.047, 216.713 62.519, 215.750 63.080 M 62 82 L 62 94 74 94 L 86 94 86 82 L 86 70 74 70 L 62 70 62 82 M 39.267 159.267 C 20.970 177.563, 6 193.056, 6 193.695 C 6 195.187, 8.799 198, 10.285 198 C 10.913 198, 25.506 183.947, 42.713 166.771 L 74 135.542 105.287 166.771 C 122.494 183.947, 137.064 198, 137.664 198 C 139.272 198, 141.216 195.319, 140.833 193.630 C 140.370 191.592, 75.355 126, 73.797 126 C 73.102 126, 57.563 140.970, 39.267 159.267 M 230.750 127.080 C 229.589 127.757, 228.994 129.344, 228.983 131.800 C 228.921 144.897, 221.395 161.691, 210.958 172.019 C 201.192 181.684, 185.150 189, 173.724 189 C 168.860 189, 166 190.502, 166 193.057 C 166 196.657, 169.743 197.322, 180.079 195.557 C 198.427 192.426, 214.541 181.946, 224.959 166.370 L 230 158.832 230 209.381 C 230 259.428, 230.020 259.941, 232.064 261.034 C 236.995 263.673, 237 263.623, 237 209.794 L 237 159.832 242.048 167.380 C 252.697 183.302, 269.101 193.266, 289.223 196.036 C 297.741 197.208, 301 196.368, 301 193 C 301 190.334, 298.650 189.369, 290.500 188.687 C 273.052 187.227, 257.051 177.309, 246.871 161.646 C 241.829 153.889, 239.149 146.453, 237.845 136.602 C 236.476 126.264, 235.167 124.508, 230.750 127.080 " stroke="none" fill="black" fill-rule="evenodd"/>
</svg>