<svg xmlns="http://www.w3.org/2000/svg" width="244" height="324" viewBox="0 0 244 324" version="1.1">
	<path d="M 39.571 127.571 C 38.176 128.966, 38 136.152, 38 191.571 L 38 254 23.571 254 C 11.788 254, 8.855 254.288, 7.571 255.571 C 5.598 257.545, 5.598 258.455, 7.571 260.429 C 8.936 261.793, 13.463 262, 42 262 C 70.537 262, 75.064 261.793, 76.429 260.429 C 77.293 259.564, 78 258.471, 78 258 C 78 257.529, 77.293 256.436, 76.429 255.571 C 75.145 254.288, 72.212 254, 60.429 254 L 46 254 46 191.571 C 46 136.152, 45.824 128.966, 44.429 127.571 C 43.564 126.707, 42.471 126, 42 126 C 41.529 126, 40.436 126.707, 39.571 127.571 M 103.200 127.200 C 101.465 128.935, 101.465 259.065, 103.200 260.800 C 104.109 261.709, 120.172 261.996, 169.450 261.985 C 205.227 261.976, 235.072 261.606, 235.772 261.162 C 237.639 259.977, 237.639 128.023, 235.772 126.838 C 235.072 126.394, 205.228 126.024, 169.450 126.015 C 120.172 126.004, 104.109 126.291, 103.200 127.200 M 110 194 L 110 254 170 254 L 230 254 230 194 L 230 134 170 134 L 110 134 110 194 M 161.746 159.027 C 151.218 161.673, 141.993 169.407, 137.329 179.500 C 133.374 188.059, 133.386 198.895, 137.361 207.610 C 140.861 215.285, 147.689 222.075, 155.480 225.629 C 172.068 233.197, 192.757 225.420, 201.049 208.500 C 203.153 204.207, 203.500 202.086, 203.500 193.500 C 203.500 181.464, 201.483 176.393, 193.518 168.404 C 185.687 160.548, 171.894 156.477, 161.746 159.027 M 159.385 167.617 C 144.729 172.815, 137.477 191.530, 144.588 205.801 C 147.700 212.046, 153.591 217.332, 159.795 219.446 C 178.062 225.670, 196.989 212.467, 196.989 193.500 C 196.989 178.471, 184.451 165.890, 169.663 166.079 C 166.273 166.122, 161.648 166.815, 159.385 167.617 " stroke="none" fill="black" fill-rule="evenodd"/>
</svg>