<svg xmlns="http://www.w3.org/2000/svg" width="532" height="324" viewBox="0 0 532 324" version="1.1">
	<path d="M 39.267 159.267 C 20.970 177.563, 6 193.056, 6 193.695 C 6 195.187, 8.799 198, 10.285 198 C 10.913 198, 25.506 183.947, 42.713 166.771 L 74 135.542 105.287 166.771 C 122.494 183.947, 137.087 198, 137.715 198 C 139.201 198, 142 195.187, 142 193.695 C 142 191.982, 75.721 126, 74 126 C 73.193 126, 57.563 140.970, 39.267 159.267 M 416.655 175.064 C 406.003 176.682, 396.102 182.597, 386.500 193.079 C 385.400 194.280, 381.595 196.639, 378.045 198.321 C 364.932 204.536, 347.655 202.745, 336.173 193.980 C 330.659 189.772, 327.830 189.422, 326.517 192.788 C 325.631 195.058, 332.716 201.464, 339.672 204.682 C 347.163 208.148, 358.233 210.233, 364.926 209.438 C 377.301 207.969, 389.890 201.714, 396.002 193.998 C 406.872 180.272, 432.127 178.022, 448.743 189.299 C 450.527 190.510, 451.989 191.983, 451.993 192.573 C 452.002 193.973, 461.508 201.704, 466 203.964 C 470.733 206.346, 478.514 208.708, 484.114 209.461 C 493.727 210.754, 508.820 206.483, 518.244 199.803 C 520.035 198.533, 522.400 196.998, 523.500 196.390 C 528.146 193.824, 525.221 188.760, 515.500 182.543 C 508.905 178.325, 503.493 176.277, 495.622 175.019 C 484.036 173.169, 469.278 176.737, 460.347 183.549 L 457.090 186.033 451.682 182.573 C 441.469 176.040, 428.514 173.263, 416.655 175.064 M 475.416 183.900 C 469.652 186.015, 462 190.583, 462 191.908 C 462 192.394, 464.137 194.152, 466.750 195.814 C 478.134 203.059, 494.092 204.048, 506.045 198.249 C 509.595 196.527, 513.374 194.416, 514.441 193.559 C 516.363 192.016, 516.363 191.984, 514.441 190.441 C 513.374 189.584, 509.575 187.460, 506 185.723 C 500.307 182.955, 498.320 182.530, 490 182.299 C 482.710 182.096, 479.317 182.468, 475.416 183.900 M 167.491 191.652 C 166.141 193.002, 165.968 194.418, 166.543 199.402 C 168.559 216.861, 173.961 228.010, 186.474 240.535 C 196.314 250.385, 204.461 255.196, 217 258.560 C 225.648 260.881, 241.335 260.883, 250 258.566 C 271.791 252.737, 290.407 234.985, 297.429 213.336 C 299.985 205.455, 300.934 194.351, 299.257 191.956 C 298.503 190.880, 297.494 190, 297.015 190 C 294.861 190, 293 193.412, 293 197.361 C 293 216.067, 278.305 238.020, 259.899 246.809 C 249.917 251.576, 243.693 253, 232.845 253 C 216.947 253, 203.158 247.193, 191.388 235.541 C 180.900 225.158, 174 210.206, 174 197.861 C 174 194.905, 173.413 192.556, 172.429 191.571 C 170.439 189.582, 169.547 189.596, 167.491 191.652 " stroke="none" fill="black" fill-rule="evenodd"/>
</svg>