<svg xmlns="http://www.w3.org/2000/svg" width="308" height="324" viewBox="0 0 308 324" version="1.1">
	<path d="M 64.500 126.950 C 56.331 128.263, 50.933 129.996, 43 133.853 C 32.425 138.995, 18.991 152.437, 13.833 163.036 C 7.635 175.772, 4.321 193.179, 7.491 196.348 C 10.992 199.850, 14 196.834, 14 189.823 C 14 176.973, 20.772 162.004, 31.388 151.388 C 42.912 139.864, 56.893 134, 72.845 134 C 83.693 134, 89.917 135.424, 99.899 140.191 C 110.084 145.054, 120.729 155.129, 125.780 164.686 C 129.503 171.731, 133 184.277, 133 190.589 C 133 198.126, 132.466 198, 164.308 198 L 192.472 198 179.236 211.263 C 171.956 218.558, 166 225.292, 166 226.228 C 166 227.164, 166.954 228.440, 168.120 229.064 C 170.049 230.097, 171.785 228.687, 187.471 213.349 C 200.692 200.422, 204.703 195.918, 204.703 194 C 204.703 192.082, 200.692 187.578, 187.471 174.651 C 171.785 159.313, 170.049 157.903, 168.120 158.936 C 166.954 159.560, 166 160.836, 166 161.772 C 166 162.708, 171.956 169.442, 179.236 176.737 L 192.472 190 166.236 190 L 140 190 140 187.160 C 140 181.904, 136.085 168.955, 132.303 161.700 C 129.753 156.809, 125.954 151.890, 120.457 146.361 C 113.725 139.590, 110.779 137.461, 102.933 133.695 C 90.062 127.519, 76.150 125.077, 64.500 126.950 M 295.724 127.134 C 294.119 128.033, 294 132.654, 294 194.015 C 294 256.133, 294.102 259.984, 295.776 260.880 C 296.902 261.483, 298.182 261.478, 299.276 260.866 C 300.881 259.967, 301 255.346, 301 193.985 C 301 131.867, 300.898 128.016, 299.224 127.120 C 298.098 126.517, 296.818 126.522, 295.724 127.134 M 239.230 199.269 C 234.154 204.367, 230 209.301, 230 210.234 C 230 211.166, 230.911 212.417, 232.024 213.013 C 233.777 213.951, 234.847 213.334, 240.024 208.396 L 246 202.696 246 228.348 L 246 254 239.934 254 C 233.019 254, 230 255.216, 230 258 C 230 261.326, 233.285 262, 249.500 262 C 265.715 262, 269 261.326, 269 258 C 269 255.216, 265.981 254, 259.066 254 L 253 254 253 223.200 C 253 192.392, 252.750 190, 249.530 190 C 248.942 190, 244.307 194.171, 239.230 199.269 " stroke="none" fill="black" fill-rule="evenodd"/>
</svg>