<svg xmlns="http://www.w3.org/2000/svg" width="372" height="324" viewBox="0 0 372 324" version="1.1">
	<path d="M 33.829 175.076 C 30.710 175.534, 25.219 177.241, 21.626 178.870 C 13.744 182.444, 4.771 190.400, 5.204 193.430 C 5.738 197.166, 9.662 196.567, 14.627 191.990 C 17.111 189.700, 21.699 186.636, 24.822 185.180 C 29.869 182.828, 31.722 182.532, 41.500 182.517 C 51.923 182.501, 52.852 182.672, 59.222 185.788 C 63.802 188.028, 67.277 190.655, 70.122 194.030 C 85.973 212.828, 117.410 214.627, 136.540 197.831 C 140.501 194.353, 141.161 190.503, 137.970 189.490 C 136.520 189.030, 134.888 189.769, 132.267 192.070 C 130.247 193.844, 125.648 196.691, 122.047 198.397 C 116.017 201.255, 114.670 201.500, 105 201.500 C 95.344 201.500, 93.977 201.252, 88 198.418 C 83.607 196.335, 79.555 193.310, 75.500 189.086 C 68.195 181.477, 58.638 176.517, 48.444 175.043 C 44.625 174.491, 41.050 174.086, 40.500 174.142 C 39.950 174.198, 36.948 174.618, 33.829 175.076 M 257.500 175.039 C 246.035 177.041, 237.279 181.764, 229.620 190.078 C 226.605 193.352, 222.623 196.231, 218.241 198.307 C 211.992 201.267, 210.734 201.500, 201 201.500 C 191.598 201.500, 189.873 201.207, 184.500 198.702 C 181.200 197.163, 176.804 194.547, 174.732 192.890 C 170.135 189.214, 166.703 189.629, 167.192 193.802 C 167.839 199.328, 181.514 206.926, 194.567 209.011 C 209.161 211.342, 227.707 204.806, 235.505 194.582 C 243.374 184.265, 262.305 179.229, 276.911 183.566 C 282.465 185.216, 292 190.567, 292 192.035 C 292 193.341, 297.933 198.688, 303 201.949 C 318.714 212.061, 341.088 211.711, 356.211 201.117 C 359.291 198.960, 362.753 196.896, 363.905 196.530 C 367.383 195.426, 366.491 191.708, 361.687 187.279 C 345.705 172.548, 321.065 170.402, 302.877 182.158 L 296.927 186.004 291.713 182.477 C 282.620 176.325, 268.151 173.179, 257.500 175.039 M 315.669 184.073 C 308.183 186.648, 301.958 190.726, 302.672 192.587 C 302.969 193.362, 306.629 195.684, 310.804 197.748 C 318.144 201.376, 318.750 201.500, 329.071 201.500 C 339.556 201.500, 339.884 201.429, 347.556 197.500 C 351.852 195.300, 355.529 192.989, 355.729 192.364 C 356.233 190.781, 347.254 185.450, 340.911 183.566 C 333.600 181.395, 322.824 181.611, 315.669 184.073 " stroke="none" fill="black" fill-rule="evenodd"/>
</svg>