<svg xmlns="http://www.w3.org/2000/svg" width="276" height="324" viewBox="0 0 276 324" version="1.1">
	<path d="M 7.571 127.571 C 6.206 128.937, 6 133.497, 6 162.371 C 6 186.883, 6.315 195.915, 7.200 196.800 C 8.081 197.681, 16.578 198, 39.200 198 L 70 198 70 228.429 C 70 254.758, 70.212 259.069, 71.571 260.429 C 73.545 262.402, 74.455 262.402, 76.429 260.429 C 77.824 259.034, 78 251.848, 78 196.429 C 78 137.109, 78.089 134, 79.790 134 C 83.679 134, 93.877 137.214, 100.954 140.670 C 111.143 145.647, 121.353 155.857, 126.330 166.046 C 130.578 174.744, 133 183.494, 133 190.139 C 133 193.095, 133.587 195.444, 134.571 196.429 C 136.565 198.422, 137.453 198.404, 139.527 196.330 C 140.906 194.951, 141.076 193.530, 140.501 188.168 C 138.618 170.585, 133.069 158.991, 120.539 146.461 C 106.476 132.398, 92.784 126.624, 73.500 126.624 C 61.745 126.624, 53.708 128.497, 43.194 133.687 C 34.777 137.842, 22.778 148.473, 17.769 156.214 L 14.500 161.265 14 144.594 C 13.600 131.252, 13.200 127.734, 12 126.977 C 9.946 125.681, 9.386 125.757, 7.571 127.571 M 263.571 127.571 C 262.175 128.968, 262 136.372, 262 194 C 262 251.628, 262.175 259.032, 263.571 260.429 C 264.436 261.293, 265.529 262, 266 262 C 266.471 262, 267.564 261.293, 268.429 260.429 C 269.825 259.032, 270 251.628, 270 194 C 270 136.372, 269.825 128.968, 268.429 127.571 C 267.564 126.707, 266.471 126, 266 126 C 265.529 126, 264.436 126.707, 263.571 127.571 M 59 135.576 C 42.069 140.023, 27.451 151.897, 20.191 167.101 C 16.492 174.848, 14 183.279, 14 188.049 C 14 189.937, 14.902 190, 42 190 L 70 190 70 162 L 70 134 67.250 134.066 C 65.737 134.102, 62.025 134.782, 59 135.576 M 167.571 159.571 C 165.215 161.927, 165.215 210.073, 167.571 212.429 C 168.436 213.293, 169.529 214, 170 214 C 170.471 214, 171.564 213.293, 172.429 212.429 C 174.785 210.073, 174.785 161.927, 172.429 159.571 C 171.564 158.707, 170.471 158, 170 158 C 169.529 158, 168.436 158.707, 167.571 159.571 M 207.308 199.308 C 202.188 204.427, 198 209.120, 198 209.736 C 198 211.121, 200.789 214, 202.131 214 C 202.675 214, 205.568 211.685, 208.560 208.855 L 214 203.710 214 228.855 L 214 254 207.571 254 C 203.061 254, 200.674 254.469, 199.571 255.571 C 197.598 257.545, 197.598 258.455, 199.571 260.429 C 200.876 261.733, 204.009 262, 218 262 C 231.991 262, 235.124 261.733, 236.429 260.429 C 238.402 258.455, 238.402 257.545, 236.429 255.571 C 235.326 254.469, 232.939 254, 228.429 254 L 222 254 222 223.571 C 222 197.242, 221.788 192.931, 220.429 191.571 C 219.564 190.707, 218.353 190, 217.736 190 C 217.120 190, 212.427 194.188, 207.308 199.308 M 167.571 222.571 C 166.707 223.436, 166 224.529, 166 225 C 166 225.471, 166.707 226.564, 167.571 227.429 C 168.436 228.293, 169.529 229, 170 229 C 170.471 229, 171.564 228.293, 172.429 227.429 C 173.293 226.564, 174 225.471, 174 225 C 174 224.529, 173.293 223.436, 172.429 222.571 C 171.564 221.707, 170.471 221, 170 221 C 169.529 221, 168.436 221.707, 167.571 222.571 " stroke="none" fill="black" fill-rule="evenodd"/>
</svg>