<svg xmlns="http://www.w3.org/2000/svg" width="84" height="324" viewBox="0 0 84 324" version="1.1">
	<path d="M 71.571 127.571 C 70.175 128.968, 70 136.372, 70 194 C 70 251.628, 70.175 259.032, 71.571 260.429 C 72.436 261.293, 73.529 262, 74 262 C 74.471 262, 75.564 261.293, 76.429 260.429 C 77.825 259.032, 78 251.628, 78 194 C 78 136.372, 77.825 128.968, 76.429 127.571 C 75.564 126.707, 74.471 126, 74 126 C 73.529 126, 72.436 126.707, 71.571 127.571 M 15.184 199.365 C 10.133 204.516, 6 209.209, 6 209.794 C 6 211.133, 8.816 214, 10.131 214 C 10.675 214, 13.568 211.685, 16.560 208.855 L 22 203.710 22 228.855 L 22 254 15.571 254 C 11.061 254, 8.674 254.469, 7.571 255.571 C 5.598 257.545, 5.598 258.455, 7.571 260.429 C 9.900 262.757, 42.100 262.757, 44.429 260.429 C 46.402 258.455, 46.402 257.545, 44.429 255.571 C 43.326 254.469, 40.939 254, 36.429 254 L 30 254 30 223.200 C 30 184.046, 30.081 184.175, 15.184 199.365 " stroke="none" fill="black" fill-rule="evenodd"/>
</svg>