<svg xmlns="http://www.w3.org/2000/svg" width="372" height="324" viewBox="0 0 372 324" version="1.1">
	<path d="M 35.045 127.092 C 19.667 130.107, 7.255 144.071, 6.841 158.824 C 6.689 164.231, 10.459 179.667, 14.976 192.133 C 21.053 208.902, 33.075 227.074, 46.717 240.107 C 55.990 248.967, 71.179 260, 74.103 260 C 75.247 260, 77.380 259.083, 78.842 257.962 C 80.304 256.841, 85.561 252.856, 90.524 249.106 C 115.693 230.086, 133.319 201.269, 139.405 169.189 C 140.580 162.992, 140.715 159.758, 139.963 155.763 C 135.596 132.560, 112.226 120.286, 90.616 129.845 C 85.222 132.232, 79.372 137.363, 76.005 142.662 L 73.360 146.824 71.503 143.377 C 69.181 139.064, 62.418 132.764, 57.318 130.162 C 55.183 129.073, 50.781 127.691, 47.535 127.091 C 40.969 125.877, 41.243 125.877, 35.045 127.092 M 31.054 135.728 C 24.787 137.940, 17.726 145.297, 15.534 151.899 C 13.881 156.875, 13.875 157.704, 15.430 166.205 C 18.769 184.454, 25.331 200.650, 35.740 216.330 C 41.768 225.410, 57.343 241.046, 66.659 247.369 L 73.817 252.228 79.235 248.632 C 104.319 231.983, 122.938 205.409, 130.553 175.392 C 134.737 158.897, 133.307 150.212, 125.048 141.952 C 117.477 134.382, 106.241 131.995, 95.463 135.667 C 86.088 138.862, 78 149.949, 78 159.607 C 78 162.970, 75.867 166, 73.500 166 C 71.133 166, 69 162.970, 69 159.607 C 69 149.949, 60.912 138.862, 51.537 135.667 C 45.516 133.616, 36.964 133.641, 31.054 135.728 M 167.571 159.571 C 165.215 161.927, 165.215 210.073, 167.571 212.429 C 168.436 213.293, 169.529 214, 170 214 C 170.471 214, 171.564 213.293, 172.429 212.429 C 174.785 210.073, 174.785 161.927, 172.429 159.571 C 171.564 158.707, 170.471 158, 170 158 C 169.529 158, 168.436 158.707, 167.571 159.571 M 199.571 159.571 C 197.215 161.927, 197.215 210.073, 199.571 212.429 C 200.436 213.293, 201.529 214, 202 214 C 202.471 214, 203.564 213.293, 204.429 212.429 C 206.785 210.073, 206.785 161.927, 204.429 159.571 C 203.564 158.707, 202.471 158, 202 158 C 201.529 158, 200.436 158.707, 199.571 159.571 M 264.370 190.765 C 262.401 192.045, 230.007 257.855, 230.594 259.384 C 231.265 261.133, 233.512 262.124, 235.274 261.448 C 235.975 261.180, 243.056 247.919, 251.010 231.980 C 258.964 216.041, 265.714 203, 266.009 203 C 266.304 203, 273.101 216.162, 281.113 232.250 L 295.681 261.500 328.090 261.779 C 345.916 261.933, 361.463 261.825, 362.640 261.538 C 363.817 261.252, 365.046 260.323, 365.371 259.475 C 366.058 257.686, 333.206 191.293, 331.265 190.548 C 330.569 190.281, 329.427 190.283, 328.726 190.552 C 328.025 190.820, 320.944 204.081, 312.990 220.020 C 305.036 235.959, 298.290 249, 298 249 C 297.709 249, 291.178 236.339, 283.486 220.864 C 275.794 205.389, 268.905 192.114, 268.179 191.364 C 266.686 189.823, 265.988 189.713, 264.370 190.765 M 316.743 228.500 L 304.005 254 330 254 L 355.995 254 343.257 228.500 C 336.250 214.475, 330.285 203, 330 203 C 329.715 203, 323.750 214.475, 316.743 228.500 M 167.571 222.571 C 166.707 223.436, 166 224.529, 166 225 C 166 225.471, 166.707 226.564, 167.571 227.429 C 168.436 228.293, 169.529 229, 170 229 C 170.471 229, 171.564 228.293, 172.429 227.429 C 173.293 226.564, 174 225.471, 174 225 C 174 224.529, 173.293 223.436, 172.429 222.571 C 171.564 221.707, 170.471 221, 170 221 C 169.529 221, 168.436 221.707, 167.571 222.571 M 199.571 222.571 C 198.707 223.436, 198 224.529, 198 225 C 198 225.471, 198.707 226.564, 199.571 227.429 C 200.436 228.293, 201.529 229, 202 229 C 202.471 229, 203.564 228.293, 204.429 227.429 C 205.293 226.564, 206 225.471, 206 225 C 206 224.529, 205.293 223.436, 204.429 222.571 C 203.564 221.707, 202.471 221, 202 221 C 201.529 221, 200.436 221.707, 199.571 222.571 " stroke="none" fill="black" fill-rule="evenodd"/>
</svg>