<svg xmlns="http://www.w3.org/2000/svg" width="468" height="324" viewBox="0 0 468 324" version="1.1">
	<path d="M 35.045 127.092 C 24.744 129.112, 14.837 136.518, 10.151 145.705 C 7.578 150.747, 5.616 161.395, 6.828 163.738 C 7.329 164.707, 8.525 169.100, 9.484 173.500 C 15.002 198.806, 28.176 222.394, 46.651 240.044 C 55.999 248.975, 71.173 260, 74.117 260 C 77.343 260, 97.892 244.006, 106.315 234.940 C 123.254 216.706, 134.286 194.893, 139.417 169.483 C 140.690 163.183, 140.816 160.292, 140.004 155.983 C 135.594 132.555, 112.327 120.242, 90.616 129.845 C 85.222 132.232, 79.372 137.363, 76.005 142.662 L 73.360 146.824 71.503 143.377 C 69.181 139.064, 62.418 132.764, 57.318 130.162 C 55.183 129.073, 50.781 127.691, 47.535 127.091 C 40.969 125.877, 41.243 125.877, 35.045 127.092 M 199.571 127.571 C 198.178 128.965, 198 135.897, 198 188.774 L 198 248.405 184.667 235.202 C 177.334 227.941, 170.841 222, 170.239 222 C 168.813 222, 166 224.825, 166 226.257 C 166 228.006, 200.239 262, 202 262 C 203.761 262, 238 228.006, 238 226.257 C 238 224.825, 235.187 222, 233.761 222 C 233.159 222, 226.666 227.941, 219.333 235.202 L 206 248.405 206 188.774 C 206 135.897, 205.822 128.965, 204.429 127.571 C 203.564 126.707, 202.471 126, 202 126 C 201.529 126, 200.436 126.707, 199.571 127.571 M 320.500 126.944 C 312.325 128.268, 306.930 129.991, 299 133.814 C 288.444 138.903, 274.927 152.404, 269.778 163 C 263.648 175.615, 260.334 193.191, 263.491 196.348 C 265.547 198.404, 266.439 198.418, 268.429 196.429 C 269.379 195.478, 270 193.126, 270 190.478 C 270 183.304, 271.937 176.010, 276.235 167 C 285.830 146.887, 306.428 134.058, 329.201 134.015 C 339.688 133.995, 345.980 135.455, 356 140.235 C 374.952 149.275, 389 170.664, 389 190.478 C 389 193.126, 389.621 195.478, 390.571 196.429 C 392.561 198.418, 393.453 198.404, 395.509 196.348 C 398.666 193.191, 395.352 175.615, 389.222 163 C 384.088 152.433, 370.567 138.912, 360 133.778 C 347.545 127.725, 332.139 125.060, 320.500 126.944 M 31.054 135.728 C 24.820 137.929, 17.726 145.300, 15.557 151.828 C 14.045 156.381, 13.979 157.954, 15.032 164.270 C 20.746 198.525, 39.651 228.764, 67.165 247.660 L 73.830 252.237 81.654 246.869 C 91.636 240.019, 104.997 226.670, 111.815 216.732 C 122.428 201.263, 131.249 178.930, 132.635 164.020 C 134.570 143.192, 115.675 128.780, 95.463 135.667 C 86.088 138.862, 78 149.949, 78 159.607 C 78 162.970, 75.867 166, 73.500 166 C 71.133 166, 69 162.970, 69 159.607 C 69 149.949, 60.912 138.862, 51.537 135.667 C 45.516 133.616, 36.964 133.641, 31.054 135.728 M 423.571 159.571 C 422.227 160.916, 422 164.736, 422 186 C 422 207.264, 422.227 211.084, 423.571 212.429 C 424.436 213.293, 425.529 214, 426 214 C 426.471 214, 427.564 213.293, 428.429 212.429 C 429.773 211.084, 430 207.264, 430 186 C 430 164.736, 429.773 160.916, 428.429 159.571 C 427.564 158.707, 426.471 158, 426 158 C 425.529 158, 424.436 158.707, 423.571 159.571 M 295.571 191.571 C 294.707 192.436, 294 193.529, 294 194 C 294 194.471, 294.707 195.564, 295.571 196.429 C 296.936 197.793, 301.463 198, 330 198 C 358.537 198, 363.064 197.793, 364.429 196.429 C 365.293 195.564, 366 194.471, 366 194 C 366 193.529, 365.293 192.436, 364.429 191.571 C 363.064 190.207, 358.537 190, 330 190 C 301.463 190, 296.936 190.207, 295.571 191.571 M 423.571 222.571 C 422.707 223.436, 422 224.529, 422 225 C 422 226.111, 424.889 229, 426 229 C 427.111 229, 430 226.111, 430 225 C 430 223.889, 427.111 221, 426 221 C 425.529 221, 424.436 221.707, 423.571 222.571 " stroke="none" fill="black" fill-rule="evenodd"/>
</svg>