<svg xmlns="http://www.w3.org/2000/svg" width="403" height="324" viewBox="0 0 403 324" version="1.1">
	<path d="M 103.571 127.571 C 100.149 130.994, 103.242 134, 110.188 134 L 115.233 134 111.502 138.130 C 107.232 142.856, 103.482 150.593, 102.514 156.673 C 100.473 169.499, 111.269 200.668, 124.416 219.907 L 130.161 228.314 116.080 242.419 C 108.336 250.177, 102 257.252, 102 258.140 C 102 261.977, 102.841 262.022, 170.002 261.757 C 230.924 261.517, 235.356 261.383, 236.386 259.750 C 237.191 258.474, 237.191 257.526, 236.387 256.250 C 235.394 254.674, 232.574 254.450, 208.056 254 L 180.828 253.500 184.164 251.062 C 209.377 232.633, 228.296 202.916, 234.590 171.852 C 236.873 160.584, 236.137 152.817, 232.075 145.337 L 228.907 139.500 232.953 135.714 C 237.202 131.739, 238.292 127.710, 235.418 126.607 C 234.548 126.273, 204.880 126, 169.490 126 C 112.326 126, 104.967 126.175, 103.571 127.571 M 127.627 135.468 C 118.721 138.643, 111.076 148.151, 110.214 157.125 C 108.861 171.205, 117.479 196.421, 130.106 215.329 L 135.334 223.157 176.667 181.833 C 199.400 159.105, 218 140.149, 218 139.709 C 218 139.268, 215.637 137.808, 212.750 136.464 C 203.648 132.226, 192.624 133.355, 184.797 139.325 C 179.118 143.656, 175.172 150.296, 174.001 157.492 C 172.915 164.168, 171.212 166.519, 168.163 165.552 C 165.920 164.840, 165.477 163.789, 164.560 156.995 C 163.285 147.558, 155.516 138.368, 146.101 135.159 C 141.559 133.611, 132.409 133.764, 127.627 135.468 M 162.173 136.750 C 163.575 138.262, 165.865 141.228, 167.264 143.341 C 169.677 146.983, 169.844 147.066, 170.517 144.945 C 170.908 143.715, 173.033 140.749, 175.241 138.354 L 179.255 134 169.440 134 L 159.626 134 162.173 136.750 M 182.245 186.254 C 159.560 208.944, 141 228.033, 141 228.673 C 141 230.343, 154.317 242.293, 162.186 247.684 L 168.872 252.265 173.432 249.593 C 182.753 244.131, 196.109 231.830, 204.479 221 C 218.166 203.290, 230.225 171.759, 228.642 157.818 C 228.216 154.066, 224.738 145, 223.725 145 C 223.596 145, 204.930 163.565, 182.245 186.254 M 7.571 191.571 C 6.707 192.436, 6 193.640, 6 194.249 C 6 194.857, 12.844 202.250, 21.208 210.677 L 36.416 226 21.208 241.323 C 12.844 249.750, 6 257.143, 6 257.751 C 6 259.181, 8.819 262, 10.249 262 C 10.857 262, 18.250 255.156, 26.677 246.792 L 42 231.584 57.323 246.792 C 65.750 255.156, 73.105 262, 73.668 262 C 74.860 262, 78 258.734, 78 257.494 C 78 257.027, 71.156 249.750, 62.792 241.323 L 47.584 226 62.792 210.677 C 71.156 202.250, 78 194.895, 78 194.332 C 78 193.140, 74.734 190, 73.494 190 C 73.027 190, 65.750 196.844, 57.323 205.208 L 42 220.416 26.677 205.208 C 18.250 196.844, 10.857 190, 10.249 190 C 9.640 190, 8.436 190.707, 7.571 191.571 M 295.268 191.207 C 293.363 193.557, 262 256.957, 262 258.459 C 262 260.212, 265.612 262.358, 267.059 261.464 C 267.618 261.118, 274.610 247.773, 282.596 231.809 C 290.582 215.844, 297.427 203.087, 297.808 203.459 C 298.189 203.831, 305.025 217.042, 313 232.817 L 327.500 261.500 361.391 261.500 C 392.631 261.500, 395.369 261.363, 396.390 259.743 C 398.035 257.136, 364.458 190.500, 361.500 190.500 C 359.881 190.500, 356.639 196.168, 344.495 220.234 L 329.489 249.967 314.495 220.234 C 305.353 202.105, 298.879 190.386, 297.908 190.207 C 297.032 190.046, 295.844 190.496, 295.268 191.207 M 348.744 227.500 C 341.735 241.531, 336 253.233, 336 253.505 C 336 253.777, 347.475 254, 361.500 254 C 375.525 254, 386.976 253.662, 386.946 253.250 C 386.917 252.838, 381.176 241.135, 374.190 227.245 L 361.487 201.989 348.744 227.500 M 127.952 240.750 C 124.381 244.463, 120.146 248.963, 118.542 250.750 L 115.626 254 136.878 254 L 158.131 254 150.816 248.125 C 146.792 244.894, 141.721 240.394, 139.547 238.125 C 137.373 235.856, 135.336 234, 135.020 234 C 134.705 234, 131.524 237.037, 127.952 240.750 " stroke="none" fill="black" fill-rule="evenodd"/>
</svg>