<svg xmlns="http://www.w3.org/2000/svg" width="84" height="324" viewBox="0 0 84 324" version="1.1">
	<path d="M 23.571 63.571 C 22.707 64.436, 22 65.332, 22 65.564 C 22 67.123, 39.710 101.058, 40.727 101.449 C 41.427 101.717, 42.573 101.717, 43.273 101.449 C 45.129 100.736, 62.063 66.328, 61.403 64.609 C 60.732 62.858, 58.483 61.877, 56.705 62.560 C 55.993 62.833, 52.520 68.894, 48.986 76.028 C 45.453 83.163, 42.308 89, 41.997 89 C 41.687 89, 38.748 83.534, 35.467 76.853 C 27.925 61.499, 26.847 60.296, 23.571 63.571 M 7.571 191.571 C 6.207 192.936, 6 197.463, 6 226 C 6 254.537, 6.207 259.064, 7.571 260.429 C 8.436 261.293, 9.529 262, 10 262 C 10.471 262, 11.564 261.293, 12.429 260.429 C 13.677 259.180, 14 256.466, 14 247.226 L 14 235.595 27.333 248.798 C 34.666 256.059, 41.266 262, 42 262 C 42.734 262, 49.334 256.059, 56.667 248.798 L 70 235.595 70 247.226 C 70 256.466, 70.323 259.180, 71.571 260.429 C 72.436 261.293, 73.529 262, 74 262 C 74.471 262, 75.564 261.293, 76.429 260.429 C 77.793 259.064, 78 254.537, 78 226 C 78 197.463, 77.793 192.936, 76.429 191.571 C 74.455 189.598, 73.545 189.598, 71.571 191.571 C 70.276 192.866, 70 195.903, 70 208.835 L 70 224.527 56 238.500 L 42 252.473 28 238.500 L 14 224.527 14 208.835 C 14 195.903, 13.724 192.866, 12.429 191.571 C 11.564 190.707, 10.471 190, 10 190 C 9.529 190, 8.436 190.707, 7.571 191.571 " stroke="none" fill="black" fill-rule="evenodd"/>
</svg>