<svg xmlns="http://www.w3.org/2000/svg" width="308" height="324" viewBox="0 0 308 324" version="1.1">
	<path d="M 7.498 191.645 C 6.209 192.933, 5.987 194.399, 6.472 198.395 C 7.441 206.382, 9.061 212.979, 11.671 219.579 L 14.076 225.658 12.053 230.377 C 9.452 236.444, 7.342 244.893, 6.503 252.598 C 5.964 257.549, 6.150 259.007, 7.491 260.348 C 10.992 263.850, 14 260.834, 14 253.823 C 14 248.944, 16.293 238.190, 18.021 234.960 C 18.712 233.670, 20.425 234.881, 27.185 241.442 C 40.625 254.484, 54.917 260.304, 73.500 260.304 C 91.918 260.304, 106.836 254.107, 120.309 240.860 L 128.118 233.181 129.129 235.838 C 130.974 240.693, 132.970 250.443, 132.985 254.679 C 132.999 258.476, 134.869 262, 136.871 262 C 141.915 262, 140.186 241.126, 134.165 229.324 C 132.248 225.565, 132.246 225.411, 134.068 221.859 C 137.015 216.115, 140 204.054, 140 197.893 C 140 191.366, 138.431 189.164, 135.064 190.966 C 133.484 191.811, 132.997 193.060, 132.985 196.285 C 132.970 200.551, 130.980 210.292, 129.129 215.162 L 128.118 217.819 120.167 209.984 C 113.730 203.641, 110.434 201.297, 102.858 197.671 C 91.050 192.020, 84.914 190.578, 73 190.654 C 54.818 190.769, 40.429 196.707, 27.185 209.558 C 20.425 216.119, 18.712 217.330, 18.021 216.040 C 16.365 212.945, 14 202.146, 14 197.677 C 14 194.888, 13.395 192.538, 12.429 191.571 C 10.440 189.583, 9.546 189.596, 7.498 191.645 M 167.207 191.193 C 166.543 191.857, 166 192.988, 166 193.706 C 166 196.102, 199.023 261.072, 200.536 261.652 C 201.355 261.967, 202.586 261.759, 203.270 261.191 C 203.955 260.622, 211.027 247.065, 218.986 231.063 L 233.457 201.968 248.478 231.734 C 260.637 255.826, 263.881 261.500, 265.500 261.500 C 268.458 261.500, 302.035 194.864, 300.390 192.257 C 299.355 190.615, 295.014 190.483, 233.848 190.243 C 183.786 190.046, 168.131 190.269, 167.207 191.193 M 58.645 199.584 C 46.680 202.480, 29.898 213.969, 24.768 222.775 C 23.065 225.697, 23.084 225.816, 25.843 229.625 C 32.795 239.221, 46.392 248.254, 58.644 251.415 C 65.760 253.251, 78.565 253.481, 86.201 251.910 C 95.798 249.936, 107.449 243.557, 114.920 236.187 C 124.715 226.524, 124.814 226.210, 119.979 220.093 C 112.154 210.194, 98.458 201.686, 86.201 199.113 C 79.083 197.618, 65.830 197.845, 58.645 199.584 M 188.217 222.750 C 194.871 236.363, 200.663 247.896, 201.089 248.381 C 201.704 249.082, 227 200.392, 227 198.508 C 227 198.228, 215.552 198, 201.559 198 L 176.119 198 188.217 222.750 M 240.054 198.750 C 240.083 199.162, 245.824 210.865, 252.810 224.755 L 265.513 250.011 278.256 224.500 C 285.265 210.469, 291 198.767, 291 198.495 C 291 198.223, 279.525 198, 265.500 198 C 251.475 198, 240.024 198.338, 240.054 198.750 " stroke="none" fill="black" fill-rule="evenodd"/>
</svg>