<svg xmlns="http://www.w3.org/2000/svg" width="180" height="324" viewBox="0 0 180 324" version="1.1">
	<path d="M 34.223 159.062 C 24.045 161.068, 13.996 169.411, 9.216 179.825 C 5.512 187.894, 5.512 199.106, 9.216 207.175 C 19.614 229.828, 47.328 235.643, 65.420 218.967 C 85.946 200.047, 76.603 165.823, 49.147 159.360 C 42.857 157.880, 40.464 157.832, 34.223 159.062 M 103.571 159.571 C 102.207 160.936, 102 165.463, 102 194 C 102 222.537, 102.207 227.064, 103.571 228.429 C 104.936 229.793, 109.463 230, 138 230 C 166.537 230, 171.064 229.793, 172.429 228.429 C 173.793 227.064, 174 222.537, 174 194 C 174 165.463, 173.793 160.936, 172.429 159.571 C 171.064 158.207, 166.537 158, 138 158 C 109.463 158, 104.936 158.207, 103.571 159.571 M 31.054 167.728 C 25.018 169.859, 17.781 177.260, 15.667 183.463 C 9.215 202.399, 22.016 221, 41.500 221 C 49.295 221, 55.452 218.453, 60.952 212.952 C 71.862 202.043, 71.862 184.957, 60.952 174.048 C 53.269 166.364, 41.789 163.938, 31.054 167.728 M 110 194 L 110 222 138 222 L 166 222 166 194 L 166 166 138 166 L 110 166 110 194 M 39.571 191.571 C 38.707 192.436, 38 193.529, 38 194 C 38 195.111, 40.889 198, 42 198 C 43.111 198, 46 195.111, 46 194 C 46 192.889, 43.111 190, 42 190 C 41.529 190, 40.436 190.707, 39.571 191.571 " stroke="none" fill="black" fill-rule="evenodd"/>
</svg>