<svg xmlns="http://www.w3.org/2000/svg" width="420" height="324" viewBox="0 0 420 324" version="1.1">
	<path d="M 319.102 127.108 C 293.633 130.963, 271.059 151.541, 264.374 177 C 263.312 181.044, 262.667 187.278, 262.667 193.500 C 262.667 205.288, 264.542 213.383, 269.687 223.806 C 274.016 232.576, 284.495 244.206, 293.178 249.880 C 298.404 253.295, 298.905 253.877, 296.868 254.166 C 295.261 254.394, 293.512 256.175, 291.366 259.771 C 286.032 268.710, 286.020 277.240, 291.329 286.299 C 295.445 293.322, 298.818 294.830, 301.365 290.786 C 302.210 289.445, 301.955 288.466, 300.195 286.286 C 294.047 278.673, 293.378 269.390, 298.450 262.072 C 300.244 259.483, 301.047 257.289, 300.695 255.941 C 300.256 254.262, 300.482 253.988, 301.823 254.574 C 307.095 256.874, 314.091 259.015, 318.212 259.590 L 322.923 260.247 321.278 263.374 C 318.996 267.710, 319.082 278.429, 321.435 283 C 324.760 289.460, 328.059 293.134, 330.242 292.807 C 333.704 292.289, 334.642 289.592, 332.431 286.509 C 326.779 278.628, 325.570 272.358, 328.398 265.590 C 330.179 261.328, 330.715 261.031, 338.682 259.903 C 342.320 259.388, 348.303 257.920, 351.979 256.642 L 358.663 254.318 355.444 259.662 C 350.031 268.652, 349.994 277.195, 355.329 286.299 C 359.445 293.322, 362.818 294.830, 365.365 290.786 C 366.210 289.445, 365.955 288.466, 364.195 286.286 C 358.066 278.696, 357.380 269.388, 362.415 262.123 C 365.601 257.526, 365.497 254.645, 362.127 254.166 C 360.097 253.877, 360.602 253.291, 365.822 249.880 C 374.543 244.182, 384.991 232.572, 389.287 223.806 C 394.440 213.290, 396.304 205.238, 396.304 193.500 C 396.304 174.166, 390.551 160.473, 376.539 146.461 C 366.823 136.745, 358.203 131.569, 346.831 128.621 C 339.080 126.612, 326.806 125.942, 319.102 127.108 M 314.645 135.584 C 294.671 140.419, 276.279 158.986, 271.537 179.103 C 266.672 199.742, 272.569 220.600, 287.484 235.516 C 302.400 250.431, 323.258 256.328, 343.897 251.463 C 364.261 246.662, 382.662 228.261, 387.463 207.897 C 389.390 199.718, 389.390 187.282, 387.463 179.103 C 382.662 158.739, 364.261 140.338, 343.897 135.537 C 335.998 133.676, 322.439 133.697, 314.645 135.584 M 7.571 159.571 C 6.207 160.936, 6 165.463, 6 194 C 6 222.537, 6.207 227.064, 7.571 228.429 C 8.936 229.793, 13.463 230, 42 230 C 70.537 230, 75.064 229.793, 76.429 228.429 C 77.793 227.064, 78 222.537, 78 194 C 78 165.463, 77.793 160.936, 76.429 159.571 C 75.064 158.207, 70.537 158, 42 158 C 13.463 158, 8.936 158.207, 7.571 159.571 M 295.571 159.571 C 294.707 160.436, 294 161.529, 294 162 C 294 163.111, 296.889 166, 298 166 C 299.111 166, 302 163.111, 302 162 C 302 160.889, 299.111 158, 298 158 C 297.529 158, 296.436 158.707, 295.571 159.571 M 327.571 159.571 C 326.212 160.931, 326 165.242, 326 191.571 L 326 222 311.571 222 C 299.788 222, 296.855 222.288, 295.571 223.571 C 293.598 225.545, 293.598 226.455, 295.571 228.429 C 296.936 229.793, 301.463 230, 330 230 C 358.537 230, 363.064 229.793, 364.429 228.429 C 366.402 226.455, 366.402 225.545, 364.429 223.571 C 363.145 222.288, 360.212 222, 348.429 222 L 334 222 334 191.571 C 334 165.242, 333.788 160.931, 332.429 159.571 C 331.564 158.707, 330.471 158, 330 158 C 329.529 158, 328.436 158.707, 327.571 159.571 M 359.571 159.571 C 358.707 160.436, 358 161.529, 358 162 C 358 163.111, 360.889 166, 362 166 C 363.111 166, 366 163.111, 366 162 C 366 160.889, 363.111 158, 362 158 C 361.529 158, 360.436 158.707, 359.571 159.571 M 14 194 L 14 222 42 222 L 70 222 70 194 L 70 166 42 166 L 14 166 14 194 M 129 174.983 C 118.952 176.883, 109.573 181.717, 103.227 188.266 C 100.053 191.541, 99.995 191.748, 101.345 195.072 C 102.110 196.957, 103.030 201.134, 103.389 204.353 C 106.065 228.350, 127.574 251.862, 153 258.586 C 157.073 259.663, 163.233 260.304, 169.500 260.304 C 181.257 260.304, 189.240 258.451, 200 253.222 C 210.587 248.078, 224.092 234.559, 229.193 224 C 235.365 211.222, 238.664 193.807, 235.509 190.652 C 233.214 188.357, 232.279 188.548, 228.179 192.147 C 226.208 193.878, 221.648 196.691, 218.047 198.397 C 212.017 201.255, 210.670 201.500, 201 201.500 C 191.333 201.500, 189.981 201.254, 183.962 198.402 C 179.858 196.457, 175.606 193.383, 172.541 190.146 C 166.597 183.868, 160.190 179.646, 152.697 177.068 C 145.960 174.750, 135.224 173.805, 129 174.983 M 125 183.478 C 122.525 184.276, 118.039 186.408, 115.030 188.215 L 109.560 191.500 109.844 196.500 C 111.317 222.411, 130.455 245.653, 155.103 251.463 C 163.282 253.390, 175.718 253.390, 183.897 251.463 C 199.112 247.876, 214.867 235.543, 222.173 221.500 C 225.488 215.128, 226.498 212.252, 228.446 203.640 L 229.094 200.779 225.648 202.909 C 216.209 208.742, 203.271 210.922, 192.024 208.574 C 181.442 206.365, 174.560 202.663, 167.331 195.290 C 158.453 186.236, 150.529 182.666, 138.500 182.300 C 132.662 182.123, 127.919 182.537, 125 183.478 M 391.282 271.282 C 381.777 280.787, 374 289.193, 374 289.963 C 374 290.733, 381.313 298.726, 390.250 307.725 C 405.545 323.126, 406.701 324.070, 409.923 323.794 C 411.805 323.632, 413.541 322.906, 413.779 322.180 C 414.018 321.454, 407.322 313.917, 398.899 305.430 L 383.584 290 398.792 274.677 C 407.156 266.250, 414 258.857, 414 258.249 C 414 256.800, 411.173 254, 409.710 254 C 409.079 254, 400.787 261.777, 391.282 271.282 " stroke="none" fill="black" fill-rule="evenodd"/>
</svg>