<svg xmlns="http://www.w3.org/2000/svg" width="324" height="324" viewBox="0 0 324 324" version="1.1">
	<path d="M 72.372 62.765 C 70.418 64.037, 54.003 97.844, 54.593 99.381 C 55.268 101.141, 57.513 102.124, 59.295 101.440 C 60.007 101.167, 63.480 95.106, 67.014 87.972 C 70.547 80.837, 73.691 75, 74 75 C 74.309 75, 77.453 80.837, 80.986 87.972 C 84.520 95.106, 87.993 101.167, 88.705 101.440 C 90.487 102.124, 92.732 101.141, 93.407 99.381 C 93.716 98.575, 90.096 90.173, 85.363 80.708 C 77.638 65.261, 75.672 62.031, 74 62.031 C 73.725 62.031, 72.992 62.361, 72.372 62.765 M 89.288 173.222 L 42.028 220.444 26.691 205.222 C 18.256 196.850, 10.857 190, 10.249 190 C 8.819 190, 6 192.819, 6 194.249 C 6 194.857, 12.844 202.250, 21.208 210.677 L 36.416 226 21.208 241.323 C 12.844 249.750, 6 257.143, 6 257.751 C 6 259.181, 8.819 262, 10.249 262 C 10.857 262, 18.250 255.156, 26.677 246.792 L 42 231.584 57.323 246.792 C 65.750 255.156, 73.143 262, 73.751 262 C 75.181 262, 78 259.181, 78 257.751 C 78 257.143, 71.150 249.744, 62.778 241.309 L 47.556 225.972 94.778 178.712 C 120.750 152.718, 142 130.932, 142 130.297 C 142 129.662, 141.293 128.436, 140.429 127.571 C 139.564 126.707, 138.338 126, 137.703 126 C 137.068 126, 115.282 147.250, 89.288 173.222 M 223.102 127.108 C 197.633 130.963, 175.059 151.541, 168.374 177 C 167.312 181.044, 166.667 187.278, 166.667 193.500 C 166.667 205.288, 168.542 213.383, 173.687 223.806 C 178.016 232.576, 188.495 244.206, 197.178 249.880 C 202.404 253.295, 202.905 253.877, 200.868 254.166 C 199.261 254.394, 197.512 256.175, 195.366 259.771 C 190.032 268.710, 190.020 277.240, 195.329 286.299 C 199.445 293.322, 202.818 294.830, 205.365 290.786 C 206.210 289.445, 205.955 288.466, 204.195 286.286 C 198.047 278.673, 197.378 269.390, 202.450 262.072 C 204.244 259.483, 205.047 257.289, 204.695 255.941 C 204.257 254.268, 204.486 253.986, 205.823 254.549 C 213.170 257.646, 217.464 258.993, 221.839 259.573 L 226.923 260.247 225.278 263.374 C 222.996 267.710, 223.082 278.429, 225.435 283 C 228.760 289.460, 232.059 293.134, 234.242 292.807 C 237.704 292.289, 238.642 289.592, 236.431 286.509 C 230.779 278.628, 229.570 272.358, 232.398 265.590 C 234.179 261.328, 234.715 261.031, 242.682 259.903 C 246.320 259.388, 252.303 257.920, 255.979 256.642 L 262.663 254.318 259.444 259.662 C 254.031 268.652, 253.994 277.195, 259.329 286.299 C 263.445 293.322, 266.818 294.830, 269.365 290.786 C 270.210 289.445, 269.955 288.466, 268.195 286.286 C 262.066 278.696, 261.380 269.388, 266.415 262.123 C 269.601 257.526, 269.497 254.645, 266.127 254.166 C 264.097 253.877, 264.602 253.291, 269.822 249.880 C 278.543 244.182, 288.991 232.572, 293.287 223.806 C 298.427 213.315, 300.302 205.237, 300.319 193.500 C 300.346 174.163, 294.618 160.540, 280.539 146.461 C 270.823 136.745, 262.203 131.569, 250.831 128.621 C 243.080 126.612, 230.806 125.942, 223.102 127.108 M 218.645 135.584 C 198.671 140.419, 180.279 158.986, 175.537 179.103 C 170.672 199.742, 176.569 220.600, 191.484 235.516 C 206.400 250.431, 227.258 256.328, 247.897 251.463 C 268.261 246.662, 286.662 228.261, 291.463 207.897 C 293.390 199.718, 293.390 187.282, 291.463 179.103 C 286.662 158.739, 268.261 140.338, 247.897 135.537 C 239.998 133.676, 226.439 133.697, 218.645 135.584 M 199.571 159.571 C 198.707 160.436, 198 161.529, 198 162 C 198 162.471, 198.707 163.564, 199.571 164.429 C 200.436 165.293, 201.529 166, 202 166 C 202.471 166, 203.564 165.293, 204.429 164.429 C 205.293 163.564, 206 162.471, 206 162 C 206 161.529, 205.293 160.436, 204.429 159.571 C 203.564 158.707, 202.471 158, 202 158 C 201.529 158, 200.436 158.707, 199.571 159.571 M 231.571 159.571 C 230.212 160.931, 230 165.242, 230 191.571 L 230 222 215.571 222 C 203.788 222, 200.855 222.288, 199.571 223.571 C 197.598 225.545, 197.598 226.455, 199.571 228.429 C 200.936 229.793, 205.463 230, 234 230 C 262.537 230, 267.064 229.793, 268.429 228.429 C 270.402 226.455, 270.402 225.545, 268.429 223.571 C 267.145 222.288, 264.212 222, 252.429 222 L 238 222 238 191.571 C 238 165.242, 237.788 160.931, 236.429 159.571 C 235.564 158.707, 234.471 158, 234 158 C 233.529 158, 232.436 158.707, 231.571 159.571 M 263.571 159.571 C 262.707 160.436, 262 161.529, 262 162 C 262 163.111, 264.889 166, 266 166 C 267.111 166, 270 163.111, 270 162 C 270 160.889, 267.111 158, 266 158 C 265.529 158, 264.436 158.707, 263.571 159.571 M 295.282 271.282 C 285.777 280.787, 278 289.193, 278 289.963 C 278 290.733, 285.313 298.726, 294.250 307.725 C 309.545 323.126, 310.701 324.070, 313.923 323.794 C 315.805 323.632, 317.541 322.906, 317.779 322.180 C 318.018 321.454, 311.322 313.917, 302.899 305.430 L 287.584 290 302.792 274.677 C 311.156 266.250, 318 258.857, 318 258.249 C 318 256.800, 315.173 254, 313.710 254 C 313.079 254, 304.787 261.777, 295.282 271.282 " stroke="none" fill="black" fill-rule="evenodd"/>
</svg>