<svg xmlns="http://www.w3.org/2000/svg" width="308" height="324" viewBox="0 0 308 324" version="1.1">
	<path d="M 199.750 127.080 C 198.207 127.979, 198 129.866, 198 143.050 L 198 158 183.934 158 C 169.308 158, 166 158.738, 166 162 C 166 165.262, 169.308 166, 183.934 166 L 198 166 198 194 L 198 222 183.934 222 C 169.308 222, 166 222.738, 166 226 C 166 229.262, 169.308 230, 183.934 230 L 198 230 198 244.965 C 198 259.061, 198.120 259.994, 200.064 261.034 C 204.316 263.310, 205 261.071, 205 244.878 L 205 230 233.500 230 L 262 230 262 244.965 C 262 259.061, 262.120 259.994, 264.064 261.034 C 268.315 263.309, 269 261.069, 269 244.904 L 269 230.052 284.142 229.776 C 297.291 229.536, 299.430 229.270, 300.387 227.750 C 301.191 226.475, 301.191 225.525, 300.387 224.250 C 299.430 222.730, 297.291 222.464, 284.142 222.224 L 269 221.948 269 194 L 269 166.052 284.142 165.776 C 297.291 165.536, 299.430 165.270, 300.387 163.750 C 301.191 162.475, 301.191 161.525, 300.387 160.250 C 299.430 158.730, 297.291 158.464, 284.142 158.224 L 269 157.948 269 143.096 C 269 126.931, 268.315 124.691, 264.064 126.966 C 262.120 128.006, 262 128.939, 262 143.035 L 262 158 233.500 158 L 205 158 205 143.200 C 205 126.584, 204.299 124.431, 199.750 127.080 M 71.482 159.661 C 67.863 163.280, 72.887 178.213, 80.259 185.750 L 84.416 190 46.780 190 C 13.898 190, 8.944 190.199, 7.571 191.571 C 5.598 193.545, 5.598 194.455, 7.571 196.429 C 8.844 197.701, 11.697 198, 22.575 198 L 36.006 198 21.020 227.961 C 12.777 244.439, 6.285 258.580, 6.594 259.384 C 7.265 261.133, 9.512 262.125, 11.274 261.448 C 11.975 261.180, 19.056 247.919, 27.010 231.980 C 34.964 216.041, 41.717 203, 42.016 203 C 42.315 203, 49.071 216.093, 57.030 232.095 C 64.988 248.098, 71.842 261.402, 72.259 261.660 C 74.831 263.250, 77.526 258.979, 91.125 231.762 L 105.744 202.502 120.310 231.620 C 128.485 247.962, 135.617 261.023, 136.565 261.386 C 138.679 262.198, 141 260.358, 141 257.871 C 141 256.835, 134.480 242.952, 126.511 227.021 L 112.021 198.056 125.653 197.778 C 137.361 197.539, 139.441 197.253, 140.388 195.750 C 142.509 192.382, 139.994 190.532, 132.856 190.209 L 126.421 189.918 130.547 185.612 C 135.931 179.993, 139.067 173.356, 139.715 166.207 C 140.120 161.745, 139.886 160.150, 138.683 159.152 C 135.878 156.824, 133.365 159.274, 132.687 164.994 C 132.356 167.787, 130.829 172.383, 129.293 175.209 C 120.501 191.379, 96.326 193.838, 84.451 179.770 C 80.853 175.508, 78.050 169.273, 78.022 165.473 C 78 162.420, 75.629 158, 74.015 158 C 73.535 158, 72.395 158.747, 71.482 159.661 M 205 194 L 205 222 233.500 222 L 262 222 262 194 L 262 166 233.500 166 L 205 166 205 194 M 60.743 223.500 C 67.750 237.525, 73.715 249, 74 249 C 74.664 249, 99 200.322, 99 198.995 C 99 198.361, 89.744 198, 73.503 198 L 48.005 198 60.743 223.500 " stroke="none" fill="black" fill-rule="evenodd"/>
</svg>