<svg xmlns="http://www.w3.org/2000/svg" width="372" height="324" viewBox="0 0 372 324" version="1.1">
	<path d="M 39.267 159.267 C 20.970 177.563, 6 193.056, 6 193.695 C 6 195.187, 8.799 198, 10.285 198 C 10.913 198, 25.506 183.947, 42.713 166.771 L 74 135.542 105.287 166.771 C 122.494 183.947, 137.087 198, 137.715 198 C 139.201 198, 142 195.187, 142 193.695 C 142 191.982, 75.721 126, 74 126 C 73.193 126, 57.563 140.970, 39.267 159.267 M 232.369 126.765 C 231.416 127.384, 166 257.155, 166 258.426 C 166 258.663, 166.707 259.564, 167.571 260.429 C 168.936 261.793, 173.463 262, 202 262 C 230.537 262, 235.064 261.793, 236.429 260.429 C 237.293 259.564, 238 258.471, 238 258 C 238 257.529, 237.293 256.436, 236.429 255.571 C 235.071 254.214, 230.849 254, 205.430 254 L 176.002 254 204.747 196.500 C 220.557 164.875, 233.722 139, 234.003 139 C 234.284 139, 248.010 166.059, 264.507 199.131 C 281.003 232.204, 295.095 259.879, 295.821 260.631 C 296.887 261.735, 303.506 262, 330 262 C 358.537 262, 363.064 261.793, 364.429 260.429 C 366.402 258.455, 366.402 257.545, 364.429 255.571 C 363.067 254.210, 358.667 254, 331.430 254 L 300.003 254 268.383 190.750 C 239.939 133.854, 235.783 126.031, 234 126.031 C 233.725 126.031, 232.991 126.361, 232.369 126.765 M 295.571 207.571 C 294.707 208.436, 294 209.659, 294 210.290 C 294 211.969, 328.307 246, 330 246 C 331.693 246, 366 211.969, 366 210.290 C 366 208.827, 363.200 206, 361.751 206 C 361.143 206, 353.750 212.844, 345.323 221.208 L 330 236.416 314.677 221.208 C 306.250 212.844, 298.857 206, 298.249 206 C 297.640 206, 296.436 206.707, 295.571 207.571 " stroke="none" fill="black" fill-rule="evenodd"/>
</svg>