<svg xmlns="http://www.w3.org/2000/svg" width="308" height="324" viewBox="0 0 308 324" version="1.1">
	<path d="M 39.571 127.571 C 38.288 128.855, 38 131.788, 38 143.571 L 38 158 23.571 158 C 11.788 158, 8.855 158.288, 7.571 159.571 C 5.598 161.545, 5.598 162.455, 7.571 164.429 C 8.855 165.712, 11.788 166, 23.571 166 L 38 166 38 194 L 38 222 23.571 222 C 11.788 222, 8.855 222.288, 7.571 223.571 C 6.707 224.436, 6 225.529, 6 226 C 6 226.471, 6.707 227.564, 7.571 228.429 C 8.855 229.712, 11.788 230, 23.571 230 L 38 230 38 244.429 C 38 256.212, 38.288 259.145, 39.571 260.429 C 40.436 261.293, 41.529 262, 42 262 C 42.471 262, 43.564 261.293, 44.429 260.429 C 45.712 259.145, 46 256.212, 46 244.429 L 46 230 74 230 L 102 230 102 244.429 C 102 256.212, 102.288 259.145, 103.571 260.429 C 105.678 262.535, 106.598 262.412, 108.443 259.777 C 109.669 258.028, 110 254.631, 110 243.804 L 110 230.053 124.643 229.777 C 137.314 229.537, 139.433 229.264, 140.387 227.750 C 141.191 226.475, 141.191 225.525, 140.387 224.250 C 139.433 222.736, 137.314 222.463, 124.643 222.223 L 110 221.947 110 194 L 110 166.053 124.643 165.777 C 137.314 165.537, 139.433 165.264, 140.387 163.750 C 141.191 162.475, 141.191 161.525, 140.387 160.250 C 139.433 158.736, 137.314 158.463, 124.643 158.223 L 110 157.947 110 144.196 C 110 133.369, 109.669 129.972, 108.443 128.223 C 106.598 125.588, 105.678 125.465, 103.571 127.571 C 102.288 128.855, 102 131.788, 102 143.571 L 102 158 74 158 L 46 158 46 143.571 C 46 131.788, 45.712 128.855, 44.429 127.571 C 43.564 126.707, 42.471 126, 42 126 C 41.529 126, 40.436 126.707, 39.571 127.571 M 167.750 127.080 C 166.111 128.035, 166 132.293, 166 194.015 C 166 259.587, 166.011 259.935, 168.064 261.034 C 169.596 261.854, 170.498 261.832, 171.564 260.947 C 172.755 259.958, 173 254.493, 173 228.878 L 173 198 233.486 198 L 293.972 198 294.236 229.141 C 294.472 256.937, 294.679 260.396, 296.166 261.333 C 297.376 262.096, 298.268 262.022, 299.423 261.064 C 300.853 259.877, 300.988 253.066, 300.757 193.731 C 300.517 132.117, 300.383 127.644, 298.750 126.614 C 297.243 125.664, 292.527 129.983, 264.745 157.755 L 232.489 190 202.744 190 L 173 190 173 159.200 C 173 125.561, 172.770 124.156, 167.750 127.080 M 268 164.500 L 242.515 190 268.257 190 L 294 190 294 164.500 C 294 150.475, 293.884 139, 293.743 139 C 293.601 139, 282.017 150.475, 268 164.500 M 46 194 L 46 222 74 222 L 102 222 102 194 L 102 166 74 166 L 46 166 46 194 " stroke="none" fill="black" fill-rule="evenodd"/>
</svg>