<svg xmlns="http://www.w3.org/2000/svg" width="244" height="324" viewBox="0 0 244 324" version="1.1">
	<path d="M 40.316 62.784 C 38.369 64.022, 22.007 97.855, 22.604 99.410 C 23.269 101.144, 25.524 102.120, 27.295 101.440 C 28.007 101.167, 31.480 95.106, 35.014 87.972 C 38.547 80.837, 41.691 75, 42 75 C 42.309 75, 45.453 80.837, 48.986 87.972 C 52.520 95.106, 55.993 101.167, 56.705 101.440 C 58.487 102.124, 60.732 101.141, 61.407 99.381 C 61.997 97.844, 45.582 64.037, 43.628 62.765 C 42.214 61.845, 41.789 61.847, 40.316 62.784 M 7.571 127.571 C 6.175 128.968, 6 136.372, 6 194 C 6 251.628, 6.175 259.032, 7.571 260.429 C 8.436 261.293, 9.666 262, 10.305 262 C 12.018 262, 78 195.721, 78 194 C 78 192.279, 12.018 126, 10.305 126 C 9.666 126, 8.436 126.707, 7.571 127.571 M 159.102 127.104 C 129.380 131.620, 105.510 157.140, 102.524 187.593 C 101.946 193.492, 102.107 194.965, 103.486 196.343 C 104.397 197.254, 105.535 198, 106.015 198 C 107.925 198, 110 193.308, 110 188.988 C 110 171.115, 124.259 149.387, 141.746 140.614 C 176.387 123.235, 217.545 141.529, 227.003 178.511 C 228.101 182.806, 229 188.482, 229 191.125 C 229 194.956, 229.418 196.154, 231.064 197.034 C 238.863 201.208, 237.093 178.561, 228.303 161.700 C 225.753 156.809, 221.954 151.890, 216.457 146.361 C 209.703 139.568, 206.806 137.478, 198.933 133.719 C 193.745 131.242, 187.475 128.743, 185 128.165 C 177.972 126.523, 166.123 126.038, 159.102 127.104 M 14 194 L 14 248.495 41.248 221.248 L 68.495 194 41.248 166.752 L 14 139.505 14 194 M 162.344 158.988 C 152.010 161.166, 141.930 169.366, 137.417 179.266 C 133.361 188.161, 133.361 198.839, 137.417 207.734 C 147.534 229.926, 176.172 235.520, 193.353 218.661 C 201.450 210.714, 203.500 205.633, 203.500 193.500 C 203.500 181.367, 201.450 176.286, 193.353 168.339 C 185.358 160.494, 172.950 156.752, 162.344 158.988 M 159.627 167.468 C 154.247 169.386, 149.039 173.829, 145.500 179.519 C 141.527 185.908, 140.712 197.311, 143.741 204.129 C 148.181 214.120, 156.127 219.919, 166.521 220.754 C 178.446 221.711, 188.036 216.794, 193.500 206.921 C 196.132 202.166, 196.500 200.518, 196.500 193.500 C 196.500 186.487, 196.130 184.829, 193.500 180.061 C 190.429 174.492, 184.651 169.526, 178.684 167.326 C 174.327 165.720, 164.323 165.794, 159.627 167.468 M 167.616 191.527 C 166.727 192.416, 166 193.529, 166 194 C 166 195.389, 169.140 198.120, 170.295 197.735 C 172.395 197.035, 173.549 194.094, 172.423 192.310 C 170.905 189.902, 169.474 189.669, 167.616 191.527 " stroke="none" fill="black" fill-rule="evenodd"/>
</svg>