<svg xmlns="http://www.w3.org/2000/svg" width="276" height="324" viewBox="0 0 276 324" version="1.1">
	<path d="M 7.571 127.571 C 6.707 128.436, 6 129.669, 6 130.313 C 6 131.842, 136.158 262, 137.687 262 C 139.199 262, 142 259.199, 142 257.687 C 142 256.158, 11.842 126, 10.313 126 C 9.669 126, 8.436 126.707, 7.571 127.571 M 135.571 127.571 C 134.707 128.436, 134 129.648, 134 130.266 C 134 130.883, 142.929 140.414, 153.842 151.444 L 173.685 171.500 170.142 178.301 C 166.915 184.498, 166.600 185.841, 166.600 193.424 C 166.600 200.764, 166.977 202.511, 169.800 208.245 C 173.618 216.001, 179.965 222.176, 187.825 225.784 C 192.467 227.915, 194.992 228.390, 201.699 228.394 C 209.147 228.399, 210.521 228.076, 216.699 224.857 L 223.500 221.315 244.054 241.657 C 255.359 252.846, 265.115 262, 265.733 262 C 267.186 262, 270 259.186, 270 257.733 C 270 257.115, 260.846 247.359, 249.657 236.054 L 229.315 215.500 232.857 208.699 C 236.076 202.521, 236.399 201.147, 236.394 193.699 C 236.390 186.992, 235.915 184.467, 233.784 179.825 C 230.176 171.965, 224.001 165.618, 216.245 161.800 C 210.511 158.977, 208.764 158.600, 201.424 158.600 C 193.841 158.600, 192.498 158.915, 186.301 162.142 L 179.500 165.685 159.444 145.842 C 148.414 134.929, 138.883 126, 138.266 126 C 137.648 126, 136.436 126.707, 135.571 127.571 M 192.500 167.326 C 190.850 167.972, 188.427 169.111, 187.116 169.857 C 184.765 171.195, 184.997 171.478, 204.110 190.610 C 223.485 210.004, 223.487 210.006, 225.182 207.759 C 229.495 202.041, 230.122 189.153, 226.459 181.500 C 223.741 175.819, 216.834 169.472, 211.329 167.597 C 205.921 165.754, 196.851 165.623, 192.500 167.326 M 178.189 178.272 C 174.123 183.171, 172.867 195.317, 175.597 203.329 C 177.470 208.829, 183.813 215.734, 189.500 218.467 C 197.205 222.170, 213.178 221.106, 216.881 216.643 C 217.653 215.714, 213.014 210.500, 198.634 196.134 C 182.891 180.407, 179.139 177.128, 178.189 178.272 " stroke="none" fill="black" fill-rule="evenodd"/>
</svg>