<svg xmlns="http://www.w3.org/2000/svg" width="212" height="324" viewBox="0 0 212 324" version="1.1">
	<path d="M 39.267 159.267 C 20.970 177.563, 6 193.056, 6 193.695 C 6 195.188, 8.800 198, 10.285 198 C 10.914 198, 25.625 183.828, 42.977 166.507 L 74.526 135.015 106.007 166.507 C 123.322 183.828, 137.796 198, 138.173 198 C 139.289 198, 142 194.951, 142 193.695 C 142 191.982, 75.721 126, 74 126 C 73.193 126, 57.563 140.970, 39.267 159.267 M 40.370 190.765 C 38.401 192.045, 6.007 257.855, 6.594 259.384 C 7.265 261.133, 9.512 262.124, 11.274 261.448 C 11.975 261.180, 19.056 247.919, 27.010 231.980 C 34.964 216.041, 41.710 203, 42 203 C 42.290 203, 49.046 216.068, 57.014 232.041 C 67.616 253.295, 72.036 261.213, 73.500 261.570 C 74.600 261.839, 90.076 261.933, 107.891 261.779 C 135.847 261.538, 140.417 261.288, 141.259 259.951 C 141.997 258.781, 138.151 250.230, 125.515 224.951 C 116.319 206.553, 108.204 191.162, 107.483 190.748 C 106.762 190.335, 105.560 190.232, 104.812 190.519 C 104.064 190.806, 96.944 204.081, 88.990 220.020 C 81.036 235.959, 74.283 249, 73.984 249 C 73.685 249, 66.958 235.966, 59.035 220.036 C 46.985 195.809, 43.536 189.845, 41.668 190.015 C 41.576 190.024, 40.991 190.361, 40.370 190.765 M 179.637 191.420 C 172.229 194.147, 167 201.151, 167 208.345 C 167 212.128, 168.903 214.358, 171.335 213.425 C 172.964 212.800, 173.373 211.875, 174.499 206.277 C 175.990 198.861, 186.351 195.342, 192.486 200.168 C 196.364 203.218, 198.400 208.377, 196.868 211.273 C 196.220 212.498, 189.010 223.479, 180.845 235.675 C 172.680 247.871, 166 258.076, 166 258.353 C 166 258.630, 166.707 259.564, 167.571 260.429 C 168.873 261.730, 171.976 262, 185.637 262 C 202.729 262, 206 261.357, 206 258 C 206 254.818, 202.740 254, 190.066 254 C 183.430 254, 178 253.767, 178 253.483 C 178 253.198, 184.348 243.459, 192.106 231.841 L 206.212 210.717 204.618 205.779 C 202.481 199.165, 199.615 195.354, 195.008 193.004 C 189.695 190.293, 184.227 189.730, 179.637 191.420 M 92.743 228.500 L 80.005 254 106 254 L 131.995 254 119.257 228.500 C 112.250 214.475, 106.285 203, 106 203 C 105.715 203, 99.750 214.475, 92.743 228.500 " stroke="none" fill="black" fill-rule="evenodd"/>
</svg>