<svg xmlns="http://www.w3.org/2000/svg" width="340" height="324" viewBox="0 0 340 324" version="1.1">
	<path d="M 7.200 127.200 C 5.465 128.935, 5.465 259.065, 7.200 260.800 C 8.109 261.709, 24.229 262, 73.629 262 C 131.594 262, 139.032 261.825, 140.429 260.429 C 141.825 259.032, 142 251.628, 142 194 C 142 136.372, 141.825 128.968, 140.429 127.571 C 139.032 126.175, 131.594 126, 73.629 126 C 24.229 126, 8.109 126.291, 7.200 127.200 M 14 194 L 14 254 74 254 L 134 254 134 194 L 134 134 74 134 L 14 134 14 194 M 193.746 159.086 C 183.396 161.525, 174.008 169.374, 169.329 179.500 C 165.372 188.063, 165.372 198.937, 169.329 207.500 C 176.308 222.603, 192.267 231.126, 207.684 227.984 C 224.801 224.495, 236.111 210.775, 236.111 193.500 C 236.111 176.711, 225.435 163.194, 209.147 159.360 C 202.789 157.864, 199.202 157.800, 193.746 159.086 M 263.750 159.080 C 262.155 160.009, 262 162.388, 262 186.015 C 262 211.630, 262.025 211.943, 264.183 213.098 C 266.042 214.093, 266.636 213.933, 268.183 212.022 C 269.825 209.995, 270 207.494, 270 186.112 C 270 166.310, 269.746 162.082, 268.443 160.223 C 266.702 157.736, 266.248 157.625, 263.750 159.080 M 295.750 159.080 C 294.155 160.009, 294 162.388, 294 186.015 C 294 211.630, 294.025 211.943, 296.183 213.098 C 298.042 214.093, 298.636 213.933, 300.183 212.022 C 301.825 209.995, 302 207.494, 302 186.112 C 302 166.310, 301.746 162.082, 300.443 160.223 C 298.702 157.736, 298.248 157.625, 295.750 159.080 M 191.463 167.591 C 185.971 169.541, 180.552 174.205, 177.249 179.824 C 174.800 183.989, 174.500 185.483, 174.500 193.500 C 174.500 201.517, 174.800 203.011, 177.249 207.176 C 182.560 216.211, 191.166 221, 202.091 221 C 206.610 221, 209.168 220.307, 214.163 217.729 C 234.081 207.447, 233.901 179.103, 213.854 169.085 C 206.840 165.580, 198.664 165.035, 191.463 167.591 M 199.750 191.080 C 197.422 192.436, 197.524 195.675, 199.934 196.965 C 200.998 197.534, 202.091 198, 202.363 198 C 203.193 198, 206 194.913, 206 194 C 206 192.966, 203.132 189.988, 202.179 190.030 C 201.805 190.047, 200.713 190.519, 199.750 191.080 M 263.750 222.080 C 261.372 223.465, 261.542 226.685, 264.064 228.034 C 267.753 230.008, 270.819 225.219, 267.800 222.200 C 266.367 220.767, 266.022 220.757, 263.750 222.080 M 295.750 222.080 C 293.372 223.465, 293.542 226.685, 296.064 228.034 C 299.753 230.008, 302.819 225.219, 299.800 222.200 C 298.367 220.767, 298.022 220.757, 295.750 222.080 " stroke="none" fill="black" fill-rule="evenodd"/>
</svg>