<svg xmlns="http://www.w3.org/2000/svg" width="180" height="324" viewBox="0 0 180 324" version="1.1">
	<path d="M 7.571 159.571 C 6.207 160.936, 6 165.463, 6 194 C 6 222.537, 6.207 227.064, 7.571 228.429 C 9.545 230.402, 10.455 230.402, 12.429 228.429 C 13.793 227.064, 14 222.537, 14 194 C 14 165.463, 13.793 160.936, 12.429 159.571 C 11.564 158.707, 10.471 158, 10 158 C 9.529 158, 8.436 158.707, 7.571 159.571 M 71.571 159.571 C 70.207 160.936, 70 165.463, 70 194 C 70 222.537, 70.207 227.064, 71.571 228.429 C 73.545 230.402, 74.455 230.402, 76.429 228.429 C 77.793 227.064, 78 222.537, 78 194 C 78 165.463, 77.793 160.936, 76.429 159.571 C 75.564 158.707, 74.471 158, 74 158 C 73.529 158, 72.436 158.707, 71.571 159.571 M 103.571 159.571 C 102.707 160.436, 102 161.529, 102 162 C 102 162.471, 102.707 163.564, 103.571 164.429 C 104.936 165.793, 109.463 166, 138 166 C 166.537 166, 171.064 165.793, 172.429 164.429 C 173.293 163.564, 174 162.471, 174 162 C 174 161.529, 173.293 160.436, 172.429 159.571 C 171.064 158.207, 166.537 158, 138 158 C 109.463 158, 104.936 158.207, 103.571 159.571 M 103.571 223.571 C 102.707 224.436, 102 225.529, 102 226 C 102 226.471, 102.707 227.564, 103.571 228.429 C 104.936 229.793, 109.463 230, 138 230 C 166.537 230, 171.064 229.793, 172.429 228.429 C 173.293 227.564, 174 226.471, 174 226 C 174 225.529, 173.293 224.436, 172.429 223.571 C 171.064 222.207, 166.537 222, 138 222 C 109.463 222, 104.936 222.207, 103.571 223.571 " stroke="none" fill="black" fill-rule="evenodd"/>
</svg>