<svg xmlns="http://www.w3.org/2000/svg" width="276" height="324" viewBox="0 0 276 324" version="1.1">
	<path d="M 7.571 159.571 C 6.207 160.936, 6 165.463, 6 194 C 6 222.537, 6.207 227.064, 7.571 228.429 C 9.545 230.402, 10.455 230.402, 12.429 228.429 C 13.793 227.064, 14 222.537, 14 194 C 14 165.463, 13.793 160.936, 12.429 159.571 C 11.564 158.707, 10.471 158, 10 158 C 9.529 158, 8.436 158.707, 7.571 159.571 M 71.571 159.571 C 70.207 160.936, 70 165.463, 70 194 C 70 222.537, 70.207 227.064, 71.571 228.429 C 73.545 230.402, 74.455 230.402, 76.429 228.429 C 77.793 227.064, 78 222.537, 78 194 C 78 165.463, 77.793 160.936, 76.429 159.571 C 75.564 158.707, 74.471 158, 74 158 C 73.529 158, 72.436 158.707, 71.571 159.571 M 103.571 159.571 C 102.707 160.436, 102 161.529, 102 162 C 102 162.471, 102.707 163.564, 103.571 164.429 C 104.936 165.793, 109.463 166, 138 166 C 166.537 166, 171.064 165.793, 172.429 164.429 C 173.293 163.564, 174 162.471, 174 162 C 174 161.529, 173.293 160.436, 172.429 159.571 C 171.064 158.207, 166.537 158, 138 158 C 109.463 158, 104.936 158.207, 103.571 159.571 M 226.223 159.062 C 216.045 161.068, 205.996 169.411, 201.216 179.825 C 197.512 187.894, 197.512 199.106, 201.216 207.175 C 211.614 229.828, 239.328 235.643, 257.420 218.967 C 277.946 200.047, 268.603 165.823, 241.147 159.360 C 234.857 157.880, 232.464 157.832, 226.223 159.062 M 223.054 167.728 C 217.018 169.859, 209.781 177.260, 207.667 183.463 C 201.215 202.399, 214.016 221, 233.500 221 C 241.295 221, 247.452 218.453, 252.952 212.952 C 258.453 207.452, 261 201.295, 261 193.500 C 261 185.705, 258.453 179.548, 252.952 174.048 C 245.269 166.364, 233.789 163.938, 223.054 167.728 M 231.571 191.571 C 230.707 192.436, 230 193.529, 230 194 C 230 194.471, 230.707 195.564, 231.571 196.429 C 232.436 197.293, 233.529 198, 234 198 C 234.471 198, 235.564 197.293, 236.429 196.429 C 237.293 195.564, 238 194.471, 238 194 C 238 193.529, 237.293 192.436, 236.429 191.571 C 235.564 190.707, 234.471 190, 234 190 C 233.529 190, 232.436 190.707, 231.571 191.571 M 103.571 223.571 C 102.707 224.436, 102 225.529, 102 226 C 102 226.471, 102.707 227.564, 103.571 228.429 C 104.936 229.793, 109.463 230, 138 230 C 166.537 230, 171.064 229.793, 172.429 228.429 C 173.293 227.564, 174 226.471, 174 226 C 174 225.529, 173.293 224.436, 172.429 223.571 C 171.064 222.207, 166.537 222, 138 222 C 109.463 222, 104.936 222.207, 103.571 223.571 " stroke="none" fill="black" fill-rule="evenodd"/>
</svg>