<svg xmlns="http://www.w3.org/2000/svg" width="628" height="324" viewBox="0 0 628 324" version="1.1">
	<path d="M 39.267 159.267 C 20.970 177.563, 6 193.056, 6 193.695 C 6 195.187, 8.799 198, 10.285 198 C 10.913 198, 25.506 183.947, 42.713 166.771 L 74 135.542 105.287 166.771 C 122.494 183.947, 137.087 198, 137.715 198 C 139.201 198, 142 195.187, 142 193.695 C 142 191.982, 75.721 126, 74 126 C 73.193 126, 57.563 140.970, 39.267 159.267 M 231.667 126.750 C 229.535 130.293, 166 258.198, 166 258.947 C 166 261.575, 171.065 262, 202.363 262 C 230.570 262, 235.064 261.793, 236.429 260.429 C 237.293 259.564, 238 258.471, 238 258 C 238 257.529, 237.293 256.436, 236.429 255.571 C 235.071 254.214, 230.849 254, 205.430 254 L 176.002 254 204.747 196.500 C 220.557 164.875, 233.724 139, 234.007 139 C 234.291 139, 248.291 166.563, 265.120 200.250 L 295.716 261.500 329.499 261.500 C 360.586 261.500, 363.370 261.360, 364.386 259.750 C 365.191 258.474, 365.191 257.526, 364.386 256.250 C 363.379 254.653, 360.518 254.477, 331.636 254.236 L 299.989 253.972 268.376 190.736 C 250.989 155.956, 236.254 127.169, 235.631 126.765 C 234.159 125.809, 232.237 125.802, 231.667 126.750 M 295.315 175.213 C 285.792 184.680, 278 193.134, 278 194 C 278 195.680, 311.953 230, 313.615 230 C 315.261 230, 317 227.720, 317 225.562 C 317 224.272, 311.595 218.111, 302.263 208.762 L 287.525 194 302.263 179.238 C 311.595 169.889, 317 163.728, 317 162.438 C 317 160.280, 315.261 158, 313.615 158 C 313.073 158, 304.838 165.746, 295.315 175.213 M 614.811 191.250 C 613.792 192.060, 613.035 194.872, 612.658 199.238 C 610.961 218.935, 598.061 237.906, 580.500 246.532 C 566.232 253.540, 568.866 253.318, 492.713 253.939 C 433.071 254.425, 423.800 254.699, 422.978 256 C 421.681 258.053, 421.756 258.613, 423.571 260.429 C 424.967 261.824, 432.300 262, 489.205 262 C 524.490 262, 554.892 261.590, 556.884 261.088 C 558.873 260.586, 563.425 259.659, 567 259.028 C 570.656 258.383, 577.594 255.905, 582.858 253.366 C 599.663 245.257, 612.399 230.017, 617.719 211.649 C 620.191 203.114, 620.719 193.119, 618.800 191.200 C 617.291 189.691, 616.762 189.698, 614.811 191.250 M 327.571 207.571 C 326.707 208.436, 326 209.644, 326 210.257 C 326 211.970, 360.217 245.997, 361.963 246.020 C 364.086 246.048, 397 212.376, 397 210.177 C 397 208.245, 395.184 206, 393.623 206 C 393.085 206, 385.750 212.844, 377.323 221.208 L 362 236.416 346.677 221.208 C 338.250 212.844, 330.857 206, 330.249 206 C 329.640 206, 328.436 206.707, 327.571 207.571 " stroke="none" fill="black" fill-rule="evenodd"/>
</svg>