<svg xmlns="http://www.w3.org/2000/svg" width="212" height="324" viewBox="0 0 212 324" version="1.1">
	<path d="M 39.267 159.267 C 20.970 177.563, 6 193.056, 6 193.695 C 6 195.187, 8.799 198, 10.285 198 C 10.913 198, 25.473 183.980, 42.641 166.844 L 73.854 135.688 105.480 166.594 C 122.874 183.592, 137.480 197.633, 137.937 197.795 C 139.028 198.181, 142 195.183, 142 193.695 C 142 191.982, 75.721 126, 74 126 C 73.193 126, 57.563 140.970, 39.267 159.267 M 72.370 190.765 C 70.304 192.108, 38.010 257.862, 38.627 259.470 C 38.953 260.321, 40.183 261.252, 41.360 261.538 C 42.537 261.825, 58.076 261.933, 75.891 261.779 C 103.847 261.538, 108.417 261.288, 109.259 259.951 C 109.997 258.781, 106.150 250.230, 93.510 224.951 C 78.497 194.925, 75.762 190.031, 74 190.031 C 73.725 190.031, 72.991 190.361, 72.370 190.765 M 179.637 191.465 C 174.904 193.152, 170.215 197.422, 168.377 201.718 C 166.588 205.899, 166.617 211.437, 168.436 212.947 C 170.583 214.729, 174 212.560, 174 209.415 C 174 206.108, 176.434 201.510, 179.217 199.561 C 180.442 198.702, 183.363 198, 185.707 198 C 190.841 198, 195.527 201.678, 196.977 206.847 C 197.881 210.068, 197.330 211.064, 182.360 233.272 C 173.803 245.965, 166.596 256.888, 166.344 257.546 C 166.092 258.204, 166.618 259.475, 167.514 260.371 C 168.887 261.745, 171.729 262, 185.637 262 C 202.729 262, 206 261.357, 206 258 C 206 254.818, 202.740 254, 190.066 254 C 183.430 254, 178 253.767, 178 253.483 C 178 253.198, 184.344 243.466, 192.097 231.855 L 206.194 210.745 204.461 205.237 C 202.220 198.113, 196.967 192.733, 190.716 191.159 C 185.053 189.733, 184.449 189.749, 179.637 191.465 M 60.743 228.500 L 48.005 254 74 254 L 99.995 254 87.257 228.500 C 80.250 214.475, 74.285 203, 74 203 C 73.715 203, 67.750 214.475, 60.743 228.500 " stroke="none" fill="black" fill-rule="evenodd"/>
</svg>