<svg xmlns="http://www.w3.org/2000/svg" width="308" height="324" viewBox="0 0 308 324" version="1.1">
	<path d="M 215.200 63.200 C 213.512 64.888, 213.512 99.112, 215.200 100.800 C 216.886 102.486, 250.114 102.486, 251.800 100.800 C 253.488 99.112, 253.488 64.888, 251.800 63.200 C 250.114 61.514, 216.886 61.514, 215.200 63.200 M 221 82 L 221 94 233.500 94 L 246 94 246 82 L 246 70 233.500 70 L 221 70 221 82 M 7.571 127.571 C 6.707 128.436, 6 129.529, 6 130 C 6 131.111, 8.889 134, 10 134 C 11.111 134, 14 131.111, 14 130 C 14 128.889, 11.111 126, 10 126 C 9.529 126, 8.436 126.707, 7.571 127.571 M 39.585 127.558 C 38.713 128.430, 38 129.529, 38 130 C 38 130.471, 38.713 131.570, 39.585 132.442 C 40.978 133.835, 45.159 133.995, 74.226 133.763 C 104.452 133.523, 107.377 133.350, 108.386 131.750 C 109.191 130.474, 109.191 129.526, 108.386 128.250 C 107.377 126.650, 104.452 126.477, 74.226 126.237 C 45.159 126.005, 40.978 126.165, 39.585 127.558 M 135.750 127.080 C 133.372 128.465, 133.542 131.685, 136.064 133.034 C 139.753 135.008, 142.819 130.219, 139.800 127.200 C 138.367 125.767, 138.022 125.757, 135.750 127.080 M 223.531 127.060 C 195.501 131.394, 173.105 152.657, 167.553 180.208 C 165.589 189.954, 165.589 197.046, 167.553 206.792 C 171.559 226.667, 185.361 244.623, 203.500 253.555 C 213.368 258.415, 231.460 262.273, 237.823 260.875 C 239.845 260.431, 244.650 259.378, 248.500 258.535 C 262.178 255.541, 276.757 246.368, 285.456 235.285 C 303.489 212.309, 304.746 180.438, 288.580 156.120 C 274.708 135.254, 247.924 123.289, 223.531 127.060 M 218.072 135.591 C 207.792 138.355, 199.969 143.015, 191.384 151.489 C 179.132 163.583, 173.639 176.587, 173.639 193.500 C 173.639 197.900, 174.220 203.975, 174.929 207 C 180.372 230.216, 201.827 249.964, 224.499 252.629 L 230 253.275 230 193.638 L 230 134 226.750 134.066 C 224.963 134.102, 221.057 134.788, 218.072 135.591 M 237 193.500 L 237 253.272 241.750 252.627 C 260.297 250.110, 277.669 237.521, 286.082 220.500 C 295.079 202.297, 295.070 184.715, 286.055 166.423 C 277.694 149.458, 260.326 136.894, 241.750 134.373 L 237 133.728 237 193.500 M 7.571 159.571 C 6.207 160.936, 6 165.463, 6 194 C 6 222.537, 6.207 227.064, 7.571 228.429 C 9.545 230.402, 10.455 230.402, 12.429 228.429 C 13.793 227.064, 14 222.537, 14 194 C 14 165.463, 13.793 160.936, 12.429 159.571 C 11.564 158.707, 10.471 158, 10 158 C 9.529 158, 8.436 158.707, 7.571 159.571 M 135.750 159.080 C 134.138 160.019, 134 162.769, 134 194.015 C 134 227.256, 134.041 227.952, 136.064 229.034 C 137.596 229.854, 138.498 229.832, 139.564 228.947 C 140.760 227.954, 141 222.127, 141 194.078 C 141 157.363, 140.815 156.130, 135.750 159.080 M 7.571 255.571 C 6.707 256.436, 6 257.529, 6 258 C 6 259.111, 8.889 262, 10 262 C 11.111 262, 14 259.111, 14 258 C 14 256.889, 11.111 254, 10 254 C 9.529 254, 8.436 254.707, 7.571 255.571 M 39.585 255.558 C 38.713 256.430, 38 257.529, 38 258 C 38 258.471, 38.713 259.570, 39.585 260.442 C 40.978 261.835, 45.159 261.995, 74.226 261.763 C 104.452 261.523, 107.377 261.350, 108.386 259.750 C 109.191 258.474, 109.191 257.526, 108.386 256.250 C 107.377 254.650, 104.452 254.477, 74.226 254.237 C 45.159 254.005, 40.978 254.165, 39.585 255.558 M 135.750 255.080 C 133.372 256.465, 133.542 259.685, 136.064 261.034 C 139.753 263.008, 142.819 258.219, 139.800 255.200 C 138.367 253.767, 138.022 253.757, 135.750 255.080 " stroke="none" fill="black" fill-rule="evenodd"/>
</svg>