<svg xmlns="http://www.w3.org/2000/svg" width="468" height="324" viewBox="0 0 468 324" version="1.1">
	<path d="M 39.267 159.267 C 20.970 177.563, 6 193.056, 6 193.695 C 6 195.187, 8.799 198, 10.285 198 C 10.913 198, 25.506 183.947, 42.713 166.771 L 74 135.542 105.287 166.771 C 122.494 183.947, 137.087 198, 137.715 198 C 139.201 198, 142 195.187, 142 193.695 C 142 191.982, 75.721 126, 74 126 C 73.193 126, 57.563 140.970, 39.267 159.267 M 223.870 127.014 C 208.636 129.407, 197.616 135.194, 185.974 146.916 C 172.475 160.507, 166.696 174.473, 166.696 193.500 C 166.696 205.257, 168.549 213.240, 173.778 224 C 178.922 234.587, 192.441 248.092, 203 253.193 C 213.909 258.463, 221.807 260.304, 233.500 260.304 C 252.834 260.304, 266.527 254.551, 280.539 240.539 C 294.551 226.527, 300.304 212.834, 300.304 193.500 C 300.304 181.743, 298.451 173.760, 293.222 163 C 288.088 152.433, 274.567 138.912, 264 133.778 C 251.324 127.618, 236.224 125.073, 223.870 127.014 M 392.372 126.765 C 391.752 127.169, 387.812 134.363, 383.616 142.750 L 375.987 158 352.565 158 C 332.605 158, 328.911 158.232, 327.571 159.571 C 326.707 160.436, 326 161.339, 326 161.579 C 326 161.820, 331.402 172.812, 338.004 186.008 L 350.008 210 338.004 233.992 C 331.402 247.188, 326 258.180, 326 258.421 C 326 258.661, 326.707 259.564, 327.571 260.429 C 328.911 261.768, 332.606 262, 352.576 262 L 376.008 262 383.729 277.479 C 387.975 285.993, 392.023 293.179, 392.725 293.448 C 395.371 294.463, 396.754 292.552, 404.271 277.479 L 411.992 262 435.424 262 C 455.394 262, 459.089 261.768, 460.429 260.429 C 461.293 259.564, 462 258.661, 462 258.421 C 462 258.180, 456.598 247.188, 449.996 233.992 L 437.992 210 449.996 186.008 C 456.598 172.812, 462 161.820, 462 161.579 C 462 161.339, 461.293 160.436, 460.429 159.571 C 459.089 158.232, 455.395 158, 435.435 158 L 412.013 158 404.384 142.750 C 397.537 129.062, 395.654 126.031, 394 126.031 C 393.725 126.031, 392.993 126.361, 392.372 126.765 M 218.645 135.584 C 198.761 140.397, 180.825 158.334, 175.585 178.644 C 173.593 186.367, 173.571 199.556, 175.537 207.897 C 180.363 228.369, 198.631 246.637, 219.103 251.463 C 239.742 256.328, 260.600 250.431, 275.516 235.516 C 290.431 220.600, 296.328 199.742, 291.463 179.103 C 286.637 158.631, 268.369 140.363, 247.897 135.537 C 239.998 133.676, 226.439 133.697, 218.645 135.584 M 388.732 148.500 L 384.013 158 394 158 L 403.987 158 399.268 148.500 C 396.672 143.275, 394.302 139, 394 139 C 393.698 139, 391.328 143.275, 388.732 148.500 M 231.571 159.571 C 230.212 160.931, 230 165.242, 230 191.571 L 230 222 215.571 222 C 203.788 222, 200.855 222.288, 199.571 223.571 C 197.598 225.545, 197.598 226.455, 199.571 228.429 C 200.936 229.793, 205.463 230, 234 230 C 262.537 230, 267.064 229.793, 268.429 228.429 C 270.402 226.455, 270.402 225.545, 268.429 223.571 C 267.145 222.288, 264.212 222, 252.429 222 L 238 222 238 191.571 C 238 165.242, 237.788 160.931, 236.429 159.571 C 235.564 158.707, 234.471 158, 234 158 C 233.529 158, 232.436 158.707, 231.571 159.571 M 344.740 183.500 C 349.544 193.125, 353.710 201, 354 201 C 354.290 201, 358.456 193.125, 363.260 183.500 L 371.993 166 354 166 L 336.007 166 344.740 183.500 M 369 188 L 357.991 210 369 232 L 380.009 254 394 254 L 407.991 254 419 232 L 430.009 210 419 188 L 407.991 166 394 166 L 380.009 166 369 188 M 424.740 183.500 C 429.544 193.125, 433.710 201, 434 201 C 434.290 201, 438.456 193.125, 443.260 183.500 L 451.993 166 434 166 L 416.007 166 424.740 183.500 M 344.740 236.500 L 336.007 254 354 254 L 371.993 254 363.260 236.500 C 358.456 226.875, 354.290 219, 354 219 C 353.710 219, 349.544 226.875, 344.740 236.500 M 424.740 236.500 L 416.007 254 434 254 L 451.993 254 443.260 236.500 C 438.456 226.875, 434.290 219, 434 219 C 433.710 219, 429.544 226.875, 424.740 236.500 M 388.732 271.500 C 391.328 276.725, 393.698 281, 394 281 C 394.302 281, 396.672 276.725, 399.268 271.500 L 403.987 262 394 262 L 384.013 262 388.732 271.500 " stroke="none" fill="black" fill-rule="evenodd"/>
</svg>