<svg xmlns="http://www.w3.org/2000/svg" width="276" height="324" viewBox="0 0 276 324" version="1.1">
	<path d="M 39.571 127.571 C 38.288 128.855, 38 131.788, 38 143.571 L 38 158 23.571 158 C 11.788 158, 8.855 158.288, 7.571 159.571 C 5.598 161.545, 5.598 162.455, 7.571 164.429 C 8.820 165.677, 11.534 166, 20.774 166 L 32.405 166 19.202 179.333 C 11.941 186.666, 6 193.159, 6 193.761 C 6 195.178, 8.822 198, 10.239 198 C 10.841 198, 17.334 192.059, 24.667 184.798 L 38 171.595 38 196.798 L 38 222 23.571 222 C 11.788 222, 8.855 222.288, 7.571 223.571 C 6.707 224.436, 6 225.529, 6 226 C 6 226.471, 6.707 227.564, 7.571 228.429 C 8.855 229.712, 11.788 230, 23.571 230 L 38 230 38 244.429 C 38 256.212, 38.288 259.145, 39.571 260.429 C 40.436 261.293, 41.529 262, 42 262 C 42.471 262, 43.564 261.293, 44.429 260.429 C 45.712 259.145, 46 256.212, 46 244.429 L 46 230 74 230 L 102 230 102 244.429 C 102 256.212, 102.288 259.145, 103.571 260.429 C 105.545 262.402, 106.455 262.402, 108.429 260.429 C 109.712 259.145, 110 256.212, 110 244.429 L 110 230 124.429 230 C 136.212 230, 139.145 229.712, 140.429 228.429 C 142.402 226.455, 142.402 225.545, 140.429 223.571 C 139.145 222.288, 136.212 222, 124.429 222 L 110 222 110 196.798 L 110 171.595 123.333 184.798 C 130.666 192.059, 137.159 198, 137.761 198 C 139.178 198, 142 195.178, 142 193.761 C 142 193.159, 136.059 186.666, 128.798 179.333 L 115.595 166 127.226 166 C 136.466 166, 139.180 165.677, 140.429 164.429 C 142.402 162.455, 142.402 161.545, 140.429 159.571 C 139.145 158.288, 136.212 158, 124.429 158 L 110 158 110 143.571 C 110 131.788, 109.712 128.855, 108.429 127.571 C 106.455 125.598, 105.545 125.598, 103.571 127.571 C 102.323 128.820, 102 131.534, 102 140.774 L 102 152.405 88.667 139.202 C 81.334 131.941, 74.734 126, 74 126 C 73.266 126, 66.666 131.941, 59.333 139.202 L 46 152.405 46 140.774 C 46 131.534, 45.677 128.820, 44.429 127.571 C 43.564 126.707, 42.471 126, 42 126 C 41.529 126, 40.436 126.707, 39.571 127.571 M 199.571 127.571 C 198.207 128.935, 198 133.425, 198 161.577 L 198 194.012 182 226 C 173.200 243.593, 166 258.183, 166 258.423 C 166 258.662, 166.707 259.564, 167.571 260.429 C 168.936 261.793, 173.463 262, 202 262 C 230.537 262, 235.064 261.793, 236.429 260.429 C 237.293 259.564, 238 258.662, 238 258.423 C 238 258.183, 230.800 243.593, 222 226 L 206 194.012 206 161.577 C 206 133.425, 205.793 128.935, 204.429 127.571 C 203.564 126.707, 202.471 126, 202 126 C 201.529 126, 200.436 126.707, 199.571 127.571 M 62.500 147 L 51.534 158 74 158 L 96.466 158 85.500 147 C 79.469 140.950, 74.294 136, 74 136 C 73.706 136, 68.531 140.950, 62.500 147 M 46 194 L 46 222 74 222 L 102 222 102 194 L 102 166 74 166 L 46 166 46 194 M 247.282 207.282 C 237.777 216.787, 230 225.210, 230 226 C 230 227.693, 264.031 262, 265.710 262 C 267.173 262, 270 259.200, 270 257.751 C 270 257.143, 263.156 249.750, 254.792 241.323 L 239.584 226 254.792 210.677 C 263.156 202.250, 270 194.857, 270 194.249 C 270 192.800, 267.173 190, 265.710 190 C 265.079 190, 256.787 197.777, 247.282 207.282 M 188.743 228.500 L 176.005 254 202 254 L 227.995 254 215.257 228.500 C 208.250 214.475, 202.285 203, 202 203 C 201.715 203, 195.750 214.475, 188.743 228.500 " stroke="none" fill="black" fill-rule="evenodd"/>
</svg>