<svg xmlns="http://www.w3.org/2000/svg" width="148" height="324" viewBox="0 0 148 324" version="1.1">
	<path d="M 71.550 62.918 C 67.869 68.875, 54.190 98.331, 54.604 99.410 C 55.269 101.144, 57.524 102.120, 59.295 101.440 C 60.007 101.167, 63.480 95.106, 67.014 87.972 C 70.547 80.837, 73.677 75.022, 73.969 75.048 C 74.261 75.074, 77.290 80.868, 80.700 87.922 C 84.109 94.976, 87.654 101.037, 88.576 101.391 C 90.682 102.199, 93 100.352, 93 97.866 C 93 95.626, 77.264 63.831, 75.628 62.765 C 74.071 61.751, 72.229 61.820, 71.550 62.918 M 7.571 127.571 C 6.175 128.968, 6 136.372, 6 194 C 6 251.628, 6.175 259.032, 7.571 260.429 C 8.968 261.825, 16.343 261.998, 73.821 261.985 C 109.395 261.976, 139.072 261.606, 139.772 261.162 C 141.639 259.977, 141.639 128.023, 139.772 126.838 C 139.072 126.394, 109.395 126.024, 73.821 126.015 C 16.343 126.002, 8.968 126.175, 7.571 127.571 M 14 194 L 14 254 74 254 L 134 254 134 194 L 134 134 74 134 L 14 134 14 194 M 66.223 159.008 C 55.939 161.164, 46.017 169.415, 41.189 179.825 C 39.049 184.438, 38.551 187.001, 38.528 193.521 C 38.503 200.581, 38.889 202.333, 41.750 208.144 C 50.197 225.303, 68.981 232.808, 86.469 226.012 C 93.561 223.256, 101.466 215.850, 104.885 208.758 C 111.483 195.070, 108.040 177.616, 96.738 167.454 C 88.870 160.380, 76.289 156.898, 66.223 159.008 M 63.463 167.591 C 57.971 169.541, 52.552 174.205, 49.249 179.824 C 46.800 183.989, 46.500 185.483, 46.500 193.500 C 46.500 201.517, 46.800 203.011, 49.249 207.176 C 54.560 216.211, 63.166 221, 74.091 221 C 78.610 221, 81.168 220.307, 86.163 217.729 C 106.081 207.447, 105.901 179.103, 85.854 169.085 C 78.840 165.580, 70.664 165.035, 63.463 167.591 M 71.571 191.571 C 70.707 192.436, 70 193.529, 70 194 C 70 194.471, 70.707 195.564, 71.571 196.429 C 72.436 197.293, 73.529 198, 74 198 C 74.471 198, 75.564 197.293, 76.429 196.429 C 77.293 195.564, 78 194.471, 78 194 C 78 193.529, 77.293 192.436, 76.429 191.571 C 75.564 190.707, 74.471 190, 74 190 C 73.529 190, 72.436 190.707, 71.571 191.571 " stroke="none" fill="black" fill-rule="evenodd"/>
</svg>