<svg xmlns="http://www.w3.org/2000/svg" width="340" height="324" viewBox="0 0 340 324" version="1.1">
	<path d="M 72.316 62.784 C 70.369 64.022, 54.007 97.855, 54.604 99.410 C 55.269 101.144, 57.524 102.120, 59.295 101.440 C 60.007 101.167, 63.480 95.106, 67.014 87.972 C 70.547 80.837, 73.691 75, 74 75 C 74.309 75, 77.453 80.837, 80.986 87.972 C 84.520 95.106, 87.993 101.167, 88.705 101.440 C 90.487 102.124, 92.732 101.141, 93.407 99.381 C 93.997 97.844, 77.582 64.037, 75.628 62.765 C 74.214 61.845, 73.789 61.847, 72.316 62.784 M 295.750 159.080 C 293.372 160.465, 293.542 163.685, 296.064 165.034 C 299.753 167.008, 302.819 162.219, 299.800 159.200 C 298.367 157.767, 298.022 157.757, 295.750 159.080 M 7.571 191.571 C 6.707 192.436, 6 193.529, 6 194 C 6 194.471, 6.707 195.564, 7.571 196.429 C 8.934 197.791, 13.354 198, 40.801 198 L 72.460 198 104.515 230 C 122.146 247.600, 137.086 262, 137.714 262 C 139.200 262, 142 259.188, 142 257.695 C 142 257.056, 127.030 241.563, 108.733 223.267 L 75.467 190 42.305 190 C 13.491 190, 8.937 190.206, 7.571 191.571 M 167.571 191.571 C 166.707 192.436, 166 193.640, 166 194.249 C 166 194.857, 172.844 202.250, 181.208 210.677 L 196.416 226 181.208 241.323 C 172.844 249.750, 166 257.143, 166 257.751 C 166 259.181, 168.819 262, 170.249 262 C 170.857 262, 178.250 255.156, 186.677 246.792 L 202 231.584 217.323 246.792 C 225.750 255.156, 233.085 262, 233.623 262 C 235.244 262, 237 259.725, 237 257.625 C 237 256.420, 231.267 249.871, 222.293 240.825 L 207.586 226 222.293 211.175 C 231.267 202.129, 237 195.580, 237 194.375 C 237 192.275, 235.244 190, 233.623 190 C 233.085 190, 225.750 196.844, 217.323 205.208 L 202 220.416 186.677 205.208 C 178.250 196.844, 170.857 190, 170.249 190 C 169.640 190, 168.436 190.707, 167.571 191.571 M 263.750 191.073 C 261.413 192.444, 261.527 195.677, 263.960 196.979 C 265.243 197.665, 277.208 197.936, 298.601 197.764 C 328.469 197.523, 331.378 197.349, 332.386 195.750 C 333.191 194.474, 333.191 193.526, 332.386 192.250 C 331.377 190.649, 328.483 190.481, 298.391 190.273 C 277.280 190.127, 264.873 190.414, 263.750 191.073 M 295.750 223.080 C 293.372 224.465, 293.542 227.685, 296.064 229.034 C 299.753 231.008, 302.819 226.219, 299.800 223.200 C 298.367 221.767, 298.022 221.757, 295.750 223.080 " stroke="none" fill="black" fill-rule="evenodd"/>
</svg>