<svg xmlns="http://www.w3.org/2000/svg" width="84" height="324" viewBox="0 0 84 324" version="1.1">
	<path d="M 40.372 62.765 C 38.418 64.037, 22.003 97.844, 22.593 99.381 C 23.268 101.141, 25.513 102.124, 27.295 101.440 C 28.007 101.167, 31.480 95.106, 35.014 87.972 C 38.547 80.837, 41.691 75, 42 75 C 42.309 75, 45.453 80.837, 48.986 87.972 C 52.520 95.106, 55.993 101.167, 56.705 101.440 C 58.487 102.124, 60.732 101.141, 61.407 99.381 C 61.716 98.575, 58.096 90.173, 53.363 80.708 C 45.638 65.261, 43.672 62.031, 42 62.031 C 41.725 62.031, 40.992 62.361, 40.372 62.765 M 72.369 126.765 C 71.416 127.384, 6 257.155, 6 258.426 C 6 258.663, 6.707 259.564, 7.571 260.429 C 8.936 261.793, 13.463 262, 42 262 C 70.537 262, 75.064 261.793, 76.429 260.429 C 78.402 258.455, 78.402 257.545, 76.429 255.571 C 75.071 254.214, 70.848 254, 45.427 254 L 15.997 254 46.998 192.003 C 64.049 157.905, 78 129.812, 78 129.575 C 78 128.872, 74.916 125.999, 74.179 126.015 C 73.805 126.024, 72.991 126.361, 72.369 126.765 M 7.571 287.571 C 6.707 288.436, 6 289.529, 6 290 C 6 290.471, 6.707 291.564, 7.571 292.429 C 8.936 293.793, 13.463 294, 42 294 C 70.537 294, 75.064 293.793, 76.429 292.429 C 77.293 291.564, 78 290.471, 78 290 C 78 289.529, 77.293 288.436, 76.429 287.571 C 75.064 286.207, 70.537 286, 42 286 C 13.463 286, 8.936 286.207, 7.571 287.571 " stroke="none" fill="black" fill-rule="evenodd"/>
</svg>