<svg xmlns="http://www.w3.org/2000/svg" width="212" height="324" viewBox="0 0 212 324" version="1.1">
	<path d="M 55.602 63.887 C 53.974 65.686, 54.302 66.591, 62.674 83.367 C 67.503 93.043, 72.065 101.195, 72.813 101.482 C 73.560 101.768, 74.775 101.665, 75.512 101.252 C 77.510 100.131, 94.035 66.256, 93.396 64.590 C 92.550 62.385, 89.890 61.790, 88.105 63.406 C 87.222 64.205, 83.815 70.291, 80.533 76.930 C 77.252 83.568, 74.312 89, 74 89 C 73.688 89, 70.748 83.534, 67.467 76.853 C 59.830 61.305, 58.879 60.266, 55.602 63.887 M 67 126.580 C 49.071 129.609, 38.129 134.764, 27.164 145.349 C 15.107 156.987, 8.421 170.983, 6.503 188.598 C 5.964 193.549, 6.150 195.007, 7.491 196.348 C 9.547 198.404, 10.439 198.418, 12.429 196.429 C 13.404 195.453, 14.006 193.082, 14.015 190.179 C 14.057 176.942, 20.682 162.237, 31.459 151.459 C 66.863 116.056, 127.317 137.255, 132.886 187.026 C 134.032 197.272, 135.925 199.932, 139.514 196.343 C 140.894 194.963, 141.054 193.499, 140.467 187.593 C 137.662 159.339, 117.465 135.507, 90.500 128.632 C 84.129 127.008, 71.167 125.876, 67 126.580 M 168.200 159.200 C 166.492 160.908, 166.492 211.092, 168.200 212.800 C 169.781 214.381, 170.543 214.315, 172.429 212.429 C 174.785 210.073, 174.785 161.927, 172.429 159.571 C 170.543 157.685, 169.781 157.619, 168.200 159.200 M 168.200 222.200 C 166.111 224.289, 167.447 229, 170.129 229 C 171.139 229, 174 226.044, 174 225 C 174 223.956, 171.139 221, 170.129 221 C 169.728 221, 168.860 221.540, 168.200 222.200 " stroke="none" fill="black" fill-rule="evenodd"/>
</svg>