<svg xmlns="http://www.w3.org/2000/svg" width="244" height="324" viewBox="0 0 244 324" version="1.1">
	<path d="M 40.316 62.784 C 38.369 64.022, 22.007 97.855, 22.604 99.410 C 23.269 101.144, 25.524 102.120, 27.295 101.440 C 28.007 101.167, 31.480 95.106, 35.014 87.972 C 38.547 80.837, 41.691 75, 42 75 C 42.309 75, 45.453 80.837, 48.986 87.972 C 52.520 95.106, 55.993 101.167, 56.705 101.440 C 58.487 102.124, 60.732 101.141, 61.407 99.381 C 61.997 97.844, 45.582 64.037, 43.628 62.765 C 42.214 61.845, 41.789 61.847, 40.316 62.784 M 72.369 126.765 C 71.416 127.384, 6 257.155, 6 258.426 C 6 258.663, 6.707 259.564, 7.571 260.429 C 8.936 261.793, 13.463 262, 42 262 C 70.537 262, 75.064 261.793, 76.429 260.429 C 78.402 258.455, 78.402 257.545, 76.429 255.571 C 75.071 254.214, 70.848 254, 45.427 254 L 15.997 254 46.998 192.003 C 64.049 157.905, 78 129.812, 78 129.575 C 78 128.872, 74.916 125.999, 74.179 126.015 C 73.805 126.024, 72.991 126.361, 72.369 126.765 M 199.750 159.080 C 198.155 160.009, 198 162.388, 198 186.015 C 198 211.174, 198.060 211.962, 200.064 213.034 C 201.596 213.854, 202.498 213.832, 203.564 212.947 C 204.744 211.968, 205 207.174, 205 186.078 C 205 157.906, 204.671 156.214, 199.750 159.080 M 103.585 191.558 C 102.713 192.430, 102 193.529, 102 194 C 102 194.471, 102.713 195.570, 103.585 196.442 C 104.978 197.835, 109.159 197.995, 138.226 197.763 C 168.452 197.523, 171.377 197.350, 172.386 195.750 C 173.191 194.474, 173.191 193.526, 172.386 192.250 C 171.377 190.650, 168.452 190.477, 138.226 190.237 C 109.159 190.005, 104.978 190.165, 103.585 191.558 M 199.750 222.080 C 197.372 223.465, 197.542 226.685, 200.064 228.034 C 203.753 230.008, 206.819 225.219, 203.800 222.200 C 202.367 220.767, 202.022 220.757, 199.750 222.080 M 7.571 287.571 C 6.707 288.436, 6 289.529, 6 290 C 6 290.471, 6.707 291.564, 7.571 292.429 C 8.936 293.793, 13.463 294, 42 294 C 70.537 294, 75.064 293.793, 76.429 292.429 C 77.293 291.564, 78 290.471, 78 290 C 78 289.529, 77.293 288.436, 76.429 287.571 C 75.064 286.207, 70.537 286, 42 286 C 13.463 286, 8.936 286.207, 7.571 287.571 " stroke="none" fill="black" fill-rule="evenodd"/>
</svg>