<svg xmlns="http://www.w3.org/2000/svg" width="180" height="324" viewBox="0 0 180 324" version="1.1">
	<path d="M 23.571 63.571 C 22.707 64.436, 22.028 65.448, 22.063 65.821 C 22.098 66.195, 26.071 74.375, 30.893 84 C 42.487 107.143, 41.532 107.153, 53.145 83.767 C 57.988 74.014, 61.702 65.386, 61.398 64.594 C 60.731 62.856, 58.478 61.879, 56.705 62.560 C 55.993 62.833, 52.520 68.894, 48.986 76.028 C 45.453 83.163, 42.308 89, 41.997 89 C 41.687 89, 38.748 83.534, 35.467 76.853 C 27.925 61.499, 26.847 60.296, 23.571 63.571 M 71.571 127.571 C 70.178 128.965, 70 135.899, 70 188.799 L 70 248.455 40.711 219.227 C 24.602 203.152, 10.909 190, 10.282 190 C 8.807 190, 6 192.810, 6 194.287 C 6 196.056, 72.253 262, 74.030 262 C 77.992 262, 78 261.862, 78 194.371 C 78 136.406, 77.825 128.968, 76.429 127.571 C 75.564 126.707, 74.471 126, 74 126 C 73.529 126, 72.436 126.707, 71.571 127.571 M 103.571 127.571 C 102.175 128.968, 102 136.406, 102 194.371 C 102 243.771, 102.291 259.891, 103.200 260.800 C 104.919 262.519, 171.081 262.519, 172.800 260.800 C 173.709 259.891, 174 243.771, 174 194.371 C 174 136.406, 173.825 128.968, 172.429 127.571 C 170.455 125.598, 169.545 125.598, 167.571 127.571 C 166.176 128.966, 166 136.152, 166 191.571 L 166 254 138 254 L 110 254 110 191.571 C 110 136.152, 109.824 128.966, 108.429 127.571 C 107.564 126.707, 106.471 126, 106 126 C 105.529 126, 104.436 126.707, 103.571 127.571 " stroke="none" fill="black" fill-rule="evenodd"/>
</svg>