<svg xmlns="http://www.w3.org/2000/svg" width="564" height="324" viewBox="0 0 564 324" version="1.1">
	<path d="M 199.571 127.571 C 198.707 128.436, 198 129.529, 198 130 C 198 130.471, 198.707 131.564, 199.571 132.429 C 200.966 133.823, 208.061 134, 262.575 134 L 324.007 134 310 162 L 295.993 190 280.568 190 C 267.878 190, 264.864 190.279, 263.571 191.571 C 261.598 193.545, 261.598 194.455, 263.571 196.429 C 264.844 197.701, 267.697 198, 278.575 198 L 292.006 198 277.003 227.994 C 268.751 244.490, 262 258.183, 262 258.422 C 262 258.661, 262.707 259.564, 263.571 260.429 C 264.936 261.793, 269.463 262, 298 262 C 326.537 262, 331.064 261.793, 332.429 260.429 C 334.402 258.455, 334.402 257.545, 332.429 255.571 C 331.071 254.214, 326.848 254, 301.425 254 L 271.993 254 286 226 L 300.007 198 342.206 198 L 384.405 198 371.202 211.333 C 363.941 218.666, 358 225.159, 358 225.761 C 358 227.187, 360.825 230, 362.257 230 C 364.006 230, 398 195.761, 398 194 C 398 192.239, 364.006 158, 362.257 158 C 360.825 158, 358 160.813, 358 162.239 C 358 162.841, 363.941 169.334, 371.202 176.667 L 384.405 190 344.199 190 L 303.994 190 318.997 160.006 C 327.249 143.510, 334 129.817, 334 129.578 C 334 129.339, 333.293 128.436, 332.429 127.571 C 331.032 126.175, 323.628 126, 266 126 C 208.372 126, 200.968 126.175, 199.571 127.571 M 487.571 127.571 C 486.221 128.922, 486 132.924, 486 156.071 C 486 170.882, 485.801 183, 485.557 183 C 485.314 183, 483.596 182.104, 481.740 181.009 C 472.583 175.606, 459.239 173.158, 448.932 174.988 C 440.418 176.501, 429.374 182.024, 424.081 187.418 C 420.344 191.225, 419.950 192.037, 420.939 193.886 C 422.553 196.901, 424.686 196.517, 429.255 192.388 C 431.454 190.402, 436.234 187.364, 439.877 185.638 C 445.993 182.740, 447.304 182.500, 457 182.500 C 466.401 182.500, 468.124 182.792, 473.458 185.290 C 476.735 186.824, 480.897 189.210, 482.708 190.591 L 486 193.102 486 220.696 L 486 248.290 480.560 243.145 C 477.568 240.315, 474.675 238, 474.131 238 C 472.829 238, 470 240.861, 470 242.178 C 470 242.747, 473.226 246.540, 477.169 250.607 L 484.338 258 477.169 265.393 C 473.226 269.460, 470 273.253, 470 273.822 C 470 275.139, 472.829 278, 474.131 278 C 474.675 278, 477.568 275.685, 480.560 272.855 L 486 267.710 486 279.284 C 486 288.472, 486.324 291.181, 487.571 292.429 C 488.436 293.293, 489.529 294, 490 294 C 490.471 294, 491.564 293.293, 492.429 292.429 C 493.676 291.181, 494 288.472, 494 279.284 L 494 267.710 499.440 272.855 C 502.432 275.685, 505.325 278, 505.869 278 C 507.171 278, 510 275.139, 510 273.822 C 510 273.253, 506.774 269.460, 502.831 265.393 L 495.662 258 502.831 250.607 C 506.774 246.540, 510 242.747, 510 242.178 C 510 240.861, 507.171 238, 505.869 238 C 505.325 238, 502.432 240.315, 499.440 243.145 L 494 248.290 494 225.145 C 494 212.415, 494.337 202.014, 494.750 202.032 C 495.163 202.049, 496.353 202.709, 497.396 203.499 C 505.089 209.322, 525.044 211.166, 536.419 207.105 C 547.009 203.324, 557.694 194.971, 556.366 191.511 C 555.200 188.472, 552.090 188.793, 547.681 192.406 C 545.304 194.353, 540.692 197.195, 537.430 198.723 C 532.127 201.206, 530.389 201.500, 521 201.500 C 511.584 201.500, 509.881 201.210, 504.503 198.692 C 493.193 193.397, 494 196.339, 494 160.397 C 494 133.317, 493.790 128.933, 492.429 127.571 C 491.564 126.707, 490.471 126, 490 126 C 489.529 126, 488.436 126.707, 487.571 127.571 M 7.571 191.571 C 6.707 192.436, 6 193.640, 6 194.249 C 6 194.857, 12.844 202.250, 21.208 210.677 L 36.416 226 21.208 241.323 C 12.844 249.750, 6 257.143, 6 257.751 C 6 259.181, 8.819 262, 10.249 262 C 10.857 262, 18.250 255.156, 26.677 246.792 L 42 231.584 57.323 246.792 C 65.750 255.156, 73.143 262, 73.751 262 C 75.181 262, 78 259.181, 78 257.751 C 78 257.143, 71.156 249.750, 62.792 241.323 L 47.584 226 62.792 210.677 C 71.156 202.250, 78 194.857, 78 194.249 C 78 192.819, 75.181 190, 73.751 190 C 73.143 190, 65.750 196.844, 57.323 205.208 L 42 220.416 26.677 205.208 C 18.250 196.844, 10.857 190, 10.249 190 C 9.640 190, 8.436 190.707, 7.571 191.571 M 103.571 191.571 C 102.707 192.436, 102 193.640, 102 194.249 C 102 194.857, 108.844 202.250, 117.208 210.677 L 132.416 226 117.208 241.323 C 108.844 249.750, 102 257.143, 102 257.751 C 102 259.181, 104.819 262, 106.249 262 C 106.857 262, 114.250 255.156, 122.677 246.792 L 138 231.584 153.323 246.792 C 161.750 255.156, 169.143 262, 169.751 262 C 171.181 262, 174 259.181, 174 257.751 C 174 257.143, 167.156 249.750, 158.792 241.323 L 143.584 226 158.792 210.677 C 167.156 202.250, 174 194.857, 174 194.249 C 174 192.819, 171.181 190, 169.751 190 C 169.143 190, 161.750 196.844, 153.323 205.208 L 138 220.416 122.677 205.208 C 114.250 196.844, 106.857 190, 106.249 190 C 105.640 190, 104.436 190.707, 103.571 191.571 " stroke="none" fill="black" fill-rule="evenodd"/>
</svg>