<svg xmlns="http://www.w3.org/2000/svg" width="244" height="324" viewBox="0 0 244 324" version="1.1">
	<path d="M 71.571 127.571 C 70.220 128.922, 70 132.932, 70 156.155 C 70 171.011, 69.662 182.996, 69.250 182.788 C 53.701 174.947, 45.242 173.063, 34.172 174.974 C 21.275 177.200, 4.409 187.803, 5.174 193.204 C 5.738 197.176, 9.528 196.689, 14.627 191.990 C 27.871 179.782, 50.585 178.668, 65.250 189.508 L 70 193.019 70 220.655 L 70 248.290 64.560 243.145 C 61.568 240.315, 58.675 238, 58.131 238 C 56.829 238, 54 240.861, 54 242.178 C 54 242.747, 57.226 246.540, 61.169 250.607 L 68.338 258 61.169 265.393 C 57.226 269.460, 54 273.253, 54 273.822 C 54 275.139, 56.829 278, 58.131 278 C 58.675 278, 61.568 275.685, 64.560 272.855 L 70 267.710 70 279.284 C 70 288.472, 70.324 291.181, 71.571 292.429 C 72.436 293.293, 73.529 294, 74 294 C 74.471 294, 75.564 293.293, 76.429 292.429 C 77.676 291.181, 78 288.472, 78 279.284 L 78 267.710 83.440 272.855 C 86.432 275.685, 89.325 278, 89.869 278 C 91.171 278, 94 275.139, 94 273.822 C 94 273.253, 90.774 269.460, 86.831 265.393 L 79.662 258 86.831 250.607 C 90.774 246.540, 94 242.747, 94 242.178 C 94 240.861, 91.171 238, 89.869 238 C 89.325 238, 86.432 240.315, 83.440 243.145 L 78 248.290 78 225.145 C 78 212.415, 78.338 202.014, 78.750 202.032 C 79.162 202.049, 80.353 202.709, 81.396 203.499 C 82.439 204.288, 86.264 205.935, 89.896 207.159 C 102.797 211.505, 119.333 209.409, 131.058 201.941 C 139.574 196.517, 141.945 192.254, 137.873 189.690 C 136.602 188.890, 135.271 189.464, 131.803 192.305 C 129.359 194.308, 124.692 197.195, 121.430 198.723 C 116.127 201.206, 114.389 201.500, 105 201.500 C 95.340 201.500, 93.979 201.253, 87.983 198.412 C 77.183 193.293, 78 196.397, 78 160.500 C 78 133.327, 77.790 128.933, 76.429 127.571 C 75.564 126.707, 74.471 126, 74 126 C 73.529 126, 72.436 126.707, 71.571 127.571 M 199.750 127.080 C 198.140 128.018, 198 130.700, 198 160.556 L 198 193.012 181.958 225.085 C 171.576 245.840, 166.120 257.803, 166.496 258.986 C 167.266 261.413, 169.895 262.332, 171.726 260.813 C 172.535 260.141, 179.622 246.749, 187.474 231.052 L 201.750 202.514 216.313 231.626 C 224.486 247.965, 231.617 261.023, 232.565 261.386 C 234.669 262.194, 237 260.362, 237 257.901 C 237 256.881, 229.800 241.612, 221 223.969 L 205 191.892 205 160.146 C 205 125.496, 204.786 124.147, 199.750 127.080 " stroke="none" fill="black" fill-rule="evenodd"/>
</svg>