<svg xmlns="http://www.w3.org/2000/svg" width="244" height="324" viewBox="0 0 244 324" version="1.1">
	<path d="M 151.571 63.571 C 150.707 64.436, 150 65.332, 150 65.563 C 150 66.891, 166.907 100.824, 167.863 101.415 C 170.695 103.165, 172.873 100.308, 180.760 84.501 C 185.292 75.417, 189 67.143, 189 66.115 C 189 63.642, 186.675 61.804, 184.569 62.612 C 183.643 62.967, 179.930 69.156, 176.318 76.363 L 169.751 89.469 163.767 77.484 C 157.953 65.839, 155.511 62, 153.916 62 C 153.491 62, 152.436 62.707, 151.571 63.571 M 159.531 127.056 C 142.492 129.702, 127.776 138.391, 116.586 152.416 C 106.765 164.724, 102.531 177.138, 102.573 193.500 C 102.616 210.011, 106.841 222.387, 116.598 234.584 C 130.224 251.617, 148.175 260.349, 169.500 260.319 C 187.884 260.292, 202.916 254.066, 216.095 241.019 C 238.061 219.274, 242.576 187.566, 227.564 160.487 C 219.551 146.033, 202.351 132.693, 186.500 128.638 C 178.523 126.597, 166.885 125.914, 159.531 127.056 M 153.500 135.893 C 142.823 139.009, 135.044 143.699, 126.993 151.876 C 115.129 163.924, 110 176.487, 110 193.500 C 110 210.553, 115.144 223.132, 126.993 235.054 C 139.148 247.284, 152.587 253, 169.184 253 C 196.707 253, 220.255 234.871, 227.003 208.489 C 228.101 204.194, 229 200.077, 229 199.340 C 229 198.249, 223.359 198, 198.700 198 C 176.467 198, 168.081 197.681, 167.200 196.800 C 166.319 195.919, 166 187.422, 166 164.800 L 166 134 162.750 134.071 C 160.963 134.110, 156.800 134.930, 153.500 135.893 M 173 162 L 173 190 201 190 C 233.229 190, 230.275 191.305, 227.003 178.511 C 222.717 161.754, 211.079 147.438, 195.820 140.153 C 188.142 136.487, 179.707 134, 174.951 134 C 173.063 134, 173 134.902, 173 162 M 39.571 159.571 C 38.707 160.436, 38 161.529, 38 162 C 38 163.111, 40.889 166, 42 166 C 43.111 166, 46 163.111, 46 162 C 46 160.889, 43.111 158, 42 158 C 41.529 158, 40.436 158.707, 39.571 159.571 M 7.571 191.571 C 6.707 192.436, 6 193.529, 6 194 C 6 194.471, 6.707 195.564, 7.571 196.429 C 8.936 197.793, 13.463 198, 42 198 C 70.537 198, 75.064 197.793, 76.429 196.429 C 77.293 195.564, 78 194.471, 78 194 C 78 193.529, 77.293 192.436, 76.429 191.571 C 75.064 190.207, 70.537 190, 42 190 C 13.463 190, 8.936 190.207, 7.571 191.571 M 39.571 223.571 C 38.707 224.436, 38 225.529, 38 226 C 38 227.111, 40.889 230, 42 230 C 43.111 230, 46 227.111, 46 226 C 46 224.889, 43.111 222, 42 222 C 41.529 222, 40.436 222.707, 39.571 223.571 " stroke="none" fill="black" fill-rule="evenodd"/>
</svg>