<svg xmlns="http://www.w3.org/2000/svg" width="308" height="324" viewBox="0 0 308 324" version="1.1">
	<path d="M 39.571 127.571 C 38.176 128.966, 38 136.152, 38 191.571 L 38 254 23.571 254 C 11.788 254, 8.855 254.288, 7.571 255.571 C 5.595 257.548, 5.598 258.455, 7.585 260.442 C 8.978 261.835, 13.159 261.995, 42.226 261.763 C 72.452 261.523, 75.377 261.350, 76.386 259.750 C 77.190 258.475, 77.191 257.525, 76.387 256.250 C 75.433 254.736, 73.314 254.463, 60.643 254.223 L 46 253.947 46 191.628 C 46 132.525, 45.906 129.225, 44.171 127.655 C 41.915 125.613, 41.537 125.606, 39.571 127.571 M 167.750 127.080 C 166.787 127.641, 166 128.859, 166 129.788 C 166 130.717, 172.858 138.346, 181.241 146.741 L 196.482 162.006 167 191.500 L 137.518 220.995 121.997 205.497 C 113.461 196.974, 106.177 190, 105.810 190 C 104.731 190, 102 193.046, 102 194.249 C 102 194.857, 108.844 202.250, 117.208 210.677 L 132.416 226 117.208 241.323 C 108.844 249.750, 102 257.143, 102 257.751 C 102 258.967, 104.736 262, 105.834 262 C 106.213 262, 113.482 255.031, 121.987 246.514 L 137.449 231.027 153.045 246.514 C 161.623 255.031, 169.082 262, 169.621 262 C 171.106 262, 173 259.793, 173 258.062 C 173 257.216, 166.143 249.655, 157.761 241.261 L 142.523 225.998 172.020 196.501 L 201.517 167.004 230.999 196.499 L 260.482 225.994 245.241 241.259 C 236.858 249.654, 230 257.290, 230 258.227 C 230 259.163, 230.960 260.443, 232.132 261.071 C 234.079 262.113, 235.624 260.856, 249.882 246.624 L 265.500 231.037 281.152 246.606 C 295.334 260.713, 297.001 262.070, 298.902 261.052 C 300.056 260.435, 301 259.163, 301 258.227 C 301 257.290, 294.143 249.656, 285.762 241.262 L 270.524 226 285.762 210.738 C 294.143 202.344, 301 194.710, 301 193.773 C 301 192.837, 300.058 191.566, 298.906 190.950 C 297.012 189.936, 295.325 191.307, 281.134 205.398 L 265.455 220.967 235.987 191.487 L 206.518 162.006 221.759 146.741 C 230.142 138.346, 237 130.784, 237 129.938 C 237 128.207, 235.106 126, 233.621 126 C 233.082 126, 225.623 132.969, 217.045 141.486 L 201.449 156.973 185.987 141.486 C 177.482 132.969, 170.294 126.014, 170.012 126.030 C 169.730 126.047, 168.713 126.519, 167.750 127.080 " stroke="none" fill="black" fill-rule="evenodd"/>
</svg>