<svg xmlns="http://www.w3.org/2000/svg" width="340" height="324" viewBox="0 0 340 324" version="1.1">
	<path d="M 71.550 62.918 C 67.869 68.875, 54.190 98.331, 54.604 99.410 C 55.269 101.144, 57.524 102.120, 59.295 101.440 C 60.007 101.167, 63.480 95.106, 67.014 87.972 C 70.547 80.837, 73.691 75, 74 75 C 74.309 75, 77.453 80.837, 80.986 87.972 C 84.520 95.106, 87.993 101.167, 88.705 101.440 C 90.487 102.124, 92.732 101.141, 93.407 99.381 C 93.997 97.844, 77.582 64.037, 75.628 62.765 C 74.071 61.751, 72.229 61.820, 71.550 62.918 M 7.571 127.571 C 6.175 128.968, 6 136.372, 6 194 C 6 251.628, 6.175 259.032, 7.571 260.429 C 8.968 261.825, 16.372 262, 74 262 C 131.628 262, 139.032 261.825, 140.429 260.429 C 141.825 259.032, 142 251.628, 142 194 C 142 136.372, 141.825 128.968, 140.429 127.571 C 139.032 126.175, 131.628 126, 74 126 C 16.372 126, 8.968 126.175, 7.571 127.571 M 295.750 127.080 C 294.186 127.991, 294 130.007, 294 146.015 C 294 163.407, 294.064 163.964, 296.183 165.098 C 298.042 166.093, 298.636 165.933, 300.183 164.022 C 301.766 162.067, 302 159.763, 302 146.112 C 302 133.551, 301.691 130.004, 300.443 128.223 C 298.702 125.736, 298.248 125.625, 295.750 127.080 M 14 194 L 14 254 74 254 L 134 254 134 194 L 134 134 74 134 L 14 134 14 194 M 68.764 158.952 C 63.097 160.749, 59.134 164.091, 56.571 169.234 C 55.157 172.071, 54 175.397, 54 176.625 C 54 178.839, 56.353 182, 58 182 C 59.861 182, 62 178.700, 62 175.829 C 62 173.718, 63.030 171.770, 65.400 169.400 C 68.302 166.498, 69.488 166, 73.500 166 C 77.512 166, 78.698 166.498, 81.600 169.400 C 84.502 172.302, 85 173.488, 85 177.500 C 85 181.512, 84.502 182.698, 81.600 185.600 C 79.526 187.674, 77.214 189, 75.671 189 C 71.012 189, 70 191.231, 70 201.500 C 70 208.673, 70.367 211.224, 71.571 212.429 C 72.436 213.293, 73.529 214, 74 214 C 76.689 214, 78 210.575, 78 203.550 C 78 196.379, 78.056 196.219, 80.989 195.004 C 88.582 191.859, 94.103 181.387, 92.174 173.789 C 89.469 163.131, 78.169 155.970, 68.764 158.952 M 263.750 159.080 C 262.788 159.641, 262 160.858, 262 161.786 C 262 162.714, 267.956 169.442, 275.236 176.737 L 288.472 190 228.808 190 C 175.900 190, 168.965 190.178, 167.571 191.571 C 165.598 193.545, 165.598 194.455, 167.571 196.429 C 168.965 197.822, 175.900 198, 228.808 198 L 288.472 198 275.236 211.263 C 267.956 218.558, 262 225.292, 262 226.228 C 262 227.164, 262.912 228.418, 264.026 229.014 C 265.629 229.872, 266.625 229.691, 268.794 228.147 C 272.960 225.180, 302 195.059, 302 193.704 C 302 192.308, 267.764 157.986, 266.417 158.030 C 265.913 158.047, 264.712 158.519, 263.750 159.080 M 71.571 222.571 C 70.707 223.436, 70 224.529, 70 225 C 70 225.471, 70.707 226.564, 71.571 227.429 C 72.436 228.293, 73.529 229, 74 229 C 74.471 229, 75.564 228.293, 76.429 227.429 C 77.293 226.564, 78 225.471, 78 225 C 78 224.529, 77.293 223.436, 76.429 222.571 C 75.564 221.707, 74.471 221, 74 221 C 73.529 221, 72.436 221.707, 71.571 222.571 M 295.750 223.080 C 294.186 223.991, 294 226.007, 294 242.015 C 294 259.407, 294.064 259.964, 296.183 261.098 C 298.042 262.093, 298.636 261.933, 300.183 260.022 C 301.766 258.067, 302 255.763, 302 242.112 C 302 229.551, 301.691 226.004, 300.443 224.223 C 298.702 221.736, 298.248 221.625, 295.750 223.080 " stroke="none" fill="black" fill-rule="evenodd"/>
</svg>