<svg xmlns="http://www.w3.org/2000/svg" width="244" height="324" viewBox="0 0 244 324" version="1.1">
	<path d="M 183.213 143.315 C 173.746 152.838, 166 161.131, 166 161.743 C 166 162.951, 168.728 166, 169.808 166 C 170.175 166, 176.667 159.819, 184.237 152.263 L 198 138.527 198 148.636 L 198 158.744 193.908 159.399 C 184.250 160.943, 173.967 169.284, 169.417 179.266 C 165.361 188.161, 165.361 198.839, 169.417 207.734 C 173.967 217.716, 184.250 226.057, 193.908 227.601 L 198 228.256 198 243.556 C 198 256.133, 198.280 259.137, 199.571 260.429 C 203.777 264.634, 204.910 261.366, 205.223 244.124 L 205.500 228.889 212.053 226.685 C 226.920 221.684, 236 209.102, 236 193.500 C 236 177.898, 226.919 165.314, 212.053 160.317 L 205.500 158.114 205.211 148.314 L 204.922 138.515 218.791 152.257 C 226.419 159.816, 233.132 166, 233.708 166 C 235.297 166, 237.208 163.291, 236.833 161.570 C 236.413 159.644, 203.020 126, 201.528 126 C 200.921 126, 192.680 133.792, 183.213 143.315 M 65.972 159.329 C 59.079 160.851, 52.406 164.702, 47.770 169.833 C 44.436 173.523, 43.691 173.846, 36.140 174.862 C 31.371 175.504, 25.418 177.151, 21.583 178.890 C 13.738 182.447, 4.772 190.406, 5.204 193.430 C 5.738 197.166, 9.662 196.567, 14.627 191.990 C 19.975 187.060, 28.433 183.091, 35.332 182.274 C 40.181 181.700, 40.282 181.742, 39.716 184.093 C 38.076 190.903, 37.921 194.313, 39.009 199.648 C 45.434 231.168, 84.481 238.878, 103.079 212.300 C 104.231 210.653, 106.314 209.828, 111.356 209.023 C 119.620 207.703, 124.952 205.680, 131.582 201.348 C 140.068 195.804, 141.974 192.272, 137.873 189.690 C 136.602 188.890, 135.271 189.464, 131.803 192.305 C 126.487 196.661, 118.080 200.655, 112.294 201.574 L 108.087 202.242 108.104 194.321 C 108.129 183.189, 105.378 176.218, 98.080 168.920 C 89.484 160.324, 77.578 156.767, 65.972 159.329 M 63.885 167.380 C 60.091 168.736, 55.123 171.942, 53.168 174.297 C 52.230 175.428, 52.807 175.922, 56.257 176.940 C 63.483 179.073, 69.586 182.972, 75.937 189.513 C 82.125 195.887, 87.045 198.858, 94.926 200.980 C 98.441 201.926, 99.461 201.897, 100.184 200.827 C 101.706 198.576, 100.585 185.848, 98.481 181.500 C 95.723 175.802, 88.821 169.468, 83.329 167.597 C 77.736 165.691, 68.887 165.592, 63.885 167.380 M 191.885 167.380 C 180.704 171.375, 173.875 181.280, 173.875 193.500 C 173.875 206.578, 182.686 217.967, 194.750 220.481 L 198 221.159 198 193.579 C 198 163.470, 198.371 165.062, 191.885 167.380 M 205 193.500 L 205 221.217 207.456 220.600 C 215.422 218.601, 221.652 213.879, 225.500 206.923 C 228.131 202.166, 228.500 200.517, 228.500 193.500 C 228.500 186.483, 228.131 184.834, 225.500 180.077 C 221.652 173.121, 215.422 168.399, 207.456 166.400 L 205 165.783 205 193.500 M 47.418 183.133 C 46.102 185.261, 45.772 197.480, 46.916 201.708 C 48.446 207.361, 53.544 213.823, 59.266 217.361 C 68.526 223.086, 82.991 221.898, 91.216 214.736 C 96.555 210.086, 96.373 209.122, 89.762 207.035 C 82.092 204.614, 75.197 200.048, 70.122 194.030 C 64.518 187.383, 49.304 180.081, 47.418 183.133 M 39.585 255.558 C 38.713 256.430, 38 257.529, 38 258 C 38 258.471, 38.713 259.570, 39.585 260.442 C 40.978 261.835, 45.159 261.995, 74.226 261.763 C 104.452 261.523, 107.377 261.350, 108.386 259.750 C 109.191 258.474, 109.191 257.526, 108.386 256.250 C 107.377 254.650, 104.452 254.477, 74.226 254.237 C 45.159 254.005, 40.978 254.165, 39.585 255.558 " stroke="none" fill="black" fill-rule="evenodd"/>
</svg>