<svg xmlns="http://www.w3.org/2000/svg" width="308" height="324" viewBox="0 0 308 324" version="1.1">
	<path d="M 40.316 62.784 C 38.369 64.022, 22.007 97.855, 22.604 99.410 C 23.269 101.144, 25.524 102.120, 27.295 101.440 C 28.007 101.167, 31.480 95.106, 35.014 87.972 C 38.547 80.837, 41.691 75, 42 75 C 42.309 75, 45.453 80.837, 48.986 87.972 C 52.520 95.106, 55.993 101.167, 56.705 101.440 C 58.487 102.124, 60.732 101.141, 61.407 99.381 C 61.997 97.844, 45.582 64.037, 43.628 62.765 C 42.214 61.845, 41.789 61.847, 40.316 62.784 M 71.571 127.571 C 70.178 128.965, 70 135.899, 70 188.799 L 70 248.455 40.711 219.227 C 24.602 203.152, 10.909 190, 10.282 190 C 8.807 190, 6 192.810, 6 194.287 C 6 195.818, 72.128 262, 73.659 262 C 74.318 262, 75.564 261.293, 76.429 260.429 C 77.825 259.033, 78 251.687, 78 194.651 C 78 138.158, 77.813 130.178, 76.443 128.223 C 74.598 125.588, 73.678 125.465, 71.571 127.571 M 103.571 159.571 C 101.215 161.927, 101.215 210.073, 103.571 212.429 C 105.678 214.535, 106.598 214.412, 108.443 211.777 C 109.745 209.919, 110 205.701, 110 186 C 110 166.299, 109.745 162.081, 108.443 160.223 C 106.598 157.588, 105.678 157.465, 103.571 159.571 M 135.750 159.080 C 134.155 160.009, 134 162.388, 134 186.015 C 134 211.174, 134.060 211.962, 136.064 213.034 C 137.596 213.854, 138.498 213.832, 139.564 212.947 C 140.744 211.968, 141 207.174, 141 186.078 C 141 157.906, 140.671 156.214, 135.750 159.080 M 190.263 175.461 C 182.652 177.179, 173.479 181.942, 167.949 187.047 C 163.664 191.003, 163.155 193.439, 166.214 195.365 C 167.555 196.209, 168.535 195.956, 170.714 194.204 C 183.464 183.952, 189.890 181.559, 202.984 182.185 C 210.295 182.534, 212.814 183.128, 218.127 185.756 C 224.110 188.715, 225.996 190.215, 233.500 197.977 C 235.150 199.684, 239.650 202.629, 243.500 204.521 C 260.406 212.829, 279.011 210.782, 294.778 198.878 C 300.393 194.639, 301.305 191.835, 297.786 189.630 C 296.449 188.792, 295.460 189.046, 293.286 190.788 C 282.054 199.789, 274.870 202.389, 263 201.750 C 250.834 201.094, 244.456 198.379, 236.708 190.559 C 233.294 187.113, 228.623 183.119, 226.329 181.684 C 216.467 175.515, 201.481 172.929, 190.263 175.461 M 103.616 222.527 C 102.727 223.416, 102 224.529, 102 225 C 102 226.389, 105.140 229.120, 106.295 228.735 C 108.395 228.035, 109.549 225.094, 108.423 223.310 C 106.905 220.902, 105.474 220.669, 103.616 222.527 M 135.750 222.080 C 133.372 223.465, 133.542 226.685, 136.064 228.034 C 139.753 230.008, 142.819 225.219, 139.800 222.200 C 138.367 220.767, 138.022 220.757, 135.750 222.080 " stroke="none" fill="black" fill-rule="evenodd"/>
</svg>