<svg xmlns="http://www.w3.org/2000/svg" width="180" height="324" viewBox="0 0 180 324" version="1.1">
	<path d="M 40.372 62.765 C 38.418 64.037, 22.003 97.844, 22.593 99.381 C 23.268 101.141, 25.513 102.124, 27.295 101.440 C 28.007 101.167, 31.480 95.106, 35.014 87.972 C 38.547 80.837, 41.691 75, 42 75 C 42.309 75, 45.453 80.837, 48.986 87.972 C 52.520 95.106, 55.993 101.167, 56.705 101.440 C 58.487 102.124, 60.732 101.141, 61.407 99.381 C 61.716 98.575, 58.096 90.173, 53.363 80.708 C 45.638 65.261, 43.672 62.031, 42 62.031 C 41.725 62.031, 40.992 62.361, 40.372 62.765 M 35.045 159.064 C 24.687 161.161, 14.828 168.537, 10.166 177.675 C -1.578 200.694, 15.495 228.252, 41.500 228.252 C 51.571 228.252, 58.970 225.190, 66.080 218.080 C 71.319 212.841, 76 204.056, 76 199.462 C 76 197.517, 80.513 197.562, 88.356 199.585 C 104.714 203.805, 119.487 215.882, 126.786 231 C 129.043 235.675, 131.188 241.075, 131.551 243 C 132.178 246.316, 131.556 245.854, 119.767 234.250 C 112.922 227.512, 106.831 222, 106.232 222 C 104.814 222, 102 224.827, 102 226.253 C 102 227.168, 132.228 258.707, 135.500 261.206 C 136.050 261.626, 137.161 261.976, 137.968 261.985 C 139.676 262.002, 174 227.999, 174 226.290 C 174 224.829, 171.201 222, 169.756 222 C 169.150 222, 162.270 228.331, 154.466 236.068 L 140.277 250.136 139.607 245.941 C 135.440 219.883, 112.873 196.743, 86.987 191.984 C 83.419 191.328, 79.487 190.605, 78.250 190.376 C 76.831 190.115, 76 189.244, 76 188.018 C 76 186.950, 75.027 183.474, 73.837 180.295 C 68.370 165.681, 50.544 155.925, 35.045 159.064 M 31.054 167.728 C 25.018 169.859, 17.781 177.260, 15.667 183.463 C 11.995 194.241, 14.382 205.477, 21.952 213.048 C 32.673 223.769, 50.327 223.769, 61.048 213.048 C 71.769 202.327, 71.769 184.673, 61.048 173.952 C 53.519 166.424, 41.696 163.970, 31.054 167.728 " stroke="none" fill="black" fill-rule="evenodd"/>
</svg>