<svg xmlns="http://www.w3.org/2000/svg" width="116" height="324" viewBox="0 0 116 324" version="1.1">
	<path d="M 35.045 159.092 C 18.472 162.341, 6.748 176.597, 6.748 193.500 C 6.748 225.177, 45.698 240.495, 67.128 217.245 C 73.627 210.194, 76.444 203.016, 76.444 193.500 C 76.444 186.964, 75.962 184.462, 73.811 179.825 C 68.655 168.708, 59.167 161.211, 47.566 159.087 C 40.965 157.878, 41.242 157.878, 35.045 159.092 M 31.054 167.668 C 25.003 169.886, 17.760 177.321, 15.667 183.463 C 10.962 197.271, 16.398 211.766, 28.621 218.008 C 32.689 220.086, 34.913 220.500, 42 220.500 C 49.457 220.500, 51.070 220.165, 55.145 217.770 C 64.431 212.310, 68.956 204.359, 68.956 193.500 C 68.956 182.687, 64.421 174.675, 55.261 169.307 C 49.484 165.922, 37.949 165.141, 31.054 167.668 M 40.200 191.200 C 38.111 193.289, 39.447 198, 42.129 198 C 43.139 198, 46 195.044, 46 194 C 46 192.956, 43.139 190, 42.129 190 C 41.728 190, 40.860 190.540, 40.200 191.200 M 104.200 191.200 C 102.111 193.289, 103.447 198, 106.129 198 C 107.139 198, 110 195.044, 110 194 C 110 192.956, 107.139 190, 106.129 190 C 105.728 190, 104.860 190.540, 104.200 191.200 " stroke="none" fill="black" fill-rule="evenodd"/>
</svg>