<svg xmlns="http://www.w3.org/2000/svg" width="340" height="324" viewBox="0 0 340 324" version="1.1">
	<path d="M 199.200 127.200 C 197.465 128.935, 197.465 259.065, 199.200 260.800 C 200.109 261.709, 216.172 261.996, 265.450 261.985 C 301.227 261.976, 331.072 261.606, 331.772 261.162 C 332.780 260.522, 333.044 246.603, 333.044 194 C 333.044 141.397, 332.780 127.478, 331.772 126.838 C 331.072 126.394, 301.228 126.024, 265.450 126.015 C 216.172 126.004, 200.109 126.291, 199.200 127.200 M 206 194 L 206 254 266 254 L 326 254 326 194 L 326 134 266 134 L 206 134 206 194 M 34.223 159.012 C 23.933 161.160, 13.981 169.443, 9.216 179.825 C 5.512 187.894, 5.512 199.106, 9.216 207.175 C 20.149 230.995, 50.285 235.936, 67.545 216.739 C 77.459 205.712, 79.309 189.875, 72.219 176.712 C 65.187 163.655, 48.721 155.985, 34.223 159.012 M 103.200 159.200 C 101.481 160.919, 101.481 227.081, 103.200 228.800 C 104.085 229.685, 113.117 230, 137.629 230 C 166.503 230, 171.063 229.794, 172.429 228.429 C 173.793 227.064, 174 222.537, 174 194 C 174 165.463, 173.793 160.936, 172.429 159.571 C 171.063 158.206, 166.503 158, 137.629 158 C 113.117 158, 104.085 158.315, 103.200 159.200 M 31.054 167.728 C 28.523 168.621, 24.609 171.296, 21.971 173.934 C 8.623 187.282, 12.520 210.324, 29.500 218.458 C 34.518 220.861, 43.751 221.610, 49.278 220.061 C 60.579 216.894, 69 205.553, 69 193.500 C 69 182.009, 61.521 171.321, 50.684 167.326 C 46.195 165.671, 36.306 165.873, 31.054 167.728 M 110 194 L 110 222 138 222 L 166 222 166 194 L 166 166 138 166 L 110 166 110 194 M 39.571 191.571 C 38.707 192.436, 38 193.529, 38 194 C 38 195.111, 40.889 198, 42 198 C 43.111 198, 46 195.111, 46 194 C 46 192.889, 43.111 190, 42 190 C 41.529 190, 40.436 190.707, 39.571 191.571 " stroke="none" fill="black" fill-rule="evenodd"/>
</svg>