<svg xmlns="http://www.w3.org/2000/svg" width="324" height="324" viewBox="0 0 324 324" version="1.1">
	<path d="M 23.200 63.200 C 21.289 65.111, 21.748 66.626, 25.905 72.119 C 36.388 85.969, 36.634 107.615, 26.460 121 C 11.502 140.679, 8.686 147.039, 8.746 161 C 8.804 174.332, 12.785 184.523, 21.808 194.438 L 25.049 198 38.527 198 L 52.006 198 37.020 227.961 C 28.777 244.439, 22.285 258.580, 22.594 259.384 C 23.265 261.133, 25.512 262.125, 27.274 261.448 C 27.975 261.180, 35.056 247.919, 43.010 231.980 C 50.964 216.041, 57.710 203, 58 203 C 58.290 203, 65.036 216.041, 72.990 231.980 C 80.944 247.919, 88.025 261.180, 88.726 261.448 C 89.427 261.717, 90.573 261.717, 91.274 261.448 C 91.975 261.180, 99.056 247.919, 107.010 231.980 C 114.964 216.041, 121.710 203, 122 203 C 122.290 203, 129.036 216.041, 136.990 231.980 C 144.944 247.919, 152.025 261.180, 152.726 261.448 C 154.488 262.125, 156.735 261.133, 157.406 259.384 C 157.715 258.580, 151.223 244.439, 142.980 227.961 L 127.994 198 141.425 198 C 152.303 198, 155.156 197.701, 156.429 196.429 C 158.402 194.455, 158.402 193.545, 156.429 191.571 C 155.033 190.176, 147.717 190, 90.979 190 L 27.102 190 24.591 186.708 C 23.210 184.897, 20.824 180.735, 19.290 177.458 C 16.792 172.124, 16.500 170.401, 16.500 161 C 16.500 151.295, 16.737 150.008, 19.623 144 C 21.341 140.425, 25.048 134.665, 27.861 131.199 C 37.743 119.025, 41.329 109.917, 41.329 97 C 41.329 85.007, 37.308 73.976, 29.831 65.460 C 26.596 61.776, 25.126 61.274, 23.200 63.200 M 183.571 191.571 C 182.707 192.436, 182 193.334, 182 193.568 C 182 195.149, 215.728 261.065, 216.735 261.452 C 217.431 261.719, 218.573 261.717, 219.274 261.448 C 219.975 261.180, 227.056 247.919, 235.010 231.980 C 242.964 216.041, 249.710 203, 250 203 C 250.290 203, 257.036 216.041, 264.990 231.980 C 272.944 247.919, 280.025 261.180, 280.726 261.448 C 281.427 261.717, 282.569 261.719, 283.265 261.452 C 284.272 261.065, 318 195.149, 318 193.568 C 318 193.334, 317.293 192.436, 316.429 191.571 C 315.032 190.175, 307.628 190, 250 190 C 192.372 190, 184.968 190.175, 183.571 191.571 M 76.743 223.500 C 83.750 237.525, 89.715 249, 90 249 C 90.285 249, 96.250 237.525, 103.257 223.500 L 115.995 198 90 198 L 64.005 198 76.743 223.500 M 204.743 223.500 C 211.750 237.525, 217.715 249, 218 249 C 218.285 249, 224.250 237.525, 231.257 223.500 L 243.995 198 218 198 L 192.005 198 204.743 223.500 M 268.743 223.500 C 275.750 237.525, 281.715 249, 282 249 C 282.285 249, 288.250 237.525, 295.257 223.500 L 307.995 198 282 198 L 256.005 198 268.743 223.500 " stroke="none" fill="black" fill-rule="evenodd"/>
</svg>