<svg xmlns="http://www.w3.org/2000/svg" width="244" height="324" viewBox="0 0 244 324" version="1.1">
	<path d="M 185.288 173.222 L 138.028 220.444 122.691 205.222 C 114.256 196.850, 106.857 190, 106.249 190 C 104.819 190, 102 192.819, 102 194.249 C 102 194.857, 108.844 202.250, 117.208 210.677 L 132.416 226 117.208 241.323 C 108.844 249.750, 102 257.143, 102 257.751 C 102 259.181, 104.819 262, 106.249 262 C 106.857 262, 114.250 255.156, 122.677 246.792 L 138 231.584 153.323 246.792 C 161.750 255.156, 169.085 262, 169.623 262 C 171.244 262, 173 259.725, 173 257.625 C 173 256.420, 167.287 249.891, 158.351 240.883 L 143.702 226.117 190.351 178.894 C 216.008 152.922, 237 130.935, 237 130.036 C 237 128.200, 235.133 126, 233.575 126 C 233.011 126, 211.282 147.250, 185.288 173.222 M 7.571 159.571 C 6.207 160.936, 6 165.463, 6 194 C 6 222.537, 6.207 227.064, 7.571 228.429 C 8.936 229.793, 13.463 230, 42 230 C 70.537 230, 75.064 229.793, 76.429 228.429 C 77.793 227.064, 78 222.537, 78 194 C 78 165.463, 77.793 160.936, 76.429 159.571 C 75.064 158.207, 70.537 158, 42 158 C 13.463 158, 8.936 158.207, 7.571 159.571 M 14 194 L 14 222 42 222 L 70 222 70 194 L 70 166 42 166 L 14 166 14 194 M 7.571 255.571 C 6.707 256.436, 6 257.529, 6 258 C 6 258.471, 6.707 259.564, 7.571 260.429 C 8.936 261.793, 13.463 262, 42 262 C 70.537 262, 75.064 261.793, 76.429 260.429 C 77.293 259.564, 78 258.471, 78 258 C 78 257.529, 77.293 256.436, 76.429 255.571 C 75.064 254.207, 70.537 254, 42 254 C 13.463 254, 8.936 254.207, 7.571 255.571 " stroke="none" fill="black" fill-rule="evenodd"/>
</svg>