<svg xmlns="http://www.w3.org/2000/svg" width="436" height="324" viewBox="0 0 436 324" version="1.1">
	<path d="M 7.571 127.571 C 6.175 128.968, 6 136.372, 6 194 C 6 251.628, 6.175 259.032, 7.571 260.429 C 8.436 261.293, 9.666 262, 10.305 262 C 12.018 262, 78 195.721, 78 194 C 78 192.279, 12.018 126, 10.305 126 C 9.666 126, 8.436 126.707, 7.571 127.571 M 351.536 127.055 C 335.082 129.611, 320.160 138.175, 309.216 151.345 C 304.987 156.432, 298 169.036, 298 171.575 C 298 173.441, 297.163 173.776, 289.421 175.009 C 277.646 176.883, 268.371 182.304, 258.500 193.079 C 257.400 194.280, 253.575 196.666, 250 198.381 C 243.993 201.263, 242.703 201.500, 233 201.496 C 221.269 201.492, 215.704 199.711, 207.237 193.248 C 202.707 189.790, 199.754 189.594, 198.572 192.673 C 197.731 194.864, 204.434 201.087, 211.201 204.398 C 218.627 208.031, 230.003 210.260, 236.926 209.438 C 249.301 207.969, 261.890 201.714, 268.002 193.998 C 271.623 189.425, 277.526 185.803, 284.932 183.609 C 294.853 180.670, 294.486 180.284, 294.599 193.750 C 294.681 203.541, 295.133 206.834, 297.313 213.500 C 304.585 235.740, 322.677 252.869, 345 258.650 C 353.671 260.895, 369.440 260.855, 378 258.566 C 388.951 255.637, 399.602 249.427, 408.095 241.019 C 421.603 227.646, 428 212.375, 428 193.500 C 428 174.625, 421.603 159.354, 408.095 145.981 C 393.016 131.053, 371.708 123.923, 351.536 127.055 M 345.345 135.904 C 334.940 138.882, 328.007 142.998, 319.921 151 C 312.586 158.259, 306.860 166.659, 305.487 172.173 C 304.849 174.737, 305.075 174.917, 310.997 176.579 C 314.394 177.532, 319.857 180.047, 323.138 182.168 L 329.103 186.023 332.353 183.544 C 347.553 171.951, 370.292 171.538, 387.500 182.543 C 397.221 188.760, 400.146 193.824, 395.500 196.390 C 394.400 196.998, 392.035 198.533, 390.244 199.803 C 371.140 213.344, 347.270 212.610, 329.250 197.925 C 326.363 195.572, 323.997 193.163, 323.993 192.573 C 323.978 190.177, 311.181 183.429, 305.500 182.821 L 302.500 182.500 302.213 192.331 C 301.698 209.936, 306.666 222.605, 318.993 235.125 C 330.911 247.231, 344.528 253, 361.184 253 C 375.691 253, 390.358 247.623, 400.701 238.512 C 407.733 232.318, 415.479 220.467, 418.244 211.675 C 421.417 201.584, 421.428 185.450, 418.269 175.407 C 415.452 166.451, 407.928 154.855, 400.915 148.661 C 394.690 143.163, 381.926 136.679, 374.201 135.090 C 366.350 133.475, 352.464 133.867, 345.345 135.904 M 14 194 L 14 248.495 41.248 221.248 L 68.495 194 41.248 166.752 L 14 139.505 14 194 M 348 183.818 C 342.107 185.773, 334 190.457, 334 191.908 C 334 192.394, 336.137 194.152, 338.750 195.814 C 350.134 203.059, 366.092 204.048, 378.045 198.249 C 381.595 196.527, 385.374 194.416, 386.441 193.559 C 388.363 192.016, 388.363 191.984, 386.441 190.441 C 385.374 189.584, 381.575 187.463, 378 185.728 C 372.430 183.025, 370.212 182.532, 362.500 182.284 C 355.842 182.070, 352.069 182.469, 348 183.818 M 103.571 191.571 C 102.707 192.436, 102 193.529, 102 194 C 102 194.471, 102.707 195.564, 103.571 196.429 C 104.936 197.793, 109.463 198, 138 198 C 166.537 198, 171.064 197.793, 172.429 196.429 C 173.293 195.564, 174 194.471, 174 194 C 174 193.529, 173.293 192.436, 172.429 191.571 C 171.064 190.207, 166.537 190, 138 190 C 109.463 190, 104.936 190.207, 103.571 191.571 " stroke="none" fill="black" fill-rule="evenodd"/>
</svg>