<svg xmlns="http://www.w3.org/2000/svg" width="196" height="324" viewBox="0 0 196 324" version="1.1">
	<path d="M 7.200 63.200 C 5.512 64.888, 5.512 99.112, 7.200 100.800 C 8.040 101.640, 13.562 102, 25.629 102 C 39.958 102, 43.122 101.736, 44.429 100.429 C 46.757 98.100, 46.757 65.900, 44.429 63.571 C 43.122 62.264, 39.958 62, 25.629 62 C 13.562 62, 8.040 62.360, 7.200 63.200 M 14 82 L 14 94 26 94 L 38 94 38 82 L 38 70 26 70 L 14 70 14 82 M 23.571 127.571 C 22.175 128.968, 22 136.372, 22 194 C 22 251.628, 22.175 259.032, 23.571 260.429 C 24.436 261.293, 25.529 262, 26 262 C 26.471 262, 27.564 261.293, 28.429 260.429 C 29.825 259.032, 30 251.628, 30 194 C 30 136.372, 29.825 128.968, 28.429 127.571 C 27.564 126.707, 26.471 126, 26 126 C 25.529 126, 24.436 126.707, 23.571 127.571 M 55.571 127.571 C 54.175 128.968, 54 136.372, 54 194 C 54 251.628, 54.175 259.032, 55.571 260.429 C 56.436 261.293, 57.529 262, 58 262 C 58.471 262, 59.564 261.293, 60.429 260.429 C 61.825 259.032, 62 251.628, 62 194 C 62 136.372, 61.825 128.968, 60.429 127.571 C 59.564 126.707, 58.471 126, 58 126 C 57.529 126, 56.436 126.707, 55.571 127.571 M 183.750 127.080 C 182.111 128.035, 182 132.293, 182 194.015 C 182 259.587, 182.011 259.935, 184.064 261.034 C 189.084 263.721, 189 264.854, 189 194.078 C 189 123.068, 189.071 123.981, 183.750 127.080 M 119.750 159.080 C 118.207 159.979, 118 161.866, 118 175.050 L 118 190 103.571 190 C 91.788 190, 88.855 190.288, 87.571 191.571 C 85.598 193.545, 85.598 194.455, 87.571 196.429 C 88.855 197.712, 91.788 198, 103.571 198 L 118 198 118 212.965 C 118 226.737, 118.154 228.012, 119.934 228.965 C 122.436 230.304, 122.569 230.288, 124.429 228.429 C 125.712 227.145, 126 224.215, 126 212.455 L 126 198.053 140.643 197.777 C 153.314 197.537, 155.433 197.264, 156.387 195.750 C 157.191 194.475, 157.191 193.525, 156.387 192.250 C 155.433 190.736, 153.314 190.463, 140.643 190.223 L 126 189.947 126 175.545 C 126 163.785, 125.712 160.855, 124.429 159.571 C 122.607 157.750, 122.121 157.699, 119.750 159.080 " stroke="none" fill="black" fill-rule="evenodd"/>
</svg>