<svg xmlns="http://www.w3.org/2000/svg" width="244" height="324" viewBox="0 0 244 324" version="1.1">
	<path d="M 40.316 62.784 C 38.369 64.022, 22.007 97.855, 22.604 99.410 C 23.269 101.144, 25.524 102.120, 27.295 101.440 C 28.007 101.167, 31.480 95.106, 35.014 87.972 C 38.547 80.837, 41.691 75, 42 75 C 42.309 75, 45.453 80.837, 48.986 87.972 C 52.520 95.106, 55.993 101.167, 56.705 101.440 C 58.487 102.124, 60.732 101.141, 61.407 99.381 C 61.997 97.844, 45.582 64.037, 43.628 62.765 C 42.214 61.845, 41.789 61.847, 40.316 62.784 M 71.571 127.571 C 70.178 128.965, 70 135.899, 70 188.799 L 70 248.455 40.711 219.227 C 24.602 203.152, 10.909 190, 10.282 190 C 8.807 190, 6 192.810, 6 194.287 C 6 195.818, 72.128 262, 73.659 262 C 74.318 262, 75.564 261.293, 76.429 260.429 C 77.825 259.032, 78 251.628, 78 194 C 78 136.372, 77.825 128.968, 76.429 127.571 C 75.564 126.707, 74.471 126, 74 126 C 73.529 126, 72.436 126.707, 71.571 127.571 M 199.750 159.082 C 198.787 159.642, 198 160.858, 198 161.786 C 198 162.714, 203.956 169.442, 211.236 176.737 L 224.472 190 164.808 190 C 111.900 190, 104.965 190.178, 103.571 191.571 C 101.598 193.545, 101.598 194.455, 103.571 196.429 C 104.965 197.822, 111.900 198, 164.808 198 L 224.472 198 211.236 211.263 C 203.956 218.558, 198 225.292, 198 226.228 C 198 227.164, 198.952 228.439, 200.115 229.062 C 202.040 230.092, 203.774 228.675, 219.348 213.347 C 236.797 196.174, 237.958 194.961, 237.985 193.886 C 238.002 193.179, 203.261 158.610, 202.202 158.282 C 201.816 158.162, 200.713 158.522, 199.750 159.082 M 119.315 239.213 C 109.792 248.680, 102 257.134, 102 258 C 102 259.680, 135.953 294, 137.615 294 C 139.268 294, 141 291.716, 141 289.535 C 141 288.223, 136.434 282.915, 128.485 274.985 L 115.969 262.500 175.626 262 C 231.037 261.536, 235.361 261.375, 236.386 259.750 C 237.191 258.474, 237.191 257.526, 236.386 256.250 C 235.361 254.625, 231.037 254.464, 175.626 254 L 115.969 253.500 128.485 241.015 C 136.434 233.085, 141 227.777, 141 226.465 C 141 224.284, 139.268 222, 137.615 222 C 137.073 222, 128.838 229.746, 119.315 239.213 " stroke="none" fill="black" fill-rule="evenodd"/>
</svg>