<svg xmlns="http://www.w3.org/2000/svg" width="532" height="324" viewBox="0 0 532 324" version="1.1">
	<path d="M 279.200 63.200 C 277.512 64.888, 277.512 99.112, 279.200 100.800 C 280.040 101.640, 285.562 102, 297.629 102 C 311.958 102, 315.122 101.736, 316.429 100.429 C 318.757 98.100, 318.757 65.900, 316.429 63.571 C 315.122 62.264, 311.958 62, 297.629 62 C 285.562 62, 280.040 62.360, 279.200 63.200 M 439.750 63.080 C 436.687 64.864, 437.818 67.270, 445.225 74.726 L 452.450 82 445.225 89.274 C 437.623 96.926, 436.639 99.201, 440.125 101.067 C 442.033 102.088, 443.032 101.427, 449.901 94.599 L 457.551 86.993 464.026 93.568 C 471.764 101.427, 473.584 102.591, 475.564 100.947 C 478.159 98.793, 477.091 96.639, 469.775 89.274 L 462.550 82 469.775 74.726 C 473.749 70.726, 477 66.766, 477 65.926 C 477 64.238, 475.110 62, 473.685 62 C 473.182 62, 469.313 65.365, 465.087 69.477 L 457.404 76.954 449.977 69.477 C 445.892 65.365, 442.314 62.014, 442.025 62.030 C 441.736 62.047, 440.712 62.519, 439.750 63.080 M 286 82 L 286 94 298 94 L 310 94 310 82 L 310 70 298 70 L 286 70 286 82 M 127.102 127.162 C 101.856 130.771, 79.148 151.443, 72.352 177 C 70.055 185.639, 70.055 201.361, 72.352 210 C 76.494 225.576, 87.742 241.101, 101.307 249.965 L 107.483 254 90.313 254 C 76.037 254, 72.878 254.265, 71.571 255.571 C 69.598 257.545, 69.598 258.455, 71.571 260.429 C 72.968 261.825, 80.372 262, 138 262 C 195.628 262, 203.032 261.825, 204.429 260.429 C 206.244 258.614, 206.319 258.054, 205.023 256 C 204.259 254.788, 200.578 254.404, 185.857 254 L 167.638 253.500 173.733 249.742 C 186.671 241.764, 199.027 224.484, 202.594 209.376 C 204.671 200.578, 204.671 186.422, 202.594 177.624 C 196.486 151.759, 173.306 130.928, 146.284 127.020 C 138.450 125.888, 135.879 125.907, 127.102 127.162 M 263.230 159.285 C 244.953 177.591, 230 193.084, 230 193.713 C 230 195.191, 232.808 198, 234.285 198 C 234.913 198, 249.506 183.947, 266.713 166.771 L 298 135.542 329.287 166.771 C 346.494 183.947, 361.064 198, 361.664 198 C 363.270 198, 365.216 195.319, 364.833 193.637 C 364.342 191.486, 299.497 126, 297.857 126 C 297.089 126, 281.506 140.978, 263.230 159.285 M 454.750 127.080 C 453.514 127.800, 453 129.359, 453 132.390 C 453 139.079, 449.370 151.641, 445.340 158.899 C 439.912 168.675, 429.977 177.998, 419.820 182.847 C 411.178 186.974, 403.669 189, 397.022 189 C 393.416 189, 390 190.946, 390 193 C 390 193.471, 390.740 194.598, 391.645 195.502 C 394.752 198.610, 409.603 195.672, 422.858 189.329 C 430.444 185.698, 433.677 183.397, 439.930 177.175 C 444.173 172.954, 449.065 167.025, 450.800 164 L 453.956 158.500 453.978 209.215 C 454 259.419, 454.021 259.941, 456.064 261.034 C 460.950 263.649, 460.962 263.528, 461.241 210.135 L 461.500 160.500 463.904 164.367 C 475.364 182.803, 496.127 195.289, 516.864 196.216 C 522.031 196.447, 523.440 196.171, 524.358 194.750 C 526.568 191.332, 524.014 189.561, 515.895 188.881 C 491.962 186.878, 471.227 169.971, 464.096 146.645 C 462.943 142.874, 462 137.394, 462 134.466 C 462 127.248, 459.258 124.454, 454.750 127.080 M 121.500 135.870 C 101.436 141.645, 84.733 158.691, 79.585 178.644 C 77.554 186.517, 77.554 200.483, 79.585 208.356 C 84.889 228.914, 102.828 246.683, 123.103 251.463 C 131.282 253.390, 143.718 253.390, 151.897 251.463 C 177.802 245.356, 197 220.685, 197 193.500 C 197 166.315, 177.802 141.644, 151.897 135.537 C 143.386 133.531, 129.080 133.688, 121.500 135.870 M 7.571 191.571 C 6.707 192.436, 6 193.529, 6 194 C 6 194.471, 6.707 195.564, 7.571 196.429 C 8.850 197.707, 11.742 198, 23.071 198 C 30.732 198, 36.988 198.338, 36.973 198.750 C 36.958 199.162, 33.621 212.724, 29.557 228.887 C 25.493 245.050, 22.390 258.853, 22.661 259.560 C 23.302 261.228, 25.604 262.089, 27.489 261.366 C 29.186 260.715, 28.617 262.684, 37.992 225 C 41.892 209.325, 45.304 195.760, 45.575 194.855 C 45.846 193.951, 45.345 192.488, 44.463 191.605 C 42.103 189.246, 9.927 189.216, 7.571 191.571 " stroke="none" fill="black" fill-rule="evenodd"/>
</svg>