<svg xmlns="http://www.w3.org/2000/svg" width="212" height="324" viewBox="0 0 212 324" version="1.1">
	<path d="M 67 126.637 C 49.023 129.262, 36.267 135.634, 24.973 147.630 C 17.823 155.225, 13.393 162.294, 10.411 170.869 C -1.043 203.805, 13.231 238.316, 44.782 253.971 C 57.713 260.386, 76.156 262.263, 90 258.571 C 113.126 252.405, 131.027 235.091, 138.151 212 C 141.514 201.100, 141.342 184.647, 137.751 173.722 C 129.507 148.639, 108.232 130.622, 82.678 127.083 C 74.947 126.013, 71.876 125.925, 67 126.637 M 58.645 135.584 C 38.617 140.432, 20.292 158.932, 15.537 179.103 C 13.610 187.282, 13.610 199.718, 15.537 207.897 C 20.338 228.261, 38.739 246.662, 59.103 251.463 C 67.422 253.423, 80.634 253.409, 88.269 251.430 C 109.039 246.048, 126.093 229.098, 131.457 208.505 C 133.437 200.904, 133.437 186.096, 131.457 178.495 C 126.093 157.902, 109.039 140.952, 88.269 135.570 C 80.844 133.646, 66.624 133.653, 58.645 135.584 M 179.637 191.420 C 172.229 194.147, 167 201.151, 167 208.345 C 167 212.128, 168.903 214.358, 171.335 213.425 C 172.964 212.800, 173.373 211.875, 174.499 206.277 C 175.990 198.861, 186.351 195.342, 192.486 200.168 C 196.364 203.218, 198.400 208.377, 196.868 211.273 C 196.220 212.498, 189.010 223.479, 180.845 235.675 C 172.680 247.871, 166 258.076, 166 258.353 C 166 258.630, 166.707 259.564, 167.571 260.429 C 168.873 261.730, 171.976 262, 185.637 262 C 202.729 262, 206 261.357, 206 258 C 206 254.818, 202.740 254, 190.066 254 C 183.430 254, 178 253.767, 178 253.483 C 178 253.198, 184.348 243.459, 192.106 231.841 L 206.212 210.717 204.618 205.779 C 202.481 199.165, 199.615 195.354, 195.008 193.004 C 189.695 190.293, 184.227 189.730, 179.637 191.420 " stroke="none" fill="black" fill-rule="evenodd"/>
</svg>