<svg xmlns="http://www.w3.org/2000/svg" width="340" height="324" viewBox="0 0 340 324" version="1.1">
	<path d="M 55.750 63.080 C 54.186 63.991, 54 66.007, 54 82.015 C 54 98.703, 54.132 100, 55.934 100.965 C 57.043 101.558, 64.905 102, 74.363 102 C 88.024 102, 91.127 101.730, 92.429 100.429 C 94.757 98.100, 94.757 65.900, 92.429 63.571 C 91.123 62.266, 88.036 62.005, 74.179 62.030 C 64.720 62.048, 56.742 62.502, 55.750 63.080 M 62 82 L 62 94 74 94 L 86 94 86 82 L 86 70 74 70 L 62 70 62 82 M 71.571 127.571 C 70.212 128.931, 70 133.242, 70 159.571 L 70 190 39.571 190 C 13.242 190, 8.931 190.212, 7.571 191.571 C 5.598 193.545, 5.598 194.455, 7.571 196.429 C 8.931 197.788, 13.242 198, 39.571 198 L 70 198 70 228.429 C 70 254.758, 70.212 259.069, 71.571 260.429 C 72.436 261.293, 73.529 262, 74 262 C 74.471 262, 75.564 261.293, 76.429 260.429 C 77.788 259.069, 78 254.758, 78 228.429 L 78 198 108.429 198 C 134.758 198, 139.069 197.788, 140.429 196.429 C 142.402 194.455, 142.402 193.545, 140.429 191.571 C 139.069 190.212, 134.758 190, 108.429 190 L 78 190 78 159.571 C 78 133.242, 77.788 128.931, 76.429 127.571 C 75.564 126.707, 74.471 126, 74 126 C 73.529 126, 72.436 126.707, 71.571 127.571 M 232.207 126.677 C 231.495 126.962, 227.135 134.743, 222.517 143.967 L 214.120 160.738 208.810 159.330 C 193.630 155.303, 176.456 164.076, 169.329 179.500 C 167.026 184.484, 166.558 186.854, 166.565 193.500 C 166.577 204.085, 170.001 211.972, 177.598 218.915 L 182.885 223.748 174.338 241.096 C 168.004 253.951, 166.040 258.840, 166.754 259.972 C 167.588 261.293, 172.285 261.500, 201.500 261.500 C 232.586 261.500, 235.370 261.360, 236.386 259.750 C 237.191 258.474, 237.191 257.526, 236.386 256.250 C 235.382 254.658, 232.613 254.476, 205.654 254.235 L 176.024 253.970 182.733 240.509 L 189.442 227.047 193.471 227.774 C 208.274 230.443, 222.062 225.037, 230.045 213.434 C 234.401 207.103, 236.099 201.499, 236.106 193.436 C 236.113 183.506, 233.191 176.187, 226.432 169.209 L 221.124 163.729 229.062 147.876 C 237.139 131.747, 237.927 129.327, 235.800 127.200 C 234.516 125.916, 234.212 125.872, 232.207 126.677 M 279.239 143.260 C 269.758 152.754, 262 161.288, 262 162.225 C 262 163.163, 262.959 164.443, 264.131 165.070 C 266.073 166.110, 267.495 164.981, 280.131 152.369 L 294 138.527 294 199.228 C 294 259.533, 294.013 259.937, 296.064 261.034 C 301.059 263.708, 301 264.453, 301 199.174 L 301 138.592 314.830 152.296 C 322.437 159.833, 329.132 166, 329.708 166 C 331.297 166, 333.208 163.291, 332.833 161.570 C 332.418 159.665, 299.028 126, 297.554 126 C 296.963 126, 288.721 133.767, 279.239 143.260 M 191.385 167.617 C 185.552 169.686, 179.605 175.144, 176.588 181.199 C 173.330 187.738, 173.016 198.237, 175.890 204.565 C 177.991 209.190, 183.633 216, 185.363 216 C 185.999 216, 192.003 205.021, 198.706 191.603 C 210.277 168.436, 210.781 167.175, 208.696 166.616 C 204.831 165.580, 195.630 166.112, 191.385 167.617 M 205.251 195.485 C 195.515 214.977, 193.400 219.939, 194.629 220.411 C 195.473 220.735, 198.755 221, 201.922 221 C 206.355 221, 209.102 220.290, 213.854 217.915 C 222.775 213.457, 227.827 206.039, 228.721 196.088 C 229.333 189.264, 227.987 183.948, 224.092 177.806 C 218.334 168.726, 218.866 168.227, 205.251 195.485 " stroke="none" fill="black" fill-rule="evenodd"/>
</svg>