<svg xmlns="http://www.w3.org/2000/svg" width="308" height="324" viewBox="0 0 308 324" version="1.1">
	<path d="M 39.571 127.571 C 38.288 128.855, 38 131.788, 38 143.571 L 38 158 23.571 158 C 11.788 158, 8.855 158.288, 7.571 159.571 C 5.598 161.545, 5.598 162.455, 7.571 164.429 C 8.820 165.677, 11.534 166, 20.774 166 L 32.405 166 19.202 179.333 C 11.941 186.666, 6 193.159, 6 193.761 C 6 195.178, 8.822 198, 10.239 198 C 10.841 198, 17.334 192.059, 24.667 184.798 L 38 171.595 38 196.798 L 38 222 23.571 222 C 11.788 222, 8.855 222.288, 7.571 223.571 C 6.707 224.436, 6 225.529, 6 226 C 6 226.471, 6.707 227.564, 7.571 228.429 C 8.855 229.712, 11.788 230, 23.571 230 L 38 230 38 244.429 C 38 256.212, 38.288 259.145, 39.571 260.429 C 40.436 261.293, 41.529 262, 42 262 C 42.471 262, 43.564 261.293, 44.429 260.429 C 45.712 259.145, 46 256.212, 46 244.429 L 46 230 74 230 L 102 230 102 244.965 C 102 259.324, 102.088 259.977, 104.183 261.098 C 106.042 262.093, 106.636 261.933, 108.183 260.022 C 109.744 258.095, 110 255.823, 110 243.916 L 110 230.053 124.643 229.777 C 137.314 229.537, 139.433 229.264, 140.387 227.750 C 141.191 226.475, 141.191 225.525, 140.387 224.250 C 139.433 222.736, 137.314 222.463, 124.643 222.223 L 110 221.947 110 196.771 L 110 171.595 123.333 184.798 C 130.666 192.059, 137.101 198, 137.633 198 C 139.202 198, 141 195.741, 141 193.769 C 141 192.761, 135.324 186.116, 128.387 179.001 L 115.775 166.065 127.531 165.783 C 137.445 165.544, 139.459 165.226, 140.388 163.750 C 141.190 162.476, 141.190 161.524, 140.387 160.250 C 139.433 158.736, 137.314 158.463, 124.643 158.223 L 110 157.947 110 144.084 C 110 132.177, 109.744 129.905, 108.183 127.978 C 106.636 126.067, 106.042 125.907, 104.183 126.902 C 102.123 128.005, 102 128.754, 102 140.237 L 102 152.405 88.667 139.202 C 81.334 131.941, 74.703 126, 73.930 126 C 73.158 126, 66.558 131.956, 59.263 139.236 L 46 152.472 46 140.808 C 46 131.537, 45.678 128.820, 44.429 127.571 C 43.564 126.707, 42.471 126, 42 126 C 41.529 126, 40.436 126.707, 39.571 127.571 M 62.500 147 L 51.534 158 74 158 L 96.466 158 85.500 147 C 79.469 140.950, 74.294 136, 74 136 C 73.706 136, 68.531 140.950, 62.500 147 M 263.040 159.452 C 260.392 162.642, 264.299 167.657, 267.416 165.070 C 269.297 163.508, 269.470 160.870, 267.800 159.200 C 266.197 157.597, 264.505 157.686, 263.040 159.452 M 46 194 L 46 222 74 222 L 102 222 102 194 L 102 166 74 166 L 46 166 46 194 M 179.500 191.207 C 174.572 192.929, 170.335 196.677, 168.102 201.289 C 165.334 207.007, 165.339 211.576, 168.117 213.062 C 170.806 214.502, 172.225 213.082, 173.855 207.324 C 176.117 199.328, 183.861 195.808, 191.033 199.517 C 194.435 201.276, 197.366 206.311, 196.775 209.378 C 196.550 210.545, 189.533 221.730, 181.183 234.234 C 172.832 246.737, 166 257.595, 166 258.361 C 166 261.608, 168.598 262.051, 186.024 261.774 C 201.193 261.533, 203.418 261.288, 204.387 259.750 C 205.190 258.476, 205.190 257.524, 204.389 256.250 C 203.460 254.774, 201.232 254.422, 190.148 254 L 177.007 253.500 191.118 232.311 L 205.229 211.123 203.987 205.946 C 201.870 197.121, 192.849 189.778, 184.500 190.085 C 183.400 190.125, 181.150 190.630, 179.500 191.207 M 231.213 191.187 C 229.601 192.799, 229.675 195.485, 231.369 196.891 C 232.345 197.701, 242.290 197.952, 266.010 197.764 C 296.441 197.523, 299.377 197.351, 300.386 195.750 C 301.191 194.474, 301.191 193.526, 300.386 192.250 C 299.377 190.649, 296.434 190.478, 265.854 190.237 C 240.691 190.039, 232.126 190.274, 231.213 191.187 M 263.040 223.452 C 260.392 226.642, 264.299 231.657, 267.416 229.070 C 269.297 227.508, 269.470 224.870, 267.800 223.200 C 266.197 221.597, 264.505 221.686, 263.040 223.452 " stroke="none" fill="black" fill-rule="evenodd"/>
</svg>