<svg xmlns="http://www.w3.org/2000/svg" width="372" height="324" viewBox="0 0 372 324" version="1.1">
	<path d="M 63.870 127.014 C 48.636 129.407, 37.616 135.194, 25.974 146.916 C 12.475 160.507, 6.696 174.473, 6.696 193.500 C 6.696 205.257, 8.549 213.240, 13.778 224 C 18.922 234.587, 32.441 248.092, 43 253.193 C 53.909 258.463, 61.807 260.304, 73.500 260.304 C 92.834 260.304, 106.527 254.551, 120.539 240.539 C 134.551 226.527, 140.304 212.834, 140.304 193.500 C 140.304 174.166, 134.551 160.473, 120.539 146.461 C 110.721 136.644, 102.174 131.566, 90.500 128.618 C 82.592 126.621, 70.868 125.914, 63.870 127.014 M 295.250 126.662 C 293.097 127.531, 293.875 130.819, 297.293 135.297 C 303.709 143.703, 305.492 149.289, 305.496 161 C 305.500 170.715, 305.266 171.986, 302.371 178 C 300.651 181.575, 296.697 187.650, 293.585 191.500 C 286.518 200.242, 283.416 206.489, 281.443 215.949 C 278.404 230.527, 282.630 245.944, 292.732 257.125 C 296.618 261.426, 300.462 262.272, 301.484 259.049 C 301.924 257.665, 300.848 255.557, 297.777 251.787 C 291.494 244.073, 288.756 237.092, 288.217 227.409 C 287.491 214.387, 290.146 207.796, 302.746 191.348 C 308.803 183.442, 311.607 176.753, 313.094 166.661 C 314.910 154.348, 310.666 139.811, 302.456 130.220 C 298.955 126.129, 297.883 125.600, 295.250 126.662 M 58.645 135.584 C 38.562 140.445, 20.305 158.877, 15.537 179.103 C 13.610 187.282, 13.610 199.718, 15.537 207.897 C 20.338 228.261, 38.739 246.662, 59.103 251.463 C 79.742 256.328, 100.600 250.431, 115.516 235.516 C 134.200 216.831, 138.470 189.002, 126.243 165.603 C 118.839 151.435, 103.149 139.133, 87.897 135.537 C 79.998 133.676, 66.439 133.697, 58.645 135.584 M 247.282 175.282 C 237.777 184.787, 230 193.210, 230 194 C 230 195.693, 264.031 230, 265.710 230 C 267.173 230, 270 227.200, 270 225.751 C 270 225.143, 263.156 217.750, 254.792 209.323 L 239.584 194 254.792 178.677 C 263.156 170.250, 270 162.857, 270 162.249 C 270 160.800, 267.173 158, 265.710 158 C 265.079 158, 256.787 165.777, 247.282 175.282 M 327.571 159.571 C 326.707 160.436, 326 161.640, 326 162.249 C 326 162.857, 332.844 170.250, 341.208 178.677 L 356.416 194 341.208 209.323 C 332.844 217.750, 326 225.143, 326 225.751 C 326 227.200, 328.827 230, 330.290 230 C 331.969 230, 366 195.693, 366 194 C 366 192.307, 331.969 158, 330.290 158 C 329.659 158, 328.436 158.707, 327.571 159.571 M 180.648 190.983 C 173.384 193.272, 167.912 199.505, 166.503 207.096 C 165.855 210.586, 167.585 214, 170 214 C 171.861 214, 174 210.700, 174 207.829 C 174 205.718, 175.030 203.770, 177.400 201.400 C 180.302 198.498, 181.488 198, 185.500 198 C 189.512 198, 190.698 198.498, 193.600 201.400 C 199.296 207.096, 198.903 208.183, 181.941 233.589 C 173.658 245.994, 166.657 256.729, 166.383 257.443 C 166.109 258.158, 166.618 259.475, 167.514 260.371 C 169.895 262.753, 202.054 262.803, 204.429 260.429 C 206.402 258.455, 206.402 257.545, 204.429 255.571 C 203.162 254.305, 200.348 254, 189.926 254 L 176.995 254 191.477 232.250 L 205.960 210.500 204.402 206 C 203.546 203.525, 202.002 200.133, 200.972 198.462 C 197.421 192.702, 187.168 188.929, 180.648 190.983 " stroke="none" fill="black" fill-rule="evenodd"/>
</svg>