<svg xmlns="http://www.w3.org/2000/svg" width="436" height="324" viewBox="0 0 436 324" version="1.1">
	<path d="M 71.240 191.268 C 35.358 227.165, 6 257.058, 6 257.696 C 6 259.196, 8.803 262, 10.302 262 C 10.940 262, 39.033 234.442, 72.731 200.761 L 134 139.522 134 164.761 L 134 190 119.934 190 C 112.151 190, 105.005 190.462, 103.934 191.035 C 102.080 192.027, 102 193.478, 102 226 C 102 258.522, 102.080 259.973, 103.934 260.965 C 105.154 261.617, 117.876 262, 138.363 262 C 166.570 262, 171.064 261.793, 172.429 260.429 C 173.793 259.064, 174 254.537, 174 226 C 174 197.463, 173.793 192.936, 172.429 191.571 C 171.145 190.288, 168.212 190, 156.429 190 L 142 190 142 159.571 C 142 133.242, 141.788 128.931, 140.429 127.571 C 139.564 126.707, 138.322 126, 137.668 126 C 137.014 126, 107.121 155.371, 71.240 191.268 M 349.500 127.436 C 335.144 130.263, 324.166 136.091, 313.959 146.303 C 306.152 154.114, 300.841 162.791, 297.314 173.500 C 295.058 180.349, 294.678 183.226, 294.678 193.500 C 294.678 203.755, 295.060 206.664, 297.304 213.500 C 301.725 226.973, 308.689 237.001, 319.837 245.947 C 332.147 255.827, 345.237 260.342, 361.500 260.319 C 379.884 260.292, 394.916 254.066, 408.095 241.019 C 421.576 227.674, 428 212.368, 428 193.597 C 428 181.309, 426.359 174.316, 420.824 163.012 C 413.049 147.134, 395.732 133.066, 378.500 128.627 C 369.577 126.329, 357.614 125.837, 349.500 127.436 M 345.500 135.893 C 334.823 139.009, 327.044 143.699, 318.993 151.876 C 307.129 163.924, 302 176.487, 302 193.500 C 302 210.512, 307.128 223.074, 318.993 235.125 C 330.948 247.268, 344.493 252.954, 361.540 252.985 C 381.620 253.022, 399.542 243.439, 410.761 226.665 C 417.900 215.991, 420.500 207.138, 420.500 193.500 C 420.500 179.862, 417.900 171.009, 410.761 160.335 C 402.403 147.838, 390.206 139.243, 375.540 135.515 C 367.580 133.492, 353.106 133.674, 345.500 135.893 M 215.315 175.213 C 205.792 184.680, 198 193.134, 198 194 C 198 195.680, 231.953 230, 233.615 230 C 235.261 230, 237 227.720, 237 225.562 C 237 224.272, 231.595 218.111, 222.263 208.762 L 207.525 194 222.263 179.238 C 231.595 169.889, 237 163.728, 237 162.438 C 237 160.280, 235.261 158, 233.615 158 C 233.073 158, 224.838 165.746, 215.315 175.213 M 247.315 175.213 C 237.792 184.680, 230 193.134, 230 194 C 230 195.680, 263.953 230, 265.615 230 C 267.243 230, 269 227.729, 269 225.625 C 269 224.420, 263.267 217.871, 254.293 208.825 L 239.586 194 254.293 179.175 C 263.267 170.129, 269 163.580, 269 162.375 C 269 160.271, 267.243 158, 265.615 158 C 265.073 158, 256.838 165.746, 247.315 175.213 M 110 226 L 110 254 138 254 L 166 254 166 226 L 166 198 138 198 L 110 198 110 226 " stroke="none" fill="black" fill-rule="evenodd"/>
</svg>