<svg xmlns="http://www.w3.org/2000/svg" width="276" height="324" viewBox="0 0 276 324" version="1.1">
	<path d="M 167.821 127.358 C 167.095 128.105, 162.949 135.905, 158.608 144.691 L 150.716 160.667 144.608 159.231 C 130.219 155.848, 113.974 163.355, 106.781 176.712 C 98.963 191.227, 101.975 208.499, 114.250 219.535 L 119.075 223.873 110.537 240.925 C 105.842 250.304, 102 258.176, 102 258.417 C 102 258.659, 102.707 259.564, 103.571 260.429 C 104.936 261.793, 109.463 262, 138 262 C 166.537 262, 171.064 261.793, 172.429 260.429 C 173.293 259.564, 174 258.471, 174 258 C 174 257.529, 173.293 256.436, 172.429 255.571 C 171.071 254.214, 166.848 254, 141.421 254 L 111.986 254 118.606 240.750 C 122.248 233.463, 125.357 227.356, 125.516 227.181 C 125.675 227.005, 128.483 227.388, 131.756 228.032 C 142.659 230.177, 155.111 225.943, 162.967 217.420 C 176.351 202.900, 175.628 181.129, 161.323 167.944 L 157.006 163.965 165.503 146.994 C 170.176 137.659, 174 129.824, 174 129.583 C 174 128.794, 170.880 126, 170 126 C 169.529 126, 168.548 126.611, 167.821 127.358 M 215.213 143.315 C 205.746 152.838, 198 161.131, 198 161.743 C 198 163.175, 200.813 166, 202.239 166 C 202.841 166, 209.334 160.059, 216.667 152.798 L 230 139.595 230 199.226 C 230 252.103, 230.178 259.035, 231.571 260.429 C 232.436 261.293, 233.529 262, 234 262 C 234.471 262, 235.564 261.293, 236.429 260.429 C 237.822 259.035, 238 252.103, 238 199.226 L 238 139.595 251.333 152.798 C 258.666 160.059, 265.159 166, 265.761 166 C 267.187 166, 270 163.175, 270 161.743 C 270 159.994, 235.761 126, 234 126 C 233.134 126, 224.680 133.792, 215.213 143.315 M 33.384 159.412 C 15.475 163.758, 3.559 181.807, 6.987 199.396 C 8.500 207.161, 12.212 214.019, 17.580 218.967 C 38.277 238.045, 70.591 227.221, 76.013 199.396 C 79.488 181.565, 67.484 163.676, 49.147 159.360 C 42.397 157.772, 40.111 157.779, 33.384 159.412 M 31.054 167.728 C 25.018 169.859, 17.781 177.260, 15.667 183.463 C 11.995 194.241, 14.382 205.477, 21.952 213.048 C 32.673 223.769, 50.327 223.769, 61.048 213.048 C 71.769 202.327, 71.769 184.673, 61.048 173.952 C 53.519 166.424, 41.696 163.970, 31.054 167.728 M 127.054 167.677 C 121.005 169.881, 113.763 177.312, 111.667 183.463 C 108.048 194.084, 110.346 205.217, 117.737 212.875 L 122.200 217.500 134.658 192.642 C 141.510 178.969, 146.835 167.502, 146.491 167.158 C 145.066 165.732, 131.386 166.098, 127.054 167.677 M 141.288 195.411 C 127.853 222.307, 128.051 221, 137.404 221 C 161.184 221, 173.872 193.230, 158.368 175.117 C 156.430 172.852, 154.537 171, 154.163 171 C 153.788 171, 147.994 181.985, 141.288 195.411 M 7.571 255.571 C 6.707 256.436, 6 257.529, 6 258 C 6 258.471, 6.707 259.564, 7.571 260.429 C 8.936 261.793, 13.463 262, 42 262 C 70.537 262, 75.064 261.793, 76.429 260.429 C 77.293 259.564, 78 258.471, 78 258 C 78 257.529, 77.293 256.436, 76.429 255.571 C 75.064 254.207, 70.537 254, 42 254 C 13.463 254, 8.936 254.207, 7.571 255.571 " stroke="none" fill="black" fill-rule="evenodd"/>
</svg>