<svg xmlns="http://www.w3.org/2000/svg" width="276" height="324" viewBox="0 0 276 324" version="1.1">
	<path d="M 33.384 63.412 C 15.475 67.758, 3.559 85.807, 6.987 103.396 C 9.770 117.681, 21.103 129.554, 33.908 131.601 L 38 132.256 38 193.128 L 38 254 23.571 254 C 11.788 254, 8.855 254.288, 7.571 255.571 C 5.598 257.545, 5.598 258.455, 7.571 260.429 C 8.936 261.793, 13.463 262, 42 262 C 70.537 262, 75.064 261.793, 76.429 260.429 C 78.402 258.455, 78.402 257.545, 76.429 255.571 C 75.145 254.288, 72.212 254, 60.429 254 L 46 254 46 193.111 L 46 132.223 49.703 131.528 C 58.178 129.938, 67.709 122.644, 72.232 114.288 C 83.343 93.761, 72.001 68.740, 49.147 63.360 C 42.397 61.772, 40.111 61.779, 33.384 63.412 M 119.571 63.571 C 118.707 64.436, 118 65.332, 118 65.564 C 118 67.123, 135.710 101.058, 136.727 101.449 C 137.427 101.717, 138.573 101.717, 139.273 101.449 C 141.129 100.736, 158.063 66.328, 157.403 64.609 C 156.732 62.858, 154.483 61.877, 152.705 62.560 C 151.993 62.833, 148.520 68.894, 144.986 76.028 C 141.453 83.163, 138.308 89, 137.997 89 C 137.687 89, 134.748 83.534, 131.467 76.853 C 123.925 61.499, 122.847 60.296, 119.571 63.571 M 31.054 71.728 C 25.018 73.859, 17.781 81.260, 15.667 87.463 C 9.198 106.450, 21.964 125, 41.500 125 C 57.108 125, 69 113.108, 69 97.500 C 69 81.670, 56.965 69.854, 41.072 70.079 C 38.007 70.122, 33.499 70.864, 31.054 71.728 M 167.821 127.358 C 167.095 128.105, 162.949 135.905, 158.608 144.691 L 150.716 160.667 144.608 159.231 C 130.219 155.848, 113.974 163.355, 106.781 176.712 C 98.963 191.227, 101.975 208.499, 114.250 219.535 L 119.075 223.873 110.537 240.925 C 105.842 250.304, 102 258.176, 102 258.417 C 102 258.659, 102.707 259.564, 103.571 260.429 C 104.936 261.793, 109.463 262, 138 262 C 166.537 262, 171.064 261.793, 172.429 260.429 C 173.293 259.564, 174 258.471, 174 258 C 174 257.529, 173.293 256.436, 172.429 255.571 C 171.071 254.214, 166.848 254, 141.421 254 L 111.986 254 118.606 240.750 C 122.248 233.463, 125.357 227.356, 125.516 227.181 C 125.675 227.005, 128.483 227.388, 131.756 228.032 C 142.659 230.177, 155.111 225.943, 162.967 217.420 C 176.351 202.900, 175.628 181.129, 161.323 167.944 L 157.006 163.965 165.503 146.994 C 170.176 137.659, 174 129.824, 174 129.583 C 174 128.794, 170.880 126, 170 126 C 169.529 126, 168.548 126.611, 167.821 127.358 M 215.213 143.315 C 205.746 152.838, 198 161.131, 198 161.743 C 198 163.175, 200.813 166, 202.239 166 C 202.841 166, 209.334 160.059, 216.667 152.798 L 230 139.595 230 199.226 C 230 252.103, 230.178 259.035, 231.571 260.429 C 232.436 261.293, 233.529 262, 234 262 C 234.471 262, 235.564 261.293, 236.429 260.429 C 237.822 259.035, 238 252.103, 238 199.226 L 238 139.595 251.333 152.798 C 258.666 160.059, 265.159 166, 265.761 166 C 267.187 166, 270 163.175, 270 161.743 C 270 159.994, 235.761 126, 234 126 C 233.134 126, 224.680 133.792, 215.213 143.315 M 127.054 167.677 C 121.005 169.881, 113.763 177.312, 111.667 183.463 C 108.048 194.084, 110.346 205.217, 117.737 212.875 L 122.200 217.500 134.658 192.642 C 141.510 178.969, 146.835 167.502, 146.491 167.158 C 145.066 165.732, 131.386 166.098, 127.054 167.677 M 141.288 195.411 C 127.853 222.307, 128.051 221, 137.404 221 C 161.184 221, 173.872 193.230, 158.368 175.117 C 156.430 172.852, 154.537 171, 154.163 171 C 153.788 171, 147.994 181.985, 141.288 195.411 " stroke="none" fill="black" fill-rule="evenodd"/>
</svg>