<svg xmlns="http://www.w3.org/2000/svg" width="244" height="324" viewBox="0 0 244 324" version="1.1">
	<path d="M 40.316 62.784 C 38.369 64.022, 22.007 97.855, 22.604 99.410 C 23.269 101.144, 25.524 102.120, 27.295 101.440 C 28.007 101.167, 31.480 95.106, 35.014 87.972 C 38.547 80.837, 41.691 75, 42 75 C 42.309 75, 45.453 80.837, 48.986 87.972 C 52.520 95.106, 55.993 101.167, 56.705 101.440 C 58.487 102.124, 60.732 101.141, 61.407 99.381 C 61.997 97.844, 45.582 64.037, 43.628 62.765 C 42.214 61.845, 41.789 61.847, 40.316 62.784 M 39.571 127.571 C 38.178 128.965, 38 135.897, 38 188.774 L 38 248.405 24.667 235.202 C 17.334 227.941, 10.841 222, 10.239 222 C 8.813 222, 6 224.825, 6 226.257 C 6 228.006, 40.239 262, 42 262 C 43.761 262, 78 228.006, 78 226.257 C 78 224.825, 75.187 222, 73.761 222 C 73.159 222, 66.666 227.941, 59.333 235.202 L 46 248.405 46 188.774 C 46 135.897, 45.822 128.965, 44.429 127.571 C 43.564 126.707, 42.471 126, 42 126 C 41.529 126, 40.436 126.707, 39.571 127.571 M 162.344 158.988 C 156.246 160.273, 150.310 163.602, 144.573 168.954 C 139.742 173.462, 139.101 173.742, 131.116 174.838 C 120.633 176.277, 110.230 181.092, 104.154 187.318 C 100.351 191.215, 99.949 192.036, 100.939 193.886 C 102.506 196.814, 104.159 196.545, 108.894 192.589 C 116.683 186.081, 126.051 182, 133.201 182 C 135.816 182, 135.978 182.215, 135.269 184.750 C 134.846 186.262, 134.530 190.650, 134.568 194.500 C 134.697 207.849, 142.817 219.822, 155.762 225.749 C 163.328 229.212, 173.861 229.359, 182.188 226.117 C 187.657 223.988, 195.772 217.331, 199.056 212.279 C 200.174 210.559, 202.079 209.817, 207.500 208.987 C 219.791 207.105, 236.518 197.504, 235.805 192.740 C 235.178 188.551, 232.558 188.409, 227.803 192.305 C 222.505 196.646, 214.085 200.655, 208.350 201.565 L 204.201 202.224 203.850 192.862 C 203.421 181.408, 201.067 175.909, 193.353 168.339 C 185.358 160.494, 172.950 156.752, 162.344 158.988 M 159.885 167.380 C 156.077 168.741, 151.121 171.944, 149.149 174.320 C 148.183 175.484, 148.787 175.961, 152.569 177.019 C 158.539 178.691, 167.656 184.623, 172.034 189.684 C 173.940 191.888, 177.300 194.854, 179.500 196.275 C 183.883 199.105, 194.748 202.587, 195.824 201.507 C 196.196 201.133, 196.496 197.379, 196.490 193.164 C 196.481 186.544, 196.073 184.759, 193.490 180.061 C 190.428 174.490, 184.660 169.529, 178.684 167.326 C 174.419 165.754, 164.355 165.782, 159.885 167.380 M 142.950 184.632 C 141.341 188.864, 141.860 200.096, 143.867 204.500 C 148.367 214.370, 156.361 220.007, 166.933 220.763 C 170.773 221.038, 175.231 220.749, 177.205 220.097 C 182.035 218.503, 189.641 213.540, 190.922 211.145 C 191.885 209.346, 191.486 208.992, 186.743 207.441 C 178.035 204.592, 174.125 202.171, 167.263 195.376 C 160.649 188.826, 154.670 185.099, 147.700 183.180 C 144.131 182.197, 143.842 182.286, 142.950 184.632 M 135.585 255.558 C 134.713 256.430, 134 257.529, 134 258 C 134 258.471, 134.713 259.570, 135.585 260.442 C 136.978 261.835, 141.159 261.995, 170.226 261.763 C 200.452 261.523, 203.377 261.350, 204.386 259.750 C 205.191 258.474, 205.191 257.526, 204.386 256.250 C 203.377 254.650, 200.452 254.477, 170.226 254.237 C 141.159 254.005, 136.978 254.165, 135.585 255.558 " stroke="none" fill="black" fill-rule="evenodd"/>
</svg>