<svg xmlns="http://www.w3.org/2000/svg" width="180" height="324" viewBox="0 0 180 324" version="1.1">
	<path d="M 40.316 62.784 C 38.369 64.022, 22.007 97.855, 22.604 99.410 C 23.269 101.144, 25.524 102.120, 27.295 101.440 C 28.007 101.167, 31.480 95.106, 35.014 87.972 C 38.547 80.837, 41.691 75, 42 75 C 42.309 75, 45.453 80.837, 48.986 87.972 C 52.520 95.106, 55.993 101.167, 56.705 101.440 C 58.476 102.120, 60.731 101.144, 61.396 99.410 C 61.993 97.855, 45.631 64.022, 43.684 62.784 C 42.206 61.844, 41.794 61.844, 40.316 62.784 M 167.571 127.571 C 166.178 128.965, 166 135.899, 166 188.799 L 166 248.455 136.711 219.227 C 120.602 203.152, 106.909 190, 106.282 190 C 104.799 190, 102 192.814, 102 194.305 C 102 195.823, 168.177 262, 169.695 262 C 170.334 262, 171.564 261.293, 172.429 260.429 C 173.825 259.032, 174 251.628, 174 194 C 174 136.372, 173.825 128.968, 172.429 127.571 C 171.564 126.707, 170.471 126, 170 126 C 169.529 126, 168.436 126.707, 167.571 127.571 M 7.571 159.571 C 6.207 160.936, 6 165.463, 6 194 C 6 222.537, 6.207 227.064, 7.571 228.429 C 8.936 229.793, 13.463 230, 42 230 C 70.537 230, 75.064 229.793, 76.429 228.429 C 77.793 227.064, 78 222.537, 78 194 C 78 165.463, 77.793 160.936, 76.429 159.571 C 75.064 158.207, 70.537 158, 42 158 C 13.463 158, 8.936 158.207, 7.571 159.571 M 14 194 L 14 222 42 222 L 70 222 70 194 L 70 166 42 166 L 14 166 14 194 " stroke="none" fill="black" fill-rule="evenodd"/>
</svg>