<svg xmlns="http://www.w3.org/2000/svg" width="468" height="324" viewBox="0 0 468 324" version="1.1">
	<path d="M 39.571 127.571 C 38.288 128.855, 38 131.788, 38 143.571 L 38 158 23.571 158 C 11.788 158, 8.855 158.288, 7.571 159.571 C 5.598 161.545, 5.598 162.455, 7.571 164.429 C 8.820 165.677, 11.534 166, 20.774 166 L 32.405 166 19.202 179.333 C 11.941 186.666, 6 193.159, 6 193.761 C 6 195.178, 8.822 198, 10.239 198 C 10.841 198, 17.334 192.059, 24.667 184.798 L 38 171.595 38 196.798 L 38 222 23.571 222 C 11.788 222, 8.855 222.288, 7.571 223.571 C 6.707 224.436, 6 225.529, 6 226 C 6 226.471, 6.707 227.564, 7.571 228.429 C 8.855 229.712, 11.788 230, 23.571 230 L 38 230 38 244.429 C 38 256.212, 38.288 259.145, 39.571 260.429 C 40.436 261.293, 41.529 262, 42 262 C 42.471 262, 43.564 261.293, 44.429 260.429 C 45.712 259.145, 46 256.212, 46 244.429 L 46 230 74 230 L 102 230 102 244.429 C 102 256.212, 102.288 259.145, 103.571 260.429 C 105.545 262.402, 106.455 262.402, 108.429 260.429 C 109.712 259.145, 110 256.212, 110 244.429 L 110 230 124.429 230 C 136.212 230, 139.145 229.712, 140.429 228.429 C 142.402 226.455, 142.402 225.545, 140.429 223.571 C 139.145 222.288, 136.212 222, 124.429 222 L 110 222 110 196.798 L 110 171.595 123.333 184.798 C 130.666 192.059, 137.159 198, 137.761 198 C 139.178 198, 142 195.178, 142 193.761 C 142 193.159, 136.059 186.666, 128.798 179.333 L 115.595 166 127.226 166 C 136.466 166, 139.180 165.677, 140.429 164.429 C 142.402 162.455, 142.402 161.545, 140.429 159.571 C 139.145 158.288, 136.212 158, 124.429 158 L 110 158 110 143.571 C 110 131.788, 109.712 128.855, 108.429 127.571 C 106.455 125.598, 105.545 125.598, 103.571 127.571 C 102.322 128.820, 102 131.537, 102 140.808 L 102 152.472 88.737 139.236 C 81.442 131.956, 74.810 126, 74 126 C 73.190 126, 66.558 131.956, 59.263 139.236 L 46 152.472 46 140.808 C 46 131.537, 45.678 128.820, 44.429 127.571 C 43.564 126.707, 42.471 126, 42 126 C 41.529 126, 40.436 126.707, 39.571 127.571 M 231.571 127.571 C 230.212 128.931, 230 133.242, 230 159.571 L 230 190 199.571 190 C 173.242 190, 168.931 190.212, 167.571 191.571 C 165.598 193.545, 165.598 194.455, 167.571 196.429 C 168.931 197.788, 173.242 198, 199.571 198 L 230 198 230 228.429 C 230 254.758, 230.212 259.069, 231.571 260.429 C 232.436 261.293, 233.529 262, 234 262 C 234.471 262, 235.564 261.293, 236.429 260.429 C 237.788 259.069, 238 254.758, 238 228.429 L 238 198 263.202 198 L 288.405 198 275.202 211.333 C 267.941 218.666, 262 225.159, 262 225.761 C 262 227.187, 264.825 230, 266.257 230 C 268.006 230, 302 195.761, 302 194 C 302 192.239, 268.006 158, 266.257 158 C 264.825 158, 262 160.813, 262 162.239 C 262 162.841, 267.941 169.334, 275.202 176.667 L 288.405 190 263.202 190 L 238 190 238 159.571 C 238 133.242, 237.788 128.931, 236.429 127.571 C 235.564 126.707, 234.471 126, 234 126 C 233.529 126, 232.436 126.707, 231.571 127.571 M 62.500 147 L 51.534 158 74 158 L 96.466 158 85.500 147 C 79.469 140.950, 74.294 136, 74 136 C 73.706 136, 68.531 140.950, 62.500 147 M 46 194 L 46 222 74 222 L 102 222 102 194 L 102 166 74 166 L 46 166 46 194 M 351.500 175.106 C 344.127 176.578, 332.954 182.452, 328.081 187.418 C 324.344 191.225, 323.950 192.037, 324.939 193.886 C 326.553 196.901, 328.686 196.517, 333.255 192.388 C 335.454 190.402, 340.234 187.364, 343.877 185.638 C 349.999 182.737, 351.298 182.500, 361.052 182.500 C 371.247 182.500, 371.862 182.628, 379.265 186.286 C 384.530 188.889, 388.054 191.450, 390.537 194.479 C 402.697 209.320, 426.916 213.870, 445.793 204.860 C 453.362 201.248, 461.345 194.064, 460.433 191.685 C 459.201 188.476, 456.172 188.725, 451.681 192.406 C 449.304 194.353, 444.692 197.195, 441.430 198.723 C 436.127 201.206, 434.389 201.500, 425 201.500 C 415.594 201.500, 413.878 201.209, 408.528 198.704 C 404.853 196.983, 399.853 193.290, 395.528 189.102 C 391.663 185.360, 386.964 181.506, 385.087 180.539 C 375.052 175.368, 361.317 173.147, 351.500 175.106 " stroke="none" fill="black" fill-rule="evenodd"/>
</svg>