<svg xmlns="http://www.w3.org/2000/svg" width="308" height="324" viewBox="0 0 308 324" version="1.1">
	<path d="M 71.550 62.918 C 67.869 68.875, 54.190 98.331, 54.604 99.410 C 55.269 101.144, 57.524 102.120, 59.295 101.440 C 60.007 101.167, 63.480 95.106, 67.014 87.972 C 70.547 80.837, 73.691 75, 74 75 C 74.309 75, 77.453 80.837, 80.986 87.972 C 84.520 95.106, 88.050 101.189, 88.832 101.489 C 90.716 102.212, 93 100.227, 93 97.866 C 93 95.626, 77.264 63.831, 75.628 62.765 C 74.071 61.751, 72.229 61.820, 71.550 62.918 M 71.571 127.571 C 70.212 128.931, 70 133.242, 70 159.571 L 70 190 39.571 190 C 13.242 190, 8.931 190.212, 7.571 191.571 C 5.598 193.545, 5.598 194.455, 7.571 196.429 C 8.931 197.788, 13.242 198, 39.571 198 L 70 198 70 228.429 C 70 254.758, 70.212 259.069, 71.571 260.429 C 72.436 261.293, 73.529 262, 74 262 C 74.471 262, 75.564 261.293, 76.429 260.429 C 77.788 259.069, 78 254.758, 78 228.429 L 78 198 103.202 198 L 128.405 198 115.202 211.333 C 107.941 218.666, 102 225.159, 102 225.761 C 102 227.200, 104.997 230.172, 106.068 229.795 C 107.353 229.342, 142 194.827, 142 194 C 142 193.173, 107.353 158.658, 106.068 158.205 C 104.997 157.828, 102 160.800, 102 162.239 C 102 162.841, 107.941 169.334, 115.202 176.667 L 128.405 190 103.202 190 L 78 190 78 159.571 C 78 133.242, 77.788 128.931, 76.429 127.571 C 75.564 126.707, 74.471 126, 74 126 C 73.529 126, 72.436 126.707, 71.571 127.571 M 190.263 175.461 C 182.652 177.179, 173.479 181.942, 167.949 187.047 C 163.664 191.003, 163.155 193.439, 166.214 195.365 C 167.555 196.209, 168.535 195.956, 170.714 194.204 C 179.084 187.474, 182.001 185.754, 188.269 183.850 C 198.354 180.786, 209.530 181.504, 218.155 185.770 C 224.112 188.716, 225.998 190.217, 233.500 197.977 C 235.150 199.684, 239.650 202.631, 243.500 204.527 C 260.371 212.833, 279.014 210.780, 294.778 198.878 C 300.393 194.639, 301.305 191.835, 297.786 189.630 C 296.449 188.792, 295.460 189.046, 293.286 190.788 C 282.054 199.789, 274.870 202.389, 263 201.750 C 250.834 201.094, 244.456 198.379, 236.708 190.559 C 233.294 187.113, 228.623 183.119, 226.329 181.684 C 216.467 175.515, 201.481 172.929, 190.263 175.461 " stroke="none" fill="black" fill-rule="evenodd"/>
</svg>