<svg xmlns="http://www.w3.org/2000/svg" width="212" height="324" viewBox="0 0 212 324" version="1.1">
	<path d="M 104.372 62.765 C 102.736 63.831, 87 95.626, 87 97.866 C 87 100.227, 89.284 102.212, 91.168 101.489 C 91.950 101.189, 95.480 95.106, 99.014 87.972 C 102.547 80.837, 105.692 75, 106.003 75 C 106.313 75, 109.252 80.432, 112.533 87.070 C 115.815 93.709, 119.222 99.795, 120.105 100.594 C 121.890 102.210, 124.550 101.615, 125.396 99.410 C 125.993 97.855, 109.631 64.022, 107.684 62.784 C 106.211 61.847, 105.786 61.845, 104.372 62.765 M 23.282 207.282 C 13.777 216.787, 6 225.079, 6 225.710 C 6 227.170, 8.798 230, 10.241 230 C 10.845 230, 17.501 223.895, 25.032 216.433 L 38.723 202.866 40.413 209.592 C 46.234 232.765, 65.630 252.315, 89 258.566 C 97.641 260.877, 113.343 260.879, 122 258.571 C 146.007 252.170, 164.825 233.212, 170.709 209.500 C 171.665 205.650, 172.587 202.297, 172.758 202.048 C 172.930 201.800, 179.520 208.035, 187.404 215.904 C 200.471 228.948, 201.925 230.111, 203.868 229.070 C 205.041 228.443, 206 227.153, 206 226.204 C 206 223.943, 171.697 189.694, 169.889 190.150 C 167.753 190.688, 135 224.467, 135 226.133 C 135 227.795, 136.917 230, 138.361 230 C 138.889 230, 144.874 224.511, 151.661 217.801 C 158.447 211.092, 164 206.121, 164 206.756 C 164 207.390, 162.969 210.749, 161.709 214.220 C 155.282 231.926, 138.953 246.589, 120.269 251.430 C 112.634 253.409, 99.422 253.423, 91.103 251.463 C 74.939 247.652, 59.600 235.225, 52.198 219.942 C 49.950 215.299, 47.813 209.925, 47.449 208 C 46.826 204.696, 47.513 205.213, 59.730 217.250 C 66.848 224.262, 73.164 230, 73.765 230 C 75.187 230, 78 227.173, 78 225.743 C 78 224.038, 43.784 190, 42.069 190 C 41.241 190, 32.787 197.777, 23.282 207.282 " stroke="none" fill="black" fill-rule="evenodd"/>
</svg>