<svg xmlns="http://www.w3.org/2000/svg" width="212" height="324" viewBox="0 0 212 324" version="1.1">
	<path d="M 72.372 62.765 C 70.418 64.037, 54.003 97.844, 54.593 99.381 C 55.268 101.141, 57.513 102.124, 59.295 101.440 C 60.007 101.167, 63.480 95.106, 67.014 87.972 C 70.547 80.837, 73.692 75, 74.003 75 C 74.313 75, 77.252 80.432, 80.533 87.070 C 83.815 93.709, 87.222 99.795, 88.105 100.594 C 89.890 102.210, 92.550 101.615, 93.396 99.410 C 93.993 97.855, 77.631 64.022, 75.684 62.784 C 74.211 61.847, 73.786 61.845, 72.372 62.765 M 168.200 159.200 C 167.540 159.860, 167 161.091, 167 161.937 C 167 162.782, 172.956 169.442, 180.236 176.737 L 193.472 190 164.793 190 C 136.290 190, 136.104 190.014, 134.557 192.223 C 133.701 193.445, 133 196.275, 133 198.512 C 133 200.749, 132.305 205.246, 131.457 208.505 C 126.093 229.098, 109.039 246.048, 88.269 251.430 C 80.634 253.409, 67.422 253.423, 59.103 251.463 C 34.887 245.754, 14.098 220.791, 14.015 197.321 C 14.001 193.426, 12.122 190, 10 190 C 9.529 190, 8.411 190.732, 7.515 191.627 C 5.684 193.459, 6.060 199.976, 8.580 210.093 C 14.265 232.914, 33.652 252.321, 57 258.566 C 65.641 260.877, 81.343 260.879, 90 258.571 C 104.212 254.782, 116.777 246.590, 125.995 235.104 C 133.676 225.534, 137.556 216.352, 140.516 200.750 L 141.038 198 167.255 198 L 193.472 198 180.236 211.263 C 172.956 218.558, 167 225.218, 167 226.063 C 167 227.796, 168.896 230, 170.385 230 C 172.047 230, 206 195.680, 206 194 C 206 192.320, 172.047 158, 170.385 158 C 169.843 158, 168.860 158.540, 168.200 159.200 " stroke="none" fill="black" fill-rule="evenodd"/>
</svg>