<svg xmlns="http://www.w3.org/2000/svg" width="244" height="324" viewBox="0 0 244 324" version="1.1">
	<path d="M 39.550 62.918 C 35.869 68.875, 22.190 98.331, 22.604 99.410 C 23.269 101.144, 25.524 102.120, 27.295 101.440 C 28.007 101.167, 31.480 95.106, 35.014 87.972 C 38.547 80.837, 41.691 75, 42 75 C 42.309 75, 45.453 80.837, 48.986 87.972 C 52.520 95.106, 55.993 101.167, 56.705 101.440 C 58.487 102.124, 60.732 101.141, 61.407 99.381 C 61.997 97.844, 45.582 64.037, 43.628 62.765 C 42.071 61.751, 40.229 61.820, 39.550 62.918 M 71.571 127.571 C 70.178 128.965, 70 135.899, 70 188.799 L 70 248.455 40.711 219.227 C 24.602 203.152, 10.909 190, 10.282 190 C 8.807 190, 6 192.810, 6 194.287 C 6 195.818, 72.128 262, 73.659 262 C 74.318 262, 75.564 261.293, 76.429 260.429 C 77.825 259.032, 78 251.628, 78 194 C 78 136.372, 77.825 128.968, 76.429 127.571 C 75.564 126.707, 74.471 126, 74 126 C 73.529 126, 72.436 126.707, 71.571 127.571 M 103.579 191.564 C 102.710 192.432, 102 193.529, 102 194 C 102 194.471, 102.710 195.568, 103.579 196.436 C 104.990 197.847, 112.058 197.987, 170.220 197.757 C 230.934 197.517, 235.356 197.383, 236.386 195.750 C 237.191 194.474, 237.191 193.526, 236.386 192.250 C 235.356 190.617, 230.934 190.483, 170.220 190.243 C 112.058 190.013, 104.990 190.153, 103.579 191.564 " stroke="none" fill="black" fill-rule="evenodd"/>
</svg>