<svg xmlns="http://www.w3.org/2000/svg" width="308" height="324" viewBox="0 0 308 324" version="1.1">
	<path d="M 126.582 135.250 C 112.571 149.521, 105.499 164.013, 102.855 183.874 C 101.882 191.182, 101.874 195.209, 102.819 202.692 C 105.360 222.808, 112.395 237.222, 127 252.237 L 136.500 262.004 201.298 262.002 L 266.097 262 272.853 255.250 C 285.460 242.656, 292.811 230.627, 297.198 215.415 C 299.089 208.857, 299.481 205.100, 299.481 193.500 C 299.481 181.900, 299.089 178.143, 297.198 171.585 C 292.744 156.139, 282.955 140.496, 271.645 130.750 L 266.134 126 200.898 126 L 135.663 126 126.582 135.250 M 133.360 138.236 C 123.968 146.893, 115.267 161.727, 111.932 174.766 C 109.297 185.067, 109.297 201.933, 111.932 212.234 C 115.368 225.668, 124.216 240.514, 134.065 249.368 L 139.216 254 201.182 254 L 263.148 254 269.194 248.250 C 299.961 218.989, 300.627 170.784, 270.686 140.250 L 264.558 134 201.257 134 L 137.955 134 133.360 138.236 M 71.571 191.571 C 70.707 192.436, 70 193.529, 70 194 C 70 194.471, 70.707 195.564, 71.571 196.429 C 72.436 197.293, 73.529 198, 74 198 C 74.471 198, 75.564 197.293, 76.429 196.429 C 77.293 195.564, 78 194.471, 78 194 C 78 193.529, 77.293 192.436, 76.429 191.571 C 75.564 190.707, 74.471 190, 74 190 C 73.529 190, 72.436 190.707, 71.571 191.571 M 7.571 255.571 C 6.707 256.436, 6 257.529, 6 258 C 6 259.111, 8.889 262, 10 262 C 11.111 262, 14 259.111, 14 258 C 14 256.889, 11.111 254, 10 254 C 9.529 254, 8.436 254.707, 7.571 255.571 M 71.571 255.571 C 70.707 256.436, 70 257.529, 70 258 C 70 259.111, 72.889 262, 74 262 C 75.111 262, 78 259.111, 78 258 C 78 256.889, 75.111 254, 74 254 C 73.529 254, 72.436 254.707, 71.571 255.571 " stroke="none" fill="black" fill-rule="evenodd"/>
</svg>