<svg xmlns="http://www.w3.org/2000/svg" width="692" height="324" viewBox="0 0 692 324" version="1.1">
	<path d="M 454.612 64.250 C 453.823 65.487, 438.852 95.187, 421.343 130.249 C 395.098 182.805, 389.702 194.305, 390.612 195.749 C 391.559 197.253, 393.636 197.539, 405.357 197.778 C 412.861 197.931, 419 198.267, 419 198.524 C 419 198.781, 412.365 212.269, 404.257 228.498 C 392.169 252.689, 389.712 258.320, 390.616 259.752 C 391.644 261.382, 396.111 261.517, 456.998 261.757 C 523.666 262.020, 525 261.952, 525 258.307 C 525 257.510, 518.475 243.857, 510.500 227.966 C 502.525 212.075, 496 198.832, 496 198.537 C 496 198.242, 501.985 198, 509.300 198 C 522.439 198, 525 197.417, 525 194.427 C 525 192.791, 462.095 65.902, 460.217 63.750 C 458.155 61.386, 456.334 61.549, 454.612 64.250 M 428.747 132.500 L 400.002 190 411.759 190 L 423.515 190 439.274 158.462 C 447.942 141.116, 455.718 126.662, 456.554 126.341 C 457.390 126.020, 458.890 126.496, 459.887 127.398 C 460.885 128.301, 468.383 142.755, 476.550 159.519 L 491.400 190 503.200 190 C 509.690 190, 515 189.773, 515 189.497 C 515 188.838, 458.074 75, 457.744 75 C 457.605 75, 444.557 100.875, 428.747 132.500 M 39.571 127.571 C 38.288 128.855, 38 131.788, 38 143.571 L 38 158 23.571 158 C 11.788 158, 8.855 158.288, 7.571 159.571 C 5.598 161.545, 5.598 162.455, 7.571 164.429 C 8.820 165.677, 11.534 166, 20.774 166 L 32.405 166 19.202 179.333 C 11.941 186.666, 6 193.159, 6 193.761 C 6 195.178, 8.822 198, 10.239 198 C 10.841 198, 17.334 192.059, 24.667 184.798 L 38 171.595 38 196.798 L 38 222 23.571 222 C 11.788 222, 8.855 222.288, 7.571 223.571 C 6.707 224.436, 6 225.529, 6 226 C 6 226.471, 6.707 227.564, 7.571 228.429 C 8.855 229.712, 11.788 230, 23.571 230 L 38 230 38 244.429 C 38 256.212, 38.288 259.145, 39.571 260.429 C 40.436 261.293, 41.529 262, 42 262 C 42.471 262, 43.564 261.293, 44.429 260.429 C 45.712 259.145, 46 256.212, 46 244.429 L 46 230 74 230 L 102 230 102 244.429 C 102 256.212, 102.288 259.145, 103.571 260.429 C 105.545 262.402, 106.455 262.402, 108.429 260.429 C 109.712 259.145, 110 256.212, 110 244.429 L 110 230 124.429 230 C 136.212 230, 139.145 229.712, 140.429 228.429 C 142.402 226.455, 142.402 225.545, 140.429 223.571 C 139.145 222.288, 136.212 222, 124.429 222 L 110 222 110 196.798 L 110 171.595 123.333 184.798 C 130.666 192.059, 137.159 198, 137.761 198 C 139.178 198, 142 195.178, 142 193.761 C 142 193.159, 136.059 186.666, 128.798 179.333 L 115.595 166 127.226 166 C 136.466 166, 139.180 165.677, 140.429 164.429 C 142.402 162.455, 142.402 161.545, 140.429 159.571 C 139.145 158.288, 136.212 158, 124.429 158 L 110 158 110 143.571 C 110 131.788, 109.712 128.855, 108.429 127.571 C 106.455 125.598, 105.545 125.598, 103.571 127.571 C 102.323 128.820, 102 131.534, 102 140.774 L 102 152.405 88.667 139.202 C 81.334 131.941, 74.734 126, 74 126 C 73.266 126, 66.666 131.941, 59.333 139.202 L 46 152.405 46 140.774 C 46 131.534, 45.677 128.820, 44.429 127.571 C 43.564 126.707, 42.471 126, 42 126 C 41.529 126, 40.436 126.707, 39.571 127.571 M 614.650 128.189 C 613.838 129.460, 610.109 136.680, 606.363 144.233 L 599.552 157.965 575.634 158.233 C 554.172 158.473, 551.604 158.679, 550.620 160.240 C 549.725 161.659, 551.731 166.407, 561.495 185.990 L 573.467 210 561.495 234.010 C 551.731 253.593, 549.725 258.341, 550.620 259.760 C 551.604 261.321, 554.171 261.527, 575.612 261.767 L 599.507 262.034 607.504 277.767 C 613.806 290.168, 615.924 293.500, 617.500 293.500 C 619.076 293.500, 621.194 290.168, 627.496 277.767 L 635.493 262.034 659.388 261.767 C 680.829 261.527, 683.396 261.321, 684.380 259.760 C 685.275 258.341, 683.269 253.593, 673.505 234.010 L 661.533 210 673.505 185.990 C 683.269 166.407, 685.275 161.659, 684.380 160.240 C 683.396 158.679, 680.829 158.473, 659.388 158.233 L 635.493 157.966 627.496 142.233 C 622.537 132.475, 618.859 126.382, 617.813 126.189 C 616.885 126.018, 615.462 126.918, 614.650 128.189 M 62.500 147 L 51.534 158 74 158 L 96.466 158 85.500 147 C 79.469 140.950, 74.294 136, 74 136 C 73.706 136, 68.531 140.950, 62.500 147 M 428.747 196.500 L 400.002 254 457.501 254 C 489.126 254, 515 253.773, 515 253.497 C 515 252.838, 458.074 139, 457.744 139 C 457.605 139, 444.557 164.875, 428.747 196.500 M 612.510 147.980 C 610.030 152.919, 608 157.194, 608 157.480 C 608 157.766, 612.275 158, 617.500 158 C 622.725 158, 627 157.766, 627 157.480 C 627 156.530, 617.988 139, 617.500 139 C 617.236 139, 614.991 143.041, 612.510 147.980 M 226.355 158.986 C 215.790 161.214, 206.114 169.146, 201.329 179.500 C 197.350 188.111, 197.383 198.888, 201.417 207.734 C 204.868 215.303, 211.786 222.097, 219.762 225.749 C 227.369 229.231, 237.855 229.361, 246.297 226.077 C 253.354 223.331, 261.569 215.634, 265.056 208.500 C 267.152 204.212, 267.500 202.075, 267.500 193.500 C 267.500 181.464, 265.483 176.393, 257.518 168.404 C 249.739 160.600, 236.981 156.745, 226.355 158.986 M 295.750 159.082 C 294.788 159.642, 294 160.859, 294 161.788 C 294 162.717, 300.857 170.344, 309.238 178.738 L 324.476 194 309.238 209.262 C 300.857 217.656, 294 225.290, 294 226.227 C 294 227.752, 297.644 230.654, 298.526 229.831 C 304.221 224.522, 334 194.443, 334 194 C 334 193.263, 299.280 158.602, 298.221 158.282 C 297.824 158.162, 296.712 158.522, 295.750 159.082 M 359.750 159.080 C 358.138 160.019, 358 162.769, 358 194.015 C 358 227.256, 358.041 227.952, 360.064 229.034 C 361.596 229.854, 362.498 229.832, 363.564 228.947 C 364.760 227.954, 365 222.127, 365 194.078 C 365 157.363, 364.815 156.130, 359.750 159.080 M 46 194 L 46 222 74 222 L 102 222 102 194 L 102 166 74 166 L 46 166 46 194 M 223.627 167.468 C 218.247 169.386, 213.039 173.829, 209.500 179.519 C 205.527 185.908, 204.712 197.311, 207.741 204.129 C 212.446 214.717, 220.286 220.123, 231.883 220.774 C 238.995 221.173, 239.931 220.978, 246 217.830 C 256.444 212.411, 261.773 202.629, 260.713 190.821 C 259.772 180.346, 252.582 170.975, 242.684 167.326 C 238.327 165.720, 228.323 165.794, 223.627 167.468 M 560 166.511 C 560 167.475, 577.011 201, 577.500 201 C 577.989 201, 595 167.475, 595 166.511 C 595 166.230, 587.125 166, 577.500 166 C 567.875 166, 560 166.230, 560 166.511 M 592.500 188 L 581.536 210 592.500 232 L 603.464 254 617.500 254 L 631.536 254 642.500 232 L 653.464 210 642.500 188 L 631.536 166 617.500 166 L 603.464 166 592.500 188 M 640 166.511 C 640 167.475, 657.011 201, 657.500 201 C 657.989 201, 675 167.475, 675 166.511 C 675 166.230, 667.125 166, 657.500 166 C 647.875 166, 640 166.230, 640 166.511 M 568.506 235.989 C 563.828 245.333, 560 253.208, 560 253.489 C 560 253.770, 567.875 254, 577.500 254 C 587.125 254, 595 253.770, 595 253.489 C 595 252.525, 577.989 219, 577.500 219 C 577.231 219, 573.184 226.645, 568.506 235.989 M 648.506 235.989 C 643.828 245.333, 640 253.208, 640 253.489 C 640 253.770, 647.875 254, 657.500 254 C 667.125 254, 675 253.770, 675 253.489 C 675 252.525, 657.989 219, 657.500 219 C 657.231 219, 653.184 226.645, 648.506 235.989 M 163.242 251.034 C 160.050 252.317, 158.622 255.877, 159.925 259.304 C 160.500 260.815, 161.585 262.287, 162.337 262.576 C 163.197 262.906, 163.522 264.047, 163.215 265.656 C 162.731 268.188, 164.163 269.953, 166.727 269.985 C 170.006 270.026, 173.688 259.304, 171.915 254.880 C 171.102 252.852, 166.988 249.662, 165.703 250.063 C 165.591 250.098, 164.484 250.535, 163.242 251.034 M 608 262.520 C 608 263.470, 617.012 281, 617.500 281 C 617.988 281, 627 263.470, 627 262.520 C 627 262.234, 622.725 262, 617.500 262 C 612.275 262, 608 262.234, 608 262.520 " stroke="none" fill="black" fill-rule="evenodd"/>
</svg>