<svg xmlns="http://www.w3.org/2000/svg" width="340" height="324" viewBox="0 0 340 324" version="1.1">
	<path d="M 63.870 127.071 C 48.893 129.271, 37.652 135.158, 25.974 146.916 C 12.475 160.507, 6.696 174.473, 6.696 193.500 C 6.696 205.257, 8.549 213.240, 13.778 224 C 18.912 234.567, 32.433 248.088, 43 253.222 C 56.108 259.592, 69.708 261.975, 82.032 260.063 C 105.065 256.489, 123.732 242.871, 133.521 222.500 C 138.550 212.035, 140.273 204.634, 140.273 193.500 C 140.273 182.356, 138.550 174.964, 133.501 164.456 C 123.743 144.147, 104.758 130.270, 82.284 127.020 C 74.551 125.902, 71.772 125.910, 63.870 127.071 M 167.571 127.571 C 166.175 128.968, 166 136.372, 166 194 C 166 251.628, 166.175 259.032, 167.571 260.429 C 169.678 262.535, 170.598 262.412, 172.443 259.777 C 173.813 257.823, 174 249.904, 174 194 C 174 138.096, 173.813 130.177, 172.443 128.223 C 170.598 125.588, 169.678 125.465, 167.571 127.571 M 231.571 127.571 C 230.175 128.968, 230 136.372, 230 194 C 230 251.628, 230.175 259.032, 231.571 260.429 C 233.457 262.315, 234.219 262.381, 235.800 260.800 C 237.535 259.065, 237.535 128.935, 235.800 127.200 C 234.219 125.619, 233.457 125.685, 231.571 127.571 M 290.920 126.982 C 276.649 129.486, 264.424 142.625, 262.457 157.573 C 261.925 161.611, 262.131 162.988, 263.466 164.323 C 266.762 167.619, 268.684 165.588, 270.016 157.404 C 271.714 146.967, 279.859 137.461, 289.276 134.926 C 294.879 133.417, 304.592 134.173, 309.403 136.492 C 314.350 138.876, 319.349 143.857, 322.236 149.277 C 328.231 160.532, 321.434 188.107, 306.842 211.734 C 299.792 223.148, 281.522 241.780, 270.307 248.990 C 261.766 254.483, 260.196 256.327, 262.105 258.627 C 263.993 260.901, 266.239 260.233, 274.046 255.076 C 303.663 235.511, 323.795 205.627, 330.835 170.781 C 332.206 163.995, 332.446 160.396, 331.800 156.281 C 328.745 136.799, 310.301 123.580, 290.920 126.982 M 57.500 135.870 C 37.436 141.645, 20.733 158.691, 15.585 178.644 C 13.554 186.517, 13.554 200.483, 15.585 208.356 C 18.169 218.372, 23.639 227.725, 31.459 235.500 C 35.332 239.350, 39.936 243.298, 41.692 244.272 L 44.884 246.045 42.522 241.772 C 38.909 235.240, 37.541 226.549, 39 219.396 C 42.093 204.225, 52.867 193.635, 67.953 190.939 C 82.553 188.330, 98.032 196.191, 104.559 209.531 C 109.465 219.558, 109.520 231.423, 104.705 241.152 L 102.353 245.905 105.393 244.202 C 107.065 243.266, 111.641 239.329, 115.561 235.454 C 126.986 224.160, 133 209.692, 133 193.500 C 133 166.315, 113.802 141.644, 87.897 135.537 C 79.386 133.531, 65.080 133.688, 57.500 135.870 M 63.605 199.568 C 56.049 202.337, 56.073 202.527, 65.170 211.671 L 73.457 220.001 81.692 211.809 C 90.838 202.711, 90.906 202.178, 83.260 199.573 C 77.620 197.651, 68.842 197.649, 63.605 199.568 M 49.570 211.253 C 44.719 218.656, 44.828 233.891, 49.775 239.955 C 51.490 242.057, 51.548 242.021, 59.751 233.763 L 68.001 225.457 59.605 217.104 L 51.209 208.752 49.570 211.253 M 87.237 217.261 L 78.999 225.543 87.339 233.840 L 95.680 242.137 97.174 239.819 C 102.273 231.908, 102.255 217.967, 97.137 211.182 C 95.477 208.981, 95.471 208.984, 87.237 217.261 M 65.170 239.329 C 56.017 248.530, 56.002 248.678, 63.962 251.487 C 69.497 253.439, 77.426 253.415, 83.260 251.427 C 90.906 248.822, 90.838 248.289, 81.692 239.191 L 73.457 230.999 65.170 239.329 " stroke="none" fill="black" fill-rule="evenodd"/>
</svg>