<svg xmlns="http://www.w3.org/2000/svg" width="436" height="324" viewBox="0 0 436 324" version="1.1">
	<path d="M 7.571 127.571 C 6.175 128.968, 6 136.372, 6 194 C 6 251.628, 6.175 259.032, 7.571 260.429 C 8.968 261.825, 16.372 262, 74 262 C 131.628 262, 139.032 261.825, 140.429 260.429 C 141.825 259.032, 142 251.628, 142 194 C 142 136.372, 141.825 128.968, 140.429 127.571 C 139.032 126.175, 131.628 126, 74 126 C 16.372 126, 8.968 126.175, 7.571 127.571 M 290.344 127 C 277.030 129.767, 265.874 141.162, 262.899 155.033 C 261.634 160.934, 262.262 164.503, 264.733 165.451 C 267.248 166.416, 270 162.567, 270 158.086 C 270 153.009, 274.362 144.702, 279.205 140.557 C 294.484 127.479, 318.749 134.926, 324.124 154.343 C 327.287 165.771, 318.543 193.583, 305.449 213.739 C 298.235 224.843, 281.328 241.775, 270.309 248.929 C 261.766 254.477, 260.199 256.329, 262.105 258.627 C 263.945 260.844, 266.297 260.253, 273.095 255.868 C 302.822 236.692, 323.703 206.067, 330.867 171.138 C 333.945 156.131, 331.268 146.183, 321.518 136.404 C 313.822 128.683, 300.941 124.798, 290.344 127 M 391.285 159.230 C 372.978 177.506, 358 193.166, 358 194.030 C 358 197.785, 359.648 198, 388.444 198 L 416.487 198 387.244 227.256 C 371.160 243.347, 358 257.281, 358 258.221 C 358 259.752, 361.641 262.655, 362.528 261.831 C 369.086 255.740, 430 194.397, 430 193.884 C 430 193.476, 429.293 192.436, 428.429 191.571 C 427.074 190.217, 422.963 190, 398.685 190 L 370.513 190 399.756 160.744 C 415.840 144.653, 429 130.793, 429 129.944 C 429 128.191, 427.103 126, 425.585 126 C 425.026 126, 409.591 140.953, 391.285 159.230 M 14 194 L 14 254 74 254 L 134 254 134 194 L 134 134 74 134 L 14 134 14 194 M 194.344 158.988 C 184.010 161.166, 173.930 169.366, 169.417 179.266 C 167.066 184.422, 166.568 186.886, 166.537 193.521 C 166.504 200.591, 166.885 202.325, 169.750 208.144 C 178.203 225.313, 196.979 232.808, 214.493 226.003 C 231.960 219.216, 240.761 198.619, 233.934 180.507 C 228.285 165.523, 210.137 155.659, 194.344 158.988 M 191.463 167.591 C 185.971 169.541, 180.552 174.205, 177.249 179.824 C 174.800 183.989, 174.500 185.483, 174.500 193.500 C 174.500 201.517, 174.800 203.011, 177.249 207.176 C 180.659 212.978, 186.006 217.473, 191.872 219.472 C 197.104 221.255, 206.134 221.352, 210.684 219.674 C 221.521 215.679, 229 204.991, 229 193.500 C 229 182.038, 221.486 171.200, 210.965 167.488 C 205.740 165.644, 196.813 165.692, 191.463 167.591 M 199.571 191.571 C 198.707 192.436, 198 193.529, 198 194 C 198 194.471, 198.707 195.564, 199.571 196.429 C 200.436 197.293, 201.529 198, 202 198 C 202.471 198, 203.564 197.293, 204.429 196.429 C 205.293 195.564, 206 194.471, 206 194 C 206 193.529, 205.293 192.436, 204.429 191.571 C 203.564 190.707, 202.471 190, 202 190 C 201.529 190, 200.436 190.707, 199.571 191.571 " stroke="none" fill="black" fill-rule="evenodd"/>
</svg>