<svg xmlns="http://www.w3.org/2000/svg" width="372" height="324" viewBox="0 0 372 324" version="1.1">
	<path d="M 7.571 127.571 C 6.175 128.968, 6 136.372, 6 194 C 6 251.628, 6.175 259.032, 7.571 260.429 C 8.968 261.825, 16.372 262, 74 262 C 131.628 262, 139.032 261.825, 140.429 260.429 C 141.825 259.032, 142 251.628, 142 194 C 142 136.372, 141.825 128.968, 140.429 127.571 C 139.564 126.707, 138.471 126, 138 126 C 137.529 126, 136.436 126.707, 135.571 127.571 C 134.176 128.966, 134 136.152, 134 191.571 L 134 254 74 254 L 14 254 14 191.571 C 14 136.152, 13.824 128.966, 12.429 127.571 C 11.564 126.707, 10.471 126, 10 126 C 9.529 126, 8.436 126.707, 7.571 127.571 M 231.571 127.571 C 230.707 128.436, 230 129.335, 230 129.569 C 230 131.164, 295.738 261.069, 296.739 261.453 C 297.432 261.719, 298.568 261.719, 299.261 261.453 C 301.123 260.739, 366.060 130.320, 365.404 128.612 C 364.736 126.870, 362.487 125.876, 360.735 126.548 C 360.039 126.815, 345.755 154.476, 328.992 188.017 C 312.228 221.558, 298.282 249, 298 249 C 297.718 249, 283.990 221.941, 267.493 188.869 C 250.997 155.796, 236.905 128.121, 236.179 127.369 C 234.471 125.600, 233.500 125.643, 231.571 127.571 M 68.648 158.983 C 61.384 161.272, 55.912 167.505, 54.503 175.096 C 53.855 178.586, 55.585 182, 58 182 C 59.861 182, 62 178.700, 62 175.829 C 62 173.718, 63.030 171.770, 65.400 169.400 C 68.302 166.498, 69.488 166, 73.500 166 C 77.512 166, 78.698 166.498, 81.600 169.400 C 84.502 172.302, 85 173.488, 85 177.500 C 85 181.512, 84.502 182.698, 81.600 185.600 C 79.526 187.674, 77.214 189, 75.671 189 C 71.012 189, 70 191.231, 70 201.500 C 70 208.673, 70.367 211.224, 71.571 212.429 C 72.436 213.293, 73.529 214, 74 214 C 76.689 214, 78 210.575, 78 203.550 C 78 196.488, 78.094 196.204, 80.803 195.082 C 89.073 191.656, 94.352 181.557, 92.113 173.447 C 89.199 162.893, 78.050 156.020, 68.648 158.983 M 167.571 159.571 C 166.707 160.436, 166 161.640, 166 162.249 C 166 162.857, 172.844 170.250, 181.208 178.677 L 196.416 194 181.208 209.323 C 172.844 217.750, 166 225.143, 166 225.751 C 166 227.200, 168.827 230, 170.290 230 C 171.969 230, 206 195.693, 206 194 C 206 192.307, 171.969 158, 170.290 158 C 169.659 158, 168.436 158.707, 167.571 159.571 M 199.571 159.571 C 198.707 160.436, 198 161.640, 198 162.249 C 198 162.857, 204.844 170.250, 213.208 178.677 L 228.416 194 213.208 209.323 C 204.844 217.750, 198 225.143, 198 225.751 C 198 227.200, 200.827 230, 202.290 230 C 203.969 230, 238 195.693, 238 194 C 238 192.307, 203.969 158, 202.290 158 C 201.659 158, 200.436 158.707, 199.571 159.571 M 71.571 222.571 C 70.707 223.436, 70 224.529, 70 225 C 70 225.471, 70.707 226.564, 71.571 227.429 C 72.436 228.293, 73.529 229, 74 229 C 74.471 229, 75.564 228.293, 76.429 227.429 C 77.293 226.564, 78 225.471, 78 225 C 78 224.529, 77.293 223.436, 76.429 222.571 C 75.564 221.707, 74.471 221, 74 221 C 73.529 221, 72.436 221.707, 71.571 222.571 " stroke="none" fill="black" fill-rule="evenodd"/>
</svg>