<svg xmlns="http://www.w3.org/2000/svg" width="356" height="324" viewBox="0 0 356 324" version="1.1">
	<path d="M 159.536 127.055 C 133.727 131.063, 112.693 149.508, 104.858 175 C 101.607 185.580, 101.607 201.420, 104.858 212 C 111.942 235.051, 130.125 252.626, 153.113 258.643 C 160.874 260.674, 176.381 260.907, 184 259.107 C 187.025 258.392, 193.735 255.780, 198.911 253.303 C 214.354 245.912, 226.804 231.838, 232.500 215.335 C 237.488 200.884, 237.493 186, 232.515 171.665 C 229.010 161.571, 224.400 154.402, 216 145.981 C 201.145 131.088, 179.748 123.917, 159.536 127.055 M 154.072 135.591 C 143.659 138.390, 135.974 142.983, 127.489 151.479 C 115.024 163.958, 110 176.031, 110 193.500 C 110 210.969, 115.024 223.042, 127.489 235.521 C 139.641 247.688, 152.312 253, 169.184 253 C 179.386 253, 187.213 251.127, 196.568 246.446 C 213.383 238.035, 225.330 221.303, 228.485 201.750 L 229.091 198 198.745 198 C 176.477 198, 168.081 197.681, 167.200 196.800 C 166.319 195.919, 166 187.422, 166 164.800 L 166 134 162.750 134.066 C 160.963 134.102, 157.057 134.788, 154.072 135.591 M 173 162 L 173 190 201.088 190 L 229.176 190 228.542 185.750 C 226.487 171.959, 218.678 157.289, 208.701 148.474 C 200.462 141.195, 183.685 134, 174.951 134 C 173.063 134, 173 134.902, 173 162 M 33.384 159.370 C 15.387 163.885, 3.561 181.817, 6.987 199.396 C 9.925 214.478, 20.711 225.228, 35.616 227.930 C 51.498 230.810, 68.384 221.280, 74.002 206.266 C 76.889 198.550, 76.845 188.335, 73.893 180.443 C 68.147 165.086, 49.423 155.345, 33.384 159.370 M 31.463 167.591 C 25.971 169.541, 20.552 174.205, 17.249 179.824 C 14.800 183.989, 14.500 185.483, 14.500 193.500 C 14.500 201.517, 14.800 203.011, 17.249 207.176 C 24.156 218.926, 38.075 223.920, 51.329 219.403 C 56.795 217.541, 63.688 211.233, 66.523 205.500 C 69.292 199.897, 69.292 187.103, 66.523 181.500 C 63.688 175.767, 56.795 169.459, 51.329 167.597 C 45.635 165.656, 36.919 165.654, 31.463 167.591 M 271.230 199.269 C 266.154 204.367, 262 209.301, 262 210.234 C 262 211.166, 262.954 212.440, 264.120 213.064 C 266.004 214.073, 266.896 213.550, 272.120 208.381 L 278 202.563 278 228.281 L 278 254 271.934 254 C 265.019 254, 262 255.216, 262 258 C 262 261.473, 265.211 262.061, 282.622 261.774 C 297.221 261.534, 299.421 261.283, 300.387 259.750 C 301.189 258.477, 301.190 257.523, 300.390 256.250 C 299.543 254.902, 297.649 254.432, 292.145 254.206 L 285 253.912 285 223.156 C 285 192.393, 284.750 190, 281.530 190 C 280.942 190, 276.307 194.171, 271.230 199.269 M 324 191.144 C 318.828 192.659, 314.028 196.726, 311.913 201.384 C 310.289 204.959, 310.041 208.132, 310.022 225.538 C 310.001 244.356, 310.137 245.848, 312.250 250.030 C 319.632 264.642, 339.845 263.643, 346.617 248.331 C 348.822 243.346, 349 241.676, 349 226.009 C 349 211.369, 348.721 208.331, 346.944 203.579 C 343.250 193.706, 333.426 188.382, 324 191.144 M 322.381 199.910 C 320.665 200.956, 318.753 203.271, 318.131 205.055 C 316.406 210.001, 316.632 242.184, 318.421 246.466 C 321.003 252.644, 329.422 254.869, 335.711 251.035 C 340.831 247.913, 342.308 241.136, 341.795 223.129 C 341.496 212.634, 340.923 207.459, 339.768 204.816 C 336.956 198.385, 328.702 196.055, 322.381 199.910 M 7.585 255.558 C 6.713 256.430, 6 257.529, 6 258 C 6 258.471, 6.713 259.570, 7.585 260.442 C 8.978 261.835, 13.159 261.995, 42.226 261.763 C 72.452 261.523, 75.377 261.350, 76.386 259.750 C 77.191 258.474, 77.191 257.526, 76.386 256.250 C 75.377 254.650, 72.452 254.477, 42.226 254.237 C 13.159 254.005, 8.978 254.165, 7.585 255.558 " stroke="none" fill="black" fill-rule="evenodd"/>
</svg>