<svg xmlns="http://www.w3.org/2000/svg" width="532" height="324" viewBox="0 0 532 324" version="1.1">
	<path d="M 103.244 95.256 L 70 128.511 70 194.056 C 70 243.701, 70.291 259.891, 71.200 260.800 C 72.109 261.709, 88.304 262, 137.970 262 L 203.540 262 236.770 228.715 L 270 195.431 270 130.650 C 270 87.907, 269.648 65.210, 268.965 63.934 C 267.957 62.052, 266.162 62, 202.209 62 L 136.489 62 103.244 95.256 M 111.500 98 L 83.513 126 142.013 126 L 200.513 126 228.500 98 L 256.487 70 197.987 70 L 139.487 70 111.500 98 M 233.750 103.750 L 206 131.513 206 190.004 L 206 248.496 234.008 220.487 L 262.016 192.479 261.758 134.233 L 261.500 75.986 233.750 103.750 M 423.750 95.080 C 422.207 95.979, 422 97.866, 422 111.050 L 422 126 407.200 126 C 397.022 126, 392.025 126.375, 391.200 127.200 C 389.465 128.935, 389.465 259.065, 391.200 260.800 C 392.025 261.625, 397.022 262, 407.200 262 L 422 262 422 276.965 C 422 291.324, 422.088 291.977, 424.183 293.098 C 426.042 294.093, 426.636 293.933, 428.183 292.022 C 429.744 290.094, 430 287.822, 430 275.889 L 430 262 458 262 L 486 262 486 276.965 C 486 291.061, 486.120 291.994, 488.064 293.034 C 492.316 295.310, 493 293.071, 493 276.878 L 493 262 507.750 261.985 C 515.862 261.976, 523.072 261.606, 523.772 261.162 C 525.639 259.977, 525.639 128.023, 523.772 126.838 C 523.072 126.394, 515.862 126.024, 507.750 126.015 L 493 126 493 111.122 C 493 94.929, 492.316 92.690, 488.064 94.966 C 486.120 96.006, 486 96.939, 486 111.035 L 486 126 458 126 L 430 126 430 112.223 C 430 101.371, 429.669 97.973, 428.443 96.223 C 426.702 93.736, 426.248 93.625, 423.750 95.080 M 78 194 L 78 254 138 254 L 198 254 198 194 L 198 134 138 134 L 78 134 78 194 M 398 194 L 398 254 458 254 L 518 254 518 194 L 518 134 458 134 L 398 134 398 194 M 327.750 159.080 C 325.422 160.436, 325.524 163.675, 327.934 164.965 C 328.998 165.534, 330.091 166, 330.363 166 C 331.193 166, 334 162.913, 334 162 C 334 160.966, 331.132 157.988, 330.179 158.030 C 329.805 158.047, 328.712 158.519, 327.750 159.080 M 20.764 190.952 C 13.186 193.355, 7.955 199.277, 6.503 207.096 C 5.855 210.586, 7.585 214, 10 214 C 11.861 214, 14 210.700, 14 207.829 C 14 205.718, 15.030 203.770, 17.400 201.400 C 20.302 198.498, 21.488 198, 25.500 198 C 29.512 198, 30.698 198.498, 33.600 201.400 C 39.296 207.096, 38.903 208.183, 21.941 233.589 C 13.658 245.994, 6.657 256.729, 6.383 257.443 C 6.109 258.158, 6.618 259.475, 7.514 260.371 C 9.895 262.753, 42.054 262.803, 44.429 260.429 C 46.402 258.455, 46.402 257.545, 44.429 255.571 C 43.162 254.305, 40.348 254, 29.926 254 L 16.995 254 31.477 232.250 L 45.960 210.500 44.402 206 C 43.546 203.525, 42.002 200.133, 40.972 198.462 C 37.448 192.747, 27.161 188.924, 20.764 190.952 M 295.585 191.558 C 294.713 192.430, 294 193.529, 294 194 C 294 194.471, 294.713 195.570, 295.585 196.442 C 296.978 197.835, 301.159 197.995, 330.226 197.763 C 360.452 197.523, 363.377 197.350, 364.386 195.750 C 365.191 194.474, 365.191 193.526, 364.386 192.250 C 363.377 190.650, 360.452 190.477, 330.226 190.237 C 301.159 190.005, 296.978 190.165, 295.585 191.558 M 327.750 223.080 C 325.422 224.436, 325.524 227.675, 327.934 228.965 C 328.998 229.534, 330.091 230, 330.363 230 C 331.193 230, 334 226.913, 334 226 C 334 224.966, 331.132 221.988, 330.179 222.030 C 329.805 222.047, 328.712 222.519, 327.750 223.080 " stroke="none" fill="black" fill-rule="evenodd"/>
</svg>