<svg xmlns="http://www.w3.org/2000/svg" width="180" height="324" viewBox="0 0 180 324" version="1.1">
	<path d="M 88.372 62.765 C 86.418 64.037, 70.003 97.844, 70.593 99.381 C 71.268 101.141, 73.513 102.124, 75.295 101.440 C 76.007 101.167, 79.480 95.106, 83.014 87.972 C 86.547 80.837, 89.691 75, 90 75 C 90.309 75, 93.453 80.837, 96.986 87.972 C 100.520 95.106, 103.993 101.167, 104.705 101.440 C 106.487 102.124, 108.732 101.141, 109.407 99.381 C 109.716 98.575, 106.096 90.173, 101.363 80.708 C 93.638 65.261, 91.672 62.031, 90 62.031 C 89.725 62.031, 88.992 62.361, 88.372 62.765 M 7.571 159.571 C 6.207 160.936, 6 165.463, 6 194 C 6 222.537, 6.207 227.064, 7.571 228.429 C 8.936 229.793, 13.463 230, 42 230 C 70.537 230, 75.064 229.793, 76.429 228.429 C 77.764 227.093, 78 223.478, 78 204.349 L 78 181.841 81.250 182.503 C 88.555 183.992, 97.111 188.947, 103.331 195.290 C 116.360 208.578, 135.118 212.980, 152.796 206.898 C 162.574 203.534, 172 196.449, 172 192.464 C 172 188.535, 168.496 188.357, 164.267 192.070 C 162.247 193.844, 157.648 196.691, 154.047 198.397 C 148.017 201.255, 146.670 201.500, 137 201.500 C 127.333 201.500, 125.981 201.254, 119.962 198.402 C 115.858 196.457, 111.606 193.383, 108.541 190.146 C 105.856 187.310, 101.562 183.644, 98.999 181.999 C 93.857 178.700, 83.996 175, 80.343 175 C 78.111 175, 78 174.672, 78 168.071 C 78 163.106, 77.555 160.698, 76.429 159.571 C 75.064 158.207, 70.537 158, 42 158 C 13.463 158, 8.936 158.207, 7.571 159.571 M 14 194 L 14 222 42 222 L 70 222 70 201.872 L 70 181.744 65.750 182.411 C 59.743 183.353, 49.973 188.127, 45.167 192.468 C 42.272 195.084, 40.512 195.980, 39.132 195.542 C 35.675 194.445, 35.704 191.901, 39.217 188.276 C 45.707 181.579, 55.539 176.577, 65 175.160 C 69.455 174.492, 69.503 174.443, 69.807 170.243 L 70.115 166 42.057 166 L 14 166 14 194 " stroke="none" fill="black" fill-rule="evenodd"/>
</svg>