<svg xmlns="http://www.w3.org/2000/svg" width="308" height="324" viewBox="0 0 308 324" version="1.1">
	<path d="M 35.650 127.064 C 20.120 129.621, 7.411 143.607, 6.912 158.693 C 6.728 164.229, 10.436 179.602, 14.976 192.133 C 18.628 202.212, 26.063 215.568, 33.594 225.579 C 47.004 243.404, 74.270 264.227, 77.454 259.074 C 77.769 258.565, 81.706 255.570, 86.203 252.418 C 112.393 234.066, 132.136 203.704, 138.590 171.852 C 140.892 160.493, 140.145 152.929, 135.945 145.049 C 123.475 121.651, 90.203 120.318, 76.014 142.647 L 73.379 146.793 70.535 142.298 C 63.454 131.105, 49.123 124.847, 35.650 127.064 M 199.724 127.134 C 198.121 128.031, 198 132.373, 198 188.754 L 198 249.408 184.087 235.622 C 171.537 223.187, 169.970 221.946, 168.087 222.953 C 166.939 223.568, 166 224.847, 166 225.796 C 166 227.625, 199.778 262, 201.576 262 C 203.285 262, 236.471 228.139, 236.811 226.047 C 236.998 224.897, 236.266 223.677, 234.973 222.986 C 233.011 221.935, 231.627 223.024, 218.913 235.622 L 205 249.408 205 188.739 C 205 131.647, 204.895 128.014, 203.224 127.120 C 202.098 126.517, 200.818 126.522, 199.724 127.134 M 29.199 136.588 C 23.118 139.618, 17.737 145.503, 15.363 151.719 C 13.773 155.882, 13.779 156.725, 15.457 166.314 C 21.257 199.451, 40.089 229.183, 66.868 247.480 L 73.830 252.237 81.620 246.869 C 105.806 230.200, 123.917 203.094, 130.975 173 C 133.685 161.446, 133.281 155.125, 129.376 147.949 C 124.384 138.778, 115.860 133.982, 104.624 134.022 C 97.621 134.047, 92.185 136.143, 86.752 140.913 C 82.287 144.833, 78 153.190, 78 157.974 C 78 161.875, 75.695 166, 73.515 166 C 71.134 166, 69 162.978, 69 159.607 C 69 149.949, 60.912 138.862, 51.537 135.667 C 44.062 133.120, 35.445 133.476, 29.199 136.588 M 263.750 159.080 C 262.788 159.641, 262 160.859, 262 161.788 C 262 162.717, 268.857 170.344, 277.238 178.738 L 292.476 194 277.238 209.262 C 268.857 217.656, 262 225.290, 262 226.227 C 262 227.163, 262.944 228.435, 264.097 229.052 C 266 230.070, 267.809 228.570, 283.597 212.875 C 293.169 203.360, 301 194.866, 301 194 C 301 192.656, 267.162 157.945, 265.935 158.030 C 265.696 158.047, 264.712 158.519, 263.750 159.080 " stroke="none" fill="black" fill-rule="evenodd"/>
</svg>