<svg xmlns="http://www.w3.org/2000/svg" width="244" height="324" viewBox="0 0 244 324" version="1.1">
	<path d="M 23.571 63.571 C 22.707 64.436, 22 65.609, 22 66.178 C 22 66.747, 25.226 70.540, 29.169 74.607 L 36.338 82 29.169 89.393 C 25.226 93.460, 22 97.253, 22 97.822 C 22 99.161, 24.839 102, 26.178 102 C 26.747 102, 30.540 98.774, 34.607 94.831 L 42 87.662 49.393 94.831 C 53.460 98.774, 57.253 102, 57.822 102 C 59.161 102, 62 99.161, 62 97.822 C 62 97.253, 58.774 93.460, 54.831 89.393 L 47.662 82 54.831 74.607 C 58.774 70.540, 62 66.747, 62 66.178 C 62 64.839, 59.161 62, 57.822 62 C 57.253 62, 53.460 65.226, 49.393 69.169 L 42 76.338 34.607 69.169 C 30.540 65.226, 26.747 62, 26.178 62 C 25.609 62, 24.436 62.707, 23.571 63.571 M 39.571 127.571 C 38.207 128.935, 38 133.425, 38 161.577 L 38 194.012 22 226 C 13.200 243.593, 6 258.183, 6 258.423 C 6 258.662, 6.707 259.564, 7.571 260.429 C 8.936 261.793, 13.463 262, 42 262 C 70.537 262, 75.064 261.793, 76.429 260.429 C 77.293 259.564, 78 258.662, 78 258.423 C 78 258.183, 70.800 243.593, 62 226 L 46 194.012 46 161.577 C 46 133.425, 45.793 128.935, 44.429 127.571 C 43.564 126.707, 42.471 126, 42 126 C 41.529 126, 40.436 126.707, 39.571 127.571 M 116.764 190.996 C 111.184 192.676, 107.145 196.067, 104.571 201.234 C 103.157 204.071, 102 207.397, 102 208.625 C 102 210.839, 104.353 214, 106 214 C 107.861 214, 110 210.700, 110 207.829 C 110 205.718, 111.030 203.770, 113.400 201.400 C 116.278 198.522, 117.504 198, 121.384 198 C 125.036 198, 126.632 198.593, 129.234 200.918 C 132.194 203.563, 132.500 204.367, 132.500 209.500 C 132.500 214.633, 132.194 215.437, 129.234 218.082 C 127.438 219.687, 124.883 221, 123.556 221 C 120.914 221, 118 223.360, 118 225.500 C 118 227.640, 120.914 230, 123.556 230 C 124.883 230, 127.438 231.313, 129.234 232.918 C 132.194 235.563, 132.500 236.367, 132.500 241.500 C 132.500 246.633, 132.194 247.437, 129.234 250.082 C 126.632 252.407, 125.036 253, 121.384 253 C 117.504 253, 116.278 252.478, 113.400 249.600 C 111.326 247.526, 110 245.214, 110 243.671 C 110 241.214, 107.733 238, 106 238 C 104.517 238, 102 241.068, 102 242.875 C 102 243.828, 103.169 246.952, 104.597 249.818 C 110.393 261.450, 124.359 264.091, 134.001 255.380 C 141.973 248.178, 142.385 236.174, 134.924 228.438 L 131.972 225.375 134.581 222.938 C 138.541 219.237, 140.143 215.369, 140.143 209.500 C 140.143 203.227, 138.404 199.440, 133.578 195.203 C 128.492 190.737, 122.556 189.252, 116.764 190.996 M 28.743 228.500 L 16.005 254 42 254 L 67.995 254 55.257 228.500 C 48.250 214.475, 42.285 203, 42 203 C 41.715 203, 35.750 214.475, 28.743 228.500 M 199.750 223.080 C 198.207 223.979, 198 225.866, 198 239.050 L 198 254 183.571 254 C 171.788 254, 168.855 254.288, 167.571 255.571 C 165.598 257.545, 165.598 258.455, 167.571 260.429 C 168.855 261.712, 171.788 262, 183.571 262 L 198 262 198 276.965 C 198 291.061, 198.120 291.994, 200.064 293.034 C 204.315 295.309, 205 293.069, 205 276.904 L 205 262.052 220.142 261.776 C 233.291 261.536, 235.430 261.270, 236.387 259.750 C 237.191 258.475, 237.191 257.525, 236.387 256.250 C 235.430 254.730, 233.291 254.464, 220.142 254.224 L 205 253.948 205 239.174 C 205 222.586, 204.297 220.432, 199.750 223.080 " stroke="none" fill="black" fill-rule="evenodd"/>
</svg>