<svg xmlns="http://www.w3.org/2000/svg" width="132" height="324" viewBox="0 0 132 324" version="1.1">
	<path d="M 7.571 63.571 C 6.707 64.436, 6 65.609, 6 66.178 C 6 66.747, 9.226 70.540, 13.169 74.607 L 20.338 82 13.169 89.393 C 9.226 93.460, 6 97.253, 6 97.822 C 6 99.161, 8.839 102, 10.178 102 C 10.747 102, 14.540 98.774, 18.607 94.831 L 26 87.662 33.393 94.831 C 37.460 98.774, 41.253 102, 41.822 102 C 43.161 102, 46 99.161, 46 97.822 C 46 97.253, 42.774 93.460, 38.831 89.393 L 31.662 82 38.831 74.607 C 42.774 70.540, 46 66.747, 46 66.178 C 46 64.839, 43.161 62, 41.822 62 C 41.253 62, 37.460 65.226, 33.393 69.169 L 26 76.338 18.607 69.169 C 14.540 65.226, 10.747 62, 10.178 62 C 9.609 62, 8.436 62.707, 7.571 63.571 M 23.571 191.571 C 22.207 192.936, 22 197.463, 22 226 C 22 254.537, 22.207 259.064, 23.571 260.429 C 24.436 261.293, 25.529 262, 26 262 C 26.471 262, 27.564 261.293, 28.429 260.429 C 29.793 259.064, 30 254.537, 30 226 C 30 197.463, 29.793 192.936, 28.429 191.571 C 27.564 190.707, 26.471 190, 26 190 C 25.529 190, 24.436 190.707, 23.571 191.571 M 87.571 223.571 C 86.288 224.855, 86 227.788, 86 239.571 L 86 254 71.571 254 C 59.788 254, 56.855 254.288, 55.571 255.571 C 53.598 257.545, 53.598 258.455, 55.571 260.429 C 56.855 261.712, 59.788 262, 71.571 262 L 86 262 86 276.429 C 86 288.212, 86.288 291.145, 87.571 292.429 C 88.436 293.293, 89.529 294, 90 294 C 90.471 294, 91.564 293.293, 92.429 292.429 C 93.712 291.145, 94 288.212, 94 276.429 L 94 262 108.429 262 C 120.212 262, 123.145 261.712, 124.429 260.429 C 126.402 258.455, 126.402 257.545, 124.429 255.571 C 123.145 254.288, 120.212 254, 108.429 254 L 94 254 94 239.571 C 94 227.788, 93.712 224.855, 92.429 223.571 C 91.564 222.707, 90.471 222, 90 222 C 89.529 222, 88.436 222.707, 87.571 223.571 " stroke="none" fill="black" fill-rule="evenodd"/>
</svg>