<svg xmlns="http://www.w3.org/2000/svg" width="244" height="324" viewBox="0 0 244 324" version="1.1">
	<path d="M 23.571 63.571 C 22.707 64.436, 22 65.609, 22 66.178 C 22 66.747, 25.226 70.540, 29.169 74.607 L 36.338 82 29.169 89.393 C 25.226 93.460, 22 97.253, 22 97.822 C 22 99.161, 24.839 102, 26.178 102 C 26.747 102, 30.540 98.774, 34.607 94.831 L 42 87.662 49.393 94.831 C 53.460 98.774, 57.253 102, 57.822 102 C 59.161 102, 62 99.161, 62 97.822 C 62 97.253, 58.774 93.460, 54.831 89.393 L 47.662 82 54.831 74.607 C 58.774 70.540, 62 66.747, 62 66.178 C 62 64.839, 59.161 62, 57.822 62 C 57.253 62, 53.460 65.226, 49.393 69.169 L 42 76.338 34.607 69.169 C 30.540 65.226, 26.747 62, 26.178 62 C 25.609 62, 24.436 62.707, 23.571 63.571 M 39.571 127.571 C 38.176 128.966, 38 136.152, 38 191.571 L 38 254 23.571 254 C 11.788 254, 8.855 254.288, 7.571 255.571 C 5.598 257.545, 5.598 258.455, 7.571 260.429 C 8.936 261.793, 13.463 262, 42 262 C 70.537 262, 75.064 261.793, 76.429 260.429 C 77.293 259.564, 78 258.471, 78 258 C 78 257.529, 77.293 256.436, 76.429 255.571 C 75.145 254.288, 72.212 254, 60.429 254 L 46 254 46 191.571 C 46 136.152, 45.824 128.966, 44.429 127.571 C 43.564 126.707, 42.471 126, 42 126 C 41.529 126, 40.436 126.707, 39.571 127.571 M 116.764 190.996 C 111.184 192.676, 107.145 196.067, 104.571 201.234 C 103.157 204.071, 102 207.397, 102 208.625 C 102 210.839, 104.353 214, 106 214 C 107.861 214, 110 210.700, 110 207.829 C 110 205.718, 111.030 203.770, 113.400 201.400 C 116.297 198.503, 117.491 198, 121.477 198 C 129.145 198, 134.081 204.425, 132.576 212.446 C 131.825 216.448, 126.992 221, 123.495 221 C 120.905 221, 118 223.379, 118 225.500 C 118 227.621, 120.905 230, 123.495 230 C 126.992 230, 131.825 234.552, 132.576 238.554 C 133.465 243.292, 132.404 246.750, 129.026 250.128 C 126.682 252.472, 125.294 253, 121.477 253 C 117.491 253, 116.297 252.497, 113.400 249.600 C 111.326 247.526, 110 245.214, 110 243.671 C 110 241.214, 107.733 238, 106 238 C 104.517 238, 102 241.068, 102 242.875 C 102 243.828, 103.169 246.952, 104.597 249.818 C 110.407 261.478, 124.359 264.091, 134.051 255.335 C 142.304 247.879, 142.544 235.502, 134.581 228.062 L 131.972 225.625 134.866 222.562 C 139.089 218.094, 140.286 215.215, 140.286 209.525 C 140.286 203.500, 138.371 199.411, 133.578 195.203 C 128.492 190.737, 122.556 189.252, 116.764 190.996 M 199.750 223.080 C 198.207 223.979, 198 225.866, 198 239.050 L 198 254 183.934 254 C 169.308 254, 166 254.738, 166 258 C 166 261.262, 169.308 262, 183.934 262 L 198 262 198 276.965 C 198 291.061, 198.120 291.994, 200.064 293.034 C 204.315 295.309, 205 293.069, 205 276.904 L 205 262.052 220.142 261.776 C 233.291 261.536, 235.430 261.270, 236.387 259.750 C 237.191 258.475, 237.191 257.525, 236.387 256.250 C 235.430 254.730, 233.291 254.464, 220.142 254.224 L 205 253.948 205 239.174 C 205 222.586, 204.297 220.432, 199.750 223.080 " stroke="none" fill="black" fill-rule="evenodd"/>
</svg>