<svg xmlns="http://www.w3.org/2000/svg" width="340" height="324" viewBox="0 0 340 324" version="1.1">
	<path d="M 263.750 127.073 C 261.423 128.438, 261.524 131.675, 263.934 132.965 C 265.005 133.538, 272.151 134, 279.934 134 L 294 134 294 162 L 294 190 279.934 190 C 265.308 190, 262 190.738, 262 194 C 262 197.262, 265.308 198, 279.934 198 L 294 198 294 226 L 294 254 279.934 254 C 265.308 254, 262 254.738, 262 258 C 262 261.750, 264.791 262.037, 298.601 261.764 C 328.469 261.523, 331.378 261.349, 332.386 259.750 C 333.190 258.475, 333.191 257.525, 332.387 256.250 C 331.430 254.730, 329.291 254.464, 316.142 254.224 L 301 253.948 301 226 L 301 198.052 316.142 197.776 C 329.291 197.536, 331.430 197.270, 332.387 195.750 C 333.191 194.475, 333.191 193.525, 332.387 192.250 C 331.430 190.730, 329.291 190.464, 316.142 190.224 L 301 189.948 301 162 L 301 134.052 316.142 133.776 C 329.291 133.536, 331.430 133.270, 332.387 131.750 C 333.191 130.475, 333.190 129.525, 332.386 128.250 C 331.377 126.649, 328.483 126.481, 298.391 126.273 C 277.280 126.127, 264.873 126.414, 263.750 127.073 M 167.585 159.558 C 166.713 160.430, 166 161.529, 166 162 C 166 162.471, 166.713 163.570, 167.585 164.442 C 168.978 165.835, 173.159 165.995, 202.226 165.763 C 232.452 165.523, 235.377 165.350, 236.386 163.750 C 237.191 162.474, 237.191 161.526, 236.386 160.250 C 235.377 158.650, 232.452 158.477, 202.226 158.237 C 173.159 158.005, 168.978 158.165, 167.585 159.558 M 7.491 191.652 C 4.366 194.777, 7.569 211.386, 13.692 223.806 C 17.920 232.384, 28.303 244.016, 36.715 249.599 C 69.466 271.337, 114.467 259.506, 132.759 224.347 C 138.902 212.538, 142.549 194.691, 139.451 191.593 C 137.455 189.597, 136.550 189.593, 134.571 191.571 C 133.640 192.503, 133 194.860, 133 197.361 C 133 209.513, 125.785 225.218, 115.409 235.649 C 107.596 243.505, 96.189 249.855, 86.201 251.910 C 78.760 253.441, 66.646 253.241, 59.103 251.463 C 34.887 245.754, 14.098 220.791, 14.015 197.321 C 14.001 193.426, 12.122 190, 10 190 C 9.529 190, 8.399 190.743, 7.491 191.652 M 167.585 223.558 C 166.713 224.430, 166 225.529, 166 226 C 166 226.471, 166.713 227.570, 167.585 228.442 C 168.978 229.835, 173.159 229.995, 202.226 229.763 C 232.452 229.523, 235.377 229.350, 236.386 227.750 C 237.191 226.474, 237.191 225.526, 236.386 224.250 C 235.377 222.650, 232.452 222.477, 202.226 222.237 C 173.159 222.005, 168.978 222.165, 167.585 223.558 M 295.750 287.080 C 293.372 288.465, 293.542 291.685, 296.064 293.034 C 299.753 295.008, 302.819 290.219, 299.800 287.200 C 298.367 285.767, 298.022 285.757, 295.750 287.080 " stroke="none" fill="black" fill-rule="evenodd"/>
</svg>