<svg xmlns="http://www.w3.org/2000/svg" width="52" height="324" viewBox="0 0 52 324" version="1.1">
	<path d="M 7.571 63.571 C 6.707 64.436, 6 65.609, 6 66.178 C 6 66.747, 9.226 70.540, 13.169 74.607 L 20.338 82 13.169 89.393 C 9.226 93.460, 6 97.253, 6 97.822 C 6 99.161, 8.839 102, 10.178 102 C 10.747 102, 14.540 98.774, 18.607 94.831 L 26 87.662 33.393 94.831 C 37.460 98.774, 41.195 102, 41.693 102 C 43.229 102, 45 99.699, 45 97.703 C 45 96.659, 42.001 92.699, 38.336 88.903 L 31.672 82 38.336 75.097 C 42.001 71.301, 45 67.341, 45 66.297 C 45 64.301, 43.229 62, 41.693 62 C 41.195 62, 37.460 65.226, 33.393 69.169 L 26 76.338 18.607 69.169 C 14.540 65.226, 10.747 62, 10.178 62 C 9.609 62, 8.436 62.707, 7.571 63.571 M 23.571 191.571 C 22.207 192.936, 22 197.463, 22 226 C 22 254.537, 22.207 259.064, 23.571 260.429 C 24.436 261.293, 25.529 262, 26 262 C 26.471 262, 27.564 261.293, 28.429 260.429 C 29.793 259.064, 30 254.537, 30 226 C 30 197.463, 29.793 192.936, 28.429 191.571 C 27.564 190.707, 26.471 190, 26 190 C 25.529 190, 24.436 190.707, 23.571 191.571 " stroke="none" fill="black" fill-rule="evenodd"/>
</svg>