<svg xmlns="http://www.w3.org/2000/svg" width="403" height="324" viewBox="0 0 403 324" version="1.1">
	<path d="M 55.571 63.571 C 54.707 64.436, 54 65.317, 54 65.531 C 54 66.993, 71.421 100.653, 72.488 101.252 C 73.225 101.665, 74.440 101.768, 75.188 101.481 C 76.837 100.849, 93 68.755, 93 66.115 C 93 63.770, 90.710 61.790, 88.832 62.511 C 88.050 62.811, 84.520 68.894, 80.986 76.028 C 77.453 83.163, 74.308 89, 73.997 89 C 73.687 89, 70.748 83.534, 67.467 76.853 C 59.925 61.499, 58.847 60.296, 55.571 63.571 M 35.045 127.064 C 24.674 129.164, 14.828 136.537, 10.151 145.705 C 7.578 150.747, 5.616 161.395, 6.828 163.738 C 7.329 164.707, 8.527 169.100, 9.490 173.500 C 13.122 190.101, 19.200 204.421, 28.736 218.844 C 42.121 239.090, 73.693 265.161, 77.454 259.074 C 77.769 258.565, 81.733 255.561, 86.263 252.400 C 112.642 233.993, 132.161 203.833, 138.872 171.112 C 141.945 156.133, 139.262 146.177, 129.518 136.404 C 116.900 123.746, 95.755 123.323, 82.257 135.459 C 79.595 137.852, 76.567 141.388, 75.529 143.317 L 73.640 146.824 70.976 142.624 C 63.636 131.049, 48.255 124.389, 35.045 127.064 M 31.054 135.728 C 24.787 137.940, 17.726 145.297, 15.534 151.899 C 13.881 156.875, 13.875 157.704, 15.430 166.205 C 18.772 184.475, 25.252 200.548, 35.502 216 C 41.742 225.407, 57.252 241.032, 66.665 247.394 L 73.830 252.237 81.502 246.934 C 96.128 236.822, 111.017 220.048, 119.167 204.497 C 127.659 188.293, 133.639 167.830, 132.676 158.272 C 131.665 148.241, 124.325 138.881, 114.684 135.326 C 110.110 133.640, 101.095 133.748, 95.795 135.554 C 86.333 138.778, 78 149.543, 78 158.541 C 78 162.605, 75.835 166, 73.243 166 C 70.994 166, 69 162.751, 69 159.088 C 69 154.001, 63.752 143.766, 59.235 140.042 C 52.129 134.185, 40.476 132.401, 31.054 135.728 M 322.355 158.992 C 316.121 160.297, 309.030 164.262, 304 169.255 C 299.740 173.483, 299.067 173.780, 291.373 174.819 C 281.962 176.090, 273.753 179.436, 266.367 185.013 C 260.776 189.234, 259.108 192.220, 261.040 194.548 C 262.922 196.816, 264.513 196.317, 269.689 191.835 C 275.597 186.720, 283.805 182.979, 290.673 182.270 L 295.847 181.736 294.832 186.118 C 292.333 196.903, 296.099 209.657, 304.205 217.861 C 320.003 233.851, 345.092 231.510, 358.551 212.789 C 360.167 210.542, 361.698 209.892, 367.500 208.988 C 375.861 207.686, 383.514 204.363, 390.778 198.878 C 396.367 194.658, 397.305 191.835, 393.838 189.663 C 392.521 188.838, 391.055 189.486, 386.787 192.779 C 380.360 197.737, 373.790 200.793, 367.786 201.616 L 363.391 202.218 363.804 195.738 C 364.800 180.103, 355.169 165.247, 341 160.561 C 334.976 158.569, 327.417 157.933, 322.355 158.992 M 317.500 168.377 C 312.143 170.904, 306.530 176, 309.104 176 C 313.282 176, 325.489 183.348, 331.730 189.620 C 338.352 196.275, 345.068 200.172, 352.230 201.515 C 355.540 202.136, 355.749 202.007, 356.358 198.960 C 358.815 186.673, 352.148 173.806, 340.500 168.358 C 333.605 165.133, 324.363 165.141, 317.500 168.377 M 302.809 184.300 C 301.044 187.518, 301.393 199.780, 303.378 204.272 C 311.343 222.292, 335.497 226.763, 348.876 212.695 L 352.252 209.145 347.876 207.981 C 341.839 206.375, 333.082 201.588, 329.493 197.931 C 327.847 196.254, 325.375 193.738, 324 192.340 C 320.639 188.922, 313.965 185.095, 308.498 183.449 C 304.224 182.163, 303.961 182.202, 302.809 184.300 M 167.585 191.558 C 166.713 192.430, 166 193.529, 166 194 C 166 194.471, 166.713 195.570, 167.585 196.442 C 168.978 197.835, 173.159 197.995, 202.226 197.763 C 232.452 197.523, 235.377 197.350, 236.386 195.750 C 237.191 194.474, 237.191 193.526, 236.386 192.250 C 235.377 190.650, 232.452 190.477, 202.226 190.237 C 173.159 190.005, 168.978 190.165, 167.585 191.558 M 295.750 255.080 C 293.422 256.436, 293.524 259.675, 295.934 260.965 C 297.151 261.616, 309.608 262, 329.500 262 C 349.392 262, 361.849 261.616, 363.066 260.965 C 364.130 260.395, 365 259.061, 365 258 C 365 256.939, 364.130 255.605, 363.066 255.035 C 360.463 253.642, 298.147 253.684, 295.750 255.080 " stroke="none" fill="black" fill-rule="evenodd"/>
</svg>