<svg xmlns="http://www.w3.org/2000/svg" width="292" height="324" viewBox="0 0 292 324" version="1.1">
	<path d="M 63.870 127.071 C 49.137 129.235, 37.718 135.139, 26.429 146.429 C 14.601 158.256, 9.222 169.071, 6.914 185.661 C 5.024 199.249, 8.793 216.683, 16.124 228.264 C 35.966 259.611, 75.615 269.669, 107.167 251.360 C 117.033 245.634, 127.919 234.006, 132.861 223.913 C 137.237 214.976, 140 205.782, 140 200.160 C 140 197.079, 141.635 195.087, 156.500 180.059 C 165.575 170.884, 173 162.673, 173 161.811 C 173 159.313, 170.427 157.696, 168.314 158.865 C 167.316 159.417, 160.656 165.749, 153.512 172.936 L 140.525 186.004 138.770 178.752 C 135.813 166.535, 129.831 155.772, 121.121 146.995 C 109.603 135.389, 97.653 129.243, 82.284 127.020 C 74.551 125.902, 71.772 125.910, 63.870 127.071 M 57.500 135.870 C 37.436 141.645, 20.733 158.691, 15.585 178.644 C 13.554 186.517, 13.554 200.483, 15.585 208.356 C 20.838 228.716, 38.284 246.162, 58.644 251.415 C 66.517 253.446, 80.483 253.446, 88.356 251.415 C 109.042 246.078, 126.100 228.726, 131.485 207.540 C 134.493 195.708, 134.854 196.445, 117.500 178.969 C 108.975 170.383, 102 162.860, 102 162.251 C 102 160.831, 104.813 158, 106.225 158 C 106.819 158, 112.862 163.687, 119.653 170.637 C 126.444 177.587, 132 182.558, 132 181.682 C 132 179.080, 127.555 167.627, 124.509 162.380 C 117.697 150.648, 102.189 139.154, 88.356 135.585 C 80.226 133.488, 65.296 133.625, 57.500 135.870 M 199.250 190.662 C 197.121 191.521, 197.864 195.041, 201.016 199.020 C 202.675 201.115, 205.262 205.454, 206.765 208.664 C 209.199 213.860, 209.498 215.651, 209.498 225 C 209.498 234.388, 209.204 236.128, 206.722 241.430 C 205.195 244.692, 202.350 249.307, 200.401 251.686 C 196.361 256.617, 196.275 259.356, 200.146 259.806 C 203.523 260.198, 208.640 254.175, 213.226 244.408 C 216.339 237.778, 216.471 236.996, 216.485 225 C 216.499 212.928, 216.388 212.262, 213.212 205.557 C 209.680 198.099, 203.611 189.950, 201.683 190.079 C 201.032 190.122, 199.938 190.385, 199.250 190.662 M 259.505 194.127 C 251.020 203.518, 246.568 219.778, 248.903 232.844 C 250.486 241.705, 254.715 250.650, 260.062 256.451 C 264.570 261.342, 267.316 262.147, 268.966 259.063 C 269.826 257.456, 269.291 256.303, 265.834 252.313 C 252.448 236.860, 252.236 213.747, 265.337 198.167 C 268.311 194.630, 268.792 193.481, 267.955 191.917 C 266.348 188.913, 263.554 189.644, 259.505 194.127 " stroke="none" fill="black" fill-rule="evenodd"/>
</svg>