<svg xmlns="http://www.w3.org/2000/svg" width="244" height="324" viewBox="0 0 244 324" version="1.1">
	<path d="M 35.045 127.064 C 24.684 129.162, 14.828 136.537, 10.162 145.682 C 8.551 148.840, 6 158.911, 6 162.112 C 6 163.136, 8.947 166, 10 166 C 11.912 166, 14 162.663, 14 159.607 C 14 149.949, 22.088 138.862, 31.463 135.667 C 41.044 132.403, 52.075 134.141, 59.235 140.042 C 63.997 143.968, 69 153.984, 69 159.594 C 69 169.625, 63.665 187.762, 56.594 201.768 C 47.178 220.418, 32.036 237.486, 15.134 248.500 C 7.181 253.683, 5.966 254.840, 6.214 257 C 6.621 260.559, 9.973 260.690, 15.180 257.350 C 46.686 237.141, 67.840 206.644, 74.913 171.234 C 77.179 159.888, 76.608 153.807, 72.483 145.375 C 66.120 132.370, 49.350 124.167, 35.045 127.064 M 103.571 127.571 C 102.707 128.436, 102 129.529, 102 130 C 102 130.471, 102.707 131.564, 103.571 132.429 C 104.965 133.822, 111.901 134, 164.815 134 L 224.487 134 195.244 163.256 C 179.160 179.347, 166 193.207, 166 194.056 C 166 197.781, 167.686 198, 196.427 198 L 224.455 198 195.227 227.289 C 179.152 243.398, 166 257.091, 166 257.718 C 166 259.207, 168.984 262.174, 170.100 261.795 C 171.372 261.363, 238 194.696, 238 193.856 C 238 193.464, 237.293 192.436, 236.429 191.571 C 235.075 190.217, 230.959 190, 206.679 189.997 L 178.500 189.994 207.987 160.536 C 224.205 144.335, 237.612 130.664, 237.781 130.156 C 237.951 129.648, 237.362 128.505, 236.473 127.616 C 235.018 126.161, 228.388 126, 170 126 C 112.372 126, 104.968 126.175, 103.571 127.571 " stroke="none" fill="black" fill-rule="evenodd"/>
</svg>