<svg xmlns="http://www.w3.org/2000/svg" width="212" height="324" viewBox="0 0 212 324" version="1.1">
	<path d="M 200.200 127.200 C 199.291 128.109, 199 144.328, 199 194.078 C 199 264.854, 198.916 263.721, 203.936 261.034 C 205.989 259.935, 206 259.587, 206 194 C 206 129.841, 205.948 128.043, 204.066 127.035 C 201.655 125.745, 201.655 125.745, 200.200 127.200 M 7.571 191.571 C 6.707 192.436, 6 193.529, 6 194 C 6 194.471, 6.707 195.564, 7.571 196.429 C 8.844 197.701, 11.697 198, 22.576 198 L 36.009 198 25.111 219.750 C 19.118 231.713, 12.817 243.248, 11.109 245.385 C 6.077 251.681, 4.752 259.923, 8.538 261.376 C 11.159 262.382, 12.628 261.009, 15.587 254.788 C 19.396 246.781, 20.292 246, 25.671 246 C 29.488 246, 30.734 246.534, 33.600 249.400 C 35.970 251.770, 37 253.718, 37 255.829 C 37 258.700, 39.139 262, 41 262 C 43.415 262, 45.145 258.586, 44.497 255.096 C 42.904 246.519, 36.404 240.045, 27.804 238.473 L 24.108 237.798 32.791 220.399 C 37.566 210.829, 41.711 203, 42.001 203 C 42.290 203, 49.042 216.054, 57.004 232.009 C 70.718 259.488, 73.139 263.268, 75.926 261.545 C 76.446 261.224, 78.046 258.395, 79.482 255.258 C 83.173 247.196, 84.500 246, 89.755 246 C 93.477 246, 94.753 246.553, 97.600 249.400 C 99.560 251.360, 101 253.807, 101 255.177 C 101 257.693, 103.516 262, 104.985 262 C 106.645 262, 109 258.848, 109 256.625 C 109 255.397, 107.831 252.048, 106.403 249.182 C 103.556 243.469, 98.386 239.677, 91.804 238.473 L 88.108 237.798 96.791 220.399 C 101.566 210.829, 105.711 203, 106.001 203 C 106.290 203, 113.042 216.054, 121.004 232.009 C 130.274 250.584, 136.131 261.224, 137.289 261.592 C 139.983 262.447, 141.673 260.476, 142.309 255.735 C 144.031 242.890, 161.670 242.571, 165.079 255.323 C 166.866 262.008, 168.546 263.312, 171.529 260.328 C 175.348 256.509, 170.245 244.683, 163.249 241.142 C 154.718 236.824, 147.624 237.634, 140.917 243.694 C 138.734 245.667, 136.784 247.105, 136.585 246.890 C 136.386 246.676, 130.771 235.588, 124.107 222.250 L 111.992 198 125.425 198 C 136.303 198, 139.156 197.701, 140.429 196.429 C 141.293 195.564, 142 194.471, 142 194 C 142 193.529, 141.293 192.436, 140.429 191.571 C 139.032 190.175, 131.628 190, 74 190 C 16.372 190, 8.968 190.175, 7.571 191.571 M 60.107 222.250 C 66.771 235.588, 72.395 246.685, 72.605 246.911 C 73.947 248.351, 78.636 240.691, 88.619 220.750 L 100.008 198 74 198 L 47.992 198 60.107 222.250 " stroke="none" fill="black" fill-rule="evenodd"/>
</svg>