<svg xmlns="http://www.w3.org/2000/svg" width="244" height="324" viewBox="0 0 244 324" version="1.1">
	<path d="M 7.200 127.200 C 5.465 128.935, 5.465 259.065, 7.200 260.800 C 8.085 261.685, 17.117 262, 41.629 262 C 70.503 262, 75.063 261.794, 76.429 260.429 C 77.825 259.032, 78 251.628, 78 194 C 78 136.372, 77.825 128.968, 76.429 127.571 C 75.063 126.206, 70.503 126, 41.629 126 C 17.117 126, 8.085 126.315, 7.200 127.200 M 135.571 127.571 C 134.181 128.961, 134 135.418, 134 183.504 C 134 244.384, 134.838 238.089, 126.542 239.497 C 117.877 240.967, 103.086 249.850, 100.608 255.072 C 99.584 257.230, 101.351 260, 103.751 260 C 104.580 260, 107.057 258.375, 109.255 256.388 C 113.983 252.117, 123.783 247.346, 129.750 246.411 L 134 245.744 134 252.301 C 134 258.568, 135.416 262, 138 262 C 140.577 262, 142 258.567, 142 252.349 L 142 245.841 145.250 246.503 C 152.549 247.990, 160.656 252.741, 167.159 259.340 C 178.693 271.046, 193.821 275.856, 209.223 272.715 C 226.095 269.274, 240.745 257.990, 233.903 253.704 C 232.674 252.934, 231.052 253.651, 226.858 256.818 C 217.268 264.058, 212.973 265.500, 201 265.500 C 191.266 265.500, 190.008 265.267, 183.759 262.307 C 179.377 260.231, 175.395 257.352, 172.380 254.078 C 169.829 251.308, 165.626 247.685, 163.040 246.026 C 157.863 242.704, 148.007 239, 144.343 239 L 142 239 142 218.500 L 142 198 170 198 L 198 198 198 228.965 C 198 259.771, 198.011 259.936, 200.183 261.098 C 202.042 262.093, 202.636 261.933, 204.183 260.022 C 205.855 257.957, 206 255.204, 206 225.461 C 206 197.414, 205.792 192.935, 204.429 191.571 C 203.069 190.212, 198.758 190, 172.429 190 L 142 190 142 159.571 C 142 133.242, 141.788 128.931, 140.429 127.571 C 139.564 126.707, 138.471 126, 138 126 C 137.529 126, 136.436 126.707, 135.571 127.571 M 14 194 L 14 254 42 254 L 70 254 70 194 L 70 134 42 134 L 14 134 14 194 " stroke="none" fill="black" fill-rule="evenodd"/>
</svg>