<svg xmlns="http://www.w3.org/2000/svg" width="148" height="324" viewBox="0 0 148 324" version="1.1">
	<path d="M 55.571 63.571 C 54.707 64.436, 54 65.317, 54 65.531 C 54 66.316, 71.159 100.529, 71.965 101.349 C 74.275 103.702, 76.913 100.229, 84.760 84.501 C 89.292 75.417, 93 67.143, 93 66.115 C 93 63.642, 90.675 61.804, 88.569 62.612 C 87.643 62.967, 83.930 69.156, 80.318 76.364 L 73.750 89.470 67.252 76.485 C 59.693 61.381, 58.776 60.367, 55.571 63.571 M 7.571 127.571 C 6.175 128.968, 6 136.372, 6 194 C 6 251.628, 6.175 259.032, 7.571 260.429 C 8.436 261.293, 9.529 262, 10 262 C 10.471 262, 11.564 261.293, 12.429 260.429 C 13.825 259.032, 14 251.628, 14 194 C 14 136.372, 13.825 128.968, 12.429 127.571 C 11.564 126.707, 10.471 126, 10 126 C 9.529 126, 8.436 126.707, 7.571 127.571 M 135.750 127.080 C 134.111 128.035, 134 132.293, 134 194.015 C 134 259.587, 134.011 259.935, 136.064 261.034 C 141.084 263.721, 141 264.854, 141 194.078 C 141 123.068, 141.071 123.981, 135.750 127.080 M 71.571 159.571 C 70.288 160.855, 70 163.788, 70 175.571 L 70 190 55.571 190 C 43.788 190, 40.855 190.288, 39.571 191.571 C 37.598 193.545, 37.598 194.455, 39.571 196.429 C 40.855 197.712, 43.788 198, 55.571 198 L 70 198 70 212.429 C 70 224.212, 70.288 227.145, 71.571 228.429 C 73.545 230.402, 74.455 230.402, 76.429 228.429 C 77.712 227.145, 78 224.215, 78 212.455 L 78 198.053 92.643 197.777 C 105.314 197.537, 107.433 197.264, 108.387 195.750 C 109.191 194.475, 109.191 193.525, 108.387 192.250 C 107.433 190.736, 105.314 190.463, 92.643 190.223 L 78 189.947 78 175.545 C 78 163.785, 77.712 160.855, 76.429 159.571 C 75.564 158.707, 74.471 158, 74 158 C 73.529 158, 72.436 158.707, 71.571 159.571 " stroke="none" fill="black" fill-rule="evenodd"/>
</svg>