<svg xmlns="http://www.w3.org/2000/svg" width="244" height="324" viewBox="0 0 244 324" version="1.1">
	<path d="M 214.075 127.861 C 213.276 129.352, 213.971 130.989, 217.575 136.107 C 225.738 147.699, 227.932 160.533, 223.954 173.412 C 222.443 178.306, 219.952 182.634, 214.414 189.985 C 205.548 201.755, 202.516 207.956, 200.835 217.755 C 198.555 231.052, 203.096 246.725, 212.042 256.430 C 216.456 261.219, 218.894 262.038, 221.038 259.454 C 222.105 258.168, 221.958 257.452, 220.166 255.204 C 210.784 243.434, 207.889 236.414, 207.889 225.430 C 207.889 212.944, 209.579 208.615, 219.554 195.540 C 223.187 190.780, 227.586 183.873, 229.330 180.192 C 232.364 173.787, 232.500 172.964, 232.500 161 C 232.500 148.942, 232.384 148.254, 229.212 141.557 C 223.263 128.993, 216.664 123.023, 214.075 127.861 M 55.571 143.571 C 54.707 144.436, 54 145.644, 54 146.257 C 54 147.939, 88.204 182, 89.894 182 C 91.428 182, 123.403 150.866, 125.155 147.667 C 125.907 146.295, 125.723 145.351, 124.425 143.917 C 123.471 142.863, 122.230 142, 121.668 142 C 121.105 142, 113.750 148.844, 105.323 157.208 L 90 172.416 74.677 157.208 C 66.250 148.844, 58.857 142, 58.249 142 C 57.640 142, 56.436 142.707, 55.571 143.571 M 20.169 193.460 C 12.479 202.218, 8.620 212.757, 8.619 225 C 8.618 238.017, 12.746 248.480, 21.814 258.446 L 25.062 262.014 90.172 261.757 C 154.111 261.505, 155.302 261.464, 156.389 259.500 C 156.997 258.400, 158.533 256.035, 159.803 254.244 C 169.946 239.934, 172.089 220.335, 165.135 205.474 C 162.266 199.344, 157.699 192.368, 155.506 190.765 C 154.953 190.361, 124.959 190.024, 88.854 190.015 L 23.207 190 20.169 193.460 M 22.005 203.250 C 13.176 218.522, 14.167 236.864, 24.557 250.485 L 27.237 254 89.140 254 L 151.044 254 154.903 248.029 C 164.292 233.501, 164.214 215.274, 154.701 201.257 L 152.500 198.014 88.770 198.007 L 25.040 198 22.005 203.250 M 71.213 287.315 C 61.746 296.838, 54 305.131, 54 305.743 C 54 307.180, 56.815 310, 58.249 310 C 58.857 310, 66.250 303.156, 74.677 294.792 L 90 279.584 105.323 294.792 C 113.750 303.156, 121.105 310, 121.668 310 C 122.230 310, 123.471 309.137, 124.425 308.083 C 125.723 306.649, 125.907 305.705, 125.155 304.333 C 123.403 301.134, 91.428 270, 89.894 270 C 89.086 270, 80.680 277.792, 71.213 287.315 " stroke="none" fill="black" fill-rule="evenodd"/>
</svg>