<svg xmlns="http://www.w3.org/2000/svg" width="244" height="324" viewBox="0 0 244 324" version="1.1">
	<path d="M 183.571 63.571 C 182.707 64.436, 182 65.566, 182 66.083 C 182 67.618, 198.838 100.782, 199.974 101.484 C 202.685 103.159, 204.956 100.143, 212.760 84.501 C 217.292 75.417, 221 67.143, 221 66.115 C 221 63.642, 218.675 61.804, 216.569 62.612 C 215.643 62.967, 211.930 69.156, 208.318 76.363 L 201.751 89.469 195.767 77.484 C 189.953 65.839, 187.511 62, 185.916 62 C 185.491 62, 184.436 62.707, 183.571 63.571 M 71.571 159.571 C 70.707 160.436, 70 161.529, 70 162 C 70 162.471, 70.707 163.564, 71.571 164.429 C 72.436 165.293, 73.529 166, 74 166 C 74.471 166, 75.564 165.293, 76.429 164.429 C 77.293 163.564, 78 162.471, 78 162 C 78 161.529, 77.293 160.436, 76.429 159.571 C 75.564 158.707, 74.471 158, 74 158 C 73.529 158, 72.436 158.707, 71.571 159.571 M 7.579 191.564 C 6.710 192.432, 6 193.529, 6 194 C 6 194.471, 6.710 195.568, 7.579 196.436 C 8.990 197.847, 16.058 197.987, 74.220 197.757 C 134.934 197.517, 139.356 197.383, 140.386 195.750 C 141.191 194.474, 141.191 193.526, 140.386 192.250 C 139.356 190.617, 134.934 190.483, 74.220 190.243 C 16.058 190.013, 8.990 190.153, 7.579 191.564 M 167.571 191.571 C 166.707 192.436, 166 193.640, 166 194.249 C 166 194.857, 172.844 202.250, 181.208 210.677 L 196.416 226 181.208 241.323 C 172.844 249.750, 166 257.143, 166 257.751 C 166 258.967, 168.736 262, 169.834 262 C 170.213 262, 177.482 255.031, 185.987 246.514 L 201.449 231.027 217.045 246.514 C 225.623 255.031, 233.082 262, 233.621 262 C 235.106 262, 237 259.793, 237 258.062 C 237 257.216, 230.143 249.656, 221.762 241.262 L 206.524 226 221.762 210.738 C 230.143 202.344, 237 194.784, 237 193.938 C 237 192.207, 235.106 190, 233.621 190 C 233.082 190, 225.623 196.969, 217.045 205.486 L 201.449 220.973 185.987 205.486 C 177.482 196.969, 170.213 190, 169.834 190 C 169.454 190, 168.436 190.707, 167.571 191.571 " stroke="none" fill="black" fill-rule="evenodd"/>
</svg>