<svg xmlns="http://www.w3.org/2000/svg" width="340" height="324" viewBox="0 0 340 324" version="1.1">
	<path d="M 7.571 191.571 C 6.207 192.936, 6 197.463, 6 226 C 6 254.537, 6.207 259.064, 7.571 260.429 C 8.436 261.293, 9.529 262, 10 262 C 10.471 262, 11.564 261.293, 12.429 260.429 C 13.788 259.069, 14 254.758, 14 228.429 L 14 198 74 198 L 134 198 134 228.429 C 134 254.758, 134.212 259.069, 135.571 260.429 C 137.545 262.402, 138.455 262.402, 140.429 260.429 C 141.793 259.064, 142 254.537, 142 226 C 142 197.463, 141.793 192.936, 140.429 191.571 C 139.032 190.175, 131.628 190, 74 190 C 16.372 190, 8.968 190.175, 7.571 191.571 M 221.500 191.418 C 206.943 194.250, 195.959 200.142, 185.488 210.735 C 174.801 221.546, 167.989 236.187, 166.469 251.614 C 165.891 257.479, 166.055 258.912, 167.460 260.317 C 171.035 263.892, 174 260.864, 174 253.639 C 174 230.037, 194.615 205.310, 219.103 199.537 C 249.499 192.373, 280.053 209.278, 289.917 238.718 C 291.062 242.139, 292 245.507, 292 246.204 C 292 246.901, 286.209 241.693, 279.131 234.630 C 267.276 222.802, 266.089 221.882, 264.070 222.963 C 262.751 223.669, 262.002 224.888, 262.189 226.025 C 262.548 228.205, 295.670 262, 297.449 262 C 298.994 262, 332.399 228.420, 332.833 226.430 C 333.208 224.707, 331.297 222, 329.705 222 C 329.128 222, 322.301 228.299, 314.536 235.999 L 300.417 249.998 298.730 242.749 C 294.409 224.172, 280.969 206.709, 264.500 198.271 C 250.732 191.217, 235.233 188.747, 221.500 191.418 " stroke="none" fill="black" fill-rule="evenodd"/>
</svg>