<svg xmlns="http://www.w3.org/2000/svg" width="244" height="324" viewBox="0 0 244 324" version="1.1">
	<path d="M 7.571 191.571 C 6.707 192.436, 6 193.640, 6 194.249 C 6 194.857, 12.844 202.250, 21.208 210.677 L 36.416 226 21.208 241.323 C 12.844 249.750, 6 257.143, 6 257.751 C 6 259.181, 8.819 262, 10.249 262 C 10.857 262, 18.250 255.156, 26.677 246.792 L 42 231.584 57.323 246.792 C 65.750 255.156, 73.143 262, 73.751 262 C 75.181 262, 78 259.181, 78 257.751 C 78 257.143, 71.156 249.750, 62.792 241.323 L 47.584 226 62.792 210.677 C 71.156 202.250, 78 194.857, 78 194.249 C 78 192.819, 75.181 190, 73.751 190 C 73.143 190, 65.750 196.844, 57.323 205.208 L 42 220.416 26.677 205.208 C 18.250 196.844, 10.857 190, 10.249 190 C 9.640 190, 8.436 190.707, 7.571 191.571 M 103.579 191.564 C 100.158 194.985, 103.235 198, 110.148 198 L 115.154 198 112.156 200.998 C 107.943 205.211, 103.260 215.069, 102.471 221.388 C 100.944 233.611, 107.148 247.262, 117.317 254.053 C 124.381 258.770, 129.508 260.371, 137.500 260.356 C 149.166 260.334, 159.819 254.644, 166.349 244.948 L 169.680 240.002 170.862 242.597 C 174.398 250.356, 183.595 257.202, 193.775 259.651 C 208.929 263.297, 225.950 254.994, 233.033 240.500 C 235.129 236.213, 235.477 234.074, 235.477 225.500 C 235.477 214.284, 233.914 209.765, 227.409 202.165 L 223.931 198.102 229.612 197.801 C 235.976 197.464, 238.414 195.466, 236.386 192.250 C 235.356 190.617, 230.934 190.483, 170.220 190.243 C 112.058 190.013, 104.990 190.153, 103.579 191.564 M 127.741 199.429 C 120 202.191, 120.035 202.488, 129.170 211.671 L 137.457 220.001 145.692 211.809 C 154.838 202.711, 154.906 202.178, 147.260 199.573 C 141.673 197.669, 132.855 197.604, 127.741 199.429 M 162.173 200.750 C 163.575 202.262, 165.848 205.202, 167.225 207.283 L 169.730 211.067 170.939 208.148 C 171.603 206.543, 173.637 203.603, 175.459 201.615 L 178.770 198 169.198 198 L 159.626 198 162.173 200.750 M 191.603 199.477 C 183.528 202.354, 183.594 203.079, 192.764 212.249 L 200.985 220.470 209.503 211.997 C 218.013 203.531, 218.018 203.522, 215.818 201.863 C 210.670 197.980, 199.024 196.832, 191.603 199.477 M 114.192 210.269 C 109.752 215.619, 108.575 229.264, 111.918 236.627 C 112.948 238.896, 114.209 241.011, 114.718 241.326 C 115.228 241.641, 119.325 238.199, 123.823 233.678 L 132.001 225.457 123.671 217.170 C 116.884 210.419, 115.128 209.140, 114.192 210.269 M 150.598 217.154 L 143.023 225.308 150.338 233.346 C 154.361 237.767, 158.157 241.552, 158.773 241.758 C 160.804 242.435, 164.277 233.821, 164.776 226.865 C 165.180 221.235, 164.863 219.381, 162.681 214.615 C 161.268 211.527, 159.675 209, 159.142 209 C 158.609 209, 154.764 212.669, 150.598 217.154 M 178.192 210.269 C 173.641 215.752, 172.462 228.735, 175.824 236.335 C 176.896 238.759, 178.194 241.002, 178.709 241.320 C 179.224 241.638, 183.325 238.199, 187.823 233.678 L 196.001 225.457 187.671 217.170 C 180.884 210.419, 179.128 209.140, 178.192 210.269 M 214.727 216.772 C 210.477 221.047, 207 224.995, 207 225.546 C 207 226.667, 222.144 242, 223.252 242 C 223.641 242, 224.973 240.088, 226.212 237.750 C 228.008 234.363, 228.465 231.875, 228.465 225.500 C 228.465 219.125, 228.008 216.637, 226.212 213.250 C 224.973 210.912, 223.620 209, 223.206 209 C 222.792 209, 218.976 212.497, 214.727 216.772 M 129.104 239.395 L 120.752 247.791 123.253 249.430 C 130.691 254.304, 145.165 254.155, 151.818 249.137 C 154.019 247.477, 154.016 247.471, 145.739 239.237 L 137.457 230.999 129.104 239.395 M 192.477 239.059 L 184.500 247.118 186.830 249.034 C 192.486 253.685, 204.578 254.341, 212.937 250.449 L 218.375 247.918 209.959 239.459 C 205.331 234.807, 201.299 231, 200.999 231 C 200.699 231, 196.864 234.627, 192.477 239.059 " stroke="none" fill="black" fill-rule="evenodd"/>
</svg>