<svg xmlns="http://www.w3.org/2000/svg" width="308" height="324" viewBox="0 0 308 324" version="1.1">
	<path d="M 7.579 191.564 C 5.598 193.545, 5.596 194.454, 7.571 196.429 C 8.844 197.701, 11.697 198, 22.575 198 L 36.006 198 21.020 227.961 C 12.777 244.439, 6.285 258.580, 6.594 259.384 C 7.265 261.133, 9.512 262.125, 11.274 261.448 C 11.975 261.180, 19.056 247.919, 27.010 231.980 C 34.964 216.041, 41.717 203, 42.016 203 C 42.315 203, 49.071 216.093, 57.030 232.095 C 64.988 248.098, 71.842 261.402, 72.259 261.660 C 74.831 263.250, 77.526 258.979, 91.125 231.762 L 105.744 202.502 120.310 231.620 C 128.485 247.962, 135.617 261.023, 136.565 261.386 C 138.679 262.198, 141 260.358, 141 257.871 C 141 256.835, 134.480 242.952, 126.511 227.021 L 112.021 198.056 125.653 197.778 C 137.361 197.539, 139.441 197.253, 140.388 195.750 C 141.191 194.475, 141.190 193.525, 140.386 192.250 C 139.356 190.617, 134.934 190.483, 74.220 190.243 C 16.058 190.013, 8.990 190.153, 7.579 191.564 M 199.244 223.256 C 180.960 241.546, 166 257.206, 166 258.056 C 166 261.988, 166.212 262, 233.500 262 C 300.818 262, 301 261.989, 301 258.044 C 301 256.369, 235.151 190, 233.489 190 C 232.939 190, 217.529 204.965, 199.244 223.256 M 60.743 223.500 C 67.750 237.525, 73.715 249, 74 249 C 74.285 249, 80.250 237.525, 87.257 223.500 L 99.995 198 74 198 L 48.005 198 60.743 223.500 M 206 226.500 L 178.514 254 233.500 254 L 288.486 254 261 226.500 C 245.883 211.375, 233.508 199, 233.500 199 C 233.492 199, 221.117 211.375, 206 226.500 " stroke="none" fill="black" fill-rule="evenodd"/>
</svg>