<svg xmlns="http://www.w3.org/2000/svg" width="148" height="324" viewBox="0 0 148 324" version="1.1">
	<path d="M 71.550 62.918 C 67.869 68.875, 54.190 98.331, 54.604 99.410 C 55.269 101.144, 57.524 102.120, 59.295 101.440 C 60.007 101.167, 63.480 95.106, 67.014 87.972 C 70.547 80.837, 73.691 75, 74 75 C 74.309 75, 77.453 80.837, 80.986 87.972 C 84.520 95.106, 88.050 101.189, 88.832 101.489 C 90.716 102.212, 93 100.227, 93 97.866 C 93 95.626, 77.264 63.831, 75.628 62.765 C 74.071 61.751, 72.229 61.820, 71.550 62.918 M 65.384 191.357 C 54.664 194.073, 46.830 200.541, 41.740 210.877 C 38.989 216.464, 38.600 218.277, 38.600 225.500 C 38.600 232.734, 38.988 234.533, 41.762 240.168 C 43.501 243.700, 46.591 248.257, 48.628 250.295 L 52.333 254 30.738 254 C 12.439 254, 8.903 254.240, 7.571 255.571 C 5.596 257.546, 5.598 258.455, 7.579 260.436 C 8.990 261.847, 16.058 261.987, 74.220 261.757 C 134.934 261.517, 139.356 261.383, 140.386 259.750 C 141.191 258.474, 141.191 257.526, 140.387 256.250 C 139.398 254.682, 136.951 254.472, 116.831 254.232 L 94.378 253.963 98.526 249.634 C 105.594 242.258, 107.500 237.131, 107.500 225.500 C 107.500 216.914, 107.153 214.793, 105.049 210.500 C 97.872 195.856, 80.576 187.509, 65.384 191.357 M 63.603 199.477 C 56.077 202.159, 56.151 202.699, 65.278 211.779 L 73.543 220.001 81.840 211.661 L 90.137 203.320 87.819 201.826 C 81.679 197.868, 71.018 196.834, 63.603 199.477 M 49.570 211.253 C 44.719 218.656, 44.828 233.891, 49.775 239.955 C 51.490 242.057, 51.548 242.021, 59.751 233.763 L 68.001 225.457 59.605 217.104 L 51.209 208.752 49.570 211.253 M 86.860 217.266 L 79.295 225.531 87.015 233.766 C 91.261 238.295, 95.011 242, 95.348 242 C 95.684 242, 96.973 240.088, 98.212 237.750 C 100.008 234.363, 100.465 231.875, 100.465 225.500 C 100.465 219.125, 100.008 216.637, 98.212 213.250 C 96.973 210.912, 95.614 209, 95.192 209 C 94.770 209, 91.020 212.720, 86.860 217.266 M 65.170 239.329 C 56.017 248.530, 56.002 248.678, 63.962 251.487 C 71.564 254.169, 82.587 253.083, 87.818 249.137 C 90.019 247.477, 90.016 247.471, 81.739 239.237 L 73.457 230.999 65.170 239.329 " stroke="none" fill="black" fill-rule="evenodd"/>
</svg>