<svg xmlns="http://www.w3.org/2000/svg" width="148" height="324" viewBox="0 0 148 324" version="1.1">
	<path d="M 19.637 191.442 C 12.869 193.895, 7.865 199.873, 6.503 207.131 C 5.855 210.586, 7.593 214, 10 214 C 11.861 214, 14 210.700, 14 207.829 C 14 205.718, 15.030 203.770, 17.400 201.400 C 20.302 198.498, 21.488 198, 25.500 198 C 29.512 198, 30.698 198.498, 33.600 201.400 C 36.502 204.302, 37 205.488, 37 209.500 C 37 213.512, 36.502 214.698, 33.600 217.600 C 31.526 219.674, 29.214 221, 27.671 221 C 24.930 221, 22 223.325, 22 225.500 C 22 227.675, 24.930 230, 27.671 230 C 29.214 230, 31.526 231.326, 33.600 233.400 C 36.502 236.302, 37 237.488, 37 241.500 C 37 245.512, 36.502 246.698, 33.600 249.600 C 30.698 252.502, 29.512 253, 25.500 253 C 21.488 253, 20.302 252.502, 17.400 249.600 C 15.326 247.526, 14 245.214, 14 243.671 C 14 241.214, 11.733 238, 10 238 C 7.717 238, 5.916 241.344, 6.568 244.374 C 8.762 254.571, 19.337 262.377, 28.334 260.441 C 36.125 258.764, 42.564 252.581, 43.660 245.724 C 44.032 243.401, 44.336 241.500, 44.336 241.500 C 44.336 241.500, 44.029 239.582, 43.654 237.238 C 43.203 234.417, 41.801 231.678, 39.508 229.141 L 36.044 225.307 38.617 222.903 C 42.518 219.260, 44.286 215.079, 44.286 209.500 C 44.286 203.811, 42.503 199.726, 38.339 195.872 C 32.821 190.765, 25.978 189.143, 19.637 191.442 M 97.972 191.321 C 87.028 193.753, 78.954 200.290, 73.690 210.979 C 70.905 216.636, 70.500 218.478, 70.500 225.500 C 70.500 232.533, 70.903 234.361, 73.712 240.066 C 79.193 251.200, 87.792 257.807, 99.562 259.927 C 114.265 262.577, 128.794 255.369, 135.999 241.851 C 138.727 236.732, 139.438 234.140, 139.788 228.025 C 140.302 219.073, 139.181 214.377, 134.778 207.035 C 127.396 194.726, 112.079 188.187, 97.972 191.321 M 94.373 199.918 C 92.104 200.948, 89.908 202.340, 89.494 203.009 C 89.015 203.785, 91.689 207.174, 96.864 212.349 L 104.985 220.470 113.456 212.044 C 122.853 202.695, 122.927 202.185, 115.260 199.573 C 108.963 197.427, 99.514 197.583, 94.373 199.918 M 82.192 210.269 C 77.752 215.619, 76.575 229.264, 79.918 236.627 C 80.948 238.896, 82.209 241.011, 82.718 241.326 C 83.228 241.641, 87.325 238.199, 91.823 233.678 L 100.001 225.457 91.671 217.170 C 84.884 210.419, 83.128 209.140, 82.192 210.269 M 118.727 216.772 C 114.477 221.047, 111 224.995, 111 225.546 C 111 226.667, 126.144 242, 127.252 242 C 127.641 242, 128.973 240.088, 130.212 237.750 C 132.008 234.363, 132.465 231.875, 132.465 225.500 C 132.465 219.125, 132.008 216.637, 130.212 213.250 C 128.973 210.912, 127.620 209, 127.206 209 C 126.792 209, 122.976 212.497, 118.727 216.772 M 96.477 239.059 L 88.500 247.118 90.830 249.034 C 95.737 253.069, 107.248 254.235, 115.038 251.487 C 122.998 248.678, 122.983 248.530, 113.830 239.329 C 109.273 234.748, 105.299 231, 104.999 231 C 104.699 231, 100.864 234.627, 96.477 239.059 " stroke="none" fill="black" fill-rule="evenodd"/>
</svg>