<svg xmlns="http://www.w3.org/2000/svg" width="340" height="324" viewBox="0 0 340 324" version="1.1">
	<path d="M 23.571 63.571 C 22.707 64.436, 22 65.317, 22 65.531 C 22 66.993, 39.421 100.653, 40.488 101.252 C 41.225 101.665, 42.440 101.768, 43.187 101.482 C 45.102 100.747, 62.082 66.377, 61.403 64.609 C 60.732 62.858, 58.483 61.877, 56.705 62.560 C 55.993 62.833, 52.520 68.894, 48.986 76.028 C 45.453 83.163, 42.308 89, 41.997 89 C 41.687 89, 38.748 83.534, 35.467 76.853 C 27.925 61.499, 26.847 60.296, 23.571 63.571 M 262.612 128.250 C 261.823 129.488, 246.852 159.187, 229.343 194.249 C 203.084 246.832, 197.702 258.304, 198.613 259.749 C 199.644 261.383, 204.028 261.518, 264.109 261.776 C 299.524 261.928, 329.463 261.819, 330.640 261.535 C 331.817 261.250, 333.046 260.322, 333.373 259.471 C 333.989 257.866, 269.713 128.117, 267.631 126.765 C 265.647 125.476, 264.086 125.938, 262.612 128.250 M 236.747 196.500 L 208.002 254 265.501 254 C 297.126 254, 323 253.773, 323 253.497 C 323 252.838, 266.074 139, 265.744 139 C 265.605 139, 252.557 164.875, 236.747 196.500 M 33.384 159.412 C 15.475 163.758, 3.559 181.807, 6.987 199.396 C 8.500 207.161, 12.212 214.019, 17.580 218.967 C 40.258 239.870, 76.252 224.246, 76.252 193.500 C 76.252 176.888, 65.367 163.178, 49.147 159.360 C 42.397 157.772, 40.111 157.779, 33.384 159.412 M 103.200 159.200 C 101.481 160.919, 101.481 227.081, 103.200 228.800 C 104.085 229.685, 113.117 230, 137.629 230 C 166.503 230, 171.063 229.794, 172.429 228.429 C 173.793 227.064, 174 222.537, 174 194 C 174 165.463, 173.793 160.936, 172.429 159.571 C 171.063 158.206, 166.503 158, 137.629 158 C 113.117 158, 104.085 158.315, 103.200 159.200 M 31.054 167.728 C 25.018 169.859, 17.781 177.260, 15.667 183.463 C 11.995 194.241, 14.382 205.477, 21.952 213.048 C 32.402 223.497, 49.888 223.773, 60.280 213.653 C 66.701 207.401, 68.500 202.989, 68.500 193.500 C 68.500 184.011, 66.701 179.599, 60.280 173.347 C 53.109 166.363, 41.332 164.099, 31.054 167.728 M 110 194 L 110 222 138 222 L 166 222 166 194 L 166 166 138 166 L 110 166 110 194 M 39.571 191.571 C 38.707 192.436, 38 193.529, 38 194 C 38 195.111, 40.889 198, 42 198 C 43.111 198, 46 195.111, 46 194 C 46 192.889, 43.111 190, 42 190 C 41.529 190, 40.436 190.707, 39.571 191.571 " stroke="none" fill="black" fill-rule="evenodd"/>
</svg>