<svg xmlns="http://www.w3.org/2000/svg" width="403" height="324" viewBox="0 0 403 324" version="1.1">
	<path d="M 72.316 62.784 C 70.369 64.022, 54.007 97.855, 54.604 99.410 C 55.450 101.615, 58.110 102.210, 59.895 100.594 C 60.778 99.795, 64.185 93.709, 67.467 87.070 C 70.748 80.432, 73.687 75, 73.997 75 C 74.308 75, 77.453 80.837, 80.986 87.972 C 84.520 95.106, 88.050 101.189, 88.832 101.489 C 90.716 102.212, 93 100.227, 93 97.866 C 93 95.626, 77.264 63.831, 75.628 62.765 C 74.214 61.845, 73.789 61.847, 72.316 62.784 M 35.045 127.093 C 19.668 130.106, 7.255 144.071, 6.841 158.824 C 6.689 164.231, 10.459 179.667, 14.976 192.133 C 18.628 202.212, 26.063 215.568, 33.594 225.579 C 47.004 243.404, 74.270 264.227, 77.454 259.074 C 77.769 258.565, 81.706 255.570, 86.203 252.418 C 102.600 240.929, 117.372 223.764, 126.690 205.375 C 132.983 192.954, 135.411 186.228, 138.391 172.949 C 140.338 164.278, 140.599 161.373, 139.856 156.639 C 138.570 148.437, 135.379 142.276, 129.342 136.339 C 113.918 121.173, 87.653 124.286, 76 142.662 L 73.312 146.900 71.124 143.007 C 64.719 131.611, 48.499 124.456, 35.045 127.093 M 183.213 143.315 C 173.746 152.838, 166 161.131, 166 161.743 C 166 162.951, 168.728 166, 169.808 166 C 170.175 166, 176.667 159.819, 184.237 152.263 L 198 138.527 198 199.063 C 198 260.397, 198.090 262, 201.515 262 C 203.016 262, 236.411 228.366, 236.833 226.430 C 237.208 224.709, 235.297 222, 233.708 222 C 233.132 222, 226.430 228.173, 218.816 235.718 L 204.971 249.436 205.015 188.545 C 205.060 126.207, 205.053 126.068, 201.463 126.015 C 200.892 126.007, 192.680 133.792, 183.213 143.315 M 319.531 127.067 C 291.403 131.384, 269.346 152.352, 263.583 180.254 C 261.421 190.721, 261.503 195.664, 263.862 196.926 C 267.155 198.688, 268.646 196.158, 269.919 186.650 C 271.857 172.164, 277.314 160.862, 287.088 151.088 C 297.948 140.228, 309.914 135.059, 326.012 134.275 C 344.154 133.391, 358.831 138.900, 371.146 151.215 C 381.449 161.518, 388.919 178.689, 388.983 192.215 C 389.002 196.428, 391.359 198.498, 394.276 196.866 C 398.145 194.700, 395.123 176.104, 388.856 163.512 C 376.197 138.075, 347.184 122.823, 319.531 127.067 M 31.748 135.427 C 23.566 138.346, 15.839 147.077, 14.518 154.893 C 13.681 159.850, 17.098 176.394, 21.507 188.729 C 29.749 211.789, 46.627 233.650, 66.868 247.480 L 73.830 252.237 81.406 247 C 106.389 229.729, 125.124 201.311, 131.495 171.022 C 133.741 160.345, 133.447 156.214, 129.940 149.196 C 124.861 139.032, 116.432 133.980, 104.624 134.022 C 97.621 134.047, 92.185 136.143, 86.752 140.913 C 82.287 144.833, 78 153.190, 78 157.974 C 78 161.875, 75.695 166, 73.515 166 C 71.134 166, 69 162.978, 69 159.607 C 69 149.949, 60.912 138.862, 51.537 135.667 C 45.704 133.680, 36.941 133.573, 31.748 135.427 M 324 159.175 C 322.075 159.722, 319.084 161.244, 317.352 162.558 C 311.307 167.144, 307.777 178.740, 311.776 180.880 C 314.145 182.148, 317 180.493, 317 177.851 C 317 174.344, 320.141 168.979, 323.085 167.456 C 334.030 161.796, 345.454 173.199, 339.159 183.500 C 337.315 186.519, 335.034 187.968, 329.500 189.638 L 326.500 190.544 326.212 201.008 C 325.969 209.860, 326.183 211.661, 327.601 212.697 C 328.770 213.552, 329.839 213.621, 331.138 212.926 C 332.713 212.083, 333 210.711, 333 204.032 C 333 196.711, 333.164 196.085, 335.250 195.451 C 339.129 194.273, 343.939 190.039, 346.009 185.982 C 351.451 175.314, 345.423 162.361, 333.500 159.104 C 328.890 157.845, 328.676 157.846, 324 159.175 M 327.724 222.134 C 323.838 224.309, 327.294 229.983, 331.224 227.880 C 332.201 227.357, 333 226.061, 333 225 C 333 222.485, 330.005 220.858, 327.724 222.134 " stroke="none" fill="black" fill-rule="evenodd"/>
</svg>