<svg xmlns="http://www.w3.org/2000/svg" width="340" height="324" viewBox="0 0 340 324" version="1.1">
	<path d="M 72.316 62.784 C 70.369 64.022, 54.007 97.855, 54.604 99.410 C 55.269 101.144, 57.524 102.120, 59.295 101.440 C 60.007 101.167, 63.480 95.106, 67.014 87.972 C 70.547 80.837, 73.691 75, 74 75 C 74.309 75, 77.453 80.837, 80.986 87.972 C 84.520 95.106, 87.993 101.167, 88.705 101.440 C 90.487 102.124, 92.732 101.141, 93.407 99.381 C 93.997 97.844, 77.582 64.037, 75.628 62.765 C 74.214 61.845, 73.789 61.847, 72.316 62.784 M 295.750 127.080 C 294.186 127.991, 294 130.007, 294 146.015 C 294 163.091, 294.097 163.981, 296.064 165.034 C 300.445 167.379, 301 165.247, 301 146.078 C 301 126.416, 300.430 124.354, 295.750 127.080 M 103.571 159.571 C 102.707 160.436, 102 161.636, 102 162.239 C 102 162.841, 107.941 169.334, 115.202 176.667 L 128.405 190 68.774 190 C 15.897 190, 8.965 190.178, 7.571 191.571 C 5.598 193.545, 5.598 194.455, 7.571 196.429 C 8.965 197.822, 15.897 198, 68.774 198 L 128.405 198 115.202 211.333 C 107.941 218.666, 102 225.159, 102 225.761 C 102 227.202, 104.832 230, 106.290 230 C 107.969 230, 142 195.693, 142 194 C 142 192.307, 107.969 158, 106.290 158 C 105.659 158, 104.436 158.707, 103.571 159.571 M 263.750 159.082 C 262.788 159.642, 262 160.858, 262 161.786 C 262 162.714, 267.956 169.442, 275.236 176.737 L 288.472 190 228.808 190 C 175.900 190, 168.965 190.178, 167.571 191.571 C 165.598 193.545, 165.598 194.455, 167.571 196.429 C 168.965 197.822, 175.900 198, 228.808 198 L 288.472 198 275.236 211.263 C 267.956 218.558, 262 225.292, 262 226.228 C 262 227.164, 262.952 228.439, 264.115 229.062 C 266.040 230.092, 267.774 228.675, 283.348 213.347 C 300.797 196.174, 301.958 194.961, 301.985 193.886 C 302.002 193.179, 267.261 158.610, 266.202 158.282 C 265.816 158.162, 264.712 158.522, 263.750 159.082 M 295.750 223.080 C 294.186 223.991, 294 226.007, 294 242.015 C 294 259.091, 294.097 259.981, 296.064 261.034 C 300.445 263.379, 301 261.247, 301 242.078 C 301 222.416, 300.430 220.354, 295.750 223.080 " stroke="none" fill="black" fill-rule="evenodd"/>
</svg>