<svg xmlns="http://www.w3.org/2000/svg" width="468" height="324" viewBox="0 0 468 324" version="1.1">
	<path d="M 375.571 63.571 C 374.707 64.436, 374 65.609, 374 66.178 C 374 66.747, 377.226 70.540, 381.169 74.607 L 388.338 82 381.169 89.393 C 377.226 93.460, 374 97.253, 374 97.822 C 374 99.161, 376.839 102, 378.178 102 C 378.747 102, 382.540 98.774, 386.607 94.831 L 394 87.662 401.393 94.831 C 405.460 98.774, 409.253 102, 409.822 102 C 411.161 102, 414 99.161, 414 97.822 C 414 97.253, 410.774 93.460, 406.831 89.393 L 399.662 82 406.831 74.607 C 410.774 70.540, 414 66.747, 414 66.178 C 414 64.839, 411.161 62, 409.822 62 C 409.253 62, 405.460 65.226, 401.393 69.169 L 394 76.338 386.607 69.169 C 382.540 65.226, 378.747 62, 378.178 62 C 377.609 62, 376.436 62.707, 375.571 63.571 M 61.500 127.401 C 36.003 132.318, 15.028 151.893, 8.352 177 C 6.055 185.639, 6.055 201.361, 8.352 210 C 12.494 225.576, 23.742 241.101, 37.307 249.965 L 43.483 254 26.313 254 C 12.037 254, 8.878 254.265, 7.571 255.571 C 5.598 257.545, 5.598 258.455, 7.571 260.429 C 8.968 261.825, 16.372 262, 74 262 C 131.628 262, 139.032 261.825, 140.429 260.429 C 142.402 258.455, 142.402 257.545, 140.429 255.571 C 139.119 254.261, 135.917 254, 121.187 254 L 103.517 254 109.693 249.965 C 118.494 244.214, 128.961 232.622, 133.313 223.806 C 138.458 213.383, 140.333 205.288, 140.333 193.500 C 140.333 181.692, 138.469 173.665, 133.249 163 C 128.083 152.445, 114.546 138.911, 104 133.756 C 90.332 127.076, 75.043 124.790, 61.500 127.401 M 199.267 159.267 C 180.970 177.563, 166 193.056, 166 193.695 C 166 195.187, 168.799 198, 170.285 198 C 170.913 198, 185.506 183.947, 202.713 166.771 L 234 135.542 265.287 166.771 C 282.494 183.947, 297.087 198, 297.715 198 C 299.201 198, 302 195.187, 302 193.695 C 302 191.982, 235.721 126, 234 126 C 233.193 126, 217.563 140.970, 199.267 159.267 M 390.571 127.571 C 389.651 128.492, 388.994 130.873, 388.985 133.321 C 388.888 160.782, 360.782 188.888, 333.321 188.985 C 329.426 188.999, 326 190.878, 326 193 C 326 193.471, 326.732 194.589, 327.627 195.485 C 330.687 198.545, 347.724 195.277, 359.806 189.313 C 368.622 184.961, 380.214 174.494, 385.965 165.693 L 390 159.517 390 209.187 C 390 253.008, 390.185 259.042, 391.571 260.429 C 393.387 262.244, 393.947 262.319, 396 261.022 C 397.289 260.207, 397.570 253.151, 398 210.910 L 398.500 161.746 401.769 166.792 C 406.783 174.532, 418.783 185.161, 427.194 189.313 C 439.456 195.366, 457.179 198.678, 460.348 195.509 C 462.404 193.453, 462.418 192.561, 460.429 190.571 C 459.453 189.596, 457.082 188.994, 454.179 188.985 C 426.221 188.897, 398.113 161.039, 398.015 133.321 C 398 129.093, 396.092 126, 393.500 126 C 392.754 126, 391.436 126.707, 390.571 127.571 M 58.645 135.584 C 38.671 140.419, 20.279 158.986, 15.537 179.103 C 10.672 199.742, 16.569 220.600, 31.484 235.516 C 55.022 259.054, 92.029 259.068, 115.548 235.548 C 123.508 227.589, 129.851 216.212, 131.910 206.201 C 133.441 198.760, 133.241 186.646, 131.463 179.103 C 126.662 158.739, 108.261 140.338, 87.897 135.537 C 79.998 133.676, 66.439 133.697, 58.645 135.584 M 231.571 159.571 C 230.324 160.819, 230 163.528, 230 172.716 L 230 184.290 224.560 179.145 C 221.568 176.315, 218.675 174, 218.131 174 C 216.829 174, 214 176.861, 214 178.178 C 214 178.747, 217.226 182.540, 221.169 186.607 L 228.338 194 221.169 201.393 C 217.226 205.460, 214 209.253, 214 209.822 C 214 211.139, 216.829 214, 218.131 214 C 218.675 214, 221.568 211.685, 224.560 208.855 L 230 203.710 230 215.284 C 230 224.472, 230.324 227.181, 231.571 228.429 C 233.545 230.402, 234.455 230.402, 236.429 228.429 C 237.676 227.181, 238 224.472, 238 215.284 L 238 203.710 243.440 208.855 C 246.432 211.685, 249.325 214, 249.869 214 C 251.171 214, 254 211.139, 254 209.822 C 254 209.253, 250.774 205.460, 246.831 201.393 L 239.662 194 246.831 186.607 C 250.774 182.540, 254 178.747, 254 178.178 C 254 176.861, 251.171 174, 249.869 174 C 249.325 174, 246.432 176.315, 243.440 179.145 L 238 184.290 238 172.716 C 238 163.528, 237.676 160.819, 236.429 159.571 C 235.564 158.707, 234.471 158, 234 158 C 233.529 158, 232.436 158.707, 231.571 159.571 " stroke="none" fill="black" fill-rule="evenodd"/>
</svg>