<svg xmlns="http://www.w3.org/2000/svg" width="403" height="324" viewBox="0 0 403 324" version="1.1">
	<path d="M 35.045 127.064 C 19.586 130.194, 7.255 144.080, 6.841 158.824 C 6.689 164.231, 10.459 179.667, 14.976 192.133 C 18.628 202.212, 26.063 215.568, 33.594 225.579 C 47.004 243.404, 74.270 264.227, 77.454 259.074 C 77.769 258.565, 81.508 255.697, 85.763 252.701 C 102.969 240.589, 117.138 224.222, 126.626 205.500 C 132.984 192.954, 135.404 186.258, 138.391 172.949 C 141.073 161.005, 140.685 154.601, 136.771 146.189 C 133.590 139.351, 125.301 131.635, 118.297 128.990 C 110.449 126.028, 100.463 126.004, 92.798 128.931 C 86.375 131.383, 78.360 138.060, 75.529 143.317 L 73.640 146.824 70.976 142.624 C 63.636 131.049, 48.255 124.389, 35.045 127.064 M 183.213 143.315 C 173.746 152.838, 166 161.131, 166 161.743 C 166 162.951, 168.728 166, 169.808 166 C 170.175 166, 176.667 159.819, 184.237 152.263 L 198 138.527 198 199.063 C 198 260.397, 198.090 262, 201.515 262 C 203.016 262, 236.411 228.366, 236.833 226.430 C 237.207 224.710, 235.298 222, 233.710 222 C 233.136 222, 226.666 227.941, 219.333 235.202 L 206 248.405 206 188.774 C 206 135.897, 205.822 128.965, 204.429 127.571 C 203.564 126.707, 202.310 126, 201.641 126 C 200.972 126, 192.680 133.792, 183.213 143.315 M 319.531 127.067 C 291.403 131.384, 269.346 152.352, 263.583 180.254 C 261.336 191.130, 261.480 195.651, 264.117 197.062 C 267.374 198.806, 268.575 196.650, 269.916 186.650 C 271.860 172.159, 277.316 160.860, 287.088 151.088 C 297.948 140.228, 309.914 135.059, 326.012 134.275 C 344.154 133.391, 358.831 138.900, 371.146 151.215 C 381.449 161.518, 388.919 178.689, 388.983 192.215 C 389.002 196.428, 391.359 198.498, 394.276 196.866 C 398.091 194.731, 395.123 176.088, 388.982 163.615 C 376.508 138.277, 347.150 122.828, 319.531 127.067 M 31.591 135.573 C 23.309 138.608, 15.842 147.057, 14.518 154.893 C 13.681 159.850, 17.098 176.394, 21.507 188.729 C 29.718 211.703, 46.703 233.702, 66.868 247.480 L 73.830 252.237 81.406 247 C 106.389 229.729, 125.124 201.311, 131.495 171.022 C 133.741 160.345, 133.447 156.214, 129.940 149.196 C 124.547 138.404, 115.427 133.343, 102.977 134.234 C 98.050 134.586, 94.906 135.451, 91.680 137.342 C 83.949 141.872, 78.067 150.781, 78.022 158.027 C 77.998 161.891, 75.675 166, 73.515 166 C 71.134 166, 69 162.978, 69 159.607 C 69 149.949, 60.912 138.862, 51.537 135.667 C 45.642 133.659, 36.928 133.618, 31.591 135.573 M 324 159.153 C 322.075 159.712, 319.084 161.244, 317.352 162.558 C 311.307 167.144, 307.777 178.740, 311.776 180.880 C 314.145 182.148, 317 180.493, 317 177.851 C 317 174.344, 320.141 168.979, 323.085 167.456 C 334.030 161.796, 345.454 173.199, 339.159 183.500 C 337.315 186.519, 335.034 187.968, 329.500 189.638 L 326.500 190.544 326.212 201.008 C 325.969 209.860, 326.183 211.661, 327.601 212.697 C 328.770 213.552, 329.839 213.621, 331.138 212.926 C 332.713 212.083, 333 210.711, 333 204.032 C 333 196.711, 333.164 196.085, 335.250 195.451 C 342.402 193.279, 348.011 185.279, 347.984 177.290 C 347.942 165.232, 335.491 155.816, 324 159.153 M 327.724 222.134 C 323.838 224.309, 327.294 229.983, 331.224 227.880 C 332.201 227.357, 333 226.061, 333 225 C 333 222.485, 330.005 220.858, 327.724 222.134 " stroke="none" fill="black" fill-rule="evenodd"/>
</svg>