<svg xmlns="http://www.w3.org/2000/svg" width="84" height="324" viewBox="0 0 84 324" version="1.1">
	<path d="M 40.372 62.765 C 38.418 64.037, 22.003 97.844, 22.593 99.381 C 23.268 101.141, 25.513 102.124, 27.295 101.440 C 28.007 101.167, 31.480 95.106, 35.014 87.972 C 38.547 80.837, 41.691 75, 42 75 C 42.309 75, 45.453 80.837, 48.986 87.972 C 52.520 95.106, 55.993 101.167, 56.705 101.440 C 58.487 102.124, 60.732 101.141, 61.407 99.381 C 61.716 98.575, 58.096 90.173, 53.363 80.708 C 45.638 65.261, 43.672 62.031, 42 62.031 C 41.725 62.031, 40.992 62.361, 40.372 62.765 M 7.627 127.515 C 5.597 129.546, 5.587 130.444, 7.571 132.429 C 8.538 133.395, 10.888 134, 13.677 134 C 31.527 134, 53.172 148.078, 62.268 165.603 C 77.780 195.490, 65.791 232.397, 35.889 246.808 C 20.223 254.359, 20.009 253.653, 33.750 239.732 C 40.488 232.906, 46 226.831, 46 226.232 C 46 224.814, 43.173 222, 41.747 222 C 40.832 222, 9.293 252.228, 6.794 255.500 C 6.374 256.050, 6.024 257.161, 6.015 257.968 C 5.998 259.676, 40.001 294, 41.710 294 C 43.171 294, 46 291.201, 46 289.756 C 46 289.150, 39.682 282.283, 31.961 274.495 L 17.922 260.336 23.711 259.074 C 57.166 251.780, 80.829 218.324, 76.033 185.100 C 73.858 170.032, 68.368 158.610, 58.027 147.635 C 46.482 135.383, 32.569 128.580, 14.877 126.537 C 10.402 126.020, 8.923 126.220, 7.627 127.515 " stroke="none" fill="black" fill-rule="evenodd"/>
</svg>