<svg xmlns="http://www.w3.org/2000/svg" width="340" height="324" viewBox="0 0 340 324" version="1.1">
	<path d="M 7.627 127.515 C 6.732 128.411, 6 129.529, 6 130 C 6 132.122, 9.426 134.001, 13.321 134.015 C 32.426 134.082, 53.897 148.438, 62.809 167.101 C 67.167 176.226, 69 183.322, 69 191.062 C 69 195.240, 67.816 198.390, 61.515 210.970 C 54.288 225.399, 53.532 228.223, 56.577 229.391 C 59.364 230.461, 60.668 228.784, 67.014 215.972 C 70.547 208.837, 73.691 203, 74 203 C 74.309 203, 77.453 208.837, 80.986 215.972 C 87.332 228.784, 88.636 230.461, 91.423 229.391 C 94.488 228.215, 93.685 225.347, 85.985 209.970 C 77.126 192.278, 76.658 189.989, 79.585 178.644 C 85.939 154.018, 110.316 134.090, 134.179 134.015 C 137.082 134.006, 139.453 133.404, 140.429 132.429 C 142.464 130.393, 142.410 129.681, 140.055 127.550 C 138.313 125.973, 137.272 125.902, 130.108 126.866 C 114.227 129.003, 103.017 134.246, 91.895 144.738 C 84.300 151.902, 78.895 159.461, 75.634 167.477 L 73.455 172.832 71.558 168.166 C 63.797 149.071, 45.991 133.542, 26.202 128.608 C 15.985 126.061, 9.466 125.677, 7.627 127.515 M 263.585 127.558 C 261.598 129.545, 261.595 130.452, 263.571 132.429 C 264.855 133.712, 267.788 134, 279.571 134 L 294 134 294 194 L 294 254 279.571 254 C 267.788 254, 264.855 254.288, 263.571 255.571 C 261.595 257.548, 261.598 258.455, 263.585 260.442 C 264.978 261.835, 269.159 261.995, 298.226 261.763 C 328.452 261.523, 331.377 261.350, 332.386 259.750 C 333.190 258.475, 333.191 257.525, 332.387 256.250 C 331.430 254.730, 329.291 254.464, 316.142 254.224 L 301 253.948 301 194 L 301 134.052 316.142 133.776 C 329.291 133.536, 331.430 133.270, 332.387 131.750 C 333.191 130.475, 333.190 129.525, 332.386 128.250 C 331.377 126.650, 328.452 126.477, 298.226 126.237 C 269.159 126.005, 264.978 126.165, 263.585 127.558 M 194.344 158.988 C 184.010 161.166, 173.930 169.366, 169.417 179.266 C 165.446 187.975, 165.356 198.913, 169.189 207.175 C 179.755 229.957, 207.963 235.725, 225.353 218.661 C 233.450 210.714, 235.500 205.633, 235.500 193.500 C 235.500 181.464, 233.483 176.393, 225.518 168.404 C 217.736 160.597, 204.983 156.745, 194.344 158.988 M 191.627 167.468 C 186.247 169.386, 181.039 173.829, 177.500 179.519 C 173.527 185.908, 172.712 197.311, 175.741 204.129 C 180.181 214.120, 188.127 219.919, 198.521 220.754 C 210.446 221.711, 220.036 216.794, 225.500 206.921 C 228.132 202.166, 228.500 200.518, 228.500 193.500 C 228.500 186.487, 228.130 184.829, 225.500 180.061 C 222.429 174.492, 216.651 169.526, 210.684 167.326 C 206.327 165.720, 196.323 165.794, 191.627 167.468 M 167.585 255.558 C 166.713 256.430, 166 257.529, 166 258 C 166 258.471, 166.713 259.570, 167.585 260.442 C 168.978 261.835, 173.159 261.995, 202.226 261.763 C 232.452 261.523, 235.377 261.350, 236.386 259.750 C 237.191 258.474, 237.191 257.526, 236.386 256.250 C 235.377 254.650, 232.452 254.477, 202.226 254.237 C 173.159 254.005, 168.978 254.165, 167.585 255.558 " stroke="none" fill="black" fill-rule="evenodd"/>
</svg>