<svg xmlns="http://www.w3.org/2000/svg" width="308" height="324" viewBox="0 0 308 324" version="1.1">
	<path d="M 7.571 127.571 C 6.175 128.968, 6.002 136.388, 6.016 194.321 C 6.028 244.993, 6.327 260.757, 7.360 265.147 C 13.465 291.084, 44.606 301.302, 64.413 283.868 C 69.946 278.997, 73.270 273.587, 75.696 265.500 C 77.337 260.031, 77.520 253.731, 77.763 194.336 C 78.001 135.954, 77.863 129.006, 76.443 127.586 C 74.455 125.598, 73.548 125.595, 71.571 127.571 C 70.182 128.961, 70 135.345, 70 182.699 L 70 236.255 65.599 232.198 C 51.626 219.318, 31.863 219.095, 17.955 231.660 L 14 235.233 14 182.188 C 14 135.298, 13.818 128.961, 12.429 127.571 C 11.564 126.707, 10.471 126, 10 126 C 9.529 126, 8.436 126.707, 7.571 127.571 M 126.582 135.250 C 112.571 149.521, 105.499 164.013, 102.855 183.874 C 101.882 191.182, 101.874 195.209, 102.819 202.692 C 105.360 222.808, 112.395 237.222, 127 252.237 L 136.500 262.004 201.256 262.002 L 266.011 262 271.842 256.250 C 284.933 243.341, 292.799 230.650, 297.234 215.285 C 300.485 204.021, 300.468 182.922, 297.198 171.585 C 292.784 156.277, 285.115 143.767, 273.086 132.250 L 266.558 126 201.111 126 L 135.663 126 126.582 135.250 M 133.360 138.236 C 123.968 146.893, 115.267 161.727, 111.932 174.766 C 109.297 185.067, 109.297 201.933, 111.932 212.234 C 115.368 225.668, 124.216 240.514, 134.065 249.368 L 139.216 254 201.182 254 L 263.148 254 269.194 248.250 C 284.755 233.451, 292.347 215.497, 292.347 193.500 C 292.347 171.917, 285.778 155.801, 270.641 140.250 L 264.558 134 201.257 134 L 137.955 134 133.360 138.236 M 162.355 159.039 C 150.722 161.342, 139.498 171.410, 136.023 182.661 C 133.469 190.931, 133.471 196.077, 136.034 204.374 C 139.866 216.780, 152.057 226.703, 165.659 228.486 C 175.396 229.763, 189.123 224.397, 195.497 216.821 L 198 213.847 198 220.888 C 198 226.979, 198.279 228.079, 200.064 229.034 C 204.316 231.310, 205 229.071, 205 212.878 L 205 198 233.500 198 L 262 198 262 212.965 C 262 227.061, 262.120 227.994, 264.064 229.034 C 265.596 229.854, 266.498 229.832, 267.564 228.947 C 269.703 227.172, 269.703 160.828, 267.564 159.053 C 266.498 158.168, 265.596 158.146, 264.064 158.966 C 262.120 160.006, 262 160.939, 262 175.035 L 262 190 233.500 190 L 205 190 205 175.122 C 205 158.929, 204.316 156.690, 200.064 158.966 C 198.302 159.909, 198 161.026, 198 166.612 L 198 173.153 195.497 170.179 C 191.773 165.753, 184.243 161.298, 177.530 159.550 C 171.070 157.867, 168.684 157.787, 162.355 159.039 M 159.885 167.380 C 148.704 171.375, 141.875 181.280, 141.875 193.500 C 141.875 208.854, 152.151 219.797, 167.494 220.781 C 173.739 221.182, 175.551 220.895, 180.205 218.764 C 202.175 208.706, 202.400 178.545, 180.581 168.386 C 174.782 165.685, 165.843 165.251, 159.885 167.380 M 31.054 231.728 C 25.018 233.859, 17.781 241.260, 15.667 247.463 C 9.189 266.476, 21.963 285, 41.552 285 C 56.843 285, 69 272.819, 69 257.500 C 69 246.038, 61.486 235.200, 50.965 231.488 C 45.610 229.598, 36.784 229.705, 31.054 231.728 " stroke="none" fill="black" fill-rule="evenodd"/>
</svg>