<svg xmlns="http://www.w3.org/2000/svg" width="308" height="324" viewBox="0 0 308 324" version="1.1">
	<path d="M 71.200 127.200 C 70.292 128.108, 70 143.689, 70 191.200 L 70 254 39.571 254 C 13.242 254, 8.931 254.212, 7.571 255.571 C 5.596 257.546, 5.598 258.455, 7.579 260.436 C 8.990 261.847, 16.058 261.987, 74.220 261.757 C 134.934 261.517, 139.356 261.383, 140.386 259.750 C 141.191 258.474, 141.191 257.526, 140.386 256.250 C 139.381 254.655, 136.566 254.477, 108.641 254.236 L 78 253.971 78 225.986 L 78 198 108.250 197.985 C 124.888 197.976, 139.081 197.601, 139.791 197.150 C 141.679 195.953, 141.679 128.047, 139.791 126.850 C 137.610 125.466, 72.602 125.798, 71.200 127.200 M 167.200 127.200 C 165.465 128.935, 165.465 259.065, 167.200 260.800 C 168.935 262.535, 298.065 262.535, 299.800 260.800 C 301.535 259.065, 301.535 128.935, 299.800 127.200 C 298.065 125.465, 168.935 125.465, 167.200 127.200 M 78 162 L 78 190 106 190 L 134 190 134 162 L 134 134 106 134 L 78 134 78 162 M 204 159.500 C 218.017 173.525, 229.601 185, 229.743 185 C 229.884 185, 230 173.525, 230 159.500 L 230 134 204.257 134 L 178.515 134 204 159.500 M 237 159.743 L 237 185.485 262.500 160 C 276.525 145.983, 288 134.399, 288 134.257 C 288 134.116, 276.525 134, 262.500 134 L 237 134 237 159.743 M 173 164.500 L 173 190 198.743 190 L 224.485 190 199 164.500 C 184.983 150.475, 173.399 139, 173.257 139 C 173.116 139, 173 150.475, 173 164.500 M 268 164.500 L 242.515 190 268.257 190 L 294 190 294 164.500 C 294 150.475, 293.884 139, 293.743 139 C 293.601 139, 282.017 150.475, 268 164.500 M 173 223.743 L 173 249.485 198.500 224 C 212.525 209.983, 224 198.399, 224 198.257 C 224 198.116, 212.525 198, 198.500 198 L 173 198 173 223.743 M 268 223.500 C 282.017 237.525, 293.601 249, 293.743 249 C 293.884 249, 294 237.525, 294 223.500 L 294 198 268.257 198 L 242.515 198 268 223.500 M 204 228.500 L 178.515 254 204.257 254 L 230 254 230 228.500 C 230 214.475, 229.884 203, 229.743 203 C 229.601 203, 218.017 214.475, 204 228.500 M 237 228.500 L 237 254 262.743 254 L 288.485 254 263 228.500 C 248.983 214.475, 237.399 203, 237.257 203 C 237.116 203, 237 214.475, 237 228.500 " stroke="none" fill="black" fill-rule="evenodd"/>
</svg>