<svg xmlns="http://www.w3.org/2000/svg" width="468" height="324" viewBox="0 0 468 324" version="1.1">
	<path d="M 7.571 127.571 C 6.707 128.436, 6 129.529, 6 130 C 6 130.471, 6.707 131.564, 7.571 132.429 C 8.966 133.824, 16.152 134, 71.571 134 L 134 134 134 194 L 134 254 71.571 254 C 16.152 254, 8.966 254.176, 7.571 255.571 C 5.598 257.545, 5.598 258.455, 7.571 260.429 C 8.968 261.825, 16.406 262, 74.371 262 C 123.771 262, 139.891 261.709, 140.800 260.800 C 142.535 259.065, 142.535 128.935, 140.800 127.200 C 139.891 126.291, 123.771 126, 74.371 126 C 16.406 126, 8.968 126.175, 7.571 127.571 M 199.230 159.285 C 180.953 177.591, 166 193.084, 166 193.713 C 166 195.191, 168.808 198, 170.285 198 C 170.913 198, 185.506 183.947, 202.713 166.771 L 234 135.542 265.287 166.771 C 282.494 183.947, 297.087 198, 297.715 198 C 299.192 198, 302 195.191, 302 193.713 C 302 191.963, 235.757 126, 234 126 C 233.153 126, 217.506 140.978, 199.230 159.285 M 327.571 191.571 C 326.707 192.436, 326 193.529, 326 194 C 326 194.471, 326.707 195.564, 327.571 196.429 C 328.968 197.825, 336.372 198, 394 198 C 451.628 198, 459.032 197.825, 460.429 196.429 C 461.293 195.564, 462 194.471, 462 194 C 462 193.529, 461.293 192.436, 460.429 191.571 C 459.032 190.175, 451.628 190, 394 190 C 336.372 190, 328.968 190.175, 327.571 191.571 M 391.571 223.571 C 390.707 224.436, 390 225.529, 390 226 C 390 227.111, 392.889 230, 394 230 C 395.111 230, 398 227.111, 398 226 C 398 224.889, 395.111 222, 394 222 C 393.529 222, 392.436 222.707, 391.571 223.571 " stroke="none" fill="black" fill-rule="evenodd"/>
</svg>