<svg xmlns="http://www.w3.org/2000/svg" width="308" height="324" viewBox="0 0 308 324" version="1.1">
	<path d="M 55.571 63.571 C 54.707 64.436, 54 65.317, 54 65.531 C 54 66.993, 71.421 100.653, 72.488 101.252 C 73.225 101.665, 74.440 101.768, 75.188 101.481 C 76.837 100.849, 93 68.755, 93 66.115 C 93 63.770, 90.710 61.790, 88.832 62.511 C 88.050 62.811, 84.520 68.894, 80.986 76.028 C 77.453 83.163, 74.306 89, 73.994 89 C 73.683 89, 70.969 83.984, 67.964 77.854 C 62.437 66.580, 59.559 62, 57.999 62 C 57.528 62, 56.436 62.707, 55.571 63.571 M 35.650 127.064 C 20.120 129.621, 7.411 143.607, 6.912 158.693 C 6.728 164.229, 10.436 179.602, 14.976 192.133 C 18.628 202.212, 26.063 215.568, 33.594 225.579 C 47.004 243.404, 74.270 264.227, 77.454 259.074 C 77.769 258.565, 81.706 255.570, 86.203 252.418 C 112.393 234.066, 132.136 203.704, 138.590 171.852 C 140.892 160.493, 140.145 152.929, 135.945 145.049 C 123.475 121.651, 90.203 120.318, 76.014 142.647 L 73.379 146.793 70.535 142.298 C 63.454 131.105, 49.123 124.847, 35.650 127.064 M 183.239 143.260 C 173.758 152.754, 166 161.288, 166 162.225 C 166 163.163, 166.939 164.432, 168.087 165.047 C 169.970 166.054, 171.537 164.813, 184.087 152.378 L 198 138.592 198 199.261 C 198 256.353, 198.105 259.986, 199.776 260.880 C 200.902 261.483, 202.182 261.478, 203.276 260.866 C 204.879 259.969, 205 255.627, 205 199.246 L 205 138.592 218.913 152.378 C 231.627 164.976, 233.011 166.065, 234.973 165.014 C 236.266 164.323, 236.998 163.103, 236.811 161.953 C 236.468 159.845, 203.279 126, 201.554 126 C 200.963 126, 192.721 133.767, 183.239 143.260 M 263.724 127.134 C 262.121 128.031, 262 132.373, 262 188.754 L 262 249.408 248.087 235.622 C 235.537 223.187, 233.970 221.946, 232.087 222.953 C 230.939 223.568, 230 224.847, 230 225.796 C 230 227.590, 263.761 262, 265.521 262 C 267.266 262, 301 227.556, 301 225.775 C 301 224.837, 300.061 223.568, 298.913 222.953 C 297.030 221.946, 295.463 223.187, 282.913 235.622 L 269 249.408 269 188.739 C 269 131.647, 268.895 128.014, 267.224 127.120 C 266.098 126.517, 264.818 126.522, 263.724 127.134 M 29.199 136.588 C 23.118 139.618, 17.737 145.503, 15.363 151.719 C 13.773 155.882, 13.779 156.725, 15.457 166.314 C 21.257 199.451, 40.089 229.183, 66.868 247.480 L 73.830 252.237 81.605 246.869 C 102.434 232.485, 119.579 209.320, 127.766 184.500 C 133.875 165.980, 134.255 156.914, 129.306 147.820 C 124.385 138.780, 115.803 133.982, 104.624 134.022 C 91.087 134.071, 80.259 143.620, 77.999 157.504 C 77.032 163.450, 75.666 166, 73.449 166 C 71.128 166, 69 162.941, 69 159.607 C 69 149.949, 60.912 138.862, 51.537 135.667 C 44.062 133.120, 35.445 133.476, 29.199 136.588 " stroke="none" fill="black" fill-rule="evenodd"/>
</svg>