<svg xmlns="http://www.w3.org/2000/svg" width="340" height="324" viewBox="0 0 340 324" version="1.1">
	<path d="M 7.532 127.610 C 6.078 129.065, 5.950 135.804, 6.211 197.360 L 6.500 265.500 9.160 271.175 C 19.725 293.712, 47.021 299.624, 65.100 283.290 C 70.079 278.792, 73.361 273.282, 75.696 265.500 C 77.337 260.031, 77.520 253.731, 77.763 194.336 C 78.001 135.954, 77.863 129.006, 76.443 127.586 C 74.455 125.598, 73.548 125.595, 71.571 127.571 C 70.182 128.961, 70 135.345, 70 182.699 L 70 236.255 65.599 232.198 C 51.592 219.287, 31.897 219.064, 17.955 231.660 L 14 235.233 14 182.188 C 14 135.298, 13.818 128.961, 12.429 127.571 C 10.447 125.590, 9.546 125.597, 7.532 127.610 M 216.530 142 L 200.424 158 168.412 158 C 144.847 158, 136.083 158.317, 135.200 159.200 C 134.317 160.083, 134 168.847, 134 192.412 L 134 224.424 118 240.530 C 109.200 249.389, 102 257.137, 102 257.747 C 102 259.182, 104.818 262, 106.253 262 C 106.863 262, 114.611 254.800, 123.470 246 L 139.576 230 171.217 230 C 198.647 230, 203.066 229.791, 204.429 228.429 C 205.791 227.066, 206 222.643, 206 195.166 L 206 163.476 221.500 148 C 231.486 138.030, 237 131.791, 237 130.462 C 237 128.285, 235.268 126, 233.619 126 C 233.079 126, 225.389 133.200, 216.530 142 M 263.750 127.080 C 262.111 128.035, 262 132.289, 262 193.927 C 262 248.419, 262.236 259.951, 263.369 260.891 C 264.345 261.701, 274.290 261.952, 298.010 261.764 C 328.441 261.523, 331.377 261.351, 332.386 259.750 C 333.191 258.474, 333.191 257.526, 332.386 256.250 C 331.381 254.655, 328.566 254.477, 300.641 254.236 L 270 253.971 270 192.208 C 270 137.926, 269.811 130.176, 268.443 128.223 C 266.702 125.736, 266.248 125.625, 263.750 127.080 M 295.315 175.213 C 285.792 184.680, 278 193.134, 278 194 C 278 195.680, 311.953 230, 313.615 230 C 315.117 230, 317.002 227.787, 316.981 226.050 C 316.970 225.198, 310.242 217.596, 302.029 209.157 L 287.097 193.815 301.798 178.848 C 309.884 170.616, 316.650 163.211, 316.833 162.393 C 317.211 160.697, 315.283 158, 313.692 158 C 313.108 158, 304.838 165.746, 295.315 175.213 M 142 191.242 L 142 216.485 167 191.500 C 180.750 177.758, 192 166.399, 192 166.258 C 192 166.116, 180.750 166, 167 166 L 142 166 142 191.242 M 172.500 197 L 147.515 222 172.758 222 L 198 222 198 197 C 198 183.250, 197.884 172, 197.742 172 C 197.601 172, 186.242 183.250, 172.500 197 M 31.054 231.677 C 25.005 233.881, 17.763 241.312, 15.667 247.463 C 9.122 266.673, 22.106 285.195, 41.928 284.924 C 52.902 284.774, 61.124 279.556, 66.004 269.644 C 68.895 263.771, 69.188 262.382, 68.817 256.295 C 67.881 240.913, 57.729 230.893, 42.500 230.320 C 37.941 230.148, 33.950 230.621, 31.054 231.677 " stroke="none" fill="black" fill-rule="evenodd"/>
</svg>