<svg xmlns="http://www.w3.org/2000/svg" width="468" height="324" viewBox="0 0 468 324" version="1.1">
	<path d="M 39.267 159.267 L 6 192.533 6 225.695 C 6 254.509, 6.206 259.063, 7.571 260.429 C 8.968 261.825, 16.372 262, 74 262 C 131.628 262, 139.032 261.825, 140.429 260.429 C 141.794 259.063, 142 254.509, 142 225.695 L 142 192.533 108.733 159.267 C 90.437 140.970, 74.807 126, 74 126 C 73.193 126, 57.563 140.970, 39.267 159.267 M 215.213 143.315 C 205.746 152.838, 198 161.131, 198 161.743 C 198 163.175, 200.813 166, 202.239 166 C 202.841 166, 209.334 160.059, 216.667 152.798 L 230 139.595 230 194 L 230 248.405 216.667 235.202 C 209.334 227.941, 202.841 222, 202.239 222 C 200.825 222, 198 224.820, 198 226.232 C 198 226.831, 203.512 232.922, 210.250 239.767 C 221.806 251.507, 222.302 252.173, 219 251.517 C 217.075 251.135, 211.720 249.017, 207.101 246.810 C 188.436 237.895, 174.082 216.425, 174.015 197.321 C 174.001 193.426, 172.122 190, 170 190 C 169.529 190, 168.399 190.743, 167.491 191.652 C 164.356 194.787, 167.559 211.320, 173.756 224 C 178.924 234.572, 192.441 248.079, 203.060 253.282 C 213.977 258.630, 231.666 262.518, 238.278 261.022 C 240.600 260.497, 245.623 259.373, 249.440 258.526 C 261.509 255.847, 270.337 250.741, 280.539 240.539 C 292.988 228.089, 298.477 216.621, 300.478 198.877 C 300.981 194.415, 300.776 192.919, 299.485 191.627 C 298.589 190.732, 297.471 190, 297 190 C 294.946 190, 293 193.416, 293 197.022 C 293 216.262, 278.611 237.896, 259.899 246.791 C 244.230 254.239, 244.042 253.620, 257.750 239.732 C 264.488 232.906, 270 226.831, 270 226.232 C 270 224.820, 267.175 222, 265.761 222 C 265.159 222, 258.666 227.941, 251.333 235.202 L 238 248.405 238 194 L 238 139.595 251.333 152.798 C 258.666 160.059, 265.159 166, 265.761 166 C 267.187 166, 270 163.175, 270 161.743 C 270 159.994, 235.761 126, 234 126 C 233.134 126, 224.680 133.792, 215.213 143.315 M 381.500 127.401 C 356.255 132.270, 335.601 151.354, 328.364 176.500 C 326.900 181.586, 326.577 188.303, 326.246 220.606 C 325.893 254.956, 326.017 258.874, 327.499 260.356 C 328.990 261.848, 335.157 262, 394 262 C 451.628 262, 459.032 261.825, 460.429 260.429 C 461.791 259.066, 462 254.649, 462 227.239 C 462 208.871, 461.545 193.081, 460.914 189.560 C 456.835 166.808, 453.204 159.126, 440.539 146.461 C 433.572 139.494, 429.781 136.582, 424 133.756 C 410.332 127.076, 395.043 124.790, 381.500 127.401 M 379.217 135.449 C 362.756 139.435, 347.478 151.839, 340.165 167.154 C 337.974 171.744, 335.690 177.885, 335.090 180.799 C 334.429 184.014, 334 199.452, 334 220.049 L 334 254 394.114 254 L 454.228 254 453.742 219.750 C 453.351 192.223, 452.933 184.322, 451.613 179.500 C 446.762 161.781, 435.254 147.485, 420 140.225 C 415.325 138, 409.115 135.690, 406.201 135.090 C 399.260 133.662, 385.861 133.841, 379.217 135.449 M 43.744 165.756 L 14 195.512 14 224.756 L 14 254 74 254 L 134 254 134 224.744 L 134 195.487 104.244 165.744 C 87.878 149.385, 74.263 136, 73.988 136 C 73.713 136, 60.103 149.390, 43.744 165.756 " stroke="none" fill="black" fill-rule="evenodd"/>
</svg>