<svg xmlns="http://www.w3.org/2000/svg" width="148" height="324" viewBox="0 0 148 324" version="1.1">
	<path d="M 71.571 159.571 C 70.288 160.855, 70 163.788, 70 175.571 L 70 190 39.571 190 C 13.242 190, 8.931 190.212, 7.571 191.571 C 5.598 193.545, 5.598 194.455, 7.571 196.429 C 8.931 197.788, 13.242 198, 39.571 198 L 70 198 70 212.429 C 70 224.212, 70.288 227.145, 71.571 228.429 C 73.545 230.402, 74.455 230.402, 76.429 228.429 C 77.793 227.064, 78 222.537, 78 194 C 78 165.463, 77.793 160.936, 76.429 159.571 C 75.564 158.707, 74.471 158, 74 158 C 73.529 158, 72.436 158.707, 71.571 159.571 M 119.315 175.213 C 109.792 184.680, 102 193.134, 102 194 C 102 195.680, 135.953 230, 137.615 230 C 139.129 230, 141 227.784, 141 225.992 C 141 225.107, 134.479 217.659, 126.509 209.442 C 118.539 201.224, 112.017 194.275, 112.015 194 C 112.013 193.725, 118.534 186.750, 126.506 178.500 C 134.477 170.250, 141 162.803, 141 161.950 C 141 160.207, 139.109 158, 137.615 158 C 137.073 158, 128.838 165.746, 119.315 175.213 M 135.750 191.080 C 133.372 192.465, 133.542 195.685, 136.064 197.034 C 139.753 199.008, 142.819 194.219, 139.800 191.200 C 138.367 189.767, 138.022 189.757, 135.750 191.080 " stroke="none" fill="black" fill-rule="evenodd"/>
</svg>