<svg xmlns="http://www.w3.org/2000/svg" width="436" height="324" viewBox="0 0 436 324" version="1.1">
	<path d="M 63.102 127.162 C 37.816 130.777, 15.183 151.403, 8.414 177 C 6.134 185.626, 6.134 201.374, 8.414 210 C 12.552 225.647, 23.709 241.079, 37.307 249.965 L 43.483 254 26.313 254 C 12.037 254, 8.878 254.265, 7.571 255.571 C 5.598 257.545, 5.598 258.455, 7.571 260.429 C 8.968 261.825, 16.372 262, 74 262 C 131.628 262, 139.032 261.825, 140.429 260.429 C 142.244 258.614, 142.319 258.054, 141.023 256 C 140.259 254.788, 136.578 254.404, 121.857 254 L 103.638 253.500 109.667 249.782 C 122.775 241.700, 134.943 224.717, 138.617 209.376 C 140.725 200.578, 140.725 186.422, 138.617 177.624 C 136.241 167.702, 129.650 155.726, 122.246 147.878 C 111.216 136.185, 98.049 129.299, 82.398 127.037 C 74.447 125.887, 71.899 125.904, 63.102 127.162 M 258.801 126.999 C 245.210 129.373, 232.785 142.408, 230.514 156.673 C 229.063 165.791, 234.802 186.920, 243.504 204.500 C 250.200 218.029, 259.185 230.117, 270.511 240.839 C 278.778 248.664, 295.976 261, 298.619 261 C 299.316 261, 300.475 260.211, 301.193 259.246 C 301.912 258.281, 304.525 256.184, 307 254.585 C 324.528 243.267, 341.681 223.853, 351.189 204.572 L 354.429 198 385.451 198 L 416.472 198 403.236 211.263 C 395.956 218.558, 390 225.292, 390 226.228 C 390 227.164, 390.952 228.439, 392.115 229.062 C 394.040 230.092, 395.775 228.675, 411.354 213.347 C 420.772 204.081, 428.843 195.938, 429.289 195.250 C 429.734 194.563, 429.734 193.438, 429.289 192.750 C 428.843 192.063, 420.772 183.919, 411.354 174.653 C 395.775 159.325, 394.040 157.908, 392.115 158.938 C 390.952 159.561, 390 160.836, 390 161.772 C 390 162.708, 395.956 169.442, 403.236 176.737 L 416.472 190 387.236 190 C 367.210 190, 358 189.664, 358 188.934 C 358 188.348, 358.403 187.111, 358.896 186.184 C 359.389 185.258, 360.909 179.523, 362.274 173.440 C 365.077 160.953, 364.732 154.703, 360.771 146.189 C 357.607 139.388, 349.305 131.643, 342.297 128.955 C 333.884 125.728, 323.156 125.866, 315.662 129.297 C 309.202 132.255, 300.775 139.714, 298.970 144.073 L 297.728 147.070 294.415 142.149 C 286.532 130.444, 272.718 124.568, 258.801 126.999 M 57.500 135.870 C 37.436 141.645, 20.733 158.691, 15.585 178.644 C 13.554 186.517, 13.554 200.483, 15.585 208.356 C 20.889 228.914, 38.828 246.683, 59.103 251.463 C 67.282 253.390, 79.718 253.390, 87.897 251.463 C 113.802 245.356, 133 220.685, 133 193.500 C 133 166.315, 113.802 141.644, 87.897 135.537 C 79.386 133.531, 65.080 133.688, 57.500 135.870 M 255.385 135.617 C 245.726 139.043, 238 149.714, 238 159.631 C 238 174.667, 246.259 197.526, 258.186 215.500 C 264.686 225.295, 280.020 240.827, 289.634 247.352 C 297.823 252.911, 297.033 253.015, 308.070 244.905 C 316.232 238.907, 330.252 224.469, 335.653 216.498 C 340.041 210.022, 346 199.754, 346 198.669 C 346 198.301, 335.007 198, 321.571 198 C 300.697 198, 296.914 197.771, 295.571 196.429 C 294.707 195.564, 294 194.471, 294 194 C 294 193.529, 294.707 192.436, 295.571 191.571 C 296.921 190.222, 300.875 190, 323.528 190 L 349.913 190 352.525 181.750 C 356.192 170.168, 357.579 159.601, 356.124 154.343 C 354.036 146.802, 349.177 140.893, 342 137.170 C 335.931 134.022, 334.995 133.827, 327.883 134.226 C 321.958 134.559, 319.261 135.243, 315.739 137.307 C 307.900 141.901, 302.066 150.761, 302.022 158.139 C 301.993 162.857, 299.158 166.502, 296.239 165.576 C 293.919 164.840, 293.481 163.819, 292.560 156.995 C 291.285 147.558, 283.516 138.368, 274.101 135.159 C 269.535 133.602, 260.438 133.825, 255.385 135.617 M 167.585 191.558 C 166.713 192.430, 166 193.529, 166 194 C 166 194.471, 166.713 195.570, 167.585 196.442 C 168.978 197.835, 173.159 197.995, 202.226 197.763 C 232.452 197.523, 235.377 197.350, 236.386 195.750 C 237.191 194.474, 237.191 193.526, 236.386 192.250 C 235.377 190.650, 232.452 190.477, 202.226 190.237 C 173.159 190.005, 168.978 190.165, 167.585 191.558 " stroke="none" fill="black" fill-rule="evenodd"/>
</svg>