<svg xmlns="http://www.w3.org/2000/svg" width="308" height="324" viewBox="0 0 308 324" version="1.1">
	<path d="M 167.315 159.213 C 157.792 168.680, 150 177.214, 150 178.177 C 150 179.141, 150.956 180.441, 152.125 181.067 C 154.033 182.088, 155.032 181.427, 161.894 174.605 L 169.538 167.006 181.003 178.503 L 192.467 190 100.805 190 C 18.809 190, 8.977 190.166, 7.571 191.571 C 4.148 194.995, 7.242 198, 14.190 198 L 19.237 198 16.244 201.062 C 8.737 208.740, 4.914 221.372, 7 231.604 C 10.897 250.717, 28.582 263.390, 46.698 260.051 C 57.498 258.061, 65.599 252.855, 70.898 244.500 L 73.564 240.295 76.532 245.228 C 79.863 250.764, 88.575 257.221, 95.344 259.171 C 109.772 263.326, 125.954 257.414, 134.373 244.912 L 137.728 239.930 138.989 242.973 C 141.035 247.912, 147.715 253.972, 154.737 257.258 C 170.501 264.635, 189.892 258.782, 198.778 243.965 C 203.184 236.618, 204.304 231.917, 203.774 223 C 203.281 214.717, 200.441 207.850, 194.898 201.537 L 191.793 198 197.196 198 C 202.687 198, 205 196.833, 205 194.062 C 205 193.216, 198.146 185.659, 189.769 177.268 L 174.537 162.013 181.769 154.733 C 185.746 150.729, 189 146.766, 189 145.926 C 189 144.203, 187.101 142, 185.615 142 C 185.073 142, 176.838 149.746, 167.315 159.213 M 231.750 191.080 C 229.422 192.436, 229.524 195.675, 231.934 196.965 C 233.005 197.538, 240.151 198, 247.934 198 L 262 198 262 226 L 262 254 247.934 254 C 233.308 254, 230 254.738, 230 258 C 230 259.061, 230.870 260.395, 231.934 260.965 C 234.564 262.372, 296.436 262.372, 299.066 260.965 C 300.130 260.395, 301 259.061, 301 258 C 301 254.738, 297.692 254, 283.066 254 L 269 254 269 226 L 269 198 283.066 198 C 297.692 198, 301 197.262, 301 194 C 301 192.939, 300.130 191.605, 299.066 191.035 C 296.463 189.642, 234.147 189.684, 231.750 191.080 M 31.605 199.568 C 24.049 202.337, 24.073 202.527, 33.170 211.671 L 41.457 220.001 49.692 211.809 C 58.838 202.711, 58.906 202.178, 51.260 199.573 C 45.620 197.651, 36.842 197.649, 31.605 199.568 M 65.926 200.145 C 67.192 201.325, 69.446 204.211, 70.934 206.557 L 73.640 210.824 75.570 207.239 C 76.632 205.268, 78.772 202.382, 80.327 200.827 L 83.154 198 73.388 198 L 63.623 198 65.926 200.145 M 95.603 199.477 C 88 202.186, 88.059 202.741, 96.946 212.068 L 104.968 220.487 113.494 212.006 C 122.013 203.532, 122.018 203.522, 119.818 201.863 C 114.670 197.980, 103.024 196.832, 95.603 199.477 M 130.173 200.750 C 131.575 202.262, 133.848 205.202, 135.225 207.283 L 137.730 211.067 138.939 208.148 C 139.603 206.543, 141.637 203.603, 143.459 201.615 L 146.770 198 137.198 198 L 127.626 198 130.173 200.750 M 159.603 199.477 C 151.527 202.355, 151.593 203.078, 160.772 212.257 L 169 220.485 177.698 211.788 L 186.395 203.091 180.947 200.555 C 174.680 197.638, 165.994 197.199, 159.603 199.477 M 17.570 211.253 C 13.740 217.098, 12.885 227.372, 15.573 235.260 C 18.178 242.906, 18.711 242.838, 27.809 233.692 L 36.001 225.457 27.605 217.104 L 19.209 208.752 17.570 211.253 M 55.237 217.261 L 46.999 225.543 55.459 233.959 L 63.918 242.375 66.449 236.937 C 70.270 228.730, 69.683 217.208, 65.137 211.182 C 63.477 208.981, 63.471 208.984, 55.237 217.261 M 82.192 210.269 C 77.752 215.619, 76.575 229.264, 79.918 236.627 C 80.948 238.896, 82.209 241.011, 82.718 241.326 C 83.228 241.641, 87.325 238.199, 91.823 233.678 L 100.001 225.457 91.671 217.170 C 84.884 210.419, 83.128 209.140, 82.192 210.269 M 118.727 216.772 C 114.477 221.047, 111 224.995, 111 225.546 C 111 226.667, 126.144 242, 127.252 242 C 127.641 242, 128.973 240.088, 130.212 237.750 C 132.008 234.363, 132.465 231.875, 132.465 225.500 C 132.465 219.125, 132.008 216.637, 130.212 213.250 C 128.973 210.912, 127.620 209, 127.206 209 C 126.792 209, 122.976 212.497, 118.727 216.772 M 143.998 214.226 C 142.491 217.729, 141.750 221.446, 141.750 225.500 C 141.750 231.160, 145.130 242, 146.895 242 C 147.252 242, 151.247 238.278, 155.773 233.729 L 164.001 225.457 155.730 217.229 C 151.180 212.703, 147.186 209, 146.852 209 C 146.519 209, 145.235 211.352, 143.998 214.226 M 182.727 216.772 C 178.477 221.047, 175 224.995, 175 225.546 C 175 226.667, 190.144 242, 191.252 242 C 191.641 242, 192.973 240.088, 194.212 237.750 C 196.008 234.363, 196.465 231.875, 196.465 225.500 C 196.465 219.125, 196.008 216.637, 194.212 213.250 C 192.973 210.912, 191.620 209, 191.206 209 C 190.792 209, 186.976 212.497, 182.727 216.772 M 33.170 239.329 C 24.017 248.530, 24.002 248.678, 31.962 251.487 C 37.497 253.439, 45.426 253.415, 51.260 251.427 C 58.906 248.822, 58.838 248.289, 49.692 239.191 L 41.457 230.999 33.170 239.329 M 96.558 239.195 L 88.764 247.390 90.962 249.170 C 97.265 254.274, 111.903 254.277, 119.819 249.174 L 122.137 247.680 113.841 239.340 C 109.278 234.753, 105.276 231, 104.949 231 C 104.621 231, 100.845 234.688, 96.558 239.195 M 160.477 239.059 L 152.500 247.118 154.830 249.034 C 160.486 253.685, 172.578 254.341, 180.937 250.449 L 186.375 247.918 177.959 239.459 C 173.331 234.807, 169.299 231, 168.999 231 C 168.699 231, 164.864 234.627, 160.477 239.059 " stroke="none" fill="black" fill-rule="evenodd"/>
</svg>