<svg xmlns="http://www.w3.org/2000/svg" width="308" height="324" viewBox="0 0 308 324" version="1.1">
	<path d="M 7.571 127.571 C 6.175 128.968, 6.002 136.388, 6.016 194.321 C 6.028 244.993, 6.327 260.757, 7.360 265.147 C 13.465 291.084, 44.606 301.302, 64.413 283.868 C 70.356 278.636, 73.375 273.371, 75.937 263.768 C 77.917 256.348, 78 253.509, 78 193.241 C 78 138.024, 77.812 130.177, 76.443 128.223 C 74.598 125.588, 73.678 125.465, 71.571 127.571 C 70.182 128.961, 70 135.342, 70 182.664 L 70 236.185 64.952 231.646 C 56.744 224.267, 45.354 220.960, 35.295 223.035 C 28.128 224.515, 23.091 227.020, 17.955 231.660 L 14 235.233 14 182.188 C 14 135.298, 13.818 128.961, 12.429 127.571 C 11.564 126.707, 10.471 126, 10 126 C 9.529 126, 8.436 126.707, 7.571 127.571 M 190.263 175.461 C 181.362 177.470, 172.616 182.495, 165.321 189.790 C 156.965 198.146, 150.269 201.235, 139.250 201.816 C 128.941 202.359, 119.759 199.687, 112.152 193.930 C 106.246 189.460, 104.541 189.121, 102.946 192.102 C 101.993 193.882, 102.255 194.660, 104.660 197.191 C 108.296 201.016, 114.220 204.498, 121.080 206.844 C 139.191 213.036, 157.573 208.456, 171.794 194.206 C 181.308 184.673, 186.724 182.502, 201 182.501 C 210.260 182.500, 212.165 182.812, 217.128 185.139 C 220.457 186.700, 225.516 190.483, 229.509 194.399 C 247.724 212.259, 272.025 214.492, 293.276 200.258 C 295.599 198.702, 298.400 196.949, 299.500 196.362 C 303.124 194.430, 302.454 191.573, 297.302 186.992 C 286.755 177.615, 270.357 172.702, 257.172 174.969 C 249.796 176.237, 241.359 179.726, 236.260 183.615 L 232.935 186.151 227.664 182.652 C 217.090 175.634, 202.190 172.769, 190.263 175.461 M 251.061 183.972 C 244.927 186.241, 238 190.518, 238 192.036 C 238 192.591, 240.041 194.339, 242.536 195.921 C 253.714 203.009, 270.072 203.946, 282.117 198.188 C 285.757 196.448, 289.342 194.292, 290.085 193.398 C 291.249 191.995, 291.095 191.491, 288.968 189.740 C 287.610 188.623, 284.025 186.556, 281 185.146 C 273.354 181.584, 259.034 181.023, 251.061 183.972 M 31.054 231.728 C 25.018 233.859, 17.781 241.260, 15.667 247.463 C 9.189 266.476, 21.963 285, 41.552 285 C 56.843 285, 69 272.819, 69 257.500 C 69 246.038, 61.486 235.200, 50.965 231.488 C 45.610 229.598, 36.784 229.705, 31.054 231.728 " stroke="none" fill="black" fill-rule="evenodd"/>
</svg>