<svg xmlns="http://www.w3.org/2000/svg" width="403" height="324" viewBox="0 0 403 324" version="1.1">
	<path d="M 33.384 159.357 C 15.361 163.923, 3.562 181.820, 6.987 199.396 C 9.923 214.467, 20.510 225.032, 35.660 228.013 C 51.154 231.061, 68.354 221.287, 74.043 206.202 C 76.983 198.405, 76.941 188.485, 73.934 180.507 C 68.097 165.023, 49.437 155.290, 33.384 159.357 M 167.482 159.661 C 163.863 163.280, 168.887 178.213, 176.259 185.750 L 180.416 190 142.780 190 C 109.898 190, 104.944 190.199, 103.571 191.571 C 101.598 193.545, 101.598 194.455, 103.571 196.429 C 104.844 197.701, 107.697 198, 118.575 198 L 132.006 198 117.020 227.961 C 108.777 244.439, 102.285 258.580, 102.594 259.384 C 103.406 261.500, 106.020 262.228, 107.726 260.813 C 108.535 260.141, 115.622 246.749, 123.474 231.052 L 137.750 202.514 152.337 231.674 C 160.360 247.713, 167.395 261.126, 167.971 261.482 C 170.864 263.270, 173.168 259.695, 187.125 231.762 L 201.744 202.502 216.310 231.620 C 224.485 247.962, 231.617 261.023, 232.565 261.386 C 234.679 262.198, 237 260.358, 237 257.871 C 237 256.835, 230.480 242.952, 222.511 227.021 L 208.021 198.056 221.653 197.778 C 233.361 197.539, 235.441 197.253, 236.388 195.750 C 238.530 192.348, 236 190.532, 228.662 190.205 L 222.034 189.909 225.359 186.990 C 232.871 180.394, 238.833 162.596, 234.683 159.152 C 231.897 156.840, 229.365 159.274, 228.698 164.904 C 227.571 174.418, 222.284 181.750, 213.397 186.125 C 207.582 188.988, 206.381 189.223, 199.760 188.793 C 185.804 187.888, 176.597 179.691, 173.968 165.832 C 172.539 158.295, 170.647 156.496, 167.482 159.661 M 31.054 167.728 C 25.018 169.859, 17.781 177.260, 15.667 183.463 C 11.995 194.241, 14.382 205.477, 21.952 213.048 C 32.402 223.497, 49.888 223.773, 60.280 213.653 C 66.701 207.401, 68.500 202.989, 68.500 193.500 C 68.500 184.011, 66.701 179.599, 60.280 173.347 C 53.109 166.363, 41.332 164.099, 31.054 167.728 M 290.355 190.998 C 280.040 193.143, 270.046 201.099, 265.244 210.987 C 262.935 215.742, 262.572 217.738, 262.603 225.500 C 262.646 236.390, 264.638 241.561, 271.698 249.109 C 285.492 263.856, 307.657 264.396, 321.724 250.329 L 326 246.053 326 252.991 C 326 258.978, 326.283 260.081, 328.064 261.034 C 332.316 263.310, 333 261.071, 333 244.878 L 333 230 361.500 230 L 390 230 390 244.965 C 390 258.276, 390.196 260.035, 391.776 260.880 C 392.902 261.483, 394.182 261.478, 395.276 260.866 C 396.855 259.982, 397 257.052, 397 225.985 C 397 194.521, 396.872 192.002, 395.224 191.120 C 394.098 190.517, 392.818 190.522, 391.724 191.134 C 390.212 191.981, 390 193.936, 390 207.050 L 390 222 361.500 222 L 333 222 333 207.122 C 333 190.929, 332.316 188.690, 328.064 190.966 C 326.299 191.910, 325.995 193.043, 325.968 198.785 L 325.937 205.500 323.871 202.731 C 321.249 199.216, 314.168 194.324, 309.132 192.547 C 303.788 190.661, 295.330 189.964, 290.355 190.998 M 156.608 223.250 C 163.546 237.137, 169.371 248.661, 169.553 248.859 C 169.878 249.211, 195 199.502, 195 198.508 C 195 198.228, 183.523 198, 169.496 198 L 143.992 198 156.608 223.250 M 285.500 200.387 C 259.014 212.930, 267.771 252.980, 297 252.980 C 312.119 252.980, 325 240.338, 325 225.500 C 325 215.480, 317.989 204.797, 308.500 200.358 C 301.594 197.128, 292.358 197.140, 285.500 200.387 M 7.571 255.571 C 6.707 256.436, 6 257.529, 6 258 C 6 258.471, 6.707 259.564, 7.571 260.429 C 8.936 261.793, 13.463 262, 42 262 C 70.537 262, 75.064 261.793, 76.429 260.429 C 77.293 259.564, 78 258.471, 78 258 C 78 257.529, 77.293 256.436, 76.429 255.571 C 75.064 254.207, 70.537 254, 42 254 C 13.463 254, 8.936 254.207, 7.571 255.571 " stroke="none" fill="black" fill-rule="evenodd"/>
</svg>