<svg xmlns="http://www.w3.org/2000/svg" width="436" height="324" viewBox="0 0 436 324" version="1.1">
	<path d="M 63.102 127.162 C 37.816 130.777, 15.183 151.403, 8.414 177 C 6.134 185.626, 6.134 201.374, 8.414 210 C 11.688 222.378, 16.581 230.659, 26.461 240.539 C 33.460 247.538, 37.193 250.400, 43 253.222 C 70.828 266.745, 101.263 261.365, 122.142 239.232 C 134.003 226.659, 140.264 210.859, 140.264 193.500 C 140.264 181.958, 138.034 172.794, 132.759 162.653 C 122.751 143.418, 104.005 130.160, 82.398 127.037 C 74.447 125.887, 71.899 125.904, 63.102 127.162 M 167.571 127.571 C 166.175 128.968, 166 136.372, 166 194 C 166 251.628, 166.175 259.032, 167.571 260.429 C 168.436 261.293, 169.529 262, 170 262 C 170.471 262, 171.564 261.293, 172.429 260.429 C 173.825 259.032, 174 251.628, 174 194 C 174 136.372, 173.825 128.968, 172.429 127.571 C 171.564 126.707, 170.471 126, 170 126 C 169.529 126, 168.436 126.707, 167.571 127.571 M 231.571 127.571 C 230.175 128.968, 230 136.372, 230 194 C 230 251.628, 230.175 259.032, 231.571 260.429 C 233.678 262.535, 234.598 262.412, 236.443 259.777 C 237.813 257.823, 238 249.904, 238 194 C 238 138.096, 237.813 130.177, 236.443 128.223 C 234.598 125.588, 233.678 125.465, 231.571 127.571 M 386.920 126.982 C 372.387 129.532, 360.209 142.866, 358.406 158.202 C 357.805 163.316, 357.941 163.898, 359.991 164.995 C 363.204 166.715, 364.831 164.685, 366.001 157.492 C 367.172 150.296, 371.118 143.656, 376.797 139.325 C 393.006 126.961, 417.866 137.151, 420.626 157.291 C 421.699 165.114, 415.837 187.405, 409.264 200.500 C 400.373 218.212, 382.351 238.435, 365.750 249.328 C 357.063 255.029, 355.894 256.494, 358.200 258.800 C 360.228 260.828, 362.333 260.182, 369.769 255.250 C 394.777 238.663, 412.022 216.629, 421.891 188.654 C 426.572 175.385, 428.845 162.940, 427.802 156.290 C 424.771 136.961, 406.144 123.608, 386.920 126.982 M 58.645 135.584 C 38.562 140.445, 20.305 158.877, 15.537 179.103 C 12.248 193.059, 14.177 208.767, 20.732 221.397 C 24.597 228.843, 35.670 240.929, 41.692 244.272 L 44.884 246.045 42.522 241.772 C 38.909 235.240, 37.541 226.549, 39 219.396 C 42.093 204.225, 52.867 193.635, 67.953 190.939 C 82.531 188.334, 98.053 196.203, 104.525 209.479 C 109.675 220.046, 109.726 230.951, 104.672 241.202 L 102.353 245.905 105.393 244.202 C 107.065 243.266, 111.641 239.329, 115.561 235.454 C 126.986 224.160, 133 209.692, 133 193.500 C 133 166.315, 113.802 141.644, 87.897 135.537 C 79.998 133.676, 66.439 133.697, 58.645 135.584 M 290.344 158.988 C 280.010 161.166, 269.930 169.366, 265.417 179.266 C 261.361 188.161, 261.361 198.839, 265.417 207.734 C 275.534 229.926, 304.172 235.520, 321.353 218.661 C 329.450 210.714, 331.500 205.633, 331.500 193.500 C 331.500 181.367, 329.450 176.286, 321.353 168.339 C 313.358 160.494, 300.950 156.752, 290.344 158.988 M 287.627 167.468 C 282.247 169.386, 277.039 173.829, 273.500 179.519 C 269.527 185.908, 268.712 197.311, 271.741 204.129 C 276.181 214.120, 284.127 219.919, 294.521 220.754 C 306.446 221.711, 316.036 216.794, 321.500 206.921 C 324.132 202.166, 324.500 200.518, 324.500 193.500 C 324.500 186.487, 324.130 184.829, 321.500 180.061 C 318.429 174.492, 312.651 169.526, 306.684 167.326 C 302.327 165.720, 292.323 165.794, 287.627 167.468 M 295.616 191.527 C 294.727 192.416, 294 193.529, 294 194 C 294 195.389, 297.140 198.120, 298.295 197.735 C 300.395 197.035, 301.549 194.094, 300.423 192.310 C 298.905 189.902, 297.474 189.669, 295.616 191.527 M 63.605 199.568 C 56.049 202.337, 56.073 202.527, 65.170 211.671 L 73.457 220.001 81.692 211.809 C 90.838 202.711, 90.906 202.178, 83.260 199.573 C 77.620 197.651, 68.842 197.649, 63.605 199.568 M 50.184 210.278 C 46.139 215.152, 44.867 227.319, 47.573 235.260 C 50.178 242.906, 50.711 242.838, 59.809 233.692 L 68.001 225.457 59.671 217.170 C 52.854 210.389, 51.131 209.137, 50.184 210.278 M 87.237 217.261 L 78.999 225.543 87.339 233.840 L 95.680 242.137 97.174 239.819 C 102.273 231.908, 102.255 217.967, 97.137 211.182 C 95.477 208.981, 95.471 208.984, 87.237 217.261 M 65.170 239.329 C 56.017 248.530, 56.002 248.678, 63.962 251.487 C 69.497 253.439, 77.426 253.415, 83.260 251.427 C 90.906 248.822, 90.838 248.289, 81.692 239.191 L 73.457 230.999 65.170 239.329 " stroke="none" fill="black" fill-rule="evenodd"/>
</svg>