<svg xmlns="http://www.w3.org/2000/svg" width="308" height="324" viewBox="0 0 308 324" version="1.1">
	<path d="M 72.357 62.765 C 71.406 63.377, 6 193.165, 6 194.440 C 6 194.670, 6.707 195.564, 7.571 196.429 C 8.844 197.701, 11.697 198, 22.575 198 L 36.006 198 21.003 227.994 C 12.751 244.490, 6 258.183, 6 258.422 C 6 258.661, 6.707 259.564, 7.571 260.429 C 8.968 261.825, 16.372 262, 74 262 C 131.628 262, 139.032 261.825, 140.429 260.429 C 141.293 259.564, 142 258.661, 142 258.422 C 142 258.183, 135.249 244.490, 126.997 227.994 L 111.994 198 125.425 198 C 136.303 198, 139.156 197.701, 140.429 196.429 C 141.293 195.564, 142 194.663, 142 194.426 C 142 193.155, 76.584 63.384, 75.631 62.765 C 75.009 62.361, 74.275 62.031, 74 62.031 C 73.725 62.031, 72.986 62.361, 72.357 62.765 M 44.747 132.500 L 16.002 190 28.013 190 L 40.024 190 55.603 158.750 C 64.171 141.563, 71.777 127.162, 72.505 126.748 C 73.233 126.335, 74.436 126.230, 75.180 126.516 C 75.924 126.801, 83.611 141.202, 92.264 158.517 L 107.996 190 119.498 190 C 125.824 190, 131 189.743, 131 189.430 C 131 188.284, 74.650 75, 74.080 75 C 73.757 75, 60.557 100.875, 44.747 132.500 M 199.244 159.256 C 180.960 177.546, 166 193.280, 166 194.220 C 166 195.160, 166.961 196.444, 168.136 197.073 C 170.102 198.125, 172.791 195.699, 201.886 166.618 L 233.500 135.019 265.131 166.608 C 294.135 195.573, 296.939 198.103, 298.881 197.063 C 300.047 196.440, 301 195.155, 301 194.209 C 301 192.424, 235.256 126, 233.489 126 C 232.939 126, 217.529 140.965, 199.244 159.256 M 44.747 196.500 L 16.002 254 73.501 254 C 105.126 254, 131 253.747, 131 253.438 C 131 252.304, 74.640 139, 74.076 139 C 73.755 139, 60.557 164.875, 44.747 196.500 " stroke="none" fill="black" fill-rule="evenodd"/>
</svg>