<svg xmlns="http://www.w3.org/2000/svg" width="308" height="324" viewBox="0 0 308 324" version="1.1">
	<path d="M 39.571 127.571 C 38.176 128.966, 38 136.152, 38 191.571 L 38 254 23.571 254 C 11.788 254, 8.855 254.288, 7.571 255.571 C 5.595 257.548, 5.598 258.455, 7.585 260.442 C 8.978 261.835, 13.159 261.995, 42.226 261.763 C 72.452 261.523, 75.377 261.350, 76.386 259.750 C 77.190 258.475, 77.191 257.525, 76.387 256.250 C 75.433 254.736, 73.314 254.463, 60.643 254.223 L 46 253.947 46 191.545 C 46 136.149, 45.824 128.966, 44.429 127.571 C 43.564 126.707, 42.471 126, 42 126 C 41.529 126, 40.436 126.707, 39.571 127.571 M 200.500 158 L 168.512 190 136.827 190 C 109.357 190, 104.934 190.209, 103.571 191.571 C 101.598 193.545, 101.598 194.455, 103.571 196.429 C 104.931 197.788, 109.242 198, 135.571 198 L 166 198 166 228.800 C 166 251.422, 166.319 259.919, 167.200 260.800 C 168.109 261.709, 184.200 262, 233.500 262 C 282.800 262, 298.891 261.709, 299.800 260.800 C 300.686 259.914, 301 250.810, 301 226.044 L 301 192.489 267.744 159.244 C 249.454 140.960, 234.039 126, 233.489 126 C 232.938 126, 218.094 140.400, 200.500 158 M 219.990 148.516 L 206.500 162.040 221.750 177.203 C 232.352 187.744, 236.955 192.996, 236.851 194.433 C 236.762 195.679, 229.855 203.195, 219.471 213.349 C 203.785 228.687, 202.049 230.097, 200.120 229.064 C 198.954 228.440, 198 227.164, 198 226.228 C 198 225.292, 203.956 218.558, 211.236 211.263 L 224.472 198 198.736 198 L 173 198 173 226 L 173 254 233.500 254 L 294 254 294 224.744 L 294 195.488 263.740 165.240 L 233.480 134.992 219.990 148.516 M 190 178.500 L 178.533 190 201.500 190 L 224.467 190 213 178.500 C 206.693 172.175, 201.518 167, 201.500 167 C 201.482 167, 196.307 172.175, 190 178.500 " stroke="none" fill="black" fill-rule="evenodd"/>
</svg>