<svg xmlns="http://www.w3.org/2000/svg" width="340" height="324" viewBox="0 0 340 324" version="1.1">
	<path d="M 7.571 127.571 C 6.175 128.968, 6 136.372, 6 194 C 6 251.628, 6.175 259.032, 7.571 260.429 C 8.968 261.825, 16.372 262, 74 262 C 131.628 262, 139.032 261.825, 140.429 260.429 C 141.825 259.032, 142 251.628, 142 194 C 142 136.372, 141.825 128.968, 140.429 127.571 C 139.564 126.707, 138.471 126, 138 126 C 137.529 126, 136.436 126.707, 135.571 127.571 C 134.176 128.966, 134 136.152, 134 191.571 L 134 254 74 254 L 14 254 14 191.571 C 14 136.152, 13.824 128.966, 12.429 127.571 C 11.564 126.707, 10.471 126, 10 126 C 9.529 126, 8.436 126.707, 7.571 127.571 M 66.223 159.062 C 56.045 161.068, 45.996 169.411, 41.216 179.825 C 37.512 187.894, 37.512 199.106, 41.216 207.175 C 52.149 230.995, 82.285 235.936, 99.545 216.739 C 117.211 197.090, 107.070 165.462, 81.147 159.360 C 74.857 157.880, 72.464 157.832, 66.223 159.062 M 167.571 159.571 C 165.215 161.927, 165.215 210.073, 167.571 212.429 C 168.436 213.293, 169.529 214, 170 214 C 170.471 214, 171.564 213.293, 172.429 212.429 C 174.785 210.073, 174.785 161.927, 172.429 159.571 C 171.564 158.707, 170.471 158, 170 158 C 169.529 158, 168.436 158.707, 167.571 159.571 M 63.054 167.728 C 57.018 169.859, 49.781 177.260, 47.667 183.463 C 41.122 202.673, 54.106 221.195, 73.928 220.924 C 76.993 220.882, 80.933 220.320, 82.684 219.674 C 93.521 215.679, 101 204.991, 101 193.500 C 101 182.009, 93.521 171.321, 82.684 167.326 C 78.195 165.671, 68.306 165.873, 63.054 167.728 M 71.571 191.571 C 70.707 192.436, 70 193.529, 70 194 C 70 194.471, 70.707 195.564, 71.571 196.429 C 72.436 197.293, 73.529 198, 74 198 C 74.471 198, 75.564 197.293, 76.429 196.429 C 77.293 195.564, 78 194.471, 78 194 C 78 193.529, 77.293 192.436, 76.429 191.571 C 75.564 190.707, 74.471 190, 74 190 C 73.529 190, 72.436 190.707, 71.571 191.571 M 231.232 191.250 C 230.675 191.938, 222.951 207.048, 214.067 224.829 C 203.616 245.746, 198.120 257.803, 198.496 258.986 C 199.148 261.041, 201.359 262.183, 203.267 261.451 C 203.963 261.184, 211.103 247.816, 219.133 231.745 L 233.733 202.524 248.617 232.012 L 263.500 261.500 296 261.779 C 313.875 261.933, 329.463 261.825, 330.640 261.538 C 331.817 261.252, 333.046 260.323, 333.371 259.475 C 334.195 257.327, 301.021 191.141, 298.760 190.424 C 297.802 190.120, 296.547 190.162, 295.971 190.518 C 295.395 190.874, 288.360 204.287, 280.337 220.326 L 265.750 249.486 251.255 220.493 C 243.283 204.547, 236.251 191.169, 235.630 190.765 C 233.949 189.672, 232.369 189.846, 231.232 191.250 M 284.743 228.500 L 272.005 254 297.503 254 C 311.526 254, 323 253.772, 323 253.492 C 323 252.827, 298.070 203, 297.737 203 C 297.597 203, 291.750 214.475, 284.743 228.500 M 167.571 222.571 C 166.707 223.436, 166 224.529, 166 225 C 166 225.471, 166.707 226.564, 167.571 227.429 C 168.436 228.293, 169.529 229, 170 229 C 170.471 229, 171.564 228.293, 172.429 227.429 C 173.293 226.564, 174 225.471, 174 225 C 174 224.529, 173.293 223.436, 172.429 222.571 C 171.564 221.707, 170.471 221, 170 221 C 169.529 221, 168.436 221.707, 167.571 222.571 " stroke="none" fill="black" fill-rule="evenodd"/>
</svg>