<svg xmlns="http://www.w3.org/2000/svg" width="212" height="324" viewBox="0 0 212 324" version="1.1">
	<path d="M 71.285 191.250 C 35.377 227.137, 5.998 257.030, 5.999 257.679 C 5.999 258.327, 6.707 259.564, 7.571 260.429 C 8.968 261.825, 16.406 262, 74.371 262 C 123.771 262, 139.891 261.709, 140.800 260.800 C 141.709 259.891, 142 243.689, 142 194 C 142 126.274, 141.984 126, 138.086 126 C 137.253 126, 107.193 155.363, 71.285 191.250 M 183.200 127.200 C 181.301 129.099, 181.748 130.654, 185.652 135.741 C 192.737 144.973, 195.372 155.235, 193.772 167.358 C 192.714 175.371, 190.451 180.009, 182.576 190.308 C 178.872 195.152, 174.414 202.127, 172.670 205.808 C 169.636 212.213, 169.500 213.036, 169.500 225 C 169.500 237.324, 169.551 237.606, 173.127 245 C 177.963 255, 183.362 261.212, 186.866 260.804 C 190.957 260.328, 190.514 257.785, 185.091 250.620 C 176.356 239.080, 173.922 225.939, 178.046 212.588 C 179.557 207.694, 182.048 203.366, 187.586 196.015 C 196.452 184.245, 199.484 178.044, 201.165 168.245 C 203.389 155.275, 198.978 139.516, 190.495 130.127 C 186.577 125.790, 185.173 125.227, 183.200 127.200 M 76.500 197 L 19.507 254 76.753 254 L 134 254 134 197 C 134 165.650, 133.886 140, 133.747 140 C 133.607 140, 107.846 165.650, 76.500 197 " stroke="none" fill="black" fill-rule="evenodd"/>
</svg>