<svg xmlns="http://www.w3.org/2000/svg" width="244" height="324" viewBox="0 0 244 324" version="1.1">
	<path d="M 55.571 63.571 C 54.707 64.436, 54 65.317, 54 65.531 C 54 66.993, 71.421 100.653, 72.488 101.252 C 73.225 101.665, 74.440 101.768, 75.187 101.482 C 77.102 100.747, 94.082 66.377, 93.403 64.609 C 92.732 62.858, 90.483 61.877, 88.705 62.560 C 87.993 62.833, 84.520 68.894, 80.986 76.028 C 77.453 83.163, 74.308 89, 73.997 89 C 73.687 89, 70.748 83.534, 67.467 76.853 C 59.925 61.499, 58.847 60.296, 55.571 63.571 M 70.667 126.667 C 69.218 128.115, 70.152 131.181, 73.293 135.297 C 78.666 142.336, 81.277 149.499, 81.783 158.591 C 82.509 171.613, 79.854 178.204, 67.254 194.652 C 55.380 210.151, 53.067 228.879, 60.979 245.456 C 66.687 257.417, 75.673 264.756, 77.513 258.960 C 77.987 257.465, 77.173 255.827, 74.468 252.833 C 72.438 250.586, 69.391 245.787, 67.698 242.169 C 61.625 229.190, 63.244 211.857, 71.544 201 C 81.789 187.598, 85.181 182.162, 87.098 176.072 C 89.968 166.955, 89.944 154.679, 87.040 146 C 82.810 133.359, 74.173 123.161, 70.667 126.667 M 23.282 175.282 C 13.777 184.787, 6 193.210, 6 194 C 6 195.693, 40.031 230, 41.710 230 C 43.173 230, 46 227.200, 46 225.751 C 46 225.143, 39.156 217.750, 30.792 209.323 L 15.584 194 30.792 178.677 C 39.156 170.250, 46 162.857, 46 162.249 C 46 160.800, 43.173 158, 41.710 158 C 41.079 158, 32.787 165.777, 23.282 175.282 M 103.571 159.571 C 102.707 160.436, 102 161.640, 102 162.249 C 102 162.857, 108.844 170.250, 117.208 178.677 L 132.416 194 117.208 209.323 C 108.844 217.750, 102 225.143, 102 225.751 C 102 227.200, 104.827 230, 106.290 230 C 107.969 230, 142 195.693, 142 194 C 142 192.307, 107.969 158, 106.290 158 C 105.659 158, 104.436 158.707, 103.571 159.571 M 167.585 191.558 C 165.598 193.545, 165.595 194.452, 167.571 196.429 C 168.855 197.712, 171.788 198, 183.571 198 L 198 198 198 226 L 198 254 183.571 254 C 171.788 254, 168.855 254.288, 167.571 255.571 C 165.595 257.548, 165.598 258.455, 167.585 260.442 C 168.978 261.835, 173.159 261.995, 202.226 261.763 C 232.452 261.523, 235.377 261.350, 236.386 259.750 C 237.190 258.475, 237.191 257.525, 236.387 256.250 C 235.430 254.730, 233.291 254.464, 220.142 254.224 L 205 253.948 205 226 L 205 198.052 220.142 197.776 C 233.291 197.536, 235.430 197.270, 236.387 195.750 C 237.191 194.475, 237.190 193.525, 236.386 192.250 C 235.377 190.650, 232.452 190.477, 202.226 190.237 C 173.159 190.005, 168.978 190.165, 167.585 191.558 " stroke="none" fill="black" fill-rule="evenodd"/>
</svg>