<svg xmlns="http://www.w3.org/2000/svg" width="308" height="324" viewBox="0 0 308 324" version="1.1">
	<path d="M 63.870 127.024 C 48.685 129.381, 37.622 135.188, 25.974 146.916 C 12.475 160.507, 6.696 174.473, 6.696 193.500 C 6.696 212.834, 12.449 226.527, 26.461 240.539 C 40.492 254.570, 54.303 260.379, 73.500 260.326 C 85.644 260.292, 93.566 258.342, 104.500 252.697 C 114.958 247.297, 126.889 235.544, 132.264 225.348 C 142.612 205.720, 142.612 181.280, 132.264 161.652 C 124.401 146.736, 106.682 132.739, 90.500 128.660 C 82.568 126.661, 70.849 125.941, 63.870 127.024 M 58.159 135.569 C 37.914 141.015, 20.798 158.320, 15.487 178.711 C 13.543 186.176, 13.590 200.623, 15.585 208.356 C 18.145 218.279, 23.646 227.721, 31.459 235.602 C 35.332 239.508, 39.927 243.439, 41.671 244.337 L 44.842 245.970 42.501 241.735 C 37.057 231.890, 37.154 219.160, 42.751 208.767 C 53.736 188.368, 81.411 184.304, 97.777 200.687 C 105.483 208.400, 107.500 213.557, 107.500 225.542 C 107.500 234.521, 107.212 236.139, 104.777 240.833 L 102.053 246.081 105.218 244.291 C 110.825 241.117, 121.562 229.703, 125.340 222.899 C 135.319 204.928, 135.319 182.072, 125.340 164.101 C 118.010 150.900, 103.072 139.382, 88.356 135.585 C 80.745 133.622, 65.427 133.613, 58.159 135.569 M 192.903 175.047 C 185.656 176.138, 176.942 180.030, 170.336 185.127 C 164.681 189.489, 163.346 191.825, 164.871 194.687 C 165.402 195.684, 166.563 200.479, 167.451 205.343 C 175.885 251.569, 227.566 275.074, 267.566 250.877 C 286.238 239.582, 299.137 218.409, 299.397 198.628 C 299.537 187.955, 298.209 187.053, 290.787 192.779 C 281.301 200.097, 277.072 201.500, 264.500 201.500 C 254.726 201.500, 252.879 201.209, 247.924 198.885 C 244.550 197.302, 239.780 193.689, 235.846 189.736 C 224.013 177.845, 208.828 172.651, 192.903 175.047 M 187 183.982 C 183.975 185.094, 179.700 187.276, 177.500 188.832 C 173.603 191.587, 173.506 191.800, 173.726 197.080 C 174.342 211.894, 180.031 224.273, 191.394 235.530 C 200.192 244.245, 208.005 248.762, 219.283 251.651 C 227.795 253.832, 244.163 253.035, 252.723 250.024 C 270.475 243.779, 285.033 228.342, 290.404 210.068 C 293.057 201.042, 292.929 200.909, 285.250 204.680 C 268.227 213.040, 244.609 209.790, 233 197.489 C 225.874 189.940, 223.985 188.446, 218 185.626 C 212.425 182.999, 210.147 182.520, 202 182.261 C 194.408 182.020, 191.395 182.366, 187 183.982 M 63.603 199.477 C 56.288 202.083, 56.350 202.622, 65.037 212 L 72.910 220.500 81.419 212.058 C 90.856 202.695, 90.931 202.187, 83.260 199.573 C 77.621 197.652, 68.844 197.609, 63.603 199.477 M 50.192 210.269 C 45.752 215.619, 44.575 229.264, 47.918 236.627 C 48.948 238.896, 50.209 241.011, 50.718 241.326 C 51.228 241.641, 55.325 238.199, 59.823 233.678 L 68.001 225.457 59.671 217.170 C 52.884 210.419, 51.128 209.140, 50.192 210.269 M 86.727 216.772 C 82.477 221.047, 79 224.995, 79 225.546 C 79 226.709, 94.165 242, 95.318 242 C 95.744 242, 97.192 239.637, 98.536 236.750 C 100.274 233.018, 100.980 229.765, 100.980 225.500 C 100.980 219.632, 97.303 209, 95.273 209 C 94.822 209, 90.976 212.497, 86.727 216.772 M 64.632 239.250 C 57.146 247.406, 57.083 247.520, 59.110 249.225 C 65.110 254.274, 79.948 254.248, 87.819 249.174 L 90.137 247.680 81.841 239.340 C 77.278 234.753, 73.243 231, 72.874 231 C 72.505 231, 68.796 234.713, 64.632 239.250 " stroke="none" fill="black" fill-rule="evenodd"/>
</svg>