<svg xmlns="http://www.w3.org/2000/svg" width="212" height="324" viewBox="0 0 212 324" version="1.1">
	<path d="M 72.372 62.751 C 70.408 64.054, 54.005 97.849, 54.593 99.381 C 55.268 101.141, 57.513 102.124, 59.295 101.440 C 60.007 101.167, 63.480 95.106, 67.014 87.972 C 70.547 80.837, 73.691 75, 74 75 C 74.309 75, 77.453 80.837, 80.986 87.972 C 84.520 95.106, 87.993 101.167, 88.705 101.440 C 90.478 102.121, 92.731 101.144, 93.398 99.406 C 94.127 97.506, 76.754 62.573, 74.920 62.251 C 74.139 62.114, 72.992 62.339, 72.372 62.751 M 7.571 127.571 C 6.175 128.968, 6 136.372, 6 194 C 6 251.628, 6.175 259.032, 7.571 260.429 C 8.968 261.825, 16.406 262, 74.371 262 C 123.771 262, 139.891 261.709, 140.800 260.800 C 141.709 259.891, 142 243.652, 142 193.835 L 142 128.070 139.817 126.902 C 137.958 125.907, 137.364 126.067, 135.817 127.978 C 134.105 130.092, 134 133.789, 134 192.111 L 134 254 74 254 L 14 254 14 191.571 C 14 136.152, 13.824 128.966, 12.429 127.571 C 11.564 126.707, 10.471 126, 10 126 C 9.529 126, 8.436 126.707, 7.571 127.571 M 65.384 159.361 C 47.369 163.912, 35.562 181.819, 38.987 199.396 C 43.531 222.719, 68.507 235.455, 89.100 224.949 C 105.889 216.384, 113.230 196.038, 105.583 179.266 C 98.679 164.121, 81.064 155.400, 65.384 159.361 M 167.557 160.223 C 166.254 162.082, 166 166.310, 166 186.112 C 166 207.494, 166.175 209.995, 167.817 212.022 C 169.364 213.933, 169.958 214.093, 171.817 213.098 C 173.975 211.943, 174 211.631, 174 186 C 174 161.388, 173.902 160.018, 172.066 159.035 C 169.462 157.642, 169.343 157.673, 167.557 160.223 M 64.453 167.326 C 52.177 172.056, 45.331 182.563, 46.195 195.349 C 47.162 209.654, 57.349 219.839, 71.659 220.805 C 82.834 221.560, 92.159 216.690, 97.751 207.176 C 100.200 203.011, 100.500 201.517, 100.500 193.500 C 100.500 185.483, 100.200 183.989, 97.751 179.824 C 94.341 174.022, 88.994 169.527, 83.128 167.528 C 77.896 165.745, 68.811 165.647, 64.453 167.326 M 71.571 191.571 C 70.707 192.436, 70 193.529, 70 194 C 70 194.471, 70.707 195.564, 71.571 196.429 C 72.436 197.293, 73.529 198, 74 198 C 74.471 198, 75.564 197.293, 76.429 196.429 C 77.293 195.564, 78 194.471, 78 194 C 78 193.529, 77.293 192.436, 76.429 191.571 C 75.564 190.707, 74.471 190, 74 190 C 73.529 190, 72.436 190.707, 71.571 191.571 M 168.200 222.200 C 165.181 225.219, 168.247 230.008, 171.936 228.034 C 174.536 226.643, 174.606 223.395, 172.066 222.035 C 169.655 220.745, 169.655 220.745, 168.200 222.200 " stroke="none" fill="black" fill-rule="evenodd"/>
</svg>