<svg xmlns="http://www.w3.org/2000/svg" width="212" height="324" viewBox="0 0 212 324" version="1.1">
	<path d="M 131 126.584 C 122.821 127.953, 116.906 129.457, 112.500 131.289 C 93.011 139.394, 77.836 156.722, 72.457 177.017 C 70.177 185.618, 70.177 201.372, 72.456 210 C 76.438 225.076, 87.680 240.726, 100.645 249.242 L 107.128 253.500 89.525 254 C 75.355 254.403, 71.738 254.792, 70.977 256 C 69.681 258.054, 69.756 258.614, 71.571 260.429 C 72.968 261.825, 80.339 262, 137.637 262 C 180.182 262, 202.790 261.648, 204.066 260.965 C 206.554 259.633, 206.554 256.367, 204.066 255.035 C 202.946 254.436, 194.842 254, 184.824 254 L 167.517 254 173.847 249.864 C 189.415 239.691, 199.714 224.674, 203.417 206.746 C 206.432 192.149, 204.646 178.237, 197.993 164.500 C 189.493 146.948, 173.004 133.232, 154.831 128.597 C 148.761 127.049, 135.111 125.896, 131 126.584 M 123.217 135.449 C 102.426 140.483, 84.949 158.085, 79.515 179.460 C 72.829 205.762, 86.590 235.105, 111.101 246.809 C 121.083 251.576, 127.307 253, 138.155 253 C 163.746 253, 186.696 236.132, 194.618 211.500 C 198.245 200.221, 198.245 186.779, 194.618 175.500 C 188.357 156.035, 172.055 140.635, 152.356 135.577 C 145.045 133.701, 130.699 133.638, 123.217 135.449 M 7.571 191.571 C 6.707 192.436, 6 193.529, 6 194 C 6 194.471, 6.707 195.564, 7.571 196.429 C 8.850 197.707, 11.742 198, 23.071 198 C 30.732 198, 36.988 198.338, 36.973 198.750 C 36.958 199.162, 33.621 212.724, 29.557 228.887 C 25.493 245.050, 22.390 258.853, 22.661 259.560 C 23.302 261.228, 25.604 262.089, 27.489 261.366 C 28.308 261.052, 29.408 259.153, 29.933 257.147 C 30.458 255.141, 34.327 239.798, 38.531 223.050 C 45.730 194.367, 46.071 192.525, 44.396 191.300 C 43.104 190.356, 38.036 190, 25.880 190 C 11.998 190, 8.875 190.268, 7.571 191.571 " stroke="none" fill="black" fill-rule="evenodd"/>
</svg>