<svg xmlns="http://www.w3.org/2000/svg" width="372" height="324" viewBox="0 0 372 324" version="1.1">
	<path d="M 63.102 127.108 C 37.633 130.963, 15.059 151.541, 8.374 177 C 6.114 185.608, 6.133 201.372, 8.414 210 C 12.552 225.647, 23.709 241.079, 37.307 249.965 L 43.483 254 26.313 254 C 12.037 254, 8.878 254.265, 7.571 255.571 C 5.598 257.545, 5.598 258.455, 7.571 260.429 C 8.968 261.825, 16.372 262, 74 262 C 131.628 262, 139.032 261.825, 140.429 260.429 C 142.402 258.455, 142.402 257.545, 140.429 255.571 C 139.119 254.261, 135.917 254, 121.187 254 L 103.517 254 109.693 249.965 C 118.532 244.189, 128.968 232.618, 133.287 223.806 C 138.440 213.290, 140.304 205.238, 140.304 193.500 C 140.304 174.166, 134.551 160.473, 120.539 146.461 C 110.823 136.745, 102.203 131.569, 90.831 128.621 C 83.080 126.612, 70.806 125.942, 63.102 127.108 M 58.645 135.584 C 38.562 140.445, 20.305 158.877, 15.537 179.103 C 13.610 187.282, 13.610 199.718, 15.537 207.897 C 20.338 228.261, 38.739 246.662, 59.103 251.463 C 79.742 256.328, 100.600 250.431, 115.516 235.516 C 134.200 216.831, 138.470 189.002, 126.243 165.603 C 118.839 151.435, 103.149 139.133, 87.897 135.537 C 79.998 133.676, 66.439 133.697, 58.645 135.584 M 180.648 190.983 C 175.929 192.470, 171.243 196.229, 168.803 200.483 C 166.666 204.211, 166.477 205.837, 166.174 223.111 C 165.808 244.003, 166.504 248.226, 171.191 253.564 C 178.670 262.083, 189.381 262.995, 197.564 255.809 C 206.630 247.850, 207.060 236.796, 198.632 228.368 C 192.213 221.950, 184.570 220.650, 176.750 224.646 L 174 226.051 174 215.426 L 174 204.800 177.400 201.400 C 180.302 198.498, 181.488 198, 185.500 198 C 189.512 198, 190.698 198.498, 193.600 201.400 C 195.970 203.770, 197 205.718, 197 207.829 C 197 210.700, 199.139 214, 201 214 C 203.415 214, 205.145 210.586, 204.497 207.096 C 202.393 195.766, 190.650 187.832, 180.648 190.983 M 263.571 191.571 C 262.288 192.855, 262 195.788, 262 207.571 L 262 222 247.571 222 C 235.788 222, 232.855 222.288, 231.571 223.571 C 229.598 225.545, 229.598 226.455, 231.571 228.429 C 232.855 229.712, 235.788 230, 247.571 230 L 262 230 262 244.429 C 262 256.212, 262.288 259.145, 263.571 260.429 C 264.436 261.293, 265.529 262, 266 262 C 266.471 262, 267.564 261.293, 268.429 260.429 C 269.712 259.145, 270 256.212, 270 244.429 L 270 230 284.429 230 C 296.212 230, 299.145 229.712, 300.429 228.429 C 302.402 226.455, 302.402 225.545, 300.429 223.571 C 299.145 222.288, 296.212 222, 284.429 222 L 270 222 270 207.571 C 270 195.788, 269.712 192.855, 268.429 191.571 C 267.564 190.707, 266.471 190, 266 190 C 265.529 190, 264.436 190.707, 263.571 191.571 M 327.571 191.571 C 326.707 192.436, 326 193.529, 326 194 C 326 194.471, 326.707 195.564, 327.571 196.429 C 328.850 197.707, 331.742 198, 343.071 198 C 350.732 198, 357 198.237, 357 198.527 C 357 199.091, 343.249 254.393, 342.425 257.145 C 341.965 258.681, 344.307 262.019, 345.821 261.985 C 348.299 261.929, 350.034 256.740, 357.555 226.898 C 362.185 208.529, 365.979 193.420, 365.986 193.321 C 365.994 193.223, 365.293 192.436, 364.429 191.571 C 363.124 190.267, 359.991 190, 346 190 C 332.009 190, 328.876 190.267, 327.571 191.571 M 177.400 233.400 C 174.498 236.302, 174 237.488, 174 241.500 C 174 245.512, 174.498 246.698, 177.400 249.600 C 180.302 252.502, 181.488 253, 185.500 253 C 189.512 253, 190.698 252.502, 193.600 249.600 C 196.502 246.698, 197 245.512, 197 241.500 C 197 237.488, 196.502 236.302, 193.600 233.400 C 190.698 230.498, 189.512 230, 185.500 230 C 181.488 230, 180.302 230.498, 177.400 233.400 " stroke="none" fill="black" fill-rule="evenodd"/>
</svg>