<svg xmlns="http://www.w3.org/2000/svg" width="308" height="324" viewBox="0 0 308 324" version="1.1">
	<path d="M 71.550 62.918 C 67.869 68.875, 54.190 98.331, 54.604 99.410 C 55.269 101.144, 57.524 102.120, 59.295 101.440 C 60.007 101.167, 63.480 95.106, 67.014 87.972 C 70.547 80.837, 73.691 75, 74 75 C 74.309 75, 77.453 80.837, 80.986 87.972 C 84.520 95.106, 88.050 101.189, 88.832 101.489 C 90.716 102.212, 93 100.227, 93 97.866 C 93 95.626, 77.264 63.831, 75.628 62.765 C 74.071 61.751, 72.229 61.820, 71.550 62.918 M 199.750 127.080 C 198.207 127.979, 198 129.866, 198 143.050 L 198 158 183.934 158 C 169.308 158, 166 158.738, 166 162 C 166 165.262, 169.308 166, 183.934 166 L 198 166 198 194 L 198 222 183.934 222 C 169.308 222, 166 222.738, 166 226 C 166 229.262, 169.308 230, 183.934 230 L 198 230 198 244.965 C 198 259.061, 198.120 259.994, 200.064 261.034 C 204.316 263.310, 205 261.071, 205 244.878 L 205 230 233.500 230 L 262 230 262 244.965 C 262 259.061, 262.120 259.994, 264.064 261.034 C 268.315 263.309, 269 261.069, 269 244.904 L 269 230.052 284.142 229.776 C 297.291 229.536, 299.430 229.270, 300.387 227.750 C 301.191 226.475, 301.191 225.525, 300.387 224.250 C 299.430 222.730, 297.291 222.464, 284.142 222.224 L 269 221.948 269 194 L 269 166.052 284.142 165.776 C 297.291 165.536, 299.430 165.270, 300.387 163.750 C 301.191 162.475, 301.191 161.525, 300.387 160.250 C 299.430 158.730, 297.291 158.464, 284.142 158.224 L 269 157.948 269 143.096 C 269 126.931, 268.315 124.691, 264.064 126.966 C 262.120 128.006, 262 128.939, 262 143.035 L 262 158 233.500 158 L 205 158 205 143.200 C 205 126.584, 204.299 124.431, 199.750 127.080 M 205 194 L 205 222 233.500 222 L 262 222 262 194 L 262 166 233.500 166 L 205 166 205 194 M 39.230 223.285 C 20.953 241.591, 6 257.084, 6 257.713 C 6 258.342, 6.707 259.564, 7.571 260.429 C 8.968 261.825, 16.372 262, 74 262 C 131.628 262, 139.032 261.825, 140.429 260.429 C 141.293 259.564, 141.991 258.552, 141.980 258.179 C 141.937 256.697, 75.399 189.970, 73.980 189.984 C 73.144 189.993, 57.506 204.978, 39.230 223.285 M 46.500 227 L 19.514 254 74 254 L 128.486 254 101.500 227 C 86.658 212.150, 74.283 200, 74 200 C 73.717 200, 61.342 212.150, 46.500 227 " stroke="none" fill="black" fill-rule="evenodd"/>
</svg>