<svg xmlns="http://www.w3.org/2000/svg" width="148" height="324" viewBox="0 0 148 324" version="1.1">
	<path d="M 71.550 62.918 C 67.869 68.875, 54.190 98.331, 54.604 99.410 C 55.269 101.144, 57.524 102.120, 59.295 101.440 C 60.007 101.167, 63.480 95.106, 67.014 87.972 C 70.547 80.837, 73.678 75, 73.971 75 C 74.263 75, 77.277 80.787, 80.668 87.861 C 84.059 94.935, 87.603 101.017, 88.543 101.378 C 90.678 102.197, 93 100.367, 93 97.866 C 93 95.626, 77.264 63.831, 75.628 62.765 C 74.071 61.751, 72.229 61.820, 71.550 62.918 M 7.579 191.564 C 5.598 193.545, 5.596 194.454, 7.571 196.429 C 8.929 197.786, 13.153 198, 38.589 198 L 68.036 198 52.890 228.186 C 41.366 251.153, 37.980 258.746, 38.731 259.936 C 39.586 261.293, 44.013 261.537, 72.109 261.779 C 89.924 261.933, 105.463 261.825, 106.640 261.538 C 107.817 261.252, 109.047 260.321, 109.373 259.469 C 109.722 258.561, 103.778 245.548, 94.988 227.976 L 80.008 198.030 109.646 197.765 C 136.613 197.524, 139.382 197.342, 140.386 195.750 C 141.191 194.474, 141.191 193.526, 140.386 192.250 C 139.356 190.617, 134.934 190.483, 74.220 190.243 C 16.058 190.013, 8.990 190.153, 7.579 191.564 M 60.743 228.500 L 48.005 254 73.586 254 C 88.029 254, 99.022 253.614, 98.833 253.114 C 97.585 249.795, 74.397 203.041, 73.991 203.023 C 73.711 203.010, 67.750 214.475, 60.743 228.500 " stroke="none" fill="black" fill-rule="evenodd"/>
</svg>