<svg xmlns="http://www.w3.org/2000/svg" width="148" height="324" viewBox="0 0 148 324" version="1.1">
	<path d="M 55.571 63.571 C 54.707 64.436, 54 65.317, 54 65.531 C 54 66.993, 71.421 100.653, 72.488 101.252 C 73.225 101.665, 74.440 101.768, 75.188 101.481 C 76.837 100.849, 93 68.755, 93 66.115 C 93 63.770, 90.710 61.790, 88.832 62.511 C 88.050 62.811, 84.520 68.894, 80.986 76.028 C 77.453 83.163, 74.306 89, 73.994 89 C 73.683 89, 70.969 83.984, 67.964 77.854 C 62.437 66.580, 59.559 62, 57.999 62 C 57.528 62, 56.436 62.707, 55.571 63.571 M 63.870 127.014 C 48.636 129.407, 37.616 135.194, 25.974 146.916 C 12.475 160.507, 6.696 174.473, 6.696 193.500 C 6.696 212.834, 12.449 226.527, 26.461 240.539 C 40.473 254.551, 54.166 260.304, 73.500 260.304 C 85.636 260.304, 93.507 258.373, 104.500 252.697 C 114.958 247.297, 126.889 235.544, 132.264 225.348 C 142.612 205.720, 142.612 181.280, 132.264 161.652 C 124.409 146.751, 106.756 132.797, 90.500 128.638 C 82.632 126.625, 70.901 125.909, 63.870 127.014 M 57.500 135.870 C 37.436 141.645, 20.733 158.691, 15.585 178.644 C 13.554 186.517, 13.554 200.483, 15.585 208.356 C 20.838 228.716, 38.284 246.162, 58.644 251.415 C 65.760 253.251, 78.565 253.481, 86.201 251.910 C 89.115 251.310, 95.244 249.032, 99.820 246.847 C 124.843 234.900, 138.032 205.996, 131.003 178.511 C 125.680 157.698, 108.268 140.339, 87.897 135.537 C 79.386 133.531, 65.080 133.688, 57.500 135.870 M 39.282 175.282 C 29.777 184.787, 22 193.193, 22 193.963 C 22 195.443, 53.215 227.447, 56.314 229.145 C 58.587 230.390, 61 228.618, 61 225.703 C 61 224.398, 55.644 218.251, 46.293 208.825 L 31.586 194 46.293 179.175 C 55.267 170.129, 61 163.580, 61 162.375 C 61 160.253, 59.239 158, 57.582 158 C 57.022 158, 48.787 165.777, 39.282 175.282 " stroke="none" fill="black" fill-rule="evenodd"/>
</svg>