<svg xmlns="http://www.w3.org/2000/svg" width="148" height="324" viewBox="0 0 148 324" version="1.1">
	<path d="M 55.571 63.571 C 54.707 64.436, 54 65.317, 54 65.531 C 54 66.993, 71.421 100.653, 72.488 101.252 C 73.225 101.665, 74.440 101.768, 75.188 101.481 C 76.837 100.849, 93 68.755, 93 66.115 C 93 63.770, 90.710 61.790, 88.832 62.511 C 88.050 62.811, 84.520 68.894, 80.986 76.028 C 77.453 83.163, 74.306 89, 73.994 89 C 73.683 89, 70.969 83.984, 67.964 77.854 C 62.437 66.580, 59.559 62, 57.999 62 C 57.528 62, 56.436 62.707, 55.571 63.571 M 33.829 175.066 C 30.710 175.529, 25.219 177.241, 21.626 178.870 C 13.744 182.444, 4.771 190.400, 5.204 193.430 C 5.738 197.166, 9.662 196.567, 14.627 191.990 C 17.111 189.700, 21.699 186.636, 24.822 185.180 C 29.869 182.828, 31.722 182.532, 41.500 182.517 C 51.923 182.501, 52.852 182.672, 59.222 185.788 C 63.802 188.028, 67.277 190.655, 70.122 194.030 C 85.768 212.584, 115.952 214.572, 135.748 198.350 C 140.328 194.598, 141.045 191.672, 137.873 189.685 C 136.605 188.890, 135.264 189.469, 131.803 192.305 C 124.517 198.276, 116.710 201.317, 107.409 201.807 C 93.975 202.516, 83.819 198.549, 75.766 189.449 C 66.030 178.447, 49.421 172.751, 33.829 175.066 " stroke="none" fill="black" fill-rule="evenodd"/>
</svg>