<svg xmlns="http://www.w3.org/2000/svg" width="276" height="324" viewBox="0 0 276 324" version="1.1">
	<path d="M 199.571 127.571 C 198.707 128.436, 198 129.529, 198 130 C 198 130.471, 198.707 131.564, 199.571 132.429 C 200.855 133.712, 203.788 134, 215.571 134 L 230 134 230 194 L 230 254 215.571 254 C 203.788 254, 200.855 254.288, 199.571 255.571 C 197.598 257.545, 197.598 258.455, 199.571 260.429 C 200.936 261.793, 205.463 262, 234 262 C 262.537 262, 267.064 261.793, 268.429 260.429 C 269.293 259.564, 270 258.471, 270 258 C 270 257.529, 269.293 256.436, 268.429 255.571 C 267.145 254.288, 264.212 254, 252.429 254 L 238 254 238 194 L 238 134 252.429 134 C 264.212 134, 267.145 133.712, 268.429 132.429 C 269.293 131.564, 270 130.471, 270 130 C 270 129.529, 269.293 128.436, 268.429 127.571 C 267.064 126.207, 262.537 126, 234 126 C 205.463 126, 200.936 126.207, 199.571 127.571 M 96.500 190.944 C 71.982 194.913, 51.644 210.953, 43.018 233.124 L 40.392 239.872 36.158 234.955 C 33.828 232.251, 29.869 228.835, 27.359 227.364 C 23.400 225.045, 13.903 222.063, 10.321 222.016 C 8.963 221.998, 6 224.730, 6 226 C 6 227.792, 9.253 230, 11.893 230 C 20.109 230, 30.208 236.668, 34.067 244.639 C 37.038 250.776, 37.607 260.656, 35.377 267.371 C 32.302 276.627, 21.149 285, 11.893 285 C 9.253 285, 6 287.208, 6 289 C 6 290.270, 8.963 293.002, 10.321 292.984 C 13.860 292.937, 23.376 289.970, 27.231 287.710 C 35.181 283.051, 41.998 273.859, 43.520 265.745 C 45.343 256.026, 46.259 254.755, 54.504 250.500 C 62.118 246.571, 62.443 246.500, 72.877 246.500 C 82.770 246.500, 83.968 246.722, 90.306 249.724 C 94.947 251.922, 99.090 254.965, 103.331 259.290 C 116.393 272.612, 135.113 276.982, 152.901 270.862 C 158.084 269.079, 170.571 261.770, 172.274 259.522 C 173.269 258.210, 172.258 248.217, 170.350 240.500 C 167.486 228.913, 162.380 220.302, 152.539 210.461 C 142.721 200.644, 134.174 195.566, 122.500 192.618 C 114.811 190.676, 102.896 189.909, 96.500 190.944 M 91.217 199.449 C 74.736 203.440, 59.501 215.770, 52.234 231 C 50.003 235.675, 47.868 241.002, 47.490 242.838 C 46.803 246.172, 46.805 246.174, 49.205 244.601 C 58.470 238.531, 76.966 236.778, 88.419 240.886 C 96.276 243.703, 102.600 247.871, 108.541 254.146 C 111.606 257.383, 115.858 260.457, 119.962 262.402 C 125.996 265.261, 127.318 265.500, 137.123 265.500 C 147.550 265.500, 147.888 265.426, 155.539 261.500 C 159.826 259.300, 163.804 256.736, 164.379 255.802 C 166.171 252.890, 163.380 240.443, 158.817 231 C 153.102 219.171, 143.755 209.842, 132 204.235 C 127.325 202.005, 121.115 199.690, 118.201 199.090 C 111.260 197.662, 97.861 197.841, 91.217 199.449 " stroke="none" fill="black" fill-rule="evenodd"/>
</svg>