<svg xmlns="http://www.w3.org/2000/svg" width="148" height="324" viewBox="0 0 148 324" version="1.1">
	<path d="M 103.750 159.080 C 101.372 160.465, 101.542 163.685, 104.064 165.034 C 107.753 167.008, 110.819 162.219, 107.800 159.200 C 106.367 157.767, 106.022 157.757, 103.750 159.080 M 4.235 187.046 C 0.129 188.679, -0.714 196.204, 2.955 198.472 C 3.548 198.838, 3.771 199.561, 3.452 200.078 C 2.230 202.055, 4.128 205, 6.624 205 C 11.134 205, 15.371 191.839, 11.917 188.560 C 9.864 186.611, 6.832 186.013, 4.235 187.046 M 35.235 187.036 C 30.947 188.760, 30.303 197.028, 34.337 198.576 C 35.197 198.906, 35.522 200.047, 35.215 201.656 C 34.350 206.183, 38.951 207.531, 41.579 203.520 C 44.404 199.208, 45.230 193.345, 43.486 189.972 C 42.640 188.337, 41.547 187, 41.056 187 C 40.565 187, 39.564 186.803, 38.832 186.563 C 38.099 186.322, 36.481 186.535, 35.235 187.036 M 71.585 191.558 C 70.713 192.430, 70 193.529, 70 194 C 70 194.471, 70.713 195.570, 71.585 196.442 C 72.978 197.835, 77.159 197.995, 106.226 197.763 C 136.452 197.523, 139.377 197.350, 140.386 195.750 C 141.191 194.474, 141.191 193.526, 140.386 192.250 C 139.377 190.650, 136.452 190.477, 106.226 190.237 C 77.159 190.005, 72.978 190.165, 71.585 191.558 M 103.750 223.080 C 101.372 224.465, 101.542 227.685, 104.064 229.034 C 107.753 231.008, 110.819 226.219, 107.800 223.200 C 106.367 221.767, 106.022 221.757, 103.750 223.080 " stroke="none" fill="black" fill-rule="evenodd"/>
</svg>