<svg xmlns="http://www.w3.org/2000/svg" width="212" height="324" viewBox="0 0 212 324" version="1.1">
	<path d="M 131 126.584 C 122.821 127.953, 116.906 129.457, 112.500 131.289 C 93.011 139.394, 77.836 156.722, 72.457 177.017 C 70.177 185.618, 70.177 201.372, 72.456 210 C 78.560 233.110, 97.776 252.327, 121.017 258.564 C 129.555 260.856, 145.324 260.896, 154 258.650 C 179.744 251.983, 198.494 231.573, 203.905 204.326 C 205.810 194.737, 205.839 193.651, 204.406 185.443 C 202.579 174.975, 200.769 169.340, 196.854 161.928 C 188.563 146.231, 171.781 132.920, 154.831 128.597 C 148.761 127.049, 135.111 125.896, 131 126.584 M 123.217 135.449 C 102.426 140.483, 84.949 158.085, 79.515 179.460 C 72.829 205.762, 86.590 235.105, 111.101 246.809 C 121.083 251.576, 127.307 253, 138.155 253 C 158.049 253, 176.818 242.706, 188.002 225.661 C 192.197 219.267, 197 206.077, 197 200.948 L 197 198 167.071 198 C 141.197 198, 136.930 197.787, 135.571 196.429 C 134.212 195.069, 134 190.758, 134 164.429 L 134 134 131.250 134.085 C 129.738 134.132, 126.123 134.746, 123.217 135.449 M 142 162 L 142 190 169.500 190 L 197 190 197 186.552 C 197 184.655, 195.885 179.593, 194.522 175.302 C 188.425 156.102, 171.989 140.618, 152.356 135.577 C 140.912 132.640, 142 129.864, 142 162 M 4.235 187.046 C 0.750 188.432, -0.347 192.450, 1.709 196.306 C 2.645 198.063, 3.303 199.884, 3.171 200.354 C 2.533 202.620, 4.302 205, 6.624 205 C 11.134 205, 15.371 191.839, 11.917 188.560 C 9.864 186.611, 6.832 186.013, 4.235 187.046 M 35.364 187.179 C 32.247 188.674, 30.704 192.570, 32.145 195.307 C 32.780 196.513, 33.775 197.809, 34.357 198.187 C 34.939 198.565, 35.434 200.089, 35.458 201.572 C 35.481 203.064, 36.310 204.768, 37.313 205.385 C 42.241 208.417, 47.357 191.916, 42.652 188.163 C 40.616 186.540, 37.558 186.127, 35.364 187.179 " stroke="none" fill="black" fill-rule="evenodd"/>
</svg>