<svg xmlns="http://www.w3.org/2000/svg" width="148" height="324" viewBox="0 0 148 324" version="1.1">
	<path d="M 20.648 159.027 C 13.467 161.179, 7.916 167.485, 6.503 175.096 C 5.855 178.586, 7.585 182, 10 182 C 11.861 182, 14 178.700, 14 175.829 C 14 173.718, 15.030 171.770, 17.400 169.400 C 20.302 166.498, 21.488 166, 25.500 166 C 29.512 166, 30.698 166.498, 33.600 169.400 C 36.502 172.302, 37 173.488, 37 177.500 C 37 181.512, 36.502 182.698, 33.600 185.600 C 31.526 187.674, 29.214 189, 27.671 189 C 23.012 189, 22 191.231, 22 201.500 C 22 208.673, 22.367 211.224, 23.571 212.429 C 24.436 213.293, 25.529 214, 26 214 C 28.696 214, 30 210.576, 30 203.496 C 30 196.935, 30.225 196.064, 32.066 195.479 C 35.091 194.519, 40.861 189.169, 42.694 185.625 C 44.738 181.672, 44.738 173.328, 42.694 169.375 C 40.458 165.052, 34.736 160.298, 30.277 159.060 C 25.928 157.852, 24.582 157.848, 20.648 159.027 M 103.616 159.527 C 102.727 160.416, 102 161.529, 102 162 C 102 163.389, 105.140 166.120, 106.295 165.735 C 108.395 165.035, 109.549 162.094, 108.423 160.310 C 106.905 157.902, 105.474 157.669, 103.616 159.527 M 71.585 191.558 C 70.713 192.430, 70 193.529, 70 194 C 70 194.471, 70.713 195.570, 71.585 196.442 C 72.978 197.835, 77.159 197.995, 106.226 197.763 C 136.452 197.523, 139.377 197.350, 140.386 195.750 C 141.191 194.474, 141.191 193.526, 140.386 192.250 C 139.377 190.650, 136.452 190.477, 106.226 190.237 C 77.159 190.005, 72.978 190.165, 71.585 191.558 M 23.571 222.571 C 22.707 223.436, 22 224.529, 22 225 C 22 226.111, 24.889 229, 26 229 C 27.111 229, 30 226.111, 30 225 C 30 223.889, 27.111 221, 26 221 C 25.529 221, 24.436 221.707, 23.571 222.571 M 103.616 223.527 C 102.727 224.416, 102 225.529, 102 226 C 102 227.389, 105.140 230.120, 106.295 229.735 C 108.395 229.035, 109.549 226.094, 108.423 224.310 C 106.905 221.902, 105.474 221.669, 103.616 223.527 " stroke="none" fill="black" fill-rule="evenodd"/>
</svg>