<svg xmlns="http://www.w3.org/2000/svg" width="340" height="324" viewBox="0 0 340 324" version="1.1">
	<path d="M 40.316 62.784 C 38.369 64.022, 22.007 97.855, 22.604 99.410 C 23.269 101.144, 25.524 102.120, 27.295 101.440 C 28.007 101.167, 31.480 95.106, 35.014 87.972 C 38.547 80.837, 41.691 75, 42 75 C 42.309 75, 45.453 80.837, 48.986 87.972 C 52.520 95.106, 55.993 101.167, 56.705 101.440 C 58.487 102.124, 60.732 101.141, 61.407 99.381 C 61.997 97.844, 45.582 64.037, 43.628 62.765 C 42.214 61.845, 41.789 61.847, 40.316 62.784 M 167.571 127.571 C 166.199 128.944, 166 133.887, 166 166.664 L 166 204.185 160.952 199.646 C 152.756 192.278, 141.372 188.967, 131.295 191.021 C 119.607 193.403, 110.289 200.829, 105.189 211.825 C 101.440 219.907, 101.440 231.093, 105.189 239.175 C 110.358 250.320, 119.718 257.697, 131.635 260.019 C 142.635 262.163, 155.560 257.711, 163.065 249.194 C 168.318 243.232, 169.459 240.981, 171.962 231.641 C 173.875 224.502, 174 221.172, 174 177.241 C 174 136.505, 173.798 130.157, 172.443 128.223 C 170.598 125.588, 169.678 125.465, 167.571 127.571 M 33.384 159.412 C 15.475 163.758, 3.559 181.807, 6.987 199.396 C 9.923 214.467, 20.510 225.032, 35.660 228.013 C 46.748 230.194, 59.444 225.749, 67.399 216.901 C 85.210 197.091, 75.186 165.489, 49.147 159.360 C 42.397 157.772, 40.111 157.779, 33.384 159.412 M 31.054 167.728 C 25.018 169.859, 17.781 177.260, 15.667 183.463 C 11.995 194.241, 14.382 205.477, 21.952 213.048 C 32.402 223.497, 49.888 223.773, 60.280 213.653 C 66.701 207.401, 68.500 202.989, 68.500 193.500 C 68.500 184.107, 66.733 179.694, 60.453 173.406 C 53.491 166.434, 41.355 164.091, 31.054 167.728 M 199.200 191.200 C 198.540 191.860, 198 192.754, 198 193.186 C 198 194.735, 230.773 260.742, 231.883 261.428 C 234.874 263.276, 237.070 259.892, 251.125 231.762 L 265.744 202.502 280.334 231.669 C 288.359 247.710, 295.395 261.126, 295.971 261.482 C 298.896 263.290, 301.237 259.553, 317.251 227.508 C 326.463 209.074, 334 193.801, 334 193.568 C 334 193.334, 333.293 192.436, 332.429 191.571 C 331.032 190.175, 323.594 190, 265.629 190 C 216.229 190, 200.109 190.291, 199.200 191.200 M 127.463 199.591 C 121.971 201.541, 116.552 206.205, 113.249 211.824 C 110.800 215.989, 110.500 217.483, 110.500 225.500 C 110.500 233.517, 110.800 235.011, 113.249 239.176 C 121.926 253.937, 141.604 257.610, 155.031 246.976 C 160.751 242.445, 165 233.292, 165 225.500 C 165 214.038, 157.486 203.200, 146.965 199.488 C 141.740 197.644, 132.813 197.692, 127.463 199.591 M 220.608 223.250 C 227.546 237.137, 233.371 248.661, 233.553 248.859 C 233.878 249.211, 259 199.502, 259 198.508 C 259 198.228, 247.523 198, 233.496 198 L 207.992 198 220.608 223.250 M 284.608 223.250 C 291.546 237.137, 297.371 248.661, 297.553 248.859 C 297.878 249.211, 323 199.502, 323 198.508 C 323 198.228, 311.523 198, 297.496 198 L 271.992 198 284.608 223.250 " stroke="none" fill="black" fill-rule="evenodd"/>
</svg>