<svg xmlns="http://www.w3.org/2000/svg" width="148" height="324" viewBox="0 0 148 324" version="1.1">
	<path d="M 103.750 127.080 C 102.113 128.034, 102 132.152, 102 191.050 L 102 254 87.571 254 C 75.788 254, 72.855 254.288, 71.571 255.571 C 69.595 257.548, 69.598 258.455, 71.585 260.442 C 72.978 261.835, 77.159 261.995, 106.226 261.763 C 136.452 261.523, 139.377 261.350, 140.386 259.750 C 141.190 258.475, 141.191 257.525, 140.387 256.250 C 139.433 254.736, 137.314 254.463, 124.643 254.223 L 110 253.947 110 192.196 C 110 137.925, 109.811 130.176, 108.443 128.223 C 106.702 125.736, 106.248 125.625, 103.750 127.080 M 4.235 187.046 C 0.276 188.620, -0.655 193.973, 2.358 197.846 C 2.933 198.587, 3.426 200.387, 3.452 201.846 C 3.491 203.990, 4.034 204.561, 6.276 204.819 C 8.738 205.102, 9.293 204.593, 11.188 200.319 C 14.644 192.524, 13.770 188.089, 8.500 186.680 C 7.400 186.386, 5.481 186.551, 4.235 187.046 M 35.235 187.046 C 30.966 188.743, 30.298 197.026, 34.306 198.564 C 35.142 198.885, 35.485 200.150, 35.222 201.940 C 34.885 204.237, 35.254 204.946, 37.089 205.528 C 39.913 206.424, 42.492 203.599, 44.015 197.943 C 46.149 190.019, 41.687 184.481, 35.235 187.046 " stroke="none" fill="black" fill-rule="evenodd"/>
</svg>