<svg xmlns="http://www.w3.org/2000/svg" width="244" height="324" viewBox="0 0 244 324" version="1.1">
	<path d="M 103.571 127.571 C 102.176 128.966, 102 136.152, 102 191.571 L 102 254 87.571 254 C 75.788 254, 72.855 254.288, 71.571 255.571 C 69.598 257.545, 69.598 258.455, 71.571 260.429 C 72.936 261.793, 77.463 262, 106 262 C 134.537 262, 139.064 261.793, 140.429 260.429 C 141.293 259.564, 142 258.471, 142 258 C 142 257.529, 141.293 256.436, 140.429 255.571 C 139.145 254.288, 136.212 254, 124.429 254 L 110 254 110 191.571 C 110 136.152, 109.824 128.966, 108.429 127.571 C 107.564 126.707, 106.471 126, 106 126 C 105.529 126, 104.436 126.707, 103.571 127.571 M 4.235 187.046 C 0.276 188.620, -0.655 193.973, 2.358 197.846 C 2.933 198.587, 3.426 200.387, 3.452 201.846 C 3.491 203.990, 4.034 204.561, 6.276 204.819 C 8.738 205.102, 9.293 204.593, 11.188 200.319 C 14.644 192.524, 13.770 188.089, 8.500 186.680 C 7.400 186.386, 5.481 186.551, 4.235 187.046 M 35.235 187.046 C 30.966 188.743, 30.298 197.026, 34.306 198.564 C 35.142 198.885, 35.485 200.150, 35.222 201.940 C 34.885 204.237, 35.254 204.946, 37.089 205.528 C 39.913 206.424, 42.492 203.599, 44.015 197.943 C 46.149 190.019, 41.687 184.481, 35.235 187.046 M 199.750 223.080 C 198.207 223.979, 198 225.866, 198 239.050 L 198 254 183.934 254 C 169.308 254, 166 254.738, 166 258 C 166 261.262, 169.308 262, 183.934 262 L 198 262 198 276.965 C 198 291.324, 198.088 291.977, 200.183 293.098 C 202.042 294.093, 202.636 293.933, 204.183 292.022 C 205.744 290.095, 206 287.823, 206 275.916 L 206 262.053 220.643 261.777 C 233.314 261.537, 235.433 261.264, 236.387 259.750 C 237.191 258.475, 237.191 257.525, 236.387 256.250 C 235.433 254.736, 233.314 254.463, 220.643 254.223 L 206 253.947 206 240.196 C 206 229.369, 205.669 225.972, 204.443 224.223 C 202.702 221.736, 202.248 221.625, 199.750 223.080 " stroke="none" fill="black" fill-rule="evenodd"/>
</svg>