<svg xmlns="http://www.w3.org/2000/svg" width="340" height="324" viewBox="0 0 340 324" version="1.1">
	<path d="M 40.372 62.765 C 38.418 64.037, 22.003 97.844, 22.593 99.381 C 23.268 101.141, 25.513 102.124, 27.295 101.440 C 28.007 101.167, 31.480 95.106, 35.014 87.972 C 38.547 80.837, 41.691 75, 42 75 C 42.309 75, 45.453 80.837, 48.986 87.972 C 52.520 95.106, 55.993 101.167, 56.705 101.440 C 58.487 102.124, 60.732 101.141, 61.407 99.381 C 61.716 98.575, 58.096 90.173, 53.363 80.708 C 45.638 65.261, 43.672 62.031, 42 62.031 C 41.725 62.031, 40.992 62.361, 40.372 62.765 M 227.434 126.889 C 212.976 129.365, 200.389 142.690, 198.450 157.573 C 197.925 161.606, 198.133 162.990, 199.466 164.323 C 200.388 165.245, 201.535 166, 202.015 166 C 203.733 166, 206 161.490, 206.022 158.027 C 206.067 150.781, 211.949 141.872, 219.680 137.342 C 225.093 134.170, 235.591 133.058, 241.609 135.020 C 251.232 138.158, 259.161 147.222, 260.584 156.712 C 262.429 169.016, 253.018 196.412, 240.270 215.847 C 234.846 224.117, 215.728 242.873, 207 248.487 C 202.875 251.140, 198.968 253.961, 198.317 254.755 C 196.719 256.706, 198.622 260.873, 201.421 261.554 C 202.565 261.832, 217.851 261.933, 235.391 261.780 C 264.497 261.524, 267.379 261.347, 268.386 259.750 C 269.191 258.474, 269.191 257.526, 268.387 256.250 C 267.394 254.675, 264.579 254.450, 240.173 254 L 213.063 253.500 221.143 247.008 C 243.756 228.840, 259.615 202.869, 266.382 172.924 C 269.074 161.008, 268.689 154.609, 264.771 146.189 C 258.606 132.936, 242.062 124.385, 227.434 126.889 M 33.384 159.357 C 15.361 163.923, 3.562 181.820, 6.987 199.396 C 10.713 218.519, 28.557 231.395, 46.698 228.051 C 69.327 223.881, 81.966 201.817, 73.934 180.507 C 68.097 165.023, 49.437 155.290, 33.384 159.357 M 295.750 159.080 C 294.155 160.009, 294 162.388, 294 186.015 C 294 211.174, 294.060 211.962, 296.064 213.034 C 297.596 213.854, 298.498 213.832, 299.564 212.947 C 300.744 211.968, 301 207.174, 301 186.078 C 301 157.906, 300.671 156.214, 295.750 159.080 M 31.054 167.728 C 25.018 169.859, 17.781 177.260, 15.667 183.463 C 11.995 194.241, 14.382 205.477, 21.952 213.048 C 32.761 223.857, 50.503 223.777, 61.125 212.872 C 71.768 201.945, 71.768 185.055, 61.125 174.128 C 53.628 166.432, 41.834 163.922, 31.054 167.728 M 103.585 191.558 C 102.713 192.430, 102 193.529, 102 194 C 102 194.471, 102.713 195.570, 103.585 196.442 C 104.978 197.835, 109.159 197.995, 138.226 197.763 C 168.452 197.523, 171.377 197.350, 172.386 195.750 C 173.191 194.474, 173.191 193.526, 172.386 192.250 C 171.377 190.650, 168.452 190.477, 138.226 190.237 C 109.159 190.005, 104.978 190.165, 103.585 191.558 M 295.750 222.080 C 293.372 223.465, 293.542 226.685, 296.064 228.034 C 299.753 230.008, 302.819 225.219, 299.800 222.200 C 298.367 220.767, 298.022 220.757, 295.750 222.080 " stroke="none" fill="black" fill-rule="evenodd"/>
</svg>