<svg xmlns="http://www.w3.org/2000/svg" width="244" height="324" viewBox="0 0 244 324" version="1.1">
	<path d="M 167.571 127.571 C 166.219 128.924, 166 132.971, 166 156.586 L 166 184.028 162.250 181.553 C 145.317 170.376, 118.114 173.119, 104.081 187.418 C 100.344 191.225, 99.950 192.037, 100.939 193.886 C 102.506 196.814, 104.159 196.545, 108.894 192.589 C 114.982 187.502, 118.858 185.362, 125.409 183.471 C 137.502 179.981, 152.568 182.856, 162.708 190.591 L 166 193.102 166 221.270 L 166 249.437 160.221 243.719 C 157.043 240.573, 154.150 238, 153.792 238 C 152.759 238, 150 241.040, 150 242.178 C 150 242.747, 153.226 246.540, 157.169 250.607 L 164.338 258 157.169 265.393 C 153.226 269.460, 150 273.253, 150 273.822 C 150 274.960, 152.759 278, 153.792 278 C 154.150 278, 157.043 275.427, 160.221 272.281 L 166 266.563 166 278.710 C 166 288.420, 166.315 291.172, 167.571 292.429 C 169.457 294.315, 170.219 294.381, 171.800 292.800 C 172.605 291.995, 173 287.500, 173 279.148 L 173 266.696 178.926 272.348 C 185.212 278.344, 185.907 278.693, 187.800 276.800 C 190.049 274.551, 189.003 272.550, 181.775 265.274 L 174.550 258 181.775 250.726 C 189.003 243.450, 190.049 241.449, 187.800 239.200 C 185.907 237.307, 185.212 237.656, 178.926 243.652 L 173 249.304 173 225.545 C 173 206.911, 173.270 201.905, 174.250 202.336 C 189.717 209.148, 197.001 210.614, 207.425 209.014 C 219.774 207.118, 236.520 197.515, 235.805 192.740 C 235.178 188.551, 232.558 188.409, 227.803 192.305 C 213.842 203.745, 193.545 205.229, 178.857 195.883 C 176.304 194.259, 173.948 191.933, 173.621 190.715 C 173.294 189.497, 173.021 174.977, 173.014 158.450 C 173.004 136.427, 172.679 128.079, 171.800 127.200 C 170.219 125.619, 169.457 125.685, 167.571 127.571 M 33.384 159.357 C 15.361 163.923, 3.562 181.820, 6.987 199.396 C 10.713 218.519, 28.557 231.395, 46.698 228.051 C 69.327 223.881, 81.966 201.817, 73.934 180.507 C 68.097 165.023, 49.437 155.290, 33.384 159.357 M 31.054 167.728 C 25.018 169.859, 17.781 177.260, 15.667 183.463 C 11.995 194.241, 14.382 205.477, 21.952 213.048 C 32.402 223.497, 49.888 223.773, 60.280 213.653 C 66.701 207.401, 68.500 202.989, 68.500 193.500 C 68.500 184.107, 66.733 179.694, 60.453 173.406 C 53.491 166.434, 41.355 164.091, 31.054 167.728 M 39.571 191.571 C 38.707 192.436, 38 193.529, 38 194 C 38 195.111, 40.889 198, 42 198 C 43.111 198, 46 195.111, 46 194 C 46 192.889, 43.111 190, 42 190 C 41.529 190, 40.436 190.707, 39.571 191.571 M 7.571 255.571 C 6.707 256.436, 6 257.529, 6 258 C 6 258.471, 6.707 259.564, 7.571 260.429 C 8.936 261.793, 13.463 262, 42 262 C 70.537 262, 75.064 261.793, 76.429 260.429 C 77.293 259.564, 78 258.471, 78 258 C 78 257.529, 77.293 256.436, 76.429 255.571 C 75.064 254.207, 70.537 254, 42 254 C 13.463 254, 8.936 254.207, 7.571 255.571 " stroke="none" fill="black" fill-rule="evenodd"/>
</svg>