<svg xmlns="http://www.w3.org/2000/svg" width="372" height="324" viewBox="0 0 372 324" version="1.1">
	<path d="M 71.586 62.861 C 67.877 68.862, 54.188 98.325, 54.604 99.410 C 55.269 101.144, 57.524 102.120, 59.295 101.440 C 60.007 101.167, 63.480 95.106, 67.014 87.972 C 70.547 80.837, 73.691 75, 74 75 C 74.309 75, 77.453 80.837, 80.986 87.972 C 84.520 95.106, 87.993 101.167, 88.705 101.440 C 90.478 102.121, 92.731 101.144, 93.398 99.406 C 93.702 98.614, 89.990 89.986, 85.150 80.233 C 78.379 66.588, 75.870 62.429, 74.269 62.193 C 73.125 62.024, 71.917 62.325, 71.586 62.861 M 295.571 127.571 C 294.212 128.931, 294 133.242, 294 159.571 L 294 190 263.571 190 C 237.242 190, 232.931 190.212, 231.571 191.571 C 229.598 193.545, 229.598 194.455, 231.571 196.429 C 232.931 197.788, 237.242 198, 263.571 198 L 294 198 294 228.429 C 294 254.758, 294.212 259.069, 295.571 260.429 C 296.436 261.293, 297.529 262, 298 262 C 298.471 262, 299.564 261.293, 300.429 260.429 C 301.788 259.069, 302 254.758, 302 228.429 L 302 198 332.429 198 C 358.758 198, 363.069 197.788, 364.429 196.429 C 366.402 194.455, 366.402 193.545, 364.429 191.571 C 363.069 190.212, 358.758 190, 332.429 190 L 302 190 302 159.571 C 302 133.242, 301.788 128.931, 300.429 127.571 C 299.564 126.707, 298.471 126, 298 126 C 297.529 126, 296.436 126.707, 295.571 127.571 M 167.571 159.571 C 166.707 160.436, 166 161.636, 166 162.239 C 166 162.841, 171.941 169.334, 179.202 176.667 L 192.405 190 132.774 190 C 79.897 190, 72.965 190.178, 71.571 191.571 C 69.598 193.545, 69.598 194.455, 71.571 196.429 C 72.965 197.822, 79.897 198, 132.774 198 L 192.405 198 179.202 211.333 C 171.941 218.666, 166 225.159, 166 225.761 C 166 227.187, 168.825 230, 170.257 230 C 172.006 230, 206 195.761, 206 194 C 206 192.239, 172.006 158, 170.257 158 C 169.644 158, 168.436 158.707, 167.571 159.571 M 103.571 223.571 C 102.707 224.436, 102 225.636, 102 226.239 C 102 226.841, 107.941 233.334, 115.202 240.667 L 128.405 254 68.774 254 C 15.897 254, 8.965 254.178, 7.571 255.571 C 5.598 257.545, 5.598 258.455, 7.571 260.429 C 8.965 261.822, 15.897 262, 68.774 262 L 128.405 262 115.202 275.333 C 107.941 282.666, 102 289.159, 102 289.761 C 102 291.187, 104.825 294, 106.257 294 C 108.006 294, 142 259.761, 142 258 C 142 256.239, 108.006 222, 106.257 222 C 105.644 222, 104.436 222.707, 103.571 223.571 " stroke="none" fill="black" fill-rule="evenodd"/>
</svg>