<svg xmlns="http://www.w3.org/2000/svg" width="308" height="324" viewBox="0 0 308 324" version="1.1">
	<path d="M 7.571 127.571 C 6.707 128.436, 6 129.657, 6 130.286 C 6 130.914, 20.400 145.854, 38 163.485 L 70 195.540 70 224.770 L 70 254 39.571 254 C 13.242 254, 8.931 254.212, 7.571 255.571 C 5.596 257.546, 5.598 258.455, 7.579 260.436 C 8.990 261.847, 16.058 261.987, 74.220 261.757 C 134.934 261.517, 139.356 261.383, 140.386 259.750 C 141.191 258.474, 141.191 257.526, 140.386 256.250 C 139.381 254.655, 136.566 254.477, 108.641 254.236 L 78 253.971 78 224.624 L 78 195.277 109.500 163.236 C 126.825 145.614, 141 130.567, 141 129.798 C 141 128.169, 139.051 126, 137.587 126 C 137.029 126, 122.494 140.053, 105.287 157.229 L 74 188.458 42.713 157.229 C 25.506 140.053, 10.913 126, 10.285 126 C 9.657 126, 8.436 126.707, 7.571 127.571 M 285.500 127.480 C 270.773 130.215, 256.503 138.118, 247.023 148.791 C 242.282 154.128, 234.162 168.413, 232.719 173.955 C 232.093 176.360, 232.019 176.326, 229.097 172.292 C 222.890 163.725, 212.700 158.797, 201 158.705 C 190.680 158.624, 182.992 162.081, 175.502 170.171 C 162.946 183.733, 162.946 203.267, 175.502 216.829 C 179.314 220.946, 182.808 223.538, 187.207 225.512 C 202.147 232.217, 221.215 226.872, 229.613 213.626 C 231.201 211.122, 232.740 209.057, 233.034 209.037 C 233.328 209.016, 234.301 210.238, 235.196 211.750 C 238.233 216.881, 244.478 222.263, 250.942 225.321 C 256.423 227.913, 258.513 228.359, 264.942 228.302 C 273.759 228.225, 279.267 226.443, 286.033 221.475 C 304.515 207.909, 304.515 179.091, 286.033 165.525 C 279.280 160.567, 273.756 158.775, 264.992 158.698 C 258.878 158.644, 256.396 159.130, 251.621 161.316 C 248.397 162.792, 245.566 164, 245.331 164 C 244.366 164, 251.093 155.141, 255.145 151.077 C 264.745 141.446, 278.048 135.212, 291 134.275 C 299.022 133.694, 301 132.831, 301 129.913 C 301 125.993, 296.941 125.356, 285.500 127.480 M 192.994 166.934 C 177.518 171.642, 169.289 189.705, 175.880 204.500 C 180.394 214.633, 188.266 220.061, 199.494 220.781 C 205.732 221.182, 207.546 220.895, 212.139 218.781 C 222.926 213.816, 228.446 205.258, 228.446 193.500 C 228.446 181.799, 223.033 173.253, 212.521 168.358 C 207.348 165.949, 198.382 165.295, 192.994 166.934 M 253.500 168.353 C 247.832 170.998, 241.816 177.147, 239.437 182.728 C 237.258 187.840, 237.227 199.397, 239.380 204.272 C 245.614 218.392, 262.797 225.033, 276.538 218.634 C 285.789 214.327, 293 203.316, 293 193.500 C 293 183.684, 285.789 172.673, 276.538 168.366 C 269.625 165.146, 260.382 165.141, 253.500 168.353 M 226.355 222.998 C 216.040 225.143, 206.046 233.099, 201.244 242.987 C 198.948 247.715, 198.567 249.781, 198.567 257.500 C 198.567 265.219, 198.948 267.285, 201.244 272.013 C 204.869 279.478, 211.195 285.667, 218.942 289.326 C 232.984 295.958, 251.197 291.609, 260.508 279.400 C 275.051 260.334, 267.202 232.333, 245.132 224.547 C 239.788 222.661, 231.330 221.964, 226.355 222.998 M 221.500 232.387 C 200.908 242.139, 200.314 271.797, 220.500 282.246 C 226.710 285.460, 237.254 285.807, 243.754 283.010 C 253.560 278.792, 261 267.787, 261 257.500 C 261 247.480, 253.989 236.797, 244.500 232.358 C 237.594 229.128, 228.358 229.140, 221.500 232.387 " stroke="none" fill="black" fill-rule="evenodd"/>
</svg>