<svg xmlns="http://www.w3.org/2000/svg" width="148" height="324" viewBox="0 0 148 324" version="1.1">
	<path d="M 55.571 63.571 C 54.707 64.436, 54 65.317, 54 65.531 C 54 66.316, 71.159 100.529, 71.965 101.349 C 74.275 103.702, 76.913 100.229, 84.760 84.501 C 89.292 75.417, 93 67.143, 93 66.115 C 93 63.770, 90.710 61.790, 88.832 62.511 C 88.050 62.811, 84.520 68.894, 80.986 76.028 C 77.453 83.163, 74.308 89, 73.997 89 C 73.687 89, 70.748 83.534, 67.467 76.853 C 59.925 61.499, 58.847 60.296, 55.571 63.571 M 7.571 127.571 C 6.175 128.968, 6 136.372, 6 194 C 6 251.628, 6.175 259.032, 7.571 260.429 C 8.436 261.293, 9.529 262, 10 262 C 10.471 262, 11.564 261.293, 12.429 260.429 C 13.781 259.076, 14 255.012, 14 231.226 L 14 203.595 27.333 216.798 C 34.666 224.059, 41.159 230, 41.761 230 C 43.183 230, 46 227.176, 46 225.751 C 46 225.143, 39.156 217.750, 30.792 209.323 L 15.584 194 30.792 178.677 C 39.156 170.250, 46 162.857, 46 162.249 C 46 160.824, 43.183 158, 41.761 158 C 41.159 158, 34.666 163.941, 27.333 171.202 L 14 184.405 14 156.774 C 14 132.988, 13.781 128.924, 12.429 127.571 C 11.564 126.707, 10.471 126, 10 126 C 9.529 126, 8.436 126.707, 7.571 127.571 M 135.750 127.080 C 134.148 128.013, 134 130.520, 134 156.786 L 134 185.473 120.237 171.737 C 112.667 164.181, 106.175 158, 105.808 158 C 104.731 158, 102 161.047, 102 162.249 C 102 162.857, 108.844 170.250, 117.208 178.677 L 132.416 194 117.208 209.323 C 108.844 217.750, 102 225.143, 102 225.751 C 102 226.953, 104.731 230, 105.808 230 C 106.175 230, 112.667 223.819, 120.237 216.263 L 134 202.527 134 231.228 C 134 259.433, 134.037 259.949, 136.117 261.062 C 141.076 263.716, 141.023 264.441, 141.023 194.069 C 141.023 123.438, 141.066 123.984, 135.750 127.080 " stroke="none" fill="black" fill-rule="evenodd"/>
</svg>