<svg xmlns="http://www.w3.org/2000/svg" width="212" height="324" viewBox="0 0 212 324" version="1.1">
	<path d="M 67 126.580 C 47.841 129.817, 36.303 135.596, 24.973 147.630 C 14.512 158.742, 9.067 170.184, 6.930 185.546 C 2.452 217.745, 24.493 249.873, 57.017 258.555 C 65.805 260.901, 80.463 260.925, 89.711 258.610 C 112.505 252.901, 131.080 235.026, 138.145 212 C 141.393 201.417, 141.391 185.573, 138.142 175 C 131.090 152.053, 112.891 134.341, 90.500 128.632 C 84.129 127.008, 71.167 125.876, 67 126.580 M 57.500 135.870 C 37.436 141.645, 20.733 158.691, 15.585 178.644 C 13.593 186.367, 13.571 199.556, 15.537 207.897 C 20.338 228.261, 38.739 246.662, 59.103 251.463 C 67.422 253.423, 80.634 253.409, 88.269 251.430 C 109.049 246.046, 126.032 229.161, 131.485 208.465 C 133.505 200.800, 133.505 186.200, 131.485 178.535 C 126.032 157.839, 109.049 140.954, 88.269 135.570 C 80.233 133.487, 65.269 133.633, 57.500 135.870 M 168.178 191.285 C 167.527 192.070, 167.041 199.510, 166.930 210.399 C 166.786 224.588, 167.030 228.405, 168.125 229.098 C 168.881 229.577, 176.137 229.976, 184.250 229.985 L 199 230 199 244.878 C 199 261.071, 199.684 263.310, 203.936 261.034 C 205.959 259.952, 206 259.256, 206 226 C 206 192.744, 205.959 192.048, 203.936 190.966 C 199.684 188.690, 199 190.929, 199 207.122 L 199 222 186.500 222 L 174 222 174 207.571 C 174 195.788, 173.712 192.855, 172.429 191.571 C 170.521 189.664, 169.577 189.600, 168.178 191.285 " stroke="none" fill="black" fill-rule="evenodd"/>
</svg>