<svg xmlns="http://www.w3.org/2000/svg" width="340" height="324" viewBox="0 0 340 324" version="1.1">
	<path d="M 34.223 127.062 C 24.045 129.068, 13.996 137.411, 9.216 147.825 C 5.524 155.869, 5.513 167.108, 9.191 175.120 C 16.596 191.253, 30.291 198, 55.630 198 L 68.006 198 53.020 227.961 C 44.777 244.439, 38.285 258.580, 38.594 259.384 C 39.265 261.133, 41.512 262.125, 43.274 261.448 C 43.975 261.180, 51.056 247.919, 59.010 231.980 C 66.964 216.041, 73.717 203, 74.016 203 C 74.315 203, 81.042 216.034, 88.965 231.964 C 96.888 247.894, 103.962 261.155, 104.685 261.433 C 105.408 261.710, 106.573 261.717, 107.274 261.448 C 107.975 261.180, 115.056 247.919, 123.010 231.980 C 130.964 216.041, 137.710 203, 138 203 C 138.290 203, 145.036 216.041, 152.990 231.980 C 160.944 247.919, 168.083 261.201, 168.853 261.497 C 170.718 262.213, 173 260.217, 173 257.871 C 173 256.835, 166.480 242.952, 158.511 227.021 L 144.021 198.056 157.653 197.778 C 169.361 197.539, 171.441 197.253, 172.388 195.750 C 173.191 194.475, 173.190 193.525, 172.387 192.250 C 171.359 190.620, 166.648 190.463, 103.892 189.965 C 27.298 189.357, 30.623 189.719, 21.952 181.048 C 14.382 173.477, 11.995 162.241, 15.667 151.463 C 18.862 142.088, 29.949 134, 39.607 134 C 42.663 134, 46 131.912, 46 130 C 46 128.324, 42.823 126.002, 40.679 126.110 C 39.480 126.170, 36.575 126.598, 34.223 127.062 M 199.571 127.571 C 198.175 128.968, 198 136.406, 198 194.371 C 198 243.771, 198.291 259.891, 199.200 260.800 C 200.607 262.207, 329.589 262.547, 331.792 261.150 C 332.827 260.493, 333.071 247.248, 333.021 194.431 C 332.955 123.627, 333.005 124.321, 328.117 126.938 L 326 128.070 326 191.035 L 326 254 266 254 L 206 254 206 192.223 C 206 137.928, 205.811 130.176, 204.443 128.223 C 202.598 125.588, 201.678 125.465, 199.571 127.571 M 92.743 223.500 C 99.750 237.525, 105.715 249, 106 249 C 106.285 249, 112.250 237.525, 119.257 223.500 L 131.995 198 106 198 L 80.005 198 92.743 223.500 " stroke="none" fill="black" fill-rule="evenodd"/>
</svg>