<svg xmlns="http://www.w3.org/2000/svg" width="180" height="324" viewBox="0 0 180 324" version="1.1">
	<path d="M 39.571 127.571 C 38.176 128.966, 38 136.152, 38 191.571 L 38 254 23.571 254 C 11.788 254, 8.855 254.288, 7.571 255.571 C 5.598 257.545, 5.598 258.455, 7.571 260.429 C 8.936 261.793, 13.463 262, 42 262 C 70.537 262, 75.064 261.793, 76.429 260.429 C 77.293 259.564, 78 258.471, 78 258 C 78 257.529, 77.293 256.436, 76.429 255.571 C 75.145 254.288, 72.212 254, 60.429 254 L 46 254 46 191.571 C 46 136.152, 45.824 128.966, 44.429 127.571 C 43.564 126.707, 42.471 126, 42 126 C 41.529 126, 40.436 126.707, 39.571 127.571 M 136.370 126.765 C 134.401 128.045, 102.007 193.855, 102.594 195.384 C 103.265 197.133, 105.512 198.124, 107.274 197.448 C 107.975 197.180, 115.056 183.919, 123.010 167.980 C 130.964 152.041, 137.710 139, 138 139 C 138.290 139, 145.036 152.041, 152.990 167.980 C 160.944 183.919, 168.025 197.180, 168.726 197.448 C 170.488 198.124, 172.735 197.133, 173.406 195.384 C 173.993 193.855, 141.599 128.045, 139.630 126.765 C 139.009 126.361, 138.275 126.031, 138 126.031 C 137.725 126.031, 136.991 126.361, 136.370 126.765 M 136.370 190.765 C 134.401 192.045, 102.007 257.855, 102.594 259.384 C 103.265 261.133, 105.512 262.124, 107.274 261.448 C 107.975 261.180, 115.056 247.919, 123.010 231.980 C 130.964 216.041, 137.710 203, 138 203 C 138.290 203, 145.036 216.041, 152.990 231.980 C 160.944 247.919, 168.025 261.180, 168.726 261.448 C 170.488 262.124, 172.735 261.133, 173.406 259.384 C 173.993 257.855, 141.599 192.045, 139.630 190.765 C 139.009 190.361, 138.275 190.031, 138 190.031 C 137.725 190.031, 136.991 190.361, 136.370 190.765 " stroke="none" fill="black" fill-rule="evenodd"/>
</svg>