<svg xmlns="http://www.w3.org/2000/svg" width="244" height="324" viewBox="0 0 244 324" version="1.1">
	<path d="M 40.316 62.784 C 38.369 64.022, 22.007 97.855, 22.604 99.410 C 23.269 101.144, 25.524 102.120, 27.295 101.440 C 28.007 101.167, 31.480 95.106, 35.014 87.972 C 38.547 80.837, 41.691 75, 42 75 C 42.309 75, 45.453 80.837, 48.986 87.972 C 52.520 95.106, 55.993 101.167, 56.705 101.440 C 58.487 102.124, 60.732 101.141, 61.407 99.381 C 61.997 97.844, 45.582 64.037, 43.628 62.765 C 42.214 61.845, 41.789 61.847, 40.316 62.784 M 103.200 127.200 C 101.465 128.935, 101.465 259.065, 103.200 260.800 C 104.109 261.709, 120.172 261.996, 169.450 261.985 C 205.227 261.976, 235.072 261.606, 235.772 261.162 C 237.639 259.977, 237.639 128.023, 235.772 126.838 C 235.072 126.394, 205.228 126.024, 169.450 126.015 C 120.172 126.004, 104.109 126.291, 103.200 127.200 M 110 194 L 110 254 170 254 L 230 254 230 194 L 230 134 170 134 L 110 134 110 194 M 33.384 159.412 C 15.475 163.758, 3.559 181.807, 6.987 199.396 C 8.500 207.161, 12.212 214.019, 17.580 218.967 C 40.258 239.870, 76.252 224.246, 76.252 193.500 C 76.252 176.888, 65.367 163.178, 49.147 159.360 C 42.397 157.772, 40.111 157.779, 33.384 159.412 M 162.355 158.986 C 151.790 161.214, 142.114 169.146, 137.329 179.500 C 133.350 188.111, 133.383 198.888, 137.417 207.734 C 140.868 215.303, 147.786 222.097, 155.762 225.749 C 163.369 229.231, 173.855 229.361, 182.297 226.077 C 189.354 223.331, 197.569 215.634, 201.056 208.500 C 203.152 204.212, 203.500 202.075, 203.500 193.500 C 203.500 181.367, 201.450 176.286, 193.353 168.339 C 185.361 160.497, 172.948 156.752, 162.355 158.986 M 31.054 167.728 C 25.018 169.859, 17.781 177.260, 15.667 183.463 C 11.995 194.241, 14.382 205.477, 21.952 213.048 C 32.402 223.497, 49.888 223.773, 60.280 213.653 C 66.701 207.401, 68.500 202.989, 68.500 193.500 C 68.500 184.011, 66.701 179.599, 60.280 173.347 C 53.109 166.363, 41.332 164.099, 31.054 167.728 M 159.627 167.468 C 154.247 169.386, 149.039 173.829, 145.500 179.519 C 142.969 183.589, 142.444 185.570, 142.143 192.193 C 141.830 199.089, 142.110 200.705, 144.454 205.496 C 155.603 228.284, 189.482 225.110, 196.098 200.657 C 199.476 188.171, 193.488 174.899, 181.854 169.085 C 174.871 165.595, 166.574 164.992, 159.627 167.468 M 167.616 191.527 C 166.727 192.416, 166 193.529, 166 194 C 166 195.389, 169.140 198.120, 170.295 197.735 C 172.395 197.035, 173.549 194.094, 172.423 192.310 C 170.905 189.902, 169.474 189.669, 167.616 191.527 " stroke="none" fill="black" fill-rule="evenodd"/>
</svg>