<svg xmlns="http://www.w3.org/2000/svg" width="244" height="324" viewBox="0 0 244 324" version="1.1">
	<path d="M 159.500 127.042 C 141.239 129.820, 123.711 141.198, 113.012 157.221 C 97.569 180.345, 99.121 212.740, 116.724 234.742 C 130.219 251.610, 148.253 260.349, 169.500 260.319 C 188.240 260.292, 203.028 254.065, 216.500 240.527 C 229.805 227.157, 236 212.218, 236 193.500 C 236 174.782, 229.805 159.843, 216.500 146.473 C 201.166 131.065, 180.150 123.901, 159.500 127.042 M 153.345 135.904 C 142.677 138.957, 136.033 142.962, 127.479 151.497 C 115.121 163.828, 110 176.133, 110 193.500 C 110 210.512, 115.128 223.074, 126.993 235.125 C 138.822 247.141, 152.541 253, 168.845 253 C 179.674 253, 185.916 251.576, 195.820 246.847 C 220.843 234.900, 234.032 205.996, 227.003 178.511 C 222.717 161.754, 211.079 147.438, 195.820 140.153 C 191.244 137.968, 185.115 135.690, 182.201 135.090 C 174.350 133.475, 160.464 133.867, 153.345 135.904 M 33.384 159.370 C 15.387 163.885, 3.561 181.817, 6.987 199.396 C 11.622 223.187, 35.789 235.119, 57.703 224.436 C 73.004 216.976, 80.269 197.314, 73.934 180.507 C 68.114 165.068, 49.449 155.339, 33.384 159.370 M 31.463 167.591 C 21.649 171.076, 15.014 180.069, 14.236 190.941 C 13.564 200.344, 15.870 206.965, 21.929 213.024 C 35.282 226.378, 58.294 222.490, 66.465 205.500 C 69.166 199.886, 69.632 190.420, 67.522 184.067 C 65.251 177.229, 58.125 169.912, 51.556 167.674 C 45.657 165.664, 36.992 165.628, 31.463 167.591 M 39.571 191.571 C 38.707 192.436, 38 193.529, 38 194 C 38 195.111, 40.889 198, 42 198 C 43.111 198, 46 195.111, 46 194 C 46 192.889, 43.111 190, 42 190 C 41.529 190, 40.436 190.707, 39.571 191.571 M 7.571 255.571 C 6.707 256.436, 6 257.529, 6 258 C 6 258.471, 6.707 259.564, 7.571 260.429 C 8.936 261.793, 13.463 262, 42 262 C 70.537 262, 75.064 261.793, 76.429 260.429 C 77.293 259.564, 78 258.471, 78 258 C 78 257.529, 77.293 256.436, 76.429 255.571 C 75.064 254.207, 70.537 254, 42 254 C 13.463 254, 8.936 254.207, 7.571 255.571 " stroke="none" fill="black" fill-rule="evenodd"/>
</svg>