<svg xmlns="http://www.w3.org/2000/svg" width="148" height="324" viewBox="0 0 148 324" version="1.1">
	<path d="M 33.384 159.357 C 15.361 163.923, 3.562 181.820, 6.987 199.396 C 9.923 214.467, 20.510 225.032, 35.660 228.013 C 51.129 231.056, 68.389 221.266, 74.002 206.266 C 76.889 198.550, 76.845 188.335, 73.893 180.443 C 68.130 165.041, 49.410 155.297, 33.384 159.357 M 31.054 167.728 C 25.018 169.859, 17.781 177.260, 15.667 183.463 C 9.189 202.476, 21.963 221, 41.552 221 C 56.843 221, 69 208.819, 69 193.500 C 69 182.038, 61.486 171.200, 50.965 167.488 C 45.610 165.598, 36.784 165.705, 31.054 167.728 M 39.571 191.571 C 38.707 192.436, 38 193.529, 38 194 C 38 195.111, 40.889 198, 42 198 C 43.111 198, 46 195.111, 46 194 C 46 192.889, 43.111 190, 42 190 C 41.529 190, 40.436 190.707, 39.571 191.571 M 115.921 191.322 C 113.953 192.050, 111.382 193.319, 110.208 194.142 C 103.170 199.071, 99.572 211.471, 104.618 213.407 C 107.005 214.323, 108.633 212.516, 109.879 207.567 C 112.655 196.542, 126.469 194.271, 131.506 204.011 C 132.328 205.600, 133 208.206, 133 209.802 C 133 213.774, 129.068 219.286, 125.469 220.360 C 118.858 222.333, 118 222.924, 118 225.500 C 118 228.076, 118.858 228.667, 125.469 230.640 C 129.068 231.714, 133 237.226, 133 241.198 C 133 242.794, 132.328 245.400, 131.506 246.989 C 126.639 256.400, 112.830 254.508, 110.012 244.043 C 108.819 239.615, 106.930 237.706, 104.618 238.593 C 101.661 239.728, 101.605 243.673, 104.463 249.513 C 110.197 261.234, 124.035 264.177, 133.662 255.724 C 138.087 251.838, 140 247.545, 140 241.500 C 140 235.968, 138.144 231.317, 134.651 228.097 L 132.044 225.693 135.466 221.906 C 143.264 213.275, 140.752 198.874, 130.389 192.801 C 126.276 190.391, 120.134 189.763, 115.921 191.322 M 7.585 255.558 C 6.713 256.430, 6 257.529, 6 258 C 6 258.471, 6.713 259.570, 7.585 260.442 C 8.978 261.835, 13.159 261.995, 42.226 261.763 C 72.452 261.523, 75.377 261.350, 76.386 259.750 C 77.191 258.474, 77.191 257.526, 76.386 256.250 C 75.377 254.650, 72.452 254.477, 42.226 254.237 C 13.159 254.005, 8.978 254.165, 7.585 255.558 " stroke="none" fill="black" fill-rule="evenodd"/>
</svg>