<svg xmlns="http://www.w3.org/2000/svg" width="212" height="324" viewBox="0 0 212 324" version="1.1">
	<path d="M 40.372 62.765 C 38.418 64.037, 22.003 97.844, 22.593 99.381 C 23.268 101.141, 25.513 102.124, 27.295 101.440 C 28.007 101.167, 31.480 95.106, 35.014 87.972 C 38.547 80.837, 41.691 75, 42 75 C 42.309 75, 45.453 80.837, 48.986 87.972 C 52.520 95.106, 55.993 101.167, 56.705 101.440 C 58.476 102.120, 60.731 101.144, 61.396 99.410 C 61.993 97.855, 45.631 64.022, 43.684 62.784 C 42.211 61.847, 41.786 61.845, 40.372 62.765 M 33.384 159.412 C 19.834 162.700, 9.946 173.194, 7.014 187.396 C 2.255 210.453, 24.558 232.697, 47.705 227.979 C 59.393 225.597, 68.711 218.171, 73.811 207.175 C 77.548 199.118, 77.559 187.904, 73.837 179.880 C 68.882 169.199, 60.164 161.953, 49.147 159.360 C 42.397 157.772, 40.111 157.779, 33.384 159.412 M 103.557 160.223 C 102.255 162.081, 102 166.299, 102 186 C 102 205.701, 102.255 209.919, 103.557 211.777 C 105.402 214.412, 106.322 214.535, 108.429 212.429 C 110.785 210.073, 110.785 161.927, 108.429 159.571 C 106.322 157.465, 105.402 157.588, 103.557 160.223 M 135.557 160.223 C 134.255 162.081, 134 166.299, 134 186 C 134 205.701, 134.255 209.919, 135.557 211.777 C 137.402 214.412, 138.322 214.535, 140.429 212.429 C 142.785 210.073, 142.785 161.927, 140.429 159.571 C 138.322 157.465, 137.402 157.588, 135.557 160.223 M 168.200 159.200 C 166.492 160.908, 166.492 211.092, 168.200 212.800 C 169.781 214.381, 170.543 214.315, 172.429 212.429 C 174.785 210.073, 174.785 161.927, 172.429 159.571 C 170.543 157.685, 169.781 157.619, 168.200 159.200 M 31.054 167.728 C 25.018 169.859, 17.781 177.260, 15.667 183.463 C 11.995 194.241, 14.382 205.477, 21.952 213.048 C 34.788 225.884, 56.462 222.978, 65.751 207.176 C 68.200 203.011, 68.500 201.517, 68.500 193.500 C 68.500 185.483, 68.200 183.989, 65.751 179.824 C 58.801 168.001, 44.449 162.998, 31.054 167.728 M 104.200 222.200 C 102.111 224.289, 103.447 229, 106.129 229 C 107.139 229, 110 226.044, 110 225 C 110 223.956, 107.139 221, 106.129 221 C 105.728 221, 104.860 221.540, 104.200 222.200 M 136.200 222.200 C 134.111 224.289, 135.447 229, 138.129 229 C 139.139 229, 142 226.044, 142 225 C 142 223.956, 139.139 221, 138.129 221 C 137.728 221, 136.860 221.540, 136.200 222.200 M 168.200 222.200 C 166.111 224.289, 167.447 229, 170.129 229 C 171.139 229, 174 226.044, 174 225 C 174 223.956, 171.139 221, 170.129 221 C 169.728 221, 168.860 221.540, 168.200 222.200 " stroke="none" fill="black" fill-rule="evenodd"/>
</svg>