<svg xmlns="http://www.w3.org/2000/svg" width="148" height="324" viewBox="0 0 148 324" version="1.1">
	<path d="M 39.571 127.571 C 38.207 128.935, 38 133.425, 38 161.577 L 38 194.012 22 226 C 13.200 243.593, 6 258.183, 6 258.423 C 6 258.662, 6.707 259.564, 7.571 260.429 C 8.936 261.793, 13.463 262, 42 262 C 70.537 262, 75.064 261.793, 76.429 260.429 C 77.293 259.564, 78 258.662, 78 258.423 C 78 258.183, 70.800 243.593, 62 226 L 46 194.012 46 161.577 C 46 133.425, 45.793 128.935, 44.429 127.571 C 43.564 126.707, 42.471 126, 42 126 C 41.529 126, 40.436 126.707, 39.571 127.571 M 116.994 190.934 C 108.846 193.413, 103.639 199.011, 102.443 206.578 C 101.953 209.682, 102.199 211.056, 103.471 212.328 C 104.391 213.248, 105.535 214, 106.015 214 C 107.484 214, 110 209.693, 110 207.177 C 110 205.807, 111.440 203.360, 113.400 201.400 C 116.251 198.549, 117.520 198, 121.265 198 C 124.190 198, 126.592 198.678, 128.230 199.966 C 131.154 202.266, 133.439 207.215, 132.765 209.789 C 132.506 210.781, 125.478 221.802, 117.147 234.280 C 108.816 246.758, 102 257.595, 102 258.361 C 102 261.608, 104.598 262.051, 122.024 261.774 C 137.193 261.533, 139.418 261.288, 140.387 259.750 C 141.190 258.475, 141.191 257.525, 140.388 256.250 C 139.446 254.754, 137.386 254.460, 126.200 254.221 L 113.114 253.943 127.057 232.807 C 134.726 221.182, 141 210.925, 141 210.014 C 141 205.863, 137.596 198.868, 133.992 195.612 C 128.730 190.858, 122.700 189.199, 116.994 190.934 M 28.743 228.500 L 16.005 254 42 254 L 67.995 254 55.257 228.500 C 48.250 214.475, 42.285 203, 42 203 C 41.715 203, 35.750 214.475, 28.743 228.500 " stroke="none" fill="black" fill-rule="evenodd"/>
</svg>