<svg xmlns="http://www.w3.org/2000/svg" width="244" height="324" viewBox="0 0 244 324" version="1.1">
	<path d="M 39.571 127.571 C 38.207 128.935, 38 133.425, 38 161.577 L 38 194.012 22 226 C 13.200 243.593, 6 258.183, 6 258.423 C 6 258.662, 6.707 259.564, 7.571 260.429 C 8.936 261.793, 13.463 262, 42 262 C 70.537 262, 75.064 261.793, 76.429 260.429 C 77.293 259.564, 78 258.662, 78 258.423 C 78 258.183, 70.800 243.593, 62 226 L 46 194.012 46 161.577 C 46 133.425, 45.793 128.935, 44.429 127.571 C 43.564 126.707, 42.471 126, 42 126 C 41.529 126, 40.436 126.707, 39.571 127.571 M 115.921 191.367 C 111.479 192.955, 108.625 194.922, 106.197 198.068 C 104.121 200.758, 102 206.322, 102 209.078 C 102 210.923, 104.501 214, 106 214 C 107.861 214, 110 210.700, 110 207.829 C 110 205.718, 111.030 203.770, 113.400 201.400 C 116.278 198.522, 117.504 198, 121.384 198 C 127.170 198, 131.810 201.729, 132.583 207 C 133.051 210.191, 131.724 212.574, 117.553 234 C 109.004 246.925, 102.007 258.007, 102.005 258.628 C 101.993 261.582, 104.943 262.045, 122.024 261.774 C 137.193 261.533, 139.418 261.288, 140.387 259.750 C 141.190 258.475, 141.191 257.525, 140.388 256.250 C 139.445 254.753, 137.383 254.460, 126.151 254.221 L 113.015 253.942 127.113 232.831 C 140.681 212.512, 141.187 211.570, 140.577 207.755 C 139.717 202.376, 137.769 198.882, 133.578 195.203 C 130.305 192.329, 124.521 189.960, 121 190.049 C 120.175 190.071, 117.890 190.663, 115.921 191.367 M 28.743 228.500 L 16.005 254 42 254 L 67.995 254 55.257 228.500 C 48.250 214.475, 42.285 203, 42 203 C 41.715 203, 35.750 214.475, 28.743 228.500 M 199.750 223.080 C 198.207 223.979, 198 225.866, 198 239.050 L 198 254 183.571 254 C 171.788 254, 168.855 254.288, 167.571 255.571 C 165.598 257.545, 165.598 258.455, 167.571 260.429 C 168.855 261.712, 171.788 262, 183.571 262 L 198 262 198 276.965 C 198 291.061, 198.120 291.994, 200.064 293.034 C 204.315 295.309, 205 293.069, 205 276.904 L 205 262.052 220.142 261.776 C 233.291 261.536, 235.430 261.270, 236.387 259.750 C 237.191 258.475, 237.191 257.525, 236.387 256.250 C 235.430 254.730, 233.291 254.464, 220.142 254.224 L 205 253.948 205 239.174 C 205 222.586, 204.297 220.432, 199.750 223.080 " stroke="none" fill="black" fill-rule="evenodd"/>
</svg>