<svg xmlns="http://www.w3.org/2000/svg" width="84" height="324" viewBox="0 0 84 324" version="1.1">
	<path d="M 23.200 63.200 C 21.512 64.888, 21.512 99.112, 23.200 100.800 C 24.888 102.488, 59.112 102.488, 60.800 100.800 C 62.488 99.112, 62.488 64.888, 60.800 63.200 C 59.112 61.512, 24.888 61.512, 23.200 63.200 M 30 82 L 30 94 42 94 L 54 94 54 82 L 54 70 42 70 L 30 70 30 82 M 7.571 127.571 C 6.707 128.436, 6 129.657, 6 130.285 C 6 130.913, 20.057 145.510, 37.238 162.723 L 68.476 194.019 41.238 221.257 L 14 248.495 14 236.819 C 14 227.538, 13.678 224.821, 12.429 223.571 C 10.455 221.598, 9.545 221.598, 7.571 223.571 C 6.264 224.878, 6 228.042, 6 242.371 C 6 254.438, 6.360 259.960, 7.200 260.800 C 8.040 261.640, 13.562 262, 25.629 262 C 39.958 262, 43.122 261.736, 44.429 260.429 C 46.243 258.614, 46.319 258.054, 45.024 256 C 44.301 254.852, 41.252 254.383, 32.026 254 L 19.973 253.500 44.986 228.508 L 70 203.515 70 231.186 C 70 255.008, 70.219 259.076, 71.571 260.429 C 73.545 262.402, 74.455 262.402, 76.429 260.429 C 77.825 259.032, 78 251.628, 78 194 C 78 136.372, 77.825 128.968, 76.429 127.571 C 74.455 125.598, 73.545 125.598, 71.571 127.571 C 70.219 128.924, 70 132.990, 70 156.799 L 70 184.455 40.711 155.227 C 24.602 139.152, 10.909 126, 10.282 126 C 9.656 126, 8.436 126.707, 7.571 127.571 " stroke="none" fill="black" fill-rule="evenodd"/>
</svg>