<svg xmlns="http://www.w3.org/2000/svg" width="244" height="324" viewBox="0 0 244 324" version="1.1">
	<path d="M 39.571 127.571 C 38.176 128.966, 38 136.152, 38 191.571 L 38 254 23.571 254 C 11.788 254, 8.855 254.288, 7.571 255.571 C 5.598 257.545, 5.598 258.455, 7.571 260.429 C 8.936 261.793, 13.463 262, 42 262 C 70.537 262, 75.064 261.793, 76.429 260.429 C 77.293 259.564, 78 258.471, 78 258 C 78 257.529, 77.293 256.436, 76.429 255.571 C 75.145 254.288, 72.212 254, 60.429 254 L 46 254 46 191.571 C 46 136.152, 45.824 128.966, 44.429 127.571 C 43.564 126.707, 42.471 126, 42 126 C 41.529 126, 40.436 126.707, 39.571 127.571 M 130.873 126.896 C 116.902 129.781, 104.766 142.523, 102.514 156.673 C 101.018 166.074, 106.844 187.084, 116.095 205.652 L 122.150 217.804 111.938 238.074 C 104.149 253.536, 101.963 258.717, 102.722 259.921 C 103.609 261.328, 110.729 261.530, 168.109 261.776 C 203.524 261.928, 233.463 261.819, 234.640 261.535 C 235.817 261.250, 237.047 260.320, 237.374 259.468 C 237.719 258.568, 233.588 249.166, 227.519 237.037 L 217.069 216.156 222.049 206.698 C 231.346 189.038, 237.438 166.726, 235.806 156.317 C 234.570 148.432, 231.309 142.207, 225.342 136.339 C 213.162 124.362, 193.939 123.182, 180.314 133.574 L 177.017 136.089 174.812 131.549 C 172.667 127.134, 170.076 125.217, 167.995 126.503 C 167.432 126.851, 166.023 129.018, 164.863 131.318 C 163.703 133.618, 162.614 135.658, 162.443 135.851 C 162.271 136.044, 160.553 134.998, 158.625 133.527 C 151.662 128.217, 139.060 125.206, 130.873 126.896 M 127.385 135.566 C 121.383 137.769, 115.503 143.272, 112.421 149.572 C 109.972 154.578, 109.774 155.809, 110.298 162.796 C 111.195 174.769, 116.933 193.118, 123.184 204 L 126.343 209.500 142.575 176.500 L 158.807 143.500 155.728 140.781 C 154.035 139.285, 151.040 137.279, 149.075 136.322 C 144.299 133.999, 132.753 133.597, 127.385 135.566 M 191.437 135.600 C 189.203 136.393, 185.828 138.343, 183.937 139.933 L 180.500 142.824 196.488 174.912 C 205.281 192.560, 212.812 207, 213.223 207 C 214.391 207, 219.465 196.370, 222.769 187 C 226.805 175.555, 229.356 162.616, 228.626 157.291 C 226.321 140.469, 207.934 129.745, 191.437 135.600 M 168.491 141.179 C 168.122 142.651, 168.228 144.585, 168.727 145.477 C 169.509 146.874, 169.788 146.760, 170.750 144.649 C 171.611 142.761, 171.557 141.776, 170.515 140.351 C 169.241 138.609, 169.124 138.657, 168.491 141.179 M 174.630 153.250 C 174.299 154.488, 174.021 156.913, 174.014 158.639 C 173.995 162.956, 171.042 166.465, 168.190 165.560 C 166.988 165.179, 165.813 163.884, 165.578 162.683 C 165.343 161.483, 164.754 158.475, 164.268 156 L 163.384 151.500 147.174 183.781 C 133.498 211.013, 131.131 216.376, 132.038 218.071 C 135.875 225.241, 151.953 240.799, 163.713 248.722 L 168.926 252.234 173.493 249.557 C 183.496 243.695, 202.932 225.101, 206.998 217.504 C 208.028 215.579, 206.261 211.511, 192.080 183.160 C 183.233 165.472, 175.823 151, 175.614 151 C 175.404 151, 174.962 152.012, 174.630 153.250 M 119.522 238.957 L 111.987 254 135.059 254 L 158.131 254 150.816 248.117 C 143.644 242.350, 134.955 233.745, 129.702 227.207 L 127.056 223.913 119.522 238.957 M 205.828 230.855 C 200.718 237.110, 191.108 246.089, 183.499 251.718 L 180.500 253.937 203.750 253.968 C 216.537 253.986, 227 253.779, 227 253.509 C 227 252.478, 212.505 224, 211.980 224 C 211.677 224, 208.908 227.085, 205.828 230.855 " stroke="none" fill="black" fill-rule="evenodd"/>
</svg>