<svg xmlns="http://www.w3.org/2000/svg" width="564" height="324" viewBox="0 0 564 324" version="1.1">
	<path d="M 227 62.637 C 208.809 65.293, 196.056 71.793, 184.287 84.406 C 173.970 95.463, 168.274 108.337, 166.503 124.598 C 165.964 129.549, 166.150 131.007, 167.491 132.348 C 169.547 134.404, 170.439 134.418, 172.429 132.429 C 173.404 131.453, 174.006 129.082, 174.015 126.179 C 174.091 102.127, 194.559 77.323, 219.103 71.537 C 227.282 69.610, 239.718 69.610, 247.897 71.537 C 272.441 77.323, 292.909 102.127, 292.985 126.179 C 292.994 129.082, 293.596 131.453, 294.571 132.429 C 296.561 134.418, 297.453 134.404, 299.509 132.348 C 302.687 129.170, 299.345 111.667, 293.167 99.130 C 286.184 84.960, 270.279 71.082, 255.284 66.077 C 245.746 62.893, 234.564 61.533, 227 62.637 M 35.045 127.092 C 19.667 130.107, 7.255 144.071, 6.841 158.824 C 6.689 164.231, 10.459 179.667, 14.976 192.133 C 21.053 208.902, 33.075 227.074, 46.717 240.107 C 55.990 248.967, 71.179 260, 74.103 260 C 75.247 260, 77.380 259.083, 78.842 257.962 C 80.304 256.841, 85.561 252.856, 90.524 249.106 C 115.739 230.051, 133.308 201.328, 139.405 169.189 C 140.580 162.992, 140.715 159.758, 139.963 155.763 C 135.596 132.560, 112.226 120.286, 90.616 129.845 C 85.222 132.232, 79.372 137.363, 76.005 142.662 L 73.360 146.824 71.503 143.377 C 69.181 139.064, 62.418 132.764, 57.318 130.162 C 55.183 129.073, 50.781 127.691, 47.535 127.091 C 40.969 125.877, 41.243 125.877, 35.045 127.092 M 232.369 126.765 C 231.416 127.384, 166 257.155, 166 258.426 C 166 258.663, 166.707 259.564, 167.571 260.429 C 168.968 261.825, 176.372 262, 234 262 C 291.628 262, 299.032 261.825, 300.429 260.429 C 301.293 259.564, 302 258.663, 302 258.426 C 302 257.155, 236.584 127.384, 235.631 126.765 C 235.009 126.361, 234.275 126.031, 234 126.031 C 233.725 126.031, 232.991 126.361, 232.369 126.765 M 387 126.637 C 368.809 129.293, 356.056 135.793, 344.287 148.406 C 333.970 159.463, 328.274 172.337, 326.503 188.598 C 325.964 193.549, 326.150 195.007, 327.491 196.348 C 329.547 198.404, 330.439 198.418, 332.429 196.429 C 333.404 195.453, 334.006 193.082, 334.015 190.179 C 334.091 166.127, 354.559 141.323, 379.103 135.537 C 387.282 133.610, 399.718 133.610, 407.897 135.537 C 432.441 141.323, 452.909 166.127, 452.985 190.179 C 452.994 193.082, 453.596 195.453, 454.571 196.429 C 456.561 198.418, 457.453 198.404, 459.509 196.348 C 462.687 193.170, 459.345 175.667, 453.167 163.130 C 446.184 148.960, 430.279 135.082, 415.284 130.077 C 405.746 126.893, 394.564 125.533, 387 126.637 M 31.054 135.728 C 24.820 137.929, 17.726 145.300, 15.557 151.828 C 14.045 156.381, 13.979 157.954, 15.032 164.270 C 20.746 198.522, 39.651 228.764, 67.159 247.655 L 73.817 252.228 79.235 248.632 C 104.319 231.983, 122.938 205.409, 130.553 175.392 C 134.737 158.897, 133.307 150.212, 125.048 141.952 C 117.477 134.382, 106.241 131.995, 95.463 135.667 C 88.983 137.875, 81.875 144.983, 79.667 151.463 C 77.368 158.212, 77.490 158.683, 81.750 159.473 C 87.519 160.542, 94.746 164.924, 99.545 170.261 C 113.927 186.258, 110.003 212.711, 91.651 223.464 C 87.595 225.840, 76.987 229.278, 74 229.184 C 65.498 228.917, 53.772 223.646, 48.180 217.579 C 35.163 203.457, 35.102 183.609, 48.033 169.580 C 52.468 164.768, 59.753 160.492, 65.250 159.473 C 69.510 158.683, 69.632 158.212, 67.333 151.463 C 65.125 144.983, 58.017 137.875, 51.537 135.667 C 45.516 133.616, 36.964 133.641, 31.054 135.728 M 204.747 196.500 L 176.002 254 234 254 L 291.998 254 263.253 196.500 C 247.443 164.875, 234.279 139, 234 139 C 233.721 139, 220.557 164.875, 204.747 196.500 M 487.571 159.571 C 486.227 160.916, 486 164.736, 486 186 C 486 207.264, 486.227 211.084, 487.571 212.429 C 488.436 213.293, 489.529 214, 490 214 C 490.471 214, 491.564 213.293, 492.429 212.429 C 493.773 211.084, 494 207.264, 494 186 C 494 164.736, 493.773 160.916, 492.429 159.571 C 491.564 158.707, 490.471 158, 490 158 C 489.529 158, 488.436 158.707, 487.571 159.571 M 519.571 159.571 C 518.227 160.916, 518 164.736, 518 186 C 518 207.264, 518.227 211.084, 519.571 212.429 C 520.436 213.293, 521.529 214, 522 214 C 522.471 214, 523.564 213.293, 524.429 212.429 C 525.773 211.084, 526 207.264, 526 186 C 526 164.736, 525.773 160.916, 524.429 159.571 C 523.564 158.707, 522.471 158, 522 158 C 521.529 158, 520.436 158.707, 519.571 159.571 M 63.054 167.728 C 57.018 169.859, 49.781 177.260, 47.667 183.463 C 42.058 199.925, 50.847 216.571, 67.250 220.550 L 70 221.217 70 193.608 C 70 172.146, 69.722 166.018, 68.750 166.079 C 68.063 166.122, 65.499 166.864, 63.054 167.728 M 78 193.500 L 78 221.135 80.250 220.475 C 93.167 216.686, 101 206.503, 101 193.500 C 101 180.497, 93.167 170.314, 80.250 166.525 L 78 165.865 78 193.500 M 359.571 191.571 C 358.707 192.436, 358 193.529, 358 194 C 358 194.471, 358.707 195.564, 359.571 196.429 C 360.936 197.793, 365.463 198, 394 198 C 422.537 198, 427.064 197.793, 428.429 196.429 C 429.293 195.564, 430 194.471, 430 194 C 430 193.529, 429.293 192.436, 428.429 191.571 C 427.064 190.207, 422.537 190, 394 190 C 365.463 190, 360.936 190.207, 359.571 191.571 M 487.571 222.571 C 486.707 223.436, 486 224.529, 486 225 C 486 226.111, 488.889 229, 490 229 C 491.111 229, 494 226.111, 494 225 C 494 223.889, 491.111 221, 490 221 C 489.529 221, 488.436 221.707, 487.571 222.571 M 519.571 222.571 C 518.707 223.436, 518 224.529, 518 225 C 518 226.111, 520.889 229, 522 229 C 523.111 229, 526 226.111, 526 225 C 526 223.889, 523.111 221, 522 221 C 521.529 221, 520.436 221.707, 519.571 222.571 " stroke="none" fill="black" fill-rule="evenodd"/>
</svg>