<svg xmlns="http://www.w3.org/2000/svg" width="436" height="324" viewBox="0 0 436 324" version="1.1">
	<path d="M 157.500 127.466 C 130.011 132.513, 108.385 154.319, 103.416 182 C 101.648 191.847, 101.677 194.535, 103.571 196.429 C 106.992 199.849, 110 196.758, 110 189.823 C 110 171.461, 123.851 149.945, 141.603 140.732 C 164.936 128.622, 193.090 132.923, 211.459 151.405 C 215.429 155.400, 219.939 161.203, 221.780 164.686 C 225.503 171.731, 229 184.277, 229 190.589 C 229 194.612, 230.851 198, 233.048 198 C 233.546 198, 234.587 196.988, 235.360 195.750 C 236.454 194, 236.582 191.869, 235.935 186.164 C 232.479 155.682, 208.849 131.440, 178.284 127.020 C 169.745 125.786, 166.241 125.861, 157.500 127.466 M 33.384 159.412 C 15.480 163.757, 3.543 181.833, 6.993 199.372 C 9.077 209.960, 14.986 218.563, 23.673 223.654 C 28.824 226.673, 41.869 230.124, 44 229.032 C 44.825 228.609, 47.300 227.941, 49.500 227.548 C 59.453 225.767, 70.142 216.481, 74.072 206.202 C 81.691 186.273, 69.979 164.264, 49.147 159.360 C 42.397 157.772, 40.111 157.779, 33.384 159.412 M 31.054 167.728 C 25.018 169.859, 17.781 177.260, 15.667 183.463 C 10.058 199.925, 18.847 216.571, 35.250 220.550 L 38 221.217 38 193.608 C 38 172.146, 37.722 166.018, 36.750 166.079 C 36.063 166.122, 33.499 166.864, 31.054 167.728 M 46 193.500 L 46 221.135 48.250 220.456 C 56.269 218.038, 63.061 212.469, 66.533 205.467 C 67.994 202.520, 68.500 199.444, 68.500 193.500 C 68.500 184.191, 66.750 179.750, 60.696 173.696 C 57.111 170.111, 53.937 168.289, 48.250 166.552 L 46 165.865 46 193.500 M 135.244 223.256 C 116.960 241.546, 102 257.206, 102 258.056 C 102 261.988, 102.206 262, 169.629 262 C 227.594 262, 235.032 261.825, 236.429 260.429 C 237.293 259.564, 238 258.334, 238 257.695 C 238 255.968, 171.714 190, 169.978 190 C 169.159 190, 153.529 204.965, 135.244 223.256 M 142.500 227 L 115.514 254 170 254 L 224.486 254 197.500 227 C 182.658 212.150, 170.283 200, 170 200 C 169.717 200, 157.342 212.150, 142.500 227 M 7.571 255.571 C 6.707 256.436, 6 257.529, 6 258 C 6 258.471, 6.707 259.564, 7.571 260.429 C 8.936 261.793, 13.463 262, 42 262 C 70.537 262, 75.064 261.793, 76.429 260.429 C 77.293 259.564, 78 258.471, 78 258 C 78 257.529, 77.293 256.436, 76.429 255.571 C 75.064 254.207, 70.537 254, 42 254 C 13.463 254, 8.936 254.207, 7.571 255.571 M 263.579 255.564 C 262.710 256.432, 262 257.529, 262 258 C 262 258.471, 262.710 259.568, 263.579 260.436 C 264.990 261.847, 272.058 261.987, 330.220 261.757 C 390.934 261.517, 395.356 261.383, 396.386 259.750 C 397.191 258.474, 397.191 257.526, 396.386 256.250 C 395.356 254.617, 390.934 254.483, 330.220 254.243 C 272.058 254.013, 264.990 254.153, 263.579 255.564 M 391.750 287.080 C 390.207 287.979, 390 289.866, 390 303.050 L 390 318 327.571 318 C 271.420 318, 264.980 318.162, 263.527 319.616 C 262.638 320.505, 262.081 321.742, 262.289 322.366 C 262.565 323.196, 280.690 323.500, 329.967 323.500 L 397.267 323.500 397.072 306.028 C 396.854 286.581, 396.257 284.455, 391.750 287.080 " stroke="none" fill="black" fill-rule="evenodd"/>
</svg>