<svg xmlns="http://www.w3.org/2000/svg" width="564" height="324" viewBox="0 0 564 324" version="1.1">
	<path d="M 327.921 63.250 C 327.284 63.938, 319.729 78.450, 311.132 95.500 L 295.500 126.500 291.045 127.233 C 281.063 128.875, 270.883 136.429, 266.151 145.705 C 265.055 147.852, 263.656 152.384, 263.041 155.777 C 262.048 161.247, 262.205 163.202, 264.428 173.070 L 266.935 184.196 264.467 189.065 C 263.110 191.743, 262 194.141, 262 194.395 C 262 196.026, 265.711 198.005, 268.821 198.033 C 272.308 198.064, 272.641 198.365, 275.186 203.783 C 276.663 206.927, 278.899 211.205, 280.155 213.289 L 282.438 217.079 272.219 237.546 C 266.599 248.802, 262 258.203, 262 258.435 C 262 258.667, 262.707 259.564, 263.571 260.429 C 264.968 261.825, 272.372 262, 330 262 C 387.628 262, 395.032 261.825, 396.429 260.429 C 397.293 259.564, 398 258.660, 398 258.419 C 398 258.179, 393.288 248.565, 387.528 237.056 L 377.056 216.131 381.521 208.316 C 383.976 204.017, 385.988 199.938, 385.993 199.250 C 385.997 198.439, 387.556 198, 390.429 198 C 394.450 198, 398.090 196.151, 397.953 194.179 C 397.927 193.805, 396.653 191.080, 395.121 188.122 L 392.336 182.743 394.236 175.122 C 395.281 170.930, 396.157 164.575, 396.183 161 C 396.300 145.164, 384.935 130.855, 369.616 127.549 L 364.500 126.445 348.868 95.473 C 333.424 64.872, 331.805 62, 330 62 C 329.493 62, 328.558 62.563, 327.921 63.250 M 316.670 100.647 C 303.817 126.376, 303.312 127.932, 307.790 127.985 C 309.726 128.008, 316.338 131.572, 319.714 134.413 L 322.695 136.921 324.995 132.011 C 328.544 124.434, 331.292 124.305, 334.812 131.549 L 336.985 136.023 341.065 133.068 C 343.309 131.443, 347.474 129.352, 350.322 128.422 C 353.170 127.491, 355.637 126.617, 355.804 126.478 C 356.242 126.114, 330.620 75, 330 75 C 329.715 75, 323.716 86.541, 316.670 100.647 M 160.500 126.944 C 144.464 129.540, 134.190 134.822, 122.461 146.500 C 115.435 153.496, 112.611 157.170, 109.778 163 C 103.648 175.615, 100.334 193.191, 103.491 196.348 C 105.547 198.404, 106.439 198.418, 108.429 196.429 C 109.404 195.453, 110.006 193.082, 110.015 190.179 C 110.091 166.127, 130.559 141.323, 155.103 135.537 C 182.508 129.078, 210.994 142.323, 222.765 167 C 227.063 176.010, 229 183.304, 229 190.478 C 229 193.126, 229.621 195.478, 230.571 196.429 C 232.561 198.418, 233.453 198.404, 235.509 196.348 C 238.679 193.179, 235.365 175.772, 229.167 163.036 C 224.026 152.470, 210.588 139.010, 200 133.819 C 187.592 127.735, 172.182 125.053, 160.500 126.944 M 479.870 127.014 C 464.636 129.407, 453.616 135.194, 441.974 146.916 C 428.475 160.507, 422.696 174.473, 422.696 193.500 C 422.696 199.767, 423.337 205.927, 424.414 210 C 426.593 218.239, 432.033 229.329, 436.432 234.500 L 439.835 238.500 430.917 247.615 C 426.013 252.629, 422 257.209, 422 257.794 C 422 259.169, 424.831 262, 426.206 262 C 426.791 262, 431.371 257.995, 436.385 253.101 L 445.500 244.202 449.858 247.579 C 455.683 252.095, 465.497 256.635, 473.205 258.381 C 485.022 261.058, 490.144 261.684, 493.823 260.900 C 495.845 260.469, 500.875 259.396, 505 258.516 C 517.502 255.849, 526.171 250.907, 536.539 240.539 C 550.551 226.527, 556.304 212.834, 556.304 193.500 C 556.304 178.450, 551.847 164.526, 543.637 153.933 L 540.202 149.500 549.101 140.385 C 553.995 135.371, 558 130.791, 558 130.206 C 558 128.831, 555.169 126, 553.794 126 C 553.209 126, 548.629 130.013, 543.615 134.917 L 534.500 143.835 530.500 140.432 C 525.369 136.066, 514.175 130.556, 506.500 128.618 C 498.592 126.621, 486.868 125.914, 479.870 127.014 M 287.054 135.728 C 284.517 136.623, 280.606 139.299, 277.948 141.957 C 271.749 148.156, 269.517 154.699, 270.323 164.310 C 270.646 168.160, 271.278 171.678, 271.729 172.129 C 272.180 172.580, 276.924 164.186, 282.271 153.475 C 287.618 142.764, 291.882 134.036, 291.747 134.079 C 291.611 134.122, 289.499 134.864, 287.054 135.728 M 287.405 159.250 C 276.006 182.112, 274.917 184.760, 275.883 187.250 C 276.944 189.983, 277.010 190, 286.471 190 L 295.992 190 307.614 166.772 L 319.237 143.544 315.523 140.333 C 312.115 137.387, 304.518 134, 301.319 134 C 300.587 134, 294.362 145.297, 287.405 159.250 M 351.437 135.600 C 349.203 136.393, 345.828 138.343, 343.937 139.934 L 340.500 142.826 352.266 166.450 L 364.032 190.075 373.266 189.787 L 382.500 189.500 383.370 185.981 C 384.175 182.726, 383.335 180.654, 372.116 158.231 C 358.758 131.534, 359.771 132.642, 351.437 135.600 M 474.645 135.584 C 454.562 140.445, 436.305 158.877, 431.537 179.103 C 428.285 192.901, 430.191 208.877, 436.524 220.897 C 438.438 224.529, 441.102 228.850, 442.445 230.500 L 444.887 233.500 465.444 213.009 L 486 192.518 486 163.259 L 486 134 483.250 134.083 C 481.738 134.129, 477.865 134.804, 474.645 135.584 M 494 159.246 L 494 184.493 511.750 166.693 L 529.500 148.893 526.500 146.448 C 521.477 142.354, 510.654 137.130, 503.897 135.537 C 492.956 132.959, 494 130.458, 494 159.246 M 369 135.443 C 369 135.761, 373.134 144.229, 378.187 154.261 L 387.374 172.500 388.129 168.500 C 390.579 155.533, 386.585 144.623, 377.169 138.558 C 373.356 136.102, 369 134.441, 369 135.443 M 328.500 141 C 328.151 142.100, 328.177 143.983, 328.558 145.184 C 329.243 147.340, 329.269 147.334, 330.621 144.754 C 331.963 142.193, 331.596 139, 329.960 139 C 329.506 139, 328.849 139.900, 328.500 141 M 335.097 153.315 C 334.494 154.863, 334 157.644, 334 159.494 C 334 168.158, 325.095 167.849, 324.930 159.179 C 324.738 149.147, 323.823 150.412, 307.080 183.861 L 290.882 216.223 293.691 220.306 C 298.332 227.052, 312.996 241.148, 321.282 246.829 L 329.055 252.158 333.476 249.567 C 340.731 245.315, 354.120 233.696, 360 226.549 C 369.878 214.543, 370.749 219.521, 352.335 182.740 C 337.027 152.163, 336.138 150.645, 335.097 153.315 M 514.241 175.259 L 494 195.518 494 224.259 C 494 257.023, 492.919 254.050, 503.897 251.463 C 524.261 246.662, 542.662 228.261, 547.463 207.897 C 550.387 195.489, 548.870 178.711, 543.918 168.719 C 541.516 163.871, 535.746 155.005, 534.991 155.002 C 534.711 155.001, 525.373 164.117, 514.241 175.259 M 33.384 159.412 C 15.480 163.757, 3.543 181.833, 6.993 199.372 C 9.077 209.960, 14.986 218.563, 23.673 223.654 C 28.824 226.673, 41.869 230.124, 44 229.032 C 44.825 228.609, 47.300 227.941, 49.500 227.548 C 66.517 224.503, 79.552 204.678, 75.965 187.295 C 73.006 172.962, 63.102 162.645, 49.147 159.360 C 42.397 157.772, 40.111 157.779, 33.384 159.412 M 31.054 167.728 C 25.018 169.859, 17.781 177.260, 15.667 183.463 C 10.058 199.925, 18.847 216.571, 35.250 220.550 L 38 221.217 38 193.608 C 38 172.146, 37.722 166.018, 36.750 166.079 C 36.063 166.122, 33.499 166.864, 31.054 167.728 M 46 193.500 L 46 221.135 48.250 220.475 C 61.167 216.686, 69 206.503, 69 193.500 C 69 180.497, 61.167 170.314, 48.250 166.525 L 46 165.865 46 193.500 M 135.267 223.267 C 116.970 241.563, 102 257.056, 102 257.695 C 102 258.334, 102.707 259.564, 103.571 260.429 C 104.968 261.825, 112.372 262, 170 262 C 227.628 262, 235.032 261.825, 236.429 260.429 C 237.293 259.564, 238 258.334, 238 257.695 C 238 255.982, 171.721 190, 170 190 C 169.193 190, 153.563 204.970, 135.267 223.267 M 281.539 200.123 C 282.319 202.581, 286.125 209.226, 286.504 208.793 C 286.644 208.632, 287.946 206.137, 289.397 203.250 L 292.034 198 286.449 198 C 281.212 198, 280.907 198.132, 281.539 200.123 M 370.606 203.209 L 373.246 208.419 375.578 203.959 C 376.860 201.507, 377.930 199.162, 377.955 198.750 C 377.980 198.338, 375.742 198, 372.983 198 L 367.966 198 370.606 203.209 M 142.500 227 L 115.514 254 170 254 L 224.486 254 197.500 227 C 182.658 212.150, 170.283 200, 170 200 C 169.717 200, 157.342 212.150, 142.500 227 M 468.068 221.431 L 450.636 238.885 453.068 240.940 C 457.879 245.007, 470.781 250.779, 477.903 252.052 C 481.813 252.751, 485.242 253.092, 485.524 252.810 C 485.806 252.528, 485.916 241.425, 485.768 228.137 L 485.500 203.977 468.068 221.431 M 366.228 230.462 C 360.589 237.220, 351.093 246.100, 343.499 251.718 L 340.500 253.937 364.256 253.968 L 388.013 254 380.393 238.750 C 376.203 230.363, 372.690 223.402, 372.587 223.283 C 372.484 223.164, 369.623 226.395, 366.228 230.462 M 279.585 238.830 L 271.987 254 295.194 254 C 307.957 254, 317.972 253.631, 317.450 253.179 C 316.928 252.728, 313.575 250.077, 310 247.288 C 303.441 242.170, 294.659 233.379, 289.814 227.080 L 287.183 223.660 279.585 238.830 M 7.571 255.571 C 6.707 256.436, 6 257.529, 6 258 C 6 258.471, 6.707 259.564, 7.571 260.429 C 8.936 261.793, 13.463 262, 42 262 C 70.537 262, 75.064 261.793, 76.429 260.429 C 77.293 259.564, 78 258.471, 78 258 C 78 257.529, 77.293 256.436, 76.429 255.571 C 75.064 254.207, 70.537 254, 42 254 C 13.463 254, 8.936 254.207, 7.571 255.571 " stroke="none" fill="black" fill-rule="evenodd"/>
</svg>