<svg xmlns="http://www.w3.org/2000/svg" width="403" height="324" viewBox="0 0 403 324" version="1.1">
	<path d="M 159.870 127.014 C 128.933 131.874, 105.619 156.506, 102.533 187.593 C 101.946 193.499, 102.106 194.963, 103.486 196.343 C 104.397 197.254, 105.535 198, 106.015 198 C 107.925 198, 110 193.308, 110 188.988 C 110 176.638, 116.422 162.611, 126.993 151.875 C 138.911 139.769, 152.528 134, 169.184 134 C 179.272 134, 187.110 135.856, 196.500 140.468 C 214.376 149.249, 227.205 168.443, 228.737 188.700 C 229.183 194.602, 229.681 196.294, 231.212 197.113 C 238.880 201.217, 236.963 178.153, 228.264 161.652 C 225.771 156.922, 221.777 151.762, 216.433 146.367 C 209.680 139.549, 206.828 137.488, 198.933 133.719 C 193.745 131.242, 187.475 128.743, 185 128.165 C 178.187 126.573, 166.177 126.023, 159.870 127.014 M 319.235 127.099 C 295.733 130.644, 275.707 146.817, 266.457 169.721 C 258.343 189.815, 261.985 215.850, 275.348 233.259 C 277.356 235.876, 279 238.361, 279 238.781 C 279 239.201, 275.175 243.349, 270.500 248 C 265.825 252.651, 262 257.237, 262 258.193 C 262 259.148, 262.957 260.442, 264.127 261.068 C 266.048 262.096, 267.152 261.314, 275.493 253.007 L 284.731 243.808 289.528 247.469 C 298.466 254.292, 308.126 258.163, 321 260.082 C 329.851 261.401, 328.628 261.408, 337.908 259.987 C 363.628 256.048, 383.695 239.526, 392.405 215.118 C 395.238 207.176, 395.480 205.480, 395.480 193.500 C 395.480 181.520, 395.238 179.824, 392.405 171.882 C 390.713 167.142, 387.168 160.014, 384.527 156.040 L 379.724 148.816 388.362 140.138 C 393.113 135.366, 397 130.698, 397 129.765 C 397 128.833, 396.071 127.573, 394.936 126.966 C 393.102 125.984, 391.850 126.860, 383.686 134.841 L 374.500 143.821 369 139.786 C 354.745 129.328, 336.052 124.562, 319.235 127.099 M 314 135.583 C 291.186 141.602, 274.132 160.571, 270.266 184.230 C 268.865 192.800, 268.868 194.580, 270.290 203.016 C 271.992 213.108, 276.583 223.795, 281.883 230 L 284.873 233.500 305.436 213.009 L 326 192.518 326 163.259 L 326 134 322.750 134.066 C 320.962 134.102, 317.025 134.785, 314 135.583 M 333 159.604 L 333 185.479 350.958 167.542 C 371.121 147.403, 370.414 149.192, 360.690 142.889 C 354.355 138.782, 345.200 135.384, 337.750 134.373 L 333 133.728 333 159.604 M 353.241 175.259 L 333 195.518 333 224.395 L 333 253.272 337.750 252.627 C 356.326 250.106, 373.694 237.542, 382.055 220.577 C 390.732 202.971, 391.038 185.363, 382.966 168.113 C 379.886 161.531, 375.515 155, 374.190 155 C 373.800 155, 364.373 164.117, 353.241 175.259 M 33.972 159.329 C 27.051 160.857, 20.402 164.705, 15.710 169.900 C -2.940 190.542, 7.790 222.073, 35.500 228.057 C 42.185 229.501, 42.581 229.487, 49.500 227.564 C 66.211 222.919, 76.111 210.246, 76.111 193.500 C 76.111 183.223, 73.166 176.006, 66.080 168.920 C 57.484 160.324, 45.578 156.767, 33.972 159.329 M 31.627 167.468 C 26.247 169.386, 21.039 173.829, 17.500 179.519 C 14.741 183.955, 14.500 185.073, 14.500 193.422 C 14.500 201.509, 14.798 203.007, 17.230 207.145 C 21.385 214.213, 27.168 218.498, 35.305 220.541 L 38 221.217 38 193.608 C 38 172.165, 37.721 166.010, 36.750 166.044 C 36.063 166.068, 33.757 166.709, 31.627 167.468 M 46 193.500 L 46 221.135 48.250 220.448 C 56.638 217.886, 63.034 212.627, 66.470 205.467 C 68.877 200.450, 69.604 191.230, 68.035 185.623 C 65.616 176.984, 57.511 169.154, 48.250 166.508 L 46 165.865 46 193.500 M 135.244 223.256 C 116.960 241.546, 102 257.280, 102 258.220 C 102 259.160, 102.870 260.395, 103.934 260.965 C 105.210 261.648, 127.802 262, 170.312 262 C 238.584 262, 237.803 262.052, 236.833 257.554 C 236.427 255.676, 170.995 190, 169.529 190 C 168.957 190, 153.529 204.965, 135.244 223.256 M 142 226.500 L 114.514 254 169.500 254 L 224.486 254 197 226.500 C 181.883 211.375, 169.508 199, 169.500 199 C 169.492 199, 157.117 211.375, 142 226.500 M 307.604 220.896 L 289.729 238.791 294.014 241.895 C 302.250 247.862, 315.760 253, 323.210 253 L 326 253 326 228 C 326 214.250, 325.883 203, 325.740 203 C 325.596 203, 317.435 211.053, 307.604 220.896 M 7.585 255.558 C 6.713 256.430, 6 257.529, 6 258 C 6 258.471, 6.713 259.570, 7.585 260.442 C 8.978 261.835, 13.159 261.995, 42.226 261.763 C 72.452 261.523, 75.377 261.350, 76.386 259.750 C 77.191 258.474, 77.191 257.526, 76.386 256.250 C 75.377 254.650, 72.452 254.477, 42.226 254.237 C 13.159 254.005, 8.978 254.165, 7.585 255.558 " stroke="none" fill="black" fill-rule="evenodd"/>
</svg>