<svg xmlns="http://www.w3.org/2000/svg" width="244" height="324" viewBox="0 0 244 324" version="1.1">
	<path d="M 7.571 127.571 C 6.207 128.936, 6 133.463, 6 162 C 6 190.537, 6.207 195.064, 7.571 196.429 C 8.844 197.701, 11.697 198, 22.575 198 L 36.006 198 21.020 227.961 C 12.777 244.439, 6.285 258.580, 6.594 259.384 C 7.265 261.133, 9.512 262.125, 11.274 261.448 C 11.975 261.180, 19.056 247.919, 27.010 231.980 C 34.964 216.041, 41.717 203, 42.016 203 C 42.315 203, 49.042 216.034, 56.965 231.964 C 69.336 256.836, 72.352 262, 74.510 262 C 74.701 262, 75.564 261.293, 76.429 260.429 C 77.825 259.032, 78 251.628, 78 194 C 78 136.372, 77.825 128.968, 76.429 127.571 C 74.455 125.598, 73.545 125.598, 71.571 127.571 C 70.212 128.931, 70 133.242, 70 159.571 L 70 190 42 190 L 14 190 14 159.571 C 14 133.242, 13.788 128.931, 12.429 127.571 C 11.564 126.707, 10.471 126, 10 126 C 9.529 126, 8.436 126.707, 7.571 127.571 M 103.627 127.515 C 102.732 128.411, 102 129.529, 102 130 C 102 132.054, 105.416 134, 109.022 134 C 121.676 134, 137.080 140.963, 147.404 151.351 C 155.638 159.634, 160.218 167.624, 163.025 178.596 C 165.658 188.894, 165.612 191, 162.750 191.001 C 158.848 191.002, 148.667 196.594, 144.301 201.134 C 134.322 211.509, 131.574 226.920, 137.417 239.734 C 143.020 252.023, 155.349 260.235, 168.419 260.381 C 185.344 260.570, 199.113 250.011, 203.486 233.490 C 208.022 216.351, 196.977 197.190, 179.687 192.202 L 173.788 190.500 174.369 184.838 C 175.093 177.793, 178.806 167.766, 183.270 160.803 C 192.850 145.860, 213.392 134, 229.694 134 C 234.803 134, 237 132.774, 237 129.922 C 237 126.353, 234.589 125.734, 225.439 126.951 C 210.046 129, 197.635 134.834, 187.014 145.015 C 180.487 151.271, 173.731 161.173, 171.278 168.079 L 169.619 172.752 165.394 164.126 C 154.992 142.891, 135.378 129.367, 110.877 126.537 C 106.402 126.020, 104.923 126.220, 103.627 127.515 M 58.607 219.250 C 64.446 230.938, 69.398 240.688, 69.612 240.917 C 69.825 241.146, 70 231.583, 70 219.667 L 70 198 58.995 198 L 47.991 198 58.607 219.250 M 159.627 199.468 C 151.862 202.236, 143.901 211.144, 142.394 218.750 L 141.750 222 169.394 222 L 197.038 222 196.392 219.250 C 194.374 210.665, 187.032 202.404, 178.684 199.326 C 174.327 197.720, 164.323 197.794, 159.627 199.468 M 142.442 232.750 C 142.805 234.262, 144.326 237.509, 145.822 239.965 C 158.216 260.308, 189.395 256.030, 195.976 233.084 L 196.860 230 169.322 230 L 141.783 230 142.442 232.750 " stroke="none" fill="black" fill-rule="evenodd"/>
</svg>