<svg xmlns="http://www.w3.org/2000/svg" width="595" height="324" viewBox="0 0 595 324" version="1.1">
	<path d="M 327.232 63.250 C 326.675 63.938, 319.366 78.225, 310.990 95 C 302.614 111.775, 295.252 125.831, 294.630 126.235 C 294.009 126.639, 292.375 126.981, 291 126.994 C 282.937 127.075, 269.964 137.341, 265.380 147.266 C 262.875 152.688, 262.528 154.541, 262.707 161.500 C 262.820 165.900, 263.759 172.650, 264.794 176.500 L 266.676 183.500 264.114 188.783 C 260.946 195.314, 261.781 197.357, 267.804 197.805 C 271.891 198.109, 271.921 198.142, 276.914 207.626 L 281.923 217.141 271.720 237.576 C 263.398 254.244, 261.720 258.333, 262.617 259.755 C 263.643 261.381, 268.155 261.517, 328.998 261.757 C 376.385 261.944, 394.651 261.705, 395.639 260.885 C 396.387 260.263, 397 258.906, 397 257.868 C 397 256.830, 392.503 246.995, 387.007 236.013 L 377.013 216.045 381.757 207.043 L 386.500 198.041 390.550 198.020 C 397.485 197.986, 398.584 195.060, 394.608 187.213 L 392.216 182.493 394.188 173.496 C 396.864 161.290, 396.348 154.180, 392.170 145.694 C 387.390 135.985, 377.727 128.578, 368.167 127.296 L 364.367 126.786 348.934 95.758 C 340.445 78.693, 332.905 64.116, 332.179 63.365 C 330.531 61.663, 328.555 61.617, 327.232 63.250 M 316.741 100.505 C 309.733 114.533, 304 126.191, 304 126.411 C 304 126.632, 306.009 127.496, 308.464 128.333 C 310.919 129.169, 315 131.280, 317.534 133.023 C 320.068 134.767, 322.279 136.037, 322.447 135.846 C 322.616 135.656, 323.703 133.618, 324.863 131.318 C 326.023 129.018, 327.432 126.851, 327.995 126.503 C 330.087 125.210, 332.671 127.143, 334.852 131.633 L 337.098 136.256 339.299 134.194 C 341.904 131.754, 351.750 127.024, 354.254 127.010 C 355.639 127.002, 353.276 121.540, 343 101 C 335.846 86.700, 329.878 75, 329.737 75 C 329.597 75, 323.748 86.477, 316.741 100.505 M 159.500 127.042 C 130.656 131.430, 107.628 154.610, 103.096 183.819 C 101.652 193.124, 101.707 194.564, 103.571 196.429 C 107.034 199.891, 110 196.758, 110 189.639 C 110 171.257, 123.731 150.008, 141.603 140.732 C 175.754 123.007, 217.534 141.490, 227.003 178.511 C 228.101 182.806, 229 188.482, 229 191.125 C 229 194.956, 229.418 196.154, 231.064 197.034 C 234.519 198.883, 236 196.648, 236 189.588 C 236 181.304, 233.819 173.213, 228.850 163.065 C 221.016 147.065, 203.789 133.061, 186.500 128.638 C 178.545 126.602, 166.910 125.915, 159.500 127.042 M 287.447 159.105 C 277.090 179.808, 274.999 184.718, 275.523 187.105 L 276.159 190 285.840 190 L 295.521 190 306.760 167.494 C 312.942 155.116, 318 144.377, 318 143.630 C 318 141.172, 305.738 134, 301.536 134 C 300.539 134, 295.641 142.729, 287.447 159.105 M 351.748 135.427 C 347.564 136.920, 341 141.581, 341 143.059 C 341 143.586, 346.177 154.363, 352.504 167.008 L 364.008 190 372.927 190 L 381.845 190 382.968 186.597 C 384.043 183.339, 383.567 182.144, 371.805 158.597 C 358.443 131.845, 359.231 132.756, 351.748 135.427 M 282.827 137.895 C 274.256 143.330, 269.931 151.268, 270.118 161.218 C 270.389 175.600, 270.640 175.444, 281.315 154.250 C 291.868 133.296, 291.980 132.090, 282.827 137.895 M 369.053 135.750 C 369.082 136.162, 373.091 144.375, 377.962 154 C 387.628 173.099, 388.371 173.598, 388.417 161.016 C 388.456 150.431, 383.188 141.687, 373.924 136.961 C 369.708 134.810, 368.974 134.628, 369.053 135.750 M 328.254 141.342 C 327.627 142.719, 327.544 144.262, 328.054 145.087 C 329.412 147.285, 332.132 143.115, 330.874 140.764 C 329.665 138.505, 329.533 138.534, 328.254 141.342 M 334.616 153.741 C 334.315 155.259, 333.781 158.171, 333.430 160.214 C 332.587 165.113, 330.733 166.655, 327.470 165.168 C 325.581 164.308, 324.997 163.273, 324.986 160.771 C 324.970 156.909, 324.032 153, 323.121 153 C 322.766 153, 315.313 167.347, 306.558 184.883 L 290.642 216.766 295.900 223.374 C 302.355 231.486, 313.265 241.573, 322.228 247.713 L 328.956 252.323 336.041 247.611 C 344.455 242.017, 357.465 229.828, 363.796 221.609 L 368.334 215.718 352.417 183.779 C 343.663 166.212, 336.199 151.647, 335.831 151.411 C 335.464 151.175, 334.917 152.224, 334.616 153.741 M 33.384 159.412 C 15.480 163.757, 3.543 181.833, 6.993 199.372 C 9.077 209.960, 14.986 218.563, 23.673 223.654 C 28.824 226.673, 41.869 230.124, 44 229.032 C 44.825 228.609, 47.300 227.941, 49.500 227.548 C 59.453 225.767, 70.142 216.481, 74.072 206.202 C 81.691 186.273, 69.979 164.264, 49.147 159.360 C 42.397 157.772, 40.111 157.779, 33.384 159.412 M 31.054 167.728 C 25.018 169.859, 17.781 177.260, 15.667 183.463 C 10.058 199.925, 18.847 216.571, 35.250 220.550 L 38 221.217 38 193.608 C 38 172.146, 37.722 166.018, 36.750 166.079 C 36.063 166.122, 33.499 166.864, 31.054 167.728 M 46 193.500 L 46 221.135 48.250 220.448 C 53.937 218.711, 57.111 216.889, 60.696 213.304 C 66.750 207.250, 68.500 202.809, 68.500 193.500 C 68.500 184.191, 66.750 179.750, 60.696 173.696 C 57.111 170.111, 53.937 168.289, 48.250 166.552 L 46 165.865 46 193.500 M 135.244 223.256 C 116.960 241.546, 102 257.280, 102 258.220 C 102 259.160, 102.870 260.395, 103.934 260.965 C 105.210 261.648, 127.818 262, 170.363 262 C 228.417 262, 235.019 261.839, 236.473 260.384 C 237.362 259.495, 237.957 258.404, 237.795 257.960 C 237.083 256.011, 171.104 190, 169.867 190 C 169.109 190, 153.529 204.965, 135.244 223.256 M 282.500 203 C 283.894 205.750, 285.386 208, 285.818 208 C 286.503 208, 291 199.733, 291 198.473 C 291 198.213, 288.517 198, 285.483 198 L 279.966 198 282.500 203 M 370.212 202.500 C 371.415 204.975, 372.676 207, 373.015 207 C 373.656 207, 378 199.692, 378 198.614 C 378 198.276, 375.756 198, 373.013 198 L 368.026 198 370.212 202.500 M 142.500 227 L 115.514 254 170 254 L 224.486 254 197.500 227 C 182.658 212.150, 170.283 200, 170 200 C 169.717 200, 157.342 212.150, 142.500 227 M 279.525 238.950 L 271.987 254 295.138 254 L 318.288 254 313.394 250.357 C 307.096 245.670, 295.863 234.843, 290.923 228.700 L 287.063 223.900 279.525 238.950 M 365.038 231.455 C 359.638 237.904, 355.288 241.941, 343 251.906 L 340.500 253.933 363.750 253.967 C 376.538 253.985, 387 253.779, 387 253.509 C 387 252.386, 372.480 224, 371.906 224 C 371.562 224, 368.471 227.355, 365.038 231.455 M 7.571 255.571 C 6.707 256.436, 6 257.529, 6 258 C 6 258.471, 6.707 259.564, 7.571 260.429 C 8.936 261.793, 13.463 262, 42 262 C 70.537 262, 75.064 261.793, 76.429 260.429 C 77.293 259.564, 78 258.471, 78 258 C 78 257.529, 77.293 256.436, 76.429 255.571 C 75.064 254.207, 70.537 254, 42 254 C 13.463 254, 8.936 254.207, 7.571 255.571 M 423.750 255.076 C 421.417 256.440, 421.526 259.676, 423.948 260.972 C 425.256 261.672, 447.132 261.930, 490.589 261.757 C 550.951 261.517, 555.356 261.383, 556.386 259.750 C 557.191 258.474, 557.191 257.526, 556.386 256.250 C 555.356 254.616, 550.963 254.485, 490.391 254.276 C 447.547 254.129, 424.905 254.400, 423.750 255.076 M 551.750 287.080 C 550.207 287.979, 550 289.866, 550 303.050 L 550 318 487.934 318 C 447.063 318, 425.208 318.354, 423.934 319.035 C 422.870 319.605, 422 320.955, 422 322.035 C 422 323.969, 423.070 324, 489.500 324 L 557 324 557 306.200 C 557 286.409, 556.435 284.351, 551.750 287.080 " stroke="none" fill="black" fill-rule="evenodd"/>
</svg>