<svg xmlns="http://www.w3.org/2000/svg" width="308" height="324" viewBox="0 0 308 324" version="1.1">
	<path d="M 71.550 62.918 C 67.869 68.875, 54.190 98.331, 54.604 99.410 C 55.267 101.138, 57.522 102.121, 59.278 101.447 C 59.981 101.177, 63.522 95.005, 67.147 87.731 L 73.738 74.505 80.311 87.624 C 83.927 94.839, 87.586 101.011, 88.442 101.340 C 90.461 102.114, 92.697 101.232, 93.407 99.381 C 93.997 97.844, 77.582 64.037, 75.628 62.765 C 74.071 61.751, 72.229 61.820, 71.550 62.918 M 39.571 223.571 C 38.707 224.436, 38 225.636, 38 226.239 C 38 226.841, 43.941 233.334, 51.202 240.667 L 64.405 254 36.774 254 C 12.988 254, 8.924 254.219, 7.571 255.571 C 5.596 257.546, 5.598 258.455, 7.579 260.436 C 8.990 261.847, 16.058 261.987, 74.220 261.757 C 134.934 261.517, 139.356 261.383, 140.386 259.750 C 141.191 258.474, 141.191 257.526, 140.386 256.250 C 139.386 254.663, 136.698 254.475, 111.457 254.234 L 83.631 253.968 96.315 241.148 C 103.905 233.478, 109 227.539, 109 226.364 C 109 224.273, 107.241 222, 105.623 222 C 105.085 222, 97.750 228.844, 89.323 237.208 L 74 252.416 58.677 237.208 C 50.250 228.844, 42.857 222, 42.249 222 C 41.640 222, 40.436 222.707, 39.571 223.571 M 167.750 255.076 C 165.417 256.440, 165.526 259.676, 167.948 260.972 C 169.256 261.672, 191.132 261.930, 234.589 261.757 C 294.951 261.517, 299.356 261.383, 300.386 259.750 C 301.191 258.474, 301.191 257.526, 300.386 256.250 C 299.356 254.616, 294.963 254.485, 234.391 254.276 C 191.547 254.129, 168.905 254.400, 167.750 255.076 M 231.040 287.452 C 228.392 290.642, 232.299 295.657, 235.416 293.070 C 237.297 291.508, 237.470 288.870, 235.800 287.200 C 234.197 285.597, 232.505 285.686, 231.040 287.452 " stroke="none" fill="black" fill-rule="evenodd"/>
</svg>