<svg xmlns="http://www.w3.org/2000/svg" width="244" height="324" viewBox="0 0 244 324" version="1.1">
	<path d="M 7.571 127.571 C 6.207 128.936, 6 133.463, 6 162 C 6 190.537, 6.207 195.064, 7.571 196.429 C 8.844 197.701, 11.697 198, 22.575 198 L 36.006 198 21.020 227.961 C 12.777 244.439, 6.285 258.580, 6.594 259.384 C 7.265 261.133, 9.512 262.125, 11.274 261.448 C 11.975 261.180, 19.056 247.919, 27.010 231.980 C 34.964 216.041, 41.714 203, 42.009 203 C 42.304 203, 49.101 216.162, 57.113 232.250 C 65.625 249.342, 72.319 261.625, 73.219 261.800 C 74.065 261.965, 75.487 261.370, 76.379 260.479 C 77.840 259.017, 78 252.475, 78 194 C 78 136.372, 77.825 128.968, 76.429 127.571 C 74.455 125.598, 73.545 125.598, 71.571 127.571 C 70.212 128.931, 70 133.242, 70 159.571 L 70 190 42 190 L 14 190 14 159.571 C 14 133.242, 13.788 128.931, 12.429 127.571 C 11.564 126.707, 10.471 126, 10 126 C 9.529 126, 8.436 126.707, 7.571 127.571 M 162.355 190.986 C 140.853 195.520, 128.274 219.905, 137.329 239.500 C 138.854 242.800, 141.972 247.412, 144.259 249.750 L 148.416 254 126.780 254 C 108.443 254, 104.903 254.240, 103.571 255.571 C 101.596 257.546, 101.598 258.455, 103.579 260.436 C 104.990 261.847, 112.058 261.987, 170.220 261.757 C 230.934 261.517, 235.356 261.383, 236.386 259.750 C 237.190 258.475, 237.191 257.525, 236.387 256.250 C 235.408 254.695, 232.809 254.444, 213.060 254 L 190.835 253.500 193.436 251.058 C 197.787 246.974, 201.843 239.774, 203.552 233.103 C 206.482 221.667, 202.820 209.735, 193.518 200.404 C 185.739 192.600, 172.981 188.745, 162.355 190.986 M 58.607 219.250 C 64.446 230.938, 69.398 240.688, 69.612 240.917 C 69.825 241.146, 70 231.583, 70 219.667 L 70 198 58.995 198 L 47.991 198 58.607 219.250 M 159.385 199.617 C 153.552 201.686, 147.605 207.144, 144.588 213.199 C 139.895 222.618, 138.144 222, 169.519 222 L 197.038 222 196.379 219.250 C 194.432 211.130, 189.425 204.868, 181.854 201.085 C 174.817 197.568, 166.664 197.036, 159.385 199.617 M 142 231.304 C 142 232.021, 143.165 234.945, 144.588 237.801 C 155.736 260.172, 189.085 257.111, 195.976 233.084 L 196.860 230 169.430 230 C 147.551 230, 142 230.264, 142 231.304 " stroke="none" fill="black" fill-rule="evenodd"/>
</svg>