<svg xmlns="http://www.w3.org/2000/svg" width="403" height="324" viewBox="0 0 403 324" version="1.1">
	<path d="M 7.571 127.571 C 6.207 128.936, 6 133.463, 6 162 C 6 190.537, 6.207 195.064, 7.571 196.429 C 8.844 197.701, 11.697 198, 22.575 198 L 36.006 198 21.020 227.961 C 12.777 244.439, 6.285 258.580, 6.594 259.384 C 7.265 261.133, 9.512 262.125, 11.274 261.448 C 11.975 261.180, 19.056 247.919, 27.010 231.980 C 34.964 216.041, 41.714 203, 42.009 203 C 42.304 203, 49.101 216.162, 57.113 232.250 C 65.625 249.342, 72.319 261.625, 73.219 261.800 C 74.065 261.965, 75.487 261.370, 76.379 260.479 C 77.840 259.017, 78 252.475, 78 194 C 78 136.372, 77.825 128.968, 76.429 127.571 C 74.455 125.598, 73.545 125.598, 71.571 127.571 C 70.212 128.931, 70 133.242, 70 159.571 L 70 190 42 190 L 14 190 14 159.571 C 14 133.242, 13.788 128.931, 12.429 127.571 C 11.564 126.707, 10.471 126, 10 126 C 9.529 126, 8.436 126.707, 7.571 127.571 M 262.612 128.250 C 261.823 129.488, 246.852 159.187, 229.343 194.249 C 203.084 246.834, 197.702 258.304, 198.613 259.749 C 199.630 261.361, 202.404 261.500, 233.500 261.500 C 264.586 261.500, 267.370 261.360, 268.386 259.750 C 269.191 258.474, 269.191 257.526, 268.387 256.250 C 267.389 254.667, 264.466 254.452, 237.764 254 L 208.245 253.500 236.995 196.009 L 265.745 138.517 296.622 200.009 L 327.500 261.500 361.391 261.500 C 392.581 261.500, 395.370 261.361, 396.386 259.750 C 397.191 258.474, 397.191 257.526, 396.386 256.250 C 395.379 254.652, 392.503 254.477, 363.311 254.236 L 331.339 253.973 300.520 191.736 C 283.569 157.506, 269.023 128.713, 268.195 127.750 C 266.161 125.385, 264.334 125.549, 262.612 128.250 M 130.355 190.986 C 119.790 193.214, 110.114 201.146, 105.329 211.500 C 101.350 220.111, 101.383 230.888, 105.417 239.734 C 111.020 252.023, 123.349 260.235, 136.419 260.381 C 153.516 260.572, 167.246 249.912, 171.552 233.103 C 176.669 213.129, 161.170 192.409, 139.729 190.562 C 136.853 190.314, 132.635 190.505, 130.355 190.986 M 58.607 219.250 C 64.446 230.938, 69.398 240.688, 69.612 240.917 C 69.825 241.146, 70 231.583, 70 219.667 L 70 198 58.995 198 L 47.991 198 58.607 219.250 M 127.627 199.468 C 119.862 202.236, 111.901 211.144, 110.394 218.750 L 109.750 222 137.394 222 L 165.038 222 164.379 219.250 C 162.432 211.130, 157.425 204.868, 149.854 201.085 C 142.871 197.595, 134.574 196.992, 127.627 199.468 M 110 231.304 C 110 232.021, 111.165 234.945, 112.588 237.801 C 123.736 260.172, 157.085 257.111, 163.976 233.084 L 164.860 230 137.430 230 C 115.551 230, 110 230.264, 110 231.304 " stroke="none" fill="black" fill-rule="evenodd"/>
</svg>