<svg xmlns="http://www.w3.org/2000/svg" width="340" height="324" viewBox="0 0 340 324" version="1.1">
	<path d="M 7.571 127.571 C 6.207 128.936, 6 133.463, 6 162 C 6 190.537, 6.207 195.064, 7.571 196.429 C 8.844 197.701, 11.697 198, 22.575 198 L 36.006 198 21.020 227.961 C 12.777 244.439, 6.285 258.580, 6.594 259.384 C 7.265 261.133, 9.512 262.125, 11.274 261.448 C 11.975 261.180, 19.056 247.919, 27.010 231.980 C 34.964 216.041, 41.717 203, 42.016 203 C 42.315 203, 49.042 216.034, 56.965 231.964 C 69.336 256.836, 72.352 262, 74.510 262 C 74.701 262, 75.564 261.293, 76.429 260.429 C 77.825 259.032, 78 251.628, 78 194 C 78 136.372, 77.825 128.968, 76.429 127.571 C 74.455 125.598, 73.545 125.598, 71.571 127.571 C 70.212 128.931, 70 133.242, 70 159.571 L 70 190 42 190 L 14 190 14 159.571 C 14 133.242, 13.788 128.931, 12.429 127.571 C 11.564 126.707, 10.471 126, 10 126 C 9.529 126, 8.436 126.707, 7.571 127.571 M 103.571 127.571 C 102.707 128.436, 102 129.657, 102 130.285 C 102 130.913, 116.057 145.510, 133.238 162.723 L 164.476 194.019 137.238 221.257 L 110 248.495 110 220.819 C 110 196.992, 109.781 192.924, 108.429 191.571 C 107.564 190.707, 106.471 190, 106 190 C 105.529 190, 104.436 190.707, 103.571 191.571 C 102.206 192.937, 102 197.512, 102 226.536 C 102 258.528, 102.081 259.973, 103.934 260.965 C 104.998 261.534, 106.219 262, 106.648 262 C 107.076 262, 121.509 247.944, 138.721 230.764 L 170.015 199.527 201.264 230.764 C 218.450 247.944, 233.039 262, 233.684 262 C 234.329 262, 235.564 261.293, 236.429 260.429 C 238.780 258.077, 238.793 195.578, 236.443 192.223 C 234.713 189.753, 234.178 189.603, 232 190.978 C 230.744 191.771, 230.419 196.550, 230 220.356 L 229.500 248.787 202.661 221.397 L 175.821 194.007 206.161 162.951 C 222.847 145.871, 236.650 131.223, 236.833 130.400 C 237.214 128.684, 235.281 126, 233.664 126 C 233.064 126, 218.494 140.053, 201.287 157.229 L 170 188.458 138.713 157.229 C 121.506 140.053, 106.913 126, 106.285 126 C 105.657 126, 104.436 126.707, 103.571 127.571 M 327.750 127.080 C 326.114 128.033, 326 132.045, 326 188.793 L 326 249.487 296.136 219.636 C 268.663 192.175, 266.101 189.876, 264.136 190.927 C 262.961 191.556, 262 192.845, 262 193.791 C 262 194.737, 277.015 210.521, 295.366 228.866 C 323.685 257.175, 329.054 262.118, 330.866 261.543 C 332.040 261.170, 333.009 260.333, 333.021 259.683 C 333.033 259.032, 333.023 229.285, 333 193.577 C 332.955 123.585, 332.990 124.028, 327.750 127.080 M 58.607 219.250 C 64.446 230.938, 69.398 240.688, 69.612 240.917 C 69.825 241.146, 70 231.583, 70 219.667 L 70 198 58.995 198 L 47.991 198 58.607 219.250 " stroke="none" fill="black" fill-rule="evenodd"/>
</svg>