<svg xmlns="http://www.w3.org/2000/svg" width="468" height="324" viewBox="0 0 468 324" version="1.1">
	<path d="M 7.571 127.571 C 6.207 128.936, 6 133.463, 6 162 C 6 190.537, 6.207 195.064, 7.571 196.429 C 8.844 197.701, 11.697 198, 22.575 198 L 36.006 198 21.020 227.961 C 12.777 244.439, 6.285 258.580, 6.594 259.384 C 7.265 261.133, 9.512 262.125, 11.274 261.448 C 11.975 261.180, 19.056 247.919, 27.010 231.980 C 34.964 216.041, 41.710 203, 42 203 C 42.291 203, 48.822 215.661, 56.514 231.136 C 64.206 246.611, 71.095 259.886, 71.821 260.636 C 73.530 262.400, 74.501 262.356, 76.429 260.429 C 77.825 259.032, 78 251.628, 78 194 C 78 136.372, 77.825 128.968, 76.429 127.571 C 74.455 125.598, 73.545 125.598, 71.571 127.571 C 70.212 128.931, 70 133.242, 70 159.571 L 70 190 42 190 L 14 190 14 159.571 C 14 133.242, 13.788 128.931, 12.429 127.571 C 11.564 126.707, 10.471 126, 10 126 C 9.529 126, 8.436 126.707, 7.571 127.571 M 328.369 126.765 C 327.416 127.384, 262 257.155, 262 258.426 C 262 258.663, 262.707 259.564, 263.571 260.429 C 264.936 261.793, 269.463 262, 298 262 C 326.537 262, 331.064 261.793, 332.429 260.429 C 333.293 259.564, 334 258.471, 334 258 C 334 257.529, 333.293 256.436, 332.429 255.571 C 331.071 254.214, 326.849 254, 301.430 254 L 272.002 254 300.747 196.500 C 316.557 164.875, 329.722 139, 330.003 139 C 330.284 139, 344.010 166.059, 360.507 199.131 C 377.003 232.204, 391.095 259.879, 391.821 260.631 C 392.887 261.735, 399.506 262, 426 262 C 454.537 262, 459.064 261.793, 460.429 260.429 C 462.402 258.455, 462.402 257.545, 460.429 255.571 C 459.067 254.210, 454.667 254, 427.430 254 L 396.003 254 364.383 190.750 C 335.939 133.854, 331.783 126.031, 330 126.031 C 329.725 126.031, 328.991 126.361, 328.369 126.765 M 158.500 191.047 C 144.873 193.153, 131.792 198.483, 120.372 206.581 C 113.272 211.616, 102 223.513, 102 225.971 C 102 227.990, 115.578 241.329, 122.256 245.870 C 129.350 250.694, 140.495 255.700, 149.500 258.106 C 160.665 261.089, 178.317 261.092, 189.500 258.112 C 198.629 255.679, 211.322 249.808, 218.158 244.856 C 223.990 240.631, 238 227.293, 238 225.966 C 238 224.196, 224.660 210.878, 218.411 206.409 C 201.436 194.269, 177.448 188.118, 158.500 191.047 M 58.607 219.250 C 64.446 230.938, 69.398 240.688, 69.612 240.917 C 69.825 241.146, 70 231.583, 70 219.667 L 70 198 58.995 198 L 47.991 198 58.607 219.250 M 151 200.047 C 140.635 202.723, 128.809 208.788, 120.500 215.687 L 113.500 221.500 141.179 221.766 C 156.402 221.912, 181.602 221.912, 197.179 221.766 L 225.500 221.500 218.500 215.687 C 210.039 208.662, 198.272 202.687, 187.590 199.994 C 177.083 197.345, 161.375 197.368, 151 200.047 M 119 234.108 C 125.652 240.055, 137.427 246.703, 146.500 249.635 C 156.941 253.009, 174.085 253.921, 184.678 251.666 C 197.921 248.847, 209.916 242.925, 219.512 234.471 L 224.500 230.077 169.500 230.081 L 114.500 230.085 119 234.108 " stroke="none" fill="black" fill-rule="evenodd"/>
</svg>