<svg xmlns="http://www.w3.org/2000/svg" width="468" height="324" viewBox="0 0 468 324" version="1.1">
	<path d="M 7.571 127.571 C 6.207 128.936, 6 133.463, 6 162 C 6 190.537, 6.207 195.064, 7.571 196.429 C 8.844 197.701, 11.697 198, 22.575 198 L 36.006 198 21.020 227.961 C 12.777 244.439, 6.285 258.580, 6.594 259.384 C 7.265 261.133, 9.512 262.125, 11.274 261.448 C 11.975 261.180, 19.056 247.919, 27.010 231.980 C 34.964 216.041, 41.710 203, 42 203 C 42.291 203, 48.822 215.661, 56.514 231.136 C 64.206 246.611, 71.095 259.886, 71.821 260.636 C 73.530 262.400, 74.501 262.356, 76.429 260.429 C 77.825 259.032, 78 251.628, 78 194 C 78 136.372, 77.825 128.968, 76.429 127.571 C 74.455 125.598, 73.545 125.598, 71.571 127.571 C 70.212 128.931, 70 133.242, 70 159.571 L 70 190 42 190 L 14 190 14 159.571 C 14 133.242, 13.788 128.931, 12.429 127.571 C 11.564 126.707, 10.471 126, 10 126 C 9.529 126, 8.436 126.707, 7.571 127.571 M 103.571 127.571 C 102.707 128.436, 102 129.337, 102 129.574 C 102 130.835, 167.414 260.617, 168.369 261.249 C 168.991 261.662, 184.350 261.870, 202.500 261.713 C 238.208 261.404, 242.397 260.888, 251.231 255.710 C 263.738 248.381, 270.794 233.101, 268 219.396 C 266.442 211.754, 262.694 204.895, 257.420 200.033 C 236.723 180.955, 204.409 191.779, 198.987 219.604 C 196.920 230.211, 200.214 240.937, 208.198 249.599 L 212.255 254 192.129 254 L 172.003 254 140.383 190.750 C 122.992 155.962, 108.254 127.169, 107.631 126.765 C 105.978 125.692, 105.320 125.822, 103.571 127.571 M 360 158.977 C 358.979 159.621, 358.340 162.248, 358 167.204 L 357.500 174.484 353 175.159 C 343.537 176.578, 333.706 181.580, 327.217 188.276 C 323.704 191.901, 323.675 194.445, 327.132 195.542 C 328.512 195.980, 330.272 195.084, 333.167 192.468 C 337.973 188.127, 347.743 183.353, 353.750 182.411 L 358 181.744 358 204.301 C 358 223.473, 358.236 227.093, 359.571 228.429 C 360.936 229.793, 365.463 230, 394 230 C 422.537 230, 427.064 229.793, 428.429 228.429 C 429.617 227.240, 430 224.730, 430 218.129 L 430 209.400 435.799 208.202 C 446.780 205.934, 460 197.351, 460 192.489 C 460 188.535, 456.510 188.345, 452.267 192.070 C 448.288 195.564, 438.462 200.435, 433.250 201.497 L 430 202.159 430 181.651 C 430 164.341, 429.755 160.898, 428.429 159.571 C 427.063 158.206, 422.567 158.002, 394.179 158.015 C 375.379 158.024, 360.863 158.433, 360 158.977 M 366 170.500 C 366 174.553, 366.233 175, 368.343 175 C 371.996 175, 381.857 178.700, 386.999 181.999 C 389.562 183.644, 393.856 187.310, 396.541 190.146 C 401.827 195.729, 410.616 200.471, 417.750 201.589 L 422 202.256 422 184.128 L 422 166 394 166 L 366 166 366 170.500 M 366 201.921 L 366 222 394.048 222 L 422.095 222 421.798 215.834 L 421.500 209.668 415.059 208.358 C 405.536 206.421, 398.380 202.480, 391.331 195.290 C 385.111 188.947, 376.555 183.992, 369.250 182.503 L 366 181.841 366 201.921 M 279.250 190.662 C 277.097 191.531, 277.875 194.819, 281.293 199.297 C 287.709 207.703, 289.492 213.289, 289.496 225 C 289.500 234.674, 289.256 236.015, 286.397 242.047 C 284.691 245.648, 281.844 250.247, 280.070 252.267 C 277.769 254.888, 277.030 256.520, 277.490 257.970 C 278.503 261.161, 282.353 260.501, 285.831 256.540 C 295.364 245.682, 299.500 230.068, 296.568 216.006 C 294.722 207.149, 291.403 199.999, 286.456 194.220 C 282.955 190.129, 281.883 189.600, 279.250 190.662 M 58.607 219.250 C 64.446 230.938, 69.398 240.688, 69.612 240.917 C 69.825 241.146, 70 231.583, 70 219.667 L 70 198 58.995 198 L 47.991 198 58.607 219.250 M 223.054 199.728 C 217.018 201.859, 209.781 209.260, 207.667 215.463 C 203.995 226.241, 206.382 237.477, 213.952 245.048 C 224.673 255.769, 242.327 255.769, 253.048 245.048 C 263.769 234.327, 263.769 216.673, 253.048 205.952 C 245.519 198.424, 233.696 195.970, 223.054 199.728 " stroke="none" fill="black" fill-rule="evenodd"/>
</svg>