<svg xmlns="http://www.w3.org/2000/svg" width="276" height="324" viewBox="0 0 276 324" version="1.1">
	<path d="M 135.571 127.571 C 134.176 128.966, 134 136.152, 134 191.571 L 134 254 119.571 254 C 107.788 254, 104.855 254.288, 103.571 255.571 C 101.598 257.545, 101.598 258.455, 103.571 260.429 C 104.936 261.793, 109.463 262, 138 262 C 166.537 262, 171.064 261.793, 172.429 260.429 C 173.293 259.564, 174 258.471, 174 258 C 174 257.529, 173.293 256.436, 172.429 255.571 C 171.145 254.288, 168.212 254, 156.429 254 L 142 254 142 191.571 C 142 136.152, 141.824 128.966, 140.429 127.571 C 139.564 126.707, 138.471 126, 138 126 C 137.529 126, 136.436 126.707, 135.571 127.571 M 199.571 127.571 C 198.207 128.936, 198 133.463, 198 162 C 198 190.537, 198.207 195.064, 199.571 196.429 C 200.844 197.701, 203.697 198, 214.575 198 L 228.006 198 213.020 227.961 C 204.777 244.439, 198.285 258.580, 198.594 259.384 C 199.265 261.133, 201.512 262.125, 203.274 261.448 C 203.975 261.180, 211.056 247.919, 219.010 231.980 C 226.964 216.041, 233.717 203, 234.016 203 C 234.315 203, 241.042 216.034, 248.965 231.964 C 261.336 256.836, 264.352 262, 266.510 262 C 266.701 262, 267.564 261.293, 268.429 260.429 C 269.825 259.032, 270 251.628, 270 194 C 270 136.372, 269.825 128.968, 268.429 127.571 C 266.455 125.598, 265.545 125.598, 263.571 127.571 C 262.212 128.931, 262 133.242, 262 159.571 L 262 190 234 190 L 206 190 206 159.571 C 206 133.242, 205.788 128.931, 204.429 127.571 C 203.564 126.707, 202.471 126, 202 126 C 201.529 126, 200.436 126.707, 199.571 127.571 M 7.571 191.571 C 6.707 192.436, 6 193.640, 6 194.249 C 6 194.857, 12.844 202.250, 21.208 210.677 L 36.416 226 21.208 241.323 C 12.844 249.750, 6 257.143, 6 257.751 C 6 259.181, 8.819 262, 10.249 262 C 10.857 262, 18.250 255.156, 26.677 246.792 L 42 231.584 57.323 246.792 C 65.750 255.156, 73.143 262, 73.751 262 C 75.181 262, 78 259.181, 78 257.751 C 78 257.143, 71.156 249.750, 62.792 241.323 L 47.584 226 62.792 210.677 C 71.156 202.250, 78 194.857, 78 194.249 C 78 192.819, 75.181 190, 73.751 190 C 73.143 190, 65.750 196.844, 57.323 205.208 L 42 220.416 26.677 205.208 C 18.250 196.844, 10.857 190, 10.249 190 C 9.640 190, 8.436 190.707, 7.571 191.571 M 250.607 219.250 C 256.446 230.938, 261.398 240.688, 261.612 240.917 C 261.825 241.146, 262 231.583, 262 219.667 L 262 198 250.995 198 L 239.991 198 250.607 219.250 " stroke="none" fill="black" fill-rule="evenodd"/>
</svg>