<svg xmlns="http://www.w3.org/2000/svg" width="372" height="324" viewBox="0 0 372 324" version="1.1">
	<path d="M 193.608 132.122 C 181.806 142.937, 173.219 157.313, 168.894 173.500 C 167.274 179.564, 166.757 184.404, 166.757 193.500 C 166.757 202.596, 167.274 207.436, 168.894 213.500 C 173.226 229.712, 181.805 244.062, 193.656 254.922 C 200.569 261.256, 203.264 262.147, 205.367 258.791 C 206.262 257.362, 205.119 255.807, 198.383 249.291 C 186.089 237.399, 179.996 227.126, 176.023 211.590 C 169.291 185.268, 179.060 153.717, 199.198 136.736 C 205.465 131.452, 206.498 129.641, 204.427 127.569 C 201.948 125.091, 200.715 125.610, 193.608 132.122 M 311.213 143.315 C 301.746 152.838, 294 161.131, 294 161.743 C 294 163.175, 296.813 166, 298.239 166 C 298.841 166, 305.334 160.059, 312.667 152.798 L 326 139.595 326 199.226 C 326 252.103, 326.178 259.035, 327.571 260.429 C 328.436 261.293, 329.529 262, 330 262 C 330.471 262, 331.564 261.293, 332.429 260.429 C 333.822 259.035, 334 252.103, 334 199.226 L 334 139.595 347.333 152.798 C 354.666 160.059, 361.159 166, 361.761 166 C 363.187 166, 366 163.175, 366 161.743 C 366 159.994, 331.761 126, 330 126 C 329.134 126, 320.680 133.792, 311.213 143.315 M 231.200 128.200 C 230.540 128.860, 230 129.784, 230 130.252 C 230 130.721, 233.713 134.816, 238.250 139.353 C 253.729 154.828, 260.965 172.078, 260.965 193.500 C 260.965 214.922, 253.729 232.172, 238.250 247.647 C 229.840 256.055, 228.871 257.818, 231.472 259.977 C 233.490 261.651, 238.021 258.765, 245.121 251.280 C 252.040 243.988, 256.186 237.927, 260.536 228.744 C 266.148 216.898, 268.243 207.318, 268.243 193.500 C 268.243 184.404, 267.726 179.564, 266.106 173.500 C 261.868 157.641, 253.304 143.126, 242.021 132.680 C 235.863 126.979, 233.429 125.971, 231.200 128.200 M 65.384 159.412 C 58.802 161.009, 52.250 164.874, 47.831 169.766 C 44.577 173.367, 43.753 173.723, 36.211 174.790 C 31.539 175.451, 25.334 177.189, 21.593 178.885 C 13.739 182.446, 4.771 190.405, 5.204 193.430 C 5.738 197.166, 9.662 196.567, 14.627 191.990 C 19.975 187.060, 28.433 183.091, 35.332 182.274 C 40.181 181.700, 40.282 181.742, 39.716 184.093 C 36.460 197.615, 40.003 210.139, 49.580 218.967 C 64.380 232.610, 86.172 231.613, 99.598 216.679 C 102.019 213.987, 104 211.410, 104 210.953 C 104 210.496, 106.138 209.835, 108.750 209.483 C 120.410 207.912, 129.306 204.182, 136.540 197.831 C 140.501 194.353, 141.161 190.503, 137.970 189.490 C 136.520 189.030, 134.888 189.769, 132.267 192.070 C 127.712 196.070, 117.937 200.698, 112.114 201.611 L 107.728 202.299 108.429 197.623 C 109.247 192.171, 107.630 183.196, 104.841 177.705 C 100.264 168.695, 91.293 161.748, 81.147 159.360 C 74.397 157.772, 72.111 157.779, 65.384 159.412 M 209.384 159.412 C 191.475 163.758, 179.559 181.807, 182.987 199.396 C 185.921 214.454, 196.511 225.033, 211.628 228.007 C 234.713 232.548, 256.720 210.337, 251.965 187.295 C 249.006 172.962, 239.102 162.645, 225.147 159.360 C 218.397 157.772, 216.111 157.779, 209.384 159.412 M 63.364 167.624 C 61.090 168.431, 57.490 170.626, 55.364 172.504 C 52.028 175.451, 51.789 175.922, 53.616 175.958 C 57.390 176.033, 69.494 182.826, 74.308 187.572 C 76.889 190.116, 79 192.541, 79 192.960 C 79 194.135, 89.974 199.677, 94.893 200.985 C 100.324 202.430, 100.963 201.689, 100.985 193.928 C 101.029 177.691, 89.163 165.851, 73.072 166.079 C 70.007 166.122, 65.639 166.818, 63.364 167.624 M 207.054 167.728 C 201.018 169.859, 193.781 177.260, 191.667 183.463 C 187.995 194.241, 190.382 205.477, 197.952 213.048 C 208.673 223.769, 226.327 223.769, 237.048 213.048 C 247.769 202.327, 247.769 184.673, 237.048 173.952 C 229.519 166.424, 217.696 163.970, 207.054 167.728 M 47.109 185.117 C 43.975 194.108, 46.883 205.978, 53.952 213.048 C 61.430 220.525, 72.763 223.004, 83.205 219.446 C 88.082 217.784, 96.310 211.431, 95.753 209.758 C 95.568 209.203, 92.816 207.944, 89.638 206.961 C 82.121 204.635, 76.876 201.131, 69.500 193.509 C 65.096 188.957, 62.037 186.769, 58 185.281 C 47.979 181.589, 48.337 181.595, 47.109 185.117 M 39.571 255.571 C 38.707 256.436, 38 257.529, 38 258 C 38 258.471, 38.707 259.564, 39.571 260.429 C 40.936 261.793, 45.463 262, 74 262 C 102.537 262, 107.064 261.793, 108.429 260.429 C 109.293 259.564, 110 258.471, 110 258 C 110 257.529, 109.293 256.436, 108.429 255.571 C 107.064 254.207, 102.537 254, 74 254 C 45.463 254, 40.936 254.207, 39.571 255.571 " stroke="none" fill="black" fill-rule="evenodd"/>
</svg>