<svg xmlns="http://www.w3.org/2000/svg" width="244" height="324" viewBox="0 0 244 324" version="1.1">
	<path d="M 72.354 62.765 C 71.724 63.169, 64.074 77.675, 55.354 95 L 39.500 126.500 35.045 127.233 C 20.043 129.701, 7.255 144.025, 6.842 158.824 C 6.770 161.396, 7.824 167.832, 9.185 173.128 L 11.658 182.755 8.876 188.128 C 7.346 191.082, 6.073 193.805, 6.047 194.179 C 5.919 196.028, 9.535 198, 13.055 198 C 16.768 198, 17.101 198.266, 19.620 203.236 C 21.079 206.116, 23.340 210.163, 24.645 212.229 L 27.016 215.986 16.508 236.984 C 10.729 248.533, 6 258.179, 6 258.419 C 6 258.660, 6.707 259.564, 7.571 260.429 C 8.968 261.825, 16.372 262, 74 262 C 131.628 262, 139.032 261.825, 140.429 260.429 C 141.293 259.564, 142 258.660, 142 258.419 C 142 258.179, 137.310 248.610, 131.578 237.156 L 121.156 216.329 125.828 207.171 L 130.500 198.013 134.679 198.007 C 138.254 198.001, 142 196.155, 142 194.400 C 142 194.149, 140.634 191.238, 138.966 187.932 C 137.297 184.626, 136.175 181.526, 136.473 181.044 C 136.771 180.561, 137.843 176.129, 138.855 171.195 C 141.744 157.112, 139.641 147.782, 131.411 138.167 C 126.980 132.991, 121.127 129.486, 113.976 127.729 L 108.500 126.383 92.868 95.442 C 84.271 78.424, 76.716 63.938, 76.079 63.250 C 74.758 61.824, 73.980 61.723, 72.354 62.765 M 60.741 100.505 C 53.733 114.533, 48 126.197, 48 126.425 C 48 126.653, 50.273 127.594, 53.051 128.517 C 55.829 129.440, 60.063 131.692, 62.460 133.522 L 66.819 136.849 68.888 132.040 C 72.149 124.459, 75.291 124.303, 78.812 131.549 L 80.985 136.023 85.065 133.068 C 87.309 131.443, 91.474 129.352, 94.322 128.422 C 97.170 127.491, 99.637 126.617, 99.804 126.478 C 100.242 126.114, 74.620 75, 74 75 C 73.715 75, 67.748 86.477, 60.741 100.505 M 199.571 127.571 C 198.288 128.855, 198 131.788, 198 143.571 L 198 158 183.571 158 C 171.788 158, 168.855 158.288, 167.571 159.571 C 165.598 161.545, 165.598 162.455, 167.571 164.429 C 168.855 165.712, 171.788 166, 183.571 166 L 198 166 198 212.429 C 198 253.303, 198.188 259.045, 199.571 260.429 C 200.436 261.293, 201.471 262, 201.871 262 C 204.807 262, 205 258.968, 205 212.826 L 205 166.052 220.142 165.776 C 233.291 165.536, 235.430 165.270, 236.387 163.750 C 237.191 162.475, 237.191 161.525, 236.387 160.250 C 235.430 158.730, 233.291 158.464, 220.142 158.224 L 205 157.948 205 143.174 C 205 133.016, 204.625 128.025, 203.800 127.200 C 202.219 125.619, 201.457 125.685, 199.571 127.571 M 31.591 135.573 C 23.042 138.705, 15.586 147.372, 14.551 155.380 C 14.258 157.646, 14.603 162.425, 15.317 166 L 16.617 172.500 26.313 153.250 C 31.647 142.662, 35.895 134.032, 35.755 134.070 C 35.615 134.109, 33.741 134.785, 31.591 135.573 M 31.884 158.231 C 20.665 180.654, 19.825 182.726, 20.630 185.981 L 21.500 189.500 30.727 189.787 L 39.954 190.074 51.596 166.809 L 63.237 143.544 59.523 140.333 C 56.118 137.390, 48.519 134, 45.326 134 C 44.601 134, 38.552 144.904, 31.884 158.231 M 95.748 135.427 C 91.564 136.920, 85 141.581, 85 143.059 C 85 143.586, 90.185 154.380, 96.523 167.046 L 108.046 190.074 117.273 189.787 L 126.500 189.500 127.370 185.981 C 128.175 182.726, 127.335 180.654, 116.116 158.231 C 102.819 131.655, 103.664 132.602, 95.748 135.427 M 113 135.425 C 113 136.604, 130.506 171, 131.106 171 C 131.937 171, 132.981 164.548, 132.967 159.500 C 132.948 152.387, 127.737 143.125, 121.307 138.775 C 117.483 136.189, 113 134.381, 113 135.425 M 72.500 141 C 72.151 142.100, 72.177 143.983, 72.558 145.184 C 73.243 147.340, 73.269 147.334, 74.621 144.754 C 75.963 142.193, 75.596 139, 73.960 139 C 73.506 139, 72.849 139.900, 72.500 141 M 78.630 153.250 C 78.299 154.488, 78.021 157.118, 78.014 159.095 C 78 162.603, 75.653 166, 73.243 166 C 71.040 166, 68.998 162.771, 68.930 159.179 C 68.738 149.153, 67.819 150.420, 51.222 183.578 L 35.166 215.656 40.102 222.247 C 46.202 230.392, 57.644 241.178, 66.881 247.489 L 73.856 252.255 80.575 247.558 C 84.270 244.975, 89.754 240.755, 92.761 238.181 C 98.687 233.107, 111.973 217.605, 112.043 215.684 C 112.099 214.117, 80.716 151, 79.880 151 C 79.524 151, 78.962 152.012, 78.630 153.250 M 26.941 201.750 C 30.638 208.746, 30.593 208.736, 33.422 203.155 L 36.034 198 30.497 198 L 24.959 198 26.941 201.750 M 114.606 203.209 L 117.246 208.419 119.578 203.959 C 120.860 201.507, 121.930 199.162, 121.955 198.750 C 121.980 198.338, 119.742 198, 116.983 198 L 111.966 198 114.606 203.209 M 23.735 238.508 L 16.008 254 39.570 254 L 63.131 254 55.816 248.147 C 48.573 242.351, 38.751 232.520, 33.948 226.258 L 31.462 223.016 23.735 238.508 M 110.228 230.462 C 104.589 237.220, 95.093 246.100, 87.499 251.718 L 84.500 253.937 108.256 253.968 L 132.013 254 124.393 238.750 C 120.203 230.363, 116.690 223.402, 116.587 223.283 C 116.484 223.164, 113.623 226.395, 110.228 230.462 " stroke="none" fill="black" fill-rule="evenodd"/>
</svg>