<svg xmlns="http://www.w3.org/2000/svg" width="372" height="324" viewBox="0 0 372 324" version="1.1">
	<path d="M 71.921 63.250 C 71.284 63.938, 63.729 78.450, 55.132 95.500 L 39.500 126.500 35.045 127.233 C 20.043 129.701, 7.255 144.025, 6.842 158.824 C 6.770 161.396, 7.824 167.832, 9.185 173.128 L 11.658 182.755 8.876 188.128 C 7.346 191.082, 6.073 193.805, 6.047 194.179 C 5.919 196.028, 9.535 198, 13.055 198 C 16.768 198, 17.101 198.266, 19.620 203.236 C 21.079 206.116, 23.340 210.163, 24.645 212.229 L 27.016 215.986 16.508 236.984 C 10.729 248.533, 6 258.179, 6 258.419 C 6 258.660, 6.707 259.564, 7.571 260.429 C 8.968 261.825, 16.372 262, 74 262 C 131.628 262, 139.032 261.825, 140.429 260.429 C 141.293 259.564, 142 258.660, 142 258.419 C 142 258.179, 137.288 248.565, 131.528 237.056 L 121.056 216.131 125.521 208.316 C 127.976 204.017, 129.988 199.938, 129.993 199.250 C 129.997 198.439, 131.556 198, 134.429 198 C 138.450 198, 142.090 196.151, 141.953 194.179 C 141.927 193.805, 140.653 191.080, 139.121 188.122 L 136.336 182.743 138.231 175.122 C 139.273 170.930, 140.138 164.575, 140.152 161 C 140.215 145.073, 128.936 130.855, 113.616 127.549 L 108.500 126.445 92.868 95.473 C 77.424 64.872, 75.805 62, 74 62 C 73.493 62, 72.558 62.563, 71.921 63.250 M 296.369 62.765 C 295.416 63.384, 230 193.155, 230 194.426 C 230 194.663, 230.707 195.564, 231.571 196.429 C 232.844 197.701, 235.697 198, 246.575 198 L 260.006 198 245.003 227.994 C 236.751 244.490, 230 258.183, 230 258.422 C 230 258.661, 230.707 259.564, 231.571 260.429 C 232.968 261.825, 240.372 262, 298 262 C 355.628 262, 363.032 261.825, 364.429 260.429 C 365.293 259.564, 366 258.661, 366 258.422 C 366 258.183, 359.249 244.490, 350.997 227.994 L 335.994 198 349.425 198 C 360.303 198, 363.156 197.701, 364.429 196.429 C 365.293 195.564, 366 194.663, 366 194.426 C 366 193.155, 300.584 63.384, 299.631 62.765 C 299.009 62.361, 298.275 62.031, 298 62.031 C 297.725 62.031, 296.991 62.361, 296.369 62.765 M 60.670 100.647 C 47.817 126.376, 47.312 127.932, 51.790 127.985 C 53.726 128.008, 60.338 131.572, 63.714 134.413 L 66.695 136.921 68.995 132.011 C 72.544 124.434, 75.292 124.305, 78.812 131.549 L 80.985 136.023 85.065 133.068 C 87.309 131.443, 91.474 129.352, 94.322 128.422 C 97.170 127.491, 99.637 126.617, 99.804 126.478 C 100.242 126.114, 74.620 75, 74 75 C 73.715 75, 67.716 86.541, 60.670 100.647 M 268.747 132.500 L 240.002 190 252.003 190 L 264.004 190 279.736 158.517 C 288.389 141.202, 296.038 126.816, 296.734 126.549 C 297.430 126.281, 298.570 126.281, 299.266 126.549 C 299.962 126.816, 307.611 141.202, 316.264 158.517 L 331.996 190 343.997 190 L 355.998 190 327.253 132.500 C 311.443 100.875, 298.279 75, 298 75 C 297.721 75, 284.557 100.875, 268.747 132.500 M 31.054 135.728 C 24.632 137.995, 17.606 145.395, 15.502 152.106 C 13.982 156.957, 13.953 158.255, 15.214 165 L 16.617 172.500 26.313 153.250 C 31.647 142.662, 35.895 134.036, 35.755 134.079 C 35.615 134.122, 33.499 134.864, 31.054 135.728 M 31.884 158.231 C 20.665 180.654, 19.825 182.726, 20.630 185.981 L 21.500 189.500 30.727 189.787 L 39.954 190.074 51.596 166.809 L 63.237 143.544 59.523 140.333 C 56.118 137.390, 48.519 134, 45.326 134 C 44.601 134, 38.552 144.904, 31.884 158.231 M 95.437 135.600 C 93.203 136.393, 89.828 138.343, 87.937 139.934 L 84.500 142.826 96.266 166.450 L 108.032 190.075 117.266 189.787 L 126.500 189.500 127.370 185.981 C 128.175 182.726, 127.335 180.654, 116.116 158.231 C 102.758 131.534, 103.771 132.642, 95.437 135.600 M 113 135.443 C 113 135.761, 117.136 144.229, 122.191 154.261 C 130.614 170.977, 131.439 172.249, 132.072 169.500 C 134.954 156.992, 130.598 144.631, 121.169 138.558 C 117.356 136.102, 113 134.441, 113 135.443 M 72.500 141 C 72.151 142.100, 72.177 143.983, 72.558 145.184 C 73.243 147.340, 73.269 147.334, 74.621 144.754 C 75.963 142.193, 75.596 139, 73.960 139 C 73.506 139, 72.849 139.900, 72.500 141 M 268.747 196.500 L 240.002 254 298 254 L 355.998 254 327.253 196.500 C 311.443 164.875, 298.279 139, 298 139 C 297.721 139, 284.557 164.875, 268.747 196.500 M 79.028 153.426 C 78.463 154.913, 78 157.644, 78 159.494 C 78 168.158, 69.095 167.849, 68.930 159.179 C 68.738 149.154, 67.819 150.421, 51.237 183.548 L 35.196 215.597 38.737 220.548 C 43.926 227.803, 58.486 241.774, 66.684 247.364 L 73.817 252.228 79.235 248.632 C 88.558 242.444, 99.447 232.515, 106.289 223.963 L 112.873 215.734 96.826 183.617 C 88 165.953, 80.616 151.325, 80.417 151.111 C 80.218 150.898, 79.593 151.939, 79.028 153.426 M 175.308 199.308 C 170.188 204.427, 166 209.120, 166 209.736 C 166 211.121, 168.789 214, 170.131 214 C 170.675 214, 173.568 211.685, 176.560 208.855 L 182 203.710 182 228.855 L 182 254 175.571 254 C 171.061 254, 168.674 254.469, 167.571 255.571 C 165.598 257.545, 165.598 258.455, 167.571 260.429 C 168.876 261.733, 172.009 262, 186 262 C 199.991 262, 203.124 261.733, 204.429 260.429 C 206.402 258.455, 206.402 257.545, 204.429 255.571 C 203.326 254.469, 200.939 254, 196.429 254 L 190 254 190 223.571 C 190 197.242, 189.788 192.931, 188.429 191.571 C 187.564 190.707, 186.353 190, 185.736 190 C 185.120 190, 180.427 194.188, 175.308 199.308 M 26.941 201.750 C 30.638 208.746, 30.593 208.736, 33.422 203.155 L 36.034 198 30.497 198 L 24.959 198 26.941 201.750 M 114.565 203.129 L 117.165 208.258 118.957 205.310 C 119.943 203.689, 121.062 201.381, 121.442 200.181 C 122.092 198.135, 121.821 198, 117.051 198 L 111.966 198 114.565 203.129 M 23.735 238.508 L 16.008 254 39.570 254 L 63.131 254 55.816 248.147 C 48.573 242.351, 38.751 232.520, 33.948 226.258 L 31.462 223.016 23.735 238.508 M 112.092 228.380 C 107.064 234.898, 96.432 245.130, 89.581 250.046 L 84.767 253.500 96.941 253.781 C 103.637 253.936, 114.211 253.936, 120.441 253.781 L 131.767 253.500 124.079 238.154 L 116.391 222.808 112.092 228.380 " stroke="none" fill="black" fill-rule="evenodd"/>
</svg>