<svg xmlns="http://www.w3.org/2000/svg" width="436" height="324" viewBox="0 0 436 324" version="1.1">
	<path d="M 71.921 63.250 C 71.284 63.938, 63.729 78.450, 55.132 95.500 L 39.500 126.500 35.045 127.233 C 20.043 129.701, 7.255 144.025, 6.842 158.824 C 6.770 161.396, 7.824 167.832, 9.185 173.128 L 11.658 182.755 8.876 188.128 C 7.346 191.082, 6.073 193.805, 6.047 194.179 C 5.919 196.028, 9.535 198, 13.055 198 C 16.768 198, 17.101 198.266, 19.620 203.236 C 21.079 206.116, 23.340 210.163, 24.645 212.229 L 27.016 215.986 16.508 236.984 C 10.729 248.533, 6 258.179, 6 258.419 C 6 258.660, 6.707 259.564, 7.571 260.429 C 8.968 261.825, 16.372 262, 74 262 C 131.628 262, 139.032 261.825, 140.429 260.429 C 141.293 259.564, 142 258.660, 142 258.419 C 142 258.179, 137.280 248.551, 131.512 237.024 L 121.024 216.066 124.570 210.016 C 126.520 206.688, 128.584 202.623, 129.156 200.983 C 130.094 198.292, 130.619 198, 134.526 198 C 138.251 198, 142 196.194, 142 194.400 C 142 194.149, 140.697 191.362, 139.105 188.207 L 136.209 182.471 138.158 174.986 C 142.085 159.906, 139.997 147.822, 131.868 138.587 C 126.914 132.959, 121.235 129.513, 113.976 127.729 L 108.500 126.383 92.868 95.442 C 77.422 64.867, 75.804 62, 74 62 C 73.493 62, 72.558 62.563, 71.921 63.250 M 60.741 100.505 C 53.733 114.533, 48 126.197, 48 126.425 C 48 126.653, 50.273 127.594, 53.051 128.517 C 55.829 129.440, 60.048 131.680, 62.427 133.496 L 66.753 136.798 69.024 131.949 C 72.543 124.437, 75.301 124.324, 78.812 131.549 L 80.985 136.023 85.065 133.068 C 87.309 131.443, 91.474 129.352, 94.322 128.422 C 97.170 127.491, 99.637 126.617, 99.804 126.478 C 100.242 126.114, 74.620 75, 74 75 C 73.715 75, 67.748 86.477, 60.741 100.505 M 199.571 127.571 C 198.288 128.855, 198 131.788, 198 143.571 L 198 158 183.571 158 C 171.788 158, 168.855 158.288, 167.571 159.571 C 165.598 161.545, 165.598 162.455, 167.571 164.429 C 168.855 165.712, 171.788 166, 183.571 166 L 198 166 198 212.429 C 198 253.303, 198.188 259.045, 199.571 260.429 C 201.678 262.535, 202.598 262.412, 204.443 259.777 C 205.797 257.845, 206 251.594, 206 211.804 L 206 166.053 220.643 165.777 C 233.314 165.537, 235.433 165.264, 236.387 163.750 C 237.191 162.475, 237.191 161.525, 236.387 160.250 C 235.433 158.736, 233.314 158.463, 220.643 158.223 L 206 157.947 206 144.196 C 206 133.369, 205.669 129.972, 204.443 128.223 C 202.598 125.588, 201.678 125.465, 199.571 127.571 M 391.750 127.080 C 390.113 128.034, 390 132.152, 390 191.050 L 390 254 375.571 254 C 363.788 254, 360.855 254.288, 359.571 255.571 C 357.595 257.548, 357.598 258.455, 359.585 260.442 C 360.978 261.835, 365.159 261.995, 394.226 261.763 C 424.452 261.523, 427.377 261.350, 428.386 259.750 C 429.190 258.475, 429.191 257.525, 428.387 256.250 C 427.430 254.730, 425.291 254.464, 412.142 254.224 L 397 253.948 397 191.174 C 397 123.280, 397.058 123.988, 391.750 127.080 M 31.054 135.728 C 24.632 137.995, 17.606 145.395, 15.502 152.106 C 13.982 156.957, 13.953 158.255, 15.214 165 L 16.617 172.500 26.313 153.250 C 31.647 142.662, 35.895 134.036, 35.755 134.079 C 35.615 134.122, 33.499 134.864, 31.054 135.728 M 31.884 158.231 C 20.665 180.654, 19.825 182.726, 20.630 185.981 L 21.500 189.500 30.727 189.787 L 39.954 190.074 51.596 166.809 L 63.237 143.544 59.523 140.333 C 56.118 137.390, 48.519 134, 45.326 134 C 44.601 134, 38.552 144.904, 31.884 158.231 M 95.437 135.600 C 93.203 136.393, 89.828 138.343, 87.937 139.934 L 84.500 142.826 96.266 166.450 L 108.032 190.075 117.266 189.787 L 126.500 189.500 127.370 185.981 C 128.175 182.726, 127.335 180.654, 116.116 158.231 C 102.758 131.534, 103.771 132.642, 95.437 135.600 M 113 135.444 C 113 136.060, 129.957 170.211, 130.612 170.917 C 132.498 172.944, 133.633 158.463, 131.985 153.408 C 130.152 147.785, 125.436 141.307, 121.180 138.565 C 117.357 136.102, 113 134.440, 113 135.444 M 72.500 141 C 72.151 142.100, 72.177 143.983, 72.558 145.184 C 73.243 147.340, 73.269 147.334, 74.621 144.754 C 75.963 142.193, 75.596 139, 73.960 139 C 73.506 139, 72.849 139.900, 72.500 141 M 78.625 154.125 C 78.281 155.844, 78 158.512, 78 160.054 C 78 163.031, 75.753 166, 73.500 166 C 71.059 166, 69.001 162.929, 68.930 159.179 C 68.738 149.154, 67.819 150.421, 51.237 183.548 L 35.196 215.597 38.737 220.548 C 43.925 227.802, 58.486 241.773, 66.682 247.362 L 73.813 252.225 78.656 248.953 C 91.540 240.250, 107.997 224.233, 111.296 217.187 C 112.243 215.163, 110.389 210.884, 96.453 182.937 C 87.694 165.372, 80.240 151, 79.889 151 C 79.537 151, 78.969 152.406, 78.625 154.125 M 263.571 191.571 C 262.707 192.436, 262 193.640, 262 194.249 C 262 194.857, 268.844 202.250, 277.208 210.677 L 292.416 226 277.208 241.323 C 268.844 249.750, 262 257.143, 262 257.751 C 262 258.967, 264.736 262, 265.834 262 C 266.213 262, 273.482 255.031, 281.987 246.514 L 297.449 231.027 313.045 246.514 C 321.623 255.031, 329.082 262, 329.621 262 C 331.106 262, 333 259.793, 333 258.062 C 333 257.216, 326.143 249.656, 317.762 241.262 L 302.524 226 317.762 210.738 C 326.143 202.344, 333 194.784, 333 193.938 C 333 192.207, 331.106 190, 329.621 190 C 329.082 190, 321.623 196.969, 313.045 205.486 L 297.449 220.973 281.987 205.486 C 273.482 196.969, 266.213 190, 265.834 190 C 265.454 190, 264.436 190.707, 263.571 191.571 M 26.941 201.750 C 30.638 208.746, 30.593 208.736, 33.422 203.155 L 36.034 198 30.497 198 L 24.959 198 26.941 201.750 M 114.606 203.209 L 117.246 208.419 119.578 203.959 C 120.860 201.507, 121.930 199.162, 121.955 198.750 C 121.980 198.338, 119.742 198, 116.983 198 L 111.966 198 114.606 203.209 M 23.735 238.508 L 16.008 254 39.570 254 L 63.131 254 55.816 248.147 C 48.573 242.351, 38.751 232.520, 33.948 226.258 L 31.462 223.016 23.735 238.508 M 109.482 231.260 C 103.095 238.697, 95.215 246.032, 87.500 251.723 L 84.500 253.937 108.256 253.968 L 132.013 254 124.393 238.750 C 120.203 230.363, 116.704 223.417, 116.619 223.315 C 116.534 223.214, 113.322 226.789, 109.482 231.260 " stroke="none" fill="black" fill-rule="evenodd"/>
</svg>