<svg xmlns="http://www.w3.org/2000/svg" width="244" height="324" viewBox="0 0 244 324" version="1.1">
	<path d="M 71.200 127.200 C 70.292 128.108, 70 143.689, 70 191.200 L 70 254 39.571 254 C 13.242 254, 8.931 254.212, 7.571 255.571 C 5.598 257.545, 5.598 258.455, 7.571 260.429 C 8.968 261.825, 16.372 262, 74 262 C 131.628 262, 139.032 261.825, 140.429 260.429 C 142.402 258.455, 142.402 257.545, 140.429 255.571 C 139.069 254.212, 134.758 254, 108.429 254 L 78 254 78 226 L 78 198 108.429 198 C 134.758 198, 139.069 197.788, 140.429 196.429 C 141.793 195.064, 142 190.537, 142 162 C 142 133.463, 141.793 128.936, 140.429 127.571 C 139.063 126.206, 134.503 126, 105.629 126 C 81.117 126, 72.085 126.315, 71.200 127.200 M 199.750 127.080 C 198.207 127.979, 198 129.866, 198 143.050 L 198 158 183.934 158 C 169.308 158, 166 158.738, 166 162 C 166 165.262, 169.308 166, 183.934 166 L 198 166 198 212.965 L 198 259.930 200.183 261.098 C 202.042 262.093, 202.636 261.933, 204.183 260.022 C 205.880 257.927, 206 254.749, 206 211.916 L 206 166.053 220.643 165.777 C 233.314 165.537, 235.433 165.264, 236.387 163.750 C 237.191 162.475, 237.191 161.525, 236.387 160.250 C 235.433 158.736, 233.314 158.463, 220.643 158.223 L 206 157.947 206 144.196 C 206 133.369, 205.669 129.972, 204.443 128.223 C 202.702 125.736, 202.248 125.625, 199.750 127.080 M 78 162 L 78 190 106 190 L 134 190 134 162 L 134 134 106 134 L 78 134 78 162 " stroke="none" fill="black" fill-rule="evenodd"/>
</svg>