<svg xmlns="http://www.w3.org/2000/svg" width="244" height="324" viewBox="0 0 244 324" version="1.1">
	<path d="M 39.571 127.571 C 38.176 128.966, 38 136.152, 38 191.571 L 38 254 23.571 254 C 11.788 254, 8.855 254.288, 7.571 255.571 C 5.598 257.545, 5.598 258.455, 7.571 260.429 C 8.936 261.793, 13.463 262, 42 262 C 70.537 262, 75.064 261.793, 76.429 260.429 C 77.293 259.564, 78 258.471, 78 258 C 78 257.529, 77.293 256.436, 76.429 255.571 C 75.145 254.288, 72.212 254, 60.429 254 L 46 254 46 191.571 C 46 136.152, 45.824 128.966, 44.429 127.571 C 43.564 126.707, 42.471 126, 42 126 C 41.529 126, 40.436 126.707, 39.571 127.571 M 167.750 127.057 C 164.695 128.876, 165.815 131.243, 173.041 138.244 C 192.507 157.102, 200.729 183.032, 195.408 208.790 C 192.216 224.245, 184.699 237.529, 172.512 249.250 C 168.381 253.224, 165 256.786, 165 257.166 C 165 257.546, 165.743 258.601, 166.652 259.509 C 167.993 260.850, 169.451 261.036, 174.402 260.497 C 191.254 258.662, 204.546 252.452, 216.095 241.019 C 229.576 227.674, 236 212.368, 236 193.597 C 236 181.228, 234.343 174.213, 228.774 163 C 220.804 146.954, 203.507 132.912, 186.500 128.680 C 177.892 126.538, 169.799 125.837, 167.750 127.057 M 186.498 142.085 C 209.998 172.501, 210.027 214.462, 186.569 244.822 C 183.519 248.770, 181.448 252, 181.966 252 C 183.950 252, 195.935 247.228, 200.120 244.772 C 207.238 240.595, 213.595 234.390, 218.936 226.404 C 238.805 196.697, 227.736 155.394, 195.820 140.151 C 191.244 137.966, 186.011 135.871, 184.190 135.496 L 180.880 134.815 186.498 142.085 M 119.571 159.571 C 118.324 160.819, 118 163.528, 118 172.716 L 118 184.290 112.560 179.145 C 109.568 176.315, 106.675 174, 106.131 174 C 104.829 174, 102 176.861, 102 178.178 C 102 178.747, 105.226 182.540, 109.169 186.607 L 116.338 194 109.169 201.393 C 105.226 205.460, 102 209.253, 102 209.822 C 102 211.139, 104.829 214, 106.131 214 C 106.675 214, 109.568 211.685, 112.560 208.855 L 118 203.710 118 215.284 C 118 224.472, 118.324 227.181, 119.571 228.429 C 121.678 230.535, 122.598 230.412, 124.443 227.777 C 125.622 226.095, 126 222.900, 126 214.632 L 126 203.710 131.440 208.855 C 137.246 214.346, 137.931 214.669, 139.800 212.800 C 142.160 210.440, 140.903 207.706, 134.336 200.903 L 127.672 194 134.336 187.097 C 140.903 180.294, 142.160 177.560, 139.800 175.200 C 137.931 173.331, 137.246 173.654, 131.440 179.145 L 126 184.290 126 173.368 C 126 165.100, 125.622 161.905, 124.443 160.223 C 122.598 157.588, 121.678 157.465, 119.571 159.571 " stroke="none" fill="black" fill-rule="evenodd"/>
</svg>