<svg xmlns="http://www.w3.org/2000/svg" width="403" height="324" viewBox="0 0 403 324" version="1.1">
	<path d="M 72.354 62.765 C 71.724 63.169, 64.074 77.675, 55.354 95 L 39.500 126.500 35.045 127.233 C 25.063 128.875, 14.883 136.429, 10.151 145.705 C 7.860 150.194, 5.568 161.492, 6.606 163.172 C 6.992 163.796, 8.286 168.457, 9.483 173.531 L 11.658 182.755 8.876 188.128 C 7.346 191.082, 6.073 193.805, 6.047 194.179 C 5.920 196.010, 9.533 198, 12.983 198 C 16.803 198, 16.850 198.049, 21.777 207.250 L 26.731 216.500 16.366 237.241 C 10.665 248.648, 6 258.179, 6 258.419 C 6 258.660, 6.707 259.564, 7.571 260.429 C 8.968 261.825, 16.372 262, 74 262 C 131.628 262, 139.032 261.825, 140.429 260.429 C 141.293 259.564, 142 258.660, 142 258.419 C 142 258.179, 137.310 248.610, 131.578 237.156 L 121.156 216.329 125.828 207.171 L 130.500 198.013 134.679 198.007 C 138.254 198.001, 142 196.155, 142 194.400 C 142 194.149, 140.634 191.238, 138.966 187.932 C 137.297 184.626, 136.175 181.526, 136.473 181.044 C 136.771 180.561, 137.843 176.129, 138.855 171.195 C 141.744 157.112, 139.641 147.782, 131.411 138.167 C 126.980 132.991, 121.127 129.486, 113.976 127.729 L 108.500 126.383 92.868 95.442 C 84.271 78.424, 76.716 63.938, 76.079 63.250 C 74.758 61.824, 73.980 61.723, 72.354 62.765 M 60.741 100.505 C 53.733 114.533, 48 126.197, 48 126.425 C 48 126.653, 50.273 127.594, 53.051 128.517 C 55.829 129.440, 60.063 131.692, 62.460 133.522 L 66.819 136.849 68.888 132.040 C 72.140 124.479, 75.292 124.305, 78.784 131.493 L 80.931 135.911 85.715 132.695 C 88.347 130.927, 92.525 128.838, 95 128.054 C 97.475 127.270, 99.637 126.538, 99.804 126.427 C 100.257 126.127, 74.603 75, 74 75 C 73.715 75, 67.748 86.477, 60.741 100.505 M 231.200 127.200 C 230.292 128.108, 230 143.689, 230 191.200 L 230 254 199.571 254 C 173.242 254, 168.931 254.212, 167.571 255.571 C 165.596 257.546, 165.598 258.455, 167.579 260.436 C 168.990 261.847, 176.058 261.987, 234.220 261.757 C 294.934 261.517, 299.356 261.383, 300.386 259.750 C 301.191 258.474, 301.191 257.526, 300.386 256.250 C 299.380 254.654, 296.542 254.477, 268.141 254.236 L 237 253.972 237 225.986 L 237 198 267.800 198 C 290.422 198, 298.919 197.681, 299.800 196.800 C 301.519 195.081, 301.519 128.919, 299.800 127.200 C 298.082 125.482, 232.918 125.482, 231.200 127.200 M 359.750 127.080 C 358.207 127.979, 358 129.866, 358 143.050 L 358 158 343.934 158 C 329.308 158, 326 158.738, 326 162 C 326 165.262, 329.308 166, 343.934 166 L 358 166 358 212.965 C 358 259.391, 358.024 259.942, 360.064 261.034 C 364.972 263.661, 365 263.385, 365 212.878 L 365 166 379.066 166 C 393.692 166, 397 165.262, 397 162 C 397 158.738, 393.692 158, 379.066 158 L 365 158 365 143.200 C 365 126.584, 364.299 124.431, 359.750 127.080 M 31.884 158.231 C 20.665 180.654, 19.825 182.726, 20.630 185.981 L 21.500 189.500 30.727 189.787 L 39.954 190.074 51.596 166.809 L 63.237 143.544 59.523 140.333 C 56.118 137.390, 48.519 134, 45.326 134 C 44.601 134, 38.552 144.904, 31.884 158.231 M 95.437 135.600 C 93.203 136.393, 89.828 138.343, 87.937 139.934 L 84.500 142.826 96.247 166.413 L 107.994 190 116.837 190 C 125.342 190, 125.723 189.903, 126.839 187.453 C 127.478 186.052, 128 184.248, 128 183.445 C 128 182.641, 122.598 171.188, 115.996 157.992 C 102.770 131.559, 103.767 132.644, 95.437 135.600 M 238 162 L 238 190 266 190 L 294 190 294 162 L 294 134 266 134 L 238 134 238 162 M 28.230 137.115 C 22.612 139.896, 17.364 146.164, 15.397 152.440 C 13.992 156.923, 13.971 158.356, 15.214 165 L 16.617 172.500 25.808 154.261 C 30.864 144.229, 35 135.791, 35 135.511 C 35 134.447, 32.351 135.075, 28.230 137.115 M 113 135.425 C 113 136.668, 130.523 171, 131.157 171 C 132.433 171, 133.208 158.413, 132.165 154.635 C 130.485 148.552, 126.238 142.259, 121.727 139.169 C 117.531 136.295, 113 134.351, 113 135.425 M 72.500 141 C 72.151 142.100, 72.177 143.983, 72.558 145.184 C 73.243 147.340, 73.269 147.334, 74.621 144.754 C 75.963 142.193, 75.596 139, 73.960 139 C 73.506 139, 72.849 139.900, 72.500 141 M 78.630 153.250 C 78.299 154.488, 78.021 157.118, 78.014 159.095 C 78 162.603, 75.653 166, 73.243 166 C 71.040 166, 68.998 162.771, 68.930 159.179 C 68.738 149.153, 67.819 150.420, 51.222 183.578 L 35.166 215.656 40.138 222.295 C 46.078 230.227, 57.963 241.388, 67.178 247.689 L 73.856 252.255 80.634 247.517 C 90.318 240.747, 97.723 234.087, 104.020 226.482 C 113.843 214.619, 114.691 219.512, 96.489 183.010 C 87.710 165.404, 80.236 151, 79.880 151 C 79.524 151, 78.962 152.012, 78.630 153.250 M 26.941 201.750 C 30.638 208.746, 30.593 208.736, 33.422 203.155 L 36.034 198 30.497 198 L 24.959 198 26.941 201.750 M 114.606 203.209 L 117.246 208.419 119.578 203.959 C 120.860 201.507, 121.930 199.162, 121.955 198.750 C 121.980 198.338, 119.742 198, 116.983 198 L 111.966 198 114.606 203.209 M 23.735 238.508 L 16.008 254 39.653 254 L 63.298 254 56.899 249.125 C 50.552 244.288, 38.703 232.487, 33.941 226.258 L 31.462 223.016 23.735 238.508 M 110.228 230.462 C 104.589 237.220, 95.093 246.100, 87.499 251.718 L 84.500 253.937 108.256 253.968 L 132.013 254 124.393 238.750 C 120.203 230.363, 116.690 223.402, 116.587 223.283 C 116.484 223.164, 113.623 226.395, 110.228 230.462 " stroke="none" fill="black" fill-rule="evenodd"/>
</svg>