<svg xmlns="http://www.w3.org/2000/svg" width="403" height="324" viewBox="0 0 403 324" version="1.1">
	<path d="M 166.573 64.250 C 165.763 65.487, 150.851 95.282, 133.437 130.459 C 109.542 178.728, 102.012 194.797, 102.744 195.959 C 103.526 197.200, 106.370 197.554, 117.357 197.778 C 124.861 197.931, 131 198.331, 131 198.666 C 131 199.001, 124.437 212.601, 116.416 228.888 C 105.706 250.633, 102.082 258.899, 102.774 260 C 103.594 261.303, 112.161 261.536, 168.109 261.776 C 203.524 261.928, 233.512 261.807, 234.750 261.507 C 236.334 261.123, 237 260.226, 237 258.474 C 237 257.106, 230.473 242.940, 222.497 226.993 L 207.993 198 220.915 198 C 228.022 198, 234.548 197.727, 235.418 197.393 C 236.288 197.059, 237 195.708, 237 194.390 C 237 191.815, 173.519 63.991, 171.631 62.765 C 169.650 61.478, 168.087 61.937, 166.573 64.250 M 140.747 132.500 L 112.002 190 123.764 190 L 135.526 190 151.013 158.930 C 159.531 141.841, 167.041 127.404, 167.702 126.847 C 170.692 124.328, 172.807 127.586, 188.250 158.489 L 203.996 190 215.498 190 C 221.824 190, 227 189.773, 227 189.497 C 227 188.838, 170.074 75, 169.744 75 C 169.605 75, 156.557 100.875, 140.747 132.500 M 39.571 127.571 C 38.207 128.935, 38 133.425, 38 161.577 L 38 194.012 22.016 225.967 C 13.225 243.542, 6.285 258.580, 6.594 259.384 C 7.265 261.133, 9.512 262.124, 11.274 261.448 C 11.975 261.180, 19.056 247.919, 27.010 231.980 C 34.964 216.041, 41.710 203, 42 203 C 42.290 203, 49.036 216.041, 56.990 231.980 C 64.944 247.919, 72.025 261.180, 72.726 261.448 C 74.488 262.124, 76.735 261.133, 77.406 259.384 C 77.715 258.580, 70.775 243.542, 61.984 225.967 L 46 194.012 46 161.577 C 46 133.425, 45.793 128.935, 44.429 127.571 C 43.564 126.707, 42.471 126, 42 126 C 41.529 126, 40.436 126.707, 39.571 127.571 M 263.750 127.076 C 261.422 128.437, 261.524 131.675, 263.934 132.965 C 264.998 133.534, 267.965 134, 270.527 134 L 275.185 134 270.603 139.097 C 267.333 142.734, 265.445 146.057, 264.010 150.702 C 261.537 158.709, 261.529 161.131, 263.939 172.500 C 267.368 188.680, 274.433 205.353, 283.801 219.375 C 289.527 227.946, 304.124 243.420, 312.231 249.515 L 318.198 254 292.033 254 C 275.910 254, 265.126 254.397, 263.934 255.035 C 261.440 256.370, 261.448 259.634, 263.948 260.972 C 265.256 261.672, 287.132 261.930, 330.589 261.757 C 390.951 261.517, 395.356 261.383, 396.386 259.750 C 397.191 258.474, 397.191 257.526, 396.386 256.250 C 395.386 254.663, 392.703 254.475, 367.564 254.234 L 339.844 253.968 345.684 249.578 C 354.324 243.084, 368.841 227.616, 374.852 218.500 C 384.646 203.647, 391.147 188.004, 394.553 171.089 C 397.343 157.231, 394.809 146.379, 386.777 137.794 L 383.310 134.087 389.301 133.794 C 395.983 133.466, 398.456 131.531, 396.386 128.250 C 395.356 126.616, 390.963 126.485, 330.391 126.276 C 287.547 126.129, 264.905 126.400, 263.750 127.076 M 287.885 135.380 C 276.942 139.290, 269.641 149.660, 269.803 161.062 C 269.942 170.881, 275.200 188.527, 282.006 202.013 C 290.343 218.535, 306.791 237.340, 321.750 247.452 L 329 252.353 336.248 247.427 C 362.414 229.640, 381.816 199.655, 387.594 168.074 C 389.074 159.986, 389.076 158.774, 387.625 153.781 C 381.964 134.309, 356.721 127.383, 342.161 141.307 C 337.750 145.524, 334.265 152.523, 333.426 158.845 C 332.603 165.047, 330.982 166.768, 327.470 165.168 C 325.687 164.356, 325 163.253, 325 161.203 C 325 151.481, 317.866 140.739, 308.500 136.358 C 302.785 133.685, 293.818 133.259, 287.885 135.380 M 323.977 139.090 C 326.190 141.889, 328 144.589, 328 145.090 C 328 146.919, 329.612 145.926, 331.312 143.050 C 332.270 141.427, 334.427 138.727, 336.104 137.050 L 339.154 134 329.554 134 L 319.953 134 323.977 139.090 M 140.747 196.500 L 112.002 254 169.501 254 C 201.126 254, 227 253.773, 227 253.497 C 227 252.838, 170.074 139, 169.744 139 C 169.605 139, 156.557 164.875, 140.747 196.500 " stroke="none" fill="black" fill-rule="evenodd"/>
</svg>