<svg xmlns="http://www.w3.org/2000/svg" width="244" height="324" viewBox="0 0 244 324" version="1.1">
	<path d="M 35.045 127.064 C 19.586 130.194, 7.255 144.080, 6.841 158.824 C 6.690 164.215, 10.476 179.767, 14.874 191.818 C 23.625 215.797, 41.071 238.149, 63.261 253.815 C 71.459 259.602, 76.072 261.311, 77.454 259.074 C 77.769 258.565, 81.733 255.556, 86.263 252.388 C 112.818 233.821, 132.129 203.986, 138.872 171.112 C 141.945 156.133, 139.262 146.177, 129.518 136.404 C 116.900 123.746, 95.755 123.323, 82.257 135.459 C 79.595 137.852, 76.567 141.388, 75.529 143.317 L 73.640 146.824 70.976 142.624 C 63.636 131.049, 48.255 124.389, 35.045 127.064 M 199.571 127.571 C 198.176 128.966, 198 136.152, 198 191.571 L 198 254 183.571 254 C 171.788 254, 168.855 254.288, 167.571 255.571 C 165.595 257.548, 165.598 258.455, 167.585 260.442 C 168.978 261.835, 173.159 261.995, 202.226 261.763 C 232.452 261.523, 235.377 261.350, 236.386 259.750 C 237.190 258.475, 237.191 257.525, 236.387 256.250 C 235.430 254.730, 233.291 254.464, 220.142 254.224 L 205 253.948 205 191.174 C 205 128.929, 204.859 126, 201.871 126 C 201.471 126, 200.436 126.707, 199.571 127.571 M 31.054 135.728 C 24.787 137.940, 17.726 145.297, 15.534 151.899 C 13.881 156.875, 13.875 157.704, 15.430 166.205 C 18.772 184.475, 25.252 200.548, 35.502 216 C 41.742 225.407, 57.252 241.032, 66.665 247.394 L 73.830 252.237 81.406 247 C 106.389 229.729, 125.124 201.311, 131.495 171.022 C 132.323 167.088, 133 161.946, 133 159.594 C 133 153.793, 127.985 143.948, 123.031 140.024 C 112.620 131.779, 97.192 132.008, 87.205 140.557 C 80.781 146.056, 75.347 159, 79.462 159 C 84.056 159, 92.841 163.681, 98.080 168.920 C 105.166 176.006, 108.111 183.223, 108.111 193.500 C 108.111 210.246, 98.211 222.919, 81.500 227.564 C 74.345 229.552, 74.161 229.555, 66.446 227.798 C 39.337 221.625, 29.303 189.900, 48.033 169.580 C 52.468 164.768, 59.753 160.492, 65.250 159.473 C 69.510 158.683, 69.632 158.212, 67.333 151.463 C 65.125 144.983, 58.017 137.875, 51.537 135.667 C 45.516 133.616, 36.964 133.641, 31.054 135.728 M 63.627 167.468 C 58.247 169.386, 53.039 173.829, 49.500 179.519 C 46.741 183.955, 46.500 185.073, 46.500 193.422 C 46.500 201.509, 46.798 203.007, 49.230 207.145 C 53.385 214.213, 59.168 218.498, 67.305 220.541 L 70 221.217 70 193.608 C 70 172.165, 69.721 166.010, 68.750 166.044 C 68.063 166.068, 65.757 166.709, 63.627 167.468 M 78 193.500 L 78 221.135 80.250 220.448 C 88.603 217.897, 94.948 212.697, 98.533 205.467 C 101.287 199.912, 101.287 187.088, 98.533 181.533 C 94.948 174.303, 88.603 169.103, 80.250 166.552 L 78 165.865 78 193.500 " stroke="none" fill="black" fill-rule="evenodd"/>
</svg>