<svg xmlns="http://www.w3.org/2000/svg" width="436" height="324" viewBox="0 0 436 324" version="1.1">
	<path d="M 7.571 127.571 C 6.207 128.936, 6 133.463, 6 162 C 6 190.537, 6.207 195.064, 7.571 196.429 C 8.844 197.701, 11.697 198, 22.575 198 L 36.006 198 21.020 227.961 C 12.777 244.439, 6.285 258.580, 6.594 259.384 C 7.265 261.133, 9.512 262.125, 11.274 261.448 C 11.975 261.180, 19.056 247.919, 27.010 231.980 C 34.964 216.041, 41.717 203, 42.016 203 C 42.315 203, 49.042 216.034, 56.965 231.964 C 69.336 256.836, 72.352 262, 74.510 262 C 74.701 262, 75.564 261.293, 76.429 260.429 C 77.825 259.032, 78 251.628, 78 194 C 78 136.372, 77.825 128.968, 76.429 127.571 C 74.455 125.598, 73.545 125.598, 71.571 127.571 C 70.212 128.931, 70 133.242, 70 159.571 L 70 190 42 190 L 14 190 14 159.571 C 14 133.242, 13.788 128.931, 12.429 127.571 C 11.564 126.707, 10.471 126, 10 126 C 9.529 126, 8.436 126.707, 7.571 127.571 M 103.571 127.571 C 102.707 128.436, 102.026 129.448, 102.058 129.821 C 102.090 130.195, 116.878 159.975, 134.919 196 L 167.723 261.500 200.111 261.794 C 222.652 261.999, 233.716 261.734, 236.500 260.922 C 247.856 257.609, 250.438 256.548, 254.299 253.611 C 263.523 246.596, 269.768 232.832, 268.417 222.500 C 266.657 209.042, 258.066 197.476, 246.500 192.994 C 237.840 189.637, 227.438 189.737, 219.762 193.251 C 211.786 196.903, 204.868 203.697, 201.417 211.266 C 197.383 220.112, 197.350 230.889, 201.329 239.500 C 202.854 242.800, 205.972 247.412, 208.259 249.750 L 212.416 254 192.210 254 L 172.003 254 140.383 190.750 C 122.992 155.962, 108.254 127.169, 107.631 126.765 C 105.978 125.692, 105.320 125.822, 103.571 127.571 M 327.173 159.292 C 326.583 160.002, 325.966 163.710, 325.800 167.531 L 325.500 174.479 320.244 175.232 C 313.462 176.204, 303.705 180.681, 298 185.439 C 292.563 189.974, 291.232 192.370, 292.980 194.476 C 294.869 196.752, 296.595 196.353, 300.747 192.681 C 305.989 188.046, 310.609 185.452, 316.932 183.595 C 326.785 180.701, 326 178.865, 326 204.800 C 326 221.200, 326.337 227.937, 327.200 228.800 C 328.648 230.248, 393.644 230.511, 395.907 229.078 C 396.940 228.425, 397.340 225.720, 397.407 218.926 L 397.500 209.665 403.227 208.361 C 414.251 205.851, 428.420 196.845, 427.805 192.740 C 427.178 188.551, 424.558 188.409, 419.803 192.305 C 414.749 196.447, 406.301 200.536, 400.701 201.552 L 396.902 202.241 397.060 180.997 C 397.187 164.048, 396.944 159.579, 395.859 158.892 C 395.112 158.418, 379.593 158.024, 361.372 158.015 C 335.505 158.003, 328.010 158.283, 327.173 159.292 M 333.193 170.119 L 333.500 174.238 340.968 176.129 C 349.955 178.405, 357.764 182.906, 363.360 189.035 C 369.014 195.227, 373.118 197.935, 380.181 200.133 C 390.741 203.420, 390 204.637, 390 184 L 390 166 361.443 166 L 332.885 166 333.193 170.119 M 333 201.889 L 333 222 361.548 222 L 390.095 222 389.798 215.750 C 389.505 209.615, 389.445 209.494, 386.500 209.201 C 376.722 208.228, 367.053 203.302, 359.072 195.230 C 352.437 188.519, 344.150 183.774, 336.750 182.449 L 333 181.777 333 201.889 M 58.607 219.250 C 64.446 230.938, 69.398 240.688, 69.612 240.917 C 69.825 241.146, 70 231.583, 70 219.667 L 70 198 58.995 198 L 47.991 198 58.607 219.250 M 223.627 199.468 C 215.862 202.236, 207.901 211.144, 206.394 218.750 L 205.750 222 233.375 222 C 255.801 222, 261 221.748, 261 220.660 C 261 217.506, 254.628 206.873, 251.031 204.024 C 243.709 198.226, 232.392 196.344, 223.627 199.468 M 206 231.304 C 206 232.021, 207.165 234.945, 208.588 237.801 C 213.413 247.484, 222.784 253.076, 233.928 252.924 C 240.576 252.833, 244.395 251.545, 250.184 247.439 C 254.199 244.592, 258.762 237.843, 260.454 232.250 L 261.135 230 233.567 230 C 211.575 230, 206 230.264, 206 231.304 " stroke="none" fill="black" fill-rule="evenodd"/>
</svg>