<svg xmlns="http://www.w3.org/2000/svg" width="244" height="324" viewBox="0 0 244 324" version="1.1">
	<path d="M 39.571 127.571 C 38.176 128.966, 38 136.152, 38 191.571 L 38 254 23.571 254 C 11.788 254, 8.855 254.288, 7.571 255.571 C 5.598 257.545, 5.598 258.455, 7.571 260.429 C 8.936 261.793, 13.463 262, 42 262 C 70.537 262, 75.064 261.793, 76.429 260.429 C 77.293 259.564, 78 258.471, 78 258 C 78 257.529, 77.293 256.436, 76.429 255.571 C 75.145 254.288, 72.212 254, 60.429 254 L 46 254 46 191.571 C 46 136.152, 45.824 128.966, 44.429 127.571 C 43.564 126.707, 42.471 126, 42 126 C 41.529 126, 40.436 126.707, 39.571 127.571 M 222.582 135.250 C 208.470 149.623, 201.023 165.039, 198.732 184.621 C 195.832 209.404, 204.268 233.097, 222.662 251.831 C 232.200 261.545, 234.880 262.797, 237.398 258.712 C 238.339 257.185, 237.507 256.034, 231.718 250.846 C 220.241 240.561, 211.611 226.545, 207.888 212.144 C 205.198 201.739, 205.200 185.315, 207.892 174.864 C 211.610 160.437, 220.615 145.765, 231.542 136.331 C 237.019 131.602, 238.031 129.431, 235.800 127.200 C 233.503 124.903, 231.607 126.057, 222.582 135.250 M 130.344 158.988 C 120.010 161.166, 109.930 169.366, 105.417 179.266 C 101.361 188.161, 101.361 198.839, 105.417 207.734 C 108.868 215.303, 115.786 222.097, 123.762 225.749 C 131.433 229.260, 141.846 229.363, 150.469 226.012 C 157.625 223.231, 165.439 215.866, 169.049 208.500 C 171.153 204.207, 171.500 202.086, 171.500 193.500 C 171.500 181.464, 169.483 176.393, 161.518 168.404 C 153.736 160.597, 140.983 156.745, 130.344 158.988 M 127.385 167.617 C 112.729 172.815, 105.477 191.530, 112.588 205.801 C 117.413 215.484, 126.784 221.076, 137.928 220.924 C 148.142 220.784, 156.647 215.739, 161.500 206.939 C 164.130 202.171, 164.500 200.513, 164.500 193.500 C 164.500 186.487, 164.130 184.829, 161.500 180.061 C 158.429 174.492, 152.651 169.526, 146.684 167.326 C 142.298 165.709, 132.343 165.859, 127.385 167.617 " stroke="none" fill="black" fill-rule="evenodd"/>
</svg>