<svg xmlns="http://www.w3.org/2000/svg" width="372" height="324" viewBox="0 0 372 324" version="1.1">
	<path d="M 295.921 63.250 C 295.284 63.938, 287.729 78.450, 279.132 95.500 L 263.500 126.500 259.270 127.194 C 244.879 129.557, 233.781 140.933, 230.966 156.206 C 230.057 161.140, 230.255 163.421, 232.425 173.054 L 234.935 184.196 232.467 189.065 C 231.110 191.743, 230 194.141, 230 194.395 C 230 196.026, 233.711 198.005, 236.821 198.033 C 240.308 198.064, 240.641 198.365, 243.186 203.783 C 244.663 206.927, 246.899 211.205, 248.155 213.289 L 250.438 217.079 240.219 237.546 C 234.599 248.802, 230 258.203, 230 258.435 C 230 258.667, 230.707 259.564, 231.571 260.429 C 232.968 261.825, 240.372 262, 298 262 C 355.628 262, 363.032 261.825, 364.429 260.429 C 365.293 259.564, 366 258.660, 366 258.419 C 366 258.179, 361.280 248.551, 355.512 237.024 L 345.024 216.066 348.570 210.016 C 350.520 206.688, 352.584 202.623, 353.156 200.983 C 354.094 198.292, 354.619 198, 358.526 198 C 362.452 198, 366.088 196.129, 365.953 194.179 C 365.927 193.805, 364.653 191.080, 363.121 188.122 L 360.336 182.743 362.236 175.122 C 363.281 170.930, 364.157 164.575, 364.183 161 C 364.300 145.164, 352.935 130.855, 337.616 127.549 L 332.500 126.445 316.868 95.473 C 301.424 64.872, 299.805 62, 298 62 C 297.493 62, 296.558 62.563, 295.921 63.250 M 284.670 100.647 C 271.817 126.376, 271.312 127.932, 275.790 127.985 C 277.726 128.008, 284.338 131.572, 287.714 134.413 L 290.695 136.921 292.995 132.011 C 296.544 124.434, 299.292 124.305, 302.812 131.549 L 304.985 136.023 309.065 133.068 C 311.309 131.443, 315.474 129.352, 318.322 128.422 C 321.170 127.491, 323.637 126.617, 323.804 126.478 C 324.242 126.114, 298.620 75, 298 75 C 297.715 75, 291.716 86.541, 284.670 100.647 M 67 126.637 C 48.809 129.293, 36.056 135.793, 24.287 148.406 C 13.970 159.463, 8.274 172.337, 6.503 188.598 C 5.964 193.549, 6.150 195.007, 7.491 196.348 C 9.547 198.404, 10.439 198.418, 12.429 196.429 C 13.404 195.453, 14.006 193.082, 14.015 190.179 C 14.091 166.127, 34.559 141.323, 59.103 135.537 C 62.621 134.708, 66.513 134.023, 67.750 134.015 L 70 134 70 194 L 70 254 55.571 254 C 43.788 254, 40.855 254.288, 39.571 255.571 C 37.598 257.545, 37.598 258.455, 39.571 260.429 C 40.936 261.793, 45.463 262, 74 262 C 102.537 262, 107.064 261.793, 108.429 260.429 C 110.402 258.455, 110.402 257.545, 108.429 255.571 C 107.145 254.288, 104.212 254, 92.429 254 L 78 254 78 194 C 78 137.518, 78.103 134.001, 79.750 134.015 C 80.713 134.023, 84.379 134.708, 87.897 135.537 C 112.441 141.323, 132.909 166.127, 132.985 190.179 C 133.011 198.191, 132.245 198, 164.274 198 L 192.405 198 179.202 211.333 C 171.941 218.666, 166 225.159, 166 225.761 C 166 227.187, 168.825 230, 170.257 230 C 172.006 230, 206 195.761, 206 194 C 206 192.239, 172.006 158, 170.257 158 C 168.825 158, 166 160.813, 166 162.239 C 166 162.841, 171.949 169.342, 179.219 176.684 L 192.439 190.035 166.469 189.767 L 140.500 189.500 139.873 184.500 C 136.214 155.307, 112.208 131.347, 82.284 127.020 C 75.515 126.042, 71.729 125.947, 67 126.637 M 255.054 135.728 C 252.517 136.623, 248.606 139.299, 245.948 141.957 C 239.749 148.156, 237.517 154.699, 238.323 164.310 C 238.646 168.160, 239.278 171.678, 239.729 172.129 C 240.180 172.580, 244.924 164.186, 250.271 153.475 C 255.618 142.764, 259.882 134.036, 259.747 134.079 C 259.611 134.122, 257.499 134.864, 255.054 135.728 M 255.405 159.250 C 244.006 182.112, 242.917 184.760, 243.883 187.250 C 244.944 189.983, 245.010 190, 254.471 190 L 263.992 190 275.614 166.772 L 287.237 143.544 283.523 140.333 C 280.115 137.387, 272.518 134, 269.319 134 C 268.587 134, 262.362 145.297, 255.405 159.250 M 319.437 135.600 C 317.203 136.393, 313.828 138.343, 311.937 139.934 L 308.500 142.826 320.266 166.450 L 332.032 190.075 341.266 189.787 L 350.500 189.500 351.370 185.981 C 352.175 182.726, 351.335 180.654, 340.116 158.231 C 326.758 131.534, 327.771 132.642, 319.437 135.600 M 337 135.443 C 337 135.761, 341.136 144.229, 346.191 154.261 C 354.614 170.977, 355.439 172.249, 356.072 169.500 C 358.954 156.992, 354.598 144.631, 345.169 138.558 C 341.356 136.102, 337 134.441, 337 135.443 M 296.500 141 C 296.151 142.100, 296.177 143.983, 296.558 145.184 C 297.243 147.340, 297.269 147.334, 298.621 144.754 C 299.963 142.193, 299.596 139, 297.960 139 C 297.506 139, 296.849 139.900, 296.500 141 M 303.028 153.426 C 302.463 154.913, 302 157.644, 302 159.494 C 302 168.158, 293.095 167.849, 292.930 159.179 C 292.738 149.147, 291.823 150.412, 275.080 183.861 L 258.882 216.223 261.691 220.344 C 266.218 226.986, 280.890 241.067, 289.288 246.829 L 297.055 252.158 301.393 249.615 C 309.469 244.883, 321.804 233.957, 329.364 224.840 L 336.889 215.765 320.833 183.633 C 312.003 165.960, 304.616 151.325, 304.417 151.111 C 304.218 150.898, 303.593 151.939, 303.028 153.426 M 249.539 200.123 C 250.319 202.581, 254.125 209.226, 254.504 208.793 C 254.644 208.632, 255.946 206.137, 257.397 203.250 L 260.034 198 254.449 198 C 249.212 198, 248.907 198.132, 249.539 200.123 M 338.606 203.209 L 341.246 208.419 343.578 203.959 C 344.860 201.507, 345.930 199.162, 345.955 198.750 C 345.980 198.338, 343.742 198, 340.983 198 L 335.966 198 338.606 203.209 M 334.228 230.462 C 328.589 237.220, 319.093 246.100, 311.499 251.718 L 308.500 253.937 332.256 253.968 L 356.013 254 348.393 238.750 C 344.203 230.363, 340.690 223.402, 340.587 223.283 C 340.484 223.164, 337.623 226.395, 334.228 230.462 M 247.585 238.830 L 239.987 254 263.194 254 C 275.957 254, 285.972 253.631, 285.450 253.179 C 284.928 252.728, 281.575 250.077, 278 247.288 C 271.441 242.170, 262.659 233.379, 257.814 227.080 L 255.183 223.660 247.585 238.830 " stroke="none" fill="black" fill-rule="evenodd"/>
</svg>