<svg xmlns="http://www.w3.org/2000/svg" width="468" height="324" viewBox="0 0 468 324" version="1.1">
	<path d="M 61.500 127.401 C 33.768 132.749, 12.382 154.339, 7.416 182 C 5.648 191.847, 5.677 194.535, 7.571 196.429 C 10.917 199.774, 14 196.758, 14 190.139 C 14 183.494, 16.422 174.744, 20.670 166.046 C 25.647 155.857, 35.857 145.647, 46.046 140.670 C 53.472 137.044, 63.357 134, 67.710 134 L 70 134 70 194 L 70 254 55.571 254 C 43.788 254, 40.855 254.288, 39.571 255.571 C 37.598 257.545, 37.598 258.455, 39.571 260.429 C 40.936 261.793, 45.463 262, 74 262 C 102.537 262, 107.064 261.793, 108.429 260.429 C 110.402 258.455, 110.402 257.545, 108.429 255.571 C 107.145 254.288, 104.212 254, 92.429 254 L 78 254 78 194 C 78 137.014, 78.090 134, 79.790 134 C 83.679 134, 93.877 137.214, 100.954 140.670 C 111.143 145.647, 121.353 155.857, 126.330 166.046 C 130.578 174.744, 133 183.494, 133 190.139 C 133 198.197, 132.216 198, 164.274 198 L 192.405 198 179.202 211.333 C 171.941 218.666, 166 225.159, 166 225.761 C 166 227.187, 168.825 230, 170.257 230 C 172.006 230, 206 195.761, 206 194 C 206 192.239, 172.006 158, 170.257 158 C 168.825 158, 166 160.813, 166 162.239 C 166 162.841, 171.941 169.334, 179.202 176.667 L 192.405 190 166.770 190 C 137.910 190, 140.759 190.888, 139.495 181.500 C 136.359 158.197, 114.738 134.824, 90.500 128.533 C 81.877 126.295, 69.699 125.820, 61.500 127.401 M 295.200 127.200 C 294.292 128.108, 294 143.689, 294 191.200 L 294 254 263.571 254 C 237.242 254, 232.931 254.212, 231.571 255.571 C 229.598 257.545, 229.598 258.455, 231.571 260.429 C 232.968 261.825, 240.372 262, 298 262 C 355.628 262, 363.032 261.825, 364.429 260.429 C 365.293 259.564, 366 258.471, 366 258 C 366 257.529, 365.293 256.436, 364.429 255.571 C 363.069 254.212, 358.758 254, 332.429 254 L 302 254 302 226 L 302 198 332.800 198 C 355.422 198, 363.919 197.681, 364.800 196.800 C 366.519 195.081, 366.519 128.919, 364.800 127.200 C 363.081 125.481, 296.919 125.481, 295.200 127.200 M 423.571 127.571 C 422.288 128.855, 422 131.788, 422 143.571 L 422 158 407.571 158 C 395.788 158, 392.855 158.288, 391.571 159.571 C 389.598 161.545, 389.598 162.455, 391.571 164.429 C 392.855 165.712, 395.788 166, 407.571 166 L 422 166 422 212.429 C 422 253.303, 422.188 259.045, 423.571 260.429 C 424.436 261.293, 425.529 262, 426 262 C 426.471 262, 427.564 261.293, 428.429 260.429 C 429.812 259.045, 430 253.303, 430 212.429 L 430 166 444.429 166 C 456.212 166, 459.145 165.712, 460.429 164.429 C 462.402 162.455, 462.402 161.545, 460.429 159.571 C 459.145 158.288, 456.212 158, 444.429 158 L 430 158 430 143.571 C 430 131.788, 429.712 128.855, 428.429 127.571 C 427.564 126.707, 426.471 126, 426 126 C 425.529 126, 424.436 126.707, 423.571 127.571 M 302 162 L 302 190 330 190 L 358 190 358 162 L 358 134 330 134 L 302 134 302 162 " stroke="none" fill="black" fill-rule="evenodd"/>
</svg>