<svg xmlns="http://www.w3.org/2000/svg" width="468" height="324" viewBox="0 0 468 324" version="1.1">
	<path d="M 391.921 63.250 C 391.284 63.938, 383.729 78.450, 375.132 95.500 L 359.500 126.500 355.045 127.233 C 345.063 128.875, 334.883 136.429, 330.151 145.705 C 329.055 147.852, 327.656 152.384, 327.041 155.777 C 326.048 161.247, 326.205 163.202, 328.428 173.070 L 330.935 184.196 328.467 189.065 C 327.110 191.743, 326 194.141, 326 194.395 C 326 195.971, 329.650 198, 332.485 198 C 335.606 198, 336.084 198.478, 339.742 205.250 C 341.896 209.238, 344.293 213.512, 345.069 214.748 C 346.377 216.835, 345.741 218.475, 336.240 237.505 C 330.608 248.784, 326 258.203, 326 258.435 C 326 258.667, 326.707 259.564, 327.571 260.429 C 328.968 261.825, 336.372 262, 394 262 C 451.628 262, 459.032 261.825, 460.429 260.429 C 461.293 259.564, 462 258.660, 462 258.419 C 462 258.179, 457.288 248.565, 451.528 237.056 L 441.056 216.131 445.521 208.316 C 447.976 204.017, 449.988 199.938, 449.993 199.250 C 449.997 198.439, 451.556 198, 454.429 198 C 458.450 198, 462.090 196.151, 461.953 194.179 C 461.927 193.805, 460.663 191.101, 459.144 188.168 L 456.383 182.836 458.692 172.668 C 460.274 165.702, 460.803 161.083, 460.370 158 C 458.216 142.645, 447.605 130.568, 433.616 127.549 L 428.500 126.445 412.868 95.473 C 397.424 64.872, 395.805 62, 394 62 C 393.493 62, 392.558 62.563, 391.921 63.250 M 380.670 100.647 C 367.817 126.376, 367.312 127.932, 371.790 127.985 C 373.726 128.008, 380.338 131.572, 383.714 134.413 L 386.695 136.921 388.995 132.011 C 392.544 124.434, 395.292 124.305, 398.812 131.549 L 400.985 136.023 405.065 133.068 C 407.309 131.443, 411.474 129.352, 414.322 128.422 C 417.170 127.491, 419.637 126.617, 419.804 126.478 C 420.242 126.114, 394.620 75, 394 75 C 393.715 75, 387.716 86.541, 380.670 100.647 M 183.213 111.315 C 173.746 120.838, 166 129.131, 166 129.743 C 166 131.175, 168.813 134, 170.239 134 C 170.841 134, 177.334 128.059, 184.667 120.798 L 198 107.595 198 135.226 C 198 159.012, 198.219 163.076, 199.571 164.429 C 200.436 165.293, 201.529 166, 202 166 C 202.471 166, 203.564 165.293, 204.429 164.429 C 205.781 163.076, 206 159.012, 206 135.226 L 206 107.595 219.333 120.798 C 226.666 128.059, 233.159 134, 233.761 134 C 235.187 134, 238 131.175, 238 129.743 C 238 127.994, 203.761 94, 202 94 C 201.134 94, 192.680 101.792, 183.213 111.315 M 39.571 127.571 C 38.176 128.966, 38 136.152, 38 191.571 L 38 254 23.571 254 C 11.788 254, 8.855 254.288, 7.571 255.571 C 5.598 257.545, 5.598 258.455, 7.571 260.429 C 8.936 261.793, 13.463 262, 42 262 C 70.537 262, 75.064 261.793, 76.429 260.429 C 77.293 259.564, 78 258.471, 78 258 C 78 257.529, 77.293 256.436, 76.429 255.571 C 75.145 254.288, 72.212 254, 60.429 254 L 46 254 46 191.571 C 46 136.152, 45.824 128.966, 44.429 127.571 C 43.564 126.707, 42.471 126, 42 126 C 41.529 126, 40.436 126.707, 39.571 127.571 M 351.405 159.250 C 340.006 182.112, 338.917 184.760, 339.883 187.250 C 340.944 189.983, 341.010 190, 350.471 190 L 359.992 190 371.614 166.772 L 383.237 143.544 379.523 140.333 C 376.115 137.387, 368.518 134, 365.319 134 C 364.587 134, 358.362 145.297, 351.405 159.250 M 415.437 135.600 C 413.203 136.393, 409.828 138.343, 407.937 139.934 L 404.500 142.826 416.266 166.450 L 428.032 190.075 437.266 189.787 L 446.500 189.500 447.370 185.981 C 448.175 182.726, 447.335 180.654, 436.116 158.231 C 422.758 131.534, 423.771 132.642, 415.437 135.600 M 348.230 137.115 C 338.564 141.900, 333.274 152.280, 334.389 164.274 C 334.746 168.112, 335.327 171.720, 335.680 172.292 C 336.223 173.169, 354.791 137.952, 354.947 135.750 C 355.039 134.445, 352.639 134.933, 348.230 137.115 M 433 135.443 C 433 135.761, 437.134 144.229, 442.187 154.261 L 451.374 172.500 452.129 168.500 C 454.579 155.533, 450.585 144.623, 441.169 138.558 C 437.356 136.102, 433 134.441, 433 135.443 M 392.500 141 C 392.151 142.100, 392.177 143.983, 392.558 145.184 C 393.243 147.340, 393.269 147.334, 394.621 144.754 C 395.963 142.193, 395.596 139, 393.960 139 C 393.506 139, 392.849 139.900, 392.500 141 M 399.097 153.315 C 398.494 154.863, 398 157.644, 398 159.494 C 398 168.158, 389.095 167.849, 388.930 159.179 C 388.738 149.147, 387.823 150.412, 371.080 183.861 L 354.882 216.223 357.691 220.306 C 362.332 227.052, 376.996 241.148, 385.282 246.829 L 393.055 252.158 397.520 249.541 C 404.647 245.364, 418.028 233.727, 424 226.510 C 433.882 214.569, 434.749 219.522, 416.335 182.740 C 401.027 152.163, 400.138 150.645, 399.097 153.315 M 119.315 175.213 C 109.792 184.680, 102 193.134, 102 194 C 102 195.761, 135.994 230, 137.743 230 C 139.175 230, 142 227.187, 142 225.761 C 142 225.159, 136.059 218.666, 128.798 211.333 L 115.595 198 143.226 198 C 167.012 198, 171.076 197.781, 172.429 196.429 C 174.402 194.455, 174.402 193.545, 172.429 191.571 C 171.076 190.219, 167.012 190, 143.226 190 L 115.595 190 128.798 176.667 C 136.059 169.334, 142 162.841, 142 162.239 C 142 160.813, 139.175 158, 137.743 158 C 137.131 158, 128.838 165.746, 119.315 175.213 M 263.571 159.571 C 262.707 160.436, 262 161.636, 262 162.239 C 262 162.841, 267.941 169.334, 275.202 176.667 L 288.405 190 260.774 190 C 236.988 190, 232.924 190.219, 231.571 191.571 C 229.598 193.545, 229.598 194.455, 231.571 196.429 C 232.924 197.781, 236.988 198, 260.774 198 L 288.405 198 275.202 211.333 C 267.941 218.666, 262 225.159, 262 225.761 C 262 227.187, 264.825 230, 266.257 230 C 268.006 230, 302 195.761, 302 194 C 302 192.239, 268.006 158, 266.257 158 C 265.644 158, 264.436 158.707, 263.571 159.571 M 345 198.533 C 345 199.497, 350.127 209.207, 350.447 208.849 C 350.619 208.657, 351.946 206.137, 353.397 203.250 L 356.034 198 350.517 198 C 347.483 198, 345 198.240, 345 198.533 M 434.606 203.209 L 437.246 208.419 439.578 203.959 C 440.860 201.507, 441.930 199.162, 441.955 198.750 C 441.980 198.338, 439.742 198, 436.983 198 L 431.966 198 434.606 203.209 M 199.571 223.571 C 198.219 224.924, 198 228.988, 198 252.774 L 198 280.405 184.667 267.202 C 177.334 259.941, 170.841 254, 170.239 254 C 168.813 254, 166 256.825, 166 258.257 C 166 260.006, 200.239 294, 202 294 C 203.761 294, 238 260.006, 238 258.257 C 238 256.825, 235.187 254, 233.761 254 C 233.159 254, 226.666 259.941, 219.333 267.202 L 206 280.405 206 252.774 C 206 228.988, 205.781 224.924, 204.429 223.571 C 203.564 222.707, 202.471 222, 202 222 C 201.529 222, 200.436 222.707, 199.571 223.571 M 430.228 230.462 C 424.589 237.220, 415.093 246.100, 407.499 251.718 L 404.500 253.937 428.256 253.968 L 452.013 254 444.393 238.750 C 440.203 230.363, 436.690 223.402, 436.587 223.283 C 436.484 223.164, 433.623 226.395, 430.228 230.462 M 343.509 238.982 L 335.987 254 359.194 254 C 371.957 254, 381.972 253.631, 381.450 253.179 C 380.928 252.728, 377.575 250.063, 374 247.257 C 367.636 242.262, 360.528 235.254, 354.200 227.732 L 351.030 223.965 343.509 238.982 " stroke="none" fill="black" fill-rule="evenodd"/>
</svg>