<svg xmlns="http://www.w3.org/2000/svg" width="308" height="324" viewBox="0 0 308 324" version="1.1">
	<path d="M 230.612 64.250 C 229.823 65.487, 214.852 95.187, 197.343 130.249 C 171.098 182.805, 165.702 194.305, 166.612 195.749 C 167.559 197.253, 169.636 197.539, 181.357 197.778 C 188.861 197.931, 195 198.267, 195 198.524 C 195 198.781, 188.365 212.269, 180.257 228.498 C 168.169 252.690, 165.712 258.320, 166.616 259.752 C 167.647 261.387, 171.973 261.500, 233.500 261.500 C 295.027 261.500, 299.353 261.387, 300.384 259.752 C 301.288 258.320, 298.831 252.690, 286.743 228.498 C 278.635 212.269, 272 198.781, 272 198.524 C 272 198.267, 278.139 197.931, 285.643 197.778 C 297.357 197.539, 299.441 197.253, 300.387 195.751 C 301.294 194.310, 295.846 182.670, 269.497 129.751 C 251.901 94.413, 236.872 64.713, 236.097 63.750 C 234.192 61.380, 232.333 61.550, 230.612 64.250 M 224.568 92.250 C 220.007 101.737, 207.212 127.612, 196.135 149.750 L 175.995 190 187.755 190 L 199.515 190 215.274 158.462 C 223.942 141.116, 231.707 126.666, 232.530 126.350 C 233.352 126.035, 234.583 126.239, 235.265 126.805 C 235.947 127.371, 243.467 141.822, 251.975 158.917 L 267.444 190 279.222 190 C 285.700 190, 291 189.773, 291 189.497 C 291 188.429, 233.966 75, 233.429 75 C 233.117 75, 229.129 82.763, 224.568 92.250 M 7.571 127.571 C 6.175 128.968, 6 136.372, 6 194 C 6 251.628, 6.175 259.032, 7.571 260.429 C 8.968 261.825, 16.343 261.998, 73.821 261.985 C 109.395 261.976, 139.072 261.606, 139.772 261.162 C 141.639 259.977, 141.639 128.023, 139.772 126.838 C 139.072 126.394, 109.395 126.024, 73.821 126.015 C 16.343 126.002, 8.968 126.175, 7.571 127.571 M 14 194 L 14 254 42 254 L 70 254 70 194 L 70 134 42 134 L 14 134 14 194 M 78 194 L 78 254 106 254 L 134 254 134 194 L 134 134 106 134 L 78 134 78 194 M 204.785 196.250 L 176.377 253.500 233.347 253.758 C 264.680 253.900, 290.496 253.837, 290.715 253.618 C 291.151 253.182, 234.248 139, 233.594 139 C 233.373 139, 220.409 164.762, 204.785 196.250 " stroke="none" fill="black" fill-rule="evenodd"/>
</svg>