<svg xmlns="http://www.w3.org/2000/svg" width="180" height="324" viewBox="0 0 180 324" version="1.1">
	<path d="M 39.571 127.571 C 38.207 128.935, 38 133.425, 38 161.577 L 38 194.012 22 226 C 13.200 243.593, 6 258.183, 6 258.423 C 6 258.662, 6.707 259.564, 7.571 260.429 C 8.936 261.793, 13.463 262, 42 262 C 70.537 262, 75.064 261.793, 76.429 260.429 C 77.293 259.564, 78 258.662, 78 258.423 C 78 258.183, 70.800 243.593, 62 226 L 46 194.012 46 161.577 C 46 133.425, 45.793 128.935, 44.429 127.571 C 43.564 126.707, 42.471 126, 42 126 C 41.529 126, 40.436 126.707, 39.571 127.571 M 111.308 199.308 C 106.188 204.427, 102 209.120, 102 209.736 C 102 211.121, 104.789 214, 106.131 214 C 106.675 214, 109.568 211.685, 112.560 208.855 L 118 203.710 118 228.855 L 118 254 111.571 254 C 107.061 254, 104.674 254.469, 103.571 255.571 C 101.598 257.545, 101.598 258.455, 103.571 260.429 C 104.876 261.733, 108.009 262, 122 262 C 135.991 262, 139.124 261.733, 140.429 260.429 C 142.402 258.455, 142.402 257.545, 140.429 255.571 C 139.326 254.469, 136.939 254, 132.429 254 L 126 254 126 223.571 C 126 197.242, 125.788 192.931, 124.429 191.571 C 123.564 190.707, 122.353 190, 121.736 190 C 121.120 190, 116.427 194.188, 111.308 199.308 M 28.743 228.500 L 16.005 254 42 254 L 67.995 254 55.257 228.500 C 48.250 214.475, 42.285 203, 42 203 C 41.715 203, 35.750 214.475, 28.743 228.500 M 167.571 255.571 C 166.707 256.436, 166 257.529, 166 258 C 166 259.111, 168.889 262, 170 262 C 171.111 262, 174 259.111, 174 258 C 174 256.889, 171.111 254, 170 254 C 169.529 254, 168.436 254.707, 167.571 255.571 " stroke="none" fill="black" fill-rule="evenodd"/>
</svg>