<svg xmlns="http://www.w3.org/2000/svg" width="372" height="324" viewBox="0 0 372 324" version="1.1">
	<path d="M 7.571 127.571 C 6.175 128.968, 6 136.372, 6 194 C 6 251.628, 6.175 259.032, 7.571 260.429 C 8.936 261.793, 13.463 262, 42 262 C 70.537 262, 75.064 261.793, 76.429 260.429 C 77.825 259.032, 78 251.628, 78 194 C 78 136.372, 77.825 128.968, 76.429 127.571 C 75.064 126.207, 70.537 126, 42 126 C 13.463 126, 8.936 126.207, 7.571 127.571 M 231.571 127.571 C 230.207 128.935, 230 133.425, 230 161.577 L 230 194.012 214.016 225.967 C 205.225 243.542, 198.285 258.580, 198.594 259.384 C 199.265 261.133, 201.512 262.124, 203.274 261.448 C 203.975 261.180, 211.056 247.919, 219.010 231.980 C 226.964 216.041, 233.710 203, 234 203 C 234.290 203, 241.036 216.041, 248.990 231.980 C 256.944 247.919, 264.025 261.180, 264.726 261.448 C 266.488 262.124, 268.735 261.133, 269.406 259.384 C 269.715 258.580, 262.775 243.542, 253.984 225.967 L 238 194.012 238 161.577 C 238 133.425, 237.793 128.935, 236.429 127.571 C 235.564 126.707, 234.471 126, 234 126 C 233.529 126, 232.436 126.707, 231.571 127.571 M 327.571 127.571 C 326.288 128.855, 326 131.788, 326 143.571 L 326 158 311.571 158 C 299.788 158, 296.855 158.288, 295.571 159.571 C 293.598 161.545, 293.598 162.455, 295.571 164.429 C 296.855 165.712, 299.788 166, 311.571 166 L 326 166 326 212.429 C 326 253.303, 326.188 259.045, 327.571 260.429 C 328.436 261.293, 329.529 262, 330 262 C 330.471 262, 331.564 261.293, 332.429 260.429 C 333.812 259.045, 334 253.303, 334 212.429 L 334 166 348.429 166 C 360.212 166, 363.145 165.712, 364.429 164.429 C 366.402 162.455, 366.402 161.545, 364.429 159.571 C 363.145 158.288, 360.212 158, 348.429 158 L 334 158 334 143.571 C 334 131.788, 333.712 128.855, 332.429 127.571 C 331.564 126.707, 330.471 126, 330 126 C 329.529 126, 328.436 126.707, 327.571 127.571 M 14 194 L 14 254 42 254 L 70 254 70 194 L 70 134 42 134 L 14 134 14 194 M 130.223 159.062 C 120.045 161.068, 109.996 169.411, 105.216 179.825 C 101.512 187.894, 101.512 199.106, 105.216 207.175 C 115.614 229.828, 143.328 235.643, 161.420 218.967 C 181.946 200.047, 172.603 165.823, 145.147 159.360 C 138.857 157.880, 136.464 157.832, 130.223 159.062 M 127.054 167.728 C 121.018 169.859, 113.781 177.260, 111.667 183.463 C 105.215 202.399, 118.016 221, 137.500 221 C 145.295 221, 151.452 218.453, 156.952 212.952 C 164.640 205.265, 167.036 194.330, 163.382 183.608 C 161.237 177.311, 153.689 169.763, 147.392 167.618 C 141.504 165.612, 132.916 165.658, 127.054 167.728 " stroke="none" fill="black" fill-rule="evenodd"/>
</svg>