<svg xmlns="http://www.w3.org/2000/svg" width="468" height="324" viewBox="0 0 468 324" version="1.1">
	<path d="M 232.369 62.765 C 231.416 63.384, 166 193.155, 166 194.426 C 166 194.663, 166.707 195.564, 167.571 196.429 C 168.844 197.701, 171.697 198, 182.575 198 L 196.006 198 181.003 227.994 C 172.751 244.490, 166 258.183, 166 258.422 C 166 258.661, 166.707 259.564, 167.571 260.429 C 168.968 261.825, 176.372 262, 234 262 C 291.628 262, 299.032 261.825, 300.429 260.429 C 301.293 259.564, 302 258.661, 302 258.422 C 302 258.183, 295.249 244.490, 286.997 227.994 L 271.994 198 285.425 198 C 296.303 198, 299.156 197.701, 300.429 196.429 C 301.293 195.564, 302 194.663, 302 194.426 C 302 193.155, 236.584 63.384, 235.631 62.765 C 235.009 62.361, 234.275 62.031, 234 62.031 C 233.725 62.031, 232.991 62.361, 232.369 62.765 M 204.747 132.500 L 176.002 190 188.003 190 L 200.004 190 215.736 158.517 C 224.389 141.202, 232.038 126.816, 232.734 126.549 C 233.430 126.281, 234.570 126.281, 235.266 126.549 C 235.962 126.816, 243.611 141.202, 252.264 158.517 L 267.996 190 279.997 190 L 291.998 190 263.253 132.500 C 247.443 100.875, 234.279 75, 234 75 C 233.721 75, 220.557 100.875, 204.747 132.500 M 7.571 127.571 C 6.175 128.968, 6 136.372, 6 194 C 6 251.628, 6.175 259.032, 7.571 260.429 C 8.968 261.825, 16.372 262, 74 262 C 131.628 262, 139.032 261.825, 140.429 260.429 C 141.825 259.032, 142 251.628, 142 194 C 142 136.372, 141.825 128.968, 140.429 127.571 C 139.032 126.175, 131.628 126, 74 126 C 16.372 126, 8.968 126.175, 7.571 127.571 M 359.571 127.571 C 358.175 128.968, 358 136.372, 358 194 C 358 251.628, 358.175 259.032, 359.571 260.429 C 360.436 261.293, 361.529 262, 362 262 C 362.471 262, 363.564 261.293, 364.429 260.429 C 365.825 259.032, 366 251.628, 366 194 C 366 136.372, 365.825 128.968, 364.429 127.571 C 363.564 126.707, 362.471 126, 362 126 C 361.529 126, 360.436 126.707, 359.571 127.571 M 423.571 127.571 C 422.288 128.855, 422 131.788, 422 143.571 L 422 158 407.571 158 C 395.788 158, 392.855 158.288, 391.571 159.571 C 389.598 161.545, 389.598 162.455, 391.571 164.429 C 392.855 165.712, 395.788 166, 407.571 166 L 422 166 422 212.429 C 422 253.303, 422.188 259.045, 423.571 260.429 C 424.436 261.293, 425.529 262, 426 262 C 426.471 262, 427.564 261.293, 428.429 260.429 C 429.812 259.045, 430 253.303, 430 212.429 L 430 166 444.429 166 C 456.212 166, 459.145 165.712, 460.429 164.429 C 462.402 162.455, 462.402 161.545, 460.429 159.571 C 459.145 158.288, 456.212 158, 444.429 158 L 430 158 430 143.571 C 430 131.788, 429.712 128.855, 428.429 127.571 C 427.564 126.707, 426.471 126, 426 126 C 425.529 126, 424.436 126.707, 423.571 127.571 M 14 194 L 14 254 42 254 L 70 254 70 194 L 70 134 42 134 L 14 134 14 194 M 78 194 L 78 254 106 254 L 134 254 134 194 L 134 134 106 134 L 78 134 78 194 M 204.747 196.500 L 176.002 254 234 254 L 291.998 254 263.253 196.500 C 247.443 164.875, 234.279 139, 234 139 C 233.721 139, 220.557 164.875, 204.747 196.500 M 327.571 191.571 C 326.707 192.436, 326 193.529, 326 194 C 326 195.111, 328.889 198, 330 198 C 331.111 198, 334 195.111, 334 194 C 334 192.889, 331.111 190, 330 190 C 329.529 190, 328.436 190.707, 327.571 191.571 " stroke="none" fill="black" fill-rule="evenodd"/>
</svg>