<svg xmlns="http://www.w3.org/2000/svg" width="468" height="324" viewBox="0 0 468 324" version="1.1">
	<path d="M 232.369 62.765 C 231.416 63.384, 166 193.155, 166 194.426 C 166 194.663, 166.707 195.564, 167.571 196.429 C 168.844 197.701, 171.697 198, 182.575 198 L 196.006 198 181.003 227.994 C 172.751 244.490, 166 258.183, 166 258.422 C 166 258.661, 166.707 259.564, 167.571 260.429 C 168.968 261.825, 176.372 262, 234 262 C 291.628 262, 299.032 261.825, 300.429 260.429 C 301.293 259.564, 302 258.661, 302 258.422 C 302 258.183, 295.249 244.490, 286.997 227.994 L 271.994 198 285.425 198 C 296.303 198, 299.156 197.701, 300.429 196.429 C 301.293 195.564, 302 194.663, 302 194.426 C 302 193.155, 236.584 63.384, 235.631 62.765 C 235.009 62.361, 234.275 62.031, 234 62.031 C 233.725 62.031, 232.991 62.361, 232.369 62.765 M 204.747 132.500 L 176.002 190 188.003 190 L 200.004 190 215.736 158.517 C 224.389 141.202, 232.038 126.816, 232.734 126.549 C 233.430 126.281, 234.570 126.281, 235.266 126.549 C 235.962 126.816, 243.611 141.202, 252.264 158.517 L 267.996 190 279.997 190 L 291.998 190 263.253 132.500 C 247.443 100.875, 234.279 75, 234 75 C 233.721 75, 220.557 100.875, 204.747 132.500 M 7.571 127.571 C 6.175 128.968, 6 136.372, 6 194 C 6 251.628, 6.175 259.032, 7.571 260.429 C 8.968 261.825, 16.372 262, 74 262 C 131.628 262, 139.032 261.825, 140.429 260.429 C 141.825 259.032, 142 251.628, 142 194 C 142 136.372, 141.825 128.968, 140.429 127.571 C 139.032 126.175, 131.628 126, 74 126 C 16.372 126, 8.968 126.175, 7.571 127.571 M 391.750 127.057 C 390.788 127.630, 390 128.776, 390 129.602 C 390 130.428, 393.712 134.816, 398.250 139.353 C 413.729 154.828, 420.965 172.078, 420.965 193.500 C 420.965 214.922, 413.729 232.172, 398.250 247.647 C 389.859 256.037, 388.873 257.820, 391.447 259.956 C 394.548 262.530, 412.312 258.839, 424 253.193 C 434.580 248.082, 448.082 234.580, 453.193 224 C 458.463 213.091, 460.304 205.193, 460.304 193.500 C 460.304 181.743, 458.451 173.760, 453.222 163 C 448.078 152.413, 434.559 138.908, 424 133.807 C 412.528 128.265, 395.653 124.733, 391.750 127.057 M 14 194 L 14 254 42 254 L 70 254 70 194 L 70 134 42 134 L 14 134 14 194 M 78 194 L 78 254 106 254 L 134 254 134 194 L 134 134 106 134 L 78 134 78 194 M 409.990 141.155 C 416.409 149.084, 423.367 163.029, 426.132 173.500 C 429.075 184.651, 429.075 202.349, 426.132 213.500 C 423.367 223.971, 416.409 237.916, 409.990 245.845 L 404.854 252.191 408.177 251.541 C 410.005 251.183, 415.299 249.050, 419.942 246.802 C 430.670 241.606, 440.792 231.829, 446.243 221.397 C 461.782 191.659, 449.797 154.658, 419.942 140.198 C 415.299 137.950, 410.005 135.817, 408.177 135.459 L 404.854 134.809 409.990 141.155 M 204.747 196.500 L 176.002 254 234 254 L 291.998 254 263.253 196.500 C 247.443 164.875, 234.279 139, 234 139 C 233.721 139, 220.557 164.875, 204.747 196.500 M 343.571 159.571 C 342.324 160.819, 342 163.528, 342 172.716 L 342 184.290 336.560 179.145 C 333.568 176.315, 330.675 174, 330.131 174 C 328.829 174, 326 176.861, 326 178.178 C 326 178.747, 329.226 182.540, 333.169 186.607 L 340.338 194 333.169 201.393 C 329.226 205.460, 326 209.253, 326 209.822 C 326 211.139, 328.829 214, 330.131 214 C 330.675 214, 333.568 211.685, 336.560 208.855 L 342 203.710 342 215.284 C 342 224.472, 342.324 227.181, 343.571 228.429 C 345.545 230.402, 346.455 230.402, 348.429 228.429 C 349.676 227.181, 350 224.472, 350 215.284 L 350 203.710 355.440 208.855 C 358.432 211.685, 361.325 214, 361.869 214 C 363.171 214, 366 211.139, 366 209.822 C 366 209.253, 362.774 205.460, 358.831 201.393 L 351.662 194 358.831 186.607 C 362.774 182.540, 366 178.747, 366 178.178 C 366 176.861, 363.171 174, 361.869 174 C 361.325 174, 358.432 176.315, 355.440 179.145 L 350 184.290 350 172.716 C 350 163.528, 349.676 160.819, 348.429 159.571 C 347.564 158.707, 346.471 158, 346 158 C 345.529 158, 344.436 158.707, 343.571 159.571 " stroke="none" fill="black" fill-rule="evenodd"/>
</svg>