<svg xmlns="http://www.w3.org/2000/svg" width="196" height="324" viewBox="0 0 196 324" version="1.1">
	<path d="M 39.571 127.571 C 38.176 128.966, 38 136.152, 38 191.571 L 38 254 23.571 254 C 11.788 254, 8.855 254.288, 7.571 255.571 C 5.598 257.545, 5.598 258.455, 7.571 260.429 C 8.936 261.793, 13.463 262, 42 262 C 70.537 262, 75.064 261.793, 76.429 260.429 C 77.293 259.564, 78 258.471, 78 258 C 78 257.529, 77.293 256.436, 76.429 255.571 C 75.145 254.288, 72.212 254, 60.429 254 L 46 254 46 191.571 C 46 136.152, 45.824 128.966, 44.429 127.571 C 43.564 126.707, 42.471 126, 42 126 C 41.529 126, 40.436 126.707, 39.571 127.571 M 115.505 130.127 C 107.020 139.518, 102.568 155.778, 104.903 168.844 C 106.486 177.705, 110.715 186.650, 116.062 192.451 C 120.457 197.220, 122.896 198.035, 125.038 195.454 C 126.105 194.168, 125.958 193.452, 124.166 191.204 C 114.788 179.439, 112 172.518, 112 161 C 112 149.594, 114.083 144.311, 123.872 130.882 C 124.972 129.373, 124.998 128.702, 124 127.500 C 121.933 125.010, 119.428 125.784, 115.505 130.127 M 150.075 127.861 C 149.276 129.352, 149.971 130.989, 153.575 136.107 C 164.708 151.917, 164.654 170.741, 153.432 185.986 C 148.445 192.760, 148.108 195.336, 152.146 195.806 C 155.517 196.197, 160.559 190.269, 165.212 180.443 C 168.384 173.746, 168.500 173.058, 168.500 161 C 168.500 148.942, 168.384 148.254, 165.212 141.557 C 159.263 128.993, 152.664 123.023, 150.075 127.861 " stroke="none" fill="black" fill-rule="evenodd"/>
</svg>