<svg xmlns="http://www.w3.org/2000/svg" width="324" height="324" viewBox="0 0 324 324" version="1.1">
	<path d="M 39.571 127.571 C 38.207 128.935, 38 133.425, 38 161.577 L 38 194.012 22.016 225.967 C 13.225 243.542, 6.285 258.580, 6.594 259.384 C 7.265 261.133, 9.512 262.124, 11.274 261.448 C 11.975 261.180, 19.056 247.919, 27.010 231.980 C 34.964 216.041, 41.710 203, 42 203 C 42.290 203, 49.036 216.041, 56.990 231.980 C 64.944 247.919, 72.025 261.180, 72.726 261.448 C 74.486 262.124, 76.735 261.134, 77.404 259.390 C 77.711 258.589, 70.886 243.772, 62.237 226.463 L 46.511 194.993 76.256 165.249 L 106 135.504 135.744 165.249 L 165.489 194.993 149.744 226.501 C 141.085 243.830, 134 258.199, 134 258.433 C 134 258.666, 134.707 259.564, 135.571 260.429 C 136.936 261.793, 141.463 262, 170 262 C 198.537 262, 203.064 261.793, 204.429 260.429 C 205.293 259.564, 206 258.662, 206 258.423 C 206 258.183, 198.800 243.593, 190 226 L 174 194.012 174 161.577 C 174 133.425, 173.793 128.935, 172.429 127.571 C 171.564 126.707, 170.471 126, 170 126 C 169.529 126, 168.436 126.707, 167.571 127.571 C 166.219 128.924, 166 132.990, 166 156.799 L 166 184.455 136.711 155.227 C 120.602 139.152, 106.782 126, 106 126 C 105.218 126, 91.398 139.152, 75.289 155.227 L 46 184.455 46 156.799 C 46 132.990, 45.781 128.924, 44.429 127.571 C 43.564 126.707, 42.471 126, 42 126 C 41.529 126, 40.436 126.707, 39.571 127.571 M 243.544 130.220 C 232.997 142.542, 229.657 160.969, 235.102 176.796 C 239.828 190.532, 251.302 201.926, 253.484 195.049 C 253.924 193.665, 252.848 191.557, 249.777 187.787 C 242.421 178.756, 240.508 173.230, 240.504 161 C 240.500 151.326, 240.744 149.985, 243.603 143.953 C 245.309 140.352, 248.156 135.753, 249.930 133.733 C 252.231 131.112, 252.970 129.480, 252.510 128.030 C 251.414 124.577, 247.570 125.516, 243.544 130.220 M 279.250 126.662 C 277.097 127.531, 277.875 130.819, 281.293 135.297 C 287.709 143.703, 289.492 149.289, 289.496 161 C 289.500 170.674, 289.256 172.015, 286.397 178.047 C 284.691 181.648, 281.844 186.247, 280.070 188.267 C 276.345 192.510, 276.535 196, 280.489 196 C 285.892 196, 294.098 182.406, 296.715 169.122 C 298.182 161.677, 298.182 160.323, 296.715 152.878 C 294.862 143.471, 291.564 136.187, 286.456 130.220 C 282.955 126.129, 281.883 125.600, 279.250 126.662 M 103.571 159.571 C 102.324 160.819, 102 163.528, 102 172.716 L 102 184.290 96.560 179.145 C 93.568 176.315, 90.675 174, 90.131 174 C 88.829 174, 86 176.861, 86 178.178 C 86 178.747, 89.226 182.540, 93.169 186.607 L 100.338 194 93.169 201.393 C 89.226 205.460, 86 209.253, 86 209.822 C 86 211.139, 88.829 214, 90.131 214 C 90.675 214, 93.568 211.685, 96.560 208.855 L 102 203.710 102 215.284 C 102 224.472, 102.324 227.181, 103.571 228.429 C 105.545 230.402, 106.455 230.402, 108.429 228.429 C 109.676 227.181, 110 224.472, 110 215.284 L 110 203.710 115.440 208.855 C 118.432 211.685, 121.325 214, 121.869 214 C 123.171 214, 126 211.139, 126 209.822 C 126 209.253, 122.774 205.460, 118.831 201.393 L 111.662 194 118.831 186.607 C 122.774 182.540, 126 178.747, 126 178.178 C 126 176.861, 123.171 174, 121.869 174 C 121.325 174, 118.432 176.315, 115.440 179.145 L 110 184.290 110 172.716 C 110 163.528, 109.676 160.819, 108.429 159.571 C 107.564 158.707, 106.471 158, 106 158 C 105.529 158, 104.436 158.707, 103.571 159.571 M 156.743 228.500 L 144.005 254 170 254 L 195.995 254 183.257 228.500 C 176.250 214.475, 170.285 203, 170 203 C 169.715 203, 163.750 214.475, 156.743 228.500 " stroke="none" fill="black" fill-rule="evenodd"/>
</svg>