<svg xmlns="http://www.w3.org/2000/svg" width="260" height="324" viewBox="0 0 260 324" version="1.1">
	<path d="M 179.650 130.251 C 177.684 132.650, 174.596 137.738, 172.788 141.557 C 169.616 148.254, 169.500 148.942, 169.500 161 C 169.500 173.324, 169.551 173.606, 173.127 181 C 177.963 191, 183.362 197.212, 186.866 196.804 C 190.587 196.372, 190.694 193.555, 187.144 189.511 C 173.022 173.428, 172.333 151.693, 185.404 134.666 C 189.593 129.209, 189.729 126.645, 185.854 126.194 C 183.780 125.953, 182.470 126.810, 179.650 130.251 M 215.200 127.200 C 213.574 128.826, 213.688 131.496, 215.445 132.954 C 218.066 135.130, 223.159 143.880, 224.628 148.731 C 226.511 154.949, 226.481 167.187, 224.567 173.500 C 223.238 177.884, 221.572 180.705, 214.378 190.755 C 213.077 192.572, 213.004 193.300, 214.004 194.505 C 216.067 196.990, 218.575 196.213, 222.495 191.873 C 230.973 182.489, 235.385 166.737, 233.172 153.750 C 231.664 144.901, 227.480 135.644, 222.495 130.127 C 218.577 125.790, 217.173 125.227, 215.200 127.200 M 33.384 191.412 C 15.475 195.758, 3.559 213.807, 6.987 231.396 C 8.500 239.161, 12.212 246.019, 17.580 250.967 C 31.618 263.907, 51.456 263.838, 65.599 250.802 L 70 246.745 70 252.801 C 70 260.764, 72.787 264.070, 76.429 260.429 C 77.712 259.145, 78 256.212, 78 244.429 L 78 230 106 230 L 134 230 134 243.777 C 134 254.629, 134.331 258.027, 135.557 259.777 C 137.402 262.412, 138.322 262.535, 140.429 260.429 C 141.793 259.064, 142 254.537, 142 226 C 142 197.463, 141.793 192.936, 140.429 191.571 C 138.322 189.465, 137.402 189.588, 135.557 192.223 C 134.331 193.973, 134 197.371, 134 208.223 L 134 222 106 222 L 78 222 78 207.571 C 78 195.788, 77.712 192.855, 76.429 191.571 C 72.892 188.034, 70 191.240, 70 198.699 L 70 204.255 65.599 200.198 C 60.213 195.233, 55.162 192.599, 48.201 191.123 C 41.812 189.769, 40.008 189.804, 33.384 191.412 M 31.054 199.728 C 25.018 201.859, 17.781 209.260, 15.667 215.463 C 11.995 226.241, 14.382 237.477, 21.952 245.048 C 34.788 257.884, 56.462 254.978, 65.751 239.176 C 68.200 235.011, 68.500 233.517, 68.500 225.500 C 68.500 217.483, 68.200 215.989, 65.751 211.824 C 58.801 200.001, 44.449 194.998, 31.054 199.728 " stroke="none" fill="black" fill-rule="evenodd"/>
</svg>