<svg xmlns="http://www.w3.org/2000/svg" width="100" height="324" viewBox="0 0 100 324" version="1.1">
	<path d="M 40.316 62.784 C 38.369 64.022, 22.007 97.855, 22.604 99.410 C 23.450 101.615, 26.110 102.210, 27.895 100.594 C 28.778 99.795, 32.185 93.709, 35.467 87.070 C 38.748 80.432, 41.687 75, 41.997 75 C 42.308 75, 45.453 80.837, 48.986 87.972 C 52.520 95.106, 56.050 101.189, 56.832 101.489 C 58.716 102.212, 61 100.227, 61 97.866 C 61 95.626, 45.264 63.831, 43.628 62.765 C 42.214 61.845, 41.789 61.847, 40.316 62.784 M 19.544 130.220 C 4.466 147.835, 4.992 175.702, 20.732 193.125 C 24.463 197.255, 26.962 197.956, 29.038 195.454 C 30.105 194.168, 29.958 193.452, 28.166 191.204 C 18.788 179.439, 16 172.518, 16 161 C 16 149.594, 18.083 144.311, 27.872 130.882 C 28.972 129.373, 28.998 128.702, 28 127.500 C 25.904 124.975, 23.322 125.806, 19.544 130.220 M 54.667 126.667 C 53.218 128.115, 54.152 131.181, 57.293 135.297 C 63.720 143.717, 65.500 149.291, 65.500 161 C 65.500 170.670, 65.255 172.017, 62.397 178.047 C 60.691 181.648, 57.844 186.247, 56.070 188.267 C 52.340 192.515, 52.534 196, 56.500 196 C 59.612 196, 64.924 189.499, 69.212 180.443 C 72.384 173.746, 72.500 173.058, 72.500 161 C 72.500 148.706, 72.440 148.375, 68.893 140.948 C 63.550 129.761, 57.573 123.760, 54.667 126.667 " stroke="none" fill="black" fill-rule="evenodd"/>
</svg>