<svg xmlns="http://www.w3.org/2000/svg" width="244" height="324" viewBox="0 0 244 324" version="1.1">
	<path d="M 159.102 127.104 C 134.833 130.792, 112.901 149.594, 105.591 172.979 C 103.071 181.041, 101.488 192.502, 102.522 195.197 C 103.484 197.703, 106.074 198.243, 108.145 196.369 C 109.493 195.149, 110 193.287, 110 189.555 C 110 165.880, 130.554 141.326, 155.246 135.504 C 187.517 127.895, 219.887 147.846, 227.443 180 C 228.283 183.575, 228.977 188.622, 228.985 191.215 C 228.997 194.946, 229.431 196.160, 231.064 197.034 C 238.863 201.208, 237.093 178.561, 228.303 161.700 C 225.753 156.809, 221.954 151.890, 216.457 146.361 C 209.703 139.568, 206.806 137.478, 198.933 133.719 C 193.745 131.242, 187.475 128.743, 185 128.165 C 177.972 126.523, 166.123 126.038, 159.102 127.104 M 33.384 159.412 C 15.480 163.757, 3.543 181.833, 6.993 199.372 C 9.077 209.960, 14.986 218.563, 23.673 223.654 C 27.992 226.185, 41.830 230.214, 43.238 229.350 C 43.644 229.101, 46.569 228.222, 49.738 227.396 C 65.964 223.171, 76.193 210.065, 76.193 193.500 C 76.193 176.826, 65.384 163.182, 49.147 159.360 C 42.397 157.772, 40.111 157.779, 33.384 159.412 M 31.054 167.728 C 25.018 169.859, 17.781 177.260, 15.667 183.463 C 10.058 199.925, 18.847 216.571, 35.250 220.550 L 38 221.217 38 193.608 C 38 172.146, 37.722 166.018, 36.750 166.079 C 36.063 166.122, 33.499 166.864, 31.054 167.728 M 46 193.500 L 46 221.135 48.250 220.448 C 53.937 218.711, 57.111 216.889, 60.696 213.304 C 66.750 207.250, 68.500 202.809, 68.500 193.500 C 68.500 184.191, 66.750 179.750, 60.696 173.696 C 57.111 170.111, 53.937 168.289, 48.250 166.552 L 46 165.865 46 193.500 M 135.244 223.256 C 116.960 241.546, 102 257.206, 102 258.056 C 102 261.988, 102.206 262, 169.629 262 C 228.358 262, 235.018 261.839, 236.473 260.384 C 237.362 259.495, 237.955 258.364, 237.790 257.869 C 237.262 256.285, 170.580 190, 169.515 190 C 168.950 190, 153.529 204.965, 135.244 223.256 M 142.545 226.500 L 115.800 254 170.143 254 L 224.486 254 197 226.500 C 181.883 211.375, 169.464 199, 169.402 199 C 169.341 199, 157.255 211.375, 142.545 226.500 M 7.571 255.571 C 6.707 256.436, 6 257.529, 6 258 C 6 258.471, 6.707 259.564, 7.571 260.429 C 8.936 261.793, 13.463 262, 42 262 C 70.537 262, 75.064 261.793, 76.429 260.429 C 77.293 259.564, 78 258.471, 78 258 C 78 257.529, 77.293 256.436, 76.429 255.571 C 75.064 254.207, 70.537 254, 42 254 C 13.463 254, 8.936 254.207, 7.571 255.571 " stroke="none" fill="black" fill-rule="evenodd"/>
</svg>