<svg xmlns="http://www.w3.org/2000/svg" width="436" height="324" viewBox="0 0 436 324" version="1.1">
	<path d="M 135.571 127.571 C 134.288 128.855, 134 131.788, 134 143.571 L 134 158 119.571 158 C 107.788 158, 104.855 158.288, 103.571 159.571 C 101.598 161.545, 101.598 162.455, 103.571 164.429 C 104.855 165.712, 107.788 166, 119.571 166 L 134 166 134 212.429 C 134 253.303, 134.188 259.045, 135.571 260.429 C 136.436 261.293, 137.529 262, 138 262 C 138.471 262, 139.564 261.293, 140.429 260.429 C 141.812 259.045, 142 253.303, 142 212.429 L 142 166 156.429 166 C 168.212 166, 171.145 165.712, 172.429 164.429 C 174.402 162.455, 174.402 161.545, 172.429 159.571 C 171.145 158.288, 168.212 158, 156.429 158 L 142 158 142 143.571 C 142 131.788, 141.712 128.855, 140.429 127.571 C 139.564 126.707, 138.471 126, 138 126 C 137.529 126, 136.436 126.707, 135.571 127.571 M 211.454 130.250 C 202.931 140.034, 198.735 155.113, 200.895 168.194 C 202.353 177.022, 206.933 186.888, 212.255 192.661 C 216.469 197.232, 218.917 198.010, 221.038 195.454 C 222.105 194.168, 221.958 193.452, 220.166 191.204 C 210.788 179.439, 208 172.518, 208 161 C 208 149.594, 210.083 144.311, 219.872 130.882 C 220.972 129.373, 220.998 128.702, 220 127.500 C 217.904 124.975, 215.326 125.805, 211.454 130.250 M 246.667 126.667 C 245.220 128.113, 246.142 131.392, 249.016 135.020 C 250.675 137.115, 253.262 141.454, 254.765 144.664 C 257.199 149.860, 257.498 151.651, 257.498 161 C 257.498 170.388, 257.204 172.128, 254.722 177.430 C 253.195 180.692, 250.350 185.307, 248.401 187.686 C 244.361 192.617, 244.275 195.356, 248.146 195.806 C 250.220 196.047, 251.530 195.190, 254.350 191.749 C 265.958 177.582, 268.517 157.043, 260.719 140.623 C 255.562 129.764, 249.545 123.788, 246.667 126.667 M 33.384 159.412 C 15.480 163.757, 3.543 181.833, 6.993 199.372 C 9.077 209.960, 14.986 218.563, 23.673 223.654 C 28.824 226.673, 41.869 230.124, 44 229.032 C 44.825 228.609, 47.300 227.941, 49.500 227.548 C 59.453 225.767, 70.142 216.481, 74.072 206.202 C 81.691 186.273, 69.979 164.264, 49.147 159.360 C 42.397 157.772, 40.111 157.779, 33.384 159.412 M 31.054 167.728 C 25.018 169.859, 17.781 177.260, 15.667 183.463 C 10.058 199.925, 18.847 216.571, 35.250 220.550 L 38 221.217 38 193.608 C 38 172.146, 37.722 166.018, 36.750 166.079 C 36.063 166.122, 33.499 166.864, 31.054 167.728 M 46 193.500 L 46 221.135 48.250 220.448 C 53.937 218.711, 57.111 216.889, 60.696 213.304 C 66.750 207.250, 68.500 202.809, 68.500 193.500 C 68.500 184.191, 66.750 179.750, 60.696 173.696 C 57.111 170.111, 53.937 168.289, 48.250 166.552 L 46 165.865 46 193.500 M 319.500 175.123 C 312.469 176.520, 301.271 182.204, 296.250 186.924 C 291.704 191.198, 291.097 193.006, 293.530 195.025 C 295.407 196.583, 297.377 195.674, 304.500 189.964 C 311.611 184.263, 320.713 181.629, 331.374 182.189 C 342.596 182.778, 350.388 186.446, 359.072 195.230 C 369.092 205.365, 378.721 209.358, 393 209.298 C 402.971 209.257, 411.600 206.700, 419.528 201.437 C 428.121 195.734, 429.976 192.273, 425.836 189.666 C 424.516 188.835, 423.229 189.391, 419.618 192.350 C 412.261 198.378, 404.743 201.315, 395.409 201.807 C 381.975 202.516, 371.819 198.549, 363.766 189.449 C 353.804 178.192, 334.880 172.067, 319.500 175.123 M 7.571 255.571 C 6.707 256.436, 6 257.529, 6 258 C 6 258.471, 6.707 259.564, 7.571 260.429 C 8.936 261.793, 13.463 262, 42 262 C 70.537 262, 75.064 261.793, 76.429 260.429 C 77.293 259.564, 78 258.471, 78 258 C 78 257.529, 77.293 256.436, 76.429 255.571 C 75.064 254.207, 70.537 254, 42 254 C 13.463 254, 8.936 254.207, 7.571 255.571 " stroke="none" fill="black" fill-rule="evenodd"/>
</svg>