<svg xmlns="http://www.w3.org/2000/svg" width="628" height="324" viewBox="0 0 628 324" version="1.1">
	<path d="M 550.612 64.250 C 549.823 65.487, 534.852 95.187, 517.343 130.249 C 491.098 182.805, 485.702 194.305, 486.612 195.749 C 487.559 197.253, 489.636 197.539, 501.357 197.778 C 508.861 197.931, 515 198.267, 515 198.524 C 515 198.781, 508.365 212.269, 500.257 228.498 C 488.170 252.689, 485.712 258.320, 486.616 259.752 C 487.643 261.382, 492.081 261.519, 552.109 261.776 C 587.524 261.928, 617.463 261.819, 618.640 261.535 C 619.817 261.250, 621.047 260.321, 621.373 259.469 C 621.722 258.561, 615.775 245.542, 606.980 227.961 L 591.994 198 605.425 198 C 616.303 198, 619.156 197.701, 620.429 196.429 C 621.293 195.564, 622 194.663, 622 194.426 C 622 193.155, 556.584 63.384, 555.631 62.765 C 553.647 61.476, 552.086 61.938, 550.612 64.250 M 524.747 132.500 L 496.002 190 507.764 190 L 519.526 190 535.013 158.930 C 543.531 141.841, 551.041 127.404, 551.702 126.847 C 554.692 124.328, 556.807 127.586, 572.250 158.489 L 587.996 190 599.498 190 C 605.824 190, 611 189.773, 611 189.497 C 611 188.838, 554.074 75, 553.744 75 C 553.605 75, 540.557 100.875, 524.747 132.500 M 135.571 127.571 C 134.288 128.855, 134 131.788, 134 143.571 L 134 158 119.571 158 C 107.788 158, 104.855 158.288, 103.571 159.571 C 101.598 161.545, 101.598 162.455, 103.571 164.429 C 104.855 165.712, 107.788 166, 119.571 166 L 134 166 134 212.429 C 134 253.303, 134.188 259.045, 135.571 260.429 C 136.436 261.293, 137.529 262, 138 262 C 138.471 262, 139.564 261.293, 140.429 260.429 C 141.812 259.045, 142 253.303, 142 212.429 L 142 166 156.429 166 C 168.212 166, 171.145 165.712, 172.429 164.429 C 174.402 162.455, 174.402 161.545, 172.429 159.571 C 171.145 158.288, 168.212 158, 156.429 158 L 142 158 142 143.571 C 142 131.788, 141.712 128.855, 140.429 127.571 C 139.564 126.707, 138.471 126, 138 126 C 137.529 126, 136.436 126.707, 135.571 127.571 M 211.513 130.250 C 202.926 140.269, 198.749 155.197, 200.895 168.194 C 203.023 181.079, 212.786 197, 218.560 197 C 222.669 197, 222.629 193.438, 218.468 188.833 C 208.926 178.271, 205.432 161.484, 209.978 148.040 C 212.217 141.421, 214.472 137.516, 218.758 132.844 C 220.464 130.984, 220.995 129.560, 220.530 128.094 C 219.411 124.568, 215.603 125.478, 211.513 130.250 M 246.667 126.667 C 245.220 128.113, 246.142 131.392, 249.016 135.020 C 250.675 137.115, 253.262 141.454, 254.765 144.664 C 257.199 149.860, 257.498 151.651, 257.498 161 C 257.498 170.388, 257.204 172.128, 254.722 177.430 C 253.195 180.692, 250.350 185.307, 248.401 187.686 C 244.489 192.460, 244.292 195.325, 247.843 195.830 C 250.726 196.241, 253.341 193.975, 257.590 187.387 C 267.550 171.940, 267.854 151.029, 258.342 135.671 C 253.451 127.774, 248.995 124.338, 246.667 126.667 M 327.571 127.571 C 326.176 128.966, 326 136.152, 326 191.571 L 326 254 311.571 254 C 299.788 254, 296.855 254.288, 295.571 255.571 C 293.595 257.548, 293.598 258.455, 295.585 260.442 C 296.978 261.835, 301.159 261.995, 330.226 261.763 C 360.452 261.523, 363.377 261.350, 364.386 259.750 C 365.190 258.475, 365.191 257.525, 364.387 256.250 C 363.433 254.736, 361.314 254.463, 348.643 254.223 L 334 253.947 334 191.545 C 334 136.149, 333.824 128.966, 332.429 127.571 C 331.564 126.707, 330.471 126, 330 126 C 329.529 126, 328.436 126.707, 327.571 127.571 M 524.747 196.500 L 496.002 254 553.501 254 C 585.126 254, 611 253.773, 611 253.497 C 611 252.838, 554.074 139, 553.744 139 C 553.605 139, 540.557 164.875, 524.747 196.500 M 34.344 159.041 C 20.957 161.690, 9.477 173.645, 6.892 187.629 C 4.357 201.337, 11.404 216.464, 23.673 223.654 C 28.824 226.673, 41.869 230.124, 44 229.032 C 44.825 228.609, 47.279 227.941, 49.453 227.548 C 58.124 225.980, 67.643 218.768, 72.232 210.288 C 83.343 189.761, 72.001 164.740, 49.147 159.360 C 42.881 157.885, 40.451 157.833, 34.344 159.041 M 31.054 167.728 C 25.018 169.859, 17.781 177.260, 15.667 183.463 C 10.058 199.925, 18.847 216.571, 35.250 220.550 L 38 221.217 38 193.608 C 38 172.146, 37.722 166.018, 36.750 166.079 C 36.063 166.122, 33.499 166.864, 31.054 167.728 M 46 193.500 L 46 221.135 48.250 220.456 C 56.269 218.038, 63.061 212.469, 66.533 205.467 C 67.994 202.520, 68.500 199.444, 68.500 193.500 C 68.500 184.191, 66.750 179.750, 60.696 173.696 C 57.111 170.111, 53.937 168.289, 48.250 166.552 L 46 165.865 46 193.500 M 423.571 223.571 C 422.288 224.855, 422 227.788, 422 239.571 L 422 254 407.571 254 C 395.788 254, 392.855 254.288, 391.571 255.571 C 389.598 257.545, 389.598 258.455, 391.571 260.429 C 392.855 261.712, 395.788 262, 407.571 262 L 422 262 422 276.429 C 422 288.212, 422.288 291.145, 423.571 292.429 C 425.678 294.535, 426.598 294.412, 428.443 291.777 C 429.669 290.028, 430 286.631, 430 275.804 L 430 262.053 444.643 261.777 C 457.314 261.537, 459.433 261.264, 460.387 259.750 C 461.191 258.475, 461.191 257.525, 460.387 256.250 C 459.433 254.736, 457.314 254.463, 444.643 254.223 L 430 253.947 430 240.196 C 430 229.369, 429.669 225.972, 428.443 224.223 C 426.598 221.588, 425.678 221.465, 423.571 223.571 M 7.571 255.571 C 6.707 256.436, 6 257.529, 6 258 C 6 258.471, 6.707 259.564, 7.571 260.429 C 8.936 261.793, 13.463 262, 42 262 C 70.537 262, 75.064 261.793, 76.429 260.429 C 77.293 259.564, 78 258.471, 78 258 C 78 257.529, 77.293 256.436, 76.429 255.571 C 75.064 254.207, 70.537 254, 42 254 C 13.463 254, 8.936 254.207, 7.571 255.571 " stroke="none" fill="black" fill-rule="evenodd"/>
</svg>