<svg xmlns="http://www.w3.org/2000/svg" width="292" height="324" viewBox="0 0 292 324" version="1.1">
	<path d="M 135.571 127.571 C 134.288 128.855, 134 131.788, 134 143.571 L 134 158 119.571 158 C 107.788 158, 104.855 158.288, 103.571 159.571 C 101.598 161.545, 101.598 162.455, 103.571 164.429 C 104.855 165.712, 107.788 166, 119.571 166 L 134 166 134 212.429 C 134 253.303, 134.188 259.045, 135.571 260.429 C 136.436 261.293, 137.529 262, 138 262 C 138.471 262, 139.564 261.293, 140.429 260.429 C 141.812 259.045, 142 253.305, 142 212.455 L 142 166.053 156.643 165.777 C 169.314 165.537, 171.433 165.264, 172.387 163.750 C 173.191 162.475, 173.191 161.525, 172.387 160.250 C 171.433 158.736, 169.314 158.463, 156.643 158.223 L 142 157.947 142 143.545 C 142 131.785, 141.712 128.855, 140.429 127.571 C 139.564 126.707, 138.471 126, 138 126 C 137.529 126, 136.436 126.707, 135.571 127.571 M 211.505 130.127 C 206.520 135.644, 202.336 144.901, 200.828 153.750 C 198.559 167.065, 203.101 182.730, 212.042 192.430 C 216.456 197.219, 218.894 198.038, 221.038 195.454 C 222.105 194.168, 221.958 193.452, 220.166 191.204 C 210.599 179.203, 208 172.750, 208 161 C 208 149.342, 209.867 144.607, 219.872 130.882 C 220.972 129.373, 220.998 128.702, 220 127.500 C 217.933 125.010, 215.428 125.784, 211.505 130.127 M 246.075 127.861 C 245.276 129.352, 245.971 130.989, 249.575 136.107 C 260.708 151.917, 260.654 170.741, 249.432 185.986 C 244.445 192.760, 244.108 195.336, 248.146 195.806 C 251.517 196.197, 256.559 190.269, 261.212 180.443 C 264.384 173.746, 264.500 173.058, 264.500 161 C 264.500 148.942, 264.384 148.254, 261.212 141.557 C 255.263 128.993, 248.664 123.023, 246.075 127.861 M 33.384 159.412 C 15.480 163.757, 3.543 181.833, 6.993 199.372 C 9.077 209.960, 14.986 218.563, 23.673 223.654 C 28.824 226.673, 41.869 230.124, 44 229.032 C 44.825 228.609, 47.300 227.941, 49.500 227.548 C 59.453 225.767, 70.142 216.481, 74.072 206.202 C 81.691 186.273, 69.979 164.264, 49.147 159.360 C 42.397 157.772, 40.111 157.779, 33.384 159.412 M 31.054 167.728 C 25.018 169.859, 17.781 177.260, 15.667 183.463 C 10.058 199.925, 18.847 216.571, 35.250 220.550 L 38 221.217 38 193.608 C 38 172.146, 37.722 166.018, 36.750 166.079 C 36.063 166.122, 33.499 166.864, 31.054 167.728 M 46 193.500 L 46 221.135 48.250 220.448 C 53.937 218.711, 57.111 216.889, 60.696 213.304 C 66.750 207.250, 68.500 202.809, 68.500 193.500 C 68.500 184.191, 66.750 179.750, 60.696 173.696 C 57.111 170.111, 53.937 168.289, 48.250 166.552 L 46 165.865 46 193.500 M 7.571 255.571 C 6.707 256.436, 6 257.529, 6 258 C 6 258.471, 6.707 259.564, 7.571 260.429 C 8.936 261.793, 13.463 262, 42 262 C 70.537 262, 75.064 261.793, 76.429 260.429 C 77.293 259.564, 78 258.471, 78 258 C 78 257.529, 77.293 256.436, 76.429 255.571 C 75.064 254.207, 70.537 254, 42 254 C 13.463 254, 8.936 254.207, 7.571 255.571 " stroke="none" fill="black" fill-rule="evenodd"/>
</svg>