<svg xmlns="http://www.w3.org/2000/svg" width="595" height="324" viewBox="0 0 595 324" version="1.1">
	<path d="M 135.571 127.571 C 134.288 128.855, 134 131.788, 134 143.571 L 134 158 119.571 158 C 107.788 158, 104.855 158.288, 103.571 159.571 C 101.598 161.545, 101.598 162.455, 103.571 164.429 C 104.855 165.712, 107.788 166, 119.571 166 L 134 166 134 212.429 C 134 253.303, 134.188 259.045, 135.571 260.429 C 137.678 262.535, 138.598 262.412, 140.443 259.777 C 141.797 257.845, 142 251.594, 142 211.804 L 142 166.053 156.643 165.777 C 169.314 165.537, 171.433 165.264, 172.387 163.750 C 173.191 162.475, 173.191 161.525, 172.387 160.250 C 171.433 158.736, 169.314 158.463, 156.643 158.223 L 142 157.947 142 144.196 C 142 133.369, 141.669 129.972, 140.443 128.223 C 138.598 125.588, 137.678 125.465, 135.571 127.571 M 211.505 130.127 C 203.020 139.518, 198.568 155.778, 200.903 168.844 C 202.486 177.705, 206.715 186.650, 212.062 192.451 C 216.457 197.220, 218.896 198.035, 221.038 195.454 C 222.105 194.168, 221.958 193.452, 220.166 191.204 C 210.599 179.203, 208 172.750, 208 161 C 208 149.342, 209.867 144.607, 219.872 130.882 C 220.972 129.373, 220.998 128.702, 220 127.500 C 217.933 125.010, 215.428 125.784, 211.505 130.127 M 246.103 127.808 C 245.342 129.230, 246.091 130.991, 249.612 136.050 C 260.838 152.182, 260.587 171.544, 248.953 186.843 C 244.429 192.792, 244.199 195.347, 248.146 195.806 C 250.219 196.047, 251.513 195.201, 254.267 191.806 C 262.253 181.959, 265.445 171.684, 264.784 157.953 C 264.388 149.739, 263.834 147.243, 261.121 141.445 C 255.344 129.099, 248.660 123.030, 246.103 127.808 M 33.384 159.357 C 15.366 163.922, 3.545 181.845, 6.993 199.372 C 9.077 209.960, 14.986 218.563, 23.673 223.654 C 27.992 226.185, 41.830 230.214, 43.238 229.350 C 43.644 229.101, 46.569 228.222, 49.738 227.396 C 70.579 221.970, 81.549 200.710, 73.934 180.507 C 68.097 165.023, 49.437 155.290, 33.384 159.357 M 31.054 167.728 C 25.018 169.859, 17.781 177.260, 15.667 183.463 C 10.058 199.925, 18.847 216.571, 35.250 220.550 L 38 221.217 38 193.608 C 38 172.146, 37.722 166.018, 36.750 166.079 C 36.063 166.122, 33.499 166.864, 31.054 167.728 M 46 193.500 L 46 221.135 48.250 220.448 C 56.638 217.886, 63.034 212.627, 66.470 205.467 C 68.918 200.365, 69.597 191.204, 67.960 185.357 C 65.541 176.717, 57.808 169.329, 48.250 166.525 L 46 165.865 46 193.500 M 320.320 175.099 C 313.467 176.243, 304.796 180.158, 298.367 185.013 C 292.776 189.234, 291.108 192.220, 293.040 194.548 C 294.922 196.816, 296.513 196.317, 301.689 191.835 C 304.335 189.545, 308.975 186.515, 312 185.102 C 316.848 182.838, 318.804 182.532, 328.500 182.517 C 338.756 182.501, 339.944 182.711, 346.072 185.614 C 350.519 187.722, 354.749 190.865, 359.159 195.340 C 373.573 209.969, 394.185 213.640, 412.943 204.920 C 425.276 199.186, 430.761 192.747, 425.903 189.704 C 424.674 188.934, 423.052 189.651, 418.858 192.818 C 410.615 199.041, 404.754 201.285, 395.409 201.793 C 381.586 202.546, 372.971 199.099, 362.854 188.767 C 356.140 181.909, 345.719 176.585, 336 175.045 C 328.672 173.884, 327.573 173.888, 320.320 175.099 M 487.244 223.256 C 468.960 241.546, 454 257.280, 454 258.220 C 454 259.160, 454.961 260.444, 456.136 261.073 C 458.102 262.125, 460.791 259.698, 489.890 230.610 L 521.508 199.004 553.252 230.748 C 580.610 258.106, 585.238 262.340, 586.748 261.387 C 588.352 260.376, 588.522 257.426, 588.765 226.391 C 589.004 195.836, 588.867 192.381, 587.377 191.289 C 586.226 190.446, 585.158 190.380, 583.862 191.074 C 582.112 192.010, 582 193.804, 582 220.779 L 582 249.487 552.244 219.744 C 535.878 203.385, 522.038 190, 521.488 190 C 520.939 190, 505.529 204.965, 487.244 223.256 M 320.320 239.099 C 313.467 240.243, 304.796 244.158, 298.367 249.013 C 292.776 253.234, 291.108 256.220, 293.040 258.548 C 294.922 260.816, 296.513 260.317, 301.689 255.835 C 304.335 253.545, 308.975 250.515, 312 249.102 C 316.848 246.838, 318.804 246.532, 328.500 246.517 C 338.756 246.501, 339.944 246.711, 346.072 249.614 C 350.519 251.722, 354.749 254.865, 359.159 259.340 C 373.573 273.969, 394.185 277.640, 412.943 268.920 C 425.276 263.186, 430.761 256.747, 425.903 253.704 C 424.674 252.934, 423.052 253.651, 418.858 256.818 C 410.615 263.041, 404.754 265.285, 395.409 265.793 C 381.586 266.546, 372.971 263.099, 362.854 252.767 C 356.140 245.909, 345.719 240.585, 336 239.045 C 328.672 237.884, 327.573 237.888, 320.320 239.099 M 7.571 255.571 C 6.707 256.436, 6 257.529, 6 258 C 6 258.471, 6.707 259.564, 7.571 260.429 C 8.936 261.793, 13.463 262, 42 262 C 70.537 262, 75.064 261.793, 76.429 260.429 C 77.293 259.564, 78 258.471, 78 258 C 78 257.529, 77.293 256.436, 76.429 255.571 C 75.064 254.207, 70.537 254, 42 254 C 13.463 254, 8.936 254.207, 7.571 255.571 " stroke="none" fill="black" fill-rule="evenodd"/>
</svg>