<svg xmlns="http://www.w3.org/2000/svg" width="196" height="324" viewBox="0 0 196 324" version="1.1">
	<path d="M 115.454 130.250 C 106.969 139.991, 102.736 155.120, 104.874 168.067 C 106.383 177.207, 110.703 186.638, 116.024 192.410 C 120.455 197.218, 122.892 198.040, 125.038 195.454 C 126.105 194.168, 125.958 193.452, 124.166 191.204 C 114.599 179.203, 112 172.750, 112 161 C 112 149.342, 113.867 144.607, 123.872 130.882 C 124.972 129.373, 124.998 128.702, 124 127.500 C 121.904 124.975, 119.326 125.805, 115.454 130.250 M 150.103 127.808 C 149.342 129.230, 150.091 130.991, 153.612 136.050 C 164.838 152.182, 164.587 171.544, 152.953 186.843 C 148.429 192.792, 148.199 195.347, 152.146 195.806 C 155.517 196.197, 160.559 190.269, 165.212 180.443 C 168.384 173.746, 168.500 173.058, 168.500 161 C 168.500 148.942, 168.384 148.254, 165.212 141.557 C 159.292 129.054, 152.664 123.023, 150.103 127.808 M 33.384 159.357 C 15.366 163.922, 3.545 181.845, 6.993 199.372 C 9.077 209.960, 14.986 218.563, 23.673 223.654 C 27.992 226.185, 41.830 230.214, 43.238 229.350 C 43.644 229.101, 46.569 228.222, 49.738 227.396 C 70.579 221.970, 81.549 200.710, 73.934 180.507 C 68.097 165.023, 49.437 155.290, 33.384 159.357 M 31.054 167.728 C 25.018 169.859, 17.781 177.260, 15.667 183.463 C 10.058 199.925, 18.847 216.571, 35.250 220.550 L 38 221.217 38 193.608 C 38 172.146, 37.722 166.018, 36.750 166.079 C 36.063 166.122, 33.499 166.864, 31.054 167.728 M 46 193.433 C 46 208.595, 46.168 221, 46.374 221 C 46.580 221, 48.646 220.331, 50.965 219.512 C 57.653 217.153, 62.596 212.567, 66.080 205.488 C 68.890 199.782, 69.186 198.354, 68.817 192.295 C 68.028 179.334, 60.904 170.417, 48.250 166.552 L 46 165.865 46 193.433 M 7.571 255.571 C 6.707 256.436, 6 257.529, 6 258 C 6 258.471, 6.707 259.564, 7.571 260.429 C 8.936 261.793, 13.463 262, 42 262 C 70.537 262, 75.064 261.793, 76.429 260.429 C 77.293 259.564, 78 258.471, 78 258 C 78 257.529, 77.293 256.436, 76.429 255.571 C 75.064 254.207, 70.537 254, 42 254 C 13.463 254, 8.936 254.207, 7.571 255.571 " stroke="none" fill="black" fill-rule="evenodd"/>
</svg>