<svg xmlns="http://www.w3.org/2000/svg" width="372" height="324" viewBox="0 0 372 324" version="1.1">
	<path d="M 135.571 127.571 C 134.288 128.855, 134 131.788, 134 143.571 L 134 158 119.571 158 C 107.788 158, 104.855 158.288, 103.571 159.571 C 101.598 161.545, 101.598 162.455, 103.571 164.429 C 104.855 165.712, 107.788 166, 119.571 166 L 134 166 134 212.429 C 134 253.303, 134.188 259.045, 135.571 260.429 C 136.436 261.293, 137.529 262, 138 262 C 138.471 262, 139.564 261.293, 140.429 260.429 C 141.812 259.045, 142 253.303, 142 212.429 L 142 166 156.429 166 C 168.212 166, 171.145 165.712, 172.429 164.429 C 174.402 162.455, 174.402 161.545, 172.429 159.571 C 171.145 158.288, 168.212 158, 156.429 158 L 142 158 142 143.571 C 142 131.788, 141.712 128.855, 140.429 127.571 C 139.564 126.707, 138.471 126, 138 126 C 137.529 126, 136.436 126.707, 135.571 127.571 M 211.544 130.220 C 200.997 142.542, 197.657 160.969, 203.102 176.796 C 207.828 190.532, 219.302 201.926, 221.484 195.049 C 221.924 193.665, 220.848 191.557, 217.777 187.787 C 210.421 178.756, 208.508 173.230, 208.504 161 C 208.500 151.606, 208.793 149.875, 211.277 144.570 C 212.805 141.308, 215.647 136.696, 217.594 134.319 C 224.252 126.195, 218.389 122.222, 211.544 130.220 M 247.250 126.662 C 245.097 127.531, 245.875 130.819, 249.293 135.297 C 255.709 143.703, 257.492 149.289, 257.496 161 C 257.500 170.674, 257.256 172.015, 254.397 178.047 C 252.691 181.648, 249.844 186.247, 248.070 188.267 C 245.769 190.888, 245.030 192.520, 245.490 193.970 C 246.486 197.107, 250.347 196.507, 253.694 192.696 C 269.117 175.130, 269.451 147.738, 254.456 130.220 C 250.955 126.129, 249.883 125.600, 247.250 126.662 M 33.384 159.412 C 15.480 163.757, 3.543 181.833, 6.993 199.372 C 9.077 209.960, 14.986 218.563, 23.673 223.654 C 28.824 226.673, 41.869 230.124, 44 229.032 C 44.825 228.609, 47.279 227.941, 49.453 227.548 C 58.124 225.980, 67.643 218.768, 72.232 210.288 C 83.343 189.761, 72.001 164.740, 49.147 159.360 C 42.397 157.772, 40.111 157.779, 33.384 159.412 M 321.384 159.412 C 303.475 163.758, 291.559 181.807, 294.987 199.396 C 296.500 207.161, 300.212 214.019, 305.580 218.967 C 326.277 238.045, 358.591 227.221, 364.013 199.396 C 367.488 181.565, 355.484 163.676, 337.147 159.360 C 330.397 157.772, 328.111 157.779, 321.384 159.412 M 31.054 167.728 C 25.018 169.859, 17.781 177.260, 15.667 183.463 C 10.058 199.925, 18.847 216.571, 35.250 220.550 L 38 221.217 38 193.608 C 38 172.146, 37.722 166.018, 36.750 166.079 C 36.063 166.122, 33.499 166.864, 31.054 167.728 M 46 193.500 L 46 221.135 48.250 220.475 C 61.167 216.686, 69 206.503, 69 193.500 C 69 180.497, 61.167 170.314, 48.250 166.525 L 46 165.865 46 193.500 M 319.054 167.728 C 313.018 169.859, 305.781 177.260, 303.667 183.463 C 297.198 202.450, 309.964 221, 329.500 221 C 345.108 221, 357 209.108, 357 193.500 C 357 177.670, 344.965 165.854, 329.072 166.079 C 326.007 166.122, 321.499 166.864, 319.054 167.728 M 7.571 255.571 C 6.707 256.436, 6 257.529, 6 258 C 6 258.471, 6.707 259.564, 7.571 260.429 C 8.936 261.793, 13.463 262, 42 262 C 70.537 262, 75.064 261.793, 76.429 260.429 C 77.293 259.564, 78 258.471, 78 258 C 78 257.529, 77.293 256.436, 76.429 255.571 C 75.064 254.207, 70.537 254, 42 254 C 13.463 254, 8.936 254.207, 7.571 255.571 M 295.571 255.571 C 294.707 256.436, 294 257.529, 294 258 C 294 258.471, 294.707 259.564, 295.571 260.429 C 296.936 261.793, 301.463 262, 330 262 C 358.537 262, 363.064 261.793, 364.429 260.429 C 365.293 259.564, 366 258.471, 366 258 C 366 257.529, 365.293 256.436, 364.429 255.571 C 363.064 254.207, 358.537 254, 330 254 C 301.463 254, 296.936 254.207, 295.571 255.571 " stroke="none" fill="black" fill-rule="evenodd"/>
</svg>