<svg xmlns="http://www.w3.org/2000/svg" width="532" height="324" viewBox="0 0 532 324" version="1.1">
	<path d="M 327.937 62.250 C 327.903 62.388, 320.590 76.900, 311.687 94.500 L 295.500 126.500 291.434 127.043 C 281.021 128.433, 270.188 137.015, 265.204 147.825 C 261.894 155.002, 261.778 163.967, 264.839 175.872 L 266.992 184.244 264.297 189.195 C 260.986 195.279, 261.804 197.274, 267.908 198 C 272.075 198.496, 272.158 198.586, 277.180 208.056 L 282.247 217.611 271.987 237.977 C 264.160 253.514, 261.963 258.717, 262.722 259.921 C 263.609 261.328, 270.729 261.530, 328.109 261.776 C 363.524 261.928, 393.463 261.819, 394.640 261.535 C 395.817 261.250, 397.047 260.320, 397.374 259.468 C 397.719 258.568, 393.590 249.169, 387.522 237.044 L 377.076 216.170 381.788 207.101 L 386.500 198.033 390.679 198.016 C 394.250 198.002, 398 196.150, 398 194.400 C 398 194.149, 396.634 191.238, 394.966 187.932 C 393.297 184.626, 392.175 181.526, 392.473 181.044 C 392.771 180.561, 393.843 176.129, 394.855 171.195 C 397.744 157.112, 395.641 147.782, 387.411 138.167 C 382.980 132.991, 377.127 129.486, 369.976 127.729 L 364.500 126.383 348.868 95.442 C 340.271 78.424, 332.716 63.938, 332.079 63.250 C 331.095 62.188, 328.132 61.473, 327.937 62.250 M 316.741 100.505 C 309.733 114.533, 304 126.197, 304 126.425 C 304 126.653, 306.218 127.576, 308.928 128.476 C 311.638 129.376, 315.684 131.437, 317.919 133.056 C 320.154 134.675, 322.237 136, 322.548 136 C 322.858 136, 324 133.994, 325.085 131.541 C 326.169 129.089, 327.498 126.810, 328.037 126.477 C 330.066 125.223, 332.677 127.156, 334.769 131.461 L 336.931 135.911 342.063 132.457 C 344.886 130.558, 349.143 128.436, 351.523 127.742 L 355.850 126.480 343.260 100.740 C 336.335 86.583, 330.402 75, 330.076 75 C 329.749 75, 323.748 86.477, 316.741 100.505 M 159.870 127.014 C 144.636 129.407, 133.616 135.194, 121.974 146.916 C 109.963 159.009, 104.347 170.904, 102.499 188.168 C 101.924 193.530, 102.094 194.951, 103.473 196.330 C 106.993 199.850, 110 196.851, 110 189.823 C 110 171.461, 123.851 149.945, 141.603 140.732 C 164.996 128.591, 192.954 132.857, 211.494 151.397 C 221.990 161.894, 229 177.406, 229 190.139 C 229 197.065, 232.570 200.214, 235.360 195.750 C 236.454 194, 236.582 191.869, 235.935 186.164 C 232.832 158.798, 212.692 135.370, 186.483 128.639 C 178.642 126.625, 166.905 125.908, 159.870 127.014 M 487.750 127.080 C 486.140 128.018, 486 130.700, 486 160.556 L 486 193.012 470 225 C 461.200 242.593, 454 257.650, 454 258.459 C 454 260.786, 457.809 262.404, 459.663 260.865 C 460.507 260.164, 467.622 246.749, 475.474 231.052 L 489.750 202.514 504.313 231.626 C 512.486 247.965, 519.617 261.023, 520.565 261.386 C 522.679 262.198, 525 260.358, 525 257.871 C 525 256.836, 517.800 241.593, 509 224 L 493 192.012 493 160.206 C 493 125.492, 492.787 124.146, 487.750 127.080 M 287.462 159.136 C 276.011 182.103, 274.917 184.760, 275.883 187.250 C 276.944 189.983, 277.010 190, 286.471 190 L 295.992 190 307.611 166.778 L 319.231 143.556 315.940 140.809 C 312.085 137.590, 307.376 135.225, 303.134 134.377 L 300.109 133.772 287.462 159.136 M 351.748 135.427 C 347.564 136.920, 341 141.581, 341 143.059 C 341 143.586, 346.177 154.363, 352.504 167.008 L 364.008 190 372.927 190 L 381.845 190 382.968 186.597 C 384.043 183.339, 383.567 182.144, 371.805 158.597 C 358.443 131.845, 359.231 132.756, 351.748 135.427 M 284.271 137.095 C 279.142 139.634, 274.395 144.852, 271.726 150.887 C 270.098 154.566, 269.836 156.774, 270.271 163.123 C 270.563 167.384, 271.144 171.424, 271.563 172.101 C 272.034 172.864, 275.855 166.326, 281.608 154.916 C 286.715 144.787, 290.918 136.162, 290.947 135.750 C 291.039 134.448, 288.643 134.931, 284.271 137.095 M 369 135.493 C 369 136.690, 386.545 171, 387.157 171 C 388.467 171, 389.197 158.444, 388.119 154.442 C 386.281 147.616, 381.594 141.381, 375.805 138.061 C 370.644 135.101, 369 134.481, 369 135.493 M 328.500 141 C 328.151 142.100, 328.177 143.983, 328.558 145.184 C 329.243 147.340, 329.269 147.334, 330.621 144.754 C 331.963 142.193, 331.596 139, 329.960 139 C 329.506 139, 328.849 139.900, 328.500 141 M 334.630 153.250 C 334.299 154.488, 334.021 156.913, 334.014 158.639 C 333.995 162.956, 331.042 166.465, 328.190 165.560 C 326.988 165.179, 325.813 163.884, 325.578 162.683 C 325.343 161.483, 324.754 158.475, 324.268 156 L 323.384 151.500 307.174 183.781 C 293.498 211.013, 291.131 216.376, 292.038 218.071 C 295.867 225.226, 311.950 240.796, 323.661 248.688 C 329.622 252.704, 329.391 252.757, 340 244.950 C 346.710 240.013, 360.471 226.371, 365.455 219.716 L 368.289 215.933 352.445 183.466 C 343.731 165.610, 336.294 151, 335.918 151 C 335.541 151, 334.962 152.012, 334.630 153.250 M 33.384 159.412 C 15.480 163.757, 3.543 181.833, 6.993 199.372 C 9.077 209.960, 14.986 218.563, 23.673 223.654 C 27.992 226.185, 41.830 230.214, 43.238 229.350 C 43.644 229.101, 46.569 228.222, 49.738 227.396 C 65.948 223.175, 76.252 210.003, 76.252 193.500 C 76.252 176.888, 65.367 163.178, 49.147 159.360 C 42.397 157.772, 40.111 157.779, 33.384 159.412 M 423.616 159.527 C 422.727 160.416, 422 161.640, 422 162.249 C 422 162.857, 428.844 170.250, 437.208 178.677 L 452.416 194 437.208 209.323 C 428.844 217.750, 422 225.143, 422 225.751 C 422 227.207, 424.995 230.171, 426.087 229.795 C 427.322 229.369, 462 194.757, 462 193.950 C 462 193.157, 427.303 158.640, 426.068 158.205 C 425.608 158.043, 424.505 158.638, 423.616 159.527 M 31.054 167.728 C 25.018 169.859, 17.781 177.260, 15.667 183.463 C 10.058 199.925, 18.847 216.571, 35.250 220.550 L 38 221.217 38 193.608 C 38 172.146, 37.722 166.018, 36.750 166.079 C 36.063 166.122, 33.499 166.864, 31.054 167.728 M 46 193.500 L 46 221.135 48.250 220.475 C 61.167 216.686, 69 206.503, 69 193.500 C 69 180.497, 61.167 170.314, 48.250 166.525 L 46 165.865 46 193.500 M 135.285 223.230 C 116.978 241.506, 102 257.241, 102 258.195 C 102 259.149, 102.870 260.395, 103.934 260.965 C 105.210 261.648, 127.818 262, 170.363 262 C 227.661 262, 235.032 261.825, 236.429 260.429 C 237.293 259.564, 238 258.334, 238 257.695 C 238 255.993, 171.727 190, 170.018 190 C 169.221 190, 153.591 204.953, 135.285 223.230 M 281.901 201.750 C 285.995 209.654, 286.234 209.712, 289.259 203.545 L 291.978 198 285.969 198 L 279.959 198 281.901 201.750 M 370.212 202.500 C 371.415 204.975, 372.750 207, 373.179 207 C 373.893 207, 378 199.793, 378 198.540 C 378 198.243, 375.756 198, 373.013 198 L 368.026 198 370.212 202.500 M 142.500 227 L 115.514 254 170 254 L 224.486 254 197.500 227 C 182.658 212.150, 170.283 200, 170 200 C 169.717 200, 157.342 212.150, 142.500 227 M 279.522 238.957 L 271.987 254 295.059 254 L 318.131 254 310.816 248.117 C 303.644 242.350, 294.955 233.745, 289.702 227.207 L 287.056 223.913 279.522 238.957 M 364.799 231.866 C 361.122 236.192, 354.286 242.829, 349.608 246.616 L 341.103 253.500 363.699 253.769 C 376.127 253.917, 386.477 253.856, 386.700 253.633 C 387.194 253.140, 372.746 224, 372.008 224 C 371.720 224, 368.476 227.540, 364.799 231.866 M 7.571 255.571 C 6.707 256.436, 6 257.529, 6 258 C 6 258.471, 6.707 259.564, 7.571 260.429 C 8.936 261.793, 13.463 262, 42 262 C 70.537 262, 75.064 261.793, 76.429 260.429 C 77.293 259.564, 78 258.471, 78 258 C 78 257.529, 77.293 256.436, 76.429 255.571 C 75.064 254.207, 70.537 254, 42 254 C 13.463 254, 8.936 254.207, 7.571 255.571 " stroke="none" fill="black" fill-rule="evenodd"/>
</svg>