<svg xmlns="http://www.w3.org/2000/svg" width="436" height="324" viewBox="0 0 436 324" version="1.1">
	<path d="M 103.550 30.918 C 99.869 36.875, 86.190 66.331, 86.604 67.410 C 87.269 69.144, 89.524 70.120, 91.295 69.440 C 92.007 69.167, 95.480 63.106, 99.014 55.972 C 102.547 48.837, 105.691 43, 106 43 C 106.309 43, 109.453 48.837, 112.986 55.972 C 116.520 63.106, 119.993 69.167, 120.705 69.440 C 122.487 70.124, 124.732 69.141, 125.407 67.381 C 125.997 65.844, 109.582 32.037, 107.628 30.765 C 106.071 29.751, 104.229 29.820, 103.550 30.918 M 87.213 111.315 C 77.746 120.838, 70 129.131, 70 129.743 C 70 131.175, 72.813 134, 74.239 134 C 74.841 134, 81.334 128.059, 88.667 120.798 L 102 107.595 102 135.226 C 102 159.012, 102.219 163.076, 103.571 164.429 C 104.436 165.293, 105.529 166, 106 166 C 106.471 166, 107.564 165.293, 108.429 164.429 C 109.781 163.076, 110 159.012, 110 135.226 L 110 107.595 123.333 120.798 C 130.666 128.059, 137.159 134, 137.761 134 C 139.187 134, 142 131.175, 142 129.743 C 142 127.994, 107.761 94, 106 94 C 105.134 94, 96.680 101.792, 87.213 111.315 M 344.530 142 L 328.424 158 296.412 158 C 272.847 158, 264.083 158.317, 263.200 159.200 C 262.317 160.083, 262 168.847, 262 192.412 L 262 224.424 246 240.530 C 237.200 249.389, 230 257.137, 230 257.747 C 230 259.182, 232.818 262, 234.253 262 C 234.863 262, 242.611 254.800, 251.470 246 L 267.576 230 299.217 230 C 326.647 230, 331.066 229.791, 332.429 228.429 C 333.790 227.067, 334.003 222.625, 334.022 195.179 L 334.043 163.500 349.473 147.500 C 357.960 138.700, 364.925 130.803, 364.952 129.950 C 365.006 128.223, 363.129 126, 361.619 126 C 361.079 126, 353.389 133.200, 344.530 142 M 406.075 127.861 C 405.276 129.352, 405.972 130.989, 409.583 136.111 C 415.706 144.796, 418.444 153.960, 417.729 163.374 C 416.970 173.356, 414.190 179.814, 406.048 190.505 C 397.665 201.512, 394.505 208.017, 392.849 217.676 C 390.541 231.132, 395.021 246.643, 404.042 256.430 C 408.456 261.219, 410.894 262.038, 413.038 259.454 C 414.105 258.168, 413.958 257.452, 412.166 255.204 C 402.784 243.434, 399.889 236.414, 399.889 225.430 C 399.889 212.944, 401.579 208.615, 411.554 195.540 C 415.187 190.780, 419.586 183.873, 421.330 180.192 C 424.364 173.787, 424.500 172.964, 424.500 161 C 424.500 148.942, 424.384 148.254, 421.212 141.557 C 415.263 128.993, 408.664 123.023, 406.075 127.861 M 23.315 175.213 C 13.792 184.680, 6 193.134, 6 194 C 6 195.761, 39.994 230, 41.743 230 C 43.175 230, 46 227.187, 46 225.761 C 46 225.159, 40.059 218.666, 32.798 211.333 L 19.595 198 47.226 198 C 71.012 198, 75.076 197.781, 76.429 196.429 C 78.402 194.455, 78.402 193.545, 76.429 191.571 C 75.076 190.219, 71.012 190, 47.226 190 L 19.595 190 32.798 176.667 C 40.059 169.334, 46 162.841, 46 162.239 C 46 160.813, 43.175 158, 41.743 158 C 41.131 158, 32.838 165.746, 23.315 175.213 M 167.571 159.571 C 166.707 160.436, 166 161.636, 166 162.239 C 166 162.841, 171.941 169.334, 179.202 176.667 L 192.405 190 164.774 190 C 140.988 190, 136.924 190.219, 135.571 191.571 C 133.598 193.545, 133.598 194.455, 135.571 196.429 C 136.924 197.781, 140.988 198, 164.774 198 L 192.405 198 179.202 211.333 C 171.941 218.666, 166 225.159, 166 225.761 C 166 227.202, 168.832 230, 170.290 230 C 171.969 230, 206 195.693, 206 194 C 206 192.307, 171.969 158, 170.290 158 C 169.659 158, 168.436 158.707, 167.571 159.571 M 270 191.242 L 270 216.485 295 191.500 C 308.750 177.758, 320 166.399, 320 166.258 C 320 166.116, 308.750 166, 295 166 L 270 166 270 191.242 M 300.500 197 L 275.515 222 300.758 222 L 326 222 326 197 C 326 183.250, 325.884 172, 325.742 172 C 325.601 172, 314.242 183.250, 300.500 197 M 103.571 223.571 C 102.219 224.924, 102 228.988, 102 252.774 L 102 280.405 88.667 267.202 C 81.334 259.941, 74.841 254, 74.239 254 C 72.813 254, 70 256.825, 70 258.257 C 70 260.006, 104.239 294, 106 294 C 107.761 294, 142 260.006, 142 258.257 C 142 256.825, 139.187 254, 137.761 254 C 137.159 254, 130.666 259.941, 123.333 267.202 L 110 280.405 110 252.774 C 110 228.988, 109.781 224.924, 108.429 223.571 C 107.564 222.707, 106.471 222, 106 222 C 105.529 222, 104.436 222.707, 103.571 223.571 " stroke="none" fill="black" fill-rule="evenodd"/>
</svg>