<svg xmlns="http://www.w3.org/2000/svg" width="212" height="324" viewBox="0 0 212 324" version="1.1">
	<path d="M 23.200 127.200 C 21.282 129.118, 21.750 130.629, 25.991 136.230 C 31.378 143.344, 34 151.452, 34 161 C 34 171.077, 31.330 178.750, 24.952 187 C 12.031 203.714, 8.767 211.259, 8.729 224.500 C 8.692 237.385, 12.672 248.204, 20.732 257.125 C 24.618 261.426, 28.462 262.272, 29.484 259.049 C 29.924 257.665, 28.848 255.557, 25.777 251.787 C 19.494 244.073, 16.756 237.092, 16.217 227.409 C 15.491 214.387, 18.146 207.796, 30.746 191.348 C 36.803 183.442, 39.607 176.753, 41.094 166.661 C 42.910 154.348, 38.666 139.811, 30.456 130.220 C 26.683 125.812, 25.204 125.196, 23.200 127.200 M 129 126.952 C 113.710 129.127, 101.772 135.177, 90.361 146.535 C 83.602 153.261, 81.453 156.235, 77.688 164.067 C 75.194 169.255, 72.608 176.200, 71.940 179.500 C 70.377 187.231, 70.389 199.871, 71.969 207.500 C 73.587 215.316, 78.986 226.975, 84.161 233.830 L 88.279 239.283 79.639 247.788 C 71.034 256.260, 69.707 258.682, 72.436 260.947 C 74.467 262.632, 76.198 261.456, 85.430 252.116 L 93.360 244.094 98.041 247.530 C 104.924 252.583, 116.588 257.739, 124 259.006 C 127.575 259.617, 132.188 260.478, 134.250 260.920 C 136.313 261.361, 139.688 261.361, 141.750 260.919 C 143.813 260.477, 148.834 259.404, 152.909 258.533 C 175.430 253.722, 194.201 236.391, 201.687 213.500 C 205.350 202.299, 205.540 185.951, 202.135 175.025 C 199.322 165.997, 196.287 159.839, 191.667 153.787 L 188.204 149.250 196.171 141.375 C 204.934 132.714, 206.272 130.873, 205.419 128.650 C 203.940 124.794, 201.574 125.964, 192.426 135.073 L 183.232 144.230 178.052 140.136 C 165.059 129.865, 145.490 124.606, 129 126.952 M 121.500 135.870 C 101.352 141.669, 84.194 159.347, 79.537 179.103 C 77.747 186.698, 77.561 198.825, 79.121 206.201 C 81.159 215.833, 90.339 233, 93.452 233 C 94.064 233, 103.662 223.862, 114.782 212.694 L 135 192.389 135 163.194 L 135 134 131.250 134.071 C 129.188 134.110, 124.800 134.920, 121.500 135.870 M 142 159.611 L 142 185.479 159.958 167.542 C 173.510 154.005, 177.659 149.294, 176.865 148.338 C 172.626 143.230, 156.434 135.657, 147.106 134.420 L 142 133.742 142 159.611 M 162.241 175.259 L 142 195.518 142 224.388 L 142 253.258 147.106 252.580 C 168.464 249.747, 188.133 232.464, 194.995 210.500 C 198.940 197.873, 197.942 181.858, 192.425 169.278 C 189.966 163.672, 184.359 155, 183.193 155 C 182.802 155, 173.373 164.117, 162.241 175.259 M 116.568 220.931 L 98.636 238.885 101.068 240.947 C 105.923 245.065, 119.405 250.977, 126.719 252.194 C 130.689 252.855, 134.184 253.149, 134.486 252.847 C 134.788 252.545, 134.915 241.201, 134.768 227.638 L 134.500 202.977 116.568 220.931 " stroke="none" fill="black" fill-rule="evenodd"/>
</svg>