<svg xmlns="http://www.w3.org/2000/svg" width="276" height="324" viewBox="0 0 276 324" version="1.1">
	<path d="M 39.244 223.256 C 20.960 241.546, 6 257.206, 6 258.056 C 6 261.839, 7.472 262, 42 262 C 66.800 262, 75.914 261.686, 76.800 260.800 C 77.686 259.914, 78 250.800, 78 226 C 78 191.454, 77.840 190, 74.044 190 C 73.189 190, 57.529 204.965, 39.244 223.256 M 44.500 229 L 19.515 254 44.758 254 L 70 254 70 229 C 70 215.250, 69.884 204, 69.742 204 C 69.601 204, 58.242 215.250, 44.500 229 M 103.571 255.571 C 102.707 256.436, 102 257.529, 102 258 C 102 258.471, 102.707 259.564, 103.571 260.429 C 104.968 261.825, 112.372 262, 170 262 C 227.628 262, 235.032 261.825, 236.429 260.429 C 237.293 259.564, 238 258.471, 238 258 C 238 257.529, 237.293 256.436, 236.429 255.571 C 235.032 254.175, 227.628 254, 170 254 C 112.372 254, 104.968 254.175, 103.571 255.571 M 231.571 287.571 C 230.288 288.855, 230 291.788, 230 303.571 L 230 318 167.571 318 C 111.420 318, 104.980 318.162, 103.527 319.616 C 102.638 320.505, 102.081 321.742, 102.289 322.366 C 102.564 323.193, 120.986 323.570, 170.333 323.757 L 238 324.014 238 306.578 C 238 292.061, 237.737 288.880, 236.429 287.571 C 235.564 286.707, 234.471 286, 234 286 C 233.529 286, 232.436 286.707, 231.571 287.571 " stroke="none" fill="black" fill-rule="evenodd"/>
</svg>