<svg xmlns="http://www.w3.org/2000/svg" width="372" height="324" viewBox="0 0 372 324" version="1.1">
	<path d="M 167.571 159.571 C 166.186 160.957, 166 166.918, 166 210 C 166 253.082, 166.186 259.043, 167.571 260.429 C 168.978 261.836, 179.281 262, 266 262 C 352.719 262, 363.022 261.836, 364.429 260.429 C 365.814 259.043, 366 253.082, 366 210 C 366 166.918, 365.814 160.957, 364.429 159.571 C 363.022 158.164, 352.719 158, 266 158 C 179.281 158, 168.978 158.164, 167.571 159.571 M 174 210 L 174 254 266 254 L 358 254 358 210 L 358 166 266 166 L 174 166 174 210 M 327.571 191.571 C 326.288 192.855, 326 195.788, 326 207.571 L 326 222 263.571 222 C 208.152 222, 200.966 222.176, 199.571 223.571 C 197.598 225.545, 197.598 226.455, 199.571 228.429 C 200.968 229.825, 208.372 230, 266 230 C 323.628 230, 331.032 229.825, 332.429 228.429 C 333.733 227.124, 334 223.991, 334 210 C 334 196.009, 333.733 192.876, 332.429 191.571 C 331.564 190.707, 330.471 190, 330 190 C 329.529 190, 328.436 190.707, 327.571 191.571 M 39.571 223.571 C 38.707 224.436, 38 225.636, 38 226.239 C 38 226.841, 43.941 233.334, 51.202 240.667 L 64.405 254 36.774 254 C 12.988 254, 8.924 254.219, 7.571 255.571 C 5.598 257.545, 5.598 258.455, 7.571 260.429 C 8.968 261.825, 16.372 262, 74 262 C 131.628 262, 139.032 261.825, 140.429 260.429 C 142.402 258.455, 142.402 257.545, 140.429 255.571 C 139.076 254.219, 135.012 254, 111.226 254 L 83.595 254 96.798 240.667 C 104.059 233.334, 110 226.841, 110 226.239 C 110 224.817, 107.176 222, 105.751 222 C 105.143 222, 97.750 228.844, 89.323 237.208 L 74 252.416 58.677 237.208 C 50.250 228.844, 42.857 222, 42.249 222 C 41.640 222, 40.436 222.707, 39.571 223.571 " stroke="none" fill="black" fill-rule="evenodd"/>
</svg>