<svg xmlns="http://www.w3.org/2000/svg" width="212" height="324" viewBox="0 0 212 324" version="1.1">
	<path d="M 64.500 63.002 C 56.514 64.203, 51.023 65.952, 43 69.853 C 32.394 75.010, 18.890 88.479, 13.778 99 C 7.648 111.615, 4.334 129.191, 7.491 132.348 C 9.547 134.404, 10.439 134.418, 12.429 132.429 C 13.379 131.478, 14 129.126, 14 126.478 C 14 106.749, 28.156 85.193, 47 76.225 C 57.027 71.453, 63.322 69.995, 73.799 70.015 C 90.457 70.047, 103.920 75.771, 116 87.959 C 126.552 98.605, 133 112.650, 133 124.988 C 133 129.308, 135.075 134, 136.985 134 C 137.465 134, 138.614 133.243, 139.540 132.317 C 140.945 130.912, 141.109 129.479, 140.531 123.614 C 137.455 92.402, 113.515 67.353, 82.678 63.083 C 74.094 61.895, 71.924 61.885, 64.500 63.002 M 64.500 127.002 C 48.813 129.361, 38.222 134.789, 26.461 146.500 C 13.961 158.947, 8.471 170.527, 6.503 188.598 C 5.431 198.440, 3.884 198, 39.571 198 L 70 198 70 228.429 C 70 254.758, 70.212 259.069, 71.571 260.429 C 73.545 262.402, 74.455 262.402, 76.429 260.429 C 77.788 259.069, 78 254.758, 78 228.429 L 78 198 103.339 198 L 128.678 198 116.259 210.250 C 101.628 224.681, 101.058 225.502, 103.778 228.222 C 105.317 229.761, 106.172 229.971, 107.628 229.165 C 108.658 228.595, 116.828 220.767, 125.785 211.768 L 142.070 195.408 140.449 186.011 C 139.557 180.843, 137.798 173.780, 136.541 170.316 C 128.229 147.417, 107.111 130.467, 82.678 127.083 C 74.094 125.895, 71.924 125.885, 64.500 127.002 M 168.200 127.200 C 167.291 128.109, 167 144.328, 167 194.078 C 167 264.854, 166.916 263.721, 171.936 261.034 C 173.989 259.935, 174 259.587, 174 194 C 174 129.841, 173.948 128.043, 172.066 127.035 C 169.655 125.745, 169.655 125.745, 168.200 127.200 M 59.217 135.449 C 42.756 139.435, 27.478 151.839, 20.165 167.154 C 16.488 174.855, 14 183.288, 14 188.049 C 14 189.937, 14.902 190, 42 190 L 70 190 70 162 L 70 134 67.250 134.085 C 65.737 134.132, 62.123 134.746, 59.217 135.449 M 78 162 L 78 190 103.539 190 L 129.077 190 116.478 177.822 C 101.940 163.769, 101.120 162.630, 103.575 159.917 C 104.529 158.863, 105.763 158, 106.316 158 C 106.869 158, 112.874 163.489, 119.661 170.199 C 126.933 177.388, 132 181.715, 132 180.736 C 132 178.364, 128.304 168.808, 125.235 163.242 C 118.594 151.201, 101.947 138.849, 87.897 135.537 C 76.926 132.951, 78 130.080, 78 162 M 200.200 191.200 C 197.181 194.219, 200.247 199.008, 203.936 197.034 C 206.536 195.643, 206.606 192.395, 204.066 191.035 C 201.655 189.745, 201.655 189.745, 200.200 191.200 " stroke="none" fill="black" fill-rule="evenodd"/>
</svg>