<svg xmlns="http://www.w3.org/2000/svg" width="308" height="324" viewBox="0 0 308 324" version="1.1">
	<path d="M 150 1.511 C 150 3.439, 166.581 36.623, 167.974 37.484 C 170.685 39.159, 172.956 36.143, 180.760 20.501 C 185.292 11.417, 189 3.088, 189 1.992 C 189 0.409, 188.329 0, 185.731 0 C 182.543 0, 182.307 0.313, 176.113 12.748 L 169.763 25.496 163.374 12.748 C 157.020 0.070, 156.966 0, 153.492 0 C 151.043 0, 150 0.451, 150 1.511 M 159.500 63.099 C 129.440 67.385, 105.508 92.778, 102.469 123.614 C 101.886 129.538, 102.047 130.905, 103.505 132.362 C 104.455 133.312, 105.742 133.921, 106.366 133.716 C 108.351 133.062, 109.970 128.650, 109.985 123.855 C 110.023 111.847, 117.923 95.962, 128.919 85.781 C 140.403 75.149, 153.540 70, 169.184 70 C 200.699 70, 225.868 93.189, 228.657 124.795 C 229.165 130.545, 229.707 132.308, 231.214 133.115 C 232.595 133.854, 233.565 133.776, 234.696 132.837 C 236.952 130.965, 235.833 117.603, 232.630 108.165 C 229.083 97.712, 224.602 90.666, 215.911 81.876 C 206.264 72.119, 194.305 65.905, 180.619 63.537 C 170.946 61.863, 168.524 61.813, 159.500 63.099 M 159.500 127.099 C 134.779 130.623, 113.175 149.024, 105.555 173.046 C 102.528 182.589, 101.240 194.379, 102.994 196.493 C 104.059 197.776, 108.829 198, 135.122 198 L 166 198 166 228.965 C 166 259.226, 166.047 259.955, 168.064 261.034 C 169.596 261.854, 170.498 261.832, 171.564 260.947 C 172.755 259.958, 173 254.493, 173 228.878 L 173 198 198.736 198 L 224.472 198 211.236 211.263 C 203.956 218.558, 198 225.292, 198 226.228 C 198 227.164, 198.960 228.443, 200.133 229.071 C 202.081 230.114, 203.745 228.753, 219.347 213.356 C 228.741 204.085, 236.607 196.412, 236.825 196.306 C 237.745 195.855, 234.561 177.959, 232.442 171.665 C 229.100 161.738, 224.502 154.564, 215.911 145.876 C 206.264 136.119, 194.305 129.905, 180.619 127.537 C 170.946 125.863, 168.524 125.813, 159.500 127.099 M 263.724 127.134 C 262.119 128.033, 262 132.654, 262 194.015 C 262 256.133, 262.102 259.984, 263.776 260.880 C 264.902 261.483, 266.182 261.478, 267.276 260.866 C 268.881 259.967, 269 255.346, 269 193.985 C 269 131.867, 268.898 128.016, 267.224 127.120 C 266.098 126.517, 264.818 126.522, 263.724 127.134 M 153.345 135.904 C 133.800 141.497, 117.940 157.045, 112.080 176.355 C 110.936 180.126, 110 184.738, 110 186.605 L 110 190 138 190 L 166 190 166 162 L 166 134 162.750 134.071 C 160.963 134.110, 156.730 134.935, 153.345 135.904 M 173 162 L 173 190 198.736 190 L 224.472 190 211.236 176.737 C 203.956 169.442, 198 162.708, 198 161.772 C 198 160.836, 198.959 159.557, 200.131 158.930 C 202.069 157.892, 203.421 158.947, 215.131 170.630 C 222.209 177.693, 227.995 183.028, 227.989 182.486 C 227.965 180.310, 224.931 171.654, 222.487 166.787 C 214.494 150.873, 200.999 140.045, 183.540 135.539 C 180.262 134.692, 176.549 134, 175.290 134 L 173 134 173 162 M 7.585 191.558 C 5.595 193.548, 5.595 194.452, 7.585 196.442 C 8.978 197.835, 13.159 197.995, 42.226 197.763 C 72.452 197.523, 75.377 197.350, 76.386 195.750 C 77.191 194.474, 77.191 193.526, 76.386 192.250 C 75.377 190.650, 72.452 190.477, 42.226 190.237 C 13.159 190.005, 8.978 190.165, 7.585 191.558 M 295.724 191.134 C 291.838 193.309, 295.294 198.983, 299.224 196.880 C 300.201 196.357, 301 195.061, 301 194 C 301 191.485, 298.005 189.858, 295.724 191.134 " stroke="none" fill="black" fill-rule="evenodd"/>
</svg>