<svg xmlns="http://www.w3.org/2000/svg" width="244" height="324" viewBox="0 0 244 324" version="1.1">
	<path d="M 167.750 127.080 C 166.143 128.016, 166 130.628, 166 159.050 L 166 190 135.571 190 C 109.242 190, 104.931 190.212, 103.571 191.571 C 101.598 193.545, 101.598 194.455, 103.571 196.429 C 104.931 197.788, 109.242 198, 135.571 198 L 166 198 166 226 L 166 254 135.571 254 C 109.242 254, 104.931 254.212, 103.571 255.571 C 101.596 257.546, 101.598 258.455, 103.579 260.436 C 104.990 261.847, 112.058 261.987, 170.220 261.757 C 230.934 261.517, 235.356 261.383, 236.386 259.750 C 237.191 258.474, 237.191 257.526, 236.386 256.250 C 235.381 254.655, 232.566 254.477, 204.641 254.236 L 174 253.971 174 226 L 174 198.029 204.641 197.764 C 232.566 197.523, 235.381 197.345, 236.386 195.750 C 237.191 194.474, 237.191 193.526, 236.386 192.250 C 235.381 190.655, 232.566 190.477, 204.641 190.236 L 174 189.971 174 159.557 C 174 133.241, 173.788 128.931, 172.429 127.571 C 170.607 125.750, 170.121 125.699, 167.750 127.080 M 7.571 191.571 C 6.707 192.436, 6 193.529, 6 194 C 6 194.471, 6.707 195.564, 7.571 196.429 C 8.936 197.793, 13.463 198, 42 198 C 70.537 198, 75.064 197.793, 76.429 196.429 C 77.293 195.564, 78 194.471, 78 194 C 78 193.529, 77.293 192.436, 76.429 191.571 C 75.064 190.207, 70.537 190, 42 190 C 13.463 190, 8.936 190.207, 7.571 191.571 " stroke="none" fill="black" fill-rule="evenodd"/>
</svg>