<svg xmlns="http://www.w3.org/2000/svg" width="340" height="324" viewBox="0 0 340 324" version="1.1">
	<path d="M 160.169 62.968 C 128.769 67.876, 105.932 92.110, 102.499 124.168 C 101.924 129.530, 102.094 130.951, 103.473 132.330 C 107.035 135.892, 110 132.852, 110 125.639 C 110 107.257, 123.731 86.008, 141.603 76.732 C 164.976 64.601, 193.035 68.870, 211.404 87.351 C 215.422 91.393, 219.931 97.188, 221.780 100.686 C 225.503 107.731, 229 120.277, 229 126.589 C 229 130.479, 230.839 134, 232.871 134 C 236.257 134, 237.072 123.652, 234.490 113.460 C 233.660 110.182, 231.122 103.704, 228.850 99.065 C 221.016 83.065, 203.789 69.061, 186.500 64.638 C 178.766 62.659, 166.943 61.909, 160.169 62.968 M 167.667 126.750 C 165.535 130.293, 102 258.198, 102 258.947 C 102 261.752, 107.552 262, 170.363 262 C 227.661 262, 235.032 261.825, 236.429 260.429 C 237.293 259.564, 238 258.663, 238 258.426 C 238 257.155, 172.584 127.384, 171.631 126.765 C 170.159 125.809, 168.237 125.802, 167.667 126.750 M 140.747 196.500 L 112.002 254 169.501 254 C 201.126 254, 227.011 253.662, 227.023 253.250 C 227.060 252.091, 170.648 139, 170.034 139 C 169.736 139, 156.557 164.875, 140.747 196.500 M 33.384 159.357 C 15.366 163.922, 3.545 181.845, 6.993 199.372 C 9.077 209.960, 14.986 218.563, 23.673 223.654 C 27.992 226.185, 41.830 230.214, 43.238 229.350 C 43.644 229.101, 46.569 228.222, 49.738 227.396 C 70.608 221.962, 81.640 200.609, 73.963 180.507 C 68.039 164.996, 49.424 155.293, 33.384 159.357 M 290.355 158.986 C 279.790 161.214, 270.114 169.146, 265.329 179.500 C 261.374 188.059, 261.386 198.895, 265.361 207.610 C 268.863 215.289, 275.690 222.075, 283.492 225.635 C 288.376 227.863, 290.873 228.359, 296.992 228.319 C 307.272 228.252, 314.505 225.383, 321.342 218.661 C 329.431 210.707, 331.477 205.626, 331.477 193.500 C 331.477 181.374, 329.431 176.293, 321.342 168.339 C 313.368 160.498, 300.953 156.751, 290.355 158.986 M 31.054 167.728 C 25.018 169.859, 17.781 177.260, 15.667 183.463 C 10.058 199.925, 18.847 216.571, 35.250 220.550 L 38 221.217 38 193.608 C 38 172.146, 37.722 166.018, 36.750 166.079 C 36.063 166.122, 33.499 166.864, 31.054 167.728 M 46 193.500 L 46 221.135 48.250 220.448 C 56.638 217.886, 63.034 212.627, 66.470 205.467 C 68.918 200.365, 69.597 191.204, 67.960 185.357 C 65.541 176.717, 57.808 169.329, 48.250 166.525 L 46 165.865 46 193.500 M 287.885 167.380 C 269.769 173.854, 263.842 196.856, 276.447 211.770 C 283.247 219.815, 296.663 223.310, 306.427 219.581 C 320.194 214.323, 327.798 200.020, 324.098 186.343 C 320.899 174.521, 309.747 165.958, 297.663 166.044 C 294.273 166.068, 289.873 166.669, 287.885 167.380 M 295.750 191.080 C 293.372 192.465, 293.542 195.685, 296.064 197.034 C 299.753 199.008, 302.819 194.219, 299.800 191.200 C 298.367 189.767, 298.022 189.757, 295.750 191.080 M 7.571 255.571 C 6.707 256.436, 6 257.529, 6 258 C 6 258.471, 6.707 259.564, 7.571 260.429 C 8.936 261.793, 13.463 262, 42 262 C 70.537 262, 75.064 261.793, 76.429 260.429 C 77.293 259.564, 78 258.471, 78 258 C 78 257.529, 77.293 256.436, 76.429 255.571 C 75.064 254.207, 70.537 254, 42 254 C 13.463 254, 8.936 254.207, 7.571 255.571 " stroke="none" fill="black" fill-rule="evenodd"/>
</svg>