<svg xmlns="http://www.w3.org/2000/svg" width="532" height="324" viewBox="0 0 532 324" version="1.1">
	<path d="M 454.612 64.250 C 453.823 65.487, 438.852 95.187, 421.343 130.249 C 395.098 182.805, 389.702 194.305, 390.612 195.749 C 391.559 197.253, 393.636 197.539, 405.357 197.778 C 412.861 197.931, 419 198.267, 419 198.524 C 419 198.781, 412.365 212.269, 404.257 228.498 C 392.170 252.689, 389.712 258.320, 390.616 259.752 C 391.643 261.382, 396.081 261.519, 456.109 261.776 C 491.524 261.928, 521.463 261.819, 522.640 261.535 C 523.817 261.250, 525.047 260.321, 525.373 259.469 C 525.722 258.561, 519.775 245.542, 510.980 227.961 L 495.994 198 509.425 198 C 520.303 198, 523.156 197.701, 524.429 196.429 C 525.293 195.564, 526 194.663, 526 194.426 C 526 193.155, 460.584 63.384, 459.631 62.765 C 457.647 61.476, 456.086 61.938, 454.612 64.250 M 428.747 132.500 L 400.002 190 411.764 190 L 423.526 190 439.013 158.930 C 447.531 141.841, 455.041 127.404, 455.702 126.847 C 458.692 124.328, 460.807 127.586, 476.250 158.489 L 491.996 190 503.498 190 C 509.824 190, 515 189.773, 515 189.497 C 515 188.838, 458.074 75, 457.744 75 C 457.605 75, 444.557 100.875, 428.747 132.500 M 131.434 126.889 C 125.093 127.975, 116.609 132.615, 112.180 137.421 C 103.520 146.816, 100.904 156.431, 103.493 169.353 C 108.947 196.582, 120.653 218.610, 140 238.051 C 149.231 247.328, 167.249 261, 170.243 261 C 170.733 261, 172.792 259.663, 174.817 258.030 C 176.843 256.396, 182.191 252.329, 186.702 248.992 C 201.247 238.230, 214.791 221.743, 223.526 204.162 C 232.027 187.055, 237.511 165.812, 235.941 156.078 C 234.679 148.256, 230.636 140.758, 224.901 135.601 C 208.881 121.197, 183.491 124.586, 172.005 142.662 L 169.360 146.824 167.471 143.317 C 161.471 132.175, 144.841 124.594, 131.434 126.889 M 295.667 126.750 C 295.418 127.162, 280.491 156.956, 262.494 192.959 C 237.750 242.460, 230.010 258.793, 230.746 259.959 C 231.602 261.316, 239.389 261.533, 296.109 261.776 C 331.524 261.928, 361.463 261.819, 362.640 261.535 C 363.817 261.250, 365.046 260.322, 365.373 259.471 C 365.989 257.866, 301.713 128.117, 299.631 126.765 C 298.159 125.809, 296.237 125.802, 295.667 126.750 M 127.463 135.591 C 114.394 140.232, 107.876 153.512, 110.961 169.217 C 115.658 193.134, 127.691 215.669, 145.011 232.989 C 152.307 240.285, 167.397 252, 169.500 252 C 169.870 252, 173.505 249.697, 177.577 246.881 C 202.381 229.734, 221.142 201.224, 227.495 171.022 C 229.754 160.285, 229.453 156.225, 225.864 149.043 C 222.620 142.551, 217.340 137.780, 210.684 135.326 C 206.110 133.640, 197.095 133.748, 191.795 135.554 C 182.288 138.793, 174 149.539, 174 158.625 C 174 162.910, 172.115 166, 169.500 166 C 167.012 166, 165 162.910, 165 159.088 C 165 153.811, 159.742 143.755, 155.031 140.024 C 147.647 134.176, 136.497 132.384, 127.463 135.591 M 268.747 196.500 L 240.002 254 297.608 254 C 343.292 254, 355.111 253.741, 354.715 252.750 C 352.830 248.028, 298.544 139, 298.078 139 C 297.756 139, 284.557 164.875, 268.747 196.500 M 428.747 196.500 L 400.002 254 457.501 254 C 489.126 254, 515 253.773, 515 253.497 C 515 252.838, 458.074 139, 457.744 139 C 457.605 139, 444.557 164.875, 428.747 196.500 M 292.764 174.996 C 287.184 176.676, 283.145 180.067, 280.571 185.234 C 279.157 188.071, 278 191.397, 278 192.625 C 278 194.848, 280.355 198, 282.015 198 C 283.484 198, 286 193.693, 286 191.177 C 286 189.807, 287.440 187.360, 289.400 185.400 C 292.278 182.522, 293.504 182, 297.384 182 C 301.036 182, 302.632 182.593, 305.234 184.918 C 308.194 187.563, 308.500 188.367, 308.500 193.500 C 308.500 198.633, 308.194 199.437, 305.234 202.082 C 303.438 203.687, 300.883 205, 299.556 205 C 295.018 205, 294 207.291, 294 217.500 C 294 224.673, 294.367 227.224, 295.571 228.429 C 297.678 230.535, 298.598 230.412, 300.443 227.777 C 301.477 226.302, 302 223.300, 302 218.845 C 302 212.942, 302.248 212.056, 304.066 211.479 C 307.044 210.534, 312.851 205.190, 314.623 201.763 C 316.578 197.982, 316.578 189.018, 314.623 185.237 C 312.452 181.039, 306.683 176.284, 302.277 175.060 C 297.951 173.859, 296.571 173.849, 292.764 174.996 M 7.571 191.571 C 6.707 192.436, 6 193.529, 6 194 C 6 194.471, 6.707 195.564, 7.571 196.429 C 8.936 197.793, 13.463 198, 42 198 C 70.537 198, 75.064 197.793, 76.429 196.429 C 77.293 195.564, 78 194.471, 78 194 C 78 193.529, 77.293 192.436, 76.429 191.571 C 75.064 190.207, 70.537 190, 42 190 C 13.463 190, 8.936 190.207, 7.571 191.571 M 295.616 238.527 C 294.727 239.416, 294 240.529, 294 241 C 294 242.389, 297.140 245.120, 298.295 244.735 C 300.395 244.035, 301.549 241.094, 300.423 239.310 C 298.905 236.902, 297.474 236.669, 295.616 238.527 " stroke="none" fill="black" fill-rule="evenodd"/>
</svg>