<svg xmlns="http://www.w3.org/2000/svg" width="212" height="324" viewBox="0 0 212 324" version="1.1">
	<path d="M 72.372 62.765 C 70.418 64.037, 54.003 97.844, 54.593 99.381 C 55.268 101.141, 57.513 102.124, 59.295 101.440 C 60.007 101.167, 63.480 95.106, 67.014 87.972 C 70.547 80.837, 73.692 75, 74.003 75 C 74.313 75, 77.252 80.432, 80.533 87.070 C 83.815 93.709, 87.222 99.795, 88.105 100.594 C 89.890 102.210, 92.550 101.615, 93.396 99.410 C 93.993 97.855, 77.631 64.022, 75.684 62.784 C 74.211 61.847, 73.786 61.845, 72.372 62.765 M 67 126.580 C 49.071 129.609, 38.129 134.764, 27.164 145.349 C 15.107 156.987, 8.421 170.983, 6.503 188.598 C 5.964 193.549, 6.150 195.007, 7.491 196.348 C 9.547 198.404, 10.439 198.418, 12.429 196.429 C 13.404 195.453, 14.006 193.082, 14.015 190.179 C 14.091 166.127, 34.559 141.323, 59.103 135.537 C 67.422 133.577, 80.634 133.591, 88.269 135.570 C 112.793 141.924, 133 166.056, 133 188.988 C 133 191.503, 133.699 194.554, 134.557 195.777 C 136.104 197.986, 136.293 198, 164.807 198.006 L 193.500 198.012 180.027 211.424 C 172.617 218.800, 166.421 225.237, 166.257 225.728 C 166.094 226.219, 172.064 232.669, 179.525 240.061 L 193.091 253.500 164.903 254 C 139.472 254.451, 136.608 254.671, 135.613 256.250 C 134.809 257.526, 134.809 258.474, 135.613 259.750 C 136.608 261.329, 139.470 261.549, 164.874 262 L 193.032 262.500 180.016 275.486 C 172.857 282.628, 167 289.175, 167 290.036 C 167 291.791, 168.886 294, 170.385 294 C 172.016 294, 206 259.696, 206 258.049 C 206 257.210, 199.143 249.656, 190.762 241.262 L 175.524 226 190.762 210.738 C 199.143 202.344, 206 194.790, 206 193.951 C 206 192.304, 172.016 158, 170.385 158 C 168.896 158, 167 160.204, 167 161.937 C 167 162.782, 172.956 169.442, 180.236 176.737 L 193.472 190 167.281 190 L 141.091 190 140.504 186.250 C 139.242 178.173, 136.528 169.326, 133.391 163.059 C 125.221 146.739, 108.325 133.177, 90.500 128.632 C 84.129 127.008, 71.167 125.876, 67 126.580 " stroke="none" fill="black" fill-rule="evenodd"/>
</svg>