<svg xmlns="http://www.w3.org/2000/svg" width="244" height="324" viewBox="0 0 244 324" version="1.1">
	<path d="M 40.316 62.784 C 38.369 64.022, 22.007 97.855, 22.604 99.410 C 23.269 101.144, 25.524 102.120, 27.295 101.440 C 28.007 101.167, 31.480 95.106, 35.014 87.972 C 38.547 80.837, 41.691 75, 42 75 C 42.309 75, 45.453 80.837, 48.986 87.972 C 52.520 95.106, 55.993 101.167, 56.705 101.440 C 58.487 102.124, 60.732 101.141, 61.407 99.381 C 61.997 97.844, 45.582 64.037, 43.628 62.765 C 42.214 61.845, 41.789 61.847, 40.316 62.784 M 103.571 127.571 C 102.175 128.968, 102 136.372, 102 194 C 102 251.628, 102.175 259.032, 103.571 260.429 C 105.678 262.535, 106.598 262.412, 108.443 259.777 C 109.813 257.823, 110 249.904, 110 194 C 110 138.096, 109.813 130.177, 108.443 128.223 C 106.598 125.588, 105.678 125.465, 103.571 127.571 M 167.571 127.571 C 166.175 128.968, 166 136.372, 166 194 C 166 251.628, 166.175 259.032, 167.571 260.429 C 169.457 262.315, 170.219 262.381, 171.800 260.800 C 173.535 259.065, 173.535 128.935, 171.800 127.200 C 170.219 125.619, 169.457 125.685, 167.571 127.571 M 199.571 159.571 C 197.215 161.927, 197.215 210.073, 199.571 212.429 C 201.457 214.315, 202.219 214.381, 203.800 212.800 C 205.508 211.092, 205.508 160.908, 203.800 159.200 C 202.219 157.619, 201.457 157.685, 199.571 159.571 M 40.348 190.765 C 38.390 192.014, 6.011 257.865, 6.600 259.400 C 7.266 261.135, 9.518 262.122, 11.274 261.448 C 11.975 261.180, 19.056 247.919, 27.010 231.980 C 34.964 216.041, 41.710 203, 42 203 C 42.290 203, 49.036 216.041, 56.990 231.980 C 64.944 247.919, 72.025 261.180, 72.726 261.448 C 74.488 262.124, 76.735 261.133, 77.406 259.384 C 77.993 257.855, 45.599 192.045, 43.630 190.765 C 43.009 190.361, 42.275 190.031, 42 190.031 C 41.725 190.031, 40.981 190.361, 40.348 190.765 M 199.616 222.527 C 198.727 223.416, 198 224.529, 198 225 C 198 226.389, 201.140 229.120, 202.295 228.735 C 204.395 228.035, 205.549 225.094, 204.423 223.310 C 202.905 220.902, 201.474 220.669, 199.616 222.527 " stroke="none" fill="black" fill-rule="evenodd"/>
</svg>