<svg xmlns="http://www.w3.org/2000/svg" width="244" height="324" viewBox="0 0 244 324" version="1.1">
	<path d="M 23.571 63.571 C 22.707 64.436, 22 65.609, 22 66.178 C 22 66.747, 25.226 70.540, 29.169 74.607 L 36.338 82 29.169 89.393 C 25.226 93.460, 22 97.253, 22 97.822 C 22 99.161, 24.839 102, 26.178 102 C 26.747 102, 30.540 98.774, 34.607 94.831 L 42 87.662 49.393 94.831 C 53.460 98.774, 57.253 102, 57.822 102 C 59.161 102, 62 99.161, 62 97.822 C 62 97.253, 58.774 93.460, 54.831 89.393 L 47.662 82 54.831 74.607 C 58.774 70.540, 62 66.747, 62 66.178 C 62 64.839, 59.161 62, 57.822 62 C 57.253 62, 53.460 65.226, 49.393 69.169 L 42 76.338 34.607 69.169 C 30.540 65.226, 26.747 62, 26.178 62 C 25.609 62, 24.436 62.707, 23.571 63.571 M 39.571 127.571 C 38.176 128.966, 38 136.152, 38 191.571 L 38 254 23.571 254 C 11.788 254, 8.855 254.288, 7.571 255.571 C 5.598 257.545, 5.598 258.455, 7.571 260.429 C 8.936 261.793, 13.463 262, 42 262 C 70.537 262, 75.064 261.793, 76.429 260.429 C 77.293 259.564, 78 258.471, 78 258 C 78 257.529, 77.293 256.436, 76.429 255.571 C 75.145 254.288, 72.212 254, 60.429 254 L 46 254 46 191.571 C 46 136.152, 45.824 128.966, 44.429 127.571 C 43.564 126.707, 42.471 126, 42 126 C 41.529 126, 40.436 126.707, 39.571 127.571 M 159.531 127.056 C 142.492 129.702, 127.776 138.391, 116.586 152.416 C 110.814 159.650, 107.906 165.262, 104.870 175.025 C 101.620 185.475, 101.629 201.316, 104.892 212 C 107.610 220.902, 111.762 228.993, 116.438 234.500 L 119.835 238.500 110.917 247.615 C 106.013 252.629, 102 257.209, 102 257.794 C 102 259.169, 104.831 262, 106.206 262 C 106.791 262, 111.371 257.995, 116.385 253.101 L 125.500 244.202 129.933 247.637 C 135.930 252.285, 145.570 256.762, 153.200 258.443 C 165.272 261.102, 170.170 261.678, 173.823 260.869 C 175.845 260.421, 180.425 259.509, 184 258.843 C 194.663 256.858, 207.077 249.981, 216.026 241.103 C 229.580 227.657, 236 212.394, 236 193.617 C 236 178.308, 232.713 167.813, 223.784 154.618 L 219.804 148.736 228.402 140.098 C 237.035 131.425, 238.224 129.260, 235.564 127.053 C 233.534 125.368, 231.801 126.545, 222.602 135.851 L 214.704 143.842 209.602 140.029 C 195.291 129.337, 176.387 124.439, 159.531 127.056 M 153.500 135.893 C 132.956 141.888, 116.807 158.285, 111.543 178.495 C 109.563 186.096, 109.563 200.904, 111.543 208.505 C 113.429 215.745, 118.073 225.295, 121.995 230 L 124.913 233.500 145.457 213.009 L 166 192.518 166 163.259 L 166 134 162.750 134.071 C 160.963 134.110, 156.800 134.930, 153.500 135.893 M 173 159.747 L 173 185.493 191.250 167.238 L 209.500 148.983 206.500 146.479 C 202.105 142.812, 188.312 136.347, 182.201 135.090 C 172.053 133.003, 173 130.465, 173 159.747 M 193.218 175.306 L 173 195.611 173 224.306 L 173 253 175.290 253 C 176.549 253, 180.262 252.318, 183.540 251.485 C 215.928 243.252, 235.260 210.795, 227.003 178.511 C 224.606 169.140, 217.001 155, 214.358 155 C 213.851 155, 204.338 164.138, 193.218 175.306 M 148.339 220.578 C 139.077 230.246, 131.373 238.502, 131.218 238.924 C 130.877 239.853, 136.768 243.835, 143.621 247.308 C 149.082 250.075, 159.242 253, 163.394 253 L 166 253 166 228 C 166 214.250, 165.815 203, 165.589 203 C 165.363 203, 157.600 210.910, 148.339 220.578 " stroke="none" fill="black" fill-rule="evenodd"/>
</svg>