<svg xmlns="http://www.w3.org/2000/svg" width="308" height="324" viewBox="0 0 308 324" version="1.1">
	<path d="M 55.571 63.571 C 54.707 64.436, 54 65.317, 54 65.531 C 54 66.316, 71.159 100.529, 71.965 101.349 C 74.275 103.702, 76.913 100.229, 84.760 84.501 C 89.292 75.417, 93 67.143, 93 66.115 C 93 63.770, 90.710 61.790, 88.832 62.511 C 88.050 62.811, 84.520 68.894, 80.986 76.028 C 77.453 83.163, 74.306 89, 73.994 89 C 73.683 89, 70.969 83.984, 67.964 77.854 C 62.437 66.580, 59.559 62, 57.999 62 C 57.528 62, 56.436 62.707, 55.571 63.571 M 64.500 126.944 C 56.325 128.268, 50.930 129.991, 43 133.814 C 32.442 138.905, 18.925 152.405, 13.780 163 C 6.893 177.182, 6.744 178.323, 6.267 220.597 C 5.879 255.050, 5.996 258.853, 7.490 260.347 C 8.993 261.850, 14.995 261.999, 73.821 261.985 C 109.395 261.976, 139.097 261.591, 139.826 261.129 C 140.888 260.455, 141.130 253.639, 141.040 226.916 C 140.979 208.562, 140.487 190.385, 139.947 186.523 C 137.533 169.250, 132.116 158.088, 120.457 146.361 C 113.703 139.568, 110.806 137.478, 102.933 133.719 C 97.745 131.242, 91.475 128.743, 89 128.165 C 82.400 126.623, 70.232 126.016, 64.500 126.944 M 167.200 127.200 C 165.465 128.935, 165.465 259.065, 167.200 260.800 C 168.935 262.535, 298.065 262.535, 299.800 260.800 C 301.535 259.065, 301.535 128.935, 299.800 127.200 C 298.065 125.465, 168.935 125.465, 167.200 127.200 M 58.645 135.584 C 38.761 140.397, 20.825 158.334, 15.585 178.644 C 14.287 183.676, 14 191.058, 14 219.394 L 14 254 74.115 254 L 134.230 254 133.747 220.250 C 133.313 189.886, 133.050 185.708, 131.135 178.601 C 126.534 161.531, 115.040 147.419, 99.820 140.153 C 95.244 137.968, 89.115 135.690, 86.201 135.090 C 79.038 133.617, 65.791 133.854, 58.645 135.584 M 206 161.500 L 233.486 189 260.743 161.757 C 275.734 146.773, 288 134.398, 288 134.257 C 288 134.116, 263.366 134, 233.257 134 L 178.514 134 206 161.500 M 173 194 L 173 249.495 200.748 221.748 L 228.495 194 200.748 166.252 L 173 138.505 173 194 M 265.998 166.502 L 238.509 194.005 266.255 221.750 L 294 249.495 294 194.248 C 294 163.861, 293.884 139, 293.743 139 C 293.602 139, 281.116 151.376, 265.998 166.502 M 206 226.500 L 178.514 254 233.500 254 L 288.486 254 261 226.500 C 245.883 211.375, 233.508 199, 233.500 199 C 233.492 199, 221.117 211.375, 206 226.500 " stroke="none" fill="black" fill-rule="evenodd"/>
</svg>