<svg xmlns="http://www.w3.org/2000/svg" width="212" height="324" viewBox="0 0 212 324" version="1.1">
	<path d="M 39.267 159.267 C 20.970 177.563, 6 193.056, 6 193.695 C 6 195.186, 8.799 198, 10.282 198 C 10.909 198, 24.602 184.848, 40.711 168.773 L 70 139.545 70 166.779 L 70 194.012 54.016 225.967 C 44.623 244.746, 38.278 258.560, 38.627 259.470 C 38.953 260.321, 40.183 261.252, 41.360 261.538 C 42.537 261.825, 58.076 261.933, 75.891 261.779 C 103.971 261.537, 108.414 261.292, 109.268 259.938 C 110.017 258.749, 106.393 250.678, 94.127 226.221 L 78 194.068 78 166.943 L 78 139.818 107.571 168.659 C 123.835 184.522, 137.507 197.633, 137.955 197.795 C 139.023 198.182, 142 195.178, 142 193.713 C 142 191.987, 75.769 126, 74.037 126 C 73.210 126, 57.563 140.970, 39.267 159.267 M 167.043 128.448 C 165.477 130.335, 166.369 131.766, 172.586 137.335 C 197.346 159.513, 204.471 197.306, 189.511 227.114 C 185.008 236.087, 178.474 244.612, 171.458 250.669 C 165.981 255.398, 164.969 257.569, 167.200 259.800 C 169.454 262.054, 171.185 260.994, 180.340 251.750 C 194.511 237.440, 201.965 222.060, 204.268 202.379 C 207.129 177.928, 198.703 153.891, 180.913 135.754 C 172.302 126.976, 169.493 125.496, 167.043 128.448 M 60.743 228.500 L 48.005 254 74 254 L 99.995 254 87.257 228.500 C 80.250 214.475, 74.285 203, 74 203 C 73.715 203, 67.750 214.475, 60.743 228.500 " stroke="none" fill="black" fill-rule="evenodd"/>
</svg>