<svg xmlns="http://www.w3.org/2000/svg" width="340" height="324" viewBox="0 0 340 324" version="1.1">
	<path d="M 72.316 62.784 C 70.369 64.022, 54.007 97.855, 54.604 99.410 C 55.269 101.144, 57.524 102.120, 59.295 101.440 C 60.007 101.167, 63.480 95.106, 67.014 87.972 C 70.547 80.837, 73.691 75, 74 75 C 74.309 75, 77.453 80.837, 80.986 87.972 C 84.520 95.106, 87.993 101.167, 88.705 101.440 C 90.487 102.124, 92.732 101.141, 93.407 99.381 C 93.997 97.844, 77.582 64.037, 75.628 62.765 C 74.214 61.845, 73.789 61.847, 72.316 62.784 M 63.057 127.167 C 55.159 128.295, 43.641 132.804, 36.433 137.588 C 33.468 139.556, 27.949 144.479, 24.168 148.528 C 13.801 159.628, 8.225 172.265, 6.488 188.598 C 5.401 198.807, 0.053 198, 68.774 198 L 128.405 198 115.202 211.333 C 107.941 218.666, 102 225.159, 102 225.761 C 102 227.178, 104.822 230, 106.239 230 C 106.841 230, 113.334 224.059, 120.667 216.798 L 134 203.595 134 231.226 C 134 255.012, 134.219 259.076, 135.571 260.429 C 137.545 262.402, 138.455 262.402, 140.429 260.429 C 141.825 259.032, 142 251.628, 142 194 C 142 136.372, 141.825 128.968, 140.429 127.571 C 138.455 125.598, 137.545 125.598, 135.571 127.571 C 134.262 128.881, 134 132.078, 134 146.763 L 134 164.382 130.442 158.441 C 120.521 141.872, 102.163 129.895, 82.284 127.020 C 74.443 125.887, 71.884 125.906, 63.057 127.167 M 58.645 135.584 C 38.562 140.445, 20.305 158.877, 15.537 179.103 C 14.708 182.621, 14.023 186.512, 14.015 187.750 L 14 190 71.202 190 L 128.405 190 115.202 176.667 C 107.941 169.334, 102 162.841, 102 162.239 C 102 160.825, 104.820 158, 106.232 158 C 106.831 158, 112.933 163.512, 119.791 170.250 C 133.118 183.343, 133.357 183.375, 128.904 171.474 C 122.511 154.387, 106.283 140.279, 87.540 135.515 C 80.213 133.653, 66.488 133.685, 58.645 135.584 M 290.355 158.986 C 279.790 161.214, 270.114 169.146, 265.329 179.500 C 261.374 188.059, 261.386 198.895, 265.361 207.610 C 268.861 215.285, 275.689 222.075, 283.480 225.629 C 291.387 229.236, 301.732 229.409, 310.297 226.077 C 317.354 223.331, 325.569 215.634, 329.056 208.500 C 331.152 204.212, 331.500 202.075, 331.500 193.500 C 331.500 181.367, 329.450 176.286, 321.353 168.339 C 313.361 160.497, 300.948 156.752, 290.355 158.986 M 287.627 167.468 C 282.247 169.386, 277.039 173.829, 273.500 179.519 C 269.527 185.908, 268.712 197.311, 271.741 204.129 C 276.389 214.589, 284.227 220.058, 295.616 220.789 C 302.399 221.224, 303.556 221.001, 309.397 218.125 C 321.374 212.229, 327.511 198.958, 324.096 186.337 C 320.933 174.647, 309.616 165.959, 297.663 166.044 C 294.273 166.068, 289.757 166.709, 287.627 167.468 M 167.585 191.558 C 166.713 192.430, 166 193.529, 166 194 C 166 194.471, 166.713 195.570, 167.585 196.442 C 168.978 197.835, 173.159 197.995, 202.226 197.763 C 232.452 197.523, 235.377 197.350, 236.386 195.750 C 237.191 194.474, 237.191 193.526, 236.386 192.250 C 235.377 190.650, 232.452 190.477, 202.226 190.237 C 173.159 190.005, 168.978 190.165, 167.585 191.558 M 263.750 255.073 C 261.413 256.444, 261.527 259.677, 263.960 260.979 C 265.243 261.665, 277.208 261.936, 298.601 261.764 C 328.469 261.523, 331.378 261.349, 332.386 259.750 C 333.191 258.474, 333.191 257.526, 332.386 256.250 C 331.377 254.649, 328.483 254.481, 298.391 254.273 C 277.280 254.127, 264.873 254.414, 263.750 255.073 " stroke="none" fill="black" fill-rule="evenodd"/>
</svg>