<svg xmlns="http://www.w3.org/2000/svg" width="212" height="324" viewBox="0 0 212 324" version="1.1">
	<path d="M 39.267 159.267 C 20.970 177.563, 6 193.056, 6 193.695 C 6 195.186, 8.799 198, 10.282 198 C 10.909 198, 24.602 184.848, 40.711 168.773 L 70 139.545 70 166.779 L 70 194.012 54.016 225.967 C 45.225 243.542, 38.285 258.580, 38.594 259.384 C 39.265 261.133, 41.512 262.124, 43.274 261.448 C 43.975 261.180, 51.056 247.919, 59.010 231.980 C 66.964 216.041, 73.710 203, 74 203 C 74.291 203, 80.822 215.627, 88.514 231.060 C 96.206 246.493, 103.222 259.779, 104.105 260.584 C 105.896 262.217, 108.549 261.617, 109.406 259.384 C 109.715 258.580, 102.767 243.528, 93.968 225.935 L 77.968 193.948 78.234 166.724 L 78.500 139.500 108.022 168.750 C 124.259 184.838, 137.840 198, 138.201 198 C 139.287 198, 142 194.939, 142 193.713 C 142 191.987, 75.769 126, 74.037 126 C 73.210 126, 57.563 140.970, 39.267 159.267 M 167.043 128.448 C 165.477 130.335, 166.369 131.766, 172.586 137.335 C 197.371 159.536, 204.486 197.276, 189.511 227.114 C 185.008 236.087, 178.474 244.612, 171.458 250.669 C 165.981 255.398, 164.969 257.569, 167.200 259.800 C 169.454 262.054, 171.185 260.994, 180.340 251.750 C 194.511 237.440, 201.965 222.060, 204.268 202.379 C 207.129 177.928, 198.703 153.891, 180.913 135.754 C 172.302 126.976, 169.493 125.496, 167.043 128.448 " stroke="none" fill="black" fill-rule="evenodd"/>
</svg>