<svg xmlns="http://www.w3.org/2000/svg" width="436" height="324" viewBox="0 0 436 324" version="1.1">
	<path d="M 72.316 62.784 C 70.369 64.022, 54.007 97.855, 54.604 99.410 C 55.269 101.144, 57.524 102.120, 59.295 101.440 C 60.007 101.167, 63.480 95.106, 67.014 87.972 C 70.547 80.837, 73.691 75, 74 75 C 74.309 75, 77.453 80.837, 80.986 87.972 C 84.520 95.106, 87.993 101.167, 88.705 101.440 C 90.487 102.124, 92.732 101.141, 93.407 99.381 C 93.997 97.844, 77.582 64.037, 75.628 62.765 C 74.214 61.845, 73.789 61.847, 72.316 62.784 M 63.102 127.162 C 37.959 130.757, 14.942 151.641, 8.567 176.644 C 7.705 180.024, 7 183.991, 7 185.460 C 7 186.929, 6.517 189.034, 5.926 190.138 C 5.180 191.532, 5.160 193.572, 5.861 196.822 C 6.416 199.395, 7.593 204.875, 8.477 209 C 11.094 221.210, 16.149 230.192, 25.974 240.084 C 38.026 252.219, 48.425 257.529, 65.214 260.122 C 73.903 261.465, 73.704 261.465, 82.284 260.088 C 104.342 256.546, 122.810 243.470, 132.759 224.347 C 138.034 214.206, 140.264 205.042, 140.264 193.500 C 140.264 181.958, 138.034 172.794, 132.759 162.653 C 122.751 143.418, 104.005 130.160, 82.398 127.037 C 74.447 125.887, 71.899 125.904, 63.102 127.162 M 195.434 126.889 C 184.808 128.709, 174.075 137.161, 169.483 147.325 C 165.921 155.209, 165.577 160.173, 167.842 171 C 170.557 183.980, 173.214 191.580, 179.552 204.500 C 186.164 217.978, 195.136 230.071, 206.511 240.839 C 214.778 248.664, 231.976 261, 234.619 261 C 235.316 261, 236.475 260.211, 237.193 259.246 C 237.912 258.281, 240.525 256.187, 243 254.592 C 270.704 236.745, 291.907 205.073, 298.867 171.138 C 301.945 156.131, 299.268 146.183, 289.518 136.404 C 274.207 121.045, 247.765 124.155, 235.981 142.700 L 233.312 146.900 231.124 143.007 C 224.826 131.802, 208.859 124.591, 195.434 126.889 M 358.612 128.250 C 357.823 129.488, 342.852 159.187, 325.343 194.249 C 299.084 246.832, 293.702 258.304, 294.613 259.749 C 295.644 261.383, 300.028 261.518, 360.109 261.776 C 395.524 261.928, 425.463 261.819, 426.640 261.535 C 427.817 261.250, 429.046 260.322, 429.373 259.471 C 429.989 257.866, 365.713 128.117, 363.631 126.765 C 361.647 125.476, 360.086 125.938, 358.612 128.250 M 57.500 135.870 C 41.398 140.505, 27.339 152.243, 20.214 167 C 17.957 171.675, 15.827 176.949, 15.482 178.720 L 14.854 181.941 21.328 179.005 C 37.008 171.896, 50.080 172.926, 69.250 182.781 C 69.662 182.993, 70 172.104, 70 158.583 L 70 134 66.750 134.071 C 64.963 134.110, 60.800 134.920, 57.500 135.870 M 78 162.929 C 78 196.066, 77.226 193.314, 87.983 198.412 C 93.979 201.253, 95.340 201.500, 105 201.500 C 116.261 201.500, 120.790 200.159, 129.250 194.317 C 133.594 191.318, 133.931 189.081, 131.485 179.460 C 126.050 158.078, 108.501 140.394, 87.897 135.537 C 76.917 132.949, 78 129.952, 78 162.929 M 191.385 135.617 C 181.726 139.043, 174 149.714, 174 159.631 C 174 175.749, 184.130 202.100, 197.015 219.500 C 205.229 230.593, 217.101 241.814, 228.668 249.418 C 232.277 251.789, 233.150 251.995, 235.168 250.945 C 245.545 245.550, 265.208 226.580, 273.441 214.021 C 285.200 196.084, 294.382 168.704, 292.608 156.869 C 291.161 147.224, 283.296 138.179, 273.609 135.020 C 267.591 133.058, 257.093 134.170, 251.680 137.342 C 243.949 141.872, 238.067 150.781, 238.022 158.027 C 237.998 161.891, 235.675 166, 233.515 166 C 231.013 166, 229 162.918, 229 159.088 C 229 153.213, 223.589 143.376, 218.298 139.633 C 215.861 137.910, 212.435 135.972, 210.684 135.326 C 206.298 133.709, 196.343 133.859, 191.385 135.617 M 332.747 196.500 L 304.002 254 361.501 254 C 393.126 254, 419 253.773, 419 253.497 C 419 252.838, 362.074 139, 361.744 139 C 361.605 139, 348.557 164.875, 332.747 196.500 M 356.764 174.996 C 348.990 177.336, 343.634 183.182, 342.444 190.624 C 341.954 193.686, 342.202 195.059, 343.471 196.328 C 346.454 199.312, 348.134 198.008, 349.921 191.323 C 352.813 180.505, 366.535 178.399, 371.506 188.011 C 372.328 189.600, 373 192.206, 373 193.802 C 373 197.774, 369.068 203.286, 365.469 204.360 C 357.531 206.729, 358 205.941, 358 216.907 C 358 224.619, 358.353 227.211, 359.571 228.429 C 363.207 232.064, 365 229.251, 365 219.908 C 365 212.553, 365.109 212.190, 367.482 211.594 C 370.987 210.714, 377.050 205.124, 378.649 201.298 C 380.380 197.155, 380.380 189.845, 378.649 185.702 C 376.863 181.428, 370.978 176.365, 366.277 175.060 C 361.951 173.859, 360.571 173.849, 356.764 174.996 M 28 183.991 C 24.975 185.098, 20.700 187.259, 18.500 188.793 C 14.823 191.357, 14.476 191.996, 14.201 196.707 C 13.180 214.177, 27.590 236.919, 45.603 246.268 C 52.344 249.767, 62.850 252.953, 67.750 252.985 L 70 253 70 223.073 L 70 193.146 66.250 190.053 C 57.267 182.643, 39.416 179.815, 28 183.991 M 129.459 203.057 C 125.677 205.576, 116.084 208.550, 108.926 209.421 C 100.553 210.441, 89.774 207.868, 78.750 202.218 C 78.338 202.006, 78 213.346, 78 227.417 C 78 256.588, 76.952 254.042, 87.897 251.463 C 103.544 247.774, 119.364 235.216, 126.330 220.954 C 129.511 214.439, 133.502 202.169, 132.700 201.367 C 132.545 201.212, 131.087 201.972, 129.459 203.057 M 359.616 238.527 C 358.727 239.416, 358 240.529, 358 241 C 358 242.389, 361.140 245.120, 362.295 244.735 C 364.395 244.035, 365.549 241.094, 364.423 239.310 C 362.905 236.902, 361.474 236.669, 359.616 238.527 " stroke="none" fill="black" fill-rule="evenodd"/>
</svg>