<svg xmlns="http://www.w3.org/2000/svg" width="340" height="324" viewBox="0 0 340 324" version="1.1">
	<path d="M 87.571 63.571 C 86.707 64.436, 86 65.317, 86 65.531 C 86 66.993, 103.421 100.653, 104.488 101.252 C 105.225 101.665, 106.440 101.768, 107.187 101.482 C 107.935 101.195, 112.506 93.026, 117.345 83.329 C 125.969 66.046, 126.106 65.661, 124.255 63.810 C 123.216 62.772, 121.701 62.177, 120.889 62.489 C 120.076 62.801, 116.520 68.894, 112.986 76.028 C 109.453 83.163, 106.308 89, 105.997 89 C 105.687 89, 102.748 83.534, 99.467 76.853 C 91.925 61.499, 90.847 60.296, 87.571 63.571 M 39.571 127.571 C 38.707 128.436, 38 129.330, 38 129.560 C 38 131.041, 103.463 260.648, 104.516 261.252 C 105.238 261.665, 106.434 261.771, 107.175 261.486 C 108.816 260.857, 173 132.765, 173 130.120 C 173 127.786, 170.716 125.788, 168.862 126.500 C 168.096 126.793, 153.755 154.476, 136.992 188.017 C 120.228 221.558, 106.282 249, 106 249 C 105.718 249, 91.990 221.941, 75.493 188.869 C 58.997 155.796, 44.905 128.121, 44.179 127.369 C 42.471 125.600, 41.500 125.643, 39.571 127.571 M 199.200 127.200 C 197.465 128.935, 197.465 259.065, 199.200 260.800 C 200.109 261.709, 216.172 261.996, 265.450 261.985 C 301.227 261.976, 331.072 261.606, 331.772 261.162 C 332.780 260.522, 333.044 246.603, 333.044 194 C 333.044 141.397, 332.780 127.478, 331.772 126.838 C 331.072 126.394, 301.228 126.024, 265.450 126.015 C 216.172 126.004, 200.109 126.291, 199.200 127.200 M 238 161.500 L 265.486 189 292.743 161.757 C 307.734 146.773, 320 134.398, 320 134.257 C 320 134.116, 295.366 134, 265.257 134 L 210.514 134 238 161.500 M 297.998 166.502 L 270.509 194.005 298.255 221.750 L 326 249.495 326 194.248 C 326 163.861, 325.884 139, 325.743 139 C 325.602 139, 313.116 151.376, 297.998 166.502 M 206 194 L 206 248.495 233.248 221.248 L 260.495 194 233.248 166.752 L 206 139.505 206 194 M 7.571 191.571 C 6.707 192.436, 6 193.529, 6 194 C 6 195.111, 8.889 198, 10 198 C 11.111 198, 14 195.111, 14 194 C 14 192.889, 11.111 190, 10 190 C 9.529 190, 8.436 190.707, 7.571 191.571 M 238 226.500 L 210.514 254 265.500 254 L 320.486 254 293 226.500 C 277.883 211.375, 265.508 199, 265.500 199 C 265.492 199, 253.117 211.375, 238 226.500 " stroke="none" fill="black" fill-rule="evenodd"/>
</svg>