<svg xmlns="http://www.w3.org/2000/svg" width="212" height="324" viewBox="0 0 212 324" version="1.1">
	<path d="M 39.230 159.285 C 20.953 177.591, 6 193.084, 6 193.713 C 6 195.190, 8.807 198, 10.282 198 C 10.909 198, 24.602 184.848, 40.711 168.773 L 70 139.545 70 196.773 L 70 254 55.571 254 C 43.788 254, 40.855 254.288, 39.571 255.571 C 37.598 257.545, 37.598 258.455, 39.571 260.429 C 40.936 261.793, 45.463 262, 74 262 C 102.537 262, 107.064 261.793, 108.429 260.429 C 110.402 258.455, 110.402 257.545, 108.429 255.571 C 107.145 254.288, 104.212 254, 92.429 254 L 78 254 78 196.825 L 78 139.650 103.250 164.683 C 117.138 178.452, 130.360 191.580, 132.632 193.858 C 134.905 196.136, 137.236 198, 137.811 198 C 139.210 198, 142 195.145, 142 193.713 C 142 191.963, 75.757 126, 74 126 C 73.153 126, 57.506 140.978, 39.230 159.285 M 167.200 128.200 C 165.167 130.233, 165.805 131.450, 171.458 136.331 C 178.512 142.421, 184.792 150.642, 189.434 159.864 C 199.795 180.450, 199.890 206.386, 189.679 226.636 C 184.976 235.962, 178.372 244.701, 171.622 250.528 C 165.844 255.516, 164.858 257.808, 167.534 260.028 C 169.807 261.915, 172.848 259.928, 181.424 250.952 C 199.604 231.923, 207.970 205.922, 203.932 181 C 201.119 163.638, 193.577 148.764, 181 135.777 C 172.594 127.096, 169.824 125.576, 167.200 128.200 " stroke="none" fill="black" fill-rule="evenodd"/>
</svg>