<svg xmlns="http://www.w3.org/2000/svg" width="403" height="324" viewBox="0 0 403 324" version="1.1">
	<path d="M 279.239 111.260 C 269.758 120.754, 262 129.288, 262 130.225 C 262 131.163, 262.959 132.443, 264.131 133.070 C 266.073 134.110, 267.495 132.981, 280.131 120.369 L 294 106.527 294 135.228 C 294 163.202, 294.052 163.958, 296.064 165.034 C 297.596 165.854, 298.498 165.832, 299.564 164.947 C 300.751 163.962, 301 158.794, 301 135.174 L 301 106.592 314.830 120.296 C 322.437 127.833, 329.132 134, 329.708 134 C 331.297 134, 333.208 131.291, 332.833 129.570 C 332.418 127.665, 299.028 94, 297.554 94 C 296.963 94, 288.721 101.767, 279.239 111.260 M 7.571 127.571 C 6.175 128.968, 6 136.372, 6 194 C 6 251.628, 6.175 259.032, 7.571 260.429 C 8.936 261.793, 13.463 262, 42 262 C 70.537 262, 75.064 261.793, 76.429 260.429 C 77.825 259.032, 78 251.628, 78 194 C 78 136.372, 77.825 128.968, 76.429 127.571 C 75.064 126.207, 70.537 126, 42 126 C 13.463 126, 8.936 126.207, 7.571 127.571 M 14 194 L 14 254 42 254 L 70 254 70 194 L 70 134 42 134 L 14 134 14 194 M 130.344 158.988 C 120.010 161.166, 109.930 169.366, 105.417 179.266 C 101.361 188.161, 101.361 198.839, 105.417 207.734 C 115.534 229.926, 144.172 235.520, 161.353 218.661 C 169.450 210.714, 171.500 205.633, 171.500 193.500 C 171.500 181.367, 169.450 176.286, 161.353 168.339 C 153.358 160.494, 140.950 156.752, 130.344 158.988 M 215.315 175.213 C 205.792 184.680, 198 193.134, 198 194 C 198 195.680, 231.953 230, 233.615 230 C 235.114 230, 237 227.791, 237 226.036 C 237 225.175, 231.143 218.628, 223.984 211.486 L 210.968 198.500 239.126 198 C 264.530 197.549, 267.392 197.329, 268.387 195.750 C 269.191 194.474, 269.191 193.526, 268.387 192.250 C 267.392 190.671, 264.530 190.451, 239.126 190 L 210.968 189.500 223.984 176.514 C 231.143 169.372, 237 162.825, 237 161.964 C 237 160.209, 235.114 158, 233.615 158 C 233.073 158, 224.838 165.746, 215.315 175.213 M 359.750 159.080 C 358.788 159.641, 358 160.858, 358 161.786 C 358 162.714, 363.956 169.442, 371.236 176.737 L 384.472 190 357.170 190 C 340.263 190, 329.132 190.394, 327.934 191.035 C 326.870 191.605, 326 192.939, 326 194 C 326 195.061, 326.870 196.395, 327.934 196.965 C 329.132 197.606, 340.263 198, 357.170 198 L 384.472 198 371.236 211.263 C 363.956 218.558, 358 225.292, 358 226.228 C 358 227.164, 358.960 228.443, 360.133 229.071 C 362.084 230.115, 363.752 228.729, 379.633 212.867 C 389.185 203.327, 397 194.837, 397 194 C 397 192.655, 363.224 157.954, 361.990 158.030 C 361.720 158.047, 360.712 158.519, 359.750 159.080 M 127.627 167.468 C 122.247 169.386, 117.039 173.829, 113.500 179.519 C 109.527 185.908, 108.712 197.311, 111.741 204.129 C 116.446 214.717, 124.286 220.123, 135.883 220.774 C 142.995 221.173, 143.931 220.978, 150 217.830 C 160.444 212.411, 165.773 202.629, 164.713 190.821 C 163.772 180.346, 156.582 170.975, 146.684 167.326 C 142.327 165.720, 132.323 165.794, 127.627 167.468 M 295.750 223.080 C 294.148 224.013, 294 226.520, 294 252.786 L 294 281.473 280.131 267.631 C 267.495 255.019, 266.073 253.890, 264.131 254.930 C 262.959 255.557, 262 256.847, 262 257.796 C 262 259.625, 295.778 294, 297.576 294 C 299.035 294, 332.421 260.317, 332.833 258.430 C 333.208 256.709, 331.297 254, 329.708 254 C 329.132 254, 322.437 260.167, 314.830 267.704 L 301 281.408 301 252.904 C 301 221.717, 300.729 220.180, 295.750 223.080 " stroke="none" fill="black" fill-rule="evenodd"/>
</svg>