<svg xmlns="http://www.w3.org/2000/svg" width="244" height="324" viewBox="0 0 244 324" version="1.1">
	<path d="M 63.057 127.110 C 55.086 128.320, 43.567 132.853, 36.433 137.588 C 28.286 142.996, 17.869 154.723, 13.687 163.194 C 7.634 175.456, 4.322 193.179, 7.491 196.348 C 9.547 198.404, 10.439 198.418, 12.429 196.429 C 13.404 195.453, 14.006 193.082, 14.015 190.179 C 14.091 166.127, 34.559 141.323, 59.103 135.537 C 79.531 130.722, 100.875 136.732, 115.459 151.405 C 119.429 155.400, 123.939 161.203, 125.780 164.686 C 129.503 171.731, 133 184.277, 133 190.589 C 133 194.612, 134.851 198, 137.048 198 C 137.546 198, 138.587 196.988, 139.360 195.750 C 140.454 194, 140.582 191.869, 139.935 186.164 C 136.832 158.798, 116.692 135.370, 90.483 128.639 C 82.408 126.565, 70.881 125.923, 63.057 127.110 M 71.571 159.571 C 70.288 160.855, 70 163.788, 70 175.571 L 70 190 55.571 190 C 43.788 190, 40.855 190.288, 39.571 191.571 C 37.598 193.545, 37.598 194.455, 39.571 196.429 C 40.855 197.712, 43.788 198, 55.571 198 L 70 198 70 212.429 C 70 224.212, 70.288 227.145, 71.571 228.429 C 73.545 230.402, 74.455 230.402, 76.429 228.429 C 77.712 227.145, 78 224.212, 78 212.429 L 78 198 92.429 198 C 104.212 198, 107.145 197.712, 108.429 196.429 C 110.402 194.455, 110.402 193.545, 108.429 191.571 C 107.145 190.288, 104.212 190, 92.429 190 L 78 190 78 175.571 C 78 163.788, 77.712 160.855, 76.429 159.571 C 75.564 158.707, 74.471 158, 74 158 C 73.529 158, 72.436 158.707, 71.571 159.571 M 167.571 159.571 C 165.215 161.927, 165.215 210.073, 167.571 212.429 C 169.678 214.535, 170.598 214.412, 172.443 211.777 C 173.745 209.919, 174 205.701, 174 186 C 174 166.299, 173.745 162.081, 172.443 160.223 C 170.598 157.588, 169.678 157.465, 167.571 159.571 M 199.750 159.080 C 198.155 160.009, 198 162.388, 198 186.015 C 198 211.174, 198.060 211.962, 200.064 213.034 C 201.596 213.854, 202.498 213.832, 203.564 212.947 C 204.744 211.968, 205 207.174, 205 186.078 C 205 157.906, 204.671 156.214, 199.750 159.080 M 167.616 222.527 C 166.727 223.416, 166 224.529, 166 225 C 166 226.389, 169.140 229.120, 170.295 228.735 C 172.395 228.035, 173.549 225.094, 172.423 223.310 C 170.905 220.902, 169.474 220.669, 167.616 222.527 M 199.750 222.080 C 197.372 223.465, 197.542 226.685, 200.064 228.034 C 203.753 230.008, 206.819 225.219, 203.800 222.200 C 202.367 220.767, 202.022 220.757, 199.750 222.080 " stroke="none" fill="black" fill-rule="evenodd"/>
</svg>