<svg xmlns="http://www.w3.org/2000/svg" width="276" height="324" viewBox="0 0 276 324" version="1.1">
	<path d="M 61.500 127.401 C 46.645 130.266, 35.144 136.774, 24.168 148.528 C 13.801 159.628, 8.225 172.265, 6.488 188.598 C 5.962 193.536, 6.153 195.010, 7.491 196.348 C 9.547 198.404, 10.439 198.418, 12.429 196.429 C 13.379 195.478, 14 193.126, 14 190.478 C 14 177.343, 20.860 161.930, 31.395 151.395 C 42.853 139.936, 57.222 134, 73.500 134 C 83.696 134, 90.060 135.495, 100 140.225 C 118.844 149.193, 133 170.749, 133 190.478 C 133 193.126, 133.621 195.478, 134.571 196.429 C 136.561 198.418, 137.453 198.404, 139.509 196.348 C 142.666 193.191, 139.352 175.615, 133.222 163 C 128.100 152.459, 114.578 138.926, 104 133.756 C 90.332 127.076, 75.043 124.790, 61.500 127.401 M 71.571 159.571 C 70.288 160.855, 70 163.788, 70 175.571 L 70 190 55.571 190 C 43.788 190, 40.855 190.288, 39.571 191.571 C 37.598 193.545, 37.598 194.455, 39.571 196.429 C 40.855 197.712, 43.788 198, 55.571 198 L 70 198 70 212.429 C 70 224.212, 70.288 227.145, 71.571 228.429 C 73.545 230.402, 74.455 230.402, 76.429 228.429 C 77.712 227.145, 78 224.212, 78 212.429 L 78 198 92.429 198 C 104.212 198, 107.145 197.712, 108.429 196.429 C 110.402 194.455, 110.402 193.545, 108.429 191.571 C 107.145 190.288, 104.212 190, 92.429 190 L 78 190 78 175.571 C 78 163.788, 77.712 160.855, 76.429 159.571 C 75.564 158.707, 74.471 158, 74 158 C 73.529 158, 72.436 158.707, 71.571 159.571 M 167.571 159.571 C 165.215 161.927, 165.215 210.073, 167.571 212.429 C 168.436 213.293, 169.529 214, 170 214 C 170.471 214, 171.564 213.293, 172.429 212.429 C 174.785 210.073, 174.785 161.927, 172.429 159.571 C 171.564 158.707, 170.471 158, 170 158 C 169.529 158, 168.436 158.707, 167.571 159.571 M 199.571 159.571 C 197.215 161.927, 197.215 210.073, 199.571 212.429 C 200.436 213.293, 201.529 214, 202 214 C 202.471 214, 203.564 213.293, 204.429 212.429 C 206.785 210.073, 206.785 161.927, 204.429 159.571 C 203.564 158.707, 202.471 158, 202 158 C 201.529 158, 200.436 158.707, 199.571 159.571 M 231.571 159.571 C 229.215 161.927, 229.215 210.073, 231.571 212.429 C 232.436 213.293, 233.529 214, 234 214 C 234.471 214, 235.564 213.293, 236.429 212.429 C 238.785 210.073, 238.785 161.927, 236.429 159.571 C 235.564 158.707, 234.471 158, 234 158 C 233.529 158, 232.436 158.707, 231.571 159.571 M 167.571 222.571 C 166.707 223.436, 166 224.529, 166 225 C 166 225.471, 166.707 226.564, 167.571 227.429 C 168.436 228.293, 169.529 229, 170 229 C 170.471 229, 171.564 228.293, 172.429 227.429 C 173.293 226.564, 174 225.471, 174 225 C 174 224.529, 173.293 223.436, 172.429 222.571 C 171.564 221.707, 170.471 221, 170 221 C 169.529 221, 168.436 221.707, 167.571 222.571 M 199.571 222.571 C 198.707 223.436, 198 224.529, 198 225 C 198 225.471, 198.707 226.564, 199.571 227.429 C 200.436 228.293, 201.529 229, 202 229 C 202.471 229, 203.564 228.293, 204.429 227.429 C 205.293 226.564, 206 225.471, 206 225 C 206 224.529, 205.293 223.436, 204.429 222.571 C 203.564 221.707, 202.471 221, 202 221 C 201.529 221, 200.436 221.707, 199.571 222.571 M 231.571 222.571 C 230.707 223.436, 230 224.529, 230 225 C 230 225.471, 230.707 226.564, 231.571 227.429 C 232.436 228.293, 233.529 229, 234 229 C 234.471 229, 235.564 228.293, 236.429 227.429 C 237.293 226.564, 238 225.471, 238 225 C 238 224.529, 237.293 223.436, 236.429 222.571 C 235.564 221.707, 234.471 221, 234 221 C 233.529 221, 232.436 221.707, 231.571 222.571 " stroke="none" fill="black" fill-rule="evenodd"/>
</svg>