<svg xmlns="http://www.w3.org/2000/svg" width="403" height="324" viewBox="0 0 403 324" version="1.1">
	<path d="M 40.316 62.784 C 38.369 64.022, 22.007 97.855, 22.604 99.410 C 23.269 101.144, 25.524 102.120, 27.295 101.440 C 28.007 101.167, 31.480 95.106, 35.014 87.972 C 38.547 80.837, 41.691 75, 42 75 C 42.309 75, 45.453 80.837, 48.986 87.972 C 52.520 95.106, 55.993 101.167, 56.705 101.440 C 58.487 102.124, 60.732 101.141, 61.407 99.381 C 61.997 97.844, 45.582 64.037, 43.628 62.765 C 42.214 61.845, 41.789 61.847, 40.316 62.784 M 7.571 127.571 C 6.175 128.968, 6 136.372, 6 194 C 6 251.628, 6.175 259.032, 7.571 260.429 C 8.436 261.293, 9.666 262, 10.305 262 C 12.018 262, 78 195.721, 78 194 C 78 192.279, 12.018 126, 10.305 126 C 9.666 126, 8.436 126.707, 7.571 127.571 M 159.536 127.055 C 133.727 131.063, 112.693 149.508, 104.858 175 C 101.607 185.580, 101.607 201.420, 104.858 212 C 107.404 220.283, 112.272 229.622, 116.848 235 L 119.826 238.500 110.913 247.615 C 106.011 252.629, 102 257.209, 102 257.794 C 102 259.028, 104.774 262, 105.926 262 C 106.357 262, 110.845 257.945, 115.901 252.990 L 125.093 243.980 129.752 247.537 C 136.027 252.328, 145.549 256.757, 153.200 258.443 C 165.272 261.102, 170.170 261.678, 173.823 260.869 C 175.845 260.421, 180.425 259.509, 184 258.843 C 187.655 258.163, 194.440 255.665, 199.500 253.136 C 206.666 249.556, 210.130 246.994, 216.500 240.564 C 229.816 227.122, 236 212.197, 236 193.500 C 236 178.619, 232.512 167.516, 223.784 154.618 L 219.804 148.736 228.402 140.098 C 237.035 131.425, 238.224 129.260, 235.564 127.053 C 233.534 125.368, 231.801 126.545, 222.602 135.851 L 214.704 143.842 209.602 140.029 C 195.293 129.338, 176.387 124.439, 159.536 127.055 M 154.072 135.591 C 143.666 138.388, 135.974 142.984, 127.479 151.479 C 115.117 163.841, 110 176.143, 110 193.500 C 110 207.330, 114.493 221.001, 121.995 230 L 124.913 233.500 145.457 213.009 L 166 192.518 166 163.259 L 166 134 162.750 134.066 C 160.963 134.102, 157.057 134.788, 154.072 135.591 M 173 159.747 L 173 185.493 191.250 167.238 L 209.500 148.983 206.500 146.479 C 202.105 142.812, 188.312 136.347, 182.201 135.090 C 172.053 133.003, 173 130.465, 173 159.747 M 14 194 L 14 248.495 41.248 221.248 L 68.495 194 41.248 166.752 L 14 139.505 14 194 M 193.226 175.298 L 173 195.611 173 224.306 C 173 252.092, 173.062 253, 174.951 253 C 183.685 253, 200.462 245.805, 208.701 238.526 C 215.695 232.347, 223.087 221.030, 226.060 211.950 C 229.535 201.339, 229.537 185.666, 226.064 175.062 C 223.758 168.021, 216.693 155.970, 214.476 155.295 C 213.913 155.124, 204.350 164.125, 193.226 175.298 M 288.320 175.099 C 281.467 176.243, 272.796 180.158, 266.367 185.013 C 260.776 189.234, 259.108 192.220, 261.040 194.548 C 262.922 196.816, 264.513 196.317, 269.689 191.835 C 272.335 189.545, 276.975 186.515, 280 185.102 C 284.850 182.837, 286.802 182.532, 296.521 182.517 C 306.925 182.501, 307.905 182.680, 314.021 185.704 C 320.103 188.712, 321.989 190.207, 329.500 197.977 C 331.150 199.684, 335.650 202.631, 339.500 204.527 C 356.371 212.833, 375.014 210.780, 390.778 198.878 C 396.367 194.658, 397.305 191.835, 393.838 189.663 C 392.521 188.838, 391.055 189.486, 386.787 192.779 C 377.288 200.107, 373.074 201.502, 360.500 201.483 C 346.534 201.462, 341.408 199.346, 331.711 189.600 C 323.963 181.814, 314.131 176.650, 304 175.045 C 296.672 173.884, 295.573 173.888, 288.320 175.099 M 147.671 220.829 L 129.863 238.658 133.291 241.273 C 140.947 247.112, 156.061 253, 163.394 253 L 166 253 166 228 C 166 214.250, 165.883 203, 165.740 203 C 165.596 203, 157.465 211.023, 147.671 220.829 " stroke="none" fill="black" fill-rule="evenodd"/>
</svg>