<svg xmlns="http://www.w3.org/2000/svg" width="500" height="324" viewBox="0 0 500 324" version="1.1">
	<path d="M 103.550 30.918 C 99.869 36.875, 86.190 66.331, 86.604 67.410 C 87.269 69.144, 89.524 70.120, 91.295 69.440 C 92.007 69.167, 95.480 63.106, 99.014 55.972 C 102.547 48.837, 105.691 43, 106 43 C 106.309 43, 109.453 48.837, 112.986 55.972 C 116.520 63.106, 120.050 69.189, 120.832 69.489 C 122.716 70.212, 125 68.227, 125 65.866 C 125 63.626, 109.264 31.831, 107.628 30.765 C 106.071 29.751, 104.229 29.820, 103.550 30.918 M 87.213 111.315 C 77.746 120.838, 70 129.131, 70 129.743 C 70 131.175, 72.813 134, 74.239 134 C 74.841 134, 81.334 128.059, 88.667 120.798 L 102 107.595 102 135.226 C 102 159.012, 102.219 163.076, 103.571 164.429 C 105.589 166.446, 106.322 166.406, 108.345 164.171 C 109.800 162.563, 110 159.037, 110 134.969 L 110 107.595 123.333 120.798 C 130.666 128.059, 137.136 134, 137.710 134 C 139.591 134, 141.235 131.074, 140.654 128.763 C 139.960 126.006, 107.957 94, 105.894 94 C 105.086 94, 96.680 101.792, 87.213 111.315 M 290.223 127.021 C 283.723 128.365, 276.351 132.836, 271.022 138.666 C 267.291 142.748, 265.701 145.597, 263.882 151.459 C 261.779 158.233, 261.284 159, 259.020 159.001 C 254.140 159.002, 244.702 164.452, 239.252 170.415 C 223.291 187.879, 229.406 215.559, 251.446 225.613 C 266.676 232.562, 286.093 226.446, 294.778 211.965 C 299.188 204.611, 300.302 199.926, 299.784 190.904 C 299.422 184.584, 298.759 182.232, 295.840 176.904 C 291.362 168.731, 284.093 162.641, 275.967 160.253 C 269.035 158.216, 268.722 157.286, 272.351 149.493 C 276.603 140.363, 284.684 134.970, 295.245 134.215 C 308.921 133.236, 319.848 140.806, 323.657 153.897 C 324.987 158.468, 325.045 160.424, 324.033 166.693 C 318.813 199.055, 298.741 229.674, 270.143 248.904 C 260.755 255.216, 259.544 257.054, 263.235 259.378 C 265.434 260.763, 269.436 258.719, 280.453 250.581 C 308.436 229.913, 329.463 193.958, 331.673 163 C 332.282 154.463, 330.208 147.348, 325.024 140.192 C 317.794 130.211, 302.601 124.461, 290.223 127.021 M 23.315 175.213 C 13.792 184.680, 6 193.134, 6 194 C 6 195.761, 39.994 230, 41.743 230 C 43.175 230, 46 227.187, 46 225.761 C 46 225.159, 40.059 218.666, 32.798 211.333 L 19.595 198 47.226 198 C 71.012 198, 75.076 197.781, 76.429 196.429 C 78.402 194.455, 78.402 193.545, 76.429 191.571 C 75.076 190.219, 71.012 190, 47.226 190 L 19.595 190 32.798 176.667 C 40.059 169.334, 46 162.841, 46 162.239 C 46 160.813, 43.175 158, 41.743 158 C 41.131 158, 32.838 165.746, 23.315 175.213 M 167.616 159.527 C 166.727 160.416, 166 161.636, 166 162.239 C 166 162.841, 171.941 169.334, 179.202 176.667 L 192.405 190 164.774 190 C 140.988 190, 136.924 190.219, 135.571 191.571 C 133.598 193.545, 133.598 194.455, 135.571 196.429 C 136.924 197.781, 140.988 198, 164.774 198 L 192.405 198 179.202 211.333 C 171.941 218.666, 166 225.159, 166 225.761 C 166 227.200, 168.997 230.172, 170.068 229.795 C 171.353 229.342, 206 194.827, 206 194 C 206 193.173, 171.353 158.658, 170.068 158.205 C 169.608 158.043, 168.505 158.638, 167.616 159.527 M 391.750 159.080 C 390.207 159.979, 390 161.866, 390 175.050 L 390 190 375.934 190 C 361.308 190, 358 190.738, 358 194 C 358 197.262, 361.308 198, 375.934 198 L 390 198 390 212.965 C 390 227.061, 390.120 227.994, 392.064 229.034 C 396.315 231.309, 397 229.069, 397 212.904 L 397 198.052 412.142 197.776 C 425.291 197.536, 427.430 197.270, 428.387 195.750 C 429.191 194.475, 429.191 193.525, 428.387 192.250 C 427.430 190.730, 425.291 190.464, 412.142 190.224 L 397 189.948 397 175.174 C 397 158.586, 396.297 156.432, 391.750 159.080 M 455.750 159.080 C 454.155 160.009, 454 162.388, 454 186.015 C 454 211.174, 454.060 211.962, 456.064 213.034 C 457.596 213.854, 458.498 213.832, 459.564 212.947 C 460.744 211.968, 461 207.174, 461 186.078 C 461 157.906, 460.671 156.214, 455.750 159.080 M 255.885 167.380 C 240.986 172.704, 233.526 190.094, 239.929 204.573 C 244.388 214.659, 252.281 220.062, 263.616 220.789 C 270.399 221.224, 271.556 221.001, 277.397 218.125 C 289.374 212.229, 295.511 198.958, 292.096 186.337 C 288.933 174.647, 277.616 165.959, 265.663 166.044 C 262.273 166.068, 257.873 166.669, 255.885 167.380 M 263.750 191.080 C 261.372 192.465, 261.542 195.685, 264.064 197.034 C 267.753 199.008, 270.819 194.219, 267.800 191.200 C 266.367 189.767, 266.022 189.757, 263.750 191.080 M 455.750 222.080 C 453.372 223.465, 453.542 226.685, 456.064 228.034 C 459.753 230.008, 462.819 225.219, 459.800 222.200 C 458.367 220.767, 458.022 220.757, 455.750 222.080 M 103.571 223.571 C 102.219 224.924, 102 228.988, 102 252.774 L 102 280.405 88.667 267.202 C 81.334 259.941, 74.841 254, 74.239 254 C 72.813 254, 70 256.825, 70 258.257 C 70 259.939, 104.204 294, 105.894 294 C 107.957 294, 139.960 261.994, 140.654 259.237 C 141.235 256.926, 139.591 254, 137.710 254 C 137.136 254, 130.666 259.941, 123.333 267.202 L 110 280.405 110 252.857 C 110 227.440, 109.859 225.182, 108.171 223.655 C 105.915 221.613, 105.537 221.606, 103.571 223.571 " stroke="none" fill="black" fill-rule="evenodd"/>
</svg>