<svg xmlns="http://www.w3.org/2000/svg" width="308" height="324" viewBox="0 0 308 324" version="1.1">
	<path d="M 39.571 127.571 C 38.288 128.855, 38 131.788, 38 143.571 L 38 158 23.571 158 C 11.788 158, 8.855 158.288, 7.571 159.571 C 5.598 161.545, 5.598 162.455, 7.571 164.429 C 8.855 165.712, 11.788 166, 23.571 166 L 38 166 38 194 L 38 222 23.571 222 C 11.788 222, 8.855 222.288, 7.571 223.571 C 6.707 224.436, 6 225.529, 6 226 C 6 226.471, 6.707 227.564, 7.571 228.429 C 8.855 229.712, 11.788 230, 23.571 230 L 38 230 38 244.429 C 38 256.212, 38.288 259.145, 39.571 260.429 C 40.436 261.293, 41.529 262, 42 262 C 42.471 262, 43.564 261.293, 44.429 260.429 C 45.712 259.145, 46 256.212, 46 244.429 L 46 230 74 230 L 102 230 102 244.965 C 102 259.324, 102.088 259.977, 104.183 261.098 C 106.042 262.093, 106.636 261.933, 108.183 260.022 C 109.744 258.095, 110 255.823, 110 243.916 L 110 230.053 124.643 229.777 C 137.314 229.537, 139.433 229.264, 140.387 227.750 C 141.191 226.475, 141.191 225.525, 140.387 224.250 C 139.433 222.736, 137.314 222.463, 124.643 222.223 L 110 221.947 110 194 L 110 166.053 124.643 165.777 C 137.314 165.537, 139.433 165.264, 140.387 163.750 C 141.191 162.475, 141.191 161.525, 140.387 160.250 C 139.433 158.736, 137.314 158.463, 124.643 158.223 L 110 157.947 110 144.084 C 110 132.177, 109.744 129.905, 108.183 127.978 C 106.636 126.067, 106.042 125.907, 104.183 126.902 C 102.088 128.023, 102 128.676, 102 143.035 L 102 158 74 158 L 46 158 46 143.571 C 46 131.788, 45.712 128.855, 44.429 127.571 C 43.564 126.707, 42.471 126, 42 126 C 41.529 126, 40.436 126.707, 39.571 127.571 M 46 194 L 46 222 74 222 L 102 222 102 194 L 102 166 74 166 L 46 166 46 194 M 167.546 191.342 C 165.934 192.521, 165.797 193.560, 166.419 199.876 C 167.218 207.981, 169.277 215.647, 172.192 221.371 L 174.164 225.242 171.540 231.091 C 168.740 237.331, 166 249.675, 166 256.053 C 166 258.977, 166.520 260.208, 168.117 261.062 C 171.257 262.743, 172.814 260.575, 173.546 253.500 C 173.887 250.200, 175.088 244.259, 176.215 240.298 L 178.263 233.095 185.455 240.298 C 196.898 251.756, 208.694 257.676, 224.763 260.026 C 244.724 262.944, 265.653 255.607, 280.695 240.418 L 287.890 233.152 289.590 238.271 C 290.525 241.087, 291.795 247.196, 292.411 251.846 C 293.635 261.081, 295.343 263.620, 298.543 260.964 C 301.176 258.779, 300.005 246.702, 296.073 235.483 C 294.342 230.542, 292.914 226.050, 292.900 225.500 C 292.886 224.950, 294.274 220.695, 295.985 216.044 C 299.913 205.362, 301.159 193.206, 298.547 191.039 C 295.436 188.457, 293.683 190.921, 292.440 199.619 C 291.816 203.990, 290.541 209.867, 289.607 212.678 L 287.910 217.788 280.116 209.995 C 273.733 203.612, 270.620 201.386, 262.911 197.697 C 250.776 191.889, 244.869 190.545, 232 190.665 C 213.826 190.834, 198.932 197.220, 185.451 210.623 L 178.285 217.747 176.521 212.149 C 175.550 209.070, 174.366 203.442, 173.889 199.641 C 173.089 193.276, 171.791 190, 170.069 190 C 169.691 190, 168.556 190.604, 167.546 191.342 M 218.601 199.534 C 208.064 202.190, 200.163 206.826, 191.250 215.582 C 186.713 220.040, 183 224.503, 183 225.500 C 183 226.497, 186.713 230.955, 191.250 235.406 C 204.742 248.643, 217.534 253.590, 236 252.712 C 248.277 252.129, 255.880 249.816, 265.088 243.865 C 271.574 239.673, 281.587 229.877, 282.578 226.755 C 284.353 221.163, 266.664 205.887, 252.723 200.971 C 244.581 198.100, 227.197 197.368, 218.601 199.534 " stroke="none" fill="black" fill-rule="evenodd"/>
</svg>