<svg xmlns="http://www.w3.org/2000/svg" width="148" height="324" viewBox="0 0 148 324" version="1.1">
	<path d="M 23.571 63.571 C 22.707 64.436, 22 65.317, 22 65.531 C 22 66.316, 39.159 100.529, 39.965 101.349 C 42.297 103.725, 44.927 100.197, 53.239 83.541 C 58.036 73.928, 61.710 65.408, 61.403 64.609 C 60.732 62.858, 58.483 61.877, 56.705 62.560 C 55.993 62.833, 52.520 68.894, 48.986 76.028 C 45.453 83.163, 42.308 89, 41.997 89 C 41.687 89, 38.748 83.534, 35.467 76.853 C 27.925 61.499, 26.847 60.296, 23.571 63.571 M 7.571 127.571 C 6.707 128.436, 6 129.529, 6 130 C 6 130.471, 6.707 131.564, 7.571 132.429 C 8.855 133.712, 11.788 134, 23.571 134 L 38 134 38 194 L 38 254 23.571 254 C 11.788 254, 8.855 254.288, 7.571 255.571 C 5.598 257.545, 5.598 258.455, 7.571 260.429 C 8.936 261.793, 13.463 262, 42 262 C 70.537 262, 75.064 261.793, 76.429 260.429 C 78.402 258.455, 78.402 257.545, 76.429 255.571 C 75.145 254.288, 72.212 254, 60.429 254 L 46 254 46 194 L 46 134 60.429 134 C 72.212 134, 75.145 133.712, 76.429 132.429 C 77.293 131.564, 78 130.471, 78 130 C 78 129.529, 77.293 128.436, 76.429 127.571 C 75.064 126.207, 70.537 126, 42 126 C 13.463 126, 8.936 126.207, 7.571 127.571 M 103.750 159.080 C 102.155 160.009, 102 162.388, 102 186.015 C 102 211.630, 102.025 211.943, 104.183 213.098 C 106.042 214.093, 106.636 213.933, 108.183 212.022 C 109.825 209.995, 110 207.494, 110 186.112 C 110 166.310, 109.746 162.082, 108.443 160.223 C 106.702 157.736, 106.248 157.625, 103.750 159.080 M 103.750 222.080 C 101.372 223.465, 101.542 226.685, 104.064 228.034 C 107.753 230.008, 110.819 225.219, 107.800 222.200 C 106.367 220.767, 106.022 220.757, 103.750 222.080 " stroke="none" fill="black" fill-rule="evenodd"/>
</svg>