<svg xmlns="http://www.w3.org/2000/svg" width="180" height="324" viewBox="0 0 180 324" version="1.1">
	<path d="M 23.571 63.571 C 22.707 64.436, 22 65.317, 22 65.531 C 22 67.066, 39.449 100.669, 40.574 101.300 C 41.358 101.740, 42.642 101.740, 43.426 101.300 C 45.484 100.146, 62.052 66.300, 61.396 64.590 C 60.731 62.856, 58.476 61.880, 56.705 62.560 C 55.993 62.833, 52.520 68.894, 48.986 76.028 C 45.453 83.163, 42.308 89, 41.997 89 C 41.687 89, 38.748 83.534, 35.467 76.853 C 27.925 61.499, 26.847 60.296, 23.571 63.571 M 7.571 127.571 C 6.707 128.436, 6 129.529, 6 130 C 6 130.471, 6.707 131.564, 7.571 132.429 C 8.855 133.712, 11.788 134, 23.571 134 L 38 134 38 194 L 38 254 23.571 254 C 11.788 254, 8.855 254.288, 7.571 255.571 C 5.598 257.545, 5.598 258.455, 7.571 260.429 C 8.936 261.793, 13.463 262, 42 262 C 70.537 262, 75.064 261.793, 76.429 260.429 C 78.402 258.455, 78.402 257.545, 76.429 255.571 C 75.145 254.288, 72.212 254, 60.429 254 L 46 254 46 194 L 46 134 60.429 134 C 72.212 134, 75.145 133.712, 76.429 132.429 C 77.293 131.564, 78 130.471, 78 130 C 78 129.529, 77.293 128.436, 76.429 127.571 C 75.064 126.207, 70.537 126, 42 126 C 13.463 126, 8.936 126.207, 7.571 127.571 M 103.571 159.571 C 101.215 161.927, 101.215 210.073, 103.571 212.429 C 104.436 213.293, 105.529 214, 106 214 C 106.471 214, 107.564 213.293, 108.429 212.429 C 110.785 210.073, 110.785 161.927, 108.429 159.571 C 107.564 158.707, 106.471 158, 106 158 C 105.529 158, 104.436 158.707, 103.571 159.571 M 135.571 159.571 C 133.215 161.927, 133.215 210.073, 135.571 212.429 C 136.436 213.293, 137.529 214, 138 214 C 138.471 214, 139.564 213.293, 140.429 212.429 C 142.785 210.073, 142.785 161.927, 140.429 159.571 C 139.564 158.707, 138.471 158, 138 158 C 137.529 158, 136.436 158.707, 135.571 159.571 M 103.571 222.571 C 102.707 223.436, 102 224.529, 102 225 C 102 225.471, 102.707 226.564, 103.571 227.429 C 104.436 228.293, 105.529 229, 106 229 C 106.471 229, 107.564 228.293, 108.429 227.429 C 109.293 226.564, 110 225.471, 110 225 C 110 224.529, 109.293 223.436, 108.429 222.571 C 107.564 221.707, 106.471 221, 106 221 C 105.529 221, 104.436 221.707, 103.571 222.571 M 135.571 222.571 C 134.707 223.436, 134 224.529, 134 225 C 134 225.471, 134.707 226.564, 135.571 227.429 C 136.436 228.293, 137.529 229, 138 229 C 138.471 229, 139.564 228.293, 140.429 227.429 C 141.293 226.564, 142 225.471, 142 225 C 142 224.529, 141.293 223.436, 140.429 222.571 C 139.564 221.707, 138.471 221, 138 221 C 137.529 221, 136.436 221.707, 135.571 222.571 " stroke="none" fill="black" fill-rule="evenodd"/>
</svg>