<svg xmlns="http://www.w3.org/2000/svg" width="212" height="324" viewBox="0 0 212 324" version="1.1">
	<path d="M 23.571 63.571 C 22.707 64.436, 22 65.332, 22 65.564 C 22 65.796, 25.934 73.868, 30.741 83.502 C 39.072 100.196, 41.702 103.726, 44.035 101.349 C 46.136 99.210, 61.885 65.863, 61.396 64.590 C 60.731 62.856, 58.476 61.880, 56.705 62.560 C 55.993 62.833, 52.520 68.894, 48.986 76.028 C 45.453 83.163, 42.308 89, 41.997 89 C 41.687 89, 38.748 83.534, 35.467 76.853 C 27.925 61.499, 26.847 60.296, 23.571 63.571 M 7.571 127.571 C 6.707 128.436, 6 129.529, 6 130 C 6 130.471, 6.707 131.564, 7.571 132.429 C 8.855 133.712, 11.788 134, 23.571 134 L 38 134 38 194 L 38 254 23.571 254 C 11.788 254, 8.855 254.288, 7.571 255.571 C 5.598 257.545, 5.598 258.455, 7.571 260.429 C 8.936 261.793, 13.463 262, 42 262 C 70.537 262, 75.064 261.793, 76.429 260.429 C 78.402 258.455, 78.402 257.545, 76.429 255.571 C 75.145 254.288, 72.212 254, 60.429 254 L 46 254 46 194 L 46 134 60.429 134 C 72.212 134, 75.145 133.712, 76.429 132.429 C 77.293 131.564, 78 130.471, 78 130 C 78 129.529, 77.293 128.436, 76.429 127.571 C 75.064 126.207, 70.537 126, 42 126 C 13.463 126, 8.936 126.207, 7.571 127.571 M 103.571 159.571 C 101.215 161.927, 101.215 210.073, 103.571 212.429 C 104.436 213.293, 105.529 214, 106 214 C 106.471 214, 107.564 213.293, 108.429 212.429 C 110.785 210.073, 110.785 161.927, 108.429 159.571 C 107.564 158.707, 106.471 158, 106 158 C 105.529 158, 104.436 158.707, 103.571 159.571 M 135.571 159.571 C 133.215 161.927, 133.215 210.073, 135.571 212.429 C 137.431 214.288, 137.564 214.304, 140.066 212.965 C 141.902 211.982, 142 210.612, 142 186 C 142 161.388, 141.902 160.018, 140.066 159.035 C 137.564 157.696, 137.431 157.712, 135.571 159.571 M 167.557 160.223 C 166.254 162.082, 166 166.310, 166 186.112 C 166 207.494, 166.175 209.995, 167.817 212.022 C 169.364 213.933, 169.958 214.093, 171.817 213.098 C 173.975 211.943, 174 211.631, 174 186 C 174 161.388, 173.902 160.018, 172.066 159.035 C 169.462 157.642, 169.343 157.673, 167.557 160.223 M 103.571 222.571 C 102.707 223.436, 102 224.529, 102 225 C 102 225.471, 102.707 226.564, 103.571 227.429 C 104.436 228.293, 105.529 229, 106 229 C 106.471 229, 107.564 228.293, 108.429 227.429 C 109.293 226.564, 110 225.471, 110 225 C 110 224.529, 109.293 223.436, 108.429 222.571 C 107.564 221.707, 106.471 221, 106 221 C 105.529 221, 104.436 221.707, 103.571 222.571 M 135.571 222.571 C 134.707 223.436, 134 224.529, 134 225 C 134 225.913, 136.807 229, 137.637 229 C 139.402 229, 142 226.618, 142 225 C 142 223.939, 141.130 222.605, 140.066 222.035 C 137.564 220.696, 137.431 220.712, 135.571 222.571 M 168.200 222.200 C 165.181 225.219, 168.247 230.008, 171.936 228.034 C 174.536 226.643, 174.606 223.395, 172.066 222.035 C 169.655 220.745, 169.655 220.745, 168.200 222.200 " stroke="none" fill="black" fill-rule="evenodd"/>
</svg>