<svg xmlns="http://www.w3.org/2000/svg" width="244" height="324" viewBox="0 0 244 324" version="1.1">
	<path d="M 103.579 127.564 C 101.598 129.545, 101.596 130.454, 103.571 132.429 C 104.931 133.788, 109.242 134, 135.571 134 L 166 134 166 191.202 L 166 248.405 152.667 235.202 C 145.334 227.941, 138.841 222, 138.239 222 C 136.813 222, 134 224.825, 134 226.257 C 134 227.939, 168.204 262, 169.894 262 C 171.957 262, 203.960 229.994, 204.654 227.237 C 205.235 224.926, 203.591 222, 201.710 222 C 201.136 222, 194.666 227.941, 187.333 235.202 L 174 248.405 174 191.217 L 174 134.029 204.641 133.764 C 232.566 133.523, 235.381 133.345, 236.386 131.750 C 237.191 130.474, 237.191 129.526, 236.386 128.250 C 235.356 126.617, 230.934 126.483, 170.220 126.243 C 112.058 126.013, 104.990 126.153, 103.579 127.564 M 34.223 159.062 C 24.045 161.068, 13.996 169.411, 9.216 179.825 C 5.512 187.894, 5.512 199.106, 9.216 207.175 C 20.136 230.966, 50.306 235.913, 67.545 216.739 C 85.211 197.090, 75.070 165.462, 49.147 159.360 C 42.857 157.880, 40.464 157.832, 34.223 159.062 M 31.054 167.728 C 25.018 169.859, 17.781 177.260, 15.667 183.463 C 9.122 202.673, 22.106 221.195, 41.928 220.924 C 44.993 220.882, 48.933 220.320, 50.684 219.674 C 61.521 215.679, 69 204.991, 69 193.500 C 69 182.009, 61.521 171.321, 50.684 167.326 C 46.195 165.671, 36.306 165.873, 31.054 167.728 M 7.571 255.571 C 6.707 256.436, 6 257.529, 6 258 C 6 258.471, 6.707 259.564, 7.571 260.429 C 8.936 261.793, 13.463 262, 42 262 C 70.537 262, 75.064 261.793, 76.429 260.429 C 77.293 259.564, 78 258.471, 78 258 C 78 257.529, 77.293 256.436, 76.429 255.571 C 75.064 254.207, 70.537 254, 42 254 C 13.463 254, 8.936 254.207, 7.571 255.571 " stroke="none" fill="black" fill-rule="evenodd"/>
</svg>