<svg xmlns="http://www.w3.org/2000/svg" width="308" height="324" viewBox="0 0 308 324" version="1.1">
	<path d="M 70.571 127.571 C 69.640 128.503, 69 130.860, 69 133.361 C 69 139.530, 66.472 148.473, 62.330 156.954 C 53.672 174.680, 31.886 188.920, 13.321 188.985 C 9.426 188.999, 6 190.878, 6 193 C 6 194.272, 8.965 197.003, 10.321 196.980 C 14.490 196.910, 26.033 194.676, 31.284 192.923 C 44.747 188.429, 59.949 175.993, 66.992 163.712 L 69.981 158.500 69.991 206.250 L 70 254 39.571 254 C 13.242 254, 8.931 254.212, 7.571 255.571 C 5.596 257.546, 5.598 258.455, 7.579 260.436 C 8.990 261.847, 16.058 261.987, 74.220 261.757 C 134.934 261.517, 139.356 261.383, 140.386 259.750 C 141.191 258.474, 141.191 257.526, 140.386 256.250 C 139.381 254.655, 136.566 254.477, 108.641 254.236 L 78 253.971 78.059 207.736 C 78.105 171.552, 78.377 161.912, 79.309 163.395 C 91.524 182.832, 111.828 195.276, 132.864 196.216 C 138.031 196.447, 139.440 196.171, 140.358 194.750 C 142.509 191.423, 139.995 189.565, 132.395 188.865 C 123.196 188.018, 117.951 186.504, 109.532 182.265 C 92.212 173.544, 78 151.728, 78 133.861 C 78 129.087, 76.233 126, 73.500 126 C 72.754 126, 71.436 126.707, 70.571 127.571 M 167.750 127.080 C 166.111 128.034, 166 132.285, 166 193.850 C 166 243.655, 166.291 259.891, 167.200 260.800 C 168.935 262.535, 298.065 262.535, 299.800 260.800 C 300.709 259.891, 301 243.672, 301 193.922 C 301 135.217, 300.832 128.105, 299.416 126.930 C 298.267 125.977, 297.375 125.904, 296.166 126.667 C 294.644 127.627, 294.478 133.193, 294.243 190.859 L 293.985 254 233.493 254 L 173 254 173 191.200 C 173 123.279, 173.058 123.988, 167.750 127.080 " stroke="none" fill="black" fill-rule="evenodd"/>
</svg>