<svg xmlns="http://www.w3.org/2000/svg" width="308" height="324" viewBox="0 0 308 324" version="1.1">
	<path d="M 55.750 63.080 C 54.186 63.991, 54 66.007, 54 82.015 C 54 98.703, 54.132 100, 55.934 100.965 C 57.043 101.558, 64.905 102, 74.363 102 C 88.024 102, 91.127 101.730, 92.429 100.429 C 94.757 98.100, 94.757 65.900, 92.429 63.571 C 91.123 62.266, 88.036 62.005, 74.179 62.030 C 64.720 62.048, 56.742 62.502, 55.750 63.080 M 62 82 L 62 94 74 94 L 86 94 86 82 L 86 70 74 70 L 62 70 62 82 M 63.102 127.104 C 37.582 130.982, 15.178 151.424, 8.414 177 C 6.134 185.626, 6.134 201.374, 8.414 210 C 11.688 222.378, 16.581 230.659, 26.461 240.539 C 40.473 254.551, 54.166 260.304, 73.500 260.304 C 92.217 260.304, 107.015 254.077, 120.500 240.527 C 133.957 227.005, 140 212.262, 140 192.953 C 140 174.668, 133.444 159.196, 120.095 145.981 C 104.892 130.930, 83.831 123.955, 63.102 127.104 M 57.500 135.870 C 37.436 141.645, 20.733 158.691, 15.585 178.644 C 13.554 186.517, 13.554 200.483, 15.585 208.356 C 20.838 228.716, 38.284 246.162, 58.644 251.415 C 65.760 253.251, 78.565 253.481, 86.201 251.910 C 89.115 251.310, 95.244 249.032, 99.820 246.847 C 124.843 234.900, 138.032 205.996, 131.003 178.511 C 125.680 157.698, 108.268 140.339, 87.897 135.537 C 79.386 133.531, 65.080 133.688, 57.500 135.870 M 65.384 159.370 C 54.736 162.041, 45.966 169.476, 41.191 179.880 C 37.513 187.892, 37.524 199.131, 41.216 207.175 C 51.729 230.080, 80.385 235.723, 97.777 218.313 C 105.474 210.608, 107.500 205.439, 107.500 193.500 C 107.500 181.367, 105.450 176.286, 97.353 168.339 C 89.041 160.183, 76.342 156.620, 65.384 159.370 M 63.627 167.468 C 58.247 169.386, 53.039 173.829, 49.500 179.519 C 46.982 183.568, 46.444 185.582, 46.150 192.050 C 45.760 200.623, 47.420 205.822, 52.447 211.770 C 58.859 219.355, 71.147 222.900, 81.231 220.074 C 92.579 216.894, 101 205.574, 101 193.500 C 101 182.038, 93.486 171.200, 82.965 167.488 C 77.743 165.645, 68.766 165.636, 63.627 167.468 M 192.903 175.067 C 185.789 176.113, 177.041 179.974, 170.367 185.013 C 164.776 189.234, 163.108 192.220, 165.040 194.548 C 166.922 196.816, 168.513 196.317, 173.689 191.835 C 176.335 189.545, 180.975 186.515, 184 185.102 C 188.850 182.837, 190.802 182.532, 200.521 182.517 C 210.966 182.501, 211.889 182.671, 218.189 185.772 C 221.845 187.572, 226.111 190.347, 227.668 191.938 C 229.226 193.529, 231.850 196.237, 233.500 197.956 C 235.150 199.674, 239.650 202.631, 243.500 204.527 C 260.371 212.833, 279.014 210.780, 294.778 198.878 C 300.367 194.658, 301.305 191.835, 297.838 189.663 C 296.521 188.838, 295.055 189.486, 290.787 192.779 C 281.288 200.107, 277.074 201.502, 264.500 201.483 C 250.534 201.462, 245.408 199.346, 235.711 189.600 C 227.963 181.814, 218.131 176.650, 208 175.045 C 200.801 173.904, 200.809 173.904, 192.903 175.067 M 71.616 191.527 C 70.727 192.416, 70 193.529, 70 194 C 70 195.389, 73.140 198.120, 74.295 197.735 C 76.395 197.035, 77.549 194.094, 76.423 192.310 C 74.905 189.902, 73.474 189.669, 71.616 191.527 M 192.903 239.067 C 185.789 240.113, 177.041 243.974, 170.367 249.013 C 164.776 253.234, 163.108 256.220, 165.040 258.548 C 166.922 260.816, 168.513 260.317, 173.689 255.835 C 176.335 253.545, 180.975 250.515, 184 249.102 C 188.850 246.837, 190.802 246.532, 200.521 246.517 C 210.966 246.501, 211.889 246.671, 218.189 249.772 C 221.845 251.572, 226.111 254.347, 227.668 255.938 C 229.226 257.529, 231.850 260.237, 233.500 261.956 C 235.150 263.674, 239.650 266.631, 243.500 268.527 C 260.371 276.833, 279.014 274.780, 294.778 262.878 C 300.367 258.658, 301.305 255.835, 297.838 253.663 C 296.521 252.838, 295.055 253.486, 290.787 256.779 C 281.288 264.107, 277.074 265.502, 264.500 265.483 C 250.534 265.462, 245.408 263.346, 235.711 253.600 C 227.963 245.814, 218.131 240.650, 208 239.045 C 200.801 237.904, 200.809 237.904, 192.903 239.067 " stroke="none" fill="black" fill-rule="evenodd"/>
</svg>