<svg xmlns="http://www.w3.org/2000/svg" width="244" height="324" viewBox="0 0 244 324" version="1.1">
	<path d="M 71.550 62.918 C 67.869 68.875, 54.190 98.331, 54.604 99.410 C 55.269 101.144, 57.524 102.120, 59.295 101.440 C 60.007 101.167, 63.480 95.106, 67.014 87.972 C 70.547 80.837, 73.691 75, 74 75 C 74.309 75, 77.453 80.837, 80.986 87.972 C 84.520 95.106, 87.993 101.167, 88.705 101.440 C 90.487 102.124, 92.732 101.141, 93.407 99.381 C 93.997 97.844, 77.582 64.037, 75.628 62.765 C 74.071 61.751, 72.229 61.820, 71.550 62.918 M 7.571 127.571 C 6.175 128.968, 6 136.406, 6 194.371 C 6 243.771, 6.291 259.891, 7.200 260.800 C 8.109 261.709, 24.229 262, 73.629 262 C 131.594 262, 139.032 261.825, 140.429 260.429 C 141.825 259.032, 142 251.628, 142 194 C 142 136.372, 141.825 128.968, 140.429 127.571 C 139.564 126.707, 138.471 126, 138 126 C 137.529 126, 136.436 126.707, 135.571 127.571 C 134.176 128.966, 134 136.152, 134 191.571 L 134 254 74 254 L 14 254 14 191.571 C 14 136.152, 13.824 128.966, 12.429 127.571 C 11.564 126.707, 10.471 126, 10 126 C 9.529 126, 8.436 126.707, 7.571 127.571 M 199.750 127.080 C 198.113 128.034, 198 132.152, 198 191.050 L 198 254 183.934 254 C 169.308 254, 166 254.738, 166 258 C 166 261.750, 168.791 262.037, 202.601 261.764 C 232.469 261.523, 235.378 261.349, 236.386 259.750 C 237.190 258.475, 237.191 257.525, 236.387 256.250 C 235.433 254.736, 233.314 254.463, 220.643 254.223 L 206 253.947 206 192.196 C 206 137.925, 205.811 130.176, 204.443 128.223 C 202.702 125.736, 202.248 125.625, 199.750 127.080 M 68.764 158.996 C 63.184 160.676, 59.145 164.067, 56.571 169.234 C 55.157 172.071, 54 175.397, 54 176.625 C 54 178.839, 56.353 182, 58 182 C 59.861 182, 62 178.700, 62 175.829 C 62 173.718, 63.030 171.770, 65.400 169.400 C 68.278 166.522, 69.504 166, 73.384 166 C 77.036 166, 78.632 166.593, 81.234 168.918 C 84.194 171.563, 84.500 172.367, 84.500 177.500 C 84.500 182.633, 84.194 183.437, 81.234 186.082 C 79.438 187.687, 76.883 189, 75.556 189 C 71.018 189, 70 191.291, 70 201.500 C 70 208.673, 70.367 211.224, 71.571 212.429 C 72.436 213.293, 73.529 214, 74 214 C 76.689 214, 78 210.575, 78 203.550 C 78 196.379, 78.056 196.219, 80.989 195.004 C 85.271 193.231, 90.707 186.801, 92.007 181.973 C 93.862 175.084, 91.605 168.495, 85.578 163.203 C 80.492 158.737, 74.556 157.252, 68.764 158.996 M 71.571 222.571 C 70.707 223.436, 70 224.529, 70 225 C 70 225.471, 70.707 226.564, 71.571 227.429 C 72.436 228.293, 73.529 229, 74 229 C 74.471 229, 75.564 228.293, 76.429 227.429 C 77.293 226.564, 78 225.471, 78 225 C 78 224.529, 77.293 223.436, 76.429 222.571 C 75.564 221.707, 74.471 221, 74 221 C 73.529 221, 72.436 221.707, 71.571 222.571 " stroke="none" fill="black" fill-rule="evenodd"/>
</svg>