<svg xmlns="http://www.w3.org/2000/svg" width="340" height="324" viewBox="0 0 340 324" version="1.1">
	<path d="M 39.571 127.571 C 38.176 128.966, 38 136.152, 38 191.571 L 38 254 23.571 254 C 11.788 254, 8.855 254.288, 7.571 255.571 C 5.598 257.545, 5.598 258.455, 7.571 260.429 C 8.936 261.793, 13.463 262, 42 262 C 70.537 262, 75.064 261.793, 76.429 260.429 C 77.293 259.564, 78 258.471, 78 258 C 78 257.529, 77.293 256.436, 76.429 255.571 C 75.145 254.288, 72.212 254, 60.429 254 L 46 254 46 191.571 C 46 136.152, 45.824 128.966, 44.429 127.571 C 43.564 126.707, 42.471 126, 42 126 C 41.529 126, 40.436 126.707, 39.571 127.571 M 103.571 127.571 C 102.175 128.968, 102 136.406, 102 194.371 C 102 243.771, 102.291 259.891, 103.200 260.800 C 104.109 261.709, 120.229 262, 169.629 262 C 227.594 262, 235.032 261.825, 236.429 260.429 C 237.825 259.032, 238 251.628, 238 194 C 238 136.372, 237.825 128.968, 236.429 127.571 C 234.569 125.712, 234.436 125.696, 231.934 127.035 C 230.053 128.042, 230 129.807, 230 191.035 L 230 254 170 254 L 110 254 110 191.571 C 110 136.152, 109.824 128.966, 108.429 127.571 C 107.564 126.707, 106.471 126, 106 126 C 105.529 126, 104.436 126.707, 103.571 127.571 M 295.750 127.080 C 294.113 128.034, 294 132.152, 294 191.050 L 294 254 279.934 254 C 265.308 254, 262 254.738, 262 258 C 262 261.750, 264.791 262.037, 298.601 261.764 C 328.469 261.523, 331.378 261.349, 332.386 259.750 C 333.190 258.475, 333.191 257.525, 332.387 256.250 C 331.433 254.736, 329.314 254.463, 316.643 254.223 L 302 253.947 302 192.196 C 302 137.925, 301.811 130.176, 300.443 128.223 C 298.702 125.736, 298.248 125.625, 295.750 127.080 M 161.401 160.394 C 154.855 163.442, 150 170.546, 150 177.078 C 150 178.923, 152.501 182, 154 182 C 155.861 182, 158 178.700, 158 175.829 C 158 173.718, 159.030 171.770, 161.400 169.400 C 164.231 166.569, 165.533 166, 169.177 166 C 178.941 166, 184.196 175.962, 178.719 184.089 C 177.465 185.950, 175.102 187.872, 173.469 188.360 C 165.531 190.729, 166 189.941, 166 200.907 C 166 208.619, 166.353 211.211, 167.571 212.429 C 168.436 213.293, 169.529 214, 170 214 C 172.696 214, 174 210.576, 174 203.496 C 174 196.935, 174.225 196.064, 176.066 195.479 C 179.091 194.519, 184.861 189.169, 186.694 185.625 C 188.738 181.672, 188.738 173.328, 186.694 169.375 C 183.467 163.135, 175.245 158.001, 168.500 158.015 C 167.400 158.018, 164.205 159.088, 161.401 160.394 M 167.571 222.571 C 166.707 223.436, 166 224.529, 166 225 C 166 225.471, 166.707 226.564, 167.571 227.429 C 168.436 228.293, 169.529 229, 170 229 C 170.471 229, 171.564 228.293, 172.429 227.429 C 173.293 226.564, 174 225.471, 174 225 C 174 224.529, 173.293 223.436, 172.429 222.571 C 171.564 221.707, 170.471 221, 170 221 C 169.529 221, 168.436 221.707, 167.571 222.571 " stroke="none" fill="black" fill-rule="evenodd"/>
</svg>