<svg xmlns="http://www.w3.org/2000/svg" width="308" height="324" viewBox="0 0 308 324" version="1.1">
	<path d="M 63.870 127.014 C 48.636 129.407, 37.616 135.194, 25.974 146.916 C 13.989 158.983, 8.432 170.878, 6.503 188.598 C 5.964 193.549, 6.150 195.007, 7.491 196.348 C 9.547 198.404, 10.439 198.418, 12.429 196.429 C 13.404 195.453, 14.006 193.082, 14.015 190.179 C 14.091 166.127, 34.559 141.323, 59.103 135.537 C 62.621 134.708, 66.063 134.023, 66.752 134.015 C 67.440 134.007, 54.052 161.899, 37.002 195.997 C 19.951 230.095, 6 258.188, 6 258.425 C 6 258.663, 6.707 259.564, 7.571 260.429 C 8.968 261.825, 16.372 262, 74 262 C 131.628 262, 139.032 261.825, 140.429 260.429 C 141.293 259.564, 142 258.663, 142 258.425 C 142 258.188, 128.029 230.055, 110.954 195.907 L 79.907 133.821 83.204 134.481 C 101.298 138.104, 117.056 149.181, 125.340 164.101 C 129.485 171.566, 133 183.966, 133 191.125 C 133 194.956, 133.418 196.154, 135.064 197.034 C 142.869 201.211, 141.090 178.529, 132.293 161.700 C 124.457 146.708, 106.926 132.840, 90.500 128.638 C 82.632 126.625, 70.901 125.909, 63.870 127.014 M 44.747 196.500 L 16.002 254 73.584 254 C 107.473 254, 131.030 253.628, 130.833 253.096 C 129.542 249.595, 74.514 139, 74.063 139 C 73.749 139, 60.557 164.875, 44.747 196.500 M 167.750 191.080 C 165.422 192.436, 165.524 195.675, 167.934 196.965 C 168.998 197.534, 175.523 198, 182.434 198 C 189.345 198, 195 198.228, 195 198.507 C 195 198.785, 188.475 212.057, 180.500 228 C 172.525 243.943, 166 257.649, 166 258.458 C 166 260.785, 169.808 262.404, 171.663 260.865 C 172.507 260.164, 179.620 246.753, 187.468 231.063 L 201.739 202.535 216.620 232.018 C 228.660 255.873, 231.882 261.500, 233.500 261.500 C 235.119 261.500, 238.362 255.829, 250.514 231.750 L 265.527 201.999 280.014 231.084 C 287.981 247.080, 295.187 260.542, 296.026 260.999 C 297.903 262.022, 301 260.431, 301 258.444 C 301 257.642, 294.475 243.943, 286.500 228 C 278.525 212.057, 272 198.785, 272 198.507 C 272 198.228, 277.655 198, 284.566 198 C 297.724 198, 301 197.203, 301 194 C 301 192.939, 300.130 191.605, 299.066 191.035 C 296.420 189.619, 170.184 189.662, 167.750 191.080 M 208 198.508 C 208 199.477, 233.010 249, 233.500 249 C 233.990 249, 259 199.477, 259 198.508 C 259 198.228, 247.525 198, 233.500 198 C 219.475 198, 208 198.228, 208 198.508 " stroke="none" fill="black" fill-rule="evenodd"/>
</svg>