<svg xmlns="http://www.w3.org/2000/svg" width="244" height="324" viewBox="0 0 244 324" version="1.1">
	<path d="M 64.500 126.944 C 56.325 128.268, 50.930 129.991, 43 133.814 C 32.444 138.903, 18.927 152.404, 13.778 163 C 7.648 175.615, 4.334 193.191, 7.491 196.348 C 9.547 198.404, 10.439 198.418, 12.429 196.429 C 13.404 195.453, 14.006 193.082, 14.015 190.179 C 14.091 166.127, 34.559 141.323, 59.103 135.537 C 62.621 134.708, 66.063 134.023, 66.752 134.015 C 67.440 134.007, 54.052 161.899, 37.002 195.997 C 19.951 230.095, 6 258.188, 6 258.425 C 6 258.663, 6.707 259.564, 7.571 260.429 C 8.968 261.825, 16.372 262, 74 262 C 131.628 262, 139.032 261.825, 140.429 260.429 C 141.293 259.564, 142 258.663, 142 258.425 C 142 258.188, 128.038 230.072, 110.973 195.946 L 79.946 133.899 83.723 134.578 C 95.375 136.673, 106.412 142.453, 115.082 151 C 125.599 161.368, 131.489 173.650, 132.675 187.687 C 133.447 196.821, 135.914 200.218, 139.040 196.452 C 140.680 194.476, 140.381 184.936, 138.438 177.260 C 132.574 154.092, 113.232 134.481, 90.483 128.639 C 82.858 126.681, 70.933 125.903, 64.500 126.944 M 199.571 127.571 C 198.176 128.966, 198 136.152, 198 191.571 L 198 254 183.571 254 C 171.788 254, 168.855 254.288, 167.571 255.571 C 165.595 257.548, 165.598 258.455, 167.585 260.442 C 168.978 261.835, 173.159 261.995, 202.226 261.763 C 232.452 261.523, 235.377 261.350, 236.386 259.750 C 237.190 258.475, 237.191 257.525, 236.387 256.250 C 235.430 254.730, 233.291 254.464, 220.142 254.224 L 205 253.948 205 191.174 C 205 128.929, 204.859 126, 201.871 126 C 201.471 126, 200.436 126.707, 199.571 127.571 M 44.747 196.500 L 16.002 254 74 254 L 131.998 254 103.253 196.500 C 87.443 164.875, 74.279 139, 74 139 C 73.721 139, 60.557 164.875, 44.747 196.500 " stroke="none" fill="black" fill-rule="evenodd"/>
</svg>