<svg xmlns="http://www.w3.org/2000/svg" width="340" height="324" viewBox="0 0 340 324" version="1.1">
	<path d="M 64.500 126.944 C 48.464 129.540, 38.190 134.822, 26.461 146.500 C 19.435 153.496, 16.611 157.170, 13.778 163 C 7.648 175.615, 4.334 193.191, 7.491 196.348 C 9.547 198.404, 10.439 198.418, 12.429 196.429 C 13.404 195.453, 14.006 193.082, 14.015 190.179 C 14.091 166.127, 34.559 141.323, 59.103 135.537 C 62.621 134.708, 66.063 134.023, 66.752 134.015 C 67.440 134.007, 54.052 161.899, 37.002 195.997 C 19.951 230.095, 6 258.188, 6 258.425 C 6 258.663, 6.707 259.564, 7.571 260.429 C 8.968 261.825, 16.372 262, 74 262 C 131.628 262, 139.032 261.825, 140.429 260.429 C 141.293 259.564, 142 258.663, 142 258.425 C 142 258.188, 128.038 230.072, 110.973 195.946 L 79.946 133.899 83.723 134.578 C 101.573 137.787, 118.710 150.444, 126.330 166.046 C 130.578 174.744, 133 183.494, 133 190.139 C 133 197.065, 136.570 200.214, 139.360 195.750 C 140.454 194, 140.582 191.869, 139.935 186.164 C 136.832 158.798, 116.692 135.370, 90.483 128.639 C 82.858 126.681, 70.933 125.903, 64.500 126.944 M 231.240 191.268 C 195.358 227.165, 166 257.058, 166 257.696 C 166 259.112, 168.771 262, 170.129 262 C 170.672 262, 198.749 234.213, 232.523 200.250 L 293.930 138.500 293.965 164.250 L 294 190 279.200 190 C 269.022 190, 264.025 190.375, 263.200 191.200 C 261.481 192.919, 261.481 259.081, 263.200 260.800 C 264.602 262.202, 329.610 262.534, 331.791 261.150 C 332.805 260.507, 333.082 252.958, 333.082 226 C 333.082 199.042, 332.805 191.493, 331.791 190.850 C 331.081 190.399, 323.846 190.024, 315.713 190.015 L 300.926 190 301.043 158.859 C 301.163 127.104, 301.051 126.069, 297.490 126.015 C 296.934 126.007, 267.121 155.371, 231.240 191.268 M 44.747 196.500 L 16.002 254 74 254 L 131.998 254 103.253 196.500 C 87.443 164.875, 74.279 139, 74 139 C 73.721 139, 60.557 164.875, 44.747 196.500 M 269 226 L 269 254 297.500 254 L 326 254 326 226 L 326 198 297.500 198 L 269 198 269 226 " stroke="none" fill="black" fill-rule="evenodd"/>
</svg>