<svg xmlns="http://www.w3.org/2000/svg" width="276" height="324" viewBox="0 0 276 324" version="1.1">
	<path d="M 67 126.637 C 48.805 129.294, 36.051 135.795, 24.287 148.411 C 14.039 159.400, 8.260 172.458, 6.503 188.598 C 5.964 193.549, 6.150 195.007, 7.491 196.348 C 9.547 198.404, 10.439 198.418, 12.429 196.429 C 13.404 195.453, 14.006 193.082, 14.015 190.179 C 14.091 166.127, 34.559 141.323, 59.103 135.537 C 62.621 134.708, 66.063 134.023, 66.752 134.015 C 67.440 134.007, 54.052 161.899, 37.002 195.997 C 19.951 230.095, 6 258.188, 6 258.425 C 6 258.663, 6.707 259.564, 7.571 260.429 C 8.968 261.825, 16.372 262, 74 262 C 131.628 262, 139.032 261.825, 140.429 260.429 C 141.293 259.564, 142 258.663, 142 258.425 C 142 258.188, 128.049 230.095, 110.998 195.997 C 93.948 161.899, 80.335 134.007, 80.748 134.015 C 81.162 134.023, 84.379 134.708, 87.897 135.537 C 112.441 141.323, 132.909 166.127, 132.985 190.179 C 132.994 193.082, 133.596 195.453, 134.571 196.429 C 136.561 198.418, 137.453 198.404, 139.509 196.348 C 140.850 195.007, 141.036 193.549, 140.497 188.598 C 138.021 165.862, 126.306 147.112, 107.500 135.789 C 95.767 128.724, 78.866 124.905, 67 126.637 M 195.045 127.064 C 173.497 131.427, 161.173 153.901, 169.037 174.493 C 172.142 182.624, 180.344 190.863, 188.295 193.837 C 191.474 195.027, 194.958 196, 196.038 196 C 197.946 196, 198 196.867, 198 227.429 C 198 254.667, 198.210 259.067, 199.571 260.429 C 202.992 263.849, 206 260.758, 206 253.823 C 206 226.185, 234.185 198, 261.823 198 C 268.834 198, 271.850 194.992, 268.348 191.491 C 265.202 188.345, 247.553 191.657, 235.194 197.713 C 226.837 201.809, 214.816 212.418, 209.850 220.081 C 208.097 222.787, 206.514 225, 206.332 225 C 206.149 225, 206 218.475, 206 210.500 C 206 198.443, 206.246 196, 207.462 196 C 212.056 196, 220.841 191.319, 226.080 186.080 C 239.954 172.206, 239.954 150.794, 226.080 136.920 C 217.841 128.681, 205.855 124.875, 195.045 127.064 M 191.054 135.728 C 185.018 137.859, 177.781 145.260, 175.667 151.463 C 171.995 162.241, 174.382 173.477, 181.952 181.048 C 192.673 191.769, 210.327 191.769, 221.048 181.048 C 231.769 170.327, 231.769 152.673, 221.048 141.952 C 213.519 134.424, 201.696 131.970, 191.054 135.728 M 44.747 196.500 L 16.002 254 74 254 L 131.998 254 103.253 196.500 C 87.443 164.875, 74.279 139, 74 139 C 73.721 139, 60.557 164.875, 44.747 196.500 " stroke="none" fill="black" fill-rule="evenodd"/>
</svg>