<svg xmlns="http://www.w3.org/2000/svg" width="308" height="324" viewBox="0 0 308 324" version="1.1">
	<path d="M 64.500 126.944 C 56.325 128.268, 50.930 129.991, 43 133.814 C 32.444 138.903, 18.927 152.404, 13.778 163 C 7.648 175.615, 4.334 193.191, 7.491 196.348 C 10.992 199.850, 14 196.834, 14 189.823 C 14 171.461, 27.851 149.945, 45.603 140.732 C 51.722 137.556, 62.722 134.062, 66.752 134.015 C 67.440 134.007, 54.052 161.899, 37.002 195.997 C 19.951 230.095, 6 258.188, 6 258.425 C 6 258.663, 6.707 259.564, 7.571 260.429 C 8.968 261.825, 16.372 262, 74 262 C 131.628 262, 139.032 261.825, 140.429 260.429 C 141.293 259.564, 142 258.663, 142 258.425 C 142 258.188, 128.038 230.072, 110.973 195.946 L 79.946 133.899 83.723 134.578 C 100.642 137.620, 117.131 149.317, 125.340 164.101 C 129.485 171.566, 133 183.966, 133 191.125 C 133 194.956, 133.418 196.154, 135.064 197.034 C 142.863 201.208, 141.093 178.561, 132.303 161.700 C 129.753 156.809, 125.954 151.890, 120.457 146.361 C 113.703 139.568, 110.806 137.478, 102.933 133.719 C 97.745 131.242, 91.475 128.743, 89 128.165 C 82.400 126.623, 70.232 126.016, 64.500 126.944 M 166.667 127.667 C 164.954 129.380, 166.541 132.053, 173.106 138.510 C 181.514 146.779, 184.912 151.487, 189.525 161.256 C 194.906 172.650, 196.450 179.836, 196.450 193.500 C 196.450 207.949, 194.870 214.688, 188.392 227.877 C 184.569 235.662, 182.192 238.889, 174.399 246.877 C 169.236 252.170, 165.009 256.805, 165.006 257.179 C 164.998 258.118, 167.966 261, 168.941 261 C 170.636 261, 179.917 252.803, 184.433 247.318 C 191.390 238.867, 196.475 229.722, 200.180 219 C 203.358 209.804, 203.463 208.988, 203.463 193.500 C 203.463 178.027, 203.355 177.187, 200.190 168 C 195.762 155.150, 189.071 144.294, 179.757 134.851 C 172.450 127.442, 168.861 125.472, 166.667 127.667 M 44.747 196.500 L 16.002 254 73.584 254 C 108.719 254, 131.037 253.637, 130.833 253.069 C 129.631 249.708, 74.547 139, 74.078 139 C 73.756 139, 60.557 164.875, 44.747 196.500 M 231.200 159.200 C 229.481 160.919, 229.481 227.081, 231.200 228.800 C 232.918 230.518, 298.082 230.518, 299.800 228.800 C 301.519 227.081, 301.519 160.919, 299.800 159.200 C 298.082 157.482, 232.918 157.482, 231.200 159.200 M 237 194 L 237 222 265.500 222 L 294 222 294 194 L 294 166 265.500 166 L 237 166 237 194 " stroke="none" fill="black" fill-rule="evenodd"/>
</svg>