<svg xmlns="http://www.w3.org/2000/svg" width="344" height="324" viewBox="0 0 344 324" version="1.1">
	<path d="M 67 126.637 C 48.805 129.294, 36.051 135.795, 24.287 148.411 C 14.039 159.400, 8.260 172.458, 6.503 188.598 C 5.964 193.549, 6.150 195.007, 7.491 196.348 C 9.547 198.404, 10.439 198.418, 12.429 196.429 C 13.404 195.453, 14.006 193.082, 14.015 190.179 C 14.091 166.127, 34.559 141.323, 59.103 135.537 C 62.621 134.708, 66.063 134.023, 66.752 134.015 C 67.440 134.007, 54.052 161.899, 37.002 195.997 C 19.951 230.095, 6 258.188, 6 258.425 C 6 258.663, 6.707 259.564, 7.571 260.429 C 8.968 261.825, 16.372 262, 74 262 C 131.628 262, 139.032 261.825, 140.429 260.429 C 141.293 259.564, 142 258.663, 142 258.425 C 142 258.188, 128.049 230.095, 110.998 195.997 C 93.948 161.899, 80.335 134.007, 80.748 134.015 C 81.162 134.023, 84.379 134.708, 87.897 135.537 C 112.441 141.323, 132.909 166.127, 132.985 190.179 C 132.994 193.082, 133.596 195.453, 134.571 196.429 C 136.561 198.418, 137.453 198.404, 139.509 196.348 C 140.850 195.007, 141.036 193.549, 140.497 188.598 C 138.021 165.862, 126.306 147.112, 107.500 135.789 C 95.767 128.724, 78.866 124.905, 67 126.637 M 248.372 126.765 C 247.752 127.169, 243.812 134.363, 239.616 142.750 L 231.987 158 216.565 158 C 203.878 158, 200.864 158.279, 199.571 159.571 C 197.598 161.545, 197.598 162.455, 199.571 164.429 C 200.844 165.701, 203.697 166, 214.575 166 L 228.007 166 214 194 L 199.993 222 184.568 222 C 171.878 222, 168.864 222.279, 167.571 223.571 C 165.598 225.545, 165.598 226.455, 167.571 228.429 C 168.844 229.701, 171.698 230, 182.578 230 L 196.013 230 189.022 243.957 C 185.176 251.633, 182.283 258.574, 182.592 259.380 C 183.265 261.133, 185.511 262.125, 187.275 261.448 C 187.977 261.179, 192.025 253.993, 196.271 245.479 L 203.992 230 232.003 230 L 260.013 230 253.022 243.957 C 249.176 251.633, 246.283 258.574, 246.592 259.380 C 247.265 261.133, 249.511 262.125, 251.275 261.448 C 251.977 261.179, 256.025 253.993, 260.271 245.479 L 267.992 230 283.424 230 C 296.121 230, 299.136 229.721, 300.429 228.429 C 301.293 227.564, 302 226.471, 302 226 C 302 225.529, 301.293 224.436, 300.429 223.571 C 299.156 222.299, 296.303 222, 285.425 222 L 271.993 222 286 194 L 300.007 166 315.432 166 C 328.122 166, 331.136 165.721, 332.429 164.429 C 334.402 162.455, 334.402 161.545, 332.429 159.571 C 331.156 158.299, 328.302 158, 317.422 158 L 303.987 158 310.978 144.043 C 314.824 136.367, 317.717 129.426, 317.408 128.620 C 316.735 126.867, 314.489 125.875, 312.725 126.552 C 312.023 126.821, 307.975 134.007, 303.729 142.521 L 296.008 158 267.997 158 L 239.987 158 246.993 144.013 C 250.847 136.321, 254 129.828, 254 129.585 C 254 128.874, 250.921 125.999, 250.179 126.015 C 249.805 126.024, 248.993 126.361, 248.372 126.765 M 44.747 196.500 L 16.002 254 74 254 L 131.998 254 103.253 196.500 C 87.443 164.875, 74.279 139, 74 139 C 73.721 139, 60.557 164.875, 44.747 196.500 M 222 194 L 207.993 222 235.993 222 L 263.993 222 278 194 L 292.007 166 264.007 166 L 236.007 166 222 194 " stroke="none" fill="black" fill-rule="evenodd"/>
</svg>