<svg xmlns="http://www.w3.org/2000/svg" width="308" height="324" viewBox="0 0 308 324" version="1.1">
	<path d="M 63.102 127.104 C 48.516 129.321, 35.328 136.577, 24.168 148.528 C 13.801 159.628, 8.225 172.265, 6.488 188.598 C 5.962 193.536, 6.153 195.010, 7.491 196.348 C 9.547 198.404, 10.439 198.418, 12.429 196.429 C 13.404 195.453, 14.006 193.082, 14.015 190.179 C 14.091 166.127, 34.559 141.323, 59.103 135.537 C 62.621 134.708, 66.063 134.023, 66.752 134.015 C 67.440 134.007, 54.052 161.899, 37.002 195.997 C 19.951 230.095, 6 258.188, 6 258.425 C 6 258.663, 6.707 259.564, 7.571 260.429 C 8.968 261.825, 16.372 262, 74 262 C 131.628 262, 139.032 261.825, 140.429 260.429 C 141.293 259.564, 142 258.663, 142 258.425 C 142 258.188, 128.029 230.055, 110.954 195.907 L 79.907 133.821 83.204 134.481 C 101.298 138.104, 117.056 149.181, 125.340 164.101 C 129.485 171.566, 133 183.966, 133 191.125 C 133 194.956, 133.418 196.154, 135.064 197.034 C 142.986 201.274, 141.161 178.669, 132.196 161.516 C 126.915 151.410, 114.917 139.609, 104.500 134.271 C 91.374 127.546, 76.799 125.023, 63.102 127.104 M 44.747 196.500 L 16.002 254 73.584 254 C 106.287 254, 131.023 253.620, 130.833 253.121 C 129.529 249.680, 74.420 139, 74.011 139 C 73.725 139, 60.557 164.875, 44.747 196.500 M 167.750 255.076 C 165.417 256.440, 165.526 259.676, 167.948 260.972 C 169.256 261.672, 191.132 261.930, 234.589 261.757 C 294.951 261.517, 299.356 261.383, 300.386 259.750 C 301.191 258.474, 301.191 257.526, 300.386 256.250 C 299.356 254.616, 294.963 254.485, 234.391 254.276 C 191.547 254.129, 168.905 254.400, 167.750 255.076 " stroke="none" fill="black" fill-rule="evenodd"/>
</svg>