<svg xmlns="http://www.w3.org/2000/svg" width="403" height="324" viewBox="0 0 403 324" version="1.1">
	<path d="M 39.571 127.571 C 38.176 128.966, 38 136.152, 38 191.571 L 38 254 23.571 254 C 11.788 254, 8.855 254.288, 7.571 255.571 C 5.598 257.545, 5.598 258.455, 7.571 260.429 C 8.936 261.793, 13.463 262, 42 262 C 70.537 262, 75.064 261.793, 76.429 260.429 C 77.293 259.564, 78 258.471, 78 258 C 78 257.529, 77.293 256.436, 76.429 255.571 C 75.145 254.288, 72.212 254, 60.429 254 L 46 254 46 191.571 C 46 136.152, 45.824 128.966, 44.429 127.571 C 43.564 126.707, 42.471 126, 42 126 C 41.529 126, 40.436 126.707, 39.571 127.571 M 159.205 127.092 C 145.411 129.194, 132.167 136.058, 121.939 146.407 C 110.671 157.807, 104.079 171.793, 102.526 187.593 C 101.946 193.493, 102.107 194.964, 103.486 196.343 C 104.397 197.254, 105.535 198, 106.015 198 C 107.925 198, 110 193.308, 110 188.988 C 110 171.109, 124.213 149.410, 141.656 140.660 C 148.512 137.220, 161.542 133.208, 162.558 134.224 C 162.825 134.491, 149.272 162.563, 132.440 196.605 C 109.865 242.262, 102.083 258.894, 102.777 260 C 103.594 261.303, 112.160 261.536, 168.109 261.776 C 203.524 261.928, 233.512 261.807, 234.750 261.507 C 236.333 261.123, 237 260.226, 237 258.478 C 237 257.111, 223.263 228.522, 206.473 194.946 L 175.946 133.899 179.723 134.584 C 206.162 139.373, 226.389 161.645, 228.656 188.463 C 229.170 194.542, 229.690 196.299, 231.214 197.115 C 238.880 201.217, 236.961 178.149, 228.264 161.652 C 225.771 156.922, 221.777 151.762, 216.433 146.367 C 209.680 139.549, 206.828 137.488, 198.933 133.719 C 193.745 131.242, 187.475 128.743, 185 128.165 C 178.002 126.530, 166.132 126.036, 159.205 127.092 M 322.355 126.998 C 312.059 129.139, 302.075 137.076, 297.205 146.993 C 294.873 151.740, 294.500 153.743, 294.500 161.500 C 294.500 169.257, 294.873 171.260, 297.205 176.007 C 300.096 181.894, 306.750 189.294, 311.250 191.626 C 312.762 192.410, 314 193.253, 314 193.500 C 314 193.747, 312.762 194.590, 311.250 195.374 C 306.750 197.706, 300.096 205.106, 297.205 210.993 C 294.873 215.740, 294.500 217.742, 294.500 225.502 C 294.500 233.181, 294.882 235.276, 297.097 239.752 C 298.525 242.639, 299.381 245, 298.997 245 C 297.410 245, 290.127 238.929, 284.807 233.170 C 276.868 224.578, 272.231 214.764, 270.158 202.168 C 268.316 190.975, 267.360 189.202, 264.107 190.943 C 261.517 192.329, 261.340 197.223, 263.511 207.471 C 268.160 229.417, 285.234 249.006, 306.403 256.682 C 313.562 259.278, 329.794 261.761, 333.822 260.875 C 335.845 260.431, 340.650 259.378, 344.500 258.535 C 363.158 254.450, 380.393 240.831, 388.982 223.385 C 394.968 211.227, 397.884 193.808, 394.416 190.930 C 391.445 188.464, 389.665 191.047, 388.443 199.601 C 387.037 209.436, 385.690 213.702, 381.339 222.090 C 377.536 229.422, 369.941 237.908, 362.799 242.805 L 358.097 246.029 360.727 240.284 C 364.440 232.175, 364.976 221.566, 362.062 213.847 C 359.308 206.548, 354.240 199.968, 348.649 196.431 L 344.204 193.619 349.268 190.059 C 365.447 178.688, 368.752 155.652, 356.508 139.600 C 349.168 129.976, 334.343 124.506, 322.355 126.998 M 317.500 136.353 C 311.873 138.979, 305.871 145.089, 303.378 150.728 C 302.340 153.077, 301.711 157.141, 301.711 161.500 C 301.711 165.859, 302.340 169.923, 303.378 172.272 C 305.871 177.911, 311.873 184.021, 317.500 186.647 C 326.618 190.902, 326 192.730, 326 161.500 C 326 130.270, 326.618 132.098, 317.500 136.353 M 333 161.500 C 333 182.839, 333.280 188.998, 334.250 188.990 C 337.395 188.966, 345.891 183.877, 349.683 179.746 C 353.999 175.045, 357 167.561, 357 161.500 C 357 155.439, 353.999 147.955, 349.683 143.254 C 345.891 139.123, 337.395 134.034, 334.250 134.010 C 333.280 134.002, 333 140.161, 333 161.500 M 140.747 196.500 L 112.002 254 169.501 254 C 201.126 254, 227 253.773, 227 253.497 C 227 252.838, 170.074 139, 169.744 139 C 169.605 139, 156.557 164.875, 140.747 196.500 M 317.500 200.353 C 311.873 202.979, 305.871 209.089, 303.378 214.728 C 302.340 217.077, 301.711 221.141, 301.711 225.500 C 301.711 229.859, 302.340 233.923, 303.378 236.272 C 305.871 241.911, 311.873 248.021, 317.500 250.647 C 326.618 254.902, 326 256.730, 326 225.500 C 326 194.270, 326.618 196.098, 317.500 200.353 M 333 225.500 C 333 246.839, 333.280 252.998, 334.250 252.990 C 337.395 252.966, 345.891 247.877, 349.683 243.746 C 353.999 239.045, 357 231.561, 357 225.500 C 357 219.439, 353.999 211.955, 349.683 207.254 C 345.891 203.123, 337.395 198.034, 334.250 198.010 C 333.280 198.002, 333 204.161, 333 225.500 " stroke="none" fill="black" fill-rule="evenodd"/>
</svg>