<svg xmlns="http://www.w3.org/2000/svg" width="403" height="324" viewBox="0 0 403 324" version="1.1">
	<path d="M 39.571 127.571 C 38.176 128.966, 38 136.152, 38 191.571 L 38 254 23.571 254 C 11.788 254, 8.855 254.288, 7.571 255.571 C 5.598 257.545, 5.598 258.455, 7.571 260.429 C 8.936 261.793, 13.463 262, 42 262 C 70.537 262, 75.064 261.793, 76.429 260.429 C 77.293 259.564, 78 258.471, 78 258 C 78 257.529, 77.293 256.436, 76.429 255.571 C 75.145 254.288, 72.212 254, 60.429 254 L 46 254 46 191.571 C 46 136.152, 45.824 128.966, 44.429 127.571 C 43.564 126.707, 42.471 126, 42 126 C 41.529 126, 40.436 126.707, 39.571 127.571 M 157.500 127.418 C 142.933 130.252, 131.517 136.380, 121.304 146.850 C 110.743 157.677, 103.976 172.321, 102.469 187.614 C 101.891 193.479, 102.055 194.912, 103.460 196.317 C 107.035 199.892, 110 196.864, 110 189.639 C 110 165.862, 130.691 141.217, 155.481 135.468 C 159.196 134.607, 162.432 134.099, 162.672 134.339 C 162.913 134.580, 149.249 162.501, 132.309 196.387 C 106.906 247.201, 101.702 258.305, 102.613 259.749 C 103.644 261.383, 108.029 261.518, 168.109 261.776 C 203.524 261.928, 233.512 261.807, 234.750 261.507 C 236.333 261.123, 237 260.226, 237 258.478 C 237 257.111, 223.263 228.522, 206.473 194.946 L 175.946 133.899 179.723 134.599 C 206.206 139.505, 226.397 161.731, 228.656 188.463 C 229.170 194.542, 229.690 196.299, 231.214 197.115 C 238.866 201.210, 236.987 178.358, 228.303 161.700 C 220.560 146.848, 202.854 132.840, 186.500 128.627 C 177.618 126.340, 165.618 125.839, 157.500 127.418 M 140.747 196.500 L 112.002 254 169.501 254 C 201.126 254, 227 253.773, 227 253.497 C 227 252.838, 170.074 139, 169.744 139 C 169.605 139, 156.557 164.875, 140.747 196.500 M 263.750 255.076 C 261.417 256.440, 261.526 259.676, 263.948 260.972 C 265.256 261.672, 287.132 261.930, 330.589 261.757 C 390.951 261.517, 395.356 261.383, 396.386 259.750 C 397.191 258.474, 397.191 257.526, 396.386 256.250 C 395.356 254.616, 390.963 254.485, 330.391 254.276 C 287.547 254.129, 264.905 254.400, 263.750 255.076 " stroke="none" fill="black" fill-rule="evenodd"/>
</svg>