<svg xmlns="http://www.w3.org/2000/svg" width="468" height="324" viewBox="0 0 468 324" version="1.1">
	<path d="M 39.571 127.571 C 38.176 128.966, 38 136.152, 38 191.571 L 38 254 23.571 254 C 11.788 254, 8.855 254.288, 7.571 255.571 C 5.598 257.545, 5.598 258.455, 7.571 260.429 C 8.936 261.793, 13.463 262, 42 262 C 70.537 262, 75.064 261.793, 76.429 260.429 C 77.293 259.564, 78 258.471, 78 258 C 78 257.529, 77.293 256.436, 76.429 255.571 C 75.145 254.288, 72.212 254, 60.429 254 L 46 254 46 191.571 C 46 136.152, 45.824 128.966, 44.429 127.571 C 43.564 126.707, 42.471 126, 42 126 C 41.529 126, 40.436 126.707, 39.571 127.571 M 160.500 126.944 C 152.325 128.268, 146.930 129.991, 139 133.814 C 128.444 138.903, 114.927 152.404, 109.778 163 C 103.648 175.615, 100.334 193.191, 103.491 196.348 C 105.547 198.404, 106.439 198.418, 108.429 196.429 C 109.379 195.478, 110 193.126, 110 190.478 C 110 183.304, 111.937 176.010, 116.235 167 C 121.868 155.191, 131.191 145.868, 143 140.235 C 150.152 136.823, 159.231 134, 163.051 134 C 163.575 134, 150.052 161.899, 133.002 195.997 C 115.951 230.095, 102 258.188, 102 258.425 C 102 258.663, 102.707 259.564, 103.571 260.429 C 104.968 261.825, 112.372 262, 170 262 C 227.628 262, 235.032 261.825, 236.429 260.429 C 237.293 259.564, 238 258.663, 238 258.425 C 238 258.188, 224.038 230.072, 206.973 195.946 L 175.946 133.899 179.723 134.578 C 198.230 137.905, 214.863 150.434, 222.765 167 C 227.063 176.010, 229 183.304, 229 190.478 C 229 193.126, 229.621 195.478, 230.571 196.429 C 232.561 198.418, 233.453 198.404, 235.509 196.348 C 236.850 195.007, 237.036 193.549, 236.497 188.598 C 234.532 170.552, 229.045 158.967, 216.539 146.461 C 206.721 136.644, 198.174 131.566, 186.500 128.618 C 178.811 126.676, 166.896 125.909, 160.500 126.944 M 383.500 127.046 C 370.111 129.074, 358.255 134.965, 347.895 144.738 C 335.974 155.983, 329.222 168.870, 327.060 184.500 L 325.954 192.500 293.977 224.536 C 276.390 242.155, 262 257.086, 262 257.714 C 262 259.190, 264.808 262, 266.283 262 C 266.910 262, 280.756 248.695, 297.051 232.432 L 326.679 202.865 328.347 209.622 C 330.949 220.168, 336.434 230.192, 344.087 238.386 C 347.823 242.387, 352.479 246.749, 354.433 248.080 C 357.548 250.202, 357.987 251.015, 357.993 254.679 C 358.005 262.206, 356.994 262, 394 262 C 430.820 262, 430 262.160, 430 254.956 C 430 251.352, 430.746 250.311, 439.799 241.278 C 447.579 233.515, 450.347 229.955, 453.232 224 C 458.454 213.224, 460.304 205.245, 460.304 193.500 C 460.304 174.166, 454.551 160.473, 440.539 146.461 C 430.823 136.745, 422.203 131.569, 410.831 128.621 C 403.215 126.647, 390.841 125.934, 383.500 127.046 M 398 162 L 398 190 412.429 190 C 424.212 190, 427.145 190.288, 428.429 191.571 C 429.768 192.911, 430 196.606, 430 216.571 C 430 230.093, 430.387 240, 430.916 240 C 432.816 240, 442.977 227.573, 446.395 221.067 C 452.812 208.857, 454.730 192.966, 451.463 179.103 C 446.662 158.739, 428.261 140.338, 407.897 135.537 C 396.926 132.951, 398 130.080, 398 162 M 375.447 136.403 C 362.001 140.615, 347.408 152.874, 340.811 165.500 C 337.373 172.082, 334.226 181.559, 335.167 182.501 C 335.400 182.734, 346.367 172.141, 359.538 158.962 C 383.767 134.717, 384.600 133.537, 375.447 136.403 M 140.747 196.500 L 112.002 254 170 254 L 227.998 254 199.253 196.500 C 183.443 164.875, 170.279 139, 170 139 C 169.721 139, 156.557 164.875, 140.747 196.500 M 361.743 167.757 C 330.891 198.624, 332.699 195.855, 335.537 207.897 C 337.783 217.423, 343.460 227.368, 350.964 234.921 L 357.500 241.500 358 216.712 C 358.415 196.147, 358.756 191.763, 360 190.977 C 360.825 190.457, 367.913 190.024, 375.750 190.015 L 390 190 390 165 C 390 151.250, 389.884 140, 389.743 140 C 389.602 140, 377.002 152.490, 361.743 167.757 M 366 222.377 L 366 246.754 370.750 248.767 C 384.654 254.660, 405.626 254.313, 418.031 247.984 L 422 245.959 422 221.980 L 422 198 394 198 L 366 198 366 222.377 " stroke="none" fill="black" fill-rule="evenodd"/>
</svg>