<svg xmlns="http://www.w3.org/2000/svg" width="403" height="324" viewBox="0 0 403 324" version="1.1">
	<path d="M 39.571 127.571 C 38.176 128.966, 38 136.152, 38 191.571 L 38 254 23.571 254 C 11.788 254, 8.855 254.288, 7.571 255.571 C 5.598 257.545, 5.598 258.455, 7.571 260.429 C 8.936 261.793, 13.463 262, 42 262 C 70.537 262, 75.064 261.793, 76.429 260.429 C 77.293 259.564, 78 258.471, 78 258 C 78 257.529, 77.293 256.436, 76.429 255.571 C 75.145 254.288, 72.212 254, 60.429 254 L 46 254 46 191.571 C 46 136.152, 45.824 128.966, 44.429 127.571 C 43.564 126.707, 42.471 126, 42 126 C 41.529 126, 40.436 126.707, 39.571 127.571 M 159.205 127.092 C 145.411 129.194, 132.167 136.058, 121.939 146.407 C 110.696 157.782, 104.016 171.921, 102.469 187.614 C 101.891 193.479, 102.055 194.912, 103.460 196.317 C 104.386 197.243, 105.535 198, 106.015 198 C 107.925 198, 110 193.308, 110 188.988 C 110 171.058, 124.208 149.413, 141.757 140.609 C 148.293 137.330, 161.631 133.298, 162.632 134.299 C 162.850 134.517, 149.257 162.550, 132.425 196.594 C 109.755 242.446, 102.067 258.883, 102.770 259.997 C 103.594 261.304, 112.100 261.536, 168.109 261.776 C 203.524 261.928, 233.512 261.807, 234.750 261.507 C 236.333 261.123, 237 260.226, 237 258.478 C 237 257.111, 223.263 228.522, 206.473 194.946 L 175.946 133.899 179.723 134.584 C 206.162 139.373, 226.389 161.645, 228.656 188.463 C 229.170 194.542, 229.690 196.299, 231.214 197.115 C 238.880 201.217, 236.961 178.149, 228.264 161.652 C 225.771 156.922, 221.777 151.762, 216.433 146.367 C 209.680 139.549, 206.828 137.488, 198.933 133.719 C 193.745 131.242, 187.475 128.743, 185 128.165 C 178.002 126.530, 166.132 126.036, 159.205 127.092 M 319.531 127.060 C 296.860 130.565, 278.458 144.396, 268.350 165.529 C 252.920 197.789, 266.936 237.387, 299.500 253.532 C 309.249 258.366, 327.351 262.263, 333.823 260.921 C 352.586 257.031, 361.183 253.495, 371.242 245.530 C 397.650 224.620, 403.740 185.316, 384.994 156.778 C 370.912 135.340, 344.254 123.238, 319.531 127.060 M 314.072 135.591 C 303.792 138.355, 295.969 143.015, 287.384 151.489 C 275.149 163.566, 269.588 176.695, 269.588 193.500 C 269.588 197.900, 270.180 203.975, 270.903 207 C 276.480 230.320, 297.834 249.965, 320.499 252.629 L 326 253.275 326 193.638 L 326 134 322.750 134.066 C 320.962 134.102, 317.057 134.788, 314.072 135.591 M 333 193.500 L 333 253.272 337.750 252.627 C 356.297 250.110, 373.669 237.521, 382.082 220.500 C 391.069 202.317, 391.069 184.683, 382.082 166.500 C 373.669 149.479, 356.297 136.890, 337.750 134.373 L 333 133.728 333 193.500 M 140.747 196.500 L 112.002 254 169.501 254 C 201.126 254, 227 253.773, 227 253.497 C 227 252.838, 170.074 139, 169.744 139 C 169.605 139, 156.557 164.875, 140.747 196.500 " stroke="none" fill="black" fill-rule="evenodd"/>
</svg>