<svg xmlns="http://www.w3.org/2000/svg" width="308" height="324" viewBox="0 0 308 324" version="1.1">
	<path d="M 39.571 127.571 C 38.176 128.966, 38 136.152, 38 191.571 L 38 254 23.571 254 C 11.788 254, 8.855 254.288, 7.571 255.571 C 5.598 257.545, 5.598 258.455, 7.571 260.429 C 8.936 261.793, 13.463 262, 42 262 C 70.537 262, 75.064 261.793, 76.429 260.429 C 77.293 259.564, 78 258.471, 78 258 C 78 257.529, 77.293 256.436, 76.429 255.571 C 75.145 254.288, 72.212 254, 60.429 254 L 46 254 46 191.571 C 46 136.152, 45.824 128.966, 44.429 127.571 C 43.564 126.707, 42.471 126, 42 126 C 41.529 126, 40.436 126.707, 39.571 127.571 M 157.500 127.418 C 127.345 133.284, 105.465 157.218, 102.469 187.614 C 101.891 193.479, 102.055 194.912, 103.460 196.317 C 104.386 197.243, 105.535 198, 106.015 198 C 107.925 198, 110 193.308, 110 188.988 C 110 170.988, 124.111 149.496, 141.757 140.619 C 148.413 137.270, 161.634 133.301, 162.672 134.339 C 162.913 134.580, 149.249 162.501, 132.309 196.387 C 106.906 247.201, 101.702 258.305, 102.613 259.749 C 103.644 261.384, 108.060 261.517, 168.998 261.757 C 216.385 261.944, 234.651 261.705, 235.639 260.885 C 236.387 260.263, 236.981 259.023, 236.957 258.128 C 236.934 257.232, 223.278 229.050, 206.611 195.500 C 189.944 161.950, 176.425 134.351, 176.567 134.170 C 177.198 133.368, 190.048 137.302, 195.500 139.965 C 214.027 149.017, 226.959 168.195, 228.723 189.234 C 229.172 194.595, 229.715 196.312, 231.213 197.114 C 232.594 197.853, 233.563 197.778, 234.691 196.842 C 237.022 194.907, 235.936 181.477, 232.695 172.165 C 229.025 161.622, 224.550 154.613, 215.911 145.876 C 209.663 139.557, 206.661 137.409, 198.911 133.709 C 193.735 131.238, 187.463 128.736, 184.974 128.150 C 177.104 126.296, 164.935 125.972, 157.500 127.418 M 262.667 127.667 C 260.840 129.493, 262.603 132.633, 268.611 138.253 C 284.645 153.252, 292.347 171.179, 292.347 193.500 C 292.347 216.054, 284.801 233.424, 268.121 249.261 C 264.204 252.980, 261 256.435, 261 256.940 C 261 258.065, 263.846 261, 264.937 261 C 266.795 261, 276.417 252.119, 281.577 245.643 C 288.334 237.162, 294.205 225.778, 297.234 215.285 C 299.085 208.870, 299.481 205.037, 299.481 193.500 C 299.481 177.537, 297.625 169.089, 291.373 156.585 C 283.097 140.033, 266.759 123.575, 262.667 127.667 M 140.747 196.500 L 112.002 254 169.501 254 C 201.126 254, 227 253.773, 227 253.497 C 227 252.838, 170.074 139, 169.744 139 C 169.605 139, 156.557 164.875, 140.747 196.500 " stroke="none" fill="black" fill-rule="evenodd"/>
</svg>