<svg xmlns="http://www.w3.org/2000/svg" width="180" height="324" viewBox="0 0 180 324" version="1.1">
	<path d="M 118.130 127.544 C 111.729 132.930, 105.846 145.294, 104.509 156.167 C 103.192 166.886, 107.108 180.718, 114.041 189.835 L 118.098 195.171 117.997 226.335 C 117.941 243.476, 117.919 258.047, 117.948 258.715 C 118.020 260.389, 121.523 262.120, 123.389 261.404 C 124.233 261.080, 125.228 259.856, 125.600 258.684 C 125.972 257.511, 127.777 254.290, 129.610 251.526 C 135.131 243.200, 137.237 235.875, 137.237 225 C 137.237 214.052, 135.130 206.799, 129.471 198.265 L 126 193.031 126 161.450 C 126 142.910, 125.599 129.118, 125.028 128.052 C 123.442 125.090, 121.240 124.928, 118.130 127.544 M 39.571 127.571 C 38.176 128.966, 38 136.152, 38 191.571 L 38 254 23.571 254 C 11.788 254, 8.855 254.288, 7.571 255.571 C 5.598 257.545, 5.598 258.455, 7.571 260.429 C 8.936 261.793, 13.463 262, 42 262 C 70.537 262, 75.064 261.793, 76.429 260.429 C 77.293 259.564, 78 258.471, 78 258 C 78 257.529, 77.293 256.436, 76.429 255.571 C 75.145 254.288, 72.212 254, 60.429 254 L 46 254 46 191.571 C 46 136.152, 45.824 128.966, 44.429 127.571 C 43.564 126.707, 42.471 126, 42 126 C 41.529 126, 40.436 126.707, 39.571 127.571 M 167.571 127.571 C 166.707 128.436, 166 129.529, 166 130 C 166 130.471, 166.707 131.564, 167.571 132.429 C 168.436 133.293, 169.529 134, 170 134 C 170.471 134, 171.564 133.293, 172.429 132.429 C 173.293 131.564, 174 130.471, 174 130 C 174 129.529, 173.293 128.436, 172.429 127.571 C 171.564 126.707, 170.471 126, 170 126 C 169.529 126, 168.436 126.707, 167.571 127.571 M 114.877 145.250 C 112.869 149.699, 112.507 152.103, 112.504 161 C 112.500 170.338, 112.795 172.109, 115.167 177 L 117.833 182.500 117.917 161.250 C 117.962 149.563, 117.830 140, 117.623 140 C 117.416 140, 116.180 142.363, 114.877 145.250 M 167.571 159.571 C 166.207 160.936, 166 165.463, 166 194 C 166 222.537, 166.207 227.064, 167.571 228.429 C 169.545 230.402, 170.455 230.402, 172.429 228.429 C 173.793 227.064, 174 222.537, 174 194 C 174 165.463, 173.793 160.936, 172.429 159.571 C 171.564 158.707, 170.471 158, 170 158 C 169.529 158, 168.436 158.707, 167.571 159.571 M 126.163 225 C 126.163 242.010, 126.209 242.402, 127.813 239 C 129.019 236.441, 129.463 232.676, 129.463 225 C 129.463 217.324, 129.019 213.559, 127.813 211 C 126.209 207.598, 126.163 207.990, 126.163 225 M 167.571 255.571 C 166.707 256.436, 166 257.529, 166 258 C 166 259.111, 168.889 262, 170 262 C 171.111 262, 174 259.111, 174 258 C 174 256.889, 171.111 254, 170 254 C 169.529 254, 168.436 254.707, 167.571 255.571 " stroke="none" fill="black" fill-rule="evenodd"/>
</svg>