<svg xmlns="http://www.w3.org/2000/svg" width="244" height="324" viewBox="0 0 244 324" version="1.1">
	<path d="M 39.571 127.571 C 38.176 128.966, 38 136.152, 38 191.571 L 38 254 23.571 254 C 11.788 254, 8.855 254.288, 7.571 255.571 C 5.598 257.545, 5.598 258.455, 7.571 260.429 C 8.936 261.793, 13.463 262, 42 262 C 70.537 262, 75.064 261.793, 76.429 260.429 C 77.293 259.564, 78 258.471, 78 258 C 78 257.529, 77.293 256.436, 76.429 255.571 C 75.145 254.288, 72.212 254, 60.429 254 L 46 254 46 191.571 C 46 136.152, 45.824 128.966, 44.429 127.571 C 43.564 126.707, 42.471 126, 42 126 C 41.529 126, 40.436 126.707, 39.571 127.571 M 115.454 130.250 C 106.969 139.991, 102.736 155.120, 104.874 168.067 C 106.220 176.220, 110.317 185.760, 114.919 191.461 L 118.117 195.423 117.928 227.419 C 117.746 258.329, 117.806 259.460, 119.723 260.732 C 122.172 262.358, 124.708 261.495, 125.583 258.737 C 125.946 257.594, 127.738 254.322, 129.565 251.466 C 139.897 235.314, 139.850 214.612, 129.443 198.344 L 126 192.961 126 161.415 C 126 141.582, 125.616 129.150, 124.965 127.934 C 123.219 124.672, 119.531 125.569, 115.454 130.250 M 194.355 126.986 C 172.853 131.520, 160.274 155.905, 169.329 175.500 C 170.854 178.800, 173.972 183.412, 176.259 185.750 L 180.416 190 175.142 190 C 168.978 190, 166 191.303, 166 194 C 166 197.262, 169.308 198, 183.934 198 L 198 198 198 226 L 198 254 183.934 254 C 169.308 254, 166 254.738, 166 258 C 166 261.750, 168.791 262.037, 202.601 261.764 C 232.469 261.523, 235.378 261.349, 236.386 259.750 C 237.190 258.475, 237.191 257.525, 236.387 256.250 C 235.433 254.736, 233.314 254.463, 220.643 254.223 L 206 253.947 206 226 L 206 198.053 220.643 197.777 C 233.314 197.537, 235.433 197.264, 236.387 195.750 C 238.509 192.382, 235.994 190.532, 228.856 190.209 L 222.421 189.918 226.547 185.612 C 233.593 178.258, 235.500 173.123, 235.500 161.500 C 235.500 149.464, 233.483 144.393, 225.518 136.404 C 217.739 128.600, 204.981 124.745, 194.355 126.986 M 191.385 135.617 C 176.729 140.815, 169.477 159.530, 176.588 173.801 C 186.682 194.057, 215.796 194.002, 226.150 173.707 C 228.708 168.692, 229.594 159.874, 228.096 154.337 C 224.926 142.621, 213.582 133.926, 201.663 134.079 C 198.273 134.122, 193.648 134.815, 191.385 135.617 M 115.852 142.750 C 111.363 153.991, 110.730 164.997, 114.023 174.566 C 115.135 177.800, 116.485 180.885, 117.023 181.423 C 117.659 182.059, 118 175.004, 118 161.200 C 118 149.540, 117.764 140, 117.475 140 C 117.187 140, 116.456 141.238, 115.852 142.750 M 126.121 225 C 126.080 241.992, 126.126 242.398, 127.727 239 C 130.037 234.098, 130.079 215.916, 127.792 211 C 126.214 207.610, 126.162 208.049, 126.121 225 " stroke="none" fill="black" fill-rule="evenodd"/>
</svg>