<svg xmlns="http://www.w3.org/2000/svg" width="308" height="324" viewBox="0 0 308 324" version="1.1">
	<path d="M 39.571 127.571 C 38.176 128.966, 38 136.152, 38 191.571 L 38 254 23.571 254 C 11.788 254, 8.855 254.288, 7.571 255.571 C 5.595 257.548, 5.598 258.455, 7.585 260.442 C 8.978 261.835, 13.159 261.995, 42.226 261.763 C 72.452 261.523, 75.377 261.350, 76.386 259.750 C 77.190 258.475, 77.191 257.525, 76.387 256.250 C 75.433 254.736, 73.314 254.463, 60.643 254.223 L 46 253.947 46 191.545 C 46 136.149, 45.824 128.966, 44.429 127.571 C 43.564 126.707, 42.471 126, 42 126 C 41.529 126, 40.436 126.707, 39.571 127.571 M 115.505 130.127 C 107.020 139.518, 102.568 155.778, 104.903 168.844 C 106.319 176.768, 110.263 185.666, 114.928 191.461 L 118.117 195.423 117.928 227.419 C 117.741 259.062, 117.763 259.430, 119.870 260.830 C 121.580 261.965, 122.297 261.999, 123.500 261 C 124.325 260.315, 125 259.349, 125 258.853 C 125 258.358, 126.546 255.705, 128.435 252.959 C 134.881 243.587, 136.469 237.975, 136.485 224.500 C 136.499 213.138, 136.336 212.155, 133.406 206 C 131.704 202.425, 129.117 197.750, 127.656 195.610 L 125 191.721 125 160.060 C 125 136.769, 124.683 128.083, 123.800 127.200 C 121.675 125.075, 119.317 125.906, 115.505 130.127 M 249.117 173.393 L 201.482 220.990 185.878 205.386 C 171.616 191.124, 170.091 189.881, 168.137 190.926 C 166.962 191.556, 166 192.837, 166 193.773 C 166 194.710, 172.857 202.344, 181.238 210.738 L 196.476 226 181.238 241.262 C 172.857 249.656, 166 257.290, 166 258.227 C 166 259.163, 166.960 260.443, 168.132 261.071 C 170.079 262.113, 171.624 260.855, 185.895 246.605 L 201.524 230.998 216.012 245.564 C 223.980 253.576, 231.316 260.582, 232.314 261.135 C 234.445 262.314, 237 260.681, 237 258.139 C 237 257.251, 230.141 249.654, 221.758 241.258 L 206.516 225.992 253.758 178.742 C 279.741 152.755, 301 130.722, 301 129.781 C 301 128.840, 300.044 127.559, 298.876 126.934 C 296.922 125.888, 292.948 129.598, 249.117 173.393 M 115.185 144.291 C 110.747 153.477, 110.759 168, 115.213 177.580 L 117.500 182.500 117.784 171.750 C 117.940 165.838, 117.940 156.162, 117.784 150.250 L 117.500 139.500 115.185 144.291 M 125 225 C 125 236.072, 125.362 243.022, 125.909 242.450 C 127.648 240.633, 130 230.602, 130 225 C 130 219.398, 127.648 209.367, 125.909 207.550 C 125.362 206.978, 125 213.928, 125 225 " stroke="none" fill="black" fill-rule="evenodd"/>
</svg>