<svg xmlns="http://www.w3.org/2000/svg" width="440" height="324" viewBox="0 0 440 324" version="1.1">
	<path d="M 39.571 127.571 C 38.176 128.966, 38 136.152, 38 191.571 L 38 254 23.571 254 C 11.788 254, 8.855 254.288, 7.571 255.571 C 5.598 257.545, 5.598 258.455, 7.571 260.429 C 8.936 261.793, 13.463 262, 42 262 C 70.537 262, 75.064 261.793, 76.429 260.429 C 77.293 259.564, 78 258.471, 78 258 C 78 257.529, 77.293 256.436, 76.429 255.571 C 75.145 254.288, 72.212 254, 60.429 254 L 46 254 46 191.571 C 46 136.152, 45.824 128.966, 44.429 127.571 C 43.564 126.707, 42.471 126, 42 126 C 41.529 126, 40.436 126.707, 39.571 127.571 M 160.500 127.002 C 152.529 128.200, 147.031 129.943, 139 133.814 C 128.444 138.903, 114.927 152.404, 109.778 163 C 103.648 175.615, 100.334 193.191, 103.491 196.348 C 105.547 198.404, 106.439 198.418, 108.429 196.429 C 109.404 195.453, 110.006 193.082, 110.015 190.179 C 110.074 171.373, 123.719 150.014, 141.603 140.732 C 147.722 137.556, 158.722 134.062, 162.752 134.015 C 163.440 134.007, 150.052 161.899, 133.002 195.997 C 115.951 230.095, 102 258.188, 102 258.425 C 102 258.663, 102.707 259.564, 103.571 260.429 C 104.968 261.825, 112.372 262, 170 262 C 227.628 262, 235.032 261.825, 236.429 260.429 C 237.293 259.564, 238 258.663, 238 258.425 C 238 258.188, 224.038 230.072, 206.973 195.946 L 175.946 133.899 179.723 134.578 C 202.711 138.711, 221.651 156.508, 227.485 179.460 C 228.318 182.738, 229 187.544, 229 190.139 C 229 193.095, 229.587 195.444, 230.571 196.429 C 232.553 198.410, 233.454 198.403, 235.466 196.391 C 236.753 195.104, 236.947 193.554, 236.438 188.641 C 234.585 170.758, 227.823 156.738, 215.365 144.951 C 200.294 130.691, 180.036 124.063, 160.500 127.002 M 344.372 126.765 C 343.752 127.169, 339.812 134.363, 335.616 142.750 L 327.987 158 312.565 158 C 299.878 158, 296.864 158.279, 295.571 159.571 C 293.598 161.545, 293.598 162.455, 295.571 164.429 C 296.844 165.701, 299.697 166, 310.575 166 L 324.007 166 310 194 L 295.993 222 280.568 222 C 267.878 222, 264.864 222.279, 263.571 223.571 C 262.707 224.436, 262 225.529, 262 226 C 262 226.471, 262.707 227.564, 263.571 228.429 C 264.844 229.701, 267.698 230, 278.578 230 L 292.013 230 285.022 243.957 C 281.176 251.633, 278.283 258.574, 278.592 259.380 C 279.265 261.133, 281.511 262.125, 283.275 261.448 C 283.977 261.179, 288.025 253.993, 292.271 245.479 L 299.992 230 328.003 230 L 356.013 230 349.022 243.957 C 345.176 251.633, 342.283 258.574, 342.592 259.380 C 343.265 261.133, 345.511 262.125, 347.275 261.448 C 347.977 261.179, 352.025 253.993, 356.271 245.479 L 363.992 230 379.424 230 C 392.121 230, 395.136 229.721, 396.429 228.429 C 397.293 227.564, 398 226.471, 398 226 C 398 225.529, 397.293 224.436, 396.429 223.571 C 395.156 222.299, 392.303 222, 381.425 222 L 367.993 222 382 194 L 396.007 166 411.432 166 C 424.122 166, 427.136 165.721, 428.429 164.429 C 430.402 162.455, 430.402 161.545, 428.429 159.571 C 427.156 158.299, 424.302 158, 413.422 158 L 399.987 158 406.978 144.043 C 410.824 136.367, 413.717 129.426, 413.408 128.620 C 412.735 126.867, 410.489 125.875, 408.725 126.552 C 408.023 126.821, 403.975 134.007, 399.729 142.521 L 392.008 158 363.997 158 L 335.987 158 342.993 144.013 C 346.847 136.321, 350 129.828, 350 129.585 C 350 128.874, 346.921 125.999, 346.179 126.015 C 345.805 126.024, 344.993 126.361, 344.372 126.765 M 140.747 196.500 L 112.002 254 170 254 L 227.998 254 199.253 196.500 C 183.443 164.875, 170.279 139, 170 139 C 169.721 139, 156.557 164.875, 140.747 196.500 M 318 194 L 303.993 222 331.993 222 L 359.993 222 374 194 L 388.007 166 360.007 166 L 332.007 166 318 194 " stroke="none" fill="black" fill-rule="evenodd"/>
</svg>