<svg xmlns="http://www.w3.org/2000/svg" width="244" height="324" viewBox="0 0 244 324" version="1.1">
	<path d="M 39.571 127.571 C 38.176 128.966, 38 136.152, 38 191.571 L 38 254 23.571 254 C 11.788 254, 8.855 254.288, 7.571 255.571 C 5.598 257.545, 5.598 258.455, 7.571 260.429 C 8.936 261.793, 13.463 262, 42 262 C 70.537 262, 75.064 261.793, 76.429 260.429 C 77.293 259.564, 78 258.471, 78 258 C 78 257.529, 77.293 256.436, 76.429 255.571 C 75.145 254.288, 72.212 254, 60.429 254 L 46 254 46 191.571 C 46 136.152, 45.824 128.966, 44.429 127.571 C 43.564 126.707, 42.471 126, 42 126 C 41.529 126, 40.436 126.707, 39.571 127.571 M 115.505 130.127 C 107.020 139.518, 102.568 155.778, 104.903 168.844 C 106.319 176.768, 110.263 185.666, 114.928 191.461 L 118.117 195.423 117.928 227.419 C 117.746 258.329, 117.806 259.460, 119.723 260.732 C 122.172 262.358, 124.708 261.495, 125.583 258.737 C 125.946 257.594, 127.738 254.322, 129.565 251.466 C 139.897 235.314, 139.850 214.612, 129.443 198.344 L 126 192.961 126 161.415 C 126 141.582, 125.616 129.150, 124.965 127.934 C 123.255 124.740, 119.607 125.586, 115.505 130.127 M 199.750 127.080 C 198.140 128.018, 198 130.699, 198 160.546 L 198 192.992 181.756 225.498 C 168.426 252.173, 165.710 258.317, 166.615 259.752 C 167.621 261.348, 170.540 261.524, 200.109 261.779 C 217.924 261.933, 233.463 261.825, 234.640 261.538 C 235.817 261.252, 237.047 260.321, 237.373 259.470 C 237.722 258.560, 231.377 244.746, 221.984 225.967 L 206 194.012 206 162.229 C 206 135.080, 205.773 130.121, 204.443 128.223 C 202.702 125.736, 202.248 125.625, 199.750 127.080 M 115.472 143.721 C 110.934 154.582, 110.824 167.880, 115.196 177 L 117.833 182.500 117.917 161.250 C 117.962 149.563, 117.781 140, 117.513 140 C 117.246 140, 116.327 141.674, 115.472 143.721 M 188.743 228.500 L 176.005 254 201.503 254 C 215.526 254, 227 253.772, 227 253.492 C 227 252.827, 202.070 203, 201.737 203 C 201.597 203, 195.750 214.475, 188.743 228.500 M 126.181 225 L 126.200 242.500 128.182 236.500 C 130.500 229.485, 130.260 216.843, 127.698 211 C 126.244 207.685, 126.164 208.423, 126.181 225 " stroke="none" fill="black" fill-rule="evenodd"/>
</svg>