<svg xmlns="http://www.w3.org/2000/svg" width="244" height="324" viewBox="0 0 244 324" version="1.1">
	<path d="M 39.571 127.571 C 38.176 128.966, 38 136.152, 38 191.571 L 38 254 23.571 254 C 11.788 254, 8.855 254.288, 7.571 255.571 C 5.598 257.545, 5.598 258.455, 7.571 260.429 C 8.936 261.793, 13.463 262, 42 262 C 70.537 262, 75.064 261.793, 76.429 260.429 C 77.293 259.564, 78 258.471, 78 258 C 78 257.529, 77.293 256.436, 76.429 255.571 C 75.145 254.288, 72.212 254, 60.429 254 L 46 254 46 191.571 C 46 136.152, 45.824 128.966, 44.429 127.571 C 43.564 126.707, 42.471 126, 42 126 C 41.529 126, 40.436 126.707, 39.571 127.571 M 115.513 130.250 C 107.700 139.366, 103.173 153.828, 104.482 165.495 C 105.435 173.990, 108.299 181.459, 113.565 189.184 L 118.122 195.867 117.929 227.640 C 117.737 259.276, 117.745 259.419, 119.915 260.859 C 122.431 262.530, 123.110 262.067, 126.601 256.299 C 135.312 241.911, 137.144 236.357, 137.100 224.471 C 137.063 214.704, 134.658 206.496, 129.443 198.344 L 126 192.961 126 162.046 C 126 144.379, 125.582 130.031, 125.025 128.565 C 123.495 124.540, 119.854 125.185, 115.513 130.250 M 194.355 126.986 C 183.790 129.214, 174.114 137.146, 169.329 147.500 C 165.374 156.059, 165.386 166.895, 169.361 175.610 C 172.861 183.285, 179.689 190.075, 187.480 193.629 C 195.387 197.236, 205.732 197.409, 214.297 194.077 C 221.354 191.331, 229.569 183.634, 233.056 176.500 C 235.152 172.212, 235.500 170.075, 235.500 161.500 C 235.500 149.367, 233.450 144.286, 225.353 136.339 C 217.361 128.497, 204.948 124.752, 194.355 126.986 M 191.627 135.468 C 186.247 137.386, 181.039 141.829, 177.500 147.519 C 173.527 153.908, 172.712 165.311, 175.741 172.129 C 180.289 182.364, 188.183 187.994, 199.078 188.773 C 206.881 189.332, 212.235 187.787, 218.674 183.119 C 226.430 177.497, 230.774 164.233, 228.098 154.343 C 224.899 142.521, 213.747 133.958, 201.663 134.044 C 198.273 134.068, 193.757 134.709, 191.627 135.468 M 116.512 140.981 C 114.098 144.886, 112 154.197, 112 161 C 112 168.416, 114.604 179.004, 117.023 181.423 C 117.659 182.059, 118 175.004, 118 161.200 C 118 149.540, 117.802 140, 117.559 140 C 117.316 140, 116.845 140.442, 116.512 140.981 M 167.571 191.571 C 166.707 192.436, 166 193.640, 166 194.249 C 166 194.857, 172.844 202.250, 181.208 210.677 L 196.416 226 181.208 241.323 C 172.844 249.750, 166 257.143, 166 257.751 C 166 258.967, 168.736 262, 169.834 262 C 170.213 262, 177.482 255.031, 185.987 246.514 L 201.449 231.027 217.045 246.514 C 225.623 255.031, 233.082 262, 233.621 262 C 235.106 262, 237 259.793, 237 258.062 C 237 257.216, 230.143 249.656, 221.762 241.262 L 206.524 226 221.762 210.738 C 230.143 202.344, 237 194.784, 237 193.938 C 237 192.207, 235.106 190, 233.621 190 C 233.082 190, 225.623 196.969, 217.045 205.486 L 201.449 220.973 185.987 205.486 C 177.482 196.969, 170.213 190, 169.834 190 C 169.454 190, 168.436 190.707, 167.571 191.571 M 126.163 225 C 126.163 241.935, 126.216 242.387, 127.792 239 C 128.970 236.466, 129.420 232.602, 129.420 225 C 129.420 217.398, 128.970 213.534, 127.792 211 C 126.216 207.613, 126.163 208.065, 126.163 225 " stroke="none" fill="black" fill-rule="evenodd"/>
</svg>