<svg xmlns="http://www.w3.org/2000/svg" width="436" height="324" viewBox="0 0 436 324" version="1.1">
	<path d="M 39.571 127.571 C 38.176 128.966, 38 136.152, 38 191.571 L 38 254 23.571 254 C 11.788 254, 8.855 254.288, 7.571 255.571 C 5.598 257.545, 5.598 258.455, 7.571 260.429 C 8.936 261.793, 13.463 262, 42 262 C 70.537 262, 75.064 261.793, 76.429 260.429 C 77.293 259.564, 78 258.471, 78 258 C 78 257.529, 77.293 256.436, 76.429 255.571 C 75.145 254.288, 72.212 254, 60.429 254 L 46 254 46 191.571 C 46 136.152, 45.824 128.966, 44.429 127.571 C 43.564 126.707, 42.471 126, 42 126 C 41.529 126, 40.436 126.707, 39.571 127.571 M 199.663 126.750 C 199.412 127.162, 184.988 155.963, 167.610 190.750 L 136.012 254 120.578 254 C 107.879 254, 104.864 254.279, 103.571 255.571 C 101.598 257.545, 101.598 258.455, 103.571 260.429 C 104.936 261.793, 109.463 262, 138 262 C 166.537 262, 171.064 261.793, 172.429 260.429 C 174.402 258.455, 174.402 257.545, 172.429 255.571 C 171.156 254.299, 168.303 254, 157.430 254 L 144.002 254 172.747 196.500 C 188.557 164.875, 201.721 139, 202 139 C 202.279 139, 215.443 164.875, 231.253 196.500 L 259.998 254 246.570 254 C 235.697 254, 232.844 254.299, 231.571 255.571 C 229.595 257.548, 229.598 258.455, 231.585 260.442 C 232.978 261.835, 237.159 261.995, 266.226 261.763 C 296.452 261.523, 299.377 261.350, 300.386 259.750 C 301.190 258.475, 301.191 257.525, 300.387 256.250 C 299.427 254.726, 297.268 254.465, 283.631 254.225 L 267.978 253.949 236.370 190.725 C 218.986 155.951, 204.254 127.169, 203.631 126.765 C 202.159 125.809, 200.238 125.802, 199.663 126.750 M 386.344 127 C 376.288 129.090, 366.365 136.990, 361.850 146.500 C 360.283 149.800, 359.001 153.251, 359.001 154.168 C 358.999 157.449, 357.761 159, 355.143 159.001 C 350.895 159.002, 340.849 164.405, 336.301 169.134 C 326.366 179.464, 323.577 194.928, 329.361 207.610 C 332.861 215.285, 339.689 222.075, 347.480 225.629 C 355.387 229.236, 365.732 229.409, 374.297 226.077 C 381.342 223.335, 389.598 215.610, 392.965 208.605 C 395.819 202.671, 396.802 191.258, 395.061 184.290 C 392.362 173.490, 382.629 163.385, 371.884 160.228 C 365.223 158.271, 364.796 157.237, 367.867 150.500 C 372.474 140.395, 380.404 134.930, 391.494 134.219 C 397.721 133.819, 399.555 134.108, 404.145 136.209 C 413.272 140.387, 419.381 148.201, 420.626 157.291 C 421.699 165.114, 415.837 187.405, 409.264 200.500 C 400.369 218.220, 382.514 238.244, 365.750 249.299 C 357.061 255.030, 355.896 256.496, 358.200 258.800 C 360.228 260.828, 362.333 260.182, 369.769 255.250 C 399.866 235.287, 419.749 205.856, 426.835 170.781 C 429.830 155.957, 426.762 145.231, 416.828 135.799 C 409.170 128.528, 396.537 124.882, 386.344 127 M 351.748 167.427 C 333.840 173.818, 327.939 196.971, 340.447 211.770 C 347.247 219.815, 360.663 223.310, 370.427 219.581 C 384.194 214.323, 391.798 200.020, 388.098 186.343 C 384.899 174.521, 373.747 165.958, 361.663 166.044 C 358.273 166.068, 353.812 166.690, 351.748 167.427 " stroke="none" fill="black" fill-rule="evenodd"/>
</svg>