<svg xmlns="http://www.w3.org/2000/svg" width="628" height="324" viewBox="0 0 628 324" version="1.1">
	<path d="M 39.571 127.571 C 38.176 128.966, 38 136.152, 38 191.571 L 38 254 23.571 254 C 11.788 254, 8.855 254.288, 7.571 255.571 C 5.598 257.545, 5.598 258.455, 7.571 260.429 C 8.936 261.793, 13.463 262, 42 262 C 70.537 262, 75.064 261.793, 76.429 260.429 C 77.293 259.564, 78 258.471, 78 258 C 78 257.529, 77.293 256.436, 76.429 255.571 C 75.145 254.288, 72.212 254, 60.429 254 L 46 254 46 191.571 C 46 136.152, 45.824 128.966, 44.429 127.571 C 43.564 126.707, 42.471 126, 42 126 C 41.529 126, 40.436 126.707, 39.571 127.571 M 200.357 126.765 C 199.728 127.169, 184.994 155.963, 167.613 190.750 L 136.012 254 120.578 254 C 107.879 254, 104.864 254.279, 103.571 255.571 C 101.598 257.545, 101.598 258.455, 103.571 260.429 C 104.936 261.793, 109.463 262, 138 262 C 166.537 262, 171.064 261.793, 172.429 260.429 C 174.402 258.455, 174.402 257.545, 172.429 255.571 C 171.156 254.299, 168.303 254, 157.430 254 L 144.002 254 172.747 196.500 C 188.557 164.875, 201.721 139, 202 139 C 202.279 139, 215.443 164.875, 231.253 196.500 L 259.998 254 246.570 254 C 235.697 254, 232.844 254.299, 231.571 255.571 C 229.595 257.548, 229.598 258.455, 231.585 260.442 C 232.978 261.835, 237.159 261.995, 266.226 261.763 C 296.452 261.523, 299.377 261.350, 300.386 259.750 C 301.190 258.475, 301.191 257.525, 300.387 256.250 C 299.427 254.726, 297.268 254.465, 283.631 254.225 L 267.978 253.949 236.370 190.725 C 207.938 133.851, 203.783 126.031, 202 126.031 C 201.725 126.031, 200.986 126.361, 200.357 126.765 M 375.213 143.315 C 365.746 152.838, 358 161.131, 358 161.743 C 358 163.289, 361.018 166.161, 362.221 165.760 C 362.765 165.578, 369.238 159.372, 376.605 151.968 L 390 138.507 390 193.763 L 390 249.018 376.491 235.509 C 369.061 228.079, 362.568 222, 362.062 222 C 360.790 222, 358 224.907, 358 226.232 C 358 226.831, 363.512 232.922, 370.250 239.767 C 381.832 251.534, 382.309 252.176, 379 251.536 C 377.075 251.164, 371.699 249.069, 367.054 246.881 C 348.810 238.290, 334 216.617, 334 198.512 C 334 194.610, 331.842 190, 330.015 190 C 329.535 190, 328.391 190.751, 327.473 191.670 C 326.091 193.052, 325.924 194.470, 326.506 199.903 C 328.463 218.175, 337.376 234.341, 351.933 246.025 C 361.310 253.550, 376.638 260, 385.145 260 C 386.644 260, 389.039 260.444, 390.467 260.988 C 392.152 261.628, 394.547 261.637, 397.282 261.014 C 399.602 260.486, 404.425 259.509, 408 258.843 C 411.656 258.163, 418.439 255.665, 423.500 253.136 C 440.429 244.677, 453.813 228.002, 458.490 209.540 C 461.034 199.500, 460.247 190, 456.871 190 C 454.965 190, 453 193.509, 453 196.911 C 453 203.127, 449.245 215.866, 445.340 222.899 C 439.913 232.674, 429.977 241.998, 419.820 246.849 C 415.244 249.034, 409.925 251.129, 408 251.505 C 404.699 252.148, 405.197 251.484, 416.750 239.829 C 423.488 233.032, 429 226.780, 429 225.936 C 429 224.213, 427.106 222, 425.633 222 C 425.101 222, 418.666 227.941, 411.333 235.202 L 398 248.405 398 194 L 398 139.595 411.333 152.798 C 418.666 160.059, 425.136 166, 425.710 166 C 427.291 166, 429.208 163.292, 428.833 161.591 C 428.399 159.629, 395.089 126, 393.579 126 C 392.944 126, 384.680 133.792, 375.213 143.315 M 487.571 127.571 C 486.707 128.436, 486 129.619, 486 130.200 C 486 130.782, 489.859 135.201, 494.576 140.021 L 503.151 148.785 499.510 153.555 C 492.400 162.869, 487.695 175.177, 486.462 187.684 C 485.886 193.536, 486.051 194.908, 487.505 196.362 C 488.455 197.312, 489.742 197.921, 490.366 197.716 C 492.351 197.062, 493.970 192.650, 493.985 187.855 C 494.013 179.244, 499.001 166.239, 505.763 157.149 L 508.257 153.797 516.930 162.430 L 525.603 171.063 522.052 178.218 C 518.851 184.667, 518.504 186.169, 518.537 193.437 C 518.568 200.080, 519.065 202.576, 521.361 207.610 C 527.064 220.115, 539.323 228.298, 552.446 228.359 C 560.166 228.395, 568.264 226.153, 572.525 222.801 L 575.164 220.726 595.886 241.363 C 607.284 252.713, 617.057 262, 617.604 262 C 619.105 262, 621 259.800, 621 258.059 C 621 257.211, 611.892 247.401, 600.759 236.259 C 581.254 216.736, 580.571 215.919, 581.949 213.750 C 586.831 206.068, 587.497 203.633, 587.487 193.500 C 587.475 181.373, 585.424 176.287, 577.342 168.339 C 570.458 161.570, 563.286 158.747, 552.804 158.681 C 545.901 158.637, 544.356 159.007, 537.804 162.277 L 530.500 165.922 522 157.406 L 513.500 148.889 516.500 146.386 C 518.150 145.009, 522.464 142.366, 526.087 140.511 C 549.290 128.633, 577.143 133.006, 595.477 151.405 C 606.047 162.013, 612.943 177.693, 612.985 191.215 C 612.997 194.946, 613.431 196.160, 615.064 197.034 C 622.863 201.208, 621.093 178.561, 612.303 161.700 C 609.753 156.809, 605.954 151.890, 600.457 146.361 C 593.714 139.579, 590.793 137.470, 582.933 133.708 C 571.063 128.027, 564.945 126.582, 553 126.640 C 538.190 126.711, 524.375 131.183, 513.741 139.347 C 511.124 141.356, 508.639 143, 508.219 143 C 507.799 143, 503.651 139.175, 499 134.500 C 494.349 129.825, 490.229 126, 489.844 126 C 489.458 126, 488.436 126.707, 487.571 127.571 M 543.603 167.477 C 534.849 170.596, 534.574 170.052, 555.513 191.013 C 565.945 201.456, 574.813 210, 575.220 210 C 576.827 210, 580.249 201.338, 580.722 196.072 C 581.766 184.443, 576.393 174.552, 566.163 169.271 C 560.964 166.588, 558.718 166.008, 553.663 166.044 C 550.273 166.068, 545.746 166.713, 543.603 167.477 M 528.061 182.081 C 523.811 191.960, 525.859 205.027, 532.804 212.339 C 537.899 217.704, 543.588 220.274, 551.494 220.781 C 557.846 221.189, 559.521 220.908, 564.591 218.587 L 570.406 215.925 550.962 196.462 C 540.269 185.758, 531.233 177, 530.883 177 C 530.533 177, 529.263 179.286, 528.061 182.081 " stroke="none" fill="black" fill-rule="evenodd"/>
</svg>