<svg xmlns="http://www.w3.org/2000/svg" width="403" height="324" viewBox="0 0 403 324" version="1.1">
	<path d="M 39.571 127.571 C 38.176 128.966, 38 136.152, 38 191.571 L 38 254 23.571 254 C 11.788 254, 8.855 254.288, 7.571 255.571 C 5.598 257.545, 5.598 258.455, 7.571 260.429 C 8.936 261.793, 13.463 262, 42 262 C 70.537 262, 75.064 261.793, 76.429 260.429 C 77.293 259.564, 78 258.471, 78 258 C 78 257.529, 77.293 256.436, 76.429 255.571 C 75.145 254.288, 72.212 254, 60.429 254 L 46 254 46 191.571 C 46 136.152, 45.824 128.966, 44.429 127.571 C 43.564 126.707, 42.471 126, 42 126 C 41.529 126, 40.436 126.707, 39.571 127.571 M 198.612 128.250 C 197.823 129.488, 183.302 158.287, 166.343 192.250 L 135.508 254 120.325 254 C 107.856 254, 104.862 254.281, 103.571 255.571 C 101.595 257.548, 101.598 258.455, 103.585 260.442 C 104.978 261.835, 109.159 261.995, 138.226 261.763 C 168.452 261.523, 171.377 261.350, 172.386 259.750 C 173.190 258.476, 173.190 257.524, 172.389 256.250 C 171.457 254.768, 169.214 254.423, 157.765 254 L 144.241 253.500 172.996 196.003 L 201.750 138.507 230.375 195.750 C 246.119 227.234, 259 253.220, 259 253.497 C 259 253.773, 253.345 254, 246.434 254 C 233.276 254, 230 254.797, 230 258 C 230 261.750, 232.791 262.037, 266.601 261.764 C 296.469 261.523, 299.378 261.349, 300.386 259.750 C 301.190 258.475, 301.191 257.525, 300.387 256.250 C 299.427 254.726, 297.268 254.465, 283.631 254.225 L 267.978 253.949 236.370 190.725 C 218.986 155.951, 204.254 127.169, 203.631 126.765 C 201.647 125.476, 200.086 125.938, 198.612 128.250 M 353 159.315 C 341.911 162.513, 334.179 168.863, 329.318 178.761 C 326.861 183.765, 326.500 185.653, 326.500 193.500 C 326.500 201.347, 326.861 203.235, 329.318 208.239 C 334.625 219.047, 343.922 225.991, 356.120 228.259 C 366.863 230.257, 381.028 224.803, 388.018 215.977 C 400.454 200.276, 397.704 176.862, 382.081 165.419 C 373.740 159.309, 361.746 156.791, 353 159.315 M 349.500 168.353 C 343.873 170.979, 337.871 177.089, 335.378 182.728 C 334.340 185.077, 333.711 189.141, 333.711 193.500 C 333.711 201.679, 335.434 206.261, 340.705 212.095 C 345.849 217.789, 351.139 220.227, 359.540 220.776 C 368.481 221.360, 375.135 218.747, 381.053 212.326 C 386.661 206.243, 388.348 201.888, 388.348 193.500 C 388.348 185.241, 386.711 180.903, 381.347 174.954 C 375.988 169.009, 369.180 166.020, 361 166.020 C 356.286 166.020, 353.126 166.661, 349.500 168.353 M 359.040 191.452 C 356.392 194.642, 360.299 199.657, 363.416 197.070 C 365.297 195.508, 365.470 192.870, 363.800 191.200 C 362.197 189.597, 360.505 189.686, 359.040 191.452 " stroke="none" fill="black" fill-rule="evenodd"/>
</svg>