<svg xmlns="http://www.w3.org/2000/svg" width="532" height="324" viewBox="0 0 532 324" version="1.1">
	<path d="M 39.571 127.571 C 38.176 128.966, 38 136.152, 38 191.571 L 38 254 23.571 254 C 11.788 254, 8.855 254.288, 7.571 255.571 C 5.598 257.545, 5.598 258.455, 7.571 260.429 C 8.936 261.793, 13.463 262, 42 262 C 70.537 262, 75.064 261.793, 76.429 260.429 C 77.293 259.564, 78 258.471, 78 258 C 78 257.529, 77.293 256.436, 76.429 255.571 C 75.145 254.288, 72.212 254, 60.429 254 L 46 254 46 191.571 C 46 136.152, 45.824 128.966, 44.429 127.571 C 43.564 126.707, 42.471 126, 42 126 C 41.529 126, 40.436 126.707, 39.571 127.571 M 199.663 126.750 C 199.412 127.162, 184.988 155.963, 167.610 190.750 L 136.012 254 120.578 254 C 107.879 254, 104.864 254.279, 103.571 255.571 C 101.598 257.545, 101.598 258.455, 103.571 260.429 C 104.936 261.793, 109.463 262, 138 262 C 166.537 262, 171.064 261.793, 172.429 260.429 C 174.402 258.455, 174.402 257.545, 172.429 255.571 C 171.156 254.299, 168.303 254, 157.430 254 L 144.002 254 172.747 196.500 C 188.557 164.875, 201.721 139, 202 139 C 202.279 139, 215.443 164.875, 231.253 196.500 L 259.998 254 246.570 254 C 235.697 254, 232.844 254.299, 231.571 255.571 C 229.595 257.548, 229.598 258.455, 231.585 260.442 C 232.978 261.835, 237.159 261.995, 266.226 261.763 C 296.452 261.523, 299.377 261.350, 300.386 259.750 C 301.190 258.475, 301.191 257.525, 300.387 256.250 C 299.427 254.726, 297.268 254.465, 283.631 254.225 L 267.978 253.949 236.370 190.725 C 218.986 155.951, 204.254 127.169, 203.631 126.765 C 202.159 125.809, 200.238 125.802, 199.663 126.750 M 390.612 128.250 C 389.823 129.488, 374.852 159.187, 357.343 194.249 C 331.084 246.834, 325.702 258.304, 326.613 259.749 C 327.630 261.361, 330.404 261.500, 361.500 261.500 C 392.586 261.500, 395.370 261.360, 396.386 259.750 C 397.191 258.474, 397.191 257.526, 396.387 256.250 C 395.389 254.667, 392.466 254.452, 365.764 254 L 336.245 253.500 364.995 196.009 L 393.745 138.517 424.622 200.009 L 455.500 261.500 489.391 261.500 C 520.581 261.500, 523.370 261.361, 524.386 259.750 C 525.191 258.474, 525.191 257.526, 524.386 256.250 C 523.379 254.653, 520.518 254.477, 491.636 254.236 L 459.989 253.972 428.376 190.736 C 410.989 155.956, 396.254 127.169, 395.631 126.765 C 393.647 125.476, 392.086 125.938, 390.612 128.250 M 455.750 207.080 C 454.788 207.641, 454 208.869, 454 209.810 C 454 211.630, 487.787 246, 489.576 246 C 491.035 246, 524.421 212.317, 524.833 210.430 C 525.209 208.704, 523.296 206, 521.698 206 C 521.117 206, 513.623 212.969, 505.045 221.486 L 489.449 236.973 473.987 221.486 C 465.482 212.969, 458.294 206.014, 458.012 206.030 C 457.730 206.047, 456.712 206.519, 455.750 207.080 " stroke="none" fill="black" fill-rule="evenodd"/>
</svg>