<svg xmlns="http://www.w3.org/2000/svg" width="403" height="324" viewBox="0 0 403 324" version="1.1">
	<path d="M 39.571 127.571 C 38.176 128.966, 38 136.152, 38 191.571 L 38 254 23.571 254 C 11.788 254, 8.855 254.288, 7.571 255.571 C 5.598 257.545, 5.598 258.455, 7.571 260.429 C 8.936 261.793, 13.463 262, 42 262 C 70.537 262, 75.064 261.793, 76.429 260.429 C 77.293 259.564, 78 258.471, 78 258 C 78 257.529, 77.293 256.436, 76.429 255.571 C 75.145 254.288, 72.212 254, 60.429 254 L 46 254 46 191.571 C 46 136.152, 45.824 128.966, 44.429 127.571 C 43.564 126.707, 42.471 126, 42 126 C 41.529 126, 40.436 126.707, 39.571 127.571 M 198.612 128.250 C 197.823 129.488, 183.302 158.287, 166.343 192.250 L 135.508 254 120.325 254 C 107.856 254, 104.862 254.281, 103.571 255.571 C 101.595 257.548, 101.598 258.455, 103.585 260.442 C 104.978 261.835, 109.159 261.995, 138.226 261.763 C 168.452 261.523, 171.377 261.350, 172.386 259.750 C 173.190 258.476, 173.190 257.524, 172.389 256.250 C 171.457 254.768, 169.214 254.423, 157.765 254 L 144.241 253.500 172.996 196.003 L 201.750 138.507 230.375 195.750 C 246.119 227.234, 259 253.220, 259 253.497 C 259 253.773, 253.345 254, 246.434 254 C 233.276 254, 230 254.797, 230 258 C 230 261.750, 232.791 262.037, 266.601 261.764 C 296.469 261.523, 299.378 261.349, 300.386 259.750 C 301.190 258.475, 301.191 257.525, 300.387 256.250 C 299.427 254.726, 297.268 254.465, 283.631 254.225 L 267.978 253.949 236.370 190.725 C 218.986 155.951, 204.254 127.169, 203.631 126.765 C 201.647 125.476, 200.086 125.938, 198.612 128.250 M 359.268 191.207 C 357.363 193.557, 326 256.957, 326 258.459 C 326 260.212, 329.612 262.358, 331.059 261.464 C 331.618 261.118, 338.610 247.773, 346.596 231.809 C 354.582 215.844, 361.427 203.087, 361.808 203.459 C 362.189 203.831, 369.025 217.042, 377 232.817 C 391.930 262.351, 393.431 264.435, 396.390 259.743 C 397.303 258.296, 394.506 252.046, 380.499 224.243 C 370.071 203.542, 362.885 190.387, 361.908 190.207 C 361.032 190.046, 359.844 190.496, 359.268 191.207 " stroke="none" fill="black" fill-rule="evenodd"/>
</svg>