<svg xmlns="http://www.w3.org/2000/svg" width="276" height="324" viewBox="0 0 276 324" version="1.1">
	<path d="M 39.571 127.571 C 38.176 128.966, 38 136.152, 38 191.571 L 38 254 23.571 254 C 11.788 254, 8.855 254.288, 7.571 255.571 C 5.598 257.545, 5.598 258.455, 7.571 260.429 C 8.936 261.793, 13.463 262, 42 262 C 70.537 262, 75.064 261.793, 76.429 260.429 C 77.293 259.564, 78 258.471, 78 258 C 78 257.529, 77.293 256.436, 76.429 255.571 C 75.145 254.288, 72.212 254, 60.429 254 L 46 254 46 191.571 C 46 136.152, 45.824 128.966, 44.429 127.571 C 43.564 126.707, 42.471 126, 42 126 C 41.529 126, 40.436 126.707, 39.571 127.571 M 167.571 127.571 C 166.178 128.965, 166 135.899, 166 188.799 L 166 248.455 136.711 219.227 C 120.602 203.152, 106.909 190, 106.282 190 C 104.799 190, 102 192.814, 102 194.305 C 102 195.823, 168.177 262, 169.695 262 C 170.334 262, 171.564 261.293, 172.429 260.429 C 173.825 259.032, 174 251.628, 174 194 C 174 136.372, 173.825 128.968, 172.429 127.571 C 171.564 126.707, 170.471 126, 170 126 C 169.529 126, 168.436 126.707, 167.571 127.571 M 264.369 126.765 C 263.416 127.384, 198 257.155, 198 258.426 C 198 258.663, 198.707 259.564, 199.571 260.429 C 200.936 261.793, 205.463 262, 234 262 C 262.537 262, 267.064 261.793, 268.429 260.429 C 269.293 259.564, 270 258.471, 270 258 C 270 257.529, 269.293 256.436, 268.429 255.571 C 267.071 254.214, 262.848 254, 237.427 254 L 207.997 254 238.998 192.003 C 256.049 157.905, 270 129.812, 270 129.575 C 270 128.872, 266.916 125.999, 266.179 126.015 C 265.805 126.024, 264.991 126.361, 264.369 126.765 M 199.571 287.571 C 198.707 288.436, 198 289.529, 198 290 C 198 290.471, 198.707 291.564, 199.571 292.429 C 200.936 293.793, 205.463 294, 234 294 C 262.537 294, 267.064 293.793, 268.429 292.429 C 269.293 291.564, 270 290.471, 270 290 C 270 289.529, 269.293 288.436, 268.429 287.571 C 267.064 286.207, 262.537 286, 234 286 C 205.463 286, 200.936 286.207, 199.571 287.571 " stroke="none" fill="black" fill-rule="evenodd"/>
</svg>