<svg xmlns="http://www.w3.org/2000/svg" width="388" height="324" viewBox="0 0 388 324" version="1.1">
	<path d="M 39.571 127.571 C 38.176 128.966, 38 136.152, 38 191.571 L 38 254 23.571 254 C 11.788 254, 8.855 254.288, 7.571 255.571 C 5.598 257.545, 5.598 258.455, 7.571 260.429 C 8.936 261.793, 13.463 262, 42 262 C 70.537 262, 75.064 261.793, 76.429 260.429 C 77.293 259.564, 78 258.471, 78 258 C 78 257.529, 77.293 256.436, 76.429 255.571 C 75.145 254.288, 72.212 254, 60.429 254 L 46 254 46 191.571 C 46 136.152, 45.824 128.966, 44.429 127.571 C 43.564 126.707, 42.471 126, 42 126 C 41.529 126, 40.436 126.707, 39.571 127.571 M 167.571 127.571 C 166.178 128.965, 166 135.899, 166 188.799 L 166 248.455 136.711 219.227 C 120.602 203.152, 106.909 190, 106.282 190 C 104.807 190, 102 192.810, 102 194.287 C 102 195.818, 168.128 262, 169.659 262 C 170.318 262, 171.564 261.293, 172.429 260.429 C 173.825 259.032, 174 251.628, 174 194 C 174 136.372, 173.825 128.968, 172.429 127.571 C 171.564 126.707, 170.471 126, 170 126 C 169.529 126, 168.436 126.707, 167.571 127.571 M 247.750 127.080 C 245.422 128.436, 245.524 131.675, 247.934 132.965 C 248.998 133.534, 250.091 134, 250.363 134 C 251.193 134, 254 130.913, 254 130 C 254 128.966, 251.132 125.988, 250.179 126.030 C 249.805 126.047, 248.713 126.519, 247.750 127.080 M 247.750 159.080 C 246.138 160.019, 246 162.769, 246 194.015 C 246 226.522, 246.080 227.973, 247.934 228.965 C 250.436 230.304, 250.569 230.288, 252.429 228.429 C 253.793 227.064, 254 222.537, 254 194 C 254 165.463, 253.793 160.936, 252.429 159.571 C 250.607 157.750, 250.121 157.699, 247.750 159.080 M 199.571 223.571 C 198.707 224.436, 198 225.640, 198 226.249 C 198 226.857, 204.844 234.250, 213.208 242.677 L 228.416 258 213.208 273.323 C 204.844 281.750, 198 289.143, 198 289.751 C 198 291.200, 200.827 294, 202.290 294 C 203.969 294, 238 259.693, 238 258 C 238 256.307, 203.969 222, 202.290 222 C 201.659 222, 200.436 222.707, 199.571 223.571 M 247.750 255.080 C 245.422 256.436, 245.524 259.675, 247.934 260.965 C 248.998 261.534, 250.091 262, 250.363 262 C 251.193 262, 254 258.913, 254 258 C 254 256.966, 251.132 253.988, 250.179 254.030 C 249.805 254.047, 248.713 254.519, 247.750 255.080 M 279.750 255.073 C 277.413 256.444, 277.527 259.677, 279.960 260.979 C 281.243 261.665, 293.208 261.936, 314.601 261.764 C 344.469 261.523, 347.378 261.349, 348.386 259.750 C 349.191 258.474, 349.191 257.526, 348.386 256.250 C 347.377 254.649, 344.483 254.481, 314.391 254.273 C 293.280 254.127, 280.873 254.414, 279.750 255.073 M 375.750 255.080 C 373.372 256.465, 373.542 259.685, 376.064 261.034 C 379.753 263.008, 382.819 258.219, 379.800 255.200 C 378.367 253.767, 378.022 253.757, 375.750 255.080 " stroke="none" fill="black" fill-rule="evenodd"/>
</svg>