<svg xmlns="http://www.w3.org/2000/svg" width="340" height="324" viewBox="0 0 340 324" version="1.1">
	<path d="M 135.571 127.571 C 134.176 128.966, 134 136.152, 134 191.571 L 134 254 119.571 254 C 107.788 254, 104.855 254.288, 103.571 255.571 C 101.598 257.545, 101.598 258.455, 103.571 260.429 C 104.936 261.793, 109.463 262, 138 262 C 166.537 262, 171.064 261.793, 172.429 260.429 C 173.293 259.564, 174 258.471, 174 258 C 174 257.529, 173.293 256.436, 172.429 255.571 C 171.145 254.288, 168.212 254, 156.429 254 L 142 254 142 191.571 C 142 136.152, 141.824 128.966, 140.429 127.571 C 139.564 126.707, 138.471 126, 138 126 C 137.529 126, 136.436 126.707, 135.571 127.571 M 253.500 127.418 C 238.933 130.252, 227.517 136.380, 217.304 146.850 C 206.743 157.677, 199.976 172.321, 198.469 187.614 C 197.891 193.479, 198.055 194.912, 199.460 196.317 C 200.386 197.243, 201.535 198, 202.015 198 C 203.925 198, 206 193.308, 206 188.988 C 206 176.638, 212.422 162.611, 222.993 151.875 C 234.948 139.732, 248.493 134.046, 265.540 134.015 C 275.270 133.997, 283.180 135.890, 292.500 140.468 C 310.376 149.249, 323.205 168.443, 324.737 188.700 C 325.183 194.602, 325.681 196.294, 327.212 197.113 C 334.989 201.276, 333.057 178.470, 324.196 161.516 C 318.915 151.410, 306.917 139.609, 296.500 134.271 C 282.732 127.217, 267.233 124.747, 253.500 127.418 M 7.571 191.571 C 6.707 192.436, 6 193.640, 6 194.249 C 6 194.857, 12.844 202.250, 21.208 210.677 L 36.416 226 21.208 241.323 C 12.844 249.750, 6 257.143, 6 257.751 C 6 259.181, 8.819 262, 10.249 262 C 10.857 262, 18.250 255.156, 26.677 246.792 L 42 231.584 57.323 246.792 C 65.750 255.156, 73.143 262, 73.751 262 C 75.181 262, 78 259.181, 78 257.751 C 78 257.143, 71.156 249.750, 62.792 241.323 L 47.584 226 62.792 210.677 C 71.156 202.250, 78 194.857, 78 194.249 C 78 192.819, 75.181 190, 73.751 190 C 73.143 190, 65.750 196.844, 57.323 205.208 L 42 220.416 26.677 205.208 C 18.250 196.844, 10.857 190, 10.249 190 C 9.640 190, 8.436 190.707, 7.571 191.571 M 263.232 191.250 C 262.675 191.938, 254.951 207.048, 246.067 224.829 C 235.616 245.746, 230.120 257.803, 230.496 258.986 C 231.266 261.413, 233.895 262.332, 235.726 260.813 C 236.535 260.141, 243.622 246.749, 251.474 231.052 L 265.750 202.514 280.313 231.626 C 288.486 247.965, 295.617 261.023, 296.565 261.386 C 298.679 262.198, 301 260.358, 301 257.871 C 301 255.637, 269.272 191.833, 267.630 190.765 C 265.949 189.672, 264.369 189.846, 263.232 191.250 " stroke="none" fill="black" fill-rule="evenodd"/>
</svg>