<svg xmlns="http://www.w3.org/2000/svg" width="276" height="324" viewBox="0 0 276 324" version="1.1">
	<path d="M 39.571 127.571 C 38.176 128.966, 38 136.152, 38 191.571 L 38 254 23.571 254 C 11.788 254, 8.855 254.288, 7.571 255.571 C 5.598 257.545, 5.598 258.455, 7.571 260.429 C 8.936 261.793, 13.463 262, 42 262 C 70.537 262, 75.064 261.793, 76.429 260.429 C 77.293 259.564, 78 258.471, 78 258 C 78 257.529, 77.293 256.436, 76.429 255.571 C 75.145 254.288, 72.212 254, 60.429 254 L 46 254 46 191.571 C 46 136.152, 45.824 128.966, 44.429 127.571 C 43.564 126.707, 42.471 126, 42 126 C 41.529 126, 40.436 126.707, 39.571 127.571 M 167.571 127.571 C 166.178 128.965, 166 135.899, 166 188.799 L 166 248.455 136.711 219.227 C 120.602 203.152, 106.909 190, 106.282 190 C 104.807 190, 102 192.810, 102 194.287 C 102 196.056, 168.253 262, 170.030 262 C 173.992 262, 174 261.862, 174 194.371 C 174 136.406, 173.825 128.968, 172.429 127.571 C 171.564 126.707, 170.471 126, 170 126 C 169.529 126, 168.436 126.707, 167.571 127.571 M 199.571 127.571 C 198.206 128.937, 198 133.497, 198 162.371 C 198 186.883, 198.315 195.915, 199.200 196.800 C 200.085 197.685, 209.117 198, 233.629 198 C 263.001 198, 267.046 197.811, 268.486 196.371 C 269.397 195.460, 269.839 194.027, 269.488 193.121 C 269.144 192.229, 268.446 189.316, 267.937 186.647 C 265.909 175.999, 257.834 166.108, 247.175 161.216 C 242.564 159.099, 240 158.611, 233.500 158.611 C 224.128 158.611, 216.947 161.343, 210.130 167.502 L 206 171.233 206 150.188 C 206 132.389, 205.758 128.900, 204.429 127.571 C 203.564 126.707, 202.471 126, 202 126 C 201.529 126, 200.436 126.707, 199.571 127.571 M 221.081 169.117 C 213.283 173.014, 208.558 178.944, 206.400 187.544 L 205.783 190 233.392 190 C 255.803 190, 261 189.748, 261 188.660 C 261 187.923, 259.589 184.495, 257.864 181.043 C 252.967 171.244, 244.754 166.218, 233.410 166.076 C 228.496 166.015, 226.114 166.602, 221.081 169.117 " stroke="none" fill="black" fill-rule="evenodd"/>
</svg>