<svg xmlns="http://www.w3.org/2000/svg" width="500" height="324" viewBox="0 0 500 324" version="1.1">
	<path d="M 71.259 191.259 C 35.366 227.151, 6 257.044, 6 257.687 C 6 259.202, 8.802 261.999, 10.321 262.002 C 12.472 262.005, 141 132.581, 141 130.412 C 141 128.247, 139.248 126, 137.559 126 C 136.986 126, 107.151 155.366, 71.259 191.259 M 295.750 127.080 C 294.113 128.034, 294 132.152, 294 191.050 L 294 254 279.934 254 C 265.308 254, 262 254.738, 262 258 C 262 261.750, 264.791 262.037, 298.601 261.764 C 328.469 261.523, 331.378 261.349, 332.386 259.750 C 333.190 258.475, 333.191 257.525, 332.387 256.250 C 331.430 254.730, 329.291 254.464, 316.142 254.224 L 301 253.948 301 191.174 C 301 123.280, 301.058 123.988, 295.750 127.080 M 415.531 127.056 C 387.788 131.364, 365.240 152.484, 359.511 179.529 C 357.307 189.937, 357.504 195.664, 360.117 197.062 C 363.381 198.809, 364.618 196.615, 365.816 186.954 C 368.141 168.196, 377.514 153.178, 393.310 142.903 C 403.255 136.433, 410.545 134.500, 425 134.500 C 435.533 134.500, 438.574 134.871, 444.326 136.857 C 453.442 140.004, 464.960 147.864, 470.660 154.828 C 478.771 164.737, 484.929 180.812, 484.983 192.215 C 485.002 196.428, 487.359 198.498, 490.276 196.866 C 494.091 194.731, 491.123 176.088, 484.982 163.615 C 472.499 138.258, 443.089 122.777, 415.531 127.056 M 167.571 191.571 C 166.707 192.436, 166 193.640, 166 194.249 C 166 194.857, 172.844 202.250, 181.208 210.677 L 196.416 226 181.208 241.323 C 172.844 249.750, 166 257.143, 166 257.751 C 166 258.967, 168.736 262, 169.834 262 C 170.213 262, 177.482 255.031, 185.987 246.514 L 201.449 231.027 217.045 246.514 C 225.623 255.031, 233.082 262, 233.621 262 C 235.106 262, 237 259.793, 237 258.062 C 237 257.216, 230.143 249.656, 221.762 241.262 L 206.524 226 221.762 210.738 C 230.143 202.344, 237 194.784, 237 193.938 C 237 192.207, 235.106 190, 233.621 190 C 233.082 190, 225.623 196.969, 217.045 205.486 L 201.449 220.973 185.987 205.486 C 177.482 196.969, 170.213 190, 169.834 190 C 169.454 190, 168.436 190.707, 167.571 191.571 M 423.268 191.207 C 421.363 193.557, 390 256.957, 390 258.459 C 390 260.509, 393.792 262.422, 395.314 261.140 C 395.966 260.591, 403.021 247.055, 410.991 231.060 L 425.483 201.979 439.825 230.740 C 447.714 246.558, 454.867 260.045, 455.722 260.711 C 457.692 262.247, 461.021 260.657, 460.950 258.215 C 460.859 255.092, 427.585 190.516, 425.908 190.207 C 425.032 190.046, 423.844 190.496, 423.268 191.207 " stroke="none" fill="black" fill-rule="evenodd"/>
</svg>