<svg xmlns="http://www.w3.org/2000/svg" width="340" height="324" viewBox="0 0 340 324" version="1.1">
	<path d="M 135.571 127.571 C 134.176 128.966, 134 136.152, 134 191.571 L 134 254 119.571 254 C 107.788 254, 104.855 254.288, 103.571 255.571 C 101.598 257.545, 101.598 258.455, 103.571 260.429 C 104.936 261.793, 109.463 262, 138 262 C 166.537 262, 171.064 261.793, 172.429 260.429 C 173.293 259.564, 174 258.471, 174 258 C 174 257.529, 173.293 256.436, 172.429 255.571 C 171.145 254.288, 168.212 254, 156.429 254 L 142 254 142 191.571 C 142 136.152, 141.824 128.966, 140.429 127.571 C 139.564 126.707, 138.471 126, 138 126 C 137.529 126, 136.436 126.707, 135.571 127.571 M 263.200 127.200 C 262.292 128.108, 262 143.689, 262 191.200 L 262 254 231.934 254 C 213.122 254, 201.145 254.387, 199.934 255.035 C 197.440 256.370, 197.448 259.634, 199.948 260.972 C 201.256 261.672, 223.132 261.930, 266.589 261.757 C 326.951 261.517, 331.356 261.383, 332.386 259.750 C 333.191 258.474, 333.191 257.526, 332.386 256.250 C 331.381 254.655, 328.566 254.477, 300.641 254.236 L 270 253.971 270 225.986 L 270 198 300.250 197.985 C 316.887 197.976, 331.081 197.601, 331.791 197.150 C 332.805 196.507, 333.082 188.958, 333.082 162 C 333.082 135.042, 332.805 127.493, 331.791 126.850 C 329.610 125.466, 264.602 125.798, 263.200 127.200 M 270 162 L 270 190 298 190 L 326 190 326 162 L 326 134 298 134 L 270 134 270 162 M 7.571 191.571 C 6.707 192.436, 6 193.640, 6 194.249 C 6 194.857, 12.844 202.250, 21.208 210.677 L 36.416 226 21.208 241.323 C 12.844 249.750, 6 257.143, 6 257.751 C 6 259.181, 8.819 262, 10.249 262 C 10.857 262, 18.250 255.156, 26.677 246.792 L 42 231.584 57.323 246.792 C 65.750 255.156, 73.143 262, 73.751 262 C 75.181 262, 78 259.181, 78 257.751 C 78 257.143, 71.156 249.750, 62.792 241.323 L 47.584 226 62.792 210.677 C 71.156 202.250, 78 194.857, 78 194.249 C 78 192.819, 75.181 190, 73.751 190 C 73.143 190, 65.750 196.844, 57.323 205.208 L 42 220.416 26.677 205.208 C 18.250 196.844, 10.857 190, 10.249 190 C 9.640 190, 8.436 190.707, 7.571 191.571 " stroke="none" fill="black" fill-rule="evenodd"/>
</svg>