<svg xmlns="http://www.w3.org/2000/svg" width="580" height="324" viewBox="0 0 580 324" version="1.1">
	<path d="M 39.267 159.267 C 20.970 177.563, 6 193.056, 6 193.695 C 6 195.187, 8.799 198, 10.285 198 C 10.913 198, 25.506 183.947, 42.713 166.771 L 74 135.542 105.287 166.771 C 122.494 183.947, 137.087 198, 137.715 198 C 139.201 198, 142 195.187, 142 193.695 C 142 191.982, 75.721 126, 74 126 C 73.193 126, 57.563 140.970, 39.267 159.267 M 255.500 127.099 C 230.741 130.629, 208.541 149.828, 201.168 174.087 C 195.589 192.444, 198.535 213.735, 208.816 229.352 C 233.608 267.014, 284.724 271.299, 315.004 238.254 C 321.700 230.947, 327.995 219.295, 330.538 209.500 C 332.569 201.679, 332.569 185.321, 330.538 177.500 C 323.673 151.061, 301.267 130.920, 274.398 127.037 C 266.516 125.897, 263.870 125.906, 255.500 127.099 M 359.571 127.571 C 358.707 128.436, 358 129.502, 358 129.941 C 358 130.380, 372.738 160.160, 390.750 196.119 L 423.500 261.500 457.500 261.493 C 493.253 261.485, 497.149 261.077, 506.202 256.395 C 510.958 253.936, 518.309 246.062, 521.043 240.500 C 523.155 236.201, 523.500 234.097, 523.500 225.500 C 523.500 213.367, 521.450 208.286, 513.353 200.339 C 499.774 187.015, 478.031 187.232, 464.689 200.824 C 457.732 207.911, 454.556 215.645, 454.556 225.500 C 454.556 232.134, 455.030 234.525, 457.329 239.500 C 458.854 242.800, 461.972 247.412, 464.259 249.750 L 468.416 254 448.210 254 L 428.003 254 396.898 191.750 C 379.789 157.512, 365.094 128.713, 364.241 127.750 C 362.332 125.596, 361.576 125.567, 359.571 127.571 M 249.500 135.870 C 239.359 138.789, 231.106 143.803, 223 151.970 C 211.152 163.907, 206 176.493, 206 193.500 C 206 210.502, 211.149 223.085, 223 235.041 C 235.080 247.229, 248.543 252.953, 265.201 252.985 C 275.668 253.005, 281.982 251.545, 291.899 246.809 C 307.136 239.533, 319.184 224.558, 323.491 207.540 C 330.140 181.275, 316.343 151.863, 291.899 140.191 C 287.280 137.985, 281.115 135.690, 278.201 135.090 C 270.410 133.487, 256.459 133.866, 249.500 135.870 M 167.571 159.571 C 165.215 161.927, 165.215 210.073, 167.571 212.429 C 168.436 213.293, 169.529 214, 170 214 C 170.471 214, 171.564 213.293, 172.429 212.429 C 174.785 210.073, 174.785 161.927, 172.429 159.571 C 171.564 158.707, 170.471 158, 170 158 C 169.529 158, 168.436 158.707, 167.571 159.571 M 263.571 159.571 C 262.212 160.931, 262 165.242, 262 191.571 L 262 222 247.571 222 C 235.788 222, 232.855 222.288, 231.571 223.571 C 229.595 225.548, 229.598 226.455, 231.585 228.442 C 232.978 229.835, 237.159 229.995, 266.226 229.763 C 296.452 229.523, 299.377 229.350, 300.386 227.750 C 301.190 226.475, 301.191 225.525, 300.387 224.250 C 299.433 222.736, 297.314 222.463, 284.643 222.223 L 270 221.947 270 192.196 C 270 166.887, 269.768 162.113, 268.443 160.223 C 266.598 157.588, 265.678 157.465, 263.571 159.571 M 534.075 191.861 C 533.276 193.352, 533.971 194.989, 537.575 200.107 C 548.708 215.917, 548.654 234.741, 537.432 249.986 C 532.445 256.760, 532.108 259.336, 536.146 259.806 C 538.219 260.047, 539.513 259.201, 542.267 255.806 C 550.253 245.959, 553.445 235.684, 552.784 221.953 C 552.388 213.739, 551.834 211.243, 549.121 205.445 C 543.315 193.038, 536.660 187.030, 534.075 191.861 M 479.748 199.427 C 461.840 205.818, 455.939 228.971, 468.447 243.770 C 475.247 251.815, 488.663 255.310, 498.427 251.581 C 512.194 246.323, 519.798 232.020, 516.098 218.343 C 512.899 206.521, 501.747 197.958, 489.663 198.044 C 486.273 198.068, 481.812 198.690, 479.748 199.427 M 167.571 222.571 C 166.707 223.436, 166 224.529, 166 225 C 166 225.471, 166.707 226.564, 167.571 227.429 C 168.436 228.293, 169.529 229, 170 229 C 170.471 229, 171.564 228.293, 172.429 227.429 C 173.293 226.564, 174 225.471, 174 225 C 174 224.529, 173.293 223.436, 172.429 222.571 C 171.564 221.707, 170.471 221, 170 221 C 169.529 221, 168.436 221.707, 167.571 222.571 " stroke="none" fill="black" fill-rule="evenodd"/>
</svg>