<svg xmlns="http://www.w3.org/2000/svg" width="532" height="324" viewBox="0 0 532 324" version="1.1">
	<path d="M 35.045 127.092 C 19.977 130.046, 8.919 142.108, 6.587 158.135 C 6.064 161.723, 6.277 163.134, 7.527 164.385 C 8.416 165.273, 9.529 166, 10 166 C 11.912 166, 14 162.663, 14 159.607 C 14 149.949, 22.088 138.862, 31.463 135.667 C 42.255 131.990, 53.476 134.381, 61.071 141.976 C 67.228 148.132, 69.497 154.745, 68.635 164.020 C 67.250 178.924, 58.438 201.238, 47.815 216.743 C 40.521 227.389, 26.224 241.285, 15.142 248.500 C 7.180 253.684, 5.966 254.840, 6.214 257 C 6.722 261.439, 10.187 260.667, 20.041 253.918 C 48.574 234.375, 68.190 204.872, 74.868 171.457 C 76.412 163.729, 76.657 160.286, 75.962 156.078 C 73.481 141.062, 62.492 129.856, 47.535 127.091 C 40.969 125.877, 41.243 125.877, 35.045 127.092 M 167.571 127.571 C 166.199 128.944, 166 133.890, 166 166.699 L 166 204.255 161.426 200.038 C 140.794 181.020, 108.391 191.869, 102.987 219.604 C 99.383 238.100, 112.404 256.476, 131.562 259.927 C 145.417 262.424, 160.477 255.576, 167.503 243.584 C 173.271 233.740, 173.464 231.737, 173.762 178.599 C 174.013 134.042, 173.889 129.535, 172.364 127.849 C 170.322 125.593, 169.592 125.551, 167.571 127.571 M 255.870 127.014 C 226.206 131.674, 203.468 154.602, 199.009 184.349 C 197.698 193.101, 198.139 196.456, 200.733 197.451 C 203.507 198.516, 206 194.563, 206 189.099 C 206 176.689, 212.397 162.686, 223 151.888 C 234.807 139.863, 248.523 134, 264.845 134 C 275.674 134, 281.916 135.424, 291.820 140.153 C 309.642 148.662, 322.620 166.919, 324.494 186.117 C 325.387 195.264, 325.785 196.703, 327.618 197.407 C 330.620 198.559, 332 196.097, 332 189.588 C 332 181.304, 329.819 173.213, 324.850 163.065 C 321.641 156.512, 318.910 152.803, 312.610 146.441 C 305.778 139.542, 303.003 137.539, 295 133.733 C 289.775 131.249, 283.475 128.743, 281 128.165 C 274.187 126.573, 262.177 126.023, 255.870 127.014 M 487.750 127.080 C 486.113 128.034, 486 132.152, 486 191.050 L 486 254 471.571 254 C 459.788 254, 456.855 254.288, 455.571 255.571 C 453.595 257.548, 453.598 258.455, 455.585 260.442 C 456.978 261.835, 461.159 261.995, 490.226 261.763 C 520.452 261.523, 523.377 261.350, 524.386 259.750 C 525.190 258.475, 525.191 257.525, 524.387 256.250 C 523.430 254.730, 521.291 254.464, 508.142 254.224 L 493 253.948 493 191.174 C 493 123.280, 493.058 123.988, 487.750 127.080 M 264.348 190.765 C 262.390 192.014, 230.011 257.865, 230.600 259.400 C 231.451 261.618, 234.109 262.213, 235.895 260.584 C 236.778 259.779, 243.794 246.493, 251.486 231.060 C 259.178 215.627, 265.709 203, 266 203 C 266.290 203, 273.036 216.041, 280.990 231.980 C 288.944 247.919, 296.083 261.201, 296.853 261.497 C 298.717 262.213, 301 260.217, 301 257.871 C 301 255.637, 269.272 191.833, 267.630 190.765 C 267.009 190.361, 266.275 190.031, 266 190.031 C 265.725 190.031, 264.981 190.361, 264.348 190.765 M 359.571 191.571 C 358.707 192.436, 358 193.640, 358 194.249 C 358 194.857, 364.844 202.250, 373.208 210.677 L 388.416 226 373.208 241.323 C 364.844 249.750, 358 257.143, 358 257.751 C 358 258.967, 360.736 262, 361.834 262 C 362.213 262, 369.482 255.031, 377.987 246.514 L 393.449 231.027 409.045 246.514 C 417.623 255.031, 425.082 262, 425.621 262 C 427.106 262, 429 259.793, 429 258.062 C 429 257.216, 422.143 249.656, 413.762 241.262 L 398.524 226 413.762 210.738 C 422.143 202.344, 429 194.784, 429 193.938 C 429 192.207, 427.106 190, 425.621 190 C 425.082 190, 417.623 196.969, 409.045 205.486 L 393.449 220.973 377.987 205.486 C 369.482 196.969, 362.213 190, 361.834 190 C 361.454 190, 360.436 190.707, 359.571 191.571 M 127.627 199.468 C 122.247 201.386, 117.039 205.829, 113.500 211.519 C 110.741 215.955, 110.500 217.073, 110.500 225.422 C 110.500 233.524, 110.796 235.003, 113.249 239.176 C 122.329 254.623, 143.758 257.849, 156.280 245.653 C 162.701 239.401, 164.500 234.989, 164.500 225.500 C 164.500 216.107, 162.733 211.694, 156.453 205.406 C 149.664 198.608, 137.228 196.046, 127.627 199.468 " stroke="none" fill="black" fill-rule="evenodd"/>
</svg>