<svg xmlns="http://www.w3.org/2000/svg" width="340" height="324" viewBox="0 0 340 324" version="1.1">
	<path d="M 39.267 159.267 C 20.970 177.563, 6 193.056, 6 193.695 C 6 195.187, 8.799 198, 10.285 198 C 10.913 198, 25.506 183.947, 42.713 166.771 L 74 135.542 105.287 166.771 C 122.494 183.947, 137.050 198, 137.632 198 C 138.214 198, 139.471 197.137, 140.425 196.083 C 141.727 194.644, 141.907 193.710, 141.148 192.333 C 139.353 189.081, 75.479 126, 73.981 126 C 73.185 126, 57.563 140.970, 39.267 159.267 M 255.536 127.055 C 238.549 129.693, 223.930 138.283, 212.779 152.178 C 202.828 164.577, 198.553 176.995, 198.553 193.500 C 198.553 210.065, 202.823 222.417, 212.882 234.950 C 226.325 251.701, 244.262 260.349, 265.500 260.319 C 283.884 260.292, 298.916 254.066, 312.095 241.019 C 325.603 227.646, 332 212.375, 332 193.500 C 332 174.625, 325.603 159.354, 312.095 145.981 C 297.016 131.053, 275.708 123.923, 255.536 127.055 M 249.345 135.904 C 238.677 138.957, 232.033 142.962, 223.479 151.497 C 211.121 163.828, 206 176.133, 206 193.500 C 206 210.512, 211.128 223.074, 222.993 235.125 C 234.911 247.231, 248.528 253, 265.184 253 C 275.272 253, 283.110 251.144, 292.500 246.532 C 301.645 242.040, 308.725 235.691, 314.924 226.422 C 334.805 196.697, 323.744 155.395, 291.820 140.153 C 287.244 137.968, 281.115 135.690, 278.201 135.090 C 270.350 133.475, 256.464 133.867, 249.345 135.904 M 167.571 159.571 C 165.215 161.927, 165.215 210.073, 167.571 212.429 C 169.678 214.535, 170.598 214.412, 172.443 211.777 C 173.745 209.919, 174 205.701, 174 186 C 174 166.299, 173.745 162.081, 172.443 160.223 C 170.598 157.588, 169.678 157.465, 167.571 159.571 M 263.571 159.571 C 262.212 160.931, 262 165.242, 262 191.571 L 262 222 247.571 222 C 235.788 222, 232.855 222.288, 231.571 223.571 C 229.595 225.548, 229.598 226.455, 231.585 228.442 C 232.978 229.835, 237.159 229.995, 266.226 229.763 C 296.452 229.523, 299.377 229.350, 300.386 227.750 C 301.190 226.475, 301.191 225.525, 300.387 224.250 C 299.430 222.730, 297.291 222.464, 284.142 222.224 L 269 221.948 269 191.174 C 269 168.572, 268.681 160.081, 267.800 159.200 C 266.219 157.619, 265.457 157.685, 263.571 159.571 M 167.616 222.527 C 166.727 223.416, 166 224.529, 166 225 C 166 226.389, 169.140 229.120, 170.295 228.735 C 172.395 228.035, 173.549 225.094, 172.423 223.310 C 170.905 220.902, 169.474 220.669, 167.616 222.527 " stroke="none" fill="black" fill-rule="evenodd"/>
</svg>