<svg xmlns="http://www.w3.org/2000/svg" width="244" height="324" viewBox="0 0 244 324" version="1.1">
	<path d="M 7.571 127.571 C 6.207 128.936, 6 133.463, 6 162 C 6 190.537, 6.207 195.064, 7.571 196.429 C 8.844 197.701, 11.697 198, 22.575 198 L 36.006 198 21.020 227.961 C 12.777 244.439, 6.285 258.580, 6.594 259.384 C 7.265 261.133, 9.512 262.125, 11.274 261.448 C 11.975 261.180, 19.056 247.919, 27.010 231.980 C 34.964 216.041, 41.717 203, 42.016 203 C 42.315 203, 49.042 216.034, 56.965 231.964 C 69.336 256.836, 72.352 262, 74.510 262 C 74.701 262, 75.564 261.293, 76.429 260.429 C 77.825 259.032, 78 251.628, 78 194 C 78 136.372, 77.825 128.968, 76.429 127.571 C 74.455 125.598, 73.545 125.598, 71.571 127.571 C 70.212 128.931, 70 133.242, 70 159.571 L 70 190 42 190 L 14 190 14 159.571 C 14 133.242, 13.788 128.931, 12.429 127.571 C 11.564 126.707, 10.471 126, 10 126 C 9.529 126, 8.436 126.707, 7.571 127.571 M 128.067 175.097 C 120.715 176.368, 109.428 182.027, 104.250 187.037 C 99.513 191.622, 99.430 191.838, 101.390 194.519 C 103.073 196.820, 104.865 196.085, 112.500 189.964 C 119.611 184.263, 128.713 181.629, 139.374 182.189 C 150.596 182.778, 158.388 186.446, 167.072 195.230 C 170.607 198.806, 175.300 202.630, 177.500 203.729 C 194.162 212.048, 212.831 211.193, 227.528 201.437 C 236.095 195.751, 237.974 192.272, 233.873 189.690 C 232.602 188.890, 231.271 189.464, 227.803 192.305 C 216.616 201.472, 201.185 204.467, 188.040 200.022 C 180.453 197.456, 176.862 195.115, 171.766 189.409 C 161.757 178.205, 143.909 172.359, 128.067 175.097 M 58.607 219.250 C 64.446 230.938, 69.398 240.688, 69.612 240.917 C 69.825 241.146, 70 231.583, 70 219.667 L 70 198 58.995 198 L 47.991 198 58.607 219.250 " stroke="none" fill="black" fill-rule="evenodd"/>
</svg>