<svg xmlns="http://www.w3.org/2000/svg" width="340" height="324" viewBox="0 0 340 324" version="1.1">
	<path d="M 7.571 127.571 C 6.207 128.936, 6 133.463, 6 162 C 6 190.537, 6.207 195.064, 7.571 196.429 C 8.844 197.701, 11.697 198, 22.575 198 L 36.006 198 21.020 227.961 C 12.777 244.439, 6.285 258.580, 6.594 259.384 C 7.265 261.133, 9.512 262.125, 11.274 261.448 C 11.975 261.180, 19.056 247.919, 27.010 231.980 C 34.964 216.041, 41.717 203, 42.016 203 C 42.315 203, 49.042 216.034, 56.965 231.964 C 69.336 256.836, 72.352 262, 74.510 262 C 74.701 262, 75.564 261.293, 76.429 260.429 C 77.825 259.032, 78 251.628, 78 194 C 78 136.372, 77.825 128.968, 76.429 127.571 C 74.455 125.598, 73.545 125.598, 71.571 127.571 C 70.212 128.931, 70 133.242, 70 159.571 L 70 190 42 190 L 14 190 14 159.571 C 14 133.242, 13.788 128.931, 12.429 127.571 C 11.564 126.707, 10.471 126, 10 126 C 9.529 126, 8.436 126.707, 7.571 127.571 M 264.500 158 L 232.512 190 168.827 190 C 112.266 190, 104.967 190.176, 103.571 191.571 C 101.598 193.545, 101.598 194.455, 103.571 196.429 C 104.844 197.701, 107.697 198, 118.575 198 L 132.006 198 117.020 227.961 C 108.777 244.439, 102.285 258.580, 102.594 259.384 C 103.265 261.133, 105.512 262.125, 107.274 261.448 C 107.975 261.180, 115.056 247.919, 123.010 231.980 C 130.964 216.041, 137.717 203, 138.016 203 C 138.315 203, 145.071 216.093, 153.030 232.095 C 160.988 248.098, 167.842 261.402, 168.259 261.660 C 170.839 263.255, 173.516 259.019, 186.996 232.009 C 194.958 216.054, 201.729 203, 202.043 203 C 202.356 203, 208.955 215.985, 216.707 231.855 C 224.975 248.782, 231.514 260.983, 232.527 261.372 C 234.674 262.196, 237 260.375, 237 257.871 C 237 256.835, 230.473 242.940, 222.497 226.993 L 207.993 198 221.283 198 L 234.573 198 266.007 166.509 L 297.440 135.019 313.041 150.509 C 321.621 159.029, 329.117 166, 329.698 166 C 331.296 166, 333.209 163.296, 332.833 161.570 C 332.419 159.669, 299.030 126, 297.559 126 C 296.970 126, 282.094 140.400, 264.500 158 M 58.607 219.250 C 64.446 230.938, 69.398 240.688, 69.612 240.917 C 69.825 241.146, 70 231.583, 70 219.667 L 70 198 58.995 198 L 47.991 198 58.607 219.250 M 156.743 223.500 C 163.750 237.525, 169.715 249, 170 249 C 170.285 249, 176.250 237.525, 183.257 223.500 L 195.995 198 170 198 L 144.005 198 156.743 223.500 " stroke="none" fill="black" fill-rule="evenodd"/>
</svg>