<svg xmlns="http://www.w3.org/2000/svg" width="244" height="324" viewBox="0 0 244 324" version="1.1">
	<path d="M 7.571 127.571 C 6.207 128.936, 6 133.463, 6 162 C 6 190.537, 6.207 195.064, 7.571 196.429 C 8.844 197.701, 11.697 198, 22.575 198 L 36.006 198 21.020 227.961 C 12.777 244.439, 6.285 258.580, 6.594 259.384 C 7.265 261.133, 9.512 262.125, 11.274 261.448 C 11.975 261.180, 19.056 247.919, 27.010 231.980 C 34.964 216.041, 41.717 203, 42.016 203 C 42.315 203, 49.042 216.034, 56.965 231.964 C 69.336 256.836, 72.352 262, 74.510 262 C 74.701 262, 75.564 261.293, 76.429 260.429 C 77.825 259.032, 78 251.628, 78 194 C 78 136.372, 77.825 128.968, 76.429 127.571 C 74.455 125.598, 73.545 125.598, 71.571 127.571 C 70.212 128.931, 70 133.242, 70 159.571 L 70 190 42 190 L 14 190 14 159.571 C 14 133.242, 13.788 128.931, 12.429 127.571 C 11.564 126.707, 10.471 126, 10 126 C 9.529 126, 8.436 126.707, 7.571 127.571 M 103.571 127.571 C 102.707 128.436, 102 129.657, 102 130.285 C 102 130.913, 116.057 145.510, 133.238 162.723 L 164.476 194.019 137.238 221.257 L 110 248.495 110 220.903 C 110 195.441, 109.859 193.182, 108.171 191.655 C 105.915 189.613, 105.537 189.606, 103.571 191.571 C 102.206 192.937, 102 197.504, 102 226.449 C 102 262.083, 102.135 263.044, 106.927 261.523 C 108.039 261.170, 122.560 246.947, 139.194 229.916 L 169.439 198.951 201.085 230.585 C 227.926 257.416, 233.056 262.117, 234.866 261.543 C 236.040 261.170, 237.017 260.333, 237.038 259.683 C 237.059 259.032, 237.042 243.650, 237.001 225.500 C 236.920 189.993, 236.707 188.481, 232.117 190.938 C 230.037 192.051, 230 192.566, 230 220.783 L 230 249.495 202.254 221.750 L 174.508 194.004 205.754 162.746 C 222.939 145.554, 237 130.759, 237 129.867 C 237 127.318, 234.447 125.684, 232.314 126.868 C 231.316 127.422, 216.785 141.621, 200.023 158.420 L 169.546 188.966 138.523 157.441 C 121.460 140.103, 106.970 125.936, 106.321 125.958 C 105.673 125.981, 104.436 126.707, 103.571 127.571 M 58.607 219.250 C 64.446 230.938, 69.398 240.688, 69.612 240.917 C 69.825 241.146, 70 231.583, 70 219.667 L 70 198 58.995 198 L 47.991 198 58.607 219.250 " stroke="none" fill="black" fill-rule="evenodd"/>
</svg>