<svg xmlns="http://www.w3.org/2000/svg" width="244" height="324" viewBox="0 0 244 324" version="1.1">
	<path d="M 7.571 127.571 C 6.207 128.936, 6 133.463, 6 162 C 6 190.537, 6.207 195.064, 7.571 196.429 C 8.844 197.701, 11.697 198, 22.575 198 L 36.006 198 21.020 227.961 C 12.777 244.439, 6.285 258.580, 6.594 259.384 C 7.265 261.133, 9.512 262.125, 11.274 261.448 C 11.975 261.180, 19.056 247.919, 27.010 231.980 C 34.964 216.041, 41.717 203, 42.016 203 C 42.315 203, 49.042 216.034, 56.965 231.964 C 69.336 256.836, 72.352 262, 74.510 262 C 74.701 262, 75.564 261.293, 76.429 260.429 C 77.825 259.032, 78 251.628, 78 194 C 78 136.372, 77.825 128.968, 76.429 127.571 C 74.455 125.598, 73.545 125.598, 71.571 127.571 C 70.212 128.931, 70 133.242, 70 159.571 L 70 190 42 190 L 14 190 14 159.571 C 14 133.242, 13.788 128.931, 12.429 127.571 C 11.564 126.707, 10.471 126, 10 126 C 9.529 126, 8.436 126.707, 7.571 127.571 M 159.500 127.042 C 139.122 130.142, 118.750 144.747, 109.589 162.823 C 100.108 181.535, 100.084 205.419, 109.530 224.059 C 117.618 240.021, 135.006 253.858, 153 258.651 C 161.569 260.933, 177.276 260.891, 186 258.562 C 209.016 252.418, 228.195 233.197, 234.014 210.444 C 240.028 186.930, 233.410 163.123, 216.095 145.981 C 201.014 131.051, 179.804 123.953, 159.500 127.042 M 153.500 135.865 C 142.740 138.953, 135.995 143.006, 127.479 151.500 C 115.121 163.826, 110 176.131, 110 193.500 C 110 208.513, 114.670 221.585, 123.737 231.950 C 128.404 237.284, 137.448 245, 139.034 245 C 139.505 245, 138.689 242.412, 137.223 239.250 C 135.040 234.544, 134.554 232.048, 134.546 225.500 C 134.536 218.625, 134.970 216.576, 137.630 210.932 C 148.105 188.700, 176.607 183.499, 193.777 200.687 C 201.483 208.400, 203.500 213.557, 203.500 225.542 C 203.500 234.521, 203.212 236.139, 200.777 240.833 L 198.053 246.081 201.218 244.291 C 206.825 241.117, 217.562 229.703, 221.340 222.899 C 237.924 193.032, 226.070 154.595, 195.820 140.153 C 191.244 137.968, 185.115 135.690, 182.201 135.090 C 174.422 133.490, 160.461 133.867, 153.500 135.865 M 58.607 219.250 C 64.446 230.938, 69.398 240.688, 69.612 240.917 C 69.825 241.146, 70 231.583, 70 219.667 L 70 198 58.995 198 L 47.991 198 58.607 219.250 M 159.603 199.477 C 151.528 202.354, 151.594 203.079, 160.764 212.249 L 168.985 220.470 177.503 211.997 C 186.013 203.531, 186.018 203.522, 183.818 201.863 C 178.670 197.980, 167.024 196.832, 159.603 199.477 M 146.192 210.269 C 141.752 215.619, 140.575 229.264, 143.918 236.627 C 144.948 238.896, 146.209 241.011, 146.718 241.326 C 147.228 241.641, 151.325 238.199, 155.823 233.678 L 164.001 225.457 155.671 217.170 C 148.884 210.419, 147.128 209.140, 146.192 210.269 M 182.727 216.772 C 178.477 221.047, 175 224.995, 175 225.546 C 175 226.667, 190.144 242, 191.252 242 C 191.641 242, 192.973 240.088, 194.212 237.750 C 196.008 234.363, 196.465 231.875, 196.465 225.500 C 196.465 219.125, 196.008 216.637, 194.212 213.250 C 192.973 210.912, 191.620 209, 191.206 209 C 190.792 209, 186.976 212.497, 182.727 216.772 M 160.477 239.059 L 152.500 247.118 154.830 249.034 C 161.199 254.272, 175.801 254.342, 183.819 249.174 L 186.137 247.680 177.841 239.340 C 173.278 234.753, 169.299 231, 168.999 231 C 168.699 231, 164.864 234.627, 160.477 239.059 " stroke="none" fill="black" fill-rule="evenodd"/>
</svg>