<svg xmlns="http://www.w3.org/2000/svg" width="244" height="324" viewBox="0 0 244 324" version="1.1">
	<path d="M 7.571 127.571 C 6.207 128.936, 6 133.463, 6 162 C 6 190.537, 6.207 195.064, 7.571 196.429 C 8.844 197.701, 11.697 198, 22.575 198 L 36.006 198 21.020 227.961 C 12.777 244.439, 6.285 258.580, 6.594 259.384 C 7.265 261.133, 9.512 262.125, 11.274 261.448 C 11.975 261.180, 19.056 247.919, 27.010 231.980 C 34.964 216.041, 41.717 203, 42.016 203 C 42.315 203, 49.042 216.034, 56.965 231.964 C 69.336 256.836, 72.352 262, 74.510 262 C 74.701 262, 75.564 261.293, 76.429 260.429 C 77.825 259.032, 78 251.628, 78 194 C 78 136.372, 77.825 128.968, 76.429 127.571 C 74.455 125.598, 73.545 125.598, 71.571 127.571 C 70.212 128.931, 70 133.242, 70 159.571 L 70 190 42 190 L 14 190 14 159.571 C 14 133.242, 13.788 128.931, 12.429 127.571 C 11.564 126.707, 10.471 126, 10 126 C 9.529 126, 8.436 126.707, 7.571 127.571 M 159.205 127.092 C 145.411 129.194, 132.167 136.058, 121.939 146.407 C 110.671 157.807, 104.079 171.793, 102.526 187.593 C 101.946 193.493, 102.107 194.964, 103.486 196.343 C 107.035 199.892, 110 196.840, 110 189.639 C 110 166.037, 130.615 141.310, 155.103 135.537 C 187.493 127.903, 219.878 147.808, 227.443 180 C 228.283 183.575, 228.977 188.622, 228.985 191.215 C 228.997 194.946, 229.431 196.160, 231.064 197.034 C 238.869 201.211, 237.090 178.529, 228.293 161.700 C 222.910 151.401, 211.006 139.654, 200.500 134.271 C 187.407 127.563, 172.788 125.021, 159.205 127.092 M 58.607 219.250 C 64.446 230.938, 69.398 240.688, 69.612 240.917 C 69.825 241.146, 70 231.583, 70 219.667 L 70 198 58.995 198 L 47.991 198 58.607 219.250 " stroke="none" fill="black" fill-rule="evenodd"/>
</svg>