<svg xmlns="http://www.w3.org/2000/svg" width="228" height="324" viewBox="0 0 228 324" version="1.1">
	<path d="M 183.571 63.571 C 182.267 64.876, 182 68.009, 182 82 C 182 95.991, 182.267 99.124, 183.571 100.429 C 185.900 102.757, 218.100 102.757, 220.429 100.429 C 222.757 98.100, 222.757 65.900, 220.429 63.571 C 218.100 61.243, 185.900 61.243, 183.571 63.571 M 190 82 L 190 94 202 94 L 214 94 214 82 L 214 70 202 70 L 190 70 190 82 M 7.571 127.571 C 6.207 128.936, 6 133.463, 6 162 C 6 190.537, 6.207 195.064, 7.571 196.429 C 8.844 197.701, 11.697 198, 22.575 198 L 36.006 198 21.020 227.961 C 12.777 244.439, 6.285 258.580, 6.594 259.384 C 7.265 261.133, 9.512 262.125, 11.274 261.448 C 11.975 261.180, 19.056 247.919, 27.010 231.980 C 34.964 216.041, 41.710 203, 42 203 C 42.291 203, 48.822 215.661, 56.514 231.136 C 64.206 246.611, 71.095 259.886, 71.821 260.636 C 73.530 262.400, 74.501 262.356, 76.429 260.429 C 77.825 259.032, 78 251.628, 78 194 C 78 136.372, 77.825 128.968, 76.429 127.571 C 74.455 125.598, 73.545 125.598, 71.571 127.571 C 70.212 128.931, 70 133.242, 70 159.571 L 70 190 42 190 L 14 190 14 159.571 C 14 133.242, 13.788 128.931, 12.429 127.571 C 11.564 126.707, 10.471 126, 10 126 C 9.529 126, 8.436 126.707, 7.571 127.571 M 199.571 127.571 C 198.175 128.968, 198 136.372, 198 194 C 198 251.628, 198.175 259.032, 199.571 260.429 C 200.436 261.293, 201.529 262, 202 262 C 202.471 262, 203.564 261.293, 204.429 260.429 C 205.825 259.032, 206 251.628, 206 194 C 206 136.372, 205.825 128.968, 204.429 127.571 C 203.564 126.707, 202.471 126, 202 126 C 201.529 126, 200.436 126.707, 199.571 127.571 M 129.384 191.412 C 111.475 195.758, 99.559 213.807, 102.987 231.396 C 105.921 246.454, 116.511 257.033, 131.628 260.007 C 138.581 261.375, 146.727 260.177, 153.349 256.813 C 162.073 252.382, 169.982 242.250, 171.548 233.500 C 171.941 231.300, 172.609 228.825, 173.032 228 C 174.124 225.869, 170.673 212.824, 167.654 207.673 C 162.742 199.290, 154.159 193.234, 144.201 191.123 C 137.812 189.769, 136.008 189.804, 129.384 191.412 M 58.607 219.250 C 64.446 230.938, 69.398 240.688, 69.612 240.917 C 69.825 241.146, 70 231.583, 70 219.667 L 70 198 58.995 198 L 47.991 198 58.607 219.250 M 127.385 199.617 C 119.428 202.439, 112.611 210.342, 110.450 219.250 L 109.783 222 137.500 222 L 165.217 222 164.550 219.250 C 162.335 210.120, 155.528 202.390, 147.205 199.554 C 141.596 197.643, 132.873 197.671, 127.385 199.617 M 110.525 232.250 C 114.314 245.167, 124.497 253, 137.500 253 C 150.330 253, 160.503 245.167, 164.448 232.250 L 165.135 230 137.500 230 L 109.865 230 110.525 232.250 " stroke="none" fill="black" fill-rule="evenodd"/>
</svg>