<svg xmlns="http://www.w3.org/2000/svg" width="244" height="324" viewBox="0 0 244 324" version="1.1">
	<path d="M 7.571 127.571 C 6.207 128.936, 6 133.463, 6 162 C 6 190.537, 6.207 195.064, 7.571 196.429 C 8.844 197.701, 11.697 198, 22.575 198 L 36.006 198 21.020 227.961 C 12.777 244.439, 6.285 258.580, 6.594 259.384 C 7.265 261.133, 9.512 262.125, 11.274 261.448 C 11.975 261.180, 19.056 247.919, 27.010 231.980 C 34.964 216.041, 41.714 203, 42.009 203 C 42.304 203, 49.101 216.162, 57.113 232.250 C 65.625 249.342, 72.319 261.625, 73.219 261.800 C 74.065 261.965, 75.487 261.370, 76.379 260.479 C 77.840 259.017, 78 252.475, 78 194 C 78 136.372, 77.825 128.968, 76.429 127.571 C 74.455 125.598, 73.545 125.598, 71.571 127.571 C 70.212 128.931, 70 133.242, 70 159.571 L 70 190 42 190 L 14 190 14 159.571 C 14 133.242, 13.788 128.931, 12.429 127.571 C 11.564 126.707, 10.471 126, 10 126 C 9.529 126, 8.436 126.707, 7.571 127.571 M 167.750 127.080 C 166.143 128.016, 166 130.628, 166 159.050 L 166 190 135.122 190 C 108.954 190, 104.056 190.228, 103.005 191.494 C 100.404 194.628, 104.204 213.523, 109.569 224.127 C 117.620 240.044, 135.143 253.982, 153 258.674 C 161.588 260.931, 177.328 260.878, 186 258.562 C 207.426 252.843, 225.704 235.706, 233.002 214.495 C 235.762 206.472, 237.445 193.241, 235.936 191.423 C 234.962 190.250, 229.426 190, 204.378 190 L 174 190 174 160.223 C 174 134.890, 173.768 130.113, 172.443 128.223 C 170.702 125.736, 170.248 125.625, 167.750 127.080 M 58.607 219.250 C 64.446 230.938, 69.398 240.688, 69.612 240.917 C 69.825 241.146, 70 231.583, 70 219.667 L 70 198 58.995 198 L 47.991 198 58.607 219.250 M 110 200.290 C 110 204.593, 112.971 213.992, 116.625 221.249 C 123.728 235.356, 139.581 247.804, 155.103 251.463 C 163.323 253.400, 175.948 253.413, 183.540 251.491 C 191.739 249.416, 202.643 243.780, 208.686 238.494 C 218.310 230.075, 226.412 215.250, 228.495 202.250 L 229.176 198 169.588 198 L 110 198 110 200.290 " stroke="none" fill="black" fill-rule="evenodd"/>
</svg>