<svg xmlns="http://www.w3.org/2000/svg" width="244" height="324" viewBox="0 0 244 324" version="1.1">
	<path d="M 231.750 127.080 C 230.114 128.033, 230 132.045, 230 188.793 L 230 249.487 200.244 219.744 C 183.878 203.385, 170.185 190, 169.815 190 C 168.716 190, 166 193.051, 166 194.287 C 166 195.713, 232.079 262.006, 233.480 261.985 C 237.054 261.931, 237.056 261.895, 237.014 194.510 C 236.970 123.497, 237.011 124.016, 231.750 127.080 M 20.648 190.983 C 13.384 193.272, 7.912 199.505, 6.503 207.096 C 5.855 210.586, 7.585 214, 10 214 C 11.861 214, 14 210.700, 14 207.829 C 14 205.718, 15.030 203.770, 17.400 201.400 C 20.302 198.498, 21.488 198, 25.500 198 C 29.512 198, 30.698 198.498, 33.600 201.400 C 39.296 207.096, 38.903 208.183, 21.941 233.589 C 13.658 245.994, 6.657 256.729, 6.383 257.443 C 6.109 258.158, 6.618 259.475, 7.514 260.371 C 9.895 262.753, 42.054 262.803, 44.429 260.429 C 46.402 258.455, 46.402 257.545, 44.429 255.571 C 43.162 254.305, 40.348 254, 29.926 254 L 16.995 254 31.499 232.239 L 46.002 210.477 44.025 205.068 C 40.046 194.184, 29.898 188.069, 20.648 190.983 M 97.972 191.329 C 87.078 193.734, 78.955 200.287, 73.740 210.877 C 70.989 216.464, 70.600 218.277, 70.600 225.500 C 70.600 232.734, 70.988 234.533, 73.762 240.168 C 82.648 258.218, 102.098 265.243, 120.567 257.073 C 126.260 254.555, 133.925 246.845, 137.043 240.500 C 139.155 236.201, 139.500 234.097, 139.500 225.500 C 139.500 216.914, 139.153 214.793, 137.049 210.500 C 129.942 195.998, 113.458 187.911, 97.972 191.329 M 95.741 199.429 C 88 202.191, 88.035 202.488, 97.170 211.671 L 105.457 220.001 113.692 211.809 C 122.838 202.711, 122.906 202.178, 115.260 199.573 C 109.673 197.669, 100.855 197.604, 95.741 199.429 M 82.192 210.269 C 77.752 215.619, 76.575 229.264, 79.918 236.627 C 80.948 238.896, 82.209 241.011, 82.718 241.326 C 83.228 241.641, 87.325 238.199, 91.823 233.678 L 100.001 225.457 91.671 217.170 C 84.884 210.419, 83.128 209.140, 82.192 210.269 M 118.807 217.389 L 111.114 225.657 119.516 234.016 L 127.918 242.375 130.449 236.937 C 133.867 229.595, 133.898 221.472, 130.536 214.250 C 129.192 211.363, 127.734 209.027, 127.296 209.061 C 126.858 209.094, 123.038 212.842, 118.807 217.389 M 97.104 239.395 L 88.752 247.791 91.253 249.430 C 97.098 253.260, 107.372 254.115, 115.260 251.427 C 122.906 248.822, 122.838 248.289, 113.692 239.191 L 105.457 230.999 97.104 239.395 " stroke="none" fill="black" fill-rule="evenodd"/>
</svg>