<svg xmlns="http://www.w3.org/2000/svg" width="308" height="324" viewBox="0 0 308 324" version="1.1">
	<path d="M 223.500 127.069 C 195.648 131.334, 173.296 152.594, 167.583 180.254 C 165.581 189.943, 165.581 197.057, 167.583 206.746 C 171.400 225.228, 182.936 241.526, 198.923 251.023 C 221.613 264.503, 248.324 263.704, 270.484 248.882 C 288.338 236.941, 298.723 218.345, 299.766 196.451 C 301.043 169.632, 286.699 145.392, 262.500 133.477 C 250.501 127.569, 235.903 125.170, 223.500 127.069 M 218 135.579 C 201.434 139.938, 186.993 151.930, 179.560 167.500 C 175.206 176.622, 173.588 183.665, 173.588 193.500 C 173.588 208.496, 178.956 222.510, 188.771 233.132 C 197.008 242.047, 206.275 248.488, 202.608 242.750 C 200.456 239.382, 198 230.188, 198 225.500 C 198 215.657, 204.389 202.765, 211.804 197.645 C 219.056 192.638, 224.875 190.734, 232.945 190.727 C 258.733 190.703, 275.452 216.859, 264.683 240.381 L 262.077 246.074 268.186 241.789 C 279.536 233.827, 288.412 219.993, 291.489 205.471 C 294.356 191.935, 292.644 179.791, 285.956 166.222 C 278.553 151.204, 264.195 139.724, 247.540 135.509 C 240.108 133.627, 225.282 133.663, 218 135.579 M 19.637 191.442 C 12.869 193.895, 7.865 199.873, 6.503 207.131 C 5.855 210.586, 7.593 214, 10 214 C 11.861 214, 14 210.700, 14 207.829 C 14 205.718, 15.030 203.770, 17.400 201.400 C 20.302 198.498, 21.488 198, 25.500 198 C 29.512 198, 30.698 198.498, 33.600 201.400 C 39.296 207.096, 38.903 208.183, 21.941 233.589 C 13.658 245.994, 6.657 256.729, 6.383 257.443 C 6.109 258.158, 6.628 259.486, 7.537 260.394 C 8.967 261.824, 11.481 262.010, 26.237 261.773 C 41.203 261.533, 43.419 261.286, 44.387 259.750 C 45.190 258.475, 45.191 257.525, 44.388 256.250 C 43.445 254.753, 41.383 254.460, 30.151 254.221 L 17.015 253.942 31.008 232.988 C 38.703 221.464, 44.997 211.239, 44.994 210.267 C 44.974 203.929, 39.764 195.464, 34.102 192.567 C 29.826 190.380, 23.849 189.915, 19.637 191.442 M 97.972 191.321 C 87.065 193.745, 78.952 200.292, 73.740 210.877 C 70.989 216.464, 70.600 218.277, 70.600 225.500 C 70.600 232.734, 70.988 234.533, 73.762 240.168 C 75.501 243.700, 78.523 248.190, 80.479 250.145 C 90.920 260.587, 107.314 263.383, 120.541 256.980 C 139.600 247.754, 145.984 222.918, 133.835 205.260 C 126.220 194.192, 111.246 188.372, 97.972 191.321 M 94.373 199.918 C 92.104 200.948, 89.908 202.340, 89.494 203.009 C 89.015 203.785, 91.689 207.174, 96.864 212.349 L 104.985 220.470 113.456 212.044 C 122.853 202.695, 122.927 202.185, 115.260 199.573 C 108.963 197.427, 99.514 197.583, 94.373 199.918 M 221.053 200.555 L 215.605 203.091 224.303 211.788 L 233 220.486 241.697 211.788 L 250.395 203.091 244.947 200.555 C 240.875 198.660, 237.859 198.020, 233 198.020 C 228.141 198.020, 225.125 198.660, 221.053 200.555 M 82.192 210.269 C 77.752 215.619, 76.575 229.264, 79.918 236.627 C 80.948 238.896, 82.209 241.011, 82.718 241.326 C 83.228 241.641, 87.325 238.199, 91.823 233.678 L 100.001 225.457 91.671 217.170 C 84.884 210.419, 83.128 209.140, 82.192 210.269 M 118.727 216.772 C 114.477 221.047, 111 224.995, 111 225.546 C 111 226.667, 126.144 242, 127.252 242 C 127.641 242, 128.973 240.088, 130.212 237.750 C 132.008 234.363, 132.465 231.875, 132.465 225.500 C 132.465 219.125, 132.008 216.637, 130.212 213.250 C 128.973 210.912, 127.620 209, 127.206 209 C 126.792 209, 122.976 212.497, 118.727 216.772 M 207.933 213.750 C 204.749 220.361, 204.749 230.639, 207.933 237.250 C 209.191 239.863, 210.518 242, 210.882 242 C 211.246 242, 215.247 238.278, 219.773 233.729 L 228.001 225.457 219.730 217.229 C 215.180 212.703, 211.180 209, 210.839 209 C 210.499 209, 209.191 211.137, 207.933 213.750 M 246.227 217.271 L 237.999 225.543 246.555 234.021 C 254.793 242.185, 255.166 242.426, 256.599 240.500 C 259.217 236.983, 261.281 228.020, 260.667 222.834 C 260.059 217.705, 256.672 209, 255.284 209 C 254.829 209, 250.753 212.722, 246.227 217.271 M 96.477 239.059 L 88.500 247.118 90.830 249.034 C 95.737 253.069, 107.248 254.235, 115.038 251.487 C 122.998 248.678, 122.983 248.530, 113.830 239.329 C 109.273 234.748, 105.299 231, 104.999 231 C 104.699 231, 100.864 234.627, 96.477 239.059 M 224.041 239.459 L 215.625 247.918 221.063 250.449 C 225.125 252.340, 228.144 252.980, 233 252.980 C 237.856 252.980, 240.875 252.340, 244.937 250.449 L 250.375 247.918 241.959 239.459 C 237.331 234.807, 233.299 231, 233 231 C 232.701 231, 228.669 234.807, 224.041 239.459 " stroke="none" fill="black" fill-rule="evenodd"/>
</svg>