<svg xmlns="http://www.w3.org/2000/svg" width="308" height="324" viewBox="0 0 308 324" version="1.1">
	<path d="M 263.724 127.134 C 262.120 128.032, 262 132.496, 262 191.050 L 262 254 247.934 254 C 240.151 254, 233.005 254.462, 231.934 255.035 C 229.446 256.367, 229.446 259.633, 231.934 260.965 C 234.564 262.372, 296.436 262.372, 299.066 260.965 C 300.130 260.395, 301 259.061, 301 258 C 301 254.738, 297.692 254, 283.066 254 L 269 254 269 191.035 C 269 131.743, 268.896 128.015, 267.224 127.120 C 266.098 126.517, 264.818 126.522, 263.724 127.134 M 20.648 190.983 C 13.384 193.272, 7.912 199.505, 6.503 207.096 C 5.855 210.586, 7.585 214, 10 214 C 11.861 214, 14 210.700, 14 207.829 C 14 205.718, 15.030 203.770, 17.400 201.400 C 20.302 198.498, 21.488 198, 25.500 198 C 29.512 198, 30.698 198.498, 33.600 201.400 C 39.296 207.096, 38.903 208.183, 21.941 233.589 C 13.658 245.994, 6.657 256.729, 6.383 257.443 C 6.109 258.158, 6.618 259.475, 7.514 260.371 C 8.890 261.747, 11.750 262, 25.916 262 C 41.420 262, 42.827 261.849, 44.500 260 C 46.247 258.070, 46.247 257.930, 44.500 256 C 42.869 254.198, 41.420 254, 29.843 254 L 16.995 254 31.499 232.239 L 46.002 210.477 44.025 205.068 C 40.046 194.184, 29.898 188.069, 20.648 190.983 M 97.972 191.329 C 86.946 193.763, 79.035 200.122, 73.799 210.757 C 70.896 216.654, 70.500 218.423, 70.500 225.500 C 70.500 232.533, 70.903 234.361, 73.712 240.066 C 79.193 251.200, 87.792 257.807, 99.562 259.927 C 110.619 261.920, 121.719 258.387, 129.766 250.313 C 137.455 242.600, 139.477 237.432, 139.477 225.500 C 139.477 213.374, 137.431 208.293, 129.342 200.339 C 121.105 192.239, 109.261 188.838, 97.972 191.329 M 180.994 190.912 C 172.530 193.561, 167.485 199.181, 166.388 207.183 C 165.831 211.252, 166.015 211.937, 167.942 212.969 C 170.832 214.516, 172.582 213.044, 173.468 208.318 C 174.339 203.673, 176.381 200.603, 179.561 199.154 C 183.483 197.367, 189.408 197.747, 192.230 199.966 C 195.154 202.266, 197.439 207.215, 196.765 209.789 C 196.506 210.781, 189.478 221.802, 181.147 234.280 C 172.816 246.758, 166 257.595, 166 258.361 C 166 261.608, 168.598 262.051, 186.024 261.774 C 201.193 261.533, 203.418 261.288, 204.387 259.750 C 205.190 258.476, 205.190 257.524, 204.389 256.250 C 203.460 254.774, 201.231 254.422, 190.143 254 L 176.998 253.500 191.036 232.500 C 204.008 213.093, 205.026 211.237, 204.451 208.035 C 203.272 201.471, 198.966 195.079, 194 192.523 C 190.595 190.771, 184.040 189.959, 180.994 190.912 M 95.603 199.477 C 87.528 202.354, 87.594 203.079, 96.764 212.249 L 104.985 220.470 113.503 211.997 C 122.013 203.531, 122.018 203.522, 119.818 201.863 C 114.670 197.980, 103.024 196.832, 95.603 199.477 M 82.192 210.269 C 77.752 215.619, 76.575 229.264, 79.918 236.627 C 80.948 238.896, 82.209 241.011, 82.718 241.326 C 83.228 241.641, 87.325 238.199, 91.823 233.678 L 100.001 225.457 91.671 217.170 C 84.884 210.419, 83.128 209.140, 82.192 210.269 M 118.727 216.772 C 114.477 221.047, 111 224.995, 111 225.546 C 111 226.667, 126.144 242, 127.252 242 C 127.641 242, 128.973 240.088, 130.212 237.750 C 132.008 234.363, 132.465 231.875, 132.465 225.500 C 132.465 219.125, 132.008 216.637, 130.212 213.250 C 128.973 210.912, 127.620 209, 127.206 209 C 126.792 209, 122.976 212.497, 118.727 216.772 M 96.477 239.059 L 88.500 247.118 90.830 249.034 C 97.199 254.272, 111.801 254.342, 119.819 249.174 L 122.137 247.680 113.841 239.340 C 109.278 234.753, 105.299 231, 104.999 231 C 104.699 231, 100.864 234.627, 96.477 239.059 " stroke="none" fill="black" fill-rule="evenodd"/>
</svg>