<svg xmlns="http://www.w3.org/2000/svg" width="308" height="324" viewBox="0 0 308 324" version="1.1">
	<path d="M 231.247 191.253 C 195.361 227.142, 166 257.202, 166 258.053 C 166 261.988, 166.204 262, 233.500 262 C 282.800 262, 298.891 261.709, 299.800 260.800 C 300.709 259.891, 301 243.689, 301 194 C 301 127.689, 300.914 126, 297.547 126 C 296.968 126, 267.133 155.364, 231.247 191.253 M 236 196.500 L 178.507 254 236.253 254 L 294 254 294 196.500 C 294 164.875, 293.886 139, 293.747 139 C 293.607 139, 267.621 164.875, 236 196.500 M 19.637 191.465 C 12.890 193.870, 7.867 199.861, 6.503 207.131 C 5.855 210.586, 7.593 214, 10 214 C 11.861 214, 14 210.700, 14 207.829 C 14 205.718, 15.030 203.770, 17.400 201.400 C 20.302 198.498, 21.488 198, 25.500 198 C 29.512 198, 30.698 198.498, 33.600 201.400 C 39.296 207.096, 38.903 208.183, 21.941 233.589 C 13.658 245.994, 6.657 256.729, 6.383 257.443 C 6.109 258.158, 6.628 259.486, 7.537 260.394 C 8.967 261.824, 11.481 262.010, 26.237 261.773 C 41.203 261.533, 43.419 261.286, 44.387 259.750 C 45.190 258.475, 45.191 257.525, 44.388 256.250 C 43.445 254.753, 41.383 254.460, 30.151 254.221 L 17.015 253.942 31.113 232.831 C 44.681 212.512, 45.187 211.570, 44.577 207.755 C 43.717 202.376, 41.769 198.882, 37.578 195.203 C 34.305 192.329, 28.521 189.960, 25 190.049 C 24.175 190.071, 21.762 190.707, 19.637 191.465 M 97.972 191.329 C 87.041 193.742, 78.956 200.284, 73.690 210.979 C 70.905 216.636, 70.500 218.478, 70.500 225.500 C 70.500 232.533, 70.903 234.361, 73.712 240.066 C 79.193 251.200, 87.792 257.807, 99.562 259.927 C 110.619 261.920, 121.719 258.387, 129.766 250.313 C 137.455 242.600, 139.477 237.432, 139.477 225.500 C 139.477 213.374, 137.431 208.293, 129.342 200.339 C 121.105 192.239, 109.261 188.838, 97.972 191.329 M 95.603 199.477 C 87.528 202.354, 87.594 203.079, 96.764 212.249 L 104.985 220.470 113.503 211.997 C 122.013 203.531, 122.018 203.522, 119.818 201.863 C 114.670 197.980, 103.024 196.832, 95.603 199.477 M 82.192 210.269 C 77.752 215.619, 76.575 229.264, 79.918 236.627 C 80.948 238.896, 82.209 241.011, 82.718 241.326 C 83.228 241.641, 87.325 238.199, 91.823 233.678 L 100.001 225.457 91.671 217.170 C 84.884 210.419, 83.128 209.140, 82.192 210.269 M 118.727 216.772 C 114.477 221.047, 111 224.995, 111 225.546 C 111 226.667, 126.144 242, 127.252 242 C 127.641 242, 128.973 240.088, 130.212 237.750 C 132.008 234.363, 132.465 231.875, 132.465 225.500 C 132.465 219.125, 132.008 216.637, 130.212 213.250 C 128.973 210.912, 127.620 209, 127.206 209 C 126.792 209, 122.976 212.497, 118.727 216.772 M 96.477 239.059 L 88.500 247.118 90.830 249.034 C 97.199 254.272, 111.801 254.342, 119.819 249.174 L 122.137 247.680 113.841 239.340 C 109.278 234.753, 105.299 231, 104.999 231 C 104.699 231, 100.864 234.627, 96.477 239.059 " stroke="none" fill="black" fill-rule="evenodd"/>
</svg>