<svg xmlns="http://www.w3.org/2000/svg" width="372" height="324" viewBox="0 0 372 324" version="1.1">
	<path d="M 232.369 126.765 C 231.416 127.384, 166 257.155, 166 258.426 C 166 258.663, 166.707 259.564, 167.571 260.429 C 168.936 261.793, 173.463 262, 202 262 C 230.537 262, 235.064 261.793, 236.429 260.429 C 237.293 259.564, 238 258.471, 238 258 C 238 257.529, 237.293 256.436, 236.429 255.571 C 235.071 254.214, 230.849 254, 205.430 254 L 176.002 254 204.747 196.500 C 220.557 164.875, 233.722 139, 234.003 139 C 234.284 139, 248.010 166.059, 264.507 199.131 C 281.003 232.204, 295.095 259.879, 295.821 260.631 C 296.887 261.735, 303.506 262, 330 262 C 358.537 262, 363.064 261.793, 364.429 260.429 C 366.402 258.455, 366.402 257.545, 364.429 255.571 C 363.067 254.210, 358.667 254, 331.430 254 L 300.003 254 268.383 190.750 C 239.939 133.854, 235.783 126.031, 234 126.031 C 233.725 126.031, 232.991 126.361, 232.369 126.765 M 20.648 190.983 C 13.384 193.272, 7.912 199.505, 6.503 207.096 C 5.855 210.586, 7.585 214, 10 214 C 11.861 214, 14 210.700, 14 207.829 C 14 205.718, 15.030 203.770, 17.400 201.400 C 20.302 198.498, 21.488 198, 25.500 198 C 29.512 198, 30.698 198.498, 33.600 201.400 C 39.296 207.096, 38.903 208.183, 21.941 233.589 C 13.658 245.994, 6.657 256.729, 6.383 257.443 C 6.109 258.158, 6.618 259.475, 7.514 260.371 C 9.895 262.753, 42.054 262.803, 44.429 260.429 C 46.402 258.455, 46.402 257.545, 44.429 255.571 C 43.162 254.305, 40.348 254, 29.926 254 L 16.995 254 31.499 232.239 L 46.002 210.477 44.025 205.068 C 40.046 194.184, 29.898 188.069, 20.648 190.983 M 97.384 191.412 C 79.406 195.775, 67.546 213.739, 70.987 231.396 C 73.955 246.629, 84.560 257.101, 99.954 259.999 C 109.746 261.842, 122.631 257.900, 129.835 250.857 C 137.712 243.156, 141.893 230.859, 140.099 220.671 C 137.399 205.343, 127.689 194.783, 113.147 191.360 C 106.397 189.772, 104.111 189.779, 97.384 191.412 M 95.605 199.568 C 88.049 202.337, 88.073 202.527, 97.170 211.671 L 105.457 220.001 113.692 211.809 C 122.838 202.711, 122.906 202.178, 115.260 199.573 C 109.620 197.651, 100.842 197.649, 95.605 199.568 M 82.184 210.278 C 78.139 215.152, 76.867 227.319, 79.573 235.260 C 82.178 242.906, 82.711 242.838, 91.809 233.692 L 100.001 225.457 91.671 217.170 C 84.854 210.389, 83.131 209.137, 82.184 210.278 M 119.191 217.308 L 110.999 225.543 119.329 233.830 C 128.530 242.983, 128.678 242.998, 131.487 235.038 C 133.439 229.503, 133.415 221.574, 131.427 215.740 C 128.822 208.094, 128.289 208.162, 119.191 217.308 M 97.170 239.329 C 88.017 248.530, 88.002 248.678, 95.962 251.487 C 101.497 253.439, 109.426 253.415, 115.260 251.427 C 122.906 248.822, 122.838 248.289, 113.692 239.191 L 105.457 230.999 97.170 239.329 " stroke="none" fill="black" fill-rule="evenodd"/>
</svg>