<svg xmlns="http://www.w3.org/2000/svg" width="244" height="324" viewBox="0 0 244 324" version="1.1">
	<path d="M 7.571 127.571 C 6.207 128.936, 6 133.463, 6 162 C 6 190.537, 6.207 195.064, 7.571 196.429 C 8.844 197.701, 11.697 198, 22.575 198 L 36.006 198 21.020 227.961 C 12.777 244.439, 6.285 258.580, 6.594 259.384 C 7.265 261.133, 9.512 262.125, 11.274 261.448 C 11.975 261.180, 19.056 247.919, 27.010 231.980 C 34.964 216.041, 41.717 203, 42.016 203 C 42.315 203, 49.042 216.034, 56.965 231.964 C 69.336 256.836, 72.352 262, 74.510 262 C 74.701 262, 75.564 261.293, 76.429 260.429 C 77.825 259.032, 78 251.628, 78 194 C 78 136.372, 77.825 128.968, 76.429 127.571 C 74.455 125.598, 73.545 125.598, 71.571 127.571 C 70.212 128.931, 70 133.242, 70 159.571 L 70 190 42 190 L 14 190 14 159.571 C 14 133.242, 13.788 128.931, 12.429 127.571 C 11.564 126.707, 10.471 126, 10 126 C 9.529 126, 8.436 126.707, 7.571 127.571 M 200.243 158.250 C 182.999 175.342, 181.658 176.944, 182.581 179.350 C 184.006 183.063, 186.407 182.048, 193.956 174.543 L 201.538 167.006 213.003 178.503 L 224.467 190 164.805 190 C 111.900 190, 104.965 190.178, 103.571 191.571 C 100.158 194.985, 103.242 198, 110.148 198 L 115.154 198 112.156 200.998 C 107.943 205.211, 103.260 215.069, 102.471 221.388 C 100.944 233.611, 107.148 247.262, 117.317 254.053 C 124.345 258.746, 129.458 260.351, 137.500 260.389 C 149.016 260.444, 159.810 254.658, 166.373 244.912 L 169.728 239.930 170.989 242.973 C 173.039 247.922, 179.720 253.974, 186.784 257.280 C 192.387 259.902, 194.526 260.361, 200.942 260.319 C 211.275 260.253, 218.493 257.396, 225.342 250.661 C 233.431 242.707, 235.477 237.626, 235.477 225.500 C 235.477 214.267, 233.916 209.767, 227.365 202.114 L 223.844 198 229.351 198 C 234.753 198, 238.539 196.117, 237.770 193.811 C 237.595 193.285, 230.490 185.922, 221.980 177.448 L 206.509 162.041 213.754 154.747 C 217.740 150.735, 221 146.766, 221 145.926 C 221 144.205, 219.101 142, 217.619 142 C 217.079 142, 209.260 149.313, 200.243 158.250 M 58.607 219.250 C 64.446 230.938, 69.398 240.688, 69.612 240.917 C 69.825 241.146, 70 231.583, 70 219.667 L 70 198 58.995 198 L 47.991 198 58.607 219.250 M 127.603 199.477 C 120.077 202.159, 120.151 202.699, 129.278 211.779 L 137.543 220.001 145.840 211.661 L 154.137 203.320 151.819 201.826 C 145.679 197.868, 135.018 196.834, 127.603 199.477 M 162.173 200.750 C 163.575 202.262, 165.848 205.202, 167.225 207.283 L 169.730 211.067 170.939 208.148 C 171.603 206.543, 173.637 203.603, 175.459 201.615 L 178.770 198 169.198 198 L 159.626 198 162.173 200.750 M 191.603 199.477 C 183.527 202.355, 183.593 203.078, 192.772 212.257 L 201 220.485 209.698 211.788 L 218.395 203.091 212.947 200.555 C 206.680 197.638, 197.994 197.199, 191.603 199.477 M 114.192 210.269 C 109.752 215.619, 108.575 229.264, 111.918 236.627 C 112.948 238.896, 114.209 241.011, 114.718 241.326 C 115.228 241.641, 119.325 238.199, 123.823 233.678 L 132.001 225.457 123.671 217.170 C 116.884 210.419, 115.128 209.140, 114.192 210.269 M 150.598 217.154 L 143.023 225.308 150.338 233.346 C 154.361 237.767, 158.157 241.552, 158.773 241.758 C 159.389 241.963, 160.921 240.189, 162.179 237.815 C 165.427 231.685, 165.444 219.346, 162.212 213.250 C 160.973 210.912, 159.557 209, 159.066 209 C 158.575 209, 154.764 212.669, 150.598 217.154 M 178.192 210.269 C 173.752 215.619, 172.575 229.264, 175.918 236.627 C 176.948 238.896, 178.209 241.011, 178.718 241.326 C 179.228 241.641, 183.325 238.199, 187.823 233.678 L 196.001 225.457 187.671 217.170 C 180.884 210.419, 179.128 209.140, 178.192 210.269 M 214.727 216.772 C 210.477 221.047, 207 224.995, 207 225.546 C 207 226.667, 222.144 242, 223.252 242 C 223.641 242, 224.973 240.088, 226.212 237.750 C 228.008 234.363, 228.465 231.875, 228.465 225.500 C 228.465 219.125, 228.008 216.637, 226.212 213.250 C 224.973 210.912, 223.620 209, 223.206 209 C 222.792 209, 218.976 212.497, 214.727 216.772 M 129.104 239.395 L 120.752 247.791 123.253 249.430 C 130.691 254.304, 145.165 254.155, 151.818 249.137 C 154.019 247.477, 154.016 247.471, 145.739 239.237 L 137.457 230.999 129.104 239.395 M 192.477 239.059 L 184.500 247.118 186.830 249.034 C 192.486 253.685, 204.578 254.341, 212.937 250.449 L 218.375 247.918 209.959 239.459 C 205.331 234.807, 201.299 231, 200.999 231 C 200.699 231, 196.864 234.627, 192.477 239.059 " stroke="none" fill="black" fill-rule="evenodd"/>
</svg>