<svg xmlns="http://www.w3.org/2000/svg" width="244" height="324" viewBox="0 0 244 324" version="1.1">
	<path d="M 7.571 127.571 C 6.207 128.936, 6 133.463, 6 162 C 6 190.537, 6.207 195.064, 7.571 196.429 C 8.844 197.701, 11.697 198, 22.575 198 L 36.006 198 21.020 227.961 C 12.777 244.439, 6.285 258.580, 6.594 259.384 C 7.265 261.133, 9.512 262.125, 11.274 261.448 C 11.975 261.180, 19.056 247.919, 27.010 231.980 C 34.964 216.041, 41.717 203, 42.016 203 C 42.315 203, 49.042 216.034, 56.965 231.964 C 69.336 256.836, 72.352 262, 74.510 262 C 74.701 262, 75.564 261.293, 76.429 260.429 C 77.825 259.032, 78 251.628, 78 194 C 78 136.372, 77.825 128.968, 76.429 127.571 C 74.455 125.598, 73.545 125.598, 71.571 127.571 C 70.212 128.931, 70 133.242, 70 159.571 L 70 190 42 190 L 14 190 14 159.571 C 14 133.242, 13.788 128.931, 12.429 127.571 C 11.564 126.707, 10.471 126, 10 126 C 9.529 126, 8.436 126.707, 7.571 127.571 M 115.921 191.367 C 111.479 192.955, 108.625 194.922, 106.197 198.068 C 104.121 200.758, 102 206.322, 102 209.078 C 102 210.923, 104.501 214, 106 214 C 107.861 214, 110 210.700, 110 207.829 C 110 205.718, 111.030 203.770, 113.400 201.400 C 116.278 198.522, 117.504 198, 121.384 198 C 127.170 198, 131.810 201.729, 132.583 207 C 133.051 210.191, 131.724 212.574, 117.553 234 C 109.004 246.925, 102.007 258.007, 102.005 258.628 C 101.993 261.582, 104.943 262.045, 122.024 261.774 C 137.193 261.533, 139.418 261.288, 140.387 259.750 C 141.190 258.475, 141.191 257.525, 140.388 256.250 C 139.445 254.753, 137.383 254.460, 126.151 254.221 L 113.015 253.942 127.113 232.831 C 140.681 212.512, 141.187 211.570, 140.577 207.755 C 139.717 202.376, 137.769 198.882, 133.578 195.203 C 130.305 192.329, 124.521 189.960, 121 190.049 C 120.175 190.071, 117.890 190.663, 115.921 191.367 M 194.355 190.986 C 188.401 192.241, 180.644 196.423, 176.405 200.661 C 174.392 202.675, 171.347 207.288, 169.639 210.911 C 166.975 216.567, 166.535 218.633, 166.535 225.500 C 166.535 232.367, 166.975 234.433, 169.639 240.089 C 173.568 248.426, 178.576 253.439, 186.841 257.306 C 192.321 259.871, 194.566 260.355, 200.930 260.344 C 211.206 260.327, 218.422 257.465, 225.342 250.661 C 233.423 242.714, 235.474 237.627, 235.488 225.500 C 235.502 213.368, 233.458 208.293, 225.353 200.339 C 217.361 192.497, 204.948 188.752, 194.355 190.986 M 58.607 219.250 C 64.446 230.938, 69.398 240.688, 69.612 240.917 C 69.825 241.146, 70 231.583, 70 219.667 L 70 198 58.995 198 L 47.991 198 58.607 219.250 M 191.603 199.477 C 183.527 202.355, 183.593 203.078, 192.772 212.257 L 201 220.485 209.698 211.788 L 218.395 203.091 212.947 200.555 C 206.680 197.638, 197.994 197.199, 191.603 199.477 M 178.192 210.269 C 173.752 215.619, 172.575 229.264, 175.918 236.627 C 176.948 238.896, 178.209 241.011, 178.718 241.326 C 179.228 241.641, 183.325 238.199, 187.823 233.678 L 196.001 225.457 187.671 217.170 C 180.884 210.419, 179.128 209.140, 178.192 210.269 M 214.727 216.772 C 210.477 221.047, 207 224.995, 207 225.546 C 207 226.667, 222.144 242, 223.252 242 C 223.641 242, 224.973 240.088, 226.212 237.750 C 228.008 234.363, 228.465 231.875, 228.465 225.500 C 228.465 219.125, 228.008 216.637, 226.212 213.250 C 224.973 210.912, 223.620 209, 223.206 209 C 222.792 209, 218.976 212.497, 214.727 216.772 M 192.477 239.059 L 184.500 247.118 186.830 249.034 C 192.486 253.685, 204.578 254.341, 212.937 250.449 L 218.375 247.918 209.959 239.459 C 205.331 234.807, 201.299 231, 200.999 231 C 200.699 231, 196.864 234.627, 192.477 239.059 " stroke="none" fill="black" fill-rule="evenodd"/>
</svg>