<svg xmlns="http://www.w3.org/2000/svg" width="403" height="324" viewBox="0 0 403 324" version="1.1">
	<path d="M 7.571 127.571 C 6.207 128.936, 6 133.463, 6 162 C 6 190.537, 6.207 195.064, 7.571 196.429 C 8.844 197.701, 11.697 198, 22.575 198 L 36.006 198 21.020 227.961 C 12.777 244.439, 6.285 258.580, 6.594 259.384 C 7.265 261.133, 9.512 262.125, 11.274 261.448 C 11.975 261.180, 19.056 247.919, 27.010 231.980 C 34.964 216.041, 41.717 203, 42.016 203 C 42.315 203, 49.042 216.034, 56.965 231.964 C 69.336 256.836, 72.352 262, 74.510 262 C 74.701 262, 75.564 261.293, 76.429 260.429 C 77.825 259.032, 78 251.635, 78 194.084 C 78 132.602, 77.907 129.226, 76.171 127.655 C 73.915 125.613, 73.537 125.606, 71.571 127.571 C 70.212 128.931, 70 133.242, 70 159.571 L 70 190 42 190 L 14 190 14 159.571 C 14 133.242, 13.788 128.931, 12.429 127.571 C 11.564 126.707, 10.471 126, 10 126 C 9.529 126, 8.436 126.707, 7.571 127.571 M 327.247 191.253 C 291.361 227.142, 262 257.202, 262 258.053 C 262 261.988, 262.204 262, 329.500 262 C 378.800 262, 394.891 261.709, 395.800 260.800 C 396.709 259.891, 397 243.689, 397 194 C 397 127.689, 396.914 126, 393.547 126 C 392.968 126, 363.133 155.364, 327.247 191.253 M 332 196.500 L 274.507 254 332.253 254 L 390 254 390 196.500 C 390 164.875, 389.886 139, 389.747 139 C 389.607 139, 363.621 164.875, 332 196.500 M 115.921 191.367 C 113.953 192.071, 111.382 193.319, 110.208 194.142 C 103.079 199.135, 99.580 211.474, 104.733 213.451 C 106.954 214.303, 110 210.740, 110 207.289 C 110 205.792, 111.355 203.445, 113.400 201.400 C 116.264 198.536, 117.512 198, 121.323 198 C 127.042 198, 131.630 201.510, 132.588 206.618 C 133.201 209.886, 132.219 211.654, 117.622 233.554 C 109.030 246.446, 102 257.615, 102 258.374 C 102 261.607, 104.614 262.051, 122.024 261.774 C 137.193 261.533, 139.418 261.288, 140.387 259.750 C 141.190 258.475, 141.191 257.525, 140.388 256.250 C 139.445 254.753, 137.383 254.460, 126.151 254.221 L 113.015 253.942 127.008 232.988 C 134.703 221.464, 141 211.207, 141 210.196 C 141 202.603, 133.728 193.129, 126.321 191.072 C 121.541 189.745, 120.366 189.778, 115.921 191.367 M 194.355 190.998 C 188.420 192.232, 180.654 196.413, 176.405 200.661 C 174.392 202.675, 171.347 207.288, 169.639 210.911 C 166.975 216.567, 166.535 218.633, 166.535 225.500 C 166.535 232.367, 166.975 234.433, 169.639 240.089 C 173.564 248.417, 178.575 253.438, 186.807 257.291 C 202.498 264.633, 221.911 258.750, 230.778 243.965 C 235.184 236.618, 236.304 231.917, 235.774 223 C 235.216 213.630, 231.826 206.443, 224.828 199.799 C 217.174 192.531, 204.536 188.881, 194.355 190.998 M 58.607 219.250 C 64.446 230.938, 69.398 240.688, 69.612 240.917 C 69.825 241.146, 70 231.583, 70 219.667 L 70 198 58.995 198 L 47.991 198 58.607 219.250 M 191.603 199.477 C 183.527 202.355, 183.593 203.078, 192.772 212.257 L 201 220.485 209.698 211.788 L 218.395 203.091 212.947 200.555 C 206.680 197.638, 197.994 197.199, 191.603 199.477 M 175.998 214.226 C 174.491 217.729, 173.750 221.446, 173.750 225.500 C 173.750 231.160, 177.130 242, 178.895 242 C 179.252 242, 183.247 238.278, 187.773 233.729 L 196.001 225.457 187.730 217.229 C 183.180 212.703, 179.186 209, 178.852 209 C 178.519 209, 177.235 211.352, 175.998 214.226 M 214.727 216.772 C 210.477 221.047, 207 224.995, 207 225.546 C 207 226.667, 222.144 242, 223.252 242 C 223.641 242, 224.973 240.088, 226.212 237.750 C 228.008 234.363, 228.465 231.875, 228.465 225.500 C 228.465 219.125, 228.008 216.637, 226.212 213.250 C 224.973 210.912, 223.620 209, 223.206 209 C 222.792 209, 218.976 212.497, 214.727 216.772 M 192.477 239.059 L 184.500 247.118 186.830 249.034 C 192.486 253.685, 204.578 254.341, 212.937 250.449 L 218.375 247.918 209.959 239.459 C 205.331 234.807, 201.299 231, 200.999 231 C 200.699 231, 196.864 234.627, 192.477 239.059 " stroke="none" fill="black" fill-rule="evenodd"/>
</svg>