<svg xmlns="http://www.w3.org/2000/svg" width="403" height="324" viewBox="0 0 403 324" version="1.1">
	<path d="M 7.571 127.571 C 6.207 128.936, 6 133.463, 6 162 C 6 190.537, 6.207 195.064, 7.571 196.429 C 8.844 197.701, 11.697 198, 22.575 198 L 36.006 198 21.020 227.961 C 12.777 244.439, 6.285 258.580, 6.594 259.384 C 7.265 261.133, 9.512 262.125, 11.274 261.448 C 11.975 261.180, 19.056 247.919, 27.010 231.980 C 34.964 216.041, 41.717 203, 42.016 203 C 42.315 203, 49.042 216.034, 56.965 231.964 C 69.336 256.836, 72.352 262, 74.510 262 C 74.701 262, 75.564 261.293, 76.429 260.429 C 77.825 259.033, 78 251.687, 78 194.651 C 78 138.158, 77.813 130.178, 76.443 128.223 C 74.598 125.588, 73.678 125.465, 71.571 127.571 C 70.212 128.931, 70 133.242, 70 159.571 L 70 190 42 190 L 14 190 14 159.571 C 14 133.242, 13.788 128.931, 12.429 127.571 C 11.564 126.707, 10.471 126, 10 126 C 9.529 126, 8.436 126.707, 7.571 127.571 M 319.235 127.099 C 290.101 131.493, 266.674 155.344, 262.760 184.596 C 259.949 205.610, 266.827 225.652, 282.087 240.913 C 293.193 252.018, 305.536 257.991, 321.743 260.103 C 336.951 262.084, 352.622 258.154, 366.484 248.882 C 384.338 236.941, 394.723 218.345, 395.766 196.451 C 397.046 169.571, 382.754 145.419, 358.500 133.477 C 346.422 127.530, 331.956 125.180, 319.235 127.099 M 314 135.520 C 291.358 141.721, 274.359 160.420, 270.342 183.546 C 266.944 203.109, 273.310 222.471, 287.698 236.337 C 292.472 240.938, 297.797 244.979, 299.104 244.993 C 299.436 244.997, 298.549 242.638, 297.133 239.750 C 294.955 235.311, 294.553 233.109, 294.529 225.500 C 294.504 217.649, 294.855 215.777, 297.279 210.840 C 303.350 198.478, 315.328 190.703, 328.396 190.642 C 332.596 190.622, 337.544 191.312, 340.500 192.329 C 359.882 198.999, 369.335 221.483, 360.693 240.359 L 358.097 246.029 362.799 242.815 C 370.736 237.389, 377.777 229.257, 382.055 220.577 C 391.080 202.265, 391.080 184.735, 382.055 166.423 C 375.478 153.078, 362.927 141.986, 348.723 136.966 C 340.518 134.066, 322.108 133.300, 314 135.520 M 115.921 191.367 C 113.953 192.071, 111.382 193.319, 110.208 194.142 C 103.079 199.135, 99.580 211.474, 104.733 213.451 C 106.954 214.303, 110 210.740, 110 207.289 C 110 205.792, 111.355 203.445, 113.400 201.400 C 116.278 198.522, 117.504 198, 121.384 198 C 127.174 198, 131.813 201.731, 132.577 207 C 133.039 210.191, 131.713 212.559, 117.542 233.846 C 108.994 246.686, 102 257.769, 102 258.473 C 102 261.597, 104.738 262.049, 122.024 261.774 C 137.193 261.533, 139.418 261.288, 140.387 259.750 C 141.190 258.475, 141.191 257.525, 140.388 256.250 C 139.445 254.753, 137.383 254.460, 126.151 254.221 L 113.015 253.942 127.008 232.988 C 134.703 221.464, 141 211.207, 141 210.196 C 141 202.603, 133.728 193.129, 126.321 191.072 C 121.541 189.745, 120.366 189.778, 115.921 191.367 M 194.355 190.998 C 188.420 192.232, 180.654 196.413, 176.405 200.661 C 174.392 202.675, 171.347 207.288, 169.639 210.911 C 166.975 216.567, 166.535 218.633, 166.535 225.500 C 166.535 232.367, 166.975 234.433, 169.639 240.089 C 173.254 247.759, 178.158 253.036, 184.783 256.383 C 202.538 265.353, 222.675 259.154, 232.070 241.826 C 235.326 235.820, 235.500 234.994, 235.499 225.500 C 235.499 216.448, 235.227 214.979, 232.639 210 C 225.375 196.029, 209.073 187.938, 194.355 190.998 M 58.607 219.250 C 64.446 230.938, 69.398 240.688, 69.612 240.917 C 69.825 241.146, 70 231.583, 70 219.667 L 70 198 58.995 198 L 47.991 198 58.607 219.250 M 191.603 199.477 C 183.527 202.355, 183.593 203.078, 192.772 212.257 L 201 220.485 209.698 211.788 L 218.395 203.091 212.947 200.555 C 206.680 197.638, 197.994 197.199, 191.603 199.477 M 317.053 200.555 L 311.605 203.091 320.303 211.788 L 329 220.486 337.697 211.788 L 346.395 203.091 340.947 200.555 C 336.875 198.660, 333.859 198.020, 329 198.020 C 324.141 198.020, 321.125 198.660, 317.053 200.555 M 175.998 214.226 C 174.491 217.729, 173.750 221.446, 173.750 225.500 C 173.750 231.160, 177.130 242, 178.895 242 C 179.252 242, 183.247 238.278, 187.773 233.729 L 196.001 225.457 187.730 217.229 C 183.180 212.703, 179.186 209, 178.852 209 C 178.519 209, 177.235 211.352, 175.998 214.226 M 214.727 216.772 C 210.477 221.047, 207 224.995, 207 225.546 C 207 226.667, 222.144 242, 223.252 242 C 223.641 242, 224.973 240.088, 226.212 237.750 C 228.008 234.363, 228.465 231.875, 228.465 225.500 C 228.465 219.125, 228.008 216.637, 226.212 213.250 C 224.973 210.912, 223.620 209, 223.206 209 C 222.792 209, 218.976 212.497, 214.727 216.772 M 303.933 213.750 C 302.220 217.307, 301.645 220.258, 301.645 225.500 C 301.645 230.742, 302.220 233.693, 303.933 237.250 C 305.191 239.863, 306.518 242, 306.882 242 C 307.246 242, 311.247 238.278, 315.773 233.729 L 324.001 225.457 315.730 217.229 C 311.180 212.703, 307.180 209, 306.839 209 C 306.499 209, 305.191 211.137, 303.933 213.750 M 342.227 217.271 L 333.999 225.543 342.555 234.021 C 350.793 242.185, 351.166 242.426, 352.599 240.500 C 355.217 236.983, 357.281 228.020, 356.667 222.834 C 356.059 217.705, 352.672 209, 351.284 209 C 350.829 209, 346.753 212.722, 342.227 217.271 M 192.477 239.059 L 184.500 247.118 186.830 249.034 C 192.486 253.685, 204.578 254.341, 212.937 250.449 L 218.375 247.918 209.959 239.459 C 205.331 234.807, 201.299 231, 200.999 231 C 200.699 231, 196.864 234.627, 192.477 239.059 M 320.041 239.459 L 311.625 247.918 317.063 250.449 C 321.125 252.340, 324.144 252.980, 329 252.980 C 333.856 252.980, 336.875 252.340, 340.937 250.449 L 346.375 247.918 337.959 239.459 C 333.331 234.807, 329.299 231, 329 231 C 328.701 231, 324.669 234.807, 320.041 239.459 " stroke="none" fill="black" fill-rule="evenodd"/>
</svg>