<svg xmlns="http://www.w3.org/2000/svg" width="468" height="324" viewBox="0 0 468 324" version="1.1">
	<path d="M 7.571 127.571 C 6.207 128.936, 6 133.463, 6 162 C 6 190.537, 6.207 195.064, 7.571 196.429 C 8.844 197.701, 11.697 198, 22.575 198 L 36.006 198 21.020 227.961 C 12.777 244.439, 6.285 258.580, 6.594 259.384 C 7.265 261.133, 9.512 262.125, 11.274 261.448 C 11.975 261.180, 19.056 247.919, 27.010 231.980 C 34.964 216.041, 41.710 203, 42 203 C 42.291 203, 48.822 215.661, 56.514 231.136 C 64.206 246.611, 71.095 259.886, 71.821 260.636 C 73.530 262.400, 74.501 262.356, 76.429 260.429 C 77.825 259.032, 78 251.628, 78 194 C 78 136.372, 77.825 128.968, 76.429 127.571 C 74.455 125.598, 73.545 125.598, 71.571 127.571 C 70.212 128.931, 70 133.242, 70 159.571 L 70 190 42 190 L 14 190 14 159.571 C 14 133.242, 13.788 128.931, 12.429 127.571 C 11.564 126.707, 10.471 126, 10 126 C 9.529 126, 8.436 126.707, 7.571 127.571 M 199.282 159.282 C 189.777 168.787, 182 177.079, 182 177.710 C 182 179.139, 184.786 182, 186.178 182 C 186.747 182, 190.557 178.757, 194.645 174.794 L 202.077 167.588 213.283 178.794 L 224.489 190 164.816 190 C 111.901 190, 104.965 190.178, 103.571 191.571 C 100.148 194.995, 103.242 198, 110.190 198 L 115.237 198 112.059 201.250 C 110.311 203.037, 107.467 207.370, 105.740 210.877 C 102.989 216.464, 102.600 218.277, 102.600 225.500 C 102.600 232.734, 102.988 234.533, 105.762 240.168 C 111.173 251.159, 119.676 257.689, 131.604 260.013 C 145.181 262.659, 161.201 255.327, 167.533 243.568 L 169.360 240.176 172.064 244.440 C 179.573 256.280, 193.976 262.628, 207.396 260.013 C 222.531 257.064, 233.064 246.531, 236.013 231.396 C 238.022 221.088, 234.249 208.726, 226.756 201.062 L 223.763 198 229.310 198 C 234.753 198, 238 196.412, 238 193.751 C 238 193.143, 231.165 185.759, 222.812 177.343 L 207.623 162.040 214.812 154.626 C 218.765 150.549, 222 146.747, 222 146.178 C 222 144.786, 219.139 142, 217.710 142 C 217.079 142, 208.787 149.777, 199.282 159.282 M 359.571 159.571 C 358.707 160.436, 358 161.636, 358 162.239 C 358 162.841, 363.941 169.334, 371.202 176.667 L 384.405 190 324.774 190 C 271.897 190, 264.965 190.178, 263.571 191.571 C 261.598 193.545, 261.598 194.455, 263.571 196.429 C 264.965 197.822, 271.897 198, 324.774 198 L 384.405 198 371.202 211.333 C 363.941 218.666, 358 225.159, 358 225.761 C 358 227.187, 360.825 230, 362.257 230 C 364.006 230, 398 195.761, 398 194 C 398 192.239, 364.006 158, 362.257 158 C 361.644 158, 360.436 158.707, 359.571 159.571 M 423.571 159.571 C 422.227 160.916, 422 164.736, 422 186 C 422 207.264, 422.227 211.084, 423.571 212.429 C 424.436 213.293, 425.529 214, 426 214 C 426.471 214, 427.564 213.293, 428.429 212.429 C 429.773 211.084, 430 207.264, 430 186 C 430 164.736, 429.773 160.916, 428.429 159.571 C 427.564 158.707, 426.471 158, 426 158 C 425.529 158, 424.436 158.707, 423.571 159.571 M 58.607 219.250 C 64.446 230.938, 69.398 240.688, 69.612 240.917 C 69.825 241.146, 70 231.583, 70 219.667 L 70 198 58.995 198 L 47.991 198 58.607 219.250 M 127.605 199.568 C 120.049 202.337, 120.073 202.527, 129.170 211.671 L 137.457 220.001 145.692 211.809 C 154.838 202.711, 154.906 202.178, 147.260 199.573 C 141.620 197.651, 132.842 197.649, 127.605 199.568 M 161.926 200.145 C 163.192 201.325, 165.446 204.211, 166.934 206.557 L 169.640 210.824 171.443 207.476 C 172.435 205.635, 174.594 202.749, 176.242 201.064 L 179.237 198 169.430 198 L 159.623 198 161.926 200.145 M 191.605 199.568 C 184.049 202.337, 184.073 202.527, 193.170 211.671 L 201.457 220.001 209.692 211.809 C 218.838 202.711, 218.906 202.178, 211.260 199.573 C 205.620 197.651, 196.842 197.649, 191.605 199.568 M 114.184 210.278 C 110.139 215.152, 108.867 227.319, 111.573 235.260 C 114.178 242.906, 114.711 242.838, 123.809 233.692 L 132.001 225.457 123.671 217.170 C 116.854 210.389, 115.131 209.137, 114.184 210.278 M 151.191 217.308 L 142.999 225.543 151.329 233.830 C 160.530 242.983, 160.678 242.998, 163.487 235.038 C 165.439 229.503, 165.415 221.574, 163.427 215.740 C 160.822 208.094, 160.289 208.162, 151.191 217.308 M 178.184 210.278 C 174.139 215.152, 172.867 227.319, 175.573 235.260 C 178.178 242.906, 178.711 242.838, 187.809 233.692 L 196.001 225.457 187.671 217.170 C 180.854 210.389, 179.131 209.137, 178.184 210.278 M 215.191 217.308 L 206.999 225.543 215.329 233.830 C 224.530 242.983, 224.678 242.998, 227.487 235.038 C 229.439 229.503, 229.415 221.574, 227.427 215.740 C 224.822 208.094, 224.289 208.162, 215.191 217.308 M 423.571 222.571 C 422.707 223.436, 422 224.529, 422 225 C 422 226.111, 424.889 229, 426 229 C 427.111 229, 430 226.111, 430 225 C 430 223.889, 427.111 221, 426 221 C 425.529 221, 424.436 221.707, 423.571 222.571 M 129.170 239.329 C 120.017 248.530, 120.002 248.678, 127.962 251.487 C 133.497 253.439, 141.426 253.415, 147.260 251.427 C 154.906 248.822, 154.838 248.289, 145.692 239.191 L 137.457 230.999 129.170 239.329 M 193.170 239.329 C 184.017 248.530, 184.002 248.678, 191.962 251.487 C 197.497 253.439, 205.426 253.415, 211.260 251.427 C 218.906 248.822, 218.838 248.289, 209.692 239.191 L 201.457 230.999 193.170 239.329 " stroke="none" fill="black" fill-rule="evenodd"/>
</svg>