<svg xmlns="http://www.w3.org/2000/svg" width="308" height="324" viewBox="0 0 308 324" version="1.1">
	<path d="M 71.550 62.918 C 67.869 68.875, 54.190 98.331, 54.604 99.410 C 55.269 101.144, 57.524 102.120, 59.295 101.440 C 60.007 101.167, 63.480 95.106, 67.014 87.972 C 70.547 80.837, 73.691 75, 74 75 C 74.309 75, 77.453 80.837, 80.986 87.972 C 84.520 95.106, 88.050 101.189, 88.832 101.489 C 90.716 102.212, 93 100.227, 93 97.866 C 93 95.626, 77.264 63.831, 75.628 62.765 C 74.071 61.751, 72.229 61.820, 71.550 62.918 M 7.571 127.571 C 6.207 128.936, 6 133.463, 6 162 C 6 190.537, 6.207 195.064, 7.571 196.429 C 8.931 197.788, 13.242 198, 39.571 198 L 70 198 70 226 L 70 254 39.571 254 C 13.242 254, 8.931 254.212, 7.571 255.571 C 5.598 257.545, 5.598 258.455, 7.571 260.429 C 8.965 261.822, 15.897 262, 68.774 262 L 128.405 262 115.202 275.333 C 107.941 282.666, 102 289.159, 102 289.761 C 102 291.200, 104.997 294.172, 106.068 293.795 C 107.353 293.342, 142 258.827, 142 258 C 142 257.173, 107.353 222.658, 106.068 222.205 C 104.997 221.828, 102 224.800, 102 226.239 C 102 226.841, 107.941 233.334, 115.202 240.667 L 128.405 254 103.202 254 L 78 254 78 223.571 C 78 197.242, 77.788 192.931, 76.429 191.571 C 75.069 190.212, 70.758 190, 44.429 190 L 14 190 14 159.571 C 14 133.242, 13.788 128.931, 12.429 127.571 C 11.564 126.707, 10.471 126, 10 126 C 9.529 126, 8.436 126.707, 7.571 127.571 M 167.750 127.057 C 165.423 128.443, 165.524 131.675, 167.934 132.965 C 168.998 133.534, 171.604 134, 173.724 134 C 183.319 134, 198.016 139.904, 207.351 147.508 C 216.980 155.352, 224.932 168.471, 227.553 180.835 C 229.500 190.021, 229.422 191, 226.750 191.001 C 222.870 191.002, 212.323 196.665, 208.105 201.012 C 205.880 203.303, 202.825 207.726, 201.314 210.839 C 198.941 215.730, 198.567 217.725, 198.567 225.500 C 198.567 233.275, 198.941 235.270, 201.314 240.161 C 205.050 247.860, 210.895 253.588, 218.784 257.280 C 224.405 259.910, 226.505 260.359, 232.942 260.302 C 244.443 260.202, 254.242 255.615, 260.508 247.400 C 275.679 227.510, 266.825 199.321, 243.091 191.948 L 237.500 190.211 237.860 185.856 C 239.121 170.605, 250.275 152.789, 264.416 143.438 C 271.886 138.499, 282.316 134.904, 291 134.275 C 299.022 133.694, 301 132.831, 301 129.913 C 301 126.520, 297.529 125.693, 288.707 126.983 C 265.929 130.313, 247.447 143.345, 237.598 163.018 L 233.034 172.135 230.519 166.447 C 220.797 144.463, 199.550 129.215, 175 126.601 C 171.849 126.266, 168.752 126.461, 167.750 127.057 M 221.053 200.555 L 215.605 203.091 224.303 211.788 L 233 220.486 241.697 211.788 L 250.395 203.091 244.947 200.555 C 240.875 198.660, 237.859 198.020, 233 198.020 C 228.141 198.020, 225.125 198.660, 221.053 200.555 M 207.960 214.250 C 206.415 217.797, 205.673 221.446, 205.673 225.500 C 205.673 231.117, 209.117 242, 210.895 242 C 211.252 242, 215.247 238.278, 219.773 233.729 L 228.001 225.457 219.730 217.229 C 215.180 212.703, 211.186 209, 210.852 209 C 210.519 209, 209.217 211.363, 207.960 214.250 M 246.227 217.271 L 237.999 225.543 246.555 234.021 C 254.793 242.185, 255.166 242.426, 256.599 240.500 C 259.217 236.983, 261.281 228.020, 260.667 222.834 C 260.059 217.705, 256.672 209, 255.284 209 C 254.829 209, 250.753 212.722, 246.227 217.271 M 224.090 239.409 L 215.724 247.819 220.112 250.067 C 222.988 251.541, 226.959 252.477, 231.639 252.782 C 237.834 253.187, 239.544 252.898, 244.583 250.591 L 250.389 247.933 241.966 239.466 C 237.334 234.810, 233.299 231, 233 231 C 232.701 231, 228.691 234.784, 224.090 239.409 " stroke="none" fill="black" fill-rule="evenodd"/>
</svg>