<svg xmlns="http://www.w3.org/2000/svg" width="403" height="324" viewBox="0 0 403 324" version="1.1">
	<path d="M 71.550 62.918 C 67.869 68.875, 54.190 98.331, 54.604 99.410 C 55.269 101.144, 57.524 102.120, 59.295 101.440 C 60.007 101.167, 63.480 95.106, 67.014 87.972 C 70.547 80.837, 73.691 75, 74 75 C 74.309 75, 77.453 80.837, 80.986 87.972 C 84.520 95.106, 87.993 101.167, 88.705 101.440 C 90.487 102.124, 92.732 101.141, 93.407 99.381 C 93.997 97.844, 77.582 64.037, 75.628 62.765 C 74.071 61.751, 72.229 61.820, 71.550 62.918 M 7.571 127.571 C 6.207 128.936, 6 133.463, 6 162 C 6 190.537, 6.207 195.064, 7.571 196.429 C 8.931 197.788, 13.242 198, 39.571 198 L 70 198 70 226 L 70 254 39.571 254 C 13.242 254, 8.931 254.212, 7.571 255.571 C 5.598 257.545, 5.598 258.455, 7.571 260.429 C 8.965 261.822, 15.897 262, 68.774 262 L 128.405 262 115.202 275.333 C 107.941 282.666, 102 289.159, 102 289.761 C 102 291.202, 104.832 294, 106.290 294 C 107.969 294, 142 259.693, 142 258 C 142 256.307, 107.969 222, 106.290 222 C 104.832 222, 102 224.798, 102 226.239 C 102 226.841, 107.941 233.334, 115.202 240.667 L 128.405 254 103.202 254 L 78 254 78 223.571 C 78 197.242, 77.788 192.931, 76.429 191.571 C 75.069 190.212, 70.758 190, 44.429 190 L 14 190 14 159.571 C 14 133.242, 13.788 128.931, 12.429 127.571 C 11.564 126.707, 10.471 126, 10 126 C 9.529 126, 8.436 126.707, 7.571 127.571 M 328.500 158 L 296.512 190 233.190 190 C 191.453 190, 169.209 190.353, 167.934 191.035 C 165.446 192.367, 165.446 195.633, 167.934 196.965 C 168.998 197.534, 175.523 198, 182.434 198 C 189.345 198, 195 198.228, 195 198.507 C 195 198.785, 188.475 212.057, 180.500 228 C 172.525 243.943, 166 257.649, 166 258.458 C 166 260.785, 169.808 262.404, 171.663 260.865 C 172.507 260.164, 179.622 246.749, 187.474 231.052 L 201.750 202.514 216.337 231.674 C 224.360 247.713, 231.395 261.126, 231.971 261.482 C 234.864 263.270, 237.168 259.695, 251.125 231.762 L 265.744 202.502 280.310 231.620 C 288.485 247.962, 295.617 261.023, 296.565 261.386 C 298.478 262.120, 301 260.430, 301 258.413 C 301 257.676, 294.509 243.781, 286.576 227.536 L 272.152 198 285.332 198 L 298.512 198 329.997 166.503 L 361.483 135.005 377.245 150.745 C 390.723 164.203, 393.261 166.325, 394.754 165.385 C 398.733 162.880, 397.426 160.948, 379.861 143.361 C 370.324 133.812, 362.064 126, 361.505 126 C 360.946 126, 346.094 140.400, 328.500 158 M 220.608 223.250 C 227.546 237.137, 233.371 248.661, 233.553 248.859 C 233.878 249.211, 259 199.502, 259 198.508 C 259 198.228, 247.523 198, 233.496 198 L 207.992 198 220.608 223.250 " stroke="none" fill="black" fill-rule="evenodd"/>
</svg>