<svg xmlns="http://www.w3.org/2000/svg" width="403" height="324" viewBox="0 0 403 324" version="1.1">
	<path d="M 7.571 127.571 C 6.207 128.936, 6 133.463, 6 162 C 6 190.537, 6.207 195.064, 7.571 196.429 C 8.844 197.701, 11.697 198, 22.575 198 L 36.006 198 21.020 227.961 C 12.777 244.439, 6.285 258.580, 6.594 259.384 C 7.265 261.133, 9.512 262.125, 11.274 261.448 C 11.975 261.180, 19.056 247.919, 27.010 231.980 C 34.964 216.041, 41.717 203, 42.016 203 C 42.315 203, 49.042 216.034, 56.965 231.964 C 69.336 256.836, 72.352 262, 74.510 262 C 74.701 262, 75.564 261.293, 76.429 260.429 C 77.825 259.033, 78 251.687, 78 194.651 C 78 138.158, 77.813 130.178, 76.443 128.223 C 74.598 125.588, 73.678 125.465, 71.571 127.571 C 70.212 128.931, 70 133.242, 70 159.571 L 70 190 42 190 L 14 190 14 159.571 C 14 133.242, 13.788 128.931, 12.429 127.571 C 11.564 126.707, 10.471 126, 10 126 C 9.529 126, 8.436 126.707, 7.571 127.571 M 103.571 127.571 C 102.707 128.436, 102 129.657, 102 130.285 C 102 130.913, 116.057 145.510, 133.238 162.723 L 164.476 194.019 137.238 221.257 L 110 248.495 110 221.470 C 110 198.629, 109.759 194.101, 108.443 192.223 C 106.598 189.588, 105.678 189.465, 103.571 191.571 C 102.206 192.937, 102 197.497, 102 226.371 C 102 259.849, 102.215 262, 105.567 262 C 106.208 262, 120.843 247.814, 138.087 230.476 L 169.441 198.952 201.086 230.586 C 227.926 257.416, 233.056 262.117, 234.866 261.543 C 236.990 260.868, 237 260.706, 237 226.555 C 237 189.573, 236.839 188.410, 232.064 190.966 C 230.052 192.042, 230 192.797, 230 220.783 L 230 249.495 202.254 221.750 L 174.508 194.004 205.754 162.746 C 222.939 145.554, 237 130.793, 237 129.944 C 237 128.191, 235.103 126, 233.586 126 C 233.029 126, 218.366 140.181, 201.002 157.514 L 169.431 189.028 138.093 157.514 C 120.857 140.181, 106.392 126, 105.949 126 C 105.506 126, 104.436 126.707, 103.571 127.571 M 319.235 127.099 C 290.101 131.493, 266.674 155.344, 262.760 184.596 C 259.949 205.610, 266.827 225.652, 282.087 240.913 C 317.057 275.882, 376.016 262.086, 392.321 215.118 C 399.724 193.792, 395.602 169.739, 381.456 151.715 C 367.304 133.684, 341.985 123.667, 319.235 127.099 M 314 135.520 C 291.045 141.806, 274.118 160.659, 270.266 184.230 C 268.865 192.800, 268.868 194.580, 270.290 203.016 C 274.326 226.952, 291.592 245.721, 314.988 251.606 C 323.829 253.829, 340.071 253.068, 348.723 250.024 C 362.903 245.035, 375.475 233.929, 382.055 220.577 C 391.080 202.265, 391.080 184.735, 382.055 166.423 C 375.478 153.078, 362.927 141.986, 348.723 136.966 C 340.518 134.066, 322.108 133.300, 314 135.520 M 343.750 159.080 C 342.788 159.641, 342 160.859, 342 161.788 C 342 162.717, 348.857 170.344, 357.238 178.738 L 372.476 194 357.238 209.262 C 348.857 217.656, 342 225.290, 342 226.227 C 342 227.163, 342.944 228.435, 344.097 229.052 C 346 230.070, 347.809 228.570, 363.597 212.875 C 373.169 203.360, 381 194.866, 381 194 C 381 192.656, 347.162 157.945, 345.935 158.030 C 345.696 158.047, 344.712 158.519, 343.750 159.080 M 58.607 219.250 C 64.446 230.938, 69.398 240.688, 69.612 240.917 C 69.825 241.146, 70 231.583, 70 219.667 L 70 198 58.995 198 L 47.991 198 58.607 219.250 " stroke="none" fill="black" fill-rule="evenodd"/>
</svg>