<svg xmlns="http://www.w3.org/2000/svg" width="372" height="324" viewBox="0 0 372 324" version="1.1">
	<path d="M 7.571 127.571 C 6.207 128.936, 6 133.463, 6 162 C 6 190.537, 6.207 195.064, 7.571 196.429 C 8.844 197.701, 11.697 198, 22.575 198 L 36.006 198 21.020 227.961 C 12.777 244.439, 6.285 258.580, 6.594 259.384 C 7.265 261.133, 9.512 262.125, 11.274 261.448 C 11.975 261.180, 19.056 247.919, 27.010 231.980 C 34.964 216.041, 41.717 203, 42.016 203 C 42.315 203, 49.042 216.034, 56.965 231.964 C 69.336 256.836, 72.352 262, 74.510 262 C 74.701 262, 75.564 261.293, 76.429 260.429 C 77.825 259.032, 78 251.628, 78 194 C 78 136.372, 77.825 128.968, 76.429 127.571 C 74.455 125.598, 73.545 125.598, 71.571 127.571 C 70.212 128.931, 70 133.242, 70 159.571 L 70 190 42 190 L 14 190 14 159.571 C 14 133.242, 13.788 128.931, 12.429 127.571 C 11.564 126.707, 10.471 126, 10 126 C 9.529 126, 8.436 126.707, 7.571 127.571 M 231.571 127.571 C 230.219 128.924, 230 132.988, 230 156.774 L 230 184.405 216.667 171.202 C 209.334 163.941, 202.841 158, 202.239 158 C 200.822 158, 198 160.822, 198 162.239 C 198 162.841, 203.941 169.334, 211.202 176.667 L 224.405 190 164.774 190 C 111.897 190, 104.965 190.178, 103.571 191.571 C 101.598 193.545, 101.598 194.455, 103.571 196.429 C 104.965 197.822, 111.897 198, 164.774 198 L 224.405 198 211.202 211.333 C 203.941 218.666, 198 225.159, 198 225.761 C 198 227.178, 200.822 230, 202.239 230 C 202.841 230, 209.334 224.059, 216.667 216.798 L 230 203.595 230 231.226 C 230 255.012, 230.219 259.076, 231.571 260.429 C 232.436 261.293, 233.529 262, 234 262 C 234.471 262, 235.564 261.293, 236.429 260.429 C 237.788 259.069, 238 254.758, 238 228.429 L 238 198 295.202 198 L 352.405 198 339.202 211.333 C 331.941 218.666, 326 225.159, 326 225.761 C 326 227.187, 328.825 230, 330.257 230 C 332.006 230, 366 195.761, 366 194 C 366 192.239, 332.006 158, 330.257 158 C 328.825 158, 326 160.813, 326 162.239 C 326 162.841, 331.941 169.334, 339.202 176.667 L 352.405 190 295.202 190 L 238 190 238 159.571 C 238 133.242, 237.788 128.931, 236.429 127.571 C 235.564 126.707, 234.471 126, 234 126 C 233.529 126, 232.436 126.707, 231.571 127.571 M 58.607 219.250 C 64.446 230.938, 69.398 240.688, 69.612 240.917 C 69.825 241.146, 70 231.583, 70 219.667 L 70 198 58.995 198 L 47.991 198 58.607 219.250 " stroke="none" fill="black" fill-rule="evenodd"/>
</svg>