<svg xmlns="http://www.w3.org/2000/svg" width="692" height="324" viewBox="0 0 692 324" version="1.1">
	<path d="M 7.571 127.571 C 6.207 128.936, 6 133.463, 6 162 C 6 190.537, 6.207 195.064, 7.571 196.429 C 8.844 197.701, 11.697 198, 22.575 198 L 36.006 198 21.020 227.961 C 12.777 244.439, 6.285 258.580, 6.594 259.384 C 7.265 261.133, 9.512 262.125, 11.274 261.448 C 11.975 261.180, 19.056 247.919, 27.010 231.980 C 34.964 216.041, 41.717 203, 42.016 203 C 42.315 203, 49.042 216.034, 56.965 231.964 C 69.336 256.836, 72.352 262, 74.510 262 C 74.701 262, 75.564 261.293, 76.429 260.429 C 77.825 259.032, 78 251.628, 78 194 C 78 136.372, 77.825 128.968, 76.429 127.571 C 74.455 125.598, 73.545 125.598, 71.571 127.571 C 70.212 128.931, 70 133.242, 70 159.571 L 70 190 42 190 L 14 190 14 159.571 C 14 133.242, 13.788 128.931, 12.429 127.571 C 11.564 126.707, 10.471 126, 10 126 C 9.529 126, 8.436 126.707, 7.571 127.571 M 167.667 126.750 C 165.535 130.293, 102 258.198, 102 258.947 C 102 261.644, 106.881 262.020, 138.601 261.764 C 168.469 261.523, 171.378 261.349, 172.386 259.750 C 173.191 258.474, 173.191 257.526, 172.386 256.250 C 171.382 254.658, 168.613 254.476, 141.650 254.235 L 112.017 253.970 140.755 196.485 C 156.560 164.868, 169.743 139, 170.050 139 C 170.357 139, 184.313 166.563, 201.063 200.250 L 231.517 261.500 265.400 261.500 C 296.581 261.500, 299.370 261.361, 300.386 259.750 C 301.191 258.474, 301.191 257.526, 300.386 256.250 C 299.379 254.653, 296.518 254.477, 267.636 254.236 L 235.989 253.972 204.376 190.736 C 186.989 155.956, 172.254 127.169, 171.631 126.765 C 170.159 125.809, 168.237 125.802, 167.667 126.750 M 423.750 159.082 C 422.788 159.642, 422 160.858, 422 161.786 C 422 162.714, 427.956 169.442, 435.236 176.737 L 448.472 190 389.170 190 C 350.204 190, 329.205 190.355, 327.934 191.035 C 326.870 191.605, 326 192.939, 326 194 C 326 195.061, 326.870 196.395, 327.934 196.965 C 329.205 197.645, 350.204 198, 389.170 198 L 448.472 198 435.236 211.263 C 427.956 218.558, 422 225.292, 422 226.228 C 422 227.164, 422.954 228.440, 424.120 229.064 C 426.049 230.097, 427.785 228.687, 443.471 213.349 C 453.859 203.191, 460.762 195.679, 460.851 194.432 C 460.955 192.986, 455.880 187.274, 443.968 175.432 C 434.600 166.120, 426.613 158.402, 426.218 158.282 C 425.823 158.162, 424.712 158.522, 423.750 159.082 M 487.750 159.080 C 486.155 160.009, 486 162.388, 486 186.015 C 486 211.174, 486.060 211.962, 488.064 213.034 C 489.596 213.854, 490.498 213.832, 491.564 212.947 C 492.744 211.968, 493 207.174, 493 186.078 C 493 157.906, 492.671 156.214, 487.750 159.080 M 573.500 191.418 C 558.593 194.318, 544.471 202.161, 535.016 212.791 C 525.554 223.429, 518.066 242.118, 518.017 255.215 C 518.003 259.003, 518.416 260.152, 520.117 261.062 C 523.374 262.806, 524.575 260.650, 525.916 250.650 C 527.337 240.057, 529.756 233.223, 534.871 225.354 C 542.126 214.191, 551.878 206.330, 564.803 201.225 C 570.803 198.856, 572.853 198.576, 584.500 198.540 C 595.626 198.506, 598.484 198.840, 604.326 200.857 C 618.402 205.717, 631.427 216.978, 637.971 229.945 C 640.322 234.601, 644 244.957, 644 246.917 C 644 247.222, 638.209 241.693, 631.131 234.630 C 619.421 222.947, 618.069 221.892, 616.131 222.930 C 614.959 223.557, 614 224.815, 614 225.724 C 614 227.515, 646.603 261.274, 648.889 261.850 C 650.615 262.285, 685 228.110, 685 225.961 C 685 224.214, 683.114 222, 681.627 222 C 681.093 222, 674.233 228.367, 666.384 236.149 C 652.326 250.088, 652.104 250.255, 651.501 247.399 C 646.641 224.362, 634.280 207.403, 615.500 198.007 C 601.759 191.132, 586.932 188.806, 573.500 191.418 M 58.607 219.250 C 64.446 230.938, 69.398 240.688, 69.612 240.917 C 69.825 241.146, 70 231.583, 70 219.667 L 70 198 58.995 198 L 47.991 198 58.607 219.250 M 487.750 222.080 C 485.372 223.465, 485.542 226.685, 488.064 228.034 C 491.753 230.008, 494.819 225.219, 491.800 222.200 C 490.367 220.767, 490.022 220.757, 487.750 222.080 " stroke="none" fill="black" fill-rule="evenodd"/>
</svg>