<svg xmlns="http://www.w3.org/2000/svg" width="244" height="324" viewBox="0 0 244 324" version="1.1">
	<path d="M 151.200 63.200 C 149.512 64.888, 149.512 99.112, 151.200 100.800 C 152.040 101.640, 157.562 102, 169.629 102 C 183.958 102, 187.122 101.736, 188.429 100.429 C 190.757 98.100, 190.757 65.900, 188.429 63.571 C 187.122 62.264, 183.958 62, 169.629 62 C 157.562 62, 152.040 62.360, 151.200 63.200 M 158 82 L 158 94 170 94 L 182 94 182 82 L 182 70 170 70 L 158 70 158 82 M 7.571 127.571 C 6.207 128.936, 6 133.463, 6 162 C 6 190.537, 6.207 195.064, 7.571 196.429 C 8.844 197.701, 11.697 198, 22.575 198 L 36.006 198 21.020 227.961 C 12.777 244.439, 6.285 258.580, 6.594 259.384 C 7.265 261.133, 9.512 262.125, 11.274 261.448 C 11.975 261.180, 19.056 247.919, 27.010 231.980 C 34.964 216.041, 41.714 203, 42.009 203 C 42.304 203, 49.101 216.162, 57.113 232.250 C 65.625 249.342, 72.319 261.625, 73.219 261.800 C 74.065 261.965, 75.487 261.370, 76.379 260.479 C 77.840 259.017, 78 252.475, 78 194 C 78 136.372, 77.825 128.968, 76.429 127.571 C 74.455 125.598, 73.545 125.598, 71.571 127.571 C 70.212 128.931, 70 133.242, 70 159.571 L 70 190 42 190 L 14 190 14 159.571 C 14 133.242, 13.788 128.931, 12.429 127.571 C 11.564 126.707, 10.471 126, 10 126 C 9.529 126, 8.436 126.707, 7.571 127.571 M 103.579 191.564 C 101.598 193.545, 101.596 194.454, 103.571 196.429 C 104.928 197.785, 109.106 198, 134.071 198 C 149.982 198, 163 198.223, 163 198.496 C 163 198.768, 156.365 212.269, 148.257 228.498 C 136.171 252.687, 133.712 258.320, 134.615 259.752 C 135.621 261.347, 138.545 261.524, 168.109 261.779 C 185.924 261.933, 201.463 261.825, 202.640 261.538 C 203.817 261.252, 205.047 260.321, 205.373 259.469 C 205.722 258.561, 199.778 245.548, 190.988 227.976 L 176.008 198.030 205.646 197.765 C 232.613 197.524, 235.382 197.342, 236.386 195.750 C 237.191 194.474, 237.191 193.526, 236.386 192.250 C 235.356 190.617, 230.934 190.483, 170.220 190.243 C 112.058 190.013, 104.990 190.153, 103.579 191.564 M 58.607 219.250 C 64.446 230.938, 69.398 240.688, 69.612 240.917 C 69.825 241.146, 70 231.583, 70 219.667 L 70 198 58.995 198 L 47.991 198 58.607 219.250 M 156.743 228.500 L 144.005 254 169.503 254 C 183.526 254, 195 253.772, 195 253.492 C 195 252.827, 170.070 203, 169.737 203 C 169.597 203, 163.750 214.475, 156.743 228.500 " stroke="none" fill="black" fill-rule="evenodd"/>
</svg>