<svg xmlns="http://www.w3.org/2000/svg" width="340" height="324" viewBox="0 0 340 324" version="1.1">
	<path d="M 151.200 63.200 C 149.512 64.888, 149.512 99.112, 151.200 100.800 C 152.040 101.640, 157.562 102, 169.629 102 C 183.958 102, 187.122 101.736, 188.429 100.429 C 190.757 98.100, 190.757 65.900, 188.429 63.571 C 187.122 62.264, 183.958 62, 169.629 62 C 157.562 62, 152.040 62.360, 151.200 63.200 M 158 82 L 158 94 170 94 L 182 94 182 82 L 182 70 170 70 L 158 70 158 82 M 7.571 127.571 C 6.207 128.936, 6 133.463, 6 162 C 6 190.537, 6.207 195.064, 7.571 196.429 C 8.844 197.701, 11.697 198, 22.575 198 L 36.006 198 21.020 227.961 C 12.777 244.439, 6.285 258.580, 6.594 259.384 C 7.265 261.133, 9.512 262.125, 11.274 261.448 C 11.975 261.180, 19.056 247.919, 27.010 231.980 C 34.964 216.041, 41.714 203, 42.009 203 C 42.304 203, 49.101 216.162, 57.113 232.250 C 65.625 249.342, 72.319 261.625, 73.219 261.800 C 74.065 261.965, 75.487 261.370, 76.379 260.479 C 77.840 259.017, 78 252.475, 78 194 C 78 136.372, 77.825 128.968, 76.429 127.571 C 74.455 125.598, 73.545 125.598, 71.571 127.571 C 70.212 128.931, 70 133.242, 70 159.571 L 70 190 42 190 L 14 190 14 159.571 C 14 133.242, 13.788 128.931, 12.429 127.571 C 11.564 126.707, 10.471 126, 10 126 C 9.529 126, 8.436 126.707, 7.571 127.571 M 199.571 159.571 C 198.707 160.436, 198 161.636, 198 162.239 C 198 162.841, 203.941 169.334, 211.202 176.667 L 224.405 190 164.774 190 C 111.897 190, 104.965 190.178, 103.571 191.571 C 101.598 193.545, 101.598 194.455, 103.571 196.429 C 104.965 197.822, 111.897 198, 164.774 198 L 224.405 198 211.202 211.333 C 203.941 218.666, 198 225.159, 198 225.761 C 198 227.202, 200.832 230, 202.290 230 C 203.969 230, 238 195.693, 238 194 C 238 192.307, 203.969 158, 202.290 158 C 201.659 158, 200.436 158.707, 199.571 159.571 M 263.750 191.073 C 261.423 192.438, 261.524 195.675, 263.934 196.965 C 265.005 197.538, 272.151 198, 279.934 198 L 294 198 294 226 L 294 254 279.934 254 C 265.308 254, 262 254.738, 262 258 C 262 261.750, 264.791 262.037, 298.601 261.764 C 328.469 261.523, 331.378 261.349, 332.386 259.750 C 333.190 258.475, 333.191 257.525, 332.387 256.250 C 331.430 254.730, 329.291 254.464, 316.142 254.224 L 301 253.948 301 226 L 301 198.052 316.142 197.776 C 329.291 197.536, 331.430 197.270, 332.387 195.750 C 333.191 194.475, 333.190 193.525, 332.386 192.250 C 331.377 190.649, 328.483 190.481, 298.391 190.273 C 277.280 190.127, 264.873 190.414, 263.750 191.073 M 58.607 219.250 C 64.446 230.938, 69.398 240.688, 69.612 240.917 C 69.825 241.146, 70 231.583, 70 219.667 L 70 198 58.995 198 L 47.991 198 58.607 219.250 " stroke="none" fill="black" fill-rule="evenodd"/>
</svg>