<svg xmlns="http://www.w3.org/2000/svg" width="244" height="324" viewBox="0 0 244 324" version="1.1">
	<path d="M 55.200 63.200 C 53.512 64.888, 53.512 99.112, 55.200 100.800 C 56.040 101.640, 61.562 102, 73.629 102 C 87.958 102, 91.122 101.736, 92.429 100.429 C 94.757 98.100, 94.757 65.900, 92.429 63.571 C 91.122 62.264, 87.958 62, 73.629 62 C 61.562 62, 56.040 62.360, 55.200 63.200 M 62 82 L 62 94 74 94 L 86 94 86 82 L 86 70 74 70 L 62 70 62 82 M 167.750 127.073 C 165.423 128.438, 165.524 131.675, 167.934 132.965 C 169.005 133.538, 176.151 134, 183.934 134 L 198 134 198 194 L 198 254 183.934 254 C 169.308 254, 166 254.738, 166 258 C 166 261.750, 168.791 262.037, 202.601 261.764 C 232.469 261.523, 235.378 261.349, 236.386 259.750 C 237.190 258.475, 237.191 257.525, 236.387 256.250 C 235.433 254.736, 233.314 254.463, 220.643 254.223 L 206 253.947 206 194 L 206 134.053 220.643 133.777 C 233.314 133.537, 235.433 133.264, 236.387 131.750 C 237.191 130.475, 237.190 129.525, 236.386 128.250 C 235.377 126.649, 232.483 126.481, 202.391 126.273 C 181.280 126.127, 168.873 126.414, 167.750 127.073 M 103.571 159.571 C 102.707 160.436, 102 161.636, 102 162.239 C 102 162.841, 107.941 169.334, 115.202 176.667 L 128.405 190 68.774 190 C 15.897 190, 8.965 190.178, 7.571 191.571 C 5.598 193.545, 5.598 194.455, 7.571 196.429 C 8.965 197.822, 15.897 198, 68.774 198 L 128.405 198 115.202 211.333 C 107.941 218.666, 102 225.159, 102 225.761 C 102 227.202, 104.832 230, 106.290 230 C 107.969 230, 142 195.693, 142 194 C 142 192.307, 107.969 158, 106.290 158 C 105.659 158, 104.436 158.707, 103.571 159.571 " stroke="none" fill="black" fill-rule="evenodd"/>
</svg>