<svg xmlns="http://www.w3.org/2000/svg" width="340" height="324" viewBox="0 0 340 324" version="1.1">
	<path d="M 263.750 127.080 C 262.149 128.012, 262 130.486, 262 156.064 L 262 184.028 258.249 181.546 C 242.098 170.858, 218.906 172.343, 202.336 185.127 C 196.423 189.689, 195.008 192.436, 197.360 194.789 C 199.253 196.682, 201.071 195.904, 208.426 190.055 C 222.101 179.181, 243.857 179.399, 258.485 190.557 L 262 193.237 262 220.827 L 262 248.416 257.750 244.403 C 251.033 238.060, 250.410 237.710, 248.064 238.966 C 244.643 240.797, 245.657 243.107, 253.225 250.726 L 260.450 258 253.225 265.274 C 245.657 272.893, 244.643 275.203, 248.064 277.034 C 250.410 278.290, 251.033 277.940, 257.750 271.597 L 262 267.584 262 279.757 C 262 291.246, 262.123 291.995, 264.183 293.098 C 266.042 294.093, 266.636 293.933, 268.183 292.022 C 269.694 290.157, 270 287.918, 270 278.744 L 270 267.710 275.440 272.855 C 281.246 278.346, 281.931 278.669, 283.800 276.800 C 286.160 274.440, 284.903 271.706, 278.336 264.903 L 271.672 258 278.336 251.097 C 284.903 244.294, 286.160 241.560, 283.800 239.200 C 281.931 237.331, 281.246 237.654, 275.440 243.145 L 270 248.290 270 225.198 L 270 202.105 276.250 205.025 C 285.418 209.309, 295.874 210.621, 305.382 208.682 C 317.812 206.148, 332.487 197.293, 331.805 192.740 C 331.161 188.438, 328.629 188.460, 322.858 192.818 C 313.242 200.078, 308.986 201.500, 296.877 201.500 C 286.464 201.500, 286.100 201.421, 278.377 197.500 L 270.500 193.500 270 161.402 C 269.608 136.239, 269.203 128.947, 268.128 127.652 C 266.545 125.747, 266.132 125.693, 263.750 127.080 M 20.764 222.996 C 12.204 225.573, 6.580 232.910, 6.580 241.500 C 6.580 247.534, 9.981 254.209, 14.462 256.972 C 22.626 262.005, 22.094 261.970, 90.167 261.985 C 152.285 262, 153.952 261.950, 158.667 259.936 C 164.155 257.592, 168.460 253.876, 170.732 249.523 C 172.743 245.671, 172.723 237.299, 170.694 233.375 C 168.458 229.052, 162.736 224.298, 158.277 223.060 C 153.731 221.798, 24.943 221.737, 20.764 222.996 M 17.400 233.400 C 10.450 240.350, 14.088 251.132, 24.028 253.050 C 30.860 254.368, 150.186 254.234, 155.475 252.902 C 162.002 251.259, 164.500 248.057, 164.500 241.337 C 164.500 236.388, 164.173 235.543, 161.234 232.918 L 157.968 230 89.384 230 L 20.800 230 17.400 233.400 " stroke="none" fill="black" fill-rule="evenodd"/>
</svg>