<svg xmlns="http://www.w3.org/2000/svg" width="468" height="324" viewBox="0 0 468 324" version="1.1">
	<path d="M 7.571 127.571 C 6.207 128.936, 6 133.463, 6 162 C 6 190.537, 6.207 195.064, 7.571 196.429 C 8.844 197.701, 11.697 198, 22.575 198 L 36.006 198 21.020 227.961 C 12.777 244.439, 6.285 258.580, 6.594 259.384 C 7.265 261.133, 9.512 262.125, 11.274 261.448 C 11.975 261.180, 19.056 247.919, 27.010 231.980 C 34.964 216.041, 41.710 203, 42 203 C 42.291 203, 48.822 215.661, 56.514 231.136 C 64.206 246.611, 71.095 259.886, 71.821 260.636 C 73.530 262.400, 74.501 262.356, 76.429 260.429 C 77.825 259.032, 78 251.628, 78 194 C 78 136.372, 77.825 128.968, 76.429 127.571 C 74.455 125.598, 73.545 125.598, 71.571 127.571 C 70.212 128.931, 70 133.242, 70 159.571 L 70 190 42 190 L 14 190 14 159.571 C 14 133.242, 13.788 128.931, 12.429 127.571 C 11.564 126.707, 10.471 126, 10 126 C 9.529 126, 8.436 126.707, 7.571 127.571 M 168.369 126.765 C 167.416 127.384, 102 257.155, 102 258.426 C 102 258.663, 102.707 259.564, 103.571 260.429 C 104.930 261.787, 109.197 262, 135.071 262 C 169.186 262, 166.053 260.908, 163.463 271.897 C 157.754 296.113, 132.791 316.902, 109.321 316.985 C 104.807 317.001, 101.506 319.269, 102.442 321.711 C 102.749 322.510, 103 323.352, 103 323.582 C 103 323.812, 105.973 324, 109.606 324 C 133.054 324, 157.635 306.723, 167.258 283.477 C 170.066 276.693, 170.854 273.794, 172.008 266 C 172.455 262.975, 173.112 259.771, 173.468 258.879 C 173.837 257.956, 173.414 256.557, 172.486 255.629 C 171.055 254.197, 167.289 254, 141.430 254 L 112.002 254 140.747 196.500 C 156.557 164.875, 169.722 139, 170.003 139 C 170.284 139, 184.010 166.059, 200.507 199.131 C 217.003 232.204, 231.095 259.879, 231.821 260.631 C 232.882 261.730, 239.056 262, 263.071 262 C 297.186 262, 294.053 260.908, 291.463 271.897 C 285.754 296.113, 260.791 316.902, 237.321 316.985 C 232.807 317.001, 229.506 319.269, 230.442 321.711 C 230.749 322.510, 231 323.352, 231 323.582 C 231 323.812, 233.973 324, 237.606 324 C 261.054 324, 285.635 306.723, 295.258 283.477 C 298.066 276.693, 298.854 273.794, 300.008 266 C 300.455 262.975, 301.112 259.771, 301.468 258.879 C 301.837 257.956, 301.414 256.557, 300.486 255.629 C 299.050 254.193, 295.138 254, 267.430 254 L 236.003 254 204.383 190.750 C 175.939 133.854, 171.783 126.031, 170 126.031 C 169.725 126.031, 168.991 126.361, 168.369 126.765 M 384.500 126.944 C 376.325 128.268, 370.930 129.991, 363 133.814 C 352.444 138.903, 338.927 152.404, 333.778 163 C 327.648 175.615, 324.334 193.191, 327.491 196.348 C 329.547 198.404, 330.439 198.418, 332.429 196.429 C 333.404 195.453, 334.006 193.082, 334.015 190.179 C 334.091 166.127, 354.559 141.323, 379.103 135.537 C 386.646 133.759, 398.760 133.559, 406.201 135.090 C 409.115 135.690, 415.325 138.005, 420 140.235 C 438.952 149.275, 453 170.664, 453 190.478 C 453 193.126, 453.621 195.478, 454.571 196.429 C 456.561 198.418, 457.453 198.404, 459.509 196.348 C 462.666 193.191, 459.352 175.615, 453.222 163 C 448.126 152.513, 434.620 139.025, 424 133.819 C 411.592 127.735, 396.182 125.053, 384.500 126.944 M 359.267 223.267 C 340.970 241.563, 326 257.056, 326 257.695 C 326 258.334, 326.707 259.564, 327.571 260.429 C 328.968 261.825, 336.372 262, 394 262 C 451.628 262, 459.032 261.825, 460.429 260.429 C 461.293 259.564, 462 258.334, 462 257.695 C 462 255.982, 395.721 190, 394 190 C 393.193 190, 377.563 204.970, 359.267 223.267 M 58.607 219.250 C 64.446 230.938, 69.398 240.688, 69.612 240.917 C 69.825 241.146, 70 231.583, 70 219.667 L 70 198 58.995 198 L 47.991 198 58.607 219.250 M 366.500 227 L 339.514 254 394 254 L 448.486 254 421.500 227 C 406.658 212.150, 394.283 200, 394 200 C 393.717 200, 381.342 212.150, 366.500 227 " stroke="none" fill="black" fill-rule="evenodd"/>
</svg>