<svg xmlns="http://www.w3.org/2000/svg" width="532" height="324" viewBox="0 0 532 324" version="1.1">
	<path d="M 7.571 127.571 C 6.207 128.936, 6 133.463, 6 162 C 6 190.537, 6.207 195.064, 7.571 196.429 C 8.844 197.701, 11.697 198, 22.575 198 L 36.006 198 21.020 227.961 C 12.777 244.439, 6.285 258.580, 6.594 259.384 C 7.265 261.133, 9.512 262.125, 11.274 261.448 C 11.975 261.180, 19.056 247.919, 27.010 231.980 C 34.964 216.041, 41.717 203, 42.016 203 C 42.315 203, 49.042 216.034, 56.965 231.964 C 69.336 256.836, 72.352 262, 74.510 262 C 74.701 262, 75.564 261.293, 76.429 260.429 C 77.825 259.032, 78 251.628, 78 194 C 78 136.372, 77.825 128.968, 76.429 127.571 C 74.455 125.598, 73.545 125.598, 71.571 127.571 C 70.212 128.931, 70 133.242, 70 159.571 L 70 190 42 190 L 14 190 14 159.571 C 14 133.242, 13.788 128.931, 12.429 127.571 C 11.564 126.707, 10.471 126, 10 126 C 9.529 126, 8.436 126.707, 7.571 127.571 M 487.750 159.082 C 486.788 159.642, 486 160.858, 486 161.786 C 486 162.714, 491.956 169.442, 499.236 176.737 L 512.472 190 453.170 190 C 414.204 190, 393.205 190.355, 391.934 191.035 C 390.870 191.605, 390 192.939, 390 194 C 390 195.061, 390.870 196.395, 391.934 196.965 C 393.205 197.645, 414.204 198, 453.170 198 L 512.472 198 499.236 211.263 C 491.956 218.558, 486 225.292, 486 226.228 C 486 227.164, 486.952 228.439, 488.115 229.062 C 490.040 230.092, 491.774 228.675, 507.348 213.347 C 524.797 196.174, 525.958 194.961, 525.985 193.886 C 526.002 193.179, 491.261 158.610, 490.202 158.282 C 489.816 158.162, 488.712 158.522, 487.750 159.082 M 116.764 190.952 C 109.186 193.355, 103.955 199.277, 102.503 207.096 C 101.855 210.586, 103.585 214, 106 214 C 107.861 214, 110 210.700, 110 207.829 C 110 205.718, 111.030 203.770, 113.400 201.400 C 116.302 198.498, 117.488 198, 121.500 198 C 125.512 198, 126.698 198.498, 129.600 201.400 C 135.333 207.133, 134.953 208.162, 117.500 234.224 C 108.975 246.954, 102 257.945, 102 258.649 C 102 261.312, 106.179 262, 122.363 262 C 136.024 262, 139.127 261.730, 140.429 260.429 C 142.402 258.455, 142.402 257.545, 140.429 255.571 C 139.162 254.305, 136.348 254, 125.926 254 L 112.995 254 127.499 232.239 L 142.002 210.477 140.025 205.068 C 136.068 194.242, 125.882 188.061, 116.764 190.952 M 358.571 191.571 C 357.699 192.444, 357 194.819, 357 196.911 C 357 203.127, 353.245 215.866, 349.340 222.899 C 344.205 232.148, 334.052 241.887, 324.875 246.369 C 310.133 253.567, 313.060 253.316, 236.713 253.939 C 177.071 254.425, 167.800 254.699, 166.978 256 C 165.681 258.053, 165.756 258.613, 167.571 260.429 C 168.967 261.824, 176.300 262, 233.205 262 C 268.490 262, 298.892 261.590, 300.884 261.088 C 302.873 260.586, 307.425 259.659, 311 259.028 C 314.671 258.380, 321.606 255.900, 326.933 253.329 C 343.002 245.575, 355.775 230.767, 361.429 213.336 C 363.985 205.455, 364.934 194.351, 363.257 191.956 C 361.599 189.589, 360.633 189.510, 358.571 191.571 M 58.607 219.250 C 64.446 230.938, 69.398 240.688, 69.612 240.917 C 69.825 241.146, 70 231.583, 70 219.667 L 70 198 58.995 198 L 47.991 198 58.607 219.250 " stroke="none" fill="black" fill-rule="evenodd"/>
</svg>