<svg xmlns="http://www.w3.org/2000/svg" width="308" height="324" viewBox="0 0 308 324" version="1.1">
	<path d="M 7.571 127.571 C 6.207 128.936, 6 133.463, 6 162 C 6 190.537, 6.207 195.064, 7.571 196.429 C 8.844 197.701, 11.697 198, 22.575 198 L 36.006 198 21.020 227.961 C 12.777 244.439, 6.285 258.580, 6.594 259.384 C 7.265 261.133, 9.512 262.125, 11.274 261.448 C 11.975 261.180, 19.056 247.919, 27.010 231.980 C 34.964 216.041, 41.714 203, 42.009 203 C 42.304 203, 49.101 216.162, 57.113 232.250 C 65.625 249.342, 72.319 261.625, 73.219 261.800 C 74.065 261.965, 75.487 261.370, 76.379 260.479 C 77.840 259.017, 78 252.526, 78 194.651 C 78 138.158, 77.813 130.178, 76.443 128.223 C 74.598 125.588, 73.678 125.465, 71.571 127.571 C 70.212 128.931, 70 133.242, 70 159.571 L 70 190 42 190 L 14 190 14 159.571 C 14 133.242, 13.788 128.931, 12.429 127.571 C 11.564 126.707, 10.471 126, 10 126 C 9.529 126, 8.436 126.707, 7.571 127.571 M 166.612 128.250 C 165.823 129.488, 150.852 159.187, 133.343 194.249 C 107.087 246.826, 101.702 258.304, 102.613 259.749 C 103.620 261.345, 106.428 261.523, 134.401 261.765 L 165.085 262.029 164.483 265.765 C 162.279 279.430, 154.500 293.880, 144.701 302.512 C 135.726 310.417, 119.669 317, 109.361 317 C 104.806 317, 101.499 319.252, 102.442 321.711 C 102.749 322.510, 103 323.352, 103 323.582 C 103 323.812, 105.973 324, 109.606 324 C 134.664 324, 161.122 303.560, 169.055 278.072 C 171.723 269.498, 173.284 257.047, 171.899 255.378 C 171.016 254.314, 164.596 253.973, 141.513 253.765 L 112.246 253.500 140.995 196.009 L 169.745 138.517 200.622 200.009 L 231.500 261.500 262.222 261.764 L 292.944 262.029 292.382 265.264 C 287.483 293.457, 266.281 314.267, 240 316.678 C 231.971 317.415, 229.781 318.451, 230.189 321.318 C 230.463 323.239, 231.216 323.539, 236.500 323.830 C 244.965 324.295, 252.113 322.539, 262.500 317.441 C 282.988 307.387, 295.386 290.146, 299.573 265.888 C 300.781 258.885, 300.864 256.541, 299.943 255.431 C 298.958 254.245, 293.342 254, 267.128 253.999 L 235.500 253.998 204.502 191.323 C 187.453 156.851, 172.908 128.051, 172.181 127.323 C 170.231 125.374, 168.233 125.707, 166.612 128.250 M 58.607 219.250 C 64.446 230.938, 69.398 240.688, 69.612 240.917 C 69.825 241.146, 70 231.583, 70 219.667 L 70 198 58.995 198 L 47.991 198 58.607 219.250 " stroke="none" fill="black" fill-rule="evenodd"/>
</svg>