<svg xmlns="http://www.w3.org/2000/svg" width="532" height="324" viewBox="0 0 532 324" version="1.1">
	<path d="M 7.571 127.571 C 6.207 128.936, 6 133.463, 6 162 C 6 190.537, 6.207 195.064, 7.571 196.429 C 8.844 197.701, 11.697 198, 22.575 198 L 36.006 198 21.020 227.961 C 12.777 244.439, 6.285 258.580, 6.594 259.384 C 7.265 261.133, 9.512 262.125, 11.274 261.448 C 11.975 261.180, 19.056 247.919, 27.010 231.980 C 34.964 216.041, 41.717 203, 42.016 203 C 42.315 203, 49.042 216.034, 56.965 231.964 C 69.336 256.836, 72.352 262, 74.510 262 C 74.701 262, 75.564 261.293, 76.429 260.429 C 77.825 259.032, 78 251.628, 78 194 C 78 136.372, 77.825 128.968, 76.429 127.571 C 74.455 125.598, 73.545 125.598, 71.571 127.571 C 70.212 128.931, 70 133.242, 70 159.571 L 70 190 42 190 L 14 190 14 159.571 C 14 133.242, 13.788 128.931, 12.429 127.571 C 11.564 126.707, 10.471 126, 10 126 C 9.529 126, 8.436 126.707, 7.571 127.571 M 391.571 127.571 C 390.707 128.436, 390 129.665, 390 130.302 C 390 130.940, 417.558 159.033, 451.239 192.731 L 512.478 254 485.173 254 C 468.264 254, 457.132 254.394, 455.934 255.035 C 454.870 255.605, 454 256.939, 454 258 C 454 259.061, 454.870 260.395, 455.934 260.965 C 458.285 262.223, 521.857 262.377, 523.825 261.129 C 524.886 260.456, 525.128 253.539, 525.040 226.395 C 524.921 189.938, 524.718 188.475, 520.117 190.938 C 518.037 192.051, 518 192.566, 518 220.782 L 518 249.494 456.247 187.747 C 422.283 153.786, 394.190 126, 393.818 126 C 393.447 126, 392.436 126.707, 391.571 127.571 M 116.764 190.952 C 109.186 193.355, 103.955 199.277, 102.503 207.096 C 101.855 210.586, 103.585 214, 106 214 C 107.861 214, 110 210.700, 110 207.829 C 110 205.718, 111.030 203.770, 113.400 201.400 C 116.302 198.498, 117.488 198, 121.500 198 C 125.512 198, 126.698 198.498, 129.600 201.400 C 135.333 207.133, 134.953 208.162, 117.500 234.224 C 108.975 246.954, 102 257.945, 102 258.649 C 102 261.312, 106.179 262, 122.363 262 C 136.024 262, 139.127 261.730, 140.429 260.429 C 142.402 258.455, 142.402 257.545, 140.429 255.571 C 139.162 254.305, 136.348 254, 125.926 254 L 112.995 254 127.499 232.239 L 142.002 210.477 140.025 205.068 C 136.068 194.242, 125.882 188.061, 116.764 190.952 M 358.571 191.571 C 357.699 192.444, 357 194.819, 357 196.911 C 357 203.127, 353.245 215.866, 349.340 222.899 C 343.912 232.675, 333.977 241.998, 323.820 246.847 C 319.244 249.032, 313.025 251.404, 310 252.119 C 305.901 253.087, 287.105 253.556, 236.213 253.959 C 177.001 254.428, 167.800 254.699, 166.978 256 C 165.681 258.053, 165.756 258.613, 167.571 260.429 C 168.967 261.824, 176.300 262, 233.205 262 C 268.490 262, 298.892 261.590, 300.884 261.088 C 302.873 260.586, 307.425 259.659, 311 259.028 C 314.671 258.380, 321.606 255.900, 326.933 253.329 C 344.216 244.990, 357.723 228.355, 362.490 209.540 C 365.034 199.500, 364.247 190, 360.871 190 C 360.471 190, 359.436 190.707, 358.571 191.571 M 58.607 219.250 C 64.446 230.938, 69.398 240.688, 69.612 240.917 C 69.825 241.146, 70 231.583, 70 219.667 L 70 198 58.995 198 L 47.991 198 58.607 219.250 " stroke="none" fill="black" fill-rule="evenodd"/>
</svg>