<svg xmlns="http://www.w3.org/2000/svg" width="532" height="324" viewBox="0 0 532 324" version="1.1">
	<path d="M 7.571 127.571 C 6.207 128.936, 6 133.463, 6 162 C 6 190.537, 6.207 195.064, 7.571 196.429 C 8.844 197.701, 11.697 198, 22.575 198 L 36.006 198 21.020 227.961 C 12.777 244.439, 6.285 258.580, 6.594 259.384 C 7.265 261.133, 9.512 262.125, 11.274 261.448 C 11.975 261.180, 19.056 247.919, 27.010 231.980 C 34.964 216.041, 41.717 203, 42.016 203 C 42.315 203, 49.042 216.034, 56.965 231.964 C 69.336 256.836, 72.352 262, 74.510 262 C 74.701 262, 75.564 261.293, 76.429 260.429 C 77.825 259.032, 78 251.628, 78 194 C 78 136.372, 77.825 128.968, 76.429 127.571 C 74.455 125.598, 73.545 125.598, 71.571 127.571 C 70.212 128.931, 70 133.242, 70 159.571 L 70 190 42 190 L 14 190 14 159.571 C 14 133.242, 13.788 128.931, 12.429 127.571 C 11.564 126.707, 10.471 126, 10 126 C 9.529 126, 8.436 126.707, 7.571 127.571 M 447.235 127.088 C 433.113 129.242, 420.417 135.745, 410.088 146.114 C 398.869 157.378, 392.022 171.861, 390.469 187.614 C 389.891 193.479, 390.055 194.912, 391.460 196.317 C 392.386 197.243, 393.535 198, 394.015 198 C 395.925 198, 398 193.308, 398 188.988 C 398 176.577, 404.422 162.527, 414.960 151.885 C 427.002 139.723, 440.528 134.046, 457.540 134.015 C 467.270 133.997, 475.180 135.890, 484.500 140.468 C 502.376 149.249, 515.205 168.443, 516.737 188.700 C 517.183 194.602, 517.681 196.294, 519.212 197.113 C 526.866 201.210, 524.989 178.362, 516.303 161.700 C 513.753 156.809, 509.954 151.890, 504.457 146.361 C 497.703 139.568, 494.806 137.478, 486.933 133.719 C 481.745 131.242, 475.475 128.743, 473 128.165 C 466.011 126.532, 454.134 126.035, 447.235 127.088 M 116.764 190.952 C 109.186 193.355, 103.955 199.277, 102.503 207.096 C 101.855 210.586, 103.585 214, 106 214 C 107.861 214, 110 210.700, 110 207.829 C 110 205.718, 111.030 203.770, 113.400 201.400 C 116.302 198.498, 117.488 198, 121.500 198 C 125.512 198, 126.698 198.498, 129.600 201.400 C 135.333 207.133, 134.953 208.162, 117.500 234.224 C 108.975 246.954, 102 257.945, 102 258.649 C 102 261.312, 106.179 262, 122.363 262 C 136.024 262, 139.127 261.730, 140.429 260.429 C 142.402 258.455, 142.402 257.545, 140.429 255.571 C 139.162 254.305, 136.348 254, 125.926 254 L 112.995 254 127.499 232.239 L 142.002 210.477 140.025 205.068 C 136.068 194.242, 125.882 188.061, 116.764 190.952 M 358.571 191.571 C 357.699 192.444, 357 194.819, 357 196.911 C 357 203.127, 353.245 215.866, 349.340 222.899 C 343.912 232.675, 333.977 241.998, 323.820 246.847 C 319.244 249.032, 313.025 251.404, 310 252.119 C 305.901 253.087, 287.105 253.556, 236.213 253.959 C 177.001 254.428, 167.800 254.699, 166.978 256 C 165.681 258.053, 165.756 258.613, 167.571 260.429 C 168.967 261.824, 176.300 262, 233.205 262 C 268.490 262, 298.892 261.590, 300.884 261.088 C 302.873 260.586, 307.425 259.659, 311 259.028 C 314.671 258.380, 321.606 255.900, 326.933 253.329 C 344.216 244.990, 357.723 228.355, 362.490 209.540 C 365.034 199.500, 364.247 190, 360.871 190 C 360.471 190, 359.436 190.707, 358.571 191.571 M 423.244 223.256 C 404.960 241.546, 390 257.206, 390 258.056 C 390 261.988, 390.206 262, 457.629 262 C 516.358 262, 523.018 261.839, 524.473 260.384 C 525.362 259.495, 525.955 258.364, 525.790 257.869 C 525.262 256.285, 458.580 190, 457.515 190 C 456.950 190, 441.529 204.965, 423.244 223.256 M 58.607 219.250 C 64.446 230.938, 69.398 240.688, 69.612 240.917 C 69.825 241.146, 70 231.583, 70 219.667 L 70 198 58.995 198 L 47.991 198 58.607 219.250 M 430 226.500 L 402.514 254 457.500 254 L 512.486 254 485 226.500 C 469.883 211.375, 457.508 199, 457.500 199 C 457.492 199, 445.117 211.375, 430 226.500 " stroke="none" fill="black" fill-rule="evenodd"/>
</svg>