<svg xmlns="http://www.w3.org/2000/svg" width="532" height="324" viewBox="0 0 532 324" version="1.1">
	<path d="M 7.571 127.571 C 6.207 128.936, 6 133.463, 6 162 C 6 190.537, 6.207 195.064, 7.571 196.429 C 8.844 197.701, 11.697 198, 22.575 198 L 36.006 198 21.020 227.961 C 12.777 244.439, 6.285 258.580, 6.594 259.384 C 7.265 261.133, 9.512 262.125, 11.274 261.448 C 11.975 261.180, 19.056 247.919, 27.010 231.980 C 34.964 216.041, 41.717 203, 42.016 203 C 42.315 203, 49.042 216.034, 56.965 231.964 C 69.336 256.836, 72.352 262, 74.510 262 C 74.701 262, 75.564 261.293, 76.429 260.429 C 77.825 259.032, 78 251.628, 78 194 C 78 136.372, 77.825 128.968, 76.429 127.571 C 74.455 125.598, 73.545 125.598, 71.571 127.571 C 70.212 128.931, 70 133.242, 70 159.571 L 70 190 42 190 L 14 190 14 159.571 C 14 133.242, 13.788 128.931, 12.429 127.571 C 11.564 126.707, 10.471 126, 10 126 C 9.529 126, 8.436 126.707, 7.571 127.571 M 168.363 126.765 C 167.142 127.554, 102 257.304, 102 258.947 C 102 261.542, 107.011 262, 135.434 262 C 169.107 262, 166.164 260.999, 163.485 271.540 C 159.102 288.782, 147.300 303.455, 131.899 310.809 C 123.185 314.970, 115.685 317, 109.022 317 C 104.802 317, 101.533 319.340, 102.442 321.711 C 102.749 322.510, 103 323.352, 103 323.582 C 103 324.663, 116.888 323.825, 122.356 322.414 C 139.421 318.008, 156.508 304.316, 164.679 288.500 C 169.126 279.893, 170.484 275.716, 171.852 266.436 C 172.334 263.171, 173.040 259.771, 173.421 258.879 C 173.833 257.917, 173.453 256.595, 172.486 255.629 C 171.055 254.197, 167.289 254, 141.430 254 L 112.002 254 140.747 196.500 C 156.557 164.875, 169.724 139, 170.007 139 C 170.291 139, 184.291 166.563, 201.119 200.250 L 231.715 261.500 262.443 261.765 L 293.171 262.029 292.517 266.265 C 289.559 285.413, 276.879 302.703, 259.820 310.847 C 251.178 314.974, 243.669 317, 237.022 317 C 232.802 317, 229.533 319.340, 230.442 321.711 C 230.749 322.510, 231 323.352, 231 323.582 C 231 324.464, 244.338 323.947, 248.807 322.892 C 251.388 322.283, 257.745 319.758, 262.933 317.281 C 278.683 309.762, 291.113 295.611, 297.002 278.495 C 299.762 270.472, 301.445 257.241, 299.936 255.423 C 298.961 254.248, 293.291 254, 267.379 254 L 236.003 254 204.383 190.750 C 175.939 133.854, 171.783 126.031, 170 126.031 C 169.725 126.031, 168.988 126.361, 168.363 126.765 M 423.750 159.082 C 422.788 159.642, 422 160.858, 422 161.786 C 422 162.714, 427.956 169.442, 435.236 176.737 L 448.472 190 388.808 190 C 335.900 190, 328.965 190.178, 327.571 191.571 C 325.598 193.545, 325.598 194.455, 327.571 196.429 C 328.965 197.822, 335.900 198, 388.808 198 L 448.472 198 435.236 211.263 C 427.956 218.558, 422 225.292, 422 226.228 C 422 227.164, 422.952 228.439, 424.115 229.062 C 426.040 230.092, 427.774 228.675, 443.348 213.347 C 460.797 196.174, 461.958 194.961, 461.985 193.886 C 462.002 193.179, 427.261 158.610, 426.202 158.282 C 425.816 158.162, 424.712 158.522, 423.750 159.082 M 487.750 159.080 C 486.155 160.009, 486 162.388, 486 186.015 C 486 211.174, 486.060 211.962, 488.064 213.034 C 489.596 213.854, 490.498 213.832, 491.564 212.947 C 492.744 211.968, 493 207.174, 493 186.078 C 493 157.906, 492.671 156.214, 487.750 159.080 M 58.607 219.250 C 64.446 230.938, 69.398 240.688, 69.612 240.917 C 69.825 241.146, 70 231.583, 70 219.667 L 70 198 58.995 198 L 47.991 198 58.607 219.250 M 487.750 222.080 C 485.372 223.465, 485.542 226.685, 488.064 228.034 C 491.753 230.008, 494.819 225.219, 491.800 222.200 C 490.367 220.767, 490.022 220.757, 487.750 222.080 " stroke="none" fill="black" fill-rule="evenodd"/>
</svg>