<svg xmlns="http://www.w3.org/2000/svg" width="500" height="324" viewBox="0 0 500 324" version="1.1">
	<path d="M 7.571 127.571 C 6.207 128.936, 6 133.463, 6 162 C 6 190.537, 6.207 195.064, 7.571 196.429 C 8.844 197.701, 11.697 198, 22.575 198 L 36.006 198 21.020 227.961 C 12.777 244.439, 6.285 258.580, 6.594 259.384 C 7.265 261.133, 9.512 262.125, 11.274 261.448 C 11.975 261.180, 19.056 247.919, 27.010 231.980 C 34.964 216.041, 41.714 203, 42.009 203 C 42.304 203, 49.101 216.162, 57.113 232.250 C 65.625 249.342, 72.319 261.625, 73.219 261.800 C 74.065 261.965, 75.487 261.370, 76.379 260.479 C 77.840 259.017, 78 252.475, 78 194 C 78 136.372, 77.825 128.968, 76.429 127.571 C 74.455 125.598, 73.545 125.598, 71.571 127.571 C 70.212 128.931, 70 133.242, 70 159.571 L 70 190 42 190 L 14 190 14 159.571 C 14 133.242, 13.788 128.931, 12.429 127.571 C 11.564 126.707, 10.471 126, 10 126 C 9.529 126, 8.436 126.707, 7.571 127.571 M 354.355 127.019 C 344.092 129.101, 334.052 137.086, 329.244 146.987 C 326.948 151.715, 326.567 153.781, 326.567 161.500 C 326.567 169.219, 326.948 171.285, 329.244 176.013 C 334.112 186.038, 343.687 193.592, 354.792 196.168 C 357.381 196.769, 365.688 197.461, 373.250 197.706 C 380.813 197.951, 387 198.345, 387 198.582 C 387 198.819, 380.475 212.057, 372.500 228 C 364.525 243.943, 358 257.649, 358 258.458 C 358 260.212, 361.612 262.358, 363.059 261.464 C 363.618 261.118, 370.610 247.773, 378.596 231.809 C 386.582 215.844, 393.427 203.087, 393.808 203.459 C 394.189 203.831, 401.025 217.042, 409 232.817 C 420.720 256, 423.884 261.500, 425.500 261.500 C 427.117 261.500, 430.287 255.980, 442.061 232.655 C 450.070 216.791, 457.018 203.811, 457.500 203.811 C 457.982 203.811, 464.930 216.791, 472.939 232.655 C 487.928 262.347, 489.428 264.438, 492.384 259.752 C 493.288 258.320, 490.831 252.690, 478.743 228.498 C 470.635 212.269, 464 198.781, 464 198.524 C 464 198.267, 470.139 197.931, 477.643 197.778 C 489.360 197.539, 491.441 197.253, 492.388 195.750 C 493.191 194.475, 493.190 193.525, 492.387 192.250 C 491.359 190.621, 486.639 190.462, 423.892 189.951 C 377.312 189.572, 355.485 189.050, 353.215 188.261 C 341.232 184.097, 333.652 173.729, 333.652 161.500 C 333.652 147.449, 343.689 135.979, 357.515 134.230 C 363.934 133.418, 366.327 131.338, 364.394 128.250 C 363.116 126.209, 360.141 125.844, 354.355 127.019 M 103.200 191.200 C 101.481 192.919, 101.481 259.081, 103.200 260.800 C 104.722 262.322, 230.627 262.535, 237.236 261.027 C 239.581 260.491, 244.425 259.509, 248 258.843 C 251.656 258.163, 258.439 255.665, 263.500 253.136 C 274.926 247.427, 286.539 236.209, 292.264 225.348 C 300.905 208.957, 302.798 186.827, 295.212 190.887 C 293.710 191.691, 293.151 193.471, 292.626 199.119 C 290.740 219.404, 277.911 238.078, 259.807 246.888 C 247.562 252.846, 244.643 253.231, 207.750 253.745 L 174 254.215 174 223.679 C 174 197.252, 173.789 192.931, 172.429 191.571 C 171.063 190.206, 166.503 190, 137.629 190 C 113.117 190, 104.085 190.315, 103.200 191.200 M 58.607 219.250 C 64.446 230.938, 69.398 240.688, 69.612 240.917 C 69.825 241.146, 70 231.583, 70 219.667 L 70 198 58.995 198 L 47.991 198 58.607 219.250 M 110 226 L 110 254 138 254 L 166 254 166 226 L 166 198 138 198 L 110 198 110 226 M 400 198.508 C 400 199.477, 425.010 249, 425.500 249 C 425.990 249, 451 199.477, 451 198.508 C 451 198.228, 439.525 198, 425.500 198 C 411.475 198, 400 198.228, 400 198.508 " stroke="none" fill="black" fill-rule="evenodd"/>
</svg>