<svg xmlns="http://www.w3.org/2000/svg" width="308" height="324" viewBox="0 0 308 324" version="1.1">
	<path d="M 231.750 127.073 C 229.423 128.438, 229.524 131.675, 231.934 132.965 C 233.005 133.538, 240.151 134, 247.934 134 L 262 134 262 194 L 262 254 247.934 254 C 233.308 254, 230 254.738, 230 258 C 230 261.750, 232.791 262.037, 266.601 261.764 C 296.469 261.523, 299.378 261.349, 300.386 259.750 C 301.190 258.475, 301.191 257.525, 300.387 256.250 C 299.430 254.730, 297.291 254.464, 284.142 254.224 L 269 253.948 269 194 L 269 134.052 284.142 133.776 C 297.291 133.536, 299.430 133.270, 300.387 131.750 C 301.191 130.475, 301.190 129.525, 300.386 128.250 C 299.377 126.649, 296.483 126.481, 266.391 126.273 C 245.280 126.127, 232.873 126.414, 231.750 127.073 M 7.571 191.571 C 6.207 192.936, 6 197.463, 6 226 C 6 254.537, 6.207 259.064, 7.571 260.429 C 8.967 261.824, 16.287 262, 73.057 262 C 110.913 262, 138.710 261.603, 141.236 261.027 C 143.581 260.491, 148.425 259.509, 152 258.843 C 155.656 258.163, 162.439 255.665, 167.500 253.136 C 184.331 244.726, 197.372 228.596, 202.014 210.444 C 205.549 196.623, 204.270 188.179, 199.064 190.966 C 197.554 191.774, 196.995 193.067, 196.983 195.785 C 196.930 206.951, 190.277 223.530, 181.966 233.203 C 176.674 239.361, 164.781 247.244, 156.748 249.917 C 147.126 253.120, 136.307 253.984, 105.750 253.992 L 78 254 78 223.571 C 78 197.242, 77.788 192.931, 76.429 191.571 C 75.064 190.207, 70.537 190, 42 190 C 13.463 190, 8.936 190.207, 7.571 191.571 M 14 226 L 14 254 42 254 L 70 254 70 226 L 70 198 42 198 L 14 198 14 226 " stroke="none" fill="black" fill-rule="evenodd"/>
</svg>