<svg xmlns="http://www.w3.org/2000/svg" width="564" height="324" viewBox="0 0 564 324" version="1.1">
	<path d="M 7.571 127.571 C 6.207 128.936, 6 133.463, 6 162 C 6 190.537, 6.207 195.064, 7.571 196.429 C 8.844 197.701, 11.697 198, 22.575 198 L 36.006 198 21.020 227.961 C 12.777 244.439, 6.285 258.580, 6.594 259.384 C 7.265 261.133, 9.512 262.125, 11.274 261.448 C 11.975 261.180, 19.056 247.919, 27.010 231.980 C 34.964 216.041, 41.710 203, 42 203 C 42.291 203, 48.822 215.661, 56.514 231.136 C 64.206 246.611, 71.095 259.886, 71.821 260.636 C 73.530 262.400, 74.501 262.356, 76.429 260.429 C 77.825 259.032, 78 251.628, 78 194 C 78 136.372, 77.825 128.968, 76.429 127.571 C 74.455 125.598, 73.545 125.598, 71.571 127.571 C 70.212 128.931, 70 133.242, 70 159.571 L 70 190 42 190 L 14 190 14 159.571 C 14 133.242, 13.788 128.931, 12.429 127.571 C 11.564 126.707, 10.471 126, 10 126 C 9.529 126, 8.436 126.707, 7.571 127.571 M 488.515 158 L 456.460 190 392.801 190 C 336.263 190, 328.967 190.176, 327.571 191.571 C 325.598 193.545, 325.598 194.455, 327.571 196.429 C 328.844 197.701, 331.697 198, 342.575 198 L 356.006 198 341.020 227.961 C 332.777 244.439, 326.285 258.580, 326.594 259.384 C 327.265 261.133, 329.512 262.125, 331.274 261.448 C 331.975 261.180, 339.056 247.919, 347.010 231.980 C 354.964 216.041, 361.710 203, 362 203 C 362.290 203, 369.036 216.041, 376.990 231.980 C 384.944 247.919, 392.025 261.180, 392.726 261.448 C 393.427 261.717, 394.573 261.717, 395.274 261.448 C 395.975 261.180, 403.056 247.919, 411.010 231.980 C 418.964 216.041, 425.710 203, 426 203 C 426.290 203, 433.036 216.041, 440.990 231.980 C 448.944 247.919, 456.025 261.180, 456.726 261.448 C 458.488 262.125, 460.735 261.133, 461.406 259.384 C 461.715 258.580, 455.223 244.439, 446.980 227.961 L 431.994 198 445.710 198 L 459.427 198 490.703 166.782 L 521.979 135.563 537.312 150.782 C 545.746 159.152, 553.143 166, 553.751 166 C 555.200 166, 558 163.173, 558 161.710 C 558 160.033, 523.695 126, 522.004 126 C 521.216 126, 506.146 140.400, 488.515 158 M 103.571 191.571 C 102.207 192.936, 102 197.463, 102 226 C 102 254.537, 102.207 259.064, 103.571 260.429 C 104.967 261.824, 112.287 262, 169.057 262 C 205.375 262, 234.813 261.593, 237.236 261.058 C 239.581 260.539, 244.793 259.413, 248.818 258.555 C 261.357 255.880, 270.230 250.839, 280.535 240.535 C 287.562 233.508, 290.375 229.833, 293.193 224 C 299.276 211.409, 302.528 194.671, 299.485 191.627 C 298.589 190.732, 297.471 190, 297 190 C 294.878 190, 292.999 193.426, 292.985 197.321 C 292.921 215.563, 279.076 237.005, 261.397 246.243 C 249.086 252.676, 245.510 253.175, 207.750 253.724 L 174 254.215 174 223.679 C 174 197.252, 173.789 192.931, 172.429 191.571 C 171.064 190.207, 166.537 190, 138 190 C 109.463 190, 104.936 190.207, 103.571 191.571 M 58.607 219.250 C 64.446 230.938, 69.398 240.688, 69.612 240.917 C 69.825 241.146, 70 231.583, 70 219.667 L 70 198 58.995 198 L 47.991 198 58.607 219.250 M 110 226 L 110 254 138 254 L 166 254 166 226 L 166 198 138 198 L 110 198 110 226 M 380.743 223.500 C 387.750 237.525, 393.715 249, 394 249 C 394.285 249, 400.250 237.525, 407.257 223.500 L 419.995 198 394 198 L 368.005 198 380.743 223.500 " stroke="none" fill="black" fill-rule="evenodd"/>
</svg>