<svg xmlns="http://www.w3.org/2000/svg" width="308" height="324" viewBox="0 0 308 324" version="1.1">
	<path d="M 7.750 191.080 C 6.138 192.019, 6 194.769, 6 226.015 C 6 258.522, 6.080 259.973, 7.934 260.965 C 10.487 262.331, 135.268 262.389, 141.236 261.027 C 143.581 260.491, 148.425 259.509, 152 258.843 C 155.656 258.163, 162.439 255.665, 167.500 253.136 C 178.926 247.427, 190.539 236.209, 196.264 225.348 C 204.905 208.957, 206.798 186.827, 199.212 190.887 C 197.731 191.679, 197.148 193.456, 196.645 198.706 C 195.816 207.375, 193.969 213.369, 189.536 221.780 C 184.673 231.005, 179.250 237.019, 170.539 242.846 C 156.267 252.391, 147.026 253.981, 105.750 253.992 L 78 254 78 223.571 C 78 197.242, 77.788 192.931, 76.429 191.571 C 75.063 190.206, 70.580 190.004, 42.179 190.030 C 21.849 190.049, 8.839 190.446, 7.750 191.080 M 231.213 191.187 C 230.546 191.854, 230 193.120, 230 194 C 230 197.513, 232.094 198, 247.200 198 L 262 198 262 225.974 L 262 253.948 246.858 254.224 C 233.709 254.464, 231.570 254.730, 230.613 256.250 C 229.809 257.525, 229.810 258.475, 230.614 259.750 C 231.630 261.360, 234.414 261.500, 265.500 261.500 C 296.586 261.500, 299.370 261.360, 300.386 259.750 C 301.190 258.475, 301.191 257.525, 300.387 256.250 C 299.430 254.730, 297.291 254.464, 284.142 254.224 L 269 253.948 269 226 L 269 198.052 284.142 197.776 C 297.291 197.536, 299.430 197.270, 300.387 195.750 C 301.191 194.475, 301.190 193.525, 300.386 192.250 C 299.377 190.649, 296.434 190.478, 265.854 190.237 C 240.691 190.039, 232.126 190.274, 231.213 191.187 M 14 226 L 14 254 42 254 L 70 254 70 226 L 70 198 42 198 L 14 198 14 226 " stroke="none" fill="black" fill-rule="evenodd"/>
</svg>