<svg xmlns="http://www.w3.org/2000/svg" width="628" height="324" viewBox="0 0 628 324" version="1.1">
	<path d="M 168.515 158 L 136.460 190 72.801 190 C 16.263 190, 8.967 190.176, 7.571 191.571 C 5.598 193.545, 5.598 194.455, 7.571 196.429 C 8.844 197.701, 11.697 198, 22.575 198 L 36.006 198 21.020 227.961 C 12.777 244.439, 6.285 258.580, 6.594 259.384 C 7.265 261.133, 9.512 262.125, 11.274 261.448 C 11.975 261.180, 19.056 247.919, 27.010 231.980 C 34.964 216.041, 41.710 203, 42 203 C 42.290 203, 49.036 216.041, 56.990 231.980 C 64.944 247.919, 72.025 261.180, 72.726 261.448 C 73.427 261.717, 74.573 261.717, 75.274 261.448 C 75.975 261.180, 83.056 247.919, 91.010 231.980 C 98.964 216.041, 105.710 203, 106 203 C 106.290 203, 113.036 216.041, 120.990 231.980 C 128.944 247.919, 136.025 261.180, 136.726 261.448 C 138.488 262.125, 140.735 261.133, 141.406 259.384 C 141.715 258.580, 135.223 244.439, 126.980 227.961 L 111.994 198 125.710 198 L 139.427 198 170.703 166.782 L 201.979 135.563 217.312 150.782 C 225.746 159.152, 233.105 166, 233.668 166 C 234.230 166, 235.471 165.137, 236.425 164.083 C 237.723 162.649, 237.907 161.705, 237.155 160.333 C 235.453 157.226, 203.450 126, 201.967 126 C 201.199 126, 186.146 140.400, 168.515 158 M 295.244 223.256 C 276.960 241.546, 262 257.280, 262 258.220 C 262 259.160, 262.870 260.395, 263.934 260.965 C 265.210 261.648, 287.818 262, 330.363 262 C 387.661 262, 395.032 261.825, 396.429 260.429 C 397.293 259.564, 398 258.441, 398 257.931 C 398 256.355, 331.554 190, 329.976 190 C 329.158 190, 313.529 204.965, 295.244 223.256 M 439.213 207.315 C 429.746 216.838, 422 225.131, 422 225.743 C 422 226.967, 424.733 230, 425.835 230 C 426.216 230, 432.590 223.925, 440 216.500 C 447.410 209.075, 453.716 203, 454.015 203 C 454.313 203, 455.375 206.177, 456.376 210.060 C 462.417 233.510, 481.479 252.559, 505 258.650 C 513.671 260.895, 529.440 260.855, 538 258.566 C 561.066 252.397, 580.014 233.359, 586.134 210.206 L 588.326 201.913 602.491 215.956 C 610.281 223.680, 617.128 230, 617.705 230 C 619.297 230, 621.208 227.293, 620.833 225.570 C 620.399 223.580, 586.994 190, 585.449 190 C 583.670 190, 550.548 223.795, 550.189 225.975 C 550.002 227.112, 550.751 228.331, 552.070 229.037 C 554.088 230.118, 555.283 229.195, 567.189 217.355 C 581.105 203.518, 581.534 203.456, 576.595 216.008 C 571.315 229.428, 560.830 240.590, 547.500 246.983 C 537.925 251.575, 531.613 253, 520.845 253 C 501.204 253, 482.367 242.806, 471.357 226.219 C 467.654 220.639, 463 209.522, 463 206.254 C 463 205.287, 468.341 209.883, 475.836 217.299 C 482.896 224.285, 489.141 230, 489.713 230 C 491.292 230, 493.208 227.291, 492.833 225.591 C 492.399 223.629, 459.089 190, 457.579 190 C 456.944 190, 448.680 197.792, 439.213 207.315 M 60.743 223.500 C 67.750 237.525, 73.715 249, 74 249 C 74.285 249, 80.250 237.525, 87.257 223.500 L 99.995 198 74 198 L 48.005 198 60.743 223.500 M 302.500 227 L 275.514 254 330 254 L 384.486 254 357.500 227 C 342.658 212.150, 330.283 200, 330 200 C 329.717 200, 317.342 212.150, 302.500 227 " stroke="none" fill="black" fill-rule="evenodd"/>
</svg>