<svg xmlns="http://www.w3.org/2000/svg" width="532" height="324" viewBox="0 0 532 324" version="1.1">
	<path d="M 447.536 127.055 C 430.549 129.693, 415.930 138.283, 404.779 152.178 C 394.828 164.577, 390.553 176.995, 390.553 193.500 C 390.553 210.065, 394.823 222.417, 404.882 234.950 C 418.279 251.644, 436.485 260.429, 457.500 260.340 C 476.297 260.260, 491.052 254.041, 504.500 240.527 C 517.805 227.157, 524 212.218, 524 193.500 C 524 174.782, 517.805 159.843, 504.500 146.473 C 489.168 131.067, 468.053 123.869, 447.536 127.055 M 442.072 135.591 C 428.454 139.252, 415.030 149.097, 407.028 161.292 C 395.441 178.952, 394.637 204.177, 405.075 222.586 C 406.661 225.383, 409.864 229.836, 412.192 232.480 C 416.553 237.435, 425.522 245, 427.034 245 C 427.505 245, 426.689 242.412, 425.223 239.250 C 423.040 234.544, 422.554 232.048, 422.546 225.500 C 422.536 218.620, 422.969 216.578, 425.639 210.911 C 429.569 202.571, 434.576 197.561, 442.854 193.688 C 448.383 191.100, 450.544 190.639, 456.942 190.681 C 467.275 190.747, 474.493 193.604, 481.342 200.339 C 489.423 208.286, 491.474 213.373, 491.488 225.500 C 491.499 234.446, 491.212 236.058, 488.768 240.796 L 486.037 246.091 489.209 244.296 C 494.825 241.117, 505.560 229.708, 509.340 222.899 C 525.924 193.032, 514.070 154.595, 483.820 140.153 C 479.244 137.968, 473.115 135.690, 470.201 135.090 C 462.879 133.584, 448.591 133.838, 442.072 135.591 M 198.571 191.571 C 197.640 192.503, 197 194.860, 197 197.361 C 197 209.586, 189.815 225.282, 179.494 235.603 C 171.668 243.428, 160.635 249.607, 150 252.119 C 145.901 253.087, 127.105 253.556, 76.213 253.959 C 17.001 254.428, 7.800 254.699, 6.978 256 C 5.681 258.053, 5.756 258.613, 7.571 260.429 C 8.967 261.824, 16.300 262, 73.205 262 C 108.490 262, 138.892 261.590, 140.884 261.088 C 142.873 260.586, 147.425 259.659, 151 259.028 C 154.671 258.380, 161.606 255.900, 166.933 253.329 C 182.900 245.625, 195.926 230.585, 201.430 213.500 C 204.092 205.237, 205.036 194.898, 203.370 192.250 C 201.696 189.591, 200.694 189.449, 198.571 191.571 M 447.603 199.477 C 439.528 202.354, 439.594 203.079, 448.764 212.249 L 456.985 220.470 465.503 211.997 C 474.013 203.531, 474.018 203.522, 471.818 201.863 C 466.670 197.980, 455.024 196.832, 447.603 199.477 M 432.061 214.081 C 430.577 217.529, 429.875 221.198, 429.875 225.500 C 429.875 231.429, 433.091 242, 434.895 242 C 435.252 242, 439.247 238.278, 443.773 233.729 L 452.001 225.457 443.730 217.229 C 439.180 212.703, 435.186 209, 434.852 209 C 434.519 209, 433.263 211.286, 432.061 214.081 M 470.727 216.772 C 466.477 221.047, 463 224.995, 463 225.546 C 463 226.667, 478.144 242, 479.252 242 C 479.641 242, 480.973 240.088, 482.212 237.750 C 484.008 234.363, 484.465 231.875, 484.465 225.500 C 484.465 219.125, 484.008 216.637, 482.212 213.250 C 480.973 210.912, 479.620 209, 479.206 209 C 478.792 209, 474.976 212.497, 470.727 216.772 M 448.477 239.059 L 440.500 247.118 442.830 249.034 C 449.199 254.272, 463.801 254.342, 471.819 249.174 L 474.137 247.680 465.841 239.340 C 461.278 234.753, 457.299 231, 456.999 231 C 456.699 231, 452.864 234.627, 448.477 239.059 M 257.500 238.997 C 247.334 240.653, 238.088 245.248, 231.655 251.839 C 228.317 255.259, 227.960 256.056, 228.941 257.889 C 230.506 260.814, 232.160 260.544, 236.894 256.589 C 246.725 248.375, 255.053 245.542, 267.454 246.193 C 278.578 246.777, 286.673 250.581, 295.208 259.236 C 305.996 270.174, 320.440 275.188, 335 273.048 C 347.634 271.191, 364.536 261.622, 363.805 256.740 C 363.178 252.551, 360.558 252.409, 355.803 256.305 C 348.517 262.276, 340.710 265.317, 331.409 265.807 C 317.975 266.516, 307.819 262.549, 299.766 253.449 C 290.164 242.598, 272.489 236.554, 257.500 238.997 " stroke="none" fill="black" fill-rule="evenodd"/>
</svg>