<svg xmlns="http://www.w3.org/2000/svg" width="468" height="324" viewBox="0 0 468 324" version="1.1">
	<path d="M 7.571 127.571 C 6.207 128.936, 6 133.463, 6 162 C 6 190.537, 6.207 195.064, 7.571 196.429 C 8.844 197.701, 11.697 198, 22.575 198 L 36.006 198 21.020 227.961 C 12.777 244.439, 6.285 258.580, 6.594 259.384 C 7.265 261.133, 9.512 262.125, 11.274 261.448 C 11.975 261.180, 19.056 247.919, 27.010 231.980 C 34.964 216.041, 41.710 203, 42 203 C 42.291 203, 48.822 215.661, 56.514 231.136 C 64.206 246.611, 71.095 259.886, 71.821 260.636 C 73.530 262.400, 74.501 262.356, 76.429 260.429 C 77.825 259.032, 78 251.628, 78 194 C 78 136.372, 77.825 128.968, 76.429 127.571 C 74.455 125.598, 73.545 125.598, 71.571 127.571 C 70.212 128.931, 70 133.242, 70 159.571 L 70 190 42 190 L 14 190 14 159.571 C 14 133.242, 13.788 128.931, 12.429 127.571 C 11.564 126.707, 10.471 126, 10 126 C 9.529 126, 8.436 126.707, 7.571 127.571 M 294.571 191.571 C 293.651 192.492, 292.994 194.873, 292.985 197.321 C 292.921 215.563, 279.076 237.005, 261.397 246.243 C 247.678 253.412, 249.320 253.270, 172.713 253.918 C 113.087 254.422, 103.799 254.700, 102.978 256 C 101.681 258.053, 101.756 258.613, 103.571 260.429 C 104.967 261.824, 112.287 262, 169.057 262 C 205.375 262, 234.813 261.593, 237.236 261.058 C 239.581 260.539, 244.793 259.413, 248.818 258.555 C 261.357 255.880, 270.230 250.839, 280.535 240.535 C 287.562 233.508, 290.375 229.833, 293.193 224 C 299.276 211.409, 302.528 194.671, 299.485 191.627 C 297.454 189.597, 296.556 189.587, 294.571 191.571 M 58.607 219.250 C 64.446 230.938, 69.398 240.688, 69.612 240.917 C 69.825 241.146, 70 231.583, 70 219.667 L 70 198 58.995 198 L 47.991 198 58.607 219.250 M 353 238.983 C 342.947 240.884, 333.573 245.717, 327.217 252.276 C 323.704 255.901, 323.675 258.445, 327.132 259.542 C 328.512 259.980, 330.272 259.084, 333.167 256.468 C 335.414 254.438, 340.234 251.364, 343.877 249.638 C 349.993 246.740, 351.304 246.500, 361 246.500 C 370.754 246.500, 371.983 246.729, 378.306 249.724 C 382.947 251.922, 387.090 254.965, 391.331 259.290 C 404.360 272.578, 423.118 276.980, 440.796 270.898 C 450.574 267.534, 460 260.449, 460 256.464 C 460 252.535, 456.496 252.357, 452.267 256.070 C 450.247 257.844, 445.648 260.691, 442.047 262.397 C 436.017 265.255, 434.670 265.500, 425 265.500 C 415.333 265.500, 413.981 265.254, 407.962 262.402 C 403.858 260.457, 399.606 257.383, 396.541 254.146 C 390.597 247.868, 384.190 243.646, 376.697 241.068 C 369.960 238.750, 359.224 237.805, 353 238.983 " stroke="none" fill="black" fill-rule="evenodd"/>
</svg>