<svg xmlns="http://www.w3.org/2000/svg" width="372" height="324" viewBox="0 0 372 324" version="1.1">
	<path d="M 7.571 127.571 C 6.207 128.936, 6 133.463, 6 162 C 6 190.537, 6.207 195.064, 7.571 196.429 C 8.844 197.701, 11.697 198, 22.575 198 L 36.006 198 21.020 227.961 C 12.777 244.439, 6.285 258.580, 6.594 259.384 C 7.265 261.133, 9.512 262.125, 11.274 261.448 C 11.975 261.180, 19.056 247.919, 27.010 231.980 C 34.964 216.041, 41.717 203, 42.016 203 C 42.315 203, 49.042 216.034, 56.965 231.964 C 69.336 256.836, 72.352 262, 74.510 262 C 74.701 262, 75.564 261.293, 76.429 260.429 C 77.825 259.032, 78 251.628, 78 194 C 78 136.372, 77.825 128.968, 76.429 127.571 C 74.455 125.598, 73.545 125.598, 71.571 127.571 C 70.212 128.931, 70 133.242, 70 159.571 L 70 190 42 190 L 14 190 14 159.571 C 14 133.242, 13.788 128.931, 12.429 127.571 C 11.564 126.707, 10.471 126, 10 126 C 9.529 126, 8.436 126.707, 7.571 127.571 M 327.267 159.267 C 308.970 177.563, 294 193.056, 294 193.695 C 294 194.334, 294.707 195.564, 295.571 196.429 C 296.931 197.788, 301.242 198, 327.571 198 L 358 198 358 228.429 C 358 254.758, 358.212 259.069, 359.571 260.429 C 360.436 261.293, 361.529 262, 362 262 C 362.471 262, 363.564 261.293, 364.429 260.429 C 365.825 259.032, 366 251.628, 366 194 C 366 136.372, 365.825 128.968, 364.429 127.571 C 363.564 126.707, 362.334 126, 361.695 126 C 361.056 126, 345.563 140.970, 327.267 159.267 M 332.500 165 L 307.515 190 332.758 190 L 358 190 358 165 C 358 151.250, 357.884 140, 357.742 140 C 357.601 140, 346.242 151.250, 332.500 165 M 58.607 219.250 C 64.446 230.938, 69.398 240.688, 69.612 240.917 C 69.825 241.146, 70 231.583, 70 219.667 L 70 198 58.995 198 L 47.991 198 58.607 219.250 M 116.764 222.982 C 108.173 225.612, 102.580 232.914, 102.580 241.500 C 102.580 247.534, 105.981 254.209, 110.462 256.972 C 118.626 262.005, 118.090 261.970, 186.221 261.985 L 249.943 262 255.221 259.623 C 258.125 258.316, 261.508 256.278, 262.739 255.094 C 271.685 246.496, 269.818 231.506, 259.011 225.152 L 254.500 222.500 187 222.322 C 149.875 222.224, 118.269 222.521, 116.764 222.982 M 113.400 233.400 C 106.450 240.350, 110.088 251.132, 120.028 253.050 C 126.069 254.216, 246.442 254.196, 251.500 253.029 C 257.351 251.679, 261 247.206, 261 241.384 C 261 237.504, 260.478 236.278, 257.600 233.400 L 254.200 230 185.500 230 L 116.800 230 113.400 233.400 " stroke="none" fill="black" fill-rule="evenodd"/>
</svg>