<svg xmlns="http://www.w3.org/2000/svg" width="595" height="324" viewBox="0 0 595 324" version="1.1">
	<path d="M 7.571 127.571 C 6.207 128.936, 6 133.463, 6 162 C 6 190.537, 6.207 195.064, 7.571 196.429 C 8.844 197.701, 11.697 198, 22.575 198 L 36.006 198 21.020 227.961 C 12.777 244.439, 6.285 258.580, 6.594 259.384 C 7.265 261.133, 9.512 262.125, 11.274 261.448 C 11.975 261.180, 19.056 247.919, 27.010 231.980 C 34.964 216.041, 41.717 203, 42.016 203 C 42.315 203, 49.042 216.034, 56.965 231.964 C 69.336 256.836, 72.352 262, 74.510 262 C 74.701 262, 75.564 261.293, 76.429 260.429 C 77.825 259.032, 78 251.628, 78 194 C 78 136.372, 77.825 128.968, 76.429 127.571 C 74.455 125.598, 73.545 125.598, 71.571 127.571 C 70.212 128.931, 70 133.242, 70 159.571 L 70 190 42 190 L 14 190 14 159.571 C 14 133.242, 13.788 128.931, 12.429 127.571 C 11.564 126.707, 10.471 126, 10 126 C 9.529 126, 8.436 126.707, 7.571 127.571 M 509.500 127.480 C 482.453 132.502, 461.115 153.074, 455.511 179.529 C 453.307 189.937, 453.504 195.664, 456.117 197.062 C 459.381 198.809, 460.618 196.615, 461.816 186.954 C 464.141 168.196, 473.514 153.178, 489.310 142.903 C 499.255 136.433, 506.545 134.500, 521 134.500 C 531.533 134.500, 534.574 134.871, 540.326 136.857 C 549.442 140.004, 560.960 147.864, 566.660 154.828 C 574.771 164.737, 580.929 180.812, 580.983 192.215 C 581.003 196.661, 583.614 198.734, 586.518 196.611 C 590.648 193.591, 585.799 171.015, 578.406 158.845 C 573.314 150.463, 566.784 143.669, 558.484 138.118 C 549.822 132.324, 542.348 129.308, 532 127.431 C 522.892 125.778, 518.617 125.787, 509.500 127.480 M 159.870 191.014 C 130.206 195.674, 107.468 218.602, 103.009 248.349 C 101.711 257.012, 102.140 260.456, 104.636 261.414 C 107.678 262.581, 110 259.180, 110 253.555 C 110 229.880, 130.554 205.326, 155.246 199.504 C 162.660 197.756, 174.808 197.569, 182.201 199.090 C 190.137 200.723, 202.779 207.208, 209.142 212.911 C 217.963 220.817, 225.397 233.411, 227.493 244 C 228.144 247.284, 227.391 246.711, 215.286 234.707 C 206.092 225.589, 201.922 222.093, 200.771 222.535 C 198.716 223.323, 197.764 225.756, 198.792 227.593 C 200.234 230.169, 232.341 262, 233.498 262 C 235.010 262, 268.408 228.380, 268.833 226.430 C 269.208 224.707, 267.297 222, 265.705 222 C 265.128 222, 258.292 228.309, 250.515 236.020 L 236.375 250.039 234.578 242.416 C 229.966 222.855, 216.644 206.123, 199 197.733 C 193.775 195.249, 187.475 192.743, 185 192.165 C 178.187 190.573, 166.177 190.023, 159.870 191.014 M 487.244 223.256 C 468.960 241.546, 454 257.206, 454 258.056 C 454 261.988, 454.212 262, 521.500 262 C 588.818 262, 589 261.989, 589 258.044 C 589 256.369, 523.151 190, 521.489 190 C 520.939 190, 505.529 204.965, 487.244 223.256 M 58.607 219.250 C 64.446 230.938, 69.398 240.688, 69.612 240.917 C 69.825 241.146, 70 231.583, 70 219.667 L 70 198 58.995 198 L 47.991 198 58.607 219.250 M 494 226.500 L 466.514 254 521.500 254 L 576.486 254 549 226.500 C 533.883 211.375, 521.508 199, 521.500 199 C 521.492 199, 509.117 211.375, 494 226.500 M 320.320 239.099 C 313.354 240.262, 304.724 244.198, 298.336 249.127 C 292.675 253.494, 291.128 256.245, 293.040 258.548 C 294.922 260.816, 296.513 260.317, 301.689 255.835 C 304.335 253.545, 308.975 250.515, 312 249.102 C 316.848 246.838, 318.804 246.532, 328.500 246.517 C 338.756 246.501, 339.944 246.711, 346.072 249.614 C 350.471 251.699, 354.768 254.877, 359.072 259.230 C 370.385 270.672, 384.320 275.405, 399.614 272.998 C 411.858 271.072, 428.513 261.467, 427.805 256.740 C 427.161 252.438, 424.629 252.460, 418.858 256.818 C 410.615 263.041, 404.754 265.285, 395.409 265.793 C 381.586 266.546, 372.971 263.099, 362.854 252.767 C 356.140 245.909, 345.719 240.585, 336 239.045 C 328.672 237.884, 327.573 237.888, 320.320 239.099 " stroke="none" fill="black" fill-rule="evenodd"/>
</svg>