<svg xmlns="http://www.w3.org/2000/svg" width="516" height="324" viewBox="0 0 516 324" version="1.1">
	<path d="M 7.571 127.571 C 6.207 128.936, 6 133.463, 6 162 C 6 190.537, 6.207 195.064, 7.571 196.429 C 8.844 197.701, 11.697 198, 22.575 198 L 36.006 198 21.020 227.961 C 12.777 244.439, 6.285 258.580, 6.594 259.384 C 7.265 261.133, 9.512 262.125, 11.274 261.448 C 11.975 261.180, 19.056 247.919, 27.010 231.980 C 34.964 216.041, 41.710 203, 42 203 C 42.291 203, 48.822 215.661, 56.514 231.136 C 64.206 246.611, 71.095 259.886, 71.821 260.636 C 73.530 262.400, 74.501 262.356, 76.429 260.429 C 77.825 259.032, 78 251.628, 78 194 C 78 136.372, 77.825 128.968, 76.429 127.571 C 74.455 125.598, 73.545 125.598, 71.571 127.571 C 70.212 128.931, 70 133.242, 70 159.571 L 70 190 42 190 L 14 190 14 159.571 C 14 133.242, 13.788 128.931, 12.429 127.571 C 11.564 126.707, 10.471 126, 10 126 C 9.529 126, 8.436 126.707, 7.571 127.571 M 167.571 127.571 C 166.212 128.931, 166 133.242, 166 159.571 L 166 190 135.571 190 C 99.866 190, 101.407 189.561, 102.543 199.402 C 104.546 216.744, 110.065 228.143, 122.461 240.539 C 136.548 254.625, 150.275 260.408, 169.500 260.354 C 187.380 260.304, 201.765 254.700, 214.472 242.832 C 226.648 231.462, 233.710 218.454, 235.825 203.500 C 236.370 199.650, 237.108 195.771, 237.465 194.879 C 237.836 193.953, 237.416 192.559, 236.486 191.629 C 235.052 190.195, 231.213 190, 204.429 190 L 174 190 174 159.571 C 174 133.242, 173.788 128.931, 172.429 127.571 C 171.564 126.707, 170.471 126, 170 126 C 169.529 126, 168.436 126.707, 167.571 127.571 M 465.312 165.201 L 426.065 204.401 418.639 197.201 C 414.555 193.240, 410.624 190, 409.903 190 C 409.183 190, 397.773 200.753, 384.547 213.895 L 360.500 237.789 353.500 238.951 C 344.557 240.436, 333.571 245.823, 328.081 251.418 C 324.344 255.225, 323.950 256.037, 324.939 257.886 C 326.539 260.876, 328.681 260.521, 333.093 256.535 C 336.883 253.111, 344.147 248.981, 349 247.492 C 351.128 246.838, 350.792 247.483, 346.750 251.819 C 344.137 254.621, 342 257.482, 342 258.175 C 342 259.899, 376.217 294, 377.946 294 C 378.706 294, 384.992 288.427, 391.914 281.616 L 404.500 269.231 410 271.221 C 417.439 273.912, 431.406 274.088, 439 271.586 C 449.694 268.064, 460 260.642, 460 256.464 C 460 252.434, 456.557 252.410, 451.681 256.406 C 441.723 264.565, 427.288 267.948, 415.003 265.001 L 409.814 263.756 427.907 245.567 C 437.858 235.562, 446 226.794, 446 226.082 C 446 225.370, 442.760 221.445, 438.799 217.361 L 431.599 209.935 470.799 170.688 C 492.360 149.102, 510 130.924, 510 130.292 C 510 128.807, 507.193 126, 505.708 126 C 505.076 126, 486.898 143.640, 465.312 165.201 M 271.308 199.308 C 266.188 204.427, 262 209.120, 262 209.736 C 262 211.121, 264.789 214, 266.131 214 C 266.675 214, 269.568 211.685, 272.560 208.855 L 278 203.710 278 228.855 L 278 254 271.571 254 C 267.061 254, 264.674 254.469, 263.571 255.571 C 261.598 257.545, 261.598 258.455, 263.571 260.429 C 264.876 261.733, 268.009 262, 282 262 C 295.991 262, 299.124 261.733, 300.429 260.429 C 302.402 258.455, 302.402 257.545, 300.429 255.571 C 299.326 254.469, 296.939 254, 292.429 254 L 286 254 286 223.571 C 286 197.242, 285.788 192.931, 284.429 191.571 C 283.564 190.707, 282.353 190, 281.736 190 C 281.120 190, 276.427 194.188, 271.308 199.308 M 58.607 219.250 C 64.446 230.938, 69.398 240.688, 69.612 240.917 C 69.825 241.146, 70 231.583, 70 219.667 L 70 198 58.995 198 L 47.991 198 58.607 219.250 M 110.015 199.750 C 110.023 200.713, 110.708 204.379, 111.537 207.897 C 115.356 224.095, 127.887 239.545, 143.101 246.809 C 152.931 251.503, 159.313 253, 169.500 253 C 179.687 253, 186.069 251.503, 195.899 246.809 C 207.586 241.229, 217.229 231.586, 222.809 219.899 C 226.355 212.473, 229 203.737, 229 199.451 C 229 198.199, 220.825 198, 169.500 198 C 113.494 198, 110.001 198.103, 110.015 199.750 M 390.044 219.456 C 376.945 232.568, 371.079 239.084, 372.054 239.439 C 372.849 239.729, 375.510 240.664, 377.967 241.516 C 385.023 243.962, 390.043 247.352, 396.427 253.982 L 402.355 260.138 419.418 243.074 L 436.482 226.011 423.505 213.005 C 416.368 205.852, 410.293 200, 410.005 200 C 409.717 200, 400.734 208.755, 390.044 219.456 M 357.518 251.935 L 351.536 258.027 364.767 271.258 L 377.998 284.489 387.553 274.934 L 397.108 265.379 391.194 259.203 C 384.686 252.406, 375.672 247.448, 367.977 246.434 C 363.554 245.851, 363.428 245.917, 357.518 251.935 " stroke="none" fill="black" fill-rule="evenodd"/>
</svg>