<svg xmlns="http://www.w3.org/2000/svg" width="308" height="324" viewBox="0 0 308 324" version="1.1">
	<path d="M 7.489 127.653 C 5.995 129.148, 5.876 132.924, 6.248 166.903 C 6.706 208.658, 6.871 209.914, 13.756 224 C 18.987 234.703, 32.456 248.099, 43.209 253.295 C 54.142 258.578, 61.722 260.335, 73.500 260.319 C 92.225 260.292, 107.008 254.070, 120.514 240.533 C 132.007 229.014, 137.768 217.302, 140.015 200.893 C 140.850 194.791, 140.831 192.501, 139.936 191.423 C 138.962 190.250, 133.426 190, 108.378 190 L 78 190 78 159.571 C 78 133.242, 77.788 128.931, 76.429 127.571 C 75.064 126.207, 70.537 126, 42 126 C 12.772 126, 8.960 126.183, 7.489 127.653 M 14 162 L 14 190 42 190 L 70 190 70 162 L 70 134 42 134 L 14 134 14 162 M 190.263 175.461 C 182.652 177.179, 173.479 181.942, 167.949 187.047 C 163.664 191.003, 163.155 193.439, 166.214 195.365 C 167.555 196.209, 168.535 195.956, 170.714 194.204 C 183.464 183.952, 189.890 181.559, 202.984 182.185 C 210.295 182.534, 212.814 183.128, 218.127 185.756 C 224.110 188.715, 225.996 190.215, 233.500 197.977 C 235.150 199.684, 239.650 202.629, 243.500 204.521 C 260.406 212.829, 279.011 210.782, 294.778 198.878 C 300.393 194.639, 301.305 191.835, 297.786 189.630 C 296.449 188.792, 295.460 189.046, 293.286 190.788 C 282.054 199.789, 274.870 202.389, 263 201.750 C 250.834 201.094, 244.456 198.379, 236.708 190.559 C 233.294 187.113, 228.623 183.119, 226.329 181.684 C 216.467 175.515, 201.481 172.929, 190.263 175.461 M 14 200.106 C 14 204.389, 17.276 214.704, 20.794 221.500 C 25.634 230.848, 36.182 241.378, 45.603 246.268 C 79.754 263.993, 121.534 245.510, 131.003 208.489 C 132.101 204.194, 133 200.077, 133 199.340 C 133 198.235, 122.566 198, 73.500 198 L 14 198 14 200.106 " stroke="none" fill="black" fill-rule="evenodd"/>
</svg>