<svg xmlns="http://www.w3.org/2000/svg" width="276" height="324" viewBox="0 0 276 324" version="1.1">
	<path d="M 71.571 127.571 C 70.212 128.931, 70 133.242, 70 159.571 L 70 190 39.571 190 C 4.123 190, 5.480 189.635, 6.522 198.877 C 8.523 216.621, 14.012 228.089, 26.461 240.539 C 40.473 254.551, 54.166 260.304, 73.500 260.304 C 92.836 260.304, 106.530 254.550, 120.535 240.539 C 132.401 228.668, 137.642 218.301, 140.019 202 C 140.460 198.975, 141.112 195.771, 141.468 194.879 C 141.837 193.956, 141.414 192.557, 140.486 191.629 C 139.052 190.195, 135.213 190, 108.429 190 L 78 190 78 159.571 C 78 133.242, 77.788 128.931, 76.429 127.571 C 75.564 126.707, 74.471 126, 74 126 C 73.529 126, 72.436 126.707, 71.571 127.571 M 232.369 126.765 C 230.390 128.050, 166.009 257.860, 166.594 259.385 C 167.263 261.129, 169.511 262.125, 171.262 261.453 C 171.956 261.187, 185.431 235.213, 201.206 203.734 L 229.888 146.500 229.944 200.250 L 230 254 215.571 254 C 203.788 254, 200.855 254.288, 199.571 255.571 C 197.598 257.545, 197.598 258.455, 199.571 260.429 C 200.936 261.793, 205.463 262, 234 262 C 262.537 262, 267.064 261.793, 268.429 260.429 C 269.293 259.564, 270 258.471, 270 258 C 270 257.529, 269.293 256.436, 268.429 255.571 C 267.145 254.288, 264.212 254, 252.429 254 L 238 254 238 191.571 C 238 136.152, 237.824 128.966, 236.429 127.571 C 234.680 125.822, 234.022 125.692, 232.369 126.765 M 14.015 199.750 C 14.053 204.233, 17.394 214.962, 20.757 221.397 C 25.685 230.827, 36.173 241.315, 45.603 246.243 C 62.990 255.328, 84.010 255.328, 101.397 246.243 C 110.827 241.315, 121.315 230.827, 126.243 221.397 C 129.606 214.962, 132.947 204.233, 132.985 199.750 C 132.999 198.103, 129.506 198, 73.500 198 C 17.494 198, 14.001 198.103, 14.015 199.750 " stroke="none" fill="black" fill-rule="evenodd"/>
</svg>