<svg xmlns="http://www.w3.org/2000/svg" width="308" height="324" viewBox="0 0 308 324" version="1.1">
	<path d="M 71.571 127.571 C 70.212 128.931, 70 133.242, 70 159.571 L 70 190 39.571 190 C 4.116 190, 5.470 189.636, 6.537 198.877 C 8.594 216.691, 14.079 228.158, 26.461 240.535 C 36.314 250.384, 44.471 255.198, 57 258.560 C 65.648 260.881, 81.335 260.883, 90 258.566 C 111.670 252.770, 130.620 234.747, 137.169 213.705 C 139.995 204.625, 141.416 193.206, 139.941 191.429 C 138.961 190.248, 133.485 190, 108.378 190 L 78 190 78 160.223 C 78 134.890, 77.768 130.113, 76.443 128.223 C 74.598 125.588, 73.678 125.465, 71.571 127.571 M 223.531 127.056 C 195.491 131.410, 173.302 152.492, 167.589 180.208 C 164.568 194.865, 166.349 208.758, 173.010 222.500 C 191.034 259.680, 236.103 271.878, 270.484 248.882 C 288.338 236.941, 298.723 218.345, 299.766 196.451 C 301.515 159.710, 273.807 129.033, 236.673 126.599 C 232.728 126.341, 226.814 126.546, 223.531 127.056 M 218.072 135.532 C 207.451 138.503, 199.919 142.999, 191.394 151.457 C 179.126 163.630, 173.639 176.622, 173.639 193.500 C 173.639 212.507, 181.773 228.870, 197.338 241.173 C 200.001 243.278, 202.524 245, 202.944 245 C 203.364 245, 202.549 242.638, 201.133 239.750 C 198.943 235.287, 198.558 233.151, 198.562 225.500 C 198.566 217.731, 198.943 215.726, 201.314 210.839 C 207.296 198.512, 219.316 190.702, 232.396 190.643 C 240.599 190.607, 245.556 192.005, 252.316 196.261 C 266.466 205.170, 271.995 224.702, 264.773 240.265 L 262.097 246.029 266.799 242.815 C 274.736 237.389, 281.777 229.257, 286.055 220.577 C 295.080 202.265, 295.080 184.735, 286.055 166.423 C 279.478 153.078, 266.927 141.986, 252.723 136.966 C 244.494 134.058, 226.068 133.296, 218.072 135.532 M 14 200.106 C 14 201.264, 14.713 204.976, 15.585 208.356 C 20.838 228.716, 38.284 246.162, 58.644 251.415 C 65.760 253.251, 78.565 253.481, 86.201 251.910 C 89.115 251.310, 95.244 249.032, 99.820 246.847 C 115.079 239.562, 126.717 225.246, 131.003 208.489 C 132.101 204.194, 133 200.077, 133 199.340 C 133 198.235, 122.566 198, 73.500 198 L 14 198 14 200.106 M 221.053 200.555 L 215.605 203.091 224.303 211.788 L 233 220.486 241.697 211.788 L 250.395 203.091 244.947 200.555 C 240.875 198.660, 237.859 198.020, 233 198.020 C 228.141 198.020, 225.125 198.660, 221.053 200.555 M 207.921 214.170 C 204.660 221.136, 204.671 230.583, 207.948 237 C 209.212 239.475, 210.429 241.701, 210.654 241.947 C 210.878 242.193, 214.873 238.603, 219.531 233.969 L 228.001 225.543 219.773 217.271 C 215.247 212.722, 211.274 209, 210.943 209 C 210.612 209, 209.252 211.327, 207.921 214.170 M 246.227 217.271 L 237.999 225.543 246.555 234.021 C 254.793 242.185, 255.166 242.426, 256.599 240.500 C 259.217 236.983, 261.281 228.020, 260.667 222.834 C 260.059 217.705, 256.672 209, 255.284 209 C 254.829 209, 250.753 212.722, 246.227 217.271 M 224.041 239.459 L 215.625 247.918 221.063 250.449 C 225.125 252.340, 228.144 252.980, 233 252.980 C 237.856 252.980, 240.875 252.340, 244.937 250.449 L 250.375 247.918 241.959 239.459 C 237.331 234.807, 233.299 231, 233 231 C 232.701 231, 228.669 234.807, 224.041 239.459 " stroke="none" fill="black" fill-rule="evenodd"/>
</svg>