<svg xmlns="http://www.w3.org/2000/svg" width="388" height="324" viewBox="0 0 388 324" version="1.1">
	<path d="M 39.232 159.250 L 5.895 192.500 6.516 198.500 C 8.357 216.295, 13.903 227.982, 26.461 240.535 C 33.488 247.559, 37.169 250.376, 43 253.193 C 71.041 266.739, 101.703 261.240, 122.324 238.967 C 132.097 228.412, 137.763 216.602, 139.852 202.436 C 140.334 199.171, 141.040 195.771, 141.421 194.879 C 141.833 193.917, 141.453 192.595, 140.486 191.629 C 139.052 190.195, 135.213 190, 108.429 190 L 78 190 78 159.571 C 78 133.242, 77.788 128.931, 76.429 127.571 C 75.564 126.707, 74.342 126, 73.713 126 C 73.084 126, 57.567 140.963, 39.232 159.250 M 295.244 159.256 C 276.960 177.546, 262 193.206, 262 194.056 C 262 197.812, 263.580 198, 295.200 198 L 326 198 326 228.965 C 326 259.475, 326.031 259.946, 328.117 261.062 C 333.030 263.692, 332.978 264.409, 333.043 193.564 C 333.105 125.954, 333.111 126.070, 329.494 126.015 C 328.941 126.007, 313.529 140.965, 295.244 159.256 M 300 164.500 L 274.515 190 300.257 190 L 326 190 326 164.500 C 326 150.475, 325.884 139, 325.743 139 C 325.601 139, 314.017 150.475, 300 164.500 M 44.500 165 L 19.515 190 44.758 190 L 70 190 70 165 C 70 151.250, 69.884 140, 69.742 140 C 69.601 140, 58.242 151.250, 44.500 165 M 167.571 191.571 C 166.707 192.436, 166 193.640, 166 194.249 C 166 194.857, 172.844 202.250, 181.208 210.677 L 196.416 226 181.208 241.323 C 172.844 249.750, 166 257.143, 166 257.751 C 166 259.181, 168.819 262, 170.249 262 C 170.857 262, 178.250 255.156, 186.677 246.792 L 202 231.584 217.323 246.792 C 225.750 255.156, 233.085 262, 233.623 262 C 235.226 262, 237 259.734, 237 257.685 C 237 256.562, 230.951 249.636, 222.367 240.933 L 207.735 226.095 222.367 210.866 C 230.415 202.490, 237 194.909, 237 194.018 C 237 192.221, 235.133 190, 233.623 190 C 233.085 190, 225.750 196.844, 217.323 205.208 L 202 220.416 186.677 205.208 C 178.250 196.844, 170.857 190, 170.249 190 C 169.640 190, 168.436 190.707, 167.571 191.571 M 359.315 207.213 C 349.792 216.680, 342 225.134, 342 226 C 342 227.680, 375.953 262, 377.615 262 C 379.105 262, 381 259.795, 381 258.062 C 381 257.216, 374.143 249.656, 365.762 241.262 L 350.524 226 365.762 210.738 C 374.143 202.344, 381 194.784, 381 193.938 C 381 192.205, 379.105 190, 377.615 190 C 377.073 190, 368.838 197.746, 359.315 207.213 M 14.015 199.750 C 14.052 204.195, 17.385 214.949, 20.722 221.397 C 25.567 230.754, 36.070 241.239, 45.603 246.233 C 68.878 258.427, 96.938 254.159, 115.494 235.603 C 123.358 227.738, 128.760 218.258, 131.485 207.540 C 134.203 196.847, 141.210 198, 73.500 198 C 17.494 198, 14.001 198.103, 14.015 199.750 " stroke="none" fill="black" fill-rule="evenodd"/>
</svg>