<svg xmlns="http://www.w3.org/2000/svg" width="420" height="324" viewBox="0 0 420 324" version="1.1">
	<path d="M 71.571 127.571 C 70.212 128.931, 70 133.242, 70 159.571 L 70 190 39.571 190 C 4.123 190, 5.480 189.635, 6.522 198.877 C 8.523 216.621, 14.012 228.089, 26.461 240.539 C 40.540 254.618, 54.163 260.346, 73.500 260.319 C 91.312 260.293, 105.813 254.655, 118.472 242.832 C 130.648 231.462, 137.710 218.454, 139.825 203.500 C 140.370 199.650, 141.108 195.771, 141.465 194.879 C 141.836 193.953, 141.416 192.559, 140.486 191.629 C 139.052 190.195, 135.213 190, 108.429 190 L 78 190 78 159.571 C 78 133.242, 77.788 128.931, 76.429 127.571 C 75.564 126.707, 74.471 126, 74 126 C 73.529 126, 72.436 126.707, 71.571 127.571 M 369.312 165.201 L 330.065 204.401 322.639 197.201 C 318.555 193.240, 314.624 190, 313.903 190 C 313.183 190, 301.773 200.778, 288.547 213.952 L 264.500 237.904 257.500 239.001 C 248.586 240.398, 237.656 245.737, 232.081 251.418 C 228.344 255.225, 227.950 256.037, 228.939 257.886 C 230.539 260.876, 232.681 260.521, 237.093 256.535 C 240.883 253.111, 248.147 248.981, 253 247.492 C 255.128 246.838, 254.792 247.483, 250.750 251.819 C 248.137 254.621, 246 257.482, 246 258.175 C 246 259.899, 280.217 294, 281.946 294 C 282.706 294, 288.992 288.443, 295.914 281.651 L 308.500 269.303 314.500 271.280 C 322.461 273.904, 335.487 274.040, 343 271.577 C 353.672 268.079, 364 260.646, 364 256.464 C 364 252.434, 360.557 252.410, 355.681 256.406 C 345.723 264.565, 331.288 267.948, 319.003 265.001 L 313.814 263.756 331.907 245.567 C 341.858 235.562, 350 226.794, 350 226.082 C 350 225.370, 346.760 221.445, 342.799 217.361 L 335.599 209.935 374.799 170.688 C 396.360 149.102, 414 130.924, 414 130.292 C 414 128.807, 411.193 126, 409.708 126 C 409.076 126, 390.898 143.640, 369.312 165.201 M 180.764 190.952 C 173.186 193.355, 167.955 199.277, 166.503 207.096 C 165.855 210.586, 167.585 214, 170 214 C 171.861 214, 174 210.700, 174 207.829 C 174 205.718, 175.030 203.770, 177.400 201.400 C 180.302 198.498, 181.488 198, 185.500 198 C 189.512 198, 190.698 198.498, 193.600 201.400 C 199.296 207.096, 198.903 208.183, 181.941 233.589 C 173.658 245.994, 166.657 256.729, 166.383 257.443 C 166.109 258.158, 166.618 259.475, 167.514 260.371 C 169.895 262.753, 202.054 262.803, 204.429 260.429 C 206.402 258.455, 206.402 257.545, 204.429 255.571 C 203.162 254.305, 200.348 254, 189.926 254 L 176.995 254 191.477 232.250 L 205.960 210.500 204.402 206 C 203.546 203.525, 202.002 200.133, 200.972 198.462 C 197.448 192.747, 187.161 188.924, 180.764 190.952 M 14.015 199.750 C 14.023 200.713, 14.708 204.379, 15.537 207.897 C 20.338 228.261, 38.739 246.662, 59.103 251.463 C 66.646 253.241, 78.760 253.441, 86.201 251.910 C 107.176 247.595, 126.544 228.761, 131.463 207.897 C 132.292 204.379, 132.977 200.713, 132.985 199.750 C 132.999 198.103, 129.506 198, 73.500 198 C 17.494 198, 14.001 198.103, 14.015 199.750 M 294.128 219.372 C 283.484 230.026, 275.164 238.967, 275.638 239.240 C 276.112 239.514, 278.300 240.300, 280.500 240.988 C 287.389 243.141, 294.281 247.642, 300.427 254.003 L 306.355 260.138 323.418 243.074 L 340.482 226.011 327.505 213.005 C 320.368 205.852, 314.293 200, 314.005 200 C 313.717 200, 304.772 208.717, 294.128 219.372 M 261.518 251.935 L 255.536 258.027 268.767 271.258 L 281.998 284.489 291.553 274.934 L 301.108 265.379 295.194 259.203 C 288.686 252.406, 279.672 247.448, 271.977 246.434 C 267.554 245.851, 267.428 245.917, 261.518 251.935 " stroke="none" fill="black" fill-rule="evenodd"/>
</svg>