<svg xmlns="http://www.w3.org/2000/svg" width="403" height="324" viewBox="0 0 403 324" version="1.1">
	<path d="M 71.571 127.571 C 70.212 128.931, 70 133.242, 70 159.571 L 70 190 39.571 190 C 4.123 190, 5.480 189.635, 6.522 198.877 C 8.523 216.624, 14.012 228.091, 26.461 240.535 C 36.299 250.368, 44.878 255.430, 57.209 258.677 C 65.643 260.897, 81.484 260.844, 90 258.566 C 111.438 252.832, 129.705 235.705, 137.002 214.495 C 139.762 206.472, 141.445 193.241, 139.936 191.423 C 138.962 190.250, 133.426 190, 108.378 190 L 78 190 78 159.571 C 78 133.242, 77.788 128.931, 76.429 127.571 C 75.564 126.707, 74.471 126, 74 126 C 73.529 126, 72.436 126.707, 71.571 127.571 M 183.239 143.260 C 173.758 152.754, 166 161.288, 166 162.225 C 166 163.163, 166.959 164.443, 168.131 165.070 C 170.073 166.110, 171.495 164.981, 184.131 152.369 L 198 138.527 198 199.228 C 198 259.533, 198.013 259.937, 200.064 261.034 C 205.059 263.708, 205 264.453, 205 199.174 L 205 138.592 218.830 152.296 C 226.437 159.833, 233.132 166, 233.708 166 C 235.297 166, 237.208 163.291, 236.833 161.570 C 236.418 159.665, 203.028 126, 201.554 126 C 200.963 126, 192.721 133.767, 183.239 143.260 M 263.750 127.076 C 261.422 128.437, 261.524 131.675, 263.934 132.965 C 265.207 133.646, 286.597 134, 326.434 134 C 359.745 134, 387 134.224, 387 134.498 C 387 134.772, 373.164 162.671, 356.254 196.497 C 330.896 247.222, 325.702 258.304, 326.613 259.749 C 327.630 261.361, 330.405 261.500, 361.500 261.500 C 392.586 261.500, 395.370 261.360, 396.386 259.750 C 397.191 258.474, 397.191 257.526, 396.386 256.250 C 395.382 254.658, 392.613 254.476, 365.641 254.235 C 349.339 254.089, 336 253.753, 336 253.487 C 336 253.222, 349.836 225.329, 366.746 191.503 C 392.103 140.780, 397.298 129.695, 396.387 128.251 C 395.355 126.616, 390.980 126.485, 330.391 126.276 C 287.547 126.129, 264.905 126.400, 263.750 127.076 M 14.015 199.750 C 14.023 200.713, 14.708 204.379, 15.537 207.897 C 20.363 228.369, 38.631 246.637, 59.103 251.463 C 66.646 253.241, 78.760 253.441, 86.201 251.910 C 89.115 251.310, 95.244 249.032, 99.820 246.847 C 115.079 239.562, 126.717 225.246, 131.003 208.489 C 132.101 204.194, 133 200.077, 133 199.340 C 133 198.235, 122.566 198, 73.500 198 C 17.494 198, 14.001 198.103, 14.015 199.750 " stroke="none" fill="black" fill-rule="evenodd"/>
</svg>