<svg xmlns="http://www.w3.org/2000/svg" width="372" height="324" viewBox="0 0 372 324" version="1.1">
	<path d="M 71.571 127.571 C 70.212 128.931, 70 133.242, 70 159.571 L 70 190 39.571 190 C 3.866 190, 5.407 189.561, 6.543 199.402 C 8.546 216.744, 14.065 228.143, 26.461 240.539 C 40.524 254.602, 54.216 260.376, 73.500 260.376 C 91.249 260.376, 105.740 254.723, 118.472 242.832 C 130.597 231.509, 136.911 220.073, 139.634 204.500 C 140.404 200.100, 141.266 195.760, 141.551 194.855 C 141.835 193.951, 141.345 192.488, 140.463 191.605 C 139.059 190.202, 135.031 190, 108.429 190 L 78 190 78 159.571 C 78 133.242, 77.788 128.931, 76.429 127.571 C 75.564 126.707, 74.471 126, 74 126 C 73.529 126, 72.436 126.707, 71.571 127.571 M 263.571 159.571 C 262.707 160.436, 262 161.636, 262 162.239 C 262 162.841, 267.941 169.334, 275.202 176.667 L 288.405 190 228.774 190 C 175.897 190, 168.965 190.178, 167.571 191.571 C 165.598 193.545, 165.598 194.455, 167.571 196.429 C 168.965 197.822, 175.897 198, 228.774 198 L 288.405 198 275.202 211.333 C 267.941 218.666, 262 225.159, 262 225.761 C 262 227.178, 264.822 230, 266.239 230 C 266.841 230, 273.334 224.059, 280.667 216.798 L 294 203.595 294 215.226 C 294 224.466, 294.323 227.180, 295.571 228.429 C 296.936 229.793, 301.463 230, 330 230 C 358.537 230, 363.064 229.793, 364.429 228.429 C 365.793 227.064, 366 222.537, 366 194 C 366 165.463, 365.793 160.936, 364.429 159.571 C 363.064 158.207, 358.537 158, 330 158 C 301.463 158, 296.936 158.207, 295.571 159.571 C 294.323 160.820, 294 163.534, 294 172.774 L 294 184.405 280.667 171.202 C 273.334 163.941, 266.841 158, 266.239 158 C 265.636 158, 264.436 158.707, 263.571 159.571 M 302 194 L 302 222 330 222 L 358 222 358 194 L 358 166 330 166 L 302 166 302 194 M 14 199.451 C 14 203.737, 16.645 212.473, 20.191 219.899 C 27.645 235.510, 44.090 248.473, 60.799 251.910 C 67.587 253.306, 79.413 253.306, 86.201 251.910 C 102.910 248.473, 119.355 235.510, 126.809 219.899 C 130.355 212.473, 133 203.737, 133 199.451 C 133 198.199, 124.825 198, 73.500 198 C 22.175 198, 14 198.199, 14 199.451 " stroke="none" fill="black" fill-rule="evenodd"/>
</svg>