<svg xmlns="http://www.w3.org/2000/svg" width="403" height="324" viewBox="0 0 403 324" version="1.1">
	<path d="M 71.571 127.571 C 70.212 128.931, 70 133.242, 70 159.571 L 70 190 39.571 190 C 4.123 190, 5.480 189.635, 6.522 198.877 C 8.523 216.624, 14.012 228.091, 26.461 240.535 C 36.299 250.368, 44.878 255.430, 57.209 258.677 C 65.643 260.897, 81.484 260.844, 90 258.566 C 111.438 252.832, 129.705 235.705, 137.002 214.495 C 139.762 206.472, 141.445 193.241, 139.936 191.423 C 138.962 190.250, 133.426 190, 108.378 190 L 78 190 78 159.571 C 78 133.242, 77.788 128.931, 76.429 127.571 C 75.564 126.707, 74.471 126, 74 126 C 73.529 126, 72.436 126.707, 71.571 127.571 M 199.750 127.080 C 198.113 128.034, 198 132.152, 198 191.050 L 198 254 183.934 254 C 169.308 254, 166 254.738, 166 258 C 166 261.750, 168.791 262.037, 202.601 261.764 C 232.469 261.523, 235.378 261.349, 236.386 259.750 C 237.190 258.475, 237.191 257.525, 236.387 256.250 C 235.430 254.730, 233.291 254.464, 220.142 254.224 L 205 253.948 205 191.174 C 205 123.280, 205.058 123.988, 199.750 127.080 M 322.355 191.039 C 311.908 193.107, 302.238 200.743, 297.279 210.840 C 294.865 215.756, 294.500 217.683, 294.500 225.500 C 294.500 233.317, 294.865 235.244, 297.279 240.160 C 298.808 243.272, 301.845 247.660, 304.028 249.910 L 307.998 254 286.933 254 C 274.325 254, 265.092 254.416, 263.934 255.035 C 261.440 256.370, 261.448 259.634, 263.948 260.972 C 265.256 261.672, 287.132 261.930, 330.589 261.757 C 390.951 261.517, 395.356 261.383, 396.386 259.750 C 397.191 258.474, 397.191 257.526, 396.387 256.250 C 395.398 254.682, 392.950 254.472, 372.814 254.232 L 350.345 253.963 354.316 249.788 C 363.238 240.409, 366.440 225.532, 362.052 213.847 C 357.754 202.403, 349.145 194.575, 337.530 191.550 C 331.070 189.867, 328.684 189.787, 322.355 191.039 M 14 200.106 C 14 201.264, 14.713 204.976, 15.585 208.356 C 20.889 228.914, 38.828 246.683, 59.103 251.463 C 66.646 253.241, 78.760 253.441, 86.201 251.910 C 89.115 251.310, 95.244 249.032, 99.820 246.847 C 115.079 239.562, 126.717 225.246, 131.003 208.489 C 132.101 204.194, 133 200.077, 133 199.340 C 133 198.235, 122.566 198, 73.500 198 L 14 198 14 200.106 M 317.053 200.555 L 311.605 203.091 320.303 211.788 L 329 220.486 337.697 211.788 L 346.395 203.091 340.947 200.555 C 336.875 198.660, 333.859 198.020, 329 198.020 C 324.141 198.020, 321.125 198.660, 317.053 200.555 M 303.921 214.170 C 300.660 221.136, 300.671 230.583, 303.948 237 C 305.212 239.475, 306.429 241.701, 306.654 241.947 C 306.878 242.193, 310.873 238.603, 315.531 233.969 L 324.001 225.543 315.773 217.271 C 311.247 212.722, 307.274 209, 306.943 209 C 306.612 209, 305.252 211.327, 303.921 214.170 M 342.227 217.271 L 333.999 225.543 342.484 233.984 C 350.626 242.084, 351.030 242.346, 352.477 240.462 C 355.186 236.939, 357.282 228.030, 356.653 222.718 C 356.082 217.896, 352.506 209, 351.139 209 C 350.763 209, 346.753 212.722, 342.227 217.271 M 320.090 239.409 L 311.724 247.819 316.112 250.067 C 318.988 251.541, 322.959 252.477, 327.639 252.782 C 333.834 253.187, 335.544 252.898, 340.583 250.591 L 346.389 247.933 337.966 239.466 C 333.334 234.810, 329.299 231, 329 231 C 328.701 231, 324.691 234.784, 320.090 239.409 " stroke="none" fill="black" fill-rule="evenodd"/>
</svg>