<svg xmlns="http://www.w3.org/2000/svg" width="308" height="324" viewBox="0 0 308 324" version="1.1">
	<path d="M 71.571 127.571 C 70.212 128.931, 70 133.242, 70 159.571 L 70 190 39.571 190 C 3.866 190, 5.407 189.561, 6.543 199.402 C 8.546 216.746, 14.065 228.145, 26.461 240.535 C 36.299 250.368, 44.878 255.430, 57.209 258.677 C 65.643 260.897, 81.484 260.844, 90 258.566 C 111.438 252.832, 129.705 235.705, 137.002 214.495 C 139.762 206.472, 141.445 193.241, 139.936 191.423 C 138.962 190.250, 133.426 190, 108.378 190 L 78 190 78 159.571 C 78 133.242, 77.788 128.931, 76.429 127.571 C 75.564 126.707, 74.471 126, 74 126 C 73.529 126, 72.436 126.707, 71.571 127.571 M 263.750 159.080 C 262.788 159.641, 262 160.858, 262 161.786 C 262 162.714, 267.956 169.442, 275.236 176.737 L 288.472 190 229.170 190 C 190.204 190, 169.205 190.355, 167.934 191.035 C 165.446 192.367, 165.446 195.633, 167.934 196.965 C 169.205 197.645, 190.204 198, 229.170 198 L 288.472 198 275.236 211.263 C 267.956 218.558, 262 225.292, 262 226.228 C 262 227.164, 262.960 228.443, 264.133 229.071 C 266.084 230.115, 267.752 228.729, 283.633 212.867 C 293.185 203.327, 301 194.837, 301 194 C 301 192.655, 267.224 157.954, 265.990 158.030 C 265.720 158.047, 264.712 158.519, 263.750 159.080 M 14.015 199.750 C 14.053 204.243, 17.397 214.965, 20.767 221.397 C 25.761 230.930, 36.246 241.433, 45.603 246.278 C 79.794 263.977, 121.535 245.507, 131.003 208.489 C 132.101 204.194, 133 200.077, 133 199.340 C 133 198.235, 122.566 198, 73.500 198 C 17.494 198, 14.001 198.103, 14.015 199.750 M 183.315 239.213 C 173.792 248.680, 166 257.134, 166 258 C 166 259.680, 199.953 294, 201.615 294 C 203.114 294, 205 291.791, 205 290.036 C 205 289.175, 199.143 282.628, 191.985 275.486 L 178.970 262.500 239.126 262 C 295.013 261.535, 299.361 261.376, 300.386 259.750 C 301.191 258.474, 301.191 257.526, 300.386 256.250 C 299.361 254.624, 295.013 254.465, 239.126 254 L 178.970 253.500 191.985 240.514 C 199.143 233.372, 205 226.825, 205 225.964 C 205 224.209, 203.114 222, 201.615 222 C 201.073 222, 192.838 229.746, 183.315 239.213 " stroke="none" fill="black" fill-rule="evenodd"/>
</svg>