<svg xmlns="http://www.w3.org/2000/svg" width="372" height="324" viewBox="0 0 372 324" version="1.1">
	<path d="M 71.571 127.571 C 70.212 128.931, 70 133.242, 70 159.571 L 70 190 39.571 190 C 4.116 190, 5.470 189.636, 6.537 198.877 C 8.632 217.021, 15.357 230.556, 28.281 242.646 C 46.661 259.840, 71.861 265.030, 96.076 256.609 C 119.230 248.556, 136.329 227.308, 140.019 202 C 140.460 198.975, 141.112 195.771, 141.468 194.879 C 141.837 193.956, 141.414 192.557, 140.486 191.629 C 139.052 190.195, 135.213 190, 108.429 190 L 78 190 78 159.571 C 78 133.242, 77.788 128.931, 76.429 127.571 C 75.564 126.707, 74.471 126, 74 126 C 73.529 126, 72.436 126.707, 71.571 127.571 M 232.369 126.765 C 231.416 127.384, 166 257.155, 166 258.426 C 166 258.663, 166.707 259.564, 167.571 260.429 C 168.936 261.793, 173.463 262, 202 262 C 230.537 262, 235.064 261.793, 236.429 260.429 C 237.293 259.564, 238 258.471, 238 258 C 238 257.529, 237.293 256.436, 236.429 255.571 C 235.071 254.214, 230.849 254, 205.430 254 L 176.002 254 204.747 196.500 C 220.557 164.875, 233.722 139, 234.003 139 C 234.284 139, 248.010 166.059, 264.507 199.131 C 281.003 232.204, 295.095 259.879, 295.821 260.631 C 296.887 261.735, 303.506 262, 330 262 C 358.537 262, 363.064 261.793, 364.429 260.429 C 366.402 258.455, 366.402 257.545, 364.429 255.571 C 363.067 254.210, 358.667 254, 331.430 254 L 300.003 254 268.383 190.750 C 239.939 133.854, 235.783 126.031, 234 126.031 C 233.725 126.031, 232.991 126.361, 232.369 126.765 M 14.015 199.750 C 14.053 204.233, 17.394 214.962, 20.757 221.397 C 25.685 230.827, 36.173 241.315, 45.603 246.243 C 62.963 255.314, 83.916 255.327, 101.397 246.278 C 110.754 241.433, 121.239 230.930, 126.233 221.397 C 129.603 214.965, 132.947 204.243, 132.985 199.750 C 132.999 198.103, 129.506 198, 73.500 198 C 17.494 198, 14.001 198.103, 14.015 199.750 " stroke="none" fill="black" fill-rule="evenodd"/>
</svg>