<svg xmlns="http://www.w3.org/2000/svg" width="308" height="324" viewBox="0 0 308 324" version="1.1">
	<path d="M 71.571 127.571 C 70.212 128.931, 70 133.242, 70 159.571 L 70 190 39.571 190 C 3.866 190, 5.407 189.561, 6.543 199.402 C 8.546 216.746, 14.065 228.145, 26.461 240.535 C 36.299 250.368, 44.878 255.430, 57.209 258.677 C 65.643 260.897, 81.484 260.844, 90 258.566 C 111.438 252.832, 129.705 235.705, 137.002 214.495 C 139.762 206.472, 141.445 193.241, 139.936 191.423 C 138.962 190.250, 133.426 190, 108.378 190 L 78 190 78 160.223 C 78 134.890, 77.768 130.113, 76.443 128.223 C 74.598 125.588, 73.678 125.465, 71.571 127.571 M 167.200 159.200 C 165.481 160.919, 165.481 227.081, 167.200 228.800 C 168.918 230.518, 234.082 230.518, 235.800 228.800 C 236.625 227.975, 237 222.978, 237 212.800 L 237 198 262.736 198 L 288.472 198 275.236 211.263 C 267.956 218.558, 262 225.292, 262 226.228 C 262 227.164, 262.960 228.443, 264.133 229.071 C 266.084 230.115, 267.752 228.729, 283.633 212.867 C 293.185 203.327, 301 194.837, 301 194 C 301 193.163, 293.185 184.673, 283.633 175.133 C 267.752 159.271, 266.084 157.885, 264.133 158.929 C 262.960 159.557, 262 160.836, 262 161.772 C 262 162.708, 267.956 169.442, 275.236 176.737 L 288.472 190 262.736 190 L 237 190 237 175.200 C 237 165.022, 236.625 160.025, 235.800 159.200 C 234.082 157.482, 168.918 157.482, 167.200 159.200 M 173 194 L 173 222 201.500 222 L 230 222 230 194 L 230 166 201.500 166 L 173 166 173 194 M 14 200.106 C 14 204.389, 17.276 214.704, 20.794 221.500 C 25.634 230.848, 36.182 241.378, 45.603 246.268 C 79.754 263.993, 121.534 245.510, 131.003 208.489 C 132.101 204.194, 133 200.077, 133 199.340 C 133 198.235, 122.566 198, 73.500 198 L 14 198 14 200.106 " stroke="none" fill="black" fill-rule="evenodd"/>
</svg>