<svg xmlns="http://www.w3.org/2000/svg" width="564" height="324" viewBox="0 0 564 324" version="1.1">
	<path d="M 39.571 127.571 C 38.176 128.966, 38 136.152, 38 191.571 L 38 254 23.571 254 C 11.788 254, 8.855 254.288, 7.571 255.571 C 5.598 257.545, 5.598 258.455, 7.571 260.429 C 8.936 261.793, 13.463 262, 42 262 C 70.537 262, 75.064 261.793, 76.429 260.429 C 77.293 259.564, 78 258.471, 78 258 C 78 257.529, 77.293 256.436, 76.429 255.571 C 75.145 254.288, 72.212 254, 60.429 254 L 46 254 46 191.571 C 46 136.152, 45.824 128.966, 44.429 127.571 C 43.564 126.707, 42.471 126, 42 126 C 41.529 126, 40.436 126.707, 39.571 127.571 M 264.515 158 L 232.460 190 168.801 190 C 112.263 190, 104.967 190.176, 103.571 191.571 C 101.598 193.545, 101.598 194.455, 103.571 196.429 C 104.844 197.701, 107.697 198, 118.575 198 L 132.006 198 117.020 227.961 C 108.777 244.439, 102.285 258.580, 102.594 259.384 C 103.265 261.133, 105.512 262.125, 107.274 261.448 C 107.975 261.180, 115.056 247.919, 123.010 231.980 C 130.964 216.041, 137.710 203, 138 203 C 138.290 203, 145.036 216.041, 152.990 231.980 C 160.944 247.919, 168.025 261.180, 168.726 261.448 C 169.427 261.717, 170.573 261.717, 171.274 261.448 C 171.975 261.180, 179.056 247.919, 187.010 231.980 C 194.964 216.041, 201.710 203, 202 203 C 202.290 203, 209.036 216.041, 216.990 231.980 C 224.944 247.919, 232.025 261.180, 232.726 261.448 C 234.488 262.125, 236.735 261.133, 237.406 259.384 C 237.715 258.580, 231.223 244.439, 222.980 227.961 L 207.994 198 221.710 198 L 235.427 198 266.703 166.782 L 297.979 135.563 313.312 150.782 C 321.746 159.152, 329.143 166, 329.751 166 C 331.200 166, 334 163.173, 334 161.710 C 334 160.033, 299.695 126, 298.004 126 C 297.216 126, 282.146 140.400, 264.515 158 M 455.571 159.571 C 454.707 160.436, 454 161.636, 454 162.239 C 454 162.841, 459.941 169.334, 467.202 176.667 L 480.405 190 420.774 190 C 367.897 190, 360.965 190.178, 359.571 191.571 C 357.598 193.545, 357.598 194.455, 359.571 196.429 C 360.965 197.822, 367.897 198, 420.774 198 L 480.405 198 467.202 211.333 C 459.941 218.666, 454 225.159, 454 225.761 C 454 227.187, 456.825 230, 458.257 230 C 460.006 230, 494 195.761, 494 194 C 494 192.239, 460.006 158, 458.257 158 C 457.644 158, 456.436 158.707, 455.571 159.571 M 519.571 159.571 C 518.227 160.916, 518 164.736, 518 186 C 518 207.264, 518.227 211.084, 519.571 212.429 C 520.436 213.293, 521.529 214, 522 214 C 522.471 214, 523.564 213.293, 524.429 212.429 C 525.773 211.084, 526 207.264, 526 186 C 526 164.736, 525.773 160.916, 524.429 159.571 C 523.564 158.707, 522.471 158, 522 158 C 521.529 158, 520.436 158.707, 519.571 159.571 M 156.743 223.500 C 163.750 237.525, 169.715 249, 170 249 C 170.285 249, 176.250 237.525, 183.257 223.500 L 195.995 198 170 198 L 144.005 198 156.743 223.500 M 519.571 222.571 C 518.707 223.436, 518 224.529, 518 225 C 518 226.111, 520.889 229, 522 229 C 523.111 229, 526 226.111, 526 225 C 526 223.889, 523.111 221, 522 221 C 521.529 221, 520.436 221.707, 519.571 222.571 " stroke="none" fill="black" fill-rule="evenodd"/>
</svg>