<svg xmlns="http://www.w3.org/2000/svg" width="564" height="324" viewBox="0 0 564 324" version="1.1">
	<path d="M 7.571 127.571 C 6.207 128.936, 6 133.463, 6 162 C 6 190.537, 6.207 195.064, 7.571 196.429 C 8.844 197.701, 11.697 198, 22.575 198 L 36.006 198 21.020 227.961 C 12.777 244.439, 6.285 258.580, 6.594 259.384 C 7.265 261.133, 9.512 262.125, 11.274 261.448 C 11.975 261.180, 19.056 247.919, 27.010 231.980 C 34.964 216.041, 41.710 203, 42 203 C 42.291 203, 48.822 215.661, 56.514 231.136 C 64.206 246.611, 71.095 259.886, 71.821 260.636 C 73.530 262.400, 74.501 262.356, 76.429 260.429 C 77.825 259.032, 78 251.628, 78 194 C 78 136.372, 77.825 128.968, 76.429 127.571 C 74.455 125.598, 73.545 125.598, 71.571 127.571 C 70.212 128.931, 70 133.242, 70 159.571 L 70 190 42 190 L 14 190 14 159.571 C 14 133.242, 13.788 128.931, 12.429 127.571 C 11.564 126.707, 10.471 126, 10 126 C 9.529 126, 8.436 126.707, 7.571 127.571 M 264.515 158 L 232.460 190 168.801 190 C 112.263 190, 104.967 190.176, 103.571 191.571 C 101.598 193.545, 101.598 194.455, 103.571 196.429 C 104.844 197.701, 107.697 198, 118.575 198 L 132.006 198 117.020 227.961 C 108.777 244.439, 102.285 258.580, 102.594 259.384 C 103.265 261.133, 105.512 262.125, 107.274 261.448 C 107.975 261.180, 115.056 247.919, 123.010 231.980 C 130.964 216.041, 137.710 203, 138 203 C 138.290 203, 145.036 216.041, 152.990 231.980 C 160.944 247.919, 168.025 261.180, 168.726 261.448 C 169.427 261.717, 170.573 261.717, 171.274 261.448 C 171.975 261.180, 179.056 247.919, 187.010 231.980 C 194.964 216.041, 201.710 203, 202 203 C 202.290 203, 209.036 216.041, 216.990 231.980 C 224.944 247.919, 232.025 261.180, 232.726 261.448 C 234.488 262.125, 236.735 261.133, 237.406 259.384 C 237.715 258.580, 231.223 244.439, 222.980 227.961 L 207.994 198 221.710 198 L 235.427 198 266.703 166.782 L 297.979 135.563 313.312 150.782 C 321.746 159.152, 329.143 166, 329.751 166 C 331.200 166, 334 163.173, 334 161.710 C 334 160.033, 299.695 126, 298.004 126 C 297.216 126, 282.146 140.400, 264.515 158 M 455.571 159.571 C 454.707 160.436, 454 161.636, 454 162.239 C 454 162.841, 459.941 169.334, 467.202 176.667 L 480.405 190 420.774 190 C 367.897 190, 360.965 190.178, 359.571 191.571 C 357.598 193.545, 357.598 194.455, 359.571 196.429 C 360.965 197.822, 367.897 198, 420.774 198 L 480.405 198 467.202 211.333 C 459.941 218.666, 454 225.159, 454 225.761 C 454 227.187, 456.825 230, 458.257 230 C 460.006 230, 494 195.761, 494 194 C 494 192.239, 460.006 158, 458.257 158 C 457.644 158, 456.436 158.707, 455.571 159.571 M 519.571 159.571 C 518.227 160.916, 518 164.736, 518 186 C 518 207.264, 518.227 211.084, 519.571 212.429 C 520.436 213.293, 521.529 214, 522 214 C 522.471 214, 523.564 213.293, 524.429 212.429 C 525.773 211.084, 526 207.264, 526 186 C 526 164.736, 525.773 160.916, 524.429 159.571 C 523.564 158.707, 522.471 158, 522 158 C 521.529 158, 520.436 158.707, 519.571 159.571 M 58.607 219.250 C 64.446 230.938, 69.398 240.688, 69.612 240.917 C 69.825 241.146, 70 231.583, 70 219.667 L 70 198 58.995 198 L 47.991 198 58.607 219.250 M 156.743 223.500 C 163.750 237.525, 169.715 249, 170 249 C 170.285 249, 176.250 237.525, 183.257 223.500 L 195.995 198 170 198 L 144.005 198 156.743 223.500 M 519.571 222.571 C 518.707 223.436, 518 224.529, 518 225 C 518 226.111, 520.889 229, 522 229 C 523.111 229, 526 226.111, 526 225 C 526 223.889, 523.111 221, 522 221 C 521.529 221, 520.436 221.707, 519.571 222.571 " stroke="none" fill="black" fill-rule="evenodd"/>
</svg>