<svg xmlns="http://www.w3.org/2000/svg" width="403" height="324" viewBox="0 0 403 324" version="1.1">
	<path d="M 7.571 127.571 C 6.207 128.936, 6 133.463, 6 162 C 6 190.537, 6.207 195.064, 7.571 196.429 C 8.844 197.701, 11.697 198, 22.575 198 L 36.006 198 21.020 227.961 C 12.777 244.439, 6.285 258.580, 6.594 259.384 C 7.265 261.133, 9.512 262.125, 11.274 261.448 C 11.975 261.180, 19.056 247.919, 27.010 231.980 C 34.964 216.041, 41.714 203, 42.009 203 C 42.304 203, 49.101 216.162, 57.113 232.250 C 65.625 249.342, 72.319 261.625, 73.219 261.800 C 74.065 261.965, 75.487 261.370, 76.379 260.479 C 77.840 259.017, 78 252.475, 78 194 C 78 136.372, 77.825 128.968, 76.429 127.571 C 74.455 125.598, 73.545 125.598, 71.571 127.571 C 70.212 128.931, 70 133.242, 70 159.571 L 70 190 42 190 L 14 190 14 159.571 C 14 133.242, 13.788 128.931, 12.429 127.571 C 11.564 126.707, 10.471 126, 10 126 C 9.529 126, 8.436 126.707, 7.571 127.571 M 103.200 191.200 C 102.315 192.085, 102 201.117, 102 225.629 C 102 254.503, 102.206 259.063, 103.571 260.429 C 105.678 262.535, 106.598 262.412, 108.443 259.777 C 109.768 257.887, 110 253.110, 110 227.777 L 110 198 170 198 L 230 198 230 228.965 C 230 259.475, 230.031 259.946, 232.117 261.062 C 236.746 263.540, 236.948 262.076, 237.027 225.577 C 237.084 198.796, 236.826 191.506, 235.800 190.855 C 233.591 189.454, 104.610 189.790, 103.200 191.200 M 276 191.131 C 270.834 192.664, 266.477 196.383, 264.102 201.289 C 261.357 206.960, 261.342 211.577, 264.064 213.034 C 266.859 214.530, 268.666 212.916, 269.482 208.192 C 270.959 199.641, 279.300 195.518, 287.033 199.517 C 295.270 203.777, 294.534 216.675, 285.868 219.921 C 278.176 222.802, 278 222.927, 278 225.500 C 278 228.073, 278.176 228.198, 285.868 231.079 C 294.534 234.325, 295.270 247.223, 287.033 251.483 C 279.550 255.353, 271.073 251.411, 269.544 243.350 C 268.725 239.030, 266.768 237.519, 263.945 239.029 C 259.005 241.673, 264.567 254.290, 272.474 258.375 C 277.676 261.063, 285.431 261.103, 289.935 258.464 C 295.957 254.937, 299.321 249.710, 299.796 243.145 C 300.254 236.815, 298.760 232.629, 294.365 227.924 L 291.959 225.347 294.086 223.424 C 300.895 217.265, 301.969 205.240, 296.331 198.265 C 290.921 191.571, 283.407 188.934, 276 191.131 M 353 191.315 C 341.911 194.513, 334.179 200.863, 329.318 210.761 C 326.861 215.765, 326.500 217.653, 326.500 225.500 C 326.500 233.347, 326.861 235.235, 329.318 240.239 C 334.625 251.047, 343.922 257.991, 356.120 260.259 C 375.667 263.895, 396.603 245.807, 396.354 225.500 C 396.228 215.300, 390.140 203.322, 382.081 197.419 C 373.740 191.309, 361.746 188.791, 353 191.315 M 58.607 219.250 C 64.446 230.938, 69.398 240.688, 69.612 240.917 C 69.825 241.146, 70 231.583, 70 219.667 L 70 198 58.995 198 L 47.991 198 58.607 219.250 M 349.500 200.353 C 341.749 203.970, 334 213.854, 334 220.122 C 334 221.913, 335.252 222, 361 222 C 387.476 222, 388 221.961, 388 219.968 C 388 213.729, 380.310 203.998, 372.500 200.353 C 368.874 198.661, 365.714 198.020, 361 198.020 C 356.286 198.020, 353.126 198.661, 349.500 200.353 M 334 231.378 C 334 236.721, 341.699 246.779, 348.432 250.231 C 354.736 253.462, 365.244 253.811, 371.767 251.005 C 377.494 248.541, 384.341 241.822, 386.576 236.472 C 389.431 229.638, 390.861 230, 361 230 C 338.730 230, 334 230.241, 334 231.378 " stroke="none" fill="black" fill-rule="evenodd"/>
</svg>