<svg xmlns="http://www.w3.org/2000/svg" width="532" height="324" viewBox="0 0 532 324" version="1.1">
	<path d="M 7.571 127.571 C 6.207 128.936, 6 133.463, 6 162 C 6 190.537, 6.207 195.064, 7.571 196.429 C 8.844 197.701, 11.697 198, 22.575 198 L 36.006 198 21.020 227.961 C 12.777 244.439, 6.285 258.580, 6.594 259.384 C 7.265 261.133, 9.512 262.125, 11.274 261.448 C 11.975 261.180, 19.056 247.919, 27.010 231.980 C 34.964 216.041, 41.717 203, 42.016 203 C 42.315 203, 49.042 216.034, 56.965 231.964 C 69.336 256.836, 72.352 262, 74.510 262 C 74.701 262, 75.564 261.293, 76.429 260.429 C 77.825 259.032, 78 251.628, 78 194 C 78 136.372, 77.825 128.968, 76.429 127.571 C 74.455 125.598, 73.545 125.598, 71.571 127.571 C 70.212 128.931, 70 133.242, 70 159.571 L 70 190 42 190 L 14 190 14 159.571 C 14 133.242, 13.788 128.931, 12.429 127.571 C 11.564 126.707, 10.471 126, 10 126 C 9.529 126, 8.436 126.707, 7.571 127.571 M 264.500 158 L 232.512 190 168.827 190 C 112.266 190, 104.967 190.176, 103.571 191.571 C 101.598 193.545, 101.598 194.455, 103.571 196.429 C 104.844 197.701, 107.697 198, 118.575 198 L 132.006 198 117.020 227.961 C 108.777 244.439, 102.285 258.580, 102.594 259.384 C 103.265 261.133, 105.512 262.125, 107.274 261.448 C 107.975 261.180, 115.056 247.919, 123.010 231.980 C 130.964 216.041, 137.717 203, 138.016 203 C 138.315 203, 145.042 216.034, 152.965 231.964 C 160.888 247.894, 167.962 261.155, 168.685 261.433 C 169.408 261.710, 170.573 261.717, 171.274 261.448 C 171.975 261.180, 179.056 247.919, 187.010 231.980 C 194.964 216.041, 201.710 203, 202 203 C 202.290 203, 209.036 216.041, 216.990 231.980 C 224.944 247.919, 232.083 261.201, 232.853 261.497 C 234.718 262.213, 237 260.217, 237 257.871 C 237 256.835, 230.473 242.940, 222.497 226.993 L 207.993 198 221.710 198 L 235.427 198 266.703 166.782 L 297.979 135.563 313.312 150.782 C 321.746 159.152, 329.085 166, 329.623 166 C 331.147 166, 333 163.773, 333 161.941 C 333 159.906, 299.898 126, 297.911 126 C 297.129 126, 282.094 140.400, 264.500 158 M 415.205 191.092 C 390.551 194.849, 369.116 213.210, 361.555 237.046 C 360.238 241.197, 358.850 247.752, 358.469 251.614 C 357.891 257.479, 358.055 258.912, 359.460 260.317 C 360.386 261.243, 361.535 262, 362.015 262 C 363.925 262, 366 257.308, 366 252.988 C 366 240.577, 372.422 226.527, 382.960 215.885 C 394.966 203.759, 408.563 198, 425.184 198 C 449.805 198, 471.742 212.640, 480.614 234.992 C 481.817 238.021, 483.112 242.075, 483.493 244 C 484.143 247.283, 483.382 246.702, 471.224 234.645 C 459.287 222.807, 458.088 221.883, 456.070 222.963 C 454.751 223.669, 454.002 224.888, 454.189 226.025 C 454.548 228.205, 487.670 262, 489.449 262 C 490.994 262, 524.399 228.420, 524.833 226.430 C 525.208 224.707, 523.297 222, 521.705 222 C 521.128 222, 514.261 228.339, 506.447 236.087 L 492.239 250.173 490.543 242.550 C 486.240 223.209, 472.749 206.225, 454.933 197.719 C 449.745 195.242, 443.475 192.743, 441 192.165 C 434.002 190.530, 422.132 190.036, 415.205 191.092 M 58.607 219.250 C 64.446 230.938, 69.398 240.688, 69.612 240.917 C 69.825 241.146, 70 231.583, 70 219.667 L 70 198 58.995 198 L 47.991 198 58.607 219.250 M 156.743 223.500 C 163.750 237.525, 169.715 249, 170 249 C 170.285 249, 176.250 237.525, 183.257 223.500 L 195.995 198 170 198 L 144.005 198 156.743 223.500 " stroke="none" fill="black" fill-rule="evenodd"/>
</svg>