<svg xmlns="http://www.w3.org/2000/svg" width="500" height="324" viewBox="0 0 500 324" version="1.1">
	<path d="M 7.571 127.571 C 6.207 128.936, 6 133.463, 6 162 C 6 190.537, 6.207 195.064, 7.571 196.429 C 8.844 197.701, 11.697 198, 22.575 198 L 36.006 198 21.020 227.961 C 12.777 244.439, 6.285 258.580, 6.594 259.384 C 7.265 261.133, 9.512 262.125, 11.274 261.448 C 11.975 261.180, 19.056 247.919, 27.010 231.980 C 34.964 216.041, 41.717 203, 42.016 203 C 42.315 203, 49.042 216.034, 56.965 231.964 C 69.336 256.836, 72.352 262, 74.510 262 C 74.701 262, 75.564 261.293, 76.429 260.429 C 77.825 259.032, 78 251.628, 78 194 C 78 136.372, 77.825 128.968, 76.429 127.571 C 74.455 125.598, 73.545 125.598, 71.571 127.571 C 70.212 128.931, 70 133.242, 70 159.571 L 70 190 42 190 L 14 190 14 159.571 C 14 133.242, 13.788 128.931, 12.429 127.571 C 11.564 126.707, 10.471 126, 10 126 C 9.529 126, 8.436 126.707, 7.571 127.571 M 264.500 158 L 232.512 190 168.827 190 C 112.266 190, 104.967 190.176, 103.571 191.571 C 101.598 193.545, 101.598 194.455, 103.571 196.429 C 104.844 197.701, 107.697 198, 118.575 198 L 132.006 198 117.020 227.961 C 108.777 244.439, 102.285 258.580, 102.594 259.384 C 103.451 261.617, 106.104 262.217, 107.895 260.584 C 108.778 259.779, 115.794 246.493, 123.486 231.060 C 131.178 215.627, 137.744 203, 138.077 203 C 138.410 203, 145.038 216.014, 152.807 231.920 C 160.576 247.826, 167.401 261.130, 167.975 261.484 C 170.863 263.270, 173.172 259.686, 187.125 231.762 L 201.744 202.502 216.310 231.620 C 224.485 247.962, 231.617 261.023, 232.565 261.386 C 234.679 262.198, 237 260.358, 237 257.871 C 237 256.835, 230.473 242.940, 222.497 226.993 L 207.993 198 221.283 198 L 234.573 198 266.007 166.509 L 297.440 135.019 313.041 150.509 C 321.621 159.029, 329.117 166, 329.698 166 C 331.296 166, 333.209 163.296, 332.833 161.570 C 332.419 159.669, 299.030 126, 297.559 126 C 296.970 126, 282.094 140.400, 264.500 158 M 413.500 127.480 C 386.403 132.512, 365.126 153.025, 359.511 179.529 C 357.307 189.937, 357.504 195.664, 360.117 197.062 C 363.374 198.806, 364.575 196.650, 365.916 186.650 C 367.339 176.038, 369.762 169.206, 374.886 161.354 C 382.134 150.247, 392.019 142.275, 404.803 137.225 C 410.803 134.856, 412.853 134.576, 424.500 134.540 C 435.626 134.506, 438.484 134.840, 444.326 136.857 C 453.442 140.004, 464.960 147.864, 470.660 154.828 C 478.771 164.737, 484.929 180.812, 484.983 192.215 C 485.003 196.661, 487.614 198.734, 490.518 196.611 C 494.648 193.591, 489.799 171.015, 482.406 158.845 C 477.314 150.463, 470.784 143.669, 462.484 138.118 C 453.822 132.324, 446.348 129.308, 436 127.431 C 426.892 125.778, 422.617 125.787, 413.500 127.480 M 391.244 223.256 C 372.960 241.546, 358 257.206, 358 258.056 C 358 261.988, 358.212 262, 425.500 262 C 492.818 262, 493 261.989, 493 258.044 C 493 256.369, 427.151 190, 425.489 190 C 424.939 190, 409.529 204.965, 391.244 223.256 M 58.607 219.250 C 64.446 230.938, 69.398 240.688, 69.612 240.917 C 69.825 241.146, 70 231.583, 70 219.667 L 70 198 58.995 198 L 47.991 198 58.607 219.250 M 156.608 223.250 C 163.546 237.137, 169.371 248.661, 169.553 248.859 C 169.878 249.211, 195 199.502, 195 198.508 C 195 198.228, 183.523 198, 169.496 198 L 143.992 198 156.608 223.250 M 398 226.500 L 370.514 254 425.500 254 L 480.486 254 453 226.500 C 437.883 211.375, 425.508 199, 425.500 199 C 425.492 199, 413.117 211.375, 398 226.500 " stroke="none" fill="black" fill-rule="evenodd"/>
</svg>