<svg xmlns="http://www.w3.org/2000/svg" width="500" height="324" viewBox="0 0 500 324" version="1.1">
	<path d="M 7.571 127.571 C 6.207 128.936, 6 133.463, 6 162 C 6 199.522, 5.654 198, 14.190 198 L 19.237 198 16.244 201.062 C 8.737 208.740, 4.914 221.372, 7 231.604 C 10.068 246.656, 20.568 257.083, 35.604 260.013 C 40.335 260.935, 43.032 260.932, 47.604 260 C 62.794 256.903, 73.180 246.282, 76.004 230.954 C 77.807 221.169, 73.893 208.362, 66.920 201.229 L 63.763 198 69.310 198 C 77.767 198, 78 197.529, 78 180.429 L 78 166 103.202 166 L 128.405 166 115.202 179.333 C 107.941 186.666, 102 193.159, 102 193.761 C 102 195.202, 104.832 198, 106.290 198 C 107.969 198, 142 163.693, 142 162 C 142 160.307, 107.969 126, 106.290 126 C 104.832 126, 102 128.798, 102 130.239 C 102 130.841, 107.941 137.334, 115.202 144.667 L 128.405 158 103.202 158 L 78 158 78 143.571 C 78 131.788, 77.712 128.855, 76.429 127.571 C 75.064 126.207, 70.537 126, 42 126 C 13.463 126, 8.936 126.207, 7.571 127.571 M 424.500 158 L 392.512 190 329.190 190 C 287.453 190, 265.209 190.353, 263.934 191.035 C 262.870 191.605, 262 192.939, 262 194 C 262 197.203, 265.276 198, 278.434 198 C 285.345 198, 291 198.228, 291 198.507 C 291 198.785, 284.475 212.057, 276.500 228 C 268.525 243.943, 262 257.649, 262 258.458 C 262 260.785, 265.808 262.404, 267.663 260.865 C 268.507 260.164, 275.622 246.749, 283.474 231.052 L 297.750 202.514 312.337 231.674 C 320.360 247.713, 327.395 261.126, 327.971 261.482 C 330.986 263.346, 333.159 259.963, 346.921 231.986 C 354.763 216.044, 361.362 203, 361.586 203 C 361.810 203, 368.492 215.991, 376.435 231.869 C 384.535 248.062, 391.617 261.023, 392.565 261.386 C 394.495 262.127, 397 260.424, 397 258.371 C 397 257.610, 390.475 243.943, 382.500 228 C 374.525 212.057, 368 198.785, 368 198.507 C 368 198.228, 373.965 198, 381.256 198 L 394.512 198 425.997 166.503 L 457.483 135.005 473.245 150.745 C 486.723 164.203, 489.261 166.325, 490.754 165.385 C 494.733 162.880, 493.426 160.948, 475.861 143.361 C 466.324 133.812, 458.064 126, 457.505 126 C 456.946 126, 442.094 140.400, 424.500 158 M 14 162 L 14 190 42 190 L 70 190 70 162 L 70 134 42 134 L 14 134 14 162 M 167.585 191.558 C 165.598 193.545, 165.595 194.452, 167.571 196.429 C 168.855 197.712, 171.788 198, 183.571 198 L 198 198 198 226 L 198 254 183.571 254 C 171.788 254, 168.855 254.288, 167.571 255.571 C 165.595 257.548, 165.598 258.455, 167.585 260.442 C 168.978 261.835, 173.159 261.995, 202.226 261.763 C 232.452 261.523, 235.377 261.350, 236.386 259.750 C 237.190 258.475, 237.191 257.525, 236.387 256.250 C 235.430 254.730, 233.291 254.464, 220.142 254.224 L 205 253.948 205 226 L 205 198.052 220.142 197.776 C 233.291 197.536, 235.430 197.270, 236.387 195.750 C 237.191 194.475, 237.190 193.525, 236.386 192.250 C 235.377 190.650, 232.452 190.477, 202.226 190.237 C 173.159 190.005, 168.978 190.165, 167.585 191.558 M 31.605 199.568 C 24.049 202.337, 24.073 202.527, 33.170 211.671 L 41.457 220.001 49.692 211.809 C 58.838 202.711, 58.906 202.178, 51.260 199.573 C 45.620 197.651, 36.842 197.649, 31.605 199.568 M 316.608 223.250 C 323.546 237.137, 329.371 248.661, 329.553 248.859 C 329.878 249.211, 355 199.502, 355 198.508 C 355 198.228, 343.523 198, 329.496 198 L 303.992 198 316.608 223.250 M 18.184 210.278 C 14.139 215.152, 12.867 227.319, 15.573 235.260 C 18.178 242.906, 18.711 242.838, 27.809 233.692 L 36.001 225.457 27.671 217.170 C 20.854 210.389, 19.131 209.137, 18.184 210.278 M 55.237 217.261 L 46.999 225.543 55.339 233.840 L 63.680 242.137 65.174 239.819 C 70.273 231.908, 70.255 217.967, 65.137 211.182 C 63.477 208.981, 63.471 208.984, 55.237 217.261 M 33.170 239.329 C 24.017 248.530, 24.002 248.678, 31.962 251.487 C 37.497 253.439, 45.426 253.415, 51.260 251.427 C 58.906 248.822, 58.838 248.289, 49.692 239.191 L 41.457 230.999 33.170 239.329 " stroke="none" fill="black" fill-rule="evenodd"/>
</svg>