<svg xmlns="http://www.w3.org/2000/svg" width="308" height="324" viewBox="0 0 308 324" version="1.1">
	<path d="M 7.627 127.515 C 5.597 129.546, 5.587 130.444, 7.571 132.429 C 8.538 133.395, 10.888 134, 13.677 134 C 31.791 134, 53.739 148.457, 62.330 166.046 C 66.084 173.733, 69 183.385, 69 188.122 C 69 190.473, 68.504 190.908, 65.191 191.468 C 60.435 192.271, 52.430 196.780, 48.349 200.954 C 40.750 208.727, 36.966 221.029, 38.987 231.396 C 43.522 254.671, 66.775 266.713, 88.567 257.073 C 94.252 254.559, 101.944 246.828, 104.952 240.605 C 107.819 234.675, 108.807 223.280, 107.061 216.290 C 104.342 205.414, 94.608 195.354, 83.776 192.228 L 77.788 190.500 78.369 184.838 C 80.651 162.624, 99.541 141.522, 122.495 135.543 C 125.754 134.695, 130.711 134, 133.510 134 C 138.790 134, 141 132.797, 141 129.922 C 141 126.416, 138.547 125.730, 130.079 126.870 C 119.811 128.252, 111.135 131.169, 103 135.976 C 91.330 142.871, 79.272 156.834, 75.278 168.079 L 73.619 172.752 69.394 164.126 C 58.992 142.891, 39.378 129.367, 14.877 126.537 C 10.402 126.020, 8.923 126.220, 7.627 127.515 M 63.603 199.477 C 56.223 202.107, 56.291 202.640, 65.189 211.851 L 73.256 220.201 81.591 211.909 C 90.844 202.704, 90.915 202.181, 83.260 199.573 C 77.621 197.652, 68.844 197.609, 63.603 199.477 M 50.192 210.269 C 45.752 215.619, 44.575 229.264, 47.918 236.627 C 48.948 238.896, 50.209 241.011, 50.718 241.326 C 51.228 241.641, 55.325 238.199, 59.823 233.678 L 68.001 225.457 59.671 217.170 C 52.884 210.419, 51.128 209.140, 50.192 210.269 M 86.727 216.772 C 82.477 221.047, 79 224.995, 79 225.546 C 79 226.709, 94.165 242, 95.318 242 C 95.744 242, 97.192 239.637, 98.536 236.750 C 100.274 233.018, 100.980 229.765, 100.980 225.500 C 100.980 219.632, 97.303 209, 95.273 209 C 94.822 209, 90.976 212.497, 86.727 216.772 M 64.720 239.465 L 56.940 247.915 59.347 249.492 C 66.722 254.324, 80.060 254.175, 87.819 249.174 L 90.137 247.680 81.841 239.340 C 77.278 234.753, 73.309 231.004, 73.022 231.008 C 72.735 231.012, 68.999 234.818, 64.720 239.465 M 192.903 239.047 C 185.656 240.138, 176.942 244.030, 170.336 249.127 C 164.675 253.494, 163.128 256.245, 165.040 258.548 C 166.922 260.816, 168.513 260.317, 173.689 255.835 C 176.335 253.545, 180.975 250.515, 184 249.102 C 188.848 246.838, 190.804 246.532, 200.500 246.517 C 210.747 246.501, 211.945 246.712, 218 249.594 C 221.575 251.296, 225.850 254.070, 227.500 255.759 C 229.150 257.449, 231.850 260.237, 233.500 261.956 C 235.150 263.674, 239.650 266.629, 243.500 268.521 C 260.311 276.782, 279.100 274.715, 294.778 262.878 C 300.367 258.658, 301.305 255.835, 297.838 253.663 C 296.521 252.838, 295.055 253.486, 290.787 256.779 C 281.301 264.097, 277.072 265.500, 264.500 265.500 C 254.726 265.500, 252.879 265.209, 247.924 262.885 C 244.550 261.302, 239.780 257.689, 235.846 253.736 C 224.013 241.845, 208.828 236.651, 192.903 239.047 " stroke="none" fill="black" fill-rule="evenodd"/>
</svg>