<svg xmlns="http://www.w3.org/2000/svg" width="436" height="324" viewBox="0 0 436 324" version="1.1">
	<path d="M 7.571 127.571 C 6.207 128.936, 6 133.463, 6 162 C 6 190.537, 6.207 195.064, 7.571 196.429 C 8.844 197.701, 11.697 198, 22.575 198 L 36.006 198 21.020 227.961 C 12.777 244.439, 6.285 258.580, 6.594 259.384 C 7.265 261.133, 9.512 262.125, 11.274 261.448 C 11.975 261.180, 19.056 247.919, 27.010 231.980 C 34.964 216.041, 41.717 203, 42.016 203 C 42.315 203, 49.042 216.034, 56.965 231.964 C 69.336 256.836, 72.352 262, 74.510 262 C 74.701 262, 75.564 261.293, 76.429 260.429 C 77.825 259.032, 78 251.628, 78 194 C 78 136.372, 77.825 128.968, 76.429 127.571 C 74.455 125.598, 73.545 125.598, 71.571 127.571 C 70.212 128.931, 70 133.242, 70 159.571 L 70 190 42 190 L 14 190 14 159.571 C 14 133.242, 13.788 128.931, 12.429 127.571 C 11.564 126.707, 10.471 126, 10 126 C 9.529 126, 8.436 126.707, 7.571 127.571 M 103.200 191.200 C 102.315 192.085, 102 201.117, 102 225.629 C 102 254.503, 102.206 259.063, 103.571 260.429 C 104.436 261.293, 105.529 262, 106 262 C 106.471 262, 107.564 261.293, 108.429 260.429 C 109.788 259.069, 110 254.758, 110 228.429 L 110 198 170 198 L 230 198 230 228.429 C 230 254.758, 230.212 259.069, 231.571 260.429 C 233.545 262.402, 234.455 262.402, 236.429 260.429 C 237.793 259.064, 238 254.537, 238 226 C 238 197.463, 237.793 192.936, 236.429 191.571 C 235.032 190.175, 227.594 190, 169.629 190 C 120.229 190, 104.109 190.291, 103.200 191.200 M 263.571 191.571 C 262.707 192.436, 262 193.640, 262 194.249 C 262 194.857, 268.844 202.250, 277.208 210.677 L 292.416 226 277.208 241.323 C 268.844 249.750, 262 257.143, 262 257.751 C 262 259.181, 264.819 262, 266.249 262 C 266.857 262, 274.250 255.156, 282.677 246.792 L 298 231.584 313.323 246.792 C 321.750 255.156, 329.085 262, 329.623 262 C 331.244 262, 333 259.725, 333 257.625 C 333 256.420, 327.267 249.871, 318.293 240.825 L 303.586 226 318.293 211.175 C 327.267 202.129, 333 195.580, 333 194.375 C 333 192.275, 331.244 190, 329.623 190 C 329.085 190, 321.750 196.844, 313.323 205.208 L 298 220.416 282.677 205.208 C 274.250 196.844, 266.857 190, 266.249 190 C 265.640 190, 264.436 190.707, 263.571 191.571 M 386.355 190.986 C 374.577 193.470, 363.489 203.439, 360.023 214.661 C 357.588 222.546, 357.473 227.861, 359.584 234.972 C 364.037 249.964, 377.279 260.211, 392.419 260.381 C 409.698 260.574, 423.263 249.915, 427.548 232.777 C 429.110 226.531, 429.114 225.544, 427.601 218.843 C 423.974 202.782, 411.779 191.950, 395.768 190.567 C 392.870 190.316, 388.635 190.505, 386.355 190.986 M 58.607 219.250 C 64.446 230.938, 69.398 240.688, 69.612 240.917 C 69.825 241.146, 70 231.583, 70 219.667 L 70 198 58.995 198 L 47.991 198 58.607 219.250 M 383.627 199.468 C 375.862 202.236, 367.901 211.144, 366.394 218.750 L 365.750 222 393.394 222 L 421.038 222 420.377 219.250 C 416.589 203.488, 398.965 194.001, 383.627 199.468 M 366.442 232.750 C 367.555 237.389, 372.324 244.264, 376.797 247.675 C 391.945 259.230, 414.722 251.402, 420.055 232.808 L 420.860 230 393.322 230 L 365.783 230 366.442 232.750 " stroke="none" fill="black" fill-rule="evenodd"/>
</svg>