<svg xmlns="http://www.w3.org/2000/svg" width="340" height="324" viewBox="0 0 340 324" version="1.1">
	<path d="M 7.571 127.571 C 6.207 128.936, 6 133.463, 6 162 C 6 190.537, 6.207 195.064, 7.571 196.429 C 8.844 197.701, 11.697 198, 22.575 198 L 36.006 198 21.020 227.961 C 12.777 244.439, 6.285 258.580, 6.594 259.384 C 7.265 261.133, 9.512 262.125, 11.274 261.448 C 11.975 261.180, 19.056 247.919, 27.010 231.980 C 34.964 216.041, 41.717 203, 42.016 203 C 42.315 203, 49.042 216.034, 56.965 231.964 C 69.336 256.836, 72.352 262, 74.510 262 C 74.701 262, 75.564 261.293, 76.429 260.429 C 77.825 259.032, 78 251.628, 78 194 C 78 136.372, 77.825 128.968, 76.429 127.571 C 74.455 125.598, 73.545 125.598, 71.571 127.571 C 70.212 128.931, 70 133.242, 70 159.571 L 70 190 42 190 L 14 190 14 159.571 C 14 133.242, 13.788 128.931, 12.429 127.571 C 11.564 126.707, 10.471 126, 10 126 C 9.529 126, 8.436 126.707, 7.571 127.571 M 103.571 127.571 C 102.707 128.436, 102 129.529, 102 130 C 102 132.122, 105.426 134.001, 109.321 134.015 C 127.874 134.080, 149.359 148.125, 158.251 166 C 162.557 174.655, 165 183.392, 165 190.139 C 165 194.922, 166.768 198, 169.515 198 C 171.881 198, 174 193.741, 174 188.988 C 174 171.063, 188.209 149.413, 205.746 140.614 C 213.797 136.575, 223.143 134.037, 230.050 134.015 C 234.831 133.999, 237 132.722, 237 129.922 C 237 126.342, 234.596 125.733, 225.333 126.966 C 215.210 128.313, 203.709 132.474, 196.314 137.466 C 185.589 144.706, 174.967 157.694, 171.278 168.079 L 169.619 172.752 165.373 164.066 C 155.593 144.061, 136.529 130.237, 114.284 127.020 C 105.420 125.739, 105.403 125.740, 103.571 127.571 M 295.750 127.080 C 294.113 128.034, 294 132.152, 294 191.050 L 294 254 279.934 254 C 265.308 254, 262 254.738, 262 258 C 262 261.750, 264.791 262.037, 298.601 261.764 C 328.469 261.523, 331.378 261.349, 332.386 259.750 C 333.190 258.475, 333.191 257.525, 332.387 256.250 C 331.430 254.730, 329.291 254.464, 316.142 254.224 L 301 253.948 301 191.174 C 301 123.280, 301.058 123.988, 295.750 127.080 M 58.607 219.250 C 64.446 230.938, 69.398 240.688, 69.612 240.917 C 69.825 241.146, 70 231.583, 70 219.667 L 70 198 58.995 198 L 47.991 198 58.607 219.250 " stroke="none" fill="black" fill-rule="evenodd"/>
</svg>