<svg xmlns="http://www.w3.org/2000/svg" width="244" height="324" viewBox="0 0 244 324" version="1.1">
	<path d="M 103.200 127.200 C 101.465 128.935, 101.465 259.065, 103.200 260.800 C 104.109 261.709, 120.172 261.996, 169.450 261.985 C 205.227 261.976, 235.072 261.606, 235.772 261.162 C 237.639 259.977, 237.639 128.023, 235.772 126.838 C 235.072 126.394, 205.228 126.024, 169.450 126.015 C 120.172 126.004, 104.109 126.291, 103.200 127.200 M 110 194 L 110 254 170 254 L 230 254 230 194 L 230 134 170 134 L 110 134 110 194 M 34.223 159.062 C 24.045 161.068, 13.996 169.411, 9.216 179.825 C 5.512 187.894, 5.512 199.106, 9.216 207.175 C 20.136 230.966, 50.306 235.913, 67.545 216.739 C 85.211 197.090, 75.070 165.462, 49.147 159.360 C 42.857 157.880, 40.464 157.832, 34.223 159.062 M 135.571 159.571 C 134.707 160.436, 134 161.644, 134 162.257 C 134 163.939, 168.204 198, 169.894 198 C 171.957 198, 203.960 165.994, 204.654 163.237 C 205.237 160.921, 203.589 158, 201.700 158 C 201.120 158, 193.750 164.844, 185.323 173.208 L 170 188.416 154.677 173.208 C 146.250 164.844, 138.857 158, 138.249 158 C 137.640 158, 136.436 158.707, 135.571 159.571 M 31.054 167.728 C 25.018 169.859, 17.781 177.260, 15.667 183.463 C 9.122 202.673, 22.106 221.195, 41.928 220.924 C 44.993 220.882, 48.933 220.320, 50.684 219.674 C 61.521 215.679, 69 204.991, 69 193.500 C 69 182.009, 61.521 171.321, 50.684 167.326 C 46.195 165.671, 36.306 165.873, 31.054 167.728 M 7.571 255.571 C 6.707 256.436, 6 257.529, 6 258 C 6 258.471, 6.707 259.564, 7.571 260.429 C 8.936 261.793, 13.463 262, 42 262 C 70.537 262, 75.064 261.793, 76.429 260.429 C 77.293 259.564, 78 258.471, 78 258 C 78 257.529, 77.293 256.436, 76.429 255.571 C 75.064 254.207, 70.537 254, 42 254 C 13.463 254, 8.936 254.207, 7.571 255.571 " stroke="none" fill="black" fill-rule="evenodd"/>
</svg>