<svg xmlns="http://www.w3.org/2000/svg" width="340" height="324" viewBox="0 0 340 324" version="1.1">
	<path d="M 7.571 127.571 C 6.207 128.936, 6 133.463, 6 162 C 6 190.537, 6.207 195.064, 7.571 196.429 C 8.844 197.701, 11.697 198, 22.575 198 L 36.006 198 21.020 227.961 C 12.777 244.439, 6.285 258.580, 6.594 259.384 C 7.265 261.133, 9.512 262.125, 11.274 261.448 C 11.975 261.180, 19.056 247.919, 27.010 231.980 C 34.964 216.041, 41.717 203, 42.016 203 C 42.315 203, 49.042 216.034, 56.965 231.964 C 69.336 256.836, 72.352 262, 74.510 262 C 74.701 262, 75.564 261.293, 76.429 260.429 C 77.825 259.032, 78 251.628, 78 194 C 78 136.372, 77.825 128.968, 76.429 127.571 C 74.455 125.598, 73.545 125.598, 71.571 127.571 C 70.212 128.931, 70 133.242, 70 159.571 L 70 190 42 190 L 14 190 14 159.571 C 14 133.242, 13.788 128.931, 12.429 127.571 C 11.564 126.707, 10.471 126, 10 126 C 9.529 126, 8.436 126.707, 7.571 127.571 M 167.247 191.253 C 131.361 227.142, 102 257.202, 102 258.053 C 102 261.988, 102.199 262, 169.629 262 C 227.594 262, 235.032 261.825, 236.429 260.429 C 237.825 259.032, 238 251.628, 238 194 C 238 136.372, 237.825 128.968, 236.429 127.571 C 235.564 126.707, 234.325 126, 233.676 126 C 233.026 126, 203.133 155.364, 167.247 191.253 M 295.750 127.080 C 294.114 128.033, 294 132.044, 294 188.786 L 294 249.473 280.131 235.631 C 267.495 223.019, 266.073 221.890, 264.131 222.930 C 262.959 223.557, 262 224.847, 262 225.796 C 262 227.625, 295.778 262, 297.576 262 C 299.035 262, 332.421 228.317, 332.833 226.430 C 333.208 224.709, 331.297 222, 329.708 222 C 329.132 222, 322.437 228.167, 314.830 235.704 L 301 249.408 301 188.904 C 301 123.446, 301.047 123.995, 295.750 127.080 M 172.500 197 L 115.507 254 172.753 254 L 230 254 230 197 C 230 165.650, 229.886 140, 229.747 140 C 229.607 140, 203.846 165.650, 172.500 197 M 58.607 219.250 C 64.446 230.938, 69.398 240.688, 69.612 240.917 C 69.825 241.146, 70 231.583, 70 219.667 L 70 198 58.995 198 L 47.991 198 58.607 219.250 " stroke="none" fill="black" fill-rule="evenodd"/>
</svg>