<svg xmlns="http://www.w3.org/2000/svg" width="276" height="324" viewBox="0 0 276 324" version="1.1">
	<path d="M 19.544 194.220 C 14.746 199.825, 11.297 207.083, 9.618 215.106 C 8.862 218.720, 7.706 222.680, 7.050 223.906 C 6.086 225.708, 6.158 226.593, 7.429 228.532 C 8.293 229.851, 9 231.775, 9 232.808 C 9 238.756, 15.667 252.035, 22.024 258.750 L 25.101 262 57.801 261.985 C 75.785 261.976, 90.985 261.639, 91.578 261.235 C 92.171 260.831, 93.337 259.150, 94.168 257.500 C 95 255.850, 97.091 252.250, 98.816 249.500 C 100.541 246.750, 102.750 241.350, 103.726 237.500 C 104.702 233.650, 105.846 230.347, 106.268 230.161 C 107.647 229.551, 110 226.879, 110 225.922 C 110 225.408, 108.875 224.009, 107.500 222.813 C 106.125 221.618, 105 219.643, 105 218.425 C 105 211.742, 96.355 193.871, 91.620 190.765 C 91.004 190.361, 75.348 190.024, 56.828 190.015 L 23.156 190 19.544 194.220 M 135.571 191.571 C 133.702 193.441, 133.726 192.885, 135.086 202.678 C 135.683 206.980, 137.493 213.928, 139.108 218.117 L 142.043 225.734 140.036 230.415 C 137.451 236.447, 135.340 244.908, 134.503 252.598 C 133.964 257.549, 134.150 259.007, 135.491 260.348 C 137.547 262.404, 138.439 262.418, 140.429 260.429 C 141.379 259.478, 142 257.126, 142 254.478 C 142 249.413, 143.648 241.087, 145.552 236.530 L 146.871 233.373 155.185 241.445 C 168.671 254.538, 182.831 260.304, 201.500 260.304 C 220.169 260.304, 234.329 254.538, 247.815 241.445 L 256.129 233.373 257.448 236.530 C 259.352 241.087, 261 249.413, 261 254.478 C 261 257.126, 261.621 259.478, 262.571 260.429 C 264.564 262.421, 265.453 262.404, 267.523 260.334 C 268.855 259.002, 269.063 257.548, 268.561 253.084 C 267.638 244.871, 266.040 238.276, 263.289 231.321 L 260.844 225.141 262.935 220.413 C 265.475 214.671, 267.591 206.430, 268.463 198.877 C 268.980 194.402, 268.780 192.923, 267.485 191.627 C 266.589 190.732, 265.471 190, 265 190 C 262.878 190, 260.999 193.426, 260.985 197.321 C 260.969 201.787, 258.593 213.023, 257.058 215.892 C 256.260 217.383, 254.962 216.494, 247.815 209.555 C 234.329 196.462, 220.169 190.696, 201.500 190.696 C 182.917 190.696, 168.625 196.516, 155.185 209.558 C 148.038 216.495, 146.740 217.384, 145.942 215.892 C 144.407 213.023, 142.031 201.787, 142.015 197.321 C 142.001 193.426, 140.122 190, 138 190 C 137.529 190, 136.436 190.707, 135.571 191.571 M 22.316 202.723 C 19.139 208.144, 16.081 216.432, 16.033 219.750 L 16 222 57.128 222 L 98.256 222 97.626 217.750 C 97.279 215.412, 95.309 210.125, 93.248 206 L 89.500 198.500 57.300 198.236 L 25.100 197.972 22.316 202.723 M 186.645 199.584 C 174.659 202.485, 157.898 213.969, 152.748 222.808 L 150.996 225.815 155.011 230.895 C 178.389 260.470, 224.677 260.387, 248.121 230.728 L 252.004 225.815 250.252 222.808 C 244.821 213.486, 226.913 201.705, 214.201 199.090 C 207.038 197.617, 193.791 197.854, 186.645 199.584 M 16.512 233.250 C 17.472 237.906, 21.432 246.388, 24.557 250.485 L 27.237 254 57.068 254 L 86.898 254 89.409 250.708 C 92.387 246.804, 96.546 237.816, 97.488 233.250 L 98.159 230 57 230 L 15.841 230 16.512 233.250 " stroke="none" fill="black" fill-rule="evenodd"/>
</svg>