<svg xmlns="http://www.w3.org/2000/svg" width="340" height="324" viewBox="0 0 340 324" version="1.1">
	<path d="M 33.384 159.357 C 15.361 163.923, 3.562 181.820, 6.987 199.396 C 10.713 218.519, 28.557 231.395, 46.698 228.051 C 69.327 223.881, 81.966 201.817, 73.934 180.507 C 68.097 165.023, 49.437 155.290, 33.384 159.357 M 31.054 167.728 C 25.018 169.859, 17.781 177.260, 15.667 183.463 C 11.995 194.241, 14.382 205.477, 21.952 213.048 C 32.761 223.857, 50.503 223.777, 61.125 212.872 C 71.768 201.945, 71.768 185.055, 61.125 174.128 C 53.628 166.432, 41.834 163.922, 31.054 167.728 M 103.571 191.571 C 102.707 192.436, 102.016 194.123, 102.035 195.321 C 102.117 200.425, 104.948 213.030, 107.377 219.100 L 110 225.656 107.381 232.078 C 104.853 238.279, 102.107 250.657, 102.035 256.179 C 102.001 258.752, 104.213 262, 106 262 C 108.357 262, 110 258.566, 110 253.639 C 110 248.502, 112.129 238.495, 113.944 235.105 C 114.740 233.618, 116.046 234.514, 123.185 241.442 C 136.625 254.484, 150.917 260.304, 169.500 260.304 C 187.918 260.304, 202.836 254.107, 216.309 240.860 L 224.118 233.181 225.129 235.838 C 226.974 240.693, 228.970 250.443, 228.985 254.679 C 228.999 258.476, 230.869 262, 232.871 262 C 237.980 262, 236.685 243.826, 230.627 230.500 L 228.354 225.500 230.630 220.500 C 233.890 213.338, 236 204.463, 236 197.912 C 236 191.909, 234.541 189.472, 231.618 190.593 C 229.820 191.283, 229.413 192.672, 228.466 201.371 C 227.920 206.379, 227.098 209.586, 224.540 216.685 C 224.305 217.337, 220.600 214.388, 216.306 210.133 C 207.605 201.508, 197.163 195.413, 186 192.444 C 177.189 190.100, 162.532 190.076, 153.289 192.390 C 140.358 195.629, 126.560 204.239, 118.302 214.224 C 115.318 217.832, 115.046 217.954, 114.065 216.122 C 112.213 212.661, 110 202.721, 110 197.861 C 110 193.430, 108.255 190, 106 190 C 105.529 190, 104.436 190.707, 103.571 191.571 M 290.355 190.998 C 284.142 192.290, 277.008 196.308, 272.301 201.166 C 259.121 214.769, 259.121 236.231, 272.301 249.834 C 285.897 263.867, 308.043 264.082, 321.766 250.313 C 336.101 235.931, 335.921 214.675, 321.342 200.339 C 313.458 192.587, 300.909 188.804, 290.355 190.998 M 154.645 199.584 C 144.718 201.987, 135.314 207.577, 126.750 216.164 C 122.487 220.439, 119 224.640, 119 225.500 C 119 226.360, 122.487 230.561, 126.750 234.836 C 139.094 247.214, 152.502 253, 168.845 253 C 179.674 253, 185.916 251.576, 195.820 246.847 C 201.937 243.927, 205.935 241.104, 210.920 236.187 C 220.715 226.524, 220.814 226.210, 215.979 220.093 C 208.154 210.194, 194.458 201.686, 182.201 199.113 C 175.083 197.618, 161.830 197.845, 154.645 199.584 M 287.741 199.429 C 281.069 201.810, 275.496 206.917, 272.383 213.500 C 268.075 222.613, 266.263 222, 297.519 222 L 325.038 222 324.392 219.250 C 322.374 210.665, 315.032 202.404, 306.684 199.326 C 302.367 197.734, 292.337 197.789, 287.741 199.429 M 270.010 231.250 C 270.015 231.938, 271.069 234.753, 272.351 237.507 C 274.785 242.733, 279.755 247.787, 285.256 250.632 C 289.384 252.767, 300.666 253.595, 305.205 252.097 C 314.322 249.088, 321.459 241.859, 323.976 233.084 L 324.860 230 297.430 230 C 276.147 230, 270.002 230.280, 270.010 231.250 M 7.571 255.571 C 6.707 256.436, 6 257.529, 6 258 C 6 258.471, 6.707 259.564, 7.571 260.429 C 8.936 261.793, 13.463 262, 42 262 C 70.537 262, 75.064 261.793, 76.429 260.429 C 77.293 259.564, 78 258.471, 78 258 C 78 257.529, 77.293 256.436, 76.429 255.571 C 75.064 254.207, 70.537 254, 42 254 C 13.463 254, 8.936 254.207, 7.571 255.571 " stroke="none" fill="black" fill-rule="evenodd"/>
</svg>