<svg xmlns="http://www.w3.org/2000/svg" width="276" height="324" viewBox="0 0 276 324" version="1.1">
	<path d="M 191.870 127.014 C 176.636 129.407, 165.616 135.194, 153.974 146.916 C 140.475 160.507, 134.696 174.473, 134.696 193.500 C 134.696 205.257, 136.549 213.240, 141.778 224 C 146.922 234.587, 160.441 248.092, 171 253.193 C 181.909 258.463, 189.807 260.304, 201.500 260.304 C 220.834 260.304, 234.527 254.551, 248.539 240.539 C 262.551 226.527, 268.304 212.834, 268.304 193.500 C 268.304 174.166, 262.551 160.473, 248.539 146.461 C 238.721 136.644, 230.174 131.566, 218.500 128.618 C 210.592 126.621, 198.868 125.914, 191.870 127.014 M 186.645 135.584 C 166.562 140.445, 148.305 158.877, 143.537 179.103 C 138.672 199.742, 144.569 220.600, 159.484 235.516 C 174.400 250.431, 195.258 256.328, 215.897 251.463 C 236.261 246.662, 254.662 228.261, 259.463 207.897 C 261.390 199.718, 261.390 187.282, 259.463 179.103 C 254.662 158.739, 236.261 140.338, 215.897 135.537 C 207.998 133.676, 194.439 133.697, 186.645 135.584 M 193.384 159.412 C 175.475 163.758, 163.559 181.807, 166.987 199.396 C 168.500 207.161, 172.212 214.019, 177.580 218.967 C 198.277 238.045, 230.591 227.221, 236.013 199.396 C 239.488 181.565, 227.484 163.676, 209.147 159.360 C 202.397 157.772, 200.111 157.779, 193.384 159.412 M 191.054 167.728 C 185.018 169.859, 177.781 177.260, 175.667 183.463 C 171.995 194.241, 174.382 205.477, 181.952 213.048 C 192.673 223.769, 210.327 223.769, 221.048 213.048 C 231.769 202.327, 231.769 184.673, 221.048 173.952 C 213.519 166.424, 201.696 163.970, 191.054 167.728 M 19.544 194.220 C 14.746 199.825, 11.297 207.083, 9.618 215.106 C 8.862 218.720, 7.706 222.680, 7.050 223.906 C 6.086 225.708, 6.158 226.593, 7.429 228.532 C 8.293 229.851, 9 231.775, 9 232.808 C 9 238.756, 15.667 252.035, 22.024 258.750 L 25.101 262 57.801 261.985 C 75.785 261.976, 90.985 261.639, 91.578 261.235 C 92.171 260.831, 93.337 259.150, 94.168 257.500 C 95 255.850, 97.091 252.250, 98.816 249.500 C 100.541 246.750, 102.750 241.350, 103.726 237.500 C 104.702 233.650, 105.846 230.347, 106.268 230.161 C 107.647 229.551, 110 226.879, 110 225.922 C 110 225.408, 108.875 224.009, 107.500 222.813 C 106.125 221.618, 105 219.643, 105 218.425 C 105 211.742, 96.355 193.871, 91.620 190.765 C 91.004 190.361, 75.348 190.024, 56.828 190.015 L 23.156 190 19.544 194.220 M 22.316 202.723 C 19.139 208.144, 16.081 216.432, 16.033 219.750 L 16 222 57.128 222 L 98.256 222 97.626 217.750 C 97.279 215.412, 95.309 210.125, 93.248 206 L 89.500 198.500 57.300 198.236 L 25.100 197.972 22.316 202.723 M 16.512 233.250 C 17.472 237.906, 21.432 246.388, 24.557 250.485 L 27.237 254 57.068 254 L 86.898 254 89.409 250.708 C 92.387 246.804, 96.546 237.816, 97.488 233.250 L 98.159 230 57 230 L 15.841 230 16.512 233.250 " stroke="none" fill="black" fill-rule="evenodd"/>
</svg>