<svg xmlns="http://www.w3.org/2000/svg" width="403" height="324" viewBox="0 0 403 324" version="1.1">
	<path d="M 391.724 127.134 C 390.119 128.033, 390 132.654, 390 194.015 C 390 256.133, 390.102 259.984, 391.776 260.880 C 392.902 261.483, 394.182 261.478, 395.276 260.866 C 396.881 259.967, 397 255.346, 397 193.985 C 397 131.867, 396.898 128.016, 395.224 127.120 C 394.098 126.517, 392.818 126.522, 391.724 127.134 M 35.045 159.064 C 16.379 162.843, 3.614 181.052, 7.004 199.062 C 11.209 221.397, 33.453 233.998, 54.493 225.963 C 62.695 222.831, 70.860 214.663, 73.893 206.557 C 76.893 198.539, 76.893 188.461, 73.893 180.443 C 68.367 165.675, 50.623 155.909, 35.045 159.064 M 31.627 167.468 C 26.302 169.367, 21.047 173.815, 17.618 179.328 C 14.254 184.737, 13.041 194.780, 14.916 201.708 C 16.446 207.361, 21.544 213.823, 27.266 217.361 C 37.153 223.473, 52.294 221.764, 60.431 213.617 C 65.854 208.186, 68.298 202.853, 68.805 195.341 C 69.928 178.723, 57.801 165.912, 41.072 166.044 C 38.007 166.068, 33.757 166.709, 31.627 167.468 M 167.616 191.527 C 166.727 192.416, 166 193.529, 166 194 C 166 195.389, 169.140 198.120, 170.295 197.735 C 172.395 197.035, 173.549 194.094, 172.423 192.310 C 170.905 189.902, 169.474 189.669, 167.616 191.527 M 287.531 191.113 C 264.870 194.414, 246.118 208.628, 236.227 230 C 234.318 234.125, 232.633 237.640, 232.484 237.810 C 232.335 237.981, 229.265 238.538, 225.662 239.048 C 217.580 240.193, 209.251 243.791, 202.336 249.127 C 196.675 253.494, 195.128 256.245, 197.040 258.548 C 198.922 260.816, 200.513 260.317, 205.689 255.835 C 211.418 250.876, 219.565 247.076, 226.137 246.297 L 230.906 245.733 230.317 252.758 C 229.770 259.280, 229.886 259.869, 231.928 260.961 C 235.337 262.786, 236.717 260.793, 237.510 252.902 L 238.214 245.888 241.357 246.527 C 248.482 247.975, 256.693 252.778, 263.072 259.230 C 271.325 267.578, 279.687 271.721, 291.699 273.415 C 297.792 274.274, 309.593 272.333, 315.939 269.428 C 324.243 265.626, 332.186 259.294, 331.809 256.775 C 331.161 252.438, 328.642 252.450, 322.858 256.818 C 313.149 264.148, 309.029 265.502, 296.500 265.483 C 286.766 265.468, 284.857 265.166, 279.918 262.863 C 276.518 261.277, 271.797 257.707, 267.840 253.731 C 261.078 246.935, 252.738 241.970, 244.672 239.939 L 240.117 238.792 242.491 233.424 C 251.182 213.773, 270.524 199.757, 291 198.275 C 295.125 197.976, 299.063 197.287, 299.750 196.744 C 301.623 195.263, 301.256 192.208, 299.066 191.035 C 296.898 189.875, 295.989 189.881, 287.531 191.113 M 351.531 191.113 C 329.153 194.373, 310.356 208.408, 300.460 229.248 C 294.499 241.799, 292.021 258.871, 295.862 260.926 C 299.115 262.667, 300.609 260.155, 301.768 250.995 C 303.064 240.763, 305.735 233.267, 310.976 225.158 C 320.815 209.936, 337.484 199.639, 354.478 198.286 C 358.340 197.979, 362.288 197.323, 363.250 196.828 C 365.582 195.631, 365.477 192.325, 363.066 191.035 C 360.898 189.875, 359.989 189.881, 351.531 191.113 M 7.585 255.558 C 6.713 256.430, 6 257.529, 6 258 C 6 258.471, 6.713 259.570, 7.585 260.442 C 8.978 261.835, 13.159 261.995, 42.226 261.763 C 72.452 261.523, 75.377 261.350, 76.386 259.750 C 77.191 258.474, 77.191 257.526, 76.386 256.250 C 75.377 254.650, 72.452 254.477, 42.226 254.237 C 13.159 254.005, 8.978 254.165, 7.585 255.558 M 103.616 255.527 C 102.727 256.416, 102 257.529, 102 258 C 102 259.389, 105.140 262.120, 106.295 261.735 C 108.395 261.035, 109.549 258.094, 108.423 256.310 C 106.905 253.902, 105.474 253.669, 103.616 255.527 M 167.616 255.527 C 166.727 256.416, 166 257.529, 166 258 C 166 259.389, 169.140 262.120, 170.295 261.735 C 172.395 261.035, 173.549 258.094, 172.423 256.310 C 170.905 253.902, 169.474 253.669, 167.616 255.527 " stroke="none" fill="black" fill-rule="evenodd"/>
</svg>