<svg xmlns="http://www.w3.org/2000/svg" width="436" height="324" viewBox="0 0 436 324" version="1.1">
	<path d="M 359.200 127.200 C 357.465 128.935, 357.465 259.065, 359.200 260.800 C 360.595 262.195, 425.604 262.538, 427.772 261.162 C 428.780 260.522, 429.044 246.603, 429.044 194 C 429.044 141.397, 428.780 127.478, 427.772 126.838 C 425.604 125.462, 360.595 125.805, 359.200 127.200 M 365 194 L 365 254 393.500 254 L 422 254 422 194 L 422 134 393.500 134 L 365 134 365 194 M 33.384 159.412 C 15.475 163.758, 3.559 181.807, 6.987 199.396 C 9.923 214.467, 20.510 225.032, 35.660 228.013 C 46.748 230.194, 59.444 225.749, 67.399 216.901 C 85.210 197.091, 75.186 165.489, 49.147 159.360 C 42.397 157.772, 40.111 157.779, 33.384 159.412 M 31.054 167.728 C 25.018 169.859, 17.781 177.260, 15.667 183.463 C 11.995 194.241, 14.382 205.477, 21.952 213.048 C 32.402 223.497, 49.888 223.773, 60.280 213.653 C 65.822 208.256, 68.291 202.953, 68.805 195.341 C 69.388 186.717, 67.028 180.189, 61.146 174.150 C 53.627 166.431, 41.848 163.917, 31.054 167.728 M 167.571 191.571 C 166.707 192.436, 166 193.529, 166 194 C 166 194.471, 166.707 195.564, 167.571 196.429 C 168.436 197.293, 169.529 198, 170 198 C 170.471 198, 171.564 197.293, 172.429 196.429 C 173.293 195.564, 174 194.471, 174 194 C 174 193.529, 173.293 192.436, 172.429 191.571 C 171.564 190.707, 170.471 190, 170 190 C 169.529 190, 168.436 190.707, 167.571 191.571 M 255.205 191.127 C 230.763 194.715, 209.102 213.255, 201.555 237.046 C 200.238 241.197, 198.850 247.752, 198.469 251.614 C 197.891 257.479, 198.055 258.912, 199.460 260.317 C 200.386 261.243, 201.535 262, 202.015 262 C 203.925 262, 206 257.308, 206 252.988 C 206 230.817, 225.948 206.246, 249.032 199.982 C 251.489 199.315, 256.603 198.484, 260.395 198.135 C 267.977 197.437, 270.486 195.591, 268.394 192.250 C 267.090 190.167, 263.705 189.879, 255.205 191.127 M 319.500 191.077 C 289.335 195.489, 265.508 220.781, 262.469 251.614 C 261.891 257.479, 262.055 258.912, 263.460 260.317 C 264.386 261.243, 265.535 262, 266.015 262 C 267.925 262, 270 257.308, 270 252.988 C 270 230.817, 289.948 206.246, 313.032 199.982 C 315.489 199.315, 320.603 198.484, 324.395 198.135 C 331.977 197.437, 334.486 195.591, 332.394 192.250 C 331.102 190.186, 327.706 189.877, 319.500 191.077 M 7.571 255.571 C 6.707 256.436, 6 257.529, 6 258 C 6 258.471, 6.707 259.564, 7.571 260.429 C 8.936 261.793, 13.463 262, 42 262 C 70.537 262, 75.064 261.793, 76.429 260.429 C 77.293 259.564, 78 258.471, 78 258 C 78 257.529, 77.293 256.436, 76.429 255.571 C 75.064 254.207, 70.537 254, 42 254 C 13.463 254, 8.936 254.207, 7.571 255.571 M 103.571 255.571 C 102.707 256.436, 102 257.529, 102 258 C 102 259.111, 104.889 262, 106 262 C 107.111 262, 110 259.111, 110 258 C 110 256.889, 107.111 254, 106 254 C 105.529 254, 104.436 254.707, 103.571 255.571 M 167.571 255.571 C 166.707 256.436, 166 257.529, 166 258 C 166 259.111, 168.889 262, 170 262 C 171.111 262, 174 259.111, 174 258 C 174 256.889, 171.111 254, 170 254 C 169.529 254, 168.436 254.707, 167.571 255.571 " stroke="none" fill="black" fill-rule="evenodd"/>
</svg>