<svg xmlns="http://www.w3.org/2000/svg" width="403" height="324" viewBox="0 0 403 324" version="1.1">
	<path d="M 383.235 127.145 C 362.110 130.175, 342.999 144.049, 333.533 163.227 C 329.382 171.636, 326.062 182.911, 326.017 188.750 C 326.004 190.533, 325.430 191, 323.250 191.001 C 318.914 191.002, 308.909 196.311, 304.205 201.107 C 301.842 203.516, 298.692 207.965, 297.205 210.993 C 294.873 215.740, 294.500 217.743, 294.500 225.500 C 294.500 233.257, 294.873 235.260, 297.205 240.007 C 300.873 247.476, 307.214 253.675, 314.896 257.304 C 329.889 264.386, 348.748 259.154, 357.870 245.383 C 371.262 225.164, 360.975 197.172, 338.162 191.753 L 333.050 190.539 333.612 186.519 C 337.519 158.578, 359.935 136.401, 386.402 134.293 C 390.306 133.982, 394.288 133.323, 395.250 132.828 C 397.582 131.631, 397.477 128.325, 395.066 127.035 C 392.893 125.872, 392.058 125.880, 383.235 127.145 M 7.571 191.571 C 6.707 192.436, 6 193.666, 6 194.305 C 6 194.944, 20.970 210.437, 39.267 228.733 L 72.533 262 137.551 262 L 202.570 262 235.535 228.994 C 253.666 210.840, 268.650 195.293, 268.833 194.446 C 269.212 192.689, 267.295 190, 265.663 190 C 265.063 190, 250.146 204.400, 232.515 222 L 200.460 254 171.092 254 L 141.725 254 142.348 248.699 C 145.008 226.061, 163.541 205.509, 186.644 199.577 C 190.024 198.710, 194.996 198, 197.694 198 C 202.803 198, 205 196.774, 205 193.922 C 205 190.342, 202.596 189.733, 193.333 190.966 C 183.210 192.313, 171.709 196.474, 164.314 201.466 C 153.589 208.706, 142.967 221.694, 139.278 232.079 L 137.619 236.752 133.394 228.126 C 122.992 206.891, 103.378 193.367, 78.877 190.537 C 74.402 190.020, 72.923 190.220, 71.627 191.515 C 70.732 192.411, 70 193.529, 70 194 C 70 196.122, 73.426 198.001, 77.321 198.015 C 89.695 198.059, 104.809 204.855, 115.088 214.999 C 124.750 224.534, 130.778 236.235, 132.476 248.750 L 133.188 254 104.364 254 L 75.540 254 43.485 222 C 25.854 204.400, 10.914 190, 10.286 190 C 9.657 190, 8.436 190.707, 7.571 191.571 M 317.500 200.353 C 311.873 202.979, 305.871 209.089, 303.378 214.728 C 302.340 217.077, 301.711 221.141, 301.711 225.500 C 301.711 233.703, 303.431 238.254, 308.773 244.179 C 319.638 256.232, 338.403 256.034, 349.683 243.746 C 353.999 239.045, 357 231.561, 357 225.500 C 357 215.480, 349.989 204.797, 340.500 200.358 C 333.632 197.146, 324.377 197.144, 317.500 200.353 " stroke="none" fill="black" fill-rule="evenodd"/>
</svg>