<svg xmlns="http://www.w3.org/2000/svg" width="308" height="324" viewBox="0 0 308 324" version="1.1">
	<path d="M 55.200 63.200 C 53.512 64.888, 53.512 99.112, 55.200 100.800 C 56.040 101.640, 61.562 102, 73.629 102 C 87.958 102, 91.122 101.736, 92.429 100.429 C 94.757 98.100, 94.757 65.900, 92.429 63.571 C 91.122 62.264, 87.958 62, 73.629 62 C 61.562 62, 56.040 62.360, 55.200 63.200 M 62 82 L 62 94 74 94 L 86 94 86 82 L 86 70 74 70 L 62 70 62 82 M 71.571 127.571 C 70.212 128.931, 70 133.242, 70 159.571 L 70 190 39.571 190 C 13.242 190, 8.931 190.212, 7.571 191.571 C 5.598 193.545, 5.598 194.455, 7.571 196.429 C 8.931 197.788, 13.242 198, 39.571 198 L 70 198 70 228.429 C 70 254.758, 70.212 259.069, 71.571 260.429 C 72.436 261.293, 73.529 262, 74 262 C 74.471 262, 75.564 261.293, 76.429 260.429 C 77.788 259.069, 78 254.759, 78 228.443 L 78 198.029 108.641 197.764 C 136.566 197.523, 139.381 197.345, 140.386 195.750 C 141.191 194.474, 141.191 193.526, 140.386 192.250 C 139.381 190.655, 136.566 190.477, 108.641 190.236 L 78 189.971 78 159.557 C 78 133.241, 77.788 128.931, 76.429 127.571 C 75.564 126.707, 74.471 126, 74 126 C 73.529 126, 72.436 126.707, 71.571 127.571 M 190.389 175.488 C 183.141 177.065, 177.380 179.821, 170.325 185.088 C 164.778 189.229, 163.107 192.220, 165.040 194.548 C 166.867 196.750, 168.629 196.323, 172.747 192.681 C 181.895 184.592, 191.164 181.479, 203.760 182.265 C 213.061 182.845, 222.122 186.490, 227.235 191.709 C 228.739 193.244, 231.439 195.982, 233.235 197.793 C 237.956 202.555, 248.673 207.596, 257.099 209.017 C 269.955 211.185, 285.208 206.987, 295.693 198.395 C 300.055 194.821, 300.980 192.380, 298.800 190.200 C 296.908 188.308, 295.495 188.743, 290.845 192.651 C 280.935 200.978, 265.931 204.143, 253.448 200.540 C 245.706 198.305, 241.989 195.947, 234.579 188.566 C 227.638 181.654, 219.948 177.521, 210.174 175.449 C 202.110 173.740, 198.392 173.747, 190.389 175.488 " stroke="none" fill="black" fill-rule="evenodd"/>
</svg>