<svg xmlns="http://www.w3.org/2000/svg" width="436" height="324" viewBox="0 0 436 324" version="1.1">
	<path d="M 295.080 127.403 C 294.143 128.532, 293.933 137.965, 294.191 167.191 L 294.530 205.500 297.846 214.500 C 299.670 219.450, 301.179 224.400, 301.198 225.500 C 301.218 226.600, 300.047 230.585, 298.595 234.355 C 295.663 241.974, 293.438 254.625, 294.375 258.357 C 294.709 259.689, 295.742 261.071, 296.669 261.426 C 299.643 262.568, 301.363 259.440, 302.120 251.515 C 302.866 243.713, 305.559 234, 306.977 234 C 307.426 234, 309.267 235.688, 311.068 237.750 C 319.479 247.378, 332.539 255.423, 345 258.650 C 353.671 260.895, 369.440 260.855, 378 258.566 C 388.922 255.645, 399.597 249.426, 408.186 240.981 C 415.805 233.490, 415.882 233.445, 416.982 235.861 C 418.843 239.944, 420.970 250.227, 420.985 255.215 C 420.997 258.946, 421.431 260.160, 423.064 261.034 C 426.443 262.843, 428 260.636, 428 254.038 C 428 247.463, 425.040 234.959, 422.137 229.268 C 420.804 226.656, 420.453 224.902, 421.071 223.937 C 423.221 220.579, 426.111 211.307, 427.534 203.205 C 429.592 191.484, 429.806 128.128, 427.792 126.849 C 427.081 126.398, 424.250 126.296, 421.500 126.622 C 409.747 128.013, 398.423 136.329, 393.389 147.266 C 390.988 152.482, 390.520 154.807, 390.520 161.500 C 390.520 171.750, 393.932 179.792, 401.142 186.536 C 406.260 191.323, 414.921 195.974, 418.750 195.990 C 420.418 195.997, 420.996 196.582, 420.985 198.250 C 420.968 200.884, 418.586 211.329, 417.129 215.162 L 416.118 217.819 408.309 210.149 C 393.018 195.130, 373.386 188.297, 353.233 190.979 C 337.397 193.086, 324.448 199.578, 313.118 211.089 L 306.353 217.962 304.594 212.381 C 303.627 209.312, 302.600 204.483, 302.313 201.650 L 301.792 196.500 307.778 194.772 C 318.224 191.757, 327.909 182.019, 331.023 171.402 C 332.919 164.941, 331.923 152.435, 329.040 146.500 C 325.646 139.512, 317.332 131.637, 310.797 129.220 C 302.950 126.318, 296.591 125.583, 295.080 127.403 M 301 161.608 L 301 189.217 303.456 188.600 C 311.422 186.601, 317.652 181.879, 321.500 174.923 C 324.131 170.166, 324.500 168.517, 324.500 161.500 C 324.500 154.512, 324.127 152.827, 321.551 148.176 C 319.929 145.248, 316.932 141.530, 314.891 139.914 C 311.614 137.318, 304.311 134, 301.874 134 C 301.393 134, 301 146.424, 301 161.608 M 415.748 135.427 C 397.758 141.847, 391.882 164.904, 404.447 179.770 C 407.674 183.588, 414.126 187.518, 418.750 188.481 L 422 189.159 422 161.579 C 422 140.159, 421.721 134.010, 420.750 134.044 C 420.063 134.068, 417.812 134.690, 415.748 135.427 M 7.571 191.571 C 6.707 192.436, 6 193.666, 6 194.305 C 6 194.944, 20.970 210.437, 39.267 228.733 L 72.533 262 138.017 262.024 L 203.500 262.048 236.250 229.046 C 256.176 208.967, 269 195.300, 269 194.145 C 269 191.354, 266.539 189.633, 264.314 190.868 C 263.316 191.422, 248.553 205.853, 231.506 222.938 L 200.512 254 171.256 254 L 142 254 142 251.210 C 142 240.862, 149.627 225.149, 159.388 215.388 C 169.932 204.844, 181.664 199.362, 196.396 198.094 C 204.001 197.439, 206.518 195.591, 204.358 192.250 C 202.042 188.667, 184.430 191.344, 172.256 197.129 C 157.777 204.010, 143.921 218.977, 138.978 233.076 L 137.724 236.652 133.280 227.775 C 124.433 210.102, 108.633 197.203, 90.202 192.608 C 79.985 190.061, 73.466 189.677, 71.627 191.515 C 70.732 192.411, 70 193.529, 70 194 C 70 196.122, 73.426 198.001, 77.321 198.015 C 95.886 198.080, 117.672 212.320, 126.330 230.046 C 129.956 237.472, 133 247.357, 133 251.710 L 133 254 104.270 254 L 75.540 254 43.485 222 C 25.854 204.400, 10.914 190, 10.286 190 C 9.657 190, 8.436 190.707, 7.571 191.571 M 345.500 199.893 C 334.920 202.981, 327.047 207.725, 318.750 216.015 C 314.488 220.273, 311 224.502, 311 225.411 C 311 226.320, 314.488 230.594, 318.750 234.907 C 330.949 247.253, 344.428 253, 361.184 253 C 379.471 253, 395.672 245.516, 407.093 231.793 C 412.961 224.741, 412.954 224.711, 402.974 214.866 C 395.608 207.599, 385.839 202.133, 375.540 199.515 C 367.580 197.492, 353.106 197.674, 345.500 199.893 " stroke="none" fill="black" fill-rule="evenodd"/>
</svg>