<svg xmlns="http://www.w3.org/2000/svg" width="403" height="324" viewBox="0 0 403 324" version="1.1">
	<path d="M 55.200 63.200 C 53.512 64.888, 53.512 99.112, 55.200 100.800 C 56.040 101.640, 61.562 102, 73.629 102 C 87.958 102, 91.122 101.736, 92.429 100.429 C 94.757 98.100, 94.757 65.900, 92.429 63.571 C 91.122 62.264, 87.958 62, 73.629 62 C 61.562 62, 56.040 62.360, 55.200 63.200 M 62 82 L 62 94 74 94 L 86 94 86 82 L 86 70 74 70 L 62 70 62 82 M 71.571 127.571 C 70.212 128.931, 70 133.242, 70 159.571 L 70 190 39.571 190 C 13.242 190, 8.931 190.212, 7.571 191.571 C 5.598 193.545, 5.598 194.455, 7.571 196.429 C 8.931 197.788, 13.242 198, 39.571 198 L 70 198 70 228.429 C 70 254.758, 70.212 259.069, 71.571 260.429 C 72.436 261.293, 73.529 262, 74 262 C 74.471 262, 75.564 261.293, 76.429 260.429 C 77.788 259.069, 78 254.759, 78 228.443 L 78 198.029 108.641 197.764 C 136.566 197.523, 139.381 197.345, 140.386 195.750 C 141.191 194.474, 141.191 193.526, 140.386 192.250 C 139.381 190.655, 136.566 190.477, 108.641 190.236 L 78 189.971 78 159.557 C 78 133.241, 77.788 128.931, 76.429 127.571 C 75.564 126.707, 74.471 126, 74 126 C 73.529 126, 72.436 126.707, 71.571 127.571 M 232.207 126.677 C 231.495 126.962, 227.135 134.743, 222.517 143.967 L 214.120 160.738 208.810 159.309 C 192.510 154.924, 173.175 165.980, 168.034 182.626 C 165.459 190.962, 165.469 196.069, 168.074 204.506 C 169.825 210.173, 171.114 212.181, 176.324 217.361 L 182.500 223.500 174.010 240.757 C 167.113 254.775, 165.726 258.342, 166.619 259.757 C 167.629 261.358, 170.467 261.500, 201.500 261.500 C 232.586 261.500, 235.370 261.360, 236.386 259.750 C 237.191 258.474, 237.191 257.526, 236.386 256.250 C 235.382 254.658, 232.613 254.476, 205.654 254.235 L 176.024 253.970 182.733 240.509 L 189.442 227.047 193.471 227.774 C 205.753 229.988, 217.131 226.735, 225.342 218.661 C 233.431 210.707, 235.477 205.626, 235.477 193.500 C 235.477 181.577, 233.454 176.400, 225.794 168.714 L 221.024 163.929 229.012 147.976 C 237.138 131.748, 237.928 129.328, 235.800 127.200 C 234.516 125.916, 234.212 125.872, 232.207 126.677 M 191.627 167.468 C 186.247 169.386, 181.039 173.829, 177.500 179.519 C 173.518 185.922, 172.713 197.302, 175.755 204.180 C 177.915 209.061, 183.555 216, 185.363 216 C 185.999 216, 192.003 205.021, 198.706 191.603 C 210.277 168.436, 210.781 167.175, 208.696 166.616 C 204.840 165.582, 195.628 166.042, 191.627 167.468 M 205.246 195.494 C 195.514 214.979, 193.400 219.939, 194.629 220.411 C 195.473 220.735, 198.714 220.996, 201.832 220.990 C 220.458 220.958, 233.757 201.540, 227.118 184.069 C 225.151 178.891, 222.155 174.497, 219.162 172.401 C 217.562 171.280, 216.274 173.417, 205.246 195.494 M 263.750 255.076 C 261.422 256.437, 261.524 259.675, 263.934 260.965 C 265.142 261.611, 276.958 262, 295.409 262 L 324.950 262 324.385 265.250 C 319.470 293.514, 298.337 314.261, 272 316.678 C 263.971 317.415, 261.781 318.451, 262.189 321.318 C 262.468 323.277, 263.184 323.530, 269.185 323.794 C 291.165 324.762, 316.365 307.514, 326.519 284.553 L 329.034 278.865 333.678 288.142 C 344.143 309.047, 367.039 324, 388.583 324 C 394.585 324, 396.187 323.677, 396.691 322.364 C 398.001 318.949, 395.610 317.527, 387.395 316.836 C 368.816 315.273, 351.889 304.497, 341.718 287.756 C 337.539 280.879, 334 270.631, 334 265.409 L 334 262.029 364.641 261.764 C 392.566 261.523, 395.381 261.345, 396.386 259.750 C 397.191 258.474, 397.191 257.526, 396.386 256.250 C 395.356 254.616, 390.963 254.485, 330.391 254.276 C 287.547 254.129, 264.905 254.400, 263.750 255.076 " stroke="none" fill="black" fill-rule="evenodd"/>
</svg>