<svg xmlns="http://www.w3.org/2000/svg" width="372" height="324" viewBox="0 0 372 324" version="1.1">
	<path d="M 55.571 63.571 C 53.243 65.900, 53.243 98.100, 55.571 100.429 C 57.900 102.757, 90.100 102.757, 92.429 100.429 C 94.757 98.100, 94.757 65.900, 92.429 63.571 C 90.100 61.243, 57.900 61.243, 55.571 63.571 M 62 82 L 62 94 74 94 L 86 94 86 82 L 86 70 74 70 L 62 70 62 82 M 71.571 127.571 C 70.212 128.931, 70 133.242, 70 159.571 L 70 190 39.571 190 C 13.242 190, 8.931 190.212, 7.571 191.571 C 5.598 193.545, 5.598 194.455, 7.571 196.429 C 8.931 197.788, 13.242 198, 39.571 198 L 70 198 70 228.429 C 70 254.758, 70.212 259.069, 71.571 260.429 C 72.436 261.293, 73.529 262, 74 262 C 74.471 262, 75.564 261.293, 76.429 260.429 C 77.788 259.069, 78 254.758, 78 228.429 L 78 198 108.429 198 C 134.758 198, 139.069 197.788, 140.429 196.429 C 142.402 194.455, 142.402 193.545, 140.429 191.571 C 139.069 190.212, 134.758 190, 108.429 190 L 78 190 78 159.571 C 78 133.242, 77.788 128.931, 76.429 127.571 C 75.564 126.707, 74.471 126, 74 126 C 73.529 126, 72.436 126.707, 71.571 127.571 M 231.821 127.358 C 231.095 128.105, 226.949 135.905, 222.608 144.691 L 214.716 160.667 208.608 159.231 C 194.219 155.848, 177.974 163.355, 170.781 176.712 C 162.963 191.227, 165.975 208.499, 178.250 219.535 L 183.075 223.873 174.537 240.925 C 169.842 250.304, 166 258.176, 166 258.417 C 166 258.659, 166.707 259.564, 167.571 260.429 C 168.936 261.793, 173.463 262, 202 262 C 230.537 262, 235.064 261.793, 236.429 260.429 C 237.293 259.564, 238 258.471, 238 258 C 238 257.529, 237.293 256.436, 236.429 255.571 C 235.071 254.214, 230.848 254, 205.421 254 L 175.986 254 182.606 240.750 C 186.248 233.463, 189.357 227.356, 189.516 227.181 C 189.675 227.005, 192.483 227.388, 195.756 228.032 C 206.659 230.177, 219.111 225.943, 226.967 217.420 C 240.351 202.900, 239.628 181.129, 225.323 167.944 L 221.006 163.965 229.503 146.994 C 234.176 137.659, 238 129.824, 238 129.583 C 238 128.794, 234.880 126, 234 126 C 233.529 126, 232.548 126.611, 231.821 127.358 M 289.608 132.122 C 277.806 142.937, 269.219 157.313, 264.894 173.500 C 263.274 179.564, 262.757 184.404, 262.757 193.500 C 262.757 202.596, 263.274 207.436, 264.894 213.500 C 269.226 229.712, 277.805 244.062, 289.656 254.922 C 296.541 261.231, 299.265 262.145, 301.336 258.840 C 302.191 257.475, 300.791 255.606, 293.438 248.300 C 277.281 232.248, 270.035 215.280, 270.035 193.500 C 270.035 171.853, 277.184 155.011, 293.250 138.813 C 298.063 133.961, 302 129.800, 302 129.567 C 302 128.607, 298.765 126, 297.573 126 C 296.867 126, 293.283 128.755, 289.608 132.122 M 326.503 128.989 C 326.009 130.546, 327.677 132.782, 334.186 139.290 C 349.731 154.830, 356.965 172.046, 356.965 193.500 C 356.965 214.922, 349.729 232.172, 334.250 247.647 C 325.840 256.055, 324.871 257.818, 327.472 259.977 C 329.490 261.651, 334.021 258.765, 341.121 251.280 C 348.040 243.988, 352.186 237.927, 356.536 228.744 C 362.148 216.898, 364.243 207.318, 364.243 193.500 C 364.243 184.404, 363.726 179.564, 362.106 173.500 C 357.868 157.641, 349.304 143.126, 338.021 132.680 C 331.475 126.620, 327.645 125.392, 326.503 128.989 M 191.054 167.677 C 185.005 169.881, 177.763 177.312, 175.667 183.463 C 172.048 194.084, 174.346 205.217, 181.737 212.875 L 186.200 217.500 198.658 192.642 C 205.510 178.969, 210.835 167.502, 210.491 167.158 C 209.066 165.732, 195.386 166.098, 191.054 167.677 M 205.288 195.411 C 191.853 222.307, 192.051 221, 201.404 221 C 225.184 221, 237.872 193.230, 222.368 175.117 C 220.430 172.852, 218.537 171, 218.163 171 C 217.788 171, 211.994 181.985, 205.288 195.411 " stroke="none" fill="black" fill-rule="evenodd"/>
</svg>