<svg xmlns="http://www.w3.org/2000/svg" width="212" height="324" viewBox="0 0 212 324" version="1.1">
	<path d="M 183.200 127.200 C 181.294 129.106, 181.773 130.977, 185.149 134.822 C 194.714 145.716, 197.058 164.590, 190.574 178.500 C 189.292 181.250, 185.667 186.650, 182.517 190.500 C 179.367 194.350, 175.198 200.793, 173.252 204.817 C 170.193 211.143, 169.648 213.395, 169.227 221.442 C 168.926 227.196, 169.225 232.802, 170.008 236.125 C 172.789 247.917, 181.980 261.373, 186.866 260.804 C 190.587 260.372, 190.694 257.555, 187.144 253.511 C 175.727 240.508, 172.841 222.404, 179.865 207.856 C 181.554 204.360, 185.486 198.350, 188.604 194.500 C 202.605 177.214, 205.535 158.503, 197.080 140.377 C 194.142 134.078, 187.682 126, 185.584 126 C 184.933 126, 183.860 126.540, 183.200 127.200 M 67.045 159.092 C 60.222 160.430, 52.645 164.576, 48.188 169.412 C 44.345 173.581, 43.789 173.832, 36.116 174.865 C 31.370 175.504, 25.411 177.154, 21.583 178.890 C 13.738 182.447, 4.772 190.406, 5.204 193.430 C 5.738 197.166, 9.662 196.567, 14.627 191.990 C 19.955 187.078, 28.428 183.092, 35.258 182.283 L 40.146 181.704 39.340 185.602 C 33.229 215.141, 64.053 238.469, 90.348 224.205 C 94.827 221.776, 104 212.871, 104 210.953 C 104 210.496, 106.138 209.857, 108.750 209.533 C 115.805 208.658, 123.938 206.134, 128.875 203.290 C 133.619 200.557, 141 194.265, 141 192.955 C 141 191.962, 138.124 189, 137.159 189 C 136.775 189, 133.804 190.987, 130.556 193.417 C 125.137 197.470, 114.409 202, 110.229 202 C 108.732 202, 108.496 200.891, 108.472 193.750 C 108.449 187.002, 107.969 184.477, 105.837 179.880 C 100.882 169.199, 92.164 161.953, 81.147 159.360 C 74.826 157.873, 73.405 157.846, 67.045 159.092 M 64.500 167.158 C 57.777 169.666, 50.458 176, 54.282 176 C 58.144 176, 70.315 183.484, 76.253 189.510 C 82.899 196.255, 90.788 200.703, 97.011 201.214 L 100.500 201.500 100.794 194.244 C 101.244 183.131, 96.765 174.877, 87.261 169.307 C 83.647 167.189, 81.196 166.592, 75.117 166.346 C 70.928 166.177, 66.150 166.542, 64.500 167.158 M 47.096 185.154 C 45.533 189.639, 45.742 197.886, 47.554 203.205 C 53.548 220.796, 77.377 226.785, 91.904 214.350 C 94.206 212.380, 95.945 210.334, 95.768 209.804 C 95.591 209.274, 92.867 207.969, 89.714 206.905 C 81.613 204.170, 75.026 199.846, 70.147 194.060 C 66.068 189.222, 57.588 184.199, 50.846 182.628 C 48.538 182.091, 48.049 182.420, 47.096 185.154 M 39.571 223.571 C 38.707 224.436, 38 225.636, 38 226.239 C 38 226.841, 43.941 233.334, 51.202 240.667 L 64.405 254 52.774 254 C 43.534 254, 40.820 254.323, 39.571 255.571 C 37.598 257.545, 37.598 258.455, 39.571 260.429 C 40.936 261.793, 45.463 262, 74 262 C 102.537 262, 107.064 261.793, 108.429 260.429 C 110.402 258.455, 110.402 257.545, 108.429 255.571 C 107.180 254.323, 104.466 254, 95.226 254 L 83.595 254 96.798 240.667 C 104.059 233.334, 110 226.841, 110 226.239 C 110 225.006, 107.250 222, 106.123 222 C 105.719 222, 98.453 228.971, 89.976 237.492 L 74.562 252.984 58.961 237.492 C 50.380 228.971, 42.860 222, 42.251 222 C 41.641 222, 40.436 222.707, 39.571 223.571 " stroke="none" fill="black" fill-rule="evenodd"/>
</svg>