<svg xmlns="http://www.w3.org/2000/svg" width="340" height="324" viewBox="0 0 340 324" version="1.1">
	<path d="M 55.750 63.080 C 54.186 63.991, 54 66.007, 54 82.015 C 54 98.703, 54.132 100, 55.934 100.965 C 57.043 101.558, 64.905 102, 74.363 102 C 88.024 102, 91.127 101.730, 92.429 100.429 C 94.757 98.100, 94.757 65.900, 92.429 63.571 C 91.123 62.266, 88.036 62.005, 74.179 62.030 C 64.720 62.048, 56.742 62.502, 55.750 63.080 M 62 82 L 62 94 74 94 L 86 94 86 82 L 86 70 74 70 L 62 70 62 82 M 71.571 127.571 C 70.212 128.931, 70 133.242, 70 159.571 L 70 190 39.571 190 C 13.242 190, 8.931 190.212, 7.571 191.571 C 5.598 193.545, 5.598 194.455, 7.571 196.429 C 8.931 197.788, 13.242 198, 39.571 198 L 70 198 70 228.429 C 70 254.758, 70.212 259.069, 71.571 260.429 C 72.436 261.293, 73.529 262, 74 262 C 74.471 262, 75.564 261.293, 76.429 260.429 C 77.788 259.069, 78 254.758, 78 228.429 L 78 198 108.429 198 C 134.758 198, 139.069 197.788, 140.429 196.429 C 142.402 194.455, 142.402 193.545, 140.429 191.571 C 139.069 190.212, 134.758 190, 108.429 190 L 78 190 78 159.571 C 78 133.242, 77.788 128.931, 76.429 127.571 C 75.564 126.707, 74.471 126, 74 126 C 73.529 126, 72.436 126.707, 71.571 127.571 M 286.582 135.250 C 280.674 141.267, 276.034 147.122, 273.306 152 C 258.605 178.285, 258.605 208.752, 273.306 234.985 C 277.500 242.469, 295.147 262.006, 297.711 262.002 C 298.376 262.001, 299.501 261.300, 300.211 260.445 C 300.920 259.590, 303.030 257.453, 304.899 255.695 C 306.769 253.938, 310.935 249.203, 314.157 245.174 C 338.116 215.218, 338.120 171.823, 314.166 141.826 C 307.654 133.671, 299.402 126, 297.141 126 C 296.328 126, 291.576 130.162, 286.582 135.250 M 289.810 141.789 C 285.068 147.038, 280.834 153.371, 277.065 160.856 C 267.456 179.937, 267.449 206.990, 277.050 226.144 C 280.694 233.413, 287.561 243.364, 291.392 246.924 L 294 249.349 294 193.674 C 294 163.053, 293.827 138, 293.616 138 C 293.405 138, 291.692 139.705, 289.810 141.789 M 301 193.500 C 301 223.475, 301.337 247.971, 301.750 247.935 C 303.506 247.782, 312.174 236.236, 315.839 229.166 C 322.770 215.798, 324.506 208.517, 324.461 193 C 324.424 180.479, 324.190 178.831, 321.236 170.269 C 317.784 160.265, 311.693 149.573, 305.753 143.090 C 303.692 140.840, 301.779 139, 301.503 139 C 301.226 139, 301 163.525, 301 193.500 M 231.750 191.080 C 229.372 192.465, 229.542 195.685, 232.064 197.034 C 235.753 199.008, 238.819 194.219, 235.800 191.200 C 234.367 189.767, 234.022 189.757, 231.750 191.080 M 167.571 255.571 C 166.707 256.436, 166 257.529, 166 258 C 166 259.111, 168.889 262, 170 262 C 171.111 262, 174 259.111, 174 258 C 174 256.889, 171.111 254, 170 254 C 169.529 254, 168.436 254.707, 167.571 255.571 M 231.750 255.080 C 229.372 256.465, 229.542 259.685, 232.064 261.034 C 235.753 263.008, 238.819 258.219, 235.800 255.200 C 234.367 253.767, 234.022 253.757, 231.750 255.080 " stroke="none" fill="black" fill-rule="evenodd"/>
</svg>