<svg xmlns="http://www.w3.org/2000/svg" width="564" height="324" viewBox="0 0 564 324" version="1.1">
	<path d="M 55.571 63.571 C 53.243 65.900, 53.243 98.100, 55.571 100.429 C 57.900 102.757, 90.100 102.757, 92.429 100.429 C 94.757 98.100, 94.757 65.900, 92.429 63.571 C 90.100 61.243, 57.900 61.243, 55.571 63.571 M 62 82 L 62 94 74 94 L 86 94 86 82 L 86 70 74 70 L 62 70 62 82 M 71.571 127.571 C 70.212 128.931, 70 133.242, 70 159.571 L 70 190 39.571 190 C 13.242 190, 8.931 190.212, 7.571 191.571 C 5.598 193.545, 5.598 194.455, 7.571 196.429 C 8.931 197.788, 13.242 198, 39.571 198 L 70 198 70 228.429 C 70 254.758, 70.212 259.069, 71.571 260.429 C 72.436 261.293, 73.529 262, 74 262 C 74.471 262, 75.564 261.293, 76.429 260.429 C 77.788 259.069, 78 254.758, 78 228.429 L 78 198 108.429 198 C 134.758 198, 139.069 197.788, 140.429 196.429 C 142.402 194.455, 142.402 193.545, 140.429 191.571 C 139.069 190.212, 134.758 190, 108.429 190 L 78 190 78 159.571 C 78 133.242, 77.788 128.931, 76.429 127.571 C 75.564 126.707, 74.471 126, 74 126 C 73.529 126, 72.436 126.707, 71.571 127.571 M 231.821 127.358 C 231.095 128.105, 226.932 135.938, 222.571 144.765 C 214.719 160.659, 214.617 160.804, 212.071 159.768 C 210.657 159.192, 205.845 158.694, 201.377 158.660 C 194.193 158.607, 192.504 158.969, 186.755 161.800 C 178.999 165.618, 172.824 171.965, 169.216 179.825 C 167.092 184.453, 166.610 186.998, 166.606 193.623 C 166.601 200.762, 166.991 202.540, 169.831 208.307 C 171.868 212.446, 174.910 216.532, 178.068 219.371 L 183.075 223.873 174.537 240.925 C 169.842 250.304, 166 258.176, 166 258.417 C 166 258.659, 166.707 259.564, 167.571 260.429 C 168.936 261.793, 173.463 262, 202 262 C 230.537 262, 235.064 261.793, 236.429 260.429 C 237.293 259.564, 238 258.471, 238 258 C 238 257.529, 237.293 256.436, 236.429 255.571 C 235.071 254.214, 230.848 254, 205.421 254 L 175.986 254 182.606 240.750 C 186.248 233.463, 189.357 227.356, 189.516 227.181 C 189.675 227.005, 192.483 227.388, 195.756 228.032 C 206.659 230.177, 219.111 225.943, 226.967 217.420 C 240.351 202.900, 239.628 181.129, 225.323 167.944 L 221.006 163.965 229.503 146.994 C 234.176 137.659, 238 129.824, 238 129.583 C 238 128.794, 234.880 126, 234 126 C 233.529 126, 232.548 126.611, 231.821 127.358 M 326.571 127.571 C 325.683 128.460, 325 130.829, 325 133.022 C 325 145.705, 318.051 161.046, 307.548 171.548 C 297.046 182.051, 281.705 189, 269.022 189 C 265.416 189, 262 190.946, 262 193 C 262 193.471, 262.743 194.601, 263.652 195.509 C 266.777 198.634, 283.386 195.431, 295.806 189.308 C 304.621 184.962, 316.209 174.501, 321.965 165.693 L 326 159.517 326 209.187 C 326 253.008, 326.185 259.042, 327.571 260.429 C 329.387 262.244, 329.947 262.319, 332 261.022 C 333.289 260.207, 333.570 253.151, 334 210.910 L 334.500 161.746 337.732 166.735 C 344.234 176.772, 358.646 188.362, 369.257 192.088 L 373.014 193.407 357.507 209.024 C 348.978 217.613, 342 225.270, 342 226.039 C 342 227.706, 376.055 262, 377.710 262 C 379.173 262, 382 259.200, 382 257.751 C 382 257.143, 375.150 249.744, 366.777 241.308 L 351.555 225.970 366.527 210.930 L 381.500 195.890 388.093 196.531 C 393.486 197.055, 394.987 196.870, 396.343 195.514 C 398.404 193.453, 398.419 192.562, 396.429 190.571 C 395.478 189.621, 393.126 189, 390.478 189 C 383.319 189, 376.014 187.065, 367.101 182.809 C 348.438 173.897, 334.082 152.426, 334.015 133.321 C 334 129.093, 332.092 126, 329.500 126 C 328.754 126, 327.436 126.707, 326.571 127.571 M 472.530 142 L 456.424 158 440.783 158 C 427.898 158, 424.866 158.277, 423.571 159.571 C 422.707 160.436, 422 161.640, 422 162.249 C 422 162.857, 428.844 170.250, 437.208 178.677 L 452.416 194 437.208 209.323 C 428.844 217.750, 422 225.143, 422 225.751 C 422 226.360, 422.707 227.564, 423.571 228.429 C 424.931 229.788, 429.242 230, 455.571 230 L 486 230 486 244.429 C 486 256.212, 486.288 259.145, 487.571 260.429 C 488.436 261.293, 489.529 262, 490 262 C 490.471 262, 491.564 261.293, 492.429 260.429 C 493.712 259.145, 494 256.212, 494 244.429 L 494 230 524.429 230 C 550.758 230, 555.069 229.788, 556.429 228.429 C 557.293 227.564, 558 226.360, 558 225.751 C 558 225.143, 551.156 217.750, 542.792 209.323 L 527.584 194 542.792 178.677 C 551.156 170.250, 558 162.857, 558 162.249 C 558 161.640, 557.293 160.436, 556.429 159.571 C 555.134 158.277, 552.102 158, 539.217 158 L 523.576 158 507.470 142 C 498.611 133.200, 490.750 126, 490 126 C 489.250 126, 481.389 133.200, 472.530 142 M 474.434 151.009 L 459.368 166 447.482 166 L 435.595 166 448.798 179.333 C 456.059 186.666, 462 193.266, 462 194 C 462 194.734, 456.059 201.334, 448.798 208.667 L 435.595 222 490 222 L 544.405 222 531.202 208.667 C 523.941 201.334, 518 194.734, 518 194 C 518 193.266, 523.941 186.666, 531.202 179.333 L 544.405 166 532.525 166 L 520.645 166 505.532 151 C 497.220 142.750, 490.212 136.004, 489.960 136.009 C 489.707 136.014, 482.720 142.764, 474.434 151.009 M 191.054 167.677 C 185.005 169.881, 177.763 177.312, 175.667 183.463 C 172.033 194.128, 174.302 205.041, 181.746 212.700 L 186.300 217.385 198.708 192.584 C 205.533 178.944, 210.835 167.502, 210.491 167.158 C 209.066 165.732, 195.386 166.098, 191.054 167.677 M 205.251 195.485 C 191.856 222.301, 192.052 221, 201.404 221 C 209.293 221, 215.432 218.473, 220.952 212.952 C 230.783 203.122, 231.823 187.501, 223.384 176.436 C 218.010 169.391, 218.589 168.782, 205.251 195.485 " stroke="none" fill="black" fill-rule="evenodd"/>
</svg>