<svg xmlns="http://www.w3.org/2000/svg" width="628" height="324" viewBox="0 0 628 324" version="1.1">
	<path d="M 55.571 63.571 C 53.243 65.900, 53.243 98.100, 55.571 100.429 C 57.900 102.757, 90.100 102.757, 92.429 100.429 C 94.757 98.100, 94.757 65.900, 92.429 63.571 C 90.100 61.243, 57.900 61.243, 55.571 63.571 M 62 82 L 62 94 74 94 L 86 94 86 82 L 86 70 74 70 L 62 70 62 82 M 71.571 127.571 C 70.212 128.931, 70 133.242, 70 159.571 L 70 190 39.571 190 C 13.242 190, 8.931 190.212, 7.571 191.571 C 5.598 193.545, 5.598 194.455, 7.571 196.429 C 8.931 197.788, 13.242 198, 39.571 198 L 70 198 70 228.429 C 70 254.758, 70.212 259.069, 71.571 260.429 C 72.436 261.293, 73.529 262, 74 262 C 74.471 262, 75.564 261.293, 76.429 260.429 C 77.788 259.069, 78 254.758, 78 228.429 L 78 198 108.429 198 C 134.758 198, 139.069 197.788, 140.429 196.429 C 142.402 194.455, 142.402 193.545, 140.429 191.571 C 139.069 190.212, 134.758 190, 108.429 190 L 78 190 78 159.571 C 78 133.242, 77.788 128.931, 76.429 127.571 C 75.564 126.707, 74.471 126, 74 126 C 73.529 126, 72.436 126.707, 71.571 127.571 M 390.571 127.571 C 389.699 128.444, 389 130.819, 389 132.911 C 389 139.127, 385.245 151.866, 381.340 158.899 C 376.205 168.148, 366.052 177.887, 356.875 182.369 C 348.466 186.475, 339.512 189, 333.361 189 C 330.860 189, 328.503 189.640, 327.571 190.571 C 325.583 192.560, 325.596 193.454, 327.645 195.502 C 330.752 198.610, 345.603 195.672, 358.858 189.329 C 366.415 185.712, 369.708 183.373, 375.969 177.175 C 380.233 172.954, 385.130 167.025, 386.851 164 L 389.981 158.500 389.991 208.679 C 389.999 252.954, 390.185 259.042, 391.571 260.429 C 393.678 262.535, 394.598 262.412, 396.443 259.777 C 397.800 257.841, 398 251.391, 398 209.667 L 398 161.780 402.400 167.756 C 410.436 178.673, 420.847 187.129, 431.666 191.526 L 436.879 193.645 421.440 209.060 C 412.948 217.539, 406 225.173, 406 226.025 C 406 227.737, 439.994 262, 441.692 262 C 443.611 262, 445.235 259.072, 444.637 256.691 C 444.315 255.407, 437.571 248.009, 429.651 240.251 L 415.251 226.145 430.197 210.999 L 445.142 195.853 452.189 196.176 C 458.034 196.445, 459.429 196.201, 460.363 194.750 C 462.506 191.421, 459.993 189.565, 452.395 188.865 C 448.603 188.516, 443.489 187.685, 441.032 187.018 C 417.871 180.733, 398 156.186, 398 133.861 C 398 129.087, 396.233 126, 393.500 126 C 392.754 126, 391.436 126.707, 390.571 127.571 M 536.500 142 L 520.523 158 504.462 158 C 488.114 158, 486 158.451, 486 161.938 C 486 162.784, 492.857 170.344, 501.238 178.738 L 516.476 194 501.238 209.262 C 492.857 217.656, 486 225.216, 486 226.062 C 486 229.811, 487.589 230, 519.200 230 L 550 230 550 244.965 C 550 259.061, 550.120 259.994, 552.064 261.034 C 556.316 263.310, 557 261.071, 557 244.878 L 557 230 587.929 230 C 615.075 230, 619.055 229.802, 620.473 228.384 C 621.362 227.495, 621.933 226.299, 621.742 225.726 C 621.551 225.153, 614.444 217.781, 605.947 209.342 L 590.500 194 605.947 178.658 C 614.444 170.219, 621.551 162.847, 621.742 162.274 C 621.933 161.701, 621.362 160.505, 620.473 159.616 C 619.118 158.261, 616.240 158, 602.641 158 L 586.424 158 570.531 142 C 561.790 133.200, 554.152 126, 553.557 126 C 552.963 126, 545.287 133.200, 536.500 142 M 538.046 150.486 L 522.642 166 510.571 166.015 L 498.500 166.031 512 179.396 C 519.425 186.747, 525.500 193.319, 525.500 194 C 525.500 194.681, 519.425 201.253, 512 208.604 L 498.500 221.969 553.486 221.985 L 608.472 222 595.236 208.737 C 587.956 201.442, 582 194.810, 582 194 C 582 193.190, 587.956 186.558, 595.236 179.263 L 608.472 166 596.497 166 L 584.523 166 568.986 150.486 L 553.450 134.972 538.046 150.486 M 192.026 175.103 C 184.467 176.408, 173.198 182.203, 168.081 187.418 C 164.344 191.225, 163.950 192.037, 164.939 193.886 C 166.385 196.587, 169.162 196.586, 171.595 193.884 C 174.990 190.112, 181.520 186.183, 188.083 183.964 C 193.273 182.209, 196.156 181.872, 203.161 182.201 C 210.670 182.553, 212.813 183.098, 219.283 186.295 C 224.342 188.795, 227.902 191.394, 230.334 194.363 C 239.907 206.045, 257.948 211.920, 273.976 208.574 C 290.764 205.069, 304.764 194.003, 297.873 189.685 C 296.605 188.890, 295.264 189.469, 291.803 192.305 C 289.359 194.308, 284.692 197.195, 281.430 198.723 C 276.127 201.206, 274.389 201.500, 265 201.500 C 255.266 201.500, 254.008 201.267, 247.759 198.307 C 243.377 196.231, 239.395 193.352, 236.380 190.078 C 225.248 177.993, 208.345 172.286, 192.026 175.103 " stroke="none" fill="black" fill-rule="evenodd"/>
</svg>