<svg xmlns="http://www.w3.org/2000/svg" width="372" height="324" viewBox="0 0 372 324" version="1.1">
	<path d="M 65.384 159.412 C 58.826 161.003, 52.253 164.870, 47.881 169.710 C 44.667 173.268, 43.848 173.614, 35.965 174.752 C 30.141 175.592, 25.316 177.056, 20.500 179.443 C 11.899 183.707, 4.744 190.185, 5.188 193.307 C 5.706 196.945, 9.681 196.696, 13.870 192.764 C 15.867 190.890, 18.782 188.562, 20.349 187.590 C 24.355 185.107, 33.756 182, 37.265 182 C 39.820 182, 40.144 182.303, 39.677 184.250 C 36.467 197.620, 40.051 210.183, 49.580 218.967 C 64.380 232.610, 86.172 231.613, 99.598 216.679 C 102.019 213.987, 104 211.425, 104 210.986 C 104 210.547, 106.362 209.890, 109.250 209.526 C 123.486 207.731, 140 198.568, 140 192.464 C 140 188.434, 136.557 188.410, 131.681 192.406 C 126.419 196.717, 118.020 200.665, 112.114 201.603 L 107.728 202.299 108.429 197.623 C 109.247 192.171, 107.630 183.196, 104.841 177.705 C 100.264 168.695, 91.293 161.748, 81.147 159.360 C 74.397 157.772, 72.111 157.779, 65.384 159.412 M 327.571 159.571 C 326.227 160.916, 326 164.736, 326 186 C 326 207.264, 326.227 211.084, 327.571 212.429 C 328.436 213.293, 329.529 214, 330 214 C 330.471 214, 331.564 213.293, 332.429 212.429 C 333.773 211.084, 334 207.264, 334 186 C 334 164.736, 333.773 160.916, 332.429 159.571 C 331.564 158.707, 330.471 158, 330 158 C 329.529 158, 328.436 158.707, 327.571 159.571 M 63.591 167.573 C 56.854 170.042, 50.331 176, 54.366 176 C 57.430 176, 69.924 183.250, 74.308 187.572 C 76.889 190.116, 79 192.541, 79 192.960 C 79 194.135, 89.974 199.677, 94.893 200.985 C 100.324 202.430, 100.963 201.689, 100.985 193.928 C 101.029 177.694, 89.179 165.867, 73.072 166.070 C 70.007 166.109, 65.741 166.785, 63.591 167.573 M 47.072 185.224 C 43.975 194.108, 46.919 206.014, 53.952 213.048 C 63.922 223.017, 80.800 223.779, 91.216 214.729 C 96.556 210.089, 96.373 209.122, 89.762 207.035 C 82.268 204.669, 75.016 199.946, 70.595 194.551 C 66.473 189.520, 60.644 185.853, 53.322 183.684 L 48.143 182.150 47.072 185.224 M 327.571 222.571 C 326.707 223.436, 326 224.529, 326 225 C 326 226.111, 328.889 229, 330 229 C 331.111 229, 334 226.111, 334 225 C 334 223.889, 331.111 221, 330 221 C 329.529 221, 328.436 221.707, 327.571 222.571 M 39.571 223.571 C 38.707 224.436, 38 225.636, 38 226.239 C 38 226.841, 43.941 233.334, 51.202 240.667 L 64.405 254 52.774 254 C 43.534 254, 40.820 254.323, 39.571 255.571 C 37.598 257.545, 37.598 258.455, 39.571 260.429 C 40.936 261.793, 45.463 262, 74 262 C 102.537 262, 107.064 261.793, 108.429 260.429 C 110.402 258.455, 110.402 257.545, 108.429 255.571 C 107.180 254.323, 104.466 254, 95.226 254 L 83.595 254 96.798 240.667 C 104.059 233.334, 110 226.841, 110 226.239 C 110 224.817, 107.176 222, 105.751 222 C 105.143 222, 97.750 228.844, 89.323 237.208 L 74 252.416 58.677 237.208 C 50.250 228.844, 42.857 222, 42.249 222 C 41.640 222, 40.436 222.707, 39.571 223.571 M 167.571 255.571 C 166.707 256.436, 166 257.529, 166 258 C 166 258.471, 166.707 259.564, 167.571 260.429 C 168.968 261.825, 176.372 262, 234 262 C 291.628 262, 299.032 261.825, 300.429 260.429 C 301.293 259.564, 302 258.471, 302 258 C 302 257.529, 301.293 256.436, 300.429 255.571 C 299.032 254.175, 291.628 254, 234 254 C 176.372 254, 168.968 254.175, 167.571 255.571 M 199.571 287.571 C 198.707 288.436, 198 289.529, 198 290 C 198 291.111, 200.889 294, 202 294 C 203.111 294, 206 291.111, 206 290 C 206 288.889, 203.111 286, 202 286 C 201.529 286, 200.436 286.707, 199.571 287.571 M 263.571 287.571 C 262.707 288.436, 262 289.529, 262 290 C 262 290.471, 262.707 291.564, 263.571 292.429 C 264.436 293.293, 265.529 294, 266 294 C 266.471 294, 267.564 293.293, 268.429 292.429 C 269.293 291.564, 270 290.471, 270 290 C 270 289.529, 269.293 288.436, 268.429 287.571 C 267.564 286.707, 266.471 286, 266 286 C 265.529 286, 264.436 286.707, 263.571 287.571 " stroke="none" fill="black" fill-rule="evenodd"/>
</svg>