<svg xmlns="http://www.w3.org/2000/svg" width="564" height="324" viewBox="0 0 564 324" version="1.1">
	<path d="M 319.102 127.108 C 293.633 130.963, 271.059 151.541, 264.374 177 C 263.312 181.044, 262.667 187.278, 262.667 193.500 C 262.667 205.308, 264.531 213.335, 269.751 224 C 274.958 234.639, 288.468 248.105, 299.076 253.230 C 309.781 258.402, 327.347 262.280, 333.823 260.900 C 335.845 260.469, 340.875 259.396, 345 258.516 C 357.502 255.849, 366.171 250.907, 376.539 240.539 C 390.551 226.527, 396.304 212.834, 396.304 193.500 C 396.304 174.166, 390.551 160.473, 376.539 146.461 C 366.823 136.745, 358.203 131.569, 346.831 128.621 C 339.080 126.612, 326.806 125.942, 319.102 127.108 M 314.645 135.584 C 294.671 140.419, 276.279 158.986, 271.537 179.103 C 268.241 193.087, 270.182 208.814, 276.757 221.397 C 281.685 230.827, 292.173 241.315, 301.603 246.243 C 308.332 249.759, 318.823 252.953, 323.750 252.985 L 326 253 326 193.500 L 326 134 323.250 134.083 C 321.738 134.129, 317.865 134.804, 314.645 135.584 M 334 193.500 C 334 249.506, 334.103 252.999, 335.750 252.985 C 336.712 252.977, 340.379 252.292, 343.897 251.463 C 364.261 246.662, 382.662 228.261, 387.463 207.897 C 389.390 199.718, 389.390 187.282, 387.463 179.103 C 382.662 158.739, 364.261 140.338, 343.897 135.537 C 340.379 134.708, 336.712 134.023, 335.750 134.015 C 334.103 134.001, 334 137.494, 334 193.500 M 33.384 159.412 C 15.475 163.758, 3.559 181.807, 6.987 199.396 C 8.500 207.161, 12.212 214.019, 17.580 218.967 C 38.277 238.045, 70.591 227.221, 76.013 199.396 C 79.488 181.565, 67.484 163.676, 49.147 159.360 C 42.397 157.772, 40.111 157.779, 33.384 159.412 M 161.384 159.412 C 154.782 161.014, 148.247 164.877, 143.786 169.815 C 140.535 173.413, 139.676 173.802, 133.511 174.462 C 121.432 175.755, 110.535 180.724, 103.217 188.276 C 99.704 191.901, 99.675 194.445, 103.132 195.542 C 104.512 195.980, 106.272 195.084, 109.167 192.468 C 114.453 187.692, 124.322 183.105, 131.013 182.312 C 136.208 181.697, 136.286 181.726, 135.716 184.093 C 132.460 197.615, 136.003 210.139, 145.580 218.967 C 160.380 232.610, 182.172 231.613, 195.598 216.679 C 198.019 213.987, 200 211.425, 200 210.986 C 200 210.547, 202.363 209.890, 205.250 209.526 C 219.486 207.731, 236 198.568, 236 192.464 C 236 188.535, 232.496 188.357, 228.267 192.070 C 223.712 196.070, 213.937 200.698, 208.114 201.611 L 203.728 202.299 204.429 197.623 C 205.247 192.171, 203.630 183.196, 200.841 177.705 C 196.264 168.695, 187.293 161.748, 177.147 159.360 C 170.397 157.772, 168.111 157.779, 161.384 159.412 M 456 158.977 C 454.979 159.621, 454.340 162.248, 454 167.204 L 453.500 174.484 449 175.159 C 439.537 176.578, 429.706 181.580, 423.217 188.276 C 419.704 191.901, 419.675 194.445, 423.132 195.542 C 424.512 195.980, 426.272 195.084, 429.167 192.468 C 433.973 188.127, 443.743 183.353, 449.750 182.411 L 454 181.744 454 204.301 C 454 223.473, 454.236 227.093, 455.571 228.429 C 456.936 229.793, 461.463 230, 490 230 C 518.537 230, 523.064 229.793, 524.429 228.429 C 525.622 227.235, 526 224.712, 526 217.929 C 526 209.230, 526.060 209, 528.343 209 C 537.374 209, 556 197.863, 556 192.464 C 556 188.535, 552.496 188.357, 548.267 192.070 C 544.288 195.564, 534.462 200.435, 529.250 201.497 L 526 202.159 526 181.651 C 526 164.341, 525.755 160.898, 524.429 159.571 C 523.063 158.206, 518.567 158.002, 490.179 158.015 C 471.379 158.024, 456.863 158.433, 456 158.977 M 31.054 167.728 C 25.018 169.859, 17.781 177.260, 15.667 183.463 C 11.995 194.241, 14.382 205.477, 21.952 213.048 C 32.673 223.769, 50.327 223.769, 61.048 213.048 C 71.769 202.327, 71.769 184.673, 61.048 173.952 C 53.519 166.424, 41.696 163.970, 31.054 167.728 M 159.463 167.591 C 157.242 168.380, 153.706 170.442, 151.604 172.175 L 147.783 175.325 153.653 177.450 C 160.841 180.053, 167.115 184.294, 172.825 190.410 C 177.434 195.346, 183.785 199.057, 190.910 200.976 C 196.322 202.433, 196.963 201.690, 196.985 193.928 C 197.029 177.691, 185.163 165.851, 169.072 166.079 C 166.007 166.122, 161.683 166.803, 159.463 167.591 M 462 170.500 C 462 174.553, 462.233 175, 464.343 175 C 467.996 175, 477.857 178.700, 482.999 181.999 C 485.562 183.644, 489.856 187.310, 492.541 190.146 C 497.827 195.729, 506.616 200.471, 513.750 201.589 L 518 202.256 518 184.128 L 518 166 490 166 L 462 166 462 170.500 M 143.064 185.247 C 141.497 189.741, 141.768 197.964, 143.667 203.537 C 149.575 220.875, 173.473 226.703, 187.928 214.330 C 190.217 212.371, 191.938 210.313, 191.753 209.758 C 191.568 209.203, 188.853 207.956, 185.720 206.986 C 178.335 204.701, 171.034 199.968, 166.658 194.627 C 163.077 190.258, 154.360 184.969, 147.814 183.195 C 144.256 182.231, 144.090 182.303, 143.064 185.247 M 462 201.921 L 462 222 490.048 222 L 518.095 222 517.798 215.834 L 517.500 209.668 511.059 208.358 C 501.536 206.421, 494.380 202.480, 487.331 195.290 C 481.111 188.947, 472.555 183.992, 465.250 182.503 L 462 181.841 462 201.921 M 7.571 255.571 C 6.707 256.436, 6 257.529, 6 258 C 6 258.471, 6.707 259.564, 7.571 260.429 C 8.936 261.793, 13.463 262, 42 262 C 70.537 262, 75.064 261.793, 76.429 260.429 C 77.293 259.564, 78 258.471, 78 258 C 78 257.529, 77.293 256.436, 76.429 255.571 C 75.064 254.207, 70.537 254, 42 254 C 13.463 254, 8.936 254.207, 7.571 255.571 M 135.571 255.571 C 134.707 256.436, 134 257.529, 134 258 C 134 258.471, 134.707 259.564, 135.571 260.429 C 136.936 261.793, 141.463 262, 170 262 C 198.537 262, 203.064 261.793, 204.429 260.429 C 205.293 259.564, 206 258.471, 206 258 C 206 257.529, 205.293 256.436, 204.429 255.571 C 203.064 254.207, 198.537 254, 170 254 C 141.463 254, 136.936 254.207, 135.571 255.571 " stroke="none" fill="black" fill-rule="evenodd"/>
</svg>