<svg xmlns="http://www.w3.org/2000/svg" width="244" height="324" viewBox="0 0 244 324" version="1.1">
	<path d="M 23.571 63.571 C 22.707 64.436, 22 65.332, 22 65.564 C 22 67.123, 39.710 101.058, 40.727 101.449 C 41.427 101.717, 42.573 101.717, 43.273 101.449 C 45.129 100.736, 62.063 66.328, 61.403 64.609 C 60.732 62.858, 58.483 61.877, 56.705 62.560 C 55.993 62.833, 52.520 68.894, 48.986 76.028 C 45.453 83.163, 42.308 89, 41.997 89 C 41.687 89, 38.748 83.534, 35.467 76.853 C 27.925 61.499, 26.847 60.296, 23.571 63.571 M 72.372 126.765 C 71.751 127.169, 67.538 134.925, 63.009 144 C 58.480 153.075, 54.713 160.573, 54.637 160.662 C 54.562 160.751, 51.800 160.133, 48.500 159.289 C 34.489 155.705, 17.990 163.326, 10.781 176.712 C 2.963 191.227, 5.975 208.499, 18.250 219.535 L 23.075 223.873 14.537 240.925 C 9.842 250.304, 6 258.176, 6 258.417 C 6 258.659, 6.707 259.564, 7.571 260.429 C 8.936 261.793, 13.463 262, 42 262 C 70.537 262, 75.064 261.793, 76.429 260.429 C 78.402 258.455, 78.402 257.545, 76.429 255.571 C 75.071 254.214, 70.849 254, 45.433 254 L 16.009 254 22.750 240.475 L 29.490 226.951 33.995 227.725 C 46.608 229.894, 57.558 226.602, 66.080 218.080 C 73.159 211.001, 76.193 203.627, 76.193 193.500 C 76.193 183.648, 73.197 176.194, 66.432 169.209 L 61.124 163.729 69.562 146.876 C 74.203 137.606, 78 129.824, 78 129.583 C 78 128.874, 74.920 125.999, 74.179 126.015 C 73.805 126.024, 72.992 126.361, 72.372 126.765 M 199.571 159.571 C 197.215 161.927, 197.215 210.073, 199.571 212.429 C 201.457 214.315, 202.219 214.381, 203.800 212.800 C 205.508 211.092, 205.508 160.908, 203.800 159.200 C 202.219 157.619, 201.457 157.685, 199.571 159.571 M 31.054 167.677 C 25.005 169.881, 17.763 177.312, 15.667 183.463 C 12.048 194.084, 14.346 205.217, 21.737 212.875 L 26.200 217.500 38.658 192.642 C 45.510 178.969, 50.835 167.502, 50.491 167.158 C 49.066 165.732, 35.386 166.098, 31.054 167.677 M 45.289 195.408 C 31.853 222.308, 32.051 221, 41.404 221 C 52.081 221, 61.969 214.883, 66.459 205.500 C 68.877 200.449, 69.607 191.238, 68.035 185.623 C 66.867 181.452, 60.556 171.994, 58.492 171.323 C 57.937 171.142, 51.996 181.981, 45.289 195.408 M 103.585 191.558 C 102.713 192.430, 102 193.529, 102 194 C 102 194.471, 102.713 195.570, 103.585 196.442 C 104.978 197.835, 109.159 197.995, 138.226 197.763 C 168.452 197.523, 171.377 197.350, 172.386 195.750 C 173.191 194.474, 173.191 193.526, 172.386 192.250 C 171.377 190.650, 168.452 190.477, 138.226 190.237 C 109.159 190.005, 104.978 190.165, 103.585 191.558 M 199.616 222.527 C 198.727 223.416, 198 224.529, 198 225 C 198 226.389, 201.140 229.120, 202.295 228.735 C 204.395 228.035, 205.549 225.094, 204.423 223.310 C 202.905 220.902, 201.474 220.669, 199.616 222.527 " stroke="none" fill="black" fill-rule="evenodd"/>
</svg>