<svg xmlns="http://www.w3.org/2000/svg" width="340" height="324" viewBox="0 0 340 324" version="1.1">
	<path d="M 167.571 127.571 C 166.178 128.965, 166 135.899, 166 188.799 L 166 248.455 136.711 219.227 C 120.602 203.152, 106.909 190, 106.282 190 C 104.807 190, 102 192.810, 102 194.287 C 102 195.818, 168.128 262, 169.659 262 C 170.318 262, 171.564 261.293, 172.429 260.429 C 173.825 259.032, 174 251.628, 174 194 C 174 136.372, 173.825 128.968, 172.429 127.571 C 171.564 126.707, 170.471 126, 170 126 C 169.529 126, 168.436 126.707, 167.571 127.571 M 7.491 191.652 C 6.141 193.002, 5.968 194.418, 6.543 199.402 C 8.356 215.100, 13.976 227.559, 24.168 238.472 C 35.631 250.747, 48.294 257.569, 64 259.933 C 68.125 260.553, 72.240 261.288, 73.145 261.564 C 74.049 261.841, 75.512 261.345, 76.395 260.463 C 77.803 259.054, 78 254.832, 78 226 C 78 197.463, 77.793 192.936, 76.429 191.571 C 75.064 190.207, 70.537 190, 42 190 C 12.784 190, 8.960 190.183, 7.491 191.652 M 199.200 191.200 C 198.315 192.085, 198 201.117, 198 225.629 C 198 254.503, 198.206 259.063, 199.571 260.429 C 200.436 261.293, 201.529 262, 202 262 C 202.471 262, 203.564 261.293, 204.429 260.429 C 205.788 259.069, 206 254.758, 206 228.429 L 206 198 266 198 L 326 198 326 228.965 C 326 259.475, 326.031 259.946, 328.117 261.062 C 332.718 263.525, 332.921 262.062, 333.040 225.605 C 333.128 198.461, 332.886 191.544, 331.825 190.871 C 329.599 189.459, 200.620 189.780, 199.200 191.200 M 14.015 199.750 C 14.053 204.233, 17.394 214.962, 20.757 221.397 C 25.685 230.827, 36.173 241.315, 45.603 246.243 C 52.332 249.759, 62.823 252.953, 67.750 252.985 L 70 253 70 225.500 L 70 198 42 198 C 15.994 198, 14.001 198.125, 14.015 199.750 " stroke="none" fill="black" fill-rule="evenodd"/>
</svg>