<svg xmlns="http://www.w3.org/2000/svg" width="276" height="324" viewBox="0 0 276 324" version="1.1">
	<path d="M 23.571 63.571 C 22.707 64.436, 22 65.332, 22 65.564 C 22 67.123, 39.710 101.058, 40.727 101.449 C 41.427 101.717, 42.573 101.717, 43.273 101.449 C 45.129 100.736, 62.063 66.328, 61.403 64.609 C 60.732 62.858, 58.483 61.877, 56.705 62.560 C 55.993 62.833, 52.520 68.894, 48.986 76.028 C 45.453 83.163, 42.308 89, 41.997 89 C 41.687 89, 38.748 83.534, 35.467 76.853 C 27.925 61.499, 26.847 60.296, 23.571 63.571 M 71.821 127.358 C 71.095 128.105, 66.949 135.905, 62.608 144.691 L 54.716 160.667 48.608 159.231 C 34.219 155.848, 17.974 163.355, 10.781 176.712 C 2.963 191.227, 5.975 208.499, 18.250 219.535 L 23.075 223.873 14.537 240.925 C 9.842 250.304, 6 258.176, 6 258.417 C 6 258.659, 6.707 259.564, 7.571 260.429 C 8.936 261.793, 13.463 262, 42 262 C 70.537 262, 75.064 261.793, 76.429 260.429 C 78.402 258.455, 78.402 257.545, 76.429 255.571 C 75.071 254.214, 70.848 254, 45.421 254 L 15.986 254 22.606 240.750 C 26.248 233.463, 29.357 227.356, 29.516 227.181 C 29.675 227.005, 32.483 227.388, 35.756 228.032 C 58.707 232.547, 80.669 210.304, 75.979 187.295 C 74.433 179.708, 70.668 172.870, 65.323 167.944 L 61.006 163.965 69.503 146.994 C 74.176 137.659, 78 129.824, 78 129.583 C 78 128.794, 74.880 126, 74 126 C 73.529 126, 72.548 126.611, 71.821 127.358 M 199.571 159.571 C 197.215 161.927, 197.215 210.073, 199.571 212.429 C 200.436 213.293, 201.529 214, 202 214 C 202.471 214, 203.564 213.293, 204.429 212.429 C 206.785 210.073, 206.785 161.927, 204.429 159.571 C 203.564 158.707, 202.471 158, 202 158 C 201.529 158, 200.436 158.707, 199.571 159.571 M 231.571 159.571 C 229.215 161.927, 229.215 210.073, 231.571 212.429 C 232.436 213.293, 233.529 214, 234 214 C 234.471 214, 235.564 213.293, 236.429 212.429 C 238.785 210.073, 238.785 161.927, 236.429 159.571 C 235.564 158.707, 234.471 158, 234 158 C 233.529 158, 232.436 158.707, 231.571 159.571 M 31.054 167.677 C 25.005 169.881, 17.763 177.312, 15.667 183.463 C 12.048 194.084, 14.346 205.217, 21.737 212.875 L 26.200 217.500 38.658 192.642 C 45.510 178.969, 50.835 167.502, 50.491 167.158 C 49.066 165.732, 35.386 166.098, 31.054 167.677 M 45.288 195.411 C 31.853 222.307, 32.051 221, 41.404 221 C 65.184 221, 77.872 193.230, 62.368 175.117 C 60.430 172.852, 58.537 171, 58.163 171 C 57.788 171, 51.994 181.985, 45.288 195.411 M 103.571 191.571 C 102.707 192.436, 102 193.529, 102 194 C 102 194.471, 102.707 195.564, 103.571 196.429 C 104.936 197.793, 109.463 198, 138 198 C 166.537 198, 171.064 197.793, 172.429 196.429 C 173.293 195.564, 174 194.471, 174 194 C 174 193.529, 173.293 192.436, 172.429 191.571 C 171.064 190.207, 166.537 190, 138 190 C 109.463 190, 104.936 190.207, 103.571 191.571 M 199.571 222.571 C 198.707 223.436, 198 224.529, 198 225 C 198 225.471, 198.707 226.564, 199.571 227.429 C 200.436 228.293, 201.529 229, 202 229 C 202.471 229, 203.564 228.293, 204.429 227.429 C 205.293 226.564, 206 225.471, 206 225 C 206 224.529, 205.293 223.436, 204.429 222.571 C 203.564 221.707, 202.471 221, 202 221 C 201.529 221, 200.436 221.707, 199.571 222.571 M 231.571 222.571 C 230.707 223.436, 230 224.529, 230 225 C 230 225.471, 230.707 226.564, 231.571 227.429 C 232.436 228.293, 233.529 229, 234 229 C 234.471 229, 235.564 228.293, 236.429 227.429 C 237.293 226.564, 238 225.471, 238 225 C 238 224.529, 237.293 223.436, 236.429 222.571 C 235.564 221.707, 234.471 221, 234 221 C 233.529 221, 232.436 221.707, 231.571 222.571 " stroke="none" fill="black" fill-rule="evenodd"/>
</svg>