<svg xmlns="http://www.w3.org/2000/svg" width="244" height="324" viewBox="0 0 244 324" version="1.1">
	<path d="M 33.384 127.412 C 20.085 130.639, 10.019 141.137, 7.123 154.799 C 5.447 162.706, 5.639 225.832, 7.360 233.147 C 13.578 259.562, 45.012 269.439, 65.100 251.290 C 70.079 246.792, 73.361 241.282, 75.697 233.500 C 77.281 228.222, 77.491 223.469, 77.448 194 C 77.416 171.783, 77.001 158.878, 76.218 155.685 C 72.488 140.486, 63.078 130.639, 49.147 127.360 C 42.397 125.772, 40.111 125.779, 33.384 127.412 M 31.054 135.728 C 25.018 137.859, 17.781 145.260, 15.667 151.463 C 11.995 162.241, 14.382 173.477, 21.952 181.048 C 32.402 191.497, 49.888 191.773, 60.280 181.653 C 66.701 175.401, 68.500 170.989, 68.500 161.500 C 68.500 152.011, 66.701 147.599, 60.280 141.347 C 53.109 134.363, 41.332 132.099, 31.054 135.728 M 135.173 159.292 C 134.583 160.002, 133.966 163.710, 133.800 167.531 L 133.500 174.479 128.067 175.258 C 120.916 176.282, 109.559 181.899, 104.250 187.037 C 99.513 191.622, 99.430 191.838, 101.390 194.519 C 103.072 196.819, 104.858 196.087, 112.500 189.970 C 115.442 187.614, 120.116 185.151, 123.855 183.983 C 134.920 180.530, 134 178.642, 134 204.800 C 134 221.200, 134.337 227.937, 135.200 228.800 C 136.648 230.248, 201.644 230.511, 203.907 229.078 C 204.940 228.425, 205.340 225.720, 205.407 218.926 L 205.500 209.665 211.357 208.332 C 222.463 205.802, 236.427 196.897, 235.805 192.740 C 235.178 188.551, 232.558 188.409, 227.803 192.305 C 222.749 196.447, 214.301 200.536, 208.701 201.552 L 204.902 202.241 205.060 180.997 C 205.187 164.048, 204.944 159.579, 203.859 158.892 C 203.112 158.418, 187.593 158.024, 169.372 158.015 C 143.505 158.003, 136.010 158.283, 135.173 159.292 M 142 170.500 C 142 174.553, 142.233 175, 144.343 175 C 151.540 175, 165.400 182.283, 171.766 189.409 C 176.825 195.073, 180.455 197.458, 187.759 199.919 C 198.721 203.612, 198 204.733, 198 184 L 198 166 170 166 L 142 166 142 170.500 M 142 201.921 L 142 222 170.048 222 L 198.095 222 197.798 215.750 C 197.505 209.615, 197.445 209.494, 194.500 209.201 C 184.722 208.228, 175.053 203.302, 167.072 195.230 C 160.661 188.746, 152.485 183.977, 145.250 182.503 L 142 181.841 142 201.921 M 66.161 186.333 C 53.412 199.492, 31.903 199.942, 17.955 187.340 L 14 183.767 14 207.205 C 14 234.744, 14.626 237.721, 21.952 245.048 C 32.402 255.497, 49.888 255.773, 60.280 245.653 C 68.682 237.471, 70.193 230.559, 69.781 202.193 L 69.500 182.886 66.161 186.333 " stroke="none" fill="black" fill-rule="evenodd"/>
</svg>