<svg xmlns="http://www.w3.org/2000/svg" width="180" height="324" viewBox="0 0 180 324" version="1.1">
	<path d="M 129.384 159.412 C 111.475 163.758, 99.559 181.807, 102.987 199.396 C 104.500 207.161, 108.212 214.019, 113.580 218.967 C 134.277 238.045, 166.591 227.221, 172.013 199.396 C 175.488 181.565, 163.484 163.676, 145.147 159.360 C 138.397 157.772, 136.111 157.779, 129.384 159.412 M 127.054 167.728 C 121.018 169.859, 113.781 177.260, 111.667 183.463 C 105.198 202.450, 117.964 221, 137.500 221 C 153.108 221, 165 209.108, 165 193.500 C 165 177.670, 152.965 165.854, 137.072 166.079 C 134.007 166.122, 129.499 166.864, 127.054 167.728 M 7.491 191.652 C 6.141 193.002, 5.968 194.418, 6.543 199.402 C 8.509 216.425, 14.098 228.127, 25.974 240.084 C 37.990 252.182, 48.759 257.697, 64.819 259.974 C 68.610 260.512, 72.393 261.213, 73.226 261.533 C 74.060 261.853, 75.475 261.382, 76.371 260.486 C 77.810 259.047, 78 255.029, 78 226 C 78 197.463, 77.793 192.936, 76.429 191.571 C 75.064 190.207, 70.537 190, 42 190 C 12.784 190, 8.960 190.183, 7.491 191.652 M 14.015 199.750 C 14.053 204.233, 17.394 214.962, 20.757 221.397 C 25.685 230.827, 36.173 241.315, 45.603 246.243 C 52.332 249.759, 62.823 252.953, 67.750 252.985 L 70 253 70 225.500 L 70 198 42 198 C 15.994 198, 14.001 198.125, 14.015 199.750 M 103.571 223.571 C 102.707 224.436, 102 225.636, 102 226.239 C 102 226.841, 107.941 233.334, 115.202 240.667 L 128.405 254 116.774 254 C 107.534 254, 104.820 254.323, 103.571 255.571 C 101.598 257.545, 101.598 258.455, 103.571 260.429 C 104.936 261.793, 109.463 262, 138 262 C 166.537 262, 171.064 261.793, 172.429 260.429 C 173.293 259.564, 174 258.471, 174 258 C 174 257.529, 173.293 256.436, 172.429 255.571 C 171.180 254.323, 168.466 254, 159.226 254 L 147.595 254 160.798 240.667 C 168.059 233.334, 174 226.841, 174 226.239 C 174 224.817, 171.176 222, 169.751 222 C 169.143 222, 161.750 228.844, 153.323 237.208 L 138 252.416 122.677 237.208 C 114.250 228.844, 106.857 222, 106.249 222 C 105.640 222, 104.436 222.707, 103.571 223.571 " stroke="none" fill="black" fill-rule="evenodd"/>
</svg>