<svg xmlns="http://www.w3.org/2000/svg" width="308" height="324" viewBox="0 0 308 324" version="1.1">
	<path d="M 159.536 127.055 C 151.323 128.331, 144.577 130.628, 137.500 134.560 C 121.847 143.256, 110.873 156.529, 105.304 173.500 C 103.060 180.336, 102.678 183.245, 102.678 193.500 C 102.678 203.755, 103.060 206.664, 105.304 213.500 C 111.093 231.140, 123.853 245.911, 140.219 253.917 C 149.213 258.316, 168.003 262.295, 173.406 260.943 C 175.108 260.517, 179.425 259.654, 183 259.025 C 191.845 257.468, 206.167 250.350, 213.268 243.981 C 224.607 233.811, 232.742 219.415, 235.155 205.250 L 236.390 198 262.431 198 L 288.472 198 275.236 211.263 C 267.956 218.558, 262 225.292, 262 226.228 C 262 227.164, 262.960 228.443, 264.133 229.071 C 266.084 230.115, 267.752 228.729, 283.633 212.867 C 293.185 203.327, 301 194.837, 301 194 C 301 193.163, 293.185 184.673, 283.633 175.133 C 267.752 159.271, 266.084 157.885, 264.133 158.929 C 262.960 159.557, 262 160.836, 262 161.772 C 262 162.708, 267.956 169.442, 275.236 176.737 L 288.472 190 262.462 190 L 236.451 190 235.254 182.477 C 232.950 167.998, 224.789 153.352, 213.268 143.019 C 207.157 137.538, 192.777 129.982, 185 128.165 C 178.082 126.548, 166.148 126.028, 159.536 127.055 M 154.072 135.591 C 143.659 138.390, 135.974 142.983, 127.489 151.479 C 115.049 163.933, 109.943 176.163, 109.943 193.500 C 109.943 210.837, 115.049 223.067, 127.489 235.521 C 133.069 241.108, 137.473 244.498, 142 246.693 C 148.831 250.006, 158.989 253, 163.394 253 L 166 253 166 193.500 L 166 134 162.750 134.066 C 160.963 134.102, 157.057 134.788, 154.072 135.591 M 173 161.871 L 173 190 201.088 190 L 229.176 190 228.504 185.750 C 224.263 158.935, 203.420 137.778, 177.908 134.393 L 173 133.742 173 161.871 M 7.515 191.627 C 6.224 192.919, 6.019 194.415, 6.522 198.877 C 8.523 216.621, 14.012 228.089, 26.461 240.539 C 38.956 253.034, 46.874 256.805, 69 260.800 C 78.410 262.499, 78 264.088, 78 225.916 C 78 197.456, 77.793 192.936, 76.429 191.571 C 75.064 190.207, 70.537 190, 42 190 C 12.983 190, 8.953 190.190, 7.515 191.627 M 14 200.106 C 14 204.389, 17.276 214.704, 20.794 221.500 C 25.634 230.848, 36.182 241.378, 45.603 246.268 C 52.344 249.767, 62.850 252.953, 67.750 252.985 L 70 253 70 225.500 L 70 198 42 198 C 14.198 198, 14 198.015, 14 200.106 M 173 225.500 L 173 253 175.290 253 C 179.358 253, 189.337 250.036, 195.713 246.934 C 213.115 238.467, 224.948 222.134, 228.447 201.750 L 229.091 198 201.045 198 L 173 198 173 225.500 " stroke="none" fill="black" fill-rule="evenodd"/>
</svg>