<svg xmlns="http://www.w3.org/2000/svg" width="244" height="324" viewBox="0 0 244 324" version="1.1">
	<path d="M 34.223 127.012 C 23.963 129.154, 14.056 137.382, 9.160 147.825 L 6.500 153.500 6.184 190.113 C 5.901 222.953, 6.038 226.895, 7.506 228.363 C 8.871 229.728, 11.543 230, 23.571 230 L 38 230 38 244.429 C 38 256.212, 38.288 259.145, 39.571 260.429 C 40.436 261.293, 41.529 262, 42 262 C 42.471 262, 43.564 261.293, 44.429 260.429 C 45.712 259.145, 46 256.212, 46 244.429 L 46 230 60.429 230 C 72.311 230, 75.139 229.718, 76.454 228.403 C 77.867 226.990, 78.013 222.980, 77.713 193.653 C 77.355 158.672, 76.894 154.426, 72.468 145.358 C 65.982 132.067, 49.008 123.925, 34.223 127.012 M 31.054 135.728 C 25.018 137.859, 17.781 145.260, 15.667 151.463 C 14.244 155.640, 14 161.163, 14 189.178 L 14 222 42.092 222 L 70.185 222 69.842 189.227 L 69.500 156.454 66.139 149.628 C 62.654 142.552, 57.601 137.876, 50.684 135.326 C 46.195 133.671, 36.306 133.873, 31.054 135.728 M 135.200 159.200 C 134.504 159.896, 134 163.229, 134 167.133 C 134 174.502, 134.284 174.183, 126.542 175.497 C 120.761 176.478, 111.162 181.132, 106 185.456 C 100.402 190.146, 99.636 191.451, 100.993 193.987 C 102.389 196.596, 105.193 196.552, 107.595 193.884 C 110.952 190.155, 117.494 186.192, 123.801 184.067 C 134.862 180.341, 134 178.589, 134 204.800 C 134 221.200, 134.337 227.937, 135.200 228.800 C 136.085 229.685, 145.117 230, 169.629 230 C 198.503 230, 203.063 229.794, 204.429 228.429 C 205.617 227.240, 206 224.730, 206 218.129 L 206 209.400 211.750 208.181 C 222.320 205.939, 236.425 196.884, 235.805 192.740 C 235.161 188.438, 232.629 188.460, 226.858 192.818 C 221.092 197.171, 214.624 200.352, 209.250 201.478 L 206 202.159 206 181.651 C 206 164.341, 205.755 160.898, 204.429 159.571 C 203.063 158.206, 198.503 158, 169.629 158 C 145.117 158, 136.085 158.315, 135.200 159.200 M 142 170.500 C 142 174.553, 142.233 175, 144.343 175 C 148.007 175, 157.863 178.704, 163.040 182.026 C 165.626 183.685, 169.829 187.308, 172.380 190.078 C 177.426 195.556, 186.523 200.456, 193.750 201.589 L 198 202.256 198 184.128 L 198 166 170 166 L 142 166 142 170.500 M 142 201.921 L 142 222 170.048 222 L 198.095 222 197.798 215.760 L 197.500 209.520 192 208.735 C 183.147 207.470, 174.535 202.827, 167.159 195.340 C 160.656 188.741, 152.549 183.990, 145.250 182.503 L 142 181.841 142 201.921 " stroke="none" fill="black" fill-rule="evenodd"/>
</svg>