<svg xmlns="http://www.w3.org/2000/svg" width="180" height="324" viewBox="0 0 180 324" version="1.1">
	<path d="M 103.571 159.571 C 102.707 160.436, 102 161.529, 102 162 C 102 162.471, 102.707 163.564, 103.571 164.429 C 104.436 165.293, 105.529 166, 106 166 C 106.471 166, 107.564 165.293, 108.429 164.429 C 109.293 163.564, 110 162.471, 110 162 C 110 161.529, 109.293 160.436, 108.429 159.571 C 107.564 158.707, 106.471 158, 106 158 C 105.529 158, 104.436 158.707, 103.571 159.571 M 167.571 159.571 C 166.707 160.436, 166 161.529, 166 162 C 166 162.471, 166.707 163.564, 167.571 164.429 C 168.436 165.293, 169.529 166, 170 166 C 170.471 166, 171.564 165.293, 172.429 164.429 C 173.293 163.564, 174 162.471, 174 162 C 174 161.529, 173.293 160.436, 172.429 159.571 C 171.564 158.707, 170.471 158, 170 158 C 169.529 158, 168.436 158.707, 167.571 159.571 M 7.491 191.652 C 6.141 193.002, 5.968 194.418, 6.543 199.402 C 8.356 215.100, 13.976 227.559, 24.168 238.472 C 35.707 250.829, 48.586 257.738, 64.081 259.883 C 68.250 260.460, 72.354 261.199, 73.202 261.524 C 74.049 261.849, 75.475 261.382, 76.371 260.486 C 77.810 259.047, 78 255.029, 78 226 C 78 197.463, 77.793 192.936, 76.429 191.571 C 75.064 190.207, 70.537 190, 42 190 C 12.784 190, 8.960 190.183, 7.491 191.652 M 14.015 199.750 C 14.053 204.233, 17.394 214.962, 20.757 221.397 C 25.685 230.827, 36.173 241.315, 45.603 246.243 C 52.332 249.759, 62.823 252.953, 67.750 252.985 L 70 253 70 225.500 L 70 198 42 198 C 15.994 198, 14.001 198.125, 14.015 199.750 M 103.571 223.571 C 102.707 224.436, 102 225.529, 102 226 C 102 226.471, 102.707 227.564, 103.571 228.429 C 104.436 229.293, 105.529 230, 106 230 C 106.471 230, 107.564 229.293, 108.429 228.429 C 109.293 227.564, 110 226.471, 110 226 C 110 225.529, 109.293 224.436, 108.429 223.571 C 107.564 222.707, 106.471 222, 106 222 C 105.529 222, 104.436 222.707, 103.571 223.571 M 167.571 223.571 C 166.707 224.436, 166 225.529, 166 226 C 166 226.471, 166.707 227.564, 167.571 228.429 C 168.436 229.293, 169.529 230, 170 230 C 170.471 230, 171.564 229.293, 172.429 228.429 C 173.293 227.564, 174 226.471, 174 226 C 174 225.529, 173.293 224.436, 172.429 223.571 C 171.564 222.707, 170.471 222, 170 222 C 169.529 222, 168.436 222.707, 167.571 223.571 " stroke="none" fill="black" fill-rule="evenodd"/>
</svg>