<svg xmlns="http://www.w3.org/2000/svg" width="372" height="324" viewBox="0 0 372 324" version="1.1">
	<path d="M 193.608 132.122 C 181.881 142.868, 172.408 158.828, 168.455 174.500 C 166.011 184.190, 165.991 202.076, 168.414 212 C 172.332 228.050, 181.684 243.952, 193.656 254.922 C 200.563 261.251, 203.264 262.146, 205.360 258.802 C 206.248 257.386, 204.990 255.698, 197.789 248.642 C 187.872 238.924, 181.362 228.723, 177.276 216.500 C 174.851 209.247, 174.601 207.100, 174.601 193.500 C 174.601 179.900, 174.851 177.753, 177.276 170.500 C 181.274 158.538, 187.764 148.300, 197.512 138.574 C 202.180 133.916, 206 129.888, 206 129.624 C 206 128.619, 202.801 126, 201.573 126 C 200.867 126, 197.283 128.755, 193.608 132.122 M 311.213 143.315 C 301.746 152.838, 294 161.131, 294 161.743 C 294 163.175, 296.813 166, 298.239 166 C 298.841 166, 305.334 160.059, 312.667 152.798 L 326 139.595 326 199.226 C 326 252.103, 326.178 259.035, 327.571 260.429 C 328.436 261.293, 329.529 262, 330 262 C 330.471 262, 331.564 261.293, 332.429 260.429 C 333.822 259.035, 334 252.103, 334 199.226 L 334 139.595 347.333 152.798 C 354.666 160.059, 361.159 166, 361.761 166 C 363.187 166, 366 163.175, 366 161.743 C 366 159.994, 331.761 126, 330 126 C 329.134 126, 320.680 133.792, 311.213 143.315 M 230.486 129.044 C 229.969 130.673, 231.465 132.690, 237.856 138.978 C 247.125 148.099, 253.749 158.609, 257.724 170.500 C 260.149 177.753, 260.399 179.900, 260.399 193.500 C 260.399 207.100, 260.149 209.247, 257.724 216.500 C 253.763 228.351, 247.121 238.905, 237.937 247.942 C 229.873 255.877, 228.843 257.795, 231.472 259.977 C 233.490 261.651, 238.021 258.765, 245.121 251.280 C 255.275 240.578, 262.191 228.131, 266.113 213.500 C 269.358 201.391, 269.143 183.551, 265.607 171.703 C 260.881 155.866, 253.023 142.866, 242.021 132.680 C 235.436 126.583, 231.646 125.389, 230.486 129.044 M 7.200 159.200 C 5.481 160.919, 5.481 227.081, 7.200 228.800 C 8.935 230.535, 139.065 230.535, 140.800 228.800 C 142.519 227.081, 142.519 160.919, 140.800 159.200 C 139.065 157.465, 8.935 157.465, 7.200 159.200 M 210.223 159.062 C 200.045 161.068, 189.996 169.411, 185.216 179.825 C 181.512 187.894, 181.512 199.106, 185.216 207.175 C 195.614 229.828, 223.328 235.643, 241.420 218.967 C 261.946 200.047, 252.603 165.823, 225.147 159.360 C 218.857 157.880, 216.464 157.832, 210.223 159.062 M 32.798 179.333 C 40.059 186.666, 46 193.266, 46 194 C 46 194.734, 40.059 201.334, 32.798 208.667 L 19.595 222 74 222 L 128.405 222 115.202 208.667 C 107.941 201.334, 102 194.734, 102 194 C 102 193.266, 107.941 186.666, 115.202 179.333 L 128.405 166 74 166 L 19.595 166 32.798 179.333 M 207.054 167.728 C 201.018 169.859, 193.781 177.260, 191.667 183.463 C 185.215 202.399, 198.016 221, 217.500 221 C 225.295 221, 231.452 218.453, 236.952 212.952 C 244.640 205.265, 247.036 194.330, 243.382 183.608 C 241.237 177.311, 233.689 169.763, 227.392 167.618 C 221.504 165.612, 212.916 165.658, 207.054 167.728 M 14 194 L 14 216.489 25.244 205.244 L 36.489 194 25.244 182.756 L 14 171.511 14 194 M 122.494 183.006 L 111.523 194.012 122.761 205.250 L 134 216.489 134 194.244 C 134 182.010, 133.880 172, 133.733 172 C 133.586 172, 128.529 176.953, 122.494 183.006 " stroke="none" fill="black" fill-rule="evenodd"/>
</svg>