<svg xmlns="http://www.w3.org/2000/svg" width="564" height="324" viewBox="0 0 564 324" version="1.1">
	<path d="M 64.500 126.944 C 56.325 128.268, 50.930 129.991, 43 133.814 C 32.444 138.903, 18.927 152.404, 13.778 163 C 7.648 175.615, 4.334 193.191, 7.491 196.348 C 9.547 198.404, 10.439 198.418, 12.429 196.429 C 13.379 195.478, 14 193.126, 14 190.478 C 14 177.343, 20.860 161.930, 31.395 151.395 C 42.853 139.936, 57.222 134, 73.500 134 C 83.706 134, 90.067 135.497, 100 140.235 C 111.807 145.867, 121.131 155.191, 126.766 167 C 128.997 171.675, 131.135 177.075, 131.517 179 C 132.173 182.302, 131.507 181.806, 119.767 170.250 C 112.922 163.512, 106.831 158, 106.232 158 C 104.814 158, 102 160.827, 102 162.253 C 102 163.168, 132.228 194.707, 135.500 197.206 C 136.050 197.626, 137.161 197.976, 137.968 197.985 C 139.676 198.002, 174 163.999, 174 162.290 C 174 160.829, 171.201 158, 169.756 158 C 169.150 158, 162.316 164.285, 154.568 171.967 L 140.480 185.935 138.746 178.304 C 135.827 165.459, 130.873 156.795, 120.539 146.461 C 110.721 136.644, 102.174 131.566, 90.500 128.618 C 82.811 126.676, 70.896 125.909, 64.500 126.944 M 449 174.983 C 438.947 176.884, 429.573 181.717, 423.217 188.276 C 419.704 191.901, 419.675 194.445, 423.132 195.542 C 424.512 195.980, 426.272 195.084, 429.167 192.468 C 431.414 190.438, 436.234 187.364, 439.877 185.638 C 445.993 182.740, 447.304 182.500, 457 182.500 C 466.754 182.500, 467.983 182.729, 474.306 185.724 C 478.947 187.922, 483.090 190.965, 487.331 195.290 C 500.360 208.578, 519.118 212.980, 536.796 206.898 C 546.574 203.534, 556 196.449, 556 192.464 C 556 188.535, 552.496 188.357, 548.267 192.070 C 546.247 193.844, 541.648 196.691, 538.047 198.397 C 532.017 201.255, 530.670 201.500, 521 201.500 C 511.333 201.500, 509.981 201.254, 503.962 198.402 C 499.858 196.457, 495.606 193.383, 492.541 190.146 C 486.597 183.868, 480.190 179.646, 472.697 177.068 C 465.960 174.750, 455.224 173.805, 449 174.983 M 55.213 207.315 C 45.746 216.838, 38 225.131, 38 225.743 C 38 227.176, 40.814 230, 42.241 230 C 42.845 230, 49.493 223.903, 57.014 216.451 L 70.688 202.901 72.351 209.641 C 75.372 221.880, 80.426 230.504, 90.461 240.539 C 104.473 254.551, 118.166 260.304, 137.500 260.304 C 149.257 260.304, 157.240 258.451, 168 253.222 C 178.587 248.078, 192.092 234.559, 197.193 224 C 203.276 211.409, 206.528 194.671, 203.485 191.627 C 202.589 190.732, 201.471 190, 201 190 C 198.878 190, 196.999 193.426, 196.985 197.321 C 196.921 215.563, 183.076 237.005, 165.397 246.243 C 135.659 261.782, 98.658 249.797, 84.198 219.942 C 81.950 215.299, 79.813 209.925, 79.449 208 C 78.826 204.696, 79.513 205.213, 91.730 217.250 C 98.848 224.262, 105.164 230, 105.765 230 C 107.187 230, 110 227.173, 110 225.743 C 110 223.994, 75.761 190, 74 190 C 73.134 190, 64.680 197.792, 55.213 207.315 M 295.571 191.571 C 294.707 192.436, 294 193.529, 294 194 C 294 195.111, 296.889 198, 298 198 C 299.111 198, 302 195.111, 302 194 C 302 192.889, 299.111 190, 298 190 C 297.529 190, 296.436 190.707, 295.571 191.571 M 327.571 191.571 C 326.707 192.436, 326 193.640, 326 194.249 C 326 194.857, 332.844 202.250, 341.208 210.677 L 356.416 226 341.208 241.323 C 332.844 249.750, 326 257.143, 326 257.751 C 326 259.181, 328.819 262, 330.249 262 C 330.857 262, 338.250 255.156, 346.677 246.792 L 362 231.584 377.323 246.792 C 385.750 255.156, 393.143 262, 393.751 262 C 395.181 262, 398 259.181, 398 257.751 C 398 257.143, 391.156 249.750, 382.792 241.323 L 367.584 226 382.792 210.677 C 391.156 202.250, 398 194.857, 398 194.249 C 398 192.819, 395.181 190, 393.751 190 C 393.143 190, 385.750 196.844, 377.323 205.208 L 362 220.416 346.677 205.208 C 338.250 196.844, 330.857 190, 330.249 190 C 329.640 190, 328.436 190.707, 327.571 191.571 M 231.571 255.571 C 230.707 256.436, 230 257.529, 230 258 C 230 259.111, 232.889 262, 234 262 C 235.111 262, 238 259.111, 238 258 C 238 256.889, 235.111 254, 234 254 C 233.529 254, 232.436 254.707, 231.571 255.571 M 295.571 255.571 C 294.707 256.436, 294 257.529, 294 258 C 294 258.471, 294.707 259.564, 295.571 260.429 C 296.436 261.293, 297.529 262, 298 262 C 298.471 262, 299.564 261.293, 300.429 260.429 C 301.293 259.564, 302 258.471, 302 258 C 302 257.529, 301.293 256.436, 300.429 255.571 C 299.564 254.707, 298.471 254, 298 254 C 297.529 254, 296.436 254.707, 295.571 255.571 " stroke="none" fill="black" fill-rule="evenodd"/>
</svg>