<svg xmlns="http://www.w3.org/2000/svg" width="276" height="324" viewBox="0 0 276 324" version="1.1">
	<path d="M 87.282 143.282 C 77.777 152.787, 70 161.210, 70 162 C 70 163.693, 104.031 198, 105.710 198 C 107.173 198, 110 195.200, 110 193.751 C 110 193.143, 103.156 185.750, 94.792 177.323 L 79.584 162 94.792 146.677 C 103.156 138.250, 110 130.857, 110 130.249 C 110 128.800, 107.173 126, 105.710 126 C 105.079 126, 96.787 133.777, 87.282 143.282 M 34.344 158.991 C 20.735 161.848, 9.343 173.809, 6.872 187.834 L 5.833 193.735 22.519 227.118 C 31.697 245.478, 39.834 260.860, 40.603 261.300 C 41.371 261.740, 42.634 261.740, 43.408 261.300 C 44.182 260.860, 52.274 245.544, 61.389 227.265 C 75.951 198.064, 77.843 193.718, 76.981 191.450 C 76.441 190.031, 76 187.846, 76 186.595 C 76 182.659, 70.134 172.378, 65.398 168.013 C 57.113 160.376, 44.795 156.798, 34.344 158.991 M 135.200 159.200 C 133.481 160.919, 133.481 227.081, 135.200 228.800 C 136.935 230.535, 267.065 230.535, 268.800 228.800 C 270.519 227.081, 270.519 160.919, 268.800 159.200 C 267.065 157.465, 136.935 157.465, 135.200 159.200 M 31.063 167.911 C 22.614 171.337, 16.617 178.318, 14.450 187.250 L 13.783 190 41.392 190 C 56.576 190, 69 189.630, 69 189.178 C 69 185.676, 65.084 178.193, 61.125 174.128 C 53.527 166.328, 41.235 163.786, 31.063 167.911 M 160.798 179.333 C 168.059 186.666, 174 193.266, 174 194 C 174 194.734, 168.059 201.334, 160.798 208.667 L 147.595 222 202 222 L 256.405 222 243.202 208.667 C 235.941 201.334, 230 194.734, 230 194 C 230 193.266, 235.941 186.666, 243.202 179.333 L 256.405 166 202 166 L 147.595 166 160.798 179.333 M 142 194 L 142 216.489 153.244 205.244 L 164.489 194 153.244 182.756 L 142 171.511 142 194 M 250.494 183.006 L 239.523 194.012 250.761 205.250 L 262 216.489 262 194.244 C 262 182.010, 261.880 172, 261.733 172 C 261.586 172, 256.529 176.953, 250.494 183.006 M 28.743 223.500 C 35.750 237.525, 41.715 249, 42 249 C 42.285 249, 48.250 237.525, 55.257 223.500 L 67.995 198 42 198 L 16.005 198 28.743 223.500 " stroke="none" fill="black" fill-rule="evenodd"/>
</svg>