<svg xmlns="http://www.w3.org/2000/svg" width="244" height="324" viewBox="0 0 244 324" version="1.1">
	<path d="M 33.384 127.412 C 15.475 131.758, 3.559 149.807, 6.987 167.396 C 9.923 182.467, 20.510 193.032, 35.660 196.013 C 46.748 198.194, 59.444 193.749, 67.399 184.901 C 85.188 165.116, 75.154 133.482, 49.147 127.360 C 42.397 125.772, 40.111 125.779, 33.384 127.412 M 31.054 135.728 C 25.018 137.859, 17.781 145.260, 15.667 151.463 C 11.995 162.241, 14.382 173.477, 21.952 181.048 C 32.402 191.497, 49.888 191.773, 60.280 181.653 C 66.701 175.401, 68.500 170.989, 68.500 161.500 C 68.500 152.011, 66.701 147.599, 60.280 141.347 C 53.109 134.363, 41.332 132.099, 31.054 135.728 M 103.200 159.200 C 102.314 160.086, 102 169.200, 102 194 C 102 228.400, 102.172 230, 105.867 230 C 106.674 230, 113.334 224.059, 120.667 216.798 L 134 203.595 134 215.598 C 134 223.599, 134.400 228, 135.200 228.800 C 136.648 230.248, 201.645 230.511, 203.908 229.078 C 205.019 228.375, 205.273 225.469, 205.109 215.343 L 204.902 202.500 218.822 216.358 C 230.410 227.894, 233.099 230.103, 234.871 229.541 C 236.042 229.169, 237.010 228.446, 237.021 227.933 C 237.033 227.420, 237.042 212.150, 237.042 194 C 237.042 175.850, 237.033 160.580, 237.021 160.067 C 237.010 159.554, 236.042 158.831, 234.871 158.459 C 233.099 157.897, 230.410 160.106, 218.822 171.642 L 204.902 185.500 205.109 172.657 C 205.273 162.531, 205.019 159.625, 203.908 158.922 C 201.645 157.489, 136.648 157.752, 135.200 159.200 C 134.400 160, 134 164.401, 134 172.402 L 134 184.405 120.667 171.202 C 113.334 163.941, 106.674 158, 105.867 158 C 105.060 158, 103.860 158.540, 103.200 159.200 M 142 194 L 142 222 170 222 L 198 222 198 194 L 198 166 170 166 L 142 166 142 194 M 217.995 182.506 L 206.522 194.011 218.261 205.750 L 230 217.489 230 194.245 C 230 181.460, 229.880 171, 229.734 171 C 229.587 171, 224.305 176.177, 217.995 182.506 M 110 194 L 110 216.489 121.244 205.244 L 132.489 194 121.244 182.756 L 110 171.511 110 194 M 7.571 191.571 C 6.707 192.436, 6 193.640, 6 194.249 C 6 194.857, 12.844 202.250, 21.208 210.677 L 36.416 226 21.208 241.323 C 12.844 249.750, 6 257.143, 6 257.751 C 6 259.181, 8.819 262, 10.249 262 C 10.857 262, 18.250 255.156, 26.677 246.792 L 42 231.584 57.323 246.792 C 65.750 255.156, 73.143 262, 73.751 262 C 75.181 262, 78 259.181, 78 257.751 C 78 257.143, 71.156 249.750, 62.792 241.323 L 47.584 226 62.792 210.677 C 71.156 202.250, 78 194.857, 78 194.249 C 78 192.819, 75.181 190, 73.751 190 C 73.143 190, 65.750 196.844, 57.323 205.208 L 42 220.416 26.677 205.208 C 18.250 196.844, 10.857 190, 10.249 190 C 9.640 190, 8.436 190.707, 7.571 191.571 " stroke="none" fill="black" fill-rule="evenodd"/>
</svg>