<svg xmlns="http://www.w3.org/2000/svg" width="180" height="324" viewBox="0 0 180 324" version="1.1">
	<path d="M 103.571 127.571 C 102.707 128.436, 102 129.657, 102 130.285 C 102 130.913, 116.057 145.510, 133.238 162.723 L 164.476 194.019 137.238 221.257 L 110 248.495 110 236.819 C 110 227.538, 109.678 224.821, 108.429 223.571 C 106.455 221.598, 105.545 221.598, 103.571 223.571 C 102.264 224.878, 102 228.042, 102 242.371 C 102 254.438, 102.360 259.960, 103.200 260.800 C 104.040 261.640, 109.562 262, 121.629 262 C 135.958 262, 139.122 261.736, 140.429 260.429 C 142.243 258.614, 142.319 258.054, 141.024 256 C 140.301 254.852, 137.252 254.383, 128.026 254 L 115.973 253.500 140.986 228.508 L 166 203.515 166 231.186 C 166 255.008, 166.219 259.076, 167.571 260.429 C 169.545 262.402, 170.455 262.402, 172.429 260.429 C 173.825 259.032, 174 251.628, 174 194 C 174 136.372, 173.825 128.968, 172.429 127.571 C 170.455 125.598, 169.545 125.598, 167.571 127.571 C 166.219 128.924, 166 132.990, 166 156.799 L 166 184.455 136.711 155.227 C 120.602 139.152, 106.909 126, 106.282 126 C 105.656 126, 104.436 126.707, 103.571 127.571 M 7.200 159.200 C 5.481 160.919, 5.481 227.081, 7.200 228.800 C 8.919 230.519, 75.081 230.519, 76.800 228.800 C 78.519 227.081, 78.519 160.919, 76.800 159.200 C 75.081 157.481, 8.919 157.481, 7.200 159.200 M 14 194 L 14 222 42 222 L 70 222 70 194 L 70 166 42 166 L 14 166 14 194 " stroke="none" fill="black" fill-rule="evenodd"/>
</svg>