<svg xmlns="http://www.w3.org/2000/svg" width="308" height="324" viewBox="0 0 308 324" version="1.1">
	<path d="M 159.205 127.149 C 134.856 130.638, 113.105 149.247, 105.555 173.046 C 104.238 177.197, 102.850 183.752, 102.469 187.614 C 101.886 193.538, 102.047 194.905, 103.505 196.362 C 104.455 197.312, 105.742 197.921, 106.366 197.716 C 108.358 197.059, 109.970 192.644, 109.985 187.802 C 110.006 181.201, 114.279 168.424, 118.809 161.422 C 120.915 158.165, 125.640 152.752, 129.308 149.393 C 140.641 139.015, 153.574 134, 169 134 C 189.418 134, 207.547 143.524, 218.505 160.008 C 222.609 166.181, 228 178.855, 228 182.331 C 228 182.958, 222.209 177.693, 215.131 170.630 C 203.421 158.947, 202.069 157.892, 200.131 158.930 C 198.959 159.557, 198 160.825, 198 161.747 C 198 163.465, 229.046 195.753, 232.310 197.430 C 233.820 198.205, 237.011 195.471, 251.560 180.940 C 261.152 171.360, 269 162.745, 269 161.796 C 269 160.847, 268.060 159.567, 266.911 158.952 C 265.025 157.943, 263.428 159.216, 250.468 172.067 C 236.328 186.086, 236.104 186.255, 235.500 183.399 C 232.750 170.390, 229.808 163.287, 223.520 154.475 C 213.497 140.430, 197.660 130.486, 180.619 127.537 C 170.884 125.852, 168.548 125.810, 159.205 127.149 M 39.571 159.571 C 38.707 160.436, 38 161.529, 38 162 C 38 163.068, 40.871 166, 41.916 166 C 42.342 166, 43.505 165.100, 44.500 164 C 46.247 162.070, 46.247 161.930, 44.500 160 C 42.318 157.589, 41.615 157.528, 39.571 159.571 M 7.585 191.558 C 5.595 193.548, 5.595 194.452, 7.585 196.442 C 8.978 197.835, 13.159 197.995, 42.226 197.763 C 72.452 197.523, 75.377 197.350, 76.386 195.750 C 77.191 194.474, 77.191 193.526, 76.386 192.250 C 75.377 190.650, 72.452 190.477, 42.226 190.237 C 13.159 190.005, 8.978 190.165, 7.585 191.558 M 151.213 207.315 C 141.746 216.838, 134 225.131, 134 225.743 C 134 226.967, 136.733 230, 137.835 230 C 138.216 230, 144.590 223.925, 152 216.500 C 159.410 209.075, 165.744 203, 166.077 203 C 166.410 203, 167.256 205.588, 167.957 208.750 C 175.197 241.385, 208.202 264.491, 241.138 259.981 C 272.656 255.666, 297.145 230.515, 299.719 199.816 C 300.231 193.700, 300.063 192.520, 298.519 191.390 C 295.778 189.386, 293.004 191.337, 292.983 195.285 C 292.918 207.273, 285.456 225.135, 276.710 234.237 C 265.130 246.289, 252.751 251.909, 235.988 252.725 C 217.485 253.626, 204.654 248.677, 191.411 235.530 C 182.834 227.016, 178.229 219.345, 175.514 209.052 L 174.101 203.695 187.383 216.847 C 194.689 224.081, 201.136 230, 201.710 230 C 203.298 230, 205.207 227.290, 204.833 225.570 C 204.413 223.644, 171.020 190, 169.528 190 C 168.921 190, 160.680 197.792, 151.213 207.315 M 39.571 223.571 C 38.707 224.436, 38 225.529, 38 226 C 38 227.068, 40.871 230, 41.916 230 C 42.342 230, 43.505 229.100, 44.500 228 C 46.247 226.070, 46.247 225.930, 44.500 224 C 42.318 221.589, 41.615 221.528, 39.571 223.571 " stroke="none" fill="black" fill-rule="evenodd"/>
</svg>