<svg xmlns="http://www.w3.org/2000/svg" width="276" height="324" viewBox="0 0 276 324" version="1.1">
	<path d="M 71.571 127.571 C 70.288 128.855, 70 131.788, 70 143.571 L 70 158 55.200 158 C 45.022 158, 40.025 158.375, 39.200 159.200 C 38.324 160.076, 38 167.956, 38 188.402 L 38 216.405 24.667 203.202 C 17.334 195.941, 10.841 190, 10.239 190 C 8.799 190, 6 192.831, 6 194.287 C 6 196.056, 72.253 262, 74.030 262 C 77.510 262, 78 259.878, 78 244.800 L 78 230 92.800 230 C 102.978 230, 107.975 229.625, 108.800 228.800 C 110.519 227.081, 110.519 160.919, 108.800 159.200 C 107.975 158.375, 102.978 158, 92.800 158 L 78 158 78 143.571 C 78 131.788, 77.712 128.855, 76.429 127.571 C 75.564 126.707, 74.471 126, 74 126 C 73.529 126, 72.436 126.707, 71.571 127.571 M 135.571 127.571 C 134.175 128.968, 134 136.406, 134 194.371 C 134 243.771, 134.291 259.891, 135.200 260.800 C 136.935 262.535, 267.065 262.535, 268.800 260.800 C 269.709 259.891, 270 243.771, 270 194.371 C 270 136.406, 269.825 128.968, 268.429 127.571 C 267.564 126.707, 266.471 126, 266 126 C 265.529 126, 264.436 126.707, 263.571 127.571 C 262.176 128.966, 262 136.152, 262 191.571 L 262 254 202 254 L 142 254 142 191.571 C 142 136.152, 141.824 128.966, 140.429 127.571 C 139.564 126.707, 138.471 126, 138 126 C 137.529 126, 136.436 126.707, 135.571 127.571 M 46 194 L 46 222 58 222 L 70 222 70 194 L 70 166 58 166 L 46 166 46 194 M 78 194 L 78 222 90 222 L 102 222 102 194 L 102 166 90 166 L 78 166 78 194 M 60.500 239 C 65.427 243.950, 69.580 248, 69.729 248 C 69.878 248, 70 243.950, 70 239 L 70 230 60.771 230 L 51.542 230 60.500 239 " stroke="none" fill="black" fill-rule="evenodd"/>
</svg>