<svg xmlns="http://www.w3.org/2000/svg" width="372" height="324" viewBox="0 0 372 324" version="1.1">
	<path d="M 319.500 111.106 C 312.127 112.578, 300.954 118.452, 296.081 123.418 C 292.401 127.167, 291.960 128.056, 292.904 129.820 C 293.665 131.243, 294.005 151.208, 294.015 195.184 C 294.024 230.008, 294.361 259.004, 294.765 259.620 C 295.169 260.236, 298.130 262.576, 301.344 264.820 C 317.509 276.104, 339.231 276.433, 355.487 265.640 C 358.273 263.790, 361.511 261.972, 362.684 261.600 C 363.856 261.228, 365.073 260.253, 365.387 259.434 C 365.701 258.614, 365.987 228.633, 366.022 192.808 L 366.085 127.671 362.292 123.754 C 352.497 113.634, 334.089 108.194, 319.500 111.106 M 316.487 119.742 C 310.922 121.730, 301.996 126.692, 302.007 127.792 C 302.017 128.847, 307.828 132.593, 313.500 135.201 C 317.709 137.136, 320.161 137.500, 329 137.500 C 338.782 137.500, 339.945 137.282, 346 134.309 C 349.575 132.554, 353.400 130.388, 354.500 129.497 L 356.500 127.876 354.500 126.325 C 353.400 125.471, 349.575 123.378, 346 121.673 C 340.501 119.051, 338.115 118.526, 330.500 118.262 C 323.759 118.029, 320.242 118.401, 316.487 119.742 M 71.571 127.571 C 70.288 128.855, 70 131.788, 70 143.571 L 70 158 55.200 158 C 45.022 158, 40.025 158.375, 39.200 159.200 C 38.324 160.076, 38 167.956, 38 188.402 L 38 216.405 24.667 203.202 C 17.334 195.941, 10.841 190, 10.239 190 C 8.799 190, 6 192.831, 6 194.287 C 6 196.056, 72.253 262, 74.030 262 C 77.510 262, 78 259.878, 78 244.800 L 78 230 92.800 230 C 102.978 230, 107.975 229.625, 108.800 228.800 C 110.519 227.081, 110.519 160.919, 108.800 159.200 C 107.975 158.375, 102.978 158, 92.800 158 L 78 158 78 143.571 C 78 131.788, 77.712 128.855, 76.429 127.571 C 75.564 126.707, 74.471 126, 74 126 C 73.529 126, 72.436 126.707, 71.571 127.571 M 135.571 127.571 C 134.175 128.968, 134 136.406, 134 194.371 C 134 243.771, 134.291 259.891, 135.200 260.800 C 136.935 262.535, 267.065 262.535, 268.800 260.800 C 269.709 259.891, 270 243.771, 270 194.371 C 270 136.406, 269.825 128.968, 268.429 127.571 C 267.564 126.707, 266.471 126, 266 126 C 265.529 126, 264.436 126.707, 263.571 127.571 C 262.176 128.966, 262 136.152, 262 191.571 L 262 254 202 254 L 142 254 142 191.571 C 142 136.152, 141.824 128.966, 140.429 127.571 C 139.564 126.707, 138.471 126, 138 126 C 137.529 126, 136.436 126.707, 135.571 127.571 M 353.281 139.040 C 342.761 145.690, 326.473 147.393, 313.896 143.158 C 310.264 141.935, 306.439 140.288, 305.396 139.499 C 304.353 138.709, 303.163 138.049, 302.750 138.032 C 302.337 138.014, 302.003 164.662, 302.007 197.250 L 302.014 256.500 305.257 258.701 C 313.332 264.181, 317.937 265.500, 329 265.500 C 338.745 265.500, 339.967 265.273, 346 262.342 C 349.575 260.604, 353.747 258.129, 355.271 256.842 L 358.043 254.500 357.771 195.436 L 357.500 136.373 353.281 139.040 M 46 194 L 46 222 58 222 L 70 222 70 194 L 70 166 58 166 L 46 166 46 194 M 78 194 L 78 222 90 222 L 102 222 102 194 L 102 166 90 166 L 78 166 78 194 M 60.500 239 C 65.427 243.950, 69.580 248, 69.729 248 C 69.878 248, 70 243.950, 70 239 L 70 230 60.771 230 L 51.542 230 60.500 239 " stroke="none" fill="black" fill-rule="evenodd"/>
</svg>