<svg xmlns="http://www.w3.org/2000/svg" width="372" height="324" viewBox="0 0 372 324" version="1.1">
	<path d="M 63.870 127.014 C 48.636 129.407, 37.616 135.194, 25.974 146.916 C 12.475 160.507, 6.696 174.473, 6.696 193.500 C 6.696 205.257, 8.549 213.240, 13.778 224 C 18.922 234.587, 32.441 248.092, 43 253.193 C 54.006 258.510, 61.840 260.347, 73.500 260.347 C 92.757 260.347, 106.531 254.547, 120.539 240.539 C 134.551 226.527, 140.304 212.834, 140.304 193.500 C 140.304 174.166, 134.551 160.473, 120.539 146.461 C 110.721 136.644, 102.174 131.566, 90.500 128.618 C 82.592 126.621, 70.868 125.914, 63.870 127.014 M 224.500 126.944 C 208.464 129.540, 198.190 134.822, 186.461 146.500 C 179.435 153.496, 176.611 157.170, 173.778 163 C 167.648 175.615, 164.334 193.191, 167.491 196.348 C 169.547 198.404, 170.439 198.418, 172.429 196.429 C 173.404 195.453, 174.006 193.082, 174.015 190.179 C 174.074 171.373, 187.719 150.014, 205.603 140.732 C 235.445 125.244, 272.576 137.261, 286.766 167 C 288.997 171.675, 291.135 177.075, 291.517 179 C 292.173 182.302, 291.507 181.806, 279.767 170.250 C 272.922 163.512, 266.831 158, 266.232 158 C 264.814 158, 262 160.827, 262 162.253 C 262 163.168, 292.228 194.707, 295.500 197.206 C 296.050 197.626, 297.161 197.976, 297.968 197.985 C 299.676 198.002, 334 163.999, 334 162.290 C 334 160.829, 331.201 158, 329.756 158 C 329.150 158, 322.316 164.285, 314.568 171.967 L 300.480 185.935 298.800 178.542 C 295.899 165.776, 290.737 156.737, 280.500 146.498 C 270.714 136.709, 262.051 131.547, 250.500 128.622 C 242.819 126.677, 230.903 125.908, 224.500 126.944 M 58.645 135.584 C 38.562 140.445, 20.305 158.877, 15.537 179.103 C 12.250 193.049, 14.175 208.749, 20.722 221.397 C 24.542 228.775, 35.597 240.805, 41.742 244.272 L 44.884 246.045 42.522 241.772 C 33.471 225.405, 40.012 203.806, 56.767 194.738 C 73.800 185.519, 95.082 191.806, 104.262 208.767 C 109.824 219.043, 109.944 230.847, 104.593 241.416 L 102.306 245.932 105.370 244.216 C 111.289 240.900, 122.397 228.756, 126.243 221.397 C 135.332 204.003, 135.328 182.964, 126.233 165.603 C 118.739 151.298, 103.261 139.159, 87.897 135.537 C 79.998 133.676, 66.439 133.697, 58.645 135.584 M 215.213 207.315 C 205.746 216.838, 198 225.131, 198 225.743 C 198 227.176, 200.814 230, 202.241 230 C 202.845 230, 209.509 223.887, 217.050 216.415 L 230.760 202.830 232.008 208.165 C 237.255 230.596, 254.483 249.802, 275.747 256.926 C 308.408 267.869, 342.979 253.170, 358.126 221.902 C 361.233 215.488, 363.493 207.276, 364.463 198.877 C 364.980 194.402, 364.780 192.923, 363.485 191.627 C 362.589 190.732, 361.471 190, 361 190 C 358.878 190, 356.999 193.426, 356.985 197.321 C 356.921 215.546, 342.957 237.187, 325.397 246.278 C 295.523 261.742, 258.652 249.784, 244.198 219.942 C 241.950 215.299, 239.813 209.925, 239.449 208 C 238.826 204.696, 239.513 205.213, 251.730 217.250 C 258.848 224.262, 265.164 230, 265.765 230 C 267.187 230, 270 227.173, 270 225.743 C 270 223.994, 235.761 190, 234 190 C 233.134 190, 224.680 197.792, 215.213 207.315 M 63.605 199.568 C 56.049 202.337, 56.073 202.527, 65.170 211.671 L 73.457 220.001 81.692 211.809 C 90.838 202.711, 90.906 202.178, 83.260 199.573 C 77.620 197.651, 68.842 197.649, 63.605 199.568 M 50.184 210.278 C 46.139 215.152, 44.867 227.319, 47.573 235.260 C 50.178 242.906, 50.711 242.838, 59.809 233.692 L 68.001 225.457 59.671 217.170 C 52.854 210.389, 51.131 209.137, 50.184 210.278 M 87.191 217.308 L 78.999 225.543 87.329 233.830 C 96.530 242.983, 96.678 242.998, 99.487 235.038 C 101.439 229.503, 101.415 221.574, 99.427 215.740 C 96.822 208.094, 96.289 208.162, 87.191 217.308 M 65.170 239.329 C 56.017 248.530, 56.002 248.678, 63.962 251.487 C 69.497 253.439, 77.426 253.415, 83.260 251.427 C 90.906 248.822, 90.838 248.289, 81.692 239.191 L 73.457 230.999 65.170 239.329 " stroke="none" fill="black" fill-rule="evenodd"/>
</svg>