<svg xmlns="http://www.w3.org/2000/svg" width="500" height="324" viewBox="0 0 500 324" version="1.1">
	<path d="M 71.571 127.571 C 70.288 128.855, 70 131.788, 70 143.571 L 70 158 55.934 158 C 48.151 158, 41.005 158.462, 39.934 159.035 C 38.092 160.021, 38 161.413, 38 188.237 L 38 216.405 24.667 203.202 C 17.334 195.941, 10.841 190, 10.239 190 C 8.799 190, 6 192.831, 6 194.287 C 6 195.818, 72.128 262, 73.659 262 C 74.318 262, 75.564 261.293, 76.429 260.429 C 77.712 259.145, 78 256.212, 78 244.429 L 78 230 92.429 230 C 104.212 230, 107.145 229.712, 108.429 228.429 C 109.793 227.064, 110 222.537, 110 194 C 110 165.463, 109.793 160.936, 108.429 159.571 C 107.145 158.288, 104.212 158, 92.429 158 L 78 158 78 143.571 C 78 131.788, 77.712 128.855, 76.429 127.571 C 75.564 126.707, 74.471 126, 74 126 C 73.529 126, 72.436 126.707, 71.571 127.571 M 417 159.374 C 406.067 162.384, 398.196 168.827, 393.318 178.761 C 390.861 183.765, 390.500 185.653, 390.500 193.500 C 390.500 201.347, 390.861 203.235, 393.318 208.239 C 398.625 219.047, 407.922 225.991, 420.120 228.259 C 430.942 230.272, 445.029 224.802, 452.138 215.826 C 468.230 195.508, 458.490 166.051, 433.530 159.550 C 426.532 157.727, 423.114 157.691, 417 159.374 M 46 194 L 46 222 58 222 L 70 222 70 194 L 70 166 58 166 L 46 166 46 194 M 78 194 L 78 222 90 222 L 102 222 102 194 L 102 166 90 166 L 78 166 78 194 M 416.994 166.934 C 409.681 169.159, 402.550 175.553, 399.378 182.728 C 396.806 188.547, 397.070 199.420, 399.918 205 C 405.085 215.120, 412.470 220.053, 423.540 220.776 C 432.803 221.381, 439.252 218.738, 445.520 211.767 C 455.207 200.992, 455.318 186.323, 445.793 175.502 C 440.205 169.154, 433.391 165.996, 425.500 166.096 C 422.200 166.138, 418.372 166.515, 416.994 166.934 M 135.579 191.564 C 134.710 192.432, 134 193.529, 134 194 C 134 194.471, 134.710 195.568, 135.579 196.436 C 136.990 197.847, 144.058 197.987, 202.220 197.757 C 262.934 197.517, 267.356 197.383, 268.386 195.750 C 269.191 194.474, 269.191 193.526, 268.386 192.250 C 267.356 190.617, 262.934 190.483, 202.220 190.243 C 144.058 190.013, 136.990 190.153, 135.579 191.564 M 295.750 191.080 C 294.788 191.641, 294 192.859, 294 193.788 C 294 194.717, 300.857 202.344, 309.238 210.738 L 324.476 226 309.238 241.262 C 300.857 249.656, 294 257.290, 294 258.227 C 294 259.163, 294.960 260.443, 296.132 261.071 C 298.079 262.113, 299.624 260.855, 313.895 246.605 L 329.524 230.998 344.012 245.564 C 351.980 253.576, 359.316 260.582, 360.314 261.135 C 362.445 262.314, 365 260.681, 365 258.139 C 365 257.251, 358.143 249.656, 349.762 241.262 L 334.524 226 349.762 210.738 C 358.143 202.344, 365 194.784, 365 193.938 C 365 192.207, 363.106 190, 361.621 190 C 361.082 190, 353.623 196.969, 345.045 205.486 L 329.449 220.973 313.987 205.486 C 305.482 196.969, 298.294 190.014, 298.012 190.030 C 297.730 190.047, 296.712 190.519, 295.750 191.080 M 423.040 191.452 C 420.392 194.642, 424.299 199.657, 427.416 197.070 C 429.297 195.508, 429.470 192.870, 427.800 191.200 C 426.197 189.597, 424.505 189.686, 423.040 191.452 M 487.040 191.452 C 484.392 194.642, 488.299 199.657, 491.416 197.070 C 493.297 195.508, 493.470 192.870, 491.800 191.200 C 490.197 189.597, 488.505 189.686, 487.040 191.452 M 60.500 239 C 65.427 243.950, 69.580 248, 69.729 248 C 69.878 248, 70 243.950, 70 239 L 70 230 60.771 230 L 51.542 230 60.500 239 " stroke="none" fill="black" fill-rule="evenodd"/>
</svg>