<svg xmlns="http://www.w3.org/2000/svg" width="244" height="324" viewBox="0 0 244 324" version="1.1">
	<path d="M 71.571 127.571 C 70.284 128.858, 70 131.822, 70 143.944 L 70 158.744 65.807 159.415 C 56.144 160.960, 46.017 169.365, 41.216 179.825 C 37.512 187.894, 37.512 199.106, 41.216 207.175 C 46.017 217.635, 56.144 226.040, 65.807 227.585 L 70 228.256 70 238.355 L 70 248.455 40.711 219.227 C 24.602 203.152, 10.909 190, 10.282 190 C 8.799 190, 6 192.814, 6 194.305 C 6 195.823, 72.177 262, 73.695 262 C 74.334 262, 75.564 261.293, 76.429 260.429 C 77.721 259.136, 78 256.121, 78 243.429 C 78 230.557, 78.242 228, 79.462 228 C 84.056 228, 92.841 223.319, 98.080 218.080 C 111.882 204.278, 111.882 182.722, 98.080 168.920 C 92.841 163.681, 84.056 159, 79.462 159 C 78.244 159, 78 156.504, 78 144.071 C 78 131.833, 77.717 128.860, 76.429 127.571 C 75.564 126.707, 74.471 126, 74 126 C 73.529 126, 72.436 126.707, 71.571 127.571 M 135.571 127.571 C 134.175 128.968, 134 136.372, 134 194 C 134 251.628, 134.175 259.032, 135.571 260.429 C 137.678 262.535, 138.598 262.412, 140.443 259.777 C 141.813 257.823, 142 249.904, 142 194 C 142 138.096, 141.813 130.177, 140.443 128.223 C 138.598 125.588, 137.678 125.465, 135.571 127.571 M 182.103 127.808 C 181.342 129.230, 182.088 130.987, 185.594 136.024 C 193.390 147.227, 195.858 160.271, 192.415 172.068 C 190.433 178.858, 187.641 183.716, 180.962 192 C 167.391 208.833, 164.570 227.723, 172.946 245.680 C 176.174 252.599, 183.335 261, 186.005 261 C 186.968 261, 188.333 260.304, 189.038 259.454 C 190.105 258.168, 189.958 257.452, 188.166 255.204 C 177.857 242.272, 175.621 236.231, 176.244 223 C 176.791 211.373, 178.323 207.636, 187.438 195.692 C 191.134 190.848, 195.586 183.873, 197.330 180.192 C 200.364 173.787, 200.500 172.964, 200.500 161 C 200.500 148.942, 200.384 148.254, 197.212 141.557 C 191.292 129.054, 184.664 123.023, 182.103 127.808 M 231.750 127.080 C 230.111 128.035, 230 132.293, 230 194.015 C 230 259.587, 230.011 259.935, 232.064 261.034 C 237.084 263.721, 237 264.854, 237 194.078 C 237 123.068, 237.071 123.981, 231.750 127.080 M 63.463 167.591 C 46.076 173.765, 40.232 197.396, 52.536 211.771 C 55.933 215.739, 61.766 219.219, 67.250 220.550 L 70 221.217 70 193.608 C 70 172.146, 69.722 166.018, 68.750 166.079 C 68.063 166.122, 65.683 166.803, 63.463 167.591 M 78 193.500 C 78 208.625, 78.168 221, 78.374 221 C 78.580 221, 80.646 220.331, 82.965 219.512 C 93.486 215.800, 101 204.962, 101 193.500 C 101 182.038, 93.486 171.200, 82.965 167.488 C 80.646 166.669, 78.580 166, 78.374 166 C 78.168 166, 78 178.375, 78 193.500 " stroke="none" fill="black" fill-rule="evenodd"/>
</svg>