<svg xmlns="http://www.w3.org/2000/svg" width="340" height="324" viewBox="0 0 340 324" version="1.1">
	<path d="M 55.750 63.080 C 54.186 63.991, 54 66.007, 54 82.015 C 54 98.703, 54.132 100, 55.934 100.965 C 57.043 101.558, 64.905 102, 74.363 102 C 88.024 102, 91.127 101.730, 92.429 100.429 C 94.757 98.100, 94.757 65.900, 92.429 63.571 C 91.123 62.266, 88.036 62.005, 74.179 62.030 C 64.720 62.048, 56.742 62.502, 55.750 63.080 M 62 82 L 62 94 74 94 L 86 94 86 82 L 86 70 74 70 L 62 70 62 82 M 72.357 126.765 C 70.385 128.033, 6.012 257.866, 6.598 259.394 C 7.264 261.130, 9.514 262.124, 11.262 261.453 C 11.956 261.187, 25.431 235.213, 41.206 203.734 L 69.888 146.500 69.944 200.250 L 70 254 55.571 254 C 43.788 254, 40.855 254.288, 39.571 255.571 C 37.598 257.545, 37.598 258.455, 39.571 260.429 C 40.936 261.793, 45.463 262, 74 262 C 102.537 262, 107.064 261.793, 108.429 260.429 C 109.293 259.564, 110 258.471, 110 258 C 110 257.529, 109.293 256.436, 108.429 255.571 C 107.145 254.288, 104.212 254, 92.429 254 L 78 254 78 191.571 C 78 136.152, 77.824 128.966, 76.429 127.571 C 74.679 125.822, 74.026 125.693, 72.357 126.765 M 295.750 159.082 C 294.788 159.642, 294 160.858, 294 161.786 C 294 162.714, 299.956 169.442, 307.236 176.737 L 320.472 190 292.670 190 C 275.418 190, 264.135 190.393, 262.934 191.035 C 261.482 191.813, 261 193.143, 261 196.375 C 261 198.743, 260.101 204.194, 259.003 208.489 C 252.293 234.724, 228.646 253.035, 201.540 252.985 C 184.902 252.955, 171.286 247.320, 159.388 235.541 C 148.900 225.158, 142 210.206, 142 197.861 C 142 194.905, 141.413 192.556, 140.429 191.571 C 138.442 189.585, 137.546 189.597, 135.506 191.636 C 132.220 194.923, 136.552 215.637, 142.739 226.224 C 151.989 242.050, 167.692 254.067, 185.113 258.652 C 193.646 260.898, 209.436 260.856, 218 258.566 C 235.949 253.765, 252.974 240.018, 260.824 223.988 C 265.053 215.351, 268 205.825, 268 200.790 L 268 198 294.236 198 L 320.472 198 307.236 211.263 C 299.956 218.558, 294 225.292, 294 226.228 C 294 227.164, 294.952 228.439, 296.115 229.062 C 298.040 230.092, 299.774 228.675, 315.348 213.347 C 332.797 196.174, 333.958 194.961, 333.985 193.886 C 334.002 193.179, 299.261 158.610, 298.202 158.282 C 297.816 158.162, 296.712 158.522, 295.750 159.082 " stroke="none" fill="black" fill-rule="evenodd"/>
</svg>