<svg xmlns="http://www.w3.org/2000/svg" width="436" height="324" viewBox="0 0 436 324" version="1.1">
	<path d="M 71.571 127.571 C 70.284 128.858, 70 131.822, 70 143.944 L 70 158.744 65.807 159.415 C 56.144 160.960, 46.017 169.365, 41.216 179.825 C 37.512 187.894, 37.512 199.106, 41.216 207.175 C 46.017 217.635, 56.144 226.040, 65.807 227.585 L 70 228.256 70 238.355 L 70 248.455 40.711 219.227 C 24.602 203.152, 10.909 190, 10.282 190 C 8.799 190, 6 192.814, 6 194.305 C 6 195.823, 72.177 262, 73.695 262 C 74.334 262, 75.564 261.293, 76.429 260.429 C 77.720 259.137, 78 256.131, 78 243.540 L 78 228.223 81.750 227.527 C 91.511 225.718, 102.191 216.353, 106.072 206.202 C 109.015 198.504, 109.015 188.496, 106.072 180.798 C 102.191 170.647, 91.511 161.282, 81.750 159.473 L 78 158.777 78 143.960 C 78 131.823, 77.716 128.859, 76.429 127.571 C 75.564 126.707, 74.471 126, 74 126 C 73.529 126, 72.436 126.707, 71.571 127.571 M 358.750 127.080 C 357.514 127.800, 357 129.359, 357 132.390 C 357 139.079, 353.370 151.641, 349.340 158.899 C 344.205 168.148, 334.052 177.887, 324.875 182.369 C 316.466 186.475, 307.512 189, 301.361 189 C 298.860 189, 296.503 189.640, 295.571 190.571 C 293.583 192.560, 293.596 193.454, 295.645 195.502 C 298.752 198.610, 313.603 195.672, 326.858 189.329 C 334.415 185.712, 337.708 183.373, 343.969 177.175 C 348.233 172.954, 353.130 167.025, 354.851 164 L 357.981 158.500 357.991 209.215 C 358 259.425, 358.021 259.941, 360.064 261.034 C 364.949 263.649, 364.962 263.522, 365.241 210.222 L 365.500 160.673 369.239 166.304 C 377.082 178.118, 390.333 188.470, 403.338 192.944 C 411.661 195.808, 425.624 197.557, 427.530 195.975 C 429.309 194.498, 429.434 191.834, 427.800 190.200 C 427.140 189.540, 424.553 188.993, 422.050 188.985 C 404.980 188.930, 385.448 177.587, 374.998 161.661 C 370.100 154.197, 366 141.829, 366 134.520 C 366 127.246, 363.272 124.446, 358.750 127.080 M 63.054 167.728 C 57.018 169.859, 49.781 177.260, 47.667 183.463 C 42.058 199.925, 50.847 216.571, 67.250 220.550 L 70 221.217 70 193.608 C 70 172.146, 69.722 166.018, 68.750 166.079 C 68.063 166.122, 65.499 166.864, 63.054 167.728 M 78 193.500 L 78 221.135 80.250 220.448 C 88.603 217.897, 94.948 212.697, 98.533 205.467 C 101.287 199.912, 101.287 187.088, 98.533 181.533 C 94.948 174.303, 88.603 169.103, 80.250 166.552 L 78 165.865 78 193.500 M 135.579 255.564 C 134.710 256.432, 134 257.529, 134 258 C 134 258.471, 134.710 259.568, 135.579 260.436 C 136.990 261.847, 144.058 261.987, 202.220 261.757 C 262.934 261.517, 267.356 261.383, 268.386 259.750 C 269.191 258.474, 269.191 257.526, 268.386 256.250 C 267.356 254.617, 262.934 254.483, 202.220 254.243 C 144.058 254.013, 136.990 254.153, 135.579 255.564 M 167.571 287.571 C 166.707 288.436, 166 289.529, 166 290 C 166 291.111, 168.889 294, 170 294 C 171.111 294, 174 291.111, 174 290 C 174 288.889, 171.111 286, 170 286 C 169.529 286, 168.436 286.707, 167.571 287.571 M 231.616 287.527 C 230.727 288.416, 230 289.529, 230 290 C 230 291.389, 233.140 294.120, 234.295 293.735 C 236.395 293.035, 237.549 290.094, 236.423 288.310 C 234.905 285.902, 233.474 285.669, 231.616 287.527 " stroke="none" fill="black" fill-rule="evenodd"/>
</svg>