<svg xmlns="http://www.w3.org/2000/svg" width="308" height="324" viewBox="0 0 308 324" version="1.1">
	<path d="M 97.384 127.370 C 86.752 130.037, 78.004 137.445, 73.163 147.880 C 71.042 152.453, 70.551 155.012, 70.528 161.620 C 70.502 169.072, 70.810 170.344, 74.268 177.084 L 78.036 184.428 42.018 220.496 C 22.208 240.333, 6 257.080, 6 257.710 C 6 259.199, 8.806 261.995, 10.321 262.017 C 10.970 262.026, 27.763 245.690, 47.640 225.714 L 83.780 189.395 88.517 192.108 C 101.744 199.684, 118.832 197.283, 129.766 186.313 C 137.447 178.607, 139.475 173.433, 139.488 161.500 C 139.502 149.368, 137.458 144.293, 129.353 136.339 C 121.041 128.183, 108.342 124.620, 97.384 127.370 M 95.627 135.468 C 90.247 137.386, 85.039 141.829, 81.500 147.519 C 77.527 153.908, 76.712 165.311, 79.741 172.129 C 84.181 182.120, 92.127 187.919, 102.521 188.754 C 114.446 189.711, 124.036 184.794, 129.500 174.921 C 132.132 170.166, 132.500 168.518, 132.500 161.500 C 132.500 154.487, 132.130 152.829, 129.500 148.061 C 126.429 142.492, 120.651 137.526, 114.684 135.326 C 110.327 133.720, 100.323 133.794, 95.627 135.468 M 167.750 159.080 C 166.138 160.019, 166 162.769, 166 194.015 C 166 227.256, 166.041 227.952, 168.064 229.034 C 172.316 231.310, 173 229.071, 173 212.878 L 173 198 201.500 198 L 230 198 230 212.965 C 230 227.061, 230.120 227.994, 232.064 229.034 C 236.316 231.310, 237 229.071, 237 212.878 L 237 198 265.500 198 L 294 198 294 212.965 C 294 226.276, 294.196 228.035, 295.776 228.880 C 296.902 229.483, 298.182 229.478, 299.276 228.866 C 300.855 227.982, 301 225.053, 301 194 C 301 162.947, 300.855 160.018, 299.276 159.134 C 298.182 158.522, 296.902 158.517, 295.776 159.120 C 294.196 159.965, 294 161.724, 294 175.035 L 294 190 265.500 190 L 237 190 237 175.122 C 237 158.929, 236.316 156.690, 232.064 158.966 C 230.120 160.006, 230 160.939, 230 175.035 L 230 190 201.500 190 L 173 190 173 175.200 C 173 158.584, 172.299 156.431, 167.750 159.080 " stroke="none" fill="black" fill-rule="evenodd"/>
</svg>