<svg xmlns="http://www.w3.org/2000/svg" width="340" height="324" viewBox="0 0 340 324" version="1.1">
	<path d="M 71.571 127.571 C 70.284 128.858, 70 131.822, 70 143.944 L 70 158.744 65.908 159.399 C 57.189 160.793, 47.413 168.112, 42.781 176.712 C 35.455 190.313, 37.475 205.965, 48.033 217.420 C 52.674 222.455, 60.029 226.661, 65.807 227.585 L 70 228.256 70 238.355 L 70 248.455 40.711 219.227 C 24.602 203.152, 10.909 190, 10.282 190 C 8.799 190, 6 192.814, 6 194.305 C 6 195.823, 72.177 262, 73.695 262 C 74.334 262, 75.564 261.293, 76.429 260.429 C 77.721 259.136, 78 256.121, 78 243.429 C 78 230.557, 78.242 228, 79.462 228 C 84.056 228, 92.841 223.319, 98.080 218.080 C 111.882 204.278, 111.882 182.722, 98.080 168.920 C 92.841 163.681, 84.056 159, 79.462 159 C 78.244 159, 78 156.504, 78 144.071 C 78 131.833, 77.717 128.860, 76.429 127.571 C 75.564 126.707, 74.471 126, 74 126 C 73.529 126, 72.436 126.707, 71.571 127.571 M 191.870 127.014 C 162.206 131.674, 139.468 154.602, 135.009 184.349 C 133.698 193.101, 134.139 196.456, 136.733 197.451 C 139.507 198.516, 142 194.563, 142 189.099 C 142 176.689, 148.397 162.686, 159 151.888 C 170.807 139.863, 184.523 134, 200.845 134 C 211.613 134, 217.925 135.425, 227.500 140.017 C 243.578 147.728, 256.236 163.548, 259.493 180 C 260.144 183.284, 259.391 182.711, 247.286 170.707 C 238.092 161.589, 233.922 158.093, 232.771 158.535 C 230.716 159.323, 229.764 161.756, 230.792 163.593 C 232.234 166.169, 264.341 198, 265.498 198 C 267.010 198, 300.408 164.380, 300.833 162.430 C 301.208 160.707, 299.297 158, 297.705 158 C 297.128 158, 290.292 164.309, 282.515 172.020 L 268.375 186.039 266.578 178.416 C 261.966 158.855, 248.644 142.123, 231 133.733 C 225.775 131.249, 219.475 128.743, 217 128.165 C 210.187 126.573, 198.177 126.023, 191.870 127.014 M 63.463 167.591 C 57.971 169.541, 52.552 174.205, 49.249 179.824 C 46.800 183.989, 46.500 185.483, 46.500 193.500 C 46.500 201.502, 46.803 203.015, 49.230 207.145 C 53.385 214.213, 59.168 218.498, 67.305 220.541 L 70 221.217 70 193.608 C 70 172.146, 69.722 166.018, 68.750 166.079 C 68.063 166.122, 65.683 166.803, 63.463 167.591 M 78 193.500 L 78 221.135 80.250 220.448 C 88.638 217.886, 95.034 212.627, 98.470 205.467 C 100.877 200.450, 101.604 191.230, 100.035 185.623 C 97.616 176.984, 89.511 169.154, 80.250 166.508 L 78 165.865 78 193.500 M 183.213 207.315 C 173.746 216.838, 166 225.131, 166 225.743 C 166 227.008, 168.748 230, 169.910 230 C 170.332 230, 176.961 223.969, 184.642 216.598 L 198.608 203.197 200.340 209.921 C 206.415 233.504, 225.317 252.390, 249.113 258.652 C 257.646 260.898, 273.436 260.856, 282 258.566 C 305.027 252.407, 324.195 233.196, 330.014 210.444 C 333.549 196.623, 332.270 188.179, 327.064 190.966 C 325.469 191.819, 325 193.049, 325 196.375 C 325 203.078, 321.374 215.635, 317.340 222.899 C 311.912 232.675, 301.977 241.998, 291.820 246.847 C 281.916 251.576, 275.674 253, 264.845 253 C 240.385 253, 218.133 237.533, 209.467 214.507 C 208.110 210.903, 207 207.199, 207 206.277 C 207 205.279, 212.202 209.746, 219.836 217.299 C 226.896 224.285, 233.141 230, 233.713 230 C 235.292 230, 237.208 227.291, 236.833 225.591 C 236.399 223.629, 203.089 190, 201.579 190 C 200.944 190, 192.680 197.792, 183.213 207.315 " stroke="none" fill="black" fill-rule="evenodd"/>
</svg>