<svg xmlns="http://www.w3.org/2000/svg" width="244" height="324" viewBox="0 0 244 324" version="1.1">
	<path d="M 98.223 127.008 C 87.939 129.164, 78.017 137.415, 73.189 147.825 C 71.040 152.457, 70.551 154.992, 70.528 161.620 C 70.502 169.072, 70.810 170.344, 74.268 177.084 L 78.036 184.428 42.018 220.496 C 22.208 240.333, 6 257.080, 6 257.710 C 6 259.201, 8.807 261.996, 10.321 262.014 C 10.970 262.021, 27.770 245.689, 47.655 225.720 L 83.809 189.412 88.586 192.147 C 91.213 193.652, 96.325 195.413, 99.946 196.060 C 111.580 198.139, 123.896 193.593, 131.922 184.257 C 140.138 174.701, 142.474 160.688, 137.893 148.443 C 132.298 133.489, 114.132 123.673, 98.223 127.008 M 95.463 135.591 C 89.971 137.541, 84.552 142.205, 81.249 147.824 C 78.800 151.989, 78.500 153.483, 78.500 161.500 C 78.500 169.517, 78.800 171.011, 81.249 175.176 C 89.926 189.937, 109.604 193.610, 123.031 182.976 C 128.751 178.445, 133 169.292, 133 161.500 C 133 150.038, 125.486 139.200, 114.965 135.488 C 109.740 133.644, 100.813 133.692, 95.463 135.591 M 167.585 191.558 C 165.598 193.545, 165.595 194.452, 167.571 196.429 C 168.855 197.712, 171.788 198, 183.571 198 L 198 198 198 226 L 198 254 183.571 254 C 171.788 254, 168.855 254.288, 167.571 255.571 C 165.595 257.548, 165.598 258.455, 167.585 260.442 C 168.978 261.835, 173.159 261.995, 202.226 261.763 C 232.452 261.523, 235.377 261.350, 236.386 259.750 C 237.190 258.475, 237.191 257.525, 236.387 256.250 C 235.430 254.730, 233.291 254.464, 220.142 254.224 L 205 253.948 205 226 L 205 198.052 220.142 197.776 C 233.291 197.536, 235.430 197.270, 236.387 195.750 C 237.191 194.475, 237.190 193.525, 236.386 192.250 C 235.377 190.650, 232.452 190.477, 202.226 190.237 C 173.159 190.005, 168.978 190.165, 167.585 191.558 " stroke="none" fill="black" fill-rule="evenodd"/>
</svg>