<svg xmlns="http://www.w3.org/2000/svg" width="372" height="324" viewBox="0 0 372 324" version="1.1">
	<path d="M 71.571 127.571 C 70.283 128.860, 70 131.833, 70 144.071 L 70 159 67.160 159 C 62.727 159, 52.634 164.589, 48.013 169.602 C 41.426 176.748, 38.611 183.903, 38.611 193.500 C 38.611 203.097, 41.426 210.252, 48.013 217.398 C 52.634 222.411, 62.727 228, 67.160 228 L 70 228 70 238.227 L 70 248.455 40.711 219.227 C 24.602 203.152, 10.909 190, 10.282 190 C 8.799 190, 6 192.814, 6 194.305 C 6 195.823, 72.177 262, 73.695 262 C 74.334 262, 75.564 261.293, 76.429 260.429 C 77.721 259.136, 78 256.121, 78 243.429 L 78 228 80.340 228 C 84.333 228, 94.591 222.168, 98.987 217.398 C 105.574 210.252, 108.389 203.097, 108.389 193.500 C 108.389 183.903, 105.574 176.748, 98.987 169.602 C 94.591 164.832, 84.333 159, 80.340 159 L 78 159 78 144.071 C 78 131.833, 77.717 128.860, 76.429 127.571 C 75.564 126.707, 74.471 126, 74 126 C 73.529 126, 72.436 126.707, 71.571 127.571 M 217.288 173.222 L 170.028 220.444 154.691 205.222 C 146.256 196.850, 138.857 190, 138.249 190 C 136.819 190, 134 192.819, 134 194.249 C 134 194.857, 140.844 202.250, 149.208 210.677 L 164.416 226 149.208 241.323 C 140.844 249.750, 134 257.143, 134 257.751 C 134 259.181, 136.819 262, 138.249 262 C 138.857 262, 146.250 255.156, 154.677 246.792 L 170 231.584 185.323 246.792 C 193.750 255.156, 201.143 262, 201.751 262 C 203.181 262, 206 259.181, 206 257.751 C 206 257.143, 199.150 249.744, 190.778 241.309 L 175.556 225.972 222.778 178.712 C 248.750 152.718, 270 130.932, 270 130.297 C 270 128.805, 267.195 126, 265.703 126 C 265.068 126, 243.282 147.250, 217.288 173.222 M 327.571 159.571 C 326.707 160.436, 326 161.529, 326 162 C 326 163.111, 328.889 166, 330 166 C 331.111 166, 334 163.111, 334 162 C 334 160.889, 331.111 158, 330 158 C 329.529 158, 328.436 158.707, 327.571 159.571 M 64.453 167.326 C 52.790 171.820, 46 181.431, 46 193.448 C 46 206.371, 54.645 217.389, 67.250 220.531 L 70 221.217 70 193.608 C 70 163.762, 70.278 165.082, 64.453 167.326 M 78 193.500 L 78 221.135 80.250 220.448 C 88.603 217.897, 94.948 212.697, 98.533 205.467 C 101.287 199.912, 101.287 187.088, 98.533 181.533 C 94.948 174.303, 88.603 169.103, 80.250 166.552 L 78 165.865 78 193.500 M 295.571 191.571 C 294.707 192.436, 294 193.529, 294 194 C 294 194.471, 294.707 195.564, 295.571 196.429 C 296.936 197.793, 301.463 198, 330 198 C 358.537 198, 363.064 197.793, 364.429 196.429 C 365.293 195.564, 366 194.471, 366 194 C 366 193.529, 365.293 192.436, 364.429 191.571 C 363.064 190.207, 358.537 190, 330 190 C 301.463 190, 296.936 190.207, 295.571 191.571 M 327.571 223.571 C 326.707 224.436, 326 225.529, 326 226 C 326 227.111, 328.889 230, 330 230 C 331.111 230, 334 227.111, 334 226 C 334 224.889, 331.111 222, 330 222 C 329.529 222, 328.436 222.707, 327.571 223.571 " stroke="none" fill="black" fill-rule="evenodd"/>
</svg>