<svg xmlns="http://www.w3.org/2000/svg" width="372" height="324" viewBox="0 0 372 324" version="1.1">
	<path d="M 231.200 127.200 C 229.465 128.935, 229.465 259.065, 231.200 260.800 C 232.935 262.535, 363.065 262.535, 364.800 260.800 C 366.535 259.065, 366.535 128.935, 364.800 127.200 C 363.065 125.465, 232.935 125.465, 231.200 127.200 M 238 194 L 238 254 264.014 254 L 290.028 254 287.546 250.249 C 282.019 241.897, 279.051 227.583, 280.840 217.908 C 282.594 208.427, 285.778 201.723, 293.128 192.043 C 303.879 177.881, 305.500 173.815, 305.500 161 C 305.500 149.937, 304.181 145.332, 298.701 137.257 L 296.500 134.014 267.250 134.007 L 238 134 238 194 M 306 134.535 C 306 134.830, 306.669 136.091, 307.486 137.339 C 308.304 138.586, 309.842 142.133, 310.904 145.221 C 316.748 162.207, 313.687 177.078, 300.872 193.957 C 290.121 208.119, 288.500 212.185, 288.500 225 C 288.500 234.307, 288.805 236.152, 291.188 241.235 C 292.666 244.390, 295.082 248.552, 296.557 250.485 L 299.237 254 328.619 254 L 358 254 358 194 L 358 134 332 134 C 317.700 134, 306 134.241, 306 134.535 M 7.571 223.571 C 6.707 224.436, 6 225.529, 6 226 C 6 226.471, 6.707 227.564, 7.571 228.429 C 8.855 229.712, 11.788 230, 23.571 230 L 38 230 38 244.800 C 38 254.978, 38.375 259.975, 39.200 260.800 C 40.935 262.535, 171.065 262.535, 172.800 260.800 C 173.625 259.975, 174 254.978, 174 244.800 L 174 230 188.429 230 C 200.212 230, 203.145 229.712, 204.429 228.429 C 206.402 226.455, 206.402 225.545, 204.429 223.571 C 203.122 222.264, 199.958 222, 185.629 222 C 173.562 222, 168.040 222.360, 167.200 223.200 C 166.375 224.025, 166 229.022, 166 239.200 L 166 254 106 254 L 46 254 46 239.200 C 46 229.022, 45.625 224.025, 44.800 223.200 C 43.960 222.360, 38.438 222, 26.371 222 C 12.042 222, 8.878 222.264, 7.571 223.571 " stroke="none" fill="black" fill-rule="evenodd"/>
</svg>