<svg xmlns="http://www.w3.org/2000/svg" width="308" height="324" viewBox="0 0 308 324" version="1.1">
	<path d="M 97.972 127.321 C 87.102 129.737, 78.085 137.217, 73.191 147.880 C 71.086 152.466, 70.610 155.011, 70.606 161.717 C 70.600 169.240, 70.914 170.548, 74.318 177.181 L 78.036 184.428 42.018 220.496 C 22.208 240.333, 6 257.080, 6 257.710 C 6 259.192, 8.798 261.991, 10.321 262.032 C 10.970 262.049, 27.700 245.653, 47.500 225.594 L 83.500 189.125 88.399 191.986 C 105.005 201.682, 126.736 195.229, 135.999 177.851 C 138.727 172.732, 139.438 170.140, 139.788 164.025 C 140.302 155.073, 139.181 150.377, 134.778 143.035 C 127.396 130.726, 112.079 124.187, 97.972 127.321 M 215.239 143.260 C 205.758 152.754, 198 161.288, 198 162.225 C 198 163.163, 198.939 164.432, 200.087 165.047 C 201.970 166.054, 203.537 164.813, 216.087 152.378 L 230 138.592 230 195.934 L 230 253.275 224.699 252.652 C 211.872 251.145, 199.722 244.689, 189.682 234.046 C 180.217 224.013, 175.297 213.009, 173.465 197.780 C 172.673 191.195, 171.172 189.302, 168.064 190.966 C 161.808 194.314, 170.389 222.800, 181.690 236.204 C 192.973 249.586, 207.145 257.432, 224.753 260.044 C 233.906 261.401, 232.645 261.405, 241.908 259.987 C 273.092 255.211, 297.176 230.144, 299.719 199.816 C 300.231 193.700, 300.063 192.520, 298.519 191.390 C 295.778 189.386, 293.004 191.337, 292.983 195.285 C 292.924 206.203, 286.613 222.456, 278.660 232.172 C 270.358 242.315, 254.992 250.830, 241.750 252.627 L 237 253.272 237 195.932 L 237 138.592 250.913 152.378 C 263.463 164.813, 265.030 166.054, 266.913 165.047 C 268.061 164.432, 269 163.153, 269 162.204 C 269 160.410, 235.239 126, 233.479 126 C 232.929 126, 224.721 133.767, 215.239 143.260 M 94.435 135.890 C 83.942 140.656, 77.986 149.930, 78.022 161.446 C 78.070 176.813, 88.010 187.695, 102.977 188.766 C 114.937 189.622, 123.982 184.876, 129.551 174.824 C 132.127 170.173, 132.500 168.488, 132.500 161.500 C 132.500 154.512, 132.127 152.827, 129.551 148.176 C 126.179 142.090, 121.063 137.639, 114.965 135.488 C 109.124 133.427, 99.441 133.617, 94.435 135.890 " stroke="none" fill="black" fill-rule="evenodd"/>
</svg>