<svg xmlns="http://www.w3.org/2000/svg" width="372" height="324" viewBox="0 0 372 324" version="1.1">
	<path d="M 167.267 159.267 L 134 192.533 134 223.267 L 134 254 74 254 L 14 254 14 223.571 C 14 197.242, 13.788 192.931, 12.429 191.571 C 10.455 189.598, 9.545 189.598, 7.571 191.571 C 6.207 192.936, 6 197.463, 6 226 C 6 254.537, 6.207 259.064, 7.571 260.429 C 8.968 261.825, 16.372 262, 74 262 C 131.628 262, 139.032 261.825, 140.429 260.429 C 141.791 259.066, 142 254.646, 142 227.199 L 142 195.540 174 163.485 C 191.600 145.854, 206 130.914, 206 130.286 C 206 128.800, 203.188 126, 201.695 126 C 201.056 126, 185.563 140.970, 167.267 159.267 M 255.500 175.106 C 248.127 176.578, 236.954 182.452, 232.081 187.418 C 228.344 191.225, 227.950 192.037, 228.939 193.886 C 230.553 196.901, 232.686 196.517, 237.255 192.388 C 239.454 190.402, 244.234 187.364, 247.877 185.638 C 253.999 182.737, 255.298 182.500, 265.052 182.500 C 275.247 182.500, 275.862 182.628, 283.265 186.286 C 288.530 188.889, 292.054 191.450, 294.537 194.479 C 307.397 210.174, 333.797 214.181, 352.790 203.322 C 359.414 199.534, 364 195.092, 364 192.464 C 364 188.434, 360.557 188.410, 355.681 192.406 C 353.304 194.353, 348.692 197.195, 345.430 198.723 C 340.127 201.206, 338.389 201.500, 329 201.500 C 319.594 201.500, 317.878 201.209, 312.528 198.704 C 308.853 196.983, 303.853 193.290, 299.528 189.102 C 295.663 185.360, 290.964 181.506, 289.087 180.539 C 279.052 175.368, 265.317 173.147, 255.500 175.106 M 255.500 239.106 C 248.127 240.578, 236.954 246.452, 232.081 251.418 C 228.344 255.225, 227.950 256.037, 228.939 257.886 C 230.553 260.901, 232.686 260.517, 237.255 256.388 C 239.454 254.402, 244.234 251.364, 247.877 249.638 C 253.999 246.737, 255.298 246.500, 265.052 246.500 C 275.247 246.500, 275.862 246.628, 283.265 250.286 C 288.530 252.889, 292.054 255.450, 294.537 258.479 C 307.397 274.174, 333.797 278.181, 352.790 267.322 C 359.414 263.534, 364 259.092, 364 256.464 C 364 252.434, 360.557 252.410, 355.681 256.406 C 353.304 258.353, 348.692 261.195, 345.430 262.723 C 340.127 265.206, 338.389 265.500, 329 265.500 C 319.594 265.500, 317.878 265.209, 312.528 262.704 C 308.853 260.983, 303.853 257.290, 299.528 253.102 C 295.663 249.360, 290.964 245.506, 289.087 244.539 C 279.052 239.368, 265.317 237.147, 255.500 239.106 " stroke="none" fill="black" fill-rule="evenodd"/>
</svg>