<svg xmlns="http://www.w3.org/2000/svg" width="372" height="324" viewBox="0 0 372 324" version="1.1">
	<path d="M 34.223 127.062 C 24.045 129.068, 13.996 137.411, 9.216 147.825 C 7.099 152.436, 6.611 155, 6.611 161.500 C 6.611 171.097, 9.426 178.252, 16.013 185.398 C 20.634 190.411, 30.727 196, 35.160 196 L 38 196 38 227.429 C 38 254.667, 38.210 259.067, 39.571 260.429 C 40.968 261.825, 48.372 262, 106 262 C 163.628 262, 171.032 261.825, 172.429 260.429 C 173.790 259.067, 174 254.677, 174 227.540 L 174 196.223 177.703 195.528 C 190.283 193.168, 201.284 181.405, 204.013 167.396 C 207.681 148.574, 193.438 129.279, 173.865 126.557 C 165.439 125.385, 166 120.750, 166 191.571 L 166 254 106 254 L 46 254 46 191.571 C 46 136.152, 45.824 128.966, 44.429 127.571 C 42.722 125.865, 40.788 125.768, 34.223 127.062 M 279.213 143.315 C 269.746 152.838, 262 161.131, 262 161.743 C 262 163.175, 264.813 166, 266.239 166 C 266.841 166, 273.334 160.059, 280.667 152.798 L 294 139.595 294 161.298 C 294 173.234, 293.801 183, 293.557 183 C 293.314 183, 291.596 182.104, 289.740 181.009 C 280.583 175.606, 267.239 173.158, 256.932 174.988 C 248.418 176.501, 237.374 182.024, 232.081 187.418 C 228.344 191.225, 227.950 192.037, 228.939 193.886 C 230.553 196.901, 232.686 196.517, 237.255 192.388 C 239.454 190.402, 244.234 187.364, 247.877 185.638 C 253.993 182.740, 255.304 182.500, 265 182.500 C 274.401 182.500, 276.124 182.792, 281.458 185.290 C 284.735 186.824, 288.897 189.210, 290.708 190.591 L 294 193.102 294 225.979 C 294 254.535, 294.207 259.064, 295.571 260.429 C 296.436 261.293, 297.529 262, 298 262 C 298.471 262, 299.564 261.293, 300.429 260.429 C 301.783 259.074, 302 254.939, 302 230.429 C 302 214.793, 302.337 202.014, 302.750 202.032 C 303.163 202.049, 304.353 202.709, 305.396 203.499 C 312.688 209.019, 332.160 211.131, 343 207.577 C 353.672 204.079, 364 196.646, 364 192.464 C 364 188.434, 360.557 188.410, 355.681 192.406 C 353.304 194.353, 348.692 197.195, 345.430 198.723 C 340.127 201.206, 338.389 201.500, 329 201.500 C 319.584 201.500, 317.881 201.210, 312.503 198.692 C 301.330 193.461, 302 195.571, 302 165.623 L 302 139.595 315.333 152.798 C 322.666 160.059, 329.159 166, 329.761 166 C 331.187 166, 334 163.175, 334 161.743 C 334 159.994, 299.761 126, 298 126 C 297.134 126, 288.680 133.792, 279.213 143.315 M 31.054 135.728 C 25.018 137.859, 17.781 145.260, 15.667 151.463 C 11.948 162.378, 14.390 173.587, 22.128 181.125 C 26.193 185.084, 33.676 189, 37.178 189 C 37.630 189, 38 176.625, 38 161.500 C 38 140.125, 37.722 134.018, 36.750 134.079 C 36.063 134.122, 33.499 134.864, 31.054 135.728 M 174 161.500 L 174 189.135 176.250 188.448 C 185.341 185.671, 192.783 179.020, 195.403 171.329 C 200.854 155.332, 192.639 139.558, 176.250 134.552 L 174 133.865 174 161.500 " stroke="none" fill="black" fill-rule="evenodd"/>
</svg>