<svg xmlns="http://www.w3.org/2000/svg" width="468" height="324" viewBox="0 0 468 324" version="1.1">
	<path d="M 34.223 127.062 C 24.045 129.068, 13.996 137.411, 9.216 147.825 C 7.099 152.436, 6.611 155, 6.611 161.500 C 6.611 171.097, 9.426 178.252, 16.013 185.398 C 20.634 190.411, 30.727 196, 35.160 196 L 38 196 38 227.429 C 38 254.667, 38.210 259.067, 39.571 260.429 C 40.968 261.825, 48.372 262, 106 262 C 163.628 262, 171.032 261.825, 172.429 260.429 C 173.790 259.067, 174 254.677, 174 227.540 L 174 196.223 177.703 195.528 C 190.283 193.168, 201.284 181.405, 204.013 167.396 C 207.681 148.574, 193.438 129.279, 173.865 126.557 C 165.439 125.385, 166 120.750, 166 191.571 L 166 254 106 254 L 46 254 46 191.571 C 46 136.152, 45.824 128.966, 44.429 127.571 C 42.722 125.865, 40.788 125.768, 34.223 127.062 M 423.267 159.267 C 404.970 177.563, 390 193.056, 390 193.695 C 390 194.334, 390.707 195.564, 391.571 196.429 C 392.924 197.781, 396.990 198, 420.799 198 L 448.455 198 419.227 227.289 C 403.152 243.398, 390 257.091, 390 257.718 C 390 259.201, 392.814 262, 394.305 262 C 395.823 262, 462 195.823, 462 194.305 C 462 193.666, 461.293 192.436, 460.429 191.571 C 459.076 190.219, 455.010 190, 431.201 190 L 403.545 190 432.773 160.711 C 448.848 144.602, 462 130.909, 462 130.282 C 462 128.799, 459.186 126, 457.695 126 C 457.056 126, 441.563 140.970, 423.267 159.267 M 31.054 135.728 C 25.018 137.859, 17.781 145.260, 15.667 151.463 C 10.058 167.925, 18.847 184.571, 35.250 188.550 L 38 189.217 38 161.608 C 38 140.146, 37.722 134.018, 36.750 134.079 C 36.063 134.122, 33.499 134.864, 31.054 135.728 M 174 161.500 L 174 189.135 176.250 188.448 C 185.341 185.671, 192.783 179.020, 195.403 171.329 C 200.880 155.258, 192.715 139.581, 176.250 134.552 L 174 133.865 174 161.500 M 255.500 175.106 C 248.127 176.578, 236.954 182.452, 232.081 187.418 C 228.344 191.225, 227.950 192.037, 228.939 193.886 C 230.553 196.901, 232.686 196.517, 237.255 192.388 C 239.454 190.402, 244.234 187.364, 247.877 185.638 C 253.999 182.737, 255.298 182.500, 265.052 182.500 C 275.247 182.500, 275.862 182.628, 283.265 186.286 C 288.530 188.889, 292.054 191.450, 294.537 194.479 C 307.397 210.174, 333.797 214.181, 352.790 203.322 C 359.414 199.534, 364 195.092, 364 192.464 C 364 188.434, 360.557 188.410, 355.681 192.406 C 353.304 194.353, 348.692 197.195, 345.430 198.723 C 340.127 201.206, 338.389 201.500, 329 201.500 C 319.341 201.500, 317.978 201.253, 311.986 198.413 C 307.698 196.381, 303.596 193.357, 299.986 189.566 C 296.968 186.398, 292.664 182.727, 290.420 181.408 C 280.664 175.672, 265.958 173.018, 255.500 175.106 M 255.500 239.106 C 248.127 240.578, 236.954 246.452, 232.081 251.418 C 228.344 255.225, 227.950 256.037, 228.939 257.886 C 230.553 260.901, 232.686 260.517, 237.255 256.388 C 239.454 254.402, 244.234 251.364, 247.877 249.638 C 253.999 246.737, 255.298 246.500, 265.052 246.500 C 275.247 246.500, 275.862 246.628, 283.265 250.286 C 288.530 252.889, 292.054 255.450, 294.537 258.479 C 307.397 274.174, 333.797 278.181, 352.790 267.322 C 359.414 263.534, 364 259.092, 364 256.464 C 364 252.434, 360.557 252.410, 355.681 256.406 C 353.304 258.353, 348.692 261.195, 345.430 262.723 C 340.127 265.206, 338.389 265.500, 329 265.500 C 319.341 265.500, 317.978 265.253, 311.986 262.413 C 307.698 260.381, 303.596 257.357, 299.986 253.566 C 296.968 250.398, 292.664 246.727, 290.420 245.408 C 280.664 239.672, 265.958 237.018, 255.500 239.106 " stroke="none" fill="black" fill-rule="evenodd"/>
</svg>