<svg xmlns="http://www.w3.org/2000/svg" width="372" height="324" viewBox="0 0 372 324" version="1.1">
	<path d="M 167.572 158.750 C 149.424 176.762, 134.227 191.950, 133.803 192.500 C 133.378 193.050, 133.017 195.300, 133.001 197.500 C 132.824 220.925, 112.061 245.766, 87.897 251.463 C 79.718 253.390, 67.282 253.390, 59.103 251.463 C 34.887 245.754, 14.098 220.791, 14.015 197.321 C 14.001 193.426, 12.122 190, 10 190 C 9.529 190, 8.411 190.732, 7.515 191.627 C 5.684 193.459, 6.060 199.976, 8.580 210.093 C 14.327 233.163, 33.402 252.253, 57 258.551 C 64.925 260.666, 80.349 260.927, 88 259.075 C 108.480 254.119, 124.949 240.846, 134.126 221.902 C 137.313 215.321, 140 205.718, 140 200.904 C 140 197.897, 142.992 194.597, 173 164.500 C 191.150 146.296, 206 130.894, 206 130.273 C 206 128.806, 203.185 126, 201.714 126 C 201.085 126, 185.721 140.738, 167.572 158.750 M 257.500 175.047 C 247.011 176.861, 237.773 181.511, 231.217 188.276 C 227.704 191.901, 227.675 194.445, 231.132 195.542 C 232.512 195.980, 234.272 195.084, 237.167 192.468 C 239.414 190.438, 244.234 187.364, 247.877 185.638 C 253.993 182.740, 255.304 182.500, 265 182.500 C 274.754 182.500, 275.983 182.729, 282.306 185.724 C 286.947 187.922, 291.090 190.965, 295.331 195.290 C 308.043 208.255, 324.537 212.429, 343 207.354 C 352.935 204.624, 364 196.778, 364 192.464 C 364 188.535, 360.496 188.357, 356.267 192.070 C 354.247 193.844, 349.648 196.691, 346.047 198.397 C 340.017 201.255, 338.670 201.500, 329 201.500 C 319.333 201.500, 317.981 201.254, 311.962 198.402 C 307.858 196.457, 303.606 193.383, 300.541 190.146 C 289.165 178.131, 272.820 172.397, 257.500 175.047 M 257.500 239.047 C 247.011 240.861, 237.773 245.511, 231.217 252.276 C 227.704 255.901, 227.675 258.445, 231.132 259.542 C 232.512 259.980, 234.272 259.084, 237.167 256.468 C 239.414 254.438, 244.234 251.364, 247.877 249.638 C 253.993 246.740, 255.304 246.500, 265 246.500 C 274.754 246.500, 275.983 246.729, 282.306 249.724 C 286.947 251.922, 291.090 254.965, 295.331 259.290 C 308.043 272.255, 324.537 276.429, 343 271.354 C 352.935 268.624, 364 260.778, 364 256.464 C 364 252.535, 360.496 252.357, 356.267 256.070 C 354.247 257.844, 349.648 260.691, 346.047 262.397 C 340.017 265.255, 338.670 265.500, 329 265.500 C 319.333 265.500, 317.981 265.254, 311.962 262.402 C 307.858 260.457, 303.606 257.383, 300.541 254.146 C 289.165 242.131, 272.820 236.397, 257.500 239.047 " stroke="none" fill="black" fill-rule="evenodd"/>
</svg>