<svg xmlns="http://www.w3.org/2000/svg" width="403" height="324" viewBox="0 0 403 324" version="1.1">
	<path d="M 39.267 159.267 C 20.970 177.563, 6 193.056, 6 193.695 C 6 195.199, 8.801 197.997, 10.321 198.011 C 10.970 198.018, 25.534 183.924, 42.687 166.692 L 73.873 135.361 104.187 165.743 C 120.859 182.453, 135.316 196.578, 136.314 197.132 C 138.593 198.397, 141.227 196.472, 140.798 193.855 C 140.468 191.839, 75.247 126, 73.580 126 C 73.004 126, 57.563 140.970, 39.267 159.267 M 231.750 127.080 C 230.114 128.033, 230 132.045, 230 188.793 L 230 249.487 200.199 219.699 C 170.380 189.893, 168.286 188.207, 166.581 192.650 C 166.265 193.472, 166.428 194.900, 166.941 195.822 C 167.455 196.745, 182.529 212.123, 200.438 229.995 C 228.483 257.981, 233.244 262.336, 234.750 261.386 C 236.383 260.356, 236.517 255.894, 236.757 194.502 C 237.035 123.361, 237.081 123.975, 231.750 127.080 M 325.979 128.039 C 325.055 129.767, 325.569 130.983, 329.359 136.025 C 335.408 144.072, 337.481 150.444, 337.481 161 C 337.481 172.490, 335.408 177.943, 326.539 189.783 C 318.138 200.998, 315.575 205.693, 313.495 213.680 C 309.761 228.015, 313.126 242.507, 323.275 255.801 C 326.570 260.117, 327.803 261.046, 329.911 260.801 C 333.872 260.341, 333.707 257.035, 329.470 251.965 C 324.611 246.149, 321.492 239.750, 320.003 232.545 C 317.530 220.572, 320.790 209.351, 330.420 196.693 C 342.681 180.577, 345.616 172.644, 344.735 158 C 344.110 147.625, 341.449 140.189, 335.440 132.025 C 330.725 125.620, 327.909 124.434, 325.979 128.039 M 279.403 175.125 C 269.831 184.640, 262 193.134, 262 194 C 262 194.866, 269.831 203.360, 279.403 212.875 C 295.191 228.570, 297 230.070, 298.903 229.052 C 300.056 228.435, 301 227.163, 301 226.227 C 301 225.290, 294.143 217.656, 285.762 209.262 L 270.524 194 285.762 178.738 C 294.143 170.344, 301 162.710, 301 161.773 C 301 160.837, 300.056 159.565, 298.903 158.948 C 297 157.930, 295.191 159.430, 279.403 175.125 M 359.750 159.080 C 358.788 159.641, 358 160.859, 358 161.788 C 358 162.717, 364.857 170.344, 373.238 178.738 L 388.476 194 373.238 209.262 C 364.857 217.656, 358 225.290, 358 226.227 C 358 227.163, 358.944 228.435, 360.097 229.052 C 362 230.070, 363.809 228.570, 379.597 212.875 C 389.169 203.360, 397 194.866, 397 194 C 397 192.656, 363.162 157.945, 361.935 158.030 C 361.696 158.047, 360.712 158.519, 359.750 159.080 " stroke="none" fill="black" fill-rule="evenodd"/>
</svg>