<svg xmlns="http://www.w3.org/2000/svg" width="372" height="324" viewBox="0 0 372 324" version="1.1">
	<path d="M 295.250 126.662 C 293.121 127.521, 293.864 131.041, 297.016 135.020 C 298.675 137.115, 301.262 141.454, 302.766 144.664 C 305.201 149.861, 305.500 151.650, 305.500 161 C 305.500 173.815, 303.879 177.881, 293.128 192.043 C 280.307 208.930, 277.251 223.790, 283.102 240.796 C 287.828 254.532, 299.302 265.926, 301.484 259.049 C 301.924 257.665, 300.848 255.557, 297.777 251.787 C 290.421 242.756, 288.508 237.230, 288.504 225 C 288.499 212.186, 290.118 208.122, 300.872 193.957 C 308.457 183.967, 311.563 177.275, 313.149 167.509 C 315.234 154.665, 310.763 139.633, 301.831 129.460 C 298.865 126.082, 297.805 125.631, 295.250 126.662 M 247.282 175.282 C 237.777 184.787, 230 193.210, 230 194 C 230 195.693, 264.031 230, 265.710 230 C 267.173 230, 270 227.200, 270 225.751 C 270 225.143, 263.156 217.750, 254.792 209.323 L 239.584 194 254.792 178.677 C 263.156 170.250, 270 162.857, 270 162.249 C 270 160.800, 267.173 158, 265.710 158 C 265.079 158, 256.787 165.777, 247.282 175.282 M 327.571 159.571 C 326.707 160.436, 326 161.640, 326 162.249 C 326 162.857, 332.844 170.250, 341.208 178.677 L 356.416 194 341.208 209.323 C 332.844 217.750, 326 225.143, 326 225.751 C 326 227.200, 328.827 230, 330.290 230 C 331.969 230, 366 195.693, 366 194 C 366 192.307, 331.969 158, 330.290 158 C 329.659 158, 328.436 158.707, 327.571 159.571 M 7.571 223.571 C 6.707 224.436, 6 225.529, 6 226 C 6 226.471, 6.707 227.564, 7.571 228.429 C 8.855 229.712, 11.788 230, 23.571 230 L 38 230 38 244.429 C 38 256.212, 38.288 259.145, 39.571 260.429 C 40.968 261.825, 48.372 262, 106 262 C 163.628 262, 171.032 261.825, 172.429 260.429 C 173.712 259.145, 174 256.212, 174 244.429 L 174 230 188.429 230 C 200.212 230, 203.145 229.712, 204.429 228.429 C 206.402 226.455, 206.402 225.545, 204.429 223.571 C 202.100 221.243, 169.900 221.243, 167.571 223.571 C 166.288 224.855, 166 227.788, 166 239.571 L 166 254 106 254 L 46 254 46 239.571 C 46 227.788, 45.712 224.855, 44.429 223.571 C 43.124 222.267, 39.991 222, 26 222 C 12.009 222, 8.876 222.267, 7.571 223.571 " stroke="none" fill="black" fill-rule="evenodd"/>
</svg>