<svg xmlns="http://www.w3.org/2000/svg" width="276" height="324" viewBox="0 0 276 324" version="1.1">
	<path d="M 247.282 127.282 C 237.777 136.787, 230 145.210, 230 146 C 230 147.693, 264.031 182, 265.710 182 C 267.173 182, 270 179.200, 270 177.751 C 270 177.143, 263.156 169.750, 254.792 161.323 L 239.584 146 254.792 130.677 C 263.156 122.250, 270 114.857, 270 114.249 C 270 112.800, 267.173 110, 265.710 110 C 265.079 110, 256.787 117.777, 247.282 127.282 M 103.571 127.571 C 102.707 128.436, 102 129.619, 102 130.200 C 102 130.782, 105.872 135.215, 110.605 140.051 L 119.210 148.845 115.558 153.628 C 106.989 164.850, 102.603 178.393, 102.646 193.500 C 102.700 212.923, 108.418 226.495, 122.461 240.539 C 136.528 254.606, 150.138 260.333, 169.500 260.333 C 184.721 260.333, 198.195 255.977, 209.374 247.440 L 214.159 243.787 223.445 252.894 C 228.552 257.902, 233.209 262, 233.794 262 C 235.169 262, 238 259.169, 238 257.794 C 238 257.209, 233.902 252.552, 228.894 247.445 L 219.787 238.159 223.440 233.374 C 231.977 222.195, 236.333 208.721, 236.333 193.500 C 236.333 174.138, 230.606 160.528, 216.539 146.461 C 202.472 132.394, 188.862 126.667, 169.500 126.667 C 154.279 126.667, 140.805 131.023, 129.628 139.558 L 124.845 143.210 116.051 134.605 C 111.215 129.872, 106.782 126, 106.200 126 C 105.619 126, 104.436 126.707, 103.571 127.571 M 154.773 135.555 C 148.283 137.128, 140.522 140.818, 134.206 145.333 L 129.911 148.403 172.183 190.683 L 214.454 232.963 216.690 230.232 C 217.919 228.729, 220.507 224.529, 222.440 220.897 C 231.321 204.212, 231.245 182.830, 222.243 165.603 C 214.839 151.435, 199.149 139.133, 183.897 135.537 C 176.043 133.686, 162.449 133.694, 154.773 135.555 M 121.333 158.206 C 111.073 172.559, 107.491 190.730, 111.537 207.897 C 116.338 228.261, 134.739 246.662, 155.103 251.463 C 163.282 253.390, 175.718 253.390, 183.897 251.463 C 190.477 249.912, 201.403 244.641, 206.232 240.690 L 208.963 238.454 166.683 196.183 L 124.403 153.911 121.333 158.206 M 39.571 159.571 C 38.707 160.436, 38 161.529, 38 162 C 38 163.111, 40.889 166, 42 166 C 43.111 166, 46 163.111, 46 162 C 46 160.889, 43.111 158, 42 158 C 41.529 158, 40.436 158.707, 39.571 159.571 M 7.571 191.571 C 6.707 192.436, 6 193.529, 6 194 C 6 194.471, 6.707 195.564, 7.571 196.429 C 8.936 197.793, 13.463 198, 42 198 C 70.537 198, 75.064 197.793, 76.429 196.429 C 77.293 195.564, 78 194.471, 78 194 C 78 193.529, 77.293 192.436, 76.429 191.571 C 75.064 190.207, 70.537 190, 42 190 C 13.463 190, 8.936 190.207, 7.571 191.571 M 39.571 223.571 C 38.707 224.436, 38 225.529, 38 226 C 38 227.111, 40.889 230, 42 230 C 43.111 230, 46 227.111, 46 226 C 46 224.889, 43.111 222, 42 222 C 41.529 222, 40.436 222.707, 39.571 223.571 " stroke="none" fill="black" fill-rule="evenodd"/>
</svg>