<svg xmlns="http://www.w3.org/2000/svg" width="308" height="324" viewBox="0 0 308 324" version="1.1">
	<path d="M 71.200 127.200 C 70.292 128.108, 70 143.689, 70 191.200 L 70 254 39.571 254 C 13.242 254, 8.931 254.212, 7.571 255.571 C 5.596 257.546, 5.598 258.455, 7.579 260.436 C 8.990 261.847, 16.058 261.987, 74.220 261.757 C 134.934 261.517, 139.356 261.383, 140.386 259.750 C 141.191 258.474, 141.191 257.526, 140.386 256.250 C 139.381 254.655, 136.566 254.477, 108.641 254.236 L 78 253.971 78 225.986 L 78 198 108.250 197.985 C 124.888 197.976, 139.081 197.601, 139.791 197.150 C 141.679 195.953, 141.679 128.047, 139.791 126.850 C 137.610 125.466, 72.602 125.798, 71.200 127.200 M 167.750 127.080 C 166.138 128.019, 166 130.762, 166 161.850 C 166 186.767, 166.314 195.914, 167.200 196.800 C 168.081 197.681, 176.578 198, 199.200 198 L 230 198 230 228.965 C 230 259.226, 230.047 259.955, 232.064 261.034 C 237.084 263.721, 237 264.860, 237 194 C 237 123.140, 237.084 124.279, 232.064 126.966 C 230.073 128.031, 230 128.862, 230 150.509 L 230 172.947 225.724 168.671 C 212.257 155.204, 190.989 155.047, 177.250 168.313 L 173 172.416 173 150.408 C 173 126.146, 172.577 124.268, 167.750 127.080 M 78 162 L 78 190 106 190 L 134 190 134 162 L 134 134 106 134 L 78 134 78 162 M 263.750 159.080 C 262.155 160.009, 262 162.388, 262 186.015 C 262 211.174, 262.060 211.962, 264.064 213.034 C 265.596 213.854, 266.498 213.832, 267.564 212.947 C 268.744 211.968, 269 207.174, 269 186.078 C 269 157.906, 268.671 156.214, 263.750 159.080 M 191.627 167.468 C 186.867 169.165, 181.247 173.588, 178.243 178.002 C 175.849 181.518, 173.334 188.667, 174.189 189.523 C 174.470 189.803, 186.886 189.913, 201.781 189.766 L 228.863 189.500 227.059 184.173 C 222.356 170.284, 205.725 162.443, 191.627 167.468 M 263.750 222.080 C 261.372 223.465, 261.542 226.685, 264.064 228.034 C 267.753 230.008, 270.819 225.219, 267.800 222.200 C 266.367 220.767, 266.022 220.757, 263.750 222.080 " stroke="none" fill="black" fill-rule="evenodd"/>
</svg>