<svg xmlns="http://www.w3.org/2000/svg" width="564" height="324" viewBox="0 0 564 324" version="1.1">
	<path d="M 103.571 127.571 C 102.707 128.436, 102 129.619, 102 130.200 C 102 130.782, 105.872 135.215, 110.605 140.051 L 119.210 148.845 115.558 153.628 C 107.010 164.822, 102.660 178.294, 102.681 193.500 C 102.698 205.257, 104.562 213.266, 109.778 224 C 114.922 234.587, 128.441 248.092, 139 253.193 C 149.909 258.463, 157.807 260.304, 169.500 260.304 C 184.671 260.304, 198.275 255.915, 209.374 247.440 L 214.159 243.787 223.445 252.894 C 228.552 257.902, 233.209 262, 233.794 262 C 235.169 262, 238 259.169, 238 257.794 C 238 257.209, 233.902 252.552, 228.894 247.445 L 219.787 238.159 223.440 233.374 C 231.915 222.275, 236.304 208.671, 236.304 193.500 C 236.304 174.166, 230.551 160.473, 216.539 146.461 C 202.540 132.462, 188.859 126.709, 169.500 126.681 C 154.294 126.660, 140.822 131.010, 129.628 139.558 L 124.845 143.210 116.051 134.605 C 111.215 129.872, 106.782 126, 106.200 126 C 105.619 126, 104.436 126.707, 103.571 127.571 M 319.102 127.104 C 293.616 130.977, 271.059 151.543, 264.374 177 C 262.114 185.608, 262.133 201.372, 264.414 210 C 267.688 222.381, 272.580 230.659, 282.461 240.535 C 289.488 247.559, 293.169 250.376, 299 253.193 C 309.909 258.463, 317.807 260.304, 329.500 260.304 C 348.834 260.304, 362.527 254.551, 376.539 240.539 C 390.551 226.527, 396.304 212.834, 396.304 193.500 C 396.304 181.743, 394.451 173.760, 389.222 163 C 384.088 152.433, 370.567 138.912, 360 133.778 C 347.072 127.496, 332.343 125.092, 319.102 127.104 M 479.102 127.104 C 453.616 130.977, 431.059 151.543, 424.374 177 C 422.114 185.608, 422.133 201.372, 424.414 210 C 427.688 222.381, 432.580 230.659, 442.461 240.535 C 449.488 247.559, 453.169 250.376, 459 253.193 C 469.909 258.463, 477.807 260.304, 489.500 260.304 C 508.834 260.304, 522.527 254.551, 536.539 240.539 C 550.551 226.527, 556.304 212.834, 556.304 193.500 C 556.304 181.743, 554.451 173.760, 549.222 163 C 544.088 152.433, 530.567 138.912, 520 133.778 C 507.072 127.496, 492.343 125.092, 479.102 127.104 M 154.773 135.555 C 148.453 137.087, 140.826 140.675, 134.133 145.263 L 129.766 148.257 172.110 190.610 L 214.454 232.963 216.690 230.232 C 220.641 225.403, 225.912 214.477, 227.463 207.897 C 229.390 199.718, 229.390 187.282, 227.463 179.103 C 222.662 158.739, 204.261 140.338, 183.897 135.537 C 176.043 133.686, 162.449 133.694, 154.773 135.555 M 314.645 135.584 C 294.562 140.445, 276.305 158.877, 271.537 179.103 C 266.672 199.742, 272.569 220.600, 287.484 235.516 C 302.400 250.431, 323.258 256.328, 343.897 251.463 C 364.261 246.662, 382.662 228.261, 387.463 207.897 C 389.390 199.718, 389.390 187.282, 387.463 179.103 C 382.662 158.739, 364.261 140.338, 343.897 135.537 C 335.998 133.676, 322.439 133.697, 314.645 135.584 M 474.645 135.584 C 454.562 140.445, 436.305 158.877, 431.537 179.103 C 426.672 199.742, 432.569 220.600, 447.484 235.516 C 462.400 250.431, 483.258 256.328, 503.897 251.463 C 524.261 246.662, 542.662 228.261, 547.463 207.897 C 549.390 199.718, 549.390 187.282, 547.463 179.103 C 542.662 158.739, 524.261 140.338, 503.897 135.537 C 495.998 133.676, 482.439 133.697, 474.645 135.584 M 121.263 158.133 C 113.425 169.565, 110.030 180.256, 110.030 193.500 C 110.030 210.078, 115.703 223.734, 127.484 235.516 C 142.400 250.431, 163.258 256.328, 183.897 251.463 C 190.477 249.912, 201.403 244.641, 206.232 240.690 L 208.963 238.454 166.610 196.110 L 124.257 153.766 121.263 158.133 M 39.571 159.571 C 38.707 160.436, 38 161.529, 38 162 C 38 163.111, 40.889 166, 42 166 C 43.111 166, 46 163.111, 46 162 C 46 160.889, 43.111 158, 42 158 C 41.529 158, 40.436 158.707, 39.571 159.571 M 455.282 175.282 C 445.777 184.787, 438 193.210, 438 194 C 438 195.693, 472.031 230, 473.710 230 C 475.173 230, 478 227.200, 478 225.751 C 478 225.143, 471.156 217.750, 462.792 209.323 L 447.584 194 462.792 178.677 C 471.156 170.250, 478 162.857, 478 162.249 C 478 160.800, 475.173 158, 473.710 158 C 473.079 158, 464.787 165.777, 455.282 175.282 M 7.571 191.571 C 6.707 192.436, 6 193.529, 6 194 C 6 194.471, 6.707 195.564, 7.571 196.429 C 8.936 197.793, 13.463 198, 42 198 C 70.537 198, 75.064 197.793, 76.429 196.429 C 77.293 195.564, 78 194.471, 78 194 C 78 193.529, 77.293 192.436, 76.429 191.571 C 75.064 190.207, 70.537 190, 42 190 C 13.463 190, 8.936 190.207, 7.571 191.571 M 295.571 207.571 C 294.707 208.436, 294 209.659, 294 210.290 C 294 211.969, 328.307 246, 330 246 C 331.693 246, 366 211.969, 366 210.290 C 366 208.827, 363.200 206, 361.751 206 C 361.143 206, 353.750 212.844, 345.323 221.208 L 330 236.416 314.677 221.208 C 306.250 212.844, 298.857 206, 298.249 206 C 297.640 206, 296.436 206.707, 295.571 207.571 M 39.571 223.571 C 38.707 224.436, 38 225.529, 38 226 C 38 227.111, 40.889 230, 42 230 C 43.111 230, 46 227.111, 46 226 C 46 224.889, 43.111 222, 42 222 C 41.529 222, 40.436 222.707, 39.571 223.571 " stroke="none" fill="black" fill-rule="evenodd"/>
</svg>