<svg xmlns="http://www.w3.org/2000/svg" width="403" height="324" viewBox="0 0 403 324" version="1.1">
	<path d="M 103.571 127.571 C 102.707 128.436, 102 129.619, 102 130.200 C 102 130.782, 105.882 135.225, 110.627 140.074 L 119.255 148.891 116.261 152.695 C 100.371 172.890, 97.870 202.734, 110.202 225 C 119.414 241.633, 135.505 254.178, 153.289 258.594 C 161.737 260.692, 174.878 260.896, 183.500 259.064 C 191.013 257.468, 202.606 252.194, 209.132 247.403 L 214.116 243.745 223.423 252.872 C 228.542 257.893, 233.151 262, 233.665 262 C 235.123 262, 237 259.765, 237 258.029 C 237 257.165, 233.001 252.478, 228.114 247.614 L 219.228 238.769 223.489 232.635 C 232.442 219.746, 236 208.615, 236 193.500 C 236 174.777, 229.803 159.835, 216.500 146.481 C 201.193 131.116, 181.376 124.213, 160.687 127.041 C 148.097 128.762, 139.804 132.395, 125.428 142.489 C 124.352 143.244, 121.944 141.411, 115.240 134.739 C 110.411 129.932, 106.164 126, 105.802 126 C 105.439 126, 104.436 126.707, 103.571 127.571 M 319.531 127.067 C 302.235 129.721, 286.518 138.934, 276.341 152.383 C 260.522 173.287, 257.712 199.896, 268.936 222.500 C 279.447 243.668, 297.642 256.802, 320.862 259.981 C 345.183 263.311, 370.807 251.597, 384.607 230.839 C 400.745 206.563, 399.476 174.674, 381.456 151.715 C 367.382 133.783, 341.888 123.635, 319.531 127.067 M 154.072 135.591 C 147.206 137.437, 137.538 142.211, 133 145.998 L 129.500 148.918 171.496 190.959 C 194.593 214.081, 213.738 233, 214.039 233 C 214.341 233, 216.699 229.811, 219.280 225.914 C 238.757 196.504, 227.477 155.267, 195.820 140.153 C 191.244 137.968, 185.115 135.690, 182.201 135.090 C 174.879 133.584, 160.591 133.838, 154.072 135.591 M 314 135.524 C 290.922 141.860, 274.135 160.555, 270.266 184.230 C 268.865 192.800, 268.868 194.580, 270.290 203.016 C 274.326 226.952, 291.592 245.721, 314.988 251.606 C 323.829 253.829, 340.071 253.068, 348.723 250.024 C 362.903 245.035, 375.475 233.929, 382.055 220.577 C 391.080 202.265, 391.080 184.735, 382.055 166.423 C 375.478 153.078, 362.927 141.986, 348.723 136.966 C 340.510 134.064, 322.103 133.299, 314 135.524 M 311.239 159.260 C 301.758 168.754, 294 177.288, 294 178.225 C 294 179.163, 294.942 180.434, 296.094 181.050 C 297.988 182.064, 299.674 180.694, 313.850 166.617 L 329.514 151.064 345.159 166.620 C 359.334 180.713, 361.001 182.070, 362.902 181.052 C 364.056 180.435, 365 179.153, 365 178.204 C 365 176.410, 331.239 142, 329.479 142 C 328.929 142, 320.721 149.767, 311.239 159.260 M 121.110 158.158 C 113.547 168.424, 110 179.709, 110 193.500 C 110 210.969, 115.024 223.042, 127.489 235.521 C 136.124 244.166, 143.724 248.651, 154.495 251.457 C 161.397 253.254, 174.614 253.471, 182.201 251.910 C 188.158 250.685, 202.077 244.214, 206.232 240.739 L 208.963 238.454 166.635 196.135 L 124.308 153.817 121.110 158.158 M 39.571 159.571 C 38.707 160.436, 38 161.529, 38 162 C 38 163.111, 40.889 166, 42 166 C 43.111 166, 46 163.111, 46 162 C 46 160.889, 43.111 158, 42 158 C 41.529 158, 40.436 158.707, 39.571 159.571 M 7.585 191.558 C 5.595 193.548, 5.595 194.452, 7.585 196.442 C 8.978 197.835, 13.159 197.995, 42.226 197.763 C 72.452 197.523, 75.377 197.350, 76.386 195.750 C 77.191 194.474, 77.191 193.526, 76.386 192.250 C 75.377 190.650, 72.452 190.477, 42.226 190.237 C 13.159 190.005, 8.978 190.165, 7.585 191.558 M 39.571 223.571 C 38.707 224.436, 38 225.529, 38 226 C 38 227.111, 40.889 230, 42 230 C 43.111 230, 46 227.111, 46 226 C 46 224.889, 43.111 222, 42 222 C 41.529 222, 40.436 222.707, 39.571 223.571 " stroke="none" fill="black" fill-rule="evenodd"/>
</svg>