<svg xmlns="http://www.w3.org/2000/svg" width="372" height="324" viewBox="0 0 372 324" version="1.1">
	<path d="M 135.200 127.200 C 134.292 128.108, 134 143.689, 134 191.200 L 134 254 103.571 254 C 77.242 254, 72.931 254.212, 71.571 255.571 C 69.598 257.545, 69.598 258.455, 71.571 260.429 C 72.968 261.825, 80.372 262, 138 262 C 195.628 262, 203.032 261.825, 204.429 260.429 C 206.402 258.455, 206.402 257.545, 204.429 255.571 C 203.069 254.212, 198.758 254, 172.429 254 L 142 254 142 226 L 142 198 172.429 198 C 198.758 198, 203.069 197.788, 204.429 196.429 C 205.793 195.064, 206 190.537, 206 162 C 206 133.463, 205.793 128.936, 204.429 127.571 C 203.063 126.206, 198.503 126, 169.629 126 C 145.117 126, 136.085 126.315, 135.200 127.200 M 287.102 127.108 C 261.640 130.961, 239.155 151.450, 232.349 177 C 230.078 185.527, 230.091 201.277, 232.377 210 C 235.584 222.236, 240.558 230.636, 250.461 240.539 C 264.528 254.606, 278.138 260.333, 297.500 260.333 C 316.862 260.333, 330.472 254.606, 344.539 240.539 C 358.606 226.472, 364.333 212.862, 364.333 193.500 C 364.333 174.138, 358.606 160.528, 344.539 146.461 C 334.823 136.745, 326.203 131.569, 314.831 128.621 C 307.080 126.612, 294.806 125.942, 287.102 127.108 M 142 162 L 142 190 170 190 L 198 190 198 162 L 198 134 170 134 L 142 134 142 162 M 282.645 135.584 C 262.671 140.419, 244.279 158.986, 239.537 179.103 C 234.672 199.742, 240.569 220.600, 255.484 235.516 C 270.400 250.431, 291.258 256.328, 311.897 251.463 C 332.261 246.662, 350.662 228.261, 355.463 207.897 C 357.390 199.718, 357.390 187.282, 355.463 179.103 C 350.662 158.739, 332.261 140.338, 311.897 135.537 C 303.998 133.676, 290.439 133.697, 282.645 135.584 M 279.282 159.282 C 269.777 168.787, 262 177.079, 262 177.710 C 262 179.173, 264.800 182, 266.249 182 C 266.857 182, 274.250 175.156, 282.677 166.792 L 298 151.584 313.323 166.792 C 321.750 175.156, 329.143 182, 329.751 182 C 331.200 182, 334 179.173, 334 177.710 C 334 176.031, 299.693 142, 298 142 C 297.210 142, 288.787 149.777, 279.282 159.282 M 7.571 191.571 C 5.243 193.900, 5.243 226.100, 7.571 228.429 C 8.801 229.658, 11.433 230, 19.671 230 L 30.200 230 33.600 233.400 C 36.478 236.278, 37 237.504, 37 241.384 C 37 250.249, 30.959 253.927, 16.321 253.976 C 9.433 253.999, 6 255.338, 6 258 C 6 262.710, 22.070 263.744, 31.221 259.623 C 34.125 258.316, 37.508 256.278, 38.739 255.094 C 47.079 247.078, 46.009 232.656, 36.595 226.206 C 32.121 223.140, 27.692 222, 20.257 222 L 14 222 14 210 L 14 198 28.429 198 C 40.212 198, 43.145 197.712, 44.429 196.429 C 46.402 194.455, 46.402 193.545, 44.429 191.571 C 43.124 190.267, 39.991 190, 26 190 C 12.009 190, 8.876 190.267, 7.571 191.571 " stroke="none" fill="black" fill-rule="evenodd"/>
</svg>