<svg xmlns="http://www.w3.org/2000/svg" width="436" height="324" viewBox="0 0 436 324" version="1.1">
	<path d="M 71.200 127.200 C 70.292 128.108, 70 143.689, 70 191.200 L 70 254 39.571 254 C 13.242 254, 8.931 254.212, 7.571 255.571 C 5.598 257.545, 5.598 258.455, 7.571 260.429 C 8.968 261.825, 16.372 262, 74 262 C 131.628 262, 139.032 261.825, 140.429 260.429 C 142.402 258.455, 142.402 257.545, 140.429 255.571 C 139.069 254.212, 134.758 254, 108.429 254 L 78 254 78 226 L 78 198 108.429 198 C 134.758 198, 139.069 197.788, 140.429 196.429 C 141.793 195.064, 142 190.537, 142 162 C 142 133.463, 141.793 128.936, 140.429 127.571 C 139.063 126.206, 134.503 126, 105.629 126 C 81.117 126, 72.085 126.315, 71.200 127.200 M 361 189.500 C 326.078 224.425, 297.130 253, 296.671 253 C 296.212 253, 293.929 254.563, 291.598 256.473 C 289.267 258.383, 284.692 261.195, 281.430 262.723 C 276.127 265.206, 274.389 265.500, 265 265.500 C 255.266 265.500, 254.008 265.267, 247.759 262.307 C 243.377 260.231, 239.395 257.352, 236.380 254.078 C 221.586 238.018, 199.385 233.902, 179.500 243.534 C 173.263 246.554, 164 253.935, 164 255.884 C 164 256.288, 164.626 257.473, 165.390 258.519 C 167.065 260.809, 168.831 260.095, 176.426 254.055 C 187.423 245.310, 204.852 243.463, 218.045 249.644 C 222.295 251.635, 226.774 254.922, 231.159 259.267 C 234.821 262.897, 239.546 266.735, 241.659 267.796 C 258.162 276.087, 276.356 275.231, 291.656 265.443 L 297.039 262 361.769 261.985 C 397.371 261.976, 427.072 261.606, 427.772 261.162 C 428.780 260.522, 429.044 246.603, 429.044 194 C 429.044 126.199, 429.037 126.069, 425.497 126.015 C 424.945 126.007, 395.922 154.575, 361 189.500 M 78 162 L 78 190 106 190 L 134 190 134 162 L 134 134 106 134 L 78 134 78 162 M 364.733 196.081 L 307.966 253.500 364.641 253.758 C 395.813 253.900, 421.474 253.859, 421.667 253.667 C 421.859 253.474, 421.900 227.520, 421.758 195.990 L 421.500 138.663 364.733 196.081 " stroke="none" fill="black" fill-rule="evenodd"/>
</svg>