<svg xmlns="http://www.w3.org/2000/svg" width="595" height="324" viewBox="0 0 595 324" version="1.1">
	<path d="M 455.750 159.082 C 454.788 159.642, 454 160.858, 454 161.786 C 454 162.714, 459.956 169.442, 467.236 176.737 L 480.472 190 421.170 190 C 382.204 190, 361.205 190.355, 359.934 191.035 C 358.870 191.605, 358 192.939, 358 194 C 358 195.061, 358.870 196.395, 359.934 196.965 C 361.205 197.645, 382.204 198, 421.170 198 L 480.472 198 467.236 211.263 C 459.956 218.558, 454 225.292, 454 226.228 C 454 227.164, 454.954 228.440, 456.120 229.064 C 458.049 230.097, 459.785 228.687, 475.471 213.349 C 485.859 203.191, 492.762 195.679, 492.851 194.432 C 492.955 192.986, 487.880 187.274, 475.968 175.432 C 466.600 166.120, 458.613 158.402, 458.218 158.282 C 457.823 158.162, 456.712 158.522, 455.750 159.082 M 7.571 191.571 C 6.707 192.436, 6 193.640, 6 194.249 C 6 194.857, 12.844 202.250, 21.208 210.677 L 36.416 226 21.208 241.323 C 12.844 249.750, 6 257.143, 6 257.751 C 6 259.181, 8.819 262, 10.249 262 C 10.857 262, 18.250 255.156, 26.677 246.792 L 42 231.584 57.323 246.792 C 65.750 255.156, 73.143 262, 73.751 262 C 75.181 262, 78 259.181, 78 257.751 C 78 257.143, 71.156 249.750, 62.792 241.323 L 47.584 226 62.792 210.677 C 71.156 202.250, 78 194.857, 78 194.249 C 78 192.819, 75.181 190, 73.751 190 C 73.143 190, 65.750 196.844, 57.323 205.208 L 42 220.416 26.677 205.208 C 18.250 196.844, 10.857 190, 10.249 190 C 9.640 190, 8.436 190.707, 7.571 191.571 M 103.571 191.571 C 102.707 192.436, 102 193.640, 102 194.249 C 102 194.857, 108.844 202.250, 117.208 210.677 L 132.416 226 117.208 241.323 C 108.844 249.750, 102 257.143, 102 257.751 C 102 259.181, 104.819 262, 106.249 262 C 106.857 262, 114.250 255.156, 122.677 246.792 L 138 231.584 153.323 246.792 C 161.750 255.156, 169.085 262, 169.623 262 C 171.244 262, 173 259.725, 173 257.625 C 173 256.420, 167.267 249.871, 158.293 240.825 L 143.586 226 158.293 211.175 C 167.267 202.129, 173 195.580, 173 194.375 C 173 192.275, 171.244 190, 169.623 190 C 169.085 190, 161.750 196.844, 153.323 205.208 L 138 220.416 122.677 205.208 C 114.250 196.844, 106.857 190, 106.249 190 C 105.640 190, 104.436 190.707, 103.571 191.571 M 519.750 191.073 C 517.413 192.444, 517.527 195.677, 519.960 196.979 C 521.243 197.665, 533.208 197.936, 554.601 197.764 C 584.469 197.523, 587.378 197.349, 588.386 195.750 C 589.191 194.474, 589.191 193.526, 588.386 192.250 C 587.377 190.649, 584.483 190.481, 554.391 190.273 C 533.280 190.127, 520.873 190.414, 519.750 191.073 M 375.315 239.213 C 365.792 248.680, 358 257.134, 358 258 C 358 259.680, 391.953 294, 393.615 294 C 395.114 294, 397 291.791, 397 290.036 C 397 289.175, 391.143 282.628, 383.985 275.486 L 370.970 262.500 431.126 262 C 487.013 261.535, 491.361 261.376, 492.386 259.750 C 493.191 258.474, 493.191 257.526, 492.386 256.250 C 491.361 254.624, 487.013 254.465, 431.126 254 L 370.970 253.500 383.985 240.514 C 391.143 233.372, 397 226.825, 397 225.964 C 397 224.209, 395.114 222, 393.615 222 C 393.073 222, 384.838 229.746, 375.315 239.213 M 223.500 239.118 C 216.461 240.524, 205.266 246.209, 200.250 250.924 C 195.704 255.198, 195.097 257.006, 197.530 259.025 C 199.407 260.583, 201.377 259.674, 208.500 253.964 C 215.611 248.263, 224.713 245.629, 235.374 246.189 C 246.658 246.781, 254.390 250.441, 263.159 259.340 C 277.573 273.969, 298.185 277.640, 316.943 268.920 C 329.276 263.186, 334.761 256.747, 329.903 253.704 C 328.674 252.934, 327.052 253.651, 322.858 256.818 C 314.615 263.041, 308.754 265.285, 299.409 265.793 C 285.989 266.524, 275.829 262.560, 267.766 253.449 C 257.875 242.272, 238.734 236.075, 223.500 239.118 M 519.750 255.073 C 517.413 256.444, 517.527 259.677, 519.960 260.979 C 521.243 261.665, 533.208 261.936, 554.601 261.764 C 584.469 261.523, 587.378 261.349, 588.386 259.750 C 589.191 258.474, 589.191 257.526, 588.386 256.250 C 587.377 254.649, 584.483 254.481, 554.391 254.273 C 533.280 254.127, 520.873 254.414, 519.750 255.073 " stroke="none" fill="black" fill-rule="evenodd"/>
</svg>