<svg xmlns="http://www.w3.org/2000/svg" width="372" height="324" viewBox="0 0 372 324" version="1.1">
	<path d="M 183.213 143.315 C 173.746 152.838, 166 161.131, 166 161.743 C 166 163.175, 168.813 166, 170.239 166 C 170.841 166, 177.334 160.059, 184.667 152.798 L 198 139.595 198 199.226 C 198 252.103, 198.178 259.035, 199.571 260.429 C 200.436 261.293, 201.529 262, 202 262 C 202.471 262, 203.564 261.293, 204.429 260.429 C 205.822 259.035, 206 252.103, 206 199.226 L 206 139.595 219.333 152.798 C 226.666 160.059, 233.159 166, 233.761 166 C 235.187 166, 238 163.175, 238 161.743 C 238 159.994, 203.761 126, 202 126 C 201.134 126, 192.680 133.792, 183.213 143.315 M 263.571 127.571 C 262.178 128.965, 262 135.897, 262 188.774 L 262 248.405 248.667 235.202 C 241.334 227.941, 234.841 222, 234.239 222 C 232.813 222, 230 224.825, 230 226.257 C 230 228.006, 264.239 262, 266 262 C 267.761 262, 302 228.006, 302 226.257 C 302 224.825, 299.187 222, 297.761 222 C 297.159 222, 290.666 227.941, 283.333 235.202 L 270 248.405 270 188.774 C 270 135.897, 269.822 128.965, 268.429 127.571 C 267.564 126.707, 266.471 126, 266 126 C 265.529 126, 264.436 126.707, 263.571 127.571 M 327.571 159.571 C 326.227 160.916, 326 164.736, 326 186 C 326 207.264, 326.227 211.084, 327.571 212.429 C 328.436 213.293, 329.529 214, 330 214 C 330.471 214, 331.564 213.293, 332.429 212.429 C 333.773 211.084, 334 207.264, 334 186 C 334 164.736, 333.773 160.916, 332.429 159.571 C 331.564 158.707, 330.471 158, 330 158 C 329.529 158, 328.436 158.707, 327.571 159.571 M 327.571 222.571 C 326.707 223.436, 326 224.529, 326 225 C 326 226.111, 328.889 229, 330 229 C 331.111 229, 334 226.111, 334 225 C 334 223.889, 331.111 221, 330 221 C 329.529 221, 328.436 221.707, 327.571 222.571 M 7.571 255.571 C 6.707 256.436, 6 257.529, 6 258 C 6 258.471, 6.707 259.564, 7.571 260.429 C 8.968 261.825, 16.372 262, 74 262 C 131.628 262, 139.032 261.825, 140.429 260.429 C 141.293 259.564, 142 258.471, 142 258 C 142 257.529, 141.293 256.436, 140.429 255.571 C 139.032 254.175, 131.628 254, 74 254 C 16.372 254, 8.968 254.175, 7.571 255.571 " stroke="none" fill="black" fill-rule="evenodd"/>
</svg>