<svg xmlns="http://www.w3.org/2000/svg" width="308" height="324" viewBox="0 0 308 324" version="1.1">
	<path d="M 119.571 159.571 C 118.315 160.828, 118 163.580, 118 173.290 L 118 185.437 112.221 179.719 C 109.043 176.573, 106.150 174, 105.792 174 C 104.759 174, 102 177.040, 102 178.178 C 102 178.747, 105.226 182.540, 109.169 186.607 L 116.338 194 109.169 201.393 C 105.226 205.460, 102 209.253, 102 209.822 C 102 210.960, 104.759 214, 105.792 214 C 106.150 214, 109.043 211.427, 112.221 208.281 L 118 202.563 118 214.710 C 118 224.420, 118.315 227.172, 119.571 228.429 C 121.457 230.315, 122.219 230.381, 123.800 228.800 C 124.605 227.995, 125 223.500, 125 215.148 L 125 202.696 130.926 208.348 C 137.212 214.344, 137.907 214.693, 139.800 212.800 C 142.049 210.551, 141.003 208.550, 133.775 201.274 L 126.550 194 133.775 186.726 C 141.003 179.450, 142.049 177.449, 139.800 175.200 C 137.907 173.307, 137.212 173.656, 130.926 179.652 L 125 185.304 125 172.852 C 125 164.500, 124.605 160.005, 123.800 159.200 C 122.219 157.619, 121.457 157.685, 119.571 159.571 M 7.571 191.571 C 6.707 192.436, 6 193.640, 6 194.249 C 6 194.857, 12.844 202.250, 21.208 210.677 L 36.416 226 21.208 241.323 C 12.844 249.750, 6 257.143, 6 257.751 C 6 259.181, 8.819 262, 10.249 262 C 10.857 262, 18.250 255.156, 26.677 246.792 L 42 231.584 57.323 246.792 C 65.750 255.156, 73.085 262, 73.623 262 C 75.244 262, 77 259.725, 77 257.625 C 77 256.420, 71.267 249.871, 62.293 240.825 L 47.586 226 62.293 211.175 C 71.267 202.129, 77 195.580, 77 194.375 C 77 192.275, 75.244 190, 73.623 190 C 73.085 190, 65.750 196.844, 57.323 205.208 L 42 220.416 26.677 205.208 C 18.250 196.844, 10.857 190, 10.249 190 C 9.640 190, 8.436 190.707, 7.571 191.571 M 167.750 191.080 C 164.561 192.937, 166.508 207.680, 171.510 219.557 L 174.061 225.614 171.595 231.189 C 168.811 237.483, 166 249.912, 166 255.923 C 166 258.980, 166.502 260.198, 168.117 261.062 C 171.351 262.793, 172.654 260.620, 173.851 251.500 C 174.428 247.100, 175.665 241.143, 176.599 238.261 L 178.296 233.023 185.522 240.261 C 189.495 244.243, 195.283 249.020, 198.382 250.877 C 211.202 258.560, 226.979 261.920, 241.138 259.981 C 257.006 257.808, 269.073 251.810, 280.697 240.318 L 287.961 233.135 289.985 239.686 C 291.098 243.289, 292.298 249.353, 292.652 253.162 C 293.360 260.785, 295.158 263.067, 298.518 260.611 C 301.225 258.631, 300.035 246.635, 296.013 235.355 C 294.276 230.485, 292.855 226.050, 292.855 225.500 C 292.855 224.950, 294.265 220.547, 295.989 215.715 C 299.981 204.522, 301.147 193.312, 298.519 191.390 C 295.234 188.988, 293.355 191.232, 292.617 198.436 C 292.249 202.021, 291.026 207.941, 289.899 211.592 L 287.849 218.230 282.886 212.661 C 268.934 197.008, 246.083 188.321, 225.721 190.930 C 209.248 193.040, 197.172 198.969, 185.459 210.699 L 178.271 217.897 176.591 212.699 C 175.667 209.839, 174.442 204.125, 173.869 200 C 172.550 190.516, 171.457 188.921, 167.750 191.080 M 218.072 199.532 C 207.418 202.512, 199.923 206.996, 191.250 215.579 C 186.713 220.069, 183 224.534, 183 225.500 C 183 226.466, 186.713 230.925, 191.250 235.409 C 203.732 247.742, 216.212 253, 233 253 C 247.037 253, 258.343 249.194, 269.587 240.683 C 275.697 236.058, 283 227.752, 283 225.428 C 283 222.743, 273.639 212.903, 266.617 208.206 C 255.830 200.992, 248.918 198.846, 235 198.390 C 226.770 198.121, 221.957 198.445, 218.072 199.532 " stroke="none" fill="black" fill-rule="evenodd"/>
</svg>