<svg xmlns="http://www.w3.org/2000/svg" width="564" height="324" viewBox="0 0 564 324" version="1.1">
	<path d="M 519.282 79.282 C 509.777 88.787, 502 97.210, 502 98 C 502 99.693, 536.031 134, 537.710 134 C 539.173 134, 542 131.200, 542 129.751 C 542 129.143, 535.156 121.750, 526.792 113.323 L 511.584 98 526.792 82.677 C 535.156 74.250, 542 66.857, 542 66.249 C 542 64.800, 539.173 62, 537.710 62 C 537.079 62, 528.787 69.777, 519.282 79.282 M 421.242 96.694 C 416.843 102.948, 415.633 106.466, 415.633 113 C 415.633 117.197, 416.239 120.652, 417.342 122.750 L 419.051 126 405.670 126 L 392.289 126 385.608 132.122 C 373.806 142.937, 365.219 157.313, 360.894 173.500 C 359.274 179.564, 358.757 184.404, 358.757 193.500 C 358.757 217.690, 367.862 238.351, 385.980 255.274 L 393.181 262 457.974 262 L 522.767 262 530.041 254.525 C 539.256 245.056, 543.251 239.521, 548.105 229.500 C 554.108 217.105, 556.243 207.661, 556.243 193.500 C 556.243 184.404, 555.726 179.564, 554.106 173.500 C 549.886 157.707, 541.609 143.660, 529.946 132.500 L 523.676 126.500 507.693 126 L 491.709 125.500 489.605 122.677 C 487.951 120.458, 487.500 118.404, 487.500 113.091 C 487.500 107.293, 487.904 105.746, 490.337 102.235 C 493.874 97.131, 493.588 94.500, 489.496 94.500 C 486.972 94.500, 486.045 95.295, 483.390 99.739 C 478.613 107.733, 478.008 116.038, 481.676 123.282 L 483.085 126.064 471.398 125.782 C 459.879 125.504, 459.681 125.460, 457.605 122.677 C 455.951 120.458, 455.500 118.406, 455.500 113.091 C 455.500 107.293, 455.904 105.746, 458.337 102.235 C 461.874 97.131, 461.588 94.500, 457.496 94.500 C 454.972 94.500, 454.045 95.295, 451.390 99.739 C 446.613 107.733, 446.008 116.038, 449.676 123.282 L 451.085 126.064 439.398 125.782 C 427.879 125.504, 427.681 125.460, 425.605 122.677 C 423.951 120.458, 423.500 118.406, 423.500 113.091 C 423.500 107.293, 423.904 105.746, 426.337 102.235 C 429.709 97.369, 429.543 94.623, 425.849 94.194 C 423.899 93.967, 422.704 94.616, 421.242 96.694 M 387.107 140.905 C 372.998 155.652, 366.035 173.031, 366.035 193.500 C 366.035 214.391, 373.246 232.035, 387.766 246.674 L 395.032 254 457.467 254 L 519.902 254 526.826 247.171 C 540.534 233.652, 547.867 216.838, 548.707 197 C 549.657 174.551, 542.972 156.522, 527.893 140.861 L 521.287 134 457.500 134 L 393.714 134 387.107 140.905 M 119.571 159.571 C 118.324 160.819, 118 163.528, 118 172.716 L 118 184.290 112.560 179.145 C 109.568 176.315, 106.675 174, 106.131 174 C 104.829 174, 102 176.861, 102 178.178 C 102 178.747, 105.226 182.540, 109.169 186.607 L 116.338 194 109.169 201.393 C 105.226 205.460, 102 209.253, 102 209.822 C 102 211.139, 104.829 214, 106.131 214 C 106.675 214, 109.568 211.685, 112.560 208.855 L 118 203.710 118 215.284 C 118 224.472, 118.324 227.181, 119.571 228.429 C 121.545 230.402, 122.455 230.402, 124.429 228.429 C 125.676 227.181, 126 224.472, 126 215.284 L 126 203.710 131.440 208.855 C 134.432 211.685, 137.325 214, 137.869 214 C 139.171 214, 142 211.139, 142 209.822 C 142 209.253, 138.774 205.460, 134.831 201.393 L 127.662 194 134.831 186.607 C 138.774 182.540, 142 178.747, 142 178.178 C 142 176.861, 139.171 174, 137.869 174 C 137.325 174, 134.432 176.315, 131.440 179.145 L 126 184.290 126 172.716 C 126 163.528, 125.676 160.819, 124.429 159.571 C 123.564 158.707, 122.471 158, 122 158 C 121.529 158, 120.436 158.707, 119.571 159.571 M 7.571 191.571 C 6.707 192.436, 6 193.640, 6 194.249 C 6 194.857, 12.844 202.250, 21.208 210.677 L 36.416 226 21.208 241.323 C 12.844 249.750, 6 257.143, 6 257.751 C 6 259.181, 8.819 262, 10.249 262 C 10.857 262, 18.250 255.156, 26.677 246.792 L 42 231.584 57.323 246.792 C 65.750 255.156, 73.143 262, 73.751 262 C 75.181 262, 78 259.181, 78 257.751 C 78 257.143, 71.156 249.750, 62.792 241.323 L 47.584 226 62.792 210.677 C 71.156 202.250, 78 194.857, 78 194.249 C 78 192.819, 75.181 190, 73.751 190 C 73.143 190, 65.750 196.844, 57.323 205.208 L 42 220.416 26.677 205.208 C 18.250 196.844, 10.857 190, 10.249 190 C 9.640 190, 8.436 190.707, 7.571 191.571 M 167.571 191.571 C 166.707 192.436, 166 193.529, 166 194 C 166 194.471, 166.707 195.564, 167.571 196.429 C 168.844 197.701, 171.697 198, 182.576 198 L 196.009 198 185.110 219.750 C 179.115 231.713, 173.221 242.625, 172.010 244 C 166.953 249.744, 164.772 257.629, 167.489 260.346 C 170.490 263.347, 171.808 262.364, 176 254 C 177.792 250.425, 179.762 247.169, 180.379 246.765 C 180.996 246.361, 183.457 246.024, 185.850 246.015 C 189.474 246.003, 190.767 246.567, 193.600 249.400 C 195.970 251.770, 197 253.718, 197 255.829 C 197 258.700, 199.139 262, 201 262 C 203.415 262, 205.145 258.586, 204.497 255.096 C 202.904 246.519, 196.404 240.045, 187.804 238.473 L 184.108 237.798 192.791 220.399 C 197.566 210.829, 201.715 203, 202.010 203 C 202.305 203, 209.102 216.162, 217.114 232.250 C 230.084 258.293, 231.942 261.500, 234.058 261.500 C 236.012 261.500, 237.037 260.255, 239.817 254.500 C 241.676 250.650, 243.716 247.169, 244.349 246.765 C 244.982 246.361, 247.457 246.024, 249.850 246.015 C 253.474 246.003, 254.767 246.567, 257.600 249.400 C 259.970 251.770, 261 253.718, 261 255.829 C 261 258.700, 263.139 262, 265 262 C 267.415 262, 269.145 258.586, 268.497 255.096 C 266.904 246.519, 260.404 240.045, 251.804 238.473 L 248.108 237.798 256.791 220.399 C 261.566 210.829, 265.711 203, 266.001 203 C 266.291 203, 272.822 215.661, 280.514 231.136 C 293.965 258.196, 296.120 262, 298 262 C 299.861 262, 302 258.700, 302 255.829 C 302 253.718, 303.030 251.770, 305.400 249.400 C 308.302 246.498, 309.488 246, 313.500 246 C 317.512 246, 318.698 246.498, 321.600 249.400 C 323.970 251.770, 325 253.718, 325 255.829 C 325 258.700, 327.139 262, 329 262 C 329.471 262, 330.601 261.256, 331.511 260.346 C 335.184 256.673, 330.197 245.372, 323.057 241.188 C 315.287 236.634, 306.348 237.925, 299.714 244.559 C 298.205 246.068, 296.802 247.122, 296.596 246.902 C 296.391 246.681, 290.771 235.588, 284.107 222.250 L 271.992 198 285.425 198 C 296.303 198, 299.156 197.701, 300.429 196.429 C 301.293 195.564, 302 194.471, 302 194 C 302 193.529, 301.293 192.436, 300.429 191.571 C 299.032 190.175, 291.628 190, 234 190 C 176.372 190, 168.968 190.175, 167.571 191.571 M 220.107 222.250 C 226.771 235.588, 232.416 246.706, 232.652 246.957 C 233.884 248.270, 239.320 239.282, 249.109 219.750 L 260.009 198 234 198 L 207.992 198 220.107 222.250 " stroke="none" fill="black" fill-rule="evenodd"/>
</svg>