<svg xmlns="http://www.w3.org/2000/svg" width="403" height="324" viewBox="0 0 403 324" version="1.1">
	<path d="M 199.750 127.080 C 198.140 128.018, 198 130.700, 198 160.556 L 198 193.012 182 225 C 173.200 242.593, 166 257.650, 166 258.459 C 166 260.786, 169.809 262.404, 171.663 260.865 C 172.507 260.164, 179.622 246.749, 187.474 231.052 L 201.750 202.514 216.313 231.626 C 224.486 247.965, 231.617 261.023, 232.565 261.386 C 234.679 262.198, 237 260.358, 237 257.871 C 237 256.836, 229.800 241.593, 221 224 L 205 192.012 205 160.206 C 205 125.492, 204.787 124.146, 199.750 127.080 M 119.571 159.571 C 118.325 160.818, 118 163.524, 118 172.672 L 118 184.201 112.419 179.100 C 109.350 176.295, 106.457 174, 105.991 174 C 104.801 174, 102 176.932, 102 178.178 C 102 178.747, 105.226 182.540, 109.169 186.607 L 116.338 194 109.169 201.393 C 105.226 205.460, 102 209.253, 102 209.822 C 102 211.068, 104.801 214, 105.991 214 C 106.457 214, 109.350 211.705, 112.419 208.900 L 118 203.799 118 215.328 C 118 224.476, 118.325 227.182, 119.571 228.429 C 121.678 230.535, 122.598 230.412, 124.443 227.777 C 125.622 226.095, 126 222.900, 126 214.632 L 126 203.710 131.440 208.855 C 137.246 214.346, 137.931 214.669, 139.800 212.800 C 142.049 210.551, 141.003 208.550, 133.775 201.274 L 126.550 194 133.775 186.726 C 141.003 179.450, 142.049 177.449, 139.800 175.200 C 137.931 173.331, 137.246 173.654, 131.440 179.145 L 126 184.290 126 173.368 C 126 165.100, 125.622 161.905, 124.443 160.223 C 122.598 157.588, 121.678 157.465, 119.571 159.571 M 288.043 175.139 C 281.142 176.283, 273.040 179.974, 266.357 185.020 C 260.775 189.234, 259.109 192.221, 261.040 194.548 C 262.922 196.816, 264.513 196.317, 269.689 191.835 C 272.335 189.545, 276.975 186.515, 280 185.102 C 284.850 182.837, 286.802 182.532, 296.521 182.517 C 306.925 182.501, 307.905 182.680, 314.021 185.704 C 320.103 188.712, 321.989 190.207, 329.500 197.977 C 331.150 199.684, 335.650 202.631, 339.500 204.527 C 356.371 212.833, 375.014 210.780, 390.778 198.878 C 396.393 194.639, 397.305 191.835, 393.786 189.630 C 392.449 188.792, 391.460 189.046, 389.286 190.788 C 378.114 199.741, 370.939 202.345, 359.017 201.773 C 346.695 201.182, 340.758 198.568, 332.026 189.888 C 323.848 181.759, 314.232 176.666, 304 175.045 C 296.635 173.878, 295.610 173.884, 288.043 175.139 M 7.571 191.571 C 6.707 192.436, 6 193.640, 6 194.249 C 6 194.857, 12.844 202.250, 21.208 210.677 L 36.416 226 21.208 241.323 C 12.844 249.750, 6 257.143, 6 257.751 C 6 259.181, 8.819 262, 10.249 262 C 10.857 262, 18.250 255.156, 26.677 246.792 L 42 231.584 57.323 246.792 C 65.750 255.156, 73.143 262, 73.751 262 C 75.181 262, 78 259.181, 78 257.751 C 78 257.143, 71.156 249.750, 62.792 241.323 L 47.584 226 62.792 210.677 C 71.156 202.250, 78 194.857, 78 194.249 C 78 192.819, 75.181 190, 73.751 190 C 73.143 190, 65.750 196.844, 57.323 205.208 L 42 220.416 26.677 205.208 C 18.250 196.844, 10.857 190, 10.249 190 C 9.640 190, 8.436 190.707, 7.571 191.571 " stroke="none" fill="black" fill-rule="evenodd"/>
</svg>