<svg xmlns="http://www.w3.org/2000/svg" width="660" height="324" viewBox="0 0 660 324" version="1.1">
	<path d="M 264.369 62.765 C 263.416 63.384, 198 193.155, 198 194.426 C 198 194.663, 198.707 195.564, 199.571 196.429 C 200.844 197.701, 203.697 198, 214.575 198 L 228.006 198 213.003 227.994 C 204.751 244.490, 198 258.183, 198 258.422 C 198 258.661, 198.707 259.564, 199.571 260.429 C 200.968 261.825, 208.372 262, 266 262 C 323.628 262, 331.032 261.825, 332.429 260.429 C 333.293 259.564, 334 258.661, 334 258.422 C 334 258.183, 327.249 244.490, 318.997 227.994 L 303.994 198 317.425 198 C 328.303 198, 331.156 197.701, 332.429 196.429 C 333.293 195.564, 334 194.663, 334 194.426 C 334 193.155, 268.584 63.384, 267.631 62.765 C 267.009 62.361, 266.275 62.031, 266 62.031 C 265.725 62.031, 264.991 62.361, 264.369 62.765 M 236.747 132.500 L 208.002 190 220.003 190 L 232.004 190 247.736 158.517 C 256.389 141.202, 264.038 126.816, 264.734 126.549 C 265.430 126.281, 266.570 126.281, 267.266 126.549 C 267.962 126.816, 275.611 141.202, 284.264 158.517 L 299.996 190 311.997 190 L 323.998 190 295.253 132.500 C 279.443 100.875, 266.279 75, 266 75 C 265.721 75, 252.557 100.875, 236.747 132.500 M 39.267 159.267 C 20.970 177.563, 6 193.056, 6 193.695 C 6 195.187, 8.799 198, 10.285 198 C 10.913 198, 25.510 183.943, 42.723 166.762 L 74.019 135.523 103.754 165.258 L 133.489 194.993 117.744 226.501 C 109.085 243.830, 102 258.199, 102 258.433 C 102 258.666, 102.707 259.564, 103.571 260.429 C 104.936 261.793, 109.463 262, 138 262 C 166.537 262, 171.064 261.793, 172.429 260.429 C 173.293 259.564, 174 258.662, 174 258.423 C 174 258.183, 166.800 243.593, 158 226 L 142 194.012 142 161.577 C 142 133.425, 141.793 128.935, 140.429 127.571 C 138.455 125.598, 137.545 125.598, 135.571 127.571 C 134.219 128.924, 134 132.990, 134 156.799 L 134 184.455 104.711 155.227 C 88.602 139.152, 74.772 126, 73.978 126 C 73.183 126, 57.563 140.970, 39.267 159.267 M 415.870 127.014 C 400.636 129.407, 389.616 135.194, 377.974 146.916 C 364.475 160.507, 358.696 174.473, 358.696 193.500 C 358.696 205.257, 360.549 213.240, 365.778 224 C 370.922 234.587, 384.441 248.092, 395 253.193 C 405.909 258.463, 413.807 260.304, 425.500 260.304 C 444.834 260.304, 458.527 254.551, 472.539 240.539 C 486.551 226.527, 492.304 212.834, 492.304 193.500 C 492.304 181.743, 490.451 173.760, 485.222 163 C 480.088 152.433, 466.567 138.912, 456 133.778 C 443.324 127.618, 428.224 125.073, 415.870 127.014 M 583.571 127.571 C 582.707 128.436, 582 129.640, 582 130.249 C 582 130.857, 588.850 138.256, 597.222 146.691 L 612.444 162.028 565.222 209.288 C 539.250 235.282, 518 257.068, 518 257.703 C 518 259.195, 520.805 262, 522.297 262 C 522.932 262, 544.718 240.750, 570.712 214.778 L 617.972 167.556 633.309 182.778 C 641.744 191.150, 649.143 198, 649.751 198 C 651.207 198, 654 195.170, 654 193.695 C 654 192.177, 587.823 126, 586.305 126 C 585.666 126, 584.436 126.707, 583.571 127.571 M 410.645 135.584 C 390.562 140.445, 372.305 158.877, 367.537 179.103 C 362.669 199.756, 368.589 220.738, 383.450 235.506 C 398.485 250.448, 419.273 256.324, 439.897 251.463 C 460.261 246.662, 478.662 228.261, 483.463 207.897 C 485.390 199.718, 485.390 187.282, 483.463 179.103 C 478.650 158.685, 460.315 140.350, 439.897 135.537 C 431.998 133.676, 418.439 133.697, 410.645 135.584 M 236.747 196.500 L 208.002 254 266 254 L 323.998 254 295.253 196.500 C 279.443 164.875, 266.279 139, 266 139 C 265.721 139, 252.557 164.875, 236.747 196.500 M 407.282 159.282 C 397.777 168.787, 390 177.079, 390 177.710 C 390 179.173, 392.800 182, 394.249 182 C 394.857 182, 402.250 175.156, 410.677 166.792 L 426 151.584 441.323 166.792 C 449.750 175.156, 457.143 182, 457.751 182 C 459.200 182, 462 179.173, 462 177.710 C 462 176.031, 427.693 142, 426 142 C 425.210 142, 416.787 149.777, 407.282 159.282 M 124.743 228.500 L 112.005 254 138 254 L 163.995 254 151.257 228.500 C 144.250 214.475, 138.285 203, 138 203 C 137.715 203, 131.750 214.475, 124.743 228.500 " stroke="none" fill="black" fill-rule="evenodd"/>
</svg>