<svg xmlns="http://www.w3.org/2000/svg" width="595" height="324" viewBox="0 0 595 324" version="1.1">
	<path d="M 262.612 64.250 C 261.823 65.487, 246.852 95.187, 229.343 130.249 C 203.098 182.805, 197.702 194.305, 198.612 195.749 C 199.559 197.253, 201.636 197.539, 213.357 197.778 C 220.861 197.931, 227 198.267, 227 198.524 C 227 198.781, 220.365 212.269, 212.257 228.498 C 200.170 252.689, 197.712 258.320, 198.616 259.752 C 199.643 261.382, 204.081 261.519, 264.109 261.776 C 299.524 261.928, 329.512 261.807, 330.750 261.507 C 332.334 261.123, 333 260.226, 333 258.474 C 333 257.106, 326.473 242.940, 318.497 226.993 L 303.993 198 316.915 198 C 324.022 198, 330.548 197.727, 331.418 197.393 C 332.288 197.059, 333 195.708, 333 194.390 C 333 191.815, 269.519 63.991, 267.631 62.765 C 265.647 61.476, 264.086 61.938, 262.612 64.250 M 236.747 132.500 L 208.002 190 219.764 190 L 231.526 190 247.013 158.930 C 255.531 141.841, 263.041 127.404, 263.702 126.847 C 266.692 124.328, 268.807 127.586, 284.250 158.489 L 299.996 190 311.498 190 C 317.824 190, 323 189.773, 323 189.497 C 323 188.838, 266.074 75, 265.744 75 C 265.605 75, 252.557 100.875, 236.747 132.500 M 39.267 159.267 C 20.970 177.563, 6 193.056, 6 193.695 C 6 195.187, 8.799 198, 10.285 198 C 10.913 198, 25.510 183.943, 42.723 166.762 L 74.019 135.523 103.760 165.267 L 133.500 195.011 117.750 226.450 C 109.087 243.741, 102 258.348, 102 258.909 C 102 261.579, 106.957 262, 138.363 262 C 166.570 262, 171.064 261.793, 172.429 260.429 C 173.293 259.564, 174 258.662, 174 258.423 C 174 258.183, 166.800 243.593, 158 226 L 142 194.012 142 162.229 C 142 135.080, 141.773 130.121, 140.443 128.223 C 138.598 125.588, 137.678 125.465, 135.571 127.571 C 134.219 128.924, 134 132.990, 134 156.799 L 134 184.455 104.711 155.227 C 88.602 139.152, 74.772 126, 73.978 126 C 73.183 126, 57.563 140.970, 39.267 159.267 M 415.235 127.088 C 386.053 131.540, 362.674 155.346, 358.760 184.596 C 355.949 205.610, 362.827 225.652, 378.087 240.913 C 404.303 267.128, 445.990 267.164, 472 240.995 C 480.448 232.495, 484.913 225.546, 488.810 214.835 C 491.224 208.197, 491.478 206.169, 491.478 193.500 C 491.478 180.831, 491.224 178.803, 488.810 172.165 C 484.917 161.466, 480.454 154.514, 472 145.983 C 465.907 139.834, 462.718 137.551, 455 133.807 C 449.775 131.273, 443.475 128.730, 441 128.156 C 433.984 126.530, 422.118 126.038, 415.235 127.088 M 410.072 135.532 C 399.628 138.453, 391.923 143.060, 383.384 151.489 C 371.132 163.583, 365.639 176.587, 365.639 193.500 C 365.639 210.413, 371.132 223.417, 383.384 235.511 C 392.259 244.272, 399.970 248.753, 411.060 251.594 C 419.865 253.850, 436.045 253.076, 444.858 249.978 C 453.597 246.906, 465.093 238.973, 470.660 232.172 C 479.161 221.787, 484.965 206.096, 484.965 193.500 C 484.965 180.904, 479.161 165.213, 470.660 154.828 C 465.100 148.035, 453.611 140.102, 444.858 137.012 C 436.491 134.058, 418.135 133.277, 410.072 135.532 M 236.747 196.500 L 208.002 254 265.501 254 C 297.126 254, 323 253.773, 323 253.497 C 323 252.838, 266.074 139, 265.744 139 C 265.605 139, 252.557 164.875, 236.747 196.500 M 407.239 159.260 C 397.758 168.754, 390 177.288, 390 178.225 C 390 179.163, 390.960 180.443, 392.132 181.071 C 394.079 182.113, 395.624 180.855, 409.895 166.605 L 425.524 150.998 440.012 165.564 C 447.980 173.576, 455.316 180.582, 456.314 181.135 C 458.452 182.318, 461 180.678, 461 178.117 C 461 176.382, 427.185 142, 425.479 142 C 424.929 142, 416.721 149.767, 407.239 159.260 M 546.407 158.989 C 535.669 161.227, 526.305 168.607, 521.318 178.761 C 518.861 183.765, 518.500 185.653, 518.500 193.500 C 518.500 201.317, 518.865 203.244, 521.279 208.160 C 525.072 215.882, 530.916 221.598, 538.784 225.280 C 544.405 227.910, 546.505 228.359, 552.942 228.302 C 561.759 228.225, 567.267 226.443, 574.033 221.475 C 592.515 207.909, 592.515 179.091, 574.033 165.525 C 566.053 159.666, 555.331 157.130, 546.407 158.989 M 541.500 168.353 C 535.905 170.964, 529.611 177.362, 527.229 182.860 C 525.155 187.645, 525.155 199.355, 527.229 204.140 C 528.096 206.141, 530.537 209.699, 532.653 212.046 C 543.739 224.344, 562.708 224.091, 573.793 211.498 C 583.196 200.816, 583.196 186.184, 573.793 175.502 C 565.572 166.163, 552.428 163.253, 541.500 168.353 M 551.750 191.080 C 549.372 192.465, 549.542 195.685, 552.064 197.034 C 555.753 199.008, 558.819 194.219, 555.800 191.200 C 554.367 189.767, 554.022 189.757, 551.750 191.080 M 124.743 228.500 L 112.005 254 138 254 L 163.995 254 151.257 228.500 C 144.250 214.475, 138.285 203, 138 203 C 137.715 203, 131.750 214.475, 124.743 228.500 " stroke="none" fill="black" fill-rule="evenodd"/>
</svg>