<svg xmlns="http://www.w3.org/2000/svg" width="468" height="324" viewBox="0 0 468 324" version="1.1">
	<path d="M 72.369 62.765 C 71.416 63.384, 6 193.155, 6 194.426 C 6 194.663, 6.707 195.564, 7.571 196.429 C 8.844 197.701, 11.697 198, 22.575 198 L 36.006 198 21.003 227.994 C 12.751 244.490, 6 258.183, 6 258.422 C 6 258.661, 6.707 259.564, 7.571 260.429 C 8.968 261.825, 16.372 262, 74 262 C 131.628 262, 139.032 261.825, 140.429 260.429 C 141.293 259.564, 142 258.661, 142 258.422 C 142 258.183, 135.249 244.490, 126.997 227.994 L 111.994 198 125.425 198 C 136.303 198, 139.156 197.701, 140.429 196.429 C 141.293 195.564, 142 194.663, 142 194.426 C 142 193.155, 76.584 63.384, 75.631 62.765 C 75.009 62.361, 74.275 62.031, 74 62.031 C 73.725 62.031, 72.991 62.361, 72.369 62.765 M 44.747 132.500 L 16.002 190 28.003 190 L 40.004 190 55.736 158.517 C 64.389 141.202, 72.038 126.816, 72.734 126.549 C 73.430 126.281, 74.570 126.281, 75.266 126.549 C 75.962 126.816, 83.611 141.202, 92.264 158.517 L 107.996 190 119.997 190 L 131.998 190 103.253 132.500 C 87.443 100.875, 74.279 75, 74 75 C 73.721 75, 60.557 100.875, 44.747 132.500 M 224.169 127.025 C 200.057 130.535, 178.254 148.316, 170.411 170.869 C 166.858 181.085, 165.632 191.721, 166.911 201.226 C 168.986 216.644, 174.459 228.202, 184.973 239.370 C 210.640 266.633, 252.138 267.811, 279.365 242.049 C 299.085 223.391, 305.551 196.639, 296.578 170.836 C 290.385 153.029, 273.988 136.621, 256.205 130.436 C 244.925 126.514, 234.969 125.454, 224.169 127.025 M 384.169 127.025 C 360.057 130.535, 338.254 148.316, 330.411 170.869 C 326.858 181.085, 325.632 191.721, 326.911 201.226 C 328.986 216.644, 334.459 228.202, 344.973 239.370 C 370.640 266.633, 412.138 267.811, 439.365 242.049 C 459.085 223.391, 465.551 196.639, 456.578 170.836 C 450.385 153.029, 433.988 136.621, 416.205 130.436 C 404.925 126.514, 394.969 125.454, 384.169 127.025 M 217.500 135.870 C 197.436 141.645, 180.733 158.691, 175.585 178.644 C 173.554 186.517, 173.554 200.483, 175.585 208.356 C 180.838 228.716, 198.284 246.162, 218.644 251.415 C 226.517 253.446, 240.483 253.446, 248.356 251.415 C 258.335 248.840, 267.723 243.358, 275.541 235.541 C 283.358 227.723, 288.840 218.335, 291.415 208.356 C 293.446 200.483, 293.446 186.517, 291.415 178.644 C 286.162 158.284, 268.716 140.838, 248.356 135.585 C 240.226 133.488, 225.296 133.625, 217.500 135.870 M 377.500 135.870 C 357.436 141.645, 340.733 158.691, 335.585 178.644 C 333.554 186.517, 333.554 200.483, 335.585 208.356 C 340.838 228.716, 358.284 246.162, 378.644 251.415 C 386.517 253.446, 400.483 253.446, 408.356 251.415 C 428.716 246.162, 446.162 228.716, 451.415 208.356 C 453.446 200.483, 453.446 186.517, 451.415 178.644 C 446.162 158.284, 428.716 140.838, 408.356 135.585 C 400.226 133.488, 385.296 133.625, 377.500 135.870 M 44.747 196.500 L 16.002 254 74 254 L 131.998 254 103.253 196.500 C 87.443 164.875, 74.279 139, 74 139 C 73.721 139, 60.557 164.875, 44.747 196.500 M 215.282 159.282 C 205.777 168.787, 198 177.079, 198 177.710 C 198 179.173, 200.800 182, 202.249 182 C 202.857 182, 210.250 175.156, 218.677 166.792 L 234 151.584 249.323 166.792 C 257.750 175.156, 265.143 182, 265.751 182 C 267.200 182, 270 179.173, 270 177.710 C 270 176.031, 235.693 142, 234 142 C 233.210 142, 224.787 149.777, 215.282 159.282 M 387.045 159.064 C 365.497 163.427, 353.173 185.901, 361.037 206.493 C 364.164 214.680, 372.320 222.836, 380.507 225.963 C 393.863 231.064, 408.079 228.081, 418.080 218.080 C 439.084 197.076, 426.303 161.904, 396.500 158.699 C 393.750 158.403, 389.495 158.567, 387.045 159.064 M 383.054 167.728 C 377.018 169.859, 369.781 177.260, 367.667 183.463 C 361.198 202.450, 373.964 221, 393.500 221 C 409.108 221, 421 209.108, 421 193.500 C 421 177.670, 408.965 165.854, 393.072 166.079 C 390.007 166.122, 385.499 166.864, 383.054 167.728 M 391.571 191.571 C 390.707 192.436, 390 193.529, 390 194 C 390 195.111, 392.889 198, 394 198 C 395.111 198, 398 195.111, 398 194 C 398 192.889, 395.111 190, 394 190 C 393.529 190, 392.436 190.707, 391.571 191.571 " stroke="none" fill="black" fill-rule="evenodd"/>
</svg>