<svg xmlns="http://www.w3.org/2000/svg" width="595" height="324" viewBox="0 0 595 324" version="1.1">
	<path d="M 72.357 62.765 C 71.406 63.377, 6 193.165, 6 194.440 C 6 194.670, 6.707 195.564, 7.571 196.429 C 8.844 197.701, 11.697 198, 22.575 198 L 36.006 198 21.003 227.994 C 12.751 244.490, 6 258.183, 6 258.422 C 6 258.661, 6.707 259.564, 7.571 260.429 C 8.968 261.825, 16.372 262, 74 262 C 131.628 262, 139.032 261.825, 140.429 260.429 C 141.293 259.564, 142 258.661, 142 258.422 C 142 258.183, 135.249 244.490, 126.997 227.994 L 111.994 198 125.425 198 C 136.303 198, 139.156 197.701, 140.429 196.429 C 141.293 195.564, 142 194.663, 142 194.426 C 142 193.155, 76.584 63.384, 75.631 62.765 C 75.009 62.361, 74.275 62.031, 74 62.031 C 73.725 62.031, 72.986 62.361, 72.357 62.765 M 44.747 132.500 L 16.002 190 28.013 190 L 40.024 190 55.603 158.750 C 64.171 141.563, 71.777 127.162, 72.505 126.748 C 73.233 126.335, 74.436 126.230, 75.180 126.516 C 75.924 126.801, 83.611 141.202, 92.264 158.517 L 107.996 190 119.997 190 L 131.998 190 103.253 132.500 C 87.443 100.875, 74.279 75, 74 75 C 73.721 75, 60.557 100.875, 44.747 132.500 M 223.500 127.042 C 206.874 129.571, 191.808 138.435, 180.779 152.178 C 170.828 164.577, 166.553 176.995, 166.553 193.500 C 166.553 210.065, 170.823 222.417, 180.882 234.950 C 194.273 251.636, 212.344 260.349, 233.500 260.319 C 252.240 260.292, 267.028 254.065, 280.500 240.527 C 293.805 227.157, 300 212.218, 300 193.500 C 300 174.782, 293.805 159.843, 280.500 146.473 C 265.166 131.065, 244.151 123.901, 223.500 127.042 M 418.801 126.999 C 406.863 129.084, 395.467 139.359, 391.837 151.310 C 389.876 157.768, 389.771 159.211, 390.773 165.986 C 393.339 183.326, 401.457 203.812, 412.019 219.593 C 419.438 230.680, 436.399 247.376, 447.859 254.876 C 453.007 258.244, 457.602 261, 458.070 261 C 458.539 261, 459.727 260.170, 460.711 259.156 C 461.695 258.141, 465.424 255.349, 468.998 252.950 C 483.965 242.905, 500.669 224.036, 509.814 206.845 L 514.500 198.036 545.486 198.018 L 576.472 198 563.236 211.263 C 555.956 218.558, 550 225.292, 550 226.228 C 550 227.164, 550.944 228.435, 552.097 229.052 C 554 230.070, 555.809 228.570, 571.597 212.875 C 581.169 203.360, 589 194.866, 589 194 C 589 193.134, 581.169 184.640, 571.597 175.125 C 555.809 159.430, 554 157.930, 552.097 158.948 C 550.944 159.565, 550 160.836, 550 161.772 C 550 162.708, 555.956 169.442, 563.236 176.737 L 576.472 190 547.236 190 C 531.156 190, 518 189.807, 518 189.572 C 518 189.337, 519.128 184.949, 520.506 179.822 C 524.004 166.810, 524.632 158.687, 522.665 151.920 C 518.194 136.540, 505.090 126.794, 488.830 126.755 C 482.363 126.740, 480.166 127.207, 474.830 129.732 C 468.465 132.743, 462.218 138.145, 459.196 143.250 C 458.301 144.762, 457.328 145.988, 457.034 145.973 C 456.740 145.958, 455.375 144.099, 454 141.841 C 451.064 137.020, 443.030 130.627, 437.418 128.648 C 431.894 126.699, 424.346 126.030, 418.801 126.999 M 218.072 135.591 C 207.659 138.390, 199.974 142.983, 191.489 151.479 C 179.024 163.958, 174 176.031, 174 193.500 C 174 210.857, 179.117 223.159, 191.479 235.521 C 203.562 247.604, 216.332 253, 232.845 253 C 243.674 253, 249.916 251.576, 259.820 246.847 C 284.843 234.900, 298.032 205.996, 291.003 178.511 C 286.717 161.754, 275.079 147.438, 259.820 140.153 C 255.244 137.968, 249.115 135.690, 246.201 135.090 C 238.879 133.584, 224.591 133.838, 218.072 135.591 M 414.435 135.890 C 402.429 141.343, 395.991 153.042, 398.029 165.699 C 400.663 182.055, 408.237 200.968, 418.007 215.586 C 424.468 225.253, 439.967 240.814, 449.706 247.411 L 456.912 252.293 463.706 247.925 C 477.321 239.172, 495.063 219.306, 503.380 203.500 L 506.011 198.500 481.256 198 C 467.640 197.725, 455.938 197.136, 455.250 196.691 C 453.358 195.467, 453.753 192.203, 455.934 191.035 C 457.125 190.398, 467.866 190, 483.894 190 L 509.920 190 511.903 183.577 C 514.083 176.522, 517 163.154, 517 160.224 C 517 155.555, 513.736 147.981, 509.793 143.502 C 498.764 130.973, 479.738 130.657, 468.773 142.821 C 464.381 147.693, 462.298 152.276, 461.400 159.041 C 460.616 164.952, 458.940 166.749, 455.620 165.237 C 453.782 164.399, 453.175 163.122, 452.697 159.091 C 451.449 148.550, 445.871 140.712, 436.521 136.358 C 430.147 133.389, 420.395 133.183, 414.435 135.890 M 44.747 196.500 L 16.002 254 73.996 254 L 131.990 254 103.245 196.500 C 87.435 164.875, 74.273 139, 73.996 139 C 73.719 139, 60.557 164.875, 44.747 196.500 M 215.213 159.315 C 205.746 168.838, 198 177.131, 198 177.743 C 198 178.966, 200.733 182, 201.834 182 C 202.213 182, 209.482 175.031, 217.987 166.514 L 233.449 151.027 249.045 166.514 C 257.623 175.031, 265.117 182, 265.698 182 C 267.296 182, 269.209 179.296, 268.833 177.570 C 268.413 175.644, 235.020 142, 233.528 142 C 232.921 142, 224.680 149.792, 215.213 159.315 M 327.750 191.073 C 325.413 192.444, 325.527 195.677, 327.960 196.979 C 329.243 197.665, 341.208 197.936, 362.601 197.764 C 392.469 197.523, 395.378 197.349, 396.386 195.750 C 397.191 194.474, 397.191 193.526, 396.386 192.250 C 395.377 190.649, 392.483 190.481, 362.391 190.273 C 341.280 190.127, 328.873 190.414, 327.750 191.073 " stroke="none" fill="black" fill-rule="evenodd"/>
</svg>