<svg xmlns="http://www.w3.org/2000/svg" width="532" height="324" viewBox="0 0 532 324" version="1.1">
	<path d="M 296.363 62.765 C 295.142 63.554, 230 193.304, 230 194.947 C 230 197.178, 234.564 198, 246.952 198 L 260.036 198 245.018 227.931 C 236.758 244.393, 230 258.327, 230 258.896 C 230 261.759, 235.313 262, 298.363 262 C 355.661 262, 363.032 261.825, 364.429 260.429 C 365.293 259.564, 366 258.661, 366 258.422 C 366 258.183, 359.249 244.490, 350.997 227.994 L 335.994 198 349.425 198 C 360.303 198, 363.156 197.701, 364.429 196.429 C 365.293 195.564, 366 194.663, 366 194.426 C 366 193.155, 300.584 63.384, 299.631 62.765 C 299.009 62.361, 298.275 62.031, 298 62.031 C 297.725 62.031, 296.988 62.361, 296.363 62.765 M 268.747 132.500 L 240.002 190 252.013 190 L 264.024 190 279.603 158.750 C 288.171 141.563, 295.777 127.162, 296.505 126.748 C 297.233 126.335, 298.436 126.230, 299.180 126.516 C 299.924 126.801, 307.611 141.202, 316.264 158.517 L 331.996 190 343.997 190 L 355.998 190 327.253 132.500 C 311.443 100.875, 298.279 75, 298 75 C 297.721 75, 284.557 100.875, 268.747 132.500 M 71.627 127.515 C 69.597 129.546, 69.587 130.444, 71.571 132.429 C 72.538 133.395, 74.888 134, 77.677 134 C 96.327 134, 117.964 148.577, 126.809 167.101 C 131.167 176.226, 133 183.322, 133 191.062 C 133 195.240, 131.816 198.390, 125.515 210.970 C 118.288 225.399, 117.532 228.223, 120.577 229.391 C 123.364 230.461, 124.668 228.784, 131.014 215.972 C 134.547 208.837, 137.691 203, 138 203 C 138.309 203, 141.453 208.837, 144.986 215.972 C 148.520 223.106, 152.076 229.199, 152.889 229.511 C 153.701 229.823, 155.219 229.225, 156.261 228.183 C 158.121 226.323, 158.007 225.990, 150.078 210.156 C 143.335 196.690, 142 193.230, 142 189.222 C 142 171.270, 156.174 149.475, 173.532 140.735 C 182.139 136.401, 187.426 134.866, 196.396 134.094 C 201.428 133.661, 203.589 133.027, 204.391 131.750 C 209.194 124.100, 188.288 125.337, 171.194 133.713 C 158.311 140.026, 143.852 155.628, 139.394 168.025 L 137.728 172.659 133.282 163.779 C 122.674 142.587, 103.356 129.364, 78.877 126.537 C 74.402 126.020, 72.923 126.220, 71.627 127.515 M 447.500 127.042 C 421.957 130.927, 400.658 149.621, 392.858 175 C 389.607 185.580, 389.607 201.420, 392.858 212 C 399.942 235.050, 418.115 252.617, 441.113 258.645 C 448.801 260.661, 464.244 260.879, 472 259.082 C 475.025 258.381, 481.745 255.776, 486.933 253.292 C 494.815 249.520, 497.691 247.440, 504.433 240.633 C 517.821 227.116, 524 212.233, 524 193.500 C 524 174.782, 517.805 159.843, 504.500 146.473 C 489.166 131.065, 468.151 123.901, 447.500 127.042 M 442.072 135.591 C 428.454 139.252, 415.030 149.097, 407.028 161.292 C 394.679 180.114, 394.679 206.886, 407.028 225.708 C 418.289 242.870, 436.711 253, 456.661 253 C 467.676 253, 473.875 251.596, 483.820 246.847 C 508.843 234.900, 522.032 205.996, 515.003 178.511 C 510.717 161.754, 499.079 147.438, 483.820 140.153 C 479.244 137.968, 473.115 135.690, 470.201 135.090 C 462.879 133.584, 448.591 133.838, 442.072 135.591 M 268.747 196.500 L 240.002 254 297.996 254 L 355.990 254 327.245 196.500 C 311.435 164.875, 298.273 139, 297.996 139 C 297.719 139, 284.557 164.875, 268.747 196.500 M 439.213 159.315 C 429.746 168.838, 422 177.131, 422 177.743 C 422 178.966, 424.733 182, 425.834 182 C 426.213 182, 433.482 175.031, 441.987 166.514 L 457.449 151.027 473.045 166.514 C 481.623 175.031, 489.117 182, 489.698 182 C 491.296 182, 493.209 179.296, 492.833 177.570 C 492.413 175.644, 459.020 142, 457.528 142 C 456.921 142, 448.680 149.792, 439.213 159.315 M 19.637 191.420 C 12.850 193.919, 7.863 199.884, 6.503 207.131 C 5.855 210.586, 7.593 214, 10 214 C 11.861 214, 14 210.700, 14 207.829 C 14 205.718, 15.030 203.770, 17.400 201.400 C 20.302 198.498, 21.488 198, 25.500 198 C 29.512 198, 30.698 198.498, 33.600 201.400 C 39.296 207.096, 38.903 208.183, 21.941 233.589 C 13.658 245.994, 6.657 256.729, 6.383 257.443 C 6.109 258.158, 6.618 259.475, 7.514 260.371 C 9.895 262.753, 42.054 262.803, 44.429 260.429 C 46.402 258.455, 46.402 257.545, 44.429 255.571 C 43.162 254.305, 40.348 254, 29.926 254 L 16.995 254 31.499 232.239 L 46.002 210.477 44.025 205.068 C 39.834 193.602, 29.468 187.800, 19.637 191.420 " stroke="none" fill="black" fill-rule="evenodd"/>
</svg>