<svg xmlns="http://www.w3.org/2000/svg" width="403" height="324" viewBox="0 0 403 324" version="1.1">
	<path d="M 71.571 127.571 C 70.212 128.931, 70 133.242, 70 159.571 L 70 190 39.571 190 C 4.116 190, 5.470 189.636, 6.537 198.877 C 7.574 207.855, 9.914 215.940, 13.807 224 C 16.625 229.833, 19.438 233.508, 26.465 240.535 C 36.314 250.384, 44.468 255.197, 57 258.560 C 65.648 260.881, 81.335 260.883, 90 258.566 C 111.438 252.832, 129.705 235.705, 137.002 214.495 C 139.762 206.472, 141.445 193.241, 139.936 191.423 C 138.962 190.250, 133.426 190, 108.378 190 L 78 190 78 160.223 C 78 134.890, 77.768 130.113, 76.443 128.223 C 74.598 125.588, 73.678 125.465, 71.571 127.571 M 167.482 127.661 C 163.858 131.285, 168.873 146.167, 176.301 153.834 C 192.797 170.861, 220.770 166.918, 231.922 145.994 C 237.582 135.376, 237.146 123.711, 231.208 126.889 C 229.865 127.607, 229.111 129.415, 228.698 132.904 C 227.571 142.418, 222.284 149.750, 213.397 154.125 C 207.582 156.988, 206.381 157.223, 199.760 156.793 C 185.804 155.888, 176.597 147.691, 173.968 133.832 C 172.539 126.295, 170.647 124.496, 167.482 127.661 M 345.117 173.393 L 297.482 220.990 281.878 205.386 C 267.616 191.124, 266.091 189.881, 264.137 190.926 C 262.962 191.556, 262 192.837, 262 193.773 C 262 194.710, 268.857 202.344, 277.238 210.738 L 292.476 226 277.238 241.262 C 268.857 249.656, 262 257.290, 262 258.227 C 262 259.163, 262.960 260.443, 264.132 261.071 C 266.079 262.113, 267.624 260.855, 281.895 246.605 L 297.524 230.998 312.012 245.564 C 319.980 253.576, 327.316 260.582, 328.314 261.135 C 330.445 262.314, 333 260.681, 333 258.139 C 333 257.251, 326.141 249.654, 317.758 241.258 L 302.516 225.992 349.758 178.742 C 375.741 152.755, 397 130.722, 397 129.781 C 397 128.840, 396.044 127.559, 394.876 126.934 C 392.922 125.888, 388.948 129.598, 345.117 173.393 M 14 200.106 C 14 201.264, 14.713 204.976, 15.585 208.356 C 20.838 228.716, 38.284 246.162, 58.644 251.415 C 65.760 253.251, 78.565 253.481, 86.201 251.910 C 89.115 251.310, 95.244 249.032, 99.820 246.847 C 116.884 238.700, 129.557 221.415, 132.519 202.250 L 133.176 198 73.588 198 L 14 198 14 200.106 " stroke="none" fill="black" fill-rule="evenodd"/>
</svg>