<svg xmlns="http://www.w3.org/2000/svg" width="532" height="324" viewBox="0 0 532 324" version="1.1">
	<path d="M 72.369 62.765 C 71.416 63.384, 6 193.155, 6 194.426 C 6 194.663, 6.707 195.564, 7.571 196.429 C 8.844 197.701, 11.697 198, 22.575 198 L 36.006 198 21.003 227.994 C 12.751 244.490, 6 258.183, 6 258.422 C 6 258.661, 6.707 259.564, 7.571 260.429 C 8.968 261.825, 16.372 262, 74 262 C 131.628 262, 139.032 261.825, 140.429 260.429 C 141.293 259.564, 142 258.661, 142 258.422 C 142 258.183, 135.249 244.490, 126.997 227.994 L 111.994 198 125.425 198 C 136.303 198, 139.156 197.701, 140.429 196.429 C 141.293 195.564, 142 194.663, 142 194.426 C 142 193.155, 76.584 63.384, 75.631 62.765 C 75.009 62.361, 74.275 62.031, 74 62.031 C 73.725 62.031, 72.991 62.361, 72.369 62.765 M 44.747 132.500 L 16.002 190 28.003 190 L 40.004 190 55.736 158.517 C 64.389 141.202, 72.038 126.816, 72.734 126.549 C 73.430 126.281, 74.570 126.281, 75.266 126.549 C 75.962 126.816, 83.611 141.202, 92.264 158.517 L 107.996 190 119.997 190 L 131.998 190 103.253 132.500 C 87.443 100.875, 74.279 75, 74 75 C 73.721 75, 60.557 100.875, 44.747 132.500 M 224.500 126.955 C 208.403 129.526, 198.143 134.789, 186.461 146.465 C 172.399 160.521, 166.624 174.214, 166.624 193.500 C 166.624 212.786, 172.399 226.479, 186.461 240.535 C 200.448 254.515, 214.292 260.327, 233.500 260.283 C 252.293 260.239, 266.954 254.085, 280.584 240.521 C 293.867 227.301, 300 212.448, 300 193.500 C 300 181.317, 298.346 174.289, 292.824 163.012 C 285.039 147.114, 267.619 132.975, 250.500 128.660 C 242.790 126.717, 230.880 125.936, 224.500 126.955 M 391.571 127.571 C 390.707 128.436, 390 129.640, 390 130.249 C 390 130.857, 396.852 138.258, 405.226 146.695 L 420.452 162.036 390.985 191.515 L 361.518 220.995 345.997 205.497 C 337.461 196.974, 330.177 190, 329.810 190 C 328.731 190, 326 193.046, 326 194.249 C 326 194.857, 332.844 202.250, 341.208 210.677 L 356.416 226 341.208 241.323 C 332.844 249.750, 326 257.143, 326 257.751 C 326 258.967, 328.736 262, 329.834 262 C 330.213 262, 337.482 255.031, 345.987 246.514 L 361.449 231.027 377.045 246.514 C 385.623 255.031, 393.082 262, 393.621 262 C 395.106 262, 397 259.793, 397 258.062 C 397 257.216, 390.142 249.654, 381.759 241.259 L 366.518 225.994 396.005 196.495 L 425.492 166.996 454.974 196.478 L 484.456 225.960 469.228 241.303 C 460.853 249.741, 454 257.143, 454 257.751 C 454 258.967, 456.736 262, 457.834 262 C 458.213 262, 465.482 255.031, 473.987 246.514 L 489.449 231.027 505.045 246.514 C 513.623 255.031, 521.082 262, 521.621 262 C 523.106 262, 525 259.793, 525 258.062 C 525 257.216, 518.143 249.656, 509.762 241.262 L 494.524 226 509.762 210.738 C 518.143 202.344, 525 194.784, 525 193.938 C 525 192.207, 523.106 190, 521.621 190 C 521.082 190, 513.624 196.968, 505.048 205.484 L 489.455 220.967 459.987 191.487 L 430.518 162.006 445.759 146.741 C 454.142 138.346, 461 130.784, 461 129.938 C 461 128.207, 459.106 126, 457.621 126 C 457.082 126, 449.623 132.969, 441.045 141.486 L 425.449 156.973 409.987 141.486 C 401.482 132.969, 394.213 126, 393.834 126 C 393.454 126, 392.436 126.707, 391.571 127.571 M 218.072 135.591 C 207.666 138.388, 199.974 142.984, 191.479 151.479 C 179.117 163.841, 174 176.143, 174 193.500 C 174 210.512, 179.128 223.074, 190.993 235.125 C 203.062 247.384, 216.359 253, 233.316 253 C 250.109 253, 263.605 247.404, 275.595 235.469 C 286.996 224.120, 293 209.644, 293 193.500 C 293 166.498, 274.337 142.288, 248.356 135.585 C 240.711 133.613, 225.418 133.616, 218.072 135.591 M 44.747 196.500 L 16.002 254 74 254 L 131.998 254 103.253 196.500 C 87.443 164.875, 74.279 139, 74 139 C 73.721 139, 60.557 164.875, 44.747 196.500 M 216.243 158.250 C 198.999 175.342, 197.658 176.944, 198.581 179.350 C 200.184 183.527, 202.445 182.032, 217.957 166.543 L 233.524 150.998 248.012 165.564 C 255.980 173.576, 263.316 180.582, 264.314 181.135 C 266.584 182.392, 269.229 180.472, 268.798 177.880 C 268.464 175.865, 235.322 142, 233.685 142 C 233.109 142, 225.260 149.313, 216.243 158.250 " stroke="none" fill="black" fill-rule="evenodd"/>
</svg>