<svg xmlns="http://www.w3.org/2000/svg" width="340" height="324" viewBox="0 0 340 324" version="1.1">
	<path d="M 39.571 127.571 C 38.207 128.935, 38 133.425, 38 161.577 L 38 194.012 22.016 225.967 C 13.225 243.542, 6.285 258.580, 6.594 259.384 C 7.265 261.133, 9.512 262.124, 11.274 261.448 C 11.975 261.180, 19.056 247.919, 27.010 231.980 C 34.964 216.041, 41.710 203, 42 203 C 42.290 203, 49.036 216.041, 56.990 231.980 C 64.944 247.919, 72.108 261.211, 72.909 261.519 C 73.711 261.826, 75.218 261.226, 76.259 260.185 C 78.117 258.328, 77.849 257.686, 62.076 226.152 L 46 194.012 46 161.577 C 46 133.425, 45.793 128.935, 44.429 127.571 C 43.564 126.707, 42.471 126, 42 126 C 41.529 126, 40.436 126.707, 39.571 127.571 M 103.571 127.571 C 101.678 129.464, 101.668 129.955, 103.360 137.147 C 108.275 158.029, 130.268 169.691, 150.297 162.037 C 157.370 159.334, 165.580 151.645, 169.009 144.514 C 171.954 138.389, 172.890 128.983, 170.732 127.192 C 168.638 125.455, 166.072 126.757, 165.475 129.860 C 163.172 141.848, 159.986 147.710, 153.337 152.196 C 141.689 160.055, 125.146 158.070, 116.451 147.770 C 112.853 143.508, 110.050 137.273, 110.022 133.473 C 110 130.420, 107.629 126, 106.015 126 C 105.535 126, 104.436 126.707, 103.571 127.571 M 281.011 173.499 L 233.474 220.998 217.999 205.499 C 209.488 196.975, 202.213 190, 201.834 190 C 200.736 190, 198 193.033, 198 194.249 C 198 194.857, 204.844 202.250, 213.208 210.677 L 228.416 226 213.208 241.323 C 204.844 249.750, 198 257.143, 198 257.751 C 198 258.967, 200.736 262, 201.834 262 C 202.213 262, 209.482 255.031, 217.987 246.514 L 233.449 231.027 249.045 246.514 C 257.623 255.031, 265.082 262, 265.621 262 C 267.106 262, 269 259.793, 269 258.062 C 269 257.216, 262.141 249.654, 253.758 241.258 L 238.516 225.992 285.758 178.742 C 311.741 152.755, 333 130.796, 333 129.946 C 333 128.186, 331.102 126, 329.574 126 C 329.010 126, 307.157 147.375, 281.011 173.499 " stroke="none" fill="black" fill-rule="evenodd"/>
</svg>