<svg xmlns="http://www.w3.org/2000/svg" width="660" height="324" viewBox="0 0 660 324" version="1.1">
	<path d="M 72.369 62.765 C 71.416 63.384, 6 193.155, 6 194.426 C 6 194.663, 6.707 195.564, 7.571 196.429 C 8.844 197.701, 11.697 198, 22.575 198 L 36.006 198 21.003 227.994 C 12.751 244.490, 6 258.183, 6 258.422 C 6 258.661, 6.707 259.564, 7.571 260.429 C 8.968 261.825, 16.372 262, 74 262 C 131.628 262, 139.032 261.825, 140.429 260.429 C 141.293 259.564, 142 258.661, 142 258.422 C 142 258.183, 135.249 244.490, 126.997 227.994 L 111.994 198 125.425 198 C 136.303 198, 139.156 197.701, 140.429 196.429 C 141.293 195.564, 142 194.663, 142 194.426 C 142 193.155, 76.584 63.384, 75.631 62.765 C 75.009 62.361, 74.275 62.031, 74 62.031 C 73.725 62.031, 72.991 62.361, 72.369 62.765 M 44.747 132.500 L 16.002 190 28.003 190 L 40.004 190 55.736 158.517 C 64.389 141.202, 72.038 126.816, 72.734 126.549 C 73.430 126.281, 74.570 126.281, 75.266 126.549 C 75.962 126.816, 83.611 141.202, 92.264 158.517 L 107.996 190 119.997 190 L 131.998 190 103.253 132.500 C 87.443 100.875, 74.279 75, 74 75 C 73.721 75, 60.557 100.875, 44.747 132.500 M 223.870 127.014 C 208.636 129.407, 197.616 135.194, 185.974 146.916 C 172.475 160.507, 166.696 174.473, 166.696 193.500 C 166.696 205.257, 168.549 213.240, 173.778 224 C 178.922 234.587, 192.441 248.092, 203 253.193 C 213.909 258.463, 221.807 260.304, 233.500 260.304 C 252.834 260.304, 266.527 254.551, 280.539 240.539 C 294.551 226.527, 300.304 212.834, 300.304 193.500 C 300.304 181.743, 298.451 173.760, 293.222 163 C 288.088 152.433, 274.567 138.912, 264 133.778 C 251.324 127.618, 236.224 125.073, 223.870 127.014 M 218.645 135.584 C 198.761 140.397, 180.825 158.334, 175.585 178.644 C 173.593 186.367, 173.571 199.556, 175.537 207.897 C 180.363 228.369, 198.631 246.637, 219.103 251.463 C 239.742 256.328, 260.600 250.431, 275.516 235.516 C 290.431 220.600, 296.328 199.742, 291.463 179.103 C 286.637 158.631, 268.369 140.363, 247.897 135.537 C 239.998 133.676, 226.439 133.697, 218.645 135.584 M 44.747 196.500 L 16.002 254 74 254 L 131.998 254 103.253 196.500 C 87.443 164.875, 74.279 139, 74 139 C 73.721 139, 60.557 164.875, 44.747 196.500 M 215.282 159.282 C 205.777 168.787, 198 177.079, 198 177.710 C 198 179.173, 200.800 182, 202.249 182 C 202.857 182, 210.250 175.156, 218.677 166.792 L 234 151.584 249.323 166.792 C 257.750 175.156, 265.143 182, 265.751 182 C 267.200 182, 270 179.173, 270 177.710 C 270 176.031, 235.693 142, 234 142 C 233.210 142, 224.787 149.777, 215.282 159.282 M 327.571 191.571 C 326.707 192.436, 326 193.640, 326 194.249 C 326 194.857, 332.844 202.250, 341.208 210.677 L 356.416 226 341.208 241.323 C 332.844 249.750, 326 257.143, 326 257.751 C 326 259.181, 328.819 262, 330.249 262 C 330.857 262, 338.250 255.156, 346.677 246.792 L 362 231.584 377.323 246.792 C 385.750 255.156, 393.143 262, 393.751 262 C 395.181 262, 398 259.181, 398 257.751 C 398 257.143, 391.156 249.750, 382.792 241.323 L 367.584 226 382.792 210.677 C 391.156 202.250, 398 194.857, 398 194.249 C 398 192.819, 395.181 190, 393.751 190 C 393.143 190, 385.750 196.844, 377.323 205.208 L 362 220.416 346.677 205.208 C 338.250 196.844, 330.857 190, 330.249 190 C 329.640 190, 328.436 190.707, 327.571 191.571 M 423.571 191.571 C 422.707 192.436, 422 193.640, 422 194.249 C 422 194.857, 428.844 202.250, 437.208 210.677 L 452.416 226 437.208 241.323 C 428.844 249.750, 422 257.143, 422 257.751 C 422 259.181, 424.819 262, 426.249 262 C 426.857 262, 434.250 255.156, 442.677 246.792 L 458 231.584 473.323 246.792 C 481.750 255.156, 489.143 262, 489.751 262 C 491.181 262, 494 259.181, 494 257.751 C 494 257.143, 487.156 249.750, 478.792 241.323 L 463.584 226 478.792 210.677 C 487.156 202.250, 494 194.857, 494 194.249 C 494 192.819, 491.181 190, 489.751 190 C 489.143 190, 481.750 196.844, 473.323 205.208 L 458 220.416 442.677 205.208 C 434.250 196.844, 426.857 190, 426.249 190 C 425.640 190, 424.436 190.707, 423.571 191.571 M 545.500 239.047 C 535.011 240.861, 525.773 245.511, 519.217 252.276 C 515.704 255.901, 515.675 258.445, 519.132 259.542 C 520.512 259.980, 522.272 259.084, 525.167 256.468 C 527.414 254.438, 532.234 251.364, 535.877 249.638 C 541.993 246.740, 543.304 246.500, 553 246.500 C 562.754 246.500, 563.983 246.729, 570.306 249.724 C 574.947 251.922, 579.090 254.965, 583.331 259.290 C 596.043 272.255, 612.537 276.429, 631 271.354 C 640.935 268.624, 652 260.778, 652 256.464 C 652 252.535, 648.496 252.357, 644.267 256.070 C 642.247 257.844, 637.648 260.691, 634.047 262.397 C 628.017 265.255, 626.670 265.500, 617 265.500 C 607.333 265.500, 605.981 265.254, 599.962 262.402 C 595.858 260.457, 591.606 257.383, 588.541 254.146 C 577.165 242.131, 560.820 236.397, 545.500 239.047 " stroke="none" fill="black" fill-rule="evenodd"/>
</svg>