<svg xmlns="http://www.w3.org/2000/svg" width="468" height="324" viewBox="0 0 468 324" version="1.1">
	<path d="M 72.372 62.765 C 70.418 64.037, 54.003 97.844, 54.593 99.381 C 55.268 101.141, 57.513 102.124, 59.295 101.440 C 60.007 101.167, 63.480 95.106, 67.014 87.972 C 70.547 80.837, 73.691 75, 74 75 C 74.309 75, 77.453 80.837, 80.986 87.972 C 84.520 95.106, 87.993 101.167, 88.705 101.440 C 90.487 102.124, 92.732 101.141, 93.407 99.381 C 93.716 98.575, 90.096 90.173, 85.363 80.708 C 77.638 65.261, 75.672 62.031, 74 62.031 C 73.725 62.031, 72.992 62.361, 72.372 62.765 M 232.369 62.765 C 231.416 63.384, 166 193.155, 166 194.426 C 166 194.663, 166.707 195.564, 167.571 196.429 C 168.844 197.701, 171.697 198, 182.575 198 L 196.006 198 181.003 227.994 C 172.751 244.490, 166 258.183, 166 258.422 C 166 258.661, 166.707 259.564, 167.571 260.429 C 168.968 261.825, 176.372 262, 234 262 C 291.628 262, 299.032 261.825, 300.429 260.429 C 301.293 259.564, 302 258.661, 302 258.422 C 302 258.183, 295.249 244.490, 286.997 227.994 L 271.994 198 285.425 198 C 296.303 198, 299.156 197.701, 300.429 196.429 C 301.293 195.564, 302 194.663, 302 194.426 C 302 193.155, 236.584 63.384, 235.631 62.765 C 235.009 62.361, 234.275 62.031, 234 62.031 C 233.725 62.031, 232.991 62.361, 232.369 62.765 M 204.747 132.500 L 176.002 190 188.003 190 L 200.004 190 215.736 158.517 C 224.389 141.202, 232.038 126.816, 232.734 126.549 C 233.430 126.281, 234.570 126.281, 235.266 126.549 C 235.962 126.816, 243.611 141.202, 252.264 158.517 L 267.996 190 279.997 190 L 291.998 190 263.253 132.500 C 247.443 100.875, 234.279 75, 234 75 C 233.721 75, 220.557 100.875, 204.747 132.500 M 55.213 143.315 C 45.746 152.838, 38 161.131, 38 161.743 C 38 163.175, 40.813 166, 42.239 166 C 42.841 166, 49.334 160.059, 56.667 152.798 L 70 139.595 70 196.298 L 70 253 67.750 252.985 C 62.860 252.953, 52.348 249.769, 45.603 246.278 C 28.179 237.258, 14 215.452, 14 197.677 C 14 194.888, 13.395 192.538, 12.429 191.571 C 10.444 189.587, 9.546 189.597, 7.515 191.627 C 5.669 193.474, 6.062 199.995, 8.643 210.337 C 14.654 234.423, 35.957 254.610, 60.008 259.009 C 63.579 259.662, 68.159 260.547, 70.187 260.976 C 72.215 261.405, 75.590 261.373, 77.687 260.905 C 79.784 260.437, 84.425 259.509, 88 258.843 C 97.447 257.084, 110.790 250.064, 118.637 242.723 C 131.561 230.633, 138.377 216.941, 140.463 198.877 C 140.980 194.402, 140.780 192.923, 139.485 191.627 C 138.589 190.732, 137.471 190, 137 190 C 134.878 190, 132.999 193.426, 132.985 197.321 C 132.920 215.623, 119.059 237.101, 101.397 246.268 C 94.953 249.613, 84.205 252.948, 79.750 252.985 C 78.104 252.999, 78 249.639, 78 196.298 L 78 139.595 91.333 152.798 C 98.666 160.059, 105.159 166, 105.761 166 C 107.187 166, 110 163.175, 110 161.743 C 110 159.994, 75.761 126, 74 126 C 73.134 126, 64.680 133.792, 55.213 143.315 M 383.870 127.071 C 376.345 128.176, 366.724 131.478, 360 135.262 C 352.923 139.244, 339.244 152.923, 335.262 160 C 323.005 181.779, 323.709 209.101, 337.055 229.585 C 354.259 255.991, 386.376 266.937, 416.207 256.563 C 434.026 250.366, 450.384 233.973, 456.609 216.076 C 461.721 201.376, 461.828 186.378, 456.926 171.747 C 450.779 153.399, 434.372 136.754, 416.205 130.436 C 404.801 126.471, 394.941 125.444, 383.870 127.071 M 377.500 135.870 C 357.436 141.645, 340.733 158.691, 335.585 178.644 C 333.554 186.517, 333.554 200.483, 335.585 208.356 C 340.889 228.914, 358.828 246.683, 379.103 251.463 C 399.741 256.327, 420.654 250.427, 435.541 235.541 C 450.427 220.654, 456.327 199.741, 451.463 179.103 C 446.683 158.828, 428.914 140.889, 408.356 135.585 C 400.226 133.488, 385.296 133.625, 377.500 135.870 M 204.747 196.500 L 176.002 254 234 254 L 291.998 254 263.253 196.500 C 247.443 164.875, 234.279 139, 234 139 C 233.721 139, 220.557 164.875, 204.747 196.500 M 375.282 159.282 C 365.777 168.787, 358 177.079, 358 177.710 C 358 179.173, 360.800 182, 362.249 182 C 362.857 182, 370.250 175.156, 378.677 166.792 L 394 151.584 409.323 166.792 C 417.750 175.156, 425.143 182, 425.751 182 C 427.200 182, 430 179.173, 430 177.710 C 430 176.031, 395.693 142, 394 142 C 393.210 142, 384.787 149.777, 375.282 159.282 " stroke="none" fill="black" fill-rule="evenodd"/>
</svg>