<svg xmlns="http://www.w3.org/2000/svg" width="564" height="324" viewBox="0 0 564 324" version="1.1">
	<path d="M 328.369 62.765 C 327.416 63.384, 262 193.155, 262 194.426 C 262 194.663, 262.707 195.564, 263.571 196.429 C 264.844 197.701, 267.697 198, 278.575 198 L 292.006 198 277.003 227.994 C 268.751 244.490, 262 258.183, 262 258.422 C 262 258.661, 262.707 259.564, 263.571 260.429 C 264.968 261.825, 272.372 262, 330 262 C 387.628 262, 395.032 261.825, 396.429 260.429 C 397.293 259.564, 398 258.661, 398 258.422 C 398 258.183, 391.249 244.490, 382.997 227.994 L 367.994 198 381.425 198 C 392.303 198, 395.156 197.701, 396.429 196.429 C 397.293 195.564, 398 194.663, 398 194.426 C 398 193.155, 332.584 63.384, 331.631 62.765 C 331.009 62.361, 330.275 62.031, 330 62.031 C 329.725 62.031, 328.991 62.361, 328.369 62.765 M 300.747 132.500 L 272.002 190 284.003 190 L 296.004 190 311.736 158.517 C 320.389 141.202, 328.038 126.816, 328.734 126.549 C 329.430 126.281, 330.570 126.281, 331.266 126.549 C 331.962 126.816, 339.611 141.202, 348.264 158.517 L 363.996 190 375.997 190 L 387.998 190 359.253 132.500 C 343.443 100.875, 330.279 75, 330 75 C 329.721 75, 316.557 100.875, 300.747 132.500 M 151.213 143.315 C 141.746 152.838, 134 161.131, 134 161.743 C 134 163.175, 136.813 166, 138.239 166 C 138.841 166, 145.334 160.059, 152.667 152.798 L 166 139.595 166 196.298 L 166 253 163.750 252.985 C 158.823 252.953, 148.332 249.759, 141.603 246.243 C 123.924 237.005, 110.079 215.563, 110.015 197.321 C 110.001 193.426, 108.122 190, 106 190 C 105.529 190, 104.411 190.732, 103.515 191.627 C 101.684 193.459, 102.060 199.976, 104.580 210.093 C 109.876 231.352, 127.048 249.991, 147.714 256.915 C 153.363 258.808, 166.290 261.300, 170 261.212 C 174.484 261.106, 186.168 258.663, 192.162 256.579 C 212.157 249.625, 229.218 230.927, 234.357 210.337 C 236.938 199.995, 237.331 193.474, 235.485 191.627 C 234.589 190.732, 233.471 190, 233 190 C 230.878 190, 228.999 193.426, 228.985 197.321 C 228.921 215.546, 214.957 237.187, 197.397 246.278 C 190.949 249.615, 180.195 252.948, 175.750 252.985 C 174.104 252.999, 174 249.639, 174 196.298 L 174 139.595 187.333 152.798 C 194.666 160.059, 201.159 166, 201.761 166 C 203.187 166, 206 163.175, 206 161.743 C 206 159.994, 171.761 126, 170 126 C 169.134 126, 160.680 133.792, 151.213 143.315 M 479.870 127.014 C 464.636 129.407, 453.616 135.194, 441.974 146.916 C 428.475 160.507, 422.696 174.473, 422.696 193.500 C 422.696 205.257, 424.549 213.240, 429.778 224 C 434.922 234.587, 448.441 248.092, 459 253.193 C 469.909 258.463, 477.807 260.304, 489.500 260.304 C 508.834 260.304, 522.527 254.551, 536.539 240.539 C 550.551 226.527, 556.304 212.834, 556.304 193.500 C 556.304 181.743, 554.451 173.760, 549.222 163 C 544.088 152.433, 530.567 138.912, 520 133.778 C 507.324 127.618, 492.224 125.073, 479.870 127.014 M 474.645 135.584 C 454.562 140.445, 436.305 158.877, 431.537 179.103 C 426.669 199.756, 432.589 220.738, 447.450 235.506 C 462.485 250.448, 483.273 256.324, 503.897 251.463 C 524.261 246.662, 542.662 228.261, 547.463 207.897 C 549.390 199.718, 549.390 187.282, 547.463 179.103 C 542.650 158.685, 524.315 140.350, 503.897 135.537 C 495.998 133.676, 482.439 133.697, 474.645 135.584 M 300.747 196.500 L 272.002 254 330 254 L 387.998 254 359.253 196.500 C 343.443 164.875, 330.279 139, 330 139 C 329.721 139, 316.557 164.875, 300.747 196.500 M 471.282 159.282 C 461.777 168.787, 454 177.079, 454 177.710 C 454 179.173, 456.800 182, 458.249 182 C 458.857 182, 466.250 175.156, 474.677 166.792 L 490 151.584 505.323 166.792 C 513.750 175.156, 521.143 182, 521.751 182 C 523.200 182, 526 179.173, 526 177.710 C 526 176.031, 491.693 142, 490 142 C 489.210 142, 480.787 149.777, 471.282 159.282 M 7.571 159.571 C 6.207 160.936, 6 165.463, 6 194 C 6 222.537, 6.207 227.064, 7.571 228.429 C 8.936 229.793, 13.463 230, 42 230 C 70.537 230, 75.064 229.793, 76.429 228.429 C 77.793 227.064, 78 222.537, 78 194 C 78 165.463, 77.793 160.936, 76.429 159.571 C 75.064 158.207, 70.537 158, 42 158 C 13.463 158, 8.936 158.207, 7.571 159.571 M 14 194 L 14 222 42 222 L 70 222 70 194 L 70 166 42 166 L 14 166 14 194 " stroke="none" fill="black" fill-rule="evenodd"/>
</svg>