<svg xmlns="http://www.w3.org/2000/svg" width="244" height="324" viewBox="0 0 244 324" version="1.1">
	<path d="M 167.750 127.080 C 166.138 128.019, 166 130.762, 166 161.850 C 166 186.767, 166.314 195.914, 167.200 196.800 C 168.013 197.613, 172.689 198, 181.700 198 C 189.015 198, 195 198.228, 195 198.507 C 195 198.785, 188.475 212.057, 180.500 228 C 172.525 243.943, 166 257.649, 166 258.458 C 166 260.785, 169.808 262.404, 171.663 260.865 C 172.507 260.164, 179.620 246.753, 187.468 231.063 L 201.739 202.535 216.620 232.018 C 225.171 248.961, 232.138 261.606, 233 261.749 C 237.159 262.438, 237.107 263.308, 237.043 194.436 C 236.978 123.591, 237.030 124.308, 232.117 126.938 C 230.031 128.054, 230 128.525, 230 159.035 L 230 190 202 190 L 174 190 174 160.223 C 174 134.890, 173.768 130.113, 172.443 128.223 C 170.702 125.736, 170.248 125.625, 167.750 127.080 M 218.607 219.250 C 224.446 230.938, 229.398 240.688, 229.612 240.917 C 229.825 241.146, 230 231.583, 230 219.667 L 230 198 218.995 198 L 207.991 198 218.607 219.250 M 39.571 223.571 C 38.707 224.436, 38 225.636, 38 226.239 C 38 226.841, 43.941 233.334, 51.202 240.667 L 64.405 254 36.774 254 C 12.988 254, 8.924 254.219, 7.571 255.571 C 5.596 257.546, 5.598 258.455, 7.579 260.436 C 8.990 261.847, 16.058 261.987, 74.220 261.757 C 134.934 261.517, 139.356 261.383, 140.386 259.750 C 141.191 258.474, 141.191 257.526, 140.386 256.250 C 139.386 254.663, 136.698 254.475, 111.455 254.234 L 83.627 253.968 96.814 240.651 C 104.066 233.327, 110 226.841, 110 226.239 C 110 224.817, 107.176 222, 105.751 222 C 105.143 222, 97.750 228.844, 89.323 237.208 L 74 252.416 58.677 237.208 C 50.250 228.844, 42.857 222, 42.249 222 C 41.640 222, 40.436 222.707, 39.571 223.571 " stroke="none" fill="black" fill-rule="evenodd"/>
</svg>