<svg xmlns="http://www.w3.org/2000/svg" width="212" height="324" viewBox="0 0 212 324" version="1.1">
	<path d="M 56.372 62.765 C 54.418 64.037, 38.003 97.844, 38.593 99.381 C 39.268 101.141, 41.513 102.124, 43.295 101.440 C 44.007 101.167, 47.480 95.106, 51.014 87.972 C 54.547 80.837, 57.692 75, 58.003 75 C 58.313 75, 61.252 80.432, 64.533 87.070 C 67.815 93.709, 71.222 99.795, 72.105 100.594 C 73.890 102.210, 76.550 101.615, 77.396 99.410 C 77.993 97.855, 61.631 64.022, 59.684 62.784 C 58.211 61.847, 57.786 61.845, 56.372 62.765 M 67.270 127.054 C 53.495 129.773, 43.135 139.496, 39.696 152.933 L 38.318 158.318 32.933 159.696 C 6.591 166.438, -2.302 198.858, 16.920 218.080 C 34.110 235.270, 62.307 230.372, 73.169 208.307 C 76.009 202.540, 76.399 200.762, 76.394 193.623 C 76.390 186.998, 75.908 184.453, 73.784 179.825 C 69.105 169.631, 59.172 161.220, 49.750 159.473 C 45.490 158.683, 45.368 158.212, 47.667 151.463 C 49.961 144.733, 57.018 137.819, 63.942 135.519 C 74.988 131.850, 87.632 135.036, 94.549 143.230 C 100.977 150.845, 102.325 158.570, 99.537 171.823 C 92.692 204.365, 71.774 233.722, 42.719 251.564 C 38.823 253.957, 37.990 254.963, 38.219 257 C 38.619 260.560, 41.972 260.691, 47.180 257.350 C 78.979 236.953, 99.478 207.435, 107.146 171 C 109.425 160.173, 109.084 155.219, 105.517 147.325 C 100.758 136.790, 91 129.180, 79.566 127.087 C 72.990 125.882, 73.204 125.883, 67.270 127.054 M 168.012 159.468 C 149.593 177.872, 134.386 193.343, 134.217 193.849 C 134.049 194.354, 134.638 195.495, 135.527 196.384 C 136.938 197.796, 140.707 198, 165.315 198 L 193.487 198 164.244 227.256 C 148.160 243.347, 135 257.207, 135 258.056 C 135 259.809, 136.897 262, 138.415 262 C 140.099 262, 206 195.664, 206 193.970 C 206 190.215, 204.352 190, 175.556 190 L 147.513 190 176.756 160.744 C 192.840 144.653, 206 130.719, 206 129.779 C 206 128.412, 203.315 125.989, 201.816 126.003 C 201.642 126.004, 186.430 141.064, 168.012 159.468 M 31.054 167.668 C 25.003 169.886, 17.760 177.321, 15.667 183.463 C 11.990 194.255, 14.381 205.476, 21.976 213.071 C 28.035 219.130, 34.656 221.436, 44.059 220.764 C 58.977 219.696, 68.956 208.769, 68.956 193.500 C 68.956 182.687, 64.421 174.675, 55.261 169.307 C 49.484 165.922, 37.949 165.141, 31.054 167.668 " stroke="none" fill="black" fill-rule="evenodd"/>
</svg>