<svg xmlns="http://www.w3.org/2000/svg" width="244" height="324" viewBox="0 0 244 324" version="1.1">
	<path d="M 194.355 158.986 C 183.790 161.214, 174.114 169.146, 169.329 179.500 C 165.374 188.059, 165.386 198.895, 169.361 207.610 C 172.861 215.285, 179.689 222.075, 187.480 225.629 C 195.387 229.236, 205.732 229.409, 214.297 226.077 C 221.354 223.331, 229.569 215.634, 233.056 208.500 C 235.152 204.212, 235.500 202.075, 235.500 193.500 C 235.500 181.367, 233.450 176.286, 225.353 168.339 C 217.361 160.497, 204.948 156.752, 194.355 158.986 M 191.627 167.468 C 186.247 169.386, 181.039 173.829, 177.500 179.519 C 173.527 185.908, 172.712 197.311, 175.741 204.129 C 180.389 214.589, 188.227 220.058, 199.616 220.789 C 206.399 221.224, 207.556 221.001, 213.397 218.125 C 225.374 212.229, 231.511 198.958, 228.096 186.337 C 224.933 174.647, 213.616 165.959, 201.663 166.044 C 198.273 166.068, 193.757 166.709, 191.627 167.468 M 39.230 223.285 C 20.953 241.591, 6 257.084, 6 257.713 C 6 258.342, 6.707 259.564, 7.571 260.429 C 8.968 261.825, 16.372 262, 74 262 C 131.628 262, 139.032 261.825, 140.429 260.429 C 141.293 259.564, 142 258.334, 142 257.695 C 142 255.959, 75.709 190, 73.963 190 C 73.136 190, 57.506 204.978, 39.230 223.285 M 46.500 227 L 19.514 254 74 254 L 128.486 254 101.500 227 C 86.658 212.150, 74.283 200, 74 200 C 73.717 200, 61.342 212.150, 46.500 227 M 167.585 255.558 C 166.713 256.430, 166 257.529, 166 258 C 166 258.471, 166.713 259.570, 167.585 260.442 C 168.978 261.835, 173.159 261.995, 202.226 261.763 C 232.452 261.523, 235.377 261.350, 236.386 259.750 C 237.191 258.474, 237.191 257.526, 236.386 256.250 C 235.377 254.650, 232.452 254.477, 202.226 254.237 C 173.159 254.005, 168.978 254.165, 167.585 255.558 " stroke="none" fill="black" fill-rule="evenodd"/>
</svg>