<svg xmlns="http://www.w3.org/2000/svg" width="308" height="324" viewBox="0 0 308 324" version="1.1">
	<path d="M 126.640 135.278 C 112.421 149.712, 105.326 164.330, 102.880 184.233 C 100.791 201.231, 104.501 219.287, 113.306 234.972 C 118.647 244.487, 134.795 261.317, 138.112 260.824 C 139.313 260.646, 140.792 259.695, 141.398 258.712 C 142.338 257.187, 141.533 256.057, 135.925 251.031 C 118.454 235.374, 109.898 216.461, 109.898 193.500 C 109.898 170.911, 118.679 151.203, 135.237 136.628 C 141.016 131.541, 142.035 129.435, 139.800 127.200 C 137.533 124.933, 135.759 126.021, 126.640 135.278 M 247.239 143.260 C 237.758 152.754, 230 161.288, 230 162.225 C 230 163.163, 230.939 164.432, 232.087 165.047 C 233.970 166.054, 235.537 164.813, 248.087 152.378 L 262 138.592 262 199.261 C 262 256.353, 262.105 259.986, 263.776 260.880 C 264.902 261.483, 266.182 261.478, 267.276 260.866 C 268.879 259.969, 269 255.627, 269 199.246 L 269 138.592 282.913 152.378 C 295.463 164.813, 297.030 166.054, 298.913 165.047 C 300.061 164.432, 301 163.153, 301 162.204 C 301 160.410, 267.239 126, 265.479 126 C 264.929 126, 256.721 133.767, 247.239 143.260 M 166.667 127.667 C 164.954 129.380, 166.541 132.053, 173.106 138.510 C 183.901 149.127, 189.591 158.464, 194.145 173.035 C 197.508 183.792, 197.508 203.190, 194.146 214 C 189.497 228.950, 180.970 242.207, 170.324 251.037 C 165.714 254.860, 164.794 256.301, 165.609 258.423 C 166.499 260.743, 169.110 261.158, 171.788 259.404 C 176.752 256.151, 186.933 244.880, 191.443 237.644 C 200.675 222.832, 204.607 207.271, 203.775 188.843 C 202.849 168.340, 194.684 149.986, 179.757 134.851 C 172.450 127.442, 168.861 125.472, 166.667 127.667 M 35.045 159.064 C 18.390 162.436, 6.748 176.604, 6.748 193.500 C 6.748 218.158, 31.175 234.873, 54.297 226.037 C 61.349 223.341, 69.547 215.678, 73.056 208.500 C 75.152 204.212, 75.500 202.075, 75.500 193.500 C 75.500 181.464, 73.483 176.393, 65.518 168.404 C 57.830 160.692, 45.567 156.933, 35.045 159.064 M 146 159.358 C 138.858 160.980, 134.759 163.210, 128.972 168.623 C 114.895 181.790, 114.902 205.216, 128.987 218.392 C 134.946 223.965, 139.990 226.547, 147.616 227.930 C 162.241 230.582, 176.713 223.395, 184.070 209.826 C 187.326 203.820, 187.500 202.994, 187.499 193.500 C 187.499 184.448, 187.227 182.979, 184.639 178 C 177.159 163.615, 161.188 155.909, 146 159.358 M 31.627 167.468 C 26.302 169.367, 21.047 173.815, 17.618 179.328 C 14.254 184.737, 13.041 194.780, 14.916 201.708 C 16.446 207.361, 21.544 213.823, 27.266 217.361 C 33.398 221.152, 43.268 222.068, 50.852 219.549 C 56.768 217.584, 63.558 211.496, 66.523 205.500 C 69.293 199.895, 69.292 187.102, 66.521 181.500 C 63.571 175.538, 57.083 169.557, 51.504 167.656 C 45.655 165.663, 36.923 165.580, 31.627 167.468 M 142.363 167.922 C 132.097 172.584, 125.750 182.356, 125.750 193.500 C 125.750 209.123, 137.525 220.926, 153.163 220.978 C 174.414 221.048, 187.559 198.715, 177.351 179.882 C 174.427 174.487, 168.618 169.514, 162.684 167.326 C 157.616 165.457, 147.113 165.766, 142.363 167.922 M 7.571 223.571 C 6.707 224.436, 6 225.636, 6 226.239 C 6 226.841, 11.941 233.334, 19.202 240.667 L 32.405 254 20.774 254 C 11.534 254, 8.820 254.323, 7.571 255.571 C 5.595 257.548, 5.598 258.455, 7.585 260.442 C 8.978 261.835, 13.159 261.995, 42.226 261.763 C 72.452 261.523, 75.377 261.350, 76.386 259.750 C 77.189 258.476, 77.190 257.524, 76.389 256.250 C 75.478 254.800, 73.303 254.414, 63.714 254 L 52.139 253.500 64.524 240.500 C 71.336 233.350, 76.930 226.803, 76.955 225.950 C 77.005 224.224, 75.129 222, 73.623 222 C 73.085 222, 65.750 228.844, 57.323 237.208 L 42 252.416 26.677 237.208 C 18.250 228.844, 10.857 222, 10.249 222 C 9.640 222, 8.436 222.707, 7.571 223.571 " stroke="none" fill="black" fill-rule="evenodd"/>
</svg>