<svg xmlns="http://www.w3.org/2000/svg" width="276" height="324" viewBox="0 0 276 324" version="1.1">
	<path d="M 55.571 63.571 C 54.707 64.436, 54 65.332, 54 65.564 C 54 67.123, 71.710 101.058, 72.727 101.449 C 73.427 101.717, 74.573 101.717, 75.273 101.449 C 77.129 100.736, 94.063 66.328, 93.403 64.609 C 92.732 62.858, 90.483 61.877, 88.705 62.560 C 87.993 62.833, 84.520 68.894, 80.986 76.028 C 77.453 83.163, 74.308 89, 73.997 89 C 73.687 89, 70.748 83.534, 67.467 76.853 C 59.925 61.499, 58.847 60.296, 55.571 63.571 M 7.571 127.571 C 6.206 128.937, 6 133.497, 6 162.371 C 6 186.883, 6.315 195.915, 7.200 196.800 C 8.081 197.681, 16.578 198, 39.200 198 L 70 198 70 228.429 C 70 254.758, 70.212 259.069, 71.571 260.429 C 73.545 262.402, 74.455 262.402, 76.429 260.429 C 77.824 259.034, 78 251.848, 78 196.429 C 78 142.545, 78.199 134, 79.451 134 C 83.741 134, 92.484 136.649, 100 140.225 C 118.621 149.087, 133 170.836, 133 190.139 C 133 193.095, 133.587 195.444, 134.571 196.429 C 136.561 198.418, 137.453 198.404, 139.509 196.348 C 142.689 193.168, 139.375 175.518, 133.249 163 C 128.086 152.451, 114.549 138.914, 104 133.751 C 93.242 128.486, 85.274 126.624, 73.500 126.624 C 61.745 126.624, 53.708 128.497, 43.194 133.687 C 34.777 137.842, 22.778 148.473, 17.769 156.214 L 14.500 161.265 14 144.594 C 13.600 131.252, 13.200 127.734, 12 126.977 C 9.946 125.681, 9.386 125.757, 7.571 127.571 M 263.571 127.571 C 262.175 128.968, 262 136.372, 262 194 C 262 251.628, 262.175 259.032, 263.571 260.429 C 264.436 261.293, 265.529 262, 266 262 C 266.471 262, 267.564 261.293, 268.429 260.429 C 269.825 259.032, 270 251.628, 270 194 C 270 136.372, 269.825 128.968, 268.429 127.571 C 267.564 126.707, 266.471 126, 266 126 C 265.529 126, 264.436 126.707, 263.571 127.571 M 59.217 135.449 C 42.756 139.435, 27.478 151.839, 20.165 167.154 C 16.488 174.855, 14 183.288, 14 188.049 C 14 189.937, 14.902 190, 42 190 L 70 190 70 162 L 70 134 67.250 134.085 C 65.737 134.132, 62.123 134.746, 59.217 135.449 M 167.571 159.571 C 165.215 161.927, 165.215 210.073, 167.571 212.429 C 168.436 213.293, 169.529 214, 170 214 C 170.471 214, 171.564 213.293, 172.429 212.429 C 174.785 210.073, 174.785 161.927, 172.429 159.571 C 171.564 158.707, 170.471 158, 170 158 C 169.529 158, 168.436 158.707, 167.571 159.571 M 207.308 199.308 C 202.188 204.427, 198 209.120, 198 209.736 C 198 211.121, 200.789 214, 202.131 214 C 202.675 214, 205.568 211.685, 208.560 208.855 L 214 203.710 214 228.855 L 214 254 207.571 254 C 203.061 254, 200.674 254.469, 199.571 255.571 C 197.598 257.545, 197.598 258.455, 199.571 260.429 C 200.876 261.733, 204.009 262, 218 262 C 231.991 262, 235.124 261.733, 236.429 260.429 C 238.402 258.455, 238.402 257.545, 236.429 255.571 C 235.326 254.469, 232.939 254, 228.429 254 L 222 254 222 223.571 C 222 197.242, 221.788 192.931, 220.429 191.571 C 219.564 190.707, 218.353 190, 217.736 190 C 217.120 190, 212.427 194.188, 207.308 199.308 M 167.571 222.571 C 166.707 223.436, 166 224.529, 166 225 C 166 225.471, 166.707 226.564, 167.571 227.429 C 168.436 228.293, 169.529 229, 170 229 C 170.471 229, 171.564 228.293, 172.429 227.429 C 173.293 226.564, 174 225.471, 174 225 C 174 224.529, 173.293 223.436, 172.429 222.571 C 171.564 221.707, 170.471 221, 170 221 C 169.529 221, 168.436 221.707, 167.571 222.571 " stroke="none" fill="black" fill-rule="evenodd"/>
</svg>