<svg xmlns="http://www.w3.org/2000/svg" width="212" height="324" viewBox="0 0 212 324" version="1.1">
	<path d="M 67 126.580 C 49.071 129.609, 38.129 134.764, 27.164 145.349 C 15.107 156.987, 8.421 170.983, 6.503 188.598 C 5.964 193.549, 6.150 195.007, 7.491 196.348 C 9.547 198.404, 10.439 198.418, 12.429 196.429 C 13.404 195.453, 14.006 193.082, 14.015 190.179 C 14.091 166.127, 34.559 141.323, 59.103 135.537 C 67.422 133.577, 80.634 133.591, 88.269 135.570 C 112.793 141.924, 133 166.056, 133 188.988 C 133 193.308, 135.075 198, 136.985 198 C 137.465 198, 138.614 197.243, 139.540 196.317 C 143.184 192.673, 138.489 171.177, 131.522 159.606 C 122.371 144.410, 107.070 132.857, 90.500 128.632 C 84.129 127.008, 71.167 125.876, 67 126.580 M 168.200 159.200 C 166.492 160.908, 166.492 211.092, 168.200 212.800 C 169.781 214.381, 170.543 214.315, 172.429 212.429 C 174.785 210.073, 174.785 161.927, 172.429 159.571 C 170.543 157.685, 169.781 157.619, 168.200 159.200 M 168.200 222.200 C 166.111 224.289, 167.447 229, 170.129 229 C 171.139 229, 174 226.044, 174 225 C 174 223.956, 171.139 221, 170.129 221 C 169.728 221, 168.860 221.540, 168.200 222.200 " stroke="none" fill="black" fill-rule="evenodd"/>
</svg>