<svg xmlns="http://www.w3.org/2000/svg" width="212" height="324" viewBox="0 0 212 324" version="1.1">
	<path d="M 129.024 159.552 C 108.355 165.300, 97.503 186.433, 105.005 206.328 C 110.674 221.364, 128.202 231.164, 143.705 227.965 C 151.269 226.404, 156.209 223.820, 162.013 218.392 C 176.043 205.267, 176.119 182.375, 162.176 168.689 C 153.359 160.034, 140.267 156.425, 129.024 159.552 M 128.316 167.266 C 117.333 171.522, 110 182.025, 110 193.500 C 110 205.574, 118.421 216.894, 129.769 220.074 C 136.182 221.872, 146.027 220.760, 151.355 217.638 C 166.444 208.795, 169.869 188.619, 158.553 175.230 C 153.619 169.393, 147.715 166.694, 139.117 166.343 C 134.693 166.163, 130.165 166.550, 128.316 167.266 M 7.571 191.571 C 6.707 192.436, 6 193.640, 6 194.249 C 6 194.857, 12.844 202.250, 21.208 210.677 L 36.416 226 21.208 241.323 C 12.844 249.750, 6 257.143, 6 257.751 C 6 259.181, 8.819 262, 10.249 262 C 10.857 262, 18.250 255.156, 26.677 246.792 L 42 231.584 57.323 246.792 C 65.750 255.156, 73.143 262, 73.751 262 C 75.181 262, 78 259.181, 78 257.751 C 78 257.143, 71.156 249.750, 62.792 241.323 L 47.584 226 62.792 210.677 C 71.156 202.250, 78 194.857, 78 194.249 C 78 192.819, 75.181 190, 73.751 190 C 73.143 190, 65.750 196.844, 57.323 205.208 L 42 220.416 26.677 205.208 C 18.250 196.844, 10.857 190, 10.249 190 C 9.640 190, 8.436 190.707, 7.571 191.571 M 136.200 191.200 C 134.111 193.289, 135.447 198, 138.129 198 C 139.139 198, 142 195.044, 142 194 C 142 192.956, 139.139 190, 138.129 190 C 137.728 190, 136.860 190.540, 136.200 191.200 M 200.200 191.200 C 197.181 194.219, 200.247 199.008, 203.936 197.034 C 206.536 195.643, 206.606 192.395, 204.066 191.035 C 201.655 189.745, 201.655 189.745, 200.200 191.200 " stroke="none" fill="black" fill-rule="evenodd"/>
</svg>