<svg xmlns="http://www.w3.org/2000/svg" width="244" height="324" viewBox="0 0 244 324" version="1.1">
	<path d="M 103.616 127.527 C 102.727 128.416, 102 129.657, 102 130.285 C 102 130.913, 116.053 145.506, 133.229 162.713 L 164.458 194 133.229 225.287 C 116.053 242.494, 102 257.087, 102 257.715 C 102 259.206, 104.983 262.174, 106.100 261.795 C 107.231 261.411, 174 194.745, 174 194 C 174 193.255, 107.231 126.589, 106.100 126.205 C 105.623 126.043, 104.505 126.638, 103.616 127.527 M 167.616 127.527 C 166.727 128.416, 166 129.657, 166 130.285 C 166 130.913, 180.053 145.506, 197.229 162.713 L 228.458 194 197.229 225.287 C 180.053 242.494, 166 257.087, 166 257.715 C 166 259.206, 168.983 262.174, 170.099 261.795 C 172.193 261.083, 237 195.410, 237 194 C 237 192.590, 172.193 126.917, 170.099 126.205 C 169.622 126.043, 168.505 126.638, 167.616 127.527 M 40.370 190.765 C 38.401 192.045, 6.007 257.855, 6.594 259.384 C 7.265 261.133, 9.512 262.124, 11.274 261.448 C 11.975 261.180, 19.056 247.919, 27.010 231.980 C 34.964 216.041, 41.710 203, 42 203 C 42.290 203, 49.036 216.041, 56.990 231.980 C 64.944 247.919, 72.083 261.201, 72.853 261.497 C 74.717 262.213, 77 260.217, 77 257.871 C 77 255.637, 45.272 191.833, 43.630 190.765 C 43.009 190.361, 42.275 190.031, 42 190.031 C 41.725 190.031, 40.991 190.361, 40.370 190.765 " stroke="none" fill="black" fill-rule="evenodd"/>
</svg>