<svg xmlns="http://www.w3.org/2000/svg" width="403" height="324" viewBox="0 0 403 324" version="1.1">
	<path d="M 40.372 62.765 C 38.418 64.037, 22.003 97.844, 22.593 99.381 C 23.268 101.141, 25.513 102.124, 27.295 101.440 C 28.007 101.167, 31.480 95.106, 35.014 87.972 C 38.547 80.837, 41.691 75, 42 75 C 42.309 75, 45.453 80.837, 48.986 87.972 C 52.520 95.106, 56.050 101.189, 56.832 101.489 C 58.716 102.212, 61 100.227, 61 97.866 C 61 95.626, 45.264 63.831, 43.628 62.765 C 43.008 62.361, 42.275 62.031, 42 62.031 C 41.725 62.031, 40.992 62.361, 40.372 62.765 M 103.616 127.527 C 102.727 128.416, 102 129.657, 102 130.285 C 102 130.913, 116.053 145.506, 133.229 162.713 L 164.458 194 133.229 225.287 C 116.053 242.494, 102 257.087, 102 257.715 C 102 259.206, 104.983 262.174, 106.100 261.795 C 107.231 261.411, 174 194.745, 174 194 C 174 193.255, 107.231 126.589, 106.100 126.205 C 105.623 126.043, 104.505 126.638, 103.616 127.527 M 167.571 127.571 C 166.707 128.436, 166 129.657, 166 130.285 C 166 130.913, 180.053 145.506, 197.229 162.713 L 228.458 194 197.229 225.287 C 180.053 242.494, 166 257.087, 166 257.715 C 166 258.956, 168.719 262, 169.827 262 C 171.243 262, 237 195.423, 237 193.989 C 237 192.562, 171.226 126, 169.816 126 C 169.446 126, 168.436 126.707, 167.571 127.571 M 319.531 127.067 C 291.403 131.384, 269.346 152.352, 263.583 180.254 C 261.336 191.130, 261.480 195.651, 264.117 197.062 C 267.374 198.806, 268.575 196.650, 269.916 186.650 C 271.860 172.159, 277.316 160.860, 287.088 151.088 C 297.948 140.228, 309.914 135.059, 326.012 134.275 C 344.154 133.391, 358.831 138.900, 371.146 151.215 C 381.449 161.518, 388.919 178.689, 388.983 192.215 C 389.002 196.428, 391.359 198.498, 394.276 196.866 C 398.091 194.731, 395.123 176.088, 388.982 163.615 C 376.508 138.277, 347.150 122.828, 319.531 127.067 M 40.370 190.765 C 38.401 192.045, 6.007 257.855, 6.594 259.384 C 7.265 261.133, 9.512 262.124, 11.274 261.448 C 11.975 261.180, 19.056 247.919, 27.010 231.980 C 34.964 216.041, 41.710 203, 42 203 C 42.290 203, 49.036 216.041, 56.990 231.980 C 64.944 247.919, 72.083 261.201, 72.853 261.497 C 74.717 262.213, 77 260.217, 77 257.871 C 77 255.637, 45.272 191.833, 43.630 190.765 C 43.009 190.361, 42.275 190.031, 42 190.031 C 41.725 190.031, 40.991 190.361, 40.370 190.765 M 295.750 191.080 C 293.422 192.436, 293.524 195.675, 295.934 196.965 C 296.998 197.534, 303.523 198, 310.434 198 C 317.345 198, 323 198.223, 323 198.496 C 323 198.768, 316.365 212.269, 308.257 228.498 C 296.169 252.690, 293.712 258.320, 294.616 259.752 C 295.629 261.360, 298.432 261.500, 329.500 261.500 C 360.568 261.500, 363.371 261.360, 364.384 259.752 C 365.288 258.320, 362.831 252.690, 350.743 228.498 C 342.635 212.269, 336 198.768, 336 198.496 C 336 198.223, 341.655 198, 348.566 198 C 361.724 198, 365 197.203, 365 194 C 365 192.939, 364.130 191.605, 363.066 191.035 C 360.463 189.642, 298.147 189.684, 295.750 191.080 M 316.744 227.500 C 309.735 241.531, 304 253.233, 304 253.505 C 304 253.777, 315.475 254, 329.500 254 C 343.525 254, 354.976 253.662, 354.946 253.250 C 354.917 252.838, 349.176 241.135, 342.190 227.245 L 329.487 201.989 316.744 227.500 " stroke="none" fill="black" fill-rule="evenodd"/>
</svg>