<svg xmlns="http://www.w3.org/2000/svg" width="244" height="324" viewBox="0 0 244 324" version="1.1">
	<path d="M 135.285 159.230 C 116.978 177.506, 102 193.153, 102 194 C 102 195.674, 167.920 262, 169.585 262 C 171.103 262, 173 259.809, 173 258.056 C 173 257.207, 158.940 242.447, 141.756 225.256 L 110.512 194 141.756 162.744 C 158.940 145.553, 173 130.793, 173 129.944 C 173 128.191, 171.103 126, 169.585 126 C 169.026 126, 153.591 140.953, 135.285 159.230 M 199.285 159.230 C 180.978 177.506, 166 193.153, 166 194 C 166 195.674, 231.920 262, 233.585 262 C 235.103 262, 237 259.809, 237 258.056 C 237 257.207, 222.940 242.447, 205.756 225.256 L 174.512 194 205.756 162.744 C 222.940 145.553, 237 130.793, 237 129.944 C 237 128.191, 235.103 126, 233.585 126 C 233.026 126, 217.591 140.953, 199.285 159.230 M 35.045 159.064 C 13.497 163.427, 1.173 185.901, 9.037 206.493 C 12.164 214.680, 20.320 222.836, 28.507 225.963 C 36.625 229.063, 46.366 229.065, 54.500 225.966 C 62.548 222.901, 70.935 214.461, 73.955 206.392 C 76.864 198.616, 76.864 188.384, 73.955 180.608 C 68.393 165.742, 50.631 155.907, 35.045 159.064 M 31.627 167.408 C 21.770 171.075, 15.005 180.157, 14.256 190.731 C 13.662 199.129, 15.100 204.665, 19.312 210.187 C 24.335 216.772, 30.610 220.168, 38.847 220.757 C 48.352 221.437, 54.942 219.153, 61.024 213.071 C 73.836 200.259, 70.989 178.524, 55.293 169.326 C 49.680 166.037, 37.885 165.081, 31.627 167.408 " stroke="none" fill="black" fill-rule="evenodd"/>
</svg>