<svg xmlns="http://www.w3.org/2000/svg" width="180" height="324" viewBox="0 0 180 324" version="1.1">
	<path d="M 23.200 63.200 C 21.512 64.888, 21.512 99.112, 23.200 100.800 C 24.888 102.488, 59.112 102.488, 60.800 100.800 C 62.488 99.112, 62.488 64.888, 60.800 63.200 C 59.112 61.512, 24.888 61.512, 23.200 63.200 M 30 82 L 30 94 42 94 L 54 94 54 82 L 54 70 42 70 L 30 70 30 82 M 7.571 127.571 C 6.707 128.436, 6 129.529, 6 130 C 6 130.471, 6.707 131.564, 7.571 132.429 C 8.855 133.712, 11.788 134, 23.571 134 L 38 134 38 162 L 38 190 23.571 190 C 11.788 190, 8.855 190.288, 7.571 191.571 C 5.598 193.545, 5.598 194.455, 7.571 196.429 C 8.855 197.712, 11.788 198, 23.571 198 L 38 198 38 226 L 38 254 23.571 254 C 11.788 254, 8.855 254.288, 7.571 255.571 C 5.598 257.545, 5.598 258.455, 7.571 260.429 C 8.936 261.793, 13.463 262, 42 262 C 70.537 262, 75.064 261.793, 76.429 260.429 C 78.402 258.455, 78.402 257.545, 76.429 255.571 C 75.145 254.288, 72.212 254, 60.429 254 L 46 254 46 226 L 46 198 60.429 198 C 72.212 198, 75.145 197.712, 76.429 196.429 C 78.402 194.455, 78.402 193.545, 76.429 191.571 C 75.145 190.288, 72.212 190, 60.429 190 L 46 190 46 162 L 46 134 60.429 134 C 72.212 134, 75.145 133.712, 76.429 132.429 C 77.293 131.564, 78 130.471, 78 130 C 78 129.529, 77.293 128.436, 76.429 127.571 C 75.064 126.207, 70.537 126, 42 126 C 13.463 126, 8.936 126.207, 7.571 127.571 M 103.571 127.571 C 102.707 128.436, 102 129.529, 102 130 C 102 130.471, 102.707 131.564, 103.571 132.429 C 104.936 133.793, 109.463 134, 138 134 C 166.537 134, 171.064 133.793, 172.429 132.429 C 173.293 131.564, 174 130.471, 174 130 C 174 129.529, 173.293 128.436, 172.429 127.571 C 171.064 126.207, 166.537 126, 138 126 C 109.463 126, 104.936 126.207, 103.571 127.571 M 103.571 255.571 C 102.707 256.436, 102 257.529, 102 258 C 102 258.471, 102.707 259.564, 103.571 260.429 C 104.936 261.793, 109.463 262, 138 262 C 166.537 262, 171.064 261.793, 172.429 260.429 C 173.293 259.564, 174 258.471, 174 258 C 174 257.529, 173.293 256.436, 172.429 255.571 C 171.064 254.207, 166.537 254, 138 254 C 109.463 254, 104.936 254.207, 103.571 255.571 " stroke="none" fill="black" fill-rule="evenodd"/>
</svg>