<svg xmlns="http://www.w3.org/2000/svg" width="308" height="324" viewBox="0 0 308 324" version="1.1">
	<path d="M 23.200 63.200 C 21.512 64.888, 21.512 99.112, 23.200 100.800 C 24.040 101.640, 29.562 102, 41.629 102 C 55.958 102, 59.122 101.736, 60.429 100.429 C 62.757 98.100, 62.757 65.900, 60.429 63.571 C 59.122 62.264, 55.958 62, 41.629 62 C 29.562 62, 24.040 62.360, 23.200 63.200 M 30 82 L 30 94 42 94 L 54 94 54 82 L 54 70 42 70 L 30 70 30 82 M 7.571 127.571 C 6.707 128.436, 6 129.529, 6 130 C 6 130.471, 6.707 131.564, 7.571 132.429 C 8.855 133.712, 11.788 134, 23.571 134 L 38 134 38 162 L 38 190 23.571 190 C 11.788 190, 8.855 190.288, 7.571 191.571 C 5.598 193.545, 5.598 194.455, 7.571 196.429 C 8.855 197.712, 11.788 198, 23.571 198 L 38 198 38 226 L 38 254 23.571 254 C 11.788 254, 8.855 254.288, 7.571 255.571 C 5.598 257.545, 5.598 258.455, 7.571 260.429 C 8.936 261.793, 13.463 262, 42 262 C 70.537 262, 75.064 261.793, 76.429 260.429 C 78.402 258.455, 78.402 257.545, 76.429 255.571 C 75.145 254.288, 72.212 254, 60.429 254 L 46 254 46 226 L 46 198 60.429 198 C 72.212 198, 75.145 197.712, 76.429 196.429 C 78.402 194.455, 78.402 193.545, 76.429 191.571 C 75.145 190.288, 72.212 190, 60.429 190 L 46 190 46 162 L 46 134 60.429 134 C 72.212 134, 75.145 133.712, 76.429 132.429 C 77.293 131.564, 78 130.471, 78 130 C 78 129.529, 77.293 128.436, 76.429 127.571 C 75.064 126.207, 70.537 126, 42 126 C 13.463 126, 8.936 126.207, 7.571 127.571 M 103.750 127.080 C 101.422 128.436, 101.524 131.675, 103.934 132.965 C 105.207 133.646, 126.597 134, 166.434 134 C 199.745 134, 227 134.223, 227 134.495 C 227 134.768, 220.816 147.368, 213.258 162.495 L 199.517 190 184.693 190 C 169.298 190, 166 190.706, 166 194 C 166 197.203, 169.276 198, 182.434 198 C 189.345 198, 195 198.223, 195 198.496 C 195 198.768, 188.365 212.269, 180.257 228.498 C 168.169 252.690, 165.712 258.320, 166.616 259.752 C 167.629 261.360, 170.432 261.500, 201.500 261.500 C 232.586 261.500, 235.370 261.360, 236.386 259.750 C 237.191 258.474, 237.191 257.526, 236.386 256.250 C 235.382 254.658, 232.613 254.476, 205.645 254.235 L 176.008 253.970 190.007 225.985 L 204.007 198 246.240 198 L 288.472 198 275.136 211.363 C 261.619 224.909, 260.384 226.953, 264.247 229.386 C 265.742 230.327, 268.510 227.971, 283.497 213.003 C 293.123 203.388, 301 194.837, 301 194 C 301 193.163, 293.123 184.612, 283.497 174.997 C 268.510 160.029, 265.742 157.673, 264.247 158.614 C 260.384 161.047, 261.619 163.091, 275.136 176.637 L 288.472 190 248.233 190 L 207.993 190 222.497 161.007 C 230.473 145.060, 237 131.200, 237 130.207 C 237 129.213, 236.460 127.860, 235.800 127.200 C 234.229 125.629, 106.440 125.513, 103.750 127.080 " stroke="none" fill="black" fill-rule="evenodd"/>
</svg>