<svg xmlns="http://www.w3.org/2000/svg" width="340" height="324" viewBox="0 0 340 324" version="1.1">
	<path d="M 39.571 127.571 C 38.176 128.966, 38 136.152, 38 191.571 L 38 254 23.571 254 C 11.788 254, 8.855 254.288, 7.571 255.571 C 5.598 257.545, 5.598 258.455, 7.571 260.429 C 8.936 261.793, 13.463 262, 42 262 C 70.537 262, 75.064 261.793, 76.429 260.429 C 77.293 259.564, 78 258.471, 78 258 C 78 257.529, 77.293 256.436, 76.429 255.571 C 75.145 254.288, 72.212 254, 60.429 254 L 46 254 46 191.571 C 46 136.152, 45.824 128.966, 44.429 127.571 C 43.564 126.707, 42.471 126, 42 126 C 41.529 126, 40.436 126.707, 39.571 127.571 M 199.616 127.527 C 198.727 128.416, 198 129.657, 198 130.285 C 198 130.913, 212.053 145.506, 229.229 162.713 L 260.458 194 229.229 225.287 C 212.053 242.494, 198 257.087, 198 257.715 C 198 259.201, 200.982 262.175, 202.089 261.795 C 203.273 261.388, 270 194.775, 270 194 C 270 193.225, 203.273 126.612, 202.089 126.205 C 201.618 126.043, 200.505 126.638, 199.616 127.527 M 263.616 127.527 C 262.727 128.416, 262 129.657, 262 130.285 C 262 130.913, 276.053 145.506, 293.229 162.713 L 324.458 194 293.229 225.287 C 276.053 242.494, 262 257.087, 262 257.715 C 262 259.206, 264.983 262.174, 266.100 261.795 C 267.231 261.411, 334 194.745, 334 194 C 334 193.255, 267.231 126.589, 266.100 126.205 C 265.623 126.043, 264.505 126.638, 263.616 127.527 M 136.348 190.765 C 134.390 192.014, 102.011 257.865, 102.600 259.400 C 103.266 261.135, 105.518 262.122, 107.274 261.448 C 107.975 261.180, 115.056 247.919, 123.010 231.980 C 130.964 216.041, 137.710 203, 138 203 C 138.290 203, 145.036 216.041, 152.990 231.980 C 160.944 247.919, 168.083 261.201, 168.853 261.497 C 170.717 262.213, 173 260.217, 173 257.871 C 173 255.637, 141.272 191.833, 139.630 190.765 C 139.009 190.361, 138.275 190.031, 138 190.031 C 137.725 190.031, 136.981 190.361, 136.348 190.765 " stroke="none" fill="black" fill-rule="evenodd"/>
</svg>