<svg xmlns="http://www.w3.org/2000/svg" width="244" height="324" viewBox="0 0 244 324" version="1.1">
	<path d="M 40.372 62.765 C 38.418 64.037, 22.003 97.844, 22.593 99.381 C 23.449 101.612, 26.101 102.219, 27.895 100.594 C 28.778 99.795, 32.185 93.709, 35.467 87.070 C 38.748 80.432, 41.687 75, 41.997 75 C 42.308 75, 45.453 80.837, 48.986 87.972 C 52.520 95.106, 56.050 101.189, 56.832 101.489 C 58.716 102.212, 61 100.227, 61 97.866 C 61 95.626, 45.264 63.831, 43.628 62.765 C 43.008 62.361, 42.275 62.031, 42 62.031 C 41.725 62.031, 40.992 62.361, 40.372 62.765 M 103.616 127.527 C 102.727 128.416, 102 129.657, 102 130.285 C 102 130.913, 116.053 145.506, 133.229 162.713 L 164.458 194 133.229 225.287 C 116.053 242.494, 102 257.087, 102 257.715 C 102 259.206, 104.983 262.174, 106.100 261.795 C 107.231 261.411, 174 194.745, 174 194 C 174 193.255, 107.231 126.589, 106.100 126.205 C 105.623 126.043, 104.505 126.638, 103.616 127.527 M 167.616 127.527 C 166.727 128.416, 166 129.657, 166 130.285 C 166 130.913, 180.053 145.506, 197.229 162.713 L 228.458 194 197.229 225.287 C 180.053 242.494, 166 257.087, 166 257.715 C 166 259.206, 168.983 262.174, 170.099 261.795 C 172.193 261.083, 237 195.410, 237 194 C 237 192.590, 172.193 126.917, 170.099 126.205 C 169.622 126.043, 168.505 126.638, 167.616 127.527 M 35.045 159.064 C 13.497 163.427, 1.173 185.901, 9.037 206.493 C 12.164 214.680, 20.320 222.836, 28.507 225.963 C 36.625 229.063, 46.366 229.065, 54.500 225.966 C 62.548 222.901, 70.935 214.461, 73.955 206.392 C 76.864 198.616, 76.864 188.384, 73.955 180.608 C 68.393 165.742, 50.631 155.907, 35.045 159.064 M 31.627 167.408 C 21.770 171.075, 15.005 180.157, 14.256 190.731 C 13.662 199.129, 15.100 204.665, 19.312 210.187 C 24.335 216.772, 30.610 220.168, 38.847 220.757 C 48.352 221.437, 54.942 219.153, 61.024 213.071 C 73.836 200.259, 70.989 178.524, 55.293 169.326 C 49.680 166.037, 37.885 165.081, 31.627 167.408 " stroke="none" fill="black" fill-rule="evenodd"/>
</svg>