<svg xmlns="http://www.w3.org/2000/svg" width="340" height="324" viewBox="0 0 340 324" version="1.1">
	<path d="M 39.571 127.571 C 38.176 128.966, 38 136.152, 38 191.571 L 38 254 23.571 254 C 11.788 254, 8.855 254.288, 7.571 255.571 C 5.598 257.545, 5.598 258.455, 7.571 260.429 C 8.936 261.793, 13.463 262, 42 262 C 70.537 262, 75.064 261.793, 76.429 260.429 C 77.293 259.564, 78 258.471, 78 258 C 78 257.529, 77.293 256.436, 76.429 255.571 C 75.145 254.288, 72.212 254, 60.429 254 L 46 254 46 191.571 C 46 136.152, 45.824 128.966, 44.429 127.571 C 43.564 126.707, 42.471 126, 42 126 C 41.529 126, 40.436 126.707, 39.571 127.571 M 199.616 127.527 C 198.727 128.416, 198 129.657, 198 130.285 C 198 130.913, 212.053 145.506, 229.229 162.713 L 260.458 194 229.229 225.287 C 212.053 242.494, 198 257.087, 198 257.715 C 198 259.201, 200.982 262.175, 202.089 261.795 C 203.273 261.388, 270 194.775, 270 194 C 270 193.225, 203.273 126.612, 202.089 126.205 C 201.618 126.043, 200.505 126.638, 199.616 127.527 M 263.616 127.527 C 262.727 128.416, 262 129.657, 262 130.285 C 262 130.913, 276.053 145.506, 293.229 162.713 L 324.458 194 293.229 225.287 C 276.053 242.494, 262 257.087, 262 257.715 C 262 259.206, 264.983 262.174, 266.100 261.795 C 267.231 261.411, 334 194.745, 334 194 C 334 193.255, 267.231 126.589, 266.100 126.205 C 265.623 126.043, 264.505 126.638, 263.616 127.527 M 129.384 159.357 C 118.714 162.060, 109.962 169.484, 105.191 179.880 C 101.513 187.892, 101.524 199.131, 105.216 207.175 C 116.890 232.609, 150.490 236.044, 166.072 213.396 C 170.401 207.103, 172.099 201.486, 172.106 193.436 C 172.114 183.232, 169.154 175.994, 162.080 168.920 C 153.351 160.191, 140.699 156.491, 129.384 159.357 M 127.627 167.468 C 122.247 169.386, 117.039 173.829, 113.500 179.519 C 110.969 183.589, 110.444 185.570, 110.143 192.193 C 109.830 199.089, 110.110 200.705, 112.454 205.496 C 120.271 221.473, 141 226.089, 155.031 214.976 C 160.751 210.445, 165 201.292, 165 193.500 C 165 182.038, 157.486 171.200, 146.965 167.488 C 141.743 165.645, 132.766 165.636, 127.627 167.468 " stroke="none" fill="black" fill-rule="evenodd"/>
</svg>