<svg xmlns="http://www.w3.org/2000/svg" width="308" height="324" viewBox="0 0 308 324" version="1.1">
	<path d="M 231.247 191.253 C 195.361 227.142, 166 257.237, 166 258.130 C 166 259.024, 166.613 260.263, 167.361 260.885 C 168.349 261.705, 186.615 261.944, 234.002 261.757 C 294.924 261.517, 299.356 261.383, 300.386 259.750 C 301.191 258.474, 301.191 257.526, 300.386 256.250 C 299.361 254.624, 295.013 254.465, 239.138 254 L 178.993 253.500 239.997 192.503 C 273.548 158.955, 301 130.807, 301 129.953 C 301 128.174, 299.101 126, 297.547 126 C 296.968 126, 267.133 155.364, 231.247 191.253 M 7.571 159.571 C 6.207 160.936, 6 165.463, 6 194 C 6 222.537, 6.207 227.064, 7.571 228.429 C 9.545 230.402, 10.455 230.402, 12.429 228.429 C 13.712 227.145, 14 224.212, 14 212.429 L 14 198 42 198 L 70 198 70 212.429 C 70 224.212, 70.288 227.145, 71.571 228.429 C 72.436 229.293, 73.529 230, 74 230 C 74.471 230, 75.564 229.293, 76.429 228.429 C 77.712 227.145, 78 224.212, 78 212.429 L 78 198 106 198 L 134 198 134 212.965 C 134 227.181, 134.106 227.986, 136.117 229.062 C 140.830 231.585, 141.043 230.068, 141.043 194 C 141.043 157.932, 140.830 156.415, 136.117 158.938 C 134.106 160.014, 134 160.819, 134 175.035 L 134 190 106 190 L 78 190 78 175.571 C 78 163.788, 77.712 160.855, 76.429 159.571 C 74.455 157.598, 73.545 157.598, 71.571 159.571 C 70.288 160.855, 70 163.788, 70 175.571 L 70 190 42 190 L 14 190 14 175.571 C 14 163.788, 13.712 160.855, 12.429 159.571 C 11.564 158.707, 10.471 158, 10 158 C 9.529 158, 8.436 158.707, 7.571 159.571 " stroke="none" fill="black" fill-rule="evenodd"/>
</svg>