<svg xmlns="http://www.w3.org/2000/svg" width="403" height="324" viewBox="0 0 403 324" version="1.1">
	<path d="M 23.200 63.200 C 21.512 64.888, 21.512 99.112, 23.200 100.800 C 24.040 101.640, 29.562 102, 41.629 102 C 55.958 102, 59.122 101.736, 60.429 100.429 C 62.757 98.100, 62.757 65.900, 60.429 63.571 C 59.122 62.264, 55.958 62, 41.629 62 C 29.562 62, 24.040 62.360, 23.200 63.200 M 30 82 L 30 94 42 94 L 54 94 54 82 L 54 70 42 70 L 30 70 30 82 M 7.571 127.571 C 6.707 128.436, 6 129.529, 6 130 C 6 130.471, 6.707 131.564, 7.571 132.429 C 8.855 133.712, 11.788 134, 23.571 134 L 38 134 38 162 L 38 190 23.571 190 C 11.788 190, 8.855 190.288, 7.571 191.571 C 5.598 193.545, 5.598 194.455, 7.571 196.429 C 8.855 197.712, 11.788 198, 23.571 198 L 38 198 38 226 L 38 254 23.571 254 C 11.788 254, 8.855 254.288, 7.571 255.571 C 5.598 257.545, 5.598 258.455, 7.571 260.429 C 8.936 261.793, 13.463 262, 42 262 C 70.537 262, 75.064 261.793, 76.429 260.429 C 78.402 258.455, 78.402 257.545, 76.429 255.571 C 75.145 254.288, 72.212 254, 60.429 254 L 46 254 46 226 L 46 198 60.429 198 C 72.212 198, 75.145 197.712, 76.429 196.429 C 78.402 194.455, 78.402 193.545, 76.429 191.571 C 75.145 190.288, 72.212 190, 60.429 190 L 46 190 46 162 L 46 134 60.429 134 C 72.212 134, 75.145 133.712, 76.429 132.429 C 77.293 131.564, 78 130.471, 78 130 C 78 129.529, 77.293 128.436, 76.429 127.571 C 75.064 126.207, 70.537 126, 42 126 C 13.463 126, 8.936 126.207, 7.571 127.571 M 103.200 127.200 C 101.465 128.935, 101.465 259.065, 103.200 260.800 C 104.606 262.206, 233.588 262.548, 235.789 261.151 C 237.662 259.963, 237.634 128.020, 235.761 126.831 C 235.067 126.391, 205.228 126.024, 169.450 126.015 C 120.172 126.004, 104.109 126.291, 103.200 127.200 M 263.750 127.076 C 261.422 128.437, 261.524 131.675, 263.934 132.965 C 265.207 133.646, 286.597 134, 326.434 134 C 359.745 134, 387 134.224, 387 134.498 C 387 134.772, 373.164 162.671, 356.254 196.497 C 330.896 247.222, 325.702 258.304, 326.613 259.749 C 327.630 261.361, 330.405 261.500, 361.500 261.500 C 392.586 261.500, 395.370 261.360, 396.386 259.750 C 397.191 258.474, 397.191 257.526, 396.386 256.250 C 395.382 254.658, 392.613 254.476, 365.641 254.235 C 349.339 254.089, 336 253.753, 336 253.487 C 336 253.222, 349.836 225.329, 366.746 191.503 C 392.103 140.780, 397.298 129.695, 396.387 128.251 C 395.355 126.616, 390.980 126.485, 330.391 126.276 C 287.547 126.129, 264.905 126.400, 263.750 127.076 M 110 143.229 L 110 152.458 119 143.500 C 123.950 138.573, 128 134.420, 128 134.271 C 128 134.122, 123.950 134, 119 134 L 110 134 110 143.229 M 160.299 146.836 C 167.899 154.516, 173 160.461, 173 161.636 C 173 163.721, 171.242 166, 169.633 166 C 169.101 166, 162.666 160.059, 155.333 152.798 L 142 139.595 142 196.798 L 142 254 167.236 254 L 192.472 254 179.236 240.737 C 171.956 233.442, 166 226.708, 166 225.772 C 166 224.836, 166.959 223.557, 168.131 222.930 C 170.073 221.890, 171.495 223.019, 184.131 235.631 L 198 249.473 198 191.737 L 198 134 172.799 134 L 147.599 134 160.299 146.836 M 205 191.735 L 205 249.470 217.500 237 L 230 224.530 230 179.265 L 230 134 217.500 134 L 205 134 205 191.735 M 121.734 151.765 L 110 163.530 110 208.765 L 110 254 122 254 L 134 254 134 197 C 134 165.650, 133.880 140, 133.734 140 C 133.588 140, 128.188 145.294, 121.734 151.765 M 220 244.500 L 210.540 254 220.270 254 L 230 254 230 244.500 C 230 239.275, 229.879 235, 229.730 235 C 229.582 235, 225.203 239.275, 220 244.500 " stroke="none" fill="black" fill-rule="evenodd"/>
</svg>