<svg xmlns="http://www.w3.org/2000/svg" width="436" height="324" viewBox="0 0 436 324" version="1.1">
	<path d="M 135.571 127.571 C 134.707 128.436, 134 129.529, 134 130 C 134 130.471, 134.707 131.564, 135.571 132.429 C 136.901 133.758, 140.397 134, 158.274 134 L 179.406 134 175.755 137.750 C 166.401 147.359, 163.688 163.301, 169.332 175.500 C 172.482 182.309, 176.551 187.001, 182.810 191.044 C 186.853 193.655, 186.980 193.872, 184.862 194.544 C 180.582 195.902, 172.363 204.804, 169.411 211.278 C 165.431 220.009, 165.357 230.914, 169.223 239.250 C 170.689 242.412, 171.658 245, 171.375 245 C 169.838 245, 161.650 238.397, 157.344 233.686 C 148.582 224.099, 142 208.652, 142 197.677 C 142 194.888, 141.395 192.538, 140.429 191.571 C 138.435 189.578, 137.547 189.596, 135.473 191.670 C 134.091 193.052, 133.924 194.470, 134.506 199.903 C 136.749 220.845, 147.652 238.324, 166.017 250.419 L 171.454 254 90.299 254 C 17.854 254, 8.974 254.169, 7.571 255.571 C 5.598 257.545, 5.598 258.455, 7.571 260.429 C 8.984 261.841, 22.190 262, 138 262 C 253.810 262, 267.016 261.841, 268.429 260.429 C 269.825 259.032, 270 251.628, 270 194 C 270 136.372, 269.825 128.968, 268.429 127.571 C 267.032 126.175, 259.628 126, 202 126 C 144.372 126, 136.968 126.175, 135.571 127.571 M 295.200 127.200 C 293.465 128.935, 293.465 259.065, 295.200 260.800 C 296.109 261.709, 312.172 261.996, 361.450 261.985 C 397.227 261.976, 427.072 261.606, 427.772 261.162 C 428.780 260.522, 429.044 246.603, 429.044 194 C 429.044 141.397, 428.780 127.478, 427.772 126.838 C 427.072 126.394, 397.227 126.024, 361.450 126.015 C 312.172 126.004, 296.109 126.291, 295.200 127.200 M 191.463 135.591 C 185.971 137.541, 180.552 142.205, 177.249 147.824 C 174.800 151.989, 174.500 153.483, 174.500 161.500 C 174.500 169.502, 174.803 171.015, 177.230 175.145 C 181.385 182.213, 187.168 186.498, 195.305 188.541 L 198 189.217 198 161.608 C 198 140.146, 197.722 134.018, 196.750 134.079 C 196.063 134.122, 193.683 134.803, 191.463 135.591 M 206 161.500 L 206 189.135 208.250 188.454 C 219.928 184.922, 227.678 175.697, 228.721 164.088 C 229.929 150.632, 221.502 138.466, 208.250 134.533 L 206 133.865 206 161.500 M 227.882 138.603 C 239.181 151.440, 239.030 171.965, 227.541 184.743 C 225.148 187.405, 221.612 190.433, 219.683 191.471 L 216.176 193.360 220.338 196.005 C 235.177 205.434, 240.594 225.210, 232.705 241.152 L 230.353 245.905 233.368 244.202 C 238.835 241.115, 249.603 229.630, 253.340 222.899 C 260.443 210.108, 261.249 204.774, 261.753 167.250 L 262.200 134 243.015 134 L 223.830 134 227.882 138.603 M 302 194 L 302 254 330 254 L 358 254 358 194 L 358 134 330 134 L 302 134 302 194 M 366 194 L 366 254 394 254 L 422 254 422 194 L 422 134 394 134 L 366 134 366 194 M 191.463 199.591 C 185.971 201.541, 180.552 206.205, 177.249 211.824 C 174.800 215.989, 174.500 217.483, 174.500 225.500 C 174.500 233.502, 174.803 235.015, 177.230 239.145 C 181.385 246.213, 187.168 250.498, 195.305 252.541 L 198 253.217 198 225.608 C 198 204.146, 197.722 198.018, 196.750 198.079 C 196.063 198.122, 193.683 198.803, 191.463 199.591 M 206 225.500 L 206 253.135 208.250 252.454 C 219.928 248.922, 227.678 239.697, 228.721 228.088 C 229.929 214.632, 221.502 202.466, 208.250 198.533 L 206 197.865 206 225.500 M 259.076 227.558 C 255.561 234.190, 244.782 245.395, 237.735 249.742 L 231.642 253.500 246.460 253.778 C 254.610 253.930, 261.453 253.881, 261.666 253.667 C 261.879 253.454, 261.929 246.463, 261.777 238.132 L 261.500 222.984 259.076 227.558 " stroke="none" fill="black" fill-rule="evenodd"/>
</svg>