<svg xmlns="http://www.w3.org/2000/svg" width="308" height="324" viewBox="0 0 308 324" version="1.1">
	<path d="M 39.230 159.285 L 6 192.569 6 225.713 C 6 254.511, 6.206 259.063, 7.571 260.429 C 8.968 261.825, 16.343 261.998, 73.821 261.985 C 109.395 261.976, 139.081 261.601, 139.790 261.151 C 140.802 260.509, 141.081 253.049, 141.083 226.582 L 141.086 192.831 108.228 159.416 C 90.156 141.037, 74.715 126, 73.915 126 C 73.115 126, 57.506 140.978, 39.230 159.285 M 199.244 159.256 C 180.960 177.546, 166 193.280, 166 194.220 C 166 195.160, 166.961 196.444, 168.136 197.073 C 170.102 198.125, 172.791 195.698, 201.892 166.608 L 233.512 135 264.006 165.562 C 280.778 182.372, 295.316 196.578, 296.314 197.132 C 298.451 198.318, 301 196.680, 301 194.122 C 301 192.395, 235.201 126, 233.489 126 C 232.939 126, 217.529 140.965, 199.244 159.256 M 43.744 165.756 L 14 195.512 14 224.756 L 14 254 74 254 L 134 254 134 224.744 L 134 195.487 104.244 165.744 C 87.878 149.385, 74.263 136, 73.988 136 C 73.713 136, 60.103 149.390, 43.744 165.756 " stroke="none" fill="black" fill-rule="evenodd"/>
</svg>