<svg xmlns="http://www.w3.org/2000/svg" width="532" height="324" viewBox="0 0 532 324" version="1.1">
	<path d="M 135.571 127.571 C 134.707 128.436, 134 129.529, 134 130 C 134 130.471, 134.707 131.564, 135.571 132.429 C 136.900 133.758, 140.389 134, 158.188 134 L 179.233 134 175.502 138.130 C 169.291 145.004, 166.556 152.149, 166.556 161.500 C 166.556 167.990, 167.042 170.547, 169.129 175.046 C 172.242 181.754, 177.065 187.439, 182.662 190.995 L 186.824 193.640 183.377 195.497 C 178.395 198.179, 172.223 205.282, 169.189 211.825 C 165.425 219.940, 165.439 231.090, 169.223 239.250 C 170.689 242.412, 171.658 245, 171.375 245 C 169.838 245, 161.650 238.397, 157.344 233.686 C 148.582 224.099, 142 208.652, 142 197.677 C 142 193.427, 140.214 190, 138 190 C 136.355 190, 134 193.160, 134.035 195.321 C 134.114 200.280, 136.928 213.019, 139.170 218.569 C 144.044 230.635, 153.990 242.515, 165.626 250.166 L 171.457 254 90.300 254 C 17.854 254, 8.974 254.169, 7.571 255.571 C 5.598 257.545, 5.598 258.455, 7.571 260.429 C 8.984 261.841, 22.190 262, 138 262 C 253.810 262, 267.016 261.841, 268.429 260.429 C 269.825 259.032, 270 251.628, 270 194 C 270 136.372, 269.825 128.968, 268.429 127.571 C 267.032 126.175, 259.628 126, 202 126 C 144.372 126, 136.968 126.175, 135.571 127.571 M 191.463 135.591 C 185.971 137.541, 180.552 142.205, 177.249 147.824 C 174.800 151.989, 174.500 153.483, 174.500 161.500 C 174.500 169.502, 174.803 171.015, 177.230 175.145 C 181.385 182.213, 187.168 186.498, 195.305 188.541 L 198 189.217 198 161.608 C 198 140.146, 197.722 134.018, 196.750 134.079 C 196.063 134.122, 193.683 134.803, 191.463 135.591 M 206 161.500 L 206 189.135 208.250 188.434 C 216.986 185.712, 222.088 181.513, 225.883 173.919 C 230.231 165.217, 230.231 157.783, 225.883 149.081 C 222.088 141.487, 216.986 137.288, 208.250 134.566 L 206 133.865 206 161.500 M 227.882 138.603 C 239.181 151.440, 239.030 171.965, 227.541 184.743 C 225.148 187.405, 221.612 190.433, 219.683 191.471 L 216.176 193.360 220.338 196.005 C 235.177 205.434, 240.594 225.210, 232.705 241.152 L 230.353 245.905 233.368 244.202 C 238.872 241.094, 249.597 229.642, 253.224 223 C 260.711 209.289, 262 200.299, 262 161.776 L 262 134 242.915 134 L 223.830 134 227.882 138.603 M 322.355 158.986 C 311.790 161.214, 302.114 169.146, 297.329 179.500 C 293.374 188.059, 293.386 198.895, 297.361 207.610 C 300.861 215.285, 307.689 222.075, 315.480 225.629 C 326.646 230.723, 341.806 228.737, 351.255 220.944 C 355.885 217.124, 360.590 210.408, 362.591 204.761 C 364.855 198.369, 364.544 187.529, 361.893 180.443 C 356.319 165.546, 338.109 155.663, 322.355 158.986 M 319.385 167.617 C 317.122 168.420, 313.450 170.635, 311.224 172.541 C 298.777 183.195, 298.768 203.798, 311.205 214.443 C 323.304 224.800, 343.137 222.447, 351.736 209.636 C 361.558 195.004, 357.098 176.702, 341.854 169.085 C 334.817 165.568, 326.664 165.036, 319.385 167.617 M 391.750 191.076 C 389.422 192.437, 389.524 195.675, 391.934 196.965 C 392.998 197.534, 399.523 198, 406.434 198 C 413.345 198, 419 198.228, 419 198.507 C 419 198.785, 412.475 212.057, 404.500 228 C 396.525 243.943, 390 257.649, 390 258.458 C 390 260.785, 393.808 262.404, 395.663 260.865 C 396.507 260.164, 403.622 246.749, 411.474 231.052 L 425.750 202.514 440.337 231.674 C 448.360 247.713, 455.395 261.126, 455.971 261.482 C 458.864 263.270, 461.168 259.695, 475.125 231.762 L 489.744 202.502 504.310 231.620 C 512.485 247.962, 519.617 261.023, 520.565 261.386 C 522.679 262.198, 525 260.358, 525 257.871 C 525 256.835, 518.480 242.952, 510.511 227.021 L 496.021 198.056 509.653 197.778 C 521.361 197.539, 523.441 197.253, 524.388 195.750 C 525.191 194.475, 525.190 193.525, 524.386 192.250 C 523.356 190.616, 518.963 190.485, 458.391 190.276 C 415.547 190.129, 392.905 190.400, 391.750 191.076 M 191.463 199.591 C 185.971 201.541, 180.552 206.205, 177.249 211.824 C 174.800 215.989, 174.500 217.483, 174.500 225.500 C 174.500 233.502, 174.803 235.015, 177.230 239.145 C 181.385 246.213, 187.168 250.498, 195.305 252.541 L 198 253.217 198 225.608 C 198 204.146, 197.722 198.018, 196.750 198.079 C 196.063 198.122, 193.683 198.803, 191.463 199.591 M 206 225.500 L 206 253.135 208.250 252.434 C 216.986 249.712, 222.088 245.513, 225.883 237.919 C 230.231 229.217, 230.231 221.783, 225.883 213.081 C 222.088 205.487, 216.986 201.288, 208.250 198.566 L 206 197.865 206 225.500 M 444.608 223.250 C 451.546 237.137, 457.371 248.661, 457.553 248.859 C 457.878 249.211, 483 199.502, 483 198.508 C 483 198.228, 471.523 198, 457.496 198 L 431.992 198 444.608 223.250 M 259.076 227.558 C 255.561 234.190, 244.782 245.395, 237.735 249.742 L 231.642 253.500 246.460 253.778 C 254.610 253.930, 261.453 253.881, 261.666 253.667 C 261.879 253.454, 261.929 246.463, 261.777 238.132 L 261.500 222.984 259.076 227.558 M 295.585 255.558 C 294.713 256.430, 294 257.529, 294 258 C 294 258.471, 294.713 259.570, 295.585 260.442 C 296.978 261.835, 301.159 261.995, 330.226 261.763 C 360.452 261.523, 363.377 261.350, 364.386 259.750 C 365.191 258.474, 365.191 257.526, 364.386 256.250 C 363.377 254.650, 360.452 254.477, 330.226 254.237 C 301.159 254.005, 296.978 254.165, 295.585 255.558 " stroke="none" fill="black" fill-rule="evenodd"/>
</svg>