<svg xmlns="http://www.w3.org/2000/svg" width="436" height="324" viewBox="0 0 436 324" version="1.1">
	<path d="M 64.500 127.002 C 56.529 128.200, 51.031 129.943, 43 133.814 C 32.442 138.905, 18.925 152.405, 13.780 163 C 6.893 177.182, 6.744 178.323, 6.267 220.597 C 5.879 255.050, 5.996 258.853, 7.490 260.347 C 8.993 261.850, 15.020 262, 74 262 C 131.628 262, 139.032 261.825, 140.429 260.429 C 141.792 259.065, 142 254.609, 142 226.795 C 142 209.160, 141.582 193.105, 141.072 191.116 C 140.561 189.127, 139.639 184.350, 139.023 180.500 C 138.307 176.031, 136.283 170.152, 133.424 164.240 C 120.844 138.228, 92.320 122.817, 64.500 127.002 M 227 126.894 C 220.962 128.183, 214.319 131.665, 209.601 136.014 C 205.147 140.119, 199 150.594, 199 154.078 C 199 157.489, 197.788 159, 195.053 159 C 190.715 159, 180.588 164.639, 176.013 169.602 C 169.375 176.803, 166.556 183.927, 166.556 193.500 C 166.556 200.036, 167.038 202.538, 169.189 207.175 C 179.969 230.417, 208.603 235.817, 226.149 217.918 C 233.269 210.655, 236.111 203.688, 236.111 193.500 C 236.111 183.223, 233.166 176.006, 226.080 168.920 C 220.841 163.681, 212.056 159, 207.462 159 C 203.347 159, 208.781 146.056, 215.205 140.557 C 228.153 129.473, 248.700 132.790, 256.987 147.302 C 261.015 154.354, 261.613 159.473, 259.602 169.707 C 256.391 186.046, 249.794 201.621, 240.069 215.820 C 232.734 226.529, 217.338 241.714, 207 248.435 C 197.908 254.346, 196.730 255.627, 198.074 258.138 C 199.570 260.933, 202.029 260.426, 209.095 255.868 C 238.893 236.646, 259.687 206.141, 266.872 171.112 C 269.981 155.958, 266.751 144.457, 256.901 135.601 C 249.200 128.677, 236.277 124.914, 227 126.894 M 295.207 127.193 C 294.543 127.857, 294 129.096, 294 129.947 C 294 130.798, 321.561 159.058, 355.247 192.747 L 416.494 254 356.818 254 C 303.901 254, 296.965 254.178, 295.571 255.571 C 294.707 256.436, 294 257.529, 294 258 C 294 258.471, 294.707 259.564, 295.571 260.429 C 296.968 261.825, 304.372 262, 362 262 C 419.628 262, 427.032 261.825, 428.429 260.429 C 429.293 259.564, 430 258.543, 430 258.160 C 430 257.776, 402.320 229.796, 368.489 195.981 L 306.978 134.500 367.130 134 C 423.013 133.535, 427.361 133.376, 428.386 131.750 C 429.191 130.474, 429.191 129.526, 428.386 128.250 C 427.356 126.617, 422.916 126.483, 361.848 126.243 C 311.786 126.046, 296.131 126.269, 295.207 127.193 M 58.645 135.584 C 38.562 140.445, 20.305 158.877, 15.537 179.103 C 14.349 184.144, 14.026 192.762, 14.015 219.750 L 14 254 74.114 254 L 134.228 254 133.742 219.750 C 133.202 181.762, 132.886 179.471, 126.330 166.046 C 119.170 151.386, 102.352 138.413, 86.201 135.090 C 79.038 133.617, 65.791 133.854, 58.645 135.584 M 191.385 167.617 C 176.729 172.815, 169.477 191.530, 176.588 205.801 C 179.700 212.046, 185.591 217.332, 191.795 219.446 C 197.095 221.252, 206.110 221.360, 210.684 219.674 C 221.521 215.679, 229 204.991, 229 193.500 C 229 182.038, 221.486 171.200, 210.965 167.488 C 205.715 165.635, 196.807 165.694, 191.385 167.617 " stroke="none" fill="black" fill-rule="evenodd"/>
</svg>