<svg xmlns="http://www.w3.org/2000/svg" width="340" height="324" viewBox="0 0 340 324" version="1.1">
	<path d="M 71.550 62.918 C 67.869 68.875, 54.190 98.331, 54.604 99.410 C 55.269 101.144, 57.524 102.120, 59.295 101.440 C 60.007 101.167, 63.480 95.106, 67.014 87.972 C 70.547 80.837, 73.691 75, 74 75 C 74.309 75, 77.453 80.837, 80.986 87.972 C 84.520 95.106, 87.993 101.167, 88.705 101.440 C 90.487 102.124, 92.732 101.141, 93.407 99.381 C 93.997 97.844, 77.582 64.037, 75.628 62.765 C 74.071 61.751, 72.229 61.820, 71.550 62.918 M 39.230 159.285 L 6 192.569 6 225.713 C 6 254.511, 6.206 259.063, 7.571 260.429 C 8.968 261.825, 16.372 262, 74 262 C 131.628 262, 139.032 261.825, 140.429 260.429 C 141.794 259.063, 142 254.509, 142 225.695 L 142 192.533 108.733 159.267 C 90.437 140.970, 74.790 126, 73.963 126 C 73.136 126, 57.506 140.978, 39.230 159.285 M 43.744 165.756 L 14 195.512 14 224.756 L 14 254 74 254 L 134 254 134 224.744 L 134 195.487 104.244 165.744 C 87.878 149.385, 74.263 136, 73.988 136 C 73.713 136, 60.103 149.390, 43.744 165.756 M 199.571 159.571 C 198.288 160.855, 198 163.788, 198 175.571 L 198 190 183.571 190 C 171.788 190, 168.855 190.288, 167.571 191.571 C 165.598 193.545, 165.598 194.455, 167.571 196.429 C 168.855 197.712, 171.788 198, 183.571 198 L 198 198 198 212.429 C 198 224.212, 198.288 227.145, 199.571 228.429 C 201.678 230.535, 202.598 230.412, 204.443 227.777 C 205.669 226.028, 206 222.631, 206 211.804 L 206 198.053 220.643 197.777 C 233.314 197.537, 235.433 197.264, 236.387 195.750 C 237.191 194.475, 237.191 193.525, 236.387 192.250 C 235.433 190.736, 233.314 190.463, 220.643 190.223 L 206 189.947 206 176.196 C 206 165.369, 205.669 161.972, 204.443 160.223 C 202.598 157.588, 201.678 157.465, 199.571 159.571 M 290.355 158.986 C 279.805 161.211, 270.145 169.120, 265.302 179.500 C 262.964 184.509, 262.503 186.822, 262.511 193.500 C 262.522 203.477, 265.837 211.453, 272.824 218.311 C 282.811 228.114, 297.327 231.122, 310.297 226.077 C 317.354 223.331, 325.569 215.634, 329.056 208.500 C 331.152 204.212, 331.500 202.075, 331.500 193.500 C 331.500 181.367, 329.450 176.286, 321.353 168.339 C 313.361 160.497, 300.948 156.752, 290.355 158.986 M 287.627 167.468 C 282.247 169.386, 277.039 173.829, 273.500 179.519 C 270.969 183.589, 270.444 185.570, 270.143 192.193 C 269.830 199.089, 270.110 200.705, 272.454 205.496 C 282.503 226.034, 311.716 226.158, 322.150 205.707 C 324.708 200.692, 325.594 191.874, 324.096 186.337 C 320.933 174.647, 309.616 165.959, 297.663 166.044 C 294.273 166.068, 289.757 166.709, 287.627 167.468 M 263.750 255.073 C 261.413 256.444, 261.527 259.677, 263.960 260.979 C 265.243 261.665, 277.208 261.936, 298.601 261.764 C 328.469 261.523, 331.378 261.349, 332.386 259.750 C 333.191 258.474, 333.191 257.526, 332.386 256.250 C 331.377 254.649, 328.483 254.481, 298.391 254.273 C 277.280 254.127, 264.873 254.414, 263.750 255.073 " stroke="none" fill="black" fill-rule="evenodd"/>
</svg>