<svg xmlns="http://www.w3.org/2000/svg" width="244" height="324" viewBox="0 0 244 324" version="1.1">
	<path d="M 23.282 111.282 L 6 128.563 6 193.710 C 6 251.601, 6.175 259.032, 7.571 260.429 C 8.936 261.793, 13.463 262, 42 262 C 70.537 262, 75.064 261.793, 76.429 260.429 C 77.825 259.032, 78 251.601, 78 193.710 L 78 128.563 60.718 111.282 C 51.213 101.777, 42.790 94, 42 94 C 41.210 94, 32.787 101.777, 23.282 111.282 M 27.737 117.763 L 14 131.526 14 192.763 L 14 254 42 254 L 70 254 70 192.737 L 70 131.473 56.237 117.737 C 48.667 110.181, 42.249 104, 41.974 104 C 41.698 104, 35.292 110.193, 27.737 117.763 M 103.627 127.515 C 102.732 128.411, 102 129.529, 102 130 C 102 132.054, 105.416 134, 109.022 134 C 121.676 134, 137.080 140.963, 147.404 151.351 C 155.638 159.634, 160.218 167.624, 163.025 178.596 C 165.658 188.894, 165.612 191, 162.750 191.001 C 159.066 191.002, 148.565 196.502, 144.516 200.551 C 142.441 202.625, 139.347 207.288, 137.639 210.911 C 134.975 216.567, 134.535 218.633, 134.535 225.500 C 134.535 232.367, 134.975 234.433, 137.639 240.089 C 141.568 248.426, 146.576 253.439, 154.841 257.306 C 163.287 261.259, 173.389 261.542, 182.297 258.077 C 189.360 255.328, 197.577 247.626, 201.046 240.500 C 204.231 233.957, 204.965 221.383, 202.575 214.310 C 199.026 203.803, 190.128 195.214, 179.671 192.197 L 173.788 190.500 174.369 184.838 C 177.081 158.446, 203.753 134.100, 230.050 134.015 C 234.831 133.999, 237 132.722, 237 129.922 C 237 126.278, 234.495 125.628, 225.376 126.903 C 209.910 129.067, 197.577 134.890, 187.014 145.015 C 180.487 151.271, 173.731 161.173, 171.278 168.079 L 169.619 172.752 165.394 164.126 C 154.992 142.891, 135.378 129.367, 110.877 126.537 C 106.402 126.020, 104.923 126.220, 103.627 127.515 M 159.603 199.477 C 152.077 202.159, 152.151 202.699, 161.278 211.779 L 169.543 220.001 177.959 211.541 L 186.375 203.082 180.937 200.551 C 174.680 197.638, 165.990 197.200, 159.603 199.477 M 146.192 210.269 C 141.752 215.619, 140.575 229.264, 143.918 236.627 C 144.948 238.896, 146.209 241.011, 146.718 241.326 C 147.228 241.641, 151.325 238.199, 155.823 233.678 L 164.001 225.457 155.671 217.170 C 148.884 210.419, 147.128 209.140, 146.192 210.269 M 182.727 216.772 C 178.477 221.047, 175 224.923, 175 225.387 C 175 226.478, 190.092 242, 191.153 242 C 191.597 242, 192.973 240.088, 194.212 237.750 C 196.008 234.363, 196.465 231.875, 196.465 225.500 C 196.465 219.125, 196.008 216.637, 194.212 213.250 C 192.973 210.912, 191.620 209, 191.206 209 C 190.792 209, 186.976 212.497, 182.727 216.772 M 161.170 239.329 C 152.017 248.530, 152.002 248.678, 159.962 251.487 C 166.557 253.813, 174.561 253.418, 180.937 250.449 L 186.375 247.918 177.959 239.459 C 173.331 234.807, 169.524 231, 169.500 231 C 169.476 231, 165.727 234.748, 161.170 239.329 " stroke="none" fill="black" fill-rule="evenodd"/>
</svg>