<svg xmlns="http://www.w3.org/2000/svg" width="244" height="324" viewBox="0 0 244 324" version="1.1">
	<path d="M 136.217 158.250 C 118.423 175.988, 103.446 191.255, 102.935 192.178 C 102.425 193.100, 102.265 194.528, 102.581 195.350 C 104.292 199.810, 106.369 198.120, 137.955 166.545 L 169.512 135 200.006 165.562 C 216.778 182.372, 231.316 196.578, 232.314 197.132 C 234.597 198.399, 237.226 196.470, 236.798 193.842 C 236.475 191.856, 171.215 126, 169.570 126 C 169.021 126, 154.012 140.512, 136.217 158.250 M 35.045 159.064 C 13.497 163.427, 1.173 185.901, 9.037 206.493 C 12.164 214.680, 20.320 222.836, 28.507 225.963 C 36.625 229.063, 46.366 229.065, 54.500 225.966 C 62.548 222.901, 70.935 214.461, 73.955 206.392 C 76.864 198.616, 76.864 188.384, 73.955 180.608 C 68.393 165.742, 50.631 155.907, 35.045 159.064 M 31.627 167.468 C 26.302 169.367, 21.047 173.815, 17.618 179.328 C 14.254 184.737, 13.041 194.780, 14.916 201.708 C 16.446 207.361, 21.544 213.823, 27.266 217.361 C 33.473 221.198, 43.261 222.070, 51.058 219.481 C 69.624 213.314, 75.164 188.069, 61.048 173.952 C 53.696 166.601, 41.563 163.927, 31.627 167.468 " stroke="none" fill="black" fill-rule="evenodd"/>
</svg>