<svg xmlns="http://www.w3.org/2000/svg" width="244" height="324" viewBox="0 0 244 324" version="1.1">
	<path d="M 7.571 127.571 C 6.207 128.936, 6 133.463, 6 161.999 C 6 198.358, 6.775 206.875, 11.108 218.117 L 14.043 225.734 12.036 230.415 C 9.451 236.447, 7.340 244.908, 6.503 252.598 C 5.964 257.549, 6.150 259.007, 7.491 260.348 C 9.547 262.404, 10.439 262.418, 12.429 260.429 C 13.404 259.453, 14.006 257.082, 14.015 254.179 C 14.030 249.303, 16.335 238.111, 17.942 235.108 C 18.740 233.616, 20.038 234.505, 27.185 241.442 C 40.685 254.542, 54.924 260.345, 73.500 260.319 C 91.943 260.292, 106.848 254.095, 120.314 240.855 C 124.612 236.629, 128.317 233.695, 128.548 234.336 C 131.181 241.653, 131.986 244.884, 132.506 250.228 C 132.842 253.678, 133.312 257.463, 133.550 258.640 C 134.172 261.717, 137.138 262.548, 139.053 260.183 C 141.298 257.410, 139.909 244.445, 136.399 235.412 C 133.062 226.825, 133.049 224.204, 136.300 215.860 C 140.566 204.911, 141.290 197.717, 141.683 162.347 C 142.110 123.970, 142.429 125.387, 133.605 126.490 C 121.754 127.971, 110.466 136.446, 105.189 147.825 C 103.038 152.462, 102.556 154.964, 102.556 161.500 C 102.556 171.073, 105.375 178.197, 112.013 185.398 C 116.463 190.226, 126.681 196, 130.775 196 C 133.174 196, 133.214 196.128, 132.528 201.621 C 131.929 206.417, 131.054 209.719, 128.526 216.721 C 128.273 217.422, 125.621 215.352, 122.293 211.855 C 108.666 197.539, 92.885 190.696, 73.500 190.696 C 54.917 190.696, 40.625 196.516, 27.185 209.558 C 20.425 216.119, 18.712 217.330, 18.021 216.040 C 16.630 213.439, 14 202.439, 14 199.217 C 14 196.547, 14.406 196.147, 17.750 195.527 C 23.519 194.458, 30.746 190.076, 35.545 184.739 C 53.211 165.090, 43.070 133.462, 17.147 127.360 C 9.955 125.668, 9.464 125.678, 7.571 127.571 M 14 161.500 L 14 189.135 16.250 188.448 C 21.937 186.711, 25.111 184.889, 28.696 181.304 C 33.885 176.115, 36.304 170.756, 36.805 163.341 C 37.741 149.489, 29.929 138.538, 16.250 134.525 L 14 133.865 14 161.500 M 127.385 135.617 C 125.122 136.420, 121.450 138.635, 119.224 140.541 C 106.777 151.195, 106.768 171.798, 119.205 182.443 C 122.623 185.370, 130.361 189, 133.178 189 C 133.630 189, 134 176.625, 134 161.500 C 134 140.125, 133.722 134.018, 132.750 134.079 C 132.063 134.122, 129.648 134.815, 127.385 135.617 M 167.585 191.558 C 165.598 193.545, 165.595 194.452, 167.571 196.429 C 168.855 197.712, 171.788 198, 183.571 198 L 198 198 198 226 L 198 254 183.571 254 C 171.788 254, 168.855 254.288, 167.571 255.571 C 165.595 257.548, 165.598 258.455, 167.585 260.442 C 168.978 261.835, 173.159 261.995, 202.226 261.763 C 232.452 261.523, 235.377 261.350, 236.386 259.750 C 237.190 258.475, 237.191 257.525, 236.387 256.250 C 235.430 254.730, 233.291 254.464, 220.142 254.224 L 205 253.948 205 226 L 205 198.052 220.142 197.776 C 233.291 197.536, 235.430 197.270, 236.387 195.750 C 237.191 194.475, 237.190 193.525, 236.386 192.250 C 235.377 190.650, 232.452 190.477, 202.226 190.237 C 173.159 190.005, 168.978 190.165, 167.585 191.558 M 58.645 199.584 C 46.870 202.434, 32.786 211.791, 25.843 221.375 C 23.083 225.185, 23.065 225.302, 24.768 228.240 C 27.590 233.108, 38.539 242.510, 45.875 246.365 C 57.578 252.515, 72.972 254.631, 86.201 251.910 C 95.798 249.936, 107.449 243.557, 114.920 236.187 C 124.715 226.524, 124.814 226.210, 119.979 220.093 C 112.154 210.194, 98.458 201.686, 86.201 199.113 C 79.083 197.618, 65.830 197.845, 58.645 199.584 " stroke="none" fill="black" fill-rule="evenodd"/>
</svg>