<svg xmlns="http://www.w3.org/2000/svg" width="403" height="324" viewBox="0 0 403 324" version="1.1">
	<path d="M 39.230 159.285 L 6 192.569 6 225.713 C 6 254.511, 6.206 259.063, 7.571 260.429 C 8.968 261.825, 16.372 262, 74 262 C 131.628 262, 139.032 261.825, 140.429 260.429 C 141.794 259.063, 142 254.509, 142 225.695 L 142 192.533 108.733 159.267 C 90.437 140.970, 74.790 126, 73.963 126 C 73.136 126, 57.506 140.978, 39.230 159.285 M 317.500 127.418 C 295.158 131.764, 278.217 144.901, 268.350 165.529 C 253.836 195.873, 264.931 232.146, 294.453 250.868 L 299.392 254 282.630 254 C 272.988 254, 265.047 254.440, 263.934 255.035 C 261.440 256.370, 261.448 259.634, 263.948 260.972 C 265.256 261.672, 287.132 261.930, 330.589 261.757 C 390.951 261.517, 395.356 261.383, 396.386 259.750 C 397.191 258.474, 397.191 257.526, 396.387 256.250 C 395.414 254.705, 393.150 254.468, 377.092 254.227 L 358.900 253.954 366.381 248.951 C 379.236 240.353, 388.591 227.801, 393.177 213 C 395.104 206.779, 395.490 203.369, 395.444 193 C 395.395 182.231, 395.019 179.392, 392.727 172.500 C 389.368 162.398, 381.772 150.772, 373.848 143.601 C 367.325 137.697, 352.966 130.009, 344.974 128.142 C 337.072 126.295, 324.920 125.975, 317.500 127.418 M 314.072 135.532 C 303.628 138.453, 295.923 143.060, 287.384 151.489 C 275.130 163.585, 269.546 176.787, 269.614 193.500 C 269.683 210.510, 275.150 223.435, 287.384 235.511 C 296.259 244.272, 303.970 248.753, 315.060 251.594 C 323.800 253.833, 340.050 253.075, 348.723 250.024 C 362.832 245.060, 375.471 233.874, 382.082 220.500 C 391.069 202.317, 391.069 184.683, 382.082 166.500 C 375.475 153.133, 362.856 141.961, 348.723 136.966 C 340.494 134.058, 322.068 133.296, 314.072 135.532 M 43.744 165.756 L 14 195.512 14 224.756 L 14 254 74 254 L 134 254 134 224.744 L 134 195.487 104.244 165.744 C 87.878 149.385, 74.263 136, 73.988 136 C 73.713 136, 60.103 149.390, 43.744 165.756 M 199.232 191.250 C 197.350 193.573, 166 256.975, 166 258.459 C 166 260.786, 169.809 262.404, 171.663 260.865 C 172.507 260.164, 179.622 246.749, 187.474 231.052 L 201.750 202.514 216.313 231.626 C 224.486 247.965, 231.617 261.023, 232.565 261.386 C 234.679 262.198, 237 260.358, 237 257.871 C 237 255.637, 205.272 191.833, 203.630 190.765 C 201.949 189.672, 200.369 189.846, 199.232 191.250 " stroke="none" fill="black" fill-rule="evenodd"/>
</svg>