<svg xmlns="http://www.w3.org/2000/svg" width="344" height="324" viewBox="0 0 344 324" version="1.1">
	<path d="M 248.372 126.765 C 247.752 127.169, 243.812 134.363, 239.616 142.750 L 231.987 158 216.565 158 C 203.878 158, 200.864 158.279, 199.571 159.571 C 197.598 161.545, 197.598 162.455, 199.571 164.429 C 200.844 165.701, 203.697 166, 214.575 166 L 228.007 166 214 194 L 199.993 222 184.568 222 C 171.878 222, 168.864 222.279, 167.571 223.571 C 165.598 225.545, 165.598 226.455, 167.571 228.429 C 168.844 229.701, 171.698 230, 182.578 230 L 196.013 230 189.022 243.957 C 185.176 251.633, 182.283 258.574, 182.592 259.380 C 183.265 261.133, 185.511 262.125, 187.275 261.448 C 187.977 261.179, 192.025 253.993, 196.271 245.479 L 203.992 230 232.003 230 L 260.013 230 253.022 243.957 C 249.176 251.633, 246.283 258.574, 246.592 259.380 C 247.265 261.133, 249.511 262.125, 251.275 261.448 C 251.977 261.179, 256.025 253.993, 260.271 245.479 L 267.992 230 283.424 230 C 296.121 230, 299.136 229.721, 300.429 228.429 C 301.293 227.564, 302 226.471, 302 226 C 302 225.529, 301.293 224.436, 300.429 223.571 C 299.156 222.299, 296.303 222, 285.425 222 L 271.993 222 286 194 L 300.007 166 315.432 166 C 328.122 166, 331.136 165.721, 332.429 164.429 C 334.402 162.455, 334.402 161.545, 332.429 159.571 C 331.156 158.299, 328.302 158, 317.422 158 L 303.987 158 310.978 144.043 C 314.824 136.367, 317.717 129.426, 317.408 128.620 C 316.735 126.867, 314.489 125.875, 312.725 126.552 C 312.023 126.821, 307.975 134.007, 303.729 142.521 L 296.008 158 267.997 158 L 239.987 158 246.993 144.013 C 250.847 136.321, 254 129.828, 254 129.585 C 254 128.874, 250.921 125.999, 250.179 126.015 C 249.805 126.024, 248.993 126.361, 248.372 126.765 M 7.571 159.571 C 6.207 160.936, 6 165.463, 6 194 C 6 222.537, 6.207 227.064, 7.571 228.429 C 9.545 230.402, 10.455 230.402, 12.429 228.429 C 13.712 227.145, 14 224.212, 14 212.429 L 14 198 42 198 L 70 198 70 212.429 C 70 224.212, 70.288 227.145, 71.571 228.429 C 72.436 229.293, 73.529 230, 74 230 C 74.471 230, 75.564 229.293, 76.429 228.429 C 77.712 227.145, 78 224.212, 78 212.429 L 78 198 106 198 L 134 198 134 212.429 C 134 224.212, 134.288 227.145, 135.571 228.429 C 137.545 230.402, 138.455 230.402, 140.429 228.429 C 141.793 227.064, 142 222.537, 142 194 C 142 165.463, 141.793 160.936, 140.429 159.571 C 139.564 158.707, 138.471 158, 138 158 C 137.529 158, 136.436 158.707, 135.571 159.571 C 134.288 160.855, 134 163.788, 134 175.571 L 134 190 106 190 L 78 190 78 175.571 C 78 163.788, 77.712 160.855, 76.429 159.571 C 74.455 157.598, 73.545 157.598, 71.571 159.571 C 70.288 160.855, 70 163.788, 70 175.571 L 70 190 42 190 L 14 190 14 175.571 C 14 163.788, 13.712 160.855, 12.429 159.571 C 11.564 158.707, 10.471 158, 10 158 C 9.529 158, 8.436 158.707, 7.571 159.571 M 222 194 L 207.993 222 235.993 222 L 263.993 222 278 194 L 292.007 166 264.007 166 L 236.007 166 222 194 " stroke="none" fill="black" fill-rule="evenodd"/>
</svg>