<svg xmlns="http://www.w3.org/2000/svg" width="403" height="324" viewBox="0 0 403 324" version="1.1">
	<path d="M 40.372 62.765 C 38.418 64.037, 22.003 97.844, 22.593 99.381 C 23.268 101.141, 25.513 102.124, 27.295 101.440 C 28.007 101.167, 31.480 95.106, 35.014 87.972 C 38.547 80.837, 41.691 75, 42 75 C 42.309 75, 45.453 80.837, 48.986 87.972 C 52.520 95.106, 56.076 101.199, 56.889 101.511 C 57.701 101.823, 59.219 101.225, 60.261 100.183 C 62.121 98.324, 61.994 97.966, 53.456 80.894 C 45.647 65.280, 43.673 62.031, 42 62.031 C 41.725 62.031, 40.992 62.361, 40.372 62.765 M 135.230 159.285 C 116.953 177.591, 102 193.084, 102 193.713 C 102 194.955, 104.718 198, 105.827 198 C 106.204 198, 120.678 183.828, 137.993 166.507 L 169.474 135.015 201.023 166.507 C 218.375 183.828, 233.063 198, 233.664 198 C 235.295 198, 237.212 195.311, 236.833 193.554 C 236.425 191.664, 170.990 126, 169.515 126 C 168.935 126, 153.506 140.978, 135.230 159.285 M 319.531 127.067 C 291.457 131.375, 269.159 152.546, 263.560 180.208 C 261.339 191.182, 261.487 195.655, 264.117 197.062 C 267.374 198.806, 268.575 196.650, 269.916 186.650 C 271.337 176.055, 273.757 169.222, 278.872 161.354 C 286.216 150.059, 296.439 141.883, 309 137.260 C 315.702 134.794, 317.830 134.500, 329 134.500 C 339.533 134.500, 342.574 134.871, 348.326 136.857 C 357.442 140.004, 368.960 147.864, 374.660 154.828 C 382.771 164.737, 388.929 180.812, 388.983 192.215 C 389.002 196.428, 391.359 198.498, 394.276 196.866 C 398.091 194.731, 395.123 176.088, 388.982 163.615 C 376.508 138.277, 347.150 122.828, 319.531 127.067 M 33.972 159.329 C 15.771 163.347, 3.510 181.552, 6.987 199.396 C 12.468 227.526, 46.025 238.135, 66.080 218.080 C 75.936 208.224, 78.916 193.869, 73.893 180.443 C 68.184 165.185, 50.298 155.726, 33.972 159.329 M 31.627 167.468 C 26.247 169.386, 21.039 173.829, 17.500 179.519 C 14.741 183.955, 14.500 185.073, 14.500 193.422 C 14.500 201.524, 14.796 203.003, 17.249 207.176 C 26.329 222.623, 47.758 225.849, 60.280 213.653 C 66.701 207.401, 68.500 202.989, 68.500 193.500 C 68.500 184.107, 66.733 179.694, 60.453 173.406 C 53.664 166.608, 41.228 164.046, 31.627 167.468 M 295.750 191.080 C 293.422 192.436, 293.524 195.675, 295.934 196.965 C 296.998 197.534, 303.523 198, 310.434 198 C 317.345 198, 323 198.223, 323 198.496 C 323 198.768, 316.365 212.269, 308.257 228.498 C 296.169 252.690, 293.712 258.320, 294.616 259.752 C 295.629 261.360, 298.432 261.500, 329.500 261.500 C 360.568 261.500, 363.371 261.360, 364.384 259.752 C 365.288 258.320, 362.831 252.690, 350.743 228.498 C 342.635 212.269, 336 198.768, 336 198.496 C 336 198.223, 341.655 198, 348.566 198 C 361.724 198, 365 197.203, 365 194 C 365 192.939, 364.130 191.605, 363.066 191.035 C 360.463 189.642, 298.147 189.684, 295.750 191.080 M 316.744 227.500 C 309.735 241.531, 304 253.233, 304 253.505 C 304 253.777, 315.475 254, 329.500 254 C 343.525 254, 354.976 253.662, 354.946 253.250 C 354.917 252.838, 349.176 241.135, 342.190 227.245 L 329.487 201.989 316.744 227.500 " stroke="none" fill="black" fill-rule="evenodd"/>
</svg>