<svg xmlns="http://www.w3.org/2000/svg" width="500" height="324" viewBox="0 0 500 324" version="1.1">
	<path d="M 67.270 127.025 C 53.386 129.860, 42.470 140.203, 39.515 153.322 C 38.385 158.341, 38.341 158.385, 33.322 159.515 C 15.660 163.493, 3.561 181.815, 6.987 199.396 C 12.468 227.526, 46.025 238.135, 66.080 218.080 C 73.159 211.001, 76.193 203.627, 76.193 193.500 C 76.193 183.373, 73.159 175.999, 66.080 168.920 C 60.841 163.681, 52.056 159, 47.462 159 C 43.347 159, 48.781 146.056, 55.205 140.557 C 65.154 132.040, 81.249 131.811, 91.235 140.042 C 95.997 143.968, 101 153.984, 101 159.594 C 101 169.625, 95.665 187.762, 88.594 201.768 C 79.178 220.418, 64.036 237.486, 47.134 248.500 C 39.181 253.683, 37.966 254.840, 38.214 257 C 38.709 261.323, 42.017 260.569, 52.108 253.832 C 79.974 235.231, 99.961 204.944, 106.927 170.766 C 109.141 159.905, 108.541 153.669, 104.483 145.375 C 98.165 132.461, 81.322 124.156, 67.270 127.025 M 161.384 127.370 C 150.752 130.037, 142.004 137.445, 137.163 147.880 C 133.441 155.904, 133.452 167.118, 137.189 175.175 C 142.054 185.665, 152.158 194.042, 161.807 195.585 L 166 196.256 166 227.556 C 166 254.678, 166.210 259.067, 167.571 260.429 C 168.436 261.293, 169.506 262, 169.949 262 C 172.604 262, 172.981 258.110, 173.236 228.110 L 173.500 196.890 180.139 194.656 C 191.419 190.861, 200.359 181.521, 203.061 170.710 C 204.802 163.742, 203.819 152.329, 200.965 146.395 C 194.077 132.069, 176.441 123.592, 161.384 127.370 M 322.801 126.991 C 310.924 129.086, 299.849 139.031, 295.974 151.080 C 293.830 157.748, 293.732 158.949, 294.763 165.917 C 297.339 183.326, 305.441 203.786, 316.019 219.593 C 323.259 230.412, 340.331 247.215, 351.816 254.826 C 356.939 258.222, 361.534 261, 362.027 261 C 362.519 261, 363.727 260.170, 364.711 259.156 C 365.695 258.141, 369.424 255.349, 372.998 252.950 C 387.965 242.905, 404.669 224.036, 413.814 206.845 L 418.500 198.036 449.486 198.018 L 480.472 198 467.236 211.263 C 459.956 218.558, 454 225.292, 454 226.228 C 454 227.164, 454.944 228.435, 456.097 229.052 C 458 230.070, 459.809 228.570, 475.597 212.875 C 485.169 203.360, 493 194.866, 493 194 C 493 193.134, 485.169 184.640, 475.597 175.125 C 459.809 159.430, 458 157.930, 456.097 158.948 C 454.944 159.565, 454 160.836, 454 161.772 C 454 162.708, 459.956 169.442, 467.236 176.737 L 480.472 190 451.236 190 C 435.156 190, 422 189.807, 422 189.572 C 422 189.337, 423.128 184.949, 424.506 179.822 C 428.004 166.810, 428.632 158.687, 426.665 151.920 C 422.183 136.501, 409.095 126.794, 392.738 126.755 C 386.046 126.739, 384.103 127.167, 378.633 129.860 C 372.824 132.719, 365.338 139.364, 362.125 144.511 C 361.320 145.801, 360.707 146.082, 360.379 145.312 C 360.102 144.658, 358.357 142.136, 356.503 139.708 C 349.062 129.963, 335.329 124.781, 322.801 126.991 M 159.627 135.468 C 154.247 137.386, 149.039 141.829, 145.500 147.519 C 141.527 153.908, 140.712 165.311, 143.741 172.129 C 148.181 182.120, 156.127 187.919, 166.521 188.754 C 178.446 189.711, 188.036 184.794, 193.500 174.921 C 196.132 170.166, 196.500 168.518, 196.500 161.500 C 196.500 154.487, 196.130 152.829, 193.500 148.061 C 190.429 142.492, 184.651 137.526, 178.684 135.326 C 174.327 133.720, 164.323 133.794, 159.627 135.468 M 318.363 135.922 C 308.214 140.531, 301.657 150.503, 301.805 161.104 C 301.892 167.347, 304.835 179.859, 308.518 189.645 C 317.009 212.202, 334.072 233.954, 353.909 247.508 L 360.912 252.293 367.706 247.925 C 381.321 239.172, 399.063 219.306, 407.380 203.500 L 410.011 198.500 385.256 198 C 371.640 197.725, 359.938 197.136, 359.250 196.691 C 357.358 195.467, 357.753 192.203, 359.934 191.035 C 361.125 190.398, 371.866 190, 387.894 190 L 413.920 190 415.903 183.577 C 418.083 176.522, 421 163.154, 421 160.224 C 421 155.366, 417.632 147.555, 413.683 143.254 C 397.292 125.399, 368.635 134.658, 365.426 158.845 C 364.617 164.944, 362.966 166.761, 359.620 165.237 C 357.782 164.399, 357.175 163.122, 356.697 159.091 C 355.449 148.550, 349.871 140.712, 340.521 136.358 C 334.112 133.373, 324.398 133.182, 318.363 135.922 M 31.463 167.591 C 25.971 169.541, 20.552 174.205, 17.249 179.824 C 14.800 183.989, 14.500 185.483, 14.500 193.500 C 14.500 201.517, 14.800 203.011, 17.249 207.176 C 26.333 222.630, 48.188 225.876, 60.453 213.594 C 65.854 208.185, 68.299 202.844, 68.805 195.341 C 69.929 178.711, 57.733 165.843, 41.072 166.079 C 38.007 166.122, 33.683 166.803, 31.463 167.591 M 231.750 191.073 C 229.413 192.444, 229.527 195.677, 231.960 196.979 C 233.243 197.665, 245.208 197.936, 266.601 197.764 C 296.469 197.523, 299.378 197.349, 300.386 195.750 C 301.191 194.474, 301.191 193.526, 300.386 192.250 C 299.377 190.649, 296.483 190.481, 266.391 190.273 C 245.280 190.127, 232.873 190.414, 231.750 191.073 " stroke="none" fill="black" fill-rule="evenodd"/>
</svg>