<svg xmlns="http://www.w3.org/2000/svg" width="564" height="324" viewBox="0 0 564 324" version="1.1">
	<path d="M 135.571 127.571 C 134.707 128.436, 134 129.529, 134 130 C 134 130.471, 134.707 131.564, 135.571 132.429 C 136.900 133.758, 140.389 134, 158.188 134 L 179.233 134 175.502 138.130 C 169.343 144.947, 166.611 152.128, 166.611 161.500 C 166.611 167.953, 167.103 170.573, 169.157 175.046 C 172.227 181.735, 177.047 187.427, 182.662 190.995 L 186.824 193.640 183.377 195.497 C 178.377 198.189, 172.212 205.299, 169.216 211.825 C 167.090 216.456, 166.610 218.997, 166.606 225.638 C 166.601 232.674, 167.006 234.595, 169.599 239.825 L 172.597 245.875 169.582 244.188 C 163.708 240.900, 152.590 228.732, 148.757 221.397 C 144.760 213.749, 142.039 204.029, 142.015 197.321 C 142.001 193.426, 140.122 190, 138 190 C 137.529 190, 136.399 190.743, 135.491 191.652 C 132.366 194.777, 135.569 211.386, 141.692 223.806 C 146.038 232.621, 156.499 244.209, 165.307 249.965 L 171.483 254 90.313 254 C 17.855 254, 8.974 254.169, 7.571 255.571 C 5.598 257.545, 5.598 258.455, 7.571 260.429 C 8.984 261.841, 22.190 262, 138 262 C 253.810 262, 267.016 261.841, 268.429 260.429 C 269.825 259.032, 270 251.628, 270 194 C 270 136.372, 269.825 128.968, 268.429 127.571 C 267.032 126.175, 259.628 126, 202 126 C 144.372 126, 136.968 126.175, 135.571 127.571 M 311.282 143.282 C 301.777 152.787, 294 161.079, 294 161.710 C 294 163.173, 296.800 166, 298.249 166 C 298.857 166, 306.250 159.156, 314.677 150.792 L 330 135.584 345.323 150.792 C 353.750 159.156, 361.143 166, 361.751 166 C 363.200 166, 366 163.173, 366 161.710 C 366 160.031, 331.693 126, 330 126 C 329.210 126, 320.787 133.777, 311.282 143.282 M 192.453 135.326 C 180.790 139.820, 174 149.431, 174 161.448 C 174 174.371, 182.645 185.389, 195.250 188.531 L 198 189.217 198 161.608 C 198 131.762, 198.278 133.082, 192.453 135.326 M 206 161.500 L 206 189.135 208.250 188.448 C 216.634 185.887, 223.023 180.636, 226.478 173.467 C 229.159 167.903, 229.629 158.409, 227.535 152.105 C 224.847 144.014, 217.584 137.403, 208.250 134.552 L 206 133.865 206 161.500 M 227.340 137.955 C 239.864 151.817, 239.707 171.599, 226.964 185.423 C 224.823 187.746, 221.519 190.482, 219.623 191.503 L 216.176 193.360 220.338 196.005 C 235.669 205.747, 241.093 226.194, 232.478 241.772 L 230.116 246.045 233.274 244.272 C 235.012 243.298, 239.665 239.305, 243.616 235.399 C 249.178 229.900, 251.703 226.404, 254.810 219.899 C 257.017 215.280, 259.356 209.250, 260.009 206.500 C 260.738 203.429, 261.392 188.480, 261.705 167.750 L 262.215 134 242.991 134 L 223.767 134 227.340 137.955 M 391.571 159.571 C 390.207 160.936, 390 165.463, 390 194 C 390 222.537, 390.207 227.064, 391.571 228.429 C 392.936 229.793, 397.463 230, 426 230 C 454.537 230, 459.064 229.793, 460.429 228.429 C 461.793 227.064, 462 222.537, 462 194 C 462 165.463, 461.793 160.936, 460.429 159.571 C 459.064 158.207, 454.537 158, 426 158 C 397.463 158, 392.936 158.207, 391.571 159.571 M 398 194 L 398 222 426 222 L 454 222 454 194 L 454 166 426 166 L 398 166 398 194 M 487.571 191.571 C 486.707 192.436, 486 193.529, 486 194 C 486 194.471, 486.707 195.564, 487.571 196.429 C 488.936 197.793, 493.463 198, 522 198 C 550.537 198, 555.064 197.793, 556.429 196.429 C 557.293 195.564, 558 194.471, 558 194 C 558 193.529, 557.293 192.436, 556.429 191.571 C 555.064 190.207, 550.537 190, 522 190 C 493.463 190, 488.936 190.207, 487.571 191.571 M 192.453 199.326 C 180.790 203.820, 174 213.431, 174 225.448 C 174 238.371, 182.645 249.389, 195.250 252.531 L 198 253.217 198 225.608 C 198 195.762, 198.278 197.082, 192.453 199.326 M 206 225.500 L 206 253.135 208.250 252.448 C 216.634 249.887, 223.023 244.636, 226.478 237.467 C 229.159 231.903, 229.629 222.409, 227.535 216.105 C 224.847 208.014, 217.584 201.403, 208.250 198.552 L 206 197.865 206 225.500 M 295.571 223.571 C 294.707 224.436, 294 225.659, 294 226.290 C 294 227.969, 328.307 262, 330 262 C 331.693 262, 366 227.969, 366 226.290 C 366 224.827, 363.200 222, 361.751 222 C 361.143 222, 353.750 228.844, 345.323 237.208 L 330 252.416 314.677 237.208 C 306.250 228.844, 298.857 222, 298.249 222 C 297.640 222, 296.436 222.707, 295.571 223.571 M 259.052 228.121 C 255.645 234.183, 244.644 245.423, 237.635 250.002 L 231.517 254 246.758 254 L 262 254 262 239 C 262 230.750, 261.858 224, 261.684 224 C 261.510 224, 260.326 225.855, 259.052 228.121 " stroke="none" fill="black" fill-rule="evenodd"/>
</svg>