<svg xmlns="http://www.w3.org/2000/svg" width="340" height="324" viewBox="0 0 340 324" version="1.1">
	<path d="M 135.571 127.571 C 134.707 128.436, 134 129.529, 134 130 C 134 130.471, 134.707 131.564, 135.571 132.429 C 136.901 133.758, 140.397 134, 158.274 134 L 179.406 134 175.755 137.750 C 166.343 147.418, 163.707 163.212, 169.417 175.734 C 172.300 182.059, 179.456 189.884, 184.428 192.149 L 186.933 193.291 182.717 196.015 C 176.549 200.001, 172.469 204.721, 169.332 211.500 C 165.418 219.960, 165.375 230.952, 169.223 239.250 C 170.689 242.412, 171.658 245, 171.375 245 C 171.092 245, 168.935 243.675, 166.582 242.057 C 153.055 232.749, 142 212.875, 142 197.861 C 142 194.905, 141.413 192.556, 140.429 191.571 C 138.435 189.578, 137.547 189.596, 135.473 191.670 C 134.091 193.052, 133.924 194.470, 134.506 199.903 C 136.728 220.651, 147.723 238.359, 165.767 250.250 L 171.457 254 90.300 254 C 17.854 254, 8.974 254.169, 7.571 255.571 C 5.598 257.545, 5.598 258.455, 7.571 260.429 C 8.984 261.841, 22.161 261.998, 137.821 261.985 C 208.595 261.976, 267.076 261.604, 267.779 261.158 C 269.659 259.965, 269.659 128.035, 267.779 126.842 C 267.076 126.396, 237.395 126.024, 201.821 126.015 C 144.343 126.002, 136.968 126.175, 135.571 127.571 M 307.505 130.127 C 299.027 139.511, 294.615 155.263, 296.828 168.250 C 298.227 176.458, 302.209 185.615, 306.923 191.461 L 310.117 195.423 309.928 227.419 C 309.741 259.062, 309.763 259.430, 311.870 260.830 C 313.580 261.965, 314.297 261.999, 315.500 261 C 316.325 260.315, 317 259.290, 317 258.722 C 317 258.154, 318.161 256.167, 319.580 254.306 C 320.999 252.446, 323.580 247.903, 325.315 244.212 C 328.325 237.809, 328.471 236.925, 328.485 225 C 328.499 213.079, 328.357 212.199, 325.406 206 C 323.704 202.425, 321.117 197.750, 319.656 195.610 L 317 191.721 317 160.060 C 317 136.769, 316.683 128.083, 315.800 127.200 C 313.675 125.075, 311.317 125.906, 307.505 130.127 M 191.385 135.617 C 189.122 136.420, 185.450 138.635, 183.224 140.541 C 170.777 151.195, 170.768 171.798, 183.205 182.443 C 186.623 185.370, 194.361 189, 197.178 189 C 197.630 189, 198 176.625, 198 161.500 C 198 140.125, 197.722 134.018, 196.750 134.079 C 196.063 134.122, 193.648 134.815, 191.385 135.617 M 206 161.500 L 206 189.135 208.250 188.467 C 209.488 188.100, 212.750 186.569, 215.500 185.066 C 228.082 178.186, 232.584 161.201, 225.351 147.899 C 221.793 141.354, 216.305 137.075, 208.250 134.566 L 206 133.865 206 161.500 M 227.417 138.174 C 233.331 145.084, 235.434 150.454, 235.840 159.690 C 236.276 169.594, 234.601 175.365, 229.223 182.500 C 227.150 185.250, 223.438 188.846, 220.974 190.490 L 216.494 193.481 220.970 196.490 C 226.562 200.251, 232.495 208.010, 234.596 214.310 C 237.092 221.794, 236.245 234.154, 232.777 240.835 L 230.053 246.081 233.218 244.291 C 238.825 241.117, 249.562 229.703, 253.340 222.899 C 260.408 210.170, 261.223 204.776, 261.750 167.250 L 262.217 134 243.031 134 L 223.844 134 227.417 138.174 M 307.185 144.291 C 302.747 153.477, 302.759 168, 307.213 177.580 L 309.500 182.500 309.784 171.750 C 309.940 165.838, 309.940 156.162, 309.784 150.250 L 309.500 139.500 307.185 144.291 M 191.385 199.617 C 189.122 200.420, 185.450 202.635, 183.224 204.541 C 170.777 215.195, 170.768 235.798, 183.205 246.443 C 186.623 249.370, 194.361 253, 197.178 253 C 197.630 253, 198 240.625, 198 225.500 C 198 204.125, 197.722 198.018, 196.750 198.079 C 196.063 198.122, 193.648 198.815, 191.385 199.617 M 206 225.500 L 206 253.135 208.250 252.467 C 209.488 252.100, 212.750 250.569, 215.500 249.066 C 228.082 242.186, 232.584 225.201, 225.351 211.899 C 221.793 205.354, 216.305 201.075, 208.250 198.566 L 206 197.865 206 225.500 M 317 225 C 317 236.072, 317.362 243.022, 317.909 242.450 C 319.648 240.633, 322 230.602, 322 225 C 322 219.398, 319.648 209.367, 317.909 207.550 C 317.362 206.978, 317 213.928, 317 225 M 258.999 227.750 C 255.674 234.073, 242.853 246.952, 236 250.851 L 230.500 253.981 246.250 253.991 L 262 254 262 238.500 C 262 229.975, 261.887 223, 261.748 223 C 261.610 223, 260.373 225.137, 258.999 227.750 " stroke="none" fill="black" fill-rule="evenodd"/>
</svg>