<svg xmlns="http://www.w3.org/2000/svg" width="244" height="324" viewBox="0 0 244 324" version="1.1">
	<path d="M 7.571 191.571 C 5.702 193.441, 5.726 192.885, 7.086 202.678 C 7.683 206.980, 9.493 213.928, 11.108 218.117 L 14.043 225.734 12.036 230.415 C 9.451 236.447, 7.340 244.908, 6.503 252.598 C 5.964 257.549, 6.150 259.007, 7.491 260.348 C 9.547 262.404, 10.439 262.418, 12.429 260.429 C 13.404 259.453, 14.006 257.082, 14.015 254.179 C 14.030 249.303, 16.335 238.111, 17.942 235.108 C 18.740 233.616, 20.038 234.505, 27.185 241.442 C 40.685 254.542, 54.924 260.345, 73.500 260.319 C 91.943 260.292, 106.848 254.095, 120.314 240.855 C 124.612 236.629, 128.317 233.695, 128.548 234.336 C 131.181 241.653, 131.986 244.884, 132.506 250.228 C 132.842 253.678, 133.312 257.463, 133.550 258.640 C 134.172 261.717, 137.138 262.548, 139.053 260.183 C 141.298 257.410, 139.909 244.445, 136.399 235.412 C 133.049 226.792, 133.046 224.215, 136.372 215.662 C 139.728 207.032, 141.222 194.761, 139.257 191.957 C 136.231 187.636, 133.483 190.891, 132.657 199.777 C 132.108 205.691, 131.275 209.106, 128.526 216.721 C 128.273 217.422, 125.621 215.352, 122.293 211.855 C 108.666 197.539, 92.885 190.696, 73.500 190.696 C 54.917 190.696, 40.625 196.516, 27.185 209.558 C 20.425 216.119, 18.712 217.330, 18.021 216.040 C 16.365 212.945, 14 202.146, 14 197.677 C 14 193.427, 12.214 190, 10 190 C 9.529 190, 8.436 190.707, 7.571 191.571 M 167.585 191.558 C 166.713 192.430, 166 193.529, 166 194 C 166 194.471, 166.713 195.570, 167.585 196.442 C 168.978 197.835, 173.159 197.995, 202.226 197.763 C 232.452 197.523, 235.377 197.350, 236.386 195.750 C 237.191 194.474, 237.191 193.526, 236.386 192.250 C 235.377 190.650, 232.452 190.477, 202.226 190.237 C 173.159 190.005, 168.978 190.165, 167.585 191.558 M 58.645 199.584 C 46.870 202.434, 32.786 211.791, 25.843 221.375 C 23.083 225.185, 23.065 225.302, 24.768 228.240 C 27.590 233.108, 38.539 242.510, 45.875 246.365 C 57.578 252.515, 72.972 254.631, 86.201 251.910 C 95.798 249.936, 107.449 243.557, 114.920 236.187 C 124.715 226.524, 124.814 226.210, 119.979 220.093 C 112.154 210.194, 98.458 201.686, 86.201 199.113 C 79.083 197.618, 65.830 197.845, 58.645 199.584 M 167.585 255.558 C 166.713 256.430, 166 257.529, 166 258 C 166 258.471, 166.713 259.570, 167.585 260.442 C 168.978 261.835, 173.159 261.995, 202.226 261.763 C 232.452 261.523, 235.377 261.350, 236.386 259.750 C 237.191 258.474, 237.191 257.526, 236.386 256.250 C 235.377 254.650, 232.452 254.477, 202.226 254.237 C 173.159 254.005, 168.978 254.165, 167.585 255.558 " stroke="none" fill="black" fill-rule="evenodd"/>
</svg>