<svg xmlns="http://www.w3.org/2000/svg" width="468" height="324" viewBox="0 0 468 324" version="1.1">
	<path d="M 33.384 127.412 C 15.480 131.757, 3.543 149.833, 6.993 167.372 C 7.651 170.715, 9.079 175.194, 10.166 177.325 C 12.765 182.419, 19.066 189.182, 23.377 191.503 L 26.824 193.360 22.662 196.005 C 14.442 201.228, 9.123 209.179, 7.014 219.396 C 4.201 233.027, 11.253 248.375, 23.673 255.654 C 28.824 258.673, 41.869 262.124, 44 261.032 C 44.825 260.609, 47.300 259.941, 49.500 259.548 C 58.256 257.981, 68.364 250.087, 72.834 241.325 C 80.896 225.522, 75.396 205.573, 60.338 196.005 L 56.176 193.360 59.623 191.503 C 63.934 189.182, 70.235 182.419, 72.834 177.325 C 83.106 157.191, 71.453 132.611, 49.147 127.360 C 42.397 125.772, 40.111 125.779, 33.384 127.412 M 103.571 127.571 C 102.175 128.968, 102 136.372, 102 194 C 102 251.628, 102.175 259.032, 103.571 260.429 C 104.436 261.293, 105.529 262, 106 262 C 106.471 262, 107.564 261.293, 108.429 260.429 C 109.825 259.032, 110 251.628, 110 194 C 110 136.372, 109.825 128.968, 108.429 127.571 C 107.564 126.707, 106.471 126, 106 126 C 105.529 126, 104.436 126.707, 103.571 127.571 M 224.500 126.944 C 216.325 128.268, 210.930 129.991, 203 133.814 C 192.444 138.903, 178.927 152.404, 173.778 163 C 167.648 175.615, 164.334 193.191, 167.491 196.348 C 169.547 198.404, 170.439 198.418, 172.429 196.429 C 173.379 195.478, 174 193.126, 174 190.478 C 174 177.343, 180.860 161.930, 191.395 151.395 C 202.853 139.936, 217.222 134, 233.500 134 C 243.706 134, 250.067 135.497, 260 140.235 C 278.952 149.275, 293 170.664, 293 190.478 C 293 193.126, 293.621 195.478, 294.571 196.429 C 296.561 198.418, 297.453 198.404, 299.509 196.348 C 302.666 193.191, 299.352 175.615, 293.222 163 C 288.088 152.433, 274.567 138.912, 264 133.778 C 251.545 127.725, 236.139 125.060, 224.500 126.944 M 31.054 135.728 C 25.018 137.859, 17.781 145.260, 15.667 151.463 C 10.058 167.925, 18.847 184.571, 35.250 188.550 L 38 189.217 38 161.608 C 38 140.146, 37.722 134.018, 36.750 134.079 C 36.063 134.122, 33.499 134.864, 31.054 135.728 M 46 161.500 L 46 189.135 48.250 188.475 C 61.167 184.686, 69 174.503, 69 161.500 C 69 148.497, 61.167 138.314, 48.250 134.525 L 46 133.865 46 161.500 M 423.571 159.571 C 422.227 160.916, 422 164.736, 422 186 C 422 207.264, 422.227 211.084, 423.571 212.429 C 424.436 213.293, 425.529 214, 426 214 C 426.471 214, 427.564 213.293, 428.429 212.429 C 429.773 211.084, 430 207.264, 430 186 C 430 164.736, 429.773 160.916, 428.429 159.571 C 427.564 158.707, 426.471 158, 426 158 C 425.529 158, 424.436 158.707, 423.571 159.571 M 135.571 191.571 C 134.707 192.436, 134 193.529, 134 194 C 134 194.471, 134.707 195.564, 135.571 196.429 C 136.436 197.293, 137.529 198, 138 198 C 138.471 198, 139.564 197.293, 140.429 196.429 C 141.293 195.564, 142 194.471, 142 194 C 142 193.529, 141.293 192.436, 140.429 191.571 C 139.564 190.707, 138.471 190, 138 190 C 137.529 190, 136.436 190.707, 135.571 191.571 M 199.571 191.571 C 198.707 192.436, 198 193.529, 198 194 C 198 194.471, 198.707 195.564, 199.571 196.429 C 200.844 197.701, 203.697 198, 214.575 198 L 228.006 198 213.003 227.994 C 204.751 244.490, 198 258.183, 198 258.422 C 198 258.661, 198.707 259.564, 199.571 260.429 C 200.936 261.793, 205.463 262, 234 262 C 262.537 262, 267.064 261.793, 268.429 260.429 C 269.293 259.564, 270 258.661, 270 258.422 C 270 258.183, 263.249 244.490, 254.997 227.994 L 239.994 198 253.425 198 C 264.303 198, 267.156 197.701, 268.429 196.429 C 269.293 195.564, 270 194.471, 270 194 C 270 193.529, 269.293 192.436, 268.429 191.571 C 267.064 190.207, 262.537 190, 234 190 C 205.463 190, 200.936 190.207, 199.571 191.571 M 327.571 191.571 C 326.707 192.436, 326 193.529, 326 194 C 326 194.471, 326.707 195.564, 327.571 196.429 C 328.936 197.793, 333.463 198, 362 198 C 390.537 198, 395.064 197.793, 396.429 196.429 C 397.293 195.564, 398 194.471, 398 194 C 398 193.529, 397.293 192.436, 396.429 191.571 C 395.064 190.207, 390.537 190, 362 190 C 333.463 190, 328.936 190.207, 327.571 191.571 M 31.054 199.728 C 25.018 201.859, 17.781 209.260, 15.667 215.463 C 10.058 231.925, 18.847 248.571, 35.250 252.550 L 38 253.217 38 225.608 C 38 204.146, 37.722 198.018, 36.750 198.079 C 36.063 198.122, 33.499 198.864, 31.054 199.728 M 46 225.500 L 46 253.135 48.250 252.475 C 61.167 248.686, 69 238.503, 69 225.500 C 69 212.497, 61.167 202.314, 48.250 198.525 L 46 197.865 46 225.500 M 220.743 228.500 L 208.005 254 234 254 L 259.995 254 247.257 228.500 C 240.250 214.475, 234.285 203, 234 203 C 233.715 203, 227.750 214.475, 220.743 228.500 M 423.571 222.571 C 422.707 223.436, 422 224.529, 422 225 C 422 226.111, 424.889 229, 426 229 C 427.111 229, 430 226.111, 430 225 C 430 223.889, 427.111 221, 426 221 C 425.529 221, 424.436 221.707, 423.571 222.571 " stroke="none" fill="black" fill-rule="evenodd"/>
</svg>