<svg xmlns="http://www.w3.org/2000/svg" width="372" height="324" viewBox="0 0 372 324" version="1.1">
	<path d="M 135.571 127.571 C 134.707 128.436, 134 129.529, 134 130 C 134 130.471, 134.707 131.564, 135.571 132.429 C 136.900 133.758, 140.389 134, 158.188 134 L 179.233 134 175.660 137.955 C 163.167 151.782, 163.325 171.633, 176.036 185.423 C 178.177 187.746, 181.481 190.482, 183.377 191.503 L 186.824 193.360 182.662 196.005 C 170.774 203.559, 164.294 218.280, 166.991 231.604 C 167.648 234.847, 169.242 239.423, 170.535 241.772 L 172.884 246.045 169.726 244.272 C 163.716 240.900, 152.627 228.803, 148.757 221.397 C 144.760 213.749, 142.039 204.029, 142.015 197.321 C 142.001 193.426, 140.122 190, 138 190 C 137.529 190, 136.411 190.732, 135.515 191.627 C 132.455 194.687, 135.723 211.724, 141.687 223.806 C 146.039 232.622, 156.506 244.214, 165.307 249.965 L 171.483 254 90.313 254 C 17.855 254, 8.974 254.169, 7.571 255.571 C 5.598 257.545, 5.598 258.455, 7.571 260.429 C 8.984 261.841, 22.190 262, 138 262 C 253.810 262, 267.016 261.841, 268.429 260.429 C 269.825 259.032, 270 251.628, 270 194 C 270 136.372, 269.825 128.968, 268.429 127.571 C 267.032 126.175, 259.628 126, 202 126 C 144.372 126, 136.968 126.175, 135.571 127.571 M 321.384 127.412 C 303.475 131.758, 291.559 149.807, 294.987 167.396 C 297.770 181.681, 309.103 193.554, 321.908 195.601 L 326 196.256 326 227.556 C 326 254.678, 326.210 259.067, 327.571 260.429 C 328.436 261.293, 329.529 262, 330 262 C 330.471 262, 331.564 261.293, 332.429 260.429 C 333.790 259.067, 334 254.677, 334 227.540 L 334 196.223 337.703 195.528 C 346.178 193.938, 355.709 186.644, 360.232 178.288 C 371.343 157.761, 360.001 132.740, 337.147 127.360 C 330.397 125.772, 328.111 125.779, 321.384 127.412 M 191.054 135.728 C 185.018 137.859, 177.781 145.260, 175.667 151.463 C 170.058 167.925, 178.847 184.571, 195.250 188.550 L 198 189.217 198 161.608 C 198 140.146, 197.722 134.018, 196.750 134.079 C 196.063 134.122, 193.499 134.864, 191.054 135.728 M 206 161.500 L 206 189.135 208.250 188.475 C 221.167 184.686, 229 174.503, 229 161.500 C 229 148.497, 221.167 138.314, 208.250 134.525 L 206 133.865 206 161.500 M 227.340 137.955 C 239.833 151.782, 239.675 171.633, 226.964 185.423 C 224.823 187.746, 221.519 190.482, 219.623 191.503 L 216.176 193.360 220.338 196.005 C 232.203 203.544, 238.612 218.007, 236.022 231.396 C 235.372 234.753, 233.778 239.423, 232.478 241.772 L 230.116 246.045 233.274 244.272 C 239.284 240.900, 250.373 228.803, 254.243 221.397 C 260.676 209.086, 261.175 205.510, 261.724 167.750 L 262.215 134 242.991 134 L 223.767 134 227.340 137.955 M 319.054 135.728 C 313.018 137.859, 305.781 145.260, 303.667 151.463 C 297.198 170.450, 309.964 189, 329.500 189 C 345.108 189, 357 177.108, 357 161.500 C 357 145.670, 344.965 133.854, 329.072 134.079 C 326.007 134.122, 321.499 134.864, 319.054 135.728 M 191.054 199.728 C 185.018 201.859, 177.781 209.260, 175.667 215.463 C 170.058 231.925, 178.847 248.571, 195.250 252.550 L 198 253.217 198 225.608 C 198 204.146, 197.722 198.018, 196.750 198.079 C 196.063 198.122, 193.499 198.864, 191.054 199.728 M 206 225.500 L 206 253.135 208.250 252.475 C 221.167 248.686, 229 238.503, 229 225.500 C 229 212.497, 221.167 202.314, 208.250 198.525 L 206 197.865 206 225.500 M 259.052 228.121 C 255.645 234.183, 244.644 245.423, 237.635 250.002 L 231.517 254 246.758 254 L 262 254 262 239 C 262 230.750, 261.858 224, 261.684 224 C 261.510 224, 260.326 225.855, 259.052 228.121 " stroke="none" fill="black" fill-rule="evenodd"/>
</svg>