<svg xmlns="http://www.w3.org/2000/svg" width="340" height="324" viewBox="0 0 340 324" version="1.1">
	<path d="M 23.571 63.571 C 21.243 65.900, 21.243 98.100, 23.571 100.429 C 25.900 102.757, 58.100 102.757, 60.429 100.429 C 62.757 98.100, 62.757 65.900, 60.429 63.571 C 58.100 61.243, 25.900 61.243, 23.571 63.571 M 30 82 L 30 94 42 94 L 54 94 54 82 L 54 70 42 70 L 30 70 30 82 M 7.571 127.571 C 6.707 128.436, 6 129.529, 6 130 C 6 130.471, 6.707 131.564, 7.571 132.429 C 8.855 133.712, 11.788 134, 23.571 134 L 38 134 38 162 L 38 190 23.571 190 C 11.788 190, 8.855 190.288, 7.571 191.571 C 5.598 193.545, 5.598 194.455, 7.571 196.429 C 8.855 197.712, 11.788 198, 23.571 198 L 38 198 38 226 L 38 254 23.571 254 C 11.788 254, 8.855 254.288, 7.571 255.571 C 5.598 257.545, 5.598 258.455, 7.571 260.429 C 8.936 261.793, 13.463 262, 42 262 C 70.537 262, 75.064 261.793, 76.429 260.429 C 78.402 258.455, 78.402 257.545, 76.429 255.571 C 75.145 254.288, 72.212 254, 60.429 254 L 46 254 46 226 L 46 198 60.429 198 C 72.212 198, 75.145 197.712, 76.429 196.429 C 78.402 194.455, 78.402 193.545, 76.429 191.571 C 75.145 190.288, 72.212 190, 60.429 190 L 46 190 46 162 L 46 134 60.429 134 C 72.212 134, 75.145 133.712, 76.429 132.429 C 77.293 131.564, 78 130.471, 78 130 C 78 129.529, 77.293 128.436, 76.429 127.571 C 75.064 126.207, 70.537 126, 42 126 C 13.463 126, 8.936 126.207, 7.571 127.571 M 127.500 175.113 C 119.901 176.639, 109.028 182.323, 104.154 187.318 C 100.351 191.215, 99.949 192.036, 100.939 193.886 C 102.385 196.587, 105.162 196.586, 107.595 193.884 C 110.990 190.112, 117.520 186.183, 124.083 183.964 C 129.244 182.219, 132.167 181.872, 139.017 182.194 C 150.494 182.733, 158.056 186.245, 167.159 195.267 C 176.085 204.113, 184.377 208.074, 197 209.520 C 214.479 211.522, 243.666 195.821, 233.873 189.685 C 232.605 188.890, 231.264 189.469, 227.803 192.305 C 225.359 194.308, 220.692 197.195, 217.430 198.723 C 212.127 201.206, 210.389 201.500, 201 201.500 C 191.266 201.500, 190.008 201.267, 183.759 198.307 C 179.377 196.231, 175.395 193.352, 172.380 190.078 C 163.679 180.633, 152.783 175.469, 139.702 174.591 C 135.741 174.326, 130.250 174.560, 127.500 175.113 M 290.355 190.986 C 284.401 192.241, 276.644 196.423, 272.405 200.661 C 270.392 202.675, 267.339 207.288, 265.622 210.911 C 262.924 216.606, 262.503 218.586, 262.524 225.500 C 262.568 239.824, 269.853 251.229, 282.841 257.306 C 288.321 259.871, 290.566 260.355, 296.930 260.344 C 307.200 260.327, 314.418 257.465, 321.353 250.661 C 329.450 242.714, 331.500 237.633, 331.500 225.500 C 331.500 213.367, 329.450 208.286, 321.353 200.339 C 313.361 192.497, 300.948 188.752, 290.355 190.986 M 287.603 199.477 C 279.527 202.355, 279.593 203.078, 288.772 212.257 L 297 220.485 305.698 211.788 L 314.395 203.091 308.947 200.555 C 302.680 197.638, 293.994 197.199, 287.603 199.477 M 274.192 210.269 C 269.752 215.619, 268.575 229.264, 271.918 236.627 C 272.948 238.896, 274.209 241.011, 274.718 241.326 C 275.228 241.641, 279.325 238.199, 283.823 233.678 L 292.001 225.457 283.671 217.170 C 276.884 210.419, 275.128 209.140, 274.192 210.269 M 310.727 216.772 C 306.477 221.047, 303 224.995, 303 225.546 C 303 226.667, 318.144 242, 319.252 242 C 319.641 242, 320.973 240.088, 322.212 237.750 C 324.008 234.363, 324.465 231.875, 324.465 225.500 C 324.465 219.125, 324.008 216.637, 322.212 213.250 C 320.973 210.912, 319.620 209, 319.206 209 C 318.792 209, 314.976 212.497, 310.727 216.772 M 288.477 239.059 L 280.500 247.118 282.830 249.034 C 288.486 253.685, 300.578 254.341, 308.937 250.449 L 314.375 247.918 305.959 239.459 C 301.331 234.807, 297.299 231, 296.999 231 C 296.699 231, 292.864 234.627, 288.477 239.059 " stroke="none" fill="black" fill-rule="evenodd"/>
</svg>