<svg xmlns="http://www.w3.org/2000/svg" width="403" height="324" viewBox="0 0 403 324" version="1.1">
	<path d="M 167.750 127.080 C 166.111 128.035, 166 132.293, 166 194.015 C 166 259.587, 166.011 259.935, 168.064 261.034 C 173.084 263.721, 173 264.854, 173 194.078 C 173 123.068, 173.071 123.981, 167.750 127.080 M 231.750 127.080 C 230.111 128.035, 230 132.293, 230 194.015 C 230 259.587, 230.011 259.935, 232.064 261.034 C 237.084 263.721, 237 264.854, 237 194.078 C 237 123.068, 237.071 123.981, 231.750 127.080 M 263.750 127.080 C 261.422 128.436, 261.524 131.675, 263.934 132.965 C 265.208 133.646, 287.063 134, 327.934 134 L 390 134 390 194 L 390 254 327.934 254 C 287.063 254, 265.208 254.354, 263.934 255.035 C 262.870 255.605, 262 256.939, 262 258 C 262 259.061, 262.870 260.395, 263.934 260.965 C 266.886 262.544, 394.215 262.385, 395.800 260.800 C 397.535 259.065, 397.535 128.935, 395.800 127.200 C 394.229 125.629, 266.440 125.513, 263.750 127.080 M 199.750 191.080 C 197.372 192.465, 197.542 195.685, 200.064 197.034 C 203.753 199.008, 206.819 194.219, 203.800 191.200 C 202.367 189.767, 202.022 189.757, 199.750 191.080 M 39.571 223.571 C 38.707 224.436, 38 225.636, 38 226.239 C 38 226.841, 43.941 233.334, 51.202 240.667 L 64.405 254 36.774 254 C 12.988 254, 8.924 254.219, 7.571 255.571 C 5.596 257.546, 5.598 258.455, 7.579 260.436 C 8.990 261.847, 16.058 261.987, 74.220 261.757 C 134.934 261.517, 139.356 261.383, 140.386 259.750 C 141.191 258.474, 141.191 257.526, 140.387 256.250 C 139.393 254.673, 136.553 254.451, 111.626 254 L 83.967 253.500 96.484 241.015 C 104.434 233.085, 109 227.777, 109 226.465 C 109 224.288, 107.269 222, 105.623 222 C 105.085 222, 97.750 228.844, 89.323 237.208 L 74 252.416 58.677 237.208 C 50.250 228.844, 42.857 222, 42.249 222 C 41.640 222, 40.436 222.707, 39.571 223.571 " stroke="none" fill="black" fill-rule="evenodd"/>
</svg>