<svg xmlns="http://www.w3.org/2000/svg" width="372" height="324" viewBox="0 0 372 324" version="1.1">
	<path d="M 135.571 127.571 C 134.707 128.436, 134 129.529, 134 130 C 134 130.471, 134.707 131.564, 135.571 132.429 C 136.900 133.758, 140.389 134, 158.188 134 L 179.233 134 175.502 138.130 C 169.343 144.947, 166.611 152.128, 166.611 161.500 C 166.611 167.953, 167.103 170.573, 169.157 175.046 C 172.227 181.735, 177.047 187.427, 182.662 190.995 L 186.824 193.640 183.377 195.497 C 178.377 198.189, 172.212 205.299, 169.216 211.825 C 167.090 216.456, 166.610 218.997, 166.606 225.638 C 166.601 232.674, 167.006 234.595, 169.599 239.825 L 172.597 245.875 169.582 244.188 C 163.708 240.900, 152.590 228.732, 148.757 221.397 C 144.760 213.749, 142.039 204.029, 142.015 197.321 C 142.001 193.426, 140.122 190, 138 190 C 137.529 190, 136.399 190.743, 135.491 191.652 C 132.366 194.777, 135.569 211.386, 141.692 223.806 C 146.038 232.621, 156.499 244.209, 165.307 249.965 L 171.483 254 90.313 254 C 17.855 254, 8.974 254.169, 7.571 255.571 C 5.598 257.545, 5.598 258.455, 7.571 260.429 C 8.984 261.841, 22.190 262, 138 262 C 253.810 262, 267.016 261.841, 268.429 260.429 C 269.825 259.032, 270 251.628, 270 194 C 270 136.372, 269.825 128.968, 268.429 127.571 C 267.032 126.175, 259.628 126, 202 126 C 144.372 126, 136.968 126.175, 135.571 127.571 M 295.571 127.571 C 294.207 128.936, 294 133.463, 294 162 C 294 190.537, 294.207 195.064, 295.571 196.429 C 296.931 197.788, 301.242 198, 327.571 198 L 358 198 358 228.429 C 358 254.758, 358.212 259.069, 359.571 260.429 C 361.545 262.402, 362.455 262.402, 364.429 260.429 C 365.825 259.032, 366 251.628, 366 194 C 366 136.372, 365.825 128.968, 364.429 127.571 C 362.455 125.598, 361.545 125.598, 359.571 127.571 C 358.212 128.931, 358 133.242, 358 159.571 L 358 190 330 190 L 302 190 302 159.571 C 302 133.242, 301.788 128.931, 300.429 127.571 C 299.564 126.707, 298.471 126, 298 126 C 297.529 126, 296.436 126.707, 295.571 127.571 M 191.054 135.728 C 185.018 137.859, 177.781 145.260, 175.667 151.463 C 171.964 162.333, 174.320 173.225, 182.048 180.952 C 186.185 185.090, 193.537 189, 197.178 189 C 197.630 189, 198 176.625, 198 161.500 C 198 140.125, 197.722 134.018, 196.750 134.079 C 196.063 134.122, 193.499 134.864, 191.054 135.728 M 206 161.500 L 206 189.135 208.250 188.448 C 217.341 185.671, 224.783 179.020, 227.403 171.329 C 232.854 155.332, 224.639 139.558, 208.250 134.552 L 206 133.865 206 161.500 M 227.340 137.955 C 239.833 151.782, 239.675 171.633, 226.964 185.423 C 224.823 187.746, 221.519 190.482, 219.623 191.503 L 216.176 193.360 220.338 196.005 C 232.203 203.544, 238.612 218.007, 236.022 231.396 C 235.372 234.753, 233.778 239.423, 232.478 241.772 L 230.116 246.045 233.274 244.272 C 235.012 243.298, 239.665 239.305, 243.616 235.399 C 249.178 229.900, 251.703 226.404, 254.810 219.899 C 257.017 215.280, 259.356 209.250, 260.009 206.500 C 260.738 203.429, 261.392 188.480, 261.705 167.750 L 262.215 134 242.991 134 L 223.767 134 227.340 137.955 M 191.054 199.728 C 185.018 201.859, 177.781 209.260, 175.667 215.463 C 171.964 226.333, 174.320 237.225, 182.048 244.952 C 186.185 249.090, 193.537 253, 197.178 253 C 197.630 253, 198 240.625, 198 225.500 C 198 204.125, 197.722 198.018, 196.750 198.079 C 196.063 198.122, 193.499 198.864, 191.054 199.728 M 206 225.500 L 206 253.135 208.250 252.448 C 217.341 249.671, 224.783 243.020, 227.403 235.329 C 232.854 219.332, 224.639 203.558, 208.250 198.552 L 206 197.865 206 225.500 M 259.052 228.121 C 255.645 234.183, 244.644 245.423, 237.635 250.002 L 231.517 254 246.758 254 L 262 254 262 239 C 262 230.750, 261.858 224, 261.684 224 C 261.510 224, 260.326 225.855, 259.052 228.121 " stroke="none" fill="black" fill-rule="evenodd"/>
</svg>