<svg xmlns="http://www.w3.org/2000/svg" width="436" height="324" viewBox="0 0 436 324" version="1.1">
	<path d="M 135.571 127.571 C 134.707 128.436, 134 129.529, 134 130 C 134 130.471, 134.707 131.564, 135.571 132.429 C 136.901 133.758, 140.397 134, 158.274 134 L 179.406 134 175.755 137.750 C 166.562 147.193, 163.695 163.333, 169.129 175.046 C 172.251 181.774, 177.068 187.441, 182.717 191.030 L 186.933 193.709 184.428 194.851 C 179.456 197.116, 172.300 204.941, 169.417 211.266 C 165.430 220.009, 165.355 230.909, 169.223 239.250 C 170.689 242.412, 171.658 245, 171.375 245 C 169.838 245, 161.650 238.397, 157.344 233.686 C 148.582 224.099, 142 208.652, 142 197.677 C 142 193.427, 140.214 190, 138 190 C 136.355 190, 134 193.160, 134.035 195.321 C 134.107 199.851, 136.875 212.720, 138.962 218.236 C 143.344 229.814, 153.902 242.456, 165.626 250.166 L 171.457 254 90.300 254 C 17.854 254, 8.974 254.169, 7.571 255.571 C 5.598 257.545, 5.598 258.455, 7.571 260.429 C 8.984 261.841, 22.190 262, 138 262 C 253.810 262, 267.016 261.841, 268.429 260.429 C 269.825 259.032, 270 251.628, 270 194 C 270 136.372, 269.825 128.968, 268.429 127.571 C 267.032 126.175, 259.628 126, 202 126 C 144.372 126, 136.968 126.175, 135.571 127.571 M 191.463 135.591 C 185.971 137.541, 180.552 142.205, 177.249 147.824 C 174.800 151.989, 174.500 153.483, 174.500 161.500 C 174.500 169.502, 174.803 171.015, 177.230 175.145 C 181.385 182.213, 187.168 186.498, 195.305 188.541 L 198 189.217 198 161.608 C 198 140.146, 197.722 134.018, 196.750 134.079 C 196.063 134.122, 193.683 134.803, 191.463 135.591 M 206 161.567 L 206 189.135 208.250 188.434 C 216.986 185.712, 222.088 181.513, 225.883 173.919 C 228.363 168.955, 229 166.418, 229 161.500 C 229 150.038, 221.486 139.200, 210.965 135.488 C 208.646 134.669, 206.580 134, 206.374 134 C 206.168 134, 206 146.405, 206 161.567 M 227.882 138.603 C 239.181 151.440, 239.030 171.965, 227.541 184.743 C 225.148 187.405, 221.612 190.433, 219.683 191.471 L 216.176 193.360 220.338 196.005 C 235.177 205.434, 240.594 225.210, 232.705 241.152 L 230.353 245.905 233.368 244.202 C 238.835 241.115, 249.603 229.630, 253.340 222.899 C 260.443 210.108, 261.249 204.774, 261.753 167.250 L 262.200 134 243.015 134 L 223.830 134 227.882 138.603 M 354.355 190.986 C 332.853 195.520, 320.274 219.905, 329.329 239.500 C 330.854 242.800, 333.972 247.412, 336.259 249.750 L 340.416 254 318.780 254 C 300.443 254, 296.903 254.240, 295.571 255.571 C 293.598 257.545, 293.598 258.455, 295.571 260.429 C 296.930 261.787, 301.197 262, 327.071 262 C 351.420 262, 357 262.250, 357 263.340 C 357 267.386, 352.515 281.182, 349.340 286.899 C 344.205 296.148, 334.052 305.887, 324.875 310.369 C 316.521 314.448, 307.519 317, 301.481 317 C 296.639 317, 293.637 318.870, 294.151 321.566 C 294.457 323.175, 295.527 323.555, 300.510 323.830 C 308.944 324.294, 316.039 322.543, 326.933 317.310 C 339.825 311.115, 350.743 300.406, 356.824 287.988 C 361.049 279.360, 364 269.825, 364 264.804 L 364 262.028 395.641 261.764 C 424.518 261.523, 427.379 261.347, 428.386 259.750 C 429.191 258.474, 429.191 257.526, 428.387 256.250 C 427.398 254.682, 424.951 254.472, 404.831 254.232 L 382.378 253.963 386.526 249.634 C 393.594 242.258, 395.500 237.131, 395.500 225.500 C 395.500 213.367, 393.450 208.286, 385.353 200.339 C 377.361 192.497, 364.948 188.752, 354.355 190.986 M 191.463 199.591 C 185.971 201.541, 180.552 206.205, 177.249 211.824 C 174.800 215.989, 174.500 217.483, 174.500 225.500 C 174.500 233.502, 174.803 235.015, 177.230 239.145 C 181.385 246.213, 187.168 250.498, 195.305 252.541 L 198 253.217 198 225.608 C 198 204.146, 197.722 198.018, 196.750 198.079 C 196.063 198.122, 193.683 198.803, 191.463 199.591 M 206 225.567 L 206 253.135 208.250 252.434 C 216.986 249.712, 222.088 245.513, 225.883 237.919 C 228.363 232.955, 229 230.418, 229 225.500 C 229 214.038, 221.486 203.200, 210.965 199.488 C 208.646 198.669, 206.580 198, 206.374 198 C 206.168 198, 206 210.405, 206 225.567 M 351.627 199.468 C 346.247 201.386, 341.039 205.829, 337.500 211.519 C 333.527 217.908, 332.712 229.311, 335.741 236.129 C 340.389 246.589, 348.227 252.058, 359.616 252.789 C 366.399 253.224, 367.556 253.001, 373.397 250.125 C 385.374 244.229, 391.511 230.958, 388.096 218.337 C 384.933 206.647, 373.616 197.959, 361.663 198.044 C 358.273 198.068, 353.757 198.709, 351.627 199.468 M 259.102 227.509 C 255.624 234.071, 245.831 244.331, 238.357 249.242 L 231.877 253.500 246.578 253.778 C 254.663 253.930, 261.453 253.881, 261.666 253.667 C 261.879 253.454, 261.929 246.463, 261.777 238.132 L 261.500 222.984 259.102 227.509 " stroke="none" fill="black" fill-rule="evenodd"/>
</svg>