<svg xmlns="http://www.w3.org/2000/svg" width="324" height="324" viewBox="0 0 324 324" version="1.1">
	<path d="M 275.235 123.046 C 271.875 124.382, 270.657 128.437, 272.529 132.056 C 273.366 133.675, 274.412 135, 274.852 135 C 275.293 135, 275.462 136.306, 275.228 137.901 C 274.884 140.241, 275.245 140.943, 277.089 141.528 C 279.913 142.424, 282.492 139.599, 284.015 133.943 C 286.149 126.019, 281.687 120.481, 275.235 123.046 M 175.870 127.014 C 160.636 129.407, 149.616 135.194, 137.974 146.916 C 124.475 160.507, 118.696 174.473, 118.696 193.500 C 118.696 205.257, 120.549 213.240, 125.778 224 C 130.922 234.587, 144.441 248.092, 155 253.193 C 165.909 258.463, 173.807 260.304, 185.500 260.304 C 204.834 260.304, 218.527 254.551, 232.539 240.539 C 242.907 230.171, 247.849 221.502, 250.516 209 C 251.396 204.875, 252.469 199.845, 252.900 197.823 C 254.282 191.337, 250.360 173.524, 245.232 163 C 240.081 152.428, 226.555 138.907, 216 133.778 C 203.324 127.618, 188.224 125.073, 175.870 127.014 M 170.645 135.584 C 150.562 140.445, 132.305 158.877, 127.537 179.103 C 122.669 199.756, 128.589 220.738, 143.450 235.506 C 158.485 250.448, 179.273 256.324, 199.897 251.463 C 220.261 246.662, 238.662 228.261, 243.463 207.897 C 246.053 196.908, 249.186 198, 215.071 198 C 189.197 198, 184.930 197.787, 183.571 196.429 C 182.212 195.069, 182 190.758, 182 164.429 L 182 134 179.250 134.083 C 177.738 134.129, 173.865 134.804, 170.645 135.584 M 190 162 L 190 190 217.500 190 L 245 190 244.985 187.750 C 244.977 186.512, 244.292 182.621, 243.463 179.103 C 238.650 158.685, 220.315 140.350, 199.897 135.537 C 188.926 132.951, 190 130.080, 190 162 M 20.648 190.983 C 13.384 193.272, 7.912 199.505, 6.503 207.096 C 5.855 210.586, 7.585 214, 10 214 C 11.861 214, 14 210.700, 14 207.829 C 14 205.718, 15.030 203.770, 17.400 201.400 C 20.302 198.498, 21.488 198, 25.500 198 C 29.512 198, 30.698 198.498, 33.600 201.400 C 36.502 204.302, 37 205.488, 37 209.500 C 37 213.512, 36.502 214.698, 33.600 217.600 C 31.526 219.674, 29.214 221, 27.671 221 C 24.930 221, 22 223.325, 22 225.500 C 22 227.675, 24.930 230, 27.671 230 C 29.214 230, 31.526 231.326, 33.600 233.400 C 36.502 236.302, 37 237.488, 37 241.500 C 37 245.512, 36.502 246.698, 33.600 249.600 C 30.698 252.502, 29.512 253, 25.500 253 C 21.488 253, 20.302 252.502, 17.400 249.600 C 15.326 247.526, 14 245.214, 14 243.671 C 14 241.214, 11.733 238, 10 238 C 9.529 238, 8.412 238.731, 7.519 239.624 C 4.560 242.583, 7.485 250.585, 13.436 255.809 C 21.619 262.995, 32.330 262.083, 39.809 253.564 C 46.605 245.824, 46.103 235.090, 38.617 228.097 L 36.044 225.693 39.468 221.903 C 45.735 214.967, 46.247 206.362, 40.860 198.501 C 36.682 192.404, 27.261 188.899, 20.648 190.983 M 68.648 190.983 C 63.929 192.470, 59.243 196.229, 56.803 200.483 C 54.666 204.211, 54.477 205.837, 54.174 223.111 C 53.808 244.003, 54.504 248.226, 59.191 253.564 C 69.332 265.115, 85.115 262.033, 91.665 247.223 C 93.791 242.414, 93.999 240.539, 93.985 226.221 C 93.970 209.896, 93.121 205.191, 88.972 198.462 C 85.421 192.702, 75.168 188.929, 68.648 190.983 M 65.400 201.400 L 62 204.800 62 225.500 L 62 246.200 65.400 249.600 C 68.278 252.478, 69.504 253, 73.384 253 C 79.206 253, 83.679 249.351, 85.029 243.500 C 86.188 238.477, 86.203 214.002, 85.050 208.028 C 83.830 201.704, 79.522 198, 73.384 198 C 69.504 198, 68.278 198.522, 65.400 201.400 " stroke="none" fill="black" fill-rule="evenodd"/>
</svg>