<svg xmlns="http://www.w3.org/2000/svg" width="212" height="324" viewBox="0 0 212 324" version="1.1">
	<path d="M 64.500 127.002 C 56.514 128.203, 51.023 129.952, 43 133.853 C 32.391 139.012, 18.889 152.480, 13.780 163 C 6.893 177.182, 6.744 178.323, 6.267 220.597 C 5.879 255.050, 5.996 258.853, 7.490 260.347 C 8.993 261.850, 15.046 262, 74.371 262 C 123.771 262, 139.891 261.709, 140.800 260.800 C 141.683 259.917, 142 251.198, 142 227.789 C 142 193.307, 140.987 182.564, 136.592 170.457 C 125.924 141.067, 94.983 122.417, 64.500 127.002 M 167.200 128.200 C 165.167 130.233, 165.805 131.450, 171.458 136.331 C 178.512 142.421, 184.792 150.642, 189.434 159.864 C 199.795 180.450, 199.890 206.386, 189.679 226.636 C 184.976 235.962, 178.372 244.701, 171.622 250.528 C 165.844 255.516, 164.858 257.808, 167.534 260.028 C 169.807 261.915, 172.848 259.928, 181.424 250.952 C 199.604 231.923, 207.970 205.922, 203.932 181 C 201.119 163.638, 193.577 148.764, 181 135.777 C 172.594 127.096, 169.824 125.576, 167.200 128.200 M 59.217 135.449 C 38.165 140.547, 19.404 159.827, 15.090 180.799 C 14.429 184.014, 14 199.452, 14 220.049 L 14 254 74.113 254 L 134.226 254 133.742 219.250 C 133.350 191.102, 132.945 183.384, 131.609 178.624 C 125.686 157.522, 108.249 140.335, 87.897 135.537 C 80.221 133.728, 66.500 133.686, 59.217 135.449 " stroke="none" fill="black" fill-rule="evenodd"/>
</svg>