<svg xmlns="http://www.w3.org/2000/svg" width="212" height="324" viewBox="0 0 212 324" version="1.1">
	<path d="M 72.369 62.765 C 71.416 63.384, 6 193.155, 6 194.426 C 6 194.663, 6.707 195.564, 7.571 196.429 C 8.844 197.701, 11.697 198, 22.575 198 L 36.006 198 21.020 227.961 C 12.225 245.542, 6.278 258.561, 6.627 259.469 C 6.953 260.321, 8.183 261.250, 9.360 261.535 C 10.537 261.819, 40.476 261.928, 75.891 261.776 C 133.021 261.531, 140.394 261.324, 141.269 259.936 C 142.020 258.745, 138.638 251.163, 127.123 228.213 L 111.992 198.055 126.138 197.777 C 137.584 197.553, 140.471 197.206, 141.256 195.959 C 141.990 194.794, 134.233 178.428, 109.501 128.959 C 80.076 70.104, 75.794 62.031, 74 62.031 C 73.725 62.031, 72.991 62.361, 72.369 62.765 M 44.747 132.500 L 16.002 190 28.003 190 L 40.004 190 55.736 158.517 C 64.389 141.202, 72.076 126.801, 72.820 126.516 C 73.564 126.230, 74.767 126.335, 75.495 126.748 C 76.223 127.162, 83.829 141.563, 92.397 158.750 L 107.976 190 119.987 190 L 131.998 190 103.253 132.500 C 87.443 100.875, 74.279 75, 74 75 C 73.721 75, 60.557 100.875, 44.747 132.500 M 183.200 127.200 C 181.294 129.106, 181.773 130.977, 185.149 134.822 C 194.714 145.716, 197.058 164.590, 190.574 178.500 C 189.292 181.250, 185.667 186.650, 182.517 190.500 C 179.367 194.350, 175.198 200.793, 173.252 204.817 C 170.193 211.143, 169.648 213.395, 169.227 221.442 C 168.657 232.350, 169.961 239.058, 174.236 247.204 C 178.809 255.917, 183.690 261.174, 186.866 260.804 C 190.587 260.372, 190.694 257.555, 187.144 253.511 C 175.727 240.508, 172.841 222.404, 179.865 207.856 C 181.554 204.360, 185.486 198.350, 188.604 194.500 C 202.605 177.214, 205.535 158.503, 197.080 140.377 C 194.142 134.078, 187.682 126, 185.584 126 C 184.933 126, 183.860 126.540, 183.200 127.200 M 44.755 196.500 L 16.010 254 74.004 254 L 131.998 254 103.253 196.500 C 87.443 164.875, 74.281 139, 74.004 139 C 73.727 139, 60.565 164.875, 44.755 196.500 " stroke="none" fill="black" fill-rule="evenodd"/>
</svg>