<svg xmlns="http://www.w3.org/2000/svg" width="340" height="324" viewBox="0 0 340 324" version="1.1">
	<path d="M 7.571 127.571 C 6.707 128.436, 6 129.335, 6 129.569 C 6 131.164, 71.738 261.069, 72.739 261.453 C 73.432 261.719, 74.568 261.719, 75.261 261.453 C 76.845 260.846, 141 132.676, 141 130.120 C 141 127.786, 138.716 125.788, 136.862 126.500 C 136.096 126.793, 121.755 154.476, 104.992 188.017 C 88.228 221.558, 74.282 249, 74 249 C 73.718 249, 59.990 221.941, 43.493 188.869 C 26.997 155.796, 12.905 128.121, 12.179 127.369 C 10.471 125.600, 9.500 125.643, 7.571 127.571 M 193.972 127.329 C 183.129 129.723, 174.127 137.180, 169.163 147.880 C 165.468 155.846, 165.454 167.124, 169.129 175.046 C 172.242 181.754, 177.065 187.439, 182.662 190.995 L 186.824 193.640 183.377 195.497 C 178.395 198.179, 172.223 205.282, 169.189 211.825 C 165.452 219.882, 165.441 231.096, 169.163 239.120 C 174.202 249.983, 183.023 257.197, 194.446 259.798 C 197.776 260.557, 201.175 261.189, 202 261.204 C 204.380 261.247, 214.800 258.155, 218.202 256.395 C 222.965 253.932, 230.313 246.057, 233.033 240.500 C 236.218 233.992, 236.968 221.422, 234.596 214.310 C 232.521 208.086, 226.686 200.481, 220.990 196.574 L 216.480 193.481 220.990 190.413 C 226.667 186.552, 232.513 178.937, 234.596 172.690 C 236.962 165.597, 236.217 153.015, 233.046 146.500 C 226.049 132.126, 209.353 123.934, 193.972 127.329 M 191.627 135.468 C 186.247 137.386, 181.039 141.829, 177.500 147.519 C 173.527 153.908, 172.712 165.311, 175.741 172.129 C 179.420 180.408, 186.903 186.846, 194.750 188.481 L 198 189.159 198 161.579 C 198 140.159, 197.721 134.010, 196.750 134.044 C 196.063 134.068, 193.757 134.709, 191.627 135.468 M 205 161.608 L 205 189.217 207.456 188.600 C 220.271 185.384, 229 174.404, 229 161.500 C 229 150.038, 221.486 139.200, 210.965 135.488 C 208.646 134.669, 206.355 134, 205.874 134 C 205.393 134, 205 146.424, 205 161.608 M 263.585 191.558 C 262.713 192.430, 262 193.529, 262 194 C 262 194.471, 262.713 195.570, 263.585 196.442 C 264.978 197.835, 269.159 197.995, 298.226 197.763 C 328.452 197.523, 331.377 197.350, 332.386 195.750 C 333.191 194.474, 333.191 193.526, 332.386 192.250 C 331.377 190.650, 328.452 190.477, 298.226 190.237 C 269.159 190.005, 264.978 190.165, 263.585 191.558 M 191.627 199.468 C 186.247 201.386, 181.039 205.829, 177.500 211.519 C 173.527 217.908, 172.712 229.311, 175.741 236.129 C 179.420 244.408, 186.903 250.846, 194.750 252.481 L 198 253.159 198 225.579 C 198 204.159, 197.721 198.010, 196.750 198.044 C 196.063 198.068, 193.757 198.709, 191.627 199.468 M 205 225.608 L 205 253.217 207.456 252.600 C 220.271 249.384, 229 238.404, 229 225.500 C 229 214.038, 221.486 203.200, 210.965 199.488 C 208.646 198.669, 206.355 198, 205.874 198 C 205.393 198, 205 210.424, 205 225.608 " stroke="none" fill="black" fill-rule="evenodd"/>
</svg>