<svg xmlns="http://www.w3.org/2000/svg" width="148" height="324" viewBox="0 0 148 324" version="1.1">
	<path d="M 71.585 127.558 C 69.598 129.545, 69.595 130.452, 71.571 132.429 C 72.855 133.712, 75.788 134, 87.571 134 L 102 134 102 196.965 L 102 259.930 104.183 261.098 C 106.042 262.093, 106.636 261.933, 108.183 260.022 C 109.895 257.908, 110 254.212, 110 195.916 L 110 134.053 124.643 133.777 C 137.314 133.537, 139.433 133.264, 140.387 131.750 C 141.191 130.475, 141.190 129.525, 140.386 128.250 C 139.377 126.650, 136.452 126.477, 106.226 126.237 C 77.159 126.005, 72.978 126.165, 71.585 127.558 M 6.478 129.069 C 5.953 130.724, 7.293 132.575, 13.175 138.319 C 29.053 153.823, 37 172.229, 37 193.500 C 37 214.725, 29.049 233.180, 13.265 248.594 C 5.867 255.818, 4.856 257.806, 7.472 259.977 C 9.490 261.651, 14.021 258.765, 21.121 251.280 C 31.297 240.555, 38.230 228.061, 42.087 213.500 C 45.043 202.342, 45.043 184.658, 42.087 173.500 C 37.901 157.695, 29.319 143.140, 18.021 132.680 C 11.418 126.567, 7.647 125.387, 6.478 129.069 " stroke="none" fill="black" fill-rule="evenodd"/>
</svg>