<svg xmlns="http://www.w3.org/2000/svg" width="244" height="324" viewBox="0 0 244 324" version="1.1">
	<path d="M 167.750 127.073 C 165.423 128.438, 165.524 131.675, 167.934 132.965 C 169.005 133.538, 176.151 134, 183.934 134 L 198 134 198 196.965 L 198 259.930 200.183 261.098 C 202.042 262.093, 202.636 261.933, 204.183 260.022 C 205.895 257.908, 206 254.212, 206 195.916 L 206 134.053 220.643 133.777 C 233.314 133.537, 235.433 133.264, 236.387 131.750 C 237.191 130.475, 237.190 129.525, 236.386 128.250 C 235.377 126.649, 232.483 126.481, 202.391 126.273 C 181.280 126.127, 168.873 126.414, 167.750 127.073 M 7.200 159.200 C 5.481 160.919, 5.481 227.081, 7.200 228.800 C 8.109 229.709, 24.229 230, 73.629 230 C 131.594 230, 139.032 229.825, 140.429 228.429 C 141.793 227.064, 142 222.537, 142 194 C 142 165.463, 141.793 160.936, 140.429 159.571 C 139.032 158.175, 131.594 158, 73.629 158 C 24.229 158, 8.109 158.291, 7.200 159.200 M 14 194 L 14 222 42 222 L 70 222 70 194 L 70 166 42 166 L 14 166 14 194 M 78 194 L 78 222 106 222 L 134 222 134 194 L 134 166 106 166 L 78 166 78 194 " stroke="none" fill="black" fill-rule="evenodd"/>
</svg>