<svg xmlns="http://www.w3.org/2000/svg" width="148" height="324" viewBox="0 0 148 324" version="1.1">
	<path d="M 55.571 63.571 C 54.707 64.436, 54 65.317, 54 65.531 C 54 66.316, 71.159 100.529, 71.965 101.349 C 74.275 103.702, 76.913 100.229, 84.760 84.501 C 89.292 75.417, 93 67.143, 93 66.115 C 93 63.770, 90.710 61.790, 88.832 62.511 C 88.050 62.811, 84.520 68.894, 80.986 76.028 C 77.453 83.163, 74.306 89, 73.994 89 C 73.683 89, 70.969 83.984, 67.964 77.854 C 62.437 66.580, 59.559 62, 57.999 62 C 57.528 62, 56.436 62.707, 55.571 63.571 M 64.500 126.944 C 56.325 128.268, 50.930 129.991, 43 133.814 C 32.444 138.903, 18.927 152.404, 13.778 163 C 7.648 175.615, 4.334 193.191, 7.491 196.348 C 10.992 199.850, 14 196.834, 14 189.823 C 14 171.461, 27.851 149.945, 45.603 140.732 C 79.754 123.007, 121.534 141.490, 131.003 178.511 C 132.101 182.806, 133 188.482, 133 191.125 C 133 194.956, 133.418 196.154, 135.064 197.034 C 142.863 201.208, 141.093 178.561, 132.303 161.700 C 129.753 156.809, 125.954 151.890, 120.457 146.361 C 113.703 139.568, 110.806 137.478, 102.933 133.719 C 97.745 131.242, 91.475 128.743, 89 128.165 C 82.400 126.623, 70.232 126.016, 64.500 126.944 M 39.585 191.558 C 37.598 193.545, 37.595 194.452, 39.571 196.429 C 40.844 197.701, 43.699 198, 54.589 198 L 68.036 198 53.018 227.931 C 44.758 244.393, 38 258.327, 38 258.896 C 38 261.580, 42.920 262, 74.363 262 C 102.570 262, 107.064 261.793, 108.429 260.429 C 109.293 259.564, 110 258.661, 110 258.422 C 110 258.183, 103.255 244.503, 95.011 228.022 L 80.022 198.056 93.654 197.778 C 105.361 197.539, 107.441 197.253, 108.388 195.750 C 109.191 194.475, 109.190 193.525, 108.386 192.250 C 107.377 190.650, 104.452 190.477, 74.226 190.237 C 45.159 190.005, 40.978 190.165, 39.585 191.558 M 60.743 228.500 L 48.005 254 73.503 254 C 89.744 254, 99 253.639, 99 253.005 C 99 251.678, 74.664 203, 74 203 C 73.715 203, 67.750 214.475, 60.743 228.500 " stroke="none" fill="black" fill-rule="evenodd"/>
</svg>