<svg xmlns="http://www.w3.org/2000/svg" width="436" height="324" viewBox="0 0 436 324" version="1.1">
	<path d="M 135.571 127.571 C 134.176 128.966, 134 136.152, 134 191.571 L 134 254 119.571 254 C 107.788 254, 104.855 254.288, 103.571 255.571 C 101.598 257.545, 101.598 258.455, 103.571 260.429 C 104.936 261.793, 109.463 262, 138 262 C 166.537 262, 171.064 261.793, 172.429 260.429 C 173.293 259.564, 174 258.471, 174 258 C 174 257.529, 173.293 256.436, 172.429 255.571 C 171.145 254.288, 168.212 254, 156.429 254 L 142 254 142 191.571 C 142 136.152, 141.824 128.966, 140.429 127.571 C 139.564 126.707, 138.471 126, 138 126 C 137.529 126, 136.436 126.707, 135.571 127.571 M 349.500 127.418 C 327.118 131.772, 309.781 145.242, 300.485 165.500 C 296.701 173.746, 295.276 179.182, 294.386 188.759 C 293.768 195.407, 293.858 195.854, 296.049 197.026 C 298.073 198.110, 298.596 197.983, 300.183 196.022 C 301.360 194.568, 302 192.131, 302 189.099 C 302 176.635, 308.384 162.650, 318.993 151.875 C 330.948 139.732, 344.493 134.046, 361.540 134.015 C 371.382 133.997, 379.282 135.908, 388.568 140.554 C 406.614 149.581, 418.923 167.960, 420.656 188.463 C 421.170 194.542, 421.690 196.299, 423.214 197.115 C 430.989 201.276, 429.055 178.466, 420.196 161.516 C 414.915 151.410, 402.917 139.609, 392.500 134.271 C 378.732 127.217, 363.233 124.747, 349.500 127.418 M 199.585 159.558 C 198.713 160.430, 198 161.529, 198 162 C 198 162.471, 198.713 163.570, 199.585 164.442 C 200.978 165.835, 205.159 165.995, 234.226 165.763 C 264.452 165.523, 267.377 165.350, 268.386 163.750 C 269.191 162.474, 269.191 161.526, 268.386 160.250 C 267.377 158.650, 264.452 158.477, 234.226 158.237 C 205.159 158.005, 200.978 158.165, 199.585 159.558 M 7.571 191.571 C 6.707 192.436, 6 193.640, 6 194.249 C 6 194.857, 12.844 202.250, 21.208 210.677 L 36.416 226 21.208 241.323 C 12.844 249.750, 6 257.143, 6 257.751 C 6 259.181, 8.819 262, 10.249 262 C 10.857 262, 18.250 255.156, 26.677 246.792 L 42 231.584 57.323 246.792 C 65.750 255.156, 73.143 262, 73.751 262 C 75.181 262, 78 259.181, 78 257.751 C 78 257.143, 71.156 249.750, 62.792 241.323 L 47.584 226 62.792 210.677 C 71.156 202.250, 78 194.857, 78 194.249 C 78 192.819, 75.181 190, 73.751 190 C 73.143 190, 65.750 196.844, 57.323 205.208 L 42 220.416 26.677 205.208 C 18.250 196.844, 10.857 190, 10.249 190 C 9.640 190, 8.436 190.707, 7.571 191.571 M 327.750 191.073 C 325.423 192.438, 325.524 195.675, 327.934 196.965 C 328.998 197.534, 335.523 198, 342.434 198 C 349.345 198, 355 198.223, 355 198.496 C 355 198.768, 348.365 212.269, 340.257 228.498 C 328.171 252.687, 325.712 258.320, 326.615 259.752 C 327.621 261.347, 330.545 261.524, 360.109 261.779 C 377.924 261.933, 393.463 261.825, 394.640 261.538 C 395.817 261.252, 397.047 260.321, 397.373 259.469 C 397.722 258.561, 391.780 245.553, 382.994 227.989 L 368.022 198.056 381.654 197.778 C 393.361 197.539, 395.441 197.253, 396.388 195.750 C 397.191 194.475, 397.190 193.525, 396.386 192.250 C 395.377 190.649, 392.483 190.481, 362.391 190.273 C 341.280 190.127, 328.873 190.414, 327.750 191.073 M 348.743 228.500 L 336.005 254 361.503 254 C 375.526 254, 387 253.772, 387 253.492 C 387 252.827, 362.070 203, 361.737 203 C 361.597 203, 355.750 214.475, 348.743 228.500 M 199.585 223.558 C 198.713 224.430, 198 225.529, 198 226 C 198 226.471, 198.713 227.570, 199.585 228.442 C 200.978 229.835, 205.159 229.995, 234.226 229.763 C 264.452 229.523, 267.377 229.350, 268.386 227.750 C 269.191 226.474, 269.191 225.526, 268.386 224.250 C 267.377 222.650, 264.452 222.477, 234.226 222.237 C 205.159 222.005, 200.978 222.165, 199.585 223.558 " stroke="none" fill="black" fill-rule="evenodd"/>
</svg>