<svg xmlns="http://www.w3.org/2000/svg" width="308" height="324" viewBox="0 0 308 324" version="1.1">
	<path d="M 55.571 63.571 C 54.707 64.436, 54 65.317, 54 65.531 C 54 66.316, 71.159 100.529, 71.965 101.349 C 74.275 103.702, 76.913 100.229, 84.760 84.501 C 89.292 75.417, 93 67.143, 93 66.115 C 93 63.770, 90.710 61.790, 88.832 62.511 C 88.050 62.811, 84.520 68.894, 80.986 76.028 C 77.453 83.163, 74.306 89, 73.994 89 C 73.683 89, 70.969 83.984, 67.964 77.854 C 62.437 66.580, 59.559 62, 57.999 62 C 57.528 62, 56.436 62.707, 55.571 63.571 M 64.500 126.944 C 56.325 128.268, 50.930 129.991, 43 133.814 C 32.444 138.903, 18.927 152.404, 13.778 163 C 7.648 175.615, 4.334 193.191, 7.491 196.348 C 10.992 199.850, 14 196.834, 14 189.823 C 14 176.987, 20.739 162.179, 31.459 151.459 C 43.129 139.789, 56.871 134.046, 73.201 134.015 C 83.649 133.995, 89.980 135.455, 99.820 140.153 C 109.977 145.002, 119.912 154.325, 125.340 164.101 C 129.485 171.566, 133 183.966, 133 191.125 C 133 194.956, 133.418 196.154, 135.064 197.034 C 142.869 201.211, 141.090 178.529, 132.293 161.700 C 124.457 146.708, 106.926 132.840, 90.500 128.638 C 82.849 126.680, 70.928 125.904, 64.500 126.944 M 199.750 159.080 C 198.207 159.979, 198 161.866, 198 175.050 L 198 190 183.934 190 C 169.308 190, 166 190.738, 166 194 C 166 197.262, 169.308 198, 183.934 198 L 198 198 198 212.965 C 198 227.061, 198.120 227.994, 200.064 229.034 C 204.315 231.309, 205 229.069, 205 212.904 L 205 198.052 220.142 197.776 C 233.291 197.536, 235.430 197.270, 236.387 195.750 C 237.191 194.475, 237.191 193.525, 236.387 192.250 C 235.430 190.730, 233.291 190.464, 220.142 190.224 L 205 189.948 205 175.174 C 205 158.586, 204.297 156.432, 199.750 159.080 M 263.750 159.080 C 262.155 160.009, 262 162.388, 262 186.015 C 262 211.174, 262.060 211.962, 264.064 213.034 C 265.596 213.854, 266.498 213.832, 267.564 212.947 C 268.744 211.968, 269 207.174, 269 186.078 C 269 157.906, 268.671 156.214, 263.750 159.080 M 39.585 191.558 C 37.598 193.545, 37.595 194.452, 39.571 196.429 C 40.844 197.701, 43.699 198, 54.589 198 L 68.036 198 53.018 227.931 C 44.758 244.393, 38 258.327, 38 258.896 C 38 261.580, 42.920 262, 74.363 262 C 102.570 262, 107.064 261.793, 108.429 260.429 C 109.293 259.564, 110 258.661, 110 258.422 C 110 258.183, 103.255 244.503, 95.011 228.022 L 80.022 198.056 93.654 197.778 C 105.361 197.539, 107.441 197.253, 108.388 195.750 C 109.191 194.475, 109.190 193.525, 108.386 192.250 C 107.377 190.650, 104.452 190.477, 74.226 190.237 C 45.159 190.005, 40.978 190.165, 39.585 191.558 M 60.743 228.500 L 48.005 254 74 254 L 99.995 254 87.257 228.500 C 80.250 214.475, 74.285 203, 74 203 C 73.715 203, 67.750 214.475, 60.743 228.500 M 263.750 222.080 C 261.372 223.465, 261.542 226.685, 264.064 228.034 C 267.753 230.008, 270.819 225.219, 267.800 222.200 C 266.367 220.767, 266.022 220.757, 263.750 222.080 " stroke="none" fill="black" fill-rule="evenodd"/>
</svg>