<svg xmlns="http://www.w3.org/2000/svg" width="308" height="324" viewBox="0 0 308 324" version="1.1">
	<path d="M 63.870 127.014 C 48.636 129.407, 37.616 135.194, 25.974 146.916 C 13.989 158.983, 8.432 170.878, 6.503 188.598 C 5.964 193.549, 6.150 195.007, 7.491 196.348 C 9.547 198.404, 10.439 198.418, 12.429 196.429 C 13.404 195.453, 14.006 193.082, 14.015 190.179 C 14.091 166.127, 34.559 141.323, 59.103 135.537 C 90.978 128.024, 122.983 147.153, 131.003 178.511 C 132.101 182.806, 133 188.482, 133 191.125 C 133 194.956, 133.418 196.154, 135.064 197.034 C 142.869 201.211, 141.090 178.529, 132.293 161.700 C 124.457 146.708, 106.926 132.840, 90.500 128.638 C 82.632 126.625, 70.901 125.909, 63.870 127.014 M 167.200 127.200 C 165.465 128.935, 165.465 259.065, 167.200 260.800 C 168.935 262.535, 298.065 262.535, 299.800 260.800 C 301.535 259.065, 301.535 128.935, 299.800 127.200 C 298.065 125.465, 168.935 125.465, 167.200 127.200 M 173 194 L 173 254 201.500 254 L 230 254 230 194 L 230 134 201.500 134 L 173 134 173 194 M 237 194 L 237 254 265.500 254 L 294 254 294 194 L 294 134 265.500 134 L 237 134 237 194 M 39.585 191.558 C 37.598 193.545, 37.595 194.452, 39.571 196.429 C 40.844 197.701, 43.699 198, 54.589 198 L 68.036 198 53.018 227.931 C 44.758 244.393, 38 258.327, 38 258.896 C 38 261.580, 42.920 262, 74.363 262 C 102.570 262, 107.064 261.793, 108.429 260.429 C 109.293 259.564, 110 258.661, 110 258.422 C 110 258.183, 103.255 244.503, 95.011 228.022 L 80.022 198.056 93.654 197.778 C 105.361 197.539, 107.441 197.253, 108.388 195.750 C 109.191 194.475, 109.190 193.525, 108.386 192.250 C 107.377 190.650, 104.452 190.477, 74.226 190.237 C 45.159 190.005, 40.978 190.165, 39.585 191.558 M 60.743 228.500 L 48.005 254 74 254 L 99.995 254 87.257 228.500 C 80.250 214.475, 74.285 203, 74 203 C 73.715 203, 67.750 214.475, 60.743 228.500 " stroke="none" fill="black" fill-rule="evenodd"/>
</svg>