<svg xmlns="http://www.w3.org/2000/svg" width="244" height="324" viewBox="0 0 244 324" version="1.1">
	<path d="M 63.057 127.110 C 55.086 128.320, 43.567 132.853, 36.433 137.588 C 28.286 142.996, 17.869 154.723, 13.687 163.194 C 7.634 175.456, 4.322 193.179, 7.491 196.348 C 9.547 198.404, 10.439 198.418, 12.429 196.429 C 13.404 195.453, 14.006 193.082, 14.015 190.179 C 14.091 166.127, 34.559 141.323, 59.103 135.537 C 79.531 130.722, 100.875 136.732, 115.459 151.405 C 119.429 155.400, 123.939 161.203, 125.780 164.686 C 129.503 171.731, 133 184.277, 133 190.589 C 133 194.612, 134.851 198, 137.048 198 C 137.546 198, 138.587 196.988, 139.360 195.750 C 140.454 194, 140.582 191.869, 139.935 186.164 C 136.832 158.798, 116.692 135.370, 90.483 128.639 C 82.408 126.565, 70.881 125.923, 63.057 127.110 M 167.200 127.200 C 165.465 128.935, 165.465 259.065, 167.200 260.800 C 168.595 262.195, 233.604 262.538, 235.772 261.162 C 236.780 260.522, 237.044 246.603, 237.044 194 C 237.044 141.397, 236.780 127.478, 235.772 126.838 C 233.604 125.462, 168.595 125.805, 167.200 127.200 M 174 194 L 174 254 202 254 L 230 254 230 194 L 230 134 202 134 L 174 134 174 194 M 39.571 191.571 C 38.707 192.436, 38 193.529, 38 194 C 38 194.471, 38.707 195.564, 39.571 196.429 C 40.844 197.701, 43.699 198, 54.589 198 L 68.036 198 53.018 227.931 C 44.758 244.393, 38 258.327, 38 258.896 C 38 261.580, 42.920 262, 74.363 262 C 102.570 262, 107.064 261.793, 108.429 260.429 C 109.293 259.564, 110 258.661, 110 258.422 C 110 258.183, 103.249 244.490, 94.997 227.994 L 79.994 198 93.425 198 C 104.303 198, 107.156 197.701, 108.429 196.429 C 109.293 195.564, 110 194.471, 110 194 C 110 193.529, 109.293 192.436, 108.429 191.571 C 107.064 190.207, 102.537 190, 74 190 C 45.463 190, 40.936 190.207, 39.571 191.571 M 60.743 228.500 L 48.005 254 74 254 L 99.995 254 87.257 228.500 C 80.250 214.475, 74.285 203, 74 203 C 73.715 203, 67.750 214.475, 60.743 228.500 " stroke="none" fill="black" fill-rule="evenodd"/>
</svg>