<svg xmlns="http://www.w3.org/2000/svg" width="276" height="324" viewBox="0 0 276 324" version="1.1">
	<path d="M 64.500 126.944 C 56.325 128.268, 50.930 129.991, 43 133.814 C 32.442 138.905, 18.925 152.405, 13.780 163 C 6.893 177.182, 6.744 178.323, 6.267 220.597 C 5.879 255.050, 5.996 258.853, 7.490 260.347 C 8.993 261.850, 15.020 262, 74 262 C 131.628 262, 139.032 261.825, 140.429 260.429 C 141.791 259.066, 142 254.649, 142 227.239 C 142 208.625, 141.548 193.128, 140.902 189.560 C 136.767 166.735, 133.124 159.032, 120.539 146.498 C 110.713 136.712, 102.022 131.540, 90.500 128.622 C 82.819 126.677, 70.903 125.908, 64.500 126.944 M 227.270 127.054 C 213.477 129.776, 202.472 140.191, 199.515 153.322 C 198.385 158.341, 198.341 158.385, 193.322 159.515 C 186.827 160.978, 180.285 164.835, 175.710 169.900 C 157.027 190.579, 168.001 222.635, 195.604 228.013 C 218.779 232.529, 240.707 210.481, 236 187.396 C 233.161 173.471, 222.183 161.813, 209.703 159.472 C 205.492 158.682, 205.371 158.203, 207.667 151.463 C 209.875 144.983, 216.983 137.875, 223.463 135.667 C 238.524 130.536, 254.818 137.904, 259.486 151.957 C 262.850 162.085, 259.149 179.829, 249.569 199.500 C 239.085 221.027, 224.154 237.825, 204.613 250.077 C 198.812 253.714, 197.936 254.645, 198.198 256.895 C 198.713 261.332, 201.937 260.622, 212.108 253.832 C 235.282 238.363, 254.983 212.059, 263.286 185.500 C 267.700 171.384, 269.171 162.179, 268.004 155.983 C 265.123 140.678, 254.451 129.849, 239.535 127.091 C 232.994 125.882, 233.205 125.883, 227.270 127.054 M 58.645 135.584 C 38.562 140.445, 20.305 158.877, 15.537 179.103 C 14.349 184.144, 14.026 192.762, 14.015 219.750 L 14 254 74.114 254 L 134.228 254 133.702 219.750 C 133.382 198.896, 132.716 183.544, 131.999 180.500 C 129.613 170.363, 123.215 159.005, 115.605 151.395 C 107.796 143.586, 96.175 137.142, 86.201 135.090 C 79.038 133.617, 65.791 133.854, 58.645 135.584 M 191.054 167.728 C 185.018 169.859, 177.781 177.260, 175.667 183.463 C 171.995 194.241, 174.382 205.477, 181.952 213.048 C 192.673 223.769, 210.327 223.769, 221.048 213.048 C 231.769 202.327, 231.769 184.673, 221.048 173.952 C 213.519 166.424, 201.696 163.970, 191.054 167.728 " stroke="none" fill="black" fill-rule="evenodd"/>
</svg>