<svg xmlns="http://www.w3.org/2000/svg" width="403" height="324" viewBox="0 0 403 324" version="1.1">
	<path d="M 39.571 127.571 C 38.176 128.966, 38 136.152, 38 191.571 L 38 254 23.571 254 C 11.788 254, 8.855 254.288, 7.571 255.571 C 5.598 257.545, 5.598 258.455, 7.571 260.429 C 8.936 261.793, 13.463 262, 42 262 C 70.537 262, 75.064 261.793, 76.429 260.429 C 77.293 259.564, 78 258.471, 78 258 C 78 257.529, 77.293 256.436, 76.429 255.571 C 75.145 254.288, 72.212 254, 60.429 254 L 46 254 46 191.571 C 46 136.152, 45.824 128.966, 44.429 127.571 C 43.564 126.707, 42.471 126, 42 126 C 41.529 126, 40.436 126.707, 39.571 127.571 M 159.235 127.088 C 145.148 129.237, 132.763 135.598, 122.168 146.125 C 110.894 157.327, 104.029 171.786, 102.469 187.614 C 101.891 193.479, 102.055 194.912, 103.460 196.317 C 104.386 197.243, 105.535 198, 106.015 198 C 107.925 198, 110 193.308, 110 188.988 C 110 171.063, 124.209 149.413, 141.746 140.614 C 180.107 121.369, 225.078 146.128, 228.656 188.463 C 229.170 194.542, 229.690 196.299, 231.214 197.115 C 238.880 201.217, 236.961 178.149, 228.264 161.652 C 225.771 156.922, 221.777 151.762, 216.433 146.367 C 209.680 139.549, 206.828 137.488, 198.933 133.719 C 193.745 131.242, 187.475 128.743, 185 128.165 C 178.011 126.532, 166.134 126.035, 159.235 127.088 M 263.200 127.200 C 261.465 128.935, 261.465 259.065, 263.200 260.800 C 264.935 262.535, 394.065 262.535, 395.800 260.800 C 397.535 259.065, 397.535 128.935, 395.800 127.200 C 394.065 125.465, 264.935 125.465, 263.200 127.200 M 269 194 L 269 254 297.500 254 L 326 254 326 194 L 326 134 297.500 134 L 269 134 269 194 M 333 194 L 333 254 361.500 254 L 390 254 390 194 L 390 134 361.500 134 L 333 134 333 194 M 135.585 191.558 C 133.598 193.545, 133.595 194.452, 135.571 196.429 C 136.838 197.695, 139.652 198, 150.071 198 C 157.182 198, 163 198.223, 163 198.496 C 163 198.768, 156.365 212.269, 148.257 228.498 C 136.171 252.687, 133.712 258.320, 134.615 259.752 C 135.621 261.347, 138.545 261.524, 168.109 261.779 C 185.924 261.933, 201.463 261.825, 202.640 261.538 C 203.817 261.252, 205.047 260.321, 205.373 259.469 C 205.722 258.561, 199.780 245.553, 190.994 227.989 L 176.022 198.056 189.654 197.778 C 201.361 197.539, 203.441 197.253, 204.388 195.750 C 205.191 194.475, 205.190 193.525, 204.386 192.250 C 203.377 190.650, 200.452 190.477, 170.226 190.237 C 141.159 190.005, 136.978 190.165, 135.585 191.558 M 156.743 228.500 L 144.005 254 169.503 254 C 183.526 254, 195 253.772, 195 253.492 C 195 252.827, 170.070 203, 169.737 203 C 169.597 203, 163.750 214.475, 156.743 228.500 " stroke="none" fill="black" fill-rule="evenodd"/>
</svg>