<svg xmlns="http://www.w3.org/2000/svg" width="244" height="324" viewBox="0 0 244 324" version="1.1">
	<path d="M 23.571 63.571 C 21.243 65.900, 21.243 98.100, 23.571 100.429 C 25.900 102.757, 58.100 102.757, 60.429 100.429 C 62.757 98.100, 62.757 65.900, 60.429 63.571 C 58.100 61.243, 25.900 61.243, 23.571 63.571 M 30 82 L 30 94 42 94 L 54 94 54 82 L 54 70 42 70 L 30 70 30 82 M 7.571 127.571 C 6.707 128.436, 6 129.529, 6 130 C 6 130.471, 6.707 131.564, 7.571 132.429 C 8.855 133.712, 11.788 134, 23.571 134 L 38 134 38 162 L 38 190 23.571 190 C 11.788 190, 8.855 190.288, 7.571 191.571 C 5.598 193.545, 5.598 194.455, 7.571 196.429 C 8.855 197.712, 11.788 198, 23.571 198 L 38 198 38 226 L 38 254 23.571 254 C 11.788 254, 8.855 254.288, 7.571 255.571 C 5.598 257.545, 5.598 258.455, 7.571 260.429 C 8.936 261.793, 13.463 262, 42 262 C 70.537 262, 75.064 261.793, 76.429 260.429 C 78.402 258.455, 78.402 257.545, 76.429 255.571 C 75.145 254.288, 72.212 254, 60.429 254 L 46 254 46 226 L 46 198 60.429 198 C 72.212 198, 75.145 197.712, 76.429 196.429 C 78.402 194.455, 78.402 193.545, 76.429 191.571 C 75.145 190.288, 72.212 190, 60.429 190 L 46 190 46 162 L 46 134 60.429 134 C 72.212 134, 75.145 133.712, 76.429 132.429 C 77.293 131.564, 78 130.471, 78 130 C 78 129.529, 77.293 128.436, 76.429 127.571 C 75.064 126.207, 70.537 126, 42 126 C 13.463 126, 8.936 126.207, 7.571 127.571 M 157.500 127.436 C 140.554 130.774, 127.678 138.597, 116.779 152.178 C 106.828 164.577, 102.553 176.995, 102.553 193.500 C 102.553 210.065, 106.823 222.417, 116.882 234.950 C 130.325 251.701, 148.262 260.349, 169.500 260.319 C 188.219 260.292, 202.997 254.074, 216.526 240.533 C 229.880 227.167, 236 212.387, 236 193.500 C 236 181.317, 234.346 174.289, 228.824 163.012 C 221.049 147.134, 203.732 133.066, 186.500 128.627 C 177.577 126.329, 165.614 125.837, 157.500 127.436 M 154.645 135.584 C 144.793 137.969, 135.304 143.584, 126.993 151.946 C 115.144 163.868, 110 176.447, 110 193.500 C 110 210.553, 115.144 223.132, 126.993 235.054 C 139.186 247.322, 152.549 252.954, 169.540 252.985 C 189.620 253.022, 207.542 243.439, 218.761 226.665 C 225.900 215.991, 228.500 207.138, 228.500 193.500 C 228.500 184.871, 228.014 180.954, 226.244 175.325 C 223.479 166.533, 215.733 154.682, 208.701 148.488 C 202.639 143.148, 192.011 137.668, 183.540 135.515 C 176.213 133.653, 162.488 133.685, 154.645 135.584 M 162.355 158.986 C 151.790 161.214, 142.114 169.146, 137.329 179.500 C 133.374 188.059, 133.386 198.895, 137.361 207.610 C 140.861 215.285, 147.689 222.075, 155.480 225.629 C 163.387 229.236, 173.732 229.409, 182.297 226.077 C 189.354 223.331, 197.569 215.634, 201.056 208.500 C 203.152 204.212, 203.500 202.075, 203.500 193.500 C 203.500 181.464, 201.483 176.393, 193.518 168.404 C 185.739 160.600, 172.981 156.745, 162.355 158.986 M 159.627 167.468 C 154.247 169.386, 149.039 173.829, 145.500 179.519 C 142.969 183.589, 142.444 185.570, 142.143 192.193 C 141.830 199.089, 142.110 200.705, 144.454 205.496 C 155.603 228.284, 189.482 225.110, 196.098 200.657 C 199.476 188.171, 193.488 174.899, 181.854 169.085 C 174.871 165.595, 166.574 164.992, 159.627 167.468 M 167.616 191.527 C 166.727 192.416, 166 193.529, 166 194 C 166 195.389, 169.140 198.120, 170.295 197.735 C 172.395 197.035, 173.549 194.094, 172.423 192.310 C 170.905 189.902, 169.474 189.669, 167.616 191.527 " stroke="none" fill="black" fill-rule="evenodd"/>
</svg>