<svg xmlns="http://www.w3.org/2000/svg" width="308" height="324" viewBox="0 0 308 324" version="1.1">
	<path d="M 63.102 127.104 C 37.582 130.982, 15.178 151.424, 8.414 177 C 6.134 185.626, 6.134 201.374, 8.414 210 C 11.688 222.378, 16.581 230.659, 26.461 240.539 C 40.473 254.551, 54.166 260.304, 73.500 260.304 C 85.636 260.304, 93.507 258.373, 104.500 252.697 C 114.958 247.297, 126.889 235.544, 132.264 225.348 C 146.412 198.512, 141.626 167.296, 120.095 145.981 C 104.892 130.930, 83.831 123.955, 63.102 127.104 M 167.750 127.080 C 166.111 128.034, 166 132.285, 166 193.850 C 166 243.655, 166.291 259.891, 167.200 260.800 C 168.935 262.535, 298.065 262.535, 299.800 260.800 C 300.709 259.891, 301 243.655, 301 193.850 C 301 132.645, 300.881 128.033, 299.276 127.134 C 298.182 126.522, 296.902 126.517, 295.776 127.120 C 294.352 127.882, 294 129.369, 294 134.614 L 294 141.158 289.559 136.717 C 278.922 126.080, 262.758 123.510, 249.362 130.327 C 244.191 132.958, 237.880 138.716, 235.196 143.250 C 234.301 144.762, 233.328 145.984, 233.034 145.963 C 232.740 145.943, 231.201 143.878, 229.613 141.374 C 223.716 132.072, 212.706 126.555, 200.330 126.697 C 191.615 126.798, 184.375 129.770, 177.575 136.038 L 173 140.255 173 134.327 C 173 131.051, 172.463 127.863, 171.800 127.200 C 170.367 125.767, 170.022 125.757, 167.750 127.080 M 57.500 135.870 C 37.436 141.645, 20.733 158.691, 15.585 178.644 C 13.554 186.517, 13.554 200.483, 15.585 208.356 C 20.838 228.716, 38.284 246.162, 58.644 251.415 C 65.760 253.251, 78.565 253.481, 86.201 251.910 C 89.115 251.310, 95.244 249.032, 99.820 246.847 C 115.079 239.562, 126.717 225.246, 131.003 208.489 C 132.101 204.194, 133 200.077, 133 199.340 C 133 198.250, 127.480 198, 103.434 198 C 84.966 198, 73.142 197.611, 71.934 196.965 C 70.086 195.976, 70 194.555, 70 164.965 L 70 134 66.750 134.071 C 64.963 134.110, 60.800 134.920, 57.500 135.870 M 78 162 L 78 190 105.500 190 C 137.156 190, 134.273 191.299, 131.003 178.511 C 125.680 157.698, 108.268 140.339, 87.897 135.537 C 76.926 132.951, 78 130.080, 78 162 M 190.363 135.922 C 184.182 138.729, 178.516 144.374, 175.993 150.238 C 168.028 168.752, 185.917 211.915, 211.428 235.740 C 215.541 239.581, 222.077 244.890, 225.953 247.538 L 233 252.353 240.248 247.427 C 266.408 229.644, 285.489 200.220, 291.623 168.203 C 293.166 160.143, 293.169 159.087, 291.664 153.913 C 285.961 134.307, 260.776 127.330, 246.161 141.307 C 241.750 145.524, 238.265 152.523, 237.426 158.845 C 236.617 164.944, 234.966 166.761, 231.620 165.237 C 229.782 164.399, 229.175 163.122, 228.697 159.091 C 227.449 148.550, 221.871 140.712, 212.521 136.358 C 206.112 133.373, 196.398 133.182, 190.363 135.922 M 290.992 196.021 C 288.111 203.726, 279.407 218.462, 273.075 226.356 C 267.119 233.781, 255.276 245.445, 248.673 250.387 L 243.847 254 268.923 254 L 294 254 294 222 C 294 204.400, 293.830 190, 293.622 190 C 293.414 190, 292.231 192.709, 290.992 196.021 M 173.014 222.750 L 173 254 197.599 254 L 222.198 254 216.320 249.581 C 207.918 243.265, 194.244 228.753, 188.060 219.588 C 185.145 215.269, 180.571 207.182, 177.894 201.617 L 173.029 191.500 173.014 222.750 " stroke="none" fill="black" fill-rule="evenodd"/>
</svg>