<svg xmlns="http://www.w3.org/2000/svg" width="260" height="324" viewBox="0 0 260 324" version="1.1">
	<path d="M 39.571 127.571 C 38.288 128.855, 38 131.788, 38 143.571 L 38 158 23.571 158 C 11.788 158, 8.855 158.288, 7.571 159.571 C 5.598 161.545, 5.598 162.455, 7.571 164.429 C 8.855 165.712, 11.788 166, 23.571 166 L 38 166 38 194 L 38 222 23.571 222 C 11.788 222, 8.855 222.288, 7.571 223.571 C 6.707 224.436, 6 225.529, 6 226 C 6 226.471, 6.707 227.564, 7.571 228.429 C 8.855 229.712, 11.788 230, 23.571 230 L 38 230 38 244.429 C 38 256.212, 38.288 259.145, 39.571 260.429 C 40.436 261.293, 41.529 262, 42 262 C 42.471 262, 43.564 261.293, 44.429 260.429 C 45.712 259.145, 46 256.212, 46 244.429 L 46 230 74 230 L 102 230 102 244.429 C 102 256.212, 102.288 259.145, 103.571 260.429 C 105.545 262.402, 106.455 262.402, 108.429 260.429 C 109.712 259.145, 110 256.212, 110 244.429 L 110 230 124.429 230 C 136.212 230, 139.145 229.712, 140.429 228.429 C 142.402 226.455, 142.402 225.545, 140.429 223.571 C 139.145 222.288, 136.212 222, 124.429 222 L 110 222 110 194 L 110 166 124.429 166 C 136.212 166, 139.145 165.712, 140.429 164.429 C 142.402 162.455, 142.402 161.545, 140.429 159.571 C 139.145 158.288, 136.212 158, 124.429 158 L 110 158 110 143.571 C 110 131.788, 109.712 128.855, 108.429 127.571 C 106.455 125.598, 105.545 125.598, 103.571 127.571 C 102.288 128.855, 102 131.788, 102 143.571 L 102 158 74 158 L 46 158 46 143.571 C 46 131.788, 45.712 128.855, 44.429 127.571 C 43.564 126.707, 42.471 126, 42 126 C 41.529 126, 40.436 126.707, 39.571 127.571 M 193.024 127.552 C 176.883 132.040, 166.807 145.088, 166.807 161.500 C 166.807 171.539, 169.737 178.661, 176.851 185.918 C 182.378 191.557, 190.834 196, 196.038 196 C 197.945 196, 198 196.863, 198 226.889 C 198 255.251, 198.149 257.962, 199.817 260.022 C 201.364 261.933, 201.958 262.093, 203.817 261.098 C 205.991 259.934, 206 259.799, 206 227.965 L 206 196 208.250 195.999 C 212.877 195.998, 222.420 190.415, 227.732 184.603 C 240.045 171.131, 239.947 151.617, 227.498 138.171 C 218.315 128.252, 205.121 124.188, 193.024 127.552 M 188.837 137.271 C 168.919 147.553, 169.099 175.897, 189.146 185.915 C 203.200 192.938, 219.519 187.633, 226.412 173.801 C 228.466 169.679, 229 167.141, 229 161.500 C 229 145.382, 217.373 134, 200.909 134 C 196.390 134, 193.832 134.693, 188.837 137.271 M 46 194 L 46 222 74 222 L 102 222 102 194 L 102 166 74 166 L 46 166 46 194 M 232.245 207.263 C 222.755 216.743, 214.726 224.804, 214.404 225.175 C 213.438 226.285, 214.790 227.780, 232.646 245.347 C 248.225 260.675, 249.960 262.092, 251.885 261.062 C 253.048 260.439, 254 259.163, 254 258.227 C 254 257.290, 247.143 249.656, 238.762 241.262 L 223.524 226 238.762 210.738 C 247.143 202.344, 254 194.710, 254 193.773 C 254 192.408, 251.270 189.954, 249.816 190.013 C 249.642 190.020, 241.735 197.782, 232.245 207.263 " stroke="none" fill="black" fill-rule="evenodd"/>
</svg>