<svg xmlns="http://www.w3.org/2000/svg" width="340" height="324" viewBox="0 0 340 324" version="1.1">
	<path d="M 39.571 127.571 C 38.176 128.966, 38 136.152, 38 191.571 L 38 254 23.571 254 C 11.788 254, 8.855 254.288, 7.571 255.571 C 5.598 257.545, 5.598 258.455, 7.571 260.429 C 8.936 261.793, 13.463 262, 42 262 C 70.537 262, 75.064 261.793, 76.429 260.429 C 77.293 259.564, 78 258.471, 78 258 C 78 257.529, 77.293 256.436, 76.429 255.571 C 75.145 254.288, 72.212 254, 60.429 254 L 46 254 46 191.571 C 46 136.152, 45.824 128.966, 44.429 127.571 C 43.564 126.707, 42.471 126, 42 126 C 41.529 126, 40.436 126.707, 39.571 127.571 M 157.500 127.466 C 128.053 132.873, 105.468 157.574, 102.524 187.593 C 101.946 193.492, 102.107 194.965, 103.486 196.343 C 106.992 199.850, 110 196.839, 110 189.823 C 110 171.461, 123.851 149.945, 141.603 140.732 C 175.754 123.007, 217.534 141.490, 227.003 178.511 C 228.101 182.806, 229 188.482, 229 191.125 C 229 195.040, 229.404 196.146, 231.183 197.098 C 233.017 198.079, 233.626 197.945, 234.992 196.258 C 236.337 194.597, 236.492 192.930, 235.890 186.627 C 232.987 156.226, 209.062 131.471, 178.284 127.020 C 169.745 125.786, 166.241 125.861, 157.500 127.466 M 263.200 127.200 C 261.465 128.935, 261.465 259.065, 263.200 260.800 C 264.595 262.195, 329.604 262.538, 331.772 261.162 C 332.780 260.522, 333.044 246.603, 333.044 194 C 333.044 141.397, 332.780 127.478, 331.772 126.838 C 329.604 125.462, 264.595 125.805, 263.200 127.200 M 270 194 L 270 254 298 254 L 326 254 326 194 L 326 134 298 134 L 270 134 270 194 M 135.585 191.558 C 133.598 193.545, 133.595 194.452, 135.571 196.429 C 136.844 197.701, 139.699 198, 150.589 198 L 164.036 198 148.890 228.186 C 137.366 251.153, 133.980 258.746, 134.731 259.936 C 135.586 261.293, 140.013 261.537, 168.109 261.779 C 185.924 261.933, 201.463 261.825, 202.640 261.538 C 203.817 261.252, 205.047 260.321, 205.373 259.469 C 205.722 258.561, 199.780 245.553, 190.994 227.989 L 176.022 198.056 189.654 197.778 C 201.361 197.539, 203.441 197.253, 204.388 195.750 C 205.191 194.475, 205.190 193.525, 204.386 192.250 C 203.377 190.650, 200.452 190.477, 170.226 190.237 C 141.159 190.005, 136.978 190.165, 135.585 191.558 M 156.743 228.500 L 144.005 254 169.503 254 C 183.526 254, 195 253.772, 195 253.492 C 195 252.827, 170.070 203, 169.737 203 C 169.597 203, 163.750 214.475, 156.743 228.500 " stroke="none" fill="black" fill-rule="evenodd"/>
</svg>