<svg xmlns="http://www.w3.org/2000/svg" width="324" height="324" viewBox="0 0 324 324" version="1.1">
	<path d="M 63.102 127.104 C 37.616 130.977, 15.059 151.543, 8.374 177 C 6.114 185.608, 6.133 201.372, 8.414 210 C 11.688 222.381, 16.580 230.659, 26.461 240.535 C 33.488 247.559, 37.169 250.376, 43 253.193 C 53.909 258.463, 61.807 260.304, 73.500 260.304 C 92.834 260.304, 106.527 254.551, 120.539 240.539 C 130.907 230.171, 135.849 221.502, 138.516 209 C 139.396 204.875, 140.469 199.845, 140.900 197.823 C 142.282 191.337, 138.360 173.524, 133.232 163 C 128.081 152.428, 114.555 138.907, 104 133.778 C 91.072 127.496, 76.343 125.092, 63.102 127.104 M 179.637 127.420 C 166.585 132.225, 162.317 147.457, 171.191 157.564 C 178.670 166.083, 189.381 166.995, 197.564 159.809 C 206.083 152.330, 206.995 141.619, 199.809 133.436 C 194.252 127.106, 186.648 124.838, 179.637 127.420 M 58.645 135.584 C 38.562 140.445, 20.305 158.877, 15.537 179.103 C 10.672 199.742, 16.569 220.600, 31.484 235.516 C 46.400 250.431, 67.258 256.328, 87.897 251.463 C 108.261 246.662, 126.662 228.261, 131.463 207.897 C 134.053 196.908, 137.186 198, 103.071 198 C 77.197 198, 72.930 197.787, 71.571 196.429 C 70.212 195.069, 70 190.758, 70 164.429 L 70 134 67.250 134.083 C 65.737 134.129, 61.865 134.804, 58.645 135.584 M 78 162 L 78 190 105.500 190 L 133 190 132.985 187.750 C 132.977 186.512, 132.292 182.621, 131.463 179.103 C 126.662 158.739, 108.261 140.338, 87.897 135.537 C 76.926 132.951, 78 130.080, 78 162 M 177.400 137.400 C 174.498 140.302, 174 141.488, 174 145.500 C 174 149.512, 174.498 150.698, 177.400 153.600 C 180.302 156.502, 181.488 157, 185.500 157 C 189.512 157, 190.698 156.502, 193.600 153.600 C 196.502 150.698, 197 149.512, 197 145.500 C 197 141.488, 196.502 140.302, 193.600 137.400 C 190.698 134.498, 189.512 134, 185.500 134 C 181.488 134, 180.302 134.498, 177.400 137.400 M 244.648 190.983 C 237.384 193.272, 231.912 199.505, 230.503 207.096 C 229.855 210.586, 231.585 214, 234 214 C 235.861 214, 238 210.700, 238 207.829 C 238 205.718, 239.030 203.770, 241.400 201.400 C 244.302 198.498, 245.488 198, 249.500 198 C 253.512 198, 254.698 198.498, 257.600 201.400 C 263.296 207.096, 262.903 208.183, 245.941 233.589 C 237.658 245.994, 230.657 256.729, 230.383 257.443 C 230.109 258.158, 230.618 259.475, 231.514 260.371 C 233.895 262.753, 266.054 262.803, 268.429 260.429 C 270.402 258.455, 270.402 257.545, 268.429 255.571 C 267.162 254.305, 264.348 254, 253.926 254 L 240.995 254 255.477 232.250 L 269.960 210.500 268.402 206 C 267.546 203.525, 266.002 200.133, 264.972 198.462 C 261.421 192.702, 251.168 188.929, 244.648 190.983 M 279.571 191.571 C 278.267 192.876, 278 196.009, 278 210 C 278 223.991, 278.267 227.124, 279.571 228.429 C 280.855 229.712, 283.788 230, 295.571 230 L 310 230 310 244.429 C 310 256.212, 310.288 259.145, 311.571 260.429 C 313.545 262.402, 314.455 262.402, 316.429 260.429 C 317.793 259.064, 318 254.537, 318 226 C 318 197.463, 317.793 192.936, 316.429 191.571 C 314.455 189.598, 313.545 189.598, 311.571 191.571 C 310.288 192.855, 310 195.788, 310 207.571 L 310 222 298 222 L 286 222 286 207.571 C 286 195.788, 285.712 192.855, 284.429 191.571 C 283.564 190.707, 282.471 190, 282 190 C 281.529 190, 280.436 190.707, 279.571 191.571 " stroke="none" fill="black" fill-rule="evenodd"/>
</svg>