<svg xmlns="http://www.w3.org/2000/svg" width="292" height="324" viewBox="0 0 292 324" version="1.1">
	<path d="M 135.244 159.256 L 102 192.511 102 226.056 C 102 250.812, 102.314 259.914, 103.200 260.800 C 104.109 261.709, 120.229 262, 169.629 262 C 227.594 262, 235.032 261.825, 236.429 260.429 C 237.794 259.063, 238 254.509, 238 225.695 L 238 192.533 204.733 159.267 C 186.437 140.970, 170.797 126, 169.978 126 C 169.159 126, 153.529 140.965, 135.244 159.256 M 139.744 165.756 L 110 195.512 110 208.756 L 110 222 170 222 L 230 222 230 208.744 L 230 195.487 200.244 165.744 C 183.878 149.385, 170.263 136, 169.988 136 C 169.713 136, 156.103 149.390, 139.744 165.756 M 7.571 191.571 C 6.707 192.436, 6 193.640, 6 194.249 C 6 194.857, 12.844 202.250, 21.208 210.677 L 36.416 226 21.208 241.323 C 12.844 249.750, 6 257.143, 6 257.751 C 6 259.181, 8.819 262, 10.249 262 C 10.857 262, 18.250 255.156, 26.677 246.792 L 42 231.584 57.323 246.792 C 65.750 255.156, 73.143 262, 73.751 262 C 75.181 262, 78 259.181, 78 257.751 C 78 257.143, 71.156 249.750, 62.792 241.323 L 47.584 226 62.792 210.677 C 71.156 202.250, 78 194.857, 78 194.249 C 78 192.819, 75.181 190, 73.751 190 C 73.143 190, 65.750 196.844, 57.323 205.208 L 42 220.416 26.677 205.208 C 18.250 196.844, 10.857 190, 10.249 190 C 9.640 190, 8.436 190.707, 7.571 191.571 M 263.315 223.213 C 253.792 232.680, 246 241.134, 246 242 C 246 243.680, 279.953 278, 281.615 278 C 283.105 278, 285 275.795, 285 274.062 C 285 273.216, 278.143 265.656, 269.762 257.262 L 254.524 242 269.762 226.738 C 278.143 218.344, 285 210.784, 285 209.938 C 285 208.205, 283.105 206, 281.615 206 C 281.073 206, 272.838 213.746, 263.315 223.213 M 110 242 L 110 254 170 254 L 230 254 230 242 L 230 230 170 230 L 110 230 110 242 " stroke="none" fill="black" fill-rule="evenodd"/>
</svg>