<svg xmlns="http://www.w3.org/2000/svg" width="308" height="324" viewBox="0 0 308 324" version="1.1">
	<path d="M 167.750 127.080 C 166.787 127.641, 166 128.869, 166 129.810 C 166 130.751, 195.417 160.925, 231.372 196.864 C 291.653 257.119, 296.909 262.119, 298.872 261.069 C 300.042 260.442, 301 259.153, 301 258.204 C 301 256.737, 171.351 125.944, 169.982 126.030 C 169.717 126.047, 168.713 126.519, 167.750 127.080 M 7.571 191.572 C 4.363 194.780, 7.919 212.160, 14.295 224.436 C 22.958 241.116, 38.789 253.723, 57.163 258.573 C 65.512 260.777, 80.565 260.816, 89 258.655 C 112.934 252.524, 132.065 233.707, 138.014 210.444 C 141.368 197.330, 140.337 188.782, 135.618 190.593 C 133.821 191.283, 133.413 192.676, 132.470 201.333 C 129.963 224.368, 111.369 245.478, 88.356 251.415 C 80.623 253.410, 66.176 253.457, 58.711 251.513 C 38.123 246.150, 20.850 228.877, 15.487 208.289 C 14.669 205.149, 14 200.494, 14 197.945 C 14 194.725, 13.442 192.805, 12.171 191.655 C 9.915 189.613, 9.537 189.606, 7.571 191.572 " stroke="none" fill="black" fill-rule="evenodd"/>
</svg>