<svg xmlns="http://www.w3.org/2000/svg" width="180" height="324" viewBox="0 0 180 324" version="1.1">
	<path d="M 33.384 159.412 C 15.475 163.758, 3.559 181.807, 6.987 199.396 C 8.500 207.161, 12.212 214.019, 17.580 218.967 C 38.277 238.045, 70.591 227.221, 76.013 199.396 C 79.488 181.565, 67.484 163.676, 49.147 159.360 C 42.397 157.772, 40.111 157.779, 33.384 159.412 M 119.282 175.282 C 109.777 184.787, 102 193.210, 102 194 C 102 195.693, 136.031 230, 137.710 230 C 139.173 230, 142 227.200, 142 225.751 C 142 225.143, 135.156 217.750, 126.792 209.323 L 111.584 194 126.792 178.677 C 135.156 170.250, 142 162.857, 142 162.249 C 142 160.800, 139.173 158, 137.710 158 C 137.079 158, 128.787 165.777, 119.282 175.282 M 151.282 175.282 C 141.777 184.787, 134 193.210, 134 194 C 134 195.693, 168.031 230, 169.710 230 C 171.173 230, 174 227.200, 174 225.751 C 174 225.143, 167.156 217.750, 158.792 209.323 L 143.584 194 158.792 178.677 C 167.156 170.250, 174 162.857, 174 162.249 C 174 160.800, 171.173 158, 169.710 158 C 169.079 158, 160.787 165.777, 151.282 175.282 M 31.054 167.728 C 25.018 169.859, 17.781 177.260, 15.667 183.463 C 11.995 194.241, 14.382 205.477, 21.952 213.048 C 32.741 223.836, 50.111 223.794, 60.952 212.952 C 78.571 195.333, 66.014 165.726, 41.072 166.079 C 38.007 166.122, 33.499 166.864, 31.054 167.728 " stroke="none" fill="black" fill-rule="evenodd"/>
</svg>