<svg xmlns="http://www.w3.org/2000/svg" width="180" height="324" viewBox="0 0 180 324" version="1.1">
	<path d="M 40.372 62.765 C 38.418 64.037, 22.003 97.844, 22.593 99.381 C 23.268 101.141, 25.513 102.124, 27.295 101.440 C 28.007 101.167, 31.480 95.106, 35.014 87.972 C 38.547 80.837, 41.691 75, 42 75 C 42.309 75, 45.453 80.837, 48.986 87.972 C 52.520 95.106, 55.993 101.167, 56.705 101.440 C 58.487 102.124, 60.732 101.141, 61.407 99.381 C 61.716 98.575, 58.096 90.173, 53.363 80.708 C 45.638 65.261, 43.672 62.031, 42 62.031 C 41.725 62.031, 40.992 62.361, 40.372 62.765 M 103.571 159.571 C 102.707 160.436, 102 161.640, 102 162.249 C 102 162.857, 108.844 170.250, 117.208 178.677 L 132.416 194 117.208 209.323 C 108.844 217.750, 102 225.143, 102 225.751 C 102 227.200, 104.827 230, 106.290 230 C 107.969 230, 142 195.693, 142 194 C 142 192.307, 107.969 158, 106.290 158 C 105.659 158, 104.436 158.707, 103.571 159.571 M 135.571 159.571 C 134.707 160.436, 134 161.640, 134 162.249 C 134 162.857, 140.844 170.250, 149.208 178.677 L 164.416 194 149.208 209.323 C 140.844 217.750, 134 225.143, 134 225.751 C 134 227.200, 136.827 230, 138.290 230 C 139.969 230, 174 195.693, 174 194 C 174 192.307, 139.969 158, 138.290 158 C 137.659 158, 136.436 158.707, 135.571 159.571 M 40.370 190.765 C 38.401 192.045, 6.007 257.855, 6.594 259.384 C 7.265 261.133, 9.512 262.124, 11.274 261.448 C 11.975 261.180, 19.056 247.919, 27.010 231.980 C 34.964 216.041, 41.710 203, 42 203 C 42.290 203, 49.036 216.041, 56.990 231.980 C 64.944 247.919, 72.025 261.180, 72.726 261.448 C 74.488 262.124, 76.735 261.133, 77.406 259.384 C 77.993 257.855, 45.599 192.045, 43.630 190.765 C 43.009 190.361, 42.275 190.031, 42 190.031 C 41.725 190.031, 40.991 190.361, 40.370 190.765 " stroke="none" fill="black" fill-rule="evenodd"/>
</svg>