<svg xmlns="http://www.w3.org/2000/svg" width="148" height="324" viewBox="0 0 148 324" version="1.1">
	<path d="M 87.315 175.213 C 77.792 184.680, 70 193.134, 70 194 C 70 195.680, 103.953 230, 105.615 230 C 107.105 230, 109 227.795, 109 226.062 C 109 225.216, 102.143 217.656, 93.762 209.262 L 78.524 194 93.762 178.738 C 102.143 170.344, 109 162.784, 109 161.938 C 109 160.205, 107.105 158, 105.615 158 C 105.073 158, 96.838 165.746, 87.315 175.213 M 119.315 175.213 C 109.792 184.680, 102 193.134, 102 194 C 102 195.680, 135.953 230, 137.615 230 C 139.105 230, 141 227.795, 141 226.062 C 141 225.216, 134.143 217.656, 125.762 209.262 L 110.524 194 125.762 178.738 C 134.143 170.344, 141 162.784, 141 161.938 C 141 160.205, 139.105 158, 137.615 158 C 137.073 158, 128.838 165.746, 119.315 175.213 M 40.370 190.765 C 38.401 192.045, 6.007 257.855, 6.594 259.384 C 7.265 261.133, 9.512 262.124, 11.274 261.448 C 11.975 261.180, 19.056 247.919, 27.010 231.980 C 34.964 216.041, 41.710 203, 42 203 C 42.290 203, 49.036 216.041, 56.990 231.980 C 64.944 247.919, 72.083 261.201, 72.853 261.497 C 74.717 262.213, 77 260.217, 77 257.871 C 77 255.637, 45.272 191.833, 43.630 190.765 C 43.009 190.361, 42.275 190.031, 42 190.031 C 41.725 190.031, 40.991 190.361, 40.370 190.765 " stroke="none" fill="black" fill-rule="evenodd"/>
</svg>