<svg xmlns="http://www.w3.org/2000/svg" width="340" height="324" viewBox="0 0 340 324" version="1.1">
	<path d="M 63.057 127.167 C 55.159 128.295, 43.641 132.804, 36.433 137.588 C 28.278 143.001, 17.868 154.723, 13.692 163.194 C 6.872 177.028, 6.703 178.330, 6.248 220.597 C 5.877 255.034, 5.996 258.854, 7.490 260.347 C 8.993 261.850, 15.020 262, 74 262 C 132.073 262, 139.024 261.833, 140.454 260.403 C 141.869 258.988, 142.009 255.010, 141.677 225.653 C 141.471 207.419, 140.791 189.374, 140.166 185.553 C 135.029 154.140, 112.537 131.395, 82.284 127.020 C 74.443 125.887, 71.884 125.906, 63.057 127.167 M 263.200 127.200 C 261.465 128.935, 261.465 259.065, 263.200 260.800 C 264.595 262.195, 329.604 262.538, 331.772 261.162 C 332.780 260.522, 333.044 246.603, 333.044 194 C 333.044 141.397, 332.780 127.478, 331.772 126.838 C 329.604 125.462, 264.595 125.805, 263.200 127.200 M 58.645 135.584 C 38.562 140.445, 20.305 158.877, 15.537 179.103 C 14.349 184.144, 14.026 192.762, 14.015 219.750 L 14 254 74 254 L 134 254 133.992 226.250 C 133.983 197.173, 133.029 183.850, 130.356 175.500 C 125.635 160.752, 114.105 147.093, 100.954 140.670 C 96.854 138.668, 90.818 136.348, 87.540 135.515 C 80.213 133.653, 66.488 133.685, 58.645 135.584 M 269 194 L 269 254 297.500 254 L 326 254 326 194 L 326 134 297.500 134 L 269 134 269 194 M 194.344 158.988 C 184.010 161.166, 173.930 169.366, 169.417 179.266 C 165.361 188.161, 165.361 198.839, 169.417 207.734 C 172.868 215.303, 179.786 222.097, 187.762 225.749 C 195.433 229.260, 205.846 229.363, 214.469 226.012 C 225.350 221.783, 234.344 210.324, 235.859 198.758 C 237.415 186.876, 234.030 176.942, 225.518 168.404 C 217.736 160.597, 204.983 156.745, 194.344 158.988 M 191.385 167.617 C 176.729 172.815, 169.477 191.530, 176.588 205.801 C 187.799 228.298, 221.531 224.930, 228.098 200.657 C 231.721 187.265, 223.838 172.176, 210.684 167.326 C 206.298 165.709, 196.343 165.859, 191.385 167.617 M 199.616 191.527 C 198.727 192.416, 198 193.529, 198 194 C 198 195.389, 201.140 198.120, 202.295 197.735 C 204.395 197.035, 205.549 194.094, 204.423 192.310 C 202.905 189.902, 201.474 189.669, 199.616 191.527 " stroke="none" fill="black" fill-rule="evenodd"/>
</svg>