<svg xmlns="http://www.w3.org/2000/svg" width="500" height="324" viewBox="0 0 500 324" version="1.1">
	<path d="M 7.571 127.571 C 6.175 128.968, 6 136.372, 6 194 C 6 251.628, 6.175 259.032, 7.571 260.429 C 9.386 262.244, 9.946 262.319, 12 261.023 C 13.205 260.263, 13.598 256.680, 14 242.789 C 14.499 225.519, 14.502 225.504, 16.285 228.769 C 19.024 233.783, 30.503 245.476, 36.773 249.637 C 58.583 264.114, 88.032 264.104, 109.831 249.612 C 117.913 244.239, 126.783 235.050, 131.023 227.658 L 133.981 222.500 133.991 240.679 C 133.998 255.863, 134.259 259.116, 135.571 260.429 C 137.678 262.535, 138.598 262.412, 140.443 259.777 C 141.813 257.823, 142 249.904, 142 194 C 142 138.096, 141.813 130.177, 140.443 128.223 C 138.598 125.588, 137.678 125.465, 135.571 127.571 C 134.262 128.881, 133.998 132.092, 133.991 146.821 L 133.981 164.500 130.992 159.288 C 123.942 146.995, 108.747 134.571, 95.253 130.066 C 75.481 123.466, 53.596 126.196, 36.773 137.363 C 30.503 141.524, 19.024 153.217, 16.285 158.231 C 14.500 161.500, 14.500 161.500, 14 144.711 C 13.600 131.265, 13.201 127.734, 12 126.977 C 9.946 125.681, 9.386 125.757, 7.571 127.571 M 223.235 127.088 C 209.137 129.239, 196.613 135.661, 186.132 146.115 C 178.223 154.005, 172.914 162.623, 169.265 173.500 L 166.580 181.500 166.217 220.309 C 165.945 249.402, 166.153 259.480, 167.049 260.559 C 168.068 261.787, 177.884 261.998, 233.372 261.985 C 269.193 261.976, 299.104 261.586, 299.843 261.118 C 300.940 260.423, 301.107 253.346, 300.757 222.384 C 300.364 187.494, 300.160 183.879, 298.179 176.646 C 294.867 164.550, 289.684 155.707, 280.433 146.367 C 273.680 139.549, 270.828 137.488, 262.933 133.719 C 257.745 131.242, 251.475 128.743, 249 128.165 C 242.011 126.532, 230.134 126.035, 223.235 127.088 M 423.200 127.200 C 421.465 128.935, 421.465 259.065, 423.200 260.800 C 424.918 262.518, 490.082 262.518, 491.800 260.800 C 493.535 259.065, 493.535 128.935, 491.800 127.200 C 490.082 125.482, 424.918 125.482, 423.200 127.200 M 58.645 135.584 C 38.761 140.397, 20.825 158.334, 15.585 178.644 C 13.593 186.367, 13.571 199.556, 15.537 207.897 C 20.363 228.369, 38.631 246.637, 59.103 251.463 C 66.646 253.241, 78.760 253.441, 86.201 251.910 C 89.115 251.310, 95.244 249.032, 99.820 246.847 C 116.772 238.754, 129.751 221.181, 132.547 202.538 L 133.227 198 103.548 198 C 85.001 198, 73.143 197.612, 71.934 196.965 C 70.086 195.976, 70 194.555, 70 164.965 L 70 134 67.250 134.083 C 65.737 134.129, 61.865 134.804, 58.645 135.584 M 78 162 L 78 190 105.629 190 L 133.258 190 132.607 185.092 C 129.548 162.032, 110.437 140.851, 87.897 135.537 C 76.926 132.951, 78 130.080, 78 162 M 218.788 135.551 C 198.489 140.473, 180.896 157.943, 175.543 178.495 C 174.295 183.286, 174 191.077, 174 219.210 L 174 254 234 254 L 294 254 293.992 226.750 C 293.979 185.290, 292.118 174.324, 282.702 160.247 C 274.471 147.940, 262.213 139.326, 247.540 135.539 C 240.284 133.665, 226.542 133.672, 218.788 135.551 M 429 194 L 429 254 457.500 254 L 486 254 486 194 L 486 134 457.500 134 L 429 134 429 194 M 354.355 159.039 C 344.144 161.060, 334.058 169.072, 329.244 178.987 C 326.948 183.715, 326.567 185.781, 326.567 193.500 C 326.567 201.219, 326.948 203.285, 329.244 208.013 C 332.869 215.478, 339.195 221.667, 346.942 225.326 C 360.984 231.958, 379.197 227.609, 388.508 215.400 C 404.097 194.962, 394.252 165.989, 369.530 159.550 C 363.070 157.867, 360.684 157.787, 354.355 159.039 M 352.994 166.934 C 341.548 170.416, 333.652 181.261, 333.652 193.500 C 333.652 203.865, 339.479 213.576, 348.500 218.246 C 354.710 221.460, 365.254 221.807, 371.754 219.010 C 381.560 214.792, 389 203.787, 389 193.500 C 389 183.480, 381.989 172.797, 372.500 168.358 C 367.347 165.948, 358.386 165.294, 352.994 166.934 M 359.750 191.080 C 357.372 192.465, 357.542 195.685, 360.064 197.034 C 363.753 199.008, 366.819 194.219, 363.800 191.200 C 362.367 189.767, 362.022 189.757, 359.750 191.080 " stroke="none" fill="black" fill-rule="evenodd"/>
</svg>