<svg xmlns="http://www.w3.org/2000/svg" width="403" height="324" viewBox="0 0 403 324" version="1.1">
	<path d="M 39.571 127.571 C 38.176 128.966, 38 136.152, 38 191.571 L 38 254 23.571 254 C 11.788 254, 8.855 254.288, 7.571 255.571 C 5.598 257.545, 5.598 258.455, 7.571 260.429 C 8.936 261.793, 13.463 262, 42 262 C 70.537 262, 75.064 261.793, 76.429 260.429 C 77.293 259.564, 78 258.471, 78 258 C 78 257.529, 77.293 256.436, 76.429 255.571 C 75.145 254.288, 72.212 254, 60.429 254 L 46 254 46 191.571 C 46 136.152, 45.824 128.966, 44.429 127.571 C 43.564 126.707, 42.471 126, 42 126 C 41.529 126, 40.436 126.707, 39.571 127.571 M 159.205 127.092 C 145.411 129.194, 132.167 136.058, 121.939 146.407 C 110.671 157.807, 104.079 171.793, 102.526 187.593 C 101.946 193.493, 102.107 194.964, 103.486 196.343 C 104.397 197.254, 105.535 198, 106.015 198 C 107.925 198, 110 193.308, 110 188.988 C 110 176.638, 116.422 162.611, 126.993 151.875 C 138.911 139.769, 152.528 134, 169.184 134 C 179.272 134, 187.110 135.856, 196.500 140.468 C 214.383 149.252, 226.924 167.970, 228.656 188.463 C 229.170 194.542, 229.690 196.299, 231.214 197.115 C 238.880 201.217, 236.961 178.149, 228.264 161.652 C 225.771 156.922, 221.777 151.762, 216.433 146.367 C 209.680 139.549, 206.828 137.488, 198.933 133.719 C 193.745 131.242, 187.475 128.743, 185 128.165 C 178.002 126.530, 166.132 126.036, 159.205 127.092 M 290.355 126.998 C 278.611 129.440, 267.491 139.432, 264.023 150.661 C 261.588 158.545, 261.537 160.814, 263.571 170.792 C 267.062 187.911, 274.199 204.916, 284.111 219.730 C 291.447 230.693, 308.451 247.410, 319.859 254.876 C 325.007 258.244, 329.602 261, 330.070 261 C 330.539 261, 331.727 260.170, 332.711 259.156 C 333.695 258.141, 337.425 255.350, 341 252.952 C 349.325 247.369, 364.719 232.494, 370.905 224.054 C 381.468 209.643, 388.829 194.334, 392.943 178.223 C 397.395 160.788, 396.685 152.249, 389.946 142.156 C 380.315 127.735, 362.165 122.482, 346.896 129.697 C 340.229 132.847, 334.390 137.838, 331.350 142.984 C 330.370 144.643, 329.328 145.988, 329.034 145.973 C 328.740 145.958, 327.375 144.099, 326 141.841 C 323.042 136.985, 315.018 130.623, 309.310 128.609 C 303.804 126.667, 295.389 125.951, 290.355 126.998 M 286.363 135.922 C 276.214 140.531, 269.657 150.503, 269.805 161.104 C 269.941 170.879, 275.211 188.548, 282.006 202.013 C 290.412 218.671, 306.607 237.183, 321.750 247.441 L 329 252.353 336.248 247.427 C 362.414 229.640, 381.816 199.655, 387.594 168.074 C 389.074 159.986, 389.076 158.774, 387.625 153.781 C 381.697 133.391, 354.920 127.127, 340.773 142.821 C 336.381 147.693, 334.298 152.276, 333.400 159.041 C 332.603 165.054, 330.955 166.756, 327.470 165.168 C 325.687 164.356, 325 163.253, 325 161.203 C 325 151.481, 317.866 140.739, 308.500 136.358 C 302.116 133.372, 292.400 133.181, 286.363 135.922 " stroke="none" fill="black" fill-rule="evenodd"/>
</svg>