<svg xmlns="http://www.w3.org/2000/svg" width="468" height="324" viewBox="0 0 468 324" version="1.1">
	<path d="M 67 126.637 C 50.260 129.082, 38.099 134.794, 27.164 145.349 C 15.107 156.987, 8.421 170.983, 6.503 188.598 C 5.964 193.549, 6.150 195.007, 7.491 196.348 C 10.992 199.850, 14 196.834, 14 189.823 C 14 171.461, 27.851 149.945, 45.603 140.732 C 51.722 137.556, 62.722 134.062, 66.752 134.015 C 67.440 134.007, 54.052 161.899, 37.002 195.997 C 19.951 230.095, 6 258.188, 6 258.425 C 6 258.663, 6.707 259.564, 7.571 260.429 C 8.968 261.825, 16.372 262, 74 262 C 131.628 262, 139.032 261.825, 140.429 260.429 C 141.293 259.564, 142 258.663, 142 258.425 C 142 258.188, 128.049 230.095, 110.998 195.997 C 93.948 161.899, 80.335 134.007, 80.748 134.015 C 81.162 134.023, 84.379 134.708, 87.897 135.537 C 112.441 141.323, 132.909 166.127, 132.985 190.179 C 132.994 193.082, 133.596 195.453, 134.571 196.429 C 136.561 198.418, 137.453 198.404, 139.509 196.348 C 140.850 195.007, 141.036 193.549, 140.497 188.598 C 138.021 165.862, 126.306 147.112, 107.500 135.789 C 95.767 128.724, 78.866 124.905, 67 126.637 M 227 126.637 C 210.260 129.082, 198.099 134.794, 187.164 145.349 C 175.107 156.987, 168.421 170.983, 166.503 188.598 C 165.964 193.549, 166.150 195.007, 167.491 196.348 C 170.992 199.850, 174 196.834, 174 189.823 C 174 166.229, 194.726 141.284, 219.103 135.537 C 227.282 133.610, 239.718 133.610, 247.897 135.537 C 272.441 141.323, 292.909 166.127, 292.985 190.179 C 292.994 193.082, 293.596 195.453, 294.571 196.429 C 296.561 198.418, 297.453 198.404, 299.509 196.348 C 300.850 195.007, 301.036 193.549, 300.497 188.598 C 298.021 165.862, 286.306 147.112, 267.500 135.789 C 255.767 128.724, 238.866 124.905, 227 126.637 M 355.270 127.054 C 340.642 129.941, 329.828 140.938, 327.037 155.763 C 325.341 164.776, 330.253 185.163, 338.098 201.670 C 347.570 221.600, 364.592 241.499, 382.672 253.775 C 394.380 261.725, 394.549 261.781, 397.810 258.802 C 399.289 257.450, 403.650 254.155, 407.500 251.481 C 422.883 240.793, 440.030 220.331, 448.329 202.759 C 456.642 185.156, 461.527 165.553, 459.962 156.078 C 456.131 132.887, 432.336 120.238, 410.616 129.845 C 405.222 132.232, 399.372 137.363, 396.005 142.662 L 393.360 146.824 391.503 143.377 C 389.181 139.064, 382.418 132.764, 377.318 130.162 C 375.183 129.073, 370.781 127.691, 367.535 127.091 C 360.994 125.882, 361.205 125.883, 355.270 127.054 M 351.054 135.728 C 345.018 137.859, 337.781 145.260, 335.667 151.463 C 333.610 157.500, 333.573 163.533, 335.540 172 C 341.086 195.876, 352.263 216.241, 369.011 232.989 C 376.307 240.285, 391.397 252, 393.500 252 C 395.401 252, 410.231 240.618, 416.914 234.029 C 427.666 223.429, 434.183 214.364, 441.018 200.500 C 447.591 187.167, 451.827 173.889, 452.692 163.905 C 454.493 143.139, 435.597 128.807, 415.463 135.667 C 406.088 138.862, 398 149.949, 398 159.607 C 398 162.970, 395.867 166, 393.500 166 C 391.133 166, 389 162.970, 389 159.607 C 389 149.949, 380.912 138.862, 371.537 135.667 C 365.516 133.616, 356.964 133.641, 351.054 135.728 M 44.747 196.500 L 16.002 254 74 254 L 131.998 254 103.253 196.500 C 87.443 164.875, 74.279 139, 74 139 C 73.721 139, 60.557 164.875, 44.747 196.500 " stroke="none" fill="black" fill-rule="evenodd"/>
</svg>