<svg xmlns="http://www.w3.org/2000/svg" width="324" height="324" viewBox="0 0 324 324" version="1.1">
	<path d="M 275.235 123.046 C 270.966 124.743, 270.298 133.026, 274.306 134.564 C 275.142 134.885, 275.485 136.150, 275.222 137.940 C 274.885 140.237, 275.254 140.946, 277.089 141.528 C 279.913 142.424, 282.492 139.599, 284.015 133.943 C 286.149 126.019, 281.687 120.481, 275.235 123.046 M 175.102 127.108 C 149.633 130.963, 127.059 151.541, 120.374 177 C 118.113 185.610, 118.113 201.390, 120.374 210 C 123.590 222.248, 128.560 230.638, 138.461 240.535 C 152.487 254.554, 166.258 260.346, 185.500 260.319 C 204.859 260.291, 218.540 254.538, 232.539 240.539 C 242.907 230.171, 247.849 221.502, 250.516 209 C 251.396 204.875, 252.469 199.845, 252.900 197.823 C 254.296 191.270, 250.406 173.519, 245.282 163.060 C 240.079 152.441, 226.572 138.924, 216 133.756 C 203.088 127.445, 188.522 125.077, 175.102 127.108 M 170.645 135.584 C 150.671 140.419, 132.279 158.986, 127.537 179.103 C 122.672 199.742, 128.569 220.600, 143.484 235.516 C 158.400 250.431, 179.258 256.328, 199.897 251.463 C 220.261 246.662, 238.662 228.261, 243.463 207.897 C 246.053 196.908, 249.186 198, 215.071 198 C 189.197 198, 184.930 197.787, 183.571 196.429 C 182.212 195.069, 182 190.758, 182 164.429 L 182 134 179.250 134.083 C 177.738 134.129, 173.865 134.804, 170.645 135.584 M 190 162 L 190 190 217.500 190 L 245 190 244.985 187.750 C 244.977 186.512, 244.292 182.621, 243.463 179.103 C 238.662 158.739, 220.261 140.338, 199.897 135.537 C 188.926 132.951, 190 130.080, 190 162 M 15.308 199.308 C 10.188 204.427, 6 209.120, 6 209.736 C 6 211.121, 8.789 214, 10.131 214 C 10.675 214, 13.568 211.685, 16.560 208.855 L 22 203.710 22 228.855 L 22 254 15.571 254 C 11.061 254, 8.674 254.469, 7.571 255.571 C 5.598 257.545, 5.598 258.455, 7.571 260.429 C 9.900 262.757, 42.100 262.757, 44.429 260.429 C 46.402 258.455, 46.402 257.545, 44.429 255.571 C 43.326 254.469, 40.939 254, 36.429 254 L 30 254 30 223.571 C 30 197.242, 29.788 192.931, 28.429 191.571 C 27.564 190.707, 26.353 190, 25.736 190 C 25.120 190, 20.427 194.188, 15.308 199.308 M 55.571 191.571 C 53.243 193.900, 53.243 226.100, 55.571 228.429 C 56.801 229.658, 59.433 230, 67.671 230 L 78.200 230 81.600 233.400 C 84.478 236.278, 85 237.504, 85 241.384 C 85 250.249, 78.959 253.927, 64.321 253.976 C 57.433 253.999, 54 255.338, 54 258 C 54 262.710, 70.070 263.744, 79.221 259.623 C 82.125 258.316, 85.508 256.278, 86.739 255.094 C 95.079 247.078, 94.009 232.656, 84.595 226.206 C 80.121 223.140, 75.692 222, 68.257 222 L 62 222 62 210 L 62 198 76.429 198 C 88.212 198, 91.145 197.712, 92.429 196.429 C 94.402 194.455, 94.402 193.545, 92.429 191.571 C 91.124 190.267, 87.991 190, 74 190 C 60.009 190, 56.876 190.267, 55.571 191.571 " stroke="none" fill="black" fill-rule="evenodd"/>
</svg>