<svg xmlns="http://www.w3.org/2000/svg" width="244" height="324" viewBox="0 0 244 324" version="1.1">
	<path d="M 23.200 63.200 C 21.512 64.888, 21.512 99.112, 23.200 100.800 C 24.040 101.640, 29.562 102, 41.629 102 C 55.958 102, 59.122 101.736, 60.429 100.429 C 62.757 98.100, 62.757 65.900, 60.429 63.571 C 59.122 62.264, 55.958 62, 41.629 62 C 29.562 62, 24.040 62.360, 23.200 63.200 M 30 82 L 30 94 42 94 L 54 94 54 82 L 54 70 42 70 L 30 70 30 82 M 7.571 127.571 C 6.707 128.436, 6 129.529, 6 130 C 6 130.471, 6.707 131.564, 7.571 132.429 C 8.855 133.712, 11.788 134, 23.571 134 L 38 134 38 162 L 38 190 23.571 190 C 11.788 190, 8.855 190.288, 7.571 191.571 C 5.598 193.545, 5.598 194.455, 7.571 196.429 C 8.855 197.712, 11.788 198, 23.571 198 L 38 198 38 226 L 38 254 23.571 254 C 11.788 254, 8.855 254.288, 7.571 255.571 C 5.598 257.545, 5.598 258.455, 7.571 260.429 C 8.936 261.793, 13.463 262, 42 262 C 70.537 262, 75.064 261.793, 76.429 260.429 C 78.402 258.455, 78.402 257.545, 76.429 255.571 C 75.145 254.288, 72.212 254, 60.429 254 L 46 254 46 226 L 46 198 60.429 198 C 72.212 198, 75.145 197.712, 76.429 196.429 C 78.402 194.455, 78.402 193.545, 76.429 191.571 C 75.145 190.288, 72.212 190, 60.429 190 L 46 190 46 162 L 46 134 60.429 134 C 72.212 134, 75.145 133.712, 76.429 132.429 C 77.293 131.564, 78 130.471, 78 130 C 78 129.529, 77.293 128.436, 76.429 127.571 C 75.064 126.207, 70.537 126, 42 126 C 13.463 126, 8.936 126.207, 7.571 127.571 M 167.268 191.240 C 131.371 227.121, 102 257.216, 102 258.117 C 102 259.018, 102.613 260.263, 103.361 260.885 C 104.349 261.705, 122.615 261.944, 170.002 261.757 C 230.924 261.517, 235.356 261.383, 236.386 259.750 C 237.191 258.474, 237.191 257.526, 236.386 256.250 C 235.358 254.620, 231.187 254.482, 175.539 254.242 L 115.796 253.984 176.398 192.905 C 209.729 159.312, 237 131.056, 237 130.113 C 237 128.208, 235.158 126, 233.568 126 C 233 126, 203.165 155.358, 167.268 191.240 " stroke="none" fill="black" fill-rule="evenodd"/>
</svg>