<svg xmlns="http://www.w3.org/2000/svg" width="308" height="324" viewBox="0 0 308 324" version="1.1">
	<path d="M 63.870 127.014 C 56.247 128.211, 46.649 131.523, 40 135.249 C 31.305 140.122, 18.158 154.043, 13.793 163 C 6.895 177.154, 6.745 178.306, 6.267 220.597 C 5.879 255.050, 5.996 258.853, 7.490 260.347 C 8.993 261.850, 14.995 261.999, 73.821 261.985 C 109.395 261.976, 139.097 261.591, 139.826 261.129 C 140.888 260.455, 141.130 253.639, 141.040 226.916 C 140.897 184.107, 139.823 176.185, 132.175 161.500 C 126.924 151.418, 114.926 139.613, 104.500 134.271 C 91.620 127.672, 76.672 125.002, 63.870 127.014 M 194.355 126.998 C 182.364 129.491, 171.822 139.115, 167.974 151.080 C 165.830 157.748, 165.732 158.949, 166.763 165.917 C 168.612 178.418, 172.672 190.760, 179.430 204.423 L 185.821 217.345 175.669 237.678 C 167.389 254.262, 165.720 258.333, 166.618 259.755 C 167.646 261.386, 172.017 261.500, 233.500 261.500 C 294.885 261.500, 299.355 261.384, 300.378 259.762 C 301.270 258.348, 299.528 254.118, 291.022 237.044 L 280.570 216.064 282.854 212.282 C 292.942 195.574, 300.941 169.406, 299.683 157.222 C 297.722 138.222, 278.179 123.462, 259.542 126.908 C 253.515 128.022, 246.784 131.076, 243.113 134.363 C 241.800 135.538, 240.555 136.050, 240.345 135.500 C 238.684 131.132, 235.161 126.500, 233.500 126.500 C 231.847 126.500, 228.133 131.382, 226.708 135.429 C 226.528 135.940, 224.275 134.909, 221.701 133.139 C 213.581 127.552, 203.058 125.189, 194.355 126.998 M 58.645 135.584 C 38.562 140.445, 20.305 158.877, 15.537 179.103 C 14.349 184.144, 14.026 192.762, 14.015 219.750 L 14 254 74.115 254 L 134.230 254 133.747 220.250 C 133.313 189.886, 133.050 185.708, 131.135 178.601 C 125.371 157.218, 108.907 140.946, 87.540 135.515 C 80.213 133.653, 66.488 133.685, 58.645 135.584 M 191.885 135.380 C 181.179 139.205, 173.857 149.373, 173.857 160.413 C 173.857 166.608, 176.840 179.872, 180.301 189.066 C 183.328 197.110, 188.779 208, 189.777 208 C 190.188 208, 197.704 193.620, 206.478 176.044 L 222.431 144.088 219.966 141.412 C 213.981 134.916, 200.991 132.126, 191.885 135.380 M 253.500 136.377 C 250.750 137.674, 247.531 139.807, 246.347 141.118 L 244.195 143.500 260.468 175.985 L 276.741 208.470 280.742 200.485 C 285.823 190.343, 289.568 179.146, 291.608 167.996 C 293.073 159.989, 293.075 158.769, 291.625 153.781 C 287.012 137.915, 268.327 129.385, 253.500 136.377 M 232.135 140.747 C 231.054 142.768, 231.503 146, 232.866 146 C 233.225 146, 234.050 145.149, 234.700 144.109 C 235.620 142.635, 235.592 141.825, 234.572 140.429 C 233.330 138.731, 233.206 138.747, 232.135 140.747 M 238.641 152.494 C 238.328 153.309, 237.774 156.223, 237.410 158.970 C 236.616 164.949, 234.949 166.754, 231.620 165.237 C 229.767 164.392, 229.174 163.120, 228.676 158.916 C 228.334 156.022, 227.670 153.270, 227.202 152.802 C 226.494 152.094, 195 214.417, 195 216.528 C 195 216.907, 197.270 220.069, 200.044 223.555 C 206.508 231.679, 217.154 241.526, 226.026 247.588 L 233 252.353 240.240 247.427 C 249.020 241.452, 260.324 230.890, 267.241 222.197 L 272.358 215.766 256.429 183.803 C 247.668 166.223, 240.210 151.653, 239.855 151.425 C 239.500 151.198, 238.954 151.678, 238.641 152.494 M 275 223.975 C 275 225.619, 256.068 244.780, 249.753 249.527 L 243.802 254 267.401 254 C 280.380 254, 291 253.769, 291 253.488 C 291 252.518, 275.987 223, 275.494 223 C 275.222 223, 275 223.439, 275 223.975 M 183.238 239.500 L 176.009 254 199.103 254 L 222.198 254 216.173 249.471 C 212.859 246.980, 205.882 240.455, 200.667 234.971 C 195.453 229.487, 191.025 225, 190.827 225 C 190.630 225, 187.215 231.525, 183.238 239.500 " stroke="none" fill="black" fill-rule="evenodd"/>
</svg>