<svg xmlns="http://www.w3.org/2000/svg" width="403" height="324" viewBox="0 0 403 324" version="1.1">
	<path d="M 159.870 127.014 C 128.933 131.874, 105.619 156.506, 102.533 187.593 C 101.946 193.499, 102.106 194.963, 103.486 196.343 C 104.397 197.254, 105.535 198, 106.015 198 C 107.925 198, 110 193.308, 110 188.988 C 110 176.638, 116.422 162.611, 126.993 151.875 C 138.911 139.769, 152.528 134, 169.184 134 C 179.272 134, 187.110 135.856, 196.500 140.468 C 214.376 149.249, 227.205 168.443, 228.737 188.700 C 229.183 194.602, 229.681 196.294, 231.212 197.113 C 238.880 201.217, 236.963 178.153, 228.264 161.652 C 225.771 156.922, 221.777 151.762, 216.433 146.367 C 209.680 139.549, 206.828 137.488, 198.933 133.719 C 193.745 131.242, 187.475 128.743, 185 128.165 C 178.187 126.573, 166.177 126.023, 159.870 127.014 M 290.801 127.017 C 278.902 129.050, 267.470 139.349, 263.837 151.310 C 261.876 157.768, 261.771 159.211, 262.773 165.986 C 264.613 178.419, 268.684 190.784, 275.430 204.423 L 281.821 217.345 271.669 237.678 C 263.389 254.262, 261.720 258.333, 262.618 259.755 C 263.646 261.386, 268.017 261.500, 329.500 261.500 C 390.885 261.500, 395.355 261.384, 396.378 259.762 C 397.270 258.348, 395.528 254.118, 387.022 237.044 L 376.570 216.064 378.849 212.282 C 388.750 195.850, 396.914 169.147, 395.683 157.222 C 394.495 145.710, 386.583 135.039, 375.329 129.773 C 366.385 125.588, 356.045 125.459, 347.380 129.426 C 344.149 130.905, 340.430 133.102, 339.116 134.308 C 337.801 135.514, 336.555 136.050, 336.345 135.500 C 334.684 131.132, 331.161 126.500, 329.500 126.500 C 327.836 126.500, 324.217 131.269, 322.669 135.500 C 322.468 136.050, 320.323 135.106, 317.902 133.402 C 309.915 127.781, 300.001 125.445, 290.801 127.017 M 286.435 135.890 C 274.429 141.343, 267.991 153.042, 270.029 165.699 C 271.685 175.979, 275.866 188.979, 280.902 199.500 L 285.688 209.500 302.063 176.798 L 318.438 144.095 315.969 141.415 C 309.590 134.491, 295.371 131.831, 286.435 135.890 M 349.500 136.377 C 346.750 137.674, 343.531 139.807, 342.347 141.118 L 340.195 143.500 356.468 175.985 L 372.741 208.470 376.742 200.485 C 382.701 188.591, 389 167.903, 389 160.224 C 389 155.555, 385.736 147.981, 381.793 143.502 C 373.558 134.147, 360.390 131.242, 349.500 136.377 M 328.212 140.433 C 327.108 142.858, 327.477 146, 328.866 146 C 329.225 146, 330.027 145.187, 330.648 144.193 C 331.493 142.839, 331.475 141.821, 330.574 140.138 L 329.371 137.890 328.212 140.433 M 334.641 152.494 C 334.328 153.309, 333.774 156.223, 333.410 158.970 C 332.616 164.949, 330.949 166.754, 327.620 165.237 C 325.767 164.392, 325.174 163.120, 324.676 158.916 C 324.334 156.022, 323.692 153.292, 323.252 152.852 C 322.811 152.411, 315.282 166.409, 306.521 183.959 C 291.019 215.010, 290.630 215.943, 292.046 218.669 C 294.473 223.343, 314.030 242.322, 321.750 247.495 L 329 252.353 336.240 247.427 C 345.020 241.452, 356.324 230.890, 363.241 222.197 L 368.358 215.766 352.429 183.803 C 343.668 166.223, 336.210 151.653, 335.855 151.425 C 335.500 151.198, 334.954 151.678, 334.641 152.494 M 40.370 190.765 C 38.401 192.045, 6.007 257.855, 6.594 259.384 C 7.265 261.133, 9.512 262.124, 11.274 261.448 C 11.975 261.180, 19.056 247.919, 27.010 231.980 C 34.964 216.041, 41.710 203, 42 203 C 42.290 203, 49.036 216.041, 56.990 231.980 C 64.944 247.919, 72.083 261.201, 72.853 261.497 C 74.717 262.213, 77 260.217, 77 257.871 C 77 255.637, 45.272 191.833, 43.630 190.765 C 43.009 190.361, 42.275 190.031, 42 190.031 C 41.725 190.031, 40.991 190.361, 40.370 190.765 M 135.244 223.256 C 116.960 241.546, 102 257.280, 102 258.220 C 102 259.160, 102.870 260.395, 103.934 260.965 C 105.210 261.648, 127.802 262, 170.312 262 C 238.584 262, 237.803 262.052, 236.833 257.554 C 236.427 255.676, 170.995 190, 169.529 190 C 168.957 190, 153.529 204.965, 135.244 223.256 M 142 226.500 L 114.514 254 169.500 254 L 224.486 254 197 226.500 C 181.883 211.375, 169.508 199, 169.500 199 C 169.492 199, 157.117 211.375, 142 226.500 M 371 223.902 C 371 225.529, 351.989 244.839, 345.827 249.471 L 339.802 254 363.401 254 C 376.380 254, 387 253.769, 387 253.488 C 387 252.518, 371.987 223, 371.494 223 C 371.222 223, 371 223.406, 371 223.902 M 279.202 238.573 C 275.241 246.518, 272 253.239, 272 253.509 C 272 253.779, 282.395 254, 295.099 254 L 318.198 254 312.136 249.443 C 308.802 246.937, 301.649 240.216, 296.239 234.508 L 286.404 224.129 279.202 238.573 " stroke="none" fill="black" fill-rule="evenodd"/>
</svg>