<svg xmlns="http://www.w3.org/2000/svg" width="308" height="324" viewBox="0 0 308 324" version="1.1">
	<path d="M 39.230 159.285 L 6 192.569 6 225.713 C 6 254.511, 6.206 259.063, 7.571 260.429 C 8.968 261.825, 16.343 261.998, 73.821 261.985 C 109.395 261.976, 139.081 261.601, 139.791 261.150 C 140.805 260.507, 141.075 253.062, 141.050 226.416 L 141.019 192.500 108.259 159.234 C 90.242 140.937, 74.816 125.975, 73.980 125.984 C 73.144 125.993, 57.506 140.978, 39.230 159.285 M 221.500 127.418 C 193.780 132.810, 173.221 152.957, 167.583 180.254 C 165.541 190.137, 165.215 258.815, 167.200 260.800 C 168.109 261.709, 184.200 262, 233.500 262 C 282.800 262, 298.891 261.709, 299.800 260.800 C 301.366 259.234, 301.465 198.513, 299.920 187.322 C 296.489 162.466, 283.368 143.614, 262.500 133.554 C 257.550 131.168, 251.463 128.736, 248.974 128.150 C 241.104 126.296, 228.935 125.972, 221.500 127.418 M 217.345 135.845 C 206.476 139.060, 199.978 142.976, 191.411 151.475 C 185.736 157.105, 182.368 161.454, 180.125 166.045 C 174.016 178.549, 173.796 180.241, 173.273 218.750 L 172.795 254 233.397 254 L 294 254 293.982 226.250 C 293.963 197.749, 292.717 183.046, 289.569 174.171 C 283.449 156.921, 269.591 142.927, 252.723 136.966 C 243.924 133.857, 225.988 133.288, 217.345 135.845 M 43.744 165.756 L 14 195.512 14 224.756 L 14 254 74 254 L 134 254 134 224.744 L 134 195.487 104.244 165.744 C 87.878 149.385, 74.263 136, 73.988 136 C 73.713 136, 60.103 149.390, 43.744 165.756 " stroke="none" fill="black" fill-rule="evenodd"/>
</svg>