<svg xmlns="http://www.w3.org/2000/svg" width="244" height="324" viewBox="0 0 244 324" version="1.1">
	<path d="M 23.200 63.200 C 21.512 64.888, 21.512 99.112, 23.200 100.800 C 24.040 101.640, 29.562 102, 41.629 102 C 55.958 102, 59.122 101.736, 60.429 100.429 C 62.757 98.100, 62.757 65.900, 60.429 63.571 C 59.122 62.264, 55.958 62, 41.629 62 C 29.562 62, 24.040 62.360, 23.200 63.200 M 30 82 L 30 94 42 94 L 54 94 54 82 L 54 70 42 70 L 30 70 30 82 M 7.571 127.571 C 6.707 128.436, 6 129.529, 6 130 C 6 130.471, 6.707 131.564, 7.571 132.429 C 8.855 133.712, 11.788 134, 23.571 134 L 38 134 38 162 L 38 190 23.571 190 C 11.788 190, 8.855 190.288, 7.571 191.571 C 5.598 193.545, 5.598 194.455, 7.571 196.429 C 8.855 197.712, 11.788 198, 23.571 198 L 38 198 38 226 L 38 254 23.571 254 C 11.788 254, 8.855 254.288, 7.571 255.571 C 5.598 257.545, 5.598 258.455, 7.571 260.429 C 8.936 261.793, 13.463 262, 42 262 C 70.537 262, 75.064 261.793, 76.429 260.429 C 78.402 258.455, 78.402 257.545, 76.429 255.571 C 75.145 254.288, 72.212 254, 60.429 254 L 46 254 46 226 L 46 198 60.429 198 C 72.212 198, 75.145 197.712, 76.429 196.429 C 78.402 194.455, 78.402 193.545, 76.429 191.571 C 75.145 190.288, 72.212 190, 60.429 190 L 46 190 46 162 L 46 134 60.429 134 C 72.212 134, 75.145 133.712, 76.429 132.429 C 77.293 131.564, 78 130.471, 78 130 C 78 129.529, 77.293 128.436, 76.429 127.571 C 75.064 126.207, 70.537 126, 42 126 C 13.463 126, 8.936 126.207, 7.571 127.571 M 103.579 191.564 C 101.598 193.545, 101.596 194.454, 103.571 196.429 C 104.928 197.785, 109.106 198, 134.071 198 C 149.982 198, 163 198.223, 163 198.496 C 163 198.768, 156.365 212.269, 148.257 228.498 C 136.171 252.687, 133.712 258.320, 134.615 259.752 C 135.621 261.347, 138.545 261.524, 168.109 261.779 C 185.924 261.933, 201.463 261.825, 202.640 261.538 C 203.817 261.252, 205.047 260.321, 205.373 259.469 C 205.722 258.561, 199.778 245.548, 190.988 227.976 L 176.008 198.030 205.646 197.765 C 232.613 197.524, 235.382 197.342, 236.386 195.750 C 237.191 194.474, 237.191 193.526, 236.386 192.250 C 235.356 190.617, 230.934 190.483, 170.220 190.243 C 112.058 190.013, 104.990 190.153, 103.579 191.564 M 156.743 228.500 L 144.005 254 169.503 254 C 183.526 254, 195 253.772, 195 253.492 C 195 252.827, 170.070 203, 169.737 203 C 169.597 203, 163.750 214.475, 156.743 228.500 " stroke="none" fill="black" fill-rule="evenodd"/>
</svg>