<svg xmlns="http://www.w3.org/2000/svg" width="276" height="324" viewBox="0 0 276 324" version="1.1">
	<path d="M 159.102 127.108 C 133.633 130.963, 111.059 151.541, 104.374 177 C 102.114 185.608, 102.133 201.372, 104.414 210 C 107.688 222.381, 112.580 230.659, 122.461 240.535 C 129.488 247.559, 133.169 250.376, 139 253.193 C 149.909 258.463, 157.807 260.304, 169.500 260.304 C 181.257 260.304, 189.240 258.451, 200 253.222 C 210.567 248.088, 224.088 234.567, 229.222 224 C 233.141 215.936, 236 206.211, 236 200.946 C 236 198.061, 237.979 195.681, 253 180.500 C 262.350 171.050, 270 162.829, 270 162.231 C 270 160.818, 267.174 158, 265.756 158 C 265.150 158, 258.316 164.285, 250.568 171.967 L 236.480 185.935 234.746 178.304 C 231.827 165.459, 226.873 156.795, 216.539 146.461 C 206.823 136.745, 198.203 131.569, 186.831 128.621 C 179.080 126.612, 166.806 125.942, 159.102 127.108 M 154.645 135.584 C 134.562 140.445, 116.305 158.877, 111.537 179.103 C 106.672 199.742, 112.569 220.600, 127.484 235.516 C 142.400 250.431, 163.258 256.328, 183.897 251.463 C 204.261 246.662, 222.662 228.261, 227.463 207.897 C 230.394 195.459, 230.886 196.478, 213.500 178.969 C 204.975 170.383, 198 162.860, 198 162.251 C 198 160.827, 200.815 158, 202.232 158 C 202.831 158, 208.922 163.512, 215.767 170.250 C 227.556 181.854, 228.178 182.316, 227.551 179 C 227.188 177.075, 225.050 171.701, 222.802 167.058 C 215.400 151.775, 200.061 139.348, 183.897 135.537 C 175.998 133.676, 162.439 133.697, 154.645 135.584 M 39.571 159.571 C 38.707 160.436, 38 161.529, 38 162 C 38 163.111, 40.889 166, 42 166 C 43.111 166, 46 163.111, 46 162 C 46 160.889, 43.111 158, 42 158 C 41.529 158, 40.436 158.707, 39.571 159.571 M 7.571 191.571 C 6.707 192.436, 6 193.529, 6 194 C 6 194.471, 6.707 195.564, 7.571 196.429 C 8.936 197.793, 13.463 198, 42 198 C 70.537 198, 75.064 197.793, 76.429 196.429 C 77.293 195.564, 78 194.471, 78 194 C 78 193.529, 77.293 192.436, 76.429 191.571 C 75.064 190.207, 70.537 190, 42 190 C 13.463 190, 8.936 190.207, 7.571 191.571 M 39.571 223.571 C 38.707 224.436, 38 225.529, 38 226 C 38 227.111, 40.889 230, 42 230 C 43.111 230, 46 227.111, 46 226 C 46 224.889, 43.111 222, 42 222 C 41.529 222, 40.436 222.707, 39.571 223.571 " stroke="none" fill="black" fill-rule="evenodd"/>
</svg>