<svg xmlns="http://www.w3.org/2000/svg" width="532" height="324" viewBox="0 0 532 324" version="1.1">
	<path d="M 39.267 159.267 L 6 192.533 6 225.695 C 6 254.509, 6.206 259.063, 7.571 260.429 C 8.968 261.825, 16.372 262, 74 262 C 131.628 262, 139.032 261.825, 140.429 260.429 C 141.794 259.063, 142 254.509, 142 225.695 L 142 192.533 108.733 159.267 C 90.437 140.970, 74.807 126, 74 126 C 73.193 126, 57.563 140.970, 39.267 159.267 M 391.750 127.080 C 389.422 128.436, 389.524 131.675, 391.934 132.965 C 393.089 133.583, 402.233 134, 414.637 134 L 435.406 134 431.755 137.750 C 422.344 147.417, 419.662 163.191, 425.336 175.500 C 428.296 181.922, 434.619 189.173, 439.488 191.729 C 442.304 193.207, 442.364 193.361, 440.533 194.399 C 435.329 197.348, 428.079 205.423, 425.377 211.278 C 421.387 219.927, 421.329 230.817, 425.230 239.250 C 426.693 242.412, 427.505 245, 427.034 245 C 425.448 245, 416.404 237.284, 411.737 231.950 C 403.985 223.088, 398 208.471, 398 198.401 C 398 195.852, 397.291 193.346, 396.183 191.978 C 394.636 190.067, 394.042 189.907, 392.183 190.902 C 389.492 192.342, 389.355 195.961, 391.583 206.746 C 395.285 224.671, 406.122 240.417, 421.449 250.141 L 427.500 253.981 346.321 253.990 C 273.864 253.999, 264.974 254.169, 263.571 255.571 C 261.598 257.545, 261.598 258.455, 263.571 260.429 C 264.984 261.841, 278.161 261.998, 393.821 261.985 C 464.595 261.976, 523.072 261.606, 523.772 261.162 C 524.780 260.522, 525.044 246.603, 525.044 194 C 525.044 141.397, 524.780 127.478, 523.772 126.838 C 521.842 125.613, 393.866 125.848, 391.750 127.080 M 447.627 135.468 C 442.247 137.386, 437.039 141.829, 433.500 147.519 C 429.527 153.908, 428.712 165.311, 431.741 172.129 C 435.420 180.408, 442.903 186.846, 450.750 188.481 L 454 189.159 454 161.579 C 454 140.159, 453.721 134.010, 452.750 134.044 C 452.063 134.068, 449.757 134.709, 447.627 135.468 M 461 161.500 L 461 189.217 463.750 188.543 C 475.731 185.608, 484.989 173.820, 484.989 161.500 C 484.989 149.180, 475.731 137.392, 463.750 134.457 L 461 133.783 461 161.500 M 483.417 138.174 C 489.331 145.084, 491.434 150.454, 491.840 159.690 C 492.276 169.597, 490.592 175.401, 485.246 182.416 C 483.186 185.120, 479.470 188.725, 476.990 190.426 L 472.480 193.519 476.990 196.587 C 482.667 200.448, 488.513 208.063, 490.596 214.310 C 493.087 221.779, 492.244 234.154, 488.791 240.807 C 486.410 245.395, 486.316 245.901, 488.014 244.993 C 492.994 242.327, 502.072 233.583, 506.332 227.348 C 516.070 213.096, 517.979 202.273, 517.992 161.250 L 518 134 498.922 134 L 479.844 134 483.417 138.174 M 43.744 165.756 L 14 195.512 14 224.756 L 14 254 74 254 L 134 254 134 224.744 L 134 195.487 104.244 165.744 C 87.878 149.385, 74.263 136, 73.988 136 C 73.713 136, 60.103 149.390, 43.744 165.756 M 167.571 191.571 C 166.707 192.436, 166 193.640, 166 194.249 C 166 194.857, 172.844 202.250, 181.208 210.677 L 196.416 226 181.208 241.323 C 172.844 249.750, 166 257.143, 166 257.751 C 166 259.181, 168.819 262, 170.249 262 C 170.857 262, 178.250 255.156, 186.677 246.792 L 202 231.584 217.323 246.792 C 225.750 255.156, 233.143 262, 233.751 262 C 235.181 262, 238 259.181, 238 257.751 C 238 257.143, 231.156 249.750, 222.792 241.323 L 207.584 226 222.792 210.677 C 231.156 202.250, 238 194.857, 238 194.249 C 238 192.819, 235.181 190, 233.751 190 C 233.143 190, 225.750 196.844, 217.323 205.208 L 202 220.416 186.677 205.208 C 178.250 196.844, 170.857 190, 170.249 190 C 169.640 190, 168.436 190.707, 167.571 191.571 M 447.627 199.468 C 442.247 201.386, 437.039 205.829, 433.500 211.519 C 429.527 217.908, 428.712 229.311, 431.741 236.129 C 435.420 244.408, 442.903 250.846, 450.750 252.481 L 454 253.159 454 225.579 C 454 204.159, 453.721 198.010, 452.750 198.044 C 452.063 198.068, 449.757 198.709, 447.627 199.468 M 461 225.500 L 461 253.217 463.750 252.543 C 475.731 249.608, 484.989 237.820, 484.989 225.500 C 484.989 213.180, 475.731 201.392, 463.750 198.457 L 461 197.783 461 225.500 M 514.576 228.251 C 510.791 235.046, 499.013 246.830, 492 250.838 L 486.500 253.981 502.250 253.991 L 518 254 518 238.500 C 518 229.975, 517.888 223, 517.750 223.001 C 517.612 223.002, 516.184 225.364, 514.576 228.251 " stroke="none" fill="black" fill-rule="evenodd"/>
</svg>