<svg xmlns="http://www.w3.org/2000/svg" width="212" height="324" viewBox="0 0 212 324" version="1.1">
	<path d="M 72.372 62.765 C 70.418 64.037, 54.003 97.844, 54.593 99.381 C 55.268 101.141, 57.513 102.124, 59.295 101.440 C 60.007 101.167, 63.480 95.106, 67.014 87.972 C 70.547 80.837, 73.691 75, 74 75 C 74.309 75, 77.453 80.837, 80.986 87.972 C 84.520 95.106, 87.993 101.167, 88.705 101.440 C 90.476 102.120, 92.731 101.144, 93.396 99.410 C 93.993 97.855, 77.631 64.022, 75.684 62.784 C 74.211 61.847, 73.786 61.845, 72.372 62.765 M 71.571 127.571 C 70.178 128.965, 70 135.897, 70 188.774 L 70 248.405 56.667 235.202 C 49.334 227.941, 42.841 222, 42.239 222 C 40.825 222, 38 224.820, 38 226.232 C 38 226.831, 43.512 232.922, 50.250 239.767 C 61.854 251.556, 62.316 252.178, 59 251.551 C 57.075 251.188, 51.701 249.050, 47.058 246.802 C 28.325 237.728, 14.082 216.402, 14.015 197.321 C 14.001 193.426, 12.122 190, 10 190 C 9.529 190, 8.411 190.732, 7.515 191.627 C 6.220 192.923, 6.020 194.402, 6.537 198.877 C 8.011 211.642, 11.511 221.482, 17.876 230.757 C 27.765 245.168, 43.654 255.932, 59.500 258.956 C 62.800 259.586, 67.669 260.528, 70.319 261.049 C 73.455 261.666, 75.789 261.648, 77.003 260.998 C 78.029 260.449, 80.154 260, 81.724 260 C 83.295 260, 87.229 259.310, 90.467 258.467 C 117.211 251.501, 137.513 227.734, 140.494 199.903 C 141.076 194.470, 140.909 193.052, 139.527 191.670 C 138.609 190.751, 137.465 190, 136.985 190 C 135.158 190, 133 194.610, 133 198.512 C 133 216.551, 118.375 237.937, 100 246.767 C 84.212 254.354, 83.993 253.669, 97.750 239.732 C 104.488 232.906, 110 226.831, 110 226.232 C 110 224.820, 107.175 222, 105.761 222 C 105.159 222, 98.666 227.941, 91.333 235.202 L 78 248.405 78 188.774 C 78 135.897, 77.822 128.965, 76.429 127.571 C 75.564 126.707, 74.471 126, 74 126 C 73.529 126, 72.436 126.707, 71.571 127.571 M 168.200 159.200 C 166.290 161.110, 166.511 211.349, 168.436 212.947 C 169.502 213.832, 170.404 213.854, 171.936 213.034 C 173.940 211.962, 174 211.174, 174 186 C 174 161.388, 173.902 160.018, 172.066 159.035 C 169.655 157.745, 169.655 157.745, 168.200 159.200 M 168.200 222.200 C 165.181 225.219, 168.247 230.008, 171.936 228.034 C 174.536 226.643, 174.606 223.395, 172.066 222.035 C 169.655 220.745, 169.655 220.745, 168.200 222.200 " stroke="none" fill="black" fill-rule="evenodd"/>
</svg>