<svg xmlns="http://www.w3.org/2000/svg" width="244" height="324" viewBox="0 0 244 324" version="1.1">
	<path d="M 7.571 191.571 C 6.707 192.436, 6 193.640, 6 194.249 C 6 194.857, 12.844 202.250, 21.208 210.677 L 36.416 226 21.208 241.323 C 12.844 249.750, 6 257.143, 6 257.751 C 6 259.181, 8.819 262, 10.249 262 C 10.857 262, 18.250 255.156, 26.677 246.792 L 42 231.584 57.323 246.792 C 65.750 255.156, 73.143 262, 73.751 262 C 75.181 262, 78 259.181, 78 257.751 C 78 257.143, 71.156 249.750, 62.792 241.323 L 47.584 226 62.792 210.677 C 71.156 202.250, 78 194.857, 78 194.249 C 78 192.819, 75.181 190, 73.751 190 C 73.143 190, 65.750 196.844, 57.323 205.208 L 42 220.416 26.677 205.208 C 18.250 196.844, 10.857 190, 10.249 190 C 9.640 190, 8.436 190.707, 7.571 191.571 M 103.571 191.571 C 102.707 192.436, 102.016 194.123, 102.035 195.321 C 102.117 200.432, 104.961 213.101, 107.360 219.041 L 109.953 225.460 107.341 231.980 C 104.368 239.399, 101.477 254.779, 102.379 258.374 C 102.711 259.697, 103.770 261.082, 104.733 261.451 C 107.507 262.516, 110 258.563, 110 253.099 C 110 248.287, 112.217 238.331, 114.053 234.901 C 115.011 233.111, 115.365 233.289, 118.794 237.289 C 127.310 247.222, 140.237 255.263, 153.159 258.664 C 161.644 260.897, 177.459 260.850, 186 258.566 C 196.984 255.628, 207.591 249.431, 216.309 240.860 L 224.118 233.181 225.129 235.838 C 227.057 240.909, 228.971 250.525, 228.985 255.215 C 228.997 258.946, 229.431 260.160, 231.064 261.034 C 234.443 262.843, 236 260.636, 236 254.038 C 236 247.489, 233.043 234.966, 230.165 229.324 C 228.248 225.565, 228.246 225.411, 230.068 221.859 C 233.015 216.115, 236 204.054, 236 197.893 C 236 191.366, 234.431 189.164, 231.064 190.966 C 229.484 191.811, 228.997 193.060, 228.985 196.285 C 228.970 200.551, 226.980 210.292, 225.129 215.162 L 224.118 217.819 216.309 210.149 C 200.985 195.097, 181.393 188.296, 161.129 190.993 C 145.553 193.066, 132.390 199.698, 121.278 211.072 C 118.100 214.325, 115.205 216.990, 114.844 216.993 C 113.596 217.006, 110.910 207.475, 110.338 201 C 109.784 194.736, 107.937 190, 106.048 190 C 105.550 190, 104.436 190.707, 103.571 191.571 M 153.500 199.893 C 142.752 203.030, 135.053 207.693, 126.750 216.094 C 122.487 220.407, 119 224.640, 119 225.500 C 119 226.360, 122.487 230.594, 126.750 234.907 C 138.859 247.162, 152.442 253, 168.845 253 C 179.108 253, 185.727 251.593, 194.500 247.545 C 202.952 243.645, 210.583 237.734, 215.979 230.907 C 220.811 224.794, 220.710 224.471, 210.974 214.866 C 203.608 207.599, 193.839 202.133, 183.540 199.515 C 175.580 197.492, 161.106 197.674, 153.500 199.893 " stroke="none" fill="black" fill-rule="evenodd"/>
</svg>