<svg xmlns="http://www.w3.org/2000/svg" width="244" height="324" viewBox="0 0 244 324" version="1.1">
	<path d="M 167.750 127.073 C 165.423 128.438, 165.524 131.675, 167.934 132.965 C 169.005 133.538, 176.151 134, 183.934 134 L 198 134 198 194 L 198 254 183.934 254 C 169.308 254, 166 254.738, 166 258 C 166 261.750, 168.791 262.037, 202.601 261.764 C 232.469 261.523, 235.378 261.349, 236.386 259.750 C 237.190 258.475, 237.191 257.525, 236.387 256.250 C 235.433 254.736, 233.314 254.463, 220.643 254.223 L 206 253.947 206 194 L 206 134.053 220.643 133.777 C 233.314 133.537, 235.433 133.264, 236.387 131.750 C 237.191 130.475, 237.190 129.525, 236.386 128.250 C 235.377 126.649, 232.483 126.481, 202.391 126.273 C 181.280 126.127, 168.873 126.414, 167.750 127.073 M 7.571 159.571 C 6.207 160.936, 6 165.463, 6 194 C 6 222.537, 6.207 227.064, 7.571 228.429 C 9.545 230.402, 10.455 230.402, 12.429 228.429 C 13.712 227.145, 14 224.212, 14 212.429 L 14 198 42 198 L 70 198 70 212.429 C 70 224.212, 70.288 227.145, 71.571 228.429 C 72.436 229.293, 73.529 230, 74 230 C 74.471 230, 75.564 229.293, 76.429 228.429 C 77.712 227.145, 78 224.212, 78 212.429 L 78 198 106 198 L 134 198 134 212.965 C 134 226.737, 134.154 228.012, 135.934 228.965 C 138.436 230.304, 138.569 230.288, 140.429 228.429 C 141.793 227.064, 142 222.537, 142 194 C 142 165.463, 141.793 160.936, 140.429 159.571 C 138.569 157.712, 138.436 157.696, 135.934 159.035 C 134.154 159.988, 134 161.263, 134 175.035 L 134 190 106 190 L 78 190 78 175.571 C 78 163.788, 77.712 160.855, 76.429 159.571 C 74.455 157.598, 73.545 157.598, 71.571 159.571 C 70.288 160.855, 70 163.788, 70 175.571 L 70 190 42 190 L 14 190 14 175.571 C 14 163.788, 13.712 160.855, 12.429 159.571 C 11.564 158.707, 10.471 158, 10 158 C 9.529 158, 8.436 158.707, 7.571 159.571 " stroke="none" fill="black" fill-rule="evenodd"/>
</svg>