<svg xmlns="http://www.w3.org/2000/svg" width="308" height="324" viewBox="0 0 308 324" version="1.1">
	<path d="M 258.407 126.977 C 234.655 131.998, 222.456 159.559, 235.136 179.553 L 238.102 184.230 202.051 220.408 C 182.223 240.305, 166 257.338, 166 258.257 C 166 259.177, 166.961 260.444, 168.137 261.073 C 170.104 262.126, 173.167 259.339, 206.887 225.812 L 243.500 189.407 249.694 192.599 C 271.928 204.057, 297.968 189.156, 299.772 163.941 C 301.410 141.053, 280.445 122.318, 258.407 126.977 M 254 136.079 C 248.133 138.731, 243.447 143.297, 240.223 149.500 C 236.692 156.296, 236.561 166.422, 239.918 173 C 245.085 183.120, 252.470 188.053, 263.540 188.776 C 272.803 189.381, 279.252 186.738, 285.520 179.767 C 295.207 168.992, 295.318 154.323, 285.793 143.502 C 277.783 134.402, 264.545 131.311, 254 136.079 M 7.571 159.571 C 6.207 160.936, 6 165.463, 6 194 C 6 222.537, 6.207 227.064, 7.571 228.429 C 8.968 229.825, 16.343 229.998, 73.821 229.985 C 109.395 229.976, 139.081 229.601, 139.791 229.150 C 141.679 227.953, 141.679 160.047, 139.791 158.850 C 139.081 158.399, 109.395 158.024, 73.821 158.015 C 16.343 158.002, 8.968 158.175, 7.571 159.571 M 14 194 L 14 222 42 222 L 70 222 70 194 L 70 166 42 166 L 14 166 14 194 M 78 194 L 78 222 106 222 L 134 222 134 194 L 134 166 106 166 L 78 166 78 194 " stroke="none" fill="black" fill-rule="evenodd"/>
</svg>