<svg xmlns="http://www.w3.org/2000/svg" width="484" height="324" viewBox="0 0 484 324" version="1.1">
	<path d="M 327.244 159.256 L 294 192.511 294 226.056 C 294 250.812, 294.314 259.914, 295.200 260.800 C 296.614 262.214, 425.594 262.544, 427.809 261.140 C 428.844 260.483, 429.118 253.250, 429.122 226.443 L 429.126 192.576 395.848 159.288 C 377.545 140.980, 362.101 126, 361.529 126 C 360.957 126, 345.529 140.965, 327.244 159.256 M 331.681 165.171 L 302.032 195.500 302.016 208.750 L 302 222 362 222 L 422 222 422 208.744 L 422 195.488 391.665 165.165 L 361.329 134.842 331.681 165.171 M 7.571 191.571 C 6.707 192.436, 6 193.640, 6 194.249 C 6 194.857, 12.844 202.250, 21.208 210.677 L 36.416 226 21.208 241.323 C 12.844 249.750, 6 257.143, 6 257.751 C 6 259.181, 8.819 262, 10.249 262 C 10.857 262, 18.250 255.156, 26.677 246.792 L 42 231.584 57.323 246.792 C 65.750 255.156, 73.143 262, 73.751 262 C 75.181 262, 78 259.181, 78 257.751 C 78 257.143, 71.156 249.750, 62.792 241.323 L 47.584 226 62.792 210.677 C 71.156 202.250, 78 194.857, 78 194.249 C 78 192.819, 75.181 190, 73.751 190 C 73.143 190, 65.750 196.844, 57.323 205.208 L 42 220.416 26.677 205.208 C 18.250 196.844, 10.857 190, 10.249 190 C 9.640 190, 8.436 190.707, 7.571 191.571 M 103.571 191.571 C 102.707 192.436, 102 193.640, 102 194.249 C 102 194.857, 108.844 202.250, 117.208 210.677 L 132.416 226 117.208 241.323 C 108.844 249.750, 102 257.143, 102 257.751 C 102 259.181, 104.819 262, 106.249 262 C 106.857 262, 114.250 255.156, 122.677 246.792 L 138 231.584 153.323 246.792 C 161.750 255.156, 169.143 262, 169.751 262 C 171.181 262, 174 259.181, 174 257.751 C 174 257.143, 167.156 249.750, 158.792 241.323 L 143.584 226 158.792 210.677 C 167.156 202.250, 174 194.857, 174 194.249 C 174 192.819, 171.181 190, 169.751 190 C 169.143 190, 161.750 196.844, 153.323 205.208 L 138 220.416 122.677 205.208 C 114.250 196.844, 106.857 190, 106.249 190 C 105.640 190, 104.436 190.707, 103.571 191.571 M 199.571 191.571 C 198.707 192.436, 198 193.640, 198 194.249 C 198 194.857, 204.844 202.250, 213.208 210.677 L 228.416 226 213.208 241.323 C 204.844 249.750, 198 257.143, 198 257.751 C 198 259.181, 200.819 262, 202.249 262 C 202.857 262, 210.250 255.156, 218.677 246.792 L 234 231.584 249.323 246.792 C 257.750 255.156, 265.085 262, 265.623 262 C 267.262 262, 269 259.716, 269 257.562 C 269 256.272, 263.595 250.111, 254.263 240.762 L 239.525 226 254.263 211.238 C 263.595 201.889, 269 195.728, 269 194.438 C 269 192.284, 267.262 190, 265.623 190 C 265.085 190, 257.750 196.844, 249.323 205.208 L 234 220.416 218.677 205.208 C 210.250 196.844, 202.857 190, 202.249 190 C 201.640 190, 200.436 190.707, 199.571 191.571 M 455.315 223.213 C 445.792 232.680, 438 241.134, 438 242 C 438 243.680, 471.953 278, 473.615 278 C 475.105 278, 477 275.795, 477 274.062 C 477 273.216, 470.143 265.656, 461.762 257.262 L 446.524 242 461.762 226.738 C 470.143 218.344, 477 210.784, 477 209.938 C 477 208.205, 475.105 206, 473.615 206 C 473.073 206, 464.838 213.746, 455.315 223.213 M 302 242 L 302 254 362 254 L 422 254 422 242 L 422 230 362 230 L 302 230 302 242 " stroke="none" fill="black" fill-rule="evenodd"/>
</svg>