<svg xmlns="http://www.w3.org/2000/svg" width="500" height="324" viewBox="0 0 500 324" version="1.1">
	<path d="M 64.500 126.944 C 56.325 128.268, 50.930 129.991, 43 133.814 C 32.442 138.905, 18.925 152.405, 13.780 163 C 6.893 177.182, 6.744 178.323, 6.267 220.597 C 5.879 255.050, 5.996 258.853, 7.490 260.347 C 8.993 261.850, 15.020 262, 74 262 C 132.276 262, 139.020 261.837, 140.467 260.391 C 141.898 258.960, 142.032 255.110, 141.676 225.641 C 141.277 192.608, 140.498 183.136, 137.392 173.553 C 130.310 151.706, 111.985 134.161, 90.483 128.639 C 82.858 126.681, 70.933 125.903, 64.500 126.944 M 226.920 126.974 C 216.677 128.789, 206.492 136.722, 201.850 146.500 C 200.283 149.800, 199.001 153.251, 199.001 154.168 C 198.999 157.449, 197.761 159, 195.143 159.001 C 190.895 159.002, 180.849 164.405, 176.301 169.134 C 166.322 179.509, 163.574 194.920, 169.417 207.734 C 172.513 214.526, 179.138 221.505, 185.608 224.791 C 198.912 231.550, 215.191 228.924, 225.766 218.313 C 232.378 211.680, 235.195 205.341, 235.781 195.785 C 236.807 179.013, 227.173 164.720, 211.794 160.202 C 205.232 158.273, 204.805 157.219, 207.867 150.500 C 212.474 140.395, 220.404 134.930, 231.494 134.219 C 237.721 133.819, 239.555 134.108, 244.145 136.209 C 253.272 140.387, 259.381 148.201, 260.626 157.291 C 261.699 165.114, 255.837 187.405, 249.264 200.500 C 240.346 218.266, 222.218 238.622, 205.750 249.362 C 197.065 255.027, 195.892 256.492, 198.200 258.800 C 200.235 260.835, 202.321 260.180, 210.046 255.076 C 229.488 242.233, 244.983 224.890, 255.263 204.468 C 262.309 190.470, 268.007 170.700, 267.994 160.292 C 267.970 139.681, 247.753 123.281, 226.920 126.974 M 359.200 127.200 C 357.481 128.919, 357.481 195.081, 359.200 196.800 C 361.083 198.683, 490.324 198.519, 491.891 196.631 C 492.701 195.655, 492.951 185.580, 492.763 161.490 C 492.523 130.613, 492.350 127.623, 490.754 126.616 C 489.261 125.675, 486.727 127.793, 473.242 141.258 L 457.477 157.001 442 141.500 C 433.488 132.975, 426.063 126, 425.500 126 C 424.937 126, 417.512 132.975, 409 141.500 L 393.523 157.001 378 141.500 C 369.463 132.975, 362.010 126, 361.439 126 C 360.867 126, 359.860 126.540, 359.200 127.200 M 58.645 135.584 C 38.562 140.445, 20.305 158.877, 15.537 179.103 C 14.349 184.144, 14.026 192.762, 14.015 219.750 L 14 254 74 254 L 134 254 133.992 226.250 C 133.983 197.173, 133.029 183.850, 130.356 175.500 C 125.459 160.201, 114.011 146.930, 99.899 140.191 C 95.280 137.985, 89.115 135.690, 86.201 135.090 C 79.038 133.617, 65.791 133.854, 58.645 135.584 M 410 150.500 C 401.488 159.025, 394.075 166, 393.525 166 C 392.976 166, 386.333 159.819, 378.763 152.263 L 365 138.527 365 164.263 L 365 190 425.500 190 L 486 190 486 164.263 L 486 138.527 472.237 152.263 C 464.667 159.819, 458.035 166, 457.498 166 C 456.962 166, 449.537 159.025, 441 150.500 L 425.477 134.999 410 150.500 M 191.627 167.468 C 186.247 169.386, 181.039 173.829, 177.500 179.519 C 173.527 185.908, 172.712 197.311, 175.741 204.129 C 180.446 214.717, 188.286 220.123, 199.883 220.774 C 206.995 221.173, 207.931 220.978, 214 217.830 C 224.444 212.411, 229.773 202.629, 228.713 190.821 C 227.772 180.346, 220.582 170.975, 210.684 167.326 C 206.327 165.720, 196.323 165.794, 191.627 167.468 M 307.558 191.447 C 301.881 193.534, 298.891 196.065, 296.289 200.986 C 293.358 206.528, 293.265 211.536, 296.064 213.034 C 298.859 214.530, 300.666 212.916, 301.482 208.192 C 302.583 201.819, 307.085 198, 313.500 198 C 322.587 198, 327.934 207.687, 323.159 215.500 C 321.314 218.520, 319.026 219.973, 313.500 221.635 C 311.261 222.308, 310.420 223.227, 310.184 225.260 C 309.855 228.101, 309.794 228.055, 317.868 231.079 C 326.534 234.325, 327.270 247.223, 319.033 251.483 C 311.550 255.353, 303.073 251.411, 301.544 243.350 C 300.725 239.030, 298.768 237.519, 295.945 239.029 C 294.099 240.018, 293.845 240.808, 294.296 244.170 C 295.950 256.504, 310.355 264.106, 321.436 258.494 C 327.745 255.298, 331.298 250.034, 331.796 243.145 C 332.254 236.815, 330.760 232.629, 326.365 227.924 L 323.959 225.347 326.086 223.424 C 332.895 217.265, 333.969 205.240, 328.331 198.265 C 322.671 191.262, 314.951 188.728, 307.558 191.447 " stroke="none" fill="black" fill-rule="evenodd"/>
</svg>