<svg xmlns="http://www.w3.org/2000/svg" width="340" height="324" viewBox="0 0 340 324" version="1.1">
	<path d="M 67.270 127.025 C 53.386 129.860, 42.470 140.203, 39.515 153.322 C 38.385 158.341, 38.341 158.385, 33.322 159.515 C 15.665 163.492, 3.544 181.840, 6.993 199.372 C 9.972 214.511, 20.719 225.253, 35.562 227.927 C 62.114 232.712, 83.602 206.157, 73.934 180.507 C 70.872 172.385, 62.684 164.148, 54.705 161.163 C 51.526 159.973, 48.217 159, 47.351 159 C 45.178 159, 46.340 152.893, 49.573 147.324 C 58.245 132.386, 80.393 129.329, 92.453 141.406 C 102.399 151.365, 103.231 161.592, 95.929 184.139 C 87.541 210.040, 69.367 234.012, 47.134 248.500 C 39.181 253.683, 37.966 254.840, 38.214 257 C 38.705 261.289, 42.015 260.571, 51.742 254.065 C 78.650 236.066, 97.298 209.338, 105.626 176.833 C 108.864 164.194, 108.942 156.592, 105.916 148.505 C 100.403 133.771, 82.625 123.890, 67.270 127.025 M 199.200 127.200 C 197.481 128.919, 197.481 195.081, 199.200 196.800 C 200.606 198.206, 329.588 198.548, 331.790 197.151 C 332.802 196.509, 333.076 189.129, 333.062 162.916 C 333.052 144.537, 333.033 128.968, 333.022 128.317 C 333.010 127.667, 332.042 126.831, 330.870 126.459 C 329.090 125.894, 326.172 128.347, 313.095 141.405 L 297.450 157.028 282.046 141.514 C 273.574 132.981, 266.165 126, 265.582 126 C 265 126, 257.526 132.987, 248.974 141.526 L 233.426 157.051 218.089 141.526 C 209.654 132.987, 202.223 126, 201.576 126 C 200.929 126, 199.860 126.540, 199.200 127.200 M 250.046 150.486 C 241.574 159.019, 234.166 166, 233.584 166 C 233.003 166, 226.558 160.044, 219.263 152.764 L 206 139.528 206 164.764 L 206 190 266 190 L 326 190 325.994 164.250 L 325.988 138.500 312.576 151.973 C 305.200 159.383, 298.625 165.625, 297.966 165.845 C 297.307 166.064, 289.721 159.208, 281.109 150.608 L 265.450 134.972 250.046 150.486 M 31.054 167.728 C 25.018 169.859, 17.781 177.260, 15.667 183.463 C 11.995 194.241, 14.382 205.477, 21.952 213.048 C 32.761 223.857, 50.503 223.777, 61.125 212.872 C 78.475 195.060, 65.904 165.727, 41.072 166.079 C 38.007 166.122, 33.499 166.864, 31.054 167.728 M 148.764 190.996 C 143.184 192.676, 139.145 196.067, 136.571 201.234 C 135.157 204.071, 134 207.397, 134 208.625 C 134 210.848, 136.355 214, 138.015 214 C 139.484 214, 142 209.693, 142 207.177 C 142 205.807, 143.440 203.360, 145.400 201.400 C 148.302 198.498, 149.488 198, 153.500 198 C 157.512 198, 158.698 198.498, 161.600 201.400 C 164.502 204.302, 165 205.488, 165 209.500 C 165 213.512, 164.502 214.698, 161.600 217.600 C 159.526 219.674, 157.214 221, 155.671 221 C 152.930 221, 150 223.325, 150 225.500 C 150 227.640, 152.914 230, 155.556 230 C 156.883 230, 159.438 231.313, 161.234 232.918 C 164.194 235.563, 164.500 236.367, 164.500 241.500 C 164.500 246.633, 164.194 247.437, 161.234 250.082 C 154.621 255.991, 144.361 252.767, 142.012 244.043 C 140.819 239.615, 138.930 237.706, 136.618 238.593 C 131.507 240.554, 136.016 253.202, 143.324 257.403 C 151.745 262.244, 159.133 261.585, 166.001 255.380 C 173.973 248.178, 174.385 236.174, 166.924 228.438 L 163.972 225.375 166.581 222.938 C 170.541 219.237, 172.143 215.369, 172.143 209.500 C 172.143 203.227, 170.404 199.440, 165.578 195.203 C 160.492 190.737, 154.556 189.252, 148.764 190.996 " stroke="none" fill="black" fill-rule="evenodd"/>
</svg>