<svg xmlns="http://www.w3.org/2000/svg" width="403" height="324" viewBox="0 0 403 324" version="1.1">
	<path d="M 7.571 127.571 C 6.707 128.436, 6 129.665, 6 130.303 C 6 131.595, 133.442 259.542, 136.314 261.134 C 138.539 262.367, 141 260.645, 141 257.855 C 141 255.769, 12.339 125.922, 10.321 125.971 C 9.673 125.987, 8.436 126.707, 7.571 127.571 M 317.500 127.480 C 290.307 132.530, 269.132 153.064, 263.531 179.815 C 261.307 190.439, 261.484 195.654, 264.117 197.062 C 267.328 198.781, 268.564 196.672, 269.826 187.325 C 273.051 163.435, 286.629 145.983, 308.803 137.225 C 314.803 134.856, 316.853 134.576, 328.500 134.540 C 339.626 134.506, 342.484 134.840, 348.326 136.857 C 357.442 140.004, 368.960 147.864, 374.660 154.828 C 382.771 164.737, 388.929 180.812, 388.983 192.215 C 389.003 196.661, 391.614 198.734, 394.518 196.611 C 398.648 193.591, 393.799 171.015, 386.406 158.845 C 381.314 150.463, 374.784 143.669, 366.484 138.118 C 357.822 132.324, 350.348 129.308, 340 127.431 C 330.892 125.778, 326.617 125.787, 317.500 127.480 M 194.355 158.998 C 183.822 161.188, 174.117 169.138, 169.329 179.500 C 165.374 188.059, 165.386 198.895, 169.361 207.610 C 178.830 228.373, 204.381 234.913, 222.500 221.212 C 227.866 217.154, 233.383 208.986, 235.138 202.500 C 236.952 195.795, 235.742 184.321, 232.553 178 C 225.551 164.118, 209.097 155.933, 194.355 158.998 M 191.885 167.380 C 176.986 172.704, 169.526 190.094, 175.929 204.573 C 180.388 214.659, 188.281 220.062, 199.616 220.789 C 206.399 221.224, 207.556 221.001, 213.397 218.125 C 225.374 212.229, 231.511 198.958, 228.096 186.337 C 224.933 174.647, 213.616 165.959, 201.663 166.044 C 198.273 166.068, 193.873 166.669, 191.885 167.380 M 295.750 191.073 C 293.423 192.438, 293.524 195.675, 295.934 196.965 C 296.998 197.534, 303.523 198, 310.434 198 C 317.345 198, 323 198.223, 323 198.496 C 323 198.768, 316.365 212.269, 308.257 228.498 C 296.169 252.690, 293.712 258.320, 294.616 259.752 C 295.629 261.360, 298.432 261.500, 329.500 261.500 C 360.568 261.500, 363.371 261.360, 364.384 259.752 C 365.288 258.320, 362.831 252.690, 350.743 228.498 C 342.635 212.269, 336 198.781, 336 198.524 C 336 198.267, 342.139 197.931, 349.643 197.778 C 361.360 197.539, 363.441 197.253, 364.388 195.750 C 365.191 194.475, 365.190 193.525, 364.386 192.250 C 363.377 190.649, 360.483 190.481, 330.391 190.273 C 309.280 190.127, 296.873 190.414, 295.750 191.073 M 316.744 227.500 C 309.735 241.531, 304 253.233, 304 253.505 C 304 253.777, 315.475 254, 329.500 254 C 343.525 254, 354.976 253.662, 354.946 253.250 C 354.917 252.838, 349.176 241.135, 342.190 227.245 L 329.487 201.989 316.744 227.500 " stroke="none" fill="black" fill-rule="evenodd"/>
</svg>