<svg xmlns="http://www.w3.org/2000/svg" width="180" height="324" viewBox="0 0 180 324" version="1.1">
	<path d="M 33.384 159.412 C 15.475 163.758, 3.559 181.807, 6.987 199.396 C 8.500 207.161, 12.212 214.019, 17.580 218.967 C 38.277 238.045, 70.591 227.221, 76.013 199.396 C 79.488 181.565, 67.484 163.676, 49.147 159.360 C 42.397 157.772, 40.111 157.779, 33.384 159.412 M 103.571 159.571 C 102.707 160.436, 102 161.640, 102 162.249 C 102 162.857, 108.844 170.250, 117.208 178.677 L 132.416 194 117.208 209.323 C 108.844 217.750, 102 225.143, 102 225.751 C 102 227.200, 104.827 230, 106.290 230 C 107.969 230, 142 195.693, 142 194 C 142 192.307, 107.969 158, 106.290 158 C 105.659 158, 104.436 158.707, 103.571 159.571 M 135.571 159.571 C 134.707 160.436, 134 161.640, 134 162.249 C 134 162.857, 140.844 170.250, 149.208 178.677 L 164.416 194 149.208 209.323 C 140.844 217.750, 134 225.143, 134 225.751 C 134 227.200, 136.827 230, 138.290 230 C 139.969 230, 174 195.693, 174 194 C 174 192.307, 139.969 158, 138.290 158 C 137.659 158, 136.436 158.707, 135.571 159.571 M 31.054 167.728 C 25.018 169.859, 17.781 177.260, 15.667 183.463 C 11.995 194.241, 14.382 205.477, 21.952 213.048 C 32.741 223.836, 50.111 223.794, 60.952 212.952 C 78.571 195.333, 66.014 165.726, 41.072 166.079 C 38.007 166.122, 33.499 166.864, 31.054 167.728 " stroke="none" fill="black" fill-rule="evenodd"/>
</svg>