<svg xmlns="http://www.w3.org/2000/svg" width="403" height="324" viewBox="0 0 403 324" version="1.1">
	<path d="M 159.102 127.104 C 140.424 129.942, 121.778 142.577, 111.721 159.208 C 104.608 170.973, 99.799 192.656, 103.486 196.343 C 104.397 197.254, 105.535 198, 106.015 198 C 107.925 198, 110 193.308, 110 188.988 C 110 176.638, 116.422 162.611, 126.993 151.875 C 138.911 139.769, 152.528 134, 169.184 134 C 179.272 134, 187.110 135.856, 196.500 140.468 C 214.376 149.249, 227.205 168.443, 228.737 188.700 C 229.183 194.602, 229.681 196.294, 231.212 197.113 C 238.880 201.217, 236.963 178.153, 228.264 161.652 C 225.771 156.922, 221.777 151.762, 216.433 146.367 C 209.680 139.549, 206.828 137.488, 198.933 133.719 C 193.745 131.242, 187.475 128.743, 185 128.165 C 177.972 126.523, 166.123 126.038, 159.102 127.104 M 319.531 127.056 C 291.373 131.428, 268.733 152.985, 263.484 180.421 C 261.356 191.540, 261.513 195.669, 264.117 197.062 C 267.374 198.806, 268.575 196.650, 269.916 186.650 C 271.337 176.055, 273.757 169.222, 278.872 161.354 C 286.216 150.059, 296.439 141.883, 309 137.260 C 315.702 134.794, 317.830 134.500, 329 134.500 C 339.533 134.500, 342.574 134.871, 348.326 136.857 C 357.442 140.004, 368.960 147.864, 374.660 154.828 C 382.771 164.737, 388.929 180.812, 388.983 192.215 C 389.002 196.428, 391.359 198.498, 394.276 196.866 C 398.091 194.731, 395.123 176.088, 388.982 163.615 C 376.499 138.258, 347.089 122.777, 319.531 127.056 M 33.384 159.370 C 15.387 163.885, 3.561 181.817, 6.987 199.396 C 11.622 223.187, 35.789 235.119, 57.703 224.436 C 73.004 216.976, 80.269 197.314, 73.934 180.507 C 68.114 165.068, 49.449 155.339, 33.384 159.370 M 161.500 159.364 C 154.664 161.110, 150.523 163.430, 144.972 168.623 C 134.535 178.386, 131.410 194.560, 137.417 207.734 C 143.923 222.005, 159.915 230.781, 174.498 228.085 C 186.381 225.888, 194.508 220.086, 200.070 209.826 C 203.330 203.814, 203.499 203.004, 203.488 193.500 C 203.474 181.373, 201.423 176.286, 193.342 168.339 C 185.071 160.206, 172.296 156.605, 161.500 159.364 M 31.463 167.591 C 17.822 172.435, 10.648 188.393, 15.519 203.058 C 21.549 221.212, 46.463 227.109, 60.280 213.653 C 66.701 207.401, 68.500 202.989, 68.500 193.500 C 68.500 184.107, 66.733 179.694, 60.453 173.406 C 53.603 166.546, 41.336 164.086, 31.463 167.591 M 159.885 167.380 C 148.704 171.375, 141.875 181.280, 141.875 193.500 C 141.875 208.287, 152.102 219.596, 166.521 220.754 C 178.446 221.711, 188.036 216.794, 193.500 206.921 C 196.132 202.166, 196.500 200.518, 196.500 193.500 C 196.500 186.487, 196.130 184.829, 193.500 180.061 C 190.429 174.492, 184.651 169.526, 178.684 167.326 C 174.419 165.754, 164.355 165.782, 159.885 167.380 M 167.616 191.527 C 166.727 192.416, 166 193.529, 166 194 C 166 195.389, 169.140 198.120, 170.295 197.735 C 172.395 197.035, 173.549 194.094, 172.423 192.310 C 170.905 189.902, 169.474 189.669, 167.616 191.527 M 295.750 191.080 C 293.422 192.436, 293.524 195.675, 295.934 196.965 C 296.998 197.534, 303.523 198, 310.434 198 C 317.345 198, 323 198.223, 323 198.496 C 323 198.768, 316.365 212.269, 308.257 228.498 C 296.169 252.690, 293.712 258.320, 294.616 259.752 C 295.629 261.360, 298.432 261.500, 329.500 261.500 C 360.568 261.500, 363.371 261.360, 364.384 259.752 C 365.288 258.320, 362.831 252.690, 350.743 228.498 C 342.635 212.269, 336 198.768, 336 198.496 C 336 198.223, 341.655 198, 348.566 198 C 361.724 198, 365 197.203, 365 194 C 365 192.939, 364.130 191.605, 363.066 191.035 C 360.463 189.642, 298.147 189.684, 295.750 191.080 M 316.744 227.500 C 309.735 241.531, 304 253.233, 304 253.505 C 304 253.777, 315.475 254, 329.500 254 C 343.525 254, 354.976 253.662, 354.946 253.250 C 354.917 252.838, 349.176 241.135, 342.190 227.245 L 329.487 201.989 316.744 227.500 " stroke="none" fill="black" fill-rule="evenodd"/>
</svg>