<svg xmlns="http://www.w3.org/2000/svg" width="244" height="324" viewBox="0 0 244 324" version="1.1">
	<path d="M 23.750 63.080 C 22.186 63.991, 22 66.007, 22 82.015 C 22 98.703, 22.132 100, 23.934 100.965 C 25.043 101.558, 32.905 102, 42.363 102 C 56.024 102, 59.127 101.730, 60.429 100.429 C 62.757 98.100, 62.757 65.900, 60.429 63.571 C 59.123 62.266, 56.036 62.005, 42.179 62.030 C 32.720 62.048, 24.742 62.502, 23.750 63.080 M 30 82 L 30 94 42 94 L 54 94 54 82 L 54 70 42 70 L 30 70 30 82 M 7.571 127.571 C 6.707 128.436, 6 129.529, 6 130 C 6 130.471, 6.707 131.564, 7.571 132.429 C 8.855 133.712, 11.788 134, 23.571 134 L 38 134 38 162 L 38 190 23.571 190 C 11.788 190, 8.855 190.288, 7.571 191.571 C 5.598 193.545, 5.598 194.455, 7.571 196.429 C 8.855 197.712, 11.788 198, 23.571 198 L 38 198 38 226 L 38 254 23.571 254 C 11.788 254, 8.855 254.288, 7.571 255.571 C 5.598 257.545, 5.598 258.455, 7.571 260.429 C 8.936 261.793, 13.463 262, 42 262 C 70.537 262, 75.064 261.793, 76.429 260.429 C 78.402 258.455, 78.402 257.545, 76.429 255.571 C 75.145 254.288, 72.212 254, 60.429 254 L 46 254 46 226 L 46 198 60.429 198 C 72.212 198, 75.145 197.712, 76.429 196.429 C 78.402 194.455, 78.402 193.545, 76.429 191.571 C 75.145 190.288, 72.212 190, 60.429 190 L 46 190 46 162 L 46 134 60.429 134 C 72.212 134, 75.145 133.712, 76.429 132.429 C 77.293 131.564, 78 130.471, 78 130 C 78 129.529, 77.293 128.436, 76.429 127.571 C 75.064 126.207, 70.537 126, 42 126 C 13.463 126, 8.936 126.207, 7.571 127.571 M 157.500 127.497 C 140.754 130.648, 127.715 138.551, 116.779 152.178 C 106.828 164.577, 102.553 176.995, 102.553 193.500 C 102.553 210.005, 106.828 222.423, 116.779 234.822 C 135.047 257.584, 163.726 266.188, 190.863 257.046 C 206.468 251.789, 221.719 238.493, 228.866 223.913 C 234.294 212.839, 236.309 204.577, 236.282 193.500 C 236.201 160.149, 211.534 131.826, 178.398 127.037 C 169.701 125.780, 166.223 125.856, 157.500 127.497 M 154.645 135.584 C 134.654 140.423, 116.831 158.195, 111.520 178.584 C 109.582 186.024, 109.566 200.912, 111.487 208.289 C 116.877 228.981, 134.740 246.662, 155.103 251.463 C 163.333 253.403, 175.957 253.413, 183.540 251.485 C 191.973 249.341, 202.631 243.859, 208.617 238.585 C 218.339 230.021, 226.410 215.268, 228.495 202.250 L 229.176 198 198.788 198 C 176.486 198, 168.081 197.681, 167.200 196.800 C 166.319 195.919, 166 187.422, 166 164.800 L 166 134 163.250 134.083 C 161.738 134.129, 157.865 134.804, 154.645 135.584 M 174 161.886 L 174 190 201.614 190 L 229.227 190 228.537 185.250 C 226.675 172.436, 218.550 157.175, 209.215 148.958 C 200.946 141.679, 188.973 136.018, 178.538 134.453 L 174 133.773 174 161.886 " stroke="none" fill="black" fill-rule="evenodd"/>
</svg>