<svg xmlns="http://www.w3.org/2000/svg" width="692" height="324" viewBox="0 0 692 324" version="1.1">
	<path d="M 135.571 127.571 C 134.707 128.436, 134 129.529, 134 130 C 134 130.471, 134.707 131.564, 135.571 132.429 C 136.901 133.758, 140.397 134, 158.274 134 L 179.406 134 175.755 137.750 C 166.562 147.193, 163.695 163.333, 169.129 175.046 C 172.251 181.774, 177.068 187.441, 182.717 191.030 L 186.933 193.709 184.428 194.851 C 179.456 197.116, 172.300 204.941, 169.417 211.266 C 165.430 220.009, 165.355 230.909, 169.223 239.250 C 170.689 242.412, 171.658 245, 171.375 245 C 171.092 245, 168.935 243.675, 166.582 242.057 C 153.090 232.773, 142 212.874, 142 197.945 C 142 194.700, 141.443 192.806, 140.145 191.631 C 137.863 189.566, 135.181 190.432, 134.416 193.480 C 133.633 196.598, 136.331 211.291, 138.961 218.236 C 143.347 229.817, 153.903 242.457, 165.626 250.166 L 171.457 254 90.300 254 C 17.854 254, 8.974 254.169, 7.571 255.571 C 5.598 257.545, 5.598 258.455, 7.571 260.429 C 8.984 261.841, 22.161 261.998, 137.821 261.985 C 208.595 261.976, 267.072 261.606, 267.772 261.162 C 268.780 260.522, 269.044 246.603, 269.044 194 C 269.044 141.397, 268.780 127.478, 267.772 126.838 C 267.072 126.394, 237.395 126.024, 201.821 126.015 C 144.343 126.002, 136.968 126.175, 135.571 127.571 M 482.355 126.998 C 470.286 129.507, 459.439 139.452, 455.837 151.310 C 453.876 157.768, 453.771 159.211, 454.773 165.986 C 457.339 183.326, 465.457 203.812, 476.019 219.593 C 483.438 230.680, 500.399 247.376, 511.859 254.876 C 517.007 258.244, 521.602 261, 522.070 261 C 522.539 261, 523.727 260.170, 524.711 259.156 C 525.695 258.141, 529.425 255.351, 533 252.956 C 541.910 246.986, 557.469 231.680, 564.366 222.100 C 578.431 202.567, 589.260 172.501, 587.695 157.336 C 585.232 133.471, 558.923 119.391, 537.283 130.356 C 532.796 132.630, 524.993 139.917, 522.125 144.511 C 521.406 145.663, 520.684 146.038, 520.410 145.403 C 518.969 142.071, 513.226 135.563, 509.407 132.936 C 501.585 127.554, 490.930 125.215, 482.355 126.998 M 631.239 143.260 C 621.758 152.754, 614 161.288, 614 162.225 C 614 163.163, 614.959 164.443, 616.131 165.070 C 618.073 166.110, 619.495 164.981, 632.131 152.369 L 646 138.527 646 199.228 C 646 259.533, 646.013 259.937, 648.064 261.034 C 653.059 263.708, 653 264.453, 653 199.174 L 653 138.592 666.913 152.378 C 679.463 164.813, 681.030 166.054, 682.913 165.047 C 684.061 164.432, 685 163.153, 685 162.204 C 685 160.410, 651.239 126, 649.479 126 C 648.929 126, 640.721 133.767, 631.239 143.260 M 191.627 135.468 C 186.247 137.386, 181.039 141.829, 177.500 147.519 C 173.527 153.908, 172.712 165.311, 175.741 172.129 C 179.420 180.408, 186.903 186.846, 194.750 188.481 L 198 189.159 198 161.579 C 198 140.159, 197.721 134.010, 196.750 134.044 C 196.063 134.068, 193.757 134.709, 191.627 135.468 M 206 161.500 L 206 189.135 208.250 188.434 C 220.738 184.544, 227.862 175.664, 228.779 162.844 C 229.225 156.617, 228.974 155.390, 226.042 149.434 C 222.136 141.500, 217.160 137.342, 208.250 134.566 L 206 133.865 206 161.500 M 227.417 138.174 C 233.331 145.084, 235.434 150.454, 235.840 159.690 C 236.276 169.595, 234.593 175.397, 229.246 182.423 C 227.186 185.130, 223.472 188.725, 220.993 190.411 L 216.487 193.476 220.966 196.488 C 226.562 200.251, 232.495 208.009, 234.596 214.310 C 237.092 221.794, 236.245 234.154, 232.777 240.835 L 230.053 246.081 233.218 244.291 C 238.825 241.117, 249.562 229.703, 253.340 222.899 C 260.443 210.108, 261.249 204.774, 261.753 167.250 L 262.200 134 243.022 134 L 223.844 134 227.417 138.174 M 478.363 135.922 C 468.214 140.531, 461.657 150.503, 461.805 161.104 C 461.892 167.347, 464.835 179.859, 468.518 189.645 C 477.013 212.212, 494.072 233.954, 513.931 247.523 L 520.956 252.323 527.996 247.642 C 551.425 232.062, 570.951 204.205, 577.862 176.500 C 581.076 163.615, 581.371 159.790, 579.618 153.759 C 573.964 134.309, 548.712 127.391, 534.161 141.307 C 529.750 145.524, 526.265 152.523, 525.426 158.845 C 524.603 165.047, 522.982 166.768, 519.470 165.168 C 517.687 164.356, 517 163.253, 517 161.203 C 517 151.481, 509.866 140.739, 500.500 136.358 C 494.116 133.372, 484.400 133.181, 478.363 135.922 M 295.200 159.200 C 293.481 160.919, 293.481 227.081, 295.200 228.800 C 296.597 230.197, 361.606 230.537, 363.777 229.159 C 364.773 228.527, 365.055 220.782, 365.055 194 C 365.055 167.218, 364.773 159.473, 363.777 158.841 C 361.606 157.463, 296.597 157.803, 295.200 159.200 M 301 194 L 301 222 329.500 222 L 358 222 358 194 L 358 166 329.500 166 L 301 166 301 194 M 423.232 191.250 C 421.350 193.573, 390 256.975, 390 258.459 C 390 260.786, 393.809 262.404, 395.663 260.865 C 396.507 260.164, 403.622 246.749, 411.474 231.052 L 425.750 202.514 440.313 231.626 C 448.486 247.965, 455.617 261.023, 456.565 261.386 C 458.617 262.174, 461 260.381, 461 258.049 C 461 255.996, 430.511 194.246, 428.265 191.750 C 426.410 189.689, 424.639 189.513, 423.232 191.250 M 191.627 199.468 C 186.247 201.386, 181.039 205.829, 177.500 211.519 C 173.527 217.908, 172.712 229.311, 175.741 236.129 C 179.420 244.408, 186.903 250.846, 194.750 252.481 L 198 253.159 198 225.579 C 198 204.159, 197.721 198.010, 196.750 198.044 C 196.063 198.068, 193.757 198.709, 191.627 199.468 M 206 225.500 L 206 253.135 208.250 252.434 C 220.738 248.544, 227.862 239.664, 228.779 226.844 C 229.225 220.617, 228.974 219.390, 226.042 213.434 C 222.136 205.500, 217.160 201.342, 208.250 198.566 L 206 197.865 206 225.500 M 258.999 227.750 C 255.674 234.073, 242.853 246.952, 236 250.851 L 230.500 253.981 246.250 253.991 L 262 254 262 238.500 C 262 229.975, 261.887 223, 261.748 223 C 261.610 223, 260.373 225.137, 258.999 227.750 " stroke="none" fill="black" fill-rule="evenodd"/>
</svg>