<svg xmlns="http://www.w3.org/2000/svg" width="196" height="324" viewBox="0 0 196 324" version="1.1">
	<path d="M 103.537 63.605 C 102.508 64.635, 102.172 65.980, 102.600 67.355 C 103.771 71.118, 118.889 100.814, 119.975 101.484 C 122.685 103.159, 124.956 100.142, 132.760 84.501 C 137.292 75.417, 141 67.143, 141 66.115 C 141 63.642, 138.675 61.804, 136.569 62.612 C 135.643 62.967, 131.930 69.156, 128.318 76.364 L 121.750 89.470 115.252 76.485 C 107.676 61.347, 106.780 60.362, 103.537 63.605 M 55.571 127.571 C 54.175 128.968, 54 136.413, 54 194.449 C 54 248.320, 54.238 259.953, 55.361 260.885 C 56.349 261.705, 74.615 261.944, 122.002 261.757 C 182.924 261.517, 187.356 261.383, 188.386 259.750 C 189.191 258.474, 189.191 257.526, 188.386 256.250 C 187.365 254.630, 183.808 254.481, 140.641 254.240 L 94 253.980 94 239.562 C 94 227.787, 93.712 224.855, 92.429 223.571 C 91.145 222.288, 88.212 222, 76.429 222 L 62 222 62 175.571 C 62 134.697, 61.812 128.955, 60.429 127.571 C 59.564 126.707, 58.471 126, 58 126 C 57.529 126, 56.436 126.707, 55.571 127.571 M 7.571 159.571 C 6.707 160.436, 6 161.640, 6 162.249 C 6 162.857, 12.844 170.250, 21.208 178.677 L 36.416 194 21.208 209.323 C 12.844 217.750, 6 225.143, 6 225.751 C 6 227.200, 8.827 230, 10.290 230 C 11.969 230, 46 195.693, 46 194 C 46 192.307, 11.969 158, 10.290 158 C 9.659 158, 8.436 158.707, 7.571 159.571 M 62 242 L 62 254 74 254 L 86 254 86 242 L 86 230 74 230 L 62 230 62 242 " stroke="none" fill="black" fill-rule="evenodd"/>
</svg>