<svg xmlns="http://www.w3.org/2000/svg" width="468" height="324" viewBox="0 0 468 324" version="1.1">
	<path d="M 7.571 127.571 C 6.707 128.436, 6 129.648, 6 130.266 C 6 130.883, 14.929 140.414, 25.842 151.444 L 45.685 171.500 42.142 178.301 C 38.915 184.498, 38.600 185.841, 38.600 193.424 C 38.600 200.764, 38.977 202.511, 41.800 208.245 C 45.618 216.001, 51.965 222.176, 59.825 225.784 C 64.467 227.915, 66.992 228.390, 73.699 228.394 C 81.147 228.399, 82.521 228.076, 88.699 224.857 L 95.500 221.315 116.054 241.657 C 127.359 252.846, 137.115 262, 137.733 262 C 139.186 262, 142 259.186, 142 257.733 C 142 257.115, 132.846 247.359, 121.657 236.054 L 101.315 215.500 104.857 208.699 C 108.076 202.521, 108.399 201.147, 108.394 193.699 C 108.390 186.992, 107.915 184.467, 105.784 179.825 C 102.176 171.965, 96.001 165.618, 88.245 161.800 C 82.511 158.977, 80.764 158.600, 73.424 158.600 C 65.841 158.600, 64.498 158.915, 58.301 162.142 L 51.500 165.685 31.444 145.842 C 20.414 134.929, 10.883 126, 10.266 126 C 9.648 126, 8.436 126.707, 7.571 127.571 M 359.244 159.256 L 326 192.511 326 226.056 C 326 250.812, 326.314 259.914, 327.200 260.800 C 328.109 261.709, 344.311 262, 394 262 C 443.689 262, 459.891 261.709, 460.800 260.800 C 461.686 259.914, 462 250.810, 462 226.044 L 462 192.489 428.744 159.244 C 410.454 140.960, 394.814 126, 393.989 126 C 393.164 126, 377.529 140.965, 359.244 159.256 M 363.744 165.756 L 334 195.512 334 224.756 L 334 254 394 254 L 454 254 454 224.744 L 454 195.487 424.244 165.744 C 407.878 149.385, 394.263 136, 393.988 136 C 393.713 136, 380.103 149.390, 363.744 165.756 M 64.500 167.326 C 62.850 167.972, 60.427 169.111, 59.116 169.857 C 56.765 171.195, 56.997 171.478, 76.110 190.610 C 95.485 210.004, 95.487 210.006, 97.182 207.759 C 101.495 202.041, 102.122 189.153, 98.459 181.500 C 95.741 175.819, 88.834 169.472, 83.329 167.597 C 77.921 165.754, 68.851 165.623, 64.500 167.326 M 49.816 179.174 C 47.042 183.439, 45.773 189.104, 46.195 195.349 C 47.162 209.654, 57.349 219.839, 71.659 220.805 C 78.031 221.236, 86.835 219.108, 88.881 216.643 C 89.653 215.714, 85.011 210.497, 70.623 196.122 C 51.457 176.976, 51.319 176.864, 49.816 179.174 M 199.571 223.571 C 198.707 224.436, 198 225.636, 198 226.239 C 198 226.841, 203.941 233.334, 211.202 240.667 L 224.405 254 196.774 254 C 172.988 254, 168.924 254.219, 167.571 255.571 C 165.598 257.545, 165.598 258.455, 167.571 260.429 C 168.968 261.825, 176.372 262, 234 262 C 291.628 262, 299.032 261.825, 300.429 260.429 C 302.402 258.455, 302.402 257.545, 300.429 255.571 C 299.076 254.219, 295.012 254, 271.226 254 L 243.595 254 256.798 240.667 C 264.059 233.334, 270 226.841, 270 226.239 C 270 224.817, 267.176 222, 265.751 222 C 265.143 222, 257.750 228.844, 249.323 237.208 L 234 252.416 218.677 237.208 C 210.250 228.844, 202.857 222, 202.249 222 C 201.640 222, 200.436 222.707, 199.571 223.571 " stroke="none" fill="black" fill-rule="evenodd"/>
</svg>