<svg xmlns="http://www.w3.org/2000/svg" width="308" height="324" viewBox="0 0 308 324" version="1.1">
	<path d="M 55.571 63.571 C 54.707 64.436, 54 65.317, 54 65.531 C 54 66.316, 71.159 100.529, 71.965 101.349 C 74.275 103.702, 76.913 100.229, 84.760 84.501 C 89.292 75.417, 93 67.143, 93 66.115 C 93 63.770, 90.710 61.790, 88.832 62.511 C 88.050 62.811, 84.520 68.894, 80.986 76.028 C 77.453 83.163, 74.308 89, 73.997 89 C 73.687 89, 70.748 83.534, 67.467 76.853 C 59.925 61.499, 58.847 60.296, 55.571 63.571 M 7.571 127.571 C 6.175 128.968, 6 136.372, 6 194 C 6 251.628, 6.175 259.032, 7.571 260.429 C 8.436 261.293, 9.529 262, 10 262 C 10.471 262, 11.564 261.293, 12.429 260.429 C 13.825 259.032, 14 251.628, 14 194 C 14 136.372, 13.825 128.968, 12.429 127.571 C 11.564 126.707, 10.471 126, 10 126 C 9.529 126, 8.436 126.707, 7.571 127.571 M 135.750 127.080 C 134.111 128.035, 134 132.293, 134 194.015 C 134 259.587, 134.011 259.935, 136.064 261.034 C 141.084 263.721, 141 264.854, 141 194.078 C 141 123.068, 141.071 123.981, 135.750 127.080 M 71.571 159.571 C 70.288 160.855, 70 163.788, 70 175.571 L 70 190 55.571 190 C 43.788 190, 40.855 190.288, 39.571 191.571 C 37.598 193.545, 37.598 194.455, 39.571 196.429 C 40.855 197.712, 43.788 198, 55.571 198 L 70 198 70 212.429 C 70 224.212, 70.288 227.145, 71.571 228.429 C 73.678 230.535, 74.598 230.412, 76.443 227.777 C 77.669 226.028, 78 222.631, 78 211.804 L 78 198.053 92.643 197.777 C 105.314 197.537, 107.433 197.264, 108.387 195.750 C 109.191 194.475, 109.191 193.525, 108.387 192.250 C 107.433 190.736, 105.314 190.463, 92.643 190.223 L 78 189.947 78 176.196 C 78 165.369, 77.669 161.972, 76.443 160.223 C 74.598 157.588, 73.678 157.465, 71.571 159.571 M 231.750 159.080 C 230.186 159.991, 230 162.007, 230 178.015 C 230 195.091, 230.097 195.981, 232.064 197.034 C 236.445 199.379, 237 197.247, 237 178.078 C 237 158.416, 236.430 156.354, 231.750 159.080 M 167.750 191.080 C 165.547 192.363, 165.494 196.574, 167.553 206.792 C 172.589 231.781, 192.053 252.200, 217 258.664 C 227.235 261.316, 242.537 260.880, 252.521 257.651 C 278.869 249.131, 297.642 225.987, 299.707 199.478 C 300.163 193.631, 299.968 192.218, 298.543 191.036 C 295.438 188.459, 293.682 190.925, 292.443 199.601 C 291.032 209.474, 289.691 213.700, 285.261 222.238 C 278.989 234.327, 266.130 245.307, 252.723 250.024 C 244.163 253.035, 227.795 253.832, 219.283 251.651 C 209.288 249.090, 200.356 244.146, 192.606 236.882 C 181.497 226.470, 176.069 215.837, 173.902 200.244 C 172.550 190.511, 171.475 188.910, 167.750 191.080 M 228 207.175 C 219.349 209.633, 213.384 218.239, 214.230 227.041 C 215.682 242.148, 233.632 249.912, 244.998 240.348 C 256.701 230.501, 252.747 211.079, 238.219 207.044 C 233.853 205.831, 232.675 205.847, 228 207.175 M 226.881 215.503 C 224.218 216.951, 221 222.420, 221 225.500 C 221 228.610, 223.997 233.567, 226.920 235.294 C 234.725 239.904, 245 234.338, 245 225.500 C 245 216.806, 234.820 211.189, 226.881 215.503 " stroke="none" fill="black" fill-rule="evenodd"/>
</svg>