<svg xmlns="http://www.w3.org/2000/svg" width="276" height="324" viewBox="0 0 276 324" version="1.1">
	<path d="M 119.571 63.571 C 118.707 64.436, 118 65.332, 118 65.564 C 118 67.123, 135.710 101.058, 136.727 101.449 C 137.427 101.717, 138.573 101.717, 139.273 101.449 C 141.129 100.736, 158.063 66.328, 157.403 64.609 C 156.732 62.858, 154.483 61.877, 152.705 62.560 C 151.993 62.833, 148.520 68.894, 144.986 76.028 C 141.453 83.163, 138.308 89, 137.997 89 C 137.687 89, 134.748 83.534, 131.467 76.853 C 123.925 61.499, 122.847 60.296, 119.571 63.571 M 87.315 175.213 C 77.792 184.680, 70 193.134, 70 194 C 70 195.761, 103.994 230, 105.743 230 C 107.175 230, 110 227.187, 110 225.761 C 110 225.159, 104.059 218.666, 96.798 211.333 L 83.595 198 143.226 198 C 196.103 198, 203.035 197.822, 204.429 196.429 C 206.402 194.455, 206.402 193.545, 204.429 191.571 C 203.035 190.178, 196.103 190, 143.226 190 L 83.595 190 96.798 176.667 C 104.059 169.334, 110 162.841, 110 162.239 C 110 160.813, 107.175 158, 105.743 158 C 105.131 158, 96.838 165.746, 87.315 175.213 M 159.500 239.106 C 152.616 240.481, 140.998 246.375, 136.959 250.543 L 133.608 254 71.375 254 C 16.134 254, 8.966 254.177, 7.571 255.571 C 6.707 256.436, 6 257.529, 6 258 C 6 258.471, 6.707 259.564, 7.571 260.429 C 8.968 261.825, 16.343 261.998, 73.821 261.985 C 110.013 261.976, 139.121 261.576, 139.910 261.077 C 140.686 260.586, 141.392 259.130, 141.479 257.842 C 141.594 256.155, 143.158 254.580, 147.069 252.213 C 155.150 247.323, 161.823 245.687, 171.597 246.200 C 178.634 246.570, 181.006 247.193, 187.401 250.354 C 192.537 252.892, 196.072 255.472, 198.537 258.479 C 211.397 274.174, 237.797 278.181, 256.790 267.322 C 263.414 263.534, 268 259.092, 268 256.464 C 268 252.434, 264.557 252.410, 259.681 256.406 C 257.304 258.353, 252.692 261.195, 249.430 262.723 C 244.127 265.206, 242.389 265.500, 233 265.500 C 223.341 265.500, 221.978 265.253, 215.986 262.413 C 211.698 260.381, 207.596 257.357, 203.986 253.566 C 200.968 250.398, 196.664 246.727, 194.420 245.408 C 184.664 239.672, 169.958 237.018, 159.500 239.106 " stroke="none" fill="black" fill-rule="evenodd"/>
</svg>