<svg xmlns="http://www.w3.org/2000/svg" width="244" height="324" viewBox="0 0 244 324" version="1.1">
	<path d="M 194.355 126.986 C 172.853 131.520, 160.274 155.905, 169.329 175.500 C 172.298 181.925, 178.624 189.175, 183.488 191.729 C 186.304 193.207, 186.364 193.361, 184.533 194.399 C 179.291 197.369, 172.085 205.413, 169.411 211.278 C 165.384 220.111, 165.352 230.894, 169.329 239.500 C 174.300 250.257, 183.699 257.737, 195.279 260.151 C 201.996 261.551, 202.409 261.535, 209.301 259.615 C 217.313 257.383, 220.562 255.534, 225.945 250.146 C 232.478 243.606, 235.252 237.365, 235.795 227.986 C 236.568 214.631, 231.433 203.736, 220.990 196.574 L 216.480 193.481 220.990 190.413 C 227.025 186.309, 232.686 178.707, 234.640 172.085 C 236.870 164.527, 236.122 152.961, 232.982 146.429 C 226.293 132.517, 209.118 123.872, 194.355 126.986 M 191.627 135.468 C 186.247 137.386, 181.039 141.829, 177.500 147.519 C 173.527 153.908, 172.712 165.311, 175.741 172.129 C 179.420 180.408, 186.903 186.846, 194.750 188.481 L 198 189.159 198 161.579 C 198 140.159, 197.721 134.010, 196.750 134.044 C 196.063 134.068, 193.757 134.709, 191.627 135.468 M 205 161.500 L 205 189.217 207.750 188.543 C 219.731 185.608, 228.989 173.820, 228.989 161.500 C 228.989 149.180, 219.731 137.392, 207.750 134.457 L 205 133.783 205 161.500 M 7.571 159.571 C 6.207 160.936, 6 165.463, 6 194 C 6 222.537, 6.207 227.064, 7.571 228.429 C 8.968 229.825, 16.372 230, 74 230 C 131.628 230, 139.032 229.825, 140.429 228.429 C 141.793 227.064, 142 222.537, 142 194 C 142 165.463, 141.793 160.936, 140.429 159.571 C 139.032 158.175, 131.628 158, 74 158 C 16.372 158, 8.968 158.175, 7.571 159.571 M 14 194 L 14 222 74 222 L 134 222 134 194 L 134 166 74 166 L 14 166 14 194 M 191.627 199.468 C 186.247 201.386, 181.039 205.829, 177.500 211.519 C 173.527 217.908, 172.712 229.311, 175.741 236.129 C 179.420 244.408, 186.903 250.846, 194.750 252.481 L 198 253.159 198 225.579 C 198 204.159, 197.721 198.010, 196.750 198.044 C 196.063 198.068, 193.757 198.709, 191.627 199.468 M 205 225.500 L 205 253.217 207.750 252.543 C 219.731 249.608, 228.989 237.820, 228.989 225.500 C 228.989 213.180, 219.731 201.392, 207.750 198.457 L 205 197.783 205 225.500 " stroke="none" fill="black" fill-rule="evenodd"/>
</svg>