<svg xmlns="http://www.w3.org/2000/svg" width="340" height="324" viewBox="0 0 340 324" version="1.1">
	<path d="M 199.222 127.178 C 198.312 128.088, 198 136.267, 198 159.200 L 198 190 103.571 190 C 19.061 190, 8.978 190.165, 7.571 191.571 C 5.598 193.545, 5.598 194.455, 7.571 196.429 C 8.954 197.811, 14.606 198, 54.575 198 L 100.006 198 85.020 227.961 C 76.777 244.439, 70.285 258.580, 70.594 259.384 C 71.265 261.133, 73.512 262.125, 75.274 261.448 C 75.975 261.180, 83.056 247.919, 91.010 231.980 C 98.964 216.041, 105.717 203, 106.016 203 C 106.315 203, 113.071 216.093, 121.030 232.095 C 128.988 248.098, 135.842 261.402, 136.259 261.660 C 138.839 263.255, 141.516 259.019, 154.996 232.009 C 162.958 216.054, 169.704 203.001, 169.986 203.002 C 170.269 203.004, 176.855 215.983, 184.622 231.846 C 193.052 249.062, 199.452 260.959, 200.499 261.361 C 202.670 262.194, 205 260.388, 205 257.871 C 205 256.835, 198.473 242.940, 190.497 226.993 L 175.993 198 189.425 198 C 200.303 198, 203.156 197.701, 204.429 196.429 C 205.788 195.069, 206 190.760, 206 164.455 L 206 134.053 220.643 133.777 C 233.314 133.537, 235.433 133.264, 236.387 131.750 C 237.191 130.475, 237.190 129.525, 236.387 128.250 C 235.417 126.711, 233.187 126.467, 217.864 126.228 C 205.160 126.029, 200.113 126.287, 199.222 127.178 M 263.750 127.073 C 261.423 128.438, 261.524 131.675, 263.934 132.965 C 265.005 133.538, 272.151 134, 279.934 134 L 294 134 294 194 L 294 254 279.934 254 C 265.308 254, 262 254.738, 262 258 C 262 261.750, 264.791 262.037, 298.601 261.764 C 328.469 261.523, 331.378 261.349, 332.386 259.750 C 333.190 258.475, 333.191 257.525, 332.387 256.250 C 331.430 254.730, 329.291 254.464, 316.142 254.224 L 301 253.948 301 194 L 301 134.052 316.142 133.776 C 329.291 133.536, 331.430 133.270, 332.387 131.750 C 333.191 130.475, 333.190 129.525, 332.386 128.250 C 331.377 126.649, 328.483 126.481, 298.391 126.273 C 277.280 126.127, 264.873 126.414, 263.750 127.073 M 124.743 223.500 C 131.750 237.525, 137.715 249, 138 249 C 138.285 249, 144.250 237.525, 151.257 223.500 L 163.995 198 138 198 L 112.005 198 124.743 223.500 " stroke="none" fill="black" fill-rule="evenodd"/>
</svg>