<svg xmlns="http://www.w3.org/2000/svg" width="244" height="324" viewBox="0 0 244 324" version="1.1">
	<path d="M 167.200 127.200 C 165.465 128.935, 165.465 259.065, 167.200 260.800 C 168.595 262.195, 233.604 262.538, 235.772 261.162 C 236.780 260.522, 237.044 246.603, 237.044 194 C 237.044 141.397, 236.780 127.478, 235.772 126.838 C 233.604 125.462, 168.595 125.805, 167.200 127.200 M 174 194 L 174 254 202 254 L 230 254 230 194 L 230 134 202 134 L 174 134 174 194 M 66.344 158.991 C 53.839 161.616, 42.607 172.445, 39.440 184.929 L 38.281 189.500 23.460 189.778 C 14.609 189.944, 8.107 190.497, 7.319 191.150 C 5.491 192.668, 5.377 258.977, 7.200 260.800 C 8.109 261.709, 24.229 262, 73.629 262 C 131.594 262, 139.032 261.825, 140.429 260.429 C 141.793 259.064, 142 254.537, 142 226 C 142 197.463, 141.793 192.936, 140.429 191.571 C 139.136 190.279, 136.121 190, 123.429 190 C 108.765 190, 108 189.903, 108 188.038 C 108 183.853, 103.688 174.870, 99.381 170.079 C 91.344 161.140, 77.786 156.590, 66.344 158.991 M 63.385 167.617 C 55.428 170.439, 48.611 178.342, 46.450 187.250 L 45.783 190 73.411 190 L 101.038 190 100.392 187.250 C 98.374 178.665, 91.032 170.404, 82.684 167.326 C 78.298 165.709, 68.343 165.859, 63.385 167.617 M 14 226 L 14 254 74 254 L 134 254 134 226 L 134 198 74 198 L 14 198 14 226 " stroke="none" fill="black" fill-rule="evenodd"/>
</svg>