<svg xmlns="http://www.w3.org/2000/svg" width="403" height="324" viewBox="0 0 403 324" version="1.1">
	<path d="M 39.571 127.571 C 38.176 128.966, 38 136.152, 38 191.571 L 38 254 23.571 254 C 11.788 254, 8.855 254.288, 7.571 255.571 C 5.595 257.548, 5.598 258.455, 7.585 260.442 C 8.978 261.835, 13.159 261.995, 42.226 261.763 C 72.452 261.523, 75.377 261.350, 76.386 259.750 C 77.190 258.475, 77.191 257.525, 76.387 256.250 C 75.433 254.736, 73.314 254.463, 60.643 254.223 L 46 253.947 46 191.545 C 46 136.149, 45.824 128.966, 44.429 127.571 C 43.564 126.707, 42.471 126, 42 126 C 41.529 126, 40.436 126.707, 39.571 127.571 M 159.500 127.042 C 133.959 130.927, 112.671 149.609, 104.854 175 C 101.627 185.481, 101.639 201.336, 104.882 212 C 113.696 240.984, 139.328 260.326, 169 260.383 C 180.981 260.406, 187.098 258.957, 198.933 253.292 C 206.815 249.520, 209.691 247.440, 216.433 240.633 C 229.821 227.116, 236 212.233, 236 193.500 C 236 174.782, 229.805 159.843, 216.500 146.473 C 201.166 131.065, 180.151 123.901, 159.500 127.042 M 154.072 135.591 C 143.666 138.388, 135.974 142.984, 127.479 151.479 C 115.117 163.841, 110 176.143, 110 193.500 C 110 208.513, 114.670 221.585, 123.737 231.950 C 128.404 237.284, 137.448 245, 139.034 245 C 139.505 245, 138.689 242.412, 137.223 239.250 C 135.040 234.544, 134.554 232.048, 134.546 225.500 C 134.536 218.625, 134.970 216.576, 137.630 210.932 C 148.105 188.702, 176.631 183.496, 193.766 200.687 C 201.448 208.393, 203.475 213.567, 203.488 225.500 C 203.497 234.543, 203.229 236.012, 200.684 240.845 L 197.870 246.190 200.977 244.354 C 211.316 238.247, 221.945 224.515, 226.060 211.950 C 229.537 201.334, 229.537 185.666, 226.060 175.050 C 223.087 165.970, 215.695 154.653, 208.701 148.474 C 202.665 143.141, 189.832 136.660, 182.201 135.090 C 174.879 133.584, 160.591 133.838, 154.072 135.591 M 359.403 159.125 C 349.831 168.640, 342 177.214, 342 178.177 C 342 179.141, 342.923 180.424, 344.051 181.027 C 345.859 181.995, 347.019 181.232, 353.844 174.590 L 361.587 167.055 373.027 178.527 L 384.467 190 325.168 190 C 286.204 190, 265.205 190.355, 263.934 191.035 C 262.870 191.605, 262 192.939, 262 194 C 262 196.591, 264.931 198, 270.319 198 L 274.770 198 271.344 201.740 C 269.460 203.797, 266.714 207.960, 265.243 210.990 C 262.948 215.715, 262.567 217.782, 262.567 225.500 C 262.567 233.275, 262.941 235.270, 265.314 240.161 C 275.112 260.353, 300.189 266.719, 318.113 253.565 C 320.651 251.702, 324.026 248.130, 325.613 245.626 C 327.201 243.122, 328.725 241.066, 329 241.058 C 329.275 241.051, 330.850 243.079, 332.500 245.567 C 336.131 251.041, 340.180 254.277, 347.710 257.725 C 362.019 264.276, 381.088 258.641, 389.965 245.238 C 398.874 231.789, 397.514 213.107, 386.801 201.750 L 383.264 198 388.932 198 C 394.668 198, 397 196.862, 397 194.062 C 397 193.216, 390.146 185.659, 381.769 177.268 L 366.537 162.013 373.769 154.733 C 381.362 147.089, 382.360 144.798, 378.903 142.948 C 377 141.930, 375.191 143.430, 359.403 159.125 M 159.603 199.477 C 151.528 202.354, 151.594 203.079, 160.764 212.249 L 168.985 220.470 177.503 211.997 C 186.013 203.531, 186.018 203.522, 183.818 201.863 C 178.670 197.980, 167.024 196.832, 159.603 199.477 M 285.053 200.555 L 279.605 203.091 288.303 211.788 L 297 220.486 305.697 211.788 L 314.395 203.091 308.947 200.555 C 304.875 198.660, 301.859 198.020, 297 198.020 C 292.141 198.020, 289.125 198.660, 285.053 200.555 M 323.977 203.090 C 326.190 205.889, 328 208.589, 328 209.090 C 328 210.903, 329.606 209.937, 331.268 207.123 C 332.203 205.541, 334.281 202.841, 335.885 201.123 L 338.802 198 329.378 198 L 319.953 198 323.977 203.090 M 349.053 200.555 L 343.605 203.091 352.303 211.788 L 361 220.486 369.697 211.788 L 378.395 203.091 372.947 200.555 C 368.875 198.660, 365.859 198.020, 361 198.020 C 356.141 198.020, 353.125 198.660, 349.053 200.555 M 144.061 214.081 C 141.413 220.235, 141.139 230.005, 143.459 235.556 C 146.527 242.899, 146.559 242.895, 155.671 233.830 L 164.001 225.543 155.773 217.271 C 151.247 212.722, 147.252 209, 146.895 209 C 146.538 209, 145.263 211.286, 144.061 214.081 M 182.727 216.772 C 178.477 221.047, 175 224.995, 175 225.546 C 175 226.667, 190.144 242, 191.252 242 C 191.641 242, 192.973 240.088, 194.212 237.750 C 196.008 234.363, 196.465 231.875, 196.465 225.500 C 196.465 219.125, 196.008 216.637, 194.212 213.250 C 192.973 210.912, 191.620 209, 191.206 209 C 190.792 209, 186.976 212.497, 182.727 216.772 M 271.921 214.170 C 268.660 221.136, 268.671 230.583, 271.948 237 C 273.212 239.475, 274.429 241.701, 274.654 241.947 C 274.878 242.193, 278.873 238.603, 283.531 233.969 L 292.001 225.543 283.773 217.271 C 279.247 212.722, 275.274 209, 274.943 209 C 274.612 209, 273.252 211.327, 271.921 214.170 M 310.227 217.271 L 301.999 225.543 310.555 234.021 C 318.793 242.185, 319.166 242.426, 320.599 240.500 C 323.217 236.983, 325.281 228.020, 324.667 222.834 C 324.059 217.705, 320.672 209, 319.284 209 C 318.829 209, 314.753 212.722, 310.227 217.271 M 335.893 213.722 C 332.154 221.445, 332.955 234.393, 337.547 240.462 C 338.968 242.342, 339.391 242.067, 347.516 233.984 L 356.001 225.543 347.773 217.271 C 343.247 212.722, 339.237 209, 338.861 209 C 338.486 209, 337.150 211.125, 335.893 213.722 M 374.227 217.271 L 365.999 225.543 374.484 233.984 C 382.626 242.084, 383.030 242.346, 384.477 240.462 C 387.186 236.939, 389.282 228.030, 388.653 222.718 C 388.082 217.896, 384.506 209, 383.139 209 C 382.763 209, 378.753 212.722, 374.227 217.271 M 160.477 239.059 L 152.500 247.118 154.830 249.034 C 161.199 254.272, 175.801 254.342, 183.819 249.174 L 186.137 247.680 177.841 239.340 C 173.278 234.753, 169.299 231, 168.999 231 C 168.699 231, 164.864 234.627, 160.477 239.059 M 288.041 239.459 L 279.625 247.918 285.063 250.449 C 289.125 252.340, 292.144 252.980, 297 252.980 C 301.856 252.980, 304.875 252.340, 308.937 250.449 L 314.375 247.918 305.959 239.459 C 301.331 234.807, 297.299 231, 297 231 C 296.701 231, 292.669 234.807, 288.041 239.459 M 352.041 239.459 L 343.625 247.918 349.063 250.449 C 353.125 252.340, 356.144 252.980, 361 252.980 C 365.856 252.980, 368.875 252.340, 372.937 250.449 L 378.375 247.918 369.959 239.459 C 365.331 234.807, 361.299 231, 361 231 C 360.701 231, 356.669 234.807, 352.041 239.459 " stroke="none" fill="black" fill-rule="evenodd"/>
</svg>