<svg xmlns="http://www.w3.org/2000/svg" width="372" height="324" viewBox="0 0 372 324" version="1.1">
	<path d="M 99.045 127.092 C 88.744 129.112, 78.837 136.518, 74.151 145.705 C 73.055 147.852, 71.656 152.384, 71.041 155.777 C 70.051 161.233, 70.205 163.189, 72.369 172.722 C 78.169 198.270, 88.443 217.771, 105.788 236.158 C 112.427 243.195, 128.391 255.853, 135.077 259.381 L 138.642 261.262 150.770 252.092 C 179.709 230.213, 196.461 203.927, 203.417 169.483 C 204.690 163.183, 204.816 160.292, 204.004 155.983 C 199.594 132.555, 176.327 120.242, 154.616 129.845 C 149.222 132.232, 143.372 137.363, 140.005 142.662 L 137.360 146.824 135.503 143.377 C 133.181 139.064, 126.418 132.764, 121.318 130.162 C 119.183 129.073, 114.781 127.691, 111.535 127.091 C 104.969 125.877, 105.243 125.877, 99.045 127.092 M 95.054 135.728 C 88.760 137.950, 81.727 145.295, 79.514 151.957 C 76.225 161.860, 79.778 179.403, 88.991 198.743 C 95.436 212.272, 102.633 222.524, 113.005 232.951 C 120.278 240.262, 135.372 252, 137.500 252 C 137.870 252, 141.617 249.637, 145.826 246.750 C 155.651 240.009, 169.037 226.611, 175.815 216.732 C 186.428 201.263, 195.249 178.930, 196.635 164.020 C 198.570 143.192, 179.675 128.780, 159.463 135.667 C 150.088 138.862, 142 149.949, 142 159.607 C 142 162.970, 139.867 166, 137.500 166 C 135.133 166, 133 162.970, 133 159.607 C 133 149.949, 124.912 138.862, 115.537 135.667 C 109.516 133.616, 100.964 133.641, 95.054 135.728 M 231.571 159.571 C 230.207 160.936, 230 165.463, 230 194 C 230 222.537, 230.207 227.064, 231.571 228.429 C 232.968 229.825, 240.372 230, 298 230 C 355.628 230, 363.032 229.825, 364.429 228.429 C 365.793 227.064, 366 222.537, 366 194 C 366 165.463, 365.793 160.936, 364.429 159.571 C 363.032 158.175, 355.628 158, 298 158 C 240.372 158, 232.968 158.175, 231.571 159.571 M 238 194 L 238 222 298 222 L 358 222 358 194 L 358 166 298 166 L 238 166 238 194 M 40.370 190.765 C 38.401 192.045, 6.007 257.855, 6.594 259.384 C 7.265 261.133, 9.512 262.124, 11.274 261.448 C 11.975 261.180, 19.056 247.919, 27.010 231.980 C 34.964 216.041, 41.710 203, 42 203 C 42.290 203, 49.036 216.041, 56.990 231.980 C 64.944 247.919, 72.025 261.180, 72.726 261.448 C 74.488 262.124, 76.735 261.133, 77.406 259.384 C 77.993 257.855, 45.599 192.045, 43.630 190.765 C 43.009 190.361, 42.275 190.031, 42 190.031 C 41.725 190.031, 40.991 190.361, 40.370 190.765 " stroke="none" fill="black" fill-rule="evenodd"/>
</svg>