<svg xmlns="http://www.w3.org/2000/svg" width="436" height="324" viewBox="0 0 436 324" version="1.1">
	<path d="M 23.213 111.315 L 6 128.630 6 193.743 C 6 251.604, 6.175 259.032, 7.571 260.429 C 8.984 261.841, 22.190 262, 138 262 C 253.810 262, 267.016 261.841, 268.429 260.429 C 269.825 259.032, 270 251.605, 270 193.745 L 270 128.633 253.289 111.817 C 244.098 102.568, 235.714 94.727, 234.658 94.392 C 233.150 93.913, 229.021 97.496, 215.369 111.130 L 198 128.479 198 156.467 L 198 184.455 168.711 155.227 C 152.602 139.152, 138.767 126, 137.967 126 C 137.167 126, 123.347 139.160, 107.256 155.244 L 78 184.487 78 156.525 L 78 128.563 60.718 111.282 C 51.213 101.777, 42.759 94, 41.931 94 C 41.103 94, 32.680 101.792, 23.213 111.315 M 27.737 117.763 L 14 131.526 14 192.763 L 14 254 138 254 L 262 254 262 192.737 L 262 131.473 248 117.500 L 234 103.527 220 117.500 L 206 131.473 206 163.165 C 206 190.643, 205.791 195.066, 204.429 196.429 C 203.564 197.293, 202.329 198, 201.684 198 C 201.039 198, 186.450 183.944, 169.264 166.764 L 138.015 135.527 106.721 166.764 C 89.509 183.944, 74.746 198, 73.913 198 C 70.179 198, 70 196.419, 70 163.537 L 70 131.473 56.237 117.737 C 48.667 110.181, 42.249 104, 41.974 104 C 41.698 104, 35.292 110.193, 27.737 117.763 M 295.200 127.200 C 293.481 128.919, 293.481 195.081, 295.200 196.800 C 296.607 198.207, 425.589 198.548, 427.791 197.150 C 428.805 196.507, 429.082 188.958, 429.082 162 C 429.082 127.130, 428.976 126.068, 425.488 126.015 C 424.931 126.007, 417.522 132.964, 409.023 141.477 L 393.571 156.953 378.430 141.477 C 370.102 132.964, 362.667 126, 361.906 126 C 361.146 126, 353.662 132.850, 345.277 141.223 L 330.030 156.446 314.692 141.223 C 306.257 132.850, 298.690 126, 297.877 126 C 297.065 126, 295.860 126.540, 295.200 127.200 M 346.989 150.511 C 339.021 158.493, 331.657 165.291, 330.623 165.620 C 329.178 166.078, 325.651 163.130, 315.372 152.872 L 302 139.528 302 164.764 L 302 190 362 190 L 422 190 421.994 164.250 L 421.988 138.500 408.557 152 C 401.170 159.425, 394.535 165.622, 393.813 165.771 C 393.091 165.920, 385.756 159.282, 377.513 151.021 C 369.269 142.759, 362.289 136, 362 136 C 361.711 136, 354.956 142.530, 346.989 150.511 " stroke="none" fill="black" fill-rule="evenodd"/>
</svg>