<svg xmlns="http://www.w3.org/2000/svg" width="500" height="324" viewBox="0 0 500 324" version="1.1">
	<path d="M 39.571 127.571 C 38.176 128.966, 38 136.152, 38 191.571 L 38 254 23.571 254 C 11.788 254, 8.855 254.288, 7.571 255.571 C 5.598 257.545, 5.598 258.455, 7.571 260.429 C 8.936 261.793, 13.463 262, 42 262 C 70.537 262, 75.064 261.793, 76.429 260.429 C 77.293 259.564, 78 258.471, 78 258 C 78 257.529, 77.293 256.436, 76.429 255.571 C 75.145 254.288, 72.212 254, 60.429 254 L 46 254 46 191.571 C 46 136.152, 45.824 128.966, 44.429 127.571 C 43.564 126.707, 42.471 126, 42 126 C 41.529 126, 40.436 126.707, 39.571 127.571 M 157.500 127.480 C 143.124 130.150, 132.006 136.094, 121.488 146.735 C 110.801 157.546, 103.989 172.187, 102.469 187.614 C 101.891 193.479, 102.055 194.912, 103.460 196.317 C 107.035 199.892, 110 196.864, 110 189.639 C 110 171.252, 123.730 150.008, 141.613 140.727 C 147.963 137.431, 161.597 133.263, 162.634 134.301 C 162.853 134.520, 149.262 162.555, 132.430 196.600 C 109.806 242.360, 102.073 258.891, 102.772 260 C 103.594 261.303, 112.163 261.536, 168.109 261.776 C 203.524 261.928, 233.463 261.819, 234.640 261.535 C 235.817 261.250, 237.046 260.322, 237.373 259.471 C 237.725 258.553, 225.373 232.742, 206.956 195.912 L 175.946 133.899 179.723 134.584 C 185.236 135.582, 195.086 139.274, 200.120 142.228 C 215.800 151.430, 227.334 170.161, 228.737 188.700 C 229.183 194.602, 229.681 196.294, 231.212 197.113 C 238.954 201.257, 237.057 178.416, 228.270 161.695 C 218.727 143.534, 199.303 130.060, 178.284 127.020 C 169.726 125.783, 166.223 125.861, 157.500 127.480 M 263.200 127.200 C 261.465 128.935, 261.465 259.065, 263.200 260.800 C 264.084 261.684, 273.004 262, 297.118 262 C 315.113 262, 330.548 261.727, 331.418 261.393 C 332.839 260.848, 333 253.978, 333 194 C 333 134.022, 332.839 127.152, 331.418 126.607 C 330.548 126.273, 315.113 126, 297.118 126 C 273.004 126, 264.084 126.316, 263.200 127.200 M 269 194 L 269 254 297.500 254 L 326 254 326 194 L 326 134 297.500 134 L 269 134 269 194 M 140.747 196.500 L 112.002 254 169.501 254 C 201.126 254, 227 253.773, 227 253.497 C 227 252.838, 170.074 139, 169.744 139 C 169.605 139, 156.557 164.875, 140.747 196.500 M 359.750 255.076 C 357.417 256.440, 357.526 259.676, 359.948 260.972 C 361.256 261.672, 383.132 261.930, 426.589 261.757 C 486.951 261.517, 491.356 261.383, 492.386 259.750 C 493.191 258.474, 493.191 257.526, 492.386 256.250 C 491.356 254.616, 486.963 254.485, 426.391 254.276 C 383.547 254.129, 360.905 254.400, 359.750 255.076 " stroke="none" fill="black" fill-rule="evenodd"/>
</svg>