<svg xmlns="http://www.w3.org/2000/svg" width="436" height="324" viewBox="0 0 436 324" version="1.1">
	<path d="M 33.384 127.412 C 20.085 130.639, 10.019 141.137, 7.123 154.799 C 5.447 162.706, 5.639 225.832, 7.360 233.147 C 13.465 259.084, 44.606 269.302, 64.413 251.868 C 69.946 246.997, 73.270 241.587, 75.697 233.500 C 77.281 228.222, 77.491 223.469, 77.448 194 C 77.416 171.783, 77.001 158.878, 76.218 155.685 C 72.488 140.486, 63.078 130.639, 49.147 127.360 C 42.397 125.772, 40.111 125.779, 33.384 127.412 M 103.750 127.080 C 102.111 128.035, 102 132.293, 102 194.015 C 102 258.159, 102.052 259.957, 103.934 260.965 C 105.210 261.648, 127.818 262, 170.363 262 C 227.661 262, 235.032 261.825, 236.429 260.429 C 237.788 259.069, 238 254.758, 238 228.429 L 238 198 263.202 198 L 288.405 198 275.202 211.333 C 267.941 218.666, 262 225.159, 262 225.761 C 262 227.200, 264.997 230.172, 266.068 229.795 C 267.353 229.342, 302 194.827, 302 194 C 302 193.173, 267.353 158.658, 266.068 158.205 C 264.997 157.828, 262 160.800, 262 162.239 C 262 162.841, 267.941 169.334, 275.202 176.667 L 288.405 190 263.202 190 L 238 190 238 159.571 C 238 133.242, 237.788 128.931, 236.429 127.571 C 235.032 126.175, 227.670 126.003, 170.179 126.030 C 128.111 126.050, 104.888 126.417, 103.750 127.080 M 295.571 127.571 C 294.707 128.436, 294 129.665, 294 130.303 C 294 131.595, 421.442 259.542, 424.314 261.134 C 426.450 262.317, 429 260.680, 429 258.125 C 429 256.613, 299.319 126, 297.819 126 C 297.447 126, 296.436 126.707, 295.571 127.571 M 31.054 135.728 C 25.018 137.859, 17.781 145.260, 15.667 151.463 C 11.995 162.241, 14.382 173.477, 21.952 181.048 C 32.402 191.497, 49.888 191.773, 60.280 181.653 C 65.822 176.256, 68.291 170.953, 68.805 163.341 C 69.388 154.717, 67.028 148.189, 61.146 142.150 C 53.627 134.431, 41.848 131.917, 31.054 135.728 M 110 147.500 C 110 154.925, 110.149 161, 110.332 161 C 110.514 161, 112.081 158.812, 113.814 156.138 C 117.411 150.586, 129.486 138.835, 133.981 136.510 C 135.642 135.651, 137 134.735, 137 134.474 C 137 134.213, 130.925 134, 123.500 134 L 110 134 110 147.500 M 153.500 135.870 C 133.544 141.614, 116.683 158.761, 111.528 178.552 C 109.547 186.159, 109.575 200.562, 111.585 208.356 C 116.889 228.914, 134.828 246.683, 155.103 251.463 C 175.613 256.297, 196.787 250.350, 211.409 235.649 C 219.223 227.793, 224.857 217.945, 227.491 207.540 C 229.423 199.909, 229.423 187.091, 227.491 179.460 C 222.119 158.236, 204.383 140.366, 183.897 135.537 C 175.386 133.531, 161.080 133.688, 153.500 135.870 M 206.595 137.828 C 213.614 142.379, 222.907 152.166, 227.023 159.342 L 229.981 164.500 229.991 149.250 L 230 134 215.345 134 L 200.690 134 206.595 137.828 M 161.384 159.357 C 150.730 162.056, 142 169.453, 137.163 179.880 C 133.441 187.904, 133.452 199.118, 137.189 207.175 C 144.145 222.173, 160.486 231.176, 175.135 228.082 C 197.666 223.323, 209.892 201.619, 201.934 180.507 C 196.097 165.023, 177.437 155.290, 161.384 159.357 M 159.463 167.591 C 153.971 169.541, 148.552 174.205, 145.249 179.824 C 142.800 183.989, 142.500 185.483, 142.500 193.500 C 142.500 201.517, 142.800 203.011, 145.249 207.176 C 153.926 221.937, 173.604 225.610, 187.031 214.976 C 192.751 210.445, 197 201.292, 197 193.500 C 197 182.038, 189.486 171.200, 178.965 167.488 C 173.740 165.644, 164.813 165.692, 159.463 167.591 M 66.500 186.010 C 62.241 190.508, 56.461 193.667, 48.975 195.587 C 38.214 198.348, 26.772 195.306, 17.955 187.340 L 14 183.767 14 207.205 C 14 234.744, 14.626 237.721, 21.952 245.048 C 32.741 255.836, 50.111 255.794, 60.952 244.952 C 68.381 237.524, 69.198 234.227, 69.739 209.500 C 69.991 197.950, 70.041 187.227, 69.849 185.671 L 69.500 182.842 66.500 186.010 M 167.571 191.571 C 166.707 192.436, 166 193.529, 166 194 C 166 194.471, 166.707 195.564, 167.571 196.429 C 168.436 197.293, 169.529 198, 170 198 C 170.471 198, 171.564 197.293, 172.429 196.429 C 173.293 195.564, 174 194.471, 174 194 C 174 193.529, 173.293 192.436, 172.429 191.571 C 171.564 190.707, 170.471 190, 170 190 C 169.529 190, 168.436 190.707, 167.571 191.571 M 227.102 227.509 C 223.624 234.071, 213.831 244.331, 206.357 249.242 L 199.877 253.500 214.578 253.778 C 222.663 253.930, 229.453 253.881, 229.666 253.667 C 229.879 253.454, 229.929 246.463, 229.777 238.132 L 229.500 222.984 227.102 227.509 M 110 240 L 110 254 124.727 254 L 139.454 254 133.977 250.426 C 127.019 245.885, 117.769 236.880, 113.765 230.750 C 112.059 228.137, 110.514 226, 110.332 226 C 110.149 226, 110 232.300, 110 240 " stroke="none" fill="black" fill-rule="evenodd"/>
</svg>