<svg xmlns="http://www.w3.org/2000/svg" width="388" height="324" viewBox="0 0 388 324" version="1.1">
	<path d="M 7.571 127.571 C 6.175 128.968, 6 136.372, 6 194 C 6 251.628, 6.175 259.032, 7.571 260.429 C 8.968 261.825, 16.372 262, 74 262 C 131.628 262, 139.032 261.825, 140.429 260.429 C 141.825 259.032, 142 251.628, 142 194 C 142 136.372, 141.825 128.968, 140.429 127.571 C 139.032 126.175, 131.628 126, 74 126 C 16.372 126, 8.968 126.175, 7.571 127.571 M 221.500 127.497 C 204.754 130.648, 191.715 138.551, 180.779 152.178 C 170.828 164.577, 166.553 176.995, 166.553 193.500 C 166.553 210.065, 170.823 222.417, 180.882 234.950 C 194.314 251.688, 212.338 260.392, 233.500 260.362 C 252.124 260.335, 266.954 254.086, 280.584 240.521 C 293.867 227.301, 300 212.448, 300 193.500 C 300 181.435, 298.345 174.289, 293.041 163.450 C 283.603 144.165, 264.156 130.182, 242.398 127.037 C 233.701 125.780, 230.223 125.856, 221.500 127.497 M 14 194 L 14 254 74 254 L 134 254 134 194 L 134 134 74 134 L 14 134 14 194 M 218.645 135.584 C 208.770 137.974, 199.304 143.582, 191 151.959 C 179.149 163.915, 174 176.498, 174 193.500 C 174 208.993, 178.938 222.170, 188.846 233.119 C 193.462 238.220, 201.753 245, 203.375 245 C 203.658 245, 202.689 242.412, 201.223 239.250 C 199.040 234.544, 198.554 232.048, 198.546 225.500 C 198.536 218.620, 198.969 216.578, 201.639 210.911 C 205.480 202.760, 210.509 197.620, 218.205 193.981 C 229.024 188.864, 241.202 189.414, 251.569 195.488 C 266.757 204.387, 272.759 225.446, 264.593 241.186 L 262.053 246.081 265.218 244.291 C 270.825 241.117, 281.562 229.703, 285.340 222.899 C 301.924 193.032, 290.070 154.595, 259.820 140.153 C 255.244 137.968, 249.115 135.690, 246.201 135.090 C 239.038 133.617, 225.791 133.854, 218.645 135.584 M 343.750 159.080 C 342.186 159.991, 342 162.007, 342 178.015 C 342 195.091, 342.097 195.981, 344.064 197.034 C 348.445 199.379, 349 197.247, 349 178.078 C 349 158.416, 348.430 156.354, 343.750 159.080 M 223.502 199.604 C 216.122 202.305, 216.185 202.733, 225.278 211.779 L 233.543 220.001 241.959 211.541 L 250.375 203.082 244.937 200.551 C 238.630 197.614, 229.982 197.233, 223.502 199.604 M 340.764 206.996 C 331.596 209.756, 326.512 216.357, 326.512 225.500 C 326.512 232.911, 329.302 237.942, 335.337 241.411 C 343.587 246.153, 350.975 245.595, 357.662 239.724 C 362.087 235.838, 364 231.545, 364 225.500 C 364 219.460, 362.088 215.162, 357.676 211.289 C 352.495 206.740, 346.591 205.241, 340.764 206.996 M 210.192 210.269 C 205.752 215.619, 204.575 229.264, 207.918 236.627 C 208.948 238.896, 210.209 241.011, 210.718 241.326 C 211.228 241.641, 215.325 238.199, 219.823 233.678 L 228.001 225.457 219.671 217.170 C 212.884 210.419, 211.128 209.140, 210.192 210.269 M 247.227 217.271 L 238.999 225.543 247.409 233.909 L 255.819 242.276 258.142 237.888 C 261.428 231.683, 261.463 219.381, 258.212 213.250 C 256.973 210.912, 255.846 209, 255.708 209 C 255.569 209, 251.753 212.722, 247.227 217.271 M 337.997 216.750 C 329.833 224.148, 334.502 237, 345.354 237 C 350.185 237, 353.374 235.112, 355.506 230.989 C 358.251 225.680, 356.628 218.954, 351.783 215.561 C 348.097 212.979, 341.534 213.545, 337.997 216.750 M 225.170 239.329 C 216.017 248.530, 216.002 248.678, 223.962 251.487 C 230.557 253.813, 238.561 253.418, 244.937 250.449 L 250.375 247.918 241.959 239.459 C 237.331 234.807, 233.524 231, 233.500 231 C 233.476 231, 229.727 234.748, 225.170 239.329 " stroke="none" fill="black" fill-rule="evenodd"/>
</svg>