<svg xmlns="http://www.w3.org/2000/svg" width="228" height="324" viewBox="0 0 228 324" version="1.1">
	<path d="M 63.870 127.014 C 48.636 129.407, 37.616 135.194, 25.974 146.916 C 12.475 160.507, 6.696 174.473, 6.696 193.500 C 6.696 205.257, 8.549 213.240, 13.778 224 C 18.922 234.587, 32.441 248.092, 43 253.193 C 54.006 258.510, 61.840 260.347, 73.500 260.347 C 92.757 260.347, 106.531 254.547, 120.539 240.539 C 134.551 226.527, 140.304 212.834, 140.304 193.500 C 140.304 174.166, 134.551 160.473, 120.539 146.461 C 110.721 136.644, 102.174 131.566, 90.500 128.618 C 82.592 126.621, 70.868 125.914, 63.870 127.014 M 58.645 135.584 C 38.761 140.397, 20.825 158.334, 15.585 178.644 C 13.593 186.367, 13.571 199.556, 15.537 207.897 C 17.897 217.907, 23.454 227.541, 31.459 235.500 C 35.332 239.350, 39.936 243.298, 41.692 244.272 L 44.884 246.045 42.522 241.772 C 33.471 225.405, 40.012 203.806, 56.767 194.738 C 73.800 185.519, 95.082 191.806, 104.262 208.767 C 109.824 219.043, 109.944 230.847, 104.593 241.416 L 102.306 245.932 105.370 244.216 C 111.289 240.900, 122.397 228.756, 126.243 221.397 C 135.318 204.030, 135.327 183.058, 126.268 165.603 C 118.909 151.423, 103.255 139.158, 87.897 135.537 C 79.998 133.676, 66.439 133.697, 58.645 135.584 M 183.571 159.571 C 181.243 161.900, 181.243 194.100, 183.571 196.429 C 184.436 197.293, 185.529 198, 186 198 C 186.471 198, 187.564 197.293, 188.429 196.429 C 189.733 195.124, 190 191.991, 190 178 C 190 164.009, 189.733 160.876, 188.429 159.571 C 187.564 158.707, 186.471 158, 186 158 C 185.529 158, 184.436 158.707, 183.571 159.571 M 63.605 199.568 C 56.049 202.337, 56.073 202.527, 65.170 211.671 L 73.457 220.001 81.692 211.809 C 90.838 202.711, 90.906 202.178, 83.260 199.573 C 77.620 197.651, 68.842 197.649, 63.605 199.568 M 179.637 207.420 C 166.585 212.225, 162.317 227.457, 171.191 237.564 C 178.670 246.083, 189.381 246.995, 197.564 239.809 C 206.083 232.330, 206.995 221.619, 199.809 213.436 C 194.252 207.106, 186.648 204.838, 179.637 207.420 M 50.184 210.278 C 46.139 215.152, 44.867 227.319, 47.573 235.260 C 50.178 242.906, 50.711 242.838, 59.809 233.692 L 68.001 225.457 59.671 217.170 C 52.854 210.389, 51.131 209.137, 50.184 210.278 M 87.191 217.308 L 78.999 225.543 87.329 233.830 C 96.530 242.983, 96.678 242.998, 99.487 235.038 C 101.439 229.503, 101.415 221.574, 99.427 215.740 C 96.822 208.094, 96.289 208.162, 87.191 217.308 M 177.400 217.400 C 174.498 220.302, 174 221.488, 174 225.500 C 174 229.512, 174.498 230.698, 177.400 233.600 C 180.302 236.502, 181.488 237, 185.500 237 C 189.512 237, 190.698 236.502, 193.600 233.600 C 196.502 230.698, 197 229.512, 197 225.500 C 197 221.488, 196.502 220.302, 193.600 217.400 C 190.698 214.498, 189.512 214, 185.500 214 C 181.488 214, 180.302 214.498, 177.400 217.400 M 65.170 239.329 C 56.017 248.530, 56.002 248.678, 63.962 251.487 C 69.497 253.439, 77.426 253.415, 83.260 251.427 C 90.906 248.822, 90.838 248.289, 81.692 239.191 L 73.457 230.999 65.170 239.329 " stroke="none" fill="black" fill-rule="evenodd"/>
</svg>