<svg xmlns="http://www.w3.org/2000/svg" width="372" height="324" viewBox="0 0 372 324" version="1.1">
	<path d="M 55.571 63.571 C 54.707 64.436, 54 65.332, 54 65.564 C 54 67.123, 71.710 101.058, 72.727 101.449 C 73.427 101.717, 74.573 101.717, 75.273 101.449 C 77.129 100.736, 94.063 66.328, 93.403 64.609 C 92.732 62.858, 90.483 61.877, 88.705 62.560 C 87.993 62.833, 84.520 68.894, 80.986 76.028 C 77.453 83.163, 74.308 89, 73.997 89 C 73.687 89, 70.748 83.534, 67.467 76.853 C 59.925 61.499, 58.847 60.296, 55.571 63.571 M 35.045 127.092 C 24.744 129.112, 14.837 136.518, 10.151 145.705 C 7.578 150.747, 5.616 161.395, 6.828 163.738 C 7.329 164.707, 8.525 169.100, 9.484 173.500 C 15.002 198.806, 28.176 222.394, 46.651 240.044 C 55.999 248.975, 71.173 260, 74.117 260 C 77.343 260, 97.892 244.006, 106.315 234.940 C 123.254 216.706, 134.286 194.893, 139.417 169.483 C 140.690 163.183, 140.816 160.292, 140.004 155.983 C 135.594 132.555, 112.327 120.242, 90.616 129.845 C 85.222 132.232, 79.372 137.363, 76.005 142.662 L 73.360 146.824 71.503 143.377 C 69.181 139.064, 62.418 132.764, 57.318 130.162 C 55.183 129.073, 50.781 127.691, 47.535 127.091 C 40.969 125.877, 41.243 125.877, 35.045 127.092 M 31.054 135.728 C 24.820 137.929, 17.726 145.300, 15.557 151.828 C 14.045 156.381, 13.979 157.954, 15.032 164.270 C 20.746 198.525, 39.651 228.764, 67.165 247.660 L 73.830 252.237 81.654 246.869 C 91.636 240.019, 104.997 226.670, 111.815 216.732 C 122.428 201.263, 131.249 178.930, 132.635 164.020 C 134.570 143.192, 115.675 128.780, 95.463 135.667 C 86.088 138.862, 78 149.949, 78 159.607 C 78 162.970, 75.867 166, 73.500 166 C 71.133 166, 69 162.970, 69 159.607 C 69 149.949, 60.912 138.862, 51.537 135.667 C 45.516 133.616, 36.964 133.641, 31.054 135.728 M 183.282 175.282 C 173.777 184.787, 166 193.210, 166 194 C 166 195.693, 200.031 230, 201.710 230 C 203.173 230, 206 227.200, 206 225.751 C 206 225.143, 199.156 217.750, 190.792 209.323 L 175.584 194 190.792 178.677 C 199.156 170.250, 206 162.857, 206 162.249 C 206 160.800, 203.173 158, 201.710 158 C 201.079 158, 192.787 165.777, 183.282 175.282 M 232 158.977 C 230.979 159.621, 230.340 162.248, 230 167.204 L 229.500 174.484 225 175.159 C 215.537 176.578, 205.706 181.580, 199.217 188.276 C 195.704 191.901, 195.675 194.445, 199.132 195.542 C 200.512 195.980, 202.272 195.084, 205.167 192.468 C 209.973 188.127, 219.743 183.353, 225.750 182.411 L 230 181.744 230 204.301 C 230 223.473, 230.236 227.093, 231.571 228.429 C 232.936 229.793, 237.463 230, 266 230 C 294.537 230, 299.064 229.793, 300.429 228.429 C 301.617 227.240, 302 224.730, 302 218.129 L 302 209.400 307.799 208.202 C 318.780 205.934, 332 197.351, 332 192.489 C 332 188.535, 328.510 188.345, 324.267 192.070 C 320.288 195.564, 310.462 200.435, 305.250 201.497 L 302 202.159 302 181.651 C 302 164.341, 301.755 160.898, 300.429 159.571 C 299.063 158.206, 294.567 158.002, 266.179 158.015 C 247.379 158.024, 232.863 158.433, 232 158.977 M 327.571 159.571 C 326.707 160.436, 326 161.640, 326 162.249 C 326 162.857, 332.844 170.250, 341.208 178.677 L 356.416 194 341.208 209.323 C 332.844 217.750, 326 225.143, 326 225.751 C 326 227.200, 328.827 230, 330.290 230 C 331.969 230, 366 195.693, 366 194 C 366 192.307, 331.969 158, 330.290 158 C 329.659 158, 328.436 158.707, 327.571 159.571 M 238 170.500 C 238 174.553, 238.233 175, 240.343 175 C 243.996 175, 253.857 178.700, 258.999 181.999 C 261.562 183.644, 265.856 187.310, 268.541 190.146 C 273.827 195.729, 282.616 200.471, 289.750 201.589 L 294 202.256 294 184.128 L 294 166 266 166 L 238 166 238 170.500 M 238 201.921 L 238 222 266.048 222 L 294.095 222 293.798 215.834 L 293.500 209.668 287.059 208.358 C 277.536 206.421, 270.380 202.480, 263.331 195.290 C 257.111 188.947, 248.555 183.992, 241.250 182.503 L 238 181.841 238 201.921 " stroke="none" fill="black" fill-rule="evenodd"/>
</svg>