<svg xmlns="http://www.w3.org/2000/svg" width="340" height="324" viewBox="0 0 340 324" version="1.1">
	<path d="M 63.102 127.162 C 37.850 130.772, 15.064 151.522, 8.374 177 C 6.113 185.610, 6.113 201.390, 8.374 210 C 12.377 225.245, 23.556 240.864, 36.715 249.599 C 63.805 267.580, 99.528 263.204, 122.246 239.122 C 133.997 226.666, 140.264 210.796, 140.264 193.500 C 140.264 181.958, 138.034 172.794, 132.759 162.653 C 122.751 143.418, 104.005 130.160, 82.398 127.037 C 74.447 125.887, 71.899 125.904, 63.102 127.162 M 167.571 127.571 C 166.175 128.968, 166 136.372, 166 194 C 166 251.628, 166.175 259.032, 167.571 260.429 C 169.678 262.535, 170.598 262.412, 172.443 259.777 C 173.813 257.823, 174 249.904, 174 194 C 174 138.096, 173.813 130.177, 172.443 128.223 C 170.598 125.588, 169.678 125.465, 167.571 127.571 M 231.571 127.571 C 230.175 128.968, 230 136.372, 230 194 C 230 251.628, 230.175 259.032, 231.571 260.429 C 233.678 262.535, 234.598 262.412, 236.443 259.777 C 237.813 257.823, 238 249.904, 238 194 C 238 138.096, 237.813 130.177, 236.443 128.223 C 234.598 125.588, 233.678 125.465, 231.571 127.571 M 263.200 127.200 C 261.465 128.935, 261.465 259.065, 263.200 260.800 C 264.595 262.195, 329.604 262.538, 331.772 261.162 C 332.780 260.522, 333.044 246.603, 333.044 194 C 333.044 141.397, 332.780 127.478, 331.772 126.838 C 329.604 125.462, 264.595 125.805, 263.200 127.200 M 58.645 135.584 C 38.562 140.445, 20.305 158.877, 15.537 179.103 C 12.241 193.087, 14.182 208.814, 20.757 221.397 C 24.590 228.732, 35.708 240.900, 41.582 244.188 L 44.597 245.875 41.599 239.825 C 38.997 234.577, 38.600 232.681, 38.600 225.515 C 38.600 218.264, 38.986 216.470, 41.762 210.832 C 47.173 199.841, 55.676 193.311, 67.604 190.987 C 82.152 188.152, 97.987 196.067, 104.502 209.432 C 109.676 220.047, 109.734 230.934, 104.672 241.202 L 102.353 245.905 105.393 244.202 C 107.065 243.266, 111.641 239.329, 115.561 235.454 C 126.986 224.160, 133 209.692, 133 193.500 C 133 166.315, 113.802 141.644, 87.897 135.537 C 79.998 133.676, 66.439 133.697, 58.645 135.584 M 269 194 L 269 254 297.500 254 L 326 254 326 194 L 326 134 297.500 134 L 269 134 269 194 M 63.605 199.568 C 56.049 202.337, 56.073 202.527, 65.170 211.671 L 73.457 220.001 81.692 211.809 C 90.838 202.711, 90.906 202.178, 83.260 199.573 C 77.620 197.651, 68.842 197.649, 63.605 199.568 M 50.184 210.278 C 46.139 215.152, 44.867 227.319, 47.573 235.260 C 50.178 242.906, 50.711 242.838, 59.809 233.692 L 68.001 225.457 59.671 217.170 C 52.854 210.389, 51.131 209.137, 50.184 210.278 M 87.237 217.261 L 78.999 225.543 87.339 233.840 L 95.680 242.137 97.174 239.819 C 102.273 231.908, 102.255 217.967, 97.137 211.182 C 95.477 208.981, 95.471 208.984, 87.237 217.261 M 65.170 239.329 C 56.017 248.530, 56.002 248.678, 63.962 251.487 C 69.497 253.439, 77.426 253.415, 83.260 251.427 C 90.906 248.822, 90.838 248.289, 81.692 239.191 L 73.457 230.999 65.170 239.329 " stroke="none" fill="black" fill-rule="evenodd"/>
</svg>