<svg xmlns="http://www.w3.org/2000/svg" width="356" height="324" viewBox="0 0 356 324" version="1.1">
	<path d="M 71.571 127.571 C 70.288 128.855, 70 131.788, 70 143.571 L 70 158 55.934 158 C 48.151 158, 41.005 158.462, 39.934 159.035 C 38.092 160.021, 38 161.413, 38 188.237 L 38 216.405 24.667 203.202 C 17.334 195.941, 10.841 190, 10.239 190 C 8.799 190, 6 192.831, 6 194.287 C 6 195.818, 72.128 262, 73.659 262 C 74.318 262, 75.564 261.293, 76.429 260.429 C 77.712 259.145, 78 256.212, 78 244.429 L 78 230 92.429 230 C 104.212 230, 107.145 229.712, 108.429 228.429 C 109.793 227.064, 110 222.537, 110 194 C 110 165.463, 109.793 160.936, 108.429 159.571 C 107.145 158.288, 104.212 158, 92.429 158 L 78 158 78 143.655 C 78 131.028, 77.781 129.112, 76.171 127.655 C 73.915 125.613, 73.537 125.606, 71.571 127.571 M 191.536 127.055 C 163.431 131.420, 141.036 152.935, 135.427 180.962 C 131.157 202.293, 138.172 224.903, 153.959 240.697 C 180.438 267.188, 221.836 267.319, 248 240.995 C 256.448 232.495, 260.913 225.546, 264.810 214.835 C 267.224 208.197, 267.478 206.169, 267.478 193.500 C 267.478 180.831, 267.224 178.803, 264.810 172.165 C 260.915 161.458, 256.451 154.509, 248 145.997 C 233.211 131.101, 211.780 123.912, 191.536 127.055 M 186.072 135.591 C 172.454 139.252, 159.030 149.097, 151.028 161.292 C 139.505 178.854, 138.695 204.279, 149.075 222.586 C 152.686 228.954, 158.965 236.136, 165.302 241.144 C 170.803 245.493, 172.735 246.077, 170.608 242.750 C 168.456 239.382, 166 230.188, 166 225.500 C 166 219.346, 168.691 211.156, 172.621 205.349 C 181.006 192.959, 198.210 187.319, 212.500 192.274 C 222.861 195.867, 232.283 205.950, 235.138 216.500 C 236.937 223.148, 235.742 234.689, 232.621 240.801 L 229.915 246.102 232.707 244.346 C 245.261 236.454, 254.950 223.294, 259.098 208.500 C 260.902 202.067, 260.906 184.955, 259.105 178.500 C 253.262 157.551, 236.234 140.747, 215.540 135.509 C 208.088 133.622, 193.240 133.664, 186.072 135.591 M 311.750 159.080 C 310.186 159.991, 310 162.007, 310 178.015 C 310 195.091, 310.097 195.981, 312.064 197.034 C 316.445 199.379, 317 197.247, 317 178.078 C 317 158.416, 316.430 156.354, 311.750 159.080 M 46 194 L 46 222 58 222 L 70 222 70 194 L 70 166 58 166 L 46 166 46 194 M 78 194 L 78 222 90 222 L 102 222 102 194 L 102 166 90 166 L 78 166 78 194 M 191.603 199.477 C 183.527 202.355, 183.593 203.078, 192.772 212.257 L 201 220.485 209.698 211.788 L 218.395 203.091 212.947 200.555 C 206.680 197.638, 197.994 197.199, 191.603 199.477 M 308 207.175 C 302.857 208.636, 298.037 212.708, 295.913 217.384 C 287.726 235.413, 308.848 252.506, 324.532 240.543 C 336.778 231.203, 332.999 211.149, 318.219 207.044 C 313.853 205.831, 312.675 205.847, 308 207.175 M 175.998 214.226 C 174.491 217.729, 173.750 221.446, 173.750 225.500 C 173.750 231.160, 177.130 242, 178.895 242 C 179.252 242, 183.247 238.278, 187.773 233.729 L 196.001 225.457 187.730 217.229 C 183.180 212.703, 179.186 209, 178.852 209 C 178.519 209, 177.235 211.352, 175.998 214.226 M 214.732 216.766 C 210.480 221.044, 207 224.995, 207 225.546 C 207 227.267, 222.736 242.281, 223.831 241.604 C 225.730 240.431, 229 229.996, 228.969 225.212 C 228.938 220.400, 225.319 209.917, 223.482 209.319 C 222.923 209.137, 218.985 212.488, 214.732 216.766 M 306.881 215.503 C 304.218 216.951, 301 222.420, 301 225.500 C 301 228.694, 304.267 234.087, 307.085 235.544 C 316.835 240.586, 327.182 232.226, 324.065 221.824 C 322.045 215.081, 313.466 211.925, 306.881 215.503 M 60.500 239 C 65.427 243.950, 69.580 248, 69.729 248 C 69.878 248, 70 243.950, 70 239 L 70 230 60.771 230 L 51.542 230 60.500 239 M 192.477 239.059 L 184.500 247.118 186.830 249.034 C 192.486 253.685, 204.578 254.341, 212.937 250.449 L 218.375 247.918 209.959 239.459 C 205.331 234.807, 201.299 231, 200.999 231 C 200.699 231, 196.864 234.627, 192.477 239.059 " stroke="none" fill="black" fill-rule="evenodd"/>
</svg>