<svg xmlns="http://www.w3.org/2000/svg" width="52" height="324" viewBox="0 0 52 324" version="1.1">
	<path d="M 23.550 62.918 C 19.869 68.875, 6.190 98.331, 6.604 99.410 C 7.267 101.138, 9.522 102.121, 11.278 101.447 C 11.981 101.177, 15.522 95.005, 19.147 87.731 L 25.738 74.505 32.311 87.624 C 35.927 94.839, 39.643 101.033, 40.569 101.388 C 42.681 102.199, 45 100.355, 45 97.866 C 45 95.626, 29.264 63.831, 27.628 62.765 C 26.071 61.751, 24.229 61.820, 23.550 62.918 M 7.571 127.571 C 6.707 128.436, 6 129.609, 6 130.178 C 6 130.747, 9.226 134.540, 13.169 138.607 L 20.338 146 13.169 153.393 C 9.226 157.460, 6 161.253, 6 161.822 C 6 163.139, 8.829 166, 10.131 166 C 10.675 166, 13.568 163.685, 16.560 160.855 L 22 155.710 22 207.284 C 22 252.835, 22.183 259.041, 23.571 260.429 C 25.387 262.244, 25.947 262.319, 28 261.022 C 29.291 260.206, 29.570 252.827, 30 207.988 L 30.500 155.902 34.500 160.030 C 39.691 165.388, 41.712 166.484, 43.564 164.947 C 46.206 162.754, 45.046 160.087, 38.379 153.019 L 31.758 146 38.379 138.981 C 44.951 132.014, 46.106 129.506, 43.800 127.200 C 41.935 125.335, 41.244 125.656, 35.574 131.018 L 30.268 136.036 29.710 131.874 C 29.212 128.163, 27.817 126.060, 25.821 126.015 C 24.019 125.975, 22 129.515, 22 132.716 L 22 136.290 16.560 131.145 C 10.617 125.525, 9.902 125.240, 7.571 127.571 " stroke="none" fill="black" fill-rule="evenodd"/>
</svg>