<svg xmlns="http://www.w3.org/2000/svg" width="403" height="324" viewBox="0 0 403 324" version="1.1">
	<path d="M 130.223 127.021 C 116.788 129.798, 104.739 142.692, 102.514 156.673 C 101.197 164.953, 106.514 185.758, 114.071 201.889 C 124.639 224.449, 146.256 248.023, 166.406 258.964 L 170.944 261.428 173.722 258.886 C 175.250 257.488, 179.650 254.141, 183.500 251.449 C 208.386 234.047, 228.262 203.081, 234.590 171.852 C 236.892 160.493, 236.145 152.929, 231.945 145.049 C 223.058 128.374, 202.385 121.641, 185.900 130.051 C 180.468 132.822, 172.549 140.259, 170.970 144.073 L 169.728 147.070 166.415 142.149 C 164.592 139.443, 161.391 135.818, 159.300 134.094 C 152.200 128.238, 139.398 125.124, 130.223 127.021 M 263.750 127.080 C 261.372 128.465, 261.542 131.685, 264.064 133.034 C 267.753 135.008, 270.819 130.219, 267.800 127.200 C 266.367 125.767, 266.022 125.757, 263.750 127.080 M 295.750 127.073 C 293.413 128.444, 293.527 131.677, 295.960 132.979 C 297.243 133.665, 309.208 133.936, 330.601 133.764 C 360.469 133.523, 363.378 133.349, 364.386 131.750 C 365.191 130.474, 365.191 129.526, 364.386 128.250 C 363.377 126.649, 360.483 126.481, 330.391 126.273 C 309.280 126.127, 296.873 126.414, 295.750 127.073 M 391.040 127.452 C 388.392 130.642, 392.299 135.657, 395.416 133.070 C 397.297 131.508, 397.470 128.870, 395.800 127.200 C 394.197 125.597, 392.505 125.686, 391.040 127.452 M 127.385 135.617 C 117.726 139.043, 110 149.714, 110 159.631 C 110 174.429, 118.364 197.817, 129.684 214.670 C 138.648 228.017, 151.457 240.732, 164.720 249.452 L 168.939 252.226 173.220 249.710 C 188.654 240.641, 207.729 219.425, 216.951 201.071 C 222.715 189.599, 228.923 168.550, 228.978 160.288 C 229.012 155.229, 225.294 146.610, 221.308 142.505 C 211.552 132.459, 195.617 131.071, 184.797 139.325 C 179.118 143.656, 175.172 150.296, 174.001 157.492 C 172.831 164.680, 171.093 166.819, 167.686 165.267 C 165.718 164.370, 165.199 163.216, 164.733 158.702 C 163.722 148.908, 158.551 141.431, 149.745 137.030 C 142.822 133.571, 134.617 133.052, 127.385 135.617 M 7.571 159.571 C 6.207 160.936, 6 165.463, 6 194 C 6 222.537, 6.207 227.064, 7.571 228.429 C 8.936 229.793, 13.463 230, 42 230 C 70.537 230, 75.064 229.793, 76.429 228.429 C 77.793 227.064, 78 222.537, 78 194 C 78 165.463, 77.793 160.936, 76.429 159.571 C 75.064 158.207, 70.537 158, 42 158 C 13.463 158, 8.936 158.207, 7.571 159.571 M 263.750 159.080 C 262.138 160.019, 262 162.769, 262 194.015 C 262 227.256, 262.041 227.952, 264.064 229.034 C 265.596 229.854, 266.498 229.832, 267.564 228.947 C 268.760 227.954, 269 222.127, 269 194.078 C 269 157.363, 268.815 156.130, 263.750 159.080 M 391.200 159.200 C 390.314 160.086, 390 169.217, 390 194.078 C 390 223.585, 390.196 227.918, 391.584 229.070 C 392.733 230.023, 393.625 230.096, 394.834 229.333 C 396.326 228.392, 396.527 224.762, 396.763 194.510 C 397.027 160.681, 396.793 158, 393.578 158 C 392.930 158, 391.860 158.540, 391.200 159.200 M 14 194 L 14 222 42 222 L 70 222 70 194 L 70 166 42 166 L 14 166 14 194 M 263.750 255.080 C 261.372 256.465, 261.542 259.685, 264.064 261.034 C 267.753 263.008, 270.819 258.219, 267.800 255.200 C 266.367 253.767, 266.022 253.757, 263.750 255.080 M 295.750 255.073 C 293.413 256.444, 293.527 259.677, 295.960 260.979 C 297.243 261.665, 309.208 261.936, 330.601 261.764 C 360.469 261.523, 363.378 261.349, 364.386 259.750 C 365.191 258.474, 365.191 257.526, 364.386 256.250 C 363.377 254.649, 360.483 254.481, 330.391 254.273 C 309.280 254.127, 296.873 254.414, 295.750 255.073 M 391.040 255.452 C 388.392 258.642, 392.299 263.657, 395.416 261.070 C 397.297 259.508, 397.470 256.870, 395.800 255.200 C 394.197 253.597, 392.505 253.686, 391.040 255.452 " stroke="none" fill="black" fill-rule="evenodd"/>
</svg>