<svg xmlns="http://www.w3.org/2000/svg" width="468" height="324" viewBox="0 0 468 324" version="1.1">
	<path d="M 385.384 127.412 C 367.475 131.758, 355.559 149.807, 358.987 167.396 C 361.770 181.681, 373.103 193.554, 385.908 195.601 L 390 196.256 390 227.556 C 390 254.678, 390.210 259.067, 391.571 260.429 C 392.436 261.293, 393.529 262, 394 262 C 396.239 262, 398.001 258.567, 398.015 254.179 C 398.104 225.902, 425.902 198.104, 454.179 198.015 C 457.082 198.006, 459.453 197.404, 460.429 196.429 C 462.418 194.439, 462.404 193.547, 460.348 191.491 C 457.202 188.345, 439.553 191.657, 427.194 197.713 C 418.837 201.809, 406.816 212.418, 401.850 220.081 C 400.097 222.787, 398.514 225, 398.332 225 C 398.149 225, 398 218.525, 398 210.611 L 398 196.223 401.703 195.528 C 410.178 193.938, 419.709 186.644, 424.232 178.288 C 435.343 157.761, 424.001 132.740, 401.147 127.360 C 394.397 125.772, 392.111 125.779, 385.384 127.412 M 383.054 135.728 C 377.018 137.859, 369.781 145.260, 367.667 151.463 C 361.198 170.450, 373.964 189, 393.500 189 C 409.108 189, 421 177.108, 421 161.500 C 421 145.670, 408.965 133.854, 393.072 134.079 C 390.007 134.122, 385.499 134.864, 383.054 135.728 M 7.571 191.571 C 6.707 192.436, 6 193.640, 6 194.249 C 6 194.857, 12.844 202.250, 21.208 210.677 L 36.416 226 21.208 241.323 C 12.844 249.750, 6 257.143, 6 257.751 C 6 259.181, 8.819 262, 10.249 262 C 10.857 262, 18.250 255.156, 26.677 246.792 L 42 231.584 57.323 246.792 C 65.750 255.156, 73.143 262, 73.751 262 C 75.181 262, 78 259.181, 78 257.751 C 78 257.143, 71.156 249.750, 62.792 241.323 L 47.584 226 62.792 210.677 C 71.156 202.250, 78 194.857, 78 194.249 C 78 192.819, 75.181 190, 73.751 190 C 73.143 190, 65.750 196.844, 57.323 205.208 L 42 220.416 26.677 205.208 C 18.250 196.844, 10.857 190, 10.249 190 C 9.640 190, 8.436 190.707, 7.571 191.571 M 103.571 191.571 C 102.707 192.436, 102 193.640, 102 194.249 C 102 194.857, 108.844 202.250, 117.208 210.677 L 132.416 226 117.208 241.323 C 108.844 249.750, 102 257.143, 102 257.751 C 102 259.181, 104.819 262, 106.249 262 C 106.857 262, 114.250 255.156, 122.677 246.792 L 138 231.584 153.323 246.792 C 161.750 255.156, 169.143 262, 169.751 262 C 171.181 262, 174 259.181, 174 257.751 C 174 257.143, 167.156 249.750, 158.792 241.323 L 143.584 226 158.792 210.677 C 167.156 202.250, 174 194.857, 174 194.249 C 174 192.819, 171.181 190, 169.751 190 C 169.143 190, 161.750 196.844, 153.323 205.208 L 138 220.416 122.677 205.208 C 114.250 196.844, 106.857 190, 106.249 190 C 105.640 190, 104.436 190.707, 103.571 191.571 M 256.500 190.944 C 248.325 192.268, 242.930 193.991, 235 197.814 C 224.444 202.903, 210.927 216.404, 205.778 227 C 202.117 234.533, 199 244.730, 199 249.172 C 199 250.483, 198.305 252.547, 197.455 253.760 C 195.689 256.282, 196.712 259.240, 199.950 260.973 C 202.724 262.458, 204.886 261.227, 205.800 257.643 C 206.475 254.997, 207.840 253.867, 214.428 250.500 C 222.107 246.576, 222.455 246.500, 232.877 246.500 C 242.770 246.500, 243.968 246.722, 250.306 249.724 C 254.947 251.922, 259.090 254.965, 263.331 259.290 C 276.393 272.612, 295.113 276.982, 312.901 270.862 C 318.084 269.079, 330.571 261.770, 332.274 259.522 C 333.269 258.210, 332.258 248.217, 330.350 240.500 C 327.486 228.913, 322.380 220.302, 312.539 210.461 C 302.721 200.644, 294.174 195.566, 282.500 192.618 C 274.811 190.676, 262.896 189.909, 256.500 190.944 M 251.217 199.449 C 234.736 203.440, 219.501 215.770, 212.234 231 C 210.003 235.675, 207.868 241.002, 207.490 242.838 C 206.803 246.172, 206.805 246.174, 209.205 244.601 C 218.470 238.531, 236.966 236.778, 248.419 240.886 C 256.276 243.703, 262.600 247.871, 268.541 254.146 C 271.606 257.383, 275.858 260.457, 279.962 262.402 C 285.996 265.261, 287.318 265.500, 297.123 265.500 C 307.550 265.500, 307.888 265.426, 315.539 261.500 C 319.826 259.300, 323.804 256.736, 324.379 255.802 C 326.171 252.890, 323.380 240.443, 318.817 231 C 313.102 219.171, 303.755 209.842, 292 204.235 C 287.325 202.005, 281.115 199.690, 278.201 199.090 C 271.260 197.662, 257.861 197.841, 251.217 199.449 " stroke="none" fill="black" fill-rule="evenodd"/>
</svg>