<svg xmlns="http://www.w3.org/2000/svg" width="244" height="324" viewBox="0 0 244 324" version="1.1">
	<path d="M 33.384 127.412 C 15.407 131.774, 3.534 149.789, 7.006 167.434 C 9.021 177.679, 14.367 185.725, 22.662 190.995 L 26.824 193.640 23.377 195.497 C 18.984 197.862, 12.750 204.609, 10.029 209.942 C 1.906 225.865, 8.068 246.509, 23.673 255.654 C 28.824 258.673, 41.869 262.124, 44 261.032 C 44.825 260.609, 47.300 259.941, 49.500 259.548 C 55.471 258.479, 62.657 254.175, 67.545 248.739 C 81.719 232.974, 78.234 207.349, 60.376 196.024 L 56.176 193.360 59.683 191.471 C 64.938 188.641, 71.616 180.627, 74.072 174.202 C 81.691 154.273, 69.979 132.264, 49.147 127.360 C 42.397 125.772, 40.111 125.779, 33.384 127.412 M 167.200 127.200 C 166.292 128.108, 166 143.689, 166 191.200 L 166 254 135.571 254 C 109.242 254, 104.931 254.212, 103.571 255.571 C 101.596 257.546, 101.598 258.455, 103.579 260.436 C 104.990 261.847, 112.058 261.987, 170.220 261.757 C 230.934 261.517, 235.356 261.383, 236.386 259.750 C 237.191 258.474, 237.191 257.526, 236.386 256.250 C 235.381 254.655, 232.566 254.477, 204.641 254.236 L 174 253.971 174 225.986 L 174 198 204.250 197.985 C 220.887 197.976, 235.081 197.601, 235.791 197.150 C 237.679 195.953, 237.679 128.047, 235.791 126.850 C 233.610 125.466, 168.602 125.798, 167.200 127.200 M 31.054 135.728 C 25.018 137.859, 17.781 145.260, 15.667 151.463 C 10.058 167.925, 18.847 184.571, 35.250 188.550 L 38 189.217 38 161.608 C 38 140.146, 37.722 134.018, 36.750 134.079 C 36.063 134.122, 33.499 134.864, 31.054 135.728 M 46 161.433 C 46 176.595, 46.168 189, 46.374 189 C 46.580 189, 48.646 188.331, 50.965 187.512 C 57.653 185.153, 62.596 180.567, 66.080 173.488 C 68.890 167.782, 69.186 166.354, 68.817 160.295 C 68.028 147.334, 60.904 138.417, 48.250 134.552 L 46 133.865 46 161.433 M 174 162 L 174 190 202 190 L 230 190 230 162 L 230 134 202 134 L 174 134 174 162 M 31.054 199.728 C 25.018 201.859, 17.781 209.260, 15.667 215.463 C 10.058 231.925, 18.847 248.571, 35.250 252.550 L 38 253.217 38 225.608 C 38 204.146, 37.722 198.018, 36.750 198.079 C 36.063 198.122, 33.499 198.864, 31.054 199.728 M 46 225.433 C 46 240.595, 46.168 253, 46.374 253 C 46.580 253, 48.646 252.331, 50.965 251.512 C 57.653 249.153, 62.596 244.567, 66.080 237.488 C 68.890 231.782, 69.186 230.354, 68.817 224.295 C 68.028 211.334, 60.904 202.417, 48.250 198.552 L 46 197.865 46 225.433 " stroke="none" fill="black" fill-rule="evenodd"/>
</svg>