<svg xmlns="http://www.w3.org/2000/svg" width="244" height="324" viewBox="0 0 244 324" version="1.1">
	<path d="M 39.571 127.571 C 38.176 128.966, 38 136.152, 38 191.571 L 38 254 23.571 254 C 11.788 254, 8.855 254.288, 7.571 255.571 C 5.598 257.545, 5.598 258.455, 7.571 260.429 C 8.936 261.793, 13.463 262, 42 262 C 70.537 262, 75.064 261.793, 76.429 260.429 C 77.293 259.564, 78 258.471, 78 258 C 78 257.529, 77.293 256.436, 76.429 255.571 C 75.145 254.288, 72.212 254, 60.429 254 L 46 254 46 191.571 C 46 136.152, 45.824 128.966, 44.429 127.571 C 43.564 126.707, 42.471 126, 42 126 C 41.529 126, 40.436 126.707, 39.571 127.571 M 157.500 127.480 C 143.124 130.150, 132.006 136.094, 121.488 146.735 C 110.801 157.546, 103.989 172.187, 102.469 187.614 C 101.891 193.479, 102.055 194.912, 103.460 196.317 C 107.035 199.892, 110 196.864, 110 189.639 C 110 176.784, 116.727 162.014, 127.388 151.459 C 139.286 139.680, 152.902 134.045, 169.540 134.015 C 179.270 133.997, 187.180 135.890, 196.500 140.468 C 214.376 149.249, 227.205 168.443, 228.737 188.700 C 229.183 194.602, 229.681 196.294, 231.212 197.113 C 238.954 201.257, 237.057 178.416, 228.270 161.695 C 218.727 143.534, 199.303 130.060, 178.284 127.020 C 169.726 125.783, 166.223 125.861, 157.500 127.480 M 135.244 223.256 C 116.960 241.546, 102 257.206, 102 258.056 C 102 261.988, 102.206 262, 169.629 262 C 227.594 262, 235.032 261.825, 236.429 260.429 C 237.293 259.564, 237.994 258.552, 237.987 258.179 C 237.962 256.801, 171.239 190, 169.889 190 C 169.119 190, 153.529 204.965, 135.244 223.256 M 142.500 227 L 115.514 254 170 254 L 224.486 254 197.500 227 C 182.658 212.150, 170.283 200, 170 200 C 169.717 200, 157.342 212.150, 142.500 227 " stroke="none" fill="black" fill-rule="evenodd"/>
</svg>