<svg xmlns="http://www.w3.org/2000/svg" width="340" height="324" viewBox="0 0 340 324" version="1.1">
	<path d="M 151.571 63.571 C 150.707 64.436, 150 65.317, 150 65.531 C 150 66.993, 167.421 100.653, 168.488 101.252 C 169.225 101.665, 170.440 101.768, 171.188 101.481 C 172.837 100.849, 189 68.755, 189 66.115 C 189 63.770, 186.710 61.790, 184.832 62.511 C 184.050 62.811, 180.520 68.894, 176.986 76.028 C 173.453 83.163, 170.306 89, 169.994 89 C 169.683 89, 166.969 83.984, 163.964 77.854 C 158.437 66.580, 155.559 62, 153.999 62 C 153.528 62, 152.436 62.707, 151.571 63.571 M 131.045 127.064 C 116.690 129.970, 105.545 141.274, 102.894 155.616 C 101.630 162.451, 103.614 173.655, 108.716 188.500 C 115.324 207.725, 124.969 223.011, 139.975 238.043 C 149.649 247.734, 167.319 261, 170.553 261 C 171.214 261, 172.318 260.322, 173.005 259.494 C 173.693 258.666, 177.910 255.437, 182.378 252.320 C 208.570 234.044, 228.188 203.702, 234.867 171.138 C 237.945 156.131, 235.268 146.183, 225.518 136.404 C 210.207 121.045, 183.765 124.155, 171.981 142.700 L 169.312 146.900 167.124 143.007 C 160.711 131.596, 144.355 124.368, 131.045 127.064 M 263.571 127.571 C 262.206 128.937, 262 133.497, 262 162.371 C 262 186.883, 262.315 195.915, 263.200 196.800 C 264.081 197.681, 272.578 198, 295.200 198 L 326 198 326 228.965 C 326 259.475, 326.031 259.946, 328.117 261.062 C 333.076 263.717, 333.023 264.446, 333.023 194 C 333.023 123.554, 333.076 124.283, 328.117 126.938 C 326.058 128.039, 326 128.684, 326 150.364 L 326 172.657 321.653 168.492 C 307.837 155.254, 287.577 155.131, 273.401 168.198 L 269 172.255 269 150.327 C 269 134.606, 268.660 128.060, 267.800 127.200 C 266.219 125.619, 265.457 125.685, 263.571 127.571 M 127.385 135.617 C 117.522 139.115, 110 149.694, 110 160.068 C 110 175.624, 120.315 202.240, 133.033 219.500 C 141.365 230.808, 157.334 245.634, 166.495 250.567 L 169.728 252.308 177.450 246.969 C 202.741 229.486, 221.543 200.543, 227.584 169.798 C 229.614 159.468, 229.025 154.372, 224.987 147.302 C 221.806 141.732, 216.020 137.111, 209.609 135.020 C 203.591 133.058, 193.093 134.170, 187.680 137.342 C 179.949 141.872, 174.067 150.781, 174.022 158.027 C 173.998 161.891, 171.675 166, 169.515 166 C 167.013 166, 165 162.918, 165 159.088 C 165 153.811, 159.742 143.755, 155.031 140.024 C 147.623 134.158, 136.501 132.384, 127.385 135.617 M 287.627 167.417 C 279.793 170.313, 271.895 179.173, 270.394 186.750 L 269.750 190 297.394 190 L 325.038 190 324.377 187.250 C 322.529 179.559, 316.399 171.875, 309.403 168.478 C 304.363 166.031, 292.890 165.472, 287.627 167.417 M 7.571 191.571 C 6.707 192.436, 6 193.529, 6 194 C 6 194.471, 6.707 195.564, 7.571 196.429 C 8.936 197.793, 13.463 198, 42 198 C 70.537 198, 75.064 197.793, 76.429 196.429 C 77.293 195.564, 78 194.471, 78 194 C 78 193.529, 77.293 192.436, 76.429 191.571 C 75.064 190.207, 70.537 190, 42 190 C 13.463 190, 8.936 190.207, 7.571 191.571 " stroke="none" fill="black" fill-rule="evenodd"/>
</svg>