<svg xmlns="http://www.w3.org/2000/svg" width="340" height="324" viewBox="0 0 340 324" version="1.1">
	<path d="M 72.316 62.784 C 70.369 64.022, 54.007 97.855, 54.604 99.410 C 55.269 101.144, 57.524 102.120, 59.295 101.440 C 60.007 101.167, 63.480 95.106, 67.014 87.972 C 70.547 80.837, 73.691 75, 74 75 C 74.309 75, 77.453 80.837, 80.986 87.972 C 84.520 95.106, 87.993 101.167, 88.705 101.440 C 90.487 102.124, 92.732 101.141, 93.407 99.381 C 93.997 97.844, 77.582 64.037, 75.628 62.765 C 74.214 61.845, 73.789 61.847, 72.316 62.784 M 35.045 127.064 C 19.586 130.194, 7.255 144.080, 6.841 158.824 C 6.689 164.231, 10.459 179.667, 14.976 192.133 C 21.053 208.902, 33.075 227.074, 46.717 240.107 C 55.946 248.924, 71.175 260, 74.070 260 C 75.196 260, 77.778 258.733, 79.809 257.185 C 81.839 255.636, 87.009 251.747, 91.298 248.542 C 105.496 237.932, 118.913 221.497, 127.526 204.162 C 136.027 187.055, 141.511 165.812, 139.941 156.078 C 136.401 134.137, 113.568 120.988, 92.798 128.928 C 86.373 131.384, 78.359 138.062, 75.529 143.317 L 73.640 146.824 70.976 142.624 C 63.636 131.049, 48.255 124.389, 35.045 127.064 M 167.571 127.571 C 166.206 128.937, 166 133.497, 166 162.371 C 166 186.883, 166.315 195.915, 167.200 196.800 C 168.081 197.681, 176.578 198, 199.200 198 L 230 198 230 228.429 C 230 254.758, 230.212 259.069, 231.571 260.429 C 233.502 262.359, 234.423 262.401, 235.896 260.625 C 237.524 258.664, 237.524 129.336, 235.896 127.375 C 234.423 125.599, 233.502 125.641, 231.571 127.571 C 230.239 128.904, 230 132.453, 230 150.888 L 230 172.632 225.127 167.936 C 212.405 155.673, 191.435 155.481, 178.125 167.506 L 174 171.233 174 150.839 C 174 133.999, 173.729 130.058, 172.443 128.223 C 170.598 125.588, 169.678 125.465, 167.571 127.571 M 31.054 135.728 C 24.787 137.940, 17.726 145.297, 15.534 151.899 C 13.881 156.875, 13.875 157.704, 15.430 166.205 C 18.776 184.494, 25.269 200.593, 35.513 216 C 41.751 225.381, 57.226 240.966, 66.665 247.373 L 73.830 252.237 81.660 246.869 C 106.190 230.050, 125.148 201.197, 131.495 171.022 C 133.741 160.345, 133.447 156.214, 129.940 149.196 C 123.554 136.416, 109.612 130.846, 95.795 135.554 C 86.288 138.793, 78 149.539, 78 158.625 C 78 162.910, 76.115 166, 73.500 166 C 71.133 166, 69 162.970, 69 159.607 C 69 149.949, 60.912 138.862, 51.537 135.667 C 45.516 133.616, 36.964 133.641, 31.054 135.728 M 191.627 167.468 C 183.862 170.236, 175.901 179.144, 174.394 186.750 L 173.750 190 201.394 190 L 229.038 190 228.392 187.250 C 226.374 178.665, 219.032 170.404, 210.684 167.326 C 206.327 165.720, 196.323 165.794, 191.627 167.468 M 294.604 192.250 C 293.810 193.488, 286.116 208.675, 277.505 226 C 267.385 246.362, 262.080 258.091, 262.502 259.173 C 263.402 261.478, 265.957 262.281, 267.726 260.813 C 268.535 260.141, 275.622 246.749, 283.474 231.052 L 297.750 202.514 312.313 231.626 C 320.486 247.965, 327.617 261.023, 328.565 261.386 C 330.679 262.198, 333 260.358, 333 257.871 C 333 255.637, 301.272 191.833, 299.630 190.765 C 297.648 189.477, 296.086 189.938, 294.604 192.250 " stroke="none" fill="black" fill-rule="evenodd"/>
</svg>