<svg xmlns="http://www.w3.org/2000/svg" width="436" height="324" viewBox="0 0 436 324" version="1.1">
	<path d="M 39.571 127.571 C 38.176 128.966, 38 136.152, 38 191.571 L 38 254 23.571 254 C 11.788 254, 8.855 254.288, 7.571 255.571 C 5.598 257.545, 5.598 258.455, 7.571 260.429 C 8.936 261.793, 13.463 262, 42 262 C 70.537 262, 75.064 261.793, 76.429 260.429 C 77.293 259.564, 78 258.471, 78 258 C 78 257.529, 77.293 256.436, 76.429 255.571 C 75.145 254.288, 72.212 254, 60.429 254 L 46 254 46 191.571 C 46 136.152, 45.824 128.966, 44.429 127.571 C 43.564 126.707, 42.471 126, 42 126 C 41.529 126, 40.436 126.707, 39.571 127.571 M 227.434 126.889 C 213.397 129.293, 200.809 142.257, 198.514 156.673 C 197.063 165.791, 202.802 186.920, 211.504 204.500 C 218.200 218.029, 227.185 230.117, 238.511 240.839 C 246.778 248.664, 263.976 261, 266.619 261 C 267.316 261, 268.475 260.211, 269.193 259.246 C 269.912 258.281, 272.525 256.187, 275 254.592 C 302.704 236.745, 323.907 205.073, 330.867 171.138 C 333.945 156.131, 331.268 146.183, 321.518 136.404 C 308.901 123.747, 288.146 123.172, 274.529 135.101 C 272.395 136.971, 269.448 140.390, 267.981 142.700 L 265.312 146.900 263.124 143.007 C 256.826 131.802, 240.859 124.591, 227.434 126.889 M 359.750 127.080 C 358.138 128.019, 358 130.762, 358 161.850 C 358 186.767, 358.314 195.914, 359.200 196.800 C 360.081 197.681, 368.578 198, 391.200 198 L 422 198 422 228.965 C 422 259.475, 422.031 259.946, 424.117 261.062 C 429.076 263.717, 429.023 264.446, 429.023 194 C 429.023 123.554, 429.076 124.283, 424.117 126.938 C 422.058 128.039, 422 128.685, 422 150.336 L 422 172.602 416.938 167.850 C 410.251 161.572, 402.869 158.745, 392.992 158.681 C 384.197 158.623, 376.838 161.441, 370.259 167.385 C 368.058 169.373, 365.975 171, 365.629 171 C 365.283 171, 365 161.415, 365 149.700 C 365 126.191, 364.557 124.281, 359.750 127.080 M 223.385 135.617 C 213.726 139.043, 206 149.714, 206 159.631 C 206 180.461, 219.787 210.615, 238.604 230.939 C 243.879 236.637, 263.051 252, 264.887 252 C 267.353 252, 279.894 242.189, 289.129 233.035 C 304.641 217.659, 314.088 202.273, 320.464 182 C 324.193 170.142, 325.585 159.622, 324.124 154.343 C 319.844 138.883, 303.235 130.293, 287.795 135.554 C 278.574 138.696, 270 149.552, 270 158.086 C 270 162.853, 267.186 166.511, 264.239 165.576 C 261.919 164.840, 261.481 163.819, 260.560 156.995 C 259.285 147.558, 251.516 138.368, 242.101 135.159 C 237.535 133.602, 228.438 133.825, 223.385 135.617 M 383.627 167.468 C 375.862 170.236, 367.901 179.144, 366.394 186.750 L 365.750 190 393.394 190 L 421.038 190 420.377 187.250 C 416.589 171.488, 398.965 162.001, 383.627 167.468 M 103.571 191.571 C 102.707 192.436, 102 193.529, 102 194 C 102 194.471, 102.707 195.564, 103.571 196.429 C 104.936 197.793, 109.463 198, 138 198 C 166.537 198, 171.064 197.793, 172.429 196.429 C 173.293 195.564, 174 194.471, 174 194 C 174 193.529, 173.293 192.436, 172.429 191.571 C 171.064 190.207, 166.537 190, 138 190 C 109.463 190, 104.936 190.207, 103.571 191.571 " stroke="none" fill="black" fill-rule="evenodd"/>
</svg>