<svg xmlns="http://www.w3.org/2000/svg" width="308" height="324" viewBox="0 0 308 324" version="1.1">
	<path d="M 71.550 62.918 C 67.869 68.875, 54.190 98.331, 54.604 99.410 C 55.450 101.615, 58.110 102.210, 59.895 100.594 C 60.778 99.795, 64.185 93.709, 67.467 87.070 C 70.748 80.432, 73.687 75, 73.997 75 C 74.308 75, 77.453 80.837, 80.986 87.972 C 84.520 95.106, 88.050 101.189, 88.832 101.489 C 90.716 102.212, 93 100.227, 93 97.866 C 93 95.626, 77.264 63.831, 75.628 62.765 C 74.071 61.751, 72.229 61.820, 71.550 62.918 M 71.259 191.259 C 35.366 227.151, 6 257.044, 6 257.687 C 6 259.180, 8.780 261.985, 10.321 262.048 C 12.051 262.119, 140.988 131.776, 140.994 129.950 C 141.001 128.181, 139.104 126, 137.559 126 C 136.986 126, 107.151 155.366, 71.259 191.259 M 263.750 159.080 C 262.788 159.641, 262 160.858, 262 161.786 C 262 162.714, 267.956 169.442, 275.236 176.737 L 288.472 190 229.170 190 C 190.204 190, 169.205 190.355, 167.934 191.035 C 165.446 192.367, 165.446 195.633, 167.934 196.965 C 169.205 197.645, 190.204 198, 229.170 198 L 288.472 198 275.236 211.263 C 267.956 218.558, 262 225.292, 262 226.228 C 262 227.164, 262.960 228.443, 264.133 229.071 C 266.084 230.115, 267.752 228.729, 283.633 212.867 C 293.185 203.327, 301 194.837, 301 194 C 301 192.655, 267.224 157.954, 265.990 158.030 C 265.720 158.047, 264.712 158.519, 263.750 159.080 " stroke="none" fill="black" fill-rule="evenodd"/>
</svg>