<svg xmlns="http://www.w3.org/2000/svg" width="228" height="324" viewBox="0 0 228 324" version="1.1">
	<path d="M 64.500 126.944 C 56.325 128.268, 50.930 129.991, 43 133.814 C 32.444 138.903, 18.927 152.404, 13.778 163 C 7.648 175.615, 4.334 193.191, 7.491 196.348 C 9.547 198.404, 10.439 198.418, 12.429 196.429 C 13.379 195.478, 14 193.126, 14 190.478 C 14 183.304, 15.937 176.010, 20.235 167 C 25.856 155.216, 35.182 145.882, 47 140.211 C 51.675 137.968, 57.300 135.823, 59.500 135.445 L 63.500 134.757 50.750 147.714 C 43.737 154.841, 38 161.164, 38 161.765 C 38 163.179, 40.823 166, 42.239 166 C 42.841 166, 49.334 160.059, 56.667 152.798 L 70 139.595 70 199.226 C 70 252.103, 70.178 259.035, 71.571 260.429 C 73.545 262.402, 74.455 262.402, 76.429 260.429 C 77.822 259.035, 78 252.103, 78 199.226 L 78 139.595 91.333 152.798 C 98.666 160.059, 105.159 166, 105.761 166 C 107.177 166, 110 163.179, 110 161.765 C 110 161.164, 104.263 154.848, 97.250 147.730 C 85.264 135.565, 84.710 134.831, 88 135.483 C 89.925 135.865, 95.325 138.003, 100 140.234 C 118.953 149.277, 133 170.665, 133 190.478 C 133 193.126, 133.621 195.478, 134.571 196.429 C 136.561 198.418, 137.453 198.404, 139.509 196.348 C 142.666 193.191, 139.352 175.615, 133.222 163 C 128.088 152.433, 114.567 138.912, 104 133.778 C 91.545 127.725, 76.139 125.060, 64.500 126.944 M 183.571 159.571 C 181.243 161.900, 181.243 194.100, 183.571 196.429 C 184.436 197.293, 185.529 198, 186 198 C 186.471 198, 187.564 197.293, 188.429 196.429 C 189.733 195.124, 190 191.991, 190 178 C 190 164.009, 189.733 160.876, 188.429 159.571 C 187.564 158.707, 186.471 158, 186 158 C 185.529 158, 184.436 158.707, 183.571 159.571 M 179.500 207.458 C 171.339 210.437, 164.932 220.773, 166.559 228.334 C 168.762 238.566, 179.296 246.364, 188.334 244.452 C 199.355 242.121, 206.921 230.881, 204.052 221.102 C 200.828 210.116, 189.486 203.812, 179.500 207.458 M 177.400 217.400 C 174.498 220.302, 174 221.488, 174 225.500 C 174 229.512, 174.498 230.698, 177.400 233.600 C 180.302 236.502, 181.488 237, 185.500 237 C 189.512 237, 190.698 236.502, 193.600 233.600 C 196.502 230.698, 197 229.512, 197 225.500 C 197 221.488, 196.502 220.302, 193.600 217.400 C 190.698 214.498, 189.512 214, 185.500 214 C 181.488 214, 180.302 214.498, 177.400 217.400 " stroke="none" fill="black" fill-rule="evenodd"/>
</svg>