<svg xmlns="http://www.w3.org/2000/svg" width="244" height="324" viewBox="0 0 244 324" version="1.1">
	<path d="M 7.750 127.080 C 6.111 128.035, 6 132.293, 6 194.015 C 6 258.159, 6.052 259.957, 7.934 260.965 C 9.154 261.617, 21.876 262, 42.363 262 C 70.570 262, 75.064 261.793, 76.429 260.429 C 77.825 259.032, 78 251.628, 78 194 C 78 136.372, 77.825 128.968, 76.429 127.571 C 75.063 126.206, 70.580 126.004, 42.179 126.030 C 21.849 126.049, 8.839 126.446, 7.750 127.080 M 103.571 127.571 C 102.707 128.436, 102 129.665, 102 130.303 C 102 131.595, 229.442 259.542, 232.314 261.134 C 234.524 262.358, 237 260.651, 237 257.902 C 237 255.857, 108.290 125.908, 106.321 125.966 C 105.673 125.984, 104.436 126.707, 103.571 127.571 M 14 194 L 14 254 42 254 L 70 254 70 194 L 70 134 42 134 L 14 134 14 194 " stroke="none" fill="black" fill-rule="evenodd"/>
</svg>