<svg xmlns="http://www.w3.org/2000/svg" width="372" height="324" viewBox="0 0 372 324" version="1.1">
	<path d="M 63.102 127.108 C 37.640 130.961, 15.155 151.450, 8.349 177 C 6.078 185.527, 6.091 201.277, 8.377 210 C 11.585 222.239, 16.558 230.636, 26.461 240.535 C 40.482 254.550, 54.336 260.389, 73.500 260.362 C 92.781 260.334, 106.543 254.534, 120.539 240.539 C 134.606 226.472, 140.333 212.862, 140.333 193.500 C 140.333 174.138, 134.606 160.528, 120.539 146.461 C 110.823 136.745, 102.203 131.569, 90.831 128.621 C 83.080 126.612, 70.806 125.942, 63.102 127.108 M 58.645 135.584 C 38.671 140.419, 20.279 158.986, 15.537 179.103 C 12.241 193.087, 14.182 208.814, 20.757 221.397 C 24.627 228.803, 35.716 240.900, 41.726 244.272 L 44.884 246.045 42.522 241.772 C 33.471 225.405, 40.012 203.806, 56.767 194.738 C 73.800 185.519, 95.082 191.806, 104.262 208.767 C 109.859 219.107, 109.937 231.823, 104.465 241.772 L 102.116 246.045 105.274 244.272 C 111.284 240.900, 122.373 228.803, 126.243 221.397 C 135.328 204.010, 135.328 182.990, 126.243 165.603 C 118.839 151.435, 103.149 139.133, 87.897 135.537 C 79.998 133.676, 66.439 133.697, 58.645 135.584 M 263.571 143.571 C 262.707 144.436, 262 145.659, 262 146.290 C 262 147.969, 296.307 182, 298 182 C 299.693 182, 334 147.969, 334 146.290 C 334 144.827, 331.200 142, 329.751 142 C 329.143 142, 321.750 148.844, 313.323 157.208 L 298 172.416 282.677 157.208 C 274.250 148.844, 266.857 142, 266.249 142 C 265.640 142, 264.436 142.707, 263.571 143.571 M 183.571 159.571 C 181.243 161.900, 181.243 194.100, 183.571 196.429 C 184.436 197.293, 185.529 198, 186 198 C 186.471 198, 187.564 197.293, 188.429 196.429 C 189.733 195.124, 190 191.991, 190 178 C 190 164.009, 189.733 160.876, 188.429 159.571 C 187.564 158.707, 186.471 158, 186 158 C 185.529 158, 184.436 158.707, 183.571 159.571 M 231.571 191.571 C 230.207 192.936, 230 197.463, 230 226 C 230 254.537, 230.207 259.064, 231.571 260.429 C 232.436 261.293, 233.529 262, 234 262 C 234.471 262, 235.564 261.293, 236.429 260.429 C 237.788 259.069, 238 254.758, 238 228.429 L 238 198 298 198 L 358 198 358 228.429 C 358 254.758, 358.212 259.069, 359.571 260.429 C 361.545 262.402, 362.455 262.402, 364.429 260.429 C 365.793 259.064, 366 254.537, 366 226 C 366 197.463, 365.793 192.936, 364.429 191.571 C 363.032 190.175, 355.628 190, 298 190 C 240.372 190, 232.968 190.175, 231.571 191.571 M 63.605 199.568 C 56.049 202.337, 56.073 202.527, 65.170 211.671 L 73.457 220.001 81.692 211.809 C 90.838 202.711, 90.906 202.178, 83.260 199.573 C 77.620 197.651, 68.842 197.649, 63.605 199.568 M 180.648 206.983 C 173.587 209.208, 168.105 215.305, 166.548 222.666 C 164.196 233.782, 177.218 246.804, 188.334 244.452 C 199.355 242.121, 206.921 230.881, 204.052 221.102 C 201.022 210.775, 189.903 204.067, 180.648 206.983 M 50.184 210.278 C 46.139 215.152, 44.867 227.319, 47.573 235.260 C 50.178 242.906, 50.711 242.838, 59.809 233.692 L 68.001 225.457 59.671 217.170 C 52.854 210.389, 51.131 209.137, 50.184 210.278 M 87.191 217.308 L 78.999 225.543 87.329 233.830 C 96.530 242.983, 96.678 242.998, 99.487 235.038 C 101.439 229.503, 101.415 221.574, 99.427 215.740 C 96.822 208.094, 96.289 208.162, 87.191 217.308 M 177.400 217.400 C 174.498 220.302, 174 221.488, 174 225.500 C 174 229.512, 174.498 230.698, 177.400 233.600 C 180.302 236.502, 181.488 237, 185.500 237 C 189.512 237, 190.698 236.502, 193.600 233.600 C 196.502 230.698, 197 229.512, 197 225.500 C 197 221.488, 196.502 220.302, 193.600 217.400 C 190.698 214.498, 189.512 214, 185.500 214 C 181.488 214, 180.302 214.498, 177.400 217.400 M 65.170 239.329 C 56.017 248.530, 56.002 248.678, 63.962 251.487 C 69.497 253.439, 77.426 253.415, 83.260 251.427 C 90.906 248.822, 90.838 248.289, 81.692 239.191 L 73.457 230.999 65.170 239.329 " stroke="none" fill="black" fill-rule="evenodd"/>
</svg>