<svg xmlns="http://www.w3.org/2000/svg" width="372" height="324" viewBox="0 0 372 324" version="1.1">
	<path d="M 136.316 62.784 C 134.369 64.022, 118.007 97.855, 118.604 99.410 C 119.269 101.144, 121.524 102.120, 123.295 101.440 C 124.007 101.167, 127.480 95.106, 131.014 87.972 C 134.547 80.837, 137.691 75, 138 75 C 138.309 75, 141.453 80.837, 144.986 87.972 C 148.520 95.106, 151.993 101.167, 152.705 101.440 C 154.476 102.120, 156.731 101.144, 157.396 99.410 C 157.993 97.855, 141.631 64.022, 139.684 62.784 C 138.206 61.844, 137.794 61.844, 136.316 62.784 M 71.571 127.571 C 70.212 128.931, 70 133.242, 70 159.571 L 70 190 39.571 190 C 13.242 190, 8.931 190.212, 7.571 191.571 C 5.598 193.545, 5.598 194.455, 7.571 196.429 C 8.931 197.788, 13.242 198, 39.571 198 L 70 198 70 228.429 C 70 254.758, 70.212 259.069, 71.571 260.429 C 72.968 261.825, 80.372 262, 138 262 C 195.628 262, 203.032 261.825, 204.429 260.429 C 205.825 259.032, 206 251.628, 206 194 C 206 136.372, 205.825 128.968, 204.429 127.571 C 203.032 126.175, 195.628 126, 138 126 C 80.372 126, 72.968 126.175, 71.571 127.571 M 78 162 L 78 190 103.202 190 L 128.405 190 115.202 176.667 C 107.941 169.334, 102 162.841, 102 162.239 C 102 160.813, 104.825 158, 106.257 158 C 108.006 158, 142 192.239, 142 194 C 142 195.761, 108.006 230, 106.257 230 C 104.825 230, 102 227.187, 102 225.761 C 102 225.159, 107.941 218.666, 115.202 211.333 L 128.405 198 103.202 198 L 78 198 78 226 L 78 254 138 254 L 198 254 198 194 L 198 134 138 134 L 78 134 78 162 M 231.571 191.571 C 228.148 194.995, 231.242 198, 238.190 198 L 243.237 198 240.059 201.250 C 238.311 203.037, 235.467 207.370, 233.740 210.877 C 230.989 216.464, 230.600 218.277, 230.600 225.500 C 230.600 232.734, 230.988 234.533, 233.762 240.168 C 237.752 248.274, 242.695 253.232, 250.726 257.186 C 255.971 259.768, 258.270 260.305, 264.272 260.349 C 268.247 260.378, 273.351 259.861, 275.613 259.199 C 282.279 257.250, 290.433 251.249, 294.139 245.563 L 297.500 240.408 300.134 244.556 C 303.857 250.418, 307.560 253.614, 314.772 257.188 C 319.986 259.772, 322.261 260.305, 328.272 260.349 C 332.247 260.378, 337.351 259.861, 339.613 259.199 C 346.425 257.207, 354.390 251.278, 358.369 245.234 C 363.010 238.188, 364.415 233.261, 364.349 224.272 C 364.305 218.281, 363.767 215.969, 361.208 210.772 C 359.509 207.322, 356.689 203.037, 354.941 201.250 L 351.763 198 357.310 198 C 362.565 198, 366 196.419, 366 194 C 366 193.529, 365.293 192.436, 364.429 191.571 C 363.032 190.175, 355.628 190, 298 190 C 240.372 190, 232.968 190.175, 231.571 191.571 M 256.500 199.326 C 247.842 202.714, 247.821 202.273, 257.103 211.603 L 265.457 220.001 273.692 211.809 C 279.755 205.778, 281.656 203.291, 280.902 202.381 C 277.818 198.666, 262.946 196.804, 256.500 199.326 M 289.926 200.145 C 291.192 201.325, 293.446 204.211, 294.934 206.557 L 297.640 210.824 299.443 207.476 C 300.435 205.635, 302.594 202.749, 304.242 201.064 L 307.237 198 297.430 198 L 287.623 198 289.926 200.145 M 320.500 199.326 C 311.842 202.714, 311.821 202.273, 321.103 211.603 L 329.457 220.001 337.692 211.809 C 343.755 205.778, 345.656 203.291, 344.902 202.381 C 341.818 198.666, 326.946 196.804, 320.500 199.326 M 242.184 210.278 C 238.139 215.152, 236.867 227.319, 239.573 235.260 C 242.178 242.906, 242.711 242.838, 251.809 233.692 L 260.001 225.457 251.671 217.170 C 244.854 210.389, 243.131 209.137, 242.184 210.278 M 279.191 217.308 L 270.999 225.543 279.339 233.840 L 287.680 242.137 289.174 239.819 C 293.239 233.513, 294.153 223.740, 291.427 215.740 C 288.822 208.094, 288.289 208.162, 279.191 217.308 M 306.184 210.278 C 302.139 215.152, 300.867 227.319, 303.573 235.260 C 306.178 242.906, 306.711 242.838, 315.809 233.692 L 324.001 225.457 315.671 217.170 C 308.854 210.389, 307.131 209.137, 306.184 210.278 M 343.191 217.308 L 334.999 225.543 343.339 233.840 L 351.680 242.137 353.174 239.819 C 357.239 233.513, 358.153 223.740, 355.427 215.740 C 352.822 208.094, 352.289 208.162, 343.191 217.308 M 257.160 239.339 L 248.863 247.680 251.181 249.174 C 257.487 253.239, 267.260 254.153, 275.260 251.427 C 282.906 248.822, 282.838 248.289, 273.692 239.191 L 265.457 230.999 257.160 239.339 M 321.160 239.339 L 312.863 247.680 315.181 249.174 C 321.487 253.239, 331.260 254.153, 339.260 251.427 C 346.906 248.822, 346.838 248.289, 337.692 239.191 L 329.457 230.999 321.160 239.339 " stroke="none" fill="black" fill-rule="evenodd"/>
</svg>