<svg xmlns="http://www.w3.org/2000/svg" width="420" height="324" viewBox="0 0 420 324" version="1.1">
	<path d="M 65.384 63.412 C 47.480 67.757, 35.543 85.833, 38.993 103.372 C 40.490 110.981, 43.011 115.971, 48.198 121.599 L 52.255 126 30.699 126 C 12.436 126, 8.903 126.240, 7.571 127.571 C 5.598 129.545, 5.598 130.455, 7.571 132.429 C 8.931 133.788, 13.242 134, 39.571 134 L 70 134 70 194 L 70 254 55.571 254 C 43.788 254, 40.855 254.288, 39.571 255.571 C 37.598 257.545, 37.598 258.455, 39.571 260.429 C 40.936 261.793, 45.463 262, 74 262 C 102.537 262, 107.064 261.793, 108.429 260.429 C 110.402 258.455, 110.402 257.545, 108.429 255.571 C 107.145 254.288, 104.212 254, 92.429 254 L 78 254 78 194 L 78 134 108.429 134 C 134.758 134, 139.069 133.788, 140.429 132.429 C 142.402 130.455, 142.402 129.545, 140.429 127.571 C 139.095 126.238, 135.519 126, 116.801 126 L 94.745 126 98.802 121.599 C 117.504 101.310, 107.910 69.660, 81.147 63.360 C 74.397 61.772, 72.111 61.779, 65.384 63.412 M 63.054 71.728 C 57.018 73.859, 49.781 81.260, 47.667 87.463 C 42.058 103.925, 50.847 120.571, 67.250 124.550 L 70 125.217 70 97.608 C 70 76.146, 69.722 70.018, 68.750 70.079 C 68.063 70.122, 65.499 70.864, 63.054 71.728 M 78 97.500 L 78 125.135 80.250 124.475 C 93.167 120.686, 101 110.503, 101 97.500 C 101 84.497, 93.167 74.314, 80.250 70.525 L 78 69.865 78 97.500 M 319.102 127.108 C 293.640 130.961, 271.155 151.450, 264.349 177 C 262.078 185.527, 262.091 201.277, 264.377 210 C 268.425 225.445, 279.723 241.088, 293.178 249.880 C 298.404 253.295, 298.905 253.877, 296.868 254.166 C 295.261 254.394, 293.512 256.175, 291.366 259.771 C 286.032 268.710, 286.020 277.240, 291.329 286.299 C 295.445 293.322, 298.818 294.830, 301.365 290.786 C 302.210 289.445, 301.955 288.466, 300.195 286.286 C 294.047 278.673, 293.378 269.390, 298.450 262.072 C 300.244 259.483, 301.047 257.289, 300.695 255.941 C 300.257 254.268, 300.486 253.986, 301.823 254.549 C 308.908 257.535, 313.169 258.903, 317.335 259.528 C 321.669 260.177, 322.100 260.471, 321.516 262.376 C 317.854 274.313, 318.815 280.596, 325.713 289.807 C 328.383 293.374, 331.482 293.798, 333.329 290.851 C 334.102 289.618, 333.876 288.523, 332.431 286.509 C 326.779 278.628, 325.570 272.358, 328.398 265.590 C 330.179 261.328, 330.715 261.031, 338.682 259.903 C 342.320 259.388, 348.303 257.920, 351.979 256.642 L 358.663 254.318 355.444 259.662 C 350.031 268.652, 349.994 277.195, 355.329 286.299 C 359.445 293.322, 362.818 294.830, 365.365 290.786 C 366.210 289.445, 365.955 288.466, 364.195 286.286 C 358.066 278.696, 357.380 269.388, 362.415 262.123 C 365.601 257.526, 365.497 254.645, 362.127 254.166 C 360.097 253.877, 360.602 253.291, 365.822 249.880 C 374.505 244.206, 384.984 232.576, 389.313 223.806 C 394.458 213.383, 396.333 205.288, 396.333 193.500 C 396.333 174.138, 390.606 160.528, 376.539 146.461 C 366.823 136.745, 358.203 131.569, 346.831 128.621 C 339.080 126.612, 326.806 125.942, 319.102 127.108 M 314.645 135.584 C 294.671 140.419, 276.279 158.986, 271.537 179.103 C 266.672 199.742, 272.569 220.600, 287.484 235.516 C 302.400 250.431, 323.258 256.328, 343.897 251.463 C 364.261 246.662, 382.662 228.261, 387.463 207.897 C 389.390 199.718, 389.390 187.282, 387.463 179.103 C 382.662 158.739, 364.261 140.338, 343.897 135.537 C 335.998 133.676, 322.439 133.697, 314.645 135.584 M 295.571 159.571 C 294.707 160.436, 294 161.529, 294 162 C 294 163.111, 296.889 166, 298 166 C 299.111 166, 302 163.111, 302 162 C 302 160.889, 299.111 158, 298 158 C 297.529 158, 296.436 158.707, 295.571 159.571 M 327.571 159.571 C 326.212 160.931, 326 165.242, 326 191.571 L 326 222 311.571 222 C 299.788 222, 296.855 222.288, 295.571 223.571 C 293.598 225.545, 293.598 226.455, 295.571 228.429 C 296.936 229.793, 301.463 230, 330 230 C 358.537 230, 363.064 229.793, 364.429 228.429 C 366.402 226.455, 366.402 225.545, 364.429 223.571 C 363.145 222.288, 360.212 222, 348.429 222 L 334 222 334 191.571 C 334 165.242, 333.788 160.931, 332.429 159.571 C 331.564 158.707, 330.471 158, 330 158 C 329.529 158, 328.436 158.707, 327.571 159.571 M 359.571 159.571 C 358.707 160.436, 358 161.529, 358 162 C 358 163.111, 360.889 166, 362 166 C 363.111 166, 366 163.111, 366 162 C 366 160.889, 363.111 158, 362 158 C 361.529 158, 360.436 158.707, 359.571 159.571 M 167.571 191.571 C 166.707 192.436, 166 193.529, 166 194 C 166 194.471, 166.707 195.564, 167.571 196.429 C 168.855 197.712, 171.788 198, 183.571 198 L 198 198 198 226 L 198 254 183.571 254 C 171.788 254, 168.855 254.288, 167.571 255.571 C 165.598 257.545, 165.598 258.455, 167.571 260.429 C 168.936 261.793, 173.463 262, 202 262 C 230.537 262, 235.064 261.793, 236.429 260.429 C 238.402 258.455, 238.402 257.545, 236.429 255.571 C 235.145 254.288, 232.212 254, 220.429 254 L 206 254 206 226 L 206 198 220.429 198 C 232.212 198, 235.145 197.712, 236.429 196.429 C 237.293 195.564, 238 194.471, 238 194 C 238 193.529, 237.293 192.436, 236.429 191.571 C 235.064 190.207, 230.537 190, 202 190 C 173.463 190, 168.936 190.207, 167.571 191.571 M 391.282 271.282 C 381.777 280.787, 374 289.193, 374 289.963 C 374 290.733, 381.313 298.726, 390.250 307.725 C 405.545 323.126, 406.701 324.070, 409.923 323.794 C 411.805 323.632, 413.541 322.906, 413.779 322.180 C 414.018 321.454, 407.322 313.917, 398.899 305.430 L 383.584 290 398.792 274.677 C 407.156 266.250, 414 258.857, 414 258.249 C 414 256.800, 411.173 254, 409.710 254 C 409.079 254, 400.787 261.777, 391.282 271.282 " stroke="none" fill="black" fill-rule="evenodd"/>
</svg>