<svg xmlns="http://www.w3.org/2000/svg" width="340" height="324" viewBox="0 0 340 324" version="1.1">
	<path d="M 39.571 127.571 C 38.176 128.966, 38 136.152, 38 191.571 L 38 254 23.571 254 C 11.788 254, 8.855 254.288, 7.571 255.571 C 5.598 257.545, 5.598 258.455, 7.571 260.429 C 8.936 261.793, 13.463 262, 42 262 C 70.537 262, 75.064 261.793, 76.429 260.429 C 77.293 259.564, 78 258.471, 78 258 C 78 257.529, 77.293 256.436, 76.429 255.571 C 75.145 254.288, 72.212 254, 60.429 254 L 46 254 46 191.571 C 46 136.152, 45.824 128.966, 44.429 127.571 C 43.564 126.707, 42.471 126, 42 126 C 41.529 126, 40.436 126.707, 39.571 127.571 M 157.500 127.404 C 129.025 132.884, 107.591 155.159, 103.041 184 C 101.655 192.780, 101.733 194.590, 103.571 196.429 C 106.992 199.849, 110 196.758, 110 189.823 C 110 171.332, 123.726 150.010, 141.603 140.732 C 175.754 123.007, 217.534 141.490, 227.003 178.511 C 228.101 182.806, 229 188.241, 229 190.589 C 229 194.538, 230.844 198, 232.949 198 C 235.096 198, 236.311 194.526, 236.110 188.962 C 235.131 161.816, 213.599 135.639, 186.483 128.629 C 177.666 126.349, 165.625 125.840, 157.500 127.404 M 295.285 159.230 C 276.978 177.506, 262 193.166, 262 194.030 C 262 197.785, 263.648 198, 292.444 198 L 320.487 198 291.244 227.256 C 275.160 243.347, 262 257.281, 262 258.221 C 262 259.752, 265.641 262.655, 266.528 261.831 C 273.086 255.740, 334 194.397, 334 193.884 C 334 193.476, 333.293 192.436, 332.429 191.571 C 331.074 190.217, 326.963 190, 302.685 190 L 274.513 190 303.756 160.744 C 319.840 144.653, 333 130.793, 333 129.944 C 333 128.191, 331.103 126, 329.585 126 C 329.026 126, 313.591 140.953, 295.285 159.230 M 135.244 223.256 C 116.960 241.546, 102 257.206, 102 258.056 C 102 261.988, 102.206 262, 169.629 262 C 227.594 262, 235.032 261.825, 236.429 260.429 C 237.293 259.564, 238 258.334, 238 257.695 C 238 255.968, 171.714 190, 169.978 190 C 169.159 190, 153.529 204.965, 135.244 223.256 M 142.500 227 L 115.514 254 170 254 L 224.486 254 197.500 227 C 182.658 212.150, 170.283 200, 170 200 C 169.717 200, 157.342 212.150, 142.500 227 " stroke="none" fill="black" fill-rule="evenodd"/>
</svg>