<svg xmlns="http://www.w3.org/2000/svg" width="372" height="324" viewBox="0 0 372 324" version="1.1">
	<path d="M 71.571 127.571 C 70.288 128.855, 70 131.788, 70 143.571 L 70 158 55.571 158 C 43.788 158, 40.855 158.288, 39.571 159.571 C 38.219 160.924, 38 164.988, 38 188.774 L 38 216.405 24.667 203.202 C 17.334 195.941, 10.841 190, 10.239 190 C 8.791 190, 6 192.834, 6 194.305 C 6 195.823, 72.177 262, 73.695 262 C 74.334 262, 75.564 261.293, 76.429 260.429 C 77.712 259.145, 78 256.212, 78 244.429 L 78 230 92.429 230 C 104.212 230, 107.145 229.712, 108.429 228.429 C 109.793 227.064, 110 222.537, 110 194 C 110 165.463, 109.793 160.936, 108.429 159.571 C 107.145 158.288, 104.212 158, 92.429 158 L 78 158 78 143.571 C 78 131.788, 77.712 128.855, 76.429 127.571 C 75.564 126.707, 74.471 126, 74 126 C 73.529 126, 72.436 126.707, 71.571 127.571 M 322.223 159.012 C 311.933 161.160, 301.981 169.443, 297.216 179.825 C 295.092 184.453, 294.610 186.998, 294.606 193.623 C 294.601 200.746, 294.994 202.545, 297.800 208.245 C 301.618 216.001, 307.965 222.176, 315.825 225.784 C 323.894 229.488, 335.106 229.488, 343.175 225.784 C 351.035 222.176, 357.382 216.001, 361.200 208.245 C 364.016 202.526, 364.400 200.755, 364.400 193.500 C 364.400 186.245, 364.016 184.474, 361.200 178.755 C 353.955 164.039, 337.665 155.788, 322.223 159.012 M 46 194 L 46 222 58 222 L 70 222 70 194 L 70 166 58 166 L 46 166 46 194 M 78 194 L 78 222 90 222 L 102 222 102 194 L 102 166 90 166 L 78 166 78 194 M 320.500 167.227 C 315.591 168.977, 309.568 173.567, 306.804 177.663 C 303.063 183.207, 301.723 188.353, 302.195 195.349 C 303.162 209.654, 313.349 219.839, 327.659 220.805 C 335.989 221.368, 342.768 219.022, 348.259 213.674 C 354.701 207.400, 356.500 202.997, 356.500 193.500 C 356.500 187.546, 355.994 184.477, 354.523 181.500 C 351.688 175.767, 344.795 169.459, 339.329 167.597 C 334.052 165.798, 325.007 165.621, 320.500 167.227 M 135.571 191.571 C 134.707 192.436, 134 193.666, 134 194.305 C 134 195.823, 200.177 262, 201.695 262 C 203.186 262, 206 259.201, 206 257.718 C 206 257.091, 192.848 243.398, 176.773 227.289 L 147.545 198 207.201 198 C 260.101 198, 267.035 197.822, 268.429 196.429 C 269.293 195.564, 270 194.471, 270 194 C 270 193.529, 269.293 192.436, 268.429 191.571 C 267.032 190.175, 259.628 190, 202 190 C 144.372 190, 136.968 190.175, 135.571 191.571 M 327.571 191.571 C 326.707 192.436, 326 193.529, 326 194 C 326 195.111, 328.889 198, 330 198 C 331.111 198, 334 195.111, 334 194 C 334 192.889, 331.111 190, 330 190 C 329.529 190, 328.436 190.707, 327.571 191.571 M 60.500 239 C 65.427 243.950, 69.580 248, 69.729 248 C 69.878 248, 70 243.950, 70 239 L 70 230 60.771 230 L 51.542 230 60.500 239 " stroke="none" fill="black" fill-rule="evenodd"/>
</svg>