<svg xmlns="http://www.w3.org/2000/svg" width="372" height="324" viewBox="0 0 372 324" version="1.1">
	<path d="M 55.571 63.571 C 54.707 64.436, 54 65.317, 54 65.531 C 54 67.066, 71.449 100.669, 72.574 101.300 C 73.358 101.740, 74.642 101.740, 75.426 101.300 C 77.484 100.146, 94.052 66.300, 93.396 64.590 C 92.731 62.856, 90.476 61.880, 88.705 62.560 C 87.993 62.833, 84.520 68.894, 80.986 76.028 C 77.453 83.163, 74.308 89, 73.997 89 C 73.687 89, 70.748 83.534, 67.467 76.853 C 59.925 61.499, 58.847 60.296, 55.571 63.571 M 7.571 127.571 C 6.175 128.968, 6 136.372, 6 194 C 6 251.628, 6.175 259.032, 7.571 260.429 C 8.968 261.825, 16.372 262, 74 262 C 131.628 262, 139.032 261.825, 140.429 260.429 C 141.788 259.069, 142 254.758, 142 228.429 L 142 198 167.202 198 L 192.405 198 179.202 211.333 C 171.941 218.666, 166 225.159, 166 225.761 C 166 227.187, 168.825 230, 170.257 230 C 172.006 230, 206 195.761, 206 194 C 206 192.239, 172.006 158, 170.257 158 C 168.825 158, 166 160.813, 166 162.239 C 166 162.841, 171.941 169.334, 179.202 176.667 L 192.405 190 167.202 190 L 142 190 142 159.571 C 142 133.242, 141.788 128.931, 140.429 127.571 C 139.032 126.175, 131.628 126, 74 126 C 16.372 126, 8.968 126.175, 7.571 127.571 M 14 194 L 14 254 74 254 L 134 254 134 226 L 134 198 103.571 198 C 77.242 198, 72.931 197.788, 71.571 196.429 C 70.707 195.564, 70 194.471, 70 194 C 70 193.529, 70.707 192.436, 71.571 191.571 C 72.931 190.212, 77.242 190, 103.571 190 L 134 190 134 162 L 134 134 74 134 L 14 134 14 194 M 263.571 159.571 C 262.207 160.936, 262 165.463, 262 194 C 262 222.537, 262.207 227.064, 263.571 228.429 C 264.936 229.793, 269.463 230, 298 230 C 326.537 230, 331.064 229.793, 332.429 228.429 C 333.793 227.064, 334 222.537, 334 194 C 334 165.463, 333.793 160.936, 332.429 159.571 C 331.064 158.207, 326.537 158, 298 158 C 269.463 158, 264.936 158.207, 263.571 159.571 M 270 194 L 270 222 298 222 L 326 222 326 194 L 326 166 298 166 L 270 166 270 194 M 231.491 191.652 C 230.141 193.002, 229.968 194.418, 230.543 199.402 C 232.546 216.744, 238.065 228.143, 250.461 240.539 C 264.524 254.602, 278.216 260.376, 297.500 260.376 C 316.784 260.376, 330.476 254.602, 344.539 240.539 C 356.935 228.143, 362.454 216.744, 364.457 199.402 C 365.032 194.418, 364.859 193.002, 363.509 191.652 C 362.601 190.743, 361.471 190, 361 190 C 358.946 190, 357 193.416, 357 197.022 C 357 216.251, 342.630 237.865, 323.899 246.809 C 314.069 251.503, 307.687 253, 297.500 253 C 287.313 253, 280.931 251.503, 271.101 246.809 C 252.370 237.865, 238 216.251, 238 197.022 C 238 193.416, 236.054 190, 234 190 C 233.529 190, 232.399 190.743, 231.491 191.652 " stroke="none" fill="black" fill-rule="evenodd"/>
</svg>