<svg xmlns="http://www.w3.org/2000/svg" width="308" height="324" viewBox="0 0 308 324" version="1.1">
	<path d="M 7.571 127.571 C 6.175 128.968, 6 136.372, 6 194 C 6 251.628, 6.175 259.032, 7.571 260.429 C 8.936 261.793, 13.463 262, 42 262 C 70.537 262, 75.064 261.793, 76.429 260.429 C 77.825 259.032, 78 251.628, 78 194 C 78 136.372, 77.825 128.968, 76.429 127.571 C 75.064 126.207, 70.537 126, 42 126 C 13.463 126, 8.936 126.207, 7.571 127.571 M 162.344 127 C 149.330 129.704, 138.388 140.630, 134.927 154.377 C 133.912 158.408, 133.425 159, 131.131 159.001 C 126.893 159.002, 116.844 164.410, 112.301 169.134 C 102.366 179.464, 99.577 194.928, 105.361 207.610 C 108.861 215.285, 115.689 222.075, 123.480 225.629 C 131.387 229.236, 141.732 229.409, 150.297 226.077 C 157.401 223.313, 165.609 215.578, 168.949 208.500 C 172.167 201.680, 172.892 190.022, 170.544 182.845 C 166.965 171.904, 158.314 163.293, 147.794 160.202 C 141.232 158.273, 140.805 157.219, 143.867 150.500 C 148.392 140.574, 156.351 134.994, 167.078 134.227 C 180.939 133.235, 191.827 140.734, 195.662 153.916 C 196.984 158.457, 197.052 160.476, 196.085 166.416 C 193.458 182.561, 186.936 199.122, 177.433 213.781 C 170.141 225.031, 152.275 242.884, 141.838 249.350 C 133.865 254.290, 132.182 256.309, 134.105 258.627 C 136.002 260.912, 138.403 260.222, 146.153 255.163 C 174.929 236.378, 195.590 205.884, 202.500 172 C 206.053 154.580, 201.638 141.351, 189.481 132.987 C 181.580 127.551, 170.963 125.209, 162.344 127 M 263.244 159.256 C 244.960 177.546, 230 193.206, 230 194.056 C 230 197.782, 231.684 198, 260.444 198 L 288.487 198 259.244 227.256 C 243.160 243.347, 230 257.281, 230 258.221 C 230 259.161, 230.961 260.444, 232.136 261.073 C 234.103 262.126, 236.918 259.572, 267.636 228.864 C 285.986 210.520, 301 194.811, 301 193.956 C 301 190.217, 299.331 190, 270.556 190 L 242.513 190 271.756 160.744 C 287.840 144.653, 301 130.793, 301 129.944 C 301 128.171, 299.098 126, 297.544 126 C 296.964 126, 281.529 140.965, 263.244 159.256 M 14 194 L 14 254 42 254 L 70 254 70 194 L 70 134 42 134 L 14 134 14 194 M 127.627 167.468 C 122.247 169.386, 117.039 173.829, 113.500 179.519 C 109.527 185.908, 108.712 197.311, 111.741 204.129 C 116.389 214.589, 124.227 220.058, 135.616 220.789 C 142.399 221.224, 143.556 221.001, 149.397 218.125 C 161.374 212.229, 167.511 198.958, 164.096 186.337 C 160.933 174.647, 149.616 165.959, 137.663 166.044 C 134.273 166.068, 129.757 166.709, 127.627 167.468 " stroke="none" fill="black" fill-rule="evenodd"/>
</svg>