<svg xmlns="http://www.w3.org/2000/svg" width="308" height="324" viewBox="0 0 308 324" version="1.1">
	<path d="M 71.550 62.918 C 67.869 68.875, 54.190 98.331, 54.604 99.410 C 55.269 101.144, 57.524 102.120, 59.295 101.440 C 60.007 101.167, 63.480 95.106, 67.014 87.972 C 70.547 80.837, 73.691 75, 74 75 C 74.309 75, 77.453 80.837, 80.986 87.972 C 84.520 95.106, 88.050 101.189, 88.832 101.489 C 90.716 102.212, 93 100.227, 93 97.866 C 93 95.626, 77.264 63.831, 75.628 62.765 C 74.071 61.751, 72.229 61.820, 71.550 62.918 M 167.200 127.200 C 165.465 128.935, 165.465 259.065, 167.200 260.800 C 168.935 262.535, 298.065 262.535, 299.800 260.800 C 301.535 259.065, 301.535 128.935, 299.800 127.200 C 298.065 125.465, 168.935 125.465, 167.200 127.200 M 173 194 L 173 254 233.500 254 L 294 254 294 194 L 294 134 233.500 134 L 173 134 173 194 M 103.616 159.527 C 102.727 160.416, 102 161.636, 102 162.239 C 102 162.841, 107.941 169.334, 115.202 176.667 L 128.405 190 68.774 190 C 15.897 190, 8.965 190.178, 7.571 191.571 C 5.598 193.545, 5.598 194.455, 7.571 196.429 C 8.965 197.822, 15.897 198, 68.774 198 L 128.405 198 115.202 211.333 C 107.941 218.666, 102 225.159, 102 225.761 C 102 227.200, 104.997 230.172, 106.068 229.795 C 107.353 229.342, 142 194.827, 142 194 C 142 193.173, 107.353 158.658, 106.068 158.205 C 105.608 158.043, 104.505 158.638, 103.616 159.527 M 226.355 158.998 C 216.040 161.143, 206.046 169.099, 201.244 178.987 C 198.948 183.715, 198.567 185.781, 198.567 193.500 C 198.567 201.219, 198.948 203.285, 201.244 208.013 C 204.869 215.478, 211.195 221.667, 218.942 225.326 C 232.984 231.958, 251.197 227.609, 260.508 215.400 C 275.051 196.334, 267.202 168.333, 245.132 160.547 C 239.788 158.661, 231.330 157.964, 226.355 158.998 M 221.500 168.387 C 200.908 178.139, 200.314 207.797, 220.500 218.246 C 226.710 221.460, 237.254 221.807, 243.754 219.010 C 253.560 214.792, 261 203.787, 261 193.500 C 261 183.480, 253.989 172.797, 244.500 168.358 C 237.594 165.128, 228.358 165.140, 221.500 168.387 M 231.750 191.080 C 229.372 192.465, 229.542 195.685, 232.064 197.034 C 235.753 199.008, 238.819 194.219, 235.800 191.200 C 234.367 189.767, 234.022 189.757, 231.750 191.080 " stroke="none" fill="black" fill-rule="evenodd"/>
</svg>