<svg xmlns="http://www.w3.org/2000/svg" width="244" height="324" viewBox="0 0 244 324" version="1.1">
	<path d="M 39.571 127.571 C 38.176 128.966, 38 136.152, 38 191.571 L 38 254 23.571 254 C 11.788 254, 8.855 254.288, 7.571 255.571 C 5.598 257.545, 5.598 258.455, 7.571 260.429 C 8.936 261.793, 13.463 262, 42 262 C 70.537 262, 75.064 261.793, 76.429 260.429 C 77.293 259.564, 78 258.471, 78 258 C 78 257.529, 77.293 256.436, 76.429 255.571 C 75.145 254.288, 72.212 254, 60.429 254 L 46 254 46 191.571 C 46 136.152, 45.824 128.966, 44.429 127.571 C 43.564 126.707, 42.471 126, 42 126 C 41.529 126, 40.436 126.707, 39.571 127.571 M 103.473 191.670 C 101.126 194.017, 102.276 203.997, 106.161 215 C 107.812 219.675, 109.163 224.400, 109.163 225.500 C 109.163 226.600, 107.817 231.325, 106.172 236 C 102.342 246.885, 101.118 257.975, 103.486 260.343 C 107.035 263.892, 110 260.840, 110 253.639 C 110 248.363, 112.142 238.471, 114.061 234.886 C 115.030 233.075, 115.356 233.237, 118.646 237.175 C 126.843 246.986, 140.199 255.335, 153 258.650 C 161.671 260.895, 177.440 260.855, 186 258.566 C 196.922 255.645, 207.597 249.426, 216.186 240.981 C 223.805 233.490, 223.882 233.445, 224.982 235.861 C 226.843 239.944, 228.970 250.227, 228.985 255.215 C 228.997 258.946, 229.431 260.160, 231.064 261.034 C 232.596 261.854, 233.498 261.832, 234.564 260.947 C 237.829 258.238, 235.115 239.027, 230.072 229.141 C 228.253 225.577, 228.253 225.396, 230.068 221.859 C 233.015 216.115, 236 204.054, 236 197.893 C 236 191.366, 234.431 189.164, 231.064 190.966 C 229.484 191.811, 228.997 193.060, 228.985 196.285 C 228.969 200.861, 226.767 211.223, 224.974 215.158 C 223.863 217.597, 223.805 217.563, 216.178 210.004 C 193.895 187.922, 160.990 184.104, 134.041 200.475 C 130.895 202.386, 125.436 206.880, 121.911 210.462 C 118.385 214.044, 115.199 216.980, 114.830 216.987 C 113.540 217.012, 110.831 206.924, 110.115 199.428 C 109.650 194.564, 108.875 191.533, 107.946 190.945 C 105.935 189.673, 105.380 189.763, 103.473 191.670 M 154.645 199.584 C 144.718 201.987, 135.314 207.577, 126.750 216.164 C 122.487 220.439, 119 224.640, 119 225.500 C 119 228.511, 134.116 242.409, 141.603 246.281 C 166.838 259.332, 198.490 252.901, 215.464 231.275 L 219.876 225.654 216.688 221.197 C 209.630 211.329, 196.672 202.853, 183.540 199.515 C 176.213 197.653, 162.488 197.685, 154.645 199.584 " stroke="none" fill="black" fill-rule="evenodd"/>
</svg>