<svg xmlns="http://www.w3.org/2000/svg" width="292" height="324" viewBox="0 0 292 324" version="1.1">
	<path d="M 247.200 63.200 C 245.512 64.888, 245.512 99.112, 247.200 100.800 C 248.605 102.205, 281.658 102.503, 283.823 101.130 C 284.842 100.485, 285.146 96.083, 285.146 82 C 285.146 67.917, 284.842 63.515, 283.823 62.870 C 281.658 61.497, 248.605 61.795, 247.200 63.200 M 253 82 L 253 94 265.500 94 L 278 94 278 82 L 278 70 265.500 70 L 253 70 253 82 M 263.750 127.080 C 262.111 128.035, 262 132.293, 262 194.015 C 262 259.587, 262.011 259.935, 264.064 261.034 C 269.084 263.721, 269 264.854, 269 194.078 C 269 123.068, 269.071 123.981, 263.750 127.080 M 33.384 159.357 C 15.361 163.923, 3.562 181.820, 6.987 199.396 C 10.713 218.519, 28.557 231.395, 46.698 228.051 C 69.327 223.881, 81.966 201.817, 73.934 180.507 C 68.097 165.023, 49.437 155.290, 33.384 159.357 M 31.054 167.728 C 25.018 169.859, 17.781 177.260, 15.667 183.463 C 11.995 194.241, 14.382 205.477, 21.952 213.048 C 35.282 226.377, 58.301 222.474, 66.465 205.500 C 69.166 199.886, 69.632 190.420, 67.522 184.067 C 65.251 177.229, 58.125 169.912, 51.556 167.674 C 45.518 165.616, 36.970 165.639, 31.054 167.728 M 103.571 191.571 C 102.707 192.436, 102.016 194.123, 102.035 195.321 C 102.116 200.409, 104.945 213.021, 107.357 219.049 L 109.959 225.555 107.072 233.027 C 103.977 241.040, 101.467 254.741, 102.408 258.489 C 103.180 261.565, 105.855 262.442, 108.145 260.369 C 109.493 259.149, 110 257.287, 110 253.555 C 110 248.488, 112.141 238.474, 113.944 235.105 C 114.740 233.618, 116.046 234.514, 123.185 241.442 C 136.685 254.542, 150.924 260.345, 169.500 260.319 C 187.941 260.292, 202.848 254.095, 216.309 240.860 L 224.118 233.181 225.129 235.838 C 226.974 240.693, 228.970 250.443, 228.985 254.679 C 228.999 258.476, 230.869 262, 232.871 262 C 238.003 262, 236.244 241.180, 230.101 229.206 C 228.299 225.693, 228.306 225.574, 230.590 220.572 C 236.646 207.309, 237.938 190, 232.871 190 C 230.992 190, 228.999 193.499, 228.985 196.821 C 228.970 200.643, 226.888 210.534, 225.121 215.183 L 224.103 217.860 216.301 210.068 C 209.893 203.668, 206.803 201.465, 199 197.735 C 187.245 192.115, 181.027 190.612, 169.500 190.607 C 149.734 190.597, 130.509 199.465, 118.302 214.224 C 115.318 217.832, 115.046 217.954, 114.065 216.122 C 112.225 212.684, 110 202.734, 110 197.945 C 110 194.725, 109.442 192.805, 108.171 191.655 C 105.915 189.613, 105.537 189.606, 103.571 191.571 M 154.788 199.551 C 144.491 202.048, 135.228 207.513, 126.750 216.093 C 122.487 220.406, 119 224.640, 119 225.500 C 119 226.360, 122.487 230.594, 126.750 234.907 C 138.859 247.162, 152.442 253, 168.845 253 C 179.674 253, 185.916 251.576, 195.820 246.847 C 201.937 243.927, 205.935 241.104, 210.920 236.187 C 220.715 226.524, 220.814 226.210, 215.979 220.093 C 208.154 210.194, 194.458 201.686, 182.201 199.113 C 175.132 197.628, 161.843 197.841, 154.788 199.551 M 7.571 255.571 C 6.707 256.436, 6 257.529, 6 258 C 6 258.471, 6.707 259.564, 7.571 260.429 C 8.936 261.793, 13.463 262, 42 262 C 70.537 262, 75.064 261.793, 76.429 260.429 C 77.293 259.564, 78 258.471, 78 258 C 78 257.529, 77.293 256.436, 76.429 255.571 C 75.064 254.207, 70.537 254, 42 254 C 13.463 254, 8.936 254.207, 7.571 255.571 " stroke="none" fill="black" fill-rule="evenodd"/>
</svg>