<svg xmlns="http://www.w3.org/2000/svg" width="308" height="324" viewBox="0 0 308 324" version="1.1">
	<path d="M 66.873 158.896 C 51.713 162.026, 38.871 176.639, 38.606 191.061 L 38.500 196.813 35.101 195.395 C 30.386 193.429, 21.564 191.309, 14.877 190.537 C 10.402 190.020, 8.923 190.220, 7.627 191.515 C 6.732 192.411, 6 193.529, 6 194 C 6 196.122, 9.426 198.001, 13.321 198.015 C 31.886 198.080, 53.672 212.320, 62.330 230.046 C 65.956 237.472, 69 247.357, 69 251.710 L 69 254 39.071 254 C 13.197 254, 8.930 254.213, 7.571 255.571 C 5.596 257.546, 5.598 258.455, 7.579 260.436 C 8.990 261.847, 16.058 261.987, 74.220 261.757 C 134.934 261.517, 139.356 261.383, 140.386 259.750 C 141.191 258.474, 141.191 257.526, 140.386 256.250 C 139.381 254.655, 136.559 254.477, 108.505 254.235 L 77.728 253.971 78.373 248.485 C 80.420 231.067, 93.525 212.797, 109.877 204.562 C 117.954 200.494, 123.281 198.974, 132.395 198.135 C 139.995 197.435, 142.509 195.577, 140.358 192.250 C 138.267 189.014, 121.256 191.139, 110.240 196.012 C 106.895 197.492, 106.074 197.615, 107.001 196.499 C 108.894 194.217, 107.791 184.268, 105.003 178.486 C 101.547 171.317, 93.618 163.749, 86.951 161.255 C 80.508 158.844, 71.979 157.842, 66.873 158.896 M 63.463 167.591 C 54.258 170.860, 47.597 179.431, 46.173 189.840 C 45.620 193.890, 44.708 196.493, 43.547 197.342 C 41.927 198.527, 42.219 198.932, 46.826 201.889 C 55.275 207.310, 64.370 217.832, 69.267 227.850 L 73.619 236.752 75.278 232.079 C 78.946 221.753, 89.603 208.688, 100.153 201.583 C 104.446 198.692, 104.928 198.059, 103.459 197.237 C 102.349 196.616, 101.417 194.210, 100.825 190.441 C 99.115 179.532, 92.324 170.880, 82.684 167.326 C 78.323 165.718, 68.351 165.856, 63.463 167.591 M 167.200 191.200 C 165.583 192.817, 165.690 197.546, 167.553 206.792 C 172.588 231.773, 191.962 252.107, 217 258.688 C 227.128 261.350, 242.443 260.901, 252.521 257.647 C 272.489 251.200, 288.972 235.780, 295.696 217.256 C 299.053 208.009, 301.475 193.277, 299.943 191.431 C 298.935 190.216, 288.895 190, 233.578 190 C 184.217 190, 168.109 190.291, 167.200 191.200 M 174.012 200.750 C 174.031 205.146, 176.669 213.879, 180.115 220.955 C 184.504 229.968, 196.995 242.290, 206.295 246.782 C 217 251.953, 223.819 253.318, 235.988 252.725 C 248.298 252.126, 255.893 249.808, 265.145 243.828 C 279.815 234.346, 289.173 219.719, 292.385 201.250 L 292.950 198 233.475 198 L 174 198 174.012 200.750 " stroke="none" fill="black" fill-rule="evenodd"/>
</svg>