<svg xmlns="http://www.w3.org/2000/svg" width="500" height="324" viewBox="0 0 500 324" version="1.1">
	<path d="M 231.250 159.237 L 198 192.511 198 226.056 C 198 250.812, 198.314 259.914, 199.200 260.800 C 200.109 261.709, 216.200 262, 265.500 262 C 314.800 262, 330.891 261.709, 331.800 260.800 C 332.686 259.914, 332.999 250.814, 332.997 226.050 L 332.994 192.500 300.031 159.500 C 281.902 141.350, 266.490 126.379, 265.784 126.232 C 265.078 126.084, 249.537 140.936, 231.250 159.237 M 386.355 126.998 C 379.719 128.378, 372.826 132.409, 367.659 137.933 C 359.421 146.741, 356.911 155.513, 359.006 168.177 C 361.701 184.462, 369.641 204.110, 379.668 219.306 C 386.631 229.860, 404.628 247.553, 415.859 254.888 C 421.007 258.249, 425.602 261, 426.070 261 C 426.539 261, 427.727 260.170, 428.711 259.156 C 429.695 258.141, 433.425 255.370, 437 252.998 C 446.083 246.971, 464.612 228.113, 470.897 218.500 C 483.906 198.603, 493.149 171.421, 491.695 157.336 C 489.718 138.175, 470.284 123.443, 451.553 126.906 C 441.707 128.726, 431.940 135.214, 427.350 142.984 C 426.370 144.643, 425.328 145.988, 425.034 145.973 C 424.740 145.958, 423.375 144.099, 422 141.841 C 419.042 136.985, 411.018 130.623, 405.310 128.609 C 399.804 126.667, 391.389 125.951, 386.355 126.998 M 382.435 135.890 C 370.429 141.343, 363.991 153.042, 366.029 165.699 C 368.663 182.055, 376.237 200.968, 386.007 215.586 C 392.479 225.269, 407.972 240.817, 417.750 247.441 L 425 252.353 432.250 247.473 C 441.756 241.074, 457.393 225.425, 463.708 215.992 C 473.820 200.886, 481.276 182.602, 483.974 166.292 C 485.547 156.781, 483.800 150.326, 477.808 143.519 C 466.764 130.972, 447.745 130.649, 436.773 142.821 C 432.381 147.693, 430.298 152.276, 429.400 159.041 C 428.603 165.054, 426.955 166.756, 423.470 165.168 C 421.687 164.356, 421 163.253, 421 161.203 C 421 151.685, 413.663 140.615, 404.538 136.366 C 398.146 133.389, 388.403 133.180, 382.435 135.890 M 235.236 165.280 L 205 195.576 205 224.788 L 205 254 265.500 254 L 326 254 326 224.744 L 326 195.488 295.736 165.236 L 265.472 134.984 235.236 165.280 M 7.571 159.571 C 6.207 160.936, 6 165.463, 6 194 C 6 222.537, 6.207 227.064, 7.571 228.429 C 9.545 230.402, 10.455 230.402, 12.429 228.429 C 13.793 227.064, 14 222.537, 14 194 C 14 165.463, 13.793 160.936, 12.429 159.571 C 11.564 158.707, 10.471 158, 10 158 C 9.529 158, 8.436 158.707, 7.571 159.571 M 71.571 159.571 C 70.207 160.936, 70 165.463, 70 194 C 70 222.537, 70.207 227.064, 71.571 228.429 C 73.545 230.402, 74.455 230.402, 76.429 228.429 C 77.793 227.064, 78 222.537, 78 194 C 78 165.463, 77.793 160.936, 76.429 159.571 C 75.564 158.707, 74.471 158, 74 158 C 73.529 158, 72.436 158.707, 71.571 159.571 M 103.585 159.558 C 102.713 160.430, 102 161.529, 102 162 C 102 162.471, 102.713 163.570, 103.585 164.442 C 104.978 165.835, 109.159 165.995, 138.226 165.763 C 168.452 165.523, 171.377 165.350, 172.386 163.750 C 173.191 162.474, 173.191 161.526, 172.386 160.250 C 171.377 158.650, 168.452 158.477, 138.226 158.237 C 109.159 158.005, 104.978 158.165, 103.585 159.558 M 103.585 223.558 C 102.713 224.430, 102 225.529, 102 226 C 102 226.471, 102.713 227.570, 103.585 228.442 C 104.978 229.835, 109.159 229.995, 138.226 229.763 C 168.452 229.523, 171.377 229.350, 172.386 227.750 C 173.191 226.474, 173.191 225.526, 172.386 224.250 C 171.377 222.650, 168.452 222.477, 138.226 222.237 C 109.159 222.005, 104.978 222.165, 103.585 223.558 " stroke="none" fill="black" fill-rule="evenodd"/>
</svg>