<svg xmlns="http://www.w3.org/2000/svg" width="308" height="324" viewBox="0 0 308 324" version="1.1">
	<path d="M 7.571 127.571 C 6.175 128.968, 6 136.372, 6 194 C 6 251.628, 6.175 259.032, 7.571 260.429 C 8.968 261.825, 16.343 261.998, 73.821 261.985 C 109.395 261.976, 139.072 261.606, 139.772 261.162 C 141.639 259.977, 141.639 128.023, 139.772 126.838 C 139.072 126.394, 109.395 126.024, 73.821 126.015 C 16.343 126.002, 8.968 126.175, 7.571 127.571 M 14 194 L 14 254 42 254 L 70 254 70 194 L 70 134 42 134 L 14 134 14 194 M 78 194 L 78 254 106 254 L 134 254 134 194 L 134 134 106 134 L 78 134 78 194 M 199.200 159.200 C 198.503 159.897, 198 163.240, 198 167.181 C 198 173.772, 197.923 173.978, 195.250 174.539 C 182.506 177.212, 178.743 178.804, 170.325 185.088 C 164.778 189.229, 163.107 192.220, 165.040 194.548 C 166.867 196.750, 168.629 196.323, 172.747 192.681 C 177.989 188.046, 182.609 185.452, 188.932 183.595 C 198.785 180.701, 198 178.865, 198 204.800 C 198 221.200, 198.337 227.937, 199.200 228.800 C 200.918 230.518, 266.082 230.518, 267.800 228.800 C 268.559 228.041, 269 224.229, 269 218.429 L 269 209.258 273.750 208.627 C 282.938 207.408, 300 197.337, 300 193.133 C 300 191.128, 298.144 189, 296.395 189 C 295.732 189, 293.234 190.643, 290.845 192.651 C 286.022 196.703, 278.473 200.354, 272.750 201.403 L 269 202.091 269 181.245 C 269 166.366, 268.657 160.057, 267.800 159.200 C 266.082 157.482, 200.918 157.482, 199.200 159.200 M 205.193 170.176 L 205.500 174.352 211.279 175.660 C 220.276 177.695, 227.906 181.921, 234.579 188.566 C 241.842 195.801, 245.677 198.274, 252.932 200.405 C 262.677 203.267, 262 204.491, 262 184 L 262 166 233.443 166 L 204.885 166 205.193 170.176 M 205 201.889 L 205 222 233.500 222 L 262 222 262 216.019 C 262 210.301, 261.879 210.013, 259.250 209.461 C 249.916 207.504, 246.928 206.543, 241.993 203.914 C 238.964 202.301, 235.139 199.606, 233.493 197.927 C 225.732 190.009, 224.109 188.718, 218.500 185.998 C 215.200 184.397, 210.813 182.793, 208.750 182.433 L 205 181.777 205 201.889 M 39.571 191.571 C 38.707 192.436, 38 193.529, 38 194 C 38 195.111, 40.889 198, 42 198 C 43.111 198, 46 195.111, 46 194 C 46 192.889, 43.111 190, 42 190 C 41.529 190, 40.436 190.707, 39.571 191.571 M 103.750 191.080 C 101.372 192.465, 101.542 195.685, 104.064 197.034 C 107.753 199.008, 110.819 194.219, 107.800 191.200 C 106.367 189.767, 106.022 189.757, 103.750 191.080 " stroke="none" fill="black" fill-rule="evenodd"/>
</svg>