<svg xmlns="http://www.w3.org/2000/svg" width="340" height="324" viewBox="0 0 340 324" version="1.1">
	<path d="M 66.223 63.062 C 56.045 65.068, 45.996 73.411, 41.216 83.825 C 39.099 88.436, 38.611 91, 38.611 97.500 C 38.611 107.107, 41.427 114.253, 48.038 121.425 L 52.255 126 30.699 126 C 12.436 126, 8.903 126.240, 7.571 127.571 C 5.598 129.545, 5.598 130.455, 7.571 132.429 C 8.931 133.788, 13.242 134, 39.571 134 L 70 134 70 194 L 70 254 55.571 254 C 43.788 254, 40.855 254.288, 39.571 255.571 C 37.598 257.545, 37.598 258.455, 39.571 260.429 C 40.936 261.793, 45.463 262, 74 262 C 102.537 262, 107.064 261.793, 108.429 260.429 C 110.402 258.455, 110.402 257.545, 108.429 255.571 C 107.145 254.288, 104.212 254, 92.429 254 L 78 254 78 194 L 78 134 108.429 134 C 134.758 134, 139.069 133.788, 140.429 132.429 C 142.402 130.455, 142.402 129.545, 140.429 127.571 C 139.095 126.238, 135.522 126, 116.836 126 L 94.815 126 99.354 120.952 C 117.209 101.092, 107.222 69.498, 81.147 63.360 C 74.857 61.880, 72.464 61.832, 66.223 63.062 M 63.054 71.728 C 57.018 73.859, 49.781 81.260, 47.667 87.463 C 42.058 103.925, 50.847 120.571, 67.250 124.550 L 70 125.217 70 97.608 C 70 76.146, 69.722 70.018, 68.750 70.079 C 68.063 70.122, 65.499 70.864, 63.054 71.728 M 78 97.500 L 78 125.135 80.250 124.434 C 88.986 121.712, 94.088 117.513, 97.883 109.919 C 102.231 101.217, 102.231 93.783, 97.883 85.081 C 94.088 77.487, 88.986 73.288, 80.250 70.566 L 78 69.865 78 97.500 M 290.355 126.986 C 279.805 129.211, 270.145 137.120, 265.302 147.500 C 262.968 152.500, 262.502 154.833, 262.502 161.500 C 262.502 168.167, 262.968 170.500, 265.302 175.500 C 266.842 178.800, 269.991 183.465, 272.301 185.866 C 276.896 190.645, 286.907 195.998, 291.250 195.999 L 294 196 294 227.965 C 294 259.236, 294.045 259.954, 296.064 261.034 C 300.735 263.534, 300.952 262.160, 301.236 228.334 L 301.500 196.890 308.139 194.656 C 319.033 190.991, 327.929 181.951, 331.023 171.402 C 332.919 164.941, 331.923 152.435, 329.040 146.500 C 322.234 132.486, 305.146 123.866, 290.355 126.986 M 287.627 135.468 C 282.247 137.386, 277.039 141.829, 273.500 147.519 C 270.969 151.589, 270.444 153.570, 270.143 160.193 C 269.830 167.089, 270.110 168.705, 272.454 173.496 C 282.503 194.034, 311.716 194.158, 322.150 173.707 C 324.708 168.692, 325.594 159.874, 324.096 154.337 C 320.933 142.647, 309.616 133.959, 297.663 134.044 C 294.273 134.068, 289.757 134.709, 287.627 135.468 M 167.585 191.558 C 165.598 193.545, 165.595 194.452, 167.571 196.429 C 168.855 197.712, 171.788 198, 183.571 198 L 198 198 198 226 L 198 254 183.571 254 C 171.788 254, 168.855 254.288, 167.571 255.571 C 165.595 257.548, 165.598 258.455, 167.585 260.442 C 168.978 261.835, 173.159 261.995, 202.226 261.763 C 232.452 261.523, 235.377 261.350, 236.386 259.750 C 237.190 258.475, 237.191 257.525, 236.387 256.250 C 235.433 254.736, 233.314 254.463, 220.643 254.223 L 206 253.947 206 226 L 206 198.053 220.643 197.777 C 233.314 197.537, 235.433 197.264, 236.387 195.750 C 237.191 194.475, 237.190 193.525, 236.386 192.250 C 235.377 190.650, 232.452 190.477, 202.226 190.237 C 173.159 190.005, 168.978 190.165, 167.585 191.558 " stroke="none" fill="black" fill-rule="evenodd"/>
</svg>