<svg xmlns="http://www.w3.org/2000/svg" width="244" height="324" viewBox="0 0 244 324" version="1.1">
	<path d="M 39.571 127.571 C 38.176 128.966, 38 136.152, 38 191.571 L 38 254 23.571 254 C 11.788 254, 8.855 254.288, 7.571 255.571 C 5.598 257.545, 5.598 258.455, 7.571 260.429 C 8.936 261.793, 13.463 262, 42 262 C 70.537 262, 75.064 261.793, 76.429 260.429 C 77.293 259.564, 78 258.471, 78 258 C 78 257.529, 77.293 256.436, 76.429 255.571 C 75.145 254.288, 72.212 254, 60.429 254 L 46 254 46 191.571 C 46 136.152, 45.824 128.966, 44.429 127.571 C 43.564 126.707, 42.471 126, 42 126 C 41.529 126, 40.436 126.707, 39.571 127.571 M 162.355 126.986 C 151.790 129.214, 142.114 137.146, 137.329 147.500 C 131.556 159.993, 134.383 175.554, 144.301 185.866 C 148.896 190.645, 158.907 195.998, 163.250 195.999 L 166 196 166 225 L 166 254 135.571 254 C 109.242 254, 104.931 254.212, 103.571 255.571 C 101.596 257.546, 101.598 258.455, 103.579 260.436 C 104.990 261.847, 112.058 261.987, 170.220 261.757 C 230.934 261.517, 235.356 261.383, 236.386 259.750 C 237.191 258.474, 237.191 257.526, 236.386 256.250 C 235.381 254.655, 232.566 254.477, 204.641 254.236 L 174 253.971 174.001 225.236 L 174.003 196.500 179.778 194.803 C 186.931 192.701, 192.912 188.457, 197.464 182.252 C 202.623 175.220, 204.267 169.402, 203.840 159.690 C 203.396 149.603, 200.770 143.678, 193.518 136.404 C 185.739 128.600, 172.981 124.745, 162.355 126.986 M 159.385 135.617 C 144.729 140.815, 137.477 159.530, 144.588 173.801 C 149.418 183.493, 158.658 189, 170.091 189 C 174.612 189, 177.147 188.312, 182.073 185.750 C 202.058 175.355, 201.930 147.117, 181.854 137.085 C 174.817 133.568, 166.664 133.036, 159.385 135.617 " stroke="none" fill="black" fill-rule="evenodd"/>
</svg>