<svg xmlns="http://www.w3.org/2000/svg" width="212" height="324" viewBox="0 0 212 324" version="1.1">
	<path d="M 72.372 62.765 C 71.751 63.169, 67.329 71.327, 62.544 80.894 C 54.006 97.966, 53.879 98.324, 55.739 100.183 C 56.781 101.225, 58.299 101.823, 59.111 101.511 C 59.924 101.199, 63.480 95.106, 67.014 87.972 C 70.547 80.837, 73.692 75, 74.003 75 C 74.313 75, 77.252 80.432, 80.533 87.070 C 83.815 93.709, 87.222 99.795, 88.105 100.594 C 89.890 102.210, 92.550 101.615, 93.396 99.410 C 93.993 97.855, 77.631 64.022, 75.684 62.784 C 74.211 61.847, 73.786 61.845, 72.372 62.765 M 168.370 126.751 C 166.720 127.844, 135 191.646, 135 193.871 C 135 196.216, 137.282 198.213, 139.146 197.498 C 139.915 197.202, 144.737 188.532, 149.862 178.230 C 154.986 167.929, 161.683 154.804, 164.743 149.065 L 170.308 138.629 184.555 167.110 C 192.391 182.775, 199.493 196.164, 200.337 196.865 C 202.292 198.487, 206.023 196.725, 205.950 194.215 C 205.863 191.219, 172.589 126.515, 171 126.251 C 170.175 126.114, 168.991 126.339, 168.370 126.751 M 7.571 191.571 C 6.707 192.436, 6 193.529, 6 194 C 6 195.111, 8.889 198, 10 198 C 11.111 198, 14 195.111, 14 194 C 14 192.889, 11.111 190, 10 190 C 9.529 190, 8.436 190.707, 7.571 191.571 M 39.571 191.571 C 38.707 192.436, 38 193.334, 38 193.568 C 38 195.234, 71.757 261.076, 72.821 261.485 C 73.564 261.770, 74.767 261.665, 75.494 261.252 C 77.510 260.105, 110.034 194.252, 109.400 192.600 C 108.549 190.382, 105.891 189.787, 104.105 191.416 C 103.222 192.221, 96.206 205.507, 88.514 220.940 C 80.822 236.373, 74.291 249, 74 249 C 73.709 249, 67.178 236.339, 59.486 220.864 C 51.794 205.389, 44.905 192.114, 44.179 191.364 C 42.470 189.600, 41.499 189.644, 39.571 191.571 M 168.370 190.751 C 166.720 191.844, 135 255.646, 135 257.871 C 135 260.216, 137.282 262.213, 139.146 261.498 C 139.915 261.202, 144.737 252.532, 149.862 242.230 C 154.986 231.929, 161.683 218.804, 164.743 213.065 L 170.308 202.629 184.555 231.110 C 192.391 246.775, 199.493 260.164, 200.337 260.865 C 202.292 262.487, 206.023 260.725, 205.950 258.215 C 205.863 255.219, 172.589 190.515, 171 190.251 C 170.175 190.114, 168.991 190.339, 168.370 190.751 " stroke="none" fill="black" fill-rule="evenodd"/>
</svg>