<svg xmlns="http://www.w3.org/2000/svg" width="436" height="324" viewBox="0 0 436 324" version="1.1">
	<path d="M 71.571 127.571 C 70.288 128.855, 70 131.788, 70 143.571 L 70 158 55.934 158 C 48.151 158, 41.005 158.462, 39.934 159.035 C 38.092 160.021, 38 161.413, 38 188.237 L 38 216.405 24.667 203.202 C 17.334 195.941, 10.841 190, 10.239 190 C 8.799 190, 6 192.831, 6 194.287 C 6 195.818, 72.128 262, 73.659 262 C 74.318 262, 75.564 261.293, 76.429 260.429 C 77.712 259.145, 78 256.212, 78 244.429 L 78 230 92.429 230 C 104.212 230, 107.145 229.712, 108.429 228.429 C 109.793 227.064, 110 222.537, 110 194 C 110 165.463, 109.793 160.936, 108.429 159.571 C 107.145 158.288, 104.212 158, 92.429 158 L 78 158 78 143.571 C 78 131.788, 77.712 128.855, 76.429 127.571 C 75.564 126.707, 74.471 126, 74 126 C 73.529 126, 72.436 126.707, 71.571 127.571 M 349.500 127.497 C 340.266 129.235, 334.885 131.257, 326.913 135.987 C 310.945 145.462, 299.400 161.773, 295.583 180.254 C 293.581 189.943, 293.581 197.057, 295.583 206.746 C 303.774 246.402, 344.606 269.934, 382.863 257.046 C 398.473 251.788, 413.724 238.489, 420.861 223.913 C 426.346 212.711, 428 205.664, 428 193.500 C 428 181.435, 426.345 174.289, 421.041 163.450 C 411.603 144.165, 392.156 130.182, 370.398 127.037 C 361.701 125.780, 358.223 125.856, 349.500 127.497 M 346.788 135.551 C 326.489 140.473, 308.896 157.943, 303.543 178.495 C 301.563 186.096, 301.563 200.904, 303.543 208.505 C 308.907 229.099, 326.710 246.655, 347.103 251.463 C 371.569 257.230, 396.901 247.388, 410.702 226.753 C 417.900 215.992, 420.500 207.166, 420.500 193.500 C 420.500 184.542, 420.047 181.117, 418.060 175.050 C 415.086 165.968, 407.672 154.618, 400.769 148.579 C 394.651 143.227, 383.777 137.594, 375.540 135.509 C 368.252 133.664, 354.489 133.684, 346.788 135.551 M 359.750 159.080 C 358.143 160.016, 358 162.628, 358 191.050 L 358 222 343.934 222 C 329.308 222, 326 222.738, 326 226 C 326 229.750, 328.791 230.037, 362.601 229.764 C 392.469 229.523, 395.378 229.349, 396.386 227.750 C 397.190 226.475, 397.191 225.525, 396.387 224.250 C 395.433 222.736, 393.314 222.463, 380.643 222.223 L 366 221.947 366 192.196 C 366 166.887, 365.768 162.113, 364.443 160.223 C 362.702 157.736, 362.248 157.625, 359.750 159.080 M 46 194 L 46 222 58 222 L 70 222 70 194 L 70 166 58 166 L 46 166 46 194 M 78 194 L 78 222 90 222 L 102 222 102 194 L 102 166 90 166 L 78 166 78 194 M 135.207 191.193 C 134.543 191.857, 134 193.107, 134 193.970 C 134 195.747, 199.944 262, 201.713 262 C 203.190 262, 206 259.193, 206 257.718 C 206 257.091, 192.851 243.402, 176.781 227.297 L 147.561 198.016 207.422 197.758 C 263.181 197.518, 267.358 197.380, 268.386 195.750 C 269.191 194.474, 269.191 193.526, 268.386 192.250 C 267.356 190.617, 262.916 190.483, 201.848 190.243 C 151.786 190.046, 136.131 190.269, 135.207 191.193 M 60.500 239 C 65.427 243.950, 69.580 248, 69.729 248 C 69.878 248, 70 243.950, 70 239 L 70 230 60.771 230 L 51.542 230 60.500 239 " stroke="none" fill="black" fill-rule="evenodd"/>
</svg>