<svg xmlns="http://www.w3.org/2000/svg" width="308" height="324" viewBox="0 0 308 324" version="1.1">
	<path d="M 66.223 63.008 C 55.939 65.164, 46.017 73.415, 41.189 83.825 C 39.038 88.462, 38.556 90.964, 38.556 97.500 C 38.556 107.083, 41.376 114.198, 48.038 121.425 L 52.255 126 30.699 126 C 12.436 126, 8.903 126.240, 7.571 127.571 C 5.598 129.545, 5.598 130.455, 7.571 132.429 C 8.931 133.788, 13.242 134, 39.571 134 L 70 134 70 194 L 70 254 55.571 254 C 43.788 254, 40.855 254.288, 39.571 255.571 C 37.595 257.548, 37.598 258.455, 39.585 260.442 C 40.978 261.835, 45.159 261.995, 74.226 261.763 C 104.452 261.523, 107.377 261.350, 108.386 259.750 C 109.190 258.475, 109.191 257.525, 108.387 256.250 C 107.433 254.736, 105.314 254.463, 92.643 254.223 L 78 253.947 78 193.988 L 78 134.029 108.641 133.764 C 136.566 133.523, 139.381 133.345, 140.386 131.750 C 141.190 130.475, 141.191 129.525, 140.387 128.250 C 139.408 126.695, 136.809 126.444, 117.060 126 L 94.835 125.500 97.537 123 C 107.434 113.844, 110.904 97.836, 105.893 84.443 C 100.298 69.489, 82.132 59.673, 66.223 63.008 M 63.463 71.591 C 57.971 73.541, 52.552 78.205, 49.249 83.824 C 46.800 87.989, 46.500 89.483, 46.500 97.500 C 46.500 105.502, 46.803 107.015, 49.230 111.145 C 53.385 118.213, 59.168 122.498, 67.305 124.541 L 70 125.217 70 97.608 C 70 76.146, 69.722 70.018, 68.750 70.079 C 68.063 70.122, 65.683 70.803, 63.463 71.591 M 78 97.500 L 78 125.135 80.250 124.467 C 81.487 124.100, 84.750 122.569, 87.500 121.066 C 100.082 114.186, 104.584 97.201, 97.351 83.899 C 93.793 77.354, 88.305 73.075, 80.250 70.566 L 78 69.865 78 97.500 M 231.250 127.127 C 228.853 129.567, 230.058 131.729, 238.750 140.591 C 253.957 156.093, 260.435 171.924, 260.402 193.500 C 260.380 207.938, 258.796 214.634, 252.251 227.958 C 248.562 235.467, 245.946 239.124, 239.552 245.708 L 231.498 254 200.683 254 C 181.354 254, 169.148 254.386, 167.934 255.035 C 165.440 256.370, 165.448 259.634, 167.948 260.972 C 169.256 261.672, 191.132 261.930, 234.589 261.757 C 294.951 261.517, 299.356 261.383, 300.386 259.750 C 301.191 258.474, 301.191 257.526, 300.387 256.250 C 299.413 254.704, 297.140 254.468, 280.895 254.226 L 262.506 253.953 267.597 251.045 C 280.015 243.953, 291.007 230.244, 296.405 215.118 C 299.235 207.185, 299.480 205.466, 299.490 193.500 C 299.499 181.877, 299.206 179.643, 296.721 172.410 C 287.933 146.824, 265.825 129.525, 238 126.461 C 234.173 126.039, 232.120 126.242, 231.250 127.127 M 247.411 138.250 C 253.165 145.262, 259.524 155.799, 262.271 162.873 C 273.252 191.154, 268.164 223.432, 249.084 246.521 C 246.870 249.200, 245.242 251.575, 245.466 251.799 C 246.439 252.773, 259.415 247.531, 265.056 243.886 C 281.773 233.081, 292.965 212.875, 292.965 193.500 C 292.965 169.116, 275.649 144.806, 252.779 137.083 C 244.658 134.340, 244.271 134.424, 247.411 138.250 " stroke="none" fill="black" fill-rule="evenodd"/>
</svg>