<svg xmlns="http://www.w3.org/2000/svg" width="372" height="324" viewBox="0 0 372 324" version="1.1">
	<path d="M 66.223 63.012 C 55.933 65.160, 45.981 73.443, 41.216 83.825 C 39.099 88.436, 38.611 91, 38.611 97.500 C 38.611 107.107, 41.427 114.253, 48.038 121.425 L 52.255 126 30.699 126 C 12.436 126, 8.903 126.240, 7.571 127.571 C 5.598 129.545, 5.598 130.455, 7.571 132.429 C 8.931 133.788, 13.242 134, 39.571 134 L 70 134 70 194 L 70 254 55.571 254 C 43.788 254, 40.855 254.288, 39.571 255.571 C 37.598 257.545, 37.598 258.455, 39.571 260.429 C 40.936 261.793, 45.463 262, 74 262 C 102.537 262, 107.064 261.793, 108.429 260.429 C 110.402 258.455, 110.402 257.545, 108.429 255.571 C 107.145 254.288, 104.212 254, 92.429 254 L 78 254 78 194 L 78 134 108.429 134 C 134.758 134, 139.069 133.788, 140.429 132.429 C 142.402 130.455, 142.402 129.545, 140.429 127.571 C 139.095 126.238, 135.519 126, 116.801 126 L 94.745 126 98.962 121.425 C 105.601 114.223, 108.388 107.117, 108.394 97.377 C 108.399 90.254, 108.006 88.455, 105.200 82.755 C 97.955 68.039, 81.665 59.788, 66.223 63.012 M 64.500 71.227 C 56.519 74.072, 49.547 81.291, 46.997 89.349 C 45.382 94.455, 46.146 104.535, 48.522 109.467 C 51.975 116.633, 59.345 122.561, 67.250 124.531 L 70 125.217 70 97.608 C 70 67.803, 70.284 69.165, 64.500 71.227 M 78 97.500 L 78 125.135 80.250 124.448 C 85.937 122.711, 89.111 120.889, 92.696 117.304 C 98.750 111.250, 100.500 106.809, 100.500 97.500 C 100.500 88.191, 98.750 83.750, 92.696 77.696 C 89.111 74.111, 85.937 72.289, 80.250 70.552 L 78 69.865 78 97.500 M 167.571 127.571 C 166.707 128.436, 166 129.529, 166 130 C 166 130.471, 166.707 131.564, 167.571 132.429 C 168.855 133.712, 171.788 134, 183.571 134 L 198 134 198 194 L 198 254 183.571 254 C 171.788 254, 168.855 254.288, 167.571 255.571 C 165.598 257.545, 165.598 258.455, 167.571 260.429 C 168.936 261.793, 173.463 262, 202 262 C 230.537 262, 235.064 261.793, 236.429 260.429 C 238.402 258.455, 238.402 257.545, 236.429 255.571 C 235.145 254.288, 232.212 254, 220.429 254 L 206 254 206 194 L 206 134 220.429 134 C 232.212 134, 235.145 133.712, 236.429 132.429 C 237.293 131.564, 238 130.471, 238 130 C 238 129.529, 237.293 128.436, 236.429 127.571 C 235.064 126.207, 230.537 126, 202 126 C 173.463 126, 168.936 126.207, 167.571 127.571 M 263.571 159.571 C 262.227 160.916, 262 164.736, 262 186 C 262 207.264, 262.227 211.084, 263.571 212.429 C 264.436 213.293, 265.529 214, 266 214 C 266.471 214, 267.564 213.293, 268.429 212.429 C 269.773 211.084, 270 207.264, 270 186 C 270 164.736, 269.773 160.916, 268.429 159.571 C 267.564 158.707, 266.471 158, 266 158 C 265.529 158, 264.436 158.707, 263.571 159.571 M 295.571 159.571 C 294.227 160.916, 294 164.736, 294 186 C 294 207.264, 294.227 211.084, 295.571 212.429 C 296.436 213.293, 297.529 214, 298 214 C 298.471 214, 299.564 213.293, 300.429 212.429 C 301.773 211.084, 302 207.264, 302 186 C 302 164.736, 301.773 160.916, 300.429 159.571 C 299.564 158.707, 298.471 158, 298 158 C 297.529 158, 296.436 158.707, 295.571 159.571 M 327.571 159.571 C 326.227 160.916, 326 164.736, 326 186 C 326 207.264, 326.227 211.084, 327.571 212.429 C 328.436 213.293, 329.529 214, 330 214 C 330.471 214, 331.564 213.293, 332.429 212.429 C 333.773 211.084, 334 207.264, 334 186 C 334 164.736, 333.773 160.916, 332.429 159.571 C 331.564 158.707, 330.471 158, 330 158 C 329.529 158, 328.436 158.707, 327.571 159.571 M 263.571 222.571 C 262.707 223.436, 262 224.529, 262 225 C 262 226.111, 264.889 229, 266 229 C 267.111 229, 270 226.111, 270 225 C 270 223.889, 267.111 221, 266 221 C 265.529 221, 264.436 221.707, 263.571 222.571 M 295.571 222.571 C 294.707 223.436, 294 224.529, 294 225 C 294 226.111, 296.889 229, 298 229 C 299.111 229, 302 226.111, 302 225 C 302 223.889, 299.111 221, 298 221 C 297.529 221, 296.436 221.707, 295.571 222.571 M 327.571 222.571 C 326.707 223.436, 326 224.529, 326 225 C 326 226.111, 328.889 229, 330 229 C 331.111 229, 334 226.111, 334 225 C 334 223.889, 331.111 221, 330 221 C 329.529 221, 328.436 221.707, 327.571 222.571 " stroke="none" fill="black" fill-rule="evenodd"/>
</svg>