<svg xmlns="http://www.w3.org/2000/svg" width="403" height="324" viewBox="0 0 403 324" version="1.1">
	<path d="M 39.571 127.571 C 38.176 128.966, 38 136.152, 38 191.571 L 38 254 23.571 254 C 11.788 254, 8.855 254.288, 7.571 255.571 C 5.598 257.545, 5.598 258.455, 7.571 260.429 C 8.936 261.793, 13.456 262, 41.916 262 C 73.420 262, 74.760 261.922, 76.500 260 C 78.247 258.070, 78.247 257.930, 76.500 256 C 74.850 254.177, 73.420 254, 60.345 254 L 46 254 46 191.571 C 46 136.152, 45.824 128.966, 44.429 127.571 C 43.564 126.707, 42.471 126, 42 126 C 41.529 126, 40.436 126.707, 39.571 127.571 M 131.434 126.889 C 117.397 129.293, 104.809 142.257, 102.514 156.673 C 101.197 164.953, 106.514 185.758, 114.071 201.889 C 124.400 223.939, 143.148 244.833, 163.930 257.458 C 169.330 260.738, 170.305 261.028, 171.943 259.846 C 172.969 259.106, 176.843 256.331, 180.551 253.681 C 204.273 236.726, 220.443 215.435, 229.851 188.765 C 237.046 168.372, 237.650 155.753, 231.945 145.049 C 223.110 128.473, 202.315 121.677, 185.959 130.021 C 180.476 132.818, 172.556 140.243, 170.970 144.073 L 169.728 147.070 166.429 142.170 C 158.769 130.796, 144.643 124.628, 131.434 126.889 M 263.750 127.080 C 262.138 128.019, 262 130.762, 262 161.850 C 262 186.767, 262.314 195.914, 263.200 196.800 C 264.081 197.681, 272.578 198, 295.200 198 L 326 198 326 228.965 C 326 259.226, 326.047 259.955, 328.064 261.034 C 333.084 263.721, 333 264.860, 333 194 C 333 123.140, 333.084 124.279, 328.064 126.966 C 326.073 128.031, 326 128.862, 326 150.498 L 326 172.925 321.500 168.552 C 307.787 155.224, 287.636 155.076, 273.401 168.198 L 269 172.255 269 150.327 C 269 126.151, 268.575 124.270, 263.750 127.080 M 127.627 135.468 C 118.721 138.643, 111.076 148.151, 110.214 157.125 C 108.862 171.200, 117.386 196.150, 130.158 215.500 C 136.582 225.233, 151.931 240.754, 161.686 247.383 L 168.872 252.265 173.432 249.593 C 182.753 244.131, 196.109 231.830, 204.479 221 C 218.166 203.290, 230.225 171.759, 228.642 157.818 C 226.323 137.393, 201.215 126.802, 184.797 139.325 C 179.118 143.656, 175.172 150.296, 174.001 157.492 C 172.915 164.168, 171.212 166.519, 168.163 165.552 C 165.920 164.840, 165.477 163.789, 164.560 156.995 C 163.285 147.558, 155.516 138.368, 146.101 135.159 C 141.559 133.611, 132.409 133.764, 127.627 135.468 M 359.750 159.080 C 358.155 160.009, 358 162.388, 358 186.015 C 358 211.174, 358.060 211.962, 360.064 213.034 C 361.596 213.854, 362.498 213.832, 363.564 212.947 C 364.744 211.968, 365 207.174, 365 186.078 C 365 157.906, 364.671 156.214, 359.750 159.080 M 286.435 167.890 C 280.380 170.641, 274.973 175.862, 272.351 181.493 C 268.102 190.619, 266.279 190, 297.419 190 L 324.839 190 323.809 186.250 C 323.243 184.188, 322.191 181.375, 321.472 180 C 319.403 176.043, 312.906 170.293, 308 168.077 C 302.114 165.418, 292.069 165.331, 286.435 167.890 M 359.750 222.080 C 357.372 223.465, 357.542 226.685, 360.064 228.034 C 363.753 230.008, 366.819 225.219, 363.800 222.200 C 362.367 220.767, 362.022 220.757, 359.750 222.080 " stroke="none" fill="black" fill-rule="evenodd"/>
</svg>