<svg xmlns="http://www.w3.org/2000/svg" width="372" height="324" viewBox="0 0 372 324" version="1.1">
	<path d="M 136.316 62.784 C 134.369 64.022, 118.007 97.855, 118.604 99.410 C 119.269 101.144, 121.524 102.120, 123.295 101.440 C 124.007 101.167, 127.480 95.106, 131.014 87.972 C 134.547 80.837, 137.691 75, 138 75 C 138.309 75, 141.453 80.837, 144.986 87.972 C 148.520 95.106, 151.993 101.167, 152.705 101.440 C 154.476 102.120, 156.731 101.144, 157.396 99.410 C 157.993 97.855, 141.631 64.022, 139.684 62.784 C 138.206 61.844, 137.794 61.844, 136.316 62.784 M 71.571 127.571 C 70.212 128.931, 70 133.242, 70 159.571 L 70 190 39.571 190 C 13.242 190, 8.931 190.212, 7.571 191.571 C 5.598 193.545, 5.598 194.455, 7.571 196.429 C 8.931 197.788, 13.242 198, 39.571 198 L 70 198 70 228.429 C 70 254.758, 70.212 259.069, 71.571 260.429 C 72.968 261.825, 80.372 262, 138 262 C 195.628 262, 203.032 261.825, 204.429 260.429 C 205.825 259.032, 206 251.628, 206 194 C 206 136.372, 205.825 128.968, 204.429 127.571 C 203.032 126.175, 195.628 126, 138 126 C 80.372 126, 72.968 126.175, 71.571 127.571 M 78 162 L 78 190 103.202 190 L 128.405 190 115.202 176.667 C 107.941 169.334, 102 162.841, 102 162.239 C 102 160.813, 104.825 158, 106.257 158 C 108.006 158, 142 192.239, 142 194 C 142 195.761, 108.006 230, 106.257 230 C 104.825 230, 102 227.187, 102 225.761 C 102 225.159, 107.941 218.666, 115.202 211.333 L 128.405 198 103.202 198 L 78 198 78 226 L 78 254 138 254 L 198 254 198 194 L 198 134 138 134 L 78 134 78 162 M 263.571 159.571 C 262.207 160.936, 262 165.463, 262 194 C 262 222.537, 262.207 227.064, 263.571 228.429 C 264.936 229.793, 269.463 230, 298 230 C 326.537 230, 331.064 229.793, 332.429 228.429 C 333.793 227.064, 334 222.537, 334 194 C 334 165.463, 333.793 160.936, 332.429 159.571 C 331.064 158.207, 326.537 158, 298 158 C 269.463 158, 264.936 158.207, 263.571 159.571 M 270 194 L 270 222 298 222 L 326 222 326 194 L 326 166 298 166 L 270 166 270 194 M 231.491 191.652 C 230.141 193.002, 229.968 194.418, 230.543 199.402 C 232.546 216.744, 238.065 228.143, 250.461 240.539 C 264.524 254.602, 278.216 260.376, 297.500 260.376 C 316.784 260.376, 330.476 254.602, 344.539 240.539 C 356.935 228.143, 362.454 216.744, 364.457 199.402 C 365.032 194.418, 364.859 193.002, 363.509 191.652 C 362.601 190.743, 361.471 190, 361 190 C 358.946 190, 357 193.416, 357 197.022 C 357 216.251, 342.630 237.865, 323.899 246.809 C 314.069 251.503, 307.687 253, 297.500 253 C 287.313 253, 280.931 251.503, 271.101 246.809 C 252.370 237.865, 238 216.251, 238 197.022 C 238 193.416, 236.054 190, 234 190 C 233.529 190, 232.399 190.743, 231.491 191.652 " stroke="none" fill="black" fill-rule="evenodd"/>
</svg>