<svg xmlns="http://www.w3.org/2000/svg" width="468" height="324" viewBox="0 0 468 324" version="1.1">
	<path d="M 65.384 63.412 C 47.480 67.757, 35.543 85.833, 38.993 103.372 C 40.490 110.981, 43.011 115.971, 48.198 121.599 L 52.255 126 30.699 126 C 12.436 126, 8.903 126.240, 7.571 127.571 C 5.598 129.545, 5.598 130.455, 7.571 132.429 C 8.931 133.788, 13.242 134, 39.571 134 L 70 134 70 194 L 70 254 55.571 254 C 43.788 254, 40.855 254.288, 39.571 255.571 C 37.598 257.545, 37.598 258.455, 39.571 260.429 C 40.936 261.793, 45.463 262, 74 262 C 102.537 262, 107.064 261.793, 108.429 260.429 C 110.402 258.455, 110.402 257.545, 108.429 255.571 C 107.145 254.288, 104.212 254, 92.429 254 L 78 254 78 194 L 78 134 108.429 134 C 134.758 134, 139.069 133.788, 140.429 132.429 C 142.402 130.455, 142.402 129.545, 140.429 127.571 C 139.095 126.238, 135.519 126, 116.801 126 L 94.745 126 98.802 121.599 C 117.504 101.310, 107.910 69.660, 81.147 63.360 C 74.397 61.772, 72.111 61.779, 65.384 63.412 M 63.054 71.728 C 57.018 73.859, 49.781 81.260, 47.667 87.463 C 42.058 103.925, 50.847 120.571, 67.250 124.550 L 70 125.217 70 97.608 C 70 76.146, 69.722 70.018, 68.750 70.079 C 68.063 70.122, 65.499 70.864, 63.054 71.728 M 78 97.500 L 78 125.135 80.250 124.475 C 93.167 120.686, 101 110.503, 101 97.500 C 101 84.497, 93.167 74.314, 80.250 70.525 L 78 69.865 78 97.500 M 328.369 126.765 C 327.416 127.384, 262 257.155, 262 258.426 C 262 258.663, 262.707 259.564, 263.571 260.429 C 264.936 261.793, 269.463 262, 298 262 C 326.537 262, 331.064 261.793, 332.429 260.429 C 333.293 259.564, 334 258.471, 334 258 C 334 257.529, 333.293 256.436, 332.429 255.571 C 331.071 254.214, 326.849 254, 301.430 254 L 272.002 254 300.747 196.500 C 316.557 164.875, 329.722 139, 330.003 139 C 330.284 139, 344.010 166.059, 360.507 199.131 C 377.003 232.204, 391.095 259.879, 391.821 260.631 C 392.887 261.735, 399.506 262, 426 262 C 454.537 262, 459.064 261.793, 460.429 260.429 C 462.402 258.455, 462.402 257.545, 460.429 255.571 C 459.067 254.210, 454.667 254, 427.430 254 L 396.003 254 364.383 190.750 C 335.939 133.854, 331.783 126.031, 330 126.031 C 329.725 126.031, 328.991 126.361, 328.369 126.765 M 167.571 191.571 C 166.707 192.436, 166 193.529, 166 194 C 166 194.471, 166.707 195.564, 167.571 196.429 C 168.855 197.712, 171.788 198, 183.571 198 L 198 198 198 226 L 198 254 183.571 254 C 171.788 254, 168.855 254.288, 167.571 255.571 C 165.598 257.545, 165.598 258.455, 167.571 260.429 C 168.936 261.793, 173.463 262, 202 262 C 230.537 262, 235.064 261.793, 236.429 260.429 C 238.402 258.455, 238.402 257.545, 236.429 255.571 C 235.145 254.288, 232.212 254, 220.429 254 L 206 254 206 226 L 206 198 220.429 198 C 232.212 198, 235.145 197.712, 236.429 196.429 C 237.293 195.564, 238 194.471, 238 194 C 238 193.529, 237.293 192.436, 236.429 191.571 C 235.064 190.207, 230.537 190, 202 190 C 173.463 190, 168.936 190.207, 167.571 191.571 M 391.571 207.571 C 390.707 208.436, 390 209.659, 390 210.290 C 390 211.969, 424.307 246, 426 246 C 427.693 246, 462 211.969, 462 210.290 C 462 208.827, 459.200 206, 457.751 206 C 457.143 206, 449.750 212.844, 441.323 221.208 L 426 236.416 410.677 221.208 C 402.250 212.844, 394.857 206, 394.249 206 C 393.640 206, 392.436 206.707, 391.571 207.571 " stroke="none" fill="black" fill-rule="evenodd"/>
</svg>