<svg xmlns="http://www.w3.org/2000/svg" width="403" height="324" viewBox="0 0 403 324" version="1.1">
	<path d="M 40.348 126.765 C 38.390 128.014, 6.011 193.865, 6.600 195.400 C 7.266 197.135, 9.518 198.122, 11.274 197.448 C 11.975 197.180, 19.056 183.919, 27.010 167.980 C 34.964 152.041, 41.710 139, 42 139 C 42.290 139, 49.036 152.041, 56.990 167.980 C 64.944 183.919, 72.083 197.201, 72.853 197.497 C 74.717 198.213, 77 196.217, 77 193.871 C 77 191.637, 45.272 127.833, 43.630 126.765 C 43.009 126.361, 42.275 126.031, 42 126.031 C 41.725 126.031, 40.981 126.361, 40.348 126.765 M 159.102 127.104 C 134.678 130.816, 113.361 149.180, 105.272 173.479 L 102.602 181.500 102.219 220.299 C 101.931 249.561, 102.132 259.455, 103.041 260.549 C 104.071 261.790, 113.666 261.998, 169.372 261.985 C 205.193 261.976, 235.104 261.586, 235.843 261.118 C 236.940 260.423, 237.107 253.346, 236.757 222.384 C 236.364 187.494, 236.160 183.879, 234.179 176.646 C 230.867 164.550, 225.684 155.707, 216.433 146.367 C 209.680 139.549, 206.828 137.488, 198.933 133.719 C 193.745 131.242, 187.475 128.743, 185 128.165 C 177.972 126.523, 166.123 126.038, 159.102 127.104 M 295.244 159.256 L 262 192.511 262 226.056 C 262 250.812, 262.314 259.914, 263.200 260.800 C 264.109 261.709, 280.200 262, 329.500 262 C 378.800 262, 394.891 261.709, 395.800 260.800 C 396.686 259.914, 397 250.810, 397 226.044 L 397 192.489 363.744 159.244 C 345.454 140.960, 330.039 126, 329.489 126 C 328.939 126, 313.529 140.965, 295.244 159.256 M 153.500 135.893 C 132.956 141.888, 116.807 158.285, 111.543 178.495 C 110.295 183.286, 110 191.077, 110 219.210 L 110 254 170 254 L 230 254 229.983 226.750 C 229.956 184.754, 228.082 173.921, 218.388 159.734 C 210.131 147.650, 197.937 139.175, 183.540 135.515 C 175.580 133.492, 161.106 133.674, 153.500 135.893 M 299.244 165.256 L 269 195.512 269 224.756 L 269 254 329.500 254 L 390 254 390 224.744 L 390 195.488 359.744 165.244 L 329.488 135 299.244 165.256 M 40.348 190.765 C 38.390 192.014, 6.011 257.865, 6.600 259.400 C 7.266 261.135, 9.518 262.122, 11.274 261.448 C 11.975 261.180, 19.056 247.919, 27.010 231.980 C 34.964 216.041, 41.710 203, 42 203 C 42.290 203, 49.036 216.041, 56.990 231.980 C 64.944 247.919, 72.083 261.201, 72.853 261.497 C 74.717 262.213, 77 260.217, 77 257.871 C 77 255.637, 45.272 191.833, 43.630 190.765 C 43.009 190.361, 42.275 190.031, 42 190.031 C 41.725 190.031, 40.981 190.361, 40.348 190.765 " stroke="none" fill="black" fill-rule="evenodd"/>
</svg>