<svg xmlns="http://www.w3.org/2000/svg" width="372" height="324" viewBox="0 0 372 324" version="1.1">
	<path d="M 104.372 62.765 C 102.418 64.037, 86.003 97.844, 86.593 99.381 C 87.268 101.141, 89.513 102.124, 91.295 101.440 C 92.007 101.167, 95.480 95.106, 99.014 87.972 C 102.547 80.837, 105.691 75, 106 75 C 106.309 75, 109.453 80.837, 112.986 87.972 C 116.520 95.106, 119.993 101.167, 120.705 101.440 C 122.487 102.124, 124.732 101.141, 125.407 99.381 C 125.716 98.575, 122.096 90.173, 117.363 80.708 C 109.638 65.261, 107.672 62.031, 106 62.031 C 105.725 62.031, 104.992 62.361, 104.372 62.765 M 7.571 191.571 C 6.707 192.436, 6 193.529, 6 194 C 6 196.622, 9.430 198, 15.960 198 L 22.777 198 23.473 201.750 C 25.059 210.305, 33.051 220.445, 41.651 224.813 C 55.600 231.899, 72.915 228.562, 83.545 216.739 C 87.492 212.349, 92 203.138, 92 199.462 C 92 198.197, 99.457 198, 147.429 198 C 196.485 198, 203.038 197.819, 204.429 196.429 C 206.402 194.455, 206.402 193.545, 204.429 191.571 C 203.022 190.164, 192.719 190, 106 190 C 19.281 190, 8.978 190.164, 7.571 191.571 M 231.571 191.571 C 230.707 192.436, 230 193.529, 230 194 C 230 194.471, 230.707 195.564, 231.571 196.429 C 232.844 197.701, 235.697 198, 246.575 198 L 260.006 198 245.020 227.961 C 236.777 244.439, 230.285 258.580, 230.594 259.384 C 231.265 261.133, 233.512 262.125, 235.274 261.448 C 235.975 261.180, 243.056 247.919, 251.010 231.980 C 258.964 216.041, 265.710 203, 266 203 C 266.290 203, 273.036 216.041, 280.990 231.980 C 288.944 247.919, 296.025 261.180, 296.726 261.448 C 297.427 261.717, 298.573 261.717, 299.274 261.448 C 299.975 261.180, 307.056 247.919, 315.010 231.980 C 322.964 216.041, 329.710 203, 330 203 C 330.290 203, 337.036 216.041, 344.990 231.980 C 352.944 247.919, 360.025 261.180, 360.726 261.448 C 362.488 262.125, 364.735 261.133, 365.406 259.384 C 365.715 258.580, 359.223 244.439, 350.980 227.961 L 335.994 198 349.425 198 C 360.303 198, 363.156 197.701, 364.429 196.429 C 365.293 195.564, 366 194.471, 366 194 C 366 193.529, 365.293 192.436, 364.429 191.571 C 363.032 190.175, 355.628 190, 298 190 C 240.372 190, 232.968 190.175, 231.571 191.571 M 30.525 200.250 C 34.314 213.167, 44.497 221, 57.500 221 C 70.503 221, 80.686 213.167, 84.475 200.250 L 85.135 198 57.500 198 L 29.865 198 30.525 200.250 M 284.743 223.500 C 291.750 237.525, 297.715 249, 298 249 C 298.285 249, 304.250 237.525, 311.257 223.500 L 323.995 198 298 198 L 272.005 198 284.743 223.500 " stroke="none" fill="black" fill-rule="evenodd"/>
</svg>