<svg xmlns="http://www.w3.org/2000/svg" width="452" height="324" viewBox="0 0 452 324" version="1.1">
	<path d="M 135.550 62.918 C 131.869 68.875, 118.190 98.331, 118.604 99.410 C 119.406 101.500, 122.028 102.222, 123.719 100.818 C 124.525 100.149, 128.012 93.961, 131.467 87.066 L 137.750 74.530 144.318 87.636 C 147.930 94.844, 151.643 101.033, 152.569 101.388 C 154.681 102.199, 157 100.355, 157 97.866 C 157 95.626, 141.264 63.831, 139.628 62.765 C 138.071 61.751, 136.229 61.820, 135.550 62.918 M 71.200 127.200 C 70.319 128.081, 70 136.578, 70 159.200 L 70 190 39.571 190 C 13.242 190, 8.931 190.212, 7.571 191.571 C 5.598 193.545, 5.598 194.455, 7.571 196.429 C 8.931 197.788, 13.242 198, 39.571 198 L 70 198 70 228.800 C 70 251.422, 70.319 259.919, 71.200 260.800 C 72.109 261.709, 88.172 261.996, 137.450 261.985 C 173.227 261.976, 203.072 261.606, 203.772 261.162 C 205.639 259.977, 205.639 128.023, 203.772 126.838 C 203.072 126.394, 173.228 126.024, 137.450 126.015 C 88.172 126.004, 72.109 126.291, 71.200 127.200 M 285.500 127.418 C 257.780 132.810, 237.221 152.957, 231.583 180.254 C 229.336 191.130, 229.480 195.651, 232.117 197.062 C 235.393 198.816, 236.760 196.554, 237.900 187.500 C 239.745 172.842, 244.428 162.632, 253.842 152.740 C 260.755 145.476, 268.422 140.365, 276.887 137.377 C 288.646 133.226, 288.490 133.979, 274.736 147.764 C 267.731 154.784, 262 161.293, 262 162.229 C 262 163.164, 262.959 164.443, 264.131 165.070 C 266.073 166.110, 267.495 164.981, 280.131 152.369 L 294 138.527 294 199.228 C 294 259.533, 294.013 259.937, 296.064 261.034 C 301.059 263.708, 301 264.453, 301 199.174 L 301 138.592 314.830 152.296 C 322.437 159.833, 329.097 166, 329.630 166 C 331.106 166, 333 163.788, 333 162.064 C 333 161.219, 327.262 154.730, 320.250 147.644 C 309.115 136.392, 307.883 134.829, 310.526 135.310 C 321.159 137.244, 336.064 146.366, 343.144 155.272 C 350.874 164.995, 356.931 181.166, 356.983 192.215 C 357.003 196.642, 360.005 199.071, 362.696 196.837 C 364.952 194.965, 363.833 181.603, 360.630 172.165 C 357.083 161.712, 352.602 154.666, 343.911 145.876 C 337.663 139.557, 334.661 137.409, 326.911 133.709 C 321.735 131.238, 315.463 128.736, 312.974 128.150 C 305.104 126.296, 292.935 125.972, 285.500 127.418 M 78 162 L 78 190 103.202 190 L 128.405 190 115.202 176.667 C 107.941 169.334, 102 162.841, 102 162.239 C 102 160.798, 104.832 158, 106.290 158 C 107.969 158, 142 192.307, 142 194 C 142 195.693, 107.969 230, 106.290 230 C 104.832 230, 102 227.202, 102 225.761 C 102 225.159, 107.941 218.666, 115.202 211.333 L 128.405 198 103.202 198 L 78 198 78 226 L 78 254 138 254 L 198 254 198 194 L 198 134 138 134 L 78 134 78 162 M 407.750 159.080 C 406.186 159.991, 406 162.007, 406 178.015 C 406 195.091, 406.097 195.981, 408.064 197.034 C 412.445 199.379, 413 197.247, 413 178.078 C 413 158.416, 412.430 156.354, 407.750 159.080 M 403.685 207.017 C 396.110 209.290, 390.044 217.510, 390.044 225.500 C 390.044 236.910, 401.441 246.509, 412.520 244.430 C 417.405 243.514, 423.574 238.755, 425.973 234.053 C 433.432 219.431, 419.328 202.322, 403.685 207.017 M 402.881 215.503 C 400.218 216.951, 397 222.420, 397 225.500 C 397 228.694, 400.267 234.087, 403.085 235.544 C 412.835 240.586, 423.182 232.226, 420.065 221.824 C 418.045 215.081, 409.466 211.925, 402.881 215.503 " stroke="none" fill="black" fill-rule="evenodd"/>
</svg>