<svg xmlns="http://www.w3.org/2000/svg" width="308" height="324" viewBox="0 0 308 324" version="1.1">
	<path d="M 39.571 127.571 C 38.288 128.855, 38 131.788, 38 143.571 L 38 158 23.571 158 C 11.788 158, 8.855 158.288, 7.571 159.571 C 5.598 161.545, 5.598 162.455, 7.571 164.429 C 8.855 165.712, 11.788 166, 23.571 166 L 38 166 38 194 L 38 222 23.571 222 C 11.788 222, 8.855 222.288, 7.571 223.571 C 6.707 224.436, 6 225.529, 6 226 C 6 226.471, 6.707 227.564, 7.571 228.429 C 8.855 229.712, 11.788 230, 23.571 230 L 38 230 38 244.429 C 38 256.212, 38.288 259.145, 39.571 260.429 C 40.436 261.293, 41.529 262, 42 262 C 42.471 262, 43.564 261.293, 44.429 260.429 C 45.712 259.145, 46 256.212, 46 244.429 L 46 230 74 230 L 102 230 102 244.429 C 102 256.212, 102.288 259.145, 103.571 260.429 C 105.678 262.535, 106.598 262.412, 108.443 259.777 C 109.669 258.028, 110 254.631, 110 243.804 L 110 230.053 124.643 229.777 C 137.314 229.537, 139.433 229.264, 140.387 227.750 C 141.191 226.475, 141.191 225.525, 140.387 224.250 C 139.433 222.736, 137.314 222.463, 124.643 222.223 L 110 221.947 110 194 L 110 166.053 124.643 165.777 C 137.314 165.537, 139.433 165.264, 140.387 163.750 C 141.191 162.475, 141.191 161.525, 140.387 160.250 C 139.433 158.736, 137.314 158.463, 124.643 158.223 L 110 157.947 110 144.196 C 110 133.369, 109.669 129.972, 108.443 128.223 C 106.598 125.588, 105.678 125.465, 103.571 127.571 C 102.288 128.855, 102 131.788, 102 143.571 L 102 158 74 158 L 46 158 46 143.571 C 46 131.788, 45.712 128.855, 44.429 127.571 C 43.564 126.707, 42.471 126, 42 126 C 41.529 126, 40.436 126.707, 39.571 127.571 M 167.750 127.080 C 166.111 128.035, 166 132.293, 166 194.015 C 166 259.587, 166.011 259.935, 168.064 261.034 C 173.084 263.721, 173 264.854, 173 194.078 C 173 123.068, 173.071 123.981, 167.750 127.080 M 295.115 127.361 C 294.295 128.349, 294.056 146.745, 294.243 194.502 C 294.478 254.631, 294.643 260.373, 296.166 261.333 C 297.375 262.096, 298.267 262.023, 299.416 261.070 C 300.832 259.895, 301 252.783, 301 194.078 C 301 144.328, 300.709 128.109, 299.800 127.200 C 298.222 125.622, 296.510 125.681, 295.115 127.361 M 231.750 159.080 C 230.186 159.991, 230 162.007, 230 178.015 C 230 195.091, 230.097 195.981, 232.064 197.034 C 236.445 199.379, 237 197.247, 237 178.078 C 237 158.416, 236.430 156.354, 231.750 159.080 M 46 194 L 46 222 74 222 L 102 222 102 194 L 102 166 74 166 L 46 166 46 194 M 228 207.175 C 217.069 210.281, 211.191 222.342, 215.538 232.746 C 217.504 237.450, 219.631 239.773, 224 241.984 C 234.433 247.265, 244.885 244.026, 250.044 233.914 C 255.275 223.660, 249.320 210.127, 238.219 207.044 C 233.853 205.831, 232.675 205.847, 228 207.175 M 226.817 215.718 C 219.688 220.140, 219.781 231.077, 226.983 235.331 C 234.727 239.905, 245 234.300, 245 225.500 C 245 216.681, 234.431 210.995, 226.817 215.718 " stroke="none" fill="black" fill-rule="evenodd"/>
</svg>