<svg xmlns="http://www.w3.org/2000/svg" width="372" height="324" viewBox="0 0 372 324" version="1.1">
	<path d="M 71.571 127.571 C 70.288 128.855, 70 131.788, 70 143.571 L 70 158 55.571 158 C 43.788 158, 40.855 158.288, 39.571 159.571 C 38.219 160.924, 38 164.988, 38 188.774 L 38 216.405 24.667 203.202 C 17.334 195.941, 10.841 190, 10.239 190 C 8.791 190, 6 192.834, 6 194.305 C 6 195.823, 72.177 262, 73.695 262 C 74.334 262, 75.564 261.293, 76.429 260.429 C 77.712 259.145, 78 256.212, 78 244.429 L 78 230 92.429 230 C 104.212 230, 107.145 229.712, 108.429 228.429 C 109.793 227.064, 110 222.537, 110 194 C 110 165.463, 109.793 160.936, 108.429 159.571 C 107.145 158.288, 104.212 158, 92.429 158 L 78 158 78 143.571 C 78 131.788, 77.712 128.855, 76.429 127.571 C 75.564 126.707, 74.471 126, 74 126 C 73.529 126, 72.436 126.707, 71.571 127.571 M 295.571 127.571 C 294.707 128.436, 294 129.529, 294 130 C 294 130.471, 294.707 131.564, 295.571 132.429 C 296.855 133.712, 299.788 134, 311.571 134 L 326 134 326 194 L 326 254 311.571 254 C 299.788 254, 296.855 254.288, 295.571 255.571 C 294.707 256.436, 294 257.529, 294 258 C 294 258.471, 294.707 259.564, 295.571 260.429 C 296.936 261.793, 301.463 262, 330 262 C 358.537 262, 363.064 261.793, 364.429 260.429 C 365.293 259.564, 366 258.471, 366 258 C 366 257.529, 365.293 256.436, 364.429 255.571 C 363.145 254.288, 360.212 254, 348.429 254 L 334 254 334 194 L 334 134 348.429 134 C 360.212 134, 363.145 133.712, 364.429 132.429 C 365.293 131.564, 366 130.471, 366 130 C 366 129.529, 365.293 128.436, 364.429 127.571 C 363.064 126.207, 358.537 126, 330 126 C 301.463 126, 296.936 126.207, 295.571 127.571 M 46 194 L 46 222 58 222 L 70 222 70 194 L 70 166 58 166 L 46 166 46 194 M 78 194 L 78 222 90 222 L 102 222 102 194 L 102 166 90 166 L 78 166 78 194 M 191 229 L 191 257 194.500 257 C 197.644 257, 198.003 256.720, 198.032 254.250 C 198.059 251.907, 198.244 251.729, 199.282 253.046 C 203.420 258.297, 212.662 259.723, 218.701 256.040 C 223.419 253.164, 225.284 248.751, 225.802 239.236 C 226.378 228.660, 224.833 222.938, 220.331 218.986 C 217.435 216.443, 216.111 216, 211.416 216 C 205.578 216, 200.768 217.852, 199.080 220.750 C 198.341 222.018, 198.052 219.542, 198.030 211.750 L 198 201 194.500 201 L 191 201 191 229 M 150.034 217.752 C 146.397 219.586, 142.397 225.216, 143.483 226.973 C 143.832 227.538, 145.618 228, 147.451 228 C 150.155 228, 150.899 227.537, 151.399 225.545 C 152.552 220.952, 163.539 220.076, 166.525 224.340 C 167.336 225.498, 168 227.920, 168 229.723 L 168 233 161.250 233.006 C 149.133 233.016, 142.756 236.453, 141.395 243.709 C 140.590 247.998, 142.300 254.057, 145.007 256.506 C 149.633 260.693, 163.336 258.977, 166.070 253.870 C 167.270 251.626, 169 251.408, 169 253.500 C 169 257.435, 175.573 260.252, 180.418 258.393 C 183.124 257.355, 182.292 254.308, 179.130 253.676 L 176.260 253.102 175.815 239.157 C 175.324 223.776, 174.573 221.539, 168.696 217.956 C 164.521 215.411, 154.884 215.305, 150.034 217.752 M 245.922 218.274 C 241.176 221.472, 238.300 226.184, 237.487 232.092 C 235.327 247.799, 242.368 259.002, 254.398 258.998 C 260.710 258.997, 265.742 256.575, 268.730 252.102 C 272.113 247.038, 271.765 245, 267.519 245 C 264.631 245, 263.930 245.430, 263.405 247.523 C 261.983 253.190, 252.969 255.060, 248.521 250.612 C 245.583 247.674, 244.656 243.094, 245.167 234.042 C 245.485 228.420, 246.016 226.612, 247.954 224.549 C 252.352 219.868, 263 221.999, 263 227.560 C 263 228.752, 263.886 229.047, 266.750 228.810 C 269.856 228.553, 270.447 228.157, 270.193 226.500 C 268.839 217.679, 254.178 212.710, 245.922 218.274 M 203.888 222.500 C 200.303 224.448, 198.507 229.288, 198.507 237 C 198.507 244.859, 200.328 249.601, 204.091 251.547 C 211.107 255.175, 217.183 251.215, 218.374 242.237 C 220.450 226.590, 213.581 217.232, 203.888 222.500 M 60.500 239 C 65.427 243.950, 69.580 248, 69.729 248 C 69.878 248, 70 243.950, 70 239 L 70 230 60.771 230 L 51.542 230 60.500 239 M 153.285 239.476 C 147.970 241.787, 147.299 250.207, 152.210 252.951 C 158.285 256.346, 168 249.209, 168 241.352 L 168 238 162.250 238.039 C 159.088 238.061, 155.053 238.707, 153.285 239.476 " stroke="none" fill="black" fill-rule="evenodd"/>
</svg>