<svg xmlns="http://www.w3.org/2000/svg" width="403" height="324" viewBox="0 0 403 324" version="1.1">
	<path d="M 71.200 127.200 C 70.292 128.108, 70 143.689, 70 191.200 L 70 254 39.571 254 C 13.242 254, 8.931 254.212, 7.571 255.571 C 5.596 257.546, 5.598 258.455, 7.579 260.436 C 8.990 261.847, 16.058 261.987, 74.220 261.757 C 134.934 261.517, 139.356 261.383, 140.386 259.750 C 141.191 258.474, 141.191 257.526, 140.386 256.250 C 139.381 254.655, 136.566 254.477, 108.641 254.236 L 78 253.971 78 225.986 L 78 198 108.429 198 C 134.758 198, 139.069 197.788, 140.429 196.429 C 141.793 195.064, 142 190.537, 142 162 C 142 133.463, 141.793 128.936, 140.429 127.571 C 139.063 126.206, 134.503 126, 105.629 126 C 81.117 126, 72.085 126.315, 71.200 127.200 M 328.500 158 L 296.512 190 233.190 190 C 191.453 190, 169.209 190.353, 167.934 191.035 C 165.446 192.367, 165.446 195.633, 167.934 196.965 C 168.998 197.534, 175.523 198, 182.434 198 C 189.345 198, 195 198.228, 195 198.507 C 195 198.785, 188.475 212.057, 180.500 228 C 172.525 243.943, 166 257.649, 166 258.458 C 166 260.785, 169.808 262.404, 171.663 260.865 C 172.507 260.164, 179.622 246.749, 187.474 231.052 L 201.750 202.514 216.337 231.674 C 224.360 247.713, 231.395 261.126, 231.971 261.482 C 234.864 263.270, 237.168 259.695, 251.125 231.762 L 265.744 202.502 280.310 231.620 C 288.485 247.962, 295.617 261.023, 296.565 261.386 C 298.519 262.136, 301 260.416, 301 258.311 C 301 257.517, 294.509 243.622, 286.576 227.433 L 272.152 198 285.332 198 L 298.512 198 329.997 166.503 L 361.483 135.005 377.245 150.745 C 390.723 164.203, 393.261 166.325, 394.754 165.385 C 398.733 162.880, 397.426 160.948, 379.861 143.361 C 370.324 133.812, 362.064 126, 361.505 126 C 360.946 126, 346.094 140.400, 328.500 158 M 78 162 L 78 190 106 190 L 134 190 134 162 L 134 134 106 134 L 78 134 78 162 M 220.608 223.250 C 227.546 237.137, 233.371 248.661, 233.553 248.859 C 233.878 249.211, 259 199.502, 259 198.508 C 259 198.228, 247.523 198, 233.496 198 L 207.992 198 220.608 223.250 " stroke="none" fill="black" fill-rule="evenodd"/>
</svg>