<svg xmlns="http://www.w3.org/2000/svg" width="244" height="324" viewBox="0 0 244 324" version="1.1">
	<path d="M 39.571 127.571 C 38.207 128.935, 38 133.425, 38 161.577 L 38 194.012 22.016 225.967 C 13.225 243.542, 6.285 258.580, 6.594 259.384 C 7.265 261.133, 9.512 262.124, 11.274 261.448 C 11.975 261.180, 19.056 247.919, 27.010 231.980 C 34.964 216.041, 41.710 203, 42 203 C 42.290 203, 49.036 216.041, 56.990 231.980 C 64.944 247.919, 72.025 261.180, 72.726 261.448 C 74.488 262.124, 76.735 261.133, 77.406 259.384 C 77.715 258.580, 70.775 243.542, 61.984 225.967 L 46 194.012 46 161.577 C 46 133.425, 45.793 128.935, 44.429 127.571 C 43.564 126.707, 42.471 126, 42 126 C 41.529 126, 40.436 126.707, 39.571 127.571 M 103.200 127.200 C 101.481 128.919, 101.481 195.081, 103.200 196.800 C 104.606 198.206, 233.588 198.548, 235.790 197.151 C 236.802 196.509, 237.076 189.129, 237.062 162.916 C 237.052 144.537, 237.033 128.968, 237.022 128.317 C 237.010 127.667, 236.042 126.831, 234.870 126.459 C 233.090 125.894, 230.172 128.347, 217.095 141.405 L 201.450 157.028 186.046 141.514 C 177.574 132.981, 170.165 126, 169.583 126 C 169 126, 161.662 132.850, 153.277 141.223 L 138.030 156.446 122.692 141.223 C 114.257 132.850, 106.690 126, 105.877 126 C 105.065 126, 103.860 126.540, 103.200 127.200 M 154.167 150.460 C 145.790 159.007, 138.394 166, 137.732 166 C 137.069 166, 130.558 160.044, 123.263 152.764 L 110 139.528 110 164.764 L 110 190 170 190 L 230 190 229.994 164.250 L 229.988 138.500 216.576 151.973 C 209.200 159.383, 202.625 165.625, 201.966 165.845 C 201.307 166.064, 193.709 159.196, 185.082 150.582 L 169.397 134.920 154.167 150.460 " stroke="none" fill="black" fill-rule="evenodd"/>
</svg>