<svg xmlns="http://www.w3.org/2000/svg" width="436" height="324" viewBox="0 0 436 324" version="1.1">
	<path d="M 63.870 127.071 C 48.893 129.271, 37.652 135.158, 25.974 146.916 C 12.475 160.507, 6.696 174.473, 6.696 193.500 C 6.696 211.262, 12.336 225.803, 24.119 238.420 C 35.895 251.030, 48.783 257.745, 65.833 260.157 C 91.936 263.848, 120.028 248.817, 132.759 224.347 C 138.004 214.264, 140.218 205.111, 140.218 193.500 C 140.218 181.889, 138.004 172.736, 132.759 162.653 C 122.780 143.473, 103.903 130.147, 82.284 127.020 C 74.551 125.902, 71.772 125.910, 63.870 127.071 M 57.500 135.870 C 37.436 141.645, 20.733 158.691, 15.585 178.644 C 13.554 186.517, 13.554 200.483, 15.585 208.356 C 18.169 218.372, 23.639 227.725, 31.459 235.500 C 35.332 239.350, 39.936 243.298, 41.692 244.272 L 44.884 246.045 42.522 241.772 C 33.470 225.404, 40.025 203.766, 56.767 194.751 C 67.067 189.204, 78.555 189.114, 89.568 194.493 C 106.197 202.616, 113.158 224.072, 104.705 241.152 L 102.353 245.905 105.393 244.202 C 107.065 243.266, 111.665 239.305, 115.616 235.399 C 127.121 224.025, 133 209.855, 133 193.500 C 133 183.313, 131.503 176.931, 126.809 167.101 C 119.638 152.084, 104.631 139.784, 88.356 135.585 C 80.226 133.488, 65.296 133.625, 57.500 135.870 M 183.571 159.571 C 181.243 161.900, 181.243 194.100, 183.571 196.429 C 185.678 198.535, 186.598 198.412, 188.443 195.777 C 189.690 193.997, 190 190.460, 190 178 C 190 165.540, 189.690 162.003, 188.443 160.223 C 186.598 157.588, 185.678 157.465, 183.571 159.571 M 391.750 159.082 C 390.788 159.642, 390 160.858, 390 161.786 C 390 162.714, 395.956 169.442, 403.236 176.737 L 416.472 190 388.308 190 C 356.786 190, 357 189.953, 357 196.911 C 357 203.127, 353.245 215.866, 349.340 222.899 C 343.912 232.675, 333.977 241.998, 323.820 246.847 C 313.916 251.576, 307.674 253, 296.845 253 C 280.541 253, 266.822 247.141, 254.993 235.125 C 244.597 224.566, 238 210.352, 238 198.512 C 238 194.610, 235.842 190, 234.015 190 C 233.535 190, 232.391 190.751, 231.473 191.670 C 230.091 193.052, 229.924 194.470, 230.506 199.903 C 231.924 213.145, 236.673 224.722, 244.882 234.950 C 254.213 246.577, 266.989 254.935, 281.113 258.652 C 289.646 260.898, 305.436 260.856, 314 258.566 C 330.585 254.130, 347.474 241.106, 355.564 226.513 C 359.599 219.233, 364 205.866, 364 200.887 L 364 198 390.236 198 L 416.472 198 403.236 211.263 C 395.956 218.558, 390 225.292, 390 226.228 C 390 227.164, 390.952 228.439, 392.115 229.062 C 394.040 230.092, 395.774 228.675, 411.348 213.347 C 428.797 196.174, 429.958 194.961, 429.985 193.886 C 430.002 193.179, 395.261 158.610, 394.202 158.282 C 393.816 158.162, 392.712 158.522, 391.750 159.082 M 63.605 199.568 C 56.049 202.337, 56.073 202.527, 65.170 211.671 L 73.457 220.001 81.692 211.809 C 90.838 202.711, 90.906 202.178, 83.260 199.573 C 77.620 197.651, 68.842 197.649, 63.605 199.568 M 180.764 206.996 C 168.390 210.722, 162.828 224.205, 169.188 235.057 C 175.253 245.407, 188.636 247.648, 197.564 239.809 C 202.404 235.560, 204.143 231.778, 204.143 225.500 C 204.143 219.227, 202.404 215.440, 197.578 211.203 C 192.492 206.737, 186.556 205.252, 180.764 206.996 M 49.570 211.253 C 44.719 218.656, 44.828 233.891, 49.775 239.955 C 51.490 242.057, 51.548 242.021, 59.751 233.763 L 68.001 225.457 59.605 217.104 L 51.209 208.752 49.570 211.253 M 87.191 217.308 L 78.999 225.543 87.329 233.830 C 96.530 242.983, 96.678 242.998, 99.487 235.038 C 101.439 229.503, 101.415 221.574, 99.427 215.740 C 96.822 208.094, 96.289 208.162, 87.191 217.308 M 177.400 217.400 C 174.498 220.302, 174 221.488, 174 225.500 C 174 229.512, 174.498 230.698, 177.400 233.600 C 180.302 236.502, 181.488 237, 185.500 237 C 189.512 237, 190.698 236.502, 193.600 233.600 C 196.502 230.698, 197 229.512, 197 225.500 C 197 221.488, 196.502 220.302, 193.600 217.400 C 190.698 214.498, 189.512 214, 185.500 214 C 181.488 214, 180.302 214.498, 177.400 217.400 M 65.170 239.329 C 56.017 248.530, 56.002 248.678, 63.962 251.487 C 69.497 253.439, 77.426 253.415, 83.260 251.427 C 90.906 248.822, 90.838 248.289, 81.692 239.191 L 73.457 230.999 65.170 239.329 " stroke="none" fill="black" fill-rule="evenodd"/>
</svg>