<svg xmlns="http://www.w3.org/2000/svg" width="308" height="324" viewBox="0 0 308 324" version="1.1">
	<path d="M 63.102 127.104 C 48.516 129.321, 35.328 136.577, 24.168 148.528 C 13.801 159.628, 8.225 172.265, 6.488 188.598 C 5.962 193.536, 6.153 195.010, 7.491 196.348 C 9.547 198.404, 10.439 198.418, 12.429 196.429 C 13.404 195.453, 14.006 193.082, 14.015 190.179 C 14.091 166.127, 34.559 141.323, 59.103 135.537 C 90.978 128.024, 122.983 147.153, 131.003 178.511 C 132.101 182.806, 133 188.482, 133 191.125 C 133 194.956, 133.418 196.154, 135.064 197.034 C 142.986 201.274, 141.161 178.669, 132.196 161.516 C 126.915 151.410, 114.917 139.609, 104.500 134.271 C 91.374 127.546, 76.799 125.023, 63.102 127.104 M 226.355 127.039 C 216.144 129.060, 206.058 137.072, 201.244 146.987 C 198.948 151.715, 198.567 153.781, 198.567 161.500 C 198.567 169.219, 198.948 171.285, 201.244 176.013 C 202.716 179.044, 205.851 183.493, 208.210 185.899 C 212.910 190.689, 222.916 195.998, 227.250 195.999 L 230 196 230 225 L 230 254 199.934 254 C 181.122 254, 169.145 254.387, 167.934 255.035 C 165.440 256.370, 165.448 259.634, 167.948 260.972 C 169.256 261.672, 191.132 261.930, 234.589 261.757 C 294.951 261.517, 299.356 261.383, 300.386 259.750 C 301.191 258.474, 301.191 257.526, 300.386 256.250 C 299.380 254.654, 296.542 254.477, 268.141 254.236 L 237 253.972 237 225.222 L 237 196.473 242.137 195.253 C 257.066 191.707, 267.953 177.473, 267.953 161.500 C 267.953 145.234, 257.408 131.686, 241.530 127.550 C 235.070 125.867, 232.684 125.787, 226.355 127.039 M 221.500 136.387 C 200.908 146.139, 200.314 175.797, 220.500 186.246 C 226.710 189.460, 237.254 189.807, 243.754 187.010 C 253.560 182.792, 261 171.787, 261 161.500 C 261 151.480, 253.989 140.797, 244.500 136.358 C 237.594 133.128, 228.358 133.140, 221.500 136.387 M 39.230 223.285 C 20.953 241.591, 6 257.084, 6 257.713 C 6 258.342, 6.707 259.564, 7.571 260.429 C 8.968 261.825, 16.372 262, 74 262 C 131.628 262, 139.032 261.825, 140.429 260.429 C 141.293 259.564, 141.986 258.552, 141.970 258.179 C 141.907 256.750, 75.260 190, 73.897 190 C 73.106 190, 57.506 204.978, 39.230 223.285 M 46.500 227 L 19.514 254 74 254 L 128.486 254 101.500 227 C 86.658 212.150, 74.283 200, 74 200 C 73.717 200, 61.342 212.150, 46.500 227 " stroke="none" fill="black" fill-rule="evenodd"/>
</svg>