<svg xmlns="http://www.w3.org/2000/svg" width="403" height="324" viewBox="0 0 403 324" version="1.1">
	<path d="M 39.571 127.571 C 38.176 128.966, 38 136.152, 38 191.571 L 38 254 23.571 254 C 11.788 254, 8.855 254.288, 7.571 255.571 C 5.598 257.545, 5.598 258.455, 7.571 260.429 C 8.936 261.793, 13.463 262, 42 262 C 70.537 262, 75.064 261.793, 76.429 260.429 C 77.293 259.564, 78 258.471, 78 258 C 78 257.529, 77.293 256.436, 76.429 255.571 C 75.145 254.288, 72.212 254, 60.429 254 L 46 254 46 191.571 C 46 136.152, 45.824 128.966, 44.429 127.571 C 43.564 126.707, 42.471 126, 42 126 C 41.529 126, 40.436 126.707, 39.571 127.571 M 157.500 127.418 C 142.943 130.250, 131.959 136.142, 121.488 146.735 C 110.801 157.546, 103.989 172.187, 102.469 187.614 C 101.891 193.479, 102.055 194.912, 103.460 196.317 C 104.386 197.243, 105.535 198, 106.015 198 C 107.925 198, 110 193.308, 110 188.988 C 110 171.115, 124.259 149.387, 141.746 140.614 C 180.107 121.369, 225.078 146.128, 228.656 188.463 C 229.170 194.542, 229.690 196.299, 231.214 197.115 C 238.880 201.217, 236.961 178.149, 228.264 161.652 C 225.771 156.922, 221.777 151.762, 216.433 146.367 C 209.680 139.549, 206.828 137.488, 198.933 133.719 C 193.745 131.242, 187.463 128.736, 184.974 128.150 C 177.104 126.296, 164.935 125.972, 157.500 127.418 M 322.355 127.039 C 312.163 129.057, 302.088 137.050, 297.205 146.993 C 294.873 151.740, 294.500 153.743, 294.500 161.500 C 294.500 169.257, 294.873 171.260, 297.205 176.007 C 298.692 179.035, 301.842 183.484, 304.205 185.893 C 308.909 190.689, 318.914 195.998, 323.250 195.999 L 326 196 326 225 L 326 254 295.934 254 C 277.122 254, 265.145 254.387, 263.934 255.035 C 261.440 256.370, 261.448 259.634, 263.948 260.972 C 265.256 261.672, 287.132 261.930, 330.589 261.757 C 390.951 261.517, 395.356 261.383, 396.386 259.750 C 397.191 258.474, 397.191 257.526, 396.386 256.250 C 395.380 254.654, 392.542 254.477, 364.141 254.236 L 333 253.972 333 225.222 L 333 196.473 338.137 195.253 C 353.066 191.707, 363.953 177.473, 363.953 161.500 C 363.953 145.234, 353.408 131.686, 337.530 127.550 C 331.070 125.867, 328.684 125.787, 322.355 127.039 M 318 136.079 C 312.133 138.731, 307.447 143.297, 304.223 149.500 C 300.692 156.296, 300.561 166.422, 303.918 173 C 309.085 183.120, 316.470 188.053, 327.540 188.776 C 336.803 189.381, 343.252 186.738, 349.520 179.767 C 359.207 168.992, 359.318 154.323, 349.793 143.502 C 341.783 134.402, 328.545 131.311, 318 136.079 M 135.250 223.237 C 116.963 241.538, 102 257.206, 102 258.056 C 102 261.987, 102.227 262, 169.118 262 C 204.713 262, 234.548 261.727, 235.418 261.393 C 239.696 259.752, 236.813 256.270, 204.020 223.479 C 185.882 205.340, 170.469 190.379, 169.770 190.232 C 169.072 190.084, 153.537 204.936, 135.250 223.237 M 142.682 226.169 L 116.038 253.500 143.019 253.766 C 157.859 253.912, 182.153 253.912, 197.008 253.766 L 224.015 253.500 196.670 226.169 L 169.325 198.838 142.682 226.169 " stroke="none" fill="black" fill-rule="evenodd"/>
</svg>