<svg xmlns="http://www.w3.org/2000/svg" width="340" height="324" viewBox="0 0 340 324" version="1.1">
	<path d="M 39.571 127.571 C 38.176 128.966, 38 136.152, 38 191.571 L 38 254 23.571 254 C 11.788 254, 8.855 254.288, 7.571 255.571 C 5.598 257.545, 5.598 258.455, 7.571 260.429 C 8.936 261.793, 13.463 262, 42 262 C 70.537 262, 75.064 261.793, 76.429 260.429 C 77.293 259.564, 78 258.471, 78 258 C 78 257.529, 77.293 256.436, 76.429 255.571 C 75.145 254.288, 72.212 254, 60.429 254 L 46 254 46 191.571 C 46 136.152, 45.824 128.966, 44.429 127.571 C 43.564 126.707, 42.471 126, 42 126 C 41.529 126, 40.436 126.707, 39.571 127.571 M 103.200 127.200 C 102.291 128.109, 102 144.328, 102 194.078 C 102 264.215, 101.923 263.111, 106.714 261.591 C 109.273 260.779, 174 195.740, 174 193.982 C 174 192.035, 107.882 126, 105.933 126 C 105.090 126, 103.860 126.540, 103.200 127.200 M 253.500 127.418 C 228.437 132.293, 209.479 149.018, 201.265 173.500 L 198.580 181.500 198.217 220.309 C 197.945 249.402, 198.153 259.480, 199.049 260.559 C 200.068 261.787, 209.884 261.998, 265.372 261.985 C 301.193 261.976, 331.097 261.591, 331.826 261.129 C 332.888 260.456, 333.130 253.663, 333.041 227.058 C 332.926 192.963, 332.290 183.576, 329.443 174 C 324.654 157.893, 311.395 141.902, 296.500 134.271 C 282.732 127.217, 267.233 124.747, 253.500 127.418 M 250.645 135.584 C 230.654 140.423, 212.831 158.195, 207.520 178.584 C 206.301 183.265, 206 191.307, 206 219.210 L 206 254 266 254 L 326 254 325.983 226.750 C 325.963 195.308, 324.980 183.618, 321.518 173.664 C 318.487 164.950, 311.437 154.412, 304.686 148.506 C 298.643 143.220, 287.739 137.584, 279.540 135.509 C 272.205 133.652, 258.478 133.688, 250.645 135.584 M 110 194 L 110 248.495 137.248 221.248 L 164.495 194 137.248 166.752 L 110 139.505 110 194 M 260.994 158.934 C 252.598 161.488, 247.486 167.175, 246.388 175.183 C 245.823 179.311, 245.999 179.929, 248.061 181.033 C 250.071 182.108, 250.599 181.979, 252.183 180.022 C 253.182 178.788, 254 176.658, 254 175.289 C 254 173.792, 255.355 171.445, 257.400 169.400 C 260.231 166.569, 261.533 166, 265.177 166 C 270.176 166, 273.354 167.849, 275.506 172.011 C 279.514 179.761, 275.646 186.576, 265.500 189.639 L 262.500 190.544 262.217 201.219 C 261.948 211.361, 262.044 211.953, 264.150 213.080 C 267.831 215.050, 270 211.318, 270 203.011 C 270 196.502, 270.110 196.197, 272.869 195.054 C 276.505 193.548, 281.559 188.344, 282.939 184.685 C 284.455 180.663, 284.249 172.382, 282.551 169.099 C 280.445 165.026, 274.628 160.268, 270.277 159.060 C 265.999 157.872, 264.550 157.852, 260.994 158.934 M 263.750 222.080 C 261.372 223.465, 261.542 226.685, 264.064 228.034 C 267.753 230.008, 270.819 225.219, 267.800 222.200 C 266.367 220.767, 266.022 220.757, 263.750 222.080 " stroke="none" fill="black" fill-rule="evenodd"/>
</svg>