<svg xmlns="http://www.w3.org/2000/svg" width="244" height="324" viewBox="0 0 244 324" version="1.1">
	<path d="M 39.571 127.571 C 38.176 128.966, 38 136.152, 38 191.571 L 38 254 23.571 254 C 11.788 254, 8.855 254.288, 7.571 255.571 C 5.598 257.545, 5.598 258.455, 7.571 260.429 C 8.936 261.793, 13.463 262, 42 262 C 70.537 262, 75.064 261.793, 76.429 260.429 C 77.293 259.564, 78 258.471, 78 258 C 78 257.529, 77.293 256.436, 76.429 255.571 C 75.145 254.288, 72.212 254, 60.429 254 L 46 254 46 191.571 C 46 136.152, 45.824 128.966, 44.429 127.571 C 43.564 126.707, 42.471 126, 42 126 C 41.529 126, 40.436 126.707, 39.571 127.571 M 159.500 127.042 C 139.122 130.142, 118.750 144.747, 109.589 162.823 C 100.108 181.535, 100.084 205.419, 109.530 224.059 C 117.618 240.021, 135.006 253.858, 153 258.651 C 161.569 260.933, 177.276 260.891, 186 258.562 C 209.016 252.418, 228.195 233.197, 234.014 210.444 C 240.028 186.930, 233.410 163.123, 216.095 145.981 C 201.014 131.051, 179.804 123.953, 159.500 127.042 M 153.500 135.893 C 142.823 139.009, 135.044 143.699, 126.993 151.876 C 115.129 163.924, 110 176.487, 110 193.500 C 110 209.083, 114.840 222.062, 124.724 232.985 C 129.439 238.194, 137.737 245, 139.375 245 C 139.658 245, 138.689 242.412, 137.223 239.250 C 135.040 234.544, 134.554 232.048, 134.546 225.500 C 134.527 211.294, 141.535 200.308, 154.776 193.790 C 160.329 191.056, 162.219 190.638, 168.845 190.681 C 179.277 190.747, 186.465 193.580, 193.353 200.339 C 201.459 208.294, 203.500 213.363, 203.500 225.542 C 203.500 234.521, 203.212 236.139, 200.777 240.833 L 198.053 246.081 201.218 244.291 C 206.825 241.117, 217.562 229.703, 221.340 222.899 C 237.924 193.032, 226.070 154.595, 195.820 140.153 C 191.244 137.968, 185.115 135.690, 182.201 135.090 C 174.351 133.475, 160.453 133.864, 153.500 135.893 M 159.603 199.477 C 151.528 202.354, 151.594 203.079, 160.764 212.249 L 168.985 220.470 177.503 211.997 C 186.013 203.531, 186.018 203.522, 183.818 201.863 C 178.670 197.980, 167.024 196.832, 159.603 199.477 M 146.192 210.269 C 141.752 215.619, 140.575 229.264, 143.918 236.627 C 144.948 238.896, 146.209 241.011, 146.718 241.326 C 147.228 241.641, 151.325 238.199, 155.823 233.678 L 164.001 225.457 155.671 217.170 C 148.884 210.419, 147.128 209.140, 146.192 210.269 M 182.727 216.772 C 178.477 221.047, 175 224.995, 175 225.546 C 175 226.667, 190.144 242, 191.252 242 C 191.641 242, 192.973 240.088, 194.212 237.750 C 196.008 234.363, 196.465 231.875, 196.465 225.500 C 196.465 219.125, 196.008 216.637, 194.212 213.250 C 192.973 210.912, 191.620 209, 191.206 209 C 190.792 209, 186.976 212.497, 182.727 216.772 M 160.477 239.059 L 152.500 247.118 154.830 249.034 C 161.199 254.272, 175.801 254.342, 183.819 249.174 L 186.137 247.680 177.841 239.340 C 173.278 234.753, 169.299 231, 168.999 231 C 168.699 231, 164.864 234.627, 160.477 239.059 " stroke="none" fill="black" fill-rule="evenodd"/>
</svg>