<svg xmlns="http://www.w3.org/2000/svg" width="308" height="324" viewBox="0 0 308 324" version="1.1">
	<path d="M 63.870 127.014 C 56.247 128.211, 46.649 131.523, 40 135.249 C 31.305 140.122, 18.158 154.043, 13.793 163 C 6.895 177.154, 6.745 178.306, 6.267 220.597 C 5.879 255.050, 5.996 258.853, 7.490 260.347 C 8.993 261.850, 14.995 261.999, 73.821 261.985 C 109.395 261.976, 139.097 261.591, 139.826 261.129 C 140.888 260.455, 141.130 253.639, 141.040 226.916 C 140.897 184.107, 139.823 176.185, 132.175 161.500 C 126.924 151.418, 114.926 139.613, 104.500 134.271 C 91.620 127.672, 76.672 125.002, 63.870 127.014 M 221.500 127.418 C 193.780 132.810, 173.221 152.957, 167.583 180.254 C 165.336 191.130, 165.480 195.651, 168.117 197.062 C 171.365 198.801, 172.656 196.613, 173.871 187.308 C 175.940 171.469, 181.277 160.826, 192.500 150.155 C 196.643 146.216, 202.153 142.201, 206 140.318 C 212.495 137.138, 225.611 133.278, 226.591 134.258 C 226.876 134.543, 213.249 162.501, 196.309 196.387 C 170.905 247.203, 165.702 258.304, 166.613 259.749 C 167.647 261.388, 171.921 261.500, 233.500 261.500 C 295.079 261.500, 299.353 261.388, 300.387 259.749 C 301.298 258.304, 296.104 247.222, 270.746 196.497 C 253.836 162.671, 240 134.736, 240 134.418 C 240 134.101, 241.463 134.133, 243.250 134.490 C 256.794 137.197, 270.824 145.255, 278.660 154.828 C 286.771 164.737, 292.929 180.812, 292.983 192.215 C 293.003 196.661, 295.614 198.734, 298.518 196.611 C 300.062 195.482, 300.233 194.264, 299.748 187.851 C 298.020 165.002, 283.560 143.808, 262.822 133.730 C 257.695 131.238, 251.463 128.724, 248.974 128.142 C 241.072 126.295, 228.920 125.975, 221.500 127.418 M 58.645 135.584 C 38.562 140.445, 20.305 158.877, 15.537 179.103 C 14.349 184.144, 14.026 192.762, 14.015 219.750 L 14 254 74.115 254 L 134.230 254 133.747 220.250 C 133.313 189.886, 133.050 185.708, 131.135 178.601 C 125.371 157.218, 108.907 140.946, 87.540 135.515 C 80.213 133.653, 66.488 133.685, 58.645 135.584 M 204.637 196.250 L 176.381 253.500 233.349 253.758 C 264.681 253.900, 290.496 253.837, 290.715 253.618 C 291.216 253.117, 234.196 139, 233.445 139 C 233.141 139, 220.178 164.762, 204.637 196.250 M 231.750 159.080 C 230.186 159.991, 230 162.007, 230 178.015 C 230 195.091, 230.097 195.981, 232.064 197.034 C 236.445 199.379, 237 197.247, 237 178.078 C 237 158.416, 236.430 156.354, 231.750 159.080 M 228 207.175 C 219.349 209.633, 213.384 218.239, 214.230 227.041 C 215.682 242.148, 233.632 249.912, 244.998 240.348 C 256.701 230.501, 252.747 211.079, 238.219 207.044 C 233.853 205.831, 232.675 205.847, 228 207.175 M 226.881 215.503 C 224.218 216.951, 221 222.420, 221 225.500 C 221 228.694, 224.267 234.087, 227.085 235.544 C 235.138 239.708, 245 234.179, 245 225.500 C 245 216.806, 234.820 211.189, 226.881 215.503 " stroke="none" fill="black" fill-rule="evenodd"/>
</svg>