<svg xmlns="http://www.w3.org/2000/svg" width="340" height="324" viewBox="0 0 340 324" version="1.1">
	<path d="M 33.384 159.412 C 15.475 163.758, 3.559 181.807, 6.987 199.396 C 9.923 214.467, 20.510 225.032, 35.660 228.013 C 46.748 230.194, 59.444 225.749, 67.399 216.901 C 85.210 197.091, 75.186 165.489, 49.147 159.360 C 42.397 157.772, 40.111 157.779, 33.384 159.412 M 263.616 159.527 C 262.727 160.416, 262 161.529, 262 162 C 262 163.389, 265.140 166.120, 266.295 165.735 C 268.395 165.035, 269.549 162.094, 268.423 160.310 C 266.905 157.902, 265.474 157.669, 263.616 159.527 M 327.750 159.080 C 325.372 160.465, 325.542 163.685, 328.064 165.034 C 331.753 167.008, 334.819 162.219, 331.800 159.200 C 330.367 157.767, 330.022 157.757, 327.750 159.080 M 31.054 167.728 C 25.018 169.859, 17.781 177.260, 15.667 183.463 C 11.995 194.241, 14.382 205.477, 21.952 213.048 C 32.402 223.497, 49.888 223.773, 60.280 213.653 C 66.701 207.401, 68.500 202.989, 68.500 193.500 C 68.500 184.107, 66.733 179.694, 60.453 173.406 C 53.491 166.434, 41.355 164.091, 31.054 167.728 M 103.579 191.564 C 101.598 193.545, 101.596 194.454, 103.571 196.429 C 104.844 197.701, 107.697 198, 118.575 198 L 132.006 198 117.020 227.961 C 108.777 244.439, 102.285 258.580, 102.594 259.384 C 103.265 261.133, 105.512 262.125, 107.274 261.448 C 107.975 261.180, 115.056 247.919, 123.010 231.980 C 130.964 216.041, 137.717 203, 138.016 203 C 138.315 203, 145.071 216.093, 153.030 232.095 C 160.988 248.098, 167.842 261.402, 168.259 261.660 C 170.839 263.255, 173.516 259.019, 186.996 232.009 C 194.958 216.054, 201.704 203.001, 201.986 203.002 C 202.269 203.004, 208.855 215.983, 216.622 231.846 C 225.052 249.062, 231.452 260.959, 232.499 261.361 C 234.670 262.194, 237 260.388, 237 257.871 C 237 256.835, 230.480 242.952, 222.511 227.021 L 208.021 198.056 221.653 197.778 C 233.361 197.539, 235.441 197.253, 236.388 195.750 C 237.191 194.475, 237.190 193.525, 236.386 192.250 C 235.356 190.617, 230.934 190.483, 170.220 190.243 C 112.058 190.013, 104.990 190.153, 103.579 191.564 M 156.743 223.500 C 163.750 237.525, 169.715 249, 170 249 C 170.285 249, 176.250 237.525, 183.257 223.500 L 195.995 198 170 198 L 144.005 198 156.743 223.500 M 263.616 223.527 C 262.727 224.416, 262 225.529, 262 226 C 262 227.389, 265.140 230.120, 266.295 229.735 C 268.395 229.035, 269.549 226.094, 268.423 224.310 C 266.905 221.902, 265.474 221.669, 263.616 223.527 M 327.750 223.080 C 325.372 224.465, 325.542 227.685, 328.064 229.034 C 331.753 231.008, 334.819 226.219, 331.800 223.200 C 330.367 221.767, 330.022 221.757, 327.750 223.080 M 7.571 255.571 C 6.707 256.436, 6 257.529, 6 258 C 6 258.471, 6.707 259.564, 7.571 260.429 C 8.936 261.793, 13.463 262, 42 262 C 70.537 262, 75.064 261.793, 76.429 260.429 C 77.293 259.564, 78 258.471, 78 258 C 78 257.529, 77.293 256.436, 76.429 255.571 C 75.064 254.207, 70.537 254, 42 254 C 13.463 254, 8.936 254.207, 7.571 255.571 " stroke="none" fill="black" fill-rule="evenodd"/>
</svg>