<svg xmlns="http://www.w3.org/2000/svg" width="308" height="324" viewBox="0 0 308 324" version="1.1">
	<path d="M 39.571 127.571 C 38.176 128.966, 38 136.152, 38 191.571 L 38 254 23.571 254 C 11.788 254, 8.855 254.288, 7.571 255.571 C 5.595 257.548, 5.598 258.455, 7.585 260.442 C 8.978 261.835, 13.159 261.995, 42.226 261.763 C 72.452 261.523, 75.377 261.350, 76.386 259.750 C 77.190 258.475, 77.191 257.525, 76.387 256.250 C 75.433 254.736, 73.314 254.463, 60.643 254.223 L 46 253.947 46 191.545 C 46 136.149, 45.824 128.966, 44.429 127.571 C 43.564 126.707, 42.471 126, 42 126 C 41.529 126, 40.436 126.707, 39.571 127.571 M 130.355 158.986 C 119.790 161.214, 110.114 169.146, 105.329 179.500 C 101.374 188.059, 101.386 198.895, 105.361 207.610 C 108.861 215.285, 115.689 222.075, 123.480 225.629 C 128.315 227.835, 130.902 228.355, 136.980 228.345 C 147.202 228.327, 154.435 225.452, 161.342 218.661 C 167.865 212.246, 170.192 207.319, 172.922 194.142 C 175.414 182.119, 177.504 177.520, 182.455 173.174 C 187.996 168.309, 191.910 166.716, 199.540 166.221 C 208.613 165.632, 215.064 168.223, 221.405 175.002 C 226.078 179.998, 227.502 183.675, 229.922 197 C 232.344 210.329, 239.442 219.894, 250.942 225.326 C 256.419 227.912, 258.517 228.359, 264.942 228.302 C 273.759 228.225, 279.267 226.443, 286.033 221.475 C 295.476 214.544, 300.633 203.093, 299.767 190.981 C 297.973 165.908, 271.657 150.981, 249.303 162.357 C 244.184 164.961, 237.870 170.733, 235.196 175.250 C 234.301 176.762, 233.328 177.984, 233.034 177.963 C 232.740 177.943, 231.201 175.878, 229.613 173.374 C 221.280 160.230, 201.985 154.747, 187.446 161.391 C 181.122 164.281, 176.500 168.130, 171.953 174.293 L 169.155 178.086 166.099 173.644 C 158.374 162.416, 143.334 156.248, 130.355 158.986 M 127.627 167.468 C 122.247 169.386, 117.039 173.829, 113.500 179.519 C 109.527 185.908, 108.712 197.311, 111.741 204.129 C 116.389 214.589, 124.227 220.058, 135.616 220.789 C 142.399 221.224, 143.556 221.001, 149.397 218.125 C 161.374 212.229, 167.511 198.958, 164.096 186.337 C 160.933 174.647, 149.616 165.959, 137.663 166.044 C 134.273 166.068, 129.757 166.709, 127.627 167.468 M 253.500 168.353 C 247.873 170.979, 241.871 177.089, 239.378 182.728 C 237.161 187.744, 237.161 199.256, 239.378 204.272 C 245.620 218.394, 262.797 225.033, 276.538 218.634 C 285.789 214.327, 293 203.316, 293 193.500 C 293 183.684, 285.789 172.673, 276.538 168.366 C 269.625 165.146, 260.382 165.141, 253.500 168.353 M 135.750 191.080 C 133.372 192.465, 133.542 195.685, 136.064 197.034 C 139.753 199.008, 142.819 194.219, 139.800 191.200 C 138.367 189.767, 138.022 189.757, 135.750 191.080 M 263.750 191.080 C 261.372 192.465, 261.542 195.685, 264.064 197.034 C 267.753 199.008, 270.819 194.219, 267.800 191.200 C 266.367 189.767, 266.022 189.757, 263.750 191.080 " stroke="none" fill="black" fill-rule="evenodd"/>
</svg>