<svg xmlns="http://www.w3.org/2000/svg" width="308" height="324" viewBox="0 0 308 324" version="1.1">
	<path d="M 65.384 63.357 C 54.714 66.060, 45.962 73.484, 41.191 83.880 C 39.101 88.432, 38.611 91.020, 38.611 97.500 C 38.611 107.107, 41.427 114.253, 48.038 121.425 L 52.255 126 30.699 126 C 12.436 126, 8.903 126.240, 7.571 127.571 C 5.598 129.545, 5.598 130.455, 7.571 132.429 C 8.931 133.788, 13.242 134, 39.571 134 L 70 134 70 164.034 L 70 194.068 54 225.969 C 45.200 243.515, 38 258.334, 38 258.900 C 38 261.580, 42.931 262, 74.363 262 C 102.570 262, 107.064 261.793, 108.429 260.429 C 109.293 259.564, 110 258.662, 110 258.423 C 110 258.183, 102.800 243.593, 94 226 L 78 194.012 78 164.021 L 78 134.029 108.641 133.764 C 136.566 133.523, 139.381 133.345, 140.386 131.750 C 141.191 130.474, 141.191 129.526, 140.387 128.250 C 139.399 126.683, 136.962 126.472, 117.074 126.231 L 94.864 125.961 98.885 121.393 C 105.887 113.438, 107.500 108.965, 107.500 97.500 C 107.500 88.914, 107.153 86.793, 105.049 82.500 C 97.872 67.856, 80.576 59.509, 65.384 63.357 M 63.463 71.591 C 57.971 73.541, 52.552 78.205, 49.249 83.824 C 46.800 87.989, 46.500 89.483, 46.500 97.500 C 46.500 105.502, 46.803 107.015, 49.230 111.145 C 53.385 118.213, 59.168 122.498, 67.305 124.541 L 70 125.217 70 97.608 C 70 76.146, 69.722 70.018, 68.750 70.079 C 68.063 70.122, 65.683 70.803, 63.463 71.591 M 78 97.567 L 78 125.135 80.250 124.434 C 88.339 121.914, 93.775 117.656, 97.500 110.923 C 100.131 106.166, 100.500 104.517, 100.500 97.500 C 100.500 90.512, 100.127 88.827, 97.551 84.176 C 94.179 78.090, 89.063 73.639, 82.965 71.488 C 80.646 70.669, 78.580 70, 78.374 70 C 78.168 70, 78 82.405, 78 97.567 M 167.750 191.080 C 166.612 191.743, 166 193.321, 166 195.592 C 166 201.211, 168.949 214.046, 171.615 220.035 L 174.080 225.570 171.605 231.167 C 168.813 237.480, 166 249.904, 166 255.923 C 166 258.980, 166.502 260.198, 168.117 261.062 C 171.351 262.793, 172.654 260.620, 173.851 251.500 C 174.428 247.100, 175.659 241.161, 176.586 238.301 L 178.271 233.103 185.459 240.301 C 197.058 251.916, 209.074 257.871, 225.260 260.025 C 245.469 262.714, 265.106 255.733, 280.697 240.318 L 287.961 233.135 289.985 239.686 C 291.098 243.289, 292.298 249.353, 292.652 253.162 C 293.360 260.785, 295.158 263.067, 298.518 260.611 C 301.225 258.631, 300.035 246.635, 296.013 235.355 C 294.276 230.485, 292.871 226.050, 292.890 225.500 C 292.909 224.950, 294.332 220.485, 296.053 215.579 C 299.953 204.451, 301.100 193.157, 298.543 191.036 C 295.437 188.458, 293.682 190.925, 292.440 199.619 C 291.816 203.990, 290.539 209.871, 289.604 212.687 L 287.903 217.807 280.673 210.576 C 265.428 195.331, 244.690 188.061, 224.763 190.974 C 208.756 193.315, 196.980 199.207, 185.444 210.647 L 178.238 217.795 176.574 212.647 C 175.660 209.816, 174.442 204.125, 173.869 200 C 172.550 190.516, 171.457 188.921, 167.750 191.080 M 217.345 199.845 C 206.461 203.064, 199.979 206.977, 191.250 215.596 C 186.713 220.077, 183 224.546, 183 225.528 C 183 226.509, 186.713 230.955, 191.250 235.406 C 203.830 247.748, 216.293 253, 233 253 C 247.037 253, 258.343 249.194, 269.587 240.683 C 275.697 236.058, 283 227.752, 283 225.428 C 283 222.743, 273.639 212.903, 266.617 208.206 C 255.825 200.988, 248.918 198.845, 235 198.396 C 225.974 198.104, 222.176 198.416, 217.345 199.845 M 60.743 228.500 L 48.005 254 73.503 254 C 87.526 254, 99.007 253.662, 99.016 253.250 C 99.043 252.056, 74.660 203, 74.041 203 C 73.733 203, 67.750 214.475, 60.743 228.500 " stroke="none" fill="black" fill-rule="evenodd"/>
</svg>