<svg xmlns="http://www.w3.org/2000/svg" width="180" height="324" viewBox="0 0 180 324" version="1.1">
	<path d="M 7.571 127.571 C 6.175 128.968, 6 136.372, 6 194 C 6 251.628, 6.175 259.032, 7.571 260.429 C 8.936 261.793, 13.463 262, 42 262 C 70.537 262, 75.064 261.793, 76.429 260.429 C 77.825 259.032, 78 251.628, 78 194 C 78 136.372, 77.825 128.968, 76.429 127.571 C 75.064 126.207, 70.537 126, 42 126 C 13.463 126, 8.936 126.207, 7.571 127.571 M 130.223 127.062 C 120.045 129.068, 109.996 137.411, 105.216 147.825 C 101.512 155.894, 101.512 167.106, 105.216 175.175 C 108.212 181.701, 114.377 188.811, 119.377 191.503 L 122.824 193.360 118.662 196.005 C 113.047 199.573, 108.227 205.265, 105.157 211.954 C 101.526 219.863, 101.540 231.168, 105.191 239.120 C 108.319 245.936, 113.835 252.233, 119.673 255.654 C 124.824 258.673, 137.869 262.124, 140 261.032 C 140.825 260.609, 143.300 259.941, 145.500 259.548 C 154.256 257.981, 164.364 250.087, 168.834 241.325 C 176.896 225.522, 171.396 205.573, 156.338 196.005 L 152.176 193.360 155.623 191.503 C 159.934 189.182, 166.235 182.419, 168.834 177.325 C 179.106 157.191, 167.453 132.611, 145.147 127.360 C 138.857 125.880, 136.464 125.832, 130.223 127.062 M 14 194 L 14 254 42 254 L 70 254 70 194 L 70 134 42 134 L 14 134 14 194 M 127.054 135.728 C 121.018 137.859, 113.781 145.260, 111.667 151.463 C 107.948 162.378, 110.390 173.587, 118.128 181.125 C 122.193 185.084, 129.676 189, 133.178 189 C 133.630 189, 134 176.625, 134 161.500 C 134 140.125, 133.722 134.018, 132.750 134.079 C 132.063 134.122, 129.499 134.864, 127.054 135.728 M 142 161.500 L 142 189.135 144.250 188.448 C 153.341 185.671, 160.783 179.020, 163.403 171.329 C 168.854 155.332, 160.639 139.558, 144.250 134.552 L 142 133.865 142 161.500 M 127.054 199.728 C 121.018 201.859, 113.781 209.260, 111.667 215.463 C 107.948 226.378, 110.390 237.587, 118.128 245.125 C 122.193 249.084, 129.676 253, 133.178 253 C 133.630 253, 134 240.625, 134 225.500 C 134 204.125, 133.722 198.018, 132.750 198.079 C 132.063 198.122, 129.499 198.864, 127.054 199.728 M 142 225.500 L 142 253.135 144.250 252.448 C 153.341 249.671, 160.783 243.020, 163.403 235.329 C 168.854 219.332, 160.639 203.558, 144.250 198.552 L 142 197.865 142 225.500 " stroke="none" fill="black" fill-rule="evenodd"/>
</svg>