<svg xmlns="http://www.w3.org/2000/svg" width="180" height="324" viewBox="0 0 180 324" version="1.1">
	<path d="M 7.200 127.200 C 5.465 128.935, 5.465 259.065, 7.200 260.800 C 8.919 262.519, 75.081 262.519, 76.800 260.800 C 78.535 259.065, 78.535 128.935, 76.800 127.200 C 75.081 125.481, 8.919 125.481, 7.200 127.200 M 14 194 L 14 254 42 254 L 70 254 70 194 L 70 134 42 134 L 14 134 14 194 M 103.571 223.571 C 102.707 224.436, 102 225.636, 102 226.239 C 102 226.841, 107.941 233.334, 115.202 240.667 L 128.405 254 116.774 254 C 107.534 254, 104.820 254.323, 103.571 255.571 C 101.598 257.545, 101.598 258.455, 103.571 260.429 C 104.936 261.793, 109.463 262, 138 262 C 166.537 262, 171.064 261.793, 172.429 260.429 C 173.293 259.564, 174 258.471, 174 258 C 174 257.529, 173.293 256.436, 172.429 255.571 C 171.180 254.323, 168.466 254, 159.226 254 L 147.595 254 160.798 240.667 C 168.059 233.334, 174 226.841, 174 226.239 C 174 224.817, 171.176 222, 169.751 222 C 169.143 222, 161.750 228.844, 153.323 237.208 L 138 252.416 122.677 237.208 C 114.250 228.844, 106.857 222, 106.249 222 C 105.640 222, 104.436 222.707, 103.571 223.571 " stroke="none" fill="black" fill-rule="evenodd"/>
</svg>