<svg xmlns="http://www.w3.org/2000/svg" width="436" height="324" viewBox="0 0 436 324" version="1.1">
	<path d="M 71.571 127.571 C 70.288 128.855, 70 131.788, 70 143.571 L 70 158 55.571 158 C 43.788 158, 40.855 158.288, 39.571 159.571 C 38.219 160.924, 38 164.988, 38 188.774 L 38 216.405 24.667 203.202 C 17.334 195.941, 10.841 190, 10.239 190 C 8.791 190, 6 192.834, 6 194.305 C 6 195.823, 72.177 262, 73.695 262 C 74.334 262, 75.564 261.293, 76.429 260.429 C 77.712 259.145, 78 256.212, 78 244.429 L 78 230 92.429 230 C 104.212 230, 107.145 229.712, 108.429 228.429 C 109.793 227.064, 110 222.537, 110 194 C 110 165.463, 109.793 160.936, 108.429 159.571 C 107.145 158.288, 104.212 158, 92.429 158 L 78 158 78 143.571 C 78 131.788, 77.712 128.855, 76.429 127.571 C 75.564 126.707, 74.471 126, 74 126 C 73.529 126, 72.436 126.707, 71.571 127.571 M 349.500 127.418 C 334.933 130.252, 323.517 136.380, 313.304 146.850 C 302.743 157.677, 295.976 172.321, 294.469 187.614 C 293.891 193.479, 294.055 194.912, 295.460 196.317 C 296.386 197.243, 297.535 198, 298.015 198 C 299.925 198, 302 193.308, 302 188.988 C 302 176.638, 308.422 162.611, 318.993 151.875 C 330.948 139.732, 344.493 134.046, 361.540 134.015 C 371.270 133.997, 379.180 135.890, 388.500 140.468 C 406.376 149.249, 419.205 168.443, 420.737 188.700 C 421.183 194.602, 421.681 196.294, 423.212 197.113 C 430.866 201.210, 428.989 178.362, 420.303 161.700 C 417.753 156.809, 413.954 151.890, 408.457 146.361 C 401.703 139.568, 398.806 137.478, 390.933 133.719 C 385.745 131.242, 379.463 128.736, 376.974 128.150 C 369.104 126.296, 356.935 125.972, 349.500 127.418 M 46 194 L 46 222 58 222 L 70 222 70 194 L 70 166 58 166 L 46 166 46 194 M 78 194 L 78 222 90 222 L 102 222 102 194 L 102 166 90 166 L 78 166 78 194 M 327.250 223.237 C 308.962 241.538, 294 257.206, 294 258.056 C 294 261.988, 294.206 262, 361.629 262 C 419.594 262, 427.032 261.825, 428.429 260.429 C 429.293 259.564, 430 258.530, 430 258.130 C 430 257.012, 363.189 190.537, 361.759 190.232 C 361.066 190.084, 345.538 204.936, 327.250 223.237 M 334 226.500 L 306.514 254 361.500 254 L 416.486 254 389 226.500 C 373.883 211.375, 361.508 199, 361.500 199 C 361.492 199, 349.117 211.375, 334 226.500 M 191 229 L 191 257 194.500 257 C 197.644 257, 198.003 256.720, 198.032 254.250 C 198.059 251.907, 198.244 251.729, 199.282 253.046 C 203.420 258.297, 212.662 259.723, 218.701 256.040 C 223.419 253.164, 225.284 248.751, 225.802 239.236 C 226.378 228.660, 224.833 222.938, 220.331 218.986 C 217.433 216.441, 216.113 216, 211.399 216 C 205.350 216, 202.417 217.101, 199.772 220.367 C 198.110 222.419, 198.044 222.093, 198.022 211.750 L 198 201 194.500 201 L 191 201 191 229 M 150.034 217.752 C 146.397 219.586, 142.397 225.216, 143.483 226.973 C 143.832 227.538, 145.618 228, 147.451 228 C 150.155 228, 150.899 227.537, 151.399 225.545 C 151.839 223.795, 153.052 222.803, 155.625 222.093 C 162.989 220.060, 168 223.149, 168 229.723 L 168 233 161.250 233.006 C 152.695 233.013, 147.936 234.337, 144.648 237.625 C 139.395 242.878, 140.291 253.377, 146.304 257.044 C 152.085 260.569, 163.463 258.741, 166.070 253.870 C 167.467 251.259, 168.384 251.530, 169.669 254.934 C 170.513 257.171, 171.613 258.024, 174.301 258.529 C 178.859 259.384, 182 258.352, 182 255.999 C 182 254.714, 181.156 254.034, 179.290 253.816 C 175.715 253.399, 175.223 251.352, 175.100 236.385 C 174.988 222.797, 173.893 220.107, 167.364 217.379 C 162.769 215.459, 154.214 215.643, 150.034 217.752 M 248 217.121 C 238.940 220.723, 234.709 233.922, 238.511 246.724 C 241.140 255.579, 248.437 260.009, 258.227 258.696 C 263.379 258.005, 266.983 255.410, 269.322 250.707 C 271.481 246.365, 270.916 245, 266.960 245 C 264.670 245, 263.901 245.546, 263.405 247.523 C 261.983 253.190, 252.969 255.060, 248.521 250.612 C 245.583 247.674, 244.656 243.094, 245.167 234.042 C 245.485 228.420, 246.016 226.612, 247.954 224.549 C 252.352 219.868, 263 221.999, 263 227.560 C 263 228.752, 263.886 229.047, 266.750 228.810 C 269.856 228.553, 270.447 228.157, 270.193 226.500 C 268.993 218.682, 256.914 213.577, 248 217.121 M 203.942 222.472 C 199.181 225.061, 197.048 234.097, 198.989 243.447 C 199.964 248.143, 200.720 249.468, 203.335 251.062 C 210.741 255.578, 217.195 251.599, 218.424 241.758 C 220.352 226.332, 213.535 217.254, 203.942 222.472 M 60.500 239 C 65.427 243.950, 69.580 248, 69.729 248 C 69.878 248, 70 243.950, 70 239 L 70 230 60.771 230 L 51.542 230 60.500 239 M 153 239.752 C 149.705 241.397, 149.500 241.791, 149.500 246.462 C 149.500 250.816, 149.832 251.610, 152.210 252.945 C 158.278 256.351, 168 249.213, 168 241.352 L 168 238 162.250 238.002 C 158.780 238.002, 155.112 238.696, 153 239.752 " stroke="none" fill="black" fill-rule="evenodd"/>
</svg>