<svg xmlns="http://www.w3.org/2000/svg" width="212" height="324" viewBox="0 0 212 324" version="1.1">
	<path d="M 99.871 127.007 C 84.705 129.604, 73.119 141.481, 71.078 156.523 C 69.701 166.672, 75.039 187.187, 83.474 204.162 C 89.813 216.920, 97.239 227.161, 108 237.990 C 118.894 248.951, 137.224 262.048, 139.457 260.464 C 160.470 245.561, 169.709 237.181, 179.652 224.006 C 194.916 203.779, 207.151 169.259, 204.100 155.029 C 201.827 144.434, 194.640 134.918, 185.318 130.162 C 170.125 122.411, 150.369 127.622, 140.741 141.919 L 137.394 146.888 135.489 143.349 C 129.454 132.143, 113.261 124.714, 99.871 127.007 M 95.054 135.728 C 85.869 138.971, 78 150.222, 78 160.113 C 78 170.028, 83.687 188.694, 91.054 202.957 C 99.884 220.054, 114.015 236.234, 129.405 246.871 C 138.464 253.131, 137.559 253.254, 149.674 244.125 C 171.269 227.853, 187.846 202.828, 194.558 176.371 C 197.703 163.972, 197.730 156.109, 194.649 149.493 C 187.187 133.470, 166.304 128.943, 151.810 140.206 C 147.262 143.740, 142 153.868, 142 159.088 C 142 164.685, 137.882 167.972, 135.087 164.605 C 134.450 163.838, 133.511 160.642, 133.001 157.504 C 131.407 147.710, 125.507 139.973, 116.500 135.867 C 111.524 133.599, 101.272 133.532, 95.054 135.728 M 40.370 190.765 C 38.401 192.045, 6.007 257.855, 6.594 259.384 C 7.265 261.133, 9.512 262.124, 11.274 261.448 C 11.975 261.180, 19.056 247.919, 27.010 231.980 C 34.964 216.041, 41.710 203, 42 203 C 42.291 203, 48.822 215.627, 56.514 231.060 C 64.206 246.493, 71.222 259.779, 72.105 260.584 C 73.896 262.217, 76.549 261.617, 77.406 259.384 C 77.993 257.855, 45.599 192.045, 43.630 190.765 C 43.009 190.361, 42.275 190.031, 42 190.031 C 41.725 190.031, 40.991 190.361, 40.370 190.765 " stroke="none" fill="black" fill-rule="evenodd"/>
</svg>