<svg xmlns="http://www.w3.org/2000/svg" width="244" height="324" viewBox="0 0 244 324" version="1.1">
	<path d="M 33.384 127.357 C 15.361 131.923, 3.562 149.820, 6.987 167.396 C 9.712 181.382, 20.719 193.168, 33.248 195.519 L 36.904 196.205 21.468 227.063 C 12.979 244.036, 6.285 258.580, 6.594 259.384 C 7.265 261.133, 9.512 262.125, 11.274 261.448 C 11.975 261.180, 19.056 247.919, 27.010 231.980 C 34.964 216.041, 41.710 203, 42 203 C 42.290 203, 49.036 216.041, 56.990 231.980 C 64.944 247.919, 72.025 261.180, 72.726 261.448 C 74.488 262.125, 76.735 261.133, 77.406 259.384 C 77.715 258.580, 71.029 244.052, 62.550 227.099 L 47.132 196.277 51.316 195.052 C 70.905 189.316, 81.274 167.979, 73.934 148.507 C 68.097 133.023, 49.437 123.290, 33.384 127.357 M 103.750 127.080 C 102.138 128.019, 102 130.769, 102 162.015 C 102 194.522, 102.080 195.973, 103.934 196.965 C 106.276 198.218, 233.824 198.398, 235.790 197.151 C 236.802 196.509, 237.076 189.129, 237.062 162.916 C 237.052 144.537, 237.033 128.968, 237.022 128.317 C 237.010 127.667, 236.042 126.831, 234.870 126.459 C 233.090 125.894, 230.172 128.347, 217.095 141.405 L 201.450 157.028 186.046 141.514 C 177.574 132.981, 170.165 126, 169.583 126 C 169 126, 161.662 132.850, 153.277 141.223 L 138.030 156.446 122.692 141.223 C 114.257 132.850, 106.937 126.014, 106.427 126.030 C 105.917 126.047, 104.713 126.519, 103.750 127.080 M 31.054 135.728 C 25.018 137.859, 17.781 145.260, 15.667 151.463 C 11.995 162.241, 14.382 173.477, 21.952 181.048 C 32.402 191.497, 49.888 191.773, 60.280 181.653 C 66.701 175.401, 68.500 170.989, 68.500 161.500 C 68.500 152.107, 66.733 147.694, 60.453 141.406 C 53.491 134.434, 41.355 132.091, 31.054 135.728 M 154.125 150.470 C 145.714 159.012, 138.314 166, 137.680 166 C 137.046 166, 130.558 160.044, 123.263 152.764 L 110 139.528 110 164.764 L 110 190 170 190 L 230 190 229.994 164.250 L 229.988 138.500 216.576 151.973 C 209.200 159.383, 202.625 165.625, 201.966 165.845 C 201.307 166.064, 193.714 159.201, 185.093 150.592 L 169.418 134.941 154.125 150.470 " stroke="none" fill="black" fill-rule="evenodd"/>
</svg>