<svg xmlns="http://www.w3.org/2000/svg" width="403" height="324" viewBox="0 0 403 324" version="1.1">
	<path d="M 199.222 127.178 C 198.312 128.088, 198 136.267, 198 159.200 L 198 190 103.571 190 C 19.061 190, 8.978 190.165, 7.571 191.571 C 5.598 193.545, 5.598 194.455, 7.571 196.429 C 8.954 197.811, 14.606 198, 54.575 198 L 100.006 198 85.020 227.961 C 76.777 244.439, 70.285 258.580, 70.594 259.384 C 71.265 261.133, 73.512 262.125, 75.274 261.448 C 75.975 261.180, 83.056 247.919, 91.010 231.980 C 98.964 216.041, 105.736 203, 106.058 203 C 106.380 203, 112.882 215.839, 120.506 231.531 C 128.131 247.223, 134.939 260.535, 135.637 261.113 C 138.688 263.646, 140.731 260.570, 155.125 231.762 L 169.744 202.502 184.310 231.620 C 192.485 247.962, 199.617 261.023, 200.565 261.386 C 202.679 262.198, 205 260.358, 205 257.871 C 205 256.835, 198.473 242.940, 190.497 226.993 L 175.993 198 189.247 197.985 C 196.536 197.976, 203.099 197.590, 203.830 197.126 C 204.895 196.451, 205.137 190.068, 205.043 165.168 L 204.927 134.052 220.106 133.776 C 233.289 133.536, 235.430 133.270, 236.387 131.750 C 237.191 130.475, 237.191 129.525, 236.387 128.250 C 235.417 126.711, 233.187 126.467, 217.864 126.228 C 205.160 126.029, 200.113 126.287, 199.222 127.178 M 263.750 127.047 C 262.788 127.626, 262 128.961, 262 130.015 C 262 132.616, 264.325 133.617, 272 134.322 C 285.991 135.606, 301.782 143.982, 310.660 154.828 C 318.789 164.758, 324.930 180.814, 324.983 192.271 C 324.997 195.303, 325.485 196.264, 327.470 197.168 C 331.272 198.901, 332.644 196.991, 333.446 188.850 C 336.345 159.431, 358.907 136.561, 387.395 134.164 C 396.027 133.438, 398.610 131.734, 396.360 128.250 C 395.421 126.796, 394.005 126.552, 387.985 126.807 C 365.935 127.743, 343.919 142.401, 333.598 163.018 L 329.034 172.135 326.519 166.447 C 316.773 144.409, 295.549 129.291, 270.500 126.543 C 267.719 126.238, 264.723 126.462, 263.750 127.047 M 124.608 223.250 C 131.546 237.137, 137.371 248.661, 137.553 248.859 C 137.878 249.211, 163 199.502, 163 198.508 C 163 198.228, 151.523 198, 137.496 198 L 111.992 198 124.608 223.250 " stroke="none" fill="black" fill-rule="evenodd"/>
</svg>