<svg xmlns="http://www.w3.org/2000/svg" width="436" height="324" viewBox="0 0 436 324" version="1.1">
	<path d="M 7.571 191.571 C 6.707 192.436, 6 193.658, 6 194.287 C 6 194.916, 20.953 210.409, 39.230 228.715 L 72.460 262 137.980 262.024 L 203.500 262.048 236.250 229.046 C 256.176 208.967, 269 195.300, 269 194.145 C 269 191.354, 266.539 189.633, 264.314 190.868 C 263.316 191.422, 249.455 204.951, 233.511 220.933 L 204.522 249.991 202.768 242.746 C 196.821 218.171, 178.156 198.923, 153.983 192.436 C 145.396 190.131, 129.674 190.121, 121 192.414 C 108.622 195.688, 100.341 200.581, 90.461 210.461 C 80.280 220.642, 75.164 229.480, 72.241 241.935 L 70.575 249.032 40.999 219.516 C 24.732 203.282, 10.910 190, 10.283 190 C 9.656 190, 8.436 190.707, 7.571 191.571 M 351.235 191.123 C 337.300 193.171, 324.686 199.612, 314.131 210.071 C 302.970 221.131, 296.028 235.799, 294.469 251.614 C 293.891 257.479, 294.055 258.912, 295.460 260.317 C 296.386 261.243, 297.535 262, 298.015 262 C 299.925 262, 302 257.308, 302 252.988 C 302 230.817, 321.948 206.246, 345.032 199.982 C 347.489 199.315, 352.603 198.484, 356.395 198.135 C 363.977 197.437, 366.486 195.591, 364.394 192.250 C 363.091 190.169, 359.704 189.879, 351.235 191.123 M 415.235 191.123 C 401.277 193.174, 388.489 199.697, 378.087 210.070 C 366.796 221.332, 359.683 236.620, 358.339 252.517 C 357.762 259.343, 357.861 259.855, 359.979 260.989 C 363.453 262.848, 364.911 260.525, 365.969 251.442 C 367.741 236.220, 373.625 224.322, 384.332 214.306 C 395.012 204.315, 405.999 199.318, 419.895 198.132 C 427.995 197.440, 430.540 195.678, 428.394 192.250 C 427.091 190.169, 423.704 189.879, 415.235 191.123 M 122.645 199.584 C 102.761 204.397, 84.825 222.334, 79.585 242.644 C 78.713 246.024, 78 249.961, 78 251.394 L 78 254 137.594 254 L 197.188 254 196.476 248.750 C 193.926 229.953, 181.062 212.385, 163.820 204.153 C 159.244 201.968, 153.115 199.690, 150.201 199.090 C 143.038 197.617, 129.791 197.854, 122.645 199.584 " stroke="none" fill="black" fill-rule="evenodd"/>
</svg>