<svg xmlns="http://www.w3.org/2000/svg" width="308" height="324" viewBox="0 0 308 324" version="1.1">
	<path d="M 72.316 62.784 C 70.369 64.022, 54.007 97.855, 54.604 99.410 C 55.450 101.615, 58.110 102.210, 59.895 100.594 C 60.778 99.795, 64.185 93.709, 67.467 87.070 C 70.748 80.432, 73.687 75, 73.997 75 C 74.308 75, 77.453 80.837, 80.986 87.972 C 84.520 95.106, 88.050 101.189, 88.832 101.489 C 90.716 102.212, 93 100.227, 93 97.866 C 93 95.626, 77.264 63.831, 75.628 62.765 C 74.214 61.845, 73.789 61.847, 72.316 62.784 M 65 126.961 C 50.656 128.978, 38.818 134.558, 28.563 144.135 C 16.001 155.866, 9.265 168.762, 6.930 185.546 C 0.933 228.662, 40.871 266.962, 84.094 259.546 C 110.263 255.057, 131.566 235.656, 138.014 210.444 C 142.092 194.501, 139.936 176.203, 132.264 161.652 C 126.889 151.456, 114.958 139.703, 104.500 134.303 C 92.008 127.854, 77.641 125.183, 65 126.961 M 167.750 127.080 C 166.787 127.641, 166 128.869, 166 129.810 C 166 130.751, 195.417 160.925, 231.372 196.864 C 291.653 257.119, 296.909 262.119, 298.872 261.069 C 300.042 260.442, 301 259.157, 301 258.212 C 301 256.740, 171.372 125.946, 169.997 126.030 C 169.724 126.047, 168.713 126.519, 167.750 127.080 M 58.072 135.591 C 47.650 138.393, 39.975 142.982, 31.500 151.479 C 19.132 163.879, 14 176.203, 14 193.500 C 14 210.303, 19.577 223.808, 31.388 235.602 C 35.300 239.508, 39.927 243.439, 41.671 244.337 L 44.842 245.970 42.501 241.735 C 37.057 231.890, 37.154 219.160, 42.751 208.767 C 53.736 188.368, 81.411 184.304, 97.777 200.687 C 105.483 208.400, 107.500 213.557, 107.500 225.542 C 107.500 234.521, 107.212 236.139, 104.777 240.833 L 102.053 246.081 105.218 244.291 C 110.836 241.111, 121.562 229.703, 125.354 222.874 C 135.592 204.437, 135.399 181.825, 124.845 163.164 C 117.832 150.763, 102.618 139.265, 88.356 135.585 C 80.711 133.613, 65.418 133.616, 58.072 135.591 M 62.373 199.918 C 60.104 200.948, 57.908 202.340, 57.494 203.009 C 57.015 203.785, 59.689 207.174, 64.864 212.349 L 72.985 220.470 81.456 212.044 C 90.853 202.695, 90.927 202.185, 83.260 199.573 C 76.963 197.427, 67.514 197.583, 62.373 199.918 M 50.192 210.269 C 45.752 215.619, 44.575 229.264, 47.918 236.627 C 48.948 238.896, 50.209 241.011, 50.718 241.326 C 51.228 241.641, 55.325 238.199, 59.823 233.678 L 68.001 225.457 59.671 217.170 C 52.884 210.419, 51.128 209.140, 50.192 210.269 M 86.727 216.772 C 82.477 221.047, 79 224.995, 79 225.546 C 79 226.709, 94.165 242, 95.318 242 C 95.744 242, 97.192 239.637, 98.536 236.750 C 100.274 233.018, 100.980 229.765, 100.980 225.500 C 100.980 219.632, 97.303 209, 95.273 209 C 94.822 209, 90.976 212.497, 86.727 216.772 M 64.477 239.059 L 56.500 247.118 58.830 249.034 C 63.737 253.069, 75.248 254.235, 83.038 251.487 C 90.998 248.678, 90.983 248.530, 81.830 239.329 C 77.273 234.748, 73.299 231, 72.999 231 C 72.699 231, 68.864 234.627, 64.477 239.059 " stroke="none" fill="black" fill-rule="evenodd"/>
</svg>