<svg xmlns="http://www.w3.org/2000/svg" width="436" height="324" viewBox="0 0 436 324" version="1.1">
	<path d="M 40.316 62.784 C 38.369 64.022, 22.007 97.855, 22.604 99.410 C 23.269 101.144, 25.524 102.120, 27.295 101.440 C 28.007 101.167, 31.480 95.106, 35.014 87.972 C 38.547 80.837, 41.691 75, 42 75 C 42.309 75, 45.453 80.837, 48.986 87.972 C 52.520 95.106, 55.993 101.167, 56.705 101.440 C 58.487 102.124, 60.732 101.141, 61.407 99.381 C 61.997 97.844, 45.582 64.037, 43.628 62.765 C 42.214 61.845, 41.789 61.847, 40.316 62.784 M 71.571 127.571 C 70.178 128.965, 70 135.899, 70 188.799 L 70 248.455 40.711 219.227 C 24.602 203.152, 10.909 190, 10.282 190 C 8.799 190, 6 192.814, 6 194.305 C 6 195.823, 72.177 262, 73.695 262 C 74.334 262, 75.564 261.293, 76.429 260.429 C 77.825 259.032, 78 251.628, 78 194 C 78 136.372, 77.825 128.968, 76.429 127.571 C 75.564 126.707, 74.471 126, 74 126 C 73.529 126, 72.436 126.707, 71.571 127.571 M 167.571 127.571 C 166.178 128.965, 166 135.897, 166 188.774 L 166 248.405 152.667 235.202 C 145.334 227.941, 138.841 222, 138.239 222 C 136.825 222, 134 224.820, 134 226.232 C 134 226.831, 139.512 232.922, 146.250 239.767 C 157.854 251.556, 158.316 252.178, 155 251.551 C 153.075 251.188, 147.675 249.043, 143 246.786 C 124.415 237.813, 110 216.361, 110 197.677 C 110 193.427, 108.214 190, 106 190 C 104.355 190, 102 193.160, 102.035 195.321 C 102.106 199.784, 104.860 212.682, 106.877 218 C 111.132 229.217, 121.902 242.422, 132.575 249.506 C 139.785 254.291, 151.033 258.612, 160 260.039 C 168.948 261.464, 170.625 261.469, 178.733 260.091 C 209.246 254.908, 232.187 231.401, 235.913 201.500 C 236.597 196.016, 236.479 194.013, 235.370 192.250 C 234.591 191.012, 233.546 190, 233.048 190 C 230.980 190, 229 193.380, 229 196.911 C 229 203.127, 225.245 215.866, 221.340 222.899 C 215.901 232.695, 205.975 242.003, 195.820 246.829 C 180.237 254.235, 180.054 253.608, 193.750 239.732 C 200.488 232.906, 206 226.831, 206 226.232 C 206 224.820, 203.175 222, 201.761 222 C 201.159 222, 194.666 227.941, 187.333 235.202 L 174 248.405 174 188.774 C 174 135.897, 173.822 128.965, 172.429 127.571 C 171.564 126.707, 170.471 126, 170 126 C 169.529 126, 168.436 126.707, 167.571 127.571 M 359.750 159.080 C 358.155 160.009, 358 162.388, 358 186.015 C 358 211.174, 358.060 211.962, 360.064 213.034 C 361.596 213.854, 362.498 213.832, 363.564 212.947 C 364.744 211.968, 365 207.174, 365 186.078 C 365 157.906, 364.671 156.214, 359.750 159.080 M 391.750 159.080 C 390.155 160.009, 390 162.388, 390 186.015 C 390 211.174, 390.060 211.962, 392.064 213.034 C 393.596 213.854, 394.498 213.832, 395.564 212.947 C 396.744 211.968, 397 207.174, 397 186.078 C 397 157.906, 396.671 156.214, 391.750 159.080 M 263.585 191.558 C 262.713 192.430, 262 193.529, 262 194 C 262 194.471, 262.713 195.570, 263.585 196.442 C 264.978 197.835, 269.159 197.995, 298.226 197.763 C 328.452 197.523, 331.377 197.350, 332.386 195.750 C 333.191 194.474, 333.191 193.526, 332.386 192.250 C 331.377 190.650, 328.452 190.477, 298.226 190.237 C 269.159 190.005, 264.978 190.165, 263.585 191.558 M 359.750 222.080 C 357.372 223.465, 357.542 226.685, 360.064 228.034 C 363.753 230.008, 366.819 225.219, 363.800 222.200 C 362.367 220.767, 362.022 220.757, 359.750 222.080 M 391.750 222.080 C 389.372 223.465, 389.542 226.685, 392.064 228.034 C 395.753 230.008, 398.819 225.219, 395.800 222.200 C 394.367 220.767, 394.022 220.757, 391.750 222.080 " stroke="none" fill="black" fill-rule="evenodd"/>
</svg>