<svg xmlns="http://www.w3.org/2000/svg" width="436" height="324" viewBox="0 0 436 324" version="1.1">
	<path d="M 39.571 127.571 C 38.176 128.966, 38 136.152, 38 191.571 L 38 254 23.571 254 C 11.788 254, 8.855 254.288, 7.571 255.571 C 5.598 257.545, 5.598 258.455, 7.571 260.429 C 8.936 261.793, 13.463 262, 42 262 C 70.537 262, 75.064 261.793, 76.429 260.429 C 77.293 259.564, 78 258.471, 78 258 C 78 257.529, 77.293 256.436, 76.429 255.571 C 75.145 254.288, 72.212 254, 60.429 254 L 46 254 46 191.571 C 46 136.152, 45.824 128.966, 44.429 127.571 C 43.564 126.707, 42.471 126, 42 126 C 41.529 126, 40.436 126.707, 39.571 127.571 M 167.571 127.571 C 166.178 128.965, 166 135.897, 166 188.774 L 166 248.405 152.667 235.202 C 145.334 227.941, 138.841 222, 138.239 222 C 136.825 222, 134 224.820, 134 226.232 C 134 226.831, 139.512 232.922, 146.250 239.767 C 157.854 251.556, 158.316 252.178, 155 251.551 C 153.075 251.188, 147.675 249.043, 143 246.786 C 124.415 237.813, 110 216.361, 110 197.677 C 110 193.427, 108.214 190, 106 190 C 104.355 190, 102 193.160, 102.035 195.321 C 102.106 199.784, 104.860 212.682, 106.877 218 C 113.059 234.298, 128.512 249.558, 145.444 256.084 C 152.363 258.751, 165.054 261.415, 170 261.239 C 180.850 260.853, 194.902 256.459, 204.684 250.394 C 222.594 239.290, 233.692 220.884, 236.398 197.796 C 236.931 193.245, 235.517 190, 233 190 C 230.976 190, 229 193.414, 229 196.911 C 229 203.032, 225.266 215.832, 221.533 222.507 C 213.476 236.914, 201.207 246.387, 184 251.486 C 182.288 251.993, 185.363 248.300, 193.750 239.774 C 200.488 232.925, 206 226.831, 206 226.232 C 206 224.820, 203.175 222, 201.761 222 C 201.159 222, 194.666 227.941, 187.333 235.202 L 174 248.405 174 188.774 C 174 135.897, 173.822 128.965, 172.429 127.571 C 171.564 126.707, 170.471 126, 170 126 C 169.529 126, 168.436 126.707, 167.571 127.571 M 359.750 159.080 C 358.155 160.009, 358 162.388, 358 186.015 C 358 211.174, 358.060 211.962, 360.064 213.034 C 361.596 213.854, 362.498 213.832, 363.564 212.947 C 364.744 211.968, 365 207.174, 365 186.078 C 365 157.906, 364.671 156.214, 359.750 159.080 M 391.750 159.080 C 390.155 160.009, 390 162.388, 390 186.015 C 390 211.174, 390.060 211.962, 392.064 213.034 C 393.596 213.854, 394.498 213.832, 395.564 212.947 C 396.744 211.968, 397 207.174, 397 186.078 C 397 157.906, 396.671 156.214, 391.750 159.080 M 263.585 191.558 C 262.713 192.430, 262 193.529, 262 194 C 262 194.471, 262.713 195.570, 263.585 196.442 C 264.978 197.835, 269.159 197.995, 298.226 197.763 C 328.452 197.523, 331.377 197.350, 332.386 195.750 C 333.191 194.474, 333.191 193.526, 332.386 192.250 C 331.377 190.650, 328.452 190.477, 298.226 190.237 C 269.159 190.005, 264.978 190.165, 263.585 191.558 M 359.750 222.080 C 357.372 223.465, 357.542 226.685, 360.064 228.034 C 363.753 230.008, 366.819 225.219, 363.800 222.200 C 362.367 220.767, 362.022 220.757, 359.750 222.080 M 391.750 222.080 C 389.372 223.465, 389.542 226.685, 392.064 228.034 C 395.753 230.008, 398.819 225.219, 395.800 222.200 C 394.367 220.767, 394.022 220.757, 391.750 222.080 " stroke="none" fill="black" fill-rule="evenodd"/>
</svg>