<svg xmlns="http://www.w3.org/2000/svg" width="308" height="324" viewBox="0 0 308 324" version="1.1">
	<path d="M 71.550 62.918 C 67.869 68.875, 54.190 98.331, 54.604 99.410 C 55.269 101.144, 57.524 102.120, 59.295 101.440 C 60.007 101.167, 63.480 95.106, 67.014 87.972 C 70.547 80.837, 73.691 75, 74 75 C 74.309 75, 77.453 80.837, 80.986 87.972 C 84.520 95.106, 88.050 101.189, 88.832 101.489 C 90.716 102.212, 93 100.227, 93 97.866 C 93 95.626, 77.264 63.831, 75.628 62.765 C 74.071 61.751, 72.229 61.820, 71.550 62.918 M 71.571 127.571 C 70.212 128.931, 70 133.242, 70 159.571 L 70 190 39.571 190 C 13.242 190, 8.931 190.212, 7.571 191.571 C 5.598 193.545, 5.598 194.455, 7.571 196.429 C 8.931 197.788, 13.242 198, 39.571 198 L 70 198 70 228.429 C 70 254.758, 70.212 259.069, 71.571 260.429 C 73.678 262.535, 74.598 262.412, 76.443 259.777 C 77.768 257.887, 78 253.111, 78 227.792 L 78 198.029 108.641 197.764 C 136.566 197.523, 139.381 197.345, 140.386 195.750 C 141.191 194.474, 141.191 193.526, 140.386 192.250 C 139.381 190.655, 136.566 190.477, 108.641 190.236 L 78 189.971 78 160.208 C 78 134.889, 77.768 130.113, 76.443 128.223 C 74.598 125.588, 73.678 125.465, 71.571 127.571 M 295.115 127.361 C 294.295 128.349, 294.056 146.745, 294.243 194.502 C 294.478 254.631, 294.643 260.373, 296.166 261.333 C 297.375 262.096, 298.267 262.023, 299.416 261.070 C 300.832 259.895, 301 252.783, 301 194.078 C 301 144.328, 300.709 128.109, 299.800 127.200 C 298.222 125.622, 296.510 125.681, 295.115 127.361 M 199.232 191.250 C 197.350 193.573, 166 256.975, 166 258.459 C 166 260.786, 169.809 262.404, 171.663 260.865 C 172.507 260.164, 179.622 246.749, 187.474 231.052 L 201.750 202.514 216.313 231.626 C 224.486 247.965, 231.617 261.023, 232.565 261.386 C 234.440 262.106, 237 260.442, 237 258.505 C 237 256.973, 205.932 193.828, 204.081 191.597 C 202.490 189.680, 200.613 189.546, 199.232 191.250 M 263.750 191.080 C 261.372 192.465, 261.542 195.685, 264.064 197.034 C 267.753 199.008, 270.819 194.219, 267.800 191.200 C 266.367 189.767, 266.022 189.757, 263.750 191.080 " stroke="none" fill="black" fill-rule="evenodd"/>
</svg>