<svg xmlns="http://www.w3.org/2000/svg" width="372" height="324" viewBox="0 0 372 324" version="1.1">
	<path d="M 72.372 62.765 C 70.418 64.037, 54.003 97.844, 54.593 99.381 C 55.268 101.141, 57.513 102.124, 59.295 101.440 C 60.007 101.167, 63.480 95.106, 67.014 87.972 C 70.547 80.837, 73.691 75, 74 75 C 74.309 75, 77.453 80.837, 80.986 87.972 C 84.520 95.106, 87.993 101.167, 88.705 101.440 C 90.487 102.124, 92.732 101.141, 93.407 99.381 C 93.716 98.575, 90.096 90.173, 85.363 80.708 C 77.638 65.261, 75.672 62.031, 74 62.031 C 73.725 62.031, 72.992 62.361, 72.372 62.765 M 193.608 132.122 C 181.806 142.937, 173.219 157.313, 168.894 173.500 C 167.274 179.564, 166.757 184.404, 166.757 193.500 C 166.757 202.596, 167.274 207.436, 168.894 213.500 C 173.226 229.712, 181.805 244.062, 193.656 254.922 C 200.569 261.256, 203.264 262.147, 205.367 258.791 C 206.262 257.362, 205.119 255.807, 198.383 249.291 C 189.479 240.678, 185.331 235.068, 180.961 225.730 C 166.837 195.546, 174.742 157.607, 199.574 136.392 C 205.144 131.634, 206.634 127.841, 203.418 126.607 C 200.819 125.609, 200.552 125.759, 193.608 132.122 M 231.571 127.571 C 230.707 128.436, 230 129.648, 230 130.266 C 230 130.883, 238.963 140.414, 249.917 151.444 L 269.834 171.500 267.006 176.377 C 259.488 189.345, 261.372 205.658, 271.710 217.100 C 276.416 222.309, 282.030 225.537, 289.888 227.550 C 297.764 229.567, 305.814 228.436, 314 224.162 L 319.500 221.290 340.054 241.645 C 351.359 252.840, 361.115 262, 361.733 262 C 363.186 262, 366 259.186, 366 257.733 C 366 257.115, 356.805 247.359, 345.567 236.054 L 325.134 215.500 327.526 211.492 C 340.018 190.557, 327.913 163.955, 303.643 159.008 C 296.168 157.484, 287.263 159.014, 280.377 163.006 L 275.500 165.834 255.444 145.917 C 244.414 134.963, 234.883 126, 234.266 126 C 233.648 126, 232.436 126.707, 231.571 127.571 M 71.571 159.571 C 69.243 161.900, 69.243 194.100, 71.571 196.429 C 72.436 197.293, 73.529 198, 74 198 C 74.471 198, 75.564 197.293, 76.429 196.429 C 78.757 194.100, 78.757 161.900, 76.429 159.571 C 75.564 158.707, 74.471 158, 74 158 C 73.529 158, 72.436 158.707, 71.571 159.571 M 287.605 167.568 C 279.639 170.488, 279.200 169.679, 300.134 190.634 C 314.334 204.848, 319.720 209.648, 320.625 208.896 C 322.661 207.206, 325 198.976, 325 193.500 C 325 177.674, 312.981 165.869, 297.072 166.070 C 294.007 166.109, 289.747 166.783, 287.605 167.568 M 274.189 178.272 C 272.028 180.876, 270 188.222, 270 193.448 C 270 209.109, 281.869 221, 297.500 221 C 302.976 221, 311.206 218.661, 312.896 216.625 C 313.648 215.720, 308.848 210.334, 294.634 196.134 C 278.891 180.407, 275.139 177.128, 274.189 178.272 M 7.515 191.627 C 5.684 193.459, 6.060 199.976, 8.580 210.093 C 14.327 233.159, 33.368 252.219, 57 258.560 C 65.582 260.863, 81.345 260.883, 89.837 258.602 C 117.782 251.096, 137.058 228.356, 140.463 198.877 C 140.980 194.402, 140.780 192.923, 139.485 191.627 C 138.589 190.732, 137.471 190, 137 190 C 134.878 190, 132.999 193.426, 132.985 197.321 C 132.920 215.623, 119.059 237.101, 101.397 246.268 C 83.942 255.327, 62.970 255.318, 45.603 246.243 C 28.061 237.076, 14 215.469, 14 197.677 C 14 194.888, 13.395 192.538, 12.429 191.571 C 10.444 189.587, 9.546 189.597, 7.515 191.627 M 67.637 207.420 C 54.585 212.225, 50.317 227.457, 59.191 237.564 C 66.670 246.083, 77.381 246.995, 85.564 239.809 C 94.083 232.330, 94.995 221.619, 87.809 213.436 C 82.252 207.106, 74.648 204.838, 67.637 207.420 M 65.400 217.400 C 62.498 220.302, 62 221.488, 62 225.500 C 62 229.512, 62.498 230.698, 65.400 233.600 C 68.302 236.502, 69.488 237, 73.500 237 C 77.512 237, 78.698 236.502, 81.600 233.600 C 84.502 230.698, 85 229.512, 85 225.500 C 85 221.488, 84.502 220.302, 81.600 217.400 C 78.698 214.498, 77.512 214, 73.500 214 C 69.488 214, 68.302 214.498, 65.400 217.400 " stroke="none" fill="black" fill-rule="evenodd"/>
</svg>