<svg xmlns="http://www.w3.org/2000/svg" width="308" height="324" viewBox="0 0 308 324" version="1.1">
	<path d="M 66.223 63.008 C 55.924 65.167, 45.980 73.445, 41.216 83.825 C 39.099 88.436, 38.611 91, 38.611 97.500 C 38.611 107.107, 41.427 114.253, 48.038 121.425 L 52.255 126 30.699 126 C 12.436 126, 8.903 126.240, 7.571 127.571 C 5.598 129.545, 5.598 130.455, 7.571 132.429 C 8.931 133.788, 13.242 134, 39.571 134 L 70 134 70 164.006 L 70 194.012 54.016 225.967 C 45.225 243.542, 38.285 258.580, 38.594 259.384 C 39.265 261.133, 41.512 262.124, 43.274 261.448 C 43.975 261.180, 51.056 247.919, 59.010 231.980 C 66.964 216.041, 73.738 203, 74.062 203 C 74.386 203, 81.021 215.999, 88.807 231.886 C 96.598 247.783, 103.703 261.056, 104.608 261.403 C 106.684 262.200, 109 260.338, 109 257.871 C 109 256.835, 102.025 242.043, 93.500 225 L 78 194.012 78 164.021 L 78 134.029 108.641 133.764 C 136.566 133.523, 139.381 133.345, 140.386 131.750 C 141.191 130.474, 141.191 129.526, 140.387 128.250 C 139.399 126.683, 136.962 126.472, 117.074 126.231 L 94.864 125.961 98.885 121.393 C 105.887 113.438, 107.500 108.965, 107.500 97.500 C 107.500 85.464, 105.483 80.393, 97.518 72.404 C 89.702 64.563, 76.999 60.749, 66.223 63.008 M 63.463 71.591 C 57.971 73.541, 52.552 78.205, 49.249 83.824 C 46.800 87.989, 46.500 89.483, 46.500 97.500 C 46.500 105.502, 46.803 107.015, 49.230 111.145 C 53.385 118.213, 59.168 122.498, 67.305 124.541 L 70 125.217 70 97.608 C 70 76.146, 69.722 70.018, 68.750 70.079 C 68.063 70.122, 65.683 70.803, 63.463 71.591 M 78 97.567 L 78 125.135 80.250 124.434 C 88.339 121.914, 93.775 117.656, 97.500 110.923 C 100.131 106.166, 100.500 104.517, 100.500 97.500 C 100.500 90.512, 100.127 88.827, 97.551 84.176 C 94.179 78.090, 89.063 73.639, 82.965 71.488 C 80.646 70.669, 78.580 70, 78.374 70 C 78.168 70, 78 82.405, 78 97.567 M 167.200 127.200 C 165.465 128.935, 165.465 259.065, 167.200 260.800 C 168.935 262.535, 298.065 262.535, 299.800 260.800 C 301.535 259.065, 301.535 128.935, 299.800 127.200 C 298.065 125.465, 168.935 125.465, 167.200 127.200 M 173 194 L 173 254 233.500 254 L 294 254 294 194 L 294 134 233.500 134 L 173 134 173 194 M 226.355 159.039 C 216.144 161.060, 206.058 169.072, 201.244 178.987 C 198.948 183.715, 198.567 185.781, 198.567 193.500 C 198.567 201.219, 198.948 203.285, 201.244 208.013 C 204.869 215.478, 211.195 221.667, 218.942 225.326 C 232.984 231.958, 251.197 227.609, 260.508 215.400 C 276.097 194.962, 266.252 165.989, 241.530 159.550 C 235.070 157.867, 232.684 157.787, 226.355 159.039 M 221.500 168.387 C 200.908 178.139, 200.314 207.797, 220.500 218.246 C 226.710 221.460, 237.254 221.807, 243.754 219.010 C 253.560 214.792, 261 203.787, 261 193.500 C 261 183.480, 253.989 172.797, 244.500 168.358 C 237.594 165.128, 228.358 165.140, 221.500 168.387 M 231.750 191.080 C 229.372 192.465, 229.542 195.685, 232.064 197.034 C 235.753 199.008, 238.819 194.219, 235.800 191.200 C 234.367 189.767, 234.022 189.757, 231.750 191.080 " stroke="none" fill="black" fill-rule="evenodd"/>
</svg>