<svg xmlns="http://www.w3.org/2000/svg" width="420" height="324" viewBox="0 0 420 324" version="1.1">
	<path d="M 39.571 127.571 C 38.207 128.935, 38 133.425, 38 161.577 L 38 194.012 22.016 225.967 C 13.225 243.542, 6.285 258.580, 6.594 259.384 C 7.265 261.133, 9.512 262.124, 11.274 261.448 C 11.975 261.180, 19.056 247.919, 27.010 231.980 C 34.964 216.041, 41.710 203, 42 203 C 42.290 203, 49.036 216.041, 56.990 231.980 C 64.944 247.919, 72.025 261.180, 72.726 261.448 C 74.488 262.124, 76.735 261.133, 77.406 259.384 C 77.715 258.580, 70.775 243.542, 61.984 225.967 L 46 194.012 46 161.577 C 46 133.425, 45.793 128.935, 44.429 127.571 C 43.564 126.707, 42.471 126, 42 126 C 41.529 126, 40.436 126.707, 39.571 127.571 M 159.870 127.014 C 144.636 129.407, 133.616 135.194, 121.974 146.916 C 108.475 160.507, 102.696 174.473, 102.696 193.500 C 102.696 205.238, 104.560 213.290, 109.713 223.806 C 114.009 232.572, 124.457 244.182, 133.178 249.880 C 138.404 253.295, 138.905 253.877, 136.868 254.166 C 135.261 254.394, 133.512 256.175, 131.366 259.771 C 126.032 268.710, 126.020 277.240, 131.329 286.299 C 135.445 293.322, 138.818 294.830, 141.365 290.786 C 142.210 289.445, 141.955 288.466, 140.195 286.286 C 134.065 278.695, 133.380 269.388, 138.417 262.120 C 140.396 259.264, 140.978 257.508, 140.474 255.917 C 139.873 254.024, 140.044 253.816, 141.635 254.501 C 147.251 256.922, 154.052 259.010, 158.212 259.590 L 162.923 260.247 161.278 263.374 C 158.996 267.710, 159.082 278.429, 161.435 283 C 164.760 289.460, 168.059 293.134, 170.242 292.807 C 173.704 292.289, 174.642 289.592, 172.431 286.509 C 166.779 278.628, 165.570 272.358, 168.398 265.590 C 170.179 261.328, 170.715 261.031, 178.682 259.903 C 182.320 259.388, 188.303 257.920, 191.979 256.642 L 198.663 254.318 195.444 259.662 C 190.031 268.652, 189.994 277.195, 195.329 286.299 C 199.445 293.322, 202.818 294.830, 205.365 290.786 C 206.210 289.445, 205.955 288.466, 204.195 286.286 C 198.065 278.695, 197.380 269.388, 202.417 262.120 C 205.579 257.557, 205.261 254, 201.691 254 C 200.120 254, 201.229 252.881, 205.693 249.965 C 214.532 244.189, 224.968 232.618, 229.287 223.806 C 234.440 213.290, 236.304 205.238, 236.304 193.500 C 236.304 174.166, 230.551 160.473, 216.539 146.461 C 206.721 136.644, 198.174 131.566, 186.500 128.618 C 178.592 126.621, 166.868 125.914, 159.870 127.014 M 342.571 127.571 C 341.651 128.492, 340.994 130.873, 340.985 133.321 C 340.888 160.782, 312.782 188.888, 285.321 188.985 C 281.426 188.999, 278 190.878, 278 193 C 278 193.471, 278.732 194.589, 279.627 195.485 C 280.923 196.780, 282.402 196.980, 286.877 196.463 C 299.357 195.022, 310.363 190.985, 320.064 184.291 C 325.503 180.538, 334.727 170.897, 338.043 165.500 L 340.500 161.500 340.802 165.118 C 341.271 170.717, 338.347 181.544, 334.248 189.387 C 325.005 207.076, 303.568 220.921, 285.321 220.985 C 281.426 220.999, 278 222.878, 278 225 C 278 225.471, 278.732 226.589, 279.627 227.485 C 280.923 228.780, 282.402 228.980, 286.877 228.463 C 304.273 226.454, 318.234 219.715, 329.611 207.836 C 334.507 202.724, 340.069 195.171, 341.273 192 C 341.586 191.175, 341.878 205.880, 341.921 224.679 C 341.990 254.346, 342.207 259.065, 343.571 260.429 C 345.387 262.244, 345.947 262.319, 348 261.022 C 349.267 260.222, 349.578 254.914, 350 226.808 L 350.500 193.541 353.852 198.767 C 358.909 206.652, 370.687 217.118, 379.194 221.287 C 391.553 227.343, 409.202 230.655, 412.348 227.509 C 414.404 225.453, 414.418 224.561, 412.429 222.571 C 411.453 221.596, 409.082 220.994, 406.179 220.985 C 382.262 220.910, 357.930 200.947, 351.532 176.152 C 350.632 172.661, 350.031 167.939, 350.197 165.658 L 350.500 161.512 353.852 166.753 C 358.897 174.639, 370.674 185.111, 379.194 189.287 C 391.553 195.343, 409.202 198.655, 412.348 195.509 C 414.404 193.453, 414.418 192.561, 412.429 190.571 C 411.453 189.596, 409.082 188.994, 406.179 188.985 C 399.040 188.963, 389.473 186.351, 381.603 182.278 C 364.179 173.258, 350 151.452, 350 133.677 C 350 129.089, 348.190 126, 345.500 126 C 344.754 126, 343.436 126.707, 342.571 127.571 M 154.645 135.584 C 134.562 140.445, 116.305 158.877, 111.537 179.103 C 109.610 187.282, 109.610 199.718, 111.537 207.897 C 116.350 228.315, 134.685 246.650, 155.103 251.463 C 175.742 256.328, 196.600 250.431, 211.516 235.516 C 230.204 216.827, 234.475 188.970, 222.233 165.603 C 214.739 151.298, 199.261 139.159, 183.897 135.537 C 175.998 133.676, 162.439 133.697, 154.645 135.584 M 135.571 159.571 C 134.707 160.436, 134 161.529, 134 162 C 134 162.471, 134.707 163.564, 135.571 164.429 C 136.436 165.293, 137.529 166, 138 166 C 138.471 166, 139.564 165.293, 140.429 164.429 C 141.293 163.564, 142 162.471, 142 162 C 142 161.529, 141.293 160.436, 140.429 159.571 C 139.564 158.707, 138.471 158, 138 158 C 137.529 158, 136.436 158.707, 135.571 159.571 M 167.571 159.571 C 166.212 160.931, 166 165.242, 166 191.571 L 166 222 151.571 222 C 139.788 222, 136.855 222.288, 135.571 223.571 C 133.598 225.545, 133.598 226.455, 135.571 228.429 C 136.936 229.793, 141.463 230, 170 230 C 198.537 230, 203.064 229.793, 204.429 228.429 C 206.402 226.455, 206.402 225.545, 204.429 223.571 C 203.145 222.288, 200.212 222, 188.429 222 L 174 222 174 191.571 C 174 165.242, 173.788 160.931, 172.429 159.571 C 171.564 158.707, 170.471 158, 170 158 C 169.529 158, 168.436 158.707, 167.571 159.571 M 199.571 159.571 C 198.707 160.436, 198 161.529, 198 162 C 198 162.471, 198.707 163.564, 199.571 164.429 C 200.436 165.293, 201.529 166, 202 166 C 202.471 166, 203.564 165.293, 204.429 164.429 C 205.293 163.564, 206 162.471, 206 162 C 206 161.529, 205.293 160.436, 204.429 159.571 C 203.564 158.707, 202.471 158, 202 158 C 201.529 158, 200.436 158.707, 199.571 159.571 M 231.282 271.282 C 221.777 280.787, 214 289.193, 214 289.963 C 214 290.733, 221.313 298.726, 230.250 307.725 C 245.545 323.126, 246.701 324.070, 249.923 323.794 C 251.805 323.632, 253.541 322.906, 253.779 322.180 C 254.018 321.454, 247.322 313.917, 238.899 305.430 L 223.584 290 238.792 274.677 C 247.156 266.250, 254 258.857, 254 258.249 C 254 256.800, 251.173 254, 249.710 254 C 249.079 254, 240.787 261.777, 231.282 271.282 " stroke="none" fill="black" fill-rule="evenodd"/>
</svg>