<svg xmlns="http://www.w3.org/2000/svg" width="340" height="324" viewBox="0 0 340 324" version="1.1">
	<path d="M 66.223 63.062 C 56.059 65.065, 46.033 73.381, 41.189 83.825 C 39.038 88.462, 38.556 90.964, 38.556 97.500 C 38.556 107.083, 41.376 114.198, 48.038 121.425 L 52.255 126 30.699 126 C 12.436 126, 8.903 126.240, 7.571 127.571 C 5.598 129.545, 5.598 130.455, 7.571 132.429 C 8.931 133.788, 13.242 134, 39.571 134 L 70 134 70 194 L 70 254 55.571 254 C 43.788 254, 40.855 254.288, 39.571 255.571 C 37.598 257.545, 37.598 258.455, 39.571 260.429 C 40.936 261.793, 45.463 262, 74 262 C 102.537 262, 107.064 261.793, 108.429 260.429 C 110.402 258.455, 110.402 257.545, 108.429 255.571 C 107.145 254.288, 104.212 254, 92.429 254 L 78 254 78 194 L 78 134 108.429 134 C 134.758 134, 139.069 133.788, 140.429 132.429 C 142.402 130.455, 142.402 129.545, 140.429 127.571 C 139.095 126.238, 135.522 126, 116.836 126 L 94.815 126 99.354 120.952 C 117.209 101.092, 107.222 69.498, 81.147 63.360 C 74.857 61.880, 72.464 61.832, 66.223 63.062 M 63.054 71.728 C 57.018 73.859, 49.781 81.260, 47.667 87.463 C 42.058 103.925, 50.847 120.571, 67.250 124.550 L 70 125.217 70 97.608 C 70 76.146, 69.722 70.018, 68.750 70.079 C 68.063 70.122, 65.499 70.864, 63.054 71.728 M 78 97.500 L 78 125.135 80.250 124.434 C 88.986 121.712, 94.088 117.513, 97.883 109.919 C 102.231 101.217, 102.231 93.783, 97.883 85.081 C 94.088 77.487, 88.986 73.288, 80.250 70.566 L 78 69.865 78 97.500 M 263.750 127.080 C 262.138 128.019, 262 130.762, 262 161.850 C 262 186.767, 262.314 195.914, 263.200 196.800 C 264.013 197.613, 268.689 198, 277.700 198 C 285.015 198, 291 198.228, 291 198.507 C 291 198.785, 284.475 212.057, 276.500 228 C 268.525 243.943, 262 257.649, 262 258.458 C 262 260.785, 265.808 262.404, 267.663 260.865 C 268.507 260.164, 275.620 246.753, 283.468 231.063 L 297.739 202.535 312.620 232.018 C 321.171 248.961, 328.138 261.606, 329 261.749 C 333.159 262.438, 333.107 263.308, 333.043 194.436 C 332.978 123.591, 333.030 124.308, 328.117 126.938 C 326.031 128.054, 326 128.525, 326 159.035 L 326 190 298 190 L 270 190 270 160.223 C 270 134.890, 269.768 130.113, 268.443 128.223 C 266.702 125.736, 266.248 125.625, 263.750 127.080 M 167.585 191.558 C 165.598 193.545, 165.595 194.452, 167.571 196.429 C 168.855 197.712, 171.788 198, 183.571 198 L 198 198 198 226 L 198 254 183.571 254 C 171.788 254, 168.855 254.288, 167.571 255.571 C 165.595 257.548, 165.598 258.455, 167.585 260.442 C 168.978 261.835, 173.159 261.995, 202.226 261.763 C 232.452 261.523, 235.377 261.350, 236.386 259.750 C 237.190 258.475, 237.191 257.525, 236.387 256.250 C 235.433 254.736, 233.314 254.463, 220.643 254.223 L 206 253.947 206 226 L 206 198.053 220.643 197.777 C 233.314 197.537, 235.433 197.264, 236.387 195.750 C 237.191 194.475, 237.190 193.525, 236.386 192.250 C 235.377 190.650, 232.452 190.477, 202.226 190.237 C 173.159 190.005, 168.978 190.165, 167.585 191.558 M 314.607 219.250 C 320.446 230.938, 325.398 240.688, 325.612 240.917 C 325.825 241.146, 326 231.583, 326 219.667 L 326 198 314.995 198 L 303.991 198 314.607 219.250 " stroke="none" fill="black" fill-rule="evenodd"/>
</svg>