<svg xmlns="http://www.w3.org/2000/svg" width="403" height="324" viewBox="0 0 403 324" version="1.1">
	<path d="M 40.316 62.784 C 38.369 64.022, 22.007 97.855, 22.604 99.410 C 23.269 101.144, 25.524 102.120, 27.295 101.440 C 28.007 101.167, 31.480 95.106, 35.014 87.972 C 38.547 80.837, 41.691 75, 42 75 C 42.309 75, 45.453 80.837, 48.986 87.972 C 52.520 95.106, 55.993 101.167, 56.705 101.440 C 58.487 102.124, 60.732 101.141, 61.407 99.381 C 61.997 97.844, 45.582 64.037, 43.628 62.765 C 42.214 61.845, 41.789 61.847, 40.316 62.784 M 71.571 127.571 C 70.178 128.965, 70 135.899, 70 188.799 L 70 248.455 40.711 219.227 C 24.602 203.152, 10.909 190, 10.282 190 C 8.799 190, 6 192.814, 6 194.305 C 6 195.823, 72.177 262, 73.695 262 C 74.334 262, 75.564 261.293, 76.429 260.429 C 77.825 259.032, 78 251.628, 78 194 C 78 136.372, 77.825 128.968, 76.429 127.571 C 75.564 126.707, 74.471 126, 74 126 C 73.529 126, 72.436 126.707, 71.571 127.571 M 167.750 127.080 C 166.114 128.033, 166 132.044, 166 188.786 L 166 249.473 152.237 235.737 C 144.667 228.181, 138.175 222, 137.808 222 C 136.738 222, 134 225.043, 134 226.232 C 134 226.831, 139.512 232.922, 146.250 239.767 C 157.832 251.534, 158.309 252.176, 155 251.536 C 153.075 251.164, 147.699 249.069, 143.054 246.881 C 124.810 238.290, 110 216.617, 110 198.512 C 110 194.610, 107.842 190, 106.015 190 C 105.535 190, 104.391 190.751, 103.473 191.670 C 102.091 193.052, 101.924 194.470, 102.506 199.903 C 104.461 218.157, 113.377 234.342, 127.896 245.995 C 137.454 253.666, 152.492 260, 161.145 260 C 162.644 260, 165.039 260.444, 166.467 260.988 C 168.152 261.628, 170.547 261.637, 173.282 261.014 C 175.602 260.486, 180.425 259.509, 184 258.843 C 187.656 258.163, 194.439 255.665, 199.500 253.136 C 210.926 247.427, 222.539 236.209, 228.264 225.348 C 236.905 208.957, 238.798 186.827, 231.212 190.887 C 229.710 191.691, 229.151 193.471, 228.626 199.119 C 226.910 217.580, 215.605 235.685, 200.120 244.772 C 195.689 247.373, 183.908 252, 181.720 252 C 181.065 252, 186.036 246.481, 192.765 239.736 C 199.494 232.990, 205 226.780, 205 225.936 C 205 224.212, 203.106 222, 201.630 222 C 201.097 222, 194.437 228.167, 186.830 235.704 L 173 249.408 173 188.904 C 173 123.446, 173.047 123.995, 167.750 127.080 M 359.750 159.080 C 358.155 160.009, 358 162.388, 358 186.015 C 358 211.174, 358.060 211.962, 360.064 213.034 C 361.596 213.854, 362.498 213.832, 363.564 212.947 C 364.744 211.968, 365 207.174, 365 186.078 C 365 157.906, 364.671 156.214, 359.750 159.080 M 263.750 191.073 C 261.413 192.444, 261.527 195.677, 263.960 196.979 C 265.243 197.665, 277.208 197.936, 298.601 197.764 C 328.469 197.523, 331.378 197.349, 332.386 195.750 C 333.191 194.474, 333.191 193.526, 332.386 192.250 C 331.377 190.649, 328.483 190.481, 298.391 190.273 C 277.280 190.127, 264.873 190.414, 263.750 191.073 M 359.750 222.080 C 357.372 223.465, 357.542 226.685, 360.064 228.034 C 363.753 230.008, 366.819 225.219, 363.800 222.200 C 362.367 220.767, 362.022 220.757, 359.750 222.080 " stroke="none" fill="black" fill-rule="evenodd"/>
</svg>