<svg xmlns="http://www.w3.org/2000/svg" width="228" height="324" viewBox="0 0 228 324" version="1.1">
	<path d="M 61.500 127.401 C 46.645 130.266, 35.144 136.774, 24.168 148.528 C 13.801 159.628, 8.225 172.265, 6.488 188.598 C 5.962 193.536, 6.153 195.010, 7.491 196.348 C 9.547 198.404, 10.439 198.418, 12.429 196.429 C 13.379 195.478, 14 193.126, 14 190.478 C 14 177.343, 20.860 161.930, 31.395 151.395 C 42.853 139.936, 57.222 134, 73.500 134 C 83.696 134, 90.060 135.495, 100 140.225 C 118.844 149.193, 133 170.749, 133 190.478 C 133 193.126, 133.621 195.478, 134.571 196.429 C 136.561 198.418, 137.453 198.404, 139.509 196.348 C 142.666 193.191, 139.352 175.615, 133.222 163 C 128.100 152.459, 114.578 138.926, 104 133.756 C 90.332 127.076, 75.043 124.790, 61.500 127.401 M 183.571 159.571 C 181.243 161.900, 181.243 194.100, 183.571 196.429 C 184.436 197.293, 185.529 198, 186 198 C 186.471 198, 187.564 197.293, 188.429 196.429 C 189.733 195.124, 190 191.991, 190 178 C 190 164.009, 189.733 160.876, 188.429 159.571 C 187.564 158.707, 186.471 158, 186 158 C 185.529 158, 184.436 158.707, 183.571 159.571 M 39.267 223.267 C 20.970 241.563, 6 257.056, 6 257.695 C 6 258.334, 6.707 259.564, 7.571 260.429 C 8.968 261.825, 16.372 262, 74 262 C 131.628 262, 139.032 261.825, 140.429 260.429 C 141.293 259.564, 142 258.334, 142 257.695 C 142 255.982, 75.721 190, 74 190 C 73.193 190, 57.563 204.970, 39.267 223.267 M 46.500 227 L 19.514 254 74 254 L 128.486 254 101.500 227 C 86.658 212.150, 74.283 200, 74 200 C 73.717 200, 61.342 212.150, 46.500 227 M 180.648 206.983 C 161.573 212.993, 162.128 238.779, 181.447 244.113 C 190.793 246.694, 201.232 239.988, 204.113 229.553 C 207.637 216.790, 193.298 202.997, 180.648 206.983 M 177.400 217.400 C 174.498 220.302, 174 221.488, 174 225.500 C 174 229.512, 174.498 230.698, 177.400 233.600 C 180.302 236.502, 181.488 237, 185.500 237 C 189.512 237, 190.698 236.502, 193.600 233.600 C 196.502 230.698, 197 229.512, 197 225.500 C 197 221.488, 196.502 220.302, 193.600 217.400 C 190.698 214.498, 189.512 214, 185.500 214 C 181.488 214, 180.302 214.498, 177.400 217.400 " stroke="none" fill="black" fill-rule="evenodd"/>
</svg>