<svg xmlns="http://www.w3.org/2000/svg" width="403" height="324" viewBox="0 0 403 324" version="1.1">
	<path d="M 65.384 159.357 C 58.773 161.032, 52.219 164.909, 47.881 169.710 C 44.681 173.252, 43.825 173.618, 36.119 174.741 C 21.912 176.812, 4.337 187.298, 5.174 193.204 C 5.738 197.176, 9.528 196.689, 14.627 191.990 C 19.950 187.083, 28.427 183.092, 35.240 182.285 L 40.111 181.708 39.323 184.604 C 38.890 186.197, 38.572 190.686, 38.617 194.581 C 38.805 210.949, 50.767 224.733, 67.635 228.019 C 78.796 230.194, 91.441 225.752, 99.453 216.841 C 101.954 214.060, 104 211.410, 104 210.953 C 104 210.496, 106.138 209.829, 108.750 209.470 C 119.940 207.932, 128.229 204.511, 135.805 198.304 C 140.328 194.597, 141.032 191.664, 137.873 189.685 C 136.605 188.890, 135.264 189.469, 131.803 192.305 C 126.487 196.661, 118.080 200.655, 112.294 201.574 L 108.087 202.242 108.104 194.321 C 108.129 183.189, 105.378 176.218, 98.080 168.920 C 89.351 160.191, 76.699 156.491, 65.384 159.357 M 359.750 159.080 C 357.372 160.465, 357.542 163.685, 360.064 165.034 C 363.753 167.008, 366.819 162.219, 363.800 159.200 C 362.367 157.767, 362.022 157.757, 359.750 159.080 M 63.364 167.624 C 61.090 168.431, 57.490 170.626, 55.364 172.504 C 52.028 175.451, 51.789 175.922, 53.616 175.958 C 58.107 176.047, 69.564 182.905, 75.441 189.024 C 81.505 195.337, 87.394 198.952, 94.910 200.976 C 100.378 202.448, 100.964 201.719, 100.985 193.410 C 101.013 182.058, 93.458 171.190, 82.965 167.488 C 77.708 165.633, 68.806 165.695, 63.364 167.624 M 47.203 183.790 C 46.816 184.731, 46.500 189.325, 46.500 194 C 46.500 201.471, 46.833 203.066, 49.249 207.176 C 57.782 221.692, 77.228 225.555, 90.564 215.384 C 96.908 210.544, 96.816 209.459, 89.861 207.110 C 82.057 204.475, 74.828 199.833, 71 195 C 67.203 190.205, 60.034 185.625, 53.203 183.628 C 48.285 182.191, 47.856 182.202, 47.203 183.790 M 167.750 191.076 C 165.422 192.437, 165.524 195.675, 167.934 196.965 C 168.998 197.534, 175.523 198, 182.434 198 C 189.345 198, 195 198.228, 195 198.507 C 195 198.785, 188.475 212.057, 180.500 228 C 172.525 243.943, 166 257.649, 166 258.458 C 166 260.785, 169.808 262.404, 171.663 260.865 C 172.507 260.164, 179.622 246.749, 187.474 231.052 L 201.750 202.514 216.337 231.674 C 224.360 247.713, 231.395 261.126, 231.971 261.482 C 234.864 263.270, 237.168 259.695, 251.125 231.762 L 265.744 202.502 280.310 231.620 C 288.485 247.962, 295.617 261.023, 296.565 261.386 C 298.428 262.102, 301 260.446, 301 258.531 C 301 257.858, 294.514 244.076, 286.586 227.904 L 272.172 198.500 285.730 198 C 297.213 197.577, 299.456 197.232, 300.389 195.750 C 301.190 194.476, 301.190 193.524, 300.386 192.250 C 299.356 190.616, 294.963 190.485, 234.391 190.276 C 191.547 190.129, 168.905 190.400, 167.750 191.076 M 327.750 191.073 C 325.413 192.444, 325.527 195.677, 327.960 196.979 C 329.243 197.665, 341.208 197.936, 362.601 197.764 C 392.469 197.523, 395.378 197.349, 396.386 195.750 C 397.191 194.474, 397.191 193.526, 396.386 192.250 C 395.377 190.649, 392.483 190.481, 362.391 190.273 C 341.280 190.127, 328.873 190.414, 327.750 191.073 M 220.608 223.250 C 227.546 237.137, 233.371 248.661, 233.553 248.859 C 233.878 249.211, 259 199.502, 259 198.508 C 259 198.228, 247.523 198, 233.496 198 L 207.992 198 220.608 223.250 M 39.571 223.571 C 38.707 224.436, 38 225.636, 38 226.239 C 38 226.841, 43.941 233.334, 51.202 240.667 L 64.405 254 52.774 254 C 43.534 254, 40.820 254.323, 39.571 255.571 C 37.595 257.548, 37.598 258.455, 39.585 260.442 C 40.978 261.835, 45.159 261.995, 74.226 261.763 C 104.452 261.523, 107.377 261.350, 108.386 259.750 C 109.189 258.476, 109.190 257.524, 108.389 256.250 C 107.477 254.799, 105.299 254.415, 95.624 254 L 83.960 253.500 96.480 241.015 C 104.434 233.083, 109 227.777, 109 226.465 C 109 224.288, 107.269 222, 105.623 222 C 105.085 222, 97.750 228.844, 89.323 237.208 L 74 252.416 58.677 237.208 C 50.250 228.844, 42.857 222, 42.249 222 C 41.640 222, 40.436 222.707, 39.571 223.571 M 359.750 223.080 C 357.372 224.465, 357.542 227.685, 360.064 229.034 C 363.753 231.008, 366.819 226.219, 363.800 223.200 C 362.367 221.767, 362.022 221.757, 359.750 223.080 " stroke="none" fill="black" fill-rule="evenodd"/>
</svg>