<svg xmlns="http://www.w3.org/2000/svg" width="308" height="324" viewBox="0 0 308 324" version="1.1">
	<path d="M 65.384 63.357 C 54.714 66.060, 45.962 73.484, 41.191 83.880 C 39.101 88.432, 38.611 91.020, 38.611 97.500 C 38.611 107.107, 41.427 114.253, 48.038 121.425 L 52.255 126 30.699 126 C 12.436 126, 8.903 126.240, 7.571 127.571 C 5.598 129.545, 5.598 130.455, 7.571 132.429 C 8.931 133.788, 13.242 134, 39.571 134 L 70 134 70 164.034 L 70 194.068 54 225.969 C 45.200 243.515, 38 258.334, 38 258.900 C 38 261.580, 42.931 262, 74.363 262 C 102.570 262, 107.064 261.793, 108.429 260.429 C 109.293 259.564, 110 258.662, 110 258.423 C 110 258.183, 102.800 243.593, 94 226 L 78 194.012 78 164.021 L 78 134.029 108.641 133.764 C 136.566 133.523, 139.381 133.345, 140.386 131.750 C 141.191 130.474, 141.191 129.526, 140.387 128.250 C 139.398 126.682, 136.951 126.472, 116.831 126.232 L 94.378 125.963 98.526 121.634 C 105.594 114.258, 107.500 109.131, 107.500 97.500 C 107.500 88.914, 107.153 86.793, 105.049 82.500 C 97.872 67.856, 80.576 59.509, 65.384 63.357 M 63.627 71.468 C 58.247 73.386, 53.039 77.829, 49.500 83.519 C 46.741 87.955, 46.500 89.073, 46.500 97.422 C 46.500 105.509, 46.798 107.007, 49.230 111.145 C 53.385 118.213, 59.168 122.498, 67.305 124.541 L 70 125.217 70 97.608 C 70 76.165, 69.721 70.010, 68.750 70.044 C 68.063 70.068, 65.757 70.709, 63.627 71.468 M 78 97.567 L 78 125.135 80.250 124.434 C 88.339 121.914, 93.775 117.656, 97.500 110.923 C 100.131 106.166, 100.500 104.517, 100.500 97.500 C 100.500 90.512, 100.127 88.827, 97.551 84.176 C 94.179 78.090, 89.063 73.639, 82.965 71.488 C 80.646 70.669, 78.580 70, 78.374 70 C 78.168 70, 78 82.405, 78 97.567 M 230.807 127.250 C 229.813 128.039, 229.001 130.897, 228.604 135 C 226.674 154.967, 214.165 173.634, 196.935 182.260 C 188.740 186.363, 179.659 189, 173.724 189 C 168.894 189, 166 190.499, 166 193 C 166 196.326, 169.274 197.207, 177.417 196.075 C 197.296 193.310, 213.864 182.958, 224.959 166.370 L 230 158.832 230 209.381 C 230 259.428, 230.020 259.941, 232.064 261.034 C 236.995 263.673, 237 263.623, 237 209.794 L 237 159.832 242.129 167.500 C 253.303 184.207, 272.947 195.326, 292.864 196.216 C 298.031 196.447, 299.440 196.171, 300.358 194.750 C 302.606 191.274, 300.026 189.564, 291.395 188.811 C 277.279 187.578, 264.973 181.760, 255.024 171.616 C 244.881 161.275, 239.643 150.572, 237.892 136.613 C 236.611 126.394, 234.838 124.051, 230.807 127.250 M 60.743 228.500 L 48.005 254 73.503 254 C 89.744 254, 99 253.639, 99 253.005 C 99 251.678, 74.664 203, 74 203 C 73.715 203, 67.750 214.475, 60.743 228.500 " stroke="none" fill="black" fill-rule="evenodd"/>
</svg>