<svg xmlns="http://www.w3.org/2000/svg" width="276" height="324" viewBox="0 0 276 324" version="1.1">
	<path d="M 71.571 127.571 C 70.288 128.855, 70 131.788, 70 143.571 L 70 158 55.571 158 C 43.788 158, 40.855 158.288, 39.571 159.571 C 38.219 160.924, 38 164.988, 38 188.774 L 38 216.405 24.667 203.202 C 17.334 195.941, 10.841 190, 10.239 190 C 8.791 190, 6 192.834, 6 194.305 C 6 195.823, 72.177 262, 73.695 262 C 74.334 262, 75.564 261.293, 76.429 260.429 C 77.712 259.145, 78 256.212, 78 244.429 L 78 230 92.429 230 C 104.212 230, 107.145 229.712, 108.429 228.429 C 109.793 227.064, 110 222.537, 110 194 C 110 165.463, 109.793 160.936, 108.429 159.571 C 107.145 158.288, 104.212 158, 92.429 158 L 78 158 78 143.571 C 78 131.788, 77.712 128.855, 76.429 127.571 C 75.564 126.707, 74.471 126, 74 126 C 73.529 126, 72.436 126.707, 71.571 127.571 M 135.571 127.571 C 134.175 128.968, 134 136.372, 134 194 C 134 251.628, 134.175 259.032, 135.571 260.429 C 136.436 261.293, 137.666 262, 138.305 262 C 140.018 262, 206 195.721, 206 194 C 206 192.279, 140.018 126, 138.305 126 C 137.666 126, 136.436 126.707, 135.571 127.571 M 142 194 L 142 248.495 169.248 221.248 L 196.495 194 169.248 166.752 L 142 139.505 142 194 M 46 194 L 46 222 58 222 L 70 222 70 194 L 70 166 58 166 L 46 166 46 194 M 78 194 L 78 222 90 222 L 102 222 102 194 L 102 166 90 166 L 78 166 78 194 M 232.348 190.765 C 230.390 192.014, 198.011 257.865, 198.600 259.400 C 199.266 261.135, 201.518 262.122, 203.274 261.448 C 203.975 261.180, 211.056 247.919, 219.010 231.980 C 226.964 216.041, 233.710 203, 234 203 C 234.290 203, 241.036 216.041, 248.990 231.980 C 256.944 247.919, 264.025 261.180, 264.726 261.448 C 266.482 262.122, 268.734 261.135, 269.400 259.400 C 269.989 257.865, 237.610 192.014, 235.652 190.765 C 235.019 190.361, 234.275 190.031, 234 190.031 C 233.725 190.031, 232.981 190.361, 232.348 190.765 M 60.500 239 C 65.427 243.950, 69.580 248, 69.729 248 C 69.878 248, 70 243.950, 70 239 L 70 230 60.771 230 L 51.542 230 60.500 239 " stroke="none" fill="black" fill-rule="evenodd"/>
</svg>