<svg xmlns="http://www.w3.org/2000/svg" width="308" height="324" viewBox="0 0 308 324" version="1.1">
	<path d="M 67.500 126.596 C 45.302 129.520, 27.644 140.567, 16.128 158.736 C 2.722 179.887, 3.499 209.815, 18.003 230.943 C 37.334 259.105, 72.152 268.292, 102.933 253.355 C 110.746 249.564, 113.750 247.380, 120.433 240.633 C 133.821 227.116, 140 212.233, 140 193.500 C 140 174.767, 133.821 159.884, 120.433 146.367 C 113.709 139.579, 110.794 137.467, 102.933 133.688 C 91.314 128.103, 77.321 125.302, 67.500 126.596 M 295.724 127.134 C 294.121 128.031, 294 132.375, 294 188.777 L 294 249.455 264.115 219.631 C 236.747 192.320, 234.051 189.902, 232.115 190.939 C 230.952 191.561, 230 192.845, 230 193.791 C 230 194.737, 245.075 210.581, 263.500 229 C 292.361 257.851, 297.243 262.337, 298.750 261.386 C 300.383 260.356, 300.517 255.880, 300.757 194.180 C 301 131.634, 300.918 128.027, 299.231 127.124 C 298.096 126.516, 296.822 126.520, 295.724 127.134 M 58.072 135.591 C 47.650 138.393, 39.975 142.982, 31.500 151.479 C 19.132 163.879, 14 176.203, 14 193.500 C 14 210.467, 19.136 223.035, 31 235.102 C 35.125 239.298, 39.927 243.459, 41.671 244.350 L 44.842 245.970 42.501 241.735 C 33.329 225.147, 40.391 202.806, 57.432 194.498 C 71.665 187.560, 87.016 189.915, 97.777 200.687 C 105.474 208.392, 107.500 213.561, 107.500 225.500 C 107.500 234.434, 107.209 236.065, 104.768 240.796 L 102.037 246.091 105.209 244.296 C 114.870 238.828, 126.274 223.893, 130.633 211 C 133.254 203.248, 133.254 183.752, 130.633 176 C 123.917 156.136, 107.617 140.554, 88.356 135.585 C 80.711 133.613, 65.418 133.616, 58.072 135.591 M 183.724 159.134 C 182.192 159.992, 182 162.094, 182 178 C 182 193.906, 182.192 196.008, 183.724 196.866 C 184.818 197.478, 186.098 197.483, 187.224 196.880 C 188.824 196.024, 189 194.152, 189 178 C 189 161.848, 188.824 159.976, 187.224 159.120 C 186.098 158.517, 184.818 158.522, 183.724 159.134 M 62.373 199.918 C 60.104 200.948, 57.908 202.340, 57.494 203.009 C 57.015 203.785, 59.689 207.174, 64.864 212.349 L 72.985 220.470 81.456 212.044 C 90.853 202.695, 90.927 202.185, 83.260 199.573 C 76.963 197.427, 67.514 197.583, 62.373 199.918 M 180.764 206.974 C 171.540 209.825, 166.512 216.362, 166.512 225.500 C 166.512 233.046, 169.299 237.919, 175.791 241.724 C 188.504 249.174, 204 240.262, 204 225.500 C 204 218.644, 199.796 211.506, 194 208.523 C 190.511 206.728, 184.019 205.967, 180.764 206.974 M 50.192 210.269 C 45.752 215.619, 44.575 229.264, 47.918 236.627 C 48.948 238.896, 50.209 241.011, 50.718 241.326 C 51.228 241.641, 55.325 238.199, 59.823 233.678 L 68.001 225.457 59.671 217.170 C 52.884 210.419, 51.128 209.140, 50.192 210.269 M 86.727 216.772 C 82.477 221.047, 79 224.995, 79 225.546 C 79 226.709, 94.165 242, 95.318 242 C 95.744 242, 97.192 239.637, 98.536 236.750 C 100.274 233.018, 100.980 229.765, 100.980 225.500 C 100.980 219.632, 97.303 209, 95.273 209 C 94.822 209, 90.976 212.497, 86.727 216.772 M 179.241 215.325 C 171.773 219.473, 171.727 231.739, 179.165 235.585 C 182.783 237.456, 189.007 237.384, 191.783 235.439 C 194.592 233.472, 197 228.884, 197 225.500 C 197 222.116, 194.592 217.528, 191.783 215.561 C 189.125 213.699, 182.397 213.573, 179.241 215.325 M 64.477 239.059 L 56.500 247.118 58.830 249.034 C 63.737 253.069, 75.248 254.235, 83.038 251.487 C 90.998 248.678, 90.983 248.530, 81.830 239.329 C 77.273 234.748, 73.299 231, 72.999 231 C 72.699 231, 68.864 234.627, 64.477 239.059 " stroke="none" fill="black" fill-rule="evenodd"/>
</svg>