<svg xmlns="http://www.w3.org/2000/svg" width="403" height="324" viewBox="0 0 403 324" version="1.1">
	<path d="M 7.571 127.571 C 6.175 128.968, 6 136.372, 6 194 C 6 251.628, 6.175 259.032, 7.571 260.429 C 8.968 261.825, 16.372 262, 74 262 C 131.628 262, 139.032 261.825, 140.429 260.429 C 141.825 259.032, 142 251.628, 142 194 C 142 136.372, 141.825 128.968, 140.429 127.571 C 139.032 126.175, 131.628 126, 74 126 C 16.372 126, 8.968 126.175, 7.571 127.571 M 391.200 127.200 C 390.293 128.107, 390 143.187, 390 188.944 L 390 249.487 360.136 219.636 C 332.663 192.175, 330.101 189.876, 328.136 190.927 C 326.961 191.556, 326 192.845, 326 193.791 C 326 194.737, 341.075 210.581, 359.500 229 C 388.361 257.851, 393.243 262.337, 394.750 261.386 C 396.383 260.356, 396.517 255.896, 396.757 194.502 C 396.944 146.745, 396.705 128.349, 395.885 127.361 C 394.490 125.681, 392.778 125.622, 391.200 127.200 M 14 194 L 14 254 74 254 L 134 254 134 194 L 134 134 74 134 L 14 134 14 194 M 194.355 158.986 C 183.805 161.211, 174.146 169.119, 169.301 179.500 C 166.947 184.543, 166.507 186.776, 166.544 193.500 C 166.599 203.532, 169.911 211.525, 176.824 218.311 C 190.305 231.544, 211.416 231.936, 224.828 219.201 C 227.551 216.616, 231.066 212.025, 232.639 209 C 235.231 204.014, 235.497 202.565, 235.488 193.500 C 235.475 181.373, 233.424 176.287, 225.342 168.339 C 217.368 160.498, 204.953 156.751, 194.355 158.986 M 279.750 159.080 C 278.186 159.991, 278 162.007, 278 178.015 C 278 195.091, 278.097 195.981, 280.064 197.034 C 284.445 199.379, 285 197.247, 285 178.078 C 285 158.416, 284.430 156.354, 279.750 159.080 M 191.885 167.380 C 173.769 173.854, 167.842 196.856, 180.447 211.770 C 187.835 220.510, 201.687 223.579, 212.145 218.791 C 218.380 215.937, 223.173 211.473, 226.271 205.634 C 229.395 199.749, 229.395 187.251, 226.271 181.366 C 219.681 168.947, 204.630 162.825, 191.885 167.380 M 199.750 191.080 C 197.372 192.465, 197.542 195.685, 200.064 197.034 C 203.753 199.008, 206.819 194.219, 203.800 191.200 C 202.367 189.767, 202.022 189.757, 199.750 191.080 M 275.558 207.492 C 266.570 210.694, 261.561 217.919, 262.248 226.690 C 263.450 242.035, 281.478 250.042, 292.998 240.348 C 304.701 230.501, 300.747 211.079, 286.219 207.044 C 281.490 205.731, 280.371 205.778, 275.558 207.492 M 274.817 215.718 C 267.688 220.140, 267.781 231.077, 274.983 235.331 C 282.727 239.905, 293 234.300, 293 225.500 C 293 216.681, 282.431 210.995, 274.817 215.718 " stroke="none" fill="black" fill-rule="evenodd"/>
</svg>