<svg xmlns="http://www.w3.org/2000/svg" width="372" height="324" viewBox="0 0 372 324" version="1.1">
	<path d="M 65.384 63.412 C 47.480 67.757, 35.543 85.833, 38.993 103.372 C 40.490 110.981, 43.011 115.971, 48.198 121.599 L 52.255 126 30.699 126 C 12.436 126, 8.903 126.240, 7.571 127.571 C 5.598 129.545, 5.598 130.455, 7.571 132.429 C 8.931 133.788, 13.242 134, 39.571 134 L 70 134 70 164.006 L 70 194.012 54 226 C 45.200 243.593, 38 258.183, 38 258.423 C 38 258.662, 38.707 259.564, 39.571 260.429 C 40.936 261.793, 45.463 262, 74 262 C 102.537 262, 107.064 261.793, 108.429 260.429 C 109.293 259.564, 110 258.662, 110 258.423 C 110 258.183, 102.800 243.593, 94 226 L 78 194.012 78 164.006 L 78 134 108.429 134 C 134.758 134, 139.069 133.788, 140.429 132.429 C 142.402 130.455, 142.402 129.545, 140.429 127.571 C 139.095 126.238, 135.519 126, 116.801 126 L 94.745 126 98.802 121.599 C 117.504 101.310, 107.910 69.660, 81.147 63.360 C 74.397 61.772, 72.111 61.779, 65.384 63.412 M 63.054 71.728 C 57.018 73.859, 49.781 81.260, 47.667 87.463 C 42.058 103.925, 50.847 120.571, 67.250 124.550 L 70 125.217 70 97.608 C 70 76.146, 69.722 70.018, 68.750 70.079 C 68.063 70.122, 65.499 70.864, 63.054 71.728 M 78 97.500 L 78 125.135 80.250 124.475 C 93.167 120.686, 101 110.503, 101 97.500 C 101 84.497, 93.167 74.314, 80.250 70.525 L 78 69.865 78 97.500 M 167.571 127.571 C 166.707 128.436, 166 129.609, 166 130.178 C 166 130.747, 169.226 134.540, 173.169 138.607 L 180.338 146 173.169 153.393 C 169.226 157.460, 166 161.253, 166 161.822 C 166 163.139, 168.829 166, 170.131 166 C 170.675 166, 173.568 163.685, 176.560 160.855 L 182 155.710 182 207.284 C 182 252.835, 182.183 259.041, 183.571 260.429 C 184.436 261.293, 185.529 262, 186 262 C 186.471 262, 187.564 261.293, 188.429 260.429 C 189.817 259.041, 190 252.835, 190 207.284 L 190 155.710 195.440 160.855 C 198.432 163.685, 201.325 166, 201.869 166 C 203.171 166, 206 163.139, 206 161.822 C 206 161.253, 202.774 157.460, 198.831 153.393 L 191.662 146 198.831 138.607 C 202.774 134.540, 206 130.747, 206 130.178 C 206 128.861, 203.171 126, 201.869 126 C 201.325 126, 198.432 128.315, 195.440 131.145 L 190 136.290 190 132.716 C 190 129.390, 187.981 126, 186 126 C 184.019 126, 182 129.390, 182 132.716 L 182 136.290 176.560 131.145 C 170.617 125.525, 169.902 125.240, 167.571 127.571 M 231.571 191.571 C 230.707 192.436, 230 193.334, 230 193.568 C 230 195.149, 263.728 261.065, 264.735 261.452 C 265.431 261.719, 266.573 261.717, 267.274 261.448 C 267.975 261.180, 275.056 247.919, 283.010 231.980 C 290.964 216.041, 297.710 203, 298 203 C 298.290 203, 305.036 216.041, 312.990 231.980 C 320.944 247.919, 328.025 261.180, 328.726 261.448 C 329.427 261.717, 330.569 261.719, 331.265 261.452 C 332.272 261.065, 366 195.149, 366 193.568 C 366 193.334, 365.293 192.436, 364.429 191.571 C 363.032 190.175, 355.628 190, 298 190 C 240.372 190, 232.968 190.175, 231.571 191.571 M 252.743 223.500 C 259.750 237.525, 265.715 249, 266 249 C 266.285 249, 272.250 237.525, 279.257 223.500 L 291.995 198 266 198 L 240.005 198 252.743 223.500 M 316.743 223.500 C 323.750 237.525, 329.715 249, 330 249 C 330.285 249, 336.250 237.525, 343.257 223.500 L 355.995 198 330 198 L 304.005 198 316.743 223.500 M 60.743 228.500 L 48.005 254 74 254 L 99.995 254 87.257 228.500 C 80.250 214.475, 74.285 203, 74 203 C 73.715 203, 67.750 214.475, 60.743 228.500 " stroke="none" fill="black" fill-rule="evenodd"/>
</svg>