<svg xmlns="http://www.w3.org/2000/svg" width="420" height="324" viewBox="0 0 420 324" version="1.1">
	<path d="M 391.315 111.213 C 381.792 120.680, 374 129.134, 374 130 C 374 131.761, 407.994 166, 409.743 166 C 411.180 166, 414 163.185, 414 161.751 C 414 161.143, 407.156 153.750, 398.792 145.323 L 383.584 130 398.792 114.677 C 407.156 106.250, 414 98.857, 414 98.249 C 414 96.815, 411.180 94, 409.743 94 C 409.131 94, 400.838 101.746, 391.315 111.213 M 71.571 127.571 C 70.288 128.855, 70 131.788, 70 143.571 L 70 158 55.200 158 C 45.022 158, 40.025 158.375, 39.200 159.200 C 38.324 160.076, 38 167.956, 38 188.402 L 38 216.405 24.667 203.202 C 17.334 195.941, 10.841 190, 10.239 190 C 8.799 190, 6 192.831, 6 194.287 C 6 196.056, 72.253 262, 74.030 262 C 77.510 262, 78 259.878, 78 244.800 L 78 230 92.800 230 C 102.978 230, 107.975 229.625, 108.800 228.800 C 110.519 227.081, 110.519 160.919, 108.800 159.200 C 107.975 158.375, 102.978 158, 92.800 158 L 78 158 78 143.571 C 78 131.788, 77.712 128.855, 76.429 127.571 C 75.564 126.707, 74.471 126, 74 126 C 73.529 126, 72.436 126.707, 71.571 127.571 M 359.571 127.571 C 358.178 128.965, 358 135.899, 358 188.799 L 358 248.455 328.711 219.227 C 312.602 203.152, 298.909 190, 298.282 190 C 296.807 190, 294 192.810, 294 194.287 C 294 196.056, 360.253 262, 362.030 262 C 365.992 262, 366 261.862, 366 194.371 C 366 136.406, 365.825 128.968, 364.429 127.571 C 363.564 126.707, 362.471 126, 362 126 C 361.529 126, 360.436 126.707, 359.571 127.571 M 46 194 L 46 222 58 222 L 70 222 70 194 L 70 166 58 166 L 46 166 46 194 M 78 194 L 78 222 90 222 L 102 222 102 194 L 102 166 90 166 L 78 166 78 194 M 135.200 191.200 C 134.540 191.860, 134 193.107, 134 193.970 C 134 195.747, 199.944 262, 201.713 262 C 203.190 262, 206 259.193, 206 257.718 C 206 257.091, 192.848 243.398, 176.773 227.289 L 147.545 198 207.201 198 C 260.101 198, 267.035 197.822, 268.429 196.429 C 269.293 195.564, 270 194.471, 270 194 C 270 193.529, 269.293 192.436, 268.429 191.571 C 267.032 190.175, 259.594 190, 201.629 190 C 152.229 190, 136.109 190.291, 135.200 191.200 M 60.500 239 C 65.427 243.950, 69.580 248, 69.729 248 C 69.878 248, 70 243.950, 70 239 L 70 230 60.771 230 L 51.542 230 60.500 239 " stroke="none" fill="black" fill-rule="evenodd"/>
</svg>