<svg xmlns="http://www.w3.org/2000/svg" width="372" height="324" viewBox="0 0 372 324" version="1.1">
	<path d="M 71.571 127.571 C 70.288 128.855, 70 131.788, 70 143.571 L 70 158 55.571 158 C 43.788 158, 40.855 158.288, 39.571 159.571 C 38.219 160.924, 38 164.988, 38 188.774 L 38 216.405 24.667 203.202 C 17.334 195.941, 10.841 190, 10.239 190 C 8.791 190, 6 192.834, 6 194.305 C 6 195.823, 72.177 262, 73.695 262 C 74.334 262, 75.564 261.293, 76.429 260.429 C 77.712 259.145, 78 256.212, 78 244.429 L 78 230 92.429 230 C 104.212 230, 107.145 229.712, 108.429 228.429 C 109.793 227.064, 110 222.537, 110 194 C 110 165.463, 109.793 160.936, 108.429 159.571 C 107.145 158.288, 104.212 158, 92.429 158 L 78 158 78 143.571 C 78 131.788, 77.712 128.855, 76.429 127.571 C 75.564 126.707, 74.471 126, 74 126 C 73.529 126, 72.436 126.707, 71.571 127.571 M 46 194 L 46 222 58 222 L 70 222 70 194 L 70 166 58 166 L 46 166 46 194 M 78 194 L 78 222 90 222 L 102 222 102 194 L 102 166 90 166 L 78 166 78 194 M 135.571 191.571 C 134.707 192.436, 134 193.666, 134 194.305 C 134 195.823, 200.177 262, 201.695 262 C 203.186 262, 206 259.201, 206 257.718 C 206 257.091, 192.848 243.398, 176.773 227.289 L 147.545 198 207.201 198 C 260.101 198, 267.035 197.822, 268.429 196.429 C 269.293 195.564, 270 194.471, 270 194 C 270 193.529, 269.293 192.436, 268.429 191.571 C 267.032 190.175, 259.628 190, 202 190 C 144.372 190, 136.968 190.175, 135.571 191.571 M 322.223 191.012 C 311.933 193.160, 301.981 201.443, 297.216 211.825 C 295.092 216.453, 294.610 218.998, 294.606 225.623 C 294.601 232.746, 294.994 234.545, 297.800 240.245 C 301.618 248.001, 307.965 254.176, 315.825 257.784 C 323.894 261.488, 335.106 261.488, 343.175 257.784 C 353.746 252.932, 361.704 243.247, 364.082 232.340 C 365.446 226.083, 365.448 225.503, 364.126 219.147 C 360.146 200.012, 340.926 187.107, 322.223 191.012 M 320.453 199.326 C 315.348 201.293, 310.352 204.850, 307.568 208.500 C 305.193 211.613, 302 218.854, 302 221.126 C 302 221.607, 314.424 222, 329.608 222 L 357.217 222 356.531 219.250 C 354.379 210.616, 347.031 202.221, 339.329 199.597 C 333.921 197.754, 324.871 197.624, 320.453 199.326 M 60.500 239 C 65.427 243.950, 69.580 248, 69.729 248 C 69.878 248, 70 243.950, 70 239 L 70 230 60.771 230 L 51.542 230 60.500 239 M 302.544 232.250 C 304.972 240.302, 310.588 247.131, 317.533 250.478 C 323.097 253.159, 332.591 253.629, 338.895 251.535 C 346.777 248.917, 353.733 241.278, 356.456 232.250 L 357.135 230 329.500 230 L 301.865 230 302.544 232.250 " stroke="none" fill="black" fill-rule="evenodd"/>
</svg>