<svg xmlns="http://www.w3.org/2000/svg" width="260" height="324" viewBox="0 0 260 324" version="1.1">
	<path d="M 104.372 62.765 C 103.751 63.169, 99.329 71.327, 94.544 80.894 C 86.006 97.966, 85.879 98.324, 87.739 100.183 C 88.781 101.225, 90.299 101.823, 91.111 101.511 C 91.924 101.199, 95.480 95.106, 99.014 87.972 C 102.547 80.837, 105.692 75, 106.003 75 C 106.313 75, 109.252 80.432, 112.533 87.070 C 115.815 93.709, 119.222 99.795, 120.105 100.594 C 121.890 102.210, 124.550 101.615, 125.396 99.410 C 125.993 97.855, 109.631 64.022, 107.684 62.784 C 106.211 61.847, 105.786 61.845, 104.372 62.765 M 216.200 159.200 C 215.358 160.042, 215 165.644, 215 178 C 215 190.356, 215.358 195.958, 216.200 196.800 C 217.781 198.381, 218.543 198.315, 220.429 196.429 C 221.733 195.124, 222 191.991, 222 178 C 222 164.009, 221.733 160.876, 220.429 159.571 C 218.543 157.685, 217.781 157.619, 216.200 159.200 M 99 190.580 C 85.068 192.934, 78.780 195.234, 69 201.556 C 54.441 210.967, 43.632 226.488, 39.938 243.288 L 38.665 249.076 25.002 235.538 C 17.488 228.092, 10.845 222, 10.241 222 C 8.814 222, 6 224.824, 6 226.257 C 6 228.006, 40.239 262, 42 262 C 43.761 262, 78 228.006, 78 226.257 C 78 224.827, 75.187 222, 73.765 222 C 73.164 222, 66.841 227.738, 59.714 234.750 L 46.757 247.500 47.445 243.500 C 47.823 241.300, 49.968 235.675, 52.211 231 C 57.882 219.182, 67.216 209.856, 79 204.235 C 89.085 199.424, 95.287 198, 106.155 198 C 122.459 198, 136.178 203.859, 148.007 215.875 C 158.578 226.611, 165 240.638, 165 252.988 C 165 257.308, 167.075 262, 168.985 262 C 169.465 262, 170.614 261.243, 171.540 260.317 C 175.184 256.673, 170.489 235.177, 163.522 223.606 C 154.371 208.410, 139.070 196.857, 122.500 192.632 C 116.129 191.008, 103.167 189.876, 99 190.580 M 211.637 207.420 C 203.771 210.316, 199 217.142, 199 225.500 C 199 231.545, 200.913 235.838, 205.338 239.724 C 214.117 247.432, 226.840 245.611, 233.736 235.659 C 236.025 232.356, 236.500 230.611, 236.500 225.500 C 236.500 220.389, 236.025 218.644, 233.736 215.341 C 228.690 208.059, 219.169 204.646, 211.637 207.420 M 211.217 215.561 C 208.408 217.528, 206 222.116, 206 225.500 C 206 228.884, 208.408 233.472, 211.217 235.439 C 214.749 237.913, 221.318 237.445, 224.857 234.467 C 231.036 229.268, 230.872 221.191, 224.486 216.168 C 221.176 213.564, 214.504 213.258, 211.217 215.561 " stroke="none" fill="black" fill-rule="evenodd"/>
</svg>