<svg xmlns="http://www.w3.org/2000/svg" width="340" height="324" viewBox="0 0 340 324" version="1.1">
	<path d="M 95.870 191.014 C 81.879 193.211, 70.313 198.910, 59.895 208.738 C 51.830 216.346, 46.613 223.885, 43.018 233.124 L 40.392 239.872 36.158 234.955 C 33.828 232.251, 29.869 228.835, 27.359 227.364 C 23.400 225.045, 13.903 222.063, 10.321 222.016 C 8.963 221.998, 6 224.730, 6 226 C 6 227.792, 9.253 230, 11.893 230 C 20.109 230, 30.208 236.668, 34.067 244.639 C 37.038 250.776, 37.607 260.656, 35.377 267.371 C 32.302 276.627, 21.149 285, 11.893 285 C 9.253 285, 6 287.208, 6 289 C 6 289.471, 6.707 290.564, 7.572 291.429 C 10.811 294.668, 25.076 290.326, 32.413 283.868 C 39.331 277.779, 42.392 271.662, 45.704 257.314 C 46.366 254.444, 52.306 250.594, 60.174 247.933 C 65.238 246.221, 68.199 245.874, 75.017 246.194 C 86.573 246.736, 94.714 250.502, 103.331 259.290 C 116.378 272.597, 134.270 276.817, 152.339 270.848 C 158.871 268.690, 170.587 261.677, 171.884 259.148 C 173.001 256.970, 171.537 244.165, 169.429 237.664 C 162.304 215.697, 144.032 198.173, 122.483 192.639 C 114.642 190.625, 102.905 189.908, 95.870 191.014 M 199.200 191.200 C 198.540 191.860, 198 192.719, 198 193.108 C 198 194.441, 231.103 260.946, 232.061 261.538 C 234.853 263.264, 237.274 259.483, 251.125 231.762 L 265.744 202.502 280.334 231.669 C 288.359 247.710, 295.395 261.126, 295.971 261.482 C 298.896 263.290, 301.237 259.553, 317.251 227.508 C 326.463 209.074, 334 193.801, 334 193.568 C 334 193.334, 333.293 192.436, 332.429 191.571 C 331.032 190.175, 323.594 190, 265.629 190 C 216.229 190, 200.109 190.291, 199.200 191.200 M 90.645 199.584 C 74.775 203.426, 59.497 215.915, 52.214 231 C 49.957 235.675, 47.816 241.002, 47.456 242.838 C 46.804 246.170, 46.807 246.173, 49.205 244.601 C 58.447 238.545, 76.867 236.811, 88.419 240.909 C 96.293 243.702, 102.740 247.955, 108.380 254.078 C 111.395 257.352, 115.377 260.231, 119.759 262.307 C 126.008 265.267, 127.266 265.500, 137 265.500 C 148.295 265.500, 152.785 264.162, 161.356 258.244 L 165.211 255.582 164.541 249.658 C 162.384 230.598, 149.407 212.549, 131.820 204.153 C 127.244 201.968, 121.115 199.690, 118.201 199.090 C 111.038 197.617, 97.791 197.854, 90.645 199.584 M 220.608 223.250 C 227.546 237.137, 233.371 248.661, 233.553 248.859 C 233.878 249.211, 259 199.502, 259 198.508 C 259 198.228, 247.523 198, 233.496 198 L 207.992 198 220.608 223.250 M 284.608 223.250 C 291.546 237.137, 297.371 248.661, 297.553 248.859 C 297.878 249.211, 323 199.502, 323 198.508 C 323 198.228, 311.523 198, 297.496 198 L 271.992 198 284.608 223.250 " stroke="none" fill="black" fill-rule="evenodd"/>
</svg>