<svg xmlns="http://www.w3.org/2000/svg" width="403" height="324" viewBox="0 0 403 324" version="1.1">
	<path d="M 130.801 126.999 C 117.210 129.373, 104.785 142.408, 102.514 156.673 C 101.197 164.953, 106.514 185.758, 114.071 201.889 C 124.400 223.939, 143.148 244.833, 163.930 257.458 C 169.332 260.739, 170.305 261.029, 171.948 259.846 C 172.976 259.106, 177.544 255.842, 182.099 252.594 C 208.675 233.642, 228.135 203.709, 234.590 171.852 C 236.892 160.493, 236.145 152.929, 231.945 145.049 C 223.058 128.374, 202.385 121.641, 185.900 130.051 C 180.468 132.822, 172.549 140.259, 170.970 144.073 L 169.728 147.070 166.429 142.170 C 158.614 130.566, 144.583 124.591, 130.801 126.999 M 127.385 135.617 C 117.726 139.043, 110 149.714, 110 159.631 C 110 174.667, 118.259 197.526, 130.186 215.500 C 136.705 225.323, 152.028 240.832, 161.708 247.403 L 168.916 252.295 174.421 248.959 C 177.448 247.124, 183.320 242.570, 187.468 238.839 C 208.581 219.850, 221.113 198.695, 227.062 172 C 229.474 161.177, 229.462 158.311, 226.976 151.667 C 220.646 134.747, 199.074 128.435, 184.797 139.325 C 179.118 143.656, 175.172 150.296, 174.001 157.492 C 172.831 164.680, 171.093 166.819, 167.686 165.267 C 165.718 164.370, 165.199 163.216, 164.733 158.702 C 163.722 148.908, 158.551 141.431, 149.745 137.030 C 142.822 133.571, 134.617 133.052, 127.385 135.617 M 7.571 159.571 C 6.207 160.936, 6 165.463, 6 194 C 6 222.537, 6.207 227.064, 7.571 228.429 C 8.936 229.793, 13.463 230, 42 230 C 70.537 230, 75.064 229.793, 76.429 228.429 C 77.793 227.064, 78 222.537, 78 194 C 78 165.463, 77.793 160.936, 76.429 159.571 C 75.064 158.207, 70.537 158, 42 158 C 13.463 158, 8.936 158.207, 7.571 159.571 M 14 194 L 14 222 42 222 L 70 222 70 194 L 70 166 42 166 L 14 166 14 194 M 288.043 175.139 C 281.142 176.283, 273.040 179.974, 266.357 185.020 C 260.775 189.234, 259.109 192.221, 261.040 194.548 C 262.922 196.816, 264.513 196.317, 269.689 191.835 C 272.335 189.545, 276.975 186.515, 280 185.102 C 284.850 182.837, 286.802 182.532, 296.521 182.517 C 306.925 182.501, 307.905 182.680, 314.021 185.704 C 320.103 188.712, 321.989 190.207, 329.500 197.977 C 331.150 199.684, 335.650 202.631, 339.500 204.527 C 356.371 212.833, 375.014 210.780, 390.778 198.878 C 396.393 194.639, 397.305 191.835, 393.786 189.630 C 392.449 188.792, 391.460 189.046, 389.286 190.788 C 378.114 199.741, 370.939 202.345, 359.017 201.773 C 346.695 201.182, 340.758 198.568, 332.026 189.888 C 323.848 181.759, 314.232 176.666, 304 175.045 C 296.635 173.878, 295.610 173.884, 288.043 175.139 " stroke="none" fill="black" fill-rule="evenodd"/>
</svg>