<svg xmlns="http://www.w3.org/2000/svg" width="340" height="324" viewBox="0 0 340 324" version="1.1">
	<path d="M 72.372 62.765 C 70.418 64.037, 54.003 97.844, 54.593 99.381 C 55.268 101.141, 57.513 102.124, 59.295 101.440 C 60.007 101.167, 63.480 95.106, 67.014 87.972 C 70.547 80.837, 73.691 75, 74 75 C 74.309 75, 77.453 80.837, 80.986 87.972 C 84.520 95.106, 88.076 101.199, 88.889 101.511 C 89.701 101.823, 91.219 101.225, 92.261 100.183 C 94.121 98.324, 93.994 97.966, 85.456 80.894 C 77.647 65.280, 75.673 62.031, 74 62.031 C 73.725 62.031, 72.992 62.361, 72.372 62.765 M 193.972 127.329 C 183.129 129.723, 174.127 137.180, 169.163 147.880 C 165.441 155.904, 165.452 167.118, 169.189 175.175 C 179.800 198.055, 208.420 203.688, 225.777 186.313 C 233.474 178.608, 235.500 173.439, 235.500 161.500 C 235.500 149.367, 233.450 144.286, 225.353 136.339 C 217.097 128.238, 205.257 124.839, 193.972 127.329 M 263.571 127.571 C 262.175 128.968, 262 136.406, 262 194.371 C 262 243.771, 262.291 259.891, 263.200 260.800 C 264.597 262.197, 329.606 262.537, 331.778 261.159 C 332.794 260.514, 333.047 246.874, 333.014 194.446 C 332.970 123.600, 333.022 124.312, 328.117 126.938 L 326 128.070 326 191.035 L 326 254 297.500 254 L 269 254 269 191.200 C 269 128.929, 268.859 126, 265.871 126 C 265.471 126, 264.436 126.707, 263.571 127.571 M 191.627 135.468 C 186.247 137.386, 181.039 141.829, 177.500 147.519 C 174.982 151.568, 174.444 153.582, 174.150 160.050 C 173.760 168.623, 175.420 173.822, 180.447 179.770 C 186.859 187.355, 199.147 190.900, 209.231 188.074 C 220.579 184.894, 229 173.574, 229 161.500 C 229 150.038, 221.486 139.200, 210.965 135.488 C 205.743 133.645, 196.766 133.636, 191.627 135.468 M 33.655 175.088 C 25.702 176.263, 14.462 181.879, 9.134 187.339 L 4.767 191.813 5.819 196.656 C 6.397 199.320, 7.562 204.736, 8.408 208.691 C 13.431 232.187, 33.227 252.489, 56.907 258.430 C 69.914 261.693, 82.452 261.227, 94.953 257.016 C 114.133 250.555, 130.974 233.236, 137.429 213.336 C 140.075 205.176, 141.056 193.963, 139.360 191.250 C 137.484 188.248, 136.580 188.391, 131.598 192.473 C 129.267 194.383, 124.692 197.195, 121.430 198.723 C 116.127 201.206, 114.389 201.500, 105 201.500 C 95.341 201.500, 93.978 201.253, 87.986 198.413 C 83.698 196.381, 79.596 193.357, 75.986 189.566 C 72.968 186.398, 68.664 182.727, 66.420 181.408 C 56.969 175.852, 44.613 173.468, 33.655 175.088 M 28 183.982 C 24.975 185.094, 20.700 187.259, 18.500 188.793 C 14.823 191.357, 14.476 191.996, 14.201 196.707 C 13.492 208.841, 20.477 224.558, 31.459 235.541 C 43.180 247.262, 56.926 253.014, 73.144 252.985 C 90.134 252.955, 103.663 247.376, 115.505 235.516 C 124.358 226.650, 129.504 216.992, 132.429 203.756 L 133.035 201.013 127.267 203.920 C 119.086 208.045, 113.659 209.317, 104.500 209.257 C 90.456 209.165, 78.370 203.812, 70.122 194.030 C 67.241 190.613, 63.859 188.071, 59.222 185.838 C 53.357 183.012, 51.288 182.559, 43 182.280 C 35.378 182.023, 32.412 182.360, 28 183.982 M 167.571 191.571 C 166.707 192.436, 166 193.640, 166 194.249 C 166 194.857, 172.844 202.250, 181.208 210.677 L 196.416 226 181.208 241.323 C 172.844 249.750, 166 257.143, 166 257.751 C 166 258.967, 168.736 262, 169.834 262 C 170.213 262, 177.482 255.031, 185.987 246.514 L 201.449 231.027 217.045 246.514 C 225.623 255.031, 233.082 262, 233.621 262 C 235.106 262, 237 259.793, 237 258.062 C 237 257.216, 230.143 249.656, 221.762 241.262 L 206.524 226 221.762 210.738 C 230.143 202.344, 237 194.784, 237 193.938 C 237 192.207, 235.106 190, 233.621 190 C 233.082 190, 225.623 196.969, 217.045 205.486 L 201.449 220.973 185.987 205.486 C 177.482 196.969, 170.213 190, 169.834 190 C 169.454 190, 168.436 190.707, 167.571 191.571 " stroke="none" fill="black" fill-rule="evenodd"/>
</svg>