<svg xmlns="http://www.w3.org/2000/svg" width="308" height="324" viewBox="0 0 308 324" version="1.1">
	<path d="M 66.223 63.008 C 55.924 65.167, 45.980 73.445, 41.216 83.825 C 39.099 88.436, 38.611 91, 38.611 97.500 C 38.611 107.107, 41.427 114.253, 48.038 121.425 L 52.255 126 30.699 126 C 12.436 126, 8.903 126.240, 7.571 127.571 C 5.598 129.545, 5.598 130.455, 7.571 132.429 C 8.931 133.788, 13.242 134, 39.571 134 L 70 134 70 164.034 L 70 194.068 54 225.969 C 45.200 243.515, 38 258.334, 38 258.900 C 38 261.580, 42.931 262, 74.363 262 C 102.570 262, 107.064 261.793, 108.429 260.429 C 109.293 259.564, 110 258.662, 110 258.423 C 110 258.183, 102.800 243.593, 94 226 L 78 194.012 78 164.021 L 78 134.029 108.641 133.764 C 136.566 133.523, 139.381 133.345, 140.386 131.750 C 141.191 130.474, 141.191 129.526, 140.387 128.250 C 139.399 126.683, 136.962 126.472, 117.074 126.231 L 94.864 125.961 98.885 121.393 C 105.887 113.438, 107.500 108.965, 107.500 97.500 C 107.500 85.464, 105.483 80.393, 97.518 72.404 C 89.702 64.563, 76.999 60.749, 66.223 63.008 M 63.463 71.591 C 57.971 73.541, 52.552 78.205, 49.249 83.824 C 46.800 87.989, 46.500 89.483, 46.500 97.500 C 46.500 105.502, 46.803 107.015, 49.230 111.145 C 53.385 118.213, 59.168 122.498, 67.305 124.541 L 70 125.217 70 97.608 C 70 76.146, 69.722 70.018, 68.750 70.079 C 68.063 70.122, 65.683 70.803, 63.463 71.591 M 78 97.567 L 78 125.135 80.250 124.434 C 88.339 121.914, 93.775 117.656, 97.500 110.923 C 100.131 106.166, 100.500 104.517, 100.500 97.500 C 100.500 90.512, 100.127 88.827, 97.551 84.176 C 94.179 78.090, 89.063 73.639, 82.965 71.488 C 80.646 70.669, 78.580 70, 78.374 70 C 78.168 70, 78 82.405, 78 97.567 M 231.750 127.080 C 230.143 128.016, 230 130.628, 230 159.050 L 230 190 199.200 190 C 176.578 190, 168.081 190.319, 167.200 191.200 C 166.314 192.086, 166 201.237, 166 226.165 C 166 259.255, 166.041 259.952, 168.064 261.034 C 169.596 261.854, 170.498 261.832, 171.564 260.947 C 172.755 259.958, 173 254.493, 173 228.878 L 173 198 201.500 198 L 230 198 230 228.965 C 230 259.226, 230.047 259.955, 232.064 261.034 C 233.596 261.854, 234.498 261.832, 235.564 260.947 C 236.755 259.958, 237 254.493, 237 228.878 L 237 198 265.486 198 L 293.972 198 294.236 229.141 C 294.472 256.937, 294.679 260.396, 296.166 261.333 C 297.375 262.096, 298.267 262.023, 299.416 261.070 C 300.804 259.918, 301 255.585, 301 226.078 C 301 201.217, 300.686 192.086, 299.800 191.200 C 298.919 190.319, 290.422 190, 267.800 190 L 237 190 237 159.200 C 237 125.561, 236.770 124.156, 231.750 127.080 M 60.743 228.500 L 48.005 254 73.503 254 C 87.526 254, 99 253.712, 99 253.359 C 99 252.160, 74.666 203, 74.073 203 C 73.748 203, 67.750 214.475, 60.743 228.500 " stroke="none" fill="black" fill-rule="evenodd"/>
</svg>