<svg xmlns="http://www.w3.org/2000/svg" width="180" height="324" viewBox="0 0 180 324" version="1.1">
	<path d="M 7.571 127.571 C 6.175 128.968, 6 136.372, 6 194 C 6 251.628, 6.175 259.032, 7.571 260.429 C 8.936 261.793, 13.463 262, 42 262 C 70.537 262, 75.064 261.793, 76.429 260.429 C 77.825 259.032, 78 251.628, 78 194 C 78 136.372, 77.825 128.968, 76.429 127.571 C 75.064 126.207, 70.537 126, 42 126 C 13.463 126, 8.936 126.207, 7.571 127.571 M 136.370 126.765 C 134.401 128.045, 102.007 193.855, 102.594 195.384 C 103.265 197.133, 105.512 198.124, 107.274 197.448 C 107.975 197.180, 115.056 183.919, 123.010 167.980 C 130.964 152.041, 137.710 139, 138 139 C 138.290 139, 145.036 152.041, 152.990 167.980 C 160.944 183.919, 168.025 197.180, 168.726 197.448 C 170.488 198.124, 172.735 197.133, 173.406 195.384 C 173.993 193.855, 141.599 128.045, 139.630 126.765 C 139.009 126.361, 138.275 126.031, 138 126.031 C 137.725 126.031, 136.991 126.361, 136.370 126.765 M 14 194 L 14 254 42 254 L 70 254 70 194 L 70 134 42 134 L 14 134 14 194 M 136.370 190.765 C 134.401 192.045, 102.007 257.855, 102.594 259.384 C 103.265 261.133, 105.512 262.124, 107.274 261.448 C 107.975 261.180, 115.056 247.919, 123.010 231.980 C 130.964 216.041, 137.710 203, 138 203 C 138.290 203, 145.036 216.041, 152.990 231.980 C 160.944 247.919, 168.025 261.180, 168.726 261.448 C 170.488 262.124, 172.735 261.133, 173.406 259.384 C 173.993 257.855, 141.599 192.045, 139.630 190.765 C 139.009 190.361, 138.275 190.031, 138 190.031 C 137.725 190.031, 136.991 190.361, 136.370 190.765 " stroke="none" fill="black" fill-rule="evenodd"/>
</svg>