<svg xmlns="http://www.w3.org/2000/svg" width="244" height="324" viewBox="0 0 244 324" version="1.1">
	<path d="M 39.571 127.571 C 38.207 128.935, 38 133.425, 38 161.577 L 38 194.012 22 226 C 13.200 243.593, 6 258.183, 6 258.423 C 6 258.662, 6.707 259.564, 7.571 260.429 C 8.936 261.793, 13.463 262, 42 262 C 70.537 262, 75.064 261.793, 76.429 260.429 C 77.293 259.564, 78 258.662, 78 258.423 C 78 258.183, 70.800 243.593, 62 226 L 46 194.012 46 161.577 C 46 133.425, 45.793 128.935, 44.429 127.571 C 43.564 126.707, 42.471 126, 42 126 C 41.529 126, 40.436 126.707, 39.571 127.571 M 135.244 223.256 C 116.960 241.546, 102 257.206, 102 258.056 C 102 261.988, 102.206 262, 169.629 262 C 228.358 262, 235.018 261.839, 236.473 260.384 C 237.362 259.495, 237.957 258.371, 237.795 257.887 C 237.259 256.284, 170.618 190, 169.543 190 C 168.963 190, 153.529 204.965, 135.244 223.256 M 142.545 226.500 L 115.800 254 170.143 254 L 224.486 254 197 226.500 C 181.883 211.375, 169.464 199, 169.402 199 C 169.341 199, 157.255 211.375, 142.545 226.500 M 28.743 228.500 L 16.005 254 42 254 L 67.995 254 55.257 228.500 C 48.250 214.475, 42.285 203, 42 203 C 41.715 203, 35.750 214.475, 28.743 228.500 " stroke="none" fill="black" fill-rule="evenodd"/>
</svg>