<svg xmlns="http://www.w3.org/2000/svg" width="244" height="324" viewBox="0 0 244 324" version="1.1">
	<path d="M 33.384 127.357 C 15.361 131.923, 3.562 149.820, 6.987 167.396 C 9.923 182.467, 20.510 193.032, 35.660 196.013 C 51.154 199.061, 68.354 189.287, 74.043 174.202 C 76.983 166.405, 76.941 156.485, 73.934 148.507 C 68.097 133.023, 49.437 123.290, 33.384 127.357 M 31.054 135.728 C 25.018 137.859, 17.781 145.260, 15.667 151.463 C 11.995 162.241, 14.382 173.477, 21.952 181.048 C 32.402 191.497, 49.888 191.773, 60.280 181.653 C 66.701 175.401, 68.500 170.989, 68.500 161.500 C 68.500 152.011, 66.701 147.599, 60.280 141.347 C 53.109 134.363, 41.332 132.099, 31.054 135.728 M 7.571 191.571 C 6.707 192.436, 6 193.640, 6 194.249 C 6 194.857, 12.844 202.250, 21.208 210.677 L 36.416 226 21.208 241.323 C 12.844 249.750, 6 257.143, 6 257.751 C 6 259.181, 8.819 262, 10.249 262 C 10.857 262, 18.250 255.156, 26.677 246.792 L 42 231.584 57.323 246.792 C 65.750 255.156, 73.143 262, 73.751 262 C 75.181 262, 78 259.181, 78 257.751 C 78 257.143, 71.156 249.750, 62.792 241.323 L 47.584 226 62.792 210.677 C 71.156 202.250, 78 194.857, 78 194.249 C 78 192.819, 75.181 190, 73.751 190 C 73.143 190, 65.750 196.844, 57.323 205.208 L 42 220.416 26.677 205.208 C 18.250 196.844, 10.857 190, 10.249 190 C 9.640 190, 8.436 190.707, 7.571 191.571 M 162.344 190.988 C 152.010 193.166, 141.930 201.366, 137.417 211.266 C 133.383 220.112, 133.350 230.889, 137.329 239.500 C 138.854 242.800, 141.972 247.412, 144.259 249.750 L 148.416 254 126.780 254 C 108.443 254, 104.903 254.240, 103.571 255.571 C 101.598 257.545, 101.598 258.455, 103.571 260.429 C 104.930 261.787, 109.197 262, 135.071 262 C 159.420 262, 165 262.250, 165 263.340 C 165 264.077, 164.101 268.194, 163.003 272.489 C 158.717 289.246, 147.079 303.562, 131.820 310.847 C 123.178 314.974, 115.669 317, 109.022 317 C 104.802 317, 101.533 319.340, 102.442 321.711 C 102.749 322.510, 103 323.352, 103 323.582 C 103 324.663, 116.888 323.825, 122.356 322.414 C 139.747 317.924, 157.022 303.919, 164.824 287.988 C 169.049 279.360, 172 269.825, 172 264.804 L 172 262.028 203.641 261.764 C 232.518 261.523, 235.379 261.347, 236.386 259.750 C 237.191 258.474, 237.191 257.526, 236.387 256.250 C 235.398 254.682, 232.951 254.472, 212.831 254.232 L 190.378 253.963 194.526 249.634 C 201.594 242.258, 203.500 237.131, 203.500 225.500 C 203.500 213.367, 201.450 208.286, 193.353 200.339 C 185.358 192.494, 172.950 188.752, 162.344 190.988 M 159.627 199.468 C 154.247 201.386, 149.039 205.829, 145.500 211.519 C 141.527 217.908, 140.712 229.311, 143.741 236.129 C 148.181 246.120, 156.127 251.919, 166.521 252.754 C 178.446 253.711, 188.036 248.794, 193.500 238.921 C 196.132 234.166, 196.500 232.518, 196.500 225.500 C 196.500 218.487, 196.130 216.829, 193.500 212.061 C 190.429 206.492, 184.651 201.526, 178.684 199.326 C 174.327 197.720, 164.323 197.794, 159.627 199.468 " stroke="none" fill="black" fill-rule="evenodd"/>
</svg>