<svg xmlns="http://www.w3.org/2000/svg" width="276" height="324" viewBox="0 0 276 324" version="1.1">
	<path d="M 34.223 159.062 C 24.045 161.068, 13.996 169.411, 9.216 179.825 C 5.524 187.869, 5.513 199.108, 9.191 207.120 C 12.319 213.936, 17.835 220.233, 23.673 223.654 C 28.824 226.673, 41.869 230.124, 44 229.032 C 44.825 228.609, 47.279 227.941, 49.453 227.548 C 58.124 225.980, 67.643 218.768, 72.232 210.288 C 83.343 189.761, 72.001 164.740, 49.147 159.360 C 42.857 157.880, 40.464 157.832, 34.223 159.062 M 199.571 159.571 C 197.215 161.927, 197.215 210.073, 199.571 212.429 C 200.436 213.293, 201.529 214, 202 214 C 202.471 214, 203.564 213.293, 204.429 212.429 C 206.785 210.073, 206.785 161.927, 204.429 159.571 C 203.564 158.707, 202.471 158, 202 158 C 201.529 158, 200.436 158.707, 199.571 159.571 M 231.571 159.571 C 229.215 161.927, 229.215 210.073, 231.571 212.429 C 232.436 213.293, 233.529 214, 234 214 C 234.471 214, 235.564 213.293, 236.429 212.429 C 238.785 210.073, 238.785 161.927, 236.429 159.571 C 235.564 158.707, 234.471 158, 234 158 C 233.529 158, 232.436 158.707, 231.571 159.571 M 31.054 167.728 C 25.018 169.859, 17.781 177.260, 15.667 183.463 C 11.948 194.378, 14.390 205.587, 22.128 213.125 C 26.193 217.084, 33.676 221, 37.178 221 C 37.630 221, 38 208.625, 38 193.500 C 38 172.125, 37.722 166.018, 36.750 166.079 C 36.063 166.122, 33.499 166.864, 31.054 167.728 M 46 193.500 L 46 221.135 48.250 220.448 C 57.341 217.671, 64.783 211.020, 67.403 203.329 C 72.854 187.332, 64.639 171.558, 48.250 166.552 L 46 165.865 46 193.500 M 103.571 191.571 C 102.707 192.436, 102 193.529, 102 194 C 102 194.471, 102.707 195.564, 103.571 196.429 C 104.936 197.793, 109.463 198, 138 198 C 166.537 198, 171.064 197.793, 172.429 196.429 C 173.293 195.564, 174 194.471, 174 194 C 174 193.529, 173.293 192.436, 172.429 191.571 C 171.064 190.207, 166.537 190, 138 190 C 109.463 190, 104.936 190.207, 103.571 191.571 M 199.571 222.571 C 198.707 223.436, 198 224.529, 198 225 C 198 225.471, 198.707 226.564, 199.571 227.429 C 200.436 228.293, 201.529 229, 202 229 C 202.471 229, 203.564 228.293, 204.429 227.429 C 205.293 226.564, 206 225.471, 206 225 C 206 224.529, 205.293 223.436, 204.429 222.571 C 203.564 221.707, 202.471 221, 202 221 C 201.529 221, 200.436 221.707, 199.571 222.571 M 231.571 222.571 C 230.707 223.436, 230 224.529, 230 225 C 230 225.471, 230.707 226.564, 231.571 227.429 C 232.436 228.293, 233.529 229, 234 229 C 234.471 229, 235.564 228.293, 236.429 227.429 C 237.293 226.564, 238 225.471, 238 225 C 238 224.529, 237.293 223.436, 236.429 222.571 C 235.564 221.707, 234.471 221, 234 221 C 233.529 221, 232.436 221.707, 231.571 222.571 M 7.571 255.571 C 6.707 256.436, 6 257.529, 6 258 C 6 258.471, 6.707 259.564, 7.571 260.429 C 8.936 261.793, 13.463 262, 42 262 C 70.537 262, 75.064 261.793, 76.429 260.429 C 77.293 259.564, 78 258.471, 78 258 C 78 257.529, 77.293 256.436, 76.429 255.571 C 75.064 254.207, 70.537 254, 42 254 C 13.463 254, 8.936 254.207, 7.571 255.571 " stroke="none" fill="black" fill-rule="evenodd"/>
</svg>