<svg xmlns="http://www.w3.org/2000/svg" width="403" height="324" viewBox="0 0 403 324" version="1.1">
	<path d="M 63.870 127.071 C 48.893 129.271, 37.652 135.158, 25.974 146.916 C 12.475 160.507, 6.696 174.473, 6.696 193.500 C 6.696 212.834, 12.449 226.527, 26.461 240.539 C 40.492 254.570, 54.303 260.379, 73.500 260.326 C 92.233 260.273, 106.962 254.078, 120.584 240.521 C 133.867 227.301, 140 212.448, 140 193.500 C 140 174.879, 133.913 159.885, 121.121 146.995 C 109.603 135.389, 97.653 129.243, 82.284 127.020 C 74.551 125.902, 71.772 125.910, 63.870 127.071 M 167.571 127.571 C 166.707 128.436, 166 129.640, 166 130.249 C 166 130.857, 172.850 138.257, 181.223 146.692 L 196.446 162.030 181.223 177.277 C 172.850 185.662, 166 193.216, 166 194.062 C 166 197.833, 167.502 198, 201.500 198 C 235.498 198, 237 197.833, 237 194.062 C 237 193.216, 230.143 185.656, 221.762 177.262 L 206.524 162 221.762 146.738 C 230.143 138.344, 237 130.784, 237 129.938 C 237 128.207, 235.106 126, 233.621 126 C 233.082 126, 225.623 132.969, 217.045 141.486 L 201.449 156.973 185.987 141.486 C 177.482 132.969, 170.213 126, 169.834 126 C 169.454 126, 168.436 126.707, 167.571 127.571 M 290.801 127.017 C 279.225 128.994, 267.524 139.326, 264.023 150.661 C 261.365 159.267, 261.377 163.596, 264.064 165.034 C 267.033 166.623, 268.622 164.891, 269.384 159.233 C 271.385 144.371, 282.685 134.059, 297 134.032 C 313.260 134.001, 326.726 148.586, 324.528 163.847 C 319.639 197.784, 299.590 229.104, 270.030 248.980 C 265.063 252.319, 261 255.715, 261 256.526 C 261 257.337, 261.900 258.900, 263 260 C 264.917 261.917, 266.333 262, 297.066 262 C 317.257 262, 329.848 261.617, 331.066 260.965 C 332.130 260.395, 333 259.061, 333 258 C 333 256.939, 332.130 255.605, 331.066 255.035 C 329.871 254.396, 318.935 254, 302.465 254 L 275.799 254 281.150 249.989 C 295.747 239.046, 310.284 221.624, 318.827 204.834 C 326.061 190.615, 332 170.503, 332 160.224 C 332 139.903, 311.604 123.463, 290.801 127.017 M 57.500 135.870 C 37.436 141.645, 20.733 158.691, 15.585 178.644 C 13.554 186.517, 13.554 200.483, 15.585 208.356 C 18.169 218.372, 23.639 227.725, 31.459 235.500 C 35.332 239.350, 39.936 243.298, 41.692 244.272 L 44.884 246.045 42.522 241.772 C 38.909 235.240, 37.541 226.549, 39 219.396 C 43.824 195.736, 68.038 183.810, 89.500 194.524 C 95.879 197.708, 97.820 199.399, 101.861 205.286 C 106.845 212.548, 108.259 217.747, 107.852 227.317 C 107.571 233.921, 106.951 236.646, 104.777 240.835 L 102.053 246.081 105.243 244.291 C 106.998 243.306, 111.603 239.350, 115.477 235.500 C 123.226 227.799, 128.848 217.983, 131.491 207.540 C 133.423 199.909, 133.423 187.091, 131.491 179.460 C 126.119 158.236, 108.383 140.366, 87.897 135.537 C 79.386 133.531, 65.080 133.688, 57.500 135.870 M 359.724 159.134 C 358.161 160.009, 358 162.521, 358 186.015 C 358 209.816, 358.145 212.007, 359.776 212.880 C 360.902 213.483, 362.182 213.478, 363.276 212.866 C 364.839 211.991, 365 209.479, 365 185.985 C 365 162.184, 364.855 159.993, 363.224 159.120 C 362.098 158.517, 360.818 158.522, 359.724 159.134 M 190 178.500 L 178.533 190 201.500 190 L 224.467 190 213 178.500 C 206.693 172.175, 201.518 167, 201.500 167 C 201.482 167, 196.307 172.175, 190 178.500 M 63.741 199.429 C 56 202.191, 56.035 202.488, 65.170 211.671 L 73.457 220.001 81.692 211.809 C 90.838 202.711, 90.906 202.178, 83.260 199.573 C 77.673 197.669, 68.855 197.604, 63.741 199.429 M 50.192 210.269 C 44.822 216.739, 44.585 233.593, 49.775 239.955 C 51.490 242.057, 51.548 242.021, 59.751 233.763 L 68.001 225.457 59.671 217.170 C 52.884 210.419, 51.128 209.140, 50.192 210.269 M 87.227 217.271 L 78.999 225.543 87.459 233.959 L 95.918 242.375 98.449 236.937 C 101.867 229.595, 101.898 221.472, 98.536 214.250 C 97.192 211.363, 95.949 209, 95.774 209 C 95.599 209, 91.753 212.722, 87.227 217.271 M 359.724 222.134 C 355.838 224.309, 359.294 229.983, 363.224 227.880 C 364.201 227.357, 365 226.061, 365 225 C 365 222.485, 362.005 220.858, 359.724 222.134 M 65.104 239.395 L 56.752 247.791 59.253 249.430 C 65.098 253.260, 75.372 254.115, 83.260 251.427 C 90.906 248.822, 90.838 248.289, 81.692 239.191 L 73.457 230.999 65.104 239.395 " stroke="none" fill="black" fill-rule="evenodd"/>
</svg>