<svg xmlns="http://www.w3.org/2000/svg" width="372" height="324" viewBox="0 0 372 324" version="1.1">
	<path d="M 7.571 127.571 C 6.175 128.968, 6.002 136.388, 6.016 194.321 C 6.028 244.993, 6.327 260.757, 7.360 265.147 C 13.578 291.562, 45.012 301.439, 65.100 283.290 C 67.306 281.298, 70.281 277.671, 71.710 275.231 C 77.400 265.523, 77.427 265.155, 77.740 194.336 C 77.998 135.935, 77.864 129.007, 76.443 127.586 C 74.455 125.598, 73.548 125.595, 71.571 127.571 C 70.182 128.961, 70 135.345, 70 182.699 L 70 236.255 65.599 232.198 C 51.626 219.318, 31.863 219.095, 17.955 231.660 L 14 235.233 14 182.188 C 14 135.298, 13.818 128.961, 12.429 127.571 C 11.564 126.707, 10.471 126, 10 126 C 9.529 126, 8.436 126.707, 7.571 127.571 M 295.571 127.571 C 294.707 128.436, 294 129.529, 294 130 C 294 130.471, 294.707 131.564, 295.571 132.429 C 296.855 133.712, 299.788 134, 311.571 134 L 326 134 326 194 L 326 254 311.571 254 C 299.788 254, 296.855 254.288, 295.571 255.571 C 294.707 256.436, 294 257.529, 294 258 C 294 258.471, 294.707 259.564, 295.571 260.429 C 296.936 261.793, 301.463 262, 330 262 C 358.537 262, 363.064 261.793, 364.429 260.429 C 365.293 259.564, 366 258.471, 366 258 C 366 257.529, 365.293 256.436, 364.429 255.571 C 363.145 254.288, 360.212 254, 348.429 254 L 334 254 334 194 L 334 134 348.429 134 C 360.212 134, 363.145 133.712, 364.429 132.429 C 365.293 131.564, 366 130.471, 366 130 C 366 129.529, 365.293 128.436, 364.429 127.571 C 363.064 126.207, 358.537 126, 330 126 C 301.463 126, 296.936 126.207, 295.571 127.571 M 39.571 159.571 C 38.707 160.436, 38 161.529, 38 162 C 38 163.111, 40.889 166, 42 166 C 43.111 166, 46 163.111, 46 162 C 46 160.889, 43.111 158, 42 158 C 41.529 158, 40.436 158.707, 39.571 159.571 M 39.571 191.571 C 38.707 192.436, 38 193.529, 38 194 C 38 195.111, 40.889 198, 42 198 C 43.111 198, 46 195.111, 46 194 C 46 192.889, 43.111 190, 42 190 C 41.529 190, 40.436 190.707, 39.571 191.571 M 116.764 190.952 C 109.186 193.355, 103.955 199.277, 102.503 207.096 C 101.855 210.586, 103.585 214, 106 214 C 107.861 214, 110 210.700, 110 207.829 C 110 205.718, 111.030 203.770, 113.400 201.400 C 116.302 198.498, 117.488 198, 121.500 198 C 125.512 198, 126.698 198.498, 129.600 201.400 C 135.296 207.096, 134.903 208.183, 117.941 233.589 C 109.658 245.994, 102.657 256.729, 102.383 257.443 C 102.109 258.158, 102.618 259.475, 103.514 260.371 C 105.895 262.753, 138.054 262.803, 140.429 260.429 C 142.402 258.455, 142.402 257.545, 140.429 255.571 C 139.162 254.305, 136.348 254, 125.926 254 L 112.995 254 127.477 232.250 L 141.960 210.500 140.402 206 C 139.546 203.525, 138.002 200.133, 136.972 198.462 C 133.448 192.747, 123.161 188.924, 116.764 190.952 M 223.102 191.162 C 208.694 193.222, 195.367 200.535, 184.168 212.528 C 173.907 223.515, 168.233 236.337, 166.449 252.570 C 165.422 261.917, 165.595 262, 186 262 C 205.334 262, 206 261.749, 206 254.478 C 206 241.343, 212.860 225.930, 223.395 215.395 C 233.930 204.860, 249.343 198, 262.478 198 C 266.575 198, 270 196.179, 270 194 C 270 193.529, 269.293 192.436, 268.429 191.571 C 267.103 190.246, 263.939 190.019, 248.179 190.123 C 237.905 190.191, 226.621 190.659, 223.102 191.162 M 219.217 199.449 C 198.050 204.575, 179.428 223.713, 175.090 244.799 C 173.074 254.600, 172.364 254, 185.981 254 C 197.616 254, 197.974 253.935, 198.377 251.750 C 201.872 232.791, 206.258 223.139, 216.228 212.463 C 220.042 208.379, 225.376 203.604, 228.081 201.850 C 230.787 200.097, 233 198.514, 233 198.332 C 233 197.550, 224.070 198.274, 219.217 199.449 M 31.054 231.728 C 25.018 233.859, 17.781 241.260, 15.667 247.463 C 9.198 266.450, 21.964 285, 41.500 285 C 49.295 285, 55.452 282.453, 60.952 276.952 C 78.571 259.333, 66.014 229.726, 41.072 230.079 C 38.007 230.122, 33.499 230.864, 31.054 231.728 " stroke="none" fill="black" fill-rule="evenodd"/>
</svg>