<svg xmlns="http://www.w3.org/2000/svg" width="452" height="324" viewBox="0 0 452 324" version="1.1">
	<path d="M 103.571 127.571 C 102.199 128.944, 102 133.890, 102 166.699 L 102 204.255 97.599 200.198 C 92.503 195.500, 86.962 192.459, 81.703 191.472 L 78 190.777 78 175.960 C 78 163.823, 77.716 160.859, 76.429 159.571 C 75.064 158.207, 70.537 158, 42 158 C 13.463 158, 8.936 158.207, 7.571 159.571 C 6.207 160.936, 6 165.463, 6 194 C 6 222.537, 6.207 227.064, 7.571 228.429 C 8.860 229.717, 11.833 230, 24.071 230 L 39 230 39 232.340 C 39 233.627, 40.362 237.406, 42.027 240.738 C 52.663 262.022, 79.525 267.169, 97.100 251.290 C 102.082 246.790, 105.364 241.277, 107.692 233.500 C 109.296 228.142, 109.517 222.238, 109.762 178.340 C 110.007 134.505, 109.864 129.007, 108.447 127.590 C 106.455 125.597, 105.549 125.594, 103.571 127.571 M 327.750 127.073 C 325.413 128.444, 325.527 131.677, 327.960 132.979 C 329.243 133.665, 341.208 133.936, 362.601 133.764 C 392.469 133.523, 395.378 133.349, 396.386 131.750 C 397.191 130.474, 397.191 129.526, 396.386 128.250 C 395.377 126.649, 392.483 126.481, 362.391 126.273 C 341.280 126.127, 328.873 126.414, 327.750 127.073 M 327.750 159.073 C 325.413 160.444, 325.527 163.677, 327.960 164.979 C 329.243 165.665, 341.208 165.936, 362.601 165.764 C 392.469 165.523, 395.378 165.349, 396.386 163.750 C 397.191 162.474, 397.191 161.526, 396.386 160.250 C 395.377 158.649, 392.483 158.481, 362.391 158.273 C 341.280 158.127, 328.873 158.414, 327.750 159.073 M 14 194.031 L 14 222.062 26.141 221.781 L 38.282 221.500 39.441 216.929 C 41.961 206.990, 49.620 197.948, 59.360 193.413 C 62.187 192.096, 65.737 191.015, 67.250 191.010 L 70 191 70 178.500 L 70 166 42 166 L 14 166 14 194.031 M 148.994 190.934 C 140.846 193.413, 135.639 199.011, 134.443 206.578 C 133.953 209.682, 134.199 211.056, 135.471 212.328 C 136.391 213.248, 137.535 214, 138.015 214 C 139.484 214, 142 209.693, 142 207.177 C 142 205.807, 143.440 203.360, 145.400 201.400 C 148.251 198.549, 149.520 198, 153.265 198 C 156.190 198, 158.592 198.678, 160.230 199.966 C 163.154 202.266, 165.439 207.215, 164.765 209.789 C 164.506 210.781, 157.478 221.802, 149.147 234.280 C 140.816 246.758, 134 257.595, 134 258.361 C 134 261.608, 136.598 262.051, 154.024 261.774 C 169.193 261.533, 171.418 261.288, 172.387 259.750 C 173.190 258.475, 173.191 257.525, 172.388 256.250 C 171.445 254.753, 169.383 254.460, 158.151 254.221 L 145.015 253.942 159.008 232.988 C 166.703 221.464, 173 211.207, 173 210.196 C 173 205.877, 169.660 198.925, 165.992 195.612 C 160.730 190.858, 154.700 189.199, 148.994 190.934 M 253.500 191.480 C 231.372 195.589, 213.938 209.099, 204.438 229.500 C 199.261 240.615, 196.359 257.959, 199.200 260.800 C 200.639 262.239, 233.684 262.486, 235.914 261.074 C 236.827 260.496, 237.479 257.763, 237.753 253.359 C 239.340 227.909, 258.303 205.383, 283.053 199.549 C 286.599 198.713, 291.376 198.023, 293.668 198.015 C 299.575 197.994, 301 197.214, 301 194 C 301 192.382, 300.337 190.960, 299.418 190.607 C 296.472 189.476, 260.620 190.158, 253.500 191.480 M 327.750 191.073 C 325.413 192.444, 325.527 195.677, 327.960 196.979 C 329.243 197.665, 341.208 197.936, 362.601 197.764 C 392.469 197.523, 395.378 197.349, 396.386 195.750 C 397.191 194.474, 397.191 193.526, 396.386 192.250 C 395.377 190.649, 392.483 190.481, 362.391 190.273 C 341.280 190.127, 328.873 190.414, 327.750 191.073 M 423.239 207.260 C 413.758 216.754, 406 225.196, 406 226.021 C 406 226.846, 413.877 235.388, 423.503 245.003 C 438.490 259.971, 441.258 262.327, 442.753 261.386 C 446.681 258.912, 445.403 256.927, 429.862 241.362 L 414.524 226 429.762 210.738 C 438.143 202.344, 445 194.784, 445 193.938 C 445 192.168, 443.095 190, 441.539 190 C 440.956 190, 432.721 197.767, 423.239 207.260 M 63.385 199.617 C 55.428 202.439, 48.611 210.342, 46.450 219.250 L 45.783 222 57.892 222 L 70 222 70 210 C 70 196.784, 70.253 197.181, 63.385 199.617 M 78 212.361 C 78 224.206, 77.713 227.145, 76.429 228.429 C 75.145 229.713, 72.206 230, 60.361 230 L 45.865 230 46.525 232.250 C 50.375 245.376, 60.621 253.106, 73.928 252.924 C 84.743 252.776, 93.056 247.578, 97.864 237.957 C 102.232 229.214, 102.238 221.797, 97.883 213.081 C 94.088 205.487, 88.986 201.288, 80.250 198.566 L 78 197.865 78 212.361 M 250.788 199.551 C 236.617 202.987, 221.445 214.281, 214.028 226.914 C 209.781 234.147, 206 245.305, 206 250.605 L 206 254 217.844 254 L 229.687 254 231.381 245.250 C 234.973 226.697, 245.130 211.655, 261.482 200.674 L 265.464 198 260.982 198.083 C 258.517 198.129, 253.930 198.790, 250.788 199.551 M 327.750 223.073 C 325.413 224.444, 325.527 227.677, 327.960 228.979 C 329.243 229.665, 341.208 229.936, 362.601 229.764 C 392.469 229.523, 395.378 229.349, 396.386 227.750 C 397.191 226.474, 397.191 225.526, 396.386 224.250 C 395.377 222.649, 392.483 222.481, 362.391 222.273 C 341.280 222.127, 328.873 222.414, 327.750 223.073 M 327.750 255.073 C 325.413 256.444, 325.527 259.677, 327.960 260.979 C 329.243 261.665, 341.208 261.936, 362.601 261.764 C 392.469 261.523, 395.378 261.349, 396.386 259.750 C 397.191 258.474, 397.191 257.526, 396.386 256.250 C 395.377 254.649, 392.483 254.481, 362.391 254.273 C 341.280 254.127, 328.873 254.414, 327.750 255.073 " stroke="none" fill="black" fill-rule="evenodd"/>
</svg>