<svg xmlns="http://www.w3.org/2000/svg" width="340" height="324" viewBox="0 0 340 324" version="1.1">
	<path d="M 103.571 127.571 C 102.199 128.944, 102 133.890, 102 166.699 L 102 204.255 97.599 200.198 C 92.503 195.500, 86.962 192.459, 81.703 191.472 L 78 190.777 78 175.960 C 78 163.823, 77.716 160.859, 76.429 159.571 C 75.064 158.207, 70.537 158, 42 158 C 13.463 158, 8.936 158.207, 7.571 159.571 C 6.207 160.936, 6 165.463, 6 194 C 6 222.537, 6.207 227.064, 7.571 228.429 C 8.860 229.717, 11.833 230, 24.071 230 L 39 230 39 232.340 C 39 233.627, 40.362 237.406, 42.027 240.738 C 52.663 262.022, 79.525 267.169, 97.100 251.290 C 102.082 246.790, 105.364 241.277, 107.692 233.500 C 109.296 228.142, 109.517 222.238, 109.762 178.340 C 110.007 134.505, 109.864 129.007, 108.447 127.590 C 106.455 125.597, 105.549 125.594, 103.571 127.571 M 135.571 127.571 C 134.175 128.968, 134 136.372, 134 194 C 134 251.628, 134.175 259.032, 135.571 260.429 C 136.436 261.293, 137.529 262, 138 262 C 138.471 262, 139.564 261.293, 140.429 260.429 C 141.825 259.032, 142 251.628, 142 194 C 142 136.372, 141.825 128.968, 140.429 127.571 C 139.564 126.707, 138.471 126, 138 126 C 137.529 126, 136.436 126.707, 135.571 127.571 M 167.315 143.213 C 157.792 152.680, 150 161.134, 150 162 C 150 163.761, 183.994 198, 185.743 198 C 187.180 198, 190 195.185, 190 193.751 C 190 193.143, 183.156 185.750, 174.792 177.323 L 159.584 162 174.792 146.677 C 183.156 138.250, 190 130.857, 190 130.249 C 190 128.815, 187.180 126, 185.743 126 C 185.131 126, 176.838 133.746, 167.315 143.213 M 215.750 127.073 C 213.413 128.444, 213.527 131.677, 215.960 132.979 C 217.243 133.665, 229.208 133.936, 250.601 133.764 C 280.469 133.523, 283.378 133.349, 284.386 131.750 C 285.191 130.474, 285.191 129.526, 284.386 128.250 C 283.377 126.649, 280.483 126.481, 250.391 126.273 C 229.280 126.127, 216.873 126.414, 215.750 127.073 M 215.750 159.073 C 213.413 160.444, 213.527 163.677, 215.960 164.979 C 217.243 165.665, 229.208 165.936, 250.601 165.764 C 280.469 165.523, 283.378 165.349, 284.386 163.750 C 285.191 162.474, 285.191 161.526, 284.386 160.250 C 283.377 158.649, 280.483 158.481, 250.391 158.273 C 229.280 158.127, 216.873 158.414, 215.750 159.073 M 14 194.031 L 14 222.062 26.141 221.781 L 38.282 221.500 39.441 216.929 C 41.961 206.990, 49.620 197.948, 59.360 193.413 C 62.187 192.096, 65.737 191.015, 67.250 191.010 L 70 191 70 178.500 L 70 166 42 166 L 14 166 14 194.031 M 215.750 191.073 C 213.413 192.444, 213.527 195.677, 215.960 196.979 C 217.243 197.665, 229.208 197.936, 250.601 197.764 C 280.469 197.523, 283.378 197.349, 284.386 195.750 C 285.191 194.474, 285.191 193.526, 284.386 192.250 C 283.377 190.649, 280.483 190.481, 250.391 190.273 C 229.280 190.127, 216.873 190.414, 215.750 191.073 M 63.385 199.617 C 55.428 202.439, 48.611 210.342, 46.450 219.250 L 45.783 222 57.892 222 L 70 222 70 210 C 70 196.784, 70.253 197.181, 63.385 199.617 M 78 212.361 C 78 224.206, 77.713 227.145, 76.429 228.429 C 75.145 229.713, 72.206 230, 60.361 230 L 45.865 230 46.525 232.250 C 50.375 245.376, 60.621 253.106, 73.928 252.924 C 84.743 252.776, 93.056 247.578, 97.864 237.957 C 102.232 229.214, 102.238 221.797, 97.883 213.081 C 94.088 205.487, 88.986 201.288, 80.250 198.566 L 78 197.865 78 212.361 M 215.750 223.073 C 213.413 224.444, 213.527 227.677, 215.960 228.979 C 217.243 229.665, 229.208 229.936, 250.601 229.764 C 280.469 229.523, 283.378 229.349, 284.386 227.750 C 285.191 226.474, 285.191 225.526, 284.386 224.250 C 283.377 222.649, 280.483 222.481, 250.391 222.273 C 229.280 222.127, 216.873 222.414, 215.750 223.073 M 311.315 239.213 C 301.792 248.680, 294 257.134, 294 258 C 294 259.680, 327.953 294, 329.615 294 C 331.105 294, 333 291.795, 333 290.062 C 333 289.216, 326.143 281.656, 317.762 273.262 L 302.524 258 317.762 242.738 C 326.143 234.344, 333 226.784, 333 225.938 C 333 224.205, 331.105 222, 329.615 222 C 329.073 222, 320.838 229.746, 311.315 239.213 M 215.750 255.073 C 213.413 256.444, 213.527 259.677, 215.960 260.979 C 217.243 261.665, 229.208 261.936, 250.601 261.764 C 280.469 261.523, 283.378 261.349, 284.386 259.750 C 285.191 258.474, 285.191 257.526, 284.386 256.250 C 283.377 254.649, 280.483 254.481, 250.391 254.273 C 229.280 254.127, 216.873 254.414, 215.750 255.073 " stroke="none" fill="black" fill-rule="evenodd"/>
</svg>