<svg xmlns="http://www.w3.org/2000/svg" width="372" height="324" viewBox="0 0 372 324" version="1.1">
	<path d="M 199.571 127.571 C 198.199 128.944, 198 133.890, 198 166.699 L 198 204.255 193.445 200.056 C 188.576 195.568, 179.942 191.026, 176.250 191.010 C 174.018 191, 174 190.883, 174 176.071 C 174 163.833, 173.717 160.860, 172.429 159.571 C 171.064 158.207, 166.537 158, 138 158 C 109.463 158, 104.936 158.207, 103.571 159.571 C 102.207 160.936, 102 165.463, 102 194 C 102 222.537, 102.207 227.064, 103.571 228.429 C 104.860 229.717, 107.833 230, 120.071 230 L 135 230 135 232.340 C 135 236.275, 140.804 246.565, 145.427 250.826 C 165.708 269.520, 196.359 260.249, 203.877 233.147 C 205.180 228.449, 205.493 219.235, 205.740 178.340 C 206.005 134.487, 205.865 129.008, 204.447 127.590 C 202.455 125.597, 201.549 125.594, 199.571 127.571 M 359.571 127.571 C 358.199 128.944, 358 133.890, 358 166.699 L 358 204.255 353.425 200.038 C 346.253 193.427, 339.107 190.611, 329.500 190.611 C 323 190.611, 320.436 191.099, 315.825 193.216 C 307.965 196.824, 301.618 202.999, 297.800 210.755 C 294.994 216.455, 294.601 218.254, 294.606 225.377 C 294.610 232.002, 295.092 234.547, 297.216 239.175 C 311.545 270.392, 354.625 266.497, 363.877 233.147 C 365.180 228.449, 365.493 219.235, 365.740 178.340 C 366.005 134.487, 365.865 129.008, 364.447 127.590 C 362.455 125.597, 361.549 125.594, 359.571 127.571 M 110 194 L 110 222 122.500 222 L 135 222 135 219.160 C 135 214.734, 140.586 204.637, 145.582 200.031 C 150.680 195.332, 159.116 191.024, 163.250 191.010 L 166 191 166 178.500 L 166 166 138 166 L 110 166 110 194 M 7.571 191.571 C 6.707 192.436, 6 193.640, 6 194.249 C 6 194.857, 12.844 202.250, 21.208 210.677 L 36.416 226 21.208 241.323 C 12.844 249.750, 6 257.143, 6 257.751 C 6 259.181, 8.819 262, 10.249 262 C 10.857 262, 18.250 255.156, 26.677 246.792 L 42 231.584 57.323 246.792 C 65.750 255.156, 73.143 262, 73.751 262 C 75.181 262, 78 259.181, 78 257.751 C 78 257.143, 71.156 249.750, 62.792 241.323 L 47.584 226 62.792 210.677 C 71.156 202.250, 78 194.857, 78 194.249 C 78 192.819, 75.181 190, 73.751 190 C 73.143 190, 65.750 196.844, 57.323 205.208 L 42 220.416 26.677 205.208 C 18.250 196.844, 10.857 190, 10.249 190 C 9.640 190, 8.436 190.707, 7.571 191.571 M 239.308 199.308 C 234.188 204.427, 230 209.120, 230 209.736 C 230 211.121, 232.789 214, 234.131 214 C 234.675 214, 237.568 211.685, 240.560 208.855 L 246 203.710 246 228.855 L 246 254 239.571 254 C 235.061 254, 232.674 254.469, 231.571 255.571 C 229.598 257.545, 229.598 258.455, 231.571 260.429 C 232.876 261.733, 236.009 262, 250 262 C 263.991 262, 267.124 261.733, 268.429 260.429 C 270.402 258.455, 270.402 257.545, 268.429 255.571 C 267.326 254.469, 264.939 254, 260.429 254 L 254 254 254 223.571 C 254 197.242, 253.788 192.931, 252.429 191.571 C 251.564 190.707, 250.353 190, 249.736 190 C 249.120 190, 244.427 194.188, 239.308 199.308 M 159.385 199.617 C 151.428 202.439, 144.611 210.342, 142.450 219.250 L 141.783 222 153.892 222 L 166 222 166 210 C 166 196.784, 166.253 197.181, 159.385 199.617 M 174 212.361 C 174 224.206, 173.713 227.145, 172.429 228.429 C 171.145 229.713, 168.206 230, 156.361 230 L 141.865 230 142.552 232.250 C 145.113 240.634, 150.364 247.023, 157.533 250.478 C 163.097 253.159, 172.591 253.629, 178.895 251.535 C 184.800 249.574, 191.619 243.428, 194.467 237.500 C 197.158 231.900, 197.632 222.417, 195.535 216.105 C 192.847 208.014, 185.584 201.403, 176.250 198.552 L 174 197.865 174 212.361 M 319.054 199.728 C 313.018 201.859, 305.781 209.260, 303.667 215.463 C 300.117 225.882, 302.321 237.066, 309.347 244.280 C 314.744 249.822, 320.047 252.291, 327.659 252.805 C 339.162 253.582, 349.604 247.621, 354.467 237.500 C 357.171 231.874, 357.632 222.419, 355.514 216.042 C 353.290 209.346, 345.926 201.844, 339.392 199.618 C 333.504 197.612, 324.916 197.658, 319.054 199.728 " stroke="none" fill="black" fill-rule="evenodd"/>
</svg>