<svg xmlns="http://www.w3.org/2000/svg" width="276" height="324" viewBox="0 0 276 324" version="1.1">
	<path d="M 71.571 127.571 C 70.288 128.855, 70 131.788, 70 143.571 L 70 158 55.200 158 C 45.022 158, 40.025 158.375, 39.200 159.200 C 38.324 160.076, 38 167.956, 38 188.402 L 38 216.405 24.667 203.202 C 17.334 195.941, 10.841 190, 10.239 190 C 8.799 190, 6 192.831, 6 194.287 C 6 196.056, 72.253 262, 74.030 262 C 77.510 262, 78 259.878, 78 244.800 L 78 230 92.800 230 C 102.978 230, 107.975 229.625, 108.800 228.800 C 110.519 227.081, 110.519 160.919, 108.800 159.200 C 107.975 158.375, 102.978 158, 92.800 158 L 78 158 78 143.571 C 78 131.788, 77.712 128.855, 76.429 127.571 C 75.564 126.707, 74.471 126, 74 126 C 73.529 126, 72.436 126.707, 71.571 127.571 M 263.571 127.571 C 262.219 128.924, 262 132.988, 262 156.774 L 262 184.405 248.667 171.202 C 241.334 163.941, 234.841 158, 234.239 158 C 232.822 158, 230 160.822, 230 162.239 C 230 162.841, 235.941 169.334, 243.202 176.667 L 256.405 190 196.774 190 C 143.897 190, 136.965 190.178, 135.571 191.571 C 133.598 193.545, 133.598 194.455, 135.571 196.429 C 136.965 197.822, 143.897 198, 196.774 198 L 256.405 198 243.202 211.333 C 235.941 218.666, 230 225.159, 230 225.761 C 230 227.178, 232.822 230, 234.239 230 C 234.841 230, 241.334 224.059, 248.667 216.798 L 262 203.595 262 231.226 C 262 255.012, 262.219 259.076, 263.571 260.429 C 264.436 261.293, 265.529 262, 266 262 C 266.471 262, 267.564 261.293, 268.429 260.429 C 269.825 259.032, 270 251.628, 270 194 C 270 136.372, 269.825 128.968, 268.429 127.571 C 267.564 126.707, 266.471 126, 266 126 C 265.529 126, 264.436 126.707, 263.571 127.571 M 46 194 L 46 222 58 222 L 70 222 70 194 L 70 166 58 166 L 46 166 46 194 M 78 194 L 78 222 90 222 L 102 222 102 194 L 102 166 90 166 L 78 166 78 194 M 60.500 239 C 65.427 243.950, 69.580 248, 69.729 248 C 69.878 248, 70 243.950, 70 239 L 70 230 60.771 230 L 51.542 230 60.500 239 " stroke="none" fill="black" fill-rule="evenodd"/>
</svg>