<svg xmlns="http://www.w3.org/2000/svg" width="436" height="324" viewBox="0 0 436 324" version="1.1">
	<path d="M 198.571 127.571 C 197.640 128.503, 197 130.860, 197 133.361 C 197 135.681, 196.318 140.262, 195.485 143.540 C 191.102 160.782, 179.300 175.455, 163.899 182.809 C 152.298 188.349, 140 190.782, 140 187.538 C 140 182.944, 135.319 174.159, 130.080 168.920 C 120.174 159.014, 105.842 155.941, 92.798 160.928 C 82.382 164.910, 73.013 175.810, 71.415 185.807 L 70.744 190 39.944 190 C 13.276 190, 8.932 190.211, 7.571 191.571 C 5.598 193.545, 5.598 194.455, 7.571 196.429 C 8.969 197.827, 16.707 198, 77.677 198 C 153.944 198, 152.151 197.861, 165.500 204.820 C 175.337 209.948, 185.612 220.387, 190.330 230.046 C 194.578 238.744, 197 247.494, 197 254.139 C 197 258.531, 198.742 262, 200.949 262 C 203.096 262, 204.311 258.526, 204.110 252.962 C 203.260 229.388, 185.445 204.528, 162.896 195.450 L 158.293 193.597 167.344 189.172 C 184.265 180.901, 197.783 164.118, 202.490 145.540 C 205.034 135.500, 204.247 126, 200.871 126 C 200.471 126, 199.436 126.707, 198.571 127.571 M 295.571 127.571 C 294.707 128.436, 294 129.640, 294 130.249 C 294 130.857, 300.852 138.258, 309.226 146.695 L 324.452 162.036 294.985 191.515 L 265.518 220.995 249.997 205.497 C 241.461 196.974, 234.177 190, 233.810 190 C 232.731 190, 230 193.046, 230 194.249 C 230 194.857, 236.844 202.250, 245.208 210.677 L 260.416 226 245.208 241.323 C 236.844 249.750, 230 257.143, 230 257.751 C 230 258.967, 232.736 262, 233.834 262 C 234.213 262, 241.482 255.031, 249.987 246.514 L 265.449 231.027 281.045 246.514 C 289.623 255.031, 297.082 262, 297.621 262 C 299.106 262, 301 259.793, 301 258.062 C 301 257.216, 294.145 249.657, 285.766 241.266 L 270.532 226.008 300.028 196.510 L 329.524 167.012 358.988 196.488 L 388.452 225.964 373.226 241.305 C 364.852 249.742, 358 257.143, 358 257.751 C 358 258.967, 360.736 262, 361.834 262 C 362.213 262, 369.482 255.031, 377.987 246.514 L 393.449 231.027 409.045 246.514 C 417.623 255.031, 425.082 262, 425.621 262 C 427.106 262, 429 259.793, 429 258.062 C 429 257.216, 422.143 249.656, 413.762 241.262 L 398.524 226 413.762 210.738 C 422.143 202.344, 429 194.784, 429 193.938 C 429 192.207, 427.106 190, 425.621 190 C 425.082 190, 417.626 196.966, 409.052 205.479 L 393.463 220.959 363.995 191.478 L 334.527 161.997 349.763 146.737 C 358.144 138.344, 365 130.784, 365 129.938 C 365 128.207, 363.106 126, 361.621 126 C 361.082 126, 353.623 132.969, 345.045 141.486 L 329.449 156.973 313.987 141.486 C 305.482 132.969, 298.213 126, 297.834 126 C 297.454 126, 296.436 126.707, 295.571 127.571 M 95.385 167.617 C 89.552 169.686, 83.605 175.144, 80.588 181.199 C 75.894 190.620, 74.133 190, 105.608 190 L 133.217 190 132.550 187.250 C 130.335 178.120, 123.528 170.390, 115.205 167.554 C 109.596 165.643, 100.873 165.671, 95.385 167.617 " stroke="none" fill="black" fill-rule="evenodd"/>
</svg>