<svg xmlns="http://www.w3.org/2000/svg" width="244" height="324" viewBox="0 0 244 324" version="1.1">
	<path d="M 151.571 63.571 C 150.707 64.436, 150 65.317, 150 65.531 C 150 66.316, 167.159 100.529, 167.965 101.349 C 170.275 103.702, 172.913 100.229, 180.760 84.501 C 185.292 75.417, 189 67.143, 189 66.115 C 189 63.636, 186.673 61.805, 184.555 62.617 C 183.620 62.976, 180.076 69.046, 176.678 76.106 C 173.280 83.166, 170.259 88.956, 169.964 88.971 C 169.669 88.987, 166.969 83.984, 163.964 77.854 C 158.437 66.580, 155.559 62, 153.999 62 C 153.528 62, 152.436 62.707, 151.571 63.571 M 159.500 127.042 C 141.239 129.820, 123.711 141.198, 113.012 157.221 C 97.569 180.345, 99.121 212.740, 116.724 234.742 C 130.219 251.610, 148.253 260.349, 169.500 260.319 C 188.240 260.292, 203.028 254.065, 216.500 240.527 C 229.805 227.157, 236 212.218, 236 193.500 C 236 174.782, 229.805 159.843, 216.500 146.473 C 201.166 131.065, 180.150 123.901, 159.500 127.042 M 153.345 135.904 C 142.677 138.957, 136.033 142.962, 127.479 151.497 C 115.121 163.828, 110 176.133, 110 193.500 C 110 210.512, 115.128 223.074, 126.993 235.125 C 138.822 247.141, 152.541 253, 168.845 253 C 179.674 253, 185.916 251.576, 195.820 246.847 C 220.843 234.900, 234.032 205.996, 227.003 178.511 C 222.717 161.754, 211.079 147.438, 195.820 140.153 C 191.244 137.968, 185.115 135.690, 182.201 135.090 C 174.350 133.475, 160.464 133.867, 153.345 135.904 M 161.500 159.364 C 150.686 162.127, 141.933 169.360, 137.417 179.266 C 133.446 187.975, 133.356 198.913, 137.189 207.175 C 147.823 230.103, 176.384 235.724, 193.777 218.313 C 201.474 210.608, 203.500 205.439, 203.500 193.500 C 203.500 181.367, 201.450 176.286, 193.353 168.339 C 185.063 160.205, 172.292 156.606, 161.500 159.364 M 159.627 167.468 C 154.247 169.386, 149.039 173.829, 145.500 179.519 C 141.527 185.908, 140.712 197.311, 143.741 204.129 C 148.181 214.120, 156.127 219.919, 166.521 220.754 C 178.446 221.711, 188.036 216.794, 193.500 206.921 C 196.132 202.166, 196.500 200.518, 196.500 193.500 C 196.500 186.487, 196.130 184.829, 193.500 180.061 C 190.429 174.492, 184.651 169.526, 178.684 167.326 C 174.327 165.720, 164.323 165.794, 159.627 167.468 M 7.571 191.571 C 6.707 192.436, 6 193.529, 6 194 C 6 194.471, 6.707 195.564, 7.571 196.429 C 8.936 197.793, 13.463 198, 42 198 C 70.537 198, 75.064 197.793, 76.429 196.429 C 77.293 195.564, 78 194.471, 78 194 C 78 193.529, 77.293 192.436, 76.429 191.571 C 75.064 190.207, 70.537 190, 42 190 C 13.463 190, 8.936 190.207, 7.571 191.571 M 167.616 191.527 C 166.727 192.416, 166 193.529, 166 194 C 166 195.389, 169.140 198.120, 170.295 197.735 C 172.395 197.035, 173.549 194.094, 172.423 192.310 C 170.905 189.902, 169.474 189.669, 167.616 191.527 " stroke="none" fill="black" fill-rule="evenodd"/>
</svg>