<svg xmlns="http://www.w3.org/2000/svg" width="403" height="324" viewBox="0 0 403 324" version="1.1">
	<path d="M 35.045 127.064 C 24.684 129.162, 14.828 136.537, 10.162 145.682 C 8.551 148.840, 6 158.911, 6 162.112 C 6 163.136, 8.947 166, 10 166 C 11.912 166, 14 162.663, 14 159.607 C 14 149.949, 22.088 138.862, 31.463 135.667 C 41.044 132.403, 52.075 134.141, 59.235 140.042 C 63.997 143.968, 69 153.984, 69 159.594 C 69 169.625, 63.665 187.762, 56.594 201.768 C 47.178 220.418, 32.036 237.486, 15.134 248.500 C 7.181 253.683, 5.966 254.840, 6.214 257 C 6.621 260.559, 9.973 260.690, 15.180 257.350 C 46.953 236.970, 67.504 207.187, 74.927 170.766 C 77.141 159.905, 76.541 153.669, 72.483 145.375 C 66.120 132.370, 49.350 124.167, 35.045 127.064 M 167.571 127.571 C 166.198 128.945, 166 133.909, 166 166.900 L 166 204.657 161.358 200.210 C 153.252 192.442, 141.607 188.908, 131.198 191.056 C 123.730 192.597, 118.772 195.198, 112.987 200.608 C 98.895 213.791, 98.895 237.209, 112.987 250.392 C 115.588 252.824, 119.467 255.704, 121.608 256.791 C 137.464 264.846, 157.116 259.403, 166.829 244.266 C 172.645 235.202, 172.969 231.691, 172.985 177.450 C 173 129.012, 172.818 126, 169.871 126 C 169.471 126, 168.436 126.707, 167.571 127.571 M 262.612 128.250 C 261.823 129.488, 246.852 159.187, 229.343 194.249 C 203.084 246.834, 197.702 258.304, 198.613 259.749 C 199.630 261.361, 202.404 261.500, 233.500 261.500 C 264.586 261.500, 267.370 261.360, 268.386 259.750 C 269.191 258.474, 269.191 257.526, 268.386 256.250 C 267.382 254.658, 264.615 254.476, 237.678 254.235 L 208.073 253.970 236.485 196.960 C 252.112 165.604, 265.233 139.917, 265.643 139.877 C 266.053 139.838, 280.139 167.187, 296.944 200.653 L 327.500 261.500 360.290 261.764 C 381.759 261.936, 393.757 261.665, 395.040 260.979 C 397.551 259.635, 397.565 256.373, 395.066 255.035 C 393.852 254.386, 381.641 254, 362.302 254 L 331.472 254 299.986 190.952 C 282.669 156.275, 268.072 127.475, 267.550 126.952 C 265.981 125.380, 264.131 125.867, 262.612 128.250 M 127.627 199.468 C 122.247 201.386, 117.039 205.829, 113.500 211.519 C 109.527 217.908, 108.712 229.311, 111.741 236.129 C 116.181 246.120, 124.127 251.919, 134.521 252.754 C 146.446 253.711, 156.036 248.794, 161.500 238.921 C 164.132 234.166, 164.500 232.518, 164.500 225.500 C 164.500 218.487, 164.130 216.829, 161.500 212.061 C 158.429 206.492, 152.651 201.526, 146.684 199.326 C 142.327 197.720, 132.323 197.794, 127.627 199.468 " stroke="none" fill="black" fill-rule="evenodd"/>
</svg>