<svg xmlns="http://www.w3.org/2000/svg" width="372" height="324" viewBox="0 0 372 324" version="1.1">
	<path d="M 72.372 62.765 C 70.418 64.037, 54.003 97.844, 54.593 99.381 C 55.268 101.141, 57.513 102.124, 59.295 101.440 C 60.007 101.167, 63.480 95.106, 67.014 87.972 C 70.547 80.837, 73.691 75, 74 75 C 74.309 75, 77.453 80.837, 80.986 87.972 C 84.520 95.106, 87.993 101.167, 88.705 101.440 C 90.487 102.124, 92.732 101.141, 93.407 99.381 C 93.716 98.575, 90.096 90.173, 85.363 80.708 C 77.638 65.261, 75.672 62.031, 74 62.031 C 73.725 62.031, 72.992 62.361, 72.372 62.765 M 35.045 127.092 C 24.744 129.112, 14.837 136.518, 10.151 145.705 C 7.418 151.062, 5.668 161.129, 6.945 164.147 C 7.492 165.441, 8.820 170.325, 9.895 175 C 15.658 200.055, 28.427 222.633, 46.717 240.107 C 56.009 248.984, 71.181 260, 74.117 260 C 77.343 260, 97.892 244.006, 106.315 234.940 C 123.254 216.706, 134.286 194.893, 139.417 169.483 C 140.690 163.183, 140.816 160.292, 140.004 155.983 C 135.594 132.555, 112.327 120.242, 90.616 129.845 C 85.222 132.232, 79.372 137.363, 76.005 142.662 L 73.360 146.824 71.503 143.377 C 69.181 139.064, 62.418 132.764, 57.318 130.162 C 55.183 129.073, 50.781 127.691, 47.535 127.091 C 40.969 125.877, 41.243 125.877, 35.045 127.092 M 31.054 135.728 C 24.820 137.929, 17.726 145.300, 15.557 151.828 C 14.045 156.381, 13.979 157.954, 15.032 164.270 C 20.746 198.525, 39.651 228.764, 67.165 247.660 L 73.830 252.237 81.654 246.869 C 91.636 240.019, 104.997 226.670, 111.815 216.732 C 122.428 201.263, 131.249 178.930, 132.635 164.020 C 134.570 143.192, 115.675 128.780, 95.463 135.667 C 86.088 138.862, 78 149.949, 78 159.607 C 78 162.970, 75.867 166, 73.500 166 C 71.133 166, 69 162.970, 69 159.607 C 69 149.949, 60.912 138.862, 51.537 135.667 C 45.516 133.616, 36.964 133.641, 31.054 135.728 M 263.571 159.571 C 262.227 160.916, 262 164.736, 262 186 C 262 207.264, 262.227 211.084, 263.571 212.429 C 264.436 213.293, 265.529 214, 266 214 C 266.471 214, 267.564 213.293, 268.429 212.429 C 269.773 211.084, 270 207.264, 270 186 C 270 164.736, 269.773 160.916, 268.429 159.571 C 267.564 158.707, 266.471 158, 266 158 C 265.529 158, 264.436 158.707, 263.571 159.571 M 295.571 159.571 C 294.227 160.916, 294 164.736, 294 186 C 294 207.264, 294.227 211.084, 295.571 212.429 C 296.436 213.293, 297.529 214, 298 214 C 298.471 214, 299.564 213.293, 300.429 212.429 C 301.773 211.084, 302 207.264, 302 186 C 302 164.736, 301.773 160.916, 300.429 159.571 C 299.564 158.707, 298.471 158, 298 158 C 297.529 158, 296.436 158.707, 295.571 159.571 M 327.571 159.571 C 326.227 160.916, 326 164.736, 326 186 C 326 207.264, 326.227 211.084, 327.571 212.429 C 328.436 213.293, 329.529 214, 330 214 C 330.471 214, 331.564 213.293, 332.429 212.429 C 333.773 211.084, 334 207.264, 334 186 C 334 164.736, 333.773 160.916, 332.429 159.571 C 331.564 158.707, 330.471 158, 330 158 C 329.529 158, 328.436 158.707, 327.571 159.571 M 167.571 191.571 C 166.707 192.436, 166 193.529, 166 194 C 166 194.471, 166.707 195.564, 167.571 196.429 C 168.936 197.793, 173.463 198, 202 198 C 230.537 198, 235.064 197.793, 236.429 196.429 C 237.293 195.564, 238 194.471, 238 194 C 238 193.529, 237.293 192.436, 236.429 191.571 C 235.064 190.207, 230.537 190, 202 190 C 173.463 190, 168.936 190.207, 167.571 191.571 M 263.571 222.571 C 262.707 223.436, 262 224.529, 262 225 C 262 226.111, 264.889 229, 266 229 C 267.111 229, 270 226.111, 270 225 C 270 223.889, 267.111 221, 266 221 C 265.529 221, 264.436 221.707, 263.571 222.571 M 295.571 222.571 C 294.707 223.436, 294 224.529, 294 225 C 294 226.111, 296.889 229, 298 229 C 299.111 229, 302 226.111, 302 225 C 302 223.889, 299.111 221, 298 221 C 297.529 221, 296.436 221.707, 295.571 222.571 M 327.571 222.571 C 326.707 223.436, 326 224.529, 326 225 C 326 226.111, 328.889 229, 330 229 C 331.111 229, 334 226.111, 334 225 C 334 223.889, 331.111 221, 330 221 C 329.529 221, 328.436 221.707, 327.571 222.571 " stroke="none" fill="black" fill-rule="evenodd"/>
</svg>