<svg xmlns="http://www.w3.org/2000/svg" width="244" height="324" viewBox="0 0 244 324" version="1.1">
	<path d="M 72.316 62.784 C 70.369 64.022, 54.007 97.855, 54.604 99.410 C 55.269 101.144, 57.524 102.120, 59.295 101.440 C 60.007 101.167, 63.480 95.106, 67.014 87.972 C 70.547 80.837, 73.691 75, 74 75 C 74.309 75, 77.453 80.837, 80.986 87.972 C 84.520 95.106, 88.050 101.189, 88.832 101.489 C 90.716 102.212, 93 100.227, 93 97.866 C 93 95.626, 77.264 63.831, 75.628 62.765 C 74.214 61.845, 73.789 61.847, 72.316 62.784 M 7.571 127.571 C 6.707 128.436, 6 129.529, 6 130 C 6 131.111, 8.889 134, 10 134 C 11.111 134, 14 131.111, 14 130 C 14 128.889, 11.111 126, 10 126 C 9.529 126, 8.436 126.707, 7.571 127.571 M 71.571 159.571 C 70.707 160.436, 70 161.529, 70 162 C 70 163.068, 72.871 166, 73.916 166 C 74.342 166, 75.505 165.100, 76.500 164 C 78.247 162.070, 78.247 161.930, 76.500 160 C 74.318 157.589, 73.615 157.528, 71.571 159.571 M 135.616 159.527 C 134.727 160.416, 134 161.529, 134 162 C 134 163.389, 137.140 166.120, 138.295 165.735 C 140.395 165.035, 141.549 162.094, 140.423 160.310 C 138.905 157.902, 137.474 157.669, 135.616 159.527 M 131.500 174.664 C 120.765 176.208, 111.212 180.650, 104.250 187.335 C 99.486 191.910, 99.367 192.224, 101.571 194.429 C 103.766 196.623, 104.488 196.447, 108.747 192.681 C 117.879 184.606, 126.574 181.592, 139.021 182.187 C 146.692 182.553, 148.786 183.084, 155.344 186.325 C 160.332 188.791, 163.933 191.390, 166.034 194.043 C 174.760 205.060, 192.431 211.386, 207.750 208.977 C 219.868 207.071, 236.509 197.440, 235.805 192.740 C 235.178 188.551, 232.558 188.409, 227.803 192.305 C 220.517 198.276, 212.710 201.317, 203.409 201.807 C 190.086 202.510, 179.641 198.480, 172.054 189.708 C 163.348 179.643, 144.779 172.755, 131.500 174.664 M 7.571 191.571 C 6.707 192.436, 6 193.529, 6 194 C 6 195.111, 8.889 198, 10 198 C 11.111 198, 14 195.111, 14 194 C 14 192.889, 11.111 190, 10 190 C 9.529 190, 8.436 190.707, 7.571 191.571 M 71.571 223.571 C 70.707 224.436, 70 225.529, 70 226 C 70 227.068, 72.871 230, 73.916 230 C 74.342 230, 75.505 229.100, 76.500 228 C 78.247 226.070, 78.247 225.930, 76.500 224 C 74.318 221.589, 73.615 221.528, 71.571 223.571 M 135.616 223.527 C 134.727 224.416, 134 225.529, 134 226 C 134 227.389, 137.140 230.120, 138.295 229.735 C 140.395 229.035, 141.549 226.094, 140.423 224.310 C 138.905 221.902, 137.474 221.669, 135.616 223.527 M 7.571 255.571 C 6.707 256.436, 6 257.529, 6 258 C 6 259.111, 8.889 262, 10 262 C 11.111 262, 14 259.111, 14 258 C 14 256.889, 11.111 254, 10 254 C 9.529 254, 8.436 254.707, 7.571 255.571 " stroke="none" fill="black" fill-rule="evenodd"/>
</svg>