<svg xmlns="http://www.w3.org/2000/svg" width="436" height="324" viewBox="0 0 436 324" version="1.1">
	<path d="M 327.250 159.237 L 294 192.511 294 226.056 C 294 250.812, 294.314 259.914, 295.200 260.800 C 296.607 262.207, 425.589 262.548, 427.791 261.150 C 428.804 260.507, 429.082 253.033, 429.082 226.406 L 429.082 192.482 396.049 159.491 C 377.880 141.346, 362.449 126.379, 361.757 126.232 C 361.066 126.084, 345.538 140.936, 327.250 159.237 M 331.744 164.756 L 302 194.512 302 224.256 L 302 254 362 254 L 422 254 422 224.744 L 422 195.488 391.744 165.244 L 361.488 135 331.744 164.756 M 39.571 159.571 C 38.707 160.436, 38 161.529, 38 162 C 38 163.111, 40.889 166, 42 166 C 43.111 166, 46 163.111, 46 162 C 46 160.889, 43.111 158, 42 158 C 41.529 158, 40.436 158.707, 39.571 159.571 M 7.571 191.571 C 6.707 192.436, 6 193.529, 6 194 C 6 194.471, 6.707 195.564, 7.571 196.429 C 8.936 197.793, 13.463 198, 42 198 C 70.537 198, 75.064 197.793, 76.429 196.429 C 77.293 195.564, 78 194.471, 78 194 C 78 193.529, 77.293 192.436, 76.429 191.571 C 75.064 190.207, 70.537 190, 42 190 C 13.463 190, 8.936 190.207, 7.571 191.571 M 103.571 191.571 C 102.707 192.436, 102 193.640, 102 194.249 C 102 194.857, 108.844 202.250, 117.208 210.677 L 132.416 226 117.208 241.323 C 108.844 249.750, 102 257.143, 102 257.751 C 102 259.181, 104.819 262, 106.249 262 C 106.857 262, 114.250 255.156, 122.677 246.792 L 138 231.584 153.323 246.792 C 161.750 255.156, 169.143 262, 169.751 262 C 171.181 262, 174 259.181, 174 257.751 C 174 257.143, 167.156 249.750, 158.792 241.323 L 143.584 226 158.792 210.677 C 167.156 202.250, 174 194.857, 174 194.249 C 174 192.819, 171.181 190, 169.751 190 C 169.143 190, 161.750 196.844, 153.323 205.208 L 138 220.416 122.677 205.208 C 114.250 196.844, 106.857 190, 106.249 190 C 105.640 190, 104.436 190.707, 103.571 191.571 M 199.571 191.571 C 198.707 192.436, 198 193.640, 198 194.249 C 198 194.857, 204.844 202.250, 213.208 210.677 L 228.416 226 213.208 241.323 C 204.844 249.750, 198 257.143, 198 257.751 C 198 259.181, 200.819 262, 202.249 262 C 202.857 262, 210.250 255.156, 218.677 246.792 L 234 231.584 249.323 246.792 C 257.750 255.156, 265.085 262, 265.623 262 C 267.244 262, 269 259.725, 269 257.625 C 269 256.420, 263.267 249.871, 254.293 240.825 L 239.586 226 254.293 211.175 C 263.267 202.129, 269 195.580, 269 194.375 C 269 192.275, 267.244 190, 265.623 190 C 265.085 190, 257.750 196.844, 249.323 205.208 L 234 220.416 218.677 205.208 C 210.250 196.844, 202.857 190, 202.249 190 C 201.640 190, 200.436 190.707, 199.571 191.571 M 39.571 223.571 C 38.707 224.436, 38 225.529, 38 226 C 38 227.111, 40.889 230, 42 230 C 43.111 230, 46 227.111, 46 226 C 46 224.889, 43.111 222, 42 222 C 41.529 222, 40.436 222.707, 39.571 223.571 " stroke="none" fill="black" fill-rule="evenodd"/>
</svg>