<svg xmlns="http://www.w3.org/2000/svg" width="244" height="324" viewBox="0 0 244 324" version="1.1">
	<path d="M 166.750 127.080 C 165.514 127.800, 165 129.359, 165 132.390 C 165 139.079, 161.370 151.641, 157.340 158.899 C 152.248 168.070, 142.318 177.593, 133 182.241 C 124.568 186.448, 115.641 189, 109.361 189 C 106.860 189, 104.503 189.640, 103.571 190.571 C 101.587 192.556, 101.597 193.454, 103.627 195.485 C 106.840 198.697, 124.038 195.139, 136.500 188.683 C 145.952 183.786, 158.030 172.472, 162.851 164 L 165.981 158.500 165.991 206.250 L 166 254 135.571 254 C 109.242 254, 104.931 254.212, 103.571 255.571 C 101.596 257.546, 101.598 258.455, 103.579 260.436 C 104.990 261.847, 112.058 261.987, 170.220 261.757 C 230.934 261.517, 235.356 261.383, 236.386 259.750 C 237.191 258.474, 237.191 257.526, 236.386 256.250 C 235.381 254.655, 232.566 254.477, 204.641 254.236 L 174 253.971 174 207.749 L 174 161.527 177.537 166.778 C 185.280 178.276, 198.540 188.541, 211.340 192.945 C 219.955 195.909, 233.523 197.641, 235.470 196.025 C 237.303 194.504, 237.453 191.853, 235.800 190.200 C 235.140 189.540, 232.553 188.993, 230.050 188.985 C 223.143 188.963, 213.797 186.425, 205.746 182.386 C 188.191 173.578, 174 151.888, 174 133.861 C 174 127.266, 171.095 124.549, 166.750 127.080 M 39.571 159.571 C 38.707 160.436, 38 161.529, 38 162 C 38 163.111, 40.889 166, 42 166 C 43.111 166, 46 163.111, 46 162 C 46 160.889, 43.111 158, 42 158 C 41.529 158, 40.436 158.707, 39.571 159.571 M 7.571 191.571 C 6.707 192.436, 6 193.529, 6 194 C 6 194.471, 6.707 195.564, 7.571 196.429 C 8.936 197.793, 13.463 198, 42 198 C 70.537 198, 75.064 197.793, 76.429 196.429 C 77.293 195.564, 78 194.471, 78 194 C 78 193.529, 77.293 192.436, 76.429 191.571 C 75.064 190.207, 70.537 190, 42 190 C 13.463 190, 8.936 190.207, 7.571 191.571 M 39.571 223.571 C 38.707 224.436, 38 225.529, 38 226 C 38 227.111, 40.889 230, 42 230 C 43.111 230, 46 227.111, 46 226 C 46 224.889, 43.111 222, 42 222 C 41.529 222, 40.436 222.707, 39.571 223.571 " stroke="none" fill="black" fill-rule="evenodd"/>
</svg>