<svg xmlns="http://www.w3.org/2000/svg" width="148" height="324" viewBox="0 0 148 324" version="1.1">
	<path d="M 72.316 62.784 C 70.369 64.022, 54.007 97.855, 54.604 99.410 C 55.450 101.615, 58.110 102.210, 59.895 100.594 C 60.778 99.795, 64.185 93.709, 67.467 87.070 C 70.748 80.432, 73.687 75, 73.997 75 C 74.308 75, 77.453 80.837, 80.986 87.972 C 84.520 95.106, 88.050 101.189, 88.832 101.489 C 90.716 102.212, 93 100.227, 93 97.866 C 93 95.626, 77.264 63.831, 75.628 62.765 C 74.214 61.845, 73.789 61.847, 72.316 62.784 M 105.477 157.039 L 74.380 188.078 72.441 185.935 C 71.375 184.757, 68.687 182.729, 66.468 181.429 C 52.685 173.351, 35.872 172.411, 21.527 178.915 C 13.729 182.451, 4.773 190.415, 5.204 193.430 C 5.738 197.166, 9.662 196.567, 14.627 191.990 C 21.599 185.563, 28.781 182.756, 39.500 182.266 C 46.712 181.937, 49.639 182.255, 54.233 183.868 C 59.769 185.811, 69 191.381, 69 192.778 C 69 193.152, 54.825 207.659, 37.500 225.016 C 20.175 242.372, 6 257.086, 6 257.715 C 6 259.200, 8.812 262, 10.304 262 C 10.942 262, 25.627 247.837, 42.937 230.527 L 74.410 199.055 78.998 201.999 C 92.600 210.727, 110.063 211.837, 124.943 204.920 C 137.310 199.170, 142.761 192.748, 137.873 189.685 C 136.605 188.890, 135.264 189.469, 131.803 192.305 C 120.704 201.400, 105.950 204.330, 92.329 200.144 C 88.573 198.990, 84.150 196.935, 82.500 195.578 L 79.500 193.110 110.250 162.299 C 127.162 145.353, 141 130.793, 141 129.944 C 141 128.192, 139.103 126, 137.587 126 C 137.029 126, 122.580 139.968, 105.477 157.039 " stroke="none" fill="black" fill-rule="evenodd"/>
</svg>