<svg xmlns="http://www.w3.org/2000/svg" width="244" height="324" viewBox="0 0 244 324" version="1.1">
	<path d="M 39.267 159.267 C 20.970 177.563, 6 193.056, 6 193.695 C 6 194.334, 6.707 195.564, 7.571 196.429 C 8.924 197.781, 12.990 198, 36.799 198 L 64.455 198 35.227 227.289 C 19.152 243.398, 6 257.091, 6 257.718 C 6 259.201, 8.814 262, 10.305 262 C 11.823 262, 78 195.823, 78 194.305 C 78 193.666, 77.293 192.436, 76.429 191.571 C 75.076 190.219, 71.010 190, 47.201 190 L 19.545 190 48.773 160.711 C 64.848 144.602, 78 130.909, 78 130.282 C 78 128.799, 75.186 126, 73.695 126 C 73.056 126, 57.563 140.970, 39.267 159.267 M 159.102 127.104 C 134.833 130.792, 112.901 149.594, 105.591 172.979 C 103.071 181.041, 101.488 192.502, 102.522 195.197 C 103.484 197.703, 106.074 198.243, 108.145 196.369 C 109.493 195.149, 110 193.287, 110 189.555 C 110 165.880, 130.554 141.326, 155.246 135.504 C 187.517 127.895, 219.887 147.846, 227.443 180 C 228.283 183.575, 228.977 188.622, 228.985 191.215 C 228.997 194.946, 229.431 196.160, 231.064 197.034 C 238.863 201.208, 237.093 178.561, 228.303 161.700 C 225.753 156.809, 221.954 151.890, 216.457 146.361 C 209.703 139.568, 206.806 137.478, 198.933 133.719 C 193.745 131.242, 187.475 128.743, 185 128.165 C 177.972 126.523, 166.123 126.038, 159.102 127.104 " stroke="none" fill="black" fill-rule="evenodd"/>
</svg>