<svg xmlns="http://www.w3.org/2000/svg" width="244" height="324" viewBox="0 0 244 324" version="1.1">
	<path d="M 33.384 159.412 C 15.407 163.774, 3.534 181.789, 7.006 199.434 C 9.076 209.959, 15.005 218.575, 23.673 223.654 C 28.824 226.673, 41.869 230.124, 44 229.032 C 44.825 228.609, 47.300 227.941, 49.500 227.548 C 59.453 225.767, 70.142 216.481, 74.072 206.202 C 81.691 186.273, 69.979 164.264, 49.147 159.360 C 42.397 157.772, 40.111 157.779, 33.384 159.412 M 199.750 159.080 C 198.155 160.009, 198 162.388, 198 186.015 C 198 211.174, 198.060 211.962, 200.064 213.034 C 201.596 213.854, 202.498 213.832, 203.564 212.947 C 204.744 211.968, 205 207.174, 205 186.078 C 205 157.906, 204.671 156.214, 199.750 159.080 M 31.054 167.728 C 25.018 169.859, 17.781 177.260, 15.667 183.463 C 10.058 199.925, 18.847 216.571, 35.250 220.550 L 38 221.217 38 193.608 C 38 172.146, 37.722 166.018, 36.750 166.079 C 36.063 166.122, 33.499 166.864, 31.054 167.728 M 46 193.433 C 46 208.595, 46.168 221, 46.374 221 C 46.580 221, 48.646 220.331, 50.965 219.512 C 57.653 217.153, 62.596 212.567, 66.080 205.488 C 68.890 199.782, 69.186 198.354, 68.817 192.295 C 68.028 179.334, 60.904 170.417, 48.250 166.552 L 46 165.865 46 193.433 M 103.585 191.558 C 102.713 192.430, 102 193.529, 102 194 C 102 194.471, 102.713 195.570, 103.585 196.442 C 104.978 197.835, 109.159 197.995, 138.226 197.763 C 168.452 197.523, 171.377 197.350, 172.386 195.750 C 173.191 194.474, 173.191 193.526, 172.386 192.250 C 171.377 190.650, 168.452 190.477, 138.226 190.237 C 109.159 190.005, 104.978 190.165, 103.585 191.558 M 199.750 222.080 C 197.372 223.465, 197.542 226.685, 200.064 228.034 C 203.753 230.008, 206.819 225.219, 203.800 222.200 C 202.367 220.767, 202.022 220.757, 199.750 222.080 M 7.571 255.571 C 6.707 256.436, 6 257.529, 6 258 C 6 258.471, 6.707 259.564, 7.571 260.429 C 8.936 261.793, 13.463 262, 42 262 C 70.537 262, 75.064 261.793, 76.429 260.429 C 77.293 259.564, 78 258.471, 78 258 C 78 257.529, 77.293 256.436, 76.429 255.571 C 75.064 254.207, 70.537 254, 42 254 C 13.463 254, 8.936 254.207, 7.571 255.571 " stroke="none" fill="black" fill-rule="evenodd"/>
</svg>