<svg xmlns="http://www.w3.org/2000/svg" width="436" height="324" viewBox="0 0 436 324" version="1.1">
	<path d="M 103.571 127.571 C 102.199 128.944, 102 133.890, 102 166.699 L 102 204.255 97.599 200.198 C 92.503 195.500, 86.962 192.459, 81.703 191.472 L 78 190.777 78 175.960 C 78 163.823, 77.716 160.859, 76.429 159.571 C 75.064 158.207, 70.537 158, 42 158 C 13.463 158, 8.936 158.207, 7.571 159.571 C 6.207 160.936, 6 165.463, 6 194 C 6 222.537, 6.207 227.064, 7.571 228.429 C 8.860 229.717, 11.833 230, 24.071 230 L 39 230 39 232.340 C 39 233.627, 40.362 237.406, 42.027 240.738 C 52.649 261.994, 79.547 267.148, 97.100 251.290 C 102.082 246.790, 105.364 241.277, 107.692 233.500 C 109.296 228.142, 109.517 222.238, 109.762 178.340 C 110.007 134.505, 109.864 129.007, 108.447 127.590 C 106.455 125.597, 105.549 125.594, 103.571 127.571 M 199.571 127.571 C 198.707 128.436, 198 129.640, 198 130.249 C 198 130.857, 204.850 138.256, 213.222 146.691 L 228.444 162.028 181.222 209.288 C 155.250 235.282, 134 257.068, 134 257.703 C 134 259.195, 136.805 262, 138.297 262 C 138.932 262, 160.718 240.750, 186.712 214.778 L 233.972 167.556 249.309 182.778 C 257.744 191.150, 265.120 198, 265.700 198 C 267.592 198, 269.237 195.078, 268.647 192.763 C 268.014 190.274, 204.126 126, 202.286 126 C 201.657 126, 200.436 126.707, 199.571 127.571 M 423.750 127.080 C 422.132 128.023, 422 130.976, 422 166.351 L 422 204.602 416.938 199.850 C 403.321 187.065, 382.330 187.432, 368.824 200.689 C 361.830 207.554, 358.520 215.525, 358.520 225.500 C 358.520 235.475, 361.830 243.446, 368.824 250.311 C 384.766 265.959, 410.752 263.087, 422.777 244.347 C 428.651 235.194, 428.969 231.769, 428.985 177.450 C 429.001 124.272, 428.977 124.036, 423.750 127.080 M 14 194 L 14 222 26.500 222 L 39 222 39 219.160 C 39 217.598, 40.362 213.594, 42.027 210.262 C 46.879 200.552, 56.578 192.891, 65.908 191.399 L 70 190.744 70 178.372 L 70 166 42 166 L 14 166 14 194 M 303.184 199.365 C 298.133 204.516, 294 209.209, 294 209.794 C 294 211.022, 296.773 214, 297.916 214 C 298.342 214, 299.547 213.050, 300.595 211.890 C 301.643 210.729, 304.188 208.441, 306.250 206.806 L 310 203.832 310 228.916 L 310 254 303.571 254 C 299.061 254, 296.674 254.469, 295.571 255.571 C 293.593 257.550, 293.597 258.455, 295.595 260.452 C 296.952 261.810, 299.721 262.006, 314.237 261.773 C 329.203 261.533, 331.419 261.286, 332.387 259.750 C 334.532 256.345, 332 254.532, 324.646 254.204 L 318 253.909 318 223.526 C 318 197.238, 317.788 192.931, 316.429 191.571 C 315.564 190.707, 314.297 190, 313.613 190 C 312.928 190, 308.236 194.214, 303.184 199.365 M 63.385 199.617 C 55.428 202.439, 48.611 210.342, 46.450 219.250 L 45.783 222 57.892 222 L 70 222 70 210 C 70 196.784, 70.253 197.181, 63.385 199.617 M 78 212.361 C 78 224.206, 77.713 227.145, 76.429 228.429 C 75.145 229.713, 72.206 230, 60.361 230 L 45.865 230 46.525 232.250 C 50.314 245.167, 60.497 253, 73.500 253 C 84.056 253, 93.863 246.925, 98.523 237.500 C 101.287 231.908, 101.293 219.099, 98.533 213.533 C 94.948 206.303, 88.603 201.103, 80.250 198.552 L 78 197.865 78 212.361 M 383.748 199.427 C 365.840 205.818, 359.939 228.971, 372.447 243.770 C 377.214 249.409, 383.257 252.253, 391.616 252.789 C 398.399 253.224, 399.556 253.001, 405.397 250.125 C 417.374 244.229, 423.511 230.958, 420.096 218.337 C 416.933 206.647, 405.616 197.959, 393.663 198.044 C 390.273 198.068, 385.812 198.690, 383.748 199.427 " stroke="none" fill="black" fill-rule="evenodd"/>
</svg>