<svg xmlns="http://www.w3.org/2000/svg" width="403" height="324" viewBox="0 0 403 324" version="1.1">
	<path d="M 198.750 127.080 C 197.514 127.800, 197 129.359, 197 132.390 C 197 139.079, 193.370 151.641, 189.340 158.899 C 183.912 168.675, 173.977 177.998, 163.820 182.847 C 155.969 186.596, 147.639 189.017, 142.701 188.986 C 140.911 188.975, 140.168 187.928, 138.722 183.376 C 129.103 153.093, 88.239 149.822, 74.058 178.201 C 72.376 181.566, 71 185.598, 71 187.160 L 71 190 40.071 190 C 13.288 190, 8.932 190.211, 7.571 191.571 C 5.598 193.545, 5.598 194.455, 7.571 196.429 C 8.969 197.826, 16.647 198, 77.022 198 C 122.107 198, 146.681 198.366, 150.201 199.090 C 153.115 199.690, 159.244 201.968, 163.820 204.153 C 173.977 209.002, 183.912 218.325, 189.340 228.101 C 193.485 235.566, 197 247.966, 197 255.125 C 197 258.956, 197.418 260.154, 199.064 261.034 C 202.443 262.843, 204 260.636, 204 254.038 C 204 232.094, 188.507 208.276, 167.500 197.927 L 158.500 193.492 167.497 189.070 C 184.257 180.833, 197.356 164.656, 202.014 146.444 C 204.247 137.716, 204.602 129.002, 202.800 127.200 C 201.367 125.767, 201.022 125.757, 198.750 127.080 M 327.750 127.047 C 326.788 127.626, 326 128.961, 326 130.015 C 326 132.616, 328.325 133.617, 336 134.322 C 355.208 136.084, 373.327 148.714, 382.055 166.423 C 391.080 184.735, 391.080 202.265, 382.055 220.577 C 375.475 233.929, 362.903 245.035, 348.723 250.024 C 340.071 253.068, 323.829 253.829, 314.988 251.606 C 297.722 247.263, 283.312 235.558, 275.462 219.500 C 273.580 215.650, 271.616 210.531, 271.098 208.125 L 270.157 203.750 283.411 216.875 C 290.701 224.094, 297.136 230, 297.710 230 C 299.298 230, 301.207 227.290, 300.833 225.570 C 300.418 223.665, 267.028 190, 265.554 190 C 263.759 190, 230 224.395, 230 226.225 C 230 227.163, 230.959 228.443, 232.131 229.070 C 234.073 230.110, 235.492 228.984, 248.096 216.404 C 255.705 208.810, 262.094 202.800, 262.295 203.048 C 262.496 203.297, 263.224 206.110, 263.913 209.300 C 264.602 212.490, 266.916 218.565, 269.056 222.800 C 281.100 246.642, 302.952 260.320, 329 260.320 C 378.709 260.320, 410.978 208.295, 388.982 163.615 C 378.863 143.061, 358.667 129.327, 334.500 126.566 C 331.683 126.244, 328.736 126.454, 327.750 127.047 M 95.627 167.468 C 87.862 170.236, 79.901 179.144, 78.394 186.750 L 77.750 190 105.394 190 L 133.038 190 132.392 187.250 C 130.374 178.665, 123.032 170.404, 114.684 167.326 C 110.327 165.720, 100.323 165.794, 95.627 167.468 " stroke="none" fill="black" fill-rule="evenodd"/>
</svg>