<svg xmlns="http://www.w3.org/2000/svg" width="324" height="324" viewBox="0 0 324 324" version="1.1">
	<path d="M 215.213 143.315 C 205.746 152.838, 198 161.131, 198 161.743 C 198 163.175, 200.813 166, 202.239 166 C 202.841 166, 209.334 160.059, 216.667 152.798 L 230 139.595 230 149.298 L 230 159 227.160 159 C 222.727 159, 212.634 164.589, 208.013 169.602 C 201.426 176.748, 198.611 183.903, 198.611 193.500 C 198.611 203.097, 201.426 210.252, 208.013 217.398 C 212.634 222.411, 222.727 228, 227.160 228 L 230 228 230 243.429 C 230 256.121, 230.279 259.136, 231.571 260.429 C 232.436 261.293, 233.529 262, 234 262 C 234.471 262, 235.564 261.293, 236.429 260.429 C 237.721 259.136, 238 256.121, 238 243.429 L 238 228 240.340 228 C 244.333 228, 254.591 222.168, 258.987 217.398 C 265.574 210.252, 268.389 203.097, 268.389 193.500 C 268.389 183.903, 265.574 176.748, 258.987 169.602 C 254.591 164.832, 244.333 159, 240.340 159 C 238.047 159, 238 158.804, 238 149.298 L 238 139.595 251.333 152.798 C 258.666 160.059, 265.159 166, 265.761 166 C 267.187 166, 270 163.175, 270 161.743 C 270 159.994, 235.761 126, 234 126 C 233.134 126, 224.680 133.792, 215.213 143.315 M 295.315 175.213 C 285.792 184.680, 278 193.134, 278 194 C 278 195.761, 311.994 230, 313.743 230 C 315.180 230, 318 227.185, 318 225.751 C 318 225.143, 311.156 217.750, 302.792 209.323 L 287.584 194 302.792 178.677 C 311.156 170.250, 318 162.857, 318 162.249 C 318 160.815, 315.180 158, 313.743 158 C 313.131 158, 304.838 165.746, 295.315 175.213 M 224.500 167.227 C 216.519 170.072, 209.547 177.291, 206.997 185.349 C 205.382 190.455, 206.146 200.535, 208.522 205.467 C 211.975 212.633, 219.345 218.561, 227.250 220.531 L 230 221.217 230 193.608 C 230 163.803, 230.284 165.165, 224.500 167.227 M 238 193.500 L 238 221.135 240.250 220.448 C 248.603 217.897, 254.948 212.697, 258.533 205.467 C 261.287 199.912, 261.287 187.088, 258.533 181.533 C 254.948 174.303, 248.603 169.103, 240.250 166.552 L 238 165.865 238 193.500 M 7.571 191.571 C 6.707 192.436, 6 193.640, 6 194.249 C 6 194.857, 12.844 202.250, 21.208 210.677 L 36.416 226 21.208 241.323 C 12.844 249.750, 6 257.143, 6 257.751 C 6 259.181, 8.819 262, 10.249 262 C 10.857 262, 18.250 255.156, 26.677 246.792 L 42 231.584 57.323 246.792 C 65.750 255.156, 73.143 262, 73.751 262 C 75.181 262, 78 259.181, 78 257.751 C 78 257.143, 71.156 249.750, 62.792 241.323 L 47.584 226 62.792 210.677 C 71.156 202.250, 78 194.857, 78 194.249 C 78 192.819, 75.181 190, 73.751 190 C 73.143 190, 65.750 196.844, 57.323 205.208 L 42 220.416 26.677 205.208 C 18.250 196.844, 10.857 190, 10.249 190 C 9.640 190, 8.436 190.707, 7.571 191.571 M 103.571 191.571 C 102.707 192.436, 102 193.640, 102 194.249 C 102 194.857, 108.844 202.250, 117.208 210.677 L 132.416 226 117.208 241.323 C 108.844 249.750, 102 257.143, 102 257.751 C 102 259.181, 104.819 262, 106.249 262 C 106.857 262, 114.250 255.156, 122.677 246.792 L 138 231.584 153.323 246.792 C 161.750 255.156, 169.143 262, 169.751 262 C 171.181 262, 174 259.181, 174 257.751 C 174 257.143, 167.156 249.750, 158.792 241.323 L 143.584 226 158.792 210.677 C 167.156 202.250, 174 194.857, 174 194.249 C 174 192.819, 171.181 190, 169.751 190 C 169.143 190, 161.750 196.844, 153.323 205.208 L 138 220.416 122.677 205.208 C 114.250 196.844, 106.857 190, 106.249 190 C 105.640 190, 104.436 190.707, 103.571 191.571 " stroke="none" fill="black" fill-rule="evenodd"/>
</svg>