<svg xmlns="http://www.w3.org/2000/svg" width="196" height="324" viewBox="0 0 196 324" version="1.1">
	<path d="M 103.571 127.571 C 102.199 128.944, 102 133.890, 102 166.699 L 102 204.255 97.599 200.198 C 92.503 195.500, 86.962 192.459, 81.703 191.472 L 78 190.777 78 175.960 C 78 163.823, 77.716 160.859, 76.429 159.571 C 75.064 158.207, 70.537 158, 42 158 C 13.463 158, 8.936 158.207, 7.571 159.571 C 6.207 160.936, 6 165.463, 6 194 C 6 222.537, 6.207 227.064, 7.571 228.429 C 8.860 229.717, 11.833 230, 24.071 230 L 39 230 39 232.340 C 39 233.627, 40.362 237.406, 42.027 240.738 C 52.663 262.022, 79.525 267.169, 97.100 251.290 C 102.082 246.790, 105.364 241.277, 107.692 233.500 C 109.296 228.142, 109.517 222.238, 109.762 178.340 C 110.007 134.505, 109.864 129.007, 108.447 127.590 C 106.455 125.597, 105.549 125.594, 103.571 127.571 M 135.750 127.080 C 134.111 128.035, 134 132.293, 134 194.015 L 134 259.930 136.183 261.098 C 138.042 262.093, 138.636 261.933, 140.183 260.022 C 141.896 257.906, 142 254.151, 142 194.112 C 142 138.107, 141.813 130.178, 140.443 128.223 C 138.702 125.736, 138.248 125.625, 135.750 127.080 M 167.315 143.213 C 157.792 152.680, 150 161.134, 150 162 C 150 163.680, 183.953 198, 185.615 198 C 187.113 198, 189.001 195.790, 188.989 194.050 C 188.984 193.198, 182.299 185.623, 174.135 177.218 L 159.291 161.936 174.123 146.718 C 182.281 138.348, 188.966 130.803, 188.978 129.950 C 189.003 128.213, 187.118 126, 185.615 126 C 185.073 126, 176.838 133.746, 167.315 143.213 M 14 194.031 L 14 222.062 26.141 221.781 L 38.282 221.500 39.441 216.929 C 41.961 206.990, 49.620 197.948, 59.360 193.413 C 62.187 192.096, 65.737 191.015, 67.250 191.010 L 70 191 70 178.500 L 70 166 42 166 L 14 166 14 194.031 M 63.385 199.617 C 55.428 202.439, 48.611 210.342, 46.450 219.250 L 45.783 222 57.892 222 L 70 222 70 210 C 70 196.784, 70.253 197.181, 63.385 199.617 M 78 212.361 C 78 224.206, 77.713 227.145, 76.429 228.429 C 75.145 229.713, 72.206 230, 60.361 230 L 45.865 230 46.525 232.250 C 50.382 245.400, 60.478 253, 74.091 253 C 78.610 253, 81.168 252.307, 86.163 249.729 C 100.040 242.566, 104.967 225.906, 97.351 211.899 C 93.793 205.354, 88.305 201.075, 80.250 198.566 L 78 197.865 78 212.361 " stroke="none" fill="black" fill-rule="evenodd"/>
</svg>