<svg xmlns="http://www.w3.org/2000/svg" width="420" height="324" viewBox="0 0 420 324" version="1.1">
	<path d="M 391.282 79.282 C 381.777 88.787, 374 97.210, 374 98 C 374 99.693, 408.031 134, 409.710 134 C 411.173 134, 414 131.200, 414 129.751 C 414 129.143, 407.156 121.750, 398.792 113.323 L 383.584 98 398.792 82.677 C 407.156 74.250, 414 66.857, 414 66.249 C 414 64.800, 411.173 62, 409.710 62 C 409.079 62, 400.787 69.777, 391.282 79.282 M 293.202 96.750 C 288.288 103.740, 286.516 110.119, 287.602 116.915 C 288.400 121.901, 293.699 131.049, 296.637 132.509 C 298.637 133.503, 298.422 133.793, 293.271 137.036 C 285.020 142.231, 273.986 154.475, 269.731 163.158 C 264.560 173.710, 262.696 181.751, 262.696 193.500 C 262.696 205.257, 264.549 213.240, 269.778 224 C 274.922 234.587, 288.441 248.092, 299 253.193 C 309.909 258.463, 317.807 260.304, 329.500 260.304 C 348.834 260.304, 362.527 254.551, 376.539 240.539 C 390.551 226.527, 396.304 212.834, 396.304 193.500 C 396.304 181.743, 394.451 173.760, 389.222 163 C 384.088 152.433, 370.567 138.912, 360 133.778 C 352.103 129.940, 342.229 127, 337.241 127 C 327.769 127, 323.645 111.892, 330.440 102.086 C 333.658 97.444, 333.257 94, 329.501 94 C 327.060 94, 324.830 96.493, 321.451 103 C 319.059 107.605, 318.987 118.271, 321.317 122.700 C 322.242 124.461, 323 126.090, 323 126.322 C 323 126.553, 320.863 127.035, 318.250 127.393 C 315.637 127.751, 310.492 129.105, 306.816 130.402 C 300.701 132.560, 300.231 132.603, 301.286 130.913 C 302.226 129.408, 302.024 128.551, 300.192 126.283 C 294.065 118.695, 293.381 109.387, 298.417 102.120 C 300.295 99.410, 300.968 97.474, 300.522 96.068 C 299.556 93.026, 295.559 93.398, 293.202 96.750 M 357.202 96.750 C 352.845 102.947, 351.633 106.483, 351.633 113 C 351.633 119.781, 352.968 123.471, 357.713 129.807 C 360.404 133.401, 363.484 133.795, 365.370 130.786 C 366.209 129.448, 365.951 128.462, 364.195 126.286 C 358.065 118.695, 357.380 109.388, 362.417 102.120 C 364.295 99.410, 364.968 97.474, 364.522 96.068 C 363.556 93.026, 359.559 93.398, 357.202 96.750 M 231.571 127.571 C 230.707 128.436, 230 129.529, 230 130 C 230 130.471, 230.707 131.564, 231.571 132.429 C 232.436 133.293, 233.529 134, 234 134 C 234.471 134, 235.564 133.293, 236.429 132.429 C 237.293 131.564, 238 130.471, 238 130 C 238 129.529, 237.293 128.436, 236.429 127.571 C 235.564 126.707, 234.471 126, 234 126 C 233.529 126, 232.436 126.707, 231.571 127.571 M 314.645 135.584 C 294.562 140.445, 276.305 158.877, 271.537 179.103 C 266.672 199.742, 272.569 220.600, 287.484 235.516 C 302.400 250.431, 323.258 256.328, 343.897 251.463 C 364.261 246.662, 382.662 228.261, 387.463 207.897 C 389.390 199.718, 389.390 187.282, 387.463 179.103 C 382.662 158.739, 364.261 140.338, 343.897 135.537 C 335.998 133.676, 322.439 133.697, 314.645 135.584 M 103.571 159.571 C 102.707 160.436, 102 161.529, 102 162 C 102 162.471, 102.707 163.564, 103.571 164.429 C 104.436 165.293, 105.529 166, 106 166 C 106.471 166, 107.564 165.293, 108.429 164.429 C 109.293 163.564, 110 162.471, 110 162 C 110 161.529, 109.293 160.436, 108.429 159.571 C 107.564 158.707, 106.471 158, 106 158 C 105.529 158, 104.436 158.707, 103.571 159.571 M 167.571 159.571 C 166.707 160.436, 166 161.529, 166 162 C 166 162.471, 166.707 163.564, 167.571 164.429 C 168.436 165.293, 169.529 166, 170 166 C 170.471 166, 171.564 165.293, 172.429 164.429 C 173.293 163.564, 174 162.471, 174 162 C 174 161.529, 173.293 160.436, 172.429 159.571 C 171.564 158.707, 170.471 158, 170 158 C 169.529 158, 168.436 158.707, 167.571 159.571 M 327.571 159.571 C 326.212 160.931, 326 165.242, 326 191.571 L 326 222 311.571 222 C 299.788 222, 296.855 222.288, 295.571 223.571 C 293.598 225.545, 293.598 226.455, 295.571 228.429 C 296.936 229.793, 301.463 230, 330 230 C 358.537 230, 363.064 229.793, 364.429 228.429 C 366.402 226.455, 366.402 225.545, 364.429 223.571 C 363.145 222.288, 360.212 222, 348.429 222 L 334 222 334 191.571 C 334 165.242, 333.788 160.931, 332.429 159.571 C 331.564 158.707, 330.471 158, 330 158 C 329.529 158, 328.436 158.707, 327.571 159.571 M 33.244 175.109 C 21.572 177.054, 4.461 188.234, 5.204 193.430 C 5.738 197.166, 9.662 196.567, 14.627 191.990 C 17.111 189.700, 21.699 186.637, 24.822 185.183 C 29.833 182.851, 31.733 182.542, 41 182.552 C 55.478 182.568, 60.825 184.730, 70.520 194.487 C 78.736 202.757, 85.162 206.307, 96.006 208.568 C 110.068 211.500, 125.682 207.364, 136.540 197.831 C 140.501 194.353, 141.161 190.503, 137.970 189.490 C 136.520 189.030, 134.888 189.769, 132.267 192.070 C 130.247 193.844, 125.648 196.691, 122.047 198.397 C 116.011 201.258, 114.676 201.500, 104.948 201.500 C 94.786 201.500, 94.121 201.363, 86.948 197.796 C 82.314 195.492, 78.746 192.948, 77.504 191.064 C 72.864 184.024, 60.066 176.839, 49 175.060 C 41.669 173.882, 40.594 173.885, 33.244 175.109 M 231.571 191.571 C 230.707 192.436, 230 193.529, 230 194 C 230 194.471, 230.707 195.564, 231.571 196.429 C 232.436 197.293, 233.529 198, 234 198 C 234.471 198, 235.564 197.293, 236.429 196.429 C 237.293 195.564, 238 194.471, 238 194 C 238 193.529, 237.293 192.436, 236.429 191.571 C 235.564 190.707, 234.471 190, 234 190 C 233.529 190, 232.436 190.707, 231.571 191.571 M 103.571 223.571 C 102.707 224.436, 102 225.529, 102 226 C 102 226.471, 102.707 227.564, 103.571 228.429 C 104.436 229.293, 105.529 230, 106 230 C 106.471 230, 107.564 229.293, 108.429 228.429 C 109.293 227.564, 110 226.471, 110 226 C 110 225.529, 109.293 224.436, 108.429 223.571 C 107.564 222.707, 106.471 222, 106 222 C 105.529 222, 104.436 222.707, 103.571 223.571 M 167.571 223.571 C 166.707 224.436, 166 225.529, 166 226 C 166 226.471, 166.707 227.564, 167.571 228.429 C 168.436 229.293, 169.529 230, 170 230 C 170.471 230, 171.564 229.293, 172.429 228.429 C 173.293 227.564, 174 226.471, 174 226 C 174 225.529, 173.293 224.436, 172.429 223.571 C 171.564 222.707, 170.471 222, 170 222 C 169.529 222, 168.436 222.707, 167.571 223.571 M 231.571 255.571 C 230.707 256.436, 230 257.529, 230 258 C 230 259.111, 232.889 262, 234 262 C 235.111 262, 238 259.111, 238 258 C 238 256.889, 235.111 254, 234 254 C 233.529 254, 232.436 254.707, 231.571 255.571 " stroke="none" fill="black" fill-rule="evenodd"/>
</svg>