<svg xmlns="http://www.w3.org/2000/svg" width="340" height="324" viewBox="0 0 340 324" version="1.1">
	<path d="M 72.316 62.784 C 70.369 64.022, 54.007 97.855, 54.604 99.410 C 55.269 101.144, 57.524 102.120, 59.295 101.440 C 60.007 101.167, 63.480 95.106, 67.014 87.972 C 70.547 80.837, 73.691 75, 74 75 C 74.309 75, 77.453 80.837, 80.986 87.972 C 84.520 95.106, 88.076 101.199, 88.889 101.511 C 89.701 101.823, 91.219 101.225, 92.261 100.183 C 94.121 98.324, 93.994 97.966, 85.456 80.894 C 76.033 62.053, 75.222 60.935, 72.316 62.784 M 35.045 127.064 C 19.586 130.194, 7.255 144.080, 6.841 158.824 C 6.689 164.231, 10.459 179.667, 14.976 192.133 C 18.628 202.212, 26.063 215.568, 33.594 225.579 C 47.004 243.404, 74.270 264.227, 77.454 259.074 C 77.769 258.565, 81.733 255.561, 86.263 252.400 C 102.796 240.863, 118.290 222.751, 127.526 204.162 C 136.027 187.055, 141.511 165.812, 139.941 156.078 C 136.401 134.137, 113.568 120.988, 92.798 128.928 C 86.373 131.384, 78.359 138.062, 75.529 143.317 L 73.640 146.824 70.976 142.624 C 63.636 131.049, 48.255 124.389, 35.045 127.064 M 31.591 135.573 C 23.452 138.555, 15.998 146.866, 14.553 154.569 C 13.726 158.977, 16.225 172.568, 20.050 184.464 C 25.982 202.912, 35.682 218.638, 50 233.023 C 55.225 238.272, 62.724 244.743, 66.665 247.402 L 73.830 252.237 81.647 246.869 C 97.272 236.137, 111.646 219.492, 120.594 201.768 C 127.665 187.762, 133 169.625, 133 159.594 C 133 153.984, 127.997 143.968, 123.235 140.042 C 113.249 131.811, 97.154 132.040, 87.205 140.557 C 82.124 144.906, 78 153, 78 158.625 C 78 162.910, 76.115 166, 73.500 166 C 71.133 166, 69 162.970, 69 159.607 C 69 149.949, 60.912 138.862, 51.537 135.667 C 45.642 133.659, 36.928 133.618, 31.591 135.573 M 263.571 159.571 C 262.227 160.916, 262 164.736, 262 186 C 262 207.264, 262.227 211.084, 263.571 212.429 C 265.457 214.315, 266.219 214.381, 267.800 212.800 C 269.508 211.092, 269.508 160.908, 267.800 159.200 C 266.219 157.619, 265.457 157.685, 263.571 159.571 M 295.571 159.571 C 294.227 160.916, 294 164.736, 294 186 C 294 207.264, 294.227 211.084, 295.571 212.429 C 297.457 214.315, 298.219 214.381, 299.800 212.800 C 301.508 211.092, 301.508 160.908, 299.800 159.200 C 298.219 157.619, 297.457 157.685, 295.571 159.571 M 167.585 191.558 C 166.713 192.430, 166 193.529, 166 194 C 166 194.471, 166.713 195.570, 167.585 196.442 C 168.978 197.835, 173.159 197.995, 202.226 197.763 C 232.452 197.523, 235.377 197.350, 236.386 195.750 C 237.191 194.474, 237.191 193.526, 236.386 192.250 C 235.377 190.650, 232.452 190.477, 202.226 190.237 C 173.159 190.005, 168.978 190.165, 167.585 191.558 M 263.616 222.527 C 262.727 223.416, 262 224.529, 262 225 C 262 226.389, 265.140 229.120, 266.295 228.735 C 268.395 228.035, 269.549 225.094, 268.423 223.310 C 266.905 220.902, 265.474 220.669, 263.616 222.527 M 295.616 222.527 C 294.727 223.416, 294 224.529, 294 225 C 294 226.389, 297.140 229.120, 298.295 228.735 C 300.395 228.035, 301.549 225.094, 300.423 223.310 C 298.905 220.902, 297.474 220.669, 295.616 222.527 " stroke="none" fill="black" fill-rule="evenodd"/>
</svg>