<svg xmlns="http://www.w3.org/2000/svg" width="420" height="324" viewBox="0 0 420 324" version="1.1">
	<path d="M 103.571 127.571 C 102.199 128.944, 102 133.890, 102 166.699 L 102 204.255 97.445 200.056 C 92.576 195.568, 83.942 191.026, 80.250 191.010 C 78.015 191, 78 190.897, 78 175.700 C 78 165.133, 77.629 160.029, 76.800 159.200 C 75.081 157.481, 8.919 157.481, 7.200 159.200 C 5.481 160.919, 5.481 227.081, 7.200 228.800 C 8.029 229.629, 13.133 230, 23.700 230 L 39 230 39 232.340 C 39 236.333, 44.832 246.591, 49.602 250.987 C 56.748 257.574, 63.903 260.389, 73.500 260.389 C 80 260.389, 82.564 259.901, 87.175 257.784 C 97.668 252.968, 105.480 243.518, 108.208 232.340 C 109.010 229.056, 109.494 211.697, 109.713 178.340 C 110.002 134.463, 109.866 129.009, 108.447 127.590 C 106.455 125.597, 105.549 125.594, 103.571 127.571 M 359.571 127.571 C 358.175 128.968, 358 136.372, 358 194 C 358 251.628, 358.175 259.032, 359.571 260.429 C 360.436 261.293, 361.529 262, 362 262 C 362.471 262, 363.564 261.293, 364.429 260.429 C 365.825 259.032, 366 251.628, 366 194 C 366 136.372, 365.825 128.968, 364.429 127.571 C 363.564 126.707, 362.471 126, 362 126 C 361.529 126, 360.436 126.707, 359.571 127.571 M 391.315 143.213 C 381.792 152.680, 374 161.134, 374 162 C 374 163.761, 407.994 198, 409.743 198 C 411.180 198, 414 195.185, 414 193.751 C 414 193.143, 407.156 185.750, 398.792 177.323 L 383.584 162 398.792 146.677 C 407.156 138.250, 414 130.857, 414 130.249 C 414 128.815, 411.180 126, 409.743 126 C 409.131 126, 400.838 133.746, 391.315 143.213 M 14 194 L 14 222 26.500 222 L 39 222 39 219.160 C 39 214.734, 44.586 204.637, 49.582 200.031 C 54.680 195.332, 63.116 191.024, 67.250 191.010 L 70 191 70 178.500 L 70 166 42 166 L 14 166 14 194 M 135.571 191.571 C 134.707 192.436, 134 193.529, 134 194 C 134 194.471, 134.707 195.564, 135.571 196.429 C 136.967 197.824, 144.266 198, 200.833 198 L 264.523 198 280.500 214 C 289.287 222.800, 297.174 230, 298.026 230 C 299.770 230, 334 195.990, 334 194.257 C 334 192.820, 331.185 190, 329.751 190 C 329.143 190, 321.743 196.850, 313.308 205.223 L 297.970 220.446 282.723 205.223 L 267.477 190 202.310 190 C 144.400 190, 136.968 190.175, 135.571 191.571 M 64.453 199.326 C 59.348 201.293, 54.352 204.850, 51.568 208.500 C 49.193 211.613, 46 218.854, 46 221.126 C 46 221.607, 51.400 222, 58 222 L 70 222 70 210 C 70 197.041, 70.064 197.164, 64.453 199.326 M 78 212.733 C 78 222.963, 77.626 227.974, 76.800 228.800 C 75.974 229.626, 70.963 230, 60.733 230 L 45.865 230 46.544 232.250 C 48.972 240.302, 54.588 247.131, 61.533 250.478 C 67.097 253.159, 76.591 253.629, 82.895 251.535 C 88.766 249.585, 95.568 243.476, 98.523 237.500 C 101.287 231.908, 101.293 219.099, 98.533 213.533 C 94.948 206.303, 88.603 201.103, 80.250 198.552 L 78 197.865 78 212.733 " stroke="none" fill="black" fill-rule="evenodd"/>
</svg>