<svg xmlns="http://www.w3.org/2000/svg" width="180" height="324" viewBox="0 0 180 324" version="1.1">
	<path d="M 55.571 63.571 C 54.707 64.436, 54 65.332, 54 65.564 C 54 67.123, 71.710 101.058, 72.727 101.449 C 73.427 101.717, 74.573 101.717, 75.273 101.449 C 77.129 100.736, 94.063 66.328, 93.403 64.609 C 92.732 62.858, 90.483 61.877, 88.705 62.560 C 87.993 62.833, 84.520 68.894, 80.986 76.028 C 77.453 83.163, 74.308 89, 73.997 89 C 73.687 89, 70.748 83.534, 67.467 76.853 C 59.925 61.499, 58.847 60.296, 55.571 63.571 M 7.571 127.571 C 6.707 128.436, 6 129.529, 6 130 C 6 130.471, 6.707 131.564, 7.571 132.429 C 8.966 133.823, 16.060 134, 70.569 134 L 131.995 134 118.830 160.352 L 105.666 186.704 100.239 182.902 C 81.914 170.066, 54.528 172.477, 39.217 188.276 C 35.704 191.901, 35.675 194.445, 39.132 195.542 C 40.512 195.980, 42.272 195.084, 45.167 192.468 C 47.414 190.438, 52.234 187.364, 55.877 185.638 C 61.999 182.737, 63.298 182.500, 73.052 182.500 C 83.209 182.500, 83.884 182.639, 91.111 186.210 C 104.074 192.617, 104.544 188.927, 86.057 225.886 C 77.226 243.542, 70 258.183, 70 258.423 C 70 258.662, 70.707 259.564, 71.571 260.429 C 72.936 261.793, 77.463 262, 106 262 C 134.537 262, 139.064 261.793, 140.429 260.429 C 142.402 258.455, 142.402 257.545, 140.429 255.571 C 139.071 254.214, 134.848 254, 109.425 254 L 79.993 254 93.500 227 C 100.929 212.150, 107.254 200, 107.557 200 C 107.859 200, 109.770 201.139, 111.803 202.532 C 121.140 208.927, 138.194 211.153, 150.500 207.583 C 161.078 204.514, 172 196.834, 172 192.464 C 172 188.535, 168.496 188.357, 164.267 192.070 C 162.247 193.844, 157.648 196.691, 154.047 198.397 C 148.011 201.258, 146.676 201.500, 136.948 201.500 C 126.744 201.500, 126.143 201.375, 118.698 197.695 C 114.464 195.603, 111 193.463, 111 192.939 C 111 192.416, 117.975 178.043, 126.500 161 C 135.025 143.957, 142 129.817, 142 129.578 C 142 129.339, 141.293 128.436, 140.429 127.571 C 139.032 126.175, 131.628 126, 74 126 C 16.372 126, 8.968 126.175, 7.571 127.571 " stroke="none" fill="black" fill-rule="evenodd"/>
</svg>