<svg xmlns="http://www.w3.org/2000/svg" width="595" height="324" viewBox="0 0 595 324" version="1.1">
	<path d="M 359.750 127.047 C 357.423 128.446, 357.524 131.675, 359.934 132.965 C 360.998 133.534, 363.451 134, 365.385 134 C 381.057 134, 400.314 144.990, 410.332 159.652 C 437.542 199.474, 409.255 253, 361 253 C 344.225 253, 331.801 247.777, 319.401 235.511 C 310.814 227.017, 306.246 219.409, 303.514 209.052 L 302.101 203.695 315.383 216.847 C 322.689 224.081, 329.136 230, 329.710 230 C 331.298 230, 333.207 227.290, 332.833 225.570 C 332.413 223.644, 299.020 190, 297.528 190 C 296.085 190, 262 224.291, 262 225.743 C 262 226.952, 264.728 230, 265.809 230 C 266.175 230, 272.800 223.686, 280.531 215.969 L 294.587 201.938 295.859 208.219 C 298.637 221.937, 308.492 237.322, 320.358 246.467 C 332.611 255.909, 345.551 260.320, 361 260.320 C 379.321 260.320, 395.344 253.732, 408 240.996 C 416.449 232.494, 420.913 225.546, 424.810 214.835 C 427.224 208.197, 427.478 206.169, 427.478 193.500 C 427.478 180.831, 427.224 178.803, 424.810 172.165 C 420.913 161.454, 416.449 154.506, 408 146.004 C 402.284 140.252, 398.478 137.450, 392 134.226 C 380.176 128.340, 363.699 124.672, 359.750 127.047 M 537.126 173.379 L 489.500 220.961 473.848 205.393 C 459.666 191.287, 457.999 189.930, 456.098 190.948 C 454.944 191.565, 454 192.837, 454 193.773 C 454 194.710, 460.857 202.344, 469.238 210.738 L 484.476 226 469.238 241.262 C 460.857 249.656, 454 257.290, 454 258.227 C 454 259.163, 454.942 260.434, 456.094 261.050 C 457.988 262.064, 459.674 260.694, 473.850 246.617 L 489.514 231.064 505.159 246.620 C 519.334 260.713, 521.001 262.070, 522.902 261.052 C 524.056 260.435, 525 259.163, 525 258.227 C 525 257.290, 518.141 249.654, 509.758 241.258 L 494.516 225.992 541.758 178.742 C 567.741 152.755, 589 130.722, 589 129.781 C 589 128.840, 588.044 127.559, 586.876 126.934 C 584.922 125.888, 580.948 129.597, 537.126 173.379 M 35.045 159.064 C 16.379 162.843, 3.614 181.052, 7.004 199.062 C 11.209 221.397, 33.453 233.998, 54.493 225.963 C 62.709 222.826, 70.851 214.671, 73.934 206.493 C 76.987 198.392, 76.987 188.608, 73.934 180.507 C 68.336 165.657, 50.649 155.904, 35.045 159.064 M 31.627 167.468 C 26.247 169.386, 21.039 173.829, 17.500 179.519 C 14.741 183.955, 14.500 185.073, 14.500 193.422 C 14.500 201.524, 14.796 203.003, 17.249 207.176 C 26.538 222.978, 48.212 225.884, 61.048 213.048 C 71.769 202.327, 71.769 184.673, 61.048 173.952 C 53.696 166.601, 41.563 163.927, 31.627 167.468 M 103.579 191.564 C 101.598 193.545, 101.596 194.454, 103.571 196.429 C 104.844 197.701, 107.697 198, 118.575 198 L 132.006 198 117.020 227.961 C 108.777 244.439, 102.285 258.580, 102.594 259.384 C 103.451 261.617, 106.104 262.217, 107.895 260.584 C 108.778 259.779, 115.794 246.493, 123.486 231.060 C 131.178 215.627, 137.716 203, 138.015 203 C 138.314 203, 145.042 216.034, 152.965 231.964 C 160.888 247.894, 167.962 261.155, 168.685 261.433 C 169.408 261.710, 170.573 261.717, 171.274 261.448 C 171.975 261.180, 179.056 247.919, 187.010 231.980 C 194.964 216.041, 201.715 203, 202.012 203 C 202.309 203, 209.038 216.035, 216.966 231.966 C 224.893 247.897, 232.026 261.180, 232.816 261.483 C 234.713 262.211, 237 260.236, 237 257.871 C 237 256.835, 230.480 242.952, 222.511 227.021 L 208.021 198.056 221.653 197.778 C 233.361 197.539, 235.441 197.253, 236.388 195.750 C 237.191 194.475, 237.190 193.525, 236.386 192.250 C 235.356 190.617, 230.934 190.483, 170.220 190.243 C 112.058 190.013, 104.990 190.153, 103.579 191.564 M 156.743 223.500 C 163.750 237.525, 169.715 249, 170 249 C 170.285 249, 176.250 237.525, 183.257 223.500 L 195.995 198 170 198 L 144.005 198 156.743 223.500 M 7.571 255.571 C 6.707 256.436, 6 257.529, 6 258 C 6 258.471, 6.707 259.564, 7.571 260.429 C 8.936 261.793, 13.456 262, 41.916 262 C 73.420 262, 74.760 261.922, 76.500 260 C 78.247 258.070, 78.247 257.930, 76.500 256 C 74.760 254.078, 73.420 254, 41.916 254 C 13.456 254, 8.936 254.207, 7.571 255.571 " stroke="none" fill="black" fill-rule="evenodd"/>
</svg>