<svg xmlns="http://www.w3.org/2000/svg" width="403" height="324" viewBox="0 0 403 324" version="1.1">
	<path d="M 72.316 62.784 C 70.369 64.022, 54.007 97.855, 54.604 99.410 C 55.269 101.144, 57.524 102.120, 59.295 101.440 C 60.007 101.167, 63.480 95.106, 67.014 87.972 C 70.547 80.837, 73.691 75, 74 75 C 74.309 75, 77.453 80.837, 80.986 87.972 C 84.520 95.106, 88.050 101.189, 88.832 101.489 C 90.716 102.212, 93 100.227, 93 97.866 C 93 95.626, 77.264 63.831, 75.628 62.765 C 74.214 61.845, 73.789 61.847, 72.316 62.784 M 7.571 127.571 C 6.707 128.436, 6 129.657, 6 130.285 C 6 130.913, 20.053 145.506, 37.229 162.713 L 68.458 194 37.229 225.287 C 20.053 242.494, 6 257.087, 6 257.715 C 6 259.201, 8.813 262, 10.305 262 C 12.018 262, 78 195.721, 78 194 C 78 192.279, 12.018 126, 10.305 126 C 9.666 126, 8.436 126.707, 7.571 127.571 M 71.571 127.571 C 70.707 128.436, 70 129.657, 70 130.285 C 70 130.913, 84.053 145.506, 101.229 162.713 L 132.458 194 101.229 225.287 C 84.053 242.494, 70 257.087, 70 257.715 C 70 259.192, 72.800 261.990, 74.321 262.033 C 75.582 262.069, 142 195.252, 142 193.948 C 142 192.647, 75.584 125.936, 74.321 125.969 C 73.673 125.986, 72.436 126.707, 71.571 127.571 M 317.500 127.480 C 290.307 132.530, 269.132 153.064, 263.531 179.815 C 261.307 190.439, 261.484 195.654, 264.117 197.062 C 267.328 198.781, 268.564 196.672, 269.826 187.325 C 273.027 163.613, 287.019 145.514, 308.303 137.552 C 314.713 135.155, 323 133.383, 323 134.410 C 323 134.732, 309.164 162.671, 292.254 196.497 C 266.896 247.222, 261.702 258.304, 262.613 259.749 C 263.647 261.388, 267.921 261.500, 329.500 261.500 C 391.079 261.500, 395.353 261.388, 396.387 259.749 C 397.298 258.304, 392.104 247.222, 366.746 196.497 C 349.836 162.671, 336 134.736, 336 134.418 C 336 134.101, 337.462 134.133, 339.250 134.490 C 352.794 137.197, 366.824 145.255, 374.660 154.828 C 382.771 164.737, 388.929 180.812, 388.983 192.215 C 389.003 196.661, 391.614 198.734, 394.518 196.611 C 398.648 193.591, 393.799 171.015, 386.406 158.845 C 381.314 150.463, 374.784 143.669, 366.484 138.118 C 357.822 132.324, 350.348 129.308, 340 127.431 C 330.892 125.778, 326.617 125.787, 317.500 127.480 M 300.747 195.500 C 284.936 227.128, 272 253.229, 272 253.502 C 272 253.776, 297.875 254, 329.500 254 C 361.125 254, 386.975 253.662, 386.945 253.250 C 386.915 252.838, 373.976 226.736, 358.192 195.248 L 329.494 137.995 300.747 195.500 M 324 175.153 C 318.853 176.648, 314.483 180.371, 312.102 185.289 C 309.357 190.960, 309.342 195.577, 312.064 197.034 C 314.576 198.379, 317 196.780, 317 193.779 C 317 187.639, 322.745 182, 329 182 C 341.647 182, 345.544 199.548, 333.868 203.921 C 325.213 207.163, 326 205.810, 326 217.443 C 326 227.014, 326.180 228.026, 328.064 229.034 C 331.758 231.011, 333 228.708, 333 219.878 C 333 213.931, 333.331 212, 334.350 212 C 336.944 212, 343.963 205.994, 345.973 202.053 C 353.387 187.520, 339.587 170.626, 324 175.153 M 167.585 191.558 C 166.713 192.430, 166 193.529, 166 194 C 166 194.471, 166.713 195.570, 167.585 196.442 C 168.978 197.835, 173.159 197.995, 202.226 197.763 C 232.452 197.523, 235.377 197.350, 236.386 195.750 C 237.191 194.474, 237.191 193.526, 236.386 192.250 C 235.377 190.650, 232.452 190.477, 202.226 190.237 C 173.159 190.005, 168.978 190.165, 167.585 191.558 M 327.750 238.080 C 325.372 239.465, 325.542 242.685, 328.064 244.034 C 331.753 246.008, 334.819 241.219, 331.800 238.200 C 330.367 236.767, 330.022 236.757, 327.750 238.080 " stroke="none" fill="black" fill-rule="evenodd"/>
</svg>