<svg xmlns="http://www.w3.org/2000/svg" width="244" height="324" viewBox="0 0 244 324" version="1.1">
	<path d="M 23.571 63.571 C 22.707 64.436, 22 65.317, 22 65.531 C 22 66.993, 39.421 100.653, 40.488 101.252 C 41.225 101.665, 42.440 101.768, 43.187 101.482 C 45.102 100.747, 62.082 66.377, 61.403 64.609 C 60.732 62.858, 58.483 61.877, 56.705 62.560 C 55.993 62.833, 52.520 68.894, 48.986 76.028 C 45.453 83.163, 42.308 89, 41.997 89 C 41.687 89, 38.748 83.534, 35.467 76.853 C 27.925 61.499, 26.847 60.296, 23.571 63.571 M 39.571 127.571 C 38.176 128.966, 38 136.152, 38 191.571 L 38 254 23.571 254 C 11.788 254, 8.855 254.288, 7.571 255.571 C 5.598 257.545, 5.598 258.455, 7.571 260.429 C 8.936 261.793, 13.463 262, 42 262 C 70.537 262, 75.064 261.793, 76.429 260.429 C 77.293 259.564, 78 258.471, 78 258 C 78 257.529, 77.293 256.436, 76.429 255.571 C 75.145 254.288, 72.212 254, 60.429 254 L 46 254 46 191.571 C 46 136.152, 45.824 128.966, 44.429 127.571 C 43.564 126.707, 42.471 126, 42 126 C 41.529 126, 40.436 126.707, 39.571 127.571 M 231.750 127.080 C 230.148 128.013, 230 130.520, 230 156.786 L 230 185.473 216.131 171.631 C 203.495 159.019, 202.073 157.890, 200.131 158.930 C 198.959 159.557, 198 160.836, 198 161.772 C 198 162.708, 203.956 169.442, 211.236 176.737 L 224.472 190 164.808 190 C 111.900 190, 104.965 190.178, 103.571 191.571 C 101.598 193.545, 101.598 194.455, 103.571 196.429 C 104.965 197.822, 111.900 198, 164.808 198 L 224.472 198 211.236 211.263 C 203.956 218.558, 198 225.292, 198 226.228 C 198 227.164, 198.959 228.443, 200.131 229.070 C 202.073 230.110, 203.495 228.981, 216.131 216.369 L 230 202.527 230 231.228 C 230 259.433, 230.037 259.949, 232.117 261.062 C 237.076 263.716, 237.023 264.441, 237.023 194.069 C 237.023 123.438, 237.066 123.984, 231.750 127.080 " stroke="none" fill="black" fill-rule="evenodd"/>
</svg>