<svg xmlns="http://www.w3.org/2000/svg" width="308" height="324" viewBox="0 0 308 324" version="1.1">
	<path d="M 103.571 127.571 C 102.199 128.944, 102 133.887, 102 166.664 L 102 204.185 96.952 199.646 C 92.385 195.541, 83.200 191, 79.462 191 C 78.244 191, 78 188.504, 78 176.071 C 78 163.833, 77.717 160.860, 76.429 159.571 C 75.064 158.207, 70.537 158, 42 158 C 13.463 158, 8.936 158.207, 7.571 159.571 C 6.207 160.936, 6 165.463, 6 194 C 6 222.537, 6.207 227.064, 7.571 228.429 C 8.860 229.717, 11.833 230, 24.071 230 L 39 230 39 232.340 C 39 236.333, 44.832 246.591, 49.602 250.987 C 56.602 257.440, 63.899 260.360, 72.980 260.345 C 90.591 260.314, 103.025 250.149, 107.935 231.768 C 109.882 224.478, 110 221.366, 110 177.241 C 110 136.505, 109.798 130.157, 108.443 128.223 C 106.598 125.588, 105.678 125.465, 103.571 127.571 M 14 194.031 L 14 222.062 26.141 221.781 L 38.282 221.500 39.441 216.929 C 41.961 206.990, 49.620 197.948, 59.360 193.413 C 62.187 192.096, 65.737 191.015, 67.250 191.010 L 70 191 70 178.500 L 70 166 42 166 L 14 166 14 194.031 M 148.994 190.891 C 140.462 193.635, 135.484 199.187, 134.388 207.183 C 133.831 211.252, 134.015 211.937, 135.942 212.969 C 138.893 214.548, 140.486 213.098, 141.879 207.567 C 144.775 196.066, 159.576 194.320, 163.983 204.959 C 164.673 206.624, 165.025 208.798, 164.765 209.789 C 164.506 210.781, 157.478 221.802, 149.147 234.280 C 140.816 246.758, 134 257.595, 134 258.361 C 134 261.608, 136.598 262.051, 154.024 261.774 C 169.193 261.533, 171.418 261.288, 172.387 259.750 C 173.190 258.476, 173.190 257.524, 172.389 256.250 C 171.462 254.776, 169.238 254.421, 158.291 254 L 145.294 253.500 159.248 232.257 L 173.203 211.013 171.976 205.898 C 170.658 200.407, 166.488 194.821, 161.957 192.478 C 158.388 190.632, 152.165 189.871, 148.994 190.891 M 254.970 191.048 C 234.209 194.145, 214.879 208.291, 205.533 227.227 C 199.176 240.106, 195.896 257.496, 199.200 260.800 C 200.932 262.532, 234.376 262.487, 235.729 260.750 C 236.265 260.063, 237.243 255.517, 237.903 250.650 C 239.344 240.026, 241.769 233.195, 246.886 225.354 C 257.170 209.594, 273.403 199.678, 291.395 198.164 C 300.014 197.439, 302.590 195.745, 300.387 192.250 C 299.403 190.690, 297.183 190.485, 279.892 190.362 C 269.226 190.286, 258.012 190.595, 254.970 191.048 M 63.463 199.591 C 55.567 202.395, 48.189 210.737, 46.519 218.750 L 45.841 222 57.921 222 L 70 222 70 210 C 70 196.801, 70.241 197.185, 63.463 199.591 M 78 212.429 C 78 224.212, 77.712 227.145, 76.429 228.429 C 75.145 229.712, 72.210 230, 60.410 230 L 45.962 230 46.599 232.750 C 48.443 240.705, 55.857 248.741, 63.872 251.472 C 79.237 256.708, 95.937 248.034, 100.098 232.657 C 102.737 222.903, 98.614 210.030, 90.891 203.914 C 87.943 201.578, 80.369 198, 78.374 198 C 78.168 198, 78 204.493, 78 212.429 M 250.072 199.591 C 247.086 200.394, 241.686 202.482, 238.072 204.232 C 229.063 208.594, 216.497 221.095, 212.125 230.045 C 208.536 237.392, 206.030 245.880, 206.012 250.750 L 206 254 217.792 254 L 229.584 254 231.202 245.427 C 234.400 228.490, 244.497 212.619, 258.192 203.001 L 265.314 198 260.407 198.066 C 257.708 198.102, 253.057 198.788, 250.072 199.591 " stroke="none" fill="black" fill-rule="evenodd"/>
</svg>