<svg xmlns="http://www.w3.org/2000/svg" width="292" height="324" viewBox="0 0 292 324" version="1.1">
	<path d="M 103.571 127.571 C 102.199 128.944, 102 133.890, 102 166.699 L 102 204.255 97.599 200.198 C 92.503 195.500, 86.962 192.459, 81.703 191.472 L 78 190.777 78 175.960 C 78 163.823, 77.716 160.859, 76.429 159.571 C 75.064 158.207, 70.537 158, 42 158 C 13.463 158, 8.936 158.207, 7.571 159.571 C 6.207 160.936, 6 165.463, 6 194 C 6 222.537, 6.207 227.064, 7.571 228.429 C 8.860 229.717, 11.833 230, 24.071 230 L 39 230 39 232.340 C 39 236.275, 44.804 246.565, 49.427 250.826 C 54.921 255.891, 59.905 258.439, 67.295 259.965 C 80.673 262.726, 96.460 255.605, 103.464 243.651 C 109.280 233.724, 109.464 231.820, 109.762 178.340 C 110.007 134.505, 109.864 129.007, 108.447 127.590 C 106.455 125.597, 105.549 125.594, 103.571 127.571 M 231.750 127.080 C 230.111 128.035, 230 132.293, 230 194.015 C 230 259.587, 230.011 259.935, 232.064 261.034 C 237.084 263.721, 237 264.854, 237 194.078 C 237 123.068, 237.071 123.981, 231.750 127.080 M 263.315 143.213 C 253.792 152.680, 246 161.134, 246 162 C 246 163.680, 279.953 198, 281.615 198 C 283.105 198, 285 195.795, 285 194.062 C 285 193.216, 278.143 185.656, 269.762 177.262 L 254.524 162 269.762 146.738 C 278.143 138.344, 285 130.784, 285 129.938 C 285 128.205, 283.105 126, 281.615 126 C 281.073 126, 272.838 133.746, 263.315 143.213 M 14 194 L 14 222 26.500 222 L 39 222 39 219.160 C 39 217.598, 40.362 213.594, 42.027 210.262 C 46.879 200.552, 56.578 192.891, 65.908 191.399 L 70 190.744 70 178.372 L 70 166 42 166 L 14 166 14 194 M 135.571 191.571 C 134.707 192.436, 134 193.640, 134 194.249 C 134 194.857, 140.844 202.250, 149.208 210.677 L 164.416 226 149.208 241.323 C 140.844 249.750, 134 257.143, 134 257.751 C 134 259.181, 136.819 262, 138.249 262 C 138.857 262, 146.250 255.156, 154.677 246.792 L 170 231.584 185.323 246.792 C 193.750 255.156, 201.085 262, 201.623 262 C 203.244 262, 205 259.725, 205 257.625 C 205 256.420, 199.267 249.871, 190.293 240.825 L 175.586 226 190.293 211.175 C 199.267 202.129, 205 195.580, 205 194.375 C 205 192.275, 203.244 190, 201.623 190 C 201.085 190, 193.750 196.844, 185.323 205.208 L 170 220.416 154.677 205.208 C 146.250 196.844, 138.857 190, 138.249 190 C 137.640 190, 136.436 190.707, 135.571 191.571 M 63.385 199.617 C 55.428 202.439, 48.611 210.342, 46.450 219.250 L 45.783 222 57.892 222 L 70 222 70 210 C 70 196.784, 70.253 197.181, 63.385 199.617 M 78 212.429 C 78 224.212, 77.712 227.145, 76.429 228.429 C 75.145 229.713, 72.206 230, 60.361 230 L 45.865 230 46.525 232.250 C 50.320 245.188, 60.495 253, 73.552 253 C 88.843 253, 101 240.819, 101 225.500 C 101 214.038, 93.486 203.200, 82.965 199.488 C 80.646 198.669, 78.580 198, 78.374 198 C 78.168 198, 78 204.493, 78 212.429 " stroke="none" fill="black" fill-rule="evenodd"/>
</svg>