<svg xmlns="http://www.w3.org/2000/svg" width="403" height="324" viewBox="0 0 403 324" version="1.1">
	<path d="M 130.223 127.021 C 116.369 129.885, 104.332 143.127, 102.450 157.573 C 101.925 161.606, 102.133 162.990, 103.466 164.323 C 104.388 165.245, 105.535 166, 106.015 166 C 107.752 166, 110 161.473, 110 157.974 C 110 152.997, 114.402 144.668, 119.205 140.557 C 131.299 130.204, 150.833 132.513, 159.646 145.337 C 164.525 152.438, 165.497 156.932, 164.172 166.269 C 162.883 175.352, 157.464 192.157, 152.923 201.153 C 143.020 220.770, 126.127 239.393, 108.190 250.464 C 104.861 252.518, 101.941 254.717, 101.700 255.350 C 100.900 257.455, 102.883 260.933, 105.207 261.500 C 106.468 261.807, 121.851 261.933, 139.391 261.780 C 168.497 261.524, 171.379 261.347, 172.386 259.750 C 173.191 258.474, 173.191 257.526, 172.387 256.250 C 171.394 254.675, 168.579 254.450, 144.169 254 L 117.054 253.500 124.134 248 C 147.390 229.933, 164.622 201.584, 170.872 171.112 C 173.945 156.133, 171.262 146.177, 161.518 136.404 C 153.788 128.649, 140.955 124.802, 130.223 127.021 M 263.200 127.200 C 262.319 128.081, 262 136.578, 262 159.200 L 262 190 231.934 190 C 213.122 190, 201.145 190.387, 199.934 191.035 C 198.870 191.605, 198 192.939, 198 194 C 198 195.061, 198.870 196.395, 199.934 196.965 C 201.145 197.613, 213.122 198, 231.934 198 L 262 198 262 228.800 C 262 251.422, 262.319 259.919, 263.200 260.800 C 264.935 262.535, 394.065 262.535, 395.800 260.800 C 397.535 259.065, 397.535 128.935, 395.800 127.200 C 394.065 125.465, 264.935 125.465, 263.200 127.200 M 269 162 L 269 190 294.736 190 L 320.472 190 307.236 176.737 C 299.956 169.442, 294 162.708, 294 161.772 C 294 160.836, 294.954 159.560, 296.120 158.936 C 298.049 157.903, 299.785 159.313, 315.471 174.651 C 328.692 187.578, 332.703 192.082, 332.703 194 C 332.703 195.918, 328.692 200.422, 315.471 213.349 C 299.785 228.687, 298.049 230.097, 296.120 229.064 C 294.954 228.440, 294 227.164, 294 226.228 C 294 225.292, 299.956 218.558, 307.236 211.263 L 320.472 198 294.736 198 L 269 198 269 226 L 269 254 329.500 254 L 390 254 390 194 L 390 134 329.500 134 L 269 134 269 162 M 7.571 159.571 C 6.207 160.936, 6 165.463, 6 194 C 6 222.537, 6.207 227.064, 7.571 228.429 C 8.936 229.793, 13.463 230, 42 230 C 70.537 230, 75.064 229.793, 76.429 228.429 C 77.793 227.064, 78 222.537, 78 194 C 78 165.463, 77.793 160.936, 76.429 159.571 C 75.064 158.207, 70.537 158, 42 158 C 13.463 158, 8.936 158.207, 7.571 159.571 M 14 194 L 14 222 42 222 L 70 222 70 194 L 70 166 42 166 L 14 166 14 194 " stroke="none" fill="black" fill-rule="evenodd"/>
</svg>