<svg xmlns="http://www.w3.org/2000/svg" width="244" height="324" viewBox="0 0 244 324" version="1.1">
	<path d="M 151.571 63.571 C 150.707 64.436, 150 65.279, 150 65.446 C 150 66.666, 167.028 100.899, 167.903 101.440 C 170.691 103.163, 172.903 100.249, 180.760 84.501 C 185.292 75.417, 189 67.143, 189 66.115 C 189 63.642, 186.675 61.804, 184.569 62.612 C 183.643 62.967, 179.930 69.156, 176.318 76.363 L 169.751 89.469 163.767 77.484 C 157.953 65.839, 155.511 62, 153.916 62 C 153.491 62, 152.436 62.707, 151.571 63.571 M 159.500 127.042 C 142.878 129.570, 128.100 138.311, 116.620 152.406 C 106.946 164.283, 102.593 177.034, 102.593 193.500 C 102.593 209.972, 106.814 222.353, 116.598 234.584 C 130.224 251.617, 148.175 260.349, 169.500 260.319 C 187.884 260.292, 202.916 254.066, 216.095 241.019 C 238.061 219.274, 242.576 187.566, 227.564 160.487 C 219.551 146.033, 202.351 132.693, 186.500 128.638 C 178.545 126.602, 166.910 125.915, 159.500 127.042 M 153.500 135.893 C 142.823 139.009, 135.044 143.699, 126.993 151.876 C 115.129 163.924, 110 176.487, 110 193.500 C 110 210.553, 115.144 223.132, 126.993 235.054 C 139.057 247.193, 152.600 253, 168.845 253 C 179.674 253, 185.916 251.576, 195.820 246.847 C 211.079 239.562, 222.717 225.246, 227.003 208.489 C 228.101 204.194, 229 200.077, 229 199.340 C 229 198.249, 223.359 198, 198.700 198 C 176.467 198, 168.081 197.681, 167.200 196.800 C 166.319 195.919, 166 187.422, 166 164.800 L 166 134 162.750 134.071 C 160.963 134.110, 156.800 134.930, 153.500 135.893 M 173 162 L 173 190 201 190 C 233.229 190, 230.275 191.305, 227.003 178.511 C 222.717 161.754, 211.079 147.438, 195.820 140.153 C 188.142 136.487, 179.707 134, 174.951 134 C 173.063 134, 173 134.902, 173 162 M 7.571 191.571 C 6.707 192.436, 6 193.529, 6 194 C 6 194.471, 6.707 195.564, 7.571 196.429 C 8.936 197.793, 13.463 198, 42 198 C 70.537 198, 75.064 197.793, 76.429 196.429 C 77.293 195.564, 78 194.471, 78 194 C 78 193.529, 77.293 192.436, 76.429 191.571 C 75.064 190.207, 70.537 190, 42 190 C 13.463 190, 8.936 190.207, 7.571 191.571 " stroke="none" fill="black" fill-rule="evenodd"/>
</svg>