<svg xmlns="http://www.w3.org/2000/svg" width="180" height="324" viewBox="0 0 180 324" version="1.1">
	<path d="M 103.200 159.200 C 101.481 160.919, 101.481 227.081, 103.200 228.800 C 104.919 230.519, 171.081 230.519, 172.800 228.800 C 174.519 227.081, 174.519 160.919, 172.800 159.200 C 171.081 157.481, 104.919 157.481, 103.200 159.200 M 110 194 L 110 222 138 222 L 166 222 166 194 L 166 166 138 166 L 110 166 110 194 M 7.571 191.571 C 6.707 192.436, 6 193.529, 6 194 C 6 194.471, 6.707 195.564, 7.571 196.429 C 8.936 197.793, 13.463 198, 42 198 C 70.537 198, 75.064 197.793, 76.429 196.429 C 77.293 195.564, 78 194.471, 78 194 C 78 193.529, 77.293 192.436, 76.429 191.571 C 75.064 190.207, 70.537 190, 42 190 C 13.463 190, 8.936 190.207, 7.571 191.571 " stroke="none" fill="black" fill-rule="evenodd"/>
</svg>