<svg xmlns="http://www.w3.org/2000/svg" width="468" height="324" viewBox="0 0 468 324" version="1.1">
	<path d="M 63.870 127.014 C 48.636 129.407, 37.616 135.194, 25.974 146.916 C 12.475 160.507, 6.696 174.473, 6.696 193.500 C 6.696 205.257, 8.549 213.240, 13.778 224 C 18.922 234.587, 32.441 248.092, 43 253.193 C 54.006 258.510, 61.840 260.347, 73.500 260.347 C 92.757 260.347, 106.531 254.547, 120.539 240.539 C 134.551 226.527, 140.304 212.834, 140.304 193.500 C 140.304 174.166, 134.551 160.473, 120.539 146.461 C 110.721 136.644, 102.174 131.566, 90.500 128.618 C 82.592 126.621, 70.868 125.914, 63.870 127.014 M 195.045 127.092 C 179.977 130.046, 168.919 142.108, 166.587 158.135 C 166.064 161.723, 166.277 163.134, 167.527 164.385 C 168.416 165.273, 169.529 166, 170 166 C 171.912 166, 174 162.663, 174 159.607 C 174 149.949, 182.088 138.862, 191.463 135.667 C 202.255 131.990, 213.476 134.381, 221.071 141.976 C 229.764 150.669, 230.955 160.749, 225.504 179.500 C 222.403 190.169, 214.905 206.305, 209.025 214.964 C 199.293 229.294, 184.360 243.581, 171.194 251.158 C 166.647 253.774, 165.931 254.590, 166.194 256.856 C 166.851 262.531, 171.648 260.630, 187.500 248.414 C 210.219 230.905, 226.059 206.445, 233.690 177.085 C 235.076 171.754, 236.193 164.615, 236.206 161 C 236.270 144.360, 224.264 130.144, 207.566 127.087 C 200.965 125.878, 201.242 125.878, 195.045 127.092 M 58.645 135.584 C 38.761 140.397, 20.825 158.334, 15.585 178.644 C 13.593 186.367, 13.571 199.556, 15.537 207.897 C 17.897 217.907, 23.454 227.541, 31.459 235.500 C 35.332 239.350, 39.936 243.298, 41.692 244.272 L 44.884 246.045 42.522 241.772 C 33.471 225.405, 40.012 203.806, 56.767 194.738 C 73.800 185.519, 95.082 191.806, 104.262 208.767 C 109.824 219.043, 109.944 230.847, 104.593 241.416 L 102.306 245.932 105.370 244.216 C 111.289 240.900, 122.397 228.756, 126.243 221.397 C 135.318 204.030, 135.327 183.058, 126.268 165.603 C 118.909 151.423, 103.255 139.158, 87.897 135.537 C 79.998 133.676, 66.439 133.697, 58.645 135.584 M 423.571 159.571 C 422.707 160.436, 422 161.636, 422 162.239 C 422 162.841, 427.941 169.334, 435.202 176.667 L 448.405 190 420.274 190 C 388.532 190, 389.012 189.888, 388.985 197.321 C 388.902 220.830, 368.153 245.745, 343.897 251.463 C 335.718 253.390, 323.282 253.390, 315.103 251.463 C 290.887 245.754, 270.098 220.791, 270.015 197.321 C 270.001 193.426, 268.122 190, 266 190 C 265.529 190, 264.411 190.732, 263.515 191.627 C 261.684 193.459, 262.060 199.976, 264.580 210.093 C 270.327 233.163, 289.402 252.253, 313 258.551 C 320.925 260.666, 336.349 260.927, 344 259.075 C 364.480 254.119, 380.949 240.846, 390.126 221.902 C 393.263 215.425, 396 205.736, 396 201.106 L 396 198 422.202 198 L 448.405 198 435.202 211.333 C 427.941 218.666, 422 225.159, 422 225.761 C 422 227.187, 424.825 230, 426.257 230 C 428.006 230, 462 195.761, 462 194 C 462 192.239, 428.006 158, 426.257 158 C 425.644 158, 424.436 158.707, 423.571 159.571 M 63.605 199.568 C 56.049 202.337, 56.073 202.527, 65.170 211.671 L 73.457 220.001 81.692 211.809 C 90.838 202.711, 90.906 202.178, 83.260 199.573 C 77.620 197.651, 68.842 197.649, 63.605 199.568 M 50.184 210.278 C 46.139 215.152, 44.867 227.319, 47.573 235.260 C 50.178 242.906, 50.711 242.838, 59.809 233.692 L 68.001 225.457 59.671 217.170 C 52.854 210.389, 51.131 209.137, 50.184 210.278 M 87.191 217.308 L 78.999 225.543 87.329 233.830 C 96.530 242.983, 96.678 242.998, 99.487 235.038 C 101.439 229.503, 101.415 221.574, 99.427 215.740 C 96.822 208.094, 96.289 208.162, 87.191 217.308 M 65.170 239.329 C 56.017 248.530, 56.002 248.678, 63.962 251.487 C 69.497 253.439, 77.426 253.415, 83.260 251.427 C 90.906 248.822, 90.838 248.289, 81.692 239.191 L 73.457 230.999 65.170 239.329 " stroke="none" fill="black" fill-rule="evenodd"/>
</svg>