<svg xmlns="http://www.w3.org/2000/svg" width="595" height="324" viewBox="0 0 595 324" version="1.1">
	<path d="M 103.571 127.571 C 102.199 128.944, 102 133.890, 102 166.699 L 102 204.255 97.599 200.198 C 92.503 195.500, 86.962 192.459, 81.703 191.472 L 78 190.777 78 175.960 C 78 163.823, 77.716 160.859, 76.429 159.571 C 75.064 158.207, 70.537 158, 42 158 C 13.463 158, 8.936 158.207, 7.571 159.571 C 6.207 160.936, 6 165.463, 6 194 C 6 222.537, 6.207 227.064, 7.571 228.429 C 8.860 229.717, 11.833 230, 24.071 230 L 39 230 39 232.340 C 39 236.275, 44.804 246.565, 49.427 250.826 C 54.921 255.891, 59.905 258.439, 67.295 259.965 C 80.673 262.726, 96.460 255.605, 103.464 243.651 C 109.280 233.724, 109.464 231.820, 109.762 178.340 C 110.007 134.505, 109.864 129.007, 108.447 127.590 C 106.455 125.597, 105.549 125.594, 103.571 127.571 M 135.571 127.571 C 134.707 128.436, 134 129.529, 134 130 C 134 130.471, 134.707 131.564, 135.571 132.429 C 136.966 133.823, 144.015 134, 198.071 134 C 231.582 134, 259 134.223, 259 134.495 C 259 134.768, 252.816 147.368, 245.258 162.495 L 231.517 190 216.330 190 C 203.857 190, 200.862 190.281, 199.571 191.571 C 197.598 193.545, 197.598 194.455, 199.571 196.429 C 200.838 197.695, 203.652 198, 214.071 198 C 221.182 198, 227 198.223, 227 198.496 C 227 198.768, 220.365 212.269, 212.257 228.498 C 200.169 252.690, 197.712 258.320, 198.616 259.752 C 199.629 261.360, 202.432 261.500, 233.500 261.500 C 264.586 261.500, 267.370 261.360, 268.386 259.750 C 269.191 258.474, 269.191 257.526, 268.386 256.250 C 267.382 254.658, 264.613 254.476, 237.645 254.235 L 208.008 253.970 222.007 225.985 L 236.007 198 278.240 198 L 320.472 198 307.236 211.263 C 299.956 218.558, 294 225.292, 294 226.228 C 294 227.164, 294.952 228.439, 296.115 229.062 C 298.040 230.092, 299.775 228.675, 315.354 213.347 C 324.772 204.081, 332.843 195.938, 333.289 195.250 C 333.734 194.562, 333.734 193.437, 333.289 192.750 C 332.843 192.063, 324.772 183.919, 315.354 174.653 C 299.775 159.325, 298.040 157.908, 296.115 158.938 C 294.952 159.561, 294 160.836, 294 161.772 C 294 162.708, 299.956 169.442, 307.236 176.737 L 320.472 190 280.233 190 L 239.994 190 254.997 160.006 C 263.249 143.510, 270 129.817, 270 129.578 C 270 129.339, 269.293 128.436, 268.429 127.571 C 267.032 126.175, 259.628 126, 202 126 C 144.372 126, 136.968 126.175, 135.571 127.571 M 386.355 158.986 C 376.008 161.168, 366.042 169.106, 361.244 178.987 C 358.948 183.715, 358.567 185.781, 358.567 193.500 C 358.567 201.219, 358.948 203.285, 361.244 208.013 C 368.666 223.297, 385.889 231.633, 401.490 227.491 C 416.935 223.390, 426.851 211.509, 427.774 196 C 428.304 187.083, 427.184 182.382, 422.778 175.035 C 415.575 163.025, 399.916 156.126, 386.355 158.986 M 455.200 159.200 C 453.481 160.919, 453.481 227.081, 455.200 228.800 C 456.935 230.535, 586.065 230.535, 587.800 228.800 C 589.519 227.081, 589.519 160.919, 587.800 159.200 C 586.065 157.465, 456.935 157.465, 455.200 159.200 M 14 194 L 14 222 26.500 222 L 39 222 39 219.160 C 39 217.598, 40.362 213.594, 42.027 210.262 C 46.879 200.552, 56.578 192.891, 65.908 191.399 L 70 190.744 70 178.372 L 70 166 42 166 L 14 166 14 194 M 383.885 167.380 C 365.517 173.944, 359.505 198.336, 372.804 212.339 C 380.604 220.553, 393.637 223.362, 403.754 219.010 C 425.944 209.464, 426.399 178.601, 404.500 168.358 C 398.785 165.685, 389.818 165.259, 383.885 167.380 M 461 194 L 461 222 473.500 222 L 486 222 486 194 L 486 166 473.500 166 L 461 166 461 194 M 493 194 L 493 222 505.500 222 L 518 222 518 194 L 518 166 505.500 166 L 493 166 493 194 M 525 194 L 525 222 537.500 222 L 550 222 550 194 L 550 166 537.500 166 L 525 166 525 194 M 557 194 L 557 222 569.500 222 L 582 222 582 194 L 582 166 569.500 166 L 557 166 557 194 M 63.385 199.617 C 55.428 202.439, 48.611 210.342, 46.450 219.250 L 45.783 222 57.892 222 L 70 222 70 210 C 70 196.784, 70.253 197.181, 63.385 199.617 M 78 212.429 C 78 224.212, 77.712 227.145, 76.429 228.429 C 75.145 229.713, 72.206 230, 60.361 230 L 45.865 230 46.525 232.250 C 50.320 245.188, 60.495 253, 73.552 253 C 88.843 253, 101 240.819, 101 225.500 C 101 214.038, 93.486 203.200, 82.965 199.488 C 80.646 198.669, 78.580 198, 78.374 198 C 78.168 198, 78 204.493, 78 212.429 " stroke="none" fill="black" fill-rule="evenodd"/>
</svg>