<svg xmlns="http://www.w3.org/2000/svg" width="532" height="324" viewBox="0 0 532 324" version="1.1">
	<path d="M 103.571 127.571 C 102.199 128.944, 102 133.890, 102 166.699 L 102 204.255 97.599 200.198 C 92.503 195.500, 86.962 192.459, 81.703 191.472 L 78 190.777 78 175.960 C 78 163.823, 77.716 160.859, 76.429 159.571 C 75.064 158.207, 70.537 158, 42 158 C 13.463 158, 8.936 158.207, 7.571 159.571 C 6.207 160.936, 6 165.463, 6 194 C 6 222.537, 6.207 227.064, 7.571 228.429 C 8.859 229.716, 11.823 230, 23.960 230 L 38.777 230 39.472 233.703 C 42.652 250.653, 62.019 263.421, 79.372 260.007 C 93.785 257.171, 103.262 248.301, 107.692 233.500 C 109.296 228.142, 109.517 222.238, 109.762 178.340 C 110.007 134.505, 109.864 129.007, 108.447 127.590 C 106.455 125.597, 105.549 125.594, 103.571 127.571 M 135.571 127.571 C 134.707 128.436, 134 129.529, 134 130 C 134 130.471, 134.707 131.564, 135.571 132.429 C 136.966 133.823, 144.061 134, 198.575 134 L 260.007 134 246 162 L 231.993 190 216.568 190 C 203.878 190, 200.864 190.279, 199.571 191.571 C 197.598 193.545, 197.598 194.455, 199.571 196.429 C 200.844 197.701, 203.699 198, 214.589 198 L 228.036 198 212.890 228.186 C 201.364 251.157, 197.980 258.745, 198.731 259.936 C 199.595 261.304, 203.942 261.500, 233.500 261.500 C 264.586 261.500, 267.370 261.360, 268.386 259.750 C 269.191 258.474, 269.191 257.526, 268.386 256.250 C 267.382 254.658, 264.613 254.476, 237.645 254.235 L 208.008 253.970 222.007 225.985 L 236.007 198 278.206 198 L 320.405 198 307.202 211.333 C 299.941 218.666, 294 225.159, 294 225.761 C 294 227.178, 296.822 230, 298.238 230 C 299.916 230, 334 195.689, 334 194 C 334 192.311, 299.916 158, 298.238 158 C 296.822 158, 294 160.822, 294 162.239 C 294 162.841, 299.941 169.334, 307.202 176.667 L 320.405 190 280.199 190 L 239.994 190 254.997 160.006 C 263.249 143.510, 270 129.817, 270 129.578 C 270 129.339, 269.293 128.436, 268.429 127.571 C 267.032 126.175, 259.628 126, 202 126 C 144.372 126, 136.968 126.175, 135.571 127.571 M 455.664 127.256 C 454.064 128.426, 453.965 133.223, 454.223 197.006 L 454.500 265.500 457.324 271.610 C 460.864 279.270, 467.725 286.091, 475.419 289.601 C 490.575 296.515, 509.560 290.712, 518.777 276.347 C 524.851 266.883, 524.969 265.302, 524.985 193.372 C 525.001 123.186, 525.082 124.280, 520.064 126.966 C 518.018 128.061, 518 128.534, 518 182.336 L 518 236.602 512.938 231.850 C 506.177 225.502, 498.802 222.671, 489 222.660 C 480.083 222.650, 471.277 226.055, 465.917 231.586 C 464.097 233.464, 462.246 235, 461.804 235 C 461.362 235, 461 211.015, 461 181.700 C 461 123.945, 460.946 123.394, 455.664 127.256 M 14 194 L 14 222 26.500 222 L 39 222 39 219.160 C 39 217.598, 40.362 213.594, 42.027 210.262 C 46.879 200.552, 56.578 192.891, 65.908 191.399 L 70 190.744 70 178.372 L 70 166 42 166 L 14 166 14 194 M 359.571 191.571 C 358.707 192.436, 358 193.640, 358 194.249 C 358 194.857, 364.844 202.250, 373.208 210.677 L 388.416 226 373.208 241.323 C 364.844 249.750, 358 257.143, 358 257.751 C 358 258.967, 360.736 262, 361.834 262 C 362.213 262, 369.482 255.031, 377.987 246.514 L 393.449 231.027 409.045 246.514 C 417.623 255.031, 425.082 262, 425.621 262 C 427.106 262, 429 259.793, 429 258.062 C 429 257.216, 422.143 249.656, 413.762 241.262 L 398.524 226 413.762 210.738 C 422.143 202.344, 429 194.784, 429 193.938 C 429 192.207, 427.106 190, 425.621 190 C 425.082 190, 417.623 196.969, 409.045 205.486 L 393.449 220.973 377.987 205.486 C 369.482 196.969, 362.213 190, 361.834 190 C 361.454 190, 360.436 190.707, 359.571 191.571 M 63.385 199.617 C 55.428 202.439, 48.611 210.342, 46.450 219.250 L 45.783 222 57.892 222 L 70 222 70 210 C 70 196.784, 70.253 197.181, 63.385 199.617 M 78 212.361 C 78 224.206, 77.713 227.145, 76.429 228.429 C 75.145 229.713, 72.206 230, 60.361 230 L 45.865 230 46.525 232.250 C 50.314 245.167, 60.497 253, 73.500 253 C 84.056 253, 93.863 246.925, 98.523 237.500 C 101.287 231.908, 101.293 219.099, 98.533 213.533 C 94.948 206.303, 88.603 201.103, 80.250 198.552 L 78 197.865 78 212.361 M 479.627 231.468 C 474.247 233.386, 469.039 237.829, 465.500 243.519 C 461.527 249.908, 460.712 261.311, 463.741 268.129 C 468.389 278.589, 476.227 284.058, 487.616 284.789 C 494.399 285.224, 495.556 285.001, 501.397 282.125 C 513.374 276.229, 519.511 262.958, 516.096 250.337 C 512.933 238.647, 501.616 229.959, 489.663 230.044 C 486.273 230.068, 481.757 230.709, 479.627 231.468 " stroke="none" fill="black" fill-rule="evenodd"/>
</svg>