<svg xmlns="http://www.w3.org/2000/svg" width="340" height="324" viewBox="0 0 340 324" version="1.1">
	<path d="M 39.571 127.571 C 38.176 128.966, 38 136.152, 38 191.571 L 38 254 23.571 254 C 11.788 254, 8.855 254.288, 7.571 255.571 C 5.598 257.545, 5.598 258.455, 7.571 260.429 C 8.936 261.793, 13.463 262, 42 262 C 70.537 262, 75.064 261.793, 76.429 260.429 C 77.293 259.564, 78 258.471, 78 258 C 78 257.529, 77.293 256.436, 76.429 255.571 C 75.145 254.288, 72.212 254, 60.429 254 L 46 254 46 191.571 C 46 136.152, 45.824 128.966, 44.429 127.571 C 43.564 126.707, 42.471 126, 42 126 C 41.529 126, 40.436 126.707, 39.571 127.571 M 199.571 127.571 C 198.175 128.968, 198 136.372, 198 194 C 198 251.628, 198.175 259.032, 199.571 260.429 C 200.436 261.293, 201.529 262, 202 262 C 202.471 262, 203.564 261.293, 204.429 260.429 C 205.825 259.032, 206 251.628, 206 194 C 206 136.372, 205.825 128.968, 204.429 127.571 C 203.564 126.707, 202.471 126, 202 126 C 201.529 126, 200.436 126.707, 199.571 127.571 M 327.750 127.080 C 326.111 128.035, 326 132.293, 326 194.015 C 326 259.587, 326.011 259.935, 328.064 261.034 C 333.084 263.721, 333 264.854, 333 194.078 C 333 123.068, 333.071 123.981, 327.750 127.080 M 263.750 159.080 C 262.207 159.979, 262 161.866, 262 175.050 L 262 190 247.934 190 C 233.308 190, 230 190.738, 230 194 C 230 197.262, 233.308 198, 247.934 198 L 262 198 262 212.965 C 262 227.324, 262.088 227.977, 264.183 229.098 C 266.042 230.093, 266.636 229.933, 268.183 228.022 C 269.744 226.095, 270 223.823, 270 211.916 L 270 198.053 284.643 197.777 C 297.314 197.537, 299.433 197.264, 300.387 195.750 C 301.191 194.475, 301.191 193.525, 300.387 192.250 C 299.433 190.736, 297.314 190.463, 284.643 190.223 L 270 189.947 270 176.196 C 270 165.369, 269.669 161.972, 268.443 160.223 C 266.702 157.736, 266.248 157.625, 263.750 159.080 M 135.656 190.750 C 131.525 197.458, 102.200 258.358, 102.600 259.400 C 103.266 261.135, 105.518 262.122, 107.274 261.448 C 107.975 261.180, 115.056 247.919, 123.010 231.980 C 130.964 216.041, 137.737 203, 138.060 203 C 138.384 203, 145.029 216.003, 152.828 231.895 C 160.627 247.787, 167.682 261.048, 168.504 261.363 C 170.466 262.116, 172.705 261.212, 173.406 259.384 C 173.993 257.855, 141.599 192.045, 139.630 190.765 C 138.160 189.809, 136.240 189.802, 135.656 190.750 " stroke="none" fill="black" fill-rule="evenodd"/>
</svg>