<svg xmlns="http://www.w3.org/2000/svg" width="372" height="324" viewBox="0 0 372 324" version="1.1">
	<path d="M 35.045 127.092 C 24.744 129.112, 14.837 136.518, 10.151 145.705 C 7.578 150.747, 5.616 161.395, 6.828 163.738 C 7.329 164.707, 8.525 169.100, 9.484 173.500 C 15.002 198.806, 28.176 222.394, 46.651 240.044 C 55.999 248.975, 71.173 260, 74.117 260 C 77.343 260, 97.892 244.006, 106.315 234.940 C 123.254 216.706, 134.286 194.893, 139.417 169.483 C 140.690 163.183, 140.816 160.292, 140.004 155.983 C 135.594 132.555, 112.327 120.242, 90.616 129.845 C 85.222 132.232, 79.372 137.363, 76.005 142.662 L 73.360 146.824 71.503 143.377 C 69.181 139.064, 62.418 132.764, 57.318 130.162 C 55.183 129.073, 50.781 127.691, 47.535 127.091 C 40.969 125.877, 41.243 125.877, 35.045 127.092 M 231.571 127.571 C 230.175 128.968, 230 136.372, 230 194 C 230 251.628, 230.175 259.032, 231.571 260.429 C 232.436 261.293, 233.529 262, 234 262 C 234.471 262, 235.564 261.293, 236.429 260.429 C 237.825 259.032, 238 251.628, 238 194 C 238 136.372, 237.825 128.968, 236.429 127.571 C 235.564 126.707, 234.471 126, 234 126 C 233.529 126, 232.436 126.707, 231.571 127.571 M 359.571 127.571 C 358.175 128.968, 358 136.372, 358 194 C 358 251.628, 358.175 259.032, 359.571 260.429 C 360.436 261.293, 361.529 262, 362 262 C 362.471 262, 363.564 261.293, 364.429 260.429 C 365.825 259.032, 366 251.628, 366 194 C 366 136.372, 365.825 128.968, 364.429 127.571 C 363.564 126.707, 362.471 126, 362 126 C 361.529 126, 360.436 126.707, 359.571 127.571 M 31.054 135.728 C 24.820 137.929, 17.726 145.300, 15.557 151.828 C 14.045 156.381, 13.979 157.954, 15.032 164.270 C 20.746 198.525, 39.651 228.764, 67.165 247.660 L 73.830 252.237 81.654 246.869 C 91.636 240.019, 104.997 226.670, 111.815 216.732 C 122.428 201.263, 131.249 178.930, 132.635 164.020 C 134.570 143.192, 115.675 128.780, 95.463 135.667 C 86.088 138.862, 78 149.949, 78 159.607 C 78 162.970, 75.867 166, 73.500 166 C 71.133 166, 69 162.970, 69 159.607 C 69 149.949, 60.912 138.862, 51.537 135.667 C 45.516 133.616, 36.964 133.641, 31.054 135.728 M 295.571 159.571 C 294.288 160.855, 294 163.788, 294 175.571 L 294 190 279.571 190 C 267.788 190, 264.855 190.288, 263.571 191.571 C 261.598 193.545, 261.598 194.455, 263.571 196.429 C 264.855 197.712, 267.788 198, 279.571 198 L 294 198 294 212.429 C 294 224.212, 294.288 227.145, 295.571 228.429 C 297.545 230.402, 298.455 230.402, 300.429 228.429 C 301.712 227.145, 302 224.212, 302 212.429 L 302 198 316.429 198 C 328.212 198, 331.145 197.712, 332.429 196.429 C 334.402 194.455, 334.402 193.545, 332.429 191.571 C 331.145 190.288, 328.212 190, 316.429 190 L 302 190 302 175.571 C 302 163.788, 301.712 160.855, 300.429 159.571 C 299.564 158.707, 298.471 158, 298 158 C 297.529 158, 296.436 158.707, 295.571 159.571 M 168.370 190.765 C 166.401 192.045, 134.007 257.855, 134.594 259.384 C 135.265 261.133, 137.512 262.124, 139.274 261.448 C 139.975 261.180, 147.056 247.919, 155.010 231.980 C 162.964 216.041, 169.710 203, 170 203 C 170.290 203, 177.036 216.041, 184.990 231.980 C 192.944 247.919, 200.025 261.180, 200.726 261.448 C 202.488 262.124, 204.735 261.133, 205.406 259.384 C 205.993 257.855, 173.599 192.045, 171.630 190.765 C 171.009 190.361, 170.275 190.031, 170 190.031 C 169.725 190.031, 168.991 190.361, 168.370 190.765 " stroke="none" fill="black" fill-rule="evenodd"/>
</svg>