<svg xmlns="http://www.w3.org/2000/svg" width="244" height="324" viewBox="0 0 244 324" version="1.1">
	<path d="M 103.571 127.571 C 102.175 128.968, 102 136.372, 102 194 C 102 251.628, 102.175 259.032, 103.571 260.429 C 104.436 261.293, 105.529 262, 106 262 C 106.471 262, 107.564 261.293, 108.429 260.429 C 109.825 259.032, 110 251.628, 110 194 C 110 136.372, 109.825 128.968, 108.429 127.571 C 107.564 126.707, 106.471 126, 106 126 C 105.529 126, 104.436 126.707, 103.571 127.571 M 231.750 127.080 C 230.111 128.035, 230 132.293, 230 194.015 C 230 259.587, 230.011 259.935, 232.064 261.034 C 237.084 263.721, 237 264.854, 237 194.078 C 237 123.068, 237.071 123.981, 231.750 127.080 M 167.571 159.571 C 166.288 160.855, 166 163.788, 166 175.571 L 166 190 151.571 190 C 139.788 190, 136.855 190.288, 135.571 191.571 C 133.598 193.545, 133.598 194.455, 135.571 196.429 C 136.855 197.712, 139.788 198, 151.571 198 L 166 198 166 212.429 C 166 224.212, 166.288 227.145, 167.571 228.429 C 169.678 230.535, 170.598 230.412, 172.443 227.777 C 173.669 226.028, 174 222.631, 174 211.804 L 174 198.053 188.643 197.777 C 201.314 197.537, 203.433 197.264, 204.387 195.750 C 205.191 194.475, 205.191 193.525, 204.387 192.250 C 203.433 190.736, 201.314 190.463, 188.643 190.223 L 174 189.947 174 176.196 C 174 165.369, 173.669 161.972, 172.443 160.223 C 170.598 157.588, 169.678 157.465, 167.571 159.571 M 40.348 190.765 C 38.390 192.014, 6.011 257.865, 6.600 259.400 C 7.266 261.135, 9.518 262.122, 11.274 261.448 C 11.975 261.180, 19.056 247.919, 27.010 231.980 C 34.964 216.041, 41.710 203, 42 203 C 42.290 203, 49.036 216.041, 56.990 231.980 C 64.944 247.919, 72.025 261.180, 72.726 261.448 C 74.488 262.124, 76.735 261.133, 77.406 259.384 C 77.993 257.855, 45.599 192.045, 43.630 190.765 C 43.009 190.361, 42.275 190.031, 42 190.031 C 41.725 190.031, 40.981 190.361, 40.348 190.765 " stroke="none" fill="black" fill-rule="evenodd"/>
</svg>