<svg xmlns="http://www.w3.org/2000/svg" width="244" height="324" viewBox="0 0 244 324" version="1.1">
	<path d="M 40.316 62.784 C 38.369 64.022, 22.007 97.855, 22.604 99.410 C 23.269 101.144, 25.524 102.120, 27.295 101.440 C 28.007 101.167, 31.480 95.106, 35.014 87.972 C 38.547 80.837, 41.691 75, 42 75 C 42.309 75, 45.453 80.837, 48.986 87.972 C 52.520 95.106, 55.993 101.167, 56.705 101.440 C 58.487 102.124, 60.732 101.141, 61.407 99.381 C 61.997 97.844, 45.582 64.037, 43.628 62.765 C 42.214 61.845, 41.789 61.847, 40.316 62.784 M 103.571 127.571 C 102.175 128.968, 102 136.372, 102 194 C 102 251.628, 102.175 259.032, 103.571 260.429 C 105.678 262.535, 106.598 262.412, 108.443 259.777 C 109.813 257.823, 110 249.904, 110 194 C 110 138.096, 109.813 130.177, 108.443 128.223 C 106.598 125.588, 105.678 125.465, 103.571 127.571 M 231.750 127.080 C 230.111 128.035, 230 132.293, 230 194.015 C 230 259.587, 230.011 259.935, 232.064 261.034 C 237.084 263.721, 237 264.854, 237 194.078 C 237 123.068, 237.071 123.981, 231.750 127.080 M 167.571 159.571 C 166.288 160.855, 166 163.788, 166 175.571 L 166 190 151.571 190 C 139.788 190, 136.855 190.288, 135.571 191.571 C 133.598 193.545, 133.598 194.455, 135.571 196.429 C 136.855 197.712, 139.788 198, 151.571 198 L 166 198 166 212.429 C 166 224.212, 166.288 227.145, 167.571 228.429 C 169.457 230.315, 170.219 230.381, 171.800 228.800 C 172.625 227.975, 173 222.984, 173 212.826 L 173 198.052 188.142 197.776 C 201.291 197.536, 203.430 197.270, 204.387 195.750 C 205.191 194.475, 205.191 193.525, 204.387 192.250 C 203.430 190.730, 201.291 190.464, 188.142 190.224 L 173 189.948 173 175.174 C 173 165.016, 172.625 160.025, 171.800 159.200 C 170.219 157.619, 169.457 157.685, 167.571 159.571 M 40.348 190.765 C 38.390 192.014, 6.011 257.865, 6.600 259.400 C 7.266 261.135, 9.518 262.122, 11.274 261.448 C 11.975 261.180, 19.056 247.919, 27.010 231.980 C 34.964 216.041, 41.710 203, 42 203 C 42.290 203, 49.036 216.041, 56.990 231.980 C 64.944 247.919, 72.025 261.180, 72.726 261.448 C 74.488 262.124, 76.735 261.133, 77.406 259.384 C 77.993 257.855, 45.599 192.045, 43.630 190.765 C 43.009 190.361, 42.275 190.031, 42 190.031 C 41.725 190.031, 40.981 190.361, 40.348 190.765 " stroke="none" fill="black" fill-rule="evenodd"/>
</svg>