<svg xmlns="http://www.w3.org/2000/svg" width="276" height="324" viewBox="0 0 276 324" version="1.1">
	<path d="M 34.223 191.062 C 24.045 193.068, 13.996 201.411, 9.216 211.825 C 5.512 219.894, 5.512 231.106, 9.216 239.175 C 14.033 249.670, 23.488 257.485, 34.660 260.205 C 38.048 261.031, 59.194 261.483, 105.158 261.713 C 164.159 262.008, 170.977 261.880, 172.408 260.449 C 174.403 258.455, 174.406 257.549, 172.429 255.571 C 171.039 254.182, 164.610 254, 116.801 254 L 62.745 254 66.802 249.599 C 79.713 235.592, 79.936 215.897, 67.340 201.955 L 63.767 198 117.312 198 C 164.656 198, 171.039 197.818, 172.429 196.429 C 174.402 194.455, 174.402 193.545, 172.429 191.571 C 171.029 190.172, 163.603 190.012, 104.679 190.110 C 68.280 190.170, 36.575 190.598, 34.223 191.062 M 199.571 191.571 C 198.707 192.436, 198 193.529, 198 194 C 198 194.471, 198.707 195.564, 199.571 196.429 C 200.855 197.712, 203.788 198, 215.571 198 L 230 198 230 226 L 230 254 215.571 254 C 203.788 254, 200.855 254.288, 199.571 255.571 C 197.598 257.545, 197.598 258.455, 199.571 260.429 C 200.936 261.793, 205.463 262, 234 262 C 262.537 262, 267.064 261.793, 268.429 260.429 C 270.402 258.455, 270.402 257.545, 268.429 255.571 C 267.145 254.288, 264.212 254, 252.429 254 L 238 254 238 226 L 238 198 252.429 198 C 264.212 198, 267.145 197.712, 268.429 196.429 C 269.293 195.564, 270 194.471, 270 194 C 270 193.529, 269.293 192.436, 268.429 191.571 C 267.064 190.207, 262.537 190, 234 190 C 205.463 190, 200.936 190.207, 199.571 191.571 M 32.453 199.326 C 17.492 205.091, 10.431 220.170, 15.597 235.329 C 17.470 240.829, 23.813 247.734, 29.500 250.467 C 35.100 253.158, 44.583 253.632, 50.895 251.535 C 56.800 249.574, 63.619 243.428, 66.467 237.500 C 69.171 231.874, 69.632 222.419, 67.514 216.042 C 65.290 209.346, 57.926 201.844, 51.392 199.618 C 45.928 197.756, 36.889 197.617, 32.453 199.326 M 103.571 223.571 C 102.707 224.436, 102 225.529, 102 226 C 102 226.471, 102.707 227.564, 103.571 228.429 C 104.436 229.293, 105.529 230, 106 230 C 106.471 230, 107.564 229.293, 108.429 228.429 C 109.293 227.564, 110 226.471, 110 226 C 110 225.529, 109.293 224.436, 108.429 223.571 C 107.564 222.707, 106.471 222, 106 222 C 105.529 222, 104.436 222.707, 103.571 223.571 M 135.571 223.571 C 134.707 224.436, 134 225.529, 134 226 C 134 226.471, 134.707 227.564, 135.571 228.429 C 136.436 229.293, 137.529 230, 138 230 C 138.471 230, 139.564 229.293, 140.429 228.429 C 141.293 227.564, 142 226.471, 142 226 C 142 225.529, 141.293 224.436, 140.429 223.571 C 139.564 222.707, 138.471 222, 138 222 C 137.529 222, 136.436 222.707, 135.571 223.571 " stroke="none" fill="black" fill-rule="evenodd"/>
</svg>