<svg xmlns="http://www.w3.org/2000/svg" width="276" height="324" viewBox="0 0 276 324" version="1.1">
	<path d="M 103.571 127.571 C 102.199 128.944, 102 133.890, 102 166.699 L 102 204.255 97.445 200.056 C 92.576 195.568, 83.942 191.026, 80.250 191.010 C 78.018 191, 78 190.883, 78 176.071 C 78 163.833, 77.717 160.860, 76.429 159.571 C 75.064 158.207, 70.537 158, 42 158 C 13.463 158, 8.936 158.207, 7.571 159.571 C 6.207 160.936, 6 165.463, 6 194 C 6 222.537, 6.207 227.064, 7.571 228.429 C 8.860 229.717, 11.833 230, 24.071 230 L 39 230 39 232.340 C 39 236.333, 44.832 246.591, 49.602 250.987 C 56.748 257.574, 63.903 260.389, 73.500 260.389 C 80 260.389, 82.564 259.901, 87.175 257.784 C 97.668 252.968, 105.480 243.518, 108.208 232.340 C 109.010 229.056, 109.494 211.697, 109.713 178.340 C 110.002 134.463, 109.866 129.009, 108.447 127.590 C 106.455 125.597, 105.549 125.594, 103.571 127.571 M 199.571 127.571 C 198.707 128.436, 198 129.640, 198 130.249 C 198 130.857, 204.850 138.256, 213.222 146.691 L 228.444 162.028 181.222 209.288 C 155.250 235.282, 134 257.068, 134 257.703 C 134 259.195, 136.805 262, 138.297 262 C 138.932 262, 160.718 240.750, 186.712 214.778 L 233.972 167.556 249.309 182.778 C 257.744 191.150, 265.143 198, 265.751 198 C 267.207 198, 270 195.170, 270 193.695 C 270 192.177, 203.823 126, 202.305 126 C 201.666 126, 200.436 126.707, 199.571 127.571 M 14 194 L 14 222 26.500 222 L 39 222 39 219.160 C 39 214.734, 44.586 204.637, 49.582 200.031 C 54.680 195.332, 63.116 191.024, 67.250 191.010 L 70 191 70 178.500 L 70 166 42 166 L 14 166 14 194 M 64.453 199.326 C 59.348 201.293, 54.352 204.850, 51.568 208.500 C 49.193 211.613, 46 218.854, 46 221.126 C 46 221.607, 51.400 222, 58 222 L 70 222 70 210 C 70 197.041, 70.064 197.164, 64.453 199.326 M 78 212.361 C 78 224.206, 77.713 227.145, 76.429 228.429 C 75.145 229.713, 72.206 230, 60.361 230 L 45.865 230 46.544 232.250 C 48.972 240.302, 54.588 247.131, 61.533 250.478 C 67.097 253.159, 76.591 253.629, 82.895 251.535 C 88.766 249.585, 95.568 243.476, 98.523 237.500 C 101.287 231.908, 101.293 219.099, 98.533 213.533 C 94.948 206.303, 88.603 201.103, 80.250 198.552 L 78 197.865 78 212.361 " stroke="none" fill="black" fill-rule="evenodd"/>
</svg>