<svg xmlns="http://www.w3.org/2000/svg" width="180" height="324" viewBox="0 0 180 324" version="1.1">
	<path d="M 7.571 127.571 C 6.707 128.436, 6 129.529, 6 130 C 6 130.471, 6.707 131.564, 7.571 132.429 C 8.936 133.793, 13.463 134, 42 134 C 70.537 134, 75.064 133.793, 76.429 132.429 C 77.293 131.564, 78 130.471, 78 130 C 78 129.529, 77.293 128.436, 76.429 127.571 C 75.064 126.207, 70.537 126, 42 126 C 13.463 126, 8.936 126.207, 7.571 127.571 M 167.571 127.571 C 166.199 128.944, 166 133.890, 166 166.699 L 166 204.255 161.425 200.038 C 154.253 193.427, 147.107 190.611, 137.500 190.611 C 131 190.611, 128.436 191.099, 123.825 193.216 C 115.965 196.824, 109.618 202.999, 105.800 210.755 C 102.994 216.455, 102.601 218.254, 102.606 225.377 C 102.610 232.002, 103.092 234.547, 105.216 239.175 C 119.554 270.413, 162.619 266.519, 171.877 233.147 C 173.180 228.449, 173.493 219.235, 173.740 178.340 C 174.005 134.487, 173.865 129.008, 172.447 127.590 C 170.455 125.597, 169.549 125.594, 167.571 127.571 M 7.571 159.571 C 6.707 160.436, 6 161.529, 6 162 C 6 162.471, 6.707 163.564, 7.571 164.429 C 8.936 165.793, 13.463 166, 42 166 C 70.537 166, 75.064 165.793, 76.429 164.429 C 77.293 163.564, 78 162.471, 78 162 C 78 161.529, 77.293 160.436, 76.429 159.571 C 75.064 158.207, 70.537 158, 42 158 C 13.463 158, 8.936 158.207, 7.571 159.571 M 7.571 191.571 C 6.707 192.436, 6 193.529, 6 194 C 6 194.471, 6.707 195.564, 7.571 196.429 C 8.936 197.793, 13.463 198, 42 198 C 70.537 198, 75.064 197.793, 76.429 196.429 C 77.293 195.564, 78 194.471, 78 194 C 78 193.529, 77.293 192.436, 76.429 191.571 C 75.064 190.207, 70.537 190, 42 190 C 13.463 190, 8.936 190.207, 7.571 191.571 M 128.453 199.326 C 113.492 205.091, 106.431 220.170, 111.597 235.329 C 113.470 240.829, 119.813 247.734, 125.500 250.467 C 131.100 253.158, 140.583 253.632, 146.895 251.535 C 152.800 249.574, 159.619 243.428, 162.467 237.500 C 165.171 231.874, 165.632 222.419, 163.514 216.042 C 161.290 209.346, 153.926 201.844, 147.392 199.618 C 141.928 197.756, 132.889 197.617, 128.453 199.326 M 7.571 223.571 C 6.707 224.436, 6 225.529, 6 226 C 6 226.471, 6.707 227.564, 7.571 228.429 C 8.936 229.793, 13.463 230, 42 230 C 70.537 230, 75.064 229.793, 76.429 228.429 C 77.293 227.564, 78 226.471, 78 226 C 78 225.529, 77.293 224.436, 76.429 223.571 C 75.064 222.207, 70.537 222, 42 222 C 13.463 222, 8.936 222.207, 7.571 223.571 M 7.571 255.571 C 6.707 256.436, 6 257.529, 6 258 C 6 258.471, 6.707 259.564, 7.571 260.429 C 8.936 261.793, 13.463 262, 42 262 C 70.537 262, 75.064 261.793, 76.429 260.429 C 77.293 259.564, 78 258.471, 78 258 C 78 257.529, 77.293 256.436, 76.429 255.571 C 75.064 254.207, 70.537 254, 42 254 C 13.463 254, 8.936 254.207, 7.571 255.571 " stroke="none" fill="black" fill-rule="evenodd"/>
</svg>