<svg xmlns="http://www.w3.org/2000/svg" width="388" height="324" viewBox="0 0 388 324" version="1.1">
	<path d="M 35.045 127.064 C 19.897 130.131, 8.917 142.118, 6.587 158.135 C 6.064 161.723, 6.277 163.134, 7.527 164.385 C 8.416 165.273, 9.529 166, 10 166 C 11.912 166, 14 162.663, 14 159.607 C 14 149.949, 22.088 138.862, 31.463 135.667 C 42.241 131.995, 53.477 134.382, 61.048 141.952 C 68.968 149.873, 70.477 157.650, 67.070 173 C 60.345 203.309, 40.733 231.819, 15.134 248.500 C 7.181 253.683, 5.966 254.840, 6.214 257 C 6.722 261.439, 10.187 260.667, 20.041 253.918 C 46.969 235.474, 65.381 209.093, 73.698 177.037 C 78.476 158.619, 76.296 147.136, 66.080 136.920 C 57.841 128.681, 45.855 124.875, 35.045 127.064 M 167.571 127.571 C 166.199 128.944, 166 133.890, 166 166.699 L 166 204.255 161.426 200.038 C 143.413 183.434, 115.567 189.273, 105.216 211.825 C 101.512 219.894, 101.512 231.106, 105.216 239.175 C 115.402 261.367, 143.175 267.485, 160.928 251.446 C 166.470 246.439, 169.438 241.134, 171.937 231.768 C 173.881 224.481, 174 221.347, 174 177.241 C 174 136.505, 173.798 130.157, 172.443 128.223 C 170.598 125.588, 169.678 125.465, 167.571 127.571 M 327.213 143.315 C 317.746 152.838, 310 161.131, 310 161.743 C 310 162.951, 312.728 166, 313.808 166 C 314.175 166, 320.667 159.819, 328.237 152.263 L 342 138.527 342 199.228 C 342 259.533, 342.013 259.937, 344.064 261.034 C 349.059 263.708, 349 264.453, 349 199.174 L 349 138.592 362.830 152.296 C 370.437 159.833, 377.132 166, 377.708 166 C 379.297 166, 381.208 163.291, 380.833 161.570 C 380.413 159.644, 347.020 126, 345.528 126 C 344.921 126, 336.680 133.792, 327.213 143.315 M 213.811 159.706 C 207.217 167.201, 205.537 179.569, 209.936 188.235 C 214.033 196.306, 218.665 199.075, 221.237 194.990 C 221.931 193.886, 221.220 192.042, 218.594 188.139 C 215.513 183.561, 215 181.985, 215 177.095 C 215 172.430, 215.567 170.498, 218.112 166.485 C 220.388 162.896, 220.965 161.165, 220.260 160.039 C 218.859 157.802, 215.633 157.635, 213.811 159.706 M 244.107 162.011 C 239.884 167.841, 238.332 175.438, 239.918 182.523 C 241.443 189.340, 246.578 196.500, 249.942 196.500 C 254.294 196.500, 254.494 193.936, 250.594 188.139 C 247.513 183.561, 247 181.985, 247 177.095 C 247 172.430, 247.567 170.498, 250.112 166.485 C 253.460 161.205, 253.194 158.783, 249.200 158.187 C 247.702 157.964, 246.248 159.055, 244.107 162.011 M 276.061 162.074 C 271.881 167.845, 270.337 175.462, 271.918 182.523 C 273.443 189.340, 278.578 196.500, 281.942 196.500 C 286.294 196.500, 286.494 193.936, 282.594 188.139 C 276.969 179.781, 277.440 172.370, 284.202 162.834 C 285.122 161.537, 285.092 160.816, 284.070 159.584 C 281.875 156.939, 279.172 157.779, 276.061 162.074 M 127.627 199.468 C 122.247 201.386, 117.039 205.829, 113.500 211.519 C 110.969 215.589, 110.444 217.570, 110.143 224.193 C 109.830 231.089, 110.110 232.705, 112.454 237.496 C 118.722 250.306, 133.386 256.154, 147.329 251.403 C 152.795 249.541, 159.688 243.233, 162.523 237.500 C 165.292 231.897, 165.292 219.103, 162.523 213.500 C 159.688 207.767, 152.795 201.459, 147.329 199.597 C 141.637 197.657, 132.868 197.600, 127.627 199.468 " stroke="none" fill="black" fill-rule="evenodd"/>
</svg>