<svg xmlns="http://www.w3.org/2000/svg" width="468" height="324" viewBox="0 0 468 324" version="1.1">
	<path d="M 103.571 127.571 C 102.199 128.944, 102 133.890, 102 166.699 L 102 204.255 97.599 200.198 C 92.503 195.500, 86.962 192.459, 81.703 191.472 L 78 190.777 78 175.960 C 78 163.823, 77.716 160.859, 76.429 159.571 C 75.064 158.207, 70.537 158, 42 158 C 13.463 158, 8.936 158.207, 7.571 159.571 C 6.207 160.936, 6 165.463, 6 194 C 6 222.537, 6.207 227.064, 7.571 228.429 C 8.859 229.716, 11.823 230, 23.960 230 L 38.777 230 39.472 233.703 C 41.063 242.185, 48.368 251.726, 56.712 256.219 C 77.311 267.314, 101.414 256.446, 107.877 233.147 C 109.180 228.449, 109.493 219.235, 109.740 178.340 C 110.005 134.487, 109.865 129.008, 108.447 127.590 C 106.455 125.597, 105.549 125.594, 103.571 127.571 M 231.627 127.515 C 230.732 128.411, 230 129.529, 230 130 C 230 132.122, 233.426 134.001, 237.321 134.015 C 260.791 134.098, 285.754 154.887, 291.463 179.103 C 293.390 187.282, 293.390 199.718, 291.463 207.897 C 286.662 228.261, 268.261 246.662, 247.897 251.463 C 220.528 257.914, 192.202 244.725, 180.198 219.942 C 177.950 215.299, 175.813 209.925, 175.449 208 C 174.826 204.696, 175.513 205.213, 187.730 217.250 C 194.848 224.262, 201.164 230, 201.765 230 C 203.187 230, 206 227.173, 206 225.743 C 206 223.994, 171.761 190, 170 190 C 168.239 190, 134 223.994, 134 225.743 C 134 227.176, 136.814 230, 138.241 230 C 138.845 230, 145.493 223.903, 153.014 216.451 L 166.688 202.901 168.351 209.641 C 171.372 221.880, 176.426 230.504, 186.461 240.539 C 200.473 254.551, 214.166 260.304, 233.500 260.304 C 245.257 260.304, 253.240 258.451, 264 253.222 C 274.587 248.078, 288.092 234.559, 293.193 224 C 298.463 213.091, 300.304 205.193, 300.304 193.500 C 300.304 181.743, 298.451 173.760, 293.222 163 C 288.103 152.465, 274.580 138.930, 264 133.751 C 251.664 127.714, 234.697 124.445, 231.627 127.515 M 355 126.886 C 345.393 128.960, 336.083 135.589, 331.290 143.769 C 328.887 147.869, 326.052 157.226, 326.016 161.179 C 325.999 162.938, 328.530 166, 330 166 C 331.912 166, 334 162.663, 334 159.607 C 334 149.949, 342.088 138.862, 351.463 135.667 C 362.241 131.995, 373.477 134.382, 381.048 141.952 C 388.663 149.568, 390.380 157.309, 387.495 171.022 C 380.653 203.548, 359.606 233.730, 332.125 250.424 C 327.411 253.288, 326 254.688, 326 256.501 C 326 261.946, 326.356 262, 362 262 C 390.537 262, 395.064 261.793, 396.429 260.429 C 398.244 258.613, 398.319 258.054, 397.022 256 C 396.231 254.747, 391.552 254.418, 368.564 254 L 341.053 253.500 348.138 248 C 367.253 233.163, 383.943 208.988, 391.286 185.500 C 395.885 170.789, 397.288 161.720, 395.967 155.238 C 393.633 143.782, 386.084 134.197, 375.675 129.472 C 370 126.895, 360.473 125.704, 355 126.886 M 423.571 159.571 C 422.227 160.916, 422 164.736, 422 186 C 422 207.264, 422.227 211.084, 423.571 212.429 C 424.436 213.293, 425.529 214, 426 214 C 426.471 214, 427.564 213.293, 428.429 212.429 C 429.773 211.084, 430 207.264, 430 186 C 430 164.736, 429.773 160.916, 428.429 159.571 C 427.564 158.707, 426.471 158, 426 158 C 425.529 158, 424.436 158.707, 423.571 159.571 M 14 194 L 14 222 26.372 222 L 38.744 222 39.415 217.807 C 41.338 205.783, 53.831 193.330, 65.908 191.399 L 70 190.744 70 178.372 L 70 166 42 166 L 14 166 14 194 M 63.385 199.617 C 55.428 202.439, 48.611 210.342, 46.450 219.250 L 45.783 222 57.892 222 L 70 222 70 210 C 70 196.784, 70.253 197.181, 63.385 199.617 M 78 212.361 C 78 224.206, 77.713 227.145, 76.429 228.429 C 75.145 229.713, 72.206 230, 60.361 230 L 45.865 230 46.525 232.250 C 50.314 245.167, 60.497 253, 73.500 253 C 89.108 253, 101 241.108, 101 225.500 C 101 212.497, 93.167 202.314, 80.250 198.525 L 78 197.865 78 212.361 M 423.571 222.571 C 422.707 223.436, 422 224.529, 422 225 C 422 226.111, 424.889 229, 426 229 C 427.111 229, 430 226.111, 430 225 C 430 223.889, 427.111 221, 426 221 C 425.529 221, 424.436 221.707, 423.571 222.571 " stroke="none" fill="black" fill-rule="evenodd"/>
</svg>