<svg xmlns="http://www.w3.org/2000/svg" width="372" height="324" viewBox="0 0 372 324" version="1.1">
	<path d="M 7.571 191.571 C 6.707 192.436, 6 193.658, 6 194.287 C 6 194.916, 20.953 210.409, 39.230 228.715 L 72.460 262 138 262 L 203.540 262 236.770 228.715 C 255.047 210.409, 270 194.916, 270 194.287 C 270 192.809, 267.192 190, 265.714 190 C 265.086 190, 250.146 204.400, 232.515 222 L 200.460 254 138 254 L 75.540 254 43.485 222 C 25.854 204.400, 10.914 190, 10.286 190 C 9.657 190, 8.436 190.707, 7.571 191.571 M 295.571 191.571 C 294.707 192.436, 294 193.529, 294 194 C 294 194.471, 294.707 195.564, 295.571 196.429 C 296.855 197.712, 299.788 198, 311.571 198 L 326 198 326 226 L 326 254 311.571 254 C 299.788 254, 296.855 254.288, 295.571 255.571 C 293.598 257.545, 293.598 258.455, 295.571 260.429 C 296.936 261.793, 301.463 262, 330 262 C 358.537 262, 363.064 261.793, 364.429 260.429 C 366.402 258.455, 366.402 257.545, 364.429 255.571 C 363.145 254.288, 360.212 254, 348.429 254 L 334 254 334 226 L 334 198 348.429 198 C 360.212 198, 363.145 197.712, 364.429 196.429 C 365.293 195.564, 366 194.471, 366 194 C 366 193.529, 365.293 192.436, 364.429 191.571 C 363.064 190.207, 358.537 190, 330 190 C 301.463 190, 296.936 190.207, 295.571 191.571 M 71.571 223.571 C 70.707 224.436, 70 225.529, 70 226 C 70 226.471, 70.707 227.564, 71.571 228.429 C 72.968 229.825, 80.372 230, 138 230 C 195.628 230, 203.032 229.825, 204.429 228.429 C 205.293 227.564, 206 226.471, 206 226 C 206 225.529, 205.293 224.436, 204.429 223.571 C 203.032 222.175, 195.628 222, 138 222 C 80.372 222, 72.968 222.175, 71.571 223.571 " stroke="none" fill="black" fill-rule="evenodd"/>
</svg>