<svg xmlns="http://www.w3.org/2000/svg" width="372" height="324" viewBox="0 0 372 324" version="1.1">
	<path d="M 7.532 127.610 C 6.078 129.065, 5.950 135.804, 6.211 197.360 L 6.500 265.500 9.160 271.175 C 23.793 302.390, 66.597 298.523, 75.881 265.147 C 77.221 260.333, 77.495 249.887, 77.740 194.336 C 77.998 135.935, 77.864 129.007, 76.443 127.586 C 74.455 125.598, 73.548 125.595, 71.571 127.571 C 70.182 128.961, 70 135.345, 70 182.699 L 70 236.255 65.599 232.198 C 51.592 219.287, 31.897 219.064, 17.955 231.660 L 14 235.233 14 182.188 C 14 135.298, 13.818 128.961, 12.429 127.571 C 10.447 125.590, 9.546 125.597, 7.532 127.610 M 39.571 159.571 C 38.707 160.436, 38 161.529, 38 162 C 38 163.111, 40.889 166, 42 166 C 43.111 166, 46 163.111, 46 162 C 46 160.889, 43.111 158, 42 158 C 41.529 158, 40.436 158.707, 39.571 159.571 M 231.571 159.571 C 230.207 160.936, 230 165.463, 230 194 C 230 222.537, 230.207 227.064, 231.571 228.429 C 232.968 229.825, 240.372 230, 298 230 C 355.628 230, 363.032 229.825, 364.429 228.429 C 365.793 227.064, 366 222.537, 366 194 C 366 165.463, 365.793 160.936, 364.429 159.571 C 363.032 158.175, 355.628 158, 298 158 C 240.372 158, 232.968 158.175, 231.571 159.571 M 238 194 L 238 222 266 222 L 294 222 294 194 L 294 166 266 166 L 238 166 238 194 M 302 194 L 302 222 330 222 L 358 222 358 194 L 358 166 330 166 L 302 166 302 194 M 39.571 191.571 C 38.707 192.436, 38 193.529, 38 194 C 38 195.111, 40.889 198, 42 198 C 43.111 198, 46 195.111, 46 194 C 46 192.889, 43.111 190, 42 190 C 41.529 190, 40.436 190.707, 39.571 191.571 M 157.500 191.466 C 142.827 194.160, 131.189 200.726, 120.168 212.528 C 109.839 223.588, 104.206 236.225, 102.499 252.168 C 101.447 261.988, 101.470 262, 122 262 C 141.334 262, 142 261.749, 142 254.478 C 142 241.343, 148.860 225.930, 159.395 215.395 C 169.930 204.860, 185.343 198, 198.478 198 C 202.575 198, 206 196.179, 206 194 C 206 193.529, 205.293 192.436, 204.429 191.571 C 203.102 190.245, 199.863 190.014, 183.679 190.090 C 172.775 190.142, 161.480 190.735, 157.500 191.466 M 155.217 199.449 C 134.050 204.575, 115.428 223.713, 111.090 244.799 C 109.075 254.597, 108.371 254, 121.933 254 C 135.304 254, 134.274 254.645, 135.505 245.500 C 136.422 238.687, 140.858 227.559, 145.363 220.773 C 149.508 214.527, 161.318 202.921, 165.981 200.510 C 167.642 199.651, 169 198.735, 169 198.474 C 169 197.572, 160.480 198.175, 155.217 199.449 M 31.054 231.728 C 25.018 233.859, 17.781 241.260, 15.667 247.463 C 9.215 266.399, 22.016 285, 41.500 285 C 49.295 285, 55.452 282.453, 60.952 276.952 C 71.862 266.043, 71.862 248.957, 60.952 238.048 C 53.269 230.364, 41.789 227.938, 31.054 231.728 " stroke="none" fill="black" fill-rule="evenodd"/>
</svg>