<svg xmlns="http://www.w3.org/2000/svg" width="276" height="324" viewBox="0 0 276 324" version="1.1">
	<path d="M 103.571 127.571 C 102.199 128.944, 102 133.890, 102 166.699 L 102 204.255 97.445 200.056 C 92.576 195.568, 83.942 191.026, 80.250 191.010 C 78.018 191, 78 190.883, 78 176.071 C 78 163.833, 77.717 160.860, 76.429 159.571 C 75.064 158.207, 70.537 158, 42 158 C 13.463 158, 8.936 158.207, 7.571 159.571 C 6.207 160.936, 6 165.463, 6 194 C 6 222.537, 6.207 227.064, 7.571 228.429 C 8.860 229.717, 11.833 230, 24.071 230 L 39 230 39 232.340 C 39 236.333, 44.832 246.591, 49.602 250.987 C 56.748 257.574, 63.903 260.389, 73.500 260.389 C 80 260.389, 82.564 259.901, 87.175 257.784 C 97.668 252.968, 105.480 243.518, 108.208 232.340 C 109.010 229.056, 109.494 211.697, 109.713 178.340 C 110.002 134.463, 109.866 129.009, 108.447 127.590 C 106.455 125.597, 105.549 125.594, 103.571 127.571 M 151.213 143.315 C 141.746 152.838, 134 161.131, 134 161.743 C 134 163.175, 136.813 166, 138.239 166 C 138.841 166, 145.334 160.059, 152.667 152.798 L 166 139.595 166 199.226 C 166 252.103, 166.178 259.035, 167.571 260.429 C 168.436 261.293, 169.529 262, 170 262 C 170.471 262, 171.564 261.293, 172.429 260.429 C 173.822 259.035, 174 252.103, 174 199.226 L 174 139.595 187.333 152.798 C 194.666 160.059, 201.159 166, 201.761 166 C 203.187 166, 206 163.175, 206 161.743 C 206 159.994, 171.761 126, 170 126 C 169.134 126, 160.680 133.792, 151.213 143.315 M 231.571 127.571 C 230.178 128.965, 230 135.897, 230 188.774 L 230 248.405 216.667 235.202 C 209.334 227.941, 202.841 222, 202.239 222 C 200.813 222, 198 224.825, 198 226.257 C 198 228.006, 232.239 262, 234 262 C 235.761 262, 270 228.006, 270 226.257 C 270 224.825, 267.187 222, 265.761 222 C 265.159 222, 258.666 227.941, 251.333 235.202 L 238 248.405 238 188.774 C 238 135.897, 237.822 128.965, 236.429 127.571 C 235.564 126.707, 234.471 126, 234 126 C 233.529 126, 232.436 126.707, 231.571 127.571 M 14 194 L 14 222 26.500 222 L 39 222 39 219.160 C 39 214.734, 44.586 204.637, 49.582 200.031 C 54.680 195.332, 63.116 191.024, 67.250 191.010 L 70 191 70 178.500 L 70 166 42 166 L 14 166 14 194 M 64.453 199.326 C 59.348 201.293, 54.352 204.850, 51.568 208.500 C 49.193 211.613, 46 218.854, 46 221.126 C 46 221.607, 51.400 222, 58 222 L 70 222 70 210 C 70 197.041, 70.064 197.164, 64.453 199.326 M 78 212.361 C 78 224.206, 77.713 227.145, 76.429 228.429 C 75.145 229.713, 72.206 230, 60.361 230 L 45.865 230 46.544 232.250 C 48.972 240.302, 54.588 247.131, 61.533 250.478 C 67.097 253.159, 76.591 253.629, 82.895 251.535 C 88.766 249.585, 95.568 243.476, 98.523 237.500 C 101.287 231.908, 101.293 219.099, 98.533 213.533 C 94.948 206.303, 88.603 201.103, 80.250 198.552 L 78 197.865 78 212.361 " stroke="none" fill="black" fill-rule="evenodd"/>
</svg>