<svg xmlns="http://www.w3.org/2000/svg" width="403" height="324" viewBox="0 0 403 324" version="1.1">
	<path d="M 327.750 127.080 C 326.150 128.012, 326 130.476, 326 155.858 L 326 183.617 318.250 179.815 C 300.713 171.212, 282.187 173.068, 266.367 185.013 C 260.776 189.234, 259.108 192.220, 261.040 194.548 C 262.922 196.816, 264.513 196.317, 269.689 191.835 C 277.017 185.491, 283.924 182.773, 294.098 182.229 C 304.785 181.658, 311.397 183.414, 319.872 189.074 L 326 193.165 326 221.301 L 326 249.437 320.120 243.619 C 314.896 238.450, 314.004 237.927, 312.120 238.936 C 308.640 240.798, 309.626 243.076, 317.225 250.726 L 324.450 258 317.225 265.274 C 309.626 272.924, 308.640 275.202, 312.120 277.064 C 314.004 278.073, 314.896 277.550, 320.120 272.381 L 326 266.563 326 279.246 C 326 291.037, 326.145 292.007, 328.064 293.034 C 332.177 295.236, 333 292.934, 333 279.225 L 333 266.696 338.926 272.348 C 345.212 278.344, 345.907 278.693, 347.800 276.800 C 350.049 274.551, 349.003 272.550, 341.775 265.274 L 334.550 258 341.775 250.726 C 349.003 243.450, 350.049 241.449, 347.800 239.200 C 345.907 237.307, 345.212 237.656, 338.926 243.652 L 333 249.304 333 225.335 L 333 201.365 339.750 204.671 C 356.388 212.820, 375.129 210.693, 390.778 198.878 C 396.367 194.658, 397.305 191.835, 393.838 189.663 C 392.521 188.838, 391.055 189.486, 386.787 192.779 C 377.288 200.107, 373.074 201.502, 360.500 201.483 C 350.697 201.468, 348.876 201.176, 343.767 198.796 C 340.614 197.327, 336.902 194.993, 335.517 193.608 L 333 191.091 333 159.745 C 333 125.523, 332.779 124.151, 327.750 127.080 M 7.579 191.564 C 4.148 194.995, 7.235 198, 14.190 198 L 19.237 198 16.244 201.062 C 8.737 208.740, 4.914 221.372, 7 231.604 C 11.821 255.249, 35.886 267.123, 57.500 256.519 C 63.477 253.587, 67.310 250.156, 70.866 244.556 L 73.500 240.408 76.861 245.563 C 80.572 251.255, 88.734 257.260, 95.387 259.190 C 107.069 262.581, 120.691 259.160, 129.353 250.661 C 137.450 242.714, 139.500 237.633, 139.500 225.500 C 139.500 214.260, 137.970 209.829, 131.461 202.225 L 127.931 198.102 133.612 197.801 C 139.976 197.464, 142.414 195.466, 140.386 192.250 C 139.356 190.617, 134.934 190.483, 74.220 190.243 C 16.058 190.013, 8.990 190.153, 7.579 191.564 M 167.585 191.558 C 166.713 192.430, 166 193.529, 166 194 C 166 194.471, 166.713 195.570, 167.585 196.442 C 168.978 197.835, 173.159 197.995, 202.226 197.763 C 232.452 197.523, 235.377 197.350, 236.386 195.750 C 237.191 194.474, 237.191 193.526, 236.386 192.250 C 235.377 190.650, 232.452 190.477, 202.226 190.237 C 173.159 190.005, 168.978 190.165, 167.585 191.558 M 31.605 199.568 C 24.049 202.337, 24.073 202.527, 33.170 211.671 L 41.457 220.001 49.692 211.809 C 58.838 202.711, 58.906 202.178, 51.260 199.573 C 45.620 197.651, 36.842 197.649, 31.605 199.568 M 65.926 200.145 C 67.192 201.325, 69.446 204.211, 70.934 206.557 L 73.640 210.824 75.443 207.476 C 76.435 205.635, 78.594 202.749, 80.242 201.064 L 83.237 198 73.430 198 L 63.623 198 65.926 200.145 M 95.741 199.429 C 88 202.191, 88.035 202.488, 97.170 211.671 L 105.457 220.001 113.692 211.809 C 122.838 202.711, 122.906 202.178, 115.260 199.573 C 109.673 197.669, 100.855 197.604, 95.741 199.429 M 18.184 210.278 C 14.139 215.152, 12.867 227.319, 15.573 235.260 C 18.178 242.906, 18.711 242.838, 27.809 233.692 L 36.001 225.457 27.671 217.170 C 20.854 210.389, 19.131 209.137, 18.184 210.278 M 55.237 217.261 L 46.999 225.543 55.339 233.840 L 63.680 242.137 65.174 239.819 C 70.273 231.908, 70.255 217.967, 65.137 211.182 C 63.477 208.981, 63.471 208.984, 55.237 217.261 M 82.192 210.269 C 77.752 215.619, 76.575 229.264, 79.918 236.627 C 80.948 238.896, 82.209 241.011, 82.718 241.326 C 83.228 241.641, 87.325 238.199, 91.823 233.678 L 100.001 225.457 91.671 217.170 C 84.884 210.419, 83.128 209.140, 82.192 210.269 M 118.851 217.275 L 111.277 225.551 119.082 233.775 C 123.375 238.299, 127.158 242, 127.490 242 C 127.821 242, 129.192 239.637, 130.536 236.750 C 132.274 233.018, 132.980 229.765, 132.980 225.500 C 132.980 219.612, 129.300 209, 127.258 209 C 126.800 209, 123.016 212.724, 118.851 217.275 M 33.170 239.329 C 24.017 248.530, 24.002 248.678, 31.962 251.487 C 37.497 253.439, 45.426 253.415, 51.260 251.427 C 58.906 248.822, 58.838 248.289, 49.692 239.191 L 41.457 230.999 33.170 239.329 M 97.104 239.395 L 88.752 247.791 91.253 249.430 C 98.691 254.304, 113.165 254.155, 119.818 249.137 C 122.019 247.477, 122.016 247.471, 113.739 239.237 L 105.457 230.999 97.104 239.395 " stroke="none" fill="black" fill-rule="evenodd"/>
</svg>