<svg xmlns="http://www.w3.org/2000/svg" width="340" height="324" viewBox="0 0 340 324" version="1.1">
	<path d="M 39.571 127.571 C 38.211 128.932, 38 133.276, 38 159.944 L 38 190.744 33.908 191.399 C 25.196 192.792, 15.430 200.099, 10.768 208.712 C -0.601 229.716, 11.516 255.134, 35.198 259.959 C 46.348 262.231, 59.464 257.727, 67.399 248.901 C 79.910 234.986, 79.338 214.178, 66.080 200.920 C 60.841 195.681, 52.056 191, 47.462 191 C 46.211 191, 46 186.544, 46 160.071 C 46 133.288, 45.789 128.932, 44.429 127.571 C 43.564 126.707, 42.471 126, 42 126 C 41.529 126, 40.436 126.707, 39.571 127.571 M 327.750 127.080 C 325.372 128.465, 325.542 131.685, 328.064 133.034 C 331.753 135.008, 334.819 130.219, 331.800 127.200 C 330.367 125.767, 330.022 125.757, 327.750 127.080 M 199.616 159.527 C 198.727 160.416, 198 161.529, 198 162 C 198 163.389, 201.140 166.120, 202.295 165.735 C 204.395 165.035, 205.549 162.094, 204.423 160.310 C 202.905 157.902, 201.474 157.669, 199.616 159.527 M 263.616 159.527 C 262.727 160.416, 262 161.529, 262 162 C 262 163.389, 265.140 166.120, 266.295 165.735 C 268.395 165.035, 269.549 162.094, 268.423 160.310 C 266.905 157.902, 265.474 157.669, 263.616 159.527 M 129.500 174.997 C 119.334 176.653, 110.088 181.248, 103.655 187.839 C 100.317 191.259, 99.960 192.056, 100.941 193.889 C 102.506 196.814, 104.160 196.544, 108.894 192.589 C 118.725 184.375, 127.053 181.542, 139.454 182.193 C 150.578 182.777, 158.673 186.581, 167.208 195.236 C 180.418 208.630, 198.254 212.824, 216.446 206.812 C 226.270 203.565, 236.531 195.956, 235.838 192.432 C 235.074 188.545, 232.442 188.504, 227.803 192.305 C 216.616 201.472, 201.185 204.467, 188.040 200.022 C 180.453 197.456, 176.862 195.115, 171.766 189.409 C 162.084 178.571, 144.455 172.560, 129.500 174.997 M 327.750 191.080 C 325.372 192.465, 325.542 195.685, 328.064 197.034 C 331.753 199.008, 334.819 194.219, 331.800 191.200 C 330.367 189.767, 330.022 189.757, 327.750 191.080 M 31.054 199.728 C 25.018 201.859, 17.781 209.260, 15.667 215.463 C 11.995 226.241, 14.382 237.477, 21.952 245.048 C 32.761 255.857, 50.503 255.777, 61.125 244.872 C 71.768 233.945, 71.768 217.055, 61.125 206.128 C 53.628 198.432, 41.834 195.922, 31.054 199.728 M 199.616 223.527 C 198.727 224.416, 198 225.529, 198 226 C 198 227.389, 201.140 230.120, 202.295 229.735 C 204.395 229.035, 205.549 226.094, 204.423 224.310 C 202.905 221.902, 201.474 221.669, 199.616 223.527 M 263.616 223.527 C 262.727 224.416, 262 225.529, 262 226 C 262 227.389, 265.140 230.120, 266.295 229.735 C 268.395 229.035, 269.549 226.094, 268.423 224.310 C 266.905 221.902, 265.474 221.669, 263.616 223.527 M 327.750 255.080 C 325.372 256.465, 325.542 259.685, 328.064 261.034 C 331.753 263.008, 334.819 258.219, 331.800 255.200 C 330.367 253.767, 330.022 253.757, 327.750 255.080 " stroke="none" fill="black" fill-rule="evenodd"/>
</svg>