<svg xmlns="http://www.w3.org/2000/svg" width="276" height="324" viewBox="0 0 276 324" version="1.1">
	<path d="M 35.045 127.092 C 19.667 130.107, 7.255 144.071, 6.841 158.824 C 6.689 164.231, 10.459 179.667, 14.976 192.133 C 21.053 208.902, 33.075 227.074, 46.717 240.107 C 55.990 248.967, 71.179 260, 74.103 260 C 75.247 260, 77.380 259.083, 78.842 257.962 C 80.304 256.841, 85.561 252.856, 90.524 249.106 C 115.693 230.086, 133.319 201.269, 139.405 169.189 C 140.580 162.992, 140.715 159.758, 139.963 155.763 C 135.596 132.560, 112.226 120.286, 90.616 129.845 C 85.222 132.232, 79.372 137.363, 76.005 142.662 L 73.360 146.824 71.503 143.377 C 69.181 139.064, 62.418 132.764, 57.318 130.162 C 55.183 129.073, 50.781 127.691, 47.535 127.091 C 40.969 125.877, 41.243 125.877, 35.045 127.092 M 31.054 135.728 C 24.787 137.940, 17.726 145.297, 15.534 151.899 C 13.881 156.875, 13.875 157.704, 15.430 166.205 C 18.769 184.454, 25.331 200.650, 35.740 216.330 C 41.768 225.410, 57.343 241.046, 66.659 247.369 L 73.817 252.228 79.235 248.632 C 104.319 231.983, 122.938 205.409, 130.553 175.392 C 134.737 158.897, 133.307 150.212, 125.048 141.952 C 117.477 134.382, 106.241 131.995, 95.463 135.667 C 86.088 138.862, 78 149.949, 78 159.607 C 78 162.970, 75.867 166, 73.500 166 C 71.133 166, 69 162.970, 69 159.607 C 69 149.949, 60.912 138.862, 51.537 135.667 C 45.516 133.616, 36.964 133.641, 31.054 135.728 M 179.637 159.465 C 172.890 161.870, 167.867 167.861, 166.503 175.131 C 165.855 178.586, 167.593 182, 170 182 C 171.861 182, 174 178.700, 174 175.829 C 174 173.718, 175.030 171.770, 177.400 169.400 C 180.302 166.498, 181.488 166, 185.500 166 C 189.512 166, 190.698 166.498, 193.600 169.400 C 196.502 172.302, 197 173.488, 197 177.500 C 197 181.512, 196.502 182.698, 193.600 185.600 C 191.526 187.674, 189.214 189, 187.671 189 C 183.012 189, 182 191.231, 182 201.500 C 182 208.673, 182.367 211.224, 183.571 212.429 C 184.436 213.293, 185.529 214, 186 214 C 188.689 214, 190 210.575, 190 203.550 C 190 196.379, 190.056 196.219, 192.989 195.004 C 200.077 192.069, 205.944 181.649, 204.441 174.666 C 202.872 167.379, 197.022 160.933, 190.277 159.060 C 185.498 157.733, 184.376 157.776, 179.637 159.465 M 231.571 159.571 C 229.215 161.927, 229.215 210.073, 231.571 212.429 C 232.436 213.293, 233.529 214, 234 214 C 234.471 214, 235.564 213.293, 236.429 212.429 C 238.785 210.073, 238.785 161.927, 236.429 159.571 C 235.564 158.707, 234.471 158, 234 158 C 233.529 158, 232.436 158.707, 231.571 159.571 M 183.571 222.571 C 182.707 223.436, 182 224.529, 182 225 C 182 225.471, 182.707 226.564, 183.571 227.429 C 184.436 228.293, 185.529 229, 186 229 C 186.471 229, 187.564 228.293, 188.429 227.429 C 189.293 226.564, 190 225.471, 190 225 C 190 224.529, 189.293 223.436, 188.429 222.571 C 187.564 221.707, 186.471 221, 186 221 C 185.529 221, 184.436 221.707, 183.571 222.571 M 231.571 222.571 C 230.707 223.436, 230 224.529, 230 225 C 230 225.471, 230.707 226.564, 231.571 227.429 C 232.436 228.293, 233.529 229, 234 229 C 234.471 229, 235.564 228.293, 236.429 227.429 C 237.293 226.564, 238 225.471, 238 225 C 238 224.529, 237.293 223.436, 236.429 222.571 C 235.564 221.707, 234.471 221, 234 221 C 233.529 221, 232.436 221.707, 231.571 222.571 " stroke="none" fill="black" fill-rule="evenodd"/>
</svg>