<svg xmlns="http://www.w3.org/2000/svg" width="436" height="324" viewBox="0 0 436 324" version="1.1">
	<path d="M 103.571 127.571 C 102.199 128.944, 102 133.890, 102 166.699 L 102 204.255 97.599 200.198 C 92.503 195.500, 86.962 192.459, 81.703 191.472 L 78 190.777 78 175.960 C 78 163.823, 77.716 160.859, 76.429 159.571 C 75.064 158.207, 70.537 158, 42 158 C 13.463 158, 8.936 158.207, 7.571 159.571 C 6.207 160.936, 6 165.463, 6 194 C 6 222.537, 6.207 227.064, 7.571 228.429 C 8.859 229.716, 11.823 230, 23.960 230 L 38.777 230 39.472 233.703 C 41.806 246.144, 53.473 257.162, 67.295 259.979 C 80.701 262.712, 96.466 255.594, 103.464 243.651 C 109.280 233.724, 109.464 231.820, 109.762 178.340 C 110.007 134.505, 109.864 129.007, 108.447 127.590 C 106.455 125.597, 105.549 125.594, 103.571 127.571 M 199.667 126.750 C 197.535 130.293, 134 258.198, 134 258.947 C 134 261.752, 139.552 262, 202.363 262 C 259.661 262, 267.032 261.825, 268.429 260.429 C 269.293 259.564, 270 258.663, 270 258.426 C 270 257.155, 204.584 127.384, 203.631 126.765 C 202.159 125.809, 200.237 125.802, 199.667 126.750 M 359.750 127.082 C 358.788 127.642, 358 128.859, 358 129.788 C 358 130.717, 364.857 138.344, 373.237 146.737 L 388.474 161.998 341.237 209.273 C 315.257 235.275, 294 257.068, 294 257.703 C 294 258.952, 296.714 262, 297.825 262 C 298.201 262, 319.871 240.633, 345.982 214.518 L 393.457 167.035 409.049 182.518 C 417.625 191.033, 425.082 198, 425.621 198 C 427.117 198, 429 195.787, 429 194.030 C 429 192.639, 364.185 126.846, 362.265 126.287 C 361.844 126.165, 360.712 126.522, 359.750 127.082 M 172.747 196.500 L 144.002 254 202 254 L 259.998 254 231.253 196.500 C 215.443 164.875, 202.279 139, 202 139 C 201.721 139, 188.557 164.875, 172.747 196.500 M 14 194 L 14 222 26.372 222 L 38.744 222 39.415 217.807 C 41.338 205.783, 53.831 193.330, 65.908 191.399 L 70 190.744 70 178.372 L 70 166 42 166 L 14 166 14 194 M 63.385 199.617 C 55.428 202.439, 48.611 210.342, 46.450 219.250 L 45.783 222 57.892 222 L 70 222 70 210 C 70 196.784, 70.253 197.181, 63.385 199.617 M 78 212.361 C 78 224.206, 77.713 227.145, 76.429 228.429 C 75.145 229.713, 72.206 230, 60.361 230 L 45.865 230 46.525 232.250 C 50.314 245.167, 60.497 253, 73.500 253 C 84.056 253, 93.863 246.925, 98.523 237.500 C 101.287 231.908, 101.293 219.099, 98.533 213.533 C 94.948 206.303, 88.603 201.103, 80.250 198.552 L 78 197.865 78 212.361 " stroke="none" fill="black" fill-rule="evenodd"/>
</svg>