<svg xmlns="http://www.w3.org/2000/svg" width="500" height="324" viewBox="0 0 500 324" version="1.1">
	<path d="M 103.571 127.571 C 102.199 128.944, 102 133.887, 102 166.664 L 102 204.185 96.952 199.646 C 92.385 195.541, 83.200 191, 79.462 191 C 78.244 191, 78 188.504, 78 176.071 C 78 163.833, 77.717 160.860, 76.429 159.571 C 75.064 158.207, 70.537 158, 42 158 C 13.463 158, 8.936 158.207, 7.571 159.571 C 6.207 160.936, 6 165.463, 6 194 C 6 222.537, 6.207 227.064, 7.571 228.429 C 8.859 229.716, 11.823 230, 23.960 230 L 38.777 230 39.472 233.703 C 41.799 246.106, 53.476 257.163, 67.198 259.959 C 80.707 262.712, 96.489 255.591, 103.492 243.584 C 104.802 241.338, 106.803 236.021, 107.937 231.768 C 109.881 224.481, 110 221.347, 110 177.241 C 110 136.505, 109.798 130.157, 108.443 128.223 C 106.598 125.588, 105.678 125.465, 103.571 127.571 M 151.213 143.315 C 141.746 152.838, 134 161.131, 134 161.743 C 134 163.040, 136.760 166, 137.969 166 C 138.424 166, 144.917 159.815, 152.398 152.256 L 166 138.512 166 198.684 C 166 252.054, 166.178 259.035, 167.571 260.429 C 168.436 261.293, 169.471 262, 169.871 262 C 172.854 262, 173 259.055, 173 199.096 L 173 138.592 186.830 152.296 C 194.437 159.833, 201.132 166, 201.708 166 C 203.291 166, 205.209 163.294, 204.833 161.591 C 204.399 159.629, 171.089 126, 169.579 126 C 168.944 126, 160.680 133.792, 151.213 143.315 M 231.750 127.080 C 230.114 128.033, 230 132.044, 230 188.786 L 230 249.473 216.237 235.737 C 208.667 228.181, 202.175 222, 201.808 222 C 200.728 222, 198 225.049, 198 226.257 C 198 227.709, 232.085 262, 233.528 262 C 235.020 262, 268.413 228.356, 268.833 226.430 C 269.208 224.709, 267.297 222, 265.708 222 C 265.132 222, 258.437 228.167, 250.830 235.704 L 237 249.408 237 188.904 C 237 123.446, 237.047 123.995, 231.750 127.080 M 487.724 127.134 C 486.121 128.031, 486 132.376, 486 188.793 L 486 249.487 456.136 219.636 C 428.663 192.175, 426.101 189.876, 424.136 190.927 C 422.961 191.556, 422 192.845, 422 193.791 C 422 194.737, 437.075 210.581, 455.500 229 C 484.361 257.851, 489.243 262.337, 490.750 261.386 C 492.383 260.356, 492.517 255.880, 492.757 194.180 C 493 131.634, 492.918 128.027, 491.231 127.124 C 490.096 126.516, 488.822 126.520, 487.724 127.134 M 14 194 L 14 222 26.372 222 L 38.744 222 39.415 217.807 C 41.338 205.783, 53.831 193.330, 65.908 191.399 L 70 190.744 70 178.372 L 70 166 42 166 L 14 166 14 194 M 322.355 190.992 C 315.486 192.430, 308.607 196.556, 303.181 202.492 C 290.959 215.865, 291.095 235.427, 303.502 248.829 C 310.992 256.919, 318.680 260.376, 329 260.295 C 337.371 260.229, 342.880 258.554, 349.338 254.111 C 358.194 248.018, 363.940 236.980, 363.971 226 C 363.993 217.880, 362.911 213.931, 358.768 207.021 C 351.627 195.109, 335.855 188.167, 322.355 190.992 M 373.947 192.099 C 372.997 193.874, 373.305 194.796, 375.943 198.079 C 389.081 214.428, 389.087 235.565, 375.958 251.903 C 372.260 256.504, 372.353 259.365, 376.215 259.812 C 378.504 260.077, 379.590 259.204, 383.394 254.037 C 390.658 244.169, 392.410 238.528, 392.410 225 C 392.410 211.491, 390.657 205.829, 383.440 196.025 C 378.701 189.589, 375.909 188.434, 373.947 192.099 M 63.627 199.468 C 55.846 202.242, 48.079 210.987, 46.502 218.750 L 45.841 222 57.921 222 L 70 222 70 210 C 70 196.823, 70.186 197.130, 63.627 199.468 M 78 212.361 C 78 224.206, 77.713 227.145, 76.429 228.429 C 75.145 229.712, 72.210 230, 60.410 230 L 45.962 230 46.599 232.750 C 49.279 244.314, 60.818 253, 73.500 253 C 84.056 253, 93.863 246.925, 98.523 237.500 C 101.287 231.908, 101.293 219.099, 98.533 213.533 C 94.948 206.303, 88.603 201.103, 80.250 198.552 L 78 197.865 78 212.361 M 317.500 200.387 C 291.014 212.930, 299.771 252.980, 329 252.980 C 344.351 252.980, 357 240.566, 357 225.500 C 357 205.762, 335.293 191.961, 317.500 200.387 " stroke="none" fill="black" fill-rule="evenodd"/>
</svg>