<svg xmlns="http://www.w3.org/2000/svg" width="308" height="324" viewBox="0 0 308 324" version="1.1">
	<path d="M 183.239 143.260 C 173.758 152.754, 166 161.288, 166 162.225 C 166 163.163, 166.959 164.443, 168.131 165.070 C 170.073 166.110, 171.495 164.981, 184.131 152.369 L 198 138.527 198 199.228 C 198 259.533, 198.013 259.937, 200.064 261.034 C 205.059 263.708, 205 264.453, 205 199.174 L 205 138.592 218.830 152.296 C 226.437 159.833, 233.132 166, 233.708 166 C 235.297 166, 237.208 163.291, 236.833 161.570 C 236.418 159.665, 203.028 126, 201.554 126 C 200.963 126, 192.721 133.767, 183.239 143.260 M 263.724 127.134 C 262.121 128.031, 262 132.375, 262 188.786 L 262 249.473 248.131 235.631 C 235.495 223.019, 234.073 221.890, 232.131 222.930 C 230.959 223.557, 230 224.847, 230 225.796 C 230 227.590, 263.761 262, 265.521 262 C 267.266 262, 301 227.556, 301 225.775 C 301 224.837, 300.061 223.568, 298.913 222.953 C 297.030 221.946, 295.463 223.187, 282.913 235.622 L 269 249.408 269 188.739 C 269 131.647, 268.895 128.014, 267.224 127.120 C 266.098 126.517, 264.818 126.522, 263.724 127.134 M 7.200 191.200 C 6.315 192.085, 6 201.117, 6 225.629 C 6 254.503, 6.206 259.063, 7.571 260.429 C 9.386 262.244, 9.946 262.319, 12 261.023 C 13.204 260.264, 13.599 256.693, 14 242.906 L 14.500 225.735 17.769 230.786 C 22.821 238.593, 34.747 249.135, 43.177 253.245 C 53.895 258.471, 61.817 260.310, 73.500 260.283 C 85.692 260.254, 93.652 258.303, 104.500 252.683 C 113.904 247.810, 125.886 236.566, 130.800 228 L 133.956 222.500 133.978 240.679 C 133.996 255.851, 134.260 259.117, 135.571 260.429 C 137.485 262.343, 138.423 262.400, 139.842 260.690 C 141.572 258.606, 141.556 191.968, 139.825 190.871 C 137.599 189.459, 8.620 189.780, 7.200 191.200 M 14 200.106 C 14 201.264, 14.713 204.976, 15.585 208.356 C 20.838 228.716, 38.284 246.162, 58.644 251.415 C 65.760 253.251, 78.565 253.481, 86.201 251.910 C 89.115 251.310, 95.244 249.032, 99.820 246.847 C 115.079 239.562, 126.717 225.246, 131.003 208.489 C 132.101 204.194, 133 200.077, 133 199.340 C 133 198.235, 122.566 198, 73.500 198 L 14 198 14 200.106 " stroke="none" fill="black" fill-rule="evenodd"/>
</svg>