<svg xmlns="http://www.w3.org/2000/svg" width="372" height="324" viewBox="0 0 372 324" version="1.1">
	<path d="M 167.571 127.571 C 166.707 128.436, 166 129.529, 166 130 C 166 130.471, 166.707 131.564, 167.571 132.429 C 168.855 133.712, 171.788 134, 183.571 134 L 198 134 198 194 L 198 254 183.571 254 C 171.788 254, 168.855 254.288, 167.571 255.571 C 165.598 257.545, 165.598 258.455, 167.571 260.429 C 168.936 261.793, 173.463 262, 202 262 C 230.537 262, 235.064 261.793, 236.429 260.429 C 238.402 258.455, 238.402 257.545, 236.429 255.571 C 235.145 254.288, 232.212 254, 220.429 254 L 206 254 206 194 L 206 134 220.429 134 C 232.212 134, 235.145 133.712, 236.429 132.429 C 237.293 131.564, 238 130.471, 238 130 C 238 129.529, 237.293 128.436, 236.429 127.571 C 235.064 126.207, 230.537 126, 202 126 C 173.463 126, 168.936 126.207, 167.571 127.571 M 263.571 159.571 C 262.227 160.916, 262 164.736, 262 186 C 262 207.264, 262.227 211.084, 263.571 212.429 C 264.436 213.293, 265.529 214, 266 214 C 266.471 214, 267.564 213.293, 268.429 212.429 C 269.773 211.084, 270 207.264, 270 186 C 270 164.736, 269.773 160.916, 268.429 159.571 C 267.564 158.707, 266.471 158, 266 158 C 265.529 158, 264.436 158.707, 263.571 159.571 M 295.571 159.571 C 294.227 160.916, 294 164.736, 294 186 C 294 207.264, 294.227 211.084, 295.571 212.429 C 296.436 213.293, 297.529 214, 298 214 C 298.471 214, 299.564 213.293, 300.429 212.429 C 301.773 211.084, 302 207.264, 302 186 C 302 164.736, 301.773 160.916, 300.429 159.571 C 299.564 158.707, 298.471 158, 298 158 C 297.529 158, 296.436 158.707, 295.571 159.571 M 327.571 159.571 C 326.227 160.916, 326 164.736, 326 186 C 326 207.264, 326.227 211.084, 327.571 212.429 C 328.436 213.293, 329.529 214, 330 214 C 330.471 214, 331.564 213.293, 332.429 212.429 C 333.773 211.084, 334 207.264, 334 186 C 334 164.736, 333.773 160.916, 332.429 159.571 C 331.564 158.707, 330.471 158, 330 158 C 329.529 158, 328.436 158.707, 327.571 159.571 M 7.571 191.571 C 6.707 192.436, 6 193.659, 6 194.290 C 6 195.969, 40.307 230, 42 230 C 43.693 230, 78 195.969, 78 194.290 C 78 192.827, 75.200 190, 73.751 190 C 73.143 190, 65.750 196.844, 57.323 205.208 L 42 220.416 26.677 205.208 C 18.250 196.844, 10.857 190, 10.249 190 C 9.640 190, 8.436 190.707, 7.571 191.571 M 263.571 222.571 C 262.707 223.436, 262 224.529, 262 225 C 262 226.111, 264.889 229, 266 229 C 267.111 229, 270 226.111, 270 225 C 270 223.889, 267.111 221, 266 221 C 265.529 221, 264.436 221.707, 263.571 222.571 M 295.571 222.571 C 294.707 223.436, 294 224.529, 294 225 C 294 226.111, 296.889 229, 298 229 C 299.111 229, 302 226.111, 302 225 C 302 223.889, 299.111 221, 298 221 C 297.529 221, 296.436 221.707, 295.571 222.571 M 327.571 222.571 C 326.707 223.436, 326 224.529, 326 225 C 326 226.111, 328.889 229, 330 229 C 331.111 229, 334 226.111, 334 225 C 334 223.889, 331.111 221, 330 221 C 329.529 221, 328.436 221.707, 327.571 222.571 M 31.263 239.514 C 19.394 242.093, 4.465 252.194, 5.170 257.170 C 5.707 260.959, 9.610 260.767, 13.870 256.741 C 29.868 241.622, 58.122 242.740, 71 259 C 74.729 263.708, 81.819 268.330, 89.581 271.114 C 97.853 274.081, 112.147 274.081, 120.419 271.114 C 131.028 267.310, 141.692 258.967, 140.366 255.511 C 139.200 252.472, 136.090 252.793, 131.681 256.406 C 129.304 258.353, 124.692 261.195, 121.430 262.723 C 116.127 265.206, 114.389 265.500, 105 265.500 C 95.594 265.500, 93.878 265.209, 88.528 262.704 C 84.759 260.939, 80.284 257.602, 76.397 253.656 C 69.099 246.250, 60.585 241.443, 51.270 239.469 C 43.083 237.735, 39.416 237.743, 31.263 239.514 " stroke="none" fill="black" fill-rule="evenodd"/>
</svg>