<svg xmlns="http://www.w3.org/2000/svg" width="403" height="324" viewBox="0 0 403 324" version="1.1">
	<path d="M 103.571 127.571 C 102.176 128.966, 102 136.152, 102 191.571 L 102 254 87.571 254 C 75.788 254, 72.855 254.288, 71.571 255.571 C 69.595 257.548, 69.598 258.455, 71.585 260.442 C 72.978 261.835, 77.159 261.995, 106.226 261.763 C 136.452 261.523, 139.377 261.350, 140.386 259.750 C 141.190 258.475, 141.191 257.525, 140.387 256.250 C 139.433 254.736, 137.314 254.463, 124.643 254.223 L 110 253.947 110 192.196 C 110 137.925, 109.811 130.176, 108.443 128.223 C 106.598 125.588, 105.678 125.465, 103.571 127.571 M 295.244 159.256 C 276.960 177.546, 262 193.280, 262 194.220 C 262 195.160, 262.961 196.444, 264.136 197.073 C 266.102 198.125, 268.791 195.698, 297.892 166.608 L 329.512 135 360.006 165.562 C 376.778 182.372, 391.316 196.578, 392.314 197.132 C 394.451 198.318, 397 196.680, 397 194.122 C 397 192.395, 331.201 126, 329.489 126 C 328.939 126, 313.529 140.965, 295.244 159.256 M 167.750 159.073 C 165.413 160.444, 165.527 163.677, 167.960 164.979 C 169.243 165.665, 181.208 165.936, 202.601 165.764 C 232.469 165.523, 235.378 165.349, 236.386 163.750 C 237.191 162.474, 237.191 161.526, 236.386 160.250 C 235.377 158.649, 232.483 158.481, 202.391 158.273 C 181.280 158.127, 168.873 158.414, 167.750 159.073 M 327.750 159.080 C 326.229 159.966, 326 161.758, 326 172.768 L 326 185.437 320.120 179.619 C 314.896 174.450, 314.004 173.927, 312.120 174.936 C 308.640 176.798, 309.626 179.076, 317.225 186.726 L 324.450 194 317.225 201.274 C 309.626 208.924, 308.640 211.202, 312.120 213.064 C 314.004 214.073, 314.896 213.550, 320.120 208.381 L 326 202.563 326 215.246 C 326 227.037, 326.145 228.007, 328.064 229.034 C 332.177 231.236, 333 228.934, 333 215.225 L 333 202.696 338.926 208.348 C 345.212 214.344, 345.907 214.693, 347.800 212.800 C 350.049 210.551, 349.003 208.550, 341.775 201.274 L 334.550 194 341.775 186.726 C 349.003 179.450, 350.049 177.449, 347.800 175.200 C 345.907 173.307, 345.212 173.656, 338.926 179.652 L 333 185.304 333 172.852 C 333 158.713, 332.161 156.511, 327.750 159.080 M 20.648 190.983 C 13.384 193.272, 7.912 199.505, 6.503 207.096 C 5.855 210.586, 7.585 214, 10 214 C 11.861 214, 14 210.700, 14 207.829 C 14 205.718, 15.030 203.770, 17.400 201.400 C 20.302 198.498, 21.488 198, 25.500 198 C 29.512 198, 30.698 198.498, 33.600 201.400 C 39.296 207.096, 38.903 208.183, 21.941 233.589 C 13.658 245.994, 6.657 256.729, 6.383 257.443 C 6.109 258.158, 6.618 259.475, 7.514 260.371 C 9.895 262.753, 42.054 262.803, 44.429 260.429 C 46.402 258.455, 46.402 257.545, 44.429 255.571 C 43.162 254.305, 40.348 254, 29.926 254 L 16.995 254 31.499 232.239 L 46.002 210.477 44.025 205.068 C 40.046 194.184, 29.898 188.069, 20.648 190.983 M 167.750 223.073 C 165.413 224.444, 165.527 227.677, 167.960 228.979 C 169.243 229.665, 181.208 229.936, 202.601 229.764 C 232.469 229.523, 235.378 229.349, 236.386 227.750 C 237.191 226.474, 237.191 225.526, 236.386 224.250 C 235.377 222.649, 232.483 222.481, 202.391 222.273 C 181.280 222.127, 168.873 222.414, 167.750 223.073 " stroke="none" fill="black" fill-rule="evenodd"/>
</svg>