<svg xmlns="http://www.w3.org/2000/svg" width="436" height="324" viewBox="0 0 436 324" version="1.1">
	<path d="M 103.571 127.571 C 102.199 128.944, 102 133.890, 102 166.699 L 102 204.255 97.599 200.198 C 92.503 195.500, 86.962 192.459, 81.703 191.472 L 78 190.777 78 175.960 C 78 163.823, 77.716 160.859, 76.429 159.571 C 75.064 158.207, 70.537 158, 42 158 C 13.463 158, 8.936 158.207, 7.571 159.571 C 6.207 160.936, 6 165.463, 6 194 C 6 222.537, 6.207 227.064, 7.571 228.429 C 8.860 229.717, 11.833 230, 24.071 230 L 39 230 39 232.340 C 39 233.627, 40.362 237.406, 42.027 240.738 C 52.663 262.022, 79.525 267.169, 97.100 251.290 C 102.082 246.790, 105.364 241.277, 107.692 233.500 C 109.296 228.142, 109.517 222.238, 109.762 178.340 C 110.007 134.505, 109.864 129.007, 108.447 127.590 C 106.455 125.597, 105.549 125.594, 103.571 127.571 M 135.200 159.200 C 133.481 160.919, 133.481 227.081, 135.200 228.800 C 136.109 229.709, 152.229 230, 201.629 230 C 259.594 230, 267.032 229.825, 268.429 228.429 C 269.793 227.064, 270 222.537, 270 194 C 270 165.463, 269.793 160.936, 268.429 159.571 C 267.032 158.175, 259.594 158, 201.629 158 C 152.229 158, 136.109 158.291, 135.200 159.200 M 391.750 159.082 C 390.788 159.642, 390 160.858, 390 161.786 C 390 162.714, 395.956 169.442, 403.236 176.737 L 416.472 190 357.170 190 C 318.204 190, 297.205 190.355, 295.934 191.035 C 294.870 191.605, 294 192.939, 294 194 C 294 195.061, 294.870 196.395, 295.934 196.965 C 297.205 197.645, 318.204 198, 357.170 198 L 416.472 198 403.236 211.263 C 395.956 218.558, 390 225.292, 390 226.228 C 390 227.164, 390.952 228.439, 392.115 229.062 C 394.040 230.092, 395.774 228.675, 411.348 213.347 C 428.797 196.174, 429.958 194.961, 429.985 193.886 C 430.002 193.179, 395.261 158.610, 394.202 158.282 C 393.816 158.162, 392.712 158.522, 391.750 159.082 M 14 194 L 14 222 26.500 222 L 39 222 39 219.160 C 39 214.734, 44.586 204.637, 49.582 200.031 C 54.680 195.332, 63.116 191.024, 67.250 191.010 L 70 191 70 178.500 L 70 166 42 166 L 14 166 14 194 M 142 194 L 142 222 170 222 L 198 222 198 194 L 198 166 170 166 L 142 166 142 194 M 206 194 L 206 222 234 222 L 262 222 262 194 L 262 166 234 166 L 206 166 206 194 M 63.385 199.617 C 55.428 202.439, 48.611 210.342, 46.450 219.250 L 45.783 222 57.892 222 L 70 222 70 210 C 70 196.784, 70.253 197.181, 63.385 199.617 M 78 212.361 C 78 224.206, 77.713 227.145, 76.429 228.429 C 75.145 229.713, 72.206 230, 60.361 230 L 45.865 230 46.525 232.250 C 50.375 245.376, 60.621 253.106, 73.928 252.924 C 84.743 252.776, 93.056 247.578, 97.864 237.957 C 102.232 229.214, 102.238 221.797, 97.883 213.081 C 94.088 205.487, 88.986 201.288, 80.250 198.566 L 78 197.865 78 212.361 M 311.315 239.213 C 301.792 248.680, 294 257.134, 294 258 C 294 259.680, 327.953 294, 329.615 294 C 331.240 294, 333 291.731, 333 289.636 C 333 288.461, 327.902 282.519, 320.307 274.844 L 307.615 262.016 367.448 261.758 C 423.182 261.518, 427.358 261.380, 428.386 259.750 C 429.191 258.474, 429.191 257.526, 428.386 256.250 C 427.358 254.620, 423.182 254.482, 367.448 254.242 L 307.615 253.984 320.307 241.156 C 327.902 233.481, 333 227.539, 333 226.364 C 333 224.269, 331.240 222, 329.615 222 C 329.073 222, 320.838 229.746, 311.315 239.213 " stroke="none" fill="black" fill-rule="evenodd"/>
</svg>