<svg xmlns="http://www.w3.org/2000/svg" width="308" height="324" viewBox="0 0 308 324" version="1.1">
	<path d="M 198.750 127.080 C 197.648 127.722, 197 129.310, 197 131.366 C 197 136.908, 194.930 146.213, 192.299 152.500 C 185.090 169.726, 169.851 182.804, 151.540 187.478 C 141.382 190.072, 140.672 189.847, 138.689 183.406 C 133.959 168.044, 121.175 158.714, 104.880 158.728 C 98.870 158.733, 96.098 159.266, 91.760 161.252 C 81.697 165.859, 74.004 174.823, 71.440 184.929 L 70.280 189.500 39.103 190 C 12.854 190.421, 7.775 190.737, 6.978 192 C 5.681 194.053, 5.756 194.613, 7.571 196.429 C 8.969 197.826, 16.678 198, 77.361 198 C 152.147 198, 151.093 197.926, 163.713 204.066 C 183.149 213.522, 197 235.194, 197 256.148 C 197 260.637, 199.978 263.093, 202.691 260.842 C 204.809 259.083, 203.938 245.908, 201.114 237 C 195.980 220.808, 182.741 205.437, 167.431 197.893 L 158.500 193.492 167.497 189.070 C 184.539 180.694, 198.108 163.586, 202.451 145 C 204.281 137.169, 204.444 128.844, 202.800 127.200 C 201.367 125.767, 201.022 125.757, 198.750 127.080 M 231.750 127.073 C 229.423 128.438, 229.524 131.675, 231.934 132.965 C 233.005 133.538, 240.151 134, 247.934 134 L 262 134 262 194 L 262 254 247.934 254 C 233.308 254, 230 254.738, 230 258 C 230 261.750, 232.791 262.037, 266.601 261.764 C 296.469 261.523, 299.378 261.349, 300.386 259.750 C 301.190 258.475, 301.191 257.525, 300.387 256.250 C 299.430 254.730, 297.291 254.464, 284.142 254.224 L 269 253.948 269 194 L 269 134.052 284.142 133.776 C 297.291 133.536, 299.430 133.270, 300.387 131.750 C 301.191 130.475, 301.190 129.525, 300.386 128.250 C 299.377 126.649, 296.483 126.481, 266.391 126.273 C 245.280 126.127, 232.873 126.414, 231.750 127.073 M 95.385 167.617 C 89.552 169.686, 83.605 175.144, 80.588 181.199 C 75.895 190.618, 74.144 190, 105.519 190 L 133.038 190 132.379 187.250 C 130.467 179.277, 125.249 172.780, 117.745 169.030 C 110.822 165.571, 102.617 165.052, 95.385 167.617 " stroke="none" fill="black" fill-rule="evenodd"/>
</svg>