<svg xmlns="http://www.w3.org/2000/svg" width="244" height="324" viewBox="0 0 244 324" version="1.1">
	<path d="M 55.282 143.282 C 45.777 152.787, 38 161.191, 38 161.959 C 38 162.727, 44.848 170.254, 53.218 178.688 L 68.437 194.021 37.218 225.297 C 20.048 242.499, 6 257.087, 6 257.715 C 6 259.191, 8.809 262, 10.285 262 C 10.913 262, 25.501 247.952, 42.703 230.782 L 73.979 199.563 89.312 214.782 C 97.746 223.152, 105.257 230, 106.004 230 C 107.991 230, 139.983 197.904, 140.654 195.237 C 141.237 192.921, 139.589 190, 137.700 190 C 137.120 190, 129.742 196.852, 121.304 205.227 L 105.963 220.453 92.740 207.231 L 79.517 194.008 94.259 179.242 C 103.594 169.891, 109 163.728, 109 162.438 C 109 160.284, 107.262 158, 105.623 158 C 105.085 158, 97.742 164.852, 89.304 173.227 L 73.963 188.453 60.755 175.245 L 47.547 162.037 62.773 146.696 C 71.148 138.258, 78 130.857, 78 130.249 C 78 128.800, 75.173 126, 73.710 126 C 73.079 126, 64.787 133.777, 55.282 143.282 M 231.750 127.080 C 230.132 128.023, 230 130.976, 230 166.351 L 230 204.602 224.938 199.850 C 211.321 187.065, 190.330 187.432, 176.824 200.689 C 162.942 214.316, 162.942 236.684, 176.824 250.311 C 183.751 257.111, 191.646 260.380, 200.992 260.319 C 218.738 260.204, 232.081 249.066, 235.875 231.201 C 236.621 227.688, 237 209.466, 237 177.151 C 237 124.296, 236.973 124.038, 231.750 127.080 M 191.627 199.468 C 186.247 201.386, 181.039 205.829, 177.500 211.519 C 173.527 217.908, 172.712 229.311, 175.741 236.129 C 180.289 246.364, 188.183 251.994, 199.078 252.773 C 206.881 253.332, 212.235 251.787, 218.674 247.119 C 226.430 241.497, 230.774 228.233, 228.098 218.343 C 224.899 206.521, 213.747 197.958, 201.663 198.044 C 198.273 198.068, 193.757 198.709, 191.627 199.468 " stroke="none" fill="black" fill-rule="evenodd"/>
</svg>