<svg xmlns="http://www.w3.org/2000/svg" width="468" height="324" viewBox="0 0 468 324" version="1.1">
	<path d="M 39.267 159.267 C 20.970 177.563, 6 193.056, 6 193.695 C 6 195.187, 8.799 198, 10.285 198 C 10.913 198, 25.506 183.947, 42.713 166.771 L 74 135.542 105.287 166.771 C 122.494 183.947, 137.087 198, 137.715 198 C 139.201 198, 142 195.187, 142 193.695 C 142 191.982, 75.721 126, 74 126 C 73.193 126, 57.563 140.970, 39.267 159.267 M 359.267 159.267 C 340.970 177.563, 326 193.056, 326 193.695 C 326 195.187, 328.799 198, 330.285 198 C 330.913 198, 345.506 183.947, 362.713 166.771 L 394 135.542 425.287 166.771 C 442.494 183.947, 457.087 198, 457.715 198 C 459.201 198, 462 195.187, 462 193.695 C 462 191.982, 395.721 126, 394 126 C 393.193 126, 377.563 140.970, 359.267 159.267 M 231.571 159.571 C 230.707 160.436, 230 161.529, 230 162 C 230 162.471, 230.707 163.564, 231.571 164.429 C 232.936 165.793, 237.463 166, 266 166 C 294.537 166, 299.064 165.793, 300.429 164.429 C 301.293 163.564, 302 162.471, 302 162 C 302 161.529, 301.293 160.436, 300.429 159.571 C 299.064 158.207, 294.537 158, 266 158 C 237.463 158, 232.936 158.207, 231.571 159.571 M 391.571 159.571 C 390.324 160.819, 390 163.528, 390 172.716 L 390 184.290 384.560 179.145 C 381.568 176.315, 378.675 174, 378.131 174 C 376.829 174, 374 176.861, 374 178.178 C 374 178.747, 377.226 182.540, 381.169 186.607 L 388.338 194 381.169 201.393 C 377.226 205.460, 374 209.253, 374 209.822 C 374 211.139, 376.829 214, 378.131 214 C 378.675 214, 381.568 211.685, 384.560 208.855 L 390 203.710 390 215.284 C 390 224.472, 390.324 227.181, 391.571 228.429 C 393.545 230.402, 394.455 230.402, 396.429 228.429 C 397.676 227.181, 398 224.472, 398 215.284 L 398 203.710 403.440 208.855 C 406.432 211.685, 409.325 214, 409.869 214 C 411.171 214, 414 211.139, 414 209.822 C 414 209.253, 410.774 205.460, 406.831 201.393 L 399.662 194 406.831 186.607 C 410.774 182.540, 414 178.747, 414 178.178 C 414 176.861, 411.171 174, 409.869 174 C 409.325 174, 406.432 176.315, 403.440 179.145 L 398 184.290 398 172.716 C 398 163.528, 397.676 160.819, 396.429 159.571 C 395.564 158.707, 394.471 158, 394 158 C 393.529 158, 392.436 158.707, 391.571 159.571 M 72.370 190.765 C 70.401 192.045, 38.007 257.855, 38.594 259.384 C 39.265 261.133, 41.512 262.124, 43.274 261.448 C 43.975 261.180, 51.056 247.919, 59.010 231.980 C 66.964 216.041, 73.710 203, 74 203 C 74.290 203, 81.036 216.041, 88.990 231.980 C 96.944 247.919, 104.025 261.180, 104.726 261.448 C 106.488 262.124, 108.735 261.133, 109.406 259.384 C 109.993 257.855, 77.599 192.045, 75.630 190.765 C 75.009 190.361, 74.275 190.031, 74 190.031 C 73.725 190.031, 72.991 190.361, 72.370 190.765 M 180.764 190.952 C 173.186 193.355, 167.955 199.277, 166.503 207.096 C 165.855 210.586, 167.585 214, 170 214 C 171.861 214, 174 210.700, 174 207.829 C 174 205.718, 175.030 203.770, 177.400 201.400 C 180.302 198.498, 181.488 198, 185.500 198 C 189.512 198, 190.698 198.498, 193.600 201.400 C 199.296 207.096, 198.903 208.183, 181.941 233.589 C 173.658 245.994, 166.657 256.729, 166.383 257.443 C 166.109 258.158, 166.618 259.475, 167.514 260.371 C 169.895 262.753, 202.054 262.803, 204.429 260.429 C 206.402 258.455, 206.402 257.545, 204.429 255.571 C 203.162 254.305, 200.348 254, 189.926 254 L 176.995 254 191.477 232.250 L 205.960 210.500 204.402 206 C 203.546 203.525, 202.002 200.133, 200.972 198.462 C 197.448 192.747, 187.161 188.924, 180.764 190.952 M 231.571 223.571 C 230.707 224.436, 230 225.529, 230 226 C 230 226.471, 230.707 227.564, 231.571 228.429 C 232.936 229.793, 237.463 230, 266 230 C 294.537 230, 299.064 229.793, 300.429 228.429 C 301.293 227.564, 302 226.471, 302 226 C 302 225.529, 301.293 224.436, 300.429 223.571 C 299.064 222.207, 294.537 222, 266 222 C 237.463 222, 232.936 222.207, 231.571 223.571 " stroke="none" fill="black" fill-rule="evenodd"/>
</svg>