<svg xmlns="http://www.w3.org/2000/svg" width="292" height="324" viewBox="0 0 292 324" version="1.1">
	<path d="M 103.571 127.571 C 102.199 128.944, 102 133.890, 102 166.699 L 102 204.255 97.599 200.198 C 92.503 195.500, 86.962 192.459, 81.703 191.472 L 78 190.777 78 175.960 C 78 163.823, 77.716 160.859, 76.429 159.571 C 75.064 158.207, 70.537 158, 42 158 C 13.463 158, 8.936 158.207, 7.571 159.571 C 6.207 160.936, 6 165.463, 6 194 C 6 222.537, 6.207 227.064, 7.571 228.429 C 8.860 229.717, 11.833 230, 24.071 230 L 39 230 39 232.340 C 39 233.627, 40.362 237.406, 42.027 240.738 C 52.663 262.022, 79.525 267.169, 97.100 251.290 C 102.082 246.790, 105.364 241.277, 107.692 233.500 C 109.296 228.142, 109.517 222.238, 109.762 178.340 C 110.007 134.505, 109.864 129.007, 108.447 127.590 C 106.455 125.597, 105.549 125.594, 103.571 127.571 M 135.571 127.571 C 134.175 128.968, 134 136.372, 134 194 C 134 251.628, 134.175 259.032, 135.571 260.429 C 136.436 261.293, 137.529 262, 138 262 C 138.471 262, 139.564 261.293, 140.429 260.429 C 141.825 259.032, 142 251.628, 142 194 C 142 136.372, 141.825 128.968, 140.429 127.571 C 139.564 126.707, 138.471 126, 138 126 C 137.529 126, 136.436 126.707, 135.571 127.571 M 167.315 143.213 C 157.792 152.680, 150 161.134, 150 162 C 150 162.866, 157.850 171.378, 167.444 180.916 C 180.128 193.525, 185.335 198.085, 186.526 197.628 C 187.427 197.283, 188.352 197, 188.582 197 C 188.812 197, 189 195.768, 189 194.262 C 189 192.070, 186.063 188.582, 174.263 176.762 L 159.525 162 174.263 147.238 C 185.771 135.710, 189 131.899, 189 129.845 C 189 127.579, 187.453 126, 185.233 126 C 184.901 126, 176.838 133.746, 167.315 143.213 M 14 194.031 L 14 222.062 26.141 221.781 L 38.282 221.500 39.441 216.929 C 41.961 206.990, 49.620 197.948, 59.360 193.413 C 62.187 192.096, 65.737 191.015, 67.250 191.010 L 70 191 70 178.500 L 70 166 42 166 L 14 166 14 194.031 M 215.750 191.073 C 213.423 192.438, 213.524 195.675, 215.934 196.965 C 217.005 197.538, 224.151 198, 231.934 198 L 246 198 246 226 L 246 254 231.934 254 C 217.308 254, 214 254.738, 214 258 C 214 261.750, 216.791 262.037, 250.601 261.764 C 280.469 261.523, 283.378 261.349, 284.386 259.750 C 285.190 258.475, 285.191 257.525, 284.387 256.250 C 283.433 254.736, 281.314 254.463, 268.643 254.223 L 254 253.947 254 226 L 254 198.053 268.643 197.777 C 281.314 197.537, 283.433 197.264, 284.387 195.750 C 285.191 194.475, 285.190 193.525, 284.386 192.250 C 283.377 190.649, 280.483 190.481, 250.391 190.273 C 229.280 190.127, 216.873 190.414, 215.750 191.073 M 63.385 199.617 C 55.428 202.439, 48.611 210.342, 46.450 219.250 L 45.783 222 57.892 222 L 70 222 70 210 C 70 196.784, 70.253 197.181, 63.385 199.617 M 78 212.361 C 78 224.206, 77.713 227.145, 76.429 228.429 C 75.145 229.713, 72.206 230, 60.361 230 L 45.865 230 46.525 232.250 C 50.375 245.376, 60.621 253.106, 73.928 252.924 C 84.743 252.776, 93.056 247.578, 97.864 237.957 C 102.232 229.214, 102.238 221.797, 97.883 213.081 C 94.088 205.487, 88.986 201.288, 80.250 198.566 L 78 197.865 78 212.361 " stroke="none" fill="black" fill-rule="evenodd"/>
</svg>