<svg xmlns="http://www.w3.org/2000/svg" width="420" height="324" viewBox="0 0 420 324" version="1.1">
	<path d="M 103.571 127.571 C 102.199 128.944, 102 133.890, 102 166.699 L 102 204.255 97.445 200.056 C 92.576 195.568, 83.942 191.026, 80.250 191.010 C 78.018 191, 78 190.883, 78 176.071 C 78 163.833, 77.717 160.860, 76.429 159.571 C 75.064 158.207, 70.537 158, 42 158 C 13.463 158, 8.936 158.207, 7.571 159.571 C 6.207 160.936, 6 165.463, 6 194 C 6 222.537, 6.207 227.064, 7.571 228.429 C 8.860 229.717, 11.833 230, 24.071 230 L 39 230 39 232.340 C 39 236.333, 44.832 246.591, 49.602 250.987 C 56.748 257.574, 63.903 260.389, 73.500 260.389 C 80 260.389, 82.564 259.901, 87.175 257.784 C 97.668 252.968, 105.480 243.518, 108.208 232.340 C 109.010 229.056, 109.494 211.697, 109.713 178.340 C 110.002 134.463, 109.866 129.009, 108.447 127.590 C 106.455 125.597, 105.549 125.594, 103.571 127.571 M 295.571 127.571 C 294.707 128.436, 294 129.529, 294 130 C 294 130.471, 294.707 131.564, 295.571 132.429 C 296.936 133.793, 301.463 134, 330 134 C 358.537 134, 363.064 133.793, 364.429 132.429 C 365.293 131.564, 366 130.471, 366 130 C 366 129.529, 365.293 128.436, 364.429 127.571 C 363.064 126.207, 358.537 126, 330 126 C 301.463 126, 296.936 126.207, 295.571 127.571 M 135.571 159.571 C 134.207 160.936, 134 165.463, 134 194 C 134 222.537, 134.207 227.064, 135.571 228.429 C 136.968 229.825, 144.372 230, 202 230 C 259.628 230, 267.032 229.825, 268.429 228.429 C 269.793 227.064, 270 222.537, 270 194 C 270 165.463, 269.793 160.936, 268.429 159.571 C 267.032 158.175, 259.628 158, 202 158 C 144.372 158, 136.968 158.175, 135.571 159.571 M 295.571 159.571 C 294.707 160.436, 294 161.529, 294 162 C 294 162.471, 294.707 163.564, 295.571 164.429 C 296.936 165.793, 301.463 166, 330 166 C 358.537 166, 363.064 165.793, 364.429 164.429 C 365.293 163.564, 366 162.471, 366 162 C 366 161.529, 365.293 160.436, 364.429 159.571 C 363.064 158.207, 358.537 158, 330 158 C 301.463 158, 296.936 158.207, 295.571 159.571 M 14 194 L 14 222 26.500 222 L 39 222 39 219.160 C 39 214.734, 44.586 204.637, 49.582 200.031 C 54.680 195.332, 63.116 191.024, 67.250 191.010 L 70 191 70 178.500 L 70 166 42 166 L 14 166 14 194 M 142 194 L 142 222 170 222 L 198 222 198 194 L 198 166 170 166 L 142 166 142 194 M 206 194 L 206 222 234 222 L 262 222 262 194 L 262 166 234 166 L 206 166 206 194 M 295.571 191.571 C 294.707 192.436, 294 193.529, 294 194 C 294 194.471, 294.707 195.564, 295.571 196.429 C 296.936 197.793, 301.463 198, 330 198 C 358.537 198, 363.064 197.793, 364.429 196.429 C 365.293 195.564, 366 194.471, 366 194 C 366 193.529, 365.293 192.436, 364.429 191.571 C 363.064 190.207, 358.537 190, 330 190 C 301.463 190, 296.936 190.207, 295.571 191.571 M 64.453 199.326 C 59.348 201.293, 54.352 204.850, 51.568 208.500 C 49.193 211.613, 46 218.854, 46 221.126 C 46 221.607, 51.400 222, 58 222 L 70 222 70 210 C 70 197.041, 70.064 197.164, 64.453 199.326 M 78 212.361 C 78 224.206, 77.713 227.145, 76.429 228.429 C 75.145 229.713, 72.206 230, 60.361 230 L 45.865 230 46.544 232.250 C 48.972 240.302, 54.588 247.131, 61.533 250.478 C 67.097 253.159, 76.591 253.629, 82.895 251.535 C 88.766 249.585, 95.568 243.476, 98.523 237.500 C 101.287 231.908, 101.293 219.099, 98.533 213.533 C 94.948 206.303, 88.603 201.103, 80.250 198.552 L 78 197.865 78 212.361 M 295.571 223.571 C 294.707 224.436, 294 225.529, 294 226 C 294 226.471, 294.707 227.564, 295.571 228.429 C 296.936 229.793, 301.463 230, 330 230 C 358.537 230, 363.064 229.793, 364.429 228.429 C 365.293 227.564, 366 226.471, 366 226 C 366 225.529, 365.293 224.436, 364.429 223.571 C 363.064 222.207, 358.537 222, 330 222 C 301.463 222, 296.936 222.207, 295.571 223.571 M 391.282 239.282 C 381.777 248.787, 374 257.210, 374 258 C 374 259.693, 408.031 294, 409.710 294 C 411.173 294, 414 291.200, 414 289.751 C 414 289.143, 407.156 281.750, 398.792 273.323 L 383.584 258 398.792 242.677 C 407.156 234.250, 414 226.857, 414 226.249 C 414 224.800, 411.173 222, 409.710 222 C 409.079 222, 400.787 229.777, 391.282 239.282 M 295.571 255.571 C 294.707 256.436, 294 257.529, 294 258 C 294 258.471, 294.707 259.564, 295.571 260.429 C 296.936 261.793, 301.463 262, 330 262 C 358.537 262, 363.064 261.793, 364.429 260.429 C 365.293 259.564, 366 258.471, 366 258 C 366 257.529, 365.293 256.436, 364.429 255.571 C 363.064 254.207, 358.537 254, 330 254 C 301.463 254, 296.936 254.207, 295.571 255.571 " stroke="none" fill="black" fill-rule="evenodd"/>
</svg>