<svg xmlns="http://www.w3.org/2000/svg" width="148" height="324" viewBox="0 0 148 324" version="1.1">
	<path d="M 71.550 62.918 C 67.869 68.875, 54.190 98.331, 54.604 99.410 C 55.269 101.144, 57.524 102.120, 59.295 101.440 C 60.007 101.167, 63.480 95.106, 67.014 87.972 C 70.547 80.837, 73.677 75.022, 73.969 75.048 C 74.261 75.074, 77.290 80.868, 80.700 87.922 C 84.109 94.976, 87.654 101.037, 88.576 101.391 C 90.682 102.199, 93 100.352, 93 97.866 C 93 95.626, 77.264 63.831, 75.628 62.765 C 74.071 61.751, 72.229 61.820, 71.550 62.918 M 7.571 127.571 C 6.175 128.968, 6 136.372, 6 194 C 6 251.753, 6.173 259.030, 7.579 260.436 C 8.990 261.847, 16.058 261.987, 74.220 261.757 C 134.934 261.517, 139.356 261.383, 140.386 259.750 C 141.191 258.474, 141.191 257.526, 140.386 256.250 C 139.379 254.653, 136.518 254.477, 107.641 254.236 L 76 253.972 75.985 250.736 C 75.958 244.703, 72.976 234.760, 68.772 226.678 C 59.728 209.296, 42.383 195.849, 23.887 191.882 L 18.799 190.791 32.400 177.065 C 39.880 169.516, 46 162.845, 46 162.241 C 46 160.822, 43.180 158, 41.761 158 C 41.159 158, 34.666 163.941, 27.333 171.202 L 14 184.405 14 156.774 C 14 132.988, 13.781 128.924, 12.429 127.571 C 11.564 126.707, 10.471 126, 10 126 C 9.529 126, 8.436 126.707, 7.571 127.571 M 33.250 211.730 C 40.263 218.848, 46 225.164, 46 225.765 C 46 227.179, 43.177 230, 41.761 230 C 41.159 230, 34.666 224.059, 27.333 216.798 L 14 203.595 14 228.798 L 14 254 41.594 254 L 69.188 254 68.476 248.750 C 65.930 229.980, 53.176 212.543, 35.863 204.159 C 31.263 201.932, 25.925 199.813, 24 199.449 C 20.696 198.826, 21.213 199.513, 33.250 211.730 " stroke="none" fill="black" fill-rule="evenodd"/>
</svg>