<svg xmlns="http://www.w3.org/2000/svg" width="420" height="324" viewBox="0 0 420 324" version="1.1">
	<path d="M 391.282 111.282 C 381.777 120.787, 374 129.210, 374 130 C 374 131.693, 408.031 166, 409.710 166 C 411.173 166, 414 163.200, 414 161.751 C 414 161.143, 407.156 153.750, 398.792 145.323 L 383.584 130 398.792 114.677 C 407.156 106.250, 414 98.857, 414 98.249 C 414 96.800, 411.173 94, 409.710 94 C 409.079 94, 400.787 101.777, 391.282 111.282 M 103.571 127.571 C 102.199 128.944, 102 133.890, 102 166.699 L 102 204.255 97.445 200.056 C 92.576 195.568, 83.942 191.026, 80.250 191.010 C 78.018 191, 78 190.883, 78 176.071 C 78 163.833, 77.717 160.860, 76.429 159.571 C 75.064 158.207, 70.537 158, 42 158 C 13.463 158, 8.936 158.207, 7.571 159.571 C 6.207 160.936, 6 165.463, 6 194 C 6 222.537, 6.207 227.064, 7.571 228.429 C 8.860 229.717, 11.833 230, 24.071 230 L 39 230 39 232.340 C 39 236.333, 44.832 246.591, 49.602 250.987 C 56.748 257.574, 63.903 260.389, 73.500 260.389 C 80 260.389, 82.564 259.901, 87.175 257.784 C 97.668 252.968, 105.480 243.518, 108.208 232.340 C 109.010 229.056, 109.494 211.697, 109.713 178.340 C 110.002 134.463, 109.866 129.009, 108.447 127.590 C 106.455 125.597, 105.549 125.594, 103.571 127.571 M 199.571 127.571 C 198.212 128.931, 198 133.233, 198 159.464 C 198 192.836, 198.365 191, 191.732 191 C 182.568 191, 163.820 198.385, 152.529 206.442 C 145.095 211.747, 134 223.523, 134 226.109 C 134 229.637, 137.165 230, 167.934 230 L 198 230 198 244.429 C 198 256.212, 198.288 259.145, 199.571 260.429 C 200.436 261.293, 201.529 262, 202 262 C 202.471 262, 203.564 261.293, 204.429 260.429 C 205.712 259.145, 206 256.212, 206 244.429 L 206 230 236.965 230 C 267.012 230, 267.962 229.940, 269.011 227.979 C 270.331 225.514, 270.166 225.238, 262.582 217.204 C 249.182 203.009, 230.280 193.123, 212.872 191.203 L 206.500 190.500 206 159.213 C 205.579 132.866, 205.263 127.775, 204 126.978 C 201.947 125.681, 201.387 125.756, 199.571 127.571 M 295.571 127.571 C 294.707 128.436, 294 129.529, 294 130 C 294 130.471, 294.707 131.564, 295.571 132.429 C 296.936 133.793, 301.463 134, 330 134 C 358.537 134, 363.064 133.793, 364.429 132.429 C 365.293 131.564, 366 130.471, 366 130 C 366 129.529, 365.293 128.436, 364.429 127.571 C 363.064 126.207, 358.537 126, 330 126 C 301.463 126, 296.936 126.207, 295.571 127.571 M 295.571 159.571 C 294.707 160.436, 294 161.529, 294 162 C 294 162.471, 294.707 163.564, 295.571 164.429 C 296.936 165.793, 301.463 166, 330 166 C 358.537 166, 363.064 165.793, 364.429 164.429 C 365.293 163.564, 366 162.471, 366 162 C 366 161.529, 365.293 160.436, 364.429 159.571 C 363.064 158.207, 358.537 158, 330 158 C 301.463 158, 296.936 158.207, 295.571 159.571 M 14 194 L 14 222 26.500 222 L 39 222 39 219.160 C 39 214.734, 44.586 204.637, 49.582 200.031 C 54.680 195.332, 63.116 191.024, 67.250 191.010 L 70 191 70 178.500 L 70 166 42 166 L 14 166 14 194 M 295.571 191.571 C 294.707 192.436, 294 193.529, 294 194 C 294 194.471, 294.707 195.564, 295.571 196.429 C 296.936 197.793, 301.463 198, 330 198 C 358.537 198, 363.064 197.793, 364.429 196.429 C 365.293 195.564, 366 194.471, 366 194 C 366 193.529, 365.293 192.436, 364.429 191.571 C 363.064 190.207, 358.537 190, 330 190 C 301.463 190, 296.936 190.207, 295.571 191.571 M 64.453 199.326 C 59.348 201.293, 54.352 204.850, 51.568 208.500 C 49.193 211.613, 46 218.854, 46 221.126 C 46 221.607, 51.400 222, 58 222 L 70 222 70 210 C 70 197.041, 70.064 197.164, 64.453 199.326 M 78 212.361 C 78 224.206, 77.713 227.145, 76.429 228.429 C 75.145 229.713, 72.206 230, 60.361 230 L 45.865 230 46.552 232.250 C 49.113 240.634, 54.364 247.023, 61.533 250.478 C 67.097 253.159, 76.591 253.629, 82.895 251.535 C 88.766 249.585, 95.568 243.476, 98.523 237.500 C 101.287 231.908, 101.293 219.099, 98.533 213.533 C 94.948 206.303, 88.603 201.103, 80.250 198.552 L 78 197.865 78 212.361 M 185.500 199.477 C 172.911 202.241, 160.060 208.832, 150.500 217.428 L 145.500 221.923 171.750 221.962 L 198 222 198 210 L 198 198 194.750 198.079 C 192.963 198.123, 188.800 198.752, 185.500 199.477 M 206 210 L 206 222 231.750 221.957 L 257.500 221.915 253 217.860 C 242.702 208.579, 228.530 201.474, 215.566 199.091 C 205.255 197.195, 206 196.346, 206 210 M 295.571 223.571 C 294.707 224.436, 294 225.529, 294 226 C 294 226.471, 294.707 227.564, 295.571 228.429 C 296.936 229.793, 301.463 230, 330 230 C 358.537 230, 363.064 229.793, 364.429 228.429 C 365.293 227.564, 366 226.471, 366 226 C 366 225.529, 365.293 224.436, 364.429 223.571 C 363.064 222.207, 358.537 222, 330 222 C 301.463 222, 296.936 222.207, 295.571 223.571 M 295.571 255.571 C 294.707 256.436, 294 257.529, 294 258 C 294 258.471, 294.707 259.564, 295.571 260.429 C 296.936 261.793, 301.463 262, 330 262 C 358.537 262, 363.064 261.793, 364.429 260.429 C 365.293 259.564, 366 258.471, 366 258 C 366 257.529, 365.293 256.436, 364.429 255.571 C 363.064 254.207, 358.537 254, 330 254 C 301.463 254, 296.936 254.207, 295.571 255.571 " stroke="none" fill="black" fill-rule="evenodd"/>
</svg>