<svg xmlns="http://www.w3.org/2000/svg" width="436" height="324" viewBox="0 0 436 324" version="1.1">
	<path d="M 103.571 127.571 C 102.199 128.944, 102 133.890, 102 166.699 L 102 204.255 97.599 200.198 C 92.503 195.500, 86.962 192.459, 81.703 191.472 L 78 190.777 78 175.960 C 78 163.823, 77.716 160.859, 76.429 159.571 C 75.064 158.207, 70.537 158, 42 158 C 13.463 158, 8.936 158.207, 7.571 159.571 C 6.207 160.936, 6 165.463, 6 194 C 6 222.537, 6.207 227.064, 7.571 228.429 C 8.860 229.717, 11.833 230, 24.071 230 L 39 230 39 232.340 C 39 233.627, 40.362 237.406, 42.027 240.738 C 52.663 262.022, 79.525 267.169, 97.100 251.290 C 102.082 246.790, 105.364 241.277, 107.692 233.500 C 109.296 228.142, 109.517 222.238, 109.762 178.340 C 110.007 134.505, 109.864 129.007, 108.447 127.590 C 106.455 125.597, 105.549 125.594, 103.571 127.571 M 199.571 127.571 C 198.707 128.436, 198 129.640, 198 130.249 C 198 130.857, 204.850 138.256, 213.222 146.691 L 228.444 162.028 181.222 209.288 C 155.250 235.282, 134 257.068, 134 257.703 C 134 259.195, 136.805 262, 138.297 262 C 138.932 262, 160.718 240.750, 186.712 214.778 L 233.972 167.556 249.436 182.904 C 260.610 193.994, 265.353 198.079, 266.532 197.626 C 267.429 197.282, 268.352 197, 268.582 197 C 268.812 197, 269 195.753, 269 194.230 C 269 191.924, 263.496 185.964, 236.215 158.730 C 218.183 140.728, 202.915 126, 202.286 126 C 201.657 126, 200.436 126.707, 199.571 127.571 M 295.200 159.200 C 293.481 160.919, 293.481 227.081, 295.200 228.800 C 296.607 230.207, 425.589 230.548, 427.791 229.150 C 429.679 227.953, 429.679 160.047, 427.791 158.850 C 425.589 157.452, 296.607 157.793, 295.200 159.200 M 14 194 L 14 222 26.500 222 L 39 222 39 219.160 C 39 214.734, 44.586 204.637, 49.582 200.031 C 54.680 195.332, 63.116 191.024, 67.250 191.010 L 70 191 70 178.500 L 70 166 42 166 L 14 166 14 194 M 302 194 L 302 222 314 222 L 326 222 326 194 L 326 166 314 166 L 302 166 302 194 M 334 194 L 334 222 346 222 L 358 222 358 194 L 358 166 346 166 L 334 166 334 194 M 366 194 L 366 222 378 222 L 390 222 390 194 L 390 166 378 166 L 366 166 366 194 M 397 194 L 397 222 409.500 222 L 422 222 422 194 L 422 166 409.500 166 L 397 166 397 194 M 63.385 199.617 C 55.428 202.439, 48.611 210.342, 46.450 219.250 L 45.783 222 57.892 222 L 70 222 70 210 C 70 196.784, 70.253 197.181, 63.385 199.617 M 78 212.361 C 78 224.206, 77.713 227.145, 76.429 228.429 C 75.145 229.713, 72.206 230, 60.361 230 L 45.865 230 46.525 232.250 C 50.375 245.376, 60.621 253.106, 73.928 252.924 C 84.743 252.776, 93.056 247.578, 97.864 237.957 C 102.232 229.214, 102.238 221.797, 97.883 213.081 C 94.088 205.487, 88.986 201.288, 80.250 198.566 L 78 197.865 78 212.361 " stroke="none" fill="black" fill-rule="evenodd"/>
</svg>