<svg xmlns="http://www.w3.org/2000/svg" width="500" height="324" viewBox="0 0 500 324" version="1.1">
	<path d="M 103.571 127.571 C 102.199 128.944, 102 133.890, 102 166.699 L 102 204.255 97.599 200.198 C 92.503 195.500, 86.962 192.459, 81.703 191.472 L 78 190.777 78 175.960 C 78 163.823, 77.716 160.859, 76.429 159.571 C 75.064 158.207, 70.537 158, 42 158 C 13.463 158, 8.936 158.207, 7.571 159.571 C 6.207 160.936, 6 165.463, 6 194 C 6 222.537, 6.207 227.064, 7.571 228.429 C 8.860 229.717, 11.833 230, 24.071 230 L 39 230 39 232.340 C 39 236.275, 44.804 246.565, 49.427 250.826 C 54.921 255.891, 59.905 258.439, 67.295 259.965 C 80.673 262.726, 96.460 255.605, 103.464 243.651 C 109.280 233.724, 109.464 231.820, 109.762 178.340 C 110.007 134.505, 109.864 129.007, 108.447 127.590 C 106.455 125.597, 105.549 125.594, 103.571 127.571 M 135.571 127.571 C 134.707 128.436, 134 129.529, 134 130 C 134 130.471, 134.707 131.564, 135.571 132.429 C 136.966 133.823, 144.015 134, 198.071 134 C 231.582 134, 259 134.223, 259 134.495 C 259 134.768, 252.816 147.368, 245.258 162.495 L 231.517 190 216.693 190 C 201.298 190, 198 190.706, 198 194 C 198 197.203, 201.276 198, 214.434 198 C 221.345 198, 227 198.223, 227 198.496 C 227 198.768, 220.365 212.269, 212.257 228.498 C 200.169 252.690, 197.712 258.320, 198.616 259.752 C 199.629 261.360, 202.432 261.500, 233.500 261.500 C 264.586 261.500, 267.370 261.360, 268.386 259.750 C 269.191 258.474, 269.191 257.526, 268.386 256.250 C 267.382 254.658, 264.613 254.476, 237.645 254.235 L 208.008 253.970 222.007 225.985 L 236.007 198 278.240 198 L 320.472 198 307.236 211.263 C 299.956 218.558, 294 225.292, 294 226.228 C 294 227.164, 294.954 228.440, 296.120 229.064 C 298.049 230.097, 299.785 228.687, 315.471 213.349 C 328.692 200.422, 332.703 195.918, 332.703 194 C 332.703 192.082, 328.692 187.578, 315.471 174.651 C 299.785 159.313, 298.049 157.903, 296.120 158.936 C 294.954 159.560, 294 160.836, 294 161.772 C 294 162.708, 299.956 169.442, 307.236 176.737 L 320.472 190 280.233 190 L 239.994 190 254.997 160.006 C 263.249 143.510, 270 129.817, 270 129.578 C 270 129.339, 269.293 128.436, 268.429 127.571 C 267.032 126.175, 259.628 126, 202 126 C 144.372 126, 136.968 126.175, 135.571 127.571 M 422.200 127.200 C 421.540 127.860, 420.992 129.773, 420.983 131.450 C 420.947 137.734, 417.906 148.764, 414.055 156.577 C 405.327 174.286, 387.208 186.916, 368 188.678 C 360.315 189.384, 358 190.384, 358 193 C 358 196.340, 361.269 197.208, 369.521 196.060 C 389.237 193.318, 405.927 182.863, 416.987 166.328 L 422 158.832 422 209.381 C 422 259.428, 422.020 259.941, 424.064 261.034 C 428.948 263.648, 428.962 263.514, 429.241 210.327 L 429.500 160.884 433.798 167.422 C 444.363 183.493, 465.121 195.392, 483.985 196.193 C 490.005 196.448, 491.421 196.204, 492.360 194.750 C 494.610 191.266, 492.027 189.562, 483.395 188.836 C 465.442 187.325, 449.058 177.320, 438.871 161.646 C 433.829 153.889, 431.149 146.453, 429.845 136.602 C 429.255 132.146, 428.318 127.938, 427.763 127.250 C 426.486 125.666, 423.758 125.642, 422.200 127.200 M 14 194 L 14 222 26.500 222 L 39 222 39 219.160 C 39 214.734, 44.586 204.637, 49.582 200.031 C 54.680 195.332, 63.116 191.024, 67.250 191.010 L 70 191 70 178.500 L 70 166 42 166 L 14 166 14 194 M 63.385 199.617 C 55.428 202.439, 48.611 210.342, 46.450 219.250 L 45.783 222 57.892 222 L 70 222 70 210 C 70 196.784, 70.253 197.181, 63.385 199.617 M 78 212.429 C 78 224.212, 77.712 227.145, 76.429 228.429 C 75.145 229.713, 72.206 230, 60.361 230 L 45.865 230 46.525 232.250 C 50.320 245.188, 60.495 253, 73.552 253 C 88.843 253, 101 240.819, 101 225.500 C 101 214.038, 93.486 203.200, 82.965 199.488 C 80.646 198.669, 78.580 198, 78.374 198 C 78.168 198, 78 204.493, 78 212.429 " stroke="none" fill="black" fill-rule="evenodd"/>
</svg>