<svg xmlns="http://www.w3.org/2000/svg" width="308" height="324" viewBox="0 0 308 324" version="1.1">
	<path d="M 120.639 141.892 L 104.424 158 72.412 158 C 48.847 158, 40.083 158.317, 39.200 159.200 C 38.317 160.083, 38 168.847, 38 192.412 L 38 224.424 22 240.530 C 13.200 249.389, 6 257.137, 6 257.747 C 6 259.182, 8.818 262, 10.253 262 C 10.863 262, 18.611 254.800, 27.470 246 L 43.576 230 75.217 230 C 102.647 230, 107.066 229.791, 108.429 228.429 C 109.791 227.066, 110 222.655, 110 195.298 L 110 163.739 124.750 148.305 C 132.863 139.816, 139.948 132.225, 140.495 131.436 C 141.595 129.849, 140.257 126.919, 138.105 126.202 C 137.417 125.972, 129.557 133.033, 120.639 141.892 M 46 191.242 L 46 216.485 71 191.500 C 84.750 177.758, 96 166.399, 96 166.258 C 96 166.116, 84.750 166, 71 166 L 46 166 46 191.242 M 76.500 197 L 51.515 222 76.758 222 L 102 222 102 197 C 102 183.250, 101.884 172, 101.742 172 C 101.601 172, 90.242 183.250, 76.500 197 M 167.750 191.076 C 165.422 192.437, 165.524 195.675, 167.934 196.965 C 168.998 197.534, 175.523 198, 182.434 198 C 189.345 198, 195 198.228, 195 198.507 C 195 198.785, 188.475 212.057, 180.500 228 C 172.525 243.943, 166 257.649, 166 258.458 C 166 260.785, 169.808 262.404, 171.663 260.865 C 172.507 260.164, 179.622 246.749, 187.474 231.052 L 201.750 202.514 216.399 231.797 C 224.455 247.903, 231.746 261.349, 232.601 261.677 C 233.456 262.005, 234.763 261.649, 235.506 260.887 C 236.249 260.124, 243.210 246.734, 250.975 231.130 C 258.740 215.527, 265.410 203.069, 265.797 203.447 C 266.184 203.826, 273.025 217.042, 281 232.817 C 295.925 262.340, 297.431 264.434, 300.384 259.752 C 301.288 258.320, 298.831 252.690, 286.743 228.498 C 278.635 212.269, 272 198.781, 272 198.524 C 272 198.267, 278.139 197.931, 285.643 197.778 C 297.360 197.539, 299.441 197.253, 300.388 195.750 C 301.191 194.475, 301.190 193.525, 300.386 192.250 C 299.356 190.616, 294.963 190.485, 234.391 190.276 C 191.547 190.129, 168.905 190.400, 167.750 191.076 M 220.160 222.750 C 226.765 236.363, 232.550 247.896, 233.016 248.381 C 233.684 249.077, 259 200.488, 259 198.508 C 259 198.228, 247.559 198, 233.575 198 L 208.151 198 220.160 222.750 " stroke="none" fill="black" fill-rule="evenodd"/>
</svg>