<svg xmlns="http://www.w3.org/2000/svg" width="308" height="324" viewBox="0 0 308 324" version="1.1">
	<path d="M 230.652 64.189 C 229.841 65.460, 214.852 95.187, 197.343 130.249 C 171.098 182.805, 165.702 194.305, 166.612 195.749 C 167.559 197.253, 169.636 197.539, 181.357 197.778 C 188.861 197.931, 195 198.267, 195 198.524 C 195 198.781, 188.365 212.269, 180.257 228.498 C 168.169 252.690, 165.712 258.320, 166.616 259.752 C 167.647 261.387, 171.973 261.500, 233.500 261.500 C 295.027 261.500, 299.353 261.387, 300.384 259.752 C 301.288 258.320, 298.831 252.690, 286.743 228.498 C 278.635 212.269, 272 198.781, 272 198.524 C 272 198.267, 278.139 197.931, 285.643 197.778 C 297.378 197.539, 299.440 197.254, 300.391 195.744 C 301.305 194.294, 295.759 182.557, 268.499 128.244 C 246.523 84.461, 234.937 62.396, 233.813 62.189 C 232.885 62.018, 231.463 62.918, 230.652 64.189 M 225.089 90.738 C 220.472 99.957, 207.563 126.063, 196.403 148.750 L 176.111 190 187.805 189.999 L 199.500 189.998 215.500 158.249 C 228.476 132.500, 231.878 126.500, 233.500 126.500 C 235.122 126.500, 238.524 132.500, 251.500 158.249 L 267.500 189.998 279.250 189.999 C 285.712 190, 290.975 189.662, 290.945 189.250 C 290.915 188.838, 277.974 162.732, 262.187 131.238 L 233.484 73.975 225.089 90.738 M 64.500 126.944 C 56.325 128.268, 50.930 129.991, 43 133.814 C 32.444 138.903, 18.927 152.404, 13.778 163 C 7.648 175.615, 4.334 193.191, 7.491 196.348 C 10.992 199.850, 14 196.834, 14 189.823 C 14 176.987, 20.739 162.179, 31.459 151.459 C 43.129 139.789, 56.871 134.046, 73.201 134.015 C 83.649 133.995, 89.980 135.455, 99.820 140.153 C 109.977 145.002, 119.912 154.325, 125.340 164.101 C 129.365 171.350, 133 183.919, 133 190.589 C 133 194.479, 134.839 198, 136.871 198 C 140.482 198, 141.008 188.263, 138.028 176.609 C 134.978 164.686, 129.782 155.740, 120.457 146.361 C 113.703 139.568, 110.806 137.478, 102.933 133.719 C 97.745 131.242, 91.475 128.743, 89 128.165 C 82.400 126.623, 70.232 126.016, 64.500 126.944 M 204.851 195.673 L 176.282 253.500 233.299 253.758 C 264.659 253.900, 290.496 253.837, 290.715 253.618 C 290.934 253.399, 278.132 227.261, 262.266 195.533 L 233.420 137.846 204.851 195.673 M 68.764 158.996 C 63.184 160.676, 59.145 164.067, 56.571 169.234 C 55.157 172.071, 54 175.397, 54 176.625 C 54 178.787, 56.341 182, 57.916 182 C 59.586 182, 62 178.199, 62 175.571 C 62 173.753, 63.169 171.631, 65.400 169.400 C 68.302 166.498, 69.488 166, 73.500 166 C 77.512 166, 78.698 166.498, 81.600 169.400 C 84.502 172.302, 85 173.488, 85 177.500 C 85 181.512, 84.502 182.698, 81.600 185.600 C 79.526 187.674, 77.214 189, 75.671 189 C 71.012 189, 70 191.231, 70 201.500 C 70 208.673, 70.367 211.224, 71.571 212.429 C 73.678 214.535, 74.598 214.412, 76.443 211.777 C 77.477 210.302, 78 207.300, 78 202.845 C 78 196.942, 78.248 196.056, 80.066 195.479 C 82.995 194.549, 88.840 189.210, 90.551 185.901 C 91.348 184.360, 92 180.580, 92 177.500 C 92 170.952, 90.435 167.467, 85.578 163.203 C 80.492 158.737, 74.556 157.252, 68.764 158.996 M 71.616 222.527 C 70.727 223.416, 70 224.529, 70 225 C 70 226.389, 73.140 229.120, 74.295 228.735 C 76.395 228.035, 77.549 225.094, 76.423 223.310 C 74.905 220.902, 73.474 220.669, 71.616 222.527 " stroke="none" fill="black" fill-rule="evenodd"/>
</svg>