<svg xmlns="http://www.w3.org/2000/svg" width="436" height="324" viewBox="0 0 436 324" version="1.1">
	<path d="M 63.102 127.162 C 37.850 130.772, 15.064 151.522, 8.374 177 C 6.113 185.610, 6.113 201.390, 8.374 210 C 12.447 225.511, 23.726 241.091, 37.307 249.965 L 43.483 254 26.313 254 C 12.037 254, 8.878 254.265, 7.571 255.571 C 5.598 257.545, 5.598 258.455, 7.571 260.429 C 8.968 261.825, 16.372 262, 74 262 C 131.628 262, 139.032 261.825, 140.429 260.429 C 142.402 258.455, 142.402 257.545, 140.429 255.571 C 139.119 254.261, 135.918 254, 121.192 254 L 103.527 254 109.013 250.375 C 129.230 237.016, 140.261 216.938, 140.261 193.500 C 140.261 174.130, 133.401 158.199, 119.365 144.973 C 108.517 134.751, 96.954 129.141, 82.398 127.037 C 74.447 125.887, 71.899 125.904, 63.102 127.162 M 183.213 143.315 C 173.746 152.838, 166 161.131, 166 161.743 C 166 163.175, 168.813 166, 170.239 166 C 170.841 166, 177.334 160.059, 184.667 152.798 L 198 139.595 198 199.226 C 198 252.103, 198.178 259.035, 199.571 260.429 C 200.436 261.293, 201.529 262, 202 262 C 202.471 262, 203.564 261.293, 204.429 260.429 C 205.822 259.035, 206 252.103, 206 199.226 L 206 139.595 219.333 152.798 C 226.666 160.059, 233.101 166, 233.633 166 C 235.277 166, 237 163.703, 237 161.512 C 237 159.099, 204.281 126, 201.896 126 C 201.087 126, 192.680 133.792, 183.213 143.315 M 295.571 127.571 C 294.209 128.934, 294 133.376, 294 161.039 L 294 192.936 277.924 225.218 C 267.517 246.115, 262.078 258.090, 262.501 259.173 C 263.402 261.478, 265.957 262.280, 267.726 260.813 C 268.535 260.141, 275.622 246.749, 283.474 231.052 L 297.750 202.514 312.313 231.626 C 320.486 247.965, 327.617 261.023, 328.565 261.386 C 330.679 262.198, 333 260.358, 333 257.871 C 333 256.835, 326.025 242.043, 317.500 225 L 302 194.012 302 162.229 C 302 135.080, 301.773 130.121, 300.443 128.223 C 298.598 125.588, 297.678 125.465, 295.571 127.571 M 391.750 127.080 C 390.207 127.979, 390 129.866, 390 143.050 L 390 158 375.934 158 C 361.308 158, 358 158.738, 358 162 C 358 165.262, 361.308 166, 375.934 166 L 390 166 390 212.965 C 390 259.391, 390.024 259.942, 392.064 261.034 C 396.971 263.661, 397 263.383, 397 212.904 L 397 166.052 412.142 165.776 C 425.291 165.536, 427.430 165.270, 428.387 163.750 C 429.191 162.475, 429.191 161.525, 428.387 160.250 C 427.430 158.730, 425.291 158.464, 412.142 158.224 L 397 157.948 397 143.174 C 397 126.586, 396.297 124.432, 391.750 127.080 M 58.645 135.584 C 38.562 140.445, 20.305 158.877, 15.537 179.103 C 10.672 199.742, 16.569 220.600, 31.484 235.516 C 54.996 259.027, 92.031 259.066, 115.494 235.603 C 127.011 224.086, 133 209.682, 133 193.500 C 133 166.315, 113.802 141.644, 87.897 135.537 C 79.998 133.676, 66.439 133.697, 58.645 135.584 " stroke="none" fill="black" fill-rule="evenodd"/>
</svg>