<svg xmlns="http://www.w3.org/2000/svg" width="340" height="324" viewBox="0 0 340 324" version="1.1">
	<path d="M 39.571 127.571 C 38.176 128.966, 38 136.152, 38 191.571 L 38 254 23.571 254 C 11.788 254, 8.855 254.288, 7.571 255.571 C 5.598 257.545, 5.598 258.455, 7.571 260.429 C 8.936 261.793, 13.463 262, 42 262 C 70.537 262, 75.064 261.793, 76.429 260.429 C 77.293 259.564, 78 258.471, 78 258 C 78 257.529, 77.293 256.436, 76.429 255.571 C 75.145 254.288, 72.212 254, 60.429 254 L 46 254 46 191.571 C 46 136.152, 45.824 128.966, 44.429 127.571 C 43.564 126.707, 42.471 126, 42 126 C 41.529 126, 40.436 126.707, 39.571 127.571 M 103.571 127.571 C 102.175 128.968, 102 136.406, 102 194.371 C 102 243.771, 102.291 259.891, 103.200 260.800 C 104.109 261.709, 120.229 262, 169.629 262 C 227.594 262, 235.032 261.825, 236.429 260.429 C 237.825 259.033, 238 251.687, 238 194.651 C 238 138.158, 237.813 130.178, 236.443 128.223 C 234.598 125.588, 233.678 125.465, 231.571 127.571 C 230.176 128.966, 230 136.152, 230 191.571 L 230 254 170 254 L 110 254 110 191.571 C 110 136.152, 109.824 128.966, 108.429 127.571 C 107.564 126.707, 106.471 126, 106 126 C 105.529 126, 104.436 126.707, 103.571 127.571 M 290.355 126.986 C 279.805 129.211, 270.146 137.119, 265.301 147.500 C 261.337 155.991, 261.351 166.854, 265.336 175.500 C 268.296 181.922, 274.619 189.173, 279.488 191.729 C 282.304 193.207, 282.364 193.361, 280.533 194.399 C 279.464 195.004, 276.263 197.650, 273.419 200.278 C 259.116 213.493, 258.615 235.709, 272.301 249.834 C 277.262 254.954, 284.049 258.644, 291.279 260.151 C 297.996 261.551, 298.409 261.535, 305.301 259.615 C 313.313 257.383, 316.562 255.534, 321.945 250.146 C 328.478 243.606, 331.252 237.365, 331.795 227.986 C 332.568 214.631, 327.433 203.736, 316.990 196.574 L 312.480 193.481 316.990 190.413 C 323.025 186.309, 328.686 178.707, 330.640 172.085 C 332.870 164.527, 332.122 152.961, 328.982 146.429 C 322.293 132.517, 305.118 123.872, 290.355 126.986 M 287.627 135.468 C 282.247 137.386, 277.039 141.829, 273.500 147.519 C 269.527 153.908, 268.712 165.311, 271.741 172.129 C 275.420 180.408, 282.903 186.846, 290.750 188.481 L 294 189.159 294 161.579 C 294 140.159, 293.721 134.010, 292.750 134.044 C 292.063 134.068, 289.757 134.709, 287.627 135.468 M 301 161.392 C 301 182.817, 301.280 188.998, 302.250 188.990 C 304.883 188.970, 313.685 184.161, 316.810 181.037 C 323.566 174.280, 326.542 163.377, 324.096 154.337 C 321.650 145.295, 312.836 136.683, 303.750 134.457 L 301 133.783 301 161.392 M 162.344 158.988 C 152.010 161.166, 141.930 169.366, 137.417 179.266 C 133.361 188.161, 133.361 198.839, 137.417 207.734 C 140.868 215.303, 147.786 222.097, 155.762 225.749 C 163.442 229.264, 173.845 229.364, 182.493 226.003 C 190.707 222.811, 198.874 214.625, 201.893 206.557 C 204.893 198.539, 204.893 188.461, 201.893 180.443 C 196.317 165.541, 178.111 155.664, 162.344 158.988 M 159.463 167.591 C 153.971 169.541, 148.552 174.205, 145.249 179.824 C 142.800 183.989, 142.500 185.483, 142.500 193.500 C 142.500 201.517, 142.800 203.011, 145.249 207.176 C 150.560 216.211, 159.166 221, 170.091 221 C 181.769 221, 192.963 212.244, 196.098 200.657 C 199.721 187.265, 191.838 172.176, 178.684 167.326 C 174.323 165.718, 164.351 165.856, 159.463 167.591 M 167.571 191.571 C 166.707 192.436, 166 193.529, 166 194 C 166 194.471, 166.707 195.564, 167.571 196.429 C 168.436 197.293, 169.529 198, 170 198 C 170.471 198, 171.564 197.293, 172.429 196.429 C 173.293 195.564, 174 194.471, 174 194 C 174 193.529, 173.293 192.436, 172.429 191.571 C 171.564 190.707, 170.471 190, 170 190 C 169.529 190, 168.436 190.707, 167.571 191.571 M 287.627 199.468 C 282.247 201.386, 277.039 205.829, 273.500 211.519 C 269.527 217.908, 268.712 229.311, 271.741 236.129 C 275.420 244.408, 282.903 250.846, 290.750 252.481 L 294 253.159 294 225.579 C 294 204.159, 293.721 198.010, 292.750 198.044 C 292.063 198.068, 289.757 198.709, 287.627 199.468 M 301 225.392 C 301 246.817, 301.280 252.998, 302.250 252.990 C 304.883 252.970, 313.685 248.161, 316.810 245.037 C 323.566 238.280, 326.542 227.377, 324.096 218.337 C 321.650 209.295, 312.836 200.683, 303.750 198.457 L 301 197.783 301 225.392 " stroke="none" fill="black" fill-rule="evenodd"/>
</svg>