<svg xmlns="http://www.w3.org/2000/svg" width="372" height="324" viewBox="0 0 372 324" version="1.1">
	<path d="M 71.571 127.571 C 70.220 128.922, 70 132.932, 70 156.155 C 70 171.011, 69.662 182.996, 69.250 182.788 C 53.401 174.796, 45.548 173.052, 34.099 174.983 C 21.072 177.181, 4.391 187.668, 5.170 193.170 C 5.695 196.878, 9.459 196.720, 13.795 192.808 C 19.037 188.079, 23.667 185.435, 29.932 183.595 C 41.472 180.206, 55.916 182.627, 65.250 189.514 L 70 193.019 70 220.655 L 70 248.290 64.560 243.145 C 61.568 240.315, 58.675 238, 58.131 238 C 56.829 238, 54 240.861, 54 242.178 C 54 242.747, 57.226 246.540, 61.169 250.607 L 68.338 258 61.169 265.393 C 57.226 269.460, 54 273.253, 54 273.822 C 54 275.139, 56.829 278, 58.131 278 C 58.675 278, 61.568 275.685, 64.560 272.855 L 70 267.710 70 279.284 C 70 288.472, 70.324 291.181, 71.571 292.429 C 72.436 293.293, 73.529 294, 74 294 C 74.471 294, 75.564 293.293, 76.429 292.429 C 77.676 291.181, 78 288.472, 78 279.284 L 78 267.710 83.440 272.855 C 86.432 275.685, 89.325 278, 89.869 278 C 91.171 278, 94 275.139, 94 273.822 C 94 273.253, 90.774 269.460, 86.831 265.393 L 79.662 258 86.831 250.607 C 90.774 246.540, 94 242.747, 94 242.178 C 94 240.861, 91.171 238, 89.869 238 C 89.325 238, 86.432 240.315, 83.440 243.145 L 78 248.290 78 225.145 C 78 212.415, 78.241 202, 78.535 202 C 78.830 202, 80.091 202.669, 81.339 203.486 C 84.828 205.773, 93.892 208.638, 100.065 209.405 C 112.332 210.931, 127.917 205.879, 136.596 197.562 C 141.239 193.114, 141.638 190.655, 137.908 189.471 C 136.609 189.058, 134.624 189.994, 131.681 192.406 C 129.304 194.353, 124.692 197.195, 121.430 198.723 C 116.127 201.206, 114.389 201.500, 105 201.500 C 95.584 201.500, 93.881 201.210, 88.503 198.692 C 77.193 193.397, 78 196.339, 78 160.397 C 78 133.317, 77.790 128.933, 76.429 127.571 C 75.564 126.707, 74.471 126, 74 126 C 73.529 126, 72.436 126.707, 71.571 127.571 M 199.571 127.571 C 198.178 128.965, 198 135.897, 198 188.774 L 198 248.405 184.667 235.202 C 177.334 227.941, 170.841 222, 170.239 222 C 168.813 222, 166 224.825, 166 226.257 C 166 228.006, 200.239 262, 202 262 C 203.761 262, 238 228.006, 238 226.257 C 238 224.825, 235.187 222, 233.761 222 C 233.159 222, 226.666 227.941, 219.333 235.202 L 206 248.405 206 188.774 C 206 135.897, 205.822 128.965, 204.429 127.571 C 203.564 126.707, 202.471 126, 202 126 C 201.529 126, 200.436 126.707, 199.571 127.571 M 295.247 191.253 C 259.361 227.142, 230 257.202, 230 258.053 C 230 261.989, 230.184 262, 298 262 C 347.689 262, 363.891 261.709, 364.800 260.800 C 365.709 259.891, 366 243.689, 366 194 C 366 126.169, 365.990 126, 362.047 126 C 361.193 126, 331.133 155.364, 295.247 191.253 M 300.500 197 L 243.507 254 300.753 254 L 358 254 358 197 C 358 165.650, 357.886 140, 357.747 140 C 357.607 140, 331.846 165.650, 300.500 197 " stroke="none" fill="black" fill-rule="evenodd"/>
</svg>