<svg xmlns="http://www.w3.org/2000/svg" width="403" height="324" viewBox="0 0 403 324" version="1.1">
	<path d="M 127.870 127.049 C 120.570 128.150, 110.676 131.475, 105 134.735 C 91.149 142.689, 79.245 156.639, 74.412 170.581 L 72.651 175.661 66.575 169.485 C 58.985 161.768, 51.932 158.748, 41.500 158.748 C 31.429 158.748, 24.030 161.810, 16.920 168.920 C 9.565 176.275, 6.727 183.361, 6.676 194.500 C 6.541 223.902, 27.690 250.835, 57 258.586 C 65.669 260.878, 81.390 260.868, 90 258.566 C 107.949 253.765, 124.974 240.018, 132.824 223.988 C 135.110 219.319, 137.674 212.800, 138.521 209.500 C 140.688 201.067, 140.638 187.660, 138.420 181.999 C 130.420 161.582, 108.975 152.899, 89.822 162.322 L 85.144 164.623 86.720 161.562 C 87.587 159.878, 91.492 155.300, 95.398 151.388 C 105.925 140.846, 117.657 135.362, 132.396 134.094 C 139.982 133.441, 142.495 131.605, 140.394 128.250 C 139.112 126.203, 135.668 125.873, 127.870 127.049 M 361.634 156.841 L 330.500 187.877 327.500 185.348 C 322.593 181.212, 310.969 176.145, 303.826 175.029 C 291.046 173.032, 277.428 176.662, 266.367 185.013 C 260.776 189.234, 259.108 192.220, 261.040 194.548 C 262.922 196.816, 264.513 196.317, 269.689 191.835 C 272.335 189.545, 276.975 186.515, 280 185.102 C 284.850 182.837, 286.802 182.532, 296.521 182.517 C 306.966 182.501, 307.880 182.669, 314.021 185.742 C 317.584 187.524, 321.625 189.871, 323 190.957 L 325.500 192.931 293.750 224.721 C 276.288 242.206, 262 257.281, 262 258.221 C 262 259.161, 262.961 260.444, 264.136 261.073 C 266.102 262.125, 268.801 259.688, 298.033 230.467 L 329.794 198.717 332.847 200.891 C 349.874 213.015, 373.123 212.208, 390.778 198.878 C 396.367 194.658, 397.305 191.835, 393.838 189.663 C 392.521 188.838, 391.055 189.486, 386.787 192.779 C 378.850 198.902, 372.797 201.262, 363.641 201.804 C 354.047 202.372, 347.212 200.942, 340.108 196.880 L 334.715 193.797 365.858 162.643 C 382.986 145.508, 397 130.719, 397 129.779 C 397 128.839, 396.048 127.561, 394.884 126.938 C 392.946 125.901, 390.158 128.407, 361.634 156.841 M 31.463 167.591 C 25.988 169.535, 20.551 174.204, 17.298 179.754 C 13.749 185.810, 12.951 198.238, 15.484 208 C 20.870 228.757, 38.135 246.124, 58.644 251.415 C 66.367 253.407, 79.556 253.429, 87.897 251.463 C 107.090 246.938, 123.940 230.976, 130.610 211 C 131.892 207.161, 132.455 202.479, 132.473 195.500 C 132.498 186.235, 132.280 185.102, 129.500 180.079 C 124.036 170.206, 114.446 165.289, 102.521 166.246 C 89.301 167.307, 78.086 178.492, 78.022 190.679 C 78 194.799, 76.088 198.016, 73.679 197.985 C 70.990 197.950, 69.650 195.890, 68.948 190.712 C 66.907 175.676, 55.810 165.870, 41.072 166.079 C 38.007 166.122, 33.683 166.803, 31.463 167.591 M 167.585 191.558 C 165.598 193.545, 165.595 194.452, 167.571 196.429 C 168.855 197.712, 171.788 198, 183.571 198 L 198 198 198 226 L 198 254 183.571 254 C 171.788 254, 168.855 254.288, 167.571 255.571 C 165.595 257.548, 165.598 258.455, 167.585 260.442 C 168.978 261.835, 173.159 261.995, 202.226 261.763 C 232.452 261.523, 235.377 261.350, 236.386 259.750 C 237.190 258.475, 237.191 257.525, 236.387 256.250 C 235.430 254.730, 233.291 254.464, 220.142 254.224 L 205 253.948 205 226 L 205 198.052 220.142 197.776 C 233.291 197.536, 235.430 197.270, 236.387 195.750 C 237.191 194.475, 237.190 193.525, 236.386 192.250 C 235.377 190.650, 232.452 190.477, 202.226 190.237 C 173.159 190.005, 168.978 190.165, 167.585 191.558 M 69.202 208.750 C 64.844 214.949, 63.633 218.482, 63.635 225 C 63.636 230.411, 64.187 232.548, 66.923 237.757 C 69.202 242.096, 70.949 244.200, 72.618 244.619 C 75.161 245.257, 78 243.614, 78 241.505 C 78 240.817, 78.945 238.118, 80.100 235.507 C 83.819 227.100, 82.610 216.879, 76.959 208.942 C 74.338 205.262, 71.701 205.196, 69.202 208.750 M 71.607 218.582 C 70.672 221.019, 70.918 230.322, 71.961 231.971 C 73.250 234.009, 74.075 232.861, 74.707 228.146 C 75.661 221.033, 73.374 213.977, 71.607 218.582 " stroke="none" fill="black" fill-rule="evenodd"/>
</svg>