<svg xmlns="http://www.w3.org/2000/svg" width="595" height="324" viewBox="0 0 595 324" version="1.1">
	<path d="M 39.571 127.571 C 38.176 128.966, 38 136.152, 38 191.571 L 38 254 23.571 254 C 11.788 254, 8.855 254.288, 7.571 255.571 C 5.598 257.545, 5.598 258.455, 7.571 260.429 C 8.936 261.793, 13.463 262, 42 262 C 70.537 262, 75.064 261.793, 76.429 260.429 C 77.293 259.564, 78 258.471, 78 258 C 78 257.529, 77.293 256.436, 76.429 255.571 C 75.145 254.288, 72.212 254, 60.429 254 L 46 254 46 191.571 C 46 136.152, 45.824 128.966, 44.429 127.571 C 43.564 126.707, 42.471 126, 42 126 C 41.529 126, 40.436 126.707, 39.571 127.571 M 131.434 126.889 C 117.241 129.319, 104.579 142.496, 102.500 157 C 101.305 165.337, 106.508 185.441, 114.119 201.889 C 124.474 224.268, 146.216 248.002, 166.406 258.964 L 170.944 261.428 173.722 258.886 C 175.250 257.488, 179.650 254.143, 183.500 251.454 C 192.161 245.403, 204.929 232.784, 211.785 223.500 C 226.131 204.070, 237.953 171.489, 235.967 156.854 C 232.248 129.452, 199.245 116.952, 178.529 135.101 C 176.395 136.971, 173.448 140.390, 171.981 142.700 L 169.312 146.900 167.124 143.007 C 160.826 131.802, 144.859 124.591, 131.434 126.889 M 319.531 127.056 C 291.437 131.418, 269.313 152.439, 263.589 180.208 C 261.337 191.134, 261.478 195.650, 264.117 197.062 C 267.441 198.842, 268.930 196.385, 269.950 187.435 C 271.720 171.918, 277.611 160.245, 288.970 149.743 C 300.358 139.215, 313.679 134, 329.184 134 C 360.409 134, 386.036 157.469, 388.656 188.463 C 389.170 194.542, 389.690 196.299, 391.214 197.115 C 398.802 201.176, 397.305 180.401, 388.756 163 C 382.614 150.497, 371.764 139.845, 358.933 133.719 C 353.745 131.242, 347.475 128.743, 345 128.165 C 338.080 126.548, 326.148 126.029, 319.531 127.056 M 455.207 127.193 C 454.543 127.857, 454 129.096, 454 129.947 C 454 130.798, 481.561 159.058, 515.247 192.747 L 576.494 254 517.181 254 C 478.208 254, 457.205 254.355, 455.934 255.035 C 454.870 255.605, 454 256.939, 454 258 C 454 259.061, 454.870 260.395, 455.934 260.965 C 457.210 261.648, 479.778 262, 522.234 262 C 588.781 262, 589 261.987, 589 258.047 C 589 257.193, 561.548 229.045, 527.997 195.497 L 466.993 134.500 527.138 134 C 583.013 133.535, 587.361 133.376, 588.386 131.750 C 589.191 130.474, 589.191 129.526, 588.386 128.250 C 587.356 126.617, 582.916 126.483, 521.848 126.243 C 471.786 126.046, 456.131 126.269, 455.207 127.193 M 127.385 135.617 C 121.552 137.686, 115.605 143.144, 112.588 149.199 C 109.258 155.882, 109.209 162.626, 112.401 175.207 C 117.934 197.021, 127.438 214.558, 142.604 230.939 C 148.211 236.996, 167.097 252, 169.113 252 C 172.122 252, 191.421 236.557, 198.079 228.821 C 210.507 214.380, 217.819 201.683, 223.521 184.643 C 228.022 171.193, 229.711 160.075, 228.124 154.343 C 223.844 138.883, 207.235 130.293, 191.795 135.554 C 182.574 138.696, 174 149.552, 174 158.086 C 174 162.853, 171.186 166.511, 168.239 165.576 C 165.919 164.840, 165.481 163.819, 164.560 156.995 C 163.285 147.558, 155.516 138.368, 146.101 135.159 C 141.535 133.602, 132.438 133.825, 127.385 135.617 M 311.750 159.080 C 310.155 160.009, 310 162.388, 310 186.015 C 310 211.174, 310.060 211.962, 312.064 213.034 C 313.596 213.854, 314.498 213.832, 315.564 212.947 C 316.744 211.968, 317 207.174, 317 186.078 C 317 157.906, 316.671 156.214, 311.750 159.080 M 343.750 159.080 C 342.155 160.009, 342 162.388, 342 186.015 C 342 211.174, 342.060 211.962, 344.064 213.034 C 345.596 213.854, 346.498 213.832, 347.564 212.947 C 348.744 211.968, 349 207.174, 349 186.078 C 349 157.906, 348.671 156.214, 343.750 159.080 M 423.750 159.080 C 422.155 160.009, 422 162.388, 422 186.015 C 422 211.174, 422.060 211.962, 424.064 213.034 C 425.596 213.854, 426.498 213.832, 427.564 212.947 C 428.744 211.968, 429 207.174, 429 186.078 C 429 157.906, 428.671 156.214, 423.750 159.080 M 311.750 222.080 C 309.372 223.465, 309.542 226.685, 312.064 228.034 C 315.753 230.008, 318.819 225.219, 315.800 222.200 C 314.367 220.767, 314.022 220.757, 311.750 222.080 M 343.750 222.080 C 341.372 223.465, 341.542 226.685, 344.064 228.034 C 347.753 230.008, 350.819 225.219, 347.800 222.200 C 346.367 220.767, 346.022 220.757, 343.750 222.080 M 423.750 222.080 C 421.372 223.465, 421.542 226.685, 424.064 228.034 C 427.753 230.008, 430.819 225.219, 427.800 222.200 C 426.367 220.767, 426.022 220.757, 423.750 222.080 " stroke="none" fill="black" fill-rule="evenodd"/>
</svg>