<svg xmlns="http://www.w3.org/2000/svg" width="500" height="324" viewBox="0 0 500 324" version="1.1">
	<path d="M 424.500 158 L 392.512 190 329.190 190 C 287.453 190, 265.209 190.353, 263.934 191.035 C 262.870 191.605, 262 192.939, 262 194 C 262 197.203, 265.276 198, 278.434 198 C 285.345 198, 291 198.228, 291 198.507 C 291 198.785, 284.475 212.057, 276.500 228 C 268.525 243.943, 262 257.649, 262 258.458 C 262 260.785, 265.808 262.404, 267.663 260.865 C 268.507 260.164, 275.622 246.749, 283.474 231.052 L 297.750 202.514 312.337 231.674 C 320.360 247.713, 327.395 261.126, 327.971 261.482 C 330.928 263.309, 333.160 259.844, 346.967 231.998 C 354.874 216.049, 361.490 203, 361.669 203 C 361.847 203, 368.492 215.991, 376.435 231.869 C 384.535 248.062, 391.617 261.023, 392.565 261.386 C 394.495 262.127, 397 260.424, 397 258.371 C 397 257.610, 390.475 243.943, 382.500 228 C 374.525 212.057, 368 198.785, 368 198.507 C 368 198.228, 373.965 198, 381.256 198 L 394.512 198 425.997 166.503 L 457.483 135.005 473.245 150.745 C 486.723 164.203, 489.261 166.325, 490.754 165.385 C 494.733 162.880, 493.426 160.948, 475.861 143.361 C 466.324 133.812, 458.064 126, 457.505 126 C 456.946 126, 442.094 140.400, 424.500 158 M 7.571 159.571 C 6.207 160.936, 6 165.463, 6 194 C 6 222.537, 6.207 227.064, 7.571 228.429 C 8.968 229.825, 16.372 230, 74 230 C 131.628 230, 139.032 229.825, 140.429 228.429 C 141.793 227.064, 142 222.537, 142 194 C 142 165.463, 141.793 160.936, 140.429 159.571 C 139.032 158.175, 131.628 158, 74 158 C 16.372 158, 8.968 158.175, 7.571 159.571 M 194.355 158.986 C 183.790 161.214, 174.114 169.146, 169.329 179.500 C 165.374 188.059, 165.386 198.895, 169.361 207.610 C 172.861 215.285, 179.689 222.075, 187.480 225.629 C 195.387 229.236, 205.732 229.409, 214.297 226.077 C 221.354 223.331, 229.569 215.634, 233.056 208.500 C 235.152 204.212, 235.500 202.075, 235.500 193.500 C 235.500 181.367, 233.450 176.286, 225.353 168.339 C 217.361 160.497, 204.948 156.752, 194.355 158.986 M 14 194 L 14 222 42 222 L 70 222 70 194 L 70 166 42 166 L 14 166 14 194 M 78 194 L 78 222 106 222 L 134 222 134 194 L 134 166 106 166 L 78 166 78 194 M 191.627 167.468 C 186.247 169.386, 181.039 173.829, 177.500 179.519 C 173.527 185.908, 172.712 197.311, 175.741 204.129 C 180.389 214.589, 188.227 220.058, 199.616 220.789 C 206.399 221.224, 207.556 221.001, 213.397 218.125 C 225.374 212.229, 231.511 198.958, 228.096 186.337 C 224.933 174.647, 213.616 165.959, 201.663 166.044 C 198.273 166.068, 193.757 166.709, 191.627 167.468 M 316.608 223.250 C 323.546 237.137, 329.371 248.661, 329.553 248.859 C 329.878 249.211, 355 199.502, 355 198.508 C 355 198.228, 343.523 198, 329.496 198 L 303.992 198 316.608 223.250 " stroke="none" fill="black" fill-rule="evenodd"/>
</svg>