<svg xmlns="http://www.w3.org/2000/svg" width="403" height="324" viewBox="0 0 403 324" version="1.1">
	<path d="M 199.232 191.250 C 198.675 191.938, 190.951 207.048, 182.067 224.829 C 171.616 245.746, 166.120 257.803, 166.496 258.986 C 167.266 261.413, 169.895 262.332, 171.726 260.813 C 172.535 260.141, 179.622 246.749, 187.474 231.052 L 201.750 202.514 216.313 231.626 C 224.486 247.965, 231.617 261.023, 232.565 261.386 C 234.679 262.198, 237 260.358, 237 257.871 C 237 255.637, 205.272 191.833, 203.630 190.765 C 201.949 189.672, 200.369 189.846, 199.232 191.250 M 275.558 191.492 C 269.920 193.501, 266.904 196.042, 264.289 200.986 C 261.358 206.528, 261.265 211.536, 264.064 213.034 C 266.831 214.515, 268.594 212.976, 269.468 208.318 C 270.742 201.527, 274.717 198, 281.097 198 C 287.478 198, 293.784 204.144, 292.775 209.378 C 292.550 210.545, 285.533 221.730, 277.183 234.234 C 268.832 246.737, 262 257.595, 262 258.361 C 262 261.608, 264.598 262.051, 282.024 261.774 C 297.193 261.533, 299.418 261.288, 300.387 259.750 C 301.190 258.476, 301.190 257.524, 300.389 256.250 C 299.460 254.774, 297.231 254.422, 286.143 254 L 272.998 253.500 287.036 232.500 C 299.990 213.121, 301.025 211.233, 300.453 208.047 C 298.986 199.873, 293.222 192.989, 286.219 191.044 C 281.490 189.731, 280.371 189.778, 275.558 191.492 M 354.355 190.998 C 343.798 193.193, 334.226 200.767, 329.279 210.840 C 326.865 215.756, 326.500 217.683, 326.500 225.500 C 326.500 233.317, 326.865 235.244, 329.279 240.160 C 339.316 260.598, 363.741 266.677, 382.176 253.325 C 400.510 240.046, 400.435 211.033, 382.033 197.525 C 374.036 191.654, 363.336 189.131, 354.355 190.998 M 349.053 200.555 L 343.605 203.091 352.303 211.788 L 361 220.486 369.697 211.788 L 378.395 203.091 372.947 200.555 C 368.875 198.660, 365.859 198.020, 361 198.020 C 356.141 198.020, 353.125 198.660, 349.053 200.555 M 335.872 213.750 C 332.690 220.304, 332.717 230.572, 335.933 237.250 C 337.191 239.863, 338.518 242, 338.882 242 C 339.246 242, 343.247 238.278, 347.773 233.729 L 356.001 225.457 347.730 217.229 C 343.180 212.703, 339.170 209, 338.818 209 C 338.466 209, 337.141 211.137, 335.872 213.750 M 374.227 217.271 L 365.999 225.543 374.484 233.984 C 382.626 242.084, 383.030 242.346, 384.477 240.462 C 387.186 236.939, 389.282 228.030, 388.653 222.718 C 388.082 217.896, 384.506 209, 383.139 209 C 382.763 209, 378.753 212.722, 374.227 217.271 M 39.571 223.571 C 38.707 224.436, 38 225.636, 38 226.239 C 38 226.841, 43.941 233.334, 51.202 240.667 L 64.405 254 36.774 254 C 12.988 254, 8.924 254.219, 7.571 255.571 C 5.596 257.546, 5.598 258.455, 7.579 260.436 C 8.990 261.847, 16.058 261.987, 74.220 261.757 C 134.934 261.517, 139.356 261.383, 140.386 259.750 C 141.191 258.474, 141.191 257.526, 140.386 256.250 C 139.386 254.663, 136.698 254.475, 111.457 254.234 L 83.631 253.968 96.315 241.148 C 103.905 233.478, 109 227.539, 109 226.364 C 109 224.273, 107.241 222, 105.623 222 C 105.085 222, 97.750 228.844, 89.323 237.208 L 74 252.416 58.677 237.208 C 50.250 228.844, 42.857 222, 42.249 222 C 41.640 222, 40.436 222.707, 39.571 223.571 M 352.041 239.459 L 343.625 247.918 349.063 250.449 C 353.125 252.340, 356.144 252.980, 361 252.980 C 365.856 252.980, 368.875 252.340, 372.937 250.449 L 378.375 247.918 369.959 239.459 C 365.331 234.807, 361.299 231, 361 231 C 360.701 231, 356.669 234.807, 352.041 239.459 " stroke="none" fill="black" fill-rule="evenodd"/>
</svg>