<svg xmlns="http://www.w3.org/2000/svg" width="403" height="324" viewBox="0 0 403 324" version="1.1">
	<path d="M 40.316 62.784 C 38.369 64.022, 22.007 97.855, 22.604 99.410 C 23.269 101.144, 25.524 102.120, 27.295 101.440 C 28.007 101.167, 31.480 95.106, 35.014 87.972 C 38.547 80.837, 41.691 75, 42 75 C 42.309 75, 45.453 80.837, 48.986 87.972 C 52.520 95.106, 55.993 101.167, 56.705 101.440 C 58.487 102.124, 60.732 101.141, 61.407 99.381 C 61.997 97.844, 45.582 64.037, 43.628 62.765 C 42.214 61.845, 41.789 61.847, 40.316 62.784 M 295.750 127.080 C 294.207 127.979, 294 129.866, 294 143.050 L 294 158 279.934 158 C 265.308 158, 262 158.738, 262 162 C 262 165.262, 265.308 166, 279.934 166 L 294 166 294 194 L 294 222 279.934 222 C 265.308 222, 262 222.738, 262 226 C 262 229.262, 265.308 230, 279.934 230 L 294 230 294 244.965 C 294 259.061, 294.120 259.994, 296.064 261.034 C 300.316 263.310, 301 261.071, 301 244.878 L 301 230 329.500 230 L 358 230 358 244.965 C 358 259.061, 358.120 259.994, 360.064 261.034 C 364.316 263.310, 365 261.071, 365 244.878 L 365 230 379.066 230 C 393.692 230, 397 229.262, 397 226 C 397 222.738, 393.692 222, 379.066 222 L 365 222 365 194 L 365 166 379.066 166 C 393.692 166, 397 165.262, 397 162 C 397 158.738, 393.692 158, 379.066 158 L 365 158 365 143.122 C 365 126.929, 364.316 124.690, 360.064 126.966 C 358.120 128.006, 358 128.939, 358 143.035 L 358 158 329.500 158 L 301 158 301 143.200 C 301 126.584, 300.299 124.431, 295.750 127.080 M 33.384 159.357 C 15.361 163.923, 3.562 181.820, 6.987 199.396 C 9.923 214.467, 20.510 225.032, 35.660 228.013 C 51.154 231.061, 68.354 221.287, 74.043 206.202 C 76.983 198.405, 76.941 188.485, 73.934 180.507 C 68.097 165.023, 49.437 155.290, 33.384 159.357 M 167.482 159.661 C 163.863 163.280, 168.887 178.213, 176.259 185.750 L 180.416 190 142.780 190 C 109.898 190, 104.944 190.199, 103.571 191.571 C 101.598 193.545, 101.598 194.455, 103.571 196.429 C 104.844 197.701, 107.697 198, 118.575 198 L 132.006 198 117.020 227.961 C 108.777 244.439, 102.285 258.580, 102.594 259.384 C 103.406 261.500, 106.020 262.228, 107.726 260.813 C 108.535 260.141, 115.622 246.749, 123.474 231.052 L 137.750 202.514 152.337 231.674 C 160.360 247.713, 167.395 261.126, 167.971 261.482 C 170.864 263.270, 173.168 259.695, 187.125 231.762 L 201.744 202.502 216.310 231.620 C 224.485 247.962, 231.617 261.023, 232.565 261.386 C 234.679 262.198, 237 260.358, 237 257.871 C 237 256.835, 230.480 242.952, 222.511 227.021 L 208.021 198.056 221.653 197.778 C 233.361 197.539, 235.441 197.253, 236.388 195.750 C 238.530 192.348, 236 190.532, 228.662 190.205 L 222.034 189.909 225.359 186.990 C 232.871 180.394, 238.833 162.596, 234.683 159.152 C 231.897 156.840, 229.365 159.274, 228.698 164.904 C 227.571 174.418, 222.284 181.750, 213.397 186.125 C 207.582 188.988, 206.381 189.223, 199.760 188.793 C 185.804 187.888, 176.597 179.691, 173.968 165.832 C 172.539 158.295, 170.647 156.496, 167.482 159.661 M 31.054 167.728 C 25.018 169.859, 17.781 177.260, 15.667 183.463 C 11.995 194.241, 14.382 205.477, 21.952 213.048 C 32.402 223.497, 49.888 223.773, 60.280 213.653 C 66.701 207.401, 68.500 202.989, 68.500 193.500 C 68.500 184.011, 66.701 179.599, 60.280 173.347 C 53.109 166.363, 41.332 164.099, 31.054 167.728 M 301 194 L 301 222 329.500 222 L 358 222 358 194 L 358 166 329.500 166 L 301 166 301 194 M 156.608 223.250 C 163.546 237.137, 169.371 248.661, 169.553 248.859 C 169.878 249.211, 195 199.502, 195 198.508 C 195 198.228, 183.523 198, 169.496 198 L 143.992 198 156.608 223.250 " stroke="none" fill="black" fill-rule="evenodd"/>
</svg>