<svg xmlns="http://www.w3.org/2000/svg" width="468" height="324" viewBox="0 0 468 324" version="1.1">
	<path d="M 423.282 159.282 C 413.777 168.787, 406 177.079, 406 177.710 C 406 179.139, 408.786 182, 410.178 182 C 410.747 182, 414.557 178.757, 418.645 174.794 L 426.077 167.588 437.283 178.794 L 448.489 190 356.816 190 C 274.810 190, 264.977 190.166, 263.571 191.571 C 260.148 194.995, 263.242 198, 270.190 198 L 275.237 198 272.244 201.062 C 264.737 208.740, 260.914 221.372, 263 231.604 C 266.068 246.656, 276.568 257.083, 291.604 260.013 C 304.964 262.617, 319.421 256.279, 326.866 244.556 L 329.500 240.408 332.861 245.563 C 336.577 251.264, 344.752 257.272, 351.387 259.179 C 353.649 259.829, 358.200 260.361, 361.500 260.361 C 364.800 260.361, 369.351 259.829, 371.613 259.179 C 378.248 257.272, 386.423 251.264, 390.139 245.563 L 393.500 240.408 396.134 244.556 C 403.593 256.301, 418.311 262.710, 431.604 260 C 446.656 256.932, 457.083 246.432, 460.013 231.396 C 462.022 221.088, 458.249 208.726, 450.756 201.062 L 447.763 198 453.310 198 C 458.753 198, 462 196.412, 462 193.751 C 462 193.143, 455.165 185.759, 446.812 177.343 L 431.623 162.040 438.812 154.626 C 442.765 150.549, 446 146.747, 446 146.178 C 446 144.786, 443.139 142, 441.710 142 C 441.079 142, 432.787 149.777, 423.282 159.282 M 200.370 190.765 C 198.401 192.045, 166.007 257.855, 166.594 259.384 C 167.265 261.133, 169.512 262.124, 171.274 261.448 C 171.975 261.180, 179.056 247.919, 187.010 231.980 C 194.964 216.041, 201.710 203, 202 203 C 202.290 203, 209.036 216.041, 216.990 231.980 C 224.944 247.919, 232.025 261.180, 232.726 261.448 C 234.488 262.124, 236.735 261.133, 237.406 259.384 C 237.993 257.855, 205.599 192.045, 203.630 190.765 C 203.009 190.361, 202.275 190.031, 202 190.031 C 201.725 190.031, 200.991 190.361, 200.370 190.765 M 287.605 199.568 C 280.049 202.337, 280.073 202.527, 289.170 211.671 L 297.457 220.001 305.692 211.809 C 314.838 202.711, 314.906 202.178, 307.260 199.573 C 301.620 197.651, 292.842 197.649, 287.605 199.568 M 321.926 200.145 C 323.192 201.325, 325.446 204.211, 326.934 206.557 L 329.640 210.824 331.443 207.476 C 332.435 205.635, 334.594 202.749, 336.242 201.064 L 339.237 198 329.430 198 L 319.623 198 321.926 200.145 M 351.605 199.568 C 344.049 202.337, 344.073 202.527, 353.170 211.671 L 361.457 220.001 369.692 211.809 C 378.838 202.711, 378.906 202.178, 371.260 199.573 C 365.620 197.651, 356.842 197.649, 351.605 199.568 M 385.926 200.145 C 387.192 201.325, 389.446 204.211, 390.934 206.557 L 393.640 210.824 395.443 207.476 C 396.435 205.635, 398.594 202.749, 400.242 201.064 L 403.237 198 393.430 198 L 383.623 198 385.926 200.145 M 415.605 199.568 C 408.049 202.337, 408.073 202.527, 417.170 211.671 L 425.457 220.001 433.692 211.809 C 442.838 202.711, 442.906 202.178, 435.260 199.573 C 429.620 197.651, 420.842 197.649, 415.605 199.568 M 274.184 210.278 C 270.139 215.152, 268.867 227.319, 271.573 235.260 C 274.178 242.906, 274.711 242.838, 283.809 233.692 L 292.001 225.457 283.671 217.170 C 276.854 210.389, 275.131 209.137, 274.184 210.278 M 311.191 217.308 L 302.999 225.543 311.329 233.830 C 320.530 242.983, 320.678 242.998, 323.487 235.038 C 325.439 229.503, 325.415 221.574, 323.427 215.740 C 320.822 208.094, 320.289 208.162, 311.191 217.308 M 338.184 210.278 C 334.139 215.152, 332.867 227.319, 335.573 235.260 C 338.178 242.906, 338.711 242.838, 347.809 233.692 L 356.001 225.457 347.671 217.170 C 340.854 210.389, 339.131 209.137, 338.184 210.278 M 375.191 217.308 L 366.999 225.543 375.329 233.830 C 384.530 242.983, 384.678 242.998, 387.487 235.038 C 389.439 229.503, 389.415 221.574, 387.427 215.740 C 384.822 208.094, 384.289 208.162, 375.191 217.308 M 402.184 210.278 C 398.139 215.152, 396.867 227.319, 399.573 235.260 C 402.178 242.906, 402.711 242.838, 411.809 233.692 L 420.001 225.457 411.671 217.170 C 404.854 210.389, 403.131 209.137, 402.184 210.278 M 439.191 217.308 L 430.999 225.543 439.329 233.830 C 448.530 242.983, 448.678 242.998, 451.487 235.038 C 453.439 229.503, 453.415 221.574, 451.427 215.740 C 448.822 208.094, 448.289 208.162, 439.191 217.308 M 39.571 223.571 C 38.707 224.436, 38 225.636, 38 226.239 C 38 226.841, 43.941 233.334, 51.202 240.667 L 64.405 254 36.774 254 C 12.988 254, 8.924 254.219, 7.571 255.571 C 5.598 257.545, 5.598 258.455, 7.571 260.429 C 8.968 261.825, 16.372 262, 74 262 C 131.628 262, 139.032 261.825, 140.429 260.429 C 142.402 258.455, 142.402 257.545, 140.429 255.571 C 139.076 254.219, 135.012 254, 111.226 254 L 83.595 254 96.798 240.667 C 104.059 233.334, 110 226.841, 110 226.239 C 110 224.817, 107.176 222, 105.751 222 C 105.143 222, 97.750 228.844, 89.323 237.208 L 74 252.416 58.677 237.208 C 50.250 228.844, 42.857 222, 42.249 222 C 41.640 222, 40.436 222.707, 39.571 223.571 M 289.170 239.329 C 280.017 248.530, 280.002 248.678, 287.962 251.487 C 293.497 253.439, 301.426 253.415, 307.260 251.427 C 314.906 248.822, 314.838 248.289, 305.692 239.191 L 297.457 230.999 289.170 239.329 M 353.170 239.329 C 344.017 248.530, 344.002 248.678, 351.962 251.487 C 357.497 253.439, 365.426 253.415, 371.260 251.427 C 378.906 248.822, 378.838 248.289, 369.692 239.191 L 361.457 230.999 353.170 239.329 M 417.170 239.329 C 408.017 248.530, 408.002 248.678, 415.962 251.487 C 421.497 253.439, 429.426 253.415, 435.260 251.427 C 442.906 248.822, 442.838 248.289, 433.692 239.191 L 425.457 230.999 417.170 239.329 " stroke="none" fill="black" fill-rule="evenodd"/>
</svg>