<svg xmlns="http://www.w3.org/2000/svg" width="500" height="324" viewBox="0 0 500 324" version="1.1">
	<path d="M 120.316 62.784 C 118.369 64.022, 102.007 97.855, 102.604 99.410 C 103.450 101.615, 106.110 102.210, 107.895 100.594 C 108.778 99.795, 112.185 93.709, 115.467 87.070 C 118.748 80.432, 121.687 75, 121.997 75 C 122.308 75, 125.453 80.837, 128.986 87.972 C 132.520 95.106, 136.050 101.189, 136.832 101.489 C 138.716 102.212, 141 100.227, 141 97.866 C 141 95.626, 125.264 63.831, 123.628 62.765 C 122.214 61.845, 121.789 61.847, 120.316 62.784 M 168.500 158 L 136.512 190 72.827 190 C 16.266 190, 8.967 190.176, 7.571 191.571 C 5.598 193.545, 5.598 194.455, 7.571 196.429 C 8.844 197.701, 11.697 198, 22.575 198 L 36.006 198 21.020 227.961 C 12.777 244.439, 6.285 258.580, 6.594 259.384 C 7.265 261.133, 9.512 262.125, 11.274 261.448 C 11.975 261.180, 19.056 247.919, 27.010 231.980 C 34.964 216.041, 41.717 203, 42.016 203 C 42.315 203, 49.042 216.034, 56.965 231.964 C 64.888 247.894, 71.962 261.155, 72.685 261.433 C 73.408 261.710, 74.573 261.717, 75.274 261.448 C 75.975 261.180, 83.056 247.919, 91.010 231.980 C 98.964 216.041, 105.710 203, 106 203 C 106.290 203, 113.036 216.041, 120.990 231.980 C 128.944 247.919, 136.083 261.201, 136.853 261.497 C 138.718 262.213, 141 260.217, 141 257.871 C 141 256.835, 134.473 242.940, 126.497 226.993 L 111.993 198 125.313 198 L 138.632 198 170.029 166.502 L 201.427 135.005 217.034 150.502 C 225.618 159.026, 233.117 166, 233.698 166 C 235.296 166, 237.209 163.296, 236.833 161.570 C 236.419 159.669, 203.030 126, 201.559 126 C 200.970 126, 186.094 140.400, 168.500 158 M 422.652 128.189 C 421.841 129.460, 406.852 159.187, 389.343 194.249 C 363.084 246.834, 357.702 258.304, 358.613 259.749 C 359.647 261.388, 363.919 261.500, 425.500 261.500 C 487.145 261.500, 491.352 261.390, 492.390 259.744 C 493.305 258.293, 487.774 246.586, 460.499 192.244 C 438.523 148.461, 426.937 126.396, 425.813 126.189 C 424.885 126.018, 423.463 126.918, 422.652 128.189 M 396.747 195.500 C 380.936 227.128, 368 253.229, 368 253.502 C 368 253.776, 393.875 254, 425.500 254 C 457.125 254, 482.975 253.662, 482.945 253.250 C 482.915 252.838, 469.976 226.736, 454.192 195.248 L 425.494 137.995 396.747 195.500 M 263.750 159.080 C 262.155 160.009, 262 162.388, 262 186.015 C 262 211.174, 262.060 211.962, 264.064 213.034 C 265.596 213.854, 266.498 213.832, 267.564 212.947 C 268.744 211.968, 269 207.174, 269 186.078 C 269 157.906, 268.671 156.214, 263.750 159.080 M 295.750 159.080 C 294.155 160.009, 294 162.388, 294 186.015 C 294 211.174, 294.060 211.962, 296.064 213.034 C 297.596 213.854, 298.498 213.832, 299.564 212.947 C 300.744 211.968, 301 207.174, 301 186.078 C 301 157.906, 300.671 156.214, 295.750 159.080 M 327.750 159.080 C 326.155 160.009, 326 162.388, 326 186.015 C 326 211.174, 326.060 211.962, 328.064 213.034 C 329.596 213.854, 330.498 213.832, 331.564 212.947 C 332.744 211.968, 333 207.174, 333 186.078 C 333 157.906, 332.671 156.214, 327.750 159.080 M 423.724 159.134 C 422.161 160.009, 422 162.521, 422 186.015 C 422 209.816, 422.145 212.007, 423.776 212.880 C 424.902 213.483, 426.182 213.478, 427.276 212.866 C 428.839 211.991, 429 209.479, 429 185.985 C 429 162.184, 428.855 159.993, 427.224 159.120 C 426.098 158.517, 424.818 158.522, 423.724 159.134 M 60.743 223.500 C 67.750 237.525, 73.715 249, 74 249 C 74.285 249, 80.250 237.525, 87.257 223.500 L 99.995 198 74 198 L 48.005 198 60.743 223.500 M 263.750 222.080 C 261.372 223.465, 261.542 226.685, 264.064 228.034 C 267.753 230.008, 270.819 225.219, 267.800 222.200 C 266.367 220.767, 266.022 220.757, 263.750 222.080 M 295.750 222.080 C 293.372 223.465, 293.542 226.685, 296.064 228.034 C 299.753 230.008, 302.819 225.219, 299.800 222.200 C 298.367 220.767, 298.022 220.757, 295.750 222.080 M 327.750 222.080 C 325.372 223.465, 325.542 226.685, 328.064 228.034 C 331.753 230.008, 334.819 225.219, 331.800 222.200 C 330.367 220.767, 330.022 220.757, 327.750 222.080 M 423.724 222.134 C 419.838 224.309, 423.294 229.983, 427.224 227.880 C 428.201 227.357, 429 226.061, 429 225 C 429 222.485, 426.005 220.858, 423.724 222.134 " stroke="none" fill="black" fill-rule="evenodd"/>
</svg>