<svg xmlns="http://www.w3.org/2000/svg" width="308" height="324" viewBox="0 0 308 324" version="1.1">
	<path d="M 126.582 135.250 C 112.486 149.607, 105.342 164.339, 102.830 184.228 C 100.694 201.134, 104.401 219.095, 113.306 234.985 C 116.027 239.842, 120.835 245.899, 127 252.237 L 136.500 262.004 201.298 262.002 L 266.097 262 272.853 255.250 C 285.460 242.656, 292.811 230.627, 297.198 215.415 C 299.089 208.857, 299.481 205.100, 299.481 193.500 C 299.481 181.900, 299.089 178.143, 297.198 171.585 C 292.744 156.139, 282.955 140.496, 271.645 130.750 L 266.134 126 200.898 126 L 135.663 126 126.582 135.250 M 133.360 138.236 C 123.968 146.893, 115.267 161.727, 111.932 174.766 C 109.567 184.013, 109.374 200.382, 111.511 210.471 C 114.324 223.750, 123.857 240.190, 134.065 249.368 L 139.216 254 201.182 254 L 263.148 254 269.225 248.250 C 280.810 237.287, 288.686 222.477, 291.494 206.373 C 293.380 195.556, 293.380 191.444, 291.494 180.627 C 288.749 164.888, 281.997 151.785, 270.686 140.250 L 264.558 134 201.257 134 L 137.955 134 133.360 138.236 M 39.571 159.571 C 38.707 160.436, 38 161.529, 38 162 C 38 163.111, 40.889 166, 42 166 C 43.111 166, 46 163.111, 46 162 C 46 160.889, 43.111 158, 42 158 C 41.529 158, 40.436 158.707, 39.571 159.571 M 7.571 191.571 C 6.707 192.436, 6 193.529, 6 194 C 6 194.471, 6.707 195.564, 7.571 196.429 C 8.936 197.793, 13.463 198, 42 198 C 70.537 198, 75.064 197.793, 76.429 196.429 C 77.293 195.564, 78 194.471, 78 194 C 78 193.529, 77.293 192.436, 76.429 191.571 C 75.064 190.207, 70.537 190, 42 190 C 13.463 190, 8.936 190.207, 7.571 191.571 M 39.571 223.571 C 38.707 224.436, 38 225.529, 38 226 C 38 227.111, 40.889 230, 42 230 C 43.111 230, 46 227.111, 46 226 C 46 224.889, 43.111 222, 42 222 C 41.529 222, 40.436 222.707, 39.571 223.571 " stroke="none" fill="black" fill-rule="evenodd"/>
</svg>