<svg xmlns="http://www.w3.org/2000/svg" width="372" height="324" viewBox="0 0 372 324" version="1.1">
	<path d="M 193.608 132.122 C 181.806 142.937, 173.219 157.313, 168.894 173.500 C 167.274 179.564, 166.757 184.404, 166.757 193.500 C 166.757 217.690, 175.862 238.351, 193.980 255.274 L 201.181 262 265.974 262 L 330.767 262 338.041 254.525 C 347.256 245.056, 351.251 239.521, 356.105 229.500 C 362.108 217.105, 364.243 207.661, 364.243 193.500 C 364.243 184.404, 363.726 179.564, 362.106 173.500 C 357.819 157.456, 349.480 143.415, 337.608 132.250 L 330.962 126 265.626 126 L 200.289 126 193.608 132.122 M 195.107 140.905 C 180.998 155.652, 174.035 173.031, 174.035 193.500 C 174.035 214.391, 181.246 232.035, 195.766 246.674 L 203.032 254 265.581 254 L 328.129 254 335.314 246.665 C 349.821 231.858, 356.965 214.314, 356.965 193.500 C 356.965 173.039, 349.913 155.421, 335.893 140.861 L 329.287 134 265.500 134 L 201.714 134 195.107 140.905 M 33.244 175.109 C 21.572 177.054, 4.461 188.234, 5.204 193.430 C 5.726 197.083, 9.652 196.575, 14.347 192.248 C 16.678 190.099, 21.265 187.027, 24.542 185.421 C 29.996 182.747, 31.389 182.503, 41 182.532 C 55.485 182.575, 60.839 184.744, 70.520 194.487 C 78.738 202.759, 85.159 206.306, 96.024 208.574 C 110.429 211.581, 125.458 207.561, 136.696 197.694 C 140.507 194.347, 141.107 190.486, 137.970 189.490 C 136.520 189.030, 134.888 189.769, 132.267 192.070 C 130.247 193.844, 125.648 196.691, 122.047 198.397 C 116.011 201.258, 114.676 201.500, 104.948 201.500 C 94.786 201.500, 94.121 201.363, 86.948 197.796 C 82.314 195.492, 78.746 192.948, 77.504 191.064 C 72.864 184.024, 60.066 176.839, 49 175.060 C 41.669 173.882, 40.594 173.885, 33.244 175.109 " stroke="none" fill="black" fill-rule="evenodd"/>
</svg>