<svg xmlns="http://www.w3.org/2000/svg" width="324" height="324" viewBox="0 0 324 324" version="1.1">
	<path d="M 145.608 132.122 C 133.806 142.937, 125.219 157.313, 120.894 173.500 C 119.274 179.564, 118.757 184.404, 118.757 193.500 C 118.757 217.690, 127.862 238.351, 145.980 255.274 L 153.181 262 217.974 262 L 282.767 262 290.041 254.525 C 299.256 245.056, 303.251 239.521, 308.105 229.500 C 314.108 217.105, 316.243 207.661, 316.243 193.500 C 316.243 184.404, 315.726 179.564, 314.106 173.500 C 309.819 157.456, 301.480 143.415, 289.608 132.250 L 282.962 126 217.626 126 L 152.289 126 145.608 132.122 M 147.107 140.905 C 132.998 155.652, 126.035 173.031, 126.035 193.500 C 126.035 214.391, 133.246 232.035, 147.766 246.674 L 155.032 254 217.581 254 L 280.129 254 287.314 246.665 C 301.821 231.858, 308.965 214.314, 308.965 193.500 C 308.965 173.039, 301.913 155.421, 287.893 140.861 L 281.287 134 217.500 134 L 153.714 134 147.107 140.905 M 21.242 160.694 C 16.843 166.948, 15.633 170.466, 15.633 177 C 15.633 183.781, 16.968 187.471, 21.713 193.807 C 24.404 197.401, 27.484 197.795, 29.370 194.786 C 30.209 193.448, 29.951 192.462, 28.195 190.286 C 22.066 182.696, 21.380 173.388, 26.415 166.123 C 29.714 161.362, 29.519 158.620, 25.849 158.194 C 23.899 157.967, 22.704 158.616, 21.242 160.694 M 53.242 160.694 C 48.843 166.948, 47.633 170.466, 47.633 177 C 47.633 183.781, 48.968 187.471, 53.713 193.807 C 56.404 197.401, 59.484 197.795, 61.370 194.786 C 62.209 193.448, 61.951 192.462, 60.195 190.286 C 54.066 182.696, 53.380 173.388, 58.415 166.123 C 61.714 161.362, 61.519 158.620, 57.849 158.194 C 55.899 157.967, 54.704 158.616, 53.242 160.694 M 85.242 160.694 C 80.843 166.948, 79.633 170.466, 79.633 177 C 79.633 183.781, 80.968 187.471, 85.713 193.807 C 88.404 197.401, 91.484 197.795, 93.370 194.786 C 94.209 193.448, 93.951 192.462, 92.195 190.286 C 86.066 182.696, 85.380 173.388, 90.415 166.123 C 93.714 161.362, 93.519 158.620, 89.849 158.194 C 87.899 157.967, 86.704 158.616, 85.242 160.694 " stroke="none" fill="black" fill-rule="evenodd"/>
</svg>