<svg xmlns="http://www.w3.org/2000/svg" width="340" height="324" viewBox="0 0 340 324" version="1.1">
	<path d="M 120.316 62.784 C 118.369 64.022, 102.007 97.855, 102.604 99.410 C 103.450 101.615, 106.110 102.210, 107.895 100.594 C 108.778 99.795, 112.185 93.709, 115.467 87.070 C 118.748 80.432, 121.687 75, 121.997 75 C 122.308 75, 125.453 80.837, 128.986 87.972 C 132.520 95.106, 136.050 101.189, 136.832 101.489 C 138.716 102.212, 141 100.227, 141 97.866 C 141 95.626, 125.264 63.831, 123.628 62.765 C 122.214 61.845, 121.789 61.847, 120.316 62.784 M 168.500 158 L 136.512 190 72.827 190 C 16.266 190, 8.967 190.176, 7.571 191.571 C 5.598 193.545, 5.598 194.455, 7.571 196.429 C 8.844 197.701, 11.697 198, 22.575 198 L 36.006 198 21.020 227.961 C 12.777 244.439, 6.285 258.580, 6.594 259.384 C 7.265 261.133, 9.512 262.125, 11.274 261.448 C 11.975 261.180, 19.056 247.919, 27.010 231.980 C 34.964 216.041, 41.717 203, 42.016 203 C 42.315 203, 49.042 216.034, 56.965 231.964 C 64.888 247.894, 71.962 261.155, 72.685 261.433 C 73.408 261.710, 74.573 261.717, 75.274 261.448 C 75.975 261.180, 83.056 247.919, 91.010 231.980 C 98.964 216.041, 105.710 203, 106 203 C 106.290 203, 113.036 216.041, 120.990 231.980 C 128.944 247.919, 136.083 261.201, 136.853 261.497 C 138.718 262.213, 141 260.217, 141 257.871 C 141 256.835, 134.473 242.940, 126.497 226.993 L 111.993 198 125.747 198.012 L 139.500 198.023 170.364 167.012 C 187.340 149.955, 201.497 136, 201.824 136 C 202.151 136, 209.220 142.750, 217.532 151 C 225.845 159.250, 233.120 166, 233.700 166 C 235.290 166, 237.210 163.297, 236.833 161.591 C 236.405 159.655, 203.099 126, 201.611 126 C 200.993 126, 186.094 140.400, 168.500 158 M 263.571 159.571 C 262.227 160.916, 262 164.736, 262 186 C 262 207.264, 262.227 211.084, 263.571 212.429 C 265.457 214.315, 266.219 214.381, 267.800 212.800 C 269.508 211.092, 269.508 160.908, 267.800 159.200 C 266.219 157.619, 265.457 157.685, 263.571 159.571 M 295.571 159.571 C 294.227 160.916, 294 164.736, 294 186 C 294 207.264, 294.227 211.084, 295.571 212.429 C 297.457 214.315, 298.219 214.381, 299.800 212.800 C 301.508 211.092, 301.508 160.908, 299.800 159.200 C 298.219 157.619, 297.457 157.685, 295.571 159.571 M 60.743 223.500 C 67.750 237.525, 73.715 249, 74 249 C 74.285 249, 80.250 237.525, 87.257 223.500 L 99.995 198 74 198 L 48.005 198 60.743 223.500 M 263.616 222.527 C 262.727 223.416, 262 224.529, 262 225 C 262 226.389, 265.140 229.120, 266.295 228.735 C 268.395 228.035, 269.549 225.094, 268.423 223.310 C 266.905 220.902, 265.474 220.669, 263.616 222.527 M 295.616 222.527 C 294.727 223.416, 294 224.529, 294 225 C 294 226.389, 297.140 229.120, 298.295 228.735 C 300.395 228.035, 301.549 225.094, 300.423 223.310 C 298.905 220.902, 297.474 220.669, 295.616 222.527 " stroke="none" fill="black" fill-rule="evenodd"/>
</svg>