<svg xmlns="http://www.w3.org/2000/svg" width="532" height="324" viewBox="0 0 532 324" version="1.1">
	<path d="M 487.315 159.213 C 477.792 168.680, 470 177.214, 470 178.177 C 470 179.141, 470.956 180.441, 472.125 181.067 C 474.033 182.088, 475.032 181.427, 481.894 174.605 L 489.538 167.006 501.003 178.503 L 512.467 190 420.805 190 C 338.809 190, 328.977 190.166, 327.571 191.571 C 324.199 194.944, 327.242 198, 333.973 198 L 338.802 198 335.745 201.250 C 334.064 203.037, 331.304 207.425, 329.612 211 C 326.974 216.572, 326.535 218.642, 326.535 225.500 C 326.535 232.367, 326.975 234.433, 329.639 240.089 C 333.531 248.348, 338.068 252.924, 346.464 257.057 C 361.833 264.623, 380.594 259.434, 390.373 244.912 L 393.728 239.930 394.989 242.973 C 397.032 247.906, 403.712 253.970, 410.710 257.245 C 426.227 264.506, 444.690 259.291, 454.373 244.912 L 457.728 239.930 458.989 242.973 C 461.038 247.920, 467.719 253.974, 474.771 257.274 C 480.325 259.873, 482.549 260.355, 488.930 260.344 C 499.206 260.327, 506.422 257.465, 513.342 250.661 C 521.423 242.714, 523.474 237.627, 523.488 225.500 C 523.501 214.241, 521.978 209.840, 515.417 202.174 L 511.844 198 517.351 198 C 522.753 198, 526.539 196.117, 525.770 193.811 C 525.595 193.285, 518.490 185.922, 509.980 177.448 L 494.509 162.041 501.754 154.747 C 505.740 150.735, 509 146.766, 509 145.926 C 509 144.203, 507.101 142, 505.615 142 C 505.073 142, 496.838 149.746, 487.315 159.213 M 7.571 191.571 C 6.707 192.436, 6 193.640, 6 194.249 C 6 194.857, 12.844 202.250, 21.208 210.677 L 36.416 226 21.208 241.323 C 12.844 249.750, 6 257.143, 6 257.751 C 6 259.181, 8.819 262, 10.249 262 C 10.857 262, 18.250 255.156, 26.677 246.792 L 42 231.584 57.323 246.792 C 65.750 255.156, 73.143 262, 73.751 262 C 75.181 262, 78 259.181, 78 257.751 C 78 257.143, 71.156 249.750, 62.792 241.323 L 47.584 226 62.792 210.677 C 71.156 202.250, 78 194.857, 78 194.249 C 78 192.819, 75.181 190, 73.751 190 C 73.143 190, 65.750 196.844, 57.323 205.208 L 42 220.416 26.677 205.208 C 18.250 196.844, 10.857 190, 10.249 190 C 9.640 190, 8.436 190.707, 7.571 191.571 M 103.750 191.080 C 102.139 192.019, 102 194.744, 102 225.478 C 102 254.489, 102.206 259.063, 103.571 260.429 C 104.436 261.293, 105.529 262, 106 262 C 106.471 262, 107.564 261.293, 108.429 260.429 C 109.788 259.069, 110 254.758, 110 228.429 L 110 198 170 198 L 230 198 230 228.878 C 230 253.790, 230.264 259.975, 231.369 260.891 C 232.345 261.701, 242.290 261.952, 266.010 261.764 C 296.441 261.523, 299.377 261.351, 300.386 259.750 C 301.191 258.474, 301.191 257.526, 300.386 256.250 C 299.381 254.655, 296.566 254.477, 268.641 254.236 L 238 253.971 238 223.557 C 238 197.241, 237.788 192.931, 236.429 191.571 C 235.032 190.175, 227.670 190.003, 170.179 190.030 C 128.111 190.050, 104.888 190.417, 103.750 191.080 M 351.603 199.477 C 343.528 202.354, 343.594 203.079, 352.764 212.249 L 360.985 220.470 369.503 211.997 C 378.013 203.531, 378.018 203.522, 375.818 201.863 C 370.670 197.980, 359.024 196.832, 351.603 199.477 M 386.173 200.750 C 387.575 202.262, 389.848 205.202, 391.225 207.283 L 393.730 211.067 394.939 208.148 C 395.603 206.543, 397.637 203.603, 399.459 201.615 L 402.770 198 393.198 198 L 383.626 198 386.173 200.750 M 415.603 199.477 C 407.527 202.355, 407.593 203.078, 416.772 212.257 L 425 220.485 433.698 211.788 L 442.395 203.091 436.947 200.555 C 430.680 197.638, 421.994 197.199, 415.603 199.477 M 450.932 201.750 C 452.606 203.813, 454.823 206.602, 455.859 207.950 L 457.742 210.400 459.306 207.375 C 460.166 205.712, 462.205 202.922, 463.836 201.175 L 466.802 198 457.345 198 L 447.887 198 450.932 201.750 M 479.603 199.477 C 471.527 202.355, 471.593 203.078, 480.772 212.257 L 489 220.485 497.698 211.788 L 506.395 203.091 500.947 200.555 C 494.680 197.638, 485.994 197.199, 479.603 199.477 M 338.192 210.269 C 333.752 215.619, 332.575 229.264, 335.918 236.627 C 336.948 238.896, 338.209 241.011, 338.718 241.326 C 339.228 241.641, 343.325 238.199, 347.823 233.678 L 356.001 225.457 347.671 217.170 C 340.884 210.419, 339.128 209.140, 338.192 210.269 M 374.727 216.772 C 370.477 221.047, 367 224.995, 367 225.546 C 367 226.667, 382.144 242, 383.252 242 C 383.641 242, 384.973 240.088, 386.212 237.750 C 388.008 234.363, 388.465 231.875, 388.465 225.500 C 388.465 219.125, 388.008 216.637, 386.212 213.250 C 384.973 210.912, 383.620 209, 383.206 209 C 382.792 209, 378.976 212.497, 374.727 216.772 M 402.192 210.269 C 397.752 215.619, 396.575 229.264, 399.918 236.627 C 400.948 238.896, 402.209 241.011, 402.718 241.326 C 403.228 241.641, 407.325 238.199, 411.823 233.678 L 420.001 225.457 411.671 217.170 C 404.884 210.419, 403.128 209.140, 402.192 210.269 M 438.727 216.772 C 434.477 221.047, 431 224.995, 431 225.546 C 431 226.667, 446.144 242, 447.252 242 C 447.641 242, 448.973 240.088, 450.212 237.750 C 452.008 234.363, 452.465 231.875, 452.465 225.500 C 452.465 219.125, 452.008 216.637, 450.212 213.250 C 448.973 210.912, 447.620 209, 447.206 209 C 446.792 209, 442.976 212.497, 438.727 216.772 M 464.061 214.081 C 461.413 220.235, 461.139 230.005, 463.459 235.556 C 466.527 242.899, 466.559 242.895, 475.671 233.830 L 484.001 225.543 475.773 217.271 C 471.247 212.722, 467.252 209, 466.895 209 C 466.538 209, 465.263 211.286, 464.061 214.081 M 502.727 216.772 C 498.477 221.047, 495 224.995, 495 225.546 C 495 226.667, 510.144 242, 511.252 242 C 511.641 242, 512.973 240.088, 514.212 237.750 C 516.008 234.363, 516.465 231.875, 516.465 225.500 C 516.465 219.125, 516.008 216.637, 514.212 213.250 C 512.973 210.912, 511.620 209, 511.206 209 C 510.792 209, 506.976 212.497, 502.727 216.772 M 352.477 239.059 L 344.500 247.118 346.830 249.034 C 352.486 253.685, 364.578 254.341, 372.937 250.449 L 378.375 247.918 369.959 239.459 C 365.331 234.807, 361.299 231, 360.999 231 C 360.699 231, 356.864 234.627, 352.477 239.059 M 416.477 239.059 L 408.500 247.118 410.830 249.034 C 416.486 253.685, 428.578 254.341, 436.937 250.449 L 442.375 247.918 433.959 239.459 C 429.331 234.807, 425.299 231, 424.999 231 C 424.699 231, 420.864 234.627, 416.477 239.059 M 480.477 239.059 L 472.500 247.118 474.830 249.034 C 480.486 253.685, 492.578 254.341, 500.937 250.449 L 506.375 247.918 497.959 239.459 C 493.331 234.807, 489.299 231, 488.999 231 C 488.699 231, 484.864 234.627, 480.477 239.059 " stroke="none" fill="black" fill-rule="evenodd"/>
</svg>