<svg xmlns="http://www.w3.org/2000/svg" width="308" height="324" viewBox="0 0 308 324" version="1.1">
	<path d="M 7.571 127.571 C 6.175 128.968, 6 136.372, 6 194 C 6 251.628, 6.175 259.032, 7.571 260.429 C 8.968 261.825, 16.343 261.998, 73.821 261.985 C 109.395 261.976, 139.072 261.606, 139.772 261.162 C 141.639 259.977, 141.639 128.023, 139.772 126.838 C 139.072 126.394, 109.395 126.024, 73.821 126.015 C 16.343 126.002, 8.968 126.175, 7.571 127.571 M 231.750 127.080 C 229.720 128.262, 229.431 131.514, 231.250 132.691 C 231.938 133.136, 244.990 133.725, 260.255 134 L 288.010 134.500 230.505 191.997 L 173 249.493 173 220.869 C 173 197.212, 172.751 192.038, 171.564 191.053 C 170.498 190.168, 169.596 190.146, 168.064 190.966 C 166.041 192.048, 166 192.744, 166 225.913 C 166 253.334, 166.260 259.971, 167.369 260.891 C 168.345 261.701, 178.290 261.952, 202.010 261.764 C 232.441 261.523, 235.377 261.351, 236.386 259.750 C 237.191 258.474, 237.191 257.526, 236.386 256.250 C 235.385 254.661, 232.672 254.476, 206.911 254.234 L 178.538 253.968 236.019 196.479 L 293.500 138.991 294 167.637 C 294.442 192.942, 294.694 196.406, 296.166 197.334 C 297.375 198.096, 298.267 198.023, 299.416 197.070 C 300.804 195.918, 301 191.585, 301 162.078 C 301 137.217, 300.686 128.086, 299.800 127.200 C 298.247 125.647, 234.404 125.534, 231.750 127.080 M 14 194 L 14 254 74 254 L 134 254 134 194 L 134 134 74 134 L 14 134 14 194 " stroke="none" fill="black" fill-rule="evenodd"/>
</svg>