<svg xmlns="http://www.w3.org/2000/svg" width="244" height="324" viewBox="0 0 244 324" version="1.1">
	<path d="M 151.571 63.571 C 150.707 64.436, 150 65.279, 150 65.446 C 150 66.666, 167.028 100.899, 167.903 101.440 C 170.691 103.163, 172.903 100.249, 180.760 84.501 C 185.292 75.417, 189 67.143, 189 66.115 C 189 63.642, 186.675 61.804, 184.569 62.612 C 183.643 62.967, 179.930 69.156, 176.318 76.363 L 169.751 89.469 163.767 77.484 C 157.953 65.839, 155.511 62, 153.916 62 C 153.491 62, 152.436 62.707, 151.571 63.571 M 159.102 127.104 C 129.380 131.620, 105.510 157.140, 102.524 187.593 C 101.946 193.492, 102.107 194.965, 103.486 196.343 C 104.397 197.254, 105.535 198, 106.015 198 C 107.925 198, 110 193.308, 110 188.988 C 110 171.115, 124.259 149.387, 141.746 140.614 C 176.387 123.235, 217.545 141.529, 227.003 178.511 C 228.101 182.806, 229 188.482, 229 191.125 C 229 194.956, 229.418 196.154, 231.064 197.034 C 238.863 201.208, 237.093 178.561, 228.303 161.700 C 225.753 156.809, 221.954 151.890, 216.457 146.361 C 209.703 139.568, 206.806 137.478, 198.933 133.719 C 193.745 131.242, 187.475 128.743, 185 128.165 C 177.972 126.523, 166.123 126.038, 159.102 127.104 M 164.764 158.996 C 159.184 160.676, 155.145 164.067, 152.571 169.234 C 151.157 172.071, 150 175.397, 150 176.625 C 150 178.848, 152.355 182, 154.015 182 C 155.484 182, 158 177.693, 158 175.177 C 158 173.807, 159.440 171.360, 161.400 169.400 C 164.231 166.569, 165.533 166, 169.177 166 C 178.941 166, 184.196 175.962, 178.719 184.089 C 177.465 185.950, 175.102 187.872, 173.469 188.360 C 165.531 190.729, 166 189.941, 166 200.907 C 166 208.619, 166.353 211.211, 167.571 212.429 C 171.150 216.007, 173 213.244, 173 204.320 L 173 197.041 176.750 195.112 C 184.312 191.222, 188 185.417, 188 177.403 C 188 171.457, 186.068 167.145, 181.676 163.289 C 176.495 158.740, 170.591 157.241, 164.764 158.996 M 7.571 191.571 C 6.707 192.436, 6 193.529, 6 194 C 6 194.471, 6.707 195.564, 7.571 196.429 C 8.936 197.793, 13.463 198, 42 198 C 70.537 198, 75.064 197.793, 76.429 196.429 C 77.293 195.564, 78 194.471, 78 194 C 78 193.529, 77.293 192.436, 76.429 191.571 C 75.064 190.207, 70.537 190, 42 190 C 13.463 190, 8.936 190.207, 7.571 191.571 M 167.616 222.527 C 166.727 223.416, 166 224.529, 166 225 C 166 226.389, 169.140 229.120, 170.295 228.735 C 172.395 228.035, 173.549 225.094, 172.423 223.310 C 170.905 220.902, 169.474 220.669, 167.616 222.527 " stroke="none" fill="black" fill-rule="evenodd"/>
</svg>