<svg xmlns="http://www.w3.org/2000/svg" width="436" height="324" viewBox="0 0 436 324" version="1.1">
	<path d="M 199.571 127.571 C 198.178 128.965, 198 135.899, 198 188.799 L 198 248.455 168.711 219.227 C 152.602 203.152, 138.909 190, 138.282 190 C 136.807 190, 134 192.810, 134 194.287 C 134 195.818, 200.128 262, 201.659 262 C 202.318 262, 203.564 261.293, 204.429 260.429 C 205.825 259.032, 206 251.628, 206 194 C 206 136.372, 205.825 128.968, 204.429 127.571 C 203.564 126.707, 202.471 126, 202 126 C 201.529 126, 200.436 126.707, 199.571 127.571 M 39.230 223.285 C 20.953 241.591, 6 257.084, 6 257.713 C 6 258.342, 6.707 259.564, 7.571 260.429 C 8.968 261.825, 16.372 262, 74 262 C 131.628 262, 139.032 261.825, 140.429 260.429 C 141.293 259.564, 142 258.334, 142 257.695 C 142 255.959, 75.709 190, 73.963 190 C 73.136 190, 57.506 204.978, 39.230 223.285 M 46.500 227 L 19.514 254 74 254 L 128.486 254 101.500 227 C 86.658 212.150, 74.283 200, 74 200 C 73.717 200, 61.342 212.150, 46.500 227 M 255.500 239.113 C 245.087 241.204, 228 251.938, 228 256.387 C 228 257.194, 229.186 258.788, 230.635 259.927 C 233.176 261.926, 234.411 262, 265.202 262 L 297.133 262 300.359 264.460 C 308.601 270.747, 323.472 274.784, 333.500 273.457 C 340.882 272.481, 349.564 269.340, 355.656 265.443 L 361.039 262 393.819 262 C 417.982 262, 426.915 261.685, 427.800 260.800 C 429.400 259.200, 429.320 256.511, 427.631 255.109 C 426.641 254.287, 408.826 253.972, 363.289 253.969 L 300.316 253.965 297.966 251.464 C 288.971 241.889, 269.651 236.270, 255.500 239.113 M 251.498 248.045 C 248.197 249.184, 244.372 250.981, 242.998 252.036 C 240.514 253.945, 240.637 253.956, 264.750 253.978 C 278.087 253.990, 289 253.751, 289 253.447 C 289 253.144, 285.962 251.473, 282.250 249.734 C 273.280 245.534, 260.762 244.846, 251.498 248.045 M 315 263.813 C 317.559 265.019, 321.324 265.463, 329 265.463 C 336.676 265.463, 340.441 265.019, 343 263.813 C 346.402 262.209, 346.010 262.163, 329 262.163 C 311.990 262.163, 311.598 262.209, 315 263.813 " stroke="none" fill="black" fill-rule="evenodd"/>
</svg>