<svg xmlns="http://www.w3.org/2000/svg" width="340" height="324" viewBox="0 0 340 324" version="1.1">
	<path d="M 135.267 159.267 C 116.970 177.563, 102 193.056, 102 193.695 C 102 195.187, 104.799 198, 106.285 198 C 106.913 198, 121.506 183.947, 138.713 166.771 L 170 135.542 201.287 166.771 C 218.494 183.947, 233.029 198, 233.587 198 C 235.107 198, 237.001 195.806, 236.996 194.050 C 236.990 192.048, 171.978 125.993, 170.017 125.997 C 169.201 125.999, 153.563 140.970, 135.267 159.267 M 290.355 126.998 C 279.822 129.188, 270.117 137.138, 265.329 147.500 C 261.372 156.063, 261.372 166.937, 265.329 175.500 C 266.854 178.800, 269.972 183.412, 272.259 185.750 L 276.416 190 270.780 190 C 263.240 190, 260.017 192.874, 263.571 196.429 C 264.855 197.712, 267.788 198, 279.571 198 L 294 198 294 226 L 294 254 279.571 254 C 267.788 254, 264.855 254.288, 263.571 255.571 C 261.595 257.548, 261.598 258.455, 263.585 260.442 C 264.978 261.835, 269.159 261.995, 298.226 261.763 C 328.452 261.523, 331.377 261.350, 332.386 259.750 C 333.190 258.475, 333.191 257.525, 332.387 256.250 C 331.430 254.730, 329.291 254.464, 316.142 254.224 L 301 253.948 301 226 L 301 198.052 316.142 197.776 C 329.291 197.536, 331.430 197.270, 332.387 195.750 C 334.509 192.382, 331.994 190.532, 324.856 190.209 L 318.421 189.918 322.511 185.650 C 329.545 178.308, 331.477 173.106, 331.477 161.500 C 331.477 149.374, 329.431 144.293, 321.342 136.339 C 313.458 128.587, 300.909 124.804, 290.355 126.998 M 287.885 135.380 C 273.023 140.691, 265.571 158.196, 271.991 172.714 C 276.442 182.779, 284.401 188.129, 295.883 188.774 C 302.995 189.173, 303.931 188.978, 310 185.830 C 320.444 180.411, 325.773 170.629, 324.713 158.821 C 323.772 148.346, 316.582 138.975, 306.684 135.326 C 302.419 133.754, 292.355 133.782, 287.885 135.380 M 40.370 190.765 C 38.401 192.045, 6.007 257.855, 6.594 259.384 C 7.265 261.133, 9.512 262.124, 11.274 261.448 C 11.975 261.180, 19.056 247.919, 27.010 231.980 C 34.964 216.041, 41.710 203, 42 203 C 42.290 203, 49.036 216.041, 56.990 231.980 C 64.944 247.919, 72.025 261.180, 72.726 261.448 C 74.488 262.124, 76.735 261.133, 77.406 259.384 C 77.993 257.855, 45.599 192.045, 43.630 190.765 C 43.009 190.361, 42.275 190.031, 42 190.031 C 41.725 190.031, 40.991 190.361, 40.370 190.765 " stroke="none" fill="black" fill-rule="evenodd"/>
</svg>