<svg xmlns="http://www.w3.org/2000/svg" width="340" height="324" viewBox="0 0 340 324" version="1.1">
	<path d="M 87.571 127.571 C 86.176 128.966, 86 136.152, 86 191.571 L 86 254 71.571 254 C 59.788 254, 56.855 254.288, 55.571 255.571 C 53.598 257.545, 53.598 258.455, 55.571 260.429 C 56.936 261.793, 61.463 262, 90 262 C 118.537 262, 123.064 261.793, 124.429 260.429 C 125.293 259.564, 126 258.471, 126 258 C 126 257.529, 125.293 256.436, 124.429 255.571 C 123.145 254.288, 120.212 254, 108.429 254 L 94 254 94 191.571 C 94 136.152, 93.824 128.966, 92.429 127.571 C 91.564 126.707, 90.471 126, 90 126 C 89.529 126, 88.436 126.707, 87.571 127.571 M 23.315 175.213 C 13.792 184.680, 6 193.134, 6 194 C 6 195.761, 39.994 230, 41.743 230 C 43.180 230, 46 227.185, 46 225.751 C 46 225.143, 39.156 217.750, 30.792 209.323 L 15.584 194 30.792 178.677 C 39.156 170.250, 46 162.857, 46 162.249 C 46 160.815, 43.180 158, 41.743 158 C 41.131 158, 32.838 165.746, 23.315 175.213 M 135.571 159.571 C 134.707 160.436, 134 161.640, 134 162.249 C 134 162.857, 140.844 170.250, 149.208 178.677 L 164.416 194 149.208 209.323 C 140.844 217.750, 134 225.143, 134 225.751 C 134 227.200, 136.827 230, 138.290 230 C 139.969 230, 174 195.693, 174 194 C 174 192.307, 139.969 158, 138.290 158 C 137.659 158, 136.436 158.707, 135.571 159.571 M 231.750 159.080 C 230.207 159.979, 230 161.866, 230 175.050 L 230 190 215.934 190 C 201.308 190, 198 190.738, 198 194 C 198 197.262, 201.308 198, 215.934 198 L 230 198 230 212.965 C 230 227.324, 230.088 227.977, 232.183 229.098 C 234.042 230.093, 234.636 229.933, 236.183 228.022 C 237.744 226.095, 238 223.823, 238 211.916 L 238 198.053 252.643 197.777 C 265.314 197.537, 267.433 197.264, 268.387 195.750 C 269.191 194.475, 269.191 193.525, 268.387 192.250 C 267.433 190.736, 265.314 190.463, 252.643 190.223 L 238 189.947 238 176.196 C 238 165.369, 237.669 161.972, 236.443 160.223 C 234.702 157.736, 234.248 157.625, 231.750 159.080 M 295.750 159.080 C 294.155 160.009, 294 162.388, 294 186.015 C 294 211.630, 294.025 211.943, 296.183 213.098 C 298.042 214.093, 298.636 213.933, 300.183 212.022 C 301.825 209.995, 302 207.494, 302 186.112 C 302 166.310, 301.746 162.082, 300.443 160.223 C 298.702 157.736, 298.248 157.625, 295.750 159.080 M 295.750 222.080 C 293.372 223.465, 293.542 226.685, 296.064 228.034 C 299.753 230.008, 302.819 225.219, 299.800 222.200 C 298.367 220.767, 298.022 220.757, 295.750 222.080 " stroke="none" fill="black" fill-rule="evenodd"/>
</svg>