<svg xmlns="http://www.w3.org/2000/svg" width="244" height="324" viewBox="0 0 244 324" version="1.1">
	<path d="M 63.102 127.162 C 37.850 130.772, 15.064 151.522, 8.374 177 C 6.113 185.610, 6.113 201.390, 8.374 210 C 12.447 225.511, 23.726 241.091, 37.307 249.965 L 43.483 254 26.313 254 C 12.037 254, 8.878 254.265, 7.571 255.571 C 5.596 257.546, 5.598 258.455, 7.579 260.436 C 8.990 261.847, 16.058 261.987, 74.220 261.757 C 134.934 261.517, 139.356 261.383, 140.386 259.750 C 141.190 258.475, 141.191 257.525, 140.388 256.250 C 139.427 254.724, 137.021 254.436, 121.581 254 L 103.875 253.500 110.356 249.242 C 123.505 240.603, 134.521 225.060, 138.523 209.500 C 140.538 201.668, 140.542 185.276, 138.531 177.500 C 131.703 151.090, 109.268 130.921, 82.398 127.037 C 74.447 125.887, 71.899 125.904, 63.102 127.162 M 194.355 126.986 C 172.853 131.520, 160.274 155.905, 169.329 175.500 C 170.854 178.800, 173.972 183.412, 176.259 185.750 L 180.416 190 174.780 190 C 167.240 190, 164.017 192.874, 167.571 196.429 C 168.855 197.712, 171.788 198, 183.571 198 L 198 198 198 226 L 198 254 183.571 254 C 171.788 254, 168.855 254.288, 167.571 255.571 C 165.595 257.548, 165.598 258.455, 167.585 260.442 C 168.978 261.835, 173.159 261.995, 202.226 261.763 C 232.452 261.523, 235.377 261.350, 236.386 259.750 C 237.190 258.475, 237.191 257.525, 236.387 256.250 C 235.430 254.730, 233.291 254.464, 220.142 254.224 L 205 253.948 205 226 L 205 198.052 220.142 197.776 C 233.291 197.536, 235.430 197.270, 236.387 195.750 C 238.509 192.382, 235.994 190.532, 228.856 190.209 L 222.421 189.918 226.511 185.650 C 233.545 178.308, 235.477 173.106, 235.477 161.500 C 235.477 149.374, 233.431 144.293, 225.342 136.339 C 217.368 128.498, 204.953 124.751, 194.355 126.986 M 57.500 135.870 C 37.436 141.645, 20.733 158.691, 15.585 178.644 C 13.554 186.517, 13.554 200.483, 15.585 208.356 C 20.889 228.914, 38.828 246.683, 59.103 251.463 C 79.613 256.297, 100.787 250.350, 115.409 235.649 C 123.223 227.793, 128.857 217.945, 131.491 207.540 C 133.423 199.909, 133.423 187.091, 131.491 179.460 C 126.119 158.236, 108.383 140.366, 87.897 135.537 C 79.386 133.531, 65.080 133.688, 57.500 135.870 M 191.627 135.468 C 186.247 137.386, 181.039 141.829, 177.500 147.519 C 173.527 153.908, 172.712 165.311, 175.741 172.129 C 180.289 182.364, 188.183 187.994, 199.078 188.773 C 206.881 189.332, 212.235 187.787, 218.674 183.119 C 226.430 177.497, 230.774 164.233, 228.098 154.343 C 224.899 142.521, 213.747 133.958, 201.663 134.044 C 198.273 134.068, 193.757 134.709, 191.627 135.468 " stroke="none" fill="black" fill-rule="evenodd"/>
</svg>