<svg xmlns="http://www.w3.org/2000/svg" width="244" height="324" viewBox="0 0 244 324" version="1.1">
	<path d="M 23.571 63.571 C 22.707 64.436, 22 65.317, 22 65.531 C 22 66.316, 39.159 100.529, 39.965 101.349 C 42.297 103.725, 44.927 100.197, 53.239 83.541 C 58.036 73.928, 61.710 65.408, 61.403 64.609 C 60.732 62.858, 58.483 61.877, 56.705 62.560 C 55.993 62.833, 52.520 68.894, 48.986 76.028 C 45.453 83.163, 42.308 89, 41.997 89 C 41.687 89, 38.748 83.534, 35.467 76.853 C 27.925 61.499, 26.847 60.296, 23.571 63.571 M 103.571 127.571 C 102.175 128.968, 102 136.372, 102 194 C 102 251.628, 102.175 259.032, 103.571 260.429 C 104.436 261.293, 105.529 262, 106 262 C 106.471 262, 107.564 261.293, 108.429 260.429 C 109.825 259.032, 110 251.628, 110 194 C 110 136.372, 109.825 128.968, 108.429 127.571 C 107.564 126.707, 106.471 126, 106 126 C 105.529 126, 104.436 126.707, 103.571 127.571 M 231.750 127.080 C 230.111 128.035, 230 132.293, 230 194.015 C 230 259.587, 230.011 259.935, 232.064 261.034 C 237.084 263.721, 237 264.854, 237 194.078 C 237 123.068, 237.071 123.981, 231.750 127.080 M 167.750 159.080 C 166.207 159.979, 166 161.866, 166 175.050 L 166 190 151.571 190 C 139.788 190, 136.855 190.288, 135.571 191.571 C 133.598 193.545, 133.598 194.455, 135.571 196.429 C 136.855 197.712, 139.788 198, 151.571 198 L 166 198 166 212.965 C 166 227.324, 166.088 227.977, 168.183 229.098 C 170.042 230.093, 170.636 229.933, 172.183 228.022 C 173.744 226.095, 174 223.823, 174 211.916 L 174 198.053 188.643 197.777 C 201.314 197.537, 203.433 197.264, 204.387 195.750 C 205.191 194.475, 205.191 193.525, 204.387 192.250 C 203.433 190.736, 201.314 190.463, 188.643 190.223 L 174 189.947 174 176.196 C 174 165.369, 173.669 161.972, 172.443 160.223 C 170.702 157.736, 170.248 157.625, 167.750 159.080 M 39.571 191.571 C 38.288 192.855, 38 195.788, 38 207.571 L 38 222 23.571 222 C 11.788 222, 8.855 222.288, 7.571 223.571 C 5.598 225.545, 5.598 226.455, 7.571 228.429 C 8.855 229.712, 11.788 230, 23.571 230 L 38 230 38 242 L 38 254 23.571 254 C 11.788 254, 8.855 254.288, 7.571 255.571 C 5.598 257.545, 5.598 258.455, 7.571 260.429 C 8.936 261.793, 13.463 262, 42 262 C 70.537 262, 75.064 261.793, 76.429 260.429 C 78.402 258.455, 78.402 257.545, 76.429 255.571 C 75.145 254.288, 72.212 254, 60.429 254 L 46 254 46 242 L 46 230 60.429 230 C 72.212 230, 75.145 229.712, 76.429 228.429 C 78.402 226.455, 78.402 225.545, 76.429 223.571 C 75.145 222.288, 72.212 222, 60.429 222 L 46 222 46 207.571 C 46 195.788, 45.712 192.855, 44.429 191.571 C 43.564 190.707, 42.471 190, 42 190 C 41.529 190, 40.436 190.707, 39.571 191.571 " stroke="none" fill="black" fill-rule="evenodd"/>
</svg>