<svg xmlns="http://www.w3.org/2000/svg" width="628" height="324" viewBox="0 0 628 324" version="1.1">
	<path d="M 55.213 143.315 C 45.746 152.838, 38 161.131, 38 161.743 C 38 163.175, 40.813 166, 42.239 166 C 42.841 166, 49.334 160.059, 56.667 152.798 L 70 139.595 70 194 L 70 248.405 56.667 235.202 C 49.334 227.941, 42.841 222, 42.239 222 C 40.825 222, 38 224.820, 38 226.232 C 38 226.831, 43.513 232.922, 50.250 239.767 C 61.854 251.556, 62.316 252.178, 59 251.551 C 57.075 251.188, 51.701 249.050, 47.058 246.802 C 28.325 237.728, 14.082 216.402, 14.015 197.321 C 14.001 193.426, 12.122 190, 10 190 C 9.529 190, 8.399 190.743, 7.491 191.652 C 4.366 194.777, 7.569 211.386, 13.692 223.806 C 17.920 232.384, 28.303 244.016, 36.715 249.599 C 46.407 256.032, 63.561 261.366, 74 261.192 C 83.040 261.041, 98.172 256.706, 107 251.738 C 115.686 246.850, 127.865 233.952, 132.719 224.500 C 139.154 211.969, 142.683 194.825, 139.485 191.627 C 137.454 189.597, 136.556 189.587, 134.571 191.571 C 133.640 192.503, 133 194.860, 133 197.361 C 133 216.180, 118.386 238.003, 99.899 246.791 C 84.230 254.239, 84.042 253.620, 97.750 239.732 C 104.488 232.906, 110 226.831, 110 226.232 C 110 224.820, 107.175 222, 105.761 222 C 105.159 222, 98.666 227.941, 91.333 235.202 L 78 248.405 78 194 L 78 139.595 91.333 152.798 C 98.666 160.059, 105.159 166, 105.761 166 C 107.187 166, 110 163.175, 110 161.743 C 110 159.994, 75.761 126, 74 126 C 73.134 126, 64.680 133.792, 55.213 143.315 M 221.500 127.466 C 193.258 132.652, 171.594 155.141, 167.041 184 C 165.529 193.580, 165.666 259.266, 167.200 260.800 C 168.109 261.709, 184.229 262, 233.629 262 C 292.042 262, 299.024 261.833, 300.454 260.403 C 301.869 258.988, 302.009 255.010, 301.677 225.653 C 301.471 207.419, 300.791 189.374, 300.166 185.553 C 295.029 154.140, 272.537 131.395, 242.284 127.020 C 233.745 125.786, 230.241 125.861, 221.500 127.466 M 518.612 128.250 C 517.823 129.488, 503.302 158.287, 486.343 192.250 L 455.508 254 440.325 254 C 427.856 254, 424.862 254.281, 423.571 255.571 C 421.595 257.548, 421.598 258.455, 423.585 260.442 C 424.978 261.835, 429.159 261.995, 458.226 261.763 C 488.452 261.523, 491.377 261.350, 492.386 259.750 C 493.190 258.476, 493.190 257.524, 492.389 256.250 C 491.457 254.768, 489.214 254.423, 477.765 254 L 464.241 253.500 492.996 196.003 L 521.750 138.507 550.375 195.750 C 566.119 227.234, 579 253.220, 579 253.497 C 579 253.773, 573.345 254, 566.434 254 C 553.276 254, 550 254.797, 550 258 C 550 261.750, 552.791 262.037, 586.601 261.764 C 616.469 261.523, 619.378 261.349, 620.386 259.750 C 621.190 258.475, 621.191 257.525, 620.387 256.250 C 619.427 254.726, 617.268 254.465, 603.631 254.225 L 587.978 253.949 556.370 190.725 C 538.986 155.951, 524.254 127.169, 523.631 126.765 C 521.647 125.476, 520.086 125.938, 518.612 128.250 M 218.645 135.584 C 198.761 140.397, 180.825 158.334, 175.585 178.644 C 174.287 183.676, 174 191.058, 174 219.394 L 174 254 234.107 254 L 294.215 254 293.751 220.250 C 293.333 189.884, 293.074 185.716, 291.168 178.686 C 288.132 167.489, 283.569 159.565, 275.459 151.405 C 267.744 143.643, 258.243 138.236, 247.540 135.515 C 240.213 133.653, 226.488 133.685, 218.645 135.584 M 359.571 159.571 C 358.288 160.855, 358 163.788, 358 175.571 L 358 190 343.571 190 C 331.788 190, 328.855 190.288, 327.571 191.571 C 325.598 193.545, 325.598 194.455, 327.571 196.429 C 328.855 197.712, 331.788 198, 343.571 198 L 358 198 358 212.429 C 358 224.212, 358.288 227.145, 359.571 228.429 C 361.678 230.535, 362.598 230.412, 364.443 227.777 C 365.669 226.028, 366 222.631, 366 211.804 L 366 198.053 380.643 197.777 C 393.314 197.537, 395.433 197.264, 396.387 195.750 C 397.191 194.475, 397.191 193.525, 396.387 192.250 C 395.433 190.736, 393.314 190.463, 380.643 190.223 L 366 189.947 366 176.196 C 366 165.369, 365.669 161.972, 364.443 160.223 C 362.598 157.588, 361.678 157.465, 359.571 159.571 " stroke="none" fill="black" fill-rule="evenodd"/>
</svg>