<svg xmlns="http://www.w3.org/2000/svg" width="403" height="324" viewBox="0 0 403 324" version="1.1">
	<path d="M 39.230 159.285 L 6 192.569 6 225.713 C 6 254.511, 6.206 259.063, 7.571 260.429 C 8.968 261.825, 16.372 262, 74 262 C 131.628 262, 139.032 261.825, 140.429 260.429 C 141.794 259.063, 142 254.509, 142 225.695 L 142 192.533 108.733 159.267 C 90.437 140.970, 74.790 126, 73.963 126 C 73.136 126, 57.506 140.978, 39.230 159.285 M 295.750 127.080 C 294.207 127.979, 294 129.866, 294 143.050 L 294 158 279.934 158 C 265.308 158, 262 158.738, 262 162 C 262 165.262, 265.308 166, 279.934 166 L 294 166 294 194 L 294 222 279.934 222 C 265.308 222, 262 222.738, 262 226 C 262 229.262, 265.308 230, 279.934 230 L 294 230 294 244.965 C 294 259.061, 294.120 259.994, 296.064 261.034 C 300.316 263.310, 301 261.071, 301 244.878 L 301 230 329.500 230 L 358 230 358 244.878 C 358 257.232, 358.269 259.978, 359.584 261.070 C 360.732 262.023, 361.626 262.095, 362.834 261.334 C 364.248 260.444, 364.542 257.994, 364.776 245.168 L 365.052 230.052 380.168 229.776 C 393.293 229.536, 395.430 229.269, 396.387 227.750 C 397.191 226.475, 397.191 225.525, 396.387 224.250 C 395.430 222.730, 393.291 222.464, 380.142 222.224 L 365 221.948 365 194 L 365 166.052 380.142 165.776 C 393.291 165.536, 395.430 165.270, 396.387 163.750 C 397.191 162.475, 397.191 161.525, 396.387 160.250 C 395.430 158.731, 393.293 158.464, 380.168 158.224 L 365.052 157.948 364.776 142.832 C 364.542 130.006, 364.248 127.556, 362.834 126.666 C 361.626 125.905, 360.732 125.977, 359.584 126.930 C 358.269 128.022, 358 130.768, 358 143.122 L 358 158 329.500 158 L 301 158 301 143.200 C 301 126.584, 300.299 124.431, 295.750 127.080 M 43.744 165.756 L 14 195.512 14 224.756 L 14 254 74 254 L 134 254 134 224.744 L 134 195.487 104.244 165.744 C 87.878 149.385, 74.263 136, 73.988 136 C 73.713 136, 60.103 149.390, 43.744 165.756 M 194.355 158.986 C 187.468 160.438, 180.601 164.562, 175.165 170.510 C 159.280 187.891, 165.468 215.587, 187.480 225.629 C 195.345 229.217, 205.738 229.407, 214.188 226.117 C 221.267 223.361, 228.811 216.362, 232.639 209 C 235.231 204.014, 235.497 202.565, 235.488 193.500 C 235.475 181.373, 233.424 176.287, 225.342 168.339 C 217.368 160.498, 204.953 156.751, 194.355 158.986 M 191.885 167.380 C 173.769 173.854, 167.842 196.856, 180.447 211.770 C 187.835 220.510, 201.687 223.579, 212.145 218.791 C 218.380 215.937, 223.173 211.473, 226.271 205.634 C 229.395 199.749, 229.395 187.251, 226.271 181.366 C 219.681 168.947, 204.630 162.825, 191.885 167.380 M 301 194 L 301 222 329.500 222 L 358 222 358 194 L 358 166 329.500 166 L 301 166 301 194 M 199.750 191.080 C 197.372 192.465, 197.542 195.685, 200.064 197.034 C 203.753 199.008, 206.819 194.219, 203.800 191.200 C 202.367 189.767, 202.022 189.757, 199.750 191.080 " stroke="none" fill="black" fill-rule="evenodd"/>
</svg>