<svg xmlns="http://www.w3.org/2000/svg" width="403" height="324" viewBox="0 0 403 324" version="1.1">
	<path d="M 391.974 127.011 C 391.163 127.473, 375.878 157.136, 358.006 192.927 C 331.224 246.562, 325.705 258.309, 326.614 259.751 C 327.622 261.349, 330.537 261.523, 360.399 261.764 C 381.792 261.936, 393.757 261.665, 395.040 260.979 C 397.551 259.635, 397.565 256.373, 395.066 255.035 C 393.862 254.391, 382.344 254, 364.566 254 C 348.855 254, 336 253.774, 336 253.497 C 336 253.220, 349.725 225.546, 366.500 192 C 383.275 158.454, 397 130.346, 397 129.538 C 397 127.563, 393.814 125.961, 391.974 127.011 M 192.320 175.054 C 185.292 176.288, 176.676 180.235, 170.336 185.127 C 164.675 189.494, 163.128 192.245, 165.040 194.548 C 166.867 196.750, 168.629 196.323, 172.747 192.681 C 181.840 184.640, 190.586 181.592, 202.878 182.180 C 214.634 182.742, 222.226 186.275, 231.159 195.340 C 245.573 209.969, 266.185 213.640, 284.943 204.920 C 297.276 199.186, 302.761 192.747, 297.903 189.704 C 296.674 188.934, 295.052 189.651, 290.858 192.818 C 282.615 199.041, 276.754 201.285, 267.409 201.793 C 254.100 202.518, 243.651 198.491, 236.054 189.708 C 226.562 178.735, 207.583 172.375, 192.320 175.054 M 39.267 223.267 C 20.970 241.563, 6 257.056, 6 257.695 C 6 259.187, 8.799 262, 10.285 262 C 10.913 262, 25.509 247.944, 42.721 230.764 L 74.015 199.527 105.374 230.874 C 131.966 257.456, 137.056 262.117, 138.866 261.543 C 140.040 261.170, 141.023 260.333, 141.050 259.683 C 141.078 259.032, 141.056 243.670, 141.001 225.544 C 140.906 193.944, 140.568 190, 137.949 190 C 137.506 190, 136.436 190.707, 135.571 191.571 C 134.218 192.925, 134 197.015, 134 221.072 L 134 249.002 104.750 219.475 C 88.662 203.236, 74.832 189.960, 74.017 189.974 C 73.201 189.988, 57.563 204.970, 39.267 223.267 " stroke="none" fill="black" fill-rule="evenodd"/>
</svg>