<svg xmlns="http://www.w3.org/2000/svg" width="500" height="324" viewBox="0 0 500 324" version="1.1">
	<path d="M 55.750 63.080 C 54.186 63.991, 54 66.007, 54 82.015 C 54 98.703, 54.132 100, 55.934 100.965 C 57.043 101.558, 64.905 102, 74.363 102 C 88.024 102, 91.127 101.730, 92.429 100.429 C 94.757 98.100, 94.757 65.900, 92.429 63.571 C 91.123 62.266, 88.036 62.005, 74.179 62.030 C 64.720 62.048, 56.742 62.502, 55.750 63.080 M 62 82 L 62 94 74 94 L 86 94 86 82 L 86 70 74 70 L 62 70 62 82 M 71.571 127.571 C 70.212 128.931, 70 133.242, 70 159.571 L 70 190 39.571 190 C 13.242 190, 8.931 190.212, 7.571 191.571 C 5.598 193.545, 5.598 194.455, 7.571 196.429 C 8.931 197.788, 13.242 198, 39.571 198 L 70 198 70 228.429 C 70 254.758, 70.212 259.069, 71.571 260.429 C 72.436 261.293, 73.529 262, 74 262 C 74.471 262, 75.564 261.293, 76.429 260.429 C 77.788 259.069, 78 254.759, 78 228.443 L 78 198.029 108.641 197.764 C 136.566 197.523, 139.381 197.345, 140.386 195.750 C 141.191 194.474, 141.191 193.526, 140.386 192.250 C 139.381 190.655, 136.566 190.477, 108.641 190.236 L 78 189.971 78 159.557 C 78 133.241, 77.788 128.931, 76.429 127.571 C 75.564 126.707, 74.471 126, 74 126 C 73.529 126, 72.436 126.707, 71.571 127.571 M 290.801 126.991 C 278.924 129.086, 267.849 139.031, 263.974 151.080 C 261.830 157.748, 261.732 158.949, 262.763 165.917 C 265.339 183.326, 273.441 203.786, 284.019 219.593 C 291.259 230.412, 308.331 247.215, 319.816 254.826 C 324.939 258.222, 329.513 261, 329.981 261 C 330.448 261, 331.881 260.096, 333.165 258.992 C 334.449 257.887, 339.100 254.354, 343.500 251.140 C 367.700 233.464, 385.283 207.653, 392.984 178.500 C 396.053 166.880, 396.583 158.518, 394.667 151.928 C 387.098 125.890, 354.685 117.820, 336.213 137.374 C 333.550 140.193, 330.812 143.400, 330.128 144.500 C 329.323 145.795, 328.706 146.081, 328.379 145.312 C 328.102 144.658, 326.357 142.136, 324.503 139.708 C 317.062 129.963, 303.329 124.781, 290.801 126.991 M 439.239 143.260 C 429.758 152.754, 422 161.288, 422 162.225 C 422 163.163, 422.959 164.443, 424.131 165.070 C 426.073 166.110, 427.495 164.981, 440.131 152.369 L 454 138.527 454 199.228 C 454 259.533, 454.013 259.937, 456.064 261.034 C 461.059 263.708, 461 264.453, 461 199.174 L 461 138.592 474.913 152.378 C 487.463 164.813, 489.030 166.054, 490.913 165.047 C 492.061 164.432, 493 163.153, 493 162.204 C 493 160.410, 459.239 126, 457.479 126 C 456.929 126, 448.721 133.767, 439.239 143.260 M 287.885 135.380 C 277.179 139.205, 269.857 149.373, 269.857 160.413 C 269.857 167.041, 273.008 180.497, 276.952 190.707 C 285.498 212.833, 302.391 234.172, 321.931 247.523 L 328.956 252.323 335.996 247.642 C 363.206 229.548, 383.795 196.707, 388.528 163.847 C 390.726 148.586, 377.260 134.001, 361 134.032 C 346.574 134.059, 335.738 143.976, 333.481 159.218 C 332.632 164.952, 330.900 166.731, 327.620 165.237 C 325.782 164.399, 325.175 163.122, 324.697 159.091 C 323.449 148.550, 317.871 140.712, 308.521 136.358 C 302.783 133.685, 293.815 133.260, 287.885 135.380 M 194.355 158.986 C 183.790 161.214, 174.114 169.146, 169.329 179.500 C 165.374 188.059, 165.386 198.895, 169.361 207.610 C 172.863 215.289, 179.690 222.075, 187.492 225.635 C 192.376 227.863, 194.873 228.359, 200.992 228.319 C 211.272 228.252, 218.505 225.383, 225.342 218.661 C 233.431 210.707, 235.477 205.626, 235.477 193.500 C 235.477 181.374, 233.431 176.293, 225.342 168.339 C 217.368 160.498, 204.953 156.751, 194.355 158.986 M 191.627 167.468 C 186.247 169.386, 181.039 173.829, 177.500 179.519 C 173.527 185.908, 172.712 197.311, 175.741 204.129 C 180.446 214.717, 188.286 220.123, 199.883 220.774 C 206.995 221.173, 207.931 220.978, 214 217.830 C 224.444 212.411, 229.773 202.629, 228.713 190.821 C 227.772 180.346, 220.582 170.975, 210.684 167.326 C 206.327 165.720, 196.323 165.794, 191.627 167.468 M 199.616 191.527 C 198.727 192.416, 198 193.529, 198 194 C 198 195.389, 201.140 198.120, 202.295 197.735 C 204.395 197.035, 205.549 194.094, 204.423 192.310 C 202.905 189.902, 201.474 189.669, 199.616 191.527 " stroke="none" fill="black" fill-rule="evenodd"/>
</svg>