<svg xmlns="http://www.w3.org/2000/svg" width="595" height="324" viewBox="0 0 595 324" version="1.1">
	<path d="M 40.372 62.765 C 38.418 64.037, 22.003 97.844, 22.593 99.381 C 23.268 101.141, 25.513 102.124, 27.295 101.440 C 28.007 101.167, 31.480 95.106, 35.014 87.972 C 38.547 80.837, 41.691 75, 42 75 C 42.309 75, 45.453 80.837, 48.986 87.972 C 52.520 95.106, 55.993 101.167, 56.705 101.440 C 58.487 102.124, 60.732 101.141, 61.407 99.381 C 61.716 98.575, 58.096 90.173, 53.363 80.708 C 45.638 65.261, 43.672 62.031, 42 62.031 C 41.725 62.031, 40.992 62.361, 40.372 62.765 M 33.384 159.357 C 15.361 163.923, 3.562 181.820, 6.987 199.396 C 10.713 218.519, 28.557 231.395, 46.698 228.051 C 69.327 223.881, 81.966 201.817, 73.934 180.507 C 68.097 165.023, 49.437 155.290, 33.384 159.357 M 31.054 167.728 C 25.018 169.859, 17.781 177.260, 15.667 183.463 C 11.995 194.241, 14.382 205.477, 21.952 213.048 C 35.282 226.377, 58.301 222.474, 66.465 205.500 C 69.166 199.886, 69.632 190.420, 67.522 184.067 C 65.251 177.229, 58.125 169.912, 51.556 167.674 C 45.518 165.616, 36.970 165.639, 31.054 167.728 M 288.320 175.054 C 281.292 176.288, 272.676 180.235, 266.336 185.127 C 260.675 189.494, 259.128 192.245, 261.040 194.548 C 262.922 196.816, 264.513 196.317, 269.689 191.835 C 272.335 189.545, 276.975 186.515, 280 185.102 C 284.848 182.838, 286.804 182.532, 296.500 182.517 C 306.756 182.501, 307.944 182.711, 314.072 185.614 C 318.471 187.699, 322.768 190.877, 327.072 195.230 C 338.304 206.591, 352.429 211.388, 367.614 208.998 C 379.858 207.072, 396.513 197.467, 395.805 192.740 C 395.161 188.438, 392.629 188.460, 386.858 192.818 C 378.615 199.041, 372.754 201.285, 363.409 201.793 C 350.100 202.518, 339.651 198.491, 332.054 189.708 C 322.562 178.735, 303.583 172.375, 288.320 175.054 M 103.579 191.564 C 101.598 193.545, 101.596 194.454, 103.571 196.429 C 104.844 197.701, 107.697 198, 118.575 198 L 132.006 198 117.020 227.961 C 108.777 244.439, 102.285 258.580, 102.594 259.384 C 103.451 261.617, 106.104 262.217, 107.895 260.584 C 108.778 259.779, 115.794 246.493, 123.486 231.060 C 131.178 215.627, 137.716 203, 138.015 203 C 138.314 203, 145.071 216.093, 153.030 232.095 C 160.988 248.098, 167.842 261.402, 168.259 261.660 C 170.839 263.255, 173.516 259.019, 186.996 232.009 C 194.958 216.054, 201.704 203.018, 201.986 203.039 C 202.269 203.061, 208.789 215.924, 216.476 231.625 C 224.200 247.401, 231.274 260.611, 232.290 261.155 C 234.536 262.357, 237 260.639, 237 257.871 C 237 256.835, 230.480 242.952, 222.511 227.021 L 208.021 198.056 221.653 197.778 C 233.361 197.539, 235.441 197.253, 236.388 195.750 C 237.191 194.475, 237.190 193.525, 236.386 192.250 C 235.356 190.617, 230.934 190.483, 170.220 190.243 C 112.058 190.013, 104.990 190.153, 103.579 191.564 M 479.531 191.056 C 451.788 195.364, 429.240 216.484, 423.511 243.529 C 421.307 253.937, 421.504 259.664, 424.117 261.062 C 427.374 262.806, 428.575 260.650, 429.916 250.650 C 431.337 240.057, 433.756 233.223, 438.871 225.354 C 446.142 214.167, 455.851 206.294, 468.500 201.329 C 474.833 198.843, 476.739 198.577, 488.500 198.540 C 499.626 198.506, 502.484 198.840, 508.326 200.857 C 522.402 205.717, 535.427 216.978, 541.971 229.945 C 544.322 234.601, 548 244.957, 548 246.917 C 548 247.222, 542.209 241.693, 535.131 234.630 C 523.421 222.947, 522.069 221.892, 520.131 222.930 C 518.959 223.557, 518 224.825, 518 225.747 C 518 227.465, 549.046 259.753, 552.310 261.430 C 553.820 262.205, 557.011 259.471, 571.560 244.940 C 581.152 235.360, 589 226.745, 589 225.796 C 589 224.847, 588.060 223.567, 586.911 222.952 C 585.025 221.943, 583.428 223.216, 570.468 236.067 C 556.329 250.084, 556.104 250.255, 555.501 247.399 C 550.665 224.476, 538.187 207.357, 519.500 198.007 C 506.523 191.514, 492.400 189.058, 479.531 191.056 M 156.743 223.500 C 163.750 237.525, 169.715 249, 170 249 C 170.285 249, 176.250 237.525, 183.257 223.500 L 195.995 198 170 198 L 144.005 198 156.743 223.500 M 263.750 255.076 C 261.417 256.440, 261.526 259.676, 263.948 260.972 C 265.256 261.672, 287.132 261.930, 330.589 261.757 C 390.951 261.517, 395.356 261.383, 396.386 259.750 C 397.191 258.474, 397.191 257.526, 396.386 256.250 C 395.356 254.616, 390.963 254.485, 330.391 254.276 C 287.547 254.129, 264.905 254.400, 263.750 255.076 " stroke="none" fill="black" fill-rule="evenodd"/>
</svg>