<svg xmlns="http://www.w3.org/2000/svg" width="308" height="324" viewBox="0 0 308 324" version="1.1">
	<path d="M 215.750 63.080 C 214.787 63.641, 214 64.757, 214 65.561 C 214 68.099, 230.980 101.055, 232.610 101.680 C 235.036 102.612, 236.943 99.736, 245.508 82.232 C 251.940 69.086, 253.258 65.632, 252.375 64.232 C 249.785 60.127, 247.676 62.156, 241 75.174 C 237.425 82.145, 234.168 88.177, 233.763 88.578 C 233.358 88.979, 230.511 83.950, 227.437 77.403 C 222.256 66.370, 219.573 61.955, 218.095 62.030 C 217.768 62.047, 216.713 62.519, 215.750 63.080 M 7.571 127.571 C 6.175 128.968, 6 136.372, 6 194 C 6 251.628, 6.175 259.032, 7.571 260.429 C 8.968 261.825, 16.343 261.998, 73.821 261.985 C 109.395 261.976, 139.072 261.606, 139.772 261.162 C 141.639 259.977, 141.639 128.023, 139.772 126.838 C 139.072 126.394, 109.395 126.024, 73.821 126.015 C 16.343 126.002, 8.968 126.175, 7.571 127.571 M 231.200 127.200 C 230.292 128.108, 230 143.689, 230 191.200 L 230 254 199.934 254 C 181.122 254, 169.145 254.387, 167.934 255.035 C 165.440 256.370, 165.448 259.634, 167.948 260.972 C 169.256 261.672, 191.132 261.930, 234.589 261.757 C 294.951 261.517, 299.356 261.383, 300.386 259.750 C 301.191 258.474, 301.191 257.526, 300.386 256.250 C 299.380 254.654, 296.542 254.477, 268.141 254.236 L 237 253.972 237 225.986 L 237 198 267.800 198 C 290.422 198, 298.919 197.681, 299.800 196.800 C 301.519 195.081, 301.519 128.919, 299.800 127.200 C 298.082 125.482, 232.918 125.482, 231.200 127.200 M 14 194 L 14 254 74 254 L 134 254 134 194 L 134 134 74 134 L 14 134 14 194 M 237 162 L 237 190 265.500 190 L 294 190 294 162 L 294 134 265.500 134 L 237 134 237 162 M 71.571 191.571 C 70.707 192.436, 70 193.529, 70 194 C 70 194.471, 70.707 195.564, 71.571 196.429 C 72.436 197.293, 73.529 198, 74 198 C 74.471 198, 75.564 197.293, 76.429 196.429 C 77.293 195.564, 78 194.471, 78 194 C 78 193.529, 77.293 192.436, 76.429 191.571 C 75.564 190.707, 74.471 190, 74 190 C 73.529 190, 72.436 190.707, 71.571 191.571 " stroke="none" fill="black" fill-rule="evenodd"/>
</svg>