<svg xmlns="http://www.w3.org/2000/svg" width="308" height="324" viewBox="0 0 308 324" version="1.1">
	<path d="M 35.045 127.093 C 19.653 130.109, 7.403 143.868, 6.912 158.693 C 6.728 164.229, 10.436 179.602, 14.976 192.133 C 18.625 202.201, 26.072 215.584, 33.544 225.500 C 47.151 243.557, 74.242 264.271, 77.454 259.074 C 77.769 258.565, 81.706 255.570, 86.203 252.418 C 112.393 234.066, 132.136 203.704, 138.590 171.852 C 140.892 160.493, 140.145 152.929, 135.945 145.049 C 123.451 121.607, 90.230 120.276, 76.014 142.647 L 73.379 146.793 70.597 142.395 C 63.309 130.875, 48.429 124.470, 35.045 127.093 M 223.531 127.067 C 195.490 131.370, 173.314 152.437, 167.589 180.208 C 165.337 191.134, 165.478 195.650, 168.117 197.062 C 171.328 198.781, 172.564 196.672, 173.826 187.325 C 175.872 172.175, 181.179 161.129, 191.150 151.273 C 202.781 139.776, 213.521 135.078, 230.012 134.275 C 248.015 133.398, 262.694 138.864, 275.044 151.043 C 285.300 161.158, 292.919 178.645, 292.983 192.215 C 293.002 196.428, 295.359 198.498, 298.276 196.866 C 302.145 194.700, 299.123 176.104, 292.856 163.512 C 280.197 138.075, 251.184 122.823, 223.531 127.067 M 31.748 135.427 C 23.846 138.247, 15.822 147.101, 14.426 154.541 C 13.596 158.967, 16.454 173.491, 20.617 186 C 28.807 210.611, 45.624 232.964, 66.868 247.480 L 73.830 252.237 81.502 246.934 C 106.738 229.488, 125.548 200.517, 131.584 169.798 C 133.614 159.468, 133.025 154.372, 128.987 147.302 C 125.914 141.920, 120.154 137.222, 114.101 135.159 C 108.929 133.396, 99.123 133.761, 94.435 135.890 C 85.573 139.915, 78 150.092, 78 157.974 C 78 161.875, 75.695 166, 73.515 166 C 71.013 166, 69 162.918, 69 159.088 C 69 154.001, 63.752 143.766, 59.235 140.042 C 52.354 134.370, 40.355 132.355, 31.748 135.427 M 215.724 159.134 C 214.161 160.009, 214 162.521, 214 186.015 C 214 209.816, 214.145 212.007, 215.776 212.880 C 216.902 213.483, 218.182 213.478, 219.276 212.866 C 220.839 211.991, 221 209.479, 221 185.985 C 221 162.184, 220.855 159.993, 219.224 159.120 C 218.098 158.517, 216.818 158.522, 215.724 159.134 M 247.724 159.134 C 246.161 160.009, 246 162.521, 246 186.015 C 246 209.816, 246.145 212.007, 247.776 212.880 C 248.902 213.483, 250.182 213.478, 251.276 212.866 C 252.839 211.991, 253 209.479, 253 185.985 C 253 162.184, 252.855 159.993, 251.224 159.120 C 250.098 158.517, 248.818 158.522, 247.724 159.134 M 215.724 222.134 C 211.838 224.309, 215.294 229.983, 219.224 227.880 C 220.201 227.357, 221 226.061, 221 225 C 221 222.485, 218.005 220.858, 215.724 222.134 M 247.724 222.134 C 243.838 224.309, 247.294 229.983, 251.224 227.880 C 252.201 227.357, 253 226.061, 253 225 C 253 222.485, 250.005 220.858, 247.724 222.134 " stroke="none" fill="black" fill-rule="evenodd"/>
</svg>