<svg xmlns="http://www.w3.org/2000/svg" width="403" height="324" viewBox="0 0 403 324" version="1.1">
	<path d="M 39.571 127.571 C 38.176 128.966, 38 136.152, 38 191.571 L 38 254 23.571 254 C 11.788 254, 8.855 254.288, 7.571 255.571 C 5.595 257.548, 5.598 258.455, 7.585 260.442 C 8.978 261.835, 13.159 261.995, 42.226 261.763 C 72.452 261.523, 75.377 261.350, 76.386 259.750 C 77.190 258.475, 77.191 257.525, 76.387 256.250 C 75.433 254.736, 73.314 254.463, 60.643 254.223 L 46 253.947 46 191.545 C 46 136.149, 45.824 128.966, 44.429 127.571 C 43.564 126.707, 42.471 126, 42 126 C 41.529 126, 40.436 126.707, 39.571 127.571 M 131.434 126.889 C 117.397 129.293, 104.809 142.257, 102.514 156.673 C 101.197 164.953, 106.514 185.758, 114.071 201.889 C 124.400 223.939, 143.148 244.833, 163.930 257.458 C 169.330 260.738, 170.305 261.028, 171.943 259.846 C 172.969 259.106, 176.843 256.331, 180.551 253.681 C 204.273 236.726, 220.443 215.435, 229.851 188.765 C 237.046 168.372, 237.650 155.753, 231.945 145.049 C 223.110 128.473, 202.315 121.677, 185.959 130.021 C 180.476 132.818, 172.556 140.243, 170.970 144.073 L 169.728 147.070 166.429 142.170 C 158.769 130.796, 144.643 124.628, 131.434 126.889 M 319.531 127.056 C 291.373 131.428, 268.733 152.985, 263.484 180.421 C 261.356 191.540, 261.513 195.669, 264.117 197.062 C 267.328 198.781, 268.564 196.672, 269.826 187.325 C 273.051 163.435, 286.629 145.983, 308.803 137.225 C 314.803 134.856, 316.853 134.576, 328.500 134.540 C 339.626 134.506, 342.484 134.840, 348.326 136.857 C 357.442 140.004, 368.960 147.864, 374.660 154.828 C 382.771 164.737, 388.929 180.812, 388.983 192.215 C 389.002 196.428, 391.359 198.498, 394.276 196.866 C 398.091 194.731, 395.123 176.088, 388.982 163.615 C 376.499 138.258, 347.089 122.777, 319.531 127.056 M 127.627 135.468 C 118.721 138.643, 111.076 148.151, 110.214 157.125 C 108.862 171.200, 117.386 196.150, 130.158 215.500 C 136.596 225.254, 151.937 240.758, 161.744 247.422 C 170.069 253.080, 169.148 253.210, 180.395 244.787 C 204.137 227.007, 220.548 201.296, 227.173 171.500 C 229.445 161.281, 229.149 155.173, 226.094 149.184 C 218.321 133.948, 198.158 129.134, 184.797 139.325 C 179.118 143.656, 175.172 150.296, 174.001 157.492 C 172.915 164.168, 171.212 166.519, 168.163 165.552 C 165.920 164.840, 165.477 163.789, 164.560 156.995 C 163.285 147.558, 155.516 138.368, 146.101 135.159 C 141.559 133.611, 132.409 133.764, 127.627 135.468 M 311.750 159.080 C 310.155 160.009, 310 162.388, 310 186.015 C 310 211.174, 310.060 211.962, 312.064 213.034 C 313.596 213.854, 314.498 213.832, 315.564 212.947 C 316.744 211.968, 317 207.174, 317 186.078 C 317 157.906, 316.671 156.214, 311.750 159.080 M 343.750 159.080 C 342.155 160.009, 342 162.388, 342 186.015 C 342 211.174, 342.060 211.962, 344.064 213.034 C 345.596 213.854, 346.498 213.832, 347.564 212.947 C 348.744 211.968, 349 207.174, 349 186.078 C 349 157.906, 348.671 156.214, 343.750 159.080 M 311.750 222.080 C 309.372 223.465, 309.542 226.685, 312.064 228.034 C 315.753 230.008, 318.819 225.219, 315.800 222.200 C 314.367 220.767, 314.022 220.757, 311.750 222.080 M 343.750 222.080 C 341.372 223.465, 341.542 226.685, 344.064 228.034 C 347.753 230.008, 350.819 225.219, 347.800 222.200 C 346.367 220.767, 346.022 220.757, 343.750 222.080 " stroke="none" fill="black" fill-rule="evenodd"/>
</svg>