<svg xmlns="http://www.w3.org/2000/svg" width="468" height="324" viewBox="0 0 468 324" version="1.1">
	<path d="M 7.200 127.200 C 5.465 128.935, 5.465 259.065, 7.200 260.800 C 8.935 262.535, 139.065 262.535, 140.800 260.800 C 142.535 259.065, 142.535 128.935, 140.800 127.200 C 139.065 125.465, 8.935 125.465, 7.200 127.200 M 265.477 157.039 L 234.380 188.078 232.441 185.935 C 227.831 180.841, 215.722 175.744, 205.377 174.544 C 192.896 173.095, 176.564 178.700, 168.154 187.318 C 164.351 191.215, 163.949 192.036, 164.939 193.886 C 166.553 196.901, 168.686 196.517, 173.255 192.388 C 175.454 190.402, 180.234 187.364, 183.877 185.638 C 189.993 182.740, 191.304 182.500, 201 182.500 C 210.683 182.500, 212.006 182.742, 218 185.605 C 221.575 187.312, 225.625 189.649, 227 190.797 L 229.500 192.884 197.750 224.728 C 180.287 242.242, 166 257.086, 166 257.715 C 166 259.191, 168.809 262, 170.285 262 C 170.914 262, 185.622 247.831, 202.970 230.514 L 234.512 199.029 239.006 202.011 C 252.269 210.812, 270.940 211.949, 285.793 204.860 C 293.362 201.248, 301.345 194.064, 300.433 191.685 C 299.201 188.476, 296.172 188.725, 291.681 192.406 C 289.304 194.353, 284.692 197.195, 281.430 198.723 C 276.127 201.206, 274.389 201.500, 265 201.500 C 254.294 201.500, 249.613 200.240, 242.126 195.344 C 239.755 193.793, 239.802 193.740, 270.876 162.609 C 287.994 145.459, 302 130.913, 302 130.285 C 302 128.809, 299.191 126, 297.715 126 C 297.087 126, 282.580 139.968, 265.477 157.039 M 359.571 127.571 C 358.288 128.855, 358 131.788, 358 143.571 L 358 158 343.571 158 C 331.788 158, 328.855 158.288, 327.571 159.571 C 325.598 161.545, 325.598 162.455, 327.571 164.429 C 328.855 165.712, 331.788 166, 343.571 166 L 358 166 358 194 L 358 222 343.571 222 C 331.788 222, 328.855 222.288, 327.571 223.571 C 326.707 224.436, 326 225.529, 326 226 C 326 226.471, 326.707 227.564, 327.571 228.429 C 328.855 229.712, 331.788 230, 343.571 230 L 358 230 358 244.429 C 358 256.212, 358.288 259.145, 359.571 260.429 C 360.436 261.293, 361.529 262, 362 262 C 362.471 262, 363.564 261.293, 364.429 260.429 C 365.712 259.145, 366 256.212, 366 244.429 L 366 230 394 230 L 422 230 422 244.429 C 422 256.212, 422.288 259.145, 423.571 260.429 C 425.545 262.402, 426.455 262.402, 428.429 260.429 C 429.712 259.145, 430 256.212, 430 244.429 L 430 230 444.429 230 C 456.212 230, 459.145 229.712, 460.429 228.429 C 461.293 227.564, 462 226.471, 462 226 C 462 225.529, 461.293 224.436, 460.429 223.571 C 459.145 222.288, 456.212 222, 444.429 222 L 430 222 430 194 L 430 166 444.429 166 C 456.212 166, 459.145 165.712, 460.429 164.429 C 462.402 162.455, 462.402 161.545, 460.429 159.571 C 459.145 158.288, 456.212 158, 444.429 158 L 430 158 430 143.571 C 430 131.788, 429.712 128.855, 428.429 127.571 C 426.455 125.598, 425.545 125.598, 423.571 127.571 C 422.288 128.855, 422 131.788, 422 143.571 L 422 158 394 158 L 366 158 366 143.571 C 366 131.788, 365.712 128.855, 364.429 127.571 C 363.564 126.707, 362.471 126, 362 126 C 361.529 126, 360.436 126.707, 359.571 127.571 M 14 194 L 14 254 42 254 L 70 254 70 194 L 70 134 42 134 L 14 134 14 194 M 78 194 L 78 254 106 254 L 134 254 134 194 L 134 134 106 134 L 78 134 78 194 M 366 194 L 366 222 394 222 L 422 222 422 194 L 422 166 394 166 L 366 166 366 194 M 39.571 191.571 C 38.707 192.436, 38 193.529, 38 194 C 38 195.111, 40.889 198, 42 198 C 43.111 198, 46 195.111, 46 194 C 46 192.889, 43.111 190, 42 190 C 41.529 190, 40.436 190.707, 39.571 191.571 M 103.571 191.571 C 102.707 192.436, 102 193.529, 102 194 C 102 194.471, 102.707 195.564, 103.571 196.429 C 104.436 197.293, 105.529 198, 106 198 C 106.471 198, 107.564 197.293, 108.429 196.429 C 109.293 195.564, 110 194.471, 110 194 C 110 193.529, 109.293 192.436, 108.429 191.571 C 107.564 190.707, 106.471 190, 106 190 C 105.529 190, 104.436 190.707, 103.571 191.571 " stroke="none" fill="black" fill-rule="evenodd"/>
</svg>