<svg xmlns="http://www.w3.org/2000/svg" width="308" height="324" viewBox="0 0 308 324" version="1.1">
	<path d="M 71.213 127.187 C 70.315 128.085, 70 136.394, 70 159.200 L 70 190 39.571 190 C 13.242 190, 8.931 190.212, 7.571 191.571 C 6.207 192.936, 6 197.463, 6 226 C 6 254.537, 6.207 259.064, 7.571 260.429 C 8.436 261.293, 9.529 262, 10 262 C 10.471 262, 11.564 261.293, 12.429 260.429 C 13.788 259.069, 14 254.758, 14 228.429 L 14 198 44.429 198 C 70.758 198, 75.069 197.788, 76.429 196.429 C 77.788 195.069, 78 190.759, 78 164.443 L 78 134.029 108.641 133.764 C 136.566 133.523, 139.381 133.345, 140.386 131.750 C 141.191 130.474, 141.191 129.526, 140.386 128.250 C 139.377 126.649, 136.434 126.478, 105.854 126.237 C 80.691 126.039, 72.126 126.274, 71.213 127.187 M 183.239 143.260 C 173.758 152.754, 166 161.288, 166 162.225 C 166 163.163, 166.959 164.443, 168.131 165.070 C 170.073 166.110, 171.495 164.981, 184.131 152.369 L 198 138.527 198 199.228 C 198 259.533, 198.013 259.937, 200.064 261.034 C 205.059 263.708, 205 264.453, 205 199.174 L 205 138.592 218.830 152.296 C 226.437 159.833, 233.132 166, 233.708 166 C 235.297 166, 237.208 163.291, 236.833 161.570 C 236.418 159.665, 203.028 126, 201.554 126 C 200.963 126, 192.721 133.767, 183.239 143.260 M 263.750 127.080 C 262.114 128.033, 262 132.044, 262 188.786 L 262 249.473 248.131 235.631 C 235.495 223.019, 234.073 221.890, 232.131 222.930 C 230.959 223.557, 230 224.847, 230 225.796 C 230 227.590, 263.761 262, 265.521 262 C 267.266 262, 301 227.556, 301 225.775 C 301 224.837, 300.061 223.568, 298.913 222.953 C 297.030 221.946, 295.463 223.187, 282.913 235.622 L 269 249.408 269 188.904 C 269 123.446, 269.047 123.995, 263.750 127.080 " stroke="none" fill="black" fill-rule="evenodd"/>
</svg>