<svg xmlns="http://www.w3.org/2000/svg" width="420" height="324" viewBox="0 0 420 324" version="1.1">
	<path d="M 55.571 63.571 C 53.243 65.900, 53.243 98.100, 55.571 100.429 C 57.900 102.757, 90.100 102.757, 92.429 100.429 C 94.757 98.100, 94.757 65.900, 92.429 63.571 C 90.100 61.243, 57.900 61.243, 55.571 63.571 M 62 82 L 62 94 74 94 L 86 94 86 82 L 86 70 74 70 L 62 70 62 82 M 72.357 126.765 C 70.385 128.033, 6.012 257.866, 6.598 259.394 C 7.264 261.130, 9.514 262.124, 11.262 261.453 C 11.956 261.187, 25.431 235.213, 41.206 203.734 L 69.888 146.500 69.944 200.250 L 70 254 55.571 254 C 43.788 254, 40.855 254.288, 39.571 255.571 C 37.598 257.545, 37.598 258.455, 39.571 260.429 C 40.936 261.793, 45.463 262, 74 262 C 102.537 262, 107.064 261.793, 108.429 260.429 C 109.293 259.564, 110 258.471, 110 258 C 110 257.529, 109.293 256.436, 108.429 255.571 C 107.145 254.288, 104.212 254, 92.429 254 L 78 254 78 191.571 C 78 136.152, 77.824 128.966, 76.429 127.571 C 74.679 125.822, 74.026 125.693, 72.357 126.765 M 135.571 127.571 C 134.707 128.436, 134 129.529, 134 130 C 134 130.471, 134.707 131.564, 135.571 132.429 C 136.436 133.293, 137.529 134, 138 134 C 138.471 134, 139.564 133.293, 140.429 132.429 C 141.293 131.564, 142 130.471, 142 130 C 142 129.529, 141.293 128.436, 140.429 127.571 C 139.564 126.707, 138.471 126, 138 126 C 137.529 126, 136.436 126.707, 135.571 127.571 M 343.571 127.571 C 342.207 128.936, 342 133.463, 342 162 C 342 190.537, 342.207 195.064, 343.571 196.429 C 344.936 197.793, 349.463 198, 378 198 C 406.537 198, 411.064 197.793, 412.429 196.429 C 414.402 194.455, 414.402 193.545, 412.429 191.571 C 411.069 190.212, 406.758 190, 380.429 190 L 350 190 350 159.571 C 350 133.242, 349.788 128.931, 348.429 127.571 C 347.564 126.707, 346.471 126, 346 126 C 345.529 126, 344.436 126.707, 343.571 127.571 M 135.571 159.571 C 134.207 160.936, 134 165.463, 134 194 C 134 222.537, 134.207 227.064, 135.571 228.429 C 137.545 230.402, 138.455 230.402, 140.429 228.429 C 141.793 227.064, 142 222.537, 142 194 C 142 165.463, 141.793 160.936, 140.429 159.571 C 139.564 158.707, 138.471 158, 138 158 C 137.529 158, 136.436 158.707, 135.571 159.571 M 295.571 159.571 C 294.707 160.436, 294 161.640, 294 162.249 C 294 162.857, 300.844 170.250, 309.208 178.677 L 324.416 194 309.208 209.323 C 300.844 217.750, 294 225.143, 294 225.751 C 294 227.200, 296.827 230, 298.290 230 C 299.969 230, 334 195.693, 334 194 C 334 192.307, 299.969 158, 298.290 158 C 297.659 158, 296.436 158.707, 295.571 159.571 M 135.571 255.571 C 134.707 256.436, 134 257.529, 134 258 C 134 259.111, 136.889 262, 138 262 C 139.111 262, 142 259.111, 142 258 C 142 256.889, 139.111 254, 138 254 C 137.529 254, 136.436 254.707, 135.571 255.571 M 167.571 255.571 C 166.707 256.436, 166 257.529, 166 258 C 166 258.471, 166.707 259.564, 167.571 260.429 C 168.936 261.793, 173.463 262, 202 262 C 230.537 262, 235.064 261.793, 236.429 260.429 C 237.293 259.564, 238 258.471, 238 258 C 238 257.529, 237.293 256.436, 236.429 255.571 C 235.064 254.207, 230.537 254, 202 254 C 173.463 254, 168.936 254.207, 167.571 255.571 M 263.571 255.571 C 262.707 256.436, 262 257.529, 262 258 C 262 258.471, 262.707 259.564, 263.571 260.429 C 264.436 261.293, 265.529 262, 266 262 C 266.471 262, 267.564 261.293, 268.429 260.429 C 269.293 259.564, 270 258.471, 270 258 C 270 257.529, 269.293 256.436, 268.429 255.571 C 267.564 254.707, 266.471 254, 266 254 C 265.529 254, 264.436 254.707, 263.571 255.571 " stroke="none" fill="black" fill-rule="evenodd"/>
</svg>