<svg xmlns="http://www.w3.org/2000/svg" width="308" height="324" viewBox="0 0 308 324" version="1.1">
	<path d="M 39.571 63.571 C 38.707 64.436, 38 65.529, 38 66 C 38 67.111, 40.889 70, 42 70 C 43.111 70, 46 67.111, 46 66 C 46 64.889, 43.111 62, 42 62 C 41.529 62, 40.436 62.707, 39.571 63.571 M 55.571 63.571 C 54.707 64.436, 54 65.317, 54 65.531 C 54 66.993, 71.421 100.653, 72.488 101.252 C 73.225 101.665, 74.440 101.768, 75.188 101.481 C 76.837 100.849, 93 68.755, 93 66.115 C 93 63.770, 90.710 61.790, 88.832 62.511 C 88.050 62.811, 84.520 68.894, 80.986 76.028 C 77.453 83.163, 74.306 89, 73.994 89 C 73.683 89, 70.969 83.984, 67.964 77.854 C 62.437 66.580, 59.559 62, 57.999 62 C 57.528 62, 56.436 62.707, 55.571 63.571 M 72.357 126.765 C 71.406 127.377, 6 257.165, 6 258.440 C 6 258.670, 6.707 259.564, 7.571 260.429 C 8.968 261.825, 16.372 262, 74 262 C 131.628 262, 139.032 261.825, 140.429 260.429 C 141.293 259.564, 142 258.663, 142 258.426 C 142 257.155, 76.584 127.384, 75.631 126.765 C 75.009 126.361, 74.275 126.031, 74 126.031 C 73.725 126.031, 72.986 126.361, 72.357 126.765 M 231.372 191.136 C 195.389 227.103, 166 257.255, 166 258.204 C 166 259.153, 166.962 260.445, 168.138 261.074 C 170.114 262.131, 175.242 257.253, 235.638 196.862 C 271.587 160.916, 301 130.733, 301 129.788 C 301 128.843, 300.042 127.558, 298.872 126.931 C 296.909 125.881, 291.653 130.881, 231.372 191.136 M 44.747 196.500 L 16.002 254 73.501 254 C 105.126 254, 131 253.786, 131 253.523 C 131 252.434, 74.624 139, 74.083 139 C 73.758 139, 60.557 164.875, 44.747 196.500 M 71.571 159.571 C 69.215 161.927, 69.215 210.073, 71.571 212.429 C 73.678 214.535, 74.598 214.412, 76.443 211.777 C 77.745 209.919, 78 205.701, 78 186 C 78 166.299, 77.745 162.081, 76.443 160.223 C 74.598 157.588, 73.678 157.465, 71.571 159.571 M 71.616 222.527 C 70.727 223.416, 70 224.529, 70 225 C 70 226.389, 73.140 229.120, 74.295 228.735 C 76.395 228.035, 77.549 225.094, 76.423 223.310 C 74.905 220.902, 73.474 220.669, 71.616 222.527 " stroke="none" fill="black" fill-rule="evenodd"/>
</svg>