<svg xmlns="http://www.w3.org/2000/svg" width="180" height="324" viewBox="0 0 180 324" version="1.1">
	<path d="M 39.571 127.571 C 38.176 128.966, 38 136.152, 38 191.571 L 38 254 23.571 254 C 11.788 254, 8.855 254.288, 7.571 255.571 C 5.598 257.545, 5.598 258.455, 7.571 260.429 C 8.936 261.793, 13.463 262, 42 262 C 70.537 262, 75.064 261.793, 76.429 260.429 C 77.293 259.564, 78 258.471, 78 258 C 78 257.529, 77.293 256.436, 76.429 255.571 C 75.145 254.288, 72.212 254, 60.429 254 L 46 254 46 191.571 C 46 136.152, 45.824 128.966, 44.429 127.571 C 43.564 126.707, 42.471 126, 42 126 C 41.529 126, 40.436 126.707, 39.571 127.571 M 103.571 127.571 C 102.707 128.436, 102 129.640, 102 130.249 C 102 130.857, 108.844 138.250, 117.208 146.677 L 132.416 162 117.208 177.323 C 108.844 185.750, 102 193.143, 102 193.751 C 102 196.313, 105.250 198, 110.188 198 L 115.233 198 111.502 202.130 C 105.343 208.947, 102.611 216.128, 102.611 225.500 C 102.611 232, 103.099 234.564, 105.216 239.175 C 112.211 254.415, 127.999 263.013, 143.458 260.001 C 170.983 254.638, 181.967 222.572, 163.340 201.955 L 159.767 198 165.312 198 C 170.753 198, 174 196.412, 174 193.751 C 174 193.143, 167.156 185.750, 158.792 177.323 L 143.584 162 158.792 146.677 C 167.156 138.250, 174 130.857, 174 130.249 C 174 128.819, 171.181 126, 169.751 126 C 169.143 126, 161.750 132.844, 153.323 141.208 L 138 156.416 122.677 141.208 C 114.250 132.844, 106.857 126, 106.249 126 C 105.640 126, 104.436 126.707, 103.571 127.571 M 126.500 179 L 115.534 190 138 190 L 160.466 190 149.500 179 C 143.469 172.950, 138.294 168, 138 168 C 137.706 168, 132.531 172.950, 126.500 179 M 128.453 199.326 C 113.492 205.091, 106.431 220.170, 111.597 235.329 C 113.470 240.829, 119.813 247.734, 125.500 250.467 C 131.100 253.158, 140.583 253.632, 146.895 251.535 C 152.800 249.574, 159.619 243.428, 162.467 237.500 C 165.171 231.874, 165.632 222.419, 163.514 216.042 C 161.290 209.346, 153.926 201.844, 147.392 199.618 C 141.928 197.756, 132.889 197.617, 128.453 199.326 M 135.571 223.571 C 134.707 224.436, 134 225.529, 134 226 C 134 226.471, 134.707 227.564, 135.571 228.429 C 136.436 229.293, 137.529 230, 138 230 C 138.471 230, 139.564 229.293, 140.429 228.429 C 141.293 227.564, 142 226.471, 142 226 C 142 225.529, 141.293 224.436, 140.429 223.571 C 139.564 222.707, 138.471 222, 138 222 C 137.529 222, 136.436 222.707, 135.571 223.571 " stroke="none" fill="black" fill-rule="evenodd"/>
</svg>