<svg xmlns="http://www.w3.org/2000/svg" width="148" height="324" viewBox="0 0 148 324" version="1.1">
	<path d="M 71.550 62.918 C 67.869 68.875, 54.190 98.331, 54.604 99.410 C 55.267 101.138, 57.522 102.121, 59.278 101.447 C 59.981 101.177, 63.522 95.005, 67.147 87.731 L 73.738 74.505 80.311 87.624 C 83.927 94.839, 87.643 101.033, 88.569 101.388 C 90.681 102.199, 93 100.355, 93 97.866 C 93 95.626, 77.264 63.831, 75.628 62.765 C 74.071 61.751, 72.229 61.820, 71.550 62.918 M 120.530 142 L 104.424 158 72.412 158 C 48.847 158, 40.083 158.317, 39.200 159.200 C 38.317 160.083, 38 168.847, 38 192.412 L 38 224.424 22 240.530 C 13.200 249.389, 6 257.137, 6 257.747 C 6 259.182, 8.818 262, 10.253 262 C 10.863 262, 18.611 254.800, 27.470 246 L 43.576 230 75.217 230 C 102.647 230, 107.066 229.791, 108.429 228.429 C 109.791 227.066, 110 222.659, 110 195.348 L 110 163.838 125.250 147.884 C 133.637 139.110, 140.650 131.249, 140.833 130.417 C 141.210 128.702, 139.291 126, 137.696 126 C 137.114 126, 129.389 133.200, 120.530 142 M 46 191.242 L 46 216.485 71 191.500 C 84.750 177.758, 96 166.399, 96 166.258 C 96 166.116, 84.750 166, 71 166 L 46 166 46 191.242 M 76.500 197 L 51.515 222 76.758 222 L 102 222 102 197 C 102 183.250, 101.884 172, 101.742 172 C 101.601 172, 90.242 183.250, 76.500 197 " stroke="none" fill="black" fill-rule="evenodd"/>
</svg>