<svg xmlns="http://www.w3.org/2000/svg" width="276" height="324" viewBox="0 0 276 324" version="1.1">
	<path d="M 33.384 127.412 C 15.480 131.757, 3.543 149.833, 6.993 167.372 C 7.651 170.715, 9.079 175.194, 10.166 177.325 C 12.765 182.419, 19.066 189.182, 23.377 191.503 L 26.824 193.360 22.662 196.005 C 14.442 201.228, 9.123 209.179, 7.014 219.396 C 4.201 233.027, 11.253 248.375, 23.673 255.654 C 28.824 258.673, 41.869 262.124, 44 261.032 C 44.825 260.609, 47.300 259.941, 49.500 259.548 C 58.256 257.981, 68.364 250.087, 72.834 241.325 C 80.896 225.522, 75.396 205.573, 60.338 196.005 L 56.176 193.360 59.623 191.503 C 63.934 189.182, 70.235 182.419, 72.834 177.325 C 83.106 157.191, 71.453 132.611, 49.147 127.360 C 42.397 125.772, 40.111 125.779, 33.384 127.412 M 119.282 143.282 C 109.777 152.787, 102 161.079, 102 161.710 C 102 163.173, 104.800 166, 106.249 166 C 106.857 166, 114.250 159.156, 122.677 150.792 L 138 135.584 153.323 150.792 C 161.750 159.156, 169.143 166, 169.751 166 C 171.200 166, 174 163.173, 174 161.710 C 174 160.031, 139.693 126, 138 126 C 137.210 126, 128.787 133.777, 119.282 143.282 M 31.054 135.728 C 25.018 137.859, 17.781 145.260, 15.667 151.463 C 10.058 167.925, 18.847 184.571, 35.250 188.550 L 38 189.217 38 161.608 C 38 140.146, 37.722 134.018, 36.750 134.079 C 36.063 134.122, 33.499 134.864, 31.054 135.728 M 46 161.500 L 46 189.135 48.250 188.475 C 61.167 184.686, 69 174.503, 69 161.500 C 69 148.497, 61.167 138.314, 48.250 134.525 L 46 133.865 46 161.500 M 232.370 190.765 C 230.401 192.045, 198.007 257.855, 198.594 259.384 C 199.265 261.133, 201.512 262.124, 203.274 261.448 C 203.975 261.180, 211.056 247.919, 219.010 231.980 C 226.964 216.041, 233.710 203, 234 203 C 234.290 203, 241.036 216.041, 248.990 231.980 C 256.944 247.919, 264.025 261.180, 264.726 261.448 C 266.488 262.124, 268.735 261.133, 269.406 259.384 C 269.993 257.855, 237.599 192.045, 235.630 190.765 C 235.009 190.361, 234.275 190.031, 234 190.031 C 233.725 190.031, 232.991 190.361, 232.370 190.765 M 31.054 199.728 C 25.018 201.859, 17.781 209.260, 15.667 215.463 C 10.058 231.925, 18.847 248.571, 35.250 252.550 L 38 253.217 38 225.608 C 38 204.146, 37.722 198.018, 36.750 198.079 C 36.063 198.122, 33.499 198.864, 31.054 199.728 M 46 225.500 L 46 253.135 48.250 252.475 C 61.167 248.686, 69 238.503, 69 225.500 C 69 212.497, 61.167 202.314, 48.250 198.525 L 46 197.865 46 225.500 M 103.571 223.571 C 102.707 224.436, 102 225.659, 102 226.290 C 102 227.969, 136.307 262, 138 262 C 139.693 262, 174 227.969, 174 226.290 C 174 224.827, 171.200 222, 169.751 222 C 169.143 222, 161.750 228.844, 153.323 237.208 L 138 252.416 122.677 237.208 C 114.250 228.844, 106.857 222, 106.249 222 C 105.640 222, 104.436 222.707, 103.571 223.571 " stroke="none" fill="black" fill-rule="evenodd"/>
</svg>