<svg xmlns="http://www.w3.org/2000/svg" width="468" height="324" viewBox="0 0 468 324" version="1.1">
	<path d="M 39.571 127.571 C 38.176 128.966, 38 136.152, 38 191.571 L 38 254 23.571 254 C 11.788 254, 8.855 254.288, 7.571 255.571 C 5.598 257.545, 5.598 258.455, 7.571 260.429 C 8.936 261.793, 13.463 262, 42 262 C 70.537 262, 75.064 261.793, 76.429 260.429 C 77.293 259.564, 78 258.471, 78 258 C 78 257.529, 77.293 256.436, 76.429 255.571 C 75.145 254.288, 72.212 254, 60.429 254 L 46 254 46 191.571 C 46 136.152, 45.824 128.966, 44.429 127.571 C 43.564 126.707, 42.471 126, 42 126 C 41.529 126, 40.436 126.707, 39.571 127.571 M 131.045 127.092 C 120.757 129.109, 110.837 136.518, 106.166 145.675 C 105.079 147.806, 103.659 152.247, 103.010 155.544 C 101.953 160.916, 102.089 162.678, 104.323 172.519 C 110.171 198.280, 120.392 217.718, 137.788 236.158 C 144.427 243.195, 160.391 255.853, 167.077 259.381 L 170.642 261.262 182.770 252.092 C 211.709 230.213, 228.461 203.927, 235.417 169.483 C 236.690 163.183, 236.816 160.292, 236.004 155.983 C 231.594 132.555, 208.327 120.242, 186.616 129.845 C 181.222 132.232, 175.372 137.363, 172.005 142.662 L 169.360 146.824 167.503 143.377 C 165.181 139.064, 158.418 132.764, 153.318 130.162 C 151.183 129.073, 146.781 127.691, 143.535 127.091 C 136.969 125.877, 137.243 125.877, 131.045 127.092 M 320.500 126.944 C 312.325 128.268, 306.930 129.991, 299 133.814 C 288.444 138.903, 274.927 152.404, 269.778 163 C 263.648 175.615, 260.334 193.191, 263.491 196.348 C 265.547 198.404, 266.439 198.418, 268.429 196.429 C 269.379 195.478, 270 193.126, 270 190.478 C 270 177.343, 276.860 161.930, 287.395 151.395 C 298.853 139.936, 313.222 134, 329.500 134 C 339.706 134, 346.067 135.497, 356 140.235 C 374.952 149.275, 389 170.664, 389 190.478 C 389 193.126, 389.621 195.478, 390.571 196.429 C 392.561 198.418, 393.453 198.404, 395.509 196.348 C 398.666 193.191, 395.352 175.615, 389.222 163 C 384.088 152.433, 370.567 138.912, 360 133.778 C 347.545 127.725, 332.139 125.060, 320.500 126.944 M 127.054 135.728 C 120.760 137.950, 113.727 145.295, 111.514 151.957 C 108.225 161.860, 111.778 179.403, 120.991 198.743 C 127.436 212.272, 134.633 222.524, 145.005 232.951 C 152.278 240.262, 167.372 252, 169.500 252 C 169.870 252, 173.617 249.637, 177.826 246.750 C 187.651 240.009, 201.037 226.611, 207.815 216.732 C 218.428 201.263, 227.249 178.930, 228.635 164.020 C 230.570 143.192, 211.675 128.780, 191.463 135.667 C 182.088 138.862, 174 149.949, 174 159.607 C 174 162.970, 171.867 166, 169.500 166 C 167.133 166, 165 162.970, 165 159.607 C 165 149.949, 156.912 138.862, 147.537 135.667 C 141.516 133.616, 132.964 133.641, 127.054 135.728 M 311.571 159.571 C 310.227 160.916, 310 164.736, 310 186 C 310 207.264, 310.227 211.084, 311.571 212.429 C 312.436 213.293, 313.529 214, 314 214 C 314.471 214, 315.564 213.293, 316.429 212.429 C 317.773 211.084, 318 207.264, 318 186 C 318 164.736, 317.773 160.916, 316.429 159.571 C 315.564 158.707, 314.471 158, 314 158 C 313.529 158, 312.436 158.707, 311.571 159.571 M 343.571 159.571 C 342.227 160.916, 342 164.736, 342 186 C 342 207.264, 342.227 211.084, 343.571 212.429 C 344.436 213.293, 345.529 214, 346 214 C 346.471 214, 347.564 213.293, 348.429 212.429 C 349.773 211.084, 350 207.264, 350 186 C 350 164.736, 349.773 160.916, 348.429 159.571 C 347.564 158.707, 346.471 158, 346 158 C 345.529 158, 344.436 158.707, 343.571 159.571 M 423.571 159.571 C 422.227 160.916, 422 164.736, 422 186 C 422 207.264, 422.227 211.084, 423.571 212.429 C 424.436 213.293, 425.529 214, 426 214 C 426.471 214, 427.564 213.293, 428.429 212.429 C 429.773 211.084, 430 207.264, 430 186 C 430 164.736, 429.773 160.916, 428.429 159.571 C 427.564 158.707, 426.471 158, 426 158 C 425.529 158, 424.436 158.707, 423.571 159.571 M 311.571 222.571 C 310.707 223.436, 310 224.529, 310 225 C 310 226.111, 312.889 229, 314 229 C 315.111 229, 318 226.111, 318 225 C 318 223.889, 315.111 221, 314 221 C 313.529 221, 312.436 221.707, 311.571 222.571 M 343.571 222.571 C 342.707 223.436, 342 224.529, 342 225 C 342 226.111, 344.889 229, 346 229 C 347.111 229, 350 226.111, 350 225 C 350 223.889, 347.111 221, 346 221 C 345.529 221, 344.436 221.707, 343.571 222.571 M 423.571 222.571 C 422.707 223.436, 422 224.529, 422 225 C 422 226.111, 424.889 229, 426 229 C 427.111 229, 430 226.111, 430 225 C 430 223.889, 427.111 221, 426 221 C 425.529 221, 424.436 221.707, 423.571 222.571 " stroke="none" fill="black" fill-rule="evenodd"/>
</svg>