<svg xmlns="http://www.w3.org/2000/svg" width="372" height="324" viewBox="0 0 372 324" version="1.1">
	<path d="M 63.102 127.108 C 37.633 130.963, 15.059 151.541, 8.374 177 C 6.113 185.610, 6.113 201.390, 8.374 210 C 11.590 222.248, 16.560 230.638, 26.461 240.535 C 33.488 247.559, 37.169 250.376, 43 253.193 C 54.006 258.510, 61.840 260.347, 73.500 260.347 C 92.757 260.347, 106.531 254.547, 120.539 240.539 C 134.551 226.527, 140.304 212.834, 140.304 193.500 C 140.304 174.166, 134.551 160.473, 120.539 146.461 C 110.823 136.745, 102.203 131.569, 90.831 128.621 C 83.080 126.612, 70.806 125.942, 63.102 127.108 M 167.571 127.571 C 166.707 128.436, 166 129.529, 166 130 C 166 130.471, 166.707 131.564, 167.571 132.429 C 168.966 133.823, 176.061 134, 230.575 134 L 292.007 134 278 162 L 263.993 190 248.568 190 C 235.878 190, 232.864 190.279, 231.571 191.571 C 229.598 193.545, 229.598 194.455, 231.571 196.429 C 232.844 197.701, 235.697 198, 246.575 198 L 260.006 198 245.003 227.994 C 236.751 244.490, 230 258.183, 230 258.422 C 230 258.661, 230.707 259.564, 231.571 260.429 C 232.936 261.793, 237.463 262, 266 262 C 294.537 262, 299.064 261.793, 300.429 260.429 C 302.402 258.455, 302.402 257.545, 300.429 255.571 C 299.071 254.214, 294.848 254, 269.425 254 L 239.993 254 254 226 L 268.007 198 310.206 198 L 352.405 198 339.202 211.333 C 331.941 218.666, 326 225.159, 326 225.761 C 326 227.187, 328.825 230, 330.257 230 C 332.006 230, 366 195.761, 366 194 C 366 192.239, 332.006 158, 330.257 158 C 328.825 158, 326 160.813, 326 162.239 C 326 162.841, 331.941 169.334, 339.202 176.667 L 352.405 190 312.199 190 L 271.994 190 286.997 160.006 C 295.249 143.510, 302 129.817, 302 129.578 C 302 129.339, 301.293 128.436, 300.429 127.571 C 299.032 126.175, 291.628 126, 234 126 C 176.372 126, 168.968 126.175, 167.571 127.571 M 58.645 135.584 C 38.671 140.419, 20.279 158.986, 15.537 179.103 C 12.241 193.087, 14.182 208.814, 20.757 221.397 C 24.627 228.803, 35.716 240.900, 41.726 244.272 L 44.884 246.045 42.522 241.772 C 33.471 225.405, 40.012 203.806, 56.767 194.738 C 73.800 185.519, 95.082 191.806, 104.262 208.767 C 109.859 219.107, 109.937 231.823, 104.465 241.772 L 102.116 246.045 105.274 244.272 C 111.284 240.900, 122.373 228.803, 126.243 221.397 C 135.328 204.010, 135.328 182.990, 126.243 165.603 C 118.839 151.435, 103.149 139.133, 87.897 135.537 C 79.998 133.676, 66.439 133.697, 58.645 135.584 M 63.605 199.568 C 56.049 202.337, 56.073 202.527, 65.170 211.671 L 73.457 220.001 81.692 211.809 C 90.838 202.711, 90.906 202.178, 83.260 199.573 C 77.620 197.651, 68.842 197.649, 63.605 199.568 M 50.184 210.278 C 46.139 215.152, 44.867 227.319, 47.573 235.260 C 50.178 242.906, 50.711 242.838, 59.809 233.692 L 68.001 225.457 59.671 217.170 C 52.854 210.389, 51.131 209.137, 50.184 210.278 M 87.191 217.308 L 78.999 225.543 87.329 233.830 C 96.530 242.983, 96.678 242.998, 99.487 235.038 C 101.439 229.503, 101.415 221.574, 99.427 215.740 C 96.822 208.094, 96.289 208.162, 87.191 217.308 M 65.170 239.329 C 56.017 248.530, 56.002 248.678, 63.962 251.487 C 69.497 253.439, 77.426 253.415, 83.260 251.427 C 90.906 248.822, 90.838 248.289, 81.692 239.191 L 73.457 230.999 65.170 239.329 " stroke="none" fill="black" fill-rule="evenodd"/>
</svg>