<svg xmlns="http://www.w3.org/2000/svg" width="212" height="324" viewBox="0 0 212 324" version="1.1">
	<path d="M 87.571 31.571 C 86.707 32.436, 86 33.332, 86 33.564 C 86 33.796, 89.934 41.868, 94.741 51.502 C 102.835 67.720, 105.314 71.160, 107.799 69.624 C 108.249 69.346, 112.566 61.330, 117.393 51.809 C 126.116 34.603, 126.857 31.927, 123.278 30.553 C 120.760 29.587, 118.863 32.125, 112.533 44.930 C 109.252 51.568, 106.312 57, 106 57 C 105.688 57, 102.748 51.534, 99.467 44.853 C 91.925 29.499, 90.847 28.296, 87.571 31.571 M 136.200 31.200 C 134.111 33.289, 135.447 38, 138.129 38 C 139.139 38, 142 35.044, 142 34 C 142 32.956, 139.139 30, 138.129 30 C 137.728 30, 136.860 30.540, 136.200 31.200 M 87.282 111.282 C 77.777 120.787, 70 129.079, 70 129.710 C 70 131.168, 72.798 134, 74.239 134 C 74.841 134, 81.334 128.059, 88.667 120.798 L 102 107.595 102 132.798 L 102 158 87.571 158 C 75.788 158, 72.855 158.288, 71.571 159.571 C 70.288 160.855, 70 163.788, 70 175.571 L 70 190 44.798 190 L 19.595 190 32.798 176.667 C 40.059 169.334, 46 162.841, 46 162.239 C 46 160.813, 43.175 158, 41.743 158 C 39.994 158, 6 192.239, 6 194 C 6 195.761, 39.994 230, 41.743 230 C 43.175 230, 46 227.187, 46 225.761 C 46 225.159, 40.059 218.666, 32.798 211.333 L 19.595 198 44.798 198 L 70 198 70 212.429 C 70 224.212, 70.288 227.145, 71.571 228.429 C 72.855 229.712, 75.788 230, 87.571 230 L 102 230 102 255.202 L 102 280.405 88.667 267.202 C 81.334 259.941, 74.841 254, 74.239 254 C 72.798 254, 70 256.832, 70 258.290 C 70 260.012, 104.329 294, 106.069 294 C 107.784 294, 142 259.962, 142 258.257 C 142 256.849, 139.196 254, 137.811 254 C 137.236 254, 135.075 255.688, 133.009 257.750 C 130.943 259.813, 124.921 265.745, 119.626 270.934 L 110 280.368 110 255.184 L 110 230 124.800 230 C 134.978 230, 139.975 229.625, 140.800 228.800 C 141.625 227.975, 142 222.978, 142 212.800 L 142 198 167.736 198 L 193.472 198 180.236 211.263 C 172.956 218.558, 167 225.218, 167 226.063 C 167 227.796, 168.896 230, 170.385 230 C 172.047 230, 206 195.680, 206 194 C 206 192.320, 172.047 158, 170.385 158 C 168.896 158, 167 160.204, 167 161.937 C 167 162.782, 172.956 169.442, 180.236 176.737 L 193.472 190 167.736 190 L 142 190 142 175.200 C 142 165.022, 141.625 160.025, 140.800 159.200 C 139.975 158.375, 134.978 158, 124.800 158 L 110 158 110 132.827 L 110 107.653 118.250 115.554 C 122.787 119.900, 128.767 125.828, 131.538 128.727 C 134.309 131.627, 137.090 134, 137.717 134 C 139.178 134, 142 131.196, 142 129.743 C 142 128.038, 107.784 94, 106.069 94 C 105.241 94, 96.787 101.777, 87.282 111.282 M 78 194 L 78 222 106 222 L 134 222 134 194 L 134 166 106 166 L 78 166 78 194 " stroke="none" fill="black" fill-rule="evenodd"/>
</svg>