<svg xmlns="http://www.w3.org/2000/svg" width="244" height="324" viewBox="0 0 244 324" version="1.1">
	<path d="M 33.384 127.370 C 15.387 131.885, 3.561 149.817, 6.987 167.396 C 9.770 181.681, 21.103 193.554, 33.908 195.601 L 38 196.256 38 227.556 C 38 254.678, 38.210 259.067, 39.571 260.429 C 40.436 261.293, 41.529 262, 42 262 C 42.471 262, 43.564 261.293, 44.429 260.429 C 45.790 259.067, 46 254.667, 46 227.429 C 46 200.517, 46.210 196, 47.462 196 C 52.056 196, 60.841 191.319, 66.080 186.080 C 76.010 176.150, 78.986 161.911, 73.934 148.507 C 68.114 133.068, 49.449 123.339, 33.384 127.370 M 201.411 157.105 C 181.313 177.165, 169.987 187.788, 169.514 187.022 C 168.114 184.758, 158.243 179.103, 151.887 176.924 C 135.682 171.369, 115.158 176.009, 103.655 187.828 C 100.318 191.257, 99.960 192.056, 100.941 193.889 C 102.506 196.814, 104.160 196.544, 108.894 192.589 C 118.725 184.375, 127.053 181.542, 139.454 182.193 C 147.950 182.639, 157.339 186.070, 163 190.797 L 165.500 192.884 133.750 224.728 C 116.287 242.242, 102 257.086, 102 257.715 C 102 259.197, 104.805 261.993, 106.321 262.023 C 106.970 262.036, 121.515 247.767, 138.644 230.314 L 169.787 198.581 173.766 201.338 C 182.887 207.658, 196.281 210.725, 207.348 209.025 C 219.768 207.118, 236.522 197.530, 235.805 192.740 C 235.178 188.551, 232.558 188.409, 227.803 192.305 C 216.704 201.400, 201.950 204.330, 188.329 200.144 C 184.573 198.990, 180.150 196.935, 178.500 195.578 L 175.500 193.110 206.250 162.299 C 223.162 145.353, 237 130.793, 237 129.944 C 237 128.192, 235.103 126, 233.587 126 C 233.029 126, 218.550 139.997, 201.411 157.105 M 31.463 135.591 C 21.649 139.076, 15.014 148.069, 14.236 158.941 C 13.564 168.344, 15.870 174.965, 21.929 181.024 C 35.282 194.378, 58.294 190.490, 66.465 173.500 C 69.166 167.886, 69.632 158.420, 67.522 152.067 C 65.251 145.229, 58.125 137.912, 51.556 135.674 C 45.657 133.664, 36.992 133.628, 31.463 135.591 " stroke="none" fill="black" fill-rule="evenodd"/>
</svg>