<svg xmlns="http://www.w3.org/2000/svg" width="436" height="324" viewBox="0 0 436 324" version="1.1">
	<path d="M 194.075 131.670 C 181.848 142.735, 173.070 157.043, 168.796 172.875 C 165.871 183.709, 165.896 203.382, 168.850 214.337 C 173.014 229.782, 181.573 243.666, 194.379 255.750 L 201.002 262 265.791 262 L 330.580 262 338.551 253.750 C 356.340 235.338, 363.986 217.226, 363.986 193.500 C 363.986 169.237, 354.012 146.753, 336.337 131.173 L 330.500 126.028 265.420 126.014 L 200.341 126 194.075 131.670 M 198.253 137.515 C 183.605 150.054, 174 172.225, 174 193.500 C 174 215.120, 183.577 236.910, 198.824 249.979 L 203.500 253.987 265.600 253.994 L 327.699 254 334.427 247.250 C 343.062 238.587, 349.043 228.928, 353.161 217 C 356.259 208.027, 356.441 206.723, 356.441 193.500 C 356.441 180.277, 356.259 178.973, 353.161 170 C 349.101 158.238, 343.054 148.374, 334.916 140.236 L 328.680 134 265.520 134 L 202.360 134 198.253 137.515 M 391.750 159.080 C 390.155 160.009, 390 162.388, 390 186.015 C 390 211.174, 390.060 211.962, 392.064 213.034 C 393.596 213.854, 394.498 213.832, 395.564 212.947 C 396.744 211.968, 397 207.174, 397 186.078 C 397 157.906, 396.671 156.214, 391.750 159.080 M 39.267 223.267 C 20.970 241.563, 6 257.056, 6 257.695 C 6 259.187, 8.799 262, 10.285 262 C 10.913 262, 25.509 247.944, 42.721 230.764 L 74.015 199.527 105.264 230.764 C 122.450 247.944, 137.039 262, 137.684 262 C 138.329 262, 139.564 261.293, 140.429 260.429 C 141.793 259.064, 142 254.537, 142 226 C 142 197.463, 141.793 192.936, 140.429 191.571 C 138.455 189.598, 137.545 189.598, 135.571 191.571 C 134.219 192.924, 134 196.990, 134 220.799 L 134 248.455 104.711 219.227 C 88.602 203.152, 74.772 190, 73.978 190 C 73.183 190, 57.563 204.970, 39.267 223.267 M 391.750 222.080 C 389.372 223.465, 389.542 226.685, 392.064 228.034 C 395.753 230.008, 398.819 225.219, 395.800 222.200 C 394.367 220.767, 394.022 220.757, 391.750 222.080 " stroke="none" fill="black" fill-rule="evenodd"/>
</svg>