<svg xmlns="http://www.w3.org/2000/svg" width="468" height="324" viewBox="0 0 468 324" version="1.1">
	<path d="M 7.200 127.200 C 5.465 128.935, 5.465 259.065, 7.200 260.800 C 8.919 262.519, 75.081 262.519, 76.800 260.800 C 78.535 259.065, 78.535 128.935, 76.800 127.200 C 75.081 125.481, 8.919 125.481, 7.200 127.200 M 157.500 127.401 C 129.768 132.749, 108.382 154.339, 103.416 182 C 101.648 191.847, 101.677 194.535, 103.571 196.429 C 106.917 199.774, 110 196.758, 110 190.139 C 110 187.544, 110.682 182.738, 111.515 179.460 C 118.351 152.568, 142.034 134, 169.500 134 C 185.651 134, 200.089 139.992, 211.548 151.452 C 221.988 161.891, 229 177.436, 229 190.139 C 229 198.197, 228.216 198, 260.274 198 L 288.405 198 275.202 211.333 C 267.941 218.666, 262 225.159, 262 225.761 C 262 227.187, 264.825 230, 266.257 230 C 268.006 230, 302 195.761, 302 194 C 302 192.239, 268.006 158, 266.257 158 C 264.825 158, 262 160.813, 262 162.239 C 262 162.841, 267.941 169.334, 275.202 176.667 L 288.405 190 262.770 190 C 233.910 190, 236.759 190.888, 235.495 181.500 C 232.359 158.197, 210.738 134.824, 186.500 128.533 C 177.877 126.295, 165.699 125.820, 157.500 127.401 M 14 194 L 14 254 42 254 L 70 254 70 194 L 70 134 42 134 L 14 134 14 194 M 327.571 191.571 C 326.206 192.937, 326 197.497, 326 226.371 C 326 250.883, 326.315 259.915, 327.200 260.800 C 328.935 262.535, 459.065 262.535, 460.800 260.800 C 461.685 259.915, 462 250.883, 462 226.371 C 462 197.497, 461.794 192.937, 460.429 191.571 C 459.564 190.707, 458.471 190, 458 190 C 457.529 190, 456.436 190.707, 455.571 191.571 C 454.212 192.931, 454 197.242, 454 223.571 L 454 254 394 254 L 334 254 334 223.571 C 334 197.242, 333.788 192.931, 332.429 191.571 C 331.564 190.707, 330.471 190, 330 190 C 329.529 190, 328.436 190.707, 327.571 191.571 " stroke="none" fill="black" fill-rule="evenodd"/>
</svg>