<svg xmlns="http://www.w3.org/2000/svg" width="148" height="324" viewBox="0 0 148 324" version="1.1">
	<path d="M 55.571 63.571 C 54.707 64.436, 54 65.317, 54 65.531 C 54 66.316, 71.159 100.529, 71.965 101.349 C 74.275 103.702, 76.913 100.229, 84.760 84.501 C 93 67.984, 94.315 63.719, 91.500 62.638 C 88.441 61.465, 86.733 63.561, 80.318 76.364 L 73.750 89.470 67.252 76.485 C 59.693 61.381, 58.776 60.367, 55.571 63.571 M 7.571 191.571 C 6.207 192.936, 6 197.463, 6 226 C 6 254.537, 6.207 259.064, 7.571 260.429 C 8.968 261.825, 16.343 261.998, 73.821 261.985 C 109.395 261.976, 139.096 261.591, 139.825 261.129 C 140.886 260.456, 141.128 253.539, 141.040 226.395 C 140.921 189.938, 140.718 188.475, 136.117 190.938 C 134.031 192.054, 134 192.525, 134 223.035 L 134 254 74 254 L 14 254 14 223.571 C 14 197.242, 13.788 192.931, 12.429 191.571 C 11.564 190.707, 10.471 190, 10 190 C 9.529 190, 8.436 190.707, 7.571 191.571 " stroke="none" fill="black" fill-rule="evenodd"/>
</svg>