<svg xmlns="http://www.w3.org/2000/svg" width="436" height="324" viewBox="0 0 436 324" version="1.1">
	<path d="M 35.045 127.064 C 24.674 129.164, 14.828 136.537, 10.151 145.705 C 7.578 150.747, 5.616 161.395, 6.828 163.738 C 7.329 164.707, 8.525 169.100, 9.484 173.500 C 15.002 198.806, 28.176 222.394, 46.651 240.044 C 55.936 248.915, 71.166 260, 74.070 260 C 75.196 260, 77.778 258.733, 79.809 257.185 C 81.839 255.636, 86.988 251.763, 91.250 248.578 C 114.809 230.976, 132.816 201.755, 138.913 171.234 C 140.415 163.715, 140.654 160.266, 139.962 156.078 C 136.330 134.093, 113.566 120.989, 92.798 128.928 C 86.373 131.384, 78.359 138.062, 75.529 143.317 L 73.640 146.824 70.976 142.624 C 63.636 131.049, 48.255 124.389, 35.045 127.064 M 199.667 126.750 C 197.535 130.293, 134 258.198, 134 258.947 C 134 261.752, 139.552 262, 202.363 262 C 259.661 262, 267.032 261.825, 268.429 260.429 C 269.293 259.564, 270 258.663, 270 258.426 C 270 257.155, 204.584 127.384, 203.631 126.765 C 202.159 125.809, 200.237 125.802, 199.667 126.750 M 31.054 135.728 C 24.787 137.940, 17.726 145.297, 15.534 151.899 C 13.881 156.875, 13.875 157.704, 15.430 166.205 C 18.769 184.454, 25.331 200.650, 35.740 216.330 C 41.769 225.412, 57.344 241.046, 66.665 247.373 L 73.830 252.237 81.647 246.869 C 106.364 229.892, 125.112 201.366, 131.495 171.022 C 133.743 160.336, 133.448 156.216, 129.929 149.174 C 124.927 139.164, 116.613 134, 105.500 134 C 91.079 134, 80.123 143.586, 78.163 157.916 C 77.355 163.825, 76.081 165.949, 73.321 165.985 C 71.127 166.013, 69 162.874, 69 159.607 C 69 149.949, 60.912 138.862, 51.537 135.667 C 45.516 133.616, 36.964 133.641, 31.054 135.728 M 172.747 196.500 L 144.002 254 202 254 L 259.998 254 231.253 196.500 C 215.443 164.875, 202.279 139, 202 139 C 201.721 139, 188.557 164.875, 172.747 196.500 M 196.764 174.996 C 191.184 176.676, 187.145 180.067, 184.571 185.234 C 183.157 188.071, 182 191.397, 182 192.625 C 182 194.787, 184.341 198, 185.916 198 C 187.586 198, 190 194.199, 190 191.571 C 190 189.753, 191.169 187.631, 193.400 185.400 C 196.302 182.498, 197.488 182, 201.500 182 C 205.512 182, 206.698 182.498, 209.600 185.400 C 212.502 188.302, 213 189.488, 213 193.500 C 213 197.512, 212.502 198.698, 209.600 201.600 C 207.526 203.674, 205.214 205, 203.671 205 C 199.012 205, 198 207.231, 198 217.500 C 198 224.673, 198.367 227.224, 199.571 228.429 C 201.678 230.535, 202.598 230.412, 204.443 227.777 C 205.477 226.302, 206 223.300, 206 218.845 C 206 212.942, 206.248 212.056, 208.066 211.479 C 211.044 210.534, 216.851 205.190, 218.623 201.763 C 219.459 200.146, 220.143 196.428, 220.143 193.500 C 220.143 187.227, 218.404 183.440, 213.578 179.203 C 208.492 174.737, 202.556 173.252, 196.764 174.996 M 295.571 191.571 C 294.206 192.937, 294 197.497, 294 226.371 C 294 250.883, 294.315 259.915, 295.200 260.800 C 296.620 262.220, 425.599 262.541, 427.825 261.129 C 428.886 260.456, 429.128 253.539, 429.040 226.395 C 428.921 189.938, 428.718 188.475, 424.117 190.938 C 422.031 192.054, 422 192.525, 422 223.035 L 422 254 361.500 254 L 301 254 301 223.200 C 301 200.578, 300.681 192.081, 299.800 191.200 C 298.219 189.619, 297.457 189.685, 295.571 191.571 M 199.616 238.527 C 198.727 239.416, 198 240.529, 198 241 C 198 242.389, 201.140 245.120, 202.295 244.735 C 204.395 244.035, 205.549 241.094, 204.423 239.310 C 202.905 236.902, 201.474 236.669, 199.616 238.527 " stroke="none" fill="black" fill-rule="evenodd"/>
</svg>