<svg xmlns="http://www.w3.org/2000/svg" width="372" height="324" viewBox="0 0 372 324" version="1.1">
	<path d="M 120.372 62.765 C 118.418 64.037, 102.003 97.844, 102.593 99.381 C 103.268 101.141, 105.513 102.124, 107.295 101.440 C 108.007 101.167, 111.480 95.106, 115.014 87.972 C 118.547 80.837, 121.691 75, 122 75 C 122.309 75, 125.453 80.837, 128.986 87.972 C 132.520 95.106, 135.993 101.167, 136.705 101.440 C 138.487 102.124, 140.732 101.141, 141.407 99.381 C 141.716 98.575, 138.096 90.173, 133.363 80.708 C 125.638 65.261, 123.672 62.031, 122 62.031 C 121.725 62.031, 120.992 62.361, 120.372 62.765 M 168.515 158 L 136.460 190 72.801 190 C 16.263 190, 8.967 190.176, 7.571 191.571 C 5.598 193.545, 5.598 194.455, 7.571 196.429 C 8.844 197.701, 11.697 198, 22.575 198 L 36.006 198 21.020 227.961 C 12.777 244.439, 6.285 258.580, 6.594 259.384 C 7.265 261.133, 9.512 262.125, 11.274 261.448 C 11.975 261.180, 19.056 247.919, 27.010 231.980 C 34.964 216.041, 41.710 203, 42 203 C 42.290 203, 49.036 216.041, 56.990 231.980 C 64.944 247.919, 72.025 261.180, 72.726 261.448 C 73.427 261.717, 74.573 261.717, 75.274 261.448 C 75.975 261.180, 83.056 247.919, 91.010 231.980 C 98.964 216.041, 105.710 203, 106 203 C 106.290 203, 113.036 216.041, 120.990 231.980 C 128.944 247.919, 136.025 261.180, 136.726 261.448 C 138.488 262.125, 140.735 261.133, 141.406 259.384 C 141.715 258.580, 135.223 244.439, 126.980 227.961 L 111.994 198 125.710 198 L 139.427 198 170.703 166.782 L 201.979 135.563 217.312 150.782 C 225.746 159.152, 233.143 166, 233.751 166 C 235.200 166, 238 163.173, 238 161.710 C 238 160.033, 203.695 126, 202.004 126 C 201.216 126, 186.146 140.400, 168.515 158 M 263.571 159.571 C 262.227 160.916, 262 164.736, 262 186 C 262 207.264, 262.227 211.084, 263.571 212.429 C 264.436 213.293, 265.529 214, 266 214 C 266.471 214, 267.564 213.293, 268.429 212.429 C 269.773 211.084, 270 207.264, 270 186 C 270 164.736, 269.773 160.916, 268.429 159.571 C 267.564 158.707, 266.471 158, 266 158 C 265.529 158, 264.436 158.707, 263.571 159.571 M 295.571 159.571 C 294.227 160.916, 294 164.736, 294 186 C 294 207.264, 294.227 211.084, 295.571 212.429 C 296.436 213.293, 297.529 214, 298 214 C 298.471 214, 299.564 213.293, 300.429 212.429 C 301.773 211.084, 302 207.264, 302 186 C 302 164.736, 301.773 160.916, 300.429 159.571 C 299.564 158.707, 298.471 158, 298 158 C 297.529 158, 296.436 158.707, 295.571 159.571 M 327.571 159.571 C 326.227 160.916, 326 164.736, 326 186 C 326 207.264, 326.227 211.084, 327.571 212.429 C 328.436 213.293, 329.529 214, 330 214 C 330.471 214, 331.564 213.293, 332.429 212.429 C 333.773 211.084, 334 207.264, 334 186 C 334 164.736, 333.773 160.916, 332.429 159.571 C 331.564 158.707, 330.471 158, 330 158 C 329.529 158, 328.436 158.707, 327.571 159.571 M 60.743 223.500 C 67.750 237.525, 73.715 249, 74 249 C 74.285 249, 80.250 237.525, 87.257 223.500 L 99.995 198 74 198 L 48.005 198 60.743 223.500 M 263.571 222.571 C 262.707 223.436, 262 224.529, 262 225 C 262 226.111, 264.889 229, 266 229 C 267.111 229, 270 226.111, 270 225 C 270 223.889, 267.111 221, 266 221 C 265.529 221, 264.436 221.707, 263.571 222.571 M 295.571 222.571 C 294.707 223.436, 294 224.529, 294 225 C 294 226.111, 296.889 229, 298 229 C 299.111 229, 302 226.111, 302 225 C 302 223.889, 299.111 221, 298 221 C 297.529 221, 296.436 221.707, 295.571 222.571 M 327.571 222.571 C 326.707 223.436, 326 224.529, 326 225 C 326 226.111, 328.889 229, 330 229 C 331.111 229, 334 226.111, 334 225 C 334 223.889, 331.111 221, 330 221 C 329.529 221, 328.436 221.707, 327.571 222.571 " stroke="none" fill="black" fill-rule="evenodd"/>
</svg>