<svg xmlns="http://www.w3.org/2000/svg" width="403" height="324" viewBox="0 0 403 324" version="1.1">
	<path d="M 63.870 127.014 C 48.636 129.407, 37.616 135.194, 25.974 146.916 C 13.989 158.983, 8.432 170.878, 6.503 188.598 C 5.964 193.549, 6.150 195.007, 7.491 196.348 C 9.547 198.404, 10.439 198.418, 12.429 196.429 C 13.404 195.453, 14.006 193.082, 14.015 190.179 C 14.091 166.127, 34.559 141.323, 59.103 135.537 C 79.531 130.722, 100.875 136.732, 115.459 151.405 C 119.429 155.400, 123.939 161.203, 125.780 164.686 C 129.503 171.731, 133 184.277, 133 190.589 C 133 194.479, 134.839 198, 136.871 198 C 140.257 198, 141.072 187.652, 138.490 177.460 C 132.567 154.080, 113.317 134.503, 90.483 128.639 C 82.642 126.625, 70.905 125.908, 63.870 127.014 M 167.200 127.200 C 165.465 128.935, 165.465 259.065, 167.200 260.800 C 168.084 261.684, 177.004 262, 201.118 262 C 219.113 262, 234.548 261.727, 235.418 261.393 C 236.839 260.848, 237 253.978, 237 194 C 237 134.022, 236.839 127.152, 235.418 126.607 C 234.548 126.273, 219.113 126, 201.118 126 C 177.004 126, 168.084 126.316, 167.200 127.200 M 173 194 L 173 254 201.500 254 L 230 254 230 194 L 230 134 201.500 134 L 173 134 173 194 M 39.585 191.558 C 37.598 193.545, 37.595 194.452, 39.571 196.429 C 40.844 197.701, 43.699 198, 54.589 198 L 68.036 198 53.018 227.931 C 44.758 244.393, 38 258.327, 38 258.896 C 38 261.580, 42.920 262, 74.363 262 C 102.570 262, 107.064 261.793, 108.429 260.429 C 109.293 259.564, 110 258.661, 110 258.422 C 110 258.183, 103.255 244.503, 95.011 228.022 L 80.022 198.056 93.654 197.778 C 105.361 197.539, 107.441 197.253, 108.388 195.750 C 109.191 194.475, 109.190 193.525, 108.386 192.250 C 107.377 190.650, 104.452 190.477, 74.226 190.237 C 45.159 190.005, 40.978 190.165, 39.585 191.558 M 263.750 191.080 C 262.138 192.019, 262 194.762, 262 225.850 C 262 250.767, 262.314 259.914, 263.200 260.800 C 264.935 262.535, 394.065 262.535, 395.800 260.800 C 396.686 259.914, 397 250.783, 397 225.922 C 397 197.873, 396.760 192.046, 395.564 191.053 C 394.498 190.168, 393.596 190.146, 392.064 190.966 C 390.047 192.045, 390 192.774, 390 223.035 L 390 254 329.500 254 L 269 254 269 223.200 C 269 189.561, 268.770 188.156, 263.750 191.080 M 60.743 228.500 L 48.005 254 74 254 L 99.995 254 87.257 228.500 C 80.250 214.475, 74.285 203, 74 203 C 73.715 203, 67.750 214.475, 60.743 228.500 " stroke="none" fill="black" fill-rule="evenodd"/>
</svg>