<svg xmlns="http://www.w3.org/2000/svg" width="308" height="324" viewBox="0 0 308 324" version="1.1">
	<path d="M 39.173 159.292 C 38.583 160.002, 37.966 163.706, 37.800 167.522 L 37.500 174.460 32.500 175.289 C 21.247 177.153, 4.459 188.159, 5.174 193.204 C 5.738 197.176, 9.528 196.689, 14.627 191.990 C 19.564 187.439, 27.742 183.385, 34.003 182.384 L 38 181.744 38 204.672 C 38 221.172, 38.336 227.936, 39.200 228.800 C 40.085 229.685, 49.117 230, 73.629 230 C 102.503 230, 107.063 229.794, 108.429 228.429 C 109.617 227.240, 110 224.730, 110 218.129 L 110 209.400 115.750 208.181 C 126.320 205.939, 140.425 196.884, 139.805 192.740 C 139.178 188.551, 136.558 188.409, 131.803 192.305 C 127.062 196.190, 118.579 200.389, 113.250 201.488 L 110 202.159 110 181.651 C 110 164.341, 109.755 160.898, 108.429 159.571 C 107.063 158.206, 102.496 158, 73.551 158 C 47.553 158, 40.010 158.283, 39.173 159.292 M 263.750 159.080 C 262.788 159.641, 262 160.858, 262 161.786 C 262 162.714, 267.956 169.442, 275.236 176.737 L 288.472 190 229.170 190 C 190.204 190, 169.205 190.355, 167.934 191.035 C 165.446 192.367, 165.446 195.633, 167.934 196.965 C 169.205 197.645, 190.204 198, 229.170 198 L 288.472 198 275.236 211.263 C 267.956 218.558, 262 225.292, 262 226.228 C 262 227.164, 262.960 228.443, 264.133 229.071 C 266.084 230.115, 267.752 228.729, 283.633 212.867 C 293.185 203.327, 301 194.837, 301 194 C 301 192.655, 267.224 157.954, 265.990 158.030 C 265.720 158.047, 264.712 158.519, 263.750 159.080 M 46 170.371 L 46 174.742 50.911 175.394 C 58.648 176.420, 68.745 182.052, 75.546 189.135 C 81.924 195.778, 90.165 200.400, 97.750 201.589 L 102 202.256 102 184.128 L 102 166 74 166 L 46 166 46 170.371 M 46 202 L 46 222 74.048 222 L 102.095 222 101.798 215.759 L 101.500 209.518 97 208.859 C 86.935 207.386, 73.097 199.787, 70.024 194.046 C 68.369 190.952, 60.270 185.874, 53.760 183.848 C 50.494 182.832, 47.412 182, 46.911 182 C 46.393 182, 46 190.637, 46 202 M 190.263 239.461 C 182.652 241.179, 173.479 245.942, 167.949 251.047 C 163.664 255.003, 163.155 257.439, 166.214 259.365 C 167.555 260.209, 168.535 259.956, 170.714 258.204 C 179.084 251.474, 182.001 249.754, 188.269 247.850 C 198.354 244.786, 209.530 245.504, 218.155 249.770 C 224.112 252.716, 225.998 254.217, 233.500 261.977 C 235.150 263.684, 239.650 266.631, 243.500 268.527 C 260.371 276.833, 279.014 274.780, 294.778 262.878 C 300.393 258.639, 301.305 255.835, 297.786 253.630 C 296.449 252.792, 295.460 253.046, 293.286 254.788 C 282.054 263.789, 274.870 266.389, 263 265.750 C 250.834 265.094, 244.456 262.379, 236.708 254.559 C 233.294 251.113, 228.623 247.119, 226.329 245.684 C 216.467 239.515, 201.481 236.929, 190.263 239.461 " stroke="none" fill="black" fill-rule="evenodd"/>
</svg>