<svg xmlns="http://www.w3.org/2000/svg" width="244" height="324" viewBox="0 0 244 324" version="1.1">
	<path d="M 87.550 62.918 C 83.869 68.875, 70.190 98.331, 70.604 99.410 C 71.269 101.144, 73.524 102.120, 75.295 101.440 C 76.007 101.167, 79.480 95.106, 83.014 87.972 C 86.547 80.837, 89.691 75, 90 75 C 90.309 75, 93.453 80.837, 96.986 87.972 C 100.520 95.106, 103.993 101.167, 104.705 101.440 C 106.487 102.124, 108.732 101.141, 109.407 99.381 C 109.997 97.844, 93.582 64.037, 91.628 62.765 C 90.071 61.751, 88.229 61.820, 87.550 62.918 M 119.200 63.200 C 117.512 64.888, 117.512 99.112, 119.200 100.800 C 120.040 101.640, 125.562 102, 137.629 102 C 151.958 102, 155.122 101.736, 156.429 100.429 C 158.757 98.100, 158.757 65.900, 156.429 63.571 C 155.122 62.264, 151.958 62, 137.629 62 C 125.562 62, 120.040 62.360, 119.200 63.200 M 126 82 L 126 94 138 94 L 150 94 150 82 L 150 70 138 70 L 126 70 126 82 M 103.571 127.571 C 102.175 128.968, 102 136.372, 102 194 C 102 251.628, 102.175 259.032, 103.571 260.429 C 104.436 261.293, 105.529 262, 106 262 C 106.471 262, 107.564 261.293, 108.429 260.429 C 109.825 259.032, 110 251.628, 110 194 C 110 136.372, 109.825 128.968, 108.429 127.571 C 107.564 126.707, 106.471 126, 106 126 C 105.529 126, 104.436 126.707, 103.571 127.571 M 162.355 158.986 C 151.790 161.214, 142.114 169.146, 137.329 179.500 C 133.350 188.111, 133.383 198.888, 137.417 207.734 C 144.852 224.043, 163.961 232.444, 180.575 226.708 C 185.342 225.062, 185.887 225.057, 189.575 226.629 C 195.478 229.145, 207.076 228.886, 214.297 226.077 C 221.354 223.331, 229.569 215.634, 233.056 208.500 C 235.152 204.212, 235.500 202.075, 235.500 193.500 C 235.500 184.925, 235.152 182.788, 233.056 178.500 C 229.563 171.355, 221.353 163.666, 214.297 160.934 C 206.964 158.094, 196.386 157.817, 189.899 160.294 C 185.736 161.884, 184.976 161.903, 181.022 160.508 C 175.405 158.526, 167.566 157.887, 162.355 158.986 M 159.627 167.468 C 154.247 169.386, 149.039 173.829, 145.500 179.519 C 141.527 185.908, 140.712 197.311, 143.741 204.129 C 148.169 214.094, 156.131 219.920, 166.454 220.748 C 169.960 221.030, 174.056 220.952, 175.557 220.575 L 178.286 219.890 175.197 216.695 C 166.365 207.559, 163.857 191.459, 169.379 179.349 C 170.922 175.965, 173.494 171.943, 175.095 170.409 C 177.224 168.370, 177.669 167.408, 176.752 166.826 C 174.748 165.553, 163.853 165.962, 159.627 167.468 M 194.313 166.641 C 193.556 166.950, 194.549 169.005, 197.053 172.312 C 202.149 179.043, 204 184.689, 204 193.500 C 204 202.306, 202.149 207.957, 197.065 214.672 C 192.550 220.635, 192.834 221, 201.994 221 C 206.624 221, 209.112 220.331, 214.073 217.750 C 234.058 207.355, 233.930 179.117, 213.854 169.085 C 208.883 166.601, 206.494 166.015, 201.590 166.079 C 198.241 166.122, 194.966 166.375, 194.313 166.641 M 180.972 174.685 C 175.925 180.432, 174.047 185.532, 174.022 193.554 C 173.997 201.582, 176.752 208.472, 181.998 213.498 L 185.010 216.383 187.653 214.409 C 189.108 213.324, 191.693 209.975, 193.399 206.968 C 196.153 202.112, 196.500 200.605, 196.500 193.500 C 196.500 186.506, 196.128 184.828, 193.541 180.158 C 190.827 175.259, 186.841 171, 184.969 171 C 184.550 171, 182.751 172.658, 180.972 174.685 M 7.571 191.571 C 6.707 192.436, 6 193.640, 6 194.249 C 6 194.857, 12.844 202.250, 21.208 210.677 L 36.416 226 21.208 241.323 C 12.844 249.750, 6 257.143, 6 257.751 C 6 259.181, 8.819 262, 10.249 262 C 10.857 262, 18.250 255.156, 26.677 246.792 L 42 231.584 57.323 246.792 C 65.750 255.156, 73.143 262, 73.751 262 C 75.181 262, 78 259.181, 78 257.751 C 78 257.143, 71.156 249.750, 62.792 241.323 L 47.584 226 62.792 210.677 C 71.156 202.250, 78 194.857, 78 194.249 C 78 192.819, 75.181 190, 73.751 190 C 73.143 190, 65.750 196.844, 57.323 205.208 L 42 220.416 26.677 205.208 C 18.250 196.844, 10.857 190, 10.249 190 C 9.640 190, 8.436 190.707, 7.571 191.571 " stroke="none" fill="black" fill-rule="evenodd"/>
</svg>