<svg xmlns="http://www.w3.org/2000/svg" width="500" height="324" viewBox="0 0 500 324" version="1.1">
	<path d="M 88.316 62.784 C 86.369 64.022, 70.007 97.855, 70.604 99.410 C 71.269 101.144, 73.524 102.120, 75.295 101.440 C 76.007 101.167, 79.480 95.106, 83.014 87.972 C 86.547 80.837, 89.691 75, 90 75 C 90.309 75, 93.453 80.837, 96.986 87.972 C 100.520 95.106, 104.076 101.199, 104.889 101.511 C 105.701 101.823, 107.219 101.225, 108.261 100.183 C 110.121 98.324, 109.994 97.966, 101.456 80.894 C 92.033 62.053, 91.222 60.935, 88.316 62.784 M 119.200 63.200 C 117.512 64.888, 117.512 99.112, 119.200 100.800 C 120.040 101.640, 125.562 102, 137.629 102 C 151.958 102, 155.122 101.736, 156.429 100.429 C 158.757 98.100, 158.757 65.900, 156.429 63.571 C 155.122 62.264, 151.958 62, 137.629 62 C 125.562 62, 120.040 62.360, 119.200 63.200 M 126 82 L 126 94 138 94 L 150 94 150 82 L 150 70 138 70 L 126 70 126 82 M 103.571 127.571 C 102.175 128.968, 102 136.372, 102 194 C 102 251.628, 102.175 259.032, 103.571 260.429 C 105.589 262.446, 106.322 262.406, 108.345 260.171 C 109.849 258.509, 110 252.456, 110 193.826 C 110 132.594, 109.907 129.226, 108.171 127.655 C 105.915 125.613, 105.537 125.606, 103.571 127.571 M 424.500 158 L 392.512 190 329.190 190 C 287.453 190, 265.209 190.353, 263.934 191.035 C 262.870 191.605, 262 192.939, 262 194 C 262 197.203, 265.276 198, 278.434 198 C 285.345 198, 291 198.228, 291 198.507 C 291 198.785, 284.475 212.057, 276.500 228 C 268.525 243.943, 262 257.649, 262 258.458 C 262 260.785, 265.808 262.404, 267.663 260.865 C 268.507 260.164, 275.622 246.749, 283.474 231.052 L 297.750 202.514 312.399 231.797 C 320.455 247.903, 327.717 261.338, 328.536 261.652 C 329.355 261.967, 330.733 261.636, 331.599 260.918 C 332.464 260.200, 339.398 246.875, 347.008 231.306 C 354.618 215.738, 361.103 203, 361.419 203 C 361.735 203, 368.492 215.991, 376.435 231.869 C 384.535 248.062, 391.617 261.023, 392.565 261.386 C 394.495 262.127, 397 260.424, 397 258.371 C 397 257.610, 390.475 243.943, 382.500 228 C 374.525 212.057, 368 198.785, 368 198.507 C 368 198.228, 373.965 198, 381.256 198 L 394.512 198 425.983 166.517 L 457.455 135.033 473.048 150.517 C 481.624 159.032, 489.082 166, 489.621 166 C 491.113 166, 493 163.789, 493 162.039 C 493 160.360, 459.139 126, 457.484 126 C 456.936 126, 442.094 140.400, 424.500 158 M 162.344 158.988 C 152.010 161.166, 141.930 169.366, 137.417 179.266 C 131.406 192.448, 134.534 208.614, 144.987 218.392 C 150.803 223.831, 155.732 226.404, 163.352 227.976 C 169.467 229.238, 173.422 228.893, 181.075 226.429 C 185.200 225.100, 186.036 225.120, 189.575 226.629 C 195.478 229.145, 207.076 228.886, 214.297 226.077 C 221.354 223.331, 229.569 215.634, 233.056 208.500 C 235.152 204.212, 235.500 202.075, 235.500 193.500 C 235.500 184.925, 235.152 182.788, 233.056 178.500 C 229.563 171.355, 221.353 163.666, 214.297 160.934 C 206.964 158.094, 196.386 157.817, 189.899 160.294 C 185.736 161.884, 184.976 161.903, 181.022 160.508 C 175.401 158.525, 167.565 157.887, 162.344 158.988 M 159.627 167.468 C 154.247 169.386, 149.039 173.829, 145.500 179.519 C 141.527 185.908, 140.712 197.311, 143.741 204.129 C 148.169 214.094, 156.131 219.920, 166.454 220.748 C 169.960 221.030, 174.056 220.952, 175.557 220.575 L 178.286 219.890 175.197 216.695 C 166.365 207.559, 163.857 191.459, 169.379 179.349 C 170.922 175.965, 173.494 171.943, 175.095 170.409 C 177.224 168.370, 177.669 167.408, 176.752 166.826 C 174.748 165.553, 163.853 165.962, 159.627 167.468 M 194.313 166.641 C 193.556 166.950, 194.549 169.005, 197.053 172.312 C 202.149 179.043, 204 184.689, 204 193.500 C 204 202.306, 202.149 207.957, 197.065 214.672 C 192.550 220.635, 192.834 221, 201.994 221 C 206.622 221, 209.133 220.325, 214.163 217.729 C 234.081 207.447, 233.901 179.103, 213.854 169.085 C 208.883 166.601, 206.494 166.015, 201.590 166.079 C 198.241 166.122, 194.966 166.375, 194.313 166.641 M 180.972 174.685 C 175.925 180.432, 174.047 185.532, 174.022 193.554 C 173.997 201.582, 176.752 208.472, 181.998 213.498 L 185.010 216.383 187.653 214.409 C 189.108 213.324, 191.693 209.975, 193.399 206.968 C 196.153 202.112, 196.500 200.605, 196.500 193.500 C 196.500 186.506, 196.128 184.828, 193.541 180.158 C 190.827 175.259, 186.841 171, 184.969 171 C 184.550 171, 182.751 172.658, 180.972 174.685 M 7.571 191.571 C 6.707 192.436, 6 193.640, 6 194.249 C 6 194.857, 12.844 202.250, 21.208 210.677 L 36.416 226 21.208 241.323 C 12.844 249.750, 6 257.143, 6 257.751 C 6 259.181, 8.819 262, 10.249 262 C 10.857 262, 18.250 255.156, 26.677 246.792 L 42 231.584 57.323 246.792 C 65.750 255.156, 73.143 262, 73.751 262 C 75.181 262, 78 259.181, 78 257.751 C 78 257.143, 71.156 249.750, 62.792 241.323 L 47.584 226 62.792 210.677 C 71.156 202.250, 78 194.857, 78 194.249 C 78 192.819, 75.181 190, 73.751 190 C 73.143 190, 65.750 196.844, 57.323 205.208 L 42 220.416 26.677 205.208 C 18.250 196.844, 10.857 190, 10.249 190 C 9.640 190, 8.436 190.707, 7.571 191.571 M 316.608 223.250 C 323.546 237.137, 329.371 248.661, 329.553 248.859 C 329.878 249.211, 355 199.502, 355 198.508 C 355 198.228, 343.523 198, 329.496 198 L 303.992 198 316.608 223.250 " stroke="none" fill="black" fill-rule="evenodd"/>
</svg>