<svg xmlns="http://www.w3.org/2000/svg" width="403" height="324" viewBox="0 0 403 324" version="1.1">
	<path d="M 71.571 127.571 C 70.288 128.855, 70 131.788, 70 143.571 L 70 158 55.934 158 C 48.151 158, 41.005 158.462, 39.934 159.035 C 38.092 160.021, 38 161.413, 38 188.237 L 38 216.405 24.667 203.202 C 17.334 195.941, 10.841 190, 10.239 190 C 8.791 190, 6 192.834, 6 194.305 C 6 195.823, 72.177 262, 73.695 262 C 74.334 262, 75.564 261.293, 76.429 260.429 C 77.712 259.145, 78 256.212, 78 244.429 L 78 230 92.429 230 C 104.212 230, 107.145 229.712, 108.429 228.429 C 109.793 227.064, 110 222.537, 110 194 C 110 165.463, 109.793 160.936, 108.429 159.571 C 107.145 158.288, 104.212 158, 92.429 158 L 78 158 78 143.571 C 78 131.788, 77.712 128.855, 76.429 127.571 C 75.564 126.707, 74.471 126, 74 126 C 73.529 126, 72.436 126.707, 71.571 127.571 M 233.411 157.105 C 213.313 177.165, 201.987 187.788, 201.514 187.022 C 200.442 185.288, 191.171 179.608, 186.296 177.699 C 170.489 171.509, 150.947 174.641, 138 185.439 C 132.563 189.974, 131.232 192.370, 132.980 194.476 C 134.869 196.752, 136.595 196.353, 140.747 192.681 C 149.753 184.718, 159.051 181.542, 171.454 182.193 C 177.955 182.534, 180.889 183.247, 186.045 185.740 C 189.595 187.455, 193.625 189.772, 195 190.888 L 197.500 192.918 165.750 224.745 C 148.287 242.250, 134 257.086, 134 257.715 C 134 258.949, 136.717 262, 137.816 262 C 138.186 262, 152.732 247.761, 170.141 230.359 L 201.794 198.717 204.847 200.891 C 214.356 207.662, 227.935 210.836, 239.566 209.006 C 251.854 207.073, 268.514 197.476, 267.805 192.740 C 267.161 188.438, 264.629 188.460, 258.858 192.818 C 250.592 199.058, 244.760 201.284, 235.329 201.798 C 225.851 202.314, 215.551 199.733, 210.500 195.578 L 207.500 193.110 238.250 162.299 C 255.162 145.353, 269 130.793, 269 129.944 C 269 128.192, 267.103 126, 265.587 126 C 265.029 126, 250.550 139.997, 233.411 157.105 M 309.330 160.208 C 304.996 164.946, 303.540 169.173, 303.543 177 C 303.546 182.729, 304.049 185.445, 305.676 188.500 C 309.741 196.135, 314.762 198.919, 317.274 194.930 C 318.022 193.742, 317.405 192.237, 314.727 188.730 C 308.876 181.064, 308.831 172.844, 314.598 165.283 C 316.656 162.584, 317.070 161.332, 316.305 160.111 C 314.751 157.631, 311.649 157.674, 309.330 160.208 M 341.330 160.208 C 336.996 164.946, 335.540 169.173, 335.543 177 C 335.546 182.729, 336.049 185.445, 337.676 188.500 C 341.741 196.135, 346.762 198.919, 349.274 194.930 C 350.022 193.742, 349.405 192.237, 346.727 188.730 C 340.876 181.064, 340.831 172.844, 346.598 165.283 C 348.656 162.584, 349.070 161.332, 348.305 160.111 C 346.751 157.631, 343.649 157.674, 341.330 160.208 M 373.236 160.250 C 369.625 164.097, 367.044 171.079, 367.044 177 C 367.044 188.568, 377.263 201.982, 380.900 195.188 C 381.655 193.776, 381.059 192.212, 378.201 188.113 C 375.013 183.538, 374.533 182.098, 374.533 177.102 C 374.533 172.339, 375.076 170.519, 377.700 166.486 C 380.127 162.754, 380.640 161.196, 379.898 159.809 C 378.581 157.349, 375.786 157.534, 373.236 160.250 M 46 194 L 46 222 58 222 L 70 222 70 194 L 70 166 58 166 L 46 166 46 194 M 78 194 L 78 222 90 222 L 102 222 102 194 L 102 166 90 166 L 78 166 78 194 M 60.500 239 C 65.427 243.950, 69.580 248, 69.729 248 C 69.878 248, 70 243.950, 70 239 L 70 230 60.771 230 L 51.542 230 60.500 239 " stroke="none" fill="black" fill-rule="evenodd"/>
</svg>