<svg xmlns="http://www.w3.org/2000/svg" width="436" height="324" viewBox="0 0 436 324" version="1.1">
	<path d="M 40.372 62.765 C 38.418 64.037, 22.003 97.844, 22.593 99.381 C 23.268 101.141, 25.513 102.124, 27.295 101.440 C 28.007 101.167, 31.480 95.106, 35.014 87.972 C 38.547 80.837, 41.691 75, 42 75 C 42.309 75, 45.453 80.837, 48.986 87.972 C 52.520 95.106, 55.993 101.167, 56.705 101.440 C 58.487 102.124, 60.732 101.141, 61.407 99.381 C 61.716 98.575, 58.096 90.173, 53.363 80.708 C 45.638 65.261, 43.672 62.031, 42 62.031 C 41.725 62.031, 40.992 62.361, 40.372 62.765 M 135.285 159.230 C 116.978 177.506, 102 193.153, 102 194 C 102 195.757, 167.963 262, 169.713 262 C 171.191 262, 174 259.192, 174 257.715 C 174 257.087, 159.947 242.494, 142.771 225.287 L 111.542 194 142.771 162.713 C 159.947 145.506, 174 130.913, 174 130.285 C 174 128.808, 171.191 126, 169.713 126 C 169.084 126, 153.591 140.953, 135.285 159.230 M 199.285 159.230 C 180.978 177.506, 166 193.153, 166 194 C 166 195.674, 231.920 262, 233.585 262 C 235.251 262, 237 259.740, 237 257.587 C 237 256.282, 226.200 244.754, 206.272 224.787 L 175.543 194 206.272 163.213 C 226.200 143.246, 237 131.718, 237 130.413 C 237 128.260, 235.251 126, 233.585 126 C 233.026 126, 217.591 140.953, 199.285 159.230 M 33.384 159.412 C 15.475 163.758, 3.559 181.807, 6.987 199.396 C 9.923 214.467, 20.510 225.032, 35.660 228.013 C 46.748 230.194, 59.444 225.749, 67.399 216.901 C 85.210 197.091, 75.186 165.489, 49.147 159.360 C 42.397 157.772, 40.111 157.779, 33.384 159.412 M 31.054 167.728 C 25.018 169.859, 17.781 177.260, 15.667 183.463 C 11.995 194.241, 14.382 205.477, 21.952 213.048 C 32.761 223.857, 50.503 223.777, 61.125 212.872 C 71.768 201.945, 71.768 185.055, 61.125 174.128 C 53.628 166.432, 41.834 163.922, 31.054 167.728 M 263.579 191.564 C 261.598 193.545, 261.596 194.454, 263.571 196.429 C 264.838 197.695, 267.652 198, 278.071 198 C 285.182 198, 291 198.158, 291 198.351 C 291 200.310, 270.095 241.239, 267.615 244.137 C 262.628 249.963, 260.511 258.519, 263.452 260.960 C 266.004 263.079, 268.564 261.143, 271.571 254.822 C 275.379 246.816, 276.297 246, 281.495 246 C 286.852 246, 291.547 249.531, 292.501 254.277 C 293.627 259.875, 294.036 260.800, 295.665 261.425 C 299.666 262.960, 301.378 256.235, 298.649 249.702 C 296.778 245.224, 290.851 240.296, 285.763 238.988 C 283.418 238.385, 281.210 237.804, 280.856 237.696 C 280.502 237.588, 284.159 229.629, 288.982 220.009 L 297.752 202.518 312.338 231.677 C 320.361 247.714, 327.395 261.126, 327.971 261.482 C 330.261 262.897, 332.780 260.690, 335.571 254.822 C 339.373 246.829, 340.300 246, 345.437 246 C 352.061 246, 355.542 249.530, 357.410 258.140 C 358.631 263.767, 364 262.305, 364 256.345 C 364 248.664, 357.748 241.041, 349.763 238.988 C 347.418 238.385, 345.210 237.804, 344.856 237.696 C 344.502 237.588, 348.156 229.634, 352.977 220.020 L 361.741 202.540 376.621 232.020 C 385.916 250.437, 392.111 261.613, 393.129 261.800 C 395.561 262.248, 398 259.258, 398 255.829 C 398 253.718, 399.030 251.770, 401.400 249.400 C 404.231 246.569, 405.533 246, 409.177 246 C 411.585 246, 414.558 246.702, 415.783 247.561 C 418.566 249.510, 421 254.108, 421 257.415 C 421 260.560, 424.417 262.729, 426.564 260.947 C 428.373 259.446, 428.415 253.928, 426.649 249.702 C 423.696 242.636, 413.676 237.049, 406.666 238.561 C 402.002 239.567, 396.349 242.664, 394.589 245.176 C 393.740 246.388, 392.861 247.181, 392.634 246.940 C 392.408 246.698, 386.777 235.600, 380.122 222.278 L 368.020 198.056 381.653 197.778 C 393.361 197.539, 395.441 197.253, 396.388 195.750 C 397.191 194.475, 397.190 193.525, 396.386 192.250 C 395.356 190.617, 390.934 190.483, 330.220 190.243 C 272.058 190.013, 264.990 190.153, 263.579 191.564 M 316.107 222.250 C 322.771 235.588, 328.387 246.676, 328.586 246.892 C 329.623 248.009, 334.126 240.389, 344.031 220.759 C 350.064 208.801, 355 198.788, 355 198.509 C 355 198.229, 343.523 198, 329.496 198 L 303.992 198 316.107 222.250 " stroke="none" fill="black" fill-rule="evenodd"/>
</svg>