<svg xmlns="http://www.w3.org/2000/svg" width="436" height="324" viewBox="0 0 436 324" version="1.1">
	<path d="M 35.045 127.092 C 24.744 129.112, 14.837 136.518, 10.151 145.705 C 7.578 150.747, 5.616 161.395, 6.828 163.738 C 7.329 164.707, 8.525 169.100, 9.484 173.500 C 14.997 198.781, 28.030 222.125, 46.649 240.065 C 55.769 248.853, 71.103 260, 74.070 260 C 75.196 260, 77.778 258.733, 79.809 257.185 C 81.839 255.636, 86.988 251.763, 91.250 248.578 C 114.809 230.976, 132.816 201.755, 138.913 171.234 C 140.415 163.715, 140.654 160.266, 139.962 156.078 C 136.330 134.093, 113.566 120.989, 92.798 128.928 C 86.373 131.384, 78.359 138.062, 75.529 143.317 L 73.640 146.824 70.995 142.662 C 65.716 134.353, 57.568 128.946, 47.535 127.091 C 40.969 125.877, 41.243 125.877, 35.045 127.092 M 167.571 127.571 C 166.207 128.935, 166 133.425, 166 161.577 L 166 194.012 150.016 225.967 C 141.225 243.542, 134.285 258.580, 134.594 259.384 C 135.265 261.133, 137.512 262.124, 139.274 261.448 C 139.975 261.180, 147.056 247.919, 155.010 231.980 C 162.964 216.041, 169.717 203, 170.016 203 C 170.315 203, 177.071 216.093, 185.030 232.095 C 192.988 248.098, 199.842 261.402, 200.259 261.660 C 202.839 263.255, 205.516 259.019, 218.996 232.009 C 226.958 216.054, 233.710 203, 234 203 C 234.290 203, 241.036 216.041, 248.990 231.980 C 256.944 247.919, 264.083 261.201, 264.853 261.497 C 266.717 262.213, 269 260.217, 269 257.871 C 269 256.835, 262.025 242.043, 253.500 225 L 238 194.012 238 162.229 C 238 135.080, 237.773 130.121, 236.443 128.223 C 234.598 125.588, 233.678 125.465, 231.571 127.571 C 230.207 128.935, 230 133.424, 230 161.567 L 230 193.991 216.258 221.495 C 208.701 236.623, 202.284 249, 202 249 C 201.716 249, 195.299 236.623, 187.742 221.495 L 174 193.991 174 161.650 C 174 131.590, 173.871 129.193, 172.171 127.655 C 169.915 125.613, 169.537 125.606, 167.571 127.571 M 327.571 127.571 C 326.208 128.934, 326 133.378, 326 161.067 L 326 192.992 309.756 225.498 C 296.425 252.176, 293.710 258.317, 294.615 259.752 C 295.643 261.382, 300.072 261.519, 360.109 261.776 C 395.524 261.928, 425.463 261.819, 426.640 261.535 C 427.817 261.250, 429.047 260.321, 429.373 259.470 C 429.722 258.560, 423.177 244.347, 413.484 224.967 L 397 192.012 397 160.128 C 397 133.638, 396.757 128.043, 395.564 127.053 C 394.498 126.168, 393.596 126.146, 392.064 126.966 C 390.044 128.047, 390 128.759, 390 160.542 L 390 193.014 375.867 221.257 L 361.734 249.500 347.367 220.690 L 333 191.880 333 160.140 C 333 136.787, 332.683 128.083, 331.800 127.200 C 330.219 125.619, 329.457 125.685, 327.571 127.571 M 31.054 135.728 C 24.820 137.929, 17.726 145.300, 15.557 151.828 C 14.045 156.381, 13.979 157.954, 15.032 164.270 C 20.746 198.525, 39.651 228.764, 67.165 247.660 L 73.830 252.237 81.647 246.869 C 106.364 229.892, 125.112 201.366, 131.495 171.022 C 133.741 160.345, 133.447 156.214, 129.940 149.196 C 125.018 139.347, 116.437 134, 105.552 134 C 91.078 134, 80.126 143.563, 78.163 157.916 C 77.355 163.825, 76.081 165.949, 73.321 165.985 C 71.127 166.013, 69 162.874, 69 159.607 C 69 149.949, 60.912 138.862, 51.537 135.667 C 45.516 133.616, 36.964 133.641, 31.054 135.728 M 316.743 228.500 L 304.005 254 329.503 254 C 343.526 254, 355 253.772, 355 253.492 C 355 252.827, 330.070 203, 329.737 203 C 329.597 203, 323.750 214.475, 316.743 228.500 M 380.743 228.500 L 368.005 254 393.503 254 C 407.526 254, 419 253.772, 419 253.492 C 419 252.827, 394.070 203, 393.737 203 C 393.597 203, 387.750 214.475, 380.743 228.500 " stroke="none" fill="black" fill-rule="evenodd"/>
</svg>