<svg xmlns="http://www.w3.org/2000/svg" width="756" height="324" viewBox="0 0 756 324" version="1.1">
	<path d="M 71.571 127.571 C 70.176 128.966, 70 136.152, 70 191.571 L 70 254 39.571 254 C 13.242 254, 8.931 254.212, 7.571 255.571 C 5.598 257.545, 5.598 258.455, 7.571 260.429 C 8.968 261.825, 16.372 262, 74 262 C 131.628 262, 139.032 261.825, 140.429 260.429 C 142.402 258.455, 142.402 257.545, 140.429 255.571 C 139.069 254.212, 134.758 254, 108.429 254 L 78 254 78 226 L 78 198 108.429 198 C 134.758 198, 139.069 197.788, 140.429 196.429 C 141.793 195.064, 142 190.537, 142 162 C 142 133.463, 141.793 128.936, 140.429 127.571 C 139.064 126.207, 134.537 126, 106 126 C 77.463 126, 72.936 126.207, 71.571 127.571 M 511.102 127.108 C 485.640 130.961, 463.155 151.450, 456.349 177 C 454.078 185.527, 454.091 201.277, 456.377 210 C 459.585 222.239, 464.558 230.636, 474.461 240.535 C 488.487 254.554, 502.258 260.346, 521.500 260.319 C 540.859 260.291, 554.540 254.538, 568.539 240.539 C 582.606 226.472, 588.333 212.862, 588.333 193.500 C 588.333 174.138, 582.606 160.528, 568.539 146.461 C 558.823 136.745, 550.203 131.569, 538.831 128.621 C 531.080 126.612, 518.806 125.942, 511.102 127.108 M 671.102 127.108 C 645.640 130.961, 623.155 151.450, 616.349 177 C 614.078 185.527, 614.091 201.277, 616.377 210 C 619.585 222.239, 624.558 230.636, 634.461 240.535 C 648.487 254.554, 662.258 260.346, 681.500 260.319 C 700.859 260.291, 714.540 254.538, 728.539 240.539 C 742.606 226.472, 748.333 212.862, 748.333 193.500 C 748.333 174.138, 742.606 160.528, 728.539 146.461 C 718.823 136.745, 710.203 131.569, 698.831 128.621 C 691.080 126.612, 678.806 125.942, 671.102 127.108 M 78 162 L 78 190 106 190 L 134 190 134 162 L 134 134 106 134 L 78 134 78 162 M 506.645 135.584 C 486.671 140.419, 468.279 158.986, 463.537 179.103 C 458.672 199.742, 464.569 220.600, 479.484 235.516 C 494.400 250.431, 515.258 256.328, 535.897 251.463 C 556.261 246.662, 574.662 228.261, 579.463 207.897 C 581.390 199.718, 581.390 187.282, 579.463 179.103 C 574.662 158.739, 556.261 140.338, 535.897 135.537 C 527.998 133.676, 514.439 133.697, 506.645 135.584 M 666.645 135.584 C 646.671 140.419, 628.279 158.986, 623.537 179.103 C 618.672 199.742, 624.569 220.600, 639.484 235.516 C 663.063 259.094, 699.937 259.094, 723.516 235.516 C 738.431 220.600, 744.328 199.742, 739.463 179.103 C 734.662 158.739, 716.261 140.338, 695.897 135.537 C 687.998 133.676, 674.439 133.697, 666.645 135.584 M 535.571 159.571 C 534.707 160.436, 534 161.640, 534 162.249 C 534 162.857, 540.844 170.250, 549.208 178.677 L 564.416 194 549.208 209.323 C 540.844 217.750, 534 225.143, 534 225.751 C 534 227.200, 536.827 230, 538.290 230 C 539.969 230, 574 195.693, 574 194 C 574 192.307, 539.969 158, 538.290 158 C 537.659 158, 536.436 158.707, 535.571 159.571 M 647.282 175.282 C 637.777 184.787, 630 193.210, 630 194 C 630 195.693, 664.031 230, 665.710 230 C 667.173 230, 670 227.200, 670 225.751 C 670 225.143, 663.156 217.750, 654.792 209.323 L 639.584 194 654.792 178.677 C 663.156 170.250, 670 162.857, 670 162.249 C 670 160.800, 667.173 158, 665.710 158 C 665.079 158, 656.787 165.777, 647.282 175.282 M 288.500 190.944 C 272.656 193.509, 262.142 198.833, 250.916 209.978 C 239.076 221.731, 233 233.406, 231.196 247.870 L 230.493 253.500 199.209 254 C 172.866 254.421, 167.775 254.737, 166.978 256 C 165.681 258.053, 165.756 258.613, 167.571 260.429 C 168.936 261.793, 173.463 262, 202 262 C 239.138 262, 238 262.238, 238 254.478 C 238 241.343, 244.860 225.930, 255.395 215.395 C 266.853 203.936, 281.222 198, 297.500 198 C 307.696 198, 314.060 199.495, 324 204.225 C 342.844 213.193, 357 234.749, 357 254.478 C 357 262.246, 355.804 262, 393.500 262 C 422.491 262, 427.063 261.794, 428.429 260.429 C 430.244 258.613, 430.319 258.053, 429.022 256 C 428.224 254.736, 423.079 254.421, 396.291 254 L 364.507 253.500 363.804 247.870 C 362 233.408, 355.925 221.734, 344.084 209.974 C 334.745 200.699, 325.863 195.488, 314.500 192.618 C 306.811 190.676, 294.896 189.909, 288.500 190.944 " stroke="none" fill="black" fill-rule="evenodd"/>
</svg>