<svg xmlns="http://www.w3.org/2000/svg" width="372" height="324" viewBox="0 0 372 324" version="1.1">
	<path d="M 72.372 62.765 C 70.418 64.037, 54.003 97.844, 54.593 99.381 C 55.268 101.141, 57.513 102.124, 59.295 101.440 C 60.007 101.167, 63.480 95.106, 67.014 87.972 C 70.547 80.837, 73.691 75, 74 75 C 74.309 75, 77.453 80.837, 80.986 87.972 C 84.520 95.106, 87.993 101.167, 88.705 101.440 C 90.487 102.124, 92.732 101.141, 93.407 99.381 C 93.716 98.575, 90.096 90.173, 85.363 80.708 C 77.638 65.261, 75.672 62.031, 74 62.031 C 73.725 62.031, 72.992 62.361, 72.372 62.765 M 63.102 127.108 C 37.633 130.963, 15.059 151.541, 8.374 177 C 6.113 185.610, 6.113 201.390, 8.374 210 C 11.590 222.248, 16.560 230.638, 26.461 240.535 C 40.487 254.554, 54.258 260.346, 73.500 260.319 C 92.859 260.291, 106.540 254.538, 120.539 240.539 C 130.907 230.171, 135.849 221.502, 138.516 209 C 139.396 204.875, 140.469 199.845, 140.900 197.823 C 142.296 191.270, 138.406 173.519, 133.282 163.060 C 128.079 152.441, 114.572 138.924, 104 133.756 C 91.088 127.445, 76.522 125.077, 63.102 127.108 M 58.645 135.584 C 38.671 140.419, 20.279 158.986, 15.537 179.103 C 10.672 199.742, 16.569 220.600, 31.484 235.516 C 50.169 254.200, 77.998 258.470, 101.397 246.243 C 115.565 238.839, 127.867 223.149, 131.463 207.897 C 134.053 196.908, 137.186 198, 103.071 198 C 77.197 198, 72.930 197.787, 71.571 196.429 C 70.212 195.069, 70 190.758, 70 164.429 L 70 134 67.250 134.083 C 65.737 134.129, 61.865 134.804, 58.645 135.584 M 78 162 L 78 190 105.500 190 L 133 190 132.985 187.750 C 132.977 186.512, 132.292 182.621, 131.463 179.103 C 126.662 158.739, 108.261 140.338, 87.897 135.537 C 76.926 132.951, 78 130.080, 78 162 M 263.571 159.571 C 262.707 160.436, 262 161.636, 262 162.239 C 262 162.841, 267.941 169.334, 275.202 176.667 L 288.405 190 228.774 190 C 175.897 190, 168.965 190.178, 167.571 191.571 C 165.598 193.545, 165.598 194.455, 167.571 196.429 C 168.965 197.822, 175.897 198, 228.774 198 L 288.405 198 275.202 211.333 C 267.941 218.666, 262 225.159, 262 225.761 C 262 227.187, 264.825 230, 266.257 230 C 268.006 230, 302 195.761, 302 194 C 302 192.239, 268.006 158, 266.257 158 C 265.644 158, 264.436 158.707, 263.571 159.571 M 327.571 159.571 C 326.227 160.916, 326 164.736, 326 186 C 326 207.264, 326.227 211.084, 327.571 212.429 C 328.436 213.293, 329.529 214, 330 214 C 330.471 214, 331.564 213.293, 332.429 212.429 C 333.773 211.084, 334 207.264, 334 186 C 334 164.736, 333.773 160.916, 332.429 159.571 C 331.564 158.707, 330.471 158, 330 158 C 329.529 158, 328.436 158.707, 327.571 159.571 M 327.571 222.571 C 326.707 223.436, 326 224.529, 326 225 C 326 226.111, 328.889 229, 330 229 C 331.111 229, 334 226.111, 334 225 C 334 223.889, 331.111 221, 330 221 C 329.529 221, 328.436 221.707, 327.571 222.571 " stroke="none" fill="black" fill-rule="evenodd"/>
</svg>