<svg xmlns="http://www.w3.org/2000/svg" width="403" height="324" viewBox="0 0 403 324" version="1.1">
	<path d="M 39.267 159.267 C 20.970 177.563, 6 193.056, 6 193.695 C 6 195.187, 8.799 198, 10.285 198 C 10.913 198, 25.506 183.947, 42.713 166.771 L 74 135.542 105.287 166.771 C 122.494 183.947, 137.029 198, 137.587 198 C 139.146 198, 141 195.789, 141 193.928 C 141 191.827, 76.035 125.909, 74.017 125.961 C 73.201 125.983, 57.563 140.970, 39.267 159.267 M 328.500 158 L 296.512 190 232.827 190 C 176.266 190, 168.967 190.176, 167.571 191.571 C 165.598 193.545, 165.598 194.455, 167.571 196.429 C 168.838 197.695, 171.652 198, 182.071 198 C 189.182 198, 195 198.228, 195 198.507 C 195 198.785, 188.456 212.096, 180.457 228.085 C 171.071 246.850, 166.121 257.805, 166.496 258.986 C 167.266 261.413, 169.895 262.332, 171.726 260.813 C 172.535 260.141, 179.622 246.749, 187.474 231.052 L 201.750 202.514 216.337 231.674 C 224.360 247.713, 231.395 261.126, 231.971 261.482 C 234.970 263.336, 237.159 259.931, 250.937 231.989 C 258.798 216.045, 265.402 203, 265.612 203 C 265.822 203, 272.492 215.991, 280.435 231.869 C 288.535 248.062, 295.617 261.023, 296.565 261.386 C 298.495 262.127, 301 260.424, 301 258.371 C 301 257.610, 294.475 243.943, 286.500 228 C 278.525 212.057, 272 198.785, 272 198.507 C 272 198.228, 277.965 198, 285.256 198 L 298.512 198 329.983 166.517 L 361.455 135.033 377.134 150.602 C 391.325 164.693, 393.012 166.064, 394.906 165.050 C 396.058 164.434, 397 163.153, 397 162.204 C 397 160.413, 363.241 126, 361.484 126 C 360.936 126, 346.094 140.400, 328.500 158 M 220.608 223.250 C 227.546 237.137, 233.371 248.661, 233.553 248.859 C 233.878 249.211, 259 199.502, 259 198.508 C 259 198.228, 247.523 198, 233.496 198 L 207.992 198 220.608 223.250 M 327.315 239.213 C 317.792 248.680, 310 257.134, 310 258 C 310 259.680, 343.953 294, 345.615 294 C 347.105 294, 349 291.795, 349 290.062 C 349 289.216, 342.143 281.656, 333.762 273.262 L 318.524 258 333.762 242.738 C 342.143 234.344, 349 226.784, 349 225.938 C 349 224.205, 347.105 222, 345.615 222 C 345.073 222, 336.838 229.746, 327.315 239.213 " stroke="none" fill="black" fill-rule="evenodd"/>
</svg>