<svg xmlns="http://www.w3.org/2000/svg" width="500" height="324" viewBox="0 0 500 324" version="1.1">
	<path d="M 135.230 159.285 C 116.953 177.591, 102 193.084, 102 193.713 C 102 195.193, 104.800 197.991, 106.321 198.032 C 106.970 198.049, 121.460 183.881, 138.522 166.548 L 169.545 135.032 200.022 165.579 C 216.785 182.379, 231.316 196.578, 232.314 197.132 C 234.597 198.399, 237.226 196.470, 236.798 193.842 C 236.468 191.813, 171.197 126, 169.515 126 C 168.935 126, 153.506 140.978, 135.230 159.285 M 424.500 158 L 392.512 190 329.190 190 C 287.453 190, 265.209 190.353, 263.934 191.035 C 262.870 191.605, 262 192.939, 262 194 C 262 197.203, 265.276 198, 278.434 198 C 285.345 198, 291 198.228, 291 198.507 C 291 198.785, 284.475 212.057, 276.500 228 C 268.525 243.943, 262 257.649, 262 258.458 C 262 260.785, 265.808 262.404, 267.663 260.865 C 268.507 260.164, 275.622 246.749, 283.474 231.052 L 297.750 202.514 312.399 231.797 C 320.455 247.903, 327.746 261.349, 328.601 261.677 C 329.456 262.005, 330.763 261.649, 331.506 260.887 C 332.249 260.124, 339.183 246.787, 346.915 231.250 C 354.648 215.713, 361.203 203, 361.484 203 C 361.764 203, 368.492 215.991, 376.435 231.869 C 384.535 248.062, 391.617 261.023, 392.565 261.386 C 394.495 262.127, 397 260.424, 397 258.371 C 397 257.610, 390.475 243.943, 382.500 228 C 374.525 212.057, 368 198.785, 368 198.507 C 368 198.228, 373.965 198, 381.256 198 L 394.512 198 425.983 166.517 L 457.455 135.033 473.134 150.602 C 487.325 164.693, 489.012 166.064, 490.906 165.050 C 492.058 164.434, 493 163.153, 493 162.204 C 493 160.413, 459.241 126, 457.484 126 C 456.936 126, 442.094 140.400, 424.500 158 M 7.571 191.571 C 6.707 192.436, 6 193.529, 6 194 C 6 194.471, 6.707 195.564, 7.571 196.429 C 8.855 197.712, 11.788 198, 23.571 198 L 38 198 38 228.429 C 38 254.758, 38.212 259.069, 39.571 260.429 C 41.545 262.402, 42.455 262.402, 44.429 260.429 C 45.788 259.069, 46 254.758, 46 228.429 L 46 198 60.429 198 C 72.212 198, 75.145 197.712, 76.429 196.429 C 77.293 195.564, 78 194.471, 78 194 C 78 193.529, 77.293 192.436, 76.429 191.571 C 75.064 190.207, 70.537 190, 42 190 C 13.463 190, 8.936 190.207, 7.571 191.571 M 316.556 223.192 C 323.428 237.048, 329.238 248.572, 329.467 248.801 C 329.852 249.185, 355 199.648, 355 198.508 C 355 198.228, 343.539 198, 329.530 198 L 304.061 198 316.556 223.192 M 423.315 239.213 C 413.792 248.680, 406 257.134, 406 258 C 406 259.680, 439.953 294, 441.615 294 C 443.105 294, 445 291.795, 445 290.062 C 445 289.216, 438.143 281.656, 429.762 273.262 L 414.524 258 429.762 242.738 C 438.143 234.344, 445 226.784, 445 225.938 C 445 224.205, 443.105 222, 441.615 222 C 441.073 222, 432.838 229.746, 423.315 239.213 " stroke="none" fill="black" fill-rule="evenodd"/>
</svg>