<svg xmlns="http://www.w3.org/2000/svg" width="403" height="324" viewBox="0 0 403 324" version="1.1">
	<path d="M 322.355 158.998 C 312.040 161.143, 302.046 169.099, 297.244 178.987 C 294.948 183.715, 294.567 185.781, 294.567 193.500 C 294.567 201.219, 294.948 203.285, 297.244 208.013 C 307.182 228.479, 331.763 234.661, 350.176 221.325 C 368.510 208.046, 368.435 179.033, 350.033 165.525 C 342.036 159.654, 331.336 157.131, 322.355 158.998 M 317.500 168.353 C 311.873 170.979, 305.871 177.089, 303.378 182.728 C 302.340 185.077, 301.711 189.141, 301.711 193.500 C 301.711 201.703, 303.431 206.254, 308.773 212.179 C 319.638 224.232, 338.403 224.034, 349.683 211.746 C 353.999 207.045, 357 199.561, 357 193.500 C 357 183.480, 349.989 172.797, 340.500 168.358 C 333.632 165.146, 324.377 165.144, 317.500 168.353 M 7.579 191.564 C 5.598 193.545, 5.596 194.454, 7.571 196.429 C 8.844 197.701, 11.697 198, 22.576 198 L 36.009 198 25.111 219.750 C 19.118 231.713, 12.817 243.248, 11.109 245.385 C 6.077 251.681, 4.752 259.923, 8.538 261.376 C 11.159 262.382, 12.628 261.009, 15.587 254.788 C 19.396 246.781, 20.292 246, 25.671 246 C 29.488 246, 30.734 246.534, 33.600 249.400 C 35.970 251.770, 37 253.718, 37 255.829 C 37 258.643, 39.130 262, 40.916 262 C 41.342 262, 42.438 261.173, 43.353 260.163 C 45.171 258.153, 44.794 253.650, 42.408 248.898 C 39.692 243.488, 31.099 238.032, 25.254 238.006 C 24.542 238.002, 27.753 230.495, 32.740 220.500 C 37.544 210.875, 41.718 203, 42.016 203 C 42.315 203, 49.071 216.093, 57.030 232.095 C 64.988 248.098, 71.842 261.402, 72.259 261.660 C 74.261 262.898, 76.907 260.423, 79.571 254.822 C 83.397 246.778, 84.289 246, 89.671 246 C 93.488 246, 94.734 246.534, 97.600 249.400 C 99.970 251.770, 101 253.718, 101 255.829 C 101 258.612, 103.126 262, 104.871 262 C 107.998 262, 108.972 255.262, 106.649 249.702 C 104.216 243.880, 95.522 238.034, 89.254 238.006 C 88.542 238.002, 91.753 230.495, 96.740 220.500 C 101.544 210.875, 105.715 203, 106.010 203 C 106.305 203, 113.101 216.162, 121.113 232.250 C 129.625 249.342, 136.319 261.625, 137.219 261.800 C 139.563 262.257, 142 259.214, 142 255.829 C 142 253.718, 143.030 251.770, 145.400 249.400 C 148.264 246.536, 149.512 246, 153.323 246 C 158.859 246, 163.532 249.460, 164.501 254.277 C 165.627 259.875, 166.036 260.800, 167.665 261.425 C 170.076 262.350, 172 260.139, 172 256.443 C 172 242.530, 156.146 234.036, 143.743 241.305 C 141.177 242.808, 138.644 244.814, 138.114 245.761 C 137.584 246.708, 136.941 247.262, 136.686 246.992 C 136.432 246.721, 130.777 235.600, 124.122 222.278 L 112.020 198.056 125.653 197.778 C 137.361 197.539, 139.441 197.253, 140.388 195.750 C 141.191 194.475, 141.190 193.525, 140.386 192.250 C 139.356 190.617, 134.934 190.483, 74.220 190.243 C 16.058 190.013, 8.990 190.153, 7.579 191.564 M 199.750 191.080 C 198.787 191.641, 198 192.859, 198 193.788 C 198 194.717, 204.857 202.344, 213.238 210.738 L 228.476 226 213.238 241.262 C 204.857 249.656, 198 257.290, 198 258.227 C 198 259.163, 198.960 260.443, 200.132 261.071 C 202.079 262.113, 203.624 260.855, 217.895 246.605 L 233.524 230.998 248.012 245.564 C 255.980 253.576, 263.316 260.582, 264.314 261.135 C 266.445 262.314, 269 260.681, 269 258.139 C 269 257.251, 262.143 249.656, 253.762 241.262 L 238.524 226 253.762 210.738 C 262.143 202.344, 269 194.784, 269 193.938 C 269 192.207, 267.106 190, 265.621 190 C 265.082 190, 257.623 196.969, 249.045 205.486 L 233.449 220.973 217.987 205.486 C 209.482 196.969, 202.294 190.014, 202.012 190.030 C 201.730 190.047, 200.713 190.519, 199.750 191.080 M 327.724 191.134 C 323.838 193.309, 327.294 198.983, 331.224 196.880 C 332.201 196.357, 333 195.061, 333 194 C 333 191.485, 330.005 189.858, 327.724 191.134 M 391.724 191.134 C 387.838 193.309, 391.294 198.983, 395.224 196.880 C 396.201 196.357, 397 195.061, 397 194 C 397 191.485, 394.005 189.858, 391.724 191.134 M 60.107 222.250 C 66.771 235.588, 72.418 246.707, 72.656 246.961 C 73.826 248.207, 79.055 239.519, 89.032 219.750 L 100.009 198 74 198 L 47.992 198 60.107 222.250 " stroke="none" fill="black" fill-rule="evenodd"/>
</svg>