<svg xmlns="http://www.w3.org/2000/svg" width="180" height="324" viewBox="0 0 180 324" version="1.1">
	<path d="M 119.571 63.571 C 118.707 64.436, 118 65.332, 118 65.564 C 118 67.123, 135.710 101.058, 136.727 101.449 C 137.427 101.717, 138.573 101.717, 139.273 101.449 C 141.129 100.736, 158.063 66.328, 157.403 64.609 C 156.732 62.858, 154.483 61.877, 152.705 62.560 C 151.993 62.833, 148.520 68.894, 144.986 76.028 C 141.453 83.163, 138.308 89, 137.997 89 C 137.687 89, 134.748 83.534, 131.467 76.853 C 123.925 61.499, 122.847 60.296, 119.571 63.571 M 129.384 159.412 C 111.475 163.758, 99.559 181.807, 102.987 199.396 C 108.468 227.526, 142.025 238.135, 162.080 218.080 C 181.586 198.574, 172.109 165.706, 145.147 159.360 C 138.397 157.772, 136.111 157.779, 129.384 159.412 M 127.054 167.728 C 121.018 169.859, 113.781 177.260, 111.667 183.463 C 105.198 202.450, 117.964 221, 137.500 221 C 153.108 221, 165 209.108, 165 193.500 C 165 177.670, 152.965 165.854, 137.072 166.079 C 134.007 166.122, 129.499 166.864, 127.054 167.728 M 7.571 191.571 C 6.707 192.436, 6 193.529, 6 194 C 6 194.471, 6.707 195.564, 7.571 196.429 C 8.936 197.793, 13.463 198, 42 198 C 70.537 198, 75.064 197.793, 76.429 196.429 C 77.293 195.564, 78 194.471, 78 194 C 78 193.529, 77.293 192.436, 76.429 191.571 C 75.064 190.207, 70.537 190, 42 190 C 13.463 190, 8.936 190.207, 7.571 191.571 M 135.571 191.571 C 134.707 192.436, 134 193.529, 134 194 C 134 194.471, 134.707 195.564, 135.571 196.429 C 136.436 197.293, 137.529 198, 138 198 C 138.471 198, 139.564 197.293, 140.429 196.429 C 141.293 195.564, 142 194.471, 142 194 C 142 193.529, 141.293 192.436, 140.429 191.571 C 139.564 190.707, 138.471 190, 138 190 C 137.529 190, 136.436 190.707, 135.571 191.571 " stroke="none" fill="black" fill-rule="evenodd"/>
</svg>