<svg xmlns="http://www.w3.org/2000/svg" width="564" height="324" viewBox="0 0 564 324" version="1.1">
	<path d="M 7.571 127.571 C 6.175 128.968, 6 136.372, 6 194 C 6 251.628, 6.175 259.032, 7.571 260.429 C 9.386 262.244, 9.946 262.319, 12 261.023 C 13.204 260.264, 13.599 256.693, 14 242.906 L 14.500 225.735 17.769 230.786 C 25.790 243.182, 41.911 254.631, 57 258.651 C 65.527 260.922, 81.277 260.909, 90 258.623 C 105.502 254.560, 121.089 243.276, 129.965 229.693 L 134 223.517 134 241.187 C 134 255.917, 134.261 259.119, 135.571 260.429 C 137.545 262.402, 138.455 262.402, 140.429 260.429 C 141.825 259.032, 142 251.628, 142 194 C 142 136.372, 141.825 128.968, 140.429 127.571 C 139.564 126.707, 138.471 126, 138 126 C 137.529 126, 136.436 126.707, 135.571 127.571 C 134.265 128.878, 134 132.037, 134 146.313 L 134 163.483 129.965 157.307 C 124.214 148.506, 112.622 138.039, 103.806 133.687 C 93.292 128.497, 85.255 126.624, 73.500 126.624 C 61.745 126.624, 53.708 128.497, 43.194 133.687 C 34.777 137.842, 22.778 148.473, 17.769 156.214 L 14.500 161.265 14 144.594 C 13.600 131.252, 13.200 127.734, 12 126.977 C 9.946 125.681, 9.386 125.757, 7.571 127.571 M 199.571 127.571 C 198.175 128.968, 198 136.372, 198 194 C 198 251.628, 198.175 259.032, 199.571 260.429 C 200.436 261.293, 201.529 262, 202 262 C 202.471 262, 203.564 261.293, 204.429 260.429 C 205.825 259.032, 206 251.628, 206 194 C 206 136.372, 205.825 128.968, 204.429 127.571 C 203.564 126.707, 202.471 126, 202 126 C 201.529 126, 200.436 126.707, 199.571 127.571 M 285.500 127.401 C 270.645 130.266, 259.144 136.774, 248.168 148.528 C 236.277 161.260, 230.624 175.751, 230.624 193.500 C 230.624 205.255, 232.497 213.292, 237.687 223.806 C 242.039 232.622, 252.506 244.214, 261.307 249.965 L 267.483 254 250.313 254 C 236.037 254, 232.878 254.265, 231.571 255.571 C 229.598 257.545, 229.598 258.455, 231.571 260.429 C 232.968 261.825, 240.372 262, 298 262 C 355.628 262, 363.032 261.825, 364.429 260.429 C 365.293 259.564, 366 258.471, 366 258 C 366 257.529, 365.293 256.436, 364.429 255.571 C 363.119 254.261, 359.917 254, 345.187 254 L 327.517 254 333.693 249.965 C 342.494 244.214, 352.961 232.622, 357.313 223.806 C 362.458 213.383, 364.333 205.288, 364.333 193.500 C 364.333 181.692, 362.469 173.665, 357.249 163 C 352.083 152.445, 338.546 138.911, 328 133.756 C 314.332 127.076, 299.043 124.790, 285.500 127.401 M 407.213 143.315 C 397.746 152.838, 390 161.131, 390 161.743 C 390 163.175, 392.813 166, 394.239 166 C 394.841 166, 401.334 160.059, 408.667 152.798 L 422 139.595 422 199.226 C 422 252.103, 422.178 259.035, 423.571 260.429 C 424.436 261.293, 425.529 262, 426 262 C 426.471 262, 427.564 261.293, 428.429 260.429 C 429.822 259.035, 430 252.103, 430 199.226 L 430 139.595 443.333 152.798 C 450.666 160.059, 457.159 166, 457.761 166 C 459.187 166, 462 163.175, 462 161.743 C 462 159.994, 427.761 126, 426 126 C 425.134 126, 416.680 133.792, 407.213 143.315 M 519.571 127.571 C 518.288 128.855, 518 131.788, 518 143.571 L 518 158 503.571 158 C 491.788 158, 488.855 158.288, 487.571 159.571 C 485.598 161.545, 485.598 162.455, 487.571 164.429 C 488.855 165.712, 491.788 166, 503.571 166 L 518 166 518 212.429 C 518 253.303, 518.188 259.045, 519.571 260.429 C 520.436 261.293, 521.529 262, 522 262 C 522.471 262, 523.564 261.293, 524.429 260.429 C 525.812 259.045, 526 253.303, 526 212.429 L 526 166 540.429 166 C 552.212 166, 555.145 165.712, 556.429 164.429 C 558.402 162.455, 558.402 161.545, 556.429 159.571 C 555.145 158.288, 552.212 158, 540.429 158 L 526 158 526 143.571 C 526 131.788, 525.712 128.855, 524.429 127.571 C 523.564 126.707, 522.471 126, 522 126 C 521.529 126, 520.436 126.707, 519.571 127.571 M 58.645 135.584 C 38.671 140.419, 20.279 158.986, 15.537 179.103 C 10.672 199.742, 16.569 220.600, 31.484 235.516 C 55.022 259.054, 92.029 259.068, 115.548 235.548 C 121.127 229.970, 123.723 226.362, 126.809 219.899 C 130.355 212.473, 133 203.737, 133 199.451 C 133 198.215, 128.557 198, 103.071 198 C 77.197 198, 72.930 197.787, 71.571 196.429 C 70.212 195.069, 70 190.758, 70 164.429 L 70 134 67.250 134.083 C 65.737 134.129, 61.865 134.804, 58.645 135.584 M 78 162 L 78 190 105.500 190 L 133 190 132.985 187.750 C 132.977 186.512, 132.292 182.621, 131.463 179.103 C 126.662 158.739, 108.261 140.338, 87.897 135.537 C 76.926 132.951, 78 130.080, 78 162 M 282.645 135.584 C 262.671 140.419, 244.279 158.986, 239.537 179.103 C 234.672 199.742, 240.569 220.600, 255.484 235.516 C 279.022 259.054, 316.029 259.068, 339.548 235.548 C 347.508 227.589, 353.851 216.212, 355.910 206.201 C 357.441 198.760, 357.241 186.646, 355.463 179.103 C 350.662 158.739, 332.261 140.338, 311.897 135.537 C 303.998 133.676, 290.439 133.697, 282.645 135.584 M 167.571 191.571 C 166.707 192.436, 166 193.529, 166 194 C 166 194.471, 166.707 195.564, 167.571 196.429 C 168.436 197.293, 169.529 198, 170 198 C 170.471 198, 171.564 197.293, 172.429 196.429 C 173.293 195.564, 174 194.471, 174 194 C 174 193.529, 173.293 192.436, 172.429 191.571 C 171.564 190.707, 170.471 190, 170 190 C 169.529 190, 168.436 190.707, 167.571 191.571 " stroke="none" fill="black" fill-rule="evenodd"/>
</svg>