<svg xmlns="http://www.w3.org/2000/svg" width="308" height="324" viewBox="0 0 308 324" version="1.1">
	<path d="M 231.247 191.253 C 195.361 227.142, 166 257.202, 166 258.053 C 166 261.988, 166.204 262, 233.500 262 C 282.800 262, 298.891 261.709, 299.800 260.800 C 300.709 259.891, 301 243.689, 301 194 C 301 127.689, 300.914 126, 297.547 126 C 296.968 126, 267.133 155.364, 231.247 191.253 M 236 196.500 L 178.507 254 236.253 254 L 294 254 294 196.500 C 294 164.875, 293.886 139, 293.747 139 C 293.607 139, 267.621 164.875, 236 196.500 M 39.750 159.080 C 38.336 159.904, 38 161.502, 38 167.410 L 38 174.721 33.111 175.300 C 22.341 176.576, 4.456 188.195, 5.204 193.430 C 5.738 197.166, 9.662 196.567, 14.627 191.990 C 19.564 187.439, 27.742 183.385, 34.003 182.384 L 38 181.744 38 204.837 C 38 226.645, 38.108 227.987, 39.934 228.965 C 42.388 230.278, 105.894 230.353, 107.961 229.045 C 109.066 228.346, 109.432 225.867, 109.461 218.895 L 109.500 209.669 115.227 208.363 C 126.255 205.848, 140.419 196.844, 139.805 192.740 C 139.178 188.551, 136.558 188.409, 131.803 192.305 C 126.745 196.450, 118.300 200.536, 112.687 201.554 L 108.874 202.246 109.081 181.021 C 109.248 163.797, 109.024 159.629, 107.893 158.913 C 105.901 157.651, 41.934 157.808, 39.750 159.080 M 46 170.364 L 46 174.728 50.647 175.365 C 58.238 176.406, 69.108 182.248, 74.632 188.256 C 81.065 195.253, 84.951 197.883, 92.181 200.133 C 102.741 203.420, 102 204.637, 102 184 L 102 166 74 166 L 46 166 46 170.364 M 46 202 L 46 222 74.048 222 L 102.095 222 101.798 215.834 L 101.500 209.668 95.059 208.358 C 85.801 206.475, 78.300 202.464, 72 196.027 C 68.975 192.936, 64.996 189.356, 63.158 188.070 C 60.235 186.026, 49.460 182, 46.911 182 C 46.393 182, 46 190.637, 46 202 " stroke="none" fill="black" fill-rule="evenodd"/>
</svg>