<svg xmlns="http://www.w3.org/2000/svg" width="276" height="324" viewBox="0 0 276 324" version="1.1">
	<path d="M 87.571 63.571 C 86.707 64.436, 86 65.332, 86 65.564 C 86 67.123, 103.710 101.058, 104.727 101.449 C 105.427 101.717, 106.573 101.717, 107.273 101.449 C 109.129 100.736, 126.063 66.328, 125.403 64.609 C 124.732 62.858, 122.483 61.877, 120.705 62.560 C 119.993 62.833, 116.520 68.894, 112.986 76.028 C 109.453 83.163, 106.308 89, 105.997 89 C 105.687 89, 102.748 83.534, 99.467 76.853 C 91.925 61.499, 90.847 60.296, 87.571 63.571 M 39.571 127.571 C 38.707 128.436, 38 129.335, 38 129.569 C 38 131.164, 103.738 261.069, 104.739 261.453 C 105.432 261.719, 106.568 261.719, 107.261 261.453 C 109.123 260.739, 174.060 130.320, 173.404 128.612 C 172.736 126.870, 170.487 125.876, 168.735 126.548 C 168.039 126.815, 153.755 154.476, 136.992 188.017 C 120.228 221.558, 106.282 249, 106 249 C 105.718 249, 91.990 221.941, 75.493 188.869 C 58.997 155.796, 44.905 128.121, 44.179 127.369 C 42.471 125.600, 41.500 125.643, 39.571 127.571 M 263.571 127.571 C 262.175 128.968, 262 136.372, 262 194 C 262 251.628, 262.175 259.032, 263.571 260.429 C 264.436 261.293, 265.529 262, 266 262 C 266.471 262, 267.564 261.293, 268.429 260.429 C 269.825 259.032, 270 251.628, 270 194 C 270 136.372, 269.825 128.968, 268.429 127.571 C 267.564 126.707, 266.471 126, 266 126 C 265.529 126, 264.436 126.707, 263.571 127.571 M 7.571 191.571 C 6.707 192.436, 6 193.529, 6 194 C 6 195.111, 8.889 198, 10 198 C 11.111 198, 14 195.111, 14 194 C 14 192.889, 11.111 190, 10 190 C 9.529 190, 8.436 190.707, 7.571 191.571 M 207.308 199.308 C 202.188 204.427, 198 209.120, 198 209.736 C 198 211.121, 200.789 214, 202.131 214 C 202.675 214, 205.568 211.685, 208.560 208.855 L 214 203.710 214 228.855 L 214 254 207.571 254 C 203.061 254, 200.674 254.469, 199.571 255.571 C 197.598 257.545, 197.598 258.455, 199.571 260.429 C 200.876 261.733, 204.009 262, 218 262 C 231.991 262, 235.124 261.733, 236.429 260.429 C 238.402 258.455, 238.402 257.545, 236.429 255.571 C 235.326 254.469, 232.939 254, 228.429 254 L 222 254 222 223.571 C 222 197.242, 221.788 192.931, 220.429 191.571 C 219.564 190.707, 218.353 190, 217.736 190 C 217.120 190, 212.427 194.188, 207.308 199.308 " stroke="none" fill="black" fill-rule="evenodd"/>
</svg>