<svg xmlns="http://www.w3.org/2000/svg" width="340" height="324" viewBox="0 0 340 324" version="1.1">
	<path d="M 168.500 158 L 136.512 190 72.827 190 C 16.266 190, 8.967 190.176, 7.571 191.571 C 5.598 193.545, 5.598 194.455, 7.571 196.429 C 8.844 197.701, 11.697 198, 22.575 198 L 36.006 198 21.020 227.961 C 12.777 244.439, 6.285 258.580, 6.594 259.384 C 7.265 261.133, 9.512 262.125, 11.274 261.448 C 11.975 261.180, 19.056 247.919, 27.010 231.980 C 34.964 216.041, 41.717 203, 42.016 203 C 42.315 203, 49.042 216.034, 56.965 231.964 C 64.888 247.894, 71.962 261.155, 72.685 261.433 C 73.408 261.710, 74.573 261.717, 75.274 261.448 C 75.975 261.180, 83.056 247.919, 91.010 231.980 C 98.964 216.041, 105.710 203, 106 203 C 106.290 203, 113.036 216.041, 120.990 231.980 C 128.944 247.919, 136.108 261.211, 136.909 261.519 C 137.711 261.826, 139.218 261.226, 140.260 260.185 C 142.117 258.328, 141.868 257.724, 127.073 228.146 L 111.994 198 125.710 198 L 139.427 198 170.703 166.782 L 201.979 135.563 217.312 150.782 C 225.746 159.152, 233.120 166, 233.700 166 C 235.290 166, 237.210 163.297, 236.833 161.591 C 236.405 159.655, 203.099 126, 201.611 126 C 200.993 126, 186.094 140.400, 168.500 158 M 294.611 192.250 C 293.822 193.488, 286.052 208.788, 277.345 226.252 C 264.358 252.298, 261.711 258.318, 262.615 259.752 C 263.621 261.348, 266.541 261.524, 296.109 261.779 C 313.924 261.933, 329.463 261.825, 330.640 261.538 C 331.817 261.252, 333.047 260.321, 333.373 259.470 C 333.990 257.862, 301.696 192.108, 299.630 190.765 C 297.647 189.476, 296.085 189.938, 294.611 192.250 M 60.743 223.500 C 67.750 237.525, 73.715 249, 74 249 C 74.285 249, 80.250 237.525, 87.257 223.500 L 99.995 198 74 198 L 48.005 198 60.743 223.500 M 284.743 228.500 L 272.005 254 297.503 254 C 311.526 254, 323 253.772, 323 253.492 C 323 252.827, 298.070 203, 297.737 203 C 297.597 203, 291.750 214.475, 284.743 228.500 " stroke="none" fill="black" fill-rule="evenodd"/>
</svg>