<svg xmlns="http://www.w3.org/2000/svg" width="148" height="324" viewBox="0 0 148 324" version="1.1">
	<path d="M 55.200 63.200 C 53.512 64.888, 53.512 99.112, 55.200 100.800 C 56.040 101.640, 61.562 102, 73.629 102 C 87.958 102, 91.122 101.736, 92.429 100.429 C 94.757 98.100, 94.757 65.900, 92.429 63.571 C 91.122 62.264, 87.958 62, 73.629 62 C 61.562 62, 56.040 62.360, 55.200 63.200 M 62 82 L 62 94 74 94 L 86 94 86 82 L 86 70 74 70 L 62 70 62 82 M 7.579 191.564 C 6.710 192.432, 6 193.529, 6 194 C 6 194.471, 6.710 195.568, 7.579 196.436 C 8.990 197.847, 16.058 197.987, 74.220 197.757 C 134.934 197.517, 139.356 197.383, 140.386 195.750 C 141.191 194.474, 141.191 193.526, 140.386 192.250 C 139.356 190.617, 134.934 190.483, 74.220 190.243 C 16.058 190.013, 8.990 190.153, 7.579 191.564 " stroke="none" fill="black" fill-rule="evenodd"/>
</svg>