<svg xmlns="http://www.w3.org/2000/svg" width="308" height="324" viewBox="0 0 308 324" version="1.1">
	<path d="M 55.571 63.571 C 54.707 64.436, 54 65.317, 54 65.531 C 54 66.316, 71.159 100.529, 71.965 101.349 C 74.275 103.702, 76.913 100.229, 84.760 84.501 C 89.292 75.417, 93 67.143, 93 66.115 C 93 63.770, 90.710 61.790, 88.832 62.511 C 88.050 62.811, 84.520 68.894, 80.986 76.028 C 77.453 83.163, 74.308 89, 73.997 89 C 73.687 89, 70.748 83.534, 67.467 76.853 C 59.925 61.499, 58.847 60.296, 55.571 63.571 M 7.571 127.571 C 6.175 128.968, 6 136.372, 6 194 C 6 251.628, 6.175 259.032, 7.571 260.429 C 9.386 262.244, 9.946 262.319, 12 261.023 C 13.204 260.264, 13.599 256.693, 14 242.906 L 14.500 225.735 17.769 230.786 C 22.778 238.527, 34.777 249.158, 43.194 253.313 C 53.642 258.470, 61.711 260.336, 73.500 260.319 C 85.653 260.301, 93.549 258.356, 104.500 252.683 C 113.952 247.786, 126.030 236.472, 130.851 228 L 133.981 222.500 133.991 241.215 C 134 259.245, 134.077 259.971, 136.117 261.062 C 141.076 263.717, 141.023 264.446, 141.023 194 C 141.023 123.554, 141.076 124.283, 136.117 126.938 C 134.081 128.027, 134 128.764, 133.991 146.285 L 133.981 164.500 131.023 159.342 C 126.783 151.950, 117.913 142.761, 109.831 137.388 C 88.032 122.896, 58.583 122.886, 36.773 137.363 C 30.503 141.524, 19.024 153.217, 16.285 158.231 C 14.500 161.500, 14.500 161.500, 14 144.711 C 13.600 131.265, 13.201 127.734, 12 126.977 C 9.946 125.681, 9.386 125.757, 7.571 127.571 M 57.500 135.870 C 37.436 141.645, 20.733 158.691, 15.585 178.644 C 13.554 186.517, 13.554 200.483, 15.585 208.356 C 20.889 228.914, 38.828 246.683, 59.103 251.463 C 66.646 253.241, 78.760 253.441, 86.201 251.910 C 89.115 251.310, 95.244 249.032, 99.820 246.847 C 115.079 239.562, 126.717 225.246, 131.003 208.489 C 132.101 204.194, 133 200.077, 133 199.340 C 133 198.249, 127.359 198, 102.700 198 C 80.467 198, 72.081 197.681, 71.200 196.800 C 70.319 195.919, 70 187.422, 70 164.800 L 70 134 66.750 134.071 C 64.963 134.110, 60.800 134.920, 57.500 135.870 M 78 162 L 78 190 105.500 190 C 137.156 190, 134.273 191.299, 131.003 178.511 C 126.717 161.754, 115.079 147.438, 99.820 140.153 C 92.461 136.639, 83.724 134, 79.451 134 C 78.218 134, 78 138.200, 78 162 M 167.750 159.080 C 166.138 160.019, 166 162.769, 166 194.015 C 166 227.256, 166.041 227.952, 168.064 229.034 C 172.316 231.310, 173 229.071, 173 212.878 L 173 198 233.500 198 L 294 198 294 212.965 C 294 227.061, 294.120 227.994, 296.064 229.034 C 297.596 229.854, 298.498 229.832, 299.564 228.947 C 300.760 227.954, 301 222.117, 301 194 C 301 165.883, 300.760 160.046, 299.564 159.053 C 298.498 158.168, 297.596 158.146, 296.064 158.966 C 294.120 160.006, 294 160.939, 294 175.035 L 294 190 233.500 190 L 173 190 173 175.200 C 173 158.584, 172.299 156.431, 167.750 159.080 " stroke="none" fill="black" fill-rule="evenodd"/>
</svg>