<svg xmlns="http://www.w3.org/2000/svg" width="340" height="324" viewBox="0 0 340 324" version="1.1">
	<path d="M 40.372 62.765 C 38.418 64.037, 22.003 97.844, 22.593 99.381 C 23.268 101.141, 25.513 102.124, 27.295 101.440 C 28.007 101.167, 31.480 95.106, 35.014 87.972 C 38.547 80.837, 41.691 75, 42 75 C 42.309 75, 45.453 80.837, 48.986 87.972 C 52.520 95.106, 55.993 101.167, 56.705 101.440 C 58.487 102.124, 60.732 101.141, 61.407 99.381 C 61.716 98.575, 58.096 90.173, 53.363 80.708 C 45.638 65.261, 43.672 62.031, 42 62.031 C 41.725 62.031, 40.992 62.361, 40.372 62.765 M 264.500 158 L 232.512 190 168.827 190 C 112.266 190, 104.967 190.176, 103.571 191.571 C 101.598 193.545, 101.598 194.455, 103.571 196.429 C 104.844 197.701, 107.697 198, 118.575 198 L 132.006 198 117.020 227.961 C 108.777 244.439, 102.285 258.580, 102.594 259.384 C 103.451 261.617, 106.104 262.217, 107.895 260.584 C 108.778 259.779, 115.794 246.493, 123.486 231.060 C 131.178 215.627, 137.716 203, 138.015 203 C 138.314 203, 145.042 216.034, 152.965 231.964 C 160.888 247.894, 167.962 261.155, 168.685 261.433 C 169.408 261.710, 170.573 261.717, 171.274 261.448 C 171.975 261.180, 179.056 247.919, 187.010 231.980 C 194.964 216.041, 201.710 203, 202 203 C 202.290 203, 209.036 216.041, 216.990 231.980 C 224.944 247.919, 232.083 261.201, 232.853 261.497 C 234.718 262.213, 237 260.217, 237 257.871 C 237 256.835, 230.473 242.940, 222.497 226.993 L 207.993 198 221.283 198 L 234.573 198 266.007 166.509 L 297.440 135.019 313.041 150.509 C 321.621 159.029, 329.117 166, 329.698 166 C 331.296 166, 333.209 163.296, 332.833 161.570 C 332.419 159.669, 299.030 126, 297.559 126 C 296.970 126, 282.094 140.400, 264.500 158 M 35.045 159.064 C 13.497 163.427, 1.173 185.901, 9.037 206.493 C 12.164 214.680, 20.320 222.836, 28.507 225.963 C 41.863 231.064, 56.079 228.081, 66.080 218.080 C 76.010 208.150, 78.986 193.911, 73.934 180.507 C 68.336 165.657, 50.649 155.904, 35.045 159.064 M 31.627 167.468 C 26.247 169.386, 21.039 173.829, 17.500 179.519 C 14.741 183.955, 14.500 185.073, 14.500 193.422 C 14.500 201.524, 14.796 203.003, 17.249 207.176 C 26.538 222.978, 48.212 225.884, 61.048 213.048 C 71.769 202.327, 71.769 184.673, 61.048 173.952 C 53.696 166.601, 41.563 163.927, 31.627 167.468 M 156.743 223.500 C 163.750 237.525, 169.715 249, 170 249 C 170.285 249, 176.250 237.525, 183.257 223.500 L 195.995 198 170 198 L 144.005 198 156.743 223.500 " stroke="none" fill="black" fill-rule="evenodd"/>
</svg>