<svg xmlns="http://www.w3.org/2000/svg" width="276" height="324" viewBox="0 0 276 324" version="1.1">
	<path d="M 40.372 62.765 C 38.418 64.037, 22.003 97.844, 22.593 99.381 C 23.268 101.141, 25.513 102.124, 27.295 101.440 C 28.007 101.167, 31.480 95.106, 35.014 87.972 C 38.547 80.837, 41.691 75, 42 75 C 42.309 75, 45.453 80.837, 48.986 87.972 C 52.520 95.106, 55.993 101.167, 56.705 101.440 C 58.487 102.124, 60.732 101.141, 61.407 99.381 C 61.716 98.575, 58.096 90.173, 53.363 80.708 C 45.638 65.261, 43.672 62.031, 42 62.031 C 41.725 62.031, 40.992 62.361, 40.372 62.765 M 35.045 159.064 C 13.497 163.427, 1.173 185.901, 9.037 206.493 C 12.164 214.680, 20.320 222.836, 28.507 225.963 C 41.863 231.064, 56.079 228.081, 66.080 218.080 C 87.084 197.076, 74.303 161.904, 44.500 158.699 C 41.750 158.403, 37.495 158.567, 35.045 159.064 M 31.054 167.728 C 25.018 169.859, 17.781 177.260, 15.667 183.463 C 11.995 194.241, 14.382 205.477, 21.952 213.048 C 32.673 223.769, 50.327 223.769, 61.048 213.048 C 71.769 202.327, 71.769 184.673, 61.048 173.952 C 53.519 166.424, 41.696 163.970, 31.054 167.728 M 103.571 191.571 C 102.707 192.436, 102 193.529, 102 194 C 102 194.471, 102.707 195.564, 103.571 196.429 C 104.844 197.701, 107.697 198, 118.576 198 L 132.009 198 121.111 219.750 C 115.118 231.713, 108.817 243.248, 107.109 245.385 C 102.077 251.681, 100.752 259.923, 104.538 261.376 C 107.159 262.382, 108.628 261.009, 111.587 254.788 C 115.396 246.781, 116.292 246, 121.671 246 C 125.488 246, 126.734 246.534, 129.600 249.400 C 131.970 251.770, 133 253.718, 133 255.829 C 133 258.700, 135.139 262, 137 262 C 137.471 262, 138.601 261.256, 139.511 260.346 C 141.349 258.508, 140.904 253.650, 138.465 248.933 C 135.629 243.448, 127.098 238.032, 121.254 238.006 C 120.542 238.002, 123.753 230.495, 128.740 220.500 C 133.544 210.875, 137.715 203, 138.010 203 C 138.305 203, 145.102 216.162, 153.114 232.250 C 166.084 258.293, 167.942 261.500, 170.058 261.500 C 172.012 261.500, 173.037 260.255, 175.817 254.500 C 177.676 250.650, 179.716 247.169, 180.349 246.765 C 180.982 246.361, 183.457 246.024, 185.850 246.015 C 189.474 246.003, 190.767 246.567, 193.600 249.400 C 195.970 251.770, 197 253.718, 197 255.829 C 197 258.700, 199.139 262, 201 262 C 201.471 262, 202.601 261.256, 203.511 260.346 C 205.349 258.508, 204.904 253.650, 202.465 248.933 C 199.629 243.448, 191.098 238.032, 185.254 238.006 C 184.542 238.002, 187.753 230.495, 192.740 220.500 C 197.544 210.875, 201.711 203, 202.001 203 C 202.291 203, 208.822 215.661, 216.514 231.136 C 229.965 258.196, 232.120 262, 234 262 C 235.861 262, 238 258.700, 238 255.829 C 238 253.718, 239.030 251.770, 241.400 249.400 C 244.302 246.498, 245.488 246, 249.500 246 C 253.512 246, 254.698 246.498, 257.600 249.400 C 259.970 251.770, 261 253.718, 261 255.829 C 261 258.700, 263.139 262, 265 262 C 266.265 262, 269.001 259.040, 268.994 257.679 C 268.978 254.300, 266.537 248.542, 263.797 245.422 C 256.127 236.686, 245.434 235.999, 236.917 243.694 C 234.734 245.667, 232.784 247.105, 232.585 246.890 C 232.386 246.676, 226.771 235.588, 220.107 222.250 L 207.992 198 221.425 198 C 232.303 198, 235.156 197.701, 236.429 196.429 C 237.293 195.564, 238 194.471, 238 194 C 238 193.529, 237.293 192.436, 236.429 191.571 C 235.032 190.175, 227.628 190, 170 190 C 112.372 190, 104.968 190.175, 103.571 191.571 M 156.107 222.250 C 162.771 235.588, 168.395 246.685, 168.605 246.911 C 169.922 248.324, 174.506 240.830, 184.585 220.789 L 196.046 198 170.019 198 L 143.992 198 156.107 222.250 " stroke="none" fill="black" fill-rule="evenodd"/>
</svg>