<svg xmlns="http://www.w3.org/2000/svg" width="403" height="324" viewBox="0 0 403 324" version="1.1">
	<path d="M 87.200 63.200 C 85.512 64.888, 85.512 99.112, 87.200 100.800 C 88.040 101.640, 93.562 102, 105.629 102 C 119.958 102, 123.122 101.736, 124.429 100.429 C 126.757 98.100, 126.757 65.900, 124.429 63.571 C 123.122 62.264, 119.958 62, 105.629 62 C 93.562 62, 88.040 62.360, 87.200 63.200 M 94 82 L 94 94 106 94 L 118 94 118 82 L 118 70 106 70 L 94 70 94 82 M 103.571 127.571 C 102.175 128.968, 102 136.372, 102 194 C 102 251.628, 102.175 259.032, 103.571 260.429 C 105.678 262.535, 106.598 262.412, 108.443 259.777 C 109.813 257.823, 110 249.904, 110 194 C 110 138.096, 109.813 130.177, 108.443 128.223 C 106.598 125.588, 105.678 125.465, 103.571 127.571 M 162.355 158.986 C 151.790 161.214, 142.114 169.146, 137.329 179.500 C 133.374 188.059, 133.386 198.895, 137.361 207.610 C 144.874 224.083, 163.867 232.476, 180.575 226.708 C 185.342 225.062, 185.887 225.057, 189.575 226.629 C 195.436 229.127, 207.079 228.885, 214.188 226.117 C 221.267 223.361, 228.811 216.362, 232.639 209 C 235.228 204.021, 235.498 202.553, 235.498 193.500 C 235.498 184.447, 235.228 182.979, 232.639 178 C 228.805 170.626, 221.265 163.636, 214.188 160.893 C 206.967 158.095, 196.344 157.833, 189.899 160.294 C 185.736 161.884, 184.976 161.903, 181.022 160.508 C 175.405 158.526, 167.566 157.887, 162.355 158.986 M 159.627 167.468 C 154.247 169.386, 149.039 173.829, 145.500 179.519 C 141.527 185.908, 140.712 197.311, 143.741 204.129 C 148.169 214.094, 156.131 219.920, 166.454 220.748 C 169.960 221.030, 174.056 220.952, 175.557 220.575 L 178.286 219.890 175.197 216.695 C 166.365 207.559, 163.857 191.459, 169.379 179.349 C 170.922 175.965, 173.494 171.943, 175.095 170.409 C 177.224 168.370, 177.669 167.408, 176.752 166.826 C 174.748 165.553, 163.853 165.962, 159.627 167.468 M 194.313 166.641 C 193.554 166.950, 194.504 168.947, 196.947 172.174 C 206.449 184.729, 206.454 202.265, 196.959 214.810 C 192.557 220.626, 192.861 221, 201.994 221 C 216.535 221, 228.989 208.313, 228.989 193.500 C 228.989 178.471, 216.451 165.890, 201.663 166.079 C 198.273 166.122, 194.966 166.375, 194.313 166.641 M 181.247 174.250 C 171.317 184.512, 171.420 203.230, 181.459 212.961 C 184.235 215.651, 185.117 216.008, 186.783 215.116 C 189.547 213.637, 194.801 205.450, 196.124 200.559 C 198.536 191.644, 194.597 177.975, 188.156 172.908 C 185.002 170.427, 184.934 170.440, 181.247 174.250 M 7.571 191.571 C 6.707 192.436, 6 193.640, 6 194.249 C 6 194.857, 12.844 202.250, 21.208 210.677 L 36.416 226 21.208 241.323 C 12.844 249.750, 6 257.143, 6 257.751 C 6 259.181, 8.819 262, 10.249 262 C 10.857 262, 18.250 255.156, 26.677 246.792 L 42 231.584 57.323 246.792 C 65.750 255.156, 73.143 262, 73.751 262 C 75.181 262, 78 259.181, 78 257.751 C 78 257.143, 71.156 249.750, 62.792 241.323 L 47.584 226 62.792 210.677 C 71.156 202.250, 78 194.857, 78 194.249 C 78 192.819, 75.181 190, 73.751 190 C 73.143 190, 65.750 196.844, 57.323 205.208 L 42 220.416 26.677 205.208 C 18.250 196.844, 10.857 190, 10.249 190 C 9.640 190, 8.436 190.707, 7.571 191.571 M 290.355 191.039 C 280.144 193.060, 270.058 201.072, 265.244 210.987 C 262.948 215.715, 262.567 217.781, 262.567 225.500 C 262.567 233.219, 262.948 235.285, 265.244 240.013 C 276.011 262.186, 304.638 267.415, 321.724 250.329 L 326 246.053 326 252.991 C 326 258.978, 326.283 260.081, 328.064 261.034 C 332.316 263.310, 333 261.071, 333 244.878 L 333 230 361.474 230 L 389.948 230 390.224 245.142 C 390.458 257.992, 390.752 260.444, 392.166 261.334 C 393.374 262.095, 394.268 262.023, 395.416 261.070 C 396.804 259.918, 397 255.579, 397 226 C 397 196.421, 396.804 192.082, 395.416 190.930 C 394.268 189.977, 393.374 189.905, 392.166 190.666 C 390.752 191.556, 390.458 194.008, 390.224 206.858 L 389.948 222 361.474 222 L 333 222 333 207.122 C 333 190.929, 332.316 188.690, 328.064 190.966 C 326.295 191.912, 325.998 193.031, 325.989 198.785 L 325.978 205.500 323.507 202.366 C 319.975 197.885, 312.434 193.348, 305.530 191.550 C 299.070 189.867, 296.684 189.787, 290.355 191.039 M 285.500 200.387 C 264.908 210.139, 264.314 239.797, 284.500 250.246 C 290.710 253.460, 301.254 253.807, 307.754 251.010 C 317.560 246.792, 325 235.787, 325 225.500 C 325 215.480, 317.989 204.797, 308.500 200.358 C 301.594 197.128, 292.358 197.140, 285.500 200.387 " stroke="none" fill="black" fill-rule="evenodd"/>
</svg>