<svg xmlns="http://www.w3.org/2000/svg" width="340" height="324" viewBox="0 0 340 324" version="1.1">
	<path d="M 7.571 127.571 C 6.175 128.968, 6 136.372, 6 194 C 6 251.628, 6.175 259.032, 7.571 260.429 C 8.936 261.793, 13.463 262, 42 262 C 70.537 262, 75.064 261.793, 76.429 260.429 C 77.825 259.032, 78 251.628, 78 194 C 78 136.372, 77.825 128.968, 76.429 127.571 C 75.064 126.207, 70.537 126, 42 126 C 13.463 126, 8.936 126.207, 7.571 127.571 M 167.240 191.268 C 131.358 227.165, 102 257.058, 102 257.696 C 102 259.196, 104.803 262, 106.302 262 C 106.940 262, 135.033 234.442, 168.731 200.761 L 230 139.522 230 164.761 L 230 190 215.200 190 C 205.022 190, 200.025 190.375, 199.200 191.200 C 197.481 192.919, 197.481 259.081, 199.200 260.800 C 200.085 261.685, 209.117 262, 233.629 262 C 262.503 262, 267.063 261.794, 268.429 260.429 C 269.793 259.064, 270 254.537, 270 226 C 270 197.463, 269.793 192.936, 268.429 191.571 C 267.145 190.288, 264.212 190, 252.429 190 L 238 190 238 159.571 C 238 133.242, 237.788 128.931, 236.429 127.571 C 235.564 126.707, 234.322 126, 233.668 126 C 233.014 126, 203.121 155.371, 167.240 191.268 M 307.102 130.302 C 298.762 140.608, 294.747 155.198, 296.728 168 C 297.946 175.870, 302.148 185.538, 306.923 191.461 L 310.117 195.423 309.928 227.419 C 309.741 259.062, 309.763 259.430, 311.870 260.830 C 313.580 261.965, 314.297 261.999, 315.500 261 C 316.325 260.315, 317 259.290, 317 258.722 C 317 258.154, 318.150 256.181, 319.555 254.339 C 320.960 252.496, 323.548 247.954, 325.305 244.244 C 328.368 237.778, 328.500 236.984, 328.500 225 C 328.500 213.094, 328.353 212.191, 325.406 206 C 323.704 202.425, 321.117 197.750, 319.656 195.610 L 317 191.721 317 160.442 C 317 143.239, 316.727 128.452, 316.393 127.582 C 315.215 124.511, 310.725 125.825, 307.102 130.302 M 14 194 L 14 254 42 254 L 70 254 70 194 L 70 134 42 134 L 14 134 14 194 M 307.026 144.500 C 304.828 148.943, 304.553 150.780, 304.553 161 C 304.553 171.220, 304.828 173.057, 307.026 177.500 L 309.500 182.500 309.784 171.750 C 309.940 165.838, 309.940 156.162, 309.784 150.250 L 309.500 139.500 307.026 144.500 M 206 226 L 206 254 234 254 L 262 254 262 226 L 262 198 234 198 L 206 198 206 226 M 317 225 C 317 236.601, 317.350 243.049, 317.948 242.450 C 319.462 240.934, 322 230.003, 322 225 C 322 219.997, 319.462 209.066, 317.948 207.550 C 317.350 206.951, 317 213.399, 317 225 " stroke="none" fill="black" fill-rule="evenodd"/>
</svg>