<svg xmlns="http://www.w3.org/2000/svg" width="308" height="324" viewBox="0 0 308 324" version="1.1">
	<path d="M 102.404 128.750 C 101.578 130.262, 87.219 159.063, 70.496 192.750 L 40.091 254 24.617 254 C 11.883 254, 8.865 254.278, 7.571 255.571 C 5.595 257.548, 5.598 258.455, 7.585 260.442 C 8.978 261.835, 13.159 261.995, 42.226 261.763 C 72.452 261.523, 75.377 261.350, 76.386 259.750 C 77.190 258.476, 77.190 257.524, 76.389 256.250 C 75.457 254.768, 73.214 254.423, 61.765 254 L 48.241 253.500 76.996 196.003 L 105.750 138.507 134.375 195.750 C 150.119 227.234, 163 253.220, 163 253.497 C 163 253.773, 157.345 254, 150.434 254 C 137.276 254, 134 254.797, 134 258 C 134 261.750, 136.791 262.037, 170.601 261.764 C 200.469 261.523, 203.378 261.349, 204.386 259.750 C 205.190 258.475, 205.191 257.525, 204.387 256.250 C 203.427 254.726, 201.268 254.465, 187.631 254.225 L 171.978 253.949 140.370 190.725 C 122.986 155.951, 108.254 127.169, 107.631 126.765 C 105.511 125.388, 103.909 125.997, 102.404 128.750 M 231.750 127.080 C 230.138 128.019, 230 130.762, 230 161.850 C 230 186.767, 230.314 195.914, 231.200 196.800 C 232.085 197.685, 241.106 198, 265.578 198 C 293.718 198, 298.942 197.774, 299.989 196.513 C 300.973 195.328, 300.903 193.610, 299.645 188.039 C 297.604 179.002, 294.883 173.783, 289.464 168.517 C 275.812 155.248, 254.334 155.217, 240.750 168.445 L 237 172.096 237 150.248 C 237 126.156, 236.573 124.271, 231.750 127.080 M 254.435 167.890 C 248.380 170.641, 242.973 175.862, 240.351 181.493 C 236.101 190.619, 234.274 190, 265.452 190 L 292.904 190 291.536 185.454 C 290.079 180.611, 289.349 179.428, 284.552 174.128 C 277.670 166.523, 263.779 163.646, 254.435 167.890 " stroke="none" fill="black" fill-rule="evenodd"/>
</svg>