<svg xmlns="http://www.w3.org/2000/svg" width="308" height="324" viewBox="0 0 308 324" version="1.1">
	<path d="M 33.972 127.329 C 15.771 131.347, 3.510 149.552, 6.987 167.396 C 10.341 184.611, 24.264 196.252, 41.500 196.252 C 51.305 196.252, 58.961 193.174, 65.518 186.596 C 73.974 178.115, 77.388 168.142, 75.890 156.305 C 73.432 136.890, 53.398 123.041, 33.972 127.329 M 31.627 135.468 C 26.302 137.367, 21.047 141.815, 17.618 147.328 C 14.254 152.737, 13.041 162.780, 14.916 169.708 C 16.446 175.361, 21.544 181.823, 27.266 185.361 C 33.398 189.152, 43.268 190.068, 50.852 187.549 C 56.768 185.584, 63.558 179.496, 66.523 173.500 C 69.293 167.895, 69.292 155.102, 66.521 149.500 C 63.571 143.538, 57.083 137.557, 51.504 135.656 C 45.655 133.663, 36.923 133.580, 31.627 135.468 M 263.403 159.125 C 253.831 168.640, 246 177.214, 246 178.177 C 246 179.141, 246.923 180.424, 248.051 181.027 C 249.859 181.995, 251.019 181.232, 257.844 174.590 L 265.587 167.055 277.027 178.527 L 288.467 190 196.805 190 C 114.809 190, 104.977 190.166, 103.571 191.571 C 100.158 194.985, 103.242 198, 110.148 198 L 115.154 198 111.911 201.243 C 110.127 203.027, 107.287 207.415, 105.601 210.993 C 102.977 216.561, 102.535 218.654, 102.535 225.500 C 102.535 232.362, 102.975 234.434, 105.630 240.068 C 113.898 257.615, 133.543 265.067, 151.618 257.515 C 156.905 255.306, 163.650 249.510, 166.266 244.927 C 167.495 242.776, 168.725 241.022, 169 241.030 C 169.275 241.038, 170.850 243.079, 172.500 245.567 C 176.131 251.041, 180.180 254.277, 187.710 257.725 C 201.967 264.252, 221.353 258.654, 229.613 245.626 C 231.201 243.122, 232.725 241.066, 233 241.058 C 233.275 241.051, 234.850 243.079, 236.500 245.567 C 240.131 251.041, 244.180 254.277, 251.710 257.725 C 266.019 264.276, 285.088 258.641, 293.965 245.238 C 302.874 231.789, 301.514 213.107, 290.801 201.750 L 287.264 198 292.932 198 C 298.668 198, 301 196.862, 301 194.062 C 301 193.216, 294.146 185.659, 285.769 177.268 L 270.537 162.013 277.769 154.733 C 285.362 147.089, 286.360 144.798, 282.903 142.948 C 281 141.930, 279.191 143.430, 263.403 159.125 M 7.571 191.571 C 6.707 192.436, 6 193.640, 6 194.249 C 6 194.857, 12.844 202.250, 21.208 210.677 L 36.416 226 21.208 241.323 C 12.844 249.750, 6 257.143, 6 257.751 C 6 259.181, 8.819 262, 10.249 262 C 10.857 262, 18.250 255.156, 26.677 246.792 L 42 231.584 57.323 246.792 C 65.750 255.156, 73.085 262, 73.623 262 C 75.244 262, 77 259.725, 77 257.625 C 77 256.420, 71.272 249.876, 62.307 240.839 L 47.614 226.028 62.307 211.129 C 70.929 202.386, 77 195.439, 77 194.315 C 77 192.266, 75.226 190, 73.623 190 C 73.085 190, 65.750 196.844, 57.323 205.208 L 42 220.416 26.677 205.208 C 18.250 196.844, 10.857 190, 10.249 190 C 9.640 190, 8.436 190.707, 7.571 191.571 M 126.373 199.918 C 124.104 200.948, 121.908 202.340, 121.494 203.009 C 121.015 203.785, 123.689 207.174, 128.864 212.349 L 136.985 220.470 145.503 211.997 C 154.013 203.531, 154.018 203.522, 151.818 201.863 C 146.284 197.688, 133.444 196.707, 126.373 199.918 M 162.974 201.623 C 164.724 203.616, 166.642 206.316, 167.238 207.623 C 168.635 210.688, 169.204 210.617, 171.268 207.123 C 172.203 205.541, 174.281 202.841, 175.885 201.123 L 178.802 198 169.298 198 L 159.793 198 162.974 201.623 M 189.053 200.555 L 183.605 203.091 192.303 211.788 L 201 220.486 209.697 211.788 L 218.395 203.091 212.947 200.555 C 208.875 198.660, 205.859 198.020, 201 198.020 C 196.141 198.020, 193.125 198.660, 189.053 200.555 M 227.977 203.090 C 230.190 205.889, 232 208.589, 232 209.090 C 232 210.903, 233.606 209.937, 235.268 207.123 C 236.203 205.541, 238.281 202.841, 239.885 201.123 L 242.802 198 233.378 198 L 223.953 198 227.977 203.090 M 253.053 200.555 L 247.605 203.091 256.303 211.788 L 265 220.486 273.697 211.788 L 282.395 203.091 276.947 200.555 C 272.875 198.660, 269.859 198.020, 265 198.020 C 260.141 198.020, 257.125 198.660, 253.053 200.555 M 112.061 214.081 C 109.114 220.931, 109.114 230.069, 112.061 236.919 C 113.263 239.714, 114.538 242, 114.895 242 C 115.252 242, 119.247 238.278, 123.773 233.729 L 132.001 225.457 123.730 217.229 C 119.180 212.703, 115.186 209, 114.852 209 C 114.519 209, 113.263 211.286, 112.061 214.081 M 150.727 216.772 C 146.477 221.047, 143 224.995, 143 225.546 C 143 226.667, 158.144 242, 159.252 242 C 159.641 242, 160.973 240.088, 162.212 237.750 C 164.008 234.363, 164.465 231.875, 164.465 225.500 C 164.465 219.125, 164.008 216.637, 162.212 213.250 C 160.973 210.912, 159.620 209, 159.206 209 C 158.792 209, 154.976 212.497, 150.727 216.772 M 175.960 214.250 C 174.415 217.797, 173.673 221.446, 173.673 225.500 C 173.673 231.117, 177.117 242, 178.895 242 C 179.252 242, 183.247 238.278, 187.773 233.729 L 196.001 225.457 187.730 217.229 C 183.180 212.703, 179.186 209, 178.852 209 C 178.519 209, 177.217 211.363, 175.960 214.250 M 214.732 216.766 C 210.480 221.044, 207 224.995, 207 225.546 C 207 227.267, 222.736 242.281, 223.831 241.604 C 225.730 240.431, 229 229.996, 228.969 225.212 C 228.938 220.400, 225.319 209.917, 223.482 209.319 C 222.923 209.137, 218.985 212.488, 214.732 216.766 M 239.933 213.750 C 236.749 220.361, 236.749 230.639, 239.933 237.250 C 241.191 239.863, 242.518 242, 242.882 242 C 243.246 242, 247.247 238.278, 251.773 233.729 L 260.001 225.457 251.730 217.229 C 247.180 212.703, 243.180 209, 242.839 209 C 242.499 209, 241.191 211.137, 239.933 213.750 M 278.227 217.271 L 269.999 225.543 278.484 233.984 C 286.626 242.084, 287.030 242.346, 288.477 240.462 C 291.154 236.980, 293.282 228.027, 292.667 222.834 C 292.059 217.705, 288.672 209, 287.284 209 C 286.829 209, 282.753 212.722, 278.227 217.271 M 128.477 239.059 L 120.500 247.118 122.830 249.034 C 129.199 254.272, 143.801 254.342, 151.819 249.174 L 154.137 247.680 145.841 239.340 C 141.278 234.753, 137.299 231, 136.999 231 C 136.699 231, 132.864 234.627, 128.477 239.059 M 192.041 239.459 L 183.625 247.918 189.063 250.449 C 193.125 252.340, 196.144 252.980, 201 252.980 C 205.856 252.980, 208.875 252.340, 212.937 250.449 L 218.375 247.918 209.959 239.459 C 205.331 234.807, 201.299 231, 201 231 C 200.701 231, 196.669 234.807, 192.041 239.459 M 256.041 239.459 L 247.625 247.918 253.063 250.449 C 257.125 252.340, 260.144 252.980, 265 252.980 C 269.856 252.980, 272.875 252.340, 276.937 250.449 L 282.375 247.918 273.959 239.459 C 269.331 234.807, 265.299 231, 265 231 C 264.701 231, 260.669 234.807, 256.041 239.459 " stroke="none" fill="black" fill-rule="evenodd"/>
</svg>