<svg xmlns="http://www.w3.org/2000/svg" width="308" height="324" viewBox="0 0 308 324" version="1.1">
	<path d="M 39.230 159.285 C 20.953 177.591, 6 193.084, 6 193.713 C 6 195.191, 8.808 198, 10.285 198 C 10.913 198, 25.506 183.947, 42.713 166.771 L 74 135.542 105.287 166.771 C 122.494 183.947, 137.029 198, 137.587 198 C 139.187 198, 141 195.770, 141 193.801 C 141 191.592, 76.126 125.935, 73.980 125.973 C 73.144 125.988, 57.506 140.978, 39.230 159.285 M 167.750 127.076 C 165.417 128.440, 165.526 131.676, 167.948 132.972 C 169.256 133.672, 191.132 133.930, 234.589 133.757 C 294.951 133.517, 299.356 133.383, 300.386 131.750 C 301.191 130.474, 301.191 129.526, 300.386 128.250 C 299.356 126.616, 294.963 126.485, 234.391 126.276 C 191.547 126.129, 168.905 126.400, 167.750 127.076 M 190.389 175.436 C 183.098 177.085, 177.328 179.860, 170.325 185.088 C 164.778 189.229, 163.107 192.220, 165.040 194.548 C 166.867 196.750, 168.629 196.323, 172.747 192.681 C 181.783 184.691, 191.042 181.541, 203.563 182.199 C 210.241 182.549, 213.015 183.228, 218.155 185.770 C 224.107 188.714, 225.950 190.178, 233.500 197.969 C 241.409 206.130, 258.096 211.043, 271.209 209.070 C 283.413 207.234, 300.513 197.466, 299.804 192.735 C 299.261 189.111, 296.433 188.267, 293.286 190.788 C 283.126 198.930, 275.437 202, 265.206 202 C 253.134 202, 243.501 198.088, 236.762 190.448 C 225.906 178.140, 206.380 171.819, 190.389 175.436 M 167.750 255.076 C 165.417 256.440, 165.526 259.676, 167.948 260.972 C 169.256 261.672, 191.132 261.930, 234.589 261.757 C 294.951 261.517, 299.356 261.383, 300.386 259.750 C 301.191 258.474, 301.191 257.526, 300.386 256.250 C 299.356 254.616, 294.963 254.485, 234.391 254.276 C 191.547 254.129, 168.905 254.400, 167.750 255.076 " stroke="none" fill="black" fill-rule="evenodd"/>
</svg>