<svg xmlns="http://www.w3.org/2000/svg" width="468" height="324" viewBox="0 0 468 324" version="1.1">
	<path d="M 61.500 127.401 C 46.645 130.266, 35.144 136.774, 24.168 148.528 C 13.839 159.588, 8.206 172.225, 6.499 188.168 C 5.924 193.530, 6.094 194.951, 7.473 196.330 C 9.547 198.404, 10.435 198.422, 12.429 196.429 C 13.413 195.444, 14 193.095, 14 190.139 C 14 183.494, 16.422 174.744, 20.670 166.046 C 25.647 155.857, 35.857 145.647, 46.046 140.670 C 53.472 137.044, 63.357 134, 67.710 134 L 70 134 70 194 L 70 254 55.571 254 C 43.788 254, 40.855 254.288, 39.571 255.571 C 37.598 257.545, 37.598 258.455, 39.571 260.429 C 40.936 261.793, 45.463 262, 74 262 C 102.537 262, 107.064 261.793, 108.429 260.429 C 110.402 258.455, 110.402 257.545, 108.429 255.571 C 107.145 254.288, 104.212 254, 92.429 254 L 78 254 78 194 C 78 137.014, 78.090 134, 79.790 134 C 83.679 134, 93.877 137.214, 100.954 140.670 C 111.143 145.647, 121.353 155.857, 126.330 166.046 C 130.578 174.744, 133 183.494, 133 190.139 C 133 198.197, 132.216 198, 164.274 198 L 192.405 198 179.202 211.333 C 171.941 218.666, 166 225.159, 166 225.761 C 166 227.187, 168.825 230, 170.257 230 C 172.006 230, 206 195.761, 206 194 C 206 192.239, 172.006 158, 170.257 158 C 168.825 158, 166 160.813, 166 162.239 C 166 162.841, 171.941 169.334, 179.202 176.667 L 192.405 190 166.770 190 C 137.910 190, 140.759 190.888, 139.495 181.500 C 136.359 158.197, 114.738 134.824, 90.500 128.533 C 81.877 126.295, 69.699 125.820, 61.500 127.401 M 391.200 127.200 C 390.292 128.108, 390 143.689, 390 191.200 L 390 254 359.571 254 C 333.242 254, 328.931 254.212, 327.571 255.571 C 326.707 256.436, 326 257.529, 326 258 C 326 258.471, 326.707 259.564, 327.571 260.429 C 328.968 261.825, 336.372 262, 394 262 C 451.628 262, 459.032 261.825, 460.429 260.429 C 461.293 259.564, 462 258.471, 462 258 C 462 257.529, 461.293 256.436, 460.429 255.571 C 459.069 254.212, 454.758 254, 428.429 254 L 398 254 398 226 L 398 198 428.429 198 C 454.758 198, 459.069 197.788, 460.429 196.429 C 461.793 195.064, 462 190.537, 462 162 C 462 133.463, 461.793 128.936, 460.429 127.571 C 459.063 126.206, 454.503 126, 425.629 126 C 401.117 126, 392.085 126.315, 391.200 127.200 M 398 162 L 398 190 426 190 L 454 190 454 162 L 454 134 426 134 L 398 134 398 162 M 247.315 175.213 C 237.792 184.680, 230 193.134, 230 194 C 230 195.761, 263.994 230, 265.743 230 C 267.175 230, 270 227.187, 270 225.761 C 270 225.159, 264.059 218.666, 256.798 211.333 L 243.595 198 271.226 198 C 295.012 198, 299.076 197.781, 300.429 196.429 C 302.402 194.455, 302.402 193.545, 300.429 191.571 C 299.076 190.219, 295.012 190, 271.226 190 L 243.595 190 256.798 176.667 C 264.059 169.334, 270 162.841, 270 162.239 C 270 160.813, 267.175 158, 265.743 158 C 265.131 158, 256.838 165.746, 247.315 175.213 " stroke="none" fill="black" fill-rule="evenodd"/>
</svg>