<svg xmlns="http://www.w3.org/2000/svg" width="468" height="324" viewBox="0 0 468 324" version="1.1">
	<path d="M 61.500 127.401 C 46.645 130.266, 35.144 136.774, 24.168 148.528 C 13.839 159.588, 8.206 172.225, 6.499 188.168 C 5.924 193.530, 6.094 194.951, 7.473 196.330 C 9.547 198.404, 10.435 198.422, 12.429 196.429 C 13.379 195.478, 14 193.126, 14 190.478 C 14 171.275, 28.030 149.469, 46.046 140.670 C 53.472 137.044, 63.357 134, 67.710 134 L 70 134 70 194 L 70 254 55.571 254 C 43.788 254, 40.855 254.288, 39.571 255.571 C 37.598 257.545, 37.598 258.455, 39.571 260.429 C 40.936 261.793, 45.463 262, 74 262 C 102.537 262, 107.064 261.793, 108.429 260.429 C 110.402 258.455, 110.402 257.545, 108.429 255.571 C 107.145 254.288, 104.212 254, 92.429 254 L 78 254 78 194 C 78 137.014, 78.090 134, 79.790 134 C 83.679 134, 93.877 137.214, 100.954 140.670 C 111.143 145.647, 121.353 155.857, 126.330 166.046 C 130.578 174.744, 133 183.494, 133 190.139 C 133 198.197, 132.216 198, 164.274 198 L 192.405 198 179.202 211.333 C 171.941 218.666, 166 225.159, 166 225.761 C 166 227.187, 168.825 230, 170.257 230 C 172.006 230, 206 195.761, 206 194 C 206 192.239, 172.006 158, 170.257 158 C 168.825 158, 166 160.813, 166 162.239 C 166 162.841, 171.941 169.334, 179.202 176.667 L 192.405 190 166.770 190 C 137.910 190, 140.759 190.888, 139.495 181.500 C 136.359 158.197, 114.738 134.824, 90.500 128.533 C 81.877 126.295, 69.699 125.820, 61.500 127.401 M 295.200 127.200 C 294.292 128.108, 294 143.689, 294 191.200 L 294 254 263.571 254 C 237.242 254, 232.931 254.212, 231.571 255.571 C 229.598 257.545, 229.598 258.455, 231.571 260.429 C 232.968 261.825, 240.372 262, 298 262 C 355.628 262, 363.032 261.825, 364.429 260.429 C 365.293 259.564, 366 258.471, 366 258 C 366 257.529, 365.293 256.436, 364.429 255.571 C 363.069 254.212, 358.758 254, 332.429 254 L 302 254 302 226 L 302 198 332.429 198 C 358.758 198, 363.069 197.788, 364.429 196.429 C 365.793 195.064, 366 190.537, 366 162 C 366 133.463, 365.793 128.936, 364.429 127.571 C 363.063 126.206, 358.503 126, 329.629 126 C 305.117 126, 296.085 126.315, 295.200 127.200 M 302 162 L 302 190 330 190 L 358 190 358 162 L 358 134 330 134 L 302 134 302 162 M 399.308 199.308 C 394.188 204.427, 390 209.120, 390 209.736 C 390 211.121, 392.789 214, 394.131 214 C 394.675 214, 397.568 211.685, 400.560 208.855 L 406 203.710 406 228.855 L 406 254 399.571 254 C 395.061 254, 392.674 254.469, 391.571 255.571 C 389.598 257.545, 389.598 258.455, 391.571 260.429 C 392.876 261.733, 396.009 262, 410 262 C 423.991 262, 427.124 261.733, 428.429 260.429 C 430.402 258.455, 430.402 257.545, 428.429 255.571 C 427.326 254.469, 424.939 254, 420.429 254 L 414 254 414 223.571 C 414 197.242, 413.788 192.931, 412.429 191.571 C 411.564 190.707, 410.353 190, 409.736 190 C 409.120 190, 404.427 194.188, 399.308 199.308 M 455.571 255.571 C 454.707 256.436, 454 257.529, 454 258 C 454 258.471, 454.707 259.564, 455.571 260.429 C 456.436 261.293, 457.529 262, 458 262 C 458.471 262, 459.564 261.293, 460.429 260.429 C 461.293 259.564, 462 258.471, 462 258 C 462 257.529, 461.293 256.436, 460.429 255.571 C 459.564 254.707, 458.471 254, 458 254 C 457.529 254, 456.436 254.707, 455.571 255.571 " stroke="none" fill="black" fill-rule="evenodd"/>
</svg>