<svg xmlns="http://www.w3.org/2000/svg" width="340" height="324" viewBox="0 0 340 324" version="1.1">
	<path d="M 162.075 131.670 C 149.848 142.735, 141.070 157.043, 136.796 172.875 C 133.871 183.709, 133.896 203.382, 136.850 214.337 C 141.014 229.782, 149.573 243.666, 162.379 255.750 L 169.002 262 233.573 262 L 298.143 262 303.169 257.250 C 316.706 244.454, 326.168 228.823, 329.953 213 C 332.711 201.470, 332.711 185.530, 329.953 174 C 326.103 157.905, 315.454 140.427, 303.296 130.248 L 298.222 126 233.282 126 L 168.341 126 162.075 131.670 M 166.253 137.515 C 156.480 145.881, 146.709 162.785, 143.606 176.697 C 137.812 202.671, 147.163 232.741, 166.220 249.411 L 171.466 254 233.549 254 L 295.632 254 302.350 247.223 C 310.016 239.489, 311.788 237.071, 316.461 227.957 C 322.798 215.601, 324.505 208.142, 324.461 193 C 324.424 180.479, 324.190 178.831, 321.236 170.269 C 317.182 158.519, 311.217 148.739, 303.080 140.500 L 296.661 134 233.510 134 L 170.360 134 166.253 137.515 M 7.571 191.571 C 6.707 192.436, 6 193.640, 6 194.249 C 6 194.857, 12.844 202.250, 21.208 210.677 L 36.416 226 21.208 241.323 C 12.844 249.750, 6 257.143, 6 257.751 C 6 259.181, 8.819 262, 10.249 262 C 10.857 262, 18.250 255.156, 26.677 246.792 L 42 231.584 57.323 246.792 C 65.750 255.156, 73.143 262, 73.751 262 C 75.181 262, 78 259.181, 78 257.751 C 78 257.143, 71.156 249.750, 62.792 241.323 L 47.584 226 62.792 210.677 C 71.156 202.250, 78 194.857, 78 194.249 C 78 192.819, 75.181 190, 73.751 190 C 73.143 190, 65.750 196.844, 57.323 205.208 L 42 220.416 26.677 205.208 C 18.250 196.844, 10.857 190, 10.249 190 C 9.640 190, 8.436 190.707, 7.571 191.571 M 103.571 191.571 C 102.707 192.436, 102 193.529, 102 194 C 102 194.471, 102.707 195.564, 103.571 196.429 C 104.436 197.293, 105.529 198, 106 198 C 106.471 198, 107.564 197.293, 108.429 196.429 C 109.293 195.564, 110 194.471, 110 194 C 110 193.529, 109.293 192.436, 108.429 191.571 C 107.564 190.707, 106.471 190, 106 190 C 105.529 190, 104.436 190.707, 103.571 191.571 " stroke="none" fill="black" fill-rule="evenodd"/>
</svg>