<svg xmlns="http://www.w3.org/2000/svg" width="308" height="324" viewBox="0 0 308 324" version="1.1">
	<path d="M 127.870 127.049 C 103.438 130.734, 82.339 147.968, 74.368 170.750 C 73.357 173.637, 72.283 176, 71.981 176 C 71.679 176, 70.623 174.632, 69.635 172.960 C 68.648 171.288, 65.635 168.177, 62.940 166.047 C 49.076 155.088, 29.532 156.308, 16.920 168.920 C 3.046 182.794, 3.046 204.206, 16.920 218.080 C 32.565 233.725, 58.907 231.083, 70.535 212.702 L 73.379 208.207 76.014 212.353 C 90.326 234.876, 123.239 233.491, 136.070 209.826 C 139.326 203.821, 139.500 202.993, 139.500 193.500 C 139.500 184.007, 139.326 183.179, 136.070 177.174 C 126.824 160.121, 105.573 153.456, 89.265 162.495 L 85.030 164.842 86.655 161.700 C 89.077 157.017, 98.776 147.179, 104.803 143.291 C 112.563 138.286, 122.357 134.925, 131.395 134.164 C 140.010 133.439, 142.584 131.748, 140.394 128.250 C 139.112 126.203, 135.668 125.873, 127.870 127.049 M 265.634 156.841 L 234.500 187.877 231.500 185.348 C 229.850 183.957, 225.350 181.294, 221.500 179.430 C 204.737 171.316, 185.455 173.462, 170.336 185.127 C 164.675 189.494, 163.128 192.245, 165.040 194.548 C 166.922 196.816, 168.513 196.317, 173.689 191.835 C 176.335 189.545, 180.975 186.515, 184 185.102 C 188.848 182.838, 190.804 182.532, 200.500 182.517 C 210.848 182.501, 211.885 182.689, 218 185.680 C 221.575 187.428, 225.625 189.775, 227 190.895 L 229.500 192.931 197.750 224.721 C 180.287 242.206, 166 257.281, 166 258.221 C 166 259.161, 166.961 260.444, 168.136 261.073 C 170.102 262.125, 172.794 259.695, 201.938 230.562 L 233.604 198.907 239.511 202.464 C 249.254 208.331, 260.084 210.529, 271.500 208.956 C 279.705 207.825, 290.655 202.818, 296.331 197.602 C 300.301 193.955, 300.765 191.511, 297.838 189.668 C 296.519 188.837, 295.063 189.480, 290.787 192.779 C 282.850 198.902, 276.797 201.262, 267.641 201.804 C 258.047 202.372, 251.212 200.942, 244.108 196.880 L 238.715 193.797 269.858 162.643 C 286.986 145.508, 301 130.719, 301 129.779 C 301 128.839, 300.048 127.561, 298.884 126.938 C 296.946 125.901, 294.158 128.407, 265.634 156.841 M 31.627 167.468 C 26.302 169.367, 21.047 173.815, 17.618 179.328 C 14.254 184.737, 13.041 194.780, 14.916 201.708 C 16.446 207.361, 21.544 213.823, 27.266 217.361 C 37.153 223.473, 52.294 221.764, 60.431 213.617 C 66.733 207.305, 68.500 202.901, 68.500 193.500 C 68.500 184.107, 66.733 179.694, 60.453 173.406 C 53.664 166.608, 41.228 164.046, 31.627 167.468 M 94.435 167.890 C 83.942 172.656, 77.986 181.930, 78.022 193.446 C 78.070 208.813, 88.010 219.695, 102.977 220.766 C 114.937 221.622, 123.982 216.876, 129.551 206.824 C 132.127 202.173, 132.500 200.488, 132.500 193.500 C 132.500 186.512, 132.127 184.827, 129.551 180.176 C 126.179 174.090, 121.063 169.639, 114.965 167.488 C 109.124 165.427, 99.441 165.617, 94.435 167.890 M 65.972 223.329 C 47.771 227.347, 35.510 245.552, 38.987 263.396 C 42.341 280.611, 56.264 292.252, 73.500 292.252 C 83.223 292.252, 90.603 289.284, 97.353 282.661 C 105.450 274.714, 107.500 269.633, 107.500 257.500 C 107.500 245.367, 105.450 240.286, 97.353 232.339 C 89.097 224.238, 77.257 220.839, 65.972 223.329 M 63.627 231.468 C 58.247 233.386, 53.039 237.829, 49.500 243.519 C 46.982 247.568, 46.444 249.582, 46.150 256.050 C 45.760 264.623, 47.420 269.822, 52.447 275.770 C 61.626 286.629, 79.475 288.128, 90.992 279.006 C 96.752 274.444, 101 265.316, 101 257.500 C 101 246.038, 93.486 235.200, 82.965 231.488 C 77.743 229.645, 68.766 229.636, 63.627 231.468 " stroke="none" fill="black" fill-rule="evenodd"/>
</svg>