<svg xmlns="http://www.w3.org/2000/svg" width="628" height="324" viewBox="0 0 628 324" version="1.1">
	<path d="M 120.316 62.784 C 118.369 64.022, 102.007 97.855, 102.604 99.410 C 103.269 101.144, 105.524 102.120, 107.295 101.440 C 108.007 101.167, 111.480 95.106, 115.014 87.972 C 118.547 80.837, 121.691 75, 122 75 C 122.309 75, 125.453 80.837, 128.986 87.972 C 132.520 95.106, 135.993 101.167, 136.705 101.440 C 138.487 102.124, 140.732 101.141, 141.407 99.381 C 141.997 97.844, 125.582 64.037, 123.628 62.765 C 122.214 61.845, 121.789 61.847, 120.316 62.784 M 168.500 158 L 136.512 190 72.827 190 C 16.266 190, 8.967 190.176, 7.571 191.571 C 5.598 193.545, 5.598 194.455, 7.571 196.429 C 8.844 197.701, 11.697 198, 22.575 198 L 36.006 198 21.020 227.961 C 12.777 244.439, 6.285 258.580, 6.594 259.384 C 7.265 261.133, 9.512 262.125, 11.274 261.448 C 11.975 261.180, 19.056 247.919, 27.010 231.980 C 34.964 216.041, 41.717 203, 42.016 203 C 42.315 203, 49.042 216.034, 56.965 231.964 C 64.888 247.894, 71.962 261.155, 72.685 261.433 C 73.408 261.710, 74.573 261.717, 75.274 261.448 C 75.975 261.180, 83.056 247.919, 91.010 231.980 C 98.964 216.041, 105.710 203, 106 203 C 106.290 203, 113.036 216.041, 120.990 231.980 C 128.944 247.919, 136.025 261.180, 136.726 261.448 C 138.488 262.125, 140.735 261.133, 141.406 259.384 C 141.715 258.580, 135.223 244.439, 126.980 227.961 L 111.994 198 125.710 198 L 139.427 198 170.703 166.782 L 201.979 135.563 217.312 150.782 C 225.746 159.152, 233.143 166, 233.751 166 C 235.200 166, 238 163.173, 238 161.710 C 238 160.007, 203.681 126, 201.962 126 C 201.152 126, 186.094 140.400, 168.500 158 M 327.200 127.200 C 326.292 128.108, 326 143.689, 326 191.200 L 326 254 295.571 254 C 269.242 254, 264.931 254.212, 263.571 255.571 C 261.596 257.546, 261.598 258.455, 263.579 260.436 C 264.990 261.847, 272.058 261.987, 330.220 261.757 C 390.934 261.517, 395.356 261.383, 396.386 259.750 C 397.191 258.474, 397.191 257.526, 396.386 256.250 C 395.381 254.655, 392.566 254.477, 364.641 254.236 L 334 253.971 334 225.986 L 334 198 364.429 198 C 390.758 198, 395.069 197.788, 396.429 196.429 C 397.793 195.064, 398 190.537, 398 162 C 398 133.463, 397.793 128.936, 396.429 127.571 C 395.063 126.206, 390.503 126, 361.629 126 C 337.117 126, 328.085 126.315, 327.200 127.200 M 598.075 127.861 C 597.276 129.352, 597.971 130.989, 601.575 136.107 C 609.738 147.699, 611.932 160.533, 607.954 173.412 C 606.443 178.306, 603.952 182.634, 598.414 189.985 C 589.548 201.755, 586.516 207.956, 584.835 217.755 C 582.555 231.052, 587.096 246.725, 596.042 256.430 C 600.319 261.070, 602.638 261.962, 604.800 259.800 C 606.540 258.060, 606.406 257.707, 601.967 252.359 C 593.849 242.578, 590.494 231.122, 592.166 218.892 C 593.295 210.641, 595.513 206.037, 603.211 195.971 C 614.681 180.972, 617.510 173.048, 616.784 157.953 C 616.388 149.739, 615.834 147.243, 613.121 141.445 C 607.315 129.038, 600.660 123.030, 598.075 127.861 M 334 162 L 334 190 362 190 L 390 190 390 162 L 390 134 362 134 L 334 134 334 162 M 455.173 159.292 C 454.583 160.002, 453.966 163.710, 453.800 167.531 L 453.500 174.479 448.067 175.258 C 441.047 176.264, 429.654 181.844, 424.250 186.924 C 419.704 191.198, 419.097 193.006, 421.530 195.025 C 423.406 196.582, 425.371 195.677, 432.500 189.970 C 435.442 187.614, 440.116 185.151, 443.855 183.983 C 454.920 180.530, 454 178.642, 454 204.800 C 454 221.200, 454.337 227.937, 455.200 228.800 C 456.648 230.248, 521.644 230.511, 523.907 229.078 C 524.940 228.425, 525.340 225.720, 525.407 218.926 L 525.500 209.665 531.357 208.332 C 542.463 205.802, 556.427 196.897, 555.805 192.740 C 555.178 188.551, 552.558 188.409, 547.803 192.305 C 542.749 196.447, 534.301 200.536, 528.701 201.552 L 524.902 202.241 525.060 180.997 C 525.187 164.048, 524.944 159.579, 523.859 158.892 C 523.112 158.418, 507.593 158.024, 489.372 158.015 C 463.505 158.003, 456.010 158.283, 455.173 159.292 M 462 170.300 L 462 174.600 467.799 175.798 C 476.306 177.555, 483.745 181.643, 490.291 188.158 C 497.957 195.789, 500.420 197.446, 507.759 199.919 C 518.721 203.612, 518 204.733, 518 184 L 518 166 490 166 L 462 166 462 170.300 M 462 201.921 L 462 222 490.048 222 L 518.095 222 517.798 215.750 C 517.505 209.615, 517.445 209.494, 514.500 209.201 C 504.722 208.228, 495.053 203.302, 487.072 195.230 C 480.661 188.746, 472.485 183.977, 465.250 182.503 L 462 181.841 462 201.921 M 60.743 223.500 C 67.750 237.525, 73.715 249, 74 249 C 74.285 249, 80.250 237.525, 87.257 223.500 L 99.995 198 74 198 L 48.005 198 60.743 223.500 " stroke="none" fill="black" fill-rule="evenodd"/>
</svg>