<svg xmlns="http://www.w3.org/2000/svg" width="595" height="324" viewBox="0 0 595 324" version="1.1">
	<path d="M 519.268 63.207 C 518.691 63.918, 511.194 78.563, 502.607 95.750 L 486.994 127 483.747 127.001 C 478.970 127.002, 469.120 132.096, 464.205 137.107 C 461.842 139.516, 458.692 143.965, 457.205 146.993 C 454.854 151.779, 454.519 153.613, 454.645 161 C 454.726 165.741, 455.627 172.596, 456.683 176.500 L 458.576 183.500 456.064 188.783 C 452.934 195.363, 453.788 197.359, 459.928 197.811 C 463.650 198.085, 464.319 198.519, 465.545 201.454 C 466.311 203.287, 468.536 207.513, 470.489 210.846 L 474.041 216.906 463.779 237.458 C 455.408 254.224, 453.720 258.332, 454.618 259.755 C 455.646 261.386, 460.017 261.500, 521.500 261.500 C 582.885 261.500, 587.355 261.384, 588.378 259.762 C 589.270 258.348, 587.525 254.111, 579.002 237.004 C 569.269 217.466, 568.630 215.825, 569.950 213.741 C 570.732 212.509, 572.900 208.575, 574.769 205 C 578.089 198.652, 578.275 198.488, 582.733 198 C 589.346 197.275, 590.070 195.469, 586.628 188.267 L 583.835 182.425 585.591 175.962 C 586.568 172.363, 587.380 165.735, 587.423 161 C 587.490 153.638, 587.128 151.742, 584.721 146.840 C 579.755 136.728, 569.811 128.888, 559.781 127.175 L 555.772 126.491 539.636 94.496 C 529.765 74.922, 522.882 62.386, 521.908 62.207 C 521.032 62.046, 519.844 62.496, 519.268 63.207 M 508.345 100.296 L 495.203 126.603 500.352 128.426 C 503.183 129.429, 507.481 131.656, 509.902 133.375 C 512.323 135.094, 514.468 136.050, 514.669 135.500 C 516.217 131.269, 519.836 126.500, 521.500 126.500 C 523.161 126.500, 526.684 131.132, 528.345 135.500 C 528.555 136.050, 529.800 135.540, 531.113 134.367 C 534.025 131.765, 539.268 129.032, 544.128 127.581 L 547.757 126.499 534.622 100.244 L 521.488 73.990 508.345 100.296 M 39.571 127.571 C 38.176 128.966, 38 136.152, 38 191.571 L 38 254 23.571 254 C 11.788 254, 8.855 254.288, 7.571 255.571 C 5.598 257.545, 5.598 258.455, 7.571 260.429 C 8.936 261.793, 13.463 262, 42 262 C 70.537 262, 75.064 261.793, 76.429 260.429 C 77.293 259.564, 78 258.471, 78 258 C 78 257.529, 77.293 256.436, 76.429 255.571 C 75.145 254.288, 72.212 254, 60.429 254 L 46 254 46 191.571 C 46 136.152, 45.824 128.966, 44.429 127.571 C 43.564 126.707, 42.471 126, 42 126 C 41.529 126, 40.436 126.707, 39.571 127.571 M 131.045 127.064 C 116.678 129.973, 105.545 141.273, 102.889 155.645 C 100.433 168.931, 110.275 198.785, 123.690 218.740 C 133.681 233.601, 149.127 248.465, 163.914 257.448 C 169.330 260.738, 170.305 261.029, 171.948 259.846 C 172.976 259.106, 177.544 255.842, 182.099 252.594 C 198.822 240.668, 213.398 223.712, 222.690 205.375 C 228.983 192.954, 231.411 186.228, 234.391 172.949 C 236.338 164.278, 236.599 161.373, 235.856 156.639 C 234.570 148.437, 231.379 142.276, 225.342 136.339 C 209.826 121.082, 183.758 124.165, 172.014 142.647 L 169.379 146.793 166.597 142.395 C 159.298 130.857, 144.284 124.383, 131.045 127.064 M 319.235 127.145 C 305.350 129.136, 292.505 135.680, 282.087 146.070 C 270.775 157.352, 263.886 172.140, 262.423 188.283 C 261.780 195.385, 261.865 195.857, 263.988 196.994 C 267.415 198.828, 268.747 196.673, 269.895 187.438 C 271.862 171.610, 277.631 160.232, 289.052 149.658 C 300.401 139.150, 313.602 134, 329.184 134 C 339.272 134, 347.110 135.856, 356.500 140.468 C 374.383 149.252, 386.924 167.970, 388.656 188.463 C 389.170 194.542, 389.690 196.299, 391.214 197.115 C 392.594 197.853, 393.564 197.777, 394.691 196.842 C 397.022 194.907, 395.936 181.477, 392.695 172.165 C 389.025 161.622, 384.550 154.613, 375.911 145.876 C 366.264 136.119, 354.305 129.905, 340.619 127.537 C 330.890 125.853, 328.544 125.810, 319.235 127.145 M 127.385 135.617 C 117.726 139.043, 110 149.714, 110 159.631 C 110 175.884, 119.921 201.577, 133.309 220 C 139.049 227.898, 153.362 241.689, 161.769 247.422 C 170.074 253.085, 169.114 253.225, 180.549 244.688 C 204.519 226.796, 221.794 199.267, 227.602 169.707 C 229.613 159.473, 229.015 154.354, 224.987 147.302 C 221.806 141.732, 216.020 137.111, 209.609 135.020 C 203.591 133.058, 193.093 134.170, 187.680 137.342 C 179.949 141.872, 174.067 150.781, 174.022 158.027 C 173.998 161.891, 171.675 166, 169.515 166 C 167.013 166, 165 162.918, 165 159.088 C 165 153.811, 159.742 143.755, 155.031 140.024 C 147.623 134.158, 136.501 132.384, 127.385 135.617 M 477.976 136.116 C 472.143 138.719, 467.447 143.293, 464.232 149.500 C 462.168 153.487, 461.666 155.816, 461.755 161 C 461.817 164.575, 462.277 168.850, 462.778 170.500 C 463.641 173.346, 464.187 172.507, 473.403 154.142 C 478.746 143.496, 482.968 134.635, 482.785 134.451 C 482.602 134.268, 480.438 135.017, 477.976 136.116 M 479.107 158.785 C 468.335 180.385, 466.837 183.983, 467.453 186.785 L 468.159 190 477.847 190 L 487.535 190 498.980 167.041 L 510.425 144.081 507.962 141.408 C 505.220 138.431, 496.597 134.025, 493.484 134.010 C 491.847 134.002, 489.147 138.654, 479.107 158.785 M 542 136.081 C 539.525 137.201, 536.292 139.273, 534.815 140.684 L 532.130 143.250 543.805 166.625 L 555.480 190 564.539 190 L 573.598 190 574.836 186.578 C 576.041 183.246, 575.753 182.516, 563.796 158.578 C 550.059 131.077, 550.972 132.020, 542 136.081 M 569.235 153.489 C 578.912 172.876, 579.058 173.010, 580.426 163.728 C 581.435 156.877, 579.021 149.442, 573.898 143.621 C 570.133 139.344, 563.656 135, 561.043 135 C 560.473 135, 564.160 143.320, 569.235 153.489 M 520.212 140.433 C 519.108 142.858, 519.477 146, 520.866 146 C 521.225 146, 522.027 145.187, 522.648 144.193 C 523.493 142.839, 523.475 141.821, 522.574 140.138 L 521.371 137.890 520.212 140.433 M 526.643 152.488 C 526.329 153.306, 525.774 156.223, 525.410 158.970 C 524.616 164.949, 522.949 166.754, 519.620 165.237 C 517.767 164.392, 517.174 163.120, 516.676 158.916 C 516.334 156.022, 515.692 153.292, 515.252 152.852 C 514.811 152.411, 507.282 166.409, 498.521 183.959 C 483.006 215.037, 482.629 215.941, 484.046 218.684 C 486.477 223.391, 507.060 243.296, 514.294 247.935 L 521.088 252.293 528.294 247.443 C 536.345 242.024, 553.256 225.715, 557.411 219.362 L 560.118 215.224 544.056 183.112 C 535.222 165.450, 527.818 151, 527.604 151 C 527.389 151, 526.957 151.670, 526.643 152.488 M 311.750 159.080 C 310.155 160.009, 310 162.388, 310 186.015 C 310 211.174, 310.060 211.962, 312.064 213.034 C 313.596 213.854, 314.498 213.832, 315.564 212.947 C 316.744 211.968, 317 207.174, 317 186.078 C 317 157.906, 316.671 156.214, 311.750 159.080 M 343.750 159.080 C 342.155 160.009, 342 162.388, 342 186.015 C 342 211.174, 342.060 211.962, 344.064 213.034 C 345.596 213.854, 346.498 213.832, 347.564 212.947 C 348.744 211.968, 349 207.174, 349 186.078 C 349 157.906, 348.671 156.214, 343.750 159.080 M 423.750 159.080 C 422.155 160.009, 422 162.388, 422 186.015 C 422 211.174, 422.060 211.962, 424.064 213.034 C 425.596 213.854, 426.498 213.832, 427.564 212.947 C 428.744 211.968, 429 207.174, 429 186.078 C 429 157.906, 428.671 156.214, 423.750 159.080 M 474.603 203.250 C 476.054 206.137, 477.381 208.657, 477.553 208.849 C 477.873 209.207, 483 199.497, 483 198.533 C 483 198.240, 480.517 198, 477.483 198 L 471.966 198 474.603 203.250 M 560.045 198.750 C 560.070 199.162, 561.140 201.507, 562.422 203.959 L 564.754 208.419 567.394 203.209 L 570.034 198 565.017 198 C 562.258 198, 560.020 198.338, 560.045 198.750 M 311.750 222.080 C 309.372 223.465, 309.542 226.685, 312.064 228.034 C 315.753 230.008, 318.819 225.219, 315.800 222.200 C 314.367 220.767, 314.022 220.757, 311.750 222.080 M 343.750 222.080 C 341.372 223.465, 341.542 226.685, 344.064 228.034 C 347.753 230.008, 350.819 225.219, 347.800 222.200 C 346.367 220.767, 346.022 220.757, 343.750 222.080 M 423.750 222.080 C 421.372 223.465, 421.542 226.685, 424.064 228.034 C 427.753 230.008, 430.819 225.219, 427.800 222.200 C 426.367 220.767, 426.022 220.757, 423.750 222.080 M 563 223.902 C 563 225.529, 543.989 244.839, 537.827 249.471 L 531.802 254 555.401 254 C 568.380 254, 579 253.769, 579 253.488 C 579 252.518, 563.987 223, 563.494 223 C 563.222 223, 563 223.406, 563 223.902 M 471.202 238.573 C 467.241 246.518, 464 253.239, 464 253.509 C 464 253.779, 474.395 254, 487.099 254 L 510.198 254 504.136 249.443 C 500.802 246.937, 493.649 240.216, 488.239 234.508 L 478.404 224.129 471.202 238.573 " stroke="none" fill="black" fill-rule="evenodd"/>
</svg>