<svg xmlns="http://www.w3.org/2000/svg" width="308" height="324" viewBox="0 0 308 324" version="1.1">
	<path d="M 71.550 62.918 C 67.869 68.875, 54.190 98.331, 54.604 99.410 C 55.269 101.144, 57.524 102.120, 59.295 101.440 C 60.007 101.167, 63.480 95.106, 67.014 87.972 C 70.547 80.837, 73.691 75, 74 75 C 74.309 75, 77.453 80.837, 80.986 87.972 C 84.520 95.106, 88.050 101.189, 88.832 101.489 C 90.716 102.212, 93 100.227, 93 97.866 C 93 95.626, 77.264 63.831, 75.628 62.765 C 74.071 61.751, 72.229 61.820, 71.550 62.918 M 105.488 157.028 L 74.402 188.057 71.971 185.469 C 68.238 181.496, 56.373 176.174, 48.566 174.971 C 34.952 172.874, 19.783 177.446, 10.001 186.596 C 4.444 191.794, 3.625 195.234, 7.805 195.827 C 9.399 196.053, 11.503 194.869, 14.627 191.990 C 27.514 180.111, 48.603 178.646, 63.750 188.578 C 66.638 190.471, 69 192.344, 69 192.740 C 69 193.135, 54.825 207.659, 37.500 225.016 C 20.175 242.372, 6 257.086, 6 257.715 C 6 259.191, 8.809 262, 10.285 262 C 10.914 262, 25.619 247.841, 42.964 230.534 L 74.500 199.069 78.808 201.972 C 93.723 212.025, 115.917 211.800, 131.528 201.437 C 140.095 195.751, 141.974 192.272, 137.873 189.690 C 136.602 188.890, 135.271 189.464, 131.803 192.305 C 129.359 194.308, 124.692 197.195, 121.430 198.723 C 116.127 201.206, 114.389 201.500, 105 201.500 C 95.541 201.500, 93.882 201.215, 88.265 198.620 C 84.835 197.036, 81.568 195.185, 81.005 194.507 C 80.248 193.594, 87.913 185.205, 110.491 162.237 C 127.271 145.167, 141 130.570, 141 129.800 C 141 128.169, 139.052 126, 137.587 126 C 137.029 126, 122.585 139.963, 105.488 157.028 M 167.750 255.076 C 165.417 256.440, 165.526 259.676, 167.948 260.972 C 169.256 261.672, 191.132 261.930, 234.589 261.757 C 294.951 261.517, 299.356 261.383, 300.386 259.750 C 301.191 258.474, 301.191 257.526, 300.386 256.250 C 299.356 254.616, 294.963 254.485, 234.391 254.276 C 191.547 254.129, 168.905 254.400, 167.750 255.076 " stroke="none" fill="black" fill-rule="evenodd"/>
</svg>