<svg xmlns="http://www.w3.org/2000/svg" width="468" height="324" viewBox="0 0 468 324" version="1.1">
	<path d="M 71.200 127.200 C 70.292 128.108, 70 143.689, 70 191.200 L 70 254 39.571 254 C 13.242 254, 8.931 254.212, 7.571 255.571 C 5.598 257.545, 5.598 258.455, 7.571 260.429 C 8.968 261.825, 16.372 262, 74 262 C 131.628 262, 139.032 261.825, 140.429 260.429 C 142.402 258.455, 142.402 257.545, 140.429 255.571 C 139.069 254.212, 134.758 254, 108.429 254 L 78 254 78 226 L 78 198 108.429 198 C 134.758 198, 139.069 197.788, 140.429 196.429 C 141.793 195.064, 142 190.537, 142 162 C 142 133.463, 141.793 128.936, 140.429 127.571 C 139.063 126.206, 134.503 126, 105.629 126 C 81.117 126, 72.085 126.315, 71.200 127.200 M 221.500 127.401 C 206.645 130.266, 195.144 136.774, 184.168 148.528 C 173.839 159.588, 168.206 172.225, 166.499 188.168 C 165.924 193.530, 166.094 194.951, 167.473 196.330 C 169.547 198.404, 170.435 198.422, 172.429 196.429 C 173.379 195.478, 174 193.126, 174 190.478 C 174 170.749, 188.156 149.193, 207 140.225 C 214.839 136.495, 223.274 134, 228.049 134 C 229.962 134, 230 135.171, 230 194 L 230 254 215.571 254 C 203.788 254, 200.855 254.288, 199.571 255.571 C 197.598 257.545, 197.598 258.455, 199.571 260.429 C 200.936 261.793, 205.463 262, 234 262 C 262.537 262, 267.064 261.793, 268.429 260.429 C 269.293 259.564, 270 258.471, 270 258 C 270 257.529, 269.293 256.436, 268.429 255.571 C 267.145 254.288, 264.212 254, 252.429 254 L 238 254 238 194 C 238 137.014, 238.090 134, 239.790 134 C 243.679 134, 253.877 137.214, 260.954 140.670 C 271.143 145.647, 281.353 155.857, 286.330 166.046 C 290.578 174.744, 293 183.494, 293 190.139 C 293 198.197, 292.216 198, 324.274 198 L 352.405 198 339.202 211.333 C 331.941 218.666, 326 225.159, 326 225.761 C 326 227.187, 328.825 230, 330.257 230 C 332.006 230, 366 195.761, 366 194 C 366 192.239, 332.006 158, 330.257 158 C 328.825 158, 326 160.813, 326 162.239 C 326 162.841, 331.949 169.342, 339.219 176.684 L 352.439 190.035 326.470 189.767 L 300.502 189.500 299.713 183.102 C 296.685 158.555, 275.450 135.008, 250.500 128.533 C 241.877 126.295, 229.699 125.820, 221.500 127.401 M 391.571 127.571 C 390.707 128.436, 390 129.640, 390 130.249 C 390 130.857, 396.844 138.250, 405.208 146.677 L 420.416 162 405.208 177.323 C 396.844 185.750, 390 193.143, 390 193.751 C 390 196.313, 393.250 198, 398.188 198 L 403.233 198 399.502 202.130 C 393.343 208.947, 390.611 216.128, 390.611 225.500 C 390.611 232, 391.099 234.564, 393.216 239.175 C 398.312 250.277, 407.704 257.695, 419.604 260.013 C 442.718 264.517, 464.546 242.700, 460.007 219.628 C 458.555 212.252, 456.077 207.198, 451.340 201.955 L 447.767 198 453.312 198 C 458.753 198, 462 196.412, 462 193.751 C 462 193.143, 455.156 185.750, 446.792 177.323 L 431.584 162 446.792 146.677 C 455.156 138.250, 462 130.857, 462 130.249 C 462 128.819, 459.181 126, 457.751 126 C 457.143 126, 449.750 132.844, 441.323 141.208 L 426 156.416 410.677 141.208 C 402.250 132.844, 394.857 126, 394.249 126 C 393.640 126, 392.436 126.707, 391.571 127.571 M 78 162 L 78 190 106 190 L 134 190 134 162 L 134 134 106 134 L 78 134 78 162 M 414.500 179 L 403.534 190 426 190 L 448.466 190 437.500 179 C 431.469 172.950, 426.294 168, 426 168 C 425.706 168, 420.531 172.950, 414.500 179 M 415.054 199.728 C 409.018 201.859, 401.781 209.260, 399.667 215.463 C 396.117 225.882, 398.321 237.066, 405.347 244.280 C 410.744 249.822, 416.047 252.291, 423.659 252.805 C 435.162 253.582, 445.604 247.621, 450.467 237.500 C 453.171 231.874, 453.632 222.419, 451.514 216.042 C 449.290 209.346, 441.926 201.844, 435.392 199.618 C 429.504 197.612, 420.916 197.658, 415.054 199.728 M 423.571 223.571 C 422.707 224.436, 422 225.529, 422 226 C 422 227.111, 424.889 230, 426 230 C 427.111 230, 430 227.111, 430 226 C 430 224.889, 427.111 222, 426 222 C 425.529 222, 424.436 222.707, 423.571 223.571 " stroke="none" fill="black" fill-rule="evenodd"/>
</svg>