<svg xmlns="http://www.w3.org/2000/svg" width="564" height="324" viewBox="0 0 564 324" version="1.1">
	<path d="M 224.500 126.944 C 216.325 128.268, 210.930 129.991, 203 133.814 C 192.442 138.905, 178.925 152.405, 173.780 163 C 166.893 177.182, 166.744 178.323, 166.267 220.597 C 165.879 255.050, 165.996 258.853, 167.490 260.347 C 168.993 261.850, 175.020 262, 234 262 C 291.628 262, 299.032 261.825, 300.429 260.429 C 301.791 259.066, 302 254.649, 302 227.239 C 302 208.625, 301.548 193.128, 300.902 189.560 C 296.771 166.761, 293.128 159.051, 280.539 146.461 C 270.721 136.644, 262.174 131.566, 250.500 128.618 C 242.811 126.676, 230.896 125.909, 224.500 126.944 M 488.515 158 L 456.460 190 392.801 190 C 336.263 190, 328.967 190.176, 327.571 191.571 C 325.598 193.545, 325.598 194.455, 327.571 196.429 C 328.844 197.701, 331.697 198, 342.575 198 L 356.006 198 341.020 227.961 C 332.777 244.439, 326.285 258.580, 326.594 259.384 C 327.265 261.133, 329.512 262.125, 331.274 261.448 C 331.975 261.180, 339.056 247.919, 347.010 231.980 C 354.964 216.041, 361.710 203, 362 203 C 362.290 203, 369.036 216.041, 376.990 231.980 C 384.944 247.919, 392.025 261.180, 392.726 261.448 C 393.427 261.717, 394.573 261.717, 395.274 261.448 C 395.975 261.180, 403.056 247.919, 411.010 231.980 C 418.964 216.041, 425.710 203, 426 203 C 426.290 203, 433.036 216.041, 440.990 231.980 C 448.944 247.919, 456.025 261.180, 456.726 261.448 C 458.488 262.125, 460.735 261.133, 461.406 259.384 C 461.715 258.580, 455.223 244.439, 446.980 227.961 L 431.994 198 445.710 198 L 459.427 198 490.703 166.782 L 521.979 135.563 537.312 150.782 C 545.746 159.152, 553.143 166, 553.751 166 C 555.200 166, 558 163.173, 558 161.710 C 558 160.033, 523.695 126, 522.004 126 C 521.216 126, 506.146 140.400, 488.515 158 M 219.217 135.449 C 198.050 140.575, 179.428 159.713, 175.090 180.799 C 174.429 184.014, 174 199.452, 174 220.049 L 174 254 234.114 254 L 294.228 254 293.702 219.750 C 293.382 198.896, 292.716 183.544, 291.999 180.500 C 287.988 163.461, 275.319 147.515, 260 140.225 C 255.325 138, 249.115 135.690, 246.201 135.090 C 239.260 133.662, 225.861 133.841, 219.217 135.449 M 380.743 223.500 C 387.750 237.525, 393.715 249, 394 249 C 394.285 249, 400.250 237.525, 407.257 223.500 L 419.995 198 394 198 L 368.005 198 380.743 223.500 M 39.571 223.571 C 38.707 224.436, 38 225.636, 38 226.239 C 38 226.841, 43.941 233.334, 51.202 240.667 L 64.405 254 36.774 254 C 12.988 254, 8.924 254.219, 7.571 255.571 C 5.598 257.545, 5.598 258.455, 7.571 260.429 C 8.968 261.825, 16.372 262, 74 262 C 131.628 262, 139.032 261.825, 140.429 260.429 C 142.402 258.455, 142.402 257.545, 140.429 255.571 C 139.076 254.219, 135.012 254, 111.226 254 L 83.595 254 96.798 240.667 C 104.059 233.334, 110 226.841, 110 226.239 C 110 224.817, 107.176 222, 105.751 222 C 105.143 222, 97.750 228.844, 89.323 237.208 L 74 252.416 58.677 237.208 C 50.250 228.844, 42.857 222, 42.249 222 C 41.640 222, 40.436 222.707, 39.571 223.571 " stroke="none" fill="black" fill-rule="evenodd"/>
</svg>