<svg xmlns="http://www.w3.org/2000/svg" width="403" height="324" viewBox="0 0 403 324" version="1.1">
	<path d="M 199.232 191.250 C 198.675 191.938, 190.951 207.048, 182.067 224.829 C 171.616 245.746, 166.120 257.803, 166.496 258.986 C 167.266 261.413, 169.895 262.332, 171.726 260.813 C 172.535 260.141, 179.622 246.749, 187.474 231.052 L 201.750 202.514 216.313 231.626 C 224.486 247.965, 231.617 261.023, 232.565 261.386 C 234.679 262.198, 237 260.358, 237 257.871 C 237 255.637, 205.272 191.833, 203.630 190.765 C 201.949 189.672, 200.369 189.846, 199.232 191.250 M 263.750 191.080 C 261.422 192.436, 261.524 195.675, 263.934 196.965 C 264.998 197.534, 267.871 198, 270.319 198 L 274.770 198 271.344 201.740 C 269.460 203.797, 266.714 207.960, 265.243 210.990 C 262.948 215.715, 262.567 217.782, 262.567 225.500 C 262.567 233.275, 262.941 235.270, 265.314 240.161 C 275.112 260.353, 300.189 266.719, 318.113 253.565 C 320.651 251.702, 324.026 248.130, 325.613 245.626 C 327.201 243.122, 328.725 241.066, 329 241.058 C 329.275 241.051, 330.850 243.079, 332.500 245.567 C 336.131 251.041, 340.180 254.277, 347.710 257.725 C 362.019 264.276, 381.088 258.641, 389.965 245.238 C 398.874 231.789, 397.514 213.107, 386.801 201.750 L 383.264 198 388.198 198 C 394.041 198, 397 196.655, 397 194 C 397 192.939, 396.130 191.605, 395.066 191.035 C 392.420 189.619, 266.184 189.662, 263.750 191.080 M 285.053 200.555 L 279.605 203.091 288.303 211.788 L 297 220.486 305.697 211.788 L 314.395 203.091 308.947 200.555 C 304.875 198.660, 301.859 198.020, 297 198.020 C 292.141 198.020, 289.125 198.660, 285.053 200.555 M 323.977 203.090 C 326.190 205.889, 328 208.589, 328 209.090 C 328 210.903, 329.606 209.937, 331.268 207.123 C 332.203 205.541, 334.281 202.841, 335.885 201.123 L 338.802 198 329.378 198 L 319.953 198 323.977 203.090 M 349.053 200.555 L 343.605 203.091 352.303 211.788 L 361 220.486 369.697 211.788 L 378.395 203.091 372.947 200.555 C 368.875 198.660, 365.859 198.020, 361 198.020 C 356.141 198.020, 353.125 198.660, 349.053 200.555 M 271.921 214.169 C 268.746 220.948, 268.762 229.388, 271.963 236.750 C 273.219 239.637, 274.538 242, 274.895 242 C 275.252 242, 279.247 238.278, 283.773 233.729 L 292.001 225.457 283.730 217.229 C 279.180 212.703, 275.207 209, 274.900 209 C 274.593 209, 273.252 211.326, 271.921 214.169 M 310.227 217.271 L 301.999 225.543 310.555 234.021 C 318.793 242.185, 319.166 242.426, 320.599 240.500 C 323.217 236.983, 325.281 228.020, 324.667 222.834 C 324.059 217.705, 320.672 209, 319.284 209 C 318.829 209, 314.753 212.722, 310.227 217.271 M 335.872 213.750 C 332.690 220.304, 332.717 230.572, 335.933 237.250 C 337.191 239.863, 338.518 242, 338.882 242 C 339.246 242, 343.247 238.278, 347.773 233.729 L 356.001 225.457 347.730 217.229 C 343.180 212.703, 339.170 209, 338.818 209 C 338.466 209, 337.141 211.137, 335.872 213.750 M 374.227 217.271 L 365.999 225.543 374.484 233.984 C 382.626 242.084, 383.030 242.346, 384.477 240.462 C 387.186 236.939, 389.282 228.030, 388.653 222.718 C 388.082 217.896, 384.506 209, 383.139 209 C 382.763 209, 378.753 212.722, 374.227 217.271 M 39.571 223.571 C 38.707 224.436, 38 225.636, 38 226.239 C 38 226.841, 43.941 233.334, 51.202 240.667 L 64.405 254 36.774 254 C 12.988 254, 8.924 254.219, 7.571 255.571 C 5.596 257.546, 5.598 258.455, 7.579 260.436 C 8.990 261.847, 16.058 261.987, 74.220 261.757 C 134.934 261.517, 139.356 261.383, 140.386 259.750 C 141.191 258.474, 141.191 257.526, 140.386 256.250 C 139.386 254.663, 136.698 254.475, 111.457 254.234 L 83.631 253.968 96.315 241.148 C 103.905 233.478, 109 227.539, 109 226.364 C 109 224.273, 107.241 222, 105.623 222 C 105.085 222, 97.750 228.844, 89.323 237.208 L 74 252.416 58.677 237.208 C 50.250 228.844, 42.857 222, 42.249 222 C 41.640 222, 40.436 222.707, 39.571 223.571 M 288.041 239.459 L 279.625 247.918 285.063 250.449 C 289.125 252.340, 292.144 252.980, 297 252.980 C 301.856 252.980, 304.875 252.340, 308.937 250.449 L 314.375 247.918 305.959 239.459 C 301.331 234.807, 297.299 231, 297 231 C 296.701 231, 292.669 234.807, 288.041 239.459 M 352.041 239.459 L 343.625 247.918 349.063 250.449 C 353.125 252.340, 356.144 252.980, 361 252.980 C 365.856 252.980, 368.875 252.340, 372.937 250.449 L 378.375 247.918 369.959 239.459 C 365.331 234.807, 361.299 231, 361 231 C 360.701 231, 356.669 234.807, 352.041 239.459 " stroke="none" fill="black" fill-rule="evenodd"/>
</svg>