<svg xmlns="http://www.w3.org/2000/svg" width="500" height="324" viewBox="0 0 500 324" version="1.1">
	<path d="M 39.571 127.571 C 38.176 128.966, 38 136.152, 38 191.571 L 38 254 23.571 254 C 11.788 254, 8.855 254.288, 7.571 255.571 C 5.598 257.545, 5.598 258.455, 7.571 260.429 C 8.936 261.793, 13.463 262, 42 262 C 70.537 262, 75.064 261.793, 76.429 260.429 C 77.293 259.564, 78 258.471, 78 258 C 78 257.529, 77.293 256.436, 76.429 255.571 C 75.145 254.288, 72.212 254, 60.429 254 L 46 254 46 191.571 C 46 136.152, 45.824 128.966, 44.429 127.571 C 43.564 126.707, 42.471 126, 42 126 C 41.529 126, 40.436 126.707, 39.571 127.571 M 157.500 127.436 C 143.080 130.276, 132.104 136.122, 122.001 146.345 C 114.082 154.357, 108.781 162.950, 105.261 173.479 L 102.580 181.500 102.217 220.309 C 101.945 249.402, 102.153 259.480, 103.049 260.559 C 104.068 261.787, 113.884 261.998, 169.372 261.985 C 205.193 261.976, 235.097 261.591, 235.826 261.129 C 236.888 260.456, 237.130 253.663, 237.041 227.058 C 236.926 192.963, 236.290 183.576, 233.443 174 C 228.654 157.893, 215.395 141.902, 200.500 134.271 C 186.707 127.205, 171.193 124.739, 157.500 127.436 M 424.500 158 L 392.512 190 329.190 190 C 287.453 190, 265.209 190.353, 263.934 191.035 C 262.870 191.605, 262 192.939, 262 194 C 262 197.203, 265.276 198, 278.434 198 C 285.345 198, 291 198.228, 291 198.507 C 291 198.785, 284.475 212.057, 276.500 228 C 268.525 243.943, 262 257.649, 262 258.458 C 262 260.785, 265.808 262.404, 267.663 260.865 C 268.507 260.164, 275.622 246.749, 283.474 231.052 L 297.750 202.514 312.337 231.674 C 320.360 247.713, 327.395 261.126, 327.971 261.482 C 330.986 263.346, 333.159 259.963, 346.921 231.986 C 354.763 216.044, 361.362 203, 361.586 203 C 361.810 203, 368.492 215.991, 376.435 231.869 C 384.535 248.062, 391.617 261.023, 392.565 261.386 C 394.495 262.127, 397 260.424, 397 258.371 C 397 257.610, 390.475 243.943, 382.500 228 C 374.525 212.057, 368 198.785, 368 198.507 C 368 198.228, 373.965 198, 381.256 198 L 394.512 198 425.997 166.503 L 457.483 135.005 473.245 150.745 C 486.723 164.203, 489.261 166.325, 490.754 165.385 C 494.733 162.880, 493.426 160.948, 475.861 143.361 C 466.324 133.812, 458.064 126, 457.505 126 C 456.946 126, 442.094 140.400, 424.500 158 M 154.645 135.584 C 139.529 139.243, 123.614 151.871, 116.625 165.751 C 110.256 178.399, 110 180.468, 110 219.210 L 110 254 170 254 L 230 254 229.983 226.750 C 229.956 184.754, 228.082 173.921, 218.388 159.734 C 210.131 147.650, 197.937 139.175, 183.540 135.515 C 176.213 133.653, 162.488 133.685, 154.645 135.584 M 316.608 223.250 C 323.546 237.137, 329.371 248.661, 329.553 248.859 C 329.878 249.211, 355 199.502, 355 198.508 C 355 198.228, 343.523 198, 329.496 198 L 303.992 198 316.608 223.250 " stroke="none" fill="black" fill-rule="evenodd"/>
</svg>