<svg xmlns="http://www.w3.org/2000/svg" width="244" height="324" viewBox="0 0 244 324" version="1.1">
	<path d="M 40.370 190.765 C 38.401 192.045, 6.007 257.855, 6.594 259.384 C 7.265 261.133, 9.512 262.124, 11.274 261.448 C 11.975 261.180, 19.056 247.919, 27.010 231.980 C 34.964 216.041, 41.710 203, 42 203 C 42.290 203, 49.036 216.041, 56.990 231.980 C 64.944 247.919, 72.108 261.211, 72.909 261.519 C 73.711 261.826, 75.218 261.226, 76.259 260.185 C 78.116 258.328, 77.837 257.662, 61.456 224.896 C 46.453 194.886, 43.744 190.031, 42 190.031 C 41.725 190.031, 40.991 190.361, 40.370 190.765 M 136.348 190.765 C 134.390 192.014, 102.011 257.865, 102.600 259.400 C 103.451 261.618, 106.109 262.213, 107.895 260.584 C 108.778 259.779, 115.794 246.493, 123.486 231.060 C 131.178 215.627, 137.713 203, 138.009 203 C 138.304 203, 145.101 216.162, 153.113 232.250 L 167.681 261.500 200.090 261.779 C 217.916 261.933, 233.512 261.812, 234.750 261.510 C 236.330 261.125, 237 260.224, 237 258.485 C 237 254.815, 204.904 191.104, 202.703 190.406 C 201.714 190.092, 200.322 190.318, 199.611 190.908 C 198.900 191.498, 192.075 204.810, 184.443 220.490 C 176.812 236.171, 170.322 249, 170.020 249 C 169.718 249, 163.178 236.339, 155.486 220.864 C 147.794 205.389, 140.905 192.114, 140.179 191.364 C 138.685 189.822, 137.996 189.714, 136.348 190.765 M 188.743 228.500 L 176.005 254 201.503 254 C 215.526 254, 227 253.772, 227 253.492 C 227 252.827, 202.070 203, 201.737 203 C 201.597 203, 195.750 214.475, 188.743 228.500 " stroke="none" fill="black" fill-rule="evenodd"/>
</svg>