<svg xmlns="http://www.w3.org/2000/svg" width="403" height="324" viewBox="0 0 403 324" version="1.1">
	<path d="M 7.571 127.571 C 6.175 128.968, 6 136.372, 6 194 C 6 251.628, 6.175 259.032, 7.571 260.429 C 8.436 261.293, 9.666 262, 10.305 262 C 12.018 262, 78 195.721, 78 194 C 78 192.279, 12.018 126, 10.305 126 C 9.666 126, 8.436 126.707, 7.571 127.571 M 103.571 127.571 C 102.175 128.968, 102 136.406, 102 194.371 C 102 243.771, 102.291 259.891, 103.200 260.800 C 104.109 261.709, 120.115 262, 169.118 262 C 204.713 262, 234.548 261.727, 235.418 261.393 C 236.839 260.848, 237 254.023, 237 194.515 C 237 123.099, 237.086 124.278, 232.064 126.966 C 230.314 127.902, 230 129.029, 230 134.364 L 230 140.657 225.653 136.492 C 214.930 126.218, 198.624 123.560, 185.959 130.021 C 180.476 132.818, 172.556 140.243, 170.970 144.073 L 169.728 147.070 166.429 142.170 C 154.455 124.390, 129.895 121.259, 114.130 135.502 L 110 139.233 110 134.839 C 110 130.665, 107.897 126, 106.015 126 C 105.535 126, 104.436 126.707, 103.571 127.571 M 290.355 126.998 C 278.362 129.491, 267.436 139.461, 263.886 151.150 C 262.248 156.542, 261.909 159.482, 262.413 163.931 C 263.926 177.309, 271.152 198.271, 278.708 211.203 L 282.041 216.906 271.779 237.458 C 263.408 254.224, 261.720 258.332, 262.618 259.755 C 263.646 261.386, 268.017 261.500, 329.500 261.500 C 390.885 261.500, 395.355 261.384, 396.378 259.762 C 397.270 258.348, 395.528 254.118, 387.022 237.044 L 376.570 216.064 378.854 212.282 C 388.942 195.574, 396.941 169.406, 395.683 157.222 C 393.722 138.222, 374.179 123.462, 355.542 126.908 C 349.515 128.022, 342.784 131.076, 339.113 134.363 C 337.800 135.538, 336.555 136.050, 336.345 135.500 C 334.684 131.132, 331.161 126.500, 329.500 126.500 C 327.836 126.500, 324.217 131.269, 322.669 135.500 C 322.468 136.050, 320.232 135.025, 317.700 133.223 C 309.805 127.601, 299.135 125.173, 290.355 126.998 M 127.627 135.468 C 118.721 138.643, 111.076 148.151, 110.214 157.125 C 108.859 171.228, 117.428 196.273, 130.186 215.500 C 136.699 225.315, 152.026 240.830, 161.686 247.388 L 168.872 252.265 173.432 249.593 C 182.514 244.270, 196.415 231.473, 204.489 221 C 218.190 203.229, 230.224 171.750, 228.642 157.818 C 226.323 137.393, 201.215 126.802, 184.797 139.325 C 179.145 143.635, 175.172 150.298, 174.016 157.404 C 173.033 163.443, 171.674 166, 169.449 166 C 167.008 166, 165.298 163.167, 164.702 158.131 C 163.574 148.605, 158.492 141.401, 149.854 137.085 C 142.871 133.595, 134.574 132.992, 127.627 135.468 M 286.363 135.922 C 276.214 140.531, 269.657 150.503, 269.805 161.104 C 269.943 171.041, 275.858 190.373, 282.924 203.984 L 285.770 209.467 302.104 176.781 L 318.438 144.095 315.969 141.415 C 309.565 134.464, 295.374 131.831, 286.363 135.922 M 349.500 136.377 C 346.750 137.674, 343.531 139.807, 342.347 141.118 L 340.195 143.500 356.468 175.985 L 372.741 208.470 376.742 200.485 C 381.823 190.343, 385.568 179.146, 387.608 167.996 C 389.073 159.989, 389.075 158.769, 387.625 153.781 C 383.012 137.915, 364.327 129.385, 349.500 136.377 M 328.212 140.433 C 327.108 142.858, 327.477 146, 328.866 146 C 329.225 146, 330.027 145.187, 330.648 144.193 C 331.493 142.839, 331.475 141.821, 330.574 140.138 L 329.371 137.890 328.212 140.433 M 14 194 L 14 248.495 41.248 221.248 L 68.495 194 41.248 166.752 L 14 139.505 14 194 M 334.643 152.488 C 334.329 153.306, 333.774 156.223, 333.410 158.970 C 332.616 164.949, 330.949 166.754, 327.620 165.237 C 325.767 164.392, 325.174 163.120, 324.676 158.916 C 324.334 156.022, 323.692 153.292, 323.252 152.852 C 322.811 152.411, 315.282 166.409, 306.521 183.959 C 291.006 215.037, 290.629 215.941, 292.046 218.684 C 294.426 223.293, 313.941 242.202, 321.750 247.466 L 329 252.353 336.250 247.473 C 344.338 242.028, 361.246 225.729, 365.411 219.362 L 368.118 215.224 352.056 183.112 C 343.222 165.450, 335.818 151, 335.604 151 C 335.389 151, 334.957 151.670, 334.643 152.488 M 226.763 196.762 C 218.500 217.098, 201.914 238.171, 183.500 251.728 L 180.500 253.937 205.250 253.968 L 230 254 230 222 C 230 204.400, 229.887 190.006, 229.750 190.012 C 229.613 190.019, 228.268 193.057, 226.763 196.762 M 110.028 223.750 L 110 254 134.066 254 L 158.131 254 150.816 248.176 C 135.665 236.115, 122.263 219.252, 114.042 201.910 L 110.055 193.500 110.028 223.750 M 371 223.975 C 371 225.619, 352.068 244.780, 345.753 249.527 L 339.802 254 363.401 254 C 376.380 254, 387 253.769, 387 253.488 C 387 252.518, 371.987 223, 371.494 223 C 371.222 223, 371 223.439, 371 223.975 M 279.202 238.573 C 275.241 246.518, 272 253.239, 272 253.509 C 272 253.779, 282.395 254, 295.099 254 L 318.198 254 312.136 249.443 C 308.802 246.937, 301.649 240.216, 296.239 234.508 L 286.404 224.129 279.202 238.573 " stroke="none" fill="black" fill-rule="evenodd"/>
</svg>