<svg xmlns="http://www.w3.org/2000/svg" width="52" height="324" viewBox="0 0 52 324" version="1.1">
	<path d="M 24.316 62.784 C 22.369 64.022, 6.007 97.855, 6.604 99.410 C 7.450 101.615, 10.110 102.210, 11.895 100.594 C 12.778 99.795, 16.185 93.709, 19.467 87.070 C 22.748 80.432, 25.687 75, 25.997 75 C 26.308 75, 29.453 80.837, 32.986 87.972 C 36.520 95.106, 40.050 101.189, 40.832 101.489 C 42.716 102.212, 45 100.227, 45 97.866 C 45 95.626, 29.264 63.831, 27.628 62.765 C 26.214 61.845, 25.789 61.847, 24.316 62.784 M 19.544 194.220 C 4.428 211.880, 4.952 239.658, 20.732 257.125 C 24.463 261.255, 26.962 261.956, 29.038 259.454 C 30.105 258.168, 29.958 257.452, 28.166 255.204 C 18.646 243.262, 16 236.731, 16 225.182 C 16 213.574, 18.038 208.371, 27.872 194.882 C 28.972 193.373, 28.998 192.702, 28 191.500 C 25.904 188.975, 23.322 189.806, 19.544 194.220 " stroke="none" fill="black" fill-rule="evenodd"/>
</svg>