<svg xmlns="http://www.w3.org/2000/svg" width="180" height="324" viewBox="0 0 180 324" version="1.1">
	<path d="M 71.571 127.571 C 70.178 128.965, 70 135.899, 70 188.799 L 70 248.455 40.711 219.227 C 24.602 203.152, 10.909 190, 10.282 190 C 8.807 190, 6 192.810, 6 194.287 C 6 196.056, 72.253 262, 74.030 262 C 77.992 262, 78 261.862, 78 194.371 C 78 136.406, 77.825 128.968, 76.429 127.571 C 75.564 126.707, 74.471 126, 74 126 C 73.529 126, 72.436 126.707, 71.571 127.571 M 135.571 127.571 C 134.288 128.855, 134 131.788, 134 143.571 L 134 158 119.571 158 C 107.788 158, 104.855 158.288, 103.571 159.571 C 101.598 161.545, 101.598 162.455, 103.571 164.429 C 104.855 165.712, 107.788 166, 119.571 166 L 134 166 134 212.429 C 134 253.303, 134.188 259.045, 135.571 260.429 C 136.436 261.293, 137.529 262, 138 262 C 138.471 262, 139.564 261.293, 140.429 260.429 C 141.812 259.045, 142 253.303, 142 212.429 L 142 166 156.429 166 C 168.212 166, 171.145 165.712, 172.429 164.429 C 174.402 162.455, 174.402 161.545, 172.429 159.571 C 171.145 158.288, 168.212 158, 156.429 158 L 142 158 142 143.571 C 142 131.788, 141.712 128.855, 140.429 127.571 C 139.564 126.707, 138.471 126, 138 126 C 137.529 126, 136.436 126.707, 135.571 127.571 " stroke="none" fill="black" fill-rule="evenodd"/>
</svg>