<svg xmlns="http://www.w3.org/2000/svg" width="532" height="324" viewBox="0 0 532 324" version="1.1">
	<path d="M 199.230 159.285 C 180.953 177.591, 166 193.084, 166 193.713 C 166 195.191, 168.808 198, 170.285 198 C 170.913 198, 185.506 183.947, 202.713 166.771 L 234 135.542 265.287 166.771 C 282.494 183.947, 297.029 198, 297.587 198 C 299.267 198, 301 195.730, 301 193.530 C 301 191.114, 236.343 126, 233.945 126 C 233.128 126, 217.506 140.978, 199.230 159.285 M 350.660 135.250 C 336.589 149.460, 329.513 163.913, 326.855 183.874 C 325.882 191.182, 325.874 195.209, 326.819 202.692 C 329.372 222.903, 336.426 237.321, 351.063 252.248 L 360.626 262 425.385 262 L 490.143 262 495.169 257.250 C 508.706 244.454, 518.168 228.823, 521.953 213 C 524.711 201.470, 524.711 185.530, 521.953 174 C 518.103 157.905, 507.454 140.427, 495.296 130.248 L 490.222 126 425.021 126 L 359.821 126 350.660 135.250 M 357.360 138.236 C 348.775 146.150, 341.240 158.382, 336.816 171.586 C 334.805 177.590, 334.500 180.474, 334.500 193.500 C 334.500 206.526, 334.805 209.410, 336.816 215.414 C 341.374 229.019, 349.019 241.235, 358.065 249.368 L 363.216 254 425.470 254 L 487.724 254 495.630 245.750 C 504.395 236.604, 510.207 226.643, 514.157 214 C 516.141 207.650, 516.494 204.431, 516.461 193 C 516.424 180.479, 516.190 178.831, 513.236 170.269 C 509.182 158.519, 503.217 148.739, 495.080 140.500 L 488.661 134 425.308 134 L 361.955 134 357.360 138.236 M 39.267 223.267 C 20.970 241.563, 6 257.056, 6 257.695 C 6 259.187, 8.799 262, 10.285 262 C 10.913 262, 25.509 247.944, 42.721 230.764 L 74.015 199.527 105.264 230.764 C 122.450 247.944, 137.039 262, 137.684 262 C 138.329 262, 139.564 261.293, 140.429 260.429 C 141.793 259.064, 142 254.537, 142 226 C 142 197.463, 141.793 192.936, 140.429 191.571 C 138.455 189.598, 137.545 189.598, 135.571 191.571 C 134.219 192.924, 134 196.990, 134 220.799 L 134 248.455 104.711 219.227 C 88.602 203.152, 74.772 190, 73.978 190 C 73.183 190, 57.563 204.970, 39.267 223.267 " stroke="none" fill="black" fill-rule="evenodd"/>
</svg>