<svg xmlns="http://www.w3.org/2000/svg" width="308" height="324" viewBox="0 0 308 324" version="1.1">
	<path d="M 231.750 159.080 C 229.372 160.465, 229.542 163.685, 232.064 165.034 C 235.753 167.008, 238.819 162.219, 235.800 159.200 C 234.367 157.767, 234.022 157.757, 231.750 159.080 M 7.579 191.564 C 4.148 194.995, 7.235 198, 14.190 198 L 19.237 198 16.244 201.062 C 8.737 208.740, 4.914 221.372, 7 231.604 C 10.093 246.775, 20.867 257.365, 35.953 260.061 C 41.514 261.055, 43.527 260.981, 48.990 259.581 C 59.393 256.916, 65.865 252.436, 70.992 244.352 L 73.755 239.995 75.001 243.004 C 76.935 247.671, 83.573 253.664, 90.690 257.168 C 96.273 259.917, 98.219 260.354, 104.832 260.343 C 115.208 260.328, 122.393 257.490, 129.353 250.661 C 137.450 242.714, 139.500 237.633, 139.500 225.500 C 139.500 214.260, 137.970 209.829, 131.461 202.225 L 127.931 198.102 133.612 197.801 C 139.976 197.464, 142.414 195.466, 140.386 192.250 C 139.356 190.617, 134.934 190.483, 74.220 190.243 C 16.058 190.013, 8.990 190.153, 7.579 191.564 M 167.750 191.076 C 165.417 192.440, 165.526 195.676, 167.948 196.972 C 169.256 197.672, 191.132 197.930, 234.589 197.757 C 294.951 197.517, 299.356 197.383, 300.386 195.750 C 301.191 194.474, 301.191 193.526, 300.386 192.250 C 299.356 190.616, 294.963 190.485, 234.391 190.276 C 191.547 190.129, 168.905 190.400, 167.750 191.076 M 31.605 199.568 C 24.049 202.337, 24.073 202.527, 33.170 211.671 L 41.457 220.001 49.692 211.809 C 58.838 202.711, 58.906 202.178, 51.260 199.573 C 45.620 197.651, 36.842 197.649, 31.605 199.568 M 65.926 200.145 C 67.192 201.325, 69.472 204.252, 70.992 206.648 L 73.755 211.005 74.978 208.052 C 75.651 206.428, 77.753 203.502, 79.649 201.550 L 83.096 198 73.360 198 L 63.623 198 65.926 200.145 M 95.603 199.477 C 88.265 202.092, 88.324 202.620, 97.006 212 L 104.875 220.500 113.447 212.012 C 122.011 203.533, 122.018 203.522, 119.818 201.863 C 114.670 197.980, 103.024 196.832, 95.603 199.477 M 18.184 210.278 C 14.139 215.152, 12.867 227.319, 15.573 235.260 C 18.178 242.906, 18.711 242.838, 27.809 233.692 L 36.001 225.457 27.671 217.170 C 20.854 210.389, 19.131 209.137, 18.184 210.278 M 55.227 217.271 L 46.999 225.543 55.459 233.959 L 63.918 242.375 66.449 236.937 C 69.867 229.595, 69.898 221.472, 66.536 214.250 C 65.192 211.363, 63.949 209, 63.774 209 C 63.599 209, 59.753 212.722, 55.227 217.271 M 82.192 210.269 C 77.752 215.619, 76.575 229.264, 79.918 236.627 C 80.948 238.896, 82.209 241.011, 82.718 241.326 C 83.228 241.641, 87.325 238.199, 91.823 233.678 L 100.001 225.457 91.671 217.170 C 84.884 210.419, 83.128 209.140, 82.192 210.269 M 118.727 216.772 C 114.477 221.047, 111 224.995, 111 225.546 C 111 226.667, 126.144 242, 127.252 242 C 127.641 242, 128.973 240.088, 130.212 237.750 C 132.008 234.363, 132.465 231.875, 132.465 225.500 C 132.465 219.125, 132.008 216.637, 130.212 213.250 C 128.973 210.912, 127.620 209, 127.206 209 C 126.792 209, 122.976 212.497, 118.727 216.772 M 33.170 239.329 C 24.017 248.530, 24.002 248.678, 31.962 251.487 C 37.497 253.439, 45.426 253.415, 51.260 251.427 C 58.906 248.822, 58.838 248.289, 49.692 239.191 L 41.457 230.999 33.170 239.329 M 96.590 239.250 C 89.073 247.431, 89.027 247.514, 91.085 249.225 C 96.450 253.685, 108.737 254.267, 116.937 250.449 L 122.375 247.918 113.959 239.459 C 109.331 234.807, 105.235 231, 104.858 231 C 104.480 231, 100.760 234.713, 96.590 239.250 " stroke="none" fill="black" fill-rule="evenodd"/>
</svg>