<svg xmlns="http://www.w3.org/2000/svg" width="308" height="324" viewBox="0 0 308 324" version="1.1">
	<path d="M 55.571 63.571 C 54.707 64.436, 54 65.317, 54 65.531 C 54 66.316, 71.159 100.529, 71.965 101.349 C 74.275 103.702, 76.913 100.229, 84.760 84.501 C 89.292 75.417, 93 67.143, 93 66.115 C 93 63.770, 90.710 61.790, 88.832 62.511 C 88.050 62.811, 84.520 68.894, 80.986 76.028 C 77.453 83.163, 74.308 89, 73.997 89 C 73.687 89, 70.748 83.534, 67.467 76.853 C 59.925 61.499, 58.847 60.296, 55.571 63.571 M 103.616 159.527 C 102.727 160.416, 102 161.636, 102 162.239 C 102 162.841, 107.941 169.334, 115.202 176.667 L 128.405 190 68.774 190 C 15.897 190, 8.965 190.178, 7.571 191.571 C 5.598 193.545, 5.598 194.455, 7.571 196.429 C 8.965 197.822, 15.897 198, 68.774 198 L 128.405 198 115.202 211.333 C 107.941 218.666, 102 225.159, 102 225.761 C 102 227.200, 104.997 230.172, 106.068 229.795 C 107.353 229.342, 142 194.827, 142 194 C 142 193.173, 107.353 158.658, 106.068 158.205 C 105.608 158.043, 104.505 158.638, 103.616 159.527 M 263.750 159.080 C 262.155 160.009, 262 162.388, 262 186.015 C 262 211.174, 262.060 211.962, 264.064 213.034 C 265.596 213.854, 266.498 213.832, 267.564 212.947 C 268.744 211.968, 269 207.174, 269 186.078 C 269 157.906, 268.671 156.214, 263.750 159.080 M 167.750 191.073 C 165.413 192.444, 165.527 195.677, 167.960 196.979 C 169.243 197.665, 181.208 197.936, 202.601 197.764 C 232.469 197.523, 235.378 197.349, 236.386 195.750 C 237.191 194.474, 237.191 193.526, 236.386 192.250 C 235.377 190.649, 232.483 190.481, 202.391 190.273 C 181.280 190.127, 168.873 190.414, 167.750 191.073 M 263.750 222.080 C 261.372 223.465, 261.542 226.685, 264.064 228.034 C 267.753 230.008, 270.819 225.219, 267.800 222.200 C 266.367 220.767, 266.022 220.757, 263.750 222.080 " stroke="none" fill="black" fill-rule="evenodd"/>
</svg>