<svg xmlns="http://www.w3.org/2000/svg" width="244" height="324" viewBox="0 0 244 324" version="1.1">
	<path d="M 23.571 63.571 C 22.707 64.436, 22 65.317, 22 65.531 C 22 66.993, 39.421 100.653, 40.488 101.252 C 41.225 101.665, 42.440 101.768, 43.187 101.482 C 45.102 100.747, 62.082 66.377, 61.403 64.609 C 60.732 62.858, 58.483 61.877, 56.705 62.560 C 55.993 62.833, 52.520 68.894, 48.986 76.028 C 45.453 83.163, 42.308 89, 41.997 89 C 41.687 89, 38.748 83.534, 35.467 76.853 C 27.925 61.499, 26.847 60.296, 23.571 63.571 M 7.571 127.571 C 4.149 130.994, 7.242 134, 14.188 134 L 19.233 134 15.660 137.955 C 5.450 149.255, 3.560 164.882, 10.781 178.288 C 15.413 186.888, 25.189 194.207, 33.908 195.601 L 38 196.256 38 225.128 L 38 254 23.571 254 C 11.788 254, 8.855 254.288, 7.571 255.571 C 5.598 257.545, 5.598 258.455, 7.571 260.429 C 8.936 261.793, 13.463 262, 42 262 C 70.537 262, 75.064 261.793, 76.429 260.429 C 78.402 258.455, 78.402 257.545, 76.429 255.571 C 75.145 254.288, 72.212 254, 60.429 254 L 46 254 46 225 C 46 200.219, 46.213 196, 47.462 196 C 52.056 196, 60.841 191.319, 66.080 186.080 C 79.039 173.121, 79.833 152.181, 67.882 138.603 L 63.830 134 69.344 134 C 74.565 134, 78 132.413, 78 130 C 78 129.529, 77.293 128.436, 76.429 127.571 C 75.064 126.207, 70.537 126, 42 126 C 13.463 126, 8.936 126.207, 7.571 127.571 M 31.054 135.728 C 25.018 137.859, 17.781 145.260, 15.667 151.463 C 11.995 162.241, 14.382 173.477, 21.952 181.048 C 32.402 191.497, 49.888 191.773, 60.280 181.653 C 66.701 175.401, 68.500 170.989, 68.500 161.500 C 68.500 152.011, 66.701 147.599, 60.280 141.347 C 53.109 134.363, 41.332 132.099, 31.054 135.728 M 135.656 190.750 C 131.525 197.458, 102.200 258.358, 102.600 259.400 C 103.451 261.618, 106.109 262.213, 107.895 260.584 C 108.778 259.779, 115.794 246.493, 123.486 231.060 C 131.178 215.627, 137.720 203, 138.025 203 C 138.329 203, 145.086 216.162, 153.039 232.250 L 167.500 261.500 200 261.779 C 217.875 261.933, 233.463 261.825, 234.640 261.538 C 235.817 261.252, 237.046 260.323, 237.371 259.475 C 238.195 257.327, 205.021 191.141, 202.760 190.424 C 201.802 190.120, 200.547 190.162, 199.971 190.518 C 199.395 190.874, 192.360 204.287, 184.337 220.326 L 169.750 249.486 155.255 220.493 C 147.283 204.547, 140.251 191.169, 139.630 190.765 C 138.160 189.809, 136.240 189.802, 135.656 190.750 M 188.743 228.500 L 176.005 254 201.503 254 C 215.526 254, 227 253.772, 227 253.492 C 227 252.827, 202.070 203, 201.737 203 C 201.597 203, 195.750 214.475, 188.743 228.500 " stroke="none" fill="black" fill-rule="evenodd"/>
</svg>