<svg xmlns="http://www.w3.org/2000/svg" width="500" height="324" viewBox="0 0 500 324" version="1.1">
	<path d="M 103.571 127.571 C 102.206 128.937, 102 133.497, 102 162.371 C 102 186.883, 102.315 195.915, 103.200 196.800 C 104.085 197.685, 113.106 198, 137.578 198 C 165.695 198, 170.943 197.774, 171.987 196.516 C 173.623 194.545, 171.895 184.488, 168.827 178.123 C 158.915 157.558, 131.109 152.162, 114.125 167.506 L 110 171.233 110 150.839 C 110 133.999, 109.729 130.058, 108.443 128.223 C 106.598 125.588, 105.678 125.465, 103.571 127.571 M 255.536 127.055 C 227.435 131.419, 205.036 152.936, 199.428 180.954 C 192.600 215.071, 214.777 249.827, 249 258.640 C 256.888 260.672, 272.389 260.905, 280 259.107 C 283.025 258.392, 289.735 255.780, 294.911 253.303 C 310.354 245.912, 322.804 231.838, 328.500 215.335 C 333.488 200.884, 333.493 186, 328.515 171.665 C 325.010 161.571, 320.400 154.402, 312 145.981 C 297.145 131.088, 275.748 123.917, 255.536 127.055 M 359.750 127.080 C 357.422 128.436, 357.524 131.675, 359.934 132.965 C 361.205 133.645, 382.207 134, 421.178 134 L 480.487 134 451.244 163.256 C 435.160 179.347, 422 193.207, 422 194.056 C 422 197.782, 423.685 198, 452.444 198 L 480.487 198 451.244 227.256 C 435.160 243.347, 422 257.281, 422 258.221 C 422 259.161, 422.961 260.444, 424.136 261.073 C 426.103 262.126, 428.918 259.572, 459.636 228.864 C 477.986 210.520, 493 194.811, 493 193.956 C 493 190.217, 491.331 190, 462.556 190 L 434.513 190 463.756 160.744 C 479.840 144.653, 493 130.793, 493 129.944 C 493 126.012, 492.775 125.999, 426.050 126.030 C 384.069 126.050, 360.888 126.417, 359.750 127.080 M 250.072 135.591 C 236.561 139.223, 223.183 148.984, 215.075 161.126 C 202.701 179.656, 202.701 207.344, 215.075 225.874 C 232.041 251.281, 263.684 260.081, 291.500 247.129 C 308.278 239.317, 321.318 221.376, 324.485 201.750 L 325.091 198 294.745 198 C 272.477 198, 264.081 197.681, 263.200 196.800 C 262.319 195.919, 262 187.422, 262 164.800 L 262 134 258.750 134.066 C 256.962 134.102, 253.057 134.788, 250.072 135.591 M 269 162 L 269 190 297.088 190 L 325.176 190 324.542 185.750 C 321.600 166.013, 309.035 148.496, 291.807 140.112 C 285.351 136.971, 275.379 134, 271.290 134 L 269 134 269 162 M 127.385 167.617 C 121.552 169.686, 115.605 175.144, 112.588 181.199 C 107.895 190.618, 106.144 190, 137.519 190 L 165.038 190 164.392 187.250 C 162.374 178.665, 155.032 170.404, 146.684 167.326 C 142.298 165.709, 132.343 165.859, 127.385 167.617 M 40.348 190.765 C 38.390 192.014, 6.011 257.865, 6.600 259.400 C 7.266 261.135, 9.518 262.122, 11.274 261.448 C 11.975 261.180, 19.056 247.919, 27.010 231.980 C 34.964 216.041, 41.710 203, 42 203 C 42.290 203, 49.036 216.041, 56.990 231.980 C 64.944 247.919, 72.025 261.180, 72.726 261.448 C 74.488 262.124, 76.735 261.133, 77.406 259.384 C 77.993 257.855, 45.599 192.045, 43.630 190.765 C 43.009 190.361, 42.275 190.031, 42 190.031 C 41.725 190.031, 40.981 190.361, 40.348 190.765 " stroke="none" fill="black" fill-rule="evenodd"/>
</svg>