<svg xmlns="http://www.w3.org/2000/svg" width="340" height="324" viewBox="0 0 340 324" version="1.1">
	<path d="M 63.102 127.162 C 37.850 130.772, 15.064 151.522, 8.374 177 C 6.113 185.610, 6.113 201.390, 8.374 210 C 11.506 221.926, 16.616 230.662, 25.974 240.084 C 38.026 252.219, 48.425 257.529, 65.214 260.122 C 73.903 261.465, 73.704 261.465, 82.284 260.088 C 98.311 257.515, 111.682 250.462, 122.324 238.967 C 134.220 226.118, 140.218 210.879, 140.218 193.500 C 140.218 181.889, 138.004 172.736, 132.759 162.653 C 122.751 143.418, 104.005 130.160, 82.398 127.037 C 74.447 125.887, 71.899 125.904, 63.102 127.162 M 58.645 135.584 C 38.562 140.445, 20.305 158.877, 15.537 179.103 C 13.610 187.282, 13.610 199.718, 15.537 207.897 C 20.363 228.369, 38.631 246.637, 59.103 251.463 C 62.621 252.292, 66.513 252.977, 67.750 252.985 L 70 253 70 193.500 L 70 134 67.250 134.083 C 65.737 134.129, 61.865 134.804, 58.645 135.584 M 78 193.500 C 78 244.825, 78.199 253, 79.451 253 C 83.737 253, 92.473 250.355, 99.899 246.809 C 120.021 237.201, 133 216.298, 133 193.500 C 133 171.579, 120.519 150.749, 101.397 140.757 C 94.962 137.394, 84.233 134.053, 79.750 134.015 C 78.103 134.001, 78 137.494, 78 193.500 M 290.355 158.986 C 279.790 161.214, 270.114 169.146, 265.329 179.500 C 261.374 188.059, 261.386 198.895, 265.361 207.610 C 268.861 215.285, 275.689 222.075, 283.480 225.629 C 291.387 229.236, 301.732 229.409, 310.297 226.077 C 317.347 223.334, 325.540 215.648, 329.033 208.500 C 331.125 204.220, 331.479 202.060, 331.488 193.500 C 331.502 181.368, 329.458 176.293, 321.353 168.339 C 313.361 160.497, 300.948 156.752, 290.355 158.986 M 287.748 167.427 C 269.840 173.818, 263.939 196.971, 276.447 211.770 C 281.306 217.518, 287.292 220.291, 295.883 220.774 C 302.994 221.173, 303.926 220.979, 309.911 217.851 C 330.057 207.321, 330.024 179.164, 309.854 169.085 C 302.910 165.615, 294.577 164.990, 287.748 167.427 M 167.585 191.558 C 166.713 192.430, 166 193.529, 166 194 C 166 194.471, 166.713 195.570, 167.585 196.442 C 168.978 197.835, 173.159 197.995, 202.226 197.763 C 232.452 197.523, 235.377 197.350, 236.386 195.750 C 237.191 194.474, 237.191 193.526, 236.386 192.250 C 235.377 190.650, 232.452 190.477, 202.226 190.237 C 173.159 190.005, 168.978 190.165, 167.585 191.558 M 263.750 255.073 C 261.413 256.444, 261.527 259.677, 263.960 260.979 C 265.243 261.665, 277.208 261.936, 298.601 261.764 C 328.469 261.523, 331.378 261.349, 332.386 259.750 C 333.191 258.474, 333.191 257.526, 332.386 256.250 C 331.377 254.649, 328.483 254.481, 298.391 254.273 C 277.280 254.127, 264.873 254.414, 263.750 255.073 " stroke="none" fill="black" fill-rule="evenodd"/>
</svg>