<svg xmlns="http://www.w3.org/2000/svg" width="212" height="324" viewBox="0 0 212 324" version="1.1">
	<path d="M 55.571 63.571 C 54.707 64.436, 54 65.332, 54 65.564 C 54 65.796, 57.934 73.868, 62.741 83.502 C 71.072 100.196, 73.702 103.726, 76.035 101.349 C 78.136 99.210, 93.885 65.863, 93.396 64.590 C 92.731 62.856, 90.476 61.880, 88.705 62.560 C 87.993 62.833, 84.520 68.894, 80.986 76.028 C 77.453 83.163, 74.308 89, 73.997 89 C 73.687 89, 70.748 83.534, 67.467 76.853 C 59.925 61.499, 58.847 60.296, 55.571 63.571 M 168.200 159.200 C 167.540 159.860, 167 161.091, 167 161.937 C 167 162.782, 172.956 169.442, 180.236 176.737 L 193.472 190 101.308 190 C 18.855 190, 8.977 190.166, 7.571 191.571 C 5.598 193.545, 5.598 194.455, 7.571 196.429 C 8.931 197.788, 13.242 198, 39.571 198 L 70 198 70 228.429 C 70 254.758, 70.212 259.069, 71.571 260.429 C 73.545 262.402, 74.455 262.402, 76.429 260.429 C 77.788 259.069, 78 254.758, 78 228.429 L 78 198 135.736 198 L 193.472 198 180.236 211.263 C 172.956 218.558, 167 225.218, 167 226.063 C 167 227.796, 168.896 230, 170.385 230 C 172.047 230, 206 195.680, 206 194 C 206 192.320, 172.047 158, 170.385 158 C 169.843 158, 168.860 158.540, 168.200 159.200 " stroke="none" fill="black" fill-rule="evenodd"/>
</svg>