<svg xmlns="http://www.w3.org/2000/svg" width="372" height="324" viewBox="0 0 372 324" version="1.1">
	<path d="M 55.571 63.571 C 54.707 64.436, 54 65.332, 54 65.564 C 54 67.123, 71.710 101.058, 72.727 101.449 C 73.427 101.717, 74.573 101.717, 75.273 101.449 C 77.129 100.736, 94.063 66.328, 93.403 64.609 C 92.732 62.858, 90.483 61.877, 88.705 62.560 C 87.993 62.833, 84.520 68.894, 80.986 76.028 C 77.453 83.163, 74.308 89, 73.997 89 C 73.687 89, 70.748 83.534, 67.467 76.853 C 59.925 61.499, 58.847 60.296, 55.571 63.571 M 63.102 127.108 C 37.640 130.961, 15.155 151.450, 8.349 177 C 6.078 185.527, 6.091 201.277, 8.377 210 C 11.585 222.239, 16.558 230.636, 26.461 240.535 C 40.487 254.554, 54.258 260.346, 73.500 260.319 C 91.312 260.293, 105.813 254.655, 118.472 242.832 C 130.713 231.401, 137.551 218.750, 140.002 203 C 141.473 193.553, 141.472 194.034, 140.037 184.500 C 137.606 168.338, 130.876 155.751, 118.472 144.168 C 103.724 130.394, 83.191 124.068, 63.102 127.108 M 58.645 135.584 C 38.671 140.419, 20.279 158.986, 15.537 179.103 C 10.672 199.742, 16.569 220.600, 31.484 235.516 C 50.169 254.200, 77.998 258.470, 101.397 246.243 C 115.565 238.839, 127.867 223.149, 131.463 207.897 C 134.053 196.908, 137.186 198, 103.071 198 C 77.197 198, 72.930 197.787, 71.571 196.429 C 70.212 195.069, 70 190.758, 70 164.429 L 70 134 67.250 134.083 C 65.737 134.129, 61.865 134.804, 58.645 135.584 M 78 162 L 78 190 105.500 190 L 133 190 132.985 187.750 C 132.977 186.512, 132.292 182.621, 131.463 179.103 C 126.662 158.739, 108.261 140.338, 87.897 135.537 C 76.926 132.951, 78 130.080, 78 162 M 327.571 159.571 C 326.707 160.436, 326 161.636, 326 162.239 C 326 162.841, 331.941 169.334, 339.202 176.667 L 352.405 190 260.774 190 C 178.806 190, 168.977 190.166, 167.571 191.571 C 165.598 193.545, 165.598 194.455, 167.571 196.429 C 168.931 197.788, 173.242 198, 199.571 198 L 230 198 230 228.429 C 230 254.758, 230.212 259.069, 231.571 260.429 C 233.545 262.402, 234.455 262.402, 236.429 260.429 C 237.788 259.069, 238 254.758, 238 228.429 L 238 198 295.202 198 L 352.405 198 339.202 211.333 C 331.941 218.666, 326 225.159, 326 225.761 C 326 227.187, 328.825 230, 330.257 230 C 332.006 230, 366 195.761, 366 194 C 366 192.239, 332.006 158, 330.257 158 C 329.644 158, 328.436 158.707, 327.571 159.571 " stroke="none" fill="black" fill-rule="evenodd"/>
</svg>