<svg xmlns="http://www.w3.org/2000/svg" width="308" height="324" viewBox="0 0 308 324" version="1.1">
	<path d="M 71.550 62.918 C 67.869 68.875, 54.190 98.331, 54.604 99.410 C 55.269 101.144, 57.524 102.120, 59.295 101.440 C 60.007 101.167, 63.480 95.106, 67.014 87.972 C 70.547 80.837, 73.691 75, 74 75 C 74.309 75, 77.453 80.837, 80.986 87.972 C 84.520 95.106, 88.050 101.189, 88.832 101.489 C 90.716 102.212, 93 100.227, 93 97.866 C 93 95.626, 77.264 63.831, 75.628 62.765 C 74.071 61.751, 72.229 61.820, 71.550 62.918 M 167.750 159.080 C 166.138 160.019, 166 162.769, 166 194.015 C 166 227.256, 166.041 227.952, 168.064 229.034 C 172.316 231.310, 173 229.071, 173 212.878 L 173 198 233.474 198 L 293.948 198 294.224 213.142 C 294.458 225.992, 294.752 228.444, 296.166 229.334 C 297.374 230.095, 298.268 230.023, 299.416 229.070 C 300.804 227.918, 301 223.579, 301 194 C 301 164.421, 300.804 160.082, 299.416 158.930 C 298.268 157.977, 297.374 157.905, 296.166 158.666 C 294.752 159.556, 294.458 162.008, 294.224 174.858 L 293.948 190 233.474 190 L 173 190 173 175.200 C 173 158.584, 172.299 156.431, 167.750 159.080 M 39.230 223.285 C 20.953 241.591, 6 257.084, 6 257.713 C 6 258.342, 6.707 259.564, 7.571 260.429 C 8.968 261.825, 16.372 262, 74 262 C 131.628 262, 139.032 261.825, 140.429 260.429 C 141.293 259.564, 141.991 258.552, 141.980 258.179 C 141.937 256.697, 75.399 189.970, 73.980 189.984 C 73.144 189.993, 57.506 204.978, 39.230 223.285 M 46.500 227 L 19.514 254 74 254 L 128.486 254 101.500 227 C 86.658 212.150, 74.283 200, 74 200 C 73.717 200, 61.342 212.150, 46.500 227 " stroke="none" fill="black" fill-rule="evenodd"/>
</svg>