<svg xmlns="http://www.w3.org/2000/svg" width="372" height="324" viewBox="0 0 372 324" version="1.1">
	<path d="M 7.571 191.571 C 6.207 192.936, 6 197.463, 6 226 C 6 254.537, 6.207 259.064, 7.571 260.429 C 8.436 261.293, 9.529 262, 10 262 C 10.471 262, 11.564 261.293, 12.429 260.429 C 13.788 259.069, 14 254.758, 14 228.429 L 14 198 74 198 L 134 198 134 228.800 C 134 251.422, 134.319 259.919, 135.200 260.800 C 136.085 261.685, 145.117 262, 169.629 262 C 198.503 262, 203.063 261.794, 204.429 260.429 C 206.402 258.455, 206.402 257.545, 204.429 255.571 C 203.069 254.212, 198.758 254, 172.429 254 L 142 254 142 223.571 C 142 197.242, 141.788 192.931, 140.429 191.571 C 139.032 190.175, 131.628 190, 74 190 C 16.372 190, 8.968 190.175, 7.571 191.571 M 231.571 191.571 C 228.148 194.995, 231.242 198, 238.190 198 L 243.237 198 240.059 201.250 C 238.311 203.037, 235.467 207.370, 233.740 210.877 C 230.989 216.464, 230.600 218.277, 230.600 225.500 C 230.600 232.734, 230.988 234.533, 233.762 240.168 C 239.173 251.159, 247.676 257.689, 259.604 260.013 C 273.181 262.659, 289.201 255.327, 295.533 243.568 L 297.360 240.176 300.064 244.440 C 307.587 256.302, 322.252 262.723, 335.604 260 C 350.556 256.952, 360.952 246.556, 364 231.604 C 366.086 221.372, 362.263 208.740, 354.756 201.062 L 351.763 198 357.310 198 C 362.565 198, 366 196.419, 366 194 C 366 193.529, 365.293 192.436, 364.429 191.571 C 363.032 190.175, 355.628 190, 298 190 C 240.372 190, 232.968 190.175, 231.571 191.571 M 255.605 199.568 C 248.049 202.337, 248.073 202.527, 257.170 211.671 L 265.457 220.001 273.692 211.809 C 282.838 202.711, 282.906 202.178, 275.260 199.573 C 269.620 197.651, 260.842 197.649, 255.605 199.568 M 289.926 200.145 C 291.192 201.325, 293.446 204.211, 294.934 206.557 L 297.640 210.824 299.443 207.476 C 300.435 205.635, 302.594 202.749, 304.242 201.064 L 307.237 198 297.430 198 L 287.623 198 289.926 200.145 M 319.605 199.568 C 312.049 202.337, 312.073 202.527, 321.170 211.671 L 329.457 220.001 337.692 211.809 C 346.838 202.711, 346.906 202.178, 339.260 199.573 C 333.620 197.651, 324.842 197.649, 319.605 199.568 M 242.184 210.278 C 238.139 215.152, 236.867 227.319, 239.573 235.260 C 242.178 242.906, 242.711 242.838, 251.809 233.692 L 260.001 225.457 251.671 217.170 C 244.854 210.389, 243.131 209.137, 242.184 210.278 M 279.191 217.308 L 270.999 225.543 279.329 233.830 C 288.530 242.983, 288.678 242.998, 291.487 235.038 C 293.439 229.503, 293.415 221.574, 291.427 215.740 C 288.822 208.094, 288.289 208.162, 279.191 217.308 M 306.184 210.278 C 302.139 215.152, 300.867 227.319, 303.573 235.260 C 306.178 242.906, 306.711 242.838, 315.809 233.692 L 324.001 225.457 315.671 217.170 C 308.854 210.389, 307.131 209.137, 306.184 210.278 M 343.191 217.308 L 334.999 225.543 343.329 233.830 C 352.530 242.983, 352.678 242.998, 355.487 235.038 C 357.439 229.503, 357.415 221.574, 355.427 215.740 C 352.822 208.094, 352.289 208.162, 343.191 217.308 M 257.170 239.329 C 248.017 248.530, 248.002 248.678, 255.962 251.487 C 261.497 253.439, 269.426 253.415, 275.260 251.427 C 282.906 248.822, 282.838 248.289, 273.692 239.191 L 265.457 230.999 257.170 239.329 M 321.170 239.329 C 312.017 248.530, 312.002 248.678, 319.962 251.487 C 325.497 253.439, 333.426 253.415, 339.260 251.427 C 346.906 248.822, 346.838 248.289, 337.692 239.191 L 329.457 230.999 321.170 239.329 " stroke="none" fill="black" fill-rule="evenodd"/>
</svg>