<svg xmlns="http://www.w3.org/2000/svg" width="244" height="324" viewBox="0 0 244 324" version="1.1">
	<path d="M 33.384 127.370 C 15.387 131.885, 3.561 149.817, 6.987 167.396 C 9.770 181.681, 21.103 193.554, 33.908 195.601 L 38 196.256 38 227.556 C 38 254.678, 38.210 259.067, 39.571 260.429 C 40.436 261.293, 41.529 262, 42 262 C 42.471 262, 43.564 261.293, 44.429 260.429 C 45.790 259.067, 46 254.667, 46 227.429 C 46 200.517, 46.210 196, 47.462 196 C 52.056 196, 60.841 191.319, 66.080 186.080 C 76.010 176.150, 78.986 161.911, 73.934 148.507 C 68.114 133.068, 49.449 123.339, 33.384 127.370 M 159.500 127.042 C 141.239 129.820, 123.711 141.198, 113.012 157.221 C 97.569 180.345, 99.121 212.740, 116.724 234.742 C 130.219 251.610, 148.253 260.349, 169.500 260.319 C 188.240 260.292, 203.028 254.065, 216.500 240.527 C 229.805 227.157, 236 212.218, 236 193.500 C 236 174.782, 229.805 159.843, 216.500 146.473 C 201.166 131.065, 180.150 123.901, 159.500 127.042 M 31.463 135.591 C 21.649 139.076, 15.014 148.069, 14.236 158.941 C 13.564 168.344, 15.870 174.965, 21.929 181.024 C 35.282 194.378, 58.294 190.490, 66.465 173.500 C 69.166 167.886, 69.632 158.420, 67.522 152.067 C 65.251 145.229, 58.125 137.912, 51.556 135.674 C 45.657 133.664, 36.992 133.628, 31.463 135.591 M 153.345 135.904 C 142.677 138.957, 136.033 142.962, 127.479 151.497 C 115.121 163.828, 110 176.133, 110 193.500 C 110 210.512, 115.128 223.074, 126.993 235.125 C 138.822 247.141, 152.541 253, 168.845 253 C 179.674 253, 185.916 251.576, 195.820 246.847 C 220.843 234.900, 234.032 205.996, 227.003 178.511 C 222.717 161.754, 211.079 147.438, 195.820 140.153 C 191.244 137.968, 185.115 135.690, 182.201 135.090 C 174.350 133.475, 160.464 133.867, 153.345 135.904 " stroke="none" fill="black" fill-rule="evenodd"/>
</svg>