<svg xmlns="http://www.w3.org/2000/svg" width="132" height="324" viewBox="0 0 132 324" version="1.1">
	<path d="M 87.571 63.571 C 86.707 64.436, 86 65.317, 86 65.531 C 86 67.066, 103.449 100.669, 104.574 101.300 C 105.358 101.740, 106.642 101.740, 107.426 101.300 C 109.484 100.146, 126.052 66.300, 125.396 64.590 C 124.731 62.856, 122.476 61.880, 120.705 62.560 C 119.993 62.833, 116.520 68.894, 112.986 76.028 C 109.453 83.163, 106.308 89, 105.997 89 C 105.687 89, 102.748 83.534, 99.467 76.853 C 91.925 61.499, 90.847 60.296, 87.571 63.571 M 103.571 127.571 C 102.175 128.968, 102 136.372, 102 194 C 102 251.628, 102.175 259.032, 103.571 260.429 C 104.436 261.293, 105.529 262, 106 262 C 106.471 262, 107.564 261.293, 108.429 260.429 C 109.825 259.032, 110 251.628, 110 194 C 110 136.372, 109.825 128.968, 108.429 127.571 C 107.564 126.707, 106.471 126, 106 126 C 105.529 126, 104.436 126.707, 103.571 127.571 M 7.571 191.571 C 6.707 192.436, 6 193.640, 6 194.249 C 6 194.857, 12.844 202.250, 21.208 210.677 L 36.416 226 21.208 241.323 C 12.844 249.750, 6 257.143, 6 257.751 C 6 259.181, 8.819 262, 10.249 262 C 10.857 262, 18.250 255.156, 26.677 246.792 L 42 231.584 57.323 246.792 C 65.750 255.156, 73.143 262, 73.751 262 C 75.181 262, 78 259.181, 78 257.751 C 78 257.143, 71.156 249.750, 62.792 241.323 L 47.584 226 62.792 210.677 C 71.156 202.250, 78 194.857, 78 194.249 C 78 192.819, 75.181 190, 73.751 190 C 73.143 190, 65.750 196.844, 57.323 205.208 L 42 220.416 26.677 205.208 C 18.250 196.844, 10.857 190, 10.249 190 C 9.640 190, 8.436 190.707, 7.571 191.571 " stroke="none" fill="black" fill-rule="evenodd"/>
</svg>