<svg xmlns="http://www.w3.org/2000/svg" width="403" height="324" viewBox="0 0 403 324" version="1.1">
	<path d="M 40.372 62.765 C 38.418 64.037, 22.003 97.844, 22.593 99.381 C 23.268 101.141, 25.513 102.124, 27.295 101.440 C 28.007 101.167, 31.480 95.106, 35.014 87.972 C 38.547 80.837, 41.691 75, 42 75 C 42.309 75, 45.453 80.837, 48.986 87.972 C 52.520 95.106, 56.050 101.189, 56.832 101.489 C 58.716 102.212, 61 100.227, 61 97.866 C 61 95.626, 45.264 63.831, 43.628 62.765 C 43.008 62.361, 42.275 62.031, 42 62.031 C 41.725 62.031, 40.992 62.361, 40.372 62.765 M 167.571 127.571 C 166.178 128.965, 166 135.946, 166 189.308 L 166 249.473 152.237 235.737 C 144.667 228.181, 138.175 222, 137.808 222 C 136.738 222, 134 225.043, 134 226.232 C 134 226.831, 139.512 232.934, 146.250 239.794 C 157.884 251.639, 158.324 252.234, 155 251.622 C 153.075 251.267, 147.699 249.161, 143.054 246.940 C 124.646 238.143, 110 216.635, 110 198.401 C 110 191.087, 103.994 187.191, 102.416 193.480 C 101.632 196.604, 104.332 211.295, 106.971 218.264 C 114.546 238.266, 134.899 255.172, 156.013 259 C 159.581 259.647, 164.185 260.603, 166.244 261.126 C 168.723 261.755, 170.644 261.726, 171.928 261.038 C 172.995 260.467, 175.154 260, 176.724 260 C 181.821 260, 191.311 257.073, 199.988 252.824 C 211.849 247.015, 222.878 235.966, 228.756 224 C 237.354 206.501, 238.725 186.866, 231.064 190.966 C 229.484 191.811, 228.997 193.060, 228.985 196.285 C 228.916 216.012, 214.608 237.873, 195.927 246.797 C 191.292 249.011, 185.925 251.129, 184 251.505 C 180.699 252.148, 181.197 251.484, 192.750 239.829 C 199.488 233.032, 205 226.780, 205 225.936 C 205 224.212, 203.106 222, 201.630 222 C 201.097 222, 194.437 228.167, 186.830 235.704 L 173 249.408 173 188.904 C 173 128.945, 172.854 126, 169.871 126 C 169.471 126, 168.436 126.707, 167.571 127.571 M 319.531 127.067 C 291.457 131.375, 269.159 152.546, 263.560 180.208 C 261.540 190.188, 261.233 258.833, 263.200 260.800 C 264.109 261.709, 280.217 262, 329.578 262 C 385.398 262, 394.928 261.791, 395.963 260.545 C 396.875 259.446, 397.070 250.085, 396.759 222.295 C 396.303 181.586, 395.741 177.345, 388.982 163.615 C 376.508 138.277, 347.150 122.828, 319.531 127.067 M 314 135.524 C 291.735 141.636, 274.448 160.314, 270.489 182.536 C 269.467 188.273, 269.060 199.378, 269.035 222.250 L 269 254 329.601 254 L 390.203 254 389.723 221.250 C 389.191 184.884, 388.525 179.824, 382.657 167.529 C 378.020 157.811, 371.346 150.045, 362.617 144.206 C 351.830 136.992, 344.918 134.846, 331 134.390 C 322.820 134.123, 317.912 134.450, 314 135.524 M 40.370 190.765 C 38.401 192.045, 6.007 257.855, 6.594 259.384 C 7.265 261.133, 9.512 262.124, 11.274 261.448 C 11.975 261.180, 19.056 247.919, 27.010 231.980 C 34.964 216.041, 41.710 203, 42 203 C 42.290 203, 49.036 216.041, 56.990 231.980 C 64.944 247.919, 72.083 261.201, 72.853 261.497 C 74.717 262.213, 77 260.217, 77 257.871 C 77 255.637, 45.272 191.833, 43.630 190.765 C 43.009 190.361, 42.275 190.031, 42 190.031 C 41.725 190.031, 40.991 190.361, 40.370 190.765 " stroke="none" fill="black" fill-rule="evenodd"/>
</svg>