<svg xmlns="http://www.w3.org/2000/svg" width="403" height="324" viewBox="0 0 403 324" version="1.1">
	<path d="M 328.500 158 L 296.512 190 232.827 190 C 176.266 190, 168.967 190.176, 167.571 191.571 C 165.598 193.545, 165.598 194.455, 167.571 196.429 C 168.838 197.695, 171.652 198, 182.071 198 C 189.182 198, 195 198.228, 195 198.507 C 195 198.785, 188.456 212.096, 180.457 228.085 C 171.071 246.850, 166.121 257.805, 166.496 258.986 C 167.266 261.413, 169.895 262.332, 171.726 260.813 C 172.535 260.141, 179.622 246.749, 187.474 231.052 L 201.750 202.514 216.337 231.674 C 224.360 247.713, 231.395 261.126, 231.971 261.482 C 235.009 263.360, 237.158 260.010, 250.889 231.982 C 258.698 216.042, 265.291 203, 265.540 203 C 265.790 203, 272.492 215.991, 280.435 231.869 C 288.535 248.062, 295.617 261.023, 296.565 261.386 C 298.495 262.127, 301 260.424, 301 258.371 C 301 257.610, 294.475 243.943, 286.500 228 C 278.525 212.057, 272 198.785, 272 198.507 C 272 198.228, 277.965 198, 285.256 198 L 298.512 198 329.983 166.517 L 361.455 135.033 377.134 150.602 C 391.325 164.693, 393.012 166.064, 394.906 165.050 C 396.058 164.434, 397 163.153, 397 162.204 C 397 160.413, 363.241 126, 361.484 126 C 360.936 126, 346.094 140.400, 328.500 158 M 21.242 160.695 C 16.843 166.948, 15.633 170.467, 15.633 177 C 15.633 183.764, 16.969 187.472, 21.669 193.750 C 24.299 197.264, 27.010 197.898, 29.025 195.470 C 30.449 193.754, 29.790 192.013, 25.479 186.102 C 21.680 180.895, 21.963 172.908, 26.171 166.555 C 28.603 162.884, 29.104 161.386, 28.319 160.134 C 26.585 157.365, 23.406 157.617, 21.242 160.695 M 53.242 160.695 C 48.843 166.948, 47.633 170.467, 47.633 177 C 47.633 183.781, 48.968 187.471, 53.713 193.807 C 56.338 197.313, 59.478 197.806, 61.242 194.990 C 61.931 193.889, 61.214 192.032, 58.594 188.139 C 55.513 183.561, 55 181.985, 55 177.095 C 55 172.430, 55.567 170.498, 58.112 166.485 C 60.388 162.896, 60.965 161.165, 60.260 160.039 C 58.580 157.358, 55.378 157.657, 53.242 160.695 M 85.242 160.695 C 77.600 171.559, 77.295 181.230, 84.264 191.657 C 86.628 195.195, 88.144 196.500, 89.891 196.500 C 94.294 196.500, 94.508 193.956, 90.594 188.139 C 87.513 183.561, 87 181.985, 87 177.095 C 87 172.430, 87.567 170.498, 90.112 166.485 C 92.388 162.896, 92.965 161.165, 92.260 160.039 C 90.580 157.358, 87.378 157.657, 85.242 160.695 M 119.616 159.527 C 118.727 160.416, 118 161.640, 118 162.249 C 118 162.857, 124.844 170.250, 133.208 178.677 L 148.416 194 133.208 209.323 C 124.844 217.750, 118 225.143, 118 225.751 C 118 227.198, 120.994 230.173, 122.068 229.795 C 123.353 229.342, 158 194.827, 158 194 C 158 193.173, 123.353 158.658, 122.068 158.205 C 121.608 158.043, 120.505 158.638, 119.616 159.527 M 220.608 223.250 C 227.546 237.137, 233.371 248.661, 233.553 248.859 C 233.878 249.211, 259 199.502, 259 198.508 C 259 198.228, 247.523 198, 233.496 198 L 207.992 198 220.608 223.250 " stroke="none" fill="black" fill-rule="evenodd"/>
</svg>