<svg xmlns="http://www.w3.org/2000/svg" width="532" height="324" viewBox="0 0 532 324" version="1.1">
	<path d="M 7.571 127.571 C 6.707 128.436, 6 129.529, 6 130 C 6 130.471, 6.707 131.564, 7.571 132.429 C 8.966 133.824, 16.152 134, 71.571 134 L 134 134 134 194 L 134 254 71.571 254 C 16.152 254, 8.966 254.176, 7.571 255.571 C 5.598 257.545, 5.598 258.455, 7.571 260.429 C 8.968 261.825, 16.372 262, 74 262 C 131.628 262, 139.032 261.825, 140.429 260.429 C 141.825 259.032, 142 251.628, 142 194 C 142 136.372, 141.825 128.968, 140.429 127.571 C 139.032 126.175, 131.628 126, 74 126 C 16.372 126, 8.968 126.175, 7.571 127.571 M 231.571 127.571 C 230.288 128.855, 230 131.788, 230 143.571 L 230 158 215.200 158 C 205.022 158, 200.025 158.375, 199.200 159.200 C 198.324 160.076, 198 167.956, 198 188.402 L 198 216.405 184.667 203.202 C 177.334 195.941, 170.841 190, 170.239 190 C 168.799 190, 166 192.831, 166 194.287 C 166 195.818, 232.128 262, 233.659 262 C 234.318 262, 235.564 261.293, 236.429 260.429 C 237.712 259.145, 238 256.212, 238 244.429 L 238 230 252.429 230 C 264.212 230, 267.145 229.712, 268.429 228.429 C 269.793 227.064, 270 222.537, 270 194 C 270 165.463, 269.793 160.936, 268.429 159.571 C 267.145 158.288, 264.212 158, 252.429 158 L 238 158 238 143.571 C 238 131.788, 237.712 128.855, 236.429 127.571 C 235.564 126.707, 234.471 126, 234 126 C 233.529 126, 232.436 126.707, 231.571 127.571 M 456.500 158 L 424.512 190 360.827 190 C 304.266 190, 296.967 190.176, 295.571 191.571 C 293.598 193.545, 293.598 194.455, 295.571 196.429 C 296.838 197.695, 299.652 198, 310.071 198 C 317.182 198, 323 198.228, 323 198.507 C 323 198.785, 316.456 212.096, 308.457 228.085 C 299.071 246.850, 294.121 257.805, 294.496 258.986 C 295.148 261.040, 297.359 262.183, 299.267 261.451 C 299.963 261.184, 307.106 247.811, 315.139 231.734 L 329.744 202.502 344.334 231.669 C 352.359 247.710, 359.395 261.126, 359.971 261.482 C 362.864 263.270, 365.168 259.695, 379.125 231.762 L 393.744 202.502 408.310 231.620 C 416.485 247.962, 423.617 261.023, 424.565 261.386 C 426.679 262.198, 429 260.358, 429 257.871 C 429 256.835, 422.473 242.940, 414.497 226.993 L 399.993 198 413.747 198.011 L 427.500 198.022 458.500 166.468 L 489.500 134.914 504 149.522 C 511.975 157.557, 519.316 164.582, 520.314 165.135 C 522.592 166.396, 525.227 164.470, 524.798 161.858 C 524.463 159.817, 491.230 126, 489.559 126 C 488.970 126, 474.094 140.400, 456.500 158 M 206 194 L 206 222 218 222 L 230 222 230 194 L 230 166 218 166 L 206 166 206 194 M 238 194 L 238 222 250 222 L 262 222 262 194 L 262 166 250 166 L 238 166 238 194 M 348.608 223.250 C 355.546 237.137, 361.371 248.661, 361.553 248.859 C 361.878 249.211, 387 199.502, 387 198.508 C 387 198.228, 375.523 198, 361.496 198 L 335.992 198 348.608 223.250 M 220.500 239 C 225.427 243.950, 229.580 248, 229.729 248 C 229.878 248, 230 243.950, 230 239 L 230 230 220.771 230 L 211.542 230 220.500 239 " stroke="none" fill="black" fill-rule="evenodd"/>
</svg>