<svg xmlns="http://www.w3.org/2000/svg" width="180" height="324" viewBox="0 0 180 324" version="1.1">
	<path d="M 72.372 62.765 C 70.418 64.037, 54.003 97.844, 54.593 99.381 C 55.268 101.141, 57.513 102.124, 59.295 101.440 C 60.007 101.167, 63.480 95.106, 67.014 87.972 C 70.547 80.837, 73.691 75, 74 75 C 74.309 75, 77.453 80.837, 80.986 87.972 C 84.520 95.106, 87.993 101.167, 88.705 101.440 C 90.487 102.124, 92.732 101.141, 93.407 99.381 C 93.716 98.575, 90.096 90.173, 85.363 80.708 C 77.638 65.261, 75.672 62.031, 74 62.031 C 73.725 62.031, 72.992 62.361, 72.372 62.765 M 72.369 126.765 C 70.390 128.050, 6.009 257.860, 6.594 259.385 C 7.263 261.129, 9.511 262.125, 11.262 261.453 C 11.956 261.187, 25.431 235.213, 41.206 203.734 L 69.888 146.500 69.944 200.250 L 70 254 55.571 254 C 43.788 254, 40.855 254.288, 39.571 255.571 C 37.598 257.545, 37.598 258.455, 39.571 260.429 C 40.936 261.793, 45.463 262, 74 262 C 102.537 262, 107.064 261.793, 108.429 260.429 C 109.293 259.564, 110 258.471, 110 258 C 110 257.529, 109.293 256.436, 108.429 255.571 C 107.145 254.288, 104.212 254, 92.429 254 L 78 254 78 191.571 C 78 136.152, 77.824 128.966, 76.429 127.571 C 74.680 125.822, 74.022 125.692, 72.369 126.765 M 147.544 130.220 C 139.446 139.680, 135.153 154.217, 136.832 166.490 C 138.100 175.755, 141.080 183.312, 146.041 189.835 L 150.098 195.171 149.997 226.335 C 149.941 243.476, 149.919 258.047, 149.948 258.715 C 150.020 260.389, 153.523 262.120, 155.389 261.404 C 156.233 261.080, 157.216 259.894, 157.573 258.769 C 157.930 257.644, 159.902 254.124, 161.955 250.948 C 171.859 235.625, 171.813 214.304, 161.844 198.880 L 158 192.933 158 161.401 C 158 141.577, 157.616 129.150, 156.965 127.934 C 155.218 124.671, 151.527 125.566, 147.544 130.220 M 146.877 145.250 C 144.869 149.699, 144.507 152.103, 144.504 161 C 144.500 170.338, 144.795 172.109, 147.167 177 L 149.833 182.500 149.917 161.250 C 149.962 149.563, 149.830 140, 149.623 140 C 149.416 140, 148.180 142.363, 146.877 145.250 M 158.163 225 C 158.163 242.010, 158.209 242.402, 159.813 239 C 161.019 236.441, 161.463 232.676, 161.463 225 C 161.463 217.324, 161.019 213.559, 159.813 211 C 158.209 207.598, 158.163 207.990, 158.163 225 " stroke="none" fill="black" fill-rule="evenodd"/>
</svg>