<svg xmlns="http://www.w3.org/2000/svg" width="308" height="324" viewBox="0 0 308 324" version="1.1">
	<path d="M 39.571 127.571 C 38.288 128.855, 38 131.788, 38 143.571 L 38 158 23.571 158 C 11.788 158, 8.855 158.288, 7.571 159.571 C 5.598 161.545, 5.598 162.455, 7.571 164.429 C 8.855 165.712, 11.788 166, 23.571 166 L 38 166 38 194 L 38 222 23.571 222 C 11.788 222, 8.855 222.288, 7.571 223.571 C 6.707 224.436, 6 225.529, 6 226 C 6 226.471, 6.707 227.564, 7.571 228.429 C 8.855 229.712, 11.788 230, 23.571 230 L 38 230 38 244.429 C 38 256.212, 38.288 259.145, 39.571 260.429 C 40.436 261.293, 41.529 262, 42 262 C 42.471 262, 43.564 261.293, 44.429 260.429 C 45.712 259.145, 46 256.212, 46 244.429 L 46 230 74 230 L 102 230 102 244.429 C 102 256.212, 102.288 259.145, 103.571 260.429 C 105.678 262.535, 106.598 262.412, 108.443 259.777 C 109.669 258.028, 110 254.631, 110 243.804 L 110 230.053 124.643 229.777 C 137.314 229.537, 139.433 229.264, 140.387 227.750 C 141.191 226.475, 141.191 225.525, 140.387 224.250 C 139.433 222.736, 137.314 222.463, 124.643 222.223 L 110 221.947 110 194 L 110 166.053 124.643 165.777 C 137.314 165.537, 139.433 165.264, 140.387 163.750 C 141.191 162.475, 141.191 161.525, 140.387 160.250 C 139.433 158.736, 137.314 158.463, 124.643 158.223 L 110 157.947 110 144.196 C 110 133.369, 109.669 129.972, 108.443 128.223 C 106.598 125.588, 105.678 125.465, 103.571 127.571 C 102.288 128.855, 102 131.788, 102 143.571 L 102 158 74 158 L 46 158 46 143.571 C 46 131.788, 45.712 128.855, 44.429 127.571 C 43.564 126.707, 42.471 126, 42 126 C 41.529 126, 40.436 126.707, 39.571 127.571 M 265.561 156.939 L 234.634 187.878 230.965 184.972 C 219.920 176.225, 204.751 172.539, 191.361 175.348 C 183.156 177.070, 177.654 179.617, 170.325 185.088 C 164.778 189.229, 163.107 192.220, 165.040 194.548 C 166.867 196.750, 168.629 196.323, 172.747 192.681 C 181.783 184.691, 191.042 181.541, 203.563 182.199 C 210.304 182.552, 212.967 183.213, 218.155 185.819 C 221.645 187.572, 225.596 189.932, 226.934 191.063 L 229.369 193.119 197.684 224.815 C 180.258 242.248, 166 257.281, 166 258.221 C 166 259.161, 166.961 260.444, 168.136 261.073 C 170.102 262.125, 172.801 259.688, 202.033 230.467 L 233.794 198.717 236.847 200.891 C 253.997 213.103, 276.995 212.304, 294.778 198.878 C 300.393 194.639, 301.305 191.835, 297.786 189.630 C 296.449 188.792, 295.460 189.046, 293.286 190.788 C 287.090 195.753, 283.098 198.117, 277.709 200.011 C 267.295 203.671, 253.270 202.166, 243.123 196.298 L 238.745 193.766 269.873 162.627 C 286.993 145.501, 301 130.793, 301 129.944 C 301 128.171, 299.098 126, 297.544 126 C 296.963 126, 282.571 139.923, 265.561 156.939 M 46 194 L 46 222 74 222 L 102 222 102 194 L 102 166 74 166 L 46 166 46 194 " stroke="none" fill="black" fill-rule="evenodd"/>
</svg>