<svg xmlns="http://www.w3.org/2000/svg" width="564" height="324" viewBox="0 0 564 324" version="1.1">
	<path d="M 7.571 191.571 C 6.707 192.436, 6 193.640, 6 194.249 C 6 194.857, 12.844 202.250, 21.208 210.677 L 36.416 226 21.208 241.323 C 12.844 249.750, 6 257.143, 6 257.751 C 6 259.181, 8.819 262, 10.249 262 C 10.857 262, 18.250 255.156, 26.677 246.792 L 42 231.584 57.323 246.792 C 65.750 255.156, 73.143 262, 73.751 262 C 75.181 262, 78 259.181, 78 257.751 C 78 257.143, 71.156 249.750, 62.792 241.323 L 47.584 226 62.792 210.677 C 71.156 202.250, 78 194.857, 78 194.249 C 78 192.819, 75.181 190, 73.751 190 C 73.143 190, 65.750 196.844, 57.323 205.208 L 42 220.416 26.677 205.208 C 18.250 196.844, 10.857 190, 10.249 190 C 9.640 190, 8.436 190.707, 7.571 191.571 M 103.571 191.571 C 102.207 192.936, 102 197.463, 102 226 C 102 254.537, 102.207 259.064, 103.571 260.429 C 104.436 261.293, 105.529 262, 106 262 C 106.471 262, 107.564 261.293, 108.429 260.429 C 109.788 259.069, 110 254.758, 110 228.429 L 110 198 170 198 L 230 198 230 228.800 C 230 251.422, 230.319 259.919, 231.200 260.800 C 232.085 261.685, 241.117 262, 265.629 262 C 294.503 262, 299.063 261.794, 300.429 260.429 C 302.402 258.455, 302.402 257.545, 300.429 255.571 C 299.069 254.212, 294.758 254, 268.429 254 L 238 254 238 223.571 C 238 197.242, 237.788 192.931, 236.429 191.571 C 235.032 190.175, 227.628 190, 170 190 C 112.372 190, 104.968 190.175, 103.571 191.571 M 327.571 191.571 C 326.707 192.436, 326 193.640, 326 194.249 C 326 194.857, 332.844 202.250, 341.208 210.677 L 356.416 226 341.208 241.323 C 332.844 249.750, 326 257.143, 326 257.751 C 326 259.181, 328.819 262, 330.249 262 C 330.857 262, 338.250 255.156, 346.677 246.792 L 362 231.584 377.323 246.792 C 385.750 255.156, 393.143 262, 393.751 262 C 395.181 262, 398 259.181, 398 257.751 C 398 257.143, 391.156 249.750, 382.792 241.323 L 367.584 226 382.792 210.677 C 391.156 202.250, 398 194.857, 398 194.249 C 398 192.819, 395.181 190, 393.751 190 C 393.143 190, 385.750 196.844, 377.323 205.208 L 362 220.416 346.677 205.208 C 338.250 196.844, 330.857 190, 330.249 190 C 329.640 190, 328.436 190.707, 327.571 191.571 M 423.571 191.571 C 420.148 194.995, 423.242 198, 430.190 198 L 435.237 198 432.059 201.250 C 430.311 203.037, 427.467 207.370, 425.740 210.877 C 422.989 216.464, 422.600 218.277, 422.600 225.500 C 422.600 232.734, 422.988 234.533, 425.762 240.168 C 429.766 248.302, 434.698 253.234, 442.832 257.238 C 448.467 260.012, 450.266 260.400, 457.500 260.400 C 464.734 260.400, 466.533 260.012, 472.168 257.238 C 479.150 253.801, 484.665 248.894, 487.533 243.568 L 489.360 240.176 492.064 244.440 C 495.867 250.436, 499.524 253.596, 506.877 257.240 C 512.479 260.016, 514.258 260.400, 521.500 260.400 C 528.734 260.400, 530.533 260.012, 536.168 257.238 C 539.700 255.499, 544.275 252.392, 546.333 250.333 C 548.392 248.275, 551.499 243.700, 553.238 240.168 C 556.012 234.533, 556.400 232.734, 556.400 225.500 C 556.400 218.277, 556.011 216.464, 553.260 210.877 C 551.533 207.370, 548.689 203.037, 546.941 201.250 L 543.763 198 549.310 198 C 554.565 198, 558 196.419, 558 194 C 558 193.529, 557.293 192.436, 556.429 191.571 C 555.032 190.175, 547.628 190, 490 190 C 432.372 190, 424.968 190.175, 423.571 191.571 M 448.500 199.326 C 439.842 202.714, 439.821 202.273, 449.103 211.603 L 457.457 220.001 465.692 211.809 C 471.755 205.778, 473.656 203.291, 472.902 202.381 C 469.818 198.666, 454.946 196.804, 448.500 199.326 M 481.926 200.145 C 483.192 201.325, 485.446 204.211, 486.934 206.557 L 489.640 210.824 491.443 207.476 C 492.435 205.635, 494.594 202.749, 496.242 201.064 L 499.237 198 489.430 198 L 479.623 198 481.926 200.145 M 512.500 199.326 C 503.842 202.714, 503.821 202.273, 513.103 211.603 L 521.457 220.001 529.692 211.809 C 535.755 205.778, 537.656 203.291, 536.902 202.381 C 533.818 198.666, 518.946 196.804, 512.500 199.326 M 434.184 210.278 C 430.139 215.152, 428.867 227.319, 431.573 235.260 C 434.178 242.906, 434.711 242.838, 443.809 233.692 L 452.001 225.457 443.671 217.170 C 436.854 210.389, 435.131 209.137, 434.184 210.278 M 471.237 217.261 L 462.999 225.543 471.339 233.840 L 479.680 242.137 481.174 239.819 C 486.273 231.908, 486.255 217.967, 481.137 211.182 C 479.477 208.981, 479.471 208.984, 471.237 217.261 M 498.184 210.278 C 494.139 215.152, 492.867 227.319, 495.573 235.260 C 498.178 242.906, 498.711 242.838, 507.809 233.692 L 516.001 225.457 507.671 217.170 C 500.854 210.389, 499.131 209.137, 498.184 210.278 M 535.237 217.261 L 526.999 225.543 535.339 233.840 L 543.680 242.137 545.174 239.819 C 550.273 231.908, 550.255 217.967, 545.137 211.182 C 543.477 208.981, 543.471 208.984, 535.237 217.261 M 449.160 239.339 L 440.863 247.680 443.181 249.174 C 449.487 253.239, 459.260 254.153, 467.260 251.427 C 474.906 248.822, 474.838 248.289, 465.692 239.191 L 457.457 230.999 449.160 239.339 M 513.160 239.339 L 504.863 247.680 507.181 249.174 C 513.487 253.239, 523.260 254.153, 531.260 251.427 C 538.906 248.822, 538.838 248.289, 529.692 239.191 L 521.457 230.999 513.160 239.339 " stroke="none" fill="black" fill-rule="evenodd"/>
</svg>