<svg xmlns="http://www.w3.org/2000/svg" width="308" height="324" viewBox="0 0 308 324" version="1.1">
	<path d="M 119.619 62.714 C 117.727 64.607, 102.164 98.264, 102.626 99.467 C 103.408 101.506, 106.046 102.206, 107.719 100.818 C 108.525 100.149, 112.012 93.961, 115.467 87.066 L 121.750 74.530 128.318 87.636 C 131.930 94.844, 135.643 101.033, 136.569 101.388 C 138.681 102.199, 141 100.355, 141 97.866 C 141 95.626, 125.264 63.831, 123.628 62.765 C 122.185 61.825, 120.529 61.804, 119.619 62.714 M 168.500 158 L 136.512 190 72.827 190 C 16.266 190, 8.967 190.176, 7.571 191.571 C 5.598 193.545, 5.598 194.455, 7.571 196.429 C 8.844 197.701, 11.697 198, 22.575 198 L 36.006 198 21.020 227.961 C 12.777 244.439, 6.285 258.580, 6.594 259.384 C 7.265 261.133, 9.512 262.125, 11.274 261.448 C 11.975 261.180, 19.056 247.919, 27.010 231.980 C 34.964 216.041, 41.717 203, 42.016 203 C 42.315 203, 49.042 216.034, 56.965 231.964 C 64.888 247.894, 71.962 261.155, 72.685 261.433 C 73.408 261.710, 74.573 261.717, 75.274 261.448 C 75.975 261.180, 83.056 247.919, 91.010 231.980 C 98.964 216.041, 105.712 203, 106.004 203 C 106.297 203, 112.798 215.853, 120.452 231.563 C 128.405 247.888, 135.173 260.558, 136.248 261.133 C 138.537 262.358, 141 260.668, 141 257.871 C 141 256.835, 134.473 242.940, 126.497 226.993 L 111.993 198 125.283 198 L 138.573 198 170.007 166.509 L 201.440 135.019 217.041 150.509 C 225.621 159.029, 233.082 166, 233.621 166 C 235.113 166, 237 163.789, 237 162.039 C 237 160.360, 203.139 126, 201.484 126 C 200.936 126, 186.094 140.400, 168.500 158 M 263.724 159.134 C 262.161 160.009, 262 162.521, 262 186.015 C 262 209.816, 262.145 212.007, 263.776 212.880 C 264.902 213.483, 266.182 213.478, 267.276 212.866 C 268.839 211.991, 269 209.479, 269 185.985 C 269 162.184, 268.855 159.993, 267.224 159.120 C 266.098 158.517, 264.818 158.522, 263.724 159.134 M 60.743 223.500 C 67.750 237.525, 73.715 249, 74 249 C 74.285 249, 80.250 237.525, 87.257 223.500 L 99.995 198 74 198 L 48.005 198 60.743 223.500 M 263.724 222.134 C 259.838 224.309, 263.294 229.983, 267.224 227.880 C 268.201 227.357, 269 226.061, 269 225 C 269 222.485, 266.005 220.858, 263.724 222.134 " stroke="none" fill="black" fill-rule="evenodd"/>
</svg>