<svg xmlns="http://www.w3.org/2000/svg" width="116" height="324" viewBox="0 0 116 324" version="1.1">
	<path d="M 39.571 127.571 C 38.175 128.968, 38 136.372, 38 194 C 38 251.628, 38.175 259.032, 39.571 260.429 C 40.936 261.793, 45.430 262, 73.637 262 C 94.124 262, 106.846 261.617, 108.066 260.965 C 110.554 259.633, 110.554 256.367, 108.066 255.035 C 106.855 254.387, 94.878 254, 76.066 254 L 46 254 46 191.571 C 46 136.152, 45.824 128.966, 44.429 127.571 C 43.564 126.707, 42.471 126, 42 126 C 41.529 126, 40.436 126.707, 39.571 127.571 M 71.282 175.282 C 61.777 184.787, 54 193.193, 54 193.963 C 54 195.424, 85.193 227.435, 88.250 229.111 C 90.483 230.335, 94 228.572, 94 226.227 C 94 225.290, 87.143 217.656, 78.762 209.262 L 63.524 194 78.762 178.738 C 87.143 170.344, 94 162.710, 94 161.773 C 94 160.220, 91.262 158, 89.347 158 C 88.916 158, 80.787 165.777, 71.282 175.282 M 7.571 191.571 C 6.707 192.436, 6 193.529, 6 194 C 6 195.111, 8.889 198, 10 198 C 11.111 198, 14 195.111, 14 194 C 14 192.889, 11.111 190, 10 190 C 9.529 190, 8.436 190.707, 7.571 191.571 " stroke="none" fill="black" fill-rule="evenodd"/>
</svg>