<svg xmlns="http://www.w3.org/2000/svg" width="340" height="324" viewBox="0 0 340 324" version="1.1">
	<path d="M 34.223 191.062 C 24.045 193.068, 13.996 201.411, 9.216 211.825 C 5.512 219.894, 5.512 231.106, 9.216 239.175 C 14.033 249.670, 23.488 257.485, 34.660 260.205 C 38.048 261.031, 59.194 261.483, 105.158 261.713 C 164.159 262.008, 170.977 261.880, 172.408 260.449 C 174.403 258.455, 174.406 257.549, 172.429 255.571 C 171.039 254.182, 164.613 254, 116.836 254 L 62.815 254 67.354 248.952 C 74.733 240.744, 78.040 229.354, 75.965 219.295 C 74.485 212.128, 71.980 207.091, 67.340 201.955 L 63.767 198 117.312 198 C 164.656 198, 171.039 197.818, 172.429 196.429 C 174.402 194.455, 174.402 193.545, 172.429 191.571 C 171.029 190.172, 163.603 190.012, 104.679 190.110 C 68.280 190.170, 36.575 190.598, 34.223 191.062 M 199.579 191.564 C 198.710 192.432, 198 193.529, 198 194 C 198 194.471, 198.710 195.568, 199.579 196.436 C 200.990 197.847, 208.058 197.987, 266.220 197.757 C 326.934 197.517, 331.356 197.383, 332.386 195.750 C 333.191 194.474, 333.191 193.526, 332.386 192.250 C 331.356 190.617, 326.934 190.483, 266.220 190.243 C 208.058 190.013, 200.990 190.153, 199.579 191.564 M 31.054 199.728 C 28.523 200.621, 24.609 203.296, 21.971 205.934 C 8.623 219.282, 12.520 242.324, 29.500 250.458 C 34.518 252.861, 43.751 253.610, 49.278 252.061 C 60.579 248.894, 69 237.553, 69 225.500 C 69 214.009, 61.521 203.321, 50.684 199.326 C 46.195 197.671, 36.306 197.873, 31.054 199.728 M 263.750 223.080 C 261.372 224.465, 261.542 227.685, 264.064 229.034 C 267.753 231.008, 270.819 226.219, 267.800 223.200 C 266.367 221.767, 266.022 221.757, 263.750 223.080 " stroke="none" fill="black" fill-rule="evenodd"/>
</svg>