<svg xmlns="http://www.w3.org/2000/svg" width="468" height="324" viewBox="0 0 468 324" version="1.1">
	<path d="M 328.369 126.765 C 327.416 127.384, 262 257.155, 262 258.426 C 262 258.663, 262.707 259.564, 263.571 260.429 C 264.936 261.793, 269.463 262, 298 262 C 326.537 262, 331.064 261.793, 332.429 260.429 C 333.293 259.564, 334 258.471, 334 258 C 334 257.529, 333.293 256.436, 332.429 255.571 C 331.071 254.214, 326.849 254, 301.430 254 L 272.002 254 300.747 196.500 C 316.557 164.875, 329.722 139, 330.003 139 C 330.284 139, 344.010 166.059, 360.507 199.131 C 377.003 232.204, 391.095 259.879, 391.821 260.631 C 392.887 261.735, 399.506 262, 426 262 C 454.537 262, 459.064 261.793, 460.429 260.429 C 462.402 258.455, 462.402 257.545, 460.429 255.571 C 459.067 254.210, 454.667 254, 427.430 254 L 396.003 254 364.383 190.750 C 335.939 133.854, 331.783 126.031, 330 126.031 C 329.725 126.031, 328.991 126.361, 328.369 126.765 M 200.370 190.765 C 198.401 192.045, 166.007 257.855, 166.594 259.384 C 167.265 261.133, 169.512 262.124, 171.274 261.448 C 171.975 261.180, 179.056 247.919, 187.010 231.980 C 194.964 216.041, 201.710 203, 202 203 C 202.290 203, 209.036 216.041, 216.990 231.980 C 224.944 247.919, 232.025 261.180, 232.726 261.448 C 234.488 262.124, 236.735 261.133, 237.406 259.384 C 237.993 257.855, 205.599 192.045, 203.630 190.765 C 203.009 190.361, 202.275 190.031, 202 190.031 C 201.725 190.031, 200.991 190.361, 200.370 190.765 M 39.571 223.571 C 38.707 224.436, 38 225.636, 38 226.239 C 38 226.841, 43.941 233.334, 51.202 240.667 L 64.405 254 36.774 254 C 12.988 254, 8.924 254.219, 7.571 255.571 C 5.598 257.545, 5.598 258.455, 7.571 260.429 C 8.968 261.825, 16.372 262, 74 262 C 131.628 262, 139.032 261.825, 140.429 260.429 C 142.402 258.455, 142.402 257.545, 140.429 255.571 C 139.076 254.219, 135.012 254, 111.226 254 L 83.595 254 96.798 240.667 C 104.059 233.334, 110 226.841, 110 226.239 C 110 224.817, 107.176 222, 105.751 222 C 105.143 222, 97.750 228.844, 89.323 237.208 L 74 252.416 58.677 237.208 C 50.250 228.844, 42.857 222, 42.249 222 C 41.640 222, 40.436 222.707, 39.571 223.571 " stroke="none" fill="black" fill-rule="evenodd"/>
</svg>