<svg xmlns="http://www.w3.org/2000/svg" width="468" height="324" viewBox="0 0 468 324" version="1.1">
	<path d="M 193.608 132.122 C 181.806 142.937, 173.219 157.313, 168.894 173.500 C 167.274 179.564, 166.757 184.404, 166.757 193.500 C 166.757 217.690, 175.862 238.351, 193.980 255.274 L 201.181 262 218.019 262 C 231.993 262, 235.124 261.733, 236.429 260.429 C 238.402 258.455, 238.402 257.545, 236.429 255.571 C 235.132 254.275, 232.077 254, 218.945 254 L 203.032 254 195.766 246.674 C 181.246 232.035, 174.035 214.391, 174.035 193.500 C 174.035 173.031, 180.998 155.652, 195.107 140.905 L 201.714 134 265.500 134 L 329.287 134 335.893 140.861 C 350.972 156.522, 357.657 174.551, 356.707 197 C 355.867 216.838, 348.534 233.652, 334.826 247.171 L 327.902 254 312.522 254 C 299.874 254, 296.864 254.279, 295.571 255.571 C 294.707 256.436, 294 257.529, 294 258 C 294 258.471, 294.707 259.564, 295.571 260.429 C 296.875 261.733, 300.005 262, 313.955 262 L 330.767 262 338.041 254.525 C 347.256 245.056, 351.251 239.521, 356.105 229.500 C 362.108 217.105, 364.243 207.661, 364.243 193.500 C 364.243 184.404, 363.726 179.564, 362.106 173.500 C 357.819 157.456, 349.480 143.415, 337.608 132.250 L 330.962 126 265.626 126 L 200.289 126 193.608 132.122 M 423.571 127.571 C 422.178 128.965, 422 135.897, 422 188.774 L 422 248.405 408.667 235.202 C 401.334 227.941, 394.841 222, 394.239 222 C 392.813 222, 390 224.825, 390 226.257 C 390 228.006, 424.239 262, 426 262 C 427.761 262, 462 228.006, 462 226.257 C 462 224.825, 459.187 222, 457.761 222 C 457.159 222, 450.666 227.941, 443.333 235.202 L 430 248.405 430 188.774 C 430 135.897, 429.822 128.965, 428.429 127.571 C 427.564 126.707, 426.471 126, 426 126 C 425.529 126, 424.436 126.707, 423.571 127.571 M 264.370 158.765 C 263.414 159.387, 230 225.162, 230 226.423 C 230 226.662, 230.707 227.564, 231.571 228.429 C 232.936 229.793, 237.463 230, 266 230 C 294.537 230, 299.064 229.793, 300.429 228.429 C 301.293 227.564, 302 226.662, 302 226.423 C 302 226.184, 294.521 211.028, 285.380 192.744 C 270.446 162.871, 267.744 158.031, 266 158.031 C 265.725 158.031, 264.991 158.361, 264.370 158.765 M 252.743 196.500 L 240.005 222 266 222 L 291.995 222 279.257 196.500 C 272.250 182.475, 266.285 171, 266 171 C 265.715 171, 259.750 182.475, 252.743 196.500 M 32.500 175.170 C 21.038 177.340, 4.484 188.378, 5.197 193.376 C 5.726 197.085, 9.620 196.605, 14.347 192.248 C 16.678 190.099, 21.265 187.027, 24.542 185.421 C 29.996 182.747, 31.389 182.503, 41 182.532 C 55.485 182.575, 60.839 184.744, 70.520 194.487 C 78.738 202.759, 85.159 206.306, 96.024 208.574 C 110.429 211.581, 125.458 207.561, 136.696 197.694 C 140.507 194.347, 141.107 190.486, 137.970 189.490 C 136.520 189.030, 134.888 189.769, 132.267 192.070 C 130.247 193.844, 125.648 196.691, 122.047 198.397 C 116.011 201.258, 114.676 201.500, 104.948 201.500 C 94.786 201.500, 94.121 201.363, 86.948 197.796 C 82.314 195.492, 78.746 192.948, 77.504 191.064 C 72.864 184.024, 60.066 176.839, 49 175.060 C 41.507 173.855, 39.370 173.870, 32.500 175.170 M 247.282 271.282 C 237.777 280.787, 230 289.079, 230 289.710 C 230 291.173, 232.800 294, 234.249 294 C 234.857 294, 242.250 287.156, 250.677 278.792 L 266 263.584 281.323 278.792 C 289.750 287.156, 297.143 294, 297.751 294 C 299.200 294, 302 291.173, 302 289.710 C 302 288.031, 267.693 254, 266 254 C 265.210 254, 256.787 261.777, 247.282 271.282 " stroke="none" fill="black" fill-rule="evenodd"/>
</svg>