<svg xmlns="http://www.w3.org/2000/svg" width="308" height="324" viewBox="0 0 308 324" version="1.1">
	<path d="M 71.550 62.918 C 67.869 68.875, 54.190 98.331, 54.604 99.410 C 55.450 101.615, 58.110 102.210, 59.895 100.594 C 60.778 99.795, 64.185 93.709, 67.467 87.070 C 70.748 80.432, 73.687 75, 73.997 75 C 74.308 75, 77.453 80.837, 80.986 87.972 C 84.520 95.106, 88.050 101.189, 88.832 101.489 C 90.716 102.212, 93 100.227, 93 97.866 C 93 95.626, 77.264 63.831, 75.628 62.765 C 74.071 61.751, 72.229 61.820, 71.550 62.918 M 55.213 143.315 C 45.746 152.838, 38 161.131, 38 161.743 C 38 163.175, 40.813 166, 42.239 166 C 42.841 166, 49.334 160.059, 56.667 152.798 L 70 139.595 70 196.298 L 70 253 67.750 252.985 C 62.850 252.953, 52.344 249.767, 45.603 246.268 C 28.078 237.172, 14 215.527, 14 197.677 C 14 194.888, 13.395 192.538, 12.429 191.571 C 10.444 189.587, 9.546 189.597, 7.515 191.627 C 4.445 194.697, 7.714 211.664, 13.751 224 C 18.958 234.639, 32.468 248.105, 43.076 253.230 C 53.839 258.430, 71.402 262.291, 77.823 260.869 C 79.845 260.421, 84.425 259.509, 88 258.843 C 91.642 258.165, 98.427 255.671, 103.431 253.169 C 114.563 247.606, 125.743 237.013, 131.564 226.513 C 140.894 209.682, 143.164 186.631, 135.064 190.966 C 133.469 191.819, 133 193.049, 133 196.375 C 133 203.078, 129.374 215.635, 125.340 222.899 C 119.912 232.675, 109.977 241.998, 99.820 246.847 C 92.461 250.361, 83.724 253, 79.451 253 C 78.200 253, 78 245.178, 78 196.298 L 78 139.595 91.333 152.798 C 98.666 160.059, 105.101 166, 105.633 166 C 107.113 166, 109 163.784, 108.997 162.050 C 108.993 159.983, 75.929 125.934, 73.963 125.971 C 73.117 125.987, 64.680 133.792, 55.213 143.315 M 192.320 175.054 C 185.407 176.268, 176.746 180.196, 170.367 185.013 C 164.776 189.234, 163.108 192.220, 165.040 194.548 C 166.922 196.816, 168.513 196.317, 173.689 191.835 C 176.335 189.545, 180.975 186.515, 184 185.102 C 188.850 182.837, 190.802 182.532, 200.521 182.517 C 210.966 182.501, 211.889 182.671, 218.189 185.772 C 221.845 187.572, 226.111 190.347, 227.668 191.938 C 229.226 193.529, 231.850 196.237, 233.500 197.956 C 235.150 199.674, 239.650 202.631, 243.500 204.527 C 260.371 212.833, 279.014 210.780, 294.778 198.878 C 300.393 194.639, 301.305 191.835, 297.786 189.630 C 296.448 188.791, 295.462 189.049, 293.286 190.806 C 282.230 199.733, 274.779 202.402, 262.655 201.776 C 250.943 201.172, 244.435 198.358, 236.708 190.559 C 233.294 187.113, 228.623 183.119, 226.329 181.684 C 217.239 175.998, 202.886 173.200, 192.320 175.054 " stroke="none" fill="black" fill-rule="evenodd"/>
</svg>