<svg xmlns="http://www.w3.org/2000/svg" width="244" height="324" viewBox="0 0 244 324" version="1.1">
	<path d="M 39.571 127.571 C 38.211 128.932, 38 133.276, 38 159.944 L 38 190.744 33.908 191.399 C 25.196 192.792, 15.430 200.099, 10.768 208.712 C -0.704 229.906, 11.623 255.341, 35.635 260.019 C 51.176 263.048, 68.352 253.291, 74.043 238.202 C 78.980 225.107, 75.915 210.755, 66.080 200.920 C 60.841 195.681, 52.056 191, 47.462 191 C 46.211 191, 46 186.544, 46 160.071 C 46 133.288, 45.789 128.932, 44.429 127.571 C 43.564 126.707, 42.471 126, 42 126 C 41.529 126, 40.436 126.707, 39.571 127.571 M 129.384 191.357 C 118.730 194.056, 110 201.453, 105.163 211.880 C 101.441 219.904, 101.452 231.118, 105.189 239.175 C 115.617 261.659, 143.391 267.625, 160.938 251.150 L 166 246.398 166 252.628 C 166 258.457, 167.463 262, 169.871 262 C 172.433 262, 173 258.884, 173 244.800 L 173 230 201.500 230 L 230 230 230 244.965 C 230 259.181, 230.106 259.986, 232.117 261.062 C 236.830 263.585, 237.043 262.068, 237.043 226 C 237.043 189.932, 236.830 188.415, 232.117 190.938 C 230.106 192.014, 230 192.819, 230 207.035 L 230 222 201.500 222 L 173 222 173 207.200 C 173 193.116, 172.433 190, 169.871 190 C 167.543 190, 166 193.541, 166 198.888 L 166 204.632 161.127 199.936 C 153.050 192.150, 140.084 188.646, 129.384 191.357 M 31.054 199.728 C 25.018 201.859, 17.781 209.260, 15.667 215.463 C 11.995 226.241, 14.382 237.477, 21.952 245.048 C 32.402 255.497, 49.888 255.773, 60.280 245.653 C 66.701 239.401, 68.500 234.989, 68.500 225.500 C 68.500 216.011, 66.701 211.599, 60.280 205.347 C 53.109 198.363, 41.332 196.099, 31.054 199.728 M 127.627 199.468 C 122.247 201.386, 117.039 205.829, 113.500 211.519 C 109.527 217.908, 108.712 229.311, 111.741 236.129 C 116.181 246.120, 124.127 251.919, 134.521 252.754 C 146.446 253.711, 156.036 248.794, 161.500 238.921 C 164.132 234.166, 164.500 232.518, 164.500 225.500 C 164.500 218.487, 164.130 216.829, 161.500 212.061 C 158.429 206.492, 152.651 201.526, 146.684 199.326 C 142.327 197.720, 132.323 197.794, 127.627 199.468 " stroke="none" fill="black" fill-rule="evenodd"/>
</svg>