<svg xmlns="http://www.w3.org/2000/svg" width="308" height="324" viewBox="0 0 308 324" version="1.1">
	<path d="M 7.579 191.564 C 5.598 193.545, 5.596 194.454, 7.571 196.429 C 8.844 197.701, 11.697 198, 22.575 198 L 36.006 198 21.020 227.961 C 12.777 244.439, 6.285 258.580, 6.594 259.384 C 7.265 261.133, 9.512 262.125, 11.274 261.448 C 11.975 261.180, 19.056 247.919, 27.010 231.980 C 34.964 216.041, 41.717 203, 42.016 203 C 42.315 203, 49.071 216.093, 57.030 232.095 C 64.988 248.098, 71.842 261.402, 72.259 261.660 C 74.831 263.250, 77.526 258.979, 91.125 231.762 L 105.744 202.502 120.310 231.620 C 128.485 247.962, 135.617 261.023, 136.565 261.386 C 138.679 262.198, 141 260.358, 141 257.871 C 141 256.835, 134.480 242.952, 126.511 227.021 L 112.021 198.056 125.653 197.778 C 137.361 197.539, 139.441 197.253, 140.388 195.750 C 141.191 194.475, 141.190 193.525, 140.386 192.250 C 139.356 190.617, 134.934 190.483, 74.220 190.243 C 16.058 190.013, 8.990 190.153, 7.579 191.564 M 194.355 190.998 C 182.611 193.440, 171.491 203.432, 168.023 214.661 C 164.085 227.409, 166.550 239.064, 175.181 248.508 C 189.196 263.842, 211.410 264.643, 225.724 250.329 L 230 246.053 230 252.991 C 230 258.978, 230.283 260.081, 232.064 261.034 C 236.316 263.310, 237 261.071, 237 244.878 L 237 230 265.500 230 L 294 230 294 244.965 C 294 258.276, 294.196 260.035, 295.776 260.880 C 296.902 261.483, 298.182 261.478, 299.276 260.866 C 300.855 259.982, 301 257.052, 301 225.985 C 301 194.521, 300.872 192.002, 299.224 191.120 C 298.098 190.517, 296.818 190.522, 295.724 191.134 C 294.212 191.981, 294 193.936, 294 207.050 L 294 222 265.500 222 L 237 222 237 207.122 C 237 190.929, 236.316 188.690, 232.064 190.966 C 230.299 191.910, 229.995 193.043, 229.968 198.785 L 229.937 205.500 227.871 202.731 C 225.249 199.216, 218.168 194.324, 213.132 192.547 C 207.788 190.661, 199.330 189.964, 194.355 190.998 M 60.743 223.500 C 67.750 237.525, 73.715 249, 74 249 C 74.285 249, 80.250 237.525, 87.257 223.500 L 99.995 198 74 198 L 48.005 198 60.743 223.500 M 189.500 200.387 C 172.456 208.458, 168.257 231.227, 181.301 244.838 C 186.190 249.938, 191.532 252.253, 199.639 252.782 C 205.726 253.180, 207.567 252.885, 212.139 250.781 C 222.926 245.816, 228.446 237.258, 228.446 225.500 C 228.446 217.287, 226.118 211.272, 220.933 206.087 C 212.856 198.010, 199.597 195.606, 189.500 200.387 " stroke="none" fill="black" fill-rule="evenodd"/>
</svg>