<svg xmlns="http://www.w3.org/2000/svg" width="276" height="324" viewBox="0 0 276 324" version="1.1">
	<path d="M 264.369 126.765 C 263.746 127.169, 249.008 155.963, 231.617 190.750 L 199.997 254 184.570 254 C 171.879 254, 168.864 254.279, 167.571 255.571 C 165.598 257.545, 165.598 258.455, 167.571 260.429 C 168.936 261.793, 173.463 262, 202 262 C 230.537 262, 235.064 261.793, 236.429 260.429 C 238.402 258.455, 238.402 257.545, 236.429 255.571 C 235.156 254.299, 232.303 254, 221.427 254 L 207.997 254 238.998 192.003 C 256.049 157.905, 270 129.812, 270 129.575 C 270 128.872, 266.916 125.999, 266.179 126.015 C 265.805 126.024, 264.991 126.361, 264.369 126.765 M 39.267 223.267 C 20.970 241.563, 6 257.056, 6 257.695 C 6 259.187, 8.799 262, 10.285 262 C 10.913 262, 25.506 247.947, 42.713 230.771 L 74 199.542 105.287 230.771 C 122.494 247.947, 137.087 262, 137.715 262 C 138.343 262, 139.564 261.293, 140.429 260.429 C 141.793 259.064, 142 254.537, 142 226 C 142 197.463, 141.793 192.936, 140.429 191.571 C 138.455 189.598, 137.545 189.598, 135.571 191.571 C 134.219 192.924, 134 196.990, 134 220.799 L 134 248.455 104.711 219.227 C 88.602 203.152, 74.772 190, 73.978 190 C 73.183 190, 57.563 204.970, 39.267 223.267 " stroke="none" fill="black" fill-rule="evenodd"/>
</svg>