<svg xmlns="http://www.w3.org/2000/svg" width="403" height="324" viewBox="0 0 403 324" version="1.1">
	<path d="M 7.571 127.571 C 6.707 128.436, 6 129.657, 6 130.285 C 6 130.913, 20.053 145.506, 37.229 162.713 L 68.458 194 37.229 225.287 C 20.053 242.494, 6 257.087, 6 257.715 C 6 258.343, 6.707 259.564, 7.571 260.429 C 8.936 261.793, 13.463 262, 42 262 C 70.537 262, 75.064 261.793, 76.429 260.429 C 77.825 259.032, 78 251.628, 78 194 C 78 136.372, 77.825 128.968, 76.429 127.571 C 75.064 126.207, 70.537 126, 42 126 C 13.463 126, 8.936 126.207, 7.571 127.571 M 130.344 127 C 117.185 129.734, 105.852 141.266, 102.929 154.894 C 99.842 169.291, 112.008 203.678, 127.413 224.092 C 130.979 228.818, 137.773 236.354, 142.511 240.839 C 150.681 248.572, 167.967 261, 170.553 261 C 171.214 261, 172.318 260.322, 173.005 259.494 C 173.693 258.666, 177.883 255.446, 182.317 252.338 C 208.388 234.070, 228.148 203.645, 234.590 171.852 C 236.892 160.493, 236.145 152.929, 231.945 145.049 C 223.058 128.374, 202.385 121.641, 185.900 130.051 C 180.468 132.822, 172.549 140.259, 170.970 144.073 L 169.728 147.070 166.415 142.149 C 164.592 139.443, 161.391 135.818, 159.300 134.094 C 152.237 128.268, 139.389 125.120, 130.344 127 M 44.500 159 C 58.242 172.750, 69.601 184, 69.742 184 C 69.884 184, 70 172.750, 70 159 L 70 134 44.758 134 L 19.515 134 44.500 159 M 127.385 135.617 C 117.726 139.043, 110 149.714, 110 159.631 C 110 174.429, 118.364 197.817, 129.684 214.670 C 138.648 228.017, 151.457 240.732, 164.720 249.452 L 168.939 252.226 173.465 249.573 C 182.749 244.133, 197.178 230.577, 205.424 219.548 C 215.598 205.941, 223.313 189.017, 227.055 172.098 C 229.474 161.159, 229.463 158.314, 226.976 151.667 C 224.445 144.900, 219.230 139.453, 212.205 136.236 C 201.684 131.420, 187.848 134.467, 180.451 143.230 C 176.666 147.714, 174.048 153.784, 174.022 158.139 C 174.010 160.184, 173.175 162.797, 172.117 164.103 C 170.494 166.108, 169.895 166.273, 167.767 165.303 C 165.706 164.365, 165.205 163.274, 164.733 158.702 C 163.722 148.908, 158.551 141.431, 149.745 137.030 C 142.822 133.571, 134.617 133.052, 127.385 135.617 M 327.750 159.080 C 325.372 160.465, 325.542 163.685, 328.064 165.034 C 331.753 167.008, 334.819 162.219, 331.800 159.200 C 330.367 157.767, 330.022 157.757, 327.750 159.080 M 263.750 191.076 C 261.417 192.440, 261.526 195.676, 263.948 196.972 C 265.256 197.672, 287.132 197.930, 330.589 197.757 C 390.951 197.517, 395.356 197.383, 396.386 195.750 C 397.191 194.474, 397.191 193.526, 396.386 192.250 C 395.356 190.616, 390.963 190.485, 330.391 190.276 C 287.547 190.129, 264.905 190.400, 263.750 191.076 M 44.500 229 L 19.515 254 44.758 254 L 70 254 70 229 C 70 215.250, 69.884 204, 69.742 204 C 69.601 204, 58.242 215.250, 44.500 229 " stroke="none" fill="black" fill-rule="evenodd"/>
</svg>