<svg xmlns="http://www.w3.org/2000/svg" width="403" height="324" viewBox="0 0 403 324" version="1.1">
	<path d="M 40.316 62.784 C 38.369 64.022, 22.007 97.855, 22.604 99.410 C 23.269 101.144, 25.524 102.120, 27.295 101.440 C 28.007 101.167, 31.480 95.106, 35.014 87.972 C 38.547 80.837, 41.691 75, 42 75 C 42.309 75, 45.453 80.837, 48.986 87.972 C 52.520 95.106, 55.993 101.167, 56.705 101.440 C 58.487 102.124, 60.732 101.141, 61.407 99.381 C 61.997 97.844, 45.582 64.037, 43.628 62.765 C 42.214 61.845, 41.789 61.847, 40.316 62.784 M 7.571 127.571 C 6.707 128.436, 6 129.657, 6 130.285 C 6 130.913, 20.053 145.506, 37.229 162.713 L 68.458 194 37.229 225.287 C 20.053 242.494, 6 257.087, 6 257.715 C 6 258.343, 6.707 259.564, 7.571 260.429 C 8.936 261.793, 13.463 262, 42 262 C 70.537 262, 75.064 261.793, 76.429 260.429 C 77.825 259.032, 78 251.628, 78 194 C 78 136.372, 77.825 128.968, 76.429 127.571 C 75.064 126.207, 70.537 126, 42 126 C 13.463 126, 8.936 126.207, 7.571 127.571 M 130.223 127.021 C 116.788 129.798, 104.739 142.692, 102.514 156.673 C 101.197 164.953, 106.514 185.758, 114.071 201.889 C 124.639 224.449, 146.256 248.023, 166.406 258.964 L 170.944 261.428 173.722 258.886 C 175.250 257.488, 179.650 254.141, 183.500 251.449 C 208.386 234.047, 228.262 203.081, 234.590 171.852 C 236.892 160.493, 236.145 152.929, 231.945 145.049 C 223.058 128.374, 202.385 121.641, 185.900 130.051 C 180.468 132.822, 172.549 140.259, 170.970 144.073 L 169.728 147.070 166.415 142.149 C 164.592 139.443, 161.391 135.818, 159.300 134.094 C 152.200 128.238, 139.398 125.124, 130.223 127.021 M 44.500 159 C 58.242 172.750, 69.601 184, 69.742 184 C 69.884 184, 70 172.750, 70 159 L 70 134 44.758 134 L 19.515 134 44.500 159 M 127.385 135.617 C 117.726 139.043, 110 149.714, 110 159.631 C 110 174.429, 118.364 197.817, 129.684 214.670 C 138.648 228.017, 151.457 240.732, 164.720 249.452 L 168.939 252.226 173.465 249.573 C 182.749 244.133, 197.178 230.577, 205.424 219.548 C 215.598 205.941, 223.313 189.017, 227.055 172.098 C 229.474 161.159, 229.463 158.314, 226.976 151.667 C 220.646 134.747, 199.074 128.435, 184.797 139.325 C 179.118 143.656, 175.172 150.296, 174.001 157.492 C 172.831 164.680, 171.093 166.819, 167.686 165.267 C 165.718 164.370, 165.199 163.216, 164.733 158.702 C 163.722 148.908, 158.551 141.431, 149.745 137.030 C 142.822 133.571, 134.617 133.052, 127.385 135.617 M 327.750 159.080 C 325.372 160.465, 325.542 163.685, 328.064 165.034 C 331.753 167.008, 334.819 162.219, 331.800 159.200 C 330.367 157.767, 330.022 157.757, 327.750 159.080 M 263.750 191.076 C 261.417 192.440, 261.526 195.676, 263.948 196.972 C 265.256 197.672, 287.132 197.930, 330.589 197.757 C 390.951 197.517, 395.356 197.383, 396.386 195.750 C 397.191 194.474, 397.191 193.526, 396.386 192.250 C 395.356 190.616, 390.963 190.485, 330.391 190.276 C 287.547 190.129, 264.905 190.400, 263.750 191.076 M 44.500 229 L 19.515 254 44.758 254 L 70 254 70 229 C 70 215.250, 69.884 204, 69.742 204 C 69.601 204, 58.242 215.250, 44.500 229 " stroke="none" fill="black" fill-rule="evenodd"/>
</svg>