<svg xmlns="http://www.w3.org/2000/svg" width="372" height="324" viewBox="0 0 372 324" version="1.1">
	<path d="M 231.571 127.571 C 230.707 128.436, 230 129.529, 230 130 C 230 130.471, 230.707 131.564, 231.571 132.429 C 232.968 133.825, 240.372 134, 298 134 C 355.628 134, 363.032 133.825, 364.429 132.429 C 365.293 131.564, 366 130.471, 366 130 C 366 129.529, 365.293 128.436, 364.429 127.571 C 363.032 126.175, 355.628 126, 298 126 C 240.372 126, 232.968 126.175, 231.571 127.571 M 33.384 159.412 C 15.475 163.758, 3.559 181.807, 6.987 199.396 C 8.500 207.161, 12.212 214.019, 17.580 218.967 C 38.277 238.045, 70.591 227.221, 76.013 199.396 C 79.488 181.565, 67.484 163.676, 49.147 159.360 C 42.397 157.772, 40.111 157.779, 33.384 159.412 M 161.384 159.412 C 143.475 163.758, 131.559 181.807, 134.987 199.396 C 136.500 207.161, 140.212 214.019, 145.580 218.967 C 166.277 238.045, 198.591 227.221, 204.013 199.396 C 207.488 181.565, 195.484 163.676, 177.147 159.360 C 170.397 157.772, 168.111 157.779, 161.384 159.412 M 31.054 167.728 C 25.018 169.859, 17.781 177.260, 15.667 183.463 C 11.995 194.241, 14.382 205.477, 21.952 213.048 C 32.673 223.769, 50.327 223.769, 61.048 213.048 C 71.769 202.327, 71.769 184.673, 61.048 173.952 C 53.519 166.424, 41.696 163.970, 31.054 167.728 M 159.054 167.728 C 153.018 169.859, 145.781 177.260, 143.667 183.463 C 139.995 194.241, 142.382 205.477, 149.952 213.048 C 160.673 223.769, 178.327 223.769, 189.048 213.048 C 199.769 202.327, 199.769 184.673, 189.048 173.952 C 181.519 166.424, 169.696 163.970, 159.054 167.728 M 39.571 191.571 C 38.707 192.436, 38 193.529, 38 194 C 38 195.111, 40.889 198, 42 198 C 43.111 198, 46 195.111, 46 194 C 46 192.889, 43.111 190, 42 190 C 41.529 190, 40.436 190.707, 39.571 191.571 M 103.571 191.571 C 102.707 192.436, 102 193.529, 102 194 C 102 194.471, 102.707 195.564, 103.571 196.429 C 104.436 197.293, 105.529 198, 106 198 C 106.471 198, 107.564 197.293, 108.429 196.429 C 109.293 195.564, 110 194.471, 110 194 C 110 193.529, 109.293 192.436, 108.429 191.571 C 107.564 190.707, 106.471 190, 106 190 C 105.529 190, 104.436 190.707, 103.571 191.571 M 167.571 191.571 C 166.707 192.436, 166 193.529, 166 194 C 166 194.471, 166.707 195.564, 167.571 196.429 C 168.436 197.293, 169.529 198, 170 198 C 170.471 198, 171.564 197.293, 172.429 196.429 C 173.293 195.564, 174 194.471, 174 194 C 174 193.529, 173.293 192.436, 172.429 191.571 C 171.564 190.707, 170.471 190, 170 190 C 169.529 190, 168.436 190.707, 167.571 191.571 M 135.571 255.571 C 134.707 256.436, 134 257.529, 134 258 C 134 258.471, 134.707 259.564, 135.571 260.429 C 136.936 261.793, 141.463 262, 170 262 C 198.537 262, 203.064 261.793, 204.429 260.429 C 205.293 259.564, 206 258.471, 206 258 C 206 257.529, 205.293 256.436, 204.429 255.571 C 203.064 254.207, 198.537 254, 170 254 C 141.463 254, 136.936 254.207, 135.571 255.571 " stroke="none" fill="black" fill-rule="evenodd"/>
</svg>