<svg xmlns="http://www.w3.org/2000/svg" width="340" height="324" viewBox="0 0 340 324" version="1.1">
	<path d="M 39.571 127.571 C 38.176 128.966, 38 136.152, 38 191.571 L 38 254 23.571 254 C 11.788 254, 8.855 254.288, 7.571 255.571 C 5.598 257.545, 5.598 258.455, 7.571 260.429 C 8.936 261.793, 13.463 262, 42 262 C 70.537 262, 75.064 261.793, 76.429 260.429 C 77.293 259.564, 78 258.471, 78 258 C 78 257.529, 77.293 256.436, 76.429 255.571 C 75.145 254.288, 72.212 254, 60.429 254 L 46 254 46 191.571 C 46 136.152, 45.824 128.966, 44.429 127.571 C 43.564 126.707, 42.471 126, 42 126 C 41.529 126, 40.436 126.707, 39.571 127.571 M 263.750 127.073 C 261.423 128.438, 261.524 131.675, 263.934 132.965 C 265.005 133.538, 272.151 134, 279.934 134 L 294 134 294 196.965 L 294 259.930 296.183 261.098 C 298.042 262.093, 298.636 261.933, 300.183 260.022 C 301.895 257.908, 302 254.212, 302 195.916 L 302 134.053 316.643 133.777 C 329.314 133.537, 331.433 133.264, 332.387 131.750 C 333.191 130.475, 333.190 129.525, 332.386 128.250 C 331.377 126.649, 328.483 126.481, 298.391 126.273 C 277.280 126.127, 264.873 126.414, 263.750 127.073 M 103.200 159.200 C 101.481 160.919, 101.481 227.081, 103.200 228.800 C 104.109 229.709, 120.229 230, 169.629 230 C 227.594 230, 235.032 229.825, 236.429 228.429 C 237.793 227.064, 238 222.537, 238 194 C 238 165.463, 237.793 160.936, 236.429 159.571 C 235.032 158.175, 227.594 158, 169.629 158 C 120.229 158, 104.109 158.291, 103.200 159.200 M 110 194 L 110 222 138 222 L 166 222 166 194 L 166 166 138 166 L 110 166 110 194 M 174 194 L 174 222 202 222 L 230 222 230 194 L 230 166 202 166 L 174 166 174 194 " stroke="none" fill="black" fill-rule="evenodd"/>
</svg>