<svg xmlns="http://www.w3.org/2000/svg" width="84" height="324" viewBox="0 0 84 324" version="1.1">
	<path d="M 40.372 62.765 C 38.418 64.037, 22.003 97.844, 22.593 99.381 C 23.268 101.141, 25.513 102.124, 27.295 101.440 C 28.007 101.167, 31.480 95.106, 35.014 87.972 C 38.547 80.837, 41.691 75, 42 75 C 42.309 75, 45.453 80.837, 48.986 87.972 C 52.520 95.106, 55.993 101.167, 56.705 101.440 C 58.487 102.124, 60.732 101.141, 61.407 99.381 C 61.716 98.575, 58.096 90.173, 53.363 80.708 C 45.638 65.261, 43.672 62.031, 42 62.031 C 41.725 62.031, 40.992 62.361, 40.372 62.765 M 7.627 127.515 C 5.597 129.546, 5.587 130.444, 7.571 132.429 C 8.538 133.395, 10.888 134, 13.677 134 C 36.570 134, 61.170 154.437, 67.415 178.644 C 69.446 186.517, 69.446 200.483, 67.415 208.356 C 61.170 232.563, 36.570 253, 13.677 253 C 10.888 253, 8.538 253.605, 7.571 254.571 C 5.598 256.545, 5.598 257.455, 7.572 259.429 C 10.768 262.626, 28.078 259.098, 40.500 252.719 C 56.316 244.596, 69.912 227.536, 74.544 210 C 76.823 201.372, 76.823 185.618, 74.543 177.017 C 67.260 149.541, 44.052 129.906, 14.877 126.537 C 10.402 126.020, 8.923 126.220, 7.627 127.515 " stroke="none" fill="black" fill-rule="evenodd"/>
</svg>