<svg xmlns="http://www.w3.org/2000/svg" width="260" height="324" viewBox="0 0 260 324" version="1.1">
	<path d="M 71.282 111.282 C 61.777 120.787, 54 129.210, 54 130 C 54 131.693, 88.031 166, 89.710 166 C 91.173 166, 94 163.200, 94 161.751 C 94 161.143, 87.156 153.750, 78.792 145.323 L 63.584 130 78.792 114.677 C 87.156 106.250, 94 98.857, 94 98.249 C 94 96.800, 91.173 94, 89.710 94 C 89.079 94, 80.787 101.777, 71.282 111.282 M 39.571 127.571 C 38.211 128.932, 38 133.276, 38 159.944 L 38 190.744 33.908 191.399 C 21.103 193.446, 9.770 205.319, 6.987 219.604 C 2.479 242.736, 24.615 264.685, 47.705 259.979 C 59.407 257.594, 68.751 250.140, 73.784 239.175 C 77.488 231.106, 77.488 219.894, 73.784 211.825 C 69.105 201.631, 59.172 193.220, 49.750 191.473 L 46 190.777 46 159.960 C 46 133.278, 45.789 128.932, 44.429 127.571 C 43.564 126.707, 42.471 126, 42 126 C 41.529 126, 40.436 126.707, 39.571 127.571 M 145.024 191.603 C 128.983 195.914, 118.807 209.070, 118.807 225.500 C 118.807 242.848, 130.143 256.339, 147.865 260.082 C 158.044 262.232, 169.229 258.607, 178.142 250.270 L 183 245.726 183 252.663 C 183 261.239, 184.900 263.957, 188.429 260.429 C 189.712 259.145, 190 256.212, 190 244.429 L 190 230 218.500 230 L 247 230 247 244.878 C 247 261.071, 247.684 263.310, 251.936 261.034 C 253.959 259.952, 254 259.256, 254 226 C 254 192.744, 253.959 192.048, 251.936 190.966 C 247.684 188.690, 247 190.929, 247 207.122 L 247 222 218.500 222 L 190 222 190 207.571 C 190 195.788, 189.712 192.855, 188.429 191.571 C 184.978 188.120, 183 190.767, 183 198.837 L 183 205.274 178.142 200.730 C 172.348 195.310, 167.364 192.642, 160.201 191.123 C 153.574 189.719, 151.832 189.774, 145.024 191.603 M 31.054 199.728 C 25.018 201.859, 17.781 209.260, 15.667 215.463 C 11.995 226.241, 14.382 237.477, 21.952 245.048 C 34.788 257.884, 56.462 254.978, 65.751 239.176 C 68.200 235.011, 68.500 233.517, 68.500 225.500 C 68.500 217.483, 68.200 215.989, 65.751 211.824 C 58.801 200.001, 44.449 194.998, 31.054 199.728 M 144.316 199.266 C 133.333 203.522, 126 214.025, 126 225.500 C 126 237.574, 134.421 248.894, 145.769 252.074 C 152.182 253.872, 162.027 252.760, 167.355 249.638 C 176.418 244.326, 180.956 236.273, 180.956 225.500 C 180.956 214.687, 176.421 206.675, 167.261 201.307 C 163.650 199.191, 161.193 198.591, 155.117 198.343 C 150.693 198.163, 146.165 198.550, 144.316 199.266 " stroke="none" fill="black" fill-rule="evenodd"/>
</svg>