<svg xmlns="http://www.w3.org/2000/svg" width="276" height="324" viewBox="0 0 276 324" version="1.1">
	<path d="M 23.571 63.571 C 22.707 64.436, 22 65.332, 22 65.564 C 22 67.123, 39.710 101.058, 40.727 101.449 C 41.427 101.717, 42.573 101.717, 43.273 101.449 C 45.129 100.736, 62.063 66.328, 61.403 64.609 C 60.732 62.858, 58.483 61.877, 56.705 62.560 C 55.993 62.833, 52.520 68.894, 48.986 76.028 C 45.453 83.163, 42.308 89, 41.997 89 C 41.687 89, 38.748 83.534, 35.467 76.853 C 27.925 61.499, 26.847 60.296, 23.571 63.571 M 199.571 127.571 C 198.178 128.965, 198 135.897, 198 188.774 L 198 248.405 184.667 235.202 C 177.334 227.941, 170.841 222, 170.239 222 C 168.822 222, 166 224.822, 166 226.239 C 166 226.841, 171.941 233.334, 179.202 240.667 L 192.405 254 164.774 254 C 140.988 254, 136.924 254.219, 135.571 255.571 C 133.598 257.545, 133.598 258.455, 135.571 260.429 C 136.968 261.825, 144.372 262, 202 262 C 259.628 262, 267.032 261.825, 268.429 260.429 C 269.293 259.564, 270 258.471, 270 258 C 270 257.529, 269.293 256.436, 268.429 255.571 C 267.076 254.219, 263.012 254, 239.226 254 L 211.595 254 224.798 240.667 C 232.059 233.334, 238 226.841, 238 226.239 C 238 224.822, 235.178 222, 233.761 222 C 233.159 222, 226.666 227.941, 219.333 235.202 L 206 248.405 206 188.774 C 206 135.897, 205.822 128.965, 204.429 127.571 C 203.564 126.707, 202.471 126, 202 126 C 201.529 126, 200.436 126.707, 199.571 127.571 M 33.384 159.412 C 15.475 163.758, 3.559 181.807, 6.987 199.396 C 8.500 207.161, 12.212 214.019, 17.580 218.967 C 38.277 238.045, 70.591 227.221, 76.013 199.396 C 79.488 181.565, 67.484 163.676, 49.147 159.360 C 42.397 157.772, 40.111 157.779, 33.384 159.412 M 31.054 167.728 C 25.018 169.859, 17.781 177.260, 15.667 183.463 C 11.995 194.241, 14.382 205.477, 21.952 213.048 C 32.673 223.769, 50.327 223.769, 61.048 213.048 C 71.769 202.327, 71.769 184.673, 61.048 173.952 C 53.519 166.424, 41.696 163.970, 31.054 167.728 M 39.571 191.571 C 38.707 192.436, 38 193.529, 38 194 C 38 195.111, 40.889 198, 42 198 C 43.111 198, 46 195.111, 46 194 C 46 192.889, 43.111 190, 42 190 C 41.529 190, 40.436 190.707, 39.571 191.571 M 103.571 191.571 C 102.707 192.436, 102 193.529, 102 194 C 102 194.471, 102.707 195.564, 103.571 196.429 C 104.436 197.293, 105.529 198, 106 198 C 106.471 198, 107.564 197.293, 108.429 196.429 C 109.293 195.564, 110 194.471, 110 194 C 110 193.529, 109.293 192.436, 108.429 191.571 C 107.564 190.707, 106.471 190, 106 190 C 105.529 190, 104.436 190.707, 103.571 191.571 " stroke="none" fill="black" fill-rule="evenodd"/>
</svg>