<svg xmlns="http://www.w3.org/2000/svg" width="148" height="324" viewBox="0 0 148 324" version="1.1">
	<path d="M 71.550 62.918 C 67.869 68.875, 54.190 98.331, 54.604 99.410 C 55.267 101.138, 57.522 102.121, 59.278 101.447 C 59.981 101.177, 63.522 95.005, 67.147 87.731 L 73.738 74.505 80.311 87.624 C 83.927 94.839, 87.586 101.011, 88.442 101.340 C 90.951 102.302, 93 100.972, 93 98.381 C 93 95.782, 77.486 63.976, 75.628 62.765 C 74.071 61.751, 72.229 61.820, 71.550 62.918 M 71.571 127.571 C 70.178 128.965, 70 135.897, 70 188.774 L 70 248.405 56.667 235.202 C 49.334 227.941, 42.841 222, 42.239 222 C 40.822 222, 38 224.822, 38 226.239 C 38 226.841, 43.941 233.334, 51.202 240.667 L 64.405 254 36.774 254 C 12.988 254, 8.924 254.219, 7.571 255.571 C 5.596 257.546, 5.598 258.455, 7.579 260.436 C 8.990 261.847, 16.058 261.987, 74.220 261.757 C 134.934 261.517, 139.356 261.383, 140.386 259.750 C 141.191 258.474, 141.191 257.526, 140.386 256.250 C 139.386 254.663, 136.698 254.475, 111.457 254.234 L 83.631 253.968 96.315 241.148 C 103.905 233.478, 109 227.539, 109 226.364 C 109 224.279, 107.242 222, 105.633 222 C 105.101 222, 98.666 227.941, 91.333 235.202 L 78 248.405 78 188.774 C 78 135.897, 77.822 128.965, 76.429 127.571 C 75.564 126.707, 74.471 126, 74 126 C 73.529 126, 72.436 126.707, 71.571 127.571 " stroke="none" fill="black" fill-rule="evenodd"/>
</svg>