<svg xmlns="http://www.w3.org/2000/svg" width="308" height="324" viewBox="0 0 308 324" version="1.1">
	<path d="M 99.045 127.055 C 84.450 130.037, 72.580 142.490, 70.500 157 C 69.784 161.989, 72.372 176.121, 75.993 187 C 79.620 197.898, 88.593 215.028, 95.423 224.092 C 103.820 235.237, 116.800 247.461, 128.238 254.997 C 133.250 258.298, 137.622 261, 137.953 261 C 138.718 261, 147.253 254.733, 157.388 246.729 C 179.043 229.628, 195.713 202.488, 202.062 174 C 204.604 162.597, 204.494 155.817, 201.657 148.920 C 195.698 134.435, 184.487 126.863, 168.877 126.778 C 162.777 126.745, 160.146 127.244, 155.702 129.279 C 149.266 132.225, 141.601 138.921, 139.114 143.769 L 137.385 147.139 134.279 142.142 C 127.350 130.995, 111.978 124.413, 99.045 127.055 M 231.200 127.200 C 229.465 128.935, 229.465 259.065, 231.200 260.800 C 232.918 262.518, 298.082 262.518, 299.800 260.800 C 301.535 259.065, 301.535 128.935, 299.800 127.200 C 298.082 125.482, 232.918 125.482, 231.200 127.200 M 95.627 135.468 C 90.265 137.380, 85.042 141.824, 81.541 147.453 C 77.463 154.009, 77.011 161.878, 80 174.253 C 87.260 204.307, 105.286 230.669, 130.244 247.734 C 138.013 253.046, 137.183 253.184, 148.523 244.692 C 167.116 230.767, 182.546 209.908, 190.459 188 C 193.560 179.414, 196.946 165.020, 196.978 160.288 C 197.012 155.229, 193.294 146.610, 189.308 142.505 C 183.913 136.950, 176.883 134.017, 169 134.032 C 154.562 134.059, 143.740 143.976, 141.569 159.168 C 140.820 164.413, 139.053 166.469, 136.099 165.531 C 133.920 164.840, 133.474 163.764, 132.560 156.995 C 131.285 147.558, 123.516 138.368, 114.101 135.159 C 109.559 133.611, 100.409 133.764, 95.627 135.468 M 237 162 L 237 190 265.500 190 L 294 190 294 162 L 294 134 265.500 134 L 237 134 237 162 M 40.348 190.765 C 38.390 192.014, 6.011 257.865, 6.600 259.400 C 7.266 261.135, 9.518 262.122, 11.274 261.448 C 11.975 261.180, 19.056 247.919, 27.010 231.980 C 34.964 216.041, 41.710 203, 42 203 C 42.290 203, 49.036 216.041, 56.990 231.980 C 64.944 247.919, 72.083 261.201, 72.853 261.497 C 74.717 262.213, 77 260.217, 77 257.871 C 77 255.637, 45.272 191.833, 43.630 190.765 C 43.009 190.361, 42.275 190.031, 42 190.031 C 41.725 190.031, 40.981 190.361, 40.348 190.765 M 237 226 L 237 254 265.500 254 L 294 254 294 226 L 294 198 265.500 198 L 237 198 237 226 " stroke="none" fill="black" fill-rule="evenodd"/>
</svg>