<svg xmlns="http://www.w3.org/2000/svg" width="595" height="324" viewBox="0 0 595 324" version="1.1">
	<path d="M 264 126.956 C 263.175 127.449, 248.328 156.235, 231.006 190.926 L 199.513 254 184.328 254 C 171.857 254, 168.862 254.281, 167.571 255.571 C 165.595 257.548, 165.598 258.455, 167.585 260.442 C 168.978 261.835, 173.159 261.995, 202.226 261.763 C 232.452 261.523, 235.377 261.350, 236.386 259.750 C 237.190 258.475, 237.191 257.525, 236.388 256.250 C 235.441 254.747, 233.361 254.461, 221.655 254.222 L 208.025 253.944 238.512 192.975 C 255.281 159.442, 269 131.195, 269 130.203 C 269 128.485, 267.219 125.966, 266.050 126.030 C 265.748 126.047, 264.825 126.464, 264 126.956 M 327.247 191.253 C 291.361 227.142, 262 257.276, 262 258.218 C 262 259.159, 262.962 260.445, 264.138 261.074 C 266.113 262.131, 270.988 257.506, 328.138 200.362 L 390 138.506 390 164.253 L 390 190 375.200 190 C 365.022 190, 360.025 190.375, 359.200 191.200 C 357.481 192.919, 357.481 259.081, 359.200 260.800 C 360.918 262.518, 426.082 262.518, 427.800 260.800 C 429.519 259.081, 429.519 192.919, 427.800 191.200 C 426.975 190.375, 421.978 190, 411.800 190 L 397 190 397 159.200 C 397 128.425, 396.748 126, 393.547 126 C 392.968 126, 363.133 155.364, 327.247 191.253 M 509.500 127.480 C 494.777 130.214, 480.515 138.112, 471.016 148.791 C 461.554 159.429, 454.066 178.118, 454.017 191.215 C 454.003 195.003, 454.416 196.152, 456.117 197.062 C 459.381 198.809, 460.618 196.615, 461.816 186.954 C 464.674 163.898, 478.721 145.878, 500.500 137.329 C 506.833 134.843, 508.739 134.577, 520.500 134.540 C 531.626 134.506, 534.484 134.840, 540.326 136.857 C 549.442 140.004, 560.960 147.864, 566.660 154.828 C 574.771 164.737, 580.929 180.812, 580.983 192.215 C 581.003 196.661, 583.614 198.734, 586.518 196.611 C 590.648 193.591, 585.799 171.015, 578.406 158.845 C 573.314 150.463, 566.784 143.669, 558.484 138.118 C 549.822 132.324, 542.348 129.308, 532 127.431 C 522.892 125.778, 518.617 125.787, 509.500 127.480 M 39.267 223.267 C 20.970 241.563, 6 257.056, 6 257.695 C 6 259.187, 8.799 262, 10.285 262 C 10.913 262, 25.509 247.944, 42.721 230.764 L 74.015 199.527 105.264 230.764 C 122.450 247.944, 137.039 262, 137.684 262 C 138.329 262, 139.564 261.293, 140.429 260.429 C 142.780 258.077, 142.793 195.578, 140.443 192.223 C 138.598 189.588, 137.678 189.465, 135.571 191.571 C 134.219 192.924, 134 196.990, 134 220.799 L 134 248.455 104.711 219.227 C 88.602 203.152, 74.772 190, 73.978 190 C 73.183 190, 57.563 204.970, 39.267 223.267 M 365 226 L 365 254 393.500 254 L 422 254 422 226 L 422 198 393.500 198 L 365 198 365 226 " stroke="none" fill="black" fill-rule="evenodd"/>
</svg>