<svg xmlns="http://www.w3.org/2000/svg" width="532" height="324" viewBox="0 0 532 324" version="1.1">
	<path d="M 39.571 127.571 C 38.176 128.966, 38 136.152, 38 191.571 L 38 254 23.571 254 C 11.788 254, 8.855 254.288, 7.571 255.571 C 5.598 257.545, 5.598 258.455, 7.571 260.429 C 8.936 261.793, 13.463 262, 42 262 C 70.537 262, 75.064 261.793, 76.429 260.429 C 77.293 259.564, 78 258.471, 78 258 C 78 257.529, 77.293 256.436, 76.429 255.571 C 75.145 254.288, 72.212 254, 60.429 254 L 46 254 46 191.571 C 46 136.152, 45.824 128.966, 44.429 127.571 C 43.564 126.707, 42.471 126, 42 126 C 41.529 126, 40.436 126.707, 39.571 127.571 M 200.369 126.765 C 199.746 127.169, 185.008 155.963, 167.617 190.750 L 135.997 254 120.570 254 C 107.879 254, 104.864 254.279, 103.571 255.571 C 101.598 257.545, 101.598 258.455, 103.571 260.429 C 104.936 261.793, 109.463 262, 138 262 C 166.537 262, 171.064 261.793, 172.429 260.429 C 174.402 258.455, 174.402 257.545, 172.429 255.571 C 171.156 254.299, 168.303 254, 157.427 254 L 143.997 254 174.998 192.003 C 192.049 157.905, 206 129.812, 206 129.575 C 206 128.872, 202.916 125.999, 202.179 126.015 C 201.805 126.024, 200.991 126.361, 200.369 126.765 M 263.240 191.268 C 227.358 227.165, 198 257.058, 198 257.696 C 198 259.196, 200.803 262, 202.302 262 C 202.940 262, 231.033 234.442, 264.731 200.761 L 326 139.522 326 164.761 L 326 190 311.200 190 C 301.022 190, 296.025 190.375, 295.200 191.200 C 293.481 192.919, 293.481 259.081, 295.200 260.800 C 296.085 261.685, 305.117 262, 329.629 262 C 358.503 262, 363.063 261.794, 364.429 260.429 C 365.793 259.064, 366 254.537, 366 226 C 366 197.463, 365.793 192.936, 364.429 191.571 C 363.145 190.288, 360.212 190, 348.429 190 L 334 190 334 159.571 C 334 133.242, 333.788 128.931, 332.429 127.571 C 331.564 126.707, 330.322 126, 329.668 126 C 329.014 126, 299.121 155.371, 263.240 191.268 M 445.500 127.418 C 417.871 132.792, 397.188 153.045, 391.589 180.208 C 389.316 191.232, 389.472 195.647, 392.183 197.098 C 395.396 198.817, 398 195.236, 398 189.099 C 398 176.635, 404.384 162.650, 414.993 151.875 C 426.948 139.732, 440.493 134.046, 457.540 134.015 C 467.382 133.997, 475.282 135.908, 484.568 140.554 C 502.614 149.581, 514.923 167.960, 516.656 188.463 C 517.170 194.542, 517.690 196.299, 519.214 197.115 C 526.989 201.276, 525.055 178.466, 516.196 161.516 C 510.915 151.410, 498.917 139.609, 488.500 134.271 C 474.732 127.217, 459.233 124.747, 445.500 127.418 M 302 226 L 302 254 330 254 L 358 254 358 226 L 358 198 330 198 L 302 198 302 226 " stroke="none" fill="black" fill-rule="evenodd"/>
</svg>