<svg xmlns="http://www.w3.org/2000/svg" width="244" height="324" viewBox="0 0 244 324" version="1.1">
	<path d="M 64.500 126.944 C 56.325 128.268, 50.930 129.991, 43 133.814 C 32.444 138.903, 18.927 152.404, 13.778 163 C 7.648 175.615, 4.334 193.191, 7.491 196.348 C 9.547 198.404, 10.439 198.418, 12.429 196.429 C 13.404 195.453, 14.006 193.082, 14.015 190.179 C 14.091 166.127, 34.559 141.323, 59.103 135.537 C 66.646 133.759, 78.760 133.559, 86.201 135.090 C 105.922 139.147, 124.022 155.711, 130.356 175.500 C 132.972 183.671, 133.983 197.019, 133.992 223.477 L 134 248.455 104.711 219.227 C 88.602 203.152, 74.772 190, 73.978 190 C 72.271 190, 6 255.996, 6 257.695 C 6 259.187, 8.799 262, 10.285 262 C 10.913 262, 25.509 247.944, 42.721 230.764 L 74.015 199.527 105.374 230.874 C 131.950 257.440, 137.057 262.117, 138.864 261.543 C 140.036 261.171, 141.241 259.884, 141.541 258.683 C 142.497 254.855, 141.318 192.779, 140.151 185.553 C 134.735 151.997, 109.808 128.735, 77 126.619 C 72.875 126.353, 67.250 126.499, 64.500 126.944 M 194.355 158.986 C 183.790 161.214, 174.114 169.146, 169.329 179.500 C 165.374 188.059, 165.386 198.895, 169.361 207.610 C 172.861 215.285, 179.689 222.075, 187.480 225.629 C 195.387 229.236, 205.732 229.409, 214.297 226.077 C 221.347 223.334, 229.540 215.648, 233.033 208.500 C 235.125 204.220, 235.479 202.060, 235.488 193.500 C 235.502 181.368, 233.458 176.293, 225.353 168.339 C 217.361 160.497, 204.948 156.752, 194.355 158.986 M 191.627 167.468 C 186.247 169.386, 181.039 173.829, 177.500 179.519 C 173.527 185.908, 172.712 197.311, 175.741 204.129 C 180.289 214.364, 188.183 219.994, 199.078 220.773 C 206.881 221.332, 212.235 219.787, 218.674 215.119 C 226.430 209.497, 230.774 196.233, 228.098 186.343 C 224.899 174.521, 213.747 165.958, 201.663 166.044 C 198.273 166.068, 193.757 166.709, 191.627 167.468 M 167.585 255.558 C 166.713 256.430, 166 257.529, 166 258 C 166 258.471, 166.713 259.570, 167.585 260.442 C 168.978 261.835, 173.159 261.995, 202.226 261.763 C 232.452 261.523, 235.377 261.350, 236.386 259.750 C 237.191 258.474, 237.191 257.526, 236.386 256.250 C 235.377 254.650, 232.452 254.477, 202.226 254.237 C 173.159 254.005, 168.978 254.165, 167.585 255.558 " stroke="none" fill="black" fill-rule="evenodd"/>
</svg>