<svg xmlns="http://www.w3.org/2000/svg" width="595" height="324" viewBox="0 0 595 324" version="1.1">
	<path d="M 104.369 126.765 C 103.746 127.169, 89.008 155.963, 71.617 190.750 L 39.997 254 24.570 254 C 11.879 254, 8.864 254.279, 7.571 255.571 C 5.598 257.545, 5.598 258.455, 7.571 260.429 C 8.936 261.793, 13.463 262, 42 262 C 70.537 262, 75.064 261.793, 76.429 260.429 C 78.402 258.455, 78.402 257.545, 76.429 255.571 C 75.156 254.299, 72.303 254, 61.427 254 L 47.997 254 79.055 191.891 C 108.752 132.503, 110.037 129.699, 108.401 127.891 C 106.520 125.812, 106.042 125.679, 104.369 126.765 M 327.247 191.253 C 291.361 227.142, 262 257.276, 262 258.218 C 262 259.159, 262.962 260.445, 264.138 261.074 C 266.113 262.131, 270.988 257.506, 328.138 200.362 L 390 138.506 390 164.253 L 390 190 375.200 190 C 365.022 190, 360.025 190.375, 359.200 191.200 C 357.481 192.919, 357.481 259.081, 359.200 260.800 C 360.918 262.518, 426.082 262.518, 427.800 260.800 C 429.519 259.081, 429.519 192.919, 427.800 191.200 C 426.975 190.375, 421.978 190, 411.800 190 L 397 190 397 159.200 C 397 128.425, 396.748 126, 393.547 126 C 392.968 126, 363.133 155.364, 327.247 191.253 M 511.531 127.056 C 483.788 131.364, 461.240 152.484, 455.511 179.529 C 453.325 189.850, 453.509 195.667, 456.064 197.034 C 459.325 198.780, 460.669 196.737, 461.446 188.850 C 463.817 164.789, 479.552 144.502, 501.810 136.812 C 507.411 134.876, 510.534 134.500, 521 134.500 C 531.533 134.500, 534.574 134.871, 540.326 136.857 C 549.442 140.004, 560.960 147.864, 566.660 154.828 C 574.771 164.737, 580.929 180.812, 580.983 192.215 C 581.002 196.428, 583.359 198.498, 586.276 196.866 C 590.091 194.731, 587.123 176.088, 580.982 163.615 C 568.499 138.258, 539.089 122.777, 511.531 127.056 M 231.571 159.571 C 229.215 161.927, 229.215 210.073, 231.571 212.429 C 233.457 214.315, 234.219 214.381, 235.800 212.800 C 237.508 211.092, 237.508 160.908, 235.800 159.200 C 234.219 157.619, 233.457 157.685, 231.571 159.571 M 135.585 191.558 C 134.713 192.430, 134 193.529, 134 194 C 134 194.471, 134.713 195.570, 135.585 196.442 C 136.978 197.835, 141.159 197.995, 170.226 197.763 C 200.452 197.523, 203.377 197.350, 204.386 195.750 C 205.191 194.474, 205.191 193.526, 204.386 192.250 C 203.377 190.650, 200.452 190.477, 170.226 190.237 C 141.159 190.005, 136.978 190.165, 135.585 191.558 M 365 226 L 365 254 393.500 254 L 422 254 422 226 L 422 198 393.500 198 L 365 198 365 226 M 231.616 222.527 C 230.727 223.416, 230 224.529, 230 225 C 230 226.389, 233.140 229.120, 234.295 228.735 C 236.395 228.035, 237.549 225.094, 236.423 223.310 C 234.905 220.902, 233.474 220.669, 231.616 222.527 " stroke="none" fill="black" fill-rule="evenodd"/>
</svg>