<svg xmlns="http://www.w3.org/2000/svg" width="308" height="324" viewBox="0 0 308 324" version="1.1">
	<path d="M 64.500 126.944 C 48.438 129.544, 38.175 134.825, 26.498 146.500 C 13.978 159.017, 8.459 170.637, 6.503 188.598 C 5.964 193.549, 6.150 195.007, 7.491 196.348 C 10.992 199.850, 14 196.834, 14 189.823 C 14 176.973, 20.772 162.004, 31.388 151.388 C 42.912 139.864, 56.893 134, 72.845 134 C 83.693 134, 89.917 135.424, 99.899 140.191 C 110.084 145.054, 120.729 155.129, 125.780 164.686 C 129.503 171.731, 133 184.277, 133 190.589 C 133 194.479, 134.839 198, 136.871 198 C 140.482 198, 141.008 188.263, 138.028 176.609 C 134.978 164.686, 129.782 155.740, 120.457 146.361 C 113.703 139.568, 110.806 137.478, 102.933 133.719 C 97.745 131.242, 91.475 128.743, 89 128.165 C 82.400 126.623, 70.232 126.016, 64.500 126.944 M 167.750 127.080 C 166.787 127.641, 166.024 128.865, 166.053 129.800 C 166.082 130.735, 180.819 160.750, 198.803 196.500 C 225.682 249.934, 231.856 261.500, 233.500 261.500 C 235.144 261.500, 241.318 249.934, 268.197 196.500 C 286.181 160.750, 300.918 130.728, 300.947 129.785 C 301.022 127.343, 297.693 125.753, 295.721 127.289 C 294.865 127.955, 280.506 155.856, 263.811 189.291 L 233.456 250.082 203.527 189.791 C 187.066 156.631, 172.943 128.713, 172.144 127.750 C 170.475 125.741, 170.137 125.690, 167.750 127.080 M 65.972 159.329 C 47.771 163.347, 35.510 181.552, 38.987 199.396 C 44.456 227.466, 77.888 238.223, 97.777 218.313 C 105.474 210.608, 107.500 205.439, 107.500 193.500 C 107.500 181.367, 105.450 176.286, 97.353 168.339 C 89.097 160.238, 77.257 156.839, 65.972 159.329 M 63.627 167.468 C 58.247 169.386, 53.039 173.829, 49.500 179.519 C 46.982 183.568, 46.444 185.582, 46.150 192.050 C 45.760 200.623, 47.420 205.822, 52.447 211.770 C 61.626 222.629, 79.475 224.128, 90.992 215.006 C 96.752 210.444, 101 201.316, 101 193.500 C 101 182.038, 93.486 171.200, 82.965 167.488 C 77.743 165.645, 68.766 165.636, 63.627 167.468 M 71.616 191.527 C 70.727 192.416, 70 193.529, 70 194 C 70 195.389, 73.140 198.120, 74.295 197.735 C 76.395 197.035, 77.549 194.094, 76.423 192.310 C 74.905 189.902, 73.474 189.669, 71.616 191.527 " stroke="none" fill="black" fill-rule="evenodd"/>
</svg>