<svg xmlns="http://www.w3.org/2000/svg" width="468" height="324" viewBox="0 0 468 324" version="1.1">
	<path d="M 93.500 127.401 C 78.957 130.206, 67.309 136.689, 56.801 147.829 C 47.244 157.959, 41.091 169.948, 39.512 181.517 C 38.256 190.721, 39.616 190, 23.504 190 C 11.782 190, 8.854 190.289, 7.571 191.571 C 5.757 193.386, 5.681 193.946, 6.976 196 C 7.725 197.188, 11.094 197.604, 23.146 198 L 38.371 198.500 39.561 205.500 C 42.012 219.919, 48.653 231.743, 60.528 242.832 C 73.260 254.723, 87.751 260.376, 105.500 260.376 C 123.249 260.376, 137.740 254.723, 150.472 242.832 C 162.347 231.743, 168.987 219.919, 171.439 205.500 L 172.629 198.500 188.354 198 C 200.852 197.603, 204.272 197.192, 205.024 196 C 206.319 193.946, 206.243 193.386, 204.429 191.571 C 203.141 190.284, 200.173 190, 187.996 190 C 171.315 190, 172.738 190.733, 171.495 181.500 C 168.359 158.197, 146.738 134.824, 122.500 128.533 C 113.877 126.295, 101.699 125.820, 93.500 127.401 M 391.259 191.259 C 355.366 227.151, 326 257.044, 326 257.687 C 326 258.331, 326.707 259.564, 327.571 260.429 C 328.968 261.825, 336.372 262, 394 262 C 451.628 262, 459.032 261.825, 460.429 260.429 C 461.293 259.564, 462 258.471, 462 258 C 462 257.529, 461.293 256.436, 460.429 255.571 C 459.035 254.178, 452.099 254, 399.190 254 L 339.522 254 400.761 192.731 C 434.442 159.033, 462 130.940, 462 130.302 C 462 128.799, 459.194 126, 457.687 126 C 457.044 126, 427.151 155.366, 391.259 191.259 M 90.645 135.584 C 70.671 140.419, 52.279 158.986, 47.537 179.103 C 46.708 182.621, 46.023 186.512, 46.015 187.750 L 46 190 105.500 190 C 163.833 190, 165 189.962, 165 188.049 C 165 183.279, 162.508 174.848, 158.809 167.101 C 151.545 151.887, 136.095 139.356, 119.897 135.537 C 111.998 133.676, 98.439 133.697, 90.645 135.584 M 231.571 191.571 C 230.707 192.436, 230 193.529, 230 194 C 230 194.471, 230.707 195.564, 231.571 196.429 C 232.855 197.712, 235.788 198, 247.571 198 L 262 198 262 226 L 262 254 247.571 254 C 235.788 254, 232.855 254.288, 231.571 255.571 C 229.598 257.545, 229.598 258.455, 231.571 260.429 C 232.936 261.793, 237.463 262, 266 262 C 294.537 262, 299.064 261.793, 300.429 260.429 C 302.402 258.455, 302.402 257.545, 300.429 255.571 C 299.145 254.288, 296.212 254, 284.429 254 L 270 254 270 226 L 270 198 284.429 198 C 296.212 198, 299.145 197.712, 300.429 196.429 C 301.293 195.564, 302 194.471, 302 194 C 302 193.529, 301.293 192.436, 300.429 191.571 C 299.064 190.207, 294.537 190, 266 190 C 237.463 190, 232.936 190.207, 231.571 191.571 M 46.015 199.750 C 46.023 200.713, 46.708 204.379, 47.537 207.897 C 51.356 224.095, 63.887 239.545, 79.101 246.809 C 88.931 251.503, 95.313 253, 105.500 253 C 115.687 253, 122.069 251.503, 131.899 246.809 C 143.586 241.229, 153.229 231.586, 158.809 219.899 C 162.355 212.473, 165 203.737, 165 199.451 C 165 198.199, 156.825 198, 105.500 198 C 49.494 198, 46.001 198.103, 46.015 199.750 " stroke="none" fill="black" fill-rule="evenodd"/>
</svg>