<svg xmlns="http://www.w3.org/2000/svg" width="532" height="324" viewBox="0 0 532 324" version="1.1">
	<path d="M 103.571 95.571 C 102.219 96.924, 102 100.988, 102 124.774 L 102 152.405 88.667 139.202 C 81.334 131.941, 74.841 126, 74.239 126 C 72.813 126, 70 128.825, 70 130.257 C 70 132.006, 104.239 166, 106 166 C 107.761 166, 142 132.006, 142 130.257 C 142 128.825, 139.187 126, 137.761 126 C 137.159 126, 130.666 131.941, 123.333 139.202 L 110 152.405 110 124.774 C 110 100.988, 109.781 96.924, 108.429 95.571 C 107.564 94.707, 106.471 94, 106 94 C 105.529 94, 104.436 94.707, 103.571 95.571 M 390.612 128.250 C 389.823 129.488, 374.852 159.187, 357.343 194.249 C 331.084 246.834, 325.702 258.304, 326.613 259.749 C 327.630 261.361, 330.404 261.500, 361.500 261.500 C 392.586 261.500, 395.370 261.360, 396.386 259.750 C 397.191 258.474, 397.191 257.526, 396.387 256.250 C 395.389 254.667, 392.466 254.452, 365.764 254 L 336.245 253.500 364.995 196.009 L 393.745 138.517 424.622 200.009 L 455.500 261.500 489.391 261.500 C 520.581 261.500, 523.370 261.361, 524.386 259.750 C 525.191 258.474, 525.191 257.526, 524.386 256.250 C 523.379 254.653, 520.518 254.477, 491.636 254.236 L 459.989 253.972 428.376 190.736 C 410.989 155.956, 396.254 127.169, 395.631 126.765 C 393.647 125.476, 392.086 125.938, 390.612 128.250 M 39.571 159.571 C 38.707 160.436, 38 161.636, 38 162.239 C 38 162.841, 43.941 169.334, 51.202 176.667 L 64.405 190 36.774 190 C 12.988 190, 8.924 190.219, 7.571 191.571 C 5.598 193.545, 5.598 194.455, 7.571 196.429 C 8.924 197.781, 12.988 198, 36.774 198 L 64.405 198 51.202 211.333 C 43.941 218.666, 38 225.159, 38 225.761 C 38 227.187, 40.825 230, 42.257 230 C 44.006 230, 78 195.761, 78 194 C 78 192.239, 44.006 158, 42.257 158 C 41.644 158, 40.436 158.707, 39.571 159.571 M 151.315 175.213 C 141.792 184.680, 134 193.134, 134 194 C 134 195.761, 167.994 230, 169.743 230 C 171.175 230, 174 227.187, 174 225.761 C 174 225.159, 168.059 218.666, 160.798 211.333 L 147.595 198 175.226 198 C 199.012 198, 203.076 197.781, 204.429 196.429 C 206.402 194.455, 206.402 193.545, 204.429 191.571 C 203.076 190.219, 199.012 190, 175.226 190 L 147.595 190 160.798 176.667 C 168.059 169.334, 174 162.841, 174 162.239 C 174 160.813, 171.175 158, 169.743 158 C 169.131 158, 160.838 165.746, 151.315 175.213 M 258.344 190.988 C 248.010 193.166, 237.930 201.366, 233.417 211.266 C 231.050 216.457, 230.574 218.839, 230.574 225.500 C 230.574 235.798, 233.965 243.823, 241.161 250.554 C 248.450 257.372, 255.721 260.361, 264.980 260.345 C 275.546 260.326, 282.800 257.360, 290.080 250.080 C 311.321 228.839, 297.923 193.163, 267.729 190.562 C 264.853 190.314, 260.630 190.506, 258.344 190.988 M 255.385 199.617 C 249.552 201.686, 243.605 207.144, 240.588 213.199 C 235.895 222.618, 234.147 222, 265.500 222 C 287.821 222, 293 221.748, 293 220.660 C 293 217.506, 286.628 206.873, 283.031 204.024 C 275.623 198.158, 264.501 196.384, 255.385 199.617 M 87.213 239.315 C 77.746 248.838, 70 257.131, 70 257.743 C 70 259.175, 72.813 262, 74.239 262 C 74.841 262, 81.334 256.059, 88.667 248.798 L 102 235.595 102 263.226 C 102 287.012, 102.219 291.076, 103.571 292.429 C 104.436 293.293, 105.529 294, 106 294 C 106.471 294, 107.564 293.293, 108.429 292.429 C 109.781 291.076, 110 287.012, 110 263.226 L 110 235.595 123.333 248.798 C 130.666 256.059, 137.159 262, 137.761 262 C 139.187 262, 142 259.175, 142 257.743 C 142 255.994, 107.761 222, 106 222 C 105.134 222, 96.680 229.792, 87.213 239.315 M 238 231.304 C 238 232.021, 239.165 234.945, 240.588 237.801 C 245.325 247.306, 254.668 253, 265.529 253 C 277.900 253, 288.568 244.967, 291.976 233.084 L 292.860 230 265.430 230 C 243.551 230, 238 230.264, 238 231.304 " stroke="none" fill="black" fill-rule="evenodd"/>
</svg>