<svg xmlns="http://www.w3.org/2000/svg" width="564" height="324" viewBox="0 0 564 324" version="1.1">
	<path d="M 34.223 159.012 C 23.933 161.160, 13.981 169.443, 9.216 179.825 C 5.512 187.894, 5.512 199.106, 9.216 207.175 C 12.462 214.246, 18.459 220.848, 24.712 224.232 C 45.892 235.696, 71.341 223.376, 76.013 199.396 C 80.589 175.912, 57.969 154.054, 34.223 159.012 M 119.315 175.213 C 109.792 184.680, 102 193.134, 102 194 C 102 195.761, 135.994 230, 137.743 230 C 139.175 230, 142 227.187, 142 225.761 C 142 225.159, 136.059 218.666, 128.798 211.333 L 115.595 198 175.226 198 C 228.103 198, 235.035 197.822, 236.429 196.429 C 238.402 194.455, 238.402 193.545, 236.429 191.571 C 235.035 190.178, 228.103 190, 175.226 190 L 115.595 190 128.798 176.667 C 136.059 169.334, 142 162.841, 142 162.239 C 142 160.813, 139.175 158, 137.743 158 C 137.131 158, 128.838 165.746, 119.315 175.213 M 359.571 159.571 C 358.707 160.436, 358 161.636, 358 162.239 C 358 162.841, 363.941 169.334, 371.202 176.667 L 384.405 190 324.774 190 C 271.897 190, 264.965 190.178, 263.571 191.571 C 261.598 193.545, 261.598 194.455, 263.571 196.429 C 264.965 197.822, 271.897 198, 324.774 198 L 384.405 198 371.202 211.333 C 363.941 218.666, 358 225.159, 358 225.761 C 358 227.187, 360.825 230, 362.257 230 C 364.006 230, 398 195.761, 398 194 C 398 192.239, 364.006 158, 362.257 158 C 361.644 158, 360.436 158.707, 359.571 159.571 M 31.054 167.728 C 25.018 169.859, 17.781 177.260, 15.667 183.463 C 11.964 194.333, 14.320 205.225, 22.048 212.952 C 27.548 218.453, 33.705 221, 41.500 221 C 49.295 221, 55.452 218.453, 60.952 212.952 C 71.862 202.043, 71.862 184.957, 60.952 174.048 C 53.269 166.364, 41.789 163.938, 31.054 167.728 M 487.750 191.041 C 484.690 192.891, 485.805 195.056, 493.937 203.058 C 506.563 215.482, 514.729 231.645, 516.561 247.836 L 517.258 254 471.201 254 C 430.663 254, 424.955 254.188, 423.571 255.571 C 421.598 257.545, 421.598 258.455, 423.571 260.429 C 424.968 261.825, 432.372 262, 490 262 C 548.209 262, 555.022 261.835, 556.463 260.395 C 557.345 259.512, 557.841 258.049, 557.564 257.145 C 557.288 256.240, 556.553 252.125, 555.933 248 C 551.323 217.361, 526.607 193.892, 495.500 190.615 C 491.887 190.235, 488.804 190.404, 487.750 191.041 M 505.906 205.078 C 508.685 208.527, 512.743 214.779, 514.925 218.973 C 519.237 227.260, 524 242.250, 524 247.530 C 524 253.983, 524.034 254, 537.107 254 C 550.624 254, 549.925 254.595, 547.910 244.799 C 544.480 228.123, 531.621 211.792, 515.942 204.198 C 511.299 201.950, 506.005 199.817, 504.177 199.459 L 500.854 198.809 505.906 205.078 " stroke="none" fill="black" fill-rule="evenodd"/>
</svg>