<svg xmlns="http://www.w3.org/2000/svg" width="308" height="324" viewBox="0 0 308 324" version="1.1">
	<path d="M 258.355 126.998 C 248.059 129.139, 238.075 137.076, 233.205 146.993 C 230.873 151.740, 230.500 153.743, 230.500 161.500 C 230.500 169.257, 230.873 171.260, 233.205 176.007 C 236.096 181.894, 242.750 189.294, 247.250 191.626 C 248.762 192.410, 250 193.253, 250 193.500 C 250 193.747, 248.762 194.590, 247.250 195.374 C 242.750 197.706, 236.096 205.106, 233.205 210.993 C 230.873 215.740, 230.500 217.743, 230.500 225.500 C 230.500 233.257, 230.873 235.260, 233.205 240.007 C 238.268 250.316, 247.938 257.787, 259.279 260.151 C 266 261.552, 266.379 261.537, 273.500 259.595 C 302.203 251.767, 309.443 214.317, 285.559 197.214 L 280.338 193.475 285.544 189.783 C 304.481 176.356, 304.734 147.252, 286.033 133.525 C 278.036 127.654, 267.336 125.131, 258.355 126.998 M 253.500 136.353 C 247.873 138.979, 241.871 145.089, 239.378 150.728 C 237.161 155.744, 237.161 167.256, 239.378 172.272 C 241.871 177.911, 247.873 184.021, 253.500 186.647 C 262.618 190.902, 262 192.730, 262 161.500 C 262 130.270, 262.618 132.098, 253.500 136.353 M 269 161.500 C 269 182.839, 269.280 188.998, 270.250 188.990 C 273.566 188.964, 281.987 183.822, 285.793 179.498 C 295.196 168.816, 295.196 154.184, 285.793 143.502 C 281.987 139.178, 273.566 134.036, 270.250 134.010 C 269.280 134.002, 269 140.161, 269 161.500 M 167.750 159.082 C 166.787 159.642, 166 160.858, 166 161.786 C 166 162.714, 171.956 169.442, 179.236 176.737 L 192.472 190 132.808 190 C 79.900 190, 72.965 190.178, 71.571 191.571 C 69.598 193.545, 69.598 194.455, 71.571 196.429 C 72.965 197.822, 79.900 198, 132.808 198 L 192.472 198 179.236 211.263 C 171.956 218.558, 166 225.292, 166 226.228 C 166 227.164, 166.954 228.440, 168.120 229.064 C 170.049 230.097, 171.785 228.687, 187.471 213.349 C 197.859 203.191, 204.762 195.679, 204.851 194.432 C 204.955 192.986, 199.880 187.274, 187.968 175.432 C 178.600 166.120, 170.613 158.402, 170.218 158.282 C 169.823 158.162, 168.713 158.522, 167.750 159.082 M 253.500 200.353 C 247.873 202.979, 241.871 209.089, 239.378 214.728 C 237.161 219.744, 237.161 231.256, 239.378 236.272 C 241.871 241.911, 247.873 248.021, 253.500 250.647 C 262.618 254.902, 262 256.730, 262 225.500 C 262 194.270, 262.618 196.098, 253.500 200.353 M 269 225.500 C 269 246.839, 269.280 252.998, 270.250 252.990 C 273.566 252.964, 281.987 247.822, 285.793 243.498 C 295.196 232.816, 295.196 218.184, 285.793 207.502 C 281.987 203.178, 273.566 198.036, 270.250 198.010 C 269.280 198.002, 269 204.161, 269 225.500 M 103.616 223.527 C 102.727 224.416, 102 225.636, 102 226.239 C 102 226.841, 107.941 233.334, 115.202 240.667 L 128.405 254 68.774 254 C 15.897 254, 8.965 254.178, 7.571 255.571 C 5.598 257.545, 5.598 258.455, 7.571 260.429 C 8.965 261.822, 15.897 262, 68.774 262 L 128.405 262 115.202 275.333 C 107.941 282.666, 102 289.159, 102 289.761 C 102 291.200, 104.997 294.172, 106.068 293.795 C 107.353 293.342, 142 258.827, 142 258 C 142 257.173, 107.353 222.658, 106.068 222.205 C 105.608 222.043, 104.505 222.638, 103.616 223.527 " stroke="none" fill="black" fill-rule="evenodd"/>
</svg>