<svg xmlns="http://www.w3.org/2000/svg" width="564" height="324" viewBox="0 0 564 324" version="1.1">
	<path d="M 34.223 159.012 C 23.933 161.160, 13.981 169.443, 9.216 179.825 C 5.512 187.894, 5.512 199.106, 9.216 207.175 C 12.462 214.246, 18.459 220.848, 24.712 224.232 C 45.892 235.696, 71.341 223.376, 76.013 199.396 C 80.589 175.912, 57.969 154.054, 34.223 159.012 M 199.571 159.571 C 198.707 160.436, 198 161.636, 198 162.239 C 198 162.841, 203.941 169.334, 211.202 176.667 L 224.405 190 164.774 190 C 111.897 190, 104.965 190.178, 103.571 191.571 C 101.598 193.545, 101.598 194.455, 103.571 196.429 C 104.965 197.822, 111.897 198, 164.774 198 L 224.405 198 211.202 211.333 C 203.941 218.666, 198 225.159, 198 225.761 C 198 227.187, 200.825 230, 202.257 230 C 204.006 230, 238 195.761, 238 194 C 238 192.239, 204.006 158, 202.257 158 C 201.644 158, 200.436 158.707, 199.571 159.571 M 279.315 175.213 C 269.792 184.680, 262 193.134, 262 194 C 262 195.761, 295.994 230, 297.743 230 C 299.175 230, 302 227.187, 302 225.761 C 302 225.159, 296.059 218.666, 288.798 211.333 L 275.595 198 335.226 198 C 388.103 198, 395.035 197.822, 396.429 196.429 C 398.402 194.455, 398.402 193.545, 396.429 191.571 C 395.035 190.178, 388.103 190, 335.226 190 L 275.595 190 288.798 176.667 C 296.059 169.334, 302 162.841, 302 162.239 C 302 160.813, 299.175 158, 297.743 158 C 297.131 158, 288.838 165.746, 279.315 175.213 M 31.054 167.728 C 25.018 169.859, 17.781 177.260, 15.667 183.463 C 11.964 194.333, 14.320 205.225, 22.048 212.952 C 27.548 218.453, 33.705 221, 41.500 221 C 49.295 221, 55.452 218.453, 60.952 212.952 C 71.862 202.043, 71.862 184.957, 60.952 174.048 C 53.269 166.364, 41.789 163.938, 31.054 167.728 M 477.500 191.401 C 462.645 194.266, 451.144 200.774, 440.168 212.528 C 429.839 223.588, 424.206 236.225, 422.499 252.168 C 421.348 262.913, 415.082 262, 490 262 C 548.599 262, 555.014 261.843, 556.486 260.371 C 557.382 259.475, 557.849 258.049, 557.524 257.202 C 557.199 256.354, 556.460 252.250, 555.883 248.081 C 553.738 232.586, 546.829 219.707, 534.472 208.168 C 519.247 193.949, 497.491 187.546, 477.500 191.401 M 475.217 199.449 C 458.756 203.435, 443.478 215.839, 436.165 231.154 C 432.488 238.855, 430 247.288, 430 252.049 C 430 253.962, 431.167 254, 489.500 254 L 549 254 549 251.710 C 549 250.451, 548.318 246.738, 547.485 243.460 C 543.100 226.208, 531.303 211.508, 516 204.225 C 511.325 202, 505.115 199.690, 502.201 199.090 C 495.260 197.662, 481.861 197.841, 475.217 199.449 " stroke="none" fill="black" fill-rule="evenodd"/>
</svg>