<svg xmlns="http://www.w3.org/2000/svg" width="564" height="324" viewBox="0 0 564 324" version="1.1">
	<path d="M 34.223 159.012 C 23.933 161.160, 13.981 169.443, 9.216 179.825 C 5.512 187.894, 5.512 199.106, 9.216 207.175 C 12.462 214.246, 18.459 220.848, 24.712 224.232 C 45.892 235.696, 71.341 223.376, 76.013 199.396 C 80.589 175.912, 57.969 154.054, 34.223 159.012 M 119.315 175.213 C 109.792 184.680, 102 193.134, 102 194 C 102 195.761, 135.994 230, 137.743 230 C 139.175 230, 142 227.187, 142 225.761 C 142 225.159, 136.059 218.666, 128.798 211.333 L 115.595 198 175.226 198 C 228.103 198, 235.035 197.822, 236.429 196.429 C 238.402 194.455, 238.402 193.545, 236.429 191.571 C 235.035 190.178, 228.103 190, 175.226 190 L 115.595 190 128.798 176.667 C 136.059 169.334, 142 162.841, 142 162.239 C 142 160.813, 139.175 158, 137.743 158 C 137.131 158, 128.838 165.746, 119.315 175.213 M 359.571 159.571 C 358.707 160.436, 358 161.636, 358 162.239 C 358 162.841, 363.941 169.334, 371.202 176.667 L 384.405 190 324.774 190 C 271.897 190, 264.965 190.178, 263.571 191.571 C 261.598 193.545, 261.598 194.455, 263.571 196.429 C 264.965 197.822, 271.897 198, 324.774 198 L 384.405 198 371.202 211.333 C 363.941 218.666, 358 225.159, 358 225.761 C 358 227.187, 360.825 230, 362.257 230 C 364.006 230, 398 195.761, 398 194 C 398 192.239, 364.006 158, 362.257 158 C 361.644 158, 360.436 158.707, 359.571 159.571 M 31.054 167.728 C 25.018 169.859, 17.781 177.260, 15.667 183.463 C 11.964 194.333, 14.320 205.225, 22.048 212.952 C 27.548 218.453, 33.705 221, 41.500 221 C 49.295 221, 55.452 218.453, 60.952 212.952 C 71.862 202.043, 71.862 184.957, 60.952 174.048 C 53.269 166.364, 41.789 163.938, 31.054 167.728 M 477.500 191.401 C 462.645 194.266, 451.144 200.774, 440.168 212.528 C 429.839 223.588, 424.206 236.225, 422.499 252.168 C 421.348 262.913, 415.082 262, 490 262 C 548.599 262, 555.014 261.843, 556.486 260.371 C 557.382 259.475, 557.849 258.049, 557.524 257.202 C 557.199 256.354, 556.460 252.250, 555.883 248.081 C 553.738 232.586, 546.829 219.707, 534.472 208.168 C 519.247 193.949, 497.491 187.546, 477.500 191.401 M 475.217 199.449 C 458.756 203.435, 443.478 215.839, 436.165 231.154 C 432.488 238.855, 430 247.288, 430 252.049 C 430 253.962, 431.167 254, 489.500 254 L 549 254 549 251.710 C 549 250.451, 548.318 246.738, 547.485 243.460 C 543.100 226.208, 531.303 211.508, 516 204.225 C 511.325 202, 505.115 199.690, 502.201 199.090 C 495.260 197.662, 481.861 197.841, 475.217 199.449 " stroke="none" fill="black" fill-rule="evenodd"/>
</svg>