<svg xmlns="http://www.w3.org/2000/svg" width="340" height="324" viewBox="0 0 340 324" version="1.1">
	<path d="M 39.571 63.571 C 38.707 64.436, 38 65.529, 38 66 C 38 67.111, 40.889 70, 42 70 C 43.111 70, 46 67.111, 46 66 C 46 64.889, 43.111 62, 42 62 C 41.529 62, 40.436 62.707, 39.571 63.571 M 55.571 63.571 C 54.707 64.436, 54 65.317, 54 65.531 C 54 66.993, 71.421 100.653, 72.488 101.252 C 73.225 101.665, 74.440 101.768, 75.187 101.482 C 77.102 100.747, 94.082 66.377, 93.403 64.609 C 92.732 62.858, 90.483 61.877, 88.705 62.560 C 87.993 62.833, 84.520 68.894, 80.986 76.028 C 77.453 83.163, 74.308 89, 73.997 89 C 73.687 89, 70.748 83.534, 67.467 76.853 C 59.925 61.499, 58.847 60.296, 55.571 63.571 M 183.200 63.200 C 181.512 64.888, 181.512 99.112, 183.200 100.800 C 184.040 101.640, 189.562 102, 201.629 102 C 215.958 102, 219.122 101.736, 220.429 100.429 C 222.757 98.100, 222.757 65.900, 220.429 63.571 C 219.122 62.264, 215.958 62, 201.629 62 C 189.562 62, 184.040 62.360, 183.200 63.200 M 190 82 L 190 94 202 94 L 214 94 214 82 L 214 70 202 70 L 190 70 190 82 M 194.355 158.986 C 183.790 161.214, 174.114 169.146, 169.329 179.500 C 165.350 188.111, 165.383 198.888, 169.417 207.734 C 174.118 218.045, 183.917 225.783, 195.267 228.149 C 202.016 229.555, 202.391 229.540, 209.500 227.564 C 217.333 225.386, 222.991 221.997, 227.411 216.833 C 240.138 201.964, 238.962 180.243, 224.738 167.454 C 216.910 160.416, 204.273 156.894, 194.355 158.986 M 191.385 167.617 C 189.122 168.420, 185.450 170.635, 183.224 172.541 C 170.777 183.195, 170.768 203.798, 183.205 214.443 C 186.623 217.370, 194.361 221, 197.178 221 C 197.630 221, 198 208.625, 198 193.500 C 198 172.125, 197.722 166.018, 196.750 166.079 C 196.063 166.122, 193.648 166.815, 191.385 167.617 M 206 193.500 L 206 221.135 208.250 220.467 C 209.488 220.100, 212.750 218.569, 215.500 217.066 C 228.082 210.186, 232.584 193.201, 225.351 179.899 C 221.793 173.354, 216.305 169.075, 208.250 166.566 L 206 165.865 206 193.500 M 39.267 223.267 C 20.970 241.563, 6 257.056, 6 257.695 C 6 259.187, 8.799 262, 10.285 262 C 10.913 262, 25.509 247.944, 42.721 230.764 L 74.015 199.527 105.264 230.764 C 122.450 247.944, 137.039 262, 137.684 262 C 138.329 262, 139.564 261.293, 140.429 260.429 C 141.793 259.064, 142 254.537, 142 226 C 142 197.463, 141.793 192.936, 140.429 191.571 C 138.455 189.598, 137.545 189.598, 135.571 191.571 C 134.219 192.924, 134 196.990, 134 220.799 L 134 248.455 104.711 219.227 C 88.602 203.152, 74.772 190, 73.978 190 C 73.183 190, 57.563 204.970, 39.267 223.267 M 263.750 191.073 C 261.423 192.438, 261.524 195.675, 263.934 196.965 C 265.005 197.538, 272.151 198, 279.934 198 L 294 198 294 226 L 294 254 279.934 254 C 265.308 254, 262 254.738, 262 258 C 262 261.750, 264.791 262.037, 298.601 261.764 C 328.469 261.523, 331.378 261.349, 332.386 259.750 C 333.190 258.475, 333.191 257.525, 332.387 256.250 C 331.430 254.730, 329.291 254.464, 316.142 254.224 L 301 253.948 301 226 L 301 198.052 316.142 197.776 C 329.291 197.536, 331.430 197.270, 332.387 195.750 C 333.191 194.475, 333.190 193.525, 332.386 192.250 C 331.377 190.649, 328.483 190.481, 298.391 190.273 C 277.280 190.127, 264.873 190.414, 263.750 191.073 " stroke="none" fill="black" fill-rule="evenodd"/>
</svg>