<svg xmlns="http://www.w3.org/2000/svg" width="308" height="324" viewBox="0 0 308 324" version="1.1">
	<path d="M 71.571 127.571 C 70.288 128.855, 70 131.788, 70 143.571 L 70 158 55.200 158 C 45.022 158, 40.025 158.375, 39.200 159.200 C 38.324 160.076, 38 167.956, 38 188.402 L 38 216.405 24.667 203.202 C 17.334 195.941, 10.841 190, 10.239 190 C 8.799 190, 6 192.831, 6 194.287 C 6 195.818, 72.128 262, 73.659 262 C 74.318 262, 75.564 261.293, 76.429 260.429 C 77.712 259.145, 78 256.212, 78 244.429 L 78 230 92.429 230 C 104.212 230, 107.145 229.712, 108.429 228.429 C 109.793 227.064, 110 222.537, 110 194 C 110 165.463, 109.793 160.936, 108.429 159.571 C 107.145 158.288, 104.212 158, 92.429 158 L 78 158 78 143.571 C 78 131.788, 77.712 128.855, 76.429 127.571 C 75.564 126.707, 74.471 126, 74 126 C 73.529 126, 72.436 126.707, 71.571 127.571 M 161.746 159.027 C 154.959 160.732, 148.397 164.785, 143.181 170.492 C 131.066 183.748, 131.103 203.292, 143.268 216.603 C 152.535 226.743, 164.773 230.711, 177.066 227.562 C 188.088 224.738, 195.359 218.933, 200.805 208.607 C 203.210 204.048, 203.498 202.428, 203.498 193.500 C 203.498 184.447, 203.228 182.979, 200.639 178 C 196.795 170.608, 189.250 163.611, 182.329 161.022 C 175.761 158.564, 166.976 157.713, 161.746 159.027 M 46 194 L 46 222 58 222 L 70 222 70 194 L 70 166 58 166 L 46 166 46 194 M 78 194 L 78 222 90 222 L 102 222 102 194 L 102 166 90 166 L 78 166 78 194 M 159.748 167.427 C 141.840 173.818, 135.939 196.971, 148.447 211.770 C 155.841 220.517, 169.704 223.584, 180.139 218.781 C 190.926 213.816, 196.446 205.258, 196.446 193.500 C 196.446 181.901, 190.959 173.250, 180.500 168.358 C 174.739 165.664, 165.811 165.263, 159.748 167.427 M 167.750 191.080 C 165.372 192.465, 165.542 195.685, 168.064 197.034 C 171.753 199.008, 174.819 194.219, 171.800 191.200 C 170.367 189.767, 170.022 189.757, 167.750 191.080 M 231.750 191.073 C 229.423 192.438, 229.524 195.675, 231.934 196.965 C 233.005 197.538, 240.151 198, 247.934 198 L 262 198 262 226 L 262 254 247.934 254 C 233.308 254, 230 254.738, 230 258 C 230 261.750, 232.791 262.037, 266.601 261.764 C 296.469 261.523, 299.378 261.349, 300.386 259.750 C 301.190 258.475, 301.191 257.525, 300.387 256.250 C 299.430 254.730, 297.291 254.464, 284.142 254.224 L 269 253.948 269 226 L 269 198.052 284.142 197.776 C 297.291 197.536, 299.430 197.270, 300.387 195.750 C 301.191 194.475, 301.190 193.525, 300.386 192.250 C 299.377 190.649, 296.483 190.481, 266.391 190.273 C 245.280 190.127, 232.873 190.414, 231.750 191.073 M 60.500 239 C 65.427 243.950, 69.580 248, 69.729 248 C 69.878 248, 70 243.950, 70 239 L 70 230 60.771 230 L 51.542 230 60.500 239 " stroke="none" fill="black" fill-rule="evenodd"/>
</svg>