<svg xmlns="http://www.w3.org/2000/svg" width="452" height="324" viewBox="0 0 452 324" version="1.1">
	<path d="M 263.315 111.213 C 253.792 120.680, 246 129.134, 246 130 C 246 131.680, 279.953 166, 281.615 166 C 283.105 166, 285 163.795, 285 162.062 C 285 161.216, 278.143 153.656, 269.762 145.262 L 254.524 130 269.762 114.738 C 278.143 106.344, 285 98.784, 285 97.938 C 285 96.205, 283.105 94, 281.615 94 C 281.073 94, 272.838 101.746, 263.315 111.213 M 35.045 127.064 C 24.674 129.164, 14.828 136.537, 10.151 145.705 C 7.578 150.747, 5.616 161.395, 6.828 163.738 C 7.329 164.707, 8.527 169.100, 9.490 173.500 C 13.207 190.489, 20.537 207.349, 29.985 220.646 L 34.855 227.500 20.427 242.075 C 12.492 250.091, 6 257.147, 6 257.754 C 6 258.361, 6.710 259.568, 7.579 260.436 C 8.990 261.847, 16.058 261.987, 74.220 261.757 C 134.934 261.517, 139.356 261.383, 140.386 259.750 C 141.191 258.474, 141.191 257.526, 140.387 256.250 C 139.394 254.675, 136.579 254.450, 112.169 254 L 85.054 253.500 92.134 248 C 115.390 229.933, 132.622 201.584, 138.872 171.112 C 141.331 159.122, 140.109 150.175, 135.039 143.054 L 133.127 140.370 137.021 135.935 C 141.117 131.270, 141.781 129.181, 139.800 127.200 C 137.995 125.395, 137.330 125.654, 132.617 129.999 L 128.278 133.998 122.389 130.994 C 105.195 122.222, 85.910 127.073, 76.005 142.662 L 73.360 146.824 71.471 143.317 C 65.358 131.965, 48.340 124.371, 35.045 127.064 M 231.750 127.080 C 230.114 128.033, 230 132.045, 230 188.793 L 230 249.487 200.244 219.744 C 183.878 203.385, 170.185 190, 169.815 190 C 168.716 190, 166 193.051, 166 194.287 C 166 195.713, 232.079 262.006, 233.480 261.985 C 237.054 261.931, 237.056 261.895, 237.014 194.510 C 236.970 123.497, 237.011 124.016, 231.750 127.080 M 31.054 135.728 C 24.787 137.940, 17.726 145.297, 15.534 151.899 C 13.881 156.875, 13.875 157.704, 15.430 166.205 C 17.590 178.012, 22.030 191.666, 26.744 201 C 30.512 208.463, 39.042 221.963, 40.005 221.987 C 40.282 221.994, 58.957 203.535, 81.505 180.966 L 122.500 139.932 120.058 138.067 C 114.593 133.893, 103.916 132.787, 95.795 135.554 C 86.288 138.793, 78 149.539, 78 158.625 C 78 162.910, 76.115 166, 73.500 166 C 71.012 166, 69 162.910, 69 159.088 C 69 154.001, 63.752 143.766, 59.235 140.042 C 52.129 134.185, 40.476 132.401, 31.054 135.728 M 86.161 187.339 L 44.831 228.678 52.666 235.900 C 56.975 239.873, 63.499 245.174, 67.165 247.680 L 73.830 252.237 81.502 246.934 C 96.900 236.289, 111.319 219.707, 120.213 202.415 C 128.214 186.858, 133.879 166.431, 132.660 157.534 C 132.076 153.277, 129.174 146, 128.060 146 C 127.747 146, 108.893 164.602, 86.161 187.339 M 407.750 159.080 C 406.788 159.641, 406 160.858, 406 161.786 C 406 162.714, 411.956 169.442, 419.236 176.737 L 432.472 190 373.170 190 C 334.204 190, 313.205 190.355, 311.934 191.035 C 310.870 191.605, 310 192.939, 310 194 C 310 195.061, 310.870 196.395, 311.934 196.965 C 313.205 197.645, 334.204 198, 373.170 198 L 432.472 198 419.236 211.263 C 411.956 218.558, 406 225.292, 406 226.228 C 406 227.164, 406.960 228.443, 408.133 229.071 C 410.084 230.115, 411.752 228.729, 427.633 212.867 C 437.185 203.327, 445 194.837, 445 194 C 445 192.655, 411.224 157.954, 409.990 158.030 C 409.720 158.047, 408.712 158.519, 407.750 159.080 M 327.315 239.213 C 317.792 248.680, 310 257.134, 310 258 C 310 259.680, 343.953 294, 345.615 294 C 347.104 294, 349 291.796, 349 290.063 C 349 289.218, 343.044 282.558, 335.764 275.263 L 322.528 262 381.830 262 C 420.796 262, 441.795 261.645, 443.066 260.965 C 444.130 260.395, 445 259.061, 445 258 C 445 256.939, 444.130 255.605, 443.066 255.035 C 441.795 254.355, 420.796 254, 381.830 254 L 322.528 254 335.764 240.737 C 343.044 233.442, 349 226.782, 349 225.937 C 349 224.204, 347.104 222, 345.615 222 C 345.073 222, 336.838 229.746, 327.315 239.213 M 29.500 244 L 19.538 254 41.418 254 L 63.298 254 56.899 249.104 C 53.380 246.412, 48.267 241.912, 45.538 239.104 C 42.808 236.297, 40.325 234, 40.019 234 C 39.713 234, 34.979 238.500, 29.500 244 " stroke="none" fill="black" fill-rule="evenodd"/>
</svg>