<svg xmlns="http://www.w3.org/2000/svg" width="308" height="324" viewBox="0 0 308 324" version="1.1">
	<path d="M 63.102 127.104 C 48.516 129.321, 35.328 136.577, 24.168 148.528 C 13.801 159.628, 8.225 172.265, 6.488 188.598 C 5.962 193.536, 6.153 195.010, 7.491 196.348 C 9.547 198.404, 10.439 198.418, 12.429 196.429 C 13.404 195.453, 14.006 193.082, 14.015 190.179 C 14.077 170.546, 28.030 149.400, 47 140.191 C 51.675 137.922, 57.300 135.771, 59.500 135.411 L 63.500 134.757 50.750 147.714 C 43.737 154.841, 38 161.164, 38 161.765 C 38 163.179, 40.823 166, 42.239 166 C 42.841 166, 49.334 160.059, 56.667 152.798 L 70 139.595 70 199.226 C 70 252.103, 70.178 259.035, 71.571 260.429 C 73.678 262.535, 74.598 262.412, 76.443 259.777 C 77.810 257.827, 78 250.338, 78 198.575 L 78 139.595 91.333 152.798 C 98.666 160.059, 105.101 166, 105.633 166 C 107.220 166, 109 163.732, 109 161.710 C 109 160.642, 103.669 154.358, 96.750 147.269 C 83.656 133.852, 83.628 133.644, 95.526 138.096 C 107.579 142.605, 118.826 152.500, 125.533 164.493 C 129.501 171.589, 133 184.067, 133 191.125 C 133 194.956, 133.418 196.154, 135.064 197.034 C 142.986 201.274, 141.161 178.669, 132.196 161.516 C 126.915 151.410, 114.917 139.609, 104.500 134.271 C 91.374 127.546, 76.799 125.023, 63.102 127.104 M 263.750 159.080 C 262.788 159.641, 262 160.858, 262 161.786 C 262 162.714, 267.956 169.442, 275.236 176.737 L 288.472 190 229.170 190 C 190.204 190, 169.205 190.355, 167.934 191.035 C 165.446 192.367, 165.446 195.633, 167.934 196.965 C 169.205 197.645, 190.204 198, 229.170 198 L 288.472 198 275.236 211.263 C 267.956 218.558, 262 225.292, 262 226.228 C 262 227.164, 262.960 228.443, 264.133 229.071 C 266.084 230.115, 267.752 228.729, 283.633 212.867 C 293.185 203.327, 301 194.837, 301 194 C 301 192.655, 267.224 157.954, 265.990 158.030 C 265.720 158.047, 264.712 158.519, 263.750 159.080 " stroke="none" fill="black" fill-rule="evenodd"/>
</svg>