<svg xmlns="http://www.w3.org/2000/svg" width="372" height="324" viewBox="0 0 372 324" version="1.1">
	<path d="M 71.571 127.571 C 70.288 128.855, 70 131.788, 70 143.571 L 70 158 55.571 158 C 43.788 158, 40.855 158.288, 39.571 159.571 C 38.219 160.924, 38 164.988, 38 188.774 L 38 216.405 24.667 203.202 C 17.334 195.941, 10.841 190, 10.239 190 C 8.791 190, 6 192.834, 6 194.305 C 6 195.823, 72.177 262, 73.695 262 C 74.334 262, 75.564 261.293, 76.429 260.429 C 77.712 259.145, 78 256.212, 78 244.429 L 78 230 92.429 230 C 104.212 230, 107.145 229.712, 108.429 228.429 C 109.793 227.064, 110 222.537, 110 194 C 110 165.463, 109.793 160.936, 108.429 159.571 C 107.145 158.288, 104.212 158, 92.429 158 L 78 158 78 143.571 C 78 131.788, 77.712 128.855, 76.429 127.571 C 75.564 126.707, 74.471 126, 74 126 C 73.529 126, 72.436 126.707, 71.571 127.571 M 287.102 127.108 C 261.633 130.963, 239.059 151.541, 232.374 177 C 231.312 181.044, 230.667 187.278, 230.667 193.500 C 230.667 205.308, 232.531 213.335, 237.751 224 C 242.940 234.601, 256.471 248.107, 267 253.193 C 277.909 258.463, 285.807 260.304, 297.500 260.304 C 316.834 260.304, 330.527 254.551, 344.539 240.539 C 358.551 226.527, 364.304 212.834, 364.304 193.500 C 364.304 174.166, 358.551 160.473, 344.539 146.461 C 334.823 136.745, 326.203 131.569, 314.831 128.621 C 307.080 126.612, 294.806 125.942, 287.102 127.108 M 282.645 135.584 C 262.671 140.419, 244.279 158.986, 239.537 179.103 C 234.672 199.742, 240.569 220.600, 255.484 235.516 C 270.400 250.431, 291.258 256.328, 311.897 251.463 C 332.261 246.662, 350.662 228.261, 355.463 207.897 C 357.390 199.718, 357.390 187.282, 355.463 179.103 C 350.662 158.739, 332.261 140.338, 311.897 135.537 C 303.998 133.676, 290.439 133.697, 282.645 135.584 M 161.384 159.412 C 143.475 163.758, 131.559 181.807, 134.987 199.396 C 136.500 207.161, 140.212 214.019, 145.580 218.967 C 166.277 238.045, 198.591 227.221, 204.013 199.396 C 207.488 181.565, 195.484 163.676, 177.147 159.360 C 170.397 157.772, 168.111 157.779, 161.384 159.412 M 289.384 159.412 C 271.480 163.757, 259.543 181.833, 262.993 199.372 C 265.077 209.960, 270.986 218.563, 279.673 223.654 C 284.824 226.673, 297.869 230.124, 300 229.032 C 300.825 228.609, 303.279 227.941, 305.453 227.548 C 314.124 225.980, 323.643 218.768, 328.232 210.288 C 339.343 189.761, 328.001 164.740, 305.147 159.360 C 298.397 157.772, 296.111 157.779, 289.384 159.412 M 46 194 L 46 222 58 222 L 70 222 70 194 L 70 166 58 166 L 46 166 46 194 M 78 194 L 78 222 90 222 L 102 222 102 194 L 102 166 90 166 L 78 166 78 194 M 159.054 167.728 C 153.018 169.859, 145.781 177.260, 143.667 183.463 C 139.995 194.241, 142.382 205.477, 149.952 213.048 C 160.673 223.769, 178.327 223.769, 189.048 213.048 C 199.769 202.327, 199.769 184.673, 189.048 173.952 C 181.519 166.424, 169.696 163.970, 159.054 167.728 M 287.054 167.728 C 281.018 169.859, 273.781 177.260, 271.667 183.463 C 266.058 199.925, 274.847 216.571, 291.250 220.550 L 294 221.217 294 193.608 C 294 172.146, 293.722 166.018, 292.750 166.079 C 292.063 166.122, 289.499 166.864, 287.054 167.728 M 302 193.500 L 302 221.135 304.250 220.475 C 317.167 216.686, 325 206.503, 325 193.500 C 325 180.497, 317.167 170.314, 304.250 166.525 L 302 165.865 302 193.500 M 167.571 191.571 C 166.707 192.436, 166 193.529, 166 194 C 166 194.471, 166.707 195.564, 167.571 196.429 C 168.436 197.293, 169.529 198, 170 198 C 170.471 198, 171.564 197.293, 172.429 196.429 C 173.293 195.564, 174 194.471, 174 194 C 174 193.529, 173.293 192.436, 172.429 191.571 C 171.564 190.707, 170.471 190, 170 190 C 169.529 190, 168.436 190.707, 167.571 191.571 M 60.500 239 C 65.427 243.950, 69.580 248, 69.729 248 C 69.878 248, 70 243.950, 70 239 L 70 230 60.771 230 L 51.542 230 60.500 239 " stroke="none" fill="black" fill-rule="evenodd"/>
</svg>