<svg xmlns="http://www.w3.org/2000/svg" width="403" height="324" viewBox="0 0 403 324" version="1.1">
	<path d="M 151.213 143.315 C 141.746 152.838, 134 161.131, 134 161.743 C 134 162.951, 136.728 166, 137.808 166 C 138.175 166, 144.667 159.819, 152.237 152.263 L 166 138.527 166 194 L 166 249.473 152.237 235.737 C 144.667 228.181, 138.175 222, 137.808 222 C 136.738 222, 134 225.043, 134 226.232 C 134 226.831, 139.512 232.922, 146.250 239.767 C 157.832 251.534, 158.309 252.176, 155 251.536 C 153.075 251.164, 147.699 249.069, 143.054 246.881 C 124.759 238.266, 110 216.668, 110 198.512 C 110 194.610, 107.842 190, 106.015 190 C 105.535 190, 104.391 190.751, 103.473 191.670 C 102.091 193.052, 101.924 194.470, 102.506 199.903 C 104.463 218.175, 113.376 234.341, 127.933 246.025 C 137.310 253.550, 152.638 260, 161.145 260 C 162.644 260, 165.067 260.455, 166.530 261.012 C 168.232 261.659, 170.508 261.690, 172.845 261.099 C 174.855 260.591, 179.425 259.659, 183 259.028 C 186.671 258.380, 193.606 255.900, 198.933 253.329 C 216.117 245.037, 229.283 228.942, 234.014 210.444 C 237.499 196.819, 236.262 188.184, 231.213 190.886 C 229.711 191.690, 229.172 193.412, 228.714 198.866 C 227.187 217.082, 215.597 235.690, 200.120 244.772 C 195.689 247.373, 183.908 252, 181.720 252 C 181.065 252, 186.036 246.481, 192.765 239.736 C 199.494 232.990, 205 226.780, 205 225.936 C 205 224.212, 203.106 222, 201.630 222 C 201.097 222, 194.437 228.167, 186.830 235.704 L 173 249.408 173 194 L 173 138.592 186.830 152.296 C 194.437 159.833, 201.132 166, 201.708 166 C 203.297 166, 205.208 163.291, 204.833 161.570 C 204.413 159.644, 171.020 126, 169.528 126 C 168.921 126, 160.680 133.792, 151.213 143.315 M 263.750 127.080 C 260.608 128.910, 261.873 131.333, 270.493 139.993 L 278.986 148.526 275.377 153.513 C 267.555 164.320, 262 180.109, 262 191.530 C 262 194.952, 262.459 196.175, 264.064 197.034 C 267.229 198.728, 268.654 196.792, 269.436 189.733 C 270.821 177.240, 274.691 166.633, 280.970 158.120 L 284.200 153.741 292.998 162.498 L 301.795 171.254 298.942 175.752 C 293.281 184.679, 292.650 198.656, 297.463 208.507 C 300.882 215.504, 307.375 221.752, 314.942 225.326 C 320.419 227.912, 322.517 228.359, 328.942 228.302 C 336.932 228.233, 343.086 226.499, 348.154 222.890 L 351.176 220.738 371.984 241.460 C 390.931 260.330, 392.980 262.081, 394.896 261.056 C 396.053 260.436, 397 259.162, 397 258.224 C 397 257.286, 387.945 247.455, 376.879 236.378 L 356.757 216.239 360.011 209.628 C 369.608 190.136, 360.540 167.225, 340.500 160.329 C 337.508 159.300, 332.591 158.622, 328.258 158.643 C 321.976 158.673, 320.054 159.157, 313.758 162.300 L 306.500 165.922 298 157.399 L 289.500 148.875 292.866 146.017 C 297.482 142.100, 307.351 137.381, 315.060 135.406 C 323.865 133.150, 340.045 133.924, 348.858 137.022 C 357.597 140.094, 369.093 148.027, 374.660 154.828 C 382.771 164.737, 388.929 180.812, 388.983 192.215 C 389.003 196.661, 391.614 198.734, 394.518 196.611 C 398.648 193.591, 393.799 171.015, 386.406 158.845 C 372.966 136.721, 346.718 123.727, 321.891 126.908 C 308.724 128.595, 298.802 132.451, 289.642 139.443 C 287.079 141.400, 284.639 143, 284.219 143 C 283.799 143, 279.651 139.175, 275 134.500 C 270.349 129.825, 266.309 126.014, 266.022 126.030 C 265.735 126.047, 264.712 126.519, 263.750 127.080 M 7.571 159.571 C 6.207 160.936, 6 165.463, 6 194 C 6 222.537, 6.207 227.064, 7.571 228.429 C 8.936 229.793, 13.463 230, 42 230 C 70.537 230, 75.064 229.793, 76.429 228.429 C 77.793 227.064, 78 222.537, 78 194 C 78 165.463, 77.793 160.936, 76.429 159.571 C 75.064 158.207, 70.537 158, 42 158 C 13.463 158, 8.936 158.207, 7.571 159.571 M 14 194 L 14 222 42 222 L 70 222 70 194 L 70 166 42 166 L 14 166 14 194 M 317.054 168.554 L 311.609 171.089 331.045 190.545 C 341.735 201.245, 350.848 210, 351.297 210 C 352.674 210, 356.062 201.273, 356.667 196.166 C 357.975 185.122, 351.115 173.324, 340.500 168.358 C 333.449 165.060, 324.398 165.136, 317.054 168.554 M 303.933 181.750 C 301.095 187.643, 300.827 198.502, 303.378 204.272 C 309.710 218.598, 326.782 225.039, 340.946 218.446 L 346.391 215.911 326.955 196.455 C 316.265 185.755, 307.227 177, 306.870 177 C 306.513 177, 305.191 179.137, 303.933 181.750 M 39.571 191.571 C 38.707 192.436, 38 193.529, 38 194 C 38 195.111, 40.889 198, 42 198 C 43.111 198, 46 195.111, 46 194 C 46 192.889, 43.111 190, 42 190 C 41.529 190, 40.436 190.707, 39.571 191.571 M 7.571 255.571 C 6.707 256.436, 6 257.529, 6 258 C 6 258.471, 6.707 259.564, 7.571 260.429 C 8.936 261.793, 13.456 262, 41.916 262 C 73.420 262, 74.760 261.922, 76.500 260 C 78.247 258.070, 78.247 257.930, 76.500 256 C 74.760 254.078, 73.420 254, 41.916 254 C 13.456 254, 8.936 254.207, 7.571 255.571 " stroke="none" fill="black" fill-rule="evenodd"/>
</svg>