<svg xmlns="http://www.w3.org/2000/svg" width="340" height="324" viewBox="0 0 340 324" version="1.1">
	<path d="M 33.384 127.357 C 7.081 134.021, -2.325 165.504, 16.036 185.423 C 18.177 187.746, 21.481 190.482, 23.377 191.503 L 26.824 193.360 22.662 196.005 C 14.442 201.228, 9.123 209.179, 7.014 219.396 C 4.201 233.027, 11.253 248.375, 23.673 255.654 C 27.992 258.185, 41.830 262.214, 43.238 261.350 C 43.644 261.101, 46.569 260.222, 49.738 259.396 C 57.353 257.414, 62.907 254.048, 67.868 248.413 C 81.695 232.704, 78.053 207.234, 60.376 196.024 L 56.176 193.360 59.683 191.471 C 64.938 188.641, 71.616 180.627, 74.072 174.202 C 77.061 166.384, 77.019 156.509, 73.963 148.507 C 68.039 132.996, 49.424 123.293, 33.384 127.357 M 255.536 127.055 C 238.549 129.693, 223.930 138.283, 212.779 152.178 C 202.828 164.577, 198.553 176.995, 198.553 193.500 C 198.553 210.065, 202.823 222.417, 212.882 234.950 C 226.273 251.636, 244.344 260.349, 265.500 260.319 C 284.240 260.292, 299.028 254.065, 312.500 240.527 C 325.921 227.041, 332.250 211.763, 332.187 193 C 332.127 174.953, 325.357 159.110, 312.095 145.981 C 297.016 131.053, 275.708 123.923, 255.536 127.055 M 31.054 135.728 C 25.018 137.859, 17.781 145.260, 15.667 151.463 C 10.058 167.925, 18.847 184.571, 35.250 188.550 L 38 189.217 38 161.608 C 38 140.146, 37.722 134.018, 36.750 134.079 C 36.063 134.122, 33.499 134.864, 31.054 135.728 M 46 161.500 L 46 189.135 48.250 188.475 C 61.023 184.728, 69 174.358, 69 161.500 C 69 148.642, 61.023 138.272, 48.250 134.525 L 46 133.865 46 161.500 M 249.345 135.904 C 238.677 138.957, 232.033 142.962, 223.479 151.497 C 211.121 163.828, 206 176.133, 206 193.500 C 206 210.512, 211.128 223.074, 222.993 235.125 C 234.822 247.141, 248.541 253, 264.845 253 C 275.674 253, 281.916 251.576, 291.820 246.847 C 307.079 239.562, 318.717 225.246, 323.003 208.489 C 324.101 204.194, 325 200.077, 325 199.340 C 325 198.249, 319.359 198, 294.700 198 C 272.467 198, 264.081 197.681, 263.200 196.800 C 262.319 195.919, 262 187.422, 262 164.800 L 262 134 258.750 134.071 C 256.962 134.110, 252.730 134.935, 249.345 135.904 M 269 162 L 269 190 297 190 C 329.229 190, 326.275 191.305, 323.003 178.511 C 318.717 161.754, 307.079 147.438, 291.820 140.153 C 284.142 136.487, 275.707 134, 270.951 134 C 269.063 134, 269 134.902, 269 162 M 103.571 191.571 C 102.707 192.436, 102 193.640, 102 194.249 C 102 194.857, 108.844 202.250, 117.208 210.677 L 132.416 226 117.208 241.323 C 108.844 249.750, 102 257.143, 102 257.751 C 102 259.181, 104.819 262, 106.249 262 C 106.857 262, 114.250 255.156, 122.677 246.792 L 138 231.584 153.323 246.792 C 161.750 255.156, 169.085 262, 169.623 262 C 171.244 262, 173 259.725, 173 257.625 C 173 256.420, 167.267 249.871, 158.293 240.825 L 143.586 226 158.293 211.175 C 167.267 202.129, 173 195.580, 173 194.375 C 173 192.275, 171.244 190, 169.623 190 C 169.085 190, 161.750 196.844, 153.323 205.208 L 138 220.416 122.677 205.208 C 114.250 196.844, 106.857 190, 106.249 190 C 105.640 190, 104.436 190.707, 103.571 191.571 M 31.054 199.728 C 25.018 201.859, 17.781 209.260, 15.667 215.463 C 10.058 231.925, 18.847 248.571, 35.250 252.550 L 38 253.217 38 225.608 C 38 204.146, 37.722 198.018, 36.750 198.079 C 36.063 198.122, 33.499 198.864, 31.054 199.728 M 46 225.500 L 46 253.135 48.250 252.475 C 61.023 248.728, 69 238.358, 69 225.500 C 69 212.642, 61.023 202.272, 48.250 198.525 L 46 197.865 46 225.500 " stroke="none" fill="black" fill-rule="evenodd"/>
</svg>