<svg xmlns="http://www.w3.org/2000/svg" width="84" height="324" viewBox="0 0 84 324" version="1.1">
	<path d="M 23.571 63.571 C 21.243 65.900, 21.243 98.100, 23.571 100.429 C 25.900 102.757, 58.100 102.757, 60.429 100.429 C 62.757 98.100, 62.757 65.900, 60.429 63.571 C 58.100 61.243, 25.900 61.243, 23.571 63.571 M 30 82 L 30 94 42 94 L 54 94 54 82 L 54 70 42 70 L 30 70 30 82 M 33.384 159.412 C 15.480 163.757, 3.543 181.833, 6.993 199.372 C 9.077 209.960, 14.986 218.563, 23.673 223.654 C 28.824 226.673, 41.869 230.124, 44 229.032 C 44.825 228.609, 47.279 227.941, 49.453 227.548 C 58.124 225.980, 67.643 218.768, 72.232 210.288 C 83.343 189.761, 72.001 164.740, 49.147 159.360 C 42.397 157.772, 40.111 157.779, 33.384 159.412 M 31.054 167.728 C 25.018 169.859, 17.781 177.260, 15.667 183.463 C 10.058 199.925, 18.847 216.571, 35.250 220.550 L 38 221.217 38 193.608 C 38 172.146, 37.722 166.018, 36.750 166.079 C 36.063 166.122, 33.499 166.864, 31.054 167.728 M 46 193.500 L 46 221.135 48.250 220.475 C 61.167 216.686, 69 206.503, 69 193.500 C 69 180.497, 61.167 170.314, 48.250 166.525 L 46 165.865 46 193.500 " stroke="none" fill="black" fill-rule="evenodd"/>
</svg>