<svg xmlns="http://www.w3.org/2000/svg" width="468" height="324" viewBox="0 0 468 324" version="1.1">
	<path d="M 93.500 127.401 C 78.957 130.206, 67.309 136.689, 56.801 147.829 C 47.244 157.959, 41.091 169.948, 39.512 181.517 C 38.256 190.721, 39.616 190, 23.504 190 C 11.782 190, 8.854 190.289, 7.571 191.571 C 5.757 193.386, 5.681 193.946, 6.976 196 C 7.725 197.188, 11.094 197.604, 23.146 198 L 38.371 198.500 39.561 205.500 C 42.012 219.919, 48.653 231.743, 60.528 242.832 C 73.261 254.724, 87.674 260.333, 105.500 260.333 C 117.288 260.333, 125.383 258.458, 135.806 253.313 C 144.384 249.078, 156.020 238.690, 161.599 230.285 C 166.535 222.849, 170.872 211.520, 171.656 204.014 L 172.285 198 187.571 198 C 200.134 198, 203.137 197.720, 204.429 196.429 C 206.243 194.614, 206.319 194.054, 205.024 192 C 204.272 190.807, 200.845 190.398, 188.289 190 L 172.500 189.500 171.712 183.102 C 168.688 158.558, 147.450 135.009, 122.500 128.533 C 113.877 126.295, 101.699 125.820, 93.500 127.401 M 90.645 135.584 C 70.671 140.419, 52.279 158.986, 47.537 179.103 C 46.708 182.621, 46.023 186.512, 46.015 187.750 L 46 190 105.500 190 L 165 190 164.985 187.750 C 164.953 182.823, 161.759 172.332, 158.243 165.603 C 150.839 151.435, 135.149 139.133, 119.897 135.537 C 111.998 133.676, 98.439 133.697, 90.645 135.584 M 360 158.977 C 358.979 159.621, 358.340 162.248, 358 167.202 L 357.500 174.481 352.026 175.264 C 344.672 176.317, 333.321 182.078, 328.081 187.418 C 324.344 191.225, 323.950 192.037, 324.939 193.886 C 326.553 196.901, 328.686 196.517, 333.255 192.388 C 337.983 188.117, 347.783 183.346, 353.750 182.411 L 358 181.744 358 204.301 C 358 223.473, 358.236 227.093, 359.571 228.429 C 360.936 229.793, 365.463 230, 394 230 C 422.537 230, 427.064 229.793, 428.429 228.429 C 429.622 227.235, 430 224.712, 430 217.929 C 430 209.230, 430.060 209, 432.343 209 C 441.374 209, 460 197.863, 460 192.464 C 460 188.434, 456.557 188.410, 451.681 192.406 C 447.047 196.203, 438.533 200.398, 433.250 201.488 L 430 202.159 430 181.651 C 430 164.341, 429.755 160.898, 428.429 159.571 C 427.063 158.206, 422.567 158.002, 394.179 158.015 C 375.379 158.024, 360.863 158.433, 360 158.977 M 366 170.500 C 366 174.553, 366.233 175, 368.343 175 C 371.642 175, 381.094 178.385, 386.274 181.420 C 388.678 182.829, 393.080 186.534, 396.058 189.654 C 401.883 195.757, 410.383 200.434, 417.750 201.589 L 422 202.256 422 184.128 L 422 166 394 166 L 366 166 366 170.500 M 366 201.921 L 366 222 394.048 222 L 422.095 222 421.798 215.759 L 421.500 209.518 417 208.842 C 406.654 207.288, 396.530 201.794, 390.537 194.479 C 386.813 189.935, 375.913 183.791, 369.250 182.480 L 366 181.841 366 201.921 M 231.571 191.571 C 230.707 192.436, 230 193.529, 230 194 C 230 194.471, 230.707 195.564, 231.571 196.429 C 232.855 197.712, 235.788 198, 247.571 198 L 262 198 262 226 L 262 254 247.571 254 C 235.788 254, 232.855 254.288, 231.571 255.571 C 229.598 257.545, 229.598 258.455, 231.571 260.429 C 232.936 261.793, 237.463 262, 266 262 C 294.537 262, 299.064 261.793, 300.429 260.429 C 302.402 258.455, 302.402 257.545, 300.429 255.571 C 299.145 254.288, 296.212 254, 284.429 254 L 270 254 270 226 L 270 198 284.429 198 C 296.212 198, 299.145 197.712, 300.429 196.429 C 301.293 195.564, 302 194.471, 302 194 C 302 193.529, 301.293 192.436, 300.429 191.571 C 299.064 190.207, 294.537 190, 266 190 C 237.463 190, 232.936 190.207, 231.571 191.571 M 46.015 199.750 C 46.023 200.713, 46.708 204.379, 47.537 207.897 C 52.338 228.261, 70.739 246.662, 91.103 251.463 C 98.646 253.241, 110.760 253.441, 118.201 251.910 C 134.910 248.473, 151.355 235.510, 158.809 219.899 C 162.355 212.473, 165 203.737, 165 199.451 C 165 198.199, 156.825 198, 105.500 198 C 49.494 198, 46.001 198.103, 46.015 199.750 " stroke="none" fill="black" fill-rule="evenodd"/>
</svg>