<svg xmlns="http://www.w3.org/2000/svg" width="372" height="324" viewBox="0 0 372 324" version="1.1">
	<path d="M 39.571 127.571 C 38.176 128.966, 38 136.152, 38 191.571 L 38 254 23.571 254 C 11.788 254, 8.855 254.288, 7.571 255.571 C 5.598 257.545, 5.598 258.455, 7.571 260.429 C 8.936 261.793, 13.463 262, 42 262 C 70.537 262, 75.064 261.793, 76.429 260.429 C 77.293 259.564, 78 258.471, 78 258 C 78 257.529, 77.293 256.436, 76.429 255.571 C 75.145 254.288, 72.212 254, 60.429 254 L 46 254 46 191.571 C 46 136.152, 45.824 128.966, 44.429 127.571 C 43.564 126.707, 42.471 126, 42 126 C 41.529 126, 40.436 126.707, 39.571 127.571 M 253.500 127.401 C 238.645 130.266, 227.144 136.774, 216.168 148.528 C 204.277 161.260, 198.624 175.751, 198.624 193.500 C 198.624 212.784, 204.398 226.476, 218.461 240.539 C 232.548 254.625, 246.275 260.408, 265.500 260.354 C 277.292 260.321, 285.446 258.427, 295.806 253.313 C 304.384 249.078, 316.020 238.690, 321.599 230.285 C 326.611 222.733, 330.883 211.467, 331.656 203.764 L 332.284 197.500 349.142 180.409 C 358.414 171.009, 366 162.829, 366 162.231 C 366 160.818, 363.174 158, 361.756 158 C 361.150 158, 354.264 164.336, 346.453 172.081 L 332.251 186.162 331.537 181.331 C 328.066 157.869, 306.639 134.798, 282.500 128.533 C 273.877 126.295, 261.699 125.820, 253.500 127.401 M 250.645 135.584 C 230.671 140.419, 212.279 158.986, 207.537 179.103 C 202.672 199.742, 208.569 220.600, 223.484 235.516 C 247.022 259.054, 284.029 259.068, 307.548 235.548 C 315.508 227.589, 321.851 216.212, 323.910 206.201 C 326.142 195.349, 326.572 196.162, 309.500 178.969 C 300.975 170.383, 294 162.860, 294 162.251 C 294 160.827, 296.815 158, 298.232 158 C 298.831 158, 304.922 163.512, 311.767 170.250 C 323.556 181.854, 324.178 182.316, 323.551 179 C 323.188 177.075, 321.050 171.701, 318.802 167.058 C 311.400 151.775, 296.061 139.348, 279.897 135.537 C 271.998 133.676, 258.439 133.697, 250.645 135.584 M 103.571 191.571 C 102.707 192.436, 102 193.640, 102 194.249 C 102 194.857, 108.844 202.250, 117.208 210.677 L 132.416 226 117.208 241.323 C 108.844 249.750, 102 257.143, 102 257.751 C 102 259.181, 104.819 262, 106.249 262 C 106.857 262, 114.250 255.156, 122.677 246.792 L 138 231.584 153.323 246.792 C 161.750 255.156, 169.143 262, 169.751 262 C 171.181 262, 174 259.181, 174 257.751 C 174 257.143, 167.156 249.750, 158.792 241.323 L 143.584 226 158.792 210.677 C 167.156 202.250, 174 194.857, 174 194.249 C 174 192.819, 171.181 190, 169.751 190 C 169.143 190, 161.750 196.844, 153.323 205.208 L 138 220.416 122.677 205.208 C 114.250 196.844, 106.857 190, 106.249 190 C 105.640 190, 104.436 190.707, 103.571 191.571 " stroke="none" fill="black" fill-rule="evenodd"/>
</svg>