<svg xmlns="http://www.w3.org/2000/svg" width="292" height="324" viewBox="0 0 292 324" version="1.1">
	<path d="M 40.316 62.784 C 38.369 64.022, 22.007 97.855, 22.604 99.410 C 23.269 101.144, 25.524 102.120, 27.295 101.440 C 28.007 101.167, 31.480 95.106, 35.014 87.972 C 38.547 80.837, 41.691 75, 42 75 C 42.309 75, 45.453 80.837, 48.986 87.972 C 52.520 95.106, 55.993 101.167, 56.705 101.440 C 58.487 102.124, 60.732 101.141, 61.407 99.381 C 61.997 97.844, 45.582 64.037, 43.628 62.765 C 42.214 61.845, 41.789 61.847, 40.316 62.784 M 103.315 111.213 C 93.792 120.680, 86 129.134, 86 130 C 86 131.761, 119.994 166, 121.743 166 C 123.180 166, 126 163.185, 126 161.751 C 126 161.143, 119.156 153.750, 110.792 145.323 L 95.584 130 110.792 114.677 C 119.156 106.250, 126 98.857, 126 98.249 C 126 96.815, 123.180 94, 121.743 94 C 121.131 94, 112.838 101.746, 103.315 111.213 M 71.571 127.571 C 70.178 128.965, 70 135.899, 70 188.799 L 70 248.455 40.711 219.227 C 24.602 203.152, 10.909 190, 10.282 190 C 8.807 190, 6 192.810, 6 194.287 C 6 195.818, 72.128 262, 73.659 262 C 74.318 262, 75.564 261.293, 76.429 260.429 C 77.825 259.032, 78 251.628, 78 194 C 78 136.372, 77.825 128.968, 76.429 127.571 C 75.564 126.707, 74.471 126, 74 126 C 73.529 126, 72.436 126.707, 71.571 127.571 M 247.750 159.082 C 246.787 159.642, 246 160.858, 246 161.786 C 246 162.714, 251.956 169.442, 259.236 176.737 L 272.472 190 212.808 190 C 159.900 190, 152.965 190.178, 151.571 191.571 C 149.598 193.545, 149.598 194.455, 151.571 196.429 C 152.965 197.822, 159.900 198, 212.808 198 L 272.472 198 259.236 211.263 C 251.956 218.558, 246 225.292, 246 226.228 C 246 227.164, 246.952 228.439, 248.115 229.062 C 250.040 230.092, 251.774 228.675, 267.348 213.347 C 284.797 196.174, 285.958 194.961, 285.985 193.886 C 286.002 193.179, 251.261 158.610, 250.202 158.282 C 249.816 158.162, 248.713 158.522, 247.750 159.082 M 167.315 239.213 C 157.792 248.680, 150 257.134, 150 258 C 150 259.680, 183.953 294, 185.615 294 C 187.240 294, 189 291.731, 189 289.636 C 189 288.461, 183.902 282.519, 176.307 274.844 L 163.615 262.016 223.448 261.758 C 279.182 261.518, 283.358 261.380, 284.386 259.750 C 285.191 258.474, 285.191 257.526, 284.386 256.250 C 283.358 254.620, 279.182 254.482, 223.448 254.242 L 163.615 253.984 176.307 241.156 C 183.902 233.481, 189 227.539, 189 226.364 C 189 224.269, 187.240 222, 185.615 222 C 185.073 222, 176.838 229.746, 167.315 239.213 " stroke="none" fill="black" fill-rule="evenodd"/>
</svg>