<svg xmlns="http://www.w3.org/2000/svg" width="372" height="324" viewBox="0 0 372 324" version="1.1">
	<path d="M 7.200 127.200 C 6.291 128.109, 6 144.229, 6 193.629 C 6 251.594, 6.175 259.032, 7.571 260.429 C 8.968 261.825, 16.372 262, 74 262 C 131.628 262, 139.032 261.825, 140.429 260.429 C 141.825 259.032, 142 251.594, 142 193.629 C 142 144.229, 141.709 128.109, 140.800 127.200 C 139.065 125.465, 8.935 125.465, 7.200 127.200 M 226.344 126.991 C 213.452 129.697, 201.280 141.888, 199.179 154.199 C 198.485 158.263, 198.263 158.485, 194.199 159.179 C 184.283 160.872, 174.024 169.349, 169.216 179.825 C 167.092 184.453, 166.610 186.998, 166.606 193.623 C 166.601 200.746, 166.994 202.545, 169.800 208.245 C 173.618 216.001, 179.965 222.176, 187.825 225.784 C 195.894 229.488, 207.106 229.488, 215.175 225.784 C 223.035 222.176, 229.382 216.001, 233.200 208.245 C 236.006 202.545, 236.399 200.746, 236.394 193.623 C 236.388 183.893, 233.601 176.777, 226.987 169.602 C 222.591 164.832, 212.333 159, 208.340 159 C 205.558 159, 205.463 157.934, 207.667 151.463 C 213.681 133.815, 238.716 128.138, 252.280 141.347 C 262.401 151.203, 263.274 161.459, 255.924 184.154 C 247.445 210.336, 229.639 233.603, 206.500 248.734 C 197.912 254.350, 196.744 255.653, 198.074 258.138 C 199.693 261.164, 202.345 260.349, 212.184 253.802 C 235.423 238.340, 254.816 212.387, 263.309 185.381 C 267.733 171.313, 269.249 161.800, 268.077 155.460 C 264.544 136.345, 245.069 123.061, 226.344 126.991 M 327.267 159.267 C 308.970 177.563, 294 193.056, 294 193.695 C 294 194.334, 294.707 195.564, 295.571 196.429 C 296.924 197.781, 300.990 198, 324.799 198 L 352.455 198 323.227 227.289 C 307.152 243.398, 294 257.091, 294 257.718 C 294 259.201, 296.814 262, 298.305 262 C 299.823 262, 366 195.823, 366 194.305 C 366 193.666, 365.293 192.436, 364.429 191.571 C 363.076 190.219, 359.010 190, 335.201 190 L 307.545 190 336.773 160.711 C 352.848 144.602, 366 130.909, 366 130.282 C 366 128.799, 363.186 126, 361.695 126 C 361.056 126, 345.563 140.970, 327.267 159.267 M 46.752 161.248 L 74 188.495 101.248 161.248 L 128.495 134 74 134 L 19.505 134 46.752 161.248 M 14 196.773 L 14 254 74 254 L 134 254 134 196.773 L 134 139.545 104.711 168.773 C 88.602 184.848, 74.782 198, 74 198 C 73.218 198, 59.398 184.848, 43.289 168.773 L 14 139.545 14 196.773 M 192.453 167.326 C 177.492 173.091, 170.431 188.170, 175.597 203.329 C 177.470 208.829, 183.813 215.734, 189.500 218.467 C 195.100 221.158, 204.583 221.632, 210.895 219.535 C 216.766 217.585, 223.568 211.476, 226.523 205.500 C 229.292 199.897, 229.292 187.103, 226.523 181.500 C 223.688 175.767, 216.795 169.459, 211.329 167.597 C 205.921 165.754, 196.871 165.624, 192.453 167.326 " stroke="none" fill="black" fill-rule="evenodd"/>
</svg>