<svg xmlns="http://www.w3.org/2000/svg" width="148" height="324" viewBox="0 0 148 324" version="1.1">
	<path d="M 55.750 63.080 C 54.186 63.991, 54 66.007, 54 82.015 C 54 98.703, 54.132 100, 55.934 100.965 C 57.043 101.558, 64.905 102, 74.363 102 C 88.024 102, 91.127 101.730, 92.429 100.429 C 94.757 98.100, 94.757 65.900, 92.429 63.571 C 91.123 62.266, 88.036 62.005, 74.179 62.030 C 64.720 62.048, 56.742 62.502, 55.750 63.080 M 62 82 L 62 94 74 94 L 86 94 86 82 L 86 70 74 70 L 62 70 62 82 M 33.067 175.135 C 25.343 176.416, 14.282 182.063, 9.103 187.370 C 4.725 191.856, 4.710 191.895, 5.804 196.188 C 6.409 198.560, 7.190 202.750, 7.541 205.500 C 7.891 208.250, 9.406 213.675, 10.906 217.556 C 18.537 237.285, 36.478 253.219, 57.209 258.677 C 65.643 260.897, 81.484 260.844, 90 258.566 C 112.815 252.464, 131.869 233.499, 137.995 210.796 C 140.499 201.513, 140.440 191.298, 137.873 189.686 C 136.604 188.890, 135.267 189.467, 131.803 192.305 C 120.616 201.472, 105.185 204.467, 92.040 200.022 C 84.258 197.390, 81.019 195.203, 74.658 188.285 C 68.766 181.876, 58.327 176.483, 49 175.029 C 41.630 173.879, 40.595 173.886, 33.067 175.135 M 28 184.038 C 24.975 185.119, 20.700 187.259, 18.500 188.793 C 14.823 191.357, 14.476 191.996, 14.201 196.707 C 13.180 214.177, 27.590 236.919, 45.603 246.268 C 68.975 258.399, 97.026 254.132, 115.409 235.649 C 123.396 227.620, 129.064 217.578, 131.381 207.353 L 132.775 201.206 125.637 204.573 C 112.768 210.645, 100.304 211.108, 86.748 206.015 C 80.696 203.742, 71.810 197.382, 70.024 194.046 C 68.369 190.952, 60.270 185.874, 53.760 183.848 C 45.896 181.401, 35.158 181.480, 28 184.038 " stroke="none" fill="black" fill-rule="evenodd"/>
</svg>