<svg xmlns="http://www.w3.org/2000/svg" width="276" height="324" viewBox="0 0 276 324" version="1.1">
	<path d="M 23.571 63.571 C 21.243 65.900, 21.243 98.100, 23.571 100.429 C 25.900 102.757, 58.100 102.757, 60.429 100.429 C 62.757 98.100, 62.757 65.900, 60.429 63.571 C 58.100 61.243, 25.900 61.243, 23.571 63.571 M 30 82 L 30 94 42 94 L 54 94 54 82 L 54 70 42 70 L 30 70 30 82 M 199.571 127.571 C 198.175 128.968, 198 136.372, 198 194 C 198 251.628, 198.175 259.032, 199.571 260.429 C 200.436 261.293, 201.529 262, 202 262 C 202.471 262, 203.564 261.293, 204.429 260.429 C 205.825 259.032, 206 251.628, 206 194 C 206 136.372, 205.825 128.968, 204.429 127.571 C 203.564 126.707, 202.471 126, 202 126 C 201.529 126, 200.436 126.707, 199.571 127.571 M 263.571 127.571 C 262.175 128.968, 262 136.372, 262 194 C 262 251.628, 262.175 259.032, 263.571 260.429 C 264.436 261.293, 265.529 262, 266 262 C 266.471 262, 267.564 261.293, 268.429 260.429 C 269.825 259.032, 270 251.628, 270 194 C 270 136.372, 269.825 128.968, 268.429 127.571 C 267.564 126.707, 266.471 126, 266 126 C 265.529 126, 264.436 126.707, 263.571 127.571 M 34.223 159.012 C 23.933 161.160, 13.981 169.443, 9.216 179.825 C 5.512 187.894, 5.512 199.106, 9.216 207.175 C 14.171 217.970, 23.828 225.772, 35.147 228.126 C 41.503 229.448, 42.083 229.446, 48.340 228.082 C 59.247 225.704, 68.932 217.746, 73.784 207.175 C 75.908 202.547, 76.390 200.002, 76.394 193.377 C 76.399 186.254, 76.006 184.455, 73.200 178.755 C 65.955 164.039, 49.665 155.788, 34.223 159.012 M 32.453 167.326 C 20.790 171.820, 14 181.431, 14 193.448 C 14 206.371, 22.645 217.389, 35.250 220.531 L 38 221.217 38 193.608 C 38 163.762, 38.278 165.082, 32.453 167.326 M 46 193.500 L 46 221.135 48.250 220.448 C 53.937 218.711, 57.111 216.889, 60.696 213.304 C 66.750 207.250, 68.500 202.809, 68.500 193.500 C 68.500 184.191, 66.750 179.750, 60.696 173.696 C 57.111 170.111, 53.937 168.289, 48.250 166.552 L 46 165.865 46 193.500 M 103.571 191.571 C 102.707 192.436, 102 193.529, 102 194 C 102 194.471, 102.707 195.564, 103.571 196.429 C 104.855 197.712, 107.788 198, 119.571 198 L 134 198 134 226 L 134 254 119.571 254 C 107.788 254, 104.855 254.288, 103.571 255.571 C 101.598 257.545, 101.598 258.455, 103.571 260.429 C 104.936 261.793, 109.463 262, 138 262 C 166.537 262, 171.064 261.793, 172.429 260.429 C 174.402 258.455, 174.402 257.545, 172.429 255.571 C 171.145 254.288, 168.212 254, 156.429 254 L 142 254 142 226 L 142 198 156.429 198 C 168.212 198, 171.145 197.712, 172.429 196.429 C 173.293 195.564, 174 194.471, 174 194 C 174 193.529, 173.293 192.436, 172.429 191.571 C 171.064 190.207, 166.537 190, 138 190 C 109.463 190, 104.936 190.207, 103.571 191.571 " stroke="none" fill="black" fill-rule="evenodd"/>
</svg>