<svg xmlns="http://www.w3.org/2000/svg" width="468" height="324" viewBox="0 0 468 324" version="1.1">
	<path d="M 352.121 111.075 C 344.593 112.398, 334.469 117.481, 328.801 122.783 C 326.160 125.253, 324 127.683, 324 128.182 C 324 128.682, 325.105 130.195, 326.455 131.545 L 328.909 134 360.970 134 L 393.031 134 398.265 137.471 C 406.799 143.130, 414.052 145.237, 425 145.237 C 435.875 145.237, 443.200 143.131, 451.526 137.610 C 454.290 135.777, 457.511 133.972, 458.684 133.600 C 459.856 133.228, 461.080 132.233, 461.404 131.389 C 462.120 129.523, 460.390 126.020, 458.715 125.947 C 458.047 125.918, 443.768 125.940, 426.984 125.996 L 396.468 126.098 393.515 123.016 C 384.650 113.763, 366.544 108.540, 352.121 111.075 M 349.500 119.346 C 347.300 120.074, 343.475 121.757, 341 123.085 L 336.500 125.500 348.750 125.781 C 355.488 125.935, 366.513 125.935, 373.250 125.781 L 385.500 125.500 378.500 122.037 C 372.318 118.978, 370.449 118.541, 362.500 118.297 C 356.970 118.128, 351.958 118.532, 349.500 119.346 M 93.500 127.401 C 78.957 130.206, 67.309 136.689, 56.801 147.829 C 47.244 157.959, 41.091 169.948, 39.512 181.517 C 38.256 190.721, 39.616 190, 23.504 190 C 11.782 190, 8.854 190.289, 7.571 191.571 C 5.757 193.386, 5.681 193.946, 6.976 196 C 7.725 197.188, 11.094 197.604, 23.146 198 L 38.371 198.500 39.561 205.500 C 42.012 219.919, 48.653 231.743, 60.528 242.832 C 73.261 254.724, 87.674 260.333, 105.500 260.333 C 117.288 260.333, 125.383 258.458, 135.806 253.313 C 144.384 249.078, 156.020 238.690, 161.599 230.285 C 166.535 222.849, 170.872 211.520, 171.656 204.014 L 172.285 198 187.571 198 C 200.134 198, 203.137 197.720, 204.429 196.429 C 206.243 194.614, 206.319 194.054, 205.024 192 C 204.272 190.807, 200.845 190.398, 188.289 190 L 172.500 189.500 171.712 183.102 C 168.688 158.558, 147.450 135.009, 122.500 128.533 C 113.877 126.295, 101.699 125.820, 93.500 127.401 M 90.645 135.584 C 70.671 140.419, 52.279 158.986, 47.537 179.103 C 46.708 182.621, 46.023 186.512, 46.015 187.750 L 46 190 105.500 190 L 165 190 164.985 187.750 C 164.953 182.823, 161.759 172.332, 158.243 165.603 C 150.839 151.435, 135.149 139.133, 119.897 135.537 C 111.998 133.676, 98.439 133.697, 90.645 135.584 M 411 135.813 C 413.559 137.019, 417.324 137.463, 425 137.463 C 432.676 137.463, 436.441 137.019, 439 135.813 C 442.402 134.209, 442.010 134.163, 425 134.163 C 407.990 134.163, 407.598 134.209, 411 135.813 M 263.267 223.267 C 244.970 241.563, 230 257.056, 230 257.695 C 230 258.334, 230.707 259.564, 231.571 260.429 C 232.936 261.793, 237.463 262, 266 262 C 294.537 262, 299.064 261.793, 300.429 260.429 C 301.793 259.064, 302 254.537, 302 226 C 302 197.463, 301.793 192.936, 300.429 191.571 C 299.564 190.707, 298.334 190, 297.695 190 C 297.056 190, 281.563 204.970, 263.267 223.267 M 46.015 199.750 C 46.023 200.713, 46.708 204.379, 47.537 207.897 C 52.338 228.261, 70.739 246.662, 91.103 251.463 C 98.646 253.241, 110.760 253.441, 118.201 251.910 C 134.910 248.473, 151.355 235.510, 158.809 219.899 C 162.355 212.473, 165 203.737, 165 199.451 C 165 198.199, 156.825 198, 105.500 198 C 49.494 198, 46.001 198.103, 46.015 199.750 M 268.500 229 L 243.515 254 268.758 254 L 294 254 294 229 C 294 215.250, 293.884 204, 293.742 204 C 293.601 204, 282.242 215.250, 268.500 229 " stroke="none" fill="black" fill-rule="evenodd"/>
</svg>