<svg xmlns="http://www.w3.org/2000/svg" width="436" height="324" viewBox="0 0 436 324" version="1.1">
	<path d="M 183.200 63.200 C 181.512 64.888, 181.512 99.112, 183.200 100.800 C 184.040 101.640, 189.562 102, 201.629 102 C 215.958 102, 219.122 101.736, 220.429 100.429 C 222.757 98.100, 222.757 65.900, 220.429 63.571 C 219.122 62.264, 215.958 62, 201.629 62 C 189.562 62, 184.040 62.360, 183.200 63.200 M 190 82 L 190 94 202 94 L 214 94 214 82 L 214 70 202 70 L 190 70 190 82 M 359.750 127.080 C 358.111 128.035, 358 132.293, 358 194.015 C 358 259.587, 358.011 259.935, 360.064 261.034 C 365.084 263.721, 365 264.854, 365 194.078 C 365 123.068, 365.071 123.981, 359.750 127.080 M 423.750 127.080 C 422.111 128.035, 422 132.293, 422 194.015 C 422 259.587, 422.011 259.935, 424.064 261.034 C 429.084 263.721, 429 264.854, 429 194.078 C 429 123.068, 429.071 123.981, 423.750 127.080 M 194.344 158.988 C 184.010 161.166, 173.930 169.366, 169.417 179.266 C 163.406 192.448, 166.534 208.614, 176.987 218.392 C 182.679 223.715, 188.243 226.685, 195.267 228.149 C 202.016 229.555, 202.391 229.540, 209.500 227.564 C 217.448 225.355, 222.923 222.031, 227.868 216.413 C 236.145 207.010, 238.552 192.759, 233.934 180.507 C 228.285 165.523, 210.137 155.659, 194.344 158.988 M 191.463 167.591 C 185.971 169.541, 180.552 174.205, 177.249 179.824 C 174.800 183.989, 174.500 185.483, 174.500 193.500 C 174.500 201.502, 174.803 203.015, 177.230 207.145 C 181.385 214.213, 187.168 218.498, 195.305 220.541 L 198 221.217 198 193.608 C 198 172.146, 197.722 166.018, 196.750 166.079 C 196.063 166.122, 193.683 166.803, 191.463 167.591 M 206 193.500 L 206 221.135 208.250 220.434 C 216.986 217.712, 222.088 213.513, 225.883 205.919 C 230.231 197.217, 230.231 189.783, 225.883 181.081 C 222.088 173.487, 216.986 169.288, 208.250 166.566 L 206 165.865 206 193.500 M 39.267 223.267 C 20.970 241.563, 6 257.056, 6 257.695 C 6 259.187, 8.799 262, 10.285 262 C 10.913 262, 25.509 247.944, 42.721 230.764 L 74.015 199.527 105.264 230.764 C 122.450 247.944, 137.039 262, 137.684 262 C 138.329 262, 139.564 261.293, 140.429 260.429 C 141.793 259.064, 142 254.537, 142 226 C 142 197.463, 141.793 192.936, 140.429 191.571 C 138.455 189.598, 137.545 189.598, 135.571 191.571 C 134.219 192.924, 134 196.990, 134 220.799 L 134 248.455 104.711 219.227 C 88.602 203.152, 74.772 190, 73.978 190 C 73.183 190, 57.563 204.970, 39.267 223.267 M 263.585 191.558 C 261.598 193.545, 261.595 194.452, 263.571 196.429 C 264.855 197.712, 267.788 198, 279.571 198 L 294 198 294 226 L 294 254 279.571 254 C 267.788 254, 264.855 254.288, 263.571 255.571 C 261.595 257.548, 261.598 258.455, 263.585 260.442 C 264.978 261.835, 269.159 261.995, 298.226 261.763 C 328.452 261.523, 331.377 261.350, 332.386 259.750 C 333.190 258.475, 333.191 257.525, 332.387 256.250 C 331.433 254.736, 329.314 254.463, 316.643 254.223 L 302 253.947 302 226 L 302 198.053 316.643 197.777 C 329.314 197.537, 331.433 197.264, 332.387 195.750 C 333.191 194.475, 333.190 193.525, 332.386 192.250 C 331.377 190.650, 328.452 190.477, 298.226 190.237 C 269.159 190.005, 264.978 190.165, 263.585 191.558 " stroke="none" fill="black" fill-rule="evenodd"/>
</svg>