<svg xmlns="http://www.w3.org/2000/svg" width="308" height="324" viewBox="0 0 308 324" version="1.1">
	<path d="M 103.616 159.527 C 102.727 160.416, 102 161.636, 102 162.239 C 102 162.841, 107.941 169.334, 115.202 176.667 L 128.405 190 68.774 190 C 15.897 190, 8.965 190.178, 7.571 191.571 C 5.598 193.545, 5.598 194.455, 7.571 196.429 C 8.965 197.822, 15.897 198, 68.774 198 L 128.405 198 115.202 211.333 C 107.941 218.666, 102 225.159, 102 225.761 C 102 227.200, 104.997 230.172, 106.068 229.795 C 107.353 229.342, 142 194.827, 142 194 C 142 193.173, 107.353 158.658, 106.068 158.205 C 105.608 158.043, 104.505 158.638, 103.616 159.527 M 199.244 223.256 C 180.960 241.546, 166 257.206, 166 258.056 C 166 261.988, 166.212 262, 233.500 262 C 300.818 262, 301 261.989, 301 258.044 C 301 256.369, 235.151 190, 233.489 190 C 232.939 190, 217.529 204.965, 199.244 223.256 M 206 226.500 L 178.514 254 233.500 254 L 288.486 254 261 226.500 C 245.883 211.375, 233.508 199, 233.500 199 C 233.492 199, 221.117 211.375, 206 226.500 M 33.244 239.109 C 21.572 241.054, 4.461 252.234, 5.204 257.430 C 5.738 261.166, 9.662 260.567, 14.627 255.990 C 21.254 249.881, 28.827 246.798, 38.591 246.234 C 52.522 245.428, 61.396 249.082, 72 259.989 C 81.847 270.117, 96.822 275.132, 111 273.048 C 123.634 271.191, 140.536 261.622, 139.805 256.740 C 139.178 252.551, 136.558 252.409, 131.803 256.305 C 120.616 265.472, 105.185 268.467, 92.040 264.022 C 84.258 261.390, 81.019 259.203, 74.658 252.285 C 68.766 245.876, 58.327 240.483, 49 239.029 C 41.654 237.883, 40.571 237.889, 33.244 239.109 " stroke="none" fill="black" fill-rule="evenodd"/>
</svg>