<svg xmlns="http://www.w3.org/2000/svg" width="244" height="324" viewBox="0 0 244 324" version="1.1">
	<path d="M 7.571 127.571 C 6.175 128.968, 6 136.372, 6 194 C 6 251.628, 6.175 259.032, 7.571 260.429 C 8.436 261.293, 9.529 262, 10 262 C 10.471 262, 11.564 261.293, 12.429 260.429 C 13.712 259.145, 14 256.212, 14 244.429 L 14 230 42 230 L 70 230 70 244.429 C 70 256.212, 70.288 259.145, 71.571 260.429 C 73.545 262.402, 74.455 262.402, 76.429 260.429 C 77.825 259.032, 78 251.628, 78 194 C 78 136.372, 77.825 128.968, 76.429 127.571 C 74.455 125.598, 73.545 125.598, 71.571 127.571 C 70.288 128.855, 70 131.788, 70 143.571 L 70 158 42 158 L 14 158 14 143.571 C 14 131.788, 13.712 128.855, 12.429 127.571 C 11.564 126.707, 10.471 126, 10 126 C 9.529 126, 8.436 126.707, 7.571 127.571 M 167.750 127.080 C 166.143 128.016, 166 130.628, 166 159.050 L 166 190 135.122 190 C 108.954 190, 104.056 190.228, 103.005 191.494 C 99.904 195.231, 105.088 216.822, 111.721 227.792 C 127.271 253.509, 157.285 265.774, 186.500 258.352 C 207.121 253.112, 225.765 235.530, 233.002 214.495 C 235.762 206.472, 237.445 193.241, 235.936 191.423 C 234.962 190.250, 229.426 190, 204.378 190 L 174 190 174 160.223 C 174 134.890, 173.768 130.113, 172.443 128.223 C 170.702 125.736, 170.248 125.625, 167.750 127.080 M 14 194 L 14 222 42 222 L 70 222 70 194 L 70 166 42 166 L 14 166 14 194 M 110 200.106 C 110 204.389, 113.276 214.704, 116.794 221.500 C 121.634 230.848, 132.182 241.378, 141.603 246.268 C 178.201 265.263, 221.845 242.900, 228.485 201.750 L 229.091 198 169.545 198 L 110 198 110 200.106 " stroke="none" fill="black" fill-rule="evenodd"/>
</svg>