<svg xmlns="http://www.w3.org/2000/svg" width="308" height="324" viewBox="0 0 308 324" version="1.1">
	<path d="M 7.571 127.571 C 6.707 128.436, 6 129.529, 6 130 C 6 130.471, 6.707 131.564, 7.571 132.429 C 8.966 133.824, 16.152 134, 71.571 134 L 134 134 134 194 L 134 254 71.571 254 C 16.152 254, 8.966 254.176, 7.571 255.571 C 5.598 257.545, 5.598 258.455, 7.571 260.429 C 8.968 261.825, 16.343 261.998, 73.821 261.985 C 109.395 261.976, 139.072 261.606, 139.772 261.162 C 141.639 259.977, 141.639 128.023, 139.772 126.838 C 139.072 126.394, 109.395 126.024, 73.821 126.015 C 16.343 126.002, 8.968 126.175, 7.571 127.571 M 231.750 127.080 C 230.143 128.016, 230 130.628, 230 159.050 L 230 190 199.122 190 C 172.174 190, 168.078 190.201, 166.931 191.583 C 165.875 192.856, 165.835 194.896, 166.730 201.989 C 168.621 216.966, 175.031 229.856, 186.087 240.913 C 196.938 251.763, 208.992 257.720, 224.763 260.026 C 255.115 264.464, 286.777 244.689, 296.331 215.328 C 299.709 204.947, 301.455 193.253, 299.904 191.385 C 298.971 190.260, 292.964 190, 267.878 190 L 237 190 237 159.200 C 237 125.561, 236.770 124.156, 231.750 127.080 M 174.012 200.750 C 174.031 205.146, 176.669 213.879, 180.115 220.955 C 184.454 229.864, 197.003 242.294, 206.085 246.680 C 216.779 251.844, 223.930 253.286, 236 252.712 C 248.277 252.129, 255.880 249.816, 265.088 243.865 C 279.722 234.406, 289.189 219.627, 292.385 201.250 L 292.950 198 233.475 198 L 174 198 174.012 200.750 " stroke="none" fill="black" fill-rule="evenodd"/>
</svg>