<svg xmlns="http://www.w3.org/2000/svg" width="308" height="324" viewBox="0 0 308 324" version="1.1">
	<path d="M 7.571 127.571 C 6.175 128.968, 6 136.372, 6 194 C 6 251.628, 6.175 259.032, 7.571 260.429 C 8.436 261.293, 9.529 262, 10 262 C 10.471 262, 11.564 261.293, 12.429 260.429 C 13.788 259.069, 14 254.758, 14 228.429 L 14 198 74 198 L 134 198 134 228.965 C 134 259.475, 134.031 259.946, 136.117 261.062 C 141.030 263.692, 140.978 264.409, 141.043 193.564 C 141.105 125.954, 141.111 126.070, 137.494 126.015 C 136.941 126.007, 122.094 140.400, 104.500 158 L 72.512 190 43.256 190 L 14 190 14 159.571 C 14 133.242, 13.788 128.931, 12.429 127.571 C 11.564 126.707, 10.471 126, 10 126 C 9.529 126, 8.436 126.707, 7.571 127.571 M 231.750 127.080 C 230.143 128.016, 230 130.628, 230 159.050 L 230 190 199.200 190 C 176.578 190, 168.081 190.319, 167.200 191.200 C 164.446 193.954, 167.349 211.015, 172.350 221.472 C 181.320 240.224, 197.240 253.495, 217 258.688 C 226.987 261.313, 242.467 260.901, 252.167 257.753 C 272.791 251.060, 288.848 236.121, 295.696 217.256 C 299.053 208.009, 301.475 193.277, 299.943 191.431 C 298.959 190.246, 293.442 190, 267.878 190 L 237 190 237 159.200 C 237 125.561, 236.770 124.156, 231.750 127.080 M 108.666 164.500 L 83.844 190 108.922 190 L 134 190 134 164.500 C 134 150.475, 133.885 139, 133.744 139 C 133.603 139, 122.318 150.475, 108.666 164.500 M 174.012 200.750 C 174.031 205.146, 176.669 213.879, 180.115 220.955 C 184.454 229.864, 197.003 242.294, 206.085 246.680 C 216.779 251.844, 223.930 253.286, 236 252.712 C 248.277 252.129, 255.880 249.816, 265.088 243.865 C 279.722 234.406, 289.189 219.627, 292.385 201.250 L 292.950 198 233.475 198 L 174 198 174.012 200.750 " stroke="none" fill="black" fill-rule="evenodd"/>
</svg>