<svg xmlns="http://www.w3.org/2000/svg" width="68" height="324" viewBox="0 0 68 324" version="1.1">
	<path d="M 24.372 62.765 C 22.418 64.037, 6.003 97.844, 6.593 99.381 C 7.268 101.141, 9.513 102.124, 11.295 101.440 C 12.007 101.167, 15.480 95.106, 19.014 87.972 C 22.547 80.837, 25.692 75, 26.003 75 C 26.313 75, 29.252 80.432, 32.533 87.070 C 35.815 93.709, 39.222 99.795, 40.105 100.594 C 41.890 102.210, 44.550 101.615, 45.396 99.410 C 45.993 97.855, 29.631 64.022, 27.684 62.784 C 26.211 61.847, 25.786 61.845, 24.372 62.765 M 23.200 128.200 C 21.167 130.233, 21.805 131.450, 27.458 136.331 C 38.357 145.741, 47.339 160.355, 51.141 174.864 C 53.880 185.321, 53.880 201.679, 51.141 212.136 C 47.406 226.390, 38.230 241.370, 27.622 250.528 C 21.882 255.483, 20.860 257.809, 23.472 259.977 C 25.435 261.606, 29.780 258.903, 36.605 251.807 C 55.769 231.883, 64.099 205.946, 59.604 180.192 C 56.403 161.848, 49.325 148.263, 35.927 134.750 C 28.412 127.171, 25.650 125.750, 23.200 128.200 M 23.200 159.200 C 21.294 161.106, 21.773 162.977, 25.149 166.822 C 30.495 172.911, 33.324 180.431, 33.822 189.872 C 34.530 203.293, 32.596 208.864, 22.407 222.750 C 21.072 224.569, 20.994 225.288, 22 226.500 C 24.067 228.990, 26.572 228.216, 30.495 223.873 C 35.506 218.328, 39.669 209.060, 41.109 200.250 C 43.264 187.057, 38.920 171.451, 30.495 162.127 C 26.577 157.790, 25.173 157.227, 23.200 159.200 M 7.250 174.662 C 5.299 175.450, 5.829 179.121, 8.526 183.500 C 12.225 189.506, 11.984 197.056, 7.888 203.515 C 4.455 208.929, 4.844 211.500, 9.099 211.500 C 10.905 211.500, 12.235 210.236, 14.610 206.261 C 19.805 197.569, 20.026 190.088, 15.365 180.786 C 13.420 176.905, 10.299 173.708, 8.816 174.079 C 8.642 174.122, 7.938 174.385, 7.250 174.662 " stroke="none" fill="black" fill-rule="evenodd"/>
</svg>