<svg xmlns="http://www.w3.org/2000/svg" width="276" height="324" viewBox="0 0 276 324" version="1.1">
	<path d="M 71.571 127.571 C 70.288 128.855, 70 131.788, 70 143.571 L 70 158 55.571 158 C 43.788 158, 40.855 158.288, 39.571 159.571 C 38.219 160.924, 38 164.988, 38 188.774 L 38 216.405 24.667 203.202 C 17.334 195.941, 10.841 190, 10.239 190 C 8.791 190, 6 192.834, 6 194.305 C 6 195.823, 72.177 262, 73.695 262 C 74.334 262, 75.564 261.293, 76.429 260.429 C 77.712 259.145, 78 256.212, 78 244.429 L 78 230 92.429 230 C 104.212 230, 107.145 229.712, 108.429 228.429 C 109.793 227.064, 110 222.537, 110 194 C 110 165.463, 109.793 160.936, 108.429 159.571 C 107.145 158.288, 104.212 158, 92.429 158 L 78 158 78 143.571 C 78 131.788, 77.712 128.855, 76.429 127.571 C 75.564 126.707, 74.471 126, 74 126 C 73.529 126, 72.436 126.707, 71.571 127.571 M 162.223 127.012 C 148.302 129.919, 136.402 143.057, 134.515 157.605 C 133.991 161.637, 134.198 163.055, 135.498 164.355 C 136.402 165.260, 137.529 166, 138 166 C 139.912 166, 142 162.663, 142 159.607 C 142 146.012, 154.952 133.981, 169.572 133.995 C 184.305 134.009, 197 146.097, 197 160.113 C 197 169.630, 191.507 188.075, 184.594 201.768 C 175.191 220.393, 160.058 237.461, 143.171 248.489 C 133.562 254.763, 132.140 256.997, 135.571 260.429 C 136.936 261.793, 141.463 262, 170 262 C 198.537 262, 203.064 261.793, 204.429 260.429 C 205.293 259.564, 206 258.471, 206 258 C 206 257.529, 205.293 256.436, 204.429 255.571 C 203.078 254.220, 199.070 254, 175.869 254 L 148.881 254 156.348 247.993 C 180.570 228.508, 196.265 202.685, 202.997 171.241 C 204.801 162.816, 204.975 160.316, 204.090 155.531 C 200.533 136.286, 181.124 123.065, 162.223 127.012 M 231.571 159.571 C 229.215 161.927, 229.215 210.073, 231.571 212.429 C 232.436 213.293, 233.529 214, 234 214 C 234.471 214, 235.564 213.293, 236.429 212.429 C 238.785 210.073, 238.785 161.927, 236.429 159.571 C 235.564 158.707, 234.471 158, 234 158 C 233.529 158, 232.436 158.707, 231.571 159.571 M 46 194 L 46 222 58 222 L 70 222 70 194 L 70 166 58 166 L 46 166 46 194 M 78 194 L 78 222 90 222 L 102 222 102 194 L 102 166 90 166 L 78 166 78 194 M 231.571 222.571 C 230.707 223.436, 230 224.529, 230 225 C 230 225.471, 230.707 226.564, 231.571 227.429 C 232.436 228.293, 233.529 229, 234 229 C 234.471 229, 235.564 228.293, 236.429 227.429 C 237.293 226.564, 238 225.471, 238 225 C 238 224.529, 237.293 223.436, 236.429 222.571 C 235.564 221.707, 234.471 221, 234 221 C 233.529 221, 232.436 221.707, 231.571 222.571 M 60.500 239 C 65.427 243.950, 69.580 248, 69.729 248 C 69.878 248, 70 243.950, 70 239 L 70 230 60.771 230 L 51.542 230 60.500 239 " stroke="none" fill="black" fill-rule="evenodd"/>
</svg>