<svg xmlns="http://www.w3.org/2000/svg" width="292" height="324" viewBox="0 0 292 324" version="1.1">
	<path d="M 71.200 127.200 C 70.319 128.081, 70 136.578, 70 159.200 L 70 190 39.571 190 C 13.242 190, 8.931 190.212, 7.571 191.571 C 5.598 193.545, 5.598 194.455, 7.571 196.429 C 8.931 197.788, 13.242 198, 39.571 198 L 70 198 70 228.800 C 70 251.422, 70.319 259.919, 71.200 260.800 C 72.109 261.709, 88.229 262, 137.629 262 C 195.594 262, 203.032 261.825, 204.429 260.429 C 205.825 259.032, 206 251.628, 206 194 C 206 136.372, 205.825 128.968, 204.429 127.571 C 203.032 126.175, 195.594 126, 137.629 126 C 88.229 126, 72.109 126.291, 71.200 127.200 M 78 162 L 78 190 103.202 190 L 128.405 190 115.202 176.667 C 107.941 169.334, 102 162.841, 102 162.239 C 102 160.798, 104.832 158, 106.290 158 C 107.969 158, 142 192.307, 142 194 C 142 195.693, 107.969 230, 106.290 230 C 104.832 230, 102 227.202, 102 225.761 C 102 225.159, 107.941 218.666, 115.202 211.333 L 128.405 198 103.202 198 L 78 198 78 226 L 78 254 138 254 L 198 254 198 194 L 198 134 138 134 L 78 134 78 162 M 247.750 159.080 C 246.186 159.991, 246 162.007, 246 178.015 C 246 195.407, 246.064 195.964, 248.183 197.098 C 250.042 198.093, 250.636 197.933, 252.183 196.022 C 253.766 194.067, 254 191.763, 254 178.112 C 254 165.551, 253.691 162.004, 252.443 160.223 C 250.702 157.736, 250.248 157.625, 247.750 159.080 M 241.314 208.434 C 233.903 211.885, 230.494 217.282, 230.517 225.529 C 230.539 233.775, 233.933 239.129, 241.314 242.566 C 244.166 243.894, 247.400 244.982, 248.500 244.985 C 255.117 244.999, 263.462 239.875, 266.551 233.901 C 267.348 232.360, 268 228.580, 268 225.500 C 268 222.420, 267.348 218.640, 266.551 217.099 C 263.462 211.125, 255.117 206.001, 248.500 206.015 C 247.400 206.018, 244.166 207.106, 241.314 208.434 M 241.400 217.400 C 238.498 220.302, 238 221.488, 238 225.500 C 238 229.512, 238.498 230.698, 241.400 233.600 C 244.025 236.225, 245.632 237, 248.450 237 C 253.271 237, 257.611 234.652, 259.483 231.033 C 263.750 222.782, 258.060 214, 248.450 214 C 245.632 214, 244.025 214.775, 241.400 217.400 " stroke="none" fill="black" fill-rule="evenodd"/>
</svg>