<svg xmlns="http://www.w3.org/2000/svg" width="308" height="324" viewBox="0 0 308 324" version="1.1">
	<path d="M 63.870 127.024 C 48.685 129.381, 37.622 135.188, 25.974 146.916 C 12.475 160.507, 6.696 174.473, 6.696 193.500 C 6.696 212.834, 12.449 226.527, 26.461 240.539 C 40.492 254.570, 54.209 260.328, 73.500 260.283 C 85.677 260.254, 93.634 258.307, 104.500 252.697 C 114.958 247.297, 126.889 235.544, 132.264 225.348 C 142.612 205.720, 142.612 181.280, 132.264 161.652 C 124.401 146.736, 106.682 132.739, 90.500 128.660 C 82.568 126.661, 70.849 125.941, 63.870 127.024 M 58.159 135.569 C 37.914 141.015, 20.798 158.320, 15.487 178.711 C 13.543 186.176, 13.590 200.623, 15.585 208.356 C 20.886 228.903, 38.095 246.083, 58.731 251.430 C 66.366 253.409, 79.578 253.423, 87.897 251.463 C 97.403 249.222, 107.521 243.468, 115.087 236.001 C 138.900 212.500, 138.900 174.500, 115.087 150.999 C 107.714 143.722, 97.850 138.035, 88.356 135.585 C 80.745 133.622, 65.427 133.613, 58.159 135.569 M 231.724 159.134 C 230.192 159.992, 230 162.094, 230 178 C 230 193.906, 230.192 196.008, 231.724 196.866 C 232.818 197.478, 234.098 197.483, 235.224 196.880 C 236.824 196.024, 237 194.152, 237 178 C 237 161.848, 236.824 159.976, 235.224 159.120 C 234.098 158.517, 232.818 158.522, 231.724 159.134 M 71.616 191.527 C 70.727 192.416, 70 193.529, 70 194 C 70 195.389, 73.140 198.120, 74.295 197.735 C 76.395 197.035, 77.549 194.094, 76.423 192.310 C 74.905 189.902, 73.474 189.669, 71.616 191.527 M 167.750 191.080 C 165.538 192.368, 165.493 196.628, 167.583 206.746 C 176.956 252.123, 228.151 274.720, 267.566 250.877 C 285.464 240.051, 298.017 220.115, 299.719 199.816 C 300.231 193.700, 300.063 192.520, 298.519 191.390 C 295.778 189.386, 293.004 191.337, 292.983 195.285 C 292.918 207.273, 285.456 225.135, 276.710 234.237 C 265.130 246.289, 252.751 251.909, 235.988 252.725 C 218.414 253.581, 204.968 248.670, 192.511 236.845 C 181.466 226.360, 176.135 215.901, 173.865 200.263 C 172.437 190.425, 171.441 188.930, 167.750 191.080 M 227.558 207.469 C 221.900 209.518, 218.897 212.054, 216.289 216.986 C 208.930 230.902, 222.188 247.954, 237.250 243.946 C 251.871 240.057, 256.805 223.338, 246.633 212.155 C 242.039 207.105, 234.010 205.132, 227.558 207.469 M 226.881 215.503 C 224.218 216.951, 221 222.420, 221 225.500 C 221 228.694, 224.267 234.087, 227.085 235.544 C 237.707 241.037, 248.933 230.506, 243.551 220.099 C 240.601 214.394, 232.853 212.258, 226.881 215.503 " stroke="none" fill="black" fill-rule="evenodd"/>
</svg>