<svg xmlns="http://www.w3.org/2000/svg" width="436" height="324" viewBox="0 0 436 324" version="1.1">
	<path d="M 167.571 127.571 C 166.199 128.944, 166 133.887, 166 166.664 L 166 204.185 160.952 199.646 C 152.756 192.278, 141.372 188.967, 131.295 191.021 C 119.593 193.406, 110.249 200.860, 105.216 211.825 C 101.512 219.894, 101.512 231.106, 105.216 239.175 C 115.323 261.196, 142.671 267.485, 160.413 251.868 C 165.949 246.994, 169.273 241.582, 171.692 233.500 C 173.294 228.145, 173.517 222.245, 173.762 178.599 C 174.013 134.042, 173.889 129.535, 172.364 127.849 C 170.322 125.593, 169.592 125.551, 167.571 127.571 M 231.230 159.285 C 212.953 177.591, 198 193.084, 198 193.713 C 198 195.205, 200.812 197.999, 202.321 198.005 C 202.970 198.008, 217.531 183.911, 234.680 166.679 L 265.861 135.348 296.180 165.737 C 312.856 182.450, 327.316 196.578, 328.314 197.132 C 330.593 198.397, 333.227 196.472, 332.798 193.855 C 332.463 191.810, 267.235 126, 265.543 126 C 264.947 126, 249.506 140.978, 231.230 159.285 M 391.750 127.080 C 390.207 127.979, 390 129.866, 390 143.050 L 390 158 375.934 158 C 361.308 158, 358 158.738, 358 162 C 358 165.262, 361.308 166, 375.934 166 L 390 166 390 212.965 C 390 259.391, 390.024 259.942, 392.064 261.034 C 396.971 263.661, 397 263.383, 397 212.904 L 397 166.052 412.142 165.776 C 425.291 165.536, 427.430 165.270, 428.387 163.750 C 429.191 162.475, 429.191 161.525, 428.387 160.250 C 427.430 158.730, 425.291 158.464, 412.142 158.224 L 397 157.948 397 143.174 C 397 126.586, 396.297 124.432, 391.750 127.080 M 33.384 159.412 C 15.475 163.758, 3.559 181.807, 6.987 199.396 C 9.923 214.467, 20.510 225.032, 35.660 228.013 C 46.748 230.194, 59.444 225.749, 67.399 216.901 C 85.210 197.091, 75.186 165.489, 49.147 159.360 C 42.397 157.772, 40.111 157.779, 33.384 159.412 M 264 158.976 C 262.851 159.700, 262.383 162.752, 262 172.011 L 261.500 184.101 255.840 179.050 C 252.727 176.273, 249.946 174, 249.661 174 C 248.731 174, 246 177.117, 246 178.178 C 246 178.747, 249.226 182.540, 253.169 186.607 L 260.338 194 253.169 201.393 C 249.226 205.460, 246 209.253, 246 209.822 C 246 210.960, 248.759 214, 249.792 214 C 250.150 214, 253.043 211.427, 256.221 208.281 L 262 202.563 262 214.710 C 262 224.420, 262.315 227.172, 263.571 228.429 C 265.678 230.535, 266.598 230.412, 268.443 227.777 C 269.622 226.095, 270 222.900, 270 214.632 L 270 203.710 275.440 208.855 C 281.246 214.346, 281.931 214.669, 283.800 212.800 C 286.049 210.551, 285.003 208.550, 277.775 201.274 L 270.550 194 277.775 186.726 C 285.003 179.450, 286.049 177.449, 283.800 175.200 C 281.931 173.331, 281.246 173.654, 275.440 179.145 L 270 184.290 270 173.368 C 270 165.100, 269.622 161.905, 268.443 160.223 C 266.714 157.753, 266.179 157.603, 264 158.976 M 31.054 167.728 C 25.018 169.859, 17.781 177.260, 15.667 183.463 C 11.995 194.241, 14.382 205.477, 21.952 213.048 C 32.761 223.857, 50.503 223.777, 61.125 212.872 C 78.475 195.060, 65.904 165.727, 41.072 166.079 C 38.007 166.122, 33.499 166.864, 31.054 167.728 M 127.463 199.591 C 121.971 201.541, 116.552 206.205, 113.249 211.824 C 110.800 215.989, 110.500 217.483, 110.500 225.500 C 110.500 233.517, 110.800 235.011, 113.249 239.176 C 118.461 248.043, 127.176 253, 137.552 253 C 148.593 253, 157.089 247.627, 162.080 237.488 C 164.890 231.782, 165.186 230.354, 164.817 224.295 C 164.582 220.431, 163.571 215.775, 162.474 213.500 C 159.729 207.807, 152.825 201.469, 147.329 199.597 C 141.635 197.656, 132.919 197.654, 127.463 199.591 " stroke="none" fill="black" fill-rule="evenodd"/>
</svg>