<svg xmlns="http://www.w3.org/2000/svg" width="164" height="324" viewBox="0 0 164 324" version="1.1">
	<path d="M 88.200 127.200 C 87.540 127.860, 87 129.092, 87 129.938 C 87 130.784, 93.862 138.356, 102.250 146.765 L 117.500 162.054 102.053 177.369 C 93.556 185.793, 86.449 193.153, 86.258 193.726 C 85.496 196.013, 89.165 198, 94.149 198 L 99.156 198 95.583 202.174 C 89.029 209.831, 87.500 214.243, 87.500 225.500 C 87.500 237.439, 89.526 242.608, 97.223 250.313 C 114.370 267.478, 143.420 262.026, 153.583 239.734 C 157.617 230.886, 157.650 220.110, 153.670 211.500 C 152.144 208.200, 149.253 203.813, 147.245 201.750 L 143.594 198 149.597 198 C 155.655 198, 158 196.901, 158 194.062 C 158 193.216, 151.143 185.656, 142.762 177.262 L 127.524 162 142.762 146.738 C 151.143 138.344, 158 130.710, 158 129.773 C 158 128.837, 157.040 127.557, 155.868 126.929 C 153.921 125.887, 152.376 127.144, 138.118 141.376 L 122.500 156.963 106.936 141.482 C 98.376 132.967, 90.928 126, 90.386 126 C 89.844 126, 88.860 126.540, 88.200 127.200 M 23.200 128.200 C 21.137 130.263, 21.835 131.616, 27.426 136.392 C 37.187 144.731, 45.308 157.191, 50.004 171.033 C 53.148 180.300, 53.884 198.890, 51.531 209.617 C 48.187 224.869, 38.731 240.949, 27.426 250.608 C 21.892 255.336, 20.851 257.801, 23.472 259.977 C 25.490 261.651, 30.021 258.765, 37.121 251.280 C 69.507 217.144, 68.124 164.254, 34.021 132.680 C 27.863 126.979, 25.429 125.971, 23.200 128.200 M 23.200 159.200 C 21.282 161.118, 21.750 162.629, 25.991 168.230 C 37.008 182.778, 36.798 203.393, 25.480 218.486 C 20.775 224.761, 20.551 225.683, 23.310 227.423 C 25.588 228.861, 27.577 227.524, 32.257 221.409 C 45.487 204.123, 44.434 178.092, 29.831 161.460 C 26.596 157.776, 25.126 157.274, 23.200 159.200 M 111 178.500 L 99.533 190 122.500 190 L 145.467 190 134 178.500 C 127.693 172.175, 122.518 167, 122.500 167 C 122.482 167, 117.307 172.175, 111 178.500 M 7.250 174.662 C 5.299 175.450, 5.829 179.121, 8.526 183.500 C 12.225 189.506, 11.984 197.056, 7.888 203.515 C 4.455 208.929, 4.844 211.500, 9.099 211.500 C 12.054 211.500, 17.408 203.101, 18.398 196.915 C 19.530 189.835, 16.733 180.733, 11.959 175.959 C 9.945 173.945, 9.400 173.795, 7.250 174.662 M 112.316 199.326 C 101.479 203.321, 94 214.009, 94 225.500 C 94 237.574, 102.421 248.894, 113.769 252.074 C 116.192 252.753, 120.825 253.047, 124.479 252.754 C 138.871 251.598, 149.250 240.200, 149.250 225.549 C 149.250 214.353, 142.923 204.593, 132.637 199.922 C 127.887 197.766, 117.384 197.457, 112.316 199.326 M 120.200 223.200 C 118.111 225.289, 119.447 230, 122.129 230 C 123.139 230, 126 227.044, 126 226 C 126 224.956, 123.139 222, 122.129 222 C 121.728 222, 120.860 222.540, 120.200 223.200 " stroke="none" fill="black" fill-rule="evenodd"/>
</svg>