<svg xmlns="http://www.w3.org/2000/svg" width="372" height="324" viewBox="0 0 372 324" version="1.1">
	<path d="M 7.571 127.571 C 6.175 128.968, 6 136.406, 6 194.371 C 6 243.771, 6.291 259.891, 7.200 260.800 C 8.935 262.535, 139.065 262.535, 140.800 260.800 C 141.709 259.891, 142 243.771, 142 194.371 C 142 136.406, 141.825 128.968, 140.429 127.571 C 139.564 126.707, 138.471 126, 138 126 C 137.529 126, 136.436 126.707, 135.571 127.571 C 134.176 128.966, 134 136.152, 134 191.571 L 134 254 74 254 L 14 254 14 191.571 C 14 136.152, 13.824 128.966, 12.429 127.571 C 11.564 126.707, 10.471 126, 10 126 C 9.529 126, 8.436 126.707, 7.571 127.571 M 231.247 191.253 C 195.361 227.142, 166 257.202, 166 258.053 C 166 261.989, 166.184 262, 234 262 C 283.689 262, 299.891 261.709, 300.800 260.800 C 301.709 259.891, 302 243.689, 302 194 C 302 126.169, 301.990 126, 298.047 126 C 297.193 126, 267.133 155.364, 231.247 191.253 M 342.667 126.667 C 341.220 128.113, 342.142 131.392, 345.016 135.020 C 346.675 137.115, 349.262 141.454, 350.766 144.664 C 353.201 149.861, 353.500 151.650, 353.500 161 C 353.500 173.815, 351.879 177.881, 341.128 192.043 C 328.307 208.930, 325.251 223.790, 331.102 240.796 C 335.828 254.532, 347.302 265.926, 349.484 259.049 C 349.924 257.665, 348.848 255.557, 345.777 251.787 C 338.421 242.756, 336.508 237.230, 336.504 225 C 336.499 212.186, 338.118 208.122, 348.872 193.957 C 361.702 177.059, 364.749 162.211, 358.886 145.169 C 354.807 133.313, 346.031 123.302, 342.667 126.667 M 236.500 197 L 179.507 254 236.753 254 L 294 254 294 197 C 294 165.650, 293.886 140, 293.747 140 C 293.607 140, 267.846 165.650, 236.500 197 " stroke="none" fill="black" fill-rule="evenodd"/>
</svg>