<svg xmlns="http://www.w3.org/2000/svg" width="148" height="324" viewBox="0 0 148 324" version="1.1">
	<path d="M 23.200 128.200 C 22.540 128.860, 22 129.798, 22 130.285 C 22 130.772, 25.524 134.619, 29.830 138.835 C 38.917 147.730, 45.746 158.600, 49.724 170.500 C 52.143 177.735, 52.401 179.935, 52.421 193.500 C 52.442 207.345, 52.230 209.116, 49.666 216.500 C 45.256 229.203, 39.490 238.461, 30.250 247.671 C 25.712 252.195, 22 256.539, 22 257.325 C 22 258.112, 22.679 259.319, 23.509 260.007 C 25.559 261.709, 31.329 257.675, 38.997 249.179 C 68.326 216.683, 67.158 166.613, 36.340 135.293 C 28.381 127.204, 25.663 125.737, 23.200 128.200 M 23.250 158.662 C 21.097 159.531, 21.875 162.819, 25.293 167.297 C 35.820 181.088, 36.897 199.766, 28.016 214.500 C 26.358 217.250, 24.081 220.647, 22.955 222.049 C 18.313 227.834, 24.727 230.353, 29.694 224.696 C 45.147 207.096, 45.147 178.904, 29.694 161.304 C 26.858 158.075, 25.791 157.637, 23.250 158.662 M 103.571 159.571 C 101.243 161.900, 101.243 194.100, 103.571 196.429 C 105.457 198.315, 106.219 198.381, 107.800 196.800 C 109.488 195.112, 109.488 160.888, 107.800 159.200 C 106.219 157.619, 105.457 157.685, 103.571 159.571 M 7.250 174.662 C 5.299 175.450, 5.829 179.121, 8.526 183.500 C 12.225 189.506, 11.984 197.056, 7.888 203.515 C 4.532 208.807, 4.806 211.217, 8.832 211.817 C 11.596 212.229, 16.450 204.790, 17.935 197.868 C 19.530 190.428, 16.938 180.938, 11.947 175.947 C 9.945 173.945, 9.398 173.795, 7.250 174.662 M 100.764 206.974 C 95.141 208.712, 91.139 212.079, 88.571 217.234 C 85.329 223.740, 85.334 227.271, 88.597 233.818 C 94.612 245.889, 109.904 248.150, 119.186 238.339 C 122.606 234.725, 124 231.007, 124 225.500 C 124 215.437, 117.544 208.074, 107.500 206.682 C 105.300 206.377, 102.269 206.508, 100.764 206.974 M 97.997 216.750 C 89.697 224.272, 94.509 237, 105.654 237 C 113.137 237, 118.064 230.484, 116.576 222.554 C 115.057 214.459, 104.251 211.083, 97.997 216.750 " stroke="none" fill="black" fill-rule="evenodd"/>
</svg>