<svg xmlns="http://www.w3.org/2000/svg" width="436" height="324" viewBox="0 0 436 324" version="1.1">
	<path d="M 135.571 127.571 C 134.176 128.966, 134 136.152, 134 191.571 L 134 254 119.571 254 C 107.788 254, 104.855 254.288, 103.571 255.571 C 101.598 257.545, 101.598 258.455, 103.571 260.429 C 104.936 261.793, 109.456 262, 137.916 262 C 169.420 262, 170.760 261.922, 172.500 260 C 174.247 258.070, 174.247 257.930, 172.500 256 C 170.850 254.177, 169.420 254, 156.345 254 L 142 254 142 191.571 C 142 136.152, 141.824 128.966, 140.429 127.571 C 139.564 126.707, 138.471 126, 138 126 C 137.529 126, 136.436 126.707, 135.571 127.571 M 231.656 126.750 C 227.525 133.458, 198.200 194.358, 198.600 195.400 C 199.451 197.618, 202.109 198.213, 203.895 196.584 C 204.778 195.779, 211.794 182.493, 219.486 167.060 C 227.178 151.627, 233.709 139, 234 139 C 234.290 139, 241.036 152.041, 248.990 167.980 C 256.944 183.919, 264.083 197.201, 264.853 197.497 C 266.717 198.213, 269 196.217, 269 193.871 C 269 191.637, 237.272 127.833, 235.630 126.765 C 234.160 125.809, 232.240 125.802, 231.656 126.750 M 295.627 127.515 C 294.732 128.411, 294 129.529, 294 130 C 294 132.054, 297.416 134, 301.022 134 C 307.669 134, 315.178 136.026, 323.820 140.153 C 339.079 147.438, 350.717 161.754, 355.003 178.511 C 357.659 188.896, 357.616 191, 354.750 191.001 C 351.066 191.002, 340.565 196.502, 336.516 200.551 C 334.441 202.625, 331.347 207.288, 329.639 210.911 C 326.975 216.567, 326.535 218.633, 326.535 225.500 C 326.535 232.367, 326.975 234.433, 329.639 240.089 C 333.569 248.429, 338.576 253.439, 346.854 257.312 C 355.230 261.232, 365.294 261.501, 374.297 258.046 C 381.339 255.343, 389.582 247.643, 392.965 240.605 C 395.819 234.671, 396.802 223.258, 395.061 216.290 C 392.362 205.490, 382.629 195.385, 371.884 192.228 C 366.081 190.523, 366.003 190.451, 366.001 186.802 C 365.999 181.104, 370.554 167.998, 374.821 161.422 C 385.120 145.551, 404.865 134, 421.694 134 C 426.803 134, 429 132.774, 429 129.922 C 429 126.353, 426.589 125.734, 417.439 126.951 C 402.046 129, 389.635 134.834, 379.014 145.015 C 372.487 151.271, 365.731 161.173, 363.278 168.079 L 361.619 172.752 357.183 163.678 C 349.096 147.136, 331.855 132.998, 314.500 128.680 C 303.983 126.063, 297.481 125.661, 295.627 127.515 M 7.571 191.571 C 6.707 192.436, 6 193.640, 6 194.249 C 6 194.857, 12.844 202.250, 21.208 210.677 L 36.416 226 21.208 241.323 C 12.844 249.750, 6 257.143, 6 257.751 C 6 259.181, 8.819 262, 10.249 262 C 10.857 262, 18.250 255.156, 26.677 246.792 L 42 231.584 57.323 246.792 C 65.750 255.156, 73.143 262, 73.751 262 C 75.181 262, 78 259.181, 78 257.751 C 78 257.143, 71.156 249.750, 62.792 241.323 L 47.584 226 62.792 210.677 C 71.156 202.250, 78 194.857, 78 194.249 C 78 192.819, 75.181 190, 73.751 190 C 73.143 190, 65.750 196.844, 57.323 205.208 L 42 220.416 26.677 205.208 C 18.250 196.844, 10.857 190, 10.249 190 C 9.640 190, 8.436 190.707, 7.571 191.571 M 231.656 190.750 C 227.525 197.458, 198.200 258.358, 198.600 259.400 C 199.451 261.618, 202.109 262.213, 203.895 260.584 C 204.778 259.779, 211.794 246.493, 219.486 231.060 C 227.178 215.627, 233.709 203, 234 203 C 234.290 203, 241.036 216.041, 248.990 231.980 C 256.944 247.919, 264.083 261.201, 264.853 261.497 C 266.717 262.213, 269 260.217, 269 257.871 C 269 255.637, 237.272 191.833, 235.630 190.765 C 234.160 189.809, 232.240 189.802, 231.656 190.750 M 351.603 199.477 C 343.528 202.354, 343.594 203.079, 352.764 212.249 L 360.985 220.470 369.503 211.997 C 378.013 203.531, 378.018 203.522, 375.818 201.863 C 370.670 197.980, 359.024 196.832, 351.603 199.477 M 338.192 210.269 C 333.641 215.752, 332.462 228.735, 335.824 236.335 C 336.896 238.759, 338.194 241.002, 338.709 241.320 C 339.224 241.638, 343.325 238.199, 347.823 233.678 L 356.001 225.457 347.671 217.170 C 340.884 210.419, 339.128 209.140, 338.192 210.269 M 374.727 216.772 C 370.477 221.047, 367 224.995, 367 225.546 C 367 226.667, 382.144 242, 383.252 242 C 383.641 242, 384.973 240.088, 386.212 237.750 C 388.008 234.363, 388.465 231.875, 388.465 225.500 C 388.465 219.125, 388.008 216.637, 386.212 213.250 C 384.973 210.912, 383.620 209, 383.206 209 C 382.792 209, 378.976 212.497, 374.727 216.772 M 352.477 239.059 L 344.500 247.118 346.830 249.034 C 352.486 253.685, 364.578 254.341, 372.937 250.449 L 378.375 247.918 369.959 239.459 C 365.331 234.807, 361.299 231, 360.999 231 C 360.699 231, 356.864 234.627, 352.477 239.059 " stroke="none" fill="black" fill-rule="evenodd"/>
</svg>