<svg xmlns="http://www.w3.org/2000/svg" width="372" height="324" viewBox="0 0 372 324" version="1.1">
	<path d="M 7.571 127.571 C 6.175 128.968, 6 136.372, 6 194 C 6 251.628, 6.175 259.032, 7.571 260.429 C 8.968 261.825, 16.372 262, 74 262 C 131.628 262, 139.032 261.825, 140.429 260.429 C 141.825 259.032, 142 251.628, 142 194 C 142 136.372, 141.825 128.968, 140.429 127.571 C 139.032 126.175, 131.628 126, 74 126 C 16.372 126, 8.968 126.175, 7.571 127.571 M 353.608 132.122 C 341.685 143.048, 332.326 158.975, 328.414 175 C 325.835 185.565, 326.053 202.797, 328.902 213.500 C 333.211 229.687, 341.798 244.056, 353.656 254.922 C 360.563 261.251, 363.264 262.146, 365.360 258.802 C 366.248 257.386, 364.990 255.698, 357.789 248.642 C 342.306 233.469, 335.173 217.792, 334.293 197 C 333.292 173.352, 340.045 156.260, 357.250 138.896 C 362.063 134.039, 366 129.858, 366 129.604 C 366 128.615, 362.789 126, 361.573 126 C 360.867 126, 357.283 128.755, 353.608 132.122 M 14 194 L 14 254 74 254 L 134 254 134 194 L 134 134 74 134 L 14 134 14 194 M 71.571 159.571 C 69.243 161.900, 69.243 194.100, 71.571 196.429 C 72.436 197.293, 73.529 198, 74 198 C 74.471 198, 75.564 197.293, 76.429 196.429 C 78.757 194.100, 78.757 161.900, 76.429 159.571 C 75.564 158.707, 74.471 158, 74 158 C 73.529 158, 72.436 158.707, 71.571 159.571 M 167.491 191.652 C 166.141 193.002, 165.968 194.418, 166.543 199.402 C 168.546 216.744, 174.065 228.143, 186.461 240.539 C 200.540 254.618, 214.163 260.346, 233.500 260.319 C 245.257 260.302, 253.266 258.438, 264 253.222 C 274.535 248.103, 288.070 234.580, 293.249 224 C 299.286 211.664, 302.555 194.697, 299.485 191.627 C 298.589 190.732, 297.471 190, 297 190 C 294.878 190, 292.999 193.426, 292.985 197.321 C 292.918 216.426, 278.562 237.897, 259.899 246.809 C 249.982 251.545, 243.668 253.005, 233.201 252.985 C 216.896 252.954, 203.178 247.209, 191.484 235.516 C 180.855 224.887, 174.060 210.029, 174.015 197.321 C 174.001 193.426, 172.122 190, 170 190 C 169.529 190, 168.399 190.743, 167.491 191.652 M 68.648 206.983 C 49.573 212.993, 50.128 238.779, 69.447 244.113 C 78.793 246.694, 89.232 239.988, 92.113 229.553 C 95.637 216.790, 81.298 202.997, 68.648 206.983 M 65.400 217.400 C 62.498 220.302, 62 221.488, 62 225.500 C 62 229.512, 62.498 230.698, 65.400 233.600 C 68.302 236.502, 69.488 237, 73.500 237 C 77.512 237, 78.698 236.502, 81.600 233.600 C 84.502 230.698, 85 229.512, 85 225.500 C 85 221.488, 84.502 220.302, 81.600 217.400 C 78.698 214.498, 77.512 214, 73.500 214 C 69.488 214, 68.302 214.498, 65.400 217.400 " stroke="none" fill="black" fill-rule="evenodd"/>
</svg>