<svg xmlns="http://www.w3.org/2000/svg" width="212" height="324" viewBox="0 0 212 324" version="1.1">
	<path d="M 195.631 130.523 C 192.577 133.011, 187.561 138.263, 184.484 142.195 C 160.999 172.211, 160.999 214.789, 184.484 244.805 C 191.251 253.453, 200.441 261.223, 203.403 260.800 C 207.204 260.257, 206.666 256.164, 202.335 252.679 C 180.286 234.942, 169.885 205.989, 175.580 178.208 C 179.107 161.007, 187.578 147.036, 202.250 134.226 C 206.441 130.566, 206.683 129.826, 204.429 127.571 C 202.206 125.349, 201.825 125.477, 195.631 130.523 M 71.655 159.829 C 70.256 161.375, 70 164.209, 70 178.174 C 70 192.904, 70.198 194.869, 71.829 196.345 C 74.085 198.387, 74.463 198.394, 76.429 196.429 C 78.757 194.100, 78.757 161.900, 76.429 159.571 C 74.411 157.554, 73.678 157.594, 71.655 159.829 M 7.515 191.627 C 5.684 193.459, 6.060 199.976, 8.580 210.093 C 14.265 232.914, 33.652 252.321, 57 258.566 C 65.641 260.877, 81.343 260.879, 90 258.571 C 117.474 251.245, 137.485 227.994, 140.494 199.903 C 141.076 194.470, 140.909 193.052, 139.527 191.670 C 138.609 190.751, 137.465 190, 136.985 190 C 135.158 190, 133 194.610, 133 198.512 C 133 200.749, 132.305 205.246, 131.457 208.505 C 126.093 229.098, 109.039 246.048, 88.269 251.430 C 80.634 253.409, 67.422 253.423, 59.103 251.463 C 34.887 245.754, 14.098 220.791, 14.015 197.321 C 14.001 193.426, 12.122 190, 10 190 C 9.529 190, 8.411 190.732, 7.515 191.627 M 67.637 207.420 C 59.749 210.324, 54.714 217.368, 54.714 225.500 C 54.714 231.506, 56.634 235.594, 61.436 239.809 C 77.186 253.639, 100.295 234.480, 89.971 216.152 C 85.637 208.458, 75.540 204.510, 67.637 207.420 M 65.400 217.400 C 62.498 220.302, 62 221.488, 62 225.500 C 62 229.512, 62.498 230.698, 65.400 233.600 C 68.302 236.502, 69.488 237, 73.500 237 C 77.512 237, 78.698 236.502, 81.600 233.600 C 84.502 230.698, 85 229.512, 85 225.500 C 85 221.488, 84.502 220.302, 81.600 217.400 C 78.698 214.498, 77.512 214, 73.500 214 C 69.488 214, 68.302 214.498, 65.400 217.400 " stroke="none" fill="black" fill-rule="evenodd"/>
</svg>