<svg xmlns="http://www.w3.org/2000/svg" width="403" height="324" viewBox="0 0 403 324" version="1.1">
	<path d="M 40.316 62.784 C 38.369 64.022, 22.007 97.855, 22.604 99.410 C 23.269 101.144, 25.524 102.120, 27.295 101.440 C 28.007 101.167, 31.480 95.106, 35.014 87.972 C 38.547 80.837, 41.691 75, 42 75 C 42.309 75, 45.453 80.837, 48.986 87.972 C 52.520 95.106, 55.993 101.167, 56.705 101.440 C 58.487 102.124, 60.732 101.141, 61.407 99.381 C 61.997 97.844, 45.582 64.037, 43.628 62.765 C 42.214 61.845, 41.789 61.847, 40.316 62.784 M 231.750 127.080 C 230.148 128.013, 230 130.520, 230 156.786 L 230 185.473 216.131 171.631 C 203.495 159.019, 202.073 157.890, 200.131 158.930 C 198.959 159.557, 198 160.836, 198 161.772 C 198 162.708, 203.956 169.442, 211.236 176.737 L 224.472 190 164.808 190 C 111.900 190, 104.965 190.178, 103.571 191.571 C 101.598 193.545, 101.598 194.455, 103.571 196.429 C 104.965 197.822, 111.900 198, 164.808 198 L 224.472 198 211.236 211.263 C 203.956 218.558, 198 225.292, 198 226.228 C 198 227.164, 198.959 228.443, 200.131 229.070 C 202.073 230.110, 203.495 228.981, 216.131 216.369 L 230 202.527 230 231.228 C 230 259.433, 230.037 259.949, 232.117 261.062 C 237.076 263.716, 237.023 264.441, 237.023 194.069 C 237.023 123.438, 237.066 123.984, 231.750 127.080 M 327.750 127.080 C 326.143 128.016, 326 130.628, 326 159.050 L 326 190 295.200 190 C 272.578 190, 264.081 190.319, 263.200 191.200 C 260.276 194.124, 263.104 210.476, 268.499 221.836 C 277.210 240.179, 293.159 253.378, 313 258.664 C 323.094 261.354, 338.398 260.916, 348.521 257.647 C 368.489 251.200, 384.972 235.780, 391.696 217.256 C 395.053 208.009, 397.475 193.277, 395.943 191.431 C 394.959 190.246, 389.442 190, 363.878 190 L 333 190 333 159.200 C 333 125.561, 332.770 124.156, 327.750 127.080 M 7.571 159.571 C 6.207 160.936, 6 165.463, 6 194 C 6 222.537, 6.207 227.064, 7.571 228.429 C 8.936 229.793, 13.463 230, 42 230 C 70.537 230, 75.064 229.793, 76.429 228.429 C 77.793 227.064, 78 222.537, 78 194 C 78 165.463, 77.793 160.936, 76.429 159.571 C 75.064 158.207, 70.537 158, 42 158 C 13.463 158, 8.936 158.207, 7.571 159.571 M 14 194 L 14 222 42 222 L 70 222 70 194 L 70 166 42 166 L 14 166 14 194 M 270.012 200.750 C 270.031 205.146, 272.669 213.879, 276.115 220.955 C 280.504 229.968, 292.995 242.290, 302.295 246.782 C 313 251.953, 319.819 253.318, 331.988 252.725 C 344.278 252.127, 351.893 249.808, 361.088 243.865 C 375.722 234.406, 385.189 219.627, 388.385 201.250 L 388.950 198 329.475 198 L 270 198 270.012 200.750 " stroke="none" fill="black" fill-rule="evenodd"/>
</svg>