<svg xmlns="http://www.w3.org/2000/svg" width="500" height="324" viewBox="0 0 500 324" version="1.1">
	<path d="M 63.870 127.071 C 48.893 129.271, 37.652 135.158, 25.974 146.916 C 12.475 160.507, 6.696 174.473, 6.696 193.500 C 6.696 211.262, 12.336 225.803, 24.119 238.420 C 43.010 258.649, 69.445 265.609, 94.863 257.046 C 110.473 251.788, 125.724 238.489, 132.861 223.913 C 138.346 212.711, 140 205.664, 140 193.500 C 140 174.879, 133.913 159.885, 121.121 146.995 C 109.603 135.389, 97.653 129.243, 82.284 127.020 C 74.551 125.902, 71.772 125.910, 63.870 127.071 M 223.500 127.053 C 206.917 129.545, 191.814 138.428, 180.779 152.178 C 170.828 164.577, 166.553 176.995, 166.553 193.500 C 166.553 210.065, 170.823 222.417, 180.882 234.950 C 193.985 251.277, 212.270 260.267, 232.500 260.329 C 244.540 260.365, 251.670 258.726, 262.858 253.348 C 278.467 245.846, 290.490 232.207, 296.810 214.835 C 299.224 208.197, 299.478 206.169, 299.478 193.500 C 299.478 180.831, 299.224 178.803, 296.810 172.165 C 292.876 161.352, 288.413 154.417, 279.858 145.825 C 273.608 139.548, 270.511 137.336, 262.858 133.683 C 257.711 131.226, 251.475 128.753, 249 128.187 C 242.007 126.589, 230.107 126.059, 223.500 127.053 M 450.932 127.009 C 436.339 129.479, 424.079 142.523, 422.368 157.400 C 421.792 162.411, 421.959 163.497, 423.483 164.611 C 426.491 166.811, 428.646 164.728, 429.423 158.869 C 430.357 151.830, 432.090 148.015, 436.653 142.954 C 447.739 130.656, 466.708 130.909, 477.793 143.502 C 481.736 147.981, 485 155.555, 485 160.224 C 485 161.247, 484.297 165.487, 483.438 169.646 C 476.804 201.763, 457.513 230.558, 430.660 248.423 C 421.296 254.653, 420.031 256.128, 422.011 258.513 C 423.978 260.884, 425.666 260.342, 434.847 254.391 C 445.376 247.565, 463.554 229.578, 470.386 219.225 C 483.506 199.343, 493.133 171.268, 491.675 157.142 C 489.720 138.198, 470.186 123.751, 450.932 127.009 M 57.500 135.870 C 37.243 141.701, 20.813 158.496, 15.570 178.731 C 13.552 186.516, 13.560 200.505, 15.585 208.356 C 18.169 218.372, 23.639 227.725, 31.459 235.500 C 35.332 239.350, 39.936 243.298, 41.692 244.272 L 44.884 246.045 42.522 241.772 C 38.909 235.240, 37.541 226.549, 39 219.396 C 43.824 195.736, 68.038 183.810, 89.500 194.524 C 95.449 197.494, 97.544 199.228, 101.391 204.371 C 109.632 215.388, 110.483 232.702, 103.321 243.633 L 101.504 246.406 104.968 244.453 C 106.874 243.379, 111.641 239.329, 115.561 235.454 C 126.986 224.160, 133 209.692, 133 193.500 C 133 166.498, 114.337 142.288, 88.356 135.585 C 80.226 133.488, 65.296 133.625, 57.500 135.870 M 218.072 135.591 C 204.561 139.223, 191.183 148.984, 183.075 161.126 C 170.701 179.656, 170.701 207.344, 183.075 225.874 C 194.503 242.987, 212.806 253, 232.661 253 C 243.627 253, 249.896 251.592, 259.500 246.970 C 269.464 242.176, 276.487 236.046, 282.761 226.665 C 289.900 215.991, 292.500 207.138, 292.500 193.500 C 292.500 184.542, 292.047 181.117, 290.060 175.050 C 287.087 165.970, 279.695 154.653, 272.701 148.474 C 266.665 143.141, 253.832 136.660, 246.201 135.090 C 238.879 133.584, 224.591 133.838, 218.072 135.591 M 354.355 158.998 C 344.092 161.132, 333.005 170.156, 328.910 179.709 C 321.493 197.014, 329.743 217.659, 347.218 225.526 C 361.299 231.865, 379.322 227.445, 388.508 215.400 C 403.051 196.334, 395.202 168.333, 373.132 160.547 C 367.788 158.661, 359.330 157.964, 354.355 158.998 M 349.500 168.353 C 343.873 170.979, 337.871 177.089, 335.378 182.728 C 334.360 185.030, 333.694 189.228, 333.668 193.500 C 333.619 201.554, 336.412 208.196, 342.161 213.693 C 355.541 226.490, 378.644 221.954, 386.385 205.011 C 389.211 198.826, 389.211 188.174, 386.385 181.989 C 380.156 168.356, 363.048 162.031, 349.500 168.353 M 231.616 191.527 C 230.727 192.416, 230 193.529, 230 194 C 230 195.389, 233.140 198.120, 234.295 197.735 C 236.395 197.035, 237.549 194.094, 236.423 192.310 C 234.905 189.902, 233.474 189.669, 231.616 191.527 M 359.750 191.080 C 357.372 192.465, 357.542 195.685, 360.064 197.034 C 363.753 199.008, 366.819 194.219, 363.800 191.200 C 362.367 189.767, 362.022 189.757, 359.750 191.080 M 63.741 199.429 C 56 202.191, 56.035 202.488, 65.170 211.671 L 73.457 220.001 81.692 211.809 C 90.838 202.711, 90.906 202.178, 83.260 199.573 C 77.673 197.669, 68.855 197.604, 63.741 199.429 M 50.192 210.269 C 44.822 216.739, 44.585 233.593, 49.775 239.955 C 51.490 242.057, 51.548 242.021, 59.751 233.763 L 68.001 225.457 59.671 217.170 C 52.884 210.419, 51.128 209.140, 50.192 210.269 M 87.237 217.261 L 78.999 225.543 87.339 233.840 L 95.680 242.137 97.174 239.819 C 102.273 231.908, 102.255 217.967, 97.137 211.182 C 95.477 208.981, 95.471 208.984, 87.237 217.261 M 65.104 239.395 L 56.752 247.791 59.253 249.430 C 65.098 253.260, 75.372 254.115, 83.260 251.427 C 90.906 248.822, 90.838 248.289, 81.692 239.191 L 73.457 230.999 65.104 239.395 " stroke="none" fill="black" fill-rule="evenodd"/>
</svg>