<svg xmlns="http://www.w3.org/2000/svg" width="468" height="324" viewBox="0 0 468 324" version="1.1">
	<path d="M 7.571 127.571 C 6.175 128.968, 6 136.372, 6 194 C 6 251.628, 6.175 259.032, 7.571 260.429 C 8.968 261.825, 16.372 262, 74 262 C 131.628 262, 139.032 261.825, 140.429 260.429 C 141.825 259.032, 142 251.628, 142 194 C 142 136.372, 141.825 128.968, 140.429 127.571 C 139.032 126.175, 131.628 126, 74 126 C 16.372 126, 8.968 126.175, 7.571 127.571 M 353.608 132.122 C 341.887 142.862, 332.425 158.799, 328.447 174.500 C 326.032 184.032, 326.032 202.968, 328.447 212.500 C 332.432 228.226, 341.887 244.138, 353.656 254.922 C 360.627 261.310, 363.293 262.161, 365.398 258.674 C 366.342 257.111, 365.549 255.961, 359.881 250.674 C 348.106 239.691, 341.150 228.926, 336.828 215 C 334.825 208.547, 334.508 205.475, 334.560 193 C 334.614 180.057, 334.906 177.641, 337.285 170.500 C 341.319 158.391, 347.874 148.074, 357.577 138.566 C 362.210 134.026, 366 130.049, 366 129.727 C 366 128.639, 362.865 126, 361.573 126 C 360.867 126, 357.283 128.755, 353.608 132.122 M 391.571 127.571 C 390.707 128.436, 390 129.529, 390 130 C 390 130.471, 390.707 131.564, 391.571 132.429 C 392.855 133.712, 395.788 134, 407.571 134 L 422 134 422 194 L 422 254 407.571 254 C 395.788 254, 392.855 254.288, 391.571 255.571 C 390.707 256.436, 390 257.529, 390 258 C 390 258.471, 390.707 259.564, 391.571 260.429 C 392.936 261.793, 397.463 262, 426 262 C 454.537 262, 459.064 261.793, 460.429 260.429 C 461.293 259.564, 462 258.471, 462 258 C 462 257.529, 461.293 256.436, 460.429 255.571 C 459.145 254.288, 456.212 254, 444.429 254 L 430 254 430 194 L 430 134 444.429 134 C 456.212 134, 459.145 133.712, 460.429 132.429 C 461.293 131.564, 462 130.471, 462 130 C 462 129.529, 461.293 128.436, 460.429 127.571 C 459.064 126.207, 454.537 126, 426 126 C 397.463 126, 392.936 126.207, 391.571 127.571 M 14 194 L 14 254 74 254 L 134 254 134 194 L 134 134 74 134 L 14 134 14 194 M 71.571 159.571 C 69.243 161.900, 69.243 194.100, 71.571 196.429 C 72.436 197.293, 73.529 198, 74 198 C 74.471 198, 75.564 197.293, 76.429 196.429 C 78.757 194.100, 78.757 161.900, 76.429 159.571 C 75.564 158.707, 74.471 158, 74 158 C 73.529 158, 72.436 158.707, 71.571 159.571 M 167.491 191.652 C 166.141 193.002, 165.968 194.418, 166.543 199.402 C 168.546 216.744, 174.065 228.143, 186.461 240.539 C 200.524 254.602, 214.216 260.376, 233.500 260.376 C 252.784 260.376, 266.476 254.602, 280.539 240.539 C 292.935 228.143, 298.454 216.744, 300.457 199.402 C 301.032 194.418, 300.859 193.002, 299.509 191.652 C 298.601 190.743, 297.471 190, 297 190 C 294.946 190, 293 193.416, 293 197.022 C 293 216.251, 278.630 237.865, 259.899 246.809 C 250.069 251.503, 243.687 253, 233.500 253 C 223.313 253, 216.931 251.503, 207.101 246.809 C 188.438 237.897, 174.082 216.426, 174.015 197.321 C 174.001 193.426, 172.122 190, 170 190 C 169.529 190, 168.399 190.743, 167.491 191.652 M 68.764 206.952 C 52.236 212.193, 49.408 233.666, 64.152 241.971 C 80.805 251.352, 99.352 232.805, 89.971 216.152 C 85.968 209.045, 75.915 204.684, 68.764 206.952 M 65.400 217.400 C 62.498 220.302, 62 221.488, 62 225.500 C 62 229.512, 62.498 230.698, 65.400 233.600 C 68.302 236.502, 69.488 237, 73.500 237 C 77.512 237, 78.698 236.502, 81.600 233.600 C 84.502 230.698, 85 229.512, 85 225.500 C 85 221.488, 84.502 220.302, 81.600 217.400 C 78.698 214.498, 77.512 214, 73.500 214 C 69.488 214, 68.302 214.498, 65.400 217.400 " stroke="none" fill="black" fill-rule="evenodd"/>
</svg>