<svg xmlns="http://www.w3.org/2000/svg" width="148" height="324" viewBox="0 0 148 324" version="1.1">
	<path d="M 55.200 63.200 C 53.512 64.888, 53.512 99.112, 55.200 100.800 C 56.040 101.640, 61.562 102, 73.629 102 C 87.958 102, 91.122 101.736, 92.429 100.429 C 94.757 98.100, 94.757 65.900, 92.429 63.571 C 91.122 62.264, 87.958 62, 73.629 62 C 61.562 62, 56.040 62.360, 55.200 63.200 M 62 82 L 62 94 74 94 L 86 94 86 82 L 86 70 74 70 L 62 70 62 82 M 55.213 143.315 C 45.746 152.838, 38 161.131, 38 161.743 C 38 163.175, 40.813 166, 42.239 166 C 42.841 166, 49.334 160.059, 56.667 152.798 L 70 139.595 70 194 L 70 248.405 56.667 235.202 C 49.334 227.941, 42.841 222, 42.239 222 C 40.825 222, 38 224.820, 38 226.232 C 38 226.831, 43.513 232.922, 50.250 239.767 C 61.854 251.556, 62.316 252.178, 59 251.551 C 57.075 251.188, 51.675 249.048, 47 246.796 C 28.374 237.824, 14.082 216.388, 14.015 197.321 C 14.001 193.426, 12.122 190, 10 190 C 9.529 190, 8.399 190.743, 7.491 191.652 C 4.366 194.777, 7.569 211.386, 13.692 223.806 C 17.868 232.277, 28.278 243.999, 36.433 249.412 C 43.520 254.116, 55.137 258.705, 62 259.513 C 65.025 259.869, 68.773 260.563, 70.328 261.055 C 72.027 261.593, 74.822 261.572, 77.328 261.002 C 79.623 260.480, 84.425 259.509, 88 258.843 C 105.562 255.574, 124.610 240.762, 132.824 223.988 C 137.730 213.968, 140 205.720, 140 197.912 C 140 191.365, 138.434 189.162, 135.064 190.966 C 133.484 191.811, 132.997 193.060, 132.985 196.285 C 132.962 202.808, 130.264 212.798, 126.444 220.500 C 118.887 235.738, 105.957 246.160, 88 251.487 C 86.277 251.998, 89.153 248.511, 97.250 240.271 C 104.175 233.224, 109 227.511, 109 226.357 C 109 224.278, 107.240 222, 105.633 222 C 105.101 222, 98.666 227.941, 91.333 235.202 L 78 248.405 78 194 L 78 139.595 91.333 152.798 C 98.666 160.059, 105.136 166, 105.710 166 C 107.591 166, 109.235 163.074, 108.654 160.763 C 107.960 158.006, 75.957 126, 73.894 126 C 73.086 126, 64.680 133.792, 55.213 143.315 " stroke="none" fill="black" fill-rule="evenodd"/>
</svg>