<svg xmlns="http://www.w3.org/2000/svg" width="403" height="324" viewBox="0 0 403 324" version="1.1">
	<path d="M 35.650 127.077 C 20.406 129.547, 8.781 142.032, 6.666 158.204 C 6.069 162.769, 7.451 166, 10 166 C 12.118 166, 14.002 162.572, 14.022 158.679 C 14.087 146.289, 25.387 135.206, 38.941 134.236 C 48.344 133.564, 54.965 135.870, 61.024 141.929 C 68.970 149.875, 70.480 157.635, 67.070 173 C 59.995 204.884, 39.634 233.540, 11.719 250.901 C 6.893 253.903, 5.979 254.915, 6.216 257 C 6.708 261.327, 10.018 260.569, 20.108 253.820 C 31.208 246.397, 45.549 232.487, 52.917 222 C 67.156 201.733, 77.910 171.175, 75.933 156.603 C 73.320 137.345, 55.026 123.937, 35.650 127.077 M 167.571 127.571 C 166.198 128.945, 166 133.909, 166 166.900 L 166 204.657 161.653 200.492 C 143.835 183.419, 115.657 189.078, 105.216 211.825 C 101.512 219.894, 101.512 231.106, 105.216 239.175 C 115.397 261.356, 142.209 267.352, 160.646 251.571 C 165.409 247.494, 170.358 238.530, 171.891 231.201 C 173.512 223.457, 173.428 128.828, 171.800 127.200 C 170.219 125.619, 169.457 125.685, 167.571 127.571 M 215.213 143.315 C 205.746 152.838, 198 161.131, 198 161.743 C 198 162.951, 200.728 166, 201.808 166 C 202.175 166, 208.667 159.819, 216.237 152.263 L 230 138.527 230 199.228 C 230 256.352, 230.105 259.986, 231.776 260.880 C 232.902 261.483, 234.182 261.478, 235.276 260.866 C 236.879 259.969, 237 255.627, 237 199.246 L 237 138.592 250.913 152.378 C 263.627 164.976, 265.011 166.065, 266.973 165.014 C 268.266 164.323, 268.998 163.103, 268.811 161.953 C 268.465 159.825, 235.270 126, 233.528 126 C 232.921 126, 224.680 133.792, 215.213 143.315 M 295.724 127.134 C 294.121 128.031, 294 132.373, 294 188.754 L 294 249.408 280.087 235.622 C 267.537 223.187, 265.970 221.946, 264.087 222.953 C 262.939 223.568, 262 224.847, 262 225.796 C 262 227.590, 295.761 262, 297.521 262 C 299.266 262, 333 227.556, 333 225.775 C 333 224.837, 332.061 223.568, 330.913 222.953 C 329.030 221.946, 327.463 223.187, 314.913 235.622 L 301 249.408 301 188.739 C 301 131.647, 300.895 128.014, 299.224 127.120 C 298.098 126.517, 296.818 126.522, 295.724 127.134 M 359.724 159.134 C 358.161 160.009, 358 162.521, 358 186.015 C 358 209.816, 358.145 212.007, 359.776 212.880 C 360.902 213.483, 362.182 213.478, 363.276 212.866 C 364.839 211.991, 365 209.479, 365 185.985 C 365 162.184, 364.855 159.993, 363.224 159.120 C 362.098 158.517, 360.818 158.522, 359.724 159.134 M 126.363 199.922 C 108.978 207.817, 104.273 229.852, 116.900 244.234 C 126.172 254.794, 143.579 256.045, 155.031 246.976 C 160.751 242.445, 165 233.292, 165 225.500 C 165 214.038, 157.486 203.200, 146.965 199.488 C 141.084 197.413, 131.442 197.616, 126.363 199.922 M 359.724 222.134 C 355.838 224.309, 359.294 229.983, 363.224 227.880 C 364.201 227.357, 365 226.061, 365 225 C 365 222.485, 362.005 220.858, 359.724 222.134 " stroke="none" fill="black" fill-rule="evenodd"/>
</svg>