<svg xmlns="http://www.w3.org/2000/svg" width="532" height="324" viewBox="0 0 532 324" version="1.1">
	<path d="M 87.200 63.200 C 85.512 64.888, 85.512 99.112, 87.200 100.800 C 88.040 101.640, 93.562 102, 105.629 102 C 119.958 102, 123.122 101.736, 124.429 100.429 C 126.757 98.100, 126.757 65.900, 124.429 63.571 C 123.122 62.264, 119.958 62, 105.629 62 C 93.562 62, 88.040 62.360, 87.200 63.200 M 94 82 L 94 94 106 94 L 118 94 118 82 L 118 70 106 70 L 94 70 94 82 M 263.571 127.571 C 262.288 128.855, 262 131.788, 262 143.571 L 262 158 247.571 158 C 235.788 158, 232.855 158.288, 231.571 159.571 C 229.598 161.545, 229.598 162.455, 231.571 164.429 C 232.855 165.712, 235.788 166, 247.571 166 L 262 166 262 194 L 262 222 247.571 222 C 235.788 222, 232.855 222.288, 231.571 223.571 C 230.707 224.436, 230 225.529, 230 226 C 230 226.471, 230.707 227.564, 231.571 228.429 C 232.855 229.712, 235.788 230, 247.571 230 L 262 230 262 244.429 C 262 256.212, 262.288 259.145, 263.571 260.429 C 264.436 261.293, 265.529 262, 266 262 C 266.471 262, 267.564 261.293, 268.429 260.429 C 269.712 259.145, 270 256.212, 270 244.429 L 270 230 298 230 L 326 230 326 244.965 C 326 258.719, 326.156 260.013, 327.928 260.961 C 330.455 262.314, 332.660 261.393, 333.388 258.681 C 333.709 257.481, 333.979 250.550, 333.986 243.277 L 334 230.053 348.643 229.777 C 361.314 229.537, 363.433 229.264, 364.387 227.750 C 365.191 226.475, 365.191 225.525, 364.387 224.250 C 363.433 222.736, 361.314 222.463, 348.643 222.223 L 334 221.947 334 194 L 334 166.053 348.643 165.777 C 361.314 165.537, 363.433 165.264, 364.387 163.750 C 365.191 162.475, 365.191 161.525, 364.387 160.250 C 363.433 158.736, 361.314 158.463, 348.643 158.223 L 334 157.947 333.986 144.723 C 333.979 137.450, 333.709 130.519, 333.388 129.319 C 332.660 126.607, 330.455 125.686, 327.928 127.039 C 326.156 127.987, 326 129.281, 326 143.035 L 326 158 298 158 L 270 158 270 143.571 C 270 131.788, 269.712 128.855, 268.429 127.571 C 267.564 126.707, 266.471 126, 266 126 C 265.529 126, 264.436 126.707, 263.571 127.571 M 270 194 L 270 222 298 222 L 326 222 326 194 L 326 166 298 166 L 270 166 270 194 M 23.213 207.315 C 13.746 216.838, 6 225.131, 6 225.743 C 6 227.176, 8.814 230, 10.241 230 C 10.845 230, 17.493 223.903, 25.014 216.451 L 38.688 202.901 40.336 209.701 C 43.242 221.687, 48.391 230.442, 58.474 240.539 C 72.526 254.611, 86.233 260.389, 105.500 260.362 C 124.463 260.334, 138.493 254.513, 152.104 241.026 C 159.121 234.072, 161.531 230.840, 165.171 223.500 C 167.625 218.550, 170.233 211.662, 170.965 208.192 L 172.298 201.885 186.476 215.942 C 194.275 223.674, 201.150 230, 201.756 230 C 203.201 230, 206 227.171, 206 225.710 C 206 224.001, 171.676 189.998, 169.968 190.015 C 169.161 190.024, 168.050 190.374, 167.500 190.794 C 164.228 193.293, 134 224.832, 134 225.747 C 134 227.173, 136.814 230, 138.232 230 C 138.831 230, 144.925 224.488, 151.774 217.750 C 164.747 204.988, 164.991 204.940, 160.609 216.008 C 151.818 238.210, 129.747 253.030, 105.540 252.985 C 88.871 252.955, 75.302 247.312, 63.394 235.458 C 57.991 230.080, 55.307 226.360, 52.198 219.942 C 49.950 215.299, 47.813 209.925, 47.449 208 C 46.826 204.696, 47.513 205.213, 59.730 217.250 C 66.848 224.262, 73.164 230, 73.765 230 C 75.187 230, 78 227.173, 78 225.743 C 78 223.994, 43.761 190, 42 190 C 41.134 190, 32.680 197.792, 23.213 207.315 M 519.750 191.080 C 518.143 192.016, 518 194.628, 518 223.050 L 518 254 455.934 254 C 415.063 254, 393.208 254.354, 391.934 255.035 C 390.870 255.605, 390 256.939, 390 258 C 390 259.061, 390.870 260.395, 391.934 260.965 C 394.302 262.232, 521.835 262.391, 523.825 261.129 C 524.886 260.457, 525.128 253.548, 525.040 226.454 C 524.920 189.636, 524.704 188.195, 519.750 191.080 " stroke="none" fill="black" fill-rule="evenodd"/>
</svg>