<svg xmlns="http://www.w3.org/2000/svg" width="468" height="324" viewBox="0 0 468 324" version="1.1">
	<path d="M 263.571 127.571 C 262.707 128.436, 262 129.529, 262 130 C 262 130.471, 262.707 131.564, 263.571 132.429 C 264.966 133.823, 272.061 134, 326.575 134 L 388.007 134 374 162 L 359.993 190 344.568 190 C 331.878 190, 328.864 190.279, 327.571 191.571 C 325.598 193.545, 325.598 194.455, 327.571 196.429 C 328.844 197.701, 331.697 198, 342.575 198 L 356.006 198 341.003 227.994 C 332.751 244.490, 326 258.183, 326 258.422 C 326 258.661, 326.707 259.564, 327.571 260.429 C 328.936 261.793, 333.463 262, 362 262 C 390.537 262, 395.064 261.793, 396.429 260.429 C 398.402 258.455, 398.402 257.545, 396.429 255.571 C 395.071 254.214, 390.848 254, 365.425 254 L 335.993 254 350 226 L 364.007 198 406.206 198 L 448.405 198 435.202 211.333 C 427.941 218.666, 422 225.159, 422 225.761 C 422 227.187, 424.825 230, 426.257 230 C 428.006 230, 462 195.761, 462 194 C 462 192.239, 428.006 158, 426.257 158 C 424.825 158, 422 160.813, 422 162.239 C 422 162.841, 427.941 169.334, 435.202 176.667 L 448.405 190 408.199 190 L 367.994 190 382.997 160.006 C 391.249 143.510, 398 129.817, 398 129.578 C 398 129.339, 397.293 128.436, 396.429 127.571 C 395.032 126.175, 387.628 126, 330 126 C 272.372 126, 264.968 126.175, 263.571 127.571 M 167.571 191.571 C 166.707 192.436, 166 193.529, 166 194 C 166 194.471, 166.707 195.564, 167.571 196.429 C 168.936 197.793, 173.463 198, 202 198 C 230.537 198, 235.064 197.793, 236.429 196.429 C 237.293 195.564, 238 194.471, 238 194 C 238 193.529, 237.293 192.436, 236.429 191.571 C 235.064 190.207, 230.537 190, 202 190 C 173.463 190, 168.936 190.207, 167.571 191.571 M 39.571 223.571 C 38.707 224.436, 38 225.636, 38 226.239 C 38 226.841, 43.941 233.334, 51.202 240.667 L 64.405 254 36.774 254 C 12.988 254, 8.924 254.219, 7.571 255.571 C 5.598 257.545, 5.598 258.455, 7.571 260.429 C 8.968 261.825, 16.372 262, 74 262 C 131.628 262, 139.032 261.825, 140.429 260.429 C 142.402 258.455, 142.402 257.545, 140.429 255.571 C 139.076 254.219, 135.012 254, 111.226 254 L 83.595 254 96.798 240.667 C 104.059 233.334, 110 226.841, 110 226.239 C 110 224.817, 107.176 222, 105.751 222 C 105.143 222, 97.750 228.844, 89.323 237.208 L 74 252.416 58.677 237.208 C 50.250 228.844, 42.857 222, 42.249 222 C 41.640 222, 40.436 222.707, 39.571 223.571 " stroke="none" fill="black" fill-rule="evenodd"/>
</svg>