<svg xmlns="http://www.w3.org/2000/svg" width="372" height="324" viewBox="0 0 372 324" version="1.1">
	<path d="M 39.571 127.571 C 38.176 128.966, 38 136.152, 38 191.571 L 38 254 23.571 254 C 11.788 254, 8.855 254.288, 7.571 255.571 C 5.598 257.545, 5.598 258.455, 7.571 260.429 C 8.936 261.793, 13.463 262, 42 262 C 70.537 262, 75.064 261.793, 76.429 260.429 C 77.293 259.564, 78 258.471, 78 258 C 78 257.529, 77.293 256.436, 76.429 255.571 C 75.145 254.288, 72.212 254, 60.429 254 L 46 254 46 191.571 C 46 136.152, 45.824 128.966, 44.429 127.571 C 43.564 126.707, 42.471 126, 42 126 C 41.529 126, 40.436 126.707, 39.571 127.571 M 327.571 127.571 C 326.176 128.966, 326 136.152, 326 191.571 L 326 254 311.571 254 C 299.788 254, 296.855 254.288, 295.571 255.571 C 293.598 257.545, 293.598 258.455, 295.571 260.429 C 296.936 261.793, 301.463 262, 330 262 C 358.537 262, 363.064 261.793, 364.429 260.429 C 365.293 259.564, 366 258.471, 366 258 C 366 257.529, 365.293 256.436, 364.429 255.571 C 363.145 254.288, 360.212 254, 348.429 254 L 334 254 334 191.571 C 334 136.152, 333.824 128.966, 332.429 127.571 C 331.564 126.707, 330.471 126, 330 126 C 329.529 126, 328.436 126.707, 327.571 127.571 M 199.571 191.571 C 198.707 192.436, 198 193.640, 198 194.249 C 198 194.857, 204.844 202.250, 213.208 210.677 L 228.416 226 213.208 241.323 C 204.844 249.750, 198 257.143, 198 257.751 C 198 259.181, 200.819 262, 202.249 262 C 202.857 262, 210.250 255.156, 218.677 246.792 L 234 231.584 249.323 246.792 C 257.750 255.156, 265.143 262, 265.751 262 C 267.181 262, 270 259.181, 270 257.751 C 270 257.143, 263.156 249.750, 254.792 241.323 L 239.584 226 254.792 210.677 C 263.156 202.250, 270 194.857, 270 194.249 C 270 192.819, 267.181 190, 265.751 190 C 265.143 190, 257.750 196.844, 249.323 205.208 L 234 220.416 218.677 205.208 C 210.250 196.844, 202.857 190, 202.249 190 C 201.640 190, 200.436 190.707, 199.571 191.571 M 135.571 223.571 C 134.288 224.855, 134 227.788, 134 239.571 L 134 254 119.571 254 C 107.788 254, 104.855 254.288, 103.571 255.571 C 101.598 257.545, 101.598 258.455, 103.571 260.429 C 104.855 261.712, 107.788 262, 119.571 262 L 134 262 134 276.429 C 134 288.212, 134.288 291.145, 135.571 292.429 C 136.436 293.293, 137.529 294, 138 294 C 138.471 294, 139.564 293.293, 140.429 292.429 C 141.712 291.145, 142 288.212, 142 276.429 L 142 262 156.429 262 C 168.212 262, 171.145 261.712, 172.429 260.429 C 174.402 258.455, 174.402 257.545, 172.429 255.571 C 171.145 254.288, 168.212 254, 156.429 254 L 142 254 142 239.571 C 142 227.788, 141.712 224.855, 140.429 223.571 C 139.564 222.707, 138.471 222, 138 222 C 137.529 222, 136.436 222.707, 135.571 223.571 " stroke="none" fill="black" fill-rule="evenodd"/>
</svg>