<svg xmlns="http://www.w3.org/2000/svg" width="500" height="324" viewBox="0 0 500 324" version="1.1">
	<path d="M 35.045 127.064 C 19.897 130.131, 8.917 142.118, 6.587 158.135 C 6.064 161.723, 6.277 163.134, 7.527 164.385 C 10.870 167.727, 13.121 165.533, 14.163 157.916 C 16.628 139.895, 33.851 129.641, 51.537 135.667 C 61.132 138.936, 69 149.951, 69 160.113 C 69 169.630, 63.507 188.075, 56.594 201.768 C 47.178 220.418, 32.036 237.486, 15.134 248.500 C 7.181 253.683, 5.966 254.840, 6.214 257 C 6.722 261.439, 10.187 260.667, 20.041 253.918 C 47.185 235.326, 65.326 209.230, 73.626 176.833 C 76.864 164.194, 76.942 156.592, 73.916 148.505 C 68.366 133.672, 50.655 123.903, 35.045 127.064 M 167.571 127.571 C 166.198 128.945, 166 133.909, 166 166.900 L 166 204.657 161.358 200.210 C 143.769 183.357, 115.701 189.161, 105.189 211.825 C 101.440 219.907, 101.440 231.093, 105.189 239.175 C 117.206 265.086, 151.640 267.937, 166.821 244.279 C 172.788 234.981, 173 232.701, 173 177.990 C 173 129.015, 172.819 126, 169.871 126 C 169.471 126, 168.436 126.707, 167.571 127.571 M 215.213 143.315 C 205.746 152.838, 198 161.131, 198 161.743 C 198 162.951, 200.728 166, 201.808 166 C 202.175 166, 208.667 159.819, 216.237 152.263 L 230 138.527 230 199.228 C 230 259.533, 230.013 259.937, 232.064 261.034 C 237.059 263.708, 237 264.453, 237 199.174 L 237 138.592 250.830 152.296 C 258.437 159.833, 265.132 166, 265.708 166 C 267.297 166, 269.208 163.291, 268.833 161.570 C 268.413 159.644, 235.020 126, 233.528 126 C 232.921 126, 224.680 133.792, 215.213 143.315 M 295.750 127.080 C 294.114 128.033, 294 132.044, 294 188.786 L 294 249.473 280.131 235.631 C 267.495 223.019, 266.073 221.890, 264.131 222.930 C 262.959 223.557, 262 224.847, 262 225.796 C 262 227.625, 295.778 262, 297.576 262 C 299.035 262, 332.421 228.317, 332.833 226.430 C 333.208 224.709, 331.297 222, 329.708 222 C 329.132 222, 322.437 228.167, 314.830 235.704 L 301 249.408 301 188.904 C 301 123.446, 301.047 123.995, 295.750 127.080 M 359.200 159.200 C 357.481 160.919, 357.481 227.081, 359.200 228.800 C 360.935 230.535, 490.065 230.535, 491.800 228.800 C 493.519 227.081, 493.519 160.919, 491.800 159.200 C 490.065 157.465, 360.935 157.465, 359.200 159.200 M 365 194 L 365 222 393.500 222 L 422 222 422 194 L 422 166 393.500 166 L 365 166 365 194 M 429 194 L 429 222 457.500 222 L 486 222 486 194 L 486 166 457.500 166 L 429 166 429 194 M 127.627 199.468 C 122.247 201.386, 117.039 205.829, 113.500 211.519 C 110.982 215.568, 110.444 217.582, 110.150 224.050 C 109.760 232.623, 111.420 237.822, 116.447 243.770 C 122.859 251.355, 135.147 254.900, 145.231 252.074 C 156.579 248.894, 165 237.574, 165 225.500 C 165 214.038, 157.486 203.200, 146.965 199.488 C 141.743 197.645, 132.766 197.636, 127.627 199.468 " stroke="none" fill="black" fill-rule="evenodd"/>
</svg>