<svg xmlns="http://www.w3.org/2000/svg" width="372" height="324" viewBox="0 0 372 324" version="1.1">
	<path d="M 95.870 127.071 C 81.137 129.235, 69.718 135.139, 58.429 146.429 C 47.055 157.802, 40.969 169.649, 39.196 183.870 L 38.494 189.500 24.997 189.744 C 9.692 190.020, 7.460 190.358, 6.629 192.525 C 5.942 194.314, 38.794 260.707, 40.735 261.452 C 41.431 261.719, 42.569 261.719, 43.265 261.452 C 44.272 261.065, 78 195.149, 78 193.568 C 78 193.334, 77.293 192.436, 76.429 191.571 C 75.145 190.288, 72.212 190, 60.429 190 C 43.798 190, 44.774 190.825, 47.537 179.103 C 53.323 154.559, 78.127 134.091, 102.179 134.015 C 106.567 134.001, 110 132.239, 110 130 C 110 129.529, 109.293 128.436, 108.429 127.571 C 106.733 125.875, 104.589 125.790, 95.870 127.071 M 199.571 127.571 C 198.178 128.965, 198 135.899, 198 188.799 L 198 248.455 168.711 219.227 C 152.602 203.152, 138.909 190, 138.282 190 C 136.799 190, 134 192.814, 134 194.305 C 134 195.823, 200.177 262, 201.695 262 C 202.334 262, 203.564 261.293, 204.429 260.429 C 205.825 259.032, 206 251.628, 206 194 C 206 136.372, 205.825 128.968, 204.429 127.571 C 203.564 126.707, 202.471 126, 202 126 C 201.529 126, 200.436 126.707, 199.571 127.571 M 231.571 191.571 C 230.207 192.936, 230 197.463, 230 226 C 230 254.537, 230.207 259.064, 231.571 260.429 C 233.386 262.244, 233.946 262.319, 236 261.023 C 237.204 260.264, 237.599 256.693, 238 242.906 L 238.500 225.735 241.769 230.786 C 246.802 238.564, 258.779 249.163, 267.194 253.287 C 277.710 258.440, 285.762 260.304, 297.500 260.304 C 309.238 260.304, 317.290 258.440, 327.806 253.287 C 336.618 248.968, 348.189 238.532, 353.965 229.693 L 358 223.517 358 241.187 C 358 255.917, 358.261 259.119, 359.571 260.429 C 361.545 262.402, 362.455 262.402, 364.429 260.429 C 365.793 259.064, 366 254.537, 366 226 C 366 197.463, 365.793 192.936, 364.429 191.571 C 360.897 188.040, 357.007 191.045, 356.985 197.321 C 356.921 215.563, 343.076 237.005, 325.397 246.243 C 308.010 255.328, 286.990 255.328, 269.603 246.243 C 251.924 237.005, 238.079 215.563, 238.015 197.321 C 238.001 193.426, 236.122 190, 234 190 C 233.529 190, 232.436 190.707, 231.571 191.571 M 28.743 223.500 C 35.750 237.525, 41.715 249, 42 249 C 42.285 249, 48.250 237.525, 55.257 223.500 L 67.995 198 42 198 L 16.005 198 28.743 223.500 " stroke="none" fill="black" fill-rule="evenodd"/>
</svg>