<svg xmlns="http://www.w3.org/2000/svg" width="244" height="324" viewBox="0 0 244 324" version="1.1">
	<path d="M 33.384 127.412 C 15.475 131.758, 3.559 149.807, 6.987 167.396 C 8.500 175.161, 12.212 182.019, 17.580 186.967 C 40.258 207.870, 76.252 192.246, 76.252 161.500 C 76.252 144.888, 65.367 131.178, 49.147 127.360 C 42.397 125.772, 40.111 125.779, 33.384 127.412 M 31.054 135.728 C 25.018 137.859, 17.781 145.260, 15.667 151.463 C 11.995 162.241, 14.382 173.477, 21.952 181.048 C 32.402 191.497, 49.888 191.773, 60.280 181.653 C 66.701 175.401, 68.500 170.989, 68.500 161.500 C 68.500 152.011, 66.701 147.599, 60.280 141.347 C 53.109 134.363, 41.332 132.099, 31.054 135.728 M 199.750 159.082 C 198.787 159.642, 198 160.858, 198 161.786 C 198 162.714, 203.956 169.442, 211.236 176.737 L 224.472 190 164.808 190 C 111.900 190, 104.965 190.178, 103.571 191.571 C 101.598 193.545, 101.598 194.455, 103.571 196.429 C 104.965 197.822, 111.900 198, 164.808 198 L 224.472 198 211.236 211.263 C 203.956 218.558, 198 225.292, 198 226.228 C 198 227.164, 198.952 228.439, 200.115 229.062 C 202.040 230.092, 203.774 228.675, 219.348 213.347 C 236.797 196.174, 237.958 194.961, 237.985 193.886 C 238.002 193.179, 203.261 158.610, 202.202 158.282 C 201.816 158.162, 200.713 158.522, 199.750 159.082 M 7.571 191.571 C 6.707 192.436, 6 193.640, 6 194.249 C 6 194.857, 12.844 202.250, 21.208 210.677 L 36.416 226 21.208 241.323 C 12.844 249.750, 6 257.143, 6 257.751 C 6 259.181, 8.819 262, 10.249 262 C 10.857 262, 18.250 255.156, 26.677 246.792 L 42 231.584 57.323 246.792 C 65.750 255.156, 73.143 262, 73.751 262 C 75.181 262, 78 259.181, 78 257.751 C 78 257.143, 71.156 249.750, 62.792 241.323 L 47.584 226 62.792 210.677 C 71.156 202.250, 78 194.857, 78 194.249 C 78 192.819, 75.181 190, 73.751 190 C 73.143 190, 65.750 196.844, 57.323 205.208 L 42 220.416 26.677 205.208 C 18.250 196.844, 10.857 190, 10.249 190 C 9.640 190, 8.436 190.707, 7.571 191.571 M 119.315 239.213 C 109.792 248.680, 102 257.134, 102 258 C 102 259.680, 135.953 294, 137.615 294 C 139.240 294, 141 291.731, 141 289.636 C 141 288.461, 135.902 282.519, 128.307 274.844 L 115.615 262.016 175.448 261.758 C 231.182 261.518, 235.358 261.380, 236.386 259.750 C 237.191 258.474, 237.191 257.526, 236.386 256.250 C 235.358 254.620, 231.182 254.482, 175.448 254.242 L 115.615 253.984 128.307 241.156 C 135.902 233.481, 141 227.539, 141 226.364 C 141 224.269, 139.240 222, 137.615 222 C 137.073 222, 128.838 229.746, 119.315 239.213 " stroke="none" fill="black" fill-rule="evenodd"/>
</svg>