<svg xmlns="http://www.w3.org/2000/svg" width="244" height="324" viewBox="0 0 244 324" version="1.1">
	<path d="M 167.616 159.527 C 166.727 160.416, 166 161.529, 166 162 C 166 163.389, 169.140 166.120, 170.295 165.735 C 172.395 165.035, 173.549 162.094, 172.423 160.310 C 170.905 157.902, 169.474 157.669, 167.616 159.527 M 231.750 159.080 C 229.372 160.465, 229.542 163.685, 232.064 165.034 C 235.753 167.008, 238.819 162.219, 235.800 159.200 C 234.367 157.767, 234.022 157.757, 231.750 159.080 M 63.870 191.071 C 48.893 193.271, 37.652 199.158, 25.974 210.916 C 13.989 222.983, 8.432 234.878, 6.503 252.598 C 5.964 257.549, 6.150 259.007, 7.491 260.348 C 10.992 263.850, 14 260.834, 14 253.823 C 14 240.987, 20.739 226.179, 31.459 215.459 C 42.179 204.739, 56.987 198, 69.823 198 C 73.066 198, 75.416 197.441, 76.429 196.429 C 78.446 194.411, 78.406 193.678, 76.171 191.655 C 74.201 189.872, 72.560 189.794, 63.870 191.071 M 127.870 191.049 C 112.795 193.323, 101.638 199.172, 89.974 210.916 C 77.963 223.009, 72.347 234.904, 70.499 252.168 C 69.924 257.530, 70.094 258.951, 71.473 260.330 C 75.035 263.892, 78 260.852, 78 253.639 C 78 230.804, 97.424 206.565, 121.032 199.941 C 123.489 199.251, 128.603 198.420, 132.396 198.094 C 139.982 197.441, 142.495 195.605, 140.394 192.250 C 139.112 190.203, 135.668 189.873, 127.870 191.049 M 167.616 223.527 C 166.727 224.416, 166 225.529, 166 226 C 166 227.389, 169.140 230.120, 170.295 229.735 C 172.395 229.035, 173.549 226.094, 172.423 224.310 C 170.905 221.902, 169.474 221.669, 167.616 223.527 M 231.750 223.080 C 229.372 224.465, 229.542 227.685, 232.064 229.034 C 235.753 231.008, 238.819 226.219, 235.800 223.200 C 234.367 221.767, 234.022 221.757, 231.750 223.080 " stroke="none" fill="black" fill-rule="evenodd"/>
</svg>