<svg xmlns="http://www.w3.org/2000/svg" width="260" height="324" viewBox="0 0 260 324" version="1.1">
	<path d="M 88.200 127.200 C 87.540 127.860, 87 129.092, 87 129.938 C 87 130.784, 93.862 138.362, 102.250 146.778 L 117.500 162.079 101.750 177.621 C 93.088 186.169, 86 193.544, 86 194.010 C 86 196.317, 89.440 198, 94.156 198 L 99.170 198 95.118 202.603 C 89.647 208.818, 86.807 216.643, 86.807 225.500 C 86.807 257.184, 125.699 272.493, 147.128 249.245 C 153.627 242.194, 156.444 235.016, 156.444 225.500 C 156.444 216.149, 153.709 209.004, 147.498 202.130 L 143.767 198 148.949 198 C 154.866 198, 158 196.693, 158 194.227 C 158 193.290, 151.150 185.662, 142.777 177.277 L 127.554 162.030 142.777 146.692 C 151.150 138.257, 158 130.857, 158 130.249 C 158 129.033, 155.264 126, 154.166 126 C 153.787 126, 146.518 132.969, 138.013 141.486 L 122.551 156.973 106.955 141.486 C 98.377 132.969, 90.918 126, 90.379 126 C 89.841 126, 88.860 126.540, 88.200 127.200 M 211.132 127.078 C 200.770 129.114, 190.656 136.921, 185.967 146.500 C 182.768 153.037, 182.028 165.598, 184.425 172.690 C 186.658 179.300, 192.012 186.281, 197.875 190.230 L 202.788 193.538 197.902 196.772 C 192.087 200.619, 186.667 207.672, 184.425 214.310 C 182.028 221.402, 182.768 233.963, 185.967 240.500 C 190.724 250.219, 200.438 257.647, 211.552 260.062 C 217.978 261.458, 218.501 261.447, 225 259.768 C 232.370 257.865, 236.399 255.643, 242.028 250.377 C 252.402 240.673, 255.611 224.346, 249.668 211.500 C 246.531 204.721, 242.451 200.001, 236.283 196.015 L 232.067 193.291 234.572 192.149 C 235.950 191.521, 239.252 188.974, 241.909 186.488 C 256.109 173.206, 256.157 149.839, 242.013 136.608 C 236.090 131.068, 231.074 128.485, 223.535 127.091 C 216.979 125.879, 217.229 125.879, 211.132 127.078 M 23.200 128.200 C 21.137 130.263, 21.835 131.616, 27.426 136.392 C 61.385 165.404, 61.385 221.596, 27.426 250.608 C 21.878 255.348, 20.850 257.801, 23.495 259.996 C 25.316 261.507, 28.024 259.927, 35.350 253.079 C 45.416 243.672, 54.062 228.633, 58.106 213.500 C 61.092 202.323, 61.092 184.677, 58.106 173.500 C 53.833 157.509, 45.101 142.784, 33.856 132.608 C 27.588 126.936, 25.378 126.022, 23.200 128.200 M 208.316 135.326 C 197.479 139.321, 190 150.009, 190 161.500 C 190 172.991, 197.479 183.679, 208.316 187.674 C 215.449 190.304, 215 192.060, 215 161.500 C 215 130.940, 215.449 132.696, 208.316 135.326 M 222 161.519 L 222 189.038 224.750 188.401 C 228.650 187.497, 235.033 183.670, 238.196 180.339 C 248.092 169.919, 247.398 151.013, 236.767 141.409 C 232.922 137.935, 225.845 134.068, 223.250 134.022 C 222.280 134.005, 222 140.159, 222 161.519 M 23.200 159.200 C 21.279 161.121, 21.751 162.633, 26.017 168.230 C 31.135 174.944, 34 183.994, 34 193.449 C 34 204.307, 31.701 210.070, 22.225 222.972 C 20.495 225.327, 21.706 228, 24.503 228 C 28.776 228, 36.638 216.884, 39.354 207 C 41.933 197.619, 42.231 191.978, 40.568 184.006 C 38.722 175.149, 35.403 167.999, 30.456 162.220 C 26.683 157.812, 25.204 157.196, 23.200 159.200 M 111 178.500 L 99.533 190 122.500 190 L 145.467 190 134 178.500 C 127.693 172.175, 122.518 167, 122.500 167 C 122.482 167, 117.307 172.175, 111 178.500 M 7.250 174.662 C 5.299 175.450, 5.829 179.121, 8.526 183.500 C 12.225 189.506, 11.984 197.056, 7.888 203.515 C 4.455 208.929, 4.844 211.500, 9.099 211.500 C 12.054 211.500, 17.408 203.101, 18.398 196.915 C 19.530 189.835, 16.733 180.733, 11.959 175.959 C 9.945 173.945, 9.400 173.795, 7.250 174.662 M 112.500 199.269 C 106.376 201.792, 103.135 204.042, 100.095 207.880 C 89.220 221.611, 93.391 242.230, 108.617 250.007 C 112.689 252.086, 114.911 252.500, 122 252.500 C 129.457 252.500, 131.070 252.165, 135.145 249.770 C 144.431 244.310, 148.956 236.359, 148.956 225.500 C 148.956 214.687, 144.421 206.675, 135.261 201.307 C 131.650 199.191, 129.193 198.591, 123.117 198.343 C 118.625 198.160, 114.269 198.540, 112.500 199.269 M 208.316 199.326 C 197.479 203.321, 190 214.009, 190 225.500 C 190 236.991, 197.479 247.679, 208.316 251.674 C 215.449 254.304, 215 256.060, 215 225.500 C 215 194.940, 215.449 196.696, 208.316 199.326 M 222 225.519 L 222 253.038 224.750 252.401 C 228.650 251.497, 235.033 247.670, 238.196 244.339 C 248.092 233.919, 247.398 215.013, 236.767 205.409 C 232.922 201.935, 225.845 198.068, 223.250 198.022 C 222.280 198.005, 222 204.159, 222 225.519 M 120.200 223.200 C 118.111 225.289, 119.447 230, 122.129 230 C 123.139 230, 126 227.044, 126 226 C 126 224.956, 123.139 222, 122.129 222 C 121.728 222, 120.860 222.540, 120.200 223.200 " stroke="none" fill="black" fill-rule="evenodd"/>
</svg>