<svg xmlns="http://www.w3.org/2000/svg" width="212" height="324" viewBox="0 0 212 324" version="1.1">
	<path d="M 55.571 63.571 C 54.707 64.436, 54 65.332, 54 65.564 C 54 67.204, 71.738 101.069, 72.813 101.482 C 73.560 101.768, 74.775 101.665, 75.512 101.252 C 77.510 100.131, 94.035 66.256, 93.396 64.590 C 92.550 62.385, 89.890 61.790, 88.105 63.406 C 87.222 64.205, 83.815 70.291, 80.533 76.930 C 77.252 83.568, 74.312 89, 74 89 C 73.688 89, 70.748 83.534, 67.467 76.853 C 59.925 61.499, 58.847 60.296, 55.571 63.571 M 168.200 159.200 C 167.540 159.860, 167 161.091, 167 161.937 C 167 162.782, 172.956 169.442, 180.236 176.737 L 193.472 190 164.793 190 C 136.290 190, 136.104 190.014, 134.557 192.223 C 133.701 193.445, 133 196.275, 133 198.512 C 133 200.749, 132.305 205.246, 131.457 208.505 C 126.093 229.098, 109.039 246.048, 88.269 251.430 C 80.634 253.409, 67.422 253.423, 59.103 251.463 C 34.887 245.754, 14.098 220.791, 14.015 197.321 C 14.001 193.426, 12.122 190, 10 190 C 9.529 190, 8.411 190.732, 7.515 191.627 C 5.684 193.459, 6.060 199.976, 8.580 210.093 C 14.265 232.914, 33.652 252.321, 57 258.566 C 65.641 260.877, 81.343 260.879, 90 258.571 C 104.212 254.782, 116.777 246.590, 125.995 235.104 C 133.676 225.534, 137.556 216.352, 140.516 200.750 L 141.038 198 167.255 198 L 193.472 198 180.236 211.263 C 172.956 218.558, 167 225.218, 167 226.063 C 167 227.796, 168.896 230, 170.385 230 C 172.047 230, 206 195.680, 206 194 C 206 192.320, 172.047 158, 170.385 158 C 169.843 158, 168.860 158.540, 168.200 159.200 " stroke="none" fill="black" fill-rule="evenodd"/>
</svg>