<svg xmlns="http://www.w3.org/2000/svg" width="180" height="324" viewBox="0 0 180 324" version="1.1">
	<path d="M 40.316 62.784 C 38.369 64.022, 22.007 97.855, 22.604 99.410 C 23.269 101.144, 25.524 102.120, 27.295 101.440 C 28.007 101.167, 31.480 95.106, 35.014 87.972 C 38.547 80.837, 41.691 75, 42 75 C 42.309 75, 45.453 80.837, 48.986 87.972 C 52.520 95.106, 55.993 101.167, 56.705 101.440 C 58.476 102.120, 60.731 101.144, 61.396 99.410 C 61.993 97.855, 45.631 64.022, 43.684 62.784 C 42.206 61.844, 41.794 61.844, 40.316 62.784 M 135.267 159.267 C 116.970 177.563, 102 193.056, 102 193.695 C 102 194.334, 102.707 195.564, 103.571 196.429 C 104.931 197.788, 109.242 198, 135.571 198 L 166 198 166 228.429 C 166 254.758, 166.212 259.069, 167.571 260.429 C 168.436 261.293, 169.529 262, 170 262 C 170.471 262, 171.564 261.293, 172.429 260.429 C 173.825 259.032, 174 251.628, 174 194 C 174 136.372, 173.825 128.968, 172.429 127.571 C 171.564 126.707, 170.334 126, 169.695 126 C 169.056 126, 153.563 140.970, 135.267 159.267 M 140.500 165 L 115.515 190 140.758 190 L 166 190 166 165 C 166 151.250, 165.884 140, 165.742 140 C 165.601 140, 154.242 151.250, 140.500 165 M 7.571 191.571 C 6.707 192.436, 6 193.529, 6 194 C 6 194.471, 6.707 195.564, 7.571 196.429 C 8.855 197.712, 11.788 198, 23.571 198 L 38 198 38 226 L 38 254 23.571 254 C 11.788 254, 8.855 254.288, 7.571 255.571 C 5.598 257.545, 5.598 258.455, 7.571 260.429 C 8.936 261.793, 13.463 262, 42 262 C 70.537 262, 75.064 261.793, 76.429 260.429 C 78.402 258.455, 78.402 257.545, 76.429 255.571 C 75.145 254.288, 72.212 254, 60.429 254 L 46 254 46 226 L 46 198 60.429 198 C 72.212 198, 75.145 197.712, 76.429 196.429 C 77.293 195.564, 78 194.471, 78 194 C 78 193.529, 77.293 192.436, 76.429 191.571 C 75.064 190.207, 70.537 190, 42 190 C 13.463 190, 8.936 190.207, 7.571 191.571 " stroke="none" fill="black" fill-rule="evenodd"/>
</svg>