<svg xmlns="http://www.w3.org/2000/svg" width="308" height="324" viewBox="0 0 308 324" version="1.1">
	<path d="M 215.200 63.200 C 213.512 64.888, 213.512 99.112, 215.200 100.800 C 216.886 102.486, 250.114 102.486, 251.800 100.800 C 253.488 99.112, 253.488 64.888, 251.800 63.200 C 250.114 61.514, 216.886 61.514, 215.200 63.200 M 221 82 L 221 94 233.500 94 L 246 94 246 82 L 246 70 233.500 70 L 221 70 221 82 M 167.750 127.080 C 166.787 127.641, 166 128.862, 166 129.794 C 166 130.726, 180.060 145.553, 197.244 162.744 L 228.488 194 197.244 225.256 C 180.060 242.447, 166 257.281, 166 258.221 C 166 259.161, 166.961 260.444, 168.136 261.073 C 170.102 262.125, 172.791 259.699, 201.886 230.618 L 233.500 199.019 265.131 230.608 C 294.135 259.573, 296.939 262.103, 298.881 261.063 C 300.047 260.440, 301 259.161, 301 258.221 C 301 257.281, 286.940 242.447, 269.756 225.256 L 238.512 194 269.756 162.744 C 286.940 145.553, 301 130.719, 301 129.779 C 301 128.839, 300.048 127.561, 298.884 126.938 C 296.944 125.900, 294.123 128.445, 265.121 157.395 L 233.474 188.985 201.993 157.493 C 184.678 140.172, 170.284 126.014, 170.006 126.030 C 169.728 126.047, 168.713 126.519, 167.750 127.080 M 7.571 159.571 C 6.207 160.936, 6 165.463, 6 194 C 6 222.537, 6.207 227.064, 7.571 228.429 C 9.545 230.402, 10.455 230.402, 12.429 228.429 C 13.712 227.145, 14 224.212, 14 212.429 L 14 198 42 198 L 70 198 70 212.429 C 70 224.212, 70.288 227.145, 71.571 228.429 C 73.678 230.535, 74.598 230.412, 76.443 227.777 C 77.669 226.027, 78 222.629, 78 211.777 L 78 198 106 198 L 134 198 134 212.965 C 134 227.181, 134.106 227.986, 136.117 229.062 C 140.830 231.585, 141.043 230.068, 141.043 194 C 141.043 157.932, 140.830 156.415, 136.117 158.938 C 134.106 160.014, 134 160.819, 134 175.035 L 134 190 106 190 L 78 190 78 176.223 C 78 165.371, 77.669 161.973, 76.443 160.223 C 74.598 157.588, 73.678 157.465, 71.571 159.571 C 70.288 160.855, 70 163.788, 70 175.571 L 70 190 42 190 L 14 190 14 175.571 C 14 163.788, 13.712 160.855, 12.429 159.571 C 11.564 158.707, 10.471 158, 10 158 C 9.529 158, 8.436 158.707, 7.571 159.571 " stroke="none" fill="black" fill-rule="evenodd"/>
</svg>