<svg xmlns="http://www.w3.org/2000/svg" width="148" height="324" viewBox="0 0 148 324" version="1.1">
	<path d="M 55.200 63.200 C 53.512 64.888, 53.512 99.112, 55.200 100.800 C 56.040 101.640, 61.562 102, 73.629 102 C 87.958 102, 91.122 101.736, 92.429 100.429 C 94.757 98.100, 94.757 65.900, 92.429 63.571 C 91.122 62.264, 87.958 62, 73.629 62 C 61.562 62, 56.040 62.360, 55.200 63.200 M 62 82 L 62 94 74 94 L 86 94 86 82 L 86 70 74 70 L 62 70 62 82 M 71.571 127.571 C 70.178 128.965, 70 135.897, 70 188.774 L 70 248.405 56.667 235.202 C 49.334 227.941, 42.841 222, 42.239 222 C 40.825 222, 38 224.820, 38 226.232 C 38 226.831, 43.512 232.922, 50.250 239.767 C 61.854 251.556, 62.316 252.178, 59 251.551 C 57.075 251.188, 51.675 249.048, 47 246.796 C 28.374 237.824, 14.082 216.388, 14.015 197.321 C 14.001 193.426, 12.122 190, 10 190 C 9.529 190, 8.399 190.743, 7.491 191.652 C 4.356 194.787, 7.559 211.320, 13.756 224 C 18.924 234.572, 32.441 248.079, 43.060 253.282 C 53.750 258.519, 71.128 262.389, 77.506 260.953 C 79.703 260.459, 84.425 259.509, 88 258.843 C 105.563 255.573, 124.610 240.762, 132.824 223.988 C 137.730 213.968, 140 205.720, 140 197.912 C 140 191.365, 138.434 189.162, 135.064 190.966 C 133.484 191.811, 132.997 193.060, 132.985 196.285 C 132.962 202.874, 130.253 212.817, 126.293 220.842 C 121.941 229.662, 112.102 240.181, 103.836 244.850 C 99.086 247.532, 88.033 252, 86.147 252 C 85.850 252, 90.870 246.671, 97.303 240.157 C 104.215 233.160, 109 227.514, 109 226.357 C 109 224.278, 107.240 222, 105.633 222 C 105.101 222, 98.666 227.941, 91.333 235.202 L 78 248.405 78 188.774 C 78 135.897, 77.822 128.965, 76.429 127.571 C 75.564 126.707, 74.471 126, 74 126 C 73.529 126, 72.436 126.707, 71.571 127.571 " stroke="none" fill="black" fill-rule="evenodd"/>
</svg>