<svg xmlns="http://www.w3.org/2000/svg" width="468" height="324" viewBox="0 0 468 324" version="1.1">
	<path d="M 167.571 127.571 C 166.707 128.436, 166 129.335, 166 129.569 C 166 131.164, 231.738 261.069, 232.739 261.453 C 233.432 261.719, 234.568 261.719, 235.261 261.453 C 237.123 260.739, 302.060 130.320, 301.404 128.612 C 300.736 126.870, 298.487 125.876, 296.735 126.548 C 296.039 126.815, 281.755 154.476, 264.992 188.017 C 248.228 221.558, 234.282 249, 234 249 C 233.718 249, 219.990 221.941, 203.493 188.869 C 186.997 155.796, 172.905 128.121, 172.179 127.369 C 170.471 125.600, 169.500 125.643, 167.571 127.571 M 384.500 126.944 C 368.464 129.540, 358.190 134.822, 346.461 146.500 C 339.435 153.496, 336.611 157.170, 333.778 163 C 327.648 175.615, 324.334 193.191, 327.491 196.348 C 329.547 198.404, 330.439 198.418, 332.429 196.429 C 333.404 195.453, 334.006 193.082, 334.015 190.179 C 334.091 166.127, 354.559 141.323, 379.103 135.537 C 406.508 129.078, 434.994 142.323, 446.765 167 C 451.063 176.010, 453 183.304, 453 190.478 C 453 193.126, 453.621 195.478, 454.571 196.429 C 456.561 198.418, 457.453 198.404, 459.509 196.348 C 462.681 193.176, 459.337 175.556, 453.181 163 C 448.014 152.460, 434.540 138.986, 424 133.819 C 411.592 127.735, 396.182 125.053, 384.500 126.944 M 7.571 159.571 C 6.207 160.936, 6 165.463, 6 194 C 6 222.537, 6.207 227.064, 7.571 228.429 C 9.545 230.402, 10.455 230.402, 12.429 228.429 C 13.712 227.145, 14 224.212, 14 212.429 L 14 198 42 198 L 70 198 70 212.429 C 70 224.212, 70.288 227.145, 71.571 228.429 C 72.436 229.293, 73.529 230, 74 230 C 74.471 230, 75.564 229.293, 76.429 228.429 C 77.712 227.145, 78 224.212, 78 212.429 L 78 198 106 198 L 134 198 134 212.429 C 134 224.212, 134.288 227.145, 135.571 228.429 C 137.545 230.402, 138.455 230.402, 140.429 228.429 C 141.793 227.064, 142 222.537, 142 194 C 142 165.463, 141.793 160.936, 140.429 159.571 C 139.564 158.707, 138.471 158, 138 158 C 137.529 158, 136.436 158.707, 135.571 159.571 C 134.288 160.855, 134 163.788, 134 175.571 L 134 190 106 190 L 78 190 78 175.571 C 78 163.788, 77.712 160.855, 76.429 159.571 C 74.455 157.598, 73.545 157.598, 71.571 159.571 C 70.288 160.855, 70 163.788, 70 175.571 L 70 190 42 190 L 14 190 14 175.571 C 14 163.788, 13.712 160.855, 12.429 159.571 C 11.564 158.707, 10.471 158, 10 158 C 9.529 158, 8.436 158.707, 7.571 159.571 M 391.571 159.571 C 390.707 160.436, 390 161.529, 390 162 C 390 163.111, 392.889 166, 394 166 C 395.111 166, 398 163.111, 398 162 C 398 160.889, 395.111 158, 394 158 C 393.529 158, 392.436 158.707, 391.571 159.571 M 359.571 191.571 C 358.707 192.436, 358 193.529, 358 194 C 358 194.471, 358.707 195.564, 359.571 196.429 C 360.936 197.793, 365.463 198, 394 198 C 422.537 198, 427.064 197.793, 428.429 196.429 C 429.293 195.564, 430 194.471, 430 194 C 430 193.529, 429.293 192.436, 428.429 191.571 C 427.064 190.207, 422.537 190, 394 190 C 365.463 190, 360.936 190.207, 359.571 191.571 M 391.571 223.571 C 390.707 224.436, 390 225.529, 390 226 C 390 227.111, 392.889 230, 394 230 C 395.111 230, 398 227.111, 398 226 C 398 224.889, 395.111 222, 394 222 C 393.529 222, 392.436 222.707, 391.571 223.571 " stroke="none" fill="black" fill-rule="evenodd"/>
</svg>