<svg xmlns="http://www.w3.org/2000/svg" width="292" height="324" viewBox="0 0 292 324" version="1.1">
	<path d="M 71.571 127.571 C 70.288 128.855, 70 131.788, 70 143.571 L 70 158 55.571 158 C 43.788 158, 40.855 158.288, 39.571 159.571 C 38.219 160.924, 38 164.988, 38 188.774 L 38 216.405 24.667 203.202 C 17.334 195.941, 10.841 190, 10.239 190 C 8.791 190, 6 192.834, 6 194.305 C 6 195.823, 72.177 262, 73.695 262 C 74.334 262, 75.564 261.293, 76.429 260.429 C 77.712 259.145, 78 256.212, 78 244.429 L 78 230 92.429 230 C 104.212 230, 107.145 229.712, 108.429 228.429 C 109.793 227.064, 110 222.537, 110 194 C 110 165.463, 109.793 160.936, 108.429 159.571 C 107.145 158.288, 104.212 158, 92.429 158 L 78 158 78 143.571 C 78 131.788, 77.712 128.855, 76.429 127.571 C 75.564 126.707, 74.471 126, 74 126 C 73.529 126, 72.436 126.707, 71.571 127.571 M 215.571 127.571 C 214.707 128.436, 214 129.640, 214 130.249 C 214 130.857, 220.850 138.257, 229.223 146.692 L 244.446 162.030 229.223 177.277 C 220.850 185.662, 214 193.216, 214 194.062 C 214 196.844, 216.320 198, 221.903 198 L 227.406 198 223.755 201.750 C 214.386 211.374, 211.710 227.219, 217.361 239.610 C 220.861 247.285, 227.689 254.075, 235.480 257.629 C 243.387 261.236, 253.732 261.409, 262.297 258.077 C 269.347 255.334, 277.540 247.648, 281.033 240.500 C 283.125 236.220, 283.479 234.060, 283.488 225.500 C 283.501 214.241, 281.978 209.840, 275.417 202.174 L 271.844 198 277.351 198 C 282.753 198, 286.539 196.117, 285.770 193.811 C 285.595 193.285, 278.488 185.919, 269.976 177.442 L 254.500 162.028 269.750 146.752 C 278.137 138.351, 285 130.784, 285 129.938 C 285 128.207, 283.106 126, 281.621 126 C 281.082 126, 273.623 132.969, 265.045 141.486 L 249.449 156.973 233.987 141.486 C 225.482 132.969, 218.213 126, 217.834 126 C 217.454 126, 216.436 126.707, 215.571 127.571 M 150.667 127.667 C 148.972 129.361, 150.533 131.916, 157.256 138.449 C 169.288 150.141, 176.212 162.562, 179.420 178.208 C 184.757 204.241, 176.586 229.852, 156.822 249.037 C 149.835 255.819, 148.868 257.816, 151.509 260.007 C 152.752 261.039, 153.732 260.764, 157.074 258.449 C 169.929 249.540, 182.880 228.686, 186.581 210.932 C 188.483 201.813, 188.512 185.329, 186.644 176.367 C 183.440 161.001, 175.369 146.254, 163.869 134.750 C 156.543 127.421, 152.878 125.455, 150.667 127.667 M 150.667 158.667 C 149.220 160.113, 150.142 163.392, 153.016 167.020 C 154.675 169.115, 157.262 173.454, 158.765 176.664 C 161.199 181.860, 161.498 183.651, 161.498 193 C 161.498 202.388, 161.204 204.128, 158.722 209.430 C 157.195 212.692, 154.350 217.307, 152.401 219.686 C 148.361 224.617, 148.275 227.356, 152.146 227.806 C 154.220 228.047, 155.530 227.190, 158.350 223.749 C 169.958 209.582, 172.517 189.043, 164.719 172.623 C 159.562 161.764, 153.545 155.788, 150.667 158.667 M 46 194 L 46 222 58 222 L 70 222 70 194 L 70 166 58 166 L 46 166 46 194 M 78 194 L 78 222 90 222 L 102 222 102 194 L 102 166 90 166 L 78 166 78 194 M 238 178.500 L 226.533 190 249.500 190 L 272.467 190 261 178.500 C 254.693 172.175, 249.518 167, 249.500 167 C 249.482 167, 244.307 172.175, 238 178.500 M 134.571 175.571 C 132.528 177.615, 132.548 177.740, 135.585 182.123 C 140.151 188.711, 140.063 198.394, 135.388 203.951 C 132.159 207.788, 132.475 211.381, 136.079 211.800 C 138.106 212.036, 139.219 211.286, 141.273 208.300 C 145.029 202.842, 146.170 199.257, 146.186 192.870 C 146.201 186.767, 143.734 180.045, 140.085 176.250 C 137.522 173.584, 136.665 173.478, 134.571 175.571 M 239.627 199.468 C 234.247 201.386, 229.039 205.829, 225.500 211.519 C 221.527 217.908, 220.712 229.311, 223.741 236.129 C 228.446 246.717, 236.286 252.123, 247.883 252.774 C 254.994 253.173, 255.926 252.979, 261.911 249.851 C 282.057 239.321, 282.024 211.164, 261.854 201.085 C 254.871 197.595, 246.574 196.992, 239.627 199.468 M 247.750 223.080 C 245.372 224.465, 245.542 227.685, 248.064 229.034 C 251.753 231.008, 254.819 226.219, 251.800 223.200 C 250.367 221.767, 250.022 221.757, 247.750 223.080 M 60.500 239 C 65.427 243.950, 69.580 248, 69.729 248 C 69.878 248, 70 243.950, 70 239 L 70 230 60.771 230 L 51.542 230 60.500 239 " stroke="none" fill="black" fill-rule="evenodd"/>
</svg>