<svg xmlns="http://www.w3.org/2000/svg" width="403" height="324" viewBox="0 0 403 324" version="1.1">
	<path d="M 72.316 62.784 C 70.369 64.022, 54.007 97.855, 54.604 99.410 C 55.450 101.615, 58.110 102.210, 59.895 100.594 C 60.778 99.795, 64.185 93.709, 67.467 87.070 C 70.748 80.432, 73.687 75, 73.997 75 C 74.308 75, 77.453 80.837, 80.986 87.972 C 84.520 95.106, 88.050 101.189, 88.832 101.489 C 90.716 102.212, 93 100.227, 93 97.866 C 93 95.626, 77.264 63.831, 75.628 62.765 C 74.214 61.845, 73.789 61.847, 72.316 62.784 M 71.571 127.571 C 70.178 128.965, 70 135.897, 70 188.774 L 70 248.405 56.667 235.202 C 49.334 227.941, 42.841 222, 42.239 222 C 40.825 222, 38 224.820, 38 226.232 C 38 226.831, 43.512 232.922, 50.250 239.767 C 61.854 251.556, 62.316 252.178, 59 251.551 C 57.075 251.188, 51.675 249.043, 47 246.786 C 28.415 237.813, 14 216.361, 14 197.677 C 14 194.888, 13.395 192.538, 12.429 191.571 C 10.444 189.587, 9.546 189.597, 7.515 191.627 C 4.472 194.671, 7.724 211.409, 13.807 224 C 16.625 229.833, 19.438 233.508, 26.465 240.535 C 36.770 250.839, 45.643 255.880, 58.182 258.555 C 62.207 259.413, 67.300 260.507, 69.500 260.986 C 71.813 261.490, 75.187 261.477, 77.500 260.956 C 79.700 260.460, 84.425 259.509, 88 258.843 C 105.563 255.573, 124.610 240.762, 132.824 223.988 C 137.730 213.968, 140 205.720, 140 197.912 C 140 191.909, 138.541 189.472, 135.618 190.593 C 133.821 191.283, 133.413 192.676, 132.470 201.333 C 130.406 220.296, 117.476 238.333, 99.863 246.822 C 84.478 254.236, 84.251 253.616, 97.344 239.950 C 103.755 233.259, 109 227.022, 109 226.092 C 109 224.238, 107.159 222, 105.633 222 C 105.101 222, 98.666 227.941, 91.333 235.202 L 78 248.405 78 189.425 C 78 137.662, 77.810 130.173, 76.443 128.223 C 74.598 125.588, 73.678 125.465, 71.571 127.571 M 194.355 126.998 C 183.822 129.188, 174.117 137.138, 169.329 147.500 C 165.372 156.063, 165.372 166.937, 169.329 175.500 C 172.298 181.925, 178.624 189.175, 183.488 191.729 C 186.304 193.207, 186.364 193.361, 184.533 194.399 C 179.291 197.369, 172.085 205.413, 169.411 211.278 C 165.384 220.111, 165.352 230.894, 169.329 239.500 C 172.518 246.401, 178.720 253.243, 184.500 256.237 C 190.052 259.112, 201.935 261.950, 204.451 261.002 C 205.578 260.577, 208.975 259.508, 212 258.626 C 219.301 256.497, 226.750 250.682, 230.778 243.965 C 235.184 236.618, 236.304 231.917, 235.774 223 C 235.101 211.701, 229.800 202.368, 220.588 196.266 L 216.219 193.372 220.584 190.610 C 225.842 187.284, 229.208 183.427, 232.805 176.607 C 235.210 172.048, 235.498 170.428, 235.498 161.500 C 235.498 152.447, 235.228 150.979, 232.639 146 C 225.375 132.029, 209.073 123.938, 194.355 126.998 M 263.750 127.080 C 262.111 128.035, 262 132.293, 262 194.015 C 262 259.587, 262.011 259.935, 264.064 261.034 C 268.351 263.329, 268.933 261.210, 269.227 242.230 L 269.500 224.668 273.414 230.584 C 275.566 233.838, 279.901 238.975, 283.047 242 C 313.021 270.821, 362.056 265.158, 384.988 230.227 L 390 222.593 390 241.261 C 390 258.121, 390.172 260.022, 391.776 260.880 C 392.902 261.483, 394.182 261.478, 395.276 260.866 C 396.881 259.967, 397 255.347, 397 194 C 397 132.653, 396.881 128.033, 395.276 127.134 C 394.182 126.522, 392.902 126.517, 391.776 127.120 C 390.175 127.977, 390 129.858, 390 146.239 L 390 164.407 384.988 156.773 C 362.056 121.842, 313.021 116.179, 283.047 145 C 279.901 148.025, 275.566 153.162, 273.414 156.416 L 269.500 162.332 269.225 145.489 C 268.918 126.653, 268.263 124.452, 263.750 127.080 M 190.363 135.922 C 169.511 145.391, 167.851 174.130, 187.500 185.491 C 189.700 186.763, 192.963 188.109, 194.750 188.481 L 198 189.159 198 161.579 C 198 130.540, 198.502 132.227, 190.363 135.922 M 205 161.608 L 205 189.217 207.750 188.543 C 213.349 187.172, 220.453 182.281, 223.708 177.558 C 231.144 166.768, 230.669 154.393, 222.396 143.335 C 220.160 140.346, 209.244 134, 206.340 134 C 205.252 134, 205 139.197, 205 161.608 M 317.500 134.680 C 311.260 136.076, 302.663 139.469, 298.141 142.320 C 287.287 149.164, 277.324 161.172, 273.073 172.535 C 268.605 184.477, 268.602 202.517, 273.068 214.452 C 279.108 230.595, 294.171 244.968, 311 250.645 C 319.521 253.519, 339.251 253.277, 348.190 250.188 C 369.442 242.845, 384.297 224.759, 388.385 201.250 L 388.950 198 358.675 198 C 336.461 198, 328.080 197.680, 327.200 196.800 C 326.319 195.919, 326 187.422, 326 164.800 L 326 134 322.750 134.116 C 320.962 134.180, 318.600 134.433, 317.500 134.680 M 333 161.864 L 333 190 361.045 190 L 389.091 190 388.464 186.250 C 383.825 158.510, 363.668 137.890, 337.750 134.373 L 333 133.728 333 161.864 M 190.363 199.922 C 169.511 209.391, 167.851 238.130, 187.500 249.491 C 189.700 250.763, 192.963 252.109, 194.750 252.481 L 198 253.159 198 225.579 C 198 194.540, 198.502 196.227, 190.363 199.922 M 205 225.608 L 205 253.217 207.750 252.543 C 213.349 251.172, 220.453 246.281, 223.708 241.558 C 231.144 230.768, 230.669 218.393, 222.396 207.335 C 220.160 204.346, 209.244 198, 206.340 198 C 205.252 198, 205 203.197, 205 225.608 " stroke="none" fill="black" fill-rule="evenodd"/>
</svg>