<svg xmlns="http://www.w3.org/2000/svg" width="436" height="324" viewBox="0 0 436 324" version="1.1">
	<path d="M 33.384 127.412 C 15.480 131.757, 3.543 149.833, 6.993 167.372 C 7.651 170.715, 9.079 175.194, 10.166 177.325 C 12.765 182.419, 19.066 189.182, 23.377 191.503 L 26.824 193.360 22.662 196.005 C 14.442 201.228, 9.123 209.179, 7.014 219.396 C 4.201 233.027, 11.253 248.375, 23.673 255.654 C 28.824 258.673, 41.869 262.124, 44 261.032 C 44.825 260.609, 47.300 259.941, 49.500 259.548 C 55.471 258.479, 62.657 254.175, 67.545 248.739 C 81.719 232.974, 78.234 207.349, 60.376 196.024 L 56.176 193.360 59.683 191.471 C 64.938 188.641, 71.616 180.627, 74.072 174.202 C 81.691 154.273, 69.979 132.264, 49.147 127.360 C 42.397 125.772, 40.111 125.779, 33.384 127.412 M 119.282 143.282 C 109.777 152.787, 102 161.079, 102 161.710 C 102 163.173, 104.800 166, 106.249 166 C 106.857 166, 114.250 159.156, 122.677 150.792 L 138 135.584 153.323 150.792 C 161.750 159.156, 169.143 166, 169.751 166 C 171.200 166, 174 163.173, 174 161.710 C 174 160.031, 139.693 126, 138 126 C 137.210 126, 128.787 133.777, 119.282 143.282 M 295.571 127.571 C 294.175 128.968, 294 136.372, 294 194 C 294 251.628, 294.175 259.032, 295.571 260.429 C 297.678 262.535, 298.598 262.412, 300.443 259.777 C 301.695 257.991, 302 254.417, 302 241.545 L 302 225.536 304.674 229.518 C 314.390 243.987, 328.924 254.487, 345 258.650 C 353.671 260.895, 369.440 260.855, 378 258.566 C 388.972 255.631, 399.604 249.428, 408.072 241.019 C 412.237 236.884, 417.065 231.025, 418.800 228 L 421.956 222.500 421.978 241.215 C 421.999 259.239, 422.078 259.971, 424.117 261.062 C 429.076 263.717, 429.023 264.446, 429.023 194 C 429.023 123.554, 429.076 124.283, 424.117 126.938 C 422.081 128.027, 421.999 128.771, 421.978 146.285 L 421.956 164.500 418.800 159 C 417.065 155.975, 412.237 150.116, 408.072 145.981 C 399.604 137.572, 388.972 131.369, 378 128.434 C 369.440 126.145, 353.671 126.105, 345 128.350 C 328.924 132.513, 314.390 143.013, 304.674 157.482 L 302 161.464 302 145.955 C 302 133.536, 301.690 130.002, 300.443 128.223 C 298.598 125.588, 297.678 125.465, 295.571 127.571 M 31.054 135.728 C 25.018 137.859, 17.781 145.260, 15.667 151.463 C 10.058 167.925, 18.847 184.571, 35.250 188.550 L 38 189.217 38 161.608 C 38 140.146, 37.722 134.018, 36.750 134.079 C 36.063 134.122, 33.499 134.864, 31.054 135.728 M 46 161.500 L 46 189.135 48.250 188.448 C 56.634 185.887, 63.023 180.636, 66.478 173.467 C 69.159 167.903, 69.629 158.409, 67.535 152.105 C 64.847 144.014, 57.584 137.403, 48.250 134.552 L 46 133.865 46 161.500 M 345.500 135.865 C 334.740 138.953, 327.995 143.006, 319.479 151.500 C 307.121 163.826, 302 176.131, 302 193.500 C 302 210.512, 307.128 223.074, 318.993 235.125 C 330.911 247.231, 344.528 253, 361.184 253 C 381.394 253, 399.150 243.713, 410.388 227.266 C 415.076 220.405, 419.236 210.108, 420.495 202.250 L 421.176 198 390.788 198 C 368.486 198, 360.081 197.681, 359.200 196.800 C 358.319 195.919, 358 187.422, 358 164.800 L 358 134 354.750 134.071 C 352.962 134.110, 348.800 134.918, 345.500 135.865 M 365 162 L 365 190 393.114 190 L 421.227 190 420.537 185.250 C 418.630 172.127, 410.529 157.147, 400.617 148.415 C 392.543 141.301, 375.662 134, 367.290 134 L 365 134 365 162 M 199.200 159.200 C 197.481 160.919, 197.481 227.081, 199.200 228.800 C 200.085 229.685, 209.117 230, 233.629 230 C 262.503 230, 267.063 229.794, 268.429 228.429 C 269.793 227.064, 270 222.537, 270 194 C 270 165.463, 269.793 160.936, 268.429 159.571 C 267.063 158.206, 262.503 158, 233.629 158 C 209.117 158, 200.085 158.315, 199.200 159.200 M 206 194 L 206 222 234 222 L 262 222 262 194 L 262 166 234 166 L 206 166 206 194 M 31.054 199.728 C 25.018 201.859, 17.781 209.260, 15.667 215.463 C 10.058 231.925, 18.847 248.571, 35.250 252.550 L 38 253.217 38 225.608 C 38 204.146, 37.722 198.018, 36.750 198.079 C 36.063 198.122, 33.499 198.864, 31.054 199.728 M 46 225.500 L 46 253.135 48.250 252.448 C 56.634 249.887, 63.023 244.636, 66.478 237.467 C 69.159 231.903, 69.629 222.409, 67.535 216.105 C 64.847 208.014, 57.584 201.403, 48.250 198.552 L 46 197.865 46 225.500 M 103.571 223.571 C 102.707 224.436, 102 225.659, 102 226.290 C 102 227.969, 136.307 262, 138 262 C 139.693 262, 174 227.969, 174 226.290 C 174 224.827, 171.200 222, 169.751 222 C 169.143 222, 161.750 228.844, 153.323 237.208 L 138 252.416 122.677 237.208 C 114.250 228.844, 106.857 222, 106.249 222 C 105.640 222, 104.436 222.707, 103.571 223.571 " stroke="none" fill="black" fill-rule="evenodd"/>
</svg>