<svg xmlns="http://www.w3.org/2000/svg" width="468" height="324" viewBox="0 0 468 324" version="1.1">
	<path d="M 55.571 63.571 C 53.243 65.900, 53.243 98.100, 55.571 100.429 C 57.900 102.757, 90.100 102.757, 92.429 100.429 C 94.757 98.100, 94.757 65.900, 92.429 63.571 C 90.100 61.243, 57.900 61.243, 55.571 63.571 M 62 82 L 62 94 74 94 L 86 94 86 82 L 86 70 74 70 L 62 70 62 82 M 71.571 127.571 C 70.178 128.965, 70 135.897, 70 188.774 L 70 248.405 56.667 235.202 C 49.334 227.941, 42.841 222, 42.239 222 C 40.825 222, 38 224.820, 38 226.232 C 38 226.831, 43.512 232.922, 50.250 239.767 C 61.854 251.556, 62.316 252.178, 59 251.551 C 57.075 251.188, 51.701 249.050, 47.058 246.802 C 28.325 237.728, 14.082 216.402, 14.015 197.321 C 14.001 193.426, 12.122 190, 10 190 C 9.529 190, 8.399 190.743, 7.491 191.652 C 4.366 194.777, 7.569 211.386, 13.692 223.806 C 17.920 232.384, 28.303 244.016, 36.715 249.599 C 46.407 256.032, 63.561 261.366, 74 261.192 C 83.019 261.042, 98.142 256.715, 107 251.751 C 115.658 246.899, 128.833 232.963, 133.235 224 C 139.280 211.693, 142.560 194.703, 139.485 191.627 C 138.589 190.732, 137.471 190, 137 190 C 134.878 190, 132.999 193.426, 132.985 197.321 C 132.918 216.437, 118.544 237.928, 99.899 246.791 C 84.230 254.239, 84.042 253.620, 97.750 239.732 C 104.488 232.906, 110 226.831, 110 226.232 C 110 224.820, 107.175 222, 105.761 222 C 105.159 222, 98.666 227.941, 91.333 235.202 L 78 248.405 78 188.774 C 78 135.897, 77.822 128.965, 76.429 127.571 C 75.564 126.707, 74.471 126, 74 126 C 73.529 126, 72.436 126.707, 71.571 127.571 M 375.213 143.315 C 365.746 152.838, 358 161.131, 358 161.743 C 358 163.175, 360.813 166, 362.239 166 C 362.841 166, 369.334 160.059, 376.667 152.798 L 390 139.595 390 194 L 390 248.405 376.667 235.202 C 369.334 227.941, 362.841 222, 362.239 222 C 360.825 222, 358 224.820, 358 226.232 C 358 226.831, 363.512 232.922, 370.250 239.767 C 381.854 251.556, 382.316 252.178, 379 251.551 C 377.075 251.188, 371.701 249.050, 367.058 246.802 C 348.325 237.728, 334.082 216.402, 334.015 197.321 C 334.001 193.426, 332.122 190, 330 190 C 329.529 190, 328.399 190.743, 327.491 191.652 C 324.366 194.777, 327.569 211.386, 333.692 223.806 C 337.920 232.384, 348.303 244.016, 356.715 249.599 C 366.407 256.032, 383.561 261.366, 394 261.192 C 403.019 261.042, 418.142 256.715, 427 251.751 C 435.658 246.899, 448.833 232.963, 453.235 224 C 459.280 211.693, 462.560 194.703, 459.485 191.627 C 458.589 190.732, 457.471 190, 457 190 C 454.878 190, 452.999 193.426, 452.985 197.321 C 452.918 216.437, 438.544 237.928, 419.899 246.791 C 404.230 254.239, 404.042 253.620, 417.750 239.732 C 424.488 232.906, 430 226.831, 430 226.232 C 430 224.820, 427.175 222, 425.761 222 C 425.159 222, 418.666 227.941, 411.333 235.202 L 398 248.405 398 194 L 398 139.595 411.333 152.798 C 418.666 160.059, 425.159 166, 425.761 166 C 427.187 166, 430 163.175, 430 161.743 C 430 159.994, 395.761 126, 394 126 C 393.134 126, 384.680 133.792, 375.213 143.315 M 225.384 159.412 C 212.471 162.545, 201.316 173.921, 199.399 185.908 L 198.744 190 183.944 190 C 171.822 190, 168.858 190.284, 167.571 191.571 C 165.598 193.545, 165.598 194.455, 167.571 196.429 C 168.859 197.716, 171.823 198, 183.960 198 L 198.777 198 199.473 201.750 C 200.492 207.247, 204.768 214.532, 209.580 218.967 C 223.537 231.832, 243.463 231.832, 257.420 218.967 C 262.232 214.532, 266.508 207.247, 267.527 201.750 L 268.223 198 283.540 198 C 296.131 198, 299.137 197.720, 300.429 196.429 C 302.402 194.455, 302.402 193.545, 300.429 191.571 C 299.137 190.280, 296.133 190, 283.556 190 L 268.256 190 267.601 185.908 C 265.648 173.692, 254.499 162.503, 241.147 159.360 C 234.397 157.772, 232.111 157.779, 225.384 159.412 M 223.385 167.617 C 215.428 170.439, 208.611 178.342, 206.450 187.250 L 205.783 190 233.500 190 L 261.217 190 260.550 187.250 C 258.335 178.120, 251.528 170.390, 243.205 167.554 C 237.596 165.643, 228.873 165.671, 223.385 167.617 M 206.525 200.250 C 210.314 213.167, 220.497 221, 233.500 221 C 246.330 221, 256.503 213.167, 260.448 200.250 L 261.135 198 233.500 198 L 205.865 198 206.525 200.250 " stroke="none" fill="black" fill-rule="evenodd"/>
</svg>