<svg xmlns="http://www.w3.org/2000/svg" width="244" height="324" viewBox="0 0 244 324" version="1.1">
	<path d="M 7.200 127.200 C 5.465 128.935, 5.465 259.065, 7.200 260.800 C 8.085 261.685, 17.117 262, 41.629 262 C 70.503 262, 75.063 261.794, 76.429 260.429 C 77.825 259.032, 78 251.628, 78 194 C 78 136.372, 77.825 128.968, 76.429 127.571 C 75.063 126.206, 70.503 126, 41.629 126 C 17.117 126, 8.085 126.315, 7.200 127.200 M 14 194 L 14 254 42 254 L 70 254 70 194 L 70 134 42 134 L 14 134 14 194 M 127.634 239.097 C 120.784 240.488, 111.291 245.026, 106 249.439 C 100.563 253.974, 99.232 256.370, 100.980 258.476 C 102.926 260.821, 104.900 260.323, 109.255 256.388 C 111.454 254.402, 116.234 251.364, 119.877 249.638 C 125.993 246.740, 127.304 246.500, 137 246.500 C 146.679 246.500, 148.014 246.744, 154.072 249.614 C 158.519 251.722, 162.749 254.865, 167.159 259.340 C 178.693 271.046, 193.821 275.856, 209.223 272.715 C 226.095 269.274, 240.745 257.990, 233.903 253.704 C 232.674 252.934, 231.052 253.651, 226.858 256.818 C 217.268 264.058, 212.973 265.500, 201 265.500 C 191.266 265.500, 190.008 265.267, 183.759 262.307 C 179.377 260.231, 175.395 257.352, 172.380 254.078 C 163.679 244.633, 152.783 239.469, 139.702 238.591 C 135.741 238.326, 130.310 238.553, 127.634 239.097 " stroke="none" fill="black" fill-rule="evenodd"/>
</svg>