<svg xmlns="http://www.w3.org/2000/svg" width="468" height="324" viewBox="0 0 468 324" version="1.1">
	<path d="M 129.608 132.122 C 117.806 142.937, 109.219 157.313, 104.894 173.500 C 103.274 179.564, 102.757 184.404, 102.757 193.500 C 102.757 202.596, 103.274 207.436, 104.894 213.500 C 109.226 229.712, 117.805 244.062, 129.656 254.922 C 136.569 261.256, 139.264 262.147, 141.367 258.791 C 142.262 257.362, 141.119 255.807, 134.383 249.291 C 125.479 240.678, 121.331 235.068, 116.961 225.730 C 102.837 195.546, 110.742 157.607, 135.574 136.392 C 141.144 131.634, 142.634 127.841, 139.418 126.607 C 136.819 125.609, 136.552 125.759, 129.608 132.122 M 223.870 127.014 C 216.247 128.211, 206.649 131.523, 200 135.249 C 191.308 140.120, 178.159 154.043, 173.791 163 C 170.122 170.523, 167 180.716, 167 185.172 C 167 186.483, 166.330 188.512, 165.511 189.681 C 164.192 191.564, 164.192 192.215, 165.511 195.372 C 166.330 197.332, 167 200.123, 167 201.574 C 167 206.252, 170.038 216.304, 173.778 224 C 176.601 229.810, 179.459 233.536, 186.461 240.535 C 196.765 250.834, 205.631 255.873, 218.182 258.562 C 222.207 259.424, 227.605 260.584, 230.178 261.139 C 233.428 261.840, 235.468 261.820, 236.862 261.074 C 237.966 260.483, 240.071 260, 241.540 260 C 246.243 260, 256.284 256.973, 263.806 253.287 C 272.723 248.917, 284.028 238.666, 289.945 229.585 C 303.287 209.107, 303.994 181.846, 291.751 160 C 286.880 151.308, 272.957 138.159, 264 133.791 C 251.351 127.622, 236.240 125.070, 223.870 127.014 M 217.500 135.870 C 201.398 140.505, 187.339 152.243, 180.214 167 C 177.957 171.675, 175.823 176.969, 175.472 178.765 L 174.834 182.030 178.167 180.093 C 191.419 172.388, 213.415 173.053, 226.249 181.546 L 230 184.028 230 159.014 L 230 134 226.750 134.071 C 224.963 134.110, 220.800 134.920, 217.500 135.870 M 238 162.929 C 238 196.066, 237.226 193.314, 247.983 198.412 C 253.994 201.260, 255.326 201.500, 265.123 201.500 C 275.550 201.500, 275.888 201.426, 283.539 197.500 C 287.826 195.300, 291.804 192.736, 292.379 191.802 C 294.213 188.823, 291.441 176.418, 286.837 167 C 279.427 151.841, 264.671 139.794, 248.356 135.585 C 236.901 132.630, 238 129.727, 238 162.929 M 33.384 159.412 C 15.475 163.758, 3.559 181.807, 6.987 199.396 C 12.474 227.556, 46.003 238.157, 66.080 218.080 C 85.609 198.551, 76.140 165.714, 49.147 159.360 C 42.397 157.772, 40.111 157.779, 33.384 159.412 M 31.054 167.728 C 25.018 169.859, 17.781 177.260, 15.667 183.463 C 11.995 194.241, 14.382 205.477, 21.952 213.048 C 32.673 223.769, 50.327 223.769, 61.048 213.048 C 71.769 202.327, 71.769 184.673, 61.048 173.952 C 53.519 166.424, 41.696 163.970, 31.054 167.728 M 187.669 184.073 C 184.462 185.176, 180.075 187.246, 177.919 188.672 C 174.154 191.164, 174 191.480, 174 196.739 C 174 216.387, 187.993 237.610, 207 246.786 C 211.675 249.043, 217.075 251.188, 219 251.551 C 222.316 252.178, 221.854 251.556, 210.250 239.767 C 203.512 232.922, 198 226.831, 198 226.232 C 198 224.820, 200.825 222, 202.239 222 C 202.841 222, 209.341 227.948, 216.683 235.218 L 230.032 248.437 229.766 220.468 L 229.500 192.500 224 188.817 C 213.730 181.941, 199.333 180.060, 187.669 184.073 M 289.459 203.057 C 285.677 205.576, 276.084 208.550, 268.926 209.421 C 260.553 210.441, 249.774 207.868, 238.750 202.218 C 238.338 202.006, 238 212.312, 238 225.119 L 238 248.405 251.333 235.202 C 258.666 227.941, 265.159 222, 265.761 222 C 267.175 222, 270 224.820, 270 226.232 C 270 226.831, 264.488 232.906, 257.750 239.732 C 244.001 253.662, 244.219 254.362, 259.942 246.782 C 275.202 239.426, 287.682 224.035, 291.437 207.940 C 292.252 204.445, 292.807 201.473, 292.669 201.336 C 292.531 201.198, 291.087 201.972, 289.459 203.057 M 353.500 239.047 C 343.011 240.861, 333.773 245.511, 327.217 252.276 C 323.685 255.921, 323.676 258.445, 327.192 259.561 C 328.607 260.010, 330.131 259.330, 332.350 257.258 C 340.324 249.814, 349.958 246, 360.787 246 C 373.442 246, 382.356 249.984, 392 259.951 C 408.687 277.197, 438.065 278.052, 456.540 261.831 C 460.501 258.353, 461.161 254.503, 457.970 253.490 C 456.520 253.030, 454.888 253.769, 452.267 256.070 C 450.247 257.844, 445.648 260.691, 442.047 262.397 C 436.017 265.255, 434.670 265.500, 425 265.500 C 415.333 265.500, 413.981 265.254, 407.962 262.402 C 403.858 260.457, 399.606 257.383, 396.541 254.146 C 385.165 242.131, 368.820 236.397, 353.500 239.047 " stroke="none" fill="black" fill-rule="evenodd"/>
</svg>