<svg xmlns="http://www.w3.org/2000/svg" width="436" height="324" viewBox="0 0 436 324" version="1.1">
	<path d="M 351.536 127.055 C 343.323 128.331, 336.577 130.628, 329.500 134.560 C 313.847 143.256, 302.873 156.529, 297.304 173.500 C 295.060 180.336, 294.678 183.245, 294.678 193.500 C 294.678 203.755, 295.060 206.664, 297.304 213.500 C 304.610 235.763, 322.682 252.870, 345 258.650 C 353.671 260.895, 369.440 260.855, 378 258.566 C 388.951 255.637, 399.602 249.427, 408.095 241.019 C 421.603 227.646, 428 212.375, 428 193.500 C 428 174.625, 421.603 159.354, 408.095 145.981 C 393.016 131.053, 371.708 123.923, 351.536 127.055 M 345.345 135.904 C 334.669 138.959, 328.034 142.960, 319.489 151.497 C 307.028 163.945, 302 176.021, 302 193.500 C 302 210.512, 307.128 223.074, 318.993 235.125 C 330.911 247.231, 344.528 253, 361.184 253 C 371.272 253, 379.110 251.144, 388.500 246.532 C 397.653 242.036, 404.725 235.689, 410.945 226.391 C 418.073 215.733, 420.500 207.379, 420.500 193.500 C 420.500 179.818, 418.130 171.520, 411.184 160.879 C 402.912 148.208, 390.373 139.286, 375.540 135.515 C 367.575 133.490, 353.129 133.676, 345.345 135.904 M 33.384 159.412 C 15.475 163.758, 3.559 181.807, 6.987 199.396 C 8.500 207.161, 12.212 214.019, 17.580 218.967 C 40.258 239.870, 76.252 224.246, 76.252 193.500 C 76.252 176.888, 65.367 163.178, 49.147 159.360 C 42.397 157.772, 40.111 157.779, 33.384 159.412 M 103.750 159.080 C 102.138 160.019, 102 162.769, 102 194.015 C 102 226.522, 102.080 227.973, 103.934 228.965 C 105.154 229.617, 117.876 230, 138.363 230 C 166.570 230, 171.064 229.793, 172.429 228.429 C 173.793 227.064, 174 222.537, 174 194 C 174 165.463, 173.793 160.936, 172.429 159.571 C 171.063 158.206, 166.580 158.004, 138.179 158.030 C 117.849 158.049, 104.839 158.446, 103.750 159.080 M 354.355 158.986 C 343.790 161.214, 334.114 169.146, 329.329 179.500 C 325.374 188.059, 325.386 198.895, 329.361 207.610 C 332.861 215.285, 339.689 222.075, 347.480 225.629 C 355.387 229.236, 365.732 229.409, 374.297 226.077 C 381.354 223.331, 389.569 215.634, 393.056 208.500 C 395.152 204.212, 395.500 202.075, 395.500 193.500 C 395.500 181.367, 393.450 176.286, 385.353 168.339 C 377.361 160.497, 364.948 156.752, 354.355 158.986 M 31.054 167.728 C 25.018 169.859, 17.781 177.260, 15.667 183.463 C 11.995 194.241, 14.382 205.477, 21.952 213.048 C 32.402 223.497, 49.888 223.773, 60.280 213.653 C 65.822 208.256, 68.291 202.953, 68.805 195.341 C 69.388 186.717, 67.028 180.189, 61.146 174.150 C 53.627 166.431, 41.848 163.917, 31.054 167.728 M 110 194 L 110 222 138 222 L 166 222 166 194 L 166 166 138 166 L 110 166 110 194 M 351.627 167.468 C 346.247 169.386, 341.039 173.829, 337.500 179.519 C 333.527 185.908, 332.712 197.311, 335.741 204.129 C 340.289 214.364, 348.183 219.994, 359.078 220.773 C 366.881 221.332, 372.235 219.787, 378.674 215.119 C 386.430 209.497, 390.774 196.233, 388.098 186.343 C 384.899 174.521, 373.747 165.958, 361.663 166.044 C 358.273 166.068, 353.757 166.709, 351.627 167.468 M 39.571 191.571 C 38.707 192.436, 38 193.529, 38 194 C 38 195.111, 40.889 198, 42 198 C 43.111 198, 46 195.111, 46 194 C 46 192.889, 43.111 190, 42 190 C 41.529 190, 40.436 190.707, 39.571 191.571 M 199.585 191.558 C 198.713 192.430, 198 193.529, 198 194 C 198 194.471, 198.713 195.570, 199.585 196.442 C 200.978 197.835, 205.159 197.995, 234.226 197.763 C 264.452 197.523, 267.377 197.350, 268.386 195.750 C 269.191 194.474, 269.191 193.526, 268.386 192.250 C 267.377 190.650, 264.452 190.477, 234.226 190.237 C 205.159 190.005, 200.978 190.165, 199.585 191.558 M 359.750 191.080 C 357.372 192.465, 357.542 195.685, 360.064 197.034 C 363.753 199.008, 366.819 194.219, 363.800 191.200 C 362.367 189.767, 362.022 189.757, 359.750 191.080 " stroke="none" fill="black" fill-rule="evenodd"/>
</svg>