<svg xmlns="http://www.w3.org/2000/svg" width="228" height="324" viewBox="0 0 228 324" version="1.1">
	<path d="M 23.200 128.200 C 21.137 130.263, 21.835 131.616, 27.426 136.392 C 43.252 149.913, 53.021 171.518, 52.983 192.910 C 52.943 215.006, 45.874 232.027, 30.250 247.647 C 25.712 252.184, 22 256.539, 22 257.325 C 22 258.112, 22.673 259.313, 23.495 259.996 C 25.316 261.507, 28.024 259.927, 35.350 253.079 C 45.432 243.657, 54.092 228.581, 58.087 213.500 C 61.043 202.342, 61.043 184.658, 58.087 173.500 C 53.866 157.563, 45.116 142.798, 33.856 132.608 C 27.588 126.936, 25.378 126.022, 23.200 128.200 M 23.250 158.662 C 21.004 159.569, 21.929 162.866, 25.905 168.119 C 36.845 182.573, 36.642 203.548, 25.417 218.556 C 22.987 221.804, 21 224.775, 21 225.159 C 21 225.543, 21.727 226.584, 22.616 227.473 C 24.742 229.600, 27.120 228.102, 32.257 221.401 C 45.431 204.216, 44.311 177.952, 29.694 161.304 C 26.858 158.075, 25.791 157.637, 23.250 158.662 M 145.384 159.412 C 132.471 162.545, 121.316 173.921, 119.399 185.908 L 118.744 190 103.944 190 C 91.822 190, 88.858 190.284, 87.571 191.571 C 85.598 193.545, 85.598 194.455, 87.571 196.429 C 88.859 197.716, 91.823 198, 103.960 198 L 118.777 198 119.473 201.750 C 120.542 207.519, 124.924 214.746, 130.261 219.545 C 144.053 231.945, 164.852 231.308, 178.080 218.080 C 183.319 212.841, 188 204.056, 188 199.462 C 188 198.242, 190.557 198, 203.429 198 C 216.121 198, 219.136 197.721, 220.429 196.429 C 222.402 194.455, 222.402 193.545, 220.429 191.571 C 219.136 190.279, 216.121 190, 203.429 190 C 188.765 190, 188 189.903, 188 188.038 C 188 184.052, 183.815 175.071, 179.868 170.587 C 174.846 164.882, 168.541 161.101, 161.147 159.360 C 154.397 157.772, 152.111 157.779, 145.384 159.412 M 143.385 167.617 C 135.428 170.439, 128.611 178.342, 126.450 187.250 L 125.783 190 153.500 190 L 181.217 190 180.550 187.250 C 178.335 178.120, 171.528 170.390, 163.205 167.554 C 157.596 165.643, 148.873 165.671, 143.385 167.617 M 7.250 174.662 C 5.299 175.450, 5.829 179.121, 8.526 183.500 C 12.225 189.506, 11.984 197.056, 7.888 203.515 C 4.455 208.929, 4.844 211.500, 9.099 211.500 C 12.054 211.500, 17.408 203.101, 18.398 196.915 C 19.530 189.835, 16.733 180.733, 11.959 175.959 C 9.945 173.945, 9.400 173.795, 7.250 174.662 M 126.525 200.250 C 130.314 213.167, 140.497 221, 153.500 221 C 166.503 221, 176.686 213.167, 180.475 200.250 L 181.135 198 153.500 198 L 125.865 198 126.525 200.250 " stroke="none" fill="black" fill-rule="evenodd"/>
</svg>