<svg xmlns="http://www.w3.org/2000/svg" width="164" height="324" viewBox="0 0 164 324" version="1.1">
	<path d="M 119.043 128.448 C 117.477 130.335, 118.369 131.766, 124.586 137.335 C 149.396 159.558, 156.501 197.246, 141.511 227.114 C 137.008 236.087, 130.474 244.612, 123.458 250.669 C 117.873 255.491, 116.875 257.821, 119.472 259.977 C 121.612 261.752, 126.469 258.451, 134.535 249.740 C 151.104 231.843, 159.123 207.604, 156.181 184.308 C 153.692 164.609, 146.505 149.611, 132.913 135.754 C 124.302 126.976, 121.493 125.496, 119.043 128.448 M 119.200 159.200 C 117.280 161.120, 117.770 162.883, 121.481 167.411 C 128.414 175.873, 131.441 187.357, 129.834 199.108 C 128.834 206.416, 126.507 211.929, 121.858 218 C 116.899 224.475, 116.696 224.929, 118.036 226.544 C 120.064 228.987, 122.592 228.194, 126.476 223.895 C 131.397 218.448, 135.569 209.393, 137.097 200.844 C 139.432 187.778, 134.980 171.518, 126.495 162.127 C 122.577 157.790, 121.173 157.227, 119.200 159.200 M 103.200 175.200 C 101.434 176.966, 101.709 178.648, 104.557 183.507 C 108.341 189.963, 108.152 196.628, 103.996 203.313 C 100.579 208.811, 100.794 211.214, 104.758 211.807 C 108.680 212.394, 115 200.804, 115 193.023 C 115 188.235, 112.037 180.251, 109.088 177.094 C 105.917 173.700, 104.996 173.404, 103.200 175.200 M 7.515 191.627 C 5.661 193.482, 6.064 200.005, 8.681 210.483 C 14.289 232.935, 34.089 252.732, 56.517 258.313 C 66.805 260.873, 74.536 261.322, 76.391 259.466 C 78.403 257.454, 78.410 256.553, 76.429 254.571 C 75.453 253.596, 73.082 252.994, 70.179 252.985 C 63.040 252.963, 53.473 250.351, 45.603 246.278 C 28.179 237.258, 14 215.452, 14 197.677 C 14 194.888, 13.395 192.538, 12.429 191.571 C 10.444 189.587, 9.546 189.597, 7.515 191.627 " stroke="none" fill="black" fill-rule="evenodd"/>
</svg>