<svg xmlns="http://www.w3.org/2000/svg" width="228" height="324" viewBox="0 0 228 324" version="1.1">
	<path d="M 71.571 127.571 C 70.178 128.965, 70 135.897, 70 188.774 L 70 248.405 56.667 235.202 C 49.334 227.941, 42.841 222, 42.239 222 C 40.825 222, 38 224.820, 38 226.232 C 38 226.831, 43.512 232.922, 50.250 239.767 C 61.854 251.556, 62.316 252.178, 59 251.551 C 57.075 251.188, 51.701 249.050, 47.058 246.802 C 28.325 237.728, 14.082 216.402, 14.015 197.321 C 14.001 193.426, 12.122 190, 10 190 C 9.529 190, 8.411 190.732, 7.515 191.627 C 4.472 194.671, 7.724 211.409, 13.807 224 C 16.624 229.831, 19.441 233.512, 26.465 240.539 C 36.824 250.903, 45.483 255.841, 58 258.523 C 62.125 259.407, 67.605 260.584, 70.178 261.139 C 73.428 261.840, 75.468 261.820, 76.862 261.074 C 77.966 260.483, 80.071 260, 81.540 260 C 86.249 260, 96.283 256.972, 104 253.222 C 114.587 248.078, 128.092 234.559, 133.193 224 C 139.276 211.409, 142.528 194.671, 139.485 191.627 C 138.589 190.732, 137.471 190, 137 190 C 134.878 190, 132.999 193.426, 132.985 197.321 C 132.918 216.400, 118.607 237.856, 100 246.777 C 84.211 254.346, 83.994 253.668, 97.750 239.732 C 104.488 232.906, 110 226.831, 110 226.232 C 110 224.820, 107.175 222, 105.761 222 C 105.159 222, 98.666 227.941, 91.333 235.202 L 78 248.405 78 188.774 C 78 135.897, 77.822 128.965, 76.429 127.571 C 75.564 126.707, 74.471 126, 74 126 C 73.529 126, 72.436 126.707, 71.571 127.571 M 182.503 128.989 C 182.009 130.546, 183.677 132.782, 190.186 139.290 C 205.731 154.830, 212.965 172.046, 212.965 193.500 C 212.965 214.922, 205.729 232.172, 190.250 247.647 C 181.840 256.055, 180.871 257.818, 183.472 259.977 C 185.490 261.651, 190.021 258.765, 197.121 251.280 C 204.040 243.988, 208.186 237.927, 212.536 228.744 C 218.148 216.898, 220.243 207.318, 220.243 193.500 C 220.243 184.404, 219.726 179.564, 218.106 173.500 C 213.868 157.641, 205.304 143.126, 194.021 132.680 C 187.475 126.620, 183.645 125.392, 182.503 128.989 M 183.250 158.662 C 181.097 159.531, 181.875 162.819, 185.293 167.297 C 191.709 175.703, 193.492 181.289, 193.496 193 C 193.500 202.674, 193.256 204.015, 190.397 210.047 C 188.691 213.648, 185.844 218.247, 184.070 220.267 C 181.769 222.888, 181.030 224.520, 181.490 225.970 C 182.503 229.161, 186.353 228.501, 189.831 224.540 C 199.364 213.682, 203.500 198.068, 200.568 184.006 C 198.722 175.149, 195.403 167.999, 190.456 162.220 C 186.955 158.129, 185.883 157.600, 183.250 158.662 M 166.571 175.571 C 164.518 177.625, 164.535 177.721, 167.750 182.361 C 170.079 185.721, 170.500 187.351, 170.500 193 C 170.500 198.699, 170.087 200.268, 167.661 203.768 C 164.346 208.552, 164.697 212, 168.499 212 C 170.940 212, 173.170 209.507, 176.549 203 C 180.454 195.482, 178.199 182.199, 171.959 175.959 C 169.589 173.589, 168.623 173.520, 166.571 175.571 " stroke="none" fill="black" fill-rule="evenodd"/>
</svg>