<svg xmlns="http://www.w3.org/2000/svg" width="308" height="324" viewBox="0 0 308 324" version="1.1">
	<path d="M 72.316 62.784 C 70.369 64.022, 54.007 97.855, 54.604 99.410 C 55.450 101.615, 58.110 102.210, 59.895 100.594 C 60.778 99.795, 64.185 93.709, 67.467 87.070 C 70.748 80.432, 73.687 75, 73.997 75 C 74.308 75, 77.453 80.837, 80.986 87.972 C 84.520 95.106, 88.050 101.189, 88.832 101.489 C 90.716 102.212, 93 100.227, 93 97.866 C 93 95.626, 77.264 63.831, 75.628 62.765 C 74.214 61.845, 73.789 61.847, 72.316 62.784 M 35.045 127.064 C 19.586 130.194, 7.255 144.080, 6.841 158.824 C 6.608 167.116, 13.745 191.455, 20.235 204.500 C 28.060 220.232, 43.432 238.952, 56.899 249.153 L 63.298 254 36.221 254 C 12.938 254, 8.923 254.220, 7.571 255.571 C 5.596 257.546, 5.598 258.455, 7.579 260.436 C 8.990 261.847, 16.058 261.987, 74.220 261.757 C 134.934 261.517, 139.356 261.383, 140.386 259.750 C 141.191 258.474, 141.191 257.526, 140.387 256.250 C 139.394 254.675, 136.579 254.450, 112.169 254 L 85.054 253.500 92.125 248 C 115.187 230.063, 132.712 201.092, 138.835 170.781 C 140.987 160.130, 140.347 153.626, 136.362 145.662 C 124.406 121.766, 90.345 120.095, 75.981 142.700 L 73.312 146.900 71.124 143.007 C 64.711 131.596, 48.355 124.368, 35.045 127.064 M 223.531 127.067 C 201.361 130.469, 182.843 144.190, 173.007 164.500 C 163.889 183.326, 163.891 203.688, 173.010 222.500 C 192.782 263.284, 244.322 273.162, 278.516 242.722 C 295.560 227.549, 303.822 200.551, 298.211 178.363 C 293.013 157.807, 280.841 142.508, 262.500 133.477 C 250.509 127.573, 235.896 125.169, 223.531 127.067 M 31.591 135.573 C 23.452 138.555, 15.998 146.866, 14.553 154.569 C 13.726 158.977, 16.225 172.568, 20.050 184.464 C 25.992 202.943, 35.743 218.759, 49.988 233.026 C 55.220 238.265, 62.724 244.731, 66.665 247.394 L 73.830 252.237 81.502 246.934 C 96.559 236.525, 111.143 219.907, 119.764 203.337 C 127.733 188.019, 133.910 165.555, 132.584 156.712 C 131.161 147.222, 123.232 138.158, 113.609 135.020 C 107.591 133.058, 97.093 134.170, 91.680 137.342 C 83.949 141.872, 78.067 150.781, 78.022 158.027 C 77.998 161.891, 75.675 166, 73.515 166 C 71.013 166, 69 162.918, 69 159.088 C 69 153.811, 63.742 143.755, 59.031 140.024 C 51.664 134.190, 40.368 132.357, 31.591 135.573 M 218 135.520 C 207.677 138.347, 199.973 142.965, 191.394 151.467 C 179.128 163.623, 173.639 176.617, 173.639 193.500 C 173.639 210.378, 179.126 223.370, 191.394 235.543 C 200.246 244.326, 207.803 248.710, 219.060 251.594 C 227.800 253.833, 244.050 253.075, 252.723 250.024 C 266.903 245.035, 279.475 233.929, 286.055 220.577 C 295.080 202.265, 295.080 184.735, 286.055 166.423 C 279.478 153.078, 266.927 141.986, 252.723 136.966 C 244.518 134.066, 226.108 133.300, 218 135.520 " stroke="none" fill="black" fill-rule="evenodd"/>
</svg>