<svg xmlns="http://www.w3.org/2000/svg" width="244" height="324" viewBox="0 0 244 324" version="1.1">
	<path d="M 39.571 127.571 C 38.176 128.966, 38 136.152, 38 191.571 L 38 254 23.571 254 C 11.788 254, 8.855 254.288, 7.571 255.571 C 5.598 257.545, 5.598 258.455, 7.571 260.429 C 8.936 261.793, 13.463 262, 42 262 C 70.537 262, 75.064 261.793, 76.429 260.429 C 77.293 259.564, 78 258.471, 78 258 C 78 257.529, 77.293 256.436, 76.429 255.571 C 75.145 254.288, 72.212 254, 60.429 254 L 46 254 46 191.571 C 46 136.152, 45.824 128.966, 44.429 127.571 C 43.564 126.707, 42.471 126, 42 126 C 41.529 126, 40.436 126.707, 39.571 127.571 M 157.500 127.480 C 132.738 132.078, 113.466 149.056, 105.265 173.500 L 102.580 181.500 102.217 220.309 C 101.945 249.402, 102.153 259.480, 103.049 260.559 C 104.068 261.787, 113.884 261.998, 169.372 261.985 C 205.193 261.976, 235.097 261.591, 235.826 261.129 C 236.888 260.456, 237.130 253.663, 237.041 227.058 C 236.926 192.943, 236.191 182.212, 233.372 173.500 C 225.409 148.893, 203.869 130.720, 178.284 127.020 C 169.726 125.783, 166.223 125.861, 157.500 127.480 M 154.645 135.584 C 139.614 139.223, 123.609 151.880, 116.708 165.587 C 110.315 178.282, 110 180.812, 110 219.394 L 110 254 170 254 L 230 254 229.983 226.750 C 229.956 184.754, 228.082 173.921, 218.388 159.734 C 210.131 147.650, 197.937 139.175, 183.540 135.515 C 176.213 133.653, 162.488 133.685, 154.645 135.584 M 164.994 158.934 C 156.846 161.413, 151.639 167.011, 150.443 174.578 C 149.953 177.682, 150.199 179.056, 151.471 180.328 C 152.391 181.248, 153.535 182, 154.015 182 C 155.484 182, 158 177.693, 158 175.177 C 158 173.807, 159.440 171.360, 161.400 169.400 C 164.231 166.569, 165.533 166, 169.177 166 C 178.941 166, 184.196 175.962, 178.719 184.089 C 177.465 185.950, 175.102 187.872, 173.469 188.360 C 165.504 190.737, 166 189.869, 166 201.443 C 166 211.199, 166.152 212.011, 168.183 213.098 C 171.838 215.054, 174 211.284, 174 202.957 C 174 196.941, 174.244 196.057, 176.066 195.479 C 178.995 194.549, 184.840 189.210, 186.551 185.901 C 187.348 184.360, 188 180.580, 188 177.500 C 188 170.952, 186.435 167.467, 181.578 163.203 C 176.571 158.806, 170.528 157.251, 164.994 158.934 M 167.750 222.080 C 165.372 223.465, 165.542 226.685, 168.064 228.034 C 171.753 230.008, 174.819 225.219, 171.800 222.200 C 170.367 220.767, 170.022 220.757, 167.750 222.080 " stroke="none" fill="black" fill-rule="evenodd"/>
</svg>