<svg xmlns="http://www.w3.org/2000/svg" width="372" height="324" viewBox="0 0 372 324" version="1.1">
	<path d="M 7.571 127.571 C 6.707 128.436, 6 129.657, 6 130.286 C 6 130.914, 20.400 145.854, 38 163.485 L 70 195.540 70 227.199 C 70 254.646, 70.209 259.066, 71.571 260.429 C 73.545 262.402, 74.455 262.402, 76.429 260.429 C 77.788 259.069, 78 254.758, 78 228.429 L 78 198 138 198 L 198 198 198 228.429 C 198 254.758, 198.212 259.069, 199.571 260.429 C 201.545 262.402, 202.455 262.402, 204.429 260.429 C 205.793 259.064, 206 254.537, 206 226 C 206 197.463, 205.793 192.936, 204.429 191.571 C 203.033 190.176, 195.737 190, 139.199 190 L 75.540 190 43.485 158 C 25.854 140.400, 10.914 126, 10.286 126 C 9.657 126, 8.436 126.707, 7.571 127.571 M 287.102 127.108 C 261.640 130.961, 239.155 151.450, 232.349 177 C 230.078 185.527, 230.091 201.277, 232.377 210 C 235.584 222.236, 240.558 230.636, 250.461 240.539 C 264.528 254.606, 278.138 260.333, 297.500 260.333 C 316.862 260.333, 330.472 254.606, 344.539 240.539 C 358.606 226.472, 364.333 212.862, 364.333 193.500 C 364.333 174.138, 358.606 160.528, 344.539 146.461 C 334.823 136.745, 326.203 131.569, 314.831 128.621 C 307.080 126.612, 294.806 125.942, 287.102 127.108 M 282.645 135.584 C 262.671 140.419, 244.279 158.986, 239.537 179.103 C 234.672 199.742, 240.569 220.600, 255.484 235.516 C 270.400 250.431, 291.258 256.328, 311.897 251.463 C 332.261 246.662, 350.662 228.261, 355.463 207.897 C 357.390 199.718, 357.390 187.282, 355.463 179.103 C 350.662 158.739, 332.261 140.338, 311.897 135.537 C 303.998 133.676, 290.439 133.697, 282.645 135.584 " stroke="none" fill="black" fill-rule="evenodd"/>
</svg>