<svg xmlns="http://www.w3.org/2000/svg" width="244" height="324" viewBox="0 0 244 324" version="1.1">
	<path d="M 7.750 127.080 C 6.112 128.034, 6 132.268, 6 193.478 C 6 251.580, 6.175 259.032, 7.571 260.429 C 8.436 261.293, 9.529 262, 10 262 C 10.471 262, 11.564 261.293, 12.429 260.429 C 13.824 259.034, 14 251.848, 14 196.429 L 14 134 44.429 134 C 70.758 134, 75.069 133.788, 76.429 132.429 C 77.293 131.564, 78 130.471, 78 130 C 78 129.529, 77.293 128.436, 76.429 127.571 C 75.063 126.206, 70.580 126.004, 42.179 126.030 C 21.849 126.049, 8.839 126.446, 7.750 127.080 M 167.750 127.080 C 166.143 128.016, 166 130.628, 166 159.050 L 166 190 135.122 190 C 108.954 190, 104.056 190.228, 103.005 191.494 C 99.904 195.231, 105.088 216.822, 111.721 227.792 C 127.271 253.509, 157.285 265.774, 186.500 258.352 C 207.121 253.112, 225.765 235.530, 233.002 214.495 C 235.762 206.472, 237.445 193.241, 235.936 191.423 C 234.962 190.250, 229.426 190, 204.378 190 L 174 190 174 160.223 C 174 134.890, 173.768 130.113, 172.443 128.223 C 170.702 125.736, 170.248 125.625, 167.750 127.080 M 110 200.290 C 110 204.593, 112.971 213.992, 116.625 221.249 C 119.135 226.234, 122.498 230.700, 127.388 235.541 C 162.386 270.188, 220.580 250.737, 228.485 201.750 L 229.091 198 169.545 198 L 110 198 110 200.290 " stroke="none" fill="black" fill-rule="evenodd"/>
</svg>