<svg xmlns="http://www.w3.org/2000/svg" width="308" height="324" viewBox="0 0 308 324" version="1.1">
	<path d="M 71.550 62.918 C 67.869 68.875, 54.190 98.331, 54.604 99.410 C 55.269 101.144, 57.524 102.120, 59.295 101.440 C 60.007 101.167, 63.480 95.106, 67.014 87.972 C 70.547 80.837, 73.691 75, 74 75 C 74.309 75, 77.453 80.837, 80.986 87.972 C 84.520 95.106, 88.050 101.189, 88.832 101.489 C 90.716 102.212, 93 100.227, 93 97.866 C 93 95.626, 77.264 63.831, 75.628 62.765 C 74.071 61.751, 72.229 61.820, 71.550 62.918 M 63.102 127.104 C 48.516 129.321, 35.328 136.577, 24.168 148.528 C 13.743 159.690, 8.232 172.239, 6.458 188.855 L 5.779 195.210 39.120 228.605 C 57.457 246.972, 72.999 262, 73.659 262 C 74.318 262, 75.564 261.293, 76.429 260.429 C 77.712 259.145, 78 256.212, 78 244.429 L 78 230 92.429 230 C 104.212 230, 107.145 229.712, 108.429 228.429 C 109.793 227.064, 110 222.537, 110 194 C 110 165.463, 109.793 160.936, 108.429 159.571 C 107.145 158.288, 104.212 158, 92.429 158 L 78 158 78 146 C 78 132.285, 77.405 132.939, 87.540 135.515 C 108.925 140.951, 125.621 157.468, 131.003 178.511 C 132.101 182.806, 133 188.482, 133 191.125 C 133 194.956, 133.418 196.154, 135.064 197.034 C 142.986 201.274, 141.161 178.669, 132.196 161.516 C 126.915 151.410, 114.917 139.609, 104.500 134.271 C 91.374 127.546, 76.799 125.023, 63.102 127.104 M 221.500 127.418 C 204.355 130.753, 190.221 139.326, 180.341 152.383 C 168.091 168.571, 163.655 187.446, 167.553 206.792 C 172.588 231.773, 191.962 252.107, 217 258.688 C 227.128 261.350, 242.443 260.901, 252.521 257.647 C 277.962 249.433, 294.712 229.796, 299.450 202.628 C 302.950 182.554, 294.046 158.259, 277.801 143.558 C 271.325 137.697, 256.936 130.003, 248.974 128.142 C 241.072 126.295, 228.920 125.975, 221.500 127.418 M 58.645 135.584 C 38.562 140.445, 20.305 158.877, 15.537 179.103 C 12.646 191.370, 12.514 191.049, 26 204.500 L 38 216.469 38 188.270 C 38 161.413, 38.092 160.021, 39.934 159.035 C 41.005 158.462, 48.151 158, 55.934 158 L 70 158 70 146 L 70 134 67.250 134.083 C 65.737 134.129, 61.865 134.804, 58.645 135.584 M 218.072 135.591 C 207.792 138.355, 199.969 143.015, 191.384 151.489 C 179.132 163.583, 173.639 176.587, 173.639 193.500 C 173.639 210.413, 179.132 223.417, 191.384 235.511 C 204.785 248.739, 217.452 253.628, 235.988 252.725 C 248.278 252.127, 255.893 249.808, 265.088 243.865 C 279.722 234.406, 289.189 219.627, 292.385 201.250 L 292.950 198 262.675 198 C 240.461 198, 232.080 197.680, 231.200 196.800 C 230.319 195.919, 230 187.422, 230 164.800 L 230 134 226.750 134.066 C 224.963 134.102, 221.057 134.788, 218.072 135.591 M 237 161.864 L 237 190 265.045 190 L 293.091 190 292.464 186.250 C 287.825 158.510, 267.668 137.890, 241.750 134.373 L 237 133.728 237 161.864 M 46 194 L 46 222 58 222 L 70 222 70 194 L 70 166 58 166 L 46 166 46 194 M 78 194 L 78 222 90 222 L 102 222 102 194 L 102 166 90 166 L 78 166 78 194 M 60.500 239 C 65.427 243.950, 69.580 248, 69.729 248 C 69.878 248, 70 243.950, 70 239 L 70 230 60.771 230 L 51.542 230 60.500 239 " stroke="none" fill="black" fill-rule="evenodd"/>
</svg>