<svg xmlns="http://www.w3.org/2000/svg" width="468" height="324" viewBox="0 0 468 324" version="1.1">
	<path d="M 39.571 127.571 C 38.176 128.966, 38 136.152, 38 191.571 L 38 254 23.571 254 C 11.788 254, 8.855 254.288, 7.571 255.571 C 5.598 257.545, 5.598 258.455, 7.571 260.429 C 8.936 261.793, 13.463 262, 42 262 C 70.537 262, 75.064 261.793, 76.429 260.429 C 77.293 259.564, 78 258.471, 78 258 C 78 257.529, 77.293 256.436, 76.429 255.571 C 75.145 254.288, 72.212 254, 60.429 254 L 46 254 46 191.571 C 46 136.152, 45.824 128.966, 44.429 127.571 C 43.564 126.707, 42.471 126, 42 126 C 41.529 126, 40.436 126.707, 39.571 127.571 M 200.500 158 L 168.512 190 136.827 190 C 109.357 190, 104.934 190.209, 103.571 191.571 C 101.598 193.545, 101.598 194.455, 103.571 196.429 C 104.931 197.788, 109.242 198, 135.571 198 L 166 198 166 228.800 C 166 251.422, 166.319 259.919, 167.200 260.800 C 168.109 261.709, 184.311 262, 234 262 C 283.689 262, 299.891 261.709, 300.800 260.800 C 301.686 259.914, 302 250.810, 302 226.044 L 302 192.489 268.744 159.244 C 250.454 140.960, 234.814 126, 233.989 126 C 233.163 126, 218.094 140.400, 200.500 158 M 220.499 149.001 L 207.527 162.002 222.763 177.263 C 231.143 185.656, 238 193.210, 238 194.049 C 238 195.777, 203.975 230, 202.257 230 C 200.825 230, 198 227.187, 198 225.761 C 198 225.159, 203.941 218.666, 211.202 211.333 L 224.405 198 199.202 198 L 174 198 174 226 L 174 254 234 254 L 294 254 294 224.744 L 294 195.487 264.244 165.744 C 247.878 149.385, 234.259 136, 233.979 136 C 233.700 136, 227.634 141.851, 220.499 149.001 M 190.500 179 L 179.534 190 202 190 L 224.466 190 213.500 179 C 207.469 172.950, 202.294 168, 202 168 C 201.706 168, 196.531 172.950, 190.500 179 M 359.571 223.571 C 358.707 224.436, 358 225.636, 358 226.239 C 358 226.841, 363.941 233.334, 371.202 240.667 L 384.405 254 356.774 254 C 332.988 254, 328.924 254.219, 327.571 255.571 C 325.598 257.545, 325.598 258.455, 327.571 260.429 C 328.968 261.825, 336.372 262, 394 262 C 451.628 262, 459.032 261.825, 460.429 260.429 C 462.402 258.455, 462.402 257.545, 460.429 255.571 C 459.076 254.219, 455.012 254, 431.226 254 L 403.595 254 416.798 240.667 C 424.059 233.334, 430 226.841, 430 226.239 C 430 224.817, 427.176 222, 425.751 222 C 425.143 222, 417.750 228.844, 409.323 237.208 L 394 252.416 378.677 237.208 C 370.250 228.844, 362.857 222, 362.249 222 C 361.640 222, 360.436 222.707, 359.571 223.571 " stroke="none" fill="black" fill-rule="evenodd"/>
</svg>