<svg xmlns="http://www.w3.org/2000/svg" width="244" height="324" viewBox="0 0 244 324" version="1.1">
	<path d="M 71.200 127.200 C 70.292 128.108, 70 143.689, 70 191.200 L 70 254 39.571 254 C 13.242 254, 8.931 254.212, 7.571 255.571 C 5.598 257.545, 5.598 258.455, 7.571 260.429 C 8.968 261.825, 16.372 262, 74 262 C 131.628 262, 139.032 261.825, 140.429 260.429 C 142.402 258.455, 142.402 257.545, 140.429 255.571 C 139.069 254.212, 134.758 254, 108.429 254 L 78 254 78 226 L 78 198 108.429 198 C 134.758 198, 139.069 197.788, 140.429 196.429 C 141.793 195.064, 142 190.537, 142 162 C 142 133.463, 141.793 128.936, 140.429 127.571 C 139.063 126.206, 134.503 126, 105.629 126 C 81.117 126, 72.085 126.315, 71.200 127.200 M 231.750 127.080 C 230.111 128.035, 230 132.293, 230 194.015 C 230 259.587, 230.011 259.935, 232.064 261.034 C 237.084 263.721, 237 264.854, 237 194.078 C 237 123.068, 237.071 123.981, 231.750 127.080 M 78 162 L 78 190 106 190 L 134 190 134 162 L 134 134 106 134 L 78 134 78 162 M 183.750 159.080 C 182.236 159.962, 182 161.730, 182 172.195 L 182 184.290 176.560 179.145 C 170.591 173.500, 170.703 173.553, 167.934 175.035 C 164.649 176.793, 165.730 179.181, 173.225 186.726 L 180.450 194 173.225 201.274 C 165.730 208.819, 164.649 211.207, 167.934 212.965 C 170.703 214.447, 170.591 214.500, 176.560 208.855 L 182 203.710 182 215.820 C 182 227.245, 182.123 227.996, 184.183 229.098 C 186.042 230.093, 186.636 229.933, 188.183 228.022 C 189.694 226.157, 190 223.918, 190 214.744 L 190 203.710 195.440 208.855 C 201.246 214.346, 201.931 214.669, 203.800 212.800 C 206.160 210.440, 204.903 207.706, 198.336 200.903 L 191.672 194 198.336 187.097 C 204.903 180.294, 206.160 177.560, 203.800 175.200 C 201.931 173.331, 201.246 173.654, 195.440 179.145 L 190 184.290 190 173.368 C 190 165.100, 189.622 161.905, 188.443 160.223 C 186.702 157.736, 186.248 157.625, 183.750 159.080 " stroke="none" fill="black" fill-rule="evenodd"/>
</svg>