<svg xmlns="http://www.w3.org/2000/svg" width="468" height="324" viewBox="0 0 468 324" version="1.1">
	<path d="M 215.213 143.315 C 205.746 152.838, 198 161.131, 198 161.743 C 198 163.175, 200.813 166, 202.239 166 C 202.841 166, 209.334 160.059, 216.667 152.798 L 230 139.595 230 194 L 230 248.405 216.667 235.202 C 209.334 227.941, 202.841 222, 202.239 222 C 200.825 222, 198 224.820, 198 226.232 C 198 226.831, 203.512 232.922, 210.250 239.767 C 221.854 251.556, 222.316 252.178, 219 251.551 C 217.075 251.188, 211.701 249.050, 207.058 246.802 C 188.325 237.728, 174.082 216.402, 174.015 197.321 C 174.001 193.426, 172.122 190, 170 190 C 169.529 190, 168.411 190.732, 167.515 191.627 C 164.455 194.687, 167.723 211.724, 173.687 223.806 C 177.922 232.384, 188.310 244.020, 196.715 249.599 C 206.407 256.032, 223.561 261.366, 234 261.192 C 243.019 261.042, 258.142 256.715, 267 251.751 C 275.658 246.899, 288.833 232.963, 293.235 224 C 299.280 211.693, 302.560 194.703, 299.485 191.627 C 298.589 190.732, 297.471 190, 297 190 C 294.878 190, 292.999 193.426, 292.985 197.321 C 292.918 216.413, 278.656 237.761, 259.942 246.782 C 244.219 254.362, 244.001 253.662, 257.750 239.732 C 264.488 232.906, 270 226.831, 270 226.232 C 270 224.820, 267.175 222, 265.761 222 C 265.159 222, 258.666 227.941, 251.333 235.202 L 238 248.405 238 194 L 238 139.595 251.333 152.798 C 258.666 160.059, 265.159 166, 265.761 166 C 267.187 166, 270 163.175, 270 161.743 C 270 159.994, 235.761 126, 234 126 C 233.134 126, 224.680 133.792, 215.213 143.315 M 327.571 127.571 C 326.175 128.968, 326 136.372, 326 194 C 326 251.628, 326.175 259.032, 327.571 260.429 C 328.968 261.825, 336.372 262, 394 262 C 451.628 262, 459.032 261.825, 460.429 260.429 C 461.825 259.032, 462 251.628, 462 194 C 462 136.372, 461.825 128.968, 460.429 127.571 C 459.032 126.175, 451.628 126, 394 126 C 336.372 126, 328.968 126.175, 327.571 127.571 M 334 147.500 C 334 154.925, 334.149 161, 334.332 161 C 334.514 161, 336.081 158.812, 337.814 156.138 C 341.411 150.586, 353.486 138.835, 357.981 136.510 C 359.642 135.651, 361 134.735, 361 134.474 C 361 134.213, 354.925 134, 347.500 134 L 334 134 334 147.500 M 378.645 135.584 C 358.671 140.419, 340.279 158.986, 335.537 179.103 C 330.672 199.742, 336.569 220.600, 351.484 235.516 C 366.400 250.431, 387.258 256.328, 407.897 251.463 C 428.261 246.662, 446.662 228.261, 451.463 207.897 C 453.390 199.718, 453.390 187.282, 451.463 179.103 C 446.662 158.739, 428.261 140.338, 407.897 135.537 C 399.998 133.676, 386.439 133.697, 378.645 135.584 M 426 134.332 C 426 134.514, 428.137 136.059, 430.750 137.765 C 436.880 141.769, 445.885 151.019, 450.426 157.977 L 454 163.454 454 148.727 L 454 134 440 134 C 432.300 134, 426 134.149, 426 134.332 M 65.384 159.412 C 52.471 162.545, 41.316 173.921, 39.399 185.908 L 38.744 190 23.944 190 C 11.822 190, 8.858 190.284, 7.571 191.571 C 5.598 193.545, 5.598 194.455, 7.571 196.429 C 8.859 197.716, 11.823 198, 23.960 198 L 38.777 198 39.473 201.750 C 40.492 207.247, 44.768 214.532, 49.580 218.967 C 63.537 231.832, 83.463 231.832, 97.420 218.967 C 102.232 214.532, 106.508 207.247, 107.527 201.750 L 108.223 198 123.540 198 C 136.131 198, 139.137 197.720, 140.429 196.429 C 142.402 194.455, 142.402 193.545, 140.429 191.571 C 139.137 190.280, 136.133 190, 123.556 190 L 108.256 190 107.601 185.908 C 105.648 173.692, 94.499 162.503, 81.147 159.360 C 74.397 157.772, 72.111 157.779, 65.384 159.412 M 385.384 159.412 C 367.475 163.758, 355.559 181.807, 358.987 199.396 C 360.500 207.161, 364.212 214.019, 369.580 218.967 C 390.277 238.045, 422.591 227.221, 428.013 199.396 C 431.488 181.565, 419.484 163.676, 401.147 159.360 C 394.397 157.772, 392.111 157.779, 385.384 159.412 M 63.385 167.617 C 55.428 170.439, 48.611 178.342, 46.450 187.250 L 45.783 190 73.500 190 L 101.217 190 100.550 187.250 C 98.335 178.120, 91.528 170.390, 83.205 167.554 C 77.596 165.643, 68.873 165.671, 63.385 167.617 M 383.054 167.728 C 377.018 169.859, 369.781 177.260, 367.667 183.463 C 361.198 202.450, 373.964 221, 393.500 221 C 409.108 221, 421 209.108, 421 193.500 C 421 177.670, 408.965 165.854, 393.072 166.079 C 390.007 166.122, 385.499 166.864, 383.054 167.728 M 391.571 191.571 C 390.707 192.436, 390 193.529, 390 194 C 390 195.111, 392.889 198, 394 198 C 395.111 198, 398 195.111, 398 194 C 398 192.889, 395.111 190, 394 190 C 393.529 190, 392.436 190.707, 391.571 191.571 M 46.525 200.250 C 50.314 213.167, 60.497 221, 73.500 221 C 86.503 221, 96.686 213.167, 100.475 200.250 L 101.135 198 73.500 198 L 45.865 198 46.525 200.250 M 451.052 228.121 C 447.645 234.183, 436.644 245.423, 429.635 250.002 L 423.517 254 438.758 254 L 454 254 454 239 C 454 230.750, 453.858 224, 453.684 224 C 453.510 224, 452.326 225.855, 451.052 228.121 M 334 240 L 334 254 348.727 254 L 363.454 254 357.977 250.426 C 351.019 245.885, 341.769 236.880, 337.765 230.750 C 336.059 228.137, 334.514 226, 334.332 226 C 334.149 226, 334 232.300, 334 240 " stroke="none" fill="black" fill-rule="evenodd"/>
</svg>