<svg xmlns="http://www.w3.org/2000/svg" width="260" height="324" viewBox="0 0 260 324" version="1.1">
	<path d="M 184.200 127.200 C 183.540 127.860, 183 129.092, 183 129.938 C 183 130.784, 189.863 138.351, 198.250 146.752 L 213.500 162.028 198.024 177.442 C 189.512 185.919, 182.405 193.285, 182.230 193.811 C 181.494 196.019, 185.239 198, 190.149 198 L 195.156 198 191.583 202.174 C 185.029 209.831, 183.500 214.243, 183.500 225.500 C 183.500 237.344, 185.532 242.618, 192.957 250.043 C 210.496 267.582, 239.156 262.254, 249.671 239.500 C 253.629 230.935, 253.628 220.062, 249.670 211.500 C 248.144 208.200, 245.253 203.813, 243.245 201.750 L 239.594 198 245.597 198 C 251.655 198, 254 196.901, 254 194.062 C 254 193.216, 247.143 185.656, 238.762 177.262 L 223.524 162 238.762 146.738 C 247.143 138.344, 254 130.710, 254 129.773 C 254 128.837, 253.040 127.557, 251.868 126.929 C 249.921 125.887, 248.376 127.144, 234.118 141.376 L 218.500 156.963 202.936 141.482 C 194.376 132.967, 186.928 126, 186.386 126 C 185.844 126, 184.860 126.540, 184.200 127.200 M 119.200 128.200 C 117.164 130.236, 117.796 131.376, 123.977 136.816 C 134.671 146.230, 144.169 162.134, 147.478 176.168 C 149.413 184.378, 149.413 202.622, 147.478 210.832 C 144.169 224.866, 134.671 240.770, 123.977 250.184 C 117.910 255.524, 116.851 257.801, 119.436 259.947 C 121.324 261.514, 123.834 260.169, 130.316 254.114 C 141.289 243.866, 150.197 228.998, 154.150 214.337 C 157.131 203.281, 157.131 183.719, 154.150 172.663 C 150.077 157.553, 141.048 142.729, 129.483 132.158 C 123.774 126.940, 121.381 126.019, 119.200 128.200 M 39.571 159.571 C 38.707 160.436, 38 161.529, 38 162 C 38 163.111, 40.889 166, 42 166 C 43.111 166, 46 163.111, 46 162 C 46 160.889, 43.111 158, 42 158 C 41.529 158, 40.436 158.707, 39.571 159.571 M 119.200 159.200 C 117.303 161.097, 117.747 162.652, 121.638 167.741 C 127.554 175.478, 129.255 180.353, 129.756 191 C 130.376 204.174, 128.836 208.430, 118.128 223.118 C 116.495 225.358, 118.073 228, 121.045 228 C 125.916 228, 135.155 212.005, 137.105 200.194 C 139.242 187.256, 134.972 171.907, 126.550 162.250 C 122.678 157.810, 121.203 157.197, 119.200 159.200 M 207 178.500 L 195.533 190 218.500 190 L 241.467 190 230 178.500 C 223.693 172.175, 218.518 167, 218.500 167 C 218.482 167, 213.307 172.175, 207 178.500 M 103.200 175.200 C 101.437 176.963, 101.766 179.019, 104.526 183.500 C 108.225 189.506, 107.984 197.056, 103.888 203.515 C 100.455 208.929, 100.844 211.500, 105.099 211.500 C 108.054 211.500, 113.408 203.101, 114.398 196.915 C 115.530 189.835, 112.733 180.733, 107.959 175.959 C 105.685 173.685, 104.849 173.551, 103.200 175.200 M 7.571 191.571 C 6.707 192.436, 6 193.529, 6 194 C 6 194.471, 6.707 195.564, 7.571 196.429 C 8.936 197.793, 13.463 198, 42 198 C 70.537 198, 75.064 197.793, 76.429 196.429 C 77.293 195.564, 78 194.471, 78 194 C 78 193.529, 77.293 192.436, 76.429 191.571 C 75.064 190.207, 70.537 190, 42 190 C 13.463 190, 8.936 190.207, 7.571 191.571 M 208.316 199.266 C 197.333 203.522, 190 214.025, 190 225.500 C 190 237.574, 198.421 248.894, 209.769 252.074 C 219.523 254.808, 231.297 251.604, 238.196 244.339 C 247.500 234.542, 247.500 216.458, 238.196 206.661 C 232.885 201.068, 227.410 198.681, 219.117 198.343 C 214.693 198.163, 210.165 198.550, 208.316 199.266 M 39.571 223.571 C 38.707 224.436, 38 225.529, 38 226 C 38 227.111, 40.889 230, 42 230 C 43.111 230, 46 227.111, 46 226 C 46 224.889, 43.111 222, 42 222 C 41.529 222, 40.436 222.707, 39.571 223.571 M 216.200 223.200 C 214.111 225.289, 215.447 230, 218.129 230 C 219.139 230, 222 227.044, 222 226 C 222 224.956, 219.139 222, 218.129 222 C 217.728 222, 216.860 222.540, 216.200 223.200 " stroke="none" fill="black" fill-rule="evenodd"/>
</svg>