<svg xmlns="http://www.w3.org/2000/svg" width="228" height="324" viewBox="0 0 228 324" version="1.1">
	<path d="M 182.503 128.989 C 182.009 130.546, 183.677 132.782, 190.186 139.290 C 206.804 155.903, 213.699 173.570, 212.707 197 C 211.842 217.427, 204.490 233.854, 189.833 248.103 C 181.882 255.833, 180.834 257.788, 183.472 259.977 C 185.490 261.651, 190.021 258.765, 197.121 251.280 C 204.040 243.988, 208.186 237.927, 212.536 228.744 C 218.148 216.898, 220.243 207.318, 220.243 193.500 C 220.243 184.404, 219.726 179.564, 218.106 173.500 C 213.868 157.641, 205.304 143.126, 194.021 132.680 C 187.475 126.620, 183.645 125.392, 182.503 128.989 M 183.250 158.662 C 181.097 159.531, 181.875 162.819, 185.293 167.297 C 191.709 175.703, 193.492 181.289, 193.496 193 C 193.500 202.674, 193.256 204.015, 190.397 210.047 C 188.691 213.648, 185.844 218.247, 184.070 220.267 C 181.769 222.888, 181.030 224.520, 181.490 225.970 C 182.486 229.107, 186.347 228.507, 189.694 224.696 C 205.117 207.130, 205.451 179.738, 190.456 162.220 C 186.955 158.129, 185.883 157.600, 183.250 158.662 M 166.571 175.571 C 164.518 177.625, 164.535 177.721, 167.750 182.361 C 170.079 185.721, 170.500 187.351, 170.500 193 C 170.500 198.698, 170.086 200.268, 167.663 203.765 C 164.126 208.869, 164.412 211.500, 168.504 211.500 C 174.094 211.500, 180.017 198.116, 178.392 189.154 C 177.231 182.750, 171.849 174, 169.071 174 C 168.561 174, 167.436 174.707, 166.571 175.571 M 39.571 223.571 C 38.707 224.436, 38 225.636, 38 226.239 C 38 226.841, 43.941 233.334, 51.202 240.667 L 64.405 254 36.774 254 C 12.988 254, 8.924 254.219, 7.571 255.571 C 5.598 257.545, 5.598 258.455, 7.571 260.429 C 8.968 261.825, 16.372 262, 74 262 C 131.628 262, 139.032 261.825, 140.429 260.429 C 142.402 258.455, 142.402 257.545, 140.429 255.571 C 139.076 254.219, 135.012 254, 111.226 254 L 83.595 254 96.798 240.667 C 104.059 233.334, 110 226.841, 110 226.239 C 110 224.817, 107.176 222, 105.751 222 C 105.143 222, 97.750 228.844, 89.323 237.208 L 74 252.416 58.677 237.208 C 50.250 228.844, 42.857 222, 42.249 222 C 41.640 222, 40.436 222.707, 39.571 223.571 " stroke="none" fill="black" fill-rule="evenodd"/>
</svg>