<svg xmlns="http://www.w3.org/2000/svg" width="292" height="324" viewBox="0 0 292 324" version="1.1">
	<path d="M 247.200 63.200 C 245.512 64.888, 245.512 99.112, 247.200 100.800 C 248.605 102.205, 281.658 102.503, 283.823 101.130 C 284.842 100.485, 285.146 96.083, 285.146 82 C 285.146 67.917, 284.842 63.515, 283.823 62.870 C 281.658 61.497, 248.605 61.795, 247.200 63.200 M 253 82 L 253 94 265.500 94 L 278 94 278 82 L 278 70 265.500 70 L 253 70 253 82 M 263.750 127.080 C 262.111 128.035, 262 132.293, 262 194.015 C 262 259.587, 262.011 259.935, 264.064 261.034 C 269.084 263.721, 269 264.854, 269 194.078 C 269 123.068, 269.071 123.981, 263.750 127.080 M 63.870 191.071 C 48.893 193.271, 37.652 199.158, 25.974 210.916 C 13.989 222.983, 8.432 234.878, 6.503 252.598 C 5.964 257.549, 6.150 259.007, 7.491 260.348 C 9.547 262.404, 10.439 262.418, 12.429 260.429 C 13.404 259.453, 14.006 257.082, 14.015 254.179 C 14.091 230.127, 34.559 205.323, 59.103 199.537 C 62.621 198.708, 67.605 198.023, 70.179 198.015 C 74.567 198.001, 78 196.239, 78 194 C 78 193.529, 77.293 192.436, 76.429 191.571 C 74.733 189.875, 72.589 189.790, 63.870 191.071 M 127.102 191.140 C 104.486 194.451, 83.659 211.177, 74.975 233 C 72.791 238.490, 70.101 251.110, 70.035 256.179 C 70.001 258.752, 72.213 262, 74 262 C 76.321 262, 78 258.568, 78 253.823 C 78 235.374, 91.753 213.971, 109.500 204.802 C 117.767 200.531, 123.036 198.996, 132.395 198.135 C 139.977 197.437, 142.486 195.591, 140.394 192.250 C 139.086 190.161, 135.709 189.879, 127.102 191.140 M 167.585 191.558 C 166.713 192.430, 166 193.529, 166 194 C 166 194.471, 166.713 195.570, 167.585 196.442 C 168.978 197.835, 173.159 197.995, 202.226 197.763 C 232.452 197.523, 235.377 197.350, 236.386 195.750 C 237.191 194.474, 237.191 193.526, 236.386 192.250 C 235.377 190.650, 232.452 190.477, 202.226 190.237 C 173.159 190.005, 168.978 190.165, 167.585 191.558 " stroke="none" fill="black" fill-rule="evenodd"/>
</svg>