<svg xmlns="http://www.w3.org/2000/svg" width="212" height="324" viewBox="0 0 212 324" version="1.1">
	<path d="M 103.571 159.571 C 102.707 160.436, 102 161.636, 102 162.239 C 102 162.841, 107.941 169.334, 115.202 176.667 L 128.405 190 68.774 190 C 15.897 190, 8.965 190.178, 7.571 191.571 C 5.598 193.545, 5.598 194.455, 7.571 196.429 C 8.965 197.822, 15.897 198, 68.774 198 L 128.405 198 115.202 211.333 C 107.941 218.666, 102 225.159, 102 225.761 C 102 227.187, 104.825 230, 106.257 230 C 108.006 230, 142 195.761, 142 194 C 142 192.239, 108.006 158, 106.257 158 C 105.644 158, 104.436 158.707, 103.571 159.571 M 167.557 160.223 C 166.254 162.082, 166 166.310, 166 186.112 C 166 207.494, 166.175 209.995, 167.817 212.022 C 169.364 213.933, 169.958 214.093, 171.817 213.098 C 173.975 211.943, 174 211.631, 174 186 C 174 161.388, 173.902 160.018, 172.066 159.035 C 169.462 157.642, 169.343 157.673, 167.557 160.223 M 168.200 222.200 C 165.181 225.219, 168.247 230.008, 171.936 228.034 C 174.536 226.643, 174.606 223.395, 172.066 222.035 C 169.655 220.745, 169.655 220.745, 168.200 222.200 " stroke="none" fill="black" fill-rule="evenodd"/>
</svg>