<svg xmlns="http://www.w3.org/2000/svg" width="340" height="324" viewBox="0 0 340 324" version="1.1">
	<path d="M 55.571 63.571 C 54.707 64.436, 54 65.332, 54 65.564 C 54 67.123, 71.710 101.058, 72.727 101.449 C 73.427 101.717, 74.573 101.717, 75.274 101.448 C 76.863 100.839, 93 68.672, 93 66.115 C 93 63.770, 90.710 61.790, 88.832 62.511 C 88.050 62.811, 84.520 68.894, 80.986 76.028 C 77.453 83.163, 74.308 89, 73.997 89 C 73.687 89, 70.748 83.534, 67.467 76.853 C 59.925 61.499, 58.847 60.296, 55.571 63.571 M 35.045 127.064 C 19.586 130.194, 7.255 144.080, 6.841 158.824 C 6.689 164.231, 10.459 179.667, 14.976 192.133 C 18.628 202.212, 26.063 215.568, 33.594 225.579 C 47.004 243.404, 74.270 264.227, 77.454 259.074 C 77.769 258.565, 81.733 255.556, 86.263 252.388 C 112.818 233.821, 132.129 203.986, 138.872 171.112 C 141.087 160.313, 140.405 153.306, 136.360 145.311 C 126.288 125.404, 98.973 120.430, 82.257 135.459 C 79.595 137.852, 76.567 141.388, 75.529 143.317 L 73.640 146.824 70.976 142.624 C 63.636 131.049, 48.255 124.389, 35.045 127.064 M 199.571 127.571 C 198.178 128.965, 198 135.946, 198 189.308 L 198 249.473 184.237 235.737 C 176.667 228.181, 170.175 222, 169.808 222 C 168.728 222, 166 225.049, 166 226.257 C 166 227.741, 200.101 262, 201.579 262 C 203.089 262, 236.399 228.371, 236.833 226.409 C 237.209 224.706, 235.291 222, 233.708 222 C 233.132 222, 226.437 228.167, 218.830 235.704 L 205 249.408 205 188.904 C 205 128.945, 204.854 126, 201.871 126 C 201.471 126, 200.436 126.707, 199.571 127.571 M 31.591 135.573 C 23.452 138.555, 15.998 146.866, 14.553 154.569 C 13.726 158.977, 16.225 172.568, 20.050 184.464 C 25.992 202.943, 35.743 218.759, 49.988 233.026 C 55.220 238.265, 62.724 244.731, 66.665 247.394 L 73.830 252.237 81.647 246.869 C 106.364 229.892, 125.112 201.366, 131.495 171.022 C 134.373 157.343, 132.737 149.943, 125.102 142.105 C 114.085 130.794, 94.491 131.337, 84.451 143.230 C 80.543 147.860, 78.048 153.824, 78.022 158.595 C 78 162.601, 75.807 166, 73.243 166 C 71.111 166, 69 162.820, 69 159.607 C 69 149.949, 60.912 138.862, 51.537 135.667 C 45.642 133.659, 36.928 133.618, 31.591 135.573 M 290 159.350 C 282.851 160.984, 278.754 163.215, 272.972 168.623 C 258.895 181.790, 258.902 205.216, 272.987 218.392 C 278.946 223.965, 283.990 226.547, 291.616 227.930 C 306.249 230.584, 320.803 223.351, 327.999 209.851 C 330.727 204.732, 331.438 202.140, 331.788 196.025 C 332.302 187.073, 331.181 182.377, 326.778 175.035 C 319.390 162.716, 303.996 156.151, 290 159.350 M 286.363 167.922 C 259.418 180.158, 267.293 220.873, 296.624 220.978 C 307.938 221.019, 316.326 216.256, 321.551 206.824 C 324.127 202.173, 324.500 200.488, 324.500 193.500 C 324.500 186.512, 324.127 184.827, 321.551 180.176 C 318.179 174.090, 313.063 169.639, 306.965 167.488 C 301.084 165.413, 291.442 165.616, 286.363 167.922 " stroke="none" fill="black" fill-rule="evenodd"/>
</svg>