<svg xmlns="http://www.w3.org/2000/svg" width="468" height="324" viewBox="0 0 468 324" version="1.1">
	<path d="M 7.571 127.571 C 6.707 128.436, 6 129.529, 6 130 C 6 130.471, 6.707 131.564, 7.571 132.429 C 8.966 133.824, 16.152 134, 71.571 134 L 134 134 134 194 L 134 254 71.571 254 C 16.152 254, 8.966 254.176, 7.571 255.571 C 5.598 257.545, 5.598 258.455, 7.571 260.429 C 8.968 261.825, 16.372 262, 74 262 C 131.628 262, 139.032 261.825, 140.429 260.429 C 141.825 259.032, 142 251.628, 142 194 C 142 136.372, 141.825 128.968, 140.429 127.571 C 139.032 126.175, 131.628 126, 74 126 C 16.372 126, 8.968 126.175, 7.571 127.571 M 359.571 127.571 C 358.288 128.855, 358 131.788, 358 143.571 L 358 158 343.571 158 C 331.788 158, 328.855 158.288, 327.571 159.571 C 325.598 161.545, 325.598 162.455, 327.571 164.429 C 328.820 165.677, 331.534 166, 340.774 166 L 352.405 166 339.202 179.333 C 331.941 186.666, 326 193.159, 326 193.761 C 326 195.178, 328.822 198, 330.239 198 C 330.841 198, 337.334 192.059, 344.667 184.798 L 358 171.595 358 196.798 L 358 222 343.571 222 C 331.788 222, 328.855 222.288, 327.571 223.571 C 326.707 224.436, 326 225.529, 326 226 C 326 226.471, 326.707 227.564, 327.571 228.429 C 328.855 229.712, 331.788 230, 343.571 230 L 358 230 358 244.429 C 358 256.212, 358.288 259.145, 359.571 260.429 C 360.436 261.293, 361.529 262, 362 262 C 362.471 262, 363.564 261.293, 364.429 260.429 C 365.712 259.145, 366 256.212, 366 244.429 L 366 230 394 230 L 422 230 422 244.429 C 422 256.212, 422.288 259.145, 423.571 260.429 C 425.545 262.402, 426.455 262.402, 428.429 260.429 C 429.712 259.145, 430 256.212, 430 244.429 L 430 230 444.429 230 C 456.212 230, 459.145 229.712, 460.429 228.429 C 461.293 227.564, 462 226.471, 462 226 C 462 225.529, 461.293 224.436, 460.429 223.571 C 459.145 222.288, 456.212 222, 444.429 222 L 430 222 430 196.798 L 430 171.595 443.333 184.798 C 450.666 192.059, 457.159 198, 457.761 198 C 459.178 198, 462 195.178, 462 193.761 C 462 193.159, 456.059 186.666, 448.798 179.333 L 435.595 166 447.226 166 C 456.466 166, 459.180 165.677, 460.429 164.429 C 462.402 162.455, 462.402 161.545, 460.429 159.571 C 459.145 158.288, 456.212 158, 444.429 158 L 430 158 430 143.571 C 430 131.788, 429.712 128.855, 428.429 127.571 C 426.455 125.598, 425.545 125.598, 423.571 127.571 C 422.323 128.820, 422 131.534, 422 140.774 L 422 152.405 408.667 139.202 C 401.334 131.941, 394.734 126, 394 126 C 393.266 126, 386.666 131.941, 379.333 139.202 L 366 152.405 366 140.774 C 366 131.534, 365.677 128.820, 364.429 127.571 C 363.564 126.707, 362.471 126, 362 126 C 361.529 126, 360.436 126.707, 359.571 127.571 M 382.500 147 L 371.534 158 394 158 L 416.466 158 405.500 147 C 399.469 140.950, 394.294 136, 394 136 C 393.706 136, 388.531 140.950, 382.500 147 M 366 194 L 366 222 394 222 L 422 222 422 194 L 422 166 394 166 L 366 166 366 194 M 191.500 175.106 C 184.127 176.578, 172.954 182.452, 168.081 187.418 C 164.447 191.120, 163.967 192.071, 164.877 193.769 C 165.465 194.868, 166.452 199.082, 167.071 203.134 C 169.456 218.749, 176.301 231.415, 188.528 242.832 C 201.260 254.723, 215.751 260.376, 233.500 260.376 C 251.249 260.376, 265.740 254.723, 278.472 242.832 C 290.842 231.280, 297.587 218.685, 299.991 202.651 C 301.987 189.333, 299.369 186.105, 291.681 192.406 C 289.304 194.353, 284.692 197.195, 281.430 198.723 C 276.127 201.206, 274.389 201.500, 265 201.500 C 255.594 201.500, 253.878 201.209, 248.528 198.704 C 244.853 196.983, 239.853 193.290, 235.528 189.102 C 231.663 185.360, 226.964 181.506, 225.087 180.539 C 215.052 175.368, 201.317 173.147, 191.500 175.106 M 189 183.478 C 186.525 184.276, 182.034 186.408, 179.019 188.215 C 173.570 191.481, 173.540 191.526, 173.808 196 C 175.133 218.103, 187.951 237.665, 207.101 246.809 C 216.931 251.503, 223.313 253, 233.500 253 C 243.687 253, 250.069 251.503, 259.899 246.809 C 271.585 241.229, 281.228 231.586, 286.810 219.899 C 289.017 215.280, 291.121 209.925, 291.486 208 C 291.851 206.075, 292.385 203.667, 292.674 202.650 C 293.142 200.999, 292.729 201.068, 288.849 203.287 C 281.115 207.710, 274.260 209.406, 264.500 209.308 C 250.383 209.167, 238.221 203.857, 230.537 194.479 C 228.065 191.463, 224.534 188.891, 219.348 186.327 C 212.507 182.947, 210.882 182.555, 202.635 182.305 C 196.672 182.123, 191.938 182.531, 189 183.478 " stroke="none" fill="black" fill-rule="evenodd"/>
</svg>