<svg xmlns="http://www.w3.org/2000/svg" width="244" height="324" viewBox="0 0 244 324" version="1.1">
	<path d="M 33.384 127.357 C 15.361 131.923, 3.562 149.820, 6.987 167.396 C 10.713 186.519, 28.557 199.395, 46.698 196.051 C 69.327 191.881, 81.966 169.817, 73.934 148.507 C 68.097 133.023, 49.437 123.290, 33.384 127.357 M 31.054 135.728 C 25.018 137.859, 17.781 145.260, 15.667 151.463 C 11.995 162.241, 14.382 173.477, 21.952 181.048 C 32.402 191.497, 49.888 191.773, 60.280 181.653 C 66.701 175.401, 68.500 170.989, 68.500 161.500 C 68.500 152.107, 66.733 147.694, 60.453 141.406 C 53.491 134.434, 41.355 132.091, 31.054 135.728 M 215.750 159.080 C 214.229 159.966, 214 161.758, 214 172.768 L 214 185.437 208.221 179.719 C 205.043 176.573, 202.150 174, 201.792 174 C 200.759 174, 198 177.040, 198 178.178 C 198 178.747, 201.226 182.540, 205.169 186.607 L 212.338 194 205.169 201.393 C 201.226 205.460, 198 209.253, 198 209.822 C 198 210.960, 200.759 214, 201.792 214 C 202.150 214, 205.043 211.427, 208.221 208.281 L 214 202.563 214 215.246 C 214 227.037, 214.145 228.007, 216.064 229.034 C 220.177 231.236, 221 228.934, 221 215.225 L 221 202.696 226.926 208.348 C 233.212 214.344, 233.907 214.693, 235.800 212.800 C 238.049 210.551, 237.003 208.550, 229.775 201.274 L 222.550 194 229.775 186.726 C 237.003 179.450, 238.049 177.449, 235.800 175.200 C 233.907 173.307, 233.212 173.656, 226.926 179.652 L 221 185.304 221 172.852 C 221 158.713, 220.161 156.511, 215.750 159.080 M 7.571 191.571 C 6.707 192.436, 6 193.640, 6 194.249 C 6 194.857, 12.844 202.250, 21.208 210.677 L 36.416 226 21.208 241.323 C 12.844 249.750, 6 257.143, 6 257.751 C 6 259.181, 8.819 262, 10.249 262 C 10.857 262, 18.250 255.156, 26.677 246.792 L 42 231.584 57.323 246.792 C 65.750 255.156, 73.143 262, 73.751 262 C 75.181 262, 78 259.181, 78 257.751 C 78 257.143, 71.156 249.750, 62.792 241.323 L 47.584 226 62.792 210.677 C 71.156 202.250, 78 194.857, 78 194.249 C 78 192.819, 75.181 190, 73.751 190 C 73.143 190, 65.750 196.844, 57.323 205.208 L 42 220.416 26.677 205.208 C 18.250 196.844, 10.857 190, 10.249 190 C 9.640 190, 8.436 190.707, 7.571 191.571 M 135.244 223.256 C 116.960 241.546, 102 257.280, 102 258.220 C 102 259.160, 102.870 260.395, 103.934 260.965 C 106.270 262.215, 169.851 262.381, 171.805 261.142 C 172.836 260.487, 173.110 253.130, 173.110 226 C 173.110 191.100, 173.006 190.069, 169.494 190.015 C 168.941 190.007, 153.529 204.965, 135.244 223.256 M 140.588 228.500 L 115.826 254 140.913 254 L 166 254 166 228.500 C 166 214.475, 165.854 203, 165.675 203 C 165.496 203, 154.207 214.475, 140.588 228.500 " stroke="none" fill="black" fill-rule="evenodd"/>
</svg>