<svg xmlns="http://www.w3.org/2000/svg" width="148" height="324" viewBox="0 0 148 324" version="1.1">
	<path d="M 40.316 62.784 C 38.369 64.022, 22.007 97.855, 22.604 99.410 C 23.269 101.144, 25.524 102.120, 27.295 101.440 C 28.007 101.167, 31.480 95.106, 35.014 87.972 C 38.547 80.837, 41.691 75, 42 75 C 42.309 75, 45.453 80.837, 48.986 87.972 C 52.520 95.106, 56.050 101.189, 56.832 101.489 C 58.716 102.212, 61 100.227, 61 97.866 C 61 95.626, 45.264 63.831, 43.628 62.765 C 42.214 61.845, 41.789 61.847, 40.316 62.784 M 33.972 159.329 C 7.103 165.260, -2.570 198.590, 16.920 218.080 C 24.030 225.190, 31.429 228.252, 41.500 228.252 C 51.223 228.252, 58.603 225.284, 65.353 218.661 C 73.450 210.714, 75.500 205.633, 75.500 193.500 C 75.500 184.914, 75.153 182.793, 73.049 178.500 C 65.942 163.998, 49.458 155.911, 33.972 159.329 M 103.571 159.571 C 101.215 161.927, 101.215 210.073, 103.571 212.429 C 105.457 214.315, 106.219 214.381, 107.800 212.800 C 109.508 211.092, 109.508 160.908, 107.800 159.200 C 106.219 157.619, 105.457 157.685, 103.571 159.571 M 31.627 167.468 C 26.302 169.367, 21.047 173.815, 17.618 179.328 C 14.254 184.737, 13.041 194.780, 14.916 201.708 C 16.446 207.361, 21.544 213.823, 27.266 217.361 C 33.398 221.152, 43.268 222.068, 50.852 219.549 C 56.768 217.584, 63.558 211.496, 66.523 205.500 C 69.293 199.895, 69.292 187.102, 66.521 181.500 C 63.571 175.538, 57.083 169.557, 51.504 167.656 C 45.655 165.663, 36.923 165.580, 31.627 167.468 M 103.616 222.527 C 102.727 223.416, 102 224.529, 102 225 C 102 226.389, 105.140 229.120, 106.295 228.735 C 108.395 228.035, 109.549 225.094, 108.423 223.310 C 106.905 220.902, 105.474 220.669, 103.616 222.527 " stroke="none" fill="black" fill-rule="evenodd"/>
</svg>