<svg xmlns="http://www.w3.org/2000/svg" width="244" height="324" viewBox="0 0 244 324" version="1.1">
	<path d="M 7.571 127.571 C 6.707 128.436, 6 129.529, 6 130 C 6 130.471, 6.707 131.564, 7.571 132.429 C 8.966 133.824, 16.152 134, 71.571 134 L 134 134 134 194 L 134 254 71.571 254 C 16.152 254, 8.966 254.176, 7.571 255.571 C 5.598 257.545, 5.598 258.455, 7.571 260.429 C 8.968 261.825, 16.372 262, 74 262 C 131.628 262, 139.032 261.825, 140.429 260.429 C 141.825 259.032, 142 251.628, 142 194 C 142 136.372, 141.825 128.968, 140.429 127.571 C 139.032 126.175, 131.628 126, 74 126 C 16.372 126, 8.968 126.175, 7.571 127.571 M 193.746 127.027 C 183.233 129.669, 174.023 137.382, 169.302 147.500 C 165.300 156.075, 165.300 166.925, 169.302 175.500 C 170.842 178.800, 173.972 183.412, 176.259 185.750 L 180.416 190 175.142 190 C 168.978 190, 166 191.303, 166 194 C 166 197.262, 169.308 198, 183.934 198 L 198 198 198 226 L 198 254 183.934 254 C 169.308 254, 166 254.738, 166 258 C 166 261.750, 168.791 262.037, 202.601 261.764 C 232.469 261.523, 235.378 261.349, 236.386 259.750 C 237.190 258.475, 237.191 257.525, 236.387 256.250 C 235.433 254.736, 233.314 254.463, 220.643 254.223 L 206 253.947 206 226 L 206 198.053 220.643 197.777 C 233.314 197.537, 235.433 197.264, 236.387 195.750 C 238.478 192.431, 235.987 190.534, 229.104 190.201 L 222.916 189.902 226.911 185.364 C 233.886 177.439, 235.500 172.956, 235.500 161.500 C 235.500 149.464, 233.483 144.393, 225.518 136.404 C 217.687 128.548, 203.894 124.477, 193.746 127.027 M 191.385 135.617 C 176.729 140.815, 169.477 159.530, 176.588 173.801 C 186.682 194.057, 215.796 194.002, 226.150 173.707 C 228.708 168.692, 229.594 159.874, 228.096 154.337 C 224.926 142.621, 213.582 133.926, 201.663 134.079 C 198.273 134.122, 193.648 134.815, 191.385 135.617 " stroke="none" fill="black" fill-rule="evenodd"/>
</svg>