<svg xmlns="http://www.w3.org/2000/svg" width="308" height="324" viewBox="0 0 308 324" version="1.1">
	<path d="M 63.102 127.104 C 37.582 130.982, 15.178 151.424, 8.414 177 C 6.134 185.626, 6.134 201.374, 8.414 210 C 10.593 218.239, 16.033 229.329, 20.432 234.500 L 23.835 238.500 14.917 247.615 C 10.013 252.629, 6 257.209, 6 257.794 C 6 259.169, 8.831 262, 10.206 262 C 10.791 262, 15.371 257.995, 20.385 253.101 L 29.500 244.202 33.933 247.637 C 42.387 254.189, 51.899 257.762, 68.823 260.745 C 71.762 261.263, 75.792 261.318, 77.823 260.869 C 79.845 260.421, 84.425 259.509, 88 258.843 C 98.663 256.858, 111.077 249.981, 120.026 241.103 C 133.580 227.657, 140 212.394, 140 193.617 C 140 178.308, 136.713 167.813, 127.784 154.618 L 123.804 148.736 132.402 140.098 C 141.035 131.425, 142.224 129.260, 139.564 127.053 C 137.534 125.368, 135.801 126.545, 126.602 135.851 L 118.704 143.842 113.602 140.029 C 99.160 129.239, 80.495 124.462, 63.102 127.104 M 57.500 135.870 C 37.436 141.645, 20.733 158.691, 15.585 178.644 C 13.554 186.517, 13.554 200.483, 15.585 208.356 C 17.305 215.022, 22.548 225.713, 26.445 230.500 L 28.887 233.500 49.444 213.009 L 70 192.518 70 163.259 L 70 134 66.750 134.071 C 64.963 134.110, 60.800 134.920, 57.500 135.870 M 78 159.246 L 78 184.493 95.750 166.738 L 113.500 148.982 110.500 146.479 C 104.021 141.074, 86.422 134, 79.451 134 C 78.221 134, 78 137.853, 78 159.246 M 97.612 175.250 L 78.042 195.500 78.021 224.250 C 78.003 248.715, 78.216 253, 79.451 253 C 83.724 253, 92.461 250.361, 99.820 246.847 C 124.843 234.900, 138.032 205.996, 131.003 178.511 C 128.543 168.892, 120.996 155, 118.230 155 C 117.654 155, 108.375 164.113, 97.612 175.250 M 192.320 175.099 C 185.467 176.243, 176.796 180.158, 170.367 185.013 C 164.776 189.234, 163.108 192.220, 165.040 194.548 C 166.922 196.816, 168.513 196.317, 173.689 191.835 C 176.335 189.545, 180.975 186.515, 184 185.102 C 188.850 182.837, 190.802 182.532, 200.521 182.517 C 210.966 182.501, 211.889 182.671, 218.189 185.772 C 221.845 187.572, 226.111 190.347, 227.668 191.938 C 229.226 193.529, 231.850 196.237, 233.500 197.956 C 235.150 199.674, 239.650 202.631, 243.500 204.527 C 260.371 212.833, 279.014 210.780, 294.778 198.878 C 300.367 194.658, 301.305 191.835, 297.838 189.663 C 296.521 188.838, 295.055 189.486, 290.787 192.779 C 281.288 200.107, 277.074 201.502, 264.500 201.483 C 250.534 201.462, 245.408 199.346, 235.711 189.600 C 227.963 181.814, 218.131 176.650, 208 175.045 C 200.672 173.884, 199.573 173.888, 192.320 175.099 M 51.989 221.537 L 34.500 239.073 37 241.015 C 44.349 246.723, 60.267 253, 67.394 253 L 70 253 70 228.500 C 70 215.025, 69.883 204, 69.739 204 C 69.596 204, 61.608 211.892, 51.989 221.537 " stroke="none" fill="black" fill-rule="evenodd"/>
</svg>