<svg xmlns="http://www.w3.org/2000/svg" width="244" height="324" viewBox="0 0 244 324" version="1.1">
	<path d="M 103.616 127.527 C 102.727 128.416, 102 129.657, 102 130.285 C 102 130.913, 116.053 145.506, 133.229 162.713 L 164.458 194 133.229 225.287 C 116.053 242.494, 102 257.087, 102 257.715 C 102 259.206, 104.983 262.174, 106.100 261.795 C 107.231 261.411, 174 194.745, 174 194 C 174 193.255, 107.231 126.589, 106.100 126.205 C 105.623 126.043, 104.505 126.638, 103.616 127.527 M 167.616 127.527 C 166.727 128.416, 166 129.657, 166 130.285 C 166 130.913, 180.053 145.506, 197.229 162.713 L 228.458 194 197.229 225.287 C 180.053 242.494, 166 257.087, 166 257.715 C 166 259.206, 168.983 262.174, 170.099 261.795 C 172.193 261.083, 237 195.410, 237 194 C 237 192.590, 172.193 126.917, 170.099 126.205 C 169.622 126.043, 168.505 126.638, 167.616 127.527 M 35.045 159.064 C 13.497 163.427, 1.173 185.901, 9.037 206.493 C 12.164 214.680, 20.320 222.836, 28.507 225.963 C 36.625 229.063, 46.366 229.065, 54.500 225.966 C 62.548 222.901, 70.935 214.461, 73.955 206.392 C 76.864 198.616, 76.864 188.384, 73.955 180.608 C 68.393 165.742, 50.631 155.907, 35.045 159.064 M 31.627 167.468 C 26.302 169.367, 21.047 173.815, 17.618 179.328 C 14.254 184.737, 13.041 194.780, 14.916 201.708 C 16.446 207.361, 21.544 213.823, 27.266 217.361 C 33.473 221.198, 43.261 222.070, 51.058 219.481 C 69.624 213.314, 75.164 188.069, 61.048 173.952 C 53.696 166.601, 41.563 163.927, 31.627 167.468 " stroke="none" fill="black" fill-rule="evenodd"/>
</svg>