<svg xmlns="http://www.w3.org/2000/svg" width="403" height="324" viewBox="0 0 403 324" version="1.1">
	<path d="M 103.616 127.527 C 102.727 128.416, 102 129.657, 102 130.285 C 102 130.913, 116.053 145.506, 133.229 162.713 L 164.458 194 133.229 225.287 C 116.053 242.494, 102 257.087, 102 257.715 C 102 259.206, 104.983 262.174, 106.100 261.795 C 107.231 261.411, 174 194.745, 174 194 C 174 193.255, 107.231 126.589, 106.100 126.205 C 105.623 126.043, 104.505 126.638, 103.616 127.527 M 167.571 127.571 C 166.707 128.436, 166 129.657, 166 130.285 C 166 130.913, 180.053 145.506, 197.229 162.713 L 228.458 194 197.229 225.287 C 180.053 242.494, 166 257.087, 166 257.715 C 166 258.956, 168.719 262, 169.827 262 C 171.243 262, 237 195.423, 237 193.989 C 237 192.562, 171.226 126, 169.816 126 C 169.446 126, 168.436 126.707, 167.571 127.571 M 319.531 127.067 C 291.457 131.375, 269.159 152.546, 263.560 180.208 C 261.339 191.182, 261.487 195.655, 264.117 197.062 C 267.374 198.806, 268.575 196.650, 269.916 186.650 C 271.337 176.055, 273.757 169.222, 278.872 161.354 C 286.233 150.032, 297.595 141.036, 309.907 136.779 C 319.554 133.444, 338.553 133.482, 348.326 136.857 C 357.442 140.004, 368.960 147.864, 374.660 154.828 C 382.771 164.737, 388.929 180.812, 388.983 192.215 C 389.002 196.428, 391.359 198.498, 394.276 196.866 C 398.091 194.731, 395.123 176.088, 388.982 163.615 C 376.508 138.277, 347.150 122.828, 319.531 127.067 M 35.045 159.064 C 16.379 162.843, 3.614 181.052, 7.004 199.062 C 11.209 221.397, 33.453 233.998, 54.493 225.963 C 62.695 222.831, 70.860 214.663, 73.893 206.557 C 76.893 198.539, 76.893 188.461, 73.893 180.443 C 68.367 165.675, 50.623 155.909, 35.045 159.064 M 31.627 167.468 C 26.302 169.367, 21.047 173.815, 17.618 179.328 C 14.254 184.737, 13.041 194.780, 14.916 201.708 C 16.446 207.361, 21.544 213.823, 27.266 217.361 C 37.153 223.473, 52.294 221.764, 60.431 213.617 C 65.854 208.186, 68.298 202.853, 68.805 195.341 C 69.928 178.723, 57.801 165.912, 41.072 166.044 C 38.007 166.068, 33.757 166.709, 31.627 167.468 M 295.750 191.080 C 293.422 192.436, 293.524 195.675, 295.934 196.965 C 296.998 197.534, 303.523 198, 310.434 198 C 317.345 198, 323 198.223, 323 198.496 C 323 198.768, 316.365 212.269, 308.257 228.498 C 296.169 252.690, 293.712 258.320, 294.616 259.752 C 295.629 261.360, 298.432 261.500, 329.500 261.500 C 360.568 261.500, 363.371 261.360, 364.384 259.752 C 365.288 258.320, 362.831 252.690, 350.743 228.498 C 342.635 212.269, 336 198.768, 336 198.496 C 336 198.223, 341.655 198, 348.566 198 C 361.724 198, 365 197.203, 365 194 C 365 192.939, 364.130 191.605, 363.066 191.035 C 360.463 189.642, 298.147 189.684, 295.750 191.080 M 316.744 227.500 C 309.735 241.531, 304 253.233, 304 253.505 C 304 253.777, 315.475 254, 329.500 254 C 343.525 254, 354.976 253.662, 354.946 253.250 C 354.917 252.838, 349.176 241.135, 342.190 227.245 L 329.487 201.989 316.744 227.500 " stroke="none" fill="black" fill-rule="evenodd"/>
</svg>