<svg xmlns="http://www.w3.org/2000/svg" width="148" height="324" viewBox="0 0 148 324" version="1.1">
	<path d="M 55.571 63.571 C 54.707 64.436, 54 65.317, 54 65.531 C 54 66.316, 71.159 100.529, 71.965 101.349 C 74.275 103.702, 76.913 100.229, 84.760 84.501 C 89.292 75.417, 93 67.143, 93 66.115 C 93 63.644, 90.675 61.804, 88.573 62.610 C 87.649 62.965, 84.128 69.048, 80.750 76.128 C 77.371 83.207, 74.343 89, 74.020 89 C 73.698 89, 70.748 83.534, 67.467 76.853 C 59.925 61.499, 58.847 60.296, 55.571 63.571 M 39.230 159.285 L 6 192.569 6 225.713 C 6 254.511, 6.206 259.063, 7.571 260.429 C 8.968 261.825, 16.343 261.998, 73.821 261.985 C 109.395 261.976, 139.081 261.601, 139.791 261.150 C 140.805 260.507, 141.080 253.043, 141.072 226.416 L 141.062 192.500 108.281 159.220 C 90.251 140.916, 74.816 125.954, 73.980 125.970 C 73.144 125.987, 57.506 140.978, 39.230 159.285 M 43.744 165.756 L 14 195.512 14 224.756 L 14 254 74 254 L 134 254 134 224.744 L 134 195.487 104.244 165.744 C 87.878 149.385, 74.263 136, 73.988 136 C 73.713 136, 60.103 149.390, 43.744 165.756 M 71.571 191.571 C 70.707 192.436, 70 193.529, 70 194 C 70 194.471, 70.707 195.564, 71.571 196.429 C 72.436 197.293, 73.529 198, 74 198 C 74.471 198, 75.564 197.293, 76.429 196.429 C 77.293 195.564, 78 194.471, 78 194 C 78 193.529, 77.293 192.436, 76.429 191.571 C 75.564 190.707, 74.471 190, 74 190 C 73.529 190, 72.436 190.707, 71.571 191.571 " stroke="none" fill="black" fill-rule="evenodd"/>
</svg>