<svg xmlns="http://www.w3.org/2000/svg" width="564" height="324" viewBox="0 0 564 324" version="1.1">
	<path d="M 55.571 63.571 C 53.243 65.900, 53.243 98.100, 55.571 100.429 C 57.900 102.757, 90.100 102.757, 92.429 100.429 C 94.757 98.100, 94.757 65.900, 92.429 63.571 C 90.100 61.243, 57.900 61.243, 55.571 63.571 M 62 82 L 62 94 74 94 L 86 94 86 82 L 86 70 74 70 L 62 70 62 82 M 167.571 127.571 C 166.175 128.968, 166 136.372, 166 194 C 166 251.628, 166.175 259.032, 167.571 260.429 C 168.436 261.293, 169.529 262, 170 262 C 170.471 262, 171.564 261.293, 172.429 260.429 C 173.825 259.032, 174 251.628, 174 194 C 174 136.372, 173.825 128.968, 172.429 127.571 C 171.564 126.707, 170.471 126, 170 126 C 169.529 126, 168.436 126.707, 167.571 127.571 M 295.571 127.571 C 294.175 128.968, 294 136.372, 294 194 C 294 251.628, 294.175 259.032, 295.571 260.429 C 296.436 261.293, 297.529 262, 298 262 C 298.471 262, 299.564 261.293, 300.429 260.429 C 301.825 259.032, 302 251.628, 302 194 C 302 136.372, 301.825 128.968, 300.429 127.571 C 299.564 126.707, 298.471 126, 298 126 C 297.529 126, 296.436 126.707, 295.571 127.571 M 488.515 158 L 456.460 190 392.801 190 C 336.263 190, 328.967 190.176, 327.571 191.571 C 325.598 193.545, 325.598 194.455, 327.571 196.429 C 328.844 197.701, 331.697 198, 342.575 198 L 356.006 198 341.020 227.961 C 332.777 244.439, 326.285 258.580, 326.594 259.384 C 327.265 261.133, 329.512 262.125, 331.274 261.448 C 331.975 261.180, 339.056 247.919, 347.010 231.980 C 354.964 216.041, 361.710 203, 362 203 C 362.290 203, 369.036 216.041, 376.990 231.980 C 384.944 247.919, 392.025 261.180, 392.726 261.448 C 393.427 261.717, 394.573 261.717, 395.274 261.448 C 395.975 261.180, 403.056 247.919, 411.010 231.980 C 418.964 216.041, 425.710 203, 426 203 C 426.290 203, 433.036 216.041, 440.990 231.980 C 448.944 247.919, 456.025 261.180, 456.726 261.448 C 458.488 262.125, 460.735 261.133, 461.406 259.384 C 461.715 258.580, 455.223 244.439, 446.980 227.961 L 431.994 198 445.710 198 L 459.427 198 490.703 166.782 L 521.979 135.563 537.312 150.782 C 545.746 159.152, 553.143 166, 553.751 166 C 555.200 166, 558 163.173, 558 161.710 C 558 160.033, 523.695 126, 522.004 126 C 521.216 126, 506.146 140.400, 488.515 158 M 231.571 159.571 C 230.288 160.855, 230 163.788, 230 175.571 L 230 190 215.571 190 C 203.788 190, 200.855 190.288, 199.571 191.571 C 197.598 193.545, 197.598 194.455, 199.571 196.429 C 200.855 197.712, 203.788 198, 215.571 198 L 230 198 230 212.429 C 230 224.212, 230.288 227.145, 231.571 228.429 C 233.545 230.402, 234.455 230.402, 236.429 228.429 C 237.712 227.145, 238 224.212, 238 212.429 L 238 198 252.429 198 C 264.212 198, 267.145 197.712, 268.429 196.429 C 270.402 194.455, 270.402 193.545, 268.429 191.571 C 267.145 190.288, 264.212 190, 252.429 190 L 238 190 238 175.571 C 238 163.788, 237.712 160.855, 236.429 159.571 C 235.564 158.707, 234.471 158, 234 158 C 233.529 158, 232.436 158.707, 231.571 159.571 M 7.571 191.571 C 6.707 192.436, 6 193.529, 6 194 C 6 194.471, 6.707 195.564, 7.571 196.429 C 8.968 197.825, 16.372 198, 74 198 C 131.628 198, 139.032 197.825, 140.429 196.429 C 141.293 195.564, 142 194.471, 142 194 C 142 193.529, 141.293 192.436, 140.429 191.571 C 139.032 190.175, 131.628 190, 74 190 C 16.372 190, 8.968 190.175, 7.571 191.571 M 380.743 223.500 C 387.750 237.525, 393.715 249, 394 249 C 394.285 249, 400.250 237.525, 407.257 223.500 L 419.995 198 394 198 L 368.005 198 380.743 223.500 " stroke="none" fill="black" fill-rule="evenodd"/>
</svg>