<svg xmlns="http://www.w3.org/2000/svg" width="244" height="324" viewBox="0 0 244 324" version="1.1">
	<path d="M 224.582 133.117 C 210.771 146.014, 202.456 161.810, 199.275 181.188 C 197.874 189.726, 197.799 192.822, 198.780 201.606 C 201.083 222.214, 208.132 236.995, 222.714 251.796 C 232.199 261.425, 234.898 262.730, 237.322 258.863 C 238.160 257.525, 236.696 255.599, 229.346 248.363 C 223.895 242.996, 218.722 236.739, 216.230 232.500 C 207.887 218.305, 204.102 200.619, 206.061 184.975 C 208.366 166.567, 215.421 152.294, 228.647 139.283 C 237.051 131.016, 238.005 129.405, 235.800 127.200 C 233.721 125.121, 232.396 125.819, 224.582 133.117 M 103.616 159.527 C 102.727 160.416, 102 161.640, 102 162.249 C 102 162.857, 108.844 170.250, 117.208 178.677 L 132.416 194 117.208 209.323 C 108.844 217.750, 102 225.143, 102 225.751 C 102 227.198, 104.994 230.173, 106.068 229.795 C 107.353 229.342, 142 194.827, 142 194 C 142 193.173, 107.353 158.658, 106.068 158.205 C 105.608 158.043, 104.505 158.638, 103.616 159.527 M 135.616 159.527 C 134.727 160.416, 134 161.640, 134 162.249 C 134 162.857, 140.844 170.250, 149.208 178.677 L 164.416 194 149.208 209.323 C 140.844 217.750, 134 225.143, 134 225.751 C 134 227.207, 136.995 230.171, 138.087 229.795 C 139.273 229.386, 174 194.774, 174 194 C 174 193.226, 139.273 158.614, 138.087 158.205 C 137.617 158.043, 136.505 158.638, 135.616 159.527 M 40.370 190.765 C 38.401 192.045, 6.007 257.855, 6.594 259.384 C 7.265 261.133, 9.512 262.124, 11.274 261.448 C 11.975 261.180, 19.056 247.919, 27.010 231.980 C 34.964 216.041, 41.710 203, 42 203 C 42.290 203, 49.036 216.041, 56.990 231.980 C 64.944 247.919, 72.083 261.201, 72.853 261.497 C 74.717 262.213, 77 260.217, 77 257.871 C 77 255.637, 45.272 191.833, 43.630 190.765 C 43.009 190.361, 42.275 190.031, 42 190.031 C 41.725 190.031, 40.991 190.361, 40.370 190.765 " stroke="none" fill="black" fill-rule="evenodd"/>
</svg>