<svg xmlns="http://www.w3.org/2000/svg" width="148" height="324" viewBox="0 0 148 324" version="1.1">
	<path d="M 35.045 127.064 C 24.684 129.162, 14.828 136.537, 10.162 145.682 C 8.551 148.840, 6 158.911, 6 162.112 C 6 163.136, 8.947 166, 10 166 C 11.912 166, 14 162.663, 14 159.607 C 14 149.949, 22.088 138.862, 31.463 135.667 C 45.620 130.843, 59.489 136.286, 65.940 149.196 C 69.447 156.214, 69.741 160.345, 67.495 171.022 C 60.922 202.271, 41.138 231.570, 15.186 248.489 C 5.552 254.769, 4.137 256.994, 7.585 260.442 C 8.978 261.835, 13.159 261.995, 42.226 261.763 C 72.452 261.523, 75.377 261.350, 76.386 259.750 C 77.191 258.474, 77.191 257.526, 76.387 256.250 C 75.394 254.674, 72.576 254.450, 48.106 254 L 20.927 253.500 27.585 248.500 C 41.119 238.335, 55.141 221.038, 63.526 204.162 C 71.961 187.187, 77.299 166.672, 75.922 156.523 C 73.295 137.165, 53.963 123.233, 35.045 127.064 M 103.571 159.571 C 101.215 161.927, 101.215 210.073, 103.571 212.429 C 105.457 214.315, 106.219 214.381, 107.800 212.800 C 109.508 211.092, 109.508 160.908, 107.800 159.200 C 106.219 157.619, 105.457 157.685, 103.571 159.571 M 103.616 222.527 C 102.727 223.416, 102 224.529, 102 225 C 102 226.389, 105.140 229.120, 106.295 228.735 C 108.395 228.035, 109.549 225.094, 108.423 223.310 C 106.905 220.902, 105.474 220.669, 103.616 222.527 " stroke="none" fill="black" fill-rule="evenodd"/>
</svg>