<svg xmlns="http://www.w3.org/2000/svg" width="148" height="324" viewBox="0 0 148 324" version="1.1">
	<path d="M 7.627 127.515 C 6.158 128.985, 6 135.425, 6 194 C 6 252.599, 6.157 259.014, 7.629 260.486 C 8.557 261.414, 9.956 261.837, 10.879 261.468 C 11.771 261.112, 14.975 260.460, 18 260.019 C 33.661 257.736, 45.290 251.848, 56.665 240.444 C 63.403 233.689, 65.618 230.619, 69.338 222.879 C 74.555 212.025, 76.200 204.983, 76.200 193.500 C 76.200 182.108, 74.559 174.984, 69.521 164.500 C 59.160 142.937, 39.675 129.401, 14.877 126.537 C 10.402 126.020, 8.923 126.220, 7.627 127.515 M 14 193.500 C 14 249.506, 14.103 252.999, 15.750 252.985 C 20.233 252.947, 30.962 249.606, 37.397 246.243 C 56.519 236.251, 69 215.421, 69 193.500 C 69 171.579, 56.519 150.749, 37.397 140.757 C 30.962 137.394, 20.233 134.053, 15.750 134.015 C 14.103 134.001, 14 137.494, 14 193.500 M 115.505 194.127 C 110.520 199.644, 106.336 208.901, 104.828 217.750 C 102.559 231.065, 107.101 246.730, 116.042 256.430 C 120.456 261.219, 122.894 262.038, 125.038 259.454 C 126.105 258.168, 125.958 257.452, 124.166 255.204 C 114.653 243.270, 112 236.729, 112 225.206 C 112 220.893, 112.663 215.144, 113.474 212.432 C 114.767 208.108, 116.428 205.295, 123.622 195.245 C 124.923 193.428, 124.996 192.700, 123.996 191.495 C 121.933 189.010, 119.425 189.787, 115.505 194.127 " stroke="none" fill="black" fill-rule="evenodd"/>
</svg>