<svg xmlns="http://www.w3.org/2000/svg" width="180" height="324" viewBox="0 0 180 324" version="1.1">
	<path d="M 103.571 127.571 C 102.175 128.968, 102 136.372, 102 194 C 102 251.628, 102.175 259.032, 103.571 260.429 C 104.936 261.793, 109.463 262, 138 262 C 166.537 262, 171.064 261.793, 172.429 260.429 C 173.825 259.032, 174 251.628, 174 194 C 174 136.372, 173.825 128.968, 172.429 127.571 C 171.064 126.207, 166.537 126, 138 126 C 109.463 126, 104.936 126.207, 103.571 127.571 M 110 194 L 110 254 138 254 L 166 254 166 194 L 166 134 138 134 L 110 134 110 194 M 34.223 159.012 C 23.933 161.160, 13.981 169.443, 9.216 179.825 C 7.099 184.436, 6.611 187, 6.611 193.500 C 6.611 203.039, 9.423 210.249, 15.872 217.245 C 35.502 238.542, 70.397 228.219, 76.001 199.458 C 80.595 175.881, 58.035 154.040, 34.223 159.012 M 32.453 167.326 C 17.492 173.091, 10.431 188.170, 15.597 203.329 C 17.470 208.829, 23.813 215.734, 29.500 218.467 C 35.100 221.158, 44.583 221.632, 50.895 219.535 C 56.800 217.574, 63.619 211.428, 66.467 205.500 C 69.171 199.874, 69.632 190.419, 67.514 184.042 C 65.290 177.346, 57.926 169.844, 51.392 167.618 C 45.928 165.756, 36.889 165.617, 32.453 167.326 M 39.571 191.571 C 38.707 192.436, 38 193.529, 38 194 C 38 195.111, 40.889 198, 42 198 C 43.111 198, 46 195.111, 46 194 C 46 192.889, 43.111 190, 42 190 C 41.529 190, 40.436 190.707, 39.571 191.571 " stroke="none" fill="black" fill-rule="evenodd"/>
</svg>