<svg xmlns="http://www.w3.org/2000/svg" width="148" height="324" viewBox="0 0 148 324" version="1.1">
	<path d="M 55.571 63.571 C 54.707 64.436, 54 65.317, 54 65.531 C 54 66.993, 71.421 100.653, 72.488 101.252 C 73.225 101.665, 74.440 101.768, 75.188 101.481 C 76.837 100.849, 93 68.755, 93 66.115 C 93 63.770, 90.710 61.790, 88.832 62.511 C 88.050 62.811, 84.520 68.894, 80.986 76.028 C 77.453 83.163, 74.306 89, 73.994 89 C 73.683 89, 70.969 83.984, 67.964 77.854 C 62.437 66.580, 59.559 62, 57.999 62 C 57.528 62, 56.436 62.707, 55.571 63.571 M 39.267 159.267 C 20.970 177.563, 6 193.056, 6 193.695 C 6 195.187, 8.799 198, 10.285 198 C 10.913 198, 25.506 183.947, 42.713 166.771 L 74 135.542 105.287 166.771 C 122.494 183.947, 137.064 198, 137.664 198 C 139.291 198, 141.212 195.312, 140.833 193.567 C 140.424 191.689, 75.041 126, 73.580 126 C 73.004 126, 57.563 140.970, 39.267 159.267 " stroke="none" fill="black" fill-rule="evenodd"/>
</svg>