<svg xmlns="http://www.w3.org/2000/svg" width="148" height="324" viewBox="0 0 148 324" version="1.1">
	<path d="M 54.544 0.929 C 53.818 2.104, 70.681 36.238, 72.488 37.252 C 73.225 37.665, 74.440 37.768, 75.188 37.481 C 76.883 36.831, 93 4.718, 93 1.992 C 93 0.445, 92.329 0, 89.995 0 C 87.147 0, 86.664 0.654, 80.763 12.500 C 77.339 19.375, 74.295 25, 74 25 C 73.705 25, 70.661 19.375, 67.237 12.500 C 61.378 0.738, 60.836 -0, 58.064 -0 C 56.444 -0, 54.860 0.418, 54.544 0.929 M 64.500 62.944 C 56.325 64.268, 50.930 65.991, 43 69.814 C 32.444 74.903, 18.927 88.404, 13.778 99 C 7.648 111.615, 4.334 129.191, 7.491 132.348 C 10.992 135.850, 14 132.834, 14 125.823 C 14 112.987, 20.739 98.179, 31.459 87.459 C 43.091 75.828, 56.905 70, 72.845 70 C 83.674 70, 89.916 71.424, 99.820 76.153 C 109.977 81.002, 119.912 90.325, 125.340 100.101 C 129.485 107.566, 133 119.966, 133 127.125 C 133 130.956, 133.418 132.154, 135.064 133.034 C 142.863 137.208, 141.093 114.561, 132.303 97.700 C 129.753 92.809, 125.954 87.890, 120.457 82.361 C 113.703 75.568, 110.806 73.478, 102.933 69.719 C 97.745 67.242, 91.475 64.743, 89 64.165 C 82.400 62.623, 70.232 62.016, 64.500 62.944 M 72.357 126.765 C 71.406 127.377, 6 257.165, 6 258.440 C 6 258.670, 6.707 259.564, 7.571 260.429 C 8.968 261.825, 16.372 262, 74 262 C 131.628 262, 139.032 261.825, 140.429 260.429 C 141.293 259.564, 142 258.663, 142 258.426 C 142 257.155, 76.584 127.384, 75.631 126.765 C 75.009 126.361, 74.275 126.031, 74 126.031 C 73.725 126.031, 72.986 126.361, 72.357 126.765 M 44.747 196.500 L 16.002 254 73.584 254 C 108.048 254, 131.033 253.632, 130.833 253.084 C 129.582 249.643, 74.532 139, 74.071 139 C 73.753 139, 60.557 164.875, 44.747 196.500 " stroke="none" fill="black" fill-rule="evenodd"/>
</svg>