<svg xmlns="http://www.w3.org/2000/svg" width="500" height="324" viewBox="0 0 500 324" version="1.1">
	<path d="M 35.045 127.064 C 19.586 130.194, 7.255 144.080, 6.841 158.824 C 6.689 164.231, 10.459 179.667, 14.976 192.133 C 18.628 202.212, 26.063 215.568, 33.594 225.579 C 47.004 243.404, 74.270 264.227, 77.454 259.074 C 77.769 258.565, 81.733 255.556, 86.263 252.388 C 112.818 233.821, 132.129 203.986, 138.872 171.112 C 141.945 156.133, 139.262 146.177, 129.518 136.404 C 116.900 123.746, 95.755 123.323, 82.257 135.459 C 79.595 137.852, 76.567 141.388, 75.529 143.317 L 73.640 146.824 70.976 142.624 C 63.636 131.049, 48.255 124.389, 35.045 127.064 M 319.500 127.069 C 291.648 131.334, 269.296 152.594, 263.583 180.254 C 260.567 194.855, 262.355 208.770, 269.010 222.500 C 280.443 246.083, 303.026 260.320, 329 260.320 C 347.380 260.320, 363.442 253.736, 375.966 241.069 C 387.619 229.283, 392.837 218.946, 395.557 202.261 C 396.677 195.388, 396.680 192.570, 395.570 185.261 C 393 168.334, 387.776 157.854, 376 146.004 C 367.833 137.786, 356.604 131.288, 345.933 128.605 C 338.171 126.653, 326.606 125.981, 319.500 127.069 M 31.591 135.573 C 23.452 138.555, 15.998 146.866, 14.553 154.569 C 13.726 158.977, 16.225 172.568, 20.050 184.464 C 25.992 202.943, 35.743 218.759, 49.988 233.026 C 55.220 238.265, 62.724 244.731, 66.665 247.394 L 73.830 252.237 81.554 246.898 C 106.445 229.690, 125.123 201.313, 131.495 171.022 C 133.741 160.345, 133.447 156.214, 129.940 149.196 C 124.547 138.404, 115.427 133.343, 102.977 134.234 C 89.428 135.203, 78.088 146.273, 78.022 158.595 C 78 162.601, 75.807 166, 73.243 166 C 71.111 166, 69 162.820, 69 159.607 C 69 149.949, 60.912 138.862, 51.537 135.667 C 45.642 133.659, 36.928 133.618, 31.591 135.573 M 314.072 135.591 C 303.621 138.401, 295.963 142.955, 287.394 151.457 C 275.126 163.630, 269.639 176.622, 269.639 193.500 C 269.639 210.413, 275.132 223.417, 287.384 235.511 C 300.785 248.739, 313.452 253.628, 331.988 252.725 C 345.003 252.091, 352.551 249.609, 362.927 242.552 C 376.647 233.220, 385.465 219.121, 388.447 201.750 L 389.091 198 358.745 198 C 336.477 198, 328.081 197.681, 327.200 196.800 C 326.319 195.919, 326 187.422, 326 164.800 L 326 134 322.750 134.066 C 320.962 134.102, 317.057 134.788, 314.072 135.591 M 333 162 L 333 190 361.061 190 L 389.123 190 388.457 185.250 C 385.815 166.386, 372.788 148.376, 355.807 140.112 C 349.351 136.971, 339.379 134, 335.290 134 L 333 134 333 162 M 167.585 191.558 C 166.713 192.430, 166 193.529, 166 194 C 166 194.471, 166.713 195.570, 167.585 196.442 C 168.978 197.835, 173.159 197.995, 202.226 197.763 C 232.452 197.523, 235.377 197.350, 236.386 195.750 C 237.191 194.474, 237.191 193.526, 236.386 192.250 C 235.377 190.650, 232.452 190.477, 202.226 190.237 C 173.159 190.005, 168.978 190.165, 167.585 191.558 M 455.268 191.207 C 453.374 193.543, 422 256.953, 422 258.444 C 422 260.431, 425.097 262.022, 426.974 260.999 C 427.813 260.542, 435.021 247.076, 442.991 231.074 L 457.483 201.979 471.825 230.740 C 479.714 246.558, 486.867 260.045, 487.722 260.711 C 489.692 262.247, 493.021 260.657, 492.950 258.215 C 492.859 255.092, 459.585 190.516, 457.908 190.207 C 457.032 190.046, 455.844 190.496, 455.268 191.207 " stroke="none" fill="black" fill-rule="evenodd"/>
</svg>