<svg xmlns="http://www.w3.org/2000/svg" width="244" height="324" viewBox="0 0 244 324" version="1.1">
	<path d="M 23.571 63.571 C 22.707 64.436, 22 65.317, 22 65.531 C 22 66.316, 39.159 100.529, 39.965 101.349 C 42.297 103.725, 44.927 100.197, 53.239 83.541 C 58.036 73.928, 61.710 65.408, 61.403 64.609 C 60.732 62.858, 58.483 61.877, 56.705 62.560 C 55.993 62.833, 52.520 68.894, 48.986 76.028 C 45.453 83.163, 42.308 89, 41.997 89 C 41.687 89, 38.748 83.534, 35.467 76.853 C 27.925 61.499, 26.847 60.296, 23.571 63.571 M 7.571 127.571 C 6.175 128.968, 6 136.372, 6 194 C 6 251.628, 6.175 259.032, 7.571 260.429 C 8.436 261.293, 9.529 262, 10 262 C 10.471 262, 11.564 261.293, 12.429 260.429 C 13.824 259.034, 14 251.848, 14 196.429 L 14 134 44.429 134 C 70.758 134, 75.069 133.788, 76.429 132.429 C 77.293 131.564, 78 130.471, 78 130 C 78 129.529, 77.293 128.436, 76.429 127.571 C 75.064 126.207, 70.537 126, 42 126 C 13.463 126, 8.936 126.207, 7.571 127.571 M 167.750 127.080 C 166.143 128.016, 166 130.628, 166 159.050 L 166 190 135.122 190 C 108.954 190, 104.056 190.228, 103.005 191.494 C 100.404 194.628, 104.204 213.523, 109.569 224.127 C 117.620 240.044, 135.143 253.982, 153 258.674 C 161.588 260.931, 177.328 260.878, 186 258.562 C 207.426 252.843, 225.704 235.706, 233.002 214.495 C 235.762 206.472, 237.445 193.241, 235.936 191.423 C 234.962 190.250, 229.426 190, 204.378 190 L 174 190 174 160.223 C 174 134.890, 173.768 130.113, 172.443 128.223 C 170.702 125.736, 170.248 125.625, 167.750 127.080 M 110 200.290 C 110 204.593, 112.971 213.992, 116.625 221.249 C 123.728 235.356, 139.581 247.804, 155.103 251.463 C 163.323 253.400, 175.948 253.413, 183.540 251.491 C 191.777 249.406, 202.651 243.773, 208.769 238.421 C 218.477 229.929, 226.280 215.415, 228.485 201.750 L 229.091 198 169.545 198 L 110 198 110 200.290 " stroke="none" fill="black" fill-rule="evenodd"/>
</svg>