<svg xmlns="http://www.w3.org/2000/svg" width="148" height="324" viewBox="0 0 148 324" version="1.1">
	<path d="M 55.571 63.571 C 54.707 64.436, 54 65.317, 54 65.531 C 54 66.993, 71.421 100.653, 72.488 101.252 C 73.225 101.665, 74.440 101.768, 75.188 101.481 C 76.837 100.849, 93 68.755, 93 66.115 C 93 63.770, 90.710 61.790, 88.832 62.511 C 88.050 62.811, 84.520 68.894, 80.986 76.028 C 77.453 83.163, 74.306 89, 73.994 89 C 73.683 89, 70.969 83.984, 67.964 77.854 C 62.437 66.580, 59.559 62, 57.999 62 C 57.528 62, 56.436 62.707, 55.571 63.571 M 71.259 191.259 C 35.366 227.151, 6 257.044, 6 257.687 C 6 259.183, 8.783 261.987, 10.321 262.041 C 12.042 262.102, 140.935 131.785, 140.970 129.950 C 141.004 128.188, 139.114 126, 137.559 126 C 136.986 126, 107.151 155.366, 71.259 191.259 " stroke="none" fill="black" fill-rule="evenodd"/>
</svg>