<svg xmlns="http://www.w3.org/2000/svg" width="468" height="324" viewBox="0 0 468 324" version="1.1">
	<path d="M 232.369 62.765 C 231.416 63.384, 166 193.155, 166 194.426 C 166 194.663, 166.707 195.564, 167.571 196.429 C 168.844 197.701, 171.697 198, 182.575 198 L 196.006 198 181.003 227.994 C 172.751 244.490, 166 258.183, 166 258.422 C 166 258.661, 166.707 259.564, 167.571 260.429 C 168.968 261.825, 176.372 262, 234 262 C 291.628 262, 299.032 261.825, 300.429 260.429 C 301.293 259.564, 302 258.661, 302 258.422 C 302 258.183, 295.249 244.490, 286.997 227.994 L 271.994 198 285.425 198 C 296.303 198, 299.156 197.701, 300.429 196.429 C 301.293 195.564, 302 194.663, 302 194.426 C 302 193.155, 236.584 63.384, 235.631 62.765 C 235.009 62.361, 234.275 62.031, 234 62.031 C 233.725 62.031, 232.991 62.361, 232.369 62.765 M 204.747 132.500 L 176.002 190 188.003 190 L 200.004 190 215.736 158.517 C 224.389 141.202, 232.038 126.816, 232.734 126.549 C 233.430 126.281, 234.570 126.281, 235.266 126.549 C 235.962 126.816, 243.611 141.202, 252.264 158.517 L 267.996 190 279.997 190 L 291.998 190 263.253 132.500 C 247.443 100.875, 234.279 75, 234 75 C 233.721 75, 220.557 100.875, 204.747 132.500 M 39.267 159.267 L 6 192.533 6 225.695 C 6 254.509, 6.206 259.063, 7.571 260.429 C 8.968 261.825, 16.372 262, 74 262 C 131.628 262, 139.032 261.825, 140.429 260.429 C 141.794 259.063, 142 254.509, 142 225.695 L 142 192.533 108.733 159.267 C 90.437 140.970, 74.807 126, 74 126 C 73.193 126, 57.563 140.970, 39.267 159.267 M 391.259 191.259 C 355.366 227.151, 326 257.044, 326 257.687 C 326 259.199, 328.801 262, 330.313 262 C 331.842 262, 462 131.842, 462 130.313 C 462 128.801, 459.199 126, 457.687 126 C 457.044 126, 427.151 155.366, 391.259 191.259 M 43.744 165.756 L 14 195.512 14 224.756 L 14 254 74 254 L 134 254 134 224.744 L 134 195.487 104.244 165.744 C 87.878 149.385, 74.263 136, 73.988 136 C 73.713 136, 60.103 149.390, 43.744 165.756 M 204.747 196.500 L 176.002 254 234 254 L 291.998 254 263.253 196.500 C 247.443 164.875, 234.279 139, 234 139 C 233.721 139, 220.557 164.875, 204.747 196.500 " stroke="none" fill="black" fill-rule="evenodd"/>
</svg>