<svg xmlns="http://www.w3.org/2000/svg" width="244" height="324" viewBox="0 0 244 324" version="1.1">
	<path d="M 167.750 127.080 C 166.143 128.016, 166 130.628, 166 159.050 L 166 190 135.571 190 C 109.242 190, 104.931 190.212, 103.571 191.571 C 101.598 193.545, 101.598 194.455, 103.571 196.429 C 104.931 197.788, 109.242 198, 135.571 198 L 166 198 166 228.965 C 166 259.771, 166.011 259.936, 168.183 261.098 C 170.042 262.093, 170.636 261.933, 172.183 260.022 C 173.848 257.966, 174 255.285, 174 227.889 L 174 198 199.236 198 L 224.472 198 211.236 211.263 C 203.956 218.558, 198 225.292, 198 226.228 C 198 227.164, 198.952 228.439, 200.115 229.062 C 202.040 230.092, 203.775 228.675, 219.354 213.347 C 228.772 204.081, 236.843 195.938, 237.289 195.250 C 237.734 194.563, 237.734 193.438, 237.289 192.750 C 236.843 192.063, 228.772 183.919, 219.354 174.653 C 203.775 159.325, 202.040 157.908, 200.115 158.938 C 198.952 159.561, 198 160.836, 198 161.772 C 198 162.708, 203.956 169.442, 211.236 176.737 L 224.472 190 199.236 190 L 174 190 174 160.223 C 174 134.890, 173.768 130.113, 172.443 128.223 C 170.702 125.736, 170.248 125.625, 167.750 127.080 M 34.223 159.062 C 24.045 161.068, 13.996 169.411, 9.216 179.825 C 5.524 187.869, 5.513 199.108, 9.191 207.120 C 12.319 213.936, 17.835 220.233, 23.673 223.654 C 28.824 226.673, 41.869 230.124, 44 229.032 C 44.825 228.609, 47.300 227.941, 49.500 227.548 C 59.453 225.767, 70.142 216.481, 74.072 206.202 C 81.691 186.273, 69.979 164.264, 49.147 159.360 C 42.857 157.880, 40.464 157.832, 34.223 159.062 M 31.054 167.728 C 25.018 169.859, 17.781 177.260, 15.667 183.463 C 10.058 199.925, 18.847 216.571, 35.250 220.550 L 38 221.217 38 193.608 C 38 172.146, 37.722 166.018, 36.750 166.079 C 36.063 166.122, 33.499 166.864, 31.054 167.728 M 46 193.500 L 46 221.135 48.250 220.434 C 56.986 217.712, 62.088 213.513, 65.883 205.919 C 70.231 197.217, 70.231 189.783, 65.883 181.081 C 62.088 173.487, 56.986 169.288, 48.250 166.566 L 46 165.865 46 193.500 " stroke="none" fill="black" fill-rule="evenodd"/>
</svg>