<svg xmlns="http://www.w3.org/2000/svg" width="244" height="324" viewBox="0 0 244 324" version="1.1">
	<path d="M 23.571 63.571 C 22.707 64.436, 22 65.317, 22 65.531 C 22 66.993, 39.421 100.653, 40.488 101.252 C 41.225 101.665, 42.440 101.768, 43.187 101.482 C 45.102 100.747, 62.082 66.377, 61.403 64.609 C 60.732 62.858, 58.483 61.877, 56.705 62.560 C 55.993 62.833, 52.520 68.894, 48.986 76.028 C 45.453 83.163, 42.308 89, 41.997 89 C 41.687 89, 38.748 83.534, 35.467 76.853 C 27.925 61.499, 26.847 60.296, 23.571 63.571 M 167.571 127.571 C 166.212 128.931, 166 133.242, 166 159.571 L 166 190 135.571 190 C 109.242 190, 104.931 190.212, 103.571 191.571 C 101.598 193.545, 101.598 194.455, 103.571 196.429 C 104.931 197.788, 109.242 198, 135.571 198 L 166 198 166 228.429 C 166 254.758, 166.212 259.069, 167.571 260.429 C 169.678 262.535, 170.598 262.412, 172.443 259.777 C 173.768 257.887, 174 253.110, 174 227.777 L 174 198 199.236 198 L 224.472 198 211.236 211.263 C 203.956 218.558, 198 225.292, 198 226.228 C 198 227.164, 198.952 228.439, 200.115 229.062 C 202.040 230.092, 203.775 228.675, 219.354 213.347 C 228.772 204.081, 236.843 195.938, 237.289 195.250 C 237.734 194.563, 237.734 193.438, 237.289 192.750 C 236.843 192.063, 228.772 183.919, 219.354 174.653 C 203.775 159.325, 202.040 157.908, 200.115 158.938 C 198.952 159.561, 198 160.836, 198 161.772 C 198 162.708, 203.956 169.442, 211.236 176.737 L 224.472 190 199.236 190 L 174 190 174 160.223 C 174 134.890, 173.768 130.113, 172.443 128.223 C 170.598 125.588, 169.678 125.465, 167.571 127.571 M 33.384 159.412 C 15.480 163.757, 3.543 181.833, 6.993 199.372 C 9.077 209.960, 14.986 218.563, 23.673 223.654 C 28.824 226.673, 41.869 230.124, 44 229.032 C 44.825 228.609, 47.300 227.941, 49.500 227.548 C 59.453 225.767, 70.142 216.481, 74.072 206.202 C 81.691 186.273, 69.979 164.264, 49.147 159.360 C 42.397 157.772, 40.111 157.779, 33.384 159.412 M 31.054 167.728 C 25.018 169.859, 17.781 177.260, 15.667 183.463 C 10.058 199.925, 18.847 216.571, 35.250 220.550 L 38 221.217 38 193.608 C 38 172.146, 37.722 166.018, 36.750 166.079 C 36.063 166.122, 33.499 166.864, 31.054 167.728 M 46 193.500 L 46 221.135 48.250 220.448 C 53.937 218.711, 57.111 216.889, 60.696 213.304 C 66.750 207.250, 68.500 202.809, 68.500 193.500 C 68.500 184.191, 66.750 179.750, 60.696 173.696 C 57.111 170.111, 53.937 168.289, 48.250 166.552 L 46 165.865 46 193.500 " stroke="none" fill="black" fill-rule="evenodd"/>
</svg>