<svg xmlns="http://www.w3.org/2000/svg" width="276" height="324" viewBox="0 0 276 324" version="1.1">
	<path d="M 136.372 62.765 C 134.418 64.037, 118.003 97.844, 118.593 99.381 C 119.268 101.141, 121.513 102.124, 123.295 101.440 C 124.007 101.167, 127.480 95.106, 131.014 87.972 C 134.547 80.837, 137.691 75, 138 75 C 138.309 75, 141.453 80.837, 144.986 87.972 C 148.520 95.106, 151.993 101.167, 152.705 101.440 C 154.487 102.124, 156.732 101.141, 157.407 99.381 C 157.716 98.575, 154.096 90.173, 149.363 80.708 C 141.638 65.261, 139.672 62.031, 138 62.031 C 137.725 62.031, 136.992 62.361, 136.372 62.765 M 135.571 127.571 C 134.178 128.965, 134 135.899, 134 188.799 L 134 248.455 104.711 219.227 C 88.602 203.152, 74.909 190, 74.282 190 C 72.799 190, 70 192.814, 70 194.305 C 70 195.823, 136.177 262, 137.695 262 C 138.334 262, 139.564 261.293, 140.429 260.429 C 141.825 259.032, 142 251.628, 142 194 C 142 136.372, 141.825 128.968, 140.429 127.571 C 139.564 126.707, 138.471 126, 138 126 C 137.529 126, 136.436 126.707, 135.571 127.571 M 227.500 126.895 C 217.819 128.654, 208.231 135.337, 203.290 143.769 C 200.887 147.869, 198.052 157.226, 198.016 161.179 C 197.999 162.938, 200.530 166, 202 166 C 203.912 166, 206 162.663, 206 159.607 C 206 149.949, 214.088 138.862, 223.463 135.667 C 234.241 131.995, 245.477 134.382, 253.048 141.952 C 260.663 149.568, 262.380 157.309, 259.495 171.022 C 252.653 203.548, 231.606 233.730, 204.125 250.424 C 199.411 253.288, 198 254.688, 198 256.501 C 198 261.946, 198.356 262, 234 262 C 262.537 262, 267.064 261.793, 268.429 260.429 C 270.244 258.613, 270.319 258.054, 269.022 256 C 268.231 254.747, 263.552 254.418, 240.564 254 L 213.053 253.500 220.138 248 C 239.253 233.163, 255.943 208.988, 263.286 185.500 C 267.700 171.384, 269.171 162.179, 268.004 155.983 C 264.335 136.493, 246.231 123.491, 227.500 126.895 M 167.571 159.571 C 165.215 161.927, 165.215 210.073, 167.571 212.429 C 168.436 213.293, 169.529 214, 170 214 C 170.471 214, 171.564 213.293, 172.429 212.429 C 174.785 210.073, 174.785 161.927, 172.429 159.571 C 171.564 158.707, 170.471 158, 170 158 C 169.529 158, 168.436 158.707, 167.571 159.571 M 20.648 190.983 C 13.384 193.272, 7.912 199.505, 6.503 207.096 C 5.855 210.586, 7.585 214, 10 214 C 11.861 214, 14 210.700, 14 207.829 C 14 205.718, 15.030 203.770, 17.400 201.400 C 20.302 198.498, 21.488 198, 25.500 198 C 29.512 198, 30.698 198.498, 33.600 201.400 C 39.296 207.096, 38.903 208.183, 21.941 233.589 C 13.658 245.994, 6.657 256.729, 6.383 257.443 C 6.109 258.158, 6.618 259.475, 7.514 260.371 C 9.895 262.753, 42.054 262.803, 44.429 260.429 C 46.402 258.455, 46.402 257.545, 44.429 255.571 C 43.162 254.305, 40.348 254, 29.926 254 L 16.995 254 31.477 232.250 L 45.960 210.500 44.402 206 C 43.546 203.525, 42.002 200.133, 40.972 198.462 C 37.421 192.702, 27.168 188.929, 20.648 190.983 M 167.571 222.571 C 166.707 223.436, 166 224.529, 166 225 C 166 225.471, 166.707 226.564, 167.571 227.429 C 168.436 228.293, 169.529 229, 170 229 C 170.471 229, 171.564 228.293, 172.429 227.429 C 173.293 226.564, 174 225.471, 174 225 C 174 224.529, 173.293 223.436, 172.429 222.571 C 171.564 221.707, 170.471 221, 170 221 C 169.529 221, 168.436 221.707, 167.571 222.571 " stroke="none" fill="black" fill-rule="evenodd"/>
</svg>