<svg xmlns="http://www.w3.org/2000/svg" width="340" height="324" viewBox="0 0 340 324" version="1.1">
	<path d="M 39.571 127.571 C 38.176 128.966, 38 136.152, 38 191.571 L 38 254 23.571 254 C 11.788 254, 8.855 254.288, 7.571 255.571 C 5.598 257.545, 5.598 258.455, 7.571 260.429 C 8.936 261.793, 13.463 262, 42 262 C 70.537 262, 75.064 261.793, 76.429 260.429 C 77.293 259.564, 78 258.471, 78 258 C 78 257.529, 77.293 256.436, 76.429 255.571 C 75.145 254.288, 72.212 254, 60.429 254 L 46 254 46 191.571 C 46 136.152, 45.824 128.966, 44.429 127.571 C 43.564 126.707, 42.471 126, 42 126 C 41.529 126, 40.436 126.707, 39.571 127.571 M 103.571 127.571 C 102.175 128.968, 102 136.406, 102 194.371 C 102 243.771, 102.291 259.891, 103.200 260.800 C 104.109 261.709, 120.229 262, 169.629 262 C 227.594 262, 235.032 261.825, 236.429 260.429 C 237.825 259.033, 238 251.677, 238 194.539 C 238 133.871, 237.897 130.094, 236.183 127.978 C 234.636 126.067, 234.042 125.907, 232.183 126.902 L 230 128.070 230 191.035 L 230 254 170 254 L 110 254 110 191.571 C 110 136.152, 109.824 128.966, 108.429 127.571 C 107.564 126.707, 106.471 126, 106 126 C 105.529 126, 104.436 126.707, 103.571 127.571 M 164.764 158.996 C 159.184 160.676, 155.145 164.067, 152.571 169.234 C 151.157 172.071, 150 175.397, 150 176.625 C 150 178.839, 152.353 182, 154 182 C 155.861 182, 158 178.700, 158 175.829 C 158 173.718, 159.030 171.770, 161.400 169.400 C 164.231 166.569, 165.533 166, 169.177 166 C 178.941 166, 184.196 175.962, 178.719 184.089 C 177.465 185.950, 175.102 187.872, 173.469 188.360 C 165.531 190.729, 166 189.941, 166 200.907 C 166 208.619, 166.353 211.211, 167.571 212.429 C 168.436 213.293, 169.529 214, 170 214 C 172.696 214, 174 210.576, 174 203.496 C 174 196.935, 174.225 196.064, 176.066 195.479 C 179.091 194.519, 184.861 189.169, 186.694 185.625 C 187.569 183.932, 188.286 180.276, 188.286 177.500 C 188.286 171.499, 186.366 167.406, 181.578 163.203 C 176.492 158.737, 170.556 157.252, 164.764 158.996 M 289.746 159.027 C 277.986 161.982, 267.408 171.701, 264.023 182.661 C 261.586 190.552, 261.473 195.861, 263.590 202.991 C 267.492 216.131, 277.411 224.976, 292.030 228.353 C 295.681 229.197, 299.204 229.476, 300.414 229.019 C 301.561 228.584, 305.069 227.486, 308.208 226.577 C 318.328 223.647, 327.952 213.871, 331.023 203.402 C 332.922 196.931, 331.923 184.433, 329.034 178.500 C 325.442 171.125, 317.622 163.750, 310.610 161.127 C 303.787 158.574, 295.048 157.695, 289.746 159.027 M 287.385 167.617 C 285.122 168.420, 281.450 170.635, 279.224 172.541 C 266.777 183.195, 266.768 203.798, 279.205 214.443 C 282.623 217.370, 290.361 221, 293.178 221 C 293.630 221, 294 208.625, 294 193.500 C 294 172.125, 293.722 166.018, 292.750 166.079 C 292.063 166.122, 289.648 166.815, 287.385 167.617 M 301 193.392 C 301 214.817, 301.280 220.998, 302.250 220.990 C 304.883 220.970, 313.685 216.161, 316.810 213.037 C 323.566 206.280, 326.542 195.377, 324.096 186.337 C 321.650 177.295, 312.836 168.683, 303.750 166.457 L 301 165.783 301 193.392 M 167.571 222.571 C 166.707 223.436, 166 224.529, 166 225 C 166 225.471, 166.707 226.564, 167.571 227.429 C 168.436 228.293, 169.529 229, 170 229 C 170.471 229, 171.564 228.293, 172.429 227.429 C 173.293 226.564, 174 225.471, 174 225 C 174 224.529, 173.293 223.436, 172.429 222.571 C 171.564 221.707, 170.471 221, 170 221 C 169.529 221, 168.436 221.707, 167.571 222.571 " stroke="none" fill="black" fill-rule="evenodd"/>
</svg>