<svg xmlns="http://www.w3.org/2000/svg" width="468" height="324" viewBox="0 0 468 324" version="1.1">
	<path d="M 71.571 127.571 C 70.176 128.966, 70 136.152, 70 191.571 L 70 254 39.571 254 C 13.242 254, 8.931 254.212, 7.571 255.571 C 5.598 257.545, 5.598 258.455, 7.571 260.429 C 8.968 261.825, 16.372 262, 74 262 C 131.628 262, 139.032 261.825, 140.429 260.429 C 142.402 258.455, 142.402 257.545, 140.429 255.571 C 139.069 254.212, 134.758 254, 108.429 254 L 78 254 78 226 L 78 198 108.429 198 C 134.758 198, 139.069 197.788, 140.429 196.429 C 141.793 195.064, 142 190.537, 142 162 C 142 133.463, 141.793 128.936, 140.429 127.571 C 139.064 126.207, 134.537 126, 106 126 C 77.463 126, 72.936 126.207, 71.571 127.571 M 390.571 127.571 C 389.651 128.492, 388.994 130.873, 388.985 133.321 C 388.888 160.782, 360.782 188.888, 333.321 188.985 C 329.426 188.999, 326 190.878, 326 193 C 326 193.471, 326.732 194.589, 327.627 195.485 C 330.665 198.522, 347.481 195.263, 359.823 189.245 C 368.649 184.942, 380.169 174.563, 385.965 165.693 L 390 159.517 390 209.187 C 390 253.008, 390.185 259.042, 391.571 260.429 C 393.387 262.244, 393.947 262.319, 396 261.022 C 397.289 260.207, 397.570 253.151, 398 210.910 L 398.500 161.746 401.769 166.792 C 406.807 174.569, 418.784 185.165, 427.194 189.287 C 439.553 195.343, 457.202 198.655, 460.348 195.509 C 462.404 193.453, 462.418 192.561, 460.429 190.571 C 459.453 189.596, 457.082 188.994, 454.179 188.985 C 426.221 188.897, 398.113 161.039, 398.015 133.321 C 398 129.093, 396.092 126, 393.500 126 C 392.754 126, 391.436 126.707, 390.571 127.571 M 78 162 L 78 190 106 190 L 134 190 134 162 L 134 134 106 134 L 78 134 78 162 M 195.500 158.895 C 181.758 161.392, 170.602 172.079, 167.360 185.853 C 164.595 197.602, 165.093 198, 182.575 198 L 196.006 198 181.020 227.961 C 172.777 244.439, 166.285 258.580, 166.594 259.384 C 167.265 261.133, 169.512 262.125, 171.274 261.448 C 171.975 261.180, 179.056 247.919, 187.010 231.980 C 194.964 216.041, 201.710 203, 202 203 C 202.290 203, 209.036 216.041, 216.990 231.980 C 224.944 247.919, 232.025 261.180, 232.726 261.448 C 233.427 261.717, 234.573 261.717, 235.274 261.448 C 235.975 261.180, 243.056 247.919, 251.010 231.980 C 258.964 216.041, 265.710 203, 266 203 C 266.290 203, 273.036 216.041, 280.990 231.980 C 288.944 247.919, 296.025 261.180, 296.726 261.448 C 298.488 262.125, 300.735 261.133, 301.406 259.384 C 301.715 258.580, 295.223 244.439, 286.980 227.961 L 271.994 198 285.425 198 C 296.303 198, 299.156 197.701, 300.429 196.429 C 304.070 192.787, 300.764 190, 292.801 190 L 286.745 190 290.802 185.599 C 293.033 183.179, 295.734 179.467, 296.806 177.349 C 298.472 174.056, 301 164.818, 301 162.022 C 301 160.894, 298.122 158, 297 158 C 295.208 158, 293 161.253, 293 163.893 C 293 173.055, 284.685 184.216, 275.537 187.333 C 269.301 189.457, 261.699 189.457, 255.463 187.333 C 246.315 184.216, 238 173.055, 238 163.893 C 238 161.253, 235.792 158, 234 158 C 232.878 158, 230 160.894, 230 162.022 C 230 164.818, 232.528 174.056, 234.194 177.349 C 235.266 179.467, 237.967 183.179, 240.198 185.599 L 244.255 190 240.127 190 C 236.693 190, 236 189.671, 236 188.038 C 236 183.853, 231.688 174.870, 227.381 170.079 C 219.568 161.389, 206.672 156.865, 195.500 158.895 M 191.385 167.617 C 183.428 170.439, 176.611 178.342, 174.450 187.250 L 173.783 190 201.500 190 L 229.217 190 228.550 187.250 C 226.335 178.120, 219.528 170.390, 211.205 167.554 C 205.596 165.643, 196.873 165.671, 191.385 167.617 M 220.743 223.500 C 227.750 237.525, 233.715 249, 234 249 C 234.285 249, 240.250 237.525, 247.257 223.500 L 259.995 198 234 198 L 208.005 198 220.743 223.500 " stroke="none" fill="black" fill-rule="evenodd"/>
</svg>