<svg xmlns="http://www.w3.org/2000/svg" width="244" height="324" viewBox="0 0 244 324" version="1.1">
	<path d="M 40.372 62.765 C 38.418 64.037, 22.003 97.844, 22.593 99.381 C 23.268 101.141, 25.513 102.124, 27.295 101.440 C 28.007 101.167, 31.480 95.106, 35.014 87.972 C 38.547 80.837, 41.691 75, 42 75 C 42.309 75, 45.453 80.837, 48.986 87.972 C 52.520 95.106, 56.076 101.199, 56.889 101.511 C 57.701 101.823, 59.219 101.225, 60.261 100.183 C 62.121 98.324, 61.994 97.966, 53.456 80.894 C 45.647 65.280, 43.673 62.031, 42 62.031 C 41.725 62.031, 40.992 62.361, 40.372 62.765 M 35.045 159.064 C 13.497 163.427, 1.173 185.901, 9.037 206.493 C 12.164 214.680, 20.320 222.836, 28.507 225.963 C 41.989 231.112, 56.191 228.077, 66.149 217.918 C 76.006 207.863, 78.904 193.837, 73.893 180.443 C 68.367 165.675, 50.623 155.909, 35.045 159.064 M 103.616 159.527 C 102.727 160.416, 102 161.640, 102 162.249 C 102 162.857, 108.844 170.250, 117.208 178.677 L 132.416 194 117.208 209.323 C 108.844 217.750, 102 225.143, 102 225.751 C 102 227.198, 104.994 230.173, 106.068 229.795 C 107.353 229.342, 142 194.827, 142 194 C 142 193.173, 107.353 158.658, 106.068 158.205 C 105.608 158.043, 104.505 158.638, 103.616 159.527 M 135.616 159.527 C 134.727 160.416, 134 161.640, 134 162.249 C 134 162.857, 140.844 170.250, 149.208 178.677 L 164.416 194 149.208 209.323 C 140.844 217.750, 134 225.143, 134 225.751 C 134 227.207, 136.995 230.171, 138.087 229.795 C 139.273 229.386, 174 194.774, 174 194 C 174 193.226, 139.273 158.614, 138.087 158.205 C 137.617 158.043, 136.505 158.638, 135.616 159.527 M 199.571 159.571 C 197.215 161.927, 197.215 210.073, 199.571 212.429 C 201.457 214.315, 202.219 214.381, 203.800 212.800 C 205.508 211.092, 205.508 160.908, 203.800 159.200 C 202.219 157.619, 201.457 157.685, 199.571 159.571 M 31.627 167.468 C 26.302 169.367, 21.047 173.815, 17.618 179.328 C 14.254 184.737, 13.041 194.780, 14.916 201.708 C 16.446 207.361, 21.544 213.823, 27.266 217.361 C 33.473 221.198, 43.261 222.070, 51.058 219.481 C 69.624 213.314, 75.164 188.069, 61.048 173.952 C 53.696 166.601, 41.563 163.927, 31.627 167.468 M 199.616 222.527 C 198.727 223.416, 198 224.529, 198 225 C 198 226.389, 201.140 229.120, 202.295 228.735 C 204.395 228.035, 205.549 225.094, 204.423 223.310 C 202.905 220.902, 201.474 220.669, 199.616 222.527 " stroke="none" fill="black" fill-rule="evenodd"/>
</svg>