<svg xmlns="http://www.w3.org/2000/svg" width="500" height="324" viewBox="0 0 500 324" version="1.1">
	<path d="M 71.571 127.571 C 70.178 128.965, 70 135.897, 70 188.774 L 70 248.405 56.667 235.202 C 49.334 227.941, 42.841 222, 42.239 222 C 40.825 222, 38 224.820, 38 226.232 C 38 226.831, 43.512 232.922, 50.250 239.767 C 61.854 251.556, 62.316 252.178, 59 251.551 C 57.075 251.188, 51.725 249.062, 47.111 246.828 C 28.417 237.775, 14 216.374, 14 197.677 C 14 194.888, 13.395 192.538, 12.429 191.571 C 10.444 189.587, 9.546 189.597, 7.515 191.627 C 4.455 194.687, 7.723 211.724, 13.687 223.806 C 17.869 232.277, 28.286 244.004, 36.433 249.412 C 43.520 254.116, 55.137 258.705, 62 259.513 C 65.025 259.869, 68.773 260.563, 70.328 261.055 C 72.027 261.593, 74.822 261.572, 77.328 261.002 C 79.623 260.480, 84.425 259.509, 88 258.843 C 109.400 254.859, 130.160 235.746, 137.429 213.336 C 139.985 205.455, 140.934 194.351, 139.257 191.956 C 136.237 187.645, 133.483 190.892, 132.661 199.734 C 130.802 219.744, 117.909 238.232, 99.820 246.829 C 84.237 254.235, 84.054 253.608, 97.750 239.732 C 104.488 232.906, 110 226.869, 110 226.316 C 110 225.141, 106.728 222, 105.504 222 C 105.043 222, 98.666 227.941, 91.333 235.202 L 78 248.405 78 188.774 C 78 135.897, 77.822 128.965, 76.429 127.571 C 75.564 126.707, 74.471 126, 74 126 C 73.529 126, 72.436 126.707, 71.571 127.571 M 349.500 127.418 C 321.833 132.800, 301.036 153.154, 295.560 180.208 C 293.339 191.182, 293.487 195.655, 296.117 197.062 C 299.365 198.801, 300.656 196.613, 301.871 187.308 C 303.940 171.469, 309.277 160.826, 320.500 150.155 C 328.190 142.844, 336.665 138.148, 347 135.472 C 355.896 133.168, 371.992 133.905, 380.858 137.022 C 389.597 140.094, 401.093 148.027, 406.660 154.828 C 414.771 164.737, 420.929 180.812, 420.983 192.215 C 420.995 194.852, 421.561 196.230, 422.934 196.965 C 424.135 197.607, 435.418 198, 452.670 198 L 480.472 198 467.236 211.263 C 459.956 218.558, 454 225.292, 454 226.228 C 454 227.164, 454.960 228.443, 456.133 229.071 C 458.084 230.115, 459.752 228.729, 475.633 212.867 C 485.185 203.327, 493 194.837, 493 194 C 493 193.163, 485.185 184.673, 475.633 175.133 C 459.752 159.271, 458.084 157.885, 456.133 158.929 C 454.960 159.557, 454 160.836, 454 161.772 C 454 162.708, 459.956 169.442, 467.236 176.737 L 480.472 190 454.351 190 L 428.230 190 427.520 184.315 C 426.573 176.730, 422.895 166.111, 418.821 159.191 C 416.994 156.089, 412.085 150.098, 407.911 145.876 C 401.663 139.557, 398.661 137.409, 390.911 133.709 C 385.735 131.238, 379.463 128.736, 376.974 128.150 C 369.104 126.296, 356.935 125.972, 349.500 127.418 M 263.750 159.080 C 262.155 160.009, 262 162.388, 262 186.015 C 262 211.174, 262.060 211.962, 264.064 213.034 C 265.596 213.854, 266.498 213.832, 267.564 212.947 C 268.744 211.968, 269 207.174, 269 186.078 C 269 157.906, 268.671 156.214, 263.750 159.080 M 167.585 191.558 C 166.713 192.430, 166 193.529, 166 194 C 166 194.471, 166.713 195.570, 167.585 196.442 C 168.978 197.835, 173.159 197.995, 202.226 197.763 C 232.452 197.523, 235.377 197.350, 236.386 195.750 C 237.191 194.474, 237.191 193.526, 236.386 192.250 C 235.377 190.650, 232.452 190.477, 202.226 190.237 C 173.159 190.005, 168.978 190.165, 167.585 191.558 M 263.750 222.080 C 261.372 223.465, 261.542 226.685, 264.064 228.034 C 267.753 230.008, 270.819 225.219, 267.800 222.200 C 266.367 220.767, 266.022 220.757, 263.750 222.080 " stroke="none" fill="black" fill-rule="evenodd"/>
</svg>