<svg xmlns="http://www.w3.org/2000/svg" width="436" height="324" viewBox="0 0 436 324" version="1.1">
	<path d="M 39.571 127.571 C 38.176 128.966, 38 136.152, 38 191.571 L 38 254 23.571 254 C 11.788 254, 8.855 254.288, 7.571 255.571 C 5.598 257.545, 5.598 258.455, 7.571 260.429 C 8.936 261.793, 13.463 262, 42 262 C 70.537 262, 75.064 261.793, 76.429 260.429 C 77.293 259.564, 78 258.471, 78 258 C 78 257.529, 77.293 256.436, 76.429 255.571 C 75.145 254.288, 72.212 254, 60.429 254 L 46 254 46 191.571 C 46 136.152, 45.824 128.966, 44.429 127.571 C 43.564 126.707, 42.471 126, 42 126 C 41.529 126, 40.436 126.707, 39.571 127.571 M 253.500 127.480 C 239.114 130.151, 227.564 136.333, 217.304 146.850 C 206.743 157.677, 199.976 172.321, 198.469 187.614 C 197.891 193.479, 198.055 194.912, 199.460 196.317 C 203.035 199.892, 206 196.864, 206 189.639 C 206 171.257, 219.731 150.008, 237.603 140.732 C 271.754 123.007, 313.534 141.490, 323.003 178.511 C 324.101 182.806, 325 188.482, 325 191.125 C 325 194.956, 325.418 196.154, 327.064 197.034 C 330.519 198.883, 332 196.648, 332 189.588 C 332 175.864, 324.906 159.179, 314.286 147.921 C 303.342 136.319, 289.853 129.272, 274.284 127.020 C 265.726 125.783, 262.223 125.861, 253.500 127.480 M 359.200 127.200 C 357.465 128.935, 357.465 259.065, 359.200 260.800 C 360.595 262.195, 425.604 262.538, 427.772 261.162 C 428.780 260.522, 429.044 246.603, 429.044 194 C 429.044 141.397, 428.780 127.478, 427.772 126.838 C 425.604 125.462, 360.595 125.805, 359.200 127.200 M 365 194 L 365 254 393.500 254 L 422 254 422 194 L 422 134 393.500 134 L 365 134 365 194 M 103.571 191.571 C 102.707 192.436, 102 193.529, 102 194 C 102 194.471, 102.707 195.564, 103.571 196.429 C 104.936 197.793, 109.463 198, 138 198 C 166.537 198, 171.064 197.793, 172.429 196.429 C 173.293 195.564, 174 194.471, 174 194 C 174 193.529, 173.293 192.436, 172.429 191.571 C 171.064 190.207, 166.537 190, 138 190 C 109.463 190, 104.936 190.207, 103.571 191.571 M 231.585 191.558 C 229.598 193.545, 229.595 194.452, 231.571 196.429 C 232.838 197.695, 235.652 198, 246.071 198 C 253.182 198, 259 198.223, 259 198.496 C 259 198.768, 252.365 212.269, 244.257 228.498 C 232.171 252.687, 229.712 258.320, 230.615 259.752 C 231.621 261.347, 234.545 261.524, 264.109 261.779 C 281.924 261.933, 297.463 261.825, 298.640 261.538 C 299.817 261.252, 301.047 260.321, 301.373 259.469 C 301.722 258.561, 295.780 245.553, 286.994 227.989 L 272.022 198.056 285.654 197.778 C 297.361 197.539, 299.441 197.253, 300.388 195.750 C 301.191 194.475, 301.190 193.525, 300.386 192.250 C 299.377 190.650, 296.452 190.477, 266.226 190.237 C 237.159 190.005, 232.978 190.165, 231.585 191.558 M 252.743 228.500 L 240.005 254 265.503 254 C 279.526 254, 291 253.772, 291 253.492 C 291 252.827, 266.070 203, 265.737 203 C 265.597 203, 259.750 214.475, 252.743 228.500 " stroke="none" fill="black" fill-rule="evenodd"/>
</svg>