<svg xmlns="http://www.w3.org/2000/svg" width="372" height="324" viewBox="0 0 372 324" version="1.1">
	<path d="M 72.316 62.784 C 70.369 64.022, 54.007 97.855, 54.604 99.410 C 55.269 101.144, 57.524 102.120, 59.295 101.440 C 60.007 101.167, 63.480 95.106, 67.014 87.972 C 70.547 80.837, 73.691 75, 74 75 C 74.309 75, 77.453 80.837, 80.986 87.972 C 84.520 95.106, 87.993 101.167, 88.705 101.440 C 90.476 102.120, 92.731 101.144, 93.396 99.410 C 93.993 97.855, 77.631 64.022, 75.684 62.784 C 74.206 61.844, 73.794 61.844, 72.316 62.784 M 7.571 127.571 C 6.175 128.968, 6 136.372, 6 194 C 6 251.628, 6.175 259.032, 7.571 260.429 C 8.968 261.825, 16.372 262, 74 262 C 131.628 262, 139.032 261.825, 140.429 260.429 C 141.788 259.069, 142 254.758, 142 228.429 L 142 198 167.202 198 L 192.405 198 179.202 211.333 C 171.941 218.666, 166 225.159, 166 225.761 C 166 227.187, 168.825 230, 170.257 230 C 172.006 230, 206 195.761, 206 194 C 206 192.239, 172.006 158, 170.257 158 C 168.825 158, 166 160.813, 166 162.239 C 166 162.841, 171.941 169.334, 179.202 176.667 L 192.405 190 167.202 190 L 142 190 142 159.571 C 142 133.242, 141.788 128.931, 140.429 127.571 C 139.032 126.175, 131.628 126, 74 126 C 16.372 126, 8.968 126.175, 7.571 127.571 M 231.571 127.571 C 230.707 128.436, 230 129.529, 230 130 C 230 130.471, 230.707 131.564, 231.571 132.429 C 232.966 133.823, 240.061 134, 294.573 134 L 356.003 134 325.002 195.997 C 307.951 230.095, 294 258.188, 294 258.425 C 294 258.663, 294.707 259.564, 295.571 260.429 C 296.936 261.793, 301.463 262, 330 262 C 358.537 262, 363.064 261.793, 364.429 260.429 C 366.402 258.455, 366.402 257.545, 364.429 255.571 C 363.071 254.214, 358.848 254, 333.427 254 L 303.997 254 334.998 192.003 C 352.049 157.905, 366 129.812, 366 129.575 C 366 129.337, 365.293 128.436, 364.429 127.571 C 363.032 126.175, 355.628 126, 298 126 C 240.372 126, 232.968 126.175, 231.571 127.571 M 14 194 L 14 254 74 254 L 134 254 134 226 L 134 198 103.571 198 C 77.242 198, 72.931 197.788, 71.571 196.429 C 70.707 195.564, 70 194.471, 70 194 C 70 193.529, 70.707 192.436, 71.571 191.571 C 72.931 190.212, 77.242 190, 103.571 190 L 134 190 134 162 L 134 134 74 134 L 14 134 14 194 " stroke="none" fill="black" fill-rule="evenodd"/>
</svg>