<svg xmlns="http://www.w3.org/2000/svg" width="436" height="324" viewBox="0 0 436 324" version="1.1">
	<path d="M 64.169 127.025 C 39.682 130.589, 17.803 148.678, 10.074 171.747 C 5.172 186.378, 5.279 201.376, 10.391 216.076 C 20.328 244.649, 51.435 264.098, 80.864 260.138 C 97.384 257.914, 109.223 251.994, 121.121 240.005 C 133.566 227.465, 140.006 212.055, 140.155 194.464 C 140.257 182.348, 138.684 175.243, 133.521 164.500 C 123.797 144.263, 104.685 130.258, 82.398 127.037 C 74.637 125.915, 71.811 125.913, 64.169 127.025 M 263.627 127.515 C 261.597 129.546, 261.587 130.444, 263.571 132.429 C 264.538 133.395, 266.888 134, 269.677 134 C 286.862 134, 308.191 147.457, 317.224 164 C 323.266 175.064, 324.493 180.045, 324.493 193.500 C 324.493 202.560, 324.037 206.848, 322.633 211 C 315.849 231.065, 299.081 246.940, 279.897 251.463 C 271.567 253.426, 258.378 253.408, 250.644 251.423 C 232.005 246.637, 216.241 232.505, 209.467 214.507 C 208.110 210.903, 207 207.199, 207 206.277 C 207 205.279, 212.202 209.746, 219.836 217.299 C 226.896 224.285, 233.141 230, 233.713 230 C 235.292 230, 237.208 227.291, 236.833 225.591 C 236.399 223.629, 203.089 190, 201.579 190 C 200.101 190, 166 224.259, 166 225.743 C 166 226.967, 168.733 230, 169.835 230 C 170.216 230, 176.590 223.925, 184 216.500 C 191.410 209.075, 197.751 203, 198.092 203 C 198.434 203, 199.449 206.037, 200.349 209.750 C 203.242 221.687, 208.402 230.453, 218.474 240.539 C 232.483 254.568, 246.202 260.328, 265.500 260.283 C 283.977 260.240, 298.921 254.061, 312.095 241.019 C 325.603 227.646, 332 212.375, 332 193.500 C 332 174.625, 325.603 159.354, 312.095 145.981 C 300.683 134.683, 287.479 128.455, 270.877 126.537 C 266.402 126.020, 264.923 126.220, 263.627 127.515 M 375.213 143.315 C 365.746 152.838, 358 161.131, 358 161.743 C 358 162.951, 360.728 166, 361.808 166 C 362.175 166, 368.667 159.819, 376.237 152.263 L 390 138.527 390 148.636 L 390 158.744 385.908 159.399 C 376.250 160.943, 365.967 169.284, 361.417 179.266 C 357.361 188.161, 357.361 198.839, 361.417 207.734 C 365.967 217.716, 376.250 226.057, 385.908 227.601 L 390 228.256 390 243.556 C 390 256.133, 390.280 259.137, 391.571 260.429 C 395.781 264.638, 396.910 261.368, 397.223 244.061 L 397.500 228.762 403.761 226.841 C 412.230 224.243, 419.335 218.306, 423.916 210 C 427.356 203.761, 427.500 203.098, 427.500 193.500 C 427.500 183.902, 427.356 183.239, 423.916 177 C 419.335 168.693, 412.230 162.756, 403.761 160.160 L 397.500 158.240 397.211 148.377 L 396.922 138.515 410.791 152.257 C 418.419 159.816, 425.132 166, 425.708 166 C 427.297 166, 429.208 163.291, 428.833 161.570 C 428.413 159.644, 395.020 126, 393.528 126 C 392.921 126, 384.680 133.792, 375.213 143.315 M 57.500 135.870 C 37.436 141.645, 20.733 158.691, 15.585 178.644 C 13.554 186.517, 13.554 200.483, 15.585 208.356 C 18.169 218.372, 23.639 227.725, 31.459 235.500 C 35.332 239.350, 39.936 243.298, 41.692 244.272 L 44.884 246.045 42.522 241.772 C 33.328 225.148, 40.372 202.815, 57.432 194.498 C 68.167 189.265, 78.862 189.264, 89.568 194.493 C 106.197 202.616, 113.158 224.072, 104.705 241.152 L 102.353 245.905 105.393 244.202 C 107.065 243.266, 111.665 239.305, 115.616 235.399 C 127.211 223.936, 133.017 209.831, 132.985 193.201 C 132.977 188.965, 132.292 182.621, 131.463 179.103 C 126.709 158.937, 108.803 140.860, 88.356 135.585 C 80.226 133.488, 65.296 133.625, 57.500 135.870 M 382.363 167.922 C 361.511 177.391, 359.851 206.130, 379.500 217.491 C 381.700 218.763, 384.962 220.109, 386.750 220.481 L 390 221.159 390 193.579 C 390 162.540, 390.502 164.227, 382.363 167.922 M 397 193.500 L 397 221.217 399.456 220.600 C 407.422 218.601, 413.652 213.879, 417.500 206.923 C 420.131 202.166, 420.500 200.517, 420.500 193.500 C 420.500 186.483, 420.131 184.834, 417.500 180.077 C 413.652 173.121, 407.422 168.399, 399.456 166.400 L 397 165.783 397 193.500 M 63.741 199.429 C 56 202.191, 56.035 202.488, 65.170 211.671 L 73.457 220.001 81.692 211.809 C 90.838 202.711, 90.906 202.178, 83.260 199.573 C 77.673 197.669, 68.855 197.604, 63.741 199.429 M 49.570 211.253 C 44.719 218.656, 44.828 233.891, 49.775 239.955 C 51.490 242.057, 51.548 242.021, 59.751 233.763 L 68.001 225.457 59.605 217.104 L 51.209 208.752 49.570 211.253 M 87.191 217.308 L 78.999 225.543 87.329 233.830 C 96.530 242.983, 96.678 242.998, 99.487 235.038 C 101.439 229.503, 101.415 221.574, 99.427 215.740 C 96.822 208.094, 96.289 208.162, 87.191 217.308 M 65.104 239.395 L 56.752 247.791 59.253 249.430 C 65.098 253.260, 75.372 254.115, 83.260 251.427 C 90.906 248.822, 90.838 248.289, 81.692 239.191 L 73.457 230.999 65.104 239.395 " stroke="none" fill="black" fill-rule="evenodd"/>
</svg>