<svg xmlns="http://www.w3.org/2000/svg" width="403" height="324" viewBox="0 0 403 324" version="1.1">
	<path d="M 7.571 127.571 C 6.175 128.968, 6 136.372, 6 194 C 6 251.628, 6.175 259.032, 7.571 260.429 C 8.968 261.825, 16.372 262, 74 262 C 131.628 262, 139.032 261.825, 140.429 260.429 C 141.825 259.032, 142 251.628, 142 194 C 142 136.372, 141.825 128.968, 140.429 127.571 C 139.032 126.175, 131.628 126, 74 126 C 16.372 126, 8.968 126.175, 7.571 127.571 M 327.750 127.080 C 326.138 128.019, 326 130.762, 326 161.850 C 326 186.767, 326.314 195.914, 327.200 196.800 C 328.081 197.681, 336.575 198, 359.186 198 L 389.972 198 390.236 229.141 C 390.472 256.937, 390.679 260.396, 392.166 261.333 C 393.375 262.096, 394.267 262.023, 395.416 261.070 C 396.804 259.918, 397 255.585, 397 226.078 C 397 201.217, 396.686 192.086, 395.800 191.200 C 394.919 190.319, 386.422 190, 363.800 190 L 333 190 333 159.200 C 333 125.561, 332.770 124.156, 327.750 127.080 M 14 194 L 14 254 74 254 L 134 254 134 194 L 134 134 74 134 L 14 134 14 194 M 167.200 191.200 C 166.314 192.086, 166 201.237, 166 226.165 C 166 259.255, 166.041 259.952, 168.064 261.034 C 172.351 263.329, 172.933 261.210, 173.227 242.230 L 173.500 224.668 177.186 230.223 C 200.823 265.839, 249.891 270.988, 280.072 241.019 C 284.237 236.884, 289.065 231.025, 290.800 228 L 293.956 222.500 293.978 241.215 C 293.999 259.088, 294.093 259.979, 296.064 261.034 C 297.596 261.854, 298.498 261.832, 299.564 260.947 C 301.782 259.106, 301.693 192.820, 299.470 190.975 C 298.339 190.037, 297.337 189.981, 295.622 190.762 C 293.626 191.672, 293.213 192.796, 292.650 198.855 C 290.521 221.763, 274.410 242.408, 252.723 250.019 C 244.189 253.014, 228.864 253.756, 219.757 251.616 C 194.708 245.731, 174 221.403, 174 197.861 C 174 191.445, 170.441 187.959, 167.200 191.200 " stroke="none" fill="black" fill-rule="evenodd"/>
</svg>