<svg xmlns="http://www.w3.org/2000/svg" width="532" height="324" viewBox="0 0 532 324" version="1.1">
	<path d="M 7.571 127.571 C 6.175 128.968, 6 136.372, 6 194 C 6 251.628, 6.175 259.032, 7.571 260.429 C 8.968 261.825, 16.372 262, 74 262 C 131.628 262, 139.032 261.825, 140.429 260.429 C 141.825 259.032, 142 251.628, 142 194 C 142 136.372, 141.825 128.968, 140.429 127.571 C 139.564 126.707, 138.471 126, 138 126 C 137.529 126, 136.436 126.707, 135.571 127.571 C 134.176 128.966, 134 136.152, 134 191.571 L 134 254 74 254 L 14 254 14 191.571 C 14 136.152, 13.824 128.966, 12.429 127.571 C 11.564 126.707, 10.471 126, 10 126 C 9.529 126, 8.436 126.707, 7.571 127.571 M 231.200 127.200 C 229.465 128.935, 229.465 259.065, 231.200 260.800 C 232.109 261.709, 248.229 262, 297.629 262 C 355.594 262, 363.032 261.825, 364.429 260.429 C 365.825 259.032, 366 251.628, 366 194 C 366 136.372, 365.825 128.968, 364.429 127.571 C 363.032 126.175, 355.594 126, 297.629 126 C 248.229 126, 232.109 126.291, 231.200 127.200 M 445.500 127.418 C 417.871 132.792, 397.188 153.045, 391.589 180.208 C 389.316 191.232, 389.472 195.647, 392.183 197.098 C 395.396 198.817, 398 195.236, 398 189.099 C 398 170.330, 412.451 148.906, 431.054 140.096 C 435.699 137.896, 441.300 135.800, 443.500 135.439 L 447.500 134.782 434.750 147.655 C 427.738 154.735, 422 161.293, 422 162.229 C 422 163.164, 422.950 164.438, 424.111 165.059 C 426.485 166.330, 426.530 166.293, 444.250 149.034 L 454 139.538 454 199.734 C 454 259.528, 454.014 259.937, 456.064 261.034 C 461.056 263.706, 461 264.398, 461 199.878 C 461 166.945, 461.345 140, 461.766 140 C 462.187 140, 467.924 145.430, 474.516 152.066 C 481.107 158.703, 487.316 164.584, 488.314 165.136 C 490.444 166.314, 493 164.680, 493 162.141 C 493 161.254, 487.269 154.784, 480.264 147.764 C 473.260 140.744, 468.239 135, 469.108 135 C 471.864 135, 481.980 138.842, 487.422 141.955 C 503.754 151.300, 515.031 169.240, 516.656 188.463 C 517.170 194.542, 517.690 196.299, 519.214 197.115 C 526.989 201.276, 525.055 178.466, 516.196 161.516 C 510.915 151.410, 498.917 139.609, 488.500 134.271 C 474.732 127.217, 459.233 124.747, 445.500 127.418 M 238 194 L 238 254 298 254 L 358 254 358 194 L 358 134 298 134 L 238 134 238 194 M 66.223 159.062 C 56.045 161.068, 45.996 169.411, 41.216 179.825 C 37.512 187.894, 37.512 199.106, 41.216 207.175 C 52.136 230.966, 82.306 235.913, 99.545 216.739 C 117.233 197.066, 107.102 165.470, 81.147 159.360 C 74.857 157.880, 72.464 157.832, 66.223 159.062 M 167.571 159.571 C 165.215 161.927, 165.215 210.073, 167.571 212.429 C 168.436 213.293, 169.529 214, 170 214 C 170.471 214, 171.564 213.293, 172.429 212.429 C 174.785 210.073, 174.785 161.927, 172.429 159.571 C 171.564 158.707, 170.471 158, 170 158 C 169.529 158, 168.436 158.707, 167.571 159.571 M 199.571 159.571 C 197.215 161.927, 197.215 210.073, 199.571 212.429 C 200.436 213.293, 201.529 214, 202 214 C 202.471 214, 203.564 213.293, 204.429 212.429 C 206.785 210.073, 206.785 161.927, 204.429 159.571 C 203.564 158.707, 202.471 158, 202 158 C 201.529 158, 200.436 158.707, 199.571 159.571 M 290.355 159.039 C 279.925 161.104, 270.129 169.113, 265.329 179.500 C 263.026 184.484, 262.558 186.854, 262.565 193.500 C 262.577 203.515, 265.873 211.488, 272.824 218.311 C 282.875 228.178, 297.310 231.125, 310.493 226.003 C 318.707 222.811, 326.874 214.625, 329.893 206.557 C 337.535 186.130, 326.084 164.288, 305.147 159.360 C 298.883 157.886, 296.450 157.833, 290.355 159.039 M 63.054 167.677 C 57.005 169.881, 49.763 177.312, 47.667 183.463 C 40.908 203.299, 54.905 222.186, 75.341 220.805 C 85.528 220.117, 94.070 214.468, 98.533 205.467 C 101.287 199.912, 101.287 187.088, 98.533 181.533 C 96.006 176.436, 90.507 170.954, 85.467 168.509 C 80.153 165.930, 68.984 165.516, 63.054 167.677 M 287.385 167.617 C 285.122 168.420, 281.450 170.635, 279.224 172.541 C 266.777 183.195, 266.768 203.798, 279.205 214.443 C 291.304 224.800, 311.137 222.447, 319.736 209.636 C 329.558 195.004, 325.098 176.702, 309.854 169.085 C 302.817 165.568, 294.664 165.036, 287.385 167.617 M 71.571 191.571 C 70.707 192.436, 70 193.529, 70 194 C 70 194.471, 70.707 195.564, 71.571 196.429 C 72.436 197.293, 73.529 198, 74 198 C 74.471 198, 75.564 197.293, 76.429 196.429 C 77.293 195.564, 78 194.471, 78 194 C 78 193.529, 77.293 192.436, 76.429 191.571 C 75.564 190.707, 74.471 190, 74 190 C 73.529 190, 72.436 190.707, 71.571 191.571 M 167.571 222.571 C 166.707 223.436, 166 224.529, 166 225 C 166 225.471, 166.707 226.564, 167.571 227.429 C 168.436 228.293, 169.529 229, 170 229 C 170.471 229, 171.564 228.293, 172.429 227.429 C 173.293 226.564, 174 225.471, 174 225 C 174 224.529, 173.293 223.436, 172.429 222.571 C 171.564 221.707, 170.471 221, 170 221 C 169.529 221, 168.436 221.707, 167.571 222.571 M 199.571 222.571 C 198.707 223.436, 198 224.529, 198 225 C 198 225.471, 198.707 226.564, 199.571 227.429 C 200.436 228.293, 201.529 229, 202 229 C 202.471 229, 203.564 228.293, 204.429 227.429 C 205.293 226.564, 206 225.471, 206 225 C 206 224.529, 205.293 223.436, 204.429 222.571 C 203.564 221.707, 202.471 221, 202 221 C 201.529 221, 200.436 221.707, 199.571 222.571 " stroke="none" fill="black" fill-rule="evenodd"/>
</svg>