<svg xmlns="http://www.w3.org/2000/svg" width="276" height="324" viewBox="0 0 276 324" version="1.1">
	<path d="M 7.200 127.200 C 5.465 128.935, 5.465 259.065, 7.200 260.800 C 8.935 262.535, 139.065 262.535, 140.800 260.800 C 141.681 259.919, 142 251.422, 142 228.800 L 142 198 167.202 198 L 192.405 198 179.202 211.333 C 171.941 218.666, 166 225.159, 166 225.761 C 166 227.187, 168.825 230, 170.257 230 C 172.006 230, 206 195.761, 206 194 C 206 192.239, 172.006 158, 170.257 158 C 168.825 158, 166 160.813, 166 162.239 C 166 162.841, 171.941 169.334, 179.202 176.667 L 192.405 190 167.202 190 L 142 190 142 159.200 C 142 136.578, 141.681 128.081, 140.800 127.200 C 139.065 125.465, 8.935 125.465, 7.200 127.200 M 14 194 L 14 254 74 254 L 134 254 134 226 L 134 198 103.571 198 C 77.242 198, 72.931 197.788, 71.571 196.429 C 70.707 195.564, 70 194.471, 70 194 C 70 193.529, 70.707 192.436, 71.571 191.571 C 72.931 190.212, 77.242 190, 103.571 190 L 134 190 134 162 L 134 134 74 134 L 14 134 14 194 M 231.571 159.571 C 229.215 161.927, 229.215 210.073, 231.571 212.429 C 232.436 213.293, 233.529 214, 234 214 C 234.471 214, 235.564 213.293, 236.429 212.429 C 238.785 210.073, 238.785 161.927, 236.429 159.571 C 235.564 158.707, 234.471 158, 234 158 C 233.529 158, 232.436 158.707, 231.571 159.571 M 231.571 222.571 C 230.707 223.436, 230 224.529, 230 225 C 230 225.471, 230.707 226.564, 231.571 227.429 C 232.436 228.293, 233.529 229, 234 229 C 234.471 229, 235.564 228.293, 236.429 227.429 C 237.293 226.564, 238 225.471, 238 225 C 238 224.529, 237.293 223.436, 236.429 222.571 C 235.564 221.707, 234.471 221, 234 221 C 233.529 221, 232.436 221.707, 231.571 222.571 " stroke="none" fill="black" fill-rule="evenodd"/>
</svg>