<svg xmlns="http://www.w3.org/2000/svg" width="468" height="324" viewBox="0 0 468 324" version="1.1">
	<path d="M 39.571 127.571 C 38.176 128.966, 38 136.152, 38 191.571 L 38 254 23.571 254 C 11.788 254, 8.855 254.288, 7.571 255.571 C 5.598 257.545, 5.598 258.455, 7.571 260.429 C 8.936 261.793, 13.463 262, 42 262 C 70.537 262, 75.064 261.793, 76.429 260.429 C 77.293 259.564, 78 258.471, 78 258 C 78 257.529, 77.293 256.436, 76.429 255.571 C 75.145 254.288, 72.212 254, 60.429 254 L 46 254 46 191.571 C 46 136.152, 45.824 128.966, 44.429 127.571 C 43.564 126.707, 42.471 126, 42 126 C 41.529 126, 40.436 126.707, 39.571 127.571 M 103.571 127.571 C 102.175 128.968, 102 136.372, 102 194 C 102 251.628, 102.175 259.032, 103.571 260.429 C 104.968 261.825, 112.372 262, 170 262 C 227.628 262, 235.032 261.825, 236.429 260.429 C 237.825 259.032, 238 251.628, 238 194 C 238 136.372, 237.825 128.968, 236.429 127.571 C 235.564 126.707, 234.471 126, 234 126 C 233.529 126, 232.436 126.707, 231.571 127.571 C 230.176 128.966, 230 136.152, 230 191.571 L 230 254 170 254 L 110 254 110 191.571 C 110 136.152, 109.824 128.966, 108.429 127.571 C 107.564 126.707, 106.471 126, 106 126 C 105.529 126, 104.436 126.707, 103.571 127.571 M 317.500 127.401 C 302.645 130.266, 291.144 136.774, 280.168 148.528 C 268.277 161.260, 262.624 175.751, 262.624 193.500 C 262.624 211.249, 268.277 225.740, 280.168 238.472 C 291.905 251.040, 302.823 256.882, 320.329 259.959 C 330.517 261.749, 331.176 261.710, 345.940 258.420 C 360.447 255.188, 376.743 243.628, 385.599 230.285 C 390.535 222.849, 394.872 211.520, 395.656 204.014 L 396.285 198 422.345 198 L 448.405 198 435.202 211.333 C 427.941 218.666, 422 225.159, 422 225.761 C 422 227.187, 424.825 230, 426.257 230 C 428.006 230, 462 195.761, 462 194 C 462 192.239, 428.006 158, 426.257 158 C 424.825 158, 422 160.813, 422 162.239 C 422 162.841, 427.941 169.334, 435.202 176.667 L 448.405 190 422.770 190 C 393.910 190, 396.759 190.888, 395.495 181.500 C 392.359 158.197, 370.738 134.824, 346.500 128.533 C 337.877 126.295, 325.699 125.820, 317.500 127.401 M 314.645 135.584 C 294.671 140.419, 276.279 158.986, 271.537 179.103 C 268.241 193.087, 270.182 208.814, 276.757 221.397 C 282.237 231.884, 292.424 241.711, 303.101 246.809 C 310.848 250.508, 319.279 253, 324.049 253 C 325.962 253, 326 251.833, 326 193.500 L 326 134 323.250 134.083 C 321.738 134.129, 317.865 134.804, 314.645 135.584 M 334 162 L 334 190 361.500 190 C 392.778 190, 390.002 190.967, 387.910 180.799 C 383.595 159.824, 364.761 140.456, 343.897 135.537 C 332.926 132.951, 334 130.080, 334 162 M 162.223 159.012 C 151.933 161.160, 141.981 169.443, 137.216 179.825 C 133.512 187.894, 133.512 199.106, 137.216 207.175 C 140.462 214.246, 146.459 220.848, 152.712 224.232 C 173.892 235.696, 199.341 223.376, 204.013 199.396 C 208.589 175.912, 185.969 154.054, 162.223 159.012 M 159.054 167.728 C 153.018 169.859, 145.781 177.260, 143.667 183.463 C 139.964 194.333, 142.320 205.225, 150.048 212.952 C 160.957 223.862, 178.043 223.862, 188.952 212.952 C 196.640 205.265, 199.036 194.330, 195.382 183.608 C 193.237 177.311, 185.689 169.763, 179.392 167.618 C 173.504 165.612, 164.916 165.658, 159.054 167.728 M 167.571 191.571 C 166.707 192.436, 166 193.529, 166 194 C 166 194.471, 166.707 195.564, 167.571 196.429 C 168.436 197.293, 169.529 198, 170 198 C 170.471 198, 171.564 197.293, 172.429 196.429 C 173.293 195.564, 174 194.471, 174 194 C 174 193.529, 173.293 192.436, 172.429 191.571 C 171.564 190.707, 170.471 190, 170 190 C 169.529 190, 168.436 190.707, 167.571 191.571 M 334 225.500 C 334 248.863, 334.218 253, 335.451 253 C 339.737 253, 348.473 250.355, 355.899 246.809 C 367.586 241.229, 377.229 231.586, 382.809 219.899 C 386.355 212.473, 389 203.737, 389 199.451 C 389 198.218, 384.863 198, 361.500 198 L 334 198 334 225.500 " stroke="none" fill="black" fill-rule="evenodd"/>
</svg>