<svg xmlns="http://www.w3.org/2000/svg" width="372" height="324" viewBox="0 0 372 324" version="1.1">
	<path d="M 71.571 127.571 C 70.214 128.929, 70 133.152, 70 158.575 L 70 188.006 40.039 173.020 C 23.561 164.777, 9.420 158.285, 8.616 158.594 C 6.870 159.264, 5.875 161.511, 6.549 163.266 C 6.816 163.962, 21.202 171.611, 38.517 180.264 L 70 195.996 70 227.426 C 70 254.666, 70.210 259.067, 71.571 260.429 C 72.968 261.825, 80.372 262, 138 262 C 195.628 262, 203.032 261.825, 204.429 260.429 C 205.786 259.071, 206 254.848, 206 229.425 L 206 199.994 235.961 214.980 C 252.439 223.223, 266.580 229.715, 267.384 229.406 C 269.130 228.736, 270.125 226.489, 269.451 224.734 C 269.184 224.038, 254.798 216.389, 237.483 207.736 L 206 192.004 206 160.574 C 206 133.334, 205.790 128.933, 204.429 127.571 C 203.032 126.175, 195.628 126, 138 126 C 80.372 126, 72.968 126.175, 71.571 127.571 M 311.213 143.315 C 301.746 152.838, 294 161.131, 294 161.743 C 294 163.175, 296.813 166, 298.239 166 C 298.841 166, 305.334 160.059, 312.667 152.798 L 326 139.595 326 149.170 L 326 158.744 321.908 159.399 C 313.189 160.793, 303.413 168.112, 298.781 176.712 C 291.455 190.313, 293.475 205.965, 304.033 217.420 C 308.674 222.455, 316.029 226.661, 321.807 227.585 L 326 228.256 326 243.556 C 326 256.133, 326.280 259.137, 327.571 260.429 C 328.436 261.293, 329.529 262, 330 262 C 330.471 262, 331.564 261.293, 332.429 260.429 C 333.720 259.137, 334 256.131, 334 243.540 L 334 228.223 337.750 227.527 C 343.247 226.508, 350.532 222.232, 354.967 217.420 C 365.525 205.965, 367.545 190.313, 360.219 176.712 C 355.726 168.368, 346.185 161.063, 337.703 159.472 L 334 158.777 334 149.186 L 334 139.595 347.333 152.798 C 354.666 160.059, 361.159 166, 361.761 166 C 363.187 166, 366 163.175, 366 161.743 C 366 159.994, 331.761 126, 330 126 C 329.134 126, 320.680 133.792, 311.213 143.315 M 78 147.500 C 78 154.925, 78.149 161, 78.332 161 C 78.514 161, 80.081 158.812, 81.814 156.138 C 85.411 150.586, 97.486 138.835, 101.981 136.510 C 103.642 135.651, 105 134.735, 105 134.474 C 105 134.213, 98.925 134, 91.500 134 L 78 134 78 147.500 M 122.645 135.584 C 102.562 140.445, 84.305 158.877, 79.537 179.103 C 78.708 182.621, 78.023 186.961, 78.015 188.747 L 78 191.993 105.985 205.993 L 133.971 219.992 134.235 189.855 C 134.464 163.785, 134.711 159.584, 136.065 158.730 C 137.256 157.979, 144.629 161.256, 166.914 172.440 C 183.020 180.523, 196.400 186.933, 196.648 186.686 C 196.895 186.438, 196.393 183.196, 195.532 179.481 C 190.738 158.812, 172.435 140.379, 151.897 135.537 C 143.998 133.676, 130.439 133.697, 122.645 135.584 M 170 134.332 C 170 134.514, 172.137 136.059, 174.750 137.765 C 180.880 141.769, 189.885 151.019, 194.426 157.977 L 198 163.454 198 148.727 L 198 134 184 134 C 176.300 134, 170 134.149, 170 134.332 M 319.054 167.728 C 313.018 169.859, 305.781 177.260, 303.667 183.463 C 298.058 199.925, 306.847 216.571, 323.250 220.550 L 326 221.217 326 193.608 C 326 172.146, 325.722 166.018, 324.750 166.079 C 324.063 166.122, 321.499 166.864, 319.054 167.728 M 334 193.500 L 334 221.135 336.250 220.475 C 349.167 216.686, 357 206.503, 357 193.500 C 357 180.497, 349.167 170.314, 336.250 166.525 L 334 165.865 334 193.500 M 141.765 198.151 C 141.536 224.207, 141.288 228.416, 139.936 229.269 C 138.746 230.020, 131.153 226.633, 108.186 215.110 C 91.584 206.780, 78.007 200.310, 78.015 200.732 C 78.023 201.154, 78.708 204.379, 79.537 207.897 C 84.338 228.261, 102.739 246.662, 123.103 251.463 C 131.282 253.390, 143.718 253.390, 151.897 251.463 C 172.261 246.662, 190.662 228.261, 195.463 207.897 C 198.486 195.069, 200.762 197.363, 169.515 181.751 L 142.029 168.019 141.765 198.151 M 195.052 228.121 C 191.645 234.183, 180.644 245.423, 173.635 250.002 L 167.517 254 182.758 254 L 198 254 198 239 C 198 230.750, 197.858 224, 197.684 224 C 197.510 224, 196.326 225.855, 195.052 228.121 M 78 240 L 78 254 92.727 254 L 107.454 254 101.977 250.426 C 95.019 245.885, 85.769 236.880, 81.765 230.750 C 80.059 228.137, 78.514 226, 78.332 226 C 78.149 226, 78 232.300, 78 240 " stroke="none" fill="black" fill-rule="evenodd"/>
</svg>