<svg xmlns="http://www.w3.org/2000/svg" width="436" height="324" viewBox="0 0 436 324" version="1.1">
	<path d="M 127.870 127.071 C 120.318 128.180, 110.683 131.493, 104.100 135.243 C 97.093 139.234, 86.087 149.656, 81.363 156.773 C 76.621 163.917, 72.230 175.190, 71.383 182.397 C 71.021 185.479, 70.559 188, 70.356 188 C 70.153 188, 56.508 181.257, 40.033 173.016 C 23.558 164.775, 9.420 158.285, 8.616 158.594 C 6.867 159.265, 5.875 161.512, 6.551 163.273 C 6.820 163.973, 21.018 171.510, 38.104 180.023 C 55.189 188.535, 69.518 196.175, 69.947 197 C 70.376 197.825, 71.022 201.134, 71.384 204.353 C 72.215 211.749, 76.539 222.959, 81.363 230.227 C 86.087 237.344, 97.093 247.766, 104.100 251.757 C 120.504 261.101, 140.961 263.077, 158.863 257.046 C 174.473 251.788, 189.724 238.489, 196.861 223.913 C 200.899 215.666, 204 205.837, 204 201.287 C 204 199.180, 206.530 200.259, 235.090 214.545 C 260.430 227.220, 266.449 229.872, 267.638 228.886 C 271.688 225.524, 269.458 223.983, 236.500 207.365 L 204.500 191.229 203.801 185.026 C 200.516 155.875, 176.239 131.350, 146.398 127.037 C 138.550 125.902, 135.791 125.907, 127.870 127.071 M 121.500 135.870 C 101.340 141.673, 84.720 158.620, 79.487 178.711 C 78.669 181.851, 78 186.124, 78 188.207 L 78 191.993 106 206 L 134 220.007 134 190.126 C 134 164.033, 134.202 160.078, 135.590 158.925 C 136.953 157.794, 141.386 159.707, 166.703 172.357 C 182.940 180.470, 196.436 186.898, 196.693 186.641 C 197.675 185.658, 193.822 173.178, 190.335 166.046 C 183.455 151.979, 168.070 139.639, 152.356 135.585 C 144.226 133.488, 129.296 133.625, 121.500 135.870 M 142 197.431 C 142 222.849, 141.786 227.071, 140.429 228.429 C 139.564 229.293, 138.633 230, 138.360 230 C 138.086 230, 124.349 223.219, 107.832 214.932 L 77.801 199.864 78.498 204.182 C 79.416 209.868, 82.985 218.719, 87.145 225.629 C 94.072 237.134, 108.823 247.849, 122.644 251.415 C 130.367 253.407, 143.556 253.429, 151.897 251.463 C 172.501 246.606, 190.050 228.922, 195.485 207.540 C 198.610 195.247, 200.719 197.341, 169.500 181.744 L 142 168.005 142 197.431 M 295.579 255.564 C 294.710 256.432, 294 257.529, 294 258 C 294 258.471, 294.710 259.568, 295.579 260.436 C 296.990 261.847, 304.058 261.987, 362.220 261.757 C 422.934 261.517, 427.356 261.383, 428.386 259.750 C 429.191 258.474, 429.191 257.526, 428.386 256.250 C 427.356 254.617, 422.934 254.483, 362.220 254.243 C 304.058 254.013, 296.990 254.153, 295.579 255.564 " stroke="none" fill="black" fill-rule="evenodd"/>
</svg>