<svg xmlns="http://www.w3.org/2000/svg" width="276" height="324" viewBox="0 0 276 324" version="1.1">
	<path d="M 63.102 127.108 C 37.633 130.963, 15.059 151.541, 8.374 177 C 6.113 185.610, 6.113 201.390, 8.374 210 C 12.447 225.511, 23.726 241.091, 37.307 249.965 L 43.483 254 26.313 254 C 12.037 254, 8.878 254.265, 7.571 255.571 C 5.598 257.545, 5.598 258.455, 7.571 260.429 C 8.968 261.825, 16.372 262, 74 262 C 131.628 262, 139.032 261.825, 140.429 260.429 C 142.402 258.455, 142.402 257.545, 140.429 255.571 C 139.119 254.261, 135.917 254, 121.187 254 L 103.517 254 109.693 249.965 C 118.532 244.189, 128.968 232.618, 133.287 223.806 C 138.440 213.290, 140.304 205.238, 140.304 193.500 C 140.304 174.166, 134.551 160.473, 120.539 146.461 C 110.823 136.745, 102.203 131.569, 90.831 128.621 C 83.080 126.612, 70.806 125.942, 63.102 127.108 M 58.645 135.584 C 38.671 140.419, 20.279 158.986, 15.537 179.103 C 13.610 187.282, 13.610 199.718, 15.537 207.897 C 20.338 228.261, 38.739 246.662, 59.103 251.463 C 79.742 256.328, 100.600 250.431, 115.516 235.516 C 134.200 216.831, 138.470 189.002, 126.243 165.603 C 118.839 151.435, 103.149 139.133, 87.897 135.537 C 79.998 133.676, 66.439 133.697, 58.645 135.584 M 167.571 191.571 C 165.243 193.900, 165.243 226.100, 167.571 228.429 C 168.801 229.658, 171.433 230, 179.671 230 L 190.200 230 193.600 233.400 C 196.478 236.278, 197 237.504, 197 241.384 C 197 250.249, 190.959 253.927, 176.321 253.976 C 169.433 253.999, 166 255.338, 166 258 C 166 262.681, 182.013 263.738, 191.223 259.665 C 200.343 255.631, 206.106 246.484, 204.452 238.666 C 202.130 227.690, 193.870 222, 180.257 222 L 174 222 174 210 L 174 198 188.429 198 C 200.212 198, 203.145 197.712, 204.429 196.429 C 205.293 195.564, 206 194.471, 206 194 C 206 193.529, 205.293 192.436, 204.429 191.571 C 203.124 190.267, 199.991 190, 186 190 C 172.009 190, 168.876 190.267, 167.571 191.571 M 231.571 223.571 C 230.382 224.761, 230.004 227.250, 230.015 233.821 C 230.024 238.595, 230.457 243.175, 230.978 243.999 C 231.590 244.968, 234.154 245.676, 238.213 245.999 C 244.184 246.475, 244.516 246.638, 244.816 249.250 C 245.069 251.443, 244.601 252.201, 242.501 253 C 241.054 253.550, 238.356 254, 236.506 254 C 233.356 254, 230 256.063, 230 258 C 230 260.268, 233.430 262, 237.921 262 C 243.979 262, 250.242 257.826, 251.950 252.651 C 254.143 246.007, 248.031 238.014, 240.750 238.004 C 238.209 238, 238 237.696, 238 234 L 238 230 244.429 230 C 248.939 230, 251.326 229.531, 252.429 228.429 C 254.402 226.455, 254.402 225.545, 252.429 223.571 C 251.237 222.379, 248.719 222, 242 222 C 235.281 222, 232.763 222.379, 231.571 223.571 " stroke="none" fill="black" fill-rule="evenodd"/>
</svg>