<svg xmlns="http://www.w3.org/2000/svg" width="276" height="324" viewBox="0 0 276 324" version="1.1">
	<path d="M 63.870 127.014 C 48.636 129.407, 37.616 135.194, 25.974 146.916 C 12.475 160.507, 6.696 174.473, 6.696 193.500 C 6.696 205.238, 8.560 213.290, 13.713 223.806 C 18.032 232.618, 28.468 244.189, 37.307 249.965 L 43.483 254 26.313 254 C 12.037 254, 8.878 254.265, 7.571 255.571 C 5.598 257.545, 5.598 258.455, 7.571 260.429 C 8.968 261.825, 16.372 262, 74 262 C 131.628 262, 139.032 261.825, 140.429 260.429 C 142.402 258.455, 142.402 257.545, 140.429 255.571 C 139.119 254.261, 135.917 254, 121.187 254 L 103.517 254 109.693 249.965 C 118.532 244.189, 128.968 232.618, 133.287 223.806 C 138.440 213.290, 140.304 205.238, 140.304 193.500 C 140.304 174.166, 134.551 160.473, 120.539 146.461 C 110.721 136.644, 102.174 131.566, 90.500 128.618 C 82.592 126.621, 70.868 125.914, 63.870 127.014 M 58.645 135.584 C 38.562 140.445, 20.305 158.877, 15.537 179.103 C 13.610 187.282, 13.610 199.718, 15.537 207.897 C 20.350 228.315, 38.685 246.650, 59.103 251.463 C 79.742 256.328, 100.600 250.431, 115.516 235.516 C 134.204 216.827, 138.475 188.970, 126.233 165.603 C 118.739 151.298, 103.261 139.159, 87.897 135.537 C 79.998 133.676, 66.439 133.697, 58.645 135.584 M 180.648 190.983 C 175.929 192.470, 171.243 196.229, 168.803 200.483 C 166.666 204.211, 166.477 205.837, 166.174 223.111 C 165.808 244.003, 166.504 248.226, 171.191 253.564 C 178.670 262.083, 189.381 262.995, 197.564 255.809 C 206.630 247.850, 207.060 236.796, 198.632 228.368 C 192.213 221.950, 184.570 220.650, 176.750 224.646 L 174 226.051 174 215.426 L 174 204.800 177.400 201.400 C 180.302 198.498, 181.488 198, 185.500 198 C 189.512 198, 190.698 198.498, 193.600 201.400 C 195.970 203.770, 197 205.718, 197 207.829 C 197 210.700, 199.139 214, 201 214 C 203.415 214, 205.145 210.586, 204.497 207.096 C 202.393 195.766, 190.650 187.832, 180.648 190.983 M 231.571 223.571 C 230.382 224.761, 230.004 227.250, 230.015 233.821 C 230.024 238.595, 230.457 243.175, 230.978 243.999 C 231.590 244.968, 234.154 245.676, 238.213 245.999 C 244.184 246.475, 244.516 246.638, 244.816 249.250 C 245.069 251.443, 244.601 252.201, 242.501 253 C 241.054 253.550, 238.356 254, 236.506 254 C 233.356 254, 230 256.063, 230 258 C 230 260.268, 233.430 262, 237.921 262 C 243.979 262, 250.242 257.826, 251.950 252.651 C 254.143 246.007, 248.031 238.014, 240.750 238.004 C 238.209 238, 238 237.696, 238 234 L 238 230 244.429 230 C 248.939 230, 251.326 229.531, 252.429 228.429 C 254.402 226.455, 254.402 225.545, 252.429 223.571 C 251.237 222.379, 248.719 222, 242 222 C 235.281 222, 232.763 222.379, 231.571 223.571 M 177.400 233.400 C 174.498 236.302, 174 237.488, 174 241.500 C 174 245.512, 174.498 246.698, 177.400 249.600 C 180.302 252.502, 181.488 253, 185.500 253 C 189.512 253, 190.698 252.502, 193.600 249.600 C 196.502 246.698, 197 245.512, 197 241.500 C 197 237.488, 196.502 236.302, 193.600 233.400 C 190.698 230.498, 189.512 230, 185.500 230 C 181.488 230, 180.302 230.498, 177.400 233.400 " stroke="none" fill="black" fill-rule="evenodd"/>
</svg>