<svg xmlns="http://www.w3.org/2000/svg" width="340" height="324" viewBox="0 0 340 324" version="1.1">
	<path d="M 162.344 62.988 C 152.010 65.166, 141.930 73.366, 137.417 83.266 C 133.383 92.112, 133.350 102.889, 137.329 111.500 C 138.854 114.800, 141.972 119.412, 144.259 121.750 L 148.416 126 126.780 126 C 108.443 126, 104.903 126.240, 103.571 127.571 C 101.598 129.545, 101.598 130.455, 103.571 132.429 C 104.931 133.788, 109.242 134, 135.571 134 L 166 134 166 194 L 166 254 151.571 254 C 139.788 254, 136.855 254.288, 135.571 255.571 C 133.595 257.548, 133.598 258.455, 135.585 260.442 C 136.978 261.835, 141.159 261.995, 170.226 261.763 C 200.452 261.523, 203.377 261.350, 204.386 259.750 C 205.190 258.475, 205.191 257.525, 204.387 256.250 C 203.433 254.736, 201.314 254.463, 188.643 254.223 L 174 253.947 174 193.988 L 174 134.029 204.641 133.764 C 232.566 133.523, 235.381 133.345, 236.386 131.750 C 237.191 130.474, 237.191 129.526, 236.387 128.250 C 235.399 126.683, 232.962 126.472, 213.067 126.231 L 190.849 125.961 195.371 120.932 C 204.036 111.295, 206.591 97, 201.893 84.443 C 196.317 69.541, 178.111 59.664, 162.344 62.988 M 159.463 71.591 C 153.971 73.541, 148.552 78.205, 145.249 83.824 C 142.800 87.989, 142.500 89.483, 142.500 97.500 C 142.500 105.502, 142.803 107.015, 145.230 111.145 C 149.385 118.213, 155.168 122.498, 163.305 124.541 L 166 125.217 166 97.608 C 166 76.146, 165.722 70.018, 164.750 70.079 C 164.063 70.122, 161.683 70.803, 159.463 71.591 M 174 97.567 L 174 125.135 176.250 124.434 C 184.339 121.914, 189.775 117.656, 193.500 110.923 C 196.131 106.166, 196.500 104.517, 196.500 97.500 C 196.500 90.512, 196.127 88.827, 193.551 84.176 C 190.179 78.090, 185.063 73.639, 178.965 71.488 C 176.646 70.669, 174.580 70, 174.374 70 C 174.168 70, 174 82.405, 174 97.567 M 295.285 159.230 C 276.978 177.506, 262 193.166, 262 194.030 C 262 197.785, 263.648 198, 292.444 198 L 320.487 198 291.244 227.256 C 275.160 243.347, 262 257.281, 262 258.221 C 262 259.752, 265.641 262.655, 266.528 261.831 C 273.086 255.740, 334 194.397, 334 193.884 C 334 193.476, 333.293 192.436, 332.429 191.571 C 331.074 190.217, 326.963 190, 302.685 190 L 274.513 190 303.756 160.744 C 319.840 144.653, 333 130.793, 333 129.944 C 333 128.191, 331.103 126, 329.585 126 C 329.026 126, 313.591 140.953, 295.285 159.230 M 7.571 191.571 C 6.707 192.436, 6 193.640, 6 194.249 C 6 194.857, 12.844 202.250, 21.208 210.677 L 36.416 226 21.208 241.323 C 12.844 249.750, 6 257.143, 6 257.751 C 6 259.181, 8.819 262, 10.249 262 C 10.857 262, 18.250 255.156, 26.677 246.792 L 42 231.584 57.323 246.792 C 65.750 255.156, 73.143 262, 73.751 262 C 75.181 262, 78 259.181, 78 257.751 C 78 257.143, 71.156 249.750, 62.792 241.323 L 47.584 226 62.792 210.677 C 71.156 202.250, 78 194.857, 78 194.249 C 78 192.819, 75.181 190, 73.751 190 C 73.143 190, 65.750 196.844, 57.323 205.208 L 42 220.416 26.677 205.208 C 18.250 196.844, 10.857 190, 10.249 190 C 9.640 190, 8.436 190.707, 7.571 191.571 " stroke="none" fill="black" fill-rule="evenodd"/>
</svg>