<svg xmlns="http://www.w3.org/2000/svg" width="308" height="324" viewBox="0 0 308 324" version="1.1">
	<path d="M 71.550 62.918 C 67.869 68.875, 54.190 98.331, 54.604 99.410 C 55.269 101.144, 57.524 102.120, 59.295 101.440 C 60.007 101.167, 63.480 95.106, 67.014 87.972 C 70.547 80.837, 73.691 75, 74 75 C 74.309 75, 77.453 80.837, 80.986 87.972 C 84.520 95.106, 88.050 101.189, 88.832 101.489 C 90.716 102.212, 93 100.227, 93 97.866 C 93 95.626, 77.264 63.831, 75.628 62.765 C 74.071 61.751, 72.229 61.820, 71.550 62.918 M 167.200 127.200 C 165.465 128.935, 165.465 259.065, 167.200 260.800 C 168.935 262.535, 298.065 262.535, 299.800 260.800 C 301.535 259.065, 301.535 128.935, 299.800 127.200 C 298.065 125.465, 168.935 125.465, 167.200 127.200 M 173 194 L 173 254 233.500 254 L 294 254 294 194 L 294 134 233.500 134 L 173 134 173 194 M 226.355 159.039 C 216.144 161.060, 206.058 169.072, 201.244 178.987 C 198.948 183.715, 198.567 185.781, 198.567 193.500 C 198.567 201.219, 198.948 203.285, 201.244 208.013 C 204.869 215.478, 211.195 221.667, 218.942 225.326 C 232.984 231.958, 251.197 227.609, 260.508 215.400 C 276.097 194.962, 266.252 165.989, 241.530 159.550 C 235.070 157.867, 232.684 157.787, 226.355 159.039 M 221.500 168.387 C 200.908 178.139, 200.314 207.797, 220.500 218.246 C 226.710 221.460, 237.254 221.807, 243.754 219.010 C 253.560 214.792, 261 203.787, 261 193.500 C 261 183.480, 253.989 172.797, 244.500 168.358 C 237.594 165.128, 228.358 165.140, 221.500 168.387 M 39.571 223.571 C 38.707 224.436, 38 225.636, 38 226.239 C 38 226.841, 43.941 233.334, 51.202 240.667 L 64.405 254 36.774 254 C 12.988 254, 8.924 254.219, 7.571 255.571 C 5.596 257.546, 5.598 258.455, 7.579 260.436 C 8.990 261.847, 16.058 261.987, 74.220 261.757 C 134.934 261.517, 139.356 261.383, 140.386 259.750 C 141.191 258.474, 141.191 257.526, 140.387 256.250 C 139.393 254.673, 136.555 254.451, 111.658 254 L 84.032 253.500 96.516 240.337 C 103.382 233.098, 109 226.551, 109 225.787 C 109 224.185, 107.052 222, 105.623 222 C 105.085 222, 97.750 228.844, 89.323 237.208 L 74 252.416 58.677 237.208 C 50.250 228.844, 42.857 222, 42.249 222 C 41.640 222, 40.436 222.707, 39.571 223.571 " stroke="none" fill="black" fill-rule="evenodd"/>
</svg>