<svg xmlns="http://www.w3.org/2000/svg" width="532" height="324" viewBox="0 0 532 324" version="1.1">
	<path d="M 99.045 127.064 C 84.675 129.974, 73.545 141.273, 70.887 155.652 C 70.030 160.292, 70.216 162.894, 72.003 171.241 C 77.819 198.405, 88.767 218.724, 108 238.051 C 117.231 247.328, 135.249 261, 138.243 261 C 138.733 261, 140.792 259.663, 142.817 258.030 C 144.843 256.396, 150.191 252.329, 154.702 248.992 C 173.931 234.765, 190.442 211.598, 198.535 187.491 C 202.974 174.268, 204.994 162.607, 203.954 156.215 C 202.650 148.206, 198.675 140.793, 192.901 135.601 C 176.881 121.197, 151.491 124.586, 140.005 142.662 L 137.360 146.824 135.471 143.317 C 129.358 131.965, 112.340 124.371, 99.045 127.064 M 391.200 127.200 C 389.465 128.935, 389.465 259.065, 391.200 260.800 C 392.109 261.709, 408.172 261.996, 457.450 261.985 C 493.227 261.976, 523.072 261.606, 523.772 261.162 C 524.780 260.522, 525.044 246.603, 525.044 194 C 525.044 141.397, 524.780 127.478, 523.772 126.838 C 523.072 126.394, 493.227 126.024, 457.450 126.015 C 408.172 126.004, 392.109 126.291, 391.200 127.200 M 95.463 135.591 C 82.394 140.232, 75.876 153.512, 78.961 169.217 C 83.658 193.134, 95.691 215.669, 113.011 232.989 C 120.307 240.285, 135.397 252, 137.500 252 C 139.638 252, 154.746 240.239, 162.130 232.827 C 178.807 216.087, 190.618 194.208, 195.495 171.022 C 197.741 160.345, 197.447 156.214, 193.940 149.196 C 187.554 136.416, 173.612 130.846, 159.795 135.554 C 150.288 138.793, 142 149.539, 142 158.625 C 142 162.910, 140.115 166, 137.500 166 C 135.012 166, 133 162.910, 133 159.088 C 133 154.001, 127.752 143.766, 123.235 140.042 C 116.252 134.286, 104.461 132.396, 95.463 135.591 M 397 194 L 397 254 457.500 254 L 518 254 518 194 L 518 134 457.500 134 L 397 134 397 194 M 450.355 158.986 C 439.790 161.214, 430.114 169.146, 425.329 179.500 C 421.374 188.059, 421.386 198.895, 425.361 207.610 C 428.863 215.289, 435.690 222.075, 443.492 225.635 C 448.376 227.863, 450.873 228.359, 456.992 228.319 C 467.272 228.252, 474.505 225.383, 481.342 218.661 C 489.423 210.714, 491.474 205.627, 491.488 193.500 C 491.502 181.368, 489.458 176.293, 481.353 168.339 C 473.361 160.497, 460.948 156.752, 450.355 158.986 M 447.885 167.380 C 429.769 173.854, 423.842 196.856, 436.447 211.770 C 443.247 219.815, 456.663 223.310, 466.427 219.581 C 480.194 214.323, 487.798 200.020, 484.098 186.343 C 480.899 174.521, 469.747 165.958, 457.663 166.044 C 454.273 166.068, 449.873 166.669, 447.885 167.380 M 40.370 190.765 C 38.401 192.045, 6.007 257.855, 6.594 259.384 C 7.265 261.133, 9.512 262.124, 11.274 261.448 C 11.975 261.180, 19.056 247.919, 27.010 231.980 C 34.964 216.041, 41.710 203, 42 203 C 42.290 203, 49.036 216.041, 56.990 231.980 C 64.944 247.919, 72.025 261.180, 72.726 261.448 C 74.488 262.124, 76.735 261.133, 77.406 259.384 C 77.993 257.855, 45.599 192.045, 43.630 190.765 C 43.009 190.361, 42.275 190.031, 42 190.031 C 41.725 190.031, 40.991 190.361, 40.370 190.765 M 263.571 223.571 C 262.707 224.436, 262 225.636, 262 226.239 C 262 226.841, 267.941 233.334, 275.202 240.667 L 288.405 254 260.774 254 C 236.988 254, 232.924 254.219, 231.571 255.571 C 229.596 257.546, 229.598 258.455, 231.579 260.436 C 232.990 261.847, 240.058 261.987, 298.220 261.757 C 358.934 261.517, 363.356 261.383, 364.386 259.750 C 365.191 258.474, 365.191 257.526, 364.387 256.250 C 363.393 254.672, 360.549 254.451, 335.533 254 L 307.782 253.500 320.391 240.348 C 327.326 233.115, 333 226.567, 333 225.798 C 333 224.186, 331.056 222, 329.623 222 C 329.085 222, 321.756 228.838, 313.336 237.195 L 298.027 252.390 282.632 237.195 C 274.165 228.838, 266.767 222, 266.190 222 C 265.614 222, 264.436 222.707, 263.571 223.571 " stroke="none" fill="black" fill-rule="evenodd"/>
</svg>