<svg xmlns="http://www.w3.org/2000/svg" width="244" height="324" viewBox="0 0 244 324" version="1.1">
	<path d="M 7.200 127.200 C 5.465 128.935, 5.465 259.065, 7.200 260.800 C 8.085 261.685, 17.117 262, 41.629 262 C 70.503 262, 75.063 261.794, 76.429 260.429 C 77.825 259.032, 78 251.628, 78 194 C 78 136.372, 77.825 128.968, 76.429 127.571 C 75.063 126.206, 70.503 126, 41.629 126 C 17.117 126, 8.085 126.315, 7.200 127.200 M 14 194 L 14 254 42 254 L 70 254 70 194 L 70 134 42 134 L 14 134 14 194 M 103.005 191.494 C 102.120 192.561, 101.971 194.917, 102.484 199.744 C 106.880 241.099, 146.432 268.720, 186.457 258.387 C 207.213 253.029, 225.762 235.537, 233.002 214.495 C 235.762 206.472, 237.445 193.241, 235.936 191.423 C 234.115 189.229, 104.827 189.298, 103.005 191.494 M 110 200.106 C 110 204.389, 113.276 214.704, 116.794 221.500 C 121.634 230.848, 132.182 241.378, 141.603 246.268 C 178.201 265.263, 221.845 242.900, 228.485 201.750 L 229.091 198 169.545 198 L 110 198 110 200.106 " stroke="none" fill="black" fill-rule="evenodd"/>
</svg>