<svg xmlns="http://www.w3.org/2000/svg" width="436" height="324" viewBox="0 0 436 324" version="1.1">
	<path d="M 128.500 126.955 C 120.365 128.254, 114.949 129.982, 107 133.814 C 96.444 138.903, 82.927 152.404, 77.778 163 C 74.048 170.676, 71 180.746, 71 185.394 C 71 186.827, 70.772 188, 70.494 188 C 70.215 188, 56.508 181.257, 40.033 173.016 C 23.558 164.775, 9.420 158.285, 8.616 158.594 C 6.867 159.265, 5.875 161.512, 6.551 163.273 C 6.820 163.973, 21.018 171.510, 38.104 180.023 C 55.189 188.535, 69.580 196.258, 70.084 197.184 C 70.588 198.111, 71 200.071, 71 201.540 C 71 211.586, 78.629 228.195, 87.786 238.086 C 97.969 249.085, 109.077 255.706, 123 259.075 C 130.524 260.896, 146.034 260.625, 154 258.534 C 171.844 253.849, 188.964 240.038, 196.824 223.988 C 200.894 215.676, 204 205.850, 204 201.287 C 204 199.180, 206.530 200.259, 235.090 214.545 C 260.430 227.220, 266.449 229.872, 267.638 228.886 C 271.688 225.524, 269.458 223.983, 236.500 207.365 L 204.500 191.229 203.801 185.026 C 200.894 159.235, 179.709 135.014, 154.500 128.660 C 146.790 126.717, 134.880 125.936, 128.500 126.955 M 122.282 135.537 C 101.950 141.014, 84.812 158.266, 79.520 178.584 C 78.684 181.794, 78 186.124, 78 188.207 L 78 191.993 106 206 L 134 220.007 134 190.039 C 134 161.250, 134.078 160.029, 135.969 159.016 C 137.609 158.139, 142.818 160.403, 167.078 172.539 C 183.105 180.556, 196.430 186.904, 196.689 186.644 C 197.675 185.659, 193.828 173.191, 190.335 166.046 C 183.455 151.979, 168.070 139.639, 152.356 135.585 C 144.793 133.634, 129.438 133.610, 122.282 135.537 M 142 197.431 C 142 222.849, 141.786 227.071, 140.429 228.429 C 139.564 229.293, 138.661 230, 138.422 230 C 138.183 230, 124.447 223.227, 107.897 214.948 L 77.807 199.897 78.523 204.198 C 82.134 225.894, 100.690 245.751, 122.644 251.415 C 130.517 253.446, 144.483 253.446, 152.356 251.415 C 173.042 246.078, 190.100 228.726, 195.485 207.540 C 198.610 195.247, 200.719 197.341, 169.500 181.744 L 142 168.005 142 197.431 M 321.763 175.023 C 311.517 176.770, 303.782 180.346, 296.790 186.570 C 292.195 190.659, 291.714 191.597, 292.989 193.979 C 294.549 196.893, 296.300 196.501, 301.388 192.097 C 303.869 189.950, 308.509 186.912, 311.699 185.347 C 317.012 182.739, 318.429 182.500, 328.552 182.500 C 339.332 182.500, 339.793 182.593, 347.287 186.297 C 352.195 188.723, 355.951 191.381, 357.686 193.655 C 369.197 208.746, 393.963 213.802, 412.943 204.934 C 425.329 199.148, 430.758 192.745, 425.873 189.685 C 424.605 188.890, 423.264 189.469, 419.803 192.305 C 412.517 198.276, 404.710 201.317, 395.409 201.807 C 382.086 202.510, 371.641 198.480, 364.054 189.708 C 354.816 179.028, 336.195 172.562, 321.763 175.023 " stroke="none" fill="black" fill-rule="evenodd"/>
</svg>