<svg xmlns="http://www.w3.org/2000/svg" width="468" height="324" viewBox="0 0 468 324" version="1.1">
	<path d="M 39.571 127.571 C 38.176 128.966, 38 136.152, 38 191.571 L 38 254 23.571 254 C 11.788 254, 8.855 254.288, 7.571 255.571 C 5.598 257.545, 5.598 258.455, 7.571 260.429 C 8.936 261.793, 13.463 262, 42 262 C 70.537 262, 75.064 261.793, 76.429 260.429 C 77.293 259.564, 78 258.471, 78 258 C 78 257.529, 77.293 256.436, 76.429 255.571 C 75.145 254.288, 72.212 254, 60.429 254 L 46 254 46 191.571 C 46 136.152, 45.824 128.966, 44.429 127.571 C 43.564 126.707, 42.471 126, 42 126 C 41.529 126, 40.436 126.707, 39.571 127.571 M 103.571 191.571 C 102.707 192.436, 102 193.529, 102 194 C 102 196.622, 105.430 198, 111.960 198 L 118.777 198 119.473 201.750 C 120.492 207.247, 124.768 214.532, 129.580 218.967 C 141.035 229.525, 156.687 231.545, 170.288 224.219 C 178.632 219.726, 185.937 210.185, 187.528 201.703 L 188.223 198 243.540 198 C 292.495 198, 299.038 197.819, 300.429 196.429 C 302.402 194.455, 302.402 193.545, 300.429 191.571 C 299.022 190.164, 288.719 190, 202 190 C 115.281 190, 104.978 190.164, 103.571 191.571 M 327.571 191.571 C 326.707 192.436, 326 193.529, 326 194 C 326 194.471, 326.707 195.564, 327.571 196.429 C 328.844 197.701, 331.697 198, 342.575 198 L 356.006 198 341.020 227.961 C 332.777 244.439, 326.285 258.580, 326.594 259.384 C 327.265 261.133, 329.512 262.125, 331.274 261.448 C 331.975 261.180, 339.056 247.919, 347.010 231.980 C 354.964 216.041, 361.710 203, 362 203 C 362.290 203, 369.036 216.041, 376.990 231.980 C 384.944 247.919, 392.025 261.180, 392.726 261.448 C 393.427 261.717, 394.573 261.717, 395.274 261.448 C 395.975 261.180, 403.056 247.919, 411.010 231.980 C 418.964 216.041, 425.710 203, 426 203 C 426.290 203, 433.036 216.041, 440.990 231.980 C 448.944 247.919, 456.025 261.180, 456.726 261.448 C 458.488 262.125, 460.735 261.133, 461.406 259.384 C 461.715 258.580, 455.223 244.439, 446.980 227.961 L 431.994 198 445.425 198 C 456.303 198, 459.156 197.701, 460.429 196.429 C 461.293 195.564, 462 194.471, 462 194 C 462 193.529, 461.293 192.436, 460.429 191.571 C 459.032 190.175, 451.628 190, 394 190 C 336.372 190, 328.968 190.175, 327.571 191.571 M 126.525 200.250 C 130.314 213.167, 140.497 221, 153.500 221 C 166.503 221, 176.686 213.167, 180.475 200.250 L 181.135 198 153.500 198 L 125.865 198 126.525 200.250 M 380.743 223.500 C 387.750 237.525, 393.715 249, 394 249 C 394.285 249, 400.250 237.525, 407.257 223.500 L 419.995 198 394 198 L 368.005 198 380.743 223.500 " stroke="none" fill="black" fill-rule="evenodd"/>
</svg>