<svg xmlns="http://www.w3.org/2000/svg" width="500" height="324" viewBox="0 0 500 324" version="1.1">
	<path d="M 71.750 127.080 C 70.113 128.034, 70 132.152, 70 191.050 L 70 254 39.571 254 C 13.242 254, 8.931 254.212, 7.571 255.571 C 5.596 257.546, 5.598 258.455, 7.579 260.436 C 8.990 261.847, 16.058 261.987, 74.220 261.757 C 134.934 261.517, 139.356 261.383, 140.386 259.750 C 141.191 258.474, 141.191 257.526, 140.386 256.250 C 139.381 254.655, 136.566 254.477, 108.641 254.236 L 78 253.971 78 225.986 L 78 198 108.429 198 C 134.758 198, 139.069 197.788, 140.429 196.429 C 141.793 195.064, 142 190.537, 142 162 C 142 133.463, 141.793 128.936, 140.429 127.571 C 139.063 126.206, 134.580 126.004, 106.179 126.030 C 85.849 126.049, 72.839 126.446, 71.750 127.080 M 327.750 127.080 C 326.132 128.023, 326 130.977, 326 166.378 L 326 204.657 321.653 200.492 C 306.900 186.356, 285.141 187.218, 271.181 202.492 C 258.959 215.865, 259.095 235.427, 271.502 248.829 C 284.271 262.621, 303.664 264.430, 318.500 253.212 C 323.519 249.416, 329.007 241.570, 331.226 235.014 C 332.066 232.534, 332.514 216.394, 332.751 180.154 C 333.115 124.277, 333.086 123.972, 327.750 127.080 M 375.239 143.260 C 365.758 152.754, 358 161.288, 358 162.225 C 358 163.163, 358.959 164.443, 360.131 165.070 C 362.073 166.110, 363.495 164.981, 376.131 152.369 L 390 138.527 390 199.228 C 390 259.533, 390.013 259.937, 392.064 261.034 C 397.059 263.708, 397 264.453, 397 199.174 L 397 138.592 410.830 152.296 C 418.437 159.833, 425.132 166, 425.708 166 C 427.297 166, 429.208 163.291, 428.833 161.570 C 428.418 159.665, 395.028 126, 393.554 126 C 392.963 126, 384.721 133.767, 375.239 143.260 M 455.750 127.080 C 454.114 128.033, 454 132.044, 454 188.786 L 454 249.473 440.131 235.631 C 427.495 223.019, 426.073 221.890, 424.131 222.930 C 422.959 223.557, 422 224.847, 422 225.796 C 422 227.590, 455.761 262, 457.521 262 C 459.266 262, 493 227.556, 493 225.775 C 493 224.837, 492.061 223.568, 490.913 222.953 C 489.030 221.946, 487.463 223.187, 474.913 235.622 L 461 249.408 461 188.904 C 461 123.446, 461.047 123.995, 455.750 127.080 M 78 162 L 78 190 106 190 L 134 190 134 162 L 134 134 106 134 L 78 134 78 162 M 194.355 158.998 C 183.822 161.188, 174.117 169.138, 169.329 179.500 C 165.350 188.111, 165.383 198.888, 169.417 207.734 C 172.513 214.526, 179.138 221.505, 185.608 224.791 C 198.912 231.550, 215.191 228.924, 225.766 218.313 C 233.455 210.600, 235.477 205.432, 235.477 193.500 C 235.477 181.374, 233.431 176.293, 225.342 168.339 C 217.458 160.587, 204.909 156.804, 194.355 158.998 M 191.627 167.468 C 186.247 169.386, 181.039 173.829, 177.500 179.519 C 173.527 185.908, 172.712 197.311, 175.741 204.129 C 180.446 214.717, 188.286 220.123, 199.883 220.774 C 206.995 221.173, 207.931 220.978, 214 217.830 C 224.444 212.411, 229.773 202.629, 228.713 190.821 C 227.772 180.346, 220.582 170.975, 210.684 167.326 C 206.327 165.720, 196.323 165.794, 191.627 167.468 M 288.994 198.934 C 273.518 203.642, 265.289 221.705, 271.880 236.500 C 276.394 246.633, 284.266 252.061, 295.494 252.781 C 301.739 253.182, 303.551 252.895, 308.205 250.764 C 326.156 242.545, 330.544 219.698, 316.810 205.963 C 310.094 199.248, 298.005 196.193, 288.994 198.934 " stroke="none" fill="black" fill-rule="evenodd"/>
</svg>