<svg xmlns="http://www.w3.org/2000/svg" width="403" height="324" viewBox="0 0 403 324" version="1.1">
	<path d="M 71.200 127.200 C 70.292 128.108, 70 143.689, 70 191.200 L 70 254 39.571 254 C 13.242 254, 8.931 254.212, 7.571 255.571 C 5.596 257.546, 5.598 258.455, 7.579 260.436 C 8.990 261.847, 16.058 261.987, 74.220 261.757 C 134.934 261.517, 139.356 261.383, 140.386 259.750 C 141.191 258.474, 141.191 257.526, 140.386 256.250 C 139.381 254.655, 136.566 254.477, 108.641 254.236 L 78 253.971 78 225.986 L 78 198 108.429 198 C 134.758 198, 139.069 197.788, 140.429 196.429 C 141.793 195.064, 142 190.537, 142 162 C 142 133.463, 141.793 128.936, 140.429 127.571 C 139.063 126.206, 134.503 126, 105.629 126 C 81.117 126, 72.085 126.315, 71.200 127.200 M 343.239 143.260 C 333.758 152.754, 326 161.288, 326 162.225 C 326 163.163, 326.959 164.443, 328.131 165.070 C 330.073 166.110, 331.494 164.982, 344.124 152.377 L 357.984 138.542 358.242 199.412 C 358.477 254.958, 358.646 260.374, 360.166 261.333 C 361.375 262.096, 362.267 262.023, 363.416 261.070 C 364.829 259.897, 365 253.226, 365 199.141 L 365 138.527 379.005 152.505 C 390.959 164.436, 393.266 166.322, 394.755 165.384 C 398.733 162.880, 397.425 160.947, 379.861 143.361 C 370.324 133.812, 362.062 126, 361.500 126 C 360.938 126, 352.721 133.767, 343.239 143.260 M 78 162 L 78 190 106 190 L 134 190 134 162 L 134 134 106 134 L 78 134 78 162 M 221.500 191.418 C 199.140 195.768, 181.923 209.131, 172.438 229.500 C 167.261 240.615, 164.359 257.959, 167.200 260.800 C 169.060 262.660, 298.322 262.522, 299.869 260.658 C 301.451 258.752, 299.511 244.304, 296.513 235.665 C 293 225.542, 288.399 218.403, 279.858 209.825 C 273.608 203.548, 270.511 201.336, 262.858 197.683 C 257.711 195.226, 251.463 192.736, 248.974 192.150 C 241.104 190.296, 228.935 189.972, 221.500 191.418 M 218.788 199.492 C 195.991 205.257, 176.989 226.222, 174.371 248.499 L 173.725 254 233.362 254 C 282.543 254, 293 253.765, 293 252.660 C 293 251.923, 292.113 247.850, 291.028 243.609 C 288.690 234.469, 283.548 224.311, 277.960 217.797 C 272.785 211.765, 260.994 203.883, 252.858 201.017 C 244.663 198.129, 227.258 197.350, 218.788 199.492 " stroke="none" fill="black" fill-rule="evenodd"/>
</svg>