<svg xmlns="http://www.w3.org/2000/svg" width="468" height="324" viewBox="0 0 468 324" version="1.1">
	<path d="M 7.571 127.571 C 6.175 128.968, 6 136.372, 6 194 C 6 251.628, 6.175 259.032, 7.571 260.429 C 8.936 261.793, 13.463 262, 42 262 C 70.537 262, 75.064 261.793, 76.429 260.429 C 77.825 259.032, 78 251.628, 78 194 C 78 136.372, 77.825 128.968, 76.429 127.571 C 75.064 126.207, 70.537 126, 42 126 C 13.463 126, 8.936 126.207, 7.571 127.571 M 130.344 126.991 C 116.863 129.821, 105.472 141.668, 102.911 155.524 C 101.634 162.434, 103.332 172.107, 108.615 188 C 116.262 211.007, 131.143 232.299, 150.408 247.797 C 160.514 255.927, 169.945 261.553, 171.547 260.407 C 172.245 259.908, 176.516 256.862, 181.038 253.637 C 209.144 233.592, 226.909 206.736, 234.666 172.565 C 236.806 163.141, 237.006 160.823, 236.118 155.782 C 234.081 144.216, 226.271 134.309, 215.175 129.216 C 207.165 125.539, 195.888 125.515, 187.954 129.157 C 181.265 132.227, 175.573 137.047, 172.005 142.662 L 169.360 146.824 167.503 143.377 C 164.873 138.492, 157.737 132.223, 151.675 129.472 C 145.777 126.794, 136.450 125.710, 130.344 126.991 M 360.515 158 L 328.460 190 296.801 190 C 269.354 190, 264.934 190.209, 263.571 191.571 C 261.598 193.545, 261.598 194.455, 263.571 196.429 C 264.931 197.788, 269.242 198, 295.571 198 L 326 198 326 228.429 C 326 254.758, 326.212 259.069, 327.571 260.429 C 328.968 261.825, 336.372 262, 394 262 C 451.628 262, 459.032 261.825, 460.429 260.429 C 461.794 259.063, 462 254.509, 462 225.695 L 462 192.533 428.733 159.267 C 410.437 140.970, 394.815 126, 394.019 126 C 393.223 126, 378.146 140.400, 360.515 158 M 14 194 L 14 254 42 254 L 70 254 70 194 L 70 134 42 134 L 14 134 14 194 M 127 135.824 C 120.840 138.118, 113.750 145.350, 111.667 151.463 C 109.607 157.509, 109.571 161.831, 111.505 171.022 C 116.526 194.893, 128.479 216.671, 146.086 234.029 C 152.769 240.618, 167.599 252, 169.500 252 C 171.491 252, 186.473 240.422, 193.551 233.413 C 207.387 219.715, 217.965 202.556, 223.929 184.139 C 231.274 161.460, 230.399 151.201, 220.280 141.347 C 209.895 131.233, 192.518 131.545, 181.917 142.035 C 177.099 146.803, 174 153.681, 174 159.607 C 174 162.874, 171.873 166.013, 169.679 165.985 C 166.990 165.950, 165.650 163.890, 164.948 158.712 C 163.958 151.416, 161.439 146.371, 156.280 141.347 C 149.051 134.307, 137.115 132.055, 127 135.824 M 380.499 149.001 L 367.527 162.002 382.763 177.263 C 391.143 185.656, 398 193.210, 398 194.049 C 398 195.777, 363.975 230, 362.257 230 C 360.825 230, 358 227.187, 358 225.761 C 358 225.159, 363.941 218.666, 371.202 211.333 L 384.405 198 359.202 198 L 334 198 334 226 L 334 254 394 254 L 454 254 454 224.744 L 454 195.487 424.244 165.744 C 407.878 149.385, 394.259 136, 393.979 136 C 393.700 136, 387.634 141.851, 380.499 149.001 M 350.500 179 L 339.534 190 362 190 L 384.466 190 373.500 179 C 367.469 172.950, 362.294 168, 362 168 C 361.706 168, 356.531 172.950, 350.500 179 " stroke="none" fill="black" fill-rule="evenodd"/>
</svg>