<svg xmlns="http://www.w3.org/2000/svg" width="372" height="324" viewBox="0 0 372 324" version="1.1">
	<path d="M 136.316 62.784 C 134.369 64.022, 118.007 97.855, 118.604 99.410 C 119.269 101.144, 121.524 102.120, 123.295 101.440 C 124.007 101.167, 127.480 95.106, 131.014 87.972 C 134.547 80.837, 137.691 75, 138 75 C 138.309 75, 141.453 80.837, 144.986 87.972 C 148.520 95.106, 151.993 101.167, 152.705 101.440 C 154.476 102.120, 156.731 101.144, 157.396 99.410 C 157.993 97.855, 141.631 64.022, 139.684 62.784 C 138.206 61.844, 137.794 61.844, 136.316 62.784 M 71.571 127.571 C 70.212 128.931, 70 133.242, 70 159.571 L 70 190 39.571 190 C 13.242 190, 8.931 190.212, 7.571 191.571 C 5.598 193.545, 5.598 194.455, 7.571 196.429 C 8.931 197.788, 13.242 198, 39.571 198 L 70 198 70 228.429 C 70 254.758, 70.212 259.069, 71.571 260.429 C 72.968 261.825, 80.372 262, 138 262 C 195.628 262, 203.032 261.825, 204.429 260.429 C 205.825 259.032, 206 251.628, 206 194 C 206 136.372, 205.825 128.968, 204.429 127.571 C 203.032 126.175, 195.628 126, 138 126 C 80.372 126, 72.968 126.175, 71.571 127.571 M 231.571 127.571 C 230.707 128.436, 230 129.529, 230 130 C 230 130.471, 230.707 131.564, 231.571 132.429 C 232.966 133.823, 240.061 134, 294.573 134 L 356.003 134 325.002 195.997 C 307.951 230.095, 294 258.188, 294 258.425 C 294 258.663, 294.707 259.564, 295.571 260.429 C 296.936 261.793, 301.463 262, 330 262 C 358.537 262, 363.064 261.793, 364.429 260.429 C 366.402 258.455, 366.402 257.545, 364.429 255.571 C 363.071 254.214, 358.848 254, 333.427 254 L 303.997 254 334.998 192.003 C 352.049 157.905, 366 129.812, 366 129.575 C 366 129.337, 365.293 128.436, 364.429 127.571 C 363.032 126.175, 355.628 126, 298 126 C 240.372 126, 232.968 126.175, 231.571 127.571 M 78 162 L 78 190 103.202 190 L 128.405 190 115.202 176.667 C 107.941 169.334, 102 162.841, 102 162.239 C 102 160.813, 104.825 158, 106.257 158 C 108.006 158, 142 192.239, 142 194 C 142 195.761, 108.006 230, 106.257 230 C 104.825 230, 102 227.187, 102 225.761 C 102 225.159, 107.941 218.666, 115.202 211.333 L 128.405 198 103.202 198 L 78 198 78 226 L 78 254 138 254 L 198 254 198 194 L 198 134 138 134 L 78 134 78 162 " stroke="none" fill="black" fill-rule="evenodd"/>
</svg>