<svg xmlns="http://www.w3.org/2000/svg" width="403" height="324" viewBox="0 0 403 324" version="1.1">
	<path d="M 7.571 127.571 C 6.175 128.968, 6 136.372, 6 194 C 6 251.628, 6.175 259.032, 7.571 260.429 C 8.936 261.793, 13.463 262, 42 262 C 70.537 262, 75.064 261.793, 76.429 260.429 C 77.825 259.032, 78 251.628, 78 194 C 78 136.372, 77.825 128.968, 76.429 127.571 C 75.064 126.207, 70.537 126, 42 126 C 13.463 126, 8.936 126.207, 7.571 127.571 M 130.801 126.999 C 117.210 129.373, 104.785 142.408, 102.514 156.673 C 101.197 164.953, 106.514 185.758, 114.071 201.889 C 124.400 223.939, 143.148 244.833, 163.930 257.458 C 169.332 260.739, 170.305 261.029, 171.948 259.846 C 172.976 259.106, 177.544 255.842, 182.099 252.594 C 208.675 233.642, 228.135 203.709, 234.590 171.852 C 236.892 160.493, 236.145 152.929, 231.945 145.049 C 223.110 128.473, 202.315 121.677, 185.959 130.021 C 180.476 132.818, 172.556 140.243, 170.970 144.073 L 169.728 147.070 166.429 142.170 C 158.614 130.566, 144.583 124.591, 130.801 126.999 M 263.750 127.080 C 262.111 128.035, 262 132.293, 262 194.015 C 262 259.587, 262.011 259.935, 264.064 261.034 C 269.084 263.721, 269 264.854, 269 194.078 C 269 123.068, 269.071 123.981, 263.750 127.080 M 391.750 127.080 C 390.111 128.035, 390 132.293, 390 194.015 C 390 259.587, 390.011 259.935, 392.064 261.034 C 397.084 263.721, 397 264.854, 397 194.078 C 397 123.068, 397.071 123.981, 391.750 127.080 M 14 194 L 14 254 42 254 L 70 254 70 194 L 70 134 42 134 L 14 134 14 194 M 127.385 135.617 C 117.726 139.043, 110 149.714, 110 159.631 C 110 174.667, 118.259 197.526, 130.186 215.500 C 136.705 225.323, 152.028 240.832, 161.708 247.403 L 168.916 252.295 174.421 248.959 C 177.448 247.124, 183.320 242.570, 187.468 238.839 C 208.581 219.850, 221.113 198.695, 227.062 172 C 229.474 161.177, 229.462 158.311, 226.976 151.667 C 220.646 134.747, 199.074 128.435, 184.797 139.325 C 179.145 143.635, 175.172 150.298, 174.016 157.404 C 173.033 163.443, 171.674 166, 169.449 166 C 167.008 166, 165.298 163.167, 164.702 158.131 C 163.588 148.723, 158.346 141.328, 149.745 137.030 C 142.822 133.571, 134.617 133.052, 127.385 135.617 M 327.750 159.080 C 326.207 159.979, 326 161.866, 326 175.050 L 326 190 311.934 190 C 297.308 190, 294 190.738, 294 194 C 294 197.262, 297.308 198, 311.934 198 L 326 198 326 212.965 C 326 227.061, 326.120 227.994, 328.064 229.034 C 332.315 231.309, 333 229.069, 333 212.904 L 333 198.052 348.142 197.776 C 361.291 197.536, 363.430 197.270, 364.387 195.750 C 365.191 194.475, 365.191 193.525, 364.387 192.250 C 363.430 190.730, 361.291 190.464, 348.142 190.224 L 333 189.948 333 175.174 C 333 158.586, 332.297 156.432, 327.750 159.080 " stroke="none" fill="black" fill-rule="evenodd"/>
</svg>