<svg xmlns="http://www.w3.org/2000/svg" width="403" height="324" viewBox="0 0 403 324" version="1.1">
	<path d="M 215.200 63.200 C 213.512 64.888, 213.512 99.112, 215.200 100.800 C 216.466 102.066, 248.306 102.587, 251.418 101.393 C 252.783 100.869, 253 98.208, 253 82 C 253 65.792, 252.783 63.131, 251.418 62.607 C 248.306 61.413, 216.466 61.934, 215.200 63.200 M 221 82 L 221 94 233.500 94 L 246 94 246 82 L 246 70 233.500 70 L 221 70 221 82 M 71.200 127.200 C 70.292 128.108, 70 143.689, 70 191.200 L 70 254 39.571 254 C 13.242 254, 8.931 254.212, 7.571 255.571 C 5.596 257.546, 5.598 258.455, 7.579 260.436 C 8.990 261.847, 16.058 261.987, 74.220 261.757 C 134.934 261.517, 139.356 261.383, 140.386 259.750 C 141.191 258.474, 141.191 257.526, 140.386 256.250 C 139.381 254.655, 136.566 254.477, 108.641 254.236 L 78 253.971 78 225.986 L 78 198 108.429 198 C 134.758 198, 139.069 197.788, 140.429 196.429 C 141.793 195.064, 142 190.537, 142 162 C 142 133.463, 141.793 128.936, 140.429 127.571 C 139.063 126.206, 134.503 126, 105.629 126 C 81.117 126, 72.085 126.315, 71.200 127.200 M 231.750 127.080 C 230.143 128.016, 230 130.628, 230 159.050 L 230 190 199.934 190 C 181.122 190, 169.145 190.387, 167.934 191.035 C 166.870 191.605, 166 192.939, 166 194 C 166 195.061, 166.870 196.395, 167.934 196.965 C 169.145 197.613, 181.122 198, 199.934 198 L 230 198 230 228.965 C 230 259.226, 230.047 259.955, 232.064 261.034 C 233.596 261.854, 234.498 261.832, 235.564 260.947 C 236.755 259.958, 237 254.495, 237 228.892 L 237 198.028 268.141 197.764 C 296.542 197.523, 299.380 197.346, 300.386 195.750 C 301.191 194.474, 301.191 193.526, 300.386 192.250 C 299.380 190.654, 296.542 190.477, 268.141 190.236 L 237 189.972 237 159.186 C 237 125.562, 236.770 124.156, 231.750 127.080 M 391.270 127.207 C 390.694 127.918, 386.601 135.750, 382.175 144.612 L 374.126 160.724 368.313 159.222 C 353.502 155.396, 336.675 163.746, 329.454 178.505 C 326.212 185.130, 325.218 194.572, 326.985 201.939 C 328.495 208.231, 334.762 217.894, 339.391 221.066 L 342.794 223.398 334.157 240.706 C 327.133 254.781, 325.725 258.340, 326.619 259.757 C 327.629 261.358, 330.467 261.500, 361.500 261.500 C 392.586 261.500, 395.370 261.360, 396.386 259.750 C 397.191 258.474, 397.191 257.526, 396.386 256.250 C 395.382 254.658, 392.613 254.476, 365.641 254.235 C 349.339 254.089, 336 253.746, 336 253.471 C 336 253.196, 338.950 247.085, 342.555 239.891 C 348.690 227.648, 349.266 226.850, 351.555 227.425 C 362.028 230.053, 372.153 228.262, 380.925 222.231 C 398.874 209.889, 401.044 183.991, 385.437 168.385 L 380.715 163.662 389.092 146.815 C 395.873 133.177, 397.261 129.637, 396.377 128.234 C 394.984 126.021, 392.615 125.545, 391.270 127.207 M 78 162 L 78 190 106 190 L 134 190 134 162 L 134 134 106 134 L 78 134 78 162 M 352.994 166.934 C 348.178 168.399, 344.322 170.901, 340.698 174.913 C 335.459 180.711, 333.716 185.327, 333.678 193.500 C 333.639 201.867, 336.057 207.697, 341.956 213.457 L 345.858 217.268 358.381 192.238 C 370.277 168.460, 370.793 167.179, 368.702 166.618 C 365.687 165.809, 356.054 166.003, 352.994 166.934 M 364.993 195.014 C 355.662 213.664, 353.155 219.483, 354.174 220.129 C 354.903 220.591, 358.200 220.972, 361.500 220.975 C 369.145 220.982, 376.121 217.844, 381.347 212.046 C 386.678 206.134, 388.341 201.755, 388.391 193.500 C 388.441 185.327, 386.048 179.377, 380.580 174.077 L 377.138 170.741 364.993 195.014 " stroke="none" fill="black" fill-rule="evenodd"/>
</svg>