<svg xmlns="http://www.w3.org/2000/svg" width="212" height="324" viewBox="0 0 212 324" version="1.1">
	<path d="M 71.571 127.571 C 70.178 128.965, 70 135.899, 70 188.799 L 70 248.455 40.711 219.227 C 24.602 203.152, 10.909 190, 10.282 190 C 8.808 190, 6 192.810, 6 194.286 C 6 195.841, 71.009 260.868, 73.286 261.591 C 78.076 263.111, 78 264.187, 78 194.449 C 78 136.413, 77.825 128.968, 76.429 127.571 C 75.564 126.707, 74.471 126, 74 126 C 73.529 126, 72.436 126.707, 71.571 127.571 M 163.270 127.013 C 148.276 130.119, 137.071 141.838, 135.082 156.493 C 134.209 162.925, 135.979 166.713, 139.267 165.451 C 141.019 164.779, 141.327 163.935, 142.528 156.535 C 143.906 148.042, 149.169 141.071, 157.255 137.030 C 175.602 127.862, 197 140.544, 197 160.587 C 197 171.527, 190.510 192.272, 182.839 205.854 C 173.559 222.285, 157.537 239.498, 142.679 249 C 133.564 254.829, 132.211 257.071, 135.829 260.345 C 137.451 261.813, 141.301 262, 169.894 262 C 190.204 262, 202.847 261.617, 204.066 260.965 C 206.554 259.633, 206.554 256.367, 204.066 255.035 C 202.871 254.396, 191.920 254, 175.417 254 L 148.702 254 155.101 249.153 C 163.482 242.805, 176.158 229.326, 182.815 219.684 C 193.231 204.597, 201.635 183.503, 204.237 165.917 C 205.268 158.943, 205.171 157.750, 203.015 151.047 C 197.630 134.300, 179.886 123.570, 163.270 127.013 M 103.571 159.571 C 101.215 161.927, 101.215 210.073, 103.571 212.429 C 104.436 213.293, 105.529 214, 106 214 C 106.471 214, 107.564 213.293, 108.429 212.429 C 110.785 210.073, 110.785 161.927, 108.429 159.571 C 107.564 158.707, 106.471 158, 106 158 C 105.529 158, 104.436 158.707, 103.571 159.571 M 103.571 222.571 C 102.707 223.436, 102 224.529, 102 225 C 102 225.471, 102.707 226.564, 103.571 227.429 C 104.436 228.293, 105.529 229, 106 229 C 106.471 229, 107.564 228.293, 108.429 227.429 C 109.293 226.564, 110 225.471, 110 225 C 110 224.529, 109.293 223.436, 108.429 222.571 C 107.564 221.707, 106.471 221, 106 221 C 105.529 221, 104.436 221.707, 103.571 222.571 " stroke="none" fill="black" fill-rule="evenodd"/>
</svg>