<svg xmlns="http://www.w3.org/2000/svg" width="468" height="324" viewBox="0 0 468 324" version="1.1">
	<path d="M 39.571 127.571 C 38.176 128.966, 38 136.152, 38 191.571 L 38 254 23.571 254 C 11.788 254, 8.855 254.288, 7.571 255.571 C 5.598 257.545, 5.598 258.455, 7.571 260.429 C 8.936 261.793, 13.463 262, 42 262 C 70.537 262, 75.064 261.793, 76.429 260.429 C 77.293 259.564, 78 258.471, 78 258 C 78 257.529, 77.293 256.436, 76.429 255.571 C 75.145 254.288, 72.212 254, 60.429 254 L 46 254 46 191.571 C 46 136.152, 45.824 128.966, 44.429 127.571 C 43.564 126.707, 42.471 126, 42 126 C 41.529 126, 40.436 126.707, 39.571 127.571 M 167.571 127.571 C 166.178 128.965, 166 135.897, 166 188.774 L 166 248.405 152.667 235.202 C 145.334 227.941, 138.841 222, 138.239 222 C 136.825 222, 134 224.820, 134 226.232 C 134 226.831, 139.512 232.922, 146.250 239.767 C 157.806 251.507, 158.302 252.173, 155 251.517 C 153.075 251.135, 147.720 249.017, 143.101 246.810 C 124.368 237.863, 110 216.251, 110 197.022 C 110 193.416, 108.054 190, 106 190 C 105.529 190, 104.399 190.743, 103.491 191.652 C 100.356 194.787, 103.559 211.320, 109.756 224 C 114.924 234.572, 128.441 248.079, 139.060 253.282 C 149.977 258.630, 167.666 262.518, 174.278 261.022 C 176.600 260.497, 181.623 259.373, 185.440 258.526 C 197.509 255.847, 206.337 250.741, 216.539 240.539 C 228.935 228.143, 234.454 216.744, 236.457 199.402 C 237.032 194.418, 236.859 193.002, 235.509 191.652 C 234.601 190.743, 233.471 190, 233 190 C 230.946 190, 229 193.416, 229 197.022 C 229 216.262, 214.611 237.896, 195.899 246.791 C 180.230 254.239, 180.042 253.620, 193.750 239.732 C 200.488 232.906, 206 226.831, 206 226.232 C 206 224.820, 203.175 222, 201.761 222 C 201.159 222, 194.666 227.941, 187.333 235.202 L 174 248.405 174 188.774 C 174 135.897, 173.822 128.965, 172.429 127.571 C 171.564 126.707, 170.471 126, 170 126 C 169.529 126, 168.436 126.707, 167.571 127.571 M 423.571 127.571 C 422.176 128.966, 422 136.152, 422 191.571 L 422 254 407.571 254 C 395.788 254, 392.855 254.288, 391.571 255.571 C 389.598 257.545, 389.598 258.455, 391.571 260.429 C 392.936 261.793, 397.463 262, 426 262 C 454.537 262, 459.064 261.793, 460.429 260.429 C 461.293 259.564, 462 258.471, 462 258 C 462 257.529, 461.293 256.436, 460.429 255.571 C 459.145 254.288, 456.212 254, 444.429 254 L 430 254 430 191.571 C 430 136.152, 429.824 128.966, 428.429 127.571 C 427.564 126.707, 426.471 126, 426 126 C 425.529 126, 424.436 126.707, 423.571 127.571 M 359.571 159.571 C 358.227 160.916, 358 164.736, 358 186 C 358 207.264, 358.227 211.084, 359.571 212.429 C 360.436 213.293, 361.529 214, 362 214 C 362.471 214, 363.564 213.293, 364.429 212.429 C 365.773 211.084, 366 207.264, 366 186 C 366 164.736, 365.773 160.916, 364.429 159.571 C 363.564 158.707, 362.471 158, 362 158 C 361.529 158, 360.436 158.707, 359.571 159.571 M 263.571 191.571 C 262.707 192.436, 262 193.529, 262 194 C 262 194.471, 262.707 195.564, 263.571 196.429 C 264.936 197.793, 269.463 198, 298 198 C 326.537 198, 331.064 197.793, 332.429 196.429 C 333.293 195.564, 334 194.471, 334 194 C 334 193.529, 333.293 192.436, 332.429 191.571 C 331.064 190.207, 326.537 190, 298 190 C 269.463 190, 264.936 190.207, 263.571 191.571 M 359.571 222.571 C 358.707 223.436, 358 224.529, 358 225 C 358 226.111, 360.889 229, 362 229 C 363.111 229, 366 226.111, 366 225 C 366 223.889, 363.111 221, 362 221 C 361.529 221, 360.436 221.707, 359.571 222.571 " stroke="none" fill="black" fill-rule="evenodd"/>
</svg>