<svg xmlns="http://www.w3.org/2000/svg" width="276" height="324" viewBox="0 0 276 324" version="1.1">
	<path d="M 63.870 127.014 C 48.636 129.407, 37.616 135.194, 25.974 146.916 C 12.475 160.507, 6.696 174.473, 6.696 193.500 C 6.696 205.238, 8.560 213.290, 13.713 223.806 C 18.032 232.618, 28.468 244.189, 37.307 249.965 L 43.483 254 26.313 254 C 12.037 254, 8.878 254.265, 7.571 255.571 C 5.598 257.545, 5.598 258.455, 7.571 260.429 C 8.968 261.825, 16.372 262, 74 262 C 131.628 262, 139.032 261.825, 140.429 260.429 C 142.402 258.455, 142.402 257.545, 140.429 255.571 C 139.119 254.261, 135.917 254, 121.187 254 L 103.517 254 109.693 249.965 C 118.532 244.189, 128.968 232.618, 133.287 223.806 C 138.440 213.290, 140.304 205.238, 140.304 193.500 C 140.304 174.166, 134.551 160.473, 120.539 146.461 C 110.721 136.644, 102.174 131.566, 90.500 128.618 C 82.592 126.621, 70.868 125.914, 63.870 127.014 M 58.645 135.584 C 38.562 140.445, 20.305 158.877, 15.537 179.103 C 13.610 187.282, 13.610 199.718, 15.537 207.897 C 20.350 228.315, 38.685 246.650, 59.103 251.463 C 79.742 256.328, 100.600 250.431, 115.516 235.516 C 134.204 216.827, 138.475 188.970, 126.233 165.603 C 118.739 151.298, 103.261 139.159, 87.897 135.537 C 79.998 133.676, 66.439 133.697, 58.645 135.584 M 180.648 190.983 C 173.384 193.272, 167.912 199.505, 166.503 207.096 C 165.855 210.586, 167.585 214, 170 214 C 171.861 214, 174 210.700, 174 207.829 C 174 205.718, 175.030 203.770, 177.400 201.400 C 180.302 198.498, 181.488 198, 185.500 198 C 189.512 198, 190.698 198.498, 193.600 201.400 C 196.502 204.302, 197 205.488, 197 209.500 C 197 213.512, 196.502 214.698, 193.600 217.600 C 191.526 219.674, 189.214 221, 187.671 221 C 184.930 221, 182 223.325, 182 225.500 C 182 227.675, 184.930 230, 187.671 230 C 189.214 230, 191.526 231.326, 193.600 233.400 C 196.502 236.302, 197 237.488, 197 241.500 C 197 245.512, 196.502 246.698, 193.600 249.600 C 190.698 252.502, 189.512 253, 185.500 253 C 181.488 253, 180.302 252.502, 177.400 249.600 C 175.326 247.526, 174 245.214, 174 243.671 C 174 241.214, 171.733 238, 170 238 C 169.529 238, 168.412 238.731, 167.519 239.624 C 164.560 242.583, 167.485 250.585, 173.436 255.809 C 181.619 262.995, 192.330 262.083, 199.809 253.564 C 206.605 245.824, 206.103 235.090, 198.617 228.097 L 196.044 225.693 199.468 221.903 C 205.735 214.967, 206.247 206.362, 200.860 198.501 C 196.682 192.404, 187.261 188.899, 180.648 190.983 M 236.413 226.187 C 233.914 228.490, 231.451 231.158, 230.939 232.115 C 229.028 235.684, 232.440 238.905, 236.072 236.961 C 237.910 235.978, 238 236.353, 238 244.965 C 238 253.865, 237.964 254, 235.571 254 C 233.197 254, 230 256.295, 230 258 C 230 258.471, 230.707 259.564, 231.571 260.429 C 232.763 261.621, 235.281 262, 242 262 C 248.719 262, 251.237 261.621, 252.429 260.429 C 253.293 259.564, 254 258.471, 254 258 C 254 256.295, 250.803 254, 248.429 254 L 246 254 246 239.571 C 246 227.788, 245.712 224.855, 244.429 223.571 C 242.163 221.306, 241.459 221.536, 236.413 226.187 " stroke="none" fill="black" fill-rule="evenodd"/>
</svg>