<svg xmlns="http://www.w3.org/2000/svg" width="372" height="324" viewBox="0 0 372 324" version="1.1">
	<path d="M 40.372 62.765 C 38.418 64.037, 22.003 97.844, 22.593 99.381 C 23.268 101.141, 25.513 102.124, 27.295 101.440 C 28.007 101.167, 31.480 95.106, 35.014 87.972 C 38.547 80.837, 41.691 75, 42 75 C 42.309 75, 45.453 80.837, 48.986 87.972 C 52.520 95.106, 55.993 101.167, 56.705 101.440 C 58.487 102.124, 60.732 101.141, 61.407 99.381 C 61.716 98.575, 58.096 90.173, 53.363 80.708 C 45.638 65.261, 43.672 62.031, 42 62.031 C 41.725 62.031, 40.992 62.361, 40.372 62.765 M 327.571 127.571 C 326.176 128.966, 326 136.152, 326 191.571 L 326 254 311.571 254 C 299.788 254, 296.855 254.288, 295.571 255.571 C 293.598 257.545, 293.598 258.455, 295.571 260.429 C 296.936 261.793, 301.463 262, 330 262 C 358.537 262, 363.064 261.793, 364.429 260.429 C 365.293 259.564, 366 258.471, 366 258 C 366 257.529, 365.293 256.436, 364.429 255.571 C 363.145 254.288, 360.212 254, 348.429 254 L 334 254 334 191.571 C 334 136.152, 333.824 128.966, 332.429 127.571 C 331.564 126.707, 330.471 126, 330 126 C 329.529 126, 328.436 126.707, 327.571 127.571 M 33.384 159.412 C 15.475 163.758, 3.559 181.807, 6.987 199.396 C 8.500 207.161, 12.212 214.019, 17.580 218.967 C 38.277 238.045, 70.591 227.221, 76.013 199.396 C 79.488 181.565, 67.484 163.676, 49.147 159.360 C 42.397 157.772, 40.111 157.779, 33.384 159.412 M 129.384 159.412 C 111.480 163.757, 99.543 181.833, 102.993 199.372 C 105.077 209.960, 110.986 218.563, 119.673 223.654 C 124.824 226.673, 137.869 230.124, 140 229.032 C 140.825 228.609, 143.279 227.941, 145.453 227.548 C 154.124 225.980, 163.643 218.768, 168.232 210.288 C 179.343 189.761, 168.001 164.740, 145.147 159.360 C 138.397 157.772, 136.111 157.779, 129.384 159.412 M 31.054 167.728 C 25.018 169.859, 17.781 177.260, 15.667 183.463 C 11.995 194.241, 14.382 205.477, 21.952 213.048 C 32.673 223.769, 50.327 223.769, 61.048 213.048 C 71.769 202.327, 71.769 184.673, 61.048 173.952 C 53.519 166.424, 41.696 163.970, 31.054 167.728 M 127.054 167.728 C 121.018 169.859, 113.781 177.260, 111.667 183.463 C 106.058 199.925, 114.847 216.571, 131.250 220.550 L 134 221.217 134 193.608 C 134 172.146, 133.722 166.018, 132.750 166.079 C 132.063 166.122, 129.499 166.864, 127.054 167.728 M 142 193.500 L 142 221.135 144.250 220.475 C 157.167 216.686, 165 206.503, 165 193.500 C 165 180.497, 157.167 170.314, 144.250 166.525 L 142 165.865 142 193.500 M 199.571 191.571 C 198.707 192.436, 198 193.640, 198 194.249 C 198 194.857, 204.844 202.250, 213.208 210.677 L 228.416 226 213.208 241.323 C 204.844 249.750, 198 257.143, 198 257.751 C 198 259.181, 200.819 262, 202.249 262 C 202.857 262, 210.250 255.156, 218.677 246.792 L 234 231.584 249.323 246.792 C 257.750 255.156, 265.143 262, 265.751 262 C 267.181 262, 270 259.181, 270 257.751 C 270 257.143, 263.156 249.750, 254.792 241.323 L 239.584 226 254.792 210.677 C 263.156 202.250, 270 194.857, 270 194.249 C 270 192.819, 267.181 190, 265.751 190 C 265.143 190, 257.750 196.844, 249.323 205.208 L 234 220.416 218.677 205.208 C 210.250 196.844, 202.857 190, 202.249 190 C 201.640 190, 200.436 190.707, 199.571 191.571 M 103.571 255.571 C 102.707 256.436, 102 257.529, 102 258 C 102 258.471, 102.707 259.564, 103.571 260.429 C 104.936 261.793, 109.463 262, 138 262 C 166.537 262, 171.064 261.793, 172.429 260.429 C 173.293 259.564, 174 258.471, 174 258 C 174 257.529, 173.293 256.436, 172.429 255.571 C 171.064 254.207, 166.537 254, 138 254 C 109.463 254, 104.936 254.207, 103.571 255.571 " stroke="none" fill="black" fill-rule="evenodd"/>
</svg>