<svg xmlns="http://www.w3.org/2000/svg" width="436" height="324" viewBox="0 0 436 324" version="1.1">
	<path d="M 65.384 63.412 C 54.810 65.978, 45.978 73.450, 41.191 83.880 C 39.101 88.432, 38.611 91.020, 38.611 97.500 C 38.611 107.107, 41.427 114.253, 48.038 121.425 L 52.255 126 30.699 126 C 12.436 126, 8.903 126.240, 7.571 127.571 C 5.598 129.545, 5.598 130.455, 7.571 132.429 C 8.931 133.788, 13.242 134, 39.571 134 L 70 134 70 194 L 70 254 55.571 254 C 43.788 254, 40.855 254.288, 39.571 255.571 C 37.598 257.545, 37.598 258.455, 39.571 260.429 C 40.936 261.793, 45.463 262, 74 262 C 102.537 262, 107.064 261.793, 108.429 260.429 C 110.402 258.455, 110.402 257.545, 108.429 255.571 C 107.145 254.288, 104.212 254, 92.429 254 L 78 254 78 194 L 78 134 108.429 134 C 134.758 134, 139.069 133.788, 140.429 132.429 C 142.402 130.455, 142.402 129.545, 140.429 127.571 C 139.095 126.238, 135.522 126, 116.836 126 L 94.815 126 99.354 120.952 C 117.209 101.092, 107.222 69.498, 81.147 63.360 C 74.397 61.772, 72.111 61.779, 65.384 63.412 M 63.054 71.728 C 57.018 73.859, 49.781 81.260, 47.667 87.463 C 42.058 103.925, 50.847 120.571, 67.250 124.550 L 70 125.217 70 97.608 C 70 76.146, 69.722 70.018, 68.750 70.079 C 68.063 70.122, 65.499 70.864, 63.054 71.728 M 78 97.500 L 78 125.135 80.250 124.448 C 85.937 122.711, 89.111 120.889, 92.696 117.304 C 98.750 111.250, 100.500 106.809, 100.500 97.500 C 100.500 88.191, 98.750 83.750, 92.696 77.696 C 89.111 74.111, 85.937 72.289, 80.250 70.552 L 78 69.865 78 97.500 M 327.230 159.285 C 308.953 177.591, 294 193.084, 294 193.713 C 294 194.949, 296.716 198, 297.815 198 C 298.185 198, 311.878 184.615, 328.244 168.256 L 358 138.513 358 165.762 L 358 193.012 342 225 C 333.200 242.593, 326 257.650, 326 258.459 C 326 260.786, 329.809 262.404, 331.663 260.865 C 332.507 260.164, 339.622 246.749, 347.474 231.052 L 361.750 202.514 376.313 231.626 C 384.486 247.965, 391.617 261.023, 392.565 261.386 C 394.669 262.194, 397 260.362, 397 257.901 C 397 256.881, 389.800 241.612, 381 223.969 L 365 191.892 365 165.218 L 365 138.545 394.788 168.272 C 411.172 184.623, 425.067 198, 425.666 198 C 427.295 198, 429.211 195.310, 428.833 193.554 C 428.425 191.664, 362.990 126, 361.515 126 C 360.935 126, 345.506 140.978, 327.230 159.285 M 135.200 191.200 C 134.315 192.085, 134 201.117, 134 225.629 C 134 254.503, 134.206 259.063, 135.571 260.429 C 137.386 262.244, 137.946 262.319, 140 261.023 C 141.204 260.264, 141.599 256.693, 142 242.906 L 142.500 225.735 145.678 230.618 C 163.589 258.133, 201.071 268.432, 230.377 253.892 C 242.099 248.076, 253.093 237.996, 259.059 227.594 L 261.981 222.500 261.991 240.679 C 261.998 255.863, 262.259 259.116, 263.571 260.429 C 265.678 262.535, 266.598 262.412, 268.443 259.777 C 269.772 257.880, 270 252.941, 270 226 C 270 199.059, 269.772 194.120, 268.443 192.223 C 265.423 187.910, 261 190.696, 261 196.911 C 261 203.127, 257.245 215.866, 253.340 222.899 C 247.912 232.675, 237.977 241.998, 227.820 246.847 C 217.980 251.545, 211.649 253.005, 201.201 252.985 C 184.871 252.954, 171.129 247.211, 159.459 235.541 C 148.847 224.929, 142 210.151, 142 197.861 C 142 191.445, 138.441 187.959, 135.200 191.200 " stroke="none" fill="black" fill-rule="evenodd"/>
</svg>