<svg xmlns="http://www.w3.org/2000/svg" width="276" height="324" viewBox="0 0 276 324" version="1.1">
	<path d="M 63.870 127.014 C 48.636 129.407, 37.616 135.194, 25.974 146.916 C 12.475 160.507, 6.696 174.473, 6.696 193.500 C 6.696 205.238, 8.560 213.290, 13.713 223.806 C 18.032 232.618, 28.468 244.189, 37.307 249.965 L 43.483 254 26.313 254 C 12.037 254, 8.878 254.265, 7.571 255.571 C 5.598 257.545, 5.598 258.455, 7.571 260.429 C 8.968 261.825, 16.372 262, 74 262 C 131.628 262, 139.032 261.825, 140.429 260.429 C 142.402 258.455, 142.402 257.545, 140.429 255.571 C 139.119 254.261, 135.917 254, 121.187 254 L 103.517 254 109.693 249.965 C 118.532 244.189, 128.968 232.618, 133.287 223.806 C 138.440 213.290, 140.304 205.238, 140.304 193.500 C 140.304 174.166, 134.551 160.473, 120.539 146.461 C 110.721 136.644, 102.174 131.566, 90.500 128.618 C 82.592 126.621, 70.868 125.914, 63.870 127.014 M 58.645 135.584 C 38.562 140.445, 20.305 158.877, 15.537 179.103 C 13.610 187.282, 13.610 199.718, 15.537 207.897 C 20.338 228.261, 38.739 246.662, 59.103 251.463 C 79.742 256.328, 100.600 250.431, 115.516 235.516 C 134.200 216.831, 138.470 189.002, 126.243 165.603 C 118.839 151.435, 103.149 139.133, 87.897 135.537 C 79.998 133.676, 66.439 133.697, 58.645 135.584 M 180.648 190.983 C 173.384 193.272, 167.912 199.505, 166.503 207.096 C 165.855 210.586, 167.585 214, 170 214 C 171.861 214, 174 210.700, 174 207.829 C 174 205.718, 175.030 203.770, 177.400 201.400 C 180.302 198.498, 181.488 198, 185.500 198 C 189.512 198, 190.698 198.498, 193.600 201.400 C 199.296 207.096, 198.903 208.183, 181.941 233.589 C 173.658 245.994, 166.657 256.729, 166.383 257.443 C 166.109 258.158, 166.618 259.475, 167.514 260.371 C 169.895 262.753, 202.054 262.803, 204.429 260.429 C 206.402 258.455, 206.402 257.545, 204.429 255.571 C 203.162 254.305, 200.348 254, 189.926 254 L 176.995 254 191.477 232.250 L 205.960 210.500 204.402 206 C 203.546 203.525, 202.002 200.133, 200.972 198.462 C 197.421 192.702, 187.168 188.929, 180.648 190.983 M 236.413 226.187 C 233.914 228.490, 231.451 231.158, 230.939 232.115 C 229.028 235.684, 232.440 238.905, 236.072 236.961 C 237.910 235.978, 238 236.353, 238 244.965 C 238 253.865, 237.964 254, 235.571 254 C 233.197 254, 230 256.295, 230 258 C 230 258.471, 230.707 259.564, 231.571 260.429 C 232.763 261.621, 235.281 262, 242 262 C 248.719 262, 251.237 261.621, 252.429 260.429 C 253.293 259.564, 254 258.471, 254 258 C 254 256.295, 250.803 254, 248.429 254 L 246 254 246 239.571 C 246 227.788, 245.712 224.855, 244.429 223.571 C 242.163 221.306, 241.459 221.536, 236.413 226.187 " stroke="none" fill="black" fill-rule="evenodd"/>
</svg>