<svg xmlns="http://www.w3.org/2000/svg" width="340" height="324" viewBox="0 0 340 324" version="1.1">
	<path d="M 55.571 63.571 C 54.707 64.436, 54 65.317, 54 65.531 C 54 66.993, 71.421 100.653, 72.488 101.252 C 73.225 101.665, 74.440 101.768, 75.187 101.482 C 75.935 101.195, 80.506 93.026, 85.345 83.329 C 93.969 66.046, 94.106 65.661, 92.255 63.810 C 91.216 62.772, 89.701 62.177, 88.889 62.489 C 88.076 62.801, 84.520 68.894, 80.986 76.028 C 77.453 83.163, 74.308 89, 73.997 89 C 73.687 89, 70.748 83.534, 67.467 76.853 C 59.925 61.499, 58.847 60.296, 55.571 63.571 M 35.045 127.064 C 19.586 130.194, 7.255 144.080, 6.841 158.824 C 6.689 164.231, 10.459 179.667, 14.976 192.133 C 18.628 202.212, 26.063 215.568, 33.594 225.579 C 47.004 243.404, 74.270 264.227, 77.454 259.074 C 77.769 258.565, 81.733 255.561, 86.263 252.400 C 102.796 240.863, 118.290 222.751, 127.526 204.162 C 136.027 187.055, 141.511 165.812, 139.941 156.078 C 136.401 134.137, 113.568 120.988, 92.798 128.928 C 86.373 131.384, 78.359 138.062, 75.529 143.317 L 73.640 146.824 70.976 142.624 C 63.636 131.049, 48.255 124.389, 35.045 127.064 M 263.571 127.571 C 262.707 128.436, 262 129.640, 262 130.249 C 262 130.857, 268.850 138.257, 277.223 146.692 L 292.446 162.030 277.223 177.277 C 268.850 185.662, 262 193.216, 262 194.062 C 262 197.830, 263.516 198, 297.118 198 C 315.113 198, 330.548 197.727, 331.418 197.393 C 335.355 195.882, 332.923 192.289, 317.750 177.202 L 302.500 162.038 317.750 146.757 C 326.137 138.353, 333 130.784, 333 129.938 C 333 128.207, 331.106 126, 329.621 126 C 329.082 126, 321.623 132.969, 313.045 141.486 L 297.449 156.973 281.987 141.486 C 273.482 132.969, 266.213 126, 265.834 126 C 265.454 126, 264.436 126.707, 263.571 127.571 M 31.591 135.573 C 23.452 138.555, 15.998 146.866, 14.553 154.569 C 13.726 158.977, 16.225 172.568, 20.050 184.464 C 25.982 202.912, 35.682 218.638, 50 233.023 C 55.225 238.272, 62.724 244.743, 66.665 247.402 L 73.830 252.237 81.647 246.869 C 97.272 236.137, 111.646 219.492, 120.594 201.768 C 127.665 187.762, 133 169.625, 133 159.594 C 133 153.984, 127.997 143.968, 123.235 140.042 C 113.249 131.811, 97.154 132.040, 87.205 140.557 C 82.124 144.906, 78 153, 78 158.625 C 78 162.910, 76.115 166, 73.500 166 C 71.133 166, 69 162.970, 69 159.607 C 69 149.949, 60.912 138.862, 51.537 135.667 C 45.642 133.659, 36.928 133.618, 31.591 135.573 M 286 178.500 L 274.533 190 297.500 190 L 320.467 190 309 178.500 C 302.693 172.175, 297.518 167, 297.500 167 C 297.482 167, 292.307 172.175, 286 178.500 M 167.585 191.558 C 166.713 192.430, 166 193.529, 166 194 C 166 194.471, 166.713 195.570, 167.585 196.442 C 168.978 197.835, 173.159 197.995, 202.226 197.763 C 232.452 197.523, 235.377 197.350, 236.386 195.750 C 237.191 194.474, 237.191 193.526, 236.386 192.250 C 235.377 190.650, 232.452 190.477, 202.226 190.237 C 173.159 190.005, 168.978 190.165, 167.585 191.558 " stroke="none" fill="black" fill-rule="evenodd"/>
</svg>