<svg xmlns="http://www.w3.org/2000/svg" width="532" height="324" viewBox="0 0 532 324" version="1.1">
	<path d="M 33.608 132.122 C 22.087 142.679, 14.215 155.547, 9.393 171.703 C 5.857 183.551, 5.642 201.391, 8.887 213.500 C 13.274 229.864, 21.580 243.692, 33.980 255.274 L 41.181 262 106.051 262 C 163.111 262, 171.076 261.815, 172.211 260.467 C 172.920 259.623, 175.681 256.811, 178.347 254.217 C 189.552 243.313, 198.116 228.618, 202.075 213.500 C 204.990 202.367, 204.990 184.633, 202.075 173.500 C 197.884 157.497, 189.032 142.781, 176.897 131.646 L 170.745 126 105.517 126 L 40.289 126 33.608 132.122 M 287.536 127.055 C 261.727 131.063, 240.693 149.508, 232.858 175 C 229.607 185.580, 229.607 201.420, 232.858 212 C 235.404 220.283, 240.272 229.622, 244.848 235 L 247.826 238.500 238.913 247.615 C 234.011 252.629, 230 257.209, 230 257.794 C 230 259.169, 232.831 262, 234.206 262 C 234.791 262, 239.371 257.995, 244.385 253.101 L 253.500 244.202 257.901 247.612 C 264.078 252.400, 273.366 256.742, 281 258.410 C 293.256 261.088, 298.315 261.716, 301.406 260.943 C 303.108 260.517, 307.425 259.642, 311 258.999 C 334.820 254.711, 356.200 234.168, 362.517 209.500 C 364.524 201.662, 364.513 185.270, 362.495 177.500 C 360.580 170.126, 355.270 158.857, 351.185 153.500 L 348.136 149.500 356.568 140.879 C 364.975 132.283, 366.422 129.425, 363.564 127.053 C 361.535 125.369, 359.801 126.545, 350.620 135.833 L 342.741 143.805 336.839 139.460 C 322.768 129.102, 304.292 124.453, 287.536 127.055 M 423.750 127.080 C 422.207 127.979, 422 129.866, 422 143.050 L 422 158 407.934 158 C 393.308 158, 390 158.738, 390 162 C 390 165.262, 393.308 166, 407.934 166 L 422 166 422 194 L 422 222 407.934 222 C 393.308 222, 390 222.738, 390 226 C 390 229.262, 393.308 230, 407.934 230 L 422 230 422 244.965 C 422 259.061, 422.120 259.994, 424.064 261.034 C 428.316 263.310, 429 261.071, 429 244.878 L 429 230 457.500 230 L 486 230 486 244.965 C 486 259.061, 486.120 259.994, 488.064 261.034 C 492.315 263.309, 493 261.069, 493 244.904 L 493 230.052 508.142 229.776 C 521.291 229.536, 523.430 229.270, 524.387 227.750 C 525.191 226.475, 525.191 225.525, 524.387 224.250 C 523.430 222.730, 521.291 222.464, 508.142 222.224 L 493 221.948 493 194 L 493 166.052 508.142 165.776 C 521.291 165.536, 523.430 165.270, 524.387 163.750 C 525.191 162.475, 525.191 161.525, 524.387 160.250 C 523.430 158.730, 521.291 158.464, 508.142 158.224 L 493 157.948 493 143.096 C 493 126.931, 492.315 124.691, 488.064 126.966 C 486.120 128.006, 486 128.939, 486 143.035 L 486 158 457.500 158 L 429 158 429 143.200 C 429 126.584, 428.299 124.431, 423.750 127.080 M 35.107 140.905 C 20.998 155.652, 14.035 173.031, 14.035 193.500 C 14.035 214.314, 21.179 231.858, 35.686 246.665 L 42.871 254 104.994 254 L 167.117 254 171.183 250.750 C 173.420 248.963, 177.682 244.399, 180.655 240.609 C 204.532 210.171, 202.008 167.051, 174.750 139.758 L 169 134 105.357 134 L 41.714 134 35.107 140.905 M 282.645 135.584 C 262.642 140.426, 244.844 158.146, 239.543 178.495 C 237.572 186.062, 237.561 200.893, 239.520 208.416 C 241.366 215.503, 246.114 225.257, 250.026 230 L 252.913 233.500 273.457 213.009 L 294 192.518 294 163.259 L 294 134 291.250 134.083 C 289.738 134.129, 285.865 134.804, 282.645 135.584 M 302 159.246 L 302 184.493 319.750 166.738 L 337.500 148.982 334.500 146.479 C 328.021 141.074, 310.422 134, 303.451 134 C 302.221 134, 302 137.853, 302 159.246 M 322.241 175.259 L 302 195.518 302 224.259 C 302 256.994, 301.008 254.162, 311.540 251.485 C 343.928 243.252, 363.260 210.795, 355.003 178.511 C 352.890 170.249, 345.027 155, 342.881 155 C 342.661 155, 333.373 164.117, 322.241 175.259 M 429 194 L 429 222 457.500 222 L 486 222 486 194 L 486 166 457.500 166 L 429 166 429 194 M 276 221.525 L 258.500 239.073 261 241.046 C 266.269 245.205, 278.952 250.810, 285.903 252.052 C 289.813 252.751, 293.242 253.092, 293.524 252.810 C 293.806 252.528, 293.916 241.425, 293.768 228.137 L 293.500 203.977 276 221.525 " stroke="none" fill="black" fill-rule="evenodd"/>
</svg>