<svg xmlns="http://www.w3.org/2000/svg" width="403" height="324" viewBox="0 0 403 324" version="1.1">
	<path d="M 7.571 127.571 C 6.175 128.968, 6 136.372, 6 194 C 6 251.628, 6.175 259.032, 7.571 260.429 C 8.436 261.293, 9.666 262, 10.305 262 C 12.018 262, 78 195.721, 78 194 C 78 192.279, 12.018 126, 10.305 126 C 9.666 126, 8.436 126.707, 7.571 127.571 M 159.536 127.055 C 133.727 131.063, 112.693 149.508, 104.858 175 C 101.607 185.580, 101.607 201.420, 104.858 212 C 107.404 220.283, 112.272 229.622, 116.848 235 L 119.826 238.500 110.913 247.615 C 106.011 252.629, 102 257.209, 102 257.794 C 102 259.028, 104.774 262, 105.926 262 C 106.357 262, 110.845 257.945, 115.901 252.990 L 125.093 243.980 129.752 247.537 C 136.027 252.328, 145.549 256.757, 153.200 258.443 C 165.272 261.102, 170.170 261.678, 173.823 260.869 C 175.845 260.421, 180.425 259.509, 184 258.843 C 187.655 258.163, 194.440 255.665, 199.500 253.136 C 206.666 249.556, 210.130 246.994, 216.500 240.564 C 229.816 227.122, 236 212.197, 236 193.500 C 236 178.619, 232.512 167.516, 223.784 154.618 L 219.804 148.736 228.402 140.098 C 237.035 131.425, 238.224 129.260, 235.564 127.053 C 233.534 125.368, 231.801 126.545, 222.602 135.851 L 214.704 143.842 209.602 140.029 C 195.293 129.338, 176.387 124.439, 159.536 127.055 M 319.531 127.056 C 291.373 131.428, 268.733 152.985, 263.484 180.421 C 261.356 191.540, 261.513 195.669, 264.117 197.062 C 267.328 198.781, 268.564 196.672, 269.826 187.325 C 273.051 163.435, 286.629 145.983, 308.803 137.225 C 314.803 134.856, 316.853 134.576, 328.500 134.540 C 339.626 134.506, 342.484 134.840, 348.326 136.857 C 357.442 140.004, 368.960 147.864, 374.660 154.828 C 382.771 164.737, 388.929 180.812, 388.983 192.215 C 389.002 196.428, 391.359 198.498, 394.276 196.866 C 398.091 194.731, 395.123 176.088, 388.982 163.615 C 376.499 138.258, 347.089 122.777, 319.531 127.056 M 154.072 135.591 C 143.666 138.388, 135.974 142.984, 127.479 151.479 C 115.117 163.841, 110 176.143, 110 193.500 C 110 207.330, 114.493 221.001, 121.995 230 L 124.913 233.500 145.457 213.009 L 166 192.518 166 163.259 L 166 134 162.750 134.066 C 160.963 134.102, 157.057 134.788, 154.072 135.591 M 173 159.747 L 173 185.493 191.250 167.238 L 209.500 148.983 206.500 146.479 C 202.105 142.812, 188.312 136.347, 182.201 135.090 C 172.053 133.003, 173 130.465, 173 159.747 M 14 194 L 14 248.495 41.248 221.248 L 68.495 194 41.248 166.752 L 14 139.505 14 194 M 193.226 175.298 L 173 195.611 173 224.306 C 173 252.092, 173.062 253, 174.951 253 C 183.685 253, 200.462 245.805, 208.701 238.526 C 215.695 232.347, 223.087 221.030, 226.060 211.950 C 229.535 201.339, 229.537 185.666, 226.064 175.062 C 223.758 168.021, 216.693 155.970, 214.476 155.295 C 213.913 155.124, 204.350 164.125, 193.226 175.298 M 295.244 223.256 C 276.960 241.546, 262 257.206, 262 258.056 C 262 261.988, 262.212 262, 329.500 262 C 396.818 262, 397 261.989, 397 258.044 C 397 256.369, 331.151 190, 329.489 190 C 328.939 190, 313.529 204.965, 295.244 223.256 M 302 226.500 L 274.514 254 329.500 254 L 384.486 254 357 226.500 C 341.883 211.375, 329.508 199, 329.500 199 C 329.492 199, 317.117 211.375, 302 226.500 M 147.671 220.829 L 129.863 238.658 133.291 241.273 C 140.947 247.112, 156.061 253, 163.394 253 L 166 253 166 228 C 166 214.250, 165.883 203, 165.740 203 C 165.596 203, 157.465 211.023, 147.671 220.829 " stroke="none" fill="black" fill-rule="evenodd"/>
</svg>