<svg xmlns="http://www.w3.org/2000/svg" width="148" height="324" viewBox="0 0 148 324" version="1.1">
	<path d="M 55.571 63.571 C 54.707 64.436, 54 65.317, 54 65.531 C 54 66.316, 71.159 100.529, 71.965 101.349 C 74.275 103.702, 76.913 100.229, 84.760 84.501 C 89.292 75.417, 93 67.143, 93 66.115 C 93 63.770, 90.710 61.790, 88.832 62.511 C 88.050 62.811, 84.520 68.894, 80.986 76.028 C 77.453 83.163, 74.308 89, 73.997 89 C 73.687 89, 70.748 83.534, 67.467 76.853 C 59.925 61.499, 58.847 60.296, 55.571 63.571 M 7.571 127.571 C 6.175 128.968, 6 136.372, 6 194 C 6 251.628, 6.175 259.032, 7.571 260.429 C 8.968 261.825, 16.343 261.998, 73.821 261.985 C 109.395 261.976, 139.072 261.606, 139.772 261.162 C 141.639 259.977, 141.639 128.023, 139.772 126.838 C 139.072 126.394, 109.395 126.024, 73.821 126.015 C 16.343 126.002, 8.968 126.175, 7.571 127.571 M 14 136.674 L 14 139.349 16.500 137 C 17.875 135.708, 19 134.505, 19 134.326 C 19 134.147, 17.875 134, 16.500 134 C 14.457 134, 14 134.488, 14 136.674 M 31.054 135.728 C 24.787 137.940, 17.726 145.297, 15.534 151.899 C 13.881 156.875, 13.875 157.704, 15.430 166.205 C 18.772 184.475, 25.252 200.548, 35.502 216 C 41.742 225.407, 57.252 241.032, 66.665 247.394 L 73.830 252.237 81.502 246.934 C 104.372 231.124, 121.135 207.270, 129.387 178.792 C 134.271 161.938, 133.879 154.408, 127.646 145.337 C 121.010 135.681, 107.553 131.548, 95.795 135.554 C 86.628 138.678, 78 149.548, 78 157.974 C 78 161.875, 75.695 166, 73.515 166 C 71.013 166, 69 162.918, 69 159.088 C 69 153.213, 63.589 143.376, 58.298 139.633 C 55.861 137.910, 52.435 135.972, 50.684 135.326 C 46.195 133.671, 36.306 133.873, 31.054 135.728 M 67.430 138.054 C 69.444 140.283, 71.593 143.208, 72.207 144.554 L 73.321 147.001 75.260 143.750 C 76.327 141.963, 78.593 139.037, 80.296 137.250 L 83.392 134 73.580 134 L 63.767 134 67.430 138.054 M 130.563 137.245 C 132.178 139.030, 133.613 140.680, 133.750 140.912 C 133.887 141.144, 134 139.683, 134 137.667 C 134 134.211, 133.816 134, 130.813 134 L 127.626 134 130.563 137.245 M 133.235 191.168 C 133.106 192.086, 130.490 197.851, 127.422 203.979 C 118.333 222.136, 103.682 239.885, 89.137 250.358 L 84.773 253.500 109.035 253.768 C 122.379 253.916, 133.462 253.872, 133.663 253.671 C 133.864 253.469, 133.903 238.949, 133.750 221.402 C 133.596 203.856, 133.365 190.251, 133.235 191.168 M 14.012 222.250 L 14 254 38.644 254 L 63.288 254 58.394 250.357 C 41.604 237.857, 26.096 218.152, 17.435 198.311 L 14.024 190.500 14.012 222.250 " stroke="none" fill="black" fill-rule="evenodd"/>
</svg>