<svg xmlns="http://www.w3.org/2000/svg" width="308" height="324" viewBox="0 0 308 324" version="1.1">
	<path d="M 71.200 127.200 C 70.292 128.108, 70 143.689, 70 191.200 L 70 254 39.571 254 C 13.242 254, 8.931 254.212, 7.571 255.571 C 5.596 257.546, 5.598 258.455, 7.579 260.436 C 8.990 261.847, 16.058 261.987, 74.220 261.757 C 134.934 261.517, 139.356 261.383, 140.386 259.750 C 141.191 258.474, 141.191 257.526, 140.386 256.250 C 139.381 254.655, 136.566 254.477, 108.641 254.236 L 78 253.971 78 225.986 L 78 198 108.250 197.985 C 124.888 197.976, 139.087 197.597, 139.805 197.142 C 140.836 196.487, 141.110 189.130, 141.110 162 C 141.110 134.870, 140.836 127.513, 139.805 126.858 C 137.614 125.469, 72.607 125.793, 71.200 127.200 M 78 162 L 78 190 106 190 L 134 190 134 162 L 134 134 106 134 L 78 134 78 162 M 223.381 190.977 C 201.324 194.306, 182.197 208.680, 172.490 229.219 C 167.002 240.832, 164.181 258.246, 167.361 260.885 C 168.349 261.705, 186.615 261.944, 234.002 261.757 C 294.924 261.517, 299.356 261.383, 300.386 259.750 C 301.191 258.474, 301.191 257.526, 300.386 256.250 C 299.380 254.654, 296.549 254.477, 268.293 254.236 L 237.303 253.972 238.124 248.776 C 240.197 235.664, 245.678 224.826, 255 215.404 C 264.973 205.325, 277.759 199.339, 291.895 198.132 C 300.012 197.438, 302.565 195.665, 300.360 192.250 C 298.746 189.751, 287.015 190.396, 277.099 193.529 C 252.767 201.215, 235.038 221.717, 230.864 246.996 L 229.707 254 201.853 254 L 174 254 174 250.552 C 174 248.655, 175.109 243.593, 176.465 239.302 C 183.685 216.452, 203.720 200.404, 227.792 198.190 C 235.992 197.435, 238.540 195.676, 236.394 192.250 C 235.137 190.243, 230.953 189.834, 223.381 190.977 " stroke="none" fill="black" fill-rule="evenodd"/>
</svg>