<svg xmlns="http://www.w3.org/2000/svg" width="244" height="324" viewBox="0 0 244 324" version="1.1">
	<path d="M 39.571 127.571 C 38.176 128.966, 38 136.152, 38 191.571 L 38 254 23.571 254 C 11.788 254, 8.855 254.288, 7.571 255.571 C 5.598 257.545, 5.598 258.455, 7.571 260.429 C 8.936 261.793, 13.463 262, 42 262 C 70.537 262, 75.064 261.793, 76.429 260.429 C 77.293 259.564, 78 258.471, 78 258 C 78 257.529, 77.293 256.436, 76.429 255.571 C 75.145 254.288, 72.212 254, 60.429 254 L 46 254 46 191.571 C 46 136.152, 45.824 128.966, 44.429 127.571 C 43.564 126.707, 42.471 126, 42 126 C 41.529 126, 40.436 126.707, 39.571 127.571 M 103.200 127.200 C 101.465 128.935, 101.465 259.065, 103.200 260.800 C 104.109 261.709, 120.229 262, 169.629 262 C 227.594 262, 235.032 261.825, 236.429 260.429 C 237.825 259.032, 238 251.628, 238 194 C 238 136.372, 237.825 128.968, 236.429 127.571 C 235.032 126.175, 227.594 126, 169.629 126 C 120.229 126, 104.109 126.291, 103.200 127.200 M 110 146 L 110 158 122 158 L 134 158 134 146 L 134 134 122 134 L 110 134 110 146 M 142 146 L 142 158 170 158 L 198 158 198 146 L 198 134 170 134 L 142 134 142 146 M 206 146 L 206 158 218 158 L 230 158 230 146 L 230 134 218 134 L 206 134 206 146 M 110 194 L 110 222 122 222 L 134 222 134 194 L 134 166 122 166 L 110 166 110 194 M 142 194 L 142 222 170 222 L 198 222 198 194 L 198 166 170 166 L 142 166 142 194 M 206 194 L 206 222 218 222 L 230 222 230 194 L 230 166 218 166 L 206 166 206 194 M 110 242 L 110 254 122 254 L 134 254 134 242 L 134 230 122 230 L 110 230 110 242 M 142 242 L 142 254 170 254 L 198 254 198 242 L 198 230 170 230 L 142 230 142 242 M 206 242 L 206 254 218 254 L 230 254 230 242 L 230 230 218 230 L 206 230 206 242 " stroke="none" fill="black" fill-rule="evenodd"/>
</svg>