<svg xmlns="http://www.w3.org/2000/svg" width="308" height="324" viewBox="0 0 308 324" version="1.1">
	<path d="M 39.571 127.571 C 38.288 128.855, 38 131.788, 38 143.571 L 38 158 23.571 158 C 11.788 158, 8.855 158.288, 7.571 159.571 C 5.598 161.545, 5.598 162.455, 7.571 164.429 C 8.855 165.712, 11.788 166, 23.571 166 L 38 166 38 194 L 38 222 23.571 222 C 11.788 222, 8.855 222.288, 7.571 223.571 C 6.707 224.436, 6 225.529, 6 226 C 6 226.471, 6.707 227.564, 7.571 228.429 C 8.855 229.712, 11.788 230, 23.571 230 L 38 230 38 244.429 C 38 256.212, 38.288 259.145, 39.571 260.429 C 40.436 261.293, 41.529 262, 42 262 C 42.471 262, 43.564 261.293, 44.429 260.429 C 45.712 259.145, 46 256.212, 46 244.429 L 46 230 74 230 L 102 230 102 244.965 C 102 259.324, 102.088 259.977, 104.183 261.098 C 106.042 262.093, 106.636 261.933, 108.183 260.022 C 109.744 258.095, 110 255.823, 110 243.916 L 110 230.053 124.643 229.777 C 137.314 229.537, 139.433 229.264, 140.387 227.750 C 141.191 226.475, 141.191 225.525, 140.387 224.250 C 139.433 222.736, 137.314 222.463, 124.643 222.223 L 110 221.947 110 194 L 110 166.053 124.643 165.777 C 137.314 165.537, 139.433 165.264, 140.387 163.750 C 141.191 162.475, 141.191 161.525, 140.387 160.250 C 139.433 158.736, 137.314 158.463, 124.643 158.223 L 110 157.947 110 144.084 C 110 132.177, 109.744 129.905, 108.183 127.978 C 106.636 126.067, 106.042 125.907, 104.183 126.902 C 102.088 128.023, 102 128.676, 102 143.035 L 102 158 74 158 L 46 158 46 143.571 C 46 131.788, 45.712 128.855, 44.429 127.571 C 43.564 126.707, 42.471 126, 42 126 C 41.529 126, 40.436 126.707, 39.571 127.571 M 46 194 L 46 222 74 222 L 102 222 102 194 L 102 166 74 166 L 46 166 46 194 M 167.750 191.080 C 165.422 192.436, 165.524 195.675, 167.934 196.965 C 169.149 197.615, 181.508 198, 201.179 198 L 232.489 198 264.745 230.245 C 292.528 258.018, 297.243 262.336, 298.750 261.386 C 299.713 260.779, 300.500 259.327, 300.500 258.161 C 300.500 256.710, 290.085 245.607, 267.535 223.020 L 234.570 190 202.035 190.030 C 181.803 190.049, 168.838 190.446, 167.750 191.080 " stroke="none" fill="black" fill-rule="evenodd"/>
</svg>