<svg xmlns="http://www.w3.org/2000/svg" width="500" height="324" viewBox="0 0 500 324" version="1.1">
	<path d="M 103.571 127.571 C 102.707 128.436, 102 129.274, 102 129.433 C 102 130.470, 167.331 261.087, 168.082 261.550 C 168.597 261.869, 169.801 261.880, 170.759 261.576 C 172.684 260.964, 237 133.329, 237 130.120 C 237 127.640, 234.676 125.804, 232.563 126.614 C 231.577 126.993, 218.122 152.759, 200.311 188.378 L 169.750 249.493 139.771 189.497 C 123.282 156.499, 109.094 128.713, 108.241 127.750 C 106.332 125.596, 105.576 125.567, 103.571 127.571 M 290.223 127.021 C 278.514 129.441, 267.763 139.296, 263.974 151.080 C 261.830 157.748, 261.732 158.949, 262.763 165.917 C 265.339 183.326, 273.441 203.786, 284.019 219.593 C 291.259 230.412, 308.331 247.215, 319.816 254.826 C 324.939 258.222, 329.513 261, 329.981 261 C 330.448 261, 331.881 260.096, 333.165 258.992 C 334.449 257.887, 339.100 254.354, 343.500 251.140 C 367.700 233.464, 385.283 207.653, 392.984 178.500 C 396.053 166.880, 396.583 158.518, 394.667 151.928 C 387.098 125.890, 354.685 117.820, 336.213 137.374 C 333.550 140.193, 330.812 143.400, 330.128 144.500 C 329.325 145.790, 328.705 146.079, 328.380 145.315 C 325.738 139.097, 316.687 131.212, 309.132 128.547 C 303.746 126.646, 295.321 125.966, 290.223 127.021 M 288.764 134.996 C 281.375 137.221, 274.353 143.890, 271.481 151.410 C 266.660 164.033, 274.787 192.352, 289.698 214.889 C 296.537 225.226, 311.771 240.706, 321.728 247.437 L 328.956 252.323 335.996 247.642 C 363.206 229.548, 383.795 196.707, 388.528 163.847 C 390.094 152.974, 382.703 140.700, 371.754 135.990 C 367.507 134.162, 365.294 133.846, 359.396 134.225 C 345.297 135.130, 335.639 144.441, 333.474 159.218 C 332.634 164.950, 330.901 166.732, 327.620 165.237 C 325.782 164.399, 325.175 163.122, 324.697 159.091 C 322.949 144.327, 311.621 133.916, 297.500 134.096 C 294.200 134.138, 290.269 134.543, 288.764 134.996 M 7.571 159.571 C 6.207 160.936, 6 165.463, 6 194 C 6 222.537, 6.207 227.064, 7.571 228.429 C 8.936 229.793, 13.463 230, 42 230 C 70.537 230, 75.064 229.793, 76.429 228.429 C 77.793 227.064, 78 222.537, 78 194 C 78 165.463, 77.793 160.936, 76.429 159.571 C 75.064 158.207, 70.537 158, 42 158 C 13.463 158, 8.936 158.207, 7.571 159.571 M 455.750 159.080 C 454.207 159.979, 454 161.866, 454 175.050 L 454 190 439.934 190 C 425.308 190, 422 190.738, 422 194 C 422 197.262, 425.308 198, 439.934 198 L 454 198 454 212.965 C 454 227.061, 454.120 227.994, 456.064 229.034 C 460.315 231.309, 461 229.069, 461 212.904 L 461 198.052 476.142 197.776 C 489.291 197.536, 491.430 197.270, 492.387 195.750 C 493.191 194.475, 493.191 193.525, 492.387 192.250 C 491.430 190.730, 489.291 190.464, 476.142 190.224 L 461 189.948 461 175.174 C 461 158.586, 460.297 156.432, 455.750 159.080 M 14 194 L 14 222 42 222 L 70 222 70 194 L 70 166 42 166 L 14 166 14 194 " stroke="none" fill="black" fill-rule="evenodd"/>
</svg>