<svg xmlns="http://www.w3.org/2000/svg" width="436" height="324" viewBox="0 0 436 324" version="1.1">
	<path d="M 72.316 62.784 C 70.369 64.022, 54.007 97.855, 54.604 99.410 C 55.269 101.144, 57.524 102.120, 59.295 101.440 C 60.007 101.167, 63.480 95.106, 67.014 87.972 C 70.547 80.837, 73.691 75, 74 75 C 74.309 75, 77.453 80.837, 80.986 87.972 C 84.520 95.106, 87.993 101.167, 88.705 101.440 C 90.487 102.124, 92.732 101.141, 93.407 99.381 C 93.997 97.844, 77.582 64.037, 75.628 62.765 C 74.214 61.845, 73.789 61.847, 72.316 62.784 M 135.571 127.571 C 134.219 128.924, 134 132.988, 134 156.774 L 134 184.405 120.667 171.202 C 113.334 163.941, 106.841 158, 106.239 158 C 104.822 158, 102 160.822, 102 162.239 C 102 162.841, 107.941 169.334, 115.202 176.667 L 128.405 190 68.774 190 C 15.897 190, 8.965 190.178, 7.571 191.571 C 5.598 193.545, 5.598 194.455, 7.571 196.429 C 8.965 197.822, 15.897 198, 68.774 198 L 128.405 198 115.202 211.333 C 107.941 218.666, 102 225.159, 102 225.761 C 102 227.178, 104.822 230, 106.239 230 C 106.841 230, 113.334 224.059, 120.667 216.798 L 134 203.595 134 231.226 C 134 255.012, 134.219 259.076, 135.571 260.429 C 136.436 261.293, 137.529 262, 138 262 C 138.471 262, 139.564 261.293, 140.429 260.429 C 141.825 259.032, 142 251.628, 142 194 C 142 136.372, 141.825 128.968, 140.429 127.571 C 139.564 126.707, 138.471 126, 138 126 C 137.529 126, 136.436 126.707, 135.571 127.571 M 199.656 126.750 C 195.525 133.458, 166.200 194.358, 166.600 195.400 C 167.451 197.618, 170.109 198.213, 171.895 196.584 C 172.778 195.779, 179.794 182.493, 187.486 167.060 C 195.178 151.627, 201.709 139, 202 139 C 202.290 139, 209.036 152.041, 216.990 167.980 C 224.944 183.919, 232.083 197.201, 232.853 197.497 C 234.717 198.213, 237 196.217, 237 193.871 C 237 191.637, 205.272 127.833, 203.630 126.765 C 202.160 125.809, 200.240 125.802, 199.656 126.750 M 319.500 127.042 C 293.957 130.927, 272.658 149.621, 264.858 175 C 261.607 185.580, 261.607 201.420, 264.858 212 C 271.941 235.047, 290.090 252.593, 313.113 258.652 C 321.646 260.898, 337.436 260.856, 346 258.566 C 362.585 254.130, 379.474 241.106, 387.564 226.513 C 391.817 218.842, 396 205.795, 396 200.203 C 396 196.925, 397.348 195.276, 412.500 180.030 C 421.575 170.897, 429 162.745, 429 161.913 C 429 160.207, 427.098 158, 425.627 158 C 425.093 158, 418.292 164.309, 410.515 172.020 L 396.375 186.039 394.564 178.356 C 389.030 154.884, 369.295 134.470, 346.500 128.638 C 338.545 126.602, 326.910 125.915, 319.500 127.042 M 313.345 135.904 C 302.669 138.959, 296.034 142.960, 287.489 151.497 C 275.028 163.945, 270 176.021, 270 193.500 C 270 210.512, 275.128 223.074, 286.993 235.125 C 298.822 247.141, 312.541 253, 328.845 253 C 339.674 253, 345.916 251.576, 355.820 246.847 C 371.079 239.562, 382.717 225.246, 387.003 208.489 C 390.401 195.202, 390.924 196.388, 374.435 179.987 C 358.999 164.634, 357.673 163.016, 358.581 160.650 C 360.141 156.585, 362.446 157.973, 375.286 170.707 C 387.391 182.711, 388.144 183.284, 387.493 180 C 385.397 169.411, 377.963 156.817, 369.142 148.911 C 362.779 143.208, 350.137 136.723, 342.201 135.090 C 334.350 133.475, 320.464 133.867, 313.345 135.904 M 199.656 190.750 C 195.525 197.458, 166.200 258.358, 166.600 259.400 C 167.451 261.618, 170.109 262.213, 171.895 260.584 C 172.778 259.779, 179.794 246.493, 187.486 231.060 C 195.178 215.627, 201.709 203, 202 203 C 202.290 203, 209.036 216.041, 216.990 231.980 C 224.944 247.919, 232.083 261.201, 232.853 261.497 C 234.717 262.213, 237 260.217, 237 257.871 C 237 255.637, 205.272 191.833, 203.630 190.765 C 202.160 189.809, 200.240 189.802, 199.656 190.750 " stroke="none" fill="black" fill-rule="evenodd"/>
</svg>