<svg xmlns="http://www.w3.org/2000/svg" width="244" height="324" viewBox="0 0 244 324" version="1.1">
	<path d="M 71.550 62.918 C 67.869 68.875, 54.190 98.331, 54.604 99.410 C 55.269 101.144, 57.524 102.120, 59.295 101.440 C 60.007 101.167, 63.480 95.106, 67.014 87.972 C 70.547 80.837, 73.691 75, 74 75 C 74.309 75, 77.453 80.837, 80.986 87.972 C 84.520 95.106, 87.993 101.167, 88.705 101.440 C 90.487 102.124, 92.732 101.141, 93.407 99.381 C 93.997 97.844, 77.582 64.037, 75.628 62.765 C 74.071 61.751, 72.229 61.820, 71.550 62.918 M 135.571 127.571 C 134.219 128.924, 134 132.988, 134 156.774 L 134 184.405 120.667 171.202 C 113.334 163.941, 106.841 158, 106.239 158 C 104.822 158, 102 160.822, 102 162.239 C 102 162.841, 107.941 169.334, 115.202 176.667 L 128.405 190 68.774 190 C 15.897 190, 8.965 190.178, 7.571 191.571 C 5.598 193.545, 5.598 194.455, 7.571 196.429 C 8.965 197.822, 15.897 198, 68.774 198 L 128.405 198 115.202 211.333 C 107.941 218.666, 102 225.159, 102 225.761 C 102 227.178, 104.822 230, 106.239 230 C 106.841 230, 113.334 224.059, 120.667 216.798 L 134 203.595 134 231.226 C 134 255.012, 134.219 259.076, 135.571 260.429 C 137.678 262.535, 138.598 262.412, 140.443 259.777 C 141.813 257.823, 142 249.904, 142 194 C 142 138.096, 141.813 130.177, 140.443 128.223 C 138.598 125.588, 137.678 125.465, 135.571 127.571 M 199.232 127.250 C 197.350 129.573, 166 192.975, 166 194.459 C 166 196.786, 169.809 198.404, 171.663 196.865 C 172.507 196.164, 179.622 182.749, 187.474 167.052 L 201.750 138.514 216.313 167.626 C 224.486 183.965, 231.617 197.023, 232.565 197.386 C 234.679 198.198, 237 196.358, 237 193.871 C 237 191.637, 205.272 127.833, 203.630 126.765 C 201.949 125.672, 200.369 125.846, 199.232 127.250 M 199.232 191.250 C 197.350 193.573, 166 256.975, 166 258.459 C 166 260.786, 169.809 262.404, 171.663 260.865 C 172.507 260.164, 179.622 246.749, 187.474 231.052 L 201.750 202.514 216.313 231.626 C 224.486 247.965, 231.617 261.023, 232.565 261.386 C 234.679 262.198, 237 260.358, 237 257.871 C 237 255.637, 205.272 191.833, 203.630 190.765 C 201.949 189.672, 200.369 189.846, 199.232 191.250 " stroke="none" fill="black" fill-rule="evenodd"/>
</svg>