<svg xmlns="http://www.w3.org/2000/svg" width="403" height="324" viewBox="0 0 403 324" version="1.1">
	<path d="M 72.316 62.784 C 70.369 64.022, 54.007 97.855, 54.604 99.410 C 55.269 101.144, 57.524 102.120, 59.295 101.440 C 60.007 101.167, 63.480 95.106, 67.014 87.972 C 70.547 80.837, 73.691 75, 74 75 C 74.309 75, 77.453 80.837, 80.986 87.972 C 84.520 95.106, 88.050 101.189, 88.832 101.489 C 90.716 102.212, 93 100.227, 93 97.866 C 93 95.626, 77.264 63.831, 75.628 62.765 C 74.214 61.845, 73.789 61.847, 72.316 62.784 M 135.571 127.571 C 134.218 128.925, 134 133.026, 134 157.194 L 134 185.245 120.495 171.623 C 113.067 164.130, 106.574 158, 106.066 158 C 104.788 158, 102 160.906, 102 162.239 C 102 162.841, 107.941 169.334, 115.202 176.667 L 128.405 190 68.774 190 C 15.897 190, 8.965 190.178, 7.571 191.571 C 5.598 193.545, 5.598 194.455, 7.571 196.429 C 8.965 197.822, 15.897 198, 68.774 198 L 128.405 198 115.202 211.333 C 107.941 218.666, 102 225.159, 102 225.761 C 102 227.078, 104.782 230, 106.035 230 C 106.526 230, 113.019 223.834, 120.464 216.299 L 134 202.597 134 230.727 C 134 254.967, 134.217 259.074, 135.571 260.429 C 137.502 262.359, 138.423 262.401, 139.896 260.625 C 141.524 258.664, 141.524 129.336, 139.896 127.375 C 138.423 125.599, 137.502 125.641, 135.571 127.571 M 199.232 127.250 C 198.675 127.938, 190.951 143.048, 182.067 160.829 C 171.616 181.746, 166.120 193.803, 166.496 194.986 C 167.266 197.413, 169.895 198.332, 171.726 196.813 C 172.535 196.141, 179.622 182.749, 187.474 167.052 L 201.750 138.514 216.313 167.626 C 224.486 183.965, 231.617 197.023, 232.565 197.386 C 234.679 198.198, 237 196.358, 237 193.871 C 237 191.637, 205.272 127.833, 203.630 126.765 C 201.949 125.672, 200.369 125.846, 199.232 127.250 M 263.750 127.080 C 262.138 128.019, 262 130.762, 262 161.850 C 262 186.767, 262.314 195.914, 263.200 196.800 C 264.081 197.681, 272.578 198, 295.200 198 L 326 198 326 228.965 C 326 259.226, 326.047 259.955, 328.064 261.034 C 333.071 263.714, 333 264.644, 333 196.742 L 333 133.728 337.750 134.373 C 350.992 136.170, 366.358 144.685, 374.660 154.828 C 382.771 164.737, 388.929 180.812, 388.983 192.215 C 389.003 196.661, 391.614 198.734, 394.518 196.611 C 398.648 193.591, 393.799 171.015, 386.406 158.845 C 372.936 136.671, 346.600 123.659, 321.743 126.897 C 301.757 129.501, 285.085 139.402, 274.439 154.990 L 269.500 162.221 269.225 145.433 C 268.917 126.656, 268.260 124.453, 263.750 127.080 M 315.912 135.051 C 292.160 140.680, 272.618 161.955, 270.263 184.750 L 269.720 190 297.860 190 L 326 190 326 162 L 326 134 322.750 134.100 C 320.962 134.156, 317.885 134.584, 315.912 135.051 M 199.232 191.250 C 198.675 191.938, 190.951 207.048, 182.067 224.829 C 171.616 245.746, 166.120 257.803, 166.496 258.986 C 167.266 261.413, 169.895 262.332, 171.726 260.813 C 172.535 260.141, 179.622 246.749, 187.474 231.052 L 201.750 202.514 216.313 231.626 C 224.486 247.965, 231.617 261.023, 232.565 261.386 C 234.679 262.198, 237 260.358, 237 257.871 C 237 255.637, 205.272 191.833, 203.630 190.765 C 201.949 189.672, 200.369 189.846, 199.232 191.250 " stroke="none" fill="black" fill-rule="evenodd"/>
</svg>