<svg xmlns="http://www.w3.org/2000/svg" width="403" height="324" viewBox="0 0 403 324" version="1.1">
	<path d="M 135.571 127.571 C 134.217 128.926, 134 133.034, 134 157.282 L 134 185.421 120.750 171.708 C 113.463 164.166, 106.970 157.996, 106.321 157.998 C 104.836 158.001, 102 160.784, 102 162.239 C 102 162.841, 107.941 169.334, 115.202 176.667 L 128.405 190 68.774 190 C 15.897 190, 8.965 190.178, 7.571 191.571 C 5.598 193.545, 5.598 194.455, 7.571 196.429 C 8.965 197.822, 15.897 198, 68.774 198 L 128.405 198 115.202 211.333 C 107.941 218.666, 102 225.159, 102 225.761 C 102 227.206, 104.833 230, 106.297 230 C 106.932 230, 113.419 223.813, 120.713 216.250 L 133.973 202.500 133.987 230.679 C 133.998 254.950, 134.218 259.075, 135.571 260.429 C 137.678 262.535, 138.598 262.412, 140.443 259.777 C 141.813 257.823, 142 249.904, 142 194 C 142 138.096, 141.813 130.177, 140.443 128.223 C 138.598 125.588, 137.678 125.465, 135.571 127.571 M 199.232 127.250 C 197.350 129.573, 166 192.975, 166 194.459 C 166 196.786, 169.809 198.404, 171.663 196.865 C 172.507 196.164, 179.622 182.749, 187.474 167.052 L 201.750 138.514 216.313 167.626 C 224.486 183.965, 231.617 197.023, 232.565 197.386 C 234.679 198.198, 237 196.358, 237 193.871 C 237 191.637, 205.272 127.833, 203.630 126.765 C 201.949 125.672, 200.369 125.846, 199.232 127.250 M 263.750 127.080 C 262.138 128.019, 262 130.762, 262 161.850 C 262 186.767, 262.314 195.914, 263.200 196.800 C 264.081 197.681, 272.578 198, 295.200 198 L 326 198 326 228.965 C 326 259.226, 326.047 259.955, 328.064 261.034 C 333.071 263.714, 333 264.644, 333 196.742 L 333 133.728 337.750 134.373 C 364.807 138.045, 385.768 160.578, 388.569 189.002 C 389.335 196.777, 391.137 199.082, 394.518 196.611 C 397.126 194.703, 396.033 182.713, 392.250 171.737 C 385.165 151.183, 369.635 136.214, 348.167 129.247 C 338.467 126.099, 322.987 125.687, 313 128.312 C 298.435 132.140, 283.338 142.232, 275.500 153.379 C 273.300 156.508, 270.952 159.840, 270.282 160.784 C 269.304 162.161, 269.057 159.131, 269.032 145.450 C 268.996 126.458, 268.397 124.373, 263.750 127.080 M 313.500 135.929 C 305.079 138.436, 302.678 139.499, 296.727 143.352 C 282.497 152.566, 271.871 169.188, 270.263 184.750 L 269.720 190 297.860 190 L 326 190 326 162 L 326 134 322.750 134.071 C 320.962 134.110, 316.800 134.946, 313.500 135.929 M 199.232 191.250 C 197.350 193.573, 166 256.975, 166 258.459 C 166 260.786, 169.809 262.404, 171.663 260.865 C 172.507 260.164, 179.622 246.749, 187.474 231.052 L 201.750 202.514 216.313 231.626 C 224.486 247.965, 231.617 261.023, 232.565 261.386 C 234.679 262.198, 237 260.358, 237 257.871 C 237 255.637, 205.272 191.833, 203.630 190.765 C 201.949 189.672, 200.369 189.846, 199.232 191.250 " stroke="none" fill="black" fill-rule="evenodd"/>
</svg>