<svg xmlns="http://www.w3.org/2000/svg" width="403" height="324" viewBox="0 0 403 324" version="1.1">
	<path d="M 39.571 127.571 C 38.176 128.966, 38 136.152, 38 191.571 L 38 254 23.571 254 C 11.788 254, 8.855 254.288, 7.571 255.571 C 5.598 257.545, 5.598 258.455, 7.571 260.429 C 8.936 261.793, 13.463 262, 42 262 C 70.537 262, 75.064 261.793, 76.429 260.429 C 77.293 259.564, 78 258.471, 78 258 C 78 257.529, 77.293 256.436, 76.429 255.571 C 75.145 254.288, 72.212 254, 60.429 254 L 46 254 46 191.571 C 46 136.152, 45.824 128.966, 44.429 127.571 C 43.564 126.707, 42.471 126, 42 126 C 41.529 126, 40.436 126.707, 39.571 127.571 M 103.200 127.200 C 101.465 128.935, 101.465 259.065, 103.200 260.800 C 104.109 261.709, 120.172 261.996, 169.450 261.985 C 205.227 261.976, 235.069 261.608, 235.765 261.167 C 236.763 260.533, 237.029 246.410, 237.029 194 C 237.029 141.590, 236.763 127.467, 235.765 126.833 C 235.069 126.392, 205.228 126.024, 169.450 126.015 C 120.172 126.004, 104.109 126.291, 103.200 127.200 M 317.500 127.421 C 290.225 132.715, 269.111 153.094, 263.511 179.529 C 261.325 189.850, 261.509 195.667, 264.064 197.034 C 267.229 198.728, 268.654 196.792, 269.436 189.733 C 270.476 180.351, 271.892 175.242, 275.679 167.207 C 279.791 158.482, 289.604 147.596, 297.874 142.585 C 303.523 139.162, 314.404 135, 317.704 135 C 318.821 135, 314.783 139.699, 306.736 147.764 C 299.731 154.784, 294 161.293, 294 162.229 C 294 163.164, 294.959 164.443, 296.131 165.070 C 298.073 166.110, 299.495 164.981, 312.131 152.369 L 326 138.527 326 199.228 C 326 259.533, 326.013 259.937, 328.064 261.034 C 333.059 263.708, 333 264.453, 333 199.174 L 333 138.592 346.830 152.296 C 354.437 159.833, 361.097 166, 361.630 166 C 363.106 166, 365 163.788, 365 162.064 C 365 161.219, 359.269 154.784, 352.264 147.764 C 345.260 140.744, 340.222 135, 341.070 135 C 344.497 135, 355.315 139.404, 361.145 143.172 C 376.991 153.414, 386.653 169.561, 388.569 189.002 C 389.112 194.518, 389.690 196.299, 391.197 197.105 C 392.597 197.855, 393.557 197.782, 394.691 196.841 C 397.019 194.909, 395.872 182.506, 392.396 172.024 C 383.904 146.413, 360.229 128.331, 332.919 126.597 C 327.699 126.266, 321.840 126.579, 317.500 127.421 M 110 194 L 110 254 170 254 L 230 254 230 194 L 230 134 170 134 L 110 134 110 194 M 162.355 158.986 C 151.790 161.214, 142.114 169.146, 137.329 179.500 C 133.374 188.059, 133.386 198.895, 137.361 207.610 C 140.861 215.285, 147.689 222.075, 155.480 225.629 C 163.387 229.236, 173.732 229.409, 182.297 226.077 C 189.347 223.334, 197.540 215.648, 201.033 208.500 C 203.125 204.220, 203.479 202.060, 203.488 193.500 C 203.502 181.368, 201.458 176.293, 193.353 168.339 C 185.361 160.497, 172.948 156.752, 162.355 158.986 M 159.627 167.468 C 154.247 169.386, 149.039 173.829, 145.500 179.519 C 141.527 185.908, 140.712 197.311, 143.741 204.129 C 148.389 214.589, 156.227 220.058, 167.616 220.789 C 174.399 221.224, 175.556 221.001, 181.397 218.125 C 193.374 212.229, 199.511 198.958, 196.096 186.337 C 192.933 174.647, 181.616 165.959, 169.663 166.044 C 166.273 166.068, 161.757 166.709, 159.627 167.468 " stroke="none" fill="black" fill-rule="evenodd"/>
</svg>