<svg xmlns="http://www.w3.org/2000/svg" width="244" height="324" viewBox="0 0 244 324" version="1.1">
	<path d="M 151.571 63.571 C 150.707 64.436, 150 65.566, 150 66.083 C 150 67.618, 166.838 100.782, 167.974 101.484 C 170.685 103.159, 172.956 100.143, 180.760 84.501 C 185.292 75.417, 189 67.143, 189 66.115 C 189 63.642, 186.675 61.804, 184.569 62.612 C 183.643 62.967, 179.930 69.156, 176.318 76.363 L 169.751 89.469 163.767 77.484 C 157.953 65.839, 155.511 62, 153.916 62 C 153.491 62, 152.436 62.707, 151.571 63.571 M 199.750 159.080 C 198.787 159.641, 198 160.858, 198 161.786 C 198 162.714, 203.956 169.442, 211.236 176.737 L 224.472 190 164.808 190 C 111.900 190, 104.965 190.178, 103.571 191.571 C 101.598 193.545, 101.598 194.455, 103.571 196.429 C 104.965 197.822, 111.900 198, 164.808 198 L 224.472 198 211.236 211.263 C 203.956 218.558, 198 225.292, 198 226.228 C 198 227.765, 201.626 230.634, 202.554 229.831 C 205.921 226.915, 238 194.499, 238 194.012 C 238 193.123, 202.995 157.991, 202.149 158.030 C 201.792 158.047, 200.713 158.519, 199.750 159.080 M 7.571 191.571 C 6.707 192.436, 6 193.529, 6 194 C 6 194.471, 6.707 195.564, 7.571 196.429 C 8.936 197.793, 13.463 198, 42 198 C 70.537 198, 75.064 197.793, 76.429 196.429 C 77.293 195.564, 78 194.471, 78 194 C 78 193.529, 77.293 192.436, 76.429 191.571 C 75.064 190.207, 70.537 190, 42 190 C 13.463 190, 8.936 190.207, 7.571 191.571 M 119.315 239.213 C 109.792 248.680, 102 257.134, 102 258 C 102 259.761, 135.994 294, 137.743 294 C 139.175 294, 142 291.187, 142 289.761 C 142 289.159, 136.063 282.670, 128.806 275.341 L 115.611 262.016 175.447 261.758 C 231.182 261.518, 235.358 261.380, 236.386 259.750 C 237.191 258.474, 237.191 257.526, 236.386 256.250 C 235.358 254.620, 231.182 254.482, 175.447 254.242 L 115.611 253.984 128.806 240.659 C 136.063 233.330, 142 226.841, 142 226.239 C 142 224.813, 139.175 222, 137.743 222 C 137.131 222, 128.838 229.746, 119.315 239.213 " stroke="none" fill="black" fill-rule="evenodd"/>
</svg>