<svg xmlns="http://www.w3.org/2000/svg" width="244" height="324" viewBox="0 0 244 324" version="1.1">
	<path d="M 159.500 127.042 C 141.239 129.820, 123.711 141.198, 113.012 157.221 C 97.569 180.345, 99.121 212.740, 116.724 234.742 C 130.219 251.610, 148.253 260.349, 169.500 260.319 C 188.240 260.292, 203.028 254.065, 216.500 240.527 C 229.805 227.157, 236 212.218, 236 193.500 C 236 174.782, 229.805 159.843, 216.500 146.473 C 201.166 131.065, 180.150 123.901, 159.500 127.042 M 153.345 135.904 C 142.677 138.957, 136.033 142.962, 127.479 151.497 C 115.121 163.828, 110 176.133, 110 193.500 C 110 210.512, 115.128 223.074, 126.993 235.125 C 138.822 247.141, 152.541 253, 168.845 253 C 179.674 253, 185.916 251.576, 195.820 246.847 C 220.843 234.900, 234.032 205.996, 227.003 178.511 C 222.717 161.754, 211.079 147.438, 195.820 140.153 C 191.244 137.968, 185.115 135.690, 182.201 135.090 C 174.350 133.475, 160.464 133.867, 153.345 135.904 M 167.571 159.571 C 166.315 160.828, 166 163.580, 166 173.290 L 166 185.437 160.221 179.719 C 157.043 176.573, 154.150 174, 153.792 174 C 152.759 174, 150 177.040, 150 178.178 C 150 178.747, 153.226 182.540, 157.169 186.607 L 164.338 194 157.169 201.393 C 153.226 205.460, 150 209.253, 150 209.822 C 150 210.960, 152.759 214, 153.792 214 C 154.150 214, 157.043 211.427, 160.221 208.281 L 166 202.563 166 214.710 C 166 224.420, 166.315 227.172, 167.571 228.429 C 169.457 230.315, 170.219 230.381, 171.800 228.800 C 172.605 227.995, 173 223.500, 173 215.148 L 173 202.696 178.926 208.348 C 185.212 214.344, 185.907 214.693, 187.800 212.800 C 190.049 210.551, 189.003 208.550, 181.775 201.274 L 174.550 194 181.775 186.726 C 189.003 179.450, 190.049 177.449, 187.800 175.200 C 185.907 173.307, 185.212 173.656, 178.926 179.652 L 173 185.304 173 172.852 C 173 164.500, 172.605 160.005, 171.800 159.200 C 170.219 157.619, 169.457 157.685, 167.571 159.571 M 33.384 191.412 C 19.756 194.719, 9.899 205.174, 7 219.396 C 4.849 229.942, 8.806 242.473, 16.816 250.483 L 20.333 254 14.738 254 C 7.240 254, 4.026 256.883, 7.571 260.429 C 8.936 261.793, 13.463 262, 42 262 C 70.537 262, 75.064 261.793, 76.429 260.429 C 80.078 256.779, 76.764 254, 68.762 254 L 62.667 254 66.349 250.318 C 73.720 242.947, 77.618 230.645, 75.932 220.078 C 73.515 204.940, 62.597 193.929, 47.114 191.014 C 40.660 189.799, 39.943 189.820, 33.384 191.412 M 31.605 199.568 C 24.049 202.337, 24.073 202.527, 33.170 211.671 L 41.457 220.001 49.692 211.809 C 58.838 202.711, 58.906 202.178, 51.260 199.573 C 45.620 197.651, 36.842 197.649, 31.605 199.568 M 17.570 211.253 C 13.740 217.098, 12.885 227.372, 15.573 235.260 C 18.178 242.906, 18.711 242.838, 27.809 233.692 L 36.001 225.457 27.605 217.104 L 19.209 208.752 17.570 211.253 M 55.191 217.308 L 46.999 225.543 55.339 233.840 L 63.680 242.137 65.174 239.819 C 69.239 233.513, 70.153 223.740, 67.427 215.740 C 64.822 208.094, 64.289 208.162, 55.191 217.308 M 33.170 239.329 C 24.017 248.530, 24.002 248.678, 31.962 251.487 C 37.497 253.439, 45.426 253.415, 51.260 251.427 C 58.906 248.822, 58.838 248.289, 49.692 239.191 L 41.457 230.999 33.170 239.329 " stroke="none" fill="black" fill-rule="evenodd"/>
</svg>