<svg xmlns="http://www.w3.org/2000/svg" width="244" height="324" viewBox="0 0 244 324" version="1.1">
	<path d="M 40.316 62.784 C 38.369 64.022, 22.007 97.855, 22.604 99.410 C 23.269 101.144, 25.524 102.120, 27.295 101.440 C 28.007 101.167, 31.480 95.106, 35.014 87.972 C 38.547 80.837, 41.691 75, 42 75 C 42.309 75, 45.453 80.837, 48.986 87.972 C 52.520 95.106, 55.993 101.167, 56.705 101.440 C 58.487 102.124, 60.732 101.141, 61.407 99.381 C 61.997 97.844, 45.582 64.037, 43.628 62.765 C 42.214 61.845, 41.789 61.847, 40.316 62.784 M 40.358 126.765 C 39.730 127.169, 31.742 142.447, 22.608 160.715 L 6 193.931 6 226.394 C 6 254.573, 6.207 259.065, 7.571 260.429 C 8.936 261.793, 13.463 262, 42 262 C 70.537 262, 75.064 261.793, 76.429 260.429 C 77.793 259.065, 78 254.575, 78 226.423 L 78 193.988 61.380 160.744 C 46.446 130.871, 43.744 126.031, 42 126.031 C 41.725 126.031, 40.986 126.361, 40.358 126.765 M 119.213 143.315 C 109.746 152.838, 102 161.131, 102 161.743 C 102 163.175, 104.813 166, 106.239 166 C 106.841 166, 113.334 160.059, 120.667 152.798 L 134 139.595 134 199.226 C 134 252.103, 134.178 259.035, 135.571 260.429 C 137.678 262.535, 138.598 262.412, 140.443 259.777 C 141.810 257.827, 142 250.338, 142 198.575 L 142 139.595 155.333 152.798 C 162.666 160.059, 169.136 166, 169.710 166 C 171.591 166, 173.235 163.074, 172.654 160.763 C 171.960 158.006, 139.957 126, 137.894 126 C 137.086 126, 128.680 133.792, 119.213 143.315 M 28.743 164.500 L 16.005 190 42 190 L 67.995 190 55.257 164.500 C 48.250 150.475, 42.285 139, 42 139 C 41.715 139, 35.750 150.475, 28.743 164.500 M 199.750 159.080 C 198.155 160.009, 198 162.388, 198 186.015 C 198 211.174, 198.060 211.962, 200.064 213.034 C 201.596 213.854, 202.498 213.832, 203.564 212.947 C 204.744 211.968, 205 207.174, 205 186.078 C 205 157.906, 204.671 156.214, 199.750 159.080 M 14 226 L 14 254 42 254 L 70 254 70 226 L 70 198 42 198 L 14 198 14 226 M 199.750 222.080 C 197.372 223.465, 197.542 226.685, 200.064 228.034 C 203.753 230.008, 206.819 225.219, 203.800 222.200 C 202.367 220.767, 202.022 220.757, 199.750 222.080 " stroke="none" fill="black" fill-rule="evenodd"/>
</svg>