<svg xmlns="http://www.w3.org/2000/svg" width="276" height="324" viewBox="0 0 276 324" version="1.1">
	<path d="M 63.102 127.108 C 37.633 130.963, 15.059 151.541, 8.374 177 C 6.113 185.610, 6.113 201.390, 8.374 210 C 12.447 225.511, 23.726 241.091, 37.307 249.965 L 43.483 254 26.313 254 C 12.037 254, 8.878 254.265, 7.571 255.571 C 5.598 257.545, 5.598 258.455, 7.571 260.429 C 8.968 261.825, 16.372 262, 74 262 C 131.628 262, 139.032 261.825, 140.429 260.429 C 142.402 258.455, 142.402 257.545, 140.429 255.571 C 139.119 254.261, 135.917 254, 121.187 254 L 103.517 254 109.693 249.965 C 118.532 244.189, 128.968 232.618, 133.287 223.806 C 138.427 213.315, 140.302 205.237, 140.319 193.500 C 140.346 174.163, 134.618 160.540, 120.539 146.461 C 110.823 136.745, 102.203 131.569, 90.831 128.621 C 83.080 126.612, 70.806 125.942, 63.102 127.108 M 58.645 135.584 C 38.671 140.419, 20.279 158.986, 15.537 179.103 C 13.610 187.282, 13.610 199.718, 15.537 207.897 C 20.338 228.261, 38.739 246.662, 59.103 251.463 C 79.742 256.328, 100.600 250.431, 115.516 235.516 C 134.200 216.831, 138.470 189.002, 126.243 165.603 C 118.839 151.435, 103.149 139.133, 87.897 135.537 C 79.998 133.676, 66.439 133.697, 58.645 135.584 M 167.571 191.571 C 165.243 193.900, 165.243 226.100, 167.571 228.429 C 168.855 229.712, 171.788 230, 183.571 230 L 198 230 198 244.429 C 198 256.212, 198.288 259.145, 199.571 260.429 C 201.545 262.402, 202.455 262.402, 204.429 260.429 C 205.793 259.064, 206 254.537, 206 226 C 206 197.463, 205.793 192.936, 204.429 191.571 C 202.455 189.598, 201.545 189.598, 199.571 191.571 C 198.288 192.855, 198 195.788, 198 207.571 L 198 222 186 222 L 174 222 174 207.571 C 174 195.788, 173.712 192.855, 172.429 191.571 C 171.564 190.707, 170.471 190, 170 190 C 169.529 190, 168.436 190.707, 167.571 191.571 M 231.571 223.571 C 230.379 224.763, 230 227.281, 230 234 C 230 245.137, 230.688 246, 239.571 246 L 246 246 246 252.429 C 246 256.939, 246.469 259.326, 247.571 260.429 C 249.545 262.402, 250.455 262.402, 252.429 260.429 C 254.757 258.100, 254.757 225.900, 252.429 223.571 C 251.564 222.707, 250.471 222, 250 222 C 247.435 222, 246 225.433, 246 231.571 L 246 238 242 238 L 238 238 238 231.571 C 238 225.433, 236.565 222, 234 222 C 233.529 222, 232.436 222.707, 231.571 223.571 " stroke="none" fill="black" fill-rule="evenodd"/>
</svg>