<svg xmlns="http://www.w3.org/2000/svg" width="372" height="324" viewBox="0 0 372 324" version="1.1">
	<path d="M 66.223 63.012 C 55.933 65.160, 45.981 73.443, 41.216 83.825 C 39.099 88.436, 38.611 91, 38.611 97.500 C 38.611 107.107, 41.427 114.253, 48.038 121.425 L 52.255 126 30.699 126 C 12.436 126, 8.903 126.240, 7.571 127.571 C 5.598 129.545, 5.598 130.455, 7.571 132.429 C 8.931 133.788, 13.242 134, 39.571 134 L 70 134 70 194 L 70 254 55.571 254 C 43.788 254, 40.855 254.288, 39.571 255.571 C 37.598 257.545, 37.598 258.455, 39.571 260.429 C 40.936 261.793, 45.463 262, 74 262 C 102.537 262, 107.064 261.793, 108.429 260.429 C 110.402 258.455, 110.402 257.545, 108.429 255.571 C 107.145 254.288, 104.212 254, 92.429 254 L 78 254 78 194 L 78 134 108.429 134 C 134.758 134, 139.069 133.788, 140.429 132.429 C 142.402 130.455, 142.402 129.545, 140.429 127.571 C 139.095 126.238, 135.519 126, 116.801 126 L 94.745 126 98.802 121.599 C 112.422 106.823, 111.747 85.239, 97.245 71.872 C 89.078 64.343, 76.732 60.818, 66.223 63.012 M 64.453 71.326 C 52.790 75.820, 46 85.431, 46 97.448 C 46 110.371, 54.645 121.389, 67.250 124.531 L 70 125.217 70 97.608 C 70 67.762, 70.278 69.082, 64.453 71.326 M 78 97.500 L 78 125.135 80.250 124.448 C 88.634 121.887, 95.023 116.636, 98.478 109.467 C 101.159 103.903, 101.629 94.409, 99.535 88.105 C 96.847 80.014, 89.584 73.403, 80.250 70.552 L 78 69.865 78 97.500 M 183.282 175.282 C 173.777 184.787, 166 193.210, 166 194 C 166 195.693, 200.031 230, 201.710 230 C 203.173 230, 206 227.200, 206 225.751 C 206 225.143, 199.156 217.750, 190.792 209.323 L 175.584 194 190.792 178.677 C 199.156 170.250, 206 162.857, 206 162.249 C 206 160.800, 203.173 158, 201.710 158 C 201.079 158, 192.787 165.777, 183.282 175.282 M 231.571 159.571 C 230.472 160.671, 230 163.054, 230 167.504 C 230 174.465, 230.235 174.214, 222.500 175.480 C 216.280 176.497, 204.798 182.611, 200.081 187.418 C 196.344 191.225, 195.950 192.037, 196.939 193.886 C 198.553 196.901, 200.686 196.517, 205.255 192.388 C 209.983 188.117, 219.783 183.346, 225.750 182.411 L 230 181.744 230 204.301 C 230 223.473, 230.236 227.093, 231.571 228.429 C 232.936 229.793, 237.463 230, 266 230 C 294.537 230, 299.064 229.793, 300.429 228.429 C 301.622 227.235, 302 224.712, 302 217.929 C 302 209.230, 302.060 209, 304.343 209 C 313.787 209, 334.190 196.266, 332.366 191.511 C 331.200 188.472, 328.090 188.793, 323.681 192.406 C 319.047 196.203, 310.533 200.398, 305.250 201.488 L 302 202.159 302 181.651 C 302 164.341, 301.755 160.898, 300.429 159.571 C 299.064 158.207, 294.537 158, 266 158 C 237.463 158, 232.936 158.207, 231.571 159.571 M 327.571 159.571 C 326.707 160.436, 326 161.640, 326 162.249 C 326 162.857, 332.844 170.250, 341.208 178.677 L 356.416 194 341.208 209.323 C 332.844 217.750, 326 225.143, 326 225.751 C 326 227.200, 328.827 230, 330.290 230 C 331.969 230, 366 195.693, 366 194 C 366 192.307, 331.969 158, 330.290 158 C 329.659 158, 328.436 158.707, 327.571 159.571 M 238 170.500 C 238 174.553, 238.233 175, 240.343 175 C 243.079 175, 252.181 178.011, 257.087 180.539 C 258.964 181.506, 263.663 185.360, 267.528 189.102 C 274.906 196.246, 282.300 200.398, 289.750 201.581 L 294 202.256 294 184.128 L 294 166 266 166 L 238 166 238 170.500 M 238 201.921 L 238 222 266.048 222 L 294.095 222 293.798 215.759 L 293.500 209.518 289 208.842 C 278.654 207.288, 268.530 201.794, 262.537 194.479 C 258.813 189.935, 247.913 183.791, 241.250 182.480 L 238 181.841 238 201.921 " stroke="none" fill="black" fill-rule="evenodd"/>
</svg>