<svg xmlns="http://www.w3.org/2000/svg" width="372" height="324" viewBox="0 0 372 324" version="1.1">
	<path d="M 55.571 63.571 C 54.707 64.436, 54 65.332, 54 65.564 C 54 67.123, 71.710 101.058, 72.727 101.449 C 73.427 101.717, 74.573 101.717, 75.273 101.449 C 77.129 100.736, 94.063 66.328, 93.403 64.609 C 92.732 62.858, 90.483 61.877, 88.705 62.560 C 87.993 62.833, 84.520 68.894, 80.986 76.028 C 77.453 83.163, 74.308 89, 73.997 89 C 73.687 89, 70.748 83.534, 67.467 76.853 C 59.925 61.499, 58.847 60.296, 55.571 63.571 M 35.045 127.092 C 19.667 130.107, 7.255 144.071, 6.841 158.824 C 6.689 164.231, 10.459 179.667, 14.976 192.133 C 21.053 208.902, 33.075 227.074, 46.717 240.107 C 55.946 248.924, 71.175 260, 74.070 260 C 75.196 260, 77.778 258.733, 79.809 257.185 C 81.839 255.636, 86.988 251.763, 91.250 248.578 C 110.685 234.057, 127.709 209.662, 135.321 185.426 C 139.499 172.122, 141.107 161.844, 139.963 155.763 C 135.596 132.560, 112.226 120.286, 90.616 129.845 C 85.222 132.232, 79.372 137.363, 76.005 142.662 L 73.360 146.824 71.503 143.377 C 69.181 139.064, 62.418 132.764, 57.318 130.162 C 55.183 129.073, 50.781 127.691, 47.535 127.091 C 40.969 125.877, 41.243 125.877, 35.045 127.092 M 227 126.637 C 210.260 129.082, 198.099 134.794, 187.164 145.349 C 175.107 156.987, 168.421 170.983, 166.503 188.598 C 165.964 193.549, 166.150 195.007, 167.491 196.348 C 169.547 198.404, 170.439 198.418, 172.429 196.429 C 173.404 195.453, 174.006 193.082, 174.015 190.179 C 174.077 170.532, 188.053 149.361, 207 140.214 C 211.675 137.957, 216.995 135.817, 218.823 135.459 L 222.146 134.809 217.010 141.155 C 210.574 149.105, 203.619 163.058, 200.887 173.500 C 197.963 184.674, 197.972 202.390, 200.907 213.500 C 205.166 229.623, 214.203 244.586, 226.284 255.519 C 232.610 261.243, 235.327 262.046, 237.367 258.791 C 238.262 257.362, 237.119 255.807, 230.383 249.291 C 225.953 245.006, 220.877 239.353, 219.102 236.730 C 200.755 209.602, 201.698 173.343, 221.429 147.265 C 231.421 134.059, 234.965 132.489, 247.897 135.537 C 272.441 141.323, 292.909 166.127, 292.985 190.179 C 292.994 193.082, 293.596 195.453, 294.571 196.429 C 296.561 198.418, 297.453 198.404, 299.509 196.348 C 300.850 195.007, 301.036 193.549, 300.497 188.598 C 298.021 165.862, 286.306 147.112, 267.500 135.789 C 255.767 128.724, 238.866 124.905, 227 126.637 M 31.054 135.728 C 24.787 137.940, 17.726 145.297, 15.534 151.899 C 13.881 156.875, 13.875 157.704, 15.430 166.205 C 18.769 184.454, 25.331 200.650, 35.740 216.330 C 41.768 225.410, 57.343 241.046, 66.659 247.369 L 73.817 252.228 79.235 248.632 C 104.319 231.983, 122.938 205.409, 130.553 175.392 C 134.737 158.897, 133.307 150.212, 125.048 141.952 C 117.477 134.382, 106.241 131.995, 95.463 135.667 C 86.088 138.862, 78 149.949, 78 159.607 C 78 162.970, 75.867 166, 73.500 166 C 71.133 166, 69 162.970, 69 159.607 C 69 149.949, 60.912 138.862, 51.537 135.667 C 45.516 133.616, 36.964 133.641, 31.054 135.728 M 243.637 159.465 C 236.890 161.870, 231.867 167.861, 230.503 175.131 C 229.855 178.586, 231.593 182, 234 182 C 235.861 182, 238 178.700, 238 175.829 C 238 173.718, 239.030 171.770, 241.400 169.400 C 244.302 166.498, 245.488 166, 249.500 166 C 253.512 166, 254.698 166.498, 257.600 169.400 C 260.502 172.302, 261 173.488, 261 177.500 C 261 181.512, 260.502 182.698, 257.600 185.600 C 255.526 187.674, 253.214 189, 251.671 189 C 247.012 189, 246 191.231, 246 201.500 C 246 208.673, 246.367 211.224, 247.571 212.429 C 248.436 213.293, 249.529 214, 250 214 C 252.689 214, 254 210.575, 254 203.550 C 254 196.379, 254.056 196.219, 256.989 195.004 C 264.077 192.069, 269.944 181.649, 268.441 174.666 C 266.872 167.379, 261.022 160.933, 254.277 159.060 C 249.498 157.733, 248.376 157.776, 243.637 159.465 M 327.571 159.571 C 326.227 160.916, 326 164.736, 326 186 C 326 207.264, 326.227 211.084, 327.571 212.429 C 328.436 213.293, 329.529 214, 330 214 C 330.471 214, 331.564 213.293, 332.429 212.429 C 333.773 211.084, 334 207.264, 334 186 C 334 164.736, 333.773 160.916, 332.429 159.571 C 331.564 158.707, 330.471 158, 330 158 C 329.529 158, 328.436 158.707, 327.571 159.571 M 247.571 222.571 C 246.707 223.436, 246 224.529, 246 225 C 246 225.471, 246.707 226.564, 247.571 227.429 C 248.436 228.293, 249.529 229, 250 229 C 250.471 229, 251.564 228.293, 252.429 227.429 C 253.293 226.564, 254 225.471, 254 225 C 254 224.529, 253.293 223.436, 252.429 222.571 C 251.564 221.707, 250.471 221, 250 221 C 249.529 221, 248.436 221.707, 247.571 222.571 M 327.571 222.571 C 326.707 223.436, 326 224.529, 326 225 C 326 226.111, 328.889 229, 330 229 C 331.111 229, 334 226.111, 334 225 C 334 223.889, 331.111 221, 330 221 C 329.529 221, 328.436 221.707, 327.571 222.571 " stroke="none" fill="black" fill-rule="evenodd"/>
</svg>