<svg xmlns="http://www.w3.org/2000/svg" width="452" height="324" viewBox="0 0 452 324" version="1.1">
	<path d="M 407.200 63.200 C 405.512 64.888, 405.512 99.112, 407.200 100.800 C 408.886 102.486, 442.114 102.486, 443.800 100.800 C 445.488 99.112, 445.488 64.888, 443.800 63.200 C 442.114 61.514, 408.886 61.514, 407.200 63.200 M 413 82 L 413 94 425.500 94 L 438 94 438 82 L 438 70 425.500 70 L 413 70 413 82 M 71.200 127.200 C 70.292 128.108, 70 143.689, 70 191.200 L 70 254 39.571 254 C 13.242 254, 8.931 254.212, 7.571 255.571 C 5.596 257.546, 5.598 258.455, 7.579 260.436 C 8.990 261.847, 16.058 261.987, 74.220 261.757 C 134.934 261.517, 139.356 261.383, 140.386 259.750 C 141.191 258.474, 141.191 257.526, 140.386 256.250 C 139.381 254.655, 136.566 254.477, 108.641 254.236 L 78 253.971 78 225.986 L 78 198 108.429 198 C 134.758 198, 139.069 197.788, 140.429 196.429 C 141.793 195.064, 142 190.537, 142 162 C 142 133.463, 141.793 128.936, 140.429 127.571 C 139.063 126.206, 134.503 126, 105.629 126 C 81.117 126, 72.085 126.315, 71.200 127.200 M 423.115 127.361 C 422.295 128.349, 422.056 146.745, 422.243 194.502 C 422.478 254.631, 422.643 260.373, 424.166 261.333 C 425.375 262.096, 426.267 262.023, 427.416 261.070 C 428.832 259.895, 429 252.783, 429 194.078 C 429 144.328, 428.709 128.109, 427.800 127.200 C 426.222 125.622, 424.510 125.681, 423.115 127.361 M 78 162 L 78 190 106 190 L 134 190 134 162 L 134 134 106 134 L 78 134 78 162 M 221.500 191.457 C 194.023 196.649, 173.191 217.033, 167.589 244.208 C 165.316 255.232, 165.472 259.647, 168.183 261.098 C 171.396 262.817, 174 259.236, 174 253.099 C 174 240.575, 180.385 226.566, 190.960 215.885 C 201.918 204.817, 213.027 199.550, 228.395 198.135 C 235.977 197.437, 238.486 195.591, 236.394 192.250 C 234.991 190.011, 230.437 189.769, 221.500 191.457 M 285.500 191.457 C 258.067 196.641, 236.985 217.256, 231.553 244.208 C 229.339 255.193, 229.489 259.656, 232.117 261.062 C 235.393 262.816, 236.760 260.554, 237.900 251.500 C 239.783 236.545, 244.428 226.599, 254.389 216.193 C 264.664 205.459, 277.290 199.379, 291.895 198.132 C 299.995 197.440, 302.541 195.678, 300.394 192.250 C 298.991 190.011, 294.437 189.769, 285.500 191.457 M 327.750 191.073 C 325.413 192.444, 325.527 195.677, 327.960 196.979 C 329.243 197.665, 341.208 197.936, 362.601 197.764 C 392.469 197.523, 395.378 197.349, 396.386 195.750 C 397.191 194.474, 397.191 193.526, 396.386 192.250 C 395.377 190.649, 392.483 190.481, 362.391 190.273 C 341.280 190.127, 328.873 190.414, 327.750 191.073 " stroke="none" fill="black" fill-rule="evenodd"/>
</svg>