<svg xmlns="http://www.w3.org/2000/svg" width="468" height="324" viewBox="0 0 468 324" version="1.1">
	<path d="M 65.384 63.412 C 47.480 67.757, 35.543 85.833, 38.993 103.372 C 40.490 110.981, 43.011 115.971, 48.198 121.599 L 52.255 126 30.699 126 C 12.436 126, 8.903 126.240, 7.571 127.571 C 5.598 129.545, 5.598 130.455, 7.571 132.429 C 8.931 133.788, 13.242 134, 39.571 134 L 70 134 70 194 L 70 254 55.571 254 C 43.788 254, 40.855 254.288, 39.571 255.571 C 37.598 257.545, 37.598 258.455, 39.571 260.429 C 40.936 261.793, 45.463 262, 74 262 C 102.537 262, 107.064 261.793, 108.429 260.429 C 110.402 258.455, 110.402 257.545, 108.429 255.571 C 107.145 254.288, 104.212 254, 92.429 254 L 78 254 78 194 L 78 134 108.429 134 C 134.758 134, 139.069 133.788, 140.429 132.429 C 142.402 130.455, 142.402 129.545, 140.429 127.571 C 139.095 126.238, 135.519 126, 116.801 126 L 94.745 126 98.802 121.599 C 117.504 101.310, 107.910 69.660, 81.147 63.360 C 74.397 61.772, 72.111 61.779, 65.384 63.412 M 63.054 71.728 C 57.018 73.859, 49.781 81.260, 47.667 87.463 C 42.058 103.925, 50.847 120.571, 67.250 124.550 L 70 125.217 70 97.608 C 70 76.146, 69.722 70.018, 68.750 70.079 C 68.063 70.122, 65.499 70.864, 63.054 71.728 M 78 97.500 L 78 125.135 80.250 124.475 C 93.167 120.686, 101 110.503, 101 97.500 C 101 84.497, 93.167 74.314, 80.250 70.525 L 78 69.865 78 97.500 M 383.102 127.108 C 357.633 130.963, 335.059 151.541, 328.374 177 C 327.312 181.044, 326.667 187.278, 326.667 193.500 C 326.667 212.864, 332.395 226.475, 346.461 240.535 C 353.602 247.672, 357.136 250.360, 363.290 253.334 C 374.007 258.513, 391.272 262.296, 397.823 260.900 C 399.845 260.469, 404.875 259.396, 409 258.516 C 421.502 255.849, 430.171 250.907, 440.539 240.539 C 454.538 226.540, 460.291 212.859, 460.319 193.500 C 460.346 174.163, 454.618 160.540, 440.539 146.461 C 430.823 136.745, 422.203 131.569, 410.831 128.621 C 403.080 126.612, 390.806 125.942, 383.102 127.108 M 378.645 135.584 C 358.671 140.419, 340.279 158.986, 335.537 179.103 C 332.241 193.087, 334.182 208.814, 340.757 221.397 C 345.685 230.827, 356.173 241.315, 365.603 246.243 C 372.332 249.759, 382.823 252.953, 387.750 252.985 L 390 253 390 193.500 L 390 134 387.250 134.083 C 385.738 134.129, 381.865 134.804, 378.645 135.584 M 398 193.500 C 398 249.506, 398.103 252.999, 399.750 252.985 C 400.712 252.977, 404.379 252.292, 407.897 251.463 C 428.261 246.662, 446.662 228.261, 451.463 207.897 C 453.390 199.718, 453.390 187.282, 451.463 179.103 C 446.662 158.739, 428.261 140.338, 407.897 135.537 C 404.379 134.708, 400.712 134.023, 399.750 134.015 C 398.103 134.001, 398 137.494, 398 193.500 M 193 174.983 C 182.947 176.884, 173.573 181.717, 167.217 188.276 C 163.704 191.901, 163.675 194.445, 167.132 195.542 C 168.512 195.980, 170.272 195.084, 173.167 192.468 C 175.414 190.438, 180.234 187.364, 183.877 185.638 C 189.993 182.740, 191.304 182.500, 201 182.500 C 210.754 182.500, 211.983 182.729, 218.306 185.724 C 222.947 187.922, 227.090 190.965, 231.331 195.290 C 244.360 208.578, 263.118 212.980, 280.796 206.898 C 290.574 203.534, 300 196.449, 300 192.464 C 300 188.535, 296.496 188.357, 292.267 192.070 C 290.247 193.844, 285.648 196.691, 282.047 198.397 C 276.017 201.255, 274.670 201.500, 265 201.500 C 255.333 201.500, 253.981 201.254, 247.962 198.402 C 243.858 196.457, 239.606 193.383, 236.541 190.146 C 230.597 183.868, 224.190 179.646, 216.697 177.068 C 209.960 174.750, 199.224 173.805, 193 174.983 " stroke="none" fill="black" fill-rule="evenodd"/>
</svg>