<svg xmlns="http://www.w3.org/2000/svg" width="628" height="324" viewBox="0 0 628 324" version="1.1">
	<path d="M 71.200 127.200 C 70.292 128.108, 70 143.689, 70 191.200 L 70 254 39.571 254 C 13.242 254, 8.931 254.212, 7.571 255.571 C 5.598 257.545, 5.598 258.455, 7.571 260.429 C 8.968 261.825, 16.372 262, 74 262 C 131.628 262, 139.032 261.825, 140.429 260.429 C 142.402 258.455, 142.402 257.545, 140.429 255.571 C 139.069 254.212, 134.758 254, 108.429 254 L 78 254 78 226 L 78 198 108.429 198 C 134.758 198, 139.069 197.788, 140.429 196.429 C 141.793 195.064, 142 190.537, 142 162 C 142 133.463, 141.793 128.936, 140.429 127.571 C 139.063 126.206, 134.503 126, 105.629 126 C 81.117 126, 72.085 126.315, 71.200 127.200 M 391.571 127.571 C 390.707 128.436, 390 129.529, 390 130 C 390 130.471, 390.707 131.564, 391.571 132.429 C 392.901 133.758, 396.397 134, 414.274 134 L 435.406 134 431.755 137.750 C 422.403 147.357, 419.689 163.296, 425.329 175.500 C 428.298 181.925, 434.624 189.175, 439.488 191.729 C 442.304 193.207, 442.364 193.361, 440.533 194.399 C 435.291 197.369, 428.085 205.413, 425.411 211.278 C 421.431 220.009, 421.357 230.914, 425.223 239.250 C 426.689 242.412, 427.658 245, 427.375 245 C 425.804 245, 417.600 238.343, 413.090 233.408 C 404.631 224.152, 398 208.818, 398 198.512 C 398 194.610, 395.842 190, 394.015 190 C 392.155 190, 390 193.281, 390 196.114 C 390 201.529, 393.124 214.317, 395.992 220.642 C 401.501 232.792, 410.451 243.164, 421.449 250.141 L 427.500 253.981 346.321 253.990 C 273.864 253.999, 264.974 254.169, 263.571 255.571 C 261.598 257.545, 261.598 258.455, 263.571 260.429 C 264.984 261.841, 278.190 262, 394 262 C 509.810 262, 523.016 261.841, 524.429 260.429 C 525.825 259.032, 526 251.628, 526 194 C 526 136.372, 525.825 128.968, 524.429 127.571 C 523.032 126.175, 515.628 126, 458 126 C 400.372 126, 392.968 126.175, 391.571 127.571 M 78 162 L 78 190 106 190 L 134 190 134 162 L 134 134 106 134 L 78 134 78 162 M 447.385 135.617 C 445.122 136.420, 441.450 138.635, 439.224 140.541 C 426.777 151.195, 426.768 171.798, 439.205 182.443 C 442.623 185.370, 450.361 189, 453.178 189 C 453.630 189, 454 176.625, 454 161.500 C 454 140.125, 453.722 134.018, 452.750 134.079 C 452.063 134.122, 449.648 134.815, 447.385 135.617 M 462 161.500 L 462 189.135 464.250 188.467 C 469.866 186.800, 476.627 182.029, 479.708 177.558 C 487.104 166.826, 486.664 154.393, 478.502 143.474 C 476.337 140.578, 469.003 135.984, 464.250 134.546 L 462 133.865 462 161.500 M 482.152 136.750 C 489.229 144.454, 492.082 151.477, 492.116 161.282 C 492.129 165.011, 491.432 170.186, 490.566 172.782 C 488.477 179.045, 482.522 186.776, 476.849 190.590 L 472.252 193.681 475.728 195.553 C 480.138 197.928, 486.273 204.868, 489.069 210.643 C 493.350 219.486, 493.177 232.351, 488.661 241.056 L 486.188 245.821 489.508 243.863 C 499.335 238.064, 509.331 225.376, 513.488 213.421 C 517.012 203.289, 517.983 192.046, 517.992 161.250 L 518 134 498.813 134 L 479.626 134 482.152 136.750 M 167.571 191.571 C 166.707 192.436, 166 193.640, 166 194.249 C 166 194.857, 172.844 202.250, 181.208 210.677 L 196.416 226 181.208 241.323 C 172.844 249.750, 166 257.143, 166 257.751 C 166 259.181, 168.819 262, 170.249 262 C 170.857 262, 178.250 255.156, 186.677 246.792 L 202 231.584 217.323 246.792 C 225.750 255.156, 233.143 262, 233.751 262 C 235.181 262, 238 259.181, 238 257.751 C 238 257.143, 231.156 249.750, 222.792 241.323 L 207.584 226 222.792 210.677 C 231.156 202.250, 238 194.857, 238 194.249 C 238 192.819, 235.181 190, 233.751 190 C 233.143 190, 225.750 196.844, 217.323 205.208 L 202 220.416 186.677 205.208 C 178.250 196.844, 170.857 190, 170.249 190 C 169.640 190, 168.436 190.707, 167.571 191.571 M 551.750 191.073 C 549.423 192.438, 549.524 195.675, 551.934 196.965 C 553.005 197.538, 560.151 198, 567.934 198 L 582 198 582 226 L 582 254 567.934 254 C 553.308 254, 550 254.738, 550 258 C 550 261.750, 552.791 262.037, 586.601 261.764 C 616.469 261.523, 619.378 261.349, 620.386 259.750 C 621.190 258.475, 621.191 257.525, 620.387 256.250 C 619.430 254.730, 617.291 254.464, 604.142 254.224 L 589 253.948 589 226 L 589 198.052 604.142 197.776 C 617.291 197.536, 619.430 197.270, 620.387 195.750 C 621.191 194.475, 621.190 193.525, 620.386 192.250 C 619.377 190.649, 616.483 190.481, 586.391 190.273 C 565.280 190.127, 552.873 190.414, 551.750 191.073 M 447.385 199.617 C 445.122 200.420, 441.450 202.635, 439.224 204.541 C 426.777 215.195, 426.768 235.798, 439.205 246.443 C 442.623 249.370, 450.361 253, 453.178 253 C 453.630 253, 454 240.625, 454 225.500 C 454 204.125, 453.722 198.018, 452.750 198.079 C 452.063 198.122, 449.648 198.815, 447.385 199.617 M 462 225.500 L 462 253.135 464.250 252.467 C 469.866 250.800, 476.627 246.029, 479.708 241.558 C 487.104 230.826, 486.664 218.393, 478.502 207.474 C 476.337 204.578, 469.003 199.984, 464.250 198.546 L 462 197.865 462 225.500 M 515.102 227.509 C 511.624 234.071, 501.831 244.331, 494.357 249.242 L 487.877 253.500 502.578 253.778 C 510.663 253.930, 517.453 253.881, 517.666 253.667 C 517.879 253.454, 517.929 246.463, 517.777 238.132 L 517.500 222.984 515.102 227.509 " stroke="none" fill="black" fill-rule="evenodd"/>
</svg>