<svg xmlns="http://www.w3.org/2000/svg" width="436" height="324" viewBox="0 0 436 324" version="1.1">
	<path d="M 40.316 62.784 C 38.369 64.022, 22.007 97.855, 22.604 99.410 C 23.269 101.144, 25.524 102.120, 27.295 101.440 C 28.007 101.167, 31.480 95.106, 35.014 87.972 C 38.547 80.837, 41.691 75, 42 75 C 42.309 75, 45.453 80.837, 48.986 87.972 C 52.520 95.106, 55.993 101.167, 56.705 101.440 C 58.487 102.124, 60.732 101.141, 61.407 99.381 C 61.997 97.844, 45.582 64.037, 43.628 62.765 C 42.214 61.845, 41.789 61.847, 40.316 62.784 M 167.571 127.571 C 166.178 128.965, 166 135.897, 166 188.774 L 166 248.405 152.667 235.202 C 145.334 227.941, 138.841 222, 138.239 222 C 136.825 222, 134 224.820, 134 226.232 C 134 226.831, 139.512 232.922, 146.250 239.767 C 157.854 251.556, 158.316 252.178, 155 251.551 C 153.075 251.188, 147.675 249.043, 143 246.786 C 124.415 237.813, 110 216.361, 110 197.677 C 110 194.888, 109.395 192.538, 108.429 191.571 C 106.439 189.582, 105.547 189.596, 103.491 191.652 C 102.141 193.002, 101.968 194.418, 102.543 199.402 C 104.370 215.225, 109.908 227.486, 120.208 238.516 C 131.463 250.568, 144.427 257.575, 160 260.025 C 169.222 261.476, 169.868 261.479, 178.284 260.106 C 209.269 255.049, 232.658 231.058, 235.865 201.043 C 236.444 195.628, 236.297 193.442, 235.257 191.956 C 232.237 187.645, 229.483 190.892, 228.661 199.734 C 226.802 219.744, 213.909 238.232, 195.820 246.829 C 180.237 254.235, 180.054 253.608, 193.750 239.732 C 200.488 232.906, 206 226.831, 206 226.232 C 206 224.820, 203.175 222, 201.761 222 C 201.159 222, 194.666 227.941, 187.333 235.202 L 174 248.405 174 188.774 C 174 135.897, 173.822 128.965, 172.429 127.571 C 171.564 126.707, 170.471 126, 170 126 C 169.529 126, 168.436 126.707, 167.571 127.571 M 349.500 127.418 C 334.933 130.252, 323.517 136.380, 313.304 146.850 C 302.743 157.677, 295.976 172.321, 294.469 187.614 C 293.891 193.479, 294.055 194.912, 295.460 196.317 C 296.386 197.243, 297.535 198, 298.015 198 C 299.925 198, 302 193.308, 302 188.988 C 302 176.638, 308.422 162.611, 318.993 151.875 C 330.948 139.732, 344.493 134.046, 361.540 134.015 C 371.270 133.997, 379.180 135.890, 388.500 140.468 C 406.376 149.249, 419.205 168.443, 420.737 188.700 C 421.183 194.602, 421.681 196.294, 423.212 197.113 C 430.866 201.210, 428.989 178.362, 420.303 161.700 C 417.753 156.809, 413.954 151.890, 408.457 146.361 C 401.703 139.568, 398.806 137.478, 390.933 133.719 C 385.745 131.242, 379.463 128.736, 376.974 128.150 C 369.104 126.296, 356.935 125.972, 349.500 127.418 M 7.571 159.571 C 6.207 160.936, 6 165.463, 6 194 C 6 222.537, 6.207 227.064, 7.571 228.429 C 8.936 229.793, 13.463 230, 42 230 C 70.537 230, 75.064 229.793, 76.429 228.429 C 77.793 227.064, 78 222.537, 78 194 C 78 165.463, 77.793 160.936, 76.429 159.571 C 75.064 158.207, 70.537 158, 42 158 C 13.463 158, 8.936 158.207, 7.571 159.571 M 263.571 159.571 C 262.227 160.916, 262 164.736, 262 186 C 262 207.264, 262.227 211.084, 263.571 212.429 C 265.678 214.535, 266.598 214.412, 268.443 211.777 C 269.745 209.919, 270 205.701, 270 186 C 270 166.299, 269.745 162.081, 268.443 160.223 C 266.598 157.588, 265.678 157.465, 263.571 159.571 M 14 194 L 14 222 42 222 L 70 222 70 194 L 70 166 42 166 L 14 166 14 194 M 327.250 223.237 C 308.962 241.538, 294 257.206, 294 258.056 C 294 261.988, 294.206 262, 361.629 262 C 419.594 262, 427.032 261.825, 428.429 260.429 C 429.293 259.564, 430 258.530, 430 258.130 C 430 257.012, 363.189 190.537, 361.759 190.232 C 361.066 190.084, 345.538 204.936, 327.250 223.237 M 334 226.500 L 306.514 254 361.500 254 L 416.486 254 389 226.500 C 373.883 211.375, 361.508 199, 361.500 199 C 361.492 199, 349.117 211.375, 334 226.500 M 263.616 222.527 C 262.727 223.416, 262 224.529, 262 225 C 262 226.389, 265.140 229.120, 266.295 228.735 C 268.395 228.035, 269.549 225.094, 268.423 223.310 C 266.905 220.902, 265.474 220.669, 263.616 222.527 " stroke="none" fill="black" fill-rule="evenodd"/>
</svg>