<svg xmlns="http://www.w3.org/2000/svg" width="244" height="324" viewBox="0 0 244 324" version="1.1">
	<path d="M 40.316 62.784 C 38.369 64.022, 22.007 97.855, 22.604 99.410 C 23.269 101.144, 25.524 102.120, 27.295 101.440 C 28.007 101.167, 31.480 95.106, 35.014 87.972 C 38.547 80.837, 41.691 75, 42 75 C 42.309 75, 45.453 80.837, 48.986 87.972 C 52.520 95.106, 55.993 101.167, 56.705 101.440 C 58.487 102.124, 60.732 101.141, 61.407 99.381 C 61.997 97.844, 45.582 64.037, 43.628 62.765 C 42.214 61.845, 41.789 61.847, 40.316 62.784 M 166.431 128.750 C 161.542 137.860, 102 258.215, 102 258.988 C 102 261.747, 107.751 262, 170.363 262 C 227.661 262, 235.032 261.825, 236.429 260.429 C 237.293 259.564, 238 258.663, 238 258.426 C 238 257.155, 172.584 127.384, 171.631 126.765 C 169.509 125.387, 167.908 125.998, 166.431 128.750 M 140.747 196.500 L 112.002 254 169.501 254 C 201.126 254, 227 253.773, 227 253.497 C 227 252.838, 170.074 139, 169.744 139 C 169.605 139, 156.557 164.875, 140.747 196.500 M 33.384 159.357 C 15.361 163.923, 3.562 181.820, 6.987 199.396 C 10.713 218.519, 28.557 231.395, 46.698 228.051 C 69.327 223.881, 81.966 201.817, 73.934 180.507 C 68.097 165.023, 49.437 155.290, 33.384 159.357 M 167.571 159.571 C 165.215 161.927, 165.215 210.073, 167.571 212.429 C 169.457 214.315, 170.219 214.381, 171.800 212.800 C 173.508 211.092, 173.508 160.908, 171.800 159.200 C 170.219 157.619, 169.457 157.685, 167.571 159.571 M 31.054 167.728 C 25.018 169.859, 17.781 177.260, 15.667 183.463 C 11.995 194.241, 14.382 205.477, 21.952 213.048 C 32.402 223.497, 49.888 223.773, 60.280 213.653 C 66.701 207.401, 68.500 202.989, 68.500 193.500 C 68.500 184.107, 66.733 179.694, 60.453 173.406 C 53.491 166.434, 41.355 164.091, 31.054 167.728 M 167.616 222.527 C 166.727 223.416, 166 224.529, 166 225 C 166 226.389, 169.140 229.120, 170.295 228.735 C 172.395 228.035, 173.549 225.094, 172.423 223.310 C 170.905 220.902, 169.474 220.669, 167.616 222.527 " stroke="none" fill="black" fill-rule="evenodd"/>
</svg>