<svg xmlns="http://www.w3.org/2000/svg" width="244" height="324" viewBox="0 0 244 324" version="1.1">
	<path d="M 167.224 127.250 C 166.662 127.938, 151.724 157.750, 134.029 193.500 C 110.400 241.237, 102.102 258.898, 102.786 260 C 103.596 261.303, 112.155 261.536, 168.109 261.776 C 203.524 261.928, 233.463 261.819, 234.640 261.535 C 235.817 261.250, 237.046 260.322, 237.373 259.471 C 237.989 257.866, 173.713 128.117, 171.631 126.765 C 169.949 125.673, 168.371 125.846, 167.224 127.250 M 140.747 196.500 L 112.002 254 169.501 254 C 201.126 254, 227 253.773, 227 253.497 C 227 252.838, 170.074 139, 169.744 139 C 169.605 139, 156.557 164.875, 140.747 196.500 M 33.384 159.412 C 15.475 163.758, 3.559 181.807, 6.987 199.396 C 9.923 214.467, 20.510 225.032, 35.660 228.013 C 46.748 230.194, 59.444 225.749, 67.399 216.901 C 85.188 197.116, 75.154 165.482, 49.147 159.360 C 42.397 157.772, 40.111 157.779, 33.384 159.412 M 167.571 159.571 C 165.215 161.927, 165.215 210.073, 167.571 212.429 C 169.678 214.535, 170.598 214.412, 172.443 211.777 C 173.745 209.919, 174 205.701, 174 186 C 174 166.299, 173.745 162.081, 172.443 160.223 C 170.598 157.588, 169.678 157.465, 167.571 159.571 M 31.054 167.728 C 25.018 169.859, 17.781 177.260, 15.667 183.463 C 11.995 194.241, 14.382 205.477, 21.952 213.048 C 32.402 223.497, 49.888 223.773, 60.280 213.653 C 66.701 207.401, 68.500 202.989, 68.500 193.500 C 68.500 184.011, 66.701 179.599, 60.280 173.347 C 53.109 166.363, 41.332 164.099, 31.054 167.728 M 167.616 222.527 C 166.727 223.416, 166 224.529, 166 225 C 166 226.389, 169.140 229.120, 170.295 228.735 C 172.395 228.035, 173.549 225.094, 172.423 223.310 C 170.905 220.902, 169.474 220.669, 167.616 222.527 " stroke="none" fill="black" fill-rule="evenodd"/>
</svg>