<svg xmlns="http://www.w3.org/2000/svg" width="276" height="324" viewBox="0 0 276 324" version="1.1">
	<path d="M 71.571 127.571 C 70.288 128.855, 70 131.788, 70 143.571 L 70 158 55.571 158 C 43.788 158, 40.855 158.288, 39.571 159.571 C 38.219 160.924, 38 164.988, 38 188.774 L 38 216.405 24.667 203.202 C 17.334 195.941, 10.841 190, 10.239 190 C 8.791 190, 6 192.834, 6 194.305 C 6 195.823, 72.177 262, 73.695 262 C 74.334 262, 75.564 261.293, 76.429 260.429 C 77.712 259.145, 78 256.212, 78 244.429 L 78 230 92.429 230 C 104.212 230, 107.145 229.712, 108.429 228.429 C 109.793 227.064, 110 222.537, 110 194 C 110 165.463, 109.793 160.936, 108.429 159.571 C 107.145 158.288, 104.212 158, 92.429 158 L 78 158 78 143.571 C 78 131.788, 77.712 128.855, 76.429 127.571 C 75.564 126.707, 74.471 126, 74 126 C 73.529 126, 72.436 126.707, 71.571 127.571 M 189.500 127.401 C 174.645 130.266, 163.144 136.774, 152.168 148.528 C 140.277 161.260, 134.624 175.751, 134.624 193.500 C 134.624 199.802, 135.263 205.904, 136.352 210 C 138.531 218.192, 144.006 229.298, 148.432 234.500 L 151.835 238.500 142.917 247.615 C 138.013 252.629, 134 257.209, 134 257.794 C 134 259.169, 136.831 262, 138.206 262 C 138.791 262, 143.435 257.915, 148.527 252.921 C 153.619 247.928, 158.057 244.284, 158.391 244.823 C 159.591 246.765, 170.258 253.245, 176.314 255.712 C 185.177 259.321, 200.914 261.930, 206.829 260.771 C 228.952 256.434, 236.121 252.956, 248.539 240.539 C 262.602 226.476, 268.376 212.784, 268.376 193.500 C 268.376 178.472, 263.914 164.613, 255.637 153.933 L 252.202 149.500 261.101 140.385 C 265.995 135.371, 270 130.791, 270 130.206 C 270 128.831, 267.169 126, 265.794 126 C 265.209 126, 260.629 130.013, 255.615 134.917 L 246.500 143.835 242.500 140.432 C 237.380 136.076, 226.192 130.530, 218.500 128.533 C 209.877 126.295, 197.699 125.820, 189.500 127.401 M 186.645 135.584 C 166.671 140.419, 148.279 158.986, 143.537 179.103 C 141.610 187.282, 141.610 199.718, 143.537 207.897 C 145.121 214.613, 150.373 225.418, 154.526 230.500 L 156.977 233.500 177.489 213.009 L 198 192.518 198 163.259 L 198 134 195.250 134.083 C 193.738 134.129, 189.865 134.804, 186.645 135.584 M 206 159.246 L 206 184.493 223.750 166.738 L 241.500 148.982 238.500 146.529 C 233.424 142.376, 222.617 137.122, 215.897 135.537 C 204.956 132.959, 206 130.458, 206 159.246 M 226.241 175.259 L 206 195.518 206 224.259 C 206 248.706, 206.217 253, 207.451 253 C 211.737 253, 220.473 250.355, 227.899 246.809 C 243.510 239.355, 256.473 222.910, 259.910 206.201 C 262.309 194.538, 260.920 180.484, 256.333 170 C 253.971 164.603, 247.993 155.006, 246.991 155.002 C 246.711 155.001, 237.373 164.117, 226.241 175.259 M 46 194 L 46 222 58 222 L 70 222 70 194 L 70 166 58 166 L 46 166 46 194 M 78 194 L 78 222 90 222 L 102 222 102 194 L 102 166 90 166 L 78 166 78 194 M 180.068 221.431 L 162.636 238.885 165.068 240.958 C 169.461 244.702, 183.370 250.867, 190.245 252.117 C 193.954 252.792, 197.225 253.108, 197.513 252.820 C 197.801 252.533, 197.916 241.425, 197.768 228.137 L 197.500 203.977 180.068 221.431 M 60.500 239 C 65.427 243.950, 69.580 248, 69.729 248 C 69.878 248, 70 243.950, 70 239 L 70 230 60.771 230 L 51.542 230 60.500 239 " stroke="none" fill="black" fill-rule="evenodd"/>
</svg>