<svg xmlns="http://www.w3.org/2000/svg" width="436" height="324" viewBox="0 0 436 324" version="1.1">
	<path d="M 131.500 126.608 C 113.209 128.944, 100.065 135.651, 87.786 148.914 C 78.656 158.775, 71 175.414, 71 185.394 C 71 186.827, 70.772 188, 70.494 188 C 70.215 188, 56.508 181.257, 40.033 173.016 C 23.558 164.775, 9.420 158.285, 8.616 158.594 C 6.870 159.264, 5.875 161.511, 6.549 163.266 C 6.816 163.962, 21.192 171.606, 38.495 180.253 C 64.262 193.128, 70.031 196.383, 70.373 198.237 C 70.603 199.482, 71.328 203.419, 71.984 206.987 C 76.484 231.467, 96.045 251.912, 121.407 258.644 C 129.609 260.821, 145.566 260.772, 154 258.544 C 171.878 253.822, 188.967 240.031, 196.824 223.988 C 200.894 215.676, 204 205.850, 204 201.287 C 204 199.180, 206.530 200.259, 235.090 214.545 C 260.430 227.220, 266.449 229.872, 267.638 228.886 C 271.688 225.524, 269.458 223.983, 236.500 207.365 L 204.500 191.229 203.801 185.026 C 200.894 159.233, 179.674 134.976, 154.500 128.670 C 148.001 127.041, 136.311 125.994, 131.500 126.608 M 122.072 135.591 C 111.666 138.388, 103.974 142.984, 95.479 151.479 C 84.694 162.264, 78 176.329, 78 188.207 L 78 191.993 106 206 L 134 220.007 134 190.126 C 134 164.033, 134.202 160.078, 135.590 158.925 C 136.953 157.794, 141.386 159.707, 166.703 172.357 C 182.940 180.470, 196.409 186.924, 196.633 186.700 C 197.685 185.649, 194.420 174.663, 190.809 167.101 C 183.638 152.084, 168.631 139.784, 152.356 135.585 C 144.711 133.613, 129.418 133.616, 122.072 135.591 M 142 197.431 C 142 222.849, 141.786 227.071, 140.429 228.429 C 139.564 229.293, 138.633 230, 138.360 230 C 138.086 230, 124.349 223.219, 107.832 214.932 L 77.801 199.864 78.518 204.182 C 82.143 226.030, 100.546 245.740, 122.711 251.513 C 130.176 253.457, 144.623 253.410, 152.356 251.415 C 168.631 247.216, 183.638 234.916, 190.809 219.899 C 194.711 211.727, 197 203.702, 197 198.192 C 197 195.645, 195.352 194.660, 169.500 181.744 L 142 168.005 142 197.431 M 295.571 191.571 C 294.707 192.436, 294 193.659, 294 194.290 C 294 195.716, 328.175 230, 329.597 230 C 331.042 230, 364.425 196.300, 364.833 194.430 C 365.209 192.704, 363.296 190, 361.698 190 C 361.117 190, 353.623 196.969, 345.045 205.486 L 329.449 220.973 313.987 205.486 C 305.482 196.969, 298.213 190, 297.834 190 C 297.454 190, 296.436 190.707, 295.571 191.571 M 323.500 238.688 C 312.882 240.130, 302.077 245.229, 295.655 251.828 C 292.318 255.257, 291.960 256.056, 292.941 257.889 C 294.568 260.929, 296.266 260.531, 301.689 255.835 C 304.335 253.545, 308.975 250.515, 312 249.102 C 316.853 246.836, 318.800 246.532, 328.552 246.517 C 339.334 246.500, 339.790 246.592, 347.235 250.272 C 352.324 252.787, 355.921 255.376, 358.034 258.043 C 369.772 272.863, 394.174 277.703, 412.943 268.934 C 425.329 263.148, 430.758 256.745, 425.873 253.685 C 424.605 252.890, 423.264 253.469, 419.803 256.305 C 412.302 262.452, 404.745 265.333, 394.860 265.814 C 381.668 266.456, 371.689 262.534, 364.054 253.708 C 355.357 243.653, 336.999 236.854, 323.500 238.688 " stroke="none" fill="black" fill-rule="evenodd"/>
</svg>