<svg xmlns="http://www.w3.org/2000/svg" width="308" height="324" viewBox="0 0 308 324" version="1.1">
	<path d="M 55.571 63.571 C 54.707 64.436, 54 65.317, 54 65.531 C 54 66.316, 71.159 100.529, 71.965 101.349 C 74.275 103.702, 76.913 100.229, 84.760 84.501 C 89.292 75.417, 93 67.143, 93 66.115 C 93 63.770, 90.710 61.790, 88.832 62.511 C 88.050 62.811, 84.520 68.894, 80.986 76.028 C 77.453 83.163, 74.308 89, 73.997 89 C 73.687 89, 70.748 83.534, 67.467 76.853 C 59.925 61.499, 58.847 60.296, 55.571 63.571 M 63.102 127.104 C 48.516 129.321, 35.328 136.577, 24.168 148.528 C 13.743 159.690, 8.232 172.239, 6.458 188.855 L 5.779 195.210 39.120 228.605 C 57.457 246.972, 72.999 262, 73.659 262 C 74.318 262, 75.564 261.293, 76.429 260.429 C 77.712 259.145, 78 256.212, 78 244.429 L 78 230 92.429 230 C 104.212 230, 107.145 229.712, 108.429 228.429 C 109.793 227.064, 110 222.537, 110 194 C 110 165.463, 109.793 160.936, 108.429 159.571 C 107.145 158.288, 104.212 158, 92.429 158 L 78 158 78 146 C 78 132.285, 77.405 132.939, 87.540 135.515 C 108.925 140.951, 125.621 157.468, 131.003 178.511 C 132.101 182.806, 133 188.482, 133 191.125 C 133 194.956, 133.418 196.154, 135.064 197.034 C 142.986 201.274, 141.161 178.669, 132.196 161.516 C 126.915 151.410, 114.917 139.609, 104.500 134.271 C 91.374 127.546, 76.799 125.023, 63.102 127.104 M 295.200 127.200 C 294.323 128.077, 294 136.075, 294 156.937 L 294 185.473 280.131 171.631 C 267.495 159.019, 266.073 157.890, 264.131 158.930 C 262.959 159.557, 262 160.836, 262 161.772 C 262 162.708, 267.956 169.442, 275.236 176.737 L 288.472 190 229.170 190 C 190.204 190, 169.205 190.355, 167.934 191.035 C 165.446 192.367, 165.446 195.633, 167.934 196.965 C 169.205 197.645, 190.204 198, 229.170 198 L 288.472 198 275.236 211.263 C 267.956 218.558, 262 225.292, 262 226.228 C 262 227.164, 262.959 228.443, 264.131 229.070 C 266.073 230.110, 267.494 228.982, 280.116 216.385 L 293.969 202.558 294.234 231.421 C 294.471 257.088, 294.684 260.399, 296.166 261.334 C 297.375 262.096, 298.267 262.023, 299.416 261.070 C 300.832 259.895, 301 252.783, 301 194.078 C 301 127.527, 300.922 126, 297.500 126 C 296.895 126, 295.860 126.540, 295.200 127.200 M 58.645 135.584 C 38.562 140.445, 20.305 158.877, 15.537 179.103 C 12.646 191.370, 12.514 191.049, 26 204.500 L 38 216.469 38 188.270 C 38 161.413, 38.092 160.021, 39.934 159.035 C 41.005 158.462, 48.151 158, 55.934 158 L 70 158 70 146 L 70 134 67.250 134.083 C 65.737 134.129, 61.865 134.804, 58.645 135.584 M 46 194 L 46 222 58 222 L 70 222 70 194 L 70 166 58 166 L 46 166 46 194 M 78 194 L 78 222 90 222 L 102 222 102 194 L 102 166 90 166 L 78 166 78 194 M 60.500 239 C 65.427 243.950, 69.580 248, 69.729 248 C 69.878 248, 70 243.950, 70 239 L 70 230 60.771 230 L 51.542 230 60.500 239 " stroke="none" fill="black" fill-rule="evenodd"/>
</svg>