<svg xmlns="http://www.w3.org/2000/svg" width="340" height="324" viewBox="0 0 340 324" version="1.1">
	<path d="M 23.750 63.080 C 22.186 63.991, 22 66.007, 22 82.015 C 22 98.703, 22.132 100, 23.934 100.965 C 25.043 101.558, 32.905 102, 42.363 102 C 56.024 102, 59.127 101.730, 60.429 100.429 C 62.757 98.100, 62.757 65.900, 60.429 63.571 C 59.123 62.266, 56.036 62.005, 42.179 62.030 C 32.720 62.048, 24.742 62.502, 23.750 63.080 M 30 82 L 30 94 42 94 L 54 94 54 82 L 54 70 42 70 L 30 70 30 82 M 7.571 127.571 C 6.707 128.436, 6 129.529, 6 130 C 6 130.471, 6.707 131.564, 7.571 132.429 C 8.855 133.712, 11.788 134, 23.571 134 L 38 134 38 162 L 38 190 23.571 190 C 11.788 190, 8.855 190.288, 7.571 191.571 C 5.598 193.545, 5.598 194.455, 7.571 196.429 C 8.855 197.712, 11.788 198, 23.571 198 L 38 198 38 226 L 38 254 23.571 254 C 11.788 254, 8.855 254.288, 7.571 255.571 C 5.598 257.545, 5.598 258.455, 7.571 260.429 C 8.936 261.793, 13.463 262, 42 262 C 70.537 262, 75.064 261.793, 76.429 260.429 C 78.402 258.455, 78.402 257.545, 76.429 255.571 C 75.145 254.288, 72.212 254, 60.429 254 L 46 254 46 226 L 46 198 60.429 198 C 72.212 198, 75.145 197.712, 76.429 196.429 C 78.402 194.455, 78.402 193.545, 76.429 191.571 C 75.145 190.288, 72.212 190, 60.429 190 L 46 190 46 162 L 46 134 60.429 134 C 72.212 134, 75.145 133.712, 76.429 132.429 C 77.293 131.564, 78 130.471, 78 130 C 78 129.529, 77.293 128.436, 76.429 127.571 C 75.064 126.207, 70.537 126, 42 126 C 13.463 126, 8.936 126.207, 7.571 127.571 M 295.285 159.230 C 276.978 177.506, 262 193.166, 262 194.030 C 262 197.785, 263.648 198, 292.444 198 L 320.487 198 291.244 227.256 C 275.160 243.347, 262 257.281, 262 258.221 C 262 259.161, 262.928 260.427, 264.063 261.034 C 265.837 261.983, 266.784 261.545, 270.813 257.913 C 276.710 252.597, 333.929 194.677, 333.952 194 C 333.962 193.725, 333.543 192.825, 333.022 192 C 332.230 190.745, 327.491 190.418, 304.015 190 L 275.954 189.500 304.477 160.335 C 320.165 144.295, 333 130.547, 333 129.785 C 333 128.166, 331.046 126, 329.585 126 C 329.026 126, 313.591 140.953, 295.285 159.230 M 199.571 159.571 C 198.707 160.436, 198 161.636, 198 162.239 C 198 162.841, 203.941 169.334, 211.202 176.667 L 224.405 190 164.774 190 C 111.897 190, 104.965 190.178, 103.571 191.571 C 101.598 193.545, 101.598 194.455, 103.571 196.429 C 104.965 197.822, 111.897 198, 164.774 198 L 224.405 198 211.202 211.333 C 203.941 218.666, 198 225.159, 198 225.761 C 198 227.202, 200.832 230, 202.290 230 C 203.969 230, 238 195.693, 238 194 C 238 192.307, 203.969 158, 202.290 158 C 201.659 158, 200.436 158.707, 199.571 159.571 M 127.500 239.113 C 120.307 240.557, 109.184 246.262, 104.250 251.037 C 99.505 255.629, 99.609 255.402, 101.035 258.066 C 102.552 260.900, 104.760 260.449, 109.255 256.388 C 111.454 254.402, 116.234 251.364, 119.877 249.638 C 125.993 246.740, 127.304 246.500, 137 246.500 C 146.658 246.500, 148.021 246.747, 154 249.584 C 158.240 251.596, 162.815 254.963, 167.159 259.267 C 179.347 271.346, 194.058 275.921, 209.976 272.581 C 226.781 269.056, 240.762 258.001, 233.873 253.685 C 232.605 252.890, 231.264 253.469, 227.803 256.305 C 225.359 258.308, 220.692 261.195, 217.430 262.723 C 212.127 265.206, 210.389 265.500, 201 265.500 C 191.266 265.500, 190.008 265.267, 183.759 262.307 C 179.377 260.231, 175.395 257.352, 172.380 254.078 C 163.679 244.633, 152.783 239.469, 139.702 238.591 C 135.741 238.326, 130.250 238.560, 127.500 239.113 " stroke="none" fill="black" fill-rule="evenodd"/>
</svg>