<svg xmlns="http://www.w3.org/2000/svg" width="308" height="324" viewBox="0 0 308 324" version="1.1">
	<path d="M 71.571 127.571 C 70.288 128.855, 70 131.788, 70 143.571 L 70 158 55.200 158 C 45.022 158, 40.025 158.375, 39.200 159.200 C 38.324 160.076, 38 167.956, 38 188.402 L 38 216.405 24.667 203.202 C 17.334 195.941, 10.841 190, 10.239 190 C 8.799 190, 6 192.831, 6 194.287 C 6 195.818, 72.128 262, 73.659 262 C 74.318 262, 75.564 261.293, 76.429 260.429 C 77.712 259.145, 78 256.212, 78 244.429 L 78 230 92.429 230 C 104.212 230, 107.145 229.712, 108.429 228.429 C 109.793 227.064, 110 222.537, 110 194 C 110 165.463, 109.793 160.936, 108.429 159.571 C 107.145 158.288, 104.212 158, 92.429 158 L 78 158 78 143.571 C 78 131.788, 77.712 128.855, 76.429 127.571 C 75.564 126.707, 74.471 126, 74 126 C 73.529 126, 72.436 126.707, 71.571 127.571 M 162.223 127.015 C 150.830 129.386, 139.838 139.258, 136.178 150.407 C 133.341 159.050, 133.322 163.567, 136.117 165.062 C 139.190 166.707, 140.849 164.574, 142.001 157.492 C 144.974 139.228, 164.123 128.722, 180.521 136.358 C 192.739 142.047, 198.384 153.072, 196.064 166.712 C 193.304 182.945, 186.821 199.312, 177.421 213.781 C 170.166 224.949, 153.241 241.910, 142.307 248.969 C 137.802 251.878, 133.866 254.908, 133.561 255.702 C 132.751 257.812, 134.721 260.894, 137.279 261.518 C 138.500 261.815, 153.851 261.933, 171.391 261.780 C 200.497 261.524, 203.379 261.347, 204.386 259.750 C 205.191 258.474, 205.191 257.526, 204.387 256.250 C 203.394 254.675, 200.579 254.450, 176.169 254 L 149.054 253.500 156.125 248 C 178.633 230.494, 196.493 201.429, 202.442 172.626 C 205.237 159.095, 204.410 152.432, 198.768 143.021 C 191.597 131.059, 175.876 124.174, 162.223 127.015 M 231.750 159.080 C 230.155 160.009, 230 162.388, 230 186.015 C 230 211.174, 230.060 211.962, 232.064 213.034 C 233.596 213.854, 234.498 213.832, 235.564 212.947 C 236.744 211.968, 237 207.174, 237 186.078 C 237 157.906, 236.671 156.214, 231.750 159.080 M 263.200 159.200 C 262.329 160.071, 262 167.439, 262 186.078 C 262 208.286, 262.214 211.933, 263.584 213.070 C 264.733 214.023, 265.625 214.096, 266.834 213.334 C 268.307 212.405, 268.531 209.293, 268.767 186.515 C 269.034 160.783, 268.723 158, 265.578 158 C 264.930 158, 263.860 158.540, 263.200 159.200 M 46 194 L 46 222 58 222 L 70 222 70 194 L 70 166 58 166 L 46 166 46 194 M 78 194 L 78 222 90 222 L 102 222 102 194 L 102 166 90 166 L 78 166 78 194 M 231.750 222.080 C 229.372 223.465, 229.542 226.685, 232.064 228.034 C 235.753 230.008, 238.819 225.219, 235.800 222.200 C 234.367 220.767, 234.022 220.757, 231.750 222.080 M 263.040 222.452 C 260.392 225.642, 264.299 230.657, 267.416 228.070 C 269.297 226.508, 269.470 223.870, 267.800 222.200 C 266.197 220.597, 264.505 220.686, 263.040 222.452 M 60.500 239 C 65.427 243.950, 69.580 248, 69.729 248 C 69.878 248, 70 243.950, 70 239 L 70 230 60.771 230 L 51.542 230 60.500 239 " stroke="none" fill="black" fill-rule="evenodd"/>
</svg>