<svg xmlns="http://www.w3.org/2000/svg" width="276" height="324" viewBox="0 0 276 324" version="1.1">
	<path d="M 67.270 127.054 C 53.479 129.776, 43.136 139.495, 39.687 152.971 C 38.304 158.374, 38.281 158.398, 33.283 159.524 C 15.660 163.493, 3.565 181.834, 6.987 199.396 C 12.468 227.526, 46.025 238.135, 66.080 218.080 C 79.954 204.206, 79.954 182.794, 66.080 168.920 C 60.841 163.681, 52.056 159, 47.462 159 C 43.795 159, 48.030 147.875, 53.952 141.952 C 71.076 124.828, 101.030 136.911, 100.993 160.928 C 100.973 174.089, 91.595 199.398, 80.906 215.138 C 71.295 229.291, 56.294 243.619, 43.194 251.158 C 38.647 253.774, 37.931 254.590, 38.194 256.856 C 38.623 260.566, 41.886 260.746, 47.180 257.350 C 79.315 236.737, 100.464 205.779, 107.405 169.189 C 108.580 162.992, 108.715 159.758, 107.963 155.763 C 105.125 140.687, 94.363 129.832, 79.535 127.091 C 72.994 125.882, 73.205 125.883, 67.270 127.054 M 199.627 127.515 C 197.055 130.088, 197.637 131.447, 203.426 136.392 C 237.385 165.404, 237.385 221.596, 203.426 250.608 C 192.385 260.040, 198.616 263.278, 218.337 258.357 C 250.105 250.429, 272.663 217.175, 268.033 185.100 C 265.858 170.032, 260.368 158.610, 250.027 147.635 C 238.482 135.383, 224.569 128.580, 206.877 126.537 C 202.402 126.020, 200.923 126.220, 199.627 127.515 M 217.990 141.155 C 224.426 149.105, 231.381 163.058, 234.113 173.500 C 235.677 179.476, 236.207 184.536, 236.207 193.500 C 236.207 202.464, 235.677 207.524, 234.113 213.500 C 231.381 223.942, 224.426 237.895, 217.990 245.845 L 212.854 252.191 216.177 251.541 C 218.005 251.183, 223.275 249.062, 227.889 246.828 C 238.680 241.602, 248.933 231.722, 254.278 221.397 C 269.746 191.517, 257.796 154.600, 228 140.214 C 223.325 137.957, 218.005 135.817, 216.177 135.459 L 212.854 134.809 217.990 141.155 M 151.571 159.571 C 150.324 160.819, 150 163.528, 150 172.716 L 150 184.290 144.560 179.145 C 141.568 176.315, 138.675 174, 138.131 174 C 136.829 174, 134 176.861, 134 178.178 C 134 178.747, 137.226 182.540, 141.169 186.607 L 148.338 194 141.169 201.393 C 137.226 205.460, 134 209.253, 134 209.822 C 134 211.139, 136.829 214, 138.131 214 C 138.675 214, 141.568 211.685, 144.560 208.855 L 150 203.710 150 215.284 C 150 224.472, 150.324 227.181, 151.571 228.429 C 153.545 230.402, 154.455 230.402, 156.429 228.429 C 157.676 227.181, 158 224.472, 158 215.284 L 158 203.710 163.440 208.855 C 166.432 211.685, 169.325 214, 169.869 214 C 171.171 214, 174 211.139, 174 209.822 C 174 209.253, 170.774 205.460, 166.831 201.393 L 159.662 194 166.831 186.607 C 170.774 182.540, 174 178.747, 174 178.178 C 174 176.861, 171.171 174, 169.869 174 C 169.325 174, 166.432 176.315, 163.440 179.145 L 158 184.290 158 172.716 C 158 163.528, 157.676 160.819, 156.429 159.571 C 155.564 158.707, 154.471 158, 154 158 C 153.529 158, 152.436 158.707, 151.571 159.571 M 31.054 167.728 C 25.018 169.859, 17.781 177.260, 15.667 183.463 C 11.995 194.241, 14.382 205.477, 21.952 213.048 C 32.673 223.769, 50.327 223.769, 61.048 213.048 C 71.769 202.327, 71.769 184.673, 61.048 173.952 C 53.519 166.424, 41.696 163.970, 31.054 167.728 " stroke="none" fill="black" fill-rule="evenodd"/>
</svg>