<svg xmlns="http://www.w3.org/2000/svg" width="580" height="324" viewBox="0 0 580 324" version="1.1">
	<path d="M 391.315 111.213 C 381.792 120.680, 374 129.134, 374 130 C 374 131.680, 407.953 166, 409.615 166 C 411.105 166, 413 163.795, 413 162.062 C 413 161.216, 406.143 153.656, 397.762 145.262 L 382.524 130 397.762 114.738 C 406.143 106.344, 413 98.784, 413 97.938 C 413 96.205, 411.105 94, 409.615 94 C 409.073 94, 400.838 101.746, 391.315 111.213 M 313.011 173.499 L 265.474 220.998 249.999 205.499 C 241.488 196.975, 234.213 190, 233.834 190 C 232.736 190, 230 193.033, 230 194.249 C 230 194.857, 236.844 202.250, 245.208 210.677 L 260.416 226 245.208 241.323 C 236.844 249.750, 230 257.143, 230 257.751 C 230 258.967, 232.736 262, 233.834 262 C 234.213 262, 241.482 255.031, 249.987 246.514 L 265.449 231.027 281.045 246.514 C 289.623 255.031, 297.082 262, 297.621 262 C 299.106 262, 301 259.793, 301 258.062 C 301 257.216, 294.141 249.654, 285.758 241.258 L 270.516 225.992 317.758 178.742 C 343.741 152.755, 365 130.796, 365 129.946 C 365 128.186, 363.102 126, 361.574 126 C 361.010 126, 339.157 147.375, 313.011 173.499 M 471.250 159.237 L 438 192.511 438 226.056 C 438 250.812, 438.314 259.914, 439.200 260.800 C 440.109 261.709, 456.172 261.996, 505.450 261.985 C 541.227 261.976, 571.075 261.605, 571.777 261.159 C 572.773 260.527, 573.054 252.863, 573.053 226.424 L 573.051 192.500 540.046 159.500 C 521.893 141.350, 506.469 126.379, 505.770 126.232 C 505.072 126.084, 489.538 140.936, 471.250 159.237 M 475.236 165.280 L 445 195.576 445 224.788 L 445 254 505.500 254 L 566 254 566 224.744 L 566 195.488 535.736 165.236 L 505.472 134.984 475.236 165.280 M 40.370 190.765 C 38.401 192.045, 6.007 257.855, 6.594 259.384 C 7.265 261.133, 9.512 262.124, 11.274 261.448 C 11.975 261.180, 19.056 247.919, 27.010 231.980 C 34.964 216.041, 41.710 203, 42 203 C 42.290 203, 49.036 216.041, 56.990 231.980 C 64.944 247.919, 72.025 261.180, 72.726 261.448 C 73.427 261.717, 74.573 261.717, 75.274 261.448 C 75.975 261.180, 83.056 247.919, 91.010 231.980 C 98.964 216.041, 105.710 203, 106 203 C 106.290 203, 113.036 216.041, 120.990 231.980 C 128.944 247.919, 136.025 261.180, 136.726 261.448 C 137.427 261.717, 138.573 261.717, 139.274 261.448 C 139.975 261.180, 147.056 247.919, 155.010 231.980 C 162.964 216.041, 169.710 203, 170 203 C 170.290 203, 177.036 216.041, 184.990 231.980 C 192.944 247.919, 200.083 261.201, 200.853 261.497 C 202.714 262.211, 205 260.218, 205 257.882 C 205 255.326, 172.851 191.157, 171.266 190.548 C 170.570 190.281, 169.408 190.290, 168.685 190.567 C 167.962 190.845, 160.888 204.106, 152.965 220.036 C 145.042 235.966, 138.315 249, 138.016 249 C 137.717 249, 130.964 235.959, 123.010 220.020 C 115.056 204.081, 107.975 190.820, 107.274 190.552 C 106.573 190.283, 105.427 190.283, 104.726 190.552 C 104.025 190.820, 96.944 204.081, 88.990 220.020 C 81.036 235.959, 74.290 249, 74 249 C 73.709 249, 67.178 236.339, 59.486 220.864 C 51.794 205.389, 44.905 192.114, 44.179 191.364 C 42.686 189.823, 41.988 189.713, 40.370 190.765 M 503.616 191.527 C 502.727 192.416, 502 193.529, 502 194 C 502 195.389, 505.140 198.120, 506.295 197.735 C 508.395 197.035, 509.549 194.094, 508.423 192.310 C 506.905 189.902, 505.474 189.669, 503.616 191.527 " stroke="none" fill="black" fill-rule="evenodd"/>
</svg>