<svg xmlns="http://www.w3.org/2000/svg" width="595" height="324" viewBox="0 0 595 324" version="1.1">
	<path d="M 7.571 127.571 C 6.207 128.936, 6 133.463, 6 162 C 6 190.537, 6.207 195.064, 7.571 196.429 C 8.844 197.701, 11.697 198, 22.575 198 L 36.006 198 21.020 227.961 C 12.777 244.439, 6.285 258.580, 6.594 259.384 C 7.265 261.133, 9.512 262.125, 11.274 261.448 C 11.975 261.180, 19.056 247.919, 27.010 231.980 C 34.964 216.041, 41.714 203, 42.009 203 C 42.304 203, 49.101 216.162, 57.113 232.250 C 65.625 249.342, 72.319 261.625, 73.219 261.800 C 74.065 261.965, 75.487 261.370, 76.379 260.479 C 77.840 259.017, 78 252.475, 78 194 C 78 136.372, 77.825 128.968, 76.429 127.571 C 74.455 125.598, 73.545 125.598, 71.571 127.571 C 70.212 128.931, 70 133.242, 70 159.571 L 70 190 42 190 L 14 190 14 159.571 C 14 133.242, 13.788 128.931, 12.429 127.571 C 11.564 126.707, 10.471 126, 10 126 C 9.529 126, 8.436 126.707, 7.571 127.571 M 118 190.602 C 111.998 192.737, 108.691 194.721, 106.671 197.400 C 104.179 200.704, 102 206.151, 102 209.078 C 102 210.923, 104.501 214, 106 214 C 107.861 214, 110 210.700, 110 207.829 C 110 205.718, 111.030 203.770, 113.400 201.400 C 116.278 198.522, 117.504 198, 121.384 198 C 127.174 198, 131.813 201.731, 132.577 207 C 133.039 210.191, 131.713 212.559, 117.542 233.846 C 108.994 246.686, 102 257.734, 102 258.396 C 102 261.549, 104.458 262, 121.629 262 C 135.958 262, 139.122 261.736, 140.429 260.429 C 142.402 258.455, 142.402 257.545, 140.429 255.571 C 139.162 254.305, 136.348 254, 125.926 254 L 112.995 254 127.499 232.239 L 142.002 210.477 140.025 205.068 C 137.929 199.333, 134.210 194.715, 129.855 192.439 C 126.805 190.846, 120.195 189.821, 118 190.602 M 358.750 191.080 C 357.589 191.757, 356.994 193.344, 356.983 195.800 C 356.931 206.908, 351.337 221.468, 343.285 231.456 C 337.411 238.743, 325.600 246.972, 316.826 249.892 C 305.979 253.501, 295.903 253.985, 231.321 253.992 C 176.135 253.999, 168.966 254.177, 167.571 255.571 C 165.598 257.545, 165.598 258.455, 167.571 260.429 C 168.967 261.824, 176.287 262, 233.057 262 C 270.913 262, 298.710 261.603, 301.236 261.027 C 303.581 260.491, 308.425 259.509, 312 258.843 C 315.656 258.163, 322.439 255.665, 327.500 253.136 C 338.926 247.427, 350.539 236.209, 356.264 225.348 C 362.510 213.500, 366.139 194.539, 362.800 191.200 C 361.367 189.767, 361.022 189.757, 358.750 191.080 M 391.750 191.077 C 389.720 192.263, 389.431 195.514, 391.250 196.691 C 391.938 197.136, 395.602 197.725, 399.394 198 L 406.288 198.500 407.476 203.197 C 410.648 215.738, 423.781 226.829, 437.487 228.542 C 447.791 229.829, 461.501 224.236, 467.864 216.148 C 471.426 211.620, 474.535 205.522, 475.456 201.258 L 476.155 198.017 531.719 197.758 C 583.385 197.518, 587.360 197.377, 588.386 195.750 C 589.191 194.474, 589.191 193.526, 588.386 192.250 C 587.349 190.605, 581.441 190.487, 490.391 190.278 C 425.811 190.129, 392.916 190.396, 391.750 191.077 M 58.607 219.250 C 64.446 230.938, 69.398 240.688, 69.612 240.917 C 69.825 241.146, 70 231.583, 70 219.667 L 70 198 58.995 198 L 47.991 198 58.607 219.250 M 414.022 199.250 C 414.068 201.852, 418.238 209.630, 421.307 212.838 C 426.050 217.795, 431.552 220.232, 439.253 220.784 C 447.700 221.391, 453.591 219.333, 459.842 213.594 C 464.204 209.590, 467.934 203.242, 467.978 199.750 C 467.998 198.126, 466.056 198, 441 198 C 420.055 198, 414.005 198.280, 414.022 199.250 " stroke="none" fill="black" fill-rule="evenodd"/>
</svg>