<svg xmlns="http://www.w3.org/2000/svg" width="340" height="324" viewBox="0 0 340 324" version="1.1">
	<path d="M 72.316 62.784 C 70.369 64.022, 54.007 97.855, 54.604 99.410 C 55.269 101.144, 57.524 102.120, 59.295 101.440 C 60.007 101.167, 63.480 95.106, 67.014 87.972 C 70.547 80.837, 73.691 75, 74 75 C 74.309 75, 77.453 80.837, 80.986 87.972 C 84.520 95.106, 87.993 101.167, 88.705 101.440 C 90.487 102.124, 92.732 101.141, 93.407 99.381 C 93.997 97.844, 77.582 64.037, 75.628 62.765 C 74.214 61.845, 73.789 61.847, 72.316 62.784 M 89.288 173.222 L 42.028 220.444 26.691 205.222 C 18.256 196.850, 10.857 190, 10.249 190 C 8.819 190, 6 192.819, 6 194.249 C 6 194.857, 12.844 202.250, 21.208 210.677 L 36.416 226 21.208 241.323 C 12.844 249.750, 6 257.143, 6 257.751 C 6 259.181, 8.819 262, 10.249 262 C 10.857 262, 18.250 255.156, 26.677 246.792 L 42 231.584 57.323 246.792 C 65.750 255.156, 73.143 262, 73.751 262 C 75.181 262, 78 259.181, 78 257.751 C 78 257.143, 71.150 249.744, 62.778 241.309 L 47.556 225.972 94.778 178.712 C 120.750 152.718, 142 130.932, 142 130.297 C 142 129.662, 141.293 128.436, 140.429 127.571 C 139.564 126.707, 138.338 126, 137.703 126 C 137.068 126, 115.282 147.250, 89.288 173.222 M 194.344 158.988 C 184.010 161.166, 173.930 169.366, 169.417 179.266 C 163.406 192.448, 166.534 208.614, 176.987 218.392 C 182.905 223.927, 187.855 226.477, 195.660 228.013 C 210.434 230.920, 226.063 222.656, 233.203 208.162 C 235.135 204.241, 235.500 201.911, 235.500 193.500 C 235.500 181.464, 233.483 176.393, 225.518 168.404 C 217.736 160.597, 204.983 156.745, 194.344 158.988 M 263.200 159.200 C 261.481 160.919, 261.481 227.081, 263.200 228.800 C 264.602 230.202, 329.610 230.534, 331.791 229.150 C 332.805 228.507, 333.082 220.958, 333.082 194 C 333.082 167.042, 332.805 159.493, 331.791 158.850 C 329.610 157.466, 264.602 157.798, 263.200 159.200 M 191.627 167.468 C 186.247 169.386, 181.039 173.829, 177.500 179.519 C 174.969 183.589, 174.444 185.570, 174.143 192.193 C 173.830 199.089, 174.110 200.705, 176.454 205.496 C 181.309 215.419, 190.653 221.078, 201.928 220.924 C 212.142 220.784, 220.647 215.739, 225.500 206.939 C 228.130 202.171, 228.500 200.513, 228.500 193.500 C 228.500 186.487, 228.130 184.829, 225.500 180.061 C 222.429 174.492, 216.651 169.526, 210.684 167.326 C 206.327 165.720, 196.323 165.794, 191.627 167.468 M 269 194 L 269 222 297.500 222 L 326 222 326 194 L 326 166 297.500 166 L 269 166 269 194 M 199.616 191.527 C 198.727 192.416, 198 193.529, 198 194 C 198 195.389, 201.140 198.120, 202.295 197.735 C 204.395 197.035, 205.549 194.094, 204.423 192.310 C 202.905 189.902, 201.474 189.669, 199.616 191.527 " stroke="none" fill="black" fill-rule="evenodd"/>
</svg>