<svg xmlns="http://www.w3.org/2000/svg" width="308" height="324" viewBox="0 0 308 324" version="1.1">
	<path d="M 71.550 62.918 C 67.869 68.875, 54.190 98.331, 54.604 99.410 C 55.269 101.144, 57.524 102.120, 59.295 101.440 C 60.007 101.167, 63.480 95.106, 67.014 87.972 C 70.547 80.837, 73.691 75, 74 75 C 74.309 75, 77.453 80.837, 80.986 87.972 C 84.520 95.106, 88.050 101.189, 88.832 101.489 C 90.716 102.212, 93 100.227, 93 97.866 C 93 95.626, 77.264 63.831, 75.628 62.765 C 74.071 61.751, 72.229 61.820, 71.550 62.918 M 103.616 159.527 C 102.727 160.416, 102 161.636, 102 162.239 C 102 162.841, 107.941 169.334, 115.202 176.667 L 128.405 190 68.774 190 C 15.897 190, 8.965 190.178, 7.571 191.571 C 5.598 193.545, 5.598 194.455, 7.571 196.429 C 8.965 197.822, 15.897 198, 68.774 198 L 128.405 198 115.202 211.333 C 107.941 218.666, 102 225.159, 102 225.761 C 102 227.200, 104.997 230.172, 106.068 229.795 C 107.353 229.342, 142 194.827, 142 194 C 142 193.173, 107.353 158.658, 106.068 158.205 C 105.608 158.043, 104.505 158.638, 103.616 159.527 M 263.750 159.080 C 262.788 159.641, 262 160.858, 262 161.786 C 262 162.714, 267.956 169.442, 275.236 176.737 L 288.472 190 229.170 190 C 190.204 190, 169.205 190.355, 167.934 191.035 C 165.446 192.367, 165.446 195.633, 167.934 196.965 C 169.205 197.645, 190.204 198, 229.170 198 L 288.472 198 275.236 211.263 C 267.956 218.558, 262 225.292, 262 226.228 C 262 227.164, 262.960 228.443, 264.133 229.071 C 266.084 230.115, 267.752 228.729, 283.633 212.867 C 293.185 203.327, 301 194.837, 301 194 C 301 192.655, 267.224 157.954, 265.990 158.030 C 265.720 158.047, 264.712 158.519, 263.750 159.080 " stroke="none" fill="black" fill-rule="evenodd"/>
</svg>