<svg xmlns="http://www.w3.org/2000/svg" width="276" height="324" viewBox="0 0 276 324" version="1.1">
	<path d="M 33.384 127.412 C 20.085 130.639, 10.019 141.137, 7.123 154.799 C 5.638 161.808, 5.612 223.533, 7.091 231.535 C 12.106 258.660, 44.571 269.837, 64.928 251.446 C 70.073 246.798, 73.340 241.354, 75.697 233.500 C 77.281 228.222, 77.491 223.469, 77.448 194 C 77.416 171.783, 77.001 158.878, 76.218 155.685 C 72.488 140.486, 63.078 130.639, 49.147 127.360 C 42.397 125.772, 40.111 125.779, 33.384 127.412 M 168.369 126.765 C 167.416 127.384, 102 257.155, 102 258.426 C 102 258.663, 102.707 259.564, 103.571 260.429 C 104.936 261.793, 109.463 262, 138 262 C 166.537 262, 171.064 261.793, 172.429 260.429 C 173.293 259.564, 174 258.471, 174 258 C 174 257.529, 173.293 256.436, 172.429 255.571 C 171.071 254.214, 166.848 254, 141.427 254 L 111.997 254 142.998 192.003 C 160.049 157.905, 174 129.812, 174 129.575 C 174 128.872, 170.916 125.999, 170.179 126.015 C 169.805 126.024, 168.991 126.361, 168.369 126.765 M 31.054 135.728 C 25.018 137.859, 17.781 145.260, 15.667 151.463 C 11.995 162.241, 14.382 173.477, 21.952 181.048 C 32.673 191.769, 50.327 191.769, 61.048 181.048 C 71.769 170.327, 71.769 152.673, 61.048 141.952 C 53.519 134.424, 41.696 131.970, 31.054 135.728 M 225.384 159.412 C 207.475 163.758, 195.559 181.807, 198.987 199.396 C 204.468 227.526, 238.025 238.135, 258.080 218.080 C 277.586 198.574, 268.109 165.706, 241.147 159.360 C 234.397 157.772, 232.111 157.779, 225.384 159.412 M 223.054 167.728 C 217.018 169.859, 209.781 177.260, 207.667 183.463 C 203.995 194.241, 206.382 205.477, 213.952 213.048 C 224.673 223.769, 242.327 223.769, 253.048 213.048 C 263.769 202.327, 263.769 184.673, 253.048 173.952 C 245.519 166.424, 233.696 163.970, 223.054 167.728 M 64.720 187.536 C 51.985 199.105, 31.528 199.258, 18.603 187.882 L 14 183.830 14 207.237 C 14 234.741, 14.627 237.722, 21.952 245.048 C 32.673 255.769, 50.327 255.769, 61.048 245.048 C 68.313 237.782, 69.200 234.157, 69.739 209.500 C 69.991 197.950, 70.041 187.306, 69.849 185.847 L 69.500 183.194 64.720 187.536 " stroke="none" fill="black" fill-rule="evenodd"/>
</svg>