<svg xmlns="http://www.w3.org/2000/svg" width="244" height="324" viewBox="0 0 244 324" version="1.1">
	<path d="M 199.285 159.230 C 180.978 177.506, 166 193.166, 166 194.030 C 166 197.785, 167.649 198, 196.427 198 L 224.455 198 195.227 227.289 C 179.152 243.398, 166 257.091, 166 257.718 C 166 259.207, 168.984 262.174, 170.100 261.795 C 171.372 261.363, 238 194.696, 238 193.856 C 238 193.464, 237.293 192.436, 236.429 191.571 C 235.074 190.217, 230.963 190, 206.685 190 L 178.513 190 207.756 160.744 C 223.840 144.653, 237 130.793, 237 129.944 C 237 128.191, 235.103 126, 233.585 126 C 233.026 126, 217.591 140.953, 199.285 159.230 M 103.571 159.571 C 102.707 160.436, 102 161.636, 102 162.239 C 102 162.841, 107.941 169.334, 115.202 176.667 L 128.405 190 68.774 190 C 15.897 190, 8.965 190.178, 7.571 191.571 C 5.598 193.545, 5.598 194.455, 7.571 196.429 C 8.965 197.822, 15.897 198, 68.774 198 L 128.405 198 115.202 211.333 C 107.941 218.666, 102 225.159, 102 225.761 C 102 227.202, 104.832 230, 106.290 230 C 107.969 230, 142 195.693, 142 194 C 142 192.307, 107.969 158, 106.290 158 C 105.659 158, 104.436 158.707, 103.571 159.571 M 33.244 239.109 C 21.572 241.054, 4.461 252.234, 5.204 257.430 C 5.738 261.166, 9.662 260.567, 14.627 255.990 C 21.254 249.881, 28.827 246.798, 38.591 246.234 C 52.525 245.428, 61.502 249.115, 72 259.956 C 87.068 275.515, 112.284 277.907, 131.387 265.590 C 139.926 260.083, 141.996 256.286, 137.873 253.690 C 136.602 252.890, 135.271 253.464, 131.803 256.305 C 129.359 258.308, 124.692 261.195, 121.430 262.723 C 116.127 265.206, 114.389 265.500, 105 265.500 C 95.344 265.500, 93.977 265.252, 88 262.418 C 83.615 260.339, 79.554 257.310, 75.522 253.110 C 68.411 245.705, 58.680 240.538, 49 239.029 C 41.654 237.883, 40.571 237.889, 33.244 239.109 " stroke="none" fill="black" fill-rule="evenodd"/>
</svg>