<svg xmlns="http://www.w3.org/2000/svg" width="228" height="324" viewBox="0 0 228 324" version="1.1">
	<path d="M 61.500 127.407 C 36.273 132.251, 15.553 151.398, 8.374 176.500 C 6.927 181.561, 6.594 188.462, 6.248 220.597 C 5.877 255.034, 5.996 258.854, 7.490 260.347 C 8.993 261.850, 15.020 262, 74 262 C 131.628 262, 139.032 261.825, 140.429 260.429 C 141.791 259.066, 142 254.649, 142 227.239 C 142 208.625, 141.548 193.128, 140.902 189.560 C 136.771 166.761, 133.128 159.051, 120.539 146.461 C 110.800 136.722, 102.203 131.569, 90.736 128.596 C 82.124 126.364, 69.587 125.854, 61.500 127.407 M 59.217 135.449 C 38.050 140.575, 19.428 159.713, 15.090 180.799 C 14.429 184.014, 14 199.452, 14 220.049 L 14 254 74.114 254 L 134.228 254 133.702 219.750 C 133.382 198.896, 132.716 183.544, 131.999 180.500 C 127.988 163.461, 115.319 147.515, 100 140.225 C 95.325 138, 89.115 135.690, 86.201 135.090 C 79.260 133.662, 65.861 133.841, 59.217 135.449 M 183.571 159.571 C 181.243 161.900, 181.243 194.100, 183.571 196.429 C 184.436 197.293, 185.529 198, 186 198 C 186.471 198, 187.564 197.293, 188.429 196.429 C 189.733 195.124, 190 191.991, 190 178 C 190 164.009, 189.733 160.876, 188.429 159.571 C 187.564 158.707, 186.471 158, 186 158 C 185.529 158, 184.436 158.707, 183.571 159.571 M 71.571 191.571 C 70.707 192.436, 70 193.529, 70 194 C 70 194.471, 70.707 195.564, 71.571 196.429 C 72.436 197.293, 73.529 198, 74 198 C 74.471 198, 75.564 197.293, 76.429 196.429 C 77.293 195.564, 78 194.471, 78 194 C 78 193.529, 77.293 192.436, 76.429 191.571 C 75.564 190.707, 74.471 190, 74 190 C 73.529 190, 72.436 190.707, 71.571 191.571 M 180.648 206.983 C 161.573 212.993, 162.128 238.779, 181.447 244.113 C 190.793 246.694, 201.232 239.988, 204.113 229.553 C 207.637 216.790, 193.298 202.997, 180.648 206.983 M 177.400 217.400 C 174.498 220.302, 174 221.488, 174 225.500 C 174 229.512, 174.498 230.698, 177.400 233.600 C 180.302 236.502, 181.488 237, 185.500 237 C 189.512 237, 190.698 236.502, 193.600 233.600 C 196.502 230.698, 197 229.512, 197 225.500 C 197 221.488, 196.502 220.302, 193.600 217.400 C 190.698 214.498, 189.512 214, 185.500 214 C 181.488 214, 180.302 214.498, 177.400 217.400 " stroke="none" fill="black" fill-rule="evenodd"/>
</svg>