<svg xmlns="http://www.w3.org/2000/svg" width="468" height="324" viewBox="0 0 468 324" version="1.1">
	<path d="M 67.500 126.895 C 53.981 129.352, 42.464 140.227, 39.515 153.322 C 38.385 158.341, 38.341 158.385, 33.322 159.515 C 26.827 160.978, 20.285 164.835, 15.710 169.900 C -2.973 190.579, 8.001 222.635, 35.604 228.013 C 58.779 232.529, 80.707 210.481, 76 187.396 C 73.161 173.471, 62.183 161.813, 49.703 159.472 C 45.492 158.682, 45.371 158.203, 47.667 151.463 C 49.875 144.983, 56.983 137.875, 63.463 135.667 C 74.255 131.990, 85.476 134.381, 93.071 141.976 C 99.228 148.132, 101.497 154.745, 100.635 164.020 C 99.248 178.943, 90.406 201.320, 79.815 216.708 C 72.409 227.468, 58.158 241.338, 47.150 248.500 C 39.180 253.685, 37.966 254.840, 38.214 257 C 38.847 262.524, 44.202 260.384, 59.513 248.487 C 83.688 229.704, 99.449 204.358, 106.635 172.706 C 109.439 160.354, 108.983 154.597, 104.471 145.358 C 98.142 132.402, 81.881 124.282, 67.500 126.895 M 199.571 127.571 C 198.176 128.966, 198 136.152, 198 191.571 L 198 254 167.571 254 C 141.242 254, 136.931 254.212, 135.571 255.571 C 133.598 257.545, 133.598 258.455, 135.571 260.429 C 136.968 261.825, 144.372 262, 202 262 C 259.628 262, 267.032 261.825, 268.429 260.429 C 269.293 259.564, 270 258.471, 270 258 C 270 257.529, 269.293 256.436, 268.429 255.571 C 267.069 254.212, 262.758 254, 236.429 254 L 206 254 206 226 L 206 198 236.429 198 C 262.758 198, 267.069 197.788, 268.429 196.429 C 269.793 195.064, 270 190.537, 270 162 C 270 133.463, 269.793 128.936, 268.429 127.571 C 267.064 126.207, 262.537 126, 234 126 C 205.463 126, 200.936 126.207, 199.571 127.571 M 455.571 127.571 C 454.199 128.944, 454 133.890, 454 166.699 L 454 204.255 449.599 200.198 C 428.797 181.023, 396.678 191.545, 391 219.396 C 388.131 233.464, 395.708 249.216, 408.712 256.219 C 429.311 267.314, 453.414 256.446, 459.877 233.147 C 461.180 228.449, 461.493 219.235, 461.740 178.340 C 462.005 134.487, 461.865 129.008, 460.447 127.590 C 458.455 125.597, 457.549 125.594, 455.571 127.571 M 206 162 L 206 190 234 190 L 262 190 262 162 L 262 134 234 134 L 206 134 206 162 M 321.384 159.412 C 303.475 163.758, 291.559 181.807, 294.987 199.396 C 296.500 207.161, 300.212 214.019, 305.580 218.967 C 326.277 238.045, 358.591 227.221, 364.013 199.396 C 367.488 181.565, 355.484 163.676, 337.147 159.360 C 330.397 157.772, 328.111 157.779, 321.384 159.412 M 31.054 167.728 C 25.018 169.859, 17.781 177.260, 15.667 183.463 C 11.995 194.241, 14.382 205.477, 21.952 213.048 C 32.673 223.769, 50.327 223.769, 61.048 213.048 C 71.769 202.327, 71.769 184.673, 61.048 173.952 C 53.519 166.424, 41.696 163.970, 31.054 167.728 M 319.054 167.728 C 313.018 169.859, 305.781 177.260, 303.667 183.463 C 297.198 202.450, 309.964 221, 329.500 221 C 345.108 221, 357 209.108, 357 193.500 C 357 177.670, 344.965 165.854, 329.072 166.079 C 326.007 166.122, 321.499 166.864, 319.054 167.728 M 415.054 199.728 C 409.018 201.859, 401.781 209.260, 399.667 215.463 C 393.198 234.450, 405.964 253, 425.500 253 C 441.108 253, 453 241.108, 453 225.500 C 453 209.670, 440.965 197.854, 425.072 198.079 C 422.007 198.122, 417.499 198.864, 415.054 199.728 " stroke="none" fill="black" fill-rule="evenodd"/>
</svg>