<svg xmlns="http://www.w3.org/2000/svg" width="244" height="324" viewBox="0 0 244 324" version="1.1">
	<path d="M 33.384 127.357 C 19.974 130.754, 10.013 141.164, 7.123 154.799 C 5.447 162.706, 5.639 225.832, 7.360 233.147 C 11.595 251.137, 29.233 263.277, 46.498 260.085 C 61.593 257.295, 71.174 248.571, 75.697 233.500 C 77.281 228.222, 77.491 223.469, 77.448 194 C 77.396 158.380, 77.015 154.674, 72.438 145.297 C 65.839 131.776, 48.102 123.628, 33.384 127.357 M 166.667 126.667 C 165.220 128.113, 166.142 131.392, 169.016 135.020 C 170.675 137.115, 173.262 141.454, 174.765 144.664 C 177.211 149.887, 177.494 151.603, 177.457 161 C 177.385 179.471, 174.582 183.496, 131.834 226.538 C 115.425 243.059, 102 257.089, 102 257.716 C 102 259.204, 104.812 261.998, 106.321 262.009 C 106.970 262.014, 117.754 251.658, 130.286 238.996 L 153.072 215.974 152.419 220.902 C 150.964 231.871, 156.215 247.939, 164.024 256.410 C 168.455 261.218, 170.892 262.040, 173.038 259.454 C 174.105 258.168, 173.958 257.452, 172.166 255.204 C 161.857 242.272, 159.621 236.231, 160.244 223 C 160.980 207.364, 160.139 208.507, 201.066 167.469 C 220.830 147.653, 237 130.755, 237 129.919 C 237 128.193, 235.096 126, 233.597 126 C 233.045 126, 221.773 136.788, 208.547 149.974 L 184.500 173.947 184.500 161.224 C 184.500 148.913, 184.393 148.275, 181.212 141.557 C 175.878 130.291, 169.535 123.798, 166.667 126.667 M 31.054 135.728 C 25.018 137.859, 17.781 145.260, 15.667 151.463 C 11.995 162.241, 14.382 173.477, 21.952 181.048 C 32.402 191.497, 49.888 191.773, 60.280 181.653 C 66.701 175.401, 68.500 170.989, 68.500 161.500 C 68.500 152.107, 66.733 147.694, 60.453 141.406 C 53.491 134.434, 41.355 132.091, 31.054 135.728 M 66.012 186.486 C 58.737 193.995, 45.477 198.065, 35.198 195.944 C 28.125 194.485, 23.072 191.964, 17.955 187.340 L 14 183.767 14 207.205 C 14 234.744, 14.626 237.721, 21.952 245.048 C 32.402 255.497, 49.888 255.773, 60.280 245.653 C 68.682 237.471, 70.193 230.559, 69.781 202.193 L 69.500 182.886 66.012 186.486 " stroke="none" fill="black" fill-rule="evenodd"/>
</svg>