<svg xmlns="http://www.w3.org/2000/svg" width="180" height="324" viewBox="0 0 180 324" version="1.1">
	<path d="M 7.571 127.571 C 6.707 128.436, 6 129.529, 6 130 C 6 131.111, 8.889 134, 10 134 C 11.111 134, 14 131.111, 14 130 C 14 128.889, 11.111 126, 10 126 C 9.529 126, 8.436 126.707, 7.571 127.571 M 7.571 159.571 C 6.207 160.936, 6 165.463, 6 194 C 6 222.537, 6.207 227.064, 7.571 228.429 C 9.545 230.402, 10.455 230.402, 12.429 228.429 C 13.793 227.064, 14 222.537, 14 194 C 14 165.463, 13.793 160.936, 12.429 159.571 C 11.564 158.707, 10.471 158, 10 158 C 9.529 158, 8.436 158.707, 7.571 159.571 M 39.515 191.627 C 38.220 192.923, 38.020 194.402, 38.537 198.877 C 39.409 206.430, 41.525 214.671, 44.065 220.413 L 46.156 225.141 43.711 231.321 C 40.960 238.276, 39.362 244.871, 38.439 253.084 C 37.937 257.548, 38.145 259.002, 39.477 260.334 C 41.547 262.404, 42.436 262.421, 44.429 260.429 C 45.404 259.453, 46.006 257.082, 46.015 254.179 C 46.030 249.303, 48.335 238.111, 49.942 235.108 C 50.740 233.616, 52.038 234.505, 59.185 241.442 C 72.429 254.293, 86.818 260.231, 105 260.346 C 124.452 260.469, 140.622 253.524, 154.253 239.191 C 159.401 233.778, 160.110 233.337, 160.996 234.993 C 162.656 238.095, 164.970 249.221, 164.985 254.179 C 164.994 257.082, 165.596 259.453, 166.571 260.429 C 168.561 262.418, 169.453 262.404, 171.509 260.348 C 174.228 257.629, 172.318 244.584, 167.325 231.776 L 164.703 225.053 167.240 219.276 C 169.901 213.219, 171.491 206.941, 172.528 198.395 C 173.013 194.399, 172.791 192.933, 171.502 191.645 C 170.598 190.740, 169.471 190, 169 190 C 166.878 190, 164.999 193.426, 164.985 197.321 C 164.969 201.787, 162.593 213.023, 161.058 215.892 C 160.259 217.384, 158.961 216.497, 151.792 209.564 C 138.230 196.447, 124.121 190.696, 105.500 190.696 C 86.964 190.696, 72.724 196.500, 59.211 209.564 C 52.039 216.497, 50.741 217.384, 49.942 215.892 C 48.407 213.023, 46.031 201.787, 46.015 197.321 C 46.001 193.426, 44.122 190, 42 190 C 41.529 190, 40.411 190.732, 39.515 191.627 M 90.645 199.584 C 78.659 202.485, 61.898 213.969, 56.748 222.808 L 54.996 225.815 59.011 230.895 C 82.389 260.470, 128.677 260.387, 152.121 230.728 L 156.004 225.815 154.252 222.808 C 148.981 213.762, 132.296 202.460, 119.897 199.537 C 111.998 197.676, 98.439 197.697, 90.645 199.584 M 7.571 255.571 C 6.707 256.436, 6 257.529, 6 258 C 6 259.111, 8.889 262, 10 262 C 11.111 262, 14 259.111, 14 258 C 14 256.889, 11.111 254, 10 254 C 9.529 254, 8.436 254.707, 7.571 255.571 " stroke="none" fill="black" fill-rule="evenodd"/>
</svg>