<svg xmlns="http://www.w3.org/2000/svg" width="436" height="324" viewBox="0 0 436 324" version="1.1">
	<path d="M 67.270 127.025 C 53.404 129.856, 43.132 139.508, 39.696 152.933 L 38.318 158.318 32.933 159.696 C 6.591 166.438, -2.302 198.858, 16.920 218.080 C 24.030 225.190, 31.429 228.252, 41.500 228.252 C 51.571 228.252, 58.970 225.190, 66.080 218.080 C 73.159 211.001, 76.193 203.627, 76.193 193.500 C 76.193 183.373, 73.159 175.999, 66.080 168.920 C 60.841 163.681, 52.056 159, 47.462 159 C 43.347 159, 48.781 146.056, 55.205 140.557 C 66.108 131.224, 82.951 131.855, 93.071 141.976 C 101.759 150.664, 102.921 160.650, 97.449 179.621 C 94.412 190.149, 86.904 206.305, 81.025 214.964 C 71.293 229.294, 56.360 243.581, 43.194 251.158 C 38.647 253.774, 37.931 254.590, 38.194 256.856 C 38.713 261.336, 41.908 260.642, 52.108 253.832 C 79.889 235.287, 99.790 205.192, 106.977 170.859 C 109.198 160.250, 108.553 153.695, 104.470 145.349 C 98.165 132.461, 81.308 124.159, 67.270 127.025 M 255.870 127.049 C 241.723 129.183, 230.240 134.928, 219.242 145.375 C 211.495 152.734, 205.453 161.811, 202.352 170.750 C 201.350 173.637, 200.283 176, 199.981 176 C 199.679 176, 198.644 174.668, 197.683 173.040 C 196.721 171.412, 194.002 168.496, 191.640 166.561 C 170.883 149.552, 139.797 161.093, 134.892 187.629 C 132.791 198.993, 137.215 211.411, 146.261 219.545 C 161.881 233.589, 187.438 230.244, 198.535 212.702 L 201.379 208.207 204.014 212.353 C 215.913 231.079, 242.122 233.984, 257.777 218.313 C 265.474 210.608, 267.500 205.439, 267.500 193.500 C 267.500 181.561, 265.474 176.392, 257.777 168.687 C 247.109 158.008, 230.061 155.402, 217.265 162.495 L 213.030 164.842 214.506 161.987 C 216.855 157.447, 226.602 147.459, 232.516 143.533 C 240.251 138.399, 250.175 134.940, 259.395 134.164 C 268.010 133.439, 270.584 131.748, 268.394 128.250 C 267.112 126.203, 263.668 125.873, 255.870 127.049 M 311.213 143.315 C 301.746 152.838, 294 161.131, 294 161.743 C 294 162.951, 296.728 166, 297.808 166 C 298.175 166, 304.667 159.819, 312.237 152.263 L 326 138.527 326 148.636 L 326 158.744 321.908 159.399 C 312.250 160.943, 301.967 169.284, 297.417 179.266 C 293.361 188.161, 293.361 198.839, 297.417 207.734 C 301.967 217.716, 312.250 226.057, 321.908 227.601 L 326 228.256 326 243.556 C 326 256.133, 326.280 259.137, 327.571 260.429 C 331.781 264.638, 332.910 261.368, 333.223 244.061 L 333.500 228.762 339.500 226.879 C 372.198 216.613, 372.198 170.382, 339.500 160.122 L 333.500 158.240 333.211 148.377 L 332.922 138.515 346.791 152.257 C 354.419 159.816, 361.132 166, 361.708 166 C 363.297 166, 365.208 163.291, 364.833 161.570 C 364.413 159.644, 331.020 126, 329.528 126 C 328.921 126, 320.680 133.792, 311.213 143.315 M 391.571 159.571 C 390.227 160.916, 390 164.736, 390 186 C 390 207.264, 390.227 211.084, 391.571 212.429 C 393.457 214.315, 394.219 214.381, 395.800 212.800 C 397.508 211.092, 397.508 160.908, 395.800 159.200 C 394.219 157.619, 393.457 157.685, 391.571 159.571 M 31.627 167.468 C 26.302 169.367, 21.047 173.815, 17.618 179.328 C 14.254 184.737, 13.041 194.780, 14.916 201.708 C 16.446 207.361, 21.544 213.823, 27.266 217.361 C 33.473 221.198, 43.261 222.070, 51.058 219.481 C 69.624 213.314, 75.164 188.069, 61.048 173.952 C 53.696 166.601, 41.563 163.927, 31.627 167.468 M 159.627 167.468 C 154.247 169.386, 149.039 173.829, 145.500 179.519 C 141.527 185.908, 140.712 197.311, 143.741 204.129 C 148.266 214.311, 156.193 219.995, 166.941 220.764 C 175.955 221.409, 182.579 219.206, 188.259 213.674 C 194.701 207.400, 196.500 202.997, 196.500 193.500 C 196.500 184.107, 194.733 179.694, 188.453 173.406 C 181.664 166.608, 169.228 164.046, 159.627 167.468 M 223.627 167.468 C 218.247 169.386, 213.039 173.829, 209.500 179.519 C 206.982 183.568, 206.444 185.582, 206.150 192.050 C 205.760 200.623, 207.420 205.822, 212.447 211.770 C 221.626 222.629, 239.475 224.128, 250.992 215.006 C 256.752 210.444, 261 201.316, 261 193.500 C 261 182.038, 253.486 171.200, 242.965 167.488 C 237.743 165.645, 228.766 165.636, 223.627 167.468 M 318.363 167.922 C 307.980 172.637, 301.875 182.125, 301.875 193.545 C 301.875 206.576, 310.705 217.971, 322.750 220.481 L 326 221.159 326 193.579 C 326 162.540, 326.502 164.227, 318.363 167.922 M 333 193.500 C 333 208.625, 333.393 221, 333.874 221 C 334.355 221, 336.646 220.331, 338.965 219.512 C 349.213 215.897, 355.939 206.583, 356.779 194.844 C 357.223 188.638, 356.970 187.381, 354.100 181.551 C 350.595 174.431, 345.667 169.852, 338.965 167.488 C 336.646 166.669, 334.355 166, 333.874 166 C 333.393 166, 333 178.375, 333 193.500 M 391.616 222.527 C 390.727 223.416, 390 224.529, 390 225 C 390 226.389, 393.140 229.120, 394.295 228.735 C 396.395 228.035, 397.549 225.094, 396.423 223.310 C 394.905 220.902, 393.474 220.669, 391.616 222.527 M 193.972 223.329 C 183.114 225.726, 174.087 233.212, 169.191 243.880 C 165.513 251.892, 165.524 263.131, 169.216 271.175 C 179.707 294.032, 208.421 299.687, 225.777 282.313 C 233.474 274.608, 235.500 269.439, 235.500 257.500 C 235.500 245.367, 233.450 240.286, 225.353 232.339 C 217.097 224.238, 205.257 220.839, 193.972 223.329 M 191.627 231.468 C 186.247 233.386, 181.039 237.829, 177.500 243.519 C 173.527 249.908, 172.712 261.311, 175.741 268.129 C 180.272 278.325, 188.190 283.994, 198.977 284.766 C 211.583 285.668, 220.624 280.572, 226.080 269.488 C 228.890 263.782, 229.186 262.354, 228.817 256.295 C 228.582 252.431, 227.571 247.775, 226.474 245.500 C 223.729 239.807, 216.825 233.469, 211.329 231.597 C 205.637 229.657, 196.868 229.600, 191.627 231.468 " stroke="none" fill="black" fill-rule="evenodd"/>
</svg>