<svg xmlns="http://www.w3.org/2000/svg" width="500" height="324" viewBox="0 0 500 324" version="1.1">
	<path d="M 88.372 126.765 C 87.752 127.169, 83.812 134.363, 79.616 142.750 L 71.987 158 56.565 158 C 43.878 158, 40.864 158.279, 39.571 159.571 C 37.598 161.545, 37.598 162.455, 39.571 164.429 C 40.844 165.701, 43.697 166, 54.575 166 L 68.007 166 54 194 L 39.993 222 24.568 222 C 11.878 222, 8.864 222.279, 7.571 223.571 C 5.598 225.545, 5.598 226.455, 7.571 228.429 C 8.844 229.701, 11.698 230, 22.578 230 L 36.013 230 29.022 243.957 C 25.176 251.633, 22.283 258.574, 22.592 259.380 C 23.265 261.133, 25.511 262.125, 27.275 261.448 C 27.977 261.179, 32.025 253.993, 36.271 245.479 L 43.992 230 72.003 230 L 100.013 230 93.022 243.957 C 86.192 257.589, 85.541 260.226, 88.704 261.440 C 91.291 262.432, 92.887 260.200, 100.588 244.825 L 107.987 230.051 123.636 229.775 C 137.268 229.535, 139.427 229.274, 140.387 227.750 C 141.190 226.475, 141.191 225.525, 140.388 224.250 C 139.441 222.747, 137.361 222.461, 125.653 222.222 L 112.021 221.944 126.001 193.997 L 139.981 166.051 155.633 165.775 C 169.268 165.535, 171.427 165.274, 172.387 163.750 C 173.190 162.475, 173.191 161.525, 172.388 160.250 C 171.441 158.747, 169.361 158.461, 157.650 158.222 L 144.014 157.944 150.507 144.986 C 154.078 137.859, 157 131.177, 157 130.137 C 157 127.783, 154.720 125.787, 152.851 126.504 C 152.080 126.799, 147.975 134.007, 143.729 142.521 L 136.008 158 107.997 158 L 79.987 158 87.053 143.895 C 93.797 130.431, 94.041 129.703, 92.405 127.895 C 90.520 125.812, 90.041 125.678, 88.372 126.765 M 199.571 127.571 C 198.175 128.968, 198 136.372, 198 194 C 198 251.628, 198.175 259.032, 199.571 260.429 C 203.907 264.764, 204.918 261.455, 205.226 241.927 L 205.500 224.500 207.807 228.210 C 216.896 242.828, 232.575 254.410, 249 258.640 C 256.888 260.672, 272.389 260.905, 280 259.107 C 289.127 256.950, 302.866 249.752, 309.709 243.542 C 313.124 240.442, 318.186 234.515, 320.959 230.370 L 326 222.832 326 241.381 C 326 259.098, 326.093 259.979, 328.064 261.034 C 333.084 263.721, 333 264.860, 333 194 C 333 123.140, 333.084 124.279, 328.064 126.966 C 326.095 128.019, 326 128.907, 326 146.163 L 326 164.257 321.183 156.878 C 314.514 146.662, 305.539 138.801, 294.500 133.508 C 289.550 131.135, 283.025 128.608, 280 127.893 C 272.389 126.095, 256.888 126.328, 249 128.360 C 232.575 132.590, 216.896 144.172, 207.807 158.790 L 205.500 162.500 205.225 145.572 C 204.916 126.566, 203.879 123.264, 199.571 127.571 M 250.072 135.591 C 236.561 139.223, 223.183 148.984, 215.075 161.126 C 202.816 179.483, 202.816 207.517, 215.075 225.874 C 232.069 251.323, 263.638 260.103, 291.500 247.129 C 308.278 239.317, 321.318 221.376, 324.485 201.750 L 325.091 198 294.745 198 C 272.477 198, 264.081 197.681, 263.200 196.800 C 262.319 195.919, 262 187.422, 262 164.800 L 262 134 258.750 134.066 C 256.962 134.102, 253.057 134.788, 250.072 135.591 M 269 161.871 L 269 190 297.088 190 L 325.176 190 324.542 185.750 C 322.532 172.264, 314.687 157.296, 305.298 149.031 C 296.741 141.499, 284.524 135.802, 273.908 134.393 L 269 133.742 269 161.871 M 62 194 L 47.993 222 75.993 222 L 103.993 222 118 194 L 132.007 166 104.007 166 L 76.007 166 62 194 M 359.750 191.080 C 358.788 191.641, 358 192.869, 358 193.810 C 358 195.595, 391.770 230, 393.521 230 C 395.164 230, 429 195.610, 429 193.940 C 429 192.208, 427.106 190, 425.621 190 C 425.082 190, 417.623 196.969, 409.045 205.486 L 393.449 220.973 377.987 205.486 C 369.482 196.969, 362.294 190.014, 362.012 190.030 C 361.730 190.047, 360.712 190.519, 359.750 191.080 M 384 239.119 C 373.190 240.860, 355.281 252.086, 356.163 256.570 C 356.882 260.229, 359.600 260.551, 363.491 257.438 C 375.240 248.038, 382.139 245.571, 394.958 246.184 C 402.297 246.535, 404.809 247.126, 410.127 249.756 C 416.110 252.715, 417.996 254.215, 425.500 261.977 C 427.150 263.684, 431.650 266.631, 435.500 268.527 C 452.371 276.833, 471.014 274.780, 486.778 262.878 C 492.367 258.658, 493.305 255.835, 489.838 253.663 C 488.521 252.838, 487.055 253.486, 482.787 256.779 C 473.301 264.097, 469.072 265.500, 456.500 265.500 C 446.726 265.500, 444.879 265.209, 439.924 262.885 C 436.519 261.288, 431.765 257.674, 427.716 253.606 C 419.962 245.814, 410.134 240.650, 400 239.045 C 392.657 237.882, 391.659 237.886, 384 239.119 " stroke="none" fill="black" fill-rule="evenodd"/>
</svg>