<svg xmlns="http://www.w3.org/2000/svg" width="595" height="324" viewBox="0 0 595 324" version="1.1">
	<path d="M 103.571 95.571 C 102.219 96.924, 102 100.988, 102 124.774 L 102 152.405 88.667 139.202 C 81.334 131.941, 74.841 126, 74.239 126 C 72.813 126, 70 128.825, 70 130.257 C 70 131.941, 104.205 166, 105.896 166 C 108.281 166, 141 132.901, 141 130.488 C 141 128.297, 139.277 126, 137.633 126 C 137.101 126, 130.666 131.941, 123.333 139.202 L 110 152.405 110 124.774 C 110 100.988, 109.781 96.924, 108.429 95.571 C 107.564 94.707, 106.471 94, 106 94 C 105.529 94, 104.436 94.707, 103.571 95.571 M 287.235 127.088 C 273.159 129.235, 260.462 135.723, 250.087 146.070 C 242.264 153.872, 236.934 162.562, 233.265 173.500 L 230.580 181.500 230.217 220.309 C 229.945 249.402, 230.153 259.480, 231.049 260.559 C 232.068 261.787, 241.884 261.998, 297.372 261.985 C 333.193 261.976, 363.104 261.586, 363.843 261.118 C 364.940 260.423, 365.107 253.346, 364.757 222.384 C 364.364 187.494, 364.160 183.879, 362.179 176.646 C 358.867 164.550, 353.684 155.707, 344.433 146.367 C 337.680 139.549, 334.828 137.488, 326.933 133.719 C 321.745 131.242, 315.475 128.743, 313 128.165 C 306.011 126.532, 294.134 126.035, 287.235 127.088 M 551.231 127.250 C 549.335 129.588, 486 256.986, 486 258.462 C 486 260.214, 489.614 262.357, 491.061 261.462 C 491.622 261.116, 505.088 234.882, 520.985 203.166 L 549.890 145.500 549.945 199.750 L 550 254 535.934 254 C 521.308 254, 518 254.738, 518 258 C 518 261.750, 520.791 262.037, 554.601 261.764 C 584.469 261.523, 587.378 261.349, 588.386 259.750 C 589.190 258.475, 589.191 257.525, 588.387 256.250 C 587.430 254.730, 585.291 254.464, 572.142 254.224 L 557 253.948 557 191.174 C 557 143.683, 556.708 128.108, 555.800 127.200 C 554.254 125.654, 552.510 125.673, 551.231 127.250 M 282.788 135.551 C 269.130 138.863, 253.776 150.023, 246.580 161.868 C 244.692 164.976, 241.918 171.115, 240.415 175.510 C 237.686 183.491, 237.683 183.539, 237.216 218.750 L 236.749 254 297.374 254 L 358 254 357.992 226.750 C 357.979 185.290, 356.118 174.324, 346.702 160.247 C 338.471 147.940, 326.213 139.326, 311.540 135.539 C 304.284 133.665, 290.542 133.672, 282.788 135.551 M 39.571 159.571 C 38.707 160.436, 38 161.636, 38 162.239 C 38 162.841, 43.941 169.334, 51.202 176.667 L 64.405 190 36.774 190 C 12.988 190, 8.924 190.219, 7.571 191.571 C 5.598 193.545, 5.598 194.455, 7.571 196.429 C 8.924 197.781, 12.988 198, 36.774 198 L 64.405 198 51.202 211.333 C 43.941 218.666, 38 225.159, 38 225.761 C 38 227.202, 40.832 230, 42.290 230 C 43.969 230, 78 195.693, 78 194 C 78 192.307, 43.969 158, 42.290 158 C 41.659 158, 40.436 158.707, 39.571 159.571 M 151.315 175.213 C 141.792 184.680, 134 193.134, 134 194 C 134 195.680, 167.953 230, 169.615 230 C 171.240 230, 173 227.731, 173 225.636 C 173 224.461, 167.905 218.522, 160.315 210.852 L 147.631 198.032 175.457 197.766 C 200.698 197.525, 203.386 197.337, 204.386 195.750 C 205.191 194.474, 205.191 193.526, 204.386 192.250 C 203.386 190.663, 200.698 190.475, 175.457 190.234 L 147.631 189.968 160.315 177.148 C 167.905 169.478, 173 163.539, 173 162.364 C 173 160.269, 171.240 158, 169.615 158 C 169.073 158, 160.838 165.746, 151.315 175.213 M 423.232 191.250 C 421.350 193.573, 390 256.975, 390 258.459 C 390 260.754, 393.804 262.407, 395.619 260.901 C 396.439 260.221, 403.351 246.914, 410.978 231.332 C 418.606 215.749, 425.105 203, 425.420 203 C 425.735 203, 432.492 215.991, 440.435 231.869 C 448.535 248.062, 455.617 261.023, 456.565 261.386 C 458.483 262.122, 461 260.428, 461 258.401 C 461 256.972, 429.553 193.395, 427.785 191.250 C 427.219 190.563, 426.190 190, 425.500 190 C 424.810 190, 423.789 190.563, 423.232 191.250 M 87.213 239.315 C 77.746 248.838, 70 257.131, 70 257.743 C 70 259.175, 72.813 262, 74.239 262 C 74.841 262, 81.334 256.059, 88.667 248.798 L 102 235.595 102 263.226 C 102 287.012, 102.219 291.076, 103.571 292.429 C 104.436 293.293, 105.529 294, 106 294 C 106.471 294, 107.564 293.293, 108.429 292.429 C 109.781 291.076, 110 287.012, 110 263.226 L 110 235.595 123.333 248.798 C 130.666 256.059, 137.101 262, 137.633 262 C 139.277 262, 141 259.703, 141 257.512 C 141 255.099, 108.281 222, 105.896 222 C 105.087 222, 96.680 229.792, 87.213 239.315 " stroke="none" fill="black" fill-rule="evenodd"/>
</svg>