<svg xmlns="http://www.w3.org/2000/svg" width="547" height="324" viewBox="0 0 547 324" version="1.1">
	<path d="M 391.403 111.125 C 381.831 120.640, 374 129.134, 374 130 C 374 130.866, 381.831 139.360, 391.403 148.875 C 407.191 164.570, 409 166.070, 410.903 165.052 C 412.056 164.435, 413 163.163, 413 162.227 C 413 161.290, 406.143 153.656, 397.762 145.262 L 382.524 130 397.762 114.738 C 406.143 106.344, 413 98.710, 413 97.773 C 413 96.837, 412.056 95.565, 410.903 94.948 C 409 93.930, 407.191 95.430, 391.403 111.125 M 313.113 173.398 L 265.474 220.998 249.999 205.499 C 241.488 196.975, 234.213 190, 233.834 190 C 232.736 190, 230 193.033, 230 194.249 C 230 194.857, 236.844 202.250, 245.208 210.677 L 260.416 226 245.208 241.323 C 236.844 249.750, 230 257.143, 230 257.751 C 230 258.967, 232.736 262, 233.834 262 C 234.213 262, 241.482 255.031, 249.987 246.514 L 265.449 231.027 281.131 246.599 C 295.325 260.693, 297.012 262.064, 298.906 261.050 C 300.058 260.434, 301 259.163, 301 258.227 C 301 257.290, 294.141 249.654, 285.758 241.258 L 270.516 225.992 317.758 178.742 C 343.741 152.755, 365 130.722, 365 129.781 C 365 128.840, 364.044 127.559, 362.876 126.934 C 360.922 125.888, 356.948 129.598, 313.113 173.398 M 452.003 162.154 C 448.168 167.448, 446.640 173.136, 447.306 179.637 C 448.439 190.695, 457.688 201.189, 460.942 195.109 C 461.747 193.604, 461.345 192.451, 458.979 189.474 C 453.147 182.134, 452.796 173.583, 458.009 165.821 C 460.163 162.613, 460.618 161.155, 459.890 159.795 C 458.283 156.792, 455.225 157.706, 452.003 162.154 M 484.003 162.154 C 480.168 167.448, 478.640 173.136, 479.306 179.637 C 480.439 190.695, 489.688 201.189, 492.942 195.109 C 493.747 193.604, 493.345 192.451, 490.979 189.474 C 485.147 182.134, 484.796 173.583, 490.009 165.821 C 492.163 162.613, 492.618 161.155, 491.890 159.795 C 490.283 156.792, 487.225 157.706, 484.003 162.154 M 517.291 160.250 C 512.999 164.944, 511.540 169.194, 511.540 177 C 511.540 185.068, 513.016 189.136, 517.801 194.250 C 520.814 197.470, 523.512 197.780, 524.961 195.072 C 525.782 193.540, 525.479 192.534, 523.483 190.162 C 516.597 181.978, 516.405 172.657, 522.951 164.335 C 526.839 159.392, 521.559 155.582, 517.291 160.250 M 40.370 190.765 C 38.401 192.045, 6.007 257.855, 6.594 259.384 C 7.265 261.133, 9.512 262.124, 11.274 261.448 C 11.975 261.180, 19.056 247.919, 27.010 231.980 C 34.964 216.041, 41.710 203, 42 203 C 42.290 203, 49.036 216.041, 56.990 231.980 C 64.944 247.919, 72.025 261.180, 72.726 261.448 C 73.427 261.717, 74.573 261.717, 75.274 261.448 C 75.975 261.180, 83.056 247.919, 91.010 231.980 C 98.964 216.041, 105.717 203, 106.016 203 C 106.315 203, 113.042 216.034, 120.965 231.964 C 128.888 247.894, 135.962 261.155, 136.685 261.433 C 137.408 261.710, 138.573 261.717, 139.274 261.448 C 139.975 261.180, 147.056 247.919, 155.010 231.980 C 162.964 216.041, 169.710 203, 170 203 C 170.290 203, 177.036 216.041, 184.990 231.980 C 192.944 247.919, 200.083 261.201, 200.853 261.497 C 202.714 262.211, 205 260.218, 205 257.882 C 205 255.326, 172.851 191.157, 171.266 190.548 C 170.570 190.281, 169.408 190.290, 168.685 190.567 C 167.962 190.845, 160.888 204.106, 152.965 220.036 C 145.042 235.966, 138.315 249, 138.016 249 C 137.717 249, 130.964 235.959, 123.010 220.020 C 115.056 204.081, 107.975 190.820, 107.274 190.552 C 106.573 190.283, 105.408 190.290, 104.685 190.567 C 103.962 190.845, 96.888 204.106, 88.965 220.036 C 81.042 235.966, 74.314 249, 74.015 249 C 73.716 249, 67.178 236.339, 59.486 220.864 C 51.794 205.389, 44.905 192.114, 44.179 191.364 C 42.686 189.823, 41.988 189.713, 40.370 190.765 " stroke="none" fill="black" fill-rule="evenodd"/>
</svg>