<svg xmlns="http://www.w3.org/2000/svg" width="340" height="324" viewBox="0 0 340 324" version="1.1">
	<path d="M 135.230 159.285 C 116.953 177.591, 102 193.084, 102 193.713 C 102 195.191, 104.808 198, 106.285 198 C 106.913 198, 121.506 183.947, 138.713 166.771 L 170 135.542 201.287 166.771 C 218.494 183.947, 233.064 198, 233.664 198 C 235.588 198, 237.241 195.097, 236.647 192.763 C 235.940 189.983, 172.014 126, 169.944 126 C 169.128 126, 153.506 140.978, 135.230 159.285 M 295.285 159.230 C 276.978 177.506, 262 193.166, 262 194.030 C 262 197.785, 263.648 198, 292.444 198 L 320.487 198 291.244 227.256 C 275.160 243.347, 262 257.281, 262 258.221 C 262 259.752, 265.641 262.655, 266.528 261.831 C 273.086 255.740, 334 194.397, 334 193.884 C 334 193.476, 333.293 192.436, 332.429 191.571 C 331.074 190.217, 326.963 190, 302.685 190 L 274.513 190 303.756 160.744 C 319.840 144.653, 333 130.793, 333 129.944 C 333 128.191, 331.103 126, 329.585 126 C 329.026 126, 313.591 140.953, 295.285 159.230 M 7.571 159.571 C 6.207 160.936, 6 165.463, 6 194 C 6 222.537, 6.207 227.064, 7.571 228.429 C 8.936 229.793, 13.463 230, 42 230 C 70.537 230, 75.064 229.793, 76.429 228.429 C 77.793 227.064, 78 222.537, 78 194 C 78 165.463, 77.793 160.936, 76.429 159.571 C 75.064 158.207, 70.537 158, 42 158 C 13.463 158, 8.936 158.207, 7.571 159.571 M 14 194 L 14 222 42 222 L 70 222 70 194 L 70 166 42 166 L 14 166 14 194 " stroke="none" fill="black" fill-rule="evenodd"/>
</svg>