<svg xmlns="http://www.w3.org/2000/svg" width="403" height="324" viewBox="0 0 403 324" version="1.1">
	<path d="M 72.316 62.784 C 70.369 64.022, 54.007 97.855, 54.604 99.410 C 55.269 101.144, 57.524 102.120, 59.295 101.440 C 60.007 101.167, 63.480 95.106, 67.014 87.972 C 70.547 80.837, 73.691 75, 74 75 C 74.309 75, 77.453 80.837, 80.986 87.972 C 84.520 95.106, 88.050 101.189, 88.832 101.489 C 90.716 102.212, 93 100.227, 93 97.866 C 93 95.626, 77.264 63.831, 75.628 62.765 C 74.214 61.845, 73.789 61.847, 72.316 62.784 M 263.200 127.200 C 261.465 128.935, 261.465 259.065, 263.200 260.800 C 264.935 262.535, 394.065 262.535, 395.800 260.800 C 397.535 259.065, 397.535 128.935, 395.800 127.200 C 394.065 125.465, 264.935 125.465, 263.200 127.200 M 269 194 L 269 254 329.500 254 L 390 254 390 194 L 390 134 329.500 134 L 269 134 269 194 M 194.355 158.986 C 183.790 161.214, 174.114 169.146, 169.329 179.500 C 167.026 184.484, 166.558 186.854, 166.565 193.500 C 166.577 203.515, 169.873 211.488, 176.824 218.311 C 190.305 231.544, 211.416 231.936, 224.828 219.201 C 227.551 216.616, 231.066 212.025, 232.639 209 C 235.228 204.021, 235.498 202.553, 235.498 193.500 C 235.498 184.447, 235.228 182.979, 232.639 178 C 225.345 163.972, 209.061 155.884, 194.355 158.986 M 191.885 167.380 C 180.704 171.375, 173.875 181.280, 173.875 193.500 C 173.875 208.910, 184.144 219.796, 199.616 220.789 C 206.399 221.224, 207.556 221.001, 213.397 218.125 C 225.374 212.229, 231.511 198.958, 228.096 186.337 C 224.933 174.647, 213.616 165.959, 201.663 166.044 C 198.273 166.068, 193.873 166.669, 191.885 167.380 M 39.267 223.267 C 20.970 241.563, 6 257.056, 6 257.695 C 6 258.334, 6.707 259.564, 7.571 260.429 C 8.968 261.825, 16.372 262, 74 262 C 131.628 262, 139.032 261.825, 140.429 260.429 C 141.293 259.564, 142 258.478, 142 258.015 C 142 256.473, 75.526 189.938, 74.017 189.969 C 73.201 189.986, 57.563 204.970, 39.267 223.267 M 199.750 191.080 C 197.372 192.465, 197.542 195.685, 200.064 197.034 C 203.753 199.008, 206.819 194.219, 203.800 191.200 C 202.367 189.767, 202.022 189.757, 199.750 191.080 M 46.500 227 L 19.514 254 74 254 L 128.486 254 101.500 227 C 86.658 212.150, 74.283 200, 74 200 C 73.717 200, 61.342 212.150, 46.500 227 " stroke="none" fill="black" fill-rule="evenodd"/>
</svg>