<svg xmlns="http://www.w3.org/2000/svg" width="340" height="324" viewBox="0 0 340 324" version="1.1">
	<path d="M 67.270 127.025 C 53.386 129.860, 42.470 140.203, 39.515 153.322 C 38.385 158.341, 38.341 158.385, 33.322 159.515 C 26.827 160.978, 20.285 164.835, 15.710 169.900 C -2.832 190.424, 7.900 222.397, 35.198 227.959 C 46.348 230.231, 59.464 225.727, 67.399 216.901 C 79.839 203.065, 79.263 182.103, 66.080 168.920 C 60.790 163.630, 52.048 159, 47.351 159 C 45.178 159, 46.340 152.893, 49.573 147.324 C 57.815 133.128, 78.468 129.518, 91.235 140.042 C 95.997 143.968, 101 153.984, 101 159.594 C 101 169.625, 95.665 187.762, 88.594 201.768 C 79.178 220.418, 64.036 237.486, 47.134 248.500 C 39.181 253.683, 37.966 254.840, 38.214 257 C 38.722 261.439, 42.187 260.667, 52.041 253.918 C 78.967 235.475, 96.989 209.701, 105.558 177.381 C 110.513 158.691, 108.396 147.236, 98.080 136.920 C 89.907 128.747, 77.831 124.869, 67.270 127.025 M 310.075 127.861 C 309.276 129.352, 309.971 130.989, 313.575 136.107 C 321.388 147.202, 323.868 160.239, 320.415 172.068 C 318.433 178.858, 315.641 183.716, 308.962 192 C 295.391 208.833, 292.570 227.723, 300.946 245.680 C 304.134 252.514, 311.325 261, 313.927 261 C 315.642 261, 318 259.182, 318 257.861 C 318 257.454, 316.125 254.957, 313.833 252.311 C 305.871 243.120, 302.407 231.268, 304.128 219.108 C 305.352 210.453, 307.724 205.499, 315.309 195.756 C 318.844 191.215, 322.645 185.700, 323.757 183.500 C 332.453 166.297, 330.276 145.003, 318.312 130.250 C 314.626 125.704, 311.685 124.851, 310.075 127.861 M 167.200 159.200 C 166.486 159.914, 166 163.356, 166 167.700 L 166 175 162.657 175 C 155.057 175, 142.236 181.097, 135.655 187.839 C 132.317 191.259, 131.960 192.056, 132.941 193.889 C 134.506 196.814, 136.160 196.544, 140.894 192.589 C 146.841 187.620, 150.814 185.392, 156.932 183.595 C 166.785 180.701, 166 178.865, 166 204.800 C 166 221.200, 166.337 227.937, 167.200 228.800 C 168.672 230.272, 233.656 230.503, 235.961 229.045 C 237.066 228.346, 237.432 225.867, 237.461 218.895 L 237.500 209.669 243.227 208.363 C 254.255 205.848, 268.419 196.844, 267.805 192.740 C 267.178 188.551, 264.558 188.409, 259.803 192.305 C 254.745 196.450, 246.300 200.536, 240.687 201.554 L 236.874 202.246 237.081 181.021 C 237.248 163.797, 237.024 159.629, 235.893 158.913 C 233.640 157.486, 168.642 157.758, 167.200 159.200 M 31.054 167.728 C 25.018 169.859, 17.781 177.260, 15.667 183.463 C 11.995 194.241, 14.382 205.477, 21.952 213.048 C 32.761 223.857, 50.503 223.777, 61.125 212.872 C 71.768 201.945, 71.768 185.055, 61.125 174.128 C 53.628 166.432, 41.834 163.922, 31.054 167.728 M 174 170.300 L 174 174.600 179.799 175.798 C 188.306 177.555, 195.745 181.643, 202.291 188.158 C 210.068 195.899, 213.103 197.931, 220.181 200.133 C 230.741 203.420, 230 204.637, 230 184 L 230 166 202 166 L 174 166 174 170.300 M 174 201.921 L 174 222 202.048 222 L 230.095 222 229.798 215.834 L 229.500 209.668 223.209 208.388 C 213.183 206.349, 206.663 202.807, 199.437 195.474 C 192.920 188.860, 184.613 184.004, 177.250 182.503 L 174 181.841 174 201.921 " stroke="none" fill="black" fill-rule="evenodd"/>
</svg>