<svg xmlns="http://www.w3.org/2000/svg" width="372" height="324" viewBox="0 0 372 324" version="1.1">
	<path d="M 55.571 63.571 C 53.243 65.900, 53.243 98.100, 55.571 100.429 C 57.900 102.757, 90.100 102.757, 92.429 100.429 C 94.757 98.100, 94.757 65.900, 92.429 63.571 C 90.100 61.243, 57.900 61.243, 55.571 63.571 M 62 82 L 62 94 74 94 L 86 94 86 82 L 86 70 74 70 L 62 70 62 82 M 72.369 126.765 C 70.390 128.050, 6.009 257.860, 6.594 259.385 C 7.263 261.129, 9.511 262.125, 11.262 261.453 C 11.956 261.187, 25.431 235.213, 41.206 203.734 L 69.888 146.500 69.944 200.250 L 70 254 55.571 254 C 43.788 254, 40.855 254.288, 39.571 255.571 C 37.598 257.545, 37.598 258.455, 39.571 260.429 C 40.936 261.793, 45.463 262, 74 262 C 102.537 262, 107.064 261.793, 108.429 260.429 C 109.293 259.564, 110 258.471, 110 258 C 110 257.529, 109.293 256.436, 108.429 255.571 C 107.145 254.288, 104.212 254, 92.429 254 L 78 254 78 191.571 C 78 136.152, 77.824 128.966, 76.429 127.571 C 74.680 125.822, 74.022 125.692, 72.369 126.765 M 147.544 130.220 C 139.446 139.680, 135.153 154.217, 136.832 166.490 C 138.100 175.755, 141.080 183.312, 146.041 189.835 L 150.098 195.171 149.997 226.335 C 149.941 243.476, 149.919 258.047, 149.948 258.715 C 150.020 260.389, 153.523 262.120, 155.389 261.404 C 156.233 261.080, 157.216 259.894, 157.573 258.769 C 157.930 257.644, 159.902 254.124, 161.955 250.948 C 171.859 235.625, 171.813 214.304, 161.844 198.880 L 158 192.933 158 161.401 C 158 141.577, 157.616 129.150, 156.965 127.934 C 155.218 124.671, 151.527 125.566, 147.544 130.220 M 264.369 126.765 C 263.416 127.384, 198 257.155, 198 258.426 C 198 258.663, 198.707 259.564, 199.571 260.429 C 200.936 261.793, 205.463 262, 234 262 C 262.537 262, 267.064 261.793, 268.429 260.429 C 269.293 259.564, 270 258.471, 270 258 C 270 257.529, 269.293 256.436, 268.429 255.571 C 267.071 254.214, 262.848 254, 237.427 254 L 207.997 254 238.998 192.003 C 256.049 157.905, 270 129.812, 270 129.575 C 270 128.872, 266.916 125.999, 266.179 126.015 C 265.805 126.024, 264.991 126.361, 264.369 126.765 M 146.877 145.250 C 144.869 149.699, 144.507 152.103, 144.504 161 C 144.500 170.338, 144.795 172.109, 147.167 177 L 149.833 182.500 149.917 161.250 C 149.962 149.563, 149.830 140, 149.623 140 C 149.416 140, 148.180 142.363, 146.877 145.250 M 321.384 159.412 C 303.475 163.758, 291.559 181.807, 294.987 199.396 C 296.500 207.161, 300.212 214.019, 305.580 218.967 C 326.277 238.045, 358.591 227.221, 364.013 199.396 C 367.488 181.565, 355.484 163.676, 337.147 159.360 C 330.397 157.772, 328.111 157.779, 321.384 159.412 M 319.054 167.728 C 313.018 169.859, 305.781 177.260, 303.667 183.463 C 297.198 202.450, 309.964 221, 329.500 221 C 345.108 221, 357 209.108, 357 193.500 C 357 177.670, 344.965 165.854, 329.072 166.079 C 326.007 166.122, 321.499 166.864, 319.054 167.728 M 158.163 225 C 158.163 242.010, 158.209 242.402, 159.813 239 C 161.019 236.441, 161.463 232.676, 161.463 225 C 161.463 217.324, 161.019 213.559, 159.813 211 C 158.209 207.598, 158.163 207.990, 158.163 225 " stroke="none" fill="black" fill-rule="evenodd"/>
</svg>