<svg xmlns="http://www.w3.org/2000/svg" width="468" height="324" viewBox="0 0 468 324" version="1.1">
	<path d="M 40.372 62.765 C 38.418 64.037, 22.003 97.844, 22.593 99.381 C 23.268 101.141, 25.513 102.124, 27.295 101.440 C 28.007 101.167, 31.480 95.106, 35.014 87.972 C 38.547 80.837, 41.691 75, 42 75 C 42.309 75, 45.453 80.837, 48.986 87.972 C 52.520 95.106, 55.993 101.167, 56.705 101.440 C 58.487 102.124, 60.732 101.141, 61.407 99.381 C 61.716 98.575, 58.096 90.173, 53.363 80.708 C 45.638 65.261, 43.672 62.031, 42 62.031 C 41.725 62.031, 40.992 62.361, 40.372 62.765 M 168.369 126.765 C 167.416 127.384, 102 257.155, 102 258.426 C 102 258.663, 102.707 259.564, 103.571 260.429 C 104.936 261.793, 109.463 262, 138 262 C 166.537 262, 171.064 261.793, 172.429 260.429 C 173.293 259.564, 174 258.471, 174 258 C 174 257.529, 173.293 256.436, 172.429 255.571 C 171.071 254.214, 166.849 254, 141.430 254 L 112.002 254 140.747 196.500 C 156.557 164.875, 169.722 139, 170.003 139 C 170.284 139, 184.010 166.059, 200.507 199.131 C 217.003 232.204, 231.095 259.879, 231.821 260.631 C 232.887 261.735, 239.506 262, 266 262 C 294.537 262, 299.064 261.793, 300.429 260.429 C 302.402 258.455, 302.402 257.545, 300.429 255.571 C 299.067 254.210, 294.667 254, 267.430 254 L 236.003 254 204.383 190.750 C 175.939 133.854, 171.783 126.031, 170 126.031 C 169.725 126.031, 168.991 126.361, 168.369 126.765 M 327.571 127.571 C 326.175 128.968, 326 136.372, 326 194 C 326 251.628, 326.175 259.032, 327.571 260.429 C 328.968 261.825, 336.372 262, 394 262 C 451.628 262, 459.032 261.825, 460.429 260.429 C 461.825 259.032, 462 251.628, 462 194 C 462 136.372, 461.825 128.968, 460.429 127.571 C 459.564 126.707, 458.471 126, 458 126 C 457.529 126, 456.436 126.707, 455.571 127.571 C 454.176 128.966, 454 136.152, 454 191.571 L 454 254 394 254 L 334 254 334 191.571 C 334 136.152, 333.824 128.966, 332.429 127.571 C 331.564 126.707, 330.471 126, 330 126 C 329.529 126, 328.436 126.707, 327.571 127.571 M 40.370 190.765 C 38.401 192.045, 6.007 257.855, 6.594 259.384 C 7.265 261.133, 9.512 262.124, 11.274 261.448 C 11.975 261.180, 19.056 247.919, 27.010 231.980 C 34.964 216.041, 41.710 203, 42 203 C 42.290 203, 49.036 216.041, 56.990 231.980 C 64.944 247.919, 72.025 261.180, 72.726 261.448 C 74.488 262.124, 76.735 261.133, 77.406 259.384 C 77.993 257.855, 45.599 192.045, 43.630 190.765 C 43.009 190.361, 42.275 190.031, 42 190.031 C 41.725 190.031, 40.991 190.361, 40.370 190.765 " stroke="none" fill="black" fill-rule="evenodd"/>
</svg>