<svg xmlns="http://www.w3.org/2000/svg" width="244" height="324" viewBox="0 0 244 324" version="1.1">
	<path d="M 7.200 127.200 C 6.540 127.860, 6 129.095, 6 129.944 C 6 130.793, 20.060 145.553, 37.244 162.744 L 68.488 194 37.244 225.256 C 20.060 242.447, 6 257.207, 6 258.056 C 6 261.835, 7.487 262, 41.629 262 C 70.503 262, 75.063 261.794, 76.429 260.429 C 77.825 259.032, 78 251.628, 78 194 C 78 136.372, 77.825 128.968, 76.429 127.571 C 75.063 126.206, 70.503 126, 41.629 126 C 17.117 126, 8.085 126.315, 7.200 127.200 M 167.750 127.080 C 166.114 128.033, 166 132.019, 166 188.252 L 166 248.405 152.667 235.202 C 145.334 227.941, 138.841 222, 138.239 222 C 136.822 222, 134 224.822, 134 226.239 C 134 226.841, 139.941 233.334, 147.202 240.667 L 160.405 254 132.774 254 C 108.988 254, 104.924 254.219, 103.571 255.571 C 101.596 257.546, 101.598 258.455, 103.579 260.436 C 104.990 261.847, 112.058 261.987, 170.220 261.757 C 230.934 261.517, 235.356 261.383, 236.386 259.750 C 237.191 258.474, 237.191 257.526, 236.386 256.250 C 235.386 254.663, 232.698 254.475, 207.457 254.234 L 179.631 253.968 192.315 241.148 C 199.905 233.478, 205 227.539, 205 226.364 C 205 224.279, 203.242 222, 201.633 222 C 201.101 222, 194.666 227.941, 187.333 235.202 L 174 248.405 174 189.425 C 174 137.662, 173.810 130.173, 172.443 128.223 C 170.702 125.736, 170.248 125.625, 167.750 127.080 M 44.500 159 C 58.242 172.750, 69.601 184, 69.742 184 C 69.884 184, 70 172.750, 70 159 L 70 134 44.758 134 L 19.515 134 44.500 159 M 44.500 229 L 19.515 254 44.758 254 L 70 254 70 229 C 70 215.250, 69.884 204, 69.742 204 C 69.601 204, 58.242 215.250, 44.500 229 " stroke="none" fill="black" fill-rule="evenodd"/>
</svg>