<svg xmlns="http://www.w3.org/2000/svg" width="468" height="324" viewBox="0 0 468 324" version="1.1">
	<path d="M 67.500 126.895 C 53.981 129.352, 42.464 140.227, 39.515 153.322 C 38.385 158.341, 38.341 158.385, 33.322 159.515 C 26.827 160.978, 20.285 164.835, 15.710 169.900 C -2.973 190.579, 8.001 222.635, 35.604 228.013 C 58.779 232.529, 80.707 210.481, 76 187.396 C 73.161 173.471, 62.183 161.813, 49.703 159.472 C 45.492 158.682, 45.371 158.203, 47.667 151.463 C 49.875 144.983, 56.983 137.875, 63.463 135.667 C 74.255 131.990, 85.476 134.381, 93.071 141.976 C 99.228 148.132, 101.497 154.745, 100.635 164.020 C 99.248 178.943, 90.406 201.320, 79.815 216.708 C 72.409 227.468, 58.158 241.338, 47.150 248.500 C 39.180 253.685, 37.966 254.840, 38.214 257 C 38.847 262.524, 44.202 260.384, 59.513 248.487 C 83.688 229.704, 99.449 204.358, 106.635 172.706 C 109.439 160.354, 108.983 154.597, 104.471 145.358 C 98.142 132.402, 81.881 124.282, 67.500 126.895 M 295.571 127.571 C 294.199 128.944, 294 133.890, 294 166.699 L 294 204.255 289.599 200.198 C 268.797 181.023, 236.678 191.545, 231 219.396 C 228.131 233.464, 235.708 249.216, 248.712 256.219 C 269.311 267.314, 293.414 256.446, 299.877 233.147 C 301.180 228.449, 301.493 219.235, 301.740 178.340 C 302.005 134.487, 301.865 129.008, 300.447 127.590 C 298.455 125.597, 297.549 125.594, 295.571 127.571 M 343.213 143.315 C 333.746 152.838, 326 161.131, 326 161.743 C 326 163.175, 328.813 166, 330.239 166 C 330.841 166, 337.334 160.059, 344.667 152.798 L 358 139.595 358 199.226 C 358 252.103, 358.178 259.035, 359.571 260.429 C 360.436 261.293, 361.529 262, 362 262 C 362.471 262, 363.564 261.293, 364.429 260.429 C 365.822 259.035, 366 252.103, 366 199.226 L 366 139.595 379.333 152.798 C 386.666 160.059, 393.159 166, 393.761 166 C 395.187 166, 398 163.175, 398 161.743 C 398 159.994, 363.761 126, 362 126 C 361.134 126, 352.680 133.792, 343.213 143.315 M 423.571 127.571 C 422.178 128.965, 422 135.897, 422 188.774 L 422 248.405 408.667 235.202 C 401.334 227.941, 394.841 222, 394.239 222 C 392.813 222, 390 224.825, 390 226.257 C 390 228.006, 424.239 262, 426 262 C 427.761 262, 462 228.006, 462 226.257 C 462 224.825, 459.187 222, 457.761 222 C 457.159 222, 450.666 227.941, 443.333 235.202 L 430 248.405 430 188.774 C 430 135.897, 429.822 128.965, 428.429 127.571 C 427.564 126.707, 426.471 126, 426 126 C 425.529 126, 424.436 126.707, 423.571 127.571 M 161.384 159.412 C 143.475 163.758, 131.559 181.807, 134.987 199.396 C 136.500 207.161, 140.212 214.019, 145.580 218.967 C 166.277 238.045, 198.591 227.221, 204.013 199.396 C 207.488 181.565, 195.484 163.676, 177.147 159.360 C 170.397 157.772, 168.111 157.779, 161.384 159.412 M 31.054 167.728 C 25.018 169.859, 17.781 177.260, 15.667 183.463 C 11.995 194.241, 14.382 205.477, 21.952 213.048 C 32.673 223.769, 50.327 223.769, 61.048 213.048 C 71.769 202.327, 71.769 184.673, 61.048 173.952 C 53.519 166.424, 41.696 163.970, 31.054 167.728 M 159.054 167.728 C 153.018 169.859, 145.781 177.260, 143.667 183.463 C 139.995 194.241, 142.382 205.477, 149.952 213.048 C 160.673 223.769, 178.327 223.769, 189.048 213.048 C 199.769 202.327, 199.769 184.673, 189.048 173.952 C 181.519 166.424, 169.696 163.970, 159.054 167.728 M 255.054 199.728 C 249.018 201.859, 241.781 209.260, 239.667 215.463 C 233.198 234.450, 245.964 253, 265.500 253 C 281.108 253, 293 241.108, 293 225.500 C 293 209.670, 280.965 197.854, 265.072 198.079 C 262.007 198.122, 257.499 198.864, 255.054 199.728 " stroke="none" fill="black" fill-rule="evenodd"/>
</svg>