<svg xmlns="http://www.w3.org/2000/svg" width="340" height="324" viewBox="0 0 340 324" version="1.1">
	<path d="M 96.500 126.944 C 80.743 129.495, 70.172 134.854, 58.916 146 C 46.472 158.321, 41.167 168.974, 38.844 186.303 C 37.817 193.966, 36.712 196.567, 21.889 226.211 C 13.168 243.652, 6.285 258.580, 6.594 259.384 C 7.265 261.133, 9.512 262.124, 11.274 261.448 C 11.975 261.180, 19.056 247.919, 27.010 231.980 C 34.964 216.041, 41.710 203, 42 203 C 42.290 203, 49.036 216.041, 56.990 231.980 C 64.944 247.919, 72.025 261.180, 72.726 261.448 C 73.427 261.717, 74.573 261.717, 75.274 261.448 C 75.975 261.180, 83.056 247.919, 91.010 231.980 C 98.964 216.041, 105.717 203, 106.016 203 C 106.315 203, 113.042 216.034, 120.965 231.964 C 128.888 247.894, 135.962 261.155, 136.685 261.433 C 137.408 261.710, 138.573 261.717, 139.274 261.448 C 139.975 261.180, 147.056 247.919, 155.010 231.980 C 162.964 216.041, 169.710 203, 170 203 C 170.290 203, 177.036 216.041, 184.990 231.980 C 192.944 247.919, 200.083 261.201, 200.853 261.497 C 202.717 262.213, 205 260.217, 205 257.872 C 205 256.836, 197.575 241.144, 188.500 223 C 177.177 200.362, 172 188.978, 172 186.716 C 172 181.216, 169.205 171.962, 164.837 163 C 157.086 147.097, 139.794 133.062, 122.500 128.638 C 114.849 126.680, 102.928 125.904, 96.500 126.944 M 89.500 135.870 C 69.243 141.701, 52.813 158.496, 47.570 178.731 C 46.706 182.063, 46 185.961, 46 187.394 L 46 190 105.500 190 L 165 190 165 187.710 C 165 183.357, 161.956 173.472, 158.330 166.046 C 151.170 151.386, 134.352 138.413, 118.201 135.090 C 110.410 133.487, 96.459 133.866, 89.500 135.870 M 257.500 159.364 C 250.664 161.110, 246.523 163.430, 240.972 168.623 C 226.895 181.790, 226.902 205.216, 240.987 218.392 C 252.264 228.940, 266.423 231.330, 280.567 225.073 C 286.249 222.560, 293.898 214.855, 297.020 208.500 C 299.132 204.202, 299.477 202.096, 299.477 193.500 C 299.477 181.374, 297.431 176.293, 289.342 168.339 C 281.071 160.206, 268.296 156.605, 257.500 159.364 M 255.885 167.380 C 244.704 171.375, 237.875 181.280, 237.875 193.500 C 237.875 208.287, 248.102 219.596, 262.521 220.754 C 274.446 221.711, 284.036 216.794, 289.500 206.921 C 292.132 202.166, 292.500 200.518, 292.500 193.500 C 292.500 186.487, 292.130 184.829, 289.500 180.061 C 286.429 174.492, 280.651 169.526, 274.684 167.326 C 270.419 165.754, 260.355 165.782, 255.885 167.380 M 263.616 191.527 C 262.727 192.416, 262 193.529, 262 194 C 262 195.389, 265.140 198.120, 266.295 197.735 C 268.395 197.035, 269.549 194.094, 268.423 192.310 C 266.905 189.902, 265.474 189.669, 263.616 191.527 M 327.750 191.080 C 325.372 192.465, 325.542 195.685, 328.064 197.034 C 331.753 199.008, 334.819 194.219, 331.800 191.200 C 330.367 189.767, 330.022 189.757, 327.750 191.080 M 60.743 223.500 C 67.750 237.525, 73.715 249, 74 249 C 74.285 249, 80.250 237.525, 87.257 223.500 L 99.995 198 74 198 L 48.005 198 60.743 223.500 M 124.743 223.500 C 131.750 237.525, 137.715 249, 138 249 C 138.285 249, 144.250 237.525, 151.257 223.500 L 163.995 198 138 198 L 112.005 198 124.743 223.500 " stroke="none" fill="black" fill-rule="evenodd"/>
</svg>