<svg xmlns="http://www.w3.org/2000/svg" width="244" height="324" viewBox="0 0 244 324" version="1.1">
	<path d="M 55.571 63.571 C 54.707 64.436, 54 65.317, 54 65.531 C 54 66.316, 71.159 100.529, 71.965 101.349 C 74.297 103.725, 76.927 100.197, 85.239 83.541 C 90.036 73.928, 93.710 65.408, 93.403 64.609 C 92.732 62.858, 90.483 61.877, 88.705 62.560 C 87.993 62.833, 84.520 68.894, 80.986 76.028 C 77.453 83.163, 74.308 89, 73.997 89 C 73.687 89, 70.748 83.534, 67.467 76.853 C 59.925 61.499, 58.847 60.296, 55.571 63.571 M 7.579 191.564 C 5.598 193.545, 5.596 194.454, 7.571 196.429 C 8.929 197.786, 13.153 198, 38.589 198 L 68.036 198 53.018 227.931 C 44.758 244.393, 38 258.327, 38 258.896 C 38 261.580, 42.920 262, 74.363 262 C 102.570 262, 107.064 261.793, 108.429 260.429 C 109.293 259.564, 110 258.661, 110 258.422 C 110 258.183, 103.252 244.497, 95.004 228.008 L 80.008 198.030 109.646 197.765 C 136.613 197.524, 139.382 197.342, 140.386 195.750 C 141.191 194.474, 141.191 193.526, 140.386 192.250 C 139.356 190.617, 134.934 190.483, 74.220 190.243 C 16.058 190.013, 8.990 190.153, 7.579 191.564 M 167.750 191.073 C 165.423 192.438, 165.524 195.675, 167.934 196.965 C 169.005 197.538, 176.151 198, 183.934 198 L 198 198 198 226 L 198 254 183.934 254 C 169.308 254, 166 254.738, 166 258 C 166 261.750, 168.791 262.037, 202.601 261.764 C 232.469 261.523, 235.378 261.349, 236.386 259.750 C 237.190 258.475, 237.191 257.525, 236.387 256.250 C 235.430 254.730, 233.291 254.464, 220.142 254.224 L 205 253.948 205 226 L 205 198.052 220.142 197.776 C 233.291 197.536, 235.430 197.270, 236.387 195.750 C 237.191 194.475, 237.190 193.525, 236.386 192.250 C 235.377 190.649, 232.483 190.481, 202.391 190.273 C 181.280 190.127, 168.873 190.414, 167.750 191.073 M 60.743 228.500 L 48.005 254 74 254 L 99.995 254 87.257 228.500 C 80.250 214.475, 74.285 203, 74 203 C 73.715 203, 67.750 214.475, 60.743 228.500 " stroke="none" fill="black" fill-rule="evenodd"/>
</svg>