<svg xmlns="http://www.w3.org/2000/svg" width="308" height="324" viewBox="0 0 308 324" version="1.1">
	<path d="M 63.102 127.162 C 37.850 130.772, 15.064 151.522, 8.374 177 C 6.113 185.610, 6.113 201.390, 8.374 210 C 12.447 225.511, 23.726 241.091, 37.307 249.965 L 43.483 254 26.313 254 C 12.037 254, 8.878 254.265, 7.571 255.571 C 5.596 257.546, 5.598 258.455, 7.579 260.436 C 8.990 261.847, 16.058 261.987, 74.220 261.757 C 134.934 261.517, 139.356 261.383, 140.386 259.750 C 141.191 258.474, 141.191 257.526, 140.387 256.250 C 139.413 254.704, 137.140 254.468, 120.895 254.226 L 102.506 253.953 108.003 250.837 C 111.026 249.124, 116.880 244.297, 121.011 240.111 C 133.915 227.034, 140 212.092, 140 193.480 C 140 181.437, 138.342 174.284, 133.041 163.450 C 123.603 144.165, 104.156 130.182, 82.398 127.037 C 74.447 125.887, 71.899 125.904, 63.102 127.162 M 231.200 127.200 C 230.292 128.108, 230 143.689, 230 191.200 L 230 254 199.934 254 C 181.122 254, 169.145 254.387, 167.934 255.035 C 165.440 256.370, 165.448 259.634, 167.948 260.972 C 169.256 261.672, 191.132 261.930, 234.589 261.757 C 294.951 261.517, 299.356 261.383, 300.386 259.750 C 301.191 258.474, 301.191 257.526, 300.386 256.250 C 299.380 254.654, 296.542 254.477, 268.141 254.236 L 237 253.972 237 225.986 L 237 198 267.800 198 C 290.422 198, 298.919 197.681, 299.800 196.800 C 301.519 195.081, 301.519 128.919, 299.800 127.200 C 298.082 125.482, 232.918 125.482, 231.200 127.200 M 57.500 135.870 C 37.436 141.645, 20.733 158.691, 15.585 178.644 C 13.554 186.517, 13.554 200.483, 15.585 208.356 C 20.889 228.914, 38.828 246.683, 59.103 251.463 C 66.646 253.241, 78.760 253.441, 86.201 251.910 C 89.115 251.310, 95.244 249.032, 99.820 246.847 C 115.079 239.562, 126.717 225.246, 131.003 208.489 C 138.032 181.004, 124.843 152.100, 99.820 140.153 C 95.244 137.968, 89.115 135.690, 86.201 135.090 C 78.410 133.487, 64.459 133.866, 57.500 135.870 M 237 162 L 237 190 265.500 190 L 294 190 294 162 L 294 134 265.500 134 L 237 134 237 162 " stroke="none" fill="black" fill-rule="evenodd"/>
</svg>