<svg xmlns="http://www.w3.org/2000/svg" width="340" height="324" viewBox="0 0 340 324" version="1.1">
	<path d="M 39.550 62.918 C 35.869 68.875, 22.190 98.331, 22.604 99.410 C 23.269 101.144, 25.524 102.120, 27.295 101.440 C 28.007 101.167, 31.480 95.106, 35.014 87.972 C 38.547 80.837, 41.691 75, 42 75 C 42.309 75, 45.453 80.837, 48.986 87.972 C 52.520 95.106, 55.993 101.167, 56.705 101.440 C 58.487 102.124, 60.732 101.141, 61.407 99.381 C 61.997 97.844, 45.582 64.037, 43.628 62.765 C 42.071 61.751, 40.229 61.820, 39.550 62.918 M 7.571 127.571 C 6.207 128.936, 6 133.463, 6 162 C 6 190.537, 6.207 195.064, 7.571 196.429 C 8.844 197.701, 11.697 198, 22.575 198 L 36.006 198 21.020 227.961 C 12.777 244.439, 6.285 258.580, 6.594 259.384 C 7.265 261.133, 9.512 262.125, 11.274 261.448 C 11.975 261.180, 19.056 247.919, 27.010 231.980 C 34.964 216.041, 41.714 203, 42.009 203 C 42.304 203, 49.101 216.162, 57.113 232.250 C 65.625 249.342, 72.319 261.625, 73.219 261.800 C 74.065 261.965, 75.487 261.370, 76.379 260.479 C 77.840 259.017, 78 252.475, 78 194 C 78 136.372, 77.825 128.968, 76.429 127.571 C 74.455 125.598, 73.545 125.598, 71.571 127.571 C 70.212 128.931, 70 133.242, 70 159.571 L 70 190 42 190 L 14 190 14 159.571 C 14 133.242, 13.788 128.931, 12.429 127.571 C 11.564 126.707, 10.471 126, 10 126 C 9.529 126, 8.436 126.707, 7.571 127.571 M 103.200 127.200 C 101.465 128.935, 101.465 259.065, 103.200 260.800 C 104.085 261.685, 113.117 262, 137.629 262 C 166.503 262, 171.063 261.794, 172.429 260.429 C 173.825 259.032, 174 251.628, 174 194 C 174 136.372, 173.825 128.968, 172.429 127.571 C 171.063 126.206, 166.503 126, 137.629 126 C 113.117 126, 104.085 126.315, 103.200 127.200 M 110 194 L 110 254 138 254 L 166 254 166 194 L 166 134 138 134 L 110 134 110 194 M 58.607 219.250 C 64.446 230.938, 69.398 240.688, 69.612 240.917 C 69.825 241.146, 70 231.583, 70 219.667 L 70 198 58.995 198 L 47.991 198 58.607 219.250 M 199.579 255.564 C 198.710 256.432, 198 257.529, 198 258 C 198 258.471, 198.710 259.568, 199.579 260.436 C 200.990 261.847, 208.058 261.987, 266.220 261.757 C 326.934 261.517, 331.356 261.383, 332.386 259.750 C 333.191 258.474, 333.191 257.526, 332.386 256.250 C 331.356 254.617, 326.934 254.483, 266.220 254.243 C 208.058 254.013, 200.990 254.153, 199.579 255.564 " stroke="none" fill="black" fill-rule="evenodd"/>
</svg>