<svg xmlns="http://www.w3.org/2000/svg" width="148" height="324" viewBox="0 0 148 324" version="1.1">
	<path d="M 40.372 62.765 C 38.418 64.037, 22.003 97.844, 22.593 99.381 C 23.449 101.612, 26.101 102.219, 27.895 100.594 C 28.778 99.795, 32.185 93.709, 35.467 87.070 C 38.748 80.432, 41.687 75, 41.997 75 C 42.308 75, 45.453 80.837, 48.986 87.972 C 52.520 95.106, 56.050 101.189, 56.832 101.489 C 58.716 102.212, 61 100.227, 61 97.866 C 61 95.626, 45.264 63.831, 43.628 62.765 C 43.008 62.361, 42.275 62.031, 42 62.031 C 41.725 62.031, 40.992 62.361, 40.372 62.765 M 119.250 126.662 C 117.121 127.521, 117.864 131.041, 121.016 135.020 C 122.675 137.115, 125.262 141.454, 126.765 144.664 C 129.199 149.860, 129.498 151.651, 129.498 161 C 129.498 170.310, 129.193 172.151, 126.806 177.247 C 125.325 180.407, 121.156 186.781, 117.541 191.411 C 109.638 201.532, 106.489 208.093, 104.900 217.750 C 102.696 231.143, 107.311 246.958, 116.255 256.661 C 120.583 261.356, 123.333 262.114, 124.966 259.063 C 125.826 257.456, 125.291 256.303, 121.834 252.313 C 108.372 236.771, 108.232 213.669, 121.506 198 C 127.900 190.452, 132.928 181.972, 135.015 175.217 C 138.972 162.405, 136.961 146.694, 129.932 135.500 C 124.571 126.963, 122.582 125.318, 119.250 126.662 M 40.370 190.765 C 38.401 192.045, 6.007 257.855, 6.594 259.384 C 7.265 261.133, 9.512 262.124, 11.274 261.448 C 11.975 261.180, 19.056 247.919, 27.010 231.980 C 34.964 216.041, 41.710 203, 42 203 C 42.290 203, 49.036 216.041, 56.990 231.980 C 64.944 247.919, 72.083 261.201, 72.853 261.497 C 74.717 262.213, 77 260.217, 77 257.871 C 77 255.637, 45.272 191.833, 43.630 190.765 C 43.009 190.361, 42.275 190.031, 42 190.031 C 41.725 190.031, 40.991 190.361, 40.370 190.765 " stroke="none" fill="black" fill-rule="evenodd"/>
</svg>