<svg xmlns="http://www.w3.org/2000/svg" width="308" height="324" viewBox="0 0 308 324" version="1.1">
	<path d="M 7.571 127.571 C 6.175 128.968, 6 136.372, 6 194 C 6 251.628, 6.175 259.032, 7.571 260.429 C 9.386 262.244, 9.946 262.319, 12 261.023 C 13.204 260.264, 13.599 256.693, 14 242.906 L 14.500 225.735 17.769 230.786 C 22.778 238.527, 34.777 249.158, 43.194 253.313 C 53.642 258.470, 61.711 260.336, 73.500 260.319 C 85.653 260.301, 93.549 258.356, 104.500 252.683 C 113.904 247.810, 125.886 236.566, 130.800 228 L 133.956 222.500 133.978 241.215 C 133.999 259.239, 134.078 259.971, 136.117 261.062 C 141.076 263.717, 141.023 264.446, 141.023 194 C 141.023 123.554, 141.076 124.283, 136.117 126.938 C 134.081 128.027, 133.999 128.771, 133.978 146.285 L 133.956 164.500 130.800 159 C 125.886 150.434, 113.904 139.190, 104.500 134.317 C 93.549 128.644, 85.653 126.699, 73.500 126.681 C 61.711 126.664, 53.642 128.530, 43.194 133.687 C 34.777 137.842, 22.778 148.473, 17.769 156.214 L 14.500 161.265 14 144.594 C 13.600 131.252, 13.200 127.734, 12 126.977 C 9.946 125.681, 9.386 125.757, 7.571 127.571 M 57.500 135.870 C 37.436 141.645, 20.733 158.691, 15.585 178.644 C 13.554 186.517, 13.554 200.483, 15.585 208.356 C 20.838 228.716, 38.284 246.162, 58.644 251.415 C 65.760 253.251, 78.565 253.481, 86.201 251.910 C 89.115 251.310, 95.244 249.032, 99.820 246.847 C 115.079 239.562, 126.717 225.246, 131.003 208.489 C 132.101 204.194, 133 200.077, 133 199.340 C 133 198.249, 127.359 198, 102.700 198 C 80.467 198, 72.081 197.681, 71.200 196.800 C 70.319 195.919, 70 187.422, 70 164.800 L 70 134 66.750 134.071 C 64.963 134.110, 60.800 134.920, 57.500 135.870 M 78 162 L 78 190 105.500 190 C 137.156 190, 134.273 191.299, 131.003 178.511 C 126.717 161.754, 115.079 147.438, 99.820 140.153 C 92.461 136.639, 83.724 134, 79.451 134 C 78.218 134, 78 138.200, 78 162 M 167.750 191.080 C 166.787 191.641, 166 192.869, 166 193.810 C 166 195.595, 199.770 230, 201.521 230 C 203.164 230, 237 195.610, 237 193.940 C 237 192.208, 235.106 190, 233.621 190 C 233.082 190, 225.623 196.969, 217.045 205.486 L 201.449 220.973 185.987 205.486 C 177.482 196.969, 170.294 190.014, 170.012 190.030 C 169.730 190.047, 168.713 190.519, 167.750 191.080 M 192.320 239.099 C 185.467 240.243, 176.796 244.158, 170.367 249.013 C 164.776 253.234, 163.108 256.220, 165.040 258.548 C 166.922 260.816, 168.513 260.317, 173.689 255.835 C 176.335 253.545, 180.975 250.515, 184 249.102 C 188.850 246.837, 190.802 246.532, 200.521 246.517 C 210.966 246.501, 211.889 246.671, 218.189 249.772 C 221.845 251.572, 226.111 254.347, 227.668 255.938 C 229.226 257.529, 231.850 260.237, 233.500 261.956 C 235.150 263.674, 239.650 266.631, 243.500 268.527 C 260.371 276.833, 279.014 274.780, 294.778 262.878 C 300.367 258.658, 301.305 255.835, 297.838 253.663 C 296.521 252.838, 295.055 253.486, 290.787 256.779 C 281.288 264.107, 277.074 265.502, 264.500 265.483 C 250.534 265.462, 245.408 263.346, 235.711 253.600 C 227.963 245.814, 218.131 240.650, 208 239.045 C 200.672 237.884, 199.573 237.888, 192.320 239.099 " stroke="none" fill="black" fill-rule="evenodd"/>
</svg>