<svg xmlns="http://www.w3.org/2000/svg" width="244" height="324" viewBox="0 0 244 324" version="1.1">
	<path d="M 231.750 127.080 C 230.111 128.035, 230 132.293, 230 194.015 C 230 259.587, 230.011 259.935, 232.064 261.034 C 237.084 263.721, 237 264.854, 237 194.078 C 237 123.068, 237.071 123.981, 231.750 127.080 M 7.571 159.571 C 6.207 160.936, 6 165.463, 6 194 C 6 222.537, 6.207 227.064, 7.571 228.429 C 9.545 230.402, 10.455 230.402, 12.429 228.429 C 13.712 227.145, 14 224.212, 14 212.429 L 14 198 42 198 L 70 198 70 212.429 C 70 224.212, 70.288 227.145, 71.571 228.429 C 72.436 229.293, 73.529 230, 74 230 C 74.471 230, 75.564 229.293, 76.429 228.429 C 77.712 227.145, 78 224.212, 78 212.429 L 78 198 106 198 L 134 198 134 212.429 C 134 224.212, 134.288 227.145, 135.571 228.429 C 137.545 230.402, 138.455 230.402, 140.429 228.429 C 141.793 227.064, 142 222.537, 142 194 C 142 165.463, 141.793 160.936, 140.429 159.571 C 139.564 158.707, 138.471 158, 138 158 C 137.529 158, 136.436 158.707, 135.571 159.571 C 134.288 160.855, 134 163.788, 134 175.571 L 134 190 106 190 L 78 190 78 175.571 C 78 163.788, 77.712 160.855, 76.429 159.571 C 74.455 157.598, 73.545 157.598, 71.571 159.571 C 70.288 160.855, 70 163.788, 70 175.571 L 70 190 42 190 L 14 190 14 175.571 C 14 163.788, 13.712 160.855, 12.429 159.571 C 11.564 158.707, 10.471 158, 10 158 C 9.529 158, 8.436 158.707, 7.571 159.571 M 175.230 199.269 C 170.154 204.367, 166 209.301, 166 210.234 C 166 211.720, 168.720 214, 170.494 214 C 170.838 214, 173.568 211.685, 176.560 208.855 L 182 203.710 182 228.855 L 182 254 175.934 254 C 169.019 254, 166 255.216, 166 258 C 166 261.473, 169.211 262.061, 186.622 261.774 C 201.221 261.534, 203.421 261.283, 204.387 259.750 C 206.532 256.345, 204 254.532, 196.646 254.204 L 190 253.909 190 223.526 C 190 197.238, 189.788 192.931, 188.429 191.571 C 187.564 190.707, 186.318 190, 185.659 190 C 185 190, 180.307 194.171, 175.230 199.269 " stroke="none" fill="black" fill-rule="evenodd"/>
</svg>