<svg xmlns="http://www.w3.org/2000/svg" width="340" height="324" viewBox="0 0 340 324" version="1.1">
	<path d="M 40.316 62.784 C 38.369 64.022, 22.007 97.855, 22.604 99.410 C 23.269 101.144, 25.524 102.120, 27.295 101.440 C 28.007 101.167, 31.480 95.106, 35.014 87.972 C 38.547 80.837, 41.691 75, 42 75 C 42.309 75, 45.453 80.837, 48.986 87.972 C 52.520 95.106, 55.993 101.167, 56.705 101.440 C 58.487 102.124, 60.732 101.141, 61.407 99.381 C 61.997 97.844, 45.582 64.037, 43.628 62.765 C 42.214 61.845, 41.789 61.847, 40.316 62.784 M 103.200 127.200 C 101.465 128.935, 101.465 259.065, 103.200 260.800 C 104.085 261.685, 113.117 262, 137.629 262 C 166.503 262, 171.063 261.794, 172.429 260.429 C 173.825 259.032, 174 251.628, 174 194 C 174 136.372, 173.825 128.968, 172.429 127.571 C 171.063 126.206, 166.503 126, 137.629 126 C 113.117 126, 104.085 126.315, 103.200 127.200 M 110 194 L 110 254 138 254 L 166 254 166 194 L 166 134 138 134 L 110 134 110 194 M 40.348 190.765 C 38.390 192.014, 6.011 257.865, 6.600 259.400 C 7.266 261.135, 9.518 262.122, 11.274 261.448 C 11.975 261.180, 19.056 247.919, 27.010 231.980 C 34.964 216.041, 41.710 203, 42 203 C 42.290 203, 49.036 216.041, 56.990 231.980 C 64.944 247.919, 72.025 261.180, 72.726 261.448 C 74.488 262.124, 76.735 261.133, 77.406 259.384 C 77.993 257.855, 45.599 192.045, 43.630 190.765 C 43.009 190.361, 42.275 190.031, 42 190.031 C 41.725 190.031, 40.981 190.361, 40.348 190.765 M 199.579 255.564 C 198.710 256.432, 198 257.529, 198 258 C 198 258.471, 198.710 259.568, 199.579 260.436 C 200.990 261.847, 208.058 261.987, 266.220 261.757 C 326.934 261.517, 331.356 261.383, 332.386 259.750 C 333.191 258.474, 333.191 257.526, 332.386 256.250 C 331.356 254.617, 326.934 254.483, 266.220 254.243 C 208.058 254.013, 200.990 254.153, 199.579 255.564 " stroke="none" fill="black" fill-rule="evenodd"/>
</svg>