<svg xmlns="http://www.w3.org/2000/svg" width="324" height="324" viewBox="0 0 324 324" version="1.1">
	<path d="M 7.571 127.571 C 6.175 128.968, 6 136.372, 6 194 C 6 251.628, 6.175 259.032, 7.571 260.429 C 8.968 261.825, 16.372 262, 74 262 C 131.628 262, 139.032 261.825, 140.429 260.429 C 141.825 259.032, 142 251.628, 142 194 C 142 136.372, 141.825 128.968, 140.429 127.571 C 139.032 126.175, 131.628 126, 74 126 C 16.372 126, 8.968 126.175, 7.571 127.571 M 194.223 127.012 C 180.302 129.919, 168.402 143.057, 166.515 157.605 C 165.991 161.637, 166.198 163.055, 167.498 164.355 C 168.402 165.260, 169.529 166, 170 166 C 171.912 166, 174 162.663, 174 159.607 C 174 153.681, 177.099 146.803, 181.917 142.035 C 192.792 131.273, 210.331 131.236, 221.048 141.952 C 228.968 149.873, 230.477 157.650, 227.070 173 C 220.345 203.309, 200.733 231.819, 175.134 248.500 C 167.181 253.683, 165.966 254.840, 166.214 257 C 166.715 261.375, 170.237 260.690, 179.778 254.363 C 190.312 247.378, 207.664 230.267, 214.201 220.417 C 224.945 204.231, 231.002 189.901, 235.008 171.187 C 236.893 162.385, 237.016 160.380, 235.982 155.307 C 232.023 135.886, 213.107 123.069, 194.223 127.012 M 278.495 129.015 C 277.990 130.606, 279.517 132.655, 285.758 138.765 C 294.920 147.733, 301.734 158.564, 305.724 170.500 C 308.149 177.753, 308.399 179.900, 308.399 193.500 C 308.399 207.100, 308.149 209.247, 305.724 216.500 C 301.763 228.351, 295.121 238.905, 285.937 247.942 C 277.873 255.877, 276.843 257.795, 279.472 259.977 C 281.490 261.651, 286.021 258.765, 293.121 251.280 C 300.040 243.988, 304.186 237.927, 308.536 228.744 C 314.148 216.898, 316.243 207.318, 316.243 193.500 C 316.243 184.404, 315.726 179.564, 314.106 173.500 C 309.868 157.641, 301.304 143.126, 290.021 132.680 C 283.457 126.603, 279.646 125.391, 278.495 129.015 M 14 194 L 14 254 74 254 L 134 254 134 194 L 134 134 74 134 L 14 134 14 194 M 279.250 158.662 C 277.097 159.531, 277.875 162.819, 281.293 167.297 C 287.709 175.703, 289.492 181.289, 289.496 193 C 289.500 202.674, 289.256 204.015, 286.397 210.047 C 284.691 213.648, 281.844 218.247, 280.070 220.267 C 277.769 222.888, 277.030 224.520, 277.490 225.970 C 278.486 229.107, 282.347 228.507, 285.694 224.696 C 301.117 207.130, 301.451 179.738, 286.456 162.220 C 282.955 158.129, 281.883 157.600, 279.250 158.662 M 262.571 175.571 C 260.518 177.625, 260.535 177.721, 263.750 182.361 C 266.079 185.721, 266.500 187.351, 266.500 193 C 266.500 198.698, 266.086 200.268, 263.663 203.765 C 260.126 208.869, 260.412 211.500, 264.504 211.500 C 270.094 211.500, 276.017 198.116, 274.392 189.154 C 273.231 182.750, 267.849 174, 265.071 174 C 264.561 174, 263.436 174.707, 262.571 175.571 " stroke="none" fill="black" fill-rule="evenodd"/>
</svg>