<svg xmlns="http://www.w3.org/2000/svg" width="468" height="324" viewBox="0 0 468 324" version="1.1">
	<path d="M 67.270 127.054 C 53.477 129.776, 42.472 140.191, 39.515 153.322 C 38.385 158.341, 38.341 158.385, 33.322 159.515 C 26.827 160.978, 20.285 164.835, 15.710 169.900 C -2.973 190.579, 8.001 222.635, 35.604 228.013 C 58.779 232.529, 80.707 210.481, 76 187.396 C 73.161 173.471, 62.183 161.813, 49.703 159.472 C 45.492 158.682, 45.371 158.203, 47.667 151.463 C 49.875 144.983, 56.983 137.875, 63.463 135.667 C 74.255 131.990, 85.476 134.381, 93.071 141.976 C 99.228 148.132, 101.497 154.745, 100.635 164.020 C 99.250 178.924, 90.438 201.238, 79.815 216.743 C 72.521 227.389, 58.224 241.285, 47.142 248.500 C 39.180 253.684, 37.966 254.840, 38.214 257 C 38.854 262.587, 45.305 259.848, 61.060 247.300 C 84.676 228.490, 101.012 201.064, 107.412 169.483 C 108.690 163.177, 108.816 160.296, 108.004 155.983 C 105.123 140.678, 94.451 129.849, 79.535 127.091 C 72.994 125.882, 73.205 125.883, 67.270 127.054 M 199.200 127.200 C 198.292 128.108, 198 143.689, 198 191.200 L 198 254 167.571 254 C 141.242 254, 136.931 254.212, 135.571 255.571 C 133.598 257.545, 133.598 258.455, 135.571 260.429 C 136.968 261.825, 144.372 262, 202 262 C 259.628 262, 267.032 261.825, 268.429 260.429 C 269.293 259.564, 270 258.471, 270 258 C 270 257.529, 269.293 256.436, 268.429 255.571 C 267.069 254.212, 262.758 254, 236.429 254 L 206 254 206 226 L 206 198 236.429 198 C 262.758 198, 267.069 197.788, 268.429 196.429 C 269.793 195.064, 270 190.537, 270 162 C 270 133.463, 269.793 128.936, 268.429 127.571 C 267.063 126.206, 262.503 126, 233.629 126 C 209.117 126, 200.085 126.315, 199.200 127.200 M 307.500 127.458 C 305.300 128.261, 301.843 130.686, 299.819 132.846 C 291.986 141.205, 292.639 152.086, 301.436 159.809 C 305.075 163.005, 311.981 165.500, 315.001 164.710 C 316.522 164.312, 316.453 164.997, 314.360 171.014 C 309.287 185.602, 309.183 200.657, 314.055 215.197 C 317.450 225.330, 321.762 231.935, 330.916 241.022 C 344.462 254.470, 358.558 260.304, 377.500 260.304 C 396.527 260.304, 410.493 254.525, 424.084 241.026 C 433.239 231.934, 437.550 225.329, 440.945 215.197 C 445.817 200.657, 445.713 185.602, 440.640 171.014 C 438.547 164.997, 438.478 164.312, 439.999 164.710 C 443.019 165.500, 449.925 163.005, 453.564 159.809 C 462.630 151.850, 463.060 140.796, 454.632 132.368 C 448.262 125.999, 440.566 124.654, 432.898 128.569 C 429.164 130.477, 424.015 136.673, 423.334 140.082 C 423.013 141.687, 422.554 143, 422.315 143 C 422.076 143, 419.790 141.404, 417.235 139.453 C 398.422 125.088, 370.636 122.495, 348.455 133.034 C 345.130 134.614, 340.320 137.502, 337.765 139.453 C 335.210 141.404, 332.924 143, 332.685 143 C 332.446 143, 331.987 141.687, 331.666 140.082 C 330.976 136.629, 325.832 130.481, 321.957 128.478 C 317.648 126.249, 311.917 125.845, 307.500 127.458 M 206 162 L 206 190 234 190 L 262 190 262 162 L 262 134 234 134 L 206 134 206 162 M 305.400 137.400 C 302.498 140.302, 302 141.488, 302 145.500 C 302 149.512, 302.498 150.698, 305.400 153.600 C 308.302 156.502, 309.488 157, 313.500 157 C 317.512 157, 318.698 156.502, 321.600 153.600 C 324.502 150.698, 325 149.512, 325 145.500 C 325 141.488, 324.502 140.302, 321.600 137.400 C 318.698 134.498, 317.512 134, 313.500 134 C 309.488 134, 308.302 134.498, 305.400 137.400 M 362.645 135.584 C 342.562 140.445, 324.305 158.877, 319.537 179.103 C 314.672 199.742, 320.569 220.600, 335.484 235.516 C 350.400 250.431, 371.258 256.328, 391.897 251.463 C 412.261 246.662, 430.662 228.261, 435.463 207.897 C 437.390 199.718, 437.390 187.282, 435.463 179.103 C 430.662 158.739, 412.261 140.338, 391.897 135.537 C 383.998 133.676, 370.439 133.697, 362.645 135.584 M 433.400 137.400 C 430.498 140.302, 430 141.488, 430 145.500 C 430 149.512, 430.498 150.698, 433.400 153.600 C 436.302 156.502, 437.488 157, 441.500 157 C 445.512 157, 446.698 156.502, 449.600 153.600 C 452.502 150.698, 453 149.512, 453 145.500 C 453 141.488, 452.502 140.302, 449.600 137.400 C 446.698 134.498, 445.512 134, 441.500 134 C 437.488 134, 436.302 134.498, 433.400 137.400 M 31.054 167.728 C 25.018 169.859, 17.781 177.260, 15.667 183.463 C 11.995 194.241, 14.382 205.477, 21.952 213.048 C 32.673 223.769, 50.327 223.769, 61.048 213.048 C 71.769 202.327, 71.769 184.673, 61.048 173.952 C 53.519 166.424, 41.696 163.970, 31.054 167.728 M 343.571 191.571 C 342.707 192.436, 342 193.529, 342 194 C 342 195.111, 344.889 198, 346 198 C 347.111 198, 350 195.111, 350 194 C 350 192.889, 347.111 190, 346 190 C 345.529 190, 344.436 190.707, 343.571 191.571 M 407.571 191.571 C 406.707 192.436, 406 193.529, 406 194 C 406 195.111, 408.889 198, 410 198 C 411.111 198, 414 195.111, 414 194 C 414 192.889, 411.111 190, 410 190 C 409.529 190, 408.436 190.707, 407.571 191.571 M 375.571 223.571 C 374.707 224.436, 374 225.529, 374 226 C 374 227.111, 376.889 230, 378 230 C 379.111 230, 382 227.111, 382 226 C 382 224.889, 379.111 222, 378 222 C 377.529 222, 376.436 222.707, 375.571 223.571 " stroke="none" fill="black" fill-rule="evenodd"/>
</svg>