<svg xmlns="http://www.w3.org/2000/svg" width="468" height="324" viewBox="0 0 468 324" version="1.1">
	<path d="M 167.652 127.491 C 166.743 128.399, 166 129.529, 166 130 C 166 132.122, 169.426 134.001, 173.321 134.015 C 192.426 134.082, 213.897 148.438, 222.809 167.101 C 226.646 175.135, 229 183.292, 229 188.549 C 229 190.452, 228.477 191, 226.660 191 C 223.085 191, 212.801 196.532, 208.639 200.694 C 206.596 202.738, 203.501 207.300, 201.762 210.832 C 198.988 216.467, 198.600 218.266, 198.600 225.500 C 198.600 232.734, 198.988 234.533, 201.762 240.168 C 205.752 248.274, 210.695 253.232, 218.726 257.186 C 223.971 259.768, 226.270 260.305, 232.272 260.349 C 241.261 260.415, 246.188 259.010, 253.234 254.369 C 259.278 250.390, 265.207 242.425, 267.199 235.613 C 267.861 233.351, 268.378 228.247, 268.349 224.272 C 268.254 211.430, 260.888 200.098, 248.663 193.990 C 245.373 192.345, 241.627 191, 240.340 191 C 238.523 191, 238 190.452, 238 188.549 C 238 183.292, 240.354 175.135, 244.191 167.101 C 253.243 148.144, 274.731 134, 294.478 134 C 297.126 134, 299.478 133.379, 300.429 132.429 C 302.422 130.435, 302.404 129.547, 300.330 127.473 C 297.098 124.241, 279.767 127.494, 267.194 133.692 C 254.304 140.047, 240.986 154.322, 235.602 167.555 L 233.391 172.989 231.665 168.190 C 227.156 155.650, 212.788 140.092, 199.806 133.692 C 191.691 129.691, 184.549 127.599, 175.402 126.543 C 170.418 125.968, 169.002 126.141, 167.652 127.491 M 391.571 127.571 C 389.756 129.387, 389.681 129.946, 390.978 132 C 391.770 133.255, 396.507 133.582, 419.968 134 L 448.010 134.500 391.005 191.497 L 334 248.493 334 220.818 C 334 196.992, 333.781 192.924, 332.429 191.571 C 330.455 189.598, 329.545 189.598, 327.571 191.571 C 326.206 192.937, 326 197.497, 326 226.371 C 326 250.883, 326.315 259.915, 327.200 260.800 C 328.085 261.685, 337.117 262, 361.629 262 C 390.503 262, 395.063 261.794, 396.429 260.429 C 397.293 259.564, 398 258.471, 398 258 C 398 257.529, 397.293 256.436, 396.429 255.571 C 395.076 254.219, 391.008 254, 367.182 254 L 339.507 254 396.503 196.995 L 453.500 139.990 454 168.032 C 454.418 191.493, 454.745 196.230, 456 197.022 C 458.054 198.319, 458.613 198.244, 460.429 196.429 C 461.794 195.063, 462 190.503, 462 161.629 C 462 137.117, 461.685 128.085, 460.800 127.200 C 459.915 126.315, 450.883 126, 426.371 126 C 397.497 126, 392.937 126.206, 391.571 127.571 M 224.500 199.326 C 215.842 202.714, 215.821 202.273, 225.103 211.603 L 233.457 220.001 241.692 211.809 C 247.755 205.778, 249.656 203.291, 248.902 202.381 C 245.818 198.666, 230.946 196.804, 224.500 199.326 M 210.184 210.278 C 206.139 215.152, 204.867 227.319, 207.573 235.260 C 210.178 242.906, 210.711 242.838, 219.809 233.692 L 228.001 225.457 219.671 217.170 C 212.854 210.389, 211.131 209.137, 210.184 210.278 M 247.191 217.308 L 238.999 225.543 247.339 233.840 L 255.680 242.137 257.174 239.819 C 261.239 233.513, 262.153 223.740, 259.427 215.740 C 256.822 208.094, 256.289 208.162, 247.191 217.308 M 39.571 223.571 C 38.707 224.436, 38 225.636, 38 226.239 C 38 226.841, 43.941 233.334, 51.202 240.667 L 64.405 254 36.774 254 C 12.988 254, 8.924 254.219, 7.571 255.571 C 5.598 257.545, 5.598 258.455, 7.571 260.429 C 8.968 261.825, 16.372 262, 74 262 C 131.628 262, 139.032 261.825, 140.429 260.429 C 142.402 258.455, 142.402 257.545, 140.429 255.571 C 139.076 254.219, 135.012 254, 111.226 254 L 83.595 254 96.798 240.667 C 104.059 233.334, 110 226.841, 110 226.239 C 110 224.817, 107.176 222, 105.751 222 C 105.143 222, 97.750 228.844, 89.323 237.208 L 74 252.416 58.677 237.208 C 50.250 228.844, 42.857 222, 42.249 222 C 41.640 222, 40.436 222.707, 39.571 223.571 M 225.160 239.339 L 216.863 247.680 219.181 249.174 C 225.487 253.239, 235.260 254.153, 243.260 251.427 C 250.906 248.822, 250.838 248.289, 241.692 239.191 L 233.457 230.999 225.160 239.339 " stroke="none" fill="black" fill-rule="evenodd"/>
</svg>