<svg xmlns="http://www.w3.org/2000/svg" width="547" height="324" viewBox="0 0 547 324" version="1.1">
	<path d="M 391.403 111.125 C 381.831 120.640, 374 129.134, 374 130 C 374 130.866, 381.831 139.360, 391.403 148.875 C 407.191 164.570, 409 166.070, 410.903 165.052 C 412.056 164.435, 413 163.163, 413 162.227 C 413 161.290, 406.143 153.656, 397.762 145.262 L 382.524 130 397.762 114.738 C 406.143 106.344, 413 98.710, 413 97.773 C 413 96.837, 412.056 95.565, 410.903 94.948 C 409 93.930, 407.191 95.430, 391.403 111.125 M 313.113 173.398 L 265.474 220.998 249.999 205.499 C 241.488 196.975, 234.213 190, 233.834 190 C 232.736 190, 230 193.033, 230 194.249 C 230 194.857, 236.844 202.250, 245.208 210.677 L 260.416 226 245.208 241.323 C 236.844 249.750, 230 257.143, 230 257.751 C 230 258.967, 232.736 262, 233.834 262 C 234.213 262, 241.482 255.031, 249.987 246.514 L 265.449 231.027 281.131 246.599 C 295.325 260.693, 297.012 262.064, 298.906 261.050 C 300.058 260.434, 301 259.163, 301 258.227 C 301 257.290, 294.141 249.654, 285.758 241.258 L 270.516 225.992 317.758 178.742 C 343.741 152.755, 365 130.722, 365 129.781 C 365 128.840, 364.044 127.559, 362.876 126.934 C 360.922 125.888, 356.948 129.598, 313.113 173.398 M 466.932 127.009 C 456.612 128.756, 445.316 137.713, 440.788 147.741 C 437.735 154.501, 437.735 168.499, 440.788 175.259 C 445.213 185.059, 456.347 194.072, 465.917 195.603 L 470 196.256 470 228.005 C 470 255.754, 470.200 259.921, 471.584 261.070 C 474.649 263.613, 476.382 260.955, 477.587 251.863 C 478.879 242.111, 480.189 237.670, 484.054 229.945 C 492.752 212.553, 511.303 199.920, 530.500 198.313 C 538.650 197.631, 541 196.666, 541 194 C 541 190.593, 537.763 189.800, 528.844 191.021 C 519.261 192.333, 510.189 195.451, 502.354 200.123 C 494.886 204.576, 483.990 215.342, 480.119 222.094 L 477.019 227.500 477.009 211.750 C 477 196.081, 477.012 196, 479.250 195.999 C 483.176 195.998, 493.696 190.314, 498.079 185.828 C 500.404 183.447, 503.474 179.025, 504.903 176 C 507.099 171.349, 507.500 169.111, 507.500 161.500 C 507.500 153.889, 507.099 151.651, 504.903 147 C 498.230 132.869, 482.193 124.426, 466.932 127.009 M 461.500 136.353 C 455.905 138.964, 449.611 145.362, 447.229 150.860 C 446.289 153.028, 445.652 157.331, 445.652 161.500 C 445.652 169.759, 447.289 174.097, 452.653 180.046 C 465.816 194.647, 489.998 190.918, 498.349 173 C 502.884 163.268, 500.494 149.775, 492.876 142.098 C 484.871 134.032, 471.658 131.613, 461.500 136.353 M 40.370 190.765 C 38.401 192.045, 6.007 257.855, 6.594 259.384 C 7.265 261.133, 9.512 262.124, 11.274 261.448 C 11.975 261.180, 19.056 247.919, 27.010 231.980 C 34.964 216.041, 41.710 203, 42 203 C 42.290 203, 49.036 216.041, 56.990 231.980 C 64.944 247.919, 72.025 261.180, 72.726 261.448 C 73.427 261.717, 74.573 261.717, 75.274 261.448 C 75.975 261.180, 83.056 247.919, 91.010 231.980 C 98.964 216.041, 105.717 203, 106.016 203 C 106.315 203, 113.042 216.034, 120.965 231.964 C 128.888 247.894, 135.962 261.155, 136.685 261.433 C 137.408 261.710, 138.573 261.717, 139.274 261.448 C 139.975 261.180, 147.056 247.919, 155.010 231.980 C 162.964 216.041, 169.710 203, 170 203 C 170.290 203, 177.036 216.041, 184.990 231.980 C 192.944 247.919, 200.083 261.201, 200.853 261.497 C 202.714 262.211, 205 260.218, 205 257.882 C 205 255.326, 172.851 191.157, 171.266 190.548 C 170.570 190.281, 169.408 190.290, 168.685 190.567 C 167.962 190.845, 160.888 204.106, 152.965 220.036 C 145.042 235.966, 138.315 249, 138.016 249 C 137.717 249, 130.964 235.959, 123.010 220.020 C 115.056 204.081, 107.975 190.820, 107.274 190.552 C 106.573 190.283, 105.408 190.290, 104.685 190.567 C 103.962 190.845, 96.888 204.106, 88.965 220.036 C 81.042 235.966, 74.314 249, 74.015 249 C 73.716 249, 67.178 236.339, 59.486 220.864 C 51.794 205.389, 44.905 192.114, 44.179 191.364 C 42.686 189.823, 41.988 189.713, 40.370 190.765 " stroke="none" fill="black" fill-rule="evenodd"/>
</svg>