<svg xmlns="http://www.w3.org/2000/svg" width="403" height="324" viewBox="0 0 403 324" version="1.1">
	<path d="M 55.571 63.571 C 54.707 64.436, 54 65.317, 54 65.531 C 54 66.993, 71.421 100.653, 72.488 101.252 C 73.225 101.665, 74.440 101.768, 75.188 101.481 C 76.837 100.849, 93 68.755, 93 66.115 C 93 63.770, 90.710 61.790, 88.832 62.511 C 88.050 62.811, 84.520 68.894, 80.986 76.028 C 77.453 83.163, 74.308 89, 73.997 89 C 73.687 89, 70.748 83.534, 67.467 76.853 C 59.925 61.499, 58.847 60.296, 55.571 63.571 M 35.045 127.064 C 24.674 129.164, 14.828 136.537, 10.151 145.705 C 7.578 150.747, 5.616 161.395, 6.828 163.738 C 7.329 164.707, 8.527 169.100, 9.490 173.500 C 13.122 190.101, 19.200 204.421, 28.736 218.844 C 42.121 239.090, 73.693 265.161, 77.454 259.074 C 77.769 258.565, 81.733 255.556, 86.263 252.388 C 112.818 233.821, 132.129 203.986, 138.872 171.112 C 141.945 156.133, 139.262 146.177, 129.518 136.404 C 114.223 121.061, 87.765 124.155, 76.005 142.662 L 73.360 146.824 71.471 143.317 C 65.358 131.965, 48.340 124.371, 35.045 127.064 M 263.200 127.200 C 261.465 128.935, 261.465 259.065, 263.200 260.800 C 264.935 262.535, 394.065 262.535, 395.800 260.800 C 397.535 259.065, 397.535 128.935, 395.800 127.200 C 394.065 125.465, 264.935 125.465, 263.200 127.200 M 31.054 135.728 C 24.787 137.940, 17.726 145.297, 15.534 151.899 C 13.881 156.875, 13.875 157.704, 15.430 166.205 C 18.770 184.462, 25.240 200.518, 35.494 216 C 41.666 225.319, 57.157 240.908, 66.665 247.369 L 73.830 252.237 81.502 246.934 C 106.738 229.488, 125.548 200.517, 131.584 169.798 C 133.614 159.468, 133.025 154.372, 128.987 147.302 C 122.592 136.104, 108.656 131.172, 95.795 135.554 C 86.333 138.778, 78 149.543, 78 158.541 C 78 162.605, 75.835 166, 73.243 166 C 70.994 166, 69 162.751, 69 159.088 C 69 154.001, 63.752 143.766, 59.235 140.042 C 52.129 134.185, 40.476 132.401, 31.054 135.728 M 269 194 L 269 254 329.500 254 L 390 254 390 194 L 390 134 329.500 134 L 269 134 269 194 M 322.355 158.992 C 312.044 161.150, 302.073 169.080, 297.205 178.993 C 294.873 183.740, 294.500 185.743, 294.500 193.500 C 294.500 201.257, 294.873 203.260, 297.205 208.007 C 308.134 230.260, 336.635 235.417, 353.804 218.249 C 368.567 203.485, 366.746 177.644, 350.081 165.412 C 342.413 159.784, 331.094 157.163, 322.355 158.992 M 317.500 168.353 C 311.873 170.979, 305.871 177.089, 303.378 182.728 C 302.340 185.077, 301.711 189.141, 301.711 193.500 C 301.711 201.703, 303.431 206.254, 308.773 212.179 C 319.638 224.232, 338.403 224.034, 349.683 211.746 C 353.999 207.045, 357 199.561, 357 193.500 C 357 183.480, 349.989 172.797, 340.500 168.358 C 333.632 165.146, 324.377 165.144, 317.500 168.353 M 167.585 191.558 C 166.713 192.430, 166 193.529, 166 194 C 166 194.471, 166.713 195.570, 167.585 196.442 C 168.978 197.835, 173.159 197.995, 202.226 197.763 C 232.452 197.523, 235.377 197.350, 236.386 195.750 C 237.191 194.474, 237.191 193.526, 236.386 192.250 C 235.377 190.650, 232.452 190.477, 202.226 190.237 C 173.159 190.005, 168.978 190.165, 167.585 191.558 M 327.750 191.080 C 325.372 192.465, 325.542 195.685, 328.064 197.034 C 331.753 199.008, 334.819 194.219, 331.800 191.200 C 330.367 189.767, 330.022 189.757, 327.750 191.080 " stroke="none" fill="black" fill-rule="evenodd"/>
</svg>