<svg xmlns="http://www.w3.org/2000/svg" width="308" height="324" viewBox="0 0 308 324" version="1.1">
	<path d="M 65.384 63.357 C 54.714 66.060, 45.962 73.484, 41.191 83.880 C 39.101 88.432, 38.611 91.020, 38.611 97.500 C 38.611 107.107, 41.427 114.253, 48.038 121.425 L 52.255 126 30.699 126 C 12.436 126, 8.903 126.240, 7.571 127.571 C 5.598 129.545, 5.598 130.455, 7.571 132.429 C 8.931 133.788, 13.242 134, 39.571 134 L 70 134 70 164.006 L 70 194.012 54.016 225.967 C 45.225 243.542, 38.285 258.580, 38.594 259.384 C 39.265 261.133, 41.512 262.124, 43.274 261.448 C 43.975 261.180, 51.056 247.919, 59.010 231.980 C 66.964 216.041, 73.710 203, 74 203 C 74.290 203, 81.036 216.041, 88.990 231.980 C 96.944 247.919, 104.083 261.201, 104.853 261.497 C 106.717 262.213, 109 260.217, 109 257.871 C 109 256.835, 102.025 242.043, 93.500 225 L 78 194.012 78 164.021 L 78 134.029 108.641 133.764 C 136.566 133.523, 139.381 133.345, 140.386 131.750 C 141.191 130.474, 141.191 129.526, 140.387 128.250 C 139.398 126.682, 136.951 126.472, 116.831 126.232 L 94.378 125.963 98.526 121.634 C 105.594 114.258, 107.500 109.131, 107.500 97.500 C 107.500 88.914, 107.153 86.793, 105.049 82.500 C 97.872 67.856, 80.576 59.509, 65.384 63.357 M 63.627 71.468 C 58.247 73.386, 53.039 77.829, 49.500 83.519 C 46.741 87.955, 46.500 89.073, 46.500 97.422 C 46.500 105.509, 46.798 107.007, 49.230 111.145 C 53.385 118.213, 59.168 122.498, 67.305 124.541 L 70 125.217 70 97.608 C 70 76.165, 69.721 70.010, 68.750 70.044 C 68.063 70.068, 65.757 70.709, 63.627 71.468 M 78 97.567 L 78 125.135 80.250 124.434 C 92.738 120.544, 99.862 111.664, 100.779 98.844 C 101.223 92.638, 100.970 91.381, 98.100 85.551 C 94.595 78.431, 89.667 73.852, 82.965 71.488 C 80.646 70.669, 78.580 70, 78.374 70 C 78.168 70, 78 82.405, 78 97.567 M 226.355 158.998 C 216.012 161.148, 205.981 169.149, 201.294 178.987 C 199.300 183.174, 198.597 186.375, 198.374 192.294 L 198.080 200.089 191.914 204.724 C 180.233 213.505, 170.645 229.052, 167.566 244.208 C 165.338 255.172, 165.485 259.654, 168.117 261.062 C 171.365 262.801, 172.656 260.613, 173.871 251.308 C 175.959 235.329, 181.262 224.846, 192.829 213.834 L 200.157 206.856 202.952 211.178 C 207.114 217.615, 212.777 222.564, 219.500 225.642 C 224.544 227.952, 226.814 228.382, 233.750 228.343 C 238.287 228.317, 241.989 228.567, 241.976 228.898 C 241.742 234.662, 236.917 245.732, 231.940 251.925 C 228.259 256.506, 228.358 259.366, 232.215 259.812 C 234.504 260.077, 235.590 259.204, 239.394 254.037 C 244.696 246.835, 247.819 239.028, 248.675 230.837 C 249.259 225.252, 249.549 224.718, 253.475 222.017 C 257.821 219.027, 262.119 214.029, 264.120 209.636 L 265.285 207.080 269.778 210.290 C 282.303 219.238, 292.908 240.226, 292.983 256.215 C 293.003 260.661, 295.614 262.734, 298.518 260.611 C 300.065 259.479, 300.233 258.264, 299.741 251.754 C 298.985 241.764, 294.491 229.012, 288.607 220.161 C 283.949 213.155, 274.637 203.810, 270.250 201.741 C 268.232 200.788, 267.998 199.948, 267.976 193.589 C 267.926 178.674, 258.705 165.335, 245.132 160.547 C 239.788 158.661, 231.330 157.964, 226.355 158.998 M 222 168.079 C 213.110 172.098, 206.900 180.644, 205.526 190.750 C 205.134 193.637, 205.009 196, 205.250 196 C 205.490 196, 208.230 195.125, 211.339 194.055 C 221.043 190.717, 231.848 189.602, 241.250 190.970 C 245.787 191.631, 251.959 193.032, 254.965 194.085 C 257.971 195.138, 260.559 196, 260.715 196 C 261.543 196, 260.802 189.697, 259.433 185.087 C 257.465 178.459, 251.279 171.529, 244.500 168.358 C 237.952 165.296, 228.417 165.177, 222 168.079 M 221.500 198.669 C 220.400 198.909, 216.716 200.055, 213.313 201.216 L 207.125 203.326 208.975 206.913 C 213.396 215.487, 222.585 220.942, 232.668 220.978 C 241.497 221.009, 241.949 220.719, 240.828 215.731 C 239.790 211.109, 235.686 202.437, 233.266 199.750 C 231.739 198.055, 226.510 197.574, 221.500 198.669 M 244.136 203.604 C 245.678 206.661, 247.228 210.701, 247.581 212.581 C 247.934 214.462, 248.531 216, 248.908 216 C 250.647 216, 259 205.776, 259 203.647 C 259 203.138, 248.341 199.580, 243.916 198.611 L 241.332 198.045 244.136 203.604 " stroke="none" fill="black" fill-rule="evenodd"/>
</svg>