<svg xmlns="http://www.w3.org/2000/svg" width="340" height="324" viewBox="0 0 340 324" version="1.1">
	<path d="M 103.579 127.564 C 102.710 128.432, 102 129.529, 102 130 C 102 130.471, 102.710 131.568, 103.579 132.436 C 104.990 133.847, 112.058 133.987, 170.220 133.757 C 230.934 133.517, 235.356 133.383, 236.386 131.750 C 237.191 130.474, 237.191 129.526, 236.386 128.250 C 235.356 126.617, 230.934 126.483, 170.220 126.243 C 112.058 126.013, 104.990 126.153, 103.579 127.564 M 33.384 159.412 C 15.475 163.758, 3.559 181.807, 6.987 199.396 C 8.500 207.161, 12.212 214.019, 17.580 218.967 C 40.258 239.870, 76.252 224.246, 76.252 193.500 C 76.252 176.888, 65.367 163.178, 49.147 159.360 C 42.397 157.772, 40.111 157.779, 33.384 159.412 M 31.054 167.728 C 25.018 169.859, 17.781 177.260, 15.667 183.463 C 11.995 194.241, 14.382 205.477, 21.952 213.048 C 32.402 223.497, 49.888 223.773, 60.280 213.653 C 66.701 207.401, 68.500 202.989, 68.500 193.500 C 68.500 184.011, 66.701 179.599, 60.280 173.347 C 53.109 166.363, 41.332 164.099, 31.054 167.728 M 39.571 191.571 C 38.707 192.436, 38 193.529, 38 194 C 38 195.111, 40.889 198, 42 198 C 43.111 198, 46 195.111, 46 194 C 46 192.889, 43.111 190, 42 190 C 41.529 190, 40.436 190.707, 39.571 191.571 M 317.500 191.457 C 290.023 196.649, 269.191 217.033, 263.589 244.208 C 261.316 255.232, 261.472 259.647, 264.183 261.098 C 267.396 262.817, 270 259.236, 270 253.099 C 270 240.575, 276.385 226.566, 286.960 215.885 C 297.918 204.817, 309.027 199.550, 324.395 198.135 C 331.977 197.437, 334.486 195.591, 332.394 192.250 C 330.991 190.011, 326.437 189.769, 317.500 191.457 M 7.571 255.571 C 6.707 256.436, 6 257.529, 6 258 C 6 258.471, 6.707 259.564, 7.571 260.429 C 8.936 261.793, 13.463 262, 42 262 C 70.537 262, 75.064 261.793, 76.429 260.429 C 77.293 259.564, 78 258.471, 78 258 C 78 257.529, 77.293 256.436, 76.429 255.571 C 75.064 254.207, 70.537 254, 42 254 C 13.463 254, 8.936 254.207, 7.571 255.571 " stroke="none" fill="black" fill-rule="evenodd"/>
</svg>