<svg xmlns="http://www.w3.org/2000/svg" width="595" height="324" viewBox="0 0 595 324" version="1.1">
	<path d="M 65.972 63.329 C 47.777 67.346, 35.493 85.578, 38.993 103.372 C 40.490 110.981, 43.011 115.971, 48.198 121.599 L 52.255 126 30.699 126 C 12.436 126, 8.903 126.240, 7.571 127.571 C 5.598 129.545, 5.598 130.455, 7.571 132.429 C 8.931 133.788, 13.242 134, 39.571 134 L 70 134 70 164.006 L 70 194.012 54.016 225.967 C 45.225 243.542, 38.285 258.580, 38.594 259.384 C 39.265 261.133, 41.512 262.124, 43.274 261.448 C 43.975 261.180, 51.056 247.919, 59.010 231.980 C 66.964 216.041, 73.710 203, 74 203 C 74.290 203, 81.036 216.041, 88.990 231.980 C 96.944 247.919, 104.083 261.201, 104.853 261.497 C 106.717 262.213, 109 260.217, 109 257.871 C 109 256.835, 102.025 242.043, 93.500 225 L 78 194.012 78 164.021 L 78 134.029 108.641 133.764 C 136.566 133.523, 139.381 133.345, 140.386 131.750 C 141.191 130.474, 141.191 129.526, 140.387 128.250 C 139.399 126.683, 136.962 126.472, 117.067 126.231 L 94.849 125.961 99.371 120.932 C 108.036 111.295, 110.591 97, 105.893 84.443 C 100.184 69.185, 82.298 59.726, 65.972 63.329 M 63.627 71.468 C 58.302 73.367, 53.047 77.815, 49.618 83.328 C 46.254 88.737, 45.041 98.780, 46.916 105.708 C 49.166 114.024, 58.440 122.810, 66.750 124.498 L 70 125.159 70 97.579 C 70 76.159, 69.721 70.010, 68.750 70.044 C 68.063 70.068, 65.757 70.709, 63.627 71.468 M 78 97.500 L 78 125.135 80.250 124.492 C 89.227 121.927, 97.418 114.223, 99.870 106.038 C 104.456 90.733, 95.730 74.931, 80.250 70.508 L 78 69.865 78 97.500 M 567.403 127.125 C 557.831 136.640, 550 145.134, 550 146 C 550 146.866, 557.831 155.360, 567.403 164.875 C 583.191 180.570, 585 182.070, 586.903 181.052 C 588.056 180.435, 589 179.163, 589 178.227 C 589 177.290, 582.143 169.656, 573.762 161.262 L 558.524 146 573.762 130.738 C 582.143 122.344, 589 114.710, 589 113.773 C 589 112.837, 588.056 111.565, 586.903 110.948 C 585 109.930, 583.191 111.430, 567.403 127.125 M 326.811 127.250 C 325.805 128.050, 325.035 130.840, 324.673 135 C 323.410 149.487, 315.644 164.857, 304.701 174.526 C 295.647 182.526, 279.687 189, 269.022 189 C 265.416 189, 262 190.946, 262 193 C 262 194.314, 264.982 197, 266.440 197 C 267.154 197, 271.734 196.308, 276.619 195.463 C 290.194 193.114, 302.116 186.940, 311.930 177.175 C 316.173 172.954, 321.065 167.025, 322.800 164 L 325.956 158.500 325.978 209.215 C 326 259.419, 326.021 259.941, 328.064 261.034 C 332.996 263.674, 333 263.629, 333 209.723 L 333 159.690 336.903 165.728 C 344.723 177.827, 358.077 188.382, 371.338 192.944 C 379.661 195.808, 393.624 197.557, 395.530 195.975 C 397.309 194.498, 397.434 191.834, 395.800 190.200 C 395.140 189.540, 392.310 189, 389.510 189 C 377.285 189, 363.294 182.898, 352.653 172.926 C 341.245 162.234, 335.555 150.848, 334.022 135.644 C 333.097 126.466, 330.945 123.961, 326.811 127.250 M 423.750 127.080 C 420.600 128.915, 421.879 131.339, 430.640 140.141 L 439.280 148.821 435.689 153.204 C 430.818 159.149, 425.303 171.070, 423.511 179.529 C 416.077 214.627, 437.880 249.475, 473 258.626 C 480.489 260.578, 496.058 260.843, 503.185 259.140 C 511.712 257.103, 519.015 253.878, 526.621 248.790 L 534.136 243.765 543.504 252.952 C 551.837 261.123, 553.100 262.017, 554.936 261.034 C 556.071 260.427, 557 259.149, 557 258.194 C 557 257.239, 553.003 252.480, 548.118 247.617 L 539.236 238.776 544.456 230.977 C 567.188 197.015, 555.073 151.506, 518.500 133.472 C 508.677 128.629, 500.214 126.680, 489 126.680 C 474.252 126.680, 460.432 131.139, 449.741 139.347 C 447.124 141.356, 444.639 143, 444.219 143 C 443.799 143, 439.651 139.175, 435 134.500 C 430.349 129.825, 426.309 126.014, 426.022 126.030 C 425.735 126.047, 424.712 126.519, 423.750 127.080 M 474 135.524 C 466.803 137.500, 457.384 142.150, 453 145.890 L 449.500 148.877 491.466 190.910 L 533.433 232.942 535.787 230.730 C 537.082 229.513, 539.918 224.914, 542.089 220.509 C 551.079 202.268, 551.068 184.709, 542.055 166.423 C 535.478 153.078, 522.927 141.986, 508.723 136.966 C 500.510 134.064, 482.103 133.299, 474 135.524 M 441.015 158.110 C 432.897 169.245, 429.590 179.505, 429.610 193.500 C 429.620 200.848, 430.192 205.356, 431.767 210.500 C 437.243 228.383, 452.020 243.953, 469.277 250.024 C 477.936 253.070, 494.175 253.830, 503.012 251.602 C 510.904 249.613, 520.281 245.137, 525 241.108 L 528.500 238.120 486.358 195.919 L 444.216 153.719 441.015 158.110 M 167.571 191.571 C 166.707 192.436, 166 193.640, 166 194.249 C 166 194.857, 172.844 202.250, 181.208 210.677 L 196.416 226 181.208 241.323 C 172.844 249.750, 166 257.143, 166 257.751 C 166 258.967, 168.736 262, 169.834 262 C 170.213 262, 177.482 255.031, 185.987 246.514 L 201.449 231.027 217.045 246.514 C 225.623 255.031, 233.082 262, 233.621 262 C 235.106 262, 237 259.793, 237 258.062 C 237 257.216, 230.143 249.656, 221.762 241.262 L 206.524 226 221.762 210.738 C 230.143 202.344, 237 194.784, 237 193.938 C 237 192.207, 235.106 190, 233.621 190 C 233.082 190, 225.623 196.969, 217.045 205.486 L 201.449 220.973 185.987 205.486 C 177.482 196.969, 170.213 190, 169.834 190 C 169.454 190, 168.436 190.707, 167.571 191.571 " stroke="none" fill="black" fill-rule="evenodd"/>
</svg>