<svg xmlns="http://www.w3.org/2000/svg" width="276" height="324" viewBox="0 0 276 324" version="1.1">
	<path d="M 72.372 62.765 C 70.418 64.037, 54.003 97.844, 54.593 99.381 C 55.268 101.141, 57.513 102.124, 59.295 101.440 C 60.007 101.167, 63.480 95.106, 67.014 87.972 C 70.547 80.837, 73.691 75, 74 75 C 74.309 75, 77.453 80.837, 80.986 87.972 C 84.520 95.106, 87.993 101.167, 88.705 101.440 C 90.487 102.124, 92.732 101.141, 93.407 99.381 C 93.716 98.575, 90.096 90.173, 85.363 80.708 C 77.638 65.261, 75.672 62.031, 74 62.031 C 73.725 62.031, 72.992 62.361, 72.372 62.765 M 7.627 127.515 C 6.732 128.411, 6 129.529, 6 130 C 6 132.122, 9.426 134.001, 13.321 134.015 C 36.791 134.098, 61.754 154.887, 67.463 179.103 C 69.900 189.442, 69.666 190.712, 65.191 191.468 C 56.883 192.871, 47.344 200.236, 42.726 208.812 C 33.531 225.889, 39.815 247.121, 56.767 256.249 C 78.024 267.696, 103.332 255.423, 108.013 231.396 C 110.034 221.029, 106.250 208.727, 98.651 200.954 C 94.570 196.780, 86.565 192.271, 81.809 191.468 C 77.334 190.712, 77.100 189.442, 79.537 179.103 C 85.323 154.559, 110.127 134.091, 134.179 134.015 C 137.082 134.006, 139.453 133.404, 140.429 132.429 C 142.418 130.439, 142.404 129.547, 140.348 127.491 C 138.458 125.601, 131.095 126.031, 120.500 128.650 C 101.579 133.327, 82.965 149.456, 75.602 167.555 L 73.391 172.989 71.665 168.190 C 67.158 155.655, 52.793 140.098, 39.806 133.687 C 27.724 127.723, 10.687 124.455, 7.627 127.515 M 199.571 127.571 C 198.707 128.436, 198 129.529, 198 130 C 198 130.471, 198.707 131.564, 199.571 132.429 C 200.924 133.781, 204.991 134, 228.810 134 L 256.478 134 195.239 195.269 C 161.558 228.967, 134 257.060, 134 257.698 C 134 259.196, 136.804 262, 138.302 262 C 138.940 262, 167.033 234.442, 200.731 200.761 L 262 139.522 262 167.190 C 262 191.009, 262.219 195.076, 263.571 196.429 C 264.436 197.293, 265.529 198, 266 198 C 266.471 198, 267.564 197.293, 268.429 196.429 C 269.794 195.063, 270 190.503, 270 161.629 C 270 137.117, 269.685 128.085, 268.800 127.200 C 267.915 126.315, 258.883 126, 234.371 126 C 205.497 126, 200.937 126.206, 199.571 127.571 M 63.605 199.568 C 56.049 202.337, 56.073 202.527, 65.170 211.671 L 73.457 220.001 81.692 211.809 C 90.838 202.711, 90.906 202.178, 83.260 199.573 C 77.620 197.651, 68.842 197.649, 63.605 199.568 M 50.184 210.278 C 46.139 215.152, 44.867 227.319, 47.573 235.260 C 50.178 242.906, 50.711 242.838, 59.809 233.692 L 68.001 225.457 59.671 217.170 C 52.854 210.389, 51.131 209.137, 50.184 210.278 M 87.191 217.308 L 78.999 225.543 87.329 233.830 C 96.530 242.983, 96.678 242.998, 99.487 235.038 C 101.439 229.503, 101.415 221.574, 99.427 215.740 C 96.822 208.094, 96.289 208.162, 87.191 217.308 M 65.170 239.329 C 56.017 248.530, 56.002 248.678, 63.962 251.487 C 69.497 253.439, 77.426 253.415, 83.260 251.427 C 90.906 248.822, 90.838 248.289, 81.692 239.191 L 73.457 230.999 65.170 239.329 " stroke="none" fill="black" fill-rule="evenodd"/>
</svg>