<svg xmlns="http://www.w3.org/2000/svg" width="500" height="324" viewBox="0 0 500 324" version="1.1">
	<path d="M 65.384 63.370 C 47.392 67.884, 35.545 85.843, 38.993 103.372 C 40.490 110.981, 43.011 115.971, 48.198 121.599 L 52.255 126 30.699 126 C 12.436 126, 8.903 126.240, 7.571 127.571 C 5.598 129.545, 5.598 130.455, 7.571 132.429 C 8.931 133.788, 13.242 134, 39.571 134 L 70 134 70 164.006 L 70 194.012 54.016 225.967 C 45.225 243.542, 38.285 258.580, 38.594 259.384 C 39.265 261.133, 41.512 262.124, 43.274 261.448 C 43.975 261.180, 51.056 247.919, 59.010 231.980 C 66.964 216.041, 73.710 203, 74 203 C 74.290 203, 81.036 216.041, 88.990 231.980 C 96.944 247.919, 104.083 261.201, 104.853 261.497 C 106.717 262.213, 109 260.217, 109 257.871 C 109 256.835, 102.025 242.043, 93.500 225 L 78 194.012 78 164.021 L 78 134.029 108.641 133.764 C 136.566 133.523, 139.381 133.345, 140.386 131.750 C 141.191 130.474, 141.191 129.526, 140.387 128.250 C 139.399 126.683, 136.962 126.472, 117.067 126.231 L 94.849 125.961 99.371 120.932 C 108.036 111.295, 110.591 97, 105.893 84.443 C 100.147 69.086, 81.423 59.345, 65.384 63.370 M 63.627 71.468 C 58.247 73.386, 53.039 77.829, 49.500 83.519 C 46.741 87.955, 46.500 89.073, 46.500 97.422 C 46.500 105.509, 46.798 107.007, 49.230 111.145 C 53.385 118.213, 59.168 122.498, 67.305 124.541 L 70 125.217 70 97.608 C 70 76.165, 69.721 70.010, 68.750 70.044 C 68.063 70.068, 65.757 70.709, 63.627 71.468 M 78 97.500 L 78 125.135 80.250 124.448 C 85.937 122.711, 89.111 120.889, 92.696 117.304 C 98.750 111.250, 100.500 106.809, 100.500 97.500 C 100.500 88.191, 98.750 83.750, 92.696 77.696 C 89.111 74.111, 85.937 72.289, 80.250 70.552 L 78 69.865 78 97.500 M 194.801 126.991 C 181.192 129.391, 168.784 142.412, 166.514 156.673 C 165.063 165.791, 170.802 186.920, 179.504 204.500 C 189.369 224.430, 205.528 242.670, 224.238 254.997 C 229.250 258.298, 233.684 261, 234.091 261 C 234.497 261, 235.881 260.113, 237.165 259.028 C 238.449 257.943, 243.318 254.267, 247.983 250.859 C 271.847 233.427, 289.549 207.210, 297.158 178.031 C 299.687 168.329, 300.524 157.574, 299.144 152.500 C 296.263 141.913, 286.803 131.807, 276.500 128.311 C 268.971 125.756, 258.484 126.174, 251.655 129.300 C 245.261 132.228, 237.595 138.933, 235.114 143.769 L 233.385 147.139 230.279 142.142 C 223.331 130.965, 208.406 124.591, 194.801 126.991 M 327.750 127.080 C 326.138 128.019, 326 130.762, 326 161.850 C 326 186.767, 326.314 195.914, 327.200 196.800 C 328.081 197.681, 336.578 198, 359.200 198 L 390 198 390 228.965 C 390 259.226, 390.047 259.955, 392.064 261.034 C 397.084 263.721, 397 264.860, 397 194 C 397 123.140, 397.084 124.279, 392.064 126.966 C 390.073 128.031, 390 128.862, 390 150.498 L 390 172.925 385.500 168.552 C 371.787 155.224, 351.636 155.076, 337.401 168.198 L 333 172.255 333 150.327 C 333 126.151, 332.575 124.270, 327.750 127.080 M 191.627 135.468 C 186.258 137.382, 181.040 141.826, 177.525 147.478 C 173.448 154.034, 172.979 162.419, 176.008 174.593 C 183.476 204.612, 201.412 230.756, 226.134 247.659 C 233.759 252.872, 233.088 252.975, 244.070 244.905 C 257.755 234.849, 273.394 216.178, 281.264 200.500 C 287.837 187.405, 293.699 165.114, 292.626 157.291 C 290.803 143.987, 278.947 134.006, 265 134.032 C 250.562 134.059, 239.740 143.976, 237.569 159.168 C 236.757 164.854, 234.911 166.736, 231.620 165.236 C 229.721 164.371, 229.194 163.165, 228.724 158.612 C 227.650 148.210, 220.462 138.931, 210.684 135.326 C 206.327 133.720, 196.323 133.794, 191.627 135.468 M 350.435 167.890 C 344.380 170.641, 338.973 175.862, 336.351 181.493 C 332.102 190.619, 330.279 190, 361.419 190 L 388.839 190 387.809 186.250 C 387.243 184.188, 386.191 181.375, 385.472 180 C 383.403 176.043, 376.906 170.293, 372 168.077 C 366.114 165.418, 356.069 165.331, 350.435 167.890 M 447 203.642 C 437.428 205.439, 432.928 209.438, 432.302 216.703 C 431.503 225.973, 436.238 229.942, 452.959 234.020 C 463.279 236.537, 467 239.055, 467 243.520 C 467 249.736, 462.007 253, 452.500 253 C 445.600 253, 440.698 251.033, 438.380 247.334 C 437.404 245.775, 436.501 244.345, 436.374 244.155 C 436.247 243.965, 434.761 244.113, 433.072 244.484 C 429.060 245.365, 429.067 247.868, 433.094 252.454 C 438.200 258.269, 451.943 260.809, 462.477 257.885 C 467.654 256.447, 473.961 250.206, 474.115 246.368 C 474.569 235.071, 471.536 231.724, 457.478 228.012 C 444.113 224.483, 441.330 223.212, 440.013 220.032 C 439.063 217.739, 439.096 216.572, 440.171 214.325 C 443.532 207.304, 459.917 207.366, 464.537 214.416 C 466.239 217.014, 469.304 217.727, 471.844 216.117 C 474.511 214.427, 469.233 207.180, 463.841 205.130 C 460.603 203.899, 450.424 203, 447 203.642 " stroke="none" fill="black" fill-rule="evenodd"/>
</svg>