<svg xmlns="http://www.w3.org/2000/svg" width="340" height="324" viewBox="0 0 340 324" version="1.1">
	<path d="M 7.571 127.571 C 6.175 128.968, 6 136.372, 6 194 C 6 251.628, 6.175 259.032, 7.571 260.429 C 8.436 261.293, 9.666 262, 10.305 262 C 12.018 262, 78 195.721, 78 194 C 78 192.279, 12.018 126, 10.305 126 C 9.666 126, 8.436 126.707, 7.571 127.571 M 159.500 127.042 C 125.651 132.191, 99.664 164.373, 102.466 197.673 C 103.642 211.653, 108.973 225.700, 116.440 234.500 L 119.835 238.500 110.917 247.615 C 106.013 252.629, 102 257.209, 102 257.794 C 102 259.169, 104.831 262, 106.206 262 C 106.791 262, 111.371 257.995, 116.385 253.101 L 125.500 244.202 129.933 247.637 C 135.930 252.285, 145.570 256.762, 153.200 258.443 C 165.272 261.102, 170.170 261.678, 173.823 260.869 C 175.845 260.421, 180.425 259.509, 184 258.843 C 201.563 255.573, 220.610 240.762, 228.824 223.988 C 234.346 212.711, 236 205.683, 236 193.500 C 236 178.394, 231.853 165.379, 223.349 153.794 L 219.707 148.833 228.354 140.147 C 237.033 131.427, 238.225 129.262, 235.564 127.053 C 233.535 125.369, 231.801 126.545, 222.620 135.833 L 214.741 143.805 208.839 139.460 C 194.770 129.103, 176.379 124.474, 159.500 127.042 M 327.750 127.080 C 326.111 128.035, 326 132.293, 326 194.015 C 326 259.587, 326.011 259.935, 328.064 261.034 C 333.084 263.721, 333 264.854, 333 194.078 C 333 123.068, 333.071 123.981, 327.750 127.080 M 153.500 135.870 C 133.340 141.673, 116.720 158.620, 111.487 178.711 C 109.578 186.039, 109.578 200.961, 111.487 208.289 C 113.195 214.845, 118.720 226.105, 122.385 230.500 L 124.887 233.500 145.444 213.009 L 166 192.518 166 163.259 L 166 134 162.750 134.071 C 160.963 134.110, 156.800 134.920, 153.500 135.870 M 174 159.246 L 174 184.493 191.750 166.738 L 209.500 148.982 206.500 146.479 C 200.021 141.074, 182.422 134, 175.451 134 C 174.221 134, 174 137.853, 174 159.246 M 14 194 L 14 248.495 41.248 221.248 L 68.495 194 41.248 166.752 L 14 139.505 14 194 M 193.750 175.436 L 174 195.829 174 224.414 C 174 248.726, 174.217 253, 175.451 253 C 179.724 253, 188.461 250.361, 195.820 246.847 C 220.843 234.900, 234.032 205.996, 227.003 178.511 C 224.617 169.182, 216.980 154.959, 214.390 155.022 C 213.900 155.034, 204.613 164.220, 193.750 175.436 M 271.230 199.269 C 266.154 204.367, 262 209.301, 262 210.234 C 262 211.166, 262.954 212.440, 264.120 213.064 C 266.004 214.073, 266.896 213.550, 272.120 208.381 L 278 202.563 278 228.281 L 278 254 271.934 254 C 265.019 254, 262 255.216, 262 258 C 262 261.473, 265.211 262.061, 282.622 261.774 C 297.221 261.534, 299.421 261.283, 300.387 259.750 C 301.189 258.477, 301.190 257.523, 300.390 256.250 C 299.542 254.901, 297.647 254.433, 292.109 254.205 L 284.927 253.911 285.044 222.814 C 285.190 183.906, 285.686 184.753, 271.230 199.269 M 148 221.525 L 130.500 239.073 133 241.046 C 138.269 245.205, 150.952 250.810, 157.903 252.052 C 161.813 252.751, 165.242 253.092, 165.524 252.810 C 165.806 252.528, 165.916 241.425, 165.768 228.137 L 165.500 203.977 148 221.525 " stroke="none" fill="black" fill-rule="evenodd"/>
</svg>