<svg xmlns="http://www.w3.org/2000/svg" width="292" height="324" viewBox="0 0 292 324" version="1.1">
	<path d="M 151.627 127.515 C 150.732 128.411, 150 129.529, 150 130 C 150 132.054, 153.416 134, 157.022 134 C 163.669 134, 171.178 136.026, 179.820 140.153 C 195.079 147.438, 206.717 161.754, 211.003 178.511 C 213.659 188.896, 213.616 191, 210.750 191.001 C 207.066 191.002, 196.565 196.502, 192.516 200.551 C 190.441 202.625, 187.347 207.288, 185.639 210.911 C 182.975 216.567, 182.535 218.633, 182.535 225.500 C 182.535 232.367, 182.975 234.433, 185.639 240.089 C 189.568 248.426, 194.576 253.439, 202.841 257.306 C 211.287 261.259, 221.389 261.542, 230.297 258.077 C 237.364 255.327, 245.582 247.621, 249.040 240.500 C 251.923 234.565, 252.919 222.059, 251.023 215.598 C 247.908 204.979, 238.223 195.243, 227.776 192.228 L 221.788 190.500 222.369 184.838 C 223.093 177.793, 226.806 167.766, 231.270 160.803 C 240.919 145.752, 261.321 134.069, 278.050 134.015 C 282.831 133.999, 285 132.722, 285 129.922 C 285 126.353, 282.589 125.734, 273.439 126.951 C 258.046 129, 245.635 134.834, 235.014 145.015 C 228.487 151.271, 221.731 161.173, 219.278 168.079 L 217.619 172.752 213.394 164.126 C 202.992 142.891, 183.378 129.367, 158.877 126.537 C 154.402 126.020, 152.923 126.220, 151.627 127.515 M 7.571 159.571 C 6.707 160.436, 6 161.640, 6 162.249 C 6 162.857, 12.844 170.250, 21.208 178.677 L 36.416 194 21.208 209.323 C 12.844 217.750, 6 225.143, 6 225.751 C 6 227.200, 8.827 230, 10.290 230 C 11.969 230, 46 195.693, 46 194 C 46 192.307, 11.969 158, 10.290 158 C 9.659 158, 8.436 158.707, 7.571 159.571 M 55.750 159.080 C 54.138 160.019, 54 162.769, 54 194.015 C 54 226.522, 54.080 227.973, 55.934 228.965 C 57.154 229.617, 69.876 230, 90.363 230 C 118.570 230, 123.064 229.793, 124.429 228.429 C 125.793 227.064, 126 222.537, 126 194 C 126 165.463, 125.793 160.936, 124.429 159.571 C 123.063 158.206, 118.580 158.004, 90.179 158.030 C 69.849 158.049, 56.839 158.446, 55.750 159.080 M 62 194 L 62 222 90 222 L 118 222 118 194 L 118 166 90 166 L 62 166 62 194 M 207.603 199.477 C 199.527 202.355, 199.593 203.078, 208.772 212.257 L 217 220.485 225.698 211.788 L 234.395 203.091 228.947 200.555 C 222.680 197.638, 213.994 197.199, 207.603 199.477 M 194.192 210.269 C 189.752 215.619, 188.575 229.264, 191.918 236.627 C 192.948 238.896, 194.209 241.011, 194.718 241.326 C 195.228 241.641, 199.325 238.199, 203.823 233.678 L 212.001 225.457 203.671 217.170 C 196.884 210.419, 195.128 209.140, 194.192 210.269 M 230.727 216.772 C 226.477 221.047, 223 224.995, 223 225.546 C 223 226.667, 238.144 242, 239.252 242 C 239.641 242, 240.973 240.088, 242.212 237.750 C 244.008 234.363, 244.465 231.875, 244.465 225.500 C 244.465 219.125, 244.008 216.637, 242.212 213.250 C 240.973 210.912, 239.620 209, 239.206 209 C 238.792 209, 234.976 212.497, 230.727 216.772 M 208.477 239.059 L 200.500 247.118 202.830 249.034 C 208.486 253.685, 220.578 254.341, 228.937 250.449 L 234.375 247.918 225.959 239.459 C 221.331 234.807, 217.299 231, 216.999 231 C 216.699 231, 212.864 234.627, 208.477 239.059 " stroke="none" fill="black" fill-rule="evenodd"/>
</svg>