<svg xmlns="http://www.w3.org/2000/svg" width="500" height="324" viewBox="0 0 500 324" version="1.1">
	<path d="M 39.571 127.571 C 38.176 128.966, 38 136.152, 38 191.571 L 38 254 23.571 254 C 11.788 254, 8.855 254.288, 7.571 255.571 C 5.598 257.545, 5.598 258.455, 7.571 260.429 C 8.936 261.793, 13.463 262, 42 262 C 70.537 262, 75.064 261.793, 76.429 260.429 C 77.293 259.564, 78 258.471, 78 258 C 78 257.529, 77.293 256.436, 76.429 255.571 C 75.145 254.288, 72.212 254, 60.429 254 L 46 254 46 191.571 C 46 136.152, 45.824 128.966, 44.429 127.571 C 43.564 126.707, 42.471 126, 42 126 C 41.529 126, 40.436 126.707, 39.571 127.571 M 103.571 127.571 C 102.175 128.968, 102 136.406, 102 194.371 C 102 243.771, 102.291 259.891, 103.200 260.800 C 104.607 262.207, 233.589 262.547, 235.792 261.150 C 236.827 260.493, 237.071 247.248, 237.021 194.431 C 236.955 123.627, 237.005 124.321, 232.117 126.938 L 230 128.070 230 191.035 L 230 254 170 254 L 110 254 110 191.571 C 110 136.152, 109.824 128.966, 108.429 127.571 C 107.564 126.707, 106.471 126, 106 126 C 105.529 126, 104.436 126.707, 103.571 127.571 M 263.200 127.200 C 262.540 127.860, 262 129.095, 262 129.944 C 262 130.793, 276.060 145.553, 293.244 162.744 L 324.488 194 293.244 225.256 C 276.060 242.447, 262 257.207, 262 258.056 C 262 261.835, 263.489 262, 297.578 262 C 324.403 262, 330.972 261.738, 331.889 260.634 C 333.503 258.689, 333.503 129.311, 331.889 127.366 C 330.336 125.496, 265.062 125.338, 263.200 127.200 M 423.750 127.080 C 422.114 128.033, 422 132.044, 422 188.786 L 422 249.473 408.131 235.631 C 395.495 223.019, 394.073 221.890, 392.131 222.930 C 390.959 223.557, 390 224.836, 390 225.772 C 390 226.708, 395.956 233.442, 403.236 240.737 L 416.472 254 389.170 254 C 372.263 254, 361.132 254.394, 359.934 255.035 C 357.440 256.370, 357.448 259.634, 359.948 260.972 C 361.256 261.672, 383.132 261.930, 426.589 261.757 C 486.951 261.517, 491.356 261.383, 492.386 259.750 C 493.191 258.474, 493.191 257.526, 492.387 256.250 C 491.392 254.671, 488.530 254.451, 463.126 254 L 434.968 253.500 447.984 240.514 C 455.143 233.372, 461 226.825, 461 225.964 C 461 224.216, 459.116 222, 457.630 222 C 457.097 222, 450.437 228.167, 442.830 235.704 L 429 249.408 429 188.904 C 429 123.446, 429.047 123.995, 423.750 127.080 M 300 159.500 C 314.017 173.525, 325.601 185, 325.743 185 C 325.884 185, 326 173.525, 326 159.500 L 326 134 300.257 134 L 274.515 134 300 159.500 M 162.355 158.986 C 151.790 161.214, 142.114 169.146, 137.329 179.500 C 133.350 188.111, 133.383 198.888, 137.417 207.734 C 140.868 215.303, 147.786 222.097, 155.762 225.749 C 163.369 229.231, 173.855 229.361, 182.297 226.077 C 189.354 223.331, 197.569 215.634, 201.056 208.500 C 203.152 204.212, 203.500 202.075, 203.500 193.500 C 203.500 181.367, 201.450 176.286, 193.353 168.339 C 185.361 160.497, 172.948 156.752, 162.355 158.986 M 159.627 167.468 C 154.247 169.386, 149.039 173.829, 145.500 179.519 C 141.527 185.908, 140.712 197.311, 143.741 204.129 C 148.446 214.717, 156.286 220.123, 167.883 220.774 C 174.995 221.173, 175.931 220.978, 182 217.830 C 192.444 212.411, 197.773 202.629, 196.713 190.821 C 195.772 180.346, 188.582 170.975, 178.684 167.326 C 174.327 165.720, 164.323 165.794, 159.627 167.468 M 167.616 191.527 C 166.727 192.416, 166 193.529, 166 194 C 166 195.389, 169.140 198.120, 170.295 197.735 C 172.395 197.035, 173.549 194.094, 172.423 192.310 C 170.905 189.902, 169.474 189.669, 167.616 191.527 M 300 228.500 L 274.515 254 300.257 254 L 326 254 326 228.500 C 326 214.475, 325.884 203, 325.743 203 C 325.601 203, 314.017 214.475, 300 228.500 " stroke="none" fill="black" fill-rule="evenodd"/>
</svg>