<svg xmlns="http://www.w3.org/2000/svg" width="340" height="324" viewBox="0 0 340 324" version="1.1">
	<path d="M 151.200 63.200 C 149.512 64.888, 149.512 99.112, 151.200 100.800 C 152.040 101.640, 157.562 102, 169.629 102 C 183.958 102, 187.122 101.736, 188.429 100.429 C 190.757 98.100, 190.757 65.900, 188.429 63.571 C 187.122 62.264, 183.958 62, 169.629 62 C 157.562 62, 152.040 62.360, 151.200 63.200 M 158 82 L 158 94 170 94 L 182 94 182 82 L 182 70 170 70 L 158 70 158 82 M 34.223 127.062 C 24.042 129.068, 13.991 137.416, 9.220 147.825 C 5.421 156.112, 5.463 167.153, 9.325 175.500 C 10.852 178.800, 13.991 183.465, 16.301 185.866 C 20.569 190.304, 30.823 195.998, 34.550 195.999 C 37.165 196, 38.997 197.829, 39.010 200.450 C 39.027 204.086, 43.997 213.379, 48.307 217.834 C 52.898 222.580, 59.914 226.598, 65.715 227.803 C 69.165 228.520, 69.590 229.012, 71.525 234.538 C 74.475 242.964, 76.235 245.914, 81.170 250.699 C 87.864 257.191, 95.864 260.440, 105 260.378 C 123.547 260.251, 137.929 247.549, 140.270 229.229 C 140.795 225.115, 139.386 222, 137 222 C 135.084 222, 133 225.341, 133 228.412 C 133 233.216, 127.521 243.420, 123.031 246.976 C 109.261 257.882, 89.272 253.663, 81.271 238.163 C 76.975 229.839, 77.033 228.404, 81.703 227.528 C 93.474 225.320, 103.929 214.914, 107.355 202 C 108.157 198.975, 109.106 195.771, 109.464 194.879 C 109.841 193.940, 109.398 192.541, 108.412 191.555 C 104.632 187.775, 89.803 192.453, 81.602 200.013 C 76.792 204.446, 71 214.677, 71 218.739 C 71 220.946, 70.714 221.097, 67.750 220.459 C 59.404 218.662, 52.969 213.626, 49.085 205.854 C 45.010 197.700, 45.089 196.394, 49.703 195.528 C 61.474 193.320, 71.929 182.914, 75.355 170 C 76.157 166.975, 77.106 163.771, 77.464 162.879 C 77.841 161.940, 77.398 160.541, 76.412 159.555 C 72.632 155.775, 57.803 160.453, 49.602 168.013 C 44.792 172.446, 39 182.677, 39 186.739 C 39 188.946, 38.714 189.097, 35.750 188.459 C 23.443 185.809, 14 174.329, 14 162.018 C 14 153.772, 16.539 147.366, 21.952 141.952 C 26.802 137.103, 33.690 134, 39.607 134 C 42.663 134, 46 131.912, 46 130 C 46 128.324, 42.823 126.002, 40.679 126.110 C 39.480 126.170, 36.575 126.598, 34.223 127.062 M 167.571 127.571 C 166.175 128.968, 166 136.372, 166 194 C 166 251.628, 166.175 259.032, 167.571 260.429 C 169.589 262.446, 170.322 262.406, 172.345 260.171 C 173.849 258.509, 174 252.456, 174 193.826 C 174 132.594, 173.907 129.226, 172.171 127.655 C 169.915 125.613, 169.537 125.606, 167.571 127.571 M 199.571 127.571 C 198.175 128.968, 198 136.372, 198 194 C 198 251.628, 198.175 259.032, 199.571 260.429 C 201.678 262.535, 202.598 262.412, 204.443 259.777 C 205.813 257.823, 206 249.904, 206 194 C 206 138.096, 205.813 130.177, 204.443 128.223 C 202.598 125.588, 201.678 125.465, 199.571 127.571 M 327.750 127.080 C 326.111 128.035, 326 132.293, 326 194.015 C 326 259.587, 326.011 259.935, 328.064 261.034 C 333.084 263.721, 333 264.854, 333 194.078 C 333 123.068, 333.071 123.981, 327.750 127.080 M 263.750 159.080 C 262.207 159.979, 262 161.866, 262 175.050 L 262 190 247.571 190 C 235.788 190, 232.855 190.288, 231.571 191.571 C 229.598 193.545, 229.598 194.455, 231.571 196.429 C 232.855 197.712, 235.788 198, 247.571 198 L 262 198 262 212.965 C 262 227.061, 262.120 227.994, 264.064 229.034 C 268.315 231.309, 269 229.069, 269 212.904 L 269 198.052 284.142 197.776 C 297.291 197.536, 299.430 197.270, 300.387 195.750 C 301.191 194.475, 301.191 193.525, 300.387 192.250 C 299.430 190.730, 297.291 190.464, 284.142 190.224 L 269 189.948 269 175.174 C 269 158.586, 268.297 156.432, 263.750 159.080 M 63.054 167.728 C 57.022 169.857, 49.781 177.261, 47.670 183.455 C 46.755 186.141, 46.153 188.487, 46.333 188.667 C 46.513 188.847, 48.766 188.277, 51.338 187.400 C 58.812 184.854, 65.809 177.026, 68.456 168.250 C 69.241 165.649, 69.005 165.626, 63.054 167.728 M 95.054 199.728 C 89.022 201.857, 81.781 209.261, 79.670 215.455 C 78.755 218.141, 78.159 220.493, 78.347 220.680 C 79.159 221.493, 87.496 217.775, 90.891 215.086 C 94.389 212.316, 98.940 205.255, 100.454 200.250 C 101.241 197.649, 101.006 197.626, 95.054 199.728 " stroke="none" fill="black" fill-rule="evenodd"/>
</svg>