<svg xmlns="http://www.w3.org/2000/svg" width="244" height="324" viewBox="0 0 244 324" version="1.1">
	<path d="M 23.200 63.200 C 21.512 64.888, 21.512 99.112, 23.200 100.800 C 24.040 101.640, 29.562 102, 41.629 102 C 55.958 102, 59.122 101.736, 60.429 100.429 C 62.757 98.100, 62.757 65.900, 60.429 63.571 C 59.122 62.264, 55.958 62, 41.629 62 C 29.562 62, 24.040 62.360, 23.200 63.200 M 30 82 L 30 94 42 94 L 54 94 54 82 L 54 70 42 70 L 30 70 30 82 M 7.571 127.571 C 6.707 128.436, 6 129.529, 6 130 C 6 130.471, 6.707 131.564, 7.571 132.429 C 8.855 133.712, 11.788 134, 23.571 134 L 38 134 38 162 L 38 190 23.571 190 C 11.788 190, 8.855 190.288, 7.571 191.571 C 5.598 193.545, 5.598 194.455, 7.571 196.429 C 8.855 197.712, 11.788 198, 23.571 198 L 38 198 38 226 L 38 254 23.571 254 C 11.788 254, 8.855 254.288, 7.571 255.571 C 5.598 257.545, 5.598 258.455, 7.571 260.429 C 8.936 261.793, 13.463 262, 42 262 C 70.537 262, 75.064 261.793, 76.429 260.429 C 78.402 258.455, 78.402 257.545, 76.429 255.571 C 75.145 254.288, 72.212 254, 60.429 254 L 46 254 46 226 L 46 198 60.429 198 C 72.212 198, 75.145 197.712, 76.429 196.429 C 78.402 194.455, 78.402 193.545, 76.429 191.571 C 75.145 190.288, 72.212 190, 60.429 190 L 46 190 46 162 L 46 134 60.429 134 C 72.212 134, 75.145 133.712, 76.429 132.429 C 77.293 131.564, 78 130.471, 78 130 C 78 129.529, 77.293 128.436, 76.429 127.571 C 75.064 126.207, 70.537 126, 42 126 C 13.463 126, 8.936 126.207, 7.571 127.571 M 103.571 127.571 C 102.175 128.968, 102 136.372, 102 194 C 102 251.628, 102.175 259.032, 103.571 260.429 C 104.436 261.293, 105.529 262, 106 262 C 106.471 262, 107.564 261.293, 108.429 260.429 C 109.825 259.032, 110 251.628, 110 194 C 110 136.372, 109.825 128.968, 108.429 127.571 C 107.564 126.707, 106.471 126, 106 126 C 105.529 126, 104.436 126.707, 103.571 127.571 M 167.285 159.230 C 148.978 177.506, 134 193.166, 134 194.030 C 134 197.785, 135.649 198, 164.427 198 L 192.455 198 163.227 227.289 C 147.152 243.398, 134 257.091, 134 257.718 C 134 259.201, 136.814 262, 138.305 262 C 139.823 262, 206 195.823, 206 194.305 C 206 193.666, 205.293 192.436, 204.429 191.571 C 203.076 190.219, 199.010 190, 175.202 190 L 147.546 190 176.273 161.210 C 194.834 142.609, 205 131.709, 205 130.410 C 205 128.260, 203.250 126, 201.585 126 C 201.026 126, 185.591 140.953, 167.285 159.230 M 231.750 127.080 C 230.111 128.035, 230 132.293, 230 194.015 C 230 259.587, 230.011 259.935, 232.064 261.034 C 237.084 263.721, 237 264.854, 237 194.078 C 237 123.068, 237.071 123.981, 231.750 127.080 " stroke="none" fill="black" fill-rule="evenodd"/>
</svg>