<svg xmlns="http://www.w3.org/2000/svg" width="340" height="324" viewBox="0 0 340 324" version="1.1">
	<path d="M 23.282 111.282 L 6 128.563 6 193.710 C 6 251.601, 6.175 259.032, 7.571 260.429 C 8.936 261.793, 13.463 262, 42 262 C 70.537 262, 75.064 261.793, 76.429 260.429 C 77.825 259.032, 78 251.601, 78 193.710 L 78 128.563 60.718 111.282 C 51.213 101.777, 42.790 94, 42 94 C 41.210 94, 32.787 101.777, 23.282 111.282 M 27.737 117.763 L 14 131.526 14 192.763 L 14 254 42 254 L 70 254 70 192.737 L 70 131.473 56.237 117.737 C 48.667 110.181, 42.249 104, 41.974 104 C 41.698 104, 35.292 110.193, 27.737 117.763 M 103.571 127.571 C 101.644 129.499, 101.600 130.470, 103.364 132.179 C 104.114 132.905, 117.389 139.794, 132.864 147.486 C 148.339 155.178, 161 161.709, 161 162 C 161 162.290, 147.959 169.036, 132.020 176.990 C 116.081 184.944, 102.820 192.025, 102.552 192.726 C 101.875 194.488, 102.867 196.735, 104.616 197.406 C 105.420 197.715, 119.561 191.223, 136.039 182.980 L 166 167.994 166 181.425 C 166 192.303, 166.299 195.156, 167.571 196.429 C 169.678 198.535, 170.598 198.412, 172.443 195.777 C 173.655 194.047, 174 190.723, 174 180.774 L 174 167.994 204.090 183.045 C 228.613 195.312, 234.449 197.872, 235.638 196.886 C 236.440 196.220, 236.962 194.736, 236.798 193.588 C 236.564 191.945, 230.377 188.412, 207.751 177 C 191.939 169.025, 179.002 162.275, 179.002 162 C 179.002 161.725, 191.939 154.975, 207.751 147 C 230.377 135.588, 236.564 132.055, 236.798 130.412 C 236.962 129.264, 236.440 127.780, 235.638 127.115 C 234.449 126.128, 228.247 128.871, 202.090 141.955 L 170 158.006 138.006 142.003 C 120.409 133.201, 105.817 126, 105.577 126 C 105.338 126, 104.436 126.707, 103.571 127.571 M 295.285 159.230 C 276.978 177.506, 262 193.166, 262 194.030 C 262 197.785, 263.648 198, 292.444 198 L 320.487 198 291.244 227.256 C 275.160 243.347, 262 257.281, 262 258.221 C 262 259.755, 265.636 262.650, 266.534 261.831 C 271.729 257.094, 334 194.352, 334 193.856 C 334 193.464, 333.293 192.436, 332.429 191.571 C 331.074 190.217, 326.963 190, 302.685 190 L 274.513 190 303.756 160.744 C 319.840 144.653, 333 130.793, 333 129.944 C 333 128.191, 331.103 126, 329.585 126 C 329.026 126, 313.591 140.953, 295.285 159.230 " stroke="none" fill="black" fill-rule="evenodd"/>
</svg>