<svg xmlns="http://www.w3.org/2000/svg" width="676" height="324" viewBox="0 0 676 324" version="1.1">
	<path d="M 64.500 127.002 C 56.529 128.200, 51.031 129.943, 43 133.814 C 32.442 138.905, 18.925 152.405, 13.780 163 C 6.893 177.182, 6.744 178.323, 6.267 220.597 C 5.879 255.050, 5.996 258.853, 7.490 260.347 C 8.993 261.850, 15.020 262, 74 262 C 131.628 262, 139.032 261.825, 140.429 260.429 C 141.791 259.066, 142 254.623, 142 226.943 C 142 209.390, 141.576 193.110, 141.058 190.764 C 140.540 188.419, 139.602 183.575, 138.973 180 C 133.107 146.670, 98.322 121.915, 64.500 127.002 M 227 126.894 C 220.962 128.183, 214.319 131.665, 209.601 136.014 C 204.978 140.275, 199.013 150.612, 198.985 154.410 C 198.961 157.625, 197.845 158.649, 193.500 159.440 C 183.871 161.193, 173.986 169.481, 169.189 179.825 C 165.440 187.907, 165.440 199.093, 169.189 207.175 C 176.145 222.173, 192.486 231.176, 207.135 228.082 C 229.666 223.323, 241.892 201.619, 233.934 180.507 C 230.872 172.385, 222.684 164.148, 214.705 161.163 C 211.526 159.973, 208.217 159, 207.351 159 C 205.178 159, 206.340 152.893, 209.573 147.324 C 214.506 138.827, 223.502 133.934, 233.928 134.076 C 244.743 134.224, 253.056 139.422, 257.864 149.043 C 261.444 156.208, 261.753 160.289, 259.519 170.910 C 252.892 202.415, 233.277 231.267, 206.690 248.619 C 197.910 254.349, 196.739 255.643, 198.074 258.138 C 199.692 261.162, 202.348 260.348, 212.053 253.857 C 238.040 236.474, 257.529 208.495, 265.587 177 C 270.419 158.111, 268.379 147.219, 258.080 136.920 C 250.028 128.868, 237.176 124.722, 227 126.894 M 359.200 127.200 C 358.292 128.108, 358 143.689, 358 191.200 L 358 254 327.571 254 C 301.242 254, 296.931 254.212, 295.571 255.571 C 293.596 257.546, 293.598 258.455, 295.579 260.436 C 296.990 261.847, 304.058 261.987, 362.220 261.757 C 422.934 261.517, 427.356 261.383, 428.386 259.750 C 429.191 258.474, 429.191 257.526, 428.386 256.250 C 427.381 254.655, 424.566 254.477, 396.641 254.236 L 366 253.971 366 225.986 L 366 198 396.429 198 C 422.758 198, 427.069 197.788, 428.429 196.429 C 429.793 195.064, 430 190.537, 430 162 C 430 133.463, 429.793 128.936, 428.429 127.571 C 427.063 126.206, 422.503 126, 393.629 126 C 369.117 126, 360.085 126.315, 359.200 127.200 M 58.645 135.584 C 42.733 139.436, 27.402 151.975, 20.235 167 C 18.005 171.675, 15.690 177.885, 15.090 180.799 C 14.429 184.014, 14 199.452, 14 220.049 L 14 254 74.114 254 L 134.228 254 133.742 219.750 C 133.351 192.223, 132.933 184.322, 131.613 179.500 C 126.762 161.781, 115.254 147.485, 100 140.225 C 95.325 138, 89.115 135.690, 86.201 135.090 C 79.038 133.617, 65.791 133.854, 58.645 135.584 M 366 162 L 366 190 394 190 L 422 190 422 162 L 422 134 394 134 L 366 134 366 162 M 191.463 167.591 C 185.971 169.541, 180.552 174.205, 177.249 179.824 C 174.800 183.989, 174.500 185.483, 174.500 193.500 C 174.500 201.517, 174.800 203.011, 177.249 207.176 C 185.926 221.937, 205.604 225.610, 219.031 214.976 C 224.751 210.445, 229 201.292, 229 193.500 C 229 182.038, 221.486 171.200, 210.965 167.488 C 205.740 165.644, 196.813 165.692, 191.463 167.591 M 464 230.996 L 464 258.183 478.832 257.842 C 493.324 257.508, 493.775 257.431, 498.555 254.474 C 504.798 250.611, 508.806 244.215, 510.211 235.871 C 512.425 222.719, 507.570 212.026, 497.181 207.172 C 492.072 204.785, 490.116 204.483, 477.750 204.163 L 464 203.808 464 230.996 M 528 231 L 528 258 549.500 258 L 571 258 571 255 L 571 252 553.500 252 L 536 252 536 242.500 L 536 233 551.500 233 L 567 233 567 230 L 567 227 551.500 227 L 536 227 536 218.500 L 536 210 552.500 210 L 569 210 569 207 L 569 204 548.500 204 L 528 204 528 231 M 592.006 223.250 C 592.009 233.838, 592.454 244.095, 592.996 246.044 C 595.028 253.360, 603.842 259.004, 613.218 258.994 C 620.578 258.987, 625.448 257.423, 629.676 253.711 C 635.550 248.554, 636 246.442, 636 224.032 L 636 204 632.500 204 L 629 204 628.998 222.750 C 628.997 238.625, 628.729 242.026, 627.248 244.929 C 622.275 254.682, 608.150 255.643, 601.571 246.677 C 599.673 244.090, 599.470 242.192, 599.146 223.927 L 598.791 204 595.396 204 L 592 204 592.006 223.250 M 472 231.119 L 472 252.239 481.287 251.832 C 488.702 251.508, 491.309 250.972, 494.217 249.175 C 499.103 246.155, 503.002 238.329, 502.994 231.554 C 502.978 216.461, 495.653 210, 478.557 210 L 472 210 472 231.119 " stroke="none" fill="black" fill-rule="evenodd"/>
</svg>