<svg xmlns="http://www.w3.org/2000/svg" width="388" height="324" viewBox="0 0 388 324" version="1.1">
	<path d="M 71.200 127.200 C 70.292 128.108, 70 143.689, 70 191.200 L 70 254 39.571 254 C 13.242 254, 8.931 254.212, 7.571 255.571 C 5.598 257.545, 5.598 258.455, 7.571 260.429 C 8.968 261.825, 16.372 262, 74 262 C 131.628 262, 139.032 261.825, 140.429 260.429 C 142.402 258.455, 142.402 257.545, 140.429 255.571 C 139.069 254.212, 134.758 254, 108.429 254 L 78 254 78 226 L 78 198 108.429 198 C 134.758 198, 139.069 197.788, 140.429 196.429 C 141.793 195.064, 142 190.537, 142 162 C 142 133.463, 141.793 128.936, 140.429 127.571 C 139.063 126.206, 134.503 126, 105.629 126 C 81.117 126, 72.085 126.315, 71.200 127.200 M 78 162 L 78 190 106 190 L 134 190 134 162 L 134 134 106 134 L 78 134 78 162 M 172 207 L 172 210 181 210 L 190 210 190 234.060 L 190 258.121 193.750 257.810 L 197.500 257.500 197.768 233.750 L 198.036 210 207.018 210 L 216 210 216 207 L 216 204 194 204 L 172 204 172 207 M 240 231 L 240 258 244 258 L 248 258 248 245.500 L 248 233 262 233 L 276 233 276 245.500 L 276 258 280 258 L 284 258 284 231 L 284 204 280 204 L 276 204 276 215.500 L 276 227 262 227 L 248 227 248 215.500 L 248 204 244 204 L 240 204 240 231 M 319.661 204.750 C 319.289 205.359, 299.949 252.365, 298.266 256.750 C 297.932 257.620, 298.987 258, 301.739 258 L 305.692 258 308.718 250.250 L 311.745 242.500 324 242.500 L 336.255 242.500 339.282 250.250 L 342.308 258 346.261 258 C 349.022 258, 350.064 257.623, 349.716 256.750 C 349.443 256.063, 344.586 243.912, 338.924 229.750 L 328.629 204 324.373 204 C 322.033 204, 319.912 204.338, 319.661 204.750 M 323.024 213.503 C 322.412 215.151, 320.301 220.683, 318.334 225.796 C 316.367 230.908, 314.980 235.313, 315.252 235.585 C 315.523 235.856, 319.740 235.948, 324.623 235.789 L 333.500 235.500 328.819 223.003 C 324.286 210.900, 324.103 210.601, 323.024 213.503 " stroke="none" fill="black" fill-rule="evenodd"/>
</svg>