<svg xmlns="http://www.w3.org/2000/svg" width="340" height="324" viewBox="0 0 340 324" version="1.1">
	<path d="M 88.372 126.765 C 87.752 127.169, 83.812 134.363, 79.616 142.750 L 71.987 158 56.565 158 C 43.878 158, 40.864 158.279, 39.571 159.571 C 37.598 161.545, 37.598 162.455, 39.571 164.429 C 40.844 165.701, 43.697 166, 54.575 166 L 68.007 166 54 194 L 39.993 222 24.568 222 C 11.878 222, 8.864 222.279, 7.571 223.571 C 5.598 225.545, 5.598 226.455, 7.571 228.429 C 8.844 229.701, 11.698 230, 22.578 230 L 36.013 230 29.022 243.957 C 25.176 251.633, 22.283 258.574, 22.592 259.380 C 23.265 261.133, 25.511 262.125, 27.275 261.448 C 27.977 261.179, 32.025 253.993, 36.271 245.479 L 43.992 230 72.003 230 L 100.013 230 93.022 243.957 C 89.176 251.633, 86.283 258.574, 86.592 259.380 C 87.265 261.133, 89.511 262.125, 91.275 261.448 C 91.977 261.179, 96.025 253.993, 100.271 245.479 L 107.992 230 123.341 230 C 137.420 230, 138.840 229.835, 140.500 228 C 142.247 226.070, 142.247 225.930, 140.500 224 C 138.862 222.190, 137.420 222, 125.342 222 L 111.993 222 125.987 194.025 L 139.981 166.051 155.633 165.775 C 169.268 165.535, 171.427 165.274, 172.387 163.750 C 173.190 162.475, 173.191 161.525, 172.388 160.250 C 171.441 158.747, 169.361 158.461, 157.650 158.222 L 144.014 157.944 150.507 144.986 C 154.078 137.859, 157 131.177, 157 130.137 C 157 127.783, 154.720 125.787, 152.851 126.504 C 152.080 126.799, 147.975 134.007, 143.729 142.521 L 136.008 158 107.997 158 L 79.987 158 86.993 144.013 C 90.847 136.321, 94 129.828, 94 129.585 C 94 128.874, 90.921 125.999, 90.179 126.015 C 89.805 126.024, 88.993 126.361, 88.372 126.765 M 199.571 127.571 C 198.175 128.968, 198 136.372, 198 194 C 198 251.628, 198.175 259.032, 199.571 260.429 C 201.678 262.535, 202.598 262.412, 204.443 259.777 C 205.694 257.992, 206 254.425, 206 241.627 L 206 225.700 209.154 230.100 C 219.888 245.073, 233.084 254.528, 249 258.650 C 257.671 260.895, 273.440 260.855, 282 258.566 C 292.972 255.631, 303.604 249.428, 312.072 241.019 C 316.237 236.884, 321.065 231.025, 322.800 228 L 325.956 222.500 325.978 241.215 C 325.999 259.239, 326.078 259.971, 328.117 261.062 C 333.076 263.717, 333.023 264.446, 333.023 194 C 333.023 123.554, 333.076 124.283, 328.117 126.938 C 326.081 128.027, 325.999 128.771, 325.978 146.285 L 325.956 164.500 322.800 159 C 317.886 150.434, 305.904 139.190, 296.500 134.317 C 285.549 128.644, 277.653 126.699, 265.500 126.681 C 242.183 126.648, 223.758 136.529, 209.154 156.900 L 206 161.300 206 145.873 C 206 133.528, 205.689 130.001, 204.443 128.223 C 202.598 125.588, 201.678 125.465, 199.571 127.571 M 249.345 135.904 C 238.677 138.957, 232.033 142.962, 223.479 151.497 C 211.121 163.828, 206 176.133, 206 193.500 C 206 210.512, 211.128 223.074, 222.993 235.125 C 234.911 247.231, 248.528 253, 265.184 253 C 275.272 253, 283.110 251.144, 292.500 246.532 C 309.102 238.377, 321.252 221.547, 324.468 202.250 L 325.176 198 294.788 198 C 272.486 198, 264.081 197.681, 263.200 196.800 C 262.319 195.919, 262 187.422, 262 164.800 L 262 134 258.750 134.071 C 256.962 134.110, 252.730 134.935, 249.345 135.904 M 269 162 L 269 190 297 190 C 329.229 190, 326.275 191.305, 323.003 178.511 C 318.717 161.754, 307.079 147.438, 291.820 140.153 C 284.142 136.487, 275.707 134, 270.951 134 C 269.063 134, 269 134.902, 269 162 M 62 194 L 47.993 222 75.993 222 L 103.993 222 118 194 L 132.007 166 104.007 166 L 76.007 166 62 194 " stroke="none" fill="black" fill-rule="evenodd"/>
</svg>