<svg xmlns="http://www.w3.org/2000/svg" width="468" height="324" viewBox="0 0 468 324" version="1.1">
	<path d="M 199.571 95.571 C 198.219 96.924, 198 100.988, 198 124.774 L 198 152.405 184.667 139.202 C 177.334 131.941, 170.841 126, 170.239 126 C 168.813 126, 166 128.825, 166 130.257 C 166 132.006, 200.239 166, 202 166 C 203.761 166, 238 132.006, 238 130.257 C 238 128.825, 235.187 126, 233.761 126 C 233.159 126, 226.666 131.941, 219.333 139.202 L 206 152.405 206 124.774 C 206 100.988, 205.781 96.924, 204.429 95.571 C 203.564 94.707, 202.471 94, 202 94 C 201.529 94, 200.436 94.707, 199.571 95.571 M 135.571 159.571 C 134.707 160.436, 134 161.636, 134 162.239 C 134 162.841, 139.941 169.334, 147.202 176.667 L 160.405 190 132.774 190 C 108.988 190, 104.924 190.219, 103.571 191.571 C 101.598 193.545, 101.598 194.455, 103.571 196.429 C 104.924 197.781, 108.988 198, 132.774 198 L 160.405 198 147.202 211.333 C 139.941 218.666, 134 225.159, 134 225.761 C 134 227.187, 136.825 230, 138.257 230 C 140.006 230, 174 195.761, 174 194 C 174 192.239, 140.006 158, 138.257 158 C 137.644 158, 136.436 158.707, 135.571 159.571 M 247.315 175.213 C 237.792 184.680, 230 193.134, 230 194 C 230 195.761, 263.994 230, 265.743 230 C 267.175 230, 270 227.187, 270 225.761 C 270 225.159, 264.059 218.666, 256.798 211.333 L 243.595 198 271.226 198 C 295.012 198, 299.076 197.781, 300.429 196.429 C 302.402 194.455, 302.402 193.545, 300.429 191.571 C 299.076 190.219, 295.012 190, 271.226 190 L 243.595 190 256.798 176.667 C 264.059 169.334, 270 162.841, 270 162.239 C 270 160.813, 267.175 158, 265.743 158 C 265.131 158, 256.838 165.746, 247.315 175.213 M 423.571 159.571 C 422.227 160.916, 422 164.736, 422 186 C 422 207.264, 422.227 211.084, 423.571 212.429 C 424.436 213.293, 425.529 214, 426 214 C 426.471 214, 427.564 213.293, 428.429 212.429 C 429.773 211.084, 430 207.264, 430 186 C 430 164.736, 429.773 160.916, 428.429 159.571 C 427.564 158.707, 426.471 158, 426 158 C 425.529 158, 424.436 158.707, 423.571 159.571 M 40.348 190.765 C 38.390 192.014, 6.011 257.865, 6.600 259.400 C 7.266 261.135, 9.518 262.122, 11.274 261.448 C 11.975 261.180, 19.056 247.919, 27.010 231.980 C 34.964 216.041, 41.710 203, 42 203 C 42.290 203, 49.036 216.041, 56.990 231.980 C 64.944 247.919, 72.025 261.180, 72.726 261.448 C 74.482 262.122, 76.734 261.135, 77.400 259.400 C 77.989 257.865, 45.610 192.014, 43.652 190.765 C 43.019 190.361, 42.275 190.031, 42 190.031 C 41.725 190.031, 40.981 190.361, 40.348 190.765 M 327.571 191.571 C 326.707 192.436, 326 193.529, 326 194 C 326 194.471, 326.707 195.564, 327.571 196.429 C 328.936 197.793, 333.463 198, 362 198 C 390.537 198, 395.064 197.793, 396.429 196.429 C 397.293 195.564, 398 194.471, 398 194 C 398 193.529, 397.293 192.436, 396.429 191.571 C 395.064 190.207, 390.537 190, 362 190 C 333.463 190, 328.936 190.207, 327.571 191.571 M 423.571 222.571 C 422.707 223.436, 422 224.529, 422 225 C 422 226.111, 424.889 229, 426 229 C 427.111 229, 430 226.111, 430 225 C 430 223.889, 427.111 221, 426 221 C 425.529 221, 424.436 221.707, 423.571 222.571 M 183.213 239.315 C 173.746 248.838, 166 257.131, 166 257.743 C 166 259.175, 168.813 262, 170.239 262 C 170.841 262, 177.334 256.059, 184.667 248.798 L 198 235.595 198 263.226 C 198 287.012, 198.219 291.076, 199.571 292.429 C 200.436 293.293, 201.529 294, 202 294 C 202.471 294, 203.564 293.293, 204.429 292.429 C 205.781 291.076, 206 287.012, 206 263.226 L 206 235.595 219.333 248.798 C 226.666 256.059, 233.159 262, 233.761 262 C 235.187 262, 238 259.175, 238 257.743 C 238 255.994, 203.761 222, 202 222 C 201.134 222, 192.680 229.792, 183.213 239.315 " stroke="none" fill="black" fill-rule="evenodd"/>
</svg>