<svg xmlns="http://www.w3.org/2000/svg" width="516" height="324" viewBox="0 0 516 324" version="1.1">
	<path d="M 67.500 126.895 C 53.981 129.352, 42.464 140.227, 39.515 153.322 C 38.385 158.341, 38.341 158.385, 33.322 159.515 C 26.827 160.978, 20.285 164.835, 15.710 169.900 C -2.973 190.579, 8.001 222.635, 35.604 228.013 C 58.779 232.529, 80.707 210.481, 76 187.396 C 73.161 173.471, 62.183 161.813, 49.703 159.472 C 45.492 158.682, 45.371 158.203, 47.667 151.463 C 49.875 144.983, 56.983 137.875, 63.463 135.667 C 74.255 131.990, 85.476 134.381, 93.071 141.976 C 99.228 148.132, 101.497 154.745, 100.635 164.020 C 99.248 178.943, 90.406 201.320, 79.815 216.708 C 72.409 227.468, 58.158 241.338, 47.150 248.500 C 39.180 253.685, 37.966 254.840, 38.214 257 C 38.847 262.524, 44.202 260.384, 59.513 248.487 C 83.688 229.704, 99.449 204.358, 106.635 172.706 C 109.439 160.354, 108.983 154.597, 104.471 145.358 C 98.142 132.402, 81.881 124.282, 67.500 126.895 M 199.571 127.571 C 198.176 128.966, 198 136.152, 198 191.571 L 198 254 167.571 254 C 141.242 254, 136.931 254.212, 135.571 255.571 C 133.598 257.545, 133.598 258.455, 135.571 260.429 C 136.968 261.825, 144.372 262, 202 262 C 259.628 262, 267.032 261.825, 268.429 260.429 C 269.293 259.564, 270 258.471, 270 258 C 270 257.529, 269.293 256.436, 268.429 255.571 C 267.069 254.212, 262.758 254, 236.429 254 L 206 254 206 226 L 206 198 236.429 198 C 262.758 198, 267.069 197.788, 268.429 196.429 C 269.793 195.064, 270 190.537, 270 162 C 270 133.463, 269.793 128.936, 268.429 127.571 C 267.064 126.207, 262.537 126, 234 126 C 205.463 126, 200.936 126.207, 199.571 127.571 M 206 162 L 206 190 234 190 L 262 190 262 162 L 262 134 234 134 L 206 134 206 162 M 31.054 167.728 C 25.018 169.859, 17.781 177.260, 15.667 183.463 C 11.995 194.241, 14.382 205.477, 21.952 213.048 C 32.673 223.769, 50.327 223.769, 61.048 213.048 C 71.769 202.327, 71.769 184.673, 61.048 173.952 C 53.519 166.424, 41.696 163.970, 31.054 167.728 M 300 207 L 300 210 309 210 L 318 210 318 234.060 L 318 258.121 321.750 257.810 L 325.500 257.500 325.768 233.750 L 326.036 210 335.018 210 L 344 210 344 207 L 344 204 322 204 L 300 204 300 207 M 368 231 L 368 258 372 258 L 376 258 376 245.500 L 376 233 390 233 L 404 233 404 245.500 L 404 258 408 258 L 412 258 412 231 L 412 204 408 204 L 404 204 404 215.500 L 404 227 390 227 L 376 227 376 215.500 L 376 204 372 204 L 368 204 368 231 M 447.672 204.750 C 447.323 205.335, 428.428 251.257, 426.276 256.750 C 425.934 257.622, 426.982 258, 429.739 258 L 433.692 258 436.718 250.250 L 439.745 242.500 452.086 242.500 L 464.427 242.500 467.344 250.250 L 470.261 258 474.237 258 C 477.017 258, 478.064 257.624, 477.716 256.750 C 477.443 256.063, 472.586 243.912, 466.924 229.750 L 456.629 204 452.373 204 C 450.033 204, 447.917 204.338, 447.672 204.750 M 451.024 213.504 C 450.412 215.152, 448.301 220.683, 446.334 225.796 C 444.367 230.908, 442.980 235.313, 443.252 235.585 C 443.523 235.856, 447.752 235.948, 452.650 235.789 L 461.556 235.500 456.847 223.004 C 452.284 210.897, 452.103 210.601, 451.024 213.504 " stroke="none" fill="black" fill-rule="evenodd"/>
</svg>