<svg xmlns="http://www.w3.org/2000/svg" width="676" height="324" viewBox="0 0 676 324" version="1.1">
	<path d="M 487.268 127.240 C 451.371 163.121, 422 193.181, 422 194.040 C 422 197.797, 423.618 198, 453.601 198 L 482.802 198 479.745 201.250 C 478.064 203.037, 475.304 207.425, 473.612 211 C 466.182 226.696, 471.843 246.040, 486.455 254.887 C 503.363 265.124, 523.622 260.876, 534.429 244.830 L 537.728 239.930 538.989 242.973 C 541.035 247.912, 547.715 253.972, 554.737 257.258 C 570.174 264.481, 588.730 259.232, 598.373 244.912 L 601.728 239.930 602.989 242.973 C 605.039 247.922, 611.720 253.974, 618.784 257.280 C 624.387 259.902, 626.526 260.361, 632.942 260.319 C 643.275 260.253, 650.493 257.396, 657.342 250.661 C 665.431 242.707, 667.477 237.626, 667.477 225.500 C 667.477 214.267, 665.916 209.767, 659.365 202.114 L 655.844 198 661.351 198 C 666.753 198, 670.539 196.117, 669.770 193.811 C 669.595 193.285, 662.490 185.922, 653.980 177.448 L 638.509 162.041 645.754 154.747 C 649.740 150.735, 653 146.766, 653 145.926 C 653 144.203, 651.101 142, 649.615 142 C 647.843 142, 614 176.378, 614 178.177 C 614 179.141, 614.956 180.441, 616.125 181.067 C 618.033 182.088, 619.032 181.427, 625.894 174.605 L 633.538 167.006 645.003 178.503 L 656.467 190 591.405 190 L 526.343 190 530.508 185.653 C 537.594 178.257, 539.500 173.138, 539.500 161.500 C 539.500 149.367, 537.450 144.286, 529.353 136.339 C 522.625 129.738, 515.291 126.791, 505.233 126.648 L 497.967 126.545 527.483 97.017 C 543.718 80.776, 557 66.793, 557 65.944 C 557 64.183, 555.101 62, 553.568 62 C 553 62, 523.165 91.358, 487.268 127.240 M 135.571 127.571 C 134.176 128.966, 134 136.152, 134 191.571 L 134 254 119.571 254 C 107.788 254, 104.855 254.288, 103.571 255.571 C 101.598 257.545, 101.598 258.455, 103.571 260.429 C 104.936 261.793, 109.463 262, 138 262 C 166.537 262, 171.064 261.793, 172.429 260.429 C 173.293 259.564, 174 258.471, 174 258 C 174 257.529, 173.293 256.436, 172.429 255.571 C 171.145 254.288, 168.212 254, 156.429 254 L 142 254 142 191.571 C 142 136.152, 141.824 128.966, 140.429 127.571 C 139.564 126.707, 138.471 126, 138 126 C 137.529 126, 136.436 126.707, 135.571 127.571 M 263.571 127.571 C 262.707 128.436, 262 129.640, 262 130.249 C 262 130.857, 268.853 138.259, 277.228 146.697 L 292.456 162.040 263.248 191.248 L 234.040 220.456 218.697 205.228 C 210.259 196.853, 202.857 190, 202.249 190 C 200.819 190, 198 192.819, 198 194.249 C 198 194.857, 204.844 202.250, 213.208 210.677 L 228.416 226 213.208 241.323 C 204.844 249.750, 198 257.143, 198 257.751 C 198 259.181, 200.819 262, 202.249 262 C 202.857 262, 210.250 255.156, 218.677 246.792 L 234 231.584 249.323 246.792 C 257.750 255.156, 265.105 262, 265.668 262 C 266.860 262, 270 258.734, 270 257.494 C 270 257.027, 263.147 249.741, 254.772 241.303 L 239.544 225.960 268.772 196.732 L 298 167.504 327.228 196.732 L 356.456 225.960 341.228 241.303 C 332.853 249.741, 326 257.143, 326 257.751 C 326 259.153, 328.808 262, 330.190 262 C 330.767 262, 338.165 255.162, 346.632 246.805 L 362.027 231.610 377.336 246.805 C 385.756 255.162, 393.085 262, 393.623 262 C 395.244 262, 397 259.725, 397 257.625 C 397 256.420, 391.267 249.871, 382.293 240.825 L 367.586 226 382.293 211.175 C 391.267 202.129, 397 195.580, 397 194.375 C 397 192.275, 395.244 190, 393.623 190 C 393.085 190, 385.741 196.853, 377.303 205.228 L 361.960 220.456 332.753 191.249 L 303.546 162.041 318.273 147.196 C 327.260 138.136, 333 131.580, 333 130.375 C 333 128.275, 331.244 126, 329.623 126 C 329.085 126, 321.750 132.844, 313.323 141.208 L 298 156.416 282.677 141.208 C 274.250 132.844, 266.857 126, 266.249 126 C 265.640 126, 264.436 126.707, 263.571 127.571 M 495.603 135.477 C 487.528 138.354, 487.594 139.079, 496.764 148.249 L 504.985 156.470 513.503 147.997 C 522.013 139.531, 522.018 139.522, 519.818 137.863 C 514.670 133.980, 503.024 132.832, 495.603 135.477 M 482.192 146.269 C 477.752 151.619, 476.575 165.264, 479.918 172.627 C 480.948 174.896, 482.209 177.011, 482.718 177.326 C 483.228 177.641, 487.325 174.199, 491.823 169.678 L 500.001 161.457 491.671 153.170 C 484.884 146.419, 483.128 145.140, 482.192 146.269 M 518.727 152.772 C 514.477 157.047, 511 160.995, 511 161.546 C 511 162.667, 526.144 178, 527.252 178 C 527.641 178, 528.973 176.088, 530.212 173.750 C 532.008 170.363, 532.465 167.875, 532.465 161.500 C 532.465 155.125, 532.008 152.637, 530.212 149.250 C 528.973 146.912, 527.620 145, 527.206 145 C 526.792 145, 522.976 148.497, 518.727 152.772 M 452.500 172 L 434.521 190 459.294 190 L 484.067 190 480.405 186.339 C 478.391 184.325, 475.353 179.712, 473.653 176.089 C 471.047 170.533, 470.557 168.285, 470.531 161.751 C 470.514 157.488, 470.495 154.001, 470.490 154.001 C 470.484 154, 462.389 162.100, 452.500 172 M 496.477 175.059 L 488.500 183.118 490.830 185.034 C 497.199 190.272, 511.801 190.342, 519.819 185.174 L 522.137 183.680 513.841 175.340 C 509.278 170.753, 505.299 167, 504.999 167 C 504.699 167, 500.864 170.627, 496.477 175.059 M 7.571 191.571 C 6.707 192.436, 6 193.640, 6 194.249 C 6 194.857, 12.844 202.250, 21.208 210.677 L 36.416 226 21.208 241.323 C 12.844 249.750, 6 257.143, 6 257.751 C 6 259.181, 8.819 262, 10.249 262 C 10.857 262, 18.250 255.156, 26.677 246.792 L 42 231.584 57.323 246.792 C 65.750 255.156, 73.143 262, 73.751 262 C 75.181 262, 78 259.181, 78 257.751 C 78 257.143, 71.156 249.750, 62.792 241.323 L 47.584 226 62.792 210.677 C 71.156 202.250, 78 194.857, 78 194.249 C 78 192.819, 75.181 190, 73.751 190 C 73.143 190, 65.750 196.844, 57.323 205.208 L 42 220.416 26.677 205.208 C 18.250 196.844, 10.857 190, 10.249 190 C 9.640 190, 8.436 190.707, 7.571 191.571 M 495.603 199.477 C 487.528 202.354, 487.594 203.079, 496.764 212.249 L 504.985 220.470 513.503 211.997 C 522.013 203.531, 522.018 203.522, 519.818 201.863 C 514.670 197.980, 503.024 196.832, 495.603 199.477 M 530.173 200.750 C 531.575 202.262, 533.848 205.202, 535.225 207.283 L 537.730 211.067 538.939 208.148 C 539.603 206.543, 541.637 203.603, 543.459 201.615 L 546.770 198 537.198 198 L 527.626 198 530.173 200.750 M 559.603 199.477 C 551.528 202.354, 551.594 203.079, 560.764 212.249 L 568.985 220.470 577.503 211.997 C 586.013 203.531, 586.018 203.522, 583.818 201.863 C 578.670 197.980, 567.024 196.832, 559.603 199.477 M 594.173 200.750 C 595.575 202.262, 597.848 205.202, 599.225 207.283 L 601.730 211.067 602.939 208.148 C 603.603 206.543, 605.637 203.603, 607.459 201.615 L 610.770 198 601.198 198 L 591.626 198 594.173 200.750 M 623.603 199.477 C 615.527 202.355, 615.593 203.078, 624.772 212.257 L 633 220.485 641.698 211.788 L 650.395 203.091 644.947 200.555 C 638.680 197.638, 629.994 197.199, 623.603 199.477 M 482.192 210.269 C 477.752 215.619, 476.575 229.264, 479.918 236.627 C 480.948 238.896, 482.209 241.011, 482.718 241.326 C 483.228 241.641, 487.325 238.199, 491.823 233.678 L 500.001 225.457 491.671 217.170 C 484.884 210.419, 483.128 209.140, 482.192 210.269 M 518.727 216.772 C 514.477 221.047, 511 224.995, 511 225.546 C 511 226.667, 526.144 242, 527.252 242 C 527.641 242, 528.973 240.088, 530.212 237.750 C 532.008 234.363, 532.465 231.875, 532.465 225.500 C 532.465 219.125, 532.008 216.637, 530.212 213.250 C 528.973 210.912, 527.620 209, 527.206 209 C 526.792 209, 522.976 212.497, 518.727 216.772 M 544.061 214.081 C 542.577 217.529, 541.875 221.198, 541.875 225.500 C 541.875 231.429, 545.091 242, 546.895 242 C 547.252 242, 551.247 238.278, 555.773 233.729 L 564.001 225.457 555.730 217.229 C 551.180 212.703, 547.186 209, 546.852 209 C 546.519 209, 545.263 211.286, 544.061 214.081 M 582.727 216.772 C 578.477 221.047, 575 224.995, 575 225.546 C 575 226.667, 590.144 242, 591.252 242 C 591.641 242, 592.973 240.088, 594.212 237.750 C 596.008 234.363, 596.465 231.875, 596.465 225.500 C 596.465 219.125, 596.008 216.637, 594.212 213.250 C 592.973 210.912, 591.620 209, 591.206 209 C 590.792 209, 586.976 212.497, 582.727 216.772 M 607.998 214.226 C 606.491 217.729, 605.750 221.446, 605.750 225.500 C 605.750 231.160, 609.130 242, 610.895 242 C 611.252 242, 615.247 238.278, 619.773 233.729 L 628.001 225.457 619.730 217.229 C 615.180 212.703, 611.186 209, 610.852 209 C 610.519 209, 609.235 211.352, 607.998 214.226 M 646.727 216.772 C 642.477 221.047, 639 224.995, 639 225.546 C 639 226.667, 654.144 242, 655.252 242 C 655.641 242, 656.973 240.088, 658.212 237.750 C 660.008 234.363, 660.465 231.875, 660.465 225.500 C 660.465 219.125, 660.008 216.637, 658.212 213.250 C 656.973 210.912, 655.620 209, 655.206 209 C 654.792 209, 650.976 212.497, 646.727 216.772 M 496.477 239.059 L 488.500 247.118 490.830 249.034 C 497.199 254.272, 511.801 254.342, 519.819 249.174 L 522.137 247.680 513.841 239.340 C 509.278 234.753, 505.299 231, 504.999 231 C 504.699 231, 500.864 234.627, 496.477 239.059 M 560.477 239.059 L 552.500 247.118 554.830 249.034 C 560.486 253.685, 572.578 254.341, 580.937 250.449 L 586.375 247.918 577.959 239.459 C 573.331 234.807, 569.299 231, 568.999 231 C 568.699 231, 564.864 234.627, 560.477 239.059 M 624.477 239.059 L 616.500 247.118 618.830 249.034 C 624.486 253.685, 636.578 254.341, 644.937 250.449 L 650.375 247.918 641.959 239.459 C 637.331 234.807, 633.299 231, 632.999 231 C 632.699 231, 628.864 234.627, 624.477 239.059 " stroke="none" fill="black" fill-rule="evenodd"/>
</svg>