<svg xmlns="http://www.w3.org/2000/svg" width="676" height="324" viewBox="0 0 676 324" version="1.1">
	<path d="M 64.500 126.944 C 56.325 128.268, 50.930 129.991, 43 133.814 C 32.442 138.905, 18.925 152.405, 13.780 163 C 6.893 177.182, 6.744 178.323, 6.267 220.597 C 5.879 255.050, 5.996 258.853, 7.490 260.347 C 8.993 261.850, 15.020 262, 74 262 C 131.628 262, 139.032 261.825, 140.429 260.429 C 141.791 259.066, 142 254.628, 142 227.005 C 142 209.486, 141.573 192.981, 141.051 190.326 C 140.529 187.672, 139.581 182.800, 138.946 179.500 C 134.425 156.033, 113.989 134.571, 90.500 128.622 C 82.819 126.677, 70.903 125.908, 64.500 126.944 M 227 126.894 C 220.962 128.183, 214.319 131.665, 209.601 136.014 C 205.147 140.119, 199 150.594, 199 154.078 C 199 157.489, 197.788 159, 195.053 159 C 190.715 159, 180.588 164.639, 176.013 169.602 C 169.375 176.803, 166.556 183.927, 166.556 193.500 C 166.556 200.036, 167.038 202.538, 169.189 207.175 C 174.358 218.320, 183.718 225.697, 195.635 228.019 C 211.176 231.048, 228.352 221.291, 234.043 206.202 C 238.618 194.069, 236.017 179.684, 227.545 170.261 C 222.721 164.896, 215.514 160.542, 209.663 159.456 C 205.883 158.755, 205.835 158.690, 206.487 155.122 C 208.016 146.752, 215.420 138.408, 223.872 135.528 C 237.451 130.901, 251.612 136.532, 257.864 149.043 C 261.444 156.208, 261.753 160.289, 259.519 170.910 C 252.905 202.350, 233.222 231.303, 206.690 248.619 C 197.910 254.349, 196.739 255.643, 198.074 258.138 C 199.690 261.159, 202.347 260.349, 211.991 253.898 C 227.352 243.623, 242.799 226.983, 252.056 210.740 C 260.904 195.212, 268.327 172.133, 268.215 160.497 C 268.044 142.777, 254.386 128.445, 235.982 126.675 C 232.967 126.385, 228.925 126.484, 227 126.894 M 359.200 127.200 C 358.292 128.108, 358 143.689, 358 191.200 L 358 254 327.571 254 C 301.242 254, 296.931 254.212, 295.571 255.571 C 293.596 257.546, 293.598 258.455, 295.579 260.436 C 296.990 261.847, 304.058 261.987, 362.220 261.757 C 422.934 261.517, 427.356 261.383, 428.386 259.750 C 429.191 258.474, 429.191 257.526, 428.386 256.250 C 427.381 254.655, 424.566 254.477, 396.641 254.236 L 366 253.971 366 225.986 L 366 198 396.429 198 C 422.758 198, 427.069 197.788, 428.429 196.429 C 429.793 195.064, 430 190.537, 430 162 C 430 133.463, 429.793 128.936, 428.429 127.571 C 427.063 126.206, 422.503 126, 393.629 126 C 369.117 126, 360.085 126.315, 359.200 127.200 M 58.645 135.584 C 42.733 139.436, 27.402 151.975, 20.235 167 C 18.005 171.675, 15.690 177.885, 15.090 180.799 C 14.429 184.014, 14 199.452, 14 220.049 L 14 254 74.114 254 L 134.228 254 133.742 219.750 C 133.202 181.762, 132.886 179.471, 126.330 166.046 C 119.170 151.386, 102.352 138.413, 86.201 135.090 C 79.038 133.617, 65.791 133.854, 58.645 135.584 M 366 162 L 366 190 394 190 L 422 190 422 162 L 422 134 394 134 L 366 134 366 162 M 191.463 167.591 C 185.971 169.541, 180.552 174.205, 177.249 179.824 C 174.800 183.989, 174.500 185.483, 174.500 193.500 C 174.500 201.517, 174.800 203.011, 177.249 207.176 C 185.926 221.937, 205.604 225.610, 219.031 214.976 C 224.751 210.445, 229 201.292, 229 193.500 C 229 182.038, 221.486 171.200, 210.965 167.488 C 205.740 165.644, 196.813 165.692, 191.463 167.591 M 541.591 205.514 C 535.406 207.874, 531.366 211.552, 528.480 217.452 C 526.045 222.428, 525.837 223.757, 526.173 232.210 C 526.592 242.781, 528.189 247.013, 533.821 252.483 C 538.827 257.345, 545.457 259.362, 554.523 258.780 C 569.740 257.804, 579 247.492, 579 231.523 C 579 220.274, 574.050 211.133, 565.595 206.768 C 560.273 204.022, 547.282 203.343, 541.591 205.514 M 592 223.935 C 592 235.589, 592.442 245.039, 593.064 246.685 C 595.768 253.842, 604.049 258.946, 613 258.972 C 620.549 258.995, 625.402 257.464, 629.676 253.711 C 635.550 248.554, 636 246.442, 636 224.032 L 636 204 632.500 204 L 629 204 628.998 222.750 C 628.997 238.625, 628.729 242.026, 627.248 244.929 C 622.275 254.682, 608.150 255.643, 601.571 246.677 C 599.673 244.090, 599.470 242.192, 599.146 223.927 L 598.791 204 595.396 204 L 592 204 592 223.935 M 464.234 231.667 L 464.500 258.500 468.250 258.810 L 472 259.121 472 247.520 L 472 235.919 480.206 236.210 L 488.411 236.500 495.456 247.748 C 502.393 258.824, 502.557 258.995, 506.250 258.998 C 508.313 258.999, 510 258.561, 510 258.025 C 510 257.490, 506.848 252.269, 502.996 246.423 L 495.991 235.796 500.246 233.648 C 508.201 229.631, 511.231 218.805, 506.261 212.148 C 501.576 205.873, 500.349 205.528, 481.413 205.167 L 463.967 204.834 464.234 231.667 M 545.914 210.956 C 536.215 213.895, 531.362 224.785, 534.026 237.631 C 535.673 245.576, 541.316 251.475, 548.266 252.517 C 557.717 253.934, 564.929 250.595, 568.750 243.030 C 572.968 234.680, 571.201 219.980, 565.355 214.788 C 560.695 210.651, 552.349 209.006, 545.914 210.956 M 472 220.500 L 472 230 482.550 230 C 496.580 230, 501 227.724, 501 220.500 C 501 213.276, 496.580 211, 482.550 211 L 472 211 472 220.500 " stroke="none" fill="black" fill-rule="evenodd"/>
</svg>