<svg xmlns="http://www.w3.org/2000/svg" width="340" height="324" viewBox="0 0 340 324" version="1.1">
	<path d="M 7.571 127.571 C 6.175 128.968, 6 136.372, 6 194 C 6 251.628, 6.175 259.032, 7.571 260.429 C 8.436 261.293, 9.529 262, 10 262 C 10.471 262, 11.564 261.293, 12.429 260.429 C 13.788 259.069, 14 254.758, 14 228.429 L 14 198 71.202 198 L 128.405 198 115.202 211.333 C 107.941 218.666, 102 225.159, 102 225.761 C 102 227.202, 104.832 230, 106.290 230 C 107.969 230, 142 195.693, 142 194 C 142 192.307, 107.969 158, 106.290 158 C 104.832 158, 102 160.798, 102 162.239 C 102 162.841, 107.941 169.334, 115.202 176.667 L 128.405 190 71.202 190 L 14 190 14 159.571 C 14 133.242, 13.788 128.931, 12.429 127.571 C 11.564 126.707, 10.471 126, 10 126 C 9.529 126, 8.436 126.707, 7.571 127.571 M 223.536 127.055 C 206.549 129.693, 191.930 138.283, 180.779 152.178 C 170.828 164.577, 166.553 176.995, 166.553 193.500 C 166.553 210.065, 170.823 222.417, 180.882 234.950 C 190.210 246.574, 203.147 255.062, 217 258.650 C 225.671 260.895, 241.440 260.855, 250 258.566 C 267.949 253.765, 284.974 240.018, 292.824 223.988 C 297.247 214.955, 300 205.794, 300 200.106 C 300 196.953, 301.521 195.103, 316.500 180.030 C 325.575 170.897, 333 162.710, 333 161.835 C 333 159.316, 330.436 157.691, 328.314 158.865 C 327.316 159.417, 320.656 165.749, 313.512 172.936 L 300.525 186.004 298.770 178.752 C 295.727 166.178, 289.789 155.641, 280.584 146.479 C 265.070 131.040, 244.024 123.874, 223.536 127.055 M 217.500 135.893 C 196.956 141.888, 180.807 158.285, 175.543 178.495 C 173.563 186.096, 173.563 200.904, 175.543 208.505 C 180.907 229.099, 198.710 246.655, 219.103 251.463 C 250.978 258.976, 282.983 239.847, 291.003 208.489 C 294.414 195.153, 295.034 196.506, 277.500 179 C 268.975 170.488, 262 162.747, 262 161.797 C 262 160.847, 262.959 159.557, 264.131 158.930 C 266.069 157.893, 267.434 158.953, 279.224 170.645 C 291.382 182.702, 292.143 183.283, 291.493 180 C 289.397 169.411, 281.963 156.817, 273.142 148.911 C 266.779 143.208, 254.137 136.723, 246.201 135.090 C 238.351 133.475, 224.453 133.864, 217.500 135.893 " stroke="none" fill="black" fill-rule="evenodd"/>
</svg>