<svg xmlns="http://www.w3.org/2000/svg" width="403" height="324" viewBox="0 0 403 324" version="1.1">
	<path d="M 33.384 127.357 C 15.361 131.923, 3.562 149.820, 6.987 167.396 C 11.622 191.187, 35.789 203.119, 57.703 192.436 C 73.004 184.976, 80.269 165.314, 73.934 148.507 C 68.097 133.023, 49.437 123.290, 33.384 127.357 M 295.750 127.080 C 294.207 127.979, 294 129.866, 294 143.050 L 294 158 279.934 158 C 265.308 158, 262 158.738, 262 162 C 262 165.147, 265.234 166, 277.170 166 L 288.472 166 275.236 179.263 C 267.956 186.558, 262 193.292, 262 194.228 C 262 195.164, 262.959 196.443, 264.131 197.070 C 266.073 198.110, 267.495 196.981, 280.131 184.369 L 294 170.527 294 196.263 L 294 222 279.934 222 C 265.308 222, 262 222.738, 262 226 C 262 229.262, 265.308 230, 279.934 230 L 294 230 294 244.965 C 294 259.061, 294.120 259.994, 296.064 261.034 C 300.316 263.310, 301 261.071, 301 244.878 L 301 230 329.500 230 L 358 230 358 244.950 C 358 258.064, 358.212 260.019, 359.724 260.866 C 360.818 261.478, 362.098 261.483, 363.224 260.880 C 364.804 260.035, 365 258.276, 365 244.965 L 365 230 379.066 230 C 393.692 230, 397 229.262, 397 226 C 397 222.738, 393.692 222, 379.066 222 L 365 222 365 196.296 L 365 170.592 378.913 184.378 C 391.463 196.813, 393.030 198.054, 394.913 197.047 C 396.061 196.432, 397 195.164, 397 194.228 C 397 193.292, 391.044 186.558, 383.764 179.263 L 370.528 166 381.830 166 C 393.766 166, 397 165.147, 397 162 C 397 158.738, 393.692 158, 379.066 158 L 365 158 365 143.035 C 365 129.724, 364.804 127.965, 363.224 127.120 C 362.098 126.517, 360.818 126.522, 359.724 127.134 C 358.233 127.969, 358 129.816, 358 140.786 L 358 153.473 344.237 139.737 C 336.667 132.181, 330.036 126, 329.500 126 C 328.964 126, 322.333 132.181, 314.763 139.737 L 301 153.473 301 140.937 C 301 126.708, 300.166 124.508, 295.750 127.080 M 31.054 135.728 C 25.018 137.859, 17.781 145.260, 15.667 151.463 C 11.995 162.241, 14.382 173.477, 21.952 181.048 C 32.402 191.497, 49.888 191.773, 60.280 181.653 C 66.701 175.401, 68.500 170.989, 68.500 161.500 C 68.500 152.011, 66.701 147.599, 60.280 141.347 C 53.109 134.363, 41.332 132.099, 31.054 135.728 M 318 146.500 L 306.533 158 329.500 158 L 352.467 158 341 146.500 C 334.693 140.175, 329.518 135, 329.500 135 C 329.482 135, 324.307 140.175, 318 146.500 M 215.750 159.080 C 214.229 159.966, 214 161.758, 214 172.768 L 214 185.437 208.120 179.619 C 202.896 174.450, 202.004 173.927, 200.120 174.936 C 196.640 176.798, 197.626 179.076, 205.225 186.726 L 212.450 194 205.225 201.274 C 197.626 208.924, 196.640 211.202, 200.120 213.064 C 202.004 214.073, 202.896 213.550, 208.120 208.381 L 214 202.563 214 215.246 C 214 227.037, 214.145 228.007, 216.064 229.034 C 220.177 231.236, 221 228.934, 221 215.225 L 221 202.696 226.926 208.348 C 233.212 214.344, 233.907 214.693, 235.800 212.800 C 238.049 210.551, 237.003 208.550, 229.775 201.274 L 222.550 194 229.775 186.726 C 237.003 179.450, 238.049 177.449, 235.800 175.200 C 233.907 173.307, 233.212 173.656, 226.926 179.652 L 221 185.304 221 172.852 C 221 158.713, 220.161 156.511, 215.750 159.080 M 301 194 L 301 222 329.500 222 L 358 222 358 194 L 358 166 329.500 166 L 301 166 301 194 M 7.571 191.571 C 6.707 192.436, 6 193.640, 6 194.249 C 6 194.857, 12.844 202.250, 21.208 210.677 L 36.416 226 21.208 241.323 C 12.844 249.750, 6 257.143, 6 257.751 C 6 259.181, 8.819 262, 10.249 262 C 10.857 262, 18.250 255.156, 26.677 246.792 L 42 231.584 57.323 246.792 C 65.750 255.156, 73.085 262, 73.623 262 C 75.262 262, 77 259.716, 77 257.562 C 77 256.272, 71.595 250.111, 62.263 240.762 L 47.525 226 62.263 211.238 C 71.595 201.889, 77 195.728, 77 194.438 C 77 192.284, 75.262 190, 73.623 190 C 73.085 190, 65.750 196.844, 57.323 205.208 L 42 220.416 26.677 205.208 C 18.250 196.844, 10.857 190, 10.249 190 C 9.640 190, 8.436 190.707, 7.571 191.571 M 135.244 223.256 C 116.960 241.546, 102 257.206, 102 258.056 C 102 261.835, 103.488 262, 137.450 261.985 C 155.627 261.976, 171.081 261.601, 171.791 261.150 C 172.805 260.507, 173.082 252.958, 173.082 226 C 173.082 191.142, 172.975 190.068, 169.494 190.015 C 168.941 190.007, 153.529 204.965, 135.244 223.256 M 140.500 228.158 L 115.500 253.500 140.399 253.768 C 154.093 253.915, 165.464 253.870, 165.666 253.667 C 165.869 253.464, 165.915 241.940, 165.767 228.057 L 165.500 202.815 140.500 228.158 " stroke="none" fill="black" fill-rule="evenodd"/>
</svg>