<svg xmlns="http://www.w3.org/2000/svg" width="403" height="324" viewBox="0 0 403 324" version="1.1">
	<path d="M 33.384 127.357 C 15.361 131.923, 3.562 149.820, 6.987 167.396 C 11.622 191.187, 35.789 203.119, 57.703 192.436 C 73.004 184.976, 80.269 165.314, 73.934 148.507 C 68.097 133.023, 49.437 123.290, 33.384 127.357 M 130.075 131.670 C 117.848 142.735, 109.070 157.043, 104.796 172.875 C 101.871 183.709, 101.896 203.382, 104.850 214.337 C 109.014 229.782, 117.573 243.666, 130.379 255.750 L 137.002 262 169.629 262 L 202.256 262 209.926 254.250 C 221.831 242.221, 227.632 232.943, 232.589 218 C 235.209 210.103, 235.409 208.365, 235.415 193.500 C 235.422 178.171, 235.289 177.101, 232.242 167.992 C 227.364 153.410, 218.814 140.368, 207.978 130.981 L 202.228 126 169.285 126 L 136.341 126 130.075 131.670 M 295.247 191.253 C 259.361 227.142, 230 257.276, 230 258.218 C 230 259.159, 230.962 260.445, 232.138 261.074 C 234.113 262.131, 238.988 257.506, 296.138 200.362 L 358 138.506 358 164.253 L 358 190 343.200 190 C 333.022 190, 328.025 190.375, 327.200 191.200 C 325.481 192.919, 325.481 259.081, 327.200 260.800 C 328.918 262.518, 394.082 262.518, 395.800 260.800 C 397.519 259.081, 397.519 192.919, 395.800 191.200 C 394.975 190.375, 389.978 190, 379.800 190 L 365 190 365 159.200 C 365 128.425, 364.748 126, 361.547 126 C 360.968 126, 331.133 155.364, 295.247 191.253 M 31.054 135.728 C 25.018 137.859, 17.781 145.260, 15.667 151.463 C 11.995 162.241, 14.382 173.477, 21.952 181.048 C 32.402 191.497, 49.888 191.773, 60.280 181.653 C 66.701 175.401, 68.500 170.989, 68.500 161.500 C 68.500 152.011, 66.701 147.599, 60.280 141.347 C 53.109 134.363, 41.332 132.099, 31.054 135.728 M 133.360 138.236 C 123.968 146.893, 115.267 161.727, 111.932 174.766 C 109.297 185.067, 109.297 201.933, 111.932 212.234 C 115.368 225.668, 124.216 240.514, 134.065 249.368 L 139.216 254 169.424 254 L 199.632 254 206.350 247.223 C 214.016 239.489, 215.788 237.071, 220.461 227.957 C 226.798 215.601, 228.505 208.142, 228.461 193 C 228.424 180.503, 228.187 178.820, 225.264 170.352 C 221.145 158.417, 215.027 148.316, 207.120 140.393 L 200.741 134 169.348 134 L 137.955 134 133.360 138.236 M 7.571 191.571 C 6.707 192.436, 6 193.640, 6 194.249 C 6 194.857, 12.844 202.250, 21.208 210.677 L 36.416 226 21.208 241.323 C 12.844 249.750, 6 257.143, 6 257.751 C 6 259.181, 8.819 262, 10.249 262 C 10.857 262, 18.250 255.156, 26.677 246.792 L 42 231.584 57.323 246.792 C 65.750 255.156, 73.085 262, 73.623 262 C 75.262 262, 77 259.716, 77 257.562 C 77 256.272, 71.595 250.111, 62.263 240.762 L 47.525 226 62.263 211.238 C 71.595 201.889, 77 195.728, 77 194.438 C 77 192.284, 75.262 190, 73.623 190 C 73.085 190, 65.750 196.844, 57.323 205.208 L 42 220.416 26.677 205.208 C 18.250 196.844, 10.857 190, 10.249 190 C 9.640 190, 8.436 190.707, 7.571 191.571 M 167.616 191.527 C 166.727 192.416, 166 193.529, 166 194 C 166 195.389, 169.140 198.120, 170.295 197.735 C 172.395 197.035, 173.549 194.094, 172.423 192.310 C 170.905 189.902, 169.474 189.669, 167.616 191.527 M 333 226 L 333 254 361.500 254 L 390 254 390 226 L 390 198 361.500 198 L 333 198 333 226 " stroke="none" fill="black" fill-rule="evenodd"/>
</svg>