<svg xmlns="http://www.w3.org/2000/svg" width="308" height="324" viewBox="0 0 308 324" version="1.1">
	<path d="M 223.531 127.067 C 201.361 130.469, 182.843 144.190, 173.007 164.500 C 166.354 178.237, 164.568 192.149, 167.583 206.746 C 175.853 246.787, 217.556 270.381, 255.629 256.561 C 274.858 249.581, 289.553 234.615, 296.321 215.118 C 303.711 193.829, 299.555 169.678, 285.397 151.639 C 271.384 133.785, 245.846 123.642, 223.531 127.067 M 218 135.579 C 207.829 138.255, 200.018 142.920, 191.394 151.467 C 179.145 163.605, 173.588 176.725, 173.588 193.500 C 173.588 210.275, 179.145 223.395, 191.394 235.533 C 204.791 248.810, 217.306 253.635, 235.988 252.725 C 248.863 252.098, 256.321 249.680, 266.617 242.794 C 275.346 236.955, 282.020 229.189, 286.657 219.471 C 295.084 201.815, 294.853 184.273, 285.956 166.222 C 278.553 151.204, 264.195 139.724, 247.540 135.509 C 240.108 133.627, 225.282 133.663, 218 135.579 M 226.355 158.998 C 219.496 160.424, 212.611 164.552, 207.181 170.492 C 195.066 183.748, 195.103 203.292, 207.268 216.603 C 212.639 222.480, 222.014 227.928, 227 228.069 C 228.375 228.109, 230.367 228.480, 231.427 228.895 C 233.592 229.744, 243.450 227.343, 249.300 224.543 C 263.171 217.904, 271.129 199.277, 266.661 183.905 C 261.628 166.593, 243.552 155.423, 226.355 158.998 M 221.500 168.353 C 215.873 170.979, 209.871 177.089, 207.378 182.728 C 205.161 187.744, 205.161 199.256, 207.378 204.272 C 209.871 209.911, 215.873 216.021, 221.500 218.647 C 230.618 222.902, 230 224.730, 230 193.500 C 230 162.270, 230.618 164.098, 221.500 168.353 M 237 193.500 C 237 214.839, 237.280 220.998, 238.250 220.990 C 240.926 220.969, 249.666 216.135, 252.876 212.902 C 263.175 202.524, 263.202 184.355, 252.933 174.087 C 249.709 170.863, 240.925 166.031, 238.250 166.010 C 237.280 166.002, 237 172.161, 237 193.500 M 33.829 175.057 C 30.710 175.525, 25.219 177.241, 21.626 178.870 C 13.744 182.444, 4.771 190.400, 5.204 193.430 C 5.738 197.166, 9.662 196.567, 14.627 191.990 C 17.111 189.700, 21.699 186.636, 24.822 185.180 C 29.869 182.828, 31.722 182.532, 41.500 182.517 C 51.923 182.501, 52.852 182.672, 59.222 185.788 C 63.802 188.028, 67.277 190.655, 70.122 194.030 C 85.768 212.584, 115.952 214.572, 135.748 198.350 C 140.328 194.598, 141.045 191.672, 137.873 189.685 C 136.605 188.890, 135.264 189.469, 131.803 192.305 C 124.517 198.276, 116.710 201.317, 107.409 201.807 C 93.702 202.530, 83.979 198.624, 75.195 188.866 C 65.666 178.281, 49.126 172.759, 33.829 175.057 " stroke="none" fill="black" fill-rule="evenodd"/>
</svg>