<svg xmlns="http://www.w3.org/2000/svg" width="532" height="324" viewBox="0 0 532 324" version="1.1">
	<path d="M 63.102 127.162 C 37.850 130.772, 15.064 151.522, 8.374 177 C 6.114 185.608, 6.133 201.372, 8.414 210 C 12.552 225.647, 23.709 241.079, 37.307 249.965 L 43.483 254 26.313 254 C 12.037 254, 8.878 254.265, 7.571 255.571 C 5.598 257.545, 5.598 258.455, 7.571 260.429 C 8.968 261.825, 16.372 262, 74 262 C 131.628 262, 139.032 261.825, 140.429 260.429 C 142.402 258.455, 142.402 257.545, 140.429 255.571 C 139.119 254.261, 135.918 254, 121.192 254 L 103.527 254 109.013 250.375 C 129.230 237.016, 140.261 216.938, 140.261 193.500 C 140.261 174.130, 133.401 158.199, 119.365 144.973 C 108.517 134.751, 96.954 129.141, 82.398 127.037 C 74.447 125.887, 71.899 125.904, 63.102 127.162 M 199.571 127.571 C 198.175 128.968, 198 136.372, 198 194 C 198 251.628, 198.175 259.032, 199.571 260.429 C 200.436 261.293, 201.529 262, 202 262 C 202.471 262, 203.564 261.293, 204.429 260.429 C 205.825 259.032, 206 251.628, 206 194 C 206 136.372, 205.825 128.968, 204.429 127.571 C 203.564 126.707, 202.471 126, 202 126 C 201.529 126, 200.436 126.707, 199.571 127.571 M 287.500 127.099 C 262.347 130.685, 240.604 149.744, 232.855 175 C 229.609 185.577, 229.609 201.423, 232.855 212 C 237.776 228.040, 247.209 240.488, 261.837 250.250 L 267.457 254 250.300 254 C 236.036 254, 232.878 254.265, 231.571 255.571 C 229.596 257.546, 229.598 258.455, 231.579 260.436 C 232.990 261.847, 240.058 261.987, 298.220 261.757 C 358.934 261.517, 363.356 261.383, 364.386 259.750 C 365.191 258.474, 365.191 257.526, 364.387 256.250 C 363.413 254.704, 361.140 254.468, 344.895 254.226 L 326.506 253.953 332.003 250.837 C 340.966 245.757, 352.036 233.767, 356.861 223.913 C 362.375 212.651, 364.053 205.555, 364.053 193.500 C 364.053 181.543, 362.374 174.349, 357.041 163.450 C 347.603 144.165, 328.156 130.182, 306.398 127.037 C 298.516 125.897, 295.870 125.906, 287.500 127.099 M 418.920 126.982 C 404.998 129.425, 392.482 142.592, 390.519 156.859 C 389.745 162.488, 392.758 178.424, 396.641 189.234 C 404.785 211.907, 420.043 233.231, 438.816 248.176 L 446.131 254 419.637 254 C 396.885 254, 392.921 254.222, 391.571 255.571 C 389.596 257.546, 389.598 258.455, 391.579 260.436 C 392.990 261.847, 400.058 261.987, 458.220 261.757 C 518.934 261.517, 523.356 261.383, 524.386 259.750 C 525.191 258.474, 525.191 257.526, 524.387 256.250 C 523.394 254.674, 520.570 254.450, 495.968 254 L 468.652 253.500 472.576 250.548 C 498.783 230.834, 516.329 202.986, 522.835 170.781 C 525.830 155.957, 522.762 145.231, 512.828 135.799 C 503.124 126.585, 487.588 123.837, 475.774 129.246 C 469.217 132.248, 460.787 139.686, 458.970 144.073 L 457.728 147.070 454.429 142.170 C 446.641 130.607, 432.567 124.587, 418.920 126.982 M 58.645 135.584 C 38.562 140.445, 20.305 158.877, 15.537 179.103 C 10.676 199.727, 16.552 220.515, 31.494 235.550 C 50.012 254.185, 78.004 258.467, 101.397 246.243 C 120.390 236.318, 133 215.408, 133 193.839 C 133 183.310, 131.542 177.012, 126.809 167.101 C 119.545 151.887, 104.095 139.356, 87.897 135.537 C 79.998 133.676, 66.439 133.697, 58.645 135.584 M 281.500 135.893 C 270.823 139.009, 263.044 143.699, 254.993 151.876 C 243.129 163.924, 238 176.487, 238 193.500 C 238 210.512, 243.128 223.074, 254.993 235.125 C 266.860 247.179, 280.506 252.953, 297.201 252.985 C 307.649 253.005, 313.980 251.545, 323.820 246.847 C 348.843 234.900, 362.032 205.996, 355.003 178.511 C 350.717 161.754, 339.079 147.438, 323.820 140.153 C 319.244 137.968, 313.115 135.690, 310.201 135.090 C 302.351 133.475, 288.453 133.864, 281.500 135.893 M 415.627 135.468 C 410.258 137.382, 405.040 141.826, 401.525 147.478 C 397.315 154.249, 396.973 162.240, 400.328 175.508 C 407.797 205.046, 425.663 230.927, 450.134 247.659 C 457.802 252.902, 457.045 253.036, 468.560 244.402 C 482.643 233.844, 497.367 216.231, 505.264 200.500 C 511.837 187.405, 517.699 165.114, 516.626 157.291 C 513.866 137.151, 489.006 126.961, 472.797 139.325 C 467.118 143.656, 463.172 150.296, 462.001 157.492 C 460.831 164.680, 459.093 166.819, 455.686 165.267 C 453.718 164.370, 453.199 163.216, 452.733 158.702 C 451.272 144.548, 439.599 133.943, 425.590 134.044 C 422.241 134.068, 417.757 134.709, 415.627 135.468 M 167.571 191.571 C 166.707 192.436, 166 193.529, 166 194 C 166 194.471, 166.707 195.564, 167.571 196.429 C 168.436 197.293, 169.529 198, 170 198 C 170.471 198, 171.564 197.293, 172.429 196.429 C 173.293 195.564, 174 194.471, 174 194 C 174 193.529, 173.293 192.436, 172.429 191.571 C 171.564 190.707, 170.471 190, 170 190 C 169.529 190, 168.436 190.707, 167.571 191.571 " stroke="none" fill="black" fill-rule="evenodd"/>
</svg>