<svg xmlns="http://www.w3.org/2000/svg" width="468" height="324" viewBox="0 0 468 324" version="1.1">
	<path d="M 199.571 127.571 C 198.175 128.968, 198 136.372, 198 194 C 198 251.628, 198.175 259.032, 199.571 260.429 C 200.436 261.293, 201.529 262, 202 262 C 202.471 262, 203.564 261.293, 204.429 260.429 C 205.825 259.032, 206 251.628, 206 194 C 206 136.372, 205.825 128.968, 204.429 127.571 C 203.564 126.707, 202.471 126, 202 126 C 201.529 126, 200.436 126.707, 199.571 127.571 M 263.230 159.285 C 244.953 177.591, 230 193.084, 230 193.713 C 230 195.191, 232.808 198, 234.285 198 C 234.913 198, 249.506 183.947, 266.713 166.771 L 298 135.542 329.287 166.771 C 346.494 183.947, 361.087 198, 361.715 198 C 363.192 198, 366 195.191, 366 193.713 C 366 191.963, 299.757 126, 298 126 C 297.153 126, 281.506 140.978, 263.230 159.285 M 423.571 127.571 C 422.288 128.855, 422 131.788, 422 143.571 L 422 158 407.571 158 C 395.788 158, 392.855 158.288, 391.571 159.571 C 389.598 161.545, 389.598 162.455, 391.571 164.429 C 392.855 165.712, 395.788 166, 407.571 166 L 422 166 422 212.429 C 422 253.303, 422.188 259.045, 423.571 260.429 C 424.436 261.293, 425.529 262, 426 262 C 426.471 262, 427.564 261.293, 428.429 260.429 C 429.812 259.045, 430 253.303, 430 212.429 L 430 166 444.429 166 C 456.212 166, 459.145 165.712, 460.429 164.429 C 462.402 162.455, 462.402 161.545, 460.429 159.571 C 459.145 158.288, 456.212 158, 444.429 158 L 430 158 430 143.571 C 430 131.788, 429.712 128.855, 428.429 127.571 C 427.564 126.707, 426.471 126, 426 126 C 425.529 126, 424.436 126.707, 423.571 127.571 M 295.571 159.571 C 294.324 160.819, 294 163.528, 294 172.716 L 294 184.290 288.560 179.145 C 285.568 176.315, 282.675 174, 282.131 174 C 280.829 174, 278 176.861, 278 178.178 C 278 178.747, 281.226 182.540, 285.169 186.607 L 292.338 194 285.169 201.393 C 281.226 205.460, 278 209.253, 278 209.822 C 278 211.139, 280.829 214, 282.131 214 C 282.675 214, 285.568 211.685, 288.560 208.855 L 294 203.710 294 215.284 C 294 224.472, 294.324 227.181, 295.571 228.429 C 297.545 230.402, 298.455 230.402, 300.429 228.429 C 301.676 227.181, 302 224.472, 302 215.284 L 302 203.710 307.440 208.855 C 310.432 211.685, 313.325 214, 313.869 214 C 315.171 214, 318 211.139, 318 209.822 C 318 209.253, 314.774 205.460, 310.831 201.393 L 303.662 194 310.831 186.607 C 314.774 182.540, 318 178.747, 318 178.178 C 318 176.861, 315.171 174, 313.869 174 C 313.325 174, 310.432 176.315, 307.440 179.145 L 302 184.290 302 172.716 C 302 163.528, 301.676 160.819, 300.429 159.571 C 299.564 158.707, 298.471 158, 298 158 C 297.529 158, 296.436 158.707, 295.571 159.571 M 71.750 191.041 C 68.778 192.838, 69.791 195.704, 74.927 200.036 C 88.190 211.219, 98.656 230.700, 100.560 247.750 L 101.258 254 55.201 254 C 14.663 254, 8.955 254.188, 7.571 255.571 C 5.598 257.545, 5.598 258.455, 7.571 260.429 C 8.968 261.825, 16.372 262, 74 262 C 132.209 262, 139.022 261.835, 140.463 260.395 C 141.345 259.512, 141.841 258.049, 141.564 257.145 C 141.288 256.240, 140.553 252.125, 139.933 248 C 135.323 217.361, 110.607 193.892, 79.500 190.615 C 75.887 190.235, 72.804 190.404, 71.750 191.041 M 167.571 191.571 C 166.707 192.436, 166 193.529, 166 194 C 166 194.471, 166.707 195.564, 167.571 196.429 C 168.436 197.293, 169.529 198, 170 198 C 170.471 198, 171.564 197.293, 172.429 196.429 C 173.293 195.564, 174 194.471, 174 194 C 174 193.529, 173.293 192.436, 172.429 191.571 C 171.564 190.707, 170.471 190, 170 190 C 169.529 190, 168.436 190.707, 167.571 191.571 M 90.004 205.155 C 98.891 216.104, 108 237.657, 108 247.732 C 108 253.956, 108.091 254, 121.107 254 C 134.624 254, 133.925 254.595, 131.910 244.799 C 128.473 228.091, 115.511 211.647, 99.899 204.190 C 95.280 201.983, 90.005 199.870, 88.177 199.493 L 84.854 198.809 90.004 205.155 " stroke="none" fill="black" fill-rule="evenodd"/>
</svg>