<svg xmlns="http://www.w3.org/2000/svg" width="308" height="324" viewBox="0 0 308 324" version="1.1">
	<path d="M 33.608 132.122 C 21.806 142.937, 13.219 157.313, 8.894 173.500 C 5.908 184.677, 5.908 202.323, 8.894 213.500 C 13.261 229.844, 21.574 243.687, 33.980 255.274 L 41.181 262 73.662 262 L 106.143 262 111.169 257.250 C 130.520 238.960, 139.986 218.018, 139.986 193.500 C 139.986 169.708, 131.722 150.340, 114.277 133.250 L 106.876 126 73.583 126 L 40.289 126 33.608 132.122 M 199.240 191.268 C 163.358 227.165, 134 257.058, 134 257.696 C 134 258.947, 136.709 262, 137.818 262 C 138.190 262, 166.283 234.214, 200.247 200.253 L 262 138.506 262 164.253 L 262 190 247.200 190 C 237.022 190, 232.025 190.375, 231.200 191.200 C 229.481 192.919, 229.481 259.081, 231.200 260.800 C 232.085 261.685, 241.089 262, 265.500 262 C 289.911 262, 298.915 261.685, 299.800 260.800 C 301.519 259.081, 301.519 192.919, 299.800 191.200 C 298.975 190.375, 293.978 190, 283.800 190 L 269 190 269 159.200 C 269 128.410, 268.749 126, 265.540 126 C 264.956 126, 235.121 155.371, 199.240 191.268 M 38.253 137.515 C 23.605 150.054, 14 172.225, 14 193.500 C 14 215.120, 23.577 236.910, 38.824 249.979 L 43.500 253.987 73.594 253.994 L 103.687 254 109.908 247.932 C 140.463 218.126, 140.584 168.585, 110.174 139.250 L 104.731 134 73.546 134 L 42.360 134 38.253 137.515 M 71.616 191.527 C 70.727 192.416, 70 193.529, 70 194 C 70 195.389, 73.140 198.120, 74.295 197.735 C 76.395 197.035, 77.549 194.094, 76.423 192.310 C 74.905 189.902, 73.474 189.669, 71.616 191.527 M 237 226 L 237 254 265.500 254 L 294 254 294 226 L 294 198 265.500 198 L 237 198 237 226 " stroke="none" fill="black" fill-rule="evenodd"/>
</svg>