<svg xmlns="http://www.w3.org/2000/svg" width="340" height="324" viewBox="0 0 340 324" version="1.1">
	<path d="M 33.384 127.412 C 15.475 131.758, 3.559 149.807, 6.987 167.396 C 9.923 182.467, 20.510 193.032, 35.660 196.013 C 46.748 198.194, 59.444 193.749, 67.399 184.901 C 85.210 165.091, 75.186 133.489, 49.147 127.360 C 42.397 125.772, 40.111 125.779, 33.384 127.412 M 130.150 131.602 C 118.058 142.545, 108.995 157.259, 104.858 172.663 C 102.029 183.198, 101.823 202.414, 104.431 212.500 C 108.662 228.858, 117.167 243.205, 129.523 254.828 L 137.148 262 169.864 262 L 202.580 262 210.551 253.750 C 228.349 235.328, 235.998 217.203, 235.976 193.500 C 235.953 169.520, 228.057 150.809, 210.762 133.750 L 202.905 126 169.623 126 L 136.341 126 130.150 131.602 M 31.054 135.728 C 25.018 137.859, 17.781 145.260, 15.667 151.463 C 11.995 162.241, 14.382 173.477, 21.952 181.048 C 32.402 191.497, 49.888 191.773, 60.280 181.653 C 66.701 175.401, 68.500 170.989, 68.500 161.500 C 68.500 152.107, 66.733 147.694, 60.453 141.406 C 53.491 134.434, 41.355 132.091, 31.054 135.728 M 134.253 137.515 C 119.605 150.054, 110 172.225, 110 193.500 C 110 215.120, 119.577 236.910, 134.824 249.979 L 139.500 253.987 169.594 253.994 L 199.687 254 205.744 248.092 C 236.525 218.066, 236.783 169.432, 206.321 139.453 L 200.780 134 169.570 134 L 138.360 134 134.253 137.515 M 290.355 158.986 C 279.790 161.214, 270.114 169.146, 265.329 179.500 C 261.374 188.059, 261.386 198.895, 265.361 207.610 C 268.861 215.285, 275.689 222.075, 283.480 225.629 C 291.387 229.236, 301.732 229.409, 310.297 226.077 C 317.347 223.334, 325.540 215.648, 329.033 208.500 C 331.129 204.213, 331.477 202.074, 331.477 193.500 C 331.477 181.374, 329.431 176.293, 321.342 168.339 C 313.368 160.498, 300.953 156.751, 290.355 158.986 M 287.748 167.427 C 269.840 173.818, 263.939 196.971, 276.447 211.770 C 281.306 217.518, 287.292 220.291, 295.883 220.774 C 302.994 221.173, 303.926 220.979, 309.911 217.851 C 330.057 207.321, 330.024 179.164, 309.854 169.085 C 302.910 165.615, 294.577 164.990, 287.748 167.427 M 7.571 191.571 C 6.707 192.436, 6 193.640, 6 194.249 C 6 194.857, 12.844 202.250, 21.208 210.677 L 36.416 226 21.208 241.323 C 12.844 249.750, 6 257.143, 6 257.751 C 6 259.181, 8.819 262, 10.249 262 C 10.857 262, 18.250 255.156, 26.677 246.792 L 42 231.584 57.323 246.792 C 65.750 255.156, 73.143 262, 73.751 262 C 75.181 262, 78 259.181, 78 257.751 C 78 257.143, 71.156 249.750, 62.792 241.323 L 47.584 226 62.792 210.677 C 71.156 202.250, 78 194.857, 78 194.249 C 78 192.819, 75.181 190, 73.751 190 C 73.143 190, 65.750 196.844, 57.323 205.208 L 42 220.416 26.677 205.208 C 18.250 196.844, 10.857 190, 10.249 190 C 9.640 190, 8.436 190.707, 7.571 191.571 M 167.616 191.527 C 166.727 192.416, 166 193.529, 166 194 C 166 195.389, 169.140 198.120, 170.295 197.735 C 172.395 197.035, 173.549 194.094, 172.423 192.310 C 170.905 189.902, 169.474 189.669, 167.616 191.527 M 263.585 255.558 C 262.713 256.430, 262 257.529, 262 258 C 262 258.471, 262.713 259.570, 263.585 260.442 C 264.978 261.835, 269.159 261.995, 298.226 261.763 C 328.452 261.523, 331.377 261.350, 332.386 259.750 C 333.191 258.474, 333.191 257.526, 332.386 256.250 C 331.377 254.650, 328.452 254.477, 298.226 254.237 C 269.159 254.005, 264.978 254.165, 263.585 255.558 " stroke="none" fill="black" fill-rule="evenodd"/>
</svg>