<svg xmlns="http://www.w3.org/2000/svg" width="148" height="324" viewBox="0 0 148 324" version="1.1">
	<path d="M 7.571 127.571 C 6.175 128.968, 6.002 136.388, 6.016 194.321 C 6.028 244.993, 6.327 260.757, 7.360 265.147 C 13.465 291.084, 44.606 301.302, 64.413 283.868 C 70.356 278.636, 73.375 273.371, 75.937 263.768 C 77.917 256.348, 78 253.509, 78 193.241 C 78 138.024, 77.812 130.177, 76.443 128.223 C 74.598 125.588, 73.678 125.465, 71.571 127.571 C 70.182 128.961, 70 135.345, 70 182.699 L 70 236.255 65.599 232.198 C 51.626 219.318, 31.863 219.095, 17.955 231.660 L 14 235.233 14 182.188 C 14 135.298, 13.818 128.961, 12.429 127.571 C 11.564 126.707, 10.471 126, 10 126 C 9.529 126, 8.436 126.707, 7.571 127.571 M 115.505 130.127 C 107.027 139.511, 102.615 155.263, 104.828 168.250 C 106.227 176.458, 110.209 185.615, 114.923 191.461 L 118.117 195.423 117.928 227.419 C 117.741 259.062, 117.763 259.430, 119.870 260.830 C 121.580 261.965, 122.297 261.999, 123.500 261 C 124.325 260.315, 125 259.290, 125 258.722 C 125 258.154, 126.150 256.181, 127.555 254.339 C 128.960 252.496, 131.548 247.954, 133.305 244.244 C 136.368 237.778, 136.500 236.984, 136.500 225 C 136.500 213.094, 136.353 212.191, 133.406 206 C 131.704 202.425, 129.117 197.750, 127.656 195.610 L 125 191.721 125 160.442 C 125 143.239, 124.727 128.452, 124.393 127.582 C 123.287 124.700, 119.402 125.813, 115.505 130.127 M 115.026 144.500 C 112.828 148.943, 112.553 150.780, 112.553 161 C 112.553 171.220, 112.828 173.057, 115.026 177.500 L 117.500 182.500 117.784 171.750 C 117.940 165.838, 117.940 156.162, 117.784 150.250 L 117.500 139.500 115.026 144.500 M 125 225 C 125 236.072, 125.362 243.022, 125.909 242.450 C 127.648 240.633, 130 230.602, 130 225 C 130 219.398, 127.648 209.367, 125.909 207.550 C 125.362 206.978, 125 213.928, 125 225 M 31.054 231.728 C 25.018 233.859, 17.781 241.260, 15.667 247.463 C 9.189 266.476, 21.963 285, 41.552 285 C 56.843 285, 69 272.819, 69 257.500 C 69 246.038, 61.486 235.200, 50.965 231.488 C 45.610 229.598, 36.784 229.705, 31.054 231.728 " stroke="none" fill="black" fill-rule="evenodd"/>
</svg>