<svg xmlns="http://www.w3.org/2000/svg" width="564" height="324" viewBox="0 0 564 324" version="1.1">
	<path d="M 33.384 127.412 C 15.475 131.758, 3.559 149.807, 6.987 167.396 C 8.500 175.161, 12.212 182.019, 17.580 186.967 C 38.277 206.045, 70.591 195.221, 76.013 167.396 C 79.488 149.565, 67.484 131.676, 49.147 127.360 C 42.397 125.772, 40.111 125.779, 33.384 127.412 M 319.102 127.108 C 293.633 130.963, 271.059 151.541, 264.374 177 C 262.114 185.608, 262.133 201.372, 264.414 210 C 267.688 222.381, 272.580 230.659, 282.461 240.535 C 289.488 247.559, 293.169 250.376, 299 253.193 C 309.909 258.463, 317.807 260.304, 329.500 260.304 C 348.834 260.304, 362.527 254.551, 376.539 240.539 C 390.551 226.527, 396.304 212.834, 396.304 193.500 C 396.304 174.166, 390.551 160.473, 376.539 146.461 C 366.823 136.745, 358.203 131.569, 346.831 128.621 C 339.080 126.612, 326.806 125.942, 319.102 127.108 M 455.267 159.267 C 436.970 177.563, 422 193.056, 422 193.695 C 422 195.187, 424.799 198, 426.285 198 C 426.913 198, 441.506 183.947, 458.713 166.771 L 490 135.542 521.287 166.771 C 538.494 183.947, 553.087 198, 553.715 198 C 555.201 198, 558 195.187, 558 193.695 C 558 191.982, 491.721 126, 490 126 C 489.193 126, 473.563 140.970, 455.267 159.267 M 31.054 135.728 C 25.018 137.859, 17.781 145.260, 15.667 151.463 C 11.995 162.241, 14.382 173.477, 21.952 181.048 C 32.673 191.769, 50.327 191.769, 61.048 181.048 C 71.769 170.327, 71.769 152.673, 61.048 141.952 C 53.519 134.424, 41.696 131.970, 31.054 135.728 M 314.645 135.584 C 294.562 140.445, 276.305 158.877, 271.537 179.103 C 266.672 199.742, 272.569 220.600, 287.484 235.516 C 302.400 250.431, 323.258 256.328, 343.897 251.463 C 364.261 246.662, 382.662 228.261, 387.463 207.897 C 389.390 199.718, 389.390 187.282, 387.463 179.103 C 382.662 158.739, 364.261 140.338, 343.897 135.537 C 335.998 133.676, 322.439 133.697, 314.645 135.584 M 321.384 159.412 C 303.480 163.757, 291.543 181.833, 294.993 199.372 C 297.077 209.960, 302.986 218.563, 311.673 223.654 C 316.824 226.673, 329.869 230.124, 332 229.032 C 332.825 228.609, 335.279 227.941, 337.453 227.548 C 346.124 225.980, 355.643 218.768, 360.232 210.288 C 371.343 189.761, 360.001 164.740, 337.147 159.360 C 330.397 157.772, 328.111 157.779, 321.384 159.412 M 319.054 167.728 C 313.018 169.859, 305.781 177.260, 303.667 183.463 C 298.058 199.925, 306.847 216.571, 323.250 220.550 L 326 221.217 326 193.608 C 326 172.146, 325.722 166.018, 324.750 166.079 C 324.063 166.122, 321.499 166.864, 319.054 167.728 M 334 193.500 L 334 221.135 336.250 220.475 C 349.167 216.686, 357 206.503, 357 193.500 C 357 180.497, 349.167 170.314, 336.250 166.525 L 334 165.865 334 193.500 M 129 174.997 C 118.999 176.857, 109.583 181.706, 103.217 188.276 C 99.704 191.901, 99.675 194.445, 103.132 195.542 C 104.512 195.980, 106.272 195.084, 109.167 192.468 C 111.414 190.438, 116.234 187.364, 119.877 185.638 C 125.993 182.740, 127.304 182.500, 137 182.500 C 146.754 182.500, 147.983 182.729, 154.306 185.724 C 158.947 187.922, 163.090 190.965, 167.331 195.290 C 180.043 208.255, 196.537 212.429, 215 207.354 C 224.935 204.624, 236 196.778, 236 192.464 C 236 188.535, 232.496 188.357, 228.267 192.070 C 226.247 193.844, 221.648 196.691, 218.047 198.397 C 212.017 201.255, 210.670 201.500, 201 201.500 C 191.333 201.500, 189.981 201.254, 183.962 198.402 C 179.858 196.457, 175.606 193.383, 172.541 190.146 C 163.535 180.634, 153.286 175.702, 140.446 174.701 C 136.625 174.403, 131.475 174.536, 129 174.997 M 7.571 191.571 C 6.707 192.436, 6 193.640, 6 194.249 C 6 194.857, 12.844 202.250, 21.208 210.677 L 36.416 226 21.208 241.323 C 12.844 249.750, 6 257.143, 6 257.751 C 6 259.181, 8.819 262, 10.249 262 C 10.857 262, 18.250 255.156, 26.677 246.792 L 42 231.584 57.323 246.792 C 65.750 255.156, 73.143 262, 73.751 262 C 75.181 262, 78 259.181, 78 257.751 C 78 257.143, 71.156 249.750, 62.792 241.323 L 47.584 226 62.792 210.677 C 71.156 202.250, 78 194.857, 78 194.249 C 78 192.819, 75.181 190, 73.751 190 C 73.143 190, 65.750 196.844, 57.323 205.208 L 42 220.416 26.677 205.208 C 18.250 196.844, 10.857 190, 10.249 190 C 9.640 190, 8.436 190.707, 7.571 191.571 " stroke="none" fill="black" fill-rule="evenodd"/>
</svg>