<svg xmlns="http://www.w3.org/2000/svg" width="244" height="324" viewBox="0 0 244 324" version="1.1">
	<path d="M 7.571 127.571 C 6.206 128.937, 6 133.497, 6 162.371 C 6 186.883, 6.315 195.915, 7.200 196.800 C 8.085 197.685, 17.117 198, 41.629 198 C 70.503 198, 75.063 197.794, 76.429 196.429 C 78.402 194.455, 78.402 193.545, 76.429 191.571 C 75.069 190.212, 70.758 190, 44.429 190 L 14 190 14 159.571 C 14 133.242, 13.788 128.931, 12.429 127.571 C 11.564 126.707, 10.471 126, 10 126 C 9.529 126, 8.436 126.707, 7.571 127.571 M 103.579 191.564 C 102.710 192.432, 102 193.529, 102 194 C 102 194.471, 102.710 195.568, 103.579 196.436 C 104.990 197.847, 112.058 197.987, 170.220 197.757 C 230.934 197.517, 235.356 197.383, 236.386 195.750 C 237.191 194.474, 237.191 193.526, 236.386 192.250 C 235.356 190.617, 230.934 190.483, 170.220 190.243 C 112.058 190.013, 104.990 190.153, 103.579 191.564 M 167.750 223.080 C 165.422 224.436, 165.524 227.675, 167.934 228.965 C 168.998 229.534, 170.091 230, 170.363 230 C 171.193 230, 174 226.913, 174 226 C 174 224.966, 171.132 221.988, 170.179 222.030 C 169.805 222.047, 168.713 222.519, 167.750 223.080 " stroke="none" fill="black" fill-rule="evenodd"/>
</svg>