<svg xmlns="http://www.w3.org/2000/svg" width="276" height="324" viewBox="0 0 276 324" version="1.1">
	<path d="M 7.571 127.571 C 6.707 128.436, 6 129.529, 6 130 C 6 131.111, 8.889 134, 10 134 C 11.111 134, 14 131.111, 14 130 C 14 128.889, 11.111 126, 10 126 C 9.529 126, 8.436 126.707, 7.571 127.571 M 39.571 127.571 C 38.206 128.937, 38 133.497, 38 162.371 C 38 186.883, 38.315 195.915, 39.200 196.800 C 40.085 197.685, 49.117 198, 73.629 198 C 102.503 198, 107.063 197.794, 108.429 196.429 C 110.402 194.455, 110.402 193.545, 108.429 191.571 C 107.069 190.212, 102.758 190, 76.429 190 L 46 190 46 159.571 C 46 133.242, 45.788 128.931, 44.429 127.571 C 43.564 126.707, 42.471 126, 42 126 C 41.529 126, 40.436 126.707, 39.571 127.571 M 7.571 159.571 C 6.207 160.936, 6 165.463, 6 194 C 6 222.537, 6.207 227.064, 7.571 228.429 C 9.545 230.402, 10.455 230.402, 12.429 228.429 C 13.793 227.064, 14 222.537, 14 194 C 14 165.463, 13.793 160.936, 12.429 159.571 C 11.564 158.707, 10.471 158, 10 158 C 9.529 158, 8.436 158.707, 7.571 159.571 M 135.571 191.571 C 134.707 192.436, 134 193.529, 134 194 C 134 194.471, 134.707 195.564, 135.571 196.429 C 136.968 197.825, 144.372 198, 202 198 C 259.628 198, 267.032 197.825, 268.429 196.429 C 269.293 195.564, 270 194.471, 270 194 C 270 193.529, 269.293 192.436, 268.429 191.571 C 267.032 190.175, 259.628 190, 202 190 C 144.372 190, 136.968 190.175, 135.571 191.571 M 199.571 223.571 C 198.707 224.436, 198 225.529, 198 226 C 198 226.471, 198.707 227.564, 199.571 228.429 C 200.436 229.293, 201.529 230, 202 230 C 202.471 230, 203.564 229.293, 204.429 228.429 C 205.293 227.564, 206 226.471, 206 226 C 206 225.529, 205.293 224.436, 204.429 223.571 C 203.564 222.707, 202.471 222, 202 222 C 201.529 222, 200.436 222.707, 199.571 223.571 M 7.571 255.571 C 6.707 256.436, 6 257.529, 6 258 C 6 259.111, 8.889 262, 10 262 C 11.111 262, 14 259.111, 14 258 C 14 256.889, 11.111 254, 10 254 C 9.529 254, 8.436 254.707, 7.571 255.571 " stroke="none" fill="black" fill-rule="evenodd"/>
</svg>