<svg xmlns="http://www.w3.org/2000/svg" width="500" height="324" viewBox="0 0 500 324" version="1.1">
	<path d="M 33.608 132.122 C 21.790 142.951, 13.186 157.368, 8.913 173.500 C 7.316 179.528, 6.793 184.458, 6.793 193.500 C 6.793 217.758, 15.852 238.343, 33.980 255.274 L 41.181 262 73.881 262 L 106.580 262 114.551 253.750 C 132.349 235.328, 139.998 217.203, 139.976 193.500 C 139.953 169.520, 132.057 150.809, 114.762 133.750 L 106.905 126 73.597 126 L 40.289 126 33.608 132.122 M 199.240 191.268 C 163.358 227.165, 134 257.058, 134 257.696 C 134 258.947, 136.709 262, 137.818 262 C 138.190 262, 166.283 234.214, 200.247 200.253 L 262 138.506 262 164.253 L 262 190 247.200 190 C 237.022 190, 232.025 190.375, 231.200 191.200 C 229.481 192.919, 229.481 259.081, 231.200 260.800 C 232.085 261.685, 241.089 262, 265.500 262 C 289.911 262, 298.915 261.685, 299.800 260.800 C 301.519 259.081, 301.519 192.919, 299.800 191.200 C 298.975 190.375, 293.972 190, 283.776 190 L 268.952 190 269.029 158.842 C 269.107 127.184, 268.987 126.068, 265.490 126.015 C 264.934 126.007, 235.121 155.371, 199.240 191.268 M 38.253 137.515 C 23.605 150.054, 14 172.225, 14 193.500 C 14 215.120, 23.577 236.910, 38.824 249.979 L 43.500 253.987 73.683 253.994 L 103.866 254 110.186 247.750 C 140.480 217.792, 140.731 169.778, 110.750 139.758 L 105 134 73.680 134 L 42.360 134 38.253 137.515 M 71.571 191.571 C 70.707 192.436, 70 193.529, 70 194 C 70 195.068, 72.871 198, 73.916 198 C 74.342 198, 75.505 197.100, 76.500 196 C 78.247 194.070, 78.247 193.930, 76.500 192 C 74.318 189.589, 73.615 189.528, 71.571 191.571 M 327.750 191.080 C 326.788 191.641, 326 192.859, 326 193.788 C 326 194.717, 332.857 202.344, 341.238 210.738 L 356.476 226 341.238 241.262 C 332.857 249.656, 326 257.290, 326 258.227 C 326 259.163, 326.960 260.443, 328.132 261.071 C 330.079 262.113, 331.624 260.856, 345.882 246.624 L 361.500 231.037 377.152 246.606 C 391.334 260.713, 393.001 262.070, 394.902 261.052 C 396.056 260.435, 397 259.163, 397 258.227 C 397 257.290, 390.143 249.656, 381.762 241.262 L 366.524 226 381.762 210.738 C 390.143 202.344, 397 194.710, 397 193.773 C 397 192.837, 396.058 191.566, 394.906 190.950 C 393.012 189.936, 391.325 191.307, 377.131 205.401 L 361.449 220.973 345.987 205.486 C 337.482 196.969, 330.294 190.014, 330.012 190.030 C 329.730 190.047, 328.712 190.519, 327.750 191.080 M 455.268 191.207 C 453.374 193.543, 422 256.953, 422 258.444 C 422 260.431, 425.097 262.022, 426.974 260.999 C 427.813 260.542, 435.021 247.076, 442.991 231.074 L 457.483 201.979 471.825 230.740 C 479.714 246.558, 486.867 260.045, 487.722 260.711 C 489.692 262.247, 493.021 260.657, 492.950 258.215 C 492.859 255.092, 459.585 190.516, 457.908 190.207 C 457.032 190.046, 455.844 190.496, 455.268 191.207 M 237 226 L 237 254 265.500 254 L 294 254 294 226 L 294 198 265.500 198 L 237 198 237 226 " stroke="none" fill="black" fill-rule="evenodd"/>
</svg>