<svg xmlns="http://www.w3.org/2000/svg" width="340" height="324" viewBox="0 0 340 324" version="1.1">
	<path d="M 33.384 127.370 C 15.387 131.885, 3.561 149.817, 6.987 167.396 C 12.468 195.526, 46.025 206.135, 66.080 186.080 C 76.010 176.150, 78.986 161.911, 73.934 148.507 C 68.114 133.068, 49.449 123.339, 33.384 127.370 M 159.102 127.104 C 133.623 130.976, 111.143 151.463, 104.352 177 C 102.055 185.639, 102.055 201.361, 104.352 210 C 107.623 222.302, 112.576 230.654, 122.461 240.539 C 136.473 254.551, 150.166 260.304, 169.500 260.304 C 188.176 260.304, 202.938 254.102, 216.584 240.521 C 229.867 227.301, 236 212.448, 236 193.500 C 236 181.317, 234.346 174.289, 228.824 163.012 C 221.046 147.128, 203.696 133.037, 186.500 128.638 C 178.410 126.568, 166.879 125.923, 159.102 127.104 M 295.285 159.230 C 276.978 177.506, 262 193.166, 262 194.030 C 262 197.785, 263.649 198, 292.427 198 L 320.455 198 291.227 227.289 C 275.152 243.398, 262 257.091, 262 257.718 C 262 259.207, 264.984 262.174, 266.100 261.795 C 267.372 261.363, 334 194.696, 334 193.856 C 334 193.464, 333.293 192.436, 332.429 191.571 C 331.074 190.217, 326.963 190, 302.685 190 L 274.513 190 303.756 160.744 C 319.840 144.653, 333 130.793, 333 129.944 C 333 128.191, 331.103 126, 329.585 126 C 329.026 126, 313.591 140.953, 295.285 159.230 M 31.054 135.728 C 25.018 137.859, 17.781 145.260, 15.667 151.463 C 11.995 162.241, 14.382 173.477, 21.952 181.048 C 32.673 191.769, 50.327 191.769, 61.048 181.048 C 71.769 170.327, 71.769 152.673, 61.048 141.952 C 53.519 134.424, 41.696 131.970, 31.054 135.728 M 153.500 135.893 C 142.823 139.009, 135.044 143.699, 126.993 151.876 C 115.129 163.924, 110 176.487, 110 193.500 C 110 210.553, 115.144 223.132, 126.993 235.054 C 139.057 247.193, 152.600 253, 168.845 253 C 179.674 253, 185.916 251.576, 195.820 246.847 C 209.946 240.103, 221.233 226.972, 226.633 211 C 229.254 203.248, 229.254 183.752, 226.633 176 C 219.849 155.935, 203.081 140.060, 183.897 135.537 C 175.331 133.518, 161.067 133.685, 153.500 135.893 M 161.384 159.370 C 150.752 162.037, 142.004 169.445, 137.163 179.880 C 133.453 187.879, 133.453 199.121, 137.163 207.120 C 140.333 213.954, 145.853 220.244, 151.673 223.654 C 157.075 226.820, 169.652 230.057, 172.451 229.002 C 173.578 228.577, 177.069 227.486, 180.208 226.577 C 190.328 223.647, 199.952 213.871, 203.023 203.402 C 203.696 201.108, 204.059 195.824, 203.847 191.402 C 203.379 181.618, 200.662 175.569, 193.518 168.404 C 185.421 160.282, 172.371 156.613, 161.384 159.370 M 159.627 167.468 C 154.247 169.386, 149.039 173.829, 145.500 179.519 C 141.527 185.908, 140.712 197.311, 143.741 204.129 C 147.420 212.408, 154.903 218.846, 162.750 220.481 L 166 221.159 166 193.579 C 166 172.159, 165.721 166.010, 164.750 166.044 C 164.063 166.068, 161.757 166.709, 159.627 167.468 M 174 193.500 C 174 208.625, 174.168 221, 174.374 221 C 174.580 221, 176.646 220.331, 178.965 219.512 C 189.486 215.800, 197 204.962, 197 193.500 C 197 182.038, 189.486 171.200, 178.965 167.488 C 176.646 166.669, 174.580 166, 174.374 166 C 174.168 166, 174 178.375, 174 193.500 M 7.571 191.571 C 6.707 192.436, 6 193.640, 6 194.249 C 6 194.857, 12.844 202.250, 21.208 210.677 L 36.416 226 21.208 241.323 C 12.844 249.750, 6 257.143, 6 257.751 C 6 259.181, 8.819 262, 10.249 262 C 10.857 262, 18.250 255.156, 26.677 246.792 L 42 231.584 57.323 246.792 C 65.750 255.156, 73.143 262, 73.751 262 C 75.181 262, 78 259.181, 78 257.751 C 78 257.143, 71.156 249.750, 62.792 241.323 L 47.584 226 62.792 210.677 C 71.156 202.250, 78 194.857, 78 194.249 C 78 192.819, 75.181 190, 73.751 190 C 73.143 190, 65.750 196.844, 57.323 205.208 L 42 220.416 26.677 205.208 C 18.250 196.844, 10.857 190, 10.249 190 C 9.640 190, 8.436 190.707, 7.571 191.571 " stroke="none" fill="black" fill-rule="evenodd"/>
</svg>