<svg xmlns="http://www.w3.org/2000/svg" width="564" height="324" viewBox="0 0 564 324" version="1.1">
	<path d="M 63.102 127.108 C 37.640 130.961, 15.155 151.450, 8.349 177 C 6.078 185.527, 6.091 201.277, 8.377 210 C 12.440 225.502, 23.724 241.089, 37.307 249.965 L 43.483 254 26.313 254 C 12.037 254, 8.878 254.265, 7.571 255.571 C 5.598 257.545, 5.598 258.455, 7.571 260.429 C 8.968 261.825, 16.372 262, 74 262 C 131.628 262, 139.032 261.825, 140.429 260.429 C 142.402 258.455, 142.402 257.545, 140.429 255.571 C 139.119 254.261, 135.917 254, 121.187 254 L 103.517 254 109.693 249.965 C 118.494 244.214, 128.961 232.622, 133.313 223.806 C 138.458 213.383, 140.333 205.288, 140.333 193.500 C 140.333 174.138, 134.606 160.528, 120.539 146.461 C 110.823 136.745, 102.203 131.569, 90.831 128.621 C 83.080 126.612, 70.806 125.942, 63.102 127.108 M 199.571 127.571 C 198.175 128.968, 198 136.372, 198 194 C 198 251.628, 198.175 259.032, 199.571 260.429 C 200.436 261.293, 201.529 262, 202 262 C 202.471 262, 203.564 261.293, 204.429 260.429 C 205.825 259.032, 206 251.628, 206 194 C 206 136.372, 205.825 128.968, 204.429 127.571 C 203.564 126.707, 202.471 126, 202 126 C 201.529 126, 200.436 126.707, 199.571 127.571 M 263.267 159.267 C 244.970 177.563, 230 193.056, 230 193.695 C 230 195.187, 232.799 198, 234.285 198 C 234.913 198, 249.506 183.947, 266.713 166.771 L 298 135.542 329.287 166.771 C 346.494 183.947, 361.087 198, 361.715 198 C 363.201 198, 366 195.187, 366 193.695 C 366 191.982, 299.721 126, 298 126 C 297.193 126, 281.563 140.970, 263.267 159.267 M 447.102 127.108 C 421.640 130.961, 399.155 151.450, 392.349 177 C 390.078 185.527, 390.091 201.277, 392.377 210 C 395.585 222.239, 400.558 230.636, 410.461 240.535 C 424.487 254.554, 438.258 260.346, 457.500 260.319 C 469.237 260.302, 477.315 258.427, 487.806 253.287 C 496.382 249.084, 507.995 238.728, 513.599 230.285 C 518.611 222.733, 522.883 211.467, 523.656 203.764 L 524.284 197.500 541.142 180.409 C 550.414 171.009, 558 162.829, 558 162.231 C 558 160.818, 555.174 158, 553.756 158 C 553.150 158, 546.264 164.336, 538.453 172.081 L 524.251 186.162 523.537 181.331 C 520.088 158.019, 498.622 134.788, 474.831 128.621 C 467.080 126.612, 454.806 125.942, 447.102 127.108 M 58.645 135.584 C 38.671 140.419, 20.279 158.986, 15.537 179.103 C 13.610 187.282, 13.610 199.718, 15.537 207.897 C 20.338 228.261, 38.739 246.662, 59.103 251.463 C 79.742 256.328, 100.600 250.431, 115.516 235.516 C 134.200 216.831, 138.470 189.002, 126.243 165.603 C 118.839 151.435, 103.149 139.133, 87.897 135.537 C 79.998 133.676, 66.439 133.697, 58.645 135.584 M 442.645 135.584 C 422.671 140.419, 404.279 158.986, 399.537 179.103 C 394.672 199.742, 400.569 220.600, 415.484 235.516 C 430.400 250.431, 451.258 256.328, 471.897 251.463 C 492.261 246.662, 510.662 228.261, 515.463 207.897 C 518.394 195.459, 518.886 196.478, 501.500 178.969 C 492.975 170.383, 486 162.860, 486 162.251 C 486 160.827, 488.815 158, 490.232 158 C 490.831 158, 496.922 163.512, 503.767 170.250 C 515.556 181.854, 516.178 182.316, 515.551 179 C 515.188 177.075, 513.050 171.701, 510.802 167.058 C 503.400 151.775, 488.061 139.348, 471.897 135.537 C 463.998 133.676, 450.439 133.697, 442.645 135.584 M 295.571 159.571 C 294.324 160.819, 294 163.528, 294 172.716 L 294 184.290 288.560 179.145 C 285.568 176.315, 282.675 174, 282.131 174 C 280.829 174, 278 176.861, 278 178.178 C 278 178.747, 281.226 182.540, 285.169 186.607 L 292.338 194 285.169 201.393 C 281.226 205.460, 278 209.253, 278 209.822 C 278 211.139, 280.829 214, 282.131 214 C 282.675 214, 285.568 211.685, 288.560 208.855 L 294 203.710 294 215.284 C 294 224.472, 294.324 227.181, 295.571 228.429 C 297.545 230.402, 298.455 230.402, 300.429 228.429 C 301.676 227.181, 302 224.472, 302 215.284 L 302 203.710 307.440 208.855 C 310.432 211.685, 313.325 214, 313.869 214 C 315.171 214, 318 211.139, 318 209.822 C 318 209.253, 314.774 205.460, 310.831 201.393 L 303.662 194 310.831 186.607 C 314.774 182.540, 318 178.747, 318 178.178 C 318 176.861, 315.171 174, 313.869 174 C 313.325 174, 310.432 176.315, 307.440 179.145 L 302 184.290 302 172.716 C 302 163.528, 301.676 160.819, 300.429 159.571 C 299.564 158.707, 298.471 158, 298 158 C 297.529 158, 296.436 158.707, 295.571 159.571 M 167.571 191.571 C 166.707 192.436, 166 193.529, 166 194 C 166 194.471, 166.707 195.564, 167.571 196.429 C 168.436 197.293, 169.529 198, 170 198 C 170.471 198, 171.564 197.293, 172.429 196.429 C 173.293 195.564, 174 194.471, 174 194 C 174 193.529, 173.293 192.436, 172.429 191.571 C 171.564 190.707, 170.471 190, 170 190 C 169.529 190, 168.436 190.707, 167.571 191.571 " stroke="none" fill="black" fill-rule="evenodd"/>
</svg>