<svg xmlns="http://www.w3.org/2000/svg" width="388" height="324" viewBox="0 0 388 324" version="1.1">
	<path d="M 359.315 111.213 C 349.792 120.680, 342 129.134, 342 130 C 342 131.680, 375.953 166, 377.615 166 C 379.105 166, 381 163.795, 381 162.062 C 381 161.216, 374.143 153.656, 365.762 145.262 L 350.524 130 365.762 114.738 C 374.143 106.344, 381 98.784, 381 97.938 C 381 96.205, 379.105 94, 377.615 94 C 377.073 94, 368.838 101.746, 359.315 111.213 M 33.384 127.412 C 15.475 131.758, 3.559 149.807, 6.987 167.396 C 9.923 182.467, 20.510 193.032, 35.660 196.013 C 46.748 198.194, 59.444 193.749, 67.399 184.901 C 85.210 165.091, 75.186 133.489, 49.147 127.360 C 42.397 125.772, 40.111 125.779, 33.384 127.412 M 327.750 127.080 C 326.114 128.033, 326 132.045, 326 188.793 L 326 249.487 296.244 219.744 C 279.878 203.385, 266.185 190, 265.815 190 C 264.716 190, 262 193.051, 262 194.287 C 262 195.713, 328.079 262.006, 329.480 261.985 C 333.089 261.931, 333.085 262.010, 333.021 194.493 C 332.955 123.527, 332.994 124.026, 327.750 127.080 M 31.054 135.728 C 25.018 137.859, 17.781 145.260, 15.667 151.463 C 11.995 162.241, 14.382 173.477, 21.952 181.048 C 32.402 191.497, 49.888 191.773, 60.280 181.653 C 65.822 176.256, 68.291 170.953, 68.805 163.341 C 69.388 154.717, 67.028 148.189, 61.146 142.150 C 53.627 134.431, 41.848 131.917, 31.054 135.728 M 215.571 159.571 C 214.325 160.818, 214 163.524, 214 172.672 L 214 184.201 208.419 179.100 C 205.350 176.295, 202.457 174, 201.991 174 C 200.801 174, 198 176.932, 198 178.178 C 198 178.747, 201.226 182.540, 205.169 186.607 L 212.338 194 205.169 201.393 C 201.226 205.460, 198 209.253, 198 209.822 C 198 211.068, 200.801 214, 201.991 214 C 202.457 214, 205.350 211.705, 208.419 208.900 L 214 203.799 214 215.328 C 214 224.476, 214.325 227.182, 215.571 228.429 C 217.678 230.535, 218.598 230.412, 220.443 227.777 C 221.622 226.095, 222 222.900, 222 214.632 L 222 203.710 227.440 208.855 C 233.246 214.346, 233.931 214.669, 235.800 212.800 C 238.106 210.494, 236.951 207.986, 230.378 201.018 L 223.756 193.998 230.378 186.600 C 237.111 179.077, 237.938 177.338, 235.800 175.200 C 233.931 173.331, 233.246 173.654, 227.440 179.145 L 222 184.290 222 173.368 C 222 165.100, 221.622 161.905, 220.443 160.223 C 218.598 157.588, 217.678 157.465, 215.571 159.571 M 7.571 191.571 C 6.707 192.436, 6 193.640, 6 194.249 C 6 194.857, 12.844 202.250, 21.208 210.677 L 36.416 226 21.208 241.323 C 12.844 249.750, 6 257.143, 6 257.751 C 6 259.181, 8.819 262, 10.249 262 C 10.857 262, 18.250 255.156, 26.677 246.792 L 42 231.584 57.323 246.792 C 65.750 255.156, 73.143 262, 73.751 262 C 75.181 262, 78 259.181, 78 257.751 C 78 257.143, 71.156 249.750, 62.792 241.323 L 47.584 226 62.792 210.677 C 71.156 202.250, 78 194.857, 78 194.249 C 78 192.819, 75.181 190, 73.751 190 C 73.143 190, 65.750 196.844, 57.323 205.208 L 42 220.416 26.677 205.208 C 18.250 196.844, 10.857 190, 10.249 190 C 9.640 190, 8.436 190.707, 7.571 191.571 M 135.244 223.256 C 116.960 241.546, 102 257.280, 102 258.220 C 102 261.654, 105.327 262, 138.363 262 C 166.570 262, 171.064 261.793, 172.429 260.429 C 173.793 259.064, 174 254.537, 174 226 C 174 197.463, 173.793 192.936, 172.429 191.571 C 171.564 190.707, 170.324 190, 169.673 190 C 169.022 190, 153.529 204.965, 135.244 223.256 M 140.500 229 L 115.515 254 140.758 254 L 166 254 166 229 C 166 215.250, 165.884 204, 165.742 204 C 165.601 204, 154.242 215.250, 140.500 229 " stroke="none" fill="black" fill-rule="evenodd"/>
</svg>