<svg xmlns="http://www.w3.org/2000/svg" width="500" height="324" viewBox="0 0 500 324" version="1.1">
	<path d="M 33.608 132.122 C 21.806 142.937, 13.219 157.313, 8.894 173.500 C 5.908 184.677, 5.908 202.323, 8.894 213.500 C 13.261 229.844, 21.574 243.687, 33.980 255.274 L 41.181 262 73.881 262 L 106.580 262 114.551 253.750 C 132.318 235.361, 140.083 217.036, 140.083 193.500 C 140.083 170.285, 132.035 150.966, 115.402 134.259 L 107.181 126 73.735 126 L 40.289 126 33.608 132.122 M 263.750 127.080 C 262.111 128.035, 262 132.337, 262 194.944 C 262 259.335, 262.075 262.031, 264.034 268.374 C 266.765 277.215, 274.288 285.510, 283.207 289.512 C 294.688 294.665, 308.172 293.021, 318.500 285.212 C 323.511 281.422, 328.989 273.596, 331.236 267.014 C 332.110 264.455, 332.522 245.123, 332.751 195.900 C 333.024 137.397, 332.868 128.136, 331.597 127.080 C 330.501 126.171, 329.603 126.142, 328.064 126.966 C 326.018 128.061, 326 128.533, 326 182.364 L 326 236.657 321.653 232.492 C 307.764 219.184, 286.927 219.107, 273.250 232.313 L 269 236.416 269 182.408 C 269 123.917, 269.009 124.017, 263.750 127.080 M 472.617 141.914 L 456.424 158 424.412 158 C 400.847 158, 392.083 158.317, 391.200 159.200 C 390.317 160.083, 390 168.858, 390 192.462 L 390 224.523 374 240.500 C 365.200 249.287, 358 257.253, 358 258.203 C 358 259.153, 358.960 260.443, 360.133 261.071 C 362.081 262.114, 363.661 260.819, 378.394 246.106 L 394.522 230 426.561 230 C 450.147 230, 458.917 229.683, 459.800 228.800 C 460.683 227.917, 461 219.142, 461 195.538 L 461 163.477 477 147.500 C 485.800 138.713, 493 130.747, 493 129.797 C 493 128.847, 492.057 127.566, 490.905 126.949 C 489.007 125.934, 487.285 127.343, 472.617 141.914 M 38.253 137.515 C 23.605 150.054, 14 172.225, 14 193.500 C 14 215.120, 23.577 236.910, 38.824 249.979 L 43.500 253.987 73.309 253.994 L 103.117 254 107.183 250.750 C 109.420 248.963, 113.682 244.399, 116.655 240.609 C 140.532 210.171, 138.008 167.051, 110.750 139.758 L 105 134 73.680 134 L 42.360 134 38.253 137.515 M 193.500 159.364 C 186.664 161.110, 182.523 163.430, 176.972 168.623 C 162.895 181.790, 162.902 205.216, 176.987 218.392 C 188.345 229.015, 202.311 231.380, 216.534 225.088 C 222.246 222.561, 229.891 214.869, 233.020 208.500 C 235.132 204.202, 235.477 202.096, 235.477 193.500 C 235.477 181.374, 233.431 176.293, 225.342 168.339 C 217.071 160.206, 204.296 156.605, 193.500 159.364 M 191.748 167.427 C 180.830 171.323, 173.875 181.500, 173.875 193.582 C 173.875 208.283, 184.139 219.599, 198.521 220.754 C 210.446 221.711, 220.036 216.794, 225.500 206.921 C 228.132 202.166, 228.500 200.518, 228.500 193.500 C 228.500 186.487, 228.130 184.829, 225.500 180.061 C 222.429 174.492, 216.651 169.526, 210.684 167.326 C 206.370 165.735, 196.338 165.789, 191.748 167.427 M 397 191.743 L 397 217.485 422.500 192 C 436.525 177.983, 448 166.399, 448 166.257 C 448 166.116, 436.525 166, 422.500 166 L 397 166 397 191.743 M 428 196.500 L 402.515 222 428.257 222 L 454 222 454 196.500 C 454 182.475, 453.884 171, 453.743 171 C 453.601 171, 442.017 182.475, 428 196.500 M 71.571 191.571 C 70.707 192.436, 70 193.529, 70 194 C 70 194.471, 70.707 195.564, 71.571 196.429 C 72.436 197.293, 73.529 198, 74 198 C 74.471 198, 75.564 197.293, 76.429 196.429 C 77.293 195.564, 78 194.471, 78 194 C 78 193.529, 77.293 192.436, 76.429 191.571 C 75.564 190.707, 74.471 190, 74 190 C 73.529 190, 72.436 190.707, 71.571 191.571 M 285.500 232.387 C 265.036 242.078, 264.439 271.862, 284.500 282.246 C 287.010 283.545, 291.160 284.490, 295.639 284.782 C 301.715 285.179, 303.576 284.883, 308.145 282.791 C 314.380 279.937, 319.173 275.473, 322.271 269.634 C 324.003 266.372, 324.465 263.813, 324.465 257.500 C 324.465 248.507, 322.605 243.759, 316.810 237.963 C 308.856 230.010, 295.532 227.637, 285.500 232.387 M 167.585 255.558 C 166.713 256.430, 166 257.529, 166 258 C 166 258.471, 166.713 259.570, 167.585 260.442 C 168.978 261.835, 173.159 261.995, 202.226 261.763 C 232.452 261.523, 235.377 261.350, 236.386 259.750 C 237.191 258.474, 237.191 257.526, 236.386 256.250 C 235.377 254.650, 232.452 254.477, 202.226 254.237 C 173.159 254.005, 168.978 254.165, 167.585 255.558 " stroke="none" fill="black" fill-rule="evenodd"/>
</svg>