<svg xmlns="http://www.w3.org/2000/svg" width="436" height="324" viewBox="0 0 436 324" version="1.1">
	<path d="M 33.384 127.412 C 15.475 131.758, 3.559 149.807, 6.987 167.396 C 9.923 182.467, 20.510 193.032, 35.660 196.013 C 46.748 198.194, 59.444 193.749, 67.399 184.901 C 85.210 165.091, 75.186 133.489, 49.147 127.360 C 42.397 125.772, 40.111 125.779, 33.384 127.412 M 129.125 132.591 C 111.812 148.620, 102.704 169.578, 102.655 193.500 C 102.606 217.305, 111.702 238.065, 129.523 254.828 L 137.148 262 169.909 262 L 202.669 262 211.584 252.652 C 230.272 233.058, 238.342 210.408, 235.799 184.687 C 233.925 165.731, 225.962 149.126, 211.867 134.784 L 203.235 126 169.739 126 L 136.243 126 129.125 132.591 M 327.734 127.250 C 326.827 127.938, 311.589 157.689, 293.871 193.366 C 268.469 244.513, 261.874 258.577, 262.687 259.866 C 263.608 261.326, 267.323 261.500, 297.500 261.500 C 328.586 261.500, 331.370 261.360, 332.386 259.750 C 333.191 258.474, 333.191 257.526, 332.386 256.250 C 331.382 254.658, 328.613 254.476, 301.647 254.235 L 272.012 253.970 302.506 192.988 C 319.278 159.448, 333 131.195, 333 130.203 C 333 128.460, 331.239 126, 329.991 126 C 329.656 126, 328.640 126.563, 327.734 127.250 M 31.054 135.728 C 25.018 137.859, 17.781 145.260, 15.667 151.463 C 11.995 162.241, 14.382 173.477, 21.952 181.048 C 32.402 191.497, 49.888 191.773, 60.280 181.653 C 65.822 176.256, 68.291 170.953, 68.805 163.341 C 69.388 154.717, 67.028 148.189, 61.146 142.150 C 53.627 134.431, 41.848 131.917, 31.054 135.728 M 134.253 137.515 C 119.605 150.054, 110 172.225, 110 193.500 C 110 215.120, 119.577 236.910, 134.824 249.979 L 139.500 253.987 169.309 253.994 L 199.117 254 203.183 250.750 C 205.420 248.963, 209.682 244.399, 212.655 240.609 C 236.487 210.229, 233.956 166.999, 206.750 139.758 L 201 134 169.680 134 L 138.360 134 134.253 137.515 M 386.355 158.986 C 375.790 161.214, 366.114 169.146, 361.329 179.500 C 357.374 188.059, 357.386 198.895, 361.361 207.610 C 364.861 215.285, 371.689 222.075, 379.480 225.629 C 387.387 229.236, 397.732 229.409, 406.297 226.077 C 413.347 223.334, 421.540 215.648, 425.033 208.500 C 427.129 204.213, 427.477 202.074, 427.477 193.500 C 427.477 181.374, 425.431 176.293, 417.342 168.339 C 409.368 160.498, 396.953 156.751, 386.355 158.986 M 383.885 167.380 C 365.769 173.854, 359.842 196.856, 372.447 211.770 C 377.306 217.518, 383.292 220.291, 391.883 220.774 C 398.994 221.173, 399.926 220.979, 405.911 217.851 C 426.057 207.321, 426.024 179.164, 405.854 169.085 C 398.955 165.637, 390.580 164.987, 383.885 167.380 M 7.571 191.571 C 6.707 192.436, 6 193.640, 6 194.249 C 6 194.857, 12.844 202.250, 21.208 210.677 L 36.416 226 21.208 241.323 C 12.844 249.750, 6 257.143, 6 257.751 C 6 259.181, 8.819 262, 10.249 262 C 10.857 262, 18.250 255.156, 26.677 246.792 L 42 231.584 57.323 246.792 C 65.750 255.156, 73.143 262, 73.751 262 C 75.181 262, 78 259.181, 78 257.751 C 78 257.143, 71.156 249.750, 62.792 241.323 L 47.584 226 62.792 210.677 C 71.156 202.250, 78 194.857, 78 194.249 C 78 192.819, 75.181 190, 73.751 190 C 73.143 190, 65.750 196.844, 57.323 205.208 L 42 220.416 26.677 205.208 C 18.250 196.844, 10.857 190, 10.249 190 C 9.640 190, 8.436 190.707, 7.571 191.571 M 167.571 191.571 C 166.707 192.436, 166 193.529, 166 194 C 166 194.471, 166.707 195.564, 167.571 196.429 C 168.436 197.293, 169.529 198, 170 198 C 170.471 198, 171.564 197.293, 172.429 196.429 C 173.293 195.564, 174 194.471, 174 194 C 174 193.529, 173.293 192.436, 172.429 191.571 C 171.564 190.707, 170.471 190, 170 190 C 169.529 190, 168.436 190.707, 167.571 191.571 " stroke="none" fill="black" fill-rule="evenodd"/>
</svg>