<svg xmlns="http://www.w3.org/2000/svg" width="532" height="324" viewBox="0 0 532 324" version="1.1">
	<path d="M 103.200 127.200 C 101.465 128.935, 101.465 259.065, 103.200 260.800 C 104.109 261.709, 120.229 262, 169.629 262 C 227.594 262, 235.032 261.825, 236.429 260.429 C 237.825 259.032, 238 251.628, 238 194 C 238 136.372, 237.825 128.968, 236.429 127.571 C 235.032 126.175, 227.594 126, 169.629 126 C 120.229 126, 104.109 126.291, 103.200 127.200 M 286.660 135.250 C 272.589 149.460, 265.513 163.913, 262.855 183.874 C 261.882 191.182, 261.874 195.209, 262.819 202.692 C 265.362 222.820, 272.363 237.131, 287.043 252.202 L 296.586 262 361.583 262 L 426.580 262 434.551 253.750 C 452.340 235.338, 459.986 217.226, 459.986 193.500 C 459.986 169.237, 450.012 146.753, 432.337 131.173 L 426.500 126.028 361.160 126.014 L 295.821 126 286.660 135.250 M 487.250 127.133 C 486.276 128.121, 486 142.895, 486 194.165 C 486 259.585, 486.011 259.935, 488.064 261.034 C 492.735 263.534, 492.952 262.160, 493.236 228.334 L 493.500 196.890 500.139 194.656 C 511.390 190.871, 520.359 181.521, 523.043 170.781 C 524.837 163.601, 523.914 152.444, 521.034 146.500 C 517.653 139.522, 509.341 131.645, 502.758 129.182 C 495.333 126.404, 488.818 125.543, 487.250 127.133 M 110 194 L 110 254 170 254 L 230 254 230 194 L 230 134 170 134 L 110 134 110 194 M 294.253 137.515 C 284.480 145.881, 274.709 162.785, 271.606 176.697 C 269.548 185.922, 269.551 201.102, 271.613 210.303 C 274.819 224.607, 283.978 240.451, 294.220 249.411 L 299.466 254 361.529 254 L 423.593 254 430.365 247.250 C 439.037 238.608, 445.034 228.956, 449.161 217 C 452.259 208.027, 452.441 206.723, 452.441 193.500 C 452.441 180.277, 452.259 178.973, 449.161 170 C 445.111 158.268, 439.063 148.428, 430.876 140.250 L 424.619 134 361.490 134 L 298.360 134 294.253 137.515 M 493 161.500 C 493 182.839, 493.280 188.998, 494.250 188.990 C 496.883 188.970, 505.685 184.161, 508.810 181.037 C 514.605 175.241, 516.465 170.493, 516.465 161.500 C 516.465 152.507, 514.605 147.759, 508.810 141.963 C 505.685 138.839, 496.883 134.030, 494.250 134.010 C 493.280 134.002, 493 140.161, 493 161.500 M 34.223 159.062 C 24.045 161.068, 13.996 169.411, 9.216 179.825 C 5.512 187.894, 5.512 199.106, 9.216 207.175 C 19.614 229.828, 47.328 235.643, 65.420 218.967 C 85.946 200.047, 76.603 165.823, 49.147 159.360 C 42.857 157.880, 40.464 157.832, 34.223 159.062 M 31.054 167.728 C 25.018 169.859, 17.781 177.260, 15.667 183.463 C 8.908 203.299, 22.905 222.186, 43.341 220.805 C 50.631 220.313, 56.108 217.892, 61 213 C 66.744 207.256, 68.500 202.691, 68.500 193.500 C 68.500 184.011, 66.701 179.599, 60.280 173.347 C 53.109 166.363, 41.332 164.099, 31.054 167.728 M 39.571 191.571 C 38.707 192.436, 38 193.529, 38 194 C 38 195.111, 40.889 198, 42 198 C 43.111 198, 46 195.111, 46 194 C 46 192.889, 43.111 190, 42 190 C 41.529 190, 40.436 190.707, 39.571 191.571 " stroke="none" fill="black" fill-rule="evenodd"/>
</svg>