<svg xmlns="http://www.w3.org/2000/svg" width="340" height="324" viewBox="0 0 340 324" version="1.1">
	<path d="M 33.608 132.122 C 21.887 142.862, 12.425 158.799, 8.447 174.500 C 5.869 184.675, 6.078 202.962, 8.894 213.500 C 11.540 223.400, 16.685 234.408, 22.409 242.411 C 26.759 248.493, 40.179 262, 41.872 262 C 43.178 262, 56.734 247.853, 60.773 242.275 C 65.820 235.304, 71.673 222.660, 74.093 213.500 C 77.043 202.335, 77.040 184.646, 74.087 173.500 C 71.708 164.517, 66.712 153.376, 61.870 146.256 C 57.329 139.578, 43.990 126, 41.971 126 C 41.046 126, 37.283 128.755, 33.608 132.122 M 135.240 191.268 C 99.358 227.165, 70 257.058, 70 257.696 C 70 259.196, 72.803 262, 74.302 262 C 74.940 262, 103.033 234.442, 136.731 200.761 L 198 139.522 198 164.761 L 198 190 183.200 190 C 173.022 190, 168.025 190.375, 167.200 191.200 C 165.481 192.919, 165.481 259.081, 167.200 260.800 C 168.085 261.685, 177.117 262, 201.629 262 C 230.503 262, 235.063 261.794, 236.429 260.429 C 237.793 259.064, 238 254.537, 238 226 C 238 197.463, 237.793 192.936, 236.429 191.571 C 235.145 190.288, 232.212 190, 220.429 190 L 206 190 206 159.571 C 206 133.242, 205.788 128.931, 204.429 127.571 C 203.564 126.707, 202.322 126, 201.668 126 C 201.014 126, 171.121 155.371, 135.240 191.268 M 31.776 144.475 C 24.962 152.685, 20.040 161.757, 16.842 172 C 14.855 178.364, 14.500 181.620, 14.500 193.500 C 14.500 205.380, 14.855 208.636, 16.842 215 C 20.034 225.224, 25.022 234.430, 31.810 242.628 L 37.500 249.500 37.766 221.179 C 37.912 205.602, 37.912 180.420, 37.766 165.218 L 37.500 137.578 31.776 144.475 M 46.075 193.500 L 46.075 248.500 49.556 244.500 C 62.471 229.661, 68.965 212.596, 68.965 193.500 C 68.965 174.404, 62.471 157.339, 49.556 142.500 L 46.075 138.500 46.075 193.500 M 290.355 158.986 C 279.790 161.214, 270.114 169.146, 265.329 179.500 C 261.374 188.059, 261.386 198.895, 265.361 207.610 C 268.861 215.285, 275.689 222.075, 283.480 225.629 C 291.387 229.236, 301.732 229.409, 310.297 226.077 C 317.354 223.331, 325.569 215.634, 329.056 208.500 C 331.152 204.212, 331.500 202.075, 331.500 193.500 C 331.500 181.367, 329.450 176.286, 321.353 168.339 C 313.361 160.497, 300.948 156.752, 290.355 158.986 M 287.627 167.468 C 282.247 169.386, 277.039 173.829, 273.500 179.519 C 269.527 185.908, 268.712 197.311, 271.741 204.129 C 276.389 214.589, 284.227 220.058, 295.616 220.789 C 302.399 221.224, 303.556 221.001, 309.397 218.125 C 321.374 212.229, 327.511 198.958, 324.096 186.337 C 320.933 174.647, 309.616 165.959, 297.663 166.044 C 294.273 166.068, 289.757 166.709, 287.627 167.468 M 174 226 L 174 254 202 254 L 230 254 230 226 L 230 198 202 198 L 174 198 174 226 " stroke="none" fill="black" fill-rule="evenodd"/>
</svg>