<svg xmlns="http://www.w3.org/2000/svg" width="340" height="324" viewBox="0 0 340 324" version="1.1">
	<path d="M 33.608 132.122 C 21.881 142.868, 12.408 158.828, 8.455 174.500 C 6.011 184.190, 5.991 202.076, 8.414 212 C 10.723 221.458, 16.657 234.368, 22.361 242.344 C 26.868 248.645, 40.187 262, 41.966 262 C 43.293 262, 56.631 247.990, 60.856 242.158 C 65.825 235.298, 71.687 222.607, 74.093 213.500 C 77.043 202.335, 77.040 184.646, 74.087 173.500 C 71.708 164.517, 66.712 153.376, 61.870 146.256 C 57.329 139.578, 43.990 126, 41.971 126 C 41.046 126, 37.283 128.755, 33.608 132.122 M 135.240 191.268 C 99.358 227.165, 70 257.058, 70 257.696 C 70 259.196, 72.803 262, 74.302 262 C 74.940 262, 103.033 234.442, 136.731 200.761 L 198 139.522 198 164.761 L 198 190 183.200 190 C 173.022 190, 168.025 190.375, 167.200 191.200 C 165.481 192.919, 165.481 259.081, 167.200 260.800 C 168.085 261.685, 177.117 262, 201.629 262 C 230.503 262, 235.063 261.794, 236.429 260.429 C 237.793 259.064, 238 254.537, 238 226 C 238 197.463, 237.793 192.936, 236.429 191.571 C 235.145 190.288, 232.212 190, 220.429 190 L 206 190 206 159.571 C 206 133.242, 205.788 128.931, 204.429 127.571 C 203.564 126.707, 202.322 126, 201.668 126 C 201.014 126, 171.121 155.371, 135.240 191.268 M 328 126.956 C 327.175 127.449, 311.878 157.136, 294.006 192.927 C 267.220 246.569, 261.705 258.309, 262.615 259.751 C 263.630 261.360, 266.421 261.500, 297.500 261.500 C 328.586 261.500, 331.370 261.360, 332.386 259.750 C 333.191 258.474, 333.191 257.526, 332.386 256.250 C 331.382 254.658, 328.613 254.476, 301.647 254.235 L 272.012 253.970 302.506 192.988 C 319.278 159.448, 333 131.195, 333 130.203 C 333 128.485, 331.219 125.966, 330.050 126.030 C 329.748 126.047, 328.825 126.464, 328 126.956 M 31.776 144.475 C 24.962 152.685, 20.040 161.757, 16.842 172 C 14.855 178.364, 14.500 181.620, 14.500 193.500 C 14.500 205.380, 14.855 208.636, 16.842 215 C 20.034 225.224, 25.022 234.430, 31.810 242.628 L 37.500 249.500 37.766 221.179 C 37.912 205.602, 37.912 180.420, 37.766 165.218 L 37.500 137.578 31.776 144.475 M 46.075 193.500 L 46.075 248.500 49.556 244.500 C 62.421 229.718, 69.021 212.285, 68.983 193.185 C 68.945 174.367, 62.378 157.232, 49.556 142.500 L 46.075 138.500 46.075 193.500 M 174 226 L 174 254 202 254 L 230 254 230 226 L 230 198 202 198 L 174 198 174 226 " stroke="none" fill="black" fill-rule="evenodd"/>
</svg>