<svg xmlns="http://www.w3.org/2000/svg" width="180" height="324" viewBox="0 0 180 324" version="1.1">
	<path d="M 7.571 127.571 C 6.707 128.436, 6 129.529, 6 130 C 6 131.111, 8.889 134, 10 134 C 11.111 134, 14 131.111, 14 130 C 14 128.889, 11.111 126, 10 126 C 9.529 126, 8.436 126.707, 7.571 127.571 M 95.102 127.108 C 69.633 130.963, 47.059 151.541, 40.374 177 C 39.312 181.044, 38.667 187.278, 38.667 193.500 C 38.667 205.308, 40.531 213.335, 45.751 224 C 50.940 234.601, 64.471 248.107, 75 253.193 C 85.909 258.463, 93.807 260.304, 105.500 260.304 C 124.834 260.304, 138.527 254.551, 152.539 240.539 C 166.551 226.527, 172.304 212.834, 172.304 193.500 C 172.304 174.166, 166.551 160.473, 152.539 146.461 C 142.823 136.745, 134.203 131.569, 122.831 128.621 C 115.080 126.612, 102.806 125.942, 95.102 127.108 M 90.645 135.584 C 81.199 137.871, 71.308 143.661, 63.484 151.484 C 39.906 175.063, 39.906 211.937, 63.484 235.516 C 82.169 254.200, 109.998 258.470, 133.397 246.243 C 147.565 238.839, 159.867 223.149, 163.463 207.897 C 166.759 193.913, 164.818 178.186, 158.243 165.603 C 150.839 151.435, 135.149 139.133, 119.897 135.537 C 111.998 133.676, 98.439 133.697, 90.645 135.584 M 7.571 159.571 C 6.207 160.936, 6 165.463, 6 194 C 6 222.537, 6.207 227.064, 7.571 228.429 C 9.545 230.402, 10.455 230.402, 12.429 228.429 C 13.793 227.064, 14 222.537, 14 194 C 14 165.463, 13.793 160.936, 12.429 159.571 C 11.564 158.707, 10.471 158, 10 158 C 9.529 158, 8.436 158.707, 7.571 159.571 M 103.571 159.571 C 102.212 160.931, 102 165.242, 102 191.571 L 102 222 87.571 222 C 75.788 222, 72.855 222.288, 71.571 223.571 C 69.598 225.545, 69.598 226.455, 71.571 228.429 C 72.936 229.793, 77.463 230, 106 230 C 134.537 230, 139.064 229.793, 140.429 228.429 C 142.402 226.455, 142.402 225.545, 140.429 223.571 C 139.145 222.288, 136.212 222, 124.429 222 L 110 222 110 191.571 C 110 165.242, 109.788 160.931, 108.429 159.571 C 107.564 158.707, 106.471 158, 106 158 C 105.529 158, 104.436 158.707, 103.571 159.571 M 7.571 255.571 C 6.707 256.436, 6 257.529, 6 258 C 6 259.111, 8.889 262, 10 262 C 11.111 262, 14 259.111, 14 258 C 14 256.889, 11.111 254, 10 254 C 9.529 254, 8.436 254.707, 7.571 255.571 " stroke="none" fill="black" fill-rule="evenodd"/>
</svg>