<svg xmlns="http://www.w3.org/2000/svg" width="628" height="324" viewBox="0 0 628 324" version="1.1">
	<path d="M 103.200 127.200 C 101.465 128.935, 101.465 259.065, 103.200 260.800 C 104.109 261.709, 120.229 262, 169.629 262 C 227.594 262, 235.032 261.825, 236.429 260.429 C 237.825 259.032, 238 251.628, 238 194 C 238 136.372, 237.825 128.968, 236.429 127.571 C 235.032 126.175, 227.594 126, 169.629 126 C 120.229 126, 104.109 126.291, 103.200 127.200 M 295.230 159.285 C 276.953 177.591, 262 193.084, 262 193.713 C 262 195.191, 264.808 198, 266.285 198 C 266.913 198, 281.506 183.947, 298.713 166.771 L 330 135.542 361.287 166.771 C 378.494 183.947, 393.029 198, 393.587 198 C 395.267 198, 397 195.730, 397 193.530 C 397 191.114, 332.343 126, 329.945 126 C 329.128 126, 313.506 140.978, 295.230 159.285 M 446.582 135.250 C 440.674 141.267, 436.034 147.122, 433.306 152 C 421.509 173.093, 419.065 197.330, 426.486 219.617 C 430.700 232.271, 436.408 241.348, 447 252.237 L 456.500 262.004 521.322 262.002 L 586.143 262 591.169 257.250 C 604.706 244.454, 614.168 228.823, 617.953 213 C 620.711 201.470, 620.711 185.530, 617.953 174 C 614.103 157.905, 603.454 140.427, 591.296 130.248 L 586.222 126 520.943 126 L 455.663 126 446.582 135.250 M 110 194 L 110 254 170 254 L 230 254 230 194 L 230 134 170 134 L 110 134 110 194 M 453.360 138.236 C 444.775 146.150, 437.240 158.382, 432.816 171.586 C 430.805 177.590, 430.500 180.474, 430.500 193.500 C 430.500 206.526, 430.805 209.410, 432.816 215.414 C 437.374 229.019, 445.019 241.235, 454.065 249.368 L 459.216 254 521.470 254 L 583.724 254 591.630 245.750 C 600.404 236.595, 606.223 226.617, 610.146 214 C 612.086 207.765, 612.479 204.307, 612.479 193.500 C 612.479 178.902, 610.679 171.168, 604.461 159.043 C 599.848 150.047, 598.048 147.564, 590.880 140.301 L 584.661 134 521.308 134 L 457.955 134 453.360 138.236 M 34.223 159.062 C 24.045 161.068, 13.996 169.411, 9.216 179.825 C 5.512 187.894, 5.512 199.106, 9.216 207.175 C 19.614 229.828, 47.328 235.643, 65.420 218.967 C 85.946 200.047, 76.603 165.823, 49.147 159.360 C 42.857 157.880, 40.464 157.832, 34.223 159.062 M 31.054 167.728 C 25.018 169.859, 17.781 177.260, 15.667 183.463 C 8.908 203.299, 22.905 222.186, 43.341 220.805 C 50.631 220.313, 56.108 217.892, 61 213 C 66.744 207.256, 68.500 202.691, 68.500 193.500 C 68.500 184.011, 66.701 179.599, 60.280 173.347 C 53.109 166.363, 41.332 164.099, 31.054 167.728 M 39.571 191.571 C 38.707 192.436, 38 193.529, 38 194 C 38 195.111, 40.889 198, 42 198 C 43.111 198, 46 195.111, 46 194 C 46 192.889, 43.111 190, 42 190 C 41.529 190, 40.436 190.707, 39.571 191.571 " stroke="none" fill="black" fill-rule="evenodd"/>
</svg>