<svg xmlns="http://www.w3.org/2000/svg" width="180" height="324" viewBox="0 0 180 324" version="1.1">
	<path d="M 7.571 127.571 C 6.175 128.968, 6 136.372, 6 194 C 6 251.628, 6.175 259.032, 7.571 260.429 C 8.436 261.293, 9.529 262, 10 262 C 10.471 262, 11.564 261.293, 12.429 260.429 C 13.825 259.032, 14 251.628, 14 194 C 14 136.372, 13.825 128.968, 12.429 127.571 C 11.564 126.707, 10.471 126, 10 126 C 9.529 126, 8.436 126.707, 7.571 127.571 M 71.571 127.571 C 70.175 128.968, 70 136.372, 70 194 C 70 251.628, 70.175 259.032, 71.571 260.429 C 72.436 261.293, 73.529 262, 74 262 C 74.471 262, 75.564 261.293, 76.429 260.429 C 77.825 259.032, 78 251.628, 78 194 C 78 136.372, 77.825 128.968, 76.429 127.571 C 75.564 126.707, 74.471 126, 74 126 C 73.529 126, 72.436 126.707, 71.571 127.571 M 39.571 191.571 C 38.707 192.436, 38 193.529, 38 194 C 38 195.111, 40.889 198, 42 198 C 43.111 198, 46 195.111, 46 194 C 46 192.889, 43.111 190, 42 190 C 41.529 190, 40.436 190.707, 39.571 191.571 M 103.571 191.571 C 102.707 192.436, 102 193.640, 102 194.249 C 102 194.857, 108.844 202.250, 117.208 210.677 L 132.416 226 117.208 241.323 C 108.844 249.750, 102 257.143, 102 257.751 C 102 259.181, 104.819 262, 106.249 262 C 106.857 262, 114.250 255.156, 122.677 246.792 L 138 231.584 153.323 246.792 C 161.750 255.156, 169.143 262, 169.751 262 C 171.181 262, 174 259.181, 174 257.751 C 174 257.143, 167.156 249.750, 158.792 241.323 L 143.584 226 158.792 210.677 C 167.156 202.250, 174 194.857, 174 194.249 C 174 192.819, 171.181 190, 169.751 190 C 169.143 190, 161.750 196.844, 153.323 205.208 L 138 220.416 122.677 205.208 C 114.250 196.844, 106.857 190, 106.249 190 C 105.640 190, 104.436 190.707, 103.571 191.571 " stroke="none" fill="black" fill-rule="evenodd"/>
</svg>