<svg xmlns="http://www.w3.org/2000/svg" width="340" height="324" viewBox="0 0 340 324" version="1.1">
	<path d="M 199.571 159.571 C 198.207 160.936, 198 165.463, 198 194 C 198 222.537, 198.207 227.064, 199.571 228.429 C 201.545 230.402, 202.455 230.402, 204.429 228.429 C 205.712 227.145, 206 224.212, 206 212.429 L 206 198 266 198 L 326 198 326 212.965 C 326 227.181, 326.106 227.986, 328.117 229.062 C 332.830 231.585, 333.043 230.068, 333.043 194 C 333.043 157.932, 332.830 156.415, 328.117 158.938 C 326.106 160.014, 326 160.819, 326 175.035 L 326 190 266 190 L 206 190 206 175.571 C 206 163.788, 205.712 160.855, 204.429 159.571 C 203.564 158.707, 202.471 158, 202 158 C 201.529 158, 200.436 158.707, 199.571 159.571 M 21.882 191.753 C 18.145 194.897, 13.400 202.580, 10.869 209.581 C 9.310 213.896, 8.713 217.939, 8.667 224.500 C 8.574 237.988, 12.554 248.270, 21.808 258.438 L 25.049 262 89.953 262 C 147.623 262, 155.032 261.825, 156.429 260.429 C 157.293 259.564, 158 258.448, 158 257.948 C 158 257.448, 159.550 254.617, 161.443 251.656 C 166.772 243.326, 169.215 234.946, 169.215 225 C 169.215 212.934, 166.080 204.481, 156.789 191.500 C 156.331 190.860, 132.429 190.320, 90.316 190 L 24.558 189.500 21.882 191.753 M 23.299 201.257 C 17.819 209.332, 16.500 213.937, 16.500 225 C 16.500 234.307, 16.805 236.152, 19.188 241.235 C 20.666 244.390, 23.082 248.552, 24.557 250.485 L 27.237 254 89 254 L 150.763 254 153.443 250.485 C 154.918 248.552, 157.333 244.390, 158.811 241.235 C 161.197 236.143, 161.497 234.322, 161.484 225 C 161.469 213.941, 160.132 209.259, 154.701 201.257 L 152.500 198.014 89 198.014 L 25.500 198.014 23.299 201.257 " stroke="none" fill="black" fill-rule="evenodd"/>
</svg>