<svg xmlns="http://www.w3.org/2000/svg" width="372" height="324" viewBox="0 0 372 324" version="1.1">
	<path d="M 39.571 127.571 C 38.176 128.966, 38 136.152, 38 191.571 L 38 254 23.571 254 C 11.788 254, 8.855 254.288, 7.571 255.571 C 5.598 257.545, 5.598 258.455, 7.571 260.429 C 8.936 261.793, 13.463 262, 42 262 C 70.537 262, 75.064 261.793, 76.429 260.429 C 77.293 259.564, 78 258.471, 78 258 C 78 257.529, 77.293 256.436, 76.429 255.571 C 75.145 254.288, 72.212 254, 60.429 254 L 46 254 46 191.571 C 46 136.152, 45.824 128.966, 44.429 127.571 C 43.564 126.707, 42.471 126, 42 126 C 41.529 126, 40.436 126.707, 39.571 127.571 M 258.344 126.991 C 244.860 129.822, 233.472 141.668, 230.910 155.531 C 230.025 160.316, 230.199 162.816, 232.003 171.241 C 237.824 198.427, 248.797 218.782, 268 238.017 C 277.649 247.682, 295.350 261, 298.547 261 C 299.211 261, 300.318 260.322, 301.005 259.494 C 301.693 258.666, 305.910 255.437, 310.378 252.320 C 332.327 237.004, 351.279 211.112, 359.286 185.500 C 363.744 171.240, 365.250 161.802, 364.077 155.460 C 361.973 144.076, 354.150 134.253, 343.175 129.216 C 335.165 125.539, 323.888 125.515, 315.954 129.157 C 309.265 132.227, 303.573 137.047, 300.005 142.662 L 297.360 146.824 295.503 143.377 C 292.873 138.492, 285.737 132.223, 279.675 129.472 C 273.777 126.794, 264.450 125.710, 258.344 126.991 M 255 135.824 C 252.525 136.746, 248.427 139.551, 245.894 142.058 C 239.775 148.114, 237.503 154.742, 238.365 164.020 C 239.753 178.951, 248.608 201.354, 259.185 216.693 C 266.082 226.695, 279.474 240.104, 289.282 246.829 L 297.055 252.158 301.520 249.541 C 312.326 243.208, 325.290 230.807, 335.180 217.342 C 346.596 201.799, 357 174.511, 357 160.113 C 357 145.950, 344.461 134.010, 329.572 133.995 C 314.952 133.981, 302 146.012, 302 159.607 C 302 162.970, 299.867 166, 297.500 166 C 295.133 166, 293 162.970, 293 159.607 C 293 149.949, 284.912 138.862, 275.537 135.667 C 269.401 133.576, 260.858 133.642, 255 135.824 M 135.267 223.267 C 116.970 241.563, 102 257.056, 102 257.695 C 102 258.334, 102.707 259.564, 103.571 260.429 C 104.968 261.825, 112.372 262, 170 262 C 227.628 262, 235.032 261.825, 236.429 260.429 C 237.293 259.564, 238 258.334, 238 257.695 C 238 255.982, 171.721 190, 170 190 C 169.193 190, 153.563 204.970, 135.267 223.267 M 142.500 227 L 115.514 254 170 254 L 224.486 254 197.500 227 C 182.658 212.150, 170.283 200, 170 200 C 169.717 200, 157.342 212.150, 142.500 227 " stroke="none" fill="black" fill-rule="evenodd"/>
</svg>