<svg xmlns="http://www.w3.org/2000/svg" width="308" height="324" viewBox="0 0 308 324" version="1.1">
	<path d="M 247.239 143.260 C 237.758 152.754, 230 161.288, 230 162.225 C 230 163.163, 230.959 164.443, 232.131 165.070 C 234.073 166.110, 235.495 164.981, 248.131 152.369 L 262 138.527 262 199.228 C 262 256.352, 262.105 259.986, 263.776 260.880 C 264.902 261.483, 266.182 261.478, 267.276 260.866 C 268.879 259.969, 269 255.627, 269 199.246 L 269 138.592 282.913 152.378 C 295.463 164.813, 297.030 166.054, 298.913 165.047 C 300.061 164.432, 301 163.153, 301 162.204 C 301 160.410, 267.239 126, 265.479 126 C 264.929 126, 256.721 133.767, 247.239 143.260 M 71.616 191.527 C 70.727 192.416, 70 193.529, 70 194 C 70 195.389, 73.140 198.120, 74.295 197.735 C 76.395 197.035, 77.549 194.094, 76.423 192.310 C 74.905 189.902, 73.474 189.669, 71.616 191.527 M 115.454 194.250 C 106.915 204.053, 102.734 219.110, 104.904 232.250 C 106.363 241.087, 111.502 251.981, 116.937 257.764 L 120.945 262.027 154.114 261.764 C 185.706 261.513, 187.336 261.408, 188.391 259.566 C 189.001 258.503, 191.194 254.935, 193.265 251.639 C 203.353 235.577, 203.617 214.922, 193.932 199.500 C 187.391 189.084, 191.347 190, 152.904 190 L 119.156 190 115.454 194.250 M 118.012 202.981 C 109.259 216.622, 109.775 235.593, 119.259 248.799 L 122.636 253.500 152.686 253.764 L 182.737 254.029 186.341 248.764 C 191.767 240.838, 193.302 235.785, 193.408 225.500 C 193.513 215.261, 191.677 208.616, 186.937 202.072 L 183.987 198 152.598 198 L 121.208 198 118.012 202.981 M 7.571 255.571 C 6.707 256.436, 6 257.529, 6 258 C 6 259.111, 8.889 262, 10 262 C 11.111 262, 14 259.111, 14 258 C 14 256.889, 11.111 254, 10 254 C 9.529 254, 8.436 254.707, 7.571 255.571 M 71.616 255.527 C 70.727 256.416, 70 257.529, 70 258 C 70 259.389, 73.140 262.120, 74.295 261.735 C 76.395 261.035, 77.549 258.094, 76.423 256.310 C 74.905 253.902, 73.474 253.669, 71.616 255.527 " stroke="none" fill="black" fill-rule="evenodd"/>
</svg>