<svg xmlns="http://www.w3.org/2000/svg" width="372" height="324" viewBox="0 0 372 324" version="1.1">
	<path d="M 39.571 127.571 C 38.176 128.966, 38 136.152, 38 191.571 L 38 254 23.571 254 C 11.788 254, 8.855 254.288, 7.571 255.571 C 5.598 257.545, 5.598 258.455, 7.571 260.429 C 8.936 261.793, 13.463 262, 42 262 C 70.537 262, 75.064 261.793, 76.429 260.429 C 77.293 259.564, 78 258.471, 78 258 C 78 257.529, 77.293 256.436, 76.429 255.571 C 75.145 254.288, 72.212 254, 60.429 254 L 46 254 46 191.571 C 46 136.152, 45.824 128.966, 44.429 127.571 C 43.564 126.707, 42.471 126, 42 126 C 41.529 126, 40.436 126.707, 39.571 127.571 M 199.571 127.571 C 198.175 128.968, 198 136.372, 198 194 C 198 251.628, 198.175 259.032, 199.571 260.429 C 200.936 261.793, 205.463 262, 234 262 C 262.537 262, 267.064 261.793, 268.429 260.429 C 269.825 259.032, 270 251.628, 270 194 C 270 136.372, 269.825 128.968, 268.429 127.571 C 267.064 126.207, 262.537 126, 234 126 C 205.463 126, 200.936 126.207, 199.571 127.571 M 206 194 L 206 254 234 254 L 262 254 262 194 L 262 134 234 134 L 206 134 206 194 M 321.384 159.412 C 303.475 163.758, 291.559 181.807, 294.987 199.396 C 296.500 207.161, 300.212 214.019, 305.580 218.967 C 326.277 238.045, 358.591 227.221, 364.013 199.396 C 367.488 181.565, 355.484 163.676, 337.147 159.360 C 330.397 157.772, 328.111 157.779, 321.384 159.412 M 319.054 167.728 C 313.018 169.859, 305.781 177.260, 303.667 183.463 C 297.198 202.450, 309.964 221, 329.500 221 C 337.295 221, 343.452 218.453, 348.952 212.952 C 366.571 195.333, 354.014 165.726, 329.072 166.079 C 326.007 166.122, 321.499 166.864, 319.054 167.728 M 136.370 190.765 C 134.401 192.045, 102.007 257.855, 102.594 259.384 C 103.265 261.133, 105.512 262.124, 107.274 261.448 C 107.975 261.180, 115.056 247.919, 123.010 231.980 C 130.964 216.041, 137.710 203, 138 203 C 138.290 203, 145.036 216.041, 152.990 231.980 C 160.944 247.919, 168.025 261.180, 168.726 261.448 C 170.488 262.124, 172.735 261.133, 173.406 259.384 C 173.993 257.855, 141.599 192.045, 139.630 190.765 C 139.009 190.361, 138.275 190.031, 138 190.031 C 137.725 190.031, 136.991 190.361, 136.370 190.765 " stroke="none" fill="black" fill-rule="evenodd"/>
</svg>