<svg xmlns="http://www.w3.org/2000/svg" width="308" height="324" viewBox="0 0 308 324" version="1.1">
	<path d="M 55.213 143.315 C 45.746 152.838, 38 161.131, 38 161.743 C 38 163.175, 40.813 166, 42.239 166 C 42.841 166, 49.334 160.059, 56.667 152.798 L 70 139.595 70 196.298 L 70 253 67.394 253 C 62.649 253, 52.600 249.881, 45.500 246.206 C 28.094 237.194, 14 215.481, 14 197.677 C 14 194.888, 13.395 192.538, 12.429 191.571 C 10.444 189.587, 9.546 189.597, 7.515 191.627 C 4.469 194.674, 7.737 211.569, 13.778 224 C 18.941 234.625, 32.437 248.090, 43.076 253.230 C 53.839 258.430, 71.402 262.291, 77.823 260.869 C 79.845 260.421, 84.425 259.509, 88 258.843 C 91.642 258.165, 98.427 255.671, 103.431 253.169 C 114.563 247.606, 125.743 237.013, 131.564 226.513 C 140.894 209.682, 143.164 186.631, 135.064 190.966 C 133.469 191.819, 133 193.049, 133 196.375 C 133 203.078, 129.374 215.635, 125.340 222.899 C 119.912 232.675, 109.977 241.998, 99.820 246.847 C 92.461 250.361, 83.724 253, 79.451 253 C 78.200 253, 78 245.178, 78 196.298 L 78 139.595 91.333 152.798 C 98.666 160.059, 105.101 166, 105.633 166 C 107.130 166, 109 163.776, 109 161.996 C 109 159.978, 75.844 126, 73.875 126 C 73.078 126, 64.680 133.792, 55.213 143.315 M 223.531 127.056 C 195.437 131.418, 173.313 152.439, 167.589 180.208 C 165.337 191.134, 165.478 195.650, 168.117 197.062 C 171.365 198.801, 172.656 196.613, 173.871 187.308 C 175.940 171.469, 181.277 160.826, 192.500 150.155 C 202.061 141.065, 217.241 134, 227.210 134 L 230 134 230 196.965 C 230 259.556, 230.012 259.936, 232.064 261.034 C 237.071 263.714, 237 264.644, 237 196.742 L 237 133.728 241.750 134.373 C 254.992 136.170, 270.358 144.685, 278.660 154.828 C 286.460 164.357, 292.917 180.776, 292.983 191.250 C 292.999 193.907, 291.690 194.926, 290.576 193.123 C 290.278 192.641, 287.980 191.729, 285.471 191.097 C 276.929 188.946, 267.523 193.434, 263.913 201.384 C 261.366 206.992, 261.426 211.623, 264.064 213.034 C 266.554 214.367, 269 212.787, 269 209.845 C 269 206.142, 271.869 201.119, 274.872 199.566 C 281.810 195.978, 290.013 198.974, 292.072 205.847 L 293.254 209.790 277.627 233.451 C 269.032 246.465, 262 257.672, 262 258.356 C 262 261.529, 264.428 262, 280.766 262 C 290.135 262, 297.958 261.557, 299.066 260.965 C 301.247 259.797, 301.642 256.533, 299.750 255.309 C 299.063 254.864, 292.764 254.275, 285.753 254 L 273.006 253.500 287.218 232.160 L 301.430 210.820 299.136 204.244 C 297.083 198.363, 297.008 197.575, 298.420 196.785 C 302.089 194.731, 298.988 175.815, 292.982 163.615 C 280.499 138.258, 251.089 122.777, 223.531 127.056 " stroke="none" fill="black" fill-rule="evenodd"/>
</svg>