<svg xmlns="http://www.w3.org/2000/svg" width="308" height="324" viewBox="0 0 308 324" version="1.1">
	<path d="M 39.230 159.285 L 6 192.569 6 225.713 C 6 254.511, 6.206 259.063, 7.571 260.429 C 8.968 261.825, 16.343 261.998, 73.821 261.985 C 109.395 261.976, 139.081 261.601, 139.791 261.150 C 140.805 260.507, 141.075 253.062, 141.050 226.416 L 141.019 192.500 108.259 159.234 C 90.242 140.937, 74.816 125.975, 73.980 125.984 C 73.144 125.993, 57.506 140.978, 39.230 159.285 M 43.744 165.756 L 14 195.512 14 224.756 L 14 254 74 254 L 134 254 134 224.744 L 134 195.487 104.244 165.744 C 87.878 149.385, 74.263 136, 73.988 136 C 73.713 136, 60.103 149.390, 43.744 165.756 M 221.500 191.457 C 194.067 196.641, 172.985 217.256, 167.553 244.208 C 165.356 255.113, 165.494 259.659, 168.064 261.034 C 171.305 262.769, 172.772 260.669, 173.547 253.188 C 173.929 249.510, 175.296 243.125, 176.585 239 C 183.608 216.537, 204.172 200.158, 227.895 198.132 C 235.995 197.440, 238.541 195.678, 236.394 192.250 C 234.991 190.011, 230.437 189.769, 221.500 191.457 M 286.970 191.036 C 266.148 194.188, 246.877 208.296, 237.533 227.227 C 232.794 236.828, 230.047 247.056, 230.017 255.215 C 230.003 259.003, 230.416 260.152, 232.117 261.062 C 235.374 262.806, 236.575 260.650, 237.916 250.650 C 239.337 240.057, 241.756 233.223, 246.871 225.354 C 257.114 209.593, 273.343 199.683, 291.395 198.164 C 300.010 197.439, 302.584 195.747, 300.394 192.250 C 299.116 190.210, 294.928 189.831, 286.970 191.036 " stroke="none" fill="black" fill-rule="evenodd"/>
</svg>