<svg xmlns="http://www.w3.org/2000/svg" width="403" height="324" viewBox="0 0 403 324" version="1.1">
	<path d="M 39.267 159.267 C 20.970 177.563, 6 193.056, 6 193.695 C 6 195.187, 8.799 198, 10.285 198 C 10.913 198, 25.506 183.947, 42.713 166.771 L 74 135.542 105.287 166.771 C 122.494 183.947, 137.064 198, 137.664 198 C 139.291 198, 141.212 195.312, 140.833 193.567 C 140.424 191.689, 75.041 126, 73.580 126 C 73.004 126, 57.563 140.970, 39.267 159.267 M 263.750 127.080 C 262.140 128.018, 262 130.700, 262 160.556 L 262 193.012 246 225 C 237.200 242.593, 230 257.650, 230 258.459 C 230 260.509, 233.792 262.422, 235.314 261.140 C 235.966 260.591, 243.021 247.055, 250.991 231.060 L 265.483 201.979 279.825 230.740 C 287.714 246.558, 294.867 260.045, 295.722 260.711 C 297.591 262.168, 301 260.713, 301 258.459 C 301 257.649, 293.987 242.968, 285.417 225.833 L 269.833 194.679 299.653 164.847 L 329.473 135.014 361.120 166.605 C 390.123 195.555, 392.944 198.100, 394.884 197.062 C 396.048 196.439, 397 195.155, 397 194.209 C 397 192.432, 331.260 126, 329.501 126 C 328.957 126, 315.122 139.385, 298.756 155.744 L 269 185.487 269 156.944 C 269 125.714, 268.730 124.179, 263.750 127.080 M 72.348 190.765 C 70.390 192.014, 38.011 257.865, 38.600 259.400 C 39.451 261.618, 42.109 262.213, 43.895 260.584 C 44.778 259.779, 51.794 246.493, 59.486 231.060 C 67.178 215.627, 73.709 203, 74 203 C 74.290 203, 81.036 216.041, 88.990 231.980 C 96.944 247.919, 104.083 261.201, 104.853 261.497 C 106.717 262.213, 109 260.217, 109 257.871 C 109 255.637, 77.272 191.833, 75.630 190.765 C 75.009 190.361, 74.275 190.031, 74 190.031 C 73.725 190.031, 72.981 190.361, 72.348 190.765 M 179.558 191.469 C 174.104 193.444, 170.960 195.991, 168.772 200.208 C 165.943 205.659, 165.461 210.318, 167.513 212.371 C 170.406 215.263, 171.517 214.231, 174.413 205.965 C 178.022 195.660, 191.864 195.015, 195.983 204.959 C 196.673 206.624, 197.025 208.798, 196.765 209.789 C 196.506 210.781, 189.478 221.802, 181.147 234.280 C 172.816 246.758, 166 257.595, 166 258.361 C 166 261.608, 168.598 262.051, 186.024 261.774 C 201.193 261.533, 203.418 261.288, 204.387 259.750 C 205.190 258.476, 205.190 257.524, 204.389 256.250 C 203.460 254.774, 201.232 254.422, 190.148 254 L 177.007 253.500 191.118 232.311 L 205.229 211.123 204.051 206.212 C 201.268 194.612, 189.853 187.741, 179.558 191.469 " stroke="none" fill="black" fill-rule="evenodd"/>
</svg>