<svg xmlns="http://www.w3.org/2000/svg" width="340" height="324" viewBox="0 0 340 324" version="1.1">
	<path d="M 21.882 191.753 C 18.152 194.892, 13.405 202.571, 10.860 209.581 C 7.882 217.786, 7.895 232.061, 10.889 240.419 C 13.228 246.951, 17.324 253.768, 21.901 258.750 L 24.887 262 89.872 262 C 147.616 262, 155.032 261.825, 156.429 260.429 C 157.293 259.564, 158 258.432, 158 257.913 C 158 257.394, 159.546 254.614, 161.436 251.735 C 166.678 243.748, 169.215 235.029, 169.215 225 C 169.215 212.934, 166.080 204.481, 156.789 191.500 C 156.331 190.860, 132.429 190.320, 90.316 190 L 24.558 189.500 21.882 191.753 M 23.299 201.257 C 17.819 209.332, 16.500 213.937, 16.500 225 C 16.500 234.307, 16.805 236.152, 19.188 241.235 C 20.666 244.390, 23.082 248.552, 24.557 250.485 L 27.237 254 89 254 L 150.763 254 153.442 250.487 C 154.916 248.555, 157.313 244.392, 158.769 241.237 C 161.091 236.204, 161.419 234.211, 161.443 225 C 161.472 213.927, 160.156 209.295, 154.701 201.257 L 152.500 198.014 89 198.014 L 25.500 198.014 23.299 201.257 M 199.579 255.564 C 198.710 256.432, 198 257.529, 198 258 C 198 258.471, 198.710 259.568, 199.579 260.436 C 200.990 261.847, 208.058 261.987, 266.220 261.757 C 326.934 261.517, 331.356 261.383, 332.386 259.750 C 333.191 258.474, 333.191 257.526, 332.386 256.250 C 331.356 254.617, 326.934 254.483, 266.220 254.243 C 208.058 254.013, 200.990 254.153, 199.579 255.564 M 231.750 287.080 C 229.372 288.465, 229.542 291.685, 232.064 293.034 C 235.753 295.008, 238.819 290.219, 235.800 287.200 C 234.367 285.767, 234.022 285.757, 231.750 287.080 M 295.750 287.080 C 293.372 288.465, 293.542 291.685, 296.064 293.034 C 299.753 295.008, 302.819 290.219, 299.800 287.200 C 298.367 285.767, 298.022 285.757, 295.750 287.080 " stroke="none" fill="black" fill-rule="evenodd"/>
</svg>