<svg xmlns="http://www.w3.org/2000/svg" width="308" height="324" viewBox="0 0 308 324" version="1.1">
	<path d="M 286.970 127.036 C 266.148 130.188, 246.877 144.296, 237.533 163.227 C 233.382 171.636, 230.062 182.911, 230.017 188.750 C 230.004 190.533, 229.430 191, 227.250 191.001 C 222.916 191.002, 212.910 196.311, 208.210 201.101 C 205.851 203.507, 202.716 207.956, 201.244 210.987 C 198.948 215.715, 198.567 217.781, 198.567 225.500 C 198.567 233.219, 198.948 235.285, 201.244 240.013 C 208.666 255.297, 225.889 263.633, 241.490 259.491 C 275.754 250.394, 277.031 202.457, 243.287 192.016 C 240.320 191.098, 237.856 190.037, 237.811 189.657 C 237.491 186.972, 239.359 177.115, 241.039 172.625 C 248.942 151.502, 269.197 136.032, 291.395 134.164 C 300.010 133.439, 302.584 131.747, 300.394 128.250 C 299.116 126.210, 294.928 125.831, 286.970 127.036 M 20.169 193.460 C 12.479 202.218, 8.620 212.757, 8.619 225 C 8.618 238.017, 12.746 248.480, 21.814 258.446 L 25.062 262.014 90.172 261.757 C 153.647 261.506, 155.310 261.451, 156.391 259.541 C 157.001 258.463, 158.933 255.418, 160.685 252.774 C 165.908 244.888, 168.251 237.528, 168.764 227.394 C 169.426 214.334, 166.135 203.897, 158.312 194.250 L 154.866 190 89.037 190 L 23.207 190 20.169 193.460 M 22.005 203.250 C 13.196 218.488, 14.210 237.098, 24.591 250.708 L 27.102 254 88.929 254 L 150.756 254 154.351 248.750 C 159.767 240.839, 161.302 235.781, 161.408 225.500 C 161.513 215.261, 159.677 208.616, 154.937 202.072 L 151.987 198 88.514 198 L 25.040 198 22.005 203.250 M 224.994 198.934 C 205.612 204.830, 199.176 230.099, 213.301 244.838 C 220.789 252.650, 233.836 255.277, 243.820 250.982 C 253.439 246.844, 261 235.630, 261 225.500 C 261 215.480, 253.989 204.797, 244.500 200.358 C 239.347 197.948, 230.386 197.294, 224.994 198.934 " stroke="none" fill="black" fill-rule="evenodd"/>
</svg>