<svg xmlns="http://www.w3.org/2000/svg" width="340" height="324" viewBox="0 0 340 324" version="1.1">
	<path d="M 281.011 173.499 L 233.474 220.998 217.999 205.499 C 209.488 196.975, 202.213 190, 201.834 190 C 200.736 190, 198 193.033, 198 194.249 C 198 194.857, 204.844 202.250, 213.208 210.677 L 228.416 226 213.208 241.323 C 204.844 249.750, 198 257.143, 198 257.751 C 198 258.967, 200.736 262, 201.834 262 C 202.213 262, 209.482 255.031, 217.987 246.514 L 233.449 231.027 249.045 246.514 C 257.623 255.031, 265.082 262, 265.621 262 C 267.106 262, 269 259.793, 269 258.062 C 269 257.216, 262.141 249.654, 253.758 241.258 L 238.516 225.992 285.758 178.742 C 311.741 152.755, 333 130.796, 333 129.946 C 333 128.186, 331.102 126, 329.574 126 C 329.010 126, 307.157 147.375, 281.011 173.499 M 19.544 194.220 C 4.003 212.375, 4.978 239.944, 21.814 258.446 L 25.062 262.014 90.215 261.757 L 155.368 261.500 158.153 257 C 167.104 242.535, 169.183 236.387, 169.150 224.480 C 169.123 214.971, 166.648 206.480, 161.605 198.596 C 155.510 189.068, 163.379 190, 89.006 190 L 23.156 190 19.544 194.220 M 22.005 203.250 C 13.176 218.522, 14.167 236.864, 24.557 250.485 L 27.237 254 89 254 L 150.763 254 153.443 250.485 C 154.918 248.552, 157.330 244.390, 158.803 241.235 C 161.172 236.165, 161.483 234.283, 161.491 225 C 161.500 213.934, 160.187 209.340, 154.701 201.257 L 152.500 198.014 88.770 198.007 L 25.040 198 22.005 203.250 " stroke="none" fill="black" fill-rule="evenodd"/>
</svg>