<svg xmlns="http://www.w3.org/2000/svg" width="403" height="324" viewBox="0 0 403 324" version="1.1">
	<path d="M 39.267 159.267 C 20.970 177.563, 6 193.056, 6 193.695 C 6 195.187, 8.799 198, 10.285 198 C 10.913 198, 25.506 183.947, 42.713 166.771 L 74 135.542 105.287 166.771 C 122.494 183.947, 137.064 198, 137.664 198 C 139.275 198, 141.215 195.317, 140.833 193.618 C 140.387 191.638, 75.244 126, 73.725 126 C 73.069 126, 57.563 140.970, 39.267 159.267 M 263.244 159.256 C 244.960 177.546, 230 193.280, 230 194.220 C 230 195.160, 230.961 196.444, 232.136 197.073 C 234.102 198.125, 236.791 195.698, 265.892 166.608 L 297.512 135 327.336 164.836 L 357.160 194.672 341.336 226.338 C 328.353 252.320, 325.711 258.318, 326.615 259.752 C 327.630 261.360, 330.429 261.500, 361.500 261.500 C 392.573 261.500, 395.370 261.360, 396.385 259.752 C 397.290 258.317, 394.576 252.177, 381.244 225.498 L 365 192.992 365 160.531 C 365 130.460, 364.869 128, 363.224 127.120 C 362.098 126.517, 360.818 126.522, 359.724 127.134 C 358.154 128.013, 358 130.669, 358 156.793 L 358 185.487 328.244 155.744 C 311.878 139.385, 298.038 126, 297.488 126 C 296.939 126, 281.529 140.965, 263.244 159.256 M 72.348 190.765 C 70.390 192.014, 38.011 257.865, 38.600 259.400 C 39.451 261.618, 42.109 262.213, 43.895 260.584 C 44.778 259.779, 51.794 246.493, 59.486 231.060 C 67.178 215.627, 73.709 203, 74 203 C 74.290 203, 81.036 216.041, 88.990 231.980 C 96.944 247.919, 104.083 261.201, 104.853 261.497 C 106.717 262.213, 109 260.217, 109 257.871 C 109 255.637, 77.272 191.833, 75.630 190.765 C 75.009 190.361, 74.275 190.031, 74 190.031 C 73.725 190.031, 72.981 190.361, 72.348 190.765 M 179.558 191.469 C 174.104 193.444, 170.960 195.991, 168.772 200.208 C 165.943 205.659, 165.461 210.318, 167.513 212.371 C 170.406 215.263, 171.517 214.231, 174.413 205.965 C 178.022 195.660, 191.864 195.015, 195.983 204.959 C 196.673 206.624, 197.025 208.798, 196.765 209.789 C 196.506 210.781, 189.478 221.802, 181.147 234.280 C 172.816 246.758, 166 257.595, 166 258.361 C 166 261.608, 168.598 262.051, 186.024 261.774 C 201.193 261.533, 203.418 261.288, 204.387 259.750 C 205.190 258.476, 205.190 257.524, 204.389 256.250 C 203.460 254.774, 201.232 254.422, 190.148 254 L 177.007 253.500 191.118 232.311 L 205.229 211.123 204.051 206.212 C 201.268 194.612, 189.853 187.741, 179.558 191.469 M 348.744 227.500 C 341.735 241.531, 336 253.233, 336 253.505 C 336 253.777, 347.475 254, 361.500 254 C 375.525 254, 386.976 253.662, 386.946 253.250 C 386.917 252.838, 381.176 241.135, 374.190 227.245 L 361.487 201.989 348.744 227.500 " stroke="none" fill="black" fill-rule="evenodd"/>
</svg>