<svg xmlns="http://www.w3.org/2000/svg" width="308" height="324" viewBox="0 0 308 324" version="1.1">
	<path d="M 64.500 126.944 C 56.325 128.268, 50.930 129.991, 43 133.814 C 32.444 138.903, 18.927 152.404, 13.778 163 C 7.648 175.615, 4.334 193.191, 7.491 196.348 C 10.992 199.850, 14 196.834, 14 189.823 C 14 171.378, 27.743 149.988, 45.500 140.794 C 52.600 137.119, 62.649 134, 67.394 134 L 70 134 70 191.202 L 70 248.405 56.667 235.202 C 49.334 227.941, 42.841 222, 42.239 222 C 40.813 222, 38 224.825, 38 226.257 C 38 227.809, 72.136 262, 73.686 262 C 75.250 262, 108.374 228.439, 108.833 226.390 C 109.210 224.706, 107.285 222, 105.710 222 C 105.136 222, 98.666 227.941, 91.333 235.202 L 78 248.405 78 191.202 C 78 141.885, 78.200 134, 79.451 134 C 83.724 134, 92.461 136.639, 99.820 140.153 C 109.977 145.002, 119.912 154.325, 125.340 164.101 C 129.365 171.350, 133 183.919, 133 190.589 C 133 194.479, 134.839 198, 136.871 198 C 140.482 198, 141.008 188.263, 138.028 176.609 C 134.978 164.686, 129.782 155.740, 120.457 146.361 C 113.703 139.568, 110.806 137.478, 102.933 133.719 C 97.745 131.242, 91.475 128.743, 89 128.165 C 82.400 126.623, 70.232 126.016, 64.500 126.944 M 226.355 126.992 C 216.125 129.133, 205.179 138.016, 200.788 147.741 C 197.735 154.501, 197.735 168.499, 200.788 175.259 C 203.253 180.719, 211.018 189.441, 215.456 191.736 C 218.299 193.206, 218.362 193.362, 216.533 194.399 C 211.738 197.116, 203.815 205.688, 201.291 210.888 C 198.945 215.721, 198.566 217.749, 198.562 225.500 C 198.558 233.151, 198.943 235.287, 201.133 239.750 C 202.549 242.637, 203.391 245, 203.004 245 C 201.532 245, 194.299 239.082, 189.435 233.898 C 180.486 224.360, 175.839 214.282, 173.919 200.244 C 172.708 191.394, 171.346 189.209, 168.117 190.938 C 165.498 192.339, 165.373 196.049, 167.583 206.746 C 172.167 228.941, 188.397 248.336, 208.854 256.068 C 217.041 259.163, 233.322 261.864, 237.822 260.875 C 239.845 260.431, 244.650 259.378, 248.500 258.535 C 267.158 254.450, 284.393 240.831, 292.982 223.385 C 299.110 210.938, 302.001 193.141, 298.224 191.120 C 295.451 189.636, 293.003 191.588, 292.983 195.300 C 292.948 201.722, 289.942 212.691, 286.055 220.577 C 281.777 229.257, 274.736 237.389, 266.799 242.815 L 262.097 246.029 264.693 240.359 C 271.718 225.015, 266.841 206.480, 253.268 196.941 L 248.204 193.381 252.579 190.613 C 272.167 178.221, 272.979 147.282, 254.081 133.412 C 246.413 127.784, 235.094 125.163, 226.355 126.992 M 222 136.079 C 216.133 138.731, 211.447 143.297, 208.223 149.500 C 202.922 159.702, 205.440 173.354, 214.161 181.693 C 217.637 185.017, 225.223 188.940, 228.250 188.978 C 229.875 188.998, 230 187.032, 230 161.500 C 230 130.432, 230.559 132.209, 222 136.079 M 237 161.500 C 237 182.839, 237.280 188.998, 238.250 188.990 C 241.395 188.966, 249.891 183.877, 253.683 179.746 C 257.999 175.045, 261 167.561, 261 161.500 C 261 155.439, 257.999 147.955, 253.683 143.254 C 249.891 139.123, 241.395 134.034, 238.250 134.010 C 237.280 134.002, 237 140.161, 237 161.500 M 222 200.079 C 216.133 202.731, 211.447 207.297, 208.223 213.500 C 202.922 223.702, 205.440 237.354, 214.161 245.693 C 217.637 249.017, 225.223 252.940, 228.250 252.978 C 229.875 252.998, 230 251.032, 230 225.500 C 230 194.432, 230.559 196.209, 222 200.079 M 237 225.500 C 237 246.839, 237.280 252.998, 238.250 252.990 C 241.395 252.966, 249.891 247.877, 253.683 243.746 C 257.999 239.045, 261 231.561, 261 225.500 C 261 219.439, 257.999 211.955, 253.683 207.254 C 249.891 203.123, 241.395 198.034, 238.250 198.010 C 237.280 198.002, 237 204.161, 237 225.500 " stroke="none" fill="black" fill-rule="evenodd"/>
</svg>