<svg xmlns="http://www.w3.org/2000/svg" width="244" height="324" viewBox="0 0 244 324" version="1.1">
	<path d="M 103.200 127.200 C 101.465 128.935, 101.465 259.065, 103.200 260.800 C 104.109 261.709, 120.172 261.996, 169.450 261.985 C 205.227 261.976, 235.072 261.606, 235.772 261.162 C 237.639 259.977, 237.639 128.023, 235.772 126.838 C 235.072 126.394, 205.228 126.024, 169.450 126.015 C 120.172 126.004, 104.109 126.291, 103.200 127.200 M 110 194 L 110 254 170 254 L 230 254 230 194 L 230 134 170 134 L 110 134 110 194 M 135.571 159.571 C 134.707 160.436, 134 161.644, 134 162.257 C 134 163.828, 168.146 198, 169.717 198 C 171.298 198, 204.368 164.464, 204.833 162.389 C 205.211 160.701, 203.283 158, 201.700 158 C 201.120 158, 193.750 164.844, 185.323 173.208 L 170 188.416 154.677 173.208 C 146.250 164.844, 138.857 158, 138.249 158 C 137.640 158, 136.436 158.707, 135.571 159.571 M 40.348 190.765 C 38.390 192.014, 6.011 257.865, 6.600 259.400 C 7.266 261.135, 9.518 262.122, 11.274 261.448 C 11.975 261.180, 19.056 247.919, 27.010 231.980 C 34.964 216.041, 41.710 203, 42 203 C 42.290 203, 49.036 216.041, 56.990 231.980 C 64.944 247.919, 72.025 261.180, 72.726 261.448 C 74.488 262.124, 76.735 261.133, 77.406 259.384 C 77.993 257.855, 45.599 192.045, 43.630 190.765 C 43.009 190.361, 42.275 190.031, 42 190.031 C 41.725 190.031, 40.981 190.361, 40.348 190.765 " stroke="none" fill="black" fill-rule="evenodd"/>
</svg>