<svg xmlns="http://www.w3.org/2000/svg" width="500" height="324" viewBox="0 0 500 324" version="1.1">
	<path d="M 39.571 127.571 C 38.176 128.966, 38 136.152, 38 191.571 L 38 254 23.571 254 C 11.788 254, 8.855 254.288, 7.571 255.571 C 5.598 257.545, 5.598 258.455, 7.571 260.429 C 8.936 261.793, 13.463 262, 42 262 C 70.537 262, 75.064 261.793, 76.429 260.429 C 77.293 259.564, 78 258.471, 78 258 C 78 257.529, 77.293 256.436, 76.429 255.571 C 75.145 254.288, 72.212 254, 60.429 254 L 46 254 46 191.571 C 46 136.152, 45.824 128.966, 44.429 127.571 C 43.564 126.707, 42.471 126, 42 126 C 41.529 126, 40.436 126.707, 39.571 127.571 M 199.750 127.080 C 197.422 128.436, 197.524 131.675, 199.934 132.965 C 201.208 133.646, 223.063 134, 263.934 134 L 326 134 326 194 L 326 254 263.934 254 C 223.063 254, 201.208 254.354, 199.934 255.035 C 198.870 255.605, 198 256.939, 198 258 C 198 259.061, 198.870 260.395, 199.934 260.965 C 202.024 262.083, 328.545 262.495, 331.418 261.393 C 332.839 260.848, 333 253.978, 333 194 C 333 134.022, 332.839 127.152, 331.418 126.607 C 328.583 125.519, 201.647 125.975, 199.750 127.080 M 414.970 126.997 C 393.955 130.326, 374.868 144.313, 365.533 163.227 C 358.462 177.553, 358.037 180.934, 358.017 223.050 C 358.004 250.164, 358.310 259.910, 359.200 260.800 C 360.109 261.709, 376.200 262, 425.500 262 C 474.800 262, 490.891 261.709, 491.800 260.800 C 493.366 259.234, 493.465 198.513, 491.920 187.322 C 488.489 162.466, 475.368 143.614, 454.500 133.554 C 449.550 131.168, 443.463 128.736, 440.974 128.150 C 434.287 126.575, 421.278 125.998, 414.970 126.997 M 410.601 135.534 C 407.357 136.352, 401.732 138.460, 398.101 140.218 C 389.061 144.595, 376.504 157.080, 372.125 166.045 C 365.906 178.774, 365.722 180.191, 365.263 218.750 L 364.843 254 425.422 254 L 486 254 485.982 226.250 C 485.963 197.749, 484.717 183.046, 481.569 174.171 C 475.483 157.017, 461.482 142.881, 444.723 136.971 C 436.581 134.100, 419.197 133.368, 410.601 135.534 M 103.585 159.558 C 102.713 160.430, 102 161.529, 102 162 C 102 162.471, 102.713 163.570, 103.585 164.442 C 104.978 165.835, 109.159 165.995, 138.226 165.763 C 168.452 165.523, 171.377 165.350, 172.386 163.750 C 173.191 162.474, 173.191 161.526, 172.386 160.250 C 171.377 158.650, 168.452 158.477, 138.226 158.237 C 109.159 158.005, 104.978 158.165, 103.585 159.558 M 103.585 223.558 C 102.713 224.430, 102 225.529, 102 226 C 102 226.471, 102.713 227.570, 103.585 228.442 C 104.978 229.835, 109.159 229.995, 138.226 229.763 C 168.452 229.523, 171.377 229.350, 172.386 227.750 C 173.191 226.474, 173.191 225.526, 172.386 224.250 C 171.377 222.650, 168.452 222.477, 138.226 222.237 C 109.159 222.005, 104.978 222.165, 103.585 223.558 " stroke="none" fill="black" fill-rule="evenodd"/>
</svg>