<svg xmlns="http://www.w3.org/2000/svg" width="308" height="324" viewBox="0 0 308 324" version="1.1">
	<path d="M 39.230 159.285 L 6 192.569 6 225.713 C 6 254.511, 6.206 259.063, 7.571 260.429 C 8.968 261.825, 16.343 261.998, 73.821 261.985 C 109.395 261.976, 139.081 261.601, 139.791 261.150 C 140.806 260.507, 141.073 253.071, 141.039 226.416 L 140.997 192.500 108.211 159.250 C 90.179 140.963, 74.758 126, 73.943 126 C 73.127 126, 57.506 140.978, 39.230 159.285 M 43.744 165.756 L 14 195.512 14 224.756 L 14 254 74 254 L 134 254 134 224.744 L 134 195.487 104.244 165.744 C 87.878 149.385, 74.263 136, 73.988 136 C 73.713 136, 60.103 149.390, 43.744 165.756 M 231.534 159.351 C 227.248 162.486, 232.216 177.784, 240.110 185.757 L 244.312 190 207.090 190 C 183.345 190, 169.168 190.375, 167.934 191.035 C 166.870 191.605, 166 192.939, 166 194 C 166 197.203, 169.276 198, 182.434 198 C 189.345 198, 195 198.228, 195 198.507 C 195 198.785, 188.475 212.057, 180.500 228 C 172.525 243.943, 166 257.649, 166 258.458 C 166 260.785, 169.808 262.404, 171.663 260.865 C 172.507 260.164, 179.622 246.749, 187.474 231.052 L 201.750 202.514 216.399 231.797 C 224.455 247.903, 231.746 261.349, 232.601 261.677 C 233.456 262.005, 234.763 261.649, 235.506 260.887 C 236.249 260.124, 243.210 246.734, 250.975 231.130 C 258.740 215.527, 265.410 203.069, 265.797 203.447 C 266.184 203.826, 273.025 217.042, 281 232.817 C 295.925 262.340, 297.431 264.434, 300.384 259.752 C 301.288 258.320, 298.831 252.690, 286.743 228.498 C 278.635 212.269, 272 198.781, 272 198.524 C 272 198.267, 278.139 197.931, 285.643 197.778 C 297.360 197.539, 299.441 197.253, 300.388 195.750 C 302.527 192.353, 299.999 190.532, 292.690 190.205 L 286.089 189.911 290.147 185.853 C 297.603 178.397, 302.603 162.405, 298.533 159.028 C 295.786 156.748, 293.783 158.970, 292.379 165.857 C 289.481 180.065, 278.942 188.956, 265 188.956 C 251.026 188.956, 239.823 179.195, 237.508 165 C 236.799 160.653, 235.495 158, 234.069 158 C 233.691 158, 232.551 158.608, 231.534 159.351 M 212.418 207.250 C 218.906 221.201, 232.945 249, 233.502 249 C 233.990 249, 259 199.474, 259 198.508 C 259 198.228, 247.551 198, 233.558 198 L 208.116 198 212.418 207.250 " stroke="none" fill="black" fill-rule="evenodd"/>
</svg>