<svg xmlns="http://www.w3.org/2000/svg" width="276" height="324" viewBox="0 0 276 324" version="1.1">
	<path d="M 39.571 127.571 C 38.176 128.966, 38 136.152, 38 191.571 L 38 254 23.571 254 C 11.788 254, 8.855 254.288, 7.571 255.571 C 5.598 257.545, 5.598 258.455, 7.571 260.429 C 8.936 261.793, 13.463 262, 42 262 C 70.537 262, 75.064 261.793, 76.429 260.429 C 77.293 259.564, 78 258.471, 78 258 C 78 257.529, 77.293 256.436, 76.429 255.571 C 75.145 254.288, 72.212 254, 60.429 254 L 46 254 46 191.571 C 46 136.152, 45.824 128.966, 44.429 127.571 C 43.564 126.707, 42.471 126, 42 126 C 41.529 126, 40.436 126.707, 39.571 127.571 M 232.370 126.765 C 230.401 128.045, 198.007 193.855, 198.594 195.384 C 199.265 197.133, 201.512 198.124, 203.274 197.448 C 203.975 197.180, 211.056 183.919, 219.010 167.980 C 226.964 152.041, 233.710 139, 234 139 C 234.290 139, 241.036 152.041, 248.990 167.980 C 256.944 183.919, 264.025 197.180, 264.726 197.448 C 266.488 198.124, 268.735 197.133, 269.406 195.384 C 269.993 193.855, 237.599 128.045, 235.630 126.765 C 235.009 126.361, 234.275 126.031, 234 126.031 C 233.725 126.031, 232.991 126.361, 232.370 126.765 M 103.571 159.571 C 102.707 160.436, 102 161.529, 102 162 C 102 162.471, 102.707 163.564, 103.571 164.429 C 104.936 165.793, 109.463 166, 138 166 C 166.537 166, 171.064 165.793, 172.429 164.429 C 173.293 163.564, 174 162.471, 174 162 C 174 161.529, 173.293 160.436, 172.429 159.571 C 171.064 158.207, 166.537 158, 138 158 C 109.463 158, 104.936 158.207, 103.571 159.571 M 232.370 190.765 C 230.401 192.045, 198.007 257.855, 198.594 259.384 C 199.265 261.133, 201.512 262.124, 203.274 261.448 C 203.975 261.180, 211.056 247.919, 219.010 231.980 C 226.964 216.041, 233.710 203, 234 203 C 234.290 203, 241.036 216.041, 248.990 231.980 C 256.944 247.919, 264.025 261.180, 264.726 261.448 C 266.488 262.124, 268.735 261.133, 269.406 259.384 C 269.993 257.855, 237.599 192.045, 235.630 190.765 C 235.009 190.361, 234.275 190.031, 234 190.031 C 233.725 190.031, 232.991 190.361, 232.370 190.765 M 103.571 223.571 C 102.707 224.436, 102 225.529, 102 226 C 102 226.471, 102.707 227.564, 103.571 228.429 C 104.936 229.793, 109.463 230, 138 230 C 166.537 230, 171.064 229.793, 172.429 228.429 C 173.293 227.564, 174 226.471, 174 226 C 174 225.529, 173.293 224.436, 172.429 223.571 C 171.064 222.207, 166.537 222, 138 222 C 109.463 222, 104.936 222.207, 103.571 223.571 " stroke="none" fill="black" fill-rule="evenodd"/>
</svg>