<svg xmlns="http://www.w3.org/2000/svg" width="468" height="324" viewBox="0 0 468 324" version="1.1">
	<path d="M 224.500 126.944 C 208.656 129.509, 198.142 134.833, 186.916 145.978 C 175.076 157.731, 169 169.406, 167.196 183.870 L 166.493 189.500 135.209 190 C 108.866 190.421, 103.775 190.737, 102.978 192 C 101.681 194.053, 101.756 194.613, 103.571 196.429 C 104.931 197.788, 109.242 198, 135.571 198 L 166 198 166 228.429 C 166 254.758, 166.212 259.069, 167.571 260.429 C 168.968 261.825, 176.372 262, 234 262 C 291.628 262, 299.032 261.825, 300.429 260.429 C 301.791 259.066, 302 254.649, 302 227.239 C 302 208.625, 301.548 193.128, 300.902 189.560 C 296.771 166.761, 293.128 159.051, 280.539 146.461 C 270.721 136.644, 262.174 131.566, 250.500 128.618 C 242.811 126.676, 230.896 125.909, 224.500 126.944 M 327.571 127.571 C 326.707 128.436, 326 129.619, 326 130.200 C 326 130.782, 329.872 135.215, 334.605 140.051 L 343.210 148.845 339.558 153.628 C 332.546 162.812, 327.979 175.045, 326.503 188.598 C 325.964 193.549, 326.150 195.007, 327.491 196.348 C 329.547 198.404, 330.439 198.418, 332.429 196.429 C 333.379 195.478, 334 193.126, 334 190.478 C 334 180.823, 338.370 168.136, 345.031 158.455 L 348.244 153.785 357.045 162.545 L 365.845 171.304 363.011 176.402 C 351.250 197.560, 363.296 223.087, 387.357 227.992 C 394.833 229.516, 403.738 227.986, 410.623 223.993 L 415.500 221.165 436.054 241.583 C 447.359 252.812, 457.115 262, 457.733 262 C 459.186 262, 462 259.186, 462 257.733 C 462 257.115, 452.812 247.359, 441.583 236.054 L 421.165 215.500 423.993 210.623 C 431.943 196.914, 429.154 178.849, 417.420 168.033 C 405.827 157.347, 390.063 155.417, 376.402 163.011 L 371.304 165.845 362.545 157.045 L 353.785 148.244 358.455 145.031 C 369.199 137.639, 380.760 134, 393.500 134 C 403.696 134, 410.060 135.495, 420 140.225 C 438.844 149.193, 453 170.749, 453 190.478 C 453 193.126, 453.621 195.478, 454.571 196.429 C 456.561 198.418, 457.453 198.404, 459.509 196.348 C 462.666 193.191, 459.352 175.615, 453.222 163 C 448.088 152.433, 434.567 138.912, 424 133.778 C 413.240 128.549, 405.257 126.696, 393.500 126.696 C 378.463 126.696, 364.602 131.179, 353.551 139.617 L 348.845 143.210 340.051 134.605 C 335.215 129.872, 330.782 126, 330.200 126 C 329.619 126, 328.436 126.707, 327.571 127.571 M 219.217 135.449 C 198.050 140.575, 179.428 159.713, 175.090 180.799 C 173.004 190.940, 170.541 190, 199.202 190 L 224.405 190 211.202 176.667 C 203.941 169.334, 198 162.841, 198 162.239 C 198 160.813, 200.825 158, 202.257 158 C 204.006 158, 238 192.239, 238 194 C 238 195.761, 204.006 230, 202.257 230 C 200.825 230, 198 227.187, 198 225.761 C 198 225.159, 203.941 218.666, 211.202 211.333 L 224.405 198 199.202 198 L 174 198 174 226 L 174 254 234.114 254 L 294.228 254 293.702 219.750 C 293.382 198.896, 292.716 183.544, 291.999 180.500 C 287.988 163.461, 275.319 147.515, 260 140.225 C 255.325 138, 249.115 135.690, 246.201 135.090 C 239.260 133.662, 225.861 133.841, 219.217 135.449 M 33.384 159.412 C 15.475 163.758, 3.559 181.807, 6.987 199.396 C 8.500 207.161, 12.212 214.019, 17.580 218.967 C 38.277 238.045, 70.591 227.221, 76.013 199.396 C 79.488 181.565, 67.484 163.676, 49.147 159.360 C 42.397 157.772, 40.111 157.779, 33.384 159.412 M 31.054 167.728 C 25.018 169.859, 17.781 177.260, 15.667 183.463 C 11.995 194.241, 14.382 205.477, 21.952 213.048 C 32.673 223.769, 50.327 223.769, 61.048 213.048 C 71.769 202.327, 71.769 184.673, 61.048 173.952 C 53.519 166.424, 41.696 163.970, 31.054 167.728 M 383.605 167.568 C 375.639 170.488, 375.200 169.679, 396.134 190.634 C 410.334 204.848, 415.720 209.648, 416.625 208.896 C 418.661 207.206, 421 198.976, 421 193.500 C 421 177.674, 408.981 165.869, 393.072 166.070 C 390.007 166.109, 385.747 166.783, 383.605 167.568 M 370.189 178.272 C 368.028 180.876, 366 188.222, 366 193.448 C 366 209.109, 377.869 221, 393.500 221 C 398.976 221, 407.206 218.661, 408.896 216.625 C 409.648 215.720, 404.848 210.334, 390.634 196.134 C 374.891 180.407, 371.139 177.128, 370.189 178.272 " stroke="none" fill="black" fill-rule="evenodd"/>
</svg>