<svg xmlns="http://www.w3.org/2000/svg" width="312" height="324" viewBox="0 0 312 324" version="1.1">
	<path d="M 23.315 143.213 L 6 160.425 6 193.641 C 6 222.504, 6.206 227.063, 7.571 228.429 C 8.937 229.794, 13.496 230, 42.359 230 L 75.575 230 92.787 212.685 L 110 195.370 110 161.885 C 110 137.174, 109.686 128.086, 108.800 127.200 C 107.914 126.314, 98.826 126, 74.115 126 L 40.630 126 23.315 143.213 M 216.372 126.765 C 215.752 127.169, 211.812 134.363, 207.616 142.750 L 199.987 158 184.565 158 C 171.878 158, 168.864 158.279, 167.571 159.571 C 165.598 161.545, 165.598 162.455, 167.571 164.429 C 168.844 165.701, 171.697 166, 182.575 166 L 196.007 166 182 194 L 167.993 222 152.568 222 C 139.878 222, 136.864 222.279, 135.571 223.571 C 133.598 225.545, 133.598 226.455, 135.571 228.429 C 136.844 229.701, 139.698 230, 150.578 230 L 164.013 230 157.022 243.957 C 153.176 251.633, 150.283 258.574, 150.592 259.380 C 151.265 261.133, 153.511 262.125, 155.275 261.448 C 155.977 261.179, 160.025 253.993, 164.271 245.479 L 171.992 230 200.003 230 L 228.013 230 221.022 243.957 C 217.176 251.633, 214.283 258.574, 214.592 259.380 C 215.265 261.133, 217.511 262.125, 219.275 261.448 C 219.977 261.179, 224.025 253.993, 228.271 245.479 L 235.992 230 251.424 230 C 264.121 230, 267.136 229.721, 268.429 228.429 C 269.293 227.564, 270 226.471, 270 226 C 270 225.529, 269.293 224.436, 268.429 223.571 C 267.156 222.299, 264.303 222, 253.425 222 L 239.993 222 254 194 L 268.007 166 283.432 166 C 296.122 166, 299.136 165.721, 300.429 164.429 C 302.402 162.455, 302.402 161.545, 300.429 159.571 C 299.156 158.299, 296.302 158, 285.422 158 L 271.987 158 278.978 144.043 C 282.824 136.367, 285.717 129.426, 285.408 128.620 C 284.735 126.867, 282.489 125.875, 280.725 126.552 C 280.023 126.821, 275.975 134.007, 271.729 142.521 L 264.008 158 235.997 158 L 207.987 158 214.993 144.013 C 218.847 136.321, 222 129.828, 222 129.585 C 222 128.874, 218.921 125.999, 218.179 126.015 C 217.805 126.024, 216.993 126.361, 216.372 126.765 M 31.500 146 L 19.531 158 46.031 158 L 72.531 158 84.500 146 L 96.469 134 69.969 134 L 43.469 134 31.500 146 M 89.750 151.749 L 78 163.530 78 190.010 L 78 216.490 90.017 204.473 L 102.034 192.456 101.767 166.211 L 101.500 139.967 89.750 151.749 M 14 194 L 14 222 42 222 L 70 222 70 194 L 70 166 42 166 L 14 166 14 194 M 190 194 L 175.993 222 203.993 222 L 231.993 222 246 194 L 260.007 166 232.007 166 L 204.007 166 190 194 " stroke="none" fill="black" fill-rule="evenodd"/>
</svg>