<svg xmlns="http://www.w3.org/2000/svg" width="403" height="324" viewBox="0 0 403 324" version="1.1">
	<path d="M 7.571 127.571 C 6.175 128.968, 6 136.372, 6 194 C 6 251.628, 6.175 259.032, 7.571 260.429 C 8.968 261.825, 16.372 262, 74 262 C 131.628 262, 139.032 261.825, 140.429 260.429 C 141.825 259.033, 142 251.687, 142 194.651 C 142 138.158, 141.813 130.178, 140.443 128.223 C 138.598 125.588, 137.678 125.465, 135.571 127.571 C 134.176 128.966, 134 136.152, 134 191.571 L 134 254 74 254 L 14 254 14 191.571 C 14 136.152, 13.824 128.966, 12.429 127.571 C 11.564 126.707, 10.471 126, 10 126 C 9.529 126, 8.436 126.707, 7.571 127.571 M 295.750 127.080 C 294.186 127.991, 294 130.007, 294 146.015 C 294 163.091, 294.097 163.981, 296.064 165.034 C 300.445 167.379, 301 165.247, 301 146.078 C 301 126.416, 300.430 124.354, 295.750 127.080 M 327.750 127.080 C 326.788 127.641, 326 128.859, 326 129.788 C 326 130.717, 332.857 138.344, 341.238 146.738 L 356.476 162 341.238 177.262 C 332.857 185.656, 326 193.216, 326 194.062 C 326 196.808, 328.297 198, 333.585 198 L 338.770 198 335.338 201.747 C 333.450 203.808, 330.689 207.971, 329.203 210.997 C 326.874 215.739, 326.500 217.744, 326.500 225.500 C 326.500 233.347, 326.861 235.235, 329.318 240.239 C 336.798 255.471, 353.364 263.545, 369.037 259.597 C 394.664 253.142, 404.341 222.987, 387.414 202.330 L 383.866 198 389.233 198 C 394.690 198, 397 196.829, 397 194.062 C 397 193.216, 390.143 185.656, 381.762 177.262 L 366.524 162 381.862 146.638 C 397.402 131.074, 398.681 129.088, 394.754 126.615 C 393.261 125.675, 390.723 127.797, 377.242 141.258 L 361.477 157.001 346 141.500 C 337.488 132.975, 330.294 126.014, 330.012 126.030 C 329.730 126.047, 328.712 126.519, 327.750 127.080 M 68.764 158.996 C 63.184 160.676, 59.145 164.067, 56.571 169.234 C 55.157 172.071, 54 175.397, 54 176.625 C 54 178.839, 56.353 182, 58 182 C 59.861 182, 62 178.700, 62 175.829 C 62 173.718, 63.030 171.770, 65.400 169.400 C 68.302 166.498, 69.488 166, 73.500 166 C 77.512 166, 78.698 166.498, 81.600 169.400 C 84.502 172.302, 85 173.488, 85 177.500 C 85 181.512, 84.502 182.698, 81.600 185.600 C 79.526 187.674, 77.214 189, 75.671 189 C 71.012 189, 70 191.231, 70 201.500 C 70 208.673, 70.367 211.224, 71.571 212.429 C 72.436 213.293, 73.529 214, 74 214 C 76.696 214, 78 210.576, 78 203.496 C 78 196.935, 78.225 196.064, 80.066 195.479 C 83.091 194.519, 88.861 189.169, 90.694 185.625 C 91.569 183.932, 92.286 180.276, 92.286 177.500 C 92.286 171.499, 90.366 167.406, 85.578 163.203 C 80.492 158.737, 74.556 157.252, 68.764 158.996 M 263.750 159.082 C 262.788 159.642, 262 160.858, 262 161.786 C 262 162.714, 267.956 169.442, 275.236 176.737 L 288.472 190 229.170 190 C 190.204 190, 169.205 190.355, 167.934 191.035 C 165.446 192.367, 165.446 195.633, 167.934 196.965 C 169.205 197.645, 190.204 198, 229.170 198 L 288.472 198 275.236 211.263 C 267.956 218.558, 262 225.292, 262 226.228 C 262 227.164, 262.954 228.440, 264.120 229.064 C 266.049 230.097, 267.785 228.687, 283.471 213.349 C 293.859 203.191, 300.762 195.679, 300.851 194.432 C 300.955 192.986, 295.880 187.274, 283.968 175.432 C 274.600 166.120, 266.613 158.402, 266.218 158.282 C 265.823 158.162, 264.712 158.522, 263.750 159.082 M 350 178.500 L 338.533 190 361.500 190 L 384.467 190 373 178.500 C 366.693 172.175, 361.518 167, 361.500 167 C 361.482 167, 356.307 172.175, 350 178.500 M 349.500 200.353 C 343.873 202.979, 337.871 209.089, 335.378 214.728 C 334.340 217.077, 333.711 221.141, 333.711 225.500 C 333.711 233.703, 335.431 238.254, 340.773 244.179 C 348.616 252.880, 361.913 255.582, 372.538 250.634 C 381.789 246.327, 389 235.316, 389 225.500 C 389 215.684, 381.789 204.673, 372.538 200.366 C 365.625 197.146, 356.382 197.141, 349.500 200.353 M 71.571 222.571 C 70.707 223.436, 70 224.529, 70 225 C 70 225.471, 70.707 226.564, 71.571 227.429 C 72.436 228.293, 73.529 229, 74 229 C 74.471 229, 75.564 228.293, 76.429 227.429 C 77.293 226.564, 78 225.471, 78 225 C 78 224.529, 77.293 223.436, 76.429 222.571 C 75.564 221.707, 74.471 221, 74 221 C 73.529 221, 72.436 221.707, 71.571 222.571 M 295.750 223.080 C 294.186 223.991, 294 226.007, 294 242.015 C 294 259.091, 294.097 259.981, 296.064 261.034 C 300.445 263.379, 301 261.247, 301 242.078 C 301 222.416, 300.430 220.354, 295.750 223.080 M 359.750 223.080 C 357.372 224.465, 357.542 227.685, 360.064 229.034 C 363.753 231.008, 366.819 226.219, 363.800 223.200 C 362.367 221.767, 362.022 221.757, 359.750 223.080 " stroke="none" fill="black" fill-rule="evenodd"/>
</svg>