<svg xmlns="http://www.w3.org/2000/svg" width="403" height="324" viewBox="0 0 403 324" version="1.1">
	<path d="M 64.500 126.944 C 56.325 128.268, 50.930 129.991, 43 133.814 C 32.444 138.903, 18.927 152.404, 13.778 163 C 7.648 175.615, 4.334 193.191, 7.491 196.348 C 10.992 199.850, 14 196.834, 14 189.823 C 14 171.508, 27.868 149.923, 45.500 140.794 C 51.960 137.450, 62.570 134, 66.396 134 C 67.556 134, 59.381 151.242, 37.002 195.997 C 19.951 230.095, 6 258.188, 6 258.425 C 6 258.663, 6.707 259.564, 7.571 260.429 C 8.968 261.825, 16.372 262, 74 262 C 131.628 262, 139.032 261.825, 140.429 260.429 C 141.293 259.564, 142 258.663, 142 258.425 C 142 258.188, 128.038 230.072, 110.973 195.946 L 79.946 133.899 83.723 134.578 C 100.686 137.628, 118.048 150.057, 125.780 164.686 C 129.503 171.731, 133 184.277, 133 190.589 C 133 194.479, 134.839 198, 136.871 198 C 140.257 198, 141.072 187.652, 138.490 177.460 C 137.660 174.182, 135.122 167.704, 132.850 163.065 C 125.016 147.065, 107.789 133.061, 90.500 128.638 C 82.849 126.680, 70.928 125.904, 64.500 126.944 M 199.232 127.250 C 198.675 127.938, 190.951 143.048, 182.067 160.829 C 171.616 181.746, 166.120 193.803, 166.496 194.986 C 167.266 197.413, 169.895 198.332, 171.726 196.813 C 172.535 196.141, 179.622 182.749, 187.474 167.052 L 201.750 138.514 216.313 167.626 C 224.486 183.965, 231.617 197.023, 232.565 197.386 C 234.679 198.198, 237 196.358, 237 193.871 C 237 191.637, 205.272 127.833, 203.630 126.765 C 201.949 125.672, 200.369 125.846, 199.232 127.250 M 295.244 159.256 L 262 192.511 262 226.056 C 262 250.812, 262.314 259.914, 263.200 260.800 C 264.109 261.709, 280.200 262, 329.500 262 C 378.800 262, 394.891 261.709, 395.800 260.800 C 396.686 259.914, 397 250.810, 397 226.044 L 397 192.489 363.744 159.244 C 345.454 140.960, 330.039 126, 329.489 126 C 328.939 126, 313.529 140.965, 295.244 159.256 M 299.244 165.256 L 269 195.512 269 224.756 L 269 254 329.500 254 L 390 254 390 224.744 L 390 195.488 359.744 165.244 L 329.488 135 299.244 165.256 M 44.747 196.500 L 16.002 254 74 254 L 131.998 254 103.253 196.500 C 87.443 164.875, 74.279 139, 74 139 C 73.721 139, 60.557 164.875, 44.747 196.500 M 199.232 191.250 C 198.675 191.938, 190.951 207.048, 182.067 224.829 C 171.616 245.746, 166.120 257.803, 166.496 258.986 C 167.266 261.413, 169.895 262.332, 171.726 260.813 C 172.535 260.141, 179.622 246.749, 187.474 231.052 L 201.750 202.514 216.313 231.626 C 224.486 247.965, 231.617 261.023, 232.565 261.386 C 234.679 262.198, 237 260.358, 237 257.871 C 237 255.637, 205.272 191.833, 203.630 190.765 C 201.949 189.672, 200.369 189.846, 199.232 191.250 " stroke="none" fill="black" fill-rule="evenodd"/>
</svg>