<svg xmlns="http://www.w3.org/2000/svg" width="436" height="324" viewBox="0 0 436 324" version="1.1">
	<path d="M 39.571 127.571 C 38.176 128.966, 38 136.152, 38 191.571 L 38 254 23.571 254 C 11.788 254, 8.855 254.288, 7.571 255.571 C 5.598 257.545, 5.598 258.455, 7.571 260.429 C 8.936 261.793, 13.463 262, 42 262 C 70.537 262, 75.064 261.793, 76.429 260.429 C 77.293 259.564, 78 258.471, 78 258 C 78 257.529, 77.293 256.436, 76.429 255.571 C 75.145 254.288, 72.212 254, 60.429 254 L 46 254 46 191.571 C 46 136.152, 45.824 128.966, 44.429 127.571 C 43.564 126.707, 42.471 126, 42 126 C 41.529 126, 40.436 126.707, 39.571 127.571 M 135.656 126.750 C 131.525 133.458, 102.200 194.358, 102.600 195.400 C 103.266 197.135, 105.518 198.122, 107.274 197.448 C 107.975 197.180, 115.056 183.919, 123.010 167.980 C 130.964 152.041, 137.710 139, 138 139 C 138.290 139, 145.036 152.041, 152.990 167.980 C 160.944 183.919, 168.025 197.180, 168.726 197.448 C 170.488 198.124, 172.735 197.133, 173.406 195.384 C 173.993 193.855, 141.599 128.045, 139.630 126.765 C 138.160 125.809, 136.240 125.802, 135.656 126.750 M 199.200 127.200 C 197.465 128.935, 197.465 259.065, 199.200 260.800 C 200.085 261.685, 209.117 262, 233.629 262 C 262.503 262, 267.063 261.794, 268.429 260.429 C 269.825 259.032, 270 251.628, 270 194 C 270 136.372, 269.825 128.968, 268.429 127.571 C 267.063 126.206, 262.503 126, 233.629 126 C 209.117 126, 200.085 126.315, 199.200 127.200 M 206 194 L 206 254 234 254 L 262 254 262 194 L 262 134 234 134 L 206 134 206 194 M 391.750 159.082 C 390.788 159.642, 390 160.858, 390 161.786 C 390 162.714, 395.956 169.442, 403.236 176.737 L 416.472 190 357.170 190 C 318.204 190, 297.205 190.355, 295.934 191.035 C 294.870 191.605, 294 192.939, 294 194 C 294 195.061, 294.870 196.395, 295.934 196.965 C 297.205 197.645, 318.204 198, 357.170 198 L 416.472 198 403.236 211.263 C 395.956 218.558, 390 225.190, 390 226 C 390 226.810, 395.956 233.442, 403.236 240.737 L 416.472 254 357.170 254 C 318.204 254, 297.205 254.355, 295.934 255.035 C 294.870 255.605, 294 256.939, 294 258 C 294 259.061, 294.870 260.395, 295.934 260.965 C 297.205 261.645, 318.204 262, 357.170 262 L 416.472 262 403.236 275.263 C 395.956 282.558, 390 289.292, 390 290.228 C 390 291.164, 390.952 292.439, 392.115 293.062 C 394.040 294.092, 395.775 292.675, 411.354 277.347 C 429.201 259.789, 430.559 258.286, 429.602 257.175 C 429.282 256.804, 422.153 249.637, 413.760 241.250 L 398.500 226 413.947 210.658 C 422.444 202.219, 429.544 194.868, 429.726 194.322 C 430.023 193.430, 395.897 158.808, 394.202 158.282 C 393.816 158.162, 392.712 158.522, 391.750 159.082 M 135.656 190.750 C 131.525 197.458, 102.200 258.358, 102.600 259.400 C 103.266 261.135, 105.518 262.122, 107.274 261.448 C 107.975 261.180, 115.056 247.919, 123.010 231.980 C 130.964 216.041, 137.710 203, 138 203 C 138.290 203, 145.036 216.041, 152.990 231.980 C 160.944 247.919, 168.025 261.180, 168.726 261.448 C 170.488 262.124, 172.735 261.133, 173.406 259.384 C 173.993 257.855, 141.599 192.045, 139.630 190.765 C 138.160 189.809, 136.240 189.802, 135.656 190.750 " stroke="none" fill="black" fill-rule="evenodd"/>
</svg>