<svg xmlns="http://www.w3.org/2000/svg" width="308" height="324" viewBox="0 0 308 324" version="1.1">
	<path d="M 221.500 127.480 C 193.550 132.670, 172.911 153.234, 167.376 181.407 L 165.687 190 135.415 190 C 109.228 190, 104.931 190.212, 103.571 191.571 C 101.598 193.545, 101.598 194.455, 103.571 196.429 C 104.931 197.788, 109.242 198, 135.571 198 L 166 198 166 228.800 C 166 251.422, 166.319 259.919, 167.200 260.800 C 168.109 261.709, 184.200 262, 233.500 262 C 282.800 262, 298.891 261.709, 299.800 260.800 C 301.363 259.237, 301.466 198.541, 299.926 187.322 C 297.544 169.976, 291.151 156.915, 279.399 145.380 C 269.933 136.090, 257.607 129.764, 244.619 127.528 C 234.209 125.737, 230.926 125.730, 221.500 127.480 M 218.072 135.532 C 215.086 136.367, 209.686 138.482, 206.072 140.232 C 197.063 144.594, 184.497 157.095, 180.125 166.045 C 176.536 173.392, 174.030 181.880, 174.012 186.750 L 174 190 199.236 190 L 224.472 190 211.236 176.737 C 203.956 169.442, 198 162.708, 198 161.772 C 198 160.836, 198.954 159.560, 200.120 158.936 C 202.049 157.903, 203.785 159.313, 219.471 174.651 C 232.692 187.578, 236.703 192.082, 236.703 194 C 236.703 195.918, 232.692 200.422, 219.471 213.349 C 203.785 228.687, 202.049 230.097, 200.120 229.064 C 198.954 228.440, 198 227.164, 198 226.228 C 198 225.292, 203.956 218.558, 211.236 211.263 L 224.472 198 198.736 198 L 173 198 173 226 L 173 254 233.601 254 L 294.203 254 293.723 221.250 C 293.191 184.884, 292.525 179.824, 286.657 167.529 C 282.020 157.811, 275.346 150.045, 266.617 144.206 C 255.830 136.992, 248.918 134.846, 235 134.390 C 226.770 134.121, 221.957 134.445, 218.072 135.532 M 33.384 159.357 C 15.361 163.923, 3.562 181.820, 6.987 199.396 C 9.923 214.467, 20.510 225.032, 35.660 228.013 C 51.129 231.056, 68.389 221.266, 74.002 206.266 C 76.889 198.550, 76.845 188.335, 73.893 180.443 C 68.130 165.041, 49.410 155.297, 33.384 159.357 M 31.054 167.728 C 25.018 169.859, 17.781 177.260, 15.667 183.463 C 9.189 202.476, 21.963 221, 41.552 221 C 56.843 221, 69 208.819, 69 193.500 C 69 182.038, 61.486 171.200, 50.965 167.488 C 45.610 165.598, 36.784 165.705, 31.054 167.728 " stroke="none" fill="black" fill-rule="evenodd"/>
</svg>