<svg xmlns="http://www.w3.org/2000/svg" width="180" height="324" viewBox="0 0 180 324" version="1.1">
	<path d="M 65.500 175.039 C 62.750 175.519, 58.494 176.620, 56.043 177.485 C 46.874 180.720, 35.320 190.065, 36.544 193.254 C 37.559 195.900, 40.225 196.232, 42.951 194.051 C 53.928 185.266, 62.015 182, 72.787 182 C 84.858 182, 96.748 187.107, 102.972 194.964 C 112.292 206.732, 133.840 212.458, 150.500 207.594 C 161.099 204.500, 172 196.828, 172 192.464 C 172 188.535, 168.496 188.357, 164.267 192.070 C 162.247 193.844, 157.648 196.691, 154.047 198.397 C 148.017 201.255, 146.670 201.500, 137 201.500 C 127.333 201.500, 125.981 201.254, 119.962 198.402 C 115.858 196.457, 111.606 193.383, 108.541 190.146 C 105.856 187.310, 101.485 183.594, 98.827 181.889 C 89.879 176.147, 75.767 173.246, 65.500 175.039 M 7.571 191.571 C 6.707 192.436, 6 193.529, 6 194 C 6 195.111, 8.889 198, 10 198 C 11.111 198, 14 195.111, 14 194 C 14 192.889, 11.111 190, 10 190 C 9.529 190, 8.436 190.707, 7.571 191.571 " stroke="none" fill="black" fill-rule="evenodd"/>
</svg>