<svg xmlns="http://www.w3.org/2000/svg" width="84" height="324" viewBox="0 0 84 324" version="1.1">
	<path d="M 23.571 63.571 C 22.707 64.436, 22 65.332, 22 65.564 C 22 67.123, 39.710 101.058, 40.727 101.449 C 41.427 101.717, 42.573 101.717, 43.273 101.449 C 45.129 100.736, 62.063 66.328, 61.403 64.609 C 60.732 62.858, 58.483 61.877, 56.705 62.560 C 55.993 62.833, 52.520 68.894, 48.986 76.028 C 45.453 83.163, 42.308 89, 41.997 89 C 41.687 89, 38.748 83.534, 35.467 76.853 C 27.925 61.499, 26.847 60.296, 23.571 63.571 M 40.370 126.765 C 38.401 128.045, 6.007 193.855, 6.594 195.384 C 7.265 197.133, 9.512 198.124, 11.274 197.448 C 11.975 197.180, 19.056 183.919, 27.010 167.980 C 34.964 152.041, 41.710 139, 42 139 C 42.290 139, 49.036 152.041, 56.990 167.980 C 64.944 183.919, 72.025 197.180, 72.726 197.448 C 74.488 198.124, 76.735 197.133, 77.406 195.384 C 77.993 193.855, 45.599 128.045, 43.630 126.765 C 43.009 126.361, 42.275 126.031, 42 126.031 C 41.725 126.031, 40.991 126.361, 40.370 126.765 M 40.370 190.765 C 38.401 192.045, 6.007 257.855, 6.594 259.384 C 7.265 261.133, 9.512 262.124, 11.274 261.448 C 11.975 261.180, 19.056 247.919, 27.010 231.980 C 34.964 216.041, 41.710 203, 42 203 C 42.290 203, 49.036 216.041, 56.990 231.980 C 64.944 247.919, 72.025 261.180, 72.726 261.448 C 74.488 262.124, 76.735 261.133, 77.406 259.384 C 77.993 257.855, 45.599 192.045, 43.630 190.765 C 43.009 190.361, 42.275 190.031, 42 190.031 C 41.725 190.031, 40.991 190.361, 40.370 190.765 " stroke="none" fill="black" fill-rule="evenodd"/>
</svg>