<svg xmlns="http://www.w3.org/2000/svg" width="308" height="324" viewBox="0 0 308 324" version="1.1">
	<path d="M 63.102 127.162 C 37.850 130.772, 15.064 151.522, 8.374 177 C 6.113 185.610, 6.113 201.390, 8.374 210 C 11.589 222.245, 16.561 230.638, 26.461 240.539 C 40.536 254.614, 54.240 260.389, 73.500 260.362 C 91.808 260.335, 106.920 254.062, 120.095 241.019 C 133.570 227.679, 140 212.366, 140 193.617 C 140 174.889, 133.936 159.973, 121.011 146.908 C 109.628 135.402, 97.628 129.239, 82.284 127.020 C 74.450 125.888, 71.879 125.907, 63.102 127.162 M 199.750 127.073 C 197.423 128.438, 197.524 131.675, 199.934 132.965 C 201.005 133.538, 208.151 134, 215.934 134 L 230 134 230 178 L 230 222 215.122 222 C 197.666 222, 197.364 222.148, 198.431 230.194 C 199.360 237.193, 203.047 244.643, 208.116 249.763 L 212.312 254 191.090 254 C 169.181 254, 166 254.507, 166 258 C 166 259.061, 166.870 260.395, 167.934 260.965 C 169.209 261.647, 191.550 262, 233.500 262 C 275.450 262, 297.791 261.647, 299.066 260.965 C 301.554 259.633, 301.554 256.367, 299.066 255.035 C 297.905 254.414, 288.567 254, 275.721 254 L 254.310 254 258.283 249.824 C 262.885 244.986, 266.493 237.744, 268.061 230.200 C 269.741 222.118, 269.507 222, 251.878 222 L 237 222 237 178.026 L 237 134.052 252.142 133.776 C 265.291 133.536, 267.430 133.270, 268.387 131.750 C 269.191 130.475, 269.190 129.525, 268.386 128.250 C 267.377 126.649, 264.483 126.481, 234.391 126.273 C 213.280 126.127, 200.873 126.414, 199.750 127.073 M 57.500 135.870 C 37.436 141.645, 20.733 158.691, 15.585 178.644 C 13.554 186.517, 13.554 200.483, 15.585 208.356 C 18.169 218.372, 23.639 227.725, 31.459 235.500 C 35.332 239.350, 39.872 243.259, 41.549 244.188 L 44.597 245.875 41.599 239.825 C 38.997 234.577, 38.600 232.681, 38.600 225.515 C 38.600 218.276, 38.988 216.467, 41.740 210.877 C 47.234 199.721, 55.962 193.082, 67.953 190.939 C 82.973 188.255, 98.058 196.339, 105.245 210.924 C 107.131 214.752, 107.500 217.141, 107.500 225.542 C 107.500 234.521, 107.212 236.139, 104.777 240.833 L 102.053 246.081 105.218 244.291 C 110.825 241.117, 121.562 229.703, 125.340 222.899 C 141.924 193.032, 130.070 154.595, 99.820 140.153 C 95.244 137.968, 89.115 135.690, 86.201 135.090 C 78.410 133.487, 64.459 133.866, 57.500 135.870 M 63.741 199.429 C 56 202.191, 56.035 202.488, 65.170 211.671 L 73.457 220.001 81.692 211.809 C 90.838 202.711, 90.906 202.178, 83.260 199.573 C 77.673 197.669, 68.855 197.604, 63.741 199.429 M 49.570 211.253 C 44.719 218.656, 44.828 233.891, 49.775 239.955 C 51.490 242.057, 51.548 242.021, 59.751 233.763 L 68.001 225.457 59.605 217.104 L 51.209 208.752 49.570 211.253 M 86.791 217.406 L 79.082 225.625 87.450 233.950 L 95.819 242.276 98.059 237.888 C 99.440 235.183, 100.482 230.955, 100.776 226.865 C 101.180 221.235, 100.863 219.381, 98.681 214.615 C 97.268 211.527, 95.748 209.042, 95.305 209.093 C 94.862 209.144, 91.031 212.885, 86.791 217.406 M 206.022 231.250 C 206.067 233.838, 210.232 241.625, 213.307 244.872 C 220.949 252.943, 234.371 255.412, 244.500 250.610 C 250.402 247.811, 256.286 241.979, 258.451 236.782 C 261.448 229.589, 262.992 230, 233 230 C 212.055 230, 206.005 230.280, 206.022 231.250 M 65.170 239.329 C 56.017 248.530, 56.002 248.678, 63.962 251.487 C 71.564 254.169, 82.587 253.083, 87.818 249.137 C 90.019 247.477, 90.016 247.471, 81.739 239.237 L 73.457 230.999 65.170 239.329 " stroke="none" fill="black" fill-rule="evenodd"/>
</svg>