<svg xmlns="http://www.w3.org/2000/svg" width="372" height="324" viewBox="0 0 372 324" version="1.1">
	<path d="M 39.571 127.571 C 38.207 128.935, 38 133.425, 38 161.577 L 38 194.012 22 226 C 13.200 243.593, 6 258.183, 6 258.423 C 6 258.662, 6.707 259.564, 7.571 260.429 C 8.936 261.793, 13.463 262, 42 262 C 70.537 262, 75.064 261.793, 76.429 260.429 C 77.293 259.564, 78 258.662, 78 258.423 C 78 258.183, 70.800 243.593, 62 226 L 46 194.012 46 161.577 C 46 133.425, 45.793 128.935, 44.429 127.571 C 43.564 126.707, 42.471 126, 42 126 C 41.529 126, 40.436 126.707, 39.571 127.571 M 99.045 127.092 C 88.744 129.112, 78.837 136.518, 74.151 145.705 C 73.055 147.852, 71.661 152.357, 71.052 155.716 C 68.567 169.417, 78.395 198.952, 92.333 219.667 C 101.786 233.717, 121.958 252.460, 135.077 259.381 L 138.642 261.262 150.770 252.092 C 179.709 230.213, 196.461 203.927, 203.417 169.483 C 204.690 163.183, 204.816 160.292, 204.004 155.983 C 199.594 132.555, 176.327 120.242, 154.616 129.845 C 149.222 132.232, 143.372 137.363, 140.005 142.662 L 137.360 146.824 135.503 143.377 C 133.181 139.064, 126.418 132.764, 121.318 130.162 C 119.183 129.073, 114.781 127.691, 111.535 127.091 C 104.969 125.877, 105.243 125.877, 99.045 127.092 M 95.054 135.728 C 88.757 137.951, 81.727 145.295, 79.512 151.964 C 76.197 161.944, 79.703 179.244, 88.991 198.743 C 95.436 212.272, 102.633 222.524, 113.005 232.951 C 120.278 240.262, 135.372 252, 137.500 252 C 137.870 252, 141.617 249.637, 145.826 246.750 C 155.651 240.009, 169.037 226.611, 175.815 216.732 C 186.428 201.263, 195.249 178.930, 196.635 164.020 C 198.570 143.192, 179.675 128.780, 159.463 135.667 C 150.088 138.862, 142 149.949, 142 159.607 C 142 162.970, 139.867 166, 137.500 166 C 135.133 166, 133 162.970, 133 159.607 C 133 149.949, 124.912 138.862, 115.537 135.667 C 109.516 133.616, 100.964 133.641, 95.054 135.728 M 263.571 159.571 C 262.288 160.855, 262 163.788, 262 175.571 L 262 190 247.571 190 C 235.788 190, 232.855 190.288, 231.571 191.571 C 229.598 193.545, 229.598 194.455, 231.571 196.429 C 232.855 197.712, 235.788 198, 247.571 198 L 262 198 262 212.429 C 262 224.212, 262.288 227.145, 263.571 228.429 C 265.545 230.402, 266.455 230.402, 268.429 228.429 C 269.712 227.145, 270 224.212, 270 212.429 L 270 198 284.429 198 C 296.212 198, 299.145 197.712, 300.429 196.429 C 302.402 194.455, 302.402 193.545, 300.429 191.571 C 299.145 190.288, 296.212 190, 284.429 190 L 270 190 270 175.571 C 270 163.788, 269.712 160.855, 268.429 159.571 C 267.564 158.707, 266.471 158, 266 158 C 265.529 158, 264.436 158.707, 263.571 159.571 M 327.571 159.571 C 326.227 160.916, 326 164.736, 326 186 C 326 207.264, 326.227 211.084, 327.571 212.429 C 328.436 213.293, 329.529 214, 330 214 C 330.471 214, 331.564 213.293, 332.429 212.429 C 333.773 211.084, 334 207.264, 334 186 C 334 164.736, 333.773 160.916, 332.429 159.571 C 331.564 158.707, 330.471 158, 330 158 C 329.529 158, 328.436 158.707, 327.571 159.571 M 28.743 228.500 L 16.005 254 42 254 L 67.995 254 55.257 228.500 C 48.250 214.475, 42.285 203, 42 203 C 41.715 203, 35.750 214.475, 28.743 228.500 M 327.571 222.571 C 326.707 223.436, 326 224.529, 326 225 C 326 226.111, 328.889 229, 330 229 C 331.111 229, 334 226.111, 334 225 C 334 223.889, 331.111 221, 330 221 C 329.529 221, 328.436 221.707, 327.571 222.571 " stroke="none" fill="black" fill-rule="evenodd"/>
</svg>