<svg xmlns="http://www.w3.org/2000/svg" width="308" height="324" viewBox="0 0 308 324" version="1.1">
	<path d="M 39.230 159.285 L 6 192.569 6 225.713 C 6 254.511, 6.206 259.063, 7.571 260.429 C 8.968 261.825, 16.343 261.998, 73.821 261.985 C 109.395 261.976, 139.081 261.601, 139.790 261.151 C 140.802 260.509, 141.081 253.044, 141.083 226.553 L 141.086 192.774 108.215 159.387 C 90.135 141.024, 74.694 126, 73.902 126 C 73.109 126, 57.506 140.978, 39.230 159.285 M 199.244 159.256 C 180.960 177.546, 166 193.280, 166 194.220 C 166 195.160, 166.961 196.444, 168.136 197.073 C 170.102 198.125, 172.791 195.698, 201.892 166.608 L 233.512 134.999 261.284 162.784 L 289.056 190.570 281.994 192.227 C 256.018 198.323, 236.170 219.112, 231.202 245.427 L 229.584 254 201.792 254 L 174 254 174.012 250.750 C 174.047 241.012, 180.654 226.588, 189.344 217.274 C 200.051 205.800, 212.812 199.391, 227.395 198.164 C 236.028 197.438, 238.611 195.734, 236.358 192.250 C 235.440 190.829, 234.031 190.553, 228.864 190.784 C 199.361 192.103, 173.722 214.456, 167.589 244.208 C 165.641 253.659, 165.562 259.392, 167.361 260.885 C 168.349 261.705, 186.615 261.944, 234.002 261.757 C 294.924 261.517, 299.356 261.383, 300.386 259.750 C 301.191 258.474, 301.191 257.526, 300.387 256.250 C 299.386 254.663, 296.398 254.453, 268.324 254 L 237.365 253.500 238.616 246.076 C 240.784 233.217, 248.636 220.119, 259.701 210.905 C 268.555 203.532, 283.047 198, 293.510 198 C 298.721 198, 301 196.796, 301 194.044 C 301 192.369, 235.151 126, 233.489 126 C 232.939 126, 217.529 140.965, 199.244 159.256 M 43.744 165.756 L 14 195.512 14 224.756 L 14 254 74 254 L 134 254 134 224.744 L 134 195.487 104.244 165.744 C 87.878 149.385, 74.263 136, 73.988 136 C 73.713 136, 60.103 149.390, 43.744 165.756 " stroke="none" fill="black" fill-rule="evenodd"/>
</svg>