<svg xmlns="http://www.w3.org/2000/svg" width="500" height="324" viewBox="0 0 500 324" version="1.1">
	<path d="M 354.355 126.992 C 342.595 129.453, 331.490 139.435, 328.023 150.661 C 325.365 159.267, 325.377 163.596, 328.064 165.034 C 331.025 166.619, 332.642 164.883, 333.481 159.218 C 335.738 143.976, 346.574 134.059, 361 134.032 C 377.260 134.001, 390.726 148.586, 388.528 163.847 C 383.649 197.714, 363.527 229.146, 334.022 248.985 C 324.735 255.230, 323.545 257.064, 327.272 259.393 C 329.394 260.718, 333.748 258.466, 344.500 250.479 C 367.958 233.054, 385.422 207.126, 392.984 178.500 C 397.428 161.678, 396.591 151.764, 389.870 141.617 C 382.564 130.587, 367.271 124.289, 354.355 126.992 M 423.750 127.073 C 421.423 128.438, 421.524 131.675, 423.934 132.965 C 425.005 133.538, 432.151 134, 439.934 134 L 454 134 454 194 L 454 254 439.934 254 C 425.308 254, 422 254.738, 422 258 C 422 261.750, 424.791 262.037, 458.601 261.764 C 488.469 261.523, 491.378 261.349, 492.386 259.750 C 493.190 258.475, 493.191 257.525, 492.387 256.250 C 491.430 254.730, 489.291 254.464, 476.142 254.224 L 461 253.948 461 194 L 461 134.052 476.142 133.776 C 489.291 133.536, 491.430 133.270, 492.387 131.750 C 493.191 130.475, 493.190 129.525, 492.386 128.250 C 491.377 126.649, 488.483 126.481, 458.391 126.273 C 437.280 126.127, 424.873 126.414, 423.750 127.073 M 7.579 191.564 C 5.598 193.545, 5.596 194.454, 7.571 196.429 C 8.844 197.701, 11.697 198, 22.575 198 L 36.006 198 21.020 227.961 C 12.777 244.439, 6.285 258.580, 6.594 259.384 C 7.265 261.133, 9.512 262.125, 11.274 261.448 C 11.975 261.180, 19.056 247.919, 27.010 231.980 C 34.964 216.041, 41.717 203, 42.016 203 C 42.315 203, 49.042 216.034, 56.965 231.964 C 64.888 247.894, 71.962 261.155, 72.685 261.433 C 73.408 261.710, 74.573 261.717, 75.274 261.448 C 75.975 261.180, 83.056 247.919, 91.010 231.980 C 98.964 216.041, 105.710 203, 106 203 C 106.290 203, 113.036 216.041, 120.990 231.980 C 128.944 247.919, 136.083 261.201, 136.853 261.497 C 138.718 262.213, 141 260.217, 141 257.871 C 141 256.835, 134.480 242.952, 126.511 227.021 L 112.021 198.056 125.653 197.778 C 137.361 197.539, 139.441 197.253, 140.388 195.750 C 141.191 194.475, 141.190 193.525, 140.386 192.250 C 139.356 190.617, 134.934 190.483, 74.220 190.243 C 16.058 190.013, 8.990 190.153, 7.579 191.564 M 167.200 191.200 C 166.540 191.860, 166 192.988, 166 193.706 C 166 195.501, 198.667 260.676, 199.970 261.482 C 202.864 263.270, 205.167 259.696, 219.125 231.762 L 233.744 202.502 248.334 231.669 C 256.359 247.710, 263.395 261.126, 263.971 261.482 C 264.547 261.838, 265.802 261.880, 266.760 261.576 C 268.875 260.905, 301 197.130, 301 193.603 C 301 192.289, 300.288 190.941, 299.418 190.607 C 298.548 190.273, 268.713 190, 233.118 190 C 184.115 190, 168.109 190.291, 167.200 191.200 M 60.743 223.500 C 67.750 237.525, 73.715 249, 74 249 C 74.285 249, 80.250 237.525, 87.257 223.500 L 99.995 198 74 198 L 48.005 198 60.743 223.500 M 188.608 223.250 C 195.546 237.137, 201.371 248.661, 201.553 248.859 C 201.878 249.211, 227 199.502, 227 198.508 C 227 198.228, 215.523 198, 201.496 198 L 175.992 198 188.608 223.250 M 252.608 223.250 C 259.546 237.137, 265.371 248.661, 265.553 248.859 C 265.878 249.211, 291 199.502, 291 198.508 C 291 198.228, 279.523 198, 265.496 198 L 239.992 198 252.608 223.250 " stroke="none" fill="black" fill-rule="evenodd"/>
</svg>