<svg xmlns="http://www.w3.org/2000/svg" width="340" height="324" viewBox="0 0 340 324" version="1.1">
	<path d="M 7.627 127.515 C 6.732 128.411, 6 129.529, 6 130 C 6 132.122, 9.426 134.001, 13.321 134.015 C 32.426 134.082, 53.897 148.438, 62.809 167.101 C 67.167 176.226, 69 183.322, 69 191.062 C 69 195.240, 67.816 198.390, 61.515 210.970 C 54.288 225.399, 53.532 228.223, 56.577 229.391 C 59.364 230.461, 60.668 228.784, 67.014 215.972 C 70.547 208.837, 73.691 203, 74 203 C 74.309 203, 77.453 208.837, 80.986 215.972 C 87.332 228.784, 88.636 230.461, 91.423 229.391 C 94.488 228.215, 93.685 225.347, 85.985 209.970 C 77.135 192.297, 76.657 189.970, 79.570 178.731 C 86.001 153.913, 110.170 134.092, 134.095 134.015 C 137.407 134.004, 139.195 133.442, 140.500 132 C 142.248 130.069, 142.245 129.929, 140.434 127.927 C 138.783 126.102, 137.839 125.933, 132.529 126.511 C 116.230 128.284, 103.535 133.888, 92.528 144.168 C 84.441 151.720, 78.977 159.258, 75.634 167.477 L 73.455 172.832 71.558 168.166 C 63.797 149.071, 45.991 133.542, 26.202 128.608 C 15.985 126.061, 9.466 125.677, 7.627 127.515 M 193.500 159.351 C 182.661 162.148, 173.929 169.369, 169.417 179.266 C 165.446 187.975, 165.356 198.913, 169.189 207.175 C 179.755 229.957, 207.963 235.725, 225.353 218.661 C 233.450 210.714, 235.500 205.633, 235.500 193.500 C 235.500 181.464, 233.483 176.393, 225.518 168.404 C 217.366 160.226, 204.361 156.549, 193.500 159.351 M 191.627 167.468 C 186.247 169.386, 181.039 173.829, 177.500 179.519 C 173.527 185.908, 172.712 197.311, 175.741 204.129 C 180.181 214.120, 188.127 219.919, 198.521 220.754 C 210.446 221.711, 220.036 216.794, 225.500 206.921 C 228.132 202.166, 228.500 200.518, 228.500 193.500 C 228.500 186.487, 228.130 184.829, 225.500 180.061 C 222.429 174.492, 216.651 169.526, 210.684 167.326 C 206.327 165.720, 196.323 165.794, 191.627 167.468 M 294.611 192.250 C 293.822 193.488, 286.052 208.788, 277.345 226.252 C 264.358 252.298, 261.711 258.318, 262.615 259.752 C 263.621 261.348, 266.541 261.524, 296.109 261.779 C 313.924 261.933, 329.463 261.825, 330.640 261.538 C 331.817 261.252, 333.047 260.321, 333.373 259.470 C 333.990 257.862, 301.696 192.108, 299.630 190.765 C 297.647 189.476, 296.085 189.938, 294.611 192.250 M 284.743 228.500 L 272.005 254 297.503 254 C 311.526 254, 323 253.772, 323 253.492 C 323 252.827, 298.070 203, 297.737 203 C 297.597 203, 291.750 214.475, 284.743 228.500 M 167.585 255.558 C 166.713 256.430, 166 257.529, 166 258 C 166 258.471, 166.713 259.570, 167.585 260.442 C 168.978 261.835, 173.159 261.995, 202.226 261.763 C 232.452 261.523, 235.377 261.350, 236.386 259.750 C 237.191 258.474, 237.191 257.526, 236.386 256.250 C 235.377 254.650, 232.452 254.477, 202.226 254.237 C 173.159 254.005, 168.978 254.165, 167.585 255.558 " stroke="none" fill="black" fill-rule="evenodd"/>
</svg>