<svg xmlns="http://www.w3.org/2000/svg" width="372" height="324" viewBox="0 0 372 324" version="1.1">
	<path d="M 55.571 63.571 C 53.243 65.900, 53.243 98.100, 55.571 100.429 C 57.900 102.757, 90.100 102.757, 92.429 100.429 C 94.757 98.100, 94.757 65.900, 92.429 63.571 C 90.100 61.243, 57.900 61.243, 55.571 63.571 M 62 82 L 62 94 74 94 L 86 94 86 82 L 86 70 74 70 L 62 70 62 82 M 199.571 127.571 C 198.178 128.965, 198 135.899, 198 188.799 L 198 248.455 168.711 219.227 C 152.602 203.152, 138.909 190, 138.282 190 C 136.799 190, 134 192.814, 134 194.305 C 134 195.823, 200.177 262, 201.695 262 C 202.334 262, 203.564 261.293, 204.429 260.429 C 205.825 259.032, 206 251.628, 206 194 C 206 136.372, 205.825 128.968, 204.429 127.571 C 203.564 126.707, 202.471 126, 202 126 C 201.529 126, 200.436 126.707, 199.571 127.571 M 39.267 223.267 C 20.970 241.563, 6 257.056, 6 257.695 C 6 258.334, 6.707 259.564, 7.571 260.429 C 8.968 261.825, 16.372 262, 74 262 C 131.628 262, 139.032 261.825, 140.429 260.429 C 141.293 259.564, 142 258.334, 142 257.695 C 142 255.982, 75.721 190, 74 190 C 73.193 190, 57.563 204.970, 39.267 223.267 M 231.571 191.571 C 230.707 192.436, 230 193.529, 230 194 C 230 194.471, 230.707 195.564, 231.571 196.429 C 232.844 197.701, 235.697 198, 246.575 198 L 260.006 198 245.020 227.961 C 236.777 244.439, 230.285 258.580, 230.594 259.384 C 231.265 261.133, 233.512 262.125, 235.274 261.448 C 235.975 261.180, 243.056 247.919, 251.010 231.980 C 258.964 216.041, 265.710 203, 266 203 C 266.290 203, 273.036 216.041, 280.990 231.980 C 288.944 247.919, 296.025 261.180, 296.726 261.448 C 297.427 261.717, 298.573 261.717, 299.274 261.448 C 299.975 261.180, 307.056 247.919, 315.010 231.980 C 322.964 216.041, 329.710 203, 330 203 C 330.290 203, 337.036 216.041, 344.990 231.980 C 352.944 247.919, 360.025 261.180, 360.726 261.448 C 362.488 262.125, 364.735 261.133, 365.406 259.384 C 365.715 258.580, 359.223 244.439, 350.980 227.961 L 335.994 198 349.425 198 C 360.303 198, 363.156 197.701, 364.429 196.429 C 365.293 195.564, 366 194.471, 366 194 C 366 193.529, 365.293 192.436, 364.429 191.571 C 363.032 190.175, 355.628 190, 298 190 C 240.372 190, 232.968 190.175, 231.571 191.571 M 284.743 223.500 C 291.750 237.525, 297.715 249, 298 249 C 298.285 249, 304.250 237.525, 311.257 223.500 L 323.995 198 298 198 L 272.005 198 284.743 223.500 M 46.500 227 L 19.514 254 74 254 L 128.486 254 101.500 227 C 86.658 212.150, 74.283 200, 74 200 C 73.717 200, 61.342 212.150, 46.500 227 " stroke="none" fill="black" fill-rule="evenodd"/>
</svg>