<svg xmlns="http://www.w3.org/2000/svg" width="244" height="324" viewBox="0 0 244 324" version="1.1">
	<path d="M 7.571 127.571 C 6.175 128.968, 6 136.372, 6 194 C 6 251.628, 6.175 259.032, 7.571 260.429 C 8.436 261.293, 9.666 262, 10.305 262 C 12.018 262, 78 195.721, 78 194 C 78 192.279, 12.018 126, 10.305 126 C 9.666 126, 8.436 126.707, 7.571 127.571 M 159.500 127.042 C 139.133 130.140, 118.731 144.761, 109.606 162.798 C 106.498 168.942, 103 180.372, 103 184.383 C 103 186.128, 102.352 188.480, 101.560 189.610 C 100.320 191.382, 100.313 192.207, 101.516 195.583 C 102.284 197.737, 102.932 200.915, 102.956 202.645 C 103.012 206.659, 106.544 218.148, 109.547 224.084 C 115.288 235.434, 127.711 247.602, 139.560 253.482 C 149.533 258.431, 167.420 262.287, 173.823 260.869 C 175.845 260.421, 180.425 259.509, 184 258.843 C 194.663 256.858, 207.077 249.981, 216.026 241.103 C 229.614 227.623, 236 212.403, 236 193.500 C 236 174.625, 229.603 159.354, 216.095 145.981 C 201.014 131.051, 179.804 123.953, 159.500 127.042 M 153.500 135.893 C 134.747 141.366, 119.917 155.062, 113.280 173.040 C 111.860 176.885, 110.922 180.255, 111.196 180.529 C 111.469 180.802, 114.226 179.905, 117.323 178.536 C 131.477 172.276, 150.089 173.526, 162.250 181.553 L 166 184.028 166 159.014 L 166 134 162.750 134.071 C 160.963 134.110, 156.800 134.930, 153.500 135.893 M 173.014 161.250 C 173.021 176.238, 173.294 189.497, 173.621 190.715 C 173.948 191.933, 176.304 194.259, 178.857 195.883 C 192.537 204.587, 211.293 203.954, 225.250 194.317 C 229.706 191.240, 229.873 189.734, 227.003 178.511 C 222.717 161.754, 211.079 147.438, 195.820 140.153 C 188.142 136.487, 179.707 134, 174.951 134 C 173.064 134, 173 134.891, 173.014 161.250 M 14 194 L 14 248.495 41.248 221.248 L 68.495 194 41.248 166.752 L 14 139.505 14 194 M 124 183.814 C 120.975 184.815, 116.588 186.901, 114.250 188.450 C 110.083 191.211, 110 191.376, 110 196.923 C 110 220.826, 129.812 245.008, 154.644 251.415 C 158.024 252.287, 161.961 253, 163.394 253 L 166 253 166 223.119 L 166 193.237 162.485 190.557 C 160.552 189.082, 156.390 186.688, 153.235 185.236 C 145.627 181.733, 132.256 181.083, 124 183.814 M 221.500 204.548 C 206.335 211.890, 194.708 211.346, 174.250 202.336 C 173.268 201.904, 173 207.281, 173 227.393 C 173 256.515, 172.055 253.997, 182.201 251.910 C 203.493 247.530, 222.539 228.714, 227.405 207.250 C 228.185 203.813, 228.750 201.036, 228.661 201.080 C 228.573 201.123, 225.350 202.684, 221.500 204.548 " stroke="none" fill="black" fill-rule="evenodd"/>
</svg>