<svg xmlns="http://www.w3.org/2000/svg" width="340" height="324" viewBox="0 0 340 324" version="1.1">
	<path d="M 39.571 127.571 C 38.176 128.966, 38 136.152, 38 191.571 L 38 254 23.571 254 C 11.788 254, 8.855 254.288, 7.571 255.571 C 5.598 257.545, 5.598 258.455, 7.571 260.429 C 8.936 261.793, 13.463 262, 42 262 C 70.537 262, 75.064 261.793, 76.429 260.429 C 77.293 259.564, 78 258.471, 78 258 C 78 257.529, 77.293 256.436, 76.429 255.571 C 75.145 254.288, 72.212 254, 60.429 254 L 46 254 46 191.571 C 46 136.152, 45.824 128.966, 44.429 127.571 C 43.564 126.707, 42.471 126, 42 126 C 41.529 126, 40.436 126.707, 39.571 127.571 M 135.656 126.750 C 131.525 133.458, 102.200 194.358, 102.600 195.400 C 103.266 197.135, 105.518 198.122, 107.274 197.448 C 107.975 197.180, 115.056 183.919, 123.010 167.980 C 130.964 152.041, 137.710 139, 138 139 C 138.290 139, 145.036 152.041, 152.990 167.980 C 160.944 183.919, 168.083 197.201, 168.853 197.497 C 170.717 198.213, 173 196.217, 173 193.871 C 173 191.637, 141.272 127.833, 139.630 126.765 C 138.160 125.809, 136.240 125.802, 135.656 126.750 M 231.244 159.256 L 198 192.511 198 226.056 C 198 250.812, 198.314 259.914, 199.200 260.800 C 200.606 262.206, 329.588 262.548, 331.790 261.151 C 332.802 260.509, 333.081 253.025, 333.083 226.450 L 333.087 192.567 299.813 159.284 C 281.513 140.978, 266.079 126, 265.515 126 C 264.950 126, 249.529 140.965, 231.244 159.256 M 235.702 164.897 L 206 194.877 206 224.439 L 206 254 266 254 L 326 254 326 224.744 L 326 195.488 295.702 165.202 L 265.404 134.916 235.702 164.897 M 135.656 190.750 C 131.525 197.458, 102.200 258.358, 102.600 259.400 C 103.266 261.135, 105.518 262.122, 107.274 261.448 C 107.975 261.180, 115.056 247.919, 123.010 231.980 C 130.964 216.041, 137.710 203, 138 203 C 138.290 203, 145.036 216.041, 152.990 231.980 C 160.944 247.919, 168.083 261.201, 168.853 261.497 C 170.717 262.213, 173 260.217, 173 257.871 C 173 255.637, 141.272 191.833, 139.630 190.765 C 138.160 189.809, 136.240 189.802, 135.656 190.750 " stroke="none" fill="black" fill-rule="evenodd"/>
</svg>