<svg xmlns="http://www.w3.org/2000/svg" width="403" height="324" viewBox="0 0 403 324" version="1.1">
	<path d="M 23.571 63.571 C 22.707 64.436, 22 65.317, 22 65.531 C 22 66.993, 39.421 100.653, 40.488 101.252 C 41.225 101.665, 42.440 101.768, 43.187 101.482 C 45.102 100.747, 62.082 66.377, 61.403 64.609 C 60.732 62.858, 58.483 61.877, 56.705 62.560 C 55.993 62.833, 52.520 68.894, 48.986 76.028 C 45.453 83.163, 42.308 89, 41.997 89 C 41.687 89, 38.748 83.534, 35.467 76.853 C 27.925 61.499, 26.847 60.296, 23.571 63.571 M 7.571 127.571 C 6.175 128.968, 6 136.372, 6 194 C 6 251.628, 6.175 259.032, 7.571 260.429 C 8.436 261.293, 9.666 262, 10.305 262 C 12.018 262, 78 195.721, 78 194 C 78 192.279, 12.018 126, 10.305 126 C 9.666 126, 8.436 126.707, 7.571 127.571 M 131.434 126.881 C 117.216 129.344, 104.578 142.499, 102.500 157 C 101.784 161.993, 104.410 176.317, 108.012 187.073 C 117.611 215.730, 138.479 241.997, 163.930 257.458 C 169.330 260.738, 170.305 261.028, 171.943 259.846 C 172.969 259.106, 176.843 256.331, 180.551 253.681 C 209.038 233.321, 227.783 204.940, 234.500 172 C 236.878 160.343, 236.181 152.996, 231.945 145.049 C 223.121 128.493, 202.314 121.677, 186.002 129.999 C 180.546 132.782, 173.310 139.488, 171.087 143.821 L 169.332 147.242 166.613 142.602 C 160.093 131.478, 144.676 124.588, 131.434 126.881 M 278.016 127.971 C 277.139 129.608, 277.712 130.961, 281.401 135.972 C 287.440 144.176, 289.481 150.496, 289.481 161 C 289.481 172.605, 287.385 178.076, 278.342 190.081 C 274.260 195.500, 269.750 202.488, 268.320 205.611 C 264.702 213.516, 263.288 224.217, 264.742 232.706 C 266.852 245.019, 277.098 261.549, 282.175 260.829 C 286.006 260.287, 285.708 256.526, 281.461 251.825 C 273.872 243.426, 269.888 229.470, 271.927 218.437 C 273.246 211.304, 276.775 203.474, 280.709 198.954 C 286.235 192.605, 292.750 182.266, 294.635 176.855 C 296.027 172.857, 296.493 168.713, 296.472 160.500 C 296.438 147.558, 294.594 141.743, 287.440 132.025 C 282.751 125.657, 279.909 124.434, 278.016 127.971 M 127.627 135.468 C 122.265 137.380, 117.042 141.824, 113.541 147.453 C 109.492 153.963, 109.013 161.896, 111.940 173.974 C 119.278 204.260, 137.292 230.674, 162.244 247.734 C 170.005 253.040, 169.200 253.171, 180.395 244.787 C 204.137 227.007, 220.548 201.296, 227.173 171.500 C 228.412 165.923, 228.971 160.719, 228.642 157.818 C 227.580 148.464, 221.491 140.487, 212.145 136.209 C 207.579 134.118, 205.711 133.820, 199.639 134.214 C 185.544 135.129, 176.253 143.655, 173.953 157.786 C 172.912 164.183, 171.178 166.509, 168.163 165.552 C 165.920 164.840, 165.477 163.789, 164.560 156.995 C 163.285 147.558, 155.516 138.368, 146.101 135.159 C 141.559 133.611, 132.409 133.764, 127.627 135.468 M 14 194 L 14 248.495 41.248 221.248 L 68.495 194 41.248 166.752 L 14 139.505 14 194 M 359.268 191.207 C 357.363 193.557, 326 256.957, 326 258.459 C 326 260.509, 329.792 262.422, 331.314 261.140 C 331.966 260.591, 339.021 247.055, 346.991 231.060 L 361.483 201.979 375.825 230.740 C 383.714 246.558, 390.867 260.045, 391.722 260.711 C 393.692 262.247, 397.021 260.657, 396.950 258.215 C 396.859 255.092, 363.585 190.516, 361.908 190.207 C 361.032 190.046, 359.844 190.496, 359.268 191.207 " stroke="none" fill="black" fill-rule="evenodd"/>
</svg>