<svg xmlns="http://www.w3.org/2000/svg" width="276" height="324" viewBox="0 0 276 324" version="1.1">
	<path d="M 72.372 62.765 C 70.418 64.037, 54.003 97.844, 54.593 99.381 C 55.268 101.141, 57.513 102.124, 59.295 101.440 C 60.007 101.167, 63.480 95.106, 67.014 87.972 C 70.547 80.837, 73.691 75, 74 75 C 74.309 75, 77.453 80.837, 80.986 87.972 C 84.520 95.106, 87.993 101.167, 88.705 101.440 C 90.487 102.124, 92.732 101.141, 93.407 99.381 C 93.716 98.575, 90.096 90.173, 85.363 80.708 C 77.638 65.261, 75.672 62.031, 74 62.031 C 73.725 62.031, 72.992 62.361, 72.372 62.765 M 35.045 127.092 C 19.667 130.107, 7.255 144.071, 6.841 158.824 C 6.689 164.231, 10.459 179.667, 14.976 192.133 C 21.053 208.902, 33.075 227.074, 46.717 240.107 C 55.946 248.924, 71.175 260, 74.070 260 C 75.196 260, 77.778 258.733, 79.809 257.185 C 81.839 255.636, 86.988 251.763, 91.250 248.578 C 110.685 234.057, 127.709 209.662, 135.321 185.426 C 139.499 172.122, 141.107 161.844, 139.963 155.763 C 135.596 132.560, 112.226 120.286, 90.616 129.845 C 85.222 132.232, 79.372 137.363, 76.005 142.662 L 73.360 146.824 71.503 143.377 C 69.181 139.064, 62.418 132.764, 57.318 130.162 C 55.183 129.073, 50.781 127.691, 47.535 127.091 C 40.969 125.877, 41.243 125.877, 35.045 127.092 M 183.250 126.662 C 181.097 127.531, 181.875 130.819, 185.293 135.297 C 191.709 143.703, 193.492 149.289, 193.496 161 C 193.500 170.678, 193.258 172.009, 190.403 178 C 188.700 181.575, 185.597 186.525, 183.509 189 C 173.084 201.356, 168.782 211.670, 168.703 224.500 C 168.624 237.281, 172.637 248.165, 180.732 257.125 C 184.667 261.481, 188.461 262.274, 189.513 258.960 C 189.987 257.465, 189.173 255.827, 186.468 252.833 C 184.438 250.586, 181.364 245.766, 179.638 242.123 C 176.740 236.007, 176.500 234.696, 176.500 225 C 176.500 215.295, 176.737 214.008, 179.623 208 C 181.341 204.425, 185.048 198.665, 187.861 195.199 C 197.926 182.799, 201.379 173.881, 201.297 160.500 C 201.224 148.662, 197.206 137.860, 189.694 129.304 C 186.858 126.075, 185.791 125.637, 183.250 126.662 M 31.054 135.728 C 24.787 137.940, 17.726 145.297, 15.534 151.899 C 13.881 156.875, 13.875 157.704, 15.430 166.205 C 18.769 184.454, 25.331 200.650, 35.740 216.330 C 41.768 225.410, 57.343 241.046, 66.659 247.369 L 73.817 252.228 79.235 248.632 C 104.319 231.983, 122.938 205.409, 130.553 175.392 C 134.737 158.897, 133.307 150.212, 125.048 141.952 C 117.477 134.382, 106.241 131.995, 95.463 135.667 C 86.088 138.862, 78 149.949, 78 159.607 C 78 162.970, 75.867 166, 73.500 166 C 71.133 166, 69 162.970, 69 159.607 C 69 149.949, 60.912 138.862, 51.537 135.667 C 45.516 133.616, 36.964 133.641, 31.054 135.728 M 231.571 159.571 C 229.215 161.927, 229.215 210.073, 231.571 212.429 C 232.436 213.293, 233.529 214, 234 214 C 234.471 214, 235.564 213.293, 236.429 212.429 C 238.785 210.073, 238.785 161.927, 236.429 159.571 C 235.564 158.707, 234.471 158, 234 158 C 233.529 158, 232.436 158.707, 231.571 159.571 M 231.571 222.571 C 230.707 223.436, 230 224.529, 230 225 C 230 225.471, 230.707 226.564, 231.571 227.429 C 232.436 228.293, 233.529 229, 234 229 C 234.471 229, 235.564 228.293, 236.429 227.429 C 237.293 226.564, 238 225.471, 238 225 C 238 224.529, 237.293 223.436, 236.429 222.571 C 235.564 221.707, 234.471 221, 234 221 C 233.529 221, 232.436 221.707, 231.571 222.571 " stroke="none" fill="black" fill-rule="evenodd"/>
</svg>