<svg xmlns="http://www.w3.org/2000/svg" width="308" height="324" viewBox="0 0 308 324" version="1.1">
	<path d="M 63.102 127.104 C 37.873 130.938, 15.675 150.973, 8.374 176.500 C 6.927 181.561, 6.594 188.462, 6.248 220.597 C 5.877 255.034, 5.996 258.854, 7.490 260.347 C 8.993 261.850, 14.995 261.999, 73.821 261.985 C 109.395 261.976, 139.097 261.591, 139.826 261.129 C 140.888 260.456, 141.130 253.663, 141.041 227.058 C 140.926 192.963, 140.290 183.576, 137.443 174 C 132.654 157.893, 119.395 141.902, 104.500 134.271 C 91.374 127.546, 76.799 125.023, 63.102 127.104 M 167.200 127.200 C 165.465 128.935, 165.465 259.065, 167.200 260.800 C 168.935 262.535, 298.065 262.535, 299.800 260.800 C 301.535 259.065, 301.535 128.935, 299.800 127.200 C 298.065 125.465, 168.935 125.465, 167.200 127.200 M 58.645 135.584 C 38.562 140.445, 20.305 158.877, 15.537 179.103 C 14.349 184.144, 14.026 192.762, 14.015 219.750 L 14 254 74.115 254 L 134.230 254 133.747 220.250 C 133.313 189.886, 133.050 185.708, 131.135 178.601 C 125.371 157.218, 108.907 140.946, 87.540 135.515 C 80.213 133.653, 66.488 133.685, 58.645 135.584 M 173 194 L 173 254 233.500 254 L 294 254 294 194 L 294 134 233.500 134 L 173 134 173 194 M 231.750 191.080 C 229.372 192.465, 229.542 195.685, 232.064 197.034 C 235.753 199.008, 238.819 194.219, 235.800 191.200 C 234.367 189.767, 234.022 189.757, 231.750 191.080 " stroke="none" fill="black" fill-rule="evenodd"/>
</svg>