<svg xmlns="http://www.w3.org/2000/svg" width="180" height="324" viewBox="0 0 180 324" version="1.1">
	<path d="M 40.372 62.765 C 38.418 64.037, 22.003 97.844, 22.593 99.381 C 23.268 101.141, 25.513 102.124, 27.295 101.440 C 28.007 101.167, 31.480 95.106, 35.014 87.972 C 38.547 80.837, 41.691 75, 42 75 C 42.309 75, 45.453 80.837, 48.986 87.972 C 52.520 95.106, 55.993 101.167, 56.705 101.440 C 58.487 102.124, 60.732 101.141, 61.407 99.381 C 61.716 98.575, 58.096 90.173, 53.363 80.708 C 45.638 65.261, 43.672 62.031, 42 62.031 C 41.725 62.031, 40.992 62.361, 40.372 62.765 M 33.384 159.412 C 15.475 163.758, 3.559 181.807, 6.987 199.396 C 8.500 207.161, 12.212 214.019, 17.580 218.967 C 38.277 238.045, 70.591 227.221, 76.013 199.396 C 79.488 181.565, 67.484 163.676, 49.147 159.360 C 42.397 157.772, 40.111 157.779, 33.384 159.412 M 135.571 159.571 C 134.288 160.855, 134 163.788, 134 175.571 L 134 190 119.571 190 C 107.788 190, 104.855 190.288, 103.571 191.571 C 101.598 193.545, 101.598 194.455, 103.571 196.429 C 104.855 197.712, 107.788 198, 119.571 198 L 134 198 134 210 L 134 222 119.571 222 C 107.788 222, 104.855 222.288, 103.571 223.571 C 101.598 225.545, 101.598 226.455, 103.571 228.429 C 104.855 229.712, 107.788 230, 119.571 230 L 134 230 134 244.429 C 134 256.212, 134.288 259.145, 135.571 260.429 C 136.436 261.293, 137.529 262, 138 262 C 138.471 262, 139.564 261.293, 140.429 260.429 C 141.712 259.145, 142 256.212, 142 244.429 L 142 230 156.429 230 C 168.212 230, 171.145 229.712, 172.429 228.429 C 174.402 226.455, 174.402 225.545, 172.429 223.571 C 171.145 222.288, 168.212 222, 156.429 222 L 142 222 142 210 L 142 198 156.429 198 C 168.212 198, 171.145 197.712, 172.429 196.429 C 174.402 194.455, 174.402 193.545, 172.429 191.571 C 171.145 190.288, 168.212 190, 156.429 190 L 142 190 142 175.571 C 142 163.788, 141.712 160.855, 140.429 159.571 C 139.564 158.707, 138.471 158, 138 158 C 137.529 158, 136.436 158.707, 135.571 159.571 M 31.054 167.728 C 25.018 169.859, 17.781 177.260, 15.667 183.463 C 11.995 194.241, 14.382 205.477, 21.952 213.048 C 32.673 223.769, 50.327 223.769, 61.048 213.048 C 71.769 202.327, 71.769 184.673, 61.048 173.952 C 53.519 166.424, 41.696 163.970, 31.054 167.728 " stroke="none" fill="black" fill-rule="evenodd"/>
</svg>