<svg xmlns="http://www.w3.org/2000/svg" width="500" height="324" viewBox="0 0 500 324" version="1.1">
	<path d="M 262.612 128.250 C 261.823 129.488, 246.852 159.187, 229.343 194.249 C 203.084 246.832, 197.702 258.304, 198.613 259.749 C 199.644 261.383, 204.028 261.518, 264.109 261.776 C 299.524 261.928, 329.512 261.807, 330.750 261.507 C 332.333 261.123, 333 260.226, 333 258.478 C 333 255.844, 269.560 128.018, 267.631 126.765 C 265.647 125.476, 264.086 125.938, 262.612 128.250 M 236.747 196.500 L 208.002 254 265.501 254 C 297.126 254, 323 253.773, 323 253.497 C 323 252.838, 266.074 139, 265.744 139 C 265.605 139, 252.557 164.875, 236.747 196.500 M 34.223 159.062 C 24.045 161.068, 13.996 169.411, 9.216 179.825 C 5.512 187.894, 5.512 199.106, 9.216 207.175 C 20.136 230.966, 50.306 235.913, 67.545 216.739 C 85.211 197.090, 75.070 165.462, 49.147 159.360 C 42.857 157.880, 40.464 157.832, 34.223 159.062 M 103.200 159.200 C 101.481 160.919, 101.481 227.081, 103.200 228.800 C 104.085 229.685, 113.117 230, 137.629 230 C 166.503 230, 171.063 229.794, 172.429 228.429 C 173.793 227.064, 174 222.537, 174 194 C 174 165.463, 173.793 160.936, 172.429 159.571 C 171.063 158.206, 166.503 158, 137.629 158 C 113.117 158, 104.085 158.315, 103.200 159.200 M 423.213 159.187 C 421.601 160.799, 421.675 163.485, 423.369 164.891 C 424.345 165.701, 434.290 165.952, 458.010 165.764 C 488.441 165.523, 491.377 165.351, 492.386 163.750 C 493.191 162.474, 493.191 161.526, 492.386 160.250 C 491.377 158.649, 488.434 158.478, 457.854 158.237 C 432.691 158.039, 424.126 158.274, 423.213 159.187 M 31.054 167.728 C 25.018 169.859, 17.781 177.260, 15.667 183.463 C 9.122 202.673, 22.106 221.195, 41.928 220.924 C 44.993 220.882, 48.933 220.320, 50.684 219.674 C 61.521 215.679, 69 204.991, 69 193.500 C 69 182.009, 61.521 171.321, 50.684 167.326 C 46.195 165.671, 36.306 165.873, 31.054 167.728 M 110 194 L 110 222 138 222 L 166 222 166 194 L 166 166 138 166 L 110 166 110 194 M 39.571 191.571 C 38.707 192.436, 38 193.529, 38 194 C 38 195.111, 40.889 198, 42 198 C 43.111 198, 46 195.111, 46 194 C 46 192.889, 43.111 190, 42 190 C 41.529 190, 40.436 190.707, 39.571 191.571 M 371.500 191.207 C 366.541 192.940, 361.894 197.021, 359.913 201.384 C 357.366 206.992, 357.426 211.623, 360.064 213.034 C 362.831 214.515, 364.594 212.976, 365.468 208.318 C 366.742 201.527, 370.717 198, 377.097 198 C 383.478 198, 389.784 204.144, 388.775 209.378 C 388.550 210.545, 381.533 221.730, 373.183 234.234 C 364.832 246.737, 358 257.595, 358 258.361 C 358 261.608, 360.598 262.051, 378.024 261.774 C 393.193 261.533, 395.418 261.288, 396.387 259.750 C 397.190 258.476, 397.190 257.524, 396.389 256.250 C 395.460 254.774, 393.231 254.422, 382.143 254 L 368.998 253.500 383.036 232.500 C 395.990 213.121, 397.025 211.233, 396.453 208.047 C 394.159 195.272, 382.459 187.376, 371.500 191.207 M 423.213 223.187 C 421.601 224.799, 421.675 227.485, 423.369 228.891 C 424.345 229.701, 434.290 229.952, 458.010 229.764 C 488.441 229.523, 491.377 229.351, 492.386 227.750 C 493.191 226.474, 493.191 225.526, 492.386 224.250 C 491.377 222.649, 488.434 222.478, 457.854 222.237 C 432.691 222.039, 424.126 222.274, 423.213 223.187 " stroke="none" fill="black" fill-rule="evenodd"/>
</svg>