<svg xmlns="http://www.w3.org/2000/svg" width="468" height="324" viewBox="0 0 468 324" version="1.1">
	<path d="M 72.372 62.765 C 70.418 64.037, 54.003 97.844, 54.593 99.381 C 55.268 101.141, 57.513 102.124, 59.295 101.440 C 60.007 101.167, 63.480 95.106, 67.014 87.972 C 70.547 80.837, 73.691 75, 74 75 C 74.309 75, 77.453 80.837, 80.986 87.972 C 84.520 95.106, 87.993 101.167, 88.705 101.440 C 90.487 102.124, 92.732 101.141, 93.407 99.381 C 93.716 98.575, 90.096 90.173, 85.363 80.708 C 77.638 65.261, 75.672 62.031, 74 62.031 C 73.725 62.031, 72.992 62.361, 72.372 62.765 M 64.500 127.002 C 56.514 128.203, 51.023 129.952, 43 133.853 C 32.394 139.010, 18.890 152.479, 13.778 163 C 7.648 175.615, 4.334 193.191, 7.491 196.348 C 9.547 198.404, 10.439 198.418, 12.429 196.429 C 13.404 195.453, 14.006 193.082, 14.015 190.179 C 14.091 166.127, 34.559 141.323, 59.103 135.537 C 67.282 133.610, 79.718 133.610, 87.897 135.537 C 112.441 141.323, 132.909 166.127, 132.985 190.179 C 133.011 198.191, 132.245 198, 164.274 198 L 192.405 198 179.202 211.333 C 171.941 218.666, 166 225.159, 166 225.761 C 166 227.187, 168.825 230, 170.257 230 C 172.006 230, 206 195.761, 206 194 C 206 192.239, 172.006 158, 170.257 158 C 168.825 158, 166 160.813, 166 162.239 C 166 162.841, 171.949 169.342, 179.219 176.684 L 192.439 190.035 166.469 189.767 L 140.500 189.500 139.873 184.500 C 136.214 155.307, 112.208 131.347, 82.284 127.020 C 74.671 125.920, 71.714 125.917, 64.500 127.002 M 384.500 127.002 C 376.514 128.203, 371.023 129.952, 363 133.853 C 352.394 139.010, 338.890 152.479, 333.778 163 C 327.648 175.615, 324.334 193.191, 327.491 196.348 C 329.547 198.404, 330.439 198.418, 332.429 196.429 C 333.404 195.453, 334.006 193.082, 334.015 190.179 C 334.091 166.127, 354.559 141.323, 379.103 135.537 C 382.621 134.708, 386.063 134.023, 386.752 134.015 C 387.440 134.007, 374.052 161.899, 357.002 195.997 C 339.951 230.095, 326 258.188, 326 258.425 C 326 258.663, 326.707 259.564, 327.571 260.429 C 328.968 261.825, 336.372 262, 394 262 C 451.628 262, 459.032 261.825, 460.429 260.429 C 461.293 259.564, 462 258.663, 462 258.425 C 462 258.188, 448.049 230.095, 430.998 195.997 C 413.948 161.899, 400.335 134.007, 400.748 134.015 C 401.162 134.023, 404.379 134.708, 407.897 135.537 C 432.441 141.323, 452.909 166.127, 452.985 190.179 C 452.994 193.082, 453.596 195.453, 454.571 196.429 C 456.561 198.418, 457.453 198.404, 459.509 196.348 C 461.405 194.452, 460.963 186.993, 458.334 176.536 C 450.299 144.578, 416.848 122.136, 384.500 127.002 M 364.747 196.500 L 336.002 254 394 254 L 451.998 254 423.253 196.500 C 407.443 164.875, 394.279 139, 394 139 C 393.721 139, 380.557 164.875, 364.747 196.500 M 387.637 175.465 C 380.890 177.870, 375.867 183.861, 374.503 191.131 C 373.855 194.586, 375.593 198, 378 198 C 379.861 198, 382 194.700, 382 191.829 C 382 189.718, 383.030 187.770, 385.400 185.400 C 388.302 182.498, 389.488 182, 393.500 182 C 397.512 182, 398.698 182.498, 401.600 185.400 C 404.502 188.302, 405 189.488, 405 193.500 C 405 197.512, 404.502 198.698, 401.600 201.600 C 399.526 203.674, 397.214 205, 395.671 205 C 391.012 205, 390 207.231, 390 217.500 C 390 224.673, 390.367 227.224, 391.571 228.429 C 392.436 229.293, 393.529 230, 394 230 C 396.689 230, 398 226.575, 398 219.550 C 398 212.379, 398.056 212.219, 400.989 211.004 C 408.077 208.069, 413.944 197.649, 412.441 190.666 C 410.872 183.379, 405.022 176.933, 398.277 175.060 C 393.498 173.733, 392.376 173.776, 387.637 175.465 M 231.571 191.571 C 230.707 192.436, 230 193.529, 230 194 C 230 194.471, 230.707 195.564, 231.571 196.429 C 232.936 197.793, 237.463 198, 266 198 C 294.537 198, 299.064 197.793, 300.429 196.429 C 301.293 195.564, 302 194.471, 302 194 C 302 193.529, 301.293 192.436, 300.429 191.571 C 299.064 190.207, 294.537 190, 266 190 C 237.463 190, 232.936 190.207, 231.571 191.571 M 391.571 238.571 C 390.707 239.436, 390 240.529, 390 241 C 390 242.111, 392.889 245, 394 245 C 395.111 245, 398 242.111, 398 241 C 398 239.889, 395.111 237, 394 237 C 393.529 237, 392.436 237.707, 391.571 238.571 " stroke="none" fill="black" fill-rule="evenodd"/>
</svg>