<svg xmlns="http://www.w3.org/2000/svg" width="148" height="324" viewBox="0 0 148 324" version="1.1">
	<path d="M 55.571 63.571 C 54.707 64.436, 54 65.317, 54 65.531 C 54 66.993, 71.421 100.653, 72.488 101.252 C 73.225 101.665, 74.440 101.768, 75.188 101.481 C 76.837 100.849, 93 68.755, 93 66.115 C 93 63.770, 90.710 61.790, 88.832 62.511 C 88.050 62.811, 84.520 68.894, 80.986 76.028 C 77.453 83.163, 74.306 89, 73.994 89 C 73.683 89, 70.969 83.984, 67.964 77.854 C 62.437 66.580, 59.559 62, 57.999 62 C 57.528 62, 56.436 62.707, 55.571 63.571 M 39.267 159.267 C 20.970 177.563, 6 193.056, 6 193.695 C 6 195.194, 8.796 197.994, 10.321 198.022 C 10.970 198.034, 25.516 183.922, 42.647 166.663 L 73.795 135.283 104.147 165.704 C 120.841 182.435, 135.316 196.578, 136.314 197.132 C 138.593 198.397, 141.227 196.472, 140.798 193.855 C 140.468 191.839, 75.247 126, 73.580 126 C 73.004 126, 57.563 140.970, 39.267 159.267 M 49.972 191.329 C 31.771 195.347, 19.510 213.552, 22.987 231.396 C 27.307 253.570, 49.425 266.026, 70.339 258.063 C 72.550 257.221, 74.212 257.343, 77.839 258.613 C 89.845 262.816, 104.265 259.586, 113.342 250.661 C 121.431 242.707, 123.477 237.626, 123.477 225.500 C 123.477 216.926, 123.129 214.787, 121.033 210.500 C 117.519 203.308, 109.343 195.656, 102.297 192.963 C 95.238 190.266, 84.626 190.011, 77.871 192.376 C 73.836 193.789, 72.743 193.821, 69.351 192.624 C 63.281 190.482, 56.010 189.996, 49.972 191.329 M 47.627 199.468 C 42.247 201.386, 37.039 205.829, 33.500 211.519 C 29.527 217.908, 28.712 229.311, 31.741 236.129 C 36.169 246.094, 44.131 251.920, 54.454 252.748 C 57.960 253.030, 62.024 252.960, 63.485 252.593 L 66.142 251.926 62.922 248.259 C 51.682 235.457, 51.654 215.575, 62.858 202.814 C 65.476 199.832, 65.743 199.116, 64.425 198.610 C 61.620 197.533, 51.622 198.044, 47.627 199.468 M 82.313 198.641 C 81.556 198.950, 82.549 201.005, 85.053 204.312 C 90.149 211.043, 92 216.689, 92 225.500 C 92 234.306, 90.149 239.957, 85.065 246.672 C 80.554 252.630, 80.870 253.044, 89.832 252.924 C 104.824 252.723, 115.679 242.217, 116.779 226.844 C 117.225 220.610, 116.976 219.393, 114.023 213.396 C 110.660 206.563, 105.515 201.845, 98.684 199.326 C 95.534 198.165, 84.606 197.708, 82.313 198.641 M 68.972 206.685 C 63.925 212.432, 62.047 217.532, 62.022 225.554 C 61.997 233.582, 64.752 240.472, 69.998 245.498 L 73.010 248.383 75.755 246.346 C 77.265 245.225, 79.963 241.500, 81.750 238.067 C 86.239 229.445, 86.294 221.909, 81.931 213.178 C 79.187 207.687, 75.060 203, 72.969 203 C 72.550 203, 70.751 204.658, 68.972 206.685 " stroke="none" fill="black" fill-rule="evenodd"/>
</svg>