<svg xmlns="http://www.w3.org/2000/svg" width="276" height="324" viewBox="0 0 276 324" version="1.1">
	<path d="M 35.045 127.092 C 19.667 130.107, 7.255 144.071, 6.841 158.824 C 6.689 164.231, 10.459 179.667, 14.976 192.133 C 21.053 208.902, 33.075 227.074, 46.717 240.107 C 55.990 248.967, 71.179 260, 74.103 260 C 75.247 260, 77.380 259.083, 78.842 257.962 C 80.304 256.841, 85.561 252.856, 90.524 249.106 C 115.693 230.086, 133.319 201.269, 139.405 169.189 C 140.580 162.992, 140.715 159.758, 139.963 155.763 C 135.596 132.560, 112.226 120.286, 90.616 129.845 C 85.222 132.232, 79.372 137.363, 76.005 142.662 L 73.360 146.824 71.503 143.377 C 69.181 139.064, 62.418 132.764, 57.318 130.162 C 55.183 129.073, 50.781 127.691, 47.535 127.091 C 40.969 125.877, 41.243 125.877, 35.045 127.092 M 183.250 126.662 C 181.097 127.531, 181.875 130.819, 185.293 135.297 C 191.709 143.703, 193.492 149.289, 193.496 161 C 193.500 170.709, 193.265 171.990, 190.377 178 C 188.659 181.575, 184.952 187.335, 182.139 190.801 C 179.326 194.266, 175.930 198.991, 174.591 201.301 C 166.733 214.860, 166.777 235.221, 174.694 248.875 C 180.649 259.146, 187.890 264.073, 189.513 258.960 C 189.987 257.465, 189.173 255.827, 186.468 252.833 C 184.438 250.586, 181.364 245.766, 179.638 242.123 C 176.740 236.007, 176.500 234.696, 176.500 225 C 176.500 215.295, 176.737 214.008, 179.623 208 C 181.341 204.425, 185.048 198.665, 187.861 195.199 C 197.743 183.025, 201.329 173.917, 201.329 161 C 201.329 149.007, 197.308 137.976, 189.831 129.460 C 186.865 126.082, 185.805 125.631, 183.250 126.662 M 31.054 135.728 C 24.787 137.940, 17.726 145.297, 15.534 151.899 C 13.881 156.875, 13.875 157.704, 15.430 166.205 C 18.769 184.454, 25.331 200.650, 35.740 216.330 C 41.768 225.410, 57.343 241.046, 66.659 247.369 L 73.817 252.228 79.235 248.632 C 104.319 231.983, 122.938 205.409, 130.553 175.392 C 134.737 158.897, 133.307 150.212, 125.048 141.952 C 117.477 134.382, 106.241 131.995, 95.463 135.667 C 86.088 138.862, 78 149.949, 78 159.607 C 78 162.970, 75.867 166, 73.500 166 C 71.133 166, 69 162.970, 69 159.607 C 69 149.949, 60.912 138.862, 51.537 135.667 C 45.516 133.616, 36.964 133.641, 31.054 135.728 M 231.571 159.571 C 229.215 161.927, 229.215 210.073, 231.571 212.429 C 232.436 213.293, 233.529 214, 234 214 C 234.471 214, 235.564 213.293, 236.429 212.429 C 238.785 210.073, 238.785 161.927, 236.429 159.571 C 235.564 158.707, 234.471 158, 234 158 C 233.529 158, 232.436 158.707, 231.571 159.571 M 231.571 222.571 C 230.707 223.436, 230 224.529, 230 225 C 230 225.471, 230.707 226.564, 231.571 227.429 C 232.436 228.293, 233.529 229, 234 229 C 234.471 229, 235.564 228.293, 236.429 227.429 C 237.293 226.564, 238 225.471, 238 225 C 238 224.529, 237.293 223.436, 236.429 222.571 C 235.564 221.707, 234.471 221, 234 221 C 233.529 221, 232.436 221.707, 231.571 222.571 " stroke="none" fill="black" fill-rule="evenodd"/>
</svg>