<svg xmlns="http://www.w3.org/2000/svg" width="308" height="324" viewBox="0 0 308 324" version="1.1">
	<path d="M 7.571 63.571 C 6.707 64.436, 6 65.332, 6 65.564 C 6 67.123, 23.710 101.058, 24.727 101.449 C 25.427 101.717, 26.573 101.717, 27.273 101.449 C 29.129 100.736, 46.063 66.328, 45.403 64.609 C 44.732 62.858, 42.483 61.877, 40.705 62.560 C 39.993 62.833, 36.520 68.894, 32.986 76.028 C 29.453 83.163, 26.308 89, 25.997 89 C 25.687 89, 22.748 83.534, 19.467 76.853 C 11.925 61.499, 10.847 60.296, 7.571 63.571 M 7.571 127.571 C 6.175 128.968, 6 136.372, 6 194 C 6 251.628, 6.175 259.032, 7.571 260.429 C 8.436 261.293, 9.666 262, 10.305 262 C 12.018 262, 78 195.721, 78 194 C 78 192.279, 12.018 126, 10.305 126 C 9.666 126, 8.436 126.707, 7.571 127.571 M 130.920 126.974 C 117.592 129.336, 105.912 140.986, 102.929 154.894 C 99.842 169.291, 112.008 203.678, 127.413 224.092 C 135.739 235.126, 148.571 247.248, 160.062 254.934 C 165.050 258.270, 169.451 261, 169.842 261 C 170.708 261, 178.780 255.107, 189.388 246.729 C 207.607 232.341, 222.865 210.003, 230.461 186.596 C 236.841 166.934, 237.390 156.901, 232.652 146.551 C 224.513 128.774, 202.166 121.253, 185.094 130.545 C 179.737 133.461, 172.902 139.968, 170.704 144.245 L 169.293 146.990 166.233 142.067 C 159.357 131.006, 144.352 124.593, 130.920 126.974 M 127.627 135.468 C 122.258 137.382, 117.040 141.826, 113.525 147.478 C 109.448 154.034, 108.979 162.419, 112.008 174.593 C 119.476 204.612, 137.412 230.756, 162.134 247.659 C 169.759 252.872, 169.088 252.975, 180.070 244.905 C 200.206 230.109, 217.087 206.081, 224.409 181.796 C 229.595 164.593, 229.853 156.418, 225.477 147.955 C 221.226 139.734, 211.167 134.013, 201 134.032 C 186.574 134.059, 175.738 143.976, 173.481 159.218 C 172.632 164.952, 170.900 166.731, 167.620 165.236 C 165.729 164.375, 165.194 163.165, 164.735 158.717 C 162.905 140.995, 144.490 129.457, 127.627 135.468 M 14 194 L 14 248.495 41.248 221.248 L 68.495 194 41.248 166.752 L 14 139.505 14 194 M 263.268 191.207 C 261.363 193.557, 230 256.957, 230 258.459 C 230 260.509, 233.792 262.422, 235.314 261.140 C 235.966 260.591, 243.021 247.055, 250.991 231.060 L 265.483 201.979 279.825 230.740 C 287.714 246.558, 294.867 260.045, 295.722 260.711 C 297.692 262.247, 301.021 260.657, 300.950 258.215 C 300.859 255.092, 267.585 190.516, 265.908 190.207 C 265.032 190.046, 263.844 190.496, 263.268 191.207 " stroke="none" fill="black" fill-rule="evenodd"/>
</svg>