<svg xmlns="http://www.w3.org/2000/svg" width="340" height="324" viewBox="0 0 340 324" version="1.1">
	<path d="M 39.571 127.571 C 38.176 128.966, 38 136.152, 38 191.571 L 38 254 23.571 254 C 11.788 254, 8.855 254.288, 7.571 255.571 C 5.598 257.545, 5.598 258.455, 7.571 260.429 C 8.936 261.793, 13.463 262, 42 262 C 70.537 262, 75.064 261.793, 76.429 260.429 C 77.293 259.564, 78 258.471, 78 258 C 78 257.529, 77.293 256.436, 76.429 255.571 C 75.145 254.288, 72.212 254, 60.429 254 L 46 254 46 191.571 C 46 136.152, 45.824 128.966, 44.429 127.571 C 43.564 126.707, 42.471 126, 42 126 C 41.529 126, 40.436 126.707, 39.571 127.571 M 103.571 127.571 C 102.175 128.968, 102 136.372, 102 194 C 102 251.628, 102.175 259.032, 103.571 260.429 C 104.436 261.293, 105.529 262, 106 262 C 106.471 262, 107.564 261.293, 108.429 260.429 C 109.825 259.032, 110 251.628, 110 194 C 110 136.372, 109.825 128.968, 108.429 127.571 C 107.564 126.707, 106.471 126, 106 126 C 105.529 126, 104.436 126.707, 103.571 127.571 M 231.750 127.080 C 230.111 128.035, 230 132.293, 230 194.015 C 230 258.159, 230.052 259.957, 231.934 260.965 C 234.436 262.304, 234.569 262.288, 236.429 260.429 C 237.825 259.032, 238 251.628, 238 194 C 238 136.372, 237.825 128.968, 236.429 127.571 C 234.607 125.750, 234.121 125.699, 231.750 127.080 M 295.750 127.080 C 294.113 128.034, 294 132.152, 294 191.050 L 294 254 279.934 254 C 265.308 254, 262 254.738, 262 258 C 262 261.750, 264.791 262.037, 298.601 261.764 C 328.469 261.523, 331.378 261.349, 332.386 259.750 C 333.190 258.475, 333.191 257.525, 332.387 256.250 C 331.433 254.736, 329.314 254.463, 316.643 254.223 L 302 253.947 302 192.196 C 302 137.925, 301.811 130.176, 300.443 128.223 C 298.702 125.736, 298.248 125.625, 295.750 127.080 M 167.571 159.571 C 166.288 160.855, 166 163.788, 166 175.571 L 166 190 151.571 190 C 139.788 190, 136.855 190.288, 135.571 191.571 C 133.598 193.545, 133.598 194.455, 135.571 196.429 C 136.855 197.712, 139.788 198, 151.571 198 L 166 198 166 212.429 C 166 224.212, 166.288 227.145, 167.571 228.429 C 169.545 230.402, 170.455 230.402, 172.429 228.429 C 173.712 227.145, 174 224.212, 174 212.429 L 174 198 188.429 198 C 200.212 198, 203.145 197.712, 204.429 196.429 C 206.402 194.455, 206.402 193.545, 204.429 191.571 C 203.145 190.288, 200.212 190, 188.429 190 L 174 190 174 175.571 C 174 163.788, 173.712 160.855, 172.429 159.571 C 171.564 158.707, 170.471 158, 170 158 C 169.529 158, 168.436 158.707, 167.571 159.571 " stroke="none" fill="black" fill-rule="evenodd"/>
</svg>