<svg xmlns="http://www.w3.org/2000/svg" width="372" height="324" viewBox="0 0 372 324" version="1.1">
	<path d="M 7.571 127.571 C 5.697 129.445, 5.696 129.468, 7.123 136.201 C 10.019 149.864, 20.262 160.544, 33.283 163.476 C 38.281 164.602, 38.304 164.626, 39.687 170.029 C 43.169 183.635, 52.835 192.662, 67.685 196.175 C 70.333 196.802, 78.677 197.492, 86.227 197.710 L 99.954 198.105 84.993 228.013 C 76.765 244.463, 70.285 258.580, 70.594 259.384 C 71.265 261.133, 73.512 262.125, 75.274 261.448 C 75.975 261.180, 83.056 247.919, 91.010 231.980 C 98.964 216.041, 105.710 203, 106 203 C 106.290 203, 113.036 216.041, 120.990 231.980 C 128.944 247.919, 136.025 261.180, 136.726 261.448 C 137.427 261.717, 138.573 261.717, 139.274 261.448 C 139.975 261.180, 147.056 247.919, 155.010 231.980 C 162.964 216.041, 169.710 203, 170 203 C 170.290 203, 177.036 216.041, 184.990 231.980 C 192.944 247.919, 200.025 261.180, 200.726 261.448 C 202.488 262.125, 204.735 261.133, 205.406 259.384 C 205.715 258.580, 199.223 244.439, 190.980 227.961 L 175.994 198 189.425 198 C 200.303 198, 203.156 197.701, 204.429 196.429 C 206.244 194.613, 206.319 194.053, 205.022 192 C 204.200 190.700, 195.057 190.428, 136.287 189.962 C 73.146 189.460, 68.160 189.295, 63.535 187.545 C 56.940 185.049, 49.826 177.872, 47.667 171.537 C 45.371 164.797, 45.492 164.318, 49.703 163.528 C 61.479 161.319, 72.515 150.267, 75.547 137.647 C 76.227 134.816, 77.083 131.771, 77.449 130.879 C 78.234 128.968, 75.622 125.993, 73.179 126.016 C 69.226 126.052, 59.869 128.887, 55.769 131.290 C 47.801 135.959, 41.002 145.140, 39.472 153.297 C 38.682 157.508, 38.203 157.629, 31.463 155.333 C 22.315 152.216, 14 141.055, 14 131.893 C 14 129.253, 11.792 126, 10 126 C 9.529 126, 8.436 126.707, 7.571 127.571 M 231.571 127.571 C 230.175 128.968, 230 136.372, 230 194 C 230 251.628, 230.175 259.032, 231.571 260.429 C 232.968 261.825, 240.372 262, 298 262 C 355.628 262, 363.032 261.825, 364.429 260.429 C 365.825 259.032, 366 251.628, 366 194 C 366 136.372, 365.825 128.968, 364.429 127.571 C 363.564 126.707, 362.471 126, 362 126 C 361.529 126, 360.436 126.707, 359.571 127.571 C 358.176 128.966, 358 136.152, 358 191.571 L 358 254 298 254 L 238 254 238 191.571 C 238 136.152, 237.824 128.966, 236.429 127.571 C 235.564 126.707, 234.471 126, 234 126 C 233.529 126, 232.436 126.707, 231.571 127.571 M 63.054 135.728 C 57.022 137.857, 49.781 145.261, 47.670 151.455 C 46.755 154.141, 46.153 156.487, 46.333 156.667 C 46.513 156.847, 48.710 156.296, 51.214 155.443 C 59.329 152.678, 65.751 145.537, 68.475 136.250 C 69.238 133.649, 69.005 133.627, 63.054 135.728 M 124.743 223.500 C 131.750 237.525, 137.715 249, 138 249 C 138.285 249, 144.250 237.525, 151.257 223.500 L 163.995 198 138 198 L 112.005 198 124.743 223.500 " stroke="none" fill="black" fill-rule="evenodd"/>
</svg>