<svg xmlns="http://www.w3.org/2000/svg" width="403" height="324" viewBox="0 0 403 324" version="1.1">
	<path d="M 199.750 127.080 C 198.207 127.979, 198 129.866, 198 143.050 L 198 158 183.934 158 C 169.308 158, 166 158.738, 166 162 C 166 165.262, 169.308 166, 183.934 166 L 198 166 198 194 L 198 222 183.934 222 C 169.308 222, 166 222.738, 166 226 C 166 229.262, 169.308 230, 183.934 230 L 198 230 198 244.965 C 198 259.061, 198.120 259.994, 200.064 261.034 C 204.316 263.310, 205 261.071, 205 244.878 L 205 230 233.500 230 L 262 230 262 244.965 C 262 259.061, 262.120 259.994, 264.064 261.034 C 268.315 263.309, 269 261.069, 269 244.904 L 269 230.052 284.142 229.776 C 297.291 229.536, 299.430 229.270, 300.387 227.750 C 301.191 226.475, 301.191 225.525, 300.387 224.250 C 299.430 222.730, 297.291 222.464, 284.142 222.224 L 269 221.948 269 194 L 269 166.052 284.142 165.776 C 297.291 165.536, 299.430 165.270, 300.387 163.750 C 301.191 162.475, 301.191 161.525, 300.387 160.250 C 299.430 158.730, 297.291 158.464, 284.142 158.224 L 269 157.948 269 143.096 C 269 126.931, 268.315 124.691, 264.064 126.966 C 262.120 128.006, 262 128.939, 262 143.035 L 262 158 233.500 158 L 205 158 205 143.200 C 205 126.584, 204.299 124.431, 199.750 127.080 M 71.482 159.661 C 67.893 163.250, 72.565 177.318, 80.038 185.425 L 84.255 190 46.699 190 C 13.890 190, 8.944 190.199, 7.571 191.571 C 5.598 193.545, 5.598 194.455, 7.571 196.429 C 8.844 197.701, 11.697 198, 22.575 198 L 36.006 198 21.020 227.961 C 12.777 244.439, 6.285 258.580, 6.594 259.384 C 7.265 261.133, 9.512 262.125, 11.274 261.448 C 11.975 261.180, 19.056 247.919, 27.010 231.980 C 34.964 216.041, 41.717 203, 42.016 203 C 42.315 203, 49.042 216.034, 56.965 231.964 C 64.888 247.894, 71.962 261.155, 72.685 261.433 C 73.408 261.710, 74.573 261.717, 75.274 261.448 C 75.975 261.180, 83.056 247.919, 91.010 231.980 C 98.964 216.041, 105.710 203, 106 203 C 106.290 203, 113.036 216.041, 120.990 231.980 C 128.944 247.919, 136.083 261.201, 136.853 261.497 C 138.718 262.213, 141 260.217, 141 257.871 C 141 256.835, 134.480 242.952, 126.511 227.021 L 112.021 198.056 125.653 197.778 C 137.361 197.539, 139.441 197.253, 140.388 195.750 C 142.509 192.382, 139.994 190.532, 132.856 190.209 L 126.421 189.918 130.547 185.612 C 132.817 183.243, 135.730 179.124, 137.021 176.457 C 140.839 168.570, 140.798 158, 136.949 158 C 135.079 158, 133 161.376, 133 164.412 C 133 166.210, 131.598 170.486, 129.885 173.914 C 124.545 184.601, 115.035 189.758, 102.521 188.754 C 89.558 187.713, 78.092 176.512, 78.022 164.821 C 78.002 161.403, 75.995 158, 74 158 C 73.529 158, 72.395 158.747, 71.482 159.661 M 205 194 L 205 222 233.500 222 L 262 222 262 194 L 262 166 233.500 166 L 205 166 205 194 M 359.268 191.207 C 357.363 193.557, 326 256.957, 326 258.459 C 326 260.509, 329.792 262.422, 331.314 261.140 C 331.966 260.591, 339.021 247.055, 346.991 231.060 L 361.483 201.979 375.825 230.740 C 383.714 246.558, 390.867 260.045, 391.722 260.711 C 393.692 262.247, 397.021 260.657, 396.950 258.215 C 396.859 255.092, 363.585 190.516, 361.908 190.207 C 361.032 190.046, 359.844 190.496, 359.268 191.207 M 60.743 223.500 C 67.750 237.525, 73.715 249, 74 249 C 74.285 249, 80.250 237.525, 87.257 223.500 L 99.995 198 74 198 L 48.005 198 60.743 223.500 " stroke="none" fill="black" fill-rule="evenodd"/>
</svg>