<svg xmlns="http://www.w3.org/2000/svg" width="372" height="324" viewBox="0 0 372 324" version="1.1">
	<path d="M 247.213 111.315 C 237.746 120.838, 230 129.131, 230 129.743 C 230 131.175, 232.813 134, 234.239 134 C 234.841 134, 241.334 128.059, 248.667 120.798 L 262 107.595 262 135.226 C 262 159.012, 262.219 163.076, 263.571 164.429 C 264.436 165.293, 265.529 166, 266 166 C 266.471 166, 267.564 165.293, 268.429 164.429 C 269.781 163.076, 270 159.012, 270 135.226 L 270 107.595 283.333 120.798 C 290.666 128.059, 297.159 134, 297.761 134 C 299.187 134, 302 131.175, 302 129.743 C 302 127.994, 267.761 94, 266 94 C 265.134 94, 256.680 101.792, 247.213 111.315 M 55.213 143.315 C 45.746 152.838, 38 161.131, 38 161.743 C 38 163.175, 40.813 166, 42.239 166 C 42.841 166, 49.334 160.059, 56.667 152.798 L 70 139.595 70 196.298 C 70 251.856, 69.961 253, 68.049 253 C 63.279 253, 54.848 250.508, 47.101 246.809 C 28.370 237.865, 14 216.251, 14 197.022 C 14 193.416, 12.054 190, 10 190 C 9.529 190, 8.399 190.743, 7.491 191.652 C 4.366 194.777, 7.569 211.386, 13.692 223.806 C 20.199 237.006, 34.307 250.007, 48.314 255.712 C 57.177 259.321, 72.914 261.930, 78.829 260.771 C 100.952 256.434, 108.121 252.956, 120.539 240.539 C 132.935 228.143, 138.454 216.744, 140.457 199.402 C 141.032 194.418, 140.859 193.002, 139.509 191.652 C 138.601 190.743, 137.471 190, 137 190 C 134.946 190, 133 193.416, 133 197.022 C 133 209.705, 126.051 225.046, 115.548 235.548 C 109.970 241.127, 106.362 243.723, 99.899 246.809 C 92.473 250.355, 83.737 253, 79.451 253 C 78.200 253, 78 245.178, 78 196.298 L 78 139.595 91.333 152.798 C 98.666 160.059, 105.159 166, 105.761 166 C 107.187 166, 110 163.175, 110 161.743 C 110 159.994, 75.761 126, 74 126 C 73.134 126, 64.680 133.792, 55.213 143.315 M 183.315 175.213 C 173.792 184.680, 166 193.134, 166 194 C 166 195.761, 199.994 230, 201.743 230 C 203.175 230, 206 227.187, 206 225.761 C 206 225.159, 200.059 218.666, 192.798 211.333 L 179.595 198 207.226 198 C 231.012 198, 235.076 197.781, 236.429 196.429 C 238.402 194.455, 238.402 193.545, 236.429 191.571 C 235.076 190.219, 231.012 190, 207.226 190 L 179.595 190 192.798 176.667 C 200.059 169.334, 206 162.841, 206 162.239 C 206 160.813, 203.175 158, 201.743 158 C 201.131 158, 192.838 165.746, 183.315 175.213 M 327.571 159.571 C 326.707 160.436, 326 161.636, 326 162.239 C 326 162.841, 331.941 169.334, 339.202 176.667 L 352.405 190 324.774 190 C 300.988 190, 296.924 190.219, 295.571 191.571 C 293.598 193.545, 293.598 194.455, 295.571 196.429 C 296.924 197.781, 300.988 198, 324.774 198 L 352.405 198 339.202 211.333 C 331.941 218.666, 326 225.159, 326 225.761 C 326 227.187, 328.825 230, 330.257 230 C 332.006 230, 366 195.761, 366 194 C 366 192.239, 332.006 158, 330.257 158 C 329.644 158, 328.436 158.707, 327.571 159.571 M 263.571 223.571 C 262.219 224.924, 262 228.988, 262 252.774 L 262 280.405 248.667 267.202 C 241.334 259.941, 234.841 254, 234.239 254 C 232.813 254, 230 256.825, 230 258.257 C 230 260.006, 264.239 294, 266 294 C 267.761 294, 302 260.006, 302 258.257 C 302 256.825, 299.187 254, 297.761 254 C 297.159 254, 290.666 259.941, 283.333 267.202 L 270 280.405 270 252.774 C 270 228.988, 269.781 224.924, 268.429 223.571 C 267.564 222.707, 266.471 222, 266 222 C 265.529 222, 264.436 222.707, 263.571 223.571 " stroke="none" fill="black" fill-rule="evenodd"/>
</svg>