<svg xmlns="http://www.w3.org/2000/svg" width="403" height="324" viewBox="0 0 403 324" version="1.1">
	<path d="M 39.267 159.267 L 6 192.533 6 225.695 C 6 254.509, 6.206 259.063, 7.571 260.429 C 8.968 261.825, 16.343 261.998, 73.821 261.985 C 109.395 261.976, 139.087 261.597, 139.805 261.142 C 140.836 260.488, 141.110 253.181, 141.110 226.282 L 141.110 192.250 108.305 159.096 C 90.262 140.861, 74.832 125.955, 74.017 125.971 C 73.201 125.987, 57.563 140.970, 39.267 159.267 M 194.920 126.974 C 180.979 129.445, 168.481 142.596, 166.519 156.859 C 165.747 162.472, 168.748 178.377, 172.628 189.234 C 181.917 215.229, 200.779 239.380, 223.816 254.775 C 228.939 258.199, 233.513 261, 233.981 261 C 234.448 261, 235.881 260.096, 237.165 258.992 C 238.449 257.887, 243.140 254.345, 247.589 251.120 C 271.474 233.806, 289.219 207.727, 297.001 178.500 C 300.313 166.059, 300.662 156.699, 298.069 149.847 C 294.071 139.285, 285.853 131.302, 275.500 127.923 C 268.836 125.748, 258.034 126.380, 251.612 129.320 C 245.381 132.173, 236.954 139.546, 234.769 144.057 L 233.324 147.041 230.248 142.093 C 223.357 131.006, 208.365 124.590, 194.920 126.974 M 343.239 143.260 C 333.758 152.754, 326 161.288, 326 162.225 C 326 163.163, 326.959 164.443, 328.131 165.070 C 330.073 166.110, 331.495 164.981, 344.131 152.369 L 358 138.527 358 199.228 C 358 256.352, 358.105 259.986, 359.776 260.880 C 360.902 261.483, 362.182 261.478, 363.276 260.866 C 364.879 259.969, 365 255.627, 365 199.246 L 365 138.592 378.913 152.378 C 391.463 164.813, 393.030 166.054, 394.913 165.047 C 396.061 164.432, 397 163.153, 397 162.204 C 397 160.410, 363.239 126, 361.479 126 C 360.929 126, 352.721 133.767, 343.239 143.260 M 191.627 135.468 C 186.252 137.384, 181.039 141.827, 177.512 147.500 C 175.071 151.425, 174.464 153.606, 174.197 159.403 C 173.555 173.361, 181.562 196.361, 193.281 214.219 C 200.482 225.192, 215.373 240.438, 225.728 247.437 L 232.956 252.323 240.116 247.561 C 261.587 233.284, 279.813 208.751, 287.852 183.303 C 293.615 165.062, 293.999 156.700, 289.477 147.955 C 285.226 139.734, 275.167 134.013, 265 134.032 C 250.574 134.059, 239.738 143.976, 237.481 159.218 C 236.632 164.952, 234.900 166.731, 231.620 165.236 C 229.729 164.375, 229.194 163.165, 228.735 158.717 C 226.905 140.995, 208.490 129.457, 191.627 135.468 M 43.744 165.756 L 14 195.512 14 224.756 L 14 254 74 254 L 134 254 134 224.744 L 134 195.487 104.244 165.744 C 87.878 149.385, 74.263 136, 73.988 136 C 73.713 136, 60.103 149.390, 43.744 165.756 " stroke="none" fill="black" fill-rule="evenodd"/>
</svg>