<svg xmlns="http://www.w3.org/2000/svg" width="276" height="324" viewBox="0 0 276 324" version="1.1">
	<path d="M 39.571 127.571 C 38.176 128.966, 38 136.152, 38 191.571 L 38 254 23.571 254 C 11.788 254, 8.855 254.288, 7.571 255.571 C 5.598 257.545, 5.598 258.455, 7.571 260.429 C 8.936 261.793, 13.463 262, 42 262 C 70.537 262, 75.064 261.793, 76.429 260.429 C 77.293 259.564, 78 258.471, 78 258 C 78 257.529, 77.293 256.436, 76.429 255.571 C 75.145 254.288, 72.212 254, 60.429 254 L 46 254 46 191.571 C 46 136.152, 45.824 128.966, 44.429 127.571 C 43.564 126.707, 42.471 126, 42 126 C 41.529 126, 40.436 126.707, 39.571 127.571 M 226.223 127.012 C 215.933 129.160, 205.981 137.443, 201.216 147.825 C 197.512 155.894, 197.512 167.106, 201.216 175.175 C 204.212 181.701, 210.377 188.811, 215.377 191.503 L 218.824 193.360 214.662 196.005 C 209.047 199.573, 204.227 205.265, 201.157 211.954 C 197.526 219.863, 197.540 231.168, 201.191 239.120 C 204.319 245.936, 209.835 252.233, 215.673 255.654 C 220.824 258.673, 233.869 262.124, 236 261.032 C 236.825 260.609, 239.300 259.941, 241.500 259.548 C 250.256 257.981, 260.364 250.087, 264.834 241.325 C 272.896 225.522, 267.396 205.573, 252.338 196.005 L 248.176 193.360 251.623 191.503 C 263.276 185.228, 270.731 168.792, 268 155.396 C 264.022 135.884, 245.148 123.060, 226.223 127.012 M 223.054 135.728 C 217.018 137.859, 209.781 145.260, 207.667 151.463 C 203.964 162.333, 206.320 173.225, 214.048 180.952 C 218.185 185.090, 225.537 189, 229.178 189 C 229.630 189, 230 176.625, 230 161.500 C 230 140.125, 229.722 134.018, 228.750 134.079 C 228.063 134.122, 225.499 134.864, 223.054 135.728 M 238 161.500 L 238 189.135 240.250 188.448 C 249.341 185.671, 256.783 179.020, 259.403 171.329 C 264.854 155.332, 256.639 139.558, 240.250 134.552 L 238 133.865 238 161.500 M 103.571 159.571 C 102.207 160.936, 102 165.463, 102 194 C 102 222.537, 102.207 227.064, 103.571 228.429 C 104.936 229.793, 109.463 230, 138 230 C 166.537 230, 171.064 229.793, 172.429 228.429 C 173.793 227.064, 174 222.537, 174 194 C 174 165.463, 173.793 160.936, 172.429 159.571 C 171.064 158.207, 166.537 158, 138 158 C 109.463 158, 104.936 158.207, 103.571 159.571 M 110 194 L 110 222 138 222 L 166 222 166 194 L 166 166 138 166 L 110 166 110 194 M 223.054 199.728 C 217.018 201.859, 209.781 209.260, 207.667 215.463 C 203.964 226.333, 206.320 237.225, 214.048 244.952 C 218.185 249.090, 225.537 253, 229.178 253 C 229.630 253, 230 240.625, 230 225.500 C 230 204.125, 229.722 198.018, 228.750 198.079 C 228.063 198.122, 225.499 198.864, 223.054 199.728 M 238 225.500 L 238 253.135 240.250 252.448 C 249.341 249.671, 256.783 243.020, 259.403 235.329 C 264.854 219.332, 256.639 203.558, 240.250 198.552 L 238 197.865 238 225.500 " stroke="none" fill="black" fill-rule="evenodd"/>
</svg>