<svg xmlns="http://www.w3.org/2000/svg" width="276" height="324" viewBox="0 0 276 324" version="1.1">
	<path d="M 72.372 62.765 C 70.418 64.037, 54.003 97.844, 54.593 99.381 C 55.268 101.141, 57.513 102.124, 59.295 101.440 C 60.007 101.167, 63.480 95.106, 67.014 87.972 C 70.547 80.837, 73.691 75, 74 75 C 74.309 75, 77.453 80.837, 80.986 87.972 C 84.520 95.106, 87.993 101.167, 88.705 101.440 C 90.487 102.124, 92.732 101.141, 93.407 99.381 C 93.716 98.575, 90.096 90.173, 85.363 80.708 C 77.638 65.261, 75.672 62.031, 74 62.031 C 73.725 62.031, 72.992 62.361, 72.372 62.765 M 72.369 126.765 C 70.390 128.050, 6.009 257.860, 6.594 259.385 C 7.263 261.129, 9.511 262.125, 11.262 261.453 C 11.956 261.187, 25.431 235.213, 41.206 203.734 L 69.888 146.500 69.944 200.250 L 70 254 55.571 254 C 43.788 254, 40.855 254.288, 39.571 255.571 C 37.598 257.545, 37.598 258.455, 39.571 260.429 C 40.936 261.793, 45.463 262, 74 262 C 102.537 262, 107.064 261.793, 108.429 260.429 C 109.293 259.564, 110 258.471, 110 258 C 110 257.529, 109.293 256.436, 108.429 255.571 C 107.145 254.288, 104.212 254, 92.429 254 L 78 254 78 191.571 C 78 136.152, 77.824 128.966, 76.429 127.571 C 74.680 125.822, 74.022 125.692, 72.369 126.765 M 200.369 126.765 C 199.416 127.384, 134 257.155, 134 258.426 C 134 258.663, 134.707 259.564, 135.571 260.429 C 136.968 261.825, 144.372 262, 202 262 C 259.628 262, 267.032 261.825, 268.429 260.429 C 269.293 259.564, 270 258.663, 270 258.426 C 270 257.155, 204.584 127.384, 203.631 126.765 C 203.009 126.361, 202.275 126.031, 202 126.031 C 201.725 126.031, 200.991 126.361, 200.369 126.765 M 172.747 196.500 L 144.002 254 202 254 L 259.998 254 231.253 196.500 C 215.443 164.875, 202.279 139, 202 139 C 201.721 139, 188.557 164.875, 172.747 196.500 M 199.571 159.571 C 197.215 161.927, 197.215 210.073, 199.571 212.429 C 200.436 213.293, 201.529 214, 202 214 C 202.471 214, 203.564 213.293, 204.429 212.429 C 206.785 210.073, 206.785 161.927, 204.429 159.571 C 203.564 158.707, 202.471 158, 202 158 C 201.529 158, 200.436 158.707, 199.571 159.571 M 199.571 222.571 C 198.707 223.436, 198 224.529, 198 225 C 198 225.471, 198.707 226.564, 199.571 227.429 C 200.436 228.293, 201.529 229, 202 229 C 202.471 229, 203.564 228.293, 204.429 227.429 C 205.293 226.564, 206 225.471, 206 225 C 206 224.529, 205.293 223.436, 204.429 222.571 C 203.564 221.707, 202.471 221, 202 221 C 201.529 221, 200.436 221.707, 199.571 222.571 " stroke="none" fill="black" fill-rule="evenodd"/>
</svg>