<svg xmlns="http://www.w3.org/2000/svg" width="308" height="324" viewBox="0 0 308 324" version="1.1">
	<path d="M 71.550 62.918 C 67.869 68.875, 54.190 98.331, 54.604 99.410 C 55.450 101.615, 58.110 102.210, 59.895 100.594 C 60.778 99.795, 64.185 93.709, 67.467 87.070 C 70.748 80.432, 73.687 75, 73.997 75 C 74.308 75, 77.453 80.837, 80.986 87.972 C 84.520 95.106, 88.050 101.189, 88.832 101.489 C 90.716 102.212, 93 100.227, 93 97.866 C 93 95.626, 77.264 63.831, 75.628 62.765 C 74.071 61.751, 72.229 61.820, 71.550 62.918 M 89.288 173.222 L 42.028 220.444 26.691 205.222 C 18.256 196.850, 10.857 190, 10.249 190 C 8.819 190, 6 192.819, 6 194.249 C 6 194.857, 12.844 202.250, 21.208 210.677 L 36.416 226 21.208 241.323 C 12.844 249.750, 6 257.143, 6 257.751 C 6 259.181, 8.819 262, 10.249 262 C 10.857 262, 18.250 255.156, 26.677 246.792 L 42 231.584 57.323 246.792 C 65.750 255.156, 73.085 262, 73.623 262 C 75.244 262, 77 259.725, 77 257.625 C 77 256.420, 71.281 249.885, 62.334 240.867 L 47.669 226.083 94.334 178.663 C 120.001 152.582, 141 130.603, 141 129.821 C 141 128.167, 139.058 126, 137.575 126 C 137.011 126, 115.282 147.250, 89.288 173.222 M 167.750 191.080 C 165.422 192.436, 165.524 195.675, 167.934 196.965 C 168.998 197.534, 175.523 198, 182.434 198 C 189.345 198, 195 198.228, 195 198.507 C 195 198.785, 188.475 212.057, 180.500 228 C 172.525 243.943, 166 257.649, 166 258.458 C 166 260.785, 169.808 262.404, 171.663 260.865 C 172.507 260.164, 179.620 246.753, 187.468 231.063 L 201.739 202.535 216.620 232.018 C 228.660 255.873, 231.882 261.500, 233.500 261.500 C 235.119 261.500, 238.362 255.829, 250.514 231.750 L 265.527 201.999 280.014 231.084 C 287.981 247.080, 295.187 260.542, 296.026 260.999 C 297.903 262.022, 301 260.431, 301 258.444 C 301 257.642, 294.475 243.943, 286.500 228 C 278.525 212.057, 272 198.785, 272 198.507 C 272 198.228, 277.655 198, 284.566 198 C 297.724 198, 301 197.203, 301 194 C 301 192.939, 300.130 191.605, 299.066 191.035 C 296.420 189.619, 170.184 189.662, 167.750 191.080 M 208 198.508 C 208 199.477, 233.010 249, 233.500 249 C 233.990 249, 259 199.477, 259 198.508 C 259 198.228, 247.525 198, 233.500 198 C 219.475 198, 208 198.228, 208 198.508 " stroke="none" fill="black" fill-rule="evenodd"/>
</svg>