<svg xmlns="http://www.w3.org/2000/svg" width="308" height="324" viewBox="0 0 308 324" version="1.1">
	<path d="M 39.267 159.267 C 20.970 177.563, 6 193.056, 6 193.695 C 6 195.185, 8.787 197.987, 10.321 198.041 C 10.970 198.064, 25.453 183.890, 42.508 166.543 L 73.515 135.003 104.008 165.564 C 120.778 182.372, 135.316 196.578, 136.314 197.132 C 138.597 198.399, 141.226 196.470, 140.798 193.842 C 140.473 191.841, 75.209 126, 73.551 126 C 72.991 126, 57.563 140.970, 39.267 159.267 M 249.126 173.379 L 201.500 220.961 185.848 205.393 C 171.666 191.287, 169.999 189.930, 168.098 190.948 C 166.944 191.565, 166 192.837, 166 193.773 C 166 194.710, 172.857 202.344, 181.238 210.738 L 196.476 226 181.238 241.262 C 172.857 249.656, 166 257.290, 166 258.227 C 166 259.163, 166.942 260.434, 168.094 261.050 C 169.988 262.064, 171.674 260.694, 185.850 246.617 L 201.514 231.064 217.159 246.620 C 231.334 260.713, 233.001 262.070, 234.902 261.052 C 236.056 260.435, 237 259.163, 237 258.227 C 237 257.290, 230.141 249.654, 221.758 241.258 L 206.516 225.992 253.758 178.742 C 279.741 152.755, 301 130.722, 301 129.781 C 301 128.840, 300.044 127.559, 298.876 126.934 C 296.922 125.888, 292.948 129.597, 249.126 173.379 " stroke="none" fill="black" fill-rule="evenodd"/>
</svg>