<svg xmlns="http://www.w3.org/2000/svg" width="468" height="324" viewBox="0 0 468 324" version="1.1">
	<path d="M 39.267 159.267 L 6 192.533 6 225.695 C 6 254.509, 6.206 259.063, 7.571 260.429 C 8.968 261.825, 16.372 262, 74 262 C 131.628 262, 139.032 261.825, 140.429 260.429 C 141.794 259.063, 142 254.509, 142 225.695 L 142 192.533 108.733 159.267 C 90.437 140.970, 74.807 126, 74 126 C 73.193 126, 57.563 140.970, 39.267 159.267 M 249.288 173.222 L 202.028 220.444 186.691 205.222 C 178.256 196.850, 170.857 190, 170.249 190 C 168.819 190, 166 192.819, 166 194.249 C 166 194.857, 172.844 202.250, 181.208 210.677 L 196.416 226 181.208 241.323 C 172.844 249.750, 166 257.143, 166 257.751 C 166 259.181, 168.819 262, 170.249 262 C 170.857 262, 178.250 255.156, 186.677 246.792 L 202 231.584 217.323 246.792 C 225.750 255.156, 233.143 262, 233.751 262 C 235.181 262, 238 259.181, 238 257.751 C 238 257.143, 231.150 249.744, 222.778 241.309 L 207.556 225.972 254.778 178.712 C 280.750 152.718, 302 130.932, 302 130.297 C 302 128.805, 299.195 126, 297.703 126 C 297.068 126, 275.282 147.250, 249.288 173.222 M 43.744 165.756 L 14 195.512 14 224.756 L 14 254 74 254 L 134 254 134 224.744 L 134 195.487 104.244 165.744 C 87.878 149.385, 74.263 136, 73.988 136 C 73.713 136, 60.103 149.390, 43.744 165.756 M 327.571 191.571 C 326.707 192.436, 326 193.529, 326 194 C 326 194.471, 326.707 195.564, 327.571 196.429 C 328.844 197.701, 331.697 198, 342.575 198 L 356.006 198 341.020 227.961 C 332.777 244.439, 326.285 258.580, 326.594 259.384 C 327.265 261.133, 329.512 262.125, 331.274 261.448 C 331.975 261.180, 339.056 247.919, 347.010 231.980 C 354.964 216.041, 361.710 203, 362 203 C 362.290 203, 369.036 216.041, 376.990 231.980 C 384.944 247.919, 392.025 261.180, 392.726 261.448 C 393.427 261.717, 394.573 261.717, 395.274 261.448 C 395.975 261.180, 403.056 247.919, 411.010 231.980 C 418.964 216.041, 425.710 203, 426 203 C 426.290 203, 433.036 216.041, 440.990 231.980 C 448.944 247.919, 456.025 261.180, 456.726 261.448 C 458.488 262.125, 460.735 261.133, 461.406 259.384 C 461.715 258.580, 455.223 244.439, 446.980 227.961 L 431.994 198 445.425 198 C 456.303 198, 459.156 197.701, 460.429 196.429 C 461.293 195.564, 462 194.471, 462 194 C 462 193.529, 461.293 192.436, 460.429 191.571 C 459.032 190.175, 451.628 190, 394 190 C 336.372 190, 328.968 190.175, 327.571 191.571 M 380.743 223.500 C 387.750 237.525, 393.715 249, 394 249 C 394.285 249, 400.250 237.525, 407.257 223.500 L 419.995 198 394 198 L 368.005 198 380.743 223.500 " stroke="none" fill="black" fill-rule="evenodd"/>
</svg>