<svg xmlns="http://www.w3.org/2000/svg" width="148" height="324" viewBox="0 0 148 324" version="1.1">
	<path d="M 71.550 62.918 C 67.869 68.875, 54.190 98.331, 54.604 99.410 C 55.450 101.615, 58.110 102.210, 59.895 100.594 C 60.778 99.795, 64.185 93.709, 67.467 87.070 C 70.748 80.432, 73.687 75, 73.997 75 C 74.308 75, 77.453 80.837, 80.986 87.972 C 84.520 95.106, 88.050 101.189, 88.832 101.489 C 90.716 102.212, 93 100.227, 93 97.866 C 93 95.626, 77.264 63.831, 75.628 62.765 C 74.071 61.751, 72.229 61.820, 71.550 62.918 M 7.571 127.571 C 6.707 128.436, 6 129.665, 6 130.302 C 6 130.940, 33.558 159.033, 67.239 192.731 L 128.478 254 100.810 254 C 76.991 254, 72.924 254.219, 71.571 255.571 C 69.598 257.545, 69.598 258.455, 71.571 260.429 C 72.937 261.794, 77.433 261.998, 105.821 261.985 C 123.795 261.976, 139.096 261.591, 139.825 261.129 C 140.886 260.456, 141.128 253.539, 141.040 226.395 C 140.921 189.938, 140.718 188.475, 136.117 190.938 C 134.037 192.051, 134 192.566, 134 220.783 L 134 249.495 72.750 187.699 C 39.063 153.712, 10.970 125.925, 10.321 125.952 C 9.673 125.978, 8.436 126.707, 7.571 127.571 " stroke="none" fill="black" fill-rule="evenodd"/>
</svg>