<svg xmlns="http://www.w3.org/2000/svg" width="308" height="324" viewBox="0 0 308 324" version="1.1">
	<path d="M 63.102 127.104 C 48.516 129.321, 35.328 136.577, 24.168 148.528 C 13.801 159.628, 8.225 172.265, 6.488 188.598 C 5.962 193.536, 6.153 195.010, 7.491 196.348 C 9.547 198.404, 10.439 198.418, 12.429 196.429 C 13.404 195.453, 14.006 193.082, 14.015 190.179 C 14.091 166.127, 34.559 141.323, 59.103 135.537 C 90.978 128.024, 122.983 147.153, 131.003 178.511 C 132.101 182.806, 133 188.482, 133 191.125 C 133 194.956, 133.418 196.154, 135.064 197.034 C 142.986 201.274, 141.161 178.669, 132.196 161.516 C 126.915 151.410, 114.917 139.609, 104.500 134.271 C 91.374 127.546, 76.799 125.023, 63.102 127.104 M 231.213 127.187 C 230.315 128.085, 230 136.394, 230 159.200 L 230 190 199.200 190 C 176.578 190, 168.081 190.319, 167.200 191.200 C 166.314 192.086, 166 201.237, 166 226.165 C 166 259.255, 166.041 259.952, 168.064 261.034 C 169.596 261.854, 170.498 261.832, 171.564 260.947 C 172.755 259.958, 173 254.493, 173 228.878 L 173 198 203.800 198 C 226.422 198, 234.919 197.681, 235.800 196.800 C 236.681 195.919, 237 187.425, 237 164.814 L 237 134.028 268.141 133.764 C 296.542 133.523, 299.380 133.346, 300.386 131.750 C 301.191 130.474, 301.191 129.526, 300.386 128.250 C 299.377 126.649, 296.434 126.478, 265.854 126.237 C 240.691 126.039, 232.126 126.274, 231.213 127.187 M 39.230 223.285 C 20.953 241.591, 6 257.084, 6 257.713 C 6 258.342, 6.707 259.564, 7.571 260.429 C 8.968 261.825, 16.372 262, 74 262 C 131.628 262, 139.032 261.825, 140.429 260.429 C 141.293 259.564, 141.987 258.552, 141.970 258.179 C 141.906 256.720, 75.331 190, 73.940 190 C 73.126 190, 57.506 204.978, 39.230 223.285 M 46.500 227 L 19.514 254 74 254 L 128.486 254 101.500 227 C 86.658 212.150, 74.283 200, 74 200 C 73.717 200, 61.342 212.150, 46.500 227 " stroke="none" fill="black" fill-rule="evenodd"/>
</svg>