<svg xmlns="http://www.w3.org/2000/svg" width="468" height="324" viewBox="0 0 468 324" version="1.1">
	<path d="M 39.244 159.256 L 6 192.511 6 226.056 C 6 250.812, 6.314 259.914, 7.200 260.800 C 8.109 261.709, 24.311 262, 74 262 C 123.689 262, 139.891 261.709, 140.800 260.800 C 141.686 259.914, 142 250.810, 142 226.044 L 142 192.489 108.744 159.244 C 90.454 140.960, 74.814 126, 73.989 126 C 73.164 126, 57.529 140.965, 39.244 159.256 M 231.571 127.571 C 230.212 128.931, 230 133.242, 230 159.571 L 230 190 199.571 190 C 173.242 190, 168.931 190.212, 167.571 191.571 C 165.598 193.545, 165.598 194.455, 167.571 196.429 C 168.931 197.788, 173.242 198, 199.571 198 L 230 198 230 228.429 C 230 254.758, 230.212 259.069, 231.571 260.429 C 232.436 261.293, 233.529 262, 234 262 C 234.471 262, 235.564 261.293, 236.429 260.429 C 237.788 259.069, 238 254.758, 238 228.429 L 238 198 263.202 198 L 288.405 198 275.202 211.333 C 267.941 218.666, 262 225.159, 262 225.761 C 262 227.187, 264.825 230, 266.257 230 C 268.006 230, 302 195.761, 302 194 C 302 192.239, 268.006 158, 266.257 158 C 264.825 158, 262 160.813, 262 162.239 C 262 162.841, 267.941 169.334, 275.202 176.667 L 288.405 190 263.202 190 L 238 190 238 159.571 C 238 133.242, 237.788 128.931, 236.429 127.571 C 235.564 126.707, 234.471 126, 234 126 C 233.529 126, 232.436 126.707, 231.571 127.571 M 43.744 165.756 L 14 195.512 14 224.756 L 14 254 74 254 L 134 254 134 224.744 L 134 195.487 104.244 165.744 C 87.878 149.385, 74.263 136, 73.988 136 C 73.713 136, 60.103 149.390, 43.744 165.756 M 351.500 175.106 C 344.127 176.578, 332.954 182.452, 328.081 187.418 C 324.344 191.225, 323.950 192.037, 324.939 193.886 C 326.553 196.901, 328.686 196.517, 333.255 192.388 C 335.454 190.402, 340.234 187.364, 343.877 185.638 C 349.999 182.737, 351.298 182.500, 361.052 182.500 C 371.247 182.500, 371.862 182.628, 379.265 186.286 C 384.530 188.889, 388.054 191.450, 390.537 194.479 C 402.697 209.320, 426.916 213.870, 445.793 204.860 C 453.362 201.248, 461.345 194.064, 460.433 191.685 C 459.201 188.476, 456.172 188.725, 451.681 192.406 C 449.304 194.353, 444.692 197.195, 441.430 198.723 C 436.127 201.206, 434.389 201.500, 425 201.500 C 415.594 201.500, 413.878 201.209, 408.528 198.704 C 404.853 196.983, 399.853 193.290, 395.528 189.102 C 391.663 185.360, 386.964 181.506, 385.087 180.539 C 375.052 175.368, 361.317 173.147, 351.500 175.106 " stroke="none" fill="black" fill-rule="evenodd"/>
</svg>