<svg xmlns="http://www.w3.org/2000/svg" width="308" height="324" viewBox="0 0 308 324" version="1.1">
	<path d="M 7.571 127.571 C 6.175 128.968, 6 136.372, 6 194 C 6 251.628, 6.175 259.032, 7.571 260.429 C 8.968 261.825, 16.343 261.998, 73.821 261.985 C 109.395 261.976, 139.072 261.606, 139.772 261.162 C 141.639 259.977, 141.639 128.023, 139.772 126.838 C 139.072 126.394, 109.395 126.024, 73.821 126.015 C 16.343 126.002, 8.968 126.175, 7.571 127.571 M 167.200 127.200 C 165.465 128.935, 165.465 259.065, 167.200 260.800 C 168.935 262.535, 298.065 262.535, 299.800 260.800 C 301.535 259.065, 301.535 128.935, 299.800 127.200 C 298.065 125.465, 168.935 125.465, 167.200 127.200 M 14 194 L 14 254 74 254 L 134 254 134 194 L 134 134 74 134 L 14 134 14 194 M 173 194 L 173 254 233.500 254 L 294 254 294 194 L 294 134 233.500 134 L 173 134 173 194 M 71.571 159.571 C 69.243 161.900, 69.243 194.100, 71.571 196.429 C 72.436 197.293, 73.529 198, 74 198 C 74.471 198, 75.564 197.293, 76.429 196.429 C 78.757 194.100, 78.757 161.900, 76.429 159.571 C 75.564 158.707, 74.471 158, 74 158 C 73.529 158, 72.436 158.707, 71.571 159.571 M 68.764 206.996 C 63.184 208.676, 59.145 212.067, 56.571 217.234 C 53.329 223.740, 53.334 227.271, 56.597 233.818 C 62.264 245.191, 76.162 248.065, 85.564 239.809 C 90.366 235.594, 92.286 231.506, 92.286 225.500 C 92.286 219.499, 90.366 215.406, 85.578 211.203 C 80.492 206.737, 74.556 205.252, 68.764 206.996 M 65.400 217.400 C 62.498 220.302, 62 221.488, 62 225.500 C 62 229.512, 62.498 230.698, 65.400 233.600 C 68.231 236.431, 69.533 237, 73.177 237 C 78.176 237, 81.354 235.151, 83.506 230.989 C 85.404 227.318, 85.404 223.682, 83.506 220.011 C 81.354 215.849, 78.176 214, 73.177 214 C 69.533 214, 68.231 214.569, 65.400 217.400 " stroke="none" fill="black" fill-rule="evenodd"/>
</svg>