<svg xmlns="http://www.w3.org/2000/svg" width="340" height="324" viewBox="0 0 340 324" version="1.1">
	<path d="M 40.370 126.765 C 38.401 128.045, 6.007 193.855, 6.594 195.384 C 7.265 197.133, 9.512 198.124, 11.274 197.448 C 11.975 197.180, 19.056 183.919, 27.010 167.980 C 34.964 152.041, 41.710 139, 42 139 C 42.290 139, 49.036 152.041, 56.990 167.980 C 64.944 183.919, 72.025 197.180, 72.726 197.448 C 74.488 198.124, 76.735 197.133, 77.406 195.384 C 77.993 193.855, 45.599 128.045, 43.630 126.765 C 43.009 126.361, 42.275 126.031, 42 126.031 C 41.725 126.031, 40.991 126.361, 40.370 126.765 M 129.972 127.329 C 119.114 129.726, 110.087 137.212, 105.191 147.880 C 101.540 155.832, 101.526 167.137, 105.157 175.046 C 108.227 181.735, 113.047 187.427, 118.662 190.995 L 122.824 193.640 119.377 195.497 C 114.377 198.189, 108.212 205.299, 105.216 211.825 C 101.524 219.869, 101.513 231.108, 105.191 239.120 C 110.162 249.951, 119.008 257.194, 130.446 259.798 C 138.141 261.551, 138.363 261.548, 145.301 259.615 C 153.313 257.383, 156.562 255.534, 161.945 250.146 C 175.342 236.734, 175.812 216.292, 163.055 201.800 C 160.937 199.394, 157.639 196.582, 155.726 195.552 L 152.248 193.679 156.874 190.506 C 162.647 186.546, 168.504 178.964, 170.566 172.782 C 172.546 166.844, 172.556 155.812, 170.587 150.239 C 164.652 133.446, 147.104 123.548, 129.972 127.329 M 231.250 159.237 L 198 192.511 198 226.220 C 198 258.524, 198.081 259.973, 199.934 260.965 C 202.267 262.213, 329.820 262.401, 331.777 261.159 C 332.773 260.527, 333.054 252.863, 333.053 226.424 L 333.051 192.500 300.046 159.500 C 281.893 141.350, 266.469 126.379, 265.770 126.232 C 265.072 126.084, 249.537 140.936, 231.250 159.237 M 127.627 135.468 C 122.247 137.386, 117.039 141.829, 113.500 147.519 C 109.527 153.908, 108.712 165.311, 111.741 172.129 C 115.420 180.408, 122.903 186.846, 130.750 188.481 L 134 189.159 134 161.579 C 134 140.159, 133.721 134.010, 132.750 134.044 C 132.063 134.068, 129.757 134.709, 127.627 135.468 M 142 161.433 C 142 176.595, 142.168 189, 142.374 189 C 142.580 189, 144.646 188.331, 146.965 187.512 C 153.653 185.153, 158.596 180.567, 162.080 173.488 C 164.890 167.782, 165.186 166.354, 164.817 160.295 C 164.028 147.334, 156.904 138.417, 144.250 134.552 L 142 133.865 142 161.433 M 235.236 165.280 L 205 195.576 205 224.788 L 205 254 265.500 254 L 326 254 326 224.744 L 326 195.488 295.736 165.236 L 265.472 134.984 235.236 165.280 M 40.370 190.765 C 38.401 192.045, 6.007 257.855, 6.594 259.384 C 7.265 261.133, 9.512 262.124, 11.274 261.448 C 11.975 261.180, 19.056 247.919, 27.010 231.980 C 34.964 216.041, 41.710 203, 42 203 C 42.290 203, 49.036 216.041, 56.990 231.980 C 64.944 247.919, 72.025 261.180, 72.726 261.448 C 74.488 262.124, 76.735 261.133, 77.406 259.384 C 77.993 257.855, 45.599 192.045, 43.630 190.765 C 43.009 190.361, 42.275 190.031, 42 190.031 C 41.725 190.031, 40.991 190.361, 40.370 190.765 M 127.627 199.468 C 122.247 201.386, 117.039 205.829, 113.500 211.519 C 109.527 217.908, 108.712 229.311, 111.741 236.129 C 115.420 244.408, 122.903 250.846, 130.750 252.481 L 134 253.159 134 225.579 C 134 204.159, 133.721 198.010, 132.750 198.044 C 132.063 198.068, 129.757 198.709, 127.627 199.468 M 142 225.433 C 142 240.595, 142.168 253, 142.374 253 C 142.580 253, 144.646 252.331, 146.965 251.512 C 153.653 249.153, 158.596 244.567, 162.080 237.488 C 164.890 231.782, 165.186 230.354, 164.817 224.295 C 164.028 211.334, 156.904 202.417, 144.250 198.552 L 142 197.865 142 225.433 " stroke="none" fill="black" fill-rule="evenodd"/>
</svg>