<svg xmlns="http://www.w3.org/2000/svg" width="356" height="324" viewBox="0 0 356 324" version="1.1">
	<path d="M 7.571 127.571 C 6.175 128.968, 6 136.372, 6 194 C 6 251.628, 6.175 259.032, 7.571 260.429 C 8.968 261.825, 16.372 262, 74 262 C 131.628 262, 139.032 261.825, 140.429 260.429 C 141.825 259.032, 142 251.628, 142 194 C 142 136.372, 141.825 128.968, 140.429 127.571 C 139.032 126.175, 131.628 126, 74 126 C 16.372 126, 8.968 126.175, 7.571 127.571 M 274.355 126.992 C 263.952 129.170, 254.146 136.930, 249.281 146.836 L 246.500 152.500 246.500 193.500 L 246.500 234.500 249.281 240.164 C 250.811 243.279, 253.901 247.666, 256.149 249.914 L 260.235 254 239.052 254 C 226.362 254, 217.093 254.415, 215.934 255.035 C 213.446 256.367, 213.446 259.633, 215.934 260.965 C 217.142 261.611, 228.958 262, 247.409 262 L 276.950 262 276.385 265.250 C 271.470 293.514, 250.337 314.261, 224 316.678 C 215.971 317.415, 213.781 318.451, 214.189 321.318 C 214.468 323.277, 215.184 323.530, 221.185 323.794 C 248.865 325.012, 278.028 299.349, 283.153 269.264 L 284.385 262.028 315.834 261.764 C 344.528 261.523, 347.380 261.347, 348.386 259.750 C 349.191 258.474, 349.191 257.526, 348.387 256.250 C 347.398 254.682, 344.950 254.472, 324.814 254.232 L 302.345 253.963 306.300 249.805 C 310.866 245.006, 314.494 237.741, 316.040 230.302 C 316.736 226.955, 316.993 212.894, 316.764 190.802 C 316.372 152.996, 316.094 151.014, 309.853 141.592 C 302.564 130.587, 287.258 124.292, 274.355 126.992 M 14 194 L 14 254 74 254 L 134 254 134 194 L 134 134 74 134 L 14 134 14 194 M 271.885 135.380 C 264.596 137.984, 259.259 143.005, 255.799 150.512 C 253.530 155.435, 253.500 155.988, 253.500 193 C 253.500 235.055, 253.681 236.320, 260.823 244.226 C 265.850 249.791, 271.192 252.231, 279.540 252.776 C 288.811 253.382, 295.251 250.739, 301.535 243.750 C 309.129 235.303, 309.500 232.964, 309.500 193.500 C 309.500 154.365, 309.107 151.811, 301.808 143.519 C 294.306 134.997, 282.183 131.699, 271.885 135.380 M 39.200 159.200 C 37.481 160.919, 37.481 227.081, 39.200 228.800 C 40.085 229.685, 49.117 230, 73.629 230 C 102.503 230, 107.063 229.794, 108.429 228.429 C 109.793 227.064, 110 222.537, 110 194 C 110 165.463, 109.793 160.936, 108.429 159.571 C 107.063 158.206, 102.503 158, 73.629 158 C 49.117 158, 40.085 158.315, 39.200 159.200 M 167.315 175.213 C 157.792 184.680, 150 193.134, 150 194 C 150 195.680, 183.953 230, 185.615 230 C 187.105 230, 189 227.795, 189 226.062 C 189 225.216, 182.143 217.656, 173.762 209.262 L 158.524 194 173.762 178.738 C 182.143 170.344, 189 162.784, 189 161.938 C 189 160.205, 187.105 158, 185.615 158 C 185.073 158, 176.838 165.746, 167.315 175.213 M 279.040 159.452 C 276.392 162.642, 280.299 167.657, 283.416 165.070 C 285.297 163.508, 285.470 160.870, 283.800 159.200 C 282.197 157.597, 280.505 157.686, 279.040 159.452 M 46 194 L 46 222 74 222 L 102 222 102 194 L 102 166 74 166 L 46 166 46 194 M 279.040 191.452 C 276.392 194.642, 280.299 199.657, 283.416 197.070 C 285.297 195.508, 285.470 192.870, 283.800 191.200 C 282.197 189.597, 280.505 189.686, 279.040 191.452 M 279.040 223.452 C 276.392 226.642, 280.299 231.657, 283.416 229.070 C 285.297 227.508, 285.470 224.870, 283.800 223.200 C 282.197 221.597, 280.505 221.686, 279.040 223.452 " stroke="none" fill="black" fill-rule="evenodd"/>
</svg>