<svg xmlns="http://www.w3.org/2000/svg" width="276" height="324" viewBox="0 0 276 324" version="1.1">
	<path d="M 40.370 126.765 C 38.401 128.045, 6.007 193.855, 6.594 195.384 C 7.265 197.133, 9.512 198.124, 11.274 197.448 C 11.975 197.180, 19.056 183.919, 27.010 167.980 C 34.964 152.041, 41.710 139, 42 139 C 42.290 139, 49.036 152.041, 56.990 167.980 C 64.944 183.919, 72.025 197.180, 72.726 197.448 C 74.488 198.124, 76.735 197.133, 77.406 195.384 C 77.993 193.855, 45.599 128.045, 43.630 126.765 C 43.009 126.361, 42.275 126.031, 42 126.031 C 41.725 126.031, 40.991 126.361, 40.370 126.765 M 227.045 127.064 C 200.454 132.448, 189.485 164.751, 207.459 184.743 C 209.852 187.405, 213.388 190.433, 215.317 191.471 L 218.824 193.360 214.624 196.024 C 196.676 207.406, 193.280 232.973, 207.601 248.901 C 213.564 255.534, 225.107 260.904, 234 261.184 C 236.987 261.278, 247.595 257.840, 251.651 255.464 C 273.393 242.725, 273.797 209.608, 252.376 196.024 L 248.176 193.360 251.683 191.471 C 256.938 188.641, 263.616 180.627, 266.072 174.202 C 269.061 166.384, 269.019 156.509, 265.963 148.507 C 260.282 133.630, 242.635 123.907, 227.045 127.064 M 223.054 135.728 C 217.018 137.859, 209.781 145.260, 207.667 151.463 C 202.058 167.925, 210.847 184.571, 227.250 188.550 L 230 189.217 230 161.608 C 230 140.146, 229.722 134.018, 228.750 134.079 C 228.063 134.122, 225.499 134.864, 223.054 135.728 M 238 161.500 L 238 189.135 240.250 188.475 C 253.167 184.686, 261 174.503, 261 161.500 C 261 148.497, 253.167 138.314, 240.250 134.525 L 238 133.865 238 161.500 M 40.370 190.765 C 38.401 192.045, 6.007 257.855, 6.594 259.384 C 7.265 261.133, 9.512 262.124, 11.274 261.448 C 11.975 261.180, 19.056 247.919, 27.010 231.980 C 34.964 216.041, 41.710 203, 42 203 C 42.290 203, 49.036 216.041, 56.990 231.980 C 64.944 247.919, 72.025 261.180, 72.726 261.448 C 74.488 262.124, 76.735 261.133, 77.406 259.384 C 77.993 257.855, 45.599 192.045, 43.630 190.765 C 43.009 190.361, 42.275 190.031, 42 190.031 C 41.725 190.031, 40.991 190.361, 40.370 190.765 M 103.571 191.571 C 102.707 192.436, 102 193.529, 102 194 C 102 194.471, 102.707 195.564, 103.571 196.429 C 104.936 197.793, 109.463 198, 138 198 C 166.537 198, 171.064 197.793, 172.429 196.429 C 173.293 195.564, 174 194.471, 174 194 C 174 193.529, 173.293 192.436, 172.429 191.571 C 171.064 190.207, 166.537 190, 138 190 C 109.463 190, 104.936 190.207, 103.571 191.571 M 223.054 199.728 C 217.018 201.859, 209.781 209.260, 207.667 215.463 C 202.058 231.925, 210.847 248.571, 227.250 252.550 L 230 253.217 230 225.608 C 230 204.146, 229.722 198.018, 228.750 198.079 C 228.063 198.122, 225.499 198.864, 223.054 199.728 M 238 225.500 L 238 253.135 240.250 252.475 C 253.167 248.686, 261 238.503, 261 225.500 C 261 212.497, 253.167 202.314, 240.250 198.525 L 238 197.865 238 225.500 " stroke="none" fill="black" fill-rule="evenodd"/>
</svg>