<svg xmlns="http://www.w3.org/2000/svg" width="436" height="324" viewBox="0 0 436 324" version="1.1">
	<path d="M 320.244 175.065 C 313.250 176.290, 303.542 180.817, 298 185.439 C 292.563 189.974, 291.232 192.370, 292.980 194.476 C 294.869 196.752, 296.595 196.353, 300.747 192.681 C 309.753 184.718, 319.051 181.542, 331.454 182.193 C 342.589 182.777, 350.411 186.470, 359.072 195.230 C 370.304 206.591, 384.429 211.388, 399.614 208.998 C 411.858 207.072, 428.513 197.467, 427.805 192.740 C 427.178 188.551, 424.558 188.409, 419.803 192.305 C 412.517 198.276, 404.710 201.317, 395.409 201.807 C 381.975 202.516, 371.819 198.549, 363.766 189.449 C 353.963 178.371, 335.748 172.351, 320.244 175.065 M 7.571 255.571 C 5.756 257.387, 5.681 257.947, 6.978 260 C 7.775 261.263, 12.859 261.579, 39.146 262 L 70.368 262.500 71.559 269.500 C 75.817 294.510, 95.845 315.980, 121 322.501 C 130.424 324.944, 150.060 324.227, 159 321.112 C 181.153 313.396, 199.704 291.837, 203.223 269.719 L 204.447 262.027 235.865 261.764 C 264.529 261.523, 267.380 261.347, 268.386 259.750 C 269.191 258.474, 269.191 257.526, 268.386 256.250 C 267.377 254.649, 264.428 254.478, 233.726 254.237 C 195.851 253.940, 197 253.717, 197 261.361 C 197 267.530, 194.472 276.473, 190.330 284.954 C 183.170 299.614, 166.352 312.587, 150.201 315.910 C 142.760 317.441, 130.646 317.241, 123.103 315.463 C 98.978 309.776, 78 284.759, 78 261.677 C 78 253.737, 79.233 254, 42 254 C 13.463 254, 8.936 254.207, 7.571 255.571 " stroke="none" fill="black" fill-rule="evenodd"/>
</svg>