<svg xmlns="http://www.w3.org/2000/svg" width="403" height="324" viewBox="0 0 403 324" version="1.1">
	<path d="M 23.571 63.571 C 21.243 65.900, 21.243 98.100, 23.571 100.429 C 25.900 102.757, 58.100 102.757, 60.429 100.429 C 62.757 98.100, 62.757 65.900, 60.429 63.571 C 58.100 61.243, 25.900 61.243, 23.571 63.571 M 30 82 L 30 94 42 94 L 54 94 54 82 L 54 70 42 70 L 30 70 30 82 M 343.239 143.260 C 333.758 152.754, 326 161.288, 326 162.225 C 326 163.163, 326.959 164.443, 328.131 165.070 C 330.073 166.110, 331.495 164.981, 344.131 152.369 L 358 138.527 358 199.228 C 358 259.533, 358.013 259.937, 360.064 261.034 C 365.060 263.708, 365 264.456, 365 199.141 L 365 138.527 379.005 152.505 C 390.959 164.436, 393.266 166.322, 394.755 165.384 C 398.733 162.880, 397.425 160.947, 379.861 143.361 C 370.324 133.812, 362.062 126, 361.500 126 C 360.938 126, 352.721 133.767, 343.239 143.260 M 33.384 159.412 C 15.480 163.757, 3.543 181.833, 6.993 199.372 C 9.077 209.960, 14.986 218.563, 23.673 223.654 C 27.992 226.185, 41.830 230.214, 43.238 229.350 C 43.644 229.101, 46.569 228.222, 49.738 227.396 C 65.964 223.171, 76.193 210.065, 76.193 193.500 C 76.193 176.826, 65.384 163.182, 49.147 159.360 C 42.397 157.772, 40.111 157.779, 33.384 159.412 M 31.054 167.728 C 25.018 169.859, 17.781 177.260, 15.667 183.463 C 10.058 199.925, 18.847 216.571, 35.250 220.550 L 38 221.217 38 193.608 C 38 172.146, 37.722 166.018, 36.750 166.079 C 36.063 166.122, 33.499 166.864, 31.054 167.728 M 46 193.500 C 46 208.625, 46.168 221, 46.374 221 C 46.580 221, 48.646 220.331, 50.965 219.512 C 61.486 215.800, 69 204.962, 69 193.500 C 69 182.038, 61.486 171.200, 50.965 167.488 C 48.646 166.669, 46.580 166, 46.374 166 C 46.168 166, 46 178.375, 46 193.500 M 103.585 191.558 C 101.598 193.545, 101.595 194.452, 103.571 196.429 C 104.855 197.712, 107.788 198, 119.571 198 L 134 198 134 226 L 134 254 119.571 254 C 107.788 254, 104.855 254.288, 103.571 255.571 C 101.595 257.548, 101.598 258.455, 103.585 260.442 C 104.978 261.835, 109.159 261.995, 138.226 261.763 C 168.452 261.523, 171.377 261.350, 172.386 259.750 C 173.190 258.475, 173.191 257.525, 172.387 256.250 C 171.433 254.736, 169.314 254.463, 156.643 254.223 L 142 253.947 142 226 L 142 198.053 156.643 197.777 C 169.314 197.537, 171.433 197.264, 172.387 195.750 C 173.191 194.475, 173.190 193.525, 172.386 192.250 C 171.377 190.650, 168.452 190.477, 138.226 190.237 C 109.159 190.005, 104.978 190.165, 103.585 191.558 M 211.108 194.302 C 202.791 204.594, 198.850 218.781, 200.713 231.716 C 202.004 240.674, 207.106 251.538, 212.945 257.764 L 216.945 262.027 250.114 261.764 C 281.706 261.513, 283.336 261.408, 284.391 259.566 C 285.001 258.503, 287.194 254.935, 289.265 251.639 C 301.010 232.938, 299.092 207.868, 284.722 192.250 L 282.651 190 248.576 190.052 L 214.500 190.103 211.108 194.302 M 215.031 200.956 C 204.865 215.234, 205.499 237.826, 216.429 250.750 L 219.178 254 248.637 254 L 278.096 254 280.490 251.250 C 284.448 246.704, 288.081 238.575, 289.278 231.588 C 290.688 223.353, 289.341 214.465, 285.530 206.862 C 280.715 197.257, 283.827 198, 248.413 198 L 217.136 198 215.031 200.956 " stroke="none" fill="black" fill-rule="evenodd"/>
</svg>