<svg xmlns="http://www.w3.org/2000/svg" width="468" height="324" viewBox="0 0 468 324" version="1.1">
	<path d="M 72.372 62.765 C 70.418 64.037, 54.003 97.844, 54.593 99.381 C 55.268 101.141, 57.513 102.124, 59.295 101.440 C 60.007 101.167, 63.480 95.106, 67.014 87.972 C 70.547 80.837, 73.691 75, 74 75 C 74.309 75, 77.453 80.837, 80.986 87.972 C 84.520 95.106, 87.993 101.167, 88.705 101.440 C 90.487 102.124, 92.732 101.141, 93.407 99.381 C 93.716 98.575, 90.096 90.173, 85.363 80.708 C 77.638 65.261, 75.672 62.031, 74 62.031 C 73.725 62.031, 72.992 62.361, 72.372 62.765 M 72.369 126.765 C 71.416 127.384, 6 257.155, 6 258.426 C 6 258.663, 6.707 259.564, 7.571 260.429 C 8.936 261.793, 13.463 262, 42 262 C 70.537 262, 75.064 261.793, 76.429 260.429 C 78.402 258.455, 78.402 257.545, 76.429 255.571 C 75.071 254.214, 70.849 254, 45.430 254 L 16.002 254 44.747 196.500 C 60.557 164.875, 73.722 139, 74.003 139 C 74.284 139, 88.010 166.059, 104.507 199.131 C 121.003 232.204, 135.095 259.879, 135.821 260.631 C 136.887 261.735, 143.506 262, 170 262 C 198.537 262, 203.064 261.793, 204.429 260.429 C 206.402 258.455, 206.402 257.545, 204.429 255.571 C 203.067 254.210, 198.667 254, 171.430 254 L 140.003 254 108.383 190.750 C 79.939 133.854, 75.783 126.031, 74 126.031 C 73.725 126.031, 72.991 126.361, 72.369 126.765 M 359.571 127.571 C 358.178 128.965, 358 135.897, 358 188.774 L 358 248.405 344.667 235.202 C 337.334 227.941, 330.841 222, 330.239 222 C 328.813 222, 326 224.825, 326 226.257 C 326 228.006, 360.239 262, 362 262 C 363.761 262, 398 228.006, 398 226.257 C 398 224.825, 395.187 222, 393.761 222 C 393.159 222, 386.666 227.941, 379.333 235.202 L 366 248.405 366 188.774 C 366 135.897, 365.822 128.965, 364.429 127.571 C 363.564 126.707, 362.471 126, 362 126 C 361.529 126, 360.436 126.707, 359.571 127.571 M 423.571 159.571 C 422.227 160.916, 422 164.736, 422 186 C 422 207.264, 422.227 211.084, 423.571 212.429 C 424.436 213.293, 425.529 214, 426 214 C 426.471 214, 427.564 213.293, 428.429 212.429 C 429.773 211.084, 430 207.264, 430 186 C 430 164.736, 429.773 160.916, 428.429 159.571 C 427.564 158.707, 426.471 158, 426 158 C 425.529 158, 424.436 158.707, 423.571 159.571 M 231.571 191.571 C 230.707 192.436, 230 193.529, 230 194 C 230 194.471, 230.707 195.564, 231.571 196.429 C 232.936 197.793, 237.463 198, 266 198 C 294.537 198, 299.064 197.793, 300.429 196.429 C 301.293 195.564, 302 194.471, 302 194 C 302 193.529, 301.293 192.436, 300.429 191.571 C 299.064 190.207, 294.537 190, 266 190 C 237.463 190, 232.936 190.207, 231.571 191.571 M 423.571 222.571 C 422.707 223.436, 422 224.529, 422 225 C 422 226.111, 424.889 229, 426 229 C 427.111 229, 430 226.111, 430 225 C 430 223.889, 427.111 221, 426 221 C 425.529 221, 424.436 221.707, 423.571 222.571 " stroke="none" fill="black" fill-rule="evenodd"/>
</svg>