<svg xmlns="http://www.w3.org/2000/svg" width="372" height="324" viewBox="0 0 372 324" version="1.1">
	<path d="M 88.372 126.765 C 87.752 127.169, 83.812 134.363, 79.616 142.750 L 71.987 158 56.565 158 C 43.878 158, 40.864 158.279, 39.571 159.571 C 37.598 161.545, 37.598 162.455, 39.571 164.429 C 40.844 165.701, 43.697 166, 54.575 166 L 68.007 166 54 194 L 39.993 222 24.568 222 C 11.878 222, 8.864 222.279, 7.571 223.571 C 5.598 225.545, 5.598 226.455, 7.571 228.429 C 8.844 229.701, 11.698 230, 22.578 230 L 36.013 230 29.022 243.957 C 25.176 251.633, 22.283 258.574, 22.592 259.380 C 23.265 261.133, 25.511 262.125, 27.275 261.448 C 27.977 261.179, 32.025 253.993, 36.271 245.479 L 43.992 230 72.003 230 L 100.013 230 93.022 243.957 C 89.176 251.633, 86.283 258.574, 86.592 259.380 C 87.265 261.133, 89.511 262.125, 91.275 261.448 C 91.977 261.179, 96.025 253.993, 100.271 245.479 L 107.992 230 123.424 230 C 136.121 230, 139.136 229.721, 140.429 228.429 C 141.293 227.564, 142 226.471, 142 226 C 142 225.529, 141.293 224.436, 140.429 223.571 C 139.156 222.299, 136.303 222, 125.425 222 L 111.993 222 126 194 L 140.007 166 155.432 166 C 168.122 166, 171.136 165.721, 172.429 164.429 C 174.402 162.455, 174.402 161.545, 172.429 159.571 C 171.156 158.299, 168.302 158, 157.422 158 L 143.987 158 150.978 144.043 C 154.824 136.367, 157.717 129.426, 157.408 128.620 C 156.735 126.867, 154.489 125.875, 152.725 126.552 C 152.023 126.821, 147.975 134.007, 143.729 142.521 L 136.008 158 107.997 158 L 79.987 158 86.993 144.013 C 90.847 136.321, 94 129.828, 94 129.585 C 94 128.874, 90.921 125.999, 90.179 126.015 C 89.805 126.024, 88.993 126.361, 88.372 126.765 M 255.870 127.014 C 240.636 129.407, 229.616 135.194, 217.974 146.916 C 204.475 160.507, 198.696 174.473, 198.696 193.500 C 198.696 205.257, 200.549 213.240, 205.778 224 C 210.922 234.587, 224.441 248.092, 235 253.193 C 245.909 258.463, 253.807 260.304, 265.500 260.304 C 277.257 260.304, 285.240 258.451, 296 253.222 C 306.567 248.088, 320.088 234.567, 325.222 224 C 329.141 215.936, 332 206.211, 332 200.946 C 332 198.061, 333.979 195.681, 349 180.500 C 358.350 171.050, 366 162.829, 366 162.231 C 366 160.818, 363.174 158, 361.756 158 C 361.150 158, 354.316 164.285, 346.568 171.967 L 332.480 185.935 330.746 178.304 C 327.827 165.459, 322.873 156.795, 312.539 146.461 C 302.721 136.644, 294.174 131.566, 282.500 128.618 C 274.592 126.621, 262.868 125.914, 255.870 127.014 M 250.645 135.584 C 230.761 140.397, 212.825 158.334, 207.585 178.644 C 205.593 186.367, 205.571 199.556, 207.537 207.897 C 212.363 228.369, 230.631 246.637, 251.103 251.463 C 265.087 254.759, 280.814 252.818, 293.397 246.243 C 307.565 238.839, 319.867 223.149, 323.463 207.897 C 326.394 195.459, 326.886 196.478, 309.500 178.969 C 300.975 170.383, 294 162.860, 294 162.251 C 294 160.827, 296.815 158, 298.232 158 C 298.831 158, 304.922 163.512, 311.767 170.250 C 323.556 181.854, 324.178 182.316, 323.551 179 C 323.188 177.075, 321.043 171.675, 318.786 167 C 311.393 151.687, 296.173 139.374, 279.897 135.537 C 271.998 133.676, 258.439 133.697, 250.645 135.584 M 62 194 L 47.993 222 75.993 222 L 103.993 222 118 194 L 132.007 166 104.007 166 L 76.007 166 62 194 " stroke="none" fill="black" fill-rule="evenodd"/>
</svg>