<svg xmlns="http://www.w3.org/2000/svg" width="532" height="324" viewBox="0 0 532 324" version="1.1">
	<path d="M 103.571 127.571 C 102.175 128.968, 102 136.372, 102 194 C 102 251.628, 102.175 259.032, 103.571 260.429 C 104.436 261.293, 105.529 262, 106 262 C 106.471 262, 107.564 261.293, 108.429 260.429 C 109.825 259.032, 110 251.628, 110 194 C 110 136.372, 109.825 128.968, 108.429 127.571 C 107.564 126.707, 106.471 126, 106 126 C 105.529 126, 104.436 126.707, 103.571 127.571 M 231.571 127.571 C 230.175 128.968, 230 136.372, 230 194 C 230 251.628, 230.175 259.032, 231.571 260.429 C 232.436 261.293, 233.529 262, 234 262 C 234.471 262, 235.564 261.293, 236.429 260.429 C 237.825 259.032, 238 251.628, 238 194 C 238 136.372, 237.825 128.968, 236.429 127.571 C 235.564 126.707, 234.471 126, 234 126 C 233.529 126, 232.436 126.707, 231.571 127.571 M 167.571 159.571 C 166.288 160.855, 166 163.788, 166 175.571 L 166 190 151.571 190 C 139.788 190, 136.855 190.288, 135.571 191.571 C 133.598 193.545, 133.598 194.455, 135.571 196.429 C 136.855 197.712, 139.788 198, 151.571 198 L 166 198 166 212.429 C 166 224.212, 166.288 227.145, 167.571 228.429 C 169.545 230.402, 170.455 230.402, 172.429 228.429 C 173.712 227.145, 174 224.212, 174 212.429 L 174 198 188.429 198 C 200.212 198, 203.145 197.712, 204.429 196.429 C 206.402 194.455, 206.402 193.545, 204.429 191.571 C 203.145 190.288, 200.212 190, 188.429 190 L 174 190 174 175.571 C 174 163.788, 173.712 160.855, 172.429 159.571 C 171.564 158.707, 170.471 158, 170 158 C 169.529 158, 168.436 158.707, 167.571 159.571 M 7.571 191.571 C 6.707 192.436, 6 193.640, 6 194.249 C 6 194.857, 12.844 202.250, 21.208 210.677 L 36.416 226 21.208 241.323 C 12.844 249.750, 6 257.143, 6 257.751 C 6 259.181, 8.819 262, 10.249 262 C 10.857 262, 18.250 255.156, 26.677 246.792 L 42 231.584 57.323 246.792 C 65.750 255.156, 73.143 262, 73.751 262 C 75.181 262, 78 259.181, 78 257.751 C 78 257.143, 71.156 249.750, 62.792 241.323 L 47.584 226 62.792 210.677 C 71.156 202.250, 78 194.857, 78 194.249 C 78 192.819, 75.181 190, 73.751 190 C 73.143 190, 65.750 196.844, 57.323 205.208 L 42 220.416 26.677 205.208 C 18.250 196.844, 10.857 190, 10.249 190 C 9.640 190, 8.436 190.707, 7.571 191.571 M 295.244 223.256 C 276.960 241.546, 262 257.206, 262 258.056 C 262 261.835, 263.487 262, 297.629 262 C 326.503 262, 331.063 261.794, 332.429 260.429 C 333.793 259.064, 334 254.537, 334 226 C 334 197.463, 333.793 192.936, 332.429 191.571 C 331.564 190.707, 330.324 190, 329.673 190 C 329.022 190, 313.529 204.965, 295.244 223.256 M 300.500 229 L 275.515 254 300.758 254 L 326 254 326 229 C 326 215.250, 325.884 204, 325.742 204 C 325.601 204, 314.242 215.250, 300.500 229 M 359.750 255.076 C 357.417 256.440, 357.526 259.676, 359.948 260.972 C 361.256 261.672, 383.132 261.930, 426.589 261.757 C 486.951 261.517, 491.356 261.383, 492.386 259.750 C 493.191 258.474, 493.191 257.526, 492.386 256.250 C 491.356 254.616, 486.963 254.485, 426.391 254.276 C 383.547 254.129, 360.905 254.400, 359.750 255.076 M 487.750 287.080 C 486.207 287.979, 486 289.866, 486 303.050 L 486 318 423.934 318 C 383.063 318, 361.208 318.354, 359.934 319.035 C 358.870 319.605, 358 320.958, 358 322.042 C 358 323.988, 358.903 324.011, 425.750 323.757 L 493.500 323.500 493.775 307.113 C 494.001 293.669, 493.773 290.302, 492.502 288.363 C 490.783 285.739, 490.284 285.604, 487.750 287.080 " stroke="none" fill="black" fill-rule="evenodd"/>
</svg>