<svg xmlns="http://www.w3.org/2000/svg" width="340" height="324" viewBox="0 0 340 324" version="1.1">
	<path d="M 40.372 62.765 C 38.418 64.037, 22.003 97.844, 22.593 99.381 C 23.268 101.141, 25.513 102.124, 27.295 101.440 C 28.007 101.167, 31.480 95.106, 35.014 87.972 C 38.547 80.837, 41.691 75, 42 75 C 42.309 75, 45.453 80.837, 48.986 87.972 C 52.520 95.106, 55.993 101.167, 56.705 101.440 C 58.487 102.124, 60.732 101.141, 61.407 99.381 C 61.716 98.575, 58.096 90.173, 53.363 80.708 C 45.638 65.261, 43.672 62.031, 42 62.031 C 41.725 62.031, 40.992 62.361, 40.372 62.765 M 231.571 127.571 C 230.178 128.965, 230 135.946, 230 189.308 L 230 249.473 216.237 235.737 C 208.667 228.181, 202.175 222, 201.808 222 C 200.728 222, 198 225.049, 198 226.257 C 198 227.709, 232.085 262, 233.528 262 C 235.020 262, 268.413 228.356, 268.833 226.430 C 269.208 224.709, 267.297 222, 265.708 222 C 265.132 222, 258.437 228.167, 250.830 235.704 L 237 249.408 237 188.904 C 237 128.945, 236.854 126, 233.871 126 C 233.471 126, 232.436 126.707, 231.571 127.571 M 295.571 159.571 C 294.227 160.916, 294 164.736, 294 186 C 294 207.264, 294.227 211.084, 295.571 212.429 C 297.457 214.315, 298.219 214.381, 299.800 212.800 C 301.508 211.092, 301.508 160.908, 299.800 159.200 C 298.219 157.619, 297.457 157.685, 295.571 159.571 M 40.370 190.765 C 38.401 192.045, 6.007 257.855, 6.594 259.384 C 7.265 261.133, 9.512 262.124, 11.274 261.448 C 11.975 261.180, 19.056 247.919, 27.010 231.980 C 34.964 216.041, 41.710 203, 42 203 C 42.290 203, 49.036 216.041, 56.990 231.980 C 64.944 247.919, 72.025 261.180, 72.726 261.448 C 74.488 262.124, 76.735 261.133, 77.406 259.384 C 77.993 257.855, 45.599 192.045, 43.630 190.765 C 43.009 190.361, 42.275 190.031, 42 190.031 C 41.725 190.031, 40.991 190.361, 40.370 190.765 M 103.585 191.558 C 102.713 192.430, 102 193.529, 102 194 C 102 194.471, 102.713 195.570, 103.585 196.442 C 104.978 197.835, 109.159 197.995, 138.226 197.763 C 168.452 197.523, 171.377 197.350, 172.386 195.750 C 173.191 194.474, 173.191 193.526, 172.386 192.250 C 171.377 190.650, 168.452 190.477, 138.226 190.237 C 109.159 190.005, 104.978 190.165, 103.585 191.558 M 295.616 222.527 C 294.727 223.416, 294 224.529, 294 225 C 294 226.389, 297.140 229.120, 298.295 228.735 C 300.395 228.035, 301.549 225.094, 300.423 223.310 C 298.905 220.902, 297.474 220.669, 295.616 222.527 " stroke="none" fill="black" fill-rule="evenodd"/>
</svg>