<svg xmlns="http://www.w3.org/2000/svg" width="564" height="324" viewBox="0 0 564 324" version="1.1">
	<path d="M 70.571 127.571 C 69.651 128.492, 68.994 130.873, 68.985 133.321 C 68.888 160.782, 40.782 188.888, 13.321 188.985 C 9.426 188.999, 6 190.878, 6 193 C 6 193.471, 6.732 194.589, 7.627 195.485 C 10.665 198.522, 27.481 195.263, 39.823 189.245 C 48.649 184.942, 60.169 174.563, 65.965 165.693 L 70 159.517 70 209.187 C 70 253.008, 70.185 259.042, 71.571 260.429 C 73.387 262.244, 73.947 262.319, 76 261.022 C 77.289 260.207, 77.570 253.151, 78 210.910 L 78.500 161.746 81.769 166.792 C 86.807 174.569, 98.784 185.165, 107.194 189.287 C 119.553 195.343, 137.202 198.655, 140.348 195.509 C 142.404 193.453, 142.418 192.561, 140.429 190.571 C 139.453 189.596, 137.082 188.994, 134.179 188.985 C 106.221 188.897, 78.113 161.039, 78.015 133.321 C 78 129.093, 76.092 126, 73.500 126 C 72.754 126, 71.436 126.707, 70.571 127.571 M 327.571 127.571 C 326.219 128.924, 326 132.971, 326 156.586 L 326 184.028 322.249 181.546 C 311.754 174.601, 293.715 172.534, 281.581 176.886 C 270.893 180.719, 259.228 189.824, 260.559 193.294 C 261.835 196.617, 264.900 196.323, 269.167 192.468 C 271.414 190.438, 276.234 187.364, 279.877 185.638 C 285.993 182.740, 287.304 182.500, 297 182.500 C 306.401 182.500, 308.124 182.792, 313.458 185.290 C 316.735 186.824, 320.897 189.210, 322.708 190.591 L 326 193.102 326 220.696 L 326 248.290 320.560 243.145 C 317.568 240.315, 314.675 238, 314.131 238 C 312.829 238, 310 240.861, 310 242.178 C 310 242.747, 313.226 246.540, 317.169 250.607 L 324.338 258 317.169 265.393 C 313.226 269.460, 310 273.253, 310 273.822 C 310 275.139, 312.829 278, 314.131 278 C 314.675 278, 317.568 275.685, 320.560 272.855 L 326 267.710 326 279.284 C 326 288.472, 326.324 291.181, 327.571 292.429 C 328.436 293.293, 329.529 294, 330 294 C 330.471 294, 331.564 293.293, 332.429 292.429 C 333.676 291.181, 334 288.472, 334 279.284 L 334 267.710 339.440 272.855 C 342.432 275.685, 345.325 278, 345.869 278 C 347.171 278, 350 275.139, 350 273.822 C 350 273.253, 346.774 269.460, 342.831 265.393 L 335.662 258 342.831 250.607 C 346.774 246.540, 350 242.747, 350 242.178 C 350 240.861, 347.171 238, 345.869 238 C 345.325 238, 342.432 240.315, 339.440 243.145 L 334 248.290 334 225.062 C 334 212.286, 334.337 202.006, 334.750 202.218 C 350.350 210.213, 363.097 211.611, 376.943 206.848 C 390.361 202.231, 400.749 191.642, 393.970 189.490 C 392.520 189.030, 390.888 189.769, 388.267 192.070 C 386.247 193.844, 381.648 196.691, 378.047 198.397 C 372.017 201.255, 370.670 201.500, 361 201.500 C 351.340 201.500, 349.979 201.253, 343.983 198.412 C 333.183 193.293, 334 196.397, 334 160.500 C 334 133.327, 333.790 128.933, 332.429 127.571 C 331.564 126.707, 330.471 126, 330 126 C 329.529 126, 328.436 126.707, 327.571 127.571 M 479.102 127.108 C 453.633 130.963, 431.059 151.541, 424.374 177 C 423.312 181.044, 422.667 187.278, 422.667 193.500 C 422.667 205.308, 424.531 213.335, 429.751 224 C 434.940 234.601, 448.471 248.107, 459 253.193 C 469.909 258.463, 477.807 260.304, 489.500 260.304 C 508.834 260.304, 522.527 254.551, 536.539 240.539 C 550.551 226.527, 556.304 212.834, 556.304 193.500 C 556.304 174.166, 550.551 160.473, 536.539 146.461 C 526.823 136.745, 518.203 131.569, 506.831 128.621 C 499.080 126.612, 486.806 125.942, 479.102 127.108 M 474.645 135.584 C 454.671 140.419, 436.279 158.986, 431.537 179.103 C 426.672 199.742, 432.569 220.600, 447.484 235.516 C 462.400 250.431, 483.258 256.328, 503.897 251.463 C 524.261 246.662, 542.662 228.261, 547.463 207.897 C 549.390 199.718, 549.390 187.282, 547.463 179.103 C 542.662 158.739, 524.261 140.338, 503.897 135.537 C 495.998 133.676, 482.439 133.697, 474.645 135.584 M 471.282 159.282 C 461.777 168.787, 454 177.079, 454 177.710 C 454 179.173, 456.800 182, 458.249 182 C 458.857 182, 466.250 175.156, 474.677 166.792 L 490 151.584 505.323 166.792 C 513.750 175.156, 521.143 182, 521.751 182 C 523.200 182, 526 179.173, 526 177.710 C 526 176.031, 491.693 142, 490 142 C 489.210 142, 480.787 149.777, 471.282 159.282 M 193.384 159.412 C 175.475 163.758, 163.559 181.807, 166.987 199.396 C 168.500 207.161, 172.212 214.019, 177.580 218.967 C 198.277 238.045, 230.591 227.221, 236.013 199.396 C 239.488 181.565, 227.484 163.676, 209.147 159.360 C 202.397 157.772, 200.111 157.779, 193.384 159.412 M 191.054 167.728 C 185.018 169.859, 177.781 177.260, 175.667 183.463 C 171.995 194.241, 174.382 205.477, 181.952 213.048 C 192.673 223.769, 210.327 223.769, 221.048 213.048 C 231.769 202.327, 231.769 184.673, 221.048 173.952 C 213.519 166.424, 201.696 163.970, 191.054 167.728 M 199.571 191.571 C 198.707 192.436, 198 193.529, 198 194 C 198 194.471, 198.707 195.564, 199.571 196.429 C 200.436 197.293, 201.529 198, 202 198 C 202.471 198, 203.564 197.293, 204.429 196.429 C 205.293 195.564, 206 194.471, 206 194 C 206 193.529, 205.293 192.436, 204.429 191.571 C 203.564 190.707, 202.471 190, 202 190 C 201.529 190, 200.436 190.707, 199.571 191.571 M 167.571 255.571 C 166.707 256.436, 166 257.529, 166 258 C 166 258.471, 166.707 259.564, 167.571 260.429 C 168.936 261.793, 173.463 262, 202 262 C 230.537 262, 235.064 261.793, 236.429 260.429 C 237.293 259.564, 238 258.471, 238 258 C 238 257.529, 237.293 256.436, 236.429 255.571 C 235.064 254.207, 230.537 254, 202 254 C 173.463 254, 168.936 254.207, 167.571 255.571 " stroke="none" fill="black" fill-rule="evenodd"/>
</svg>