<svg xmlns="http://www.w3.org/2000/svg" width="500" height="324" viewBox="0 0 500 324" version="1.1">
	<path d="M 285.500 127.418 C 257.459 132.873, 236.878 153.401, 231.376 181.407 L 229.687 190 215.778 190 C 201.311 190, 198 190.745, 198 194 C 198 197.262, 201.308 198, 215.934 198 C 223.670 198, 230 198.244, 230 198.542 C 230 202.629, 233.993 216.276, 237.010 222.500 C 245.760 240.548, 261.647 253.615, 281 258.681 C 289.593 260.930, 305.342 260.874, 314 258.562 C 338.917 251.911, 358.897 230.249, 363.151 205.274 L 364.382 198.049 379.833 197.774 C 393.278 197.536, 395.428 197.273, 396.387 195.750 C 397.191 194.475, 397.191 193.525, 396.387 192.250 C 395.428 190.728, 393.279 190.464, 379.864 190.226 L 364.443 189.951 363.269 182.573 C 360.042 162.292, 346.586 143.721, 328.197 134.170 C 314.844 127.235, 299.178 124.758, 285.500 127.418 M 281.345 135.845 C 267.461 139.951, 255.150 149.033, 247.075 161.126 C 242.743 167.613, 238 180.901, 238 186.552 L 238 190 297.588 190 L 357.176 190 356.504 185.750 C 353.750 168.335, 344.802 153.885, 330.927 144.448 C 320.058 137.055, 313.052 134.849, 299 134.396 C 289.974 134.104, 286.176 134.416, 281.345 135.845 M 7.571 159.571 C 6.207 160.936, 6 165.463, 6 194 C 6 222.537, 6.207 227.064, 7.571 228.429 C 9.545 230.402, 10.455 230.402, 12.429 228.429 C 13.793 227.064, 14 222.537, 14 194 C 14 165.463, 13.793 160.936, 12.429 159.571 C 11.564 158.707, 10.471 158, 10 158 C 9.529 158, 8.436 158.707, 7.571 159.571 M 71.571 159.571 C 70.207 160.936, 70 165.463, 70 194 C 70 222.537, 70.207 227.064, 71.571 228.429 C 73.545 230.402, 74.455 230.402, 76.429 228.429 C 77.793 227.064, 78 222.537, 78 194 C 78 165.463, 77.793 160.936, 76.429 159.571 C 75.564 158.707, 74.471 158, 74 158 C 73.529 158, 72.436 158.707, 71.571 159.571 M 103.585 159.558 C 102.713 160.430, 102 161.529, 102 162 C 102 162.471, 102.713 163.570, 103.585 164.442 C 104.978 165.835, 109.159 165.995, 138.226 165.763 C 168.452 165.523, 171.377 165.350, 172.386 163.750 C 173.191 162.474, 173.191 161.526, 172.386 160.250 C 171.377 158.650, 168.452 158.477, 138.226 158.237 C 109.159 158.005, 104.978 158.165, 103.585 159.558 M 423.750 191.073 C 421.423 192.438, 421.524 195.675, 423.934 196.965 C 425.005 197.538, 432.151 198, 439.934 198 L 454 198 454 226 L 454 254 439.934 254 C 425.308 254, 422 254.738, 422 258 C 422 261.750, 424.791 262.037, 458.601 261.764 C 488.469 261.523, 491.378 261.349, 492.386 259.750 C 493.190 258.475, 493.191 257.525, 492.387 256.250 C 491.430 254.730, 489.291 254.464, 476.142 254.224 L 461 253.948 461 226 L 461 198.052 476.142 197.776 C 489.291 197.536, 491.430 197.270, 492.387 195.750 C 493.191 194.475, 493.190 193.525, 492.386 192.250 C 491.377 190.649, 488.483 190.481, 458.391 190.273 C 437.280 190.127, 424.873 190.414, 423.750 191.073 M 238 200.948 C 238 206.156, 242.906 219.632, 247.075 225.874 C 255.465 238.439, 268.559 247.789, 283 251.528 C 291.896 253.832, 307.992 253.095, 316.858 249.978 C 337.422 242.750, 352.579 224.285, 356.447 201.750 L 357.091 198 297.545 198 L 238 198 238 200.948 M 103.585 223.558 C 102.713 224.430, 102 225.529, 102 226 C 102 226.471, 102.713 227.570, 103.585 228.442 C 104.978 229.835, 109.159 229.995, 138.226 229.763 C 168.452 229.523, 171.377 229.350, 172.386 227.750 C 173.191 226.474, 173.191 225.526, 172.386 224.250 C 171.377 222.650, 168.452 222.477, 138.226 222.237 C 109.159 222.005, 104.978 222.165, 103.585 223.558 " stroke="none" fill="black" fill-rule="evenodd"/>
</svg>