<svg xmlns="http://www.w3.org/2000/svg" width="308" height="324" viewBox="0 0 308 324" version="1.1">
	<path d="M 55.750 63.080 C 54.186 63.991, 54 66.007, 54 82.015 C 54 98.703, 54.132 100, 55.934 100.965 C 58.266 102.213, 89.906 102.346, 91.848 101.115 C 93.810 99.872, 93.810 64.128, 91.848 62.885 C 89.929 61.669, 57.875 61.843, 55.750 63.080 M 62 82 L 62 94 74 94 L 86 94 86 82 L 86 70 74 70 L 62 70 62 82 M 63.870 127.014 C 48.636 129.407, 37.616 135.194, 25.974 146.916 C 12.475 160.507, 6.696 174.473, 6.696 193.500 C 6.696 212.834, 12.449 226.527, 26.461 240.539 C 40.473 254.551, 54.166 260.304, 73.500 260.304 C 85.636 260.304, 93.507 258.373, 104.500 252.697 C 114.958 247.297, 126.889 235.544, 132.264 225.348 C 142.612 205.720, 142.612 181.280, 132.264 161.652 C 124.409 146.751, 106.756 132.797, 90.500 128.638 C 82.632 126.625, 70.901 125.909, 63.870 127.014 M 57.500 135.870 C 37.436 141.645, 20.733 158.691, 15.585 178.644 C 13.554 186.517, 13.554 200.483, 15.585 208.356 C 20.838 228.716, 38.284 246.162, 58.644 251.415 C 65.760 253.251, 78.565 253.481, 86.201 251.910 C 89.115 251.310, 95.244 249.032, 99.820 246.847 C 124.843 234.900, 138.032 205.996, 131.003 178.511 C 125.680 157.698, 108.268 140.339, 87.897 135.537 C 79.386 133.531, 65.080 133.688, 57.500 135.870 M 65.384 159.370 C 47.314 163.903, 35.553 181.772, 38.999 199.458 C 44.456 227.466, 77.912 238.198, 97.777 218.313 C 105.474 210.608, 107.500 205.439, 107.500 193.500 C 107.500 181.367, 105.450 176.286, 97.353 168.339 C 89.041 160.183, 76.342 156.620, 65.384 159.370 M 63.627 167.468 C 58.247 169.386, 53.039 173.829, 49.500 179.519 C 46.982 183.568, 46.444 185.582, 46.150 192.050 C 45.760 200.623, 47.420 205.822, 52.447 211.770 C 58.859 219.355, 71.147 222.900, 81.231 220.074 C 92.579 216.894, 101 205.574, 101 193.500 C 101 182.038, 93.486 171.200, 82.965 167.488 C 77.743 165.645, 68.766 165.636, 63.627 167.468 M 71.616 191.527 C 70.727 192.416, 70 193.529, 70 194 C 70 195.389, 73.140 198.120, 74.295 197.735 C 76.395 197.035, 77.549 194.094, 76.423 192.310 C 74.905 189.902, 73.474 189.669, 71.616 191.527 M 180.994 190.912 C 172.530 193.561, 167.485 199.181, 166.388 207.183 C 165.831 211.252, 166.015 211.937, 167.942 212.969 C 170.832 214.516, 172.582 213.044, 173.468 208.318 C 174.339 203.673, 176.381 200.603, 179.561 199.154 C 183.483 197.367, 189.408 197.747, 192.230 199.966 C 195.154 202.266, 197.439 207.215, 196.765 209.789 C 196.506 210.781, 189.478 221.802, 181.147 234.280 C 172.816 246.758, 166 257.595, 166 258.361 C 166 261.608, 168.598 262.051, 186.024 261.774 C 201.193 261.533, 203.418 261.288, 204.387 259.750 C 205.190 258.476, 205.190 257.524, 204.389 256.250 C 203.460 254.774, 201.231 254.422, 190.143 254 L 176.998 253.500 191.036 232.500 C 204.008 213.093, 205.026 211.237, 204.451 208.035 C 203.272 201.471, 198.966 195.079, 194 192.523 C 190.595 190.771, 184.040 189.959, 180.994 190.912 M 258.355 190.998 C 247.798 193.193, 238.226 200.767, 233.279 210.840 C 230.865 215.756, 230.500 217.683, 230.500 225.500 C 230.500 233.317, 230.865 235.244, 233.279 240.160 C 239.342 252.505, 251.297 260.272, 264.412 260.388 C 292.916 260.638, 309.719 229.546, 293.948 205.736 C 286.696 194.787, 271.130 188.342, 258.355 190.998 M 253.053 200.555 L 247.605 203.091 256.303 211.788 L 265 220.486 273.697 211.788 L 282.395 203.091 276.947 200.555 C 272.875 198.660, 269.859 198.020, 265 198.020 C 260.141 198.020, 257.125 198.660, 253.053 200.555 M 239.933 213.750 C 236.749 220.361, 236.749 230.639, 239.933 237.250 C 241.191 239.863, 242.518 242, 242.882 242 C 243.246 242, 247.247 238.278, 251.773 233.729 L 260.001 225.457 251.730 217.229 C 247.180 212.703, 243.180 209, 242.839 209 C 242.499 209, 241.191 211.137, 239.933 213.750 M 278.227 217.271 L 269.999 225.543 278.484 233.984 C 286.626 242.084, 287.030 242.346, 288.477 240.462 C 291.186 236.939, 293.282 228.030, 292.653 222.718 C 292.082 217.896, 288.506 209, 287.139 209 C 286.763 209, 282.753 212.722, 278.227 217.271 M 256.041 239.459 L 247.625 247.918 253.063 250.449 C 257.125 252.340, 260.144 252.980, 265 252.980 C 269.856 252.980, 272.875 252.340, 276.937 250.449 L 282.375 247.918 273.959 239.459 C 269.331 234.807, 265.299 231, 265 231 C 264.701 231, 260.669 234.807, 256.041 239.459 " stroke="none" fill="black" fill-rule="evenodd"/>
</svg>