<svg xmlns="http://www.w3.org/2000/svg" width="436" height="324" viewBox="0 0 436 324" version="1.1">
	<path d="M 295.627 127.515 C 294.732 128.411, 294 129.529, 294 130 C 294 132.054, 297.416 134, 301.022 134 C 307.669 134, 315.178 136.026, 323.820 140.153 C 339.079 147.438, 350.717 161.754, 355.003 178.511 C 358.287 191.353, 357.991 193.046, 349.500 210 C 345.375 218.236, 342 225.640, 342 226.452 C 342 228.779, 345.805 230.406, 347.656 228.870 C 348.497 228.173, 352.012 221.961, 355.467 215.066 L 361.750 202.530 368.318 215.636 C 374.814 228.599, 376.956 231.111, 379.627 228.895 C 381.992 226.932, 381.211 224.396, 373.500 209 C 366.938 195.897, 366 193.349, 366 188.618 C 366 176.221, 373.570 160.374, 384.273 150.361 C 395.015 140.313, 405.972 135.321, 419.895 134.132 C 428.013 133.438, 430.566 131.664, 428.358 128.250 C 427.440 126.829, 426.031 126.553, 420.864 126.784 C 397.186 127.842, 376.037 142.046, 365.113 164.229 L 361.306 171.958 356.987 163.241 C 348.960 147.043, 331.625 132.941, 314.500 128.680 C 303.983 126.063, 297.481 125.661, 295.627 127.515 M 194.223 159.008 C 183.939 161.164, 174.017 169.415, 169.189 179.825 C 165.440 187.907, 165.440 199.093, 169.189 207.175 C 179.969 230.417, 208.603 235.817, 226.149 217.918 C 236.006 207.863, 238.904 193.837, 233.893 180.443 C 228.298 165.489, 210.132 155.673, 194.223 159.008 M 191.385 167.617 C 176.729 172.815, 169.477 191.530, 176.588 205.801 C 179.700 212.046, 185.591 217.332, 191.795 219.446 C 197.095 221.252, 206.110 221.360, 210.684 219.674 C 221.521 215.679, 229 204.991, 229 193.500 C 229 182.038, 221.486 171.200, 210.965 167.488 C 205.715 165.635, 196.807 165.694, 191.385 167.617 M 39.571 223.571 C 38.707 224.436, 38 225.636, 38 226.239 C 38 226.841, 43.941 233.334, 51.202 240.667 L 64.405 254 36.774 254 C 12.988 254, 8.924 254.219, 7.571 255.571 C 5.598 257.545, 5.598 258.455, 7.571 260.429 C 8.968 261.825, 16.372 262, 74 262 C 131.628 262, 139.032 261.825, 140.429 260.429 C 142.402 258.455, 142.402 257.545, 140.429 255.571 C 139.076 254.219, 135.012 254, 111.226 254 L 83.595 254 96.798 240.667 C 104.059 233.334, 110 226.841, 110 226.239 C 110 224.817, 107.176 222, 105.751 222 C 105.143 222, 97.750 228.844, 89.323 237.208 L 74 252.416 58.677 237.208 C 50.250 228.844, 42.857 222, 42.249 222 C 41.640 222, 40.436 222.707, 39.571 223.571 M 259.017 251.286 C 257.651 251.977, 256.102 253.768, 255.575 255.267 C 254.795 257.485, 255.039 258.562, 256.889 261.064 C 258.139 262.754, 258.919 264.768, 258.623 265.540 C 257.999 267.166, 260.493 270, 262.548 270 C 265.994 270, 269.770 258.783, 267.788 254.434 C 267.233 253.216, 265.683 251.721, 264.343 251.110 C 261.427 249.782, 262.029 249.762, 259.017 251.286 M 167.585 255.558 C 166.713 256.430, 166 257.529, 166 258 C 166 258.471, 166.713 259.570, 167.585 260.442 C 168.978 261.835, 173.159 261.995, 202.226 261.763 C 232.452 261.523, 235.377 261.350, 236.386 259.750 C 237.191 258.474, 237.191 257.526, 236.386 256.250 C 235.377 254.650, 232.452 254.477, 202.226 254.237 C 173.159 254.005, 168.978 254.165, 167.585 255.558 " stroke="none" fill="black" fill-rule="evenodd"/>
</svg>