<svg xmlns="http://www.w3.org/2000/svg" width="276" height="324" viewBox="0 0 276 324" version="1.1">
	<path d="M 119.571 63.571 C 118.707 64.436, 118.028 65.448, 118.063 65.821 C 118.098 66.195, 122.071 74.375, 126.893 84 C 138.487 107.143, 137.532 107.153, 149.145 83.767 C 153.988 74.014, 157.702 65.386, 157.398 64.594 C 156.731 62.856, 154.478 61.879, 152.705 62.560 C 151.993 62.833, 148.520 68.894, 144.986 76.028 C 141.453 83.163, 138.308 89, 137.997 89 C 137.687 89, 134.748 83.534, 131.467 76.853 C 123.925 61.499, 122.847 60.296, 119.571 63.571 M 103.200 159.200 C 101.481 160.919, 101.481 227.081, 103.200 228.800 C 104.919 230.519, 171.081 230.519, 172.800 228.800 C 174.519 227.081, 174.519 160.919, 172.800 159.200 C 171.081 157.481, 104.919 157.481, 103.200 159.200 M 199.571 159.571 C 198.207 160.936, 198 165.463, 198 194 C 198 222.537, 198.207 227.064, 199.571 228.429 C 201.545 230.402, 202.455 230.402, 204.429 228.429 C 205.793 227.064, 206 222.537, 206 194 C 206 165.463, 205.793 160.936, 204.429 159.571 C 203.564 158.707, 202.471 158, 202 158 C 201.529 158, 200.436 158.707, 199.571 159.571 M 263.571 159.571 C 262.207 160.936, 262 165.463, 262 194 C 262 222.537, 262.207 227.064, 263.571 228.429 C 265.545 230.402, 266.455 230.402, 268.429 228.429 C 269.793 227.064, 270 222.537, 270 194 C 270 165.463, 269.793 160.936, 268.429 159.571 C 267.564 158.707, 266.471 158, 266 158 C 265.529 158, 264.436 158.707, 263.571 159.571 M 110 194 L 110 222 138 222 L 166 222 166 194 L 166 166 138 166 L 110 166 110 194 M 7.571 191.571 C 6.707 192.436, 6 193.640, 6 194.249 C 6 194.857, 12.844 202.250, 21.208 210.677 L 36.416 226 21.208 241.323 C 12.844 249.750, 6 257.143, 6 257.751 C 6 259.181, 8.819 262, 10.249 262 C 10.857 262, 18.250 255.156, 26.677 246.792 L 42 231.584 57.323 246.792 C 65.750 255.156, 73.143 262, 73.751 262 C 75.181 262, 78 259.181, 78 257.751 C 78 257.143, 71.156 249.750, 62.792 241.323 L 47.584 226 62.792 210.677 C 71.156 202.250, 78 194.857, 78 194.249 C 78 192.819, 75.181 190, 73.751 190 C 73.143 190, 65.750 196.844, 57.323 205.208 L 42 220.416 26.677 205.208 C 18.250 196.844, 10.857 190, 10.249 190 C 9.640 190, 8.436 190.707, 7.571 191.571 " stroke="none" fill="black" fill-rule="evenodd"/>
</svg>