<svg xmlns="http://www.w3.org/2000/svg" width="595" height="324" viewBox="0 0 595 324" version="1.1">
	<path d="M 103.200 159.200 C 101.481 160.919, 101.481 227.081, 103.200 228.800 C 104.085 229.685, 113.117 230, 137.629 230 C 166.503 230, 171.063 229.794, 172.429 228.429 C 173.793 227.064, 174 222.537, 174 194 C 174 165.463, 173.793 160.936, 172.429 159.571 C 171.063 158.206, 166.503 158, 137.629 158 C 113.117 158, 104.085 158.315, 103.200 159.200 M 110 194 L 110 222 138 222 L 166 222 166 194 L 166 166 138 166 L 110 166 110 194 M 7.571 191.571 C 6.707 192.436, 6 193.640, 6 194.249 C 6 194.857, 12.844 202.250, 21.208 210.677 L 36.416 226 21.208 241.323 C 12.844 249.750, 6 257.143, 6 257.751 C 6 259.181, 8.819 262, 10.249 262 C 10.857 262, 18.250 255.156, 26.677 246.792 L 42 231.584 57.323 246.792 C 65.750 255.156, 73.143 262, 73.751 262 C 75.181 262, 78 259.181, 78 257.751 C 78 257.143, 71.156 249.750, 62.792 241.323 L 47.584 226 62.792 210.677 C 71.156 202.250, 78 194.857, 78 194.249 C 78 192.819, 75.181 190, 73.751 190 C 73.143 190, 65.750 196.844, 57.323 205.208 L 42 220.416 26.677 205.208 C 18.250 196.844, 10.857 190, 10.249 190 C 9.640 190, 8.436 190.707, 7.571 191.571 M 231.232 191.250 C 229.350 193.573, 198 256.975, 198 258.459 C 198 260.786, 201.809 262.404, 203.663 260.865 C 204.507 260.164, 211.622 246.749, 219.474 231.052 L 233.750 202.514 248.313 231.626 C 256.486 247.965, 263.617 261.023, 264.565 261.386 C 266.679 262.198, 269 260.358, 269 257.871 C 269 255.637, 237.272 191.833, 235.630 190.765 C 233.949 189.672, 232.369 189.846, 231.232 191.250 M 295.750 191.076 C 293.417 192.440, 293.526 195.676, 295.948 196.972 C 297.256 197.672, 319.132 197.930, 362.589 197.757 C 422.951 197.517, 427.356 197.383, 428.386 195.750 C 429.191 194.474, 429.191 193.526, 428.386 192.250 C 427.356 190.616, 422.963 190.485, 362.391 190.276 C 319.547 190.129, 296.905 190.400, 295.750 191.076 M 359.750 223.080 C 357.372 224.465, 357.542 227.685, 360.064 229.034 C 363.753 231.008, 366.819 226.219, 363.800 223.200 C 362.367 221.767, 362.022 221.757, 359.750 223.080 M 478.402 239.486 C 470.968 241.103, 464.076 244.501, 457.191 249.943 C 452.028 254.024, 450.909 256.509, 453.200 258.800 C 455.145 260.745, 456.608 260.234, 461.689 255.835 C 464.335 253.545, 468.975 250.524, 472 249.123 C 476.820 246.891, 478.861 246.571, 488.500 246.542 C 498.888 246.510, 499.862 246.686, 506 249.708 C 509.575 251.468, 513.731 254.166, 515.235 255.704 C 516.739 257.242, 519.439 259.982, 521.235 261.793 C 525.899 266.498, 536.678 271.596, 544.889 272.981 C 557.820 275.162, 571.230 271.597, 582.718 262.923 C 587.958 258.967, 589.108 256.508, 586.800 254.200 C 584.908 252.308, 583.495 252.743, 578.845 256.651 C 576.455 258.659, 572.025 261.449, 569 262.851 C 564.225 265.064, 562.116 265.403, 553 265.426 C 538.771 265.461, 533.594 263.400, 524.026 253.888 C 515.848 245.759, 506.232 240.666, 496 239.045 C 487.964 237.772, 486.060 237.820, 478.402 239.486 " stroke="none" fill="black" fill-rule="evenodd"/>
</svg>