<svg xmlns="http://www.w3.org/2000/svg" width="532" height="324" viewBox="0 0 532 324" version="1.1">
	<path d="M 39.571 127.571 C 38.176 128.966, 38 136.152, 38 191.571 L 38 254 23.571 254 C 11.788 254, 8.855 254.288, 7.571 255.571 C 5.598 257.545, 5.598 258.455, 7.571 260.429 C 8.936 261.793, 13.463 262, 42 262 C 70.537 262, 75.064 261.793, 76.429 260.429 C 77.293 259.564, 78 258.471, 78 258 C 78 257.529, 77.293 256.436, 76.429 255.571 C 75.145 254.288, 72.212 254, 60.429 254 L 46 254 46 191.571 C 46 136.152, 45.824 128.966, 44.429 127.571 C 43.564 126.707, 42.471 126, 42 126 C 41.529 126, 40.436 126.707, 39.571 127.571 M 103.571 127.571 C 102.206 128.937, 102 133.512, 102 162.536 C 102 194.528, 102.081 195.973, 103.934 196.965 C 104.998 197.534, 111.750 198, 118.937 198 L 132.006 198 117.020 227.961 C 108.777 244.439, 102.285 258.580, 102.594 259.384 C 103.265 261.133, 105.512 262.125, 107.274 261.448 C 107.975 261.180, 115.056 247.919, 123.010 231.980 C 130.964 216.041, 137.714 203, 138.009 203 C 138.304 203, 145.101 216.162, 153.113 232.250 C 161.625 249.342, 168.319 261.625, 169.219 261.800 C 170.065 261.965, 171.487 261.370, 172.379 260.479 C 173.840 259.017, 174 252.475, 174 194 C 174 136.372, 173.825 128.968, 172.429 127.571 C 170.455 125.598, 169.545 125.598, 167.571 127.571 C 166.212 128.931, 166 133.242, 166 159.571 L 166 190 138 190 L 110 190 110 159.571 C 110 133.242, 109.788 128.931, 108.429 127.571 C 107.564 126.707, 106.471 126, 106 126 C 105.529 126, 104.436 126.707, 103.571 127.571 M 253.500 191.404 C 223.773 197.125, 201.481 221.531, 198.526 251.593 C 197.946 257.493, 198.107 258.964, 199.486 260.343 C 202.992 263.850, 206 260.839, 206 253.823 C 206 235.332, 219.726 214.010, 237.603 204.732 C 268.876 188.501, 307.900 202.729, 320.595 234.992 C 325.515 247.495, 325.117 247.462, 311.732 234.250 C 304.906 227.512, 298.831 222, 298.232 222 C 296.814 222, 294 224.827, 294 226.253 C 294 227.168, 324.228 258.707, 327.500 261.206 C 328.050 261.626, 329.144 261.976, 329.931 261.985 C 331.958 262.006, 363.965 229.976, 364.654 227.237 C 365.236 224.923, 363.590 222, 361.705 222 C 361.128 222, 354.301 228.299, 346.536 235.999 L 332.417 249.998 330.730 242.749 C 325.123 218.644, 305.910 198.685, 282.483 192.629 C 273.666 190.349, 261.625 189.840, 253.500 191.404 M 154.607 219.250 C 160.446 230.938, 165.398 240.688, 165.612 240.917 C 165.825 241.146, 166 231.583, 166 219.667 L 166 198 154.995 198 L 143.991 198 154.607 219.250 M 415.712 239.094 C 408.852 240.476, 400.416 244.436, 394.336 249.127 C 388.675 253.494, 387.128 256.245, 389.040 258.548 C 390.867 260.750, 392.629 260.323, 396.747 256.681 C 405.753 248.718, 415.051 245.542, 427.454 246.193 C 438.651 246.781, 446.413 250.464, 455.159 259.340 C 471.459 275.883, 495.758 278.299, 515.582 265.348 C 524.047 259.819, 525.973 256.272, 521.903 253.709 C 520.672 252.933, 519.061 253.644, 514.858 256.818 C 506.615 263.041, 500.754 265.285, 491.409 265.793 C 477.989 266.524, 467.829 262.560, 459.766 253.449 C 449.858 242.253, 430.822 236.050, 415.712 239.094 " stroke="none" fill="black" fill-rule="evenodd"/>
</svg>