<svg xmlns="http://www.w3.org/2000/svg" width="403" height="324" viewBox="0 0 403 324" version="1.1">
	<path d="M 167.234 63.250 C 166.678 63.938, 162.553 71.846, 158.068 80.825 C 149.950 97.075, 149.162 100.081, 152.665 101.425 C 155.241 102.413, 156.843 100.284, 163.467 87.066 L 169.750 74.530 176.318 87.636 C 179.930 94.844, 183.643 101.033, 184.569 101.388 C 186.681 102.199, 189 100.355, 189 97.866 C 189 95.626, 173.264 63.831, 171.628 62.765 C 169.949 61.672, 168.369 61.846, 167.234 63.250 M 130.801 126.999 C 117.210 129.373, 104.785 142.408, 102.514 156.673 C 101.197 164.953, 106.514 185.758, 114.071 201.889 C 124.400 223.939, 143.148 244.833, 163.930 257.458 C 169.332 260.739, 170.305 261.029, 171.948 259.846 C 172.976 259.106, 177.544 255.842, 182.099 252.594 C 208.675 233.642, 228.135 203.709, 234.590 171.852 C 236.892 160.493, 236.145 152.929, 231.945 145.049 C 223.110 128.473, 202.315 121.677, 185.959 130.021 C 180.476 132.818, 172.556 140.243, 170.970 144.073 L 169.728 147.070 166.429 142.170 C 158.614 130.566, 144.583 124.591, 130.801 126.999 M 127.385 135.617 C 117.726 139.043, 110 149.714, 110 159.631 C 110 174.667, 118.259 197.526, 130.186 215.500 C 136.705 225.323, 152.028 240.832, 161.708 247.403 L 168.916 252.295 174.421 248.959 C 177.448 247.124, 183.320 242.570, 187.468 238.839 C 208.581 219.850, 221.113 198.695, 227.062 172 C 229.474 161.177, 229.462 158.311, 226.976 151.667 C 220.646 134.747, 199.074 128.435, 184.797 139.325 C 179.145 143.635, 175.172 150.298, 174.016 157.404 C 173.033 163.443, 171.674 166, 169.449 166 C 167.008 166, 165.298 163.167, 164.702 158.131 C 163.588 148.723, 158.346 141.328, 149.745 137.030 C 142.822 133.571, 134.617 133.052, 127.385 135.617 M 359.750 159.080 C 358.788 159.641, 358 160.858, 358 161.786 C 358 162.714, 363.956 169.442, 371.236 176.737 L 384.472 190 325.170 190 C 286.204 190, 265.205 190.355, 263.934 191.035 C 262.870 191.605, 262 192.939, 262 194 C 262 195.061, 262.870 196.395, 263.934 196.965 C 265.205 197.645, 286.204 198, 325.170 198 L 384.472 198 371.236 211.263 C 363.956 218.558, 358 225.190, 358 226 C 358 226.810, 363.956 233.442, 371.236 240.737 L 384.472 254 325.170 254 C 286.204 254, 265.205 254.355, 263.934 255.035 C 262.870 255.605, 262 256.939, 262 258 C 262 259.061, 262.870 260.395, 263.934 260.965 C 265.205 261.645, 286.204 262, 325.170 262 L 384.472 262 371.236 275.263 C 363.956 282.558, 358 289.292, 358 290.228 C 358 291.164, 358.960 292.443, 360.133 293.071 C 362.084 294.115, 363.752 292.729, 379.633 276.867 C 389.185 267.327, 397 258.847, 397 258.022 C 397 257.198, 390.143 249.656, 381.762 241.262 L 366.524 226 381.762 210.738 C 390.143 202.344, 397 194.802, 397 193.978 C 397 192.647, 363.211 157.955, 361.990 158.030 C 361.720 158.047, 360.712 158.519, 359.750 159.080 M 7.571 191.571 C 6.707 192.436, 6 193.529, 6 194 C 6 194.471, 6.707 195.564, 7.571 196.429 C 8.936 197.793, 13.463 198, 42 198 C 70.537 198, 75.064 197.793, 76.429 196.429 C 77.293 195.564, 78 194.471, 78 194 C 78 193.529, 77.293 192.436, 76.429 191.571 C 75.064 190.207, 70.537 190, 42 190 C 13.463 190, 8.936 190.207, 7.571 191.571 " stroke="none" fill="black" fill-rule="evenodd"/>
</svg>