<svg xmlns="http://www.w3.org/2000/svg" width="340" height="324" viewBox="0 0 340 324" version="1.1">
	<path d="M 7.571 159.571 C 6.207 160.936, 6 165.463, 6 194 C 6 222.537, 6.207 227.064, 7.571 228.429 C 9.545 230.402, 10.455 230.402, 12.429 228.429 C 13.712 227.145, 14 224.212, 14 212.429 L 14 198 42 198 L 70 198 70 212.429 C 70 224.212, 70.288 227.145, 71.571 228.429 C 72.436 229.293, 73.529 230, 74 230 C 74.471 230, 75.564 229.293, 76.429 228.429 C 77.712 227.145, 78 224.212, 78 212.429 L 78 198 106 198 L 134 198 134 212.429 C 134 224.212, 134.288 227.145, 135.571 228.429 C 137.545 230.402, 138.455 230.402, 140.429 228.429 C 141.793 227.064, 142 222.537, 142 194 C 142 165.463, 141.793 160.936, 140.429 159.571 C 139.564 158.707, 138.471 158, 138 158 C 137.529 158, 136.436 158.707, 135.571 159.571 C 134.288 160.855, 134 163.788, 134 175.571 L 134 190 106 190 L 78 190 78 175.571 C 78 163.788, 77.712 160.855, 76.429 159.571 C 74.455 157.598, 73.545 157.598, 71.571 159.571 C 70.288 160.855, 70 163.788, 70 175.571 L 70 190 42 190 L 14 190 14 175.571 C 14 163.788, 13.712 160.855, 12.429 159.571 C 11.564 158.707, 10.471 158, 10 158 C 9.529 158, 8.436 158.707, 7.571 159.571 M 167.200 159.200 C 165.481 160.919, 165.481 227.081, 167.200 228.800 C 168.085 229.685, 177.117 230, 201.629 230 C 230.503 230, 235.063 229.794, 236.429 228.429 C 237.793 227.064, 238 222.537, 238 194 C 238 165.463, 237.793 160.936, 236.429 159.571 C 235.063 158.206, 230.503 158, 201.629 158 C 177.117 158, 168.085 158.315, 167.200 159.200 M 263.750 159.080 C 262.138 160.019, 262 162.769, 262 194.015 C 262 227.854, 262.005 227.932, 264.183 229.098 C 266.042 230.093, 266.636 229.933, 268.183 228.022 C 269.854 225.959, 270 223.225, 270 194.112 C 270 167.069, 269.773 162.120, 268.443 160.223 C 266.702 157.736, 266.248 157.625, 263.750 159.080 M 327.750 159.080 C 326.138 160.019, 326 162.769, 326 194.015 C 326 227.256, 326.041 227.952, 328.064 229.034 C 329.596 229.854, 330.498 229.832, 331.564 228.947 C 332.760 227.954, 333 222.127, 333 194.078 C 333 157.363, 332.815 156.130, 327.750 159.080 M 174 194 L 174 222 202 222 L 230 222 230 194 L 230 166 202 166 L 174 166 174 194 " stroke="none" fill="black" fill-rule="evenodd"/>
</svg>