<svg xmlns="http://www.w3.org/2000/svg" width="500" height="324" viewBox="0 0 500 324" version="1.1">
	<path d="M 258.355 62.986 C 246.577 65.470, 235.489 75.439, 232.023 86.661 C 229.586 94.552, 229.473 99.861, 231.590 106.991 C 233.524 113.502, 235.149 116.229, 240.385 121.750 L 244.416 126 223.142 126 C 210.390 126, 201.094 126.415, 199.934 127.035 C 197.440 128.370, 197.448 131.634, 199.948 132.972 C 201.256 133.672, 223.132 133.930, 266.589 133.757 C 326.951 133.517, 331.356 133.383, 332.386 131.750 C 333.191 130.474, 333.191 129.526, 332.387 128.250 C 331.398 126.681, 328.941 126.472, 308.628 126.231 L 285.973 125.962 289.329 123.016 C 291.174 121.396, 294.217 117.242, 296.092 113.785 C 299.323 107.826, 299.500 106.982, 299.499 97.500 C 299.499 88.448, 299.227 86.979, 296.639 82 C 289.345 67.972, 273.061 59.884, 258.355 62.986 M 255.885 71.380 C 244.798 75.342, 237.750 85.493, 237.750 97.500 C 237.750 110.383, 246.781 121.986, 258.750 124.481 L 262 125.159 262 97.579 C 262 67.470, 262.371 69.062, 255.885 71.380 M 269 97.500 L 269 125.217 271.750 124.543 C 283.731 121.608, 292.989 109.820, 292.989 97.500 C 292.989 85.180, 283.731 73.392, 271.750 70.457 L 269 69.783 269 97.500 M 7.571 127.571 C 6.175 128.968, 6 136.372, 6 194 C 6 251.628, 6.175 259.032, 7.571 260.429 C 8.936 261.793, 13.463 262, 42 262 C 70.537 262, 75.064 261.793, 76.429 260.429 C 77.825 259.032, 78 251.628, 78 194 C 78 136.372, 77.825 128.968, 76.429 127.571 C 75.064 126.207, 70.537 126, 42 126 C 13.463 126, 8.936 126.207, 7.571 127.571 M 359.750 127.080 C 356.605 128.912, 357.875 131.334, 366.537 140.038 L 375.075 148.615 371.482 153.319 C 363.850 163.315, 358.060 179.610, 358.017 191.215 C 358.004 194.965, 358.422 196.156, 360.064 197.034 C 362.757 198.476, 364.987 196.723, 365.035 193.128 C 365.180 182.180, 370.293 167.189, 376.974 158.120 L 380.200 153.741 388.998 162.498 L 397.795 171.254 394.982 175.689 C 384.101 192.847, 391.608 216.194, 410.942 225.326 C 416.419 227.912, 418.517 228.359, 424.942 228.302 C 432.932 228.233, 439.086 226.499, 444.154 222.890 L 447.176 220.738 467.892 241.369 C 479.286 252.716, 489.057 262, 489.604 262 C 491.105 262, 493 259.800, 493 258.059 C 493 257.211, 483.945 247.455, 472.879 236.378 L 452.757 216.239 456.011 209.628 C 465.608 190.136, 456.540 167.225, 436.500 160.329 C 433.508 159.300, 428.591 158.622, 424.258 158.643 C 417.976 158.673, 416.054 159.157, 409.758 162.300 L 402.500 165.922 394 157.399 L 385.500 148.875 388.866 146.017 C 393.482 142.100, 403.351 137.381, 411.060 135.406 C 419.800 133.167, 436.050 133.925, 444.723 136.976 C 458.903 141.965, 471.475 153.071, 478.055 166.423 C 482.058 174.544, 484.950 185.314, 484.983 192.215 C 485.003 196.661, 487.614 198.734, 490.518 196.611 C 492.065 195.479, 492.233 194.264, 491.741 187.754 C 490.140 166.586, 476.830 145.790, 458.167 135.296 C 435.413 122.501, 409.245 123.585, 387.352 138.227 L 379.812 143.271 371.136 134.635 C 366.364 129.886, 362.244 126.014, 361.980 126.030 C 361.716 126.047, 360.712 126.519, 359.750 127.080 M 14 194 L 14 254 42 254 L 70 254 70 194 L 70 134 42 134 L 14 134 14 194 M 130.223 159.008 C 119.939 161.164, 110.017 169.415, 105.189 179.825 C 101.440 187.907, 101.440 199.093, 105.189 207.175 C 110.358 218.320, 119.718 225.697, 131.635 228.019 C 146.456 230.908, 162.062 222.659, 169.203 208.162 C 171.135 204.241, 171.500 201.911, 171.500 193.500 C 171.500 181.464, 169.483 176.393, 161.518 168.404 C 153.702 160.563, 140.999 156.749, 130.223 159.008 M 127.627 167.468 C 122.247 169.386, 117.039 173.829, 113.500 179.519 C 110.969 183.589, 110.444 185.570, 110.143 192.193 C 109.830 199.089, 110.110 200.705, 112.454 205.496 C 117.309 215.419, 126.653 221.078, 137.928 220.924 C 148.142 220.784, 156.647 215.739, 161.500 206.939 C 164.130 202.171, 164.500 200.513, 164.500 193.500 C 164.500 186.487, 164.130 184.829, 161.500 180.061 C 158.429 174.492, 152.651 169.526, 146.684 167.326 C 142.327 165.720, 132.323 165.794, 127.627 167.468 M 413.054 168.554 L 407.609 171.089 427.045 190.545 C 437.735 201.245, 446.782 210, 447.151 210 C 448.508 210, 452.084 201.082, 452.653 196.282 C 453.954 185.295, 446.992 173.233, 436.538 168.366 C 429.441 165.061, 420.403 165.134, 413.054 168.554 M 399.933 181.750 C 397.095 187.643, 396.827 198.502, 399.378 204.272 C 405.710 218.598, 422.782 225.039, 436.946 218.446 L 442.391 215.911 422.955 196.455 C 412.265 185.755, 403.227 177, 402.870 177 C 402.513 177, 401.191 179.137, 399.933 181.750 " stroke="none" fill="black" fill-rule="evenodd"/>
</svg>