<svg xmlns="http://www.w3.org/2000/svg" width="276" height="324" viewBox="0 0 276 324" version="1.1">
	<path d="M 103.571 159.571 C 102.207 160.936, 102 165.463, 102 194 C 102 222.537, 102.207 227.064, 103.571 228.429 C 104.936 229.793, 109.463 230, 138 230 C 166.537 230, 171.064 229.793, 172.429 228.429 C 173.793 227.064, 174 222.537, 174 194 C 174 165.463, 173.793 160.936, 172.429 159.571 C 171.064 158.207, 166.537 158, 138 158 C 109.463 158, 104.936 158.207, 103.571 159.571 M 110 194 L 110 222 138 222 L 166 222 166 194 L 166 166 138 166 L 110 166 110 194 M 7.571 191.571 C 6.707 192.436, 6 193.640, 6 194.249 C 6 194.857, 12.844 202.250, 21.208 210.677 L 36.416 226 21.208 241.323 C 12.844 249.750, 6 257.143, 6 257.751 C 6 259.181, 8.819 262, 10.249 262 C 10.857 262, 18.250 255.156, 26.677 246.792 L 42 231.584 57.323 246.792 C 65.750 255.156, 73.143 262, 73.751 262 C 75.181 262, 78 259.181, 78 257.751 C 78 257.143, 71.156 249.750, 62.792 241.323 L 47.584 226 62.792 210.677 C 71.156 202.250, 78 194.857, 78 194.249 C 78 192.819, 75.181 190, 73.751 190 C 73.143 190, 65.750 196.844, 57.323 205.208 L 42 220.416 26.677 205.208 C 18.250 196.844, 10.857 190, 10.249 190 C 9.640 190, 8.436 190.707, 7.571 191.571 M 232.370 190.765 C 230.401 192.045, 198.007 257.855, 198.594 259.384 C 199.265 261.133, 201.512 262.124, 203.274 261.448 C 203.975 261.180, 211.056 247.919, 219.010 231.980 C 226.964 216.041, 233.710 203, 234 203 C 234.290 203, 241.036 216.041, 248.990 231.980 C 256.944 247.919, 264.025 261.180, 264.726 261.448 C 266.488 262.124, 268.735 261.133, 269.406 259.384 C 269.993 257.855, 237.599 192.045, 235.630 190.765 C 235.009 190.361, 234.275 190.031, 234 190.031 C 233.725 190.031, 232.991 190.361, 232.370 190.765 " stroke="none" fill="black" fill-rule="evenodd"/>
</svg>