<svg xmlns="http://www.w3.org/2000/svg" width="500" height="324" viewBox="0 0 500 324" version="1.1">
	<path d="M 199.750 127.080 C 197.422 128.436, 197.524 131.675, 199.934 132.965 C 201.207 133.646, 222.597 134, 262.434 134 C 295.745 134, 323 134.223, 323 134.495 C 323 134.768, 316.816 147.368, 309.258 162.495 L 295.517 190 280.693 190 C 265.298 190, 262 190.706, 262 194 C 262 197.203, 265.276 198, 278.434 198 C 285.345 198, 291 198.223, 291 198.496 C 291 198.768, 284.365 212.269, 276.257 228.498 C 264.169 252.690, 261.712 258.320, 262.616 259.752 C 263.629 261.360, 266.432 261.500, 297.500 261.500 C 328.586 261.500, 331.370 261.360, 332.386 259.750 C 333.191 258.474, 333.191 257.526, 332.386 256.250 C 331.382 254.658, 328.613 254.476, 301.645 254.235 L 272.008 253.970 286.007 225.985 L 300.007 198 342.240 198 L 384.472 198 371.236 211.263 C 363.956 218.558, 358 225.292, 358 226.228 C 358 227.164, 358.954 228.440, 360.120 229.064 C 362.049 230.097, 363.785 228.687, 379.471 213.349 C 392.692 200.422, 396.703 195.918, 396.703 194 C 396.703 192.082, 392.692 187.578, 379.471 174.651 C 363.785 159.313, 362.049 157.903, 360.120 158.936 C 358.954 159.560, 358 160.836, 358 161.772 C 358 162.708, 363.956 169.442, 371.236 176.737 L 384.472 190 344.233 190 L 303.993 190 318.497 161.007 C 326.473 145.060, 333 130.933, 333 129.614 C 333 128.294, 332.288 126.941, 331.418 126.607 C 328.583 125.519, 201.647 125.975, 199.750 127.080 M 7.571 191.571 C 6.707 192.436, 6 193.640, 6 194.249 C 6 194.857, 12.844 202.250, 21.208 210.677 L 36.416 226 21.208 241.323 C 12.844 249.750, 6 257.143, 6 257.751 C 6 259.181, 8.819 262, 10.249 262 C 10.857 262, 18.250 255.156, 26.677 246.792 L 42 231.584 57.323 246.792 C 65.750 255.156, 73.143 262, 73.751 262 C 75.181 262, 78 259.181, 78 257.751 C 78 257.143, 71.156 249.750, 62.792 241.323 L 47.584 226 62.792 210.677 C 71.156 202.250, 78 194.857, 78 194.249 C 78 192.819, 75.181 190, 73.751 190 C 73.143 190, 65.750 196.844, 57.323 205.208 L 42 220.416 26.677 205.208 C 18.250 196.844, 10.857 190, 10.249 190 C 9.640 190, 8.436 190.707, 7.571 191.571 M 103.571 191.571 C 102.707 192.436, 102 193.640, 102 194.249 C 102 194.857, 108.844 202.250, 117.208 210.677 L 132.416 226 117.208 241.323 C 108.844 249.750, 102 257.143, 102 257.751 C 102 259.181, 104.819 262, 106.249 262 C 106.857 262, 114.250 255.156, 122.677 246.792 L 138 231.584 153.323 246.792 C 161.750 255.156, 169.085 262, 169.623 262 C 171.244 262, 173 259.725, 173 257.625 C 173 256.420, 167.267 249.871, 158.293 240.825 L 143.586 226 158.293 211.175 C 167.267 202.129, 173 195.580, 173 194.375 C 173 192.275, 171.244 190, 169.623 190 C 169.085 190, 161.750 196.844, 153.323 205.208 L 138 220.416 122.677 205.208 C 114.250 196.844, 106.857 190, 106.249 190 C 105.640 190, 104.436 190.707, 103.571 191.571 M 487.040 191.452 C 484.392 194.642, 488.299 199.657, 491.416 197.070 C 493.297 195.508, 493.470 192.870, 491.800 191.200 C 490.197 189.597, 488.505 189.686, 487.040 191.452 M 423.750 255.080 C 421.372 256.465, 421.542 259.685, 424.064 261.034 C 427.753 263.008, 430.819 258.219, 427.800 255.200 C 426.367 253.767, 426.022 253.757, 423.750 255.080 M 487.040 255.452 C 484.392 258.642, 488.299 263.657, 491.416 261.070 C 493.297 259.508, 493.470 256.870, 491.800 255.200 C 490.197 253.597, 488.505 253.686, 487.040 255.452 " stroke="none" fill="black" fill-rule="evenodd"/>
</svg>