<svg xmlns="http://www.w3.org/2000/svg" width="212" height="324" viewBox="0 0 212 324" version="1.1">
	<path d="M 104.372 62.751 C 102.408 64.054, 86.005 97.849, 86.593 99.381 C 87.268 101.141, 89.513 102.124, 91.295 101.440 C 92.007 101.167, 95.480 95.106, 99.014 87.972 C 102.547 80.837, 105.692 75, 106.003 75 C 106.313 75, 109.252 80.432, 112.533 87.070 C 115.815 93.709, 119.222 99.795, 120.105 100.594 C 121.891 102.212, 124.550 101.615, 125.398 99.406 C 126.127 97.506, 108.754 62.573, 106.920 62.251 C 106.139 62.114, 104.992 62.339, 104.372 62.751 M 33.608 132.122 C 21.806 142.937, 13.219 157.313, 8.894 173.500 C 5.911 184.665, 5.908 202.317, 8.888 213.500 C 13.233 229.805, 21.920 244.123, 34.585 255.857 L 41.216 262 58.037 262 C 71.995 262, 75.125 261.733, 76.429 260.429 C 78.402 258.455, 78.402 257.545, 76.429 255.571 C 75.132 254.274, 72.077 254, 58.940 254 L 43.024 254 35.762 246.631 C 21.159 231.812, 14.035 214.391, 14.035 193.500 C 14.035 172.941, 21.097 155.388, 35.202 140.889 L 41.903 134 105.449 134 L 168.994 134 173.099 137.709 C 182.829 146.498, 191.603 161.304, 195.121 174.864 C 197.828 185.302, 197.827 201.702, 195.119 212.144 C 191.599 225.714, 182.785 240.512, 172.963 249.343 L 167.839 253.950 152.277 254.225 C 138.728 254.464, 136.573 254.726, 135.613 256.250 C 134.809 257.525, 134.809 258.475, 135.613 259.750 C 136.581 261.287, 138.799 261.533, 153.802 261.773 L 170.889 262.047 178.677 253.943 C 188.130 244.107, 192.090 238.678, 196.507 229.500 C 208.430 204.722, 207.405 176.468, 193.694 152.021 C 191.048 147.302, 186.178 141.120, 180.500 135.270 L 171.500 125.998 105.895 125.999 L 40.289 126 33.608 132.122 M 65.384 159.412 C 39.768 165.628, 29.973 197.294, 47.601 216.901 C 55.556 225.749, 68.252 230.194, 79.340 228.013 C 86.980 226.510, 91.966 223.995, 97.599 218.802 L 102 214.745 102 220.718 C 102 225.234, 102.446 227.094, 103.829 228.345 C 106.085 230.387, 106.463 230.394, 108.429 228.429 C 109.712 227.145, 110 224.212, 110 212.429 L 110 198 138.500 198 L 167 198 167 212.878 C 167 229.071, 167.684 231.310, 171.936 229.034 C 173.959 227.952, 174 227.256, 174 194 C 174 160.744, 173.959 160.048, 171.936 158.966 C 167.684 156.690, 167 158.929, 167 175.122 L 167 190 138.500 190 L 110 190 110 175.571 C 110 163.788, 109.712 160.855, 108.429 159.571 C 106.411 157.554, 105.678 157.594, 103.655 159.829 C 102.553 161.046, 102 163.429, 102 166.956 L 102 172.255 97.599 168.198 C 92.213 163.233, 87.162 160.599, 80.201 159.123 C 73.812 157.769, 72.008 157.804, 65.384 159.412 M 64.453 167.326 C 52.177 172.056, 45.331 182.563, 46.195 195.349 C 47.162 209.654, 57.349 219.839, 71.659 220.805 C 79.400 221.328, 86.290 219.156, 91.771 214.464 C 104.223 203.805, 104.235 183.205, 91.795 172.557 C 89.580 170.660, 85.714 168.409, 83.205 167.554 C 77.906 165.749, 68.834 165.638, 64.453 167.326 M 103.655 255.829 C 102.200 257.437, 102 260.963, 102 285.031 L 102 312.405 88.667 299.202 C 81.334 291.941, 74.841 286, 74.239 286 C 72.815 286, 70 288.824, 70 290.253 C 70 290.863, 77.295 298.706, 86.210 307.681 C 101.143 322.714, 102.703 324, 106 324 C 109.297 324, 110.857 322.714, 125.790 307.681 C 134.705 298.706, 142 290.863, 142 290.253 C 142 289.015, 139.259 286, 138.133 286 C 137.734 286, 131.354 291.787, 123.954 298.861 L 110.500 311.722 110 283.823 C 109.582 260.491, 109.254 255.770, 108 254.978 C 105.926 253.668, 105.542 253.744, 103.655 255.829 " stroke="none" fill="black" fill-rule="evenodd"/>
</svg>