<svg xmlns="http://www.w3.org/2000/svg" width="308" height="324" viewBox="0 0 308 324" version="1.1">
	<path d="M 199.244 159.256 L 166 192.511 166 226.056 C 166 250.812, 166.314 259.914, 167.200 260.800 C 168.109 261.709, 184.200 262, 233.500 262 C 282.800 262, 298.891 261.709, 299.800 260.800 C 300.686 259.914, 301 250.810, 301 226.044 L 301 192.489 267.744 159.244 C 249.454 140.960, 234.039 126, 233.489 126 C 232.939 126, 217.529 140.965, 199.244 159.256 M 203.236 165.280 L 173 195.576 173 224.788 L 173 254 233.500 254 L 294 254 294 224.744 L 294 195.488 263.736 165.236 L 233.472 134.984 203.236 165.280 M 39.571 223.571 C 38.707 224.436, 38 225.636, 38 226.239 C 38 226.841, 43.941 233.334, 51.202 240.667 L 64.405 254 36.774 254 C 12.988 254, 8.924 254.219, 7.571 255.571 C 5.596 257.546, 5.598 258.455, 7.579 260.436 C 8.990 261.847, 16.058 261.987, 74.220 261.757 C 134.934 261.517, 139.356 261.383, 140.386 259.750 C 141.191 258.474, 141.191 257.526, 140.387 256.250 C 139.393 254.673, 136.555 254.451, 111.658 254 L 84.032 253.500 96.516 240.337 C 103.382 233.098, 109 226.551, 109 225.787 C 109 224.185, 107.052 222, 105.623 222 C 105.085 222, 97.750 228.844, 89.323 237.208 L 74 252.416 58.677 237.208 C 50.250 228.844, 42.857 222, 42.249 222 C 41.640 222, 40.436 222.707, 39.571 223.571 " stroke="none" fill="black" fill-rule="evenodd"/>
</svg>