<svg xmlns="http://www.w3.org/2000/svg" width="308" height="324" viewBox="0 0 308 324" version="1.1">
	<path d="M 7.571 127.571 C 6.707 128.436, 6 129.619, 6 130.200 C 6 130.782, 9.872 135.215, 14.605 140.051 L 23.210 148.845 19.558 153.628 C 11.085 164.725, 6.696 178.330, 6.696 193.500 C 6.696 212.834, 12.449 226.527, 26.461 240.539 C 40.473 254.551, 54.166 260.304, 73.500 260.304 C 88.590 260.304, 100.978 256.242, 113.308 247.251 L 118.116 243.745 127.423 252.872 C 132.542 257.893, 137.151 262, 137.665 262 C 139.123 262, 141 259.765, 141 258.029 C 141 257.165, 136.975 252.451, 132.054 247.554 L 123.109 238.650 125.938 235.075 C 138.674 218.980, 143.407 194.988, 137.719 175.351 C 131.180 152.776, 112.559 134.468, 90 128.434 C 81.436 126.144, 65.646 126.102, 57.113 128.348 C 48.962 130.493, 39.726 134.902, 33.628 139.558 L 28.845 143.210 20.051 134.605 C 15.215 129.872, 10.782 126, 10.200 126 C 9.619 126, 8.436 126.707, 7.571 127.571 M 57.500 135.870 C 50.942 137.757, 41.044 142.729, 36.816 146.259 L 34.132 148.500 76.116 191 L 118.099 233.500 120.073 231 C 131.357 216.708, 135.582 196.416, 131.003 178.511 C 125.680 157.698, 108.268 140.339, 87.897 135.537 C 79.386 133.531, 65.080 133.688, 57.500 135.870 M 25.263 158.133 C 20.718 164.762, 17.318 171.986, 15.574 178.716 C 13.553 186.514, 13.558 200.499, 15.585 208.356 C 20.838 228.716, 38.284 246.162, 58.644 251.415 C 65.760 253.251, 78.565 253.481, 86.201 251.910 C 92.158 250.685, 106.077 244.214, 110.232 240.739 L 112.963 238.454 70.610 196.110 L 28.257 153.766 25.263 158.133 M 199.244 223.256 C 180.960 241.546, 166 257.206, 166 258.056 C 166 261.988, 166.212 262, 233.500 262 C 300.818 262, 301 261.989, 301 258.044 C 301 256.369, 235.151 190, 233.489 190 C 232.939 190, 217.529 204.965, 199.244 223.256 M 206 226.500 L 178.514 254 233.500 254 L 288.486 254 261 226.500 C 245.883 211.375, 233.508 199, 233.500 199 C 233.492 199, 221.117 211.375, 206 226.500 " stroke="none" fill="black" fill-rule="evenodd"/>
</svg>