<svg xmlns="http://www.w3.org/2000/svg" width="436" height="324" viewBox="0 0 436 324" version="1.1">
	<path d="M 103.571 127.571 C 102.175 128.968, 102 136.372, 102 194 C 102 251.628, 102.175 259.032, 103.571 260.429 C 104.436 261.293, 105.529 262, 106 262 C 106.471 262, 107.564 261.293, 108.429 260.429 C 109.825 259.032, 110 251.628, 110 194 C 110 136.372, 109.825 128.968, 108.429 127.571 C 107.564 126.707, 106.471 126, 106 126 C 105.529 126, 104.436 126.707, 103.571 127.571 M 231.571 127.571 C 230.175 128.968, 230 136.372, 230 194 C 230 251.628, 230.175 259.032, 231.571 260.429 C 232.436 261.293, 233.529 262, 234 262 C 234.471 262, 235.564 261.293, 236.429 260.429 C 237.825 259.032, 238 251.628, 238 194 C 238 136.372, 237.825 128.968, 236.429 127.571 C 235.564 126.707, 234.471 126, 234 126 C 233.529 126, 232.436 126.707, 231.571 127.571 M 167.571 159.571 C 166.288 160.855, 166 163.788, 166 175.571 L 166 190 151.571 190 C 139.788 190, 136.855 190.288, 135.571 191.571 C 133.598 193.545, 133.598 194.455, 135.571 196.429 C 136.855 197.712, 139.788 198, 151.571 198 L 166 198 166 212.429 C 166 224.212, 166.288 227.145, 167.571 228.429 C 169.545 230.402, 170.455 230.402, 172.429 228.429 C 173.712 227.145, 174 224.212, 174 212.429 L 174 198 188.429 198 C 200.212 198, 203.145 197.712, 204.429 196.429 C 206.402 194.455, 206.402 193.545, 204.429 191.571 C 203.145 190.288, 200.212 190, 188.429 190 L 174 190 174 175.571 C 174 163.788, 173.712 160.855, 172.429 159.571 C 171.564 158.707, 170.471 158, 170 158 C 169.529 158, 168.436 158.707, 167.571 159.571 M 7.571 191.571 C 6.707 192.436, 6 193.640, 6 194.249 C 6 194.857, 12.844 202.250, 21.208 210.677 L 36.416 226 21.208 241.323 C 12.844 249.750, 6 257.143, 6 257.751 C 6 259.181, 8.819 262, 10.249 262 C 10.857 262, 18.250 255.156, 26.677 246.792 L 42 231.584 57.323 246.792 C 65.750 255.156, 73.143 262, 73.751 262 C 75.181 262, 78 259.181, 78 257.751 C 78 257.143, 71.156 249.750, 62.792 241.323 L 47.584 226 62.792 210.677 C 71.156 202.250, 78 194.857, 78 194.249 C 78 192.819, 75.181 190, 73.751 190 C 73.143 190, 65.750 196.844, 57.323 205.208 L 42 220.416 26.677 205.208 C 18.250 196.844, 10.857 190, 10.249 190 C 9.640 190, 8.436 190.707, 7.571 191.571 M 327.750 191.080 C 325.372 192.465, 325.542 195.685, 328.064 197.034 C 331.753 199.008, 334.819 194.219, 331.800 191.200 C 330.367 189.767, 330.022 189.757, 327.750 191.080 M 391.244 223.256 C 372.960 241.546, 358 257.206, 358 258.056 C 358 261.835, 359.488 262, 393.450 261.985 C 411.627 261.976, 427.081 261.601, 427.791 261.150 C 428.805 260.507, 429.082 252.958, 429.082 226 C 429.082 191.142, 428.975 190.068, 425.494 190.015 C 424.941 190.007, 409.529 204.965, 391.244 223.256 M 396.500 228.172 L 371.500 253.500 396.399 253.768 C 410.093 253.915, 421.464 253.870, 421.666 253.667 C 421.869 253.464, 421.915 241.946, 421.767 228.071 L 421.500 202.844 396.500 228.172 M 263.571 255.571 C 262.707 256.436, 262 257.529, 262 258 C 262 258.822, 264.772 262, 265.490 262 C 267.518 262, 269 260.311, 269 258 C 269 256.382, 268.337 254.960, 267.418 254.607 C 265.301 253.795, 265.364 253.779, 263.571 255.571 M 327.750 255.080 C 325.372 256.465, 325.542 259.685, 328.064 261.034 C 331.753 263.008, 334.819 258.219, 331.800 255.200 C 330.367 253.767, 330.022 253.757, 327.750 255.080 " stroke="none" fill="black" fill-rule="evenodd"/>
</svg>