<svg xmlns="http://www.w3.org/2000/svg" width="372" height="324" viewBox="0 0 372 324" version="1.1">
	<path d="M 119.571 63.571 C 118.707 64.436, 118 65.332, 118 65.564 C 118 67.123, 135.710 101.058, 136.727 101.449 C 137.427 101.717, 138.573 101.717, 139.273 101.449 C 141.129 100.736, 158.063 66.328, 157.403 64.609 C 156.732 62.858, 154.483 61.877, 152.705 62.560 C 151.993 62.833, 148.520 68.894, 144.986 76.028 C 141.453 83.163, 138.308 89, 137.997 89 C 137.687 89, 134.748 83.534, 131.467 76.853 C 123.925 61.499, 122.847 60.296, 119.571 63.571 M 129.384 127.412 C 111.480 131.757, 99.543 149.833, 102.993 167.372 C 103.651 170.715, 105.079 175.194, 106.166 177.325 C 108.765 182.419, 115.066 189.182, 119.377 191.503 L 122.824 193.360 118.662 196.005 C 110.442 201.228, 105.123 209.179, 103.014 219.396 C 100.201 233.027, 107.253 248.375, 119.673 255.654 C 124.824 258.673, 137.869 262.124, 140 261.032 C 140.825 260.609, 143.300 259.941, 145.500 259.548 C 154.256 257.981, 164.364 250.087, 168.834 241.325 C 176.896 225.522, 171.396 205.573, 156.338 196.005 L 152.176 193.360 155.623 191.503 C 159.934 189.182, 166.235 182.419, 168.834 177.325 C 179.106 157.191, 167.453 132.611, 145.147 127.360 C 138.397 125.772, 136.111 125.779, 129.384 127.412 M 215.282 143.282 C 205.777 152.787, 198 161.079, 198 161.710 C 198 163.173, 200.800 166, 202.249 166 C 202.857 166, 210.250 159.156, 218.677 150.792 L 234 135.584 249.323 150.792 C 257.750 159.156, 265.143 166, 265.751 166 C 267.200 166, 270 163.173, 270 161.710 C 270 160.031, 235.693 126, 234 126 C 233.210 126, 224.787 133.777, 215.282 143.282 M 127.054 135.728 C 121.018 137.859, 113.781 145.260, 111.667 151.463 C 106.058 167.925, 114.847 184.571, 131.250 188.550 L 134 189.217 134 161.608 C 134 140.146, 133.722 134.018, 132.750 134.079 C 132.063 134.122, 129.499 134.864, 127.054 135.728 M 142 161.500 L 142 189.135 144.250 188.448 C 153.341 185.671, 160.783 179.020, 163.403 171.329 C 168.885 155.241, 160.601 139.321, 144.250 134.525 L 142 133.865 142 161.500 M 295.571 159.571 C 294.207 160.936, 294 165.463, 294 194 C 294 222.537, 294.207 227.064, 295.571 228.429 C 296.936 229.793, 301.463 230, 330 230 C 358.537 230, 363.064 229.793, 364.429 228.429 C 365.793 227.064, 366 222.537, 366 194 C 366 165.463, 365.793 160.936, 364.429 159.571 C 363.064 158.207, 358.537 158, 330 158 C 301.463 158, 296.936 158.207, 295.571 159.571 M 302 194 L 302 222 330 222 L 358 222 358 194 L 358 166 330 166 L 302 166 302 194 M 7.571 191.571 C 6.707 192.436, 6 193.529, 6 194 C 6 194.471, 6.707 195.564, 7.571 196.429 C 8.936 197.793, 13.463 198, 42 198 C 70.537 198, 75.064 197.793, 76.429 196.429 C 77.293 195.564, 78 194.471, 78 194 C 78 193.529, 77.293 192.436, 76.429 191.571 C 75.064 190.207, 70.537 190, 42 190 C 13.463 190, 8.936 190.207, 7.571 191.571 M 127.054 199.728 C 121.018 201.859, 113.781 209.260, 111.667 215.463 C 106.058 231.925, 114.847 248.571, 131.250 252.550 L 134 253.217 134 225.608 C 134 204.146, 133.722 198.018, 132.750 198.079 C 132.063 198.122, 129.499 198.864, 127.054 199.728 M 142 225.500 L 142 253.135 144.250 252.448 C 153.341 249.671, 160.783 243.020, 163.403 235.329 C 168.885 219.241, 160.601 203.321, 144.250 198.525 L 142 197.865 142 225.500 M 199.571 223.571 C 198.707 224.436, 198 225.659, 198 226.290 C 198 227.969, 232.307 262, 234 262 C 235.693 262, 270 227.969, 270 226.290 C 270 224.827, 267.200 222, 265.751 222 C 265.143 222, 257.750 228.844, 249.323 237.208 L 234 252.416 218.677 237.208 C 210.250 228.844, 202.857 222, 202.249 222 C 201.640 222, 200.436 222.707, 199.571 223.571 " stroke="none" fill="black" fill-rule="evenodd"/>
</svg>