<svg xmlns="http://www.w3.org/2000/svg" width="628" height="324" viewBox="0 0 628 324" version="1.1">
	<path d="M 7.571 127.571 C 6.175 128.968, 6 136.372, 6 194 C 6 251.628, 6.175 259.032, 7.571 260.429 C 8.936 261.793, 13.463 262, 42 262 C 70.537 262, 75.064 261.793, 76.429 260.429 C 77.825 259.032, 78 251.628, 78 194 C 78 136.372, 77.825 128.968, 76.429 127.571 C 75.064 126.207, 70.537 126, 42 126 C 13.463 126, 8.936 126.207, 7.571 127.571 M 157.500 127.466 C 135.235 131.554, 115.843 147.329, 107.285 168.314 C 104.837 174.317, 102.106 186.732, 102.035 192.179 C 102.001 194.752, 104.213 198, 106 198 C 108.239 198, 110.001 194.567, 110.015 190.179 C 110.091 166.127, 130.559 141.323, 155.103 135.537 C 175.188 130.803, 196.608 136.681, 210.963 150.866 C 221.609 161.387, 227.485 173.601, 228.675 187.687 C 229.043 192.035, 229.901 195.758, 230.725 196.582 C 231.882 197.739, 237.327 198, 260.274 198 L 288.405 198 275.202 211.333 C 267.941 218.666, 262 225.159, 262 225.761 C 262 227.202, 264.832 230, 266.290 230 C 267.969 230, 302 195.693, 302 194 C 302 192.307, 267.969 158, 266.290 158 C 264.832 158, 262 160.798, 262 162.239 C 262 162.841, 267.941 169.334, 275.202 176.667 L 288.405 190 262.202 190 L 236 190 236 187.049 C 236 181.119, 233.730 173.289, 229.389 164.240 C 219.712 144.073, 200.761 130.271, 178.284 127.020 C 169.745 125.786, 166.241 125.861, 157.500 127.466 M 486.612 128.250 C 485.823 129.488, 470.852 159.187, 453.343 194.249 C 427.084 246.834, 421.702 258.304, 422.613 259.749 C 423.630 261.361, 426.404 261.500, 457.500 261.500 C 488.586 261.500, 491.370 261.360, 492.386 259.750 C 493.191 258.474, 493.191 257.526, 492.387 256.250 C 491.389 254.667, 488.466 254.452, 461.764 254 L 432.245 253.500 460.995 196.009 L 489.745 138.517 520.622 200.009 L 551.500 261.500 585.391 261.500 C 616.581 261.500, 619.370 261.361, 620.386 259.750 C 621.191 258.474, 621.191 257.526, 620.386 256.250 C 619.379 254.653, 616.518 254.477, 587.636 254.236 L 555.989 253.972 524.376 190.736 C 506.989 155.956, 492.254 127.169, 491.631 126.765 C 489.647 125.476, 488.086 125.938, 486.612 128.250 M 14 194 L 14 254 42 254 L 70 254 70 194 L 70 134 42 134 L 14 134 14 194 M 354.355 190.986 C 343.790 193.214, 334.114 201.146, 329.329 211.500 C 325.374 220.059, 325.386 230.895, 329.361 239.610 C 332.861 247.285, 339.689 254.075, 347.480 257.629 C 352.315 259.835, 354.902 260.355, 360.980 260.345 C 371.546 260.326, 378.800 257.360, 386.080 250.080 C 407.321 228.839, 393.923 193.163, 363.729 190.562 C 360.853 190.314, 356.635 190.505, 354.355 190.986 M 351.385 199.617 C 345.552 201.686, 339.605 207.144, 336.588 213.199 C 331.895 222.618, 330.144 222, 361.519 222 L 389.038 222 388.379 219.250 C 386.432 211.130, 381.425 204.868, 373.854 201.085 C 366.817 197.568, 358.664 197.036, 351.385 199.617 M 334 231.304 C 334 232.021, 335.165 234.945, 336.588 237.801 C 347.736 260.172, 381.085 257.111, 387.976 233.084 L 388.860 230 361.430 230 C 339.551 230, 334 230.264, 334 231.304 " stroke="none" fill="black" fill-rule="evenodd"/>
</svg>