<svg xmlns="http://www.w3.org/2000/svg" width="532" height="324" viewBox="0 0 532 324" version="1.1">
	<path d="M 104.316 62.784 C 102.369 64.022, 86.007 97.855, 86.604 99.410 C 87.269 101.144, 89.524 102.120, 91.295 101.440 C 92.007 101.167, 95.480 95.106, 99.014 87.972 C 102.547 80.837, 105.691 75, 106 75 C 106.309 75, 109.453 80.837, 112.986 87.972 C 116.520 95.106, 119.993 101.167, 120.705 101.440 C 122.487 102.124, 124.732 101.141, 125.407 99.381 C 125.997 97.844, 109.582 64.037, 107.628 62.765 C 106.214 61.845, 105.789 61.847, 104.316 62.784 M 33.608 132.122 C 22.087 142.679, 14.215 155.547, 9.393 171.703 C 5.857 183.551, 5.642 201.391, 8.887 213.500 C 13.274 229.864, 21.580 243.692, 33.980 255.274 L 41.181 262 58.019 262 C 71.993 262, 75.124 261.733, 76.429 260.429 C 78.402 258.455, 78.402 257.545, 76.429 255.571 C 75.131 254.274, 72.070 254, 58.864 254 L 42.871 254 35.686 246.665 C 21.179 231.858, 14.035 214.314, 14.035 193.500 C 14.035 173.031, 20.998 155.652, 35.107 140.905 L 41.714 134 105.357 134 L 169 134 174.750 139.758 C 202.008 167.051, 204.532 210.171, 180.655 240.609 C 177.682 244.399, 173.420 248.963, 171.183 250.750 L 167.117 254 152.130 254 C 139.839 254, 136.860 254.283, 135.571 255.571 C 134.707 256.436, 134 257.529, 134 258 C 134 258.471, 134.707 259.564, 135.571 260.429 C 137.873 262.731, 170.278 262.764, 172.211 260.467 C 172.920 259.623, 175.681 256.811, 178.347 254.217 C 189.552 243.313, 198.116 228.618, 202.075 213.500 C 204.990 202.367, 204.990 184.633, 202.075 173.500 C 197.884 157.497, 189.032 142.781, 176.897 131.646 L 170.745 126 105.517 126 L 40.289 126 33.608 132.122 M 423.750 127.080 C 422.207 127.979, 422 129.866, 422 143.050 L 422 158 407.934 158 C 393.308 158, 390 158.738, 390 162 C 390 165.262, 393.308 166, 407.934 166 L 422 166 422 194 L 422 222 407.934 222 C 393.308 222, 390 222.738, 390 226 C 390 229.262, 393.308 230, 407.934 230 L 422 230 422 244.965 C 422 259.061, 422.120 259.994, 424.064 261.034 C 428.316 263.310, 429 261.071, 429 244.878 L 429 230 457.500 230 L 486 230 486 244.965 C 486 259.061, 486.120 259.994, 488.064 261.034 C 492.315 263.309, 493 261.069, 493 244.904 L 493 230.052 508.142 229.776 C 521.291 229.536, 523.430 229.270, 524.387 227.750 C 525.191 226.475, 525.191 225.525, 524.387 224.250 C 523.430 222.730, 521.291 222.464, 508.142 222.224 L 493 221.948 493 194 L 493 166.052 508.142 165.776 C 521.291 165.536, 523.430 165.270, 524.387 163.750 C 525.191 162.475, 525.191 161.525, 524.387 160.250 C 523.430 158.730, 521.291 158.464, 508.142 158.224 L 493 157.948 493 143.096 C 493 126.931, 492.315 124.691, 488.064 126.966 C 486.120 128.006, 486 128.939, 486 143.035 L 486 158 457.500 158 L 429 158 429 143.200 C 429 126.584, 428.299 124.431, 423.750 127.080 M 65.384 159.412 C 54.810 161.978, 45.978 169.450, 41.191 179.880 C 37.513 187.892, 37.524 199.131, 41.216 207.175 C 51.666 229.943, 79.325 235.646, 97.599 218.802 L 102 214.745 102 220.801 C 102 228.764, 104.787 232.070, 108.429 228.429 C 109.712 227.145, 110 224.212, 110 212.429 L 110 198 138 198 L 166 198 166 212.429 C 166 224.212, 166.288 227.145, 167.571 228.429 C 169.545 230.402, 170.455 230.402, 172.429 228.429 C 173.793 227.064, 174 222.537, 174 194 C 174 165.463, 173.793 160.936, 172.429 159.571 C 171.564 158.707, 170.471 158, 170 158 C 169.529 158, 168.436 158.707, 167.571 159.571 C 166.288 160.855, 166 163.788, 166 175.571 L 166 190 138 190 L 110 190 110 175.571 C 110 163.788, 109.712 160.855, 108.429 159.571 C 104.892 156.034, 102 159.240, 102 166.699 L 102 172.255 97.599 168.198 C 92.213 163.233, 87.162 160.599, 80.201 159.123 C 73.812 157.769, 72.008 157.804, 65.384 159.412 M 295.482 159.661 C 291.863 163.280, 296.887 178.213, 304.259 185.750 L 308.416 190 270.780 190 C 237.898 190, 232.944 190.199, 231.571 191.571 C 229.598 193.545, 229.598 194.455, 231.571 196.429 C 232.844 197.701, 235.697 198, 246.575 198 L 260.006 198 245.020 227.961 C 236.777 244.439, 230.285 258.580, 230.594 259.384 C 231.265 261.133, 233.512 262.125, 235.274 261.448 C 235.975 261.180, 243.056 247.919, 251.010 231.980 C 258.964 216.041, 265.717 203, 266.016 203 C 266.315 203, 273.071 216.093, 281.030 232.095 C 288.988 248.098, 295.842 261.402, 296.259 261.660 C 298.831 263.250, 301.526 258.979, 315.125 231.762 L 329.744 202.502 344.310 231.620 C 352.485 247.962, 359.617 261.023, 360.565 261.386 C 362.679 262.198, 365 260.358, 365 257.871 C 365 256.835, 358.480 242.952, 350.511 227.021 L 336.021 198.056 349.653 197.778 C 361.361 197.539, 363.441 197.253, 364.388 195.750 C 366.478 192.431, 363.987 190.534, 357.104 190.201 L 350.916 189.902 354.911 185.364 C 360.209 179.345, 363.270 172.788, 363.808 166.306 C 364.694 155.612, 358.059 155.038, 356.627 165.684 C 353.097 191.930, 316.469 197.644, 304.588 173.801 C 303.165 170.945, 302 167.221, 302 165.526 C 302 162.438, 299.650 158, 298.015 158 C 297.535 158, 296.395 158.747, 295.482 159.661 M 63.054 167.728 C 57.018 169.859, 49.781 177.260, 47.667 183.463 C 41.198 202.450, 53.964 221, 73.500 221 C 80.850 221, 87.345 218.459, 92.280 213.653 C 98.701 207.401, 100.500 202.989, 100.500 193.500 C 100.500 184.011, 98.701 179.599, 92.280 173.347 C 85.109 166.363, 73.332 164.099, 63.054 167.728 M 429 194 L 429 222 457.500 222 L 486 222 486 194 L 486 166 457.500 166 L 429 166 429 194 M 284.743 223.500 C 291.750 237.525, 297.711 248.969, 297.991 248.931 C 298.426 248.873, 321.894 201.667, 322.833 198.960 C 323.041 198.363, 313.497 198, 297.586 198 L 272.005 198 284.743 223.500 M 103.571 255.571 C 102.219 256.924, 102 260.988, 102 284.774 L 102 312.405 88.667 299.202 C 81.334 291.941, 74.841 286, 74.239 286 C 72.815 286, 70 288.824, 70 290.253 C 70 290.863, 77.295 298.706, 86.210 307.681 C 101.143 322.714, 102.703 324, 106 324 C 109.297 324, 110.857 322.714, 125.790 307.681 C 134.705 298.706, 142 290.863, 142 290.253 C 142 288.824, 139.185 286, 137.761 286 C 137.159 286, 130.666 291.941, 123.333 299.202 L 110 312.405 110 284.774 C 110 260.988, 109.781 256.924, 108.429 255.571 C 107.564 254.707, 106.471 254, 106 254 C 105.529 254, 104.436 254.707, 103.571 255.571 " stroke="none" fill="black" fill-rule="evenodd"/>
</svg>