<svg xmlns="http://www.w3.org/2000/svg" width="403" height="324" viewBox="0 0 403 324" version="1.1">
	<path d="M 39.267 159.267 C 20.970 177.563, 6 193.056, 6 193.695 C 6 195.187, 8.799 198, 10.285 198 C 10.913 198, 25.506 183.947, 42.713 166.771 L 74 135.542 105.287 166.771 C 122.494 183.947, 137.029 198, 137.587 198 C 139.120 198, 141.004 195.796, 140.965 194.050 C 140.919 192.010, 75.941 125.935, 74.017 125.972 C 73.201 125.987, 57.563 140.970, 39.267 159.267 M 319.235 127.099 C 289.891 131.525, 266.445 155.583, 262.721 185.088 C 260.083 205.987, 266.947 225.772, 282.087 240.913 C 317.057 275.882, 376.016 262.086, 392.321 215.118 C 399.724 193.792, 395.602 169.739, 381.456 151.715 C 367.304 133.684, 341.985 123.667, 319.235 127.099 M 314 135.524 C 290.951 141.851, 274.130 160.585, 270.266 184.230 C 268.865 192.800, 268.868 194.580, 270.290 203.016 C 274.326 226.952, 291.592 245.721, 314.988 251.606 C 323.829 253.829, 340.071 253.068, 348.723 250.024 C 362.903 245.035, 375.475 233.929, 382.055 220.577 C 391.080 202.265, 391.080 184.735, 382.055 166.423 C 375.478 153.078, 362.927 141.986, 348.723 136.966 C 340.510 134.064, 322.103 133.299, 314 135.524 M 194.355 158.998 C 183.822 161.188, 174.117 169.138, 169.329 179.500 C 165.372 188.063, 165.372 198.937, 169.329 207.500 C 181.749 234.379, 218.029 235.724, 232.070 209.826 C 235.326 203.820, 235.500 202.994, 235.499 193.500 C 235.499 184.448, 235.227 182.979, 232.639 178 C 225.375 164.029, 209.073 155.938, 194.355 158.998 M 322.355 158.998 C 312.040 161.143, 302.046 169.099, 297.244 178.987 C 294.948 183.715, 294.567 185.781, 294.567 193.500 C 294.567 201.219, 294.948 203.285, 297.244 208.013 C 307.182 228.479, 331.763 234.661, 350.176 221.325 C 368.510 208.046, 368.435 179.033, 350.033 165.525 C 342.036 159.654, 331.336 157.131, 322.355 158.998 M 190.363 167.922 C 176.353 174.284, 169.844 190.813, 175.929 204.573 C 180.444 214.785, 188.341 220.126, 199.883 220.774 C 206.994 221.173, 207.926 220.979, 213.911 217.851 C 234.057 207.321, 234.024 179.164, 213.854 169.085 C 206.319 165.320, 197.100 164.863, 190.363 167.922 M 317.500 168.353 C 311.873 170.979, 305.871 177.089, 303.378 182.728 C 302.340 185.077, 301.711 189.141, 301.711 193.500 C 301.711 201.703, 303.431 206.254, 308.773 212.179 C 319.638 224.232, 338.403 224.034, 349.683 211.746 C 353.999 207.045, 357 199.561, 357 193.500 C 357 183.480, 349.989 172.797, 340.500 168.358 C 333.632 165.146, 324.377 165.144, 317.500 168.353 M 199.750 191.080 C 197.372 192.465, 197.542 195.685, 200.064 197.034 C 203.753 199.008, 206.819 194.219, 203.800 191.200 C 202.367 189.767, 202.022 189.757, 199.750 191.080 M 327.724 191.134 C 323.838 193.309, 327.294 198.983, 331.224 196.880 C 332.201 196.357, 333 195.061, 333 194 C 333 191.485, 330.005 189.858, 327.724 191.134 " stroke="none" fill="black" fill-rule="evenodd"/>
</svg>