<svg xmlns="http://www.w3.org/2000/svg" width="468" height="324" viewBox="0 0 468 324" version="1.1">
	<path d="M 55.571 63.571 C 54.707 64.436, 54 65.332, 54 65.564 C 54 67.123, 71.710 101.058, 72.727 101.449 C 73.427 101.717, 74.573 101.717, 75.273 101.449 C 77.129 100.736, 94.063 66.328, 93.403 64.609 C 92.732 62.858, 90.483 61.877, 88.705 62.560 C 87.993 62.833, 84.520 68.894, 80.986 76.028 C 77.453 83.163, 74.308 89, 73.997 89 C 73.687 89, 70.748 83.534, 67.467 76.853 C 59.925 61.499, 58.847 60.296, 55.571 63.571 M 199.267 159.267 L 166 192.533 166 225.695 C 166 254.509, 166.206 259.063, 167.571 260.429 C 168.968 261.825, 176.372 262, 234 262 C 291.628 262, 299.032 261.825, 300.429 260.429 C 301.794 259.063, 302 254.509, 302 225.695 L 302 192.533 268.733 159.267 C 250.437 140.970, 234.807 126, 234 126 C 233.193 126, 217.563 140.970, 199.267 159.267 M 354.344 126.991 C 340.860 129.822, 329.472 141.668, 326.910 155.531 C 326.025 160.316, 326.199 162.816, 328.003 171.241 C 333.824 198.427, 344.797 218.782, 364 238.017 C 373.649 247.682, 391.350 261, 394.547 261 C 395.211 261, 396.318 260.322, 397.005 259.494 C 397.693 258.666, 401.910 255.437, 406.378 252.320 C 428.327 237.004, 447.279 211.112, 455.286 185.500 C 459.744 171.240, 461.250 161.802, 460.077 155.460 C 457.973 144.076, 450.150 134.253, 439.175 129.216 C 431.165 125.539, 419.888 125.515, 411.954 129.157 C 405.265 132.227, 399.573 137.047, 396.005 142.662 L 393.360 146.824 391.503 143.377 C 388.873 138.492, 381.737 132.223, 375.675 129.472 C 369.777 126.794, 360.450 125.710, 354.344 126.991 M 351 135.824 C 348.525 136.746, 344.427 139.551, 341.894 142.058 C 335.775 148.114, 333.503 154.742, 334.365 164.020 C 335.753 178.951, 344.608 201.354, 355.185 216.693 C 362.082 226.695, 375.474 240.104, 385.282 246.829 L 393.055 252.158 397.520 249.541 C 408.326 243.208, 421.290 230.807, 431.180 217.342 C 442.596 201.799, 453 174.511, 453 160.113 C 453 145.950, 440.461 134.010, 425.572 133.995 C 410.952 133.981, 398 146.012, 398 159.607 C 398 162.970, 395.867 166, 393.500 166 C 391.133 166, 389 162.970, 389 159.607 C 389 149.949, 380.912 138.862, 371.537 135.667 C 365.401 133.576, 356.858 133.642, 351 135.824 M 203.744 165.756 L 174 195.512 174 224.756 L 174 254 234 254 L 294 254 294 224.744 L 294 195.487 264.244 165.744 C 247.878 149.385, 234.263 136, 233.988 136 C 233.713 136, 220.103 149.390, 203.744 165.756 M 103.571 159.571 C 102.707 160.436, 102 161.636, 102 162.239 C 102 162.841, 107.941 169.334, 115.202 176.667 L 128.405 190 68.774 190 C 15.897 190, 8.965 190.178, 7.571 191.571 C 5.598 193.545, 5.598 194.455, 7.571 196.429 C 8.965 197.822, 15.897 198, 68.774 198 L 128.405 198 115.202 211.333 C 107.941 218.666, 102 225.159, 102 225.761 C 102 227.187, 104.825 230, 106.257 230 C 108.006 230, 142 195.761, 142 194 C 142 192.239, 108.006 158, 106.257 158 C 105.644 158, 104.436 158.707, 103.571 159.571 " stroke="none" fill="black" fill-rule="evenodd"/>
</svg>