<svg xmlns="http://www.w3.org/2000/svg" width="244" height="324" viewBox="0 0 244 324" version="1.1">
	<path d="M 7.571 127.571 C 6.175 128.968, 6 136.372, 6 194 C 6 251.628, 6.175 259.032, 7.571 260.429 C 8.436 261.293, 9.666 262, 10.305 262 C 12.018 262, 78 195.721, 78 194 C 78 192.279, 12.018 126, 10.305 126 C 9.666 126, 8.436 126.707, 7.571 127.571 M 157.500 127.480 C 132.803 132.066, 113.445 149.121, 105.265 173.500 L 102.580 181.500 102.217 220.309 C 101.945 249.402, 102.153 259.480, 103.049 260.559 C 104.068 261.787, 113.884 261.998, 169.372 261.985 C 205.193 261.976, 235.097 261.591, 235.826 261.129 C 236.888 260.456, 237.130 253.663, 237.041 227.058 C 236.926 192.963, 236.290 183.576, 233.443 174 C 226.179 149.570, 204.083 130.751, 178.284 127.020 C 169.726 125.783, 166.223 125.861, 157.500 127.480 M 154.645 135.584 C 139.529 139.243, 123.614 151.871, 116.625 165.751 C 110.256 178.399, 110 180.468, 110 219.210 L 110 254 170 254 L 230 254 229.983 226.750 C 229.956 184.754, 228.082 173.921, 218.388 159.734 C 210.131 147.650, 197.937 139.175, 183.540 135.515 C 176.213 133.653, 162.488 133.685, 154.645 135.584 M 14 194 L 14 248.495 41.248 221.248 L 68.495 194 41.248 166.752 L 14 139.505 14 194 M 163.921 159.367 C 161.953 160.071, 159.382 161.319, 158.208 162.142 C 151.079 167.135, 147.580 179.474, 152.733 181.451 C 154.954 182.303, 158 178.740, 158 175.289 C 158 173.792, 159.355 171.445, 161.400 169.400 C 164.231 166.569, 165.533 166, 169.177 166 C 178.941 166, 184.196 175.962, 178.719 184.089 C 177.465 185.950, 175.102 187.872, 173.469 188.360 C 165.504 190.737, 166 189.869, 166 201.443 C 166 211.199, 166.152 212.011, 168.183 213.098 C 171.838 215.054, 174 211.284, 174 202.957 C 174 196.941, 174.244 196.057, 176.066 195.479 C 178.995 194.549, 184.840 189.210, 186.551 185.901 C 187.348 184.360, 188 180.580, 188 177.500 C 188 174.420, 187.348 170.640, 186.551 169.099 C 184.445 165.026, 178.628 160.268, 174.277 159.060 C 169.543 157.745, 168.360 157.780, 163.921 159.367 M 167.750 222.080 C 165.372 223.465, 165.542 226.685, 168.064 228.034 C 171.753 230.008, 174.819 225.219, 171.800 222.200 C 170.367 220.767, 170.022 220.757, 167.750 222.080 " stroke="none" fill="black" fill-rule="evenodd"/>
</svg>