<svg xmlns="http://www.w3.org/2000/svg" width="244" height="324" viewBox="0 0 244 324" version="1.1">
	<path d="M 7.750 159.080 C 6.138 160.019, 6 162.769, 6 194.015 C 6 226.522, 6.080 227.973, 7.934 228.965 C 9.154 229.617, 21.876 230, 42.363 230 C 70.570 230, 75.064 229.793, 76.429 228.429 C 77.793 227.064, 78 222.537, 78 194 C 78 165.463, 77.793 160.936, 76.429 159.571 C 75.063 158.206, 70.580 158.004, 42.179 158.030 C 21.849 158.049, 8.839 158.446, 7.750 159.080 M 14 194 L 14 222 42 222 L 70 222 70 194 L 70 166 42 166 L 14 166 14 194 M 103.008 191.491 C 99.879 195.260, 105.290 210.598, 112.301 217.834 C 126.547 232.538, 149.786 232.042, 163.545 216.739 C 167.492 212.349, 172 203.138, 172 199.462 C 172 198.213, 176.219 198, 201 198 L 230 198 230 228.965 C 230 259.475, 230.031 259.946, 232.117 261.062 C 236.718 263.525, 236.921 262.062, 237.040 225.605 C 237.128 198.461, 236.886 191.544, 235.825 190.871 C 235.096 190.409, 205.193 190.024, 169.372 190.015 C 112.865 190.002, 104.081 190.197, 103.008 191.491 M 110.599 200.750 C 112.443 208.705, 119.857 216.741, 127.872 219.472 C 143.199 224.694, 159.600 216.341, 163.976 201.084 L 164.860 198 137.411 198 L 109.962 198 110.599 200.750 " stroke="none" fill="black" fill-rule="evenodd"/>
</svg>