<svg xmlns="http://www.w3.org/2000/svg" width="468" height="324" viewBox="0 0 468 324" version="1.1">
	<path d="M 39.267 159.267 L 6 192.533 6 225.695 C 6 254.509, 6.206 259.063, 7.571 260.429 C 8.968 261.825, 16.372 262, 74 262 C 131.628 262, 139.032 261.825, 140.429 260.429 C 141.794 259.063, 142 254.509, 142 225.695 L 142 192.533 108.733 159.267 C 90.437 140.970, 74.807 126, 74 126 C 73.193 126, 57.563 140.970, 39.267 159.267 M 231.259 191.259 C 195.366 227.151, 166 257.044, 166 257.687 C 166 258.331, 166.707 259.564, 167.571 260.429 C 168.968 261.825, 176.372 262, 234 262 C 291.628 262, 299.032 261.825, 300.429 260.429 C 301.825 259.032, 302 251.628, 302 194 C 302 136.372, 301.825 128.968, 300.429 127.571 C 299.564 126.707, 298.331 126, 297.687 126 C 297.044 126, 267.151 155.366, 231.259 191.259 M 43.744 165.756 L 14 195.512 14 224.756 L 14 254 74 254 L 134 254 134 224.744 L 134 195.487 104.244 165.744 C 87.878 149.385, 74.263 136, 73.988 136 C 73.713 136, 60.103 149.390, 43.744 165.756 M 236.500 197 L 179.507 254 236.753 254 L 294 254 294 197 C 294 165.650, 293.886 140, 293.747 140 C 293.607 140, 267.846 165.650, 236.500 197 M 327.571 191.571 C 326.707 192.436, 326 193.529, 326 194 C 326 194.471, 326.707 195.564, 327.571 196.429 C 328.844 197.701, 331.697 198, 342.575 198 L 356.006 198 341.020 227.961 C 332.777 244.439, 326.285 258.580, 326.594 259.384 C 327.265 261.133, 329.512 262.125, 331.274 261.448 C 331.975 261.180, 339.056 247.919, 347.010 231.980 C 354.964 216.041, 361.717 203, 362.016 203 C 362.315 203, 369.042 216.034, 376.965 231.964 C 384.888 247.894, 391.962 261.155, 392.685 261.433 C 393.408 261.710, 394.592 261.710, 395.315 261.433 C 396.038 261.155, 403.112 247.894, 411.035 231.964 C 418.958 216.034, 425.685 203, 425.984 203 C 426.283 203, 433.036 216.041, 440.990 231.980 C 448.944 247.919, 456.025 261.180, 456.726 261.448 C 458.488 262.125, 460.735 261.133, 461.406 259.384 C 461.715 258.580, 455.223 244.439, 446.980 227.961 L 431.994 198 445.425 198 C 456.303 198, 459.156 197.701, 460.429 196.429 C 461.293 195.564, 462 194.471, 462 194 C 462 193.529, 461.293 192.436, 460.429 191.571 C 459.032 190.175, 451.628 190, 394 190 C 336.372 190, 328.968 190.175, 327.571 191.571 M 380.743 223.500 C 387.750 237.525, 393.715 249, 394 249 C 394.285 249, 400.250 237.525, 407.257 223.500 L 419.995 198 394 198 L 368.005 198 380.743 223.500 " stroke="none" fill="black" fill-rule="evenodd"/>
</svg>