<svg xmlns="http://www.w3.org/2000/svg" width="244" height="324" viewBox="0 0 244 324" version="1.1">
	<path d="M 103.571 127.571 C 102.175 128.968, 102 136.406, 102 194.371 C 102 243.771, 102.291 259.891, 103.200 260.800 C 104.607 262.207, 233.589 262.547, 235.792 261.150 C 236.827 260.493, 237.071 247.248, 237.021 194.431 C 236.955 123.627, 237.005 124.321, 232.117 126.938 L 230 128.070 230 191.035 L 230 254 170 254 L 110 254 110 191.571 C 110 136.152, 109.824 128.966, 108.429 127.571 C 107.564 126.707, 106.471 126, 106 126 C 105.529 126, 104.436 126.707, 103.571 127.571 M 34.223 159.062 C 24.045 161.068, 13.996 169.411, 9.216 179.825 C 5.512 187.894, 5.512 199.106, 9.216 207.175 C 20.136 230.966, 50.306 235.913, 67.545 216.739 C 85.211 197.090, 75.070 165.462, 49.147 159.360 C 42.857 157.880, 40.464 157.832, 34.223 159.062 M 31.054 167.728 C 25.018 169.859, 17.781 177.260, 15.667 183.463 C 9.122 202.673, 22.106 221.195, 41.928 220.924 C 44.993 220.882, 48.933 220.320, 50.684 219.674 C 61.521 215.679, 69 204.991, 69 193.500 C 69 182.009, 61.521 171.321, 50.684 167.326 C 46.195 165.671, 36.306 165.873, 31.054 167.728 " stroke="none" fill="black" fill-rule="evenodd"/>
</svg>