<svg xmlns="http://www.w3.org/2000/svg" width="244" height="324" viewBox="0 0 244 324" version="1.1">
	<path d="M 40.316 62.784 C 38.369 64.022, 22.007 97.855, 22.604 99.410 C 23.269 101.144, 25.524 102.120, 27.295 101.440 C 28.007 101.167, 31.480 95.106, 35.014 87.972 C 38.547 80.837, 41.691 75, 42 75 C 42.309 75, 45.453 80.837, 48.986 87.972 C 52.520 95.106, 55.993 101.167, 56.705 101.440 C 58.487 102.124, 60.732 101.141, 61.407 99.381 C 61.997 97.844, 45.582 64.037, 43.628 62.765 C 42.214 61.845, 41.789 61.847, 40.316 62.784 M 103.571 127.571 C 102.175 128.968, 102 136.406, 102 194.371 C 102 243.771, 102.291 259.891, 103.200 260.800 C 104.607 262.207, 233.589 262.547, 235.792 261.150 C 236.827 260.493, 237.071 247.248, 237.021 194.431 C 236.955 123.627, 237.005 124.321, 232.117 126.938 L 230 128.070 230 191.035 L 230 254 170 254 L 110 254 110 191.571 C 110 136.152, 109.824 128.966, 108.429 127.571 C 107.564 126.707, 106.471 126, 106 126 C 105.529 126, 104.436 126.707, 103.571 127.571 M 33.384 159.412 C 15.475 163.758, 3.559 181.807, 6.987 199.396 C 8.500 207.161, 12.212 214.019, 17.580 218.967 C 40.258 239.870, 76.252 224.246, 76.252 193.500 C 76.252 176.888, 65.367 163.178, 49.147 159.360 C 42.397 157.772, 40.111 157.779, 33.384 159.412 M 31.054 167.728 C 25.018 169.859, 17.781 177.260, 15.667 183.463 C 11.995 194.241, 14.382 205.477, 21.952 213.048 C 32.402 223.497, 49.888 223.773, 60.280 213.653 C 66.701 207.401, 68.500 202.989, 68.500 193.500 C 68.500 184.011, 66.701 179.599, 60.280 173.347 C 53.109 166.363, 41.332 164.099, 31.054 167.728 " stroke="none" fill="black" fill-rule="evenodd"/>
</svg>