<svg xmlns="http://www.w3.org/2000/svg" width="308" height="324" viewBox="0 0 308 324" version="1.1">
	<path d="M 63.102 127.104 C 37.582 130.982, 15.178 151.424, 8.414 177 C 6.134 185.626, 6.134 201.374, 8.414 210 C 11.688 222.378, 16.581 230.659, 26.461 240.539 C 40.473 254.551, 54.166 260.304, 73.500 260.304 C 92.217 260.304, 107.015 254.077, 120.500 240.527 C 133.957 227.005, 140 212.262, 140 192.953 C 140 174.668, 133.444 159.196, 120.095 145.981 C 104.892 130.930, 83.831 123.955, 63.102 127.104 M 231.750 127.047 C 230.787 127.626, 230 128.808, 230 129.673 C 230 130.539, 233.959 135.389, 238.799 140.451 C 254.050 156.404, 260.421 172.034, 260.421 193.500 C 260.421 214.443, 254.054 230.472, 239.720 245.614 L 231.782 254 200.825 254 C 181.398 254, 169.148 254.386, 167.934 255.035 C 166.870 255.605, 166 256.939, 166 258 C 166 259.061, 166.870 260.395, 167.934 260.965 C 170.607 262.395, 296.393 262.395, 299.066 260.965 C 301.554 259.633, 301.554 256.367, 299.066 255.035 C 297.947 254.437, 289.869 254, 279.911 254 L 262.690 254 268.750 250.083 C 276.484 245.085, 282.090 240.008, 286.480 234.027 C 311.650 199.739, 300.290 152.106, 262.500 133.472 C 251.968 128.279, 235.443 124.826, 231.750 127.047 M 57.500 135.870 C 37.436 141.645, 20.733 158.691, 15.585 178.644 C 13.554 186.517, 13.554 200.483, 15.585 208.356 C 20.838 228.716, 38.284 246.162, 58.644 251.415 C 65.760 253.251, 78.565 253.481, 86.201 251.910 C 89.115 251.310, 95.244 249.032, 99.820 246.847 C 124.843 234.900, 138.032 205.996, 131.003 178.511 C 125.680 157.698, 108.268 140.339, 87.897 135.537 C 79.386 133.531, 65.080 133.688, 57.500 135.870 M 246.193 136.785 C 246.912 137.767, 249.374 141.029, 251.665 144.035 C 257.201 151.299, 262.400 161.882, 265.198 171.585 C 268.475 182.949, 268.485 204.019, 265.219 215.341 C 262.168 225.915, 256.707 236.666, 250.308 244.696 C 247.394 248.352, 245.204 251.538, 245.441 251.775 C 246.440 252.773, 259.358 247.568, 265.113 243.849 C 274.241 237.949, 281.432 229.958, 286.055 220.577 C 295.080 202.265, 295.080 184.735, 286.055 166.423 C 279.455 153.031, 266.698 141.783, 252.779 137.083 C 245.257 134.542, 244.528 134.510, 246.193 136.785 " stroke="none" fill="black" fill-rule="evenodd"/>
</svg>