<svg xmlns="http://www.w3.org/2000/svg" width="244" height="324" viewBox="0 0 244 324" version="1.1">
	<path d="M 40.316 62.784 C 38.369 64.022, 22.007 97.855, 22.604 99.410 C 23.269 101.144, 25.524 102.120, 27.295 101.440 C 28.007 101.167, 31.480 95.106, 35.014 87.972 C 38.547 80.837, 41.691 75, 42 75 C 42.309 75, 45.453 80.837, 48.986 87.972 C 52.520 95.106, 55.993 101.167, 56.705 101.440 C 58.487 102.124, 60.732 101.141, 61.407 99.381 C 61.997 97.844, 45.582 64.037, 43.628 62.765 C 42.214 61.845, 41.789 61.847, 40.316 62.784 M 7.627 127.515 C 6.732 128.411, 6 129.529, 6 130 C 6 132.122, 9.426 134.001, 13.321 134.015 C 31.886 134.080, 53.672 148.320, 62.330 166.046 C 67.109 175.832, 69 183.615, 69 193.500 C 69 216.287, 56.113 237.059, 35.942 246.782 C 20.219 254.362, 20.001 253.662, 33.750 239.732 C 40.488 232.906, 46 226.831, 46 226.232 C 46 224.814, 43.173 222, 41.747 222 C 40.832 222, 9.293 252.228, 6.794 255.500 C 6.374 256.050, 6.024 257.161, 6.015 257.968 C 5.998 259.676, 40.001 294, 41.710 294 C 43.171 294, 46 291.201, 46 289.756 C 46 289.150, 39.682 282.283, 31.961 274.495 L 17.922 260.336 23.711 259.056 C 48.139 253.658, 68.853 233.443, 74.617 209.376 C 76.725 200.578, 76.725 186.422, 74.617 177.624 C 69.057 154.409, 49.247 134.354, 26.202 128.608 C 15.985 126.061, 9.466 125.677, 7.627 127.515 M 135.571 127.571 C 134.178 128.965, 134 135.897, 134 188.774 L 134 248.405 120.667 235.202 C 113.334 227.941, 106.841 222, 106.239 222 C 104.813 222, 102 224.825, 102 226.257 C 102 227.765, 136.114 262, 137.617 262 C 139.145 262, 172.390 228.392, 172.833 226.401 C 173.209 224.707, 171.289 222, 169.710 222 C 169.136 222, 162.666 227.941, 155.333 235.202 L 142 248.405 142 189.425 C 142 137.662, 141.810 130.173, 140.443 128.223 C 138.598 125.588, 137.678 125.465, 135.571 127.571 M 199.750 159.080 C 198.155 160.009, 198 162.388, 198 186.015 C 198 211.174, 198.060 211.962, 200.064 213.034 C 201.596 213.854, 202.498 213.832, 203.564 212.947 C 204.744 211.968, 205 207.174, 205 186.078 C 205 157.906, 204.671 156.214, 199.750 159.080 M 199.750 222.080 C 197.372 223.465, 197.542 226.685, 200.064 228.034 C 203.753 230.008, 206.819 225.219, 203.800 222.200 C 202.367 220.767, 202.022 220.757, 199.750 222.080 " stroke="none" fill="black" fill-rule="evenodd"/>
</svg>