<svg xmlns="http://www.w3.org/2000/svg" width="308" height="324" viewBox="0 0 308 324" version="1.1">
	<path d="M 71.750 127.057 C 68.708 128.869, 69.800 131.116, 77.265 138.406 C 93.097 153.867, 101.011 172.478, 100.993 194.208 C 100.976 214.887, 90.017 238.893, 75.183 250.750 L 71.117 254 40.130 254 C 13.293 254, 8.932 254.210, 7.571 255.571 C 5.596 257.546, 5.598 258.455, 7.579 260.436 C 8.990 261.847, 16.058 261.987, 74.220 261.757 C 134.934 261.517, 139.356 261.383, 140.386 259.750 C 141.191 258.474, 141.191 257.526, 140.387 256.250 C 139.413 254.704, 137.140 254.468, 120.895 254.226 L 102.506 253.953 108.003 250.837 C 115.871 246.378, 127.714 233.923, 132.264 225.323 C 142.612 205.765, 142.612 181.280, 132.264 161.652 C 126.889 151.456, 114.958 139.703, 104.500 134.303 C 93.046 128.390, 75.888 124.593, 71.750 127.057 M 223.531 127.067 C 201.361 130.469, 182.843 144.190, 173.007 164.500 C 163.889 183.326, 163.891 203.688, 173.010 222.500 C 192.782 263.284, 244.322 273.162, 278.516 242.722 C 295.560 227.549, 303.822 200.551, 298.211 178.363 C 293.013 157.807, 280.841 142.508, 262.500 133.477 C 250.509 127.573, 235.896 125.169, 223.531 127.067 M 218 135.520 C 207.677 138.347, 199.973 142.965, 191.394 151.467 C 179.126 163.624, 173.546 176.817, 173.614 193.500 C 173.683 210.479, 179.146 223.396, 191.394 235.533 C 200.307 244.366, 207.984 248.838, 218.988 251.606 C 227.829 253.829, 244.071 253.068, 252.723 250.024 C 266.903 245.035, 279.475 233.929, 286.055 220.577 C 295.080 202.265, 295.080 184.735, 286.055 166.423 C 279.478 153.078, 266.927 141.986, 252.723 136.966 C 244.518 134.066, 226.108 133.300, 218 135.520 M 90.498 142.085 C 114.030 172.543, 114.030 214.457, 90.498 244.915 L 84.880 252.185 88.190 251.538 C 95.649 250.079, 108.096 242.919, 114.950 236.146 C 144.236 207.204, 136.485 157.892, 99.863 140.159 C 95.263 137.932, 90.011 135.818, 88.190 135.462 L 84.880 134.815 90.498 142.085 M 215.239 159.260 C 205.758 168.754, 198 177.288, 198 178.225 C 198 179.163, 198.960 180.443, 200.132 181.071 C 202.079 182.113, 203.624 180.856, 217.882 166.624 L 233.500 151.037 249.152 166.606 C 263.334 180.713, 265.001 182.070, 266.902 181.052 C 268.056 180.435, 269 179.153, 269 178.204 C 269 176.410, 235.239 142, 233.479 142 C 232.929 142, 224.721 149.767, 215.239 159.260 " stroke="none" fill="black" fill-rule="evenodd"/>
</svg>