<svg xmlns="http://www.w3.org/2000/svg" width="403" height="324" viewBox="0 0 403 324" version="1.1">
	<path d="M 215.239 143.260 C 205.758 152.754, 198 161.288, 198 162.225 C 198 163.163, 198.959 164.443, 200.131 165.070 C 202.073 166.110, 203.495 164.981, 216.131 152.369 L 230 138.527 230 195.763 L 230 253 227.394 253 C 223.034 253, 213.031 250.036, 206.273 246.741 C 198.426 242.915, 188.480 233.968, 183.075 225.874 C 178.531 219.069, 174.008 206.044, 173.985 199.698 C 173.970 195.293, 172.288 190.917, 170.366 190.284 C 168.472 189.660, 166 192.961, 166 196.114 C 166 207.345, 173.174 226.028, 181.194 235.684 C 186.892 242.544, 196.463 250.122, 204.219 253.917 C 213.213 258.316, 232.003 262.295, 237.406 260.943 C 239.108 260.517, 243.425 259.654, 247 259.025 C 250.676 258.378, 257.589 255.908, 262.911 253.340 C 283.363 243.471, 298.234 221.937, 299.737 200.013 C 300.153 193.932, 299.949 192.203, 298.691 191.159 C 297.563 190.222, 296.595 190.147, 295.212 190.887 C 293.721 191.685, 293.152 193.453, 292.650 198.853 C 290.754 219.251, 277.867 238.099, 259.807 246.888 C 253.351 250.029, 243.379 253, 239.290 253 L 237 253 237 195.796 L 237 138.592 250.830 152.296 C 258.437 159.833, 265.132 166, 265.708 166 C 267.297 166, 269.208 163.291, 268.833 161.570 C 268.418 159.665, 235.028 126, 233.554 126 C 232.963 126, 224.721 133.767, 215.239 143.260 M 354.355 158.998 C 343.967 161.158, 334.148 168.927, 329.281 178.836 C 326.865 183.756, 326.500 185.681, 326.500 193.500 C 326.500 201.319, 326.865 203.244, 329.281 208.164 C 332.986 215.709, 339.097 221.651, 346.942 225.340 C 352.407 227.909, 354.531 228.358, 360.942 228.302 C 369.759 228.225, 375.267 226.443, 382.033 221.475 C 400.515 207.909, 400.515 179.091, 382.033 165.525 C 374.036 159.654, 363.336 157.131, 354.355 158.998 M 349.500 168.353 C 343.873 170.979, 337.871 177.089, 335.378 182.728 C 334.340 185.077, 333.711 189.141, 333.711 193.500 C 333.711 201.703, 335.431 206.254, 340.773 212.179 C 348.616 220.880, 361.913 223.582, 372.538 218.634 C 381.789 214.327, 389 203.316, 389 193.500 C 389 183.684, 381.789 172.673, 372.538 168.366 C 365.625 165.146, 356.382 165.141, 349.500 168.353 M 39.571 223.571 C 38.707 224.436, 38 225.636, 38 226.239 C 38 226.841, 43.941 233.334, 51.202 240.667 L 64.405 254 36.774 254 C 12.988 254, 8.924 254.219, 7.571 255.571 C 5.596 257.546, 5.598 258.455, 7.579 260.436 C 8.990 261.847, 16.058 261.987, 74.220 261.757 C 134.934 261.517, 139.356 261.383, 140.386 259.750 C 141.191 258.474, 141.191 257.526, 140.386 256.250 C 139.386 254.663, 136.698 254.475, 111.457 254.234 L 83.631 253.968 96.315 241.148 C 103.905 233.478, 109 227.539, 109 226.364 C 109 224.273, 107.241 222, 105.623 222 C 105.085 222, 97.750 228.844, 89.323 237.208 L 74 252.416 58.677 237.208 C 50.250 228.844, 42.857 222, 42.249 222 C 41.640 222, 40.436 222.707, 39.571 223.571 M 327.750 255.080 C 325.422 256.436, 325.524 259.675, 327.934 260.965 C 329.151 261.616, 341.608 262, 361.500 262 C 381.392 262, 393.849 261.616, 395.066 260.965 C 396.130 260.395, 397 259.061, 397 258 C 397 256.939, 396.130 255.605, 395.066 255.035 C 392.463 253.642, 330.147 253.684, 327.750 255.080 " stroke="none" fill="black" fill-rule="evenodd"/>
</svg>