<svg xmlns="http://www.w3.org/2000/svg" width="212" height="324" viewBox="0 0 212 324" version="1.1">
	<path d="M 33.384 127.412 C 15.475 131.758, 3.559 149.807, 6.987 167.396 C 8.559 175.464, 12.339 182.221, 18.261 187.545 C 22.898 191.714, 31.909 196, 36.038 196 C 37.946 196, 38 196.867, 38 227.429 C 38 254.667, 38.210 259.067, 39.571 260.429 C 41.431 262.288, 41.564 262.304, 44.066 260.965 C 45.575 260.157, 46 258.850, 46 255.014 C 46 234.711, 59.909 213.355, 79.101 204.191 C 88.014 199.935, 95.319 198, 102.478 198 C 105.126 198, 107.478 197.379, 108.429 196.429 C 110.418 194.439, 110.404 193.547, 108.348 191.491 C 107.007 190.150, 105.549 189.964, 100.598 190.503 C 78.729 192.884, 59.867 204.216, 49.093 221.446 L 46 226.392 46 211.307 L 46 196.223 49.750 195.527 C 59.158 193.783, 69.069 185.399, 73.811 175.175 C 77.548 167.118, 77.559 155.904, 73.837 147.880 C 68.882 137.199, 60.164 129.953, 49.147 127.360 C 42.397 125.772, 40.111 125.779, 33.384 127.412 M 31.054 135.728 C 25.018 137.859, 17.781 145.260, 15.667 151.463 C 11.995 162.241, 14.382 173.477, 21.952 181.048 C 34.788 193.884, 56.462 190.978, 65.751 175.176 C 68.200 171.011, 68.500 169.517, 68.500 161.500 C 68.500 153.483, 68.200 151.989, 65.751 147.824 C 58.801 136.001, 44.449 130.998, 31.054 135.728 M 163.270 159.013 C 152.488 161.246, 142.753 168.741, 137.957 178.500 C 135.845 182.799, 135.500 184.903, 135.500 193.500 C 135.500 205.344, 137.532 210.618, 144.957 218.043 C 162.534 235.620, 191.048 230.322, 201.698 207.500 C 204.036 202.491, 204.497 200.178, 204.489 193.500 C 204.482 186.855, 204.004 184.465, 201.666 179.390 C 194.913 164.727, 178.285 155.902, 163.270 159.013 M 160.316 167.266 C 149.333 171.522, 142 182.025, 142 193.500 C 142 205.574, 150.421 216.894, 161.769 220.074 C 171.523 222.808, 183.297 219.604, 190.196 212.339 C 199.500 202.542, 199.500 184.458, 190.196 174.661 C 184.885 169.068, 179.410 166.681, 171.117 166.343 C 166.693 166.163, 162.165 166.550, 160.316 167.266 M 136.200 255.200 C 135.540 255.860, 135 257.120, 135 258 C 135 261.835, 136.434 262, 169.766 262 C 190.164 262, 202.847 261.617, 204.066 260.965 C 205.130 260.395, 206 259.061, 206 258 C 206 256.939, 205.130 255.605, 204.066 255.035 C 201.157 253.478, 137.768 253.632, 136.200 255.200 " stroke="none" fill="black" fill-rule="evenodd"/>
</svg>