<svg xmlns="http://www.w3.org/2000/svg" width="180" height="324" viewBox="0 0 180 324" version="1.1">
	<path d="M 103.571 127.571 C 102.221 128.922, 102 132.924, 102 156.071 C 102 170.882, 101.801 183, 101.557 183 C 101.314 183, 99.596 182.104, 97.740 181.009 C 88.583 175.606, 75.239 173.158, 64.932 174.988 C 56.418 176.501, 45.374 182.024, 40.081 187.418 C 36.344 191.225, 35.950 192.037, 36.939 193.886 C 38.553 196.901, 40.686 196.517, 45.255 192.388 C 47.454 190.402, 52.234 187.364, 55.877 185.638 C 61.993 182.740, 63.304 182.500, 73 182.500 C 82.401 182.500, 84.124 182.792, 89.458 185.290 C 92.735 186.824, 96.897 189.210, 98.708 190.591 L 102 193.102 102 220.753 L 102 248.405 88.667 235.202 C 81.334 227.941, 74.841 222, 74.239 222 C 72.813 222, 70 224.825, 70 226.257 C 70 228.006, 104.239 262, 106 262 C 107.761 262, 142 228.006, 142 226.257 C 142 224.825, 139.187 222, 137.761 222 C 137.159 222, 130.666 227.941, 123.333 235.202 L 110 248.405 110 225.202 C 110 212.441, 110.338 202.014, 110.750 202.032 C 111.162 202.049, 112.353 202.709, 113.396 203.499 C 120.688 209.019, 140.160 211.131, 151 207.577 C 161.672 204.079, 172 196.646, 172 192.464 C 172 188.434, 168.557 188.410, 163.681 192.406 C 161.304 194.353, 156.692 197.195, 153.430 198.723 C 148.127 201.206, 146.389 201.500, 137 201.500 C 127.584 201.500, 125.881 201.210, 120.503 198.692 C 109.193 193.397, 110 196.339, 110 160.397 C 110 133.317, 109.790 128.933, 108.429 127.571 C 107.564 126.707, 106.471 126, 106 126 C 105.529 126, 104.436 126.707, 103.571 127.571 M 7.571 191.571 C 6.707 192.436, 6 193.529, 6 194 C 6 195.111, 8.889 198, 10 198 C 11.111 198, 14 195.111, 14 194 C 14 192.889, 11.111 190, 10 190 C 9.529 190, 8.436 190.707, 7.571 191.571 " stroke="none" fill="black" fill-rule="evenodd"/>
</svg>