<svg xmlns="http://www.w3.org/2000/svg" width="180" height="324" viewBox="0 0 180 324" version="1.1">
	<path d="M 71.571 127.571 C 70.178 128.965, 70 135.899, 70 188.799 L 70 248.455 40.711 219.227 C 24.602 203.152, 10.909 190, 10.282 190 C 8.807 190, 6 192.810, 6 194.287 C 6 196.056, 72.253 262, 74.030 262 C 77.992 262, 78 261.862, 78 194.371 C 78 136.406, 77.825 128.968, 76.429 127.571 C 75.564 126.707, 74.471 126, 74 126 C 73.529 126, 72.436 126.707, 71.571 127.571 M 119.213 143.315 C 109.746 152.838, 102 161.131, 102 161.743 C 102 163.175, 104.813 166, 106.239 166 C 106.841 166, 113.334 160.059, 120.667 152.798 L 134 139.595 134 199.226 C 134 252.103, 134.178 259.035, 135.571 260.429 C 136.436 261.293, 137.529 262, 138 262 C 138.471 262, 139.564 261.293, 140.429 260.429 C 141.822 259.035, 142 252.103, 142 199.226 L 142 139.595 155.333 152.798 C 162.666 160.059, 169.159 166, 169.761 166 C 171.187 166, 174 163.175, 174 161.743 C 174 159.994, 139.761 126, 138 126 C 137.134 126, 128.680 133.792, 119.213 143.315 " stroke="none" fill="black" fill-rule="evenodd"/>
</svg>