<svg xmlns="http://www.w3.org/2000/svg" width="628" height="324" viewBox="0 0 628 324" version="1.1">
	<path d="M 359.244 159.256 L 326 192.511 326 226.056 C 326 250.812, 326.314 259.914, 327.200 260.800 C 328.109 261.709, 344.229 262, 393.629 262 C 451.594 262, 459.032 261.825, 460.429 260.429 C 461.794 259.063, 462 254.509, 462 225.695 L 462 192.533 428.733 159.267 C 410.437 140.970, 394.797 126, 393.978 126 C 393.159 126, 377.529 140.965, 359.244 159.256 M 541.500 127.418 C 513.871 132.792, 493.188 153.045, 487.589 180.208 C 485.542 190.139, 485.210 258.810, 487.200 260.800 C 488.621 262.221, 617.599 262.540, 619.826 261.129 C 620.888 260.456, 621.130 253.663, 621.041 227.058 C 620.926 192.963, 620.290 183.576, 617.443 174 C 612.654 157.893, 599.395 141.902, 584.500 134.271 C 570.732 127.217, 555.233 124.747, 541.500 127.418 M 538.788 135.551 C 518.489 140.473, 500.896 157.943, 495.543 178.495 C 494.295 183.286, 494 191.077, 494 219.210 L 494 254 554 254 L 614 254 613.992 226.750 C 613.983 196.440, 613.053 184.834, 609.812 174.550 C 607.117 166.002, 599.612 154.565, 592.769 148.579 C 586.651 143.227, 575.777 137.594, 567.540 135.509 C 560.252 133.664, 546.489 133.684, 538.788 135.551 M 363.744 165.756 L 334 195.512 334 224.756 L 334 254 394 254 L 454 254 454 224.744 L 454 195.487 424.244 165.744 C 407.878 149.385, 394.263 136, 393.988 136 C 393.713 136, 380.103 149.390, 363.744 165.756 M 263.571 159.571 C 262.707 160.436, 262 161.636, 262 162.239 C 262 162.841, 267.941 169.334, 275.202 176.667 L 288.405 190 228.774 190 C 175.897 190, 168.965 190.178, 167.571 191.571 C 165.598 193.545, 165.598 194.455, 167.571 196.429 C 168.965 197.822, 175.897 198, 228.774 198 L 288.405 198 275.202 211.333 C 267.941 218.666, 262 225.159, 262 225.761 C 262 227.202, 264.832 230, 266.290 230 C 267.969 230, 302 195.693, 302 194 C 302 192.307, 267.969 158, 266.290 158 C 265.659 158, 264.436 158.707, 263.571 159.571 M 39.571 223.571 C 38.707 224.436, 38 225.636, 38 226.239 C 38 226.841, 43.941 233.334, 51.202 240.667 L 64.405 254 36.774 254 C 12.988 254, 8.924 254.219, 7.571 255.571 C 5.598 257.545, 5.598 258.455, 7.571 260.429 C 8.968 261.825, 16.372 262, 74 262 C 131.628 262, 139.032 261.825, 140.429 260.429 C 142.402 258.455, 142.402 257.545, 140.429 255.571 C 139.076 254.219, 135.012 254, 111.226 254 L 83.595 254 96.798 240.667 C 104.059 233.334, 110 226.841, 110 226.239 C 110 224.817, 107.176 222, 105.751 222 C 105.143 222, 97.750 228.844, 89.323 237.208 L 74 252.416 58.677 237.208 C 50.250 228.844, 42.857 222, 42.249 222 C 41.640 222, 40.436 222.707, 39.571 223.571 " stroke="none" fill="black" fill-rule="evenodd"/>
</svg>