<svg xmlns="http://www.w3.org/2000/svg" width="244" height="324" viewBox="0 0 244 324" version="1.1">
	<path d="M 63.057 127.110 C 55.086 128.320, 43.567 132.853, 36.433 137.588 C 28.286 142.996, 17.869 154.723, 13.687 163.194 C 7.634 175.456, 4.322 193.179, 7.491 196.348 C 9.547 198.404, 10.439 198.418, 12.429 196.429 C 13.404 195.453, 14.006 193.082, 14.015 190.179 C 14.077 170.546, 28.030 149.400, 47 140.191 C 51.675 137.922, 57.300 135.771, 59.500 135.411 L 63.500 134.757 50.750 147.714 C 43.737 154.841, 38 161.164, 38 161.765 C 38 163.179, 40.823 166, 42.239 166 C 42.841 166, 49.334 160.059, 56.667 152.798 L 70 139.595 70 199.226 C 70 252.103, 70.178 259.035, 71.571 260.429 C 73.545 262.402, 74.455 262.402, 76.429 260.429 C 77.822 259.035, 78 252.103, 78 199.226 L 78 139.595 91.333 152.798 C 98.666 160.059, 105.159 166, 105.761 166 C 107.177 166, 110 163.179, 110 161.765 C 110 161.164, 104.263 154.837, 97.250 147.707 C 83.643 133.870, 83.601 133.634, 95.526 138.096 C 107.615 142.619, 119.694 153.321, 125.943 165.044 C 129.516 171.748, 133 184.359, 133 190.589 C 133 194.612, 134.851 198, 137.048 198 C 137.546 198, 138.587 196.988, 139.360 195.750 C 140.454 194, 140.582 191.869, 139.935 186.164 C 136.832 158.798, 116.692 135.370, 90.483 128.639 C 82.408 126.565, 70.881 125.923, 63.057 127.110 M 232 126.956 C 231.175 127.449, 215.878 157.136, 198.006 192.927 C 171.220 246.569, 165.705 258.309, 166.615 259.751 C 167.630 261.360, 170.421 261.500, 201.500 261.500 C 232.586 261.500, 235.370 261.360, 236.386 259.750 C 237.191 258.474, 237.191 257.526, 236.386 256.250 C 235.382 254.658, 232.613 254.476, 205.647 254.235 L 176.012 253.970 206.506 192.988 C 223.278 159.448, 237 131.195, 237 130.203 C 237 128.485, 235.219 125.966, 234.050 126.030 C 233.748 126.047, 232.825 126.464, 232 126.956 " stroke="none" fill="black" fill-rule="evenodd"/>
</svg>