<svg xmlns="http://www.w3.org/2000/svg" width="308" height="324" viewBox="0 0 308 324" version="1.1">
	<path d="M 40.316 62.784 C 38.369 64.022, 22.007 97.855, 22.604 99.410 C 23.269 101.144, 25.524 102.120, 27.295 101.440 C 28.007 101.167, 31.480 95.106, 35.014 87.972 C 38.547 80.837, 41.691 75, 42 75 C 42.309 75, 45.453 80.837, 48.986 87.972 C 52.520 95.106, 56.076 101.199, 56.889 101.511 C 57.701 101.823, 59.219 101.225, 60.261 100.183 C 62.121 98.324, 61.994 97.966, 53.456 80.894 C 44.033 62.053, 43.222 60.935, 40.316 62.784 M 7.571 127.571 C 6.175 128.968, 6 136.372, 6 194 C 6 251.628, 6.175 259.032, 7.571 260.429 C 8.436 261.293, 9.666 262, 10.305 262 C 12.018 262, 78 195.721, 78 194 C 78 192.279, 12.018 126, 10.305 126 C 9.666 126, 8.436 126.707, 7.571 127.571 M 14 194 L 14 248.495 41.248 221.248 L 68.495 194 41.248 166.752 L 14 139.505 14 194 M 226.355 158.998 C 216.139 161.122, 205.181 170.013, 200.788 179.741 C 197.728 186.517, 197.735 200.498, 200.801 207.291 C 204.026 214.435, 211.927 222.244, 219.278 225.553 C 233.296 231.863, 251.340 227.420, 260.508 215.400 C 275.051 196.334, 267.202 168.333, 245.132 160.547 C 239.788 158.661, 231.330 157.964, 226.355 158.998 M 222 168.079 C 216.134 170.731, 211.447 175.296, 208.222 181.500 C 206.130 185.523, 205.629 187.867, 205.657 193.500 C 205.782 219.084, 236.302 230.679, 253.683 211.746 C 257.999 207.045, 261 199.561, 261 193.500 C 261 183.480, 253.989 172.797, 244.500 168.358 C 237.952 165.296, 228.417 165.177, 222 168.079 M 103.571 191.571 C 102.707 192.436, 102 193.640, 102 194.249 C 102 194.857, 108.844 202.250, 117.208 210.677 L 132.416 226 117.208 241.323 C 108.844 249.750, 102 257.143, 102 257.751 C 102 258.967, 104.736 262, 105.834 262 C 106.213 262, 113.482 255.031, 121.987 246.514 L 137.449 231.027 153.045 246.514 C 161.623 255.031, 169.082 262, 169.621 262 C 171.106 262, 173 259.793, 173 258.062 C 173 257.216, 166.143 249.656, 157.762 241.262 L 142.524 226 157.762 210.738 C 166.143 202.344, 173 194.784, 173 193.938 C 173 192.207, 171.106 190, 169.621 190 C 169.082 190, 161.623 196.969, 153.045 205.486 L 137.449 220.973 121.987 205.486 C 113.482 196.969, 106.213 190, 105.834 190 C 105.454 190, 104.436 190.707, 103.571 191.571 M 231.750 191.080 C 229.372 192.465, 229.542 195.685, 232.064 197.034 C 235.753 199.008, 238.819 194.219, 235.800 191.200 C 234.367 189.767, 234.022 189.757, 231.750 191.080 M 295.724 191.134 C 291.838 193.309, 295.294 198.983, 299.224 196.880 C 300.201 196.357, 301 195.061, 301 194 C 301 191.485, 298.005 189.858, 295.724 191.134 " stroke="none" fill="black" fill-rule="evenodd"/>
</svg>