<svg xmlns="http://www.w3.org/2000/svg" width="340" height="324" viewBox="0 0 340 324" version="1.1">
	<path d="M 72.316 62.784 C 70.369 64.022, 54.007 97.855, 54.604 99.410 C 55.269 101.144, 57.524 102.120, 59.295 101.440 C 60.007 101.167, 63.480 95.106, 67.014 87.972 C 70.547 80.837, 73.691 75, 74 75 C 74.309 75, 77.453 80.837, 80.986 87.972 C 84.520 95.106, 87.993 101.167, 88.705 101.440 C 90.487 102.124, 92.732 101.141, 93.407 99.381 C 93.997 97.844, 77.582 64.037, 75.628 62.765 C 74.214 61.845, 73.789 61.847, 72.316 62.784 M 7.571 127.571 C 6.175 128.968, 6 136.372, 6 194 C 6 251.628, 6.175 259.032, 7.571 260.429 C 8.436 261.293, 9.529 262, 10 262 C 10.471 262, 11.564 261.293, 12.429 260.429 C 13.788 259.069, 14 254.758, 14 228.429 L 14 198 71.202 198 L 128.405 198 115.202 211.333 C 107.941 218.666, 102 225.159, 102 225.761 C 102 227.202, 104.832 230, 106.290 230 C 107.969 230, 142 195.693, 142 194 C 142 192.307, 107.969 158, 106.290 158 C 104.832 158, 102 160.798, 102 162.239 C 102 162.841, 107.941 169.334, 115.202 176.667 L 128.405 190 71.202 190 L 14 190 14 159.571 C 14 133.242, 13.788 128.931, 12.429 127.571 C 11.564 126.707, 10.471 126, 10 126 C 9.529 126, 8.436 126.707, 7.571 127.571 M 194.344 126.988 C 184.010 129.166, 173.930 137.366, 169.417 147.266 C 165.361 156.161, 165.361 166.839, 169.417 175.734 C 174.004 185.795, 186.968 195.961, 195.250 195.990 L 198 196 198 227.429 C 198 254.667, 198.210 259.067, 199.571 260.429 C 201.678 262.535, 202.598 262.412, 204.443 259.777 C 205.770 257.884, 206 253.037, 206.001 227.027 L 206.003 196.500 211.778 194.803 C 218.931 192.701, 224.912 188.457, 229.464 182.252 C 234.623 175.220, 236.267 169.402, 235.840 159.690 C 235.396 149.603, 232.770 143.678, 225.518 136.404 C 217.736 128.597, 204.983 124.745, 194.344 126.988 M 279.239 143.260 C 269.758 152.754, 262 161.288, 262 162.225 C 262 163.163, 262.959 164.443, 264.131 165.070 C 266.073 166.110, 267.495 164.981, 280.131 152.369 L 294 138.527 294 199.228 C 294 259.533, 294.013 259.937, 296.064 261.034 C 301.059 263.708, 301 264.453, 301 199.174 L 301 138.592 314.830 152.296 C 322.437 159.833, 329.132 166, 329.708 166 C 331.297 166, 333.208 163.291, 332.833 161.570 C 332.418 159.665, 299.028 126, 297.554 126 C 296.963 126, 288.721 133.767, 279.239 143.260 M 191.627 135.468 C 186.247 137.386, 181.039 141.829, 177.500 147.519 C 174.969 151.589, 174.444 153.570, 174.143 160.193 C 173.830 167.089, 174.110 168.705, 176.454 173.496 C 181.309 183.419, 190.653 189.078, 201.928 188.924 C 212.142 188.784, 220.647 183.739, 225.500 174.939 C 228.130 170.171, 228.500 168.513, 228.500 161.500 C 228.500 154.487, 228.130 152.829, 225.500 148.061 C 222.429 142.492, 216.651 137.526, 210.684 135.326 C 206.327 133.720, 196.323 133.794, 191.627 135.468 " stroke="none" fill="black" fill-rule="evenodd"/>
</svg>