<svg xmlns="http://www.w3.org/2000/svg" width="244" height="324" viewBox="0 0 244 324" version="1.1">
	<path d="M 7.571 127.571 C 6.175 128.968, 6 136.372, 6 194 C 6 251.628, 6.175 259.032, 7.571 260.429 C 8.936 261.793, 13.463 262, 42 262 C 70.537 262, 75.064 261.793, 76.429 260.429 C 77.825 259.032, 78 251.628, 78 194 C 78 136.372, 77.825 128.968, 76.429 127.571 C 75.064 126.207, 70.537 126, 42 126 C 13.463 126, 8.936 126.207, 7.571 127.571 M 198.667 127.667 C 196.938 129.395, 198.599 132.092, 205.791 139.233 C 215.040 148.418, 220.956 157.872, 225.264 170.352 C 228.187 178.820, 228.424 180.503, 228.461 193 C 228.505 208.142, 226.798 215.601, 220.461 227.957 C 215.246 238.127, 211.607 242.711, 201.141 252.290 C 198.863 254.375, 197 256.480, 197 256.969 C 197 258.121, 199.881 261, 201.034 261 C 202.869 261, 212.686 252.153, 217.744 245.940 C 237.591 221.567, 241.756 185.811, 228.045 157.500 C 219.658 140.182, 203.034 123.300, 198.667 127.667 M 14 194 L 14 254 42 254 L 70 254 70 194 L 70 134 42 134 L 14 134 14 194 M 130.355 158.986 C 119.790 161.214, 110.114 169.146, 105.329 179.500 C 101.350 188.111, 101.383 198.888, 105.417 207.734 C 108.868 215.303, 115.786 222.097, 123.762 225.749 C 134.621 230.720, 149.912 228.650, 159.255 220.944 C 163.885 217.124, 168.590 210.408, 170.591 204.761 C 172.855 198.369, 172.544 187.529, 169.893 180.443 C 164.319 165.546, 146.109 155.663, 130.355 158.986 M 127.385 167.617 C 121.434 169.728, 115.520 175.237, 112.434 181.546 C 110.033 186.454, 109.794 187.879, 110.200 194.887 C 110.723 203.932, 113.506 209.799, 119.693 214.898 C 131.673 224.773, 151.308 222.193, 159.736 209.636 C 169.558 195.004, 165.098 176.702, 149.854 169.085 C 142.817 165.568, 134.664 165.036, 127.385 167.617 " stroke="none" fill="black" fill-rule="evenodd"/>
</svg>