<svg xmlns="http://www.w3.org/2000/svg" width="244" height="324" viewBox="0 0 244 324" version="1.1">
	<path d="M 230.750 127.080 C 229.514 127.800, 229 129.359, 229 132.390 C 229 139.079, 225.370 151.641, 221.340 158.899 C 219.324 162.529, 214.708 168.425, 211.082 172 C 201.113 181.829, 189.890 187.134, 175.224 188.951 C 145.935 192.580, 135.344 196.844, 121.939 210.407 C 111.066 221.408, 105.350 232.966, 102.937 248.827 C 101.684 257.065, 102.167 260.467, 104.733 261.451 C 107.507 262.516, 110 258.563, 110 253.099 C 110 235.141, 124.165 213.434, 141.587 204.694 C 149.641 200.654, 158.875 198, 164.880 198 C 167.130 198, 170.890 197.562, 173.236 197.027 C 175.581 196.491, 180.425 195.509, 184 194.843 C 187.643 194.165, 194.425 191.671, 199.431 189.169 C 215.881 180.949, 228.500 165.667, 233.719 147.649 C 236.191 139.114, 236.719 129.119, 234.800 127.200 C 233.367 125.767, 233.022 125.757, 230.750 127.080 M 7.571 191.571 C 6.707 192.436, 6 193.640, 6 194.249 C 6 194.857, 12.844 202.250, 21.208 210.677 L 36.416 226 21.208 241.323 C 12.844 249.750, 6 257.143, 6 257.751 C 6 259.181, 8.819 262, 10.249 262 C 10.857 262, 18.250 255.156, 26.677 246.792 L 42 231.584 57.323 246.792 C 65.750 255.156, 73.143 262, 73.751 262 C 75.181 262, 78 259.181, 78 257.751 C 78 257.143, 71.156 249.750, 62.792 241.323 L 47.584 226 62.792 210.677 C 71.156 202.250, 78 194.857, 78 194.249 C 78 192.819, 75.181 190, 73.751 190 C 73.143 190, 65.750 196.844, 57.323 205.208 L 42 220.416 26.677 205.208 C 18.250 196.844, 10.857 190, 10.249 190 C 9.640 190, 8.436 190.707, 7.571 191.571 " stroke="none" fill="black" fill-rule="evenodd"/>
</svg>