<svg xmlns="http://www.w3.org/2000/svg" width="564" height="324" viewBox="0 0 564 324" version="1.1">
	<path d="M 7.571 127.571 C 6.175 128.968, 6 136.372, 6 194 C 6 251.628, 6.175 259.032, 7.571 260.429 C 8.936 261.793, 13.463 262, 42 262 C 70.537 262, 75.064 261.793, 76.429 260.429 C 77.825 259.032, 78 251.628, 78 194 C 78 136.372, 77.825 128.968, 76.429 127.571 C 75.064 126.207, 70.537 126, 42 126 C 13.463 126, 8.936 126.207, 7.571 127.571 M 157.500 127.401 C 142.645 130.266, 131.144 136.774, 120.168 148.528 C 109.839 159.588, 104.206 172.225, 102.499 188.168 C 101.924 193.530, 102.094 194.951, 103.473 196.330 C 105.547 198.404, 106.435 198.422, 108.429 196.429 C 109.379 195.478, 110 193.126, 110 190.478 C 110 183.319, 111.935 176.014, 116.191 167.101 C 125.799 146.979, 146.702 134, 169.500 134 C 185.651 134, 200.089 139.992, 211.548 151.452 C 221.988 161.891, 229 177.436, 229 190.139 C 229 198.197, 228.216 198, 260.274 198 L 288.405 198 275.202 211.333 C 267.941 218.666, 262 225.159, 262 225.761 C 262 227.187, 264.825 230, 266.257 230 C 268.006 230, 302 195.761, 302 194 C 302 192.239, 268.006 158, 266.257 158 C 264.825 158, 262 160.813, 262 162.239 C 262 162.841, 267.941 169.334, 275.202 176.667 L 288.405 190 262.770 190 C 233.910 190, 236.759 190.888, 235.495 181.500 C 232.359 158.197, 210.738 134.824, 186.500 128.533 C 177.877 126.295, 165.699 125.820, 157.500 127.401 M 14 194 L 14 254 42 254 L 70 254 70 194 L 70 134 42 134 L 14 134 14 194 M 519.282 159.282 C 509.777 168.787, 502 177.079, 502 177.710 C 502 179.139, 504.786 182, 506.178 182 C 506.747 182, 510.557 178.757, 514.645 174.794 L 522.077 167.588 533.283 178.794 L 544.489 190 484.816 190 C 431.901 190, 424.965 190.178, 423.571 191.571 C 420.148 194.995, 423.242 198, 430.190 198 L 435.237 198 432.059 201.250 C 430.311 203.037, 427.467 207.370, 425.740 210.877 C 422.989 216.464, 422.600 218.277, 422.600 225.500 C 422.600 232.734, 422.988 234.533, 425.762 240.168 C 429.752 248.274, 434.695 253.232, 442.726 257.186 C 447.971 259.768, 450.270 260.305, 456.272 260.349 C 460.247 260.378, 465.351 259.861, 467.613 259.199 C 474.279 257.250, 482.433 251.249, 486.139 245.563 L 489.500 240.408 492.134 244.556 C 495.857 250.418, 499.560 253.614, 506.772 257.188 C 511.986 259.772, 514.261 260.305, 520.272 260.349 C 524.247 260.378, 529.351 259.861, 531.613 259.199 C 538.425 257.207, 546.390 251.278, 550.369 245.234 C 555.010 238.188, 556.415 233.261, 556.349 224.272 C 556.305 218.281, 555.767 215.969, 553.208 210.772 C 551.509 207.322, 548.689 203.037, 546.941 201.250 L 543.763 198 549.310 198 C 554.753 198, 558 196.412, 558 193.751 C 558 193.143, 551.165 185.759, 542.812 177.343 L 527.623 162.040 534.812 154.626 C 538.765 150.549, 542 146.747, 542 146.178 C 542 144.786, 539.139 142, 537.710 142 C 537.079 142, 528.787 149.777, 519.282 159.282 M 327.571 191.571 C 326.707 192.436, 326 193.640, 326 194.249 C 326 194.857, 332.844 202.250, 341.208 210.677 L 356.416 226 341.208 241.323 C 332.844 249.750, 326 257.143, 326 257.751 C 326 259.181, 328.819 262, 330.249 262 C 330.857 262, 338.250 255.156, 346.677 246.792 L 362 231.584 377.323 246.792 C 385.750 255.156, 393.143 262, 393.751 262 C 395.181 262, 398 259.181, 398 257.751 C 398 257.143, 391.156 249.750, 382.792 241.323 L 367.584 226 382.792 210.677 C 391.156 202.250, 398 194.857, 398 194.249 C 398 192.819, 395.181 190, 393.751 190 C 393.143 190, 385.750 196.844, 377.323 205.208 L 362 220.416 346.677 205.208 C 338.250 196.844, 330.857 190, 330.249 190 C 329.640 190, 328.436 190.707, 327.571 191.571 M 448.500 199.326 C 439.842 202.714, 439.821 202.273, 449.103 211.603 L 457.457 220.001 465.692 211.809 C 471.755 205.778, 473.656 203.291, 472.902 202.381 C 469.818 198.666, 454.946 196.804, 448.500 199.326 M 481.926 200.145 C 483.192 201.325, 485.446 204.211, 486.934 206.557 L 489.640 210.824 491.443 207.476 C 492.435 205.635, 494.594 202.749, 496.242 201.064 L 499.237 198 489.430 198 L 479.623 198 481.926 200.145 M 512.500 199.326 C 503.842 202.714, 503.821 202.273, 513.103 211.603 L 521.457 220.001 529.692 211.809 C 535.755 205.778, 537.656 203.291, 536.902 202.381 C 533.818 198.666, 518.946 196.804, 512.500 199.326 M 434.184 210.278 C 430.139 215.152, 428.867 227.319, 431.573 235.260 C 434.178 242.906, 434.711 242.838, 443.809 233.692 L 452.001 225.457 443.671 217.170 C 436.854 210.389, 435.131 209.137, 434.184 210.278 M 471.191 217.308 L 462.999 225.543 471.339 233.840 L 479.680 242.137 481.174 239.819 C 485.239 233.513, 486.153 223.740, 483.427 215.740 C 480.822 208.094, 480.289 208.162, 471.191 217.308 M 498.184 210.278 C 494.139 215.152, 492.867 227.319, 495.573 235.260 C 498.178 242.906, 498.711 242.838, 507.809 233.692 L 516.001 225.457 507.671 217.170 C 500.854 210.389, 499.131 209.137, 498.184 210.278 M 535.191 217.308 L 526.999 225.543 535.339 233.840 L 543.680 242.137 545.174 239.819 C 549.239 233.513, 550.153 223.740, 547.427 215.740 C 544.822 208.094, 544.289 208.162, 535.191 217.308 M 449.160 239.339 L 440.863 247.680 443.181 249.174 C 449.487 253.239, 459.260 254.153, 467.260 251.427 C 474.906 248.822, 474.838 248.289, 465.692 239.191 L 457.457 230.999 449.160 239.339 M 513.160 239.339 L 504.863 247.680 507.181 249.174 C 513.487 253.239, 523.260 254.153, 531.260 251.427 C 538.906 248.822, 538.838 248.289, 529.692 239.191 L 521.457 230.999 513.160 239.339 " stroke="none" fill="black" fill-rule="evenodd"/>
</svg>