<svg xmlns="http://www.w3.org/2000/svg" width="244" height="324" viewBox="0 0 244 324" version="1.1">
	<path d="M 64.500 126.944 C 56.325 128.268, 50.930 129.991, 43 133.814 C 32.444 138.903, 18.927 152.404, 13.778 163 C 7.648 175.615, 4.334 193.191, 7.491 196.348 C 9.547 198.404, 10.439 198.418, 12.429 196.429 C 13.404 195.453, 14.006 193.082, 14.015 190.179 C 14.077 170.546, 28.030 149.400, 47 140.191 C 51.675 137.922, 57.300 135.771, 59.500 135.411 L 63.500 134.757 50.750 147.714 C 43.737 154.841, 38 161.164, 38 161.765 C 38 163.179, 40.823 166, 42.239 166 C 42.841 166, 49.334 160.059, 56.667 152.798 L 70 139.595 70 199.226 C 70 252.103, 70.178 259.035, 71.571 260.429 C 73.545 262.402, 74.455 262.402, 76.429 260.429 C 77.822 259.035, 78 252.103, 78 199.226 L 78 139.595 91.333 152.798 C 98.666 160.059, 105.121 166, 105.678 166 C 106.856 166, 110 162.732, 110 161.507 C 110 161.048, 104.263 154.848, 97.250 147.730 C 85.264 135.565, 84.710 134.831, 88 135.483 C 89.925 135.865, 95.280 137.983, 99.899 140.190 C 110.084 145.055, 120.730 155.131, 125.780 164.686 C 129.503 171.731, 133 184.277, 133 190.589 C 133 194.538, 134.844 198, 136.949 198 C 139.096 198, 140.311 194.526, 140.110 188.962 C 139.131 161.814, 117.558 135.592, 90.483 128.639 C 82.858 126.681, 70.933 125.903, 64.500 126.944 M 232.207 126.677 C 231.495 126.962, 227.135 134.743, 222.517 143.967 L 214.120 160.738 208.810 159.330 C 193.630 155.303, 176.456 164.076, 169.329 179.500 C 167.035 184.465, 166.554 186.881, 166.546 193.500 C 166.536 200.377, 166.968 202.412, 169.617 208 C 171.591 212.162, 174.481 216.118, 177.651 219 L 182.602 223.500 174.061 240.757 C 167.119 254.782, 165.725 258.341, 166.619 259.757 C 167.629 261.358, 170.467 261.500, 201.500 261.500 C 232.586 261.500, 235.370 261.360, 236.386 259.750 C 237.191 258.474, 237.191 257.526, 236.386 256.250 C 235.382 254.658, 232.613 254.476, 205.654 254.235 L 176.024 253.970 182.733 240.509 L 189.442 227.047 193.471 227.774 C 205.749 229.987, 217.123 226.736, 225.353 218.661 C 233.450 210.714, 235.500 205.633, 235.500 193.500 C 235.500 181.571, 233.474 176.391, 225.805 168.714 L 221.024 163.929 229.012 147.976 C 237.138 131.748, 237.928 129.328, 235.800 127.200 C 234.516 125.916, 234.212 125.872, 232.207 126.677 M 191.627 167.468 C 186.247 169.386, 181.039 173.829, 177.500 179.519 C 173.518 185.922, 172.713 197.302, 175.755 204.180 C 177.915 209.061, 183.555 216, 185.363 216 C 185.999 216, 192.003 205.021, 198.706 191.603 C 210.277 168.436, 210.781 167.175, 208.696 166.616 C 204.840 165.582, 195.628 166.042, 191.627 167.468 M 205.251 195.485 C 195.515 214.977, 193.400 219.939, 194.629 220.411 C 195.473 220.735, 198.755 221, 201.922 221 C 206.355 221, 209.102 220.290, 213.854 217.915 C 222.775 213.457, 227.827 206.039, 228.721 196.088 C 229.333 189.264, 227.987 183.948, 224.092 177.806 C 218.334 168.726, 218.866 168.227, 205.251 195.485 " stroke="none" fill="black" fill-rule="evenodd"/>
</svg>