<svg xmlns="http://www.w3.org/2000/svg" width="308" height="324" viewBox="0 0 308 324" version="1.1">
	<path d="M 263.200 159.200 C 262.540 159.860, 262 161.091, 262 161.937 C 262 162.782, 267.956 169.442, 275.236 176.737 L 288.472 190 229.170 190 C 190.204 190, 169.205 190.355, 167.934 191.035 C 166.870 191.605, 166 192.939, 166 194 C 166 195.061, 166.870 196.395, 167.934 196.965 C 169.205 197.645, 190.204 198, 229.170 198 L 288.472 198 275.136 211.363 C 261.619 224.909, 260.384 226.953, 264.247 229.386 C 265.742 230.327, 268.510 227.971, 283.497 213.003 C 293.123 203.388, 301 194.837, 301 194 C 301 192.319, 267.101 158, 265.440 158 C 264.868 158, 263.860 158.540, 263.200 159.200 M 39.571 223.571 C 38.707 224.436, 38 225.636, 38 226.239 C 38 226.841, 43.941 233.334, 51.202 240.667 L 64.405 254 36.774 254 C 12.988 254, 8.924 254.219, 7.571 255.571 C 5.596 257.546, 5.598 258.455, 7.579 260.436 C 8.990 261.847, 16.058 261.987, 74.220 261.757 C 134.934 261.517, 139.356 261.383, 140.386 259.750 C 141.191 258.474, 141.191 257.526, 140.386 256.250 C 139.386 254.663, 136.698 254.475, 111.457 254.234 L 83.631 253.968 96.315 241.148 C 103.905 233.478, 109 227.539, 109 226.364 C 109 224.273, 107.241 222, 105.623 222 C 105.085 222, 97.750 228.844, 89.323 237.208 L 74 252.416 58.677 237.208 C 50.250 228.844, 42.857 222, 42.249 222 C 41.640 222, 40.436 222.707, 39.571 223.571 " stroke="none" fill="black" fill-rule="evenodd"/>
</svg>