<svg xmlns="http://www.w3.org/2000/svg" width="340" height="324" viewBox="0 0 340 324" version="1.1">
	<path d="M 103.571 127.571 C 102.175 128.968, 102 136.372, 102 194 C 102 251.628, 102.175 259.032, 103.571 260.429 C 104.436 261.293, 105.529 262, 106 262 C 106.471 262, 107.564 261.293, 108.429 260.429 C 109.825 259.032, 110 251.628, 110 194 C 110 136.372, 109.825 128.968, 108.429 127.571 C 107.564 126.707, 106.471 126, 106 126 C 105.529 126, 104.436 126.707, 103.571 127.571 M 231.750 127.080 C 230.111 128.035, 230 132.293, 230 194.015 L 230 259.930 232.183 261.098 C 234.042 262.093, 234.636 261.933, 236.183 260.022 C 237.896 257.906, 238 254.151, 238 194.112 C 238 138.107, 237.813 130.178, 236.443 128.223 C 234.702 125.736, 234.248 125.625, 231.750 127.080 M 167.571 159.571 C 166.288 160.855, 166 163.788, 166 175.571 L 166 190 151.571 190 C 139.788 190, 136.855 190.288, 135.571 191.571 C 133.598 193.545, 133.598 194.455, 135.571 196.429 C 136.855 197.712, 139.788 198, 151.571 198 L 166 198 166 212.429 C 166 224.212, 166.288 227.145, 167.571 228.429 C 169.545 230.402, 170.455 230.402, 172.429 228.429 C 173.712 227.145, 174 224.212, 174 212.429 L 174 198 188.429 198 C 200.212 198, 203.145 197.712, 204.429 196.429 C 206.402 194.455, 206.402 193.545, 204.429 191.571 C 203.145 190.288, 200.212 190, 188.429 190 L 174 190 174 175.571 C 174 163.788, 173.712 160.855, 172.429 159.571 C 171.564 158.707, 170.471 158, 170 158 C 169.529 158, 168.436 158.707, 167.571 159.571 M 7.571 191.571 C 6.707 192.436, 6 193.640, 6 194.249 C 6 194.857, 12.844 202.250, 21.208 210.677 L 36.416 226 21.208 241.323 C 12.844 249.750, 6 257.143, 6 257.751 C 6 259.181, 8.819 262, 10.249 262 C 10.857 262, 18.250 255.156, 26.677 246.792 L 42 231.584 57.323 246.792 C 65.750 255.156, 73.143 262, 73.751 262 C 75.181 262, 78 259.181, 78 257.751 C 78 257.143, 71.156 249.750, 62.792 241.323 L 47.584 226 62.792 210.677 C 71.156 202.250, 78 194.857, 78 194.249 C 78 192.819, 75.181 190, 73.751 190 C 73.143 190, 65.750 196.844, 57.323 205.208 L 42 220.416 26.677 205.208 C 18.250 196.844, 10.857 190, 10.249 190 C 9.640 190, 8.436 190.707, 7.571 191.571 M 317.500 191.457 C 290.023 196.649, 269.191 217.033, 263.589 244.208 C 261.316 255.232, 261.472 259.647, 264.183 261.098 C 267.396 262.817, 270 259.236, 270 253.099 C 270 230.815, 289.891 206.262, 313.032 199.982 C 315.489 199.315, 320.603 198.484, 324.395 198.135 C 331.977 197.437, 334.486 195.591, 332.394 192.250 C 330.991 190.011, 326.437 189.769, 317.500 191.457 " stroke="none" fill="black" fill-rule="evenodd"/>
</svg>