<svg xmlns="http://www.w3.org/2000/svg" width="403" height="324" viewBox="0 0 403 324" version="1.1">
	<path d="M 35.045 127.092 C 18.472 130.341, 6.748 144.597, 6.748 161.500 C 6.748 178.585, 17.910 192.035, 35.500 196.146 C 38.250 196.789, 46.677 197.492, 54.227 197.710 L 67.954 198.105 52.993 228.013 C 44.765 244.463, 38.285 258.580, 38.594 259.384 C 39.265 261.133, 41.512 262.125, 43.274 261.448 C 43.975 261.180, 51.056 247.919, 59.010 231.980 C 66.964 216.041, 73.717 203, 74.016 203 C 74.315 203, 81.071 216.093, 89.030 232.095 C 96.988 248.098, 103.842 261.402, 104.259 261.660 C 106.839 263.255, 109.516 259.019, 122.996 232.009 C 130.958 216.054, 137.704 203.014, 137.986 203.030 C 138.269 203.047, 144.783 215.907, 152.462 231.609 C 160.260 247.552, 167.242 260.595, 168.276 261.148 C 170.536 262.357, 173 260.648, 173 257.871 C 173 256.835, 166.480 242.952, 158.511 227.021 L 144.021 198.056 157.653 197.778 C 169.361 197.539, 171.441 197.253, 172.388 195.750 C 173.191 194.475, 173.190 193.525, 172.387 192.250 C 171.359 190.620, 166.648 190.463, 103.892 189.965 C 27.298 189.357, 30.623 189.719, 21.952 181.048 C 14.382 173.477, 11.995 162.241, 15.667 151.463 C 18.862 142.088, 29.949 134, 39.607 134 C 42.663 134, 46 131.912, 46 130 C 46 128.488, 42.912 125.996, 41.179 126.110 C 40.255 126.170, 37.495 126.612, 35.045 127.092 M 199.750 127.080 C 198.111 128.034, 198 132.285, 198 193.850 C 198 243.655, 198.291 259.891, 199.200 260.800 C 200.935 262.535, 330.065 262.535, 331.800 260.800 C 332.709 259.891, 333 243.672, 333 193.922 C 333 123.146, 333.084 124.279, 328.064 126.966 C 326.012 128.064, 326 128.444, 326 191.035 L 326 254 265.500 254 L 205 254 205 191.200 C 205 123.279, 205.058 123.988, 199.750 127.080 M 258.355 158.998 C 246.611 161.440, 235.491 171.432, 232.023 182.661 C 229.469 190.931, 229.471 196.077, 232.034 204.374 C 234.764 213.212, 242.284 221.505, 251.218 225.526 C 265.299 231.865, 283.322 227.445, 292.508 215.400 C 307.051 196.334, 299.202 168.333, 277.132 160.547 C 271.788 158.661, 263.330 157.964, 258.355 158.998 M 359.724 159.134 C 358.161 160.009, 358 162.521, 358 186.015 C 358 209.816, 358.145 212.007, 359.776 212.880 C 360.902 213.483, 362.182 213.478, 363.276 212.866 C 364.839 211.991, 365 209.479, 365 185.985 C 365 162.184, 364.855 159.993, 363.224 159.120 C 362.098 158.517, 360.818 158.522, 359.724 159.134 M 253.500 168.387 C 232.383 178.387, 232.383 208.613, 253.500 218.613 C 271.243 227.015, 293 213.183, 293 193.500 C 293 173.762, 271.293 159.961, 253.500 168.387 M 263.750 191.080 C 261.372 192.465, 261.542 195.685, 264.064 197.034 C 267.753 199.008, 270.819 194.219, 267.800 191.200 C 266.367 189.767, 266.022 189.757, 263.750 191.080 M 92.743 223.500 C 99.750 237.525, 105.715 249, 106 249 C 106.285 249, 112.250 237.525, 119.257 223.500 L 131.995 198 106 198 L 80.005 198 92.743 223.500 M 359.724 222.134 C 355.838 224.309, 359.294 229.983, 363.224 227.880 C 364.201 227.357, 365 226.061, 365 225 C 365 222.485, 362.005 220.858, 359.724 222.134 " stroke="none" fill="black" fill-rule="evenodd"/>
</svg>