<svg xmlns="http://www.w3.org/2000/svg" width="372" height="324" viewBox="0 0 372 324" version="1.1">
	<path d="M 7.652 127.491 C 6.743 128.399, 6 129.529, 6 130 C 6 132.122, 9.426 134.001, 13.321 134.015 C 36.791 134.098, 61.754 154.887, 67.463 179.103 C 70.386 191.505, 69.865 194.298, 61.515 210.970 C 54.288 225.399, 53.532 228.223, 56.577 229.391 C 59.364 230.461, 60.668 228.784, 67.014 215.972 C 70.547 208.837, 73.691 203, 74 203 C 74.309 203, 77.453 208.837, 80.986 215.972 C 87.332 228.784, 88.636 230.461, 91.423 229.391 C 94.488 228.215, 93.685 225.347, 85.985 209.970 C 80.031 198.080, 78 193.015, 78 190.061 C 78 177.355, 85.005 161.785, 95.395 151.395 C 105.930 140.860, 121.343 134, 134.478 134 C 137.126 134, 139.478 133.379, 140.429 132.429 C 142.418 130.439, 142.404 129.547, 140.348 127.491 C 138.457 125.600, 131.065 126.016, 120.500 128.609 C 101.704 133.220, 82.953 149.485, 75.602 167.555 L 73.391 172.989 71.665 168.190 C 67.156 155.650, 52.788 140.092, 39.806 133.692 C 31.691 129.691, 24.549 127.599, 15.402 126.543 C 10.418 125.968, 9.002 126.141, 7.652 127.491 M 249.288 173.222 L 202.028 220.444 186.691 205.222 C 178.256 196.850, 170.857 190, 170.249 190 C 168.819 190, 166 192.819, 166 194.249 C 166 194.857, 172.844 202.250, 181.208 210.677 L 196.416 226 181.208 241.323 C 172.844 249.750, 166 257.143, 166 257.751 C 166 259.181, 168.819 262, 170.249 262 C 170.857 262, 178.250 255.156, 186.677 246.792 L 202 231.584 217.323 246.792 C 225.750 255.156, 233.143 262, 233.751 262 C 235.181 262, 238 259.181, 238 257.751 C 238 257.143, 231.150 249.744, 222.778 241.309 L 207.556 225.972 254.778 178.712 C 280.750 152.718, 302 130.932, 302 130.297 C 302 128.805, 299.195 126, 297.703 126 C 297.068 126, 275.282 147.250, 249.288 173.222 M 327.571 159.571 C 326.227 160.916, 326 164.736, 326 186 C 326 207.264, 326.227 211.084, 327.571 212.429 C 328.436 213.293, 329.529 214, 330 214 C 330.471 214, 331.564 213.293, 332.429 212.429 C 333.773 211.084, 334 207.264, 334 186 C 334 164.736, 333.773 160.916, 332.429 159.571 C 331.564 158.707, 330.471 158, 330 158 C 329.529 158, 328.436 158.707, 327.571 159.571 M 327.571 222.571 C 326.707 223.436, 326 224.529, 326 225 C 326 226.111, 328.889 229, 330 229 C 331.111 229, 334 226.111, 334 225 C 334 223.889, 331.111 221, 330 221 C 329.529 221, 328.436 221.707, 327.571 222.571 " stroke="none" fill="black" fill-rule="evenodd"/>
</svg>