<svg xmlns="http://www.w3.org/2000/svg" width="244" height="324" viewBox="0 0 244 324" version="1.1">
	<path d="M 64.500 126.944 C 56.325 128.268, 50.930 129.991, 43 133.814 C 32.444 138.903, 18.927 152.404, 13.778 163 C 7.648 175.615, 4.334 193.191, 7.491 196.348 C 9.547 198.404, 10.439 198.418, 12.429 196.429 C 13.404 195.453, 14.006 193.082, 14.015 190.179 C 14.091 166.127, 34.559 141.323, 59.103 135.537 C 79.614 130.703, 100.794 136.651, 115.404 151.351 C 119.422 155.393, 123.931 161.188, 125.780 164.686 C 129.503 171.731, 133 184.277, 133 190.589 C 133 194.538, 134.844 198, 136.949 198 C 139.096 198, 140.311 194.526, 140.110 188.962 C 139.131 161.814, 117.558 135.592, 90.483 128.639 C 82.858 126.681, 70.933 125.903, 64.500 126.944 M 198.604 128.250 C 197.810 129.488, 190.116 144.675, 181.505 162 C 171.385 182.362, 166.080 194.091, 166.502 195.173 C 167.402 197.478, 169.957 198.281, 171.726 196.813 C 172.535 196.141, 179.622 182.749, 187.474 167.052 L 201.750 138.514 216.313 167.626 C 224.486 183.965, 231.617 197.023, 232.565 197.386 C 234.679 198.198, 237 196.358, 237 193.871 C 237 191.637, 205.272 127.833, 203.630 126.765 C 201.648 125.477, 200.086 125.938, 198.604 128.250 M 39.267 223.267 C 20.970 241.563, 6 257.056, 6 257.695 C 6 258.334, 6.707 259.564, 7.571 260.429 C 8.968 261.825, 16.372 262, 74 262 C 131.628 262, 139.032 261.825, 140.429 260.429 C 141.293 259.564, 142 258.334, 142 257.695 C 142 255.982, 75.721 190, 74 190 C 73.193 190, 57.563 204.970, 39.267 223.267 M 198.604 192.250 C 197.810 193.488, 190.116 208.675, 181.505 226 C 171.385 246.362, 166.080 258.091, 166.502 259.173 C 167.402 261.478, 169.957 262.281, 171.726 260.813 C 172.535 260.141, 179.622 246.749, 187.474 231.052 L 201.750 202.514 216.313 231.626 C 224.486 247.965, 231.617 261.023, 232.565 261.386 C 234.679 262.198, 237 260.358, 237 257.871 C 237 255.637, 205.272 191.833, 203.630 190.765 C 201.648 189.477, 200.086 189.938, 198.604 192.250 M 46.500 227 L 19.514 254 74 254 L 128.486 254 101.500 227 C 86.658 212.150, 74.283 200, 74 200 C 73.717 200, 61.342 212.150, 46.500 227 " stroke="none" fill="black" fill-rule="evenodd"/>
</svg>