<svg xmlns="http://www.w3.org/2000/svg" width="372" height="324" viewBox="0 0 372 324" version="1.1">
	<path d="M 61.500 127.401 C 46.645 130.266, 35.144 136.774, 24.168 148.528 C 13.839 159.588, 8.206 172.225, 6.499 188.168 C 5.924 193.530, 6.094 194.951, 7.473 196.330 C 9.547 198.404, 10.435 198.422, 12.429 196.429 C 13.379 195.478, 14 193.126, 14 190.478 C 14 170.749, 28.156 149.193, 47 140.225 C 57.020 135.457, 63.300 134, 73.839 134 C 100.952 134, 124.687 152.718, 131.485 179.460 C 132.318 182.738, 133 187.544, 133 190.139 C 133 198.197, 132.216 198, 164.274 198 L 192.405 198 179.202 211.333 C 171.941 218.666, 166 225.159, 166 225.761 C 166 227.187, 168.825 230, 170.257 230 C 172.006 230, 206 195.761, 206 194 C 206 192.239, 172.006 158, 170.257 158 C 168.825 158, 166 160.813, 166 162.239 C 166 162.841, 171.949 169.342, 179.219 176.684 L 192.439 190.035 166.470 189.767 L 140.502 189.500 139.713 183.102 C 136.685 158.555, 115.450 135.008, 90.500 128.533 C 81.877 126.295, 69.699 125.820, 61.500 127.401 M 231.571 127.571 C 230.175 128.968, 230 136.372, 230 194 C 230 251.628, 230.175 259.032, 231.571 260.429 C 232.436 261.293, 233.529 262, 234 262 C 234.471 262, 235.564 261.293, 236.429 260.429 C 237.825 259.032, 238 251.628, 238 194 C 238 136.372, 237.825 128.968, 236.429 127.571 C 235.564 126.707, 234.471 126, 234 126 C 233.529 126, 232.436 126.707, 231.571 127.571 M 359.571 127.571 C 358.175 128.968, 358 136.372, 358 194 C 358 251.628, 358.175 259.032, 359.571 260.429 C 360.436 261.293, 361.529 262, 362 262 C 362.471 262, 363.564 261.293, 364.429 260.429 C 365.825 259.032, 366 251.628, 366 194 C 366 136.372, 365.825 128.968, 364.429 127.571 C 363.564 126.707, 362.471 126, 362 126 C 361.529 126, 360.436 126.707, 359.571 127.571 M 263.571 255.571 C 262.707 256.436, 262 257.529, 262 258 C 262 258.471, 262.707 259.564, 263.571 260.429 C 264.436 261.293, 265.529 262, 266 262 C 266.471 262, 267.564 261.293, 268.429 260.429 C 269.293 259.564, 270 258.471, 270 258 C 270 257.529, 269.293 256.436, 268.429 255.571 C 267.564 254.707, 266.471 254, 266 254 C 265.529 254, 264.436 254.707, 263.571 255.571 M 295.571 255.571 C 294.707 256.436, 294 257.529, 294 258 C 294 258.471, 294.707 259.564, 295.571 260.429 C 296.436 261.293, 297.529 262, 298 262 C 298.471 262, 299.564 261.293, 300.429 260.429 C 301.293 259.564, 302 258.471, 302 258 C 302 257.529, 301.293 256.436, 300.429 255.571 C 299.564 254.707, 298.471 254, 298 254 C 297.529 254, 296.436 254.707, 295.571 255.571 M 327.571 255.571 C 326.707 256.436, 326 257.529, 326 258 C 326 258.471, 326.707 259.564, 327.571 260.429 C 328.436 261.293, 329.529 262, 330 262 C 330.471 262, 331.564 261.293, 332.429 260.429 C 333.293 259.564, 334 258.471, 334 258 C 334 257.529, 333.293 256.436, 332.429 255.571 C 331.564 254.707, 330.471 254, 330 254 C 329.529 254, 328.436 254.707, 327.571 255.571 " stroke="none" fill="black" fill-rule="evenodd"/>
</svg>