<svg xmlns="http://www.w3.org/2000/svg" width="340" height="324" viewBox="0 0 340 324" version="1.1">
	<path d="M 247.750 63.080 C 246.787 63.641, 246 64.757, 246 65.561 C 246 67.454, 262.603 100.636, 263.974 101.484 C 266.685 103.159, 268.956 100.143, 276.760 84.501 C 281.292 75.417, 285 67.143, 285 66.115 C 285 63.642, 282.675 61.804, 280.569 62.612 C 279.643 62.967, 275.930 69.156, 272.318 76.363 L 265.751 89.469 259.767 77.484 C 254.136 66.205, 251.479 61.960, 250.095 62.030 C 249.768 62.047, 248.713 62.519, 247.750 63.080 M 7.200 127.200 C 5.465 128.935, 5.465 259.065, 7.200 260.800 C 8.109 261.709, 24.229 262, 73.629 262 C 131.594 262, 139.032 261.825, 140.429 260.429 C 141.825 259.032, 142 251.628, 142 194 C 142 136.372, 141.825 128.968, 140.429 127.571 C 139.032 126.175, 131.594 126, 73.629 126 C 24.229 126, 8.109 126.291, 7.200 127.200 M 199.750 127.080 C 198.111 128.035, 198 132.293, 198 194.015 C 198 258.159, 198.052 259.957, 199.934 260.965 C 202.436 262.304, 202.569 262.288, 204.429 260.429 C 205.825 259.032, 206 251.628, 206 194 C 206 136.372, 205.825 128.968, 204.429 127.571 C 202.607 125.750, 202.121 125.699, 199.750 127.080 M 327.750 127.080 C 326.111 128.035, 326 132.293, 326 194.015 C 326 259.587, 326.011 259.935, 328.064 261.034 C 333.084 263.721, 333 264.854, 333 194.078 C 333 123.068, 333.071 123.981, 327.750 127.080 M 14 194 L 14 254 74 254 L 134 254 134 194 L 134 134 74 134 L 14 134 14 194 M 167.571 191.571 C 166.707 192.436, 166 193.529, 166 194 C 166 194.471, 166.707 195.564, 167.571 196.429 C 168.436 197.293, 169.529 198, 170 198 C 170.471 198, 171.564 197.293, 172.429 196.429 C 173.293 195.564, 174 194.471, 174 194 C 174 193.529, 173.293 192.436, 172.429 191.571 C 171.564 190.707, 170.471 190, 170 190 C 169.529 190, 168.436 190.707, 167.571 191.571 M 231.750 255.080 C 228.020 257.252, 231.345 262.956, 235.428 261.389 C 237.505 260.592, 237.498 255.405, 235.418 254.607 C 233.527 253.881, 233.888 253.835, 231.750 255.080 M 263.750 255.080 C 261.372 256.465, 261.542 259.685, 264.064 261.034 C 267.753 263.008, 270.819 258.219, 267.800 255.200 C 266.367 253.767, 266.022 253.757, 263.750 255.080 M 295.750 255.080 C 293.372 256.465, 293.542 259.685, 296.064 261.034 C 299.753 263.008, 302.819 258.219, 299.800 255.200 C 298.367 253.767, 298.022 253.757, 295.750 255.080 " stroke="none" fill="black" fill-rule="evenodd"/>
</svg>