<svg xmlns="http://www.w3.org/2000/svg" width="532" height="324" viewBox="0 0 532 324" version="1.1">
	<path d="M 7.571 127.571 C 6.207 128.936, 6 133.463, 6 162 C 6 190.537, 6.207 195.064, 7.571 196.429 C 8.844 197.701, 11.697 198, 22.575 198 L 36.006 198 21.020 227.961 C 12.777 244.439, 6.285 258.580, 6.594 259.384 C 7.265 261.133, 9.512 262.125, 11.274 261.448 C 11.975 261.180, 19.056 247.919, 27.010 231.980 C 34.964 216.041, 41.717 203, 42.016 203 C 42.315 203, 49.042 216.034, 56.965 231.964 C 69.336 256.836, 72.352 262, 74.510 262 C 74.701 262, 75.564 261.293, 76.429 260.429 C 77.825 259.032, 78 251.628, 78 194 C 78 136.372, 77.825 128.968, 76.429 127.571 C 74.455 125.598, 73.545 125.598, 71.571 127.571 C 70.212 128.931, 70 133.242, 70 159.571 L 70 190 42 190 L 14 190 14 159.571 C 14 133.242, 13.788 128.931, 12.429 127.571 C 11.564 126.707, 10.471 126, 10 126 C 9.529 126, 8.436 126.707, 7.571 127.571 M 194.223 127.008 C 183.939 129.164, 174.017 137.415, 169.189 147.825 C 167.040 152.457, 166.551 154.992, 166.528 161.620 C 166.502 169.072, 166.810 170.344, 170.268 177.084 L 174.036 184.428 138.018 220.496 C 118.208 240.333, 102 257.080, 102 257.710 C 102 259.201, 104.807 261.996, 106.321 262.014 C 106.970 262.021, 123.776 245.682, 143.669 225.705 L 179.838 189.383 183.907 191.786 C 189.180 194.900, 201.916 198.112, 204.184 196.900 C 205.111 196.405, 206.556 196, 207.397 196 C 210.991 196, 220.143 191.626, 224.413 187.868 C 230.031 182.923, 233.355 177.448, 235.564 169.500 C 237.487 162.581, 237.501 162.185, 236.057 155.500 C 231.820 135.877, 213.014 123.069, 194.223 127.008 M 191.463 135.591 C 183.567 138.395, 176.189 146.737, 174.519 154.750 L 173.841 158 185.921 158 L 198 158 198 146 C 198 132.801, 198.241 133.185, 191.463 135.591 M 206 146 L 206 158 217.500 158 C 226.446 158, 229 157.702, 229 156.660 C 229 153.506, 222.628 142.873, 219.031 140.024 C 215.973 137.602, 208.405 134, 206.374 134 C 206.168 134, 206 139.400, 206 146 M 174.599 168.750 C 176.760 178.073, 185.007 185.956, 195.305 188.541 L 198 189.217 198 177.608 L 198 166 185.981 166 L 173.962 166 174.599 168.750 M 206 177.500 C 206 183.825, 206.168 189, 206.374 189 C 208.369 189, 215.943 185.422, 218.891 183.086 C 222.389 180.316, 226.940 173.255, 228.454 168.250 C 229.133 166.007, 229.098 166, 217.567 166 L 206 166 206 177.500 M 58.607 219.250 C 64.446 230.938, 69.398 240.688, 69.612 240.917 C 69.825 241.146, 70 231.583, 70 219.667 L 70 198 58.995 198 L 47.991 198 58.607 219.250 M 416.320 239.054 C 409.062 240.328, 400.484 244.333, 393.834 249.553 L 388.169 254 326.656 254 C 272.068 254, 264.966 254.177, 263.571 255.571 C 262.707 256.436, 262 257.529, 262 258 C 262 258.471, 262.707 259.564, 263.571 260.429 C 264.968 261.825, 272.368 262, 329.949 262 C 398.260 262, 396.297 262.130, 397.147 257.545 C 397.680 254.677, 404.529 250.319, 412.329 247.887 C 417.704 246.210, 420.905 245.849, 427.374 246.189 C 438.596 246.778, 446.388 250.446, 455.072 259.230 C 466.385 270.672, 480.320 275.405, 495.614 272.998 C 507.858 271.072, 524.513 261.467, 523.805 256.740 C 523.167 252.483, 520.492 252.356, 515.618 256.350 C 508.261 262.378, 500.743 265.315, 491.409 265.807 C 477.975 266.516, 467.819 262.549, 459.766 253.449 C 449.983 242.393, 431.737 236.348, 416.320 239.054 " stroke="none" fill="black" fill-rule="evenodd"/>
</svg>