<svg xmlns="http://www.w3.org/2000/svg" width="532" height="324" viewBox="0 0 532 324" version="1.1">
	<path d="M 193.384 127.357 C 182.730 130.056, 174 137.453, 169.163 147.880 C 167.042 152.453, 166.551 155.012, 166.528 161.620 C 166.502 169.072, 166.810 170.344, 170.268 177.084 L 174.036 184.428 138.018 220.496 C 118.208 240.333, 102 257.080, 102 257.710 C 102 259.201, 104.807 261.996, 106.321 262.014 C 106.970 262.021, 123.776 245.682, 143.669 225.705 L 179.838 189.383 183.907 191.786 C 188.001 194.204, 201.863 198.194, 203.238 197.350 C 203.644 197.101, 206.569 196.222, 209.738 195.396 C 230.656 189.950, 241.653 168.662, 233.962 148.507 C 228.043 132.997, 209.425 123.293, 193.384 127.357 M 191.627 135.468 C 183.862 138.236, 175.901 147.144, 174.394 154.750 L 173.750 158 185.875 158 L 198 158 198 146 C 198 132.823, 198.186 133.130, 191.627 135.468 M 206 146 L 206 158 217.500 158 C 226.446 158, 229 157.702, 229 156.660 C 229 153.506, 222.628 142.873, 219.031 140.024 C 215.973 137.602, 208.405 134, 206.374 134 C 206.168 134, 206 139.400, 206 146 M 174.599 168.750 C 176.760 178.073, 185.007 185.956, 195.305 188.541 L 198 189.217 198 177.608 L 198 166 185.981 166 L 173.962 166 174.599 168.750 M 206 177.500 C 206 183.825, 206.168 189, 206.374 189 C 208.369 189, 215.943 185.422, 218.891 183.086 C 222.389 180.316, 226.940 173.255, 228.454 168.250 C 229.133 166.007, 229.098 166, 217.567 166 L 206 166 206 177.500 M 40.370 190.765 C 38.401 192.045, 6.007 257.855, 6.594 259.384 C 7.265 261.133, 9.512 262.124, 11.274 261.448 C 11.975 261.180, 19.056 247.919, 27.010 231.980 C 34.964 216.041, 41.710 203, 42 203 C 42.290 203, 49.036 216.041, 56.990 231.980 C 64.944 247.919, 72.025 261.180, 72.726 261.448 C 74.488 262.124, 76.735 261.133, 77.406 259.384 C 77.993 257.855, 45.599 192.045, 43.630 190.765 C 43.009 190.361, 42.275 190.031, 42 190.031 C 41.725 190.031, 40.991 190.361, 40.370 190.765 M 416.244 239.065 C 409.067 240.322, 399.509 244.857, 393.518 249.849 L 388.537 254 326.840 254 C 272.085 254, 264.966 254.177, 263.571 255.571 C 262.707 256.436, 262 257.529, 262 258 C 262 258.471, 262.707 259.564, 263.571 260.429 C 264.968 261.825, 272.368 262, 329.949 262 C 398.260 262, 396.297 262.130, 397.147 257.545 C 397.680 254.677, 404.529 250.319, 412.329 247.887 C 417.704 246.210, 420.905 245.849, 427.374 246.189 C 438.596 246.778, 446.388 250.446, 455.072 259.230 C 466.304 270.591, 480.429 275.388, 495.614 272.998 C 507.858 271.072, 524.513 261.467, 523.805 256.740 C 523.178 252.551, 520.558 252.409, 515.803 256.305 C 508.517 262.276, 500.710 265.317, 491.409 265.807 C 478.086 266.510, 467.641 262.480, 460.054 253.708 C 450.542 242.712, 431.593 236.378, 416.244 239.065 " stroke="none" fill="black" fill-rule="evenodd"/>
</svg>