<svg xmlns="http://www.w3.org/2000/svg" width="308" height="324" viewBox="0 0 308 324" version="1.1">
	<path d="M 55.571 63.571 C 54.707 64.436, 54 65.317, 54 65.531 C 54 66.316, 71.159 100.529, 71.965 101.349 C 74.275 103.702, 76.913 100.229, 84.760 84.501 C 89.292 75.417, 93 67.143, 93 66.115 C 93 63.770, 90.710 61.790, 88.832 62.511 C 88.050 62.811, 84.520 68.894, 80.986 76.028 C 77.453 83.163, 74.308 89, 73.997 89 C 73.687 89, 70.748 83.534, 67.467 76.853 C 59.925 61.499, 58.847 60.296, 55.571 63.571 M 7.571 127.571 C 6.175 128.968, 6 136.372, 6 194 C 6 251.628, 6.175 259.032, 7.571 260.429 C 8.436 261.293, 9.529 262, 10 262 C 10.471 262, 11.564 261.293, 12.429 260.429 C 13.825 259.032, 14 251.628, 14 194 C 14 136.372, 13.825 128.968, 12.429 127.571 C 11.564 126.707, 10.471 126, 10 126 C 9.529 126, 8.436 126.707, 7.571 127.571 M 135.750 127.080 C 134.111 128.035, 134 132.293, 134 194.015 C 134 259.587, 134.011 259.935, 136.064 261.034 C 141.084 263.721, 141 264.854, 141 194.078 C 141 123.068, 141.071 123.981, 135.750 127.080 M 221.500 127.418 C 193.780 132.810, 173.221 152.957, 167.583 180.254 C 165.336 191.130, 165.480 195.651, 168.117 197.062 C 171.365 198.801, 172.656 196.613, 173.871 187.308 C 175.940 171.469, 181.277 160.826, 192.500 150.155 C 200.190 142.844, 208.665 138.148, 219 135.472 C 227.896 133.168, 243.992 133.905, 252.858 137.022 C 261.597 140.094, 273.093 148.027, 278.660 154.828 C 286.771 164.737, 292.929 180.812, 292.983 192.215 C 293.003 196.661, 295.614 198.734, 298.518 196.611 C 300.062 195.482, 300.233 194.264, 299.748 187.851 C 298.020 165.002, 283.560 143.808, 262.822 133.730 C 257.695 131.238, 251.463 128.724, 248.974 128.142 C 241.072 126.295, 228.920 125.975, 221.500 127.418 M 39.571 255.571 C 38.707 256.436, 38 257.529, 38 258 C 38 259.111, 40.889 262, 42 262 C 43.111 262, 46 259.111, 46 258 C 46 256.889, 43.111 254, 42 254 C 41.529 254, 40.436 254.707, 39.571 255.571 M 71.616 255.527 C 70.727 256.416, 70 257.529, 70 258 C 70 259.389, 73.140 262.120, 74.295 261.735 C 76.395 261.035, 77.549 258.094, 76.423 256.310 C 74.905 253.902, 73.474 253.669, 71.616 255.527 M 103.616 255.527 C 102.727 256.416, 102 257.529, 102 258 C 102 259.389, 105.140 262.120, 106.295 261.735 C 108.395 261.035, 109.549 258.094, 108.423 256.310 C 106.905 253.902, 105.474 253.669, 103.616 255.527 " stroke="none" fill="black" fill-rule="evenodd"/>
</svg>