<svg xmlns="http://www.w3.org/2000/svg" width="532" height="324" viewBox="0 0 532 324" version="1.1">
	<path d="M 55.213 143.315 C 45.746 152.838, 38 161.131, 38 161.743 C 38 163.175, 40.813 166, 42.239 166 C 42.841 166, 49.334 160.059, 56.667 152.798 L 70 139.595 70 196.298 L 70 253 67.750 252.985 C 62.812 252.953, 52.328 249.756, 45.603 246.233 C 27.958 236.990, 14 215.544, 14 197.677 C 14 194.888, 13.395 192.538, 12.429 191.571 C 10.444 189.587, 9.546 189.597, 7.515 191.627 C 4.469 194.674, 7.737 211.569, 13.778 224 C 18.941 234.625, 32.437 248.090, 43.076 253.230 C 52.117 257.598, 69.746 261.993, 75 261.188 C 86.473 259.430, 89.992 258.690, 95.284 256.923 C 115.341 250.228, 133.936 229.930, 138.385 209.876 C 140.933 198.391, 141.226 193.369, 139.451 191.593 C 138.574 190.717, 137.471 190, 137 190 C 134.946 190, 133 193.416, 133 197.022 C 133 203.685, 130.970 211.185, 126.809 219.899 C 119.545 235.113, 104.095 247.644, 87.897 251.463 C 84.379 252.292, 80.713 252.977, 79.750 252.985 C 78.104 252.999, 78 249.639, 78 196.298 L 78 139.595 91.333 152.798 C 98.666 160.059, 105.159 166, 105.761 166 C 107.187 166, 110 163.175, 110 161.743 C 110 159.994, 75.761 126, 74 126 C 73.134 126, 64.680 133.792, 55.213 143.315 M 224.169 126.968 C 192.769 131.876, 169.932 156.110, 166.499 188.168 C 165.924 193.530, 166.094 194.951, 167.473 196.330 C 171.035 199.892, 174 196.852, 174 189.639 C 174 176.784, 180.727 162.014, 191.388 151.459 C 203.197 139.769, 216.914 134.046, 233.201 134.015 C 243.649 133.995, 249.980 135.455, 259.820 140.153 C 278.172 148.915, 290.962 167.419, 292.675 187.687 C 293.043 192.035, 293.901 195.758, 294.725 196.582 C 295.882 197.739, 301.327 198, 324.274 198 L 352.405 198 339.202 211.333 C 331.941 218.666, 326 225.159, 326 225.761 C 326 227.200, 328.997 230.172, 330.068 229.795 C 331.353 229.342, 366 194.827, 366 194 C 366 193.173, 331.353 158.658, 330.068 158.205 C 328.997 157.828, 326 160.800, 326 162.239 C 326 162.841, 331.941 169.334, 339.202 176.667 L 352.405 190 326.202 190 L 300 190 300 186.710 C 300 181.215, 297.204 171.958, 292.837 163 C 285.086 147.097, 267.794 133.062, 250.500 128.638 C 242.766 126.659, 230.943 125.909, 224.169 126.968 M 391.571 127.571 C 390.175 128.968, 390 136.372, 390 194 C 390 251.628, 390.175 259.032, 391.571 260.429 C 393.457 262.315, 394.219 262.381, 395.800 260.800 C 397.535 259.065, 397.535 128.935, 395.800 127.200 C 394.219 125.619, 393.457 125.685, 391.571 127.571 M 519.750 127.080 C 518.111 128.035, 518 132.293, 518 194.015 C 518 259.587, 518.011 259.935, 520.064 261.034 C 525.084 263.721, 525 264.854, 525 194.078 C 525 123.068, 525.071 123.981, 519.750 127.080 M 423.616 255.527 C 422.727 256.416, 422 257.529, 422 258 C 422 259.389, 425.140 262.120, 426.295 261.735 C 428.395 261.035, 429.549 258.094, 428.423 256.310 C 426.905 253.902, 425.474 253.669, 423.616 255.527 M 455.750 255.080 C 453.372 256.465, 453.542 259.685, 456.064 261.034 C 459.753 263.008, 462.819 258.219, 459.800 255.200 C 458.367 253.767, 458.022 253.757, 455.750 255.080 M 487.750 255.080 C 485.372 256.465, 485.542 259.685, 488.064 261.034 C 491.753 263.008, 494.819 258.219, 491.800 255.200 C 490.367 253.767, 490.022 253.757, 487.750 255.080 " stroke="none" fill="black" fill-rule="evenodd"/>
</svg>