<svg xmlns="http://www.w3.org/2000/svg" width="244" height="324" viewBox="0 0 244 324" version="1.1">
	<path d="M 55.571 63.571 C 54.707 64.436, 54 65.317, 54 65.531 C 54 66.316, 71.159 100.529, 71.965 101.349 C 74.297 103.725, 76.927 100.197, 85.239 83.541 C 90.036 73.928, 93.710 65.408, 93.403 64.609 C 92.732 62.858, 90.483 61.877, 88.705 62.560 C 87.993 62.833, 84.520 68.894, 80.986 76.028 C 77.453 83.163, 74.308 89, 73.997 89 C 73.687 89, 70.748 83.534, 67.467 76.853 C 59.925 61.499, 58.847 60.296, 55.571 63.571 M 7.571 127.571 C 6.175 128.968, 6 136.372, 6 194 C 6 251.628, 6.175 259.032, 7.571 260.429 C 8.436 261.293, 9.529 262, 10 262 C 10.471 262, 11.564 261.293, 12.429 260.429 C 13.825 259.032, 14 251.628, 14 194 C 14 136.372, 13.825 128.968, 12.429 127.571 C 11.564 126.707, 10.471 126, 10 126 C 9.529 126, 8.436 126.707, 7.571 127.571 M 135.571 127.571 C 134.175 128.968, 134 136.372, 134 194 C 134 251.628, 134.175 259.032, 135.571 260.429 C 137.678 262.535, 138.598 262.412, 140.443 259.777 C 141.813 257.823, 142 249.904, 142 194 C 142 138.096, 141.813 130.177, 140.443 128.223 C 138.598 125.588, 137.678 125.465, 135.571 127.571 M 194.344 127 C 181.030 129.767, 169.874 141.162, 166.899 155.033 C 165.634 160.934, 166.262 164.503, 168.733 165.451 C 171.248 166.416, 174 162.567, 174 158.086 C 174 153.009, 178.362 144.702, 183.205 140.557 C 196.665 129.035, 217.987 133.292, 226.057 149.112 C 229.043 154.965, 229.426 160.557, 227.491 170.045 C 220.845 202.633, 201.552 231.289, 174.500 248.751 C 165.964 254.260, 164.733 255.632, 166.074 258.138 C 167.684 261.147, 170.345 260.352, 179.684 254.074 C 191.804 245.926, 201.638 236.635, 210.266 225.181 C 222.584 208.828, 230.835 190.624, 234.768 171.127 C 237.837 155.914, 235.145 145.979, 225.342 136.339 C 217.455 128.584, 204.910 124.804, 194.344 127 M 39.571 255.571 C 38.707 256.436, 38 257.529, 38 258 C 38 259.111, 40.889 262, 42 262 C 43.111 262, 46 259.111, 46 258 C 46 256.889, 43.111 254, 42 254 C 41.529 254, 40.436 254.707, 39.571 255.571 M 71.571 255.571 C 70.707 256.436, 70 257.529, 70 258 C 70 259.111, 72.889 262, 74 262 C 75.111 262, 78 259.111, 78 258 C 78 256.889, 75.111 254, 74 254 C 73.529 254, 72.436 254.707, 71.571 255.571 M 103.571 255.571 C 102.707 256.436, 102 257.529, 102 258 C 102 259.111, 104.889 262, 106 262 C 107.111 262, 110 259.111, 110 258 C 110 256.889, 107.111 254, 106 254 C 105.529 254, 104.436 254.707, 103.571 255.571 " stroke="none" fill="black" fill-rule="evenodd"/>
</svg>