<svg xmlns="http://www.w3.org/2000/svg" width="403" height="324" viewBox="0 0 403 324" version="1.1">
	<path d="M 55.571 63.571 C 54.707 64.436, 54 65.317, 54 65.531 C 54 66.993, 71.421 100.653, 72.488 101.252 C 73.225 101.665, 74.440 101.768, 75.188 101.481 C 76.837 100.849, 93 68.755, 93 66.115 C 93 63.770, 90.710 61.790, 88.832 62.511 C 88.050 62.811, 84.520 68.894, 80.986 76.028 C 77.453 83.163, 74.306 89, 73.994 89 C 73.683 89, 70.969 83.984, 67.964 77.854 C 62.437 66.580, 59.559 62, 57.999 62 C 57.528 62, 56.436 62.707, 55.571 63.571 M 63.870 127.071 C 48.893 129.271, 37.652 135.158, 25.974 146.916 C 12.475 160.507, 6.696 174.473, 6.696 193.500 C 6.696 212.834, 12.449 226.527, 26.461 240.539 C 40.473 254.551, 54.166 260.304, 73.500 260.304 C 92.176 260.304, 106.938 254.102, 120.584 240.521 C 133.645 227.522, 140.326 211.574, 140.282 193.500 C 140.239 175.592, 133.663 159.633, 121.121 146.995 C 109.603 135.389, 97.653 129.243, 82.284 127.020 C 74.551 125.902, 71.772 125.910, 63.870 127.071 M 263.750 127.080 C 262.111 128.035, 262 132.293, 262 194.015 C 262 259.587, 262.011 259.935, 264.064 261.034 C 269.084 263.721, 269 264.854, 269 194.078 C 269 123.068, 269.071 123.981, 263.750 127.080 M 391.724 127.134 C 390.119 128.033, 390 132.654, 390 194.015 C 390 256.133, 390.102 259.984, 391.776 260.880 C 392.902 261.483, 394.182 261.478, 395.276 260.866 C 396.881 259.967, 397 255.346, 397 193.985 C 397 131.867, 396.898 128.016, 395.224 127.120 C 394.098 126.517, 392.818 126.522, 391.724 127.134 M 57.500 135.870 C 37.436 141.645, 20.733 158.691, 15.585 178.644 C 13.554 186.517, 13.554 200.483, 15.585 208.356 C 20.838 228.716, 38.284 246.162, 58.644 251.415 C 66.367 253.407, 79.556 253.429, 87.897 251.463 C 110.196 246.206, 129.105 225.486, 132.547 202.538 L 133.227 198 103.548 198 C 85.001 198, 73.143 197.612, 71.934 196.965 C 70.086 195.976, 70 194.555, 70 164.965 L 70 134 66.750 134.071 C 64.963 134.110, 60.800 134.920, 57.500 135.870 M 78 162 L 78 190 105.629 190 L 133.258 190 132.607 185.092 C 129.548 162.032, 110.437 140.851, 87.897 135.537 C 76.926 132.951, 78 130.080, 78 162 M 167.585 191.558 C 166.713 192.430, 166 193.529, 166 194 C 166 194.471, 166.713 195.570, 167.585 196.442 C 168.978 197.835, 173.159 197.995, 202.226 197.763 C 232.452 197.523, 235.377 197.350, 236.386 195.750 C 237.191 194.474, 237.191 193.526, 236.386 192.250 C 235.377 190.650, 232.452 190.477, 202.226 190.237 C 173.159 190.005, 168.978 190.165, 167.585 191.558 M 295.750 255.080 C 293.372 256.465, 293.542 259.685, 296.064 261.034 C 299.753 263.008, 302.819 258.219, 299.800 255.200 C 298.367 253.767, 298.022 253.757, 295.750 255.080 M 327.724 255.134 C 323.838 257.309, 327.294 262.983, 331.224 260.880 C 332.201 260.357, 333 259.061, 333 258 C 333 255.485, 330.005 253.858, 327.724 255.134 M 359.724 255.134 C 355.838 257.309, 359.294 262.983, 363.224 260.880 C 364.201 260.357, 365 259.061, 365 258 C 365 255.485, 362.005 253.858, 359.724 255.134 " stroke="none" fill="black" fill-rule="evenodd"/>
</svg>