<svg xmlns="http://www.w3.org/2000/svg" width="148" height="324" viewBox="0 0 148 324" version="1.1">
	<path d="M 55.571 63.571 C 54.707 64.436, 54 65.317, 54 65.531 C 54 66.316, 71.159 100.529, 71.965 101.349 C 74.275 103.702, 76.913 100.229, 84.760 84.501 C 89.292 75.417, 93 67.143, 93 66.115 C 93 63.770, 90.710 61.790, 88.832 62.511 C 88.050 62.811, 84.520 68.894, 80.986 76.028 C 77.453 83.163, 74.308 89, 73.997 89 C 73.687 89, 70.748 83.534, 67.467 76.853 C 59.925 61.499, 58.847 60.296, 55.571 63.571 M 7.571 159.571 C 6.207 160.936, 6 165.463, 6 194 C 6 222.537, 6.207 227.064, 7.571 228.429 C 9.545 230.402, 10.455 230.402, 12.429 228.429 C 13.793 227.064, 14 222.537, 14 194 C 14 165.463, 13.793 160.936, 12.429 159.571 C 11.564 158.707, 10.471 158, 10 158 C 9.529 158, 8.436 158.707, 7.571 159.571 M 135.750 159.080 C 134.138 160.019, 134 162.769, 134 194.015 C 134 227.256, 134.041 227.952, 136.064 229.034 C 137.596 229.854, 138.498 229.832, 139.564 228.947 C 140.760 227.954, 141 222.127, 141 194.078 C 141 157.363, 140.815 156.130, 135.750 159.080 M 39.571 255.571 C 38.707 256.436, 38 257.529, 38 258 C 38 259.111, 40.889 262, 42 262 C 43.111 262, 46 259.111, 46 258 C 46 256.889, 43.111 254, 42 254 C 41.529 254, 40.436 254.707, 39.571 255.571 M 71.616 255.527 C 70.727 256.416, 70 257.529, 70 258 C 70 259.389, 73.140 262.120, 74.295 261.735 C 76.395 261.035, 77.549 258.094, 76.423 256.310 C 74.905 253.902, 73.474 253.669, 71.616 255.527 M 103.616 255.527 C 102.727 256.416, 102 257.529, 102 258 C 102 259.389, 105.140 262.120, 106.295 261.735 C 108.395 261.035, 109.549 258.094, 108.423 256.310 C 106.905 253.902, 105.474 253.669, 103.616 255.527 " stroke="none" fill="black" fill-rule="evenodd"/>
</svg>