<svg xmlns="http://www.w3.org/2000/svg" width="564" height="324" viewBox="0 0 564 324" version="1.1">
	<path d="M 225.384 63.412 C 207.480 67.757, 195.543 85.833, 198.993 103.372 C 200.490 110.981, 203.011 115.971, 208.198 121.599 L 212.255 126 190.699 126 C 172.436 126, 168.903 126.240, 167.571 127.571 C 165.598 129.545, 165.598 130.455, 167.571 132.429 C 168.931 133.788, 173.242 134, 199.571 134 L 230 134 230 194 L 230 254 215.571 254 C 203.788 254, 200.855 254.288, 199.571 255.571 C 197.598 257.545, 197.598 258.455, 199.571 260.429 C 200.936 261.793, 205.463 262, 234 262 C 262.537 262, 267.064 261.793, 268.429 260.429 C 270.402 258.455, 270.402 257.545, 268.429 255.571 C 267.145 254.288, 264.212 254, 252.429 254 L 238 254 238 194 L 238 134 268.429 134 C 294.758 134, 299.069 133.788, 300.429 132.429 C 302.402 130.455, 302.402 129.545, 300.429 127.571 C 299.095 126.238, 295.519 126, 276.801 126 L 254.745 126 258.802 121.599 C 277.504 101.310, 267.910 69.660, 241.147 63.360 C 234.397 61.772, 232.111 61.779, 225.384 63.412 M 223.054 71.728 C 217.018 73.859, 209.781 81.260, 207.667 87.463 C 202.058 103.925, 210.847 120.571, 227.250 124.550 L 230 125.217 230 97.608 C 230 76.146, 229.722 70.018, 228.750 70.079 C 228.063 70.122, 225.499 70.864, 223.054 71.728 M 238 97.500 L 238 125.135 240.250 124.448 C 249.341 121.671, 256.783 115.020, 259.403 107.329 C 264.885 91.241, 256.601 75.321, 240.250 70.525 L 238 69.865 238 97.500 M 61.500 127.401 C 36.003 132.318, 15.028 151.893, 8.352 177 C 6.055 185.639, 6.055 201.361, 8.352 210 C 12.494 225.576, 23.742 241.101, 37.307 249.965 L 43.483 254 26.313 254 C 12.037 254, 8.878 254.265, 7.571 255.571 C 5.598 257.545, 5.598 258.455, 7.571 260.429 C 8.968 261.825, 16.372 262, 74 262 C 131.628 262, 139.032 261.825, 140.429 260.429 C 142.402 258.455, 142.402 257.545, 140.429 255.571 C 139.119 254.261, 135.917 254, 121.187 254 L 103.517 254 109.693 249.965 C 118.494 244.214, 128.961 232.622, 133.313 223.806 C 138.458 213.383, 140.333 205.288, 140.333 193.500 C 140.333 181.692, 138.469 173.665, 133.249 163 C 128.083 152.445, 114.546 138.911, 104 133.756 C 90.332 127.076, 75.043 124.790, 61.500 127.401 M 487.571 127.571 C 486.212 128.931, 486 133.242, 486 159.571 L 486 190 455.571 190 C 429.242 190, 424.931 190.212, 423.571 191.571 C 421.598 193.545, 421.598 194.455, 423.571 196.429 C 424.931 197.788, 429.242 198, 455.571 198 L 486 198 486 228.429 C 486 254.758, 486.212 259.069, 487.571 260.429 C 488.436 261.293, 489.529 262, 490 262 C 490.471 262, 491.564 261.293, 492.429 260.429 C 493.788 259.069, 494 254.758, 494 228.429 L 494 198 519.202 198 L 544.405 198 531.202 211.333 C 523.941 218.666, 518 225.159, 518 225.761 C 518 227.187, 520.825 230, 522.257 230 C 524.006 230, 558 195.761, 558 194 C 558 192.239, 524.006 158, 522.257 158 C 520.825 158, 518 160.813, 518 162.239 C 518 162.841, 523.941 169.334, 531.202 176.667 L 544.405 190 519.202 190 L 494 190 494 159.571 C 494 133.242, 493.788 128.931, 492.429 127.571 C 491.564 126.707, 490.471 126, 490 126 C 489.529 126, 488.436 126.707, 487.571 127.571 M 58.645 135.584 C 38.671 140.419, 20.279 158.986, 15.537 179.103 C 10.672 199.742, 16.569 220.600, 31.484 235.516 C 55.022 259.054, 92.029 259.068, 115.548 235.548 C 123.508 227.589, 129.851 216.212, 131.910 206.201 C 133.441 198.760, 133.241 186.646, 131.463 179.103 C 126.662 158.739, 108.261 140.338, 87.897 135.537 C 79.998 133.676, 66.439 133.697, 58.645 135.584 M 353.384 159.412 C 335.475 163.758, 323.559 181.807, 326.987 199.396 C 328.500 207.161, 332.212 214.019, 337.580 218.967 C 358.277 238.045, 390.591 227.221, 396.013 199.396 C 399.488 181.565, 387.484 163.676, 369.147 159.360 C 362.397 157.772, 360.111 157.779, 353.384 159.412 M 351.054 167.728 C 345.018 169.859, 337.781 177.260, 335.667 183.463 C 329.198 202.450, 341.964 221, 361.500 221 C 369.295 221, 375.452 218.453, 380.952 212.952 C 398.571 195.333, 386.014 165.726, 361.072 166.079 C 358.007 166.122, 353.499 166.864, 351.054 167.728 M 359.571 191.571 C 358.707 192.436, 358 193.529, 358 194 C 358 195.111, 360.889 198, 362 198 C 363.111 198, 366 195.111, 366 194 C 366 192.889, 363.111 190, 362 190 C 361.529 190, 360.436 190.707, 359.571 191.571 " stroke="none" fill="black" fill-rule="evenodd"/>
</svg>