<svg xmlns="http://www.w3.org/2000/svg" width="244" height="324" viewBox="0 0 244 324" version="1.1">
	<path d="M 103.571 127.571 C 102.175 128.968, 102 136.372, 102 194 C 102 251.628, 102.175 259.032, 103.571 260.429 C 104.436 261.293, 105.529 262, 106 262 C 106.471 262, 107.564 261.293, 108.429 260.429 C 109.825 259.032, 110 251.628, 110 194 C 110 136.372, 109.825 128.968, 108.429 127.571 C 107.564 126.707, 106.471 126, 106 126 C 105.529 126, 104.436 126.707, 103.571 127.571 M 231.750 127.080 C 230.111 128.035, 230 132.293, 230 194.015 C 230 259.587, 230.011 259.935, 232.064 261.034 C 237.084 263.721, 237 264.854, 237 194.078 C 237 123.068, 237.071 123.981, 231.750 127.080 M 7.571 191.571 C 6.707 192.436, 6 193.529, 6 194 C 6 194.471, 6.707 195.564, 7.571 196.429 C 8.936 197.793, 13.463 198, 42 198 C 70.537 198, 75.064 197.793, 76.429 196.429 C 77.293 195.564, 78 194.471, 78 194 C 78 193.529, 77.293 192.436, 76.429 191.571 C 75.064 190.207, 70.537 190, 42 190 C 13.463 190, 8.936 190.207, 7.571 191.571 M 135.571 255.571 C 134.707 256.436, 134 257.529, 134 258 C 134 259.111, 136.889 262, 138 262 C 139.111 262, 142 259.111, 142 258 C 142 256.889, 139.111 254, 138 254 C 137.529 254, 136.436 254.707, 135.571 255.571 M 167.750 255.080 C 165.372 256.465, 165.542 259.685, 168.064 261.034 C 171.753 263.008, 174.819 258.219, 171.800 255.200 C 170.367 253.767, 170.022 253.757, 167.750 255.080 M 199.750 255.080 C 197.372 256.465, 197.542 259.685, 200.064 261.034 C 203.753 263.008, 206.819 258.219, 203.800 255.200 C 202.367 253.767, 202.022 253.757, 199.750 255.080 " stroke="none" fill="black" fill-rule="evenodd"/>
</svg>