<svg xmlns="http://www.w3.org/2000/svg" width="564" height="324" viewBox="0 0 564 324" version="1.1">
	<path d="M 72.369 62.765 C 71.416 63.384, 6 193.155, 6 194.426 C 6 194.663, 6.707 195.564, 7.571 196.429 C 8.844 197.701, 11.697 198, 22.575 198 L 36.006 198 21.003 227.994 C 12.751 244.490, 6 258.183, 6 258.422 C 6 258.661, 6.707 259.564, 7.571 260.429 C 8.968 261.825, 16.372 262, 74 262 C 131.628 262, 139.032 261.825, 140.429 260.429 C 141.293 259.564, 142 258.661, 142 258.422 C 142 258.183, 135.249 244.490, 126.997 227.994 L 111.994 198 125.425 198 C 136.303 198, 139.156 197.701, 140.429 196.429 C 141.293 195.564, 142 194.663, 142 194.426 C 142 193.155, 76.584 63.384, 75.631 62.765 C 75.009 62.361, 74.275 62.031, 74 62.031 C 73.725 62.031, 72.991 62.361, 72.369 62.765 M 44.747 132.500 L 16.002 190 28.003 190 L 40.004 190 55.736 158.517 C 64.389 141.202, 72.038 126.816, 72.734 126.549 C 73.430 126.281, 74.570 126.281, 75.266 126.549 C 75.962 126.816, 83.611 141.202, 92.264 158.517 L 107.996 190 119.997 190 L 131.998 190 103.253 132.500 C 87.443 100.875, 74.279 75, 74 75 C 73.721 75, 60.557 100.875, 44.747 132.500 M 224.169 127.025 C 200.057 130.535, 178.254 148.316, 170.411 170.869 C 165.168 185.945, 165.161 201.037, 170.391 216.076 C 180.472 245.061, 211.878 264.367, 241.900 260.033 C 256.965 257.858, 268.381 252.372, 279.370 242.027 C 299.093 223.459, 305.565 196.680, 296.578 170.836 C 290.385 153.029, 273.988 136.621, 256.205 130.436 C 244.925 126.514, 234.969 125.454, 224.169 127.025 M 483 126.637 C 464.805 129.294, 452.051 135.795, 440.287 148.411 C 430.039 159.400, 424.260 172.458, 422.503 188.598 C 421.964 193.549, 422.150 195.007, 423.491 196.348 C 425.547 198.404, 426.439 198.418, 428.429 196.429 C 429.404 195.453, 430.006 193.082, 430.015 190.179 C 430.091 166.127, 450.559 141.323, 475.103 135.537 C 478.621 134.708, 482.063 134.023, 482.752 134.015 C 483.440 134.007, 470.052 161.899, 453.002 195.997 C 435.951 230.095, 422 258.188, 422 258.425 C 422 258.663, 422.707 259.564, 423.571 260.429 C 424.968 261.825, 432.372 262, 490 262 C 547.628 262, 555.032 261.825, 556.429 260.429 C 557.293 259.564, 558 258.663, 558 258.425 C 558 258.188, 544.049 230.095, 526.998 195.997 C 509.948 161.899, 496.335 134.007, 496.748 134.015 C 497.162 134.023, 500.379 134.708, 503.897 135.537 C 528.441 141.323, 548.909 166.127, 548.985 190.179 C 548.994 193.082, 549.596 195.453, 550.571 196.429 C 552.561 198.418, 553.453 198.404, 555.509 196.348 C 556.850 195.007, 557.036 193.549, 556.497 188.598 C 554.021 165.862, 542.306 147.112, 523.500 135.789 C 511.767 128.724, 494.866 124.905, 483 126.637 M 217.500 135.870 C 197.436 141.645, 180.733 158.691, 175.585 178.644 C 173.554 186.517, 173.554 200.483, 175.585 208.356 C 180.838 228.716, 198.284 246.162, 218.644 251.415 C 226.517 253.446, 240.483 253.446, 248.356 251.415 C 258.335 248.840, 267.723 243.358, 275.541 235.541 C 283.358 227.723, 288.840 218.335, 291.415 208.356 C 293.446 200.483, 293.446 186.517, 291.415 178.644 C 286.162 158.284, 268.716 140.838, 248.356 135.585 C 240.226 133.488, 225.296 133.625, 217.500 135.870 M 44.747 196.500 L 16.002 254 74 254 L 131.998 254 103.253 196.500 C 87.443 164.875, 74.279 139, 74 139 C 73.721 139, 60.557 164.875, 44.747 196.500 M 460.747 196.500 L 432.002 254 490 254 L 547.998 254 519.253 196.500 C 503.443 164.875, 490.279 139, 490 139 C 489.721 139, 476.557 164.875, 460.747 196.500 M 215.282 159.282 C 205.777 168.787, 198 177.079, 198 177.710 C 198 179.173, 200.800 182, 202.249 182 C 202.857 182, 210.250 175.156, 218.677 166.792 L 234 151.584 249.323 166.792 C 257.750 175.156, 265.143 182, 265.751 182 C 267.200 182, 270 179.173, 270 177.710 C 270 176.031, 235.693 142, 234 142 C 233.210 142, 224.787 149.777, 215.282 159.282 M 483.637 175.465 C 476.890 177.870, 471.867 183.861, 470.503 191.131 C 469.855 194.586, 471.593 198, 474 198 C 475.861 198, 478 194.700, 478 191.829 C 478 189.718, 479.030 187.770, 481.400 185.400 C 484.302 182.498, 485.488 182, 489.500 182 C 493.512 182, 494.698 182.498, 497.600 185.400 C 500.502 188.302, 501 189.488, 501 193.500 C 501 197.512, 500.502 198.698, 497.600 201.600 C 495.526 203.674, 493.214 205, 491.671 205 C 487.012 205, 486 207.231, 486 217.500 C 486 224.673, 486.367 227.224, 487.571 228.429 C 488.436 229.293, 489.529 230, 490 230 C 492.689 230, 494 226.575, 494 219.550 C 494 212.379, 494.056 212.219, 496.989 211.004 C 504.077 208.069, 509.944 197.649, 508.441 190.666 C 506.872 183.379, 501.022 176.933, 494.277 175.060 C 489.498 173.733, 488.376 173.776, 483.637 175.465 M 327.571 191.571 C 326.707 192.436, 326 193.529, 326 194 C 326 194.471, 326.707 195.564, 327.571 196.429 C 328.936 197.793, 333.463 198, 362 198 C 390.537 198, 395.064 197.793, 396.429 196.429 C 397.293 195.564, 398 194.471, 398 194 C 398 193.529, 397.293 192.436, 396.429 191.571 C 395.064 190.207, 390.537 190, 362 190 C 333.463 190, 328.936 190.207, 327.571 191.571 M 487.571 238.571 C 486.707 239.436, 486 240.529, 486 241 C 486 242.111, 488.889 245, 490 245 C 491.111 245, 494 242.111, 494 241 C 494 239.889, 491.111 237, 490 237 C 489.529 237, 488.436 237.707, 487.571 238.571 " stroke="none" fill="black" fill-rule="evenodd"/>
</svg>