<svg xmlns="http://www.w3.org/2000/svg" width="308" height="324" viewBox="0 0 308 324" version="1.1">
	<path d="M 7.571 127.571 C 6.207 128.936, 6 133.463, 6 162 C 6 190.537, 6.207 195.064, 7.571 196.429 C 8.844 197.701, 11.697 198, 22.575 198 L 36.006 198 21.020 227.961 C 12.777 244.439, 6.285 258.580, 6.594 259.384 C 7.265 261.133, 9.512 262.125, 11.274 261.448 C 11.975 261.180, 19.056 247.919, 27.010 231.980 C 34.964 216.041, 41.714 203, 42.009 203 C 42.304 203, 49.101 216.162, 57.113 232.250 C 65.625 249.342, 72.319 261.625, 73.219 261.800 C 74.065 261.965, 75.487 261.370, 76.379 260.479 C 77.840 259.017, 78 252.475, 78 194 C 78 136.372, 77.825 128.968, 76.429 127.571 C 74.455 125.598, 73.545 125.598, 71.571 127.571 C 70.212 128.931, 70 133.242, 70 159.571 L 70 190 42 190 L 14 190 14 159.571 C 14 133.242, 13.788 128.931, 12.429 127.571 C 11.564 126.707, 10.471 126, 10 126 C 9.529 126, 8.436 126.707, 7.571 127.571 M 103.750 127.080 C 102.138 128.019, 102 130.762, 102 161.850 C 102 186.767, 102.314 195.914, 103.200 196.800 C 104.081 197.681, 112.578 198, 135.200 198 L 166 198 166 226 L 166 254 135.934 254 C 117.122 254, 105.145 254.387, 103.934 255.035 C 101.446 256.367, 101.446 259.633, 103.934 260.965 C 106.389 262.279, 231.704 262.395, 236.884 261.088 C 238.873 260.586, 243.425 259.663, 247 259.037 C 256.041 257.452, 270.298 250.232, 277.813 243.431 C 290.064 232.345, 298.513 215.484, 299.703 199.747 C 300.164 193.644, 299.975 192.224, 298.543 191.036 C 295.438 188.459, 293.682 190.925, 292.443 199.601 C 291.819 203.963, 290.728 209.325, 290.018 211.516 C 285.125 226.614, 273.475 240.165, 259.500 247.016 C 247.609 252.844, 244.572 253.236, 207.226 253.745 L 172.952 254.213 173.029 222.948 C 173.090 198.283, 172.831 191.509, 171.803 190.857 C 171.086 190.403, 156.887 190.024, 140.250 190.015 L 110 190 110 160.223 C 110 134.890, 109.768 130.113, 108.443 128.223 C 106.702 125.736, 106.248 125.625, 103.750 127.080 M 58.607 219.250 C 64.446 230.938, 69.398 240.688, 69.612 240.917 C 69.825 241.146, 70 231.583, 70 219.667 L 70 198 58.995 198 L 47.991 198 58.607 219.250 " stroke="none" fill="black" fill-rule="evenodd"/>
</svg>