<svg xmlns="http://www.w3.org/2000/svg" width="372" height="324" viewBox="0 0 372 324" version="1.1">
	<path d="M 7.571 127.571 C 6.175 128.968, 6 136.372, 6 194 C 6 251.628, 6.175 259.032, 7.571 260.429 C 8.436 261.293, 9.529 262, 10 262 C 10.471 262, 11.564 261.293, 12.429 260.429 C 13.825 259.032, 14 251.628, 14 194 C 14 136.372, 13.825 128.968, 12.429 127.571 C 11.564 126.707, 10.471 126, 10 126 C 9.529 126, 8.436 126.707, 7.571 127.571 M 135.571 127.571 C 134.175 128.968, 134 136.372, 134 194 C 134 251.628, 134.175 259.032, 135.571 260.429 C 136.436 261.293, 137.529 262, 138 262 C 138.471 262, 139.564 261.293, 140.429 260.429 C 141.825 259.032, 142 251.628, 142 194 C 142 136.372, 141.825 128.968, 140.429 127.571 C 139.564 126.707, 138.471 126, 138 126 C 137.529 126, 136.436 126.707, 135.571 127.571 M 193.608 132.122 C 181.881 142.868, 172.408 158.828, 168.455 174.500 C 166.011 184.190, 165.991 202.076, 168.414 212 C 172.366 228.189, 181.458 243.578, 193.980 255.274 L 201.181 262 265.974 262 L 330.767 262 338.041 254.525 C 347.256 245.056, 351.251 239.521, 356.105 229.500 C 362.204 216.908, 364.259 207.692, 364.245 193 C 364.234 182.432, 363.826 179.141, 361.607 171.703 C 356.868 155.824, 349.332 143.386, 337.701 132.250 L 331.173 126 265.731 126 L 200.289 126 193.608 132.122 M 195.434 140.604 C 187.645 148.509, 180.921 159.585, 177.285 170.500 C 174.906 177.641, 174.614 180.057, 174.560 193 C 174.508 205.475, 174.825 208.547, 176.828 215 C 180.963 228.323, 190.656 243.387, 199.832 250.750 L 203.883 254 265.930 254 L 327.976 254 335.238 246.653 C 343.459 238.336, 349.539 228.387, 353.666 216.500 C 356.230 209.116, 356.442 207.345, 356.421 193.500 C 356.401 179.935, 356.143 177.735, 353.724 170.500 C 350.071 159.572, 343.347 148.501, 335.566 140.604 L 329.059 134 265.500 134 L 201.941 134 195.434 140.604 M 39.571 255.571 C 38.707 256.436, 38 257.529, 38 258 C 38 259.111, 40.889 262, 42 262 C 43.111 262, 46 259.111, 46 258 C 46 256.889, 43.111 254, 42 254 C 41.529 254, 40.436 254.707, 39.571 255.571 M 71.571 255.571 C 70.707 256.436, 70 257.529, 70 258 C 70 259.111, 72.889 262, 74 262 C 75.111 262, 78 259.111, 78 258 C 78 256.889, 75.111 254, 74 254 C 73.529 254, 72.436 254.707, 71.571 255.571 M 103.571 255.571 C 102.707 256.436, 102 257.529, 102 258 C 102 259.111, 104.889 262, 106 262 C 107.111 262, 110 259.111, 110 258 C 110 256.889, 107.111 254, 106 254 C 105.529 254, 104.436 254.707, 103.571 255.571 " stroke="none" fill="black" fill-rule="evenodd"/>
</svg>