<svg xmlns="http://www.w3.org/2000/svg" width="244" height="324" viewBox="0 0 244 324" version="1.1">
	<path d="M 7.571 127.571 C 6.207 128.936, 6 133.463, 6 162 C 6 190.537, 6.207 195.064, 7.571 196.429 C 8.844 197.701, 11.697 198, 22.575 198 L 36.006 198 21.020 227.961 C 12.777 244.439, 6.285 258.580, 6.594 259.384 C 7.265 261.133, 9.512 262.125, 11.274 261.448 C 11.975 261.180, 19.056 247.919, 27.010 231.980 C 34.964 216.041, 41.717 203, 42.016 203 C 42.315 203, 49.042 216.034, 56.965 231.964 C 69.336 256.836, 72.352 262, 74.510 262 C 74.701 262, 75.564 261.293, 76.429 260.429 C 77.825 259.032, 78 251.628, 78 194 C 78 136.372, 77.825 128.968, 76.429 127.571 C 74.455 125.598, 73.545 125.598, 71.571 127.571 C 70.212 128.931, 70 133.242, 70 159.571 L 70 190 42 190 L 14 190 14 159.571 C 14 133.242, 13.788 128.931, 12.429 127.571 C 11.564 126.707, 10.471 126, 10 126 C 9.529 126, 8.436 126.707, 7.571 127.571 M 194.355 126.986 C 183.790 129.214, 174.114 137.146, 169.329 147.500 C 167.037 152.460, 166.551 154.898, 166.528 161.563 C 166.503 168.882, 166.842 170.314, 170.197 177.063 L 173.893 184.500 137.947 220.545 C 118.176 240.369, 102 257.100, 102 257.723 C 102 259.197, 104.807 261.992, 106.321 262.027 C 106.970 262.041, 123.700 245.676, 143.500 225.659 L 179.500 189.265 184.500 192.109 C 187.250 193.674, 191.075 195.224, 193 195.554 C 194.925 195.884, 197.755 196.552, 199.288 197.038 C 200.836 197.529, 203.060 197.546, 204.288 197.076 C 205.505 196.610, 209.069 195.486, 212.208 194.577 C 223.640 191.267, 232.671 181.130, 235.552 168.373 C 236.995 161.983, 236.993 160.782, 235.529 154.470 C 231.872 138.700, 219.619 127.936, 203.768 126.567 C 200.870 126.316, 196.635 126.505, 194.355 126.986 M 191.627 135.468 C 183.862 138.236, 175.901 147.144, 174.394 154.750 L 173.750 158 185.875 158 L 198 158 198 146 C 198 132.823, 198.186 133.130, 191.627 135.468 M 205 146 L 205 158 217.019 158 L 229.038 158 228.379 155.250 C 227.505 151.607, 225.302 147.219, 222.396 143.335 C 220.160 140.346, 209.244 134, 206.340 134 C 205.294 134, 205 136.636, 205 146 M 174.022 167.250 C 174.061 169.484, 177.623 176.419, 180.451 179.770 C 183.673 183.587, 190.124 187.517, 194.750 188.481 L 198 189.159 198 177.579 L 198 166 186 166 C 177.055 166, 174.006 166.318, 174.022 167.250 M 205 177.500 C 205 190.315, 204.878 190.146, 211.823 186.994 C 220.516 183.049, 225.581 177.433, 227.976 169.084 L 228.860 166 216.930 166 L 205 166 205 177.500 M 58.607 219.250 C 64.446 230.938, 69.398 240.688, 69.612 240.917 C 69.825 241.146, 70 231.583, 70 219.667 L 70 198 58.995 198 L 47.991 198 58.607 219.250 " stroke="none" fill="black" fill-rule="evenodd"/>
</svg>