<svg xmlns="http://www.w3.org/2000/svg" width="403" height="324" viewBox="0 0 403 324" version="1.1">
	<path d="M 354.932 126.980 C 341.669 129.309, 329.643 140.771, 326.974 153.625 C 325.960 158.509, 325.614 159, 323.179 159.001 C 318.906 159.002, 308.877 164.344, 304.205 169.107 C 301.842 171.516, 298.692 175.965, 297.205 178.993 C 294.873 183.740, 294.500 185.743, 294.500 193.500 C 294.500 201.257, 294.873 203.260, 297.205 208.007 C 308.134 230.260, 336.635 235.417, 353.804 218.249 C 372.114 199.938, 364.298 167.672, 339.751 160.240 C 335.101 158.832, 334.003 158.094, 334.001 156.372 C 333.997 149.862, 341.602 140.038, 349.500 136.353 C 364.378 129.410, 383.017 137.930, 387.625 153.781 C 389.075 158.769, 389.073 159.989, 387.608 167.996 C 381.656 200.531, 362.181 230.113, 334.660 248.423 C 325.296 254.653, 324.031 256.128, 326.011 258.513 C 328.029 260.944, 330.082 260.289, 339.009 254.365 C 349.763 247.229, 367.925 229.064, 374.869 218.500 C 387.913 198.656, 397.152 171.455, 395.683 157.222 C 393.714 138.145, 374.128 123.609, 354.932 126.980 M 317.500 168.353 C 311.873 170.979, 305.871 177.089, 303.378 182.728 C 302.340 185.077, 301.711 189.141, 301.711 193.500 C 301.711 201.703, 303.431 206.254, 308.773 212.179 C 319.638 224.232, 338.403 224.034, 349.683 211.746 C 353.999 207.045, 357 199.561, 357 193.500 C 357 183.480, 349.989 172.797, 340.500 168.358 C 333.632 165.146, 324.377 165.144, 317.500 168.353 M 127.102 191.104 C 109.239 193.819, 91.690 205.214, 81.325 220.830 C 76.854 227.565, 72.419 238.707, 71.505 245.500 C 70.237 254.922, 73.708 254, 39.504 254 C 13.236 254, 8.931 254.212, 7.571 255.571 C 5.598 257.545, 5.598 258.455, 7.571 260.429 C 8.936 261.793, 13.463 262, 42 262 C 79.611 262, 78 262.374, 78 253.639 C 78 230.074, 97.916 206, 122.731 199.570 C 130.411 197.580, 143.825 197.554, 151.540 199.515 C 172.925 204.951, 189.621 221.468, 195.003 242.511 C 196.101 246.806, 197 252.482, 197 255.125 C 197 258.873, 197.431 260.160, 198.960 260.978 C 200.243 261.665, 212.363 261.936, 234.101 261.764 C 264.446 261.523, 267.377 261.350, 268.386 259.750 C 269.191 258.474, 269.191 257.526, 268.386 256.250 C 267.379 254.653, 264.518 254.477, 235.641 254.236 L 204 253.972 204 251.146 C 204 245.903, 200.081 232.947, 196.303 225.700 C 193.753 220.809, 189.954 215.890, 184.457 210.361 C 177.703 203.568, 174.806 201.478, 166.933 197.719 C 161.745 195.242, 155.475 192.743, 153 192.165 C 145.972 190.523, 134.123 190.038, 127.102 191.104 " stroke="none" fill="black" fill-rule="evenodd"/>
</svg>