<svg xmlns="http://www.w3.org/2000/svg" width="244" height="324" viewBox="0 0 244 324" version="1.1">
	<path d="M 231.750 127.080 C 230.148 128.013, 230 130.520, 230 156.786 L 230 185.473 216.131 171.631 C 203.495 159.019, 202.073 157.890, 200.131 158.930 C 198.959 159.557, 198 160.836, 198 161.772 C 198 162.708, 203.956 169.442, 211.236 176.737 L 224.472 190 164.808 190 C 111.900 190, 104.965 190.178, 103.571 191.571 C 101.598 193.545, 101.598 194.455, 103.571 196.429 C 104.965 197.822, 111.900 198, 164.808 198 L 224.472 198 211.236 211.263 C 203.956 218.558, 198 225.292, 198 226.228 C 198 227.164, 198.959 228.443, 200.131 229.070 C 202.073 230.110, 203.495 228.981, 216.131 216.369 L 230 202.527 230 231.228 C 230 259.433, 230.037 259.949, 232.117 261.062 C 237.076 263.716, 237.023 264.441, 237.023 194.069 C 237.023 123.438, 237.066 123.984, 231.750 127.080 M 7.571 191.571 C 6.707 192.436, 6 193.529, 6 194 C 6 194.471, 6.707 195.564, 7.571 196.429 C 8.936 197.793, 13.463 198, 42 198 C 70.537 198, 75.064 197.793, 76.429 196.429 C 77.293 195.564, 78 194.471, 78 194 C 78 193.529, 77.293 192.436, 76.429 191.571 C 75.064 190.207, 70.537 190, 42 190 C 13.463 190, 8.936 190.207, 7.571 191.571 " stroke="none" fill="black" fill-rule="evenodd"/>
</svg>