<svg xmlns="http://www.w3.org/2000/svg" width="516" height="324" viewBox="0 0 516 324" version="1.1">
	<path d="M 438.130 127.544 C 426.934 136.964, 421.344 159.609, 426.414 175 C 431.277 189.764, 443.188 202.286, 445.484 195.049 C 445.924 193.665, 444.848 191.557, 441.777 187.787 C 434.421 178.756, 432.508 173.230, 432.504 161 C 432.500 151.606, 432.793 149.875, 435.277 144.570 C 436.805 141.308, 439.647 136.696, 441.594 134.319 C 444.006 131.376, 444.942 129.391, 444.529 128.092 C 443.572 125.075, 441.295 124.881, 438.130 127.544 M 61.500 127.401 C 36.003 132.318, 15.028 151.893, 8.352 177 C 6.055 185.639, 6.055 201.361, 8.352 210 C 12.494 225.576, 23.742 241.101, 37.307 249.965 L 43.483 254 26.313 254 C 12.037 254, 8.878 254.265, 7.571 255.571 C 5.598 257.545, 5.598 258.455, 7.571 260.429 C 8.968 261.825, 16.372 262, 74 262 C 131.628 262, 139.032 261.825, 140.429 260.429 C 142.402 258.455, 142.402 257.545, 140.429 255.571 C 139.119 254.261, 135.917 254, 121.187 254 L 103.517 254 109.693 249.965 C 118.494 244.214, 128.961 232.622, 133.313 223.806 C 138.503 213.292, 140.376 205.255, 140.376 193.500 C 140.376 181.726, 138.514 173.758, 133.249 163 C 128.083 152.445, 114.546 138.911, 104 133.756 C 90.332 127.076, 75.043 124.790, 61.500 127.401 M 167.200 127.200 C 165.465 128.935, 165.465 259.065, 167.200 260.800 C 168.935 262.535, 299.065 262.535, 300.800 260.800 C 302.535 259.065, 302.535 128.935, 300.800 127.200 C 299.065 125.465, 168.935 125.465, 167.200 127.200 M 359.571 127.571 C 358.176 128.966, 358 136.152, 358 191.571 L 358 254 343.571 254 C 331.788 254, 328.855 254.288, 327.571 255.571 C 325.598 257.545, 325.598 258.455, 327.571 260.429 C 328.936 261.793, 333.463 262, 362 262 C 390.537 262, 395.064 261.793, 396.429 260.429 C 397.293 259.564, 398 258.471, 398 258 C 398 257.529, 397.293 256.436, 396.429 255.571 C 395.145 254.288, 392.212 254, 380.429 254 L 366 254 366 191.571 C 366 136.152, 365.824 128.966, 364.429 127.571 C 363.564 126.707, 362.471 126, 362 126 C 361.529 126, 360.436 126.707, 359.571 127.571 M 471.250 126.662 C 469.121 127.521, 469.864 131.041, 473.016 135.020 C 474.675 137.115, 477.262 141.454, 478.766 144.664 C 481.201 149.861, 481.500 151.650, 481.500 161 C 481.500 170.389, 481.206 172.127, 478.723 177.430 C 477.195 180.692, 474.353 185.304, 472.406 187.681 C 468.793 192.090, 468.472 195.200, 471.511 196.366 C 474.971 197.694, 483.324 187.009, 487.105 176.419 C 489.919 168.538, 490.144 154.765, 487.586 147 C 485.402 140.370, 481.933 134.132, 477.831 129.460 C 474.865 126.082, 473.805 125.631, 471.250 126.662 M 58.645 135.584 C 38.671 140.419, 20.279 158.986, 15.537 179.103 C 10.692 199.660, 16.632 220.728, 31.452 235.548 C 43.050 247.146, 57.154 253, 73.500 253 C 89.846 253, 103.950 247.146, 115.548 235.548 C 127.146 223.950, 133 209.846, 133 193.500 C 133 183.313, 131.503 176.931, 126.809 167.101 C 119.355 151.490, 102.910 138.527, 86.201 135.090 C 79.038 133.617, 65.791 133.854, 58.645 135.584 M 206.752 161.248 L 234 188.495 261.248 161.248 L 288.495 134 234 134 L 179.505 134 206.752 161.248 M 174 194 L 174 248.495 201.248 221.248 L 228.495 194 201.248 166.752 L 174 139.505 174 194 M 266.498 167.002 L 239.509 194.005 266.755 221.250 L 294 248.495 294 194.248 C 294 164.411, 293.884 140, 293.743 140 C 293.602 140, 281.341 152.151, 266.498 167.002 M 206.500 227 L 179.514 254 234 254 L 288.486 254 261.500 227 C 246.658 212.150, 234.283 200, 234 200 C 233.717 200, 221.342 212.150, 206.500 227 " stroke="none" fill="black" fill-rule="evenodd"/>
</svg>