<svg xmlns="http://www.w3.org/2000/svg" width="403" height="324" viewBox="0 0 403 324" version="1.1">
	<path d="M 167.585 127.558 C 165.598 129.545, 165.595 130.452, 167.571 132.429 C 168.855 133.712, 171.788 134, 183.571 134 L 198 134 198 162 L 198 190 183.571 190 C 171.788 190, 168.855 190.288, 167.571 191.571 C 165.598 193.545, 165.598 194.455, 167.571 196.429 C 168.855 197.712, 171.788 198, 183.571 198 L 198 198 198 226 L 198 254 183.571 254 C 171.788 254, 168.855 254.288, 167.571 255.571 C 165.595 257.548, 165.598 258.455, 167.585 260.442 C 168.978 261.835, 173.159 261.995, 202.226 261.763 C 232.452 261.523, 235.377 261.350, 236.386 259.750 C 237.190 258.475, 237.191 257.525, 236.387 256.250 C 235.430 254.730, 233.291 254.464, 220.142 254.224 L 205 253.948 205 226 L 205 198.052 220.142 197.776 C 233.291 197.536, 235.430 197.270, 236.387 195.750 C 237.191 194.475, 237.191 193.525, 236.387 192.250 C 235.430 190.730, 233.291 190.464, 220.142 190.224 L 205 189.948 205 162 L 205 134.052 220.142 133.776 C 233.291 133.536, 235.430 133.270, 236.387 131.750 C 237.191 130.475, 237.190 129.525, 236.386 128.250 C 235.377 126.650, 232.452 126.477, 202.226 126.237 C 173.159 126.005, 168.978 126.165, 167.585 127.558 M 279.239 143.260 C 269.758 152.754, 262 161.288, 262 162.225 C 262 163.163, 262.959 164.443, 264.131 165.070 C 266.073 166.110, 267.495 164.981, 280.131 152.369 L 294 138.527 294 199.228 C 294 259.533, 294.013 259.937, 296.064 261.034 C 301.059 263.708, 301 264.453, 301 199.174 L 301 138.592 314.913 152.378 C 327.627 164.976, 329.011 166.065, 330.973 165.014 C 332.266 164.323, 332.998 163.103, 332.811 161.953 C 332.468 159.845, 299.279 126, 297.554 126 C 296.963 126, 288.721 133.767, 279.239 143.260 M 359.724 127.134 C 358.121 128.031, 358 132.373, 358 188.754 L 358 249.408 344.087 235.622 C 331.537 223.187, 329.970 221.946, 328.087 222.953 C 326.939 223.568, 326 224.847, 326 225.796 C 326 227.590, 359.761 262, 361.521 262 C 363.266 262, 397 227.556, 397 225.775 C 397 224.837, 396.061 223.568, 394.913 222.953 C 393.030 221.946, 391.463 223.187, 378.913 235.622 L 365 249.408 365 188.739 C 365 131.647, 364.895 128.014, 363.224 127.120 C 362.098 126.517, 360.818 126.522, 359.724 127.134 M 7.579 191.564 C 5.598 193.545, 5.596 194.454, 7.571 196.429 C 8.844 197.701, 11.697 198, 22.575 198 L 36.006 198 21.020 227.961 C 12.777 244.439, 6.285 258.580, 6.594 259.384 C 7.265 261.133, 9.512 262.125, 11.274 261.448 C 11.975 261.180, 19.056 247.919, 27.010 231.980 C 34.964 216.041, 41.717 203, 42.016 203 C 42.315 203, 49.042 216.034, 56.965 231.964 C 64.888 247.894, 71.962 261.155, 72.685 261.433 C 73.408 261.710, 74.573 261.717, 75.274 261.448 C 75.975 261.180, 83.056 247.919, 91.010 231.980 C 98.964 216.041, 105.710 203, 106 203 C 106.290 203, 113.036 216.041, 120.990 231.980 C 128.944 247.919, 136.083 261.201, 136.853 261.497 C 138.718 262.213, 141 260.217, 141 257.871 C 141 256.835, 134.480 242.952, 126.511 227.021 L 112.021 198.056 125.653 197.778 C 137.361 197.539, 139.441 197.253, 140.388 195.750 C 141.191 194.475, 141.190 193.525, 140.386 192.250 C 139.356 190.617, 134.934 190.483, 74.220 190.243 C 16.058 190.013, 8.990 190.153, 7.579 191.564 M 60.743 223.500 C 67.750 237.525, 73.715 249, 74 249 C 74.285 249, 80.250 237.525, 87.257 223.500 L 99.995 198 74 198 L 48.005 198 60.743 223.500 M 199.750 287.080 C 197.372 288.465, 197.542 291.685, 200.064 293.034 C 203.753 295.008, 206.819 290.219, 203.800 287.200 C 202.367 285.767, 202.022 285.757, 199.750 287.080 " stroke="none" fill="black" fill-rule="evenodd"/>
</svg>