<svg xmlns="http://www.w3.org/2000/svg" width="276" height="324" viewBox="0 0 276 324" version="1.1">
	<path d="M 7.200 127.200 C 5.465 128.935, 5.465 259.065, 7.200 260.800 C 8.919 262.519, 75.081 262.519, 76.800 260.800 C 78.535 259.065, 78.535 128.935, 76.800 127.200 C 75.081 125.481, 8.919 125.481, 7.200 127.200 M 231.571 127.571 C 230.176 128.966, 230 136.152, 230 191.571 L 230 254 215.571 254 C 203.788 254, 200.855 254.288, 199.571 255.571 C 197.598 257.545, 197.598 258.455, 199.571 260.429 C 200.936 261.793, 205.463 262, 234 262 C 262.537 262, 267.064 261.793, 268.429 260.429 C 269.293 259.564, 270 258.471, 270 258 C 270 257.529, 269.293 256.436, 268.429 255.571 C 267.145 254.288, 264.212 254, 252.429 254 L 238 254 238 191.571 C 238 136.152, 237.824 128.966, 236.429 127.571 C 235.564 126.707, 234.471 126, 234 126 C 233.529 126, 232.436 126.707, 231.571 127.571 M 14 194 L 14 254 42 254 L 70 254 70 194 L 70 134 42 134 L 14 134 14 194 M 103.571 191.571 C 102.707 192.436, 102 193.640, 102 194.249 C 102 194.857, 108.844 202.250, 117.208 210.677 L 132.416 226 117.208 241.323 C 108.844 249.750, 102 257.143, 102 257.751 C 102 259.181, 104.819 262, 106.249 262 C 106.857 262, 114.250 255.156, 122.677 246.792 L 138 231.584 153.323 246.792 C 161.750 255.156, 169.143 262, 169.751 262 C 171.181 262, 174 259.181, 174 257.751 C 174 257.143, 167.156 249.750, 158.792 241.323 L 143.584 226 158.792 210.677 C 167.156 202.250, 174 194.857, 174 194.249 C 174 192.819, 171.181 190, 169.751 190 C 169.143 190, 161.750 196.844, 153.323 205.208 L 138 220.416 122.677 205.208 C 114.250 196.844, 106.857 190, 106.249 190 C 105.640 190, 104.436 190.707, 103.571 191.571 " stroke="none" fill="black" fill-rule="evenodd"/>
</svg>