<svg xmlns="http://www.w3.org/2000/svg" width="244" height="324" viewBox="0 0 244 324" version="1.1">
	<path d="M 103.571 159.571 C 102.707 160.436, 102 161.636, 102 162.239 C 102 162.841, 107.941 169.334, 115.202 176.667 L 128.405 190 68.774 190 C 15.897 190, 8.965 190.178, 7.571 191.571 C 5.598 193.545, 5.598 194.455, 7.571 196.429 C 8.965 197.822, 15.897 198, 68.774 198 L 128.405 198 115.202 211.333 C 107.941 218.666, 102 225.159, 102 225.761 C 102 227.202, 104.832 230, 106.290 230 C 107.969 230, 142 195.693, 142 194 C 142 192.307, 107.969 158, 106.290 158 C 105.659 158, 104.436 158.707, 103.571 159.571 M 167.750 191.073 C 165.423 192.438, 165.524 195.675, 167.934 196.965 C 169.005 197.538, 176.151 198, 183.934 198 L 198 198 198 226 L 198 254 183.934 254 C 169.308 254, 166 254.738, 166 258 C 166 261.750, 168.791 262.037, 202.601 261.764 C 232.469 261.523, 235.378 261.349, 236.386 259.750 C 237.190 258.475, 237.191 257.525, 236.387 256.250 C 235.430 254.730, 233.291 254.464, 220.142 254.224 L 205 253.948 205 226 L 205 198.052 220.142 197.776 C 233.291 197.536, 235.430 197.270, 236.387 195.750 C 237.191 194.475, 237.190 193.525, 236.386 192.250 C 235.377 190.649, 232.483 190.481, 202.391 190.273 C 181.280 190.127, 168.873 190.414, 167.750 191.073 M 31.263 239.514 C 19.506 242.068, 4.474 252.261, 5.174 257.204 C 5.705 260.947, 9.625 260.749, 13.870 256.764 C 18.715 252.216, 22.106 250.200, 28.756 247.912 C 43.220 242.936, 62.236 247.934, 71.017 259.021 C 79.721 270.012, 98.288 275.872, 113.976 272.581 C 130.781 269.056, 144.762 258.001, 137.873 253.685 C 136.605 252.890, 135.264 253.469, 131.803 256.305 C 129.359 258.308, 124.692 261.195, 121.430 262.723 C 116.127 265.206, 114.389 265.500, 105 265.500 C 95.344 265.500, 93.977 265.252, 88 262.418 C 83.615 260.339, 79.554 257.310, 75.522 253.110 C 68.411 245.705, 58.680 240.538, 49 239.029 C 40.928 237.770, 39.055 237.821, 31.263 239.514 " stroke="none" fill="black" fill-rule="evenodd"/>
</svg>