<svg xmlns="http://www.w3.org/2000/svg" width="308" height="324" viewBox="0 0 308 324" version="1.1">
	<path d="M 63.102 127.104 C 37.582 130.982, 15.178 151.424, 8.414 177 C 6.134 185.626, 6.134 201.374, 8.414 210 C 11.688 222.378, 16.581 230.659, 26.461 240.539 C 40.473 254.551, 54.166 260.304, 73.500 260.304 C 85.636 260.304, 93.507 258.373, 104.500 252.697 C 114.958 247.297, 126.889 235.544, 132.264 225.348 C 146.412 198.512, 141.626 167.296, 120.095 145.981 C 104.892 130.930, 83.831 123.955, 63.102 127.104 M 167.750 127.080 C 166.111 128.035, 166 132.293, 166 194.015 C 166 259.587, 166.011 259.935, 168.064 261.034 C 169.596 261.854, 170.498 261.832, 171.564 260.947 C 172.755 259.958, 173 254.493, 173 228.878 L 173 198 233.500 198 L 294 198 294 228.965 C 294 258.140, 294.108 259.987, 295.862 260.926 C 297.158 261.620, 298.224 261.555, 299.372 260.711 C 300.879 259.604, 300.998 253.842, 300.760 193.609 C 300.517 132.113, 300.383 127.644, 298.750 126.614 C 297.243 125.664, 292.527 129.983, 264.745 157.755 L 232.489 190 202.744 190 L 173 190 173 159.200 C 173 125.561, 172.770 124.156, 167.750 127.080 M 57.500 135.870 C 37.436 141.645, 20.733 158.691, 15.585 178.644 C 13.554 186.517, 13.554 200.483, 15.585 208.356 C 20.838 228.716, 38.284 246.162, 58.644 251.415 C 65.760 253.251, 78.565 253.481, 86.201 251.910 C 89.115 251.310, 95.244 249.032, 99.820 246.847 C 115.079 239.562, 126.717 225.246, 131.003 208.489 C 132.101 204.194, 133 200.077, 133 199.340 C 133 198.250, 127.480 198, 103.434 198 C 84.966 198, 73.142 197.611, 71.934 196.965 C 70.086 195.976, 70 194.555, 70 164.965 L 70 134 66.750 134.071 C 64.963 134.110, 60.800 134.920, 57.500 135.870 M 78 162 L 78 190 105.500 190 C 137.156 190, 134.273 191.299, 131.003 178.511 C 125.680 157.698, 108.268 140.339, 87.897 135.537 C 76.926 132.951, 78 130.080, 78 162 M 268 164.500 L 242.515 190 268.257 190 L 294 190 294 164.500 C 294 150.475, 293.884 139, 293.743 139 C 293.601 139, 282.017 150.475, 268 164.500 " stroke="none" fill="black" fill-rule="evenodd"/>
</svg>