<svg xmlns="http://www.w3.org/2000/svg" width="500" height="324" viewBox="0 0 500 324" version="1.1">
	<path d="M 231.250 159.237 L 198 192.511 198 226.056 C 198 250.812, 198.314 259.914, 199.200 260.800 C 200.109 261.709, 216.200 262, 265.500 262 C 314.800 262, 330.891 261.709, 331.800 260.800 C 332.686 259.914, 332.999 250.814, 332.997 226.050 L 332.994 192.500 300.031 159.500 C 281.902 141.350, 266.490 126.379, 265.784 126.232 C 265.078 126.084, 249.537 140.936, 231.250 159.237 M 423.200 127.200 C 422.292 128.108, 422 143.689, 422 191.200 L 422 254 391.934 254 C 373.122 254, 361.145 254.387, 359.934 255.035 C 357.440 256.370, 357.448 259.634, 359.948 260.972 C 361.256 261.672, 383.132 261.930, 426.589 261.757 C 486.951 261.517, 491.356 261.383, 492.386 259.750 C 493.191 258.474, 493.191 257.526, 492.386 256.250 C 491.380 254.654, 488.542 254.477, 460.141 254.236 L 429 253.972 429 225.986 L 429 198 459.800 198 C 482.422 198, 490.919 197.681, 491.800 196.800 C 493.519 195.081, 493.519 128.919, 491.800 127.200 C 490.082 125.482, 424.918 125.482, 423.200 127.200 M 429 162 L 429 190 457.500 190 L 486 190 486 162 L 486 134 457.500 134 L 429 134 429 162 M 235.236 165.280 L 205 195.576 205 224.788 L 205 254 265.500 254 L 326 254 326 224.744 L 326 195.488 295.736 165.236 L 265.472 134.984 235.236 165.280 M 7.571 191.571 C 6.707 192.436, 6 193.640, 6 194.249 C 6 194.857, 12.844 202.250, 21.208 210.677 L 36.416 226 21.208 241.323 C 12.844 249.750, 6 257.143, 6 257.751 C 6 259.181, 8.819 262, 10.249 262 C 10.857 262, 18.250 255.156, 26.677 246.792 L 42 231.584 57.323 246.792 C 65.750 255.156, 73.143 262, 73.751 262 C 75.181 262, 78 259.181, 78 257.751 C 78 257.143, 71.156 249.750, 62.792 241.323 L 47.584 226 62.792 210.677 C 71.156 202.250, 78 194.857, 78 194.249 C 78 192.819, 75.181 190, 73.751 190 C 73.143 190, 65.750 196.844, 57.323 205.208 L 42 220.416 26.677 205.208 C 18.250 196.844, 10.857 190, 10.249 190 C 9.640 190, 8.436 190.707, 7.571 191.571 M 103.571 191.571 C 102.707 192.436, 102 193.640, 102 194.249 C 102 194.857, 108.844 202.250, 117.208 210.677 L 132.416 226 117.208 241.323 C 108.844 249.750, 102 257.143, 102 257.751 C 102 259.181, 104.819 262, 106.249 262 C 106.857 262, 114.250 255.156, 122.677 246.792 L 138 231.584 153.323 246.792 C 161.750 255.156, 169.085 262, 169.623 262 C 171.052 262, 173 259.816, 173 258.213 C 173 257.451, 166.475 250.017, 158.500 241.693 C 150.525 233.370, 144 226.231, 144 225.828 C 144 225.425, 150.525 218.378, 158.500 210.169 C 166.475 201.960, 173 194.604, 173 193.822 C 173 192.190, 171.065 190, 169.623 190 C 169.085 190, 161.750 196.844, 153.323 205.208 L 138 220.416 122.677 205.208 C 114.250 196.844, 106.857 190, 106.249 190 C 105.640 190, 104.436 190.707, 103.571 191.571 " stroke="none" fill="black" fill-rule="evenodd"/>
</svg>