<svg xmlns="http://www.w3.org/2000/svg" width="340" height="324" viewBox="0 0 340 324" version="1.1">
	<path d="M 130.223 127.062 C 120.059 129.065, 110.033 137.381, 105.189 147.825 C 103.038 152.462, 102.556 154.964, 102.556 161.500 C 102.556 171.073, 105.375 178.197, 112.013 185.398 C 116.634 190.411, 126.727 196, 131.160 196 L 134 196 134 227.429 C 134 254.667, 134.210 259.067, 135.571 260.429 C 136.436 261.293, 137.529 262, 138 262 C 138.471 262, 139.564 261.293, 140.429 260.429 C 141.790 259.067, 142 254.667, 142 227.429 C 142 200.517, 142.210 196, 143.462 196 C 148.056 196, 156.841 191.319, 162.080 186.080 C 181.521 166.639, 172.019 133.685, 145.147 127.360 C 138.857 125.880, 136.464 125.832, 130.223 127.062 M 199.571 127.571 C 198.175 128.968, 198 136.372, 198 194 C 198 251.628, 198.175 259.032, 199.571 260.429 C 201.678 262.535, 202.598 262.412, 204.443 259.777 C 205.813 257.823, 206 249.904, 206 194 C 206 138.096, 205.813 130.177, 204.443 128.223 C 202.598 125.588, 201.678 125.465, 199.571 127.571 M 327.750 127.080 C 326.111 128.035, 326 132.293, 326 194.015 C 326 259.587, 326.011 259.935, 328.064 261.034 C 333.084 263.721, 333 264.854, 333 194.078 C 333 123.068, 333.071 123.981, 327.750 127.080 M 127.463 135.591 C 121.971 137.541, 116.552 142.205, 113.249 147.824 C 110.800 151.989, 110.500 153.483, 110.500 161.500 C 110.500 169.517, 110.800 171.011, 113.249 175.176 C 121.926 189.937, 141.604 193.610, 155.031 182.976 C 160.751 178.445, 165 169.292, 165 161.500 C 165 150.038, 157.486 139.200, 146.965 135.488 C 141.740 133.644, 132.813 133.692, 127.463 135.591 M 263.750 159.080 C 262.207 159.979, 262 161.866, 262 175.050 L 262 190 247.571 190 C 235.788 190, 232.855 190.288, 231.571 191.571 C 229.598 193.545, 229.598 194.455, 231.571 196.429 C 232.855 197.712, 235.788 198, 247.571 198 L 262 198 262 212.965 C 262 227.061, 262.120 227.994, 264.064 229.034 C 268.315 231.309, 269 229.069, 269 212.904 L 269 198.052 284.142 197.776 C 297.291 197.536, 299.430 197.270, 300.387 195.750 C 301.191 194.475, 301.191 193.525, 300.387 192.250 C 299.430 190.730, 297.291 190.464, 284.142 190.224 L 269 189.948 269 175.174 C 269 158.586, 268.297 156.432, 263.750 159.080 M 7.571 191.571 C 6.707 192.436, 6 193.640, 6 194.249 C 6 194.857, 12.844 202.250, 21.208 210.677 L 36.416 226 21.208 241.323 C 12.844 249.750, 6 257.143, 6 257.751 C 6 259.181, 8.819 262, 10.249 262 C 10.857 262, 18.250 255.156, 26.677 246.792 L 42 231.584 57.323 246.792 C 65.750 255.156, 73.143 262, 73.751 262 C 75.181 262, 78 259.181, 78 257.751 C 78 257.143, 71.156 249.750, 62.792 241.323 L 47.584 226 62.792 210.677 C 71.156 202.250, 78 194.857, 78 194.249 C 78 192.819, 75.181 190, 73.751 190 C 73.143 190, 65.750 196.844, 57.323 205.208 L 42 220.416 26.677 205.208 C 18.250 196.844, 10.857 190, 10.249 190 C 9.640 190, 8.436 190.707, 7.571 191.571 " stroke="none" fill="black" fill-rule="evenodd"/>
</svg>