<svg xmlns="http://www.w3.org/2000/svg" width="403" height="324" viewBox="0 0 403 324" version="1.1">
	<path d="M 194.355 158.998 C 183.822 161.188, 174.117 169.138, 169.329 179.500 C 165.374 188.059, 165.386 198.895, 169.361 207.610 C 178.830 228.373, 204.381 234.913, 222.500 221.212 C 227.866 217.154, 233.383 208.986, 235.138 202.500 C 236.952 195.795, 235.742 184.321, 232.553 178 C 225.551 164.118, 209.097 155.933, 194.355 158.998 M 191.885 167.380 C 176.986 172.704, 169.526 190.094, 175.929 204.573 C 180.388 214.659, 188.281 220.062, 199.616 220.789 C 206.399 221.224, 207.556 221.001, 213.397 218.125 C 225.374 212.229, 231.511 198.958, 228.096 186.337 C 224.933 174.647, 213.616 165.959, 201.663 166.044 C 198.273 166.068, 193.873 166.669, 191.885 167.380 M 7.579 191.564 C 5.598 193.545, 5.596 194.454, 7.571 196.429 C 8.844 197.701, 11.697 198, 22.575 198 L 36.006 198 21.020 227.961 C 12.777 244.439, 6.285 258.580, 6.594 259.384 C 7.265 261.133, 9.512 262.125, 11.274 261.448 C 11.975 261.180, 19.056 247.919, 27.010 231.980 C 34.964 216.041, 41.717 203, 42.016 203 C 42.315 203, 49.042 216.034, 56.965 231.964 C 64.888 247.894, 71.962 261.155, 72.685 261.433 C 73.408 261.710, 74.573 261.717, 75.274 261.448 C 75.975 261.180, 83.056 247.919, 91.010 231.980 C 98.964 216.041, 105.710 203, 106 203 C 106.290 203, 113.036 216.041, 120.990 231.980 C 128.944 247.919, 136.083 261.201, 136.853 261.497 C 138.718 262.213, 141 260.217, 141 257.871 C 141 256.835, 134.480 242.952, 126.511 227.021 L 112.021 198.056 125.653 197.778 C 137.361 197.539, 139.441 197.253, 140.388 195.750 C 141.191 194.475, 141.190 193.525, 140.386 192.250 C 139.356 190.617, 134.934 190.483, 74.220 190.243 C 16.058 190.013, 8.990 190.153, 7.579 191.564 M 263.750 191.080 C 261.422 192.436, 261.524 195.675, 263.934 196.965 C 264.998 197.534, 271.523 198, 278.434 198 C 285.345 198, 291 198.228, 291 198.507 C 291 198.785, 284.475 212.057, 276.500 228 C 268.525 243.943, 262 257.649, 262 258.458 C 262 260.212, 265.612 262.358, 267.059 261.464 C 267.618 261.118, 274.610 247.773, 282.596 231.809 C 290.582 215.844, 297.427 203.087, 297.808 203.459 C 298.189 203.831, 305.025 217.042, 313 232.817 C 324.720 256, 327.884 261.500, 329.500 261.500 C 331.119 261.500, 334.362 255.829, 346.514 231.750 L 361.527 201.999 376.014 231.084 C 383.981 247.080, 391.187 260.542, 392.026 260.999 C 393.903 262.022, 397 260.431, 397 258.444 C 397 257.642, 390.475 243.943, 382.500 228 C 374.525 212.057, 368 198.785, 368 198.507 C 368 198.228, 373.655 198, 380.566 198 C 393.724 198, 397 197.203, 397 194 C 397 192.939, 396.130 191.605, 395.066 191.035 C 392.420 189.619, 266.184 189.662, 263.750 191.080 M 60.743 223.500 C 67.750 237.525, 73.715 249, 74 249 C 74.285 249, 80.250 237.525, 87.257 223.500 L 99.995 198 74 198 L 48.005 198 60.743 223.500 M 304.054 198.750 C 304.083 199.162, 309.824 210.865, 316.810 224.755 L 329.513 250.011 342.256 224.500 C 349.265 210.469, 355 198.767, 355 198.495 C 355 198.223, 343.525 198, 329.500 198 C 315.475 198, 304.024 198.338, 304.054 198.750 M 167.585 255.558 C 166.713 256.430, 166 257.529, 166 258 C 166 258.471, 166.713 259.570, 167.585 260.442 C 168.978 261.835, 173.159 261.995, 202.226 261.763 C 232.452 261.523, 235.377 261.350, 236.386 259.750 C 237.191 258.474, 237.191 257.526, 236.386 256.250 C 235.377 254.650, 232.452 254.477, 202.226 254.237 C 173.159 254.005, 168.978 254.165, 167.585 255.558 " stroke="none" fill="black" fill-rule="evenodd"/>
</svg>