<svg xmlns="http://www.w3.org/2000/svg" width="244" height="324" viewBox="0 0 244 324" version="1.1">
	<path d="M 72.316 62.784 C 70.369 64.022, 54.007 97.855, 54.604 99.410 C 55.269 101.144, 57.524 102.120, 59.295 101.440 C 60.007 101.167, 63.480 95.106, 67.014 87.972 C 70.547 80.837, 73.691 75, 74 75 C 74.309 75, 77.453 80.837, 80.986 87.972 C 84.520 95.106, 88.076 101.199, 88.889 101.511 C 89.701 101.823, 91.219 101.225, 92.261 100.183 C 94.121 98.324, 93.994 97.966, 85.456 80.894 C 76.033 62.053, 75.222 60.935, 72.316 62.784 M 199.285 159.230 C 180.978 177.506, 166 193.166, 166 194.030 C 166 197.785, 167.649 198, 196.427 198 L 224.455 198 195.227 227.289 C 179.152 243.398, 166 257.091, 166 257.718 C 166 259.207, 168.984 262.174, 170.100 261.795 C 171.372 261.363, 238 194.696, 238 193.856 C 238 193.464, 237.293 192.436, 236.429 191.571 C 235.074 190.217, 230.963 190, 206.685 190 L 178.513 190 207.756 160.744 C 223.840 144.653, 237 130.793, 237 129.944 C 237 128.191, 235.103 126, 233.585 126 C 233.026 126, 217.591 140.953, 199.285 159.230 M 7.515 191.627 C 4.472 194.671, 7.724 211.409, 13.807 224 C 16.625 229.833, 19.438 233.508, 26.465 240.535 C 36.314 250.384, 44.468 255.197, 57 258.560 C 65.648 260.881, 81.335 260.883, 90 258.566 C 111.438 252.832, 129.705 235.705, 137.002 214.495 C 139.762 206.472, 141.445 193.241, 139.936 191.423 C 138.937 190.219, 128.769 190, 73.949 190 C 15.421 190, 8.985 190.158, 7.515 191.627 M 14 200.106 C 14 201.264, 14.713 204.976, 15.585 208.356 C 20.889 228.914, 38.828 246.683, 59.103 251.463 C 66.646 253.241, 78.760 253.441, 86.201 251.910 C 89.115 251.310, 95.244 249.032, 99.820 246.847 C 116.772 238.754, 129.751 221.181, 132.547 202.538 L 133.227 198 73.614 198 L 14 198 14 200.106 " stroke="none" fill="black" fill-rule="evenodd"/>
</svg>