<svg xmlns="http://www.w3.org/2000/svg" width="403" height="324" viewBox="0 0 403 324" version="1.1">
	<path d="M 7.571 127.571 C 6.175 128.968, 6 136.372, 6 194 C 6 251.628, 6.175 259.032, 7.571 260.429 C 8.968 261.825, 16.372 262, 74 262 C 131.628 262, 139.032 261.825, 140.429 260.429 C 141.825 259.032, 142 251.628, 142 194 C 142 136.372, 141.825 128.968, 140.429 127.571 C 139.032 126.175, 131.628 126, 74 126 C 16.372 126, 8.968 126.175, 7.571 127.571 M 167.750 127.080 C 166.787 127.641, 166 128.869, 166 129.810 C 166 131.606, 295.780 262, 297.568 262 C 299.104 262, 301 259.816, 301 258.047 C 301 256.684, 171.273 125.952, 169.997 126.030 C 169.724 126.047, 168.713 126.519, 167.750 127.080 M 14 194 L 14 254 42 254 L 70 254 70 194 L 70 134 42 134 L 14 134 14 194 M 78 194 L 78 254 106 254 L 134 254 134 194 L 134 134 106 134 L 78 134 78 194 M 352 159.594 C 337.154 163.540, 326 178.085, 326 193.500 C 326 214.526, 346.145 231.930, 366.171 228.205 C 383.581 224.968, 394.809 212.382, 395.777 195.020 C 396.109 189.047, 395.757 186.337, 394.062 181.847 C 389.738 170.389, 381.140 162.574, 369.530 159.550 C 362.335 157.676, 359.185 157.684, 352 159.594 M 352.994 166.934 C 345.681 169.159, 338.550 175.553, 335.378 182.728 C 333.161 187.744, 333.161 199.256, 335.378 204.272 C 337.662 209.439, 343.537 215.721, 348.432 218.231 C 354.736 221.462, 365.244 221.811, 371.767 219.005 C 377.566 216.510, 384.297 209.855, 386.750 204.190 C 388.845 199.355, 388.856 187.671, 386.771 182.860 C 384.389 177.362, 378.095 170.964, 372.500 168.353 C 367.348 165.948, 358.379 165.296, 352.994 166.934 M 359.040 191.452 C 356.392 194.642, 360.299 199.657, 363.416 197.070 C 365.297 195.508, 365.470 192.870, 363.800 191.200 C 362.197 189.597, 360.505 189.686, 359.040 191.452 M 327.213 255.187 C 325.601 256.799, 325.675 259.485, 327.369 260.891 C 328.345 261.701, 338.290 261.952, 362.010 261.764 C 392.441 261.523, 395.377 261.351, 396.386 259.750 C 397.191 258.474, 397.191 257.526, 396.386 256.250 C 395.377 254.649, 392.434 254.478, 361.854 254.237 C 336.691 254.039, 328.126 254.274, 327.213 255.187 " stroke="none" fill="black" fill-rule="evenodd"/>
</svg>