<svg xmlns="http://www.w3.org/2000/svg" width="372" height="324" viewBox="0 0 372 324" version="1.1">
	<path d="M 7.571 127.571 C 6.175 128.968, 6 136.372, 6 194 C 6 251.628, 6.175 259.032, 7.571 260.429 C 8.968 261.825, 16.372 262, 74 262 C 131.628 262, 139.032 261.825, 140.429 260.429 C 141.825 259.032, 142 251.628, 142 194 C 142 136.372, 141.825 128.968, 140.429 127.571 C 139.032 126.175, 131.628 126, 74 126 C 16.372 126, 8.968 126.175, 7.571 127.571 M 322.344 126.991 C 309.452 129.697, 297.280 141.888, 295.179 154.199 C 294.485 158.263, 294.263 158.485, 290.199 159.179 C 280.283 160.872, 270.024 169.349, 265.216 179.825 C 261.512 187.894, 261.512 199.106, 265.216 207.175 C 274.064 226.451, 295.998 234.070, 314.288 224.219 C 327.303 217.210, 334.883 201.437, 331.986 187.396 C 330.440 179.907, 327.908 174.941, 322.826 169.427 C 318.565 164.804, 308.275 159, 304.340 159 C 301.558 159, 301.463 157.934, 303.667 151.463 C 305.858 145.033, 312.870 138.072, 319.500 135.745 C 330.227 131.980, 341.428 134.333, 349.048 141.952 C 356.663 149.568, 358.380 157.309, 355.495 171.022 C 348.801 202.848, 329.298 231.453, 302.500 248.751 C 293.964 254.260, 292.733 255.632, 294.074 258.138 C 295.695 261.167, 298.349 260.347, 308.184 253.781 C 331.277 238.366, 350.995 212.020, 359.286 185.500 C 363.744 171.240, 365.250 161.802, 364.077 155.460 C 360.544 136.345, 341.069 123.061, 322.344 126.991 M 14 194 L 14 254 42 254 L 70 254 70 194 L 70 134 42 134 L 14 134 14 194 M 78 194 L 78 254 106 254 L 134 254 134 194 L 134 134 106 134 L 78 134 78 194 M 199.571 159.571 C 198.707 160.436, 198 161.529, 198 162 C 198 162.471, 198.707 163.564, 199.571 164.429 C 200.436 165.293, 201.529 166, 202 166 C 202.471 166, 203.564 165.293, 204.429 164.429 C 205.293 163.564, 206 162.471, 206 162 C 206 161.529, 205.293 160.436, 204.429 159.571 C 203.564 158.707, 202.471 158, 202 158 C 201.529 158, 200.436 158.707, 199.571 159.571 M 287.054 167.728 C 281.018 169.859, 273.781 177.260, 271.667 183.463 C 267.964 194.333, 270.320 205.225, 278.048 212.952 C 288.957 223.862, 306.043 223.862, 316.952 212.952 C 327.862 202.043, 327.862 184.957, 316.952 174.048 C 309.269 166.364, 297.789 163.938, 287.054 167.728 M 167.571 191.571 C 166.707 192.436, 166 193.529, 166 194 C 166 194.471, 166.707 195.564, 167.571 196.429 C 168.936 197.793, 173.463 198, 202 198 C 230.537 198, 235.064 197.793, 236.429 196.429 C 237.293 195.564, 238 194.471, 238 194 C 238 193.529, 237.293 192.436, 236.429 191.571 C 235.064 190.207, 230.537 190, 202 190 C 173.463 190, 168.936 190.207, 167.571 191.571 M 199.571 223.571 C 198.707 224.436, 198 225.529, 198 226 C 198 226.471, 198.707 227.564, 199.571 228.429 C 200.436 229.293, 201.529 230, 202 230 C 202.471 230, 203.564 229.293, 204.429 228.429 C 205.293 227.564, 206 226.471, 206 226 C 206 225.529, 205.293 224.436, 204.429 223.571 C 203.564 222.707, 202.471 222, 202 222 C 201.529 222, 200.436 222.707, 199.571 223.571 " stroke="none" fill="black" fill-rule="evenodd"/>
</svg>