<svg xmlns="http://www.w3.org/2000/svg" width="468" height="324" viewBox="0 0 468 324" version="1.1">
	<path d="M 63.870 127.071 C 56.345 128.176, 46.724 131.478, 40 135.262 C 32.923 139.244, 19.244 152.923, 15.262 160 C 3.005 181.779, 3.709 209.101, 17.055 229.585 C 27.944 246.298, 45.236 257.195, 65.409 260.055 L 71.318 260.893 87.976 277.447 C 97.137 286.551, 105.134 294, 105.745 294 C 107.178 294, 110 291.185, 110 289.756 C 110 289.150, 103.682 282.283, 95.961 274.495 L 81.922 260.336 87.711 259.056 C 109.935 254.145, 129.284 237.137, 136.609 216.076 C 141.721 201.376, 141.828 186.378, 136.926 171.747 C 130.779 153.399, 114.372 136.754, 96.205 130.436 C 84.801 126.471, 74.941 125.444, 63.870 127.071 M 223.870 127.071 C 216.345 128.176, 206.724 131.478, 200 135.262 C 192.923 139.244, 179.244 152.923, 175.262 160 C 165.622 177.129, 163.874 197.335, 170.406 216.119 C 177.389 236.196, 196.592 253.593, 217.076 258.397 C 224.951 260.244, 232.990 261.496, 235 261.188 C 246.770 259.384, 250.320 258.610, 256.205 256.564 C 274.002 250.374, 290.385 233.972, 296.589 216.131 C 301.714 201.395, 301.834 186.395, 296.945 171.803 C 290.778 153.396, 274.396 136.763, 256.205 130.436 C 244.801 126.471, 234.941 125.444, 223.870 127.071 M 355.045 127.092 C 338.307 130.373, 326.848 144.460, 326.650 162 C 326.547 171.117, 329.762 179.068, 336.301 185.866 C 340.569 190.304, 350.823 195.998, 354.550 195.999 C 357.168 196, 359 197.832, 359.001 200.450 C 359.002 204.180, 364.697 214.433, 369.134 218.693 C 373.629 223.010, 382.927 227.973, 386.550 227.990 C 389.171 228.003, 391 229.835, 391.001 232.450 C 391.002 236.177, 396.696 246.431, 401.134 250.699 C 407.932 257.238, 415.883 260.453, 425 260.350 C 443.609 260.139, 457.511 247.941, 460.361 229.322 C 460.981 225.270, 459.480 222, 457 222 C 455.208 222, 453 225.253, 453 227.893 C 453 233.333, 449.749 240.347, 445.048 245.048 C 436.514 253.582, 424.233 255.455, 413.146 249.915 C 406.577 246.632, 403.344 243.185, 400.072 235.972 C 397.662 230.659, 397.459 228, 399.462 228 C 402.998 228, 412.177 223.596, 416.413 219.868 C 421.976 214.971, 425.396 209.387, 427.355 202 C 428.157 198.975, 429.106 195.771, 429.464 194.879 C 430.690 191.824, 427.294 189.836, 422.135 190.587 C 408.706 192.541, 397.378 201.029, 393.163 212.295 C 391.973 215.474, 391 218.733, 391 219.538 C 391 221.541, 388.341 221.338, 383.028 218.928 C 375.815 215.656, 372.368 212.423, 369.085 205.854 C 365.712 199.105, 365.201 196, 367.462 196 C 370.998 196, 380.177 191.596, 384.413 187.868 C 389.976 182.971, 393.396 177.387, 395.355 170 C 396.157 166.975, 397.106 163.771, 397.464 162.879 C 398.690 159.824, 395.294 157.836, 390.135 158.587 C 376.706 160.541, 365.378 169.029, 361.163 180.295 C 359.973 183.474, 359 186.733, 359 187.538 C 359 189.799, 355.895 189.288, 349.146 185.915 C 336.444 179.568, 330.910 165.424, 335.667 151.463 C 338.862 142.088, 349.949 134, 359.607 134 C 362.663 134, 366 131.912, 366 130 C 366 128.488, 362.912 125.996, 361.179 126.110 C 360.255 126.170, 357.495 126.612, 355.045 127.092 M 57.500 135.870 C 37.436 141.645, 20.733 158.691, 15.585 178.644 C 13.554 186.517, 13.554 200.483, 15.585 208.356 C 20.889 228.914, 38.828 246.683, 59.103 251.463 C 72.305 254.575, 71.420 254.987, 89.031 237.500 C 97.617 228.975, 105.140 222, 105.749 222 C 107.173 222, 110 224.815, 110 226.232 C 110 226.831, 104.487 232.906, 97.750 239.732 C 83.993 253.669, 84.212 254.354, 100 246.767 C 124.726 234.885, 137.922 206.505, 131.463 179.103 C 126.683 158.828, 108.914 140.889, 88.356 135.585 C 80.226 133.488, 65.296 133.625, 57.500 135.870 M 217.500 135.870 C 197.436 141.645, 180.733 158.691, 175.585 178.644 C 173.554 186.517, 173.554 200.483, 175.585 208.356 C 180.889 228.914, 198.828 246.683, 219.103 251.463 C 222.621 252.292, 226.512 252.977, 227.750 252.985 L 230 253 230 193.500 L 230 134 226.750 134.071 C 224.963 134.110, 220.800 134.920, 217.500 135.870 M 238 193.500 C 238 249.506, 238.103 252.999, 239.750 252.985 C 240.713 252.977, 244.379 252.292, 247.897 251.463 C 268.369 246.637, 286.637 228.369, 291.463 207.897 C 293.390 199.718, 293.390 187.282, 291.463 179.103 C 286.683 158.828, 268.914 140.889, 248.356 135.585 C 244.976 134.713, 241.264 134, 240.106 134 L 238 134 238 193.500 M 383.054 167.728 C 377.022 169.857, 369.781 177.261, 367.670 183.455 C 366.755 186.141, 366.153 188.487, 366.333 188.667 C 366.513 188.847, 368.710 188.296, 371.214 187.443 C 379.329 184.678, 385.751 177.537, 388.475 168.250 C 389.238 165.649, 389.005 165.627, 383.054 167.728 M 67.637 175.420 C 54.585 180.225, 50.317 195.457, 59.191 205.564 C 66.670 214.083, 77.381 214.995, 85.564 207.809 C 94.083 200.330, 94.995 189.619, 87.809 181.436 C 82.252 175.106, 74.648 172.838, 67.637 175.420 M 65.400 185.400 C 62.498 188.302, 62 189.488, 62 193.500 C 62 197.512, 62.498 198.698, 65.400 201.600 C 68.302 204.502, 69.488 205, 73.500 205 C 77.512 205, 78.698 204.502, 81.600 201.600 C 84.502 198.698, 85 197.512, 85 193.500 C 85 189.488, 84.502 188.302, 81.600 185.400 C 78.698 182.498, 77.512 182, 73.500 182 C 69.488 182, 68.302 182.498, 65.400 185.400 M 415.054 199.728 C 409.022 201.857, 401.781 209.261, 399.670 215.455 C 398.755 218.141, 398.153 220.487, 398.333 220.667 C 398.513 220.847, 400.710 220.296, 403.214 219.443 C 411.329 216.678, 417.751 209.537, 420.475 200.250 C 421.238 197.649, 421.005 197.627, 415.054 199.728 " stroke="none" fill="black" fill-rule="evenodd"/>
</svg>