<svg xmlns="http://www.w3.org/2000/svg" width="228" height="324" viewBox="0 0 228 324" version="1.1">
	<path d="M 72.372 62.765 C 70.418 64.037, 54.003 97.844, 54.593 99.381 C 55.268 101.141, 57.513 102.124, 59.295 101.440 C 60.007 101.167, 63.480 95.106, 67.014 87.972 C 70.547 80.837, 73.691 75, 74 75 C 74.309 75, 77.453 80.837, 80.986 87.972 C 84.520 95.106, 87.993 101.167, 88.705 101.440 C 90.487 102.124, 92.732 101.141, 93.407 99.381 C 93.716 98.575, 90.096 90.173, 85.363 80.708 C 77.638 65.261, 75.672 62.031, 74 62.031 C 73.725 62.031, 72.992 62.361, 72.372 62.765 M 71.571 127.571 C 70.178 128.965, 70 135.897, 70 188.774 L 70 248.405 56.667 235.202 C 49.334 227.941, 42.841 222, 42.239 222 C 40.825 222, 38 224.820, 38 226.232 C 38 226.831, 43.512 232.922, 50.250 239.767 C 61.854 251.556, 62.316 252.178, 59 251.551 C 57.075 251.188, 51.701 249.050, 47.058 246.802 C 28.325 237.728, 14.082 216.402, 14.015 197.321 C 14.001 193.426, 12.122 190, 10 190 C 9.529 190, 8.411 190.732, 7.515 191.627 C 6.224 192.919, 6.019 194.415, 6.522 198.877 C 8.523 216.621, 14.012 228.089, 26.461 240.539 C 36.825 250.903, 45.486 255.841, 58 258.523 C 62.125 259.407, 67.605 260.584, 70.178 261.139 C 73.428 261.840, 75.468 261.820, 76.862 261.074 C 77.966 260.483, 80.071 260, 81.540 260 C 86.249 260, 96.283 256.972, 104 253.222 C 114.587 248.078, 128.092 234.559, 133.193 224 C 139.276 211.409, 142.528 194.671, 139.485 191.627 C 138.589 190.732, 137.471 190, 137 190 C 134.878 190, 132.999 193.426, 132.985 197.321 C 132.918 216.400, 118.607 237.856, 100 246.777 C 84.211 254.346, 83.994 253.668, 97.750 239.732 C 104.488 232.906, 110 226.831, 110 226.232 C 110 224.820, 107.175 222, 105.761 222 C 105.159 222, 98.666 227.941, 91.333 235.202 L 78 248.405 78 188.774 C 78 135.897, 77.822 128.965, 76.429 127.571 C 75.564 126.707, 74.471 126, 74 126 C 73.529 126, 72.436 126.707, 71.571 127.571 M 183.571 159.571 C 181.243 161.900, 181.243 194.100, 183.571 196.429 C 184.436 197.293, 185.529 198, 186 198 C 186.471 198, 187.564 197.293, 188.429 196.429 C 189.733 195.124, 190 191.991, 190 178 C 190 164.009, 189.733 160.876, 188.429 159.571 C 187.564 158.707, 186.471 158, 186 158 C 185.529 158, 184.436 158.707, 183.571 159.571 M 179.637 207.420 C 166.585 212.225, 162.317 227.457, 171.191 237.564 C 178.670 246.083, 189.381 246.995, 197.564 239.809 C 206.083 232.330, 206.995 221.619, 199.809 213.436 C 194.252 207.106, 186.648 204.838, 179.637 207.420 M 177.400 217.400 C 174.498 220.302, 174 221.488, 174 225.500 C 174 229.512, 174.498 230.698, 177.400 233.600 C 180.302 236.502, 181.488 237, 185.500 237 C 189.512 237, 190.698 236.502, 193.600 233.600 C 196.502 230.698, 197 229.512, 197 225.500 C 197 221.488, 196.502 220.302, 193.600 217.400 C 190.698 214.498, 189.512 214, 185.500 214 C 181.488 214, 180.302 214.498, 177.400 217.400 " stroke="none" fill="black" fill-rule="evenodd"/>
</svg>