<svg xmlns="http://www.w3.org/2000/svg" width="372" height="324" viewBox="0 0 372 324" version="1.1">
	<path d="M 64.500 126.944 C 48.464 129.540, 38.190 134.822, 26.461 146.500 C 19.435 153.496, 16.611 157.170, 13.778 163 C 7.648 175.615, 4.334 193.191, 7.491 196.348 C 9.547 198.404, 10.439 198.418, 12.429 196.429 C 13.404 195.453, 14.006 193.082, 14.015 190.179 C 14.091 166.127, 34.559 141.323, 59.103 135.537 C 86.508 129.078, 114.994 142.323, 126.765 167 C 131.063 176.010, 133 183.304, 133 190.478 C 133 193.126, 133.621 195.478, 134.571 196.429 C 136.561 198.418, 137.453 198.404, 139.509 196.348 C 142.679 193.179, 139.365 175.772, 133.167 163.036 C 128.026 152.470, 114.588 139.010, 104 133.819 C 91.592 127.735, 76.182 125.053, 64.500 126.944 M 224.500 126.944 C 208.464 129.540, 198.190 134.822, 186.461 146.500 C 179.435 153.496, 176.611 157.170, 173.778 163 C 167.648 175.615, 164.334 193.191, 167.491 196.348 C 169.547 198.404, 170.439 198.418, 172.429 196.429 C 173.404 195.453, 174.006 193.082, 174.015 190.179 C 174.074 171.373, 187.719 150.014, 205.603 140.732 C 235.445 125.244, 272.576 137.261, 286.766 167 C 288.997 171.675, 291.135 177.075, 291.517 179 C 292.173 182.302, 291.507 181.806, 279.767 170.250 C 272.922 163.512, 266.831 158, 266.232 158 C 264.814 158, 262 160.827, 262 162.253 C 262 163.168, 292.228 194.707, 295.500 197.206 C 296.050 197.626, 297.161 197.976, 297.968 197.985 C 299.676 198.002, 334 163.999, 334 162.290 C 334 160.829, 331.201 158, 329.756 158 C 329.150 158, 322.316 164.285, 314.568 171.967 L 300.480 185.935 298.800 178.542 C 295.899 165.776, 290.737 156.737, 280.500 146.498 C 270.714 136.709, 262.051 131.547, 250.500 128.622 C 242.819 126.677, 230.903 125.908, 224.500 126.944 M 215.213 207.315 C 205.746 216.838, 198 225.131, 198 225.743 C 198 227.176, 200.814 230, 202.241 230 C 202.845 230, 209.509 223.887, 217.050 216.415 L 230.760 202.830 232.008 208.165 C 237.255 230.596, 254.483 249.802, 275.747 256.926 C 308.408 267.869, 342.979 253.170, 358.126 221.902 C 361.233 215.488, 363.493 207.276, 364.463 198.877 C 364.980 194.402, 364.780 192.923, 363.485 191.627 C 362.589 190.732, 361.471 190, 361 190 C 358.878 190, 356.999 193.426, 356.985 197.321 C 356.921 215.546, 342.957 237.187, 325.397 246.278 C 295.523 261.742, 258.652 249.784, 244.198 219.942 C 241.950 215.299, 239.813 209.925, 239.449 208 C 238.826 204.696, 239.513 205.213, 251.730 217.250 C 258.848 224.262, 265.164 230, 265.765 230 C 267.187 230, 270 227.173, 270 225.743 C 270 223.994, 235.761 190, 234 190 C 233.134 190, 224.680 197.792, 215.213 207.315 " stroke="none" fill="black" fill-rule="evenodd"/>
</svg>