<svg xmlns="http://www.w3.org/2000/svg" width="212" height="324" viewBox="0 0 212 324" version="1.1">
	<path d="M 183.200 127.200 C 181.294 129.106, 181.773 130.977, 185.149 134.822 C 194.714 145.716, 197.058 164.590, 190.574 178.500 C 189.292 181.250, 185.667 186.650, 182.517 190.500 C 179.367 194.350, 175.172 200.848, 173.194 204.940 C 170.087 211.367, 169.540 213.596, 169.170 221.325 C 168.483 235.688, 172.126 247.061, 180.534 256.804 C 183.423 260.152, 184.831 261.041, 186.866 260.804 C 190.587 260.372, 190.694 257.555, 187.144 253.511 C 177.347 242.353, 173.699 227.247, 177.585 213.932 C 179.567 207.142, 182.359 202.284, 189.038 194 C 202.592 177.188, 205.429 158.275, 197.080 140.377 C 194.142 134.078, 187.682 126, 185.584 126 C 184.933 126, 183.860 126.540, 183.200 127.200 M 7.571 191.571 C 6.707 192.436, 6 193.529, 6 194 C 6 194.471, 6.707 195.564, 7.571 196.429 C 8.844 197.701, 11.697 198, 22.575 198 L 36.006 198 21.020 227.961 C 12.777 244.439, 6.285 258.580, 6.594 259.384 C 7.265 261.133, 9.512 262.125, 11.274 261.448 C 11.975 261.180, 19.056 247.919, 27.010 231.980 C 34.964 216.041, 41.710 203, 42 203 C 42.290 203, 49.036 216.041, 56.990 231.980 C 64.944 247.919, 72.025 261.180, 72.726 261.448 C 73.427 261.717, 74.592 261.710, 75.315 261.433 C 76.038 261.155, 83.112 247.894, 91.035 231.964 C 98.958 216.034, 105.686 203, 105.985 203 C 106.284 203, 112.822 215.627, 120.514 231.060 C 128.206 246.493, 135.222 259.779, 136.105 260.584 C 137.896 262.217, 140.549 261.617, 141.406 259.384 C 141.715 258.580, 135.223 244.439, 126.980 227.961 L 111.994 198 125.425 198 C 136.303 198, 139.156 197.701, 140.429 196.429 C 141.293 195.564, 142 194.471, 142 194 C 142 193.529, 141.293 192.436, 140.429 191.571 C 139.032 190.175, 131.628 190, 74 190 C 16.372 190, 8.968 190.175, 7.571 191.571 M 60.743 223.500 C 67.750 237.525, 73.715 249, 74 249 C 74.285 249, 80.250 237.525, 87.257 223.500 L 99.995 198 74 198 L 48.005 198 60.743 223.500 " stroke="none" fill="black" fill-rule="evenodd"/>
</svg>