<svg xmlns="http://www.w3.org/2000/svg" width="564" height="324" viewBox="0 0 564 324" version="1.1">
	<path d="M 103.571 127.571 C 102.175 128.968, 102 136.372, 102 194 C 102 251.628, 102.175 259.032, 103.571 260.429 C 104.968 261.825, 112.372 262, 170 262 C 227.628 262, 235.032 261.825, 236.429 260.429 C 237.825 259.032, 238 251.628, 238 194 C 238 136.372, 237.825 128.968, 236.429 127.571 C 235.032 126.175, 227.628 126, 170 126 C 112.372 126, 104.968 126.175, 103.571 127.571 M 317.500 127.401 C 302.645 130.266, 291.144 136.774, 280.168 148.528 C 268.277 161.260, 262.624 175.751, 262.624 193.500 C 262.624 212.784, 268.398 226.476, 282.461 240.539 C 296.524 254.602, 310.216 260.376, 329.500 260.376 C 348.784 260.376, 362.476 254.602, 376.539 240.539 C 390.602 226.476, 396.376 212.784, 396.376 193.500 C 396.376 181.726, 394.514 173.758, 389.249 163 C 384.083 152.445, 370.546 138.911, 360 133.756 C 346.332 127.076, 331.043 124.790, 317.500 127.401 M 423.571 127.571 C 422.207 128.936, 422 133.463, 422 162 C 422 190.537, 422.207 195.064, 423.571 196.429 C 424.931 197.788, 429.242 198, 455.571 198 L 486 198 486 228.429 C 486 254.758, 486.212 259.069, 487.571 260.429 C 489.545 262.402, 490.455 262.402, 492.429 260.429 C 493.788 259.069, 494 254.758, 494 228.429 L 494 198 524.429 198 C 550.758 198, 555.069 197.788, 556.429 196.429 C 557.793 195.064, 558 190.537, 558 162 C 558 133.463, 557.793 128.936, 556.429 127.571 C 555.564 126.707, 554.471 126, 554 126 C 553.529 126, 552.436 126.707, 551.571 127.571 C 550.212 128.931, 550 133.242, 550 159.571 L 550 190 522 190 L 494 190 494 159.571 C 494 133.242, 493.788 128.931, 492.429 127.571 C 490.455 125.598, 489.545 125.598, 487.571 127.571 C 486.212 128.931, 486 133.242, 486 159.571 L 486 190 458 190 L 430 190 430 159.571 C 430 133.242, 429.788 128.931, 428.429 127.571 C 427.564 126.707, 426.471 126, 426 126 C 425.529 126, 424.436 126.707, 423.571 127.571 M 110 194 L 110 254 170 254 L 230 254 230 194 L 230 134 170 134 L 110 134 110 194 M 314.645 135.584 C 294.671 140.419, 276.279 158.986, 271.537 179.103 C 266.661 199.790, 272.552 220.547, 287.585 235.649 C 299.014 247.131, 313.192 253, 329.500 253 C 345.846 253, 359.950 247.146, 371.548 235.548 C 383.146 223.950, 389 209.846, 389 193.500 C 389 183.313, 387.503 176.931, 382.809 167.101 C 375.545 151.887, 360.095 139.356, 343.897 135.537 C 335.998 133.676, 322.439 133.697, 314.645 135.584 M 34.223 159.012 C 23.933 161.160, 13.981 169.443, 9.216 179.825 C 5.512 187.894, 5.512 199.106, 9.216 207.175 C 12.462 214.246, 18.459 220.848, 24.712 224.232 C 45.892 235.696, 71.341 223.376, 76.013 199.396 C 80.589 175.912, 57.969 154.054, 34.223 159.012 M 295.571 159.571 C 294.707 160.436, 294 161.529, 294 162 C 294 163.111, 296.889 166, 298 166 C 299.111 166, 302 163.111, 302 162 C 302 160.889, 299.111 158, 298 158 C 297.529 158, 296.436 158.707, 295.571 159.571 M 327.571 159.571 C 326.212 160.931, 326 165.242, 326 191.571 L 326 222 311.571 222 C 299.788 222, 296.855 222.288, 295.571 223.571 C 293.598 225.545, 293.598 226.455, 295.571 228.429 C 296.936 229.793, 301.463 230, 330 230 C 358.537 230, 363.064 229.793, 364.429 228.429 C 366.402 226.455, 366.402 225.545, 364.429 223.571 C 363.145 222.288, 360.212 222, 348.429 222 L 334 222 334 191.571 C 334 165.242, 333.788 160.931, 332.429 159.571 C 331.564 158.707, 330.471 158, 330 158 C 329.529 158, 328.436 158.707, 327.571 159.571 M 359.571 159.571 C 358.707 160.436, 358 161.529, 358 162 C 358 163.111, 360.889 166, 362 166 C 363.111 166, 366 163.111, 366 162 C 366 160.889, 363.111 158, 362 158 C 361.529 158, 360.436 158.707, 359.571 159.571 M 31.054 167.728 C 25.018 169.859, 17.781 177.260, 15.667 183.463 C 12.117 193.882, 14.321 205.066, 21.347 212.280 C 26.744 217.822, 32.047 220.291, 39.659 220.805 C 51.162 221.582, 61.604 215.621, 66.467 205.500 C 69.171 199.874, 69.632 190.419, 67.514 184.042 C 65.290 177.346, 57.926 169.844, 51.392 167.618 C 45.504 165.612, 36.916 165.658, 31.054 167.728 M 39.571 191.571 C 38.707 192.436, 38 193.529, 38 194 C 38 195.111, 40.889 198, 42 198 C 43.111 198, 46 195.111, 46 194 C 46 192.889, 43.111 190, 42 190 C 41.529 190, 40.436 190.707, 39.571 191.571 " stroke="none" fill="black" fill-rule="evenodd"/>
</svg>