<svg xmlns="http://www.w3.org/2000/svg" width="468" height="324" viewBox="0 0 468 324" version="1.1">
	<path d="M 67 126.637 C 50.260 129.082, 38.099 134.794, 27.164 145.349 C 15.107 156.987, 8.421 170.983, 6.503 188.598 C 5.964 193.549, 6.150 195.007, 7.491 196.348 C 9.547 198.404, 10.439 198.418, 12.429 196.429 C 13.404 195.453, 14.006 193.082, 14.015 190.179 C 14.091 166.127, 34.559 141.323, 59.103 135.537 C 62.621 134.708, 66.063 134.023, 66.752 134.015 C 67.440 134.007, 54.052 161.899, 37.002 195.997 C 19.951 230.095, 6 258.188, 6 258.425 C 6 258.663, 6.707 259.564, 7.571 260.429 C 8.968 261.825, 16.372 262, 74 262 C 131.628 262, 139.032 261.825, 140.429 260.429 C 141.293 259.564, 142 258.663, 142 258.425 C 142 258.188, 128.049 230.095, 110.998 195.997 C 93.948 161.899, 80.335 134.007, 80.748 134.015 C 81.162 134.023, 84.379 134.708, 87.897 135.537 C 112.441 141.323, 132.909 166.127, 132.985 190.179 C 132.994 193.082, 133.596 195.453, 134.571 196.429 C 136.561 198.418, 137.453 198.404, 139.509 196.348 C 140.850 195.007, 141.036 193.549, 140.497 188.598 C 138.021 165.862, 126.306 147.112, 107.500 135.789 C 95.767 128.724, 78.866 124.905, 67 126.637 M 224.169 127.025 C 200.057 130.535, 178.254 148.316, 170.411 170.869 C 165.168 185.945, 165.161 201.037, 170.391 216.076 C 176.239 232.890, 190.938 248.393, 207.557 255.272 C 214.419 258.113, 217.256 258.871, 225.409 260.043 L 231.318 260.893 247.976 277.447 C 257.137 286.551, 265.134 294, 265.745 294 C 267.178 294, 270 291.185, 270 289.756 C 270 289.150, 263.682 282.283, 255.961 274.495 L 241.922 260.336 247.711 259.047 C 281.419 251.544, 304.845 218.436, 300.033 185.100 C 295.629 154.592, 272.612 131.404, 242.398 127.037 C 234.637 125.915, 231.811 125.913, 224.169 127.025 M 355.045 127.092 C 338.307 130.373, 326.848 144.460, 326.650 162 C 326.548 171.029, 329.448 178.276, 336.013 185.398 C 340.313 190.063, 350.643 196, 354.460 196 C 357.191 196, 359 197.809, 359 200.540 C 359 204.351, 364.933 214.684, 369.582 218.969 C 374.319 223.335, 383.043 227.974, 386.550 227.990 C 389.201 228.003, 391 229.843, 391 232.540 C 391 236.357, 396.937 246.687, 401.602 250.987 C 408.724 257.552, 415.971 260.452, 425 260.350 C 443.609 260.139, 457.511 247.941, 460.361 229.322 C 460.981 225.270, 459.480 222, 457 222 C 455.208 222, 453 225.253, 453 227.893 C 453 233.333, 449.749 240.347, 445.048 245.048 C 436.514 253.582, 424.233 255.455, 413.146 249.915 C 406.577 246.632, 403.344 243.185, 400.072 235.972 C 397.662 230.659, 397.459 228, 399.462 228 C 402.998 228, 412.177 223.596, 416.413 219.868 C 421.976 214.971, 425.396 209.387, 427.355 202 C 428.157 198.975, 429.106 195.771, 429.464 194.879 C 430.690 191.824, 427.294 189.836, 422.135 190.587 C 408.706 192.541, 397.378 201.029, 393.163 212.295 C 391.973 215.474, 391 218.733, 391 219.538 C 391 221.541, 388.341 221.338, 383.028 218.928 C 375.815 215.656, 372.368 212.423, 369.085 205.854 C 365.712 199.105, 365.201 196, 367.462 196 C 370.998 196, 380.177 191.596, 384.413 187.868 C 389.976 182.971, 393.396 177.387, 395.355 170 C 396.157 166.975, 397.106 163.771, 397.464 162.879 C 398.690 159.824, 395.294 157.836, 390.135 158.587 C 376.706 160.541, 365.378 169.029, 361.163 180.295 C 359.973 183.474, 359 186.733, 359 187.538 C 359 189.799, 355.895 189.288, 349.146 185.915 C 336.444 179.568, 330.910 165.424, 335.667 151.463 C 338.862 142.088, 349.949 134, 359.607 134 C 362.663 134, 366 131.912, 366 130 C 366 128.488, 362.912 125.996, 361.179 126.110 C 360.255 126.170, 357.495 126.612, 355.045 127.092 M 217.500 135.870 C 197.436 141.645, 180.733 158.691, 175.585 178.644 C 173.554 186.517, 173.554 200.483, 175.585 208.356 C 181.802 232.451, 206.436 253, 229.105 253 C 233.337 253, 233.729 252.695, 249.031 237.500 C 257.617 228.975, 265.140 222, 265.749 222 C 267.173 222, 270 224.815, 270 226.232 C 270 226.831, 264.488 232.906, 257.750 239.732 C 243.993 253.669, 244.212 254.354, 260 246.767 C 275.103 239.509, 287.190 224.730, 291.415 208.356 C 293.446 200.483, 293.446 186.517, 291.415 178.644 C 286.162 158.284, 268.716 140.838, 248.356 135.585 C 240.226 133.488, 225.296 133.625, 217.500 135.870 M 44.747 196.500 L 16.002 254 74 254 L 131.998 254 103.253 196.500 C 87.443 164.875, 74.279 139, 74 139 C 73.721 139, 60.557 164.875, 44.747 196.500 M 383.054 167.728 C 377.022 169.857, 369.781 177.261, 367.670 183.455 C 366.755 186.141, 366.153 188.487, 366.333 188.667 C 366.513 188.847, 368.710 188.296, 371.214 187.443 C 379.329 184.678, 385.751 177.537, 388.475 168.250 C 389.238 165.649, 389.005 165.627, 383.054 167.728 M 227.637 175.420 C 214.585 180.225, 210.317 195.457, 219.191 205.564 C 226.670 214.083, 237.381 214.995, 245.564 207.809 C 254.083 200.330, 254.995 189.619, 247.809 181.436 C 242.252 175.106, 234.648 172.838, 227.637 175.420 M 225.400 185.400 C 222.498 188.302, 222 189.488, 222 193.500 C 222 197.512, 222.498 198.698, 225.400 201.600 C 228.302 204.502, 229.488 205, 233.500 205 C 237.512 205, 238.698 204.502, 241.600 201.600 C 244.502 198.698, 245 197.512, 245 193.500 C 245 189.488, 244.502 188.302, 241.600 185.400 C 238.698 182.498, 237.512 182, 233.500 182 C 229.488 182, 228.302 182.498, 225.400 185.400 M 415.054 199.728 C 409.022 201.857, 401.781 209.261, 399.670 215.455 C 398.755 218.141, 398.153 220.487, 398.333 220.667 C 398.513 220.847, 400.710 220.296, 403.214 219.443 C 411.329 216.678, 417.751 209.537, 420.475 200.250 C 421.238 197.649, 421.005 197.627, 415.054 199.728 " stroke="none" fill="black" fill-rule="evenodd"/>
</svg>