<svg xmlns="http://www.w3.org/2000/svg" width="564" height="324" viewBox="0 0 564 324" version="1.1">
	<path d="M 159.870 127.071 C 152.345 128.176, 142.724 131.478, 136 135.262 C 128.923 139.244, 115.244 152.923, 111.262 160 C 99.005 181.779, 99.709 209.101, 113.055 229.585 C 123.944 246.298, 141.236 257.195, 161.409 260.055 L 167.318 260.893 183.976 277.447 C 193.137 286.551, 201.134 294, 201.745 294 C 203.178 294, 206 291.185, 206 289.756 C 206 289.150, 199.682 282.283, 191.961 274.495 L 177.922 260.336 183.711 259.056 C 205.935 254.145, 225.284 237.137, 232.609 216.076 C 237.721 201.376, 237.828 186.378, 232.926 171.747 C 226.779 153.399, 210.372 136.754, 192.205 130.436 C 180.801 126.471, 170.941 125.444, 159.870 127.071 M 319.870 127.071 C 312.345 128.176, 302.724 131.478, 296 135.262 C 288.923 139.244, 275.244 152.923, 271.262 160 C 261.622 177.129, 259.874 197.335, 266.406 216.119 C 273.389 236.196, 292.592 253.593, 313.076 258.397 C 320.951 260.244, 328.990 261.496, 331 261.188 C 342.770 259.384, 346.320 258.610, 352.205 256.564 C 370.002 250.374, 386.385 233.972, 392.589 216.131 C 397.714 201.395, 397.834 186.395, 392.945 171.803 C 386.778 153.396, 370.396 136.763, 352.205 130.436 C 340.801 126.471, 330.941 125.444, 319.870 127.071 M 451.045 127.092 C 434.307 130.373, 422.848 144.460, 422.650 162 C 422.547 171.117, 425.762 179.068, 432.301 185.866 C 436.569 190.304, 446.823 195.998, 450.550 195.999 C 453.168 196, 455 197.832, 455.001 200.450 C 455.002 204.180, 460.697 214.433, 465.134 218.693 C 469.629 223.010, 478.927 227.973, 482.550 227.990 C 485.171 228.003, 487 229.835, 487.001 232.450 C 487.002 236.177, 492.696 246.431, 497.134 250.699 C 503.932 257.238, 511.883 260.453, 521 260.350 C 539.609 260.139, 553.511 247.941, 556.361 229.322 C 556.981 225.270, 555.480 222, 553 222 C 551.208 222, 549 225.253, 549 227.893 C 549 233.333, 545.749 240.347, 541.048 245.048 C 532.514 253.582, 520.233 255.455, 509.146 249.915 C 502.577 246.632, 499.344 243.185, 496.072 235.972 C 493.662 230.659, 493.459 228, 495.462 228 C 498.998 228, 508.177 223.596, 512.413 219.868 C 517.976 214.971, 521.396 209.387, 523.355 202 C 524.157 198.975, 525.106 195.771, 525.464 194.879 C 526.690 191.824, 523.294 189.836, 518.135 190.587 C 504.706 192.541, 493.378 201.029, 489.163 212.295 C 487.973 215.474, 487 218.733, 487 219.538 C 487 221.541, 484.341 221.338, 479.028 218.928 C 471.815 215.656, 468.368 212.423, 465.085 205.854 C 461.712 199.105, 461.201 196, 463.462 196 C 466.998 196, 476.177 191.596, 480.413 187.868 C 485.976 182.971, 489.396 177.387, 491.355 170 C 492.157 166.975, 493.106 163.771, 493.464 162.879 C 494.690 159.824, 491.294 157.836, 486.135 158.587 C 472.706 160.541, 461.378 169.029, 457.163 180.295 C 455.973 183.474, 455 186.733, 455 187.538 C 455 189.799, 451.895 189.288, 445.146 185.915 C 432.444 179.568, 426.910 165.424, 431.667 151.463 C 434.862 142.088, 445.949 134, 455.607 134 C 458.663 134, 462 131.912, 462 130 C 462 128.488, 458.912 125.996, 457.179 126.110 C 456.255 126.170, 453.495 126.612, 451.045 127.092 M 153.500 135.870 C 133.436 141.645, 116.733 158.691, 111.585 178.644 C 109.554 186.517, 109.554 200.483, 111.585 208.356 C 116.889 228.914, 134.828 246.683, 155.103 251.463 C 168.305 254.575, 167.420 254.987, 185.031 237.500 C 193.617 228.975, 201.140 222, 201.749 222 C 203.173 222, 206 224.815, 206 226.232 C 206 226.831, 200.488 232.906, 193.750 239.732 C 179.994 253.668, 180.211 254.346, 196 246.777 C 225.727 232.525, 237.738 195.409, 222.268 165.603 C 215.014 151.626, 199.780 139.565, 184.356 135.585 C 176.226 133.488, 161.296 133.625, 153.500 135.870 M 313.500 135.870 C 293.436 141.645, 276.733 158.691, 271.585 178.644 C 269.554 186.517, 269.554 200.483, 271.585 208.356 C 276.889 228.914, 294.828 246.683, 315.103 251.463 C 318.621 252.292, 322.512 252.977, 323.750 252.985 L 326 253 326 193.500 L 326 134 322.750 134.071 C 320.962 134.110, 316.800 134.920, 313.500 135.870 M 334 193.500 C 334 249.506, 334.103 252.999, 335.750 252.985 C 336.712 252.977, 340.379 252.292, 343.897 251.463 C 364.315 246.650, 382.650 228.315, 387.463 207.897 C 389.390 199.718, 389.390 187.282, 387.463 179.103 C 382.683 158.828, 364.914 140.889, 344.356 135.585 C 340.976 134.713, 337.264 134, 336.106 134 L 334 134 334 193.500 M 39.571 159.571 C 38.707 160.436, 38 161.529, 38 162 C 38 163.111, 40.889 166, 42 166 C 43.111 166, 46 163.111, 46 162 C 46 160.889, 43.111 158, 42 158 C 41.529 158, 40.436 158.707, 39.571 159.571 M 479.054 167.728 C 473.022 169.857, 465.781 177.261, 463.670 183.455 C 462.755 186.141, 462.153 188.487, 462.333 188.667 C 462.513 188.847, 464.710 188.296, 467.214 187.443 C 475.329 184.678, 481.751 177.537, 484.475 168.250 C 485.238 165.649, 485.005 165.627, 479.054 167.728 M 163.637 175.420 C 150.585 180.225, 146.317 195.457, 155.191 205.564 C 162.670 214.083, 173.381 214.995, 181.564 207.809 C 190.083 200.330, 190.995 189.619, 183.809 181.436 C 178.252 175.106, 170.648 172.838, 163.637 175.420 M 161.400 185.400 C 158.498 188.302, 158 189.488, 158 193.500 C 158 197.512, 158.498 198.698, 161.400 201.600 C 164.302 204.502, 165.488 205, 169.500 205 C 173.512 205, 174.698 204.502, 177.600 201.600 C 180.502 198.698, 181 197.512, 181 193.500 C 181 189.488, 180.502 188.302, 177.600 185.400 C 174.698 182.498, 173.512 182, 169.500 182 C 165.488 182, 164.302 182.498, 161.400 185.400 M 7.571 191.571 C 6.707 192.436, 6 193.529, 6 194 C 6 194.471, 6.707 195.564, 7.571 196.429 C 8.936 197.793, 13.463 198, 42 198 C 70.537 198, 75.064 197.793, 76.429 196.429 C 77.293 195.564, 78 194.471, 78 194 C 78 193.529, 77.293 192.436, 76.429 191.571 C 75.064 190.207, 70.537 190, 42 190 C 13.463 190, 8.936 190.207, 7.571 191.571 M 511.054 199.728 C 505.022 201.857, 497.781 209.261, 495.670 215.455 C 494.755 218.141, 494.153 220.487, 494.333 220.667 C 494.513 220.847, 496.710 220.296, 499.214 219.443 C 507.329 216.678, 513.751 209.537, 516.475 200.250 C 517.238 197.649, 517.005 197.627, 511.054 199.728 M 39.571 223.571 C 38.707 224.436, 38 225.529, 38 226 C 38 227.111, 40.889 230, 42 230 C 43.111 230, 46 227.111, 46 226 C 46 224.889, 43.111 222, 42 222 C 41.529 222, 40.436 222.707, 39.571 223.571 " stroke="none" fill="black" fill-rule="evenodd"/>
</svg>