<svg xmlns="http://www.w3.org/2000/svg" width="340" height="324" viewBox="0 0 340 324" version="1.1">
	<path d="M 39.571 127.571 C 38.176 128.966, 38 136.152, 38 191.571 L 38 254 23.571 254 C 11.788 254, 8.855 254.288, 7.571 255.571 C 5.598 257.545, 5.598 258.455, 7.571 260.429 C 8.936 261.793, 13.463 262, 42 262 C 70.537 262, 75.064 261.793, 76.429 260.429 C 77.293 259.564, 78 258.471, 78 258 C 78 257.529, 77.293 256.436, 76.429 255.571 C 75.145 254.288, 72.212 254, 60.429 254 L 46 254 46 191.571 C 46 136.152, 45.824 128.966, 44.429 127.571 C 43.564 126.707, 42.471 126, 42 126 C 41.529 126, 40.436 126.707, 39.571 127.571 M 136.348 126.765 C 134.390 128.014, 102.011 193.865, 102.600 195.400 C 103.266 197.135, 105.518 198.122, 107.274 197.448 C 107.975 197.180, 115.056 183.919, 123.010 167.980 C 130.964 152.041, 137.710 139, 138 139 C 138.290 139, 145.036 152.041, 152.990 167.980 C 160.944 183.919, 168.083 197.201, 168.853 197.497 C 170.717 198.213, 173 196.217, 173 193.871 C 173 191.637, 141.272 127.833, 139.630 126.765 C 139.009 126.361, 138.275 126.031, 138 126.031 C 137.725 126.031, 136.981 126.361, 136.348 126.765 M 199.627 127.515 C 198.732 128.411, 198 129.529, 198 130 C 198 132.122, 201.426 134.001, 205.321 134.015 C 217.696 134.059, 232.809 140.855, 243.087 150.999 C 251.011 158.819, 256.308 167.976, 259.003 178.511 C 261.682 188.988, 261.627 191, 258.660 191 C 255.138 191, 244.292 196.774, 240.283 200.784 C 238.336 202.730, 235.347 207.288, 233.639 210.911 C 230.975 216.567, 230.535 218.633, 230.535 225.500 C 230.535 232.362, 230.975 234.434, 233.630 240.068 C 244.105 262.298, 272.631 267.504, 289.766 250.313 C 292.405 247.666, 295.628 243.250, 296.928 240.500 C 299.797 234.434, 300.787 223.198, 299.061 216.290 C 296.362 205.490, 286.629 195.385, 275.884 192.228 C 270.081 190.523, 270.003 190.451, 270.001 186.802 C 269.999 181.104, 274.554 167.998, 278.821 161.422 C 289.120 145.551, 308.865 134, 325.694 134 C 330.803 134, 333 132.774, 333 129.922 C 333 126.342, 330.596 125.733, 321.333 126.966 C 311.240 128.309, 299.713 132.472, 292.378 137.423 C 281.427 144.816, 271.031 157.513, 267.278 168.079 L 265.619 172.752 261.183 163.678 C 253.096 147.136, 235.855 132.998, 218.500 128.680 C 207.983 126.063, 201.481 125.661, 199.627 127.515 M 136.348 190.765 C 134.390 192.014, 102.011 257.865, 102.600 259.400 C 103.266 261.135, 105.518 262.122, 107.274 261.448 C 107.975 261.180, 115.056 247.919, 123.010 231.980 C 130.964 216.041, 137.710 203, 138 203 C 138.290 203, 145.036 216.041, 152.990 231.980 C 160.944 247.919, 168.083 261.201, 168.853 261.497 C 170.717 262.213, 173 260.217, 173 257.871 C 173 255.637, 141.272 191.833, 139.630 190.765 C 139.009 190.361, 138.275 190.031, 138 190.031 C 137.725 190.031, 136.981 190.361, 136.348 190.765 M 255.603 199.477 C 247.528 202.354, 247.594 203.079, 256.764 212.249 L 264.985 220.470 273.503 211.997 C 282.013 203.531, 282.018 203.522, 279.818 201.863 C 274.670 197.980, 263.024 196.832, 255.603 199.477 M 242.192 210.269 C 237.641 215.752, 236.462 228.735, 239.824 236.335 C 240.896 238.759, 242.194 241.002, 242.709 241.320 C 243.224 241.638, 247.325 238.199, 251.823 233.678 L 260.001 225.457 251.671 217.170 C 244.884 210.419, 243.128 209.140, 242.192 210.269 M 278.727 216.772 C 274.477 221.047, 271 224.995, 271 225.546 C 271 226.667, 286.144 242, 287.252 242 C 287.641 242, 288.973 240.088, 290.212 237.750 C 292.008 234.363, 292.465 231.875, 292.465 225.500 C 292.465 219.125, 292.008 216.637, 290.212 213.250 C 288.973 210.912, 287.620 209, 287.206 209 C 286.792 209, 282.976 212.497, 278.727 216.772 M 256.477 239.059 L 248.500 247.118 250.830 249.034 C 257.199 254.272, 271.801 254.342, 279.819 249.174 L 282.137 247.680 273.841 239.340 C 269.278 234.753, 265.299 231, 264.999 231 C 264.699 231, 260.864 234.627, 256.477 239.059 " stroke="none" fill="black" fill-rule="evenodd"/>
</svg>