<svg xmlns="http://www.w3.org/2000/svg" width="500" height="324" viewBox="0 0 500 324" version="1.1">
	<path d="M 33.608 132.122 C 21.806 142.937, 13.219 157.313, 8.894 173.500 C 5.908 184.677, 5.908 202.323, 8.894 213.500 C 13.261 229.844, 21.574 243.687, 33.980 255.274 L 41.181 262 73.925 262 L 106.669 262 115.584 252.652 C 130.028 237.508, 138.186 220.545, 139.735 202.434 C 142.027 175.655, 134.201 153.477, 115.867 134.796 L 107.235 126 73.762 126 L 40.289 126 33.608 132.122 M 232 126.956 C 231.175 127.449, 215.878 157.136, 198.006 192.927 C 171.220 246.569, 165.705 258.309, 166.615 259.751 C 167.630 261.360, 170.421 261.500, 201.500 261.500 C 232.586 261.500, 235.370 261.360, 236.386 259.750 C 237.191 258.474, 237.191 257.526, 236.386 256.250 C 235.382 254.658, 232.613 254.476, 205.647 254.235 L 176.012 253.970 206.506 192.988 C 223.278 159.448, 237 131.195, 237 130.203 C 237 128.485, 235.219 125.966, 234.050 126.030 C 233.748 126.047, 232.825 126.464, 232 126.956 M 38.253 137.515 C 23.605 150.054, 14 172.225, 14 193.500 C 14 215.120, 23.577 236.910, 38.824 249.979 L 43.500 253.987 73.309 253.994 L 103.117 254 107.183 250.750 C 109.420 248.963, 113.682 244.399, 116.655 240.609 C 138.424 212.859, 138.409 174.176, 116.619 146.327 C 113.626 142.502, 109.592 138.164, 107.655 136.686 L 104.133 134 73.247 134 L 42.360 134 38.253 137.515 M 290.355 158.992 C 283.486 160.430, 276.607 164.556, 271.181 170.492 C 259.107 183.704, 259.107 203.296, 271.181 216.508 C 288.093 235.012, 316.353 231.701, 327.999 209.851 C 330.727 204.732, 331.438 202.140, 331.788 196.025 C 332.302 187.073, 331.181 182.377, 326.778 175.035 C 319.625 163.108, 303.862 156.165, 290.355 158.992 M 288.994 166.934 C 273.518 171.642, 265.289 189.705, 271.880 204.500 C 276.394 214.633, 284.266 220.061, 295.494 220.781 C 301.739 221.182, 303.551 220.895, 308.205 218.764 C 326.156 210.545, 330.544 187.698, 316.810 173.963 C 310.094 167.248, 298.005 164.193, 288.994 166.934 M 71.571 191.571 C 70.707 192.436, 70 193.529, 70 194 C 70 194.471, 70.707 195.564, 71.571 196.429 C 72.436 197.293, 73.529 198, 74 198 C 74.471 198, 75.564 197.293, 76.429 196.429 C 77.293 195.564, 78 194.471, 78 194 C 78 193.529, 77.293 192.436, 76.429 191.571 C 75.564 190.707, 74.471 190, 74 190 C 73.529 190, 72.436 190.707, 71.571 191.571 M 359.750 191.080 C 356.427 193.015, 358.500 208.860, 363.507 219.796 L 366.083 225.423 363.493 231.196 C 360.455 237.964, 358.042 248.551, 358.017 255.215 C 358.003 259.003, 358.416 260.152, 360.117 261.062 C 363.361 262.799, 364.574 260.655, 365.886 250.865 C 366.522 246.116, 367.749 240.157, 368.613 237.622 L 370.183 233.014 377.416 240.257 C 381.393 244.241, 387.206 249.020, 390.332 250.877 C 403.299 258.581, 418.991 261.918, 433.138 259.981 C 449.006 257.808, 461.073 251.810, 472.697 240.318 L 479.961 233.135 481.955 239.590 C 483.052 243.141, 484.238 249.073, 484.591 252.773 C 485.297 260.176, 486.963 262.625, 490.138 260.926 C 493.723 259.008, 491.613 242.443, 486.186 229.892 C 484.197 225.293, 484.197 225.277, 486.182 220.892 C 489.055 214.546, 492 202.434, 492 196.962 C 492 191.500, 490.237 189.267, 487.206 190.890 C 485.741 191.674, 485.126 193.466, 484.617 198.436 C 484.249 202.021, 483.026 207.941, 481.899 211.592 L 479.849 218.230 474.886 212.661 C 460.942 197.016, 437.960 188.264, 417.743 190.897 C 401.276 193.043, 389.241 198.948, 377.400 210.692 L 370.148 217.884 368.624 213.411 C 367.786 210.951, 366.571 205.240, 365.924 200.719 C 364.450 190.425, 363.479 188.908, 359.750 191.080 M 410.112 199.522 C 402.282 201.713, 393.198 206.327, 387.701 210.905 C 382.469 215.262, 375 223.845, 375 225.500 C 375 226.070, 376.778 228.688, 378.951 231.318 C 399.395 256.058, 435.500 260.380, 461 241.140 C 466.904 236.685, 475 227.636, 475 225.492 C 475 222.751, 465.714 212.954, 458.617 208.206 C 447.830 200.992, 440.918 198.846, 427 198.390 C 418.799 198.122, 413.954 198.446, 410.112 199.522 " stroke="none" fill="black" fill-rule="evenodd"/>
</svg>