<svg xmlns="http://www.w3.org/2000/svg" width="244" height="324" viewBox="0 0 244 324" version="1.1">
	<path d="M 157.500 127.480 C 143.114 130.151, 131.564 136.333, 121.304 146.850 C 110.743 157.677, 103.976 172.321, 102.469 187.614 C 101.891 193.479, 102.055 194.912, 103.460 196.317 C 107.035 199.892, 110 196.864, 110 189.639 C 110 176.784, 116.727 162.014, 127.388 151.459 C 139.286 139.680, 152.902 134.045, 169.540 134.015 C 179.270 133.997, 187.180 135.890, 196.500 140.468 C 214.376 149.249, 227.205 168.443, 228.737 188.700 C 229.183 194.602, 229.681 196.294, 231.212 197.113 C 238.954 201.257, 237.057 178.416, 228.270 161.695 C 218.727 143.534, 199.303 130.060, 178.284 127.020 C 169.726 125.783, 166.223 125.861, 157.500 127.480 M 7.571 159.571 C 6.707 160.436, 6 161.529, 6 162 C 6 162.471, 6.707 163.564, 7.571 164.429 C 8.936 165.793, 13.463 166, 42 166 C 70.537 166, 75.064 165.793, 76.429 164.429 C 77.293 163.564, 78 162.471, 78 162 C 78 161.529, 77.293 160.436, 76.429 159.571 C 75.064 158.207, 70.537 158, 42 158 C 13.463 158, 8.936 158.207, 7.571 159.571 M 7.571 191.571 C 6.707 192.436, 6 193.529, 6 194 C 6 194.471, 6.707 195.564, 7.571 196.429 C 8.936 197.793, 13.463 198, 42 198 C 70.537 198, 75.064 197.793, 76.429 196.429 C 77.293 195.564, 78 194.471, 78 194 C 78 193.529, 77.293 192.436, 76.429 191.571 C 75.064 190.207, 70.537 190, 42 190 C 13.463 190, 8.936 190.207, 7.571 191.571 M 135.244 223.256 C 116.960 241.546, 102 257.206, 102 258.056 C 102 261.988, 102.206 262, 169.629 262 C 227.594 262, 235.032 261.825, 236.429 260.429 C 237.293 259.564, 237.998 258.552, 237.995 258.179 C 237.984 256.735, 171.416 189.988, 169.994 189.994 C 169.166 189.997, 153.529 204.965, 135.244 223.256 M 142.500 227 L 115.514 254 170 254 L 224.486 254 197.500 227 C 182.658 212.150, 170.283 200, 170 200 C 169.717 200, 157.342 212.150, 142.500 227 M 7.571 223.571 C 6.707 224.436, 6 225.529, 6 226 C 6 226.471, 6.707 227.564, 7.571 228.429 C 8.936 229.793, 13.463 230, 42 230 C 70.537 230, 75.064 229.793, 76.429 228.429 C 77.293 227.564, 78 226.471, 78 226 C 78 225.529, 77.293 224.436, 76.429 223.571 C 75.064 222.207, 70.537 222, 42 222 C 13.463 222, 8.936 222.207, 7.571 223.571 " stroke="none" fill="black" fill-rule="evenodd"/>
</svg>