<svg xmlns="http://www.w3.org/2000/svg" width="420" height="324" viewBox="0 0 420 324" version="1.1">
	<path d="M 263.571 127.571 C 262.707 128.436, 262 129.529, 262 130 C 262 131.111, 264.889 134, 266 134 C 267.111 134, 270 131.111, 270 130 C 270 128.889, 267.111 126, 266 126 C 265.529 126, 264.436 126.707, 263.571 127.571 M 295.571 127.571 C 294.707 128.436, 294 129.640, 294 130.249 C 294 130.857, 300.844 138.250, 309.208 146.677 L 324.416 162 309.208 177.323 C 300.844 185.750, 294 193.143, 294 193.751 C 294 195.200, 296.827 198, 298.290 198 C 299.969 198, 334 163.693, 334 162 C 334 160.307, 299.969 126, 298.290 126 C 297.659 126, 296.436 126.707, 295.571 127.571 M 343.571 127.571 C 342.175 128.968, 342 136.372, 342 194 C 342 251.628, 342.175 259.032, 343.571 260.429 C 344.936 261.793, 349.463 262, 378 262 C 406.537 262, 411.064 261.793, 412.429 260.429 C 413.293 259.564, 414 258.471, 414 258 C 414 257.529, 413.293 256.436, 412.429 255.571 C 411.069 254.212, 406.758 254, 380.429 254 L 350 254 350 191.571 C 350 136.152, 349.824 128.966, 348.429 127.571 C 347.564 126.707, 346.471 126, 346 126 C 345.529 126, 344.436 126.707, 343.571 127.571 M 263.571 159.571 C 262.207 160.936, 262 165.463, 262 194 C 262 222.537, 262.207 227.064, 263.571 228.429 C 265.545 230.402, 266.455 230.402, 268.429 228.429 C 269.793 227.064, 270 222.537, 270 194 C 270 165.463, 269.793 160.936, 268.429 159.571 C 267.564 158.707, 266.471 158, 266 158 C 265.529 158, 264.436 158.707, 263.571 159.571 M 7.571 191.571 C 6.707 192.436, 6 193.529, 6 194 C 6 194.471, 6.707 195.564, 7.571 196.429 C 8.844 197.701, 11.697 198, 22.575 198 L 36.006 198 21.020 227.961 C 12.777 244.439, 6.285 258.580, 6.594 259.384 C 7.265 261.133, 9.512 262.125, 11.274 261.448 C 11.975 261.180, 19.056 247.919, 27.010 231.980 C 34.964 216.041, 41.710 203, 42 203 C 42.290 203, 49.036 216.041, 56.990 231.980 C 64.944 247.919, 72.025 261.180, 72.726 261.448 C 73.427 261.717, 74.573 261.717, 75.274 261.448 C 75.975 261.180, 83.056 247.919, 91.010 231.980 C 98.964 216.041, 105.710 203, 106 203 C 106.290 203, 113.036 216.041, 120.990 231.980 C 128.944 247.919, 136.025 261.180, 136.726 261.448 C 138.488 262.125, 140.735 261.133, 141.406 259.384 C 141.715 258.580, 135.223 244.439, 126.980 227.961 L 111.994 198 125.425 198 C 136.303 198, 139.156 197.701, 140.429 196.429 C 141.293 195.564, 142 194.471, 142 194 C 142 193.529, 141.293 192.436, 140.429 191.571 C 139.032 190.175, 131.628 190, 74 190 C 16.372 190, 8.968 190.175, 7.571 191.571 M 167.571 191.571 C 166.707 192.436, 166 193.529, 166 194 C 166 194.471, 166.707 195.564, 167.571 196.429 C 168.936 197.793, 173.463 198, 202 198 C 230.537 198, 235.064 197.793, 236.429 196.429 C 237.293 195.564, 238 194.471, 238 194 C 238 193.529, 237.293 192.436, 236.429 191.571 C 235.064 190.207, 230.537 190, 202 190 C 173.463 190, 168.936 190.207, 167.571 191.571 M 60.743 223.500 C 67.750 237.525, 73.715 249, 74 249 C 74.285 249, 80.250 237.525, 87.257 223.500 L 99.995 198 74 198 L 48.005 198 60.743 223.500 M 263.571 255.571 C 262.707 256.436, 262 257.529, 262 258 C 262 258.471, 262.707 259.564, 263.571 260.429 C 264.436 261.293, 265.529 262, 266 262 C 266.471 262, 267.564 261.293, 268.429 260.429 C 269.293 259.564, 270 258.471, 270 258 C 270 257.529, 269.293 256.436, 268.429 255.571 C 267.564 254.707, 266.471 254, 266 254 C 265.529 254, 264.436 254.707, 263.571 255.571 " stroke="none" fill="black" fill-rule="evenodd"/>
</svg>