<svg xmlns="http://www.w3.org/2000/svg" width="403" height="324" viewBox="0 0 403 324" version="1.1">
	<path d="M 33.384 127.357 C 15.361 131.923, 3.562 149.820, 6.987 167.396 C 9.923 182.467, 20.510 193.032, 35.660 196.013 C 51.154 199.061, 68.354 189.287, 74.043 174.202 C 76.983 166.405, 76.941 156.485, 73.934 148.507 C 68.097 133.023, 49.437 123.290, 33.384 127.357 M 135.250 159.237 L 102 192.511 102 226.056 C 102 250.812, 102.314 259.914, 103.200 260.800 C 104.109 261.709, 120.115 262, 169.118 262 C 204.713 262, 234.548 261.727, 235.418 261.393 C 236.818 260.856, 237 256.853, 237 226.622 L 237 192.458 204.020 159.479 C 185.882 141.340, 170.469 126.379, 169.770 126.232 C 169.072 126.084, 153.537 140.936, 135.250 159.237 M 31.054 135.728 C 25.018 137.859, 17.781 145.260, 15.667 151.463 C 11.995 162.241, 14.382 173.477, 21.952 181.048 C 32.402 191.497, 49.888 191.773, 60.280 181.653 C 66.701 175.401, 68.500 170.989, 68.500 161.500 C 68.500 152.011, 66.701 147.599, 60.280 141.347 C 53.109 134.363, 41.332 132.099, 31.054 135.728 M 139.708 164.907 L 110 194.886 110 224.443 L 110 254 170 254 L 230 254 230 224.744 L 230 195.488 199.708 165.208 L 169.416 134.928 139.708 164.907 M 7.571 191.571 C 6.707 192.436, 6 193.640, 6 194.249 C 6 194.857, 12.844 202.250, 21.208 210.677 L 36.416 226 21.208 241.323 C 12.844 249.750, 6 257.143, 6 257.751 C 6 259.181, 8.819 262, 10.249 262 C 10.857 262, 18.250 255.156, 26.677 246.792 L 42 231.584 57.323 246.792 C 65.750 255.156, 73.143 262, 73.751 262 C 75.181 262, 78 259.181, 78 257.751 C 78 257.143, 71.156 249.750, 62.792 241.323 L 47.584 226 62.792 210.677 C 71.156 202.250, 78 194.857, 78 194.249 C 78 192.819, 75.181 190, 73.751 190 C 73.143 190, 65.750 196.844, 57.323 205.208 L 42 220.416 26.677 205.208 C 18.250 196.844, 10.857 190, 10.249 190 C 9.640 190, 8.436 190.707, 7.571 191.571 M 295.244 223.256 C 276.960 241.546, 262 257.206, 262 258.056 C 262 261.988, 262.212 262, 329.500 262 C 396.818 262, 397 261.989, 397 258.044 C 397 256.369, 331.151 190, 329.489 190 C 328.939 190, 313.529 204.965, 295.244 223.256 M 302 226.500 L 274.514 254 329.500 254 L 384.486 254 357 226.500 C 341.883 211.375, 329.508 199, 329.500 199 C 329.492 199, 317.117 211.375, 302 226.500 " stroke="none" fill="black" fill-rule="evenodd"/>
</svg>