<svg xmlns="http://www.w3.org/2000/svg" width="308" height="324" viewBox="0 0 308 324" version="1.1">
	<path d="M 7.571 127.571 C 6.707 128.436, 6 129.657, 6 130.285 C 6 130.913, 20.053 145.506, 37.229 162.713 L 68.458 194 37.229 225.287 C 20.053 242.494, 6 257.087, 6 257.715 C 6 259.201, 8.813 262, 10.305 262 C 12.018 262, 78 195.721, 78 194 C 78 192.279, 12.018 126, 10.305 126 C 9.666 126, 8.436 126.707, 7.571 127.571 M 71.571 127.571 C 70.707 128.436, 70 129.657, 70 130.285 C 70 130.913, 84.053 145.506, 101.229 162.713 L 132.458 194 101.229 225.287 C 84.053 242.494, 70 257.087, 70 257.715 C 70 259.074, 72.763 262, 74.047 262 C 75.221 262, 141.500 195.189, 141.500 194.005 C 141.500 192.788, 75.302 126, 74.096 126 C 73.572 126, 72.436 126.707, 71.571 127.571 M 223.531 127.056 C 195.437 131.418, 173.313 152.439, 167.589 180.208 C 165.337 191.134, 165.478 195.650, 168.117 197.062 C 171.365 198.801, 172.656 196.613, 173.871 187.308 C 175.940 171.469, 181.277 160.826, 192.500 150.155 C 196.700 146.162, 202.163 142.193, 206.156 140.233 C 212.806 136.970, 225.560 133.226, 226.573 134.240 C 226.868 134.535, 213.249 162.501, 196.309 196.387 C 170.905 247.203, 165.702 258.304, 166.613 259.749 C 167.647 261.388, 171.921 261.500, 233.500 261.500 C 295.079 261.500, 299.353 261.388, 300.387 259.749 C 301.298 258.304, 296.104 247.222, 270.746 196.497 C 253.836 162.671, 240 134.736, 240 134.418 C 240 134.101, 241.463 134.133, 243.250 134.490 C 256.794 137.197, 270.824 145.255, 278.660 154.828 C 286.771 164.737, 292.929 180.812, 292.983 192.215 C 293.002 196.428, 295.359 198.498, 298.276 196.866 C 302.091 194.731, 299.123 176.088, 292.982 163.615 C 280.499 138.258, 251.089 122.777, 223.531 127.056 M 204.838 195.664 L 176.265 253.500 233.291 253.758 C 264.655 253.900, 290.496 253.837, 290.715 253.618 C 290.934 253.399, 278.130 227.257, 262.262 195.524 L 233.411 137.828 204.838 195.664 M 228 175.153 C 222.853 176.648, 218.483 180.371, 216.102 185.289 C 213.357 190.960, 213.342 195.577, 216.064 197.034 C 218.576 198.379, 221 196.780, 221 193.779 C 221 187.639, 226.745 182, 233 182 C 245.647 182, 249.544 199.548, 237.868 203.921 C 229.213 207.163, 230 205.810, 230 217.443 C 230 227.014, 230.180 228.026, 232.064 229.034 C 235.758 231.011, 237 228.708, 237 219.878 C 237 213.931, 237.331 212, 238.350 212 C 240.944 212, 247.963 205.994, 249.973 202.053 C 257.387 187.520, 243.587 170.626, 228 175.153 M 231.750 238.080 C 229.372 239.465, 229.542 242.685, 232.064 244.034 C 235.753 246.008, 238.819 241.219, 235.800 238.200 C 234.367 236.767, 234.022 236.757, 231.750 238.080 " stroke="none" fill="black" fill-rule="evenodd"/>
</svg>