<svg xmlns="http://www.w3.org/2000/svg" width="340" height="324" viewBox="0 0 340 324" version="1.1">
	<path d="M 55.571 63.571 C 54.707 64.436, 54 65.317, 54 65.531 C 54 66.993, 71.421 100.653, 72.488 101.252 C 73.225 101.665, 74.440 101.768, 75.187 101.482 C 77.102 100.747, 94.082 66.377, 93.403 64.609 C 92.732 62.858, 90.483 61.877, 88.705 62.560 C 87.993 62.833, 84.520 68.894, 80.986 76.028 C 77.453 83.163, 74.308 89, 73.997 89 C 73.687 89, 70.748 83.534, 67.467 76.853 C 59.925 61.499, 58.847 60.296, 55.571 63.571 M 7.571 127.571 C 6.175 128.968, 6 136.372, 6 194 C 6 251.628, 6.175 259.032, 7.571 260.429 C 8.436 261.293, 9.529 262, 10 262 C 10.471 262, 11.564 261.293, 12.429 260.429 C 13.825 259.032, 14 251.628, 14 194 C 14 136.372, 13.825 128.968, 12.429 127.571 C 11.564 126.707, 10.471 126, 10 126 C 9.529 126, 8.436 126.707, 7.571 127.571 M 135.571 127.571 C 134.175 128.968, 134 136.372, 134 194 C 134 251.628, 134.175 259.032, 135.571 260.429 C 136.436 261.293, 137.529 262, 138 262 C 138.471 262, 139.564 261.293, 140.429 260.429 C 141.825 259.032, 142 251.628, 142 194 C 142 136.372, 141.825 128.968, 140.429 127.571 C 139.564 126.707, 138.471 126, 138 126 C 137.529 126, 136.436 126.707, 135.571 127.571 M 194.344 158.988 C 184.010 161.166, 173.930 169.366, 169.417 179.266 C 165.361 188.161, 165.361 198.839, 169.417 207.734 C 172.868 215.303, 179.786 222.097, 187.762 225.749 C 195.433 229.260, 205.846 229.363, 214.469 226.012 C 225.350 221.783, 234.344 210.324, 235.859 198.758 C 237.415 186.876, 234.030 176.942, 225.518 168.404 C 217.736 160.597, 204.983 156.745, 194.344 158.988 M 263.750 159.080 C 262.138 160.019, 262 162.769, 262 194.015 C 262 227.256, 262.041 227.952, 264.064 229.034 C 265.596 229.854, 266.498 229.832, 267.564 228.947 C 268.760 227.954, 269 222.127, 269 194.078 C 269 157.363, 268.815 156.130, 263.750 159.080 M 327.750 159.080 C 326.138 160.019, 326 162.769, 326 194.015 C 326 227.256, 326.041 227.952, 328.064 229.034 C 329.596 229.854, 330.498 229.832, 331.564 228.947 C 332.760 227.954, 333 222.127, 333 194.078 C 333 157.363, 332.815 156.130, 327.750 159.080 M 191.385 167.617 C 176.729 172.815, 169.477 191.530, 176.588 205.801 C 187.799 228.298, 221.531 224.930, 228.098 200.657 C 231.721 187.265, 223.838 172.176, 210.684 167.326 C 206.298 165.709, 196.343 165.859, 191.385 167.617 M 199.616 191.527 C 198.727 192.416, 198 193.529, 198 194 C 198 195.389, 201.140 198.120, 202.295 197.735 C 204.395 197.035, 205.549 194.094, 204.423 192.310 C 202.905 189.902, 201.474 189.669, 199.616 191.527 M 39.571 255.571 C 38.707 256.436, 38 257.529, 38 258 C 38 259.111, 40.889 262, 42 262 C 43.111 262, 46 259.111, 46 258 C 46 256.889, 43.111 254, 42 254 C 41.529 254, 40.436 254.707, 39.571 255.571 M 71.571 255.571 C 70.707 256.436, 70 257.529, 70 258 C 70 259.111, 72.889 262, 74 262 C 75.111 262, 78 259.111, 78 258 C 78 256.889, 75.111 254, 74 254 C 73.529 254, 72.436 254.707, 71.571 255.571 M 103.571 255.571 C 102.707 256.436, 102 257.529, 102 258 C 102 259.111, 104.889 262, 106 262 C 107.111 262, 110 259.111, 110 258 C 110 256.889, 107.111 254, 106 254 C 105.529 254, 104.436 254.707, 103.571 255.571 " stroke="none" fill="black" fill-rule="evenodd"/>
</svg>