<svg xmlns="http://www.w3.org/2000/svg" width="420" height="324" viewBox="0 0 420 324" version="1.1">
	<path d="M 232.369 126.765 C 231.416 127.384, 166 257.155, 166 258.426 C 166 258.663, 166.707 259.564, 167.571 260.429 C 168.936 261.793, 173.463 262, 202 262 C 230.537 262, 235.064 261.793, 236.429 260.429 C 237.293 259.564, 238 258.471, 238 258 C 238 257.529, 237.293 256.436, 236.429 255.571 C 235.071 254.214, 230.848 254, 205.427 254 L 175.997 254 206.998 192.003 C 224.049 157.905, 238 129.812, 238 129.575 C 238 128.872, 234.916 125.999, 234.179 126.015 C 233.805 126.024, 232.991 126.361, 232.369 126.765 M 391.282 143.282 C 381.777 152.787, 374 161.210, 374 162 C 374 163.693, 408.031 198, 409.710 198 C 411.173 198, 414 195.200, 414 193.751 C 414 193.143, 407.156 185.750, 398.792 177.323 L 383.584 162 398.792 146.677 C 407.156 138.250, 414 130.857, 414 130.249 C 414 128.800, 411.173 126, 409.710 126 C 409.079 126, 400.787 133.777, 391.282 143.282 M 293.202 160.750 C 287.268 169.189, 285.976 176.039, 288.762 184.292 L 290.690 190 277.916 190 C 267.637 190, 264.836 190.307, 263.571 191.571 C 262.707 192.436, 262 193.529, 262 194 C 262 194.471, 262.707 195.564, 263.571 196.429 C 264.844 197.701, 267.697 198, 278.575 198 L 292.006 198 277.020 227.961 C 268.777 244.439, 262.285 258.580, 262.594 259.384 C 263.265 261.133, 265.512 262.125, 267.274 261.448 C 267.975 261.180, 275.056 247.919, 283.010 231.980 C 290.964 216.041, 297.710 203, 298 203 C 298.290 203, 305.036 216.041, 312.990 231.980 C 320.944 247.919, 328.025 261.180, 328.726 261.448 C 329.427 261.717, 330.573 261.717, 331.274 261.448 C 331.975 261.180, 339.056 247.919, 347.010 231.980 C 354.964 216.041, 361.710 203, 362 203 C 362.290 203, 369.036 216.041, 376.990 231.980 C 384.944 247.919, 392.025 261.180, 392.726 261.448 C 394.488 262.125, 396.735 261.133, 397.406 259.384 C 397.715 258.580, 391.223 244.439, 382.980 227.961 L 367.994 198 381.425 198 C 392.303 198, 395.156 197.701, 396.429 196.429 C 398.243 194.614, 398.319 194.054, 397.024 192 C 396.269 190.804, 392.801 190.399, 379.894 190 L 363.709 189.500 361.605 186.677 C 359.951 184.458, 359.500 182.404, 359.500 177.091 C 359.500 171.292, 359.904 169.746, 362.339 166.232 C 365.837 161.184, 365.331 157.710, 361.168 158.192 C 359.163 158.424, 357.725 159.811, 355.339 163.813 C 351.068 170.974, 350.314 177.040, 352.785 184.358 L 354.710 190.061 343.211 189.780 C 331.896 189.505, 331.677 189.454, 329.605 186.677 C 327.951 184.458, 327.500 182.406, 327.500 177.091 C 327.500 171.292, 327.904 169.746, 330.339 166.232 C 333.837 161.184, 333.331 157.710, 329.168 158.192 C 327.163 158.424, 325.725 159.811, 323.339 163.813 C 319.068 170.974, 318.314 177.040, 320.785 184.358 L 322.710 190.061 311.211 189.780 C 299.896 189.505, 299.677 189.454, 297.605 186.677 C 295.951 184.458, 295.500 182.406, 295.500 177.091 C 295.500 171.292, 295.904 169.746, 298.339 166.232 C 300.279 163.434, 300.970 161.481, 300.522 160.068 C 299.556 157.026, 295.559 157.398, 293.202 160.750 M 7.571 191.571 C 6.707 192.436, 6 193.529, 6 194 C 6 194.471, 6.707 195.564, 7.571 196.429 C 8.844 197.701, 11.697 198, 22.575 198 L 36.006 198 21.020 227.961 C 12.777 244.439, 6.285 258.580, 6.594 259.384 C 7.265 261.133, 9.512 262.125, 11.274 261.448 C 11.975 261.180, 19.056 247.919, 27.010 231.980 C 34.964 216.041, 41.710 203, 42 203 C 42.290 203, 49.036 216.041, 56.990 231.980 C 64.944 247.919, 72.025 261.180, 72.726 261.448 C 73.427 261.717, 74.573 261.717, 75.274 261.448 C 75.975 261.180, 83.056 247.919, 91.010 231.980 C 98.964 216.041, 105.710 203, 106 203 C 106.290 203, 113.036 216.041, 120.990 231.980 C 128.944 247.919, 136.025 261.180, 136.726 261.448 C 138.488 262.125, 140.735 261.133, 141.406 259.384 C 141.715 258.580, 135.223 244.439, 126.980 227.961 L 111.994 198 125.425 198 C 136.303 198, 139.156 197.701, 140.429 196.429 C 141.293 195.564, 142 194.471, 142 194 C 142 193.529, 141.293 192.436, 140.429 191.571 C 139.032 190.175, 131.628 190, 74 190 C 16.372 190, 8.968 190.175, 7.571 191.571 M 60.743 223.500 C 67.750 237.525, 73.715 249, 74 249 C 74.285 249, 80.250 237.525, 87.257 223.500 L 99.995 198 74 198 L 48.005 198 60.743 223.500 M 316.743 223.500 C 323.750 237.525, 329.715 249, 330 249 C 330.285 249, 336.250 237.525, 343.257 223.500 L 355.995 198 330 198 L 304.005 198 316.743 223.500 M 167.571 287.571 C 166.707 288.436, 166 289.529, 166 290 C 166 290.471, 166.707 291.564, 167.571 292.429 C 168.936 293.793, 173.463 294, 202 294 C 230.537 294, 235.064 293.793, 236.429 292.429 C 237.293 291.564, 238 290.471, 238 290 C 238 289.529, 237.293 288.436, 236.429 287.571 C 235.064 286.207, 230.537 286, 202 286 C 173.463 286, 168.936 286.207, 167.571 287.571 " stroke="none" fill="black" fill-rule="evenodd"/>
</svg>