<svg xmlns="http://www.w3.org/2000/svg" width="403" height="324" viewBox="0 0 403 324" version="1.1">
	<path d="M 226.920 126.974 C 212.368 129.553, 199.856 143.308, 198.294 158.443 C 197.800 163.223, 197.975 163.916, 199.935 164.965 C 203.048 166.631, 204.753 164.876, 205.569 159.168 C 207.740 143.976, 218.562 134.059, 233 134.032 C 244.801 134.010, 254.947 140.897, 258.976 151.667 C 261.383 158.098, 261.466 160.672, 259.556 169.685 C 256.060 186.183, 250.218 200.272, 240.973 214.500 C 234.220 224.894, 217.053 241.845, 205.691 249.339 C 196.738 255.243, 195.567 257.078, 199.272 259.393 C 201.408 260.727, 205.657 258.512, 217 250.150 C 239.950 233.232, 257.232 207.419, 264.996 178.462 C 268.312 166.094, 268.664 156.705, 266.069 149.847 C 259.859 133.442, 243.699 124, 226.920 126.974 M 308.049 162.091 C 302.218 170.141, 301.525 181.101, 306.329 189.298 C 310.710 196.773, 314.791 198.874, 317.274 194.930 C 318.022 193.742, 317.405 192.237, 314.727 188.730 C 308.876 181.064, 308.831 172.844, 314.598 165.283 C 316.656 162.584, 317.070 161.332, 316.305 160.111 C 314.300 156.911, 311.276 157.636, 308.049 162.091 M 341.291 160.250 C 336.999 164.944, 335.540 169.194, 335.540 177 C 335.540 185.068, 337.016 189.136, 341.801 194.250 C 344.771 197.424, 347.509 197.786, 348.900 195.188 C 349.655 193.776, 349.059 192.212, 346.201 188.113 C 343.013 183.538, 342.533 182.098, 342.533 177.102 C 342.533 172.339, 343.076 170.519, 345.700 166.486 C 348.127 162.754, 348.640 161.196, 347.898 159.809 C 346.580 157.348, 343.774 157.535, 341.291 160.250 M 373.291 160.250 C 368.999 164.944, 367.540 169.194, 367.540 177 C 367.540 185.068, 369.016 189.136, 373.801 194.250 C 376.801 197.456, 379.511 197.782, 380.942 195.109 C 381.747 193.604, 381.345 192.451, 378.979 189.474 C 373.147 182.134, 372.796 173.583, 378.009 165.821 C 380.163 162.613, 380.618 161.155, 379.890 159.795 C 378.580 157.346, 375.769 157.540, 373.291 160.250 M 7.579 191.564 C 5.598 193.545, 5.596 194.454, 7.571 196.429 C 8.844 197.701, 11.697 198, 22.576 198 L 36.009 198 25.110 219.750 C 19.115 231.713, 13.221 242.625, 12.010 244 C 6.953 249.744, 4.772 257.629, 7.489 260.346 C 10.490 263.347, 11.808 262.364, 16 254 C 17.792 250.425, 19.762 247.169, 20.379 246.765 C 20.996 246.361, 23.457 246.024, 25.850 246.015 C 29.474 246.003, 30.767 246.567, 33.600 249.400 C 35.970 251.770, 37 253.718, 37 255.829 C 37 258.643, 39.130 262, 40.916 262 C 41.342 262, 42.438 261.173, 43.353 260.163 C 45.171 258.153, 44.794 253.650, 42.408 248.898 C 39.692 243.488, 31.099 238.032, 25.254 238.006 C 24.542 238.002, 27.753 230.495, 32.740 220.500 C 37.544 210.875, 41.718 203, 42.016 203 C 42.315 203, 49.071 216.093, 57.030 232.095 C 64.988 248.098, 71.842 261.402, 72.259 261.660 C 74.261 262.898, 76.907 260.423, 79.571 254.822 C 83.397 246.778, 84.289 246, 89.671 246 C 93.488 246, 94.734 246.534, 97.600 249.400 C 99.970 251.770, 101 253.718, 101 255.829 C 101 258.612, 103.126 262, 104.871 262 C 108.045 262, 109.087 254.002, 106.551 249.099 C 103.633 243.456, 95.176 238.032, 89.254 238.006 C 88.542 238.002, 91.753 230.495, 96.740 220.500 C 101.544 210.875, 105.715 203, 106.010 203 C 106.305 203, 113.101 216.162, 121.113 232.250 C 129.625 249.342, 136.319 261.625, 137.219 261.800 C 139.563 262.257, 142 259.214, 142 255.829 C 142 253.718, 143.030 251.770, 145.400 249.400 C 148.264 246.536, 149.512 246, 153.323 246 C 158.859 246, 163.532 249.460, 164.501 254.277 C 165.627 259.875, 166.036 260.800, 167.665 261.425 C 171.666 262.960, 173.378 256.235, 170.649 249.702 C 167.696 242.636, 157.676 237.049, 150.666 238.561 C 146.002 239.567, 140.349 242.664, 138.589 245.176 C 137.740 246.388, 136.861 247.181, 136.634 246.940 C 136.408 246.698, 130.777 235.600, 124.122 222.278 L 112.020 198.056 125.653 197.778 C 137.361 197.539, 139.441 197.253, 140.388 195.750 C 141.191 194.475, 141.190 193.525, 140.386 192.250 C 139.356 190.617, 134.934 190.483, 74.220 190.243 C 16.058 190.013, 8.990 190.153, 7.579 191.564 M 60.107 222.250 C 66.771 235.588, 72.418 246.707, 72.656 246.961 C 73.826 248.207, 79.055 239.519, 89.032 219.750 L 100.009 198 74 198 L 47.992 198 60.107 222.250 " stroke="none" fill="black" fill-rule="evenodd"/>
</svg>