<svg xmlns="http://www.w3.org/2000/svg" width="468" height="324" viewBox="0 0 468 324" version="1.1">
	<path d="M 61.500 127.401 C 46.645 130.266, 35.144 136.774, 24.168 148.528 C 12.277 161.260, 6.624 175.751, 6.624 193.500 C 6.624 212.784, 12.398 226.476, 26.461 240.539 C 40.524 254.602, 54.216 260.376, 73.500 260.376 C 85.255 260.376, 93.292 258.503, 103.806 253.313 C 112.384 249.078, 124.020 238.690, 129.599 230.285 C 134.341 223.140, 138.683 212.054, 139.518 204.960 C 139.871 201.957, 140.515 198.365, 140.949 196.977 C 142.037 193.498, 138.838 175.990, 135.712 168.314 C 128.047 149.495, 109.965 133.585, 90.500 128.533 C 81.877 126.295, 69.699 125.820, 61.500 127.401 M 221.500 127.401 C 206.645 130.266, 195.144 136.774, 184.168 148.528 C 172.277 161.260, 166.624 175.751, 166.624 193.500 C 166.624 211.249, 172.277 225.740, 184.168 238.472 C 195.905 251.040, 206.823 256.882, 224.329 259.959 C 231.557 261.229, 235.395 261.444, 238.829 260.771 C 260.952 256.434, 268.121 252.956, 280.539 240.539 C 294.582 226.495, 300.300 212.923, 300.354 193.500 C 300.387 181.730, 298.545 173.821, 293.249 163 C 288.083 152.445, 274.546 138.911, 264 133.756 C 250.332 127.076, 235.043 124.790, 221.500 127.401 M 327.200 127.200 C 325.465 128.935, 325.465 259.065, 327.200 260.800 C 328.935 262.535, 459.065 262.535, 460.800 260.800 C 462.535 259.065, 462.535 128.935, 460.800 127.200 C 459.065 125.465, 328.935 125.465, 327.200 127.200 M 58.645 135.584 C 38.671 140.419, 20.279 158.986, 15.537 179.103 C 10.661 199.790, 16.552 220.547, 31.585 235.649 C 43.014 247.131, 57.192 253, 73.500 253 C 83.687 253, 90.069 251.503, 99.899 246.809 C 111.586 241.229, 121.229 231.586, 126.809 219.899 C 130.355 212.473, 133 203.737, 133 199.451 C 133 198.215, 128.557 198, 103.071 198 C 77.197 198, 72.930 197.787, 71.571 196.429 C 70.212 195.069, 70 190.758, 70 164.429 L 70 134 67.250 134.083 C 65.737 134.129, 61.865 134.804, 58.645 135.584 M 78 162 L 78 190 105.500 190 C 136.778 190, 134.002 190.967, 131.910 180.799 C 127.595 159.824, 108.761 140.456, 87.897 135.537 C 76.926 132.951, 78 130.080, 78 162 M 218.645 135.584 C 198.671 140.419, 180.279 158.986, 175.537 179.103 C 173.610 187.282, 173.610 199.718, 175.537 207.897 C 179.356 224.095, 191.887 239.545, 207.101 246.809 C 214.848 250.508, 223.279 253, 228.049 253 C 229.962 253, 230 251.833, 230 193.500 L 230 134 227.250 134.083 C 225.738 134.129, 221.865 134.804, 218.645 135.584 M 238 193.500 C 238 244.825, 238.199 253, 239.451 253 C 243.737 253, 252.473 250.355, 259.899 246.809 C 275.510 239.355, 288.473 222.910, 291.910 206.201 C 293.306 199.413, 293.306 187.587, 291.910 180.799 C 287.595 159.824, 268.761 140.456, 247.897 135.537 C 244.379 134.708, 240.713 134.023, 239.750 134.015 C 238.103 134.001, 238 137.494, 238 193.500 M 366.752 161.248 L 394 188.495 421.248 161.248 L 448.495 134 394 134 L 339.505 134 366.752 161.248 M 334 194 L 334 248.495 361.248 221.248 L 388.495 194 361.248 166.752 L 334 139.505 334 194 M 426.498 167.002 L 399.509 194.005 426.755 221.250 L 454 248.495 454 194.248 C 454 164.411, 453.884 140, 453.743 140 C 453.602 140, 441.341 152.151, 426.498 167.002 M 366.500 227 L 339.514 254 394 254 L 448.486 254 421.500 227 C 406.658 212.150, 394.283 200, 394 200 C 393.717 200, 381.342 212.150, 366.500 227 " stroke="none" fill="black" fill-rule="evenodd"/>
</svg>