<svg xmlns="http://www.w3.org/2000/svg" width="372" height="324" viewBox="0 0 372 324" version="1.1">
	<path d="M 33.384 127.412 C 15.475 131.758, 3.559 149.807, 6.987 167.396 C 9.770 181.681, 21.103 193.554, 33.908 195.601 L 38 196.256 38 227.556 C 38 254.678, 38.210 259.067, 39.571 260.429 C 40.436 261.293, 41.529 262, 42 262 C 44.239 262, 46.001 258.567, 46.015 254.179 C 46.104 225.902, 73.902 198.104, 102.179 198.015 C 105.082 198.006, 107.453 197.404, 108.429 196.429 C 110.418 194.439, 110.404 193.547, 108.348 191.491 C 105.202 188.345, 87.553 191.657, 75.194 197.713 C 66.837 201.809, 54.816 212.418, 49.850 220.081 C 48.097 222.787, 46.514 225, 46.332 225 C 46.149 225, 46 218.525, 46 210.611 L 46 196.223 49.703 195.528 C 58.178 193.938, 67.709 186.644, 72.232 178.288 C 83.343 157.761, 72.001 132.740, 49.147 127.360 C 42.397 125.772, 40.111 125.779, 33.384 127.412 M 31.054 135.728 C 25.018 137.859, 17.781 145.260, 15.667 151.463 C 11.995 162.241, 14.382 173.477, 21.952 181.048 C 32.673 191.769, 50.327 191.769, 61.048 181.048 C 71.769 170.327, 71.769 152.673, 61.048 141.952 C 53.519 134.424, 41.696 131.970, 31.054 135.728 M 135.571 191.571 C 134.707 192.436, 134 193.529, 134 194 C 134 194.471, 134.707 195.564, 135.571 196.429 C 136.936 197.793, 141.463 198, 170 198 C 198.537 198, 203.064 197.793, 204.429 196.429 C 205.293 195.564, 206 194.471, 206 194 C 206 193.529, 205.293 192.436, 204.429 191.571 C 203.064 190.207, 198.537 190, 170 190 C 141.463 190, 136.936 190.207, 135.571 191.571 M 231.571 255.571 C 230.707 256.436, 230 257.529, 230 258 C 230 258.471, 230.707 259.564, 231.571 260.429 C 232.930 261.787, 237.197 262, 263.071 262 C 297.186 262, 294.053 260.908, 291.463 271.897 C 285.754 296.113, 260.791 316.902, 237.321 316.985 C 232.807 317.001, 229.506 319.269, 230.442 321.711 C 230.749 322.510, 231 323.352, 231 323.582 C 231 323.812, 233.973 324, 237.606 324 C 260.947 324, 285.440 306.860, 295.212 283.687 L 297.649 277.907 299.063 282.190 C 301.341 289.095, 309.100 299.996, 316.807 307.123 C 328.426 317.867, 343.317 324, 357.787 324 C 364.369 324, 366 323.303, 366 320.490 C 366 318.732, 362.130 316.998, 358.179 316.985 C 334.205 316.909, 309.304 296.362, 303.537 271.897 C 300.946 260.903, 297.745 262, 332.429 262 C 358.758 262, 363.069 261.788, 364.429 260.429 C 365.293 259.564, 366 258.471, 366 258 C 366 257.529, 365.293 256.436, 364.429 255.571 C 363.032 254.175, 355.628 254, 298 254 C 240.372 254, 232.968 254.175, 231.571 255.571 " stroke="none" fill="black" fill-rule="evenodd"/>
</svg>