<svg xmlns="http://www.w3.org/2000/svg" width="403" height="324" viewBox="0 0 403 324" version="1.1">
	<path d="M 33.384 127.357 C 15.361 131.923, 3.562 149.820, 6.987 167.396 C 9.770 181.681, 21.103 193.554, 33.908 195.601 L 38 196.256 38 228.093 C 38 258.545, 38.084 259.975, 39.934 260.965 C 42.286 262.223, 169.829 262.395, 171.804 261.142 C 172.848 260.480, 173.098 250.429, 173.057 210.658 C 173.030 183.346, 173.167 161, 173.362 161 C 173.557 161, 175.351 163.461, 177.347 166.468 C 185.082 178.118, 198.404 188.494, 211.338 192.944 C 219.661 195.808, 233.624 197.557, 235.530 195.975 C 237.309 194.498, 237.434 191.834, 235.800 190.200 C 235.140 189.540, 232.392 189, 229.694 189 C 212.910 189, 193.480 177.637, 183.028 161.708 C 178.103 154.202, 174 141.845, 174 134.520 C 174 127.256, 171.490 124.597, 166.934 127.035 C 165.482 127.813, 165 129.143, 165 132.375 C 165 139.078, 161.374 151.635, 157.340 158.899 C 151.912 168.675, 141.977 177.998, 131.820 182.847 C 123.178 186.974, 115.669 189, 109.022 189 C 105.416 189, 102 190.946, 102 193 C 102 193.471, 102.732 194.589, 103.627 195.485 C 106.840 198.697, 124.038 195.139, 136.500 188.683 C 145.952 183.786, 158.030 172.472, 162.851 164 L 165.981 158.500 165.991 206.250 L 166 254 106 254 L 46 254 46 225 C 46 200.219, 46.213 196, 47.462 196 C 52.056 196, 60.841 191.319, 66.080 186.080 C 76.010 176.150, 78.986 161.911, 73.934 148.507 C 68.097 133.023, 49.437 123.290, 33.384 127.357 M 327.200 127.200 C 326.292 128.108, 326 143.689, 326 191.200 L 326 254 295.934 254 C 277.122 254, 265.145 254.387, 263.934 255.035 C 261.440 256.370, 261.448 259.634, 263.948 260.972 C 265.256 261.672, 287.132 261.930, 330.589 261.757 C 390.951 261.517, 395.356 261.383, 396.386 259.750 C 397.191 258.474, 397.191 257.526, 396.386 256.250 C 395.380 254.654, 392.542 254.477, 364.141 254.236 L 333 253.972 333 225.986 L 333 198 363.800 198 C 386.422 198, 394.919 197.681, 395.800 196.800 C 397.519 195.081, 397.519 128.919, 395.800 127.200 C 394.082 125.482, 328.918 125.482, 327.200 127.200 M 31.054 135.728 C 25.018 137.859, 17.781 145.260, 15.667 151.463 C 9.189 170.476, 21.963 189, 41.552 189 C 52.593 189, 61.089 183.627, 66.080 173.488 C 68.890 167.782, 69.186 166.354, 68.817 160.295 C 68.317 152.070, 65.991 146.908, 60.280 141.347 C 53.109 134.363, 41.332 132.099, 31.054 135.728 M 333 162 L 333 190 361.500 190 L 390 190 390 162 L 390 134 361.500 134 L 333 134 333 162 " stroke="none" fill="black" fill-rule="evenodd"/>
</svg>