<svg xmlns="http://www.w3.org/2000/svg" width="276" height="324" viewBox="0 0 276 324" version="1.1">
	<path d="M 55.571 63.571 C 54.707 64.436, 54 65.332, 54 65.564 C 54 67.123, 71.710 101.058, 72.727 101.449 C 73.427 101.717, 74.573 101.717, 75.273 101.449 C 77.129 100.736, 94.063 66.328, 93.403 64.609 C 92.732 62.858, 90.483 61.877, 88.705 62.560 C 87.993 62.833, 84.520 68.894, 80.986 76.028 C 77.453 83.163, 74.308 89, 73.997 89 C 73.687 89, 70.748 83.534, 67.467 76.853 C 59.925 61.499, 58.847 60.296, 55.571 63.571 M 63.102 127.108 C 37.633 130.963, 15.059 151.541, 8.374 177 C 6.113 185.610, 6.113 201.390, 8.374 210 C 11.590 222.248, 16.560 230.638, 26.461 240.535 C 33.518 247.589, 37.161 250.372, 43.076 253.230 C 53.781 258.402, 71.347 262.280, 77.823 260.900 C 79.845 260.469, 84.875 259.396, 89 258.516 C 101.502 255.849, 110.171 250.907, 120.539 240.539 C 127.538 233.540, 130.400 229.807, 133.222 224 C 137.097 216.025, 140 206.221, 140 201.106 L 140 198 166.202 198 L 192.405 198 179.202 211.333 C 171.941 218.666, 166 225.159, 166 225.761 C 166 227.187, 168.825 230, 170.257 230 C 172.006 230, 206 195.761, 206 194 C 206 192.239, 172.006 158, 170.257 158 C 168.825 158, 166 160.813, 166 162.239 C 166 162.841, 171.949 169.342, 179.219 176.684 L 192.439 190.035 166.473 189.767 L 140.508 189.500 139.805 183.870 C 137.999 169.407, 131.925 157.734, 120.084 145.974 C 107.452 133.428, 94.970 127.785, 77.331 126.646 C 73.024 126.368, 66.621 126.576, 63.102 127.108 M 58.645 135.584 C 38.671 140.419, 20.279 158.986, 15.537 179.103 C 13.610 187.282, 13.610 199.718, 15.537 207.897 C 20.338 228.261, 38.739 246.662, 59.103 251.463 C 62.621 252.292, 66.513 252.977, 67.750 252.985 L 70 253 70 193.500 L 70 134 67.250 134.083 C 65.737 134.129, 61.865 134.804, 58.645 135.584 M 78 162 L 78 190 105.500 190 L 133 190 132.985 187.750 C 132.977 186.512, 132.292 182.621, 131.463 179.103 C 126.662 158.739, 108.261 140.338, 87.897 135.537 C 76.926 132.951, 78 130.080, 78 162 M 231.571 159.571 C 229.215 161.927, 229.215 210.073, 231.571 212.429 C 232.436 213.293, 233.529 214, 234 214 C 234.471 214, 235.564 213.293, 236.429 212.429 C 238.785 210.073, 238.785 161.927, 236.429 159.571 C 235.564 158.707, 234.471 158, 234 158 C 233.529 158, 232.436 158.707, 231.571 159.571 M 78 225.500 C 78 256.852, 76.931 254.047, 87.897 251.463 C 108.261 246.662, 126.662 228.261, 131.463 207.897 C 134.047 196.931, 136.852 198, 105.500 198 L 78 198 78 225.500 M 231.571 222.571 C 230.707 223.436, 230 224.529, 230 225 C 230 225.471, 230.707 226.564, 231.571 227.429 C 232.436 228.293, 233.529 229, 234 229 C 234.471 229, 235.564 228.293, 236.429 227.429 C 237.293 226.564, 238 225.471, 238 225 C 238 224.529, 237.293 223.436, 236.429 222.571 C 235.564 221.707, 234.471 221, 234 221 C 233.529 221, 232.436 221.707, 231.571 222.571 " stroke="none" fill="black" fill-rule="evenodd"/>
</svg>