<svg xmlns="http://www.w3.org/2000/svg" width="403" height="324" viewBox="0 0 403 324" version="1.1">
	<path d="M 55.571 63.571 C 54.707 64.436, 54 65.317, 54 65.531 C 54 66.993, 71.421 100.653, 72.488 101.252 C 73.225 101.665, 74.440 101.768, 75.188 101.481 C 76.837 100.849, 93 68.755, 93 66.115 C 93 63.770, 90.710 61.790, 88.832 62.511 C 88.050 62.811, 84.520 68.894, 80.986 76.028 C 77.453 83.163, 74.308 89, 73.997 89 C 73.687 89, 70.748 83.534, 67.467 76.853 C 59.925 61.499, 58.847 60.296, 55.571 63.571 M 7.571 127.571 C 6.175 128.968, 6 136.372, 6 194 C 6 251.628, 6.175 259.032, 7.571 260.429 C 8.436 261.293, 9.529 262, 10 262 C 10.471 262, 11.564 261.293, 12.429 260.429 C 13.825 259.032, 14 251.628, 14 194 C 14 136.372, 13.825 128.968, 12.429 127.571 C 11.564 126.707, 10.471 126, 10 126 C 9.529 126, 8.436 126.707, 7.571 127.571 M 135.571 127.571 C 134.175 128.968, 134 136.372, 134 194 C 134 251.628, 134.175 259.032, 135.571 260.429 C 137.457 262.315, 138.219 262.381, 139.800 260.800 C 141.535 259.065, 141.535 128.935, 139.800 127.200 C 138.219 125.619, 137.457 125.685, 135.571 127.571 M 194.355 158.998 C 183.822 161.188, 174.117 169.138, 169.329 179.500 C 165.374 188.059, 165.386 198.895, 169.361 207.610 C 178.830 228.373, 204.381 234.913, 222.500 221.212 C 227.866 217.154, 233.383 208.986, 235.138 202.500 C 236.952 195.795, 235.742 184.321, 232.553 178 C 225.551 164.118, 209.097 155.933, 194.355 158.998 M 263.750 159.080 C 262.138 160.019, 262 162.769, 262 194.015 C 262 227.256, 262.041 227.952, 264.064 229.034 C 265.596 229.854, 266.498 229.832, 267.564 228.947 C 268.760 227.954, 269 222.127, 269 194.078 C 269 157.363, 268.815 156.130, 263.750 159.080 M 391.724 159.134 C 390.145 160.018, 390 162.948, 390 194.015 C 390 225.479, 390.128 227.998, 391.776 228.880 C 392.902 229.483, 394.182 229.478, 395.276 228.866 C 396.855 227.982, 397 225.052, 397 193.985 C 397 162.521, 396.872 160.002, 395.224 159.120 C 394.098 158.517, 392.818 158.522, 391.724 159.134 M 191.885 167.380 C 176.986 172.704, 169.526 190.094, 175.929 204.573 C 180.388 214.659, 188.281 220.062, 199.616 220.789 C 206.399 221.224, 207.556 221.001, 213.397 218.125 C 225.374 212.229, 231.511 198.958, 228.096 186.337 C 224.933 174.647, 213.616 165.959, 201.663 166.044 C 198.273 166.068, 193.873 166.669, 191.885 167.380 M 199.750 191.080 C 197.372 192.465, 197.542 195.685, 200.064 197.034 C 203.753 199.008, 206.819 194.219, 203.800 191.200 C 202.367 189.767, 202.022 189.757, 199.750 191.080 M 39.571 255.571 C 38.707 256.436, 38 257.529, 38 258 C 38 259.111, 40.889 262, 42 262 C 43.111 262, 46 259.111, 46 258 C 46 256.889, 43.111 254, 42 254 C 41.529 254, 40.436 254.707, 39.571 255.571 M 71.571 255.571 C 70.707 256.436, 70 257.529, 70 258 C 70 259.068, 72.871 262, 73.916 262 C 74.342 262, 75.505 261.100, 76.500 260 C 78.247 258.070, 78.247 257.930, 76.500 256 C 74.318 253.589, 73.615 253.528, 71.571 255.571 M 103.616 255.527 C 102.727 256.416, 102 257.529, 102 258 C 102 259.389, 105.140 262.120, 106.295 261.735 C 108.395 261.035, 109.549 258.094, 108.423 256.310 C 106.905 253.902, 105.474 253.669, 103.616 255.527 M 295.750 255.080 C 293.372 256.465, 293.542 259.685, 296.064 261.034 C 299.753 263.008, 302.819 258.219, 299.800 255.200 C 298.367 253.767, 298.022 253.757, 295.750 255.080 M 327.750 255.080 C 325.372 256.465, 325.542 259.685, 328.064 261.034 C 331.753 263.008, 334.819 258.219, 331.800 255.200 C 330.367 253.767, 330.022 253.757, 327.750 255.080 M 359.750 255.080 C 357.372 256.465, 357.542 259.685, 360.064 261.034 C 363.753 263.008, 366.819 258.219, 363.800 255.200 C 362.367 253.767, 362.022 253.757, 359.750 255.080 " stroke="none" fill="black" fill-rule="evenodd"/>
</svg>