<svg xmlns="http://www.w3.org/2000/svg" width="244" height="324" viewBox="0 0 244 324" version="1.1">
	<path d="M 127.102 127.162 C 112.713 129.219, 99.367 136.536, 88.208 148.484 C 76.225 161.315, 70.624 175.654, 70.624 193.500 C 70.624 212.874, 76.315 226.360, 90.474 240.539 C 104.530 254.615, 118.156 260.346, 137.500 260.319 C 156.199 260.292, 170.950 254.089, 184.584 240.521 C 197.645 227.522, 204.326 211.574, 204.282 193.500 C 204.239 175.592, 197.663 159.633, 185.121 146.995 C 173.603 135.389, 161.653 129.243, 146.284 127.020 C 138.450 125.888, 135.879 125.907, 127.102 127.162 M 198.667 127.667 C 196.978 129.356, 198.535 131.893, 205.381 138.607 C 214.563 147.612, 220.910 157.685, 225.161 170 C 228.259 178.973, 228.441 180.277, 228.441 193.500 C 228.441 206.723, 228.259 208.027, 225.161 217 C 220.836 229.529, 214.462 239.535, 204.860 248.870 C 200.544 253.067, 197.010 256.805, 197.006 257.179 C 196.997 258.137, 199.975 261, 200.980 261 C 202.956 261, 213.366 251.386, 218.516 244.805 C 242.153 214.595, 241.991 171.771, 218.126 141.739 C 209.156 130.451, 201.453 124.880, 198.667 127.667 M 121.500 135.870 C 101.318 141.679, 84.739 158.549, 79.520 178.584 C 77.582 186.024, 77.566 200.912, 79.487 208.289 C 84.877 228.981, 102.740 246.662, 123.103 251.463 C 130.646 253.241, 142.760 253.441, 150.201 251.910 C 153.115 251.310, 159.244 249.032, 163.820 246.847 C 179.079 239.562, 190.717 225.246, 195.003 208.489 C 196.101 204.194, 197 200.077, 197 199.340 C 197 198.249, 191.359 198, 166.700 198 C 144.467 198, 136.081 197.681, 135.200 196.800 C 134.319 195.919, 134 187.422, 134 164.800 L 134 134 130.750 134.071 C 128.963 134.110, 124.800 134.920, 121.500 135.870 M 142 162 L 142 190 169.500 190 C 201.156 190, 198.273 191.299, 195.003 178.511 C 190.717 161.754, 179.079 147.438, 163.820 140.153 C 156.461 136.639, 147.724 134, 143.451 134 C 142.218 134, 142 138.200, 142 162 M 15.308 199.308 C 10.188 204.427, 6 209.120, 6 209.736 C 6 211.121, 8.789 214, 10.131 214 C 10.675 214, 13.568 211.685, 16.560 208.855 L 22 203.710 22 228.855 L 22 254 15.571 254 C 11.061 254, 8.674 254.469, 7.571 255.571 C 5.598 257.545, 5.598 258.455, 7.571 260.429 C 9.900 262.757, 42.100 262.757, 44.429 260.429 C 46.402 258.455, 46.402 257.545, 44.429 255.571 C 43.326 254.469, 40.939 254, 36.429 254 L 30 254 30 223.571 C 30 197.242, 29.788 192.931, 28.429 191.571 C 27.564 190.707, 26.353 190, 25.736 190 C 25.120 190, 20.427 194.188, 15.308 199.308 " stroke="none" fill="black" fill-rule="evenodd"/>
</svg>