<svg xmlns="http://www.w3.org/2000/svg" width="212" height="324" viewBox="0 0 212 324" version="1.1">
	<path d="M 72.372 62.751 C 70.408 64.054, 54.005 97.849, 54.593 99.381 C 55.268 101.141, 57.513 102.124, 59.295 101.440 C 60.007 101.167, 63.480 95.106, 67.014 87.972 C 70.547 80.837, 73.691 75, 74 75 C 74.309 75, 77.453 80.837, 80.986 87.972 C 84.520 95.106, 87.993 101.167, 88.705 101.440 C 90.478 102.121, 92.731 101.144, 93.398 99.406 C 94.127 97.506, 76.754 62.573, 74.920 62.251 C 74.139 62.114, 72.992 62.339, 72.372 62.751 M 63.870 127.071 C 48.893 129.271, 37.652 135.158, 25.974 146.916 C 13.929 159.043, 8.439 170.851, 6.473 188.854 L 5.779 195.209 38.627 228.112 C 56.694 246.210, 72.290 261.275, 73.286 261.591 C 77.355 262.882, 78 260.597, 78 244.878 L 78 230 92.800 230 C 102.978 230, 107.975 229.625, 108.800 228.800 C 110.519 227.081, 110.519 160.919, 108.800 159.200 C 107.975 158.375, 102.978 158, 92.800 158 L 78 158 78 146 C 78 132.274, 77.281 133.035, 87.897 135.537 C 112.055 141.232, 133 166.053, 133 188.988 C 133 193.308, 135.075 198, 136.985 198 C 137.465 198, 138.614 197.243, 139.540 196.317 C 140.945 194.912, 141.109 193.479, 140.531 187.614 C 137.530 157.166, 115.128 132.886, 85 127.428 C 76.676 125.920, 72.215 125.845, 63.870 127.071 M 59 135.576 C 42.069 140.023, 27.451 151.897, 20.191 167.101 C 16.169 175.523, 14 183.307, 14 189.315 C 14 192.093, 15.635 194.162, 26 204.500 L 38 216.469 38 188.806 C 38 164.991, 38.219 160.924, 39.571 159.571 C 40.855 158.288, 43.788 158, 55.571 158 L 70 158 70 146 L 70 134 67.250 134.066 C 65.737 134.102, 62.025 134.782, 59 135.576 M 46 194 L 46 222 58 222 L 70 222 70 194 L 70 166 58 166 L 46 166 46 194 M 78 194 L 78 222 90 222 L 102 222 102 194 L 102 166 90 166 L 78 166 78 194 M 168.200 191.200 C 165.181 194.219, 168.247 199.008, 171.936 197.034 C 174.536 195.643, 174.606 192.395, 172.066 191.035 C 169.655 189.745, 169.655 189.745, 168.200 191.200 M 200.200 191.200 C 197.181 194.219, 200.247 199.008, 203.936 197.034 C 206.536 195.643, 206.606 192.395, 204.066 191.035 C 201.655 189.745, 201.655 189.745, 200.200 191.200 M 60.500 239 C 65.427 243.950, 69.580 248, 69.729 248 C 69.878 248, 70 243.950, 70 239 L 70 230 60.771 230 L 51.542 230 60.500 239 " stroke="none" fill="black" fill-rule="evenodd"/>
</svg>