<svg xmlns="http://www.w3.org/2000/svg" width="340" height="324" viewBox="0 0 340 324" version="1.1">
	<path d="M 39.571 127.571 C 38.176 128.966, 38 136.152, 38 191.571 L 38 254 23.571 254 C 11.788 254, 8.855 254.288, 7.571 255.571 C 5.598 257.545, 5.598 258.455, 7.571 260.429 C 8.936 261.793, 13.463 262, 42 262 C 70.537 262, 75.064 261.793, 76.429 260.429 C 77.293 259.564, 78 258.471, 78 258 C 78 257.529, 77.293 256.436, 76.429 255.571 C 75.145 254.288, 72.212 254, 60.429 254 L 46 254 46 191.571 C 46 136.152, 45.824 128.966, 44.429 127.571 C 43.564 126.707, 42.471 126, 42 126 C 41.529 126, 40.436 126.707, 39.571 127.571 M 157.500 127.478 C 127.847 132.974, 105.476 157.501, 102.506 187.773 C 101.997 192.966, 102.143 195.467, 103.019 196.523 C 104.075 197.796, 112.547 198, 164.325 198 L 224.405 198 211.202 211.333 C 203.941 218.666, 198 225.159, 198 225.761 C 198 227.178, 200.822 230, 202.239 230 C 202.841 230, 209.334 224.059, 216.667 216.798 L 230 203.595 230 231.763 C 230 259.693, 230.018 259.939, 232.183 261.098 C 234.042 262.093, 234.636 261.933, 236.183 260.022 C 237.897 257.906, 238 254.147, 238 194 C 238 133.853, 237.897 130.094, 236.183 127.978 C 234.636 126.067, 234.042 125.907, 232.183 126.902 C 230.062 128.037, 230 128.586, 230 146.226 L 230 164.382 226.442 158.441 C 216.659 142.103, 198.752 130.274, 178.935 127.059 C 170.867 125.750, 166.345 125.839, 157.500 127.478 M 263.750 127.080 C 262.138 128.019, 262 130.762, 262 161.850 C 262 186.767, 262.314 195.914, 263.200 196.800 C 264.013 197.613, 268.689 198, 277.700 198 C 285.015 198, 291 198.228, 291 198.507 C 291 198.785, 284.475 212.057, 276.500 228 C 268.525 243.943, 262 257.649, 262 258.458 C 262 260.785, 265.808 262.404, 267.663 260.865 C 268.507 260.164, 275.620 246.753, 283.468 231.063 L 297.739 202.535 312.620 232.018 C 321.171 248.961, 328.138 261.606, 329 261.749 C 333.159 262.438, 333.107 263.308, 333.043 194.436 C 332.978 123.591, 333.030 124.308, 328.117 126.938 C 326.031 128.054, 326 128.525, 326 159.035 L 326 190 298 190 L 270 190 270 160.223 C 270 134.890, 269.768 130.113, 268.443 128.223 C 266.702 125.736, 266.248 125.625, 263.750 127.080 M 154.645 135.584 C 134.761 140.397, 116.825 158.334, 111.585 178.644 C 110.713 182.024, 110 185.961, 110 187.394 L 110 190 167.202 190 L 224.405 190 211.202 176.667 C 203.941 169.334, 198 162.841, 198 162.239 C 198 160.825, 200.820 158, 202.232 158 C 202.831 158, 208.906 163.512, 215.732 170.250 C 229.117 183.462, 229.515 183.495, 224.595 170.992 C 217.806 153.737, 202.210 140.261, 183.540 135.515 C 176.213 133.653, 162.488 133.685, 154.645 135.584 M 314.607 219.250 C 320.446 230.938, 325.398 240.688, 325.612 240.917 C 325.825 241.146, 326 231.583, 326 219.667 L 326 198 314.995 198 L 303.991 198 314.607 219.250 " stroke="none" fill="black" fill-rule="evenodd"/>
</svg>