<svg xmlns="http://www.w3.org/2000/svg" width="244" height="324" viewBox="0 0 244 324" version="1.1">
	<path d="M 183.250 143.240 L 166 160.521 166 194.021 L 166 227.521 183.383 244.883 C 192.944 254.432, 201.266 262.077, 201.876 261.872 C 202.487 261.668, 210.658 253.875, 220.035 244.555 L 237.082 227.610 237.082 194 L 237.082 160.390 220.046 143.445 C 210.676 134.125, 202.445 126.378, 201.755 126.230 C 201.065 126.081, 192.738 133.736, 183.250 143.240 M 190 146.500 L 178.533 158 201.500 158 L 224.467 158 213 146.500 C 206.693 140.175, 201.518 135, 201.500 135 C 201.482 135, 196.307 140.175, 190 146.500 M 173 194 L 173 222 201.500 222 L 230 222 230 194 L 230 166 201.500 166 L 173 166 173 194 M 33.244 175.109 C 21.572 177.054, 4.461 188.234, 5.204 193.430 C 5.738 197.166, 9.662 196.567, 14.627 191.990 C 17.111 189.700, 21.699 186.641, 24.822 185.193 C 29.798 182.886, 31.798 182.556, 41 182.531 C 55.403 182.491, 60.755 184.659, 70.520 194.487 C 78.725 202.746, 85.162 206.307, 95.949 208.557 C 107.867 211.042, 121.026 208.408, 131.528 201.437 C 140.095 195.751, 141.974 192.272, 137.873 189.690 C 136.602 188.890, 135.271 189.464, 131.803 192.305 C 129.359 194.308, 124.692 197.195, 121.430 198.723 C 116.127 201.206, 114.389 201.500, 105 201.500 C 95.344 201.500, 93.977 201.252, 88 198.418 C 83.607 196.335, 79.555 193.310, 75.500 189.086 C 68.195 181.477, 58.638 176.517, 48.444 175.043 C 40.597 173.909, 40.445 173.910, 33.244 175.109 M 190 241.500 L 201.468 253.001 212.734 241.767 C 218.930 235.588, 224 230.413, 224 230.266 C 224 230.120, 213.770 230, 201.266 230 L 178.533 230 190 241.500 " stroke="none" fill="black" fill-rule="evenodd"/>
</svg>