<svg xmlns="http://www.w3.org/2000/svg" width="403" height="324" viewBox="0 0 403 324" version="1.1">
	<path d="M 319.235 127.099 C 295.733 130.644, 275.707 146.817, 266.457 169.721 C 258.343 189.815, 261.985 215.850, 275.348 233.259 C 277.356 235.876, 279 238.361, 279 238.781 C 279 239.201, 275.175 243.349, 270.500 248 C 265.825 252.651, 262 257.237, 262 258.193 C 262 259.148, 262.957 260.442, 264.127 261.068 C 266.048 262.096, 267.152 261.314, 275.493 253.007 L 284.731 243.808 289.528 247.469 C 298.466 254.292, 308.126 258.163, 321 260.082 C 329.851 261.401, 328.628 261.408, 337.908 259.987 C 363.628 256.048, 383.695 239.526, 392.405 215.118 C 395.238 207.176, 395.480 205.480, 395.480 193.500 C 395.480 181.520, 395.238 179.824, 392.405 171.882 C 390.713 167.142, 387.168 160.014, 384.527 156.040 L 379.724 148.816 388.362 140.138 C 393.113 135.366, 397 130.698, 397 129.765 C 397 128.833, 396.071 127.573, 394.936 126.966 C 393.102 125.984, 391.850 126.860, 383.686 134.841 L 374.500 143.821 369 139.786 C 354.745 129.328, 336.052 124.562, 319.235 127.099 M 314 135.583 C 291.186 141.602, 274.132 160.571, 270.266 184.230 C 268.865 192.800, 268.868 194.580, 270.290 203.016 C 271.992 213.108, 276.583 223.795, 281.883 230 L 284.873 233.500 305.436 213.009 L 326 192.518 326 163.259 L 326 134 322.750 134.066 C 320.962 134.102, 317.025 134.785, 314 135.583 M 333 159.604 L 333 185.479 350.958 167.542 C 371.121 147.403, 370.414 149.192, 360.690 142.889 C 354.355 138.782, 345.200 135.384, 337.750 134.373 L 333 133.728 333 159.604 M 353.241 175.259 L 333 195.518 333 224.395 L 333 253.272 337.750 252.627 C 356.326 250.106, 373.694 237.542, 382.055 220.577 C 390.732 202.971, 391.038 185.363, 382.966 168.113 C 379.886 161.531, 375.515 155, 374.190 155 C 373.800 155, 364.373 164.117, 353.241 175.259 M 193.500 159.367 C 182.416 162.207, 174.132 169.107, 169.329 179.500 C 165.372 188.063, 165.372 198.937, 169.329 207.500 C 181.731 234.339, 218.050 235.686, 232.070 209.826 C 235.326 203.820, 235.500 202.994, 235.499 193.500 C 235.499 184.448, 235.227 182.979, 232.639 178 C 225.136 163.570, 208.328 155.568, 193.500 159.367 M 190.363 167.922 C 176.353 174.284, 169.844 190.813, 175.929 204.573 C 180.444 214.785, 188.341 220.126, 199.883 220.774 C 206.994 221.173, 207.926 220.979, 213.911 217.851 C 224.395 212.371, 229.767 202.562, 228.713 190.821 C 227.772 180.346, 220.582 170.975, 210.684 167.326 C 205.616 165.457, 195.113 165.766, 190.363 167.922 M 7.579 191.564 C 5.598 193.545, 5.596 194.454, 7.571 196.429 C 8.844 197.701, 11.697 198, 22.575 198 L 36.006 198 21.020 227.961 C 12.777 244.439, 6.285 258.580, 6.594 259.384 C 7.265 261.133, 9.512 262.125, 11.274 261.448 C 11.975 261.180, 19.056 247.919, 27.010 231.980 C 34.964 216.041, 41.717 203, 42.016 203 C 42.315 203, 49.042 216.034, 56.965 231.964 C 64.888 247.894, 71.962 261.155, 72.685 261.433 C 73.408 261.710, 74.573 261.717, 75.274 261.448 C 75.975 261.180, 83.056 247.919, 91.010 231.980 C 98.964 216.041, 105.710 203, 106 203 C 106.290 203, 113.036 216.041, 120.990 231.980 C 128.944 247.919, 136.083 261.201, 136.853 261.497 C 138.718 262.213, 141 260.217, 141 257.871 C 141 256.835, 134.480 242.952, 126.511 227.021 L 112.021 198.056 125.653 197.778 C 137.361 197.539, 139.441 197.253, 140.388 195.750 C 141.191 194.475, 141.190 193.525, 140.386 192.250 C 139.356 190.617, 134.934 190.483, 74.220 190.243 C 16.058 190.013, 8.990 190.153, 7.579 191.564 M 60.743 223.500 C 67.750 237.525, 73.715 249, 74 249 C 74.285 249, 80.250 237.525, 87.257 223.500 L 99.995 198 74 198 L 48.005 198 60.743 223.500 M 307.604 220.896 L 289.729 238.791 294.014 241.895 C 302.250 247.862, 315.760 253, 323.210 253 L 326 253 326 228 C 326 214.250, 325.883 203, 325.740 203 C 325.596 203, 317.435 211.053, 307.604 220.896 M 167.585 255.558 C 166.713 256.430, 166 257.529, 166 258 C 166 258.471, 166.713 259.570, 167.585 260.442 C 168.978 261.835, 173.159 261.995, 202.226 261.763 C 232.452 261.523, 235.377 261.350, 236.386 259.750 C 237.191 258.474, 237.191 257.526, 236.386 256.250 C 235.377 254.650, 232.452 254.477, 202.226 254.237 C 173.159 254.005, 168.978 254.165, 167.585 255.558 " stroke="none" fill="black" fill-rule="evenodd"/>
</svg>