<svg xmlns="http://www.w3.org/2000/svg" width="148" height="324" viewBox="0 0 148 324" version="1.1">
	<path d="M 55.571 63.571 C 54.707 64.436, 54 65.317, 54 65.531 C 54 66.316, 71.159 100.529, 71.965 101.349 C 74.275 103.702, 76.913 100.229, 84.760 84.501 C 89.292 75.417, 93 67.143, 93 66.115 C 93 63.770, 90.710 61.790, 88.832 62.511 C 88.050 62.811, 84.520 68.894, 80.986 76.028 C 77.453 83.163, 74.306 89, 73.994 89 C 73.683 89, 70.969 83.984, 67.964 77.854 C 62.437 66.580, 59.559 62, 57.999 62 C 57.528 62, 56.436 62.707, 55.571 63.571 M 7.571 127.571 C 6.707 128.436, 6 129.665, 6 130.302 C 6 130.940, 33.558 159.033, 67.239 192.731 L 128.478 254 100.810 254 C 76.991 254, 72.924 254.219, 71.571 255.571 C 69.598 257.545, 69.598 258.455, 71.571 260.429 C 72.937 261.794, 77.433 261.998, 105.821 261.985 C 123.795 261.976, 139.096 261.591, 139.825 261.129 C 140.886 260.456, 141.128 253.539, 141.040 226.395 C 140.921 189.938, 140.718 188.475, 136.117 190.938 C 134.037 192.051, 134 192.566, 134 220.783 L 134 249.495 72.750 187.699 C 39.063 153.712, 10.970 125.925, 10.321 125.952 C 9.673 125.978, 8.436 126.707, 7.571 127.571 " stroke="none" fill="black" fill-rule="evenodd"/>
</svg>