<svg xmlns="http://www.w3.org/2000/svg" width="308" height="324" viewBox="0 0 308 324" version="1.1">
	<path d="M 72.316 62.784 C 70.369 64.022, 54.007 97.855, 54.604 99.410 C 55.450 101.615, 58.110 102.210, 59.895 100.594 C 60.778 99.795, 64.185 93.709, 67.467 87.070 C 70.748 80.432, 73.687 75, 73.997 75 C 74.308 75, 77.453 80.837, 80.986 87.972 C 84.520 95.106, 88.050 101.189, 88.832 101.489 C 90.716 102.212, 93 100.227, 93 97.866 C 93 95.626, 77.264 63.831, 75.628 62.765 C 74.214 61.845, 73.789 61.847, 72.316 62.784 M 64.500 126.944 C 56.325 128.268, 50.930 129.991, 43 133.814 C 32.444 138.903, 18.927 152.404, 13.778 163 C 7.648 175.615, 4.334 193.191, 7.491 196.348 C 10.992 199.850, 14 196.834, 14 189.823 C 14 176.987, 20.739 162.179, 31.459 151.459 C 43.091 139.828, 56.905 134, 72.845 134 C 83.674 134, 89.916 135.424, 99.820 140.153 C 109.977 145.002, 119.912 154.325, 125.340 164.101 C 129.365 171.350, 133 183.919, 133 190.589 C 133 194.479, 134.839 198, 136.871 198 C 140.482 198, 141.008 188.263, 138.028 176.609 C 134.978 164.686, 129.782 155.740, 120.457 146.361 C 113.703 139.568, 110.806 137.478, 102.933 133.719 C 97.745 131.242, 91.475 128.743, 89 128.165 C 82.400 126.623, 70.232 126.016, 64.500 126.944 M 280.617 141.914 L 264.424 158 232.412 158 C 208.847 158, 200.083 158.317, 199.200 159.200 C 198.317 160.083, 198 168.858, 198 192.462 L 198 224.523 182 240.500 C 173.200 249.287, 166 257.253, 166 258.203 C 166 259.153, 166.960 260.443, 168.133 261.071 C 170.081 262.114, 171.661 260.819, 186.394 246.106 L 202.522 230 234.561 230 C 258.147 230, 266.917 229.683, 267.800 228.800 C 268.683 227.917, 269 219.142, 269 195.538 L 269 163.477 285 147.500 C 293.800 138.713, 301 130.747, 301 129.797 C 301 128.847, 300.057 127.566, 298.905 126.949 C 297.007 125.934, 295.285 127.343, 280.617 141.914 M 71.616 159.527 C 70.727 160.416, 70 161.529, 70 162 C 70 163.389, 73.140 166.120, 74.295 165.735 C 76.395 165.035, 77.549 162.094, 76.423 160.310 C 74.905 157.902, 73.474 157.669, 71.616 159.527 M 205 191.743 L 205 217.485 230.500 192 C 244.525 177.983, 256 166.399, 256 166.257 C 256 166.116, 244.525 166, 230.500 166 L 205 166 205 191.743 M 236 196.500 L 210.515 222 236.257 222 L 262 222 262 196.500 C 262 182.475, 261.884 171, 261.743 171 C 261.601 171, 250.017 182.475, 236 196.500 M 39.585 191.558 C 38.713 192.430, 38 193.529, 38 194 C 38 194.471, 38.713 195.570, 39.585 196.442 C 40.978 197.835, 45.159 197.995, 74.226 197.763 C 104.452 197.523, 107.377 197.350, 108.386 195.750 C 109.191 194.474, 109.191 193.526, 108.386 192.250 C 107.377 190.650, 104.452 190.477, 74.226 190.237 C 45.159 190.005, 40.978 190.165, 39.585 191.558 M 71.616 223.527 C 70.727 224.416, 70 225.529, 70 226 C 70 227.389, 73.140 230.120, 74.295 229.735 C 76.395 229.035, 77.549 226.094, 76.423 224.310 C 74.905 221.902, 73.474 221.669, 71.616 223.527 " stroke="none" fill="black" fill-rule="evenodd"/>
</svg>