<svg xmlns="http://www.w3.org/2000/svg" width="212" height="324" viewBox="0 0 212 324" version="1.1">
	<path d="M 55.571 63.571 C 54.707 64.436, 54 65.332, 54 65.564 C 54 65.796, 57.934 73.868, 62.741 83.502 C 71.072 100.196, 73.702 103.726, 76.035 101.349 C 78.136 99.210, 93.885 65.863, 93.396 64.590 C 92.731 62.856, 90.476 61.880, 88.705 62.560 C 87.993 62.833, 84.520 68.894, 80.986 76.028 C 77.453 83.163, 74.308 89, 73.997 89 C 73.687 89, 70.748 83.534, 67.467 76.853 C 59.925 61.499, 58.847 60.296, 55.571 63.571 M 7.571 127.571 C 6.707 128.436, 5.997 129.673, 5.993 130.321 C 5.989 130.970, 33.584 159.063, 67.314 192.750 L 128.642 254 100.892 254 C 76.999 254, 72.924 254.218, 71.571 255.571 C 69.598 257.545, 69.598 258.455, 71.571 260.429 C 72.937 261.794, 77.497 262, 106.371 262 C 130.883 262, 139.915 261.685, 140.800 260.800 C 141.685 259.915, 142 250.883, 142 226.371 C 142 197.497, 141.794 192.937, 140.429 191.571 C 138.322 189.465, 137.402 189.588, 135.557 192.223 C 134.241 194.101, 134 198.628, 134 221.461 L 134 248.478 72.731 187.239 C 39.033 153.558, 10.940 126, 10.302 126 C 9.665 126, 8.436 126.707, 7.571 127.571 M 167.557 160.223 C 166.254 162.082, 166 166.310, 166 186.112 C 166 207.494, 166.175 209.995, 167.817 212.022 C 169.364 213.933, 169.958 214.093, 171.817 213.098 C 173.975 211.943, 174 211.631, 174 186 C 174 161.388, 173.902 160.018, 172.066 159.035 C 169.462 157.642, 169.343 157.673, 167.557 160.223 M 168.200 222.200 C 165.181 225.219, 168.247 230.008, 171.936 228.034 C 174.536 226.643, 174.606 223.395, 172.066 222.035 C 169.655 220.745, 169.655 220.745, 168.200 222.200 " stroke="none" fill="black" fill-rule="evenodd"/>
</svg>