<svg xmlns="http://www.w3.org/2000/svg" width="340" height="324" viewBox="0 0 340 324" version="1.1">
	<path d="M 63.870 127.071 C 48.893 129.271, 37.652 135.158, 25.974 146.916 C 12.475 160.507, 6.696 174.473, 6.696 193.500 C 6.696 211.262, 12.336 225.803, 24.119 238.420 C 43.010 258.649, 69.445 265.609, 94.863 257.046 C 110.473 251.788, 125.724 238.489, 132.861 223.913 C 138.421 212.557, 140.096 205.517, 140.096 193.500 C 140.096 181.580, 138.421 174.443, 133.041 163.450 C 123.603 144.165, 104.156 130.182, 82.398 127.037 C 74.550 125.902, 71.791 125.907, 63.870 127.071 M 57.500 135.870 C 37.436 141.645, 20.733 158.691, 15.585 178.644 C 13.554 186.517, 13.554 200.483, 15.585 208.356 C 18.169 218.372, 23.639 227.725, 31.459 235.500 C 35.332 239.350, 39.936 243.298, 41.692 244.272 L 44.884 246.045 42.522 241.772 C 38.909 235.240, 37.541 226.549, 39 219.396 C 43.827 195.719, 67.829 183.901, 89.568 194.498 C 106.192 202.602, 113.158 224.072, 104.705 241.152 L 102.353 245.905 105.393 244.202 C 107.065 243.266, 111.641 239.329, 115.561 235.454 C 126.986 224.160, 133 209.692, 133 193.500 C 133 166.498, 114.337 142.288, 88.356 135.585 C 80.226 133.488, 65.296 133.625, 57.500 135.870 M 183.571 159.571 C 181.243 161.900, 181.243 194.100, 183.571 196.429 C 185.678 198.535, 186.598 198.412, 188.443 195.777 C 189.690 193.997, 190 190.460, 190 178 C 190 165.540, 189.690 162.003, 188.443 160.223 C 186.598 157.588, 185.678 157.465, 183.571 159.571 M 257.500 159.364 C 250.664 161.110, 246.523 163.430, 240.972 168.623 C 226.895 181.790, 226.902 205.216, 240.987 218.392 C 246.946 223.965, 251.990 226.547, 259.616 227.930 C 265.681 229.030, 272.272 228.373, 278.339 226.063 C 280.550 225.221, 282.212 225.343, 285.839 226.613 C 292.581 228.973, 303.226 228.739, 310.188 226.077 C 317.262 223.373, 324.787 216.408, 328.639 209 C 331.231 204.014, 331.497 202.565, 331.488 193.500 C 331.475 181.373, 329.424 176.287, 321.342 168.339 C 312.272 159.420, 297.680 156.132, 285.871 160.345 C 281.783 161.804, 280.776 161.832, 277.242 160.586 C 271.151 158.437, 263.083 157.937, 257.500 159.364 M 255.885 167.380 C 244.704 171.375, 237.875 181.280, 237.875 193.500 C 237.875 208.255, 248.105 219.597, 262.454 220.748 C 265.960 221.030, 270.056 220.952, 271.557 220.575 L 274.286 219.890 271.197 216.695 C 262.365 207.559, 259.857 191.459, 265.379 179.349 C 266.922 175.965, 269.494 171.943, 271.095 170.409 C 273.224 168.370, 273.669 167.408, 272.752 166.826 C 270.802 165.587, 259.899 165.945, 255.885 167.380 M 290.313 166.641 C 289.554 166.950, 290.504 168.947, 292.947 172.174 C 302.449 184.729, 302.454 202.265, 292.959 214.810 C 288.561 220.621, 288.898 221.044, 297.832 220.924 C 308.143 220.786, 316.628 215.772, 321.500 206.939 C 324.130 202.171, 324.500 200.513, 324.500 193.500 C 324.500 186.487, 324.130 184.829, 321.500 180.061 C 318.429 174.492, 312.651 169.526, 306.684 167.326 C 303.534 166.165, 292.606 165.708, 290.313 166.641 M 277.247 174.250 C 267.184 184.650, 267.336 203.148, 277.566 213.064 L 280.999 216.391 283.648 214.413 C 285.105 213.325, 287.693 209.975, 289.399 206.968 C 292.153 202.112, 292.500 200.605, 292.500 193.500 C 292.500 186.506, 292.128 184.828, 289.541 180.158 C 286.882 175.358, 282.847 171, 281.061 171 C 280.693 171, 278.977 172.463, 277.247 174.250 M 63.741 199.429 C 56 202.191, 56.035 202.488, 65.170 211.671 L 73.457 220.001 81.692 211.809 C 90.838 202.711, 90.906 202.178, 83.260 199.573 C 77.673 197.669, 68.855 197.604, 63.741 199.429 M 180.764 206.996 C 175.184 208.676, 171.145 212.067, 168.571 217.234 C 165.329 223.740, 165.334 227.271, 168.597 233.818 C 174.264 245.191, 188.162 248.065, 197.564 239.809 C 202.435 235.533, 204 232.053, 204 225.500 C 204 218.952, 202.435 215.467, 197.578 211.203 C 192.492 206.737, 186.556 205.252, 180.764 206.996 M 49.570 211.253 C 44.719 218.656, 44.828 233.891, 49.775 239.955 C 51.490 242.057, 51.548 242.021, 59.751 233.763 L 68.001 225.457 59.605 217.104 L 51.209 208.752 49.570 211.253 M 87.191 217.308 L 78.999 225.543 87.339 233.840 L 95.680 242.137 97.174 239.819 C 101.239 233.513, 102.153 223.740, 99.427 215.740 C 96.822 208.094, 96.289 208.162, 87.191 217.308 M 177.400 217.400 C 174.498 220.302, 174 221.488, 174 225.500 C 174 229.512, 174.498 230.698, 177.400 233.600 C 180.302 236.502, 181.488 237, 185.500 237 C 189.512 237, 190.698 236.502, 193.600 233.600 C 196.502 230.698, 197 229.512, 197 225.500 C 197 221.488, 196.502 220.302, 193.600 217.400 C 190.698 214.498, 189.512 214, 185.500 214 C 181.488 214, 180.302 214.498, 177.400 217.400 M 65.170 239.329 C 56.017 248.530, 56.002 248.678, 63.962 251.487 C 69.497 253.439, 77.426 253.415, 83.260 251.427 C 90.906 248.822, 90.838 248.289, 81.692 239.191 L 73.457 230.999 65.170 239.329 " stroke="none" fill="black" fill-rule="evenodd"/>
</svg>