<svg xmlns="http://www.w3.org/2000/svg" width="532" height="324" viewBox="0 0 532 324" version="1.1">
	<path d="M 55.571 63.571 C 54.707 64.436, 54 65.317, 54 65.531 C 54 66.993, 71.421 100.653, 72.488 101.252 C 73.225 101.665, 74.440 101.768, 75.187 101.482 C 77.102 100.747, 94.082 66.377, 93.403 64.609 C 92.732 62.858, 90.483 61.877, 88.705 62.560 C 87.993 62.833, 84.520 68.894, 80.986 76.028 C 77.453 83.163, 74.308 89, 73.997 89 C 73.687 89, 70.748 83.534, 67.467 76.853 C 59.925 61.499, 58.847 60.296, 55.571 63.571 M 199.230 159.285 C 180.953 177.591, 166 193.084, 166 193.713 C 166 195.191, 168.808 198, 170.285 198 C 170.913 198, 185.506 183.947, 202.713 166.771 L 234 135.542 265.287 166.771 C 282.494 183.947, 297.064 198, 297.664 198 C 299.588 198, 301.241 195.097, 300.647 192.763 C 299.940 189.983, 236.014 126, 233.944 126 C 233.128 126, 217.506 140.978, 199.230 159.285 M 350.660 135.250 C 336.589 149.460, 329.513 163.913, 326.855 183.874 C 325.882 191.182, 325.874 195.209, 326.819 202.692 C 329.362 222.820, 336.363 237.131, 351.043 252.202 L 360.586 262 425.449 262 L 490.312 262 498.406 253.736 C 511.385 240.485, 518.195 228.656, 522.014 212.726 C 524.709 201.485, 524.683 185.416, 521.953 174 C 518.103 157.905, 507.454 140.427, 495.296 130.248 L 490.222 126 425.021 126 L 359.821 126 350.660 135.250 M 357.360 138.236 C 347.968 146.893, 339.267 161.727, 335.932 174.766 C 331.815 190.864, 333.910 211.899, 341.050 226.144 C 345.517 235.057, 352.022 243.935, 358.065 249.368 L 363.216 254 425.435 254 L 487.653 254 495.141 246.250 C 504.303 236.767, 508.905 229.287, 513.174 216.946 C 516.258 208.029, 516.441 206.716, 516.441 193.500 C 516.441 180.277, 516.259 178.973, 513.161 170 C 509.111 158.268, 503.063 148.428, 494.876 140.250 L 488.619 134 425.287 134 L 361.955 134 357.360 138.236 M 33.244 175.109 C 21.572 177.054, 4.461 188.234, 5.204 193.430 C 5.738 197.166, 9.662 196.567, 14.627 191.990 C 21.254 185.881, 28.827 182.798, 38.591 182.234 C 52.531 181.428, 61.221 184.925, 71.500 195.478 C 83.912 208.221, 100.635 212.402, 119 207.354 C 128.935 204.624, 140 196.778, 140 192.464 C 140 188.434, 136.557 188.410, 131.681 192.406 C 129.304 194.353, 124.692 197.195, 121.430 198.723 C 116.127 201.206, 114.389 201.500, 105 201.500 C 95.344 201.500, 93.977 201.252, 88 198.418 C 83.615 196.339, 79.554 193.310, 75.522 189.110 C 68.411 181.705, 58.680 176.538, 49 175.029 C 41.654 173.883, 40.571 173.889, 33.244 175.109 " stroke="none" fill="black" fill-rule="evenodd"/>
</svg>