<svg xmlns="http://www.w3.org/2000/svg" width="244" height="324" viewBox="0 0 244 324" version="1.1">
	<path d="M 71.821 127.358 C 71.095 128.105, 66.907 135.987, 62.516 144.875 C 56.444 157.166, 54.170 160.894, 53.016 160.448 C 45.301 157.464, 33.442 158.203, 25.705 162.151 C 20.075 165.023, 13.755 171.189, 10.781 176.712 C 2.963 191.227, 5.975 208.499, 18.250 219.535 L 23.075 223.873 14.537 240.925 C 9.842 250.304, 6 258.176, 6 258.417 C 6 258.659, 6.707 259.564, 7.571 260.429 C 8.936 261.793, 13.456 262, 41.916 262 C 73.420 262, 74.760 261.922, 76.500 260 C 78.247 258.070, 78.247 257.930, 76.500 256 C 74.768 254.087, 73.420 254, 45.350 254 L 16.009 254 22.750 240.475 L 29.490 226.951 33.995 227.725 C 46.608 229.894, 57.558 226.602, 66.080 218.080 C 73.159 211.001, 76.193 203.627, 76.193 193.500 C 76.193 183.648, 73.197 176.194, 66.432 169.209 L 61.124 163.729 69.621 146.758 C 77.734 130.554, 78.040 129.702, 76.404 127.894 C 74.366 125.642, 73.580 125.551, 71.821 127.358 M 31.627 167.417 C 26.202 169.422, 21.016 173.865, 17.500 179.519 C 14.741 183.955, 14.500 185.073, 14.500 193.422 C 14.500 201.509, 14.798 203.007, 17.230 207.145 C 18.732 209.699, 21.408 213.007, 23.176 214.495 L 26.392 217.201 38.754 192.492 C 45.553 178.902, 50.835 167.502, 50.491 167.158 C 49.157 165.824, 35.427 166.013, 31.627 167.417 M 45.288 195.411 C 31.853 222.307, 32.051 221, 41.404 221 C 49.400 221, 55.762 218.378, 61.125 212.872 C 71.207 202.521, 71.749 186.076, 62.368 175.117 C 60.430 172.852, 58.537 171, 58.163 171 C 57.788 171, 51.994 181.985, 45.288 195.411 M 223.205 191.127 C 196.552 195.040, 174.508 215.603, 167.868 242.747 C 167.228 245.361, 166.589 247.645, 166.447 247.822 C 166.305 247.999, 164.382 247.004, 162.173 245.609 C 144.487 234.445, 119.241 236.940, 104.250 251.335 C 99.486 255.910, 99.367 256.224, 101.571 258.429 C 103.766 260.623, 104.488 260.447, 108.747 256.681 C 117.900 248.588, 126.568 245.591, 139.096 246.190 C 147.012 246.569, 148.809 247.041, 155.721 250.557 C 160.763 253.122, 164.175 255.600, 165.485 257.649 C 167.916 261.448, 177.841 268.369, 183.880 270.475 C 196.521 274.885, 209.262 274.350, 220.943 268.920 C 233.310 263.170, 238.761 256.748, 233.873 253.685 C 232.605 252.890, 231.264 253.469, 227.803 256.305 C 213.797 267.782, 193.547 269.231, 178.750 259.814 C 174.153 256.889, 174 256.635, 174 251.947 C 174 245.173, 178.254 232.446, 182.867 225.422 C 193.206 209.677, 209.563 199.664, 227.395 198.164 C 236.010 197.439, 238.584 195.748, 236.394 192.250 C 235.090 190.167, 231.705 189.879, 223.205 191.127 " stroke="none" fill="black" fill-rule="evenodd"/>
</svg>