<svg xmlns="http://www.w3.org/2000/svg" width="84" height="324" viewBox="0 0 84 324" version="1.1">
	<path d="M 23.571 63.571 C 22.707 64.436, 22 65.332, 22 65.564 C 22 67.123, 39.710 101.058, 40.727 101.449 C 41.427 101.717, 42.573 101.717, 43.273 101.449 C 45.129 100.736, 62.063 66.328, 61.403 64.609 C 60.732 62.858, 58.483 61.877, 56.705 62.560 C 55.993 62.833, 52.520 68.894, 48.986 76.028 C 45.453 83.163, 42.308 89, 41.997 89 C 41.687 89, 38.748 83.534, 35.467 76.853 C 27.925 61.499, 26.847 60.296, 23.571 63.571 M 35.045 159.064 C 13.497 163.427, 1.173 185.901, 9.037 206.493 C 12.164 214.680, 20.320 222.836, 28.507 225.963 C 41.863 231.064, 56.079 228.081, 66.080 218.080 C 87.084 197.076, 74.303 161.904, 44.500 158.699 C 41.750 158.403, 37.495 158.567, 35.045 159.064 M 31.627 167.408 C 21.770 171.075, 15.005 180.157, 14.256 190.731 C 13.662 199.129, 15.100 204.665, 19.312 210.187 C 24.310 216.739, 30.619 220.169, 38.731 220.744 C 47.129 221.338, 52.665 219.900, 58.187 215.688 C 64.739 210.690, 68.169 204.381, 68.744 196.269 C 69.007 192.546, 68.710 187.606, 68.084 185.292 C 66.549 179.620, 61.451 173.174, 55.677 169.604 C 51.715 167.154, 49.639 166.607, 43.212 166.316 C 38.161 166.088, 34.164 166.465, 31.627 167.408 M 39.571 191.571 C 38.707 192.436, 38 193.529, 38 194 C 38 195.111, 40.889 198, 42 198 C 43.111 198, 46 195.111, 46 194 C 46 192.889, 43.111 190, 42 190 C 41.529 190, 40.436 190.707, 39.571 191.571 " stroke="none" fill="black" fill-rule="evenodd"/>
</svg>