<svg xmlns="http://www.w3.org/2000/svg" width="228" height="324" viewBox="0 0 228 324" version="1.1">
	<path d="M 55.213 143.315 C 45.746 152.838, 38 161.131, 38 161.743 C 38 163.175, 40.813 166, 42.239 166 C 42.841 166, 49.334 160.059, 56.667 152.798 L 70 139.595 70 196.298 L 70 253 67.750 252.985 C 62.823 252.953, 52.332 249.759, 45.603 246.243 C 27.924 237.005, 14.079 215.563, 14.015 197.321 C 14.001 193.426, 12.122 190, 10 190 C 9.529 190, 8.411 190.732, 7.515 191.627 C 4.445 194.697, 7.714 211.664, 13.751 224 C 18.924 234.569, 32.460 248.096, 43 253.232 C 53.524 258.360, 71.337 262.282, 77.823 260.900 C 79.845 260.469, 84.875 259.396, 89 258.516 C 101.504 255.848, 110.171 250.907, 120.535 240.539 C 127.559 233.512, 130.376 229.831, 133.193 224 C 139.276 211.409, 142.528 194.671, 139.485 191.627 C 138.589 190.732, 137.471 190, 137 190 C 134.878 190, 132.999 193.426, 132.985 197.321 C 132.921 215.563, 119.076 237.005, 101.397 246.243 C 94.962 249.606, 84.233 252.947, 79.750 252.985 C 78.104 252.999, 78 249.639, 78 196.298 L 78 139.595 91.333 152.798 C 98.666 160.059, 105.159 166, 105.761 166 C 107.187 166, 110 163.175, 110 161.743 C 110 159.994, 75.761 126, 74 126 C 73.134 126, 64.680 133.792, 55.213 143.315 M 183.571 159.571 C 181.243 161.900, 181.243 194.100, 183.571 196.429 C 184.436 197.293, 185.529 198, 186 198 C 186.471 198, 187.564 197.293, 188.429 196.429 C 189.733 195.124, 190 191.991, 190 178 C 190 164.009, 189.733 160.876, 188.429 159.571 C 187.564 158.707, 186.471 158, 186 158 C 185.529 158, 184.436 158.707, 183.571 159.571 M 179.500 207.458 C 171.339 210.437, 164.932 220.773, 166.559 228.334 C 168.762 238.566, 179.296 246.364, 188.334 244.452 C 199.355 242.121, 206.921 230.881, 204.052 221.102 C 200.828 210.116, 189.486 203.812, 179.500 207.458 M 177.400 217.400 C 174.498 220.302, 174 221.488, 174 225.500 C 174 229.512, 174.498 230.698, 177.400 233.600 C 180.302 236.502, 181.488 237, 185.500 237 C 189.512 237, 190.698 236.502, 193.600 233.600 C 196.502 230.698, 197 229.512, 197 225.500 C 197 221.488, 196.502 220.302, 193.600 217.400 C 190.698 214.498, 189.512 214, 185.500 214 C 181.488 214, 180.302 214.498, 177.400 217.400 " stroke="none" fill="black" fill-rule="evenodd"/>
</svg>