<svg xmlns="http://www.w3.org/2000/svg" width="324" height="324" viewBox="0 0 324 324" version="1.1">
	<path d="M 167.571 127.571 C 166.707 128.436, 166 129.529, 166 130 C 166 130.471, 166.707 131.564, 167.571 132.429 C 168.436 133.293, 169.529 134, 170 134 C 170.471 134, 171.564 133.293, 172.429 132.429 C 173.293 131.564, 174 130.471, 174 130 C 174 129.529, 173.293 128.436, 172.429 127.571 C 171.564 126.707, 170.471 126, 170 126 C 169.529 126, 168.436 126.707, 167.571 127.571 M 199.571 127.571 C 198.707 128.436, 198 129.640, 198 130.249 C 198 130.857, 204.844 138.250, 213.208 146.677 L 228.416 162 213.208 177.323 C 204.844 185.750, 198 193.143, 198 193.751 C 198 195.200, 200.827 198, 202.290 198 C 203.969 198, 238 163.693, 238 162 C 238 160.307, 203.969 126, 202.290 126 C 201.659 126, 200.436 126.707, 199.571 127.571 M 247.571 127.571 C 246.175 128.968, 246 136.372, 246 194 C 246 251.628, 246.175 259.032, 247.571 260.429 C 248.936 261.793, 253.463 262, 282 262 C 310.537 262, 315.064 261.793, 316.429 260.429 C 317.293 259.564, 318 258.471, 318 258 C 318 257.529, 317.293 256.436, 316.429 255.571 C 315.069 254.212, 310.758 254, 284.429 254 L 254 254 254 191.571 C 254 136.152, 253.824 128.966, 252.429 127.571 C 251.564 126.707, 250.471 126, 250 126 C 249.529 126, 248.436 126.707, 247.571 127.571 M 167.571 159.571 C 166.207 160.936, 166 165.463, 166 194 C 166 222.537, 166.207 227.064, 167.571 228.429 C 169.545 230.402, 170.455 230.402, 172.429 228.429 C 173.793 227.064, 174 222.537, 174 194 C 174 165.463, 173.793 160.936, 172.429 159.571 C 171.564 158.707, 170.471 158, 170 158 C 169.529 158, 168.436 158.707, 167.571 159.571 M 7.571 191.571 C 6.707 192.436, 6 193.529, 6 194 C 6 194.471, 6.707 195.564, 7.571 196.429 C 8.844 197.701, 11.697 198, 22.575 198 L 36.006 198 21.020 227.961 C 12.777 244.439, 6.285 258.580, 6.594 259.384 C 7.265 261.133, 9.512 262.125, 11.274 261.448 C 11.975 261.180, 19.056 247.919, 27.010 231.980 C 34.964 216.041, 41.710 203, 42 203 C 42.290 203, 49.036 216.041, 56.990 231.980 C 64.944 247.919, 72.025 261.180, 72.726 261.448 C 73.427 261.717, 74.573 261.717, 75.274 261.448 C 75.975 261.180, 83.056 247.919, 91.010 231.980 C 98.964 216.041, 105.710 203, 106 203 C 106.290 203, 113.036 216.041, 120.990 231.980 C 128.944 247.919, 136.025 261.180, 136.726 261.448 C 138.488 262.125, 140.735 261.133, 141.406 259.384 C 141.715 258.580, 135.223 244.439, 126.980 227.961 L 111.994 198 125.425 198 C 136.303 198, 139.156 197.701, 140.429 196.429 C 141.293 195.564, 142 194.471, 142 194 C 142 193.529, 141.293 192.436, 140.429 191.571 C 139.032 190.175, 131.628 190, 74 190 C 16.372 190, 8.968 190.175, 7.571 191.571 M 60.743 223.500 C 67.750 237.525, 73.715 249, 74 249 C 74.285 249, 80.250 237.525, 87.257 223.500 L 99.995 198 74 198 L 48.005 198 60.743 223.500 M 167.571 255.571 C 166.707 256.436, 166 257.529, 166 258 C 166 259.111, 168.889 262, 170 262 C 171.111 262, 174 259.111, 174 258 C 174 256.889, 171.111 254, 170 254 C 169.529 254, 168.436 254.707, 167.571 255.571 " stroke="none" fill="black" fill-rule="evenodd"/>
</svg>