<svg xmlns="http://www.w3.org/2000/svg" width="340" height="324" viewBox="0 0 340 324" version="1.1">
	<path d="M 55.750 63.080 C 54.186 63.991, 54 66.007, 54 82.015 C 54 98.703, 54.132 100, 55.934 100.965 C 57.043 101.558, 64.905 102, 74.363 102 C 88.024 102, 91.127 101.730, 92.429 100.429 C 94.757 98.100, 94.757 65.900, 92.429 63.571 C 91.123 62.266, 88.036 62.005, 74.179 62.030 C 64.720 62.048, 56.742 62.502, 55.750 63.080 M 62 82 L 62 94 74 94 L 86 94 86 82 L 86 70 74 70 L 62 70 62 82 M 71.663 126.750 C 66.982 134.462, 6.204 258.367, 6.598 259.394 C 7.264 261.130, 9.514 262.124, 11.262 261.453 C 11.956 261.187, 25.431 235.213, 41.206 203.734 L 69.888 146.500 69.944 200.250 L 70 254 55.571 254 C 43.788 254, 40.855 254.288, 39.571 255.571 C 37.598 257.545, 37.598 258.455, 39.571 260.429 C 40.936 261.793, 45.463 262, 74 262 C 102.537 262, 107.064 261.793, 108.429 260.429 C 110.402 258.455, 110.402 257.545, 108.429 255.571 C 107.145 254.288, 104.212 254, 92.429 254 L 78 254 78 191.571 C 78 136.152, 77.824 128.966, 76.429 127.571 C 74.763 125.905, 72.420 125.502, 71.663 126.750 M 147.454 130.250 C 138.931 140.034, 134.735 155.113, 136.895 168.194 C 138.212 176.170, 142.297 185.582, 147.022 191.528 L 150.117 195.423 149.928 227.419 C 149.746 258.329, 149.806 259.460, 151.723 260.732 C 154.172 262.358, 156.708 261.495, 157.583 258.737 C 157.946 257.594, 159.738 254.322, 161.565 251.466 C 171.897 235.314, 171.850 214.612, 161.443 198.344 L 158 192.961 158 161.415 C 158 141.582, 157.616 129.150, 156.965 127.934 C 155.219 124.672, 151.531 125.569, 147.454 130.250 M 147.852 142.750 C 142.475 156.216, 142.808 171.912, 148.653 180.473 C 149.802 182.155, 150 179.324, 150 161.223 C 150 149.550, 149.764 140, 149.475 140 C 149.187 140, 148.456 141.238, 147.852 142.750 M 199.200 191.200 C 198.540 191.860, 198 192.988, 198 193.706 C 198 195.501, 230.667 260.676, 231.970 261.482 C 234.864 263.270, 237.167 259.696, 251.125 231.762 L 265.744 202.502 280.334 231.669 C 288.359 247.710, 295.395 261.126, 295.971 261.482 C 298.896 263.290, 301.237 259.553, 317.251 227.508 C 326.463 209.074, 334 193.801, 334 193.568 C 334 193.334, 333.293 192.436, 332.429 191.571 C 331.032 190.175, 323.594 190, 265.629 190 C 216.229 190, 200.109 190.291, 199.200 191.200 M 220.608 223.250 C 227.546 237.137, 233.371 248.661, 233.553 248.859 C 233.878 249.211, 259 199.502, 259 198.508 C 259 198.228, 247.523 198, 233.496 198 L 207.992 198 220.608 223.250 M 284.608 223.250 C 291.546 237.137, 297.371 248.661, 297.553 248.859 C 297.878 249.211, 323 199.502, 323 198.508 C 323 198.228, 311.523 198, 297.496 198 L 271.992 198 284.608 223.250 M 158.163 225 C 158.163 241.935, 158.216 242.387, 159.792 239 C 160.970 236.466, 161.420 232.602, 161.420 225 C 161.420 217.398, 160.970 213.534, 159.792 211 C 158.216 207.613, 158.163 208.065, 158.163 225 " stroke="none" fill="black" fill-rule="evenodd"/>
</svg>