<svg xmlns="http://www.w3.org/2000/svg" width="308" height="324" viewBox="0 0 308 324" version="1.1">
	<path d="M 215.200 63.200 C 213.512 64.888, 213.512 99.112, 215.200 100.800 C 216.886 102.486, 250.114 102.486, 251.800 100.800 C 253.488 99.112, 253.488 64.888, 251.800 63.200 C 250.114 61.514, 216.886 61.514, 215.200 63.200 M 221 82 L 221 94 233.500 94 L 246 94 246 82 L 246 70 233.500 70 L 221 70 221 82 M 223.531 127.056 C 195.437 131.418, 173.313 152.439, 167.589 180.208 C 165.337 191.134, 165.478 195.650, 168.117 197.062 C 171.365 198.801, 172.656 196.613, 173.871 187.308 C 175.940 171.469, 181.277 160.826, 192.500 150.155 C 200.202 142.833, 208.878 138.015, 219.060 135.406 C 227.865 133.150, 244.045 133.924, 252.858 137.022 C 261.597 140.094, 273.093 148.027, 278.660 154.828 C 286.771 164.737, 292.929 180.812, 292.983 192.215 C 293.003 196.661, 295.614 198.734, 298.518 196.611 C 302.684 193.564, 297.820 171.143, 290.253 158.510 C 277.097 136.548, 248.679 123.151, 223.531 127.056 M 7.571 191.571 C 6.707 192.436, 6 193.529, 6 194 C 6 194.471, 6.707 195.564, 7.571 196.429 C 8.934 197.791, 13.354 198, 40.801 198 L 72.460 198 104.515 230 C 122.146 247.600, 137.063 262, 137.663 262 C 139.255 262, 141.219 259.324, 140.833 257.681 C 140.650 256.902, 125.854 241.356, 107.953 223.133 L 75.405 190 42.274 190 C 13.488 190, 8.937 190.206, 7.571 191.571 " stroke="none" fill="black" fill-rule="evenodd"/>
</svg>