<svg xmlns="http://www.w3.org/2000/svg" width="308" height="324" viewBox="0 0 308 324" version="1.1">
	<path d="M 215.200 63.200 C 213.512 64.888, 213.512 99.112, 215.200 100.800 C 216.886 102.486, 250.114 102.486, 251.800 100.800 C 253.488 99.112, 253.488 64.888, 251.800 63.200 C 250.114 61.514, 216.886 61.514, 215.200 63.200 M 221 82 L 221 94 233.500 94 L 246 94 246 82 L 246 70 233.500 70 L 221 70 221 82 M 223.531 127.113 C 195.719 131.164, 173.316 152.427, 167.589 180.208 C 165.337 191.134, 165.478 195.650, 168.117 197.062 C 171.365 198.801, 172.656 196.613, 173.871 187.308 C 175.940 171.469, 181.277 160.826, 192.500 150.155 C 200.202 142.833, 208.878 138.015, 219.060 135.406 C 226.400 133.526, 244.104 133.879, 249.858 136.021 L 253.216 137.271 225.608 164.892 C 210.424 180.084, 198 193.208, 198 194.057 C 198 197.782, 199.686 198, 228.444 198 L 256.487 198 227.244 227.256 C 211.160 243.347, 198 257.281, 198 258.221 C 198 259.161, 198.961 260.444, 200.136 261.073 C 202.103 262.126, 204.918 259.572, 235.636 228.864 C 253.986 210.520, 269 194.776, 269 193.878 C 269 190.340, 266.758 190.036, 238.659 189.766 L 210.983 189.500 235.785 164.715 L 260.586 139.929 267.647 144.888 C 276.045 150.786, 282.045 157.937, 286.643 167.529 C 290.138 174.820, 292.953 185.780, 292.983 192.215 C 293.003 196.661, 295.614 198.734, 298.518 196.611 C 302.629 193.604, 297.803 171.022, 290.469 158.948 C 285.643 151.005, 279.759 144.643, 272.345 139.352 C 266.417 135.122, 266.030 134.624, 267.454 133.051 C 269.307 131.004, 269.435 128.835, 267.800 127.200 C 266.116 125.516, 265.565 125.654, 261.996 128.657 L 258.838 131.314 253.669 129.703 C 247.554 127.796, 236.726 125.968, 232.500 126.129 C 230.850 126.192, 226.814 126.635, 223.531 127.113 M 7.571 191.571 C 6.707 192.436, 6 193.529, 6 194 C 6 194.471, 6.707 195.564, 7.571 196.429 C 8.934 197.791, 13.354 198, 40.801 198 L 72.460 198 104.515 230 C 122.146 247.600, 137.063 262, 137.663 262 C 139.269 262, 141.216 259.320, 140.833 257.637 C 140.650 256.835, 125.806 241.288, 107.848 223.089 L 75.195 190 42.169 190 C 13.479 190, 8.937 190.206, 7.571 191.571 " stroke="none" fill="black" fill-rule="evenodd"/>
</svg>