<svg xmlns="http://www.w3.org/2000/svg" width="403" height="324" viewBox="0 0 403 324" version="1.1">
	<path d="M 55.750 63.080 C 54.186 63.991, 54 66.007, 54 82.015 C 54 98.703, 54.132 100, 55.934 100.965 C 57.043 101.558, 64.905 102, 74.363 102 C 88.024 102, 91.127 101.730, 92.429 100.429 C 94.757 98.100, 94.757 65.900, 92.429 63.571 C 91.123 62.266, 88.036 62.005, 74.179 62.030 C 64.720 62.048, 56.742 62.502, 55.750 63.080 M 62 82 L 62 94 74 94 L 86 94 86 82 L 86 70 74 70 L 62 70 62 82 M 263.750 79.080 C 262.788 79.641, 262 80.869, 262 81.810 C 262 83.595, 295.770 118, 297.521 118 C 299.164 118, 333 83.610, 333 81.940 C 333 80.208, 331.106 78, 329.621 78 C 329.082 78, 321.623 84.969, 313.045 93.486 L 297.449 108.973 281.987 93.486 C 273.482 84.969, 266.294 78.014, 266.012 78.030 C 265.730 78.047, 264.712 78.519, 263.750 79.080 M 71.663 126.750 C 66.982 134.462, 6.204 258.367, 6.598 259.394 C 7.264 261.130, 9.514 262.124, 11.262 261.453 C 11.956 261.187, 25.431 235.213, 41.206 203.734 L 69.888 146.500 69.944 200.250 L 70 254 55.571 254 C 43.788 254, 40.855 254.288, 39.571 255.571 C 37.595 257.548, 37.598 258.455, 39.585 260.442 C 40.978 261.835, 45.159 261.995, 74.226 261.763 C 104.452 261.523, 107.377 261.350, 108.386 259.750 C 109.190 258.475, 109.191 257.525, 108.387 256.250 C 107.433 254.736, 105.314 254.463, 92.643 254.223 L 78 253.947 78 191.545 C 78 136.149, 77.824 128.966, 76.429 127.571 C 74.763 125.905, 72.420 125.502, 71.663 126.750 M 147.550 130.076 C 139.027 139.511, 134.610 155.234, 136.828 168.250 C 138.227 176.458, 142.209 185.615, 146.923 191.461 L 150.117 195.423 149.928 227.419 C 149.740 259.274, 149.749 259.421, 151.916 260.861 C 153.504 261.915, 154.393 262.007, 155.197 261.203 C 156.914 259.486, 160.605 253.214, 164.732 245 C 168.488 237.523, 168.500 237.462, 168.500 225 C 168.500 213.406, 168.297 212.065, 165.701 206.500 C 164.161 203.200, 161.686 198.739, 160.201 196.588 L 157.500 192.675 157 159.588 L 156.500 126.500 153.912 126.199 C 151.941 125.970, 150.426 126.893, 147.550 130.076 M 224.909 132.725 C 212.899 144.054, 206.113 154.994, 201.356 170.693 C 199.056 178.283, 198.677 181.365, 198.617 193 C 198.560 204.124, 198.941 207.871, 200.781 214.289 C 205.578 231.015, 212.429 242.328, 225.284 254.750 L 232.787 262 297.387 262 L 361.987 262 367.800 256.250 C 381.036 243.159, 388.797 230.658, 393.234 215.285 C 395.085 208.870, 395.481 205.037, 395.481 193.500 C 395.481 181.963, 395.085 178.130, 393.234 171.715 C 388.767 156.237, 380.177 142.397, 368.145 131.289 L 362.500 126.078 297.269 126.039 L 232.037 126 224.909 132.725 M 229.558 138.053 C 205.444 160.281, 198.736 197.645, 213.545 227.249 C 217.906 235.967, 223.591 243.548, 230.272 249.554 L 235.216 254 297.182 254 L 359.148 254 365.194 248.250 C 380.755 233.451, 388.347 215.497, 388.347 193.500 C 388.347 171.917, 381.778 155.801, 366.641 140.250 L 360.558 134 297.257 134 L 233.955 134 229.558 138.053 M 147.026 144.500 C 144.828 148.943, 144.553 150.780, 144.553 161 C 144.553 171.220, 144.828 173.057, 147.026 177.500 L 149.500 182.500 149.784 171.750 C 149.940 165.838, 149.940 156.162, 149.784 150.250 L 149.500 139.500 147.026 144.500 M 157 225 C 157 236.072, 157.362 243.022, 157.909 242.450 C 159.648 240.633, 162 230.602, 162 225 C 162 219.398, 159.648 209.367, 157.909 207.550 C 157.362 206.978, 157 213.928, 157 225 " stroke="none" fill="black" fill-rule="evenodd"/>
</svg>