<svg xmlns="http://www.w3.org/2000/svg" width="468" height="324" viewBox="0 0 468 324" version="1.1">
	<path d="M 35.045 127.092 C 24.744 129.112, 14.837 136.518, 10.151 145.705 C 7.418 151.062, 5.668 161.129, 6.945 164.147 C 7.492 165.441, 8.820 170.325, 9.895 175 C 15.658 200.055, 28.427 222.633, 46.717 240.107 C 56.009 248.984, 71.181 260, 74.117 260 C 77.343 260, 97.892 244.006, 106.315 234.940 C 123.254 216.706, 134.286 194.893, 139.417 169.483 C 140.690 163.183, 140.816 160.292, 140.004 155.983 C 135.594 132.555, 112.327 120.242, 90.616 129.845 C 85.222 132.232, 79.372 137.363, 76.005 142.662 L 73.360 146.824 71.503 143.377 C 69.181 139.064, 62.418 132.764, 57.318 130.162 C 55.183 129.073, 50.781 127.691, 47.535 127.091 C 40.969 125.877, 41.243 125.877, 35.045 127.092 M 199.571 127.571 C 198.178 128.965, 198 135.897, 198 188.774 L 198 248.405 184.667 235.202 C 177.334 227.941, 170.841 222, 170.239 222 C 168.813 222, 166 224.825, 166 226.257 C 166 228.006, 200.239 262, 202 262 C 203.761 262, 238 228.006, 238 226.257 C 238 224.825, 235.187 222, 233.761 222 C 233.159 222, 226.666 227.941, 219.333 235.202 L 206 248.405 206 188.774 C 206 135.897, 205.822 128.965, 204.429 127.571 C 203.564 126.707, 202.471 126, 202 126 C 201.529 126, 200.436 126.707, 199.571 127.571 M 263.571 127.571 C 262.175 128.968, 262 136.372, 262 194 C 262 251.628, 262.175 259.032, 263.571 260.429 C 264.436 261.293, 265.529 262, 266 262 C 266.471 262, 267.564 261.293, 268.429 260.429 C 269.825 259.032, 270 251.628, 270 194 C 270 136.372, 269.825 128.968, 268.429 127.571 C 267.564 126.707, 266.471 126, 266 126 C 265.529 126, 264.436 126.707, 263.571 127.571 M 384.500 126.944 C 376.325 128.268, 370.930 129.991, 363 133.814 C 352.444 138.903, 338.927 152.404, 333.778 163 C 327.648 175.615, 324.334 193.191, 327.491 196.348 C 329.547 198.404, 330.439 198.418, 332.429 196.429 C 333.404 195.453, 334.006 193.082, 334.015 190.179 C 334.091 165.943, 354.634 141.231, 379.495 135.465 C 383.218 134.601, 387.892 134.031, 389.882 134.198 C 393.310 134.484, 393.710 134.914, 397.500 142.377 C 401.421 150.100, 401.500 150.464, 401.500 160.877 C 401.500 170.725, 401.272 171.974, 398.371 178 C 396.651 181.575, 392.697 187.650, 389.585 191.500 C 382.518 200.242, 379.416 206.489, 377.443 215.949 C 374.404 230.527, 378.630 245.944, 388.732 257.125 C 392.618 261.426, 396.462 262.272, 397.484 259.049 C 397.924 257.665, 396.848 255.557, 393.777 251.787 C 387.494 244.073, 384.756 237.092, 384.217 227.409 C 383.491 214.387, 386.146 207.796, 398.746 191.348 C 404.803 183.442, 407.607 176.753, 409.094 166.661 C 410.546 156.816, 408.159 145.720, 402.255 134.861 C 401.383 133.258, 412.322 136.570, 420 140.234 C 438.953 149.277, 453 170.665, 453 190.478 C 453 193.126, 453.621 195.478, 454.571 196.429 C 456.561 198.418, 457.453 198.404, 459.509 196.348 C 462.666 193.191, 459.352 175.615, 453.222 163 C 448.126 152.513, 434.620 139.025, 424 133.819 C 411.592 127.735, 396.182 125.053, 384.500 126.944 M 31.054 135.728 C 24.820 137.929, 17.726 145.300, 15.557 151.828 C 14.045 156.381, 13.979 157.954, 15.032 164.270 C 20.746 198.525, 39.651 228.764, 67.165 247.660 L 73.830 252.237 81.654 246.869 C 91.636 240.019, 104.997 226.670, 111.815 216.732 C 122.428 201.263, 131.249 178.930, 132.635 164.020 C 134.570 143.192, 115.675 128.780, 95.463 135.667 C 86.088 138.862, 78 149.949, 78 159.607 C 78 162.970, 75.867 166, 73.500 166 C 71.133 166, 69 162.970, 69 159.607 C 69 149.949, 60.912 138.862, 51.537 135.667 C 45.516 133.616, 36.964 133.641, 31.054 135.728 M 295.571 191.571 C 294.707 192.436, 294 193.529, 294 194 C 294 195.111, 296.889 198, 298 198 C 299.111 198, 302 195.111, 302 194 C 302 192.889, 299.111 190, 298 190 C 297.529 190, 296.436 190.707, 295.571 191.571 " stroke="none" fill="black" fill-rule="evenodd"/>
</svg>