<svg xmlns="http://www.w3.org/2000/svg" width="340" height="324" viewBox="0 0 340 324" version="1.1">
	<path d="M 7.571 127.571 C 6.175 128.968, 6 136.372, 6 194 C 6 251.628, 6.175 259.032, 7.571 260.429 C 8.436 261.293, 9.529 262, 10 262 C 10.471 262, 11.564 261.293, 12.429 260.429 C 13.825 259.032, 14 251.628, 14 194 C 14 136.372, 13.825 128.968, 12.429 127.571 C 11.564 126.707, 10.471 126, 10 126 C 9.529 126, 8.436 126.707, 7.571 127.571 M 135.571 127.571 C 134.175 128.968, 134 136.372, 134 194 C 134 251.628, 134.175 259.032, 135.571 260.429 C 136.436 261.293, 137.529 262, 138 262 C 138.471 262, 139.564 261.293, 140.429 260.429 C 141.825 259.032, 142 251.628, 142 194 C 142 136.372, 141.825 128.968, 140.429 127.571 C 139.564 126.707, 138.471 126, 138 126 C 137.529 126, 136.436 126.707, 135.571 127.571 M 263.200 127.200 C 261.465 128.935, 261.465 259.065, 263.200 260.800 C 264.595 262.195, 329.604 262.538, 331.772 261.162 C 332.780 260.522, 333.044 246.603, 333.044 194 C 333.044 141.397, 332.780 127.478, 331.772 126.838 C 329.604 125.462, 264.595 125.805, 263.200 127.200 M 270 194 L 270 254 298 254 L 326 254 326 194 L 326 134 298 134 L 270 134 270 194 M 194.355 159.039 C 183.925 161.104, 174.129 169.113, 169.329 179.500 C 167.026 184.484, 166.558 186.854, 166.565 193.500 C 166.577 203.515, 169.873 211.488, 176.824 218.311 C 186.874 228.176, 201.299 231.123, 214.500 226.006 C 222.559 222.883, 230.950 214.423, 233.955 206.392 C 241.533 186.136, 229.999 164.268, 209.147 159.360 C 202.883 157.886, 200.450 157.833, 194.355 159.039 M 191.385 167.617 C 185.434 169.728, 179.520 175.237, 176.434 181.546 C 174.033 186.454, 173.794 187.879, 174.200 194.887 C 174.723 203.932, 177.506 209.799, 183.693 214.898 C 195.673 224.773, 215.308 222.193, 223.736 209.636 C 233.558 195.004, 229.098 176.702, 213.854 169.085 C 206.817 165.568, 198.664 165.036, 191.385 167.617 M 199.571 191.571 C 198.707 192.436, 198 193.529, 198 194 C 198 194.471, 198.707 195.564, 199.571 196.429 C 200.436 197.293, 201.529 198, 202 198 C 202.471 198, 203.564 197.293, 204.429 196.429 C 205.293 195.564, 206 194.471, 206 194 C 206 193.529, 205.293 192.436, 204.429 191.571 C 203.564 190.707, 202.471 190, 202 190 C 201.529 190, 200.436 190.707, 199.571 191.571 M 39.571 255.571 C 38.707 256.436, 38 257.529, 38 258 C 38 259.111, 40.889 262, 42 262 C 43.111 262, 46 259.111, 46 258 C 46 256.889, 43.111 254, 42 254 C 41.529 254, 40.436 254.707, 39.571 255.571 M 71.571 255.571 C 70.707 256.436, 70 257.529, 70 258 C 70 259.111, 72.889 262, 74 262 C 75.111 262, 78 259.111, 78 258 C 78 256.889, 75.111 254, 74 254 C 73.529 254, 72.436 254.707, 71.571 255.571 M 103.571 255.571 C 102.707 256.436, 102 257.529, 102 258 C 102 259.111, 104.889 262, 106 262 C 107.111 262, 110 259.111, 110 258 C 110 256.889, 107.111 254, 106 254 C 105.529 254, 104.436 254.707, 103.571 255.571 " stroke="none" fill="black" fill-rule="evenodd"/>
</svg>