<svg xmlns="http://www.w3.org/2000/svg" width="372" height="324" viewBox="0 0 372 324" version="1.1">
	<path d="M 7.571 127.571 C 6.707 128.436, 6 129.657, 6 130.285 C 6 130.913, 20.053 145.506, 37.229 162.713 L 68.458 194 37.229 225.287 C 20.053 242.494, 6 257.087, 6 257.715 C 6 258.343, 6.707 259.564, 7.571 260.429 C 8.936 261.793, 13.463 262, 42 262 C 70.537 262, 75.064 261.793, 76.429 260.429 C 77.825 259.032, 78 251.628, 78 194 C 78 136.372, 77.825 128.968, 76.429 127.571 C 75.064 126.207, 70.537 126, 42 126 C 13.463 126, 8.936 126.207, 7.571 127.571 M 167.571 127.571 C 166.707 128.436, 166 129.335, 166 129.569 C 166 131.164, 231.738 261.069, 232.739 261.453 C 233.432 261.719, 234.568 261.719, 235.261 261.453 C 237.123 260.739, 302.060 130.320, 301.404 128.612 C 300.736 126.870, 298.487 125.876, 296.735 126.548 C 296.039 126.815, 281.755 154.476, 264.992 188.017 C 248.228 221.558, 234.282 249, 234 249 C 233.718 249, 219.990 221.941, 203.493 188.869 C 186.997 155.796, 172.905 128.121, 172.179 127.369 C 170.471 125.600, 169.500 125.643, 167.571 127.571 M 339.544 130.220 C 331.446 139.680, 327.153 154.217, 328.832 166.490 C 330.100 175.755, 333.080 183.312, 338.041 189.835 L 342.098 195.171 341.997 226.335 C 341.941 243.476, 341.919 258.047, 341.948 258.715 C 342.020 260.389, 345.523 262.120, 347.389 261.404 C 348.233 261.080, 349.216 259.894, 349.573 258.769 C 349.930 257.644, 351.902 254.124, 353.955 250.948 C 363.859 235.625, 363.813 214.304, 353.844 198.880 L 350 192.933 350 161.401 C 350 141.577, 349.616 129.150, 348.965 127.934 C 347.218 124.671, 343.527 125.566, 339.544 130.220 M 44.500 159 C 58.242 172.750, 69.601 184, 69.742 184 C 69.884 184, 70 172.750, 70 159 L 70 134 44.758 134 L 19.515 134 44.500 159 M 338.877 145.250 C 336.869 149.699, 336.507 152.103, 336.504 161 C 336.500 170.338, 336.795 172.109, 339.167 177 L 341.833 182.500 341.917 161.250 C 341.962 149.563, 341.830 140, 341.623 140 C 341.416 140, 340.180 142.363, 338.877 145.250 M 136.370 190.765 C 134.401 192.045, 102.007 257.855, 102.594 259.384 C 103.265 261.133, 105.512 262.124, 107.274 261.448 C 107.975 261.180, 115.056 247.919, 123.010 231.980 C 130.964 216.041, 137.710 203, 138 203 C 138.290 203, 145.036 216.041, 152.990 231.980 C 160.944 247.919, 168.025 261.180, 168.726 261.448 C 170.488 262.124, 172.735 261.133, 173.406 259.384 C 173.993 257.855, 141.599 192.045, 139.630 190.765 C 139.009 190.361, 138.275 190.031, 138 190.031 C 137.725 190.031, 136.991 190.361, 136.370 190.765 M 44.500 229 L 19.515 254 44.758 254 L 70 254 70 229 C 70 215.250, 69.884 204, 69.742 204 C 69.601 204, 58.242 215.250, 44.500 229 M 350.163 225 C 350.163 242.010, 350.209 242.402, 351.813 239 C 353.019 236.441, 353.463 232.676, 353.463 225 C 353.463 217.324, 353.019 213.559, 351.813 211 C 350.209 207.598, 350.163 207.990, 350.163 225 " stroke="none" fill="black" fill-rule="evenodd"/>
</svg>