<svg xmlns="http://www.w3.org/2000/svg" width="308" height="324" viewBox="0 0 308 324" version="1.1">
	<path d="M 134.750 127.080 C 133.514 127.800, 133 129.359, 133 132.390 C 133 139.079, 129.370 151.641, 125.340 158.899 C 119.934 168.635, 109.983 177.987, 99.820 182.883 C 91.833 186.730, 89.053 187.417, 70.500 190.129 C 48.683 193.318, 39.248 197.674, 26.461 210.461 C 13.955 222.967, 8.468 234.552, 6.503 252.598 C 5.964 257.549, 6.150 259.007, 7.491 260.348 C 10.992 263.850, 14 260.834, 14 253.823 C 14 235.508, 27.868 213.923, 45.500 204.794 C 53.349 200.731, 62.746 198, 68.880 198 C 71.130 198, 74.890 197.562, 77.236 197.027 C 79.581 196.491, 84.425 195.509, 88 194.843 C 91.643 194.165, 98.425 191.671, 103.431 189.169 C 119.881 180.949, 132.500 165.667, 137.719 147.649 C 140.191 139.114, 140.719 129.119, 138.800 127.200 C 137.367 125.767, 137.022 125.757, 134.750 127.080 M 167.207 191.193 C 166.543 191.857, 166 192.988, 166 193.706 C 166 196.102, 199.023 261.072, 200.536 261.652 C 201.355 261.967, 202.586 261.759, 203.270 261.191 C 203.955 260.622, 211.027 247.065, 218.986 231.063 L 233.457 201.968 248.478 231.734 C 260.637 255.826, 263.881 261.500, 265.500 261.500 C 268.458 261.500, 302.035 194.864, 300.390 192.257 C 299.355 190.615, 295.014 190.483, 233.848 190.243 C 183.786 190.046, 168.131 190.269, 167.207 191.193 M 188.556 223.192 C 195.428 237.048, 201.238 248.572, 201.467 248.801 C 201.852 249.185, 227 199.648, 227 198.508 C 227 198.228, 215.539 198, 201.530 198 L 176.061 198 188.556 223.192 M 240.054 198.750 C 240.083 199.162, 245.824 210.865, 252.810 224.755 L 265.513 250.011 278.256 224.500 C 285.265 210.469, 291 198.767, 291 198.495 C 291 198.223, 279.525 198, 265.500 198 C 251.475 198, 240.024 198.338, 240.054 198.750 " stroke="none" fill="black" fill-rule="evenodd"/>
</svg>