<svg xmlns="http://www.w3.org/2000/svg" width="324" height="324" viewBox="0 0 324 324" version="1.1">
	<path d="M 231.282 79.282 C 221.777 88.787, 214 97.210, 214 98 C 214 99.693, 248.031 134, 249.710 134 C 251.173 134, 254 131.200, 254 129.751 C 254 129.143, 247.156 121.750, 238.792 113.323 L 223.584 98 238.792 82.677 C 247.156 74.250, 254 66.857, 254 66.249 C 254 64.800, 251.173 62, 249.710 62 C 249.079 62, 240.787 69.777, 231.282 79.282 M 279.571 63.571 C 278.267 64.876, 278 68.009, 278 82 C 278 95.991, 278.267 99.124, 279.571 100.429 C 281.900 102.757, 314.100 102.757, 316.429 100.429 C 318.757 98.100, 318.757 65.900, 316.429 63.571 C 314.100 61.243, 281.900 61.243, 279.571 63.571 M 286 82 L 286 94 298 94 L 310 94 310 82 L 310 70 298 70 L 286 70 286 82 M 133.242 96.694 C 128.286 103.741, 126.513 110.099, 127.602 116.915 C 128.400 121.901, 133.699 131.049, 136.637 132.509 C 138.637 133.503, 138.422 133.793, 133.271 137.036 C 125.056 142.208, 113.993 154.471, 109.705 163.158 C 104.497 173.708, 102.624 181.734, 102.624 193.500 C 102.624 212.784, 108.398 226.476, 122.461 240.539 C 136.548 254.625, 150.275 260.408, 169.500 260.354 C 188.923 260.300, 202.495 254.582, 216.539 240.539 C 230.606 226.472, 236.333 212.862, 236.333 193.500 C 236.333 181.692, 234.469 173.665, 229.249 163 C 224.073 152.425, 210.553 138.918, 199.940 133.718 C 193.173 130.403, 189.369 129.248, 175.596 126.328 C 169.710 125.080, 167.500 121.466, 167.500 113.091 C 167.500 107.293, 167.904 105.746, 170.337 102.235 C 173.874 97.131, 173.588 94.500, 169.496 94.500 C 166.972 94.500, 166.045 95.295, 163.390 99.739 C 158.634 107.698, 158.010 116.038, 161.634 123.200 C 162.385 124.686, 163 126.090, 163 126.322 C 163 126.553, 160.695 127.048, 157.877 127.422 C 155.060 127.796, 150.447 128.978, 147.627 130.050 C 141.347 132.437, 141.071 132.445, 141.654 130.214 C 141.924 129.183, 140.838 126.812, 139.086 124.609 C 133.895 118.076, 133.660 108.985, 138.502 101.998 C 141.720 97.354, 141.491 94.617, 137.849 94.194 C 135.899 93.967, 134.704 94.616, 133.242 96.694 M 197.242 96.694 C 192.843 102.948, 191.633 106.466, 191.633 113 C 191.633 119.764, 192.969 123.472, 197.669 129.750 C 200.553 133.603, 204.494 134.169, 205.538 130.880 C 205.993 129.448, 205.519 127.906, 204.078 126.130 C 198.071 118.724, 197.420 109.330, 202.415 102.123 C 205.714 97.362, 205.519 94.620, 201.849 94.194 C 199.899 93.967, 198.704 94.616, 197.242 96.694 M 295.571 127.571 C 294.175 128.968, 294 136.372, 294 194 C 294 251.628, 294.175 259.032, 295.571 260.429 C 296.436 261.293, 297.529 262, 298 262 C 298.471 262, 299.564 261.293, 300.429 260.429 C 301.825 259.032, 302 251.628, 302 194 C 302 136.372, 301.825 128.968, 300.429 127.571 C 299.564 126.707, 298.471 126, 298 126 C 297.529 126, 296.436 126.707, 295.571 127.571 M 154.645 135.584 C 134.671 140.419, 116.279 158.986, 111.537 179.103 C 106.672 199.742, 112.569 220.600, 127.484 235.516 C 151.022 259.054, 188.029 259.068, 211.548 235.548 C 223.237 223.860, 229.017 209.822, 228.985 193.201 C 228.954 176.896, 223.209 163.178, 211.516 151.484 C 203.522 143.491, 193.784 137.868, 183.897 135.537 C 175.998 133.676, 162.439 133.697, 154.645 135.584 M 7.571 159.571 C 6.207 160.936, 6 165.463, 6 194 C 6 222.537, 6.207 227.064, 7.571 228.429 C 8.936 229.793, 13.463 230, 42 230 C 70.537 230, 75.064 229.793, 76.429 228.429 C 77.793 227.064, 78 222.537, 78 194 C 78 165.463, 77.793 160.936, 76.429 159.571 C 75.064 158.207, 70.537 158, 42 158 C 13.463 158, 8.936 158.207, 7.571 159.571 M 167.571 159.571 C 166.212 160.931, 166 165.242, 166 191.571 L 166 222 151.571 222 C 139.788 222, 136.855 222.288, 135.571 223.571 C 133.598 225.545, 133.598 226.455, 135.571 228.429 C 136.936 229.793, 141.463 230, 170 230 C 198.537 230, 203.064 229.793, 204.429 228.429 C 206.402 226.455, 206.402 225.545, 204.429 223.571 C 203.145 222.288, 200.212 222, 188.429 222 L 174 222 174 191.571 C 174 165.242, 173.788 160.931, 172.429 159.571 C 171.564 158.707, 170.471 158, 170 158 C 169.529 158, 168.436 158.707, 167.571 159.571 M 14 194 L 14 222 42 222 L 70 222 70 194 L 70 166 42 166 L 14 166 14 194 " stroke="none" fill="black" fill-rule="evenodd"/>
</svg>