<svg xmlns="http://www.w3.org/2000/svg" width="403" height="324" viewBox="0 0 403 324" version="1.1">
	<path d="M 63.870 127.071 C 56.345 128.176, 46.724 131.478, 40 135.262 C 32.923 139.244, 19.244 152.923, 15.262 160 C 5.631 177.114, 3.875 197.336, 10.391 216.076 C 16.616 233.973, 32.974 250.366, 50.793 256.563 C 76.087 265.359, 101.495 259.519, 120.584 240.521 C 133.867 227.301, 140 212.448, 140 193.500 C 140 174.879, 133.913 159.885, 121.121 146.995 C 109.603 135.389, 97.653 129.243, 82.284 127.020 C 74.551 125.902, 71.772 125.910, 63.870 127.071 M 327.724 127.134 C 326.157 128.012, 326 130.619, 326 155.858 L 326 183.617 318.250 179.806 C 300.944 171.297, 282.017 173.197, 266.367 185.013 C 260.776 189.234, 259.108 192.220, 261.040 194.548 C 262.922 196.816, 264.513 196.317, 269.689 191.835 C 277.017 185.491, 283.924 182.773, 294.098 182.229 C 304.687 181.664, 311.136 183.349, 319.797 188.947 L 326 192.956 326 221.130 L 326 249.304 320.024 243.604 C 314.847 238.666, 313.777 238.049, 312.024 238.987 C 308.645 240.796, 309.679 243.130, 317.225 250.726 L 324.450 258 317.225 265.274 C 309.679 272.870, 308.645 275.204, 312.024 277.013 C 313.777 277.951, 314.847 277.334, 320.024 272.396 L 326 266.696 326 279.313 C 326 290.375, 326.219 292.047, 327.776 292.880 C 328.902 293.483, 330.182 293.478, 331.276 292.866 C 332.766 292.032, 333 290.189, 333 279.298 L 333 266.696 338.976 272.396 C 344.153 277.334, 345.223 277.951, 346.976 277.013 C 350.355 275.204, 349.321 272.870, 341.775 265.274 L 334.550 258 341.775 250.726 C 349.321 243.130, 350.355 240.796, 346.976 238.987 C 345.223 238.049, 344.153 238.666, 338.976 243.604 L 333 249.304 333 225.335 L 333 201.365 339.750 204.665 C 356.328 212.770, 375.216 210.628, 390.778 198.878 C 396.367 194.658, 397.305 191.835, 393.838 189.663 C 392.521 188.838, 391.055 189.486, 386.787 192.779 C 377.301 200.097, 373.072 201.500, 360.500 201.500 C 350.652 201.500, 348.900 201.219, 343.768 198.814 C 340.616 197.336, 336.903 194.994, 335.518 193.609 L 333 191.091 333 159.581 C 333 130.420, 332.868 128, 331.224 127.120 C 330.098 126.517, 328.818 126.522, 327.724 127.134 M 57.500 135.870 C 37.436 141.645, 20.733 158.691, 15.585 178.644 C 13.554 186.517, 13.554 200.483, 15.585 208.356 C 20.838 228.716, 38.284 246.162, 58.644 251.415 C 66.367 253.407, 79.556 253.429, 87.897 251.463 C 108.383 246.634, 126.119 228.764, 131.491 207.540 C 133.425 199.900, 133.422 187.081, 131.485 179.460 C 126.100 158.274, 109.042 140.922, 88.356 135.585 C 80.226 133.488, 65.296 133.625, 57.500 135.870 M 193.500 159.367 C 186.383 161.190, 181.133 164.182, 176.301 169.167 C 166.333 179.452, 163.572 194.916, 169.417 207.734 C 175.978 222.125, 192.121 230.822, 207.027 227.995 C 218.279 225.861, 226.682 219.765, 232.070 209.826 C 235.326 203.820, 235.500 202.994, 235.499 193.500 C 235.499 184.448, 235.227 182.979, 232.639 178 C 225.136 163.570, 208.328 155.568, 193.500 159.367 M 190.363 167.922 C 180.097 172.584, 173.750 182.356, 173.750 193.500 C 173.750 209.123, 185.525 220.926, 201.163 220.978 C 222.414 221.048, 235.559 198.715, 225.351 179.882 C 222.427 174.487, 216.618 169.514, 210.684 167.326 C 205.616 165.457, 195.113 165.766, 190.363 167.922 M 67.500 174.664 C 61.593 175.513, 53.424 178.201, 49.063 180.730 C 44.287 183.500, 36 190.715, 36 192.103 C 36 192.570, 37.603 194.410, 39.562 196.192 C 56.768 211.850, 81.297 213.817, 100.044 201.043 C 103.094 198.965, 106.581 196.950, 107.794 196.565 C 115.191 194.218, 103.010 181.983, 88.500 177.187 C 82.178 175.097, 72.541 173.939, 67.500 174.664 M 60 183.814 C 53.583 185.937, 45.782 190.823, 46.285 192.404 C 46.477 193.007, 50.148 195.300, 54.444 197.500 C 62.109 201.425, 62.453 201.500, 72.877 201.500 C 82.797 201.500, 83.930 201.289, 90 198.309 C 93.575 196.554, 97.400 194.388, 98.500 193.497 L 100.500 191.876 98.500 190.325 C 97.400 189.471, 93.575 187.378, 90 185.673 C 84.480 183.041, 82.143 182.530, 74.500 182.284 C 67.852 182.070, 64.063 182.470, 60 183.814 M 199.750 191.080 C 197.372 192.465, 197.542 195.685, 200.064 197.034 C 203.753 199.008, 206.819 194.219, 203.800 191.200 C 202.367 189.767, 202.022 189.757, 199.750 191.080 M 167.585 255.558 C 166.713 256.430, 166 257.529, 166 258 C 166 258.471, 166.713 259.570, 167.585 260.442 C 168.978 261.835, 173.159 261.995, 202.226 261.763 C 232.452 261.523, 235.377 261.350, 236.386 259.750 C 237.191 258.474, 237.191 257.526, 236.386 256.250 C 235.377 254.650, 232.452 254.477, 202.226 254.237 C 173.159 254.005, 168.978 254.165, 167.585 255.558 " stroke="none" fill="black" fill-rule="evenodd"/>
</svg>