<svg xmlns="http://www.w3.org/2000/svg" width="403" height="324" viewBox="0 0 403 324" version="1.1">
	<path d="M 63.870 127.071 C 48.893 129.271, 37.652 135.158, 25.974 146.916 C 12.475 160.507, 6.696 174.473, 6.696 193.500 C 6.696 212.834, 12.449 226.527, 26.461 240.539 C 40.473 254.551, 54.166 260.304, 73.500 260.304 C 92.176 260.304, 106.938 254.102, 120.584 240.521 C 133.867 227.301, 140 212.448, 140 193.500 C 140 174.879, 133.913 159.885, 121.121 146.995 C 109.603 135.389, 97.653 129.243, 82.284 127.020 C 74.551 125.902, 71.772 125.910, 63.870 127.071 M 319.235 127.099 C 290.101 131.493, 266.674 155.344, 262.760 184.596 C 259.949 205.610, 266.827 225.652, 282.087 240.913 C 317.057 275.882, 376.016 262.086, 392.321 215.118 C 399.724 193.792, 395.602 169.739, 381.456 151.715 C 367.304 133.684, 341.985 123.667, 319.235 127.099 M 57.500 135.870 C 37.436 141.645, 20.733 158.691, 15.585 178.644 C 13.554 186.517, 13.554 200.483, 15.585 208.356 C 20.838 228.716, 38.284 246.162, 58.644 251.415 C 66.367 253.407, 79.556 253.429, 87.897 251.463 C 108.383 246.634, 126.119 228.764, 131.491 207.540 C 133.423 199.909, 133.423 187.091, 131.491 179.460 C 126.119 158.236, 108.383 140.366, 87.897 135.537 C 79.386 133.531, 65.080 133.688, 57.500 135.870 M 314 135.524 C 290.951 141.851, 274.130 160.585, 270.266 184.230 C 268.865 192.800, 268.868 194.580, 270.290 203.016 C 274.326 226.952, 291.592 245.721, 314.988 251.606 C 323.829 253.829, 340.071 253.068, 348.723 250.024 C 362.903 245.035, 375.475 233.929, 382.055 220.577 C 391.080 202.265, 391.080 184.735, 382.055 166.423 C 375.478 153.078, 362.927 141.986, 348.723 136.966 C 340.510 134.064, 322.103 133.299, 314 135.524 M 194.355 158.998 C 183.822 161.188, 174.117 169.138, 169.329 179.500 C 165.372 188.063, 165.372 198.937, 169.329 207.500 C 181.749 234.379, 218.029 235.724, 232.070 209.826 C 235.326 203.820, 235.500 202.994, 235.499 193.500 C 235.499 184.448, 235.227 182.979, 232.639 178 C 225.375 164.029, 209.073 155.938, 194.355 158.998 M 190.363 167.922 C 176.353 174.284, 169.844 190.813, 175.929 204.573 C 180.388 214.659, 188.281 220.062, 199.616 220.789 C 206.399 221.224, 207.556 221.001, 213.397 218.125 C 222.587 213.601, 227.825 206.069, 228.721 196.088 C 230.199 179.625, 217.680 165.968, 201.163 166.022 C 196.819 166.036, 193.060 166.698, 190.363 167.922 M 67.500 174.657 C 61.552 175.526, 53.413 178.208, 49.063 180.730 C 44.287 183.500, 36 190.715, 36 192.103 C 36 192.570, 37.603 194.410, 39.562 196.192 C 56.768 211.850, 81.297 213.817, 100.044 201.043 C 103.094 198.965, 106.581 196.950, 107.794 196.565 C 115.468 194.130, 101.370 180.616, 87 176.633 C 80.754 174.901, 71.938 174.008, 67.500 174.657 M 60 183.814 C 53.583 185.937, 45.782 190.823, 46.285 192.404 C 46.477 193.007, 50.148 195.300, 54.444 197.500 C 62.109 201.425, 62.453 201.500, 72.877 201.500 C 82.797 201.500, 83.930 201.289, 90 198.309 C 93.575 196.554, 97.400 194.388, 98.500 193.497 L 100.500 191.876 98.500 190.325 C 97.400 189.471, 93.575 187.378, 90 185.673 C 84.480 183.041, 82.143 182.530, 74.500 182.284 C 67.852 182.070, 64.063 182.470, 60 183.814 M 199.750 191.080 C 197.372 192.465, 197.542 195.685, 200.064 197.034 C 203.753 199.008, 206.819 194.219, 203.800 191.200 C 202.367 189.767, 202.022 189.757, 199.750 191.080 M 167.585 255.558 C 166.713 256.430, 166 257.529, 166 258 C 166 258.471, 166.713 259.570, 167.585 260.442 C 168.978 261.835, 173.159 261.995, 202.226 261.763 C 232.452 261.523, 235.377 261.350, 236.386 259.750 C 237.191 258.474, 237.191 257.526, 236.386 256.250 C 235.377 254.650, 232.452 254.477, 202.226 254.237 C 173.159 254.005, 168.978 254.165, 167.585 255.558 " stroke="none" fill="black" fill-rule="evenodd"/>
</svg>