<svg xmlns="http://www.w3.org/2000/svg" width="356" height="324" viewBox="0 0 356 324" version="1.1">
	<path d="M 7.571 127.571 C 6.175 128.968, 6 136.372, 6 194 C 6 251.628, 6.175 259.032, 7.571 260.429 C 8.968 261.825, 16.372 262, 74 262 C 131.628 262, 139.032 261.825, 140.429 260.429 C 141.825 259.032, 142 251.628, 142 194 C 142 136.372, 141.825 128.968, 140.429 127.571 C 139.032 126.175, 131.628 126, 74 126 C 16.372 126, 8.968 126.175, 7.571 127.571 M 271.381 126.938 C 238.680 132.121, 214.035 160.727, 214.035 193.500 C 214.035 218.620, 228.826 242.316, 251.500 253.520 C 261.369 258.398, 269.812 260.361, 281 260.383 C 293.010 260.406, 299.201 258.944, 310.604 253.390 C 326.687 245.557, 338.826 231.752, 344.721 214.590 C 347.244 207.244, 347.494 205.258, 347.430 193 C 347.367 181.098, 347.050 178.632, 344.750 172.165 C 340.977 161.556, 336.503 154.563, 328 145.983 C 321.907 139.834, 318.718 137.551, 311 133.807 C 305.775 131.273, 299.463 128.724, 296.974 128.142 C 290.436 126.614, 277.320 125.997, 271.381 126.938 M 14 194 L 14 254 74 254 L 134 254 134 194 L 134 134 74 134 L 14 134 14 194 M 265.345 135.904 C 254.769 138.930, 248.026 142.981, 239.384 151.500 C 227.134 163.575, 221.639 176.580, 221.639 193.500 C 221.639 210.413, 227.132 223.417, 239.384 235.511 C 251.742 247.710, 264.386 253, 281.184 253 C 309.660 253, 333.560 233.448, 339.532 205.266 C 346.029 174.606, 326.335 143.384, 295.540 135.522 C 287.580 133.489, 273.143 133.672, 265.345 135.904 M 39.200 159.200 C 37.481 160.919, 37.481 227.081, 39.200 228.800 C 40.085 229.685, 49.117 230, 73.629 230 C 102.503 230, 107.063 229.794, 108.429 228.429 C 109.793 227.064, 110 222.537, 110 194 C 110 165.463, 109.793 160.936, 108.429 159.571 C 107.063 158.206, 102.503 158, 73.629 158 C 49.117 158, 40.085 158.315, 39.200 159.200 M 167.315 175.213 C 157.792 184.680, 150 193.134, 150 194 C 150 195.680, 183.953 230, 185.615 230 C 187.105 230, 189 227.795, 189 226.062 C 189 225.216, 182.143 217.656, 173.762 209.262 L 158.524 194 173.762 178.738 C 182.143 170.344, 189 162.784, 189 161.938 C 189 160.205, 187.105 158, 185.615 158 C 185.073 158, 176.838 165.746, 167.315 175.213 M 46 194 L 46 222 74 222 L 102 222 102 194 L 102 166 74 166 L 46 166 46 194 M 270.402 175.486 C 267.048 176.215, 262.071 177.944, 259.343 179.326 C 252.239 182.926, 244 189.699, 244 191.938 C 244 193.017, 246.255 195.644, 249.250 198.053 C 260.671 207.239, 274.694 211.244, 287.734 209.045 C 294.909 207.835, 304.425 203.922, 310.279 199.776 C 312.051 198.522, 314.400 197, 315.500 196.395 C 319.118 194.406, 318.457 191.575, 313.302 186.992 C 307.106 181.483, 296.233 176.349, 288 175.045 C 279.964 173.772, 278.060 173.820, 270.402 175.486 M 267.680 183.903 C 261.644 185.898, 254 190.372, 254 191.910 C 254 192.395, 256.137 194.152, 258.750 195.814 C 270.163 203.078, 285.934 204.031, 298.117 198.195 C 309.389 192.795, 309.394 191.199, 298.160 185.838 C 289.521 181.715, 276.751 180.904, 267.680 183.903 " stroke="none" fill="black" fill-rule="evenodd"/>
</svg>