<svg xmlns="http://www.w3.org/2000/svg" width="660" height="324" viewBox="0 0 660 324" version="1.1">
	<path d="M 7.571 127.571 C 6.207 128.936, 6 133.463, 6 162 C 6 190.537, 6.207 195.064, 7.571 196.429 C 8.844 197.701, 11.697 198, 22.575 198 L 36.006 198 21.020 227.961 C 12.777 244.439, 6.285 258.580, 6.594 259.384 C 7.265 261.133, 9.512 262.125, 11.274 261.448 C 11.975 261.180, 19.056 247.919, 27.010 231.980 C 34.964 216.041, 41.710 203, 42 203 C 42.291 203, 48.822 215.661, 56.514 231.136 C 64.206 246.611, 71.095 259.886, 71.821 260.636 C 73.530 262.400, 74.501 262.356, 76.429 260.429 C 77.825 259.032, 78 251.628, 78 194 C 78 136.372, 77.825 128.968, 76.429 127.571 C 74.455 125.598, 73.545 125.598, 71.571 127.571 C 70.212 128.931, 70 133.242, 70 159.571 L 70 190 42 190 L 14 190 14 159.571 C 14 133.242, 13.788 128.931, 12.429 127.571 C 11.564 126.707, 10.471 126, 10 126 C 9.529 126, 8.436 126.707, 7.571 127.571 M 103.571 127.571 C 102.707 128.436, 102 129.657, 102 130.285 C 102 130.913, 116.057 145.510, 133.238 162.723 L 164.476 194.019 137.238 221.257 L 110 248.495 110 220.819 C 110 196.992, 109.781 192.924, 108.429 191.571 C 107.564 190.707, 106.471 190, 106 190 C 105.529 190, 104.436 190.707, 103.571 191.571 C 102.207 192.936, 102 197.463, 102 226 C 102 254.537, 102.207 259.064, 103.571 260.429 C 104.436 261.293, 105.657 262, 106.285 262 C 106.913 262, 121.506 247.947, 138.713 230.771 L 170 199.542 201.287 230.771 C 218.494 247.947, 233.087 262, 233.715 262 C 234.343 262, 235.564 261.293, 236.429 260.429 C 237.793 259.064, 238 254.537, 238 226 C 238 197.463, 237.793 192.936, 236.429 191.571 C 234.455 189.598, 233.545 189.598, 231.571 191.571 C 230.219 192.924, 230 196.992, 230 220.819 L 230 248.495 202.762 221.257 L 175.524 194.019 206.762 162.723 C 223.943 145.510, 238 130.913, 238 130.285 C 238 128.809, 235.191 126, 233.715 126 C 233.087 126, 218.494 140.053, 201.287 157.229 L 170 188.458 138.713 157.229 C 121.506 140.053, 106.913 126, 106.285 126 C 105.657 126, 104.436 126.707, 103.571 127.571 M 319.102 127.108 C 293.640 130.961, 271.155 151.450, 264.349 177 C 262.078 185.527, 262.091 201.277, 264.377 210 C 267.585 222.239, 272.558 230.636, 282.461 240.535 C 296.487 254.554, 310.258 260.346, 329.500 260.319 C 348.859 260.291, 362.540 254.538, 376.539 240.539 C 390.606 226.472, 396.333 212.862, 396.333 193.500 C 396.333 174.138, 390.606 160.528, 376.539 146.461 C 366.823 136.745, 358.203 131.569, 346.831 128.621 C 339.080 126.612, 326.806 125.942, 319.102 127.108 M 488.369 126.765 C 487.416 127.384, 422 257.155, 422 258.426 C 422 258.663, 422.707 259.564, 423.571 260.429 C 424.936 261.793, 429.463 262, 458 262 C 486.537 262, 491.064 261.793, 492.429 260.429 C 493.293 259.564, 494 258.471, 494 258 C 494 257.529, 493.293 256.436, 492.429 255.571 C 491.071 254.214, 486.849 254, 461.430 254 L 432.002 254 460.747 196.500 C 476.557 164.875, 489.722 139, 490.003 139 C 490.284 139, 504.010 166.059, 520.507 199.131 C 537.003 232.204, 551.095 259.879, 551.821 260.631 C 552.887 261.735, 559.506 262, 586 262 C 614.537 262, 619.064 261.793, 620.429 260.429 C 621.293 259.564, 622 258.471, 622 258 C 622 257.529, 621.293 256.436, 620.429 255.571 C 619.067 254.210, 614.667 254, 587.430 254 L 556.003 254 524.383 190.750 C 495.939 133.854, 491.783 126.031, 490 126.031 C 489.725 126.031, 488.991 126.361, 488.369 126.765 M 314.645 135.584 C 294.671 140.419, 276.279 158.986, 271.537 179.103 C 266.672 199.742, 272.569 220.600, 287.484 235.516 C 302.400 250.431, 323.258 256.328, 343.897 251.463 C 364.261 246.662, 382.662 228.261, 387.463 207.897 C 389.390 199.718, 389.390 187.282, 387.463 179.103 C 382.662 158.739, 364.261 140.338, 343.897 135.537 C 335.998 133.676, 322.439 133.697, 314.645 135.584 M 343.571 159.571 C 342.707 160.436, 342 161.640, 342 162.249 C 342 162.857, 348.844 170.250, 357.208 178.677 L 372.416 194 357.208 209.323 C 348.844 217.750, 342 225.143, 342 225.751 C 342 227.200, 344.827 230, 346.290 230 C 347.969 230, 382 195.693, 382 194 C 382 192.307, 347.969 158, 346.290 158 C 345.659 158, 344.436 158.707, 343.571 159.571 M 551.282 175.282 C 541.777 184.787, 534 193.210, 534 194 C 534 195.693, 568.031 230, 569.710 230 C 571.173 230, 574 227.200, 574 225.751 C 574 225.143, 567.156 217.750, 558.792 209.323 L 543.584 194 558.792 178.677 C 567.156 170.250, 574 162.857, 574 162.249 C 574 160.800, 571.173 158, 569.710 158 C 569.079 158, 560.787 165.777, 551.282 175.282 M 58.607 219.250 C 64.446 230.938, 69.398 240.688, 69.612 240.917 C 69.825 241.146, 70 231.583, 70 219.667 L 70 198 58.995 198 L 47.991 198 58.607 219.250 M 583.571 207.571 C 582.707 208.436, 582 209.659, 582 210.290 C 582 211.969, 616.307 246, 618 246 C 619.693 246, 654 211.969, 654 210.290 C 654 208.827, 651.200 206, 649.751 206 C 649.143 206, 641.750 212.844, 633.323 221.208 L 618 236.416 602.677 221.208 C 594.250 212.844, 586.857 206, 586.249 206 C 585.640 206, 584.436 206.707, 583.571 207.571 " stroke="none" fill="black" fill-rule="evenodd"/>
</svg>