<svg xmlns="http://www.w3.org/2000/svg" width="436" height="324" viewBox="0 0 436 324" version="1.1">
	<path d="M 135.230 159.285 C 116.953 177.591, 102 193.084, 102 193.713 C 102 195.191, 104.808 198, 106.285 198 C 106.913 198, 121.506 183.947, 138.713 166.771 L 170 135.542 201.287 166.771 C 218.494 183.947, 233.064 198, 233.664 198 C 235.588 198, 237.241 195.097, 236.647 192.763 C 235.940 189.983, 172.014 126, 169.944 126 C 169.128 126, 153.506 140.978, 135.230 159.285 M 263.571 127.571 C 262.206 128.937, 262 133.497, 262 162.371 C 262 186.883, 262.315 195.915, 263.200 196.800 C 264.081 197.681, 272.578 198, 295.200 198 L 326 198 326 228.429 C 326 254.758, 326.212 259.069, 327.571 260.429 C 328.436 261.293, 329.506 262, 329.949 262 C 332.869 262, 333.038 258.280, 333.038 194 C 333.038 129.720, 332.869 126, 329.949 126 C 329.506 126, 328.436 126.707, 327.571 127.571 C 326.212 128.931, 326 133.242, 326 159.571 L 326 190 298 190 L 270 190 270 160.223 C 270 134.890, 269.768 130.113, 268.443 128.223 C 266.598 125.588, 265.678 125.465, 263.571 127.571 M 391.750 127.080 C 390.113 128.034, 390 132.152, 390 191.050 L 390 254 375.934 254 C 361.308 254, 358 254.738, 358 258 C 358 261.750, 360.791 262.037, 394.601 261.764 C 424.469 261.523, 427.378 261.349, 428.386 259.750 C 429.190 258.475, 429.191 257.525, 428.387 256.250 C 427.430 254.730, 425.291 254.464, 412.142 254.224 L 397 253.948 397 191.174 C 397 123.280, 397.058 123.988, 391.750 127.080 M 40.370 190.765 C 38.401 192.045, 6.007 257.855, 6.594 259.384 C 7.265 261.133, 9.512 262.124, 11.274 261.448 C 11.975 261.180, 19.056 247.919, 27.010 231.980 C 34.964 216.041, 41.710 203, 42 203 C 42.290 203, 49.036 216.041, 56.990 231.980 C 64.944 247.919, 72.025 261.180, 72.726 261.448 C 74.488 262.124, 76.735 261.133, 77.406 259.384 C 77.993 257.855, 45.599 192.045, 43.630 190.765 C 43.009 190.361, 42.275 190.031, 42 190.031 C 41.725 190.031, 40.991 190.361, 40.370 190.765 " stroke="none" fill="black" fill-rule="evenodd"/>
</svg>