<svg xmlns="http://www.w3.org/2000/svg" width="595" height="324" viewBox="0 0 595 324" version="1.1">
	<path d="M 33.384 127.412 C 20.085 130.639, 10.019 141.137, 7.123 154.799 C 5.447 162.706, 5.639 225.832, 7.360 233.147 C 13.465 259.084, 44.606 269.302, 64.413 251.868 C 69.946 246.997, 73.270 241.587, 75.697 233.500 C 77.281 228.222, 77.491 223.469, 77.448 194 C 77.416 171.783, 77.001 158.878, 76.218 155.685 C 72.488 140.486, 63.078 130.639, 49.147 127.360 C 42.397 125.772, 40.111 125.779, 33.384 127.412 M 103.750 127.080 C 102.111 128.035, 102 132.293, 102 194.015 C 102 258.159, 102.052 259.957, 103.934 260.965 C 106.305 262.234, 233.837 262.390, 235.830 261.126 C 236.895 260.451, 237.137 254.064, 237.043 229.141 L 236.926 198 262.699 198 L 288.472 198 275.236 211.263 C 267.956 218.558, 262 225.292, 262 226.228 C 262 227.164, 262.952 228.439, 264.115 229.062 C 266.040 230.092, 267.775 228.675, 283.354 213.347 C 292.772 204.081, 300.843 195.938, 301.289 195.250 C 301.734 194.562, 301.734 193.437, 301.289 192.750 C 300.843 192.063, 292.772 183.919, 283.354 174.653 C 267.775 159.325, 266.040 157.908, 264.115 158.938 C 262.952 159.561, 262 160.836, 262 161.772 C 262 162.708, 267.956 169.442, 275.236 176.737 L 288.472 190 262.699 190 L 236.926 190 237.043 158.859 C 237.137 133.936, 236.895 127.549, 235.830 126.874 C 233.860 125.625, 105.905 125.825, 103.750 127.080 M 31.054 135.728 C 25.018 137.859, 17.781 145.260, 15.667 151.463 C 11.995 162.241, 14.382 173.477, 21.952 181.048 C 32.402 191.497, 49.888 191.773, 60.280 181.653 C 66.701 175.401, 68.500 170.989, 68.500 161.500 C 68.500 152.011, 66.701 147.599, 60.280 141.347 C 53.109 134.363, 41.332 132.099, 31.054 135.728 M 110 147.610 L 110 161.220 114.322 155.360 C 119.314 148.591, 126.301 141.716, 132.249 137.721 C 134.532 136.188, 136.610 134.724, 136.866 134.467 C 137.123 134.210, 131.183 134, 123.667 134 L 110 134 110 147.610 M 153.500 135.870 C 143.359 138.789, 135.106 143.803, 127 151.970 C 115.152 163.907, 110 176.493, 110 193.500 C 110 210.502, 115.149 223.085, 127 235.041 C 139.080 247.229, 152.543 252.953, 169.201 252.985 C 179.649 253.005, 185.980 251.545, 195.820 246.847 C 220.843 234.900, 234.032 205.996, 227.003 178.511 C 222.717 161.754, 211.079 147.438, 195.820 140.153 C 191.244 137.968, 185.115 135.690, 182.201 135.090 C 174.410 133.487, 160.459 133.866, 153.500 135.870 M 206.805 138.028 C 214.046 142.864, 222.964 152.265, 227.023 159.342 L 229.981 164.500 229.991 149.250 L 230 134 215.386 134 L 200.772 134 206.805 138.028 M 162.344 158.988 C 152.010 161.166, 141.930 169.366, 137.417 179.266 C 133.446 187.975, 133.356 198.913, 137.189 207.175 C 147.755 229.957, 175.963 235.725, 193.353 218.661 C 201.450 210.714, 203.500 205.633, 203.500 193.500 C 203.500 181.464, 201.483 176.393, 193.518 168.404 C 185.736 160.597, 172.983 156.745, 162.344 158.988 M 487.750 159.080 C 486.788 159.641, 486 160.858, 486 161.786 C 486 162.714, 491.956 169.442, 499.236 176.737 L 512.472 190 453.170 190 C 414.204 190, 393.205 190.355, 391.934 191.035 C 390.870 191.605, 390 192.939, 390 194 C 390 195.061, 390.870 196.395, 391.934 196.965 C 393.205 197.645, 414.204 198, 453.170 198 L 512.472 198 499.236 211.263 C 491.956 218.558, 486 225.292, 486 226.228 C 486 227.164, 486.960 228.443, 488.133 229.071 C 490.084 230.115, 491.752 228.729, 507.633 212.867 C 517.185 203.327, 525 194.837, 525 194 C 525 192.655, 491.224 157.954, 489.990 158.030 C 489.720 158.047, 488.712 158.519, 487.750 159.080 M 551.750 159.080 C 550.155 160.009, 550 162.388, 550 186.015 C 550 211.174, 550.060 211.962, 552.064 213.034 C 553.596 213.854, 554.498 213.832, 555.564 212.947 C 556.744 211.968, 557 207.174, 557 186.078 C 557 157.906, 556.671 156.214, 551.750 159.080 M 159.627 167.468 C 154.247 169.386, 149.039 173.829, 145.500 179.519 C 142.969 183.589, 142.444 185.570, 142.143 192.193 C 141.830 199.089, 142.110 200.705, 144.454 205.496 C 149.309 215.419, 158.653 221.078, 169.928 220.924 C 180.142 220.784, 188.647 215.739, 193.500 206.939 C 196.130 202.171, 196.500 200.513, 196.500 193.500 C 196.500 186.487, 196.130 184.829, 193.500 180.061 C 190.429 174.492, 184.651 169.526, 178.684 167.326 C 174.327 165.720, 164.323 165.794, 159.627 167.468 M 66.500 186.022 C 62.231 190.514, 56.448 193.670, 48.975 195.587 C 38.214 198.348, 26.772 195.306, 17.955 187.340 L 14 183.767 14 207.205 C 14 234.744, 14.626 237.721, 21.952 245.048 C 32.402 255.497, 49.888 255.773, 60.280 245.653 C 68.683 237.470, 70.193 230.560, 69.781 202.183 L 69.500 182.866 66.500 186.022 M 167.616 191.527 C 166.727 192.416, 166 193.529, 166 194 C 166 195.389, 169.140 198.120, 170.295 197.735 C 172.395 197.035, 173.549 194.094, 172.423 192.310 C 170.905 189.902, 169.474 189.669, 167.616 191.527 M 359.232 191.250 C 357.350 193.573, 326 256.975, 326 258.459 C 326 260.786, 329.809 262.404, 331.663 260.865 C 332.507 260.164, 339.622 246.749, 347.474 231.052 L 361.750 202.514 376.313 231.626 C 384.486 247.965, 391.617 261.023, 392.565 261.386 C 394.679 262.198, 397 260.358, 397 257.871 C 397 255.637, 365.272 191.833, 363.630 190.765 C 361.949 189.672, 360.369 189.846, 359.232 191.250 M 551.750 222.080 C 549.372 223.465, 549.542 226.685, 552.064 228.034 C 555.753 230.008, 558.819 225.219, 555.800 222.200 C 554.367 220.767, 554.022 220.757, 551.750 222.080 M 226.999 227.750 C 223.674 234.073, 210.853 246.952, 204 250.851 L 198.500 253.981 214.250 253.991 L 230 254 230 238.500 C 230 229.975, 229.887 223, 229.748 223 C 229.610 223, 228.373 225.137, 226.999 227.750 M 110 240 L 110 254 124.729 254 L 139.457 254 133.700 250.215 C 126.474 245.463, 117.789 236.997, 113.757 230.775 C 112.055 228.149, 110.514 226, 110.332 226 C 110.149 226, 110 232.300, 110 240 " stroke="none" fill="black" fill-rule="evenodd"/>
</svg>