<svg xmlns="http://www.w3.org/2000/svg" width="196" height="324" viewBox="0 0 196 324" version="1.1">
	<path d="M 119.571 111.571 C 118.707 112.436, 118 113.644, 118 114.257 C 118 115.709, 152.085 150, 153.528 150 C 155.020 150, 188.413 116.356, 188.833 114.430 C 189.209 112.704, 187.296 110, 185.698 110 C 185.117 110, 177.623 116.969, 169.045 125.486 L 153.449 140.973 137.987 125.486 C 129.482 116.969, 122.213 110, 121.834 110 C 121.454 110, 120.436 110.707, 119.571 111.571 M 21.242 160.695 C 15.917 168.265, 14.442 174.302, 16.067 181.877 C 17.556 188.820, 22.715 196.500, 25.891 196.500 C 30.294 196.500, 30.508 193.956, 26.594 188.139 C 23.509 183.555, 23 181.988, 23 177.071 C 23 172.311, 23.536 170.534, 26.171 166.555 C 28.603 162.884, 29.104 161.386, 28.319 160.134 C 26.585 157.365, 23.406 157.617, 21.242 160.695 M 53.242 160.695 C 48.843 166.948, 47.633 170.467, 47.633 177 C 47.633 183.781, 48.968 187.471, 53.713 193.807 C 56.338 197.313, 59.478 197.806, 61.242 194.990 C 61.931 193.889, 61.214 192.032, 58.594 188.139 C 55.513 183.561, 55 181.985, 55 177.095 C 55 172.430, 55.567 170.498, 58.112 166.485 C 60.388 162.896, 60.965 161.165, 60.260 160.039 C 58.580 157.358, 55.378 157.657, 53.242 160.695 M 85.242 160.695 C 80.843 166.948, 79.633 170.467, 79.633 177 C 79.633 183.781, 80.968 187.471, 85.713 193.807 C 88.338 197.313, 91.478 197.806, 93.242 194.990 C 93.931 193.889, 93.214 192.032, 90.594 188.139 C 87.513 183.561, 87 181.985, 87 177.095 C 87 172.430, 87.567 170.498, 90.112 166.485 C 92.388 162.896, 92.965 161.165, 92.260 160.039 C 90.580 157.358, 87.378 157.657, 85.242 160.695 M 145.972 159.321 C 135.117 161.733, 126.124 169.185, 121.163 179.880 C 117.441 187.904, 117.452 199.118, 121.189 207.175 C 133.752 234.261, 170.161 235.813, 183.999 209.851 C 186.727 204.732, 187.438 202.140, 187.788 196.025 C 188.302 187.073, 187.181 182.377, 182.778 175.035 C 175.396 162.726, 160.079 156.187, 145.972 159.321 M 142.363 167.922 C 131.980 172.637, 125.875 182.125, 125.875 193.545 C 125.875 208.604, 136.109 219.702, 150.977 220.766 C 162.937 221.622, 171.982 216.876, 177.551 206.824 C 180.127 202.173, 180.500 200.488, 180.500 193.500 C 180.500 186.512, 180.127 184.827, 177.551 180.176 C 174.179 174.090, 169.063 169.639, 162.965 167.488 C 157.084 165.413, 147.442 165.616, 142.363 167.922 " stroke="none" fill="black" fill-rule="evenodd"/>
</svg>