<svg xmlns="http://www.w3.org/2000/svg" width="340" height="324" viewBox="0 0 340 324" version="1.1">
	<path d="M 135.571 127.571 C 134.267 128.876, 134 132.009, 134 146 C 134 159.991, 134.267 163.124, 135.571 164.429 C 136.436 165.293, 137.529 166, 138 166 C 138.471 166, 139.564 165.293, 140.429 164.429 C 142.757 162.100, 142.757 129.900, 140.429 127.571 C 139.564 126.707, 138.471 126, 138 126 C 137.529 126, 136.436 126.707, 135.571 127.571 M 263.200 127.200 C 261.465 128.935, 261.465 259.065, 263.200 260.800 C 264.595 262.195, 329.604 262.538, 331.772 261.162 C 332.780 260.522, 333.044 246.603, 333.044 194 C 333.044 141.397, 332.780 127.478, 331.772 126.838 C 329.604 125.462, 264.595 125.805, 263.200 127.200 M 270 194 L 270 254 298 254 L 326 254 326 194 L 326 134 298 134 L 270 134 270 194 M 103.571 159.571 C 102.707 160.436, 102 161.636, 102 162.239 C 102 162.841, 107.941 169.334, 115.202 176.667 L 128.405 190 68.774 190 C 15.897 190, 8.965 190.178, 7.571 191.571 C 5.598 193.545, 5.598 194.455, 7.571 196.429 C 8.965 197.822, 15.897 198, 68.774 198 L 128.405 198 115.202 211.333 C 107.941 218.666, 102 225.159, 102 225.761 C 102 227.202, 104.832 230, 106.290 230 C 107.969 230, 142 195.693, 142 194 C 142 192.307, 107.969 158, 106.290 158 C 105.659 158, 104.436 158.707, 103.571 159.571 M 194.355 158.986 C 183.790 161.214, 174.114 169.146, 169.329 179.500 C 167.026 184.484, 166.558 186.854, 166.565 193.500 C 166.577 203.515, 169.873 211.488, 176.824 218.311 C 186.874 228.176, 201.299 231.123, 214.500 226.006 C 222.559 222.883, 230.950 214.423, 233.955 206.392 C 236.890 198.545, 236.866 188.390, 233.893 180.443 C 228.319 165.546, 210.109 155.663, 194.355 158.986 M 191.385 167.617 C 176.729 172.815, 169.477 191.530, 176.588 205.801 C 187.799 228.298, 221.531 224.930, 228.098 200.657 C 231.476 188.171, 225.488 174.899, 213.854 169.085 C 206.817 165.568, 198.664 165.036, 191.385 167.617 M 199.616 191.527 C 198.727 192.416, 198 193.529, 198 194 C 198 195.389, 201.140 198.120, 202.295 197.735 C 204.395 197.035, 205.549 194.094, 204.423 192.310 C 202.905 189.902, 201.474 189.669, 199.616 191.527 M 135.571 223.571 C 133.243 225.900, 133.243 258.100, 135.571 260.429 C 136.436 261.293, 137.529 262, 138 262 C 138.471 262, 139.564 261.293, 140.429 260.429 C 141.733 259.124, 142 255.991, 142 242 C 142 228.009, 141.733 224.876, 140.429 223.571 C 139.564 222.707, 138.471 222, 138 222 C 137.529 222, 136.436 222.707, 135.571 223.571 " stroke="none" fill="black" fill-rule="evenodd"/>
</svg>