<svg xmlns="http://www.w3.org/2000/svg" width="276" height="324" viewBox="0 0 276 324" version="1.1">
	<path d="M 7.571 127.571 C 6.707 128.436, 6 129.657, 6 130.285 C 6 130.913, 20.053 145.506, 37.229 162.713 L 68.458 194 37.229 225.287 C 20.053 242.494, 6 257.087, 6 257.715 C 6 258.343, 6.707 259.564, 7.571 260.429 C 8.936 261.793, 13.463 262, 42 262 C 70.537 262, 75.064 261.793, 76.429 260.429 C 77.825 259.032, 78 251.628, 78 194 C 78 136.372, 77.825 128.968, 76.429 127.571 C 75.064 126.207, 70.537 126, 42 126 C 13.463 126, 8.936 126.207, 7.571 127.571 M 199.571 127.571 C 198.707 128.436, 198 129.640, 198 130.249 C 198 130.857, 204.844 138.250, 213.208 146.677 L 228.416 162 213.208 177.323 C 204.844 185.750, 198 193.143, 198 193.751 C 198 195.181, 200.819 198, 202.249 198 C 202.857 198, 210.250 191.156, 218.677 182.792 L 234 167.584 249.323 182.792 C 257.750 191.156, 265.143 198, 265.751 198 C 267.181 198, 270 195.181, 270 193.751 C 270 193.143, 263.156 185.750, 254.792 177.323 L 239.584 162 254.792 146.677 C 263.156 138.250, 270 130.857, 270 130.249 C 270 129.640, 269.293 128.436, 268.429 127.571 C 267.064 126.207, 262.537 126, 234 126 C 205.463 126, 200.936 126.207, 199.571 127.571 M 44.500 159 C 58.242 172.750, 69.601 184, 69.742 184 C 69.884 184, 70 172.750, 70 159 L 70 134 44.758 134 L 19.515 134 44.500 159 M 222.756 145.244 L 234 156.489 245.244 145.244 L 256.489 134 234 134 L 211.511 134 222.756 145.244 M 136.348 190.765 C 134.390 192.014, 102.011 257.865, 102.600 259.400 C 103.266 261.135, 105.518 262.122, 107.274 261.448 C 107.975 261.180, 115.056 247.919, 123.010 231.980 C 130.964 216.041, 137.710 203, 138 203 C 138.290 203, 145.036 216.041, 152.990 231.980 C 160.944 247.919, 168.025 261.180, 168.726 261.448 C 170.482 262.122, 172.734 261.135, 173.400 259.400 C 173.989 257.865, 141.610 192.014, 139.652 190.765 C 139.019 190.361, 138.275 190.031, 138 190.031 C 137.725 190.031, 136.981 190.361, 136.348 190.765 M 44.500 229 L 19.515 254 44.758 254 L 70 254 70 229 C 70 215.250, 69.884 204, 69.742 204 C 69.601 204, 58.242 215.250, 44.500 229 " stroke="none" fill="black" fill-rule="evenodd"/>
</svg>