<svg xmlns="http://www.w3.org/2000/svg" width="595" height="324" viewBox="0 0 595 324" version="1.1">
	<path d="M 33.384 127.412 C 20.085 130.639, 10.019 141.137, 7.123 154.799 C 5.447 162.706, 5.639 225.832, 7.360 233.147 C 13.465 259.084, 44.606 269.302, 64.413 251.868 C 69.946 246.997, 73.270 241.587, 75.697 233.500 C 77.281 228.222, 77.491 223.469, 77.448 194 C 77.416 171.783, 77.001 158.878, 76.218 155.685 C 72.488 140.486, 63.078 130.639, 49.147 127.360 C 42.397 125.772, 40.111 125.779, 33.384 127.412 M 103.750 127.080 C 102.111 128.035, 102 132.293, 102 194.015 C 102 258.159, 102.052 259.957, 103.934 260.965 C 106.305 262.234, 233.837 262.390, 235.830 261.126 C 236.895 260.451, 237.137 254.064, 237.043 229.141 L 236.926 198 262.699 198 L 288.472 198 275.236 211.263 C 267.956 218.558, 262 225.292, 262 226.228 C 262 227.164, 262.952 228.439, 264.115 229.062 C 266.040 230.092, 267.775 228.675, 283.354 213.347 C 292.772 204.081, 300.843 195.938, 301.289 195.250 C 301.734 194.562, 301.734 193.437, 301.289 192.750 C 300.843 192.063, 292.772 183.919, 283.354 174.653 C 267.775 159.325, 266.040 157.908, 264.115 158.938 C 262.952 159.561, 262 160.836, 262 161.772 C 262 162.708, 267.956 169.442, 275.236 176.737 L 288.472 190 262.699 190 L 236.926 190 237.043 158.859 C 237.137 133.936, 236.895 127.549, 235.830 126.874 C 233.860 125.625, 105.905 125.825, 103.750 127.080 M 418.355 126.992 C 406.595 129.453, 395.490 139.435, 392.023 150.661 C 389.588 158.545, 389.537 160.814, 391.571 170.792 C 395.062 187.911, 402.199 204.916, 412.111 219.730 C 419.447 230.693, 436.451 247.410, 447.859 254.876 C 453.007 258.244, 457.602 261, 458.070 261 C 458.539 261, 459.727 260.170, 460.711 259.156 C 461.695 258.141, 465.424 255.349, 468.998 252.950 C 483.965 242.905, 500.669 224.036, 509.814 206.845 L 514.500 198.036 545.486 198.018 L 576.472 198 563.236 211.263 C 555.956 218.558, 550 225.292, 550 226.228 C 550 227.164, 550.960 228.443, 552.133 229.071 C 554.084 230.115, 555.752 228.729, 571.633 212.867 C 581.185 203.327, 589 194.837, 589 194 C 589 193.163, 581.185 184.673, 571.633 175.133 C 555.752 159.271, 554.084 157.885, 552.133 158.929 C 550.960 159.557, 550 160.836, 550 161.772 C 550 162.708, 555.956 169.442, 563.236 176.737 L 576.472 190 547.236 190 C 531.156 190, 518 189.807, 518 189.572 C 518 189.337, 519.128 184.949, 520.506 179.822 C 524.004 166.810, 524.632 158.687, 522.665 151.920 C 520.536 144.595, 515.882 137.818, 510.033 133.525 C 503.267 128.557, 497.759 126.775, 488.942 126.698 C 482.516 126.641, 480.420 127.087, 474.942 129.675 C 468.233 132.845, 462.396 137.827, 459.350 142.984 C 458.370 144.643, 457.328 145.984, 457.034 145.963 C 456.740 145.943, 455.201 143.878, 453.613 141.374 C 446.853 130.711, 431.164 124.312, 418.355 126.992 M 31.054 135.728 C 25.018 137.859, 17.781 145.260, 15.667 151.463 C 11.995 162.241, 14.382 173.477, 21.952 181.048 C 32.402 191.497, 49.888 191.773, 60.280 181.653 C 66.701 175.401, 68.500 170.989, 68.500 161.500 C 68.500 152.107, 66.733 147.694, 60.453 141.406 C 53.491 134.434, 41.355 132.091, 31.054 135.728 M 110 147.610 L 110 161.220 114.322 155.360 C 119.314 148.591, 126.301 141.716, 132.249 137.721 C 134.532 136.188, 136.610 134.724, 136.866 134.467 C 137.123 134.210, 131.183 134, 123.667 134 L 110 134 110 147.610 M 153.500 135.870 C 143.383 138.782, 135.105 143.806, 126.993 151.957 C 115.146 163.860, 110 176.442, 110 193.500 C 110 210.502, 115.149 223.085, 127 235.041 C 139.080 247.229, 152.543 252.953, 169.201 252.985 C 179.649 253.005, 185.980 251.545, 195.820 246.847 C 220.843 234.900, 234.032 205.996, 227.003 178.511 C 222.717 161.754, 211.079 147.438, 195.820 140.153 C 191.244 137.968, 185.115 135.690, 182.201 135.090 C 174.410 133.487, 160.459 133.866, 153.500 135.870 M 206.805 138.028 C 214.046 142.864, 222.964 152.265, 227.023 159.342 L 229.981 164.500 229.991 149.250 L 230 134 215.386 134 L 200.772 134 206.805 138.028 M 414.363 135.922 C 404.214 140.531, 397.657 150.503, 397.805 161.104 C 397.892 167.347, 400.835 179.859, 404.518 189.645 C 413.016 212.222, 430.071 233.953, 449.953 247.538 L 457 252.353 464.248 247.427 C 479.094 237.335, 493.715 221.200, 502.012 205.750 L 506.174 198 482.021 198 C 457.117 198, 454 197.555, 454 194 C 454 190.411, 457.074 190, 483.894 190 L 509.920 190 511.903 183.577 C 514.083 176.522, 517 163.154, 517 160.224 C 517 155.555, 513.736 147.981, 509.793 143.502 C 504.119 137.056, 497.444 134.016, 489 134.032 C 474.679 134.059, 463.363 144.242, 461.426 158.845 C 460.603 165.047, 458.982 166.768, 455.470 165.168 C 453.687 164.356, 453 163.253, 453 161.203 C 453 151.481, 445.866 140.739, 436.500 136.358 C 430.116 133.372, 420.400 133.181, 414.363 135.922 M 162.344 158.988 C 152.010 161.166, 141.930 169.366, 137.417 179.266 C 133.446 187.975, 133.356 198.913, 137.189 207.175 C 147.755 229.957, 175.963 235.725, 193.353 218.661 C 201.450 210.714, 203.500 205.633, 203.500 193.500 C 203.500 181.464, 201.483 176.393, 193.518 168.404 C 185.736 160.597, 172.983 156.745, 162.344 158.988 M 159.627 167.468 C 154.247 169.386, 149.039 173.829, 145.500 179.519 C 141.527 185.908, 140.712 197.311, 143.741 204.129 C 148.181 214.120, 156.127 219.919, 166.521 220.754 C 178.446 221.711, 188.036 216.794, 193.500 206.921 C 196.132 202.166, 196.500 200.518, 196.500 193.500 C 196.500 186.487, 196.130 184.829, 193.500 180.061 C 190.429 174.492, 184.651 169.526, 178.684 167.326 C 174.327 165.720, 164.323 165.794, 159.627 167.468 M 66.500 186.022 C 62.231 190.514, 56.448 193.670, 48.975 195.587 C 38.214 198.348, 26.772 195.306, 17.955 187.340 L 14 183.767 14 207.205 C 14 234.744, 14.626 237.721, 21.952 245.048 C 32.402 255.497, 49.888 255.773, 60.280 245.653 C 68.683 237.470, 70.193 230.560, 69.781 202.183 L 69.500 182.866 66.500 186.022 M 167.616 191.527 C 166.727 192.416, 166 193.529, 166 194 C 166 195.389, 169.140 198.120, 170.295 197.735 C 172.395 197.035, 173.549 194.094, 172.423 192.310 C 170.905 189.902, 169.474 189.669, 167.616 191.527 M 327.750 191.073 C 325.413 192.444, 325.527 195.677, 327.960 196.979 C 329.243 197.665, 341.208 197.936, 362.601 197.764 C 392.469 197.523, 395.378 197.349, 396.386 195.750 C 397.191 194.474, 397.191 193.526, 396.386 192.250 C 395.377 190.649, 392.483 190.481, 362.391 190.273 C 341.280 190.127, 328.873 190.414, 327.750 191.073 M 226.999 227.750 C 223.674 234.073, 210.853 246.952, 204 250.851 L 198.500 253.981 214.250 253.991 L 230 254 230 238.500 C 230 229.975, 229.887 223, 229.748 223 C 229.610 223, 228.373 225.137, 226.999 227.750 M 110 240 L 110 254 124.729 254 L 139.457 254 133.700 250.215 C 126.474 245.463, 117.789 236.997, 113.757 230.775 C 112.055 228.149, 110.514 226, 110.332 226 C 110.149 226, 110 232.300, 110 240 " stroke="none" fill="black" fill-rule="evenodd"/>
</svg>