<svg xmlns="http://www.w3.org/2000/svg" width="244" height="324" viewBox="0 0 244 324" version="1.1">
	<path d="M 55.571 63.571 C 54.707 64.436, 54 65.317, 54 65.531 C 54 66.993, 71.421 100.653, 72.488 101.252 C 73.225 101.665, 74.440 101.768, 75.188 101.481 C 76.837 100.849, 93 68.755, 93 66.115 C 93 63.770, 90.710 61.790, 88.832 62.511 C 88.050 62.811, 84.520 68.894, 80.986 76.028 C 77.453 83.163, 74.308 89, 73.997 89 C 73.687 89, 70.748 83.534, 67.467 76.853 C 59.925 61.499, 58.847 60.296, 55.571 63.571 M 63.870 127.071 C 48.893 129.271, 37.652 135.158, 25.974 146.916 C 12.475 160.507, 6.696 174.473, 6.696 193.500 C 6.696 212.527, 12.475 226.493, 25.974 240.084 C 35.053 249.225, 41.673 253.551, 51.747 256.926 C 65.925 261.677, 80.994 261.718, 94.863 257.046 C 110.473 251.788, 125.724 238.489, 132.861 223.913 C 138.346 212.711, 140 205.664, 140 193.500 C 140 181.435, 138.345 174.289, 133.041 163.450 C 123.603 144.165, 104.156 130.182, 82.398 127.037 C 74.550 125.902, 71.791 125.907, 63.870 127.071 M 199.285 159.230 C 180.978 177.506, 166 193.166, 166 194.030 C 166 197.785, 167.649 198, 196.427 198 L 224.455 198 195.227 227.289 C 179.152 243.398, 166 257.091, 166 257.718 C 166 259.206, 168.984 262.174, 170.099 261.795 C 170.576 261.633, 185.824 246.666, 203.983 228.535 C 236.853 195.718, 239.720 192.258, 235.418 190.607 C 234.548 190.273, 221.389 190, 206.175 190 L 178.513 190 207.756 160.744 C 223.840 144.653, 237 130.793, 237 129.944 C 237 128.191, 235.103 126, 233.585 126 C 233.026 126, 217.591 140.953, 199.285 159.230 M 57.500 135.870 C 37.436 141.645, 20.733 158.691, 15.585 178.644 C 13.554 186.517, 13.554 200.483, 15.585 208.356 C 20.838 228.716, 38.284 246.162, 58.644 251.415 C 66.367 253.407, 79.556 253.429, 87.897 251.463 C 113.802 245.356, 133 220.685, 133 193.500 C 133 166.498, 114.337 142.288, 88.356 135.585 C 80.226 133.488, 65.296 133.625, 57.500 135.870 M 65.972 159.329 C 59.051 160.857, 52.402 164.705, 47.710 169.900 C 29.370 190.199, 39.556 221.675, 66.446 227.798 C 74.161 229.555, 74.345 229.552, 81.500 227.564 C 98.127 222.942, 108.111 210.162, 108.111 193.500 C 108.111 183.223, 105.166 176.006, 98.080 168.920 C 89.484 160.324, 77.578 156.767, 65.972 159.329 M 63.627 167.468 C 58.302 169.367, 53.047 173.815, 49.618 179.328 C 46.254 184.737, 45.041 194.780, 46.916 201.708 C 49.166 210.024, 58.440 218.810, 66.750 220.498 L 70 221.159 70 193.579 C 70 172.159, 69.721 166.010, 68.750 166.044 C 68.063 166.068, 65.757 166.709, 63.627 167.468 M 78 193.500 L 78 221.135 80.250 220.448 C 88.603 217.897, 94.948 212.697, 98.533 205.467 C 101.287 199.912, 101.287 187.088, 98.533 181.533 C 94.948 174.303, 88.603 169.103, 80.250 166.552 L 78 165.865 78 193.500 " stroke="none" fill="black" fill-rule="evenodd"/>
</svg>