<svg xmlns="http://www.w3.org/2000/svg" width="403" height="324" viewBox="0 0 403 324" version="1.1">
	<path d="M 230.807 127.250 C 229.789 128.058, 228.996 130.974, 228.563 135.500 C 225.864 163.734, 204.176 185.347, 174.895 188.983 C 159.024 190.953, 153.231 192.089, 146.246 194.599 C 122.290 203.208, 105.023 225.696, 102.469 251.614 C 101.891 257.479, 102.055 258.912, 103.460 260.317 C 104.386 261.243, 105.535 262, 106.015 262 C 107.925 262, 110 257.308, 110 252.988 C 110 235.144, 124.216 213.408, 141.587 204.694 C 149.641 200.654, 158.875 198, 164.880 198 C 167.130 198, 170.890 197.562, 173.236 197.027 C 175.581 196.491, 180.425 195.509, 184 194.843 C 187.656 194.163, 194.439 191.665, 199.500 189.136 C 210.926 183.427, 222.539 172.209, 228.264 161.348 C 234.510 149.500, 238.139 130.539, 234.800 127.200 C 233.292 125.692, 232.763 125.698, 230.807 127.250 M 295.750 127.080 C 294.207 127.979, 294 129.866, 294 143.050 L 294 158 279.934 158 C 265.308 158, 262 158.738, 262 162 C 262 165.262, 265.308 166, 279.934 166 L 294 166 294 194 L 294 222 279.934 222 C 265.308 222, 262 222.738, 262 226 C 262 229.262, 265.308 230, 279.934 230 L 294 230 294 244.965 C 294 259.061, 294.120 259.994, 296.064 261.034 C 300.316 263.310, 301 261.071, 301 244.878 L 301 230 329.500 230 L 358 230 358 244.965 C 358 259.061, 358.120 259.994, 360.064 261.034 C 364.315 263.309, 365 261.069, 365 244.904 L 365 230.052 380.142 229.776 C 393.291 229.536, 395.430 229.270, 396.387 227.750 C 397.191 226.475, 397.191 225.525, 396.387 224.250 C 395.430 222.730, 393.291 222.464, 380.142 222.224 L 365 221.948 365 194 L 365 166.052 380.142 165.776 C 393.291 165.536, 395.430 165.270, 396.387 163.750 C 397.191 162.475, 397.191 161.525, 396.387 160.250 C 395.430 158.730, 393.291 158.464, 380.142 158.224 L 365 157.948 365 143.096 C 365 126.931, 364.315 124.691, 360.064 126.966 C 358.120 128.006, 358 128.939, 358 143.035 L 358 158 329.500 158 L 301 158 301 143.200 C 301 126.584, 300.299 124.431, 295.750 127.080 M 301 194 L 301 222 329.500 222 L 358 222 358 194 L 358 166 329.500 166 L 301 166 301 194 M 7.571 191.571 C 6.707 192.436, 6 193.640, 6 194.249 C 6 194.857, 12.844 202.250, 21.208 210.677 L 36.416 226 21.208 241.323 C 12.844 249.750, 6 257.143, 6 257.751 C 6 259.181, 8.819 262, 10.249 262 C 10.857 262, 18.250 255.156, 26.677 246.792 L 42 231.584 57.323 246.792 C 65.750 255.156, 73.143 262, 73.751 262 C 75.181 262, 78 259.181, 78 257.751 C 78 257.143, 71.156 249.750, 62.792 241.323 L 47.584 226 62.792 210.677 C 71.156 202.250, 78 194.857, 78 194.249 C 78 192.819, 75.181 190, 73.751 190 C 73.143 190, 65.750 196.844, 57.323 205.208 L 42 220.416 26.677 205.208 C 18.250 196.844, 10.857 190, 10.249 190 C 9.640 190, 8.436 190.707, 7.571 191.571 " stroke="none" fill="black" fill-rule="evenodd"/>
</svg>