<svg xmlns="http://www.w3.org/2000/svg" width="212" height="324" viewBox="0 0 212 324" version="1.1">
	<path d="M 23.571 63.571 C 22.707 64.436, 22 65.332, 22 65.564 C 22 67.204, 39.738 101.069, 40.813 101.482 C 41.560 101.768, 42.775 101.665, 43.512 101.252 C 45.510 100.131, 62.035 66.256, 61.396 64.590 C 60.731 62.856, 58.476 61.880, 56.705 62.560 C 55.993 62.833, 52.520 68.894, 48.986 76.028 C 45.453 83.163, 42.308 89, 41.997 89 C 41.687 89, 38.748 83.534, 35.467 76.853 C 27.925 61.499, 26.847 60.296, 23.571 63.571 M 131.045 127.092 C 104.046 132.385, 93.312 165.891, 112.364 185.404 C 118.226 191.409, 121.661 193.441, 129.230 195.382 L 134.500 196.734 134.645 227.617 C 134.724 244.603, 134.837 259.032, 134.895 259.683 C 135.053 261.464, 138.895 262.332, 140.548 260.960 C 141.475 260.191, 142 257.885, 142 254.588 C 142 234.805, 156.170 213.230, 175.101 204.191 C 183.872 200.003, 191.316 198, 198.115 198 C 203.096 198, 206 196.527, 206 194 C 206 190.607, 202.619 189.721, 194.068 190.871 C 189.809 191.445, 184.114 192.654, 181.412 193.559 C 167.512 198.215, 153.839 208.499, 146.061 220.147 L 142 226.228 142 211.225 L 142 196.223 145.703 195.528 C 151.109 194.514, 156.645 191.412, 162.013 186.392 C 176.105 173.209, 176.105 149.791, 162.013 136.608 C 156.344 131.307, 151.324 128.633, 144.201 127.123 C 138.254 125.863, 137.329 125.861, 131.045 127.092 M 128.453 135.266 C 120.022 138.680, 113.866 144.957, 111.159 152.899 C 106.374 166.938, 115.431 184.056, 129.769 188.074 C 136.182 189.872, 146.027 188.760, 151.355 185.638 C 166.444 176.795, 169.869 156.619, 158.553 143.230 C 153.619 137.393, 147.715 134.694, 139.117 134.343 C 134.649 134.161, 130.240 134.543, 128.453 135.266 M 35.045 159.092 C 18.472 162.341, 6.748 176.597, 6.748 193.500 C 6.748 225.177, 45.698 240.495, 67.128 217.245 C 73.577 210.249, 76.389 203.039, 76.389 193.500 C 76.389 187, 75.901 184.436, 73.784 179.825 C 68.696 168.740, 59.181 161.213, 47.566 159.087 C 40.965 157.878, 41.242 157.878, 35.045 159.092 M 31.054 167.668 C 25.003 169.886, 17.760 177.321, 15.667 183.463 C 11.995 194.241, 14.382 205.477, 21.952 213.048 C 35.228 226.324, 58.038 222.606, 66.412 205.801 C 68.471 201.668, 68.996 199.167, 68.978 193.554 C 68.944 182.670, 64.422 174.675, 55.261 169.307 C 49.484 165.922, 37.949 165.141, 31.054 167.668 M 7.571 255.571 C 6.707 256.436, 6 257.529, 6 258 C 6 258.471, 6.707 259.564, 7.571 260.429 C 8.936 261.793, 13.463 262, 42 262 C 70.537 262, 75.064 261.793, 76.429 260.429 C 77.293 259.564, 78 258.471, 78 258 C 78 257.529, 77.293 256.436, 76.429 255.571 C 75.064 254.207, 70.537 254, 42 254 C 13.463 254, 8.936 254.207, 7.571 255.571 " stroke="none" fill="black" fill-rule="evenodd"/>
</svg>