<svg xmlns="http://www.w3.org/2000/svg" width="308" height="324" viewBox="0 0 308 324" version="1.1">
	<path d="M 64.500 126.944 C 56.325 128.268, 50.930 129.991, 43 133.814 C 32.444 138.903, 18.927 152.404, 13.778 163 C 7.648 175.615, 4.334 193.191, 7.491 196.348 C 10.992 199.850, 14 196.834, 14 189.823 C 14 176.987, 20.739 162.179, 31.459 151.459 C 43.091 139.828, 56.905 134, 72.845 134 C 83.674 134, 89.916 135.424, 99.820 140.153 C 109.977 145.002, 119.912 154.325, 125.340 164.101 C 129.365 171.350, 133 183.919, 133 190.589 C 133 194.479, 134.839 198, 136.871 198 C 140.482 198, 141.008 188.263, 138.028 176.609 C 134.978 164.686, 129.782 155.740, 120.457 146.361 C 113.703 139.568, 110.806 137.478, 102.933 133.719 C 97.745 131.242, 91.475 128.743, 89 128.165 C 82.400 126.623, 70.232 126.016, 64.500 126.944 M 167.750 191.073 C 165.413 192.444, 165.527 195.677, 167.960 196.979 C 169.243 197.665, 181.208 197.936, 202.601 197.764 C 232.469 197.523, 235.378 197.349, 236.386 195.750 C 237.191 194.474, 237.191 193.526, 236.386 192.250 C 235.377 190.649, 232.483 190.481, 202.391 190.273 C 181.280 190.127, 168.873 190.414, 167.750 191.073 M 263.268 191.207 C 261.363 193.557, 230 256.957, 230 258.459 C 230 260.509, 233.792 262.422, 235.314 261.140 C 235.966 260.591, 243.021 247.055, 250.991 231.060 L 265.483 201.979 279.825 230.740 C 287.714 246.558, 294.867 260.045, 295.722 260.711 C 297.692 262.247, 301.021 260.657, 300.950 258.215 C 300.859 255.092, 267.585 190.516, 265.908 190.207 C 265.032 190.046, 263.844 190.496, 263.268 191.207 " stroke="none" fill="black" fill-rule="evenodd"/>
</svg>