<svg xmlns="http://www.w3.org/2000/svg" width="308" height="324" viewBox="0 0 308 324" version="1.1">
	<path d="M 72.316 62.784 C 70.369 64.022, 54.007 97.855, 54.604 99.410 C 55.450 101.615, 58.110 102.210, 59.895 100.594 C 60.778 99.795, 64.185 93.709, 67.467 87.070 C 70.748 80.432, 73.687 75, 73.997 75 C 74.308 75, 77.453 80.837, 80.986 87.972 C 84.520 95.106, 88.050 101.189, 88.832 101.489 C 90.716 102.212, 93 100.227, 93 97.866 C 93 95.626, 77.264 63.831, 75.628 62.765 C 74.214 61.845, 73.789 61.847, 72.316 62.784 M 64.500 126.944 C 56.325 128.268, 50.930 129.991, 43 133.814 C 32.444 138.903, 18.927 152.404, 13.778 163 C 7.648 175.615, 4.334 193.191, 7.491 196.348 C 10.992 199.850, 14 196.834, 14 189.823 C 14 171.378, 27.743 149.988, 45.500 140.794 C 53.824 136.485, 63.606 133.779, 69.348 134.197 C 73.449 134.496, 73.549 134.597, 77.500 142.377 C 81.421 150.100, 81.500 150.464, 81.500 160.877 C 81.500 170.725, 81.272 171.974, 78.371 178 C 76.651 181.575, 72.692 187.650, 69.573 191.500 C 62.540 200.183, 58.497 208.456, 56.958 217.309 C 54.642 230.629, 59.035 246.078, 68.050 256.319 C 72.342 261.195, 74.863 262.075, 77.038 259.454 C 78.105 258.168, 77.958 257.452, 76.166 255.204 C 65.884 242.306, 63.634 236.246, 64.208 223 C 64.701 211.628, 66.938 206.250, 75.647 195.500 C 78.766 191.650, 82.922 185.130, 84.883 181.012 C 88.056 174.348, 88.492 172.447, 88.841 163.753 C 89.271 153.042, 88.197 147.187, 84.425 139.668 C 83.091 137.010, 82 134.702, 82 134.539 C 82 133.418, 92.924 136.858, 99.820 140.152 C 109.977 145.002, 119.913 154.326, 125.340 164.101 C 129.365 171.350, 133 183.919, 133 190.589 C 133 194.479, 134.839 198, 136.871 198 C 140.482 198, 141.008 188.263, 138.028 176.609 C 134.978 164.686, 129.782 155.740, 120.457 146.361 C 113.703 139.568, 110.806 137.478, 102.933 133.719 C 97.745 131.242, 91.475 128.743, 89 128.165 C 82.400 126.623, 70.232 126.016, 64.500 126.944 M 223.531 127.056 C 195.437 131.418, 173.313 152.439, 167.589 180.208 C 165.542 190.139, 165.210 258.810, 167.200 260.800 C 168.109 261.709, 184.217 262, 233.578 262 C 289.398 262, 298.928 261.791, 299.963 260.545 C 300.875 259.446, 301.070 250.085, 300.759 222.295 C 300.303 181.586, 299.741 177.345, 292.982 163.615 C 280.499 138.258, 251.089 122.777, 223.531 127.056 M 218.072 135.532 C 215.086 136.367, 209.686 138.482, 206.072 140.232 C 197.063 144.594, 184.497 157.095, 180.125 166.045 C 173.986 178.611, 173.776 180.227, 173.270 218.750 L 172.807 254 233.505 254 L 294.203 254 293.723 221.250 C 293.191 184.884, 292.525 179.824, 286.657 167.529 C 282.020 157.811, 275.346 150.045, 266.617 144.206 C 255.830 136.992, 248.918 134.846, 235 134.390 C 226.770 134.121, 221.957 134.445, 218.072 135.532 " stroke="none" fill="black" fill-rule="evenodd"/>
</svg>