<svg xmlns="http://www.w3.org/2000/svg" width="244" height="324" viewBox="0 0 244 324" version="1.1">
	<path d="M 131.045 127.055 C 116.450 130.037, 104.580 142.490, 102.500 157 C 101.777 162.039, 104.411 176.318, 108.033 187 C 117.911 216.129, 138.389 241.942, 163.930 257.458 C 169.332 260.739, 170.305 261.029, 171.948 259.846 C 172.976 259.106, 177.544 255.842, 182.099 252.594 C 209.116 233.327, 228.376 203.350, 234.842 170.500 C 237.013 159.468, 236.261 153.146, 231.776 144.731 C 219.390 121.493, 186.192 120.335, 172.014 142.647 L 169.379 146.793 166.535 142.298 C 159.386 130.997, 144.031 124.402, 131.045 127.055 M 127.627 135.468 C 118.721 138.643, 111.076 148.151, 110.214 157.125 C 108.859 171.228, 117.428 196.273, 130.186 215.500 C 136.714 225.337, 152.031 240.834, 161.744 247.427 C 170.077 253.084, 169.114 253.224, 180.549 244.688 C 193.297 235.173, 204.169 223.018, 212.789 208.646 C 221.520 194.089, 228.148 174.024, 228.363 161.500 C 228.485 154.347, 228.182 152.924, 225.500 148.061 C 222.429 142.492, 216.651 137.526, 210.684 135.326 C 206.654 133.840, 197.625 133.699, 192.775 135.046 C 183.747 137.553, 175.676 147.203, 174.001 157.492 C 172.915 164.168, 171.212 166.519, 168.163 165.552 C 165.920 164.840, 165.477 163.789, 164.560 156.995 C 163.285 147.558, 155.516 138.368, 146.101 135.159 C 141.559 133.611, 132.409 133.764, 127.627 135.468 M 7.571 191.571 C 6.707 192.436, 6 193.529, 6 194 C 6 194.471, 6.707 195.564, 7.571 196.429 C 8.936 197.793, 13.456 198, 41.916 198 C 73.420 198, 74.760 197.922, 76.500 196 C 78.247 194.070, 78.247 193.930, 76.500 192 C 74.760 190.078, 73.420 190, 41.916 190 C 13.456 190, 8.936 190.207, 7.571 191.571 " stroke="none" fill="black" fill-rule="evenodd"/>
</svg>