<svg xmlns="http://www.w3.org/2000/svg" width="564" height="324" viewBox="0 0 564 324" version="1.1">
	<path d="M 214.130 127.544 C 207.685 132.968, 201.969 145.014, 200.593 156.075 C 199.232 167.022, 203.039 180.627, 210.041 189.835 L 214.098 195.171 213.997 226.335 C 213.941 243.476, 213.919 258.047, 213.948 258.715 C 214.020 260.389, 217.523 262.120, 219.389 261.404 C 220.233 261.080, 221.228 259.856, 221.600 258.684 C 221.972 257.511, 223.777 254.290, 225.610 251.526 C 231.131 243.200, 233.237 235.875, 233.237 225 C 233.237 214.052, 231.130 206.799, 225.471 198.265 L 222 193.031 222 161.450 C 222 142.910, 221.599 129.118, 221.028 128.052 C 219.442 125.090, 217.240 124.928, 214.130 127.544 M 71.259 191.259 C 35.366 227.151, 6 257.044, 6 257.687 C 6 259.194, 8.799 262, 10.302 262 C 10.940 262, 39.033 234.442, 72.731 200.761 L 134 139.522 134 164.761 L 134 190 119.571 190 C 107.788 190, 104.855 190.288, 103.571 191.571 C 102.207 192.936, 102 197.463, 102 226 C 102 254.537, 102.207 259.064, 103.571 260.429 C 104.936 261.793, 109.463 262, 138 262 C 166.537 262, 171.064 261.793, 172.429 260.429 C 173.793 259.064, 174 254.537, 174 226 C 174 197.463, 173.793 192.936, 172.429 191.571 C 171.145 190.288, 168.212 190, 156.429 190 L 142 190 142 159.571 C 142 133.242, 141.788 128.931, 140.429 127.571 C 139.564 126.707, 138.331 126, 137.687 126 C 137.044 126, 107.151 155.366, 71.259 191.259 M 391.571 127.571 C 390.219 128.924, 390 132.988, 390 156.774 L 390 184.405 376.667 171.202 C 369.334 163.941, 362.841 158, 362.239 158 C 361.636 158, 360.436 158.707, 359.571 159.571 C 358.707 160.436, 358 161.636, 358 162.239 C 358 162.841, 363.941 169.334, 371.202 176.667 L 384.405 190 324.774 190 C 271.897 190, 264.965 190.178, 263.571 191.571 C 261.598 193.545, 261.598 194.455, 263.571 196.429 C 264.965 197.822, 271.897 198, 324.774 198 L 384.405 198 371.202 211.333 C 363.941 218.666, 358 225.159, 358 225.761 C 358 227.178, 360.822 230, 362.239 230 C 362.841 230, 369.334 224.059, 376.667 216.798 L 390 203.595 390 231.226 C 390 255.012, 390.219 259.076, 391.571 260.429 C 392.436 261.293, 393.529 262, 394 262 C 394.471 262, 395.564 261.293, 396.429 260.429 C 397.825 259.032, 398 251.628, 398 194 C 398 136.372, 397.825 128.968, 396.429 127.571 C 395.564 126.707, 394.471 126, 394 126 C 393.529 126, 392.436 126.707, 391.571 127.571 M 450.344 126.991 C 436.860 129.822, 425.472 141.668, 422.910 155.531 C 422.025 160.316, 422.199 162.816, 424.003 171.241 C 429.819 198.405, 440.767 218.724, 460 238.051 C 469.663 247.762, 487.288 261, 490.553 261 C 491.214 261, 492.318 260.322, 493.005 259.494 C 493.693 258.666, 497.910 255.434, 502.378 252.312 C 524.614 236.775, 543.097 211.492, 551.309 185.381 C 555.733 171.313, 557.249 161.800, 556.077 155.460 C 553.973 144.076, 546.150 134.253, 535.175 129.216 C 527.165 125.539, 515.888 125.515, 507.954 129.157 C 501.265 132.227, 495.573 137.047, 492.005 142.662 L 489.360 146.824 487.503 143.377 C 484.873 138.492, 477.737 132.223, 471.675 129.472 C 465.777 126.794, 456.450 125.710, 450.344 126.991 M 447 135.824 C 440.840 138.118, 433.750 145.350, 431.667 151.463 C 429.533 157.727, 429.591 162.461, 431.930 173 C 438.408 202.194, 457.033 230.021, 481.341 246.825 C 490.132 252.902, 489.092 253.039, 500.866 244.266 C 524.377 226.749, 541.396 200.015, 547.495 171.022 C 550.370 157.357, 548.735 149.941, 541.125 142.128 C 533.539 134.341, 522.363 131.932, 511.500 135.745 C 501.948 139.098, 494 149.935, 494 159.607 C 494 162.970, 491.867 166, 489.500 166 C 487.133 166, 485 162.970, 485 159.607 C 485 150.076, 476.798 138.823, 467.556 135.674 C 461.402 133.577, 452.864 133.639, 447 135.824 M 210.877 145.250 C 208.869 149.699, 208.507 152.103, 208.504 161 C 208.500 170.338, 208.795 172.109, 211.167 177 L 213.833 182.500 213.917 161.250 C 213.962 149.563, 213.830 140, 213.623 140 C 213.416 140, 212.180 142.363, 210.877 145.250 M 110 226 L 110 254 138 254 L 166 254 166 226 L 166 198 138 198 L 110 198 110 226 M 222.163 225 C 222.163 242.010, 222.209 242.402, 223.813 239 C 225.019 236.441, 225.463 232.676, 225.463 225 C 225.463 217.324, 225.019 213.559, 223.813 211 C 222.209 207.598, 222.163 207.990, 222.163 225 " stroke="none" fill="black" fill-rule="evenodd"/>
</svg>