<svg xmlns="http://www.w3.org/2000/svg" width="340" height="324" viewBox="0 0 340 324" version="1.1">
	<path d="M 7.571 63.571 C 5.243 65.900, 5.243 98.100, 7.571 100.429 C 9.900 102.757, 42.100 102.757, 44.429 100.429 C 46.757 98.100, 46.757 65.900, 44.429 63.571 C 42.100 61.243, 9.900 61.243, 7.571 63.571 M 14 82 L 14 94 26 94 L 38 94 38 82 L 38 70 26 70 L 14 70 14 82 M 71.571 127.571 C 70.175 128.968, 70 136.372, 70 194 C 70 251.628, 70.175 259.032, 71.571 260.429 C 72.436 261.293, 73.529 262, 74 262 C 74.471 262, 75.564 261.293, 76.429 260.429 C 77.825 259.032, 78 251.628, 78 194 C 78 136.372, 77.825 128.968, 76.429 127.571 C 75.564 126.707, 74.471 126, 74 126 C 73.529 126, 72.436 126.707, 71.571 127.571 M 199.571 127.571 C 198.175 128.968, 198 136.372, 198 194 C 198 251.628, 198.175 259.032, 199.571 260.429 C 201.678 262.535, 202.598 262.412, 204.443 259.777 C 205.813 257.823, 206 249.904, 206 194 C 206 138.096, 205.813 130.177, 204.443 128.223 C 202.598 125.588, 201.678 125.465, 199.571 127.571 M 290.344 126.988 C 277.296 129.738, 266.387 140.636, 262.927 154.377 C 261.912 158.408, 261.425 159, 259.131 159.001 C 254.893 159.002, 244.844 164.410, 240.301 169.134 C 230.366 179.464, 227.577 194.928, 233.361 207.610 C 236.861 215.285, 243.689 222.075, 251.480 225.629 C 259.387 229.236, 269.732 229.409, 278.297 226.077 C 285.360 223.328, 293.577 215.626, 297.046 208.500 C 300.231 201.957, 300.965 189.383, 298.575 182.310 C 295.047 171.865, 286.163 163.248, 275.778 160.197 C 268.972 158.197, 268.652 157.097, 272.588 149.199 C 277.394 139.554, 286.677 133.990, 297.928 134.010 C 310.933 134.033, 322.865 144.437, 324.626 157.291 C 325.699 165.114, 319.837 187.405, 313.264 200.500 C 304.344 218.269, 287.179 237.562, 270.189 248.913 C 260.753 255.217, 259.536 257.049, 263.237 259.379 C 265.354 260.713, 270.746 257.990, 280.796 250.512 C 305.622 232.040, 323.260 204.440, 330.382 172.924 C 332.339 164.261, 332.600 161.380, 331.856 156.639 C 329.247 139.999, 316.431 128.001, 299.729 126.562 C 296.853 126.314, 292.630 126.506, 290.344 126.988 M 135.571 159.571 C 134.288 160.855, 134 163.788, 134 175.571 L 134 190 119.571 190 C 107.788 190, 104.855 190.288, 103.571 191.571 C 101.598 193.545, 101.598 194.455, 103.571 196.429 C 104.855 197.712, 107.788 198, 119.571 198 L 134 198 134 212.429 C 134 224.212, 134.288 227.145, 135.571 228.429 C 137.545 230.402, 138.455 230.402, 140.429 228.429 C 141.712 227.145, 142 224.212, 142 212.429 L 142 198 156.429 198 C 168.212 198, 171.145 197.712, 172.429 196.429 C 174.402 194.455, 174.402 193.545, 172.429 191.571 C 171.145 190.288, 168.212 190, 156.429 190 L 142 190 142 175.571 C 142 163.788, 141.712 160.855, 140.429 159.571 C 139.564 158.707, 138.471 158, 138 158 C 137.529 158, 136.436 158.707, 135.571 159.571 M 255.385 167.617 C 240.729 172.815, 233.477 191.530, 240.588 205.801 C 243.700 212.046, 249.591 217.332, 255.795 219.446 C 274.062 225.670, 292.989 212.467, 292.989 193.500 C 292.989 178.471, 280.451 165.890, 265.663 166.079 C 262.273 166.122, 257.648 166.815, 255.385 167.617 M 15.308 199.308 C 10.188 204.427, 6 209.120, 6 209.736 C 6 211.121, 8.789 214, 10.131 214 C 10.675 214, 13.568 211.685, 16.560 208.855 L 22 203.710 22 228.855 L 22 254 15.571 254 C 11.061 254, 8.674 254.469, 7.571 255.571 C 5.598 257.545, 5.598 258.455, 7.571 260.429 C 9.900 262.757, 42.100 262.757, 44.429 260.429 C 46.402 258.455, 46.402 257.545, 44.429 255.571 C 43.326 254.469, 40.939 254, 36.429 254 L 30 254 30 223.571 C 30 197.242, 29.788 192.931, 28.429 191.571 C 27.564 190.707, 26.353 190, 25.736 190 C 25.120 190, 20.427 194.188, 15.308 199.308 " stroke="none" fill="black" fill-rule="evenodd"/>
</svg>