<svg xmlns="http://www.w3.org/2000/svg" width="500" height="324" viewBox="0 0 500 324" version="1.1">
	<path d="M 103.627 127.515 C 101.597 129.546, 101.587 130.444, 103.571 132.429 C 104.538 133.395, 106.888 134, 109.677 134 C 127.791 134, 149.739 148.457, 158.330 166.046 C 163.109 175.832, 165 183.615, 165 193.500 C 165 209.644, 158.996 224.120, 147.595 235.469 C 135.617 247.392, 122.134 252.955, 105.144 252.985 C 82.438 253.025, 61.687 240.092, 52.027 219.878 C 49.825 215.270, 47.733 209.925, 47.379 208 C 46.769 204.687, 47.429 205.182, 59.703 217.250 C 66.836 224.262, 73.141 230, 73.713 230 C 75.591 230, 77.235 227.072, 76.654 224.763 C 75.960 222.006, 43.957 190, 41.894 190 C 40.204 190, 6 224.061, 6 225.743 C 6 227.176, 8.814 230, 10.241 230 C 10.845 230, 17.501 223.895, 25.032 216.433 L 38.723 202.866 40.419 209.683 C 43.501 222.077, 48.431 230.509, 58.461 240.539 C 72.477 254.554, 86.088 260.261, 105.500 260.261 C 124.252 260.261, 138.934 254.106, 152.584 240.521 C 165.867 227.301, 172 212.448, 172 193.500 C 172 181.317, 170.346 174.289, 164.824 163.012 C 157.033 147.102, 139.554 132.923, 122.500 128.680 C 111.983 126.063, 105.481 125.661, 103.627 127.515 M 415.536 127.066 C 371.198 133.872, 345.298 181.640, 364.350 221.471 C 374.748 243.210, 392.849 256.485, 417 260.083 C 425.851 261.401, 424.628 261.408, 433.908 259.987 C 449.023 257.672, 461.340 251.531, 471.987 241 C 496.380 216.874, 498.712 178.797, 477.456 151.715 C 463.383 133.784, 437.887 123.635, 415.536 127.066 M 410 135.583 C 389.739 140.928, 373.608 156.816, 367.386 177.552 C 364.771 186.269, 364.935 201.440, 367.742 210.500 C 374.650 232.797, 394.739 250.050, 416.839 252.667 L 422 253.279 422 193.639 L 422 134 418.750 134.066 C 416.962 134.102, 413.025 134.785, 410 135.583 M 429 193.500 L 429 253.272 433.750 252.627 C 452.326 250.106, 469.694 237.542, 478.055 220.577 C 486.849 202.735, 487.049 185.112, 478.657 167.529 C 470.224 149.857, 452.742 136.950, 433.750 134.373 L 429 133.728 429 193.500 M 225.500 175.004 C 219.779 175.889, 210.755 179.157, 206.822 181.768 C 202.477 184.652, 196 190.980, 196 192.340 C 196 193.953, 198.036 196, 199.639 196 C 200.321 196, 203.043 194.126, 205.689 191.835 C 208.335 189.545, 212.975 186.515, 216 185.102 C 220.848 182.838, 222.804 182.532, 232.500 182.517 C 242.756 182.501, 243.944 182.711, 250.072 185.614 C 254.471 187.699, 258.768 190.877, 263.072 195.230 C 274.180 206.466, 287.913 211.135, 303.410 208.946 C 315.587 207.226, 332.526 197.558, 331.805 192.740 C 331.167 188.483, 328.492 188.356, 323.618 192.350 C 321.113 194.402, 316.462 197.300, 313.282 198.791 C 308.145 201.198, 306.328 201.500, 297 201.499 C 283.044 201.498, 277.373 199.305, 268.708 190.559 C 265.294 187.113, 260.623 183.119, 258.329 181.684 C 249.543 176.188, 235.851 173.402, 225.500 175.004 " stroke="none" fill="black" fill-rule="evenodd"/>
</svg>