<svg xmlns="http://www.w3.org/2000/svg" width="244" height="324" viewBox="0 0 244 324" version="1.1">
	<path d="M 7.571 127.571 C 6.707 128.436, 6 129.657, 6 130.285 C 6 130.913, 20.053 145.506, 37.229 162.713 L 68.458 194 37.229 225.287 C 20.053 242.494, 6 257.087, 6 257.715 C 6 258.343, 6.707 259.564, 7.571 260.429 C 8.936 261.793, 13.463 262, 42 262 C 70.537 262, 75.064 261.793, 76.429 260.429 C 77.825 259.032, 78 251.628, 78 194 C 78 136.372, 77.825 128.968, 76.429 127.571 C 75.064 126.207, 70.537 126, 42 126 C 13.463 126, 8.936 126.207, 7.571 127.571 M 44.500 159 C 58.242 172.750, 69.601 184, 69.742 184 C 69.884 184, 70 172.750, 70 159 L 70 134 44.758 134 L 19.515 134 44.500 159 M 103.200 191.200 C 102.540 191.860, 102 192.720, 102 193.110 C 102 194.563, 134.896 260.818, 135.936 261.460 C 138.868 263.273, 141.128 259.774, 155.125 231.762 L 169.744 202.502 184.334 231.669 C 192.359 247.710, 199.395 261.126, 199.971 261.482 C 202.896 263.290, 205.237 259.553, 221.251 227.508 C 230.463 209.074, 238 193.801, 238 193.568 C 238 193.334, 237.293 192.436, 236.429 191.571 C 235.032 190.175, 227.594 190, 169.629 190 C 120.229 190, 104.109 190.291, 103.200 191.200 M 124.608 223.250 C 131.546 237.137, 137.371 248.661, 137.553 248.859 C 137.878 249.211, 163 199.502, 163 198.508 C 163 198.228, 151.523 198, 137.496 198 L 111.992 198 124.608 223.250 M 188.608 223.250 C 195.546 237.137, 201.371 248.661, 201.553 248.859 C 201.878 249.211, 227 199.502, 227 198.508 C 227 198.228, 215.523 198, 201.496 198 L 175.992 198 188.608 223.250 M 44.500 229 L 19.515 254 44.758 254 L 70 254 70 229 C 70 215.250, 69.884 204, 69.742 204 C 69.601 204, 58.242 215.250, 44.500 229 " stroke="none" fill="black" fill-rule="evenodd"/>
</svg>