<svg xmlns="http://www.w3.org/2000/svg" width="180" height="324" viewBox="0 0 180 324" version="1.1">
	<path d="M 167.571 127.571 C 166.707 128.436, 166 129.529, 166 130 C 166 130.471, 166.707 131.564, 167.571 132.429 C 168.436 133.293, 169.529 134, 170 134 C 170.471 134, 171.564 133.293, 172.429 132.429 C 173.293 131.564, 174 130.471, 174 130 C 174 129.529, 173.293 128.436, 172.429 127.571 C 171.564 126.707, 170.471 126, 170 126 C 169.529 126, 168.436 126.707, 167.571 127.571 M 167.571 159.571 C 166.207 160.936, 166 165.463, 166 194 C 166 222.537, 166.207 227.064, 167.571 228.429 C 169.545 230.402, 170.455 230.402, 172.429 228.429 C 173.793 227.064, 174 222.537, 174 194 C 174 165.463, 173.793 160.936, 172.429 159.571 C 171.564 158.707, 170.471 158, 170 158 C 169.529 158, 168.436 158.707, 167.571 159.571 M 7.571 191.571 C 6.707 192.436, 6 193.529, 6 194 C 6 194.471, 6.707 195.564, 7.571 196.429 C 8.934 197.791, 13.354 198, 40.801 198 L 72.460 198 104.515 230 C 122.146 247.600, 137.086 262, 137.714 262 C 139.192 262, 142 259.191, 142 257.713 C 142 257.084, 127.047 241.591, 108.770 223.285 L 75.540 190 42.341 190 C 13.494 190, 8.937 190.206, 7.571 191.571 M 167.571 255.571 C 166.707 256.436, 166 257.529, 166 258 C 166 259.111, 168.889 262, 170 262 C 171.111 262, 174 259.111, 174 258 C 174 256.889, 171.111 254, 170 254 C 169.529 254, 168.436 254.707, 167.571 255.571 " stroke="none" fill="black" fill-rule="evenodd"/>
</svg>