<svg xmlns="http://www.w3.org/2000/svg" width="84" height="324" viewBox="0 0 84 324" version="1.1">
	<path d="M 7.571 127.571 C 6.175 128.968, 6 136.372, 6 194 C 6 251.628, 6.175 259.032, 7.571 260.429 C 8.436 261.293, 9.529 262, 10 262 C 10.471 262, 11.564 261.293, 12.429 260.429 C 13.825 259.032, 14 251.628, 14 194 C 14 136.372, 13.825 128.968, 12.429 127.571 C 11.564 126.707, 10.471 126, 10 126 C 9.529 126, 8.436 126.707, 7.571 127.571 M 39.571 127.571 C 38.175 128.968, 38 136.372, 38 194 C 38 251.628, 38.175 259.032, 39.571 260.429 C 40.436 261.293, 41.529 262, 42 262 C 42.471 262, 43.564 261.293, 44.429 260.429 C 45.825 259.032, 46 251.628, 46 194 C 46 136.372, 45.825 128.968, 44.429 127.571 C 43.564 126.707, 42.471 126, 42 126 C 41.529 126, 40.436 126.707, 39.571 127.571 M 71.571 191.571 C 70.707 192.436, 70 193.529, 70 194 C 70 194.471, 70.707 195.564, 71.571 196.429 C 72.436 197.293, 73.529 198, 74 198 C 74.471 198, 75.564 197.293, 76.429 196.429 C 77.293 195.564, 78 194.471, 78 194 C 78 193.529, 77.293 192.436, 76.429 191.571 C 75.564 190.707, 74.471 190, 74 190 C 73.529 190, 72.436 190.707, 71.571 191.571 " stroke="none" fill="black" fill-rule="evenodd"/>
</svg>