<svg xmlns="http://www.w3.org/2000/svg" width="308" height="324" viewBox="0 0 308 324" version="1.1">
	<path d="M 7.571 157.571 C 6.207 158.936, 6 163.463, 6 192 C 6 220.537, 6.207 225.064, 7.571 226.429 C 8.436 227.293, 9.636 228, 10.239 228 C 10.841 228, 17.334 222.059, 24.667 214.798 L 38 201.595 38 213.598 C 38 221.599, 38.400 226, 39.200 226.800 C 40.085 227.685, 49.117 228, 73.629 228 C 102.503 228, 107.063 227.794, 108.429 226.429 C 109.678 225.180, 110 222.463, 110 213.192 L 110 201.528 123.372 214.872 C 134.492 225.970, 137.102 228.102, 138.872 227.541 C 140.042 227.169, 141.010 226.446, 141.021 225.933 C 141.033 225.420, 141.042 210.150, 141.042 192 C 141.042 173.850, 141.033 158.580, 141.021 158.067 C 141.010 157.554, 140.042 156.831, 138.872 156.459 C 137.102 155.898, 134.492 158.030, 123.372 169.128 L 110 182.472 110 170.808 C 110 161.537, 109.678 158.820, 108.429 157.571 C 107.063 156.206, 102.503 156, 73.629 156 C 49.117 156, 40.085 156.315, 39.200 157.200 C 38.400 158, 38 162.401, 38 170.402 L 38 182.405 24.667 169.202 C 17.334 161.941, 10.841 156, 10.239 156 C 9.636 156, 8.436 156.707, 7.571 157.571 M 46 192 L 46 220 74 220 L 102 220 102 192 L 102 164 74 164 L 46 164 46 192 M 14 192 L 14 214.489 25.244 203.244 L 36.489 192 25.244 180.756 L 14 169.511 14 192 M 122.494 181.006 L 111.523 192.012 122.761 203.250 L 134 214.489 134 192.244 C 134 180.010, 133.880 170, 133.733 170 C 133.586 170, 128.529 174.953, 122.494 181.006 M 167.750 253.076 C 165.422 254.437, 165.524 257.675, 167.934 258.965 C 169.142 259.611, 180.966 260, 199.434 260 C 215.695 260, 229 260.378, 229 260.840 C 229 263.852, 224.639 277.772, 222.152 282.699 C 213.268 300.299, 195.036 312.931, 176 314.678 C 168.315 315.384, 166 316.384, 166 319 C 166 321.922, 169.313 323.152, 175.249 322.433 C 195.342 320.001, 212.363 310.160, 223.520 294.525 C 225.986 291.069, 229.135 285.682, 230.519 282.553 L 233.034 276.865 237.598 285.982 C 247.919 306.599, 269.935 321.257, 291.985 322.193 C 298.005 322.448, 299.421 322.204, 300.360 320.750 C 302.610 317.266, 300.027 315.562, 291.395 314.836 C 276.882 313.615, 264.037 307.191, 253.500 295.885 C 244.564 286.297, 238 272.287, 238 262.804 L 238 260.029 268.641 259.764 C 296.566 259.523, 299.381 259.345, 300.386 257.750 C 301.191 256.474, 301.191 255.526, 300.386 254.250 C 299.356 252.616, 294.963 252.485, 234.391 252.276 C 191.547 252.129, 168.905 252.400, 167.750 253.076 " stroke="none" fill="black" fill-rule="evenodd"/>
</svg>