<svg xmlns="http://www.w3.org/2000/svg" width="403" height="324" viewBox="0 0 403 324" version="1.1">
	<path d="M 39.267 159.267 C 20.970 177.563, 6 193.056, 6 193.695 C 6 195.187, 8.799 198, 10.285 198 C 10.913 198, 25.506 183.947, 42.713 166.771 L 74 135.542 105.287 166.771 C 122.494 183.947, 137.029 198, 137.587 198 C 139.146 198, 141 195.789, 141 193.928 C 141 191.827, 76.035 125.909, 74.017 125.961 C 73.201 125.983, 57.563 140.970, 39.267 159.267 M 167.571 127.571 C 166.175 128.968, 166 136.406, 166 194.371 C 166 243.771, 166.291 259.891, 167.200 260.800 C 168.935 262.535, 298.065 262.535, 299.800 260.800 C 300.709 259.891, 301 243.672, 301 193.922 C 301 123.146, 301.084 124.279, 296.064 126.966 C 294.307 127.906, 294 129.027, 294 134.509 L 294 140.947 289.724 136.671 C 278.983 125.930, 262.162 123.433, 248.958 130.619 C 244.250 133.182, 236.901 140.065, 234.125 144.511 C 233.323 145.796, 232.706 146.081, 232.380 145.315 C 230.913 141.863, 225.570 135.800, 221.568 133.047 C 214.801 128.391, 209.470 126.768, 200.880 126.750 C 191.686 126.731, 184.614 129.550, 177.575 136.038 L 173 140.255 173 134.327 C 173 126.771, 170.938 124.205, 167.571 127.571 M 354.355 126.998 C 343.967 129.158, 334.148 136.927, 329.281 146.836 C 326.865 151.756, 326.500 153.681, 326.500 161.500 C 326.500 169.319, 326.865 171.244, 329.281 176.164 C 330.811 179.279, 333.901 183.666, 336.149 185.914 L 340.235 190 335.052 190 C 328.973 190, 326 191.314, 326 194 C 326 197.262, 329.308 198, 343.934 198 L 358 198 358 226 L 358 254 343.934 254 C 336.151 254, 329.005 254.462, 327.934 255.035 C 325.446 256.367, 325.446 259.633, 327.934 260.965 C 329.151 261.616, 341.608 262, 361.500 262 C 381.392 262, 393.849 261.616, 395.066 260.965 C 397.554 259.633, 397.554 256.367, 395.066 255.035 C 393.995 254.462, 386.849 254, 379.066 254 L 365 254 365 226 L 365 198 379.066 198 C 393.692 198, 397 197.262, 397 194 C 397 191.269, 394.006 190, 387.566 190 L 382 190 386.102 185.898 C 400.630 171.370, 398.637 145.712, 382.033 133.525 C 374.036 127.654, 363.336 125.131, 354.355 126.998 M 191.627 135.468 C 186.258 137.382, 181.040 141.826, 177.525 147.478 C 173.237 154.373, 172.931 162.519, 176.445 176.166 C 182.102 198.133, 192.933 217.088, 208.936 233.026 C 214.196 238.265, 221.753 244.750, 225.728 247.437 L 232.956 252.323 240.116 247.561 C 261.587 233.284, 279.813 208.751, 287.852 183.303 C 293.615 165.062, 293.999 156.700, 289.477 147.955 C 285.226 139.734, 275.167 134.013, 265 134.032 C 250.574 134.059, 239.738 143.976, 237.481 159.218 C 236.632 164.952, 234.900 166.731, 231.620 165.236 C 229.729 164.375, 229.194 163.165, 228.735 158.717 C 226.905 140.995, 208.490 129.457, 191.627 135.468 M 349.500 136.353 C 343.905 138.964, 337.611 145.362, 335.229 150.860 C 334.289 153.028, 333.652 157.331, 333.652 161.500 C 333.652 169.759, 335.289 174.097, 340.653 180.046 C 351.739 192.344, 370.708 192.091, 381.793 179.498 C 386.112 174.591, 389 167.380, 389 161.500 C 389 151.684, 381.789 140.673, 372.538 136.366 C 365.625 133.146, 356.382 133.141, 349.500 136.353 M 290.123 198.063 C 282.105 217.143, 266.282 237.307, 249.640 249.653 L 243.780 254 268.890 254 L 294 254 294 222 C 294 204.400, 293.887 190.006, 293.750 190.013 C 293.613 190.020, 291.980 193.643, 290.123 198.063 M 173.009 222.750 L 173 254 197.649 254 L 222.298 254 215.899 249.142 C 207.676 242.899, 195.694 230.315, 189.002 220.894 C 186.113 216.827, 181.335 208.550, 178.384 202.500 L 173.018 191.500 173.009 222.750 " stroke="none" fill="black" fill-rule="evenodd"/>
</svg>