<svg xmlns="http://www.w3.org/2000/svg" width="564" height="324" viewBox="0 0 564 324" version="1.1">
	<path d="M 264.369 126.765 C 263.746 127.169, 249.008 155.963, 231.617 190.750 L 199.997 254 184.570 254 C 171.879 254, 168.864 254.279, 167.571 255.571 C 165.598 257.545, 165.598 258.455, 167.571 260.429 C 168.936 261.793, 173.463 262, 202 262 C 230.537 262, 235.064 261.793, 236.429 260.429 C 238.402 258.455, 238.402 257.545, 236.429 255.571 C 235.156 254.299, 232.303 254, 221.427 254 L 207.997 254 238.998 192.003 C 256.049 157.905, 270 129.812, 270 129.575 C 270 128.872, 266.916 125.999, 266.179 126.015 C 265.805 126.024, 264.991 126.361, 264.369 126.765 M 322.873 126.888 C 316.674 128.182, 308.395 132.847, 304.180 137.421 C 299.025 143.013, 296.489 148.025, 295.010 155.544 C 293.953 160.916, 294.089 162.678, 296.323 172.519 C 302.158 198.221, 312.400 217.725, 329.681 236.045 C 333.266 239.846, 339.312 245.328, 343.116 248.227 L 350.032 253.500 322.978 254 C 300.398 254.417, 295.768 254.748, 294.978 256 C 293.681 258.054, 293.756 258.613, 295.571 260.429 C 296.968 261.825, 304.372 262, 362 262 C 419.628 262, 427.032 261.825, 428.429 260.429 C 430.244 258.613, 430.319 258.054, 429.022 256 C 428.231 254.747, 423.552 254.418, 400.564 254 L 373.053 253.500 380.138 248 C 399.253 233.163, 415.943 208.988, 423.286 185.500 C 427.885 170.789, 429.288 161.720, 427.967 155.238 C 425.595 143.595, 418.120 134.240, 407.175 129.216 C 399.256 125.581, 387.969 125.577, 379.946 129.205 C 373.273 132.223, 367.589 137.021, 364.005 142.662 L 361.360 146.824 359.503 143.377 C 356.873 138.492, 349.737 132.223, 343.675 129.472 C 337.980 126.886, 328.510 125.710, 322.873 126.888 M 319.054 135.728 C 316.517 136.623, 312.606 139.299, 309.948 141.957 C 303.771 148.133, 301.502 154.735, 302.365 164.020 C 303.753 178.951, 312.608 201.354, 323.185 216.693 C 330.082 226.695, 343.474 240.104, 353.282 246.829 L 361.055 252.158 365.520 249.541 C 376.326 243.208, 389.290 230.807, 399.180 217.342 C 410.596 201.799, 421 174.511, 421 160.113 C 421 145.916, 408.451 134, 393.500 134 C 378.803 134, 366 145.922, 366 159.607 C 366 162.970, 363.867 166, 361.500 166 C 359.133 166, 357 162.970, 357 159.607 C 357 149.949, 348.912 138.862, 339.537 135.667 C 333.516 133.616, 324.964 133.641, 319.054 135.728 M 455.571 159.571 C 454.227 160.916, 454 164.736, 454 186 C 454 207.264, 454.227 211.084, 455.571 212.429 C 456.436 213.293, 457.529 214, 458 214 C 458.471 214, 459.564 213.293, 460.429 212.429 C 461.773 211.084, 462 207.264, 462 186 C 462 164.736, 461.773 160.916, 460.429 159.571 C 459.564 158.707, 458.471 158, 458 158 C 457.529 158, 456.436 158.707, 455.571 159.571 M 487.571 159.571 C 486.227 160.916, 486 164.736, 486 186 C 486 207.264, 486.227 211.084, 487.571 212.429 C 488.436 213.293, 489.529 214, 490 214 C 490.471 214, 491.564 213.293, 492.429 212.429 C 493.773 211.084, 494 207.264, 494 186 C 494 164.736, 493.773 160.916, 492.429 159.571 C 491.564 158.707, 490.471 158, 490 158 C 489.529 158, 488.436 158.707, 487.571 159.571 M 519.571 159.571 C 518.227 160.916, 518 164.736, 518 186 C 518 207.264, 518.227 211.084, 519.571 212.429 C 520.436 213.293, 521.529 214, 522 214 C 522.471 214, 523.564 213.293, 524.429 212.429 C 525.773 211.084, 526 207.264, 526 186 C 526 164.736, 525.773 160.916, 524.429 159.571 C 523.564 158.707, 522.471 158, 522 158 C 521.529 158, 520.436 158.707, 519.571 159.571 M 39.267 223.267 C 20.970 241.563, 6 257.056, 6 257.695 C 6 259.187, 8.799 262, 10.285 262 C 10.913 262, 25.506 247.947, 42.713 230.771 L 74 199.542 105.287 230.771 C 122.494 247.947, 137.087 262, 137.715 262 C 138.343 262, 139.564 261.293, 140.429 260.429 C 141.793 259.064, 142 254.537, 142 226 C 142 197.463, 141.793 192.936, 140.429 191.571 C 138.455 189.598, 137.545 189.598, 135.571 191.571 C 134.219 192.924, 134 196.990, 134 220.799 L 134 248.455 104.711 219.227 C 88.602 203.152, 74.772 190, 73.978 190 C 73.183 190, 57.563 204.970, 39.267 223.267 M 455.571 222.571 C 454.707 223.436, 454 224.529, 454 225 C 454 226.111, 456.889 229, 458 229 C 459.111 229, 462 226.111, 462 225 C 462 223.889, 459.111 221, 458 221 C 457.529 221, 456.436 221.707, 455.571 222.571 M 487.571 222.571 C 486.707 223.436, 486 224.529, 486 225 C 486 226.111, 488.889 229, 490 229 C 491.111 229, 494 226.111, 494 225 C 494 223.889, 491.111 221, 490 221 C 489.529 221, 488.436 221.707, 487.571 222.571 M 519.571 222.571 C 518.707 223.436, 518 224.529, 518 225 C 518 226.111, 520.889 229, 522 229 C 523.111 229, 526 226.111, 526 225 C 526 223.889, 523.111 221, 522 221 C 521.529 221, 520.436 221.707, 519.571 222.571 " stroke="none" fill="black" fill-rule="evenodd"/>
</svg>