<svg xmlns="http://www.w3.org/2000/svg" width="84" height="324" viewBox="0 0 84 324" version="1.1">
	<path d="M 40.372 62.765 C 38.418 64.037, 22.003 97.844, 22.593 99.381 C 23.268 101.141, 25.513 102.124, 27.295 101.440 C 28.007 101.167, 31.480 95.106, 35.014 87.972 C 38.547 80.837, 41.691 75, 42 75 C 42.309 75, 45.453 80.837, 48.986 87.972 C 52.520 95.106, 55.993 101.167, 56.705 101.440 C 58.487 102.124, 60.732 101.141, 61.407 99.381 C 61.716 98.575, 58.096 90.173, 53.363 80.708 C 45.638 65.261, 43.672 62.031, 42 62.031 C 41.725 62.031, 40.992 62.361, 40.372 62.765 M 35.650 127.077 C 20.406 129.547, 8.781 142.032, 6.666 158.204 C 6.204 161.738, 6.436 163.293, 7.597 164.454 C 10.867 167.724, 13.130 165.470, 14.163 157.916 C 16.628 139.895, 33.851 129.641, 51.537 135.667 C 60.912 138.862, 69 149.949, 69 159.607 C 69 162.663, 71.088 166, 73 166 C 75.549 166, 76.931 162.769, 76.334 158.204 C 75.182 149.399, 72.043 142.883, 66.080 136.920 C 57.910 128.750, 47.035 125.232, 35.650 127.077 " stroke="none" fill="black" fill-rule="evenodd"/>
</svg>