<svg xmlns="http://www.w3.org/2000/svg" width="403" height="324" viewBox="0 0 403 324" version="1.1">
	<path d="M 131.045 127.055 C 116.450 130.037, 104.580 142.490, 102.500 157 C 101.777 162.039, 104.411 176.318, 108.033 187 C 117.911 216.129, 138.389 241.942, 163.930 257.458 C 169.330 260.738, 170.305 261.028, 171.943 259.846 C 172.969 259.106, 176.843 256.331, 180.551 253.681 C 208.537 233.679, 226.834 206.434, 234.062 174 C 236.511 163.012, 236.485 156.372, 233.968 149.643 C 228.477 134.968, 216.647 126.783, 200.880 126.750 C 194.817 126.738, 192.125 127.254, 187.705 129.278 C 181.267 132.225, 173.602 138.920, 171.114 143.769 L 169.385 147.139 166.279 142.142 C 159.350 130.995, 143.978 124.413, 131.045 127.055 M 319.531 127.067 C 291.457 131.375, 269.159 152.546, 263.560 180.208 C 261.339 191.182, 261.487 195.655, 264.117 197.062 C 267.374 198.806, 268.575 196.650, 269.916 186.650 C 271.337 176.055, 273.757 169.222, 278.872 161.354 C 286.233 150.032, 297.595 141.036, 309.907 136.779 C 319.554 133.444, 338.553 133.482, 348.326 136.857 C 357.442 140.004, 368.960 147.864, 374.660 154.828 C 382.771 164.737, 388.929 180.812, 388.983 192.215 C 389.002 196.428, 391.359 198.498, 394.276 196.866 C 398.091 194.731, 395.123 176.088, 388.982 163.615 C 376.508 138.277, 347.150 122.828, 319.531 127.067 M 127.627 135.468 C 122.265 137.380, 117.042 141.824, 113.541 147.453 C 109.463 154.009, 109.011 161.878, 112 174.253 C 119.260 204.307, 137.286 230.669, 162.244 247.734 C 170.005 253.040, 169.200 253.171, 180.395 244.787 C 204.137 227.007, 220.548 201.296, 227.173 171.500 C 229.445 161.281, 229.149 155.173, 226.094 149.184 C 221.285 139.758, 211.769 134.012, 201 134.032 C 186.843 134.058, 176.310 143.309, 173.953 157.786 C 172.912 164.183, 171.178 166.509, 168.163 165.552 C 165.920 164.840, 165.477 163.789, 164.560 156.995 C 163.285 147.558, 155.516 138.368, 146.101 135.159 C 141.559 133.611, 132.409 133.764, 127.627 135.468 M 33.972 159.329 C 15.722 163.358, 3.782 181.175, 7.077 199.463 C 12.109 227.389, 46.059 238.101, 66.080 218.080 C 79.810 204.350, 79.810 182.650, 66.080 168.920 C 57.484 160.324, 45.578 156.767, 33.972 159.329 M 327.724 159.134 C 326.161 160.009, 326 162.521, 326 186.015 C 326 209.816, 326.145 212.007, 327.776 212.880 C 328.902 213.483, 330.182 213.478, 331.276 212.866 C 332.839 211.991, 333 209.479, 333 185.985 C 333 162.184, 332.855 159.993, 331.224 159.120 C 330.098 158.517, 328.818 158.522, 327.724 159.134 M 31.627 167.468 C 26.247 169.386, 21.039 173.829, 17.500 179.519 C 14.741 183.955, 14.500 185.073, 14.500 193.422 C 14.500 201.524, 14.796 203.003, 17.249 207.176 C 26.333 222.630, 48.188 225.876, 60.453 213.594 C 66.733 207.306, 68.500 202.893, 68.500 193.500 C 68.500 184.107, 66.733 179.694, 60.453 173.406 C 53.664 166.608, 41.228 164.046, 31.627 167.468 M 327.724 222.134 C 323.838 224.309, 327.294 229.983, 331.224 227.880 C 332.201 227.357, 333 226.061, 333 225 C 333 222.485, 330.005 220.858, 327.724 222.134 M 7.585 255.558 C 6.713 256.430, 6 257.529, 6 258 C 6 258.471, 6.713 259.570, 7.585 260.442 C 8.978 261.835, 13.159 261.995, 42.226 261.763 C 72.452 261.523, 75.377 261.350, 76.386 259.750 C 77.191 258.474, 77.191 257.526, 76.386 256.250 C 75.377 254.650, 72.452 254.477, 42.226 254.237 C 13.159 254.005, 8.978 254.165, 7.585 255.558 " stroke="none" fill="black" fill-rule="evenodd"/>
</svg>