<svg xmlns="http://www.w3.org/2000/svg" width="564" height="324" viewBox="0 0 564 324" version="1.1">
	<path d="M 61.500 127.401 C 46.645 130.266, 35.144 136.774, 24.168 148.528 C 13.839 159.588, 8.206 172.225, 6.499 188.168 C 5.924 193.530, 6.094 194.951, 7.473 196.330 C 9.547 198.404, 10.435 198.422, 12.429 196.429 C 13.379 195.478, 14 193.126, 14 190.478 C 14 170.749, 28.156 149.193, 47 140.225 C 54.839 136.495, 63.274 134, 68.049 134 C 69.962 134, 70 135.171, 70 194 L 70 254 55.571 254 C 43.788 254, 40.855 254.288, 39.571 255.571 C 37.598 257.545, 37.598 258.455, 39.571 260.429 C 40.936 261.793, 45.463 262, 74 262 C 102.537 262, 107.064 261.793, 108.429 260.429 C 110.402 258.455, 110.402 257.545, 108.429 255.571 C 107.145 254.288, 104.212 254, 92.429 254 L 78 254 78 194 C 78 142.238, 78.199 134, 79.451 134 C 83.741 134, 92.484 136.649, 100 140.225 C 118.621 149.087, 133 170.836, 133 190.139 C 133 198.197, 132.216 198, 164.274 198 L 192.405 198 179.202 211.333 C 171.941 218.666, 166 225.159, 166 225.761 C 166 227.187, 168.825 230, 170.257 230 C 172.006 230, 206 195.761, 206 194 C 206 192.239, 172.006 158, 170.257 158 C 168.825 158, 166 160.813, 166 162.239 C 166 162.841, 171.949 169.342, 179.219 176.684 L 192.439 190.035 166.470 189.767 L 140.502 189.500 139.713 183.102 C 136.685 158.555, 115.450 135.008, 90.500 128.533 C 81.877 126.295, 69.699 125.820, 61.500 127.401 M 285.500 127.401 C 270.645 130.266, 259.144 136.774, 248.168 148.528 C 237.839 159.588, 232.206 172.225, 230.499 188.168 C 229.392 198.503, 227.701 198, 263.571 198 L 294 198 294 228.429 C 294 254.758, 294.212 259.069, 295.571 260.429 C 296.436 261.293, 297.529 262, 298 262 C 298.471 262, 299.564 261.293, 300.429 260.429 C 301.788 259.069, 302 254.758, 302 228.429 L 302 198 327.202 198 L 352.405 198 339.202 211.333 C 331.941 218.666, 326 225.159, 326 225.761 C 326 227.187, 328.825 230, 330.257 230 C 330.869 230, 339.188 222.238, 348.743 212.750 C 363.965 197.637, 366.046 195.190, 365.544 193 C 365.230 191.625, 364.492 187.350, 363.904 183.500 C 361.587 168.324, 354.591 155.485, 342.472 144.168 C 327.247 129.949, 305.491 123.546, 285.500 127.401 M 487.571 127.571 C 486.707 128.436, 486 129.640, 486 130.249 C 486 130.857, 492.844 138.250, 501.208 146.677 L 516.416 162 501.208 177.323 C 492.844 185.750, 486 193.143, 486 193.751 C 486 196.313, 489.250 198, 494.188 198 L 499.233 198 495.502 202.130 C 489.343 208.947, 486.611 216.128, 486.611 225.500 C 486.611 232, 487.099 234.564, 489.216 239.175 C 494.312 250.277, 503.704 257.695, 515.604 260.013 C 538.718 264.517, 560.546 242.700, 556.007 219.628 C 554.555 212.252, 552.077 207.198, 547.340 201.955 L 543.767 198 549.312 198 C 554.753 198, 558 196.412, 558 193.751 C 558 193.143, 551.156 185.750, 542.792 177.323 L 527.584 162 542.792 146.677 C 551.156 138.250, 558 130.857, 558 130.249 C 558 128.819, 555.181 126, 553.751 126 C 553.143 126, 545.750 132.844, 537.323 141.208 L 522 156.416 506.677 141.208 C 498.250 132.844, 490.857 126, 490.249 126 C 489.640 126, 488.436 126.707, 487.571 127.571 M 283.217 135.449 C 266.756 139.435, 251.478 151.839, 244.165 167.154 C 240.488 174.855, 238 183.288, 238 188.049 C 238 189.937, 238.902 190, 266 190 L 294 190 294 162 L 294 134 291.250 134.085 C 289.738 134.132, 286.123 134.746, 283.217 135.449 M 302 162 L 302 190 327.202 190 L 352.405 190 339.202 176.667 C 331.941 169.334, 326 162.841, 326 162.239 C 326 160.825, 328.820 158, 330.232 158 C 330.831 158, 336.933 163.512, 343.791 170.250 C 357.118 183.343, 357.357 183.375, 352.904 171.474 C 347.953 158.240, 336.931 146.409, 323.645 140.068 C 316.434 136.626, 307.694 134, 303.451 134 C 302.218 134, 302 138.200, 302 162 M 510.500 179 L 499.534 190 522 190 L 544.466 190 533.500 179 C 527.469 172.950, 522.294 168, 522 168 C 521.706 168, 516.531 172.950, 510.500 179 M 391.571 191.571 C 390.707 192.436, 390 193.529, 390 194 C 390 194.471, 390.707 195.564, 391.571 196.429 C 392.936 197.793, 397.463 198, 426 198 C 454.537 198, 459.064 197.793, 460.429 196.429 C 461.293 195.564, 462 194.471, 462 194 C 462 193.529, 461.293 192.436, 460.429 191.571 C 459.064 190.207, 454.537 190, 426 190 C 397.463 190, 392.936 190.207, 391.571 191.571 M 511.054 199.728 C 505.018 201.859, 497.781 209.260, 495.667 215.463 C 491.964 226.333, 494.320 237.225, 502.048 244.952 C 507.548 250.453, 513.705 253, 521.500 253 C 529.295 253, 535.452 250.453, 540.952 244.952 C 546.453 239.452, 549 233.295, 549 225.500 C 549 217.705, 546.453 211.548, 540.952 206.048 C 533.269 198.364, 521.789 195.938, 511.054 199.728 M 519.571 223.571 C 518.707 224.436, 518 225.529, 518 226 C 518 227.111, 520.889 230, 522 230 C 523.111 230, 526 227.111, 526 226 C 526 224.889, 523.111 222, 522 222 C 521.529 222, 520.436 222.707, 519.571 223.571 " stroke="none" fill="black" fill-rule="evenodd"/>
</svg>