<svg xmlns="http://www.w3.org/2000/svg" width="468" height="324" viewBox="0 0 468 324" version="1.1">
	<path d="M 61.500 127.401 C 46.645 130.266, 35.144 136.774, 24.168 148.528 C 13.801 159.628, 8.225 172.265, 6.488 188.598 C 5.962 193.536, 6.153 195.010, 7.491 196.348 C 9.547 198.404, 10.439 198.418, 12.429 196.429 C 13.379 195.478, 14 193.126, 14 190.478 C 14 177.343, 20.860 161.930, 31.395 151.395 C 42.853 139.936, 57.222 134, 73.500 134 C 83.696 134, 90.060 135.495, 100 140.225 C 118.844 149.193, 133 170.749, 133 190.478 C 133 198.143, 132.405 198, 164.274 198 L 192.405 198 179.202 211.333 C 171.941 218.666, 166 225.159, 166 225.761 C 166 227.187, 168.825 230, 170.257 230 C 172.006 230, 206 195.761, 206 194 C 206 192.239, 172.006 158, 170.257 158 C 168.825 158, 166 160.813, 166 162.239 C 166 162.841, 171.949 169.342, 179.219 176.684 L 192.439 190.035 166.473 189.767 L 140.508 189.500 139.805 183.870 C 138.896 176.593, 135.638 166.936, 131.751 160 C 126.895 151.335, 112.962 138.165, 104 133.769 C 90.362 127.080, 75.058 124.787, 61.500 127.401 M 285.500 127.401 C 270.645 130.266, 259.144 136.774, 248.168 148.528 C 237.801 159.628, 232.225 172.265, 230.488 188.598 C 229.441 198.441, 227.890 198, 263.571 198 L 294 198 294 228.429 C 294 254.758, 294.212 259.069, 295.571 260.429 C 296.436 261.293, 297.529 262, 298 262 C 298.471 262, 299.564 261.293, 300.429 260.429 C 301.788 259.069, 302 254.758, 302 228.429 L 302 198 327.202 198 L 352.405 198 339.202 211.333 C 331.941 218.666, 326 225.159, 326 225.761 C 326 227.190, 328.827 230, 330.264 230 C 330.881 230, 339.232 222.189, 348.822 212.643 L 366.258 195.286 365.194 190.393 C 364.609 187.702, 363.407 182.125, 362.523 178 C 359.841 165.486, 354.903 156.825, 344.539 146.461 C 337.572 139.494, 333.781 136.582, 328 133.756 C 314.332 127.076, 299.043 124.790, 285.500 127.401 M 391.571 127.571 C 390.707 128.436, 390 129.640, 390 130.249 C 390 130.857, 396.844 138.250, 405.208 146.677 L 420.416 162 405.208 177.323 C 396.844 185.750, 390 193.143, 390 193.751 C 390 196.313, 393.250 198, 398.188 198 L 403.233 198 399.660 201.955 C 381.027 222.579, 392.042 254.643, 419.604 260.013 C 442.718 264.517, 464.546 242.700, 460.007 219.628 C 458.555 212.252, 456.077 207.198, 451.340 201.955 L 447.767 198 453.312 198 C 458.753 198, 462 196.412, 462 193.751 C 462 193.143, 455.156 185.750, 446.792 177.323 L 431.584 162 446.792 146.677 C 455.156 138.250, 462 130.857, 462 130.249 C 462 128.819, 459.181 126, 457.751 126 C 457.143 126, 449.750 132.844, 441.323 141.208 L 426 156.416 410.677 141.208 C 402.250 132.844, 394.857 126, 394.249 126 C 393.640 126, 392.436 126.707, 391.571 127.571 M 283.217 135.449 C 262.050 140.575, 243.428 159.713, 239.090 180.799 C 236.997 190.973, 234.153 190, 266 190 L 294 190 294 162 L 294 134 291.250 134.085 C 289.738 134.132, 286.123 134.746, 283.217 135.449 M 302 162 L 302 190 327.202 190 L 352.405 190 339.202 176.667 C 331.941 169.334, 326 162.841, 326 162.239 C 326 160.825, 328.820 158, 330.232 158 C 330.831 158, 336.922 163.512, 343.767 170.250 C 355.507 181.806, 356.173 182.302, 355.517 179 C 355.135 177.075, 353.028 171.744, 350.836 167.154 C 345.201 155.355, 335.647 145.768, 324 140.225 C 316.484 136.649, 307.741 134, 303.451 134 C 302.218 134, 302 138.200, 302 162 M 414.500 179 L 403.534 190 426 190 L 448.466 190 437.500 179 C 431.469 172.950, 426.294 168, 426 168 C 425.706 168, 420.531 172.950, 414.500 179 M 415.054 199.728 C 409.018 201.859, 401.781 209.260, 399.667 215.463 C 393.198 234.450, 405.964 253, 425.500 253 C 433.295 253, 439.452 250.453, 444.952 244.952 C 462.571 227.333, 450.014 197.726, 425.072 198.079 C 422.007 198.122, 417.499 198.864, 415.054 199.728 M 423.571 223.571 C 422.707 224.436, 422 225.529, 422 226 C 422 227.111, 424.889 230, 426 230 C 427.111 230, 430 227.111, 430 226 C 430 224.889, 427.111 222, 426 222 C 425.529 222, 424.436 222.707, 423.571 223.571 " stroke="none" fill="black" fill-rule="evenodd"/>
</svg>