<svg xmlns="http://www.w3.org/2000/svg" width="180" height="324" viewBox="0 0 180 324" version="1.1">
	<path d="M 130.223 127.012 C 116.302 129.919, 104.402 143.057, 102.515 157.605 C 101.991 161.637, 102.198 163.055, 103.498 164.355 C 104.402 165.260, 105.529 166, 106 166 C 107.912 166, 110 162.663, 110 159.607 C 110 146.012, 122.952 133.981, 137.572 133.995 C 152.461 134.010, 165 145.950, 165 160.113 C 165 169.630, 159.507 188.075, 152.594 201.768 C 143.178 220.418, 128.036 237.486, 111.134 248.500 C 103.181 253.683, 101.966 254.840, 102.214 257 C 102.715 261.375, 106.237 260.690, 115.778 254.363 C 126.312 247.378, 143.664 230.267, 150.201 220.417 C 160.935 204.246, 167.002 189.899, 170.997 171.241 C 172.801 162.816, 172.975 160.316, 172.090 155.531 C 168.533 136.286, 149.124 123.065, 130.223 127.012 M 7.571 159.571 C 6.207 160.936, 6 165.463, 6 194 C 6 222.537, 6.207 227.064, 7.571 228.429 C 8.936 229.793, 13.463 230, 42 230 C 70.537 230, 75.064 229.793, 76.429 228.429 C 77.793 227.064, 78 222.537, 78 194 C 78 165.463, 77.793 160.936, 76.429 159.571 C 75.064 158.207, 70.537 158, 42 158 C 13.463 158, 8.936 158.207, 7.571 159.571 M 14 194 L 14 222 42 222 L 70 222 70 194 L 70 166 42 166 L 14 166 14 194 M 39.571 191.571 C 38.707 192.436, 38 193.529, 38 194 C 38 195.111, 40.889 198, 42 198 C 43.111 198, 46 195.111, 46 194 C 46 192.889, 43.111 190, 42 190 C 41.529 190, 40.436 190.707, 39.571 191.571 M 7.571 255.571 C 6.707 256.436, 6 257.529, 6 258 C 6 258.471, 6.707 259.564, 7.571 260.429 C 8.936 261.793, 13.463 262, 42 262 C 70.537 262, 75.064 261.793, 76.429 260.429 C 77.293 259.564, 78 258.471, 78 258 C 78 257.529, 77.293 256.436, 76.429 255.571 C 75.064 254.207, 70.537 254, 42 254 C 13.463 254, 8.936 254.207, 7.571 255.571 " stroke="none" fill="black" fill-rule="evenodd"/>
</svg>