<svg xmlns="http://www.w3.org/2000/svg" width="372" height="324" viewBox="0 0 372 324" version="1.1">
	<path d="M 224.500 126.944 C 208.464 129.540, 198.190 134.822, 186.461 146.500 C 179.435 153.496, 176.611 157.170, 173.778 163 C 167.648 175.615, 164.334 193.191, 167.491 196.348 C 169.547 198.404, 170.439 198.418, 172.429 196.429 C 173.404 195.453, 174.006 193.082, 174.015 190.179 C 174.074 171.373, 187.719 150.014, 205.603 140.732 C 235.445 125.244, 272.576 137.261, 286.766 167 C 288.997 171.675, 291.135 177.075, 291.517 179 C 292.173 182.302, 291.507 181.806, 279.767 170.250 C 272.922 163.512, 266.831 158, 266.232 158 C 264.814 158, 262 160.827, 262 162.253 C 262 163.168, 292.228 194.707, 295.500 197.206 C 296.050 197.626, 297.161 197.976, 297.968 197.985 C 299.676 198.002, 334 163.999, 334 162.290 C 334 160.829, 331.201 158, 329.756 158 C 329.150 158, 322.316 164.285, 314.568 171.967 L 300.480 185.935 298.753 178.334 C 295.864 165.621, 290.810 156.806, 280.502 146.498 C 270.714 136.709, 262.049 131.547, 250.500 128.622 C 242.819 126.677, 230.903 125.908, 224.500 126.944 M 65.384 159.412 C 58.802 161.009, 52.250 164.874, 47.831 169.766 C 44.577 173.367, 43.753 173.723, 36.211 174.790 C 31.539 175.451, 25.334 177.189, 21.593 178.885 C 13.739 182.446, 4.771 190.405, 5.204 193.430 C 5.738 197.166, 9.662 196.567, 14.627 191.990 C 19.975 187.060, 28.433 183.091, 35.332 182.274 C 40.181 181.700, 40.282 181.742, 39.716 184.093 C 36.460 197.615, 40.003 210.139, 49.580 218.967 C 64.380 232.610, 86.172 231.613, 99.598 216.679 C 102.019 213.987, 104 211.410, 104 210.953 C 104 210.496, 106.138 209.835, 108.750 209.483 C 120.410 207.912, 129.306 204.182, 136.540 197.831 C 140.501 194.353, 141.161 190.503, 137.970 189.490 C 136.520 189.030, 134.888 189.769, 132.267 192.070 C 127.712 196.070, 117.937 200.698, 112.114 201.611 L 107.728 202.299 108.429 197.623 C 109.247 192.171, 107.630 183.196, 104.841 177.705 C 100.264 168.695, 91.293 161.748, 81.147 159.360 C 74.397 157.772, 72.111 157.779, 65.384 159.412 M 63.364 167.624 C 61.090 168.431, 57.490 170.626, 55.364 172.504 C 52.028 175.451, 51.789 175.922, 53.616 175.958 C 57.390 176.033, 69.494 182.826, 74.308 187.572 C 76.889 190.116, 79 192.541, 79 192.960 C 79 194.135, 89.974 199.677, 94.893 200.985 C 100.324 202.430, 100.963 201.689, 100.985 193.928 C 101.029 177.691, 89.163 165.851, 73.072 166.079 C 70.007 166.122, 65.639 166.818, 63.364 167.624 M 47.072 185.224 C 45.498 189.739, 45.765 197.954, 47.667 203.537 C 53.575 220.875, 77.473 226.703, 91.928 214.330 C 94.217 212.371, 95.938 210.313, 95.753 209.758 C 95.568 209.203, 92.853 207.956, 89.720 206.986 C 82.259 204.678, 75.024 199.955, 70.512 194.449 C 66.324 189.339, 60.710 185.816, 53.322 183.661 L 48.143 182.150 47.072 185.224 M 215.213 207.315 C 205.746 216.838, 198 225.131, 198 225.743 C 198 227.176, 200.814 230, 202.241 230 C 202.845 230, 209.509 223.887, 217.050 216.415 L 230.760 202.830 232.008 208.165 C 237.680 232.412, 256.927 252.220, 281 258.586 C 285.073 259.663, 291.233 260.304, 297.500 260.304 C 309.257 260.304, 317.240 258.451, 328 253.222 C 338.587 248.078, 352.092 234.559, 357.193 224 C 363.276 211.409, 366.528 194.671, 363.485 191.627 C 362.589 190.732, 361.471 190, 361 190 C 358.878 190, 356.999 193.426, 356.985 197.321 C 356.921 215.546, 342.957 237.187, 325.397 246.278 C 295.523 261.742, 258.652 249.784, 244.198 219.942 C 241.950 215.299, 239.813 209.925, 239.449 208 C 238.826 204.696, 239.513 205.213, 251.730 217.250 C 258.848 224.262, 265.164 230, 265.765 230 C 267.187 230, 270 227.173, 270 225.743 C 270 223.994, 235.761 190, 234 190 C 233.134 190, 224.680 197.792, 215.213 207.315 M 39.571 255.571 C 38.707 256.436, 38 257.529, 38 258 C 38 258.471, 38.707 259.564, 39.571 260.429 C 40.936 261.793, 45.463 262, 74 262 C 102.537 262, 107.064 261.793, 108.429 260.429 C 109.293 259.564, 110 258.471, 110 258 C 110 257.529, 109.293 256.436, 108.429 255.571 C 107.064 254.207, 102.537 254, 74 254 C 45.463 254, 40.936 254.207, 39.571 255.571 " stroke="none" fill="black" fill-rule="evenodd"/>
</svg>