<svg xmlns="http://www.w3.org/2000/svg" width="356" height="324" viewBox="0 0 356 324" version="1.1">
	<path d="M 7.571 127.571 C 6.707 128.436, 6 129.529, 6 130 C 6 130.471, 6.707 131.564, 7.571 132.429 C 8.966 133.824, 16.152 134, 71.571 134 L 134 134 134 194 L 134 254 71.571 254 C 16.152 254, 8.966 254.176, 7.571 255.571 C 5.598 257.545, 5.598 258.455, 7.571 260.429 C 8.968 261.825, 16.343 261.998, 73.821 261.985 C 109.395 261.976, 139.076 261.604, 139.779 261.158 C 141.659 259.965, 141.659 128.035, 139.779 126.842 C 139.076 126.396, 109.395 126.024, 73.821 126.015 C 16.343 126.002, 8.968 126.175, 7.571 127.571 M 179.102 130.302 C 170.699 140.685, 166.668 155.574, 168.828 168.250 C 170.227 176.458, 174.209 185.615, 178.923 191.461 L 182.117 195.423 181.928 227.419 C 181.741 259.062, 181.763 259.430, 183.870 260.830 C 185.580 261.965, 186.297 261.999, 187.500 261 C 188.325 260.315, 189 259.349, 189 258.853 C 189 258.358, 190.546 255.705, 192.435 252.959 C 198.792 243.716, 200.449 237.937, 200.449 225 C 200.449 212.128, 199.037 207.147, 192.522 197.034 L 189 191.567 189 159.984 C 189 136.752, 188.683 128.083, 187.800 127.200 C 185.570 124.970, 182.543 126.050, 179.102 130.302 M 278.652 128.189 C 277.841 129.460, 262.852 159.187, 245.343 194.249 C 219.084 246.834, 213.702 258.304, 214.613 259.749 C 215.647 261.388, 219.919 261.500, 281.500 261.500 C 343.145 261.500, 347.352 261.390, 348.390 259.744 C 349.305 258.293, 343.774 246.586, 316.499 192.244 C 294.523 148.461, 282.937 126.396, 281.813 126.189 C 280.885 126.018, 279.463 126.918, 278.652 128.189 M 179.116 143.953 C 174.625 154.393, 174.752 168.545, 179.425 178.415 L 181.833 183.500 181.917 161.250 C 181.962 149.012, 181.830 139, 181.623 139 C 181.416 139, 180.288 141.229, 179.116 143.953 M 252.576 196.250 L 224.306 253.500 281.312 253.758 C 312.664 253.900, 338.496 253.837, 338.715 253.618 C 339.226 253.107, 282.188 139, 281.421 139 C 281.105 139, 268.125 164.762, 252.576 196.250 M 279.750 159.080 C 278.155 160.009, 278 162.388, 278 186.015 C 278 211.174, 278.060 211.962, 280.064 213.034 C 281.596 213.854, 282.498 213.832, 283.564 212.947 C 284.744 211.968, 285 207.174, 285 186.078 C 285 157.906, 284.671 156.214, 279.750 159.080 M 189 225 C 189 236.601, 189.350 243.049, 189.948 242.450 C 191.462 240.934, 194 230.003, 194 225 C 194 219.997, 191.462 209.066, 189.948 207.550 C 189.350 206.951, 189 213.399, 189 225 M 279.750 222.080 C 277.372 223.465, 277.542 226.685, 280.064 228.034 C 283.753 230.008, 286.819 225.219, 283.800 222.200 C 282.367 220.767, 282.022 220.757, 279.750 222.080 " stroke="none" fill="black" fill-rule="evenodd"/>
</svg>