<svg xmlns="http://www.w3.org/2000/svg" width="403" height="324" viewBox="0 0 403 324" version="1.1">
	<path d="M 7.571 127.571 C 6.207 128.936, 6 133.463, 6 162 C 6 190.537, 6.207 195.064, 7.571 196.429 C 8.931 197.788, 13.242 198, 39.571 198 L 70 198 70 228.429 C 70 254.758, 70.212 259.069, 71.571 260.429 C 73.545 262.402, 74.455 262.402, 76.429 260.429 C 77.788 259.069, 78 254.758, 78 228.429 L 78 198 108.429 198 C 134.758 198, 139.069 197.788, 140.429 196.429 C 142.780 194.077, 142.793 131.578, 140.443 128.223 C 138.598 125.588, 137.678 125.465, 135.571 127.571 C 134.212 128.931, 134 133.242, 134 159.571 L 134 190 106 190 L 78 190 78 159.571 C 78 133.242, 77.788 128.931, 76.429 127.571 C 74.455 125.598, 73.545 125.598, 71.571 127.571 C 70.212 128.931, 70 133.242, 70 159.571 L 70 190 42 190 L 14 190 14 159.571 C 14 133.242, 13.788 128.931, 12.429 127.571 C 11.564 126.707, 10.471 126, 10 126 C 9.529 126, 8.436 126.707, 7.571 127.571 M 359.244 159.256 C 340.960 177.546, 326 193.206, 326 194.056 C 326 197.782, 327.684 198, 356.444 198 L 384.487 198 355.244 227.256 C 339.160 243.347, 326 257.281, 326 258.221 C 326 259.161, 326.961 260.444, 328.136 261.073 C 330.103 262.126, 332.918 259.572, 363.636 228.864 C 381.986 210.520, 397 194.811, 397 193.956 C 397 190.217, 395.331 190, 366.556 190 L 338.513 190 367.756 160.744 C 383.840 144.653, 397 130.793, 397 129.944 C 397 128.171, 395.098 126, 393.544 126 C 392.964 126, 377.529 140.965, 359.244 159.256 M 167.200 191.200 C 166.540 191.860, 166 192.988, 166 193.706 C 166 195.501, 198.667 260.676, 199.970 261.482 C 202.864 263.270, 205.167 259.696, 219.125 231.762 L 233.744 202.502 248.334 231.669 C 256.359 247.710, 263.395 261.126, 263.971 261.482 C 266.981 263.342, 269.205 259.796, 284.813 228.244 C 293.721 210.235, 301.008 194.802, 301.005 193.950 C 300.992 190.011, 300.803 190, 233.500 190 C 184.200 190, 168.109 190.291, 167.200 191.200 M 188.608 223.250 C 195.546 237.137, 201.371 248.661, 201.553 248.859 C 201.878 249.211, 227 199.502, 227 198.508 C 227 198.228, 215.523 198, 201.496 198 L 175.992 198 188.608 223.250 M 252.608 223.250 C 259.546 237.137, 265.371 248.661, 265.553 248.859 C 265.878 249.211, 291 199.502, 291 198.508 C 291 198.228, 279.523 198, 265.496 198 L 239.992 198 252.608 223.250 " stroke="none" fill="black" fill-rule="evenodd"/>
</svg>