<svg xmlns="http://www.w3.org/2000/svg" width="340" height="324" viewBox="0 0 340 324" version="1.1">
	<path d="M 167.571 127.571 C 166.212 128.931, 166 133.242, 166 159.571 L 166 190 135.571 190 C 109.242 190, 104.931 190.212, 103.571 191.571 C 101.598 193.545, 101.598 194.455, 103.571 196.429 C 104.931 197.788, 109.242 198, 135.571 198 L 166 198 166 228.429 C 166 254.758, 166.212 259.069, 167.571 260.429 C 168.436 261.293, 169.529 262, 170 262 C 170.471 262, 171.564 261.293, 172.429 260.429 C 173.788 259.069, 174 254.758, 174 228.429 L 174 198 199.202 198 L 224.405 198 211.202 211.333 C 203.941 218.666, 198 225.159, 198 225.761 C 198 227.202, 200.832 230, 202.290 230 C 203.969 230, 238 195.693, 238 194 C 238 192.307, 203.969 158, 202.290 158 C 200.832 158, 198 160.798, 198 162.239 C 198 162.841, 203.941 169.334, 211.202 176.667 L 224.405 190 199.202 190 L 174 190 174 159.571 C 174 133.242, 173.788 128.931, 172.429 127.571 C 171.564 126.707, 170.471 126, 170 126 C 169.529 126, 168.436 126.707, 167.571 127.571 M 295.285 159.230 C 276.978 177.506, 262 193.166, 262 194.030 C 262 197.785, 263.648 198, 292.444 198 L 320.487 198 291.244 227.256 C 275.160 243.347, 262 257.281, 262 258.221 C 262 260.992, 265.567 262.332, 268.240 260.565 C 270.498 259.072, 333.291 195.403, 333.734 194.158 C 333.862 193.796, 333.542 192.825, 333.021 192 C 332.230 190.745, 327.491 190.418, 304.015 190 L 275.954 189.500 304.477 160.335 C 320.165 144.295, 333 130.547, 333 129.785 C 333 128.166, 331.046 126, 329.585 126 C 329.026 126, 313.591 140.953, 295.285 159.230 M 7.571 159.571 C 6.207 160.936, 6 165.463, 6 194 C 6 222.537, 6.207 227.064, 7.571 228.429 C 8.936 229.793, 13.463 230, 42 230 C 70.537 230, 75.064 229.793, 76.429 228.429 C 77.793 227.064, 78 222.537, 78 194 C 78 165.463, 77.793 160.936, 76.429 159.571 C 75.064 158.207, 70.537 158, 42 158 C 13.463 158, 8.936 158.207, 7.571 159.571 M 14 194 L 14 222 42 222 L 70 222 70 194 L 70 166 42 166 L 14 166 14 194 M 7.571 255.571 C 6.707 256.436, 6 257.529, 6 258 C 6 258.471, 6.707 259.564, 7.571 260.429 C 8.936 261.793, 13.463 262, 42 262 C 70.537 262, 75.064 261.793, 76.429 260.429 C 77.293 259.564, 78 258.471, 78 258 C 78 257.529, 77.293 256.436, 76.429 255.571 C 75.064 254.207, 70.537 254, 42 254 C 13.463 254, 8.936 254.207, 7.571 255.571 " stroke="none" fill="black" fill-rule="evenodd"/>
</svg>