<svg xmlns="http://www.w3.org/2000/svg" width="308" height="324" viewBox="0 0 308 324" version="1.1">
	<path d="M 39.267 159.267 C 20.970 177.563, 6 193.056, 6 193.695 C 6 195.187, 8.799 198, 10.285 198 C 10.913 198, 25.506 183.947, 42.713 166.771 L 74 135.542 105.287 166.771 C 122.494 183.947, 137.064 198, 137.664 198 C 139.291 198, 141.212 195.312, 140.833 193.567 C 140.424 191.689, 75.041 126, 73.580 126 C 73.004 126, 57.563 140.970, 39.267 159.267 M 167.750 191.080 C 164.561 192.937, 166.508 207.680, 171.510 219.557 L 174.061 225.614 171.595 231.189 C 168.811 237.483, 166 249.912, 166 255.923 C 166 258.980, 166.502 260.198, 168.117 261.062 C 171.351 262.793, 172.654 260.620, 173.851 251.500 C 174.428 247.100, 175.667 241.136, 176.604 238.246 L 178.307 232.991 185.162 239.956 C 200.413 255.451, 220.843 262.760, 241.138 259.981 C 257.006 257.808, 269.073 251.810, 280.697 240.318 L 287.961 233.135 289.985 239.686 C 291.098 243.289, 292.298 249.353, 292.652 253.162 C 293.360 260.785, 295.158 263.067, 298.518 260.611 C 301.225 258.631, 300.035 246.635, 296.013 235.355 C 294.276 230.485, 292.855 226.050, 292.855 225.500 C 292.855 224.950, 294.265 220.547, 295.989 215.715 C 299.981 204.522, 301.147 193.312, 298.519 191.390 C 295.234 188.988, 293.355 191.232, 292.617 198.436 C 292.249 202.021, 291.026 207.941, 289.899 211.592 L 287.849 218.230 282.886 212.661 C 268.934 197.008, 246.083 188.321, 225.721 190.930 C 209.248 193.040, 197.172 198.969, 185.459 210.699 L 178.271 217.897 176.592 212.701 C 175.669 209.843, 174.425 204.129, 173.826 200.002 C 172.438 190.433, 171.423 188.941, 167.750 191.080 M 218.072 199.532 C 207.418 202.512, 199.923 206.996, 191.250 215.579 C 186.713 220.069, 183 224.534, 183 225.500 C 183 226.466, 186.713 230.925, 191.250 235.409 C 203.732 247.742, 216.212 253, 233 253 C 247.037 253, 258.343 249.194, 269.587 240.683 C 275.697 236.058, 283 227.752, 283 225.428 C 283 222.743, 273.639 212.903, 266.617 208.206 C 255.830 200.992, 248.918 198.846, 235 198.390 C 226.770 198.121, 221.957 198.445, 218.072 199.532 " stroke="none" fill="black" fill-rule="evenodd"/>
</svg>