<svg xmlns="http://www.w3.org/2000/svg" width="308" height="324" viewBox="0 0 308 324" version="1.1">
	<path d="M 33.384 159.357 C 15.361 163.923, 3.562 181.820, 6.987 199.396 C 9.923 214.467, 20.510 225.032, 35.660 228.013 C 51.154 231.061, 68.354 221.287, 74.043 206.202 C 76.983 198.405, 76.941 188.485, 73.934 180.507 C 68.097 165.023, 49.437 155.290, 33.384 159.357 M 199.750 159.082 C 198.787 159.642, 198 160.858, 198 161.786 C 198 162.714, 203.956 169.442, 211.236 176.737 L 224.472 190 164.808 190 C 111.900 190, 104.965 190.178, 103.571 191.571 C 101.598 193.545, 101.598 194.455, 103.571 196.429 C 104.965 197.822, 111.900 198, 164.808 198 L 224.472 198 211.236 211.263 C 203.956 218.558, 198 225.292, 198 226.228 C 198 227.164, 198.954 228.440, 200.120 229.064 C 202.049 230.097, 203.785 228.687, 219.471 213.349 C 229.859 203.191, 236.762 195.679, 236.851 194.432 C 236.955 192.986, 231.880 187.274, 219.968 175.432 C 210.600 166.120, 202.613 158.402, 202.218 158.282 C 201.823 158.162, 200.713 158.522, 199.750 159.082 M 263.750 159.080 C 262.155 160.009, 262 162.388, 262 186.015 C 262 211.174, 262.060 211.962, 264.064 213.034 C 265.596 213.854, 266.498 213.832, 267.564 212.947 C 268.744 211.968, 269 207.174, 269 186.078 C 269 157.906, 268.671 156.214, 263.750 159.080 M 31.054 167.728 C 25.018 169.859, 17.781 177.260, 15.667 183.463 C 9.189 202.476, 21.963 221, 41.552 221 C 56.843 221, 69 208.819, 69 193.500 C 69 182.038, 61.486 171.200, 50.965 167.488 C 45.610 165.598, 36.784 165.705, 31.054 167.728 M 263.750 222.080 C 261.372 223.465, 261.542 226.685, 264.064 228.034 C 267.753 230.008, 270.819 225.219, 267.800 222.200 C 266.367 220.767, 266.022 220.757, 263.750 222.080 M 7.585 255.558 C 6.713 256.430, 6 257.529, 6 258 C 6 258.471, 6.713 259.570, 7.585 260.442 C 8.978 261.835, 13.159 261.995, 42.226 261.763 C 72.452 261.523, 75.377 261.350, 76.386 259.750 C 77.191 258.474, 77.191 257.526, 76.386 256.250 C 75.377 254.650, 72.452 254.477, 42.226 254.237 C 13.159 254.005, 8.978 254.165, 7.585 255.558 " stroke="none" fill="black" fill-rule="evenodd"/>
</svg>