<svg xmlns="http://www.w3.org/2000/svg" width="532" height="324" viewBox="0 0 532 324" version="1.1">
	<path d="M 7.571 127.571 C 6.175 128.968, 6 136.372, 6 194 C 6 251.628, 6.175 259.032, 7.571 260.429 C 8.936 261.793, 13.463 262, 42 262 C 70.537 262, 75.064 261.793, 76.429 260.429 C 77.825 259.032, 78 251.628, 78 194 C 78 136.372, 77.825 128.968, 76.429 127.571 C 75.064 126.207, 70.537 126, 42 126 C 13.463 126, 8.936 126.207, 7.571 127.571 M 157.500 127.404 C 135.015 131.731, 115.830 147.361, 107.285 168.314 C 104.837 174.317, 102.106 186.732, 102.035 192.179 C 102.001 194.752, 104.213 198, 106 198 C 108.239 198, 110.001 194.567, 110.015 190.179 C 110.091 166.127, 130.559 141.323, 155.103 135.537 C 175.188 130.803, 196.608 136.681, 210.963 150.866 C 221.609 161.387, 227.485 173.601, 228.675 187.687 C 229.043 192.035, 229.901 195.758, 230.725 196.582 C 231.882 197.739, 237.327 198, 260.274 198 L 288.405 198 275.202 211.333 C 267.941 218.666, 262 225.159, 262 225.761 C 262 227.202, 264.832 230, 266.290 230 C 267.969 230, 302 195.693, 302 194 C 302 192.307, 267.969 158, 266.290 158 C 264.832 158, 262 160.798, 262 162.239 C 262 162.841, 267.941 169.334, 275.202 176.667 L 288.405 190 262.202 190 L 236 190 236 186.710 C 236 181.237, 233.208 171.966, 228.926 163.218 C 220.778 146.573, 204.462 133.277, 186.483 128.629 C 177.666 126.349, 165.625 125.840, 157.500 127.404 M 482.344 127 C 469.330 129.704, 458.388 140.630, 454.927 154.377 C 453.912 158.408, 453.425 159, 451.131 159.001 C 446.893 159.002, 436.844 164.410, 432.301 169.134 C 422.306 179.526, 419.550 194.823, 425.368 207.610 C 428.859 215.284, 435.682 222.071, 443.480 225.629 C 451.387 229.236, 461.732 229.409, 470.297 226.077 C 477.364 223.327, 485.582 215.621, 489.040 208.500 C 491.923 202.565, 492.919 190.059, 491.023 183.598 C 487.931 173.057, 478.243 163.272, 467.884 160.228 C 460.961 158.194, 460.640 157.121, 464.588 149.199 C 469.394 139.554, 478.677 133.990, 489.928 134.010 C 502.933 134.033, 514.865 144.437, 516.626 157.291 C 517.699 165.114, 511.837 187.405, 505.264 200.500 C 496.359 218.241, 479.175 237.564, 462.250 248.872 C 453.083 254.996, 451.880 256.480, 454.200 258.800 C 456.086 260.686, 457.805 260.263, 464.309 256.312 C 493.330 238.683, 515.731 205.946, 522.835 170.781 C 525.833 155.943, 523.065 145.901, 513.342 136.339 C 505.455 128.584, 492.910 124.804, 482.344 127 M 14 194 L 14 254 42 254 L 70 254 70 194 L 70 134 42 134 L 14 134 14 194 M 359.616 159.527 C 358.727 160.416, 358 161.529, 358 162 C 358 163.389, 361.140 166.120, 362.295 165.735 C 364.395 165.035, 365.549 162.094, 364.423 160.310 C 362.905 157.902, 361.474 157.669, 359.616 159.527 M 447.627 167.468 C 442.247 169.386, 437.039 173.829, 433.500 179.519 C 429.527 185.908, 428.712 197.311, 431.741 204.129 C 436.389 214.589, 444.227 220.058, 455.616 220.789 C 462.399 221.224, 463.556 221.001, 469.397 218.125 C 481.374 212.229, 487.511 198.958, 484.096 186.337 C 480.933 174.647, 469.616 165.959, 457.663 166.044 C 454.273 166.068, 449.757 166.709, 447.627 167.468 M 327.585 191.558 C 326.713 192.430, 326 193.529, 326 194 C 326 194.471, 326.713 195.570, 327.585 196.442 C 328.978 197.835, 333.159 197.995, 362.226 197.763 C 392.452 197.523, 395.377 197.350, 396.386 195.750 C 397.191 194.474, 397.191 193.526, 396.386 192.250 C 395.377 190.650, 392.452 190.477, 362.226 190.237 C 333.159 190.005, 328.978 190.165, 327.585 191.558 M 359.616 223.527 C 358.727 224.416, 358 225.529, 358 226 C 358 227.389, 361.140 230.120, 362.295 229.735 C 364.395 229.035, 365.549 226.094, 364.423 224.310 C 362.905 221.902, 361.474 221.669, 359.616 223.527 " stroke="none" fill="black" fill-rule="evenodd"/>
</svg>