<svg xmlns="http://www.w3.org/2000/svg" width="212" height="324" viewBox="0 0 212 324" version="1.1">
	<path d="M 33.608 132.122 C 21.806 142.937, 13.219 157.313, 8.894 173.500 C 5.908 184.677, 5.908 202.323, 8.894 213.500 C 13.261 229.844, 21.574 243.687, 33.980 255.274 L 41.181 262 106.058 262 L 170.934 262 178.700 253.920 C 188.130 244.107, 192.093 238.673, 196.507 229.500 C 208.453 204.674, 207.431 176.515, 193.694 152.021 C 191.048 147.302, 186.178 141.120, 180.500 135.270 L 171.500 125.998 105.895 125.999 L 40.289 126 33.608 132.122 M 35.434 140.604 C 27.653 148.501, 20.929 159.572, 17.276 170.500 C 14.851 177.753, 14.601 179.900, 14.601 193.500 C 14.601 207.100, 14.851 209.247, 17.276 216.500 C 21.026 227.719, 27.821 238.752, 36.045 246.976 L 43.069 254 105.426 254 L 167.784 254 172.935 249.368 C 182.785 240.512, 191.595 225.729, 195.119 212.144 C 197.827 201.702, 197.828 185.302, 195.121 174.864 C 191.603 161.304, 182.829 146.498, 173.099 137.709 L 168.994 134 105.468 134 L 41.941 134 35.434 140.604 M 103.571 207.571 C 102.707 208.436, 102 209.669, 102 210.312 C 102 211.922, 136.573 246, 138.207 246 C 140.165 246, 174 211.757, 174 209.775 C 174 208.837, 173.040 207.557, 171.868 206.929 C 169.921 205.887, 168.376 207.144, 154.118 221.376 L 138.500 236.963 122.936 221.482 C 114.376 212.967, 106.870 206, 106.257 206 C 105.644 206, 104.436 206.707, 103.571 207.571 " stroke="none" fill="black" fill-rule="evenodd"/>
</svg>