<svg xmlns="http://www.w3.org/2000/svg" width="403" height="324" viewBox="0 0 403 324" version="1.1">
	<path d="M 7.571 127.571 C 6.707 128.436, 6 129.657, 6 130.285 C 6 130.913, 20.053 145.506, 37.229 162.713 L 68.458 194 37.229 225.287 C 20.053 242.494, 6 257.087, 6 257.715 C 6 258.343, 6.707 259.564, 7.571 260.429 C 8.936 261.793, 13.463 262, 42 262 C 70.537 262, 75.064 261.793, 76.429 260.429 C 77.825 259.032, 78 251.628, 78 194 C 78 136.372, 77.825 128.968, 76.429 127.571 C 75.064 126.207, 70.537 126, 42 126 C 13.463 126, 8.936 126.207, 7.571 127.571 M 103.571 127.571 C 102.707 128.436, 102 129.640, 102 130.249 C 102 130.857, 108.850 138.257, 117.223 146.692 L 132.446 162.030 117.223 177.277 C 108.850 185.662, 102 193.216, 102 194.062 C 102 197.835, 103.497 198, 137.629 198 C 166.892 198, 171.050 197.807, 172.473 196.384 C 173.362 195.495, 173.933 194.299, 173.742 193.726 C 173.551 193.153, 166.444 185.793, 157.947 177.369 L 142.500 162.054 157.750 146.765 C 166.137 138.356, 173 130.784, 173 129.938 C 173 128.209, 171.106 126, 169.623 126 C 169.085 126, 161.750 132.844, 153.323 141.208 L 138 156.416 122.677 141.208 C 114.250 132.844, 106.857 126, 106.249 126 C 105.640 126, 104.436 126.707, 103.571 127.571 M 253.500 127.418 C 225.871 132.792, 205.188 153.045, 199.589 180.208 C 197.337 191.134, 197.478 195.650, 200.117 197.062 C 203.400 198.819, 204.763 196.549, 205.895 187.438 C 207.862 171.610, 213.631 160.232, 225.052 149.658 C 232.843 142.445, 241.521 137.787, 251.565 135.428 C 260.937 133.227, 276.097 133.955, 284.858 137.027 C 292.950 139.865, 304.745 147.732, 309.999 153.797 C 317.992 163.023, 324.929 180.812, 324.983 192.215 C 325.003 196.642, 328.005 199.071, 330.696 196.837 C 332.952 194.965, 331.833 181.603, 328.630 172.165 C 325.083 161.712, 320.602 154.666, 311.911 145.876 C 305.663 139.557, 302.661 137.409, 294.911 133.709 C 289.735 131.238, 283.463 128.736, 280.974 128.150 C 273.104 126.296, 260.935 125.972, 253.500 127.418 M 44.500 159 C 58.242 172.750, 69.601 184, 69.742 184 C 69.884 184, 70 172.750, 70 159 L 70 134 44.758 134 L 19.515 134 44.500 159 M 263.750 159.080 C 262.207 159.979, 262 161.866, 262 175.050 L 262 190 247.934 190 C 233.308 190, 230 190.738, 230 194 C 230 197.262, 233.308 198, 247.934 198 L 262 198 262 212.965 C 262 227.061, 262.120 227.994, 264.064 229.034 C 268.315 231.309, 269 229.069, 269 212.904 L 269 198.052 284.142 197.776 C 297.291 197.536, 299.430 197.270, 300.387 195.750 C 301.191 194.475, 301.191 193.525, 300.387 192.250 C 299.430 190.730, 297.291 190.464, 284.142 190.224 L 269 189.948 269 175.174 C 269 158.586, 268.297 156.432, 263.750 159.080 M 359.750 159.080 C 358.155 160.009, 358 162.388, 358 186.015 C 358 211.174, 358.060 211.962, 360.064 213.034 C 361.596 213.854, 362.498 213.832, 363.564 212.947 C 364.744 211.968, 365 207.174, 365 186.078 C 365 157.906, 364.671 156.214, 359.750 159.080 M 126.088 179.109 L 115.677 190 138.071 190 L 160.466 190 149.500 179 C 143.469 172.950, 138.076 168.049, 137.517 168.109 C 136.958 168.169, 131.815 173.119, 126.088 179.109 M 44.500 229 L 19.515 254 44.758 254 L 70 254 70 229 C 70 215.250, 69.884 204, 69.742 204 C 69.601 204, 58.242 215.250, 44.500 229 M 359.750 222.080 C 357.372 223.465, 357.542 226.685, 360.064 228.034 C 363.753 230.008, 366.819 225.219, 363.800 222.200 C 362.367 220.767, 362.022 220.757, 359.750 222.080 " stroke="none" fill="black" fill-rule="evenodd"/>
</svg>