<svg xmlns="http://www.w3.org/2000/svg" width="403" height="324" viewBox="0 0 403 324" version="1.1">
	<path d="M 39.267 159.267 C 20.970 177.563, 6 193.056, 6 193.695 C 6 195.187, 8.799 198, 10.285 198 C 10.913 198, 25.506 183.947, 42.713 166.771 L 74 135.542 105.287 166.771 C 122.494 183.947, 137.029 198, 137.587 198 C 139.117 198, 141 195.802, 141 194.016 C 141 191.968, 75.977 125.902, 74.017 125.958 C 73.201 125.981, 57.563 140.970, 39.267 159.267 M 167.571 127.571 C 166.175 128.968, 166 136.406, 166 194.371 C 166 243.771, 166.291 259.891, 167.200 260.800 C 168.935 262.535, 298.065 262.535, 299.800 260.800 C 300.709 259.891, 301 243.672, 301 193.922 C 301 123.146, 301.084 124.279, 296.064 126.966 C 294.307 127.906, 294 129.027, 294 134.509 L 294 140.947 289.724 136.671 C 275.955 122.902, 253.984 123.202, 240.169 137.348 C 237.939 139.632, 235.480 142.735, 234.704 144.245 L 233.293 146.990 230.233 142.067 C 224.184 132.337, 212.929 126.552, 200.330 126.697 C 191.615 126.798, 184.375 129.770, 177.575 136.038 L 173 140.255 173 134.327 C 173 126.771, 170.938 124.205, 167.571 127.571 M 359.724 127.134 C 358.120 128.032, 358 132.496, 358 191.050 L 358 254 343.934 254 C 329.308 254, 326 254.738, 326 258 C 326 259.061, 326.870 260.395, 327.934 260.965 C 330.564 262.372, 392.436 262.372, 395.066 260.965 C 396.130 260.395, 397 259.061, 397 258 C 397 254.738, 393.692 254, 379.066 254 L 365 254 365 191.035 C 365 131.743, 364.896 128.015, 363.224 127.120 C 362.098 126.517, 360.818 126.522, 359.724 127.134 M 191.741 135.429 C 181.060 139.241, 174.028 149.232, 174.010 160.622 C 173.988 174.382, 182.288 197.467, 193.281 214.219 C 200.482 225.192, 215.373 240.438, 225.728 247.437 L 232.956 252.323 240.116 247.561 C 261.587 233.284, 279.813 208.751, 287.852 183.303 C 293.615 165.062, 293.999 156.700, 289.477 147.955 C 285.226 139.734, 275.167 134.013, 265 134.032 C 250.574 134.059, 239.738 143.976, 237.481 159.218 C 236.632 164.952, 234.900 166.731, 231.620 165.236 C 229.729 164.375, 229.194 163.165, 228.735 158.717 C 227.279 144.611, 215.533 133.974, 201.500 134.054 C 198.200 134.072, 193.808 134.691, 191.741 135.429 M 290.123 198.063 C 282.105 217.143, 266.282 237.307, 249.640 249.653 L 243.780 254 268.890 254 L 294 254 294 222 C 294 204.400, 293.887 190.006, 293.750 190.013 C 293.613 190.020, 291.980 193.643, 290.123 198.063 M 173.009 222.750 L 173 254 197.649 254 L 222.298 254 215.899 249.142 C 207.676 242.899, 195.694 230.315, 189.002 220.894 C 186.113 216.827, 181.335 208.550, 178.384 202.500 L 173.018 191.500 173.009 222.750 " stroke="none" fill="black" fill-rule="evenodd"/>
</svg>