<svg xmlns="http://www.w3.org/2000/svg" width="468" height="324" viewBox="0 0 468 324" version="1.1">
	<path d="M 7.200 63.200 C 5.512 64.888, 5.512 99.112, 7.200 100.800 C 8.888 102.488, 43.112 102.488, 44.800 100.800 C 46.488 99.112, 46.488 64.888, 44.800 63.200 C 43.112 61.512, 8.888 61.512, 7.200 63.200 M 14 82 L 14 94 26 94 L 38 94 38 82 L 38 70 26 70 L 14 70 14 82 M 280.530 142 L 264.424 158 232.783 158 C 205.353 158, 200.934 158.209, 199.571 159.571 C 197.598 161.545, 197.598 162.455, 199.571 164.429 C 200.924 165.781, 204.991 166, 228.807 166 L 256.470 166 211.235 211.276 C 186.356 236.177, 166 257.070, 166 257.704 C 166 259.174, 168.798 262, 170.253 262 C 170.863 262, 178.611 254.800, 187.470 246 L 203.576 230 235.217 230 C 262.647 230, 267.066 229.791, 268.429 228.429 C 270.402 226.455, 270.402 225.545, 268.429 223.571 C 267.076 222.219, 263.009 222, 239.193 222 L 211.530 222 256.765 176.724 C 281.644 151.823, 302 130.930, 302 130.296 C 302 128.826, 299.202 126, 297.747 126 C 297.137 126, 289.389 133.200, 280.530 142 M 327.571 127.571 C 326.707 128.436, 326 129.669, 326 130.313 C 326 131.842, 456.158 262, 457.687 262 C 459.199 262, 462 259.199, 462 257.687 C 462 256.158, 331.842 126, 330.313 126 C 329.669 126, 328.436 126.707, 327.571 127.571 M 15.184 199.365 C 10.133 204.516, 6 209.209, 6 209.794 C 6 211.133, 8.816 214, 10.131 214 C 10.675 214, 13.568 211.685, 16.560 208.855 L 22 203.710 22 228.855 L 22 254 15.571 254 C 11.061 254, 8.674 254.469, 7.571 255.571 C 5.598 257.545, 5.598 258.455, 7.571 260.429 C 9.900 262.757, 42.100 262.757, 44.429 260.429 C 46.402 258.455, 46.402 257.545, 44.429 255.571 C 43.326 254.469, 40.939 254, 36.429 254 L 30 254 30 223.200 C 30 184.046, 30.081 184.175, 15.184 199.365 M 71.571 191.571 C 70.707 192.436, 70 193.529, 70 194 C 70 194.471, 70.707 195.564, 71.571 196.429 C 72.855 197.712, 75.788 198, 87.571 198 L 102 198 102 226 L 102 254 87.571 254 C 75.788 254, 72.855 254.288, 71.571 255.571 C 69.598 257.545, 69.598 258.455, 71.571 260.429 C 72.936 261.793, 77.463 262, 106 262 C 134.537 262, 139.064 261.793, 140.429 260.429 C 142.402 258.455, 142.402 257.545, 140.429 255.571 C 139.145 254.288, 136.212 254, 124.429 254 L 110 254 110 226 L 110 198 124.429 198 C 136.212 198, 139.145 197.712, 140.429 196.429 C 141.293 195.564, 142 194.471, 142 194 C 142 193.529, 141.293 192.436, 140.429 191.571 C 139.064 190.207, 134.537 190, 106 190 C 77.463 190, 72.936 190.207, 71.571 191.571 " stroke="none" fill="black" fill-rule="evenodd"/>
</svg>