<svg xmlns="http://www.w3.org/2000/svg" width="468" height="324" viewBox="0 0 468 324" version="1.1">
	<path d="M 40.372 62.765 C 38.418 64.037, 22.003 97.844, 22.593 99.381 C 23.268 101.141, 25.513 102.124, 27.295 101.440 C 28.007 101.167, 31.480 95.106, 35.014 87.972 C 38.547 80.837, 41.691 75, 42 75 C 42.309 75, 45.453 80.837, 48.986 87.972 C 52.520 95.106, 55.993 101.167, 56.705 101.440 C 58.487 102.124, 60.732 101.141, 61.407 99.381 C 61.716 98.575, 58.096 90.173, 53.363 80.708 C 45.638 65.261, 43.672 62.031, 42 62.031 C 41.725 62.031, 40.992 62.361, 40.372 62.765 M 163.270 127.054 C 148.642 129.941, 137.828 140.938, 135.037 155.763 C 134.285 159.758, 134.420 162.992, 135.595 169.189 C 141.794 201.865, 159.596 230.571, 185.884 250.281 C 191.179 254.252, 197.184 258.383, 199.229 259.463 L 202.946 261.426 205.723 258.885 C 207.250 257.487, 211.650 254.155, 215.500 251.481 C 230.883 240.793, 248.030 220.331, 256.329 202.759 C 264.774 184.876, 269.707 165.027, 267.982 155.864 C 263.595 132.558, 240.273 120.266, 218.616 129.845 C 213.222 132.232, 207.372 137.363, 204.005 142.662 L 201.360 146.824 199.503 143.377 C 197.181 139.064, 190.418 132.764, 185.318 130.162 C 183.183 129.073, 178.781 127.691, 175.535 127.091 C 168.994 125.882, 169.205 125.883, 163.270 127.054 M 311.213 143.315 C 301.746 152.838, 294 161.131, 294 161.743 C 294 163.175, 296.813 166, 298.239 166 C 298.841 166, 305.334 160.059, 312.667 152.798 L 326 139.595 326 199.226 C 326 252.103, 326.178 259.035, 327.571 260.429 C 328.436 261.293, 329.529 262, 330 262 C 330.471 262, 331.564 261.293, 332.429 260.429 C 333.822 259.035, 334 252.103, 334 199.226 L 334 139.595 347.333 152.798 C 354.666 160.059, 361.159 166, 361.761 166 C 363.187 166, 366 163.175, 366 161.743 C 366 159.994, 331.761 126, 330 126 C 329.134 126, 320.680 133.792, 311.213 143.315 M 159.054 135.728 C 153.018 137.859, 145.781 145.260, 143.667 151.463 C 141.381 158.172, 141.573 164.061, 144.447 175.392 C 152.037 205.310, 169.871 230.935, 194.962 247.974 L 201.091 252.137 205.411 249.605 C 216.977 242.827, 232.549 227.507, 241.920 213.687 C 250.597 200.889, 259.543 177.166, 260.692 163.905 C 262.493 143.139, 243.597 128.807, 223.463 135.667 C 214.088 138.862, 206 149.949, 206 159.607 C 206 162.970, 203.867 166, 201.500 166 C 199.133 166, 197 162.970, 197 159.607 C 197 149.949, 188.912 138.862, 179.537 135.667 C 173.516 133.616, 164.964 133.641, 159.054 135.728 M 417.384 159.370 C 399.387 163.885, 387.561 181.817, 390.987 199.396 C 396.468 227.526, 430.025 238.135, 450.080 218.080 C 457.190 210.970, 460.252 203.571, 460.252 193.500 C 460.252 183.429, 457.190 176.030, 450.080 168.920 C 441.430 160.270, 428.661 156.540, 417.384 159.370 M 415.054 167.728 C 409.018 169.859, 401.781 177.260, 399.667 183.463 C 393.198 202.450, 405.964 221, 425.500 221 C 441.108 221, 453 209.108, 453 193.500 C 453 177.670, 440.965 165.854, 425.072 166.079 C 422.007 166.122, 417.499 166.864, 415.054 167.728 M 40.370 190.765 C 38.401 192.045, 6.007 257.855, 6.594 259.384 C 7.265 261.133, 9.512 262.124, 11.274 261.448 C 11.975 261.180, 19.056 247.919, 27.010 231.980 C 34.964 216.041, 41.710 203, 42 203 C 42.290 203, 49.036 216.041, 56.990 231.980 C 64.944 247.919, 72.025 261.180, 72.726 261.448 C 74.488 262.124, 76.735 261.133, 77.406 259.384 C 77.993 257.855, 45.599 192.045, 43.630 190.765 C 43.009 190.361, 42.275 190.031, 42 190.031 C 41.725 190.031, 40.991 190.361, 40.370 190.765 M 99.364 251.170 C 96.244 252.680, 94.705 256.572, 96.145 259.307 C 96.780 260.513, 97.792 261.819, 98.393 262.210 C 98.995 262.600, 99.348 264.248, 99.177 265.871 C 98.750 269.943, 102.526 271.304, 105.175 268.032 C 109.922 262.170, 109.436 252.876, 104.279 250.916 C 102.954 250.412, 101.787 250.030, 101.685 250.068 C 101.583 250.105, 100.539 250.601, 99.364 251.170 " stroke="none" fill="black" fill-rule="evenodd"/>
</svg>