<svg xmlns="http://www.w3.org/2000/svg" width="372" height="324" viewBox="0 0 372 324" version="1.1">
	<path d="M 163.270 127.054 C 149.495 129.773, 139.135 139.496, 135.696 152.933 L 134.318 158.318 128.933 159.696 C 102.591 166.438, 93.698 198.858, 112.920 218.080 C 120.030 225.190, 127.429 228.252, 137.500 228.252 C 147.571 228.252, 154.970 225.190, 162.080 218.080 C 169.190 210.970, 172.252 203.571, 172.252 193.500 C 172.252 183.429, 169.190 176.030, 162.080 168.920 C 156.841 163.681, 148.056 159, 143.462 159 C 139.795 159, 144.030 147.875, 149.952 141.952 C 167.076 124.828, 197.030 136.911, 196.993 160.928 C 196.973 174.089, 187.595 199.398, 176.906 215.138 C 167.295 229.291, 152.294 243.619, 139.194 251.158 C 134.647 253.774, 133.931 254.590, 134.194 256.856 C 134.623 260.566, 137.886 260.746, 143.180 257.350 C 175.275 236.763, 196.473 205.732, 203.405 169.189 C 204.580 162.992, 204.715 159.758, 203.963 155.763 C 201.125 140.687, 190.363 129.832, 175.535 127.091 C 168.994 125.882, 169.205 125.883, 163.270 127.054 M 259.270 127.054 C 244.642 129.941, 233.828 140.938, 231.037 155.763 C 230.285 159.758, 230.420 162.992, 231.595 169.189 C 237.794 201.865, 255.596 230.571, 281.884 250.281 C 287.179 254.252, 293.184 258.383, 295.229 259.463 L 298.946 261.426 301.723 258.885 C 303.250 257.487, 307.650 254.155, 311.500 251.481 C 326.883 240.793, 344.030 220.331, 352.329 202.759 C 360.774 184.876, 365.707 165.027, 363.982 155.864 C 359.595 132.558, 336.273 120.266, 314.616 129.845 C 309.222 132.232, 303.372 137.363, 300.005 142.662 L 297.360 146.824 295.503 143.377 C 293.181 139.064, 286.418 132.764, 281.318 130.162 C 279.183 129.073, 274.781 127.691, 271.535 127.091 C 264.994 125.882, 265.205 125.883, 259.270 127.054 M 255.054 135.728 C 245.529 139.091, 237.980 150.255, 238.015 160.928 C 238.060 174.876, 247.486 199.677, 259.271 216.856 C 265.997 226.661, 279.402 240.046, 289.288 246.829 L 297.055 252.158 301.393 249.615 C 312.977 242.827, 328.543 227.516, 337.920 213.687 C 346.597 200.889, 355.543 177.166, 356.692 163.905 C 358.493 143.139, 339.597 128.807, 319.463 135.667 C 310.088 138.862, 302 149.949, 302 159.607 C 302 162.970, 299.867 166, 297.500 166 C 295.133 166, 293 162.970, 293 159.607 C 293 149.949, 284.912 138.862, 275.537 135.667 C 269.516 133.616, 260.964 133.641, 255.054 135.728 M 39.571 159.571 C 38.707 160.436, 38 161.529, 38 162 C 38 163.111, 40.889 166, 42 166 C 43.111 166, 46 163.111, 46 162 C 46 160.889, 43.111 158, 42 158 C 41.529 158, 40.436 158.707, 39.571 159.571 M 127.054 167.728 C 121.018 169.859, 113.781 177.260, 111.667 183.463 C 105.198 202.450, 117.964 221, 137.500 221 C 153.108 221, 165 209.108, 165 193.500 C 165 177.670, 152.965 165.854, 137.072 166.079 C 134.007 166.122, 129.499 166.864, 127.054 167.728 M 7.571 191.571 C 6.707 192.436, 6 193.529, 6 194 C 6 194.471, 6.707 195.564, 7.571 196.429 C 8.936 197.793, 13.463 198, 42 198 C 70.537 198, 75.064 197.793, 76.429 196.429 C 77.293 195.564, 78 194.471, 78 194 C 78 193.529, 77.293 192.436, 76.429 191.571 C 75.064 190.207, 70.537 190, 42 190 C 13.463 190, 8.936 190.207, 7.571 191.571 M 39.571 223.571 C 38.707 224.436, 38 225.529, 38 226 C 38 227.111, 40.889 230, 42 230 C 43.111 230, 46 227.111, 46 226 C 46 224.889, 43.111 222, 42 222 C 41.529 222, 40.436 222.707, 39.571 223.571 " stroke="none" fill="black" fill-rule="evenodd"/>
</svg>