<svg xmlns="http://www.w3.org/2000/svg" width="468" height="324" viewBox="0 0 468 324" version="1.1">
	<path d="M 7.571 127.571 C 6.175 128.968, 6 136.372, 6 194 C 6 251.628, 6.175 259.032, 7.571 260.429 C 8.436 261.293, 9.529 262, 10 262 C 10.471 262, 11.564 261.293, 12.429 260.429 C 13.825 259.032, 14 251.628, 14 194 C 14 136.372, 13.825 128.968, 12.429 127.571 C 11.564 126.707, 10.471 126, 10 126 C 9.529 126, 8.436 126.707, 7.571 127.571 M 135.571 127.571 C 134.175 128.968, 134 136.372, 134 194 C 134 251.628, 134.175 259.032, 135.571 260.429 C 136.436 261.293, 137.529 262, 138 262 C 138.471 262, 139.564 261.293, 140.429 260.429 C 141.825 259.032, 142 251.628, 142 194 C 142 136.372, 141.825 128.968, 140.429 127.571 C 139.564 126.707, 138.471 126, 138 126 C 137.529 126, 136.436 126.707, 135.571 127.571 M 231.571 127.571 C 230.178 128.965, 230 135.897, 230 188.774 L 230 248.405 216.667 235.202 C 209.334 227.941, 202.841 222, 202.239 222 C 200.825 222, 198 224.820, 198 226.232 C 198 226.831, 203.512 232.922, 210.250 239.767 C 221.806 251.507, 222.302 252.173, 219 251.517 C 217.075 251.135, 211.720 249.017, 207.101 246.810 C 188.436 237.895, 174.082 216.425, 174.015 197.321 C 174.001 193.426, 172.122 190, 170 190 C 169.529 190, 168.399 190.743, 167.491 191.652 C 164.356 194.787, 167.559 211.320, 173.756 224 C 178.924 234.572, 192.441 248.079, 203.060 253.282 C 213.977 258.630, 231.666 262.518, 238.278 261.022 C 240.600 260.497, 245.623 259.373, 249.440 258.526 C 261.509 255.847, 270.337 250.741, 280.539 240.539 C 292.935 228.143, 298.454 216.744, 300.457 199.402 C 301.032 194.418, 300.859 193.002, 299.509 191.652 C 298.601 190.743, 297.471 190, 297 190 C 294.946 190, 293 193.416, 293 197.022 C 293 216.262, 278.611 237.896, 259.899 246.791 C 244.230 254.239, 244.042 253.620, 257.750 239.732 C 264.488 232.906, 270 226.831, 270 226.232 C 270 224.820, 267.175 222, 265.761 222 C 265.159 222, 258.666 227.941, 251.333 235.202 L 238 248.405 238 188.774 C 238 135.897, 237.822 128.965, 236.429 127.571 C 235.564 126.707, 234.471 126, 234 126 C 233.529 126, 232.436 126.707, 231.571 127.571 M 381.500 127.401 C 356.255 132.270, 335.601 151.354, 328.364 176.500 C 326.900 181.586, 326.577 188.303, 326.246 220.606 C 325.893 254.956, 326.017 258.874, 327.499 260.356 C 328.990 261.848, 335.157 262, 394 262 C 451.628 262, 459.032 261.825, 460.429 260.429 C 461.791 259.066, 462 254.649, 462 227.239 C 462 208.871, 461.545 193.081, 460.914 189.560 C 456.835 166.808, 453.204 159.126, 440.539 146.461 C 433.572 139.494, 429.781 136.582, 424 133.756 C 410.332 127.076, 395.043 124.790, 381.500 127.401 M 379.217 135.449 C 362.756 139.435, 347.478 151.839, 340.165 167.154 C 337.974 171.744, 335.690 177.885, 335.090 180.799 C 334.429 184.014, 334 199.452, 334 220.049 L 334 254 394.114 254 L 454.228 254 453.742 219.750 C 453.202 181.762, 452.886 179.471, 446.330 166.046 C 439.277 151.605, 424.223 139.756, 407.540 135.515 C 400.421 133.706, 386.552 133.673, 379.217 135.449 M 39.571 255.571 C 38.707 256.436, 38 257.529, 38 258 C 38 259.111, 40.889 262, 42 262 C 43.111 262, 46 259.111, 46 258 C 46 256.889, 43.111 254, 42 254 C 41.529 254, 40.436 254.707, 39.571 255.571 M 71.571 255.571 C 70.707 256.436, 70 257.529, 70 258 C 70 259.111, 72.889 262, 74 262 C 75.111 262, 78 259.111, 78 258 C 78 256.889, 75.111 254, 74 254 C 73.529 254, 72.436 254.707, 71.571 255.571 M 103.571 255.571 C 102.707 256.436, 102 257.529, 102 258 C 102 259.111, 104.889 262, 106 262 C 107.111 262, 110 259.111, 110 258 C 110 256.889, 107.111 254, 106 254 C 105.529 254, 104.436 254.707, 103.571 255.571 " stroke="none" fill="black" fill-rule="evenodd"/>
</svg>