<svg xmlns="http://www.w3.org/2000/svg" width="148" height="324" viewBox="0 0 148 324" version="1.1">
	<path d="M 39.230 223.285 C 20.953 241.591, 6 257.084, 6 257.713 C 6 258.342, 6.707 259.564, 7.571 260.429 C 8.936 261.793, 13.463 262, 42 262 C 79.611 262, 78 262.374, 78 253.639 C 78 225.818, 105.924 198.106, 134.050 198.015 C 138.831 197.999, 141 196.722, 141 193.922 C 141 190.278, 138.495 189.628, 129.376 190.903 C 109.276 193.715, 92.448 204.019, 81.567 220.177 L 78 225.473 78 209.308 C 78 195.946, 77.728 192.870, 76.429 191.571 C 75.564 190.707, 74.318 190, 73.659 190 C 72.999 190, 57.506 204.978, 39.230 223.285 M 44.500 229 L 19.515 254 44.758 254 L 70 254 70 229 C 70 215.250, 69.884 204, 69.742 204 C 69.601 204, 58.242 215.250, 44.500 229 " stroke="none" fill="black" fill-rule="evenodd"/>
</svg>