<svg xmlns="http://www.w3.org/2000/svg" width="308" height="324" viewBox="0 0 308 324" version="1.1">
	<path d="M 7.571 159.571 C 6.207 160.936, 6 165.463, 6 194 C 6 222.537, 6.207 227.064, 7.571 228.429 C 8.436 229.293, 9.636 230, 10.239 230 C 10.841 230, 17.334 224.059, 24.667 216.798 L 38 203.595 38 215.763 C 38 226.768, 38.185 228.028, 39.934 228.965 C 41.154 229.617, 53.876 230, 74.363 230 C 102.570 230, 107.064 229.793, 108.429 228.429 C 109.678 227.180, 110 224.463, 110 215.192 L 110 203.528 123.372 216.872 C 134.492 227.970, 137.102 230.102, 138.872 229.541 C 140.042 229.169, 141.010 228.446, 141.021 227.933 C 141.033 227.420, 141.042 212.150, 141.042 194 C 141.042 175.850, 141.033 160.580, 141.021 160.067 C 141.010 159.554, 140.042 158.831, 138.872 158.459 C 137.102 157.898, 134.492 160.030, 123.372 171.128 L 110 184.472 110 172.808 C 110 163.537, 109.678 160.820, 108.429 159.571 C 107.064 158.207, 102.570 158, 74.363 158 C 53.876 158, 41.154 158.383, 39.934 159.035 C 38.185 159.972, 38 161.232, 38 172.237 L 38 184.405 24.667 171.202 C 17.334 163.941, 10.841 158, 10.239 158 C 9.636 158, 8.436 158.707, 7.571 159.571 M 46 194 L 46 222 74 222 L 102 222 102 194 L 102 166 74 166 L 46 166 46 194 M 121.995 182.506 L 110.522 194.011 122.261 205.750 L 134 217.489 134 194.245 C 134 181.460, 133.880 171, 133.734 171 C 133.587 171, 128.305 176.177, 121.995 182.506 M 14 194 L 14 216.489 25.244 205.244 L 36.489 194 25.244 182.756 L 14 171.511 14 194 M 167.200 191.200 C 166.314 192.086, 166 201.237, 166 226.165 C 166 259.255, 166.041 259.952, 168.064 261.034 C 172.436 263.374, 172.997 261.239, 173.032 242.128 C 173.057 228.025, 173.307 224.831, 174.282 226.158 C 174.952 227.070, 177.525 230.626, 180 234.061 C 188.165 245.392, 202.359 254.840, 217 258.688 C 227.128 261.350, 242.443 260.901, 252.521 257.647 C 267.688 252.751, 280.534 243.105, 288.939 230.302 L 293.955 222.662 294.227 241.473 C 294.463 257.752, 294.724 260.425, 296.166 261.334 C 297.376 262.096, 298.270 262.021, 299.429 261.059 C 300.844 259.885, 300.996 255.859, 300.763 225.725 C 300.522 194.593, 300.352 191.624, 298.750 190.614 C 295.421 188.515, 293.670 191.009, 292.443 199.601 C 291.032 209.474, 289.691 213.700, 285.261 222.238 C 278.989 234.327, 266.130 245.307, 252.723 250.024 C 244.163 253.035, 227.795 253.832, 219.283 251.651 C 209.288 249.090, 200.356 244.146, 192.606 236.882 C 181.246 226.235, 175.553 214.826, 174.022 199.644 C 173.269 192.178, 172.262 190.056, 169.450 190.015 C 168.873 190.007, 167.860 190.540, 167.200 191.200 " stroke="none" fill="black" fill-rule="evenodd"/>
</svg>