<svg xmlns="http://www.w3.org/2000/svg" width="340" height="324" viewBox="0 0 340 324" version="1.1">
	<path d="M 55.571 63.571 C 54.707 64.436, 54 65.317, 54 65.531 C 54 66.993, 71.421 100.653, 72.488 101.252 C 73.225 101.665, 74.440 101.768, 75.187 101.482 C 77.102 100.747, 94.082 66.377, 93.403 64.609 C 92.732 62.858, 90.483 61.877, 88.705 62.560 C 87.993 62.833, 84.520 68.894, 80.986 76.028 C 77.453 83.163, 74.308 89, 73.997 89 C 73.687 89, 70.748 83.534, 67.467 76.853 C 59.925 61.499, 58.847 60.296, 55.571 63.571 M 70.667 126.667 C 69.218 128.115, 70.152 131.181, 73.293 135.297 C 79.709 143.703, 81.492 149.289, 81.496 161 C 81.500 170.674, 81.256 172.015, 78.397 178.047 C 76.691 181.648, 73.937 186.148, 72.279 188.047 C 61.210 200.718, 56.618 211.553, 56.619 225 C 56.620 237.559, 60.606 248.130, 68.732 257.125 C 72.667 261.481, 76.461 262.274, 77.513 258.960 C 77.987 257.465, 77.173 255.827, 74.468 252.833 C 72.438 250.586, 69.364 245.766, 67.638 242.123 C 64.740 236.007, 64.500 234.696, 64.500 225 C 64.500 215.295, 64.737 214.008, 67.623 208 C 69.341 204.425, 73.048 198.665, 75.861 195.199 C 78.674 191.734, 82.070 187.009, 83.409 184.699 C 91.169 171.309, 91.146 150.649, 83.356 137.210 C 78.351 128.576, 73.111 124.222, 70.667 126.667 M 327.750 127.080 C 326.114 128.033, 326 132.045, 326 188.793 L 326 249.487 296.244 219.744 C 279.878 203.385, 266.185 190, 265.815 190 C 264.716 190, 262 193.051, 262 194.287 C 262 195.713, 328.079 262.006, 329.480 261.985 C 333.089 261.931, 333.085 262.010, 333.021 194.493 C 332.955 123.527, 332.994 124.026, 327.750 127.080 M 23.282 175.282 C 13.777 184.787, 6 193.210, 6 194 C 6 195.693, 40.031 230, 41.710 230 C 43.173 230, 46 227.200, 46 225.751 C 46 225.143, 39.156 217.750, 30.792 209.323 L 15.584 194 30.792 178.677 C 39.156 170.250, 46 162.857, 46 162.249 C 46 160.800, 43.173 158, 41.710 158 C 41.079 158, 32.787 165.777, 23.282 175.282 M 103.571 159.571 C 102.707 160.436, 102 161.640, 102 162.249 C 102 162.857, 108.844 170.250, 117.208 178.677 L 132.416 194 117.208 209.323 C 108.844 217.750, 102 225.143, 102 225.751 C 102 227.200, 104.827 230, 106.290 230 C 107.969 230, 142 195.693, 142 194 C 142 192.307, 107.969 158, 106.290 158 C 105.659 158, 104.436 158.707, 103.571 159.571 M 167.585 191.558 C 165.598 193.545, 165.595 194.452, 167.571 196.429 C 168.855 197.712, 171.788 198, 183.571 198 L 198 198 198 226 L 198 254 183.571 254 C 171.788 254, 168.855 254.288, 167.571 255.571 C 165.595 257.548, 165.598 258.455, 167.585 260.442 C 168.978 261.835, 173.159 261.995, 202.226 261.763 C 232.452 261.523, 235.377 261.350, 236.386 259.750 C 237.190 258.475, 237.191 257.525, 236.387 256.250 C 235.433 254.736, 233.314 254.463, 220.643 254.223 L 206 253.947 206 226 L 206 198.053 220.643 197.777 C 233.314 197.537, 235.433 197.264, 236.387 195.750 C 237.191 194.475, 237.190 193.525, 236.386 192.250 C 235.377 190.650, 232.452 190.477, 202.226 190.237 C 173.159 190.005, 168.978 190.165, 167.585 191.558 " stroke="none" fill="black" fill-rule="evenodd"/>
</svg>