<svg xmlns="http://www.w3.org/2000/svg" width="340" height="324" viewBox="0 0 340 324" version="1.1">
	<path d="M 64.500 126.944 C 48.438 129.544, 38.175 134.825, 26.498 146.500 C 13.978 159.017, 8.459 170.637, 6.503 188.598 C 5.964 193.549, 6.150 195.007, 7.491 196.348 C 10.992 199.850, 14 196.834, 14 189.823 C 14 176.987, 20.739 162.179, 31.459 151.459 C 43.180 139.738, 56.926 133.986, 73.144 134.015 C 90.232 134.045, 103.740 139.621, 115.620 151.548 C 126.033 162.002, 133 177.471, 133 190.139 C 133 194.531, 134.742 198, 136.949 198 C 139.096 198, 140.311 194.526, 140.110 188.962 C 139.808 180.596, 137.639 172.851, 132.837 163 C 125.086 147.097, 107.794 133.062, 90.500 128.638 C 82.849 126.680, 70.928 125.904, 64.500 126.944 M 227.500 126.908 C 221.277 128.019, 214.576 131.428, 209.601 136.014 C 204.978 140.275, 199.013 150.612, 198.985 154.410 C 198.961 157.625, 197.845 158.649, 193.500 159.440 C 183.871 161.193, 173.986 169.481, 169.189 179.825 C 167.038 184.462, 166.556 186.964, 166.556 193.500 C 166.556 200.036, 167.038 202.538, 169.189 207.175 C 179.800 230.055, 208.420 235.688, 225.777 218.313 C 232.661 211.422, 235.383 205.282, 235.847 195.598 C 236.059 191.176, 235.696 185.892, 235.023 183.598 C 231.931 173.057, 222.243 163.272, 211.884 160.228 C 205.223 158.271, 204.796 157.237, 207.867 150.500 C 212.367 140.630, 220.361 134.993, 230.933 134.237 C 242.422 133.415, 251.719 138.077, 256.987 147.302 C 261.015 154.354, 261.613 159.473, 259.602 169.707 C 256.590 185.038, 250.203 200.636, 241.458 214.021 C 235.048 223.832, 216.523 242.361, 207 248.487 C 197.925 254.325, 196.726 255.620, 198.074 258.138 C 199.605 261, 201.986 260.412, 209.769 255.250 C 239.564 235.487, 258.358 208.042, 266.469 172.449 C 269.069 161.040, 268.648 154.521, 264.771 146.189 C 258.612 132.951, 241.945 124.328, 227.500 126.908 M 294.667 127.667 C 292.973 129.360, 294.520 131.926, 301.041 138.244 C 316.558 153.276, 325 172.746, 325 193.500 C 325 214.531, 316.571 233.719, 300.497 249.280 C 292.907 256.629, 291.900 258.980, 295.718 260.445 C 301.095 262.509, 320.013 240.429, 326.279 224.777 C 329.977 215.538, 332 204.480, 332 193.500 C 332 182.520, 329.977 171.462, 326.279 162.223 C 319.236 144.631, 299.393 122.940, 294.667 127.667 M 71.571 159.571 C 70.707 160.436, 70 161.529, 70 162 C 70 162.471, 70.707 163.564, 71.571 164.429 C 72.436 165.293, 73.529 166, 74 166 C 74.471 166, 75.564 165.293, 76.429 164.429 C 77.293 163.564, 78 162.471, 78 162 C 78 161.529, 77.293 160.436, 76.429 159.571 C 75.564 158.707, 74.471 158, 74 158 C 73.529 158, 72.436 158.707, 71.571 159.571 M 191.627 167.468 C 186.247 169.386, 181.039 173.829, 177.500 179.519 C 174.982 183.568, 174.444 185.582, 174.150 192.050 C 173.760 200.623, 175.420 205.822, 180.447 211.770 C 186.859 219.355, 199.147 222.900, 209.231 220.074 C 220.579 216.894, 229 205.574, 229 193.500 C 229 182.038, 221.486 171.200, 210.965 167.488 C 205.743 165.645, 196.766 165.636, 191.627 167.468 M 39.571 191.571 C 38.707 192.436, 38 193.529, 38 194 C 38 194.471, 38.707 195.564, 39.571 196.429 C 40.936 197.793, 45.456 198, 73.916 198 C 105.420 198, 106.760 197.922, 108.500 196 C 110.247 194.070, 110.247 193.930, 108.500 192 C 106.760 190.078, 105.420 190, 73.916 190 C 45.456 190, 40.936 190.207, 39.571 191.571 M 71.571 223.571 C 70.707 224.436, 70 225.529, 70 226 C 70 226.471, 70.707 227.564, 71.571 228.429 C 72.436 229.293, 73.529 230, 74 230 C 74.471 230, 75.564 229.293, 76.429 228.429 C 77.293 227.564, 78 226.471, 78 226 C 78 225.529, 77.293 224.436, 76.429 223.571 C 75.564 222.707, 74.471 222, 74 222 C 73.529 222, 72.436 222.707, 71.571 223.571 " stroke="none" fill="black" fill-rule="evenodd"/>
</svg>