<svg xmlns="http://www.w3.org/2000/svg" width="436" height="324" viewBox="0 0 436 324" version="1.1">
	<path d="M 247.213 111.315 C 237.746 120.838, 230 129.131, 230 129.743 C 230 131.175, 232.813 134, 234.239 134 C 234.841 134, 241.334 128.059, 248.667 120.798 L 262 107.595 262 135.226 C 262 159.012, 262.219 163.076, 263.571 164.429 C 265.678 166.535, 266.598 166.412, 268.443 163.777 C 269.759 161.899, 270 157.376, 270 134.575 L 270 107.595 283.333 120.798 C 290.666 128.059, 297.136 134, 297.710 134 C 299.591 134, 301.235 131.074, 300.654 128.763 C 299.960 126.006, 267.957 94, 265.894 94 C 265.086 94, 256.680 101.792, 247.213 111.315 M 183.315 175.213 C 173.792 184.680, 166 193.134, 166 194 C 166 195.761, 199.994 230, 201.743 230 C 203.175 230, 206 227.187, 206 225.761 C 206 225.159, 200.059 218.666, 192.798 211.333 L 179.595 198 207.226 198 C 231.012 198, 235.076 197.781, 236.429 196.429 C 238.402 194.455, 238.402 193.545, 236.429 191.571 C 235.076 190.219, 231.012 190, 207.226 190 L 179.595 190 192.798 176.667 C 200.059 169.334, 206 162.841, 206 162.239 C 206 160.813, 203.175 158, 201.743 158 C 201.131 158, 192.838 165.746, 183.315 175.213 M 327.750 159.080 C 326.788 159.641, 326 160.858, 326 161.786 C 326 162.714, 331.956 169.442, 339.236 176.737 L 352.472 190 325.170 190 C 308.263 190, 297.132 190.394, 295.934 191.035 C 294.870 191.605, 294 192.939, 294 194 C 294 195.061, 294.870 196.395, 295.934 196.965 C 297.132 197.606, 308.263 198, 325.170 198 L 352.472 198 339.236 211.263 C 331.956 218.558, 326 225.292, 326 226.228 C 326 227.164, 326.917 228.421, 328.038 229.020 C 329.811 229.969, 331.015 229.272, 337.288 223.655 C 347.519 214.497, 365.996 195.282, 366.024 193.771 C 366.048 192.477, 331.459 157.975, 330.193 158.030 C 329.812 158.047, 328.712 158.519, 327.750 159.080 M 391.750 159.080 C 390.155 160.009, 390 162.388, 390 186.015 C 390 211.174, 390.060 211.962, 392.064 213.034 C 393.596 213.854, 394.498 213.832, 395.564 212.947 C 396.744 211.968, 397 207.174, 397 186.078 C 397 157.906, 396.671 156.214, 391.750 159.080 M 39.267 223.267 C 20.970 241.563, 6 257.056, 6 257.695 C 6 259.187, 8.799 262, 10.285 262 C 10.913 262, 25.509 247.944, 42.721 230.764 L 74.015 199.527 105.264 230.764 C 122.450 247.944, 137.039 262, 137.684 262 C 138.329 262, 139.564 261.293, 140.429 260.429 C 141.793 259.064, 142 254.537, 142 226 C 142 197.463, 141.793 192.936, 140.429 191.571 C 138.455 189.598, 137.545 189.598, 135.571 191.571 C 134.219 192.924, 134 196.990, 134 220.799 L 134 248.455 104.711 219.227 C 88.602 203.152, 74.772 190, 73.978 190 C 73.183 190, 57.563 204.970, 39.267 223.267 M 391.750 222.080 C 389.372 223.465, 389.542 226.685, 392.064 228.034 C 395.753 230.008, 398.819 225.219, 395.800 222.200 C 394.367 220.767, 394.022 220.757, 391.750 222.080 M 263.571 223.571 C 262.219 224.924, 262 228.988, 262 252.774 L 262 280.405 248.667 267.202 C 241.334 259.941, 234.841 254, 234.239 254 C 232.813 254, 230 256.825, 230 258.257 C 230 259.939, 264.204 294, 265.894 294 C 267.957 294, 299.960 261.994, 300.654 259.237 C 301.235 256.926, 299.591 254, 297.710 254 C 297.136 254, 290.666 259.941, 283.333 267.202 L 270 280.405 270 253.425 C 270 230.624, 269.759 226.101, 268.443 224.223 C 266.598 221.588, 265.678 221.465, 263.571 223.571 " stroke="none" fill="black" fill-rule="evenodd"/>
</svg>