<svg xmlns="http://www.w3.org/2000/svg" width="436" height="324" viewBox="0 0 436 324" version="1.1">
	<path d="M 135.571 127.571 C 134.707 128.436, 134 129.529, 134 130 C 134 130.471, 134.707 131.564, 135.571 132.429 C 136.966 133.824, 144.152 134, 199.571 134 L 262 134 262 194 L 262 254 135.571 254 C 21.970 254, 8.983 254.159, 7.571 255.571 C 5.598 257.545, 5.598 258.455, 7.571 260.429 C 8.984 261.841, 22.190 262, 138 262 C 253.810 262, 267.016 261.841, 268.429 260.429 C 269.825 259.032, 270 251.628, 270 194 C 270 136.372, 269.825 128.968, 268.429 127.571 C 267.032 126.175, 259.628 126, 202 126 C 144.372 126, 136.968 126.175, 135.571 127.571 M 349.500 127.436 C 337.349 129.829, 329.712 133.318, 319.500 141.140 C 313.884 145.442, 314.166 145.173, 310.024 150.139 C 304.834 156.360, 300.038 165.167, 297.304 173.500 C 295.060 180.336, 294.678 183.245, 294.678 193.500 C 294.678 203.755, 295.060 206.664, 297.304 213.500 C 300.607 223.567, 306.254 233.088, 313.780 241.284 C 316.268 243.993, 327.174 251.450, 332.358 253.985 C 341.506 258.460, 359.754 262.213, 365.823 260.869 C 367.845 260.421, 372.381 259.516, 375.902 258.858 C 388.392 256.525, 404.941 246.504, 412.826 236.500 C 423.131 223.425, 428 209.628, 428 193.500 C 428 167.307, 414.491 145.446, 390.913 133.482 C 378.501 127.183, 362.581 124.859, 349.500 127.436 M 345.500 135.893 C 338.547 137.923, 328.818 142.785, 324.500 146.389 L 321.500 148.893 339.750 167.193 L 358 185.493 358 159.747 L 358 134 354.750 134.071 C 352.962 134.110, 348.800 134.930, 345.500 135.893 M 365 159.240 L 365 184.479 382.985 166.515 L 400.970 148.551 398.235 146.277 C 391.861 140.978, 374.272 134, 367.290 134 L 365 134 365 159.240 M 313.537 157.541 C 305.979 167.450, 302 179.851, 302 193.500 C 302 207.174, 306.479 220.955, 313.789 229.769 L 316.500 233.038 336.250 213.260 L 356 193.481 336.172 173.671 L 316.343 153.861 313.537 157.541 M 386.240 173.259 C 375.658 183.852, 367 192.969, 367 193.519 C 367 195.306, 406.021 233.541, 406.782 232.500 C 417.399 217.966, 420.513 208.977, 420.466 193 C 420.436 183.092, 420.060 180.469, 417.747 174.052 C 415.407 167.560, 407.462 154, 405.998 154 C 405.714 154, 396.823 162.667, 386.240 173.259 M 339.500 220.046 L 321.500 238.114 324.500 240.641 C 329.553 244.897, 342.619 250.750, 350.020 252.073 C 353.865 252.760, 357.241 253.092, 357.523 252.810 C 357.805 252.529, 357.915 240.976, 357.767 227.138 L 357.500 201.977 339.500 220.046 M 365 227.760 L 365 253 367.290 253 C 374.272 253, 391.861 246.022, 398.235 240.723 L 400.970 238.449 382.985 220.485 L 365 202.521 365 227.760 " stroke="none" fill="black" fill-rule="evenodd"/>
</svg>