<svg xmlns="http://www.w3.org/2000/svg" width="403" height="324" viewBox="0 0 403 324" version="1.1">
	<path d="M 7.571 63.571 C 5.243 65.900, 5.243 98.100, 7.571 100.429 C 9.900 102.757, 42.100 102.757, 44.429 100.429 C 46.757 98.100, 46.757 65.900, 44.429 63.571 C 42.100 61.243, 9.900 61.243, 7.571 63.571 M 14 82 L 14 94 26 94 L 38 94 38 82 L 38 70 26 70 L 14 70 14 82 M 280.530 142 L 264.424 158 233.146 158 C 213.498 158, 201.149 158.385, 199.934 159.035 C 197.446 160.367, 197.446 163.633, 199.934 164.965 C 201.132 165.606, 212.266 166, 229.180 166 L 256.492 166 211.246 211.254 C 186.361 236.144, 166 257.278, 166 258.219 C 166 259.160, 166.960 260.443, 168.133 261.071 C 170.081 262.114, 171.660 260.820, 186.383 246.119 L 202.500 230.026 234.891 229.763 C 264.483 229.523, 267.378 229.349, 268.386 227.750 C 269.191 226.474, 269.191 225.526, 268.387 224.250 C 267.392 222.671, 264.530 222.451, 239.137 222 L 210.991 221.500 255.996 176.514 C 280.748 151.772, 301 130.825, 301 129.964 C 301 128.211, 299.114 126, 297.619 126 C 297.079 126, 289.389 133.200, 280.530 142 M 354.355 126.998 C 339.671 130.051, 327.598 143.314, 326.281 157.839 C 325.792 163.230, 325.948 163.902, 327.935 164.965 C 331.088 166.653, 332.616 164.950, 333.426 158.845 C 334.691 149.309, 340.683 140.801, 349.256 136.368 C 351.031 135.450, 355.527 134.481, 359.245 134.215 C 367.414 133.630, 373.459 135.613, 379.132 140.738 C 387.581 148.372, 389.881 155.944, 387.541 168.430 C 381.469 200.837, 362.201 229.880, 334.291 248.695 C 329.458 251.952, 325.364 255.351, 325.191 256.247 C 325.018 257.144, 325.811 258.811, 326.952 259.952 C 328.980 261.980, 329.783 262.021, 362.155 261.763 C 392.448 261.523, 395.377 261.350, 396.386 259.750 C 397.191 258.474, 397.191 257.526, 396.386 256.250 C 395.386 254.663, 392.703 254.475, 367.562 254.234 L 339.842 253.968 345.171 249.973 C 359.747 239.047, 374.289 221.615, 382.827 204.834 C 390.061 190.615, 396 170.503, 396 160.224 C 396 147.156, 385.833 133.028, 373.228 128.580 C 367.797 126.664, 359.362 125.957, 354.355 126.998 M 15.308 199.308 C 10.188 204.427, 6 209.120, 6 209.736 C 6 211.121, 8.789 214, 10.131 214 C 10.675 214, 13.568 211.685, 16.560 208.855 L 22 203.710 22 228.855 L 22 254 15.571 254 C 11.061 254, 8.674 254.469, 7.571 255.571 C 5.598 257.545, 5.598 258.455, 7.571 260.429 C 9.900 262.757, 42.100 262.757, 44.429 260.429 C 46.402 258.455, 46.402 257.545, 44.429 255.571 C 43.326 254.469, 40.939 254, 36.429 254 L 30 254 30 223.571 C 30 197.242, 29.788 192.931, 28.429 191.571 C 27.564 190.707, 26.353 190, 25.736 190 C 25.120 190, 20.427 194.188, 15.308 199.308 M 71.585 191.558 C 69.598 193.545, 69.595 194.452, 71.571 196.429 C 72.855 197.712, 75.788 198, 87.571 198 L 102 198 102 226 L 102 254 87.571 254 C 75.788 254, 72.855 254.288, 71.571 255.571 C 69.595 257.548, 69.598 258.455, 71.585 260.442 C 72.978 261.835, 77.159 261.995, 106.226 261.763 C 136.452 261.523, 139.377 261.350, 140.386 259.750 C 141.190 258.475, 141.191 257.525, 140.387 256.250 C 139.433 254.736, 137.314 254.463, 124.643 254.223 L 110 253.947 110 226 L 110 198.053 124.643 197.777 C 137.314 197.537, 139.433 197.264, 140.387 195.750 C 141.191 194.475, 141.190 193.525, 140.386 192.250 C 139.377 190.650, 136.452 190.477, 106.226 190.237 C 77.159 190.005, 72.978 190.165, 71.585 191.558 " stroke="none" fill="black" fill-rule="evenodd"/>
</svg>