<svg xmlns="http://www.w3.org/2000/svg" width="244" height="324" viewBox="0 0 244 324" version="1.1">
	<path d="M 7.200 127.200 C 5.465 128.935, 5.465 259.065, 7.200 260.800 C 8.109 261.709, 24.229 262, 73.629 262 C 131.594 262, 139.032 261.825, 140.429 260.429 C 141.825 259.032, 142 251.628, 142 194 C 142 136.372, 141.825 128.968, 140.429 127.571 C 139.032 126.175, 131.594 126, 73.629 126 C 24.229 126, 8.109 126.291, 7.200 127.200 M 14 194 L 14 254 74 254 L 134 254 134 194 L 134 134 74 134 L 14 134 14 194 M 193.746 159.027 C 183.233 161.669, 174.023 169.382, 169.302 179.500 C 166.964 184.509, 166.503 186.822, 166.511 193.500 C 166.518 200.145, 166.996 202.535, 169.334 207.610 C 172.865 215.277, 179.702 222.073, 187.500 225.665 C 203.961 233.249, 224.762 225.410, 233.049 208.500 C 235.153 204.207, 235.500 202.086, 235.500 193.500 C 235.500 181.464, 233.483 176.393, 225.518 168.404 C 217.687 160.548, 203.894 156.477, 193.746 159.027 M 191.385 167.617 C 176.729 172.815, 169.477 191.530, 176.588 205.801 C 186.682 226.057, 215.796 226.002, 226.150 205.707 C 228.708 200.692, 229.594 191.874, 228.096 186.337 C 224.926 174.621, 213.582 165.926, 201.663 166.079 C 198.273 166.122, 193.648 166.815, 191.385 167.617 M 71.571 191.571 C 70.707 192.436, 70 193.529, 70 194 C 70 194.471, 70.707 195.564, 71.571 196.429 C 72.436 197.293, 73.529 198, 74 198 C 74.471 198, 75.564 197.293, 76.429 196.429 C 77.293 195.564, 78 194.471, 78 194 C 78 193.529, 77.293 192.436, 76.429 191.571 C 75.564 190.707, 74.471 190, 74 190 C 73.529 190, 72.436 190.707, 71.571 191.571 " stroke="none" fill="black" fill-rule="evenodd"/>
</svg>