<svg xmlns="http://www.w3.org/2000/svg" width="244" height="324" viewBox="0 0 244 324" version="1.1">
	<path d="M 7.571 127.571 C 6.707 128.436, 6 129.529, 6 130 C 6 130.471, 6.707 131.564, 7.571 132.429 C 8.966 133.824, 16.152 134, 71.571 134 L 134 134 134 194 L 134 254 71.571 254 C 16.152 254, 8.966 254.176, 7.571 255.571 C 5.598 257.545, 5.598 258.455, 7.571 260.429 C 8.968 261.825, 16.372 262, 74 262 C 131.628 262, 139.032 261.825, 140.429 260.429 C 141.825 259.032, 142 251.628, 142 194 C 142 136.372, 141.825 128.968, 140.429 127.571 C 139.032 126.175, 131.628 126, 74 126 C 16.372 126, 8.968 126.175, 7.571 127.571 M 55.213 159.315 C 45.746 168.838, 38 177.131, 38 177.743 C 38 179.180, 40.815 182, 42.249 182 C 42.857 182, 50.250 175.156, 58.677 166.792 L 74 151.584 89.323 166.792 C 97.750 175.156, 105.143 182, 105.751 182 C 107.200 182, 110 179.173, 110 177.710 C 110 175.988, 75.671 142, 73.931 142 C 73.103 142, 64.680 149.792, 55.213 159.315 M 193.746 159.027 C 183.218 161.673, 173.993 169.407, 169.329 179.500 C 165.374 188.059, 165.386 198.895, 169.361 207.610 C 172.861 215.285, 179.689 222.075, 187.480 225.629 C 195.387 229.236, 205.732 229.409, 214.297 226.077 C 221.354 223.331, 229.569 215.634, 233.056 208.500 C 235.152 204.212, 235.500 202.075, 235.500 193.500 C 235.500 181.464, 233.483 176.393, 225.518 168.404 C 217.687 160.548, 203.894 156.477, 193.746 159.027 M 191.385 167.617 C 176.729 172.815, 169.477 191.530, 176.588 205.801 C 186.682 226.057, 215.796 226.002, 226.150 205.707 C 228.708 200.692, 229.594 191.874, 228.096 186.337 C 224.926 174.621, 213.582 165.926, 201.663 166.079 C 198.273 166.122, 193.648 166.815, 191.385 167.617 " stroke="none" fill="black" fill-rule="evenodd"/>
</svg>