<svg xmlns="http://www.w3.org/2000/svg" width="340" height="324" viewBox="0 0 340 324" version="1.1">
	<path d="M 7.571 63.571 C 5.243 65.900, 5.243 98.100, 7.571 100.429 C 9.900 102.757, 42.100 102.757, 44.429 100.429 C 46.757 98.100, 46.757 65.900, 44.429 63.571 C 42.100 61.243, 9.900 61.243, 7.571 63.571 M 14 82 L 14 94 26 94 L 38 94 38 82 L 38 70 26 70 L 14 70 14 82 M 131 126.882 C 124.932 128.199, 118.308 131.675, 113.601 136.014 C 109.147 140.119, 103 150.594, 103 154.078 C 103 157.489, 101.788 159, 99.053 159 C 94.715 159, 84.588 164.639, 80.013 169.602 C 73.375 176.803, 70.556 183.927, 70.556 193.500 C 70.556 200.036, 71.038 202.538, 73.189 207.175 C 78.358 218.320, 87.718 225.697, 99.635 228.019 C 115.176 231.048, 132.352 221.291, 138.043 206.202 C 142.618 194.069, 140.017 179.684, 131.545 170.261 C 126.721 164.896, 119.514 160.542, 113.663 159.456 C 109.883 158.755, 109.835 158.690, 110.487 155.122 C 112.711 142.949, 124.519 133.893, 137.928 134.076 C 148.063 134.214, 156.694 139.290, 161.325 147.833 C 165.284 155.139, 165.695 161.403, 162.975 173 C 155.698 204.025, 137.255 231.014, 111.632 248.130 C 101.385 254.975, 100.744 255.653, 102.105 258.196 C 103.721 261.215, 106.762 260.273, 116.139 253.850 C 143.179 235.330, 161.337 209.183, 169.626 176.833 C 174.417 158.129, 172.349 147.189, 162.080 136.920 C 153.942 128.782, 141.205 124.668, 131 126.882 M 199.571 127.571 C 198.175 128.968, 198 136.372, 198 194 C 198 251.628, 198.175 259.032, 199.571 260.429 C 201.678 262.535, 202.598 262.412, 204.443 259.777 C 205.768 257.887, 206 253.110, 206 227.777 L 206 198 263.236 198 L 320.472 198 307.236 211.263 C 299.956 218.558, 294 225.292, 294 226.228 C 294 227.164, 294.952 228.439, 296.115 229.062 C 298.040 230.092, 299.775 228.675, 315.354 213.347 C 324.772 204.081, 332.843 195.938, 333.289 195.250 C 333.734 194.563, 333.734 193.438, 333.289 192.750 C 332.843 192.063, 324.772 183.919, 315.354 174.653 C 299.775 159.325, 298.040 157.908, 296.115 158.938 C 294.952 159.561, 294 160.836, 294 161.772 C 294 162.708, 299.956 169.442, 307.236 176.737 L 320.472 190 263.236 190 L 206 190 206 160.223 C 206 134.890, 205.768 130.113, 204.443 128.223 C 202.598 125.588, 201.678 125.465, 199.571 127.571 M 95.054 167.728 C 89.018 169.859, 81.781 177.260, 79.667 183.463 C 73.189 202.476, 85.963 221, 105.552 221 C 120.843 221, 133 208.819, 133 193.500 C 133 182.038, 125.486 171.200, 114.965 167.488 C 109.610 165.598, 100.784 165.705, 95.054 167.728 M 15.308 199.308 C 10.188 204.427, 6 209.120, 6 209.736 C 6 211.121, 8.789 214, 10.131 214 C 10.675 214, 13.568 211.685, 16.560 208.855 L 22 203.710 22 228.855 L 22 254 15.571 254 C 11.061 254, 8.674 254.469, 7.571 255.571 C 5.598 257.545, 5.598 258.455, 7.571 260.429 C 9.900 262.757, 42.100 262.757, 44.429 260.429 C 46.402 258.455, 46.402 257.545, 44.429 255.571 C 43.326 254.469, 40.939 254, 36.429 254 L 30 254 30 223.571 C 30 197.242, 29.788 192.931, 28.429 191.571 C 27.564 190.707, 26.353 190, 25.736 190 C 25.120 190, 20.427 194.188, 15.308 199.308 " stroke="none" fill="black" fill-rule="evenodd"/>
</svg>