<svg xmlns="http://www.w3.org/2000/svg" width="148" height="324" viewBox="0 0 148 324" version="1.1">
	<path d="M 55.200 63.200 C 53.512 64.888, 53.512 99.112, 55.200 100.800 C 56.040 101.640, 61.562 102, 73.629 102 C 87.958 102, 91.122 101.736, 92.429 100.429 C 94.757 98.100, 94.757 65.900, 92.429 63.571 C 91.122 62.264, 87.958 62, 73.629 62 C 61.562 62, 56.040 62.360, 55.200 63.200 M 62 82 L 62 94 74 94 L 86 94 86 82 L 86 70 74 70 L 62 70 62 82 M 7.207 191.193 C 6.543 191.857, 6 193.107, 6 193.970 C 6 195.747, 71.944 262, 73.713 262 C 75.190 262, 78 259.193, 78 257.718 C 78 257.091, 64.851 243.402, 48.781 227.297 L 19.561 198.016 79.422 197.758 C 135.181 197.518, 139.358 197.380, 140.386 195.750 C 141.191 194.474, 141.191 193.526, 140.386 192.250 C 139.356 190.617, 134.916 190.483, 73.848 190.243 C 23.786 190.046, 8.131 190.269, 7.207 191.193 " stroke="none" fill="black" fill-rule="evenodd"/>
</svg>