<svg xmlns="http://www.w3.org/2000/svg" width="180" height="324" viewBox="0 0 180 324" version="1.1">
	<path d="M 129.384 127.412 C 111.475 131.758, 99.559 149.807, 102.987 167.396 C 105.770 181.681, 117.103 193.554, 129.908 195.601 L 134 196.256 134 227.556 C 134 254.678, 134.210 259.067, 135.571 260.429 C 136.436 261.293, 137.529 262, 138 262 C 138.471 262, 139.564 261.293, 140.429 260.429 C 141.790 259.067, 142 254.677, 142 227.540 L 142 196.223 145.703 195.528 C 154.178 193.938, 163.709 186.644, 168.232 178.288 C 179.343 157.761, 168.001 132.740, 145.147 127.360 C 138.397 125.772, 136.111 125.779, 129.384 127.412 M 127.054 135.728 C 121.018 137.859, 113.781 145.260, 111.667 151.463 C 105.198 170.450, 117.964 189, 137.500 189 C 153.108 189, 165 177.108, 165 161.500 C 165 145.670, 152.965 133.854, 137.072 134.079 C 134.007 134.122, 129.499 134.864, 127.054 135.728 M 71.571 191.571 C 70.707 192.436, 70 193.529, 70 194 C 70 194.471, 70.707 195.564, 71.571 196.429 C 72.436 197.293, 73.529 198, 74 198 C 74.471 198, 75.564 197.293, 76.429 196.429 C 77.293 195.564, 78 194.471, 78 194 C 78 193.529, 77.293 192.436, 76.429 191.571 C 75.564 190.707, 74.471 190, 74 190 C 73.529 190, 72.436 190.707, 71.571 191.571 M 7.571 255.571 C 6.707 256.436, 6 257.529, 6 258 C 6 259.111, 8.889 262, 10 262 C 11.111 262, 14 259.111, 14 258 C 14 256.889, 11.111 254, 10 254 C 9.529 254, 8.436 254.707, 7.571 255.571 M 71.571 255.571 C 70.707 256.436, 70 257.529, 70 258 C 70 259.111, 72.889 262, 74 262 C 75.111 262, 78 259.111, 78 258 C 78 256.889, 75.111 254, 74 254 C 73.529 254, 72.436 254.707, 71.571 255.571 " stroke="none" fill="black" fill-rule="evenodd"/>
</svg>