<svg xmlns="http://www.w3.org/2000/svg" width="372" height="324" viewBox="0 0 372 324" version="1.1">
	<path d="M 64.500 126.944 C 56.325 128.268, 50.930 129.991, 43 133.814 C 32.444 138.903, 18.927 152.404, 13.778 163 C 7.648 175.615, 4.334 193.191, 7.491 196.348 C 9.547 198.404, 10.439 198.418, 12.429 196.429 C 13.404 195.453, 14.006 193.082, 14.015 190.179 C 14.091 166.127, 34.559 141.323, 59.103 135.537 C 66.646 133.759, 78.760 133.559, 86.201 135.090 C 89.115 135.690, 95.325 138.005, 100 140.235 C 118.952 149.275, 133 170.664, 133 190.478 C 133 193.126, 133.621 195.478, 134.571 196.429 C 136.561 198.418, 137.453 198.404, 139.509 196.348 C 142.666 193.191, 139.352 175.615, 133.222 163 C 128.126 152.513, 114.620 139.025, 104 133.819 C 91.592 127.735, 76.182 125.053, 64.500 126.944 M 227.270 127.054 C 213.477 129.776, 202.472 140.191, 199.515 153.322 C 198.385 158.341, 198.341 158.385, 193.322 159.515 C 186.827 160.978, 180.285 164.835, 175.710 169.900 C 157.027 190.579, 168.001 222.635, 195.604 228.013 C 218.779 232.529, 240.707 210.481, 236 187.396 C 233.161 173.471, 222.183 161.813, 209.703 159.472 C 205.492 158.682, 205.371 158.203, 207.667 151.463 C 209.875 144.983, 216.983 137.875, 223.463 135.667 C 238.524 130.536, 254.818 137.904, 259.486 151.957 C 262.850 162.085, 259.149 179.829, 249.569 199.500 C 239.085 221.027, 224.154 237.825, 204.613 250.077 C 198.812 253.714, 197.936 254.645, 198.198 256.895 C 198.713 261.332, 201.937 260.622, 212.108 253.832 C 235.282 238.363, 254.983 212.059, 263.286 185.500 C 267.700 171.384, 269.171 162.179, 268.004 155.983 C 265.123 140.678, 254.451 129.849, 239.535 127.091 C 232.994 125.882, 233.205 125.883, 227.270 127.054 M 71.571 159.571 C 70.707 160.436, 70 161.529, 70 162 C 70 162.471, 70.707 163.564, 71.571 164.429 C 72.436 165.293, 73.529 166, 74 166 C 74.471 166, 75.564 165.293, 76.429 164.429 C 77.293 163.564, 78 162.471, 78 162 C 78 161.529, 77.293 160.436, 76.429 159.571 C 75.564 158.707, 74.471 158, 74 158 C 73.529 158, 72.436 158.707, 71.571 159.571 M 191.054 167.728 C 185.018 169.859, 177.781 177.260, 175.667 183.463 C 171.995 194.241, 174.382 205.477, 181.952 213.048 C 192.673 223.769, 210.327 223.769, 221.048 213.048 C 231.769 202.327, 231.769 184.673, 221.048 173.952 C 213.519 166.424, 201.696 163.970, 191.054 167.728 M 39.571 191.571 C 38.707 192.436, 38 193.529, 38 194 C 38 194.471, 38.707 195.564, 39.571 196.429 C 40.936 197.793, 45.463 198, 74 198 C 102.537 198, 107.064 197.793, 108.429 196.429 C 109.293 195.564, 110 194.471, 110 194 C 110 193.529, 109.293 192.436, 108.429 191.571 C 107.064 190.207, 102.537 190, 74 190 C 45.463 190, 40.936 190.207, 39.571 191.571 M 295.571 191.571 C 294.707 192.436, 294 193.640, 294 194.249 C 294 194.857, 300.844 202.250, 309.208 210.677 L 324.416 226 309.208 241.323 C 300.844 249.750, 294 257.143, 294 257.751 C 294 259.181, 296.819 262, 298.249 262 C 298.857 262, 306.250 255.156, 314.677 246.792 L 330 231.584 345.323 246.792 C 353.750 255.156, 361.143 262, 361.751 262 C 363.181 262, 366 259.181, 366 257.751 C 366 257.143, 359.156 249.750, 350.792 241.323 L 335.584 226 350.792 210.677 C 359.156 202.250, 366 194.857, 366 194.249 C 366 192.819, 363.181 190, 361.751 190 C 361.143 190, 353.750 196.844, 345.323 205.208 L 330 220.416 314.677 205.208 C 306.250 196.844, 298.857 190, 298.249 190 C 297.640 190, 296.436 190.707, 295.571 191.571 M 71.571 223.571 C 70.707 224.436, 70 225.529, 70 226 C 70 226.471, 70.707 227.564, 71.571 228.429 C 72.436 229.293, 73.529 230, 74 230 C 74.471 230, 75.564 229.293, 76.429 228.429 C 77.293 227.564, 78 226.471, 78 226 C 78 225.529, 77.293 224.436, 76.429 223.571 C 75.564 222.707, 74.471 222, 74 222 C 73.529 222, 72.436 222.707, 71.571 223.571 " stroke="none" fill="black" fill-rule="evenodd"/>
</svg>