<svg xmlns="http://www.w3.org/2000/svg" width="564" height="324" viewBox="0 0 564 324" version="1.1">
	<path d="M 39.267 159.267 C 20.970 177.563, 6 193.056, 6 193.695 C 6 195.187, 8.799 198, 10.285 198 C 10.913 198, 25.506 183.947, 42.713 166.771 L 74 135.542 105.287 166.771 C 122.494 183.947, 137.087 198, 137.715 198 C 139.201 198, 142 195.187, 142 193.695 C 142 191.982, 75.721 126, 74 126 C 73.193 126, 57.563 140.970, 39.267 159.267 M 167.571 127.571 C 166.175 128.968, 166 136.372, 166 194 C 166 251.628, 166.175 259.032, 167.571 260.429 C 168.968 261.825, 176.372 262, 234 262 C 291.628 262, 299.032 261.825, 300.429 260.429 C 301.825 259.032, 302 251.628, 302 194 C 302 136.372, 301.825 128.968, 300.429 127.571 C 296.892 124.034, 294 127.240, 294 134.699 L 294 140.255 289.425 136.038 C 282.253 129.427, 275.107 126.611, 265.500 126.611 C 259 126.611, 256.436 127.099, 251.825 129.216 C 245.299 132.212, 238.189 138.377, 235.497 143.377 L 233.640 146.824 230.995 142.662 C 227.427 137.047, 221.735 132.227, 215.046 129.157 C 210.573 127.103, 207.953 126.611, 201.500 126.611 C 192.128 126.611, 184.947 129.343, 178.130 135.502 L 174 139.233 174 134.188 C 174 129.433, 172.323 126, 170 126 C 169.529 126, 168.436 126.707, 167.571 127.571 M 359.571 127.571 C 358.176 128.966, 358 136.152, 358 191.571 L 358 254 343.571 254 C 331.788 254, 328.855 254.288, 327.571 255.571 C 325.598 257.545, 325.598 258.455, 327.571 260.429 C 328.936 261.793, 333.463 262, 362 262 C 390.537 262, 395.064 261.793, 396.429 260.429 C 397.293 259.564, 398 258.471, 398 258 C 398 257.529, 397.293 256.436, 396.429 255.571 C 395.145 254.288, 392.212 254, 380.429 254 L 366 254 366 191.571 C 366 136.152, 365.824 128.966, 364.429 127.571 C 363.564 126.707, 362.471 126, 362 126 C 361.529 126, 360.436 126.707, 359.571 127.571 M 423.571 127.571 C 422.175 128.968, 422 136.372, 422 194 C 422 251.628, 422.175 259.032, 423.571 260.429 C 424.436 261.293, 425.529 262, 426 262 C 426.471 262, 427.564 261.293, 428.429 260.429 C 429.825 259.032, 430 251.628, 430 194 C 430 136.372, 429.825 128.968, 428.429 127.571 C 427.564 126.707, 426.471 126, 426 126 C 425.529 126, 424.436 126.707, 423.571 127.571 M 551.571 127.571 C 550.175 128.968, 550 136.372, 550 194 C 550 251.628, 550.175 259.032, 551.571 260.429 C 552.436 261.293, 553.529 262, 554 262 C 554.471 262, 555.564 261.293, 556.429 260.429 C 557.825 259.032, 558 251.628, 558 194 C 558 136.372, 557.825 128.968, 556.429 127.571 C 555.564 126.707, 554.471 126, 554 126 C 553.529 126, 552.436 126.707, 551.571 127.571 M 191 135.824 C 181.658 139.304, 174 150.246, 174 160.113 C 174 170.028, 179.687 188.694, 187.054 202.957 C 195.928 220.140, 209.907 236.155, 225.341 246.825 C 234.108 252.886, 233.138 253.002, 244.523 244.524 C 268.316 226.806, 285.377 200.109, 291.495 171.022 C 294.400 157.213, 292.732 149.828, 284.952 142.048 C 277.176 134.271, 266.318 131.948, 255.500 135.745 C 245.948 139.098, 238 149.935, 238 159.607 C 238 162.970, 235.867 166, 233.500 166 C 231.133 166, 229 162.970, 229 159.607 C 229 150.111, 220.687 138.785, 211.392 135.618 C 205.389 133.572, 196.811 133.659, 191 135.824 M 290.137 199.114 C 282.971 215.990, 266.637 236.980, 251.962 248.169 L 244.970 253.500 269.134 253.768 C 282.424 253.916, 293.462 253.872, 293.663 253.670 C 293.864 253.469, 293.910 239.329, 293.764 222.249 L 293.500 191.193 290.137 199.114 M 174 223.815 L 174 254 198.059 254 L 222.119 254 214.593 247.946 C 199.613 235.895, 187.885 221.210, 178.750 203.065 L 174 193.630 174 223.815 M 455.571 255.571 C 454.707 256.436, 454 257.529, 454 258 C 454 258.471, 454.707 259.564, 455.571 260.429 C 456.436 261.293, 457.529 262, 458 262 C 458.471 262, 459.564 261.293, 460.429 260.429 C 461.293 259.564, 462 258.471, 462 258 C 462 257.529, 461.293 256.436, 460.429 255.571 C 459.564 254.707, 458.471 254, 458 254 C 457.529 254, 456.436 254.707, 455.571 255.571 M 487.571 255.571 C 486.707 256.436, 486 257.529, 486 258 C 486 258.471, 486.707 259.564, 487.571 260.429 C 488.436 261.293, 489.529 262, 490 262 C 490.471 262, 491.564 261.293, 492.429 260.429 C 493.293 259.564, 494 258.471, 494 258 C 494 257.529, 493.293 256.436, 492.429 255.571 C 491.564 254.707, 490.471 254, 490 254 C 489.529 254, 488.436 254.707, 487.571 255.571 M 519.571 255.571 C 518.707 256.436, 518 257.529, 518 258 C 518 259.111, 520.889 262, 522 262 C 523.111 262, 526 259.111, 526 258 C 526 256.889, 523.111 254, 522 254 C 521.529 254, 520.436 254.707, 519.571 255.571 " stroke="none" fill="black" fill-rule="evenodd"/>
</svg>