<svg xmlns="http://www.w3.org/2000/svg" width="468" height="324" viewBox="0 0 468 324" version="1.1">
	<path d="M 391.652 127.491 C 390.743 128.399, 390 129.529, 390 130 C 390 132.122, 393.426 134.001, 397.321 134.015 C 416.426 134.082, 437.897 148.438, 446.809 167.101 C 451.503 176.931, 453 183.313, 453 193.500 C 453 203.687, 451.503 210.069, 446.809 219.899 C 439.355 235.510, 422.910 248.473, 406.201 251.910 C 399.413 253.306, 387.587 253.306, 380.799 251.910 C 364.123 248.480, 347.792 235.621, 340.198 219.942 C 337.950 215.299, 335.813 209.925, 335.449 208 C 334.826 204.696, 335.513 205.213, 347.730 217.250 C 354.848 224.262, 361.164 230, 361.765 230 C 363.187 230, 366 227.173, 366 225.743 C 366 223.994, 331.761 190, 330 190 C 328.239 190, 294 223.994, 294 225.743 C 294 227.176, 296.814 230, 298.241 230 C 298.845 230, 305.493 223.903, 313.014 216.451 L 326.688 202.901 328.351 209.641 C 331.372 221.880, 336.426 230.504, 346.461 240.539 C 360.505 254.582, 374.077 260.300, 393.500 260.354 C 412.725 260.408, 426.452 254.625, 440.539 240.539 C 454.606 226.472, 460.333 212.862, 460.333 193.500 C 460.333 174.138, 454.606 160.528, 440.539 146.461 C 428.143 134.065, 416.744 128.546, 399.402 126.543 C 394.418 125.968, 393.002 126.141, 391.652 127.491 M 231.282 159.282 C 221.777 168.787, 214 177.079, 214 177.710 C 214 179.139, 216.786 182, 218.178 182 C 218.747 182, 222.557 178.757, 226.645 174.794 L 234.077 167.588 245.283 178.794 L 256.489 190 196.816 190 C 143.901 190, 136.965 190.178, 135.571 191.571 C 132.148 194.995, 135.242 198, 142.190 198 L 147.237 198 144.059 201.250 C 142.311 203.037, 139.467 207.370, 137.740 210.877 C 134.989 216.464, 134.600 218.277, 134.600 225.500 C 134.600 232.734, 134.988 234.533, 137.762 240.168 C 139.501 243.700, 142.591 248.257, 144.628 250.295 L 148.333 254 78.738 254 C 16.803 254, 8.970 254.173, 7.571 255.571 C 5.598 257.545, 5.598 258.455, 7.571 260.429 C 8.984 261.841, 22.190 262, 138 262 C 253.810 262, 267.016 261.841, 268.429 260.429 C 272.078 256.779, 268.764 254, 260.762 254 L 254.667 254 258.184 250.483 C 266.194 242.473, 270.151 229.942, 268 219.396 C 266.603 212.541, 263.007 205.410, 258.756 201.062 L 255.763 198 261.310 198 C 266.753 198, 270 196.412, 270 193.751 C 270 193.143, 263.165 185.759, 254.812 177.343 L 239.623 162.040 246.812 154.626 C 250.765 150.549, 254 146.747, 254 146.178 C 254 144.786, 251.139 142, 249.710 142 C 249.079 142, 240.787 149.777, 231.282 159.282 M 159.605 199.568 C 152.049 202.337, 152.073 202.527, 161.170 211.671 L 169.457 220.001 177.692 211.809 C 186.838 202.711, 186.906 202.178, 179.260 199.573 C 173.620 197.651, 164.842 197.649, 159.605 199.568 M 193.926 200.145 C 195.192 201.325, 197.446 204.211, 198.934 206.557 L 201.640 210.824 203.443 207.476 C 204.435 205.635, 206.594 202.749, 208.242 201.064 L 211.237 198 201.430 198 L 191.623 198 193.926 200.145 M 223.605 199.568 C 216.049 202.337, 216.073 202.527, 225.170 211.671 L 233.457 220.001 241.692 211.809 C 250.838 202.711, 250.906 202.178, 243.260 199.573 C 237.620 197.651, 228.842 197.649, 223.605 199.568 M 39.571 207.571 C 38.707 208.436, 38 209.659, 38 210.290 C 38 211.969, 72.307 246, 74 246 C 75.693 246, 110 211.969, 110 210.290 C 110 208.827, 107.200 206, 105.751 206 C 105.143 206, 97.750 212.844, 89.323 221.208 L 74 236.416 58.677 221.208 C 50.250 212.844, 42.857 206, 42.249 206 C 41.640 206, 40.436 206.707, 39.571 207.571 M 146.184 210.278 C 142.139 215.152, 140.867 227.319, 143.573 235.260 C 146.178 242.906, 146.711 242.838, 155.809 233.692 L 164.001 225.457 155.671 217.170 C 148.854 210.389, 147.131 209.137, 146.184 210.278 M 183.191 217.308 L 174.999 225.543 183.329 233.830 C 192.530 242.983, 192.678 242.998, 195.487 235.038 C 197.439 229.503, 197.415 221.574, 195.427 215.740 C 192.822 208.094, 192.289 208.162, 183.191 217.308 M 210.184 210.278 C 206.139 215.152, 204.867 227.319, 207.573 235.260 C 210.178 242.906, 210.711 242.838, 219.809 233.692 L 228.001 225.457 219.671 217.170 C 212.854 210.389, 211.131 209.137, 210.184 210.278 M 247.191 217.308 L 238.999 225.543 247.329 233.830 C 256.530 242.983, 256.678 242.998, 259.487 235.038 C 261.439 229.503, 261.415 221.574, 259.427 215.740 C 256.822 208.094, 256.289 208.162, 247.191 217.308 M 161.170 239.329 C 152.017 248.530, 152.002 248.678, 159.962 251.487 C 165.497 253.439, 173.426 253.415, 179.260 251.427 C 186.906 248.822, 186.838 248.289, 177.692 239.191 L 169.457 230.999 161.170 239.329 M 225.170 239.329 C 216.017 248.530, 216.002 248.678, 223.962 251.487 C 229.497 253.439, 237.426 253.415, 243.260 251.427 C 250.906 248.822, 250.838 248.289, 241.692 239.191 L 233.457 230.999 225.170 239.329 M 199.533 243.568 C 198.529 245.434, 196.123 248.544, 194.187 250.480 L 190.667 254 201.573 254 L 212.480 254 209.624 251.352 C 208.053 249.896, 205.552 246.786, 204.064 244.440 L 201.360 240.176 199.533 243.568 " stroke="none" fill="black" fill-rule="evenodd"/>
</svg>