<svg xmlns="http://www.w3.org/2000/svg" width="468" height="324" viewBox="0 0 468 324" version="1.1">
	<path d="M 163 126.886 C 149.507 129.799, 138.409 140.474, 135.515 153.322 C 134.385 158.341, 134.341 158.385, 129.322 159.515 C 122.827 160.978, 116.285 164.835, 111.710 169.900 C 93.027 190.579, 104.001 222.635, 131.604 228.013 C 154.779 232.529, 176.707 210.481, 172 187.396 C 169.161 173.471, 158.183 161.813, 145.703 159.472 C 141.492 158.682, 141.371 158.203, 143.667 151.463 C 145.875 144.983, 152.983 137.875, 159.463 135.667 C 170.255 131.990, 181.476 134.381, 189.071 141.976 C 195.228 148.132, 197.497 154.745, 196.635 164.020 C 195.248 178.943, 186.406 201.320, 175.815 216.708 C 168.409 227.468, 154.158 241.338, 143.150 248.500 C 135.180 253.685, 133.966 254.840, 134.214 257 C 134.715 261.375, 138.237 260.690, 147.778 254.363 C 158.312 247.378, 175.664 230.267, 182.201 220.417 C 192.945 204.231, 199.002 189.901, 203.008 171.187 C 204.893 162.385, 205.016 160.380, 203.982 155.307 C 201.633 143.781, 194.108 134.207, 183.675 129.472 C 178 126.895, 168.473 125.704, 163 126.886 M 247.282 143.282 C 237.777 152.787, 230 161.079, 230 161.710 C 230 163.173, 232.800 166, 234.249 166 C 234.857 166, 242.250 159.156, 250.677 150.792 L 266 135.584 281.323 150.792 C 289.750 159.156, 297.143 166, 297.751 166 C 299.200 166, 302 163.173, 302 161.710 C 302 160.031, 267.693 126, 266 126 C 265.210 126, 256.787 133.777, 247.282 143.282 M 327.571 127.571 C 326.707 128.436, 326 129.648, 326 130.266 C 326 130.883, 334.963 140.414, 345.917 151.444 L 365.834 171.500 363.006 176.377 C 351.056 196.989, 363.376 223.103, 387.357 227.992 C 394.833 229.516, 403.738 227.986, 410.623 223.993 L 415.500 221.165 436.054 241.583 C 447.359 252.812, 457.115 262, 457.733 262 C 459.186 262, 462 259.186, 462 257.733 C 462 257.115, 452.812 247.359, 441.583 236.054 L 421.165 215.500 423.993 210.623 C 427.986 203.738, 429.516 194.833, 427.992 187.357 C 423.103 163.376, 396.989 151.056, 376.377 163.006 L 371.500 165.834 351.444 145.917 C 340.414 134.963, 330.883 126, 330.266 126 C 329.648 126, 328.436 126.707, 327.571 127.571 M 39.571 159.571 C 38.707 160.436, 38 161.529, 38 162 C 38 163.111, 40.889 166, 42 166 C 43.111 166, 46 163.111, 46 162 C 46 160.889, 43.111 158, 42 158 C 41.529 158, 40.436 158.707, 39.571 159.571 M 127.054 167.728 C 121.018 169.859, 113.781 177.260, 111.667 183.463 C 105.198 202.450, 117.964 221, 137.500 221 C 153.108 221, 165 209.108, 165 193.500 C 165 177.670, 152.965 165.854, 137.072 166.079 C 134.007 166.122, 129.499 166.864, 127.054 167.728 M 383.605 167.568 C 375.639 170.488, 375.200 169.679, 396.134 190.634 C 410.334 204.848, 415.720 209.648, 416.625 208.896 C 418.661 207.206, 421 198.976, 421 193.500 C 421 177.674, 408.981 165.869, 393.072 166.070 C 390.007 166.109, 385.747 166.783, 383.605 167.568 M 370.189 178.272 C 368.028 180.876, 366 188.222, 366 193.448 C 366 209.109, 377.869 221, 393.500 221 C 398.976 221, 407.206 218.661, 408.896 216.625 C 409.648 215.720, 404.848 210.334, 390.634 196.134 C 374.891 180.407, 371.139 177.128, 370.189 178.272 M 7.571 191.571 C 6.707 192.436, 6 193.529, 6 194 C 6 194.471, 6.707 195.564, 7.571 196.429 C 8.936 197.793, 13.463 198, 42 198 C 70.537 198, 75.064 197.793, 76.429 196.429 C 77.293 195.564, 78 194.471, 78 194 C 78 193.529, 77.293 192.436, 76.429 191.571 C 75.064 190.207, 70.537 190, 42 190 C 13.463 190, 8.936 190.207, 7.571 191.571 M 39.571 223.571 C 38.707 224.436, 38 225.529, 38 226 C 38 227.111, 40.889 230, 42 230 C 43.111 230, 46 227.111, 46 226 C 46 224.889, 43.111 222, 42 222 C 41.529 222, 40.436 222.707, 39.571 223.571 M 231.571 223.571 C 230.707 224.436, 230 225.659, 230 226.290 C 230 227.969, 264.307 262, 266 262 C 267.693 262, 302 227.969, 302 226.290 C 302 224.827, 299.200 222, 297.751 222 C 297.143 222, 289.750 228.844, 281.323 237.208 L 266 252.416 250.677 237.208 C 242.250 228.844, 234.857 222, 234.249 222 C 233.640 222, 232.436 222.707, 231.571 223.571 " stroke="none" fill="black" fill-rule="evenodd"/>
</svg>