<svg xmlns="http://www.w3.org/2000/svg" width="340" height="324" viewBox="0 0 340 324" version="1.1">
	<path d="M 64.500 126.944 C 48.464 129.540, 38.190 134.822, 26.461 146.500 C 19.435 153.496, 16.611 157.170, 13.778 163 C 7.648 175.615, 4.334 193.191, 7.491 196.348 C 9.547 198.404, 10.439 198.418, 12.429 196.429 C 13.404 195.453, 14.006 193.082, 14.015 190.179 C 14.091 166.127, 34.559 141.323, 59.103 135.537 C 66.646 133.759, 78.760 133.559, 86.201 135.090 C 89.115 135.690, 95.325 138, 100 140.225 C 118.621 149.087, 133 170.836, 133 190.139 C 133 197.065, 136.570 200.214, 139.360 195.750 C 140.454 194, 140.582 191.869, 139.935 186.164 C 136.832 158.798, 116.692 135.370, 90.483 128.639 C 82.858 126.681, 70.933 125.903, 64.500 126.944 M 227.500 126.908 C 221.277 128.019, 214.576 131.428, 209.601 136.014 C 204.978 140.275, 199.013 150.612, 198.985 154.410 C 198.961 157.625, 197.845 158.649, 193.500 159.440 C 183.871 161.193, 173.986 169.481, 169.189 179.825 C 167.038 184.462, 166.556 186.964, 166.556 193.500 C 166.556 200.036, 167.038 202.538, 169.189 207.175 C 179.823 230.103, 208.384 235.724, 225.777 218.313 C 232.661 211.422, 235.383 205.282, 235.847 195.598 C 236.059 191.176, 235.696 185.892, 235.023 183.598 C 231.931 173.057, 222.243 163.272, 211.884 160.228 C 205.223 158.271, 204.796 157.237, 207.867 150.500 C 212.367 140.630, 220.361 134.993, 230.933 134.237 C 238.737 133.679, 243.527 134.941, 249.762 139.201 C 254.727 142.593, 259.665 150.583, 260.584 156.712 C 262.429 169.016, 253.018 196.412, 240.270 215.847 C 234.846 224.117, 215.728 242.873, 207 248.487 C 197.925 254.325, 196.726 255.620, 198.074 258.138 C 199.587 260.966, 201.952 260.421, 209.397 255.532 C 239.270 235.911, 258.330 208.164, 266.469 172.449 C 269.069 161.040, 268.648 154.521, 264.771 146.189 C 258.612 132.951, 241.945 124.328, 227.500 126.908 M 71.571 159.571 C 70.707 160.436, 70 161.529, 70 162 C 70 162.471, 70.707 163.564, 71.571 164.429 C 72.436 165.293, 73.529 166, 74 166 C 74.471 166, 75.564 165.293, 76.429 164.429 C 77.293 163.564, 78 162.471, 78 162 C 78 161.529, 77.293 160.436, 76.429 159.571 C 75.564 158.707, 74.471 158, 74 158 C 73.529 158, 72.436 158.707, 71.571 159.571 M 191.627 167.468 C 186.247 169.386, 181.039 173.829, 177.500 179.519 C 174.982 183.568, 174.444 185.582, 174.150 192.050 C 173.760 200.623, 175.420 205.822, 180.447 211.770 C 186.859 219.355, 199.147 222.900, 209.231 220.074 C 220.579 216.894, 229 205.574, 229 193.500 C 229 182.038, 221.486 171.200, 210.965 167.488 C 205.743 165.645, 196.766 165.636, 191.627 167.468 M 39.571 191.571 C 38.707 192.436, 38 193.529, 38 194 C 38 194.471, 38.707 195.564, 39.571 196.429 C 40.936 197.793, 45.456 198, 73.916 198 C 105.420 198, 106.760 197.922, 108.500 196 C 110.247 194.070, 110.247 193.930, 108.500 192 C 106.760 190.078, 105.420 190, 73.916 190 C 45.456 190, 40.936 190.207, 39.571 191.571 M 303.184 199.365 C 298.133 204.516, 294 209.209, 294 209.794 C 294 210.954, 296.747 214, 297.792 214 C 298.150 214, 301.043 211.427, 304.221 208.281 L 310 202.563 310 228.281 L 310 254 303.571 254 C 299.061 254, 296.674 254.469, 295.571 255.571 C 293.593 257.550, 293.597 258.455, 295.595 260.452 C 296.952 261.810, 299.721 262.006, 314.237 261.773 C 329.203 261.533, 331.419 261.286, 332.387 259.750 C 333.189 258.477, 333.190 257.523, 332.390 256.250 C 331.542 254.901, 329.647 254.433, 324.109 254.205 L 316.927 253.911 317.044 222.814 C 317.190 183.877, 317.635 184.630, 303.184 199.365 M 71.571 223.571 C 70.707 224.436, 70 225.529, 70 226 C 70 226.471, 70.707 227.564, 71.571 228.429 C 72.436 229.293, 73.529 230, 74 230 C 74.471 230, 75.564 229.293, 76.429 228.429 C 77.293 227.564, 78 226.471, 78 226 C 78 225.529, 77.293 224.436, 76.429 223.571 C 75.564 222.707, 74.471 222, 74 222 C 73.529 222, 72.436 222.707, 71.571 223.571 " stroke="none" fill="black" fill-rule="evenodd"/>
</svg>