<svg xmlns="http://www.w3.org/2000/svg" width="180" height="324" viewBox="0 0 180 324" version="1.1">
	<path d="M 95.870 127.071 C 82.123 129.090, 70.356 134.869, 59.895 144.738 C 52.200 151.997, 46.884 159.480, 43.492 167.828 C 41.496 172.740, 40.638 176.249, 38.409 188.620 C 38.119 190.232, 37.044 190.897, 33.922 191.397 C 16.677 194.154, 3.405 213.975, 7 231.604 C 10.052 246.576, 20.611 257.052, 35.628 260.007 C 58.751 264.556, 80.705 242.472, 76 219.396 C 73.161 205.471, 62.183 193.813, 49.703 191.472 C 45.351 190.656, 45.122 189.348, 47.537 179.103 C 53.323 154.559, 78.127 134.091, 102.179 134.015 C 106.567 134.001, 110 132.239, 110 130 C 110 129.529, 109.293 128.436, 108.429 127.571 C 106.733 125.875, 104.589 125.790, 95.870 127.071 M 151.571 159.571 C 150.324 160.819, 150 163.528, 150 172.716 L 150 184.290 144.560 179.145 C 141.568 176.315, 138.675 174, 138.131 174 C 136.829 174, 134 176.861, 134 178.178 C 134 178.747, 137.226 182.540, 141.169 186.607 L 148.338 194 141.169 201.393 C 137.226 205.460, 134 209.253, 134 209.822 C 134 211.139, 136.829 214, 138.131 214 C 138.675 214, 141.568 211.685, 144.560 208.855 L 150 203.710 150 215.284 C 150 224.472, 150.324 227.181, 151.571 228.429 C 153.545 230.402, 154.455 230.402, 156.429 228.429 C 157.676 227.181, 158 224.472, 158 215.284 L 158 203.710 163.440 208.855 C 166.432 211.685, 169.325 214, 169.869 214 C 171.171 214, 174 211.139, 174 209.822 C 174 209.253, 170.774 205.460, 166.831 201.393 L 159.662 194 166.831 186.607 C 170.774 182.540, 174 178.747, 174 178.178 C 174 176.861, 171.171 174, 169.869 174 C 169.325 174, 166.432 176.315, 163.440 179.145 L 158 184.290 158 172.716 C 158 163.528, 157.676 160.819, 156.429 159.571 C 155.564 158.707, 154.471 158, 154 158 C 153.529 158, 152.436 158.707, 151.571 159.571 M 31.054 199.728 C 25.018 201.859, 17.781 209.260, 15.667 215.463 C 11.995 226.241, 14.382 237.477, 21.952 245.048 C 32.673 255.769, 50.327 255.769, 61.048 245.048 C 71.769 234.327, 71.769 216.673, 61.048 205.952 C 53.519 198.424, 41.696 195.970, 31.054 199.728 " stroke="none" fill="black" fill-rule="evenodd"/>
</svg>