<svg xmlns="http://www.w3.org/2000/svg" width="340" height="324" viewBox="0 0 340 324" version="1.1">
	<path d="M 72.316 62.784 C 70.369 64.022, 54.007 97.855, 54.604 99.410 C 55.269 101.144, 57.524 102.120, 59.295 101.440 C 60.007 101.167, 63.480 95.106, 67.014 87.972 C 70.547 80.837, 73.691 75, 74 75 C 74.309 75, 77.453 80.837, 80.986 87.972 C 84.520 95.106, 87.993 101.167, 88.705 101.440 C 90.487 102.124, 92.732 101.141, 93.407 99.381 C 93.997 97.844, 77.582 64.037, 75.628 62.765 C 74.214 61.845, 73.789 61.847, 72.316 62.784 M 7.571 127.571 C 6.175 128.968, 6 136.372, 6 194 C 6 251.628, 6.175 259.032, 7.571 260.429 C 8.436 261.293, 9.529 262, 10 262 C 10.471 262, 11.564 261.293, 12.429 260.429 C 13.825 259.032, 14 251.628, 14 194 C 14 136.372, 13.825 128.968, 12.429 127.571 C 11.564 126.707, 10.471 126, 10 126 C 9.529 126, 8.436 126.707, 7.571 127.571 M 135.571 127.571 C 134.175 128.968, 134 136.372, 134 194 C 134 251.628, 134.175 259.032, 135.571 260.429 C 136.436 261.293, 137.529 262, 138 262 C 138.471 262, 139.564 261.293, 140.429 260.429 C 141.825 259.032, 142 251.628, 142 194 C 142 136.372, 141.825 128.968, 140.429 127.571 C 139.564 126.707, 138.471 126, 138 126 C 137.529 126, 136.436 126.707, 135.571 127.571 M 263.750 127.080 C 262.111 128.035, 262 132.293, 262 194.015 C 262 259.587, 262.011 259.935, 264.064 261.034 C 269.084 263.721, 269 264.854, 269 194.078 C 269 123.068, 269.071 123.981, 263.750 127.080 M 327.750 127.080 C 326.111 128.035, 326 132.293, 326 194.015 C 326 259.587, 326.011 259.935, 328.064 261.034 C 333.084 263.721, 333 264.854, 333 194.078 C 333 123.068, 333.071 123.981, 327.750 127.080 M 194.344 158.988 C 184.010 161.166, 173.930 169.366, 169.417 179.266 C 165.361 188.161, 165.361 198.839, 169.417 207.734 C 172.868 215.303, 179.786 222.097, 187.762 225.749 C 195.433 229.260, 205.846 229.363, 214.469 226.012 C 221.625 223.231, 229.439 215.866, 233.049 208.500 C 235.153 204.207, 235.500 202.086, 235.500 193.500 C 235.500 181.464, 233.483 176.393, 225.518 168.404 C 217.736 160.597, 204.983 156.745, 194.344 158.988 M 191.385 167.617 C 176.729 172.815, 169.477 191.530, 176.588 205.801 C 187.799 228.298, 221.531 224.930, 228.098 200.657 C 231.721 187.265, 223.838 172.176, 210.684 167.326 C 206.298 165.709, 196.343 165.859, 191.385 167.617 M 39.571 255.571 C 38.707 256.436, 38 257.529, 38 258 C 38 259.111, 40.889 262, 42 262 C 43.111 262, 46 259.111, 46 258 C 46 256.889, 43.111 254, 42 254 C 41.529 254, 40.436 254.707, 39.571 255.571 M 71.571 255.571 C 70.707 256.436, 70 257.529, 70 258 C 70 259.111, 72.889 262, 74 262 C 75.111 262, 78 259.111, 78 258 C 78 256.889, 75.111 254, 74 254 C 73.529 254, 72.436 254.707, 71.571 255.571 M 103.571 255.571 C 102.707 256.436, 102 257.529, 102 258 C 102 259.111, 104.889 262, 106 262 C 107.111 262, 110 259.111, 110 258 C 110 256.889, 107.111 254, 106 254 C 105.529 254, 104.436 254.707, 103.571 255.571 " stroke="none" fill="black" fill-rule="evenodd"/>
</svg>