<svg xmlns="http://www.w3.org/2000/svg" width="308" height="324" viewBox="0 0 308 324" version="1.1">
	<path d="M 55.571 63.571 C 54.707 64.436, 54 65.317, 54 65.531 C 54 66.993, 71.421 100.653, 72.488 101.252 C 73.225 101.665, 74.440 101.768, 75.188 101.481 C 76.837 100.849, 93 68.755, 93 66.115 C 93 63.770, 90.710 61.790, 88.832 62.511 C 88.050 62.811, 84.520 68.894, 80.986 76.028 C 77.453 83.163, 74.306 89, 73.994 89 C 73.683 89, 70.969 83.984, 67.964 77.854 C 62.437 66.580, 59.559 62, 57.999 62 C 57.528 62, 56.436 62.707, 55.571 63.571 M 35.045 127.064 C 19.595 130.192, 7.301 144.028, 6.821 158.824 C 6.644 164.267, 11.379 182.964, 15.864 194.532 C 19.588 204.139, 28.137 218.881, 34.899 227.356 C 49.091 245.144, 74.403 264.011, 77.454 259.074 C 77.769 258.565, 81.706 255.570, 86.203 252.418 C 112.833 233.758, 132.377 203.343, 138.842 170.500 C 141.013 159.468, 140.261 153.146, 135.776 144.731 C 123.450 121.604, 90.124 120.442, 76.014 142.647 L 73.379 146.793 70.597 142.395 C 63.298 130.857, 48.284 124.383, 35.045 127.064 M 167.200 127.200 C 165.465 128.935, 165.465 259.065, 167.200 260.800 C 168.935 262.535, 298.065 262.535, 299.800 260.800 C 301.535 259.065, 301.535 128.935, 299.800 127.200 C 298.065 125.465, 168.935 125.465, 167.200 127.200 M 31.748 135.427 C 23.566 138.346, 15.839 147.077, 14.518 154.893 C 13.681 159.850, 17.098 176.394, 21.507 188.729 C 29.749 211.789, 46.627 233.650, 66.868 247.480 L 73.830 252.237 81.502 246.934 C 106.693 229.519, 125.566 200.428, 131.602 169.707 C 133.613 159.473, 133.015 154.354, 128.987 147.302 C 125.914 141.920, 120.154 137.222, 114.101 135.159 C 108.929 133.396, 99.123 133.761, 94.435 135.890 C 85.573 139.915, 78 150.092, 78 157.974 C 78 161.875, 75.695 166, 73.515 166 C 71.013 166, 69 162.918, 69 159.088 C 69 154.001, 63.752 143.766, 59.235 140.042 C 52.354 134.370, 40.355 132.355, 31.748 135.427 M 173 143.730 L 173 153.460 182.500 144 C 187.725 138.797, 192 134.418, 192 134.270 C 192 134.121, 187.725 134, 182.500 134 L 173 134 173 143.730 M 223.764 147.263 C 231.044 154.558, 237 161.292, 237 162.228 C 237 163.164, 236.061 164.432, 234.913 165.047 C 233.030 166.054, 231.463 164.813, 218.913 152.378 L 205 138.592 205 196.296 L 205 254 230.736 254 L 256.472 254 243.236 240.737 C 235.956 233.442, 230 226.708, 230 225.772 C 230 224.836, 230.939 223.568, 232.087 222.953 C 233.970 221.946, 235.537 223.187, 248.087 235.622 L 262 249.408 262 191.704 L 262 134 236.264 134 L 210.528 134 223.764 147.263 M 269 191.735 L 269 249.470 281.500 237 L 294 224.530 294 179.265 L 294 134 281.500 134 L 269 134 269 191.735 M 185.199 151.339 L 173 163.678 173 208.839 L 173 254 185.500 254 L 198 254 198 196.500 C 198 164.875, 197.864 139, 197.699 139 C 197.533 139, 191.908 144.553, 185.199 151.339 M 284 244.500 L 274.540 254 284.270 254 L 294 254 294 244.500 C 294 239.275, 293.879 235, 293.730 235 C 293.582 235, 289.203 239.275, 284 244.500 " stroke="none" fill="black" fill-rule="evenodd"/>
</svg>