<svg xmlns="http://www.w3.org/2000/svg" width="372" height="324" viewBox="0 0 372 324" version="1.1">
	<path d="M 182.130 127.544 C 175.729 132.930, 169.846 145.294, 168.509 156.167 C 167.192 166.886, 171.108 180.718, 178.041 189.835 L 182.098 195.171 181.997 226.335 C 181.941 243.476, 181.919 258.047, 181.948 258.715 C 182.020 260.389, 185.523 262.120, 187.389 261.404 C 188.233 261.080, 189.228 259.856, 189.600 258.684 C 189.972 257.511, 191.777 254.290, 193.610 251.526 C 199.103 243.242, 201.227 235.875, 201.260 225 C 201.292 214.075, 199.206 206.913, 193.471 198.265 L 190 193.031 190 161.450 C 190 142.910, 189.599 129.118, 189.028 128.052 C 187.442 125.090, 185.240 124.928, 182.130 127.544 M 39.571 127.571 C 38.288 128.855, 38 131.788, 38 143.571 L 38 158 23.571 158 C 11.788 158, 8.855 158.288, 7.571 159.571 C 5.598 161.545, 5.598 162.455, 7.571 164.429 C 8.855 165.712, 11.788 166, 23.571 166 L 38 166 38 194 L 38 222 23.571 222 C 11.788 222, 8.855 222.288, 7.571 223.571 C 6.707 224.436, 6 225.529, 6 226 C 6 226.471, 6.707 227.564, 7.571 228.429 C 8.855 229.712, 11.788 230, 23.571 230 L 38 230 38 244.429 C 38 256.212, 38.288 259.145, 39.571 260.429 C 40.436 261.293, 41.529 262, 42 262 C 42.471 262, 43.564 261.293, 44.429 260.429 C 45.712 259.145, 46 256.212, 46 244.429 L 46 230 74 230 L 102 230 102 244.429 C 102 256.212, 102.288 259.145, 103.571 260.429 C 105.545 262.402, 106.455 262.402, 108.429 260.429 C 109.712 259.145, 110 256.212, 110 244.429 L 110 230 124.429 230 C 136.212 230, 139.145 229.712, 140.429 228.429 C 142.402 226.455, 142.402 225.545, 140.429 223.571 C 139.145 222.288, 136.212 222, 124.429 222 L 110 222 110 194 L 110 166 124.429 166 C 136.212 166, 139.145 165.712, 140.429 164.429 C 142.402 162.455, 142.402 161.545, 140.429 159.571 C 139.145 158.288, 136.212 158, 124.429 158 L 110 158 110 143.571 C 110 131.788, 109.712 128.855, 108.429 127.571 C 106.455 125.598, 105.545 125.598, 103.571 127.571 C 102.288 128.855, 102 131.788, 102 143.571 L 102 158 74 158 L 46 158 46 143.571 C 46 131.788, 45.712 128.855, 44.429 127.571 C 43.564 126.707, 42.471 126, 42 126 C 41.529 126, 40.436 126.707, 39.571 127.571 M 231.571 127.571 C 230.175 128.968, 230 136.372, 230 194 C 230 251.628, 230.175 259.032, 231.571 260.429 C 232.436 261.293, 233.529 262, 234 262 C 234.471 262, 235.564 261.293, 236.429 260.429 C 237.825 259.032, 238 251.628, 238 194 C 238 136.372, 237.825 128.968, 236.429 127.571 C 235.564 126.707, 234.471 126, 234 126 C 233.529 126, 232.436 126.707, 231.571 127.571 M 359.571 127.571 C 358.175 128.968, 358 136.372, 358 194 C 358 251.628, 358.175 259.032, 359.571 260.429 C 360.436 261.293, 361.529 262, 362 262 C 362.471 262, 363.564 261.293, 364.429 260.429 C 365.825 259.032, 366 251.628, 366 194 C 366 136.372, 365.825 128.968, 364.429 127.571 C 363.564 126.707, 362.471 126, 362 126 C 361.529 126, 360.436 126.707, 359.571 127.571 M 178.877 145.250 C 176.869 149.699, 176.507 152.103, 176.504 161 C 176.500 170.338, 176.795 172.109, 179.167 177 L 181.833 182.500 181.917 161.250 C 181.962 149.563, 181.830 140, 181.623 140 C 181.416 140, 180.180 142.363, 178.877 145.250 M 295.571 159.571 C 294.288 160.855, 294 163.788, 294 175.571 L 294 190 279.571 190 C 267.788 190, 264.855 190.288, 263.571 191.571 C 261.598 193.545, 261.598 194.455, 263.571 196.429 C 264.855 197.712, 267.788 198, 279.571 198 L 294 198 294 212.429 C 294 224.212, 294.288 227.145, 295.571 228.429 C 297.545 230.402, 298.455 230.402, 300.429 228.429 C 301.712 227.145, 302 224.212, 302 212.429 L 302 198 316.429 198 C 328.212 198, 331.145 197.712, 332.429 196.429 C 334.402 194.455, 334.402 193.545, 332.429 191.571 C 331.145 190.288, 328.212 190, 316.429 190 L 302 190 302 175.571 C 302 163.788, 301.712 160.855, 300.429 159.571 C 299.564 158.707, 298.471 158, 298 158 C 297.529 158, 296.436 158.707, 295.571 159.571 M 46 194 L 46 222 74 222 L 102 222 102 194 L 102 166 74 166 L 46 166 46 194 M 190.163 225 C 190.163 242.010, 190.209 242.402, 191.813 239 C 193.019 236.441, 193.463 232.676, 193.463 225 C 193.463 217.324, 193.019 213.559, 191.813 211 C 190.209 207.598, 190.163 207.990, 190.163 225 " stroke="none" fill="black" fill-rule="evenodd"/>
</svg>