<svg xmlns="http://www.w3.org/2000/svg" width="340" height="324" viewBox="0 0 340 324" version="1.1">
	<path d="M 7.571 63.571 C 5.243 65.900, 5.243 98.100, 7.571 100.429 C 9.900 102.757, 42.100 102.757, 44.429 100.429 C 46.757 98.100, 46.757 65.900, 44.429 63.571 C 42.100 61.243, 9.900 61.243, 7.571 63.571 M 14 82 L 14 94 26 94 L 38 94 38 82 L 38 70 26 70 L 14 70 14 82 M 131.500 126.908 C 125.277 128.019, 118.576 131.428, 113.601 136.014 C 108.978 140.275, 103.013 150.612, 102.985 154.410 C 102.961 157.625, 101.845 158.649, 97.500 159.440 C 87.856 161.195, 77.950 169.511, 73.216 179.825 C 69.512 187.894, 69.512 199.106, 73.216 207.175 C 80.084 222.139, 96.478 231.178, 111.135 228.082 C 133.666 223.323, 145.892 201.619, 137.934 180.507 C 134.872 172.385, 126.684 164.148, 118.705 161.163 C 115.526 159.973, 112.267 159, 111.462 159 C 107.347 159, 112.781 146.056, 119.205 140.557 C 132.153 129.473, 152.700 132.790, 160.987 147.302 C 164.783 153.947, 165.582 159.520, 164.011 168.392 C 158.436 199.880, 137.968 230.852, 111.071 248.500 C 103.184 253.675, 101.966 254.844, 102.214 257 C 102.708 261.315, 106.016 260.568, 116.108 253.861 C 133.547 242.272, 149.878 223.578, 159.526 204.162 C 168.027 187.055, 173.511 165.812, 171.941 156.078 C 168.869 137.038, 150.196 123.569, 131.500 126.908 M 327.750 127.080 C 326.148 128.013, 326 130.520, 326 156.786 L 326 185.473 312.131 171.631 C 299.495 159.019, 298.073 157.890, 296.131 158.930 C 294.959 159.557, 294 160.836, 294 161.772 C 294 162.708, 299.956 169.442, 307.236 176.737 L 320.472 190 260.808 190 C 207.900 190, 200.965 190.178, 199.571 191.571 C 197.598 193.545, 197.598 194.455, 199.571 196.429 C 200.965 197.822, 207.900 198, 260.808 198 L 320.472 198 307.236 211.263 C 299.956 218.558, 294 225.292, 294 226.228 C 294 227.164, 294.959 228.443, 296.131 229.070 C 298.073 230.110, 299.495 228.981, 312.131 216.369 L 326 202.527 326 231.228 C 326 259.433, 326.037 259.949, 328.117 261.062 C 333.076 263.716, 333.023 264.441, 333.023 194.069 C 333.023 123.438, 333.066 123.984, 327.750 127.080 M 95.463 167.591 C 89.971 169.541, 84.552 174.205, 81.249 179.824 C 78.800 183.989, 78.500 185.483, 78.500 193.500 C 78.500 201.517, 78.800 203.011, 81.249 207.176 C 89.926 221.937, 109.604 225.610, 123.031 214.976 C 128.751 210.445, 133 201.292, 133 193.500 C 133 182.038, 125.486 171.200, 114.965 167.488 C 109.740 165.644, 100.813 165.692, 95.463 167.591 M 15.308 199.308 C 10.188 204.427, 6 209.120, 6 209.736 C 6 211.121, 8.789 214, 10.131 214 C 10.675 214, 13.568 211.685, 16.560 208.855 L 22 203.710 22 228.855 L 22 254 15.571 254 C 11.061 254, 8.674 254.469, 7.571 255.571 C 5.598 257.545, 5.598 258.455, 7.571 260.429 C 9.900 262.757, 42.100 262.757, 44.429 260.429 C 46.402 258.455, 46.402 257.545, 44.429 255.571 C 43.326 254.469, 40.939 254, 36.429 254 L 30 254 30 223.571 C 30 197.242, 29.788 192.931, 28.429 191.571 C 27.564 190.707, 26.353 190, 25.736 190 C 25.120 190, 20.427 194.188, 15.308 199.308 " stroke="none" fill="black" fill-rule="evenodd"/>
</svg>