<svg xmlns="http://www.w3.org/2000/svg" width="500" height="324" viewBox="0 0 500 324" version="1.1">
	<path d="M 159.102 127.104 C 144.535 129.318, 131.327 136.578, 120.208 148.484 C 108.225 161.315, 102.624 175.654, 102.624 193.500 C 102.624 212.874, 108.315 226.360, 122.474 240.539 C 129.554 247.629, 133.117 250.351, 139 253.166 C 143.125 255.139, 147.287 257.020, 148.250 257.345 C 149.822 257.877, 150 259.613, 150 274.397 C 150 288.027, 150.270 291.127, 151.571 292.429 C 153.457 294.315, 154.219 294.381, 155.800 292.800 C 156.631 291.969, 157 286.795, 157 275.978 L 157 260.356 169.500 260.321 L 182 260.286 182 275.572 C 182 288.134, 182.280 291.137, 183.571 292.429 C 185.457 294.315, 186.219 294.381, 187.800 292.800 C 188.637 291.963, 189 286.572, 189 274.973 L 189 258.345 198.728 253.516 C 206.731 249.543, 209.879 247.250, 216.478 240.587 C 229.818 227.119, 236 212.208, 236 193.500 C 236 174.782, 229.805 159.843, 216.500 146.473 C 201.045 130.943, 180.179 123.902, 159.102 127.104 M 154.072 135.591 C 143.666 138.388, 135.974 142.984, 127.479 151.479 C 115.117 163.841, 110 176.143, 110 193.500 C 110 210.869, 115.121 223.174, 127.479 235.500 C 139.593 247.582, 152.400 253, 168.845 253 C 179.674 253, 185.916 251.576, 195.820 246.847 C 220.843 234.900, 234.032 205.996, 227.003 178.511 C 221.680 157.698, 204.268 140.339, 183.897 135.537 C 175.879 133.647, 161.203 133.674, 154.072 135.591 M 39.571 159.571 C 38.707 160.436, 38 161.529, 38 162 C 38 163.111, 40.889 166, 42 166 C 43.111 166, 46 163.111, 46 162 C 46 160.889, 43.111 158, 42 158 C 41.529 158, 40.436 158.707, 39.571 159.571 M 167.571 159.571 C 166.212 160.931, 166 165.242, 166 191.571 L 166 222 151.571 222 C 139.788 222, 136.855 222.288, 135.571 223.571 C 133.595 225.548, 133.598 226.455, 135.585 228.442 C 136.978 229.835, 141.159 229.995, 170.226 229.763 C 200.452 229.523, 203.377 229.350, 204.386 227.750 C 205.190 226.475, 205.191 225.525, 204.387 224.250 C 203.430 222.730, 201.291 222.464, 188.142 222.224 L 173 221.948 173 191.174 C 173 168.572, 172.681 160.081, 171.800 159.200 C 170.219 157.619, 169.457 157.685, 167.571 159.571 M 279.315 175.213 C 269.792 184.680, 262 193.134, 262 194 C 262 195.680, 295.953 230, 297.615 230 C 299.105 230, 301 227.795, 301 226.062 C 301 225.216, 294.143 217.656, 285.762 209.262 L 270.524 194 285.762 178.738 C 294.143 170.344, 301 162.784, 301 161.938 C 301 160.205, 299.105 158, 297.615 158 C 297.073 158, 288.838 165.746, 279.315 175.213 M 311.315 175.213 C 301.792 184.680, 294 193.134, 294 194 C 294 195.680, 327.953 230, 329.615 230 C 331.105 230, 333 227.795, 333 226.062 C 333 225.216, 326.143 217.656, 317.762 209.262 L 302.524 194 317.762 178.738 C 326.143 170.344, 333 162.784, 333 161.938 C 333 160.205, 331.105 158, 329.615 158 C 329.073 158, 320.838 165.746, 311.315 175.213 M 7.585 191.558 C 5.595 193.548, 5.595 194.452, 7.585 196.442 C 8.978 197.835, 13.159 197.995, 42.226 197.763 C 72.452 197.523, 75.377 197.350, 76.386 195.750 C 77.191 194.474, 77.191 193.526, 76.386 192.250 C 75.377 190.650, 72.452 190.477, 42.226 190.237 C 13.159 190.005, 8.978 190.165, 7.585 191.558 M 391.244 223.256 C 372.960 241.546, 358 257.280, 358 258.220 C 358 259.160, 358.961 260.444, 360.136 261.073 C 362.102 262.125, 364.791 259.698, 393.890 230.610 L 425.508 199.004 457.252 230.748 C 484.610 258.106, 489.238 262.340, 490.748 261.387 C 492.352 260.376, 492.522 257.426, 492.765 226.391 C 493.004 195.836, 492.867 192.381, 491.377 191.289 C 490.226 190.446, 489.158 190.380, 487.862 191.074 C 486.112 192.010, 486 193.804, 486 220.779 L 486 249.487 456.244 219.744 C 439.878 203.385, 426.038 190, 425.488 190 C 424.939 190, 409.529 204.965, 391.244 223.256 M 39.571 223.571 C 38.707 224.436, 38 225.529, 38 226 C 38 227.111, 40.889 230, 42 230 C 43.111 230, 46 227.111, 46 226 C 46 224.889, 43.111 222, 42 222 C 41.529 222, 40.436 222.707, 39.571 223.571 " stroke="none" fill="black" fill-rule="evenodd"/>
</svg>