<svg xmlns="http://www.w3.org/2000/svg" width="148" height="324" viewBox="0 0 148 324" version="1.1">
	<path d="M 55.750 63.080 C 54.186 63.991, 54 66.007, 54 82.015 C 54 98.703, 54.132 100, 55.934 100.965 C 58.266 102.213, 89.906 102.346, 91.848 101.115 C 93.810 99.872, 93.810 64.128, 91.848 62.885 C 89.929 61.669, 57.875 61.843, 55.750 63.080 M 62 82 L 62 94 74 94 L 86 94 86 82 L 86 70 74 70 L 62 70 62 82 M 35.045 127.092 C 18.307 130.373, 6.848 144.460, 6.650 162 C 6.547 171.117, 9.762 179.068, 16.301 185.866 C 20.569 190.304, 30.823 195.998, 34.550 195.999 C 37.165 196, 38.997 197.829, 39.010 200.450 C 39.027 204.086, 43.997 213.379, 48.307 217.834 C 52.904 222.586, 59.915 226.598, 65.736 227.808 C 69.333 228.555, 69.578 228.877, 71.957 235.970 C 78.540 255.596, 99.114 265.396, 118.297 258.043 C 125.412 255.316, 133.617 247.589, 136.911 240.514 C 139.923 234.044, 140.851 224.951, 138.683 223.152 C 135.878 220.824, 133.365 223.274, 132.687 228.994 C 131.440 239.521, 123.237 249.270, 113.278 252.061 C 103.378 254.836, 90.887 251.191, 84.425 243.642 C 81.492 240.214, 77.998 232.561, 78.001 229.572 C 78.002 228.982, 80.649 227.722, 83.884 226.772 C 95.049 223.491, 104.315 213.566, 107.450 201.530 C 110.288 190.637, 109.331 189.308, 99.882 191.021 C 92.167 192.420, 87.127 194.920, 81.427 200.174 C 76.804 204.435, 71 214.725, 71 218.660 C 71 221.856, 68.693 221.686, 61.196 217.940 C 54.413 214.550, 49.796 209.507, 47.488 202.965 C 45.617 197.664, 45.611 196, 47.462 196 C 48.267 196, 51.515 195.031, 54.681 193.846 C 65.206 189.908, 73.610 179.253, 76.145 166.633 C 77.771 158.535, 76.596 157.441, 67.949 159.009 C 60.169 160.420, 55.139 162.909, 49.427 168.174 C 44.804 172.435, 39 182.725, 39 186.660 C 39 189.860, 36.692 189.686, 29.146 185.915 C 17.029 179.860, 11.278 166.342, 15.046 152.775 C 17.598 143.584, 27.579 135.312, 37.330 134.305 C 40.964 133.930, 43.531 133.071, 44.624 131.863 C 46.208 130.113, 46.200 129.879, 44.500 128 C 42.545 125.840, 41.801 125.768, 35.045 127.092 M 63.885 167.380 C 58.779 169.204, 54.287 172.622, 50.963 177.210 C 48.150 181.093, 45.388 187.721, 46.231 188.564 C 46.467 188.801, 48.766 188.277, 51.338 187.400 C 58.812 184.854, 65.809 177.026, 68.456 168.250 C 69.232 165.677, 68.853 165.604, 63.885 167.380 M 95.885 199.380 C 90.779 201.204, 86.287 204.622, 82.963 209.210 C 80.140 213.107, 77.389 219.722, 78.238 220.571 C 79.074 221.407, 85.885 218.480, 90.178 215.439 C 94.200 212.591, 98.760 205.851, 100.454 200.250 C 101.233 197.677, 100.853 197.604, 95.885 199.380 " stroke="none" fill="black" fill-rule="evenodd"/>
</svg>