<svg xmlns="http://www.w3.org/2000/svg" width="180" height="324" viewBox="0 0 180 324" version="1.1">
	<path d="M 39.571 127.571 C 38.707 128.436, 38 129.335, 38 129.569 C 38 131.164, 103.738 261.069, 104.739 261.453 C 105.432 261.719, 106.568 261.719, 107.261 261.453 C 109.123 260.739, 174.060 130.320, 173.404 128.612 C 172.736 126.870, 170.487 125.876, 168.735 126.548 C 168.039 126.815, 153.755 154.476, 136.992 188.017 C 120.228 221.558, 106.282 249, 106 249 C 105.718 249, 91.990 221.941, 75.493 188.869 C 58.997 155.796, 44.905 128.121, 44.179 127.369 C 42.471 125.600, 41.500 125.643, 39.571 127.571 M 7.571 191.571 C 6.707 192.436, 6 193.529, 6 194 C 6 195.111, 8.889 198, 10 198 C 11.111 198, 14 195.111, 14 194 C 14 192.889, 11.111 190, 10 190 C 9.529 190, 8.436 190.707, 7.571 191.571 " stroke="none" fill="black" fill-rule="evenodd"/>
</svg>