<svg xmlns="http://www.w3.org/2000/svg" width="148" height="324" viewBox="0 0 148 324" version="1.1">
	<path d="M 72.357 126.765 C 70.385 128.033, 6.012 257.866, 6.598 259.394 C 7.264 261.131, 9.515 262.123, 11.265 261.452 C 11.961 261.185, 26.245 233.524, 43.008 199.983 C 59.772 166.442, 73.743 139, 74.056 139 C 74.370 139, 88.239 166.413, 104.877 199.918 C 121.516 233.422, 135.832 261.105, 136.691 261.435 C 138.694 262.204, 141 260.299, 141 257.874 C 141 255.643, 77.277 127.834, 75.631 126.765 C 75.009 126.361, 74.275 126.031, 74 126.031 C 73.725 126.031, 72.986 126.361, 72.357 126.765 " stroke="none" fill="black" fill-rule="evenodd"/>
</svg>