<svg xmlns="http://www.w3.org/2000/svg" width="84" height="324" viewBox="0 0 84 324" version="1.1">
	<path d="M 39.571 159.571 C 38.288 160.855, 38 163.788, 38 175.571 L 38 190 23.571 190 C 11.788 190, 8.855 190.288, 7.571 191.571 C 5.598 193.545, 5.598 194.455, 7.571 196.429 C 8.855 197.712, 11.788 198, 23.571 198 L 38 198 38 210 L 38 222 23.571 222 C 11.788 222, 8.855 222.288, 7.571 223.571 C 5.598 225.545, 5.598 226.455, 7.571 228.429 C 8.855 229.712, 11.788 230, 23.571 230 L 38 230 38 244.429 C 38 256.212, 38.288 259.145, 39.571 260.429 C 40.436 261.293, 41.529 262, 42 262 C 42.471 262, 43.564 261.293, 44.429 260.429 C 45.712 259.145, 46 256.212, 46 244.429 L 46 230 60.429 230 C 72.212 230, 75.145 229.712, 76.429 228.429 C 78.402 226.455, 78.402 225.545, 76.429 223.571 C 75.145 222.288, 72.212 222, 60.429 222 L 46 222 46 210 L 46 198 60.429 198 C 72.212 198, 75.145 197.712, 76.429 196.429 C 78.402 194.455, 78.402 193.545, 76.429 191.571 C 75.145 190.288, 72.212 190, 60.429 190 L 46 190 46 175.571 C 46 163.788, 45.712 160.855, 44.429 159.571 C 43.564 158.707, 42.471 158, 42 158 C 41.529 158, 40.436 158.707, 39.571 159.571 " stroke="none" fill="black" fill-rule="evenodd"/>
</svg>