<svg xmlns="http://www.w3.org/2000/svg" width="52" height="324" viewBox="0 0 52 324" version="1.1">
	<path d="M 7.571 191.571 C 6.707 192.436, 6 193.529, 6 194 C 6 195.111, 8.889 198, 10 198 C 11.111 198, 14 195.111, 14 194 C 14 192.889, 11.111 190, 10 190 C 9.529 190, 8.436 190.707, 7.571 191.571 M 39.616 191.527 C 38.727 192.416, 38 193.529, 38 194 C 38 195.389, 41.140 198.120, 42.295 197.735 C 44.395 197.035, 45.549 194.094, 44.423 192.310 C 42.905 189.902, 41.474 189.669, 39.616 191.527 " stroke="none" fill="black" fill-rule="evenodd"/>
</svg>