<svg xmlns="http://www.w3.org/2000/svg" width="148" height="324" viewBox="0 0 148 324" version="1.1">
	<path d="M 7.200 127.200 C 5.465 128.935, 5.465 259.065, 7.200 260.800 C 8.109 261.709, 24.172 261.996, 73.450 261.985 C 109.227 261.976, 139.072 261.606, 139.772 261.162 C 141.639 259.977, 141.639 128.023, 139.772 126.838 C 139.072 126.394, 109.228 126.024, 73.450 126.015 C 24.172 126.004, 8.109 126.291, 7.200 127.200 M 46.752 161.248 L 74 188.495 101.248 161.248 L 128.495 134 74 134 L 19.505 134 46.752 161.248 M 106.568 166.765 L 79.636 194.029 106.568 221.265 L 133.500 248.500 133.766 221.250 C 133.912 206.262, 133.912 181.737, 133.766 166.750 L 133.500 139.500 106.568 166.765 M 14 194 L 14 248.495 41.248 221.248 L 68.495 194 41.248 166.752 L 14 139.505 14 194 M 46.500 227 L 19.514 254 74 254 L 128.486 254 101.500 227 C 86.658 212.150, 74.283 200, 74 200 C 73.717 200, 61.342 212.150, 46.500 227 " stroke="none" fill="black" fill-rule="evenodd"/>
</svg>