<svg xmlns="http://www.w3.org/2000/svg" width="180" height="324" viewBox="0 0 180 324" version="1.1">
	<path d="M 63 229 L 63 257 66.500 257 C 69.632 257, 70 256.717, 70 254.313 L 70 251.626 72.999 254.499 C 75.442 256.840, 77.063 257.441, 81.749 257.741 C 92.465 258.429, 97.044 253.151, 97.802 239.236 C 98.378 228.660, 96.833 222.938, 92.331 218.986 C 89.433 216.441, 88.113 216, 83.399 216 C 77.350 216, 74.417 217.101, 71.772 220.367 C 70.110 222.419, 70.044 222.093, 70.022 211.750 L 70 201 66.500 201 L 63 201 63 229 M 22.034 217.752 C 18.397 219.586, 14.397 225.216, 15.483 226.973 C 15.832 227.538, 17.451 228, 19.080 228 C 21.254 228, 22.340 227.347, 23.159 225.550 C 25.365 220.709, 35.427 219.916, 38.524 224.338 C 39.336 225.497, 40 227.920, 40 229.723 L 40 233 33.750 233.024 C 21.460 233.071, 14.724 236.626, 13.383 243.772 C 11.791 252.260, 17.228 258.989, 25.685 258.996 C 31.196 259.001, 33.897 257.886, 37.637 254.060 L 40.729 250.897 41.343 253.965 C 42.074 257.618, 45.833 259.441, 50.740 258.521 C 54.895 257.741, 55.504 254, 51.475 254 C 47.816 254, 47 250.821, 47 236.570 C 47 222.766, 45.952 220.131, 39.364 217.379 C 34.769 215.459, 26.214 215.643, 22.034 217.752 M 120 217.067 C 113.459 219.809, 109 228.092, 109 237.500 C 109 243.665, 111.592 251.237, 114.726 254.227 C 123.658 262.748, 139.269 259.386, 142.485 248.250 C 143.073 246.214, 142.794 246, 139.543 246 C 136.655 246, 135.769 246.478, 135.023 248.439 C 133.884 251.435, 131.131 253, 127 253 C 119.834 253, 117 248.641, 117 237.615 C 117 225.685, 119.259 222, 126.571 222 C 131.197 222, 135 224.482, 135 227.500 C 135 228.533, 136.037 229, 138.333 229 C 140.167 229, 141.930 228.737, 142.252 228.415 C 143.510 227.156, 140.605 221.801, 137.293 219.274 C 133.398 216.303, 124.524 215.170, 120 217.067 M 75.942 222.472 C 71.183 225.060, 68.854 235.054, 70.961 243.839 C 72.408 249.871, 74.543 251.995, 79.874 252.710 C 83.377 253.180, 84.290 252.864, 86.859 250.295 C 91.324 245.830, 92.268 234.494, 88.892 225.880 C 87.121 221.363, 80.961 219.742, 75.942 222.472 M 25 239.752 C 21.843 241.329, 21.470 241.957, 21.199 246.158 C 20.947 250.061, 21.266 251.073, 23.171 252.408 C 26.346 254.631, 30.121 254.393, 34.088 251.720 C 38.098 249.017, 39.965 245.703, 39.985 241.250 L 40 238 34.250 238.002 C 30.780 238.002, 27.112 238.696, 25 239.752 " stroke="none" fill="black" fill-rule="evenodd"/>
</svg>