<svg xmlns="http://www.w3.org/2000/svg" width="148" height="324" viewBox="0 0 148 324" version="1.1">
	<path d="M 71.482 159.661 C 67.863 163.280, 72.887 178.213, 80.259 185.750 L 84.416 190 46.780 190 C 13.898 190, 8.944 190.199, 7.571 191.571 C 5.598 193.545, 5.598 194.455, 7.571 196.429 C 8.844 197.701, 11.697 198, 22.575 198 L 36.006 198 21.020 227.961 C 12.777 244.439, 6.285 258.580, 6.594 259.384 C 7.265 261.133, 9.512 262.125, 11.274 261.448 C 11.975 261.180, 19.056 247.919, 27.010 231.980 C 34.964 216.041, 41.717 203, 42.016 203 C 42.315 203, 49.071 216.093, 57.030 232.095 C 64.988 248.098, 71.842 261.402, 72.259 261.660 C 74.831 263.250, 77.526 258.979, 91.125 231.762 L 105.744 202.502 120.310 231.620 C 128.485 247.962, 135.617 261.023, 136.565 261.386 C 138.679 262.198, 141 260.358, 141 257.871 C 141 256.835, 134.480 242.952, 126.511 227.021 L 112.021 198.056 125.653 197.778 C 137.361 197.539, 139.441 197.253, 140.388 195.750 C 142.509 192.382, 139.994 190.532, 132.856 190.209 L 126.421 189.918 130.511 185.650 C 135.730 180.203, 139.097 173.025, 139.735 165.985 C 140.120 161.739, 139.874 160.140, 138.683 159.152 C 135.878 156.824, 133.365 159.274, 132.687 164.994 C 131.438 175.542, 123.237 185.270, 113.231 188.074 C 106.818 189.872, 96.973 188.760, 91.645 185.638 C 84.180 181.263, 78.071 172.220, 78.022 165.473 C 78 162.420, 75.629 158, 74.015 158 C 73.535 158, 72.395 158.747, 71.482 159.661 M 60.743 223.500 C 67.750 237.525, 73.715 249, 74 249 C 74.285 249, 80.250 237.525, 87.257 223.500 L 99.995 198 74 198 L 48.005 198 60.743 223.500 " stroke="none" fill="black" fill-rule="evenodd"/>
</svg>