<svg xmlns="http://www.w3.org/2000/svg" width="84" height="324" viewBox="0 0 84 324" version="1.1">
	<path d="M 7.571 127.571 C 6.175 128.968, 6 136.372, 6 194 C 6 251.628, 6.175 259.032, 7.571 260.429 C 8.436 261.293, 9.529 262, 10 262 C 10.471 262, 11.564 261.293, 12.429 260.429 C 13.788 259.069, 14 254.758, 14 228.429 L 14 198 42 198 L 70 198 70 228.429 C 70 254.758, 70.212 259.069, 71.571 260.429 C 73.545 262.402, 74.455 262.402, 76.429 260.429 C 77.815 259.043, 78 253.048, 78 209.629 C 78 172.673, 77.701 160.101, 76.800 159.200 C 75.919 158.319, 67.422 158, 44.800 158 L 14 158 14 143.571 C 14 131.788, 13.712 128.855, 12.429 127.571 C 11.564 126.707, 10.471 126, 10 126 C 9.529 126, 8.436 126.707, 7.571 127.571 M 14 178 L 14 190 42 190 L 70 190 70 178 L 70 166 42 166 L 14 166 14 178 " stroke="none" fill="black" fill-rule="evenodd"/>
</svg>