<svg xmlns="http://www.w3.org/2000/svg" width="148" height="324" viewBox="0 0 148 324" version="1.1">
	<path d="M 35.045 191.055 C 18.367 194.463, 6.748 208.606, 6.748 225.500 C 6.748 249.444, 30.088 266.229, 52.770 258.599 C 62.757 255.239, 72.055 245.519, 75.053 235.304 L 76.284 231.108 107.069 246.551 C 136.459 261.294, 140.977 263.003, 141.014 259.393 C 141.022 258.627, 141.029 243.600, 141.029 226 C 141.029 208.400, 141.022 193.373, 141.014 192.607 C 140.977 188.997, 136.461 190.705, 107.114 205.427 L 76.374 220.847 75.127 216.174 C 70.617 199.270, 51.986 187.594, 35.045 191.055 M 31.627 199.468 C 26.302 201.367, 21.047 205.815, 17.618 211.328 C 14.254 216.737, 13.041 226.780, 14.916 233.708 C 16.446 239.361, 21.544 245.823, 27.266 249.361 C 37.153 255.473, 52.294 253.764, 60.431 245.617 C 66.733 239.305, 68.500 234.901, 68.500 225.500 C 68.500 216.107, 66.733 211.694, 60.453 205.406 C 53.664 198.608, 41.228 196.046, 31.627 199.468 M 108.250 212.798 C 94.362 219.774, 83 225.715, 83 226 C 83 226.285, 94.475 232.250, 108.500 239.257 L 134 251.995 134 225.997 C 134 211.699, 133.887 200.026, 133.750 200.057 C 133.613 200.088, 122.138 205.821, 108.250 212.798 " stroke="none" fill="black" fill-rule="evenodd"/>
</svg>