<svg xmlns="http://www.w3.org/2000/svg" width="148" height="324" viewBox="0 0 148 324" version="1.1">
	<path d="M 66.344 159.041 C 53.973 161.489, 42.611 172.423, 39.442 184.929 L 38.284 189.500 23.392 190 C 15.201 190.275, 7.938 190.864, 7.250 191.309 C 6.290 191.930, 6 199.997, 6 226.024 C 6 258.522, 6.080 259.973, 7.934 260.965 C 10.277 262.218, 137.825 262.398, 139.791 261.150 C 140.805 260.507, 141.082 252.958, 141.082 226 C 141.082 199.042, 140.805 191.493, 139.791 190.850 C 139.081 190.399, 131.637 190.024, 123.250 190.015 C 108.769 190.001, 108 189.901, 108 188.038 C 108 184.052, 103.815 175.071, 99.868 170.587 C 94.846 164.882, 88.541 161.101, 81.147 159.360 C 74.881 157.885, 72.451 157.833, 66.344 159.041 M 63.385 167.617 C 55.428 170.439, 48.611 178.342, 46.450 187.250 L 45.783 190 73.411 190 L 101.038 190 100.379 187.250 C 98.467 179.277, 93.249 172.780, 85.745 169.030 C 78.822 165.571, 70.617 165.052, 63.385 167.617 M 14 226 L 14 254 74 254 L 134 254 134 226 L 134 198 74 198 L 14 198 14 226 " stroke="none" fill="black" fill-rule="evenodd"/>
</svg>