<svg xmlns="http://www.w3.org/2000/svg" width="84" height="324" viewBox="0 0 84 324" version="1.1">
	<path d="M 67.500 62.645 C 51.598 64.478, 38.211 70.686, 27.164 81.349 C 14.935 93.153, 8.305 107.205, 6.531 125.076 L 5.878 131.653 11.365 136.340 C 45.386 165.406, 45.416 221.569, 11.426 250.608 C 0.345 260.074, 6.598 263.273, 26.500 258.320 C 48.546 252.834, 68.542 232.724, 74.544 210 C 76.823 201.372, 76.823 185.618, 74.543 177.017 C 69.708 158.775, 57.055 142.926, 40.436 134.295 C 32.239 130.037, 22.525 127, 17.106 127 C 14.298 127, 14 126.702, 14 123.894 C 14 118.684, 16.976 108.875, 20.794 101.500 C 29.923 83.868, 51.508 70, 69.823 70 C 74.568 70, 78 68.321, 78 66 C 78 65.529, 77.293 64.436, 76.429 63.571 C 74.901 62.043, 73.755 61.925, 67.500 62.645 M 25.918 141.141 C 32.395 149.086, 39.373 163.027, 42.113 173.500 C 45.026 184.632, 45.026 202.368, 42.113 213.500 C 39.373 223.973, 32.395 237.914, 25.918 245.859 L 20.733 252.218 24.117 251.554 C 25.977 251.189, 31.325 249.043, 36 246.786 C 51.118 239.487, 63.195 224.714, 67.415 208.356 C 69.446 200.483, 69.446 186.517, 67.415 178.644 C 63.195 162.286, 51.118 147.513, 36 140.214 C 31.325 137.957, 25.977 135.811, 24.117 135.446 L 20.733 134.782 25.918 141.141 " stroke="none" fill="black" fill-rule="evenodd"/>
</svg>