<svg xmlns="http://www.w3.org/2000/svg" width="84" height="324" viewBox="0 0 84 324" version="1.1">
	<path d="M 33.384 191.412 C 15.475 195.758, 3.559 213.807, 6.987 231.396 C 8.500 239.161, 12.212 246.019, 17.580 250.967 C 32.353 264.584, 54.173 263.611, 67.545 248.739 C 71.523 244.315, 76 235.131, 76 231.397 C 76 230.556, 76.405 229.111, 76.900 228.184 C 78.134 225.876, 74.891 213.196, 71.654 207.673 C 66.742 199.290, 58.159 193.234, 48.201 191.123 C 41.812 189.769, 40.008 189.804, 33.384 191.412 M 31.385 199.617 C 23.428 202.439, 16.611 210.342, 14.450 219.250 L 13.783 222 41.500 222 L 69.217 222 68.550 219.250 C 66.335 210.120, 59.528 202.390, 51.205 199.554 C 45.596 197.643, 36.873 197.671, 31.385 199.617 M 14.525 232.250 C 18.314 245.167, 28.497 253, 41.500 253 C 54.503 253, 64.686 245.167, 68.475 232.250 L 69.135 230 41.500 230 L 13.865 230 14.525 232.250 " stroke="none" fill="black" fill-rule="evenodd"/>
</svg>