<svg xmlns="http://www.w3.org/2000/svg" width="148" height="324" viewBox="0 0 148 324" version="1.1">
	<path d="M 7.627 127.515 C 5.597 129.546, 5.587 130.444, 7.571 132.429 C 8.538 133.395, 10.888 134, 13.677 134 C 31.791 134, 53.739 148.457, 62.330 166.046 C 65.956 173.472, 69 183.357, 69 187.710 L 69 190 39.071 190 C 13.197 190, 8.930 190.213, 7.571 191.571 C 5.598 193.545, 5.598 194.455, 7.571 196.429 C 8.844 197.701, 11.697 198, 22.575 198 L 36.006 198 21.020 227.961 C 12.777 244.439, 6.285 258.580, 6.594 259.384 C 7.265 261.133, 9.512 262.125, 11.274 261.448 C 11.975 261.180, 19.056 247.919, 27.010 231.980 C 34.964 216.041, 41.717 203, 42.016 203 C 42.315 203, 49.071 216.093, 57.030 232.095 C 64.988 248.098, 71.842 261.402, 72.259 261.660 C 74.831 263.250, 77.526 258.979, 91.125 231.762 L 105.744 202.502 120.310 231.620 C 128.485 247.962, 135.617 261.023, 136.565 261.386 C 138.679 262.198, 141 260.358, 141 257.871 C 141 256.835, 134.480 242.952, 126.511 227.021 L 112.021 198.056 125.653 197.778 C 137.361 197.539, 139.441 197.253, 140.388 195.750 C 141.191 194.475, 141.190 193.525, 140.386 192.250 C 139.381 190.655, 136.559 190.477, 108.505 190.235 L 77.728 189.971 78.373 184.485 C 81.471 158.128, 107.910 134, 133.694 134 C 138.803 134, 141 132.774, 141 129.922 C 141 126.350, 138.591 125.734, 129.412 126.955 C 114.149 128.986, 100.998 135.298, 90.498 145.632 C 83.947 152.078, 77.676 161.327, 75.278 168.079 L 73.619 172.752 69.394 164.126 C 58.992 142.891, 39.378 129.367, 14.877 126.537 C 10.402 126.020, 8.923 126.220, 7.627 127.515 M 60.743 223.500 C 67.750 237.525, 73.715 249, 74 249 C 74.285 249, 80.250 237.525, 87.257 223.500 L 99.995 198 74 198 L 48.005 198 60.743 223.500 " stroke="none" fill="black" fill-rule="evenodd"/>
</svg>