<svg xmlns="http://www.w3.org/2000/svg" width="164" height="324" viewBox="0 0 164 324" version="1.1">
	<path d="M 67 126.637 C 49.023 129.262, 36.267 135.634, 24.973 147.630 C 14.512 158.742, 9.067 170.184, 6.930 185.546 C 4.936 199.888, 8.839 216.975, 16.957 229.435 C 21.889 237.003, 31.610 246.543, 38.500 250.574 C 42.823 253.104, 43.186 253.545, 41.178 253.829 C 38.157 254.257, 33.460 261.629, 32.065 268.132 C 30.778 274.134, 32.003 280.602, 35.588 286.732 C 38.384 291.512, 41.158 293.402, 44.038 292.488 C 46.867 291.590, 46.464 288.293, 43.049 284.403 C 37.896 278.534, 37.677 268.959, 42.537 261.947 C 44.264 259.455, 45.045 257.281, 44.695 255.941 C 44.256 254.262, 44.482 253.988, 45.823 254.574 C 51.073 256.864, 58.081 259.014, 62.151 259.582 L 66.801 260.231 65.261 263.866 C 63.127 268.900, 63.354 277.765, 65.755 283.116 C 68.444 289.111, 72.467 293.215, 75.265 292.818 C 78.556 292.350, 78.753 288.398, 75.647 285.142 C 70.911 280.177, 69.622 272.234, 72.452 265.462 C 74.097 261.524, 76.044 260.569, 84.353 259.624 C 87.573 259.258, 93.448 257.700, 97.409 256.162 C 116.462 248.763, 131.224 233.144, 137.708 213.521 C 139.983 206.638, 140.359 203.798, 140.359 193.500 C 140.359 183.202, 139.983 180.362, 137.708 173.479 C 129.488 148.603, 108.146 130.610, 82.678 127.083 C 74.947 126.013, 71.876 125.925, 67 126.637 M 58.645 135.584 C 38.671 140.419, 20.279 158.986, 15.537 179.103 C 10.672 199.742, 16.569 220.600, 31.484 235.516 C 43.347 247.379, 56.873 252.955, 73.856 252.985 C 99.723 253.031, 122.712 236.223, 130.596 211.500 C 134.188 200.237, 134.188 186.763, 130.596 175.500 C 124.417 156.124, 108.075 140.682, 88.356 135.587 C 80.840 133.646, 66.658 133.644, 58.645 135.584 M 39.571 159.571 C 38.707 160.436, 38 161.529, 38 162 C 38 163.111, 40.889 166, 42 166 C 43.111 166, 46 163.111, 46 162 C 46 160.889, 43.111 158, 42 158 C 41.529 158, 40.436 158.707, 39.571 159.571 M 71.557 160.223 C 70.232 162.113, 70 166.890, 70 192.223 L 70 222 55.571 222 C 43.788 222, 40.855 222.288, 39.571 223.571 C 37.598 225.545, 37.598 226.455, 39.571 228.429 C 40.936 229.793, 45.463 230, 74 230 C 102.537 230, 107.064 229.793, 108.429 228.429 C 110.402 226.455, 110.402 225.545, 108.429 223.571 C 107.145 222.288, 104.212 222, 92.429 222 L 78 222 78 191.571 C 78 165.242, 77.788 160.931, 76.429 159.571 C 74.322 157.465, 73.402 157.588, 71.557 160.223 M 104.200 159.200 C 102.111 161.289, 103.447 166, 106.129 166 C 107.139 166, 110 163.044, 110 162 C 110 160.956, 107.139 158, 106.129 158 C 105.728 158, 104.860 158.540, 104.200 159.200 M 101.972 256.193 C 93.781 264.735, 93.979 281.388, 102.379 290.318 C 104.085 292.131, 105.826 293.022, 107.265 292.818 C 110.556 292.350, 110.753 288.398, 107.647 285.142 C 101.582 278.783, 101.346 267.543, 107.149 261.348 C 108.311 260.107, 109.024 258.202, 108.832 256.848 C 108.374 253.608, 104.780 253.265, 101.972 256.193 M 136 271.418 C 126.375 280.984, 118.500 289.348, 118.500 290.005 C 118.500 290.662, 125.925 298.574, 135 307.587 C 149.503 321.990, 151.893 323.975, 154.750 323.987 C 157.175 323.997, 158 323.559, 158 322.262 C 158 321.306, 151.143 313.656, 142.762 305.262 L 127.524 290 142.762 274.738 C 151.143 266.344, 158 258.710, 158 257.773 C 158 256.408, 155.270 253.954, 153.816 254.013 C 153.642 254.020, 145.625 261.852, 136 271.418 " stroke="none" fill="black" fill-rule="evenodd"/>
</svg>