<svg xmlns="http://www.w3.org/2000/svg" width="212" height="324" viewBox="0 0 212 324" version="1.1">
	<path d="M 99 126.580 C 90.698 127.983, 84.901 129.460, 80.500 131.295 C 57.216 141.005, 41.328 162.608, 38.592 188.281 C 38.077 193.108, 35.341 199.328, 22.004 225.992 C 13.220 243.553, 6.285 258.580, 6.594 259.384 C 7.265 261.133, 9.512 262.124, 11.274 261.448 C 11.975 261.180, 19.056 247.919, 27.010 231.980 C 34.964 216.041, 41.710 203, 42 203 C 42.290 203, 49.036 216.041, 56.990 231.980 C 64.944 247.919, 72.025 261.180, 72.726 261.448 C 73.427 261.717, 74.592 261.710, 75.315 261.433 C 76.038 261.155, 83.112 247.894, 91.035 231.964 C 98.958 216.034, 105.685 203, 105.984 203 C 106.283 203, 113.042 216.054, 121.004 232.009 C 130.274 250.584, 136.131 261.224, 137.289 261.592 C 139.105 262.168, 142 260.506, 142 258.887 C 142 258.409, 148.375 245.567, 156.167 230.350 L 170.334 202.681 184.568 231.136 C 192.397 246.786, 199.493 260.164, 200.337 260.865 C 202.191 262.404, 206 260.786, 206 258.459 C 206 257.650, 198.626 242.245, 189.613 224.226 C 175.481 195.972, 173.072 190.473, 172.109 184.268 C 167.077 151.836, 141.737 128.692, 109 126.630 C 104.875 126.370, 100.375 126.348, 99 126.580 M 91.217 135.449 C 74.861 139.410, 59.442 151.915, 52.191 167.101 C 48.492 174.848, 46 183.279, 46 188.049 C 46 189.962, 47.168 190, 105.638 190 L 165.275 190 164.629 184.499 C 161.980 161.961, 142.704 140.915, 119.754 135.504 C 112.204 133.724, 98.451 133.698, 91.217 135.449 M 60.743 223.500 C 67.750 237.525, 73.715 249, 74 249 C 74.285 249, 80.250 237.525, 87.257 223.500 L 99.995 198 74 198 L 48.005 198 60.743 223.500 M 124.743 223.500 C 131.750 237.525, 137.715 249, 138 249 C 138.285 249, 144.250 237.525, 151.257 223.500 L 163.995 198 138 198 L 112.005 198 124.743 223.500 " stroke="none" fill="black" fill-rule="evenodd"/>
</svg>