<svg xmlns="http://www.w3.org/2000/svg" width="148" height="324" viewBox="0 0 148 324" version="1.1">
	<path d="M 35.045 159.064 C 18.390 162.436, 6.748 176.604, 6.748 193.500 C 6.748 217.444, 30.088 234.229, 52.770 226.599 C 63.040 223.144, 72.354 213.217, 75.147 202.750 C 76.290 198.467, 76.700 198, 79.313 198 C 84.357 198, 94.254 201.042, 101.500 204.820 C 110.311 209.413, 121.306 220.220, 125.780 228.686 C 129.503 235.731, 133 248.277, 133 254.589 C 133 258.479, 134.839 262, 136.871 262 C 140.482 262, 141.008 252.263, 138.028 240.609 C 134.984 228.707, 129.779 219.737, 120.503 210.407 C 113.886 203.752, 110.772 201.491, 102.978 197.684 C 97.435 194.977, 90.801 192.585, 87 191.923 C 83.425 191.300, 79.599 190.632, 78.497 190.438 C 77.003 190.176, 76.181 188.768, 75.263 184.906 C 73.748 178.525, 69.076 171.077, 63.709 166.483 C 56.559 160.363, 44.300 157.190, 35.045 159.064 M 31.627 167.468 C 26.302 169.367, 21.047 173.815, 17.618 179.328 C 14.254 184.737, 13.041 194.780, 14.916 201.708 C 16.446 207.361, 21.544 213.823, 27.266 217.361 C 33.398 221.152, 43.268 222.068, 50.852 219.549 C 56.768 217.584, 63.558 211.496, 66.523 205.500 C 69.293 199.895, 69.292 187.102, 66.521 181.500 C 63.571 175.538, 57.083 169.557, 51.504 167.656 C 45.655 165.663, 36.923 165.580, 31.627 167.468 " stroke="none" fill="black" fill-rule="evenodd"/>
</svg>