<svg xmlns="http://www.w3.org/2000/svg" width="148" height="324" viewBox="0 0 148 324" version="1.1">
	<path d="M 39.230 159.285 C 20.953 177.591, 6 193.084, 6 193.713 C 6 195.191, 8.808 198, 10.285 198 C 10.913 198, 25.506 183.947, 42.713 166.771 L 74 135.542 105.287 166.771 C 122.494 183.947, 137.064 198, 137.664 198 C 139.258 198, 141.218 195.323, 140.833 193.673 C 140.331 191.529, 75.486 126, 73.866 126 C 73.092 126, 57.506 140.978, 39.230 159.285 M 71.571 159.571 C 70.324 160.819, 70 163.528, 70 172.716 L 70 184.290 64.560 179.145 C 61.568 176.315, 58.675 174, 58.131 174 C 56.829 174, 54 176.861, 54 178.178 C 54 178.747, 57.226 182.540, 61.169 186.607 L 68.338 194 61.169 201.393 C 57.226 205.460, 54 209.253, 54 209.822 C 54 211.139, 56.829 214, 58.131 214 C 58.675 214, 61.568 211.685, 64.560 208.855 L 70 203.710 70 215.284 C 70 224.472, 70.324 227.181, 71.571 228.429 C 73.678 230.535, 74.598 230.412, 76.443 227.777 C 77.622 226.095, 78 222.900, 78 214.632 L 78 203.710 83.440 208.855 C 89.246 214.346, 89.931 214.669, 91.800 212.800 C 94.157 210.443, 92.906 207.708, 86.372 200.940 L 79.744 194.074 86.372 186.916 C 92.993 179.764, 94.060 177.460, 91.800 175.200 C 89.931 173.331, 89.246 173.654, 83.440 179.145 L 78 184.290 78 173.368 C 78 165.100, 77.622 161.905, 76.443 160.223 C 74.598 157.588, 73.678 157.465, 71.571 159.571 " stroke="none" fill="black" fill-rule="evenodd"/>
</svg>