<svg xmlns="http://www.w3.org/2000/svg" width="148" height="324" viewBox="0 0 148 324" version="1.1">
	<path d="M 7.750 127.076 C 6.787 127.639, 6 128.863, 6 129.797 C 6 130.730, 33.561 159.058, 67.247 192.747 L 128.494 254 68.818 254 C 15.901 254, 8.965 254.178, 7.571 255.571 C 5.598 257.545, 5.598 258.455, 7.571 260.429 C 8.968 261.825, 16.372 262, 74 262 C 131.628 262, 139.032 261.825, 140.429 260.429 C 141.293 259.564, 142 258.388, 142 257.814 C 142 257.241, 114.577 229.260, 81.060 195.636 L 20.121 134.500 79.702 134 C 135.040 133.536, 139.361 133.375, 140.386 131.750 C 141.191 130.474, 141.191 129.526, 140.386 128.250 C 139.356 126.616, 134.963 126.485, 74.391 126.276 C 31.547 126.129, 8.905 126.400, 7.750 127.076 " stroke="none" fill="black" fill-rule="evenodd"/>
</svg>