<svg xmlns="http://www.w3.org/2000/svg" width="20" height="324" viewBox="0 0 20 324" version="1.1">
	<path d="M 7.571 127.571 C 6.707 128.436, 6 129.529, 6 130 C 6 130.913, 8.807 134, 9.637 134 C 9.909 134, 11.002 133.534, 12.066 132.965 C 14.554 131.633, 14.554 128.367, 12.066 127.035 C 9.564 125.696, 9.431 125.712, 7.571 127.571 M 7.571 159.571 C 6.207 160.936, 6 165.463, 6 194 C 6 222.537, 6.207 227.064, 7.571 228.429 C 9.431 230.288, 9.564 230.304, 12.066 228.965 C 13.920 227.973, 14 226.522, 14 194 C 14 161.478, 13.920 160.027, 12.066 159.035 C 9.564 157.696, 9.431 157.712, 7.571 159.571 M 7.571 255.571 C 6.707 256.436, 6 257.529, 6 258 C 6 258.913, 8.807 262, 9.637 262 C 9.909 262, 11.002 261.534, 12.066 260.965 C 14.554 259.633, 14.554 256.367, 12.066 255.035 C 9.564 253.696, 9.431 253.712, 7.571 255.571 " stroke="none" fill="black" fill-rule="evenodd"/>
</svg>