<svg xmlns="http://www.w3.org/2000/svg" width="148" height="324" viewBox="0 0 148 324" version="1.1">
	<path d="M 35.045 159.064 C 13.497 163.427, 1.173 185.901, 9.037 206.493 C 12.168 214.691, 20.323 222.842, 28.507 225.953 C 44.080 231.872, 61.978 226.229, 70.535 212.702 L 73.379 208.207 76.014 212.353 C 90.326 234.876, 123.239 233.491, 136.070 209.826 C 139.326 203.821, 139.500 202.993, 139.500 193.500 C 139.500 184.007, 139.326 183.179, 136.070 177.174 C 123.239 153.509, 90.326 152.124, 76.014 174.647 L 73.379 178.793 70.597 174.395 C 63.298 162.857, 48.284 156.383, 35.045 159.064 M 31.627 167.468 C 26.302 169.367, 21.047 173.815, 17.618 179.328 C 14.254 184.737, 13.041 194.780, 14.916 201.708 C 16.446 207.361, 21.544 213.823, 27.266 217.361 C 33.398 221.152, 43.268 222.068, 50.852 219.549 C 56.768 217.584, 63.558 211.496, 66.523 205.500 C 69.293 199.895, 69.292 187.102, 66.521 181.500 C 63.571 175.538, 57.083 169.557, 51.504 167.656 C 45.655 165.663, 36.923 165.580, 31.627 167.468 M 94.435 167.890 C 83.942 172.656, 77.986 181.930, 78.022 193.446 C 78.070 208.813, 88.010 219.695, 102.977 220.766 C 114.937 221.622, 123.982 216.876, 129.551 206.824 C 132.127 202.173, 132.500 200.488, 132.500 193.500 C 132.500 186.512, 132.127 184.827, 129.551 180.176 C 126.179 174.090, 121.063 169.639, 114.965 167.488 C 109.124 165.427, 99.441 165.617, 94.435 167.890 M 55.282 239.282 C 45.777 248.787, 38 257.079, 38 257.710 C 38 259.205, 40.811 261.999, 42.321 262.005 C 42.970 262.008, 50.250 255.009, 58.500 246.451 L 73.500 230.892 88 245.511 C 95.975 253.552, 103.316 260.582, 104.314 261.135 C 106.584 262.392, 109.229 260.472, 108.798 257.880 C 108.459 255.836, 75.310 222, 73.648 222 C 73.052 222, 64.787 229.777, 55.282 239.282 " stroke="none" fill="black" fill-rule="evenodd"/>
</svg>