<svg xmlns="http://www.w3.org/2000/svg" width="84" height="324" viewBox="0 0 84 324" version="1.1">
	<path d="M 39.571 127.571 C 38.211 128.932, 38 133.276, 38 159.944 L 38 190.744 33.908 191.399 C 25.196 192.792, 15.430 200.099, 10.768 208.712 C -0.696 229.892, 11.624 255.341, 35.604 260.013 C 58.779 264.529, 80.707 242.481, 76 219.396 C 73.161 205.471, 62.183 193.813, 49.703 191.472 L 46 190.777 46 159.960 C 46 133.278, 45.789 128.932, 44.429 127.571 C 43.564 126.707, 42.471 126, 42 126 C 41.529 126, 40.436 126.707, 39.571 127.571 M 31.054 199.728 C 25.018 201.859, 17.781 209.260, 15.667 215.463 C 11.995 226.241, 14.382 237.477, 21.952 245.048 C 32.673 255.769, 50.327 255.769, 61.048 245.048 C 71.769 234.327, 71.769 216.673, 61.048 205.952 C 53.519 198.424, 41.696 195.970, 31.054 199.728 " stroke="none" fill="black" fill-rule="evenodd"/>
</svg>