<svg xmlns="http://www.w3.org/2000/svg" width="148" height="324" viewBox="0 0 148 324" version="1.1">
	<path d="M 7.750 127.080 C 6.111 128.035, 6 132.293, 6 194.015 C 6 258.159, 6.052 259.957, 7.934 260.965 C 10.262 262.211, 137.819 262.402, 139.772 261.162 C 141.639 259.977, 141.639 128.023, 139.772 126.838 C 137.842 125.613, 9.866 125.848, 7.750 127.080 M 14 194 L 14 254 74 254 L 134 254 134 194 L 134 134 74 134 L 14 134 14 194 M 55.213 287.315 C 45.746 296.838, 38 305.131, 38 305.743 C 38 307.180, 40.815 310, 42.249 310 C 42.857 310, 50.250 303.156, 58.677 294.792 L 74 279.584 89.323 294.792 C 97.750 303.156, 105.120 310, 105.700 310 C 107.589 310, 109.237 307.079, 108.654 304.763 C 107.960 302.006, 75.957 270, 73.894 270 C 73.086 270, 64.680 277.792, 55.213 287.315 " stroke="none" fill="black" fill-rule="evenodd"/>
</svg>