<svg xmlns="http://www.w3.org/2000/svg" width="196" height="324" viewBox="0 0 196 324" version="1.1">
	<path d="M 70.571 127.571 C 69.640 128.503, 69 130.860, 69 133.361 C 69 139.530, 66.472 148.473, 62.330 156.954 C 53.672 174.680, 31.886 188.920, 13.321 188.985 C 9.426 188.999, 6 190.878, 6 193 C 6 193.471, 6.732 194.589, 7.627 195.485 C 10.827 198.684, 27.975 195.153, 40.500 188.716 C 49.912 183.879, 61.930 172.602, 66.841 164 L 69.981 158.500 69.991 208.679 C 69.999 252.954, 70.185 259.042, 71.571 260.429 C 73.587 262.444, 74.323 262.406, 76.335 260.182 C 77.807 258.556, 78.008 253.258, 78.240 210.056 L 78.500 161.747 81.678 166.624 C 91.992 182.449, 109.782 193.433, 129.308 196.031 C 138.597 197.267, 141 196.660, 141 193.078 C 141 190.226, 138.803 189, 133.694 189 C 126.904 189, 117.973 186.515, 109.587 182.292 C 92.209 173.543, 78 151.756, 78 133.861 C 78 129.087, 76.233 126, 73.500 126 C 72.754 126, 71.436 126.707, 70.571 127.571 M 167.315 175.213 C 157.792 184.680, 150 193.134, 150 194 C 150 195.680, 183.953 230, 185.615 230 C 187.105 230, 189 227.795, 189 226.062 C 189 225.216, 182.143 217.656, 173.762 209.262 L 158.524 194 173.762 178.738 C 182.143 170.344, 189 162.784, 189 161.938 C 189 160.205, 187.105 158, 185.615 158 C 185.073 158, 176.838 165.746, 167.315 175.213 " stroke="none" fill="black" fill-rule="evenodd"/>
</svg>