<svg xmlns="http://www.w3.org/2000/svg" width="164" height="324" viewBox="0 0 164 324" version="1.1">
	<path d="M 65.024 127.603 C 38.492 134.733, 29.656 166.816, 48.920 186.080 C 54.378 191.538, 62.977 196, 68.038 196 C 69.942 196, 70 196.851, 70 225 L 70 254 39.571 254 C 13.242 254, 8.931 254.212, 7.571 255.571 C 5.598 257.545, 5.598 258.455, 7.571 260.429 C 8.900 261.757, 12.387 262, 30.156 262 L 51.170 262 47.118 266.603 C 38.777 276.079, 36.371 290.276, 41.037 302.493 C 44.175 310.710, 52.329 318.851, 60.507 321.932 C 68.562 324.967, 82.200 324.563, 88.892 321.092 C 95.890 317.463, 102.421 310.671, 105.583 303.734 C 109.617 294.886, 109.650 284.110, 105.670 275.500 C 104.144 272.200, 101.253 267.813, 99.245 265.750 L 95.594 262 116.863 262 C 129.611 262, 138.906 261.585, 140.066 260.965 C 142.554 259.633, 142.554 256.367, 140.066 255.035 C 138.855 254.387, 126.878 254, 108.066 254 L 78 254 78 225.111 L 78 196.223 81.703 195.528 C 87.109 194.514, 92.645 191.412, 98.013 186.392 C 112.105 173.209, 112.105 149.791, 98.013 136.608 C 92.344 131.307, 87.324 128.633, 80.201 127.123 C 73.574 125.719, 71.832 125.774, 65.024 127.603 M 64.453 135.266 C 52.003 140.308, 45.332 150.569, 46.195 163.349 C 46.687 170.631, 49.109 176.109, 54 181 C 59.840 186.840, 64.267 188.500, 74 188.500 C 81.457 188.500, 83.070 188.165, 87.145 185.770 C 96.431 180.310, 100.956 172.359, 100.956 161.500 C 100.956 150.687, 96.421 142.675, 87.261 137.307 C 83.650 135.191, 81.193 134.591, 75.117 134.343 C 70.649 134.161, 66.240 134.543, 64.453 135.266 M 136 271.418 C 126.375 280.984, 118.500 289.348, 118.500 290.005 C 118.500 290.662, 125.925 298.574, 135 307.587 C 149.503 321.990, 151.893 323.975, 154.750 323.987 C 157.175 323.997, 158 323.559, 158 322.262 C 158 321.306, 151.143 313.656, 142.762 305.262 L 127.524 290 142.762 274.738 C 151.143 266.344, 158 258.710, 158 257.773 C 158 256.408, 155.270 253.954, 153.816 254.013 C 153.642 254.020, 145.625 261.852, 136 271.418 M 71.680 264.801 C 70.808 265.765, 68.835 269.242, 67.297 272.527 C 64.791 277.878, 64.500 279.593, 64.500 289 C 64.500 298.407, 64.791 300.122, 67.297 305.473 C 68.835 308.758, 70.818 312.246, 71.703 313.225 C 73.228 314.909, 73.443 314.812, 75.775 311.381 C 80.528 304.386, 82.243 297.455, 81.809 287 C 81.463 278.670, 81 276.664, 78.052 270.713 C 76.202 266.980, 74.369 263.728, 73.978 263.486 C 73.587 263.245, 72.553 263.836, 71.680 264.801 M 83 263.353 C 83 263.576, 84.104 266.175, 85.454 269.129 C 91.159 281.618, 90.994 296.906, 85.015 309.750 C 83.414 313.188, 82.443 316, 82.857 316 C 84.695 316, 92.978 309.895, 95.338 306.801 C 99.466 301.390, 101 296.628, 101 289.228 C 101 281.132, 97.919 273.892, 92.419 269.063 C 89.170 266.211, 83 262.470, 83 263.353 M 57.428 266.976 C 42.094 277.847, 42.192 301.468, 57.616 312.080 C 59.950 313.686, 62.318 315, 62.878 315 C 63.437 315, 62.581 312.188, 60.975 308.750 C 57.309 300.903, 55.850 291.126, 57.065 282.547 C 57.954 276.269, 60.433 268.470, 62.150 266.550 C 63.201 265.375, 63.256 263.985, 62.250 264.045 C 61.837 264.069, 59.668 265.388, 57.428 266.976 " stroke="none" fill="black" fill-rule="evenodd"/>
</svg>