<svg xmlns="http://www.w3.org/2000/svg" width="132" height="324" viewBox="0 0 132 324" version="1.1">
	<path d="M 23.213 143.315 C 13.746 152.838, 6 161.131, 6 161.743 C 6 163.175, 8.813 166, 10.239 166 C 10.841 166, 17.334 160.059, 24.667 152.798 L 38 139.595 38 149.298 L 38 159 35.160 159 C 30.727 159, 20.634 164.589, 16.013 169.602 C 9.426 176.748, 6.611 183.903, 6.611 193.500 C 6.611 200, 7.099 202.564, 9.216 207.175 C 14.017 217.635, 24.144 226.040, 33.807 227.585 L 38 228.256 38 243.556 C 38 256.133, 38.280 259.137, 39.571 260.429 C 40.436 261.293, 41.529 262, 42 262 C 42.471 262, 43.564 261.293, 44.429 260.429 C 45.720 259.137, 46 256.131, 46 243.540 L 46 228.223 49.750 227.527 C 55.247 226.508, 62.532 222.232, 66.967 217.420 C 77.525 205.965, 79.545 190.313, 72.219 176.712 C 67.726 168.368, 58.185 161.063, 49.703 159.472 L 46 158.777 46 149.186 L 46 139.595 59.333 152.798 C 66.666 160.059, 73.159 166, 73.761 166 C 75.187 166, 78 163.175, 78 161.743 C 78 159.994, 43.761 126, 42 126 C 41.134 126, 32.680 133.792, 23.213 143.315 M 103.282 175.282 C 93.777 184.787, 86 193.210, 86 194 C 86 195.693, 120.031 230, 121.710 230 C 123.173 230, 126 227.200, 126 225.751 C 126 225.143, 119.156 217.750, 110.792 209.323 L 95.584 194 110.792 178.677 C 119.156 170.250, 126 162.857, 126 162.249 C 126 160.800, 123.173 158, 121.710 158 C 121.079 158, 112.787 165.777, 103.282 175.282 M 31.054 167.728 C 25.018 169.859, 17.781 177.260, 15.667 183.463 C 11.948 194.378, 14.390 205.587, 22.128 213.125 C 26.193 217.084, 33.676 221, 37.178 221 C 37.630 221, 38 208.625, 38 193.500 C 38 172.125, 37.722 166.018, 36.750 166.079 C 36.063 166.122, 33.499 166.864, 31.054 167.728 M 46 193.500 L 46 221.135 48.250 220.448 C 57.341 217.671, 64.783 211.020, 67.403 203.329 C 72.854 187.332, 64.639 171.558, 48.250 166.552 L 46 165.865 46 193.500 " stroke="none" fill="black" fill-rule="evenodd"/>
</svg>