<svg xmlns="http://www.w3.org/2000/svg" width="148" height="324" viewBox="0 0 148 324" version="1.1">
	<path d="M 35.045 159.064 C 19.897 162.131, 8.917 174.118, 6.587 190.135 C 5.515 197.497, 6.537 198, 22.575 198 L 36.006 198 21.020 227.961 C 12.777 244.439, 6.285 258.580, 6.594 259.384 C 7.265 261.133, 9.512 262.125, 11.274 261.448 C 11.975 261.180, 19.056 247.919, 27.010 231.980 C 34.964 216.041, 41.717 203, 42.016 203 C 42.315 203, 49.042 216.034, 56.965 231.964 C 64.888 247.894, 71.962 261.155, 72.685 261.433 C 73.408 261.710, 74.570 261.719, 75.267 261.451 C 75.963 261.184, 83.106 247.811, 91.139 231.734 L 105.744 202.502 120.310 231.620 C 128.485 247.962, 135.617 261.023, 136.565 261.386 C 138.679 262.198, 141 260.358, 141 257.871 C 141 256.835, 134.480 242.952, 126.511 227.021 L 112.021 198.056 125.653 197.778 C 137.361 197.539, 139.441 197.253, 140.388 195.750 C 142.509 192.382, 139.994 190.532, 132.856 190.209 L 126.421 189.918 130.511 185.650 C 135.730 180.203, 139.097 173.025, 139.735 165.985 C 140.120 161.739, 139.874 160.140, 138.683 159.152 C 135.878 156.824, 133.365 159.274, 132.687 164.994 C 131.438 175.542, 123.237 185.270, 113.231 188.074 C 106.818 189.872, 96.973 188.760, 91.645 185.638 C 84.180 181.263, 78.071 172.220, 78.022 165.473 C 78 162.420, 75.629 158, 74.015 158 C 73.535 158, 72.395 158.747, 71.482 159.661 C 67.893 163.250, 72.565 177.318, 80.038 185.425 L 84.255 190 80.258 190 C 76.432 190, 76.236 189.844, 75.667 186.336 C 72.834 168.875, 52.850 155.458, 35.045 159.064 M 31.463 167.591 C 23.567 170.395, 16.189 178.737, 14.519 186.750 L 13.841 190 41.421 190 C 63.808 190, 69 189.748, 69 188.660 C 69 185.506, 62.628 174.873, 59.031 172.024 C 51.647 166.176, 40.497 164.384, 31.463 167.591 M 60.743 223.500 C 67.750 237.525, 73.715 249, 74 249 C 74.285 249, 80.250 237.525, 87.257 223.500 L 99.995 198 74 198 L 48.005 198 60.743 223.500 " stroke="none" fill="black" fill-rule="evenodd"/>
</svg>