<svg xmlns="http://www.w3.org/2000/svg" width="148" height="324" viewBox="0 0 148 324" version="1.1">
	<path d="M 33.608 132.122 C 21.790 142.951, 13.186 157.368, 8.913 173.500 C 5.960 184.646, 5.957 202.335, 8.907 213.500 C 11.597 223.681, 17.398 235.760, 23.425 243.727 C 28.951 251.033, 39.643 261, 41.953 261 C 44.231 261, 57.728 246.750, 62.790 239 C 65.125 235.425, 68.458 229.033, 70.196 224.795 L 73.357 217.089 76.251 224.292 C 77.842 228.253, 81.554 235.116, 84.500 239.542 C 90.228 248.152, 102.915 261, 105.688 261 C 108.193 261, 121.268 247.183, 126.840 238.648 C 135.821 224.890, 140 210.555, 140 193.500 C 140 176.388, 135.837 162.159, 126.735 148.161 C 121.762 140.513, 107.848 126, 105.489 126 C 102.990 126, 89.864 139.395, 84.575 147.344 C 81.588 151.833, 77.842 158.747, 76.251 162.708 L 73.357 169.911 70.196 162.205 C 68.458 157.967, 65.141 151.575, 62.825 148 C 58.196 140.854, 43.932 126, 41.698 126 C 40.923 126, 37.283 128.755, 33.608 132.122 M 35.348 140.250 C 9.541 167.661, 6.683 208.165, 28.421 238.393 C 30.836 241.752, 34.604 246.230, 36.795 248.345 C 41.676 253.056, 42.545 252.747, 50.390 243.499 C 57.189 235.485, 62.012 226.954, 65.656 216.500 C 68.227 209.122, 68.444 207.334, 68.444 193.500 C 68.444 179.687, 68.224 177.867, 65.666 170.500 C 64.139 166.100, 61.048 159.262, 58.798 155.305 C 54.723 148.140, 43.452 135, 41.379 135 C 40.780 135, 38.066 137.363, 35.348 140.250 M 99.882 139.750 C 89.847 150.243, 83.240 161.853, 79.899 174.864 C 77.225 185.278, 77.225 201.725, 79.901 212.144 C 83.161 224.837, 91.613 239.482, 100.796 248.345 C 104.665 252.080, 104.850 252.144, 107.257 250.567 C 112.919 246.858, 123.463 232.147, 127.381 222.493 C 136.871 199.107, 134.036 171.675, 119.989 150.981 C 115.589 144.499, 106.834 135, 105.260 135 C 104.801 135, 102.381 137.137, 99.882 139.750 " stroke="none" fill="black" fill-rule="evenodd"/>
</svg>