<svg xmlns="http://www.w3.org/2000/svg" width="84" height="324" viewBox="0 0 84 324" version="1.1">
	<path d="M 33.384 127.412 C 20.085 130.639, 10.019 141.137, 7.123 154.799 C 5.447 162.706, 5.639 225.832, 7.360 233.147 C 13.578 259.562, 45.012 269.439, 65.100 251.290 C 67.306 249.298, 70.281 245.671, 71.710 243.231 C 76.825 234.504, 77.396 230.052, 77.771 196 C 78.140 162.411, 77.396 154.867, 72.812 145.705 C 68.329 136.745, 59.308 129.752, 49.147 127.360 C 42.397 125.772, 40.111 125.779, 33.384 127.412 M 31.054 135.728 C 25.018 137.859, 17.781 145.260, 15.667 151.463 C 11.995 162.241, 14.382 173.477, 21.952 181.048 C 32.673 191.769, 50.327 191.769, 61.048 181.048 C 71.769 170.327, 71.769 152.673, 61.048 141.952 C 53.519 134.424, 41.696 131.970, 31.054 135.728 M 66.161 186.321 C 53.446 199.491, 31.908 199.946, 17.955 187.340 L 14 183.767 14 207.205 C 14 234.744, 14.626 237.721, 21.952 245.048 C 32.673 255.769, 50.327 255.769, 61.048 245.048 C 68.313 237.782, 69.200 234.157, 69.739 209.500 C 69.991 197.950, 70.041 187.231, 69.849 185.681 L 69.500 182.862 66.161 186.321 " stroke="none" fill="black" fill-rule="evenodd"/>
</svg>