<svg xmlns="http://www.w3.org/2000/svg" width="148" height="324" viewBox="0 0 148 324" version="1.1">
	<path d="M 104.243 158.250 C 86.999 175.342, 85.658 176.944, 86.581 179.350 C 88.006 183.063, 90.407 182.048, 97.956 174.543 L 105.538 167.006 117.003 178.503 L 128.467 190 68.805 190 C 15.900 190, 8.965 190.178, 7.571 191.571 C 4.148 194.995, 7.242 198, 14.190 198 L 19.237 198 16.244 201.062 C 8.737 208.740, 4.914 221.372, 7 231.604 C 10.073 246.678, 20.741 257.257, 35.562 259.927 C 49.411 262.423, 64.605 255.592, 71.164 243.922 L 73.316 240.093 76.535 245.199 C 80.137 250.912, 88.639 257.235, 95.323 259.173 C 107.078 262.581, 120.681 259.177, 129.342 250.661 C 137.431 242.707, 139.477 237.626, 139.477 225.500 C 139.477 214.267, 137.916 209.767, 131.365 202.114 L 127.844 198 133.351 198 C 138.753 198, 142.539 196.117, 141.770 193.811 C 141.595 193.285, 134.490 185.922, 125.980 177.448 L 110.509 162.041 117.754 154.747 C 121.740 150.735, 125 146.766, 125 145.926 C 125 144.205, 123.101 142, 121.619 142 C 121.079 142, 113.260 149.313, 104.243 158.250 M 31.741 199.429 C 24 202.191, 24.035 202.488, 33.170 211.671 L 41.457 220.001 49.692 211.809 C 58.838 202.711, 58.906 202.178, 51.260 199.573 C 45.673 197.669, 36.855 197.604, 31.741 199.429 M 65.926 200.145 C 67.192 201.325, 69.446 204.211, 70.934 206.557 L 73.640 210.824 75.570 207.239 C 76.632 205.268, 78.772 202.382, 80.327 200.827 L 83.154 198 73.388 198 L 63.623 198 65.926 200.145 M 95.603 199.477 C 87.528 202.354, 87.594 203.079, 96.764 212.249 L 104.985 220.470 113.503 211.997 C 122.013 203.531, 122.018 203.522, 119.818 201.863 C 114.670 197.980, 103.024 196.832, 95.603 199.477 M 17.570 211.253 C 12.719 218.656, 12.828 233.891, 17.775 239.955 C 19.490 242.057, 19.548 242.021, 27.751 233.763 L 36.001 225.457 27.605 217.104 L 19.209 208.752 17.570 211.253 M 55.227 217.271 L 46.999 225.543 55.459 233.959 L 63.918 242.375 66.449 236.937 C 69.867 229.595, 69.898 221.472, 66.536 214.250 C 65.192 211.363, 63.949 209, 63.774 209 C 63.599 209, 59.753 212.722, 55.227 217.271 M 82.192 210.269 C 77.752 215.619, 76.575 229.264, 79.918 236.627 C 80.948 238.896, 82.209 241.011, 82.718 241.326 C 83.228 241.641, 87.325 238.199, 91.823 233.678 L 100.001 225.457 91.671 217.170 C 84.884 210.419, 83.128 209.140, 82.192 210.269 M 118.727 216.772 C 114.477 221.047, 111 224.995, 111 225.546 C 111 226.667, 126.144 242, 127.252 242 C 127.641 242, 128.973 240.088, 130.212 237.750 C 132.008 234.363, 132.465 231.875, 132.465 225.500 C 132.465 219.125, 132.008 216.637, 130.212 213.250 C 128.973 210.912, 127.620 209, 127.206 209 C 126.792 209, 122.976 212.497, 118.727 216.772 M 33.170 239.329 C 24.017 248.530, 24.002 248.678, 31.962 251.487 C 37.497 253.439, 45.426 253.415, 51.260 251.427 C 58.906 248.822, 58.838 248.289, 49.692 239.191 L 41.457 230.999 33.170 239.329 M 96.477 239.059 L 88.500 247.118 90.830 249.034 C 97.199 254.272, 111.801 254.342, 119.819 249.174 L 122.137 247.680 113.841 239.340 C 109.278 234.753, 105.299 231, 104.999 231 C 104.699 231, 100.864 234.627, 96.477 239.059 " stroke="none" fill="black" fill-rule="evenodd"/>
</svg>