<svg xmlns="http://www.w3.org/2000/svg" width="148" height="324" viewBox="0 0 148 324" version="1.1">
	<path d="M 71.259 191.259 C 35.366 227.151, 6 257.044, 6 257.687 C 6 259.179, 8.793 262, 10.269 262 C 10.889 262, 21.094 252.339, 32.948 240.531 L 54.500 219.062 54.602 226.509 C 54.947 251.647, 80.919 267.534, 104.567 257.073 C 110.249 254.560, 117.898 246.855, 121.020 240.500 C 123.132 236.202, 123.477 234.096, 123.477 225.500 C 123.477 213.374, 121.431 208.293, 113.342 200.339 C 106.556 193.666, 99.272 190.764, 89.173 190.707 L 81.846 190.667 111.423 161.077 C 127.690 144.803, 141 130.793, 141 129.944 C 141 128.178, 139.099 126, 137.559 126 C 136.986 126, 107.151 155.366, 71.259 191.259 M 79.603 199.477 C 71.528 202.354, 71.594 203.079, 80.764 212.249 L 88.985 220.470 97.503 211.997 C 106.013 203.531, 106.018 203.522, 103.818 201.863 C 98.670 197.980, 87.024 196.832, 79.603 199.477 M 66.192 210.269 C 61.752 215.619, 60.575 229.264, 63.918 236.627 C 64.948 238.896, 66.209 241.011, 66.718 241.326 C 67.228 241.641, 71.325 238.199, 75.823 233.678 L 84.001 225.457 75.671 217.170 C 68.884 210.419, 67.128 209.140, 66.192 210.269 M 102.727 216.772 C 98.477 221.047, 95 224.995, 95 225.546 C 95 226.667, 110.144 242, 111.252 242 C 113.054 242, 116.335 233.011, 116.776 226.865 C 117.180 221.235, 116.863 219.381, 114.681 214.615 C 113.268 211.527, 111.738 209, 111.282 209 C 110.826 209, 106.976 212.497, 102.727 216.772 M 80.477 239.059 L 72.500 247.118 74.830 249.034 C 81.199 254.272, 95.801 254.342, 103.819 249.174 L 106.137 247.680 97.841 239.340 C 93.278 234.753, 89.299 231, 88.999 231 C 88.699 231, 84.864 234.627, 80.477 239.059 " stroke="none" fill="black" fill-rule="evenodd"/>
</svg>