<svg xmlns="http://www.w3.org/2000/svg" width="148" height="324" viewBox="0 0 148 324" version="1.1">
	<path d="M 127.531 191.091 C 119.182 192.338, 110.248 195.479, 103.514 199.534 C 85.151 210.592, 74.023 227.684, 70.496 250.250 L 69.909 254 39.526 254 C 13.238 254, 8.931 254.212, 7.571 255.571 C 5.598 257.545, 5.598 258.455, 7.571 260.429 C 8.864 261.721, 11.880 262, 24.584 262 L 40.025 262 55.263 292.926 L 70.500 323.853 73.747 323.926 L 76.994 324 92.487 293.025 L 107.981 262.051 123.633 261.775 C 137.268 261.535, 139.427 261.274, 140.387 259.750 C 141.191 258.475, 141.190 257.525, 140.386 256.250 C 139.381 254.655, 136.559 254.477, 108.505 254.235 L 77.728 253.971 78.373 248.485 C 80.420 231.067, 93.525 212.797, 109.877 204.562 C 117.954 200.494, 123.281 198.974, 132.395 198.135 C 139.977 197.437, 142.486 195.591, 140.394 192.250 C 139.099 190.182, 135.679 189.874, 127.531 191.091 M 60.743 287.500 C 67.750 301.525, 73.749 313, 74.076 313 C 74.546 313, 96.679 268.303, 98.711 263.250 C 99.106 262.269, 93.695 262, 73.610 262 L 48.005 262 60.743 287.500 " stroke="none" fill="black" fill-rule="evenodd"/>
</svg>