<svg xmlns="http://www.w3.org/2000/svg" width="148" height="324" viewBox="0 0 148 324" version="1.1">
	<path d="M 7.571 127.571 C 6.707 128.436, 6 129.529, 6 130 C 6 130.471, 6.707 131.564, 7.571 132.429 C 8.966 133.824, 16.152 134, 71.571 134 L 134 134 134 194 L 134 254 71.571 254 C 16.152 254, 8.966 254.176, 7.571 255.571 C 5.598 257.545, 5.598 258.455, 7.571 260.429 C 8.968 261.825, 16.343 261.998, 73.821 261.985 C 109.395 261.976, 139.072 261.606, 139.772 261.162 C 141.639 259.977, 141.639 128.023, 139.772 126.838 C 139.072 126.394, 109.395 126.024, 73.821 126.015 C 16.343 126.002, 8.968 126.175, 7.571 127.571 M 55.213 159.315 C 45.746 168.838, 38 177.131, 38 177.743 C 38 179.180, 40.815 182, 42.249 182 C 42.857 182, 50.250 175.156, 58.677 166.792 L 74 151.584 89.323 166.792 C 97.750 175.156, 105.120 182, 105.700 182 C 107.589 182, 109.237 179.079, 108.654 176.763 C 107.960 174.006, 75.957 142, 73.894 142 C 73.086 142, 64.680 149.792, 55.213 159.315 " stroke="none" fill="black" fill-rule="evenodd"/>
</svg>