<svg xmlns="http://www.w3.org/2000/svg" width="148" height="324" viewBox="0 0 148 324" version="1.1">
	<path d="M 63.102 127.162 C 37.850 130.772, 15.064 151.522, 8.374 177 C 6.113 185.610, 6.113 201.390, 8.374 210 C 11.589 222.245, 16.561 230.638, 26.461 240.539 C 40.540 254.618, 54.163 260.346, 73.500 260.319 C 91.884 260.292, 106.916 254.066, 120.095 241.019 C 133.603 227.646, 140 212.375, 140 193.500 C 140 174.951, 133.599 159.433, 120.582 146.421 C 109.514 135.358, 97.357 129.200, 82.284 127.020 C 74.450 125.888, 71.879 125.907, 63.102 127.162 M 57.500 135.870 C 37.436 141.645, 20.733 158.691, 15.585 178.644 C 13.554 186.517, 13.554 200.483, 15.585 208.356 C 20.838 228.716, 38.284 246.162, 58.644 251.415 C 65.760 253.251, 78.565 253.481, 86.201 251.910 C 89.115 251.310, 95.244 249.032, 99.820 246.847 C 115.079 239.562, 126.717 225.246, 131.003 208.489 C 138.032 181.004, 124.843 152.100, 99.820 140.153 C 95.244 137.968, 89.115 135.690, 86.201 135.090 C 78.410 133.487, 64.459 133.866, 57.500 135.870 M 39.571 159.571 C 38.707 160.436, 38 161.529, 38 162 C 38 163.111, 40.889 166, 42 166 C 43.111 166, 46 163.111, 46 162 C 46 160.889, 43.111 158, 42 158 C 41.529 158, 40.436 158.707, 39.571 159.571 M 71.571 159.571 C 70.212 160.931, 70 165.242, 70 191.571 L 70 222 55.571 222 C 43.788 222, 40.855 222.288, 39.571 223.571 C 37.595 225.548, 37.598 226.455, 39.585 228.442 C 40.978 229.835, 45.159 229.995, 74.226 229.763 C 104.452 229.523, 107.377 229.350, 108.386 227.750 C 109.190 226.475, 109.191 225.525, 108.387 224.250 C 107.433 222.736, 105.314 222.463, 92.643 222.223 L 78 221.947 78 192.196 C 78 166.887, 77.768 162.113, 76.443 160.223 C 74.598 157.588, 73.678 157.465, 71.571 159.571 M 103.616 159.527 C 102.727 160.416, 102 161.529, 102 162 C 102 163.389, 105.140 166.120, 106.295 165.735 C 108.395 165.035, 109.549 162.094, 108.423 160.310 C 106.905 157.902, 105.474 157.669, 103.616 159.527 M 55.213 287.315 C 45.746 296.838, 38 305.131, 38 305.743 C 38 307.180, 40.815 310, 42.249 310 C 42.857 310, 50.250 303.156, 58.677 294.792 L 74 279.584 89.323 294.792 C 97.750 303.156, 105.085 310, 105.623 310 C 107.122 310, 109.003 307.781, 108.971 306.050 C 108.931 303.973, 75.919 269.963, 73.963 269.984 C 73.117 269.993, 64.680 277.792, 55.213 287.315 " stroke="none" fill="black" fill-rule="evenodd"/>
</svg>