<svg xmlns="http://www.w3.org/2000/svg" width="228" height="324" viewBox="0 0 228 324" version="1.1">
	<path d="M 7.571 191.571 C 6.707 192.436, 6 193.529, 6 194 C 6 194.471, 6.707 195.564, 7.571 196.429 C 8.844 197.701, 11.697 198, 22.576 198 L 36.009 198 25.110 219.750 C 19.115 231.713, 13.221 242.625, 12.010 244 C 6.953 249.744, 4.772 257.629, 7.489 260.346 C 10.490 263.347, 11.808 262.364, 16 254 C 17.792 250.425, 19.762 247.169, 20.379 246.765 C 20.996 246.361, 23.457 246.024, 25.850 246.015 C 29.474 246.003, 30.767 246.567, 33.600 249.400 C 35.970 251.770, 37 253.718, 37 255.829 C 37 258.700, 39.139 262, 41 262 C 41.471 262, 42.601 261.256, 43.511 260.346 C 45.349 258.508, 44.904 253.650, 42.465 248.933 C 39.629 243.448, 31.098 238.032, 25.254 238.006 C 24.542 238.002, 27.753 230.495, 32.740 220.500 C 37.544 210.875, 41.715 203, 42.010 203 C 42.305 203, 49.102 216.162, 57.114 232.250 C 70.084 258.293, 71.942 261.500, 74.058 261.500 C 76.012 261.500, 77.037 260.255, 79.817 254.500 C 81.676 250.650, 83.716 247.169, 84.349 246.765 C 84.982 246.361, 87.457 246.024, 89.850 246.015 C 93.474 246.003, 94.767 246.567, 97.600 249.400 C 99.970 251.770, 101 253.718, 101 255.829 C 101 258.700, 103.139 262, 105 262 C 105.471 262, 106.601 261.256, 107.511 260.346 C 109.349 258.508, 108.904 253.650, 106.465 248.933 C 103.629 243.448, 95.098 238.032, 89.254 238.006 C 88.542 238.002, 91.753 230.495, 96.740 220.500 C 101.544 210.875, 105.711 203, 106.001 203 C 106.291 203, 112.822 215.661, 120.514 231.136 C 133.965 258.196, 136.120 262, 138 262 C 139.861 262, 142 258.700, 142 255.829 C 142 253.718, 143.030 251.770, 145.400 249.400 C 148.302 246.498, 149.488 246, 153.500 246 C 157.512 246, 158.698 246.498, 161.600 249.400 C 163.970 251.770, 165 253.718, 165 255.829 C 165 258.700, 167.139 262, 169 262 C 169.471 262, 170.601 261.256, 171.511 260.346 C 174.655 257.203, 171.650 248.534, 165.564 243.191 C 157.748 236.328, 147.397 236.875, 139.714 244.559 C 138.205 246.068, 136.802 247.122, 136.596 246.902 C 136.391 246.681, 130.771 235.588, 124.107 222.250 L 111.992 198 125.425 198 C 136.303 198, 139.156 197.701, 140.429 196.429 C 141.293 195.564, 142 194.471, 142 194 C 142 193.529, 141.293 192.436, 140.429 191.571 C 139.032 190.175, 131.628 190, 74 190 C 16.372 190, 8.968 190.175, 7.571 191.571 M 60.107 222.250 C 66.771 235.588, 72.416 246.706, 72.652 246.957 C 73.884 248.270, 79.320 239.282, 89.109 219.750 L 100.009 198 74 198 L 47.992 198 60.107 222.250 M 199.282 239.282 C 189.777 248.787, 182 257.210, 182 258 C 182 259.693, 216.031 294, 217.710 294 C 219.173 294, 222 291.200, 222 289.751 C 222 289.143, 215.156 281.750, 206.792 273.323 L 191.584 258 206.792 242.677 C 215.156 234.250, 222 226.857, 222 226.249 C 222 224.800, 219.173 222, 217.710 222 C 217.079 222, 208.787 229.777, 199.282 239.282 " stroke="none" fill="black" fill-rule="evenodd"/>
</svg>