<svg xmlns="http://www.w3.org/2000/svg" width="180" height="324" viewBox="0 0 180 324" version="1.1">
	<path d="M 7.627 127.515 C 5.597 129.546, 5.587 130.444, 7.571 132.429 C 8.538 133.395, 10.888 134, 13.677 134 C 36.759 134, 61.776 154.978, 67.463 179.103 C 70.175 190.611, 69.638 194.693, 63.891 206.248 L 58.783 216.520 54.624 212.361 C 43.319 201.056, 25.489 207.015, 22.503 223.096 C 21.855 226.586, 23.585 230, 26 230 C 27.861 230, 30 226.700, 30 223.829 C 30 221.718, 31.030 219.770, 33.400 217.400 C 36.302 214.498, 37.488 214, 41.500 214 C 45.512 214, 46.698 214.498, 49.600 217.400 C 51.970 219.770, 53 221.718, 53 223.829 C 53 228.820, 57.234 231.662, 60.179 228.647 C 60.905 227.903, 64.185 221.828, 67.467 215.147 C 70.748 208.466, 73.688 203, 74 203 C 74.312 203, 77.252 208.466, 80.533 215.147 C 86.367 227.023, 88.264 230, 90 230 C 91.861 230, 94 226.700, 94 223.829 C 94 221.718, 95.030 219.770, 97.400 217.400 C 100.302 214.498, 101.488 214, 105.500 214 C 109.512 214, 110.698 214.498, 113.600 217.400 C 115.970 219.770, 117 221.718, 117 223.829 C 117 226.700, 119.139 230, 121 230 C 121.471 230, 122.601 229.256, 123.511 228.346 C 126.655 225.203, 123.650 216.534, 117.564 211.191 C 109.748 204.328, 99.397 204.875, 91.714 212.559 C 90.205 214.068, 88.803 215.122, 88.600 214.902 C 88.396 214.681, 85.928 209.896, 83.115 204.268 C 77.419 192.873, 76.995 189.891, 79.537 179.103 C 85.323 154.559, 110.127 134.091, 134.179 134.015 C 137.082 134.006, 139.453 133.404, 140.429 132.429 C 142.418 130.439, 142.404 129.547, 140.348 127.491 C 138.458 125.601, 131.095 126.031, 120.500 128.650 C 101.555 133.333, 82.966 149.455, 75.581 167.606 L 73.350 173.090 71.952 168.856 C 70.006 162.959, 63.768 153.491, 57.656 147.159 C 45.974 135.056, 32.532 128.576, 14.877 126.537 C 10.402 126.020, 8.923 126.220, 7.627 127.515 M 151.282 207.282 C 141.777 216.787, 134 225.210, 134 226 C 134 227.693, 168.031 262, 169.710 262 C 171.173 262, 174 259.200, 174 257.751 C 174 257.143, 167.156 249.750, 158.792 241.323 L 143.584 226 158.792 210.677 C 167.156 202.250, 174 194.857, 174 194.249 C 174 192.800, 171.173 190, 169.710 190 C 169.079 190, 160.787 197.777, 151.282 207.282 " stroke="none" fill="black" fill-rule="evenodd"/>
</svg>