<svg xmlns="http://www.w3.org/2000/svg" width="148" height="324" viewBox="0 0 148 324" version="1.1">
	<path d="M 39.177 159.357 L 5.820 192.713 6.503 198.607 C 8.590 216.608, 14.090 228.160, 26.465 240.535 C 40.445 254.514, 54.290 260.327, 73.500 260.283 C 92.334 260.239, 107.032 254.061, 120.500 240.527 C 132.505 228.464, 139.125 214.067, 140.144 197.808 L 140.500 192.116 107.563 159.058 C 89.448 140.876, 74.155 126, 73.580 126 C 73.004 126, 57.523 141.010, 39.177 159.357 M 43.744 165.756 C 10.472 199.042, 12.421 196.093, 15.585 208.356 C 20.838 228.716, 38.284 246.162, 58.644 251.415 C 65.760 253.251, 78.565 253.481, 86.201 251.910 C 89.115 251.310, 95.244 249.032, 99.820 246.847 C 115.079 239.562, 126.717 225.246, 131.003 208.489 C 134.521 194.735, 136.689 198.175, 103.744 165.244 C 87.653 149.160, 74.262 136, 73.987 136 C 73.712 136, 60.103 149.390, 43.744 165.756 " stroke="none" fill="black" fill-rule="evenodd"/>
</svg>