<svg xmlns="http://www.w3.org/2000/svg" width="148" height="324" viewBox="0 0 148 324" version="1.1">
	<path d="M 7.515 191.627 C 6.220 192.923, 6.020 194.402, 6.537 198.877 C 8.667 217.319, 15.435 230.734, 28.896 243.198 C 41.061 254.461, 56.010 260.265, 73 260.324 C 85.041 260.365, 91.157 258.928, 102.933 253.292 C 120.085 245.083, 133.276 228.972, 138.014 210.444 C 140.974 198.874, 140.477 190, 136.871 190 C 134.965 190, 133 193.509, 133 196.911 C 133 203.127, 129.245 215.866, 125.340 222.899 C 123.324 226.529, 118.711 232.425, 115.087 236.001 C 91.735 259.048, 54.488 258.874, 31.459 235.612 C 20.894 224.940, 14 209.960, 14 197.677 C 14 194.888, 13.395 192.538, 12.429 191.571 C 10.444 189.587, 9.546 189.597, 7.515 191.627 " stroke="none" fill="black" fill-rule="evenodd"/>
</svg>