<svg xmlns="http://www.w3.org/2000/svg" width="212" height="324" viewBox="0 0 212 324" version="1.1">
	<path d="M 7.571 127.571 C 6.707 128.436, 6 129.657, 6 130.286 C 6 130.914, 20.400 145.854, 38 163.485 L 70 195.540 70 227.199 C 70 254.646, 70.209 259.066, 71.571 260.429 C 73.545 262.402, 74.455 262.402, 76.429 260.429 C 77.788 259.069, 78 254.758, 78 228.429 L 78 198 138.500 198 L 199 198 199 228.878 C 199 254.493, 199.245 259.958, 200.436 260.947 C 201.502 261.832, 202.404 261.854, 203.936 261.034 C 205.959 259.952, 206 259.255, 206 226.165 C 206 201.237, 205.686 192.086, 204.800 191.200 C 203.892 190.292, 188.038 190, 139.570 190 L 75.540 190 43.485 158 C 25.854 140.400, 10.914 126, 10.286 126 C 9.657 126, 8.436 126.707, 7.571 127.571 " stroke="none" fill="black" fill-rule="evenodd"/>
</svg>