<svg xmlns="http://www.w3.org/2000/svg" width="148" height="324" viewBox="0 0 148 324" version="1.1">
	<path d="M 71.663 126.750 C 70.604 128.495, 6 258.061, 6 258.440 C 6 258.670, 6.707 259.564, 7.571 260.429 C 8.968 261.825, 16.372 262, 74 262 C 131.628 262, 139.032 261.825, 140.429 260.429 C 141.293 259.564, 142 258.663, 142 258.426 C 142 257.155, 76.584 127.384, 75.631 126.765 C 74.159 125.809, 72.238 125.802, 71.663 126.750 M 44.747 196.500 L 16.002 254 73.584 254 C 106.294 254, 131.023 253.620, 130.833 253.121 C 129.563 249.770, 74.395 139.002, 73.996 139.001 C 73.719 139, 60.557 164.875, 44.747 196.500 " stroke="none" fill="black" fill-rule="evenodd"/>
</svg>