<svg xmlns="http://www.w3.org/2000/svg" width="84" height="324" viewBox="0 0 84 324" version="1.1">
	<path d="M 23.239 143.260 L 6 160.521 6 194.021 L 6 227.521 23.260 244.761 C 32.754 254.242, 41.196 262, 42.021 262 C 42.846 262, 51.279 254.233, 60.761 244.740 L 78 227.479 78 193.979 L 78 160.479 60.740 143.239 C 51.246 133.758, 42.804 126, 41.979 126 C 41.154 126, 32.721 133.767, 23.239 143.260 M 30.500 147 L 19.534 158 42 158 L 64.466 158 53.500 147 C 47.469 140.950, 42.294 136, 42 136 C 41.706 136, 36.531 140.950, 30.500 147 M 14 194 L 14 222 42 222 L 70 222 70 194 L 70 166 42 166 L 14 166 14 194 M 30.756 241.244 L 42 252.489 53.244 241.244 L 64.489 230 42 230 L 19.511 230 30.756 241.244 " stroke="none" fill="black" fill-rule="evenodd"/>
</svg>