<svg xmlns="http://www.w3.org/2000/svg" width="148" height="324" viewBox="0 0 148 324" version="1.1">
	<path d="M 35.045 159.064 C 13.650 163.396, 1.173 185.916, 8.928 206.202 C 11.384 212.627, 18.062 220.641, 23.317 223.471 L 26.824 225.360 22.624 228.024 C 12.662 234.341, 6.748 245.322, 6.748 257.500 C 6.748 282.158, 31.175 298.873, 54.297 290.037 C 65.282 285.838, 74.783 273.706, 75.781 262.602 C 76.349 256.283, 78.149 254.205, 86.834 249.846 C 93.185 246.658, 94.020 246.500, 104.500 246.500 C 113.856 246.500, 116.247 246.843, 120.500 248.797 C 127.852 252.174, 132.743 255.838, 133.401 258.463 C 134.177 261.554, 136.750 262.394, 139.641 260.500 C 142.138 258.864, 142.560 257.082, 141.124 254.236 C 140.642 253.281, 139.530 248.675, 138.654 244 C 134.918 224.074, 121.595 206.777, 102.978 197.684 C 97.435 194.977, 90.801 192.585, 87 191.923 C 83.425 191.300, 79.599 190.632, 78.497 190.438 C 77.003 190.176, 76.181 188.768, 75.263 184.906 C 73.748 178.525, 69.076 171.077, 63.709 166.483 C 56.559 160.363, 44.300 157.190, 35.045 159.064 M 31.627 167.468 C 26.302 169.367, 21.047 173.815, 17.618 179.328 C 14.254 184.737, 13.041 194.780, 14.916 201.708 C 16.446 207.361, 21.544 213.823, 27.266 217.361 C 33.398 221.152, 43.268 222.068, 50.852 219.549 C 56.768 217.584, 63.558 211.496, 66.523 205.500 C 69.293 199.895, 69.292 187.102, 66.521 181.500 C 63.571 175.538, 57.083 169.557, 51.504 167.656 C 45.655 165.663, 36.923 165.580, 31.627 167.468 M 74.781 203.751 C 72.702 210.703, 67.133 218.213, 60.874 222.506 L 56.248 225.679 59.726 227.552 C 64.306 230.018, 70.523 237.176, 73.251 243.124 L 75.440 247.895 80.470 245.034 C 94.481 237.065, 112.153 236.521, 126.388 243.619 C 129.077 244.960, 131.438 245.895, 131.635 245.698 C 132.390 244.943, 128.669 234.233, 125.660 228.500 C 121.322 220.236, 110.244 209.378, 101.500 204.820 C 94.275 201.053, 84.356 197.999, 79.356 198.001 C 76.746 198.003, 76.352 198.497, 74.781 203.751 M 31.627 231.468 C 26.302 233.367, 21.047 237.815, 17.618 243.328 C 14.254 248.737, 13.041 258.780, 14.916 265.708 C 16.446 271.361, 21.544 277.823, 27.266 281.361 C 33.398 285.152, 43.268 286.068, 50.852 283.549 C 56.768 281.584, 63.558 275.496, 66.522 269.500 C 69.266 263.950, 69.252 251.143, 66.495 245.500 C 63.595 239.562, 57.098 233.562, 51.504 231.656 C 45.655 229.663, 36.923 229.580, 31.627 231.468 " stroke="none" fill="black" fill-rule="evenodd"/>
</svg>