<svg xmlns="http://www.w3.org/2000/svg" width="148" height="324" viewBox="0 0 148 324" version="1.1">
	<path d="M 63.102 127.104 C 37.616 130.977, 15.059 151.543, 8.374 177 C 6.114 185.608, 6.133 201.372, 8.414 210 C 12.552 225.647, 23.709 241.079, 37.307 249.965 L 43.483 254 26.313 254 C 12.037 254, 8.878 254.265, 7.571 255.571 C 5.596 257.546, 5.598 258.455, 7.579 260.436 C 8.990 261.847, 16.058 261.987, 74.220 261.757 C 134.934 261.517, 139.356 261.383, 140.386 259.750 C 141.191 258.474, 141.191 257.526, 140.387 256.250 C 139.413 254.704, 137.140 254.468, 120.895 254.226 L 102.506 253.953 108.003 250.824 C 115.691 246.447, 126.896 234.879, 131.551 226.513 C 142.982 205.964, 142.987 181.091, 131.564 160.487 C 123.551 146.033, 106.351 132.693, 90.500 128.638 C 82.410 126.568, 70.879 125.923, 63.102 127.104 M 57.500 135.870 C 37.436 141.645, 20.733 158.691, 15.585 178.644 C 13.554 186.517, 13.554 200.483, 15.585 208.356 C 20.838 228.716, 38.284 246.162, 58.644 251.415 C 65.760 253.251, 78.565 253.481, 86.201 251.910 C 89.115 251.310, 95.244 249.032, 99.820 246.847 C 115.079 239.562, 126.717 225.246, 131.003 208.489 C 138.032 181.004, 124.843 152.100, 99.820 140.153 C 95.244 137.968, 89.115 135.690, 86.201 135.090 C 78.410 133.487, 64.459 133.866, 57.500 135.870 " stroke="none" fill="black" fill-rule="evenodd"/>
</svg>