<svg xmlns="http://www.w3.org/2000/svg" width="148" height="324" viewBox="0 0 148 324" version="1.1">
	<path d="M 63.870 127.014 C 48.636 129.407, 37.616 135.194, 25.974 146.916 C 13.989 158.983, 8.432 170.878, 6.503 188.598 C 5.391 198.807, 0.046 198, 68.774 198 L 128.405 198 115.202 211.333 C 107.941 218.666, 102 225.159, 102 225.761 C 102 226.956, 104.736 230, 105.808 230 C 106.175 230, 112.667 223.819, 120.237 216.263 L 134 202.527 134 231.228 C 134 259.433, 134.037 259.949, 136.117 261.062 C 141.076 263.717, 141.023 264.446, 141.023 194 C 141.023 123.554, 141.076 124.283, 136.117 126.938 C 134.081 128.027, 134 128.764, 133.991 146.285 L 133.981 164.500 130.841 159 C 125.930 150.398, 113.912 139.121, 104.500 134.284 C 91.642 127.676, 76.688 125, 63.870 127.014 M 58.645 135.584 C 38.562 140.445, 20.305 158.877, 15.537 179.103 C 14.708 182.621, 14.023 186.512, 14.015 187.750 L 14 190 71.202 190 L 128.405 190 115.202 176.667 C 107.941 169.334, 102 162.841, 102 162.239 C 102 161.045, 104.735 158, 105.808 158 C 106.173 158, 112.258 163.738, 119.329 170.750 C 131.397 182.717, 132.144 183.285, 131.493 180 C 130.356 174.254, 126.674 165.854, 122.606 159.725 C 115.060 148.358, 101.656 139.103, 87.540 135.515 C 80.213 133.653, 66.488 133.685, 58.645 135.584 " stroke="none" fill="black" fill-rule="evenodd"/>
</svg>