<svg xmlns="http://www.w3.org/2000/svg" width="148" height="324" viewBox="0 0 148 324" version="1.1">
	<path d="M 120.530 142 L 104.424 158 72.783 158 C 45.353 158, 40.934 158.209, 39.571 159.571 C 37.598 161.545, 37.598 162.455, 39.571 164.429 C 40.924 165.781, 44.991 166, 68.807 166 L 96.470 166 51.235 211.276 C 26.356 236.177, 6 257.070, 6 257.704 C 6 259.174, 8.798 262, 10.253 262 C 10.863 262, 18.604 254.806, 27.455 246.014 L 43.547 230.029 75.415 229.764 C 104.508 229.523, 107.379 229.348, 108.386 227.750 C 109.191 226.474, 109.191 225.526, 108.386 224.250 C 107.386 222.663, 104.703 222.475, 79.566 222.234 L 51.849 221.968 96.424 176.819 C 120.941 151.988, 141 130.935, 141 130.035 C 141 128.222, 139.138 126, 137.619 126 C 137.079 126, 129.389 133.200, 120.530 142 " stroke="none" fill="black" fill-rule="evenodd"/>
</svg>