<svg xmlns="http://www.w3.org/2000/svg" width="132" height="324" viewBox="0 0 132 324" version="1.1">
	<path d="M 35.045 191.064 C 13.497 195.427, 1.173 217.901, 9.037 238.493 C 12.164 246.680, 20.320 254.836, 28.507 257.963 C 41.863 263.064, 56.079 260.081, 66.080 250.080 C 87.084 229.076, 74.303 193.904, 44.500 190.699 C 41.750 190.403, 37.495 190.567, 35.045 191.064 M 87.250 190.662 C 85.097 191.531, 85.875 194.819, 89.293 199.297 C 95.709 207.703, 97.492 213.289, 97.496 225 C 97.500 234.674, 97.256 236.015, 94.397 242.047 C 92.691 245.648, 89.844 250.247, 88.070 252.267 C 85.769 254.888, 85.030 256.520, 85.490 257.970 C 86.503 261.161, 90.353 260.501, 93.831 256.540 C 109.266 238.960, 109.205 210.971, 93.694 193.304 C 90.858 190.075, 89.791 189.637, 87.250 190.662 M 31.054 199.728 C 25.018 201.859, 17.781 209.260, 15.667 215.463 C 11.995 226.241, 14.382 237.477, 21.952 245.048 C 32.673 255.769, 50.327 255.769, 61.048 245.048 C 71.769 234.327, 71.769 216.673, 61.048 205.952 C 53.519 198.424, 41.696 195.970, 31.054 199.728 " stroke="none" fill="black" fill-rule="evenodd"/>
</svg>