<svg xmlns="http://www.w3.org/2000/svg" width="180" height="324" viewBox="0 0 180 324" version="1.1">
	<path d="M 99 190.637 C 86.355 192.484, 78.758 195.248, 69 201.556 C 57.419 209.042, 47.959 220.646, 42.925 233.538 L 40.568 239.577 34.534 233.442 C 28.269 227.074, 22.243 224.005, 13.322 222.639 C 9.270 222.019, 6 223.520, 6 226 C 6 227.792, 9.253 230, 11.893 230 C 21.159 230, 32.376 238.420, 35.285 247.558 C 37.340 254.011, 37.359 261.300, 35.338 267.442 C 32.319 276.615, 21.123 285, 11.893 285 C 9.253 285, 6 287.208, 6 289 C 6 289.471, 6.707 290.564, 7.572 291.429 C 10.811 294.668, 25.076 290.326, 32.413 283.868 C 39.331 277.779, 42.392 271.662, 45.704 257.314 C 46.359 254.476, 52.291 250.597, 59.892 248.036 C 74.983 242.953, 94.139 247.812, 102.972 258.964 C 112.581 271.097, 134.778 276.663, 151.787 271.204 C 157.499 269.371, 170.374 262.029, 172.274 259.522 C 173.277 258.199, 172.248 248.152, 170.329 240.517 C 165.123 219.812, 147.597 200.909, 127.284 194.089 C 117.777 190.897, 106.581 189.531, 99 190.637 M 90.645 199.584 C 74.775 203.426, 59.497 215.915, 52.214 231 C 49.957 235.675, 47.823 240.969, 47.472 242.765 L 46.834 246.030 50.167 244.093 C 55.952 240.729, 64.993 238.649, 73.500 238.725 C 87.460 238.849, 98.770 243.826, 108.541 254.146 C 111.606 257.383, 115.858 260.457, 119.962 262.402 C 125.996 265.261, 127.318 265.500, 137.123 265.500 C 147.550 265.500, 147.888 265.426, 155.539 261.500 C 159.826 259.300, 163.804 256.736, 164.379 255.802 C 166.213 252.823, 163.441 240.418, 158.837 231 C 151.332 215.645, 136.132 203.364, 119.897 199.537 C 111.998 197.676, 98.439 197.697, 90.645 199.584 " stroke="none" fill="black" fill-rule="evenodd"/>
</svg>