<svg xmlns="http://www.w3.org/2000/svg" width="84" height="324" viewBox="0 0 84 324" version="1.1">
	<path d="M 39.571 127.571 C 38.178 128.965, 38 135.897, 38 188.774 L 38 248.405 24.667 235.202 C 17.334 227.941, 10.841 222, 10.239 222 C 8.813 222, 6 224.825, 6 226.257 C 6 228.006, 40.239 262, 42 262 C 43.761 262, 78 228.006, 78 226.257 C 78 224.825, 75.187 222, 73.761 222 C 73.159 222, 66.666 227.941, 59.333 235.202 L 46 248.405 46 188.774 C 46 135.897, 45.822 128.965, 44.429 127.571 C 43.564 126.707, 42.471 126, 42 126 C 41.529 126, 40.436 126.707, 39.571 127.571 " stroke="none" fill="black" fill-rule="evenodd"/>
</svg>