<svg xmlns="http://www.w3.org/2000/svg" width="148" height="324" viewBox="0 0 148 324" version="1.1">
	<path d="M 64.500 126.955 C 48.723 129.475, 38.148 134.827, 26.916 145.978 C 14.616 158.188, 9.256 168.822, 6.914 185.661 C 2.460 217.689, 24.557 249.851, 57 258.561 C 65.553 260.857, 81.267 260.849, 90 258.543 C 106.923 254.076, 124.325 240.408, 132.264 225.348 C 142.612 205.720, 142.612 181.280, 132.264 161.652 C 124.401 146.736, 106.682 132.739, 90.500 128.660 C 82.790 126.717, 70.880 125.936, 64.500 126.955 M 58.159 135.569 C 37.914 141.015, 20.798 158.320, 15.487 178.711 C 13.563 186.100, 13.583 200.980, 15.528 208.448 C 20.839 228.836, 38.202 246.111, 58.731 251.430 C 66.366 253.409, 79.578 253.423, 87.897 251.463 C 97.403 249.222, 107.521 243.468, 115.087 236.001 C 138.900 212.500, 138.900 174.500, 115.087 150.999 C 107.714 143.722, 97.850 138.035, 88.356 135.585 C 80.745 133.622, 65.427 133.613, 58.159 135.569 M 87.616 159.527 C 86.727 160.416, 86 161.640, 86 162.249 C 86 162.857, 92.844 170.250, 101.208 178.677 L 116.416 194 101.208 209.323 C 92.844 217.750, 86 225.143, 86 225.751 C 86 227.207, 88.995 230.171, 90.087 229.795 C 91.273 229.386, 126 194.774, 126 194 C 126 193.226, 91.273 158.614, 90.087 158.205 C 89.617 158.043, 88.505 158.638, 87.616 159.527 " stroke="none" fill="black" fill-rule="evenodd"/>
</svg>