<svg xmlns="http://www.w3.org/2000/svg" width="52" height="324" viewBox="0 0 52 324" version="1.1">
	<path d="M 7.571 159.571 C 6.707 160.436, 6 161.640, 6 162.249 C 6 162.857, 12.844 170.250, 21.208 178.677 L 36.416 194 21.208 209.323 C 12.844 217.750, 6 225.143, 6 225.751 C 6 227.208, 8.826 229.996, 10.321 230.014 C 11.512 230.028, 46 195.217, 46 194 C 46 192.783, 11.512 157.972, 10.321 157.986 C 9.673 157.994, 8.436 158.707, 7.571 159.571 M 7.571 191.571 C 6.707 192.436, 6 193.529, 6 194 C 6 195.111, 8.889 198, 10 198 C 11.111 198, 14 195.111, 14 194 C 14 192.889, 11.111 190, 10 190 C 9.529 190, 8.436 190.707, 7.571 191.571 " stroke="none" fill="black" fill-rule="evenodd"/>
</svg>