<svg xmlns="http://www.w3.org/2000/svg" width="84" height="324" viewBox="0 0 84 324" version="1.1">
	<path d="M 7.571 127.571 C 6.175 128.968, 6 136.406, 6 194.371 C 6 243.771, 6.291 259.891, 7.200 260.800 C 8.085 261.685, 17.117 262, 41.629 262 C 70.503 262, 75.063 261.794, 76.429 260.429 C 78.402 258.455, 78.402 257.545, 76.429 255.571 C 75.069 254.212, 70.758 254, 44.429 254 L 14 254 14 224.788 L 14 195.576 30 179.470 C 38.800 170.611, 46 162.863, 46 162.253 C 46 160.824, 43.185 158, 41.761 158 C 41.159 158, 34.666 163.941, 27.333 171.202 L 14 184.405 14 156.774 C 14 132.988, 13.781 128.924, 12.429 127.571 C 11.564 126.707, 10.471 126, 10 126 C 9.529 126, 8.436 126.707, 7.571 127.571 " stroke="none" fill="black" fill-rule="evenodd"/>
</svg>