<svg xmlns="http://www.w3.org/2000/svg" width="148" height="324" viewBox="0 0 148 324" version="1.1">
	<path d="M 7.579 127.564 C 6.710 128.432, 6 129.529, 6 130 C 6 130.471, 6.710 131.568, 7.579 132.436 C 8.990 133.847, 16.058 133.987, 74.220 133.757 C 134.934 133.517, 139.356 133.383, 140.386 131.750 C 141.191 130.474, 141.191 129.526, 140.386 128.250 C 139.356 126.617, 134.934 126.483, 74.220 126.243 C 16.058 126.013, 8.990 126.153, 7.579 127.564 M 31.263 175.514 C 19.394 178.093, 4.465 188.194, 5.170 193.170 C 5.707 196.959, 9.610 196.767, 13.870 192.741 C 30.170 177.337, 57.255 178.621, 71.313 195.463 C 80.354 206.295, 98.314 211.867, 113.746 208.629 C 125.964 206.066, 140.475 197.218, 139.805 192.740 C 139.161 188.438, 136.629 188.460, 130.858 192.818 C 121.268 200.058, 116.973 201.500, 105 201.500 C 95.344 201.500, 93.977 201.252, 88 198.418 C 83.615 196.339, 79.554 193.310, 75.522 189.110 C 68.411 181.705, 58.680 176.538, 49 175.029 C 40.928 173.770, 39.055 173.821, 31.263 175.514 M 7.579 255.564 C 6.710 256.432, 6 257.529, 6 258 C 6 258.471, 6.710 259.568, 7.579 260.436 C 8.990 261.847, 16.058 261.987, 74.220 261.757 C 134.934 261.517, 139.356 261.383, 140.386 259.750 C 141.191 258.474, 141.191 257.526, 140.386 256.250 C 139.356 254.617, 134.934 254.483, 74.220 254.243 C 16.058 254.013, 8.990 254.153, 7.579 255.564 " stroke="none" fill="black" fill-rule="evenodd"/>
</svg>