<svg xmlns="http://www.w3.org/2000/svg" width="148" height="324" viewBox="0 0 148 324" version="1.1">
	<path d="M 71.750 191.057 C 68.707 192.869, 69.807 195.236, 76.876 202.084 C 89.020 213.848, 96.240 226.700, 99.420 242.208 C 102.154 255.546, 107.967 254, 55.071 254 C 14.652 254, 8.954 254.188, 7.571 255.571 C 5.598 257.545, 5.598 258.455, 7.571 260.429 C 8.968 261.825, 16.368 262, 73.949 262 C 128.303 262, 138.943 261.774, 139.918 260.599 C 141.448 258.755, 139.724 244.419, 137.032 236.592 C 131.043 219.187, 118.830 205.271, 102.377 197.108 C 92.592 192.254, 75.434 188.864, 71.750 191.057 M 89.362 204.489 C 99.048 216.381, 106.367 233.334, 107.616 246.778 L 108.287 254 120.757 254 L 133.227 254 132.525 249.319 C 130.478 235.669, 122.877 221.459, 112.915 212.661 C 107.349 207.745, 94.127 200.720, 88.104 199.477 L 84.709 198.777 89.362 204.489 " stroke="none" fill="black" fill-rule="evenodd"/>
</svg>