<svg xmlns="http://www.w3.org/2000/svg" width="148" height="324" viewBox="0 0 148 324" version="1.1">
	<path d="M 64.500 126.944 C 48.464 129.540, 38.190 134.822, 26.461 146.500 C 19.435 153.496, 16.611 157.170, 13.778 163 C 7.648 175.615, 4.334 193.191, 7.491 196.348 C 10.992 199.850, 14 196.834, 14 189.823 C 14 170.500, 28.065 149.356, 47 140.214 C 51.675 137.957, 56.995 135.817, 58.823 135.459 L 62.146 134.809 56.996 141.155 C 50.805 148.783, 42.818 164.867, 40.438 174.500 C 38.054 184.149, 38.027 201.154, 40.379 211.500 C 44.029 227.560, 53.443 243.731, 65.656 254.922 C 72.610 261.294, 75.276 262.154, 77.398 258.712 C 78.339 257.185, 77.507 256.034, 71.718 250.846 C 59.593 239.980, 50.911 225.214, 47.476 209.617 C 45.114 198.891, 45.847 180.314, 49 171.022 C 53.345 158.213, 60.920 146.016, 69.360 138.236 C 72.925 134.950, 74.734 134, 77.428 134 C 83.674 134, 91.352 136.110, 99.820 140.153 C 109.977 145.002, 119.912 154.325, 125.340 164.101 C 129.365 171.350, 133 183.919, 133 190.589 C 133 194.479, 134.839 198, 136.871 198 C 140.482 198, 141.008 188.263, 138.028 176.609 C 134.978 164.686, 129.782 155.740, 120.457 146.361 C 113.703 139.568, 110.806 137.478, 102.933 133.719 C 97.745 131.242, 91.475 128.743, 89 128.165 C 82.400 126.623, 70.232 126.016, 64.500 126.944 M 84.764 158.996 C 79.184 160.676, 75.145 164.067, 72.571 169.234 C 71.157 172.071, 70 175.397, 70 176.625 C 70 178.848, 72.355 182, 74.015 182 C 75.484 182, 78 177.693, 78 175.177 C 78 173.807, 79.440 171.360, 81.400 169.400 C 84.278 166.522, 85.504 166, 89.384 166 C 93.036 166, 94.632 166.593, 97.234 168.918 C 100.194 171.563, 100.500 172.367, 100.500 177.500 C 100.500 182.633, 100.194 183.437, 97.234 186.082 C 95.438 187.687, 92.883 189, 91.556 189 C 87.018 189, 86 191.291, 86 201.500 C 86 208.673, 86.367 211.224, 87.571 212.429 C 91.150 216.007, 93 213.244, 93 204.320 L 93 197.041 96.750 195.112 C 104.312 191.222, 108 185.417, 108 177.403 C 108 171.457, 106.068 167.145, 101.676 163.289 C 96.495 158.740, 90.591 157.241, 84.764 158.996 M 87.616 222.527 C 86.727 223.416, 86 224.529, 86 225 C 86 226.389, 89.140 229.120, 90.295 228.735 C 92.395 228.035, 93.549 225.094, 92.423 223.310 C 90.905 220.902, 89.474 220.669, 87.616 222.527 " stroke="none" fill="black" fill-rule="evenodd"/>
</svg>