<svg xmlns="http://www.w3.org/2000/svg" width="132" height="324" viewBox="0 0 132 324" version="1.1">
	<path d="M 103.282 111.282 C 93.777 120.787, 86 129.210, 86 130 C 86 131.693, 120.031 166, 121.710 166 C 123.173 166, 126 163.200, 126 161.751 C 126 161.143, 119.156 153.750, 110.792 145.323 L 95.584 130 110.792 114.677 C 119.156 106.250, 126 98.857, 126 98.249 C 126 96.800, 123.173 94, 121.710 94 C 121.079 94, 112.787 101.777, 103.282 111.282 M 7.571 127.571 C 6.707 128.436, 6 129.529, 6 130 C 6 130.471, 6.707 131.564, 7.571 132.429 C 8.936 133.793, 13.463 134, 42 134 C 70.537 134, 75.064 133.793, 76.429 132.429 C 77.293 131.564, 78 130.471, 78 130 C 78 129.529, 77.293 128.436, 76.429 127.571 C 75.064 126.207, 70.537 126, 42 126 C 13.463 126, 8.936 126.207, 7.571 127.571 M 33.384 159.412 C 15.475 163.758, 3.559 181.807, 6.987 199.396 C 8.500 207.161, 12.212 214.019, 17.580 218.967 C 38.277 238.045, 70.591 227.221, 76.013 199.396 C 79.488 181.565, 67.484 163.676, 49.147 159.360 C 42.397 157.772, 40.111 157.779, 33.384 159.412 M 31.054 167.728 C 25.018 169.859, 17.781 177.260, 15.667 183.463 C 11.995 194.241, 14.382 205.477, 21.952 213.048 C 32.673 223.769, 50.327 223.769, 61.048 213.048 C 71.769 202.327, 71.769 184.673, 61.048 173.952 C 53.519 166.424, 41.696 163.970, 31.054 167.728 M 39.571 191.571 C 38.707 192.436, 38 193.529, 38 194 C 38 195.111, 40.889 198, 42 198 C 43.111 198, 46 195.111, 46 194 C 46 192.889, 43.111 190, 42 190 C 41.529 190, 40.436 190.707, 39.571 191.571 " stroke="none" fill="black" fill-rule="evenodd"/>
</svg>