<svg xmlns="http://www.w3.org/2000/svg" width="84" height="324" viewBox="0 0 84 324" version="1.1">
	<path d="M 35.045 159.064 C 13.497 163.427, 1.173 185.901, 9.037 206.493 C 12.164 214.680, 20.320 222.836, 28.507 225.963 C 41.863 231.064, 56.079 228.081, 66.080 218.080 C 87.084 197.076, 74.303 161.904, 44.500 158.699 C 41.750 158.403, 37.495 158.567, 35.045 159.064 M 31.054 167.728 C 25.018 169.859, 17.781 177.260, 15.667 183.463 C 11.995 194.241, 14.382 205.477, 21.952 213.048 C 32.673 223.769, 50.327 223.769, 61.048 213.048 C 71.769 202.327, 71.769 184.673, 61.048 173.952 C 53.519 166.424, 41.696 163.970, 31.054 167.728 M 39.571 191.571 C 38.707 192.436, 38 193.529, 38 194 C 38 195.111, 40.889 198, 42 198 C 43.111 198, 46 195.111, 46 194 C 46 192.889, 43.111 190, 42 190 C 41.529 190, 40.436 190.707, 39.571 191.571 " stroke="none" fill="black" fill-rule="evenodd"/>
</svg>