<svg xmlns="http://www.w3.org/2000/svg" width="148" height="324" viewBox="0 0 148 324" version="1.1">
	<path d="M 64.500 126.944 C 48.336 129.561, 38.137 134.795, 26.461 146.465 C 13.892 159.029, 8.475 170.520, 6.471 188.871 L 5.776 195.242 39.154 228.621 C 57.513 246.979, 73.004 262, 73.580 262 C 74.155 262, 89.448 247.121, 107.563 228.936 L 140.500 195.873 140.157 189.734 C 139.230 173.123, 132.641 158.615, 120.457 146.361 C 113.703 139.568, 110.806 137.478, 102.933 133.719 C 97.745 131.242, 91.475 128.743, 89 128.165 C 82.400 126.623, 70.232 126.016, 64.500 126.944 M 57.500 135.870 C 37.243 141.701, 20.813 158.496, 15.570 178.731 C 12.190 191.775, 10.204 188.718, 44 222.500 L 74 252.487 103.500 223 C 136.965 189.550, 134.745 193.141, 131.003 178.511 C 126.717 161.754, 115.079 147.438, 99.820 140.153 C 95.244 137.968, 89.115 135.690, 86.201 135.090 C 78.410 133.487, 64.459 133.866, 57.500 135.870 " stroke="none" fill="black" fill-rule="evenodd"/>
</svg>