<svg xmlns="http://www.w3.org/2000/svg" width="148" height="324" viewBox="0 0 148 324" version="1.1">
	<path d="M 39.230 159.285 C 20.953 177.591, 6 193.084, 6 193.713 C 6 195.190, 8.807 198, 10.282 198 C 10.909 198, 24.602 184.848, 40.711 168.773 L 70 139.545 70 166.779 L 70 194.012 54.016 225.967 C 45.225 243.542, 38.285 258.580, 38.594 259.384 C 39.265 261.133, 41.512 262.124, 43.274 261.448 C 43.975 261.180, 51.056 247.919, 59.010 231.980 C 66.964 216.041, 73.726 203, 74.037 203 C 74.347 203, 81.043 216.022, 88.918 231.938 C 96.792 247.854, 103.914 261.137, 104.744 261.455 C 106.703 262.207, 109 260.272, 109 257.871 C 109 256.835, 102.025 242.043, 93.500 225 L 78 194.012 78 166.779 L 78 139.545 107.289 168.773 C 123.398 184.848, 137.068 198, 137.667 198 C 139.265 198, 141.217 195.320, 140.833 193.653 C 140.347 191.546, 75.416 126, 73.814 126 C 73.069 126, 57.506 140.978, 39.230 159.285 " stroke="none" fill="black" fill-rule="evenodd"/>
</svg>