<svg xmlns="http://www.w3.org/2000/svg" width="148" height="324" viewBox="0 0 148 324" version="1.1">
	<path d="M 39.230 159.285 C 20.953 177.591, 6 193.084, 6 193.713 C 6 195.191, 8.808 198, 10.285 198 C 10.913 198, 25.509 183.944, 42.721 166.764 L 74.014 135.528 101.503 163.003 L 128.992 190.478 121.746 192.237 C 94.289 198.901, 75.133 220.586, 70.496 250.250 L 69.909 254 41.955 254 L 14 254 14.015 251.750 C 14.047 246.850, 17.233 236.344, 20.732 229.603 C 25.626 220.173, 36.155 209.630, 45.500 204.802 C 53.767 200.531, 59.036 198.996, 68.395 198.135 C 73.391 197.675, 75.593 197.018, 76.390 195.750 C 81.227 188.054, 60.244 189.312, 43 197.751 C 32.420 202.930, 18.897 216.465, 13.778 227 C 9.795 235.196, 7.530 243.167, 6.503 252.598 C 5.384 262.877, -0.706 262.053, 74.220 261.757 C 134.934 261.517, 139.356 261.383, 140.386 259.750 C 141.191 258.474, 141.191 257.526, 140.386 256.250 C 139.381 254.655, 136.559 254.477, 108.505 254.235 L 77.728 253.971 78.373 248.485 C 81.488 221.982, 107.897 198.098, 134.179 198.015 C 138.623 198.001, 142.526 195.934, 141.795 193.982 C 141.057 192.013, 75.077 126, 73.848 126 C 73.084 126, 57.506 140.978, 39.230 159.285 " stroke="none" fill="black" fill-rule="evenodd"/>
</svg>