<svg xmlns="http://www.w3.org/2000/svg" width="148" height="324" viewBox="0 0 148 324" version="1.1">
	<path d="M 35.045 127.093 C 19.677 130.104, 7.301 144.018, 6.821 158.824 C 6.644 164.267, 11.379 182.964, 15.864 194.532 C 19.588 204.139, 28.137 218.881, 34.899 227.356 C 49.091 245.144, 74.403 264.011, 77.454 259.074 C 77.769 258.565, 81.706 255.570, 86.203 252.418 C 112.393 234.066, 132.136 203.704, 138.590 171.852 C 140.892 160.493, 140.145 152.929, 135.945 145.049 C 123.451 121.607, 90.230 120.276, 76.014 142.647 L 73.379 146.793 70.597 142.395 C 63.309 130.875, 48.429 124.470, 35.045 127.093 M 31.748 135.427 C 23.846 138.247, 15.822 147.101, 14.426 154.541 C 13.596 158.967, 16.454 173.491, 20.617 186 C 28.807 210.611, 45.624 232.964, 66.868 247.480 L 73.830 252.237 81.502 246.934 C 106.693 229.519, 125.566 200.428, 131.602 169.707 C 133.613 159.473, 133.015 154.354, 128.987 147.302 C 125.914 141.920, 120.154 137.222, 114.101 135.159 C 108.929 133.396, 99.123 133.761, 94.435 135.890 C 85.573 139.915, 78 150.092, 78 157.974 C 78 161.875, 75.695 166, 73.515 166 C 71.013 166, 69 162.918, 69 159.088 C 69 154.001, 63.752 143.766, 59.235 140.042 C 52.354 134.370, 40.355 132.355, 31.748 135.427 " stroke="none" fill="black" fill-rule="evenodd"/>
</svg>