<svg xmlns="http://www.w3.org/2000/svg" width="132" height="324" viewBox="0 0 132 324" version="1.1">
	<path d="M 103.315 111.213 C 93.792 120.680, 86 129.134, 86 130 C 86 131.761, 119.994 166, 121.743 166 C 123.180 166, 126 163.185, 126 161.751 C 126 161.143, 119.156 153.750, 110.792 145.323 L 95.584 130 110.792 114.677 C 119.156 106.250, 126 98.857, 126 98.249 C 126 96.815, 123.180 94, 121.743 94 C 121.131 94, 112.838 101.746, 103.315 111.213 M 71.571 127.571 C 70.178 128.965, 70 135.899, 70 188.799 L 70 248.455 40.711 219.227 C 24.602 203.152, 10.909 190, 10.282 190 C 8.807 190, 6 192.810, 6 194.287 C 6 196.056, 72.253 262, 74.030 262 C 77.992 262, 78 261.862, 78 194.371 C 78 136.406, 77.825 128.968, 76.429 127.571 C 75.564 126.707, 74.471 126, 74 126 C 73.529 126, 72.436 126.707, 71.571 127.571 " stroke="none" fill="black" fill-rule="evenodd"/>
</svg>