<svg xmlns="http://www.w3.org/2000/svg" width="148" height="324" viewBox="0 0 148 324" version="1.1">
	<path d="M 7.571 127.571 C 6.707 128.436, 6 129.529, 6 130 C 6 130.471, 6.707 131.564, 7.571 132.429 C 8.966 133.824, 16.152 134, 71.571 134 L 134 134 134 194 L 134 254 71.571 254 C 16.152 254, 8.966 254.176, 7.571 255.571 C 5.598 257.545, 5.598 258.455, 7.571 260.429 C 8.968 261.825, 16.343 261.998, 73.821 261.985 C 109.395 261.976, 139.072 261.606, 139.772 261.162 C 141.639 259.977, 141.639 128.023, 139.772 126.838 C 139.072 126.394, 109.395 126.024, 73.821 126.015 C 16.343 126.002, 8.968 126.175, 7.571 127.571 M 39.571 207.571 C 38.707 208.436, 38 209.644, 38 210.257 C 38 211.939, 72.204 246, 73.894 246 C 75.957 246, 107.960 213.994, 108.654 211.237 C 109.237 208.921, 107.589 206, 105.700 206 C 105.120 206, 97.750 212.844, 89.323 221.208 L 74 236.416 58.677 221.208 C 50.250 212.844, 42.857 206, 42.249 206 C 41.640 206, 40.436 206.707, 39.571 207.571 " stroke="none" fill="black" fill-rule="evenodd"/>
</svg>