<svg xmlns="http://www.w3.org/2000/svg" width="212" height="324" viewBox="0 0 212 324" version="1.1">
	<path d="M 72.369 126.765 C 71.416 127.384, 6 257.155, 6 258.426 C 6 258.663, 6.707 259.564, 7.571 260.429 C 8.936 261.793, 13.463 262, 42 262 C 70.537 262, 75.064 261.793, 76.429 260.429 C 78.402 258.455, 78.402 257.545, 76.429 255.571 C 75.071 254.214, 70.849 254, 45.430 254 L 16.002 254 44.747 196.500 C 60.557 164.875, 73.722 139, 74.003 139 C 74.284 139, 88.010 166.059, 104.507 199.131 C 121.003 232.204, 135.095 259.879, 135.821 260.631 C 136.886 261.734, 143.450 262, 169.637 262 C 190.124 262, 202.846 261.617, 204.066 260.965 C 206.554 259.633, 206.554 256.367, 204.066 255.035 C 202.851 254.385, 190.566 254, 171.060 254 L 139.988 254 108.387 190.750 C 79.992 133.916, 75.802 126.031, 74 126.031 C 73.725 126.031, 72.991 126.361, 72.369 126.765 M 136.040 207.452 C 135.377 208.251, 134.985 209.591, 135.167 210.430 C 135.582 212.335, 168.972 246, 170.446 246 C 172.241 246, 206 211.605, 206 209.775 C 206 208.837, 205.040 207.557, 203.868 206.929 C 201.921 205.887, 200.376 207.144, 186.118 221.376 L 170.500 236.963 154.936 221.482 C 146.376 212.967, 138.893 206, 138.308 206 C 137.723 206, 136.703 206.653, 136.040 207.452 " stroke="none" fill="black" fill-rule="evenodd"/>
</svg>