<svg xmlns="http://www.w3.org/2000/svg" width="84" height="324" viewBox="0 0 84 324" version="1.1">
	<path d="M 7.571 159.571 C 6.707 160.436, 6 161.640, 6 162.249 C 6 162.857, 12.844 170.250, 21.208 178.677 L 36.416 194 21.208 209.323 C 12.844 217.750, 6 225.143, 6 225.751 C 6 227.185, 8.820 230, 10.257 230 C 12.006 230, 46 195.761, 46 194 C 46 192.239, 12.006 158, 10.257 158 C 9.644 158, 8.436 158.707, 7.571 159.571 M 39.571 159.571 C 38.707 160.436, 38 161.640, 38 162.249 C 38 162.857, 44.844 170.250, 53.208 178.677 L 68.416 194 53.208 209.323 C 44.844 217.750, 38 225.143, 38 225.751 C 38 227.185, 40.820 230, 42.257 230 C 44.006 230, 78 195.761, 78 194 C 78 192.239, 44.006 158, 42.257 158 C 41.644 158, 40.436 158.707, 39.571 159.571 " stroke="none" fill="black" fill-rule="evenodd"/>
</svg>