<svg xmlns="http://www.w3.org/2000/svg" width="148" height="324" viewBox="0 0 148 324" version="1.1">
	<path d="M 103.750 159.080 C 102.787 159.641, 102 160.858, 102 161.786 C 102 162.714, 107.956 169.442, 115.236 176.737 L 128.472 190 68.808 190 C 15.900 190, 8.965 190.178, 7.571 191.571 C 5.598 193.545, 5.598 194.455, 7.571 196.429 C 8.965 197.822, 15.900 198, 68.808 198 L 128.472 198 115.236 211.263 C 107.956 218.558, 102 225.292, 102 226.228 C 102 228.579, 105.514 230.330, 107.788 229.113 C 109.892 227.987, 142 194.935, 142 193.895 C 142 192.740, 107.592 157.962, 106.500 158.014 C 105.950 158.040, 104.713 158.519, 103.750 159.080 " stroke="none" fill="black" fill-rule="evenodd"/>
</svg>