<svg xmlns="http://www.w3.org/2000/svg" width="84" height="324" viewBox="0 0 84 324" version="1.1">
	<path d="M 7.571 159.571 C 6.207 160.936, 6 165.463, 6 194 C 6 222.537, 6.207 227.064, 7.571 228.429 C 9.545 230.402, 10.455 230.402, 12.429 228.429 C 13.793 227.064, 14 222.537, 14 194 C 14 165.463, 13.793 160.936, 12.429 159.571 C 11.564 158.707, 10.471 158, 10 158 C 9.529 158, 8.436 158.707, 7.571 159.571 M 39.571 159.571 C 38.707 160.436, 38 161.640, 38 162.249 C 38 162.857, 44.844 170.250, 53.208 178.677 L 68.416 194 53.208 209.323 C 44.844 217.750, 38 225.143, 38 225.751 C 38 227.185, 40.820 230, 42.257 230 C 44.006 230, 78 195.761, 78 194 C 78 192.239, 44.006 158, 42.257 158 C 41.644 158, 40.436 158.707, 39.571 159.571 " stroke="none" fill="black" fill-rule="evenodd"/>
</svg>