<svg xmlns="http://www.w3.org/2000/svg" width="164" height="324" viewBox="0 0 164 324" version="1.1">
	<path d="M 136.245 143.263 C 126.755 152.743, 118.726 160.804, 118.404 161.175 C 117.438 162.285, 118.790 163.780, 136.646 181.347 C 152.225 196.675, 153.960 198.092, 155.885 197.062 C 157.048 196.439, 158 195.163, 158 194.227 C 158 193.290, 151.143 185.656, 142.762 177.262 L 127.524 162 142.762 146.738 C 151.143 138.344, 158 130.710, 158 129.773 C 158 128.408, 155.270 125.954, 153.816 126.013 C 153.642 126.020, 145.735 133.782, 136.245 143.263 M 36.081 162.534 C 30.971 170.591, 30.165 180.835, 34.068 188.127 C 35.024 189.913, 34.468 190, 22.107 190 C 11.655 190, 8.838 190.304, 7.571 191.571 C 5.598 193.545, 5.598 194.455, 7.571 196.429 C 8.844 197.701, 11.697 198, 22.575 198 L 36.006 198 21.020 227.961 C 12.777 244.439, 6.285 258.580, 6.594 259.384 C 7.265 261.133, 9.512 262.125, 11.274 261.448 C 11.975 261.180, 19.056 247.919, 27.010 231.980 C 34.964 216.041, 41.710 203, 42 203 C 42.290 203, 49.036 216.041, 56.990 231.980 C 64.944 247.919, 72.025 261.180, 72.726 261.448 C 73.427 261.717, 74.592 261.710, 75.315 261.433 C 76.038 261.155, 83.112 247.894, 91.035 231.964 C 98.958 216.034, 105.686 203, 105.985 203 C 106.284 203, 112.822 215.627, 120.514 231.060 C 128.206 246.493, 135.250 259.804, 136.167 260.640 C 138.166 262.462, 142 260.940, 142 258.323 C 142 257.439, 135.285 243.505, 127.079 227.358 L 112.157 198 125.144 198 C 132.287 198, 139.002 197.534, 140.066 196.965 C 142.247 195.797, 142.642 192.533, 140.750 191.309 C 140.063 190.864, 132.347 190.275, 123.605 190 C 107.930 189.507, 107.683 189.464, 105.781 186.913 C 101.825 181.605, 102.237 171.248, 106.612 166.049 C 111.392 160.369, 107.054 154.893, 101.972 160.193 C 96.341 166.065, 94.179 178.705, 97.462 186.564 L 98.924 190.063 87.318 189.781 C 76.148 189.511, 75.638 189.403, 73.782 186.913 C 69.825 181.607, 70.237 171.249, 74.612 166.049 C 77.841 162.212, 77.525 158.619, 73.921 158.200 C 71.871 157.962, 70.761 158.737, 68.518 161.974 C 63.211 169.631, 62.147 180.800, 66.032 188.059 C 67.081 190.020, 66.845 190.058, 55.408 189.782 C 43.878 189.504, 43.681 189.460, 41.605 186.677 C 39.951 184.458, 39.500 182.406, 39.500 177.091 C 39.500 171.293, 39.904 169.746, 42.337 166.235 C 45.741 161.324, 45.547 158.623, 41.760 158.185 C 39.466 157.920, 38.573 158.604, 36.081 162.534 M 60.743 223.500 C 67.750 237.525, 73.715 249, 74 249 C 74.285 249, 80.250 237.525, 87.257 223.500 L 99.995 198 74 198 L 48.005 198 60.743 223.500 " stroke="none" fill="black" fill-rule="evenodd"/>
</svg>