<svg xmlns="http://www.w3.org/2000/svg" width="148" height="324" viewBox="0 0 148 324" version="1.1">
	<path d="M 120.530 142 L 104.424 158 72.412 158 C 48.847 158, 40.083 158.317, 39.200 159.200 C 38.317 160.083, 38 168.865, 38 192.492 L 38 224.584 33.474 229.026 L 28.948 233.468 26.511 230.484 C 19.780 222.242, 14.049 207.032, 14.015 197.321 C 14.001 193.426, 12.122 190, 10 190 C 9.529 190, 8.399 190.743, 7.491 191.652 C 6.141 193.002, 5.968 194.418, 6.543 199.402 C 8.068 212.606, 13.514 226.368, 20.432 234.500 L 23.835 238.500 14.917 247.615 C 10.013 252.629, 6 257.209, 6 257.794 C 6 259.169, 8.831 262, 10.206 262 C 10.791 262, 15.371 257.995, 20.385 253.101 L 29.500 244.202 33.858 247.579 C 39.389 251.866, 49.436 256.628, 57.351 258.713 C 65.640 260.897, 81.554 260.825, 90 258.566 C 107.949 253.765, 124.974 240.018, 132.824 223.988 C 137.730 213.968, 140 205.720, 140 197.912 C 140 191.365, 138.434 189.162, 135.064 190.966 C 133.484 191.811, 132.997 193.060, 132.985 196.285 C 132.977 198.603, 132.283 203.425, 131.443 207 C 126.342 228.710, 109.331 245.946, 87.540 251.485 C 79.957 253.413, 67.333 253.403, 59.103 251.463 C 52.833 249.985, 41.954 244.849, 37 241.029 L 34.500 239.102 38.958 234.551 L 43.416 230 75.137 230 C 102.640 230, 107.066 229.791, 108.429 228.429 C 109.792 227.065, 110 222.605, 110 194.749 L 110 162.641 125.500 147.031 C 134.025 138.446, 141 130.742, 141 129.911 C 141 128.202, 139.096 126, 137.619 126 C 137.079 126, 129.389 133.200, 120.530 142 M 46 191.242 L 46 216.485 71 191.500 C 84.750 177.758, 96 166.399, 96 166.258 C 96 166.116, 84.750 166, 71 166 L 46 166 46 191.242 M 76.500 197 L 51.515 222 76.758 222 L 102 222 102 197 C 102 183.250, 101.884 172, 101.742 172 C 101.601 172, 90.242 183.250, 76.500 197 " stroke="none" fill="black" fill-rule="evenodd"/>
</svg>