<svg xmlns="http://www.w3.org/2000/svg" width="84" height="324" viewBox="0 0 84 324" version="1.1">
	<path d="M 7.571 127.571 C 6.175 128.968, 6 136.406, 6 194.371 C 6 243.771, 6.291 259.891, 7.200 260.800 C 8.919 262.519, 75.081 262.519, 76.800 260.800 C 77.709 259.891, 78 243.771, 78 194.371 C 78 136.406, 77.825 128.968, 76.429 127.571 C 74.455 125.598, 73.545 125.598, 71.571 127.571 C 70.176 128.966, 70 136.152, 70 191.571 L 70 254 42 254 L 14 254 14 191.571 C 14 136.152, 13.824 128.966, 12.429 127.571 C 11.564 126.707, 10.471 126, 10 126 C 9.529 126, 8.436 126.707, 7.571 127.571 " stroke="none" fill="black" fill-rule="evenodd"/>
</svg>