<svg xmlns="http://www.w3.org/2000/svg" width="212" height="324" viewBox="0 0 212 324" version="1.1">
	<path d="M 35.045 159.092 C 13.573 163.301, 1.173 185.901, 9.037 206.493 C 12.164 214.680, 20.320 222.836, 28.507 225.963 C 40.917 230.703, 55.129 228.185, 64.739 219.545 C 72.419 212.640, 75.407 206.032, 77.968 190.294 C 80.404 175.329, 91.242 165.928, 105.928 166.044 C 112.574 166.096, 117.714 167.782, 122.607 171.514 C 127.137 174.969, 131.815 182.256, 132.500 186.927 C 134.039 197.405, 137.289 207.841, 140.543 212.752 C 155.727 235.668, 190.137 232.839, 201.583 207.734 C 207.594 194.552, 204.466 178.386, 194.013 168.608 C 188.054 163.035, 183.010 160.453, 175.384 159.070 C 161.989 156.641, 148.433 162.496, 140.633 174.079 L 137.394 178.888 135.521 175.409 C 133.179 171.060, 126.430 164.770, 121.295 162.151 C 105.748 154.219, 85.428 159.832, 76.005 174.662 L 73.360 178.824 71.503 175.377 C 69.181 171.064, 62.418 164.764, 57.318 162.162 C 55.183 161.073, 50.781 159.691, 47.535 159.091 C 40.969 157.877, 41.243 157.877, 35.045 159.092 M 31.054 167.668 C 25.003 169.886, 17.760 177.321, 15.667 183.463 C 11.990 194.255, 14.381 205.476, 21.976 213.071 C 28.035 219.130, 34.656 221.436, 44.059 220.764 C 58.977 219.696, 68.956 208.769, 68.956 193.500 C 68.956 182.687, 64.421 174.675, 55.261 169.307 C 49.484 165.922, 37.949 165.141, 31.054 167.668 M 160.316 167.326 C 149.479 171.321, 142 182.009, 142 193.500 C 142 205.574, 150.421 216.894, 161.769 220.074 C 164.192 220.753, 168.825 221.047, 172.479 220.754 C 186.871 219.598, 197.250 208.200, 197.250 193.549 C 197.250 182.353, 190.923 172.593, 180.637 167.922 C 175.887 165.766, 165.384 165.457, 160.316 167.326 M 39.571 191.571 C 38.707 192.436, 38 193.529, 38 194 C 38 195.111, 40.889 198, 42 198 C 43.111 198, 46 195.111, 46 194 C 46 192.889, 43.111 190, 42 190 C 41.529 190, 40.436 190.707, 39.571 191.571 M 168.200 191.200 C 166.111 193.289, 167.447 198, 170.129 198 C 171.139 198, 174 195.044, 174 194 C 174 192.956, 171.139 190, 170.129 190 C 169.728 190, 168.860 190.540, 168.200 191.200 " stroke="none" fill="black" fill-rule="evenodd"/>
</svg>