<svg xmlns="http://www.w3.org/2000/svg" width="148" height="324" viewBox="0 0 148 324" version="1.1">
	<path d="M 7.571 127.571 C 6.175 128.968, 6 136.372, 6 194 C 6 251.628, 6.175 259.032, 7.571 260.429 C 8.436 261.293, 9.529 262, 10 262 C 10.471 262, 11.564 261.293, 12.429 260.429 C 13.824 259.034, 14 251.848, 14 196.429 L 14 134 74 134 L 134 134 134 196.965 L 134 259.930 136.117 261.062 C 141.005 263.679, 140.955 264.373, 141.021 193.569 C 141.071 140.752, 140.827 127.507, 139.792 126.850 C 139.081 126.399, 109.395 126.024, 73.821 126.015 C 16.343 126.002, 8.968 126.175, 7.571 127.571 M 66.223 191.008 C 55.939 193.164, 46.017 201.415, 41.189 211.825 C 39.049 216.438, 38.551 219.001, 38.528 225.521 C 38.503 232.581, 38.889 234.333, 41.750 240.144 C 50.110 257.125, 69.014 264.807, 86.079 258.158 C 100.962 252.359, 110.747 235.704, 108.100 220.677 C 104.535 200.437, 85.517 186.963, 66.223 191.008 M 63.463 199.591 C 55.567 202.395, 48.189 210.737, 46.519 218.750 L 45.841 222 73.440 222 L 101.038 222 100.379 219.250 C 98.432 211.130, 93.425 204.868, 85.854 201.085 C 78.840 197.580, 70.664 197.035, 63.463 199.591 M 46.599 232.750 C 48.443 240.705, 55.857 248.741, 63.872 251.472 C 79.199 256.694, 95.600 248.341, 99.976 233.084 L 100.860 230 73.411 230 L 45.962 230 46.599 232.750 " stroke="none" fill="black" fill-rule="evenodd"/>
</svg>