<svg xmlns="http://www.w3.org/2000/svg" width="148" height="324" viewBox="0 0 148 324" version="1.1">
	<path d="M 39.200 159.200 C 37.481 160.919, 37.481 227.081, 39.200 228.800 C 40.085 229.685, 49.117 230, 73.629 230 C 102.503 230, 107.063 229.794, 108.429 228.429 C 109.793 227.064, 110 222.537, 110 194 C 110 165.463, 109.793 160.936, 108.429 159.571 C 107.063 158.206, 102.503 158, 73.629 158 C 49.117 158, 40.085 158.315, 39.200 159.200 M 46 194 L 46 222 74 222 L 102 222 102 194 L 102 166 74 166 L 46 166 46 194 M 7.491 191.652 C 6.141 193.002, 5.968 194.418, 6.543 199.402 C 8.546 216.744, 14.065 228.143, 26.461 240.539 C 36.344 250.422, 44.690 255.372, 57 258.651 C 65.569 260.933, 81.276 260.891, 90 258.562 C 107.938 253.774, 124.973 240.020, 132.824 223.988 C 137.730 213.968, 140 205.720, 140 197.912 C 140 191.490, 138.419 189.170, 135.213 190.886 C 133.711 191.690, 133.172 193.412, 132.714 198.866 C 131.519 213.129, 123.464 229.065, 112.686 238.494 C 106.643 243.780, 95.739 249.416, 87.540 251.491 C 79.948 253.413, 67.323 253.400, 59.103 251.463 C 34.847 245.745, 14.098 220.830, 14.015 197.321 C 14.001 193.426, 12.122 190, 10 190 C 9.529 190, 8.399 190.743, 7.491 191.652 " stroke="none" fill="black" fill-rule="evenodd"/>
</svg>