<svg xmlns="http://www.w3.org/2000/svg" width="276" height="324" viewBox="0 0 276 324" version="1.1">
	<path d="M 39.230 159.285 C 20.953 177.591, 6 193.084, 6 193.713 C 6 195.190, 8.807 198, 10.282 198 C 10.909 198, 24.602 184.848, 40.711 168.773 L 70 139.545 70 166.779 L 70 194.012 54 226 C 45.200 243.593, 38 258.183, 38 258.423 C 38 258.662, 38.707 259.564, 39.571 260.429 C 40.936 261.793, 45.463 262, 74 262 C 102.537 262, 107.064 261.793, 108.429 260.429 C 109.293 259.564, 110 258.662, 110 258.423 C 110 258.183, 102.800 243.593, 94 226 L 78 194.012 78 166.779 L 78 139.545 107.289 168.773 C 123.398 184.848, 137.218 198, 138 198 C 138.782 198, 152.602 184.848, 168.711 168.773 L 198 139.545 198 196.773 L 198 254 183.571 254 C 171.788 254, 168.855 254.288, 167.571 255.571 C 166.707 256.436, 166 257.529, 166 258 C 166 258.471, 166.707 259.564, 167.571 260.429 C 168.936 261.793, 173.463 262, 202 262 C 230.537 262, 235.064 261.793, 236.429 260.429 C 238.402 258.455, 238.402 257.545, 236.429 255.571 C 235.145 254.288, 232.212 254, 220.429 254 L 206 254 206 196.773 L 206 139.545 235.289 168.773 C 251.398 184.848, 265.091 198, 265.718 198 C 267.193 198, 270 195.190, 270 193.713 C 270 191.980, 203.766 126, 202.026 126 C 201.193 126, 186.447 140.060, 169.256 157.244 L 138 188.488 106.744 157.244 C 89.553 140.060, 74.807 126, 73.974 126 C 73.141 126, 57.506 140.978, 39.230 159.285 M 60.743 228.500 L 48.005 254 74 254 L 99.995 254 87.257 228.500 C 80.250 214.475, 74.285 203, 74 203 C 73.715 203, 67.750 214.475, 60.743 228.500 " stroke="none" fill="black" fill-rule="evenodd"/>
</svg>