<svg xmlns="http://www.w3.org/2000/svg" width="148" height="324" viewBox="0 0 148 324" version="1.1">
	<path d="M 127.870 127.049 C 119.643 128.290, 110.399 131.606, 102.972 135.981 C 90.654 143.236, 78.213 158.305, 74.305 170.702 C 73.386 173.616, 72.343 176, 71.986 176 C 71.630 176, 70.707 174.821, 69.935 173.379 C 67.649 169.108, 60.197 163.221, 54.147 160.907 C 41.162 155.942, 26.808 159.032, 16.920 168.920 C 3.046 182.794, 3.046 204.206, 16.920 218.080 C 32.565 233.725, 58.907 231.083, 70.535 212.702 L 73.379 208.207 76.014 212.353 C 90.326 234.876, 123.239 233.491, 136.070 209.826 C 139.326 203.821, 139.500 202.993, 139.500 193.500 C 139.500 184.007, 139.326 183.179, 136.070 177.174 C 126.824 160.121, 105.573 153.456, 89.265 162.495 L 85.030 164.842 86.655 161.700 C 89.077 157.017, 98.776 147.179, 104.803 143.291 C 112.563 138.286, 122.357 134.925, 131.395 134.164 C 140.010 133.439, 142.584 131.748, 140.394 128.250 C 139.112 126.203, 135.668 125.873, 127.870 127.049 M 31.627 167.468 C 26.302 169.367, 21.047 173.815, 17.618 179.328 C 14.254 184.737, 13.041 194.780, 14.916 201.708 C 16.446 207.361, 21.544 213.823, 27.266 217.361 C 33.398 221.152, 43.268 222.068, 50.852 219.549 C 56.768 217.584, 63.558 211.496, 66.523 205.500 C 69.293 199.895, 69.292 187.102, 66.521 181.500 C 63.571 175.538, 57.083 169.557, 51.504 167.656 C 45.655 165.663, 36.923 165.580, 31.627 167.468 M 94.435 167.890 C 83.942 172.656, 77.986 181.930, 78.022 193.446 C 78.070 208.813, 88.010 219.695, 102.977 220.766 C 114.937 221.622, 123.982 216.876, 129.551 206.824 C 132.127 202.173, 132.500 200.488, 132.500 193.500 C 132.500 186.512, 132.127 184.827, 129.551 180.176 C 126.179 174.090, 121.063 169.639, 114.965 167.488 C 109.124 165.427, 99.441 165.617, 94.435 167.890 M 65.972 223.329 C 47.771 227.347, 35.510 245.552, 38.987 263.396 C 44.456 291.466, 77.888 302.223, 97.777 282.313 C 105.474 274.608, 107.500 269.439, 107.500 257.500 C 107.500 245.367, 105.450 240.286, 97.353 232.339 C 89.097 224.238, 77.257 220.839, 65.972 223.329 M 63.627 231.468 C 58.247 233.386, 53.039 237.829, 49.500 243.519 C 46.982 247.568, 46.444 249.582, 46.150 256.050 C 45.760 264.623, 47.420 269.822, 52.447 275.770 C 61.626 286.629, 79.475 288.128, 90.992 279.006 C 96.752 274.444, 101 265.316, 101 257.500 C 101 246.038, 93.486 235.200, 82.965 231.488 C 77.743 229.645, 68.766 229.636, 63.627 231.468 " stroke="none" fill="black" fill-rule="evenodd"/>
</svg>