<svg xmlns="http://www.w3.org/2000/svg" width="276" height="324" viewBox="0 0 276 324" version="1.1">
	<path d="M 39.230 159.285 C 20.953 177.591, 6 193.084, 6 193.713 C 6 195.190, 8.807 198, 10.282 198 C 10.909 198, 24.602 184.848, 40.711 168.773 L 70 139.545 70 196.773 L 70 254 55.571 254 C 43.788 254, 40.855 254.288, 39.571 255.571 C 37.598 257.545, 37.598 258.455, 39.571 260.429 C 40.936 261.793, 45.463 262, 74 262 C 102.537 262, 107.064 261.793, 108.429 260.429 C 110.402 258.455, 110.402 257.545, 108.429 255.571 C 107.145 254.288, 104.212 254, 92.429 254 L 78 254 78 196.756 L 78 139.513 107.256 168.756 C 123.347 184.840, 137.182 198, 138 198 C 138.818 198, 152.653 184.840, 168.744 168.756 L 198 139.513 198 196.756 L 198 254 183.571 254 C 171.788 254, 168.855 254.288, 167.571 255.571 C 166.707 256.436, 166 257.529, 166 258 C 166 258.471, 166.707 259.564, 167.571 260.429 C 168.936 261.793, 173.463 262, 202 262 C 230.537 262, 235.064 261.793, 236.429 260.429 C 238.402 258.455, 238.402 257.545, 236.429 255.571 C 235.145 254.288, 232.212 254, 220.429 254 L 206 254 206 196.773 L 206 139.545 235.289 168.773 C 251.398 184.848, 265.091 198, 265.718 198 C 267.193 198, 270 195.190, 270 193.713 C 270 191.980, 203.766 126, 202.026 126 C 201.193 126, 186.447 140.060, 169.256 157.244 L 138 188.488 106.744 157.244 C 89.553 140.060, 74.807 126, 73.974 126 C 73.141 126, 57.506 140.978, 39.230 159.285 " stroke="none" fill="black" fill-rule="evenodd"/>
</svg>