<svg xmlns="http://www.w3.org/2000/svg" width="212" height="324" viewBox="0 0 212 324" version="1.1">
	<path d="M 7.571 191.571 C 6.707 192.436, 6 193.529, 6 194 C 6 196.622, 9.430 198, 15.960 198 L 22.777 198 23.473 201.750 C 24.492 207.247, 28.768 214.532, 33.580 218.967 C 47.710 231.992, 67.379 231.874, 81.750 218.679 C 86.418 214.393, 91.998 204.360, 91.999 200.250 L 92 198 147.066 198 C 183.112 198, 202.800 197.642, 204.066 196.965 C 206.554 195.633, 206.554 192.367, 204.066 191.035 C 202.771 190.342, 170.241 190, 105.637 190 C 19.248 190, 8.978 190.165, 7.571 191.571 M 30.544 200.250 C 32.972 208.302, 38.588 215.131, 45.533 218.478 C 47.715 219.529, 52.271 220.577, 55.659 220.805 C 69.511 221.741, 80.462 213.929, 84.475 200.250 L 85.135 198 57.500 198 L 29.865 198 30.544 200.250 " stroke="none" fill="black" fill-rule="evenodd"/>
</svg>