<svg xmlns="http://www.w3.org/2000/svg" width="148" height="324" viewBox="0 0 148 324" version="1.1">
	<path d="M 71.571 127.571 C 70.288 128.855, 70 131.788, 70 143.571 L 70 158 55.122 158 C 44.184 158, 39.961 158.342, 39.173 159.292 C 38.583 160.002, 37.966 163.677, 37.800 167.457 L 37.500 174.331 31.263 175.600 C 19.569 177.979, 4.459 188.153, 5.170 193.170 C 5.707 196.959, 9.610 196.767, 13.870 192.741 C 15.867 190.854, 19.075 188.384, 21 187.251 C 24.433 185.230, 34.080 182, 36.682 182 C 37.734 182, 38 186.588, 38 204.761 L 38 227.521 55.260 244.761 C 64.754 254.242, 73.208 262, 74.048 262 C 74.888 262, 83.320 254.208, 92.787 244.685 L 110 227.370 110 218.385 L 110 209.400 115.750 208.181 C 126.320 205.939, 140.425 196.884, 139.805 192.740 C 139.161 188.438, 136.629 188.460, 130.858 192.818 C 125.092 197.171, 118.624 200.352, 113.250 201.478 L 110 202.159 110 181.651 C 110 164.341, 109.755 160.898, 108.429 159.571 C 107.145 158.288, 104.212 158, 92.429 158 L 78 158 78 143.571 C 78 131.788, 77.712 128.855, 76.429 127.571 C 75.564 126.707, 74.471 126, 74 126 C 73.529 126, 72.436 126.707, 71.571 127.571 M 46 170.371 L 46 174.742 50.750 175.373 C 54.716 175.899, 58.114 177.262, 69.250 182.794 C 69.662 182.999, 70 179.304, 70 174.583 L 70 166 58 166 L 46 166 46 170.371 M 78 178.929 C 78 189.860, 78.268 192.125, 79.733 193.590 C 82.270 196.127, 92.839 200.819, 97.750 201.589 L 102 202.256 102 184.128 L 102 166 90 166 L 78 166 78 178.929 M 46 202 L 46 222 58 222 L 70 222 70 207.510 L 70 193.019 65.250 189.514 C 61.274 186.580, 50.086 182, 46.895 182 C 46.398 182, 46 190.903, 46 202 M 78 211.983 L 78 222 90.048 222 L 102.095 222 101.798 215.750 C 101.520 209.915, 101.334 209.482, 99 209.226 C 94.215 208.703, 87.470 206.668, 82.750 204.325 L 78 201.966 78 211.983 M 60.500 239 C 65.427 243.950, 69.580 248, 69.729 248 C 69.878 248, 70 243.950, 70 239 L 70 230 60.771 230 L 51.542 230 60.500 239 M 78 239.229 L 78 248.458 87 239.500 C 91.950 234.573, 96 230.420, 96 230.271 C 96 230.122, 91.950 230, 87 230 L 78 230 78 239.229 " stroke="none" fill="black" fill-rule="evenodd"/>
</svg>