<svg xmlns="http://www.w3.org/2000/svg" width="148" height="324" viewBox="0 0 148 324" version="1.1">
	<path d="M 67.500 158.908 C 61.277 160.019, 54.576 163.428, 49.601 168.014 C 44.589 172.634, 39 182.727, 39 187.160 L 39 190 24.071 190 C 6.035 190, 5.549 190.246, 6.522 198.877 C 8.523 216.624, 14.012 228.091, 26.461 240.535 C 36.299 250.368, 44.878 255.430, 57.209 258.677 C 65.643 260.897, 81.484 260.844, 90 258.566 C 111.670 252.770, 130.620 234.747, 137.169 213.705 C 139.995 204.625, 141.416 193.206, 139.941 191.429 C 139.009 190.306, 135.516 190, 123.614 190 L 108.473 190 107.253 184.863 C 105.747 178.522, 101.065 171.067, 95.709 166.483 C 88.770 160.544, 76.616 157.280, 67.500 158.908 M 63.385 167.617 C 57.552 169.686, 51.605 175.144, 48.588 181.199 C 43.895 190.618, 42.144 190, 73.519 190 L 101.038 190 100.392 187.250 C 98.374 178.665, 91.032 170.404, 82.684 167.326 C 78.298 165.709, 68.343 165.859, 63.385 167.617 M 14 200.106 C 14 201.264, 14.713 204.976, 15.585 208.356 C 20.889 228.914, 38.828 246.683, 59.103 251.463 C 66.646 253.241, 78.760 253.441, 86.201 251.910 C 89.115 251.310, 95.244 249.032, 99.820 246.847 C 115.079 239.562, 126.717 225.246, 131.003 208.489 C 132.101 204.194, 133 200.077, 133 199.340 C 133 198.235, 122.566 198, 73.500 198 L 14 198 14 200.106 " stroke="none" fill="black" fill-rule="evenodd"/>
</svg>