<svg xmlns="http://www.w3.org/2000/svg" width="116" height="324" viewBox="0 0 116 324" version="1.1">
	<path d="M 20.198 162.515 C 14.103 171.717, 14.078 182.246, 20.131 191.384 C 23.545 196.539, 26.458 197.970, 28.789 195.640 C 30.552 193.877, 29.835 191.752, 25.764 186.677 C 23.914 184.369, 23.500 182.618, 23.500 177.091 C 23.500 171.293, 23.904 169.746, 26.337 166.235 C 29.701 161.380, 29.542 158.623, 25.871 158.196 C 23.727 157.947, 22.712 158.720, 20.198 162.515 M 53.968 160.193 C 45.703 168.797, 45.901 185.321, 54.376 194.318 C 60.188 200.488, 64.746 194.892, 59.123 188.488 C 53.912 182.552, 53.648 173.001, 58.502 165.998 C 59.971 163.877, 61.018 161.322, 60.827 160.321 C 60.308 157.602, 56.525 157.531, 53.968 160.193 M 85.778 160.710 C 84.309 162.244, 82.407 165.173, 81.553 167.218 C 79.411 172.345, 79.583 182.505, 81.896 187.500 C 84.221 192.521, 89.213 197.297, 91.651 196.832 C 94.542 196.281, 94.540 192.175, 91.647 189.142 C 85.582 182.783, 85.346 171.543, 91.149 165.348 C 93.670 162.656, 93.289 158.613, 90.475 158.210 C 89.288 158.040, 87.346 159.074, 85.778 160.710 " stroke="none" fill="black" fill-rule="evenodd"/>
</svg>