<svg xmlns="http://www.w3.org/2000/svg" width="84" height="324" viewBox="0 0 84 324" version="1.1">
	<path d="M 7.571 127.571 C 6.206 128.937, 6 133.497, 6 162.371 C 6 186.883, 6.315 195.915, 7.200 196.800 C 8.081 197.681, 16.578 198, 39.200 198 L 70 198 70 228.429 C 70 254.758, 70.212 259.069, 71.571 260.429 C 73.545 262.402, 74.455 262.402, 76.429 260.429 C 77.825 259.032, 78 251.628, 78 194 C 78 136.372, 77.825 128.968, 76.429 127.571 C 74.455 125.598, 73.545 125.598, 71.571 127.571 C 70.212 128.931, 70 133.242, 70 159.571 L 70 190 42 190 L 14 190 14 159.571 C 14 133.242, 13.788 128.931, 12.429 127.571 C 11.564 126.707, 10.471 126, 10 126 C 9.529 126, 8.436 126.707, 7.571 127.571 " stroke="none" fill="black" fill-rule="evenodd"/>
</svg>