<svg xmlns="http://www.w3.org/2000/svg" width="148" height="324" viewBox="0 0 148 324" version="1.1">
	<path d="M 70.667 126.667 C 69.218 128.115, 70.152 131.181, 73.293 135.297 C 79.709 143.703, 81.492 149.289, 81.496 161 C 81.500 170.715, 81.266 171.986, 78.371 178 C 76.651 181.575, 72.692 187.650, 69.573 191.500 C 62.540 200.183, 58.497 208.456, 56.958 217.309 C 54.642 230.629, 59.035 246.078, 68.050 256.319 C 72.342 261.195, 74.863 262.075, 77.038 259.454 C 78.105 258.168, 77.958 257.452, 76.166 255.204 C 65.884 242.306, 63.634 236.246, 64.208 223 C 64.701 211.630, 66.935 206.244, 75.616 195.500 C 78.727 191.650, 82.892 185.125, 84.873 181 C 88.172 174.129, 88.504 172.620, 88.836 163 C 89.136 154.269, 88.838 151.434, 87.062 146.171 C 82.725 133.322, 74.179 123.155, 70.667 126.667 M 23.282 175.282 C 13.777 184.787, 6 193.193, 6 193.963 C 6 195.449, 37.221 227.451, 40.333 229.155 C 41.705 229.907, 42.649 229.723, 44.083 228.425 C 45.137 227.471, 46 226.230, 46 225.668 C 46 225.105, 39.156 217.750, 30.792 209.323 L 15.584 194 30.792 178.677 C 39.156 170.250, 46 162.895, 46 162.332 C 46 161.120, 42.726 158, 41.453 158 C 40.964 158, 32.787 165.777, 23.282 175.282 M 103.616 159.527 C 102.727 160.416, 102 161.640, 102 162.249 C 102 162.857, 108.844 170.250, 117.208 178.677 L 132.416 194 117.208 209.323 C 108.844 217.750, 102 225.143, 102 225.751 C 102 227.206, 104.995 230.171, 106.084 229.795 C 108.220 229.056, 141 195.451, 141 194 C 141 192.549, 108.220 158.944, 106.084 158.205 C 105.615 158.043, 104.505 158.638, 103.616 159.527 " stroke="none" fill="black" fill-rule="evenodd"/>
</svg>