<svg xmlns="http://www.w3.org/2000/svg" width="116" height="324" viewBox="0 0 116 324" version="1.1">
	<path d="M 7.571 159.571 C 6.707 160.436, 6 161.640, 6 162.249 C 6 162.857, 12.844 170.250, 21.208 178.677 L 36.416 194 21.208 209.323 C 12.844 217.750, 6 225.143, 6 225.751 C 6 227.185, 8.820 230, 10.257 230 C 12.006 230, 46 195.761, 46 194 C 46 192.239, 12.006 158, 10.257 158 C 9.644 158, 8.436 158.707, 7.571 159.571 M 72.200 191.200 C 70.111 193.289, 71.447 198, 74.129 198 C 75.139 198, 78 195.044, 78 194 C 78 192.956, 75.139 190, 74.129 190 C 73.728 190, 72.860 190.540, 72.200 191.200 M 104.200 191.200 C 101.181 194.219, 104.247 199.008, 107.936 197.034 C 110.536 195.643, 110.606 192.395, 108.066 191.035 C 105.655 189.745, 105.655 189.745, 104.200 191.200 " stroke="none" fill="black" fill-rule="evenodd"/>
</svg>