<svg xmlns="http://www.w3.org/2000/svg" width="276" height="324" viewBox="0 0 276 324" version="1.1">
	<path d="M 7.571 255.571 C 6.707 256.436, 6 257.529, 6 258 C 6 258.471, 6.707 259.564, 7.571 260.429 C 8.932 261.789, 13.275 262, 39.929 262 L 70.715 262 71.344 268.014 C 73.847 291.966, 95.683 316.069, 120.644 322.433 C 128.729 324.495, 146.271 324.495, 154.356 322.433 C 166.217 319.409, 174.698 314.381, 184.535 304.539 C 191.559 297.512, 194.376 293.831, 197.193 288 C 201.081 279.952, 204 270.134, 204 265.106 L 204 262 235.429 262 C 262.667 262, 267.067 261.790, 268.429 260.429 C 270.402 258.455, 270.402 257.545, 268.429 255.571 C 267.063 254.206, 262.491 254, 233.500 254 C 195.942 254, 197.012 253.785, 196.985 261.321 C 196.902 284.791, 176.113 309.754, 151.897 315.463 C 143.718 317.390, 131.282 317.390, 123.103 315.463 C 98.887 309.754, 78.098 284.791, 78.015 261.321 C 77.988 253.794, 79.001 254, 42 254 C 13.463 254, 8.936 254.207, 7.571 255.571 " stroke="none" fill="black" fill-rule="evenodd"/>
</svg>