<svg xmlns="http://www.w3.org/2000/svg" width="212" height="324" viewBox="0 0 212 324" version="1.1">
	<path d="M 199.014 127.483 C 198.337 128.299, 197.416 132.236, 196.967 136.233 C 194.209 160.795, 175.622 181.868, 151.754 187.496 C 142.465 189.686, 140 189.511, 140 186.660 C 140 182.667, 134.168 172.409, 129.398 168.013 C 119.217 158.628, 105.525 156.036, 92.507 161.027 C 84.374 164.146, 76.134 172.353, 73.163 180.295 C 71.973 183.474, 71 186.958, 71 188.038 C 71 189.945, 70.136 190, 40.071 190 C 13.288 190, 8.932 190.211, 7.571 191.571 C 5.598 193.545, 5.598 194.455, 7.571 196.429 C 8.969 197.827, 16.707 198, 77.677 198 C 136.710 198, 147.051 198.218, 152.269 199.570 C 176.517 205.853, 194.185 226.316, 197.050 251.435 C 198.070 260.385, 199.559 262.842, 202.883 261.062 C 205.515 259.654, 205.662 255.172, 203.434 244.208 C 199.347 224.096, 185.777 206.608, 166.979 197.231 L 159.457 193.479 166.979 189.754 C 185.714 180.474, 199.346 162.913, 203.434 142.792 C 205.571 132.273, 205.479 128.327, 203.066 127.035 C 200.584 125.707, 200.478 125.719, 199.014 127.483 M 93.146 169.085 C 89.750 170.782, 85.876 173.607, 84.536 175.363 C 81.907 178.811, 78.058 186.721, 78.022 188.750 C 78.005 189.720, 84.155 190, 105.500 190 C 136.853 190, 135.105 190.618, 130.412 181.199 C 123.519 167.367, 107.200 162.062, 93.146 169.085 " stroke="none" fill="black" fill-rule="evenodd"/>
</svg>