<svg xmlns="http://www.w3.org/2000/svg" width="180" height="324" viewBox="0 0 180 324" version="1.1">
	<path d="M 39.571 127.571 C 38.207 128.935, 38 133.425, 38 161.577 L 38 194.012 22.016 225.967 C 13.225 243.542, 6.285 258.580, 6.594 259.384 C 7.265 261.133, 9.512 262.124, 11.274 261.448 C 11.975 261.180, 19.056 247.919, 27.010 231.980 C 34.964 216.041, 41.710 203, 42 203 C 42.290 203, 49.036 216.041, 56.990 231.980 C 64.944 247.919, 72.025 261.180, 72.726 261.448 C 74.486 262.124, 76.735 261.134, 77.404 259.390 C 77.711 258.589, 70.886 243.772, 62.237 226.463 L 46.511 194.993 76.246 165.258 L 105.981 135.523 137.277 166.762 C 154.490 183.943, 169.087 198, 169.715 198 C 171.201 198, 174 195.187, 174 193.695 C 174 191.996, 107.729 126, 106.022 126 C 105.228 126, 91.398 139.152, 75.289 155.227 L 46 184.455 46 156.799 C 46 132.990, 45.781 128.924, 44.429 127.571 C 43.564 126.707, 42.471 126, 42 126 C 41.529 126, 40.436 126.707, 39.571 127.571 " stroke="none" fill="black" fill-rule="evenodd"/>
</svg>