<svg xmlns="http://www.w3.org/2000/svg" width="212" height="324" viewBox="0 0 212 324" version="1.1">
	<path d="M 72.369 126.765 C 71.416 127.384, 6 257.155, 6 258.426 C 6 258.663, 6.707 259.564, 7.571 260.429 C 8.930 261.787, 13.197 262, 39.071 262 L 69 262 69 264.290 C 69 268.697, 65.912 278.376, 62.262 285.408 C 53.102 303.058, 31.617 316.921, 13.321 316.985 C 8.807 317.001, 5.506 319.269, 6.442 321.711 C 6.749 322.510, 7 323.352, 7 323.582 C 7 323.812, 9.973 324, 13.606 324 C 27.764 324, 42.903 317.637, 54.489 306.816 C 66.597 295.510, 72.912 284.066, 75.634 268.500 C 76.404 264.100, 77.266 259.760, 77.551 258.855 C 77.835 257.951, 77.345 256.488, 76.463 255.605 C 75.061 254.204, 71.113 254, 45.430 254 L 16.002 254 44.747 196.500 C 60.557 164.875, 73.722 139, 74.003 139 C 74.284 139, 88.010 166.059, 104.507 199.131 C 121.003 232.204, 135.095 259.879, 135.821 260.631 C 136.882 261.730, 143.056 262, 167.071 262 L 197 262 197 264.948 C 197 270.077, 192.197 283.267, 188.002 289.661 C 177.824 305.174, 161.315 315.189, 143.104 316.899 C 136.432 317.526, 134.085 319.172, 135.309 322.364 C 136.142 324.533, 146.323 324.588, 154.467 322.467 C 180.130 315.782, 198.561 295.374, 204.050 267.563 C 206.120 257.073, 206.135 256.572, 204.413 255.313 C 203.022 254.295, 195.575 254, 171.303 254 L 139.988 254 108.387 190.750 C 79.992 133.916, 75.802 126.031, 74 126.031 C 73.725 126.031, 72.991 126.361, 72.369 126.765 " stroke="none" fill="black" fill-rule="evenodd"/>
</svg>