<svg xmlns="http://www.w3.org/2000/svg" width="52" height="324" viewBox="0 0 52 324" version="1.1">
	<path d="M 7.571 159.571 C 5.215 161.927, 5.215 210.073, 7.571 212.429 C 8.436 213.293, 9.529 214, 10 214 C 10.471 214, 11.564 213.293, 12.429 212.429 C 14.785 210.073, 14.785 161.927, 12.429 159.571 C 11.564 158.707, 10.471 158, 10 158 C 9.529 158, 8.436 158.707, 7.571 159.571 M 7.571 222.571 C 6.707 223.436, 6 224.529, 6 225 C 6 226.111, 8.889 229, 10 229 C 11.111 229, 14 226.111, 14 225 C 14 223.889, 11.111 221, 10 221 C 9.529 221, 8.436 221.707, 7.571 222.571 " stroke="none" fill="black" fill-rule="evenodd"/>
</svg>