<svg xmlns="http://www.w3.org/2000/svg" width="403" height="324" viewBox="0 0 403 324" version="1.1">
	<path d="M 33.067 239.135 C 21.487 241.056, 4.453 252.135, 5.183 257.271 C 5.738 261.173, 9.568 260.653, 14.627 255.990 C 30.230 241.607, 58.417 243.112, 71 259 C 83.706 275.043, 112.461 278.093, 131.550 265.423 L 136.707 262 201.731 262 C 270.361 262, 268.300 262.138, 269.152 257.500 C 269.647 254.805, 277.349 249.793, 284.407 247.573 C 293.402 244.744, 305.839 245.657, 314.127 249.756 C 320.110 252.715, 321.996 254.215, 329.500 261.977 C 331.150 263.684, 335.650 266.631, 339.500 268.527 C 356.371 276.833, 375.014 274.780, 390.778 262.878 C 396.393 258.639, 397.305 255.835, 393.786 253.630 C 392.449 252.792, 391.460 253.046, 389.286 254.788 C 378.054 263.789, 370.870 266.389, 359 265.750 C 346.587 265.081, 340.666 262.477, 332.026 253.888 C 312.847 234.824, 286.217 233.226, 265.244 249.882 L 259.988 254.056 197.461 253.970 L 134.935 253.884 131.053 256.958 C 128.918 258.649, 124.546 261.262, 121.336 262.766 C 116.139 265.201, 114.350 265.500, 105 265.500 C 95.344 265.500, 93.977 265.252, 88 262.418 C 83.615 260.339, 79.554 257.310, 75.522 253.110 C 68.411 245.705, 58.680 240.538, 49 239.029 C 41.630 237.879, 40.595 237.886, 33.067 239.135 " stroke="none" fill="black" fill-rule="evenodd"/>
</svg>