<svg xmlns="http://www.w3.org/2000/svg" width="212" height="324" viewBox="0 0 212 324" version="1.1">
	<path d="M 71.571 127.571 C 70.212 128.931, 70 133.242, 70 159.571 L 70 190 39.571 190 C 13.242 190, 8.931 190.212, 7.571 191.571 C 5.598 193.545, 5.598 194.455, 7.571 196.429 C 8.931 197.788, 13.242 198, 39.571 198 L 70 198 70 228.429 C 70 254.758, 70.212 259.069, 71.571 260.429 C 72.968 261.825, 80.406 262, 138.371 262 C 187.771 262, 203.891 261.709, 204.800 260.800 C 206.535 259.065, 206.535 128.935, 204.800 127.200 C 203.891 126.291, 187.771 126, 138.371 126 C 80.406 126, 72.968 126.175, 71.571 127.571 M 78 162 L 78 190 103.202 190 L 128.405 190 115.202 176.667 C 107.941 169.334, 102 162.841, 102 162.239 C 102 160.813, 104.825 158, 106.257 158 C 108.006 158, 142 192.239, 142 194 C 142 195.761, 108.006 230, 106.257 230 C 104.825 230, 102 227.187, 102 225.761 C 102 225.159, 107.941 218.666, 115.202 211.333 L 128.405 198 103.202 198 L 78 198 78 226 L 78 254 138.500 254 L 199 254 199 194 L 199 134 138.500 134 L 78 134 78 162 " stroke="none" fill="black" fill-rule="evenodd"/>
</svg>