<svg xmlns="http://www.w3.org/2000/svg" width="148" height="324" viewBox="0 0 148 324" version="1.1">
	<path d="M 98.344 159 C 92.530 160.208, 86.552 163.450, 81.427 168.174 C 76.867 172.377, 71 182.710, 71 186.537 C 71 189.668, 69.337 190.633, 62.647 191.385 C 39.062 194.033, 14.941 215.786, 8.642 240.088 C 7.846 243.161, 6.881 248.597, 6.499 252.168 C 5.348 262.913, -0.896 262.002, 73.821 261.985 C 109.395 261.976, 139.081 261.601, 139.791 261.150 C 141.667 259.960, 141.573 194.829, 139.684 187 C 137.696 178.761, 135.116 174.048, 129.505 168.404 C 121.831 160.685, 108.946 156.797, 98.344 159 M 95.385 167.617 C 89.552 169.686, 83.605 175.144, 80.588 181.199 C 75.895 190.618, 74.144 190, 105.519 190 L 133.038 190 132.377 187.250 C 128.551 171.330, 111.073 162.054, 95.385 167.617 M 58.645 199.584 C 38.562 204.445, 20.305 222.877, 15.537 243.103 C 14.708 246.621, 14.023 250.512, 14.015 251.750 L 14 254 74 254 L 134 254 134 226 L 134 198 99.250 198.083 C 72.919 198.146, 63.081 198.510, 58.645 199.584 " stroke="none" fill="black" fill-rule="evenodd"/>
</svg>