<svg xmlns="http://www.w3.org/2000/svg" width="148" height="324" viewBox="0 0 148 324" version="1.1">
	<path d="M 89.288 173.222 L 42.028 220.444 26.691 205.222 C 18.256 196.850, 10.857 190, 10.249 190 C 8.819 190, 6 192.819, 6 194.249 C 6 194.857, 12.844 202.250, 21.208 210.677 L 36.416 226 21.208 241.323 C 12.844 249.750, 6 257.143, 6 257.751 C 6 259.181, 8.819 262, 10.249 262 C 10.857 262, 18.250 255.156, 26.677 246.792 L 42 231.584 57.323 246.792 C 65.750 255.156, 73.085 262, 73.623 262 C 75.244 262, 77 259.725, 77 257.625 C 77 256.420, 71.282 249.886, 62.336 240.868 L 47.672 226.086 89.752 183.293 C 112.896 159.757, 133.895 138.494, 136.416 136.042 C 138.937 133.590, 141 130.867, 141 129.992 C 141 128.193, 139.118 126, 137.575 126 C 137.011 126, 115.282 147.250, 89.288 173.222 " stroke="none" fill="black" fill-rule="evenodd"/>
</svg>