<svg xmlns="http://www.w3.org/2000/svg" width="148" height="324" viewBox="0 0 148 324" version="1.1">
	<path d="M 39.388 95.146 C 21.024 113.509, 6 129.185, 6 129.981 C 6 130.776, 20.175 145.628, 37.500 162.984 C 66.889 192.426, 69 194.777, 69 198.060 C 69 203.567, 66.307 212.811, 62.330 220.954 C 53.739 238.543, 31.791 253, 13.677 253 C 10.888 253, 8.538 253.605, 7.571 254.571 C 5.587 256.556, 5.597 257.454, 7.627 259.485 C 8.923 260.780, 10.402 260.980, 14.877 260.463 C 33.225 258.344, 47.383 251.124, 59.554 237.680 C 68.250 228.074, 76 210.358, 76 200.086 C 76 196.834, 78.245 194.345, 108.500 164.049 C 126.375 146.151, 141 130.826, 141 129.996 C 141 128.489, 76.165 62.888, 73.944 62.148 C 73.301 61.934, 57.751 76.783, 39.388 95.146 M 44.498 101.002 L 15.509 130.004 44.754 159.250 L 74 188.496 103.246 159.250 L 132.491 130.004 103.502 101.002 C 87.558 85.051, 74.282 72, 74 72 C 73.718 72, 60.442 85.051, 44.498 101.002 " stroke="none" fill="black" fill-rule="evenodd"/>
</svg>