<svg xmlns="http://www.w3.org/2000/svg" width="148" height="324" viewBox="0 0 148 324" version="1.1">
	<path d="M 61.500 127.404 C 39.015 131.731, 19.830 147.361, 11.285 168.314 C 6.758 179.415, 6.073 186.711, 6.035 224.179 C 6.004 254.402, 6.202 259.059, 7.571 260.429 C 8.968 261.825, 16.343 261.998, 73.821 261.985 C 109.395 261.976, 139.097 261.591, 139.826 261.129 C 140.888 260.456, 141.130 253.663, 141.041 227.058 C 140.895 183.729, 139.905 176.342, 132.291 161.772 C 128.334 154.199, 118.964 143.447, 112.364 138.907 C 97.253 128.510, 78.174 124.195, 61.500 127.404 M 58.645 135.584 C 38.562 140.445, 20.305 158.877, 15.537 179.103 C 14.349 184.144, 14.026 192.762, 14.015 219.750 L 14 254 74.115 254 L 134.230 254 133.721 220.250 C 133.317 193.496, 132.869 185.153, 131.563 180 C 125.960 157.894, 109.283 141.042, 87.540 135.515 C 80.213 133.653, 66.488 133.685, 58.645 135.584 " stroke="none" fill="black" fill-rule="evenodd"/>
</svg>