<svg xmlns="http://www.w3.org/2000/svg" width="116" height="324" viewBox="0 0 116 324" version="1.1">
	<path d="M 67.871 127.017 C 53.939 129.372, 43.198 139.251, 39.696 152.933 L 38.318 158.318 32.933 159.696 C 17.134 163.740, 6.748 177.147, 6.748 193.500 C 6.748 225.177, 45.698 240.495, 67.128 217.245 C 73.627 210.194, 76.444 203.016, 76.444 193.500 C 76.444 186.964, 75.962 184.462, 73.811 179.825 C 69.049 169.556, 59.158 161.217, 49.651 159.454 C 46.027 158.782, 45.837 158.567, 46.392 155.790 C 48.118 147.160, 55.607 138.344, 63.496 135.656 C 82.339 129.236, 100.960 141.634, 100.990 160.622 C 101.012 174.363, 92.728 197.422, 81.736 214.219 C 73.998 226.041, 58.357 241.548, 46.653 249 C 39.253 253.712, 38.049 254.858, 38.257 257 C 38.681 261.361, 42.235 260.694, 51.531 254.508 C 62.433 247.254, 75.376 234.973, 83.587 224.092 C 98.915 203.780, 111.158 169.287, 108.100 155.029 C 105.827 144.434, 98.640 134.918, 89.318 130.162 C 86.051 128.496, 74.936 125.729, 73.066 126.118 C 72.755 126.182, 70.417 126.587, 67.871 127.017 M 31.054 167.668 C 25.003 169.886, 17.760 177.321, 15.667 183.463 C 11.990 194.255, 14.381 205.476, 21.976 213.071 C 28.035 219.130, 34.656 221.436, 44.059 220.764 C 58.817 219.708, 69.125 208.496, 69.125 193.500 C 69.125 183.073, 64.257 174.579, 55.261 169.307 C 49.484 165.922, 37.949 165.141, 31.054 167.668 " stroke="none" fill="black" fill-rule="evenodd"/>
</svg>