<svg xmlns="http://www.w3.org/2000/svg" width="148" height="324" viewBox="0 0 148 324" version="1.1">
	<path d="M 125.500 191.457 C 95.754 197.078, 75.408 218.825, 70.496 250.250 L 69.909 254 39.526 254 C 13.238 254, 8.931 254.212, 7.571 255.571 C 5.596 257.546, 5.598 258.455, 7.579 260.436 C 8.990 261.847, 16.058 261.987, 74.220 261.757 C 134.934 261.517, 139.356 261.383, 140.386 259.750 C 141.191 258.474, 141.191 257.526, 140.386 256.250 C 139.381 254.655, 136.559 254.477, 108.505 254.235 L 77.728 253.971 78.373 248.485 C 80.420 231.067, 93.525 212.797, 109.877 204.562 C 117.954 200.494, 123.281 198.974, 132.395 198.135 C 139.977 197.437, 142.486 195.591, 140.394 192.250 C 138.991 190.011, 134.437 189.769, 125.500 191.457 " stroke="none" fill="black" fill-rule="evenodd"/>
</svg>