<svg xmlns="http://www.w3.org/2000/svg" width="212" height="324" viewBox="0 0 212 324" version="1.1">
	<path d="M 72.369 126.765 C 71.416 127.384, 6 257.155, 6 258.426 C 6 258.663, 6.707 259.564, 7.571 260.429 C 8.936 261.793, 13.463 262, 42 262 C 70.537 262, 75.064 261.793, 76.429 260.429 C 78.402 258.455, 78.402 257.545, 76.429 255.571 C 75.071 254.214, 70.849 254, 45.430 254 L 16.002 254 44.747 196.500 C 60.557 164.875, 73.722 139, 74.003 139 C 74.284 139, 88.010 166.059, 104.507 199.131 C 121.003 232.204, 135.095 259.879, 135.821 260.631 C 136.886 261.734, 143.450 262, 169.637 262 C 190.124 262, 202.846 261.617, 204.066 260.965 C 206.554 259.633, 206.554 256.367, 204.066 255.035 C 202.851 254.385, 190.566 254, 171.060 254 L 139.988 254 108.387 190.750 C 79.992 133.916, 75.802 126.031, 74 126.031 C 73.725 126.031, 72.991 126.361, 72.369 126.765 M 136.047 175.371 C 126.448 184.911, 118.448 193.157, 118.269 193.694 C 117.966 194.603, 152.089 229.145, 153.932 229.795 C 155.006 230.173, 158 227.198, 158 225.751 C 158 225.143, 151.156 217.750, 142.792 209.323 L 127.584 194 142.792 178.677 C 151.156 170.250, 158 162.857, 158 162.249 C 158 161.033, 155.257 157.993, 154.179 158.013 C 153.805 158.020, 145.646 165.831, 136.047 175.371 " stroke="none" fill="black" fill-rule="evenodd"/>
</svg>