<svg xmlns="http://www.w3.org/2000/svg" width="148" height="324" viewBox="0 0 148 324" version="1.1">
	<path d="M 7.200 127.200 C 6.291 128.109, 6 144.229, 6 193.629 C 6 251.594, 6.175 259.032, 7.571 260.429 C 8.968 261.825, 16.343 261.998, 73.821 261.985 C 109.395 261.976, 139.072 261.606, 139.772 261.162 C 141.639 259.977, 141.639 128.023, 139.772 126.838 C 139.072 126.394, 109.228 126.024, 73.450 126.015 C 24.172 126.004, 8.109 126.291, 7.200 127.200 M 46.752 161.248 L 74 188.495 101.248 161.248 L 128.495 134 74 134 L 19.505 134 46.752 161.248 M 105.500 167.727 C 90.100 183.403, 76.462 196.712, 75.193 197.301 C 73.046 198.299, 70.837 196.325, 43.443 168.943 L 14 139.513 14 196.756 L 14 254 74 254 L 134 254 134 196.500 C 134 164.875, 133.887 139.050, 133.750 139.112 C 133.613 139.173, 120.900 152.050, 105.500 167.727 " stroke="none" fill="black" fill-rule="evenodd"/>
</svg>