<svg xmlns="http://www.w3.org/2000/svg" width="148" height="324" viewBox="0 0 148 324" version="1.1">
	<path d="M 7.571 127.571 C 6.707 128.436, 6 129.529, 6 130 C 6 130.471, 6.707 131.564, 7.571 132.429 C 8.965 133.822, 15.901 134, 68.815 134 L 128.487 134 99.244 163.256 C 83.160 179.347, 70 193.207, 70 194.056 C 70 197.781, 71.686 198, 100.427 198 L 128.455 198 99.227 227.289 C 83.152 243.398, 70 257.091, 70 257.718 C 70 259.197, 72.805 261.993, 74.321 262.025 C 75.576 262.051, 142.011 195.500, 141.985 194.243 C 141.976 193.834, 141.543 192.825, 141.022 192 C 140.230 190.745, 135.506 190.418, 112.148 190 L 84.221 189.500 113.110 160.196 C 129 144.079, 142 130.499, 142 130.018 C 142 129.536, 141.293 128.436, 140.429 127.571 C 139.032 126.175, 131.628 126, 74 126 C 16.372 126, 8.968 126.175, 7.571 127.571 " stroke="none" fill="black" fill-rule="evenodd"/>
</svg>