<svg xmlns="http://www.w3.org/2000/svg" width="84" height="324" viewBox="0 0 84 324" version="1.1">
	<path d="M 7.571 111.571 C 6.707 112.436, 6 113.659, 6 114.290 C 6 115.969, 40.307 150, 42 150 C 43.693 150, 78 115.969, 78 114.290 C 78 112.827, 75.200 110, 73.751 110 C 73.143 110, 65.750 116.844, 57.323 125.208 L 42 140.416 26.677 125.208 C 18.250 116.844, 10.857 110, 10.249 110 C 9.640 110, 8.436 110.707, 7.571 111.571 M 33.384 159.412 C 15.475 163.758, 3.559 181.807, 6.987 199.396 C 8.500 207.161, 12.212 214.019, 17.580 218.967 C 38.277 238.045, 70.591 227.221, 76.013 199.396 C 79.488 181.565, 67.484 163.676, 49.147 159.360 C 42.397 157.772, 40.111 157.779, 33.384 159.412 M 31.054 167.728 C 25.018 169.859, 17.781 177.260, 15.667 183.463 C 11.995 194.241, 14.382 205.477, 21.952 213.048 C 32.741 223.836, 50.111 223.794, 60.952 212.952 C 78.571 195.333, 66.014 165.726, 41.072 166.079 C 38.007 166.122, 33.499 166.864, 31.054 167.728 M 23.282 255.282 C 13.777 264.787, 6 273.079, 6 273.710 C 6 275.173, 8.800 278, 10.249 278 C 10.857 278, 18.250 271.156, 26.677 262.792 L 42 247.584 57.323 262.792 C 65.750 271.156, 73.143 278, 73.751 278 C 75.200 278, 78 275.173, 78 273.710 C 78 272.031, 43.693 238, 42 238 C 41.210 238, 32.787 245.777, 23.282 255.282 " stroke="none" fill="black" fill-rule="evenodd"/>
</svg>