<svg xmlns="http://www.w3.org/2000/svg" width="148" height="324" viewBox="0 0 148 324" version="1.1">
	<path d="M 64.500 126.955 C 50.099 129.255, 38.620 134.743, 28.563 144.135 C 8.003 163.335, 1.297 189.924, 10.406 216.119 C 17.350 236.086, 35.703 252.809, 57 258.576 C 64.828 260.696, 80.144 260.957, 88 259.104 C 91.025 258.391, 97.745 255.776, 102.933 253.292 C 120.085 245.083, 133.276 228.972, 138.014 210.444 C 142.092 194.501, 139.936 176.203, 132.264 161.652 C 124.401 146.736, 106.682 132.739, 90.500 128.660 C 82.790 126.717, 70.880 125.936, 64.500 126.955 M 58.159 135.569 C 37.914 141.015, 20.798 158.320, 15.487 178.711 C 13.578 186.039, 13.578 200.961, 15.487 208.289 C 18.109 218.354, 23.654 227.879, 31.388 235.602 C 35.300 239.508, 39.927 243.439, 41.671 244.337 L 44.842 245.970 42.501 241.735 C 37.057 231.890, 37.154 219.160, 42.751 208.767 C 53.736 188.368, 81.411 184.304, 97.777 200.687 C 105.483 208.400, 107.500 213.557, 107.500 225.542 C 107.500 234.521, 107.212 236.139, 104.777 240.833 L 102.053 246.081 105.218 244.291 C 110.825 241.117, 121.562 229.703, 125.340 222.899 C 135.319 204.928, 135.319 182.072, 125.340 164.101 C 118.010 150.900, 103.072 139.382, 88.356 135.585 C 80.745 133.622, 65.427 133.613, 58.159 135.569 M 63.603 199.477 C 55.528 202.354, 55.594 203.079, 64.764 212.249 L 72.985 220.470 81.456 212.044 C 90.853 202.695, 90.927 202.185, 83.260 199.573 C 77.621 197.652, 68.844 197.609, 63.603 199.477 M 50.192 210.269 C 45.752 215.619, 44.575 229.264, 47.918 236.627 C 48.948 238.896, 50.209 241.011, 50.718 241.326 C 51.228 241.641, 55.325 238.199, 59.823 233.678 L 68.001 225.457 59.671 217.170 C 52.884 210.419, 51.128 209.140, 50.192 210.269 M 86.727 216.772 C 82.477 221.047, 79 224.995, 79 225.546 C 79 226.709, 94.165 242, 95.318 242 C 95.744 242, 97.192 239.637, 98.536 236.750 C 100.274 233.018, 100.980 229.765, 100.980 225.500 C 100.980 219.632, 97.303 209, 95.273 209 C 94.822 209, 90.976 212.497, 86.727 216.772 M 64.477 239.059 L 56.500 247.118 58.830 249.034 C 63.737 253.069, 75.248 254.235, 83.038 251.487 C 90.998 248.678, 90.983 248.530, 81.830 239.329 C 77.273 234.748, 73.299 231, 72.999 231 C 72.699 231, 68.864 234.627, 64.477 239.059 " stroke="none" fill="black" fill-rule="evenodd"/>
</svg>