<svg xmlns="http://www.w3.org/2000/svg" width="148" height="324" viewBox="0 0 148 324" version="1.1">
	<path d="M 56.500 142 L 40.523 158 24.833 158 C 11.903 158, 8.866 158.276, 7.571 159.571 C 6.707 160.436, 6 161.640, 6 162.249 C 6 162.857, 12.844 170.250, 21.208 178.677 L 36.416 194 21.208 209.323 C 12.844 217.750, 6 225.143, 6 225.751 C 6 226.360, 6.707 227.564, 7.571 228.429 C 8.931 229.788, 13.242 230, 39.571 230 L 70 230 70 244.429 C 70 256.212, 70.288 259.145, 71.571 260.429 C 72.436 261.293, 73.529 262, 74 262 C 74.471 262, 75.564 261.293, 76.429 260.429 C 77.712 259.145, 78 256.212, 78 244.429 L 78 230 108.429 230 C 134.758 230, 139.069 229.788, 140.429 228.429 C 141.293 227.564, 142 226.525, 142 226.119 C 142 225.713, 135.063 218.310, 126.585 209.667 L 111.170 193.953 126.585 178.269 C 135.063 169.643, 142 162.261, 142 161.864 C 142 161.467, 141.293 160.436, 140.429 159.571 C 139.134 158.277, 136.102 158, 123.217 158 L 107.576 158 91.470 142 C 82.611 133.200, 74.714 126, 73.920 126 C 73.126 126, 65.287 133.200, 56.500 142 M 58.434 151.009 L 43.368 166 31.482 166 L 19.595 166 32.798 179.333 C 40.059 186.666, 46 193.266, 46 194 C 46 194.734, 40.059 201.334, 32.798 208.667 L 19.595 222 74.034 222 L 128.472 222 115.236 208.737 C 107.956 201.442, 102 194.810, 102 194 C 102 193.190, 107.956 186.558, 115.236 179.263 L 128.472 166 116.474 166 L 104.475 166 89.500 151 C 81.264 142.750, 74.294 136.004, 74.013 136.009 C 73.731 136.014, 66.720 142.764, 58.434 151.009 " stroke="none" fill="black" fill-rule="evenodd"/>
</svg>