<svg xmlns="http://www.w3.org/2000/svg" width="148" height="324" viewBox="0 0 148 324" version="1.1">
	<path d="M 127.870 63.049 C 99.207 67.372, 76.533 89.338, 71.531 117.626 C 69.976 126.422, 69.625 127, 65.835 127 C 60.776 127, 50.941 129.919, 43 133.778 C 32.433 138.912, 18.912 152.433, 13.778 163 C 8.549 173.760, 6.696 181.743, 6.696 193.500 C 6.696 212.834, 12.449 226.527, 26.461 240.539 C 40.492 254.570, 54.209 260.328, 73.500 260.283 C 85.677 260.254, 93.634 258.307, 104.500 252.697 C 114.958 247.297, 126.889 235.544, 132.264 225.348 C 142.612 205.720, 142.612 181.280, 132.264 161.652 C 126.889 151.456, 114.958 139.703, 104.500 134.303 C 96.229 130.033, 86.514 127, 81.106 127 C 78.261 127, 78 126.724, 78 123.710 C 78 121.901, 78.695 117.754, 79.543 114.495 C 85.818 90.405, 107.102 72.208, 131.395 70.164 C 140.010 69.439, 142.584 67.748, 140.394 64.250 C 139.112 62.203, 135.668 61.873, 127.870 63.049 M 58.159 135.569 C 37.914 141.015, 20.798 158.320, 15.487 178.711 C 13.543 186.176, 13.590 200.623, 15.585 208.356 C 20.886 228.903, 38.095 246.083, 58.731 251.430 C 66.366 253.409, 79.578 253.423, 87.897 251.463 C 97.403 249.222, 107.521 243.468, 115.087 236.001 C 138.900 212.500, 138.900 174.500, 115.087 150.999 C 107.714 143.722, 97.850 138.035, 88.356 135.585 C 80.745 133.622, 65.427 133.613, 58.159 135.569 M 65.972 159.329 C 47.771 163.347, 35.510 181.552, 38.987 199.396 C 44.456 227.466, 77.888 238.223, 97.777 218.313 C 105.474 210.608, 107.500 205.439, 107.500 193.500 C 107.500 181.367, 105.450 176.286, 97.353 168.339 C 89.097 160.238, 77.257 156.839, 65.972 159.329 M 63.627 167.468 C 58.247 169.386, 53.039 173.829, 49.500 179.519 C 46.982 183.568, 46.444 185.582, 46.150 192.050 C 45.760 200.623, 47.420 205.822, 52.447 211.770 C 58.859 219.355, 71.147 222.900, 81.231 220.074 C 92.579 216.894, 101 205.574, 101 193.500 C 101 182.038, 93.486 171.200, 82.965 167.488 C 77.743 165.645, 68.766 165.636, 63.627 167.468 " stroke="none" fill="black" fill-rule="evenodd"/>
</svg>