<svg xmlns="http://www.w3.org/2000/svg" width="84" height="324" viewBox="0 0 84 324" version="1.1">
	<path d="M 7.571 127.571 C 6.707 128.436, 6 129.657, 6 130.285 C 6 130.913, 20.057 145.510, 37.238 162.723 L 68.476 194.019 41.238 221.257 L 14 248.495 14 236.819 C 14 227.538, 13.678 224.821, 12.429 223.571 C 10.455 221.598, 9.545 221.598, 7.571 223.571 C 6.264 224.878, 6 228.042, 6 242.371 C 6 254.438, 6.360 259.960, 7.200 260.800 C 8.040 261.640, 13.562 262, 25.629 262 C 39.958 262, 43.122 261.736, 44.429 260.429 C 46.402 258.455, 46.402 257.545, 44.429 255.571 C 43.180 254.322, 40.463 254, 31.185 254 L 19.513 254 48.756 224.744 C 64.840 208.653, 78 194.806, 78 193.974 C 78 192.234, 12.020 126, 10.287 126 C 9.658 126, 8.436 126.707, 7.571 127.571 " stroke="none" fill="black" fill-rule="evenodd"/>
</svg>