<svg xmlns="http://www.w3.org/2000/svg" width="84" height="324" viewBox="0 0 84 324" version="1.1">
	<path d="M 33.384 127.412 C 15.480 131.757, 3.543 149.833, 6.993 167.372 C 7.651 170.715, 9.079 175.194, 10.166 177.325 C 12.765 182.419, 19.066 189.182, 23.377 191.503 L 26.824 193.360 22.662 196.005 C 14.442 201.228, 9.123 209.179, 7.014 219.396 C 4.201 233.027, 11.253 248.375, 23.673 255.654 C 28.824 258.673, 41.869 262.124, 44 261.032 C 44.825 260.609, 47.300 259.941, 49.500 259.548 C 66.517 256.503, 79.552 236.678, 75.965 219.295 C 73.877 209.182, 68.528 201.209, 60.338 196.005 L 56.176 193.360 59.683 191.471 C 64.827 188.701, 71.613 180.656, 73.827 174.702 C 76.730 166.894, 77.297 161.750, 75.965 155.295 C 73.006 140.962, 63.102 130.645, 49.147 127.360 C 42.397 125.772, 40.111 125.779, 33.384 127.412 M 31.054 135.728 C 25.018 137.859, 17.781 145.260, 15.667 151.463 C 10.058 167.925, 18.847 184.571, 35.250 188.550 L 38 189.217 38 161.608 C 38 140.146, 37.722 134.018, 36.750 134.079 C 36.063 134.122, 33.499 134.864, 31.054 135.728 M 46 161.500 L 46 189.135 48.250 188.475 C 61.167 184.686, 69 174.503, 69 161.500 C 69 148.497, 61.167 138.314, 48.250 134.525 L 46 133.865 46 161.500 M 31.054 199.728 C 25.018 201.859, 17.781 209.260, 15.667 215.463 C 10.058 231.925, 18.847 248.571, 35.250 252.550 L 38 253.217 38 225.608 C 38 204.146, 37.722 198.018, 36.750 198.079 C 36.063 198.122, 33.499 198.864, 31.054 199.728 M 46 225.500 L 46 253.135 48.250 252.475 C 61.167 248.686, 69 238.503, 69 225.500 C 69 212.497, 61.167 202.314, 48.250 198.525 L 46 197.865 46 225.500 " stroke="none" fill="black" fill-rule="evenodd"/>
</svg>