<svg xmlns="http://www.w3.org/2000/svg" width="84" height="324" viewBox="0 0 84 324" version="1.1">
	<path d="M 35.045 159.064 C 13.497 163.427, 1.173 185.901, 9.037 206.493 C 12.164 214.680, 20.320 222.836, 28.507 225.963 C 41.863 231.064, 56.079 228.081, 66.080 218.080 C 87.084 197.076, 74.303 161.904, 44.500 158.699 C 41.750 158.403, 37.495 158.567, 35.045 159.064 M 31.627 167.468 C 26.302 169.367, 21.047 173.815, 17.618 179.328 C 13.802 185.463, 12.934 195.275, 15.519 203.058 C 21.686 221.624, 46.931 227.164, 61.048 213.048 C 71.769 202.327, 71.769 184.673, 61.048 173.952 C 53.696 166.601, 41.563 163.927, 31.627 167.468 " stroke="none" fill="black" fill-rule="evenodd"/>
</svg>