<svg xmlns="http://www.w3.org/2000/svg" width="148" height="324" viewBox="0 0 148 324" version="1.1">
	<path d="M 39.230 159.285 C 20.953 177.591, 6 193.084, 6 193.713 C 6 195.190, 8.807 198, 10.282 198 C 10.909 198, 24.602 184.848, 40.711 168.773 L 70 139.545 70 166.807 L 70 194.068 54 225.969 C 45.200 243.515, 38 258.334, 38 258.900 C 38 261.580, 42.931 262, 74.363 262 C 102.570 262, 107.064 261.793, 108.429 260.429 C 109.293 259.564, 110 258.662, 110 258.423 C 110 258.183, 102.800 243.593, 94 226 L 78 194.012 78 166.779 L 78 139.545 107.289 168.773 C 123.398 184.848, 137.068 198, 137.667 198 C 139.258 198, 141.218 195.322, 140.833 193.673 C 140.331 191.529, 75.486 126, 73.866 126 C 73.092 126, 57.506 140.978, 39.230 159.285 M 60.743 228.500 L 48.005 254 73.503 254 C 87.526 254, 99 253.757, 99 253.459 C 99 252.310, 74.649 203, 74.082 203 C 73.752 203, 67.750 214.475, 60.743 228.500 " stroke="none" fill="black" fill-rule="evenodd"/>
</svg>