<svg xmlns="http://www.w3.org/2000/svg" width="84" height="324" viewBox="0 0 84 324" version="1.1">
	<path d="M 34.223 159.012 C 20.302 161.919, 8.402 175.057, 6.515 189.605 C 5.474 197.625, 6.236 198, 23.571 198 L 38 198 38 228.429 C 38 254.758, 38.212 259.069, 39.571 260.429 C 40.436 261.293, 41.529 262, 42 262 C 42.471 262, 43.564 261.293, 44.429 260.429 C 45.788 259.069, 46 254.758, 46 228.429 L 46 198 60.429 198 C 72.428 198, 75.131 197.726, 76.486 196.371 C 77.397 195.460, 77.839 194.027, 77.488 193.121 C 77.144 192.229, 76.446 189.316, 75.937 186.647 C 72.426 168.217, 52.706 155.153, 34.223 159.012 M 31.063 167.911 C 22.614 171.337, 16.617 178.318, 14.450 187.250 L 13.783 190 41.500 190 L 69.217 190 68.550 187.250 C 66.335 178.120, 59.528 170.390, 51.205 167.554 C 45.221 165.515, 36.594 165.668, 31.063 167.911 " stroke="none" fill="black" fill-rule="evenodd"/>
</svg>