<svg xmlns="http://www.w3.org/2000/svg" width="212" height="324" viewBox="0 0 212 324" version="1.1">
	<path d="M 32.712 239.141 C 25.916 240.444, 17.466 244.397, 11.284 249.167 C 4.964 254.042, 3.620 257.464, 6.960 260.169 C 9.047 261.858, 11.693 262, 41.181 262 L 73.140 262 77.726 265.155 C 87.409 271.818, 100.497 274.853, 111.910 273.082 C 119.615 271.886, 128.551 268.342, 133.632 264.467 L 136.867 262 169.499 262 C 190.081 262, 202.846 261.618, 204.066 260.965 C 206.567 259.626, 206.550 256.365, 204.034 255.018 C 202.720 254.315, 181.521 253.964, 140.057 253.961 L 78.046 253.955 71.773 249.208 C 64.115 243.412, 57.416 240.435, 48.934 239.059 C 41.546 237.860, 39.338 237.871, 32.712 239.141 M 28.500 248.056 C 25.200 249.125, 21.375 250.889, 20 251.977 L 17.500 253.956 42 253.971 L 66.500 253.987 63.500 251.979 C 54.912 246.233, 39.472 244.502, 28.500 248.056 M 91 263.813 C 93.559 265.019, 97.324 265.463, 105 265.463 C 112.676 265.463, 116.441 265.019, 119 263.813 C 122.402 262.209, 122.010 262.163, 105 262.163 C 87.990 262.163, 87.598 262.209, 91 263.813 " stroke="none" fill="black" fill-rule="evenodd"/>
</svg>