<svg xmlns="http://www.w3.org/2000/svg" width="148" height="324" viewBox="0 0 148 324" version="1.1">
	<path d="M 7.571 127.571 C 6.707 128.436, 6 129.648, 6 130.266 C 6 130.883, 14.929 140.414, 25.842 151.444 L 45.685 171.500 42.142 178.301 C 38.924 184.479, 38.601 185.853, 38.606 193.301 C 38.610 200.008, 39.085 202.533, 41.216 207.175 C 49.551 225.334, 69.353 233.147, 87.659 225.498 C 89.731 224.632, 92.246 223.183, 93.247 222.277 C 94.971 220.717, 96.165 221.723, 115.838 241.315 C 127.262 252.692, 137.057 262, 137.604 262 C 139.105 262, 141 259.800, 141 258.059 C 141 257.211, 131.894 247.404, 120.765 236.265 L 100.530 216.012 102.319 213.256 C 106.791 206.370, 107.500 203.667, 107.500 193.500 C 107.500 181.561, 105.474 176.392, 97.777 168.687 C 86.750 157.649, 69.661 155.304, 56.377 163.006 L 51.500 165.834 31.444 145.917 C 20.414 134.963, 10.883 126, 10.266 126 C 9.648 126, 8.436 126.707, 7.571 127.571 M 63.741 167.429 C 55.782 170.269, 55.385 169.498, 75.692 190.607 C 85.953 201.273, 94.741 210, 95.220 210 C 95.700 210, 97.192 207.637, 98.536 204.750 C 105.163 190.517, 97.714 172.691, 82.965 167.488 C 77.784 165.660, 68.776 165.633, 63.741 167.429 M 50.197 178.262 C 45.788 183.575, 44.572 197.270, 47.867 204.500 C 50.417 210.092, 54.454 214.595, 59.645 217.638 C 67.370 222.165, 81.456 221.936, 87.759 217.182 C 90.006 215.487, 90.004 215.485, 70.679 196.179 C 54.969 180.485, 51.136 177.131, 50.197 178.262 " stroke="none" fill="black" fill-rule="evenodd"/>
</svg>