<svg xmlns="http://www.w3.org/2000/svg" width="52" height="324" viewBox="0 0 52 324" version="1.1">
	<path d="M 7.250 127.125 C 6.276 128.119, 6 142.792, 6 193.629 C 6 251.594, 6.175 259.032, 7.571 260.429 C 8.436 261.293, 9.529 262, 10 262 C 10.471 262, 11.564 261.293, 12.429 260.429 C 13.790 259.067, 14 254.677, 14 227.540 L 14 196.223 17.750 195.527 C 26.783 193.853, 36.422 185.890, 41.193 176.162 C 44.215 170.001, 44.907 157.239, 42.596 150.310 C 39.372 140.642, 29.072 130.426, 20.157 128.054 C 12.894 126.122, 8.541 125.808, 7.250 127.125 M 14 161.500 L 14 189.135 16.250 188.467 C 17.488 188.100, 20.750 186.569, 23.500 185.066 C 36.082 178.186, 40.584 161.201, 33.351 147.899 C 29.793 141.354, 24.305 137.075, 16.250 134.566 L 14 133.865 14 161.500 " stroke="none" fill="black" fill-rule="evenodd"/>
</svg>