<svg xmlns="http://www.w3.org/2000/svg" width="148" height="324" viewBox="0 0 148 324" version="1.1">
	<path d="M 39.571 191.571 C 38.707 192.436, 38 193.529, 38 194 C 38 194.471, 38.707 195.564, 39.571 196.429 C 40.935 197.792, 45.417 198, 73.490 198 C 91.280 198, 106.548 197.727, 107.418 197.393 C 109.504 196.593, 109.504 191.407, 107.418 190.607 C 106.548 190.273, 91.280 190, 73.490 190 C 45.417 190, 40.935 190.208, 39.571 191.571 M 7.579 255.564 C 6.710 256.432, 6 257.529, 6 258 C 6 258.471, 6.710 259.568, 7.579 260.436 C 8.990 261.847, 16.058 261.987, 74.220 261.757 C 134.934 261.517, 139.356 261.383, 140.386 259.750 C 141.191 258.474, 141.191 257.526, 140.386 256.250 C 139.356 254.617, 134.934 254.483, 74.220 254.243 C 16.058 254.013, 8.990 254.153, 7.579 255.564 " stroke="none" fill="black" fill-rule="evenodd"/>
</svg>