<svg xmlns="http://www.w3.org/2000/svg" width="84" height="324" viewBox="0 0 84 324" version="1.1">
	<path d="M 72.369 126.765 C 71.416 127.384, 6 257.155, 6 258.426 C 6 258.663, 6.707 259.564, 7.571 260.429 C 8.936 261.793, 13.463 262, 42 262 C 70.537 262, 75.064 261.793, 76.429 260.429 C 78.402 258.455, 78.402 257.545, 76.429 255.571 C 75.071 254.214, 70.848 254, 45.427 254 L 15.997 254 46.998 192.003 C 64.049 157.905, 78 129.812, 78 129.575 C 78 128.872, 74.916 125.999, 74.179 126.015 C 73.805 126.024, 72.991 126.361, 72.369 126.765 " stroke="none" fill="black" fill-rule="evenodd"/>
</svg>