<svg xmlns="http://www.w3.org/2000/svg" width="184" height="324" viewBox="0 0 184 324" version="1.1">
	<path d="M 88.372 126.765 C 87.752 127.169, 83.812 134.363, 79.616 142.750 L 71.987 158 56.565 158 C 43.878 158, 40.864 158.279, 39.571 159.571 C 37.598 161.545, 37.598 162.455, 39.571 164.429 C 40.844 165.701, 43.697 166, 54.575 166 L 68.007 166 54 194 L 39.993 222 24.568 222 C 11.878 222, 8.864 222.279, 7.571 223.571 C 5.598 225.545, 5.598 226.455, 7.571 228.429 C 8.844 229.701, 11.698 230, 22.578 230 L 36.013 230 29.022 243.957 C 25.176 251.633, 22.283 258.574, 22.592 259.380 C 23.265 261.133, 25.511 262.125, 27.275 261.448 C 27.977 261.179, 32.025 253.993, 36.271 245.479 L 43.992 230 72.003 230 L 100.013 230 93.022 243.957 C 89.176 251.633, 86.283 258.574, 86.592 259.380 C 87.265 261.133, 89.511 262.125, 91.275 261.448 C 91.977 261.179, 96.025 253.993, 100.271 245.479 L 107.992 230 123.424 230 C 136.121 230, 139.136 229.721, 140.429 228.429 C 141.293 227.564, 142 226.471, 142 226 C 142 225.529, 141.293 224.436, 140.429 223.571 C 139.156 222.299, 136.303 222, 125.425 222 L 111.993 222 126 194 L 140.007 166 155.432 166 C 168.122 166, 171.136 165.721, 172.429 164.429 C 174.402 162.455, 174.402 161.545, 172.429 159.571 C 171.156 158.299, 168.302 158, 157.422 158 L 143.987 158 150.978 144.043 C 154.824 136.367, 157.717 129.426, 157.408 128.620 C 156.735 126.867, 154.489 125.875, 152.725 126.552 C 152.023 126.821, 147.975 134.007, 143.729 142.521 L 136.008 158 107.997 158 L 79.987 158 86.993 144.013 C 90.847 136.321, 94 129.828, 94 129.585 C 94 128.874, 90.921 125.999, 90.179 126.015 C 89.805 126.024, 88.993 126.361, 88.372 126.765 M 62 194 L 47.993 222 75.993 222 L 103.993 222 118 194 L 132.007 166 104.007 166 L 76.007 166 62 194 " stroke="none" fill="black" fill-rule="evenodd"/>
</svg>