<svg xmlns="http://www.w3.org/2000/svg" width="148" height="324" viewBox="0 0 148 324" version="1.1">
	<path d="M 33.829 175.066 C 30.710 175.529, 25.219 177.241, 21.626 178.870 C 13.744 182.444, 4.771 190.400, 5.204 193.430 C 5.738 197.166, 9.662 196.567, 14.627 191.990 C 17.111 189.700, 21.699 186.636, 24.822 185.180 C 29.869 182.828, 31.722 182.532, 41.500 182.517 C 51.923 182.501, 52.852 182.672, 59.222 185.788 C 63.802 188.028, 67.277 190.655, 70.122 194.030 C 85.768 212.584, 115.952 214.572, 135.748 198.350 C 140.328 194.598, 141.045 191.672, 137.873 189.685 C 136.605 188.890, 135.264 189.469, 131.803 192.305 C 124.517 198.276, 116.710 201.317, 107.409 201.807 C 93.975 202.516, 83.819 198.549, 75.766 189.449 C 66.030 178.447, 49.421 172.751, 33.829 175.066 M 33.829 239.066 C 30.710 239.529, 25.219 241.241, 21.626 242.870 C 13.744 246.444, 4.771 254.400, 5.204 257.430 C 5.738 261.166, 9.662 260.567, 14.627 255.990 C 17.111 253.700, 21.699 250.636, 24.822 249.180 C 29.869 246.828, 31.722 246.532, 41.500 246.517 C 51.923 246.501, 52.852 246.672, 59.222 249.788 C 63.802 252.028, 67.277 254.655, 70.122 258.030 C 85.768 276.584, 115.952 278.572, 135.748 262.350 C 140.328 258.598, 141.045 255.672, 137.873 253.685 C 136.605 252.890, 135.264 253.469, 131.803 256.305 C 124.517 262.276, 116.710 265.317, 107.409 265.807 C 93.975 266.516, 83.819 262.549, 75.766 253.449 C 66.030 242.447, 49.421 236.751, 33.829 239.066 " stroke="none" fill="black" fill-rule="evenodd"/>
</svg>