<svg xmlns="http://www.w3.org/2000/svg" width="84" height="324" viewBox="0 0 84 324" version="1.1">
	<path d="M 7.571 223.571 C 6.707 224.436, 6 225.636, 6 226.239 C 6 226.841, 11.941 233.334, 19.202 240.667 L 32.405 254 20.774 254 C 11.534 254, 8.820 254.323, 7.571 255.571 C 5.598 257.545, 5.598 258.455, 7.571 260.429 C 8.936 261.793, 13.463 262, 42 262 C 70.537 262, 75.064 261.793, 76.429 260.429 C 78.402 258.455, 78.402 257.545, 76.429 255.571 C 75.180 254.323, 72.466 254, 63.226 254 L 51.595 254 64.798 240.667 C 72.059 233.334, 78 226.841, 78 226.239 C 78 224.817, 75.176 222, 73.751 222 C 73.143 222, 65.750 228.844, 57.323 237.208 L 42 252.416 26.677 237.208 C 18.250 228.844, 10.857 222, 10.249 222 C 9.640 222, 8.436 222.707, 7.571 223.571 " stroke="none" fill="black" fill-rule="evenodd"/>
</svg>