<svg xmlns="http://www.w3.org/2000/svg" width="84" height="324" viewBox="0 0 84 324" version="1.1">
	<path d="M 23.213 143.315 C 13.746 152.838, 6 161.131, 6 161.743 C 6 163.175, 8.813 166, 10.239 166 C 10.841 166, 17.334 160.059, 24.667 152.798 L 38 139.595 38 199.598 C 38 261.687, 38.020 262, 41.987 262 C 43.757 262, 78 228.013, 78 226.257 C 78 224.825, 75.187 222, 73.761 222 C 73.159 222, 66.666 227.941, 59.333 235.202 L 46 248.405 46 188.402 C 46 126.313, 45.980 126, 42.013 126 C 41.140 126, 32.680 133.792, 23.213 143.315 " stroke="none" fill="black" fill-rule="evenodd"/>
</svg>