<svg xmlns="http://www.w3.org/2000/svg" width="148" height="324" viewBox="0 0 148 324" version="1.1">
	<path d="M 7.571 127.571 C 6.175 128.968, 6 136.406, 6 194.371 C 6 243.771, 6.291 259.891, 7.200 260.800 C 8.607 262.207, 137.589 262.547, 139.792 261.150 C 140.827 260.493, 141.071 247.248, 141.021 194.431 C 140.955 123.627, 141.005 124.321, 136.117 126.938 L 134 128.070 134 191.035 L 134 254 74 254 L 14 254 14 191.571 C 14 136.152, 13.824 128.966, 12.429 127.571 C 11.564 126.707, 10.471 126, 10 126 C 9.529 126, 8.436 126.707, 7.571 127.571 " stroke="none" fill="black" fill-rule="evenodd"/>
</svg>