<svg xmlns="http://www.w3.org/2000/svg" width="116" height="324" viewBox="0 0 116 324" version="1.1">
	<path d="M 96.500 127.046 C 71.814 130.306, 49.500 149.206, 41.614 173.536 C 40.716 176.305, 39.648 181.205, 39.241 184.423 L 38.500 190.274 33.024 191.675 C 17.133 195.738, 6.748 209.106, 6.748 225.500 C 6.748 243.002, 18.530 256.776, 36.302 260.051 C 51.285 262.813, 66.871 254.138, 73.811 239.175 C 77.560 231.093, 77.560 219.907, 73.811 211.825 C 69.069 201.601, 59.158 193.217, 49.750 191.473 C 46.683 190.904, 46 190.351, 46 188.438 C 46 183.289, 48.384 175.074, 52.191 167.101 C 61.243 148.144, 82.731 134, 102.478 134 C 106.575 134, 110 132.179, 110 130 C 110 128.317, 106.820 126.002, 104.679 126.127 C 103.480 126.197, 99.800 126.610, 96.500 127.046 M 39.676 200.806 C 38.805 201.768, 36.835 205.242, 35.297 208.527 C 32.791 213.878, 32.500 215.593, 32.500 225 C 32.500 234.407, 32.791 236.122, 35.297 241.473 C 36.835 244.758, 38.818 248.246, 39.703 249.225 C 41.228 250.909, 41.443 250.812, 43.775 247.381 C 48.563 240.334, 50.249 233.463, 49.756 223 C 49.299 213.280, 47.278 206.712, 43.120 201.425 C 41.357 199.185, 41.173 199.152, 39.676 200.806 M 51 199.353 C 51 199.576, 52.104 202.175, 53.454 205.129 C 59.154 217.607, 59.003 232.420, 53.042 245.567 C 51.438 249.105, 50.459 252, 50.867 252 C 51.275 252, 53.663 250.697, 56.173 249.105 C 64.738 243.673, 69.125 235.601, 69.125 225.270 C 69.125 214.771, 63.364 205.342, 53.987 200.493 C 52.344 199.644, 51 199.131, 51 199.353 M 25.281 202.911 C 10.108 213.902, 10.108 237.098, 25.281 248.089 C 31.522 252.609, 32.312 251.891, 28.967 244.743 C 25.390 237.100, 23.980 227.707, 25.085 218.879 C 25.878 212.539, 28.353 204.560, 30.150 202.550 C 31.242 201.329, 31.242 200, 30.150 200 C 29.683 200, 27.492 201.310, 25.281 202.911 " stroke="none" fill="black" fill-rule="evenodd"/>
</svg>