<svg xmlns="http://www.w3.org/2000/svg" width="148" height="324" viewBox="0 0 148 324" version="1.1">
	<path d="M 71.571 159.571 C 70.707 160.436, 70 161.529, 70 162 C 70 162.471, 70.707 163.564, 71.571 164.429 C 72.436 165.293, 73.529 166, 74 166 C 74.471 166, 75.564 165.293, 76.429 164.429 C 77.293 163.564, 78 162.471, 78 162 C 78 161.529, 77.293 160.436, 76.429 159.571 C 75.564 158.707, 74.471 158, 74 158 C 73.529 158, 72.436 158.707, 71.571 159.571 M 7.579 191.564 C 6.710 192.432, 6 193.529, 6 194 C 6 194.471, 6.710 195.568, 7.579 196.436 C 8.990 197.847, 16.058 197.987, 74.220 197.757 C 134.934 197.517, 139.356 197.383, 140.386 195.750 C 141.191 194.474, 141.191 193.526, 140.386 192.250 C 139.356 190.617, 134.934 190.483, 74.220 190.243 C 16.058 190.013, 8.990 190.153, 7.579 191.564 " stroke="none" fill="black" fill-rule="evenodd"/>
</svg>