<svg xmlns="http://www.w3.org/2000/svg" width="148" height="324" viewBox="0 0 148 324" version="1.1">
	<path d="M 62.500 191.047 C 48.873 193.153, 35.792 198.483, 24.372 206.581 C 17.272 211.616, 6 223.513, 6 225.971 C 6 227.990, 19.578 241.329, 26.256 245.870 C 33.349 250.693, 44.494 255.699, 53.500 258.107 C 64.546 261.060, 82.230 261.061, 93.500 258.108 C 108.821 254.094, 124.158 244.855, 135.750 232.659 C 138.637 229.621, 141 226.603, 141 225.953 C 141 223.792, 131.056 213.255, 123.729 207.652 C 106.615 194.566, 82.333 187.981, 62.500 191.047 M 55 199.984 C 44.527 202.776, 32.741 208.844, 24.500 215.687 L 17.500 221.500 45.179 221.766 C 60.402 221.912, 85.565 221.912, 101.097 221.766 L 129.336 221.500 122.418 215.874 C 113.702 208.785, 106.659 204.856, 96.500 201.416 C 85.407 197.659, 66.207 196.996, 55 199.984 M 20.016 231.519 C 22.740 234.802, 33.855 242.458, 40.500 245.628 C 68.380 258.931, 100.589 254.283, 124.500 233.506 L 128.500 230.030 73.628 230.015 C 24.654 230.002, 18.891 230.163, 20.016 231.519 M 33.244 271.109 C 21.572 273.054, 4.461 284.234, 5.204 289.430 C 5.738 293.166, 9.662 292.567, 14.627 287.990 C 21.254 281.881, 28.827 278.798, 38.591 278.234 C 51.734 277.474, 64.174 282.294, 70.511 290.603 C 75.875 297.636, 88.199 303.874, 99.698 305.376 C 110.849 306.833, 126.271 302.116, 135.748 294.350 C 140.328 290.598, 141.045 287.672, 137.873 285.685 C 136.605 284.890, 135.264 285.469, 131.803 288.305 C 120.616 297.472, 105.185 300.467, 92.040 296.022 C 84.258 293.390, 81.019 291.203, 74.658 284.285 C 68.766 277.876, 58.327 272.483, 49 271.029 C 41.654 269.883, 40.571 269.889, 33.244 271.109 " stroke="none" fill="black" fill-rule="evenodd"/>
</svg>