<svg xmlns="http://www.w3.org/2000/svg" width="148" height="324" viewBox="0 0 148 324" version="1.1">
	<path d="M 39.230 159.285 C 20.953 177.591, 6 193.084, 6 193.713 C 6 195.190, 8.807 198, 10.282 198 C 10.909 198, 24.602 184.848, 40.711 168.773 L 70 139.545 70 196.773 L 70 254 55.571 254 C 43.788 254, 40.855 254.288, 39.571 255.571 C 37.595 257.548, 37.598 258.455, 39.585 260.442 C 40.978 261.835, 45.159 261.995, 74.226 261.763 C 104.452 261.523, 107.377 261.350, 108.386 259.750 C 109.190 258.475, 109.191 257.525, 108.387 256.250 C 107.433 254.736, 105.314 254.463, 92.643 254.223 L 78 253.947 78 196.746 L 78 139.545 107.289 168.773 C 123.398 184.848, 137.033 198, 137.589 198 C 139.187 198, 141 195.769, 141 193.801 C 141 191.592, 76.126 125.935, 73.980 125.973 C 73.144 125.988, 57.506 140.978, 39.230 159.285 " stroke="none" fill="black" fill-rule="evenodd"/>
</svg>