<svg xmlns="http://www.w3.org/2000/svg" width="100" height="324" viewBox="0 0 100 324" version="1.1">
	<path d="M 7.571 127.571 C 6.175 128.968, 6 136.421, 6 194.536 C 6 258.460, 6.044 259.953, 7.960 260.979 C 9.243 261.665, 21.208 261.936, 42.601 261.764 C 72.469 261.523, 75.378 261.349, 76.386 259.750 C 77.191 258.474, 77.191 257.526, 76.386 256.250 C 75.381 254.655, 72.566 254.477, 44.641 254.236 L 14 253.971 14 228.783 L 14 203.595 27.333 216.798 C 34.666 224.059, 41.159 230, 41.761 230 C 43.185 230, 46 227.176, 46 225.747 C 46 225.137, 38.800 217.389, 30 208.530 L 14 192.424 14 160.783 C 14 133.353, 13.791 128.934, 12.429 127.571 C 11.564 126.707, 10.471 126, 10 126 C 9.529 126, 8.436 126.707, 7.571 127.571 M 71.315 207.213 C 61.792 216.680, 54 225.134, 54 226 C 54 227.680, 87.953 262, 89.615 262 C 91.176 262, 93 259.762, 93 257.847 C 93 256.883, 86.427 249.329, 78.394 241.060 L 63.788 226.025 78.394 210.872 C 86.427 202.539, 93 194.973, 93 194.060 C 93 192.224, 91.146 190, 89.615 190 C 89.073 190, 80.838 197.746, 71.315 207.213 " stroke="none" fill="black" fill-rule="evenodd"/>
</svg>