<svg xmlns="http://www.w3.org/2000/svg" width="148" height="324" viewBox="0 0 148 324" version="1.1">
	<path d="M 71.571 127.571 C 70.176 128.966, 70 136.152, 70 191.571 L 70 254 39.571 254 C 13.242 254, 8.931 254.212, 7.571 255.571 C 5.596 257.546, 5.598 258.455, 7.579 260.436 C 8.990 261.847, 16.058 261.987, 74.220 261.757 C 134.934 261.517, 139.356 261.383, 140.386 259.750 C 141.191 258.474, 141.191 257.526, 140.386 256.250 C 139.381 254.655, 136.566 254.477, 108.641 254.236 L 78 253.971 78 191.557 C 78 136.150, 77.824 128.966, 76.429 127.571 C 75.564 126.707, 74.471 126, 74 126 C 73.529 126, 72.436 126.707, 71.571 127.571 " stroke="none" fill="black" fill-rule="evenodd"/>
</svg>