<svg xmlns="http://www.w3.org/2000/svg" width="148" height="324" viewBox="0 0 148 324" version="1.1">
	<path d="M 39.267 223.267 C 20.970 241.563, 6 257.056, 6 257.695 C 6 259.187, 8.799 262, 10.285 262 C 10.913 262, 25.509 247.944, 42.721 230.764 L 74.015 199.527 105.374 230.874 C 131.966 257.456, 137.056 262.117, 138.866 261.543 C 140.040 261.170, 141.017 260.333, 141.038 259.683 C 141.059 259.032, 141.042 243.650, 141.001 225.500 C 140.920 189.993, 140.707 188.481, 136.117 190.938 C 134.038 192.050, 133.999 192.582, 133.969 220.785 L 133.939 249.500 104.515 219.750 C 88.332 203.387, 74.516 190, 73.813 190 C 73.109 190, 57.563 204.970, 39.267 223.267 " stroke="none" fill="black" fill-rule="evenodd"/>
</svg>