<svg xmlns="http://www.w3.org/2000/svg" width="84" height="324" viewBox="0 0 84 324" version="1.1">
	<path d="M 7.571 127.571 C 6.707 128.436, 6 129.657, 6 130.285 C 6 130.913, 20.056 145.509, 37.236 162.721 L 68.473 194.015 37.236 225.264 C 20.056 242.450, 6 257.207, 6 258.056 C 6 261.835, 7.487 262, 41.629 262 C 70.503 262, 75.063 261.794, 76.429 260.429 C 78.402 258.455, 78.402 257.545, 76.429 255.571 C 75.076 254.219, 71.008 254, 47.185 254 L 19.513 254 48.756 224.744 C 64.840 208.653, 78 194.806, 78 193.974 C 78 192.234, 12.020 126, 10.287 126 C 9.658 126, 8.436 126.707, 7.571 127.571 " stroke="none" fill="black" fill-rule="evenodd"/>
</svg>