<svg xmlns="http://www.w3.org/2000/svg" width="84" height="324" viewBox="0 0 84 324" version="1.1">
	<path d="M 7.571 127.571 C 6.206 128.937, 6 133.492, 6 162.315 L 6 195.487 35.244 224.744 L 64.487 254 36.815 254 C 12.992 254, 8.924 254.219, 7.571 255.571 C 5.598 257.545, 5.598 258.455, 7.571 260.429 C 8.937 261.794, 13.497 262, 42.371 262 C 76.531 262, 78 261.837, 78 258.044 C 78 257.188, 63.600 242.094, 46 224.500 L 14 192.512 14 160.827 C 14 133.357, 13.791 128.934, 12.429 127.571 C 11.564 126.707, 10.471 126, 10 126 C 9.529 126, 8.436 126.707, 7.571 127.571 " stroke="none" fill="black" fill-rule="evenodd"/>
</svg>