<svg xmlns="http://www.w3.org/2000/svg" width="180" height="324" viewBox="0 0 180 324" version="1.1">
	<path d="M 103.571 79.571 C 102.707 80.436, 102 81.644, 102 82.257 C 102 84.006, 136.239 118, 138 118 C 139.761 118, 174 84.006, 174 82.257 C 174 80.820, 171.185 78, 169.751 78 C 169.143 78, 161.750 84.844, 153.323 93.208 L 138 108.416 122.677 93.208 C 114.250 84.844, 106.857 78, 106.249 78 C 105.640 78, 104.436 78.707, 103.571 79.571 M 7.571 127.571 C 6.175 128.968, 6 136.372, 6 194 C 6 251.628, 6.175 259.032, 7.571 260.429 C 8.436 261.293, 9.529 262, 10 262 C 10.471 262, 11.564 261.293, 12.429 260.429 C 13.788 259.069, 14 254.758, 14 228.429 L 14 198 74 198 L 134 198 134 228.429 C 134 254.758, 134.212 259.069, 135.571 260.429 C 137.545 262.402, 138.455 262.402, 140.429 260.429 C 141.825 259.032, 142 251.594, 142 193.629 C 142 126.176, 141.990 126, 138.044 126 C 137.188 126, 122.094 140.400, 104.500 158 L 72.512 190 43.256 190 L 14 190 14 159.571 C 14 133.242, 13.788 128.931, 12.429 127.571 C 11.564 126.707, 10.471 126, 10 126 C 9.529 126, 8.436 126.707, 7.571 127.571 M 108.500 165 L 83.515 190 108.758 190 L 134 190 134 165 C 134 151.250, 133.884 140, 133.742 140 C 133.601 140, 122.242 151.250, 108.500 165 " stroke="none" fill="black" fill-rule="evenodd"/>
</svg>