<svg xmlns="http://www.w3.org/2000/svg" width="148" height="324" viewBox="0 0 148 324" version="1.1">
	<path d="M 7.627 63.515 C 6.732 64.411, 6 65.529, 6 66 C 6 68.122, 9.426 70.001, 13.321 70.015 C 31.886 70.080, 53.672 84.320, 62.330 102.046 C 66.109 109.786, 69 119.390, 69 124.210 C 69 126.381, 68.532 127, 66.893 127 C 62.880 127, 52.341 132.906, 48.054 137.558 C 45.726 140.083, 42.624 144.704, 41.160 147.825 L 38.500 153.500 38.500 193.500 L 38.500 233.500 41.160 239.175 C 55.735 270.266, 99.033 266.356, 107.532 233.181 C 109.935 223.802, 109.238 156.679, 106.668 150 C 102.585 139.386, 93.893 131.146, 83.671 128.197 L 77.788 126.500 78.369 120.838 C 81.072 94.529, 107.766 70, 133.694 70 C 138.803 70, 141 68.774, 141 65.922 C 141 62.342, 138.596 61.733, 129.333 62.966 C 109.498 65.605, 92.404 76.085, 81.483 92.301 L 78 97.473 78 81.959 C 78 69.536, 77.690 66.002, 76.443 64.223 C 74.598 61.588, 73.678 61.465, 71.571 63.571 C 70.262 64.881, 69.998 68.092, 69.991 82.821 L 69.981 100.500 67.059 95.406 C 58.886 81.156, 42.370 68.649, 26.483 64.681 C 16.005 62.064, 9.482 61.661, 7.627 63.515 M 63.385 135.617 C 57.552 137.686, 51.605 143.144, 48.588 149.199 L 46 154.393 46.022 193.446 C 46.042 229.082, 46.204 232.850, 47.867 236.500 C 52.282 246.184, 60.295 251.933, 70.521 252.754 C 83.322 253.781, 92.610 248.598, 98.160 237.329 L 101.500 230.548 101.834 198.821 C 102.206 163.578, 101.476 155.495, 97.212 147.627 C 94.430 142.493, 88.497 137.469, 82.684 135.326 C 78.298 133.709, 68.343 133.859, 63.385 135.617 " stroke="none" fill="black" fill-rule="evenodd"/>
</svg>