<svg xmlns="http://www.w3.org/2000/svg" width="196" height="324" viewBox="0 0 196 324" version="1.1">
	<path d="M 63.102 127.162 C 37.816 130.777, 15.183 151.403, 8.414 177 C 6.134 185.626, 6.134 201.374, 8.414 210 C 11.688 222.378, 16.581 230.659, 26.461 240.539 C 40.473 254.551, 54.166 260.304, 73.500 260.304 C 92.176 260.304, 106.938 254.102, 120.584 240.521 C 133.867 227.301, 140 212.448, 140 193.500 C 140 181.435, 138.345 174.289, 133.041 163.450 C 123.603 144.165, 104.156 130.182, 82.398 127.037 C 74.447 125.887, 71.899 125.904, 63.102 127.162 M 57.500 135.870 C 37.436 141.645, 20.733 158.691, 15.585 178.644 C 13.554 186.517, 13.554 200.483, 15.585 208.356 C 20.838 228.716, 38.284 246.162, 58.644 251.415 C 65.760 253.251, 78.565 253.481, 86.201 251.910 C 89.115 251.310, 95.244 249.032, 99.820 246.847 C 113.946 240.103, 125.233 226.972, 130.633 211 C 133.254 203.248, 133.254 183.752, 130.633 176 C 123.849 155.935, 107.081 140.060, 87.897 135.537 C 79.386 133.531, 65.080 133.688, 57.500 135.870 M 39.571 159.571 C 38.707 160.436, 38 161.529, 38 162 C 38 163.111, 40.889 166, 42 166 C 43.111 166, 46 163.111, 46 162 C 46 160.889, 43.111 158, 42 158 C 41.529 158, 40.436 158.707, 39.571 159.571 M 71.571 159.571 C 70.212 160.931, 70 165.242, 70 191.571 L 70 222 55.571 222 C 43.788 222, 40.855 222.288, 39.571 223.571 C 37.595 225.548, 37.598 226.455, 39.585 228.442 C 40.978 229.835, 45.159 229.995, 74.226 229.763 C 104.452 229.523, 107.377 229.350, 108.386 227.750 C 109.190 226.475, 109.191 225.525, 108.387 224.250 C 107.433 222.736, 105.314 222.463, 92.643 222.223 L 78 221.947 78 192.196 C 78 166.887, 77.768 162.113, 76.443 160.223 C 74.598 157.588, 73.678 157.465, 71.571 159.571 M 103.616 159.527 C 102.727 160.416, 102 161.529, 102 162 C 102 163.389, 105.140 166.120, 106.295 165.735 C 108.395 165.035, 109.549 162.094, 108.423 160.310 C 106.905 157.902, 105.474 157.669, 103.616 159.527 M 167.315 175.213 C 157.792 184.680, 150 193.134, 150 194 C 150 195.680, 183.953 230, 185.615 230 C 187.105 230, 189 227.795, 189 226.062 C 189 225.216, 182.143 217.656, 173.762 209.262 L 158.524 194 173.762 178.738 C 182.143 170.344, 189 162.784, 189 161.938 C 189 160.205, 187.105 158, 185.615 158 C 185.073 158, 176.838 165.746, 167.315 175.213 M 119.616 191.527 C 118.727 192.416, 118 193.529, 118 194 C 118 195.389, 121.140 198.120, 122.295 197.735 C 124.395 197.035, 125.549 194.094, 124.423 192.310 C 122.905 189.902, 121.474 189.669, 119.616 191.527 " stroke="none" fill="black" fill-rule="evenodd"/>
</svg>