<svg xmlns="http://www.w3.org/2000/svg" width="180" height="324" viewBox="0 0 180 324" version="1.1">
	<path d="M 34.223 191.062 C 24.045 193.068, 13.996 201.411, 9.216 211.825 C 5.524 219.869, 5.513 231.108, 9.191 239.120 C 14.344 250.347, 22.491 256.812, 35.624 260.093 C 42.730 261.869, 47.631 262, 107.055 262 C 163.724 262, 171.033 261.824, 172.429 260.429 C 174.402 258.455, 174.402 257.545, 172.429 255.571 C 171.039 254.182, 164.610 254, 116.801 254 L 62.745 254 66.802 249.599 C 79.682 235.626, 79.905 215.863, 67.340 201.955 L 63.767 198 117.312 198 C 164.656 198, 171.039 197.818, 172.429 196.429 C 174.402 194.455, 174.402 193.545, 172.429 191.571 C 171.029 190.172, 163.603 190.012, 104.679 190.110 C 68.280 190.170, 36.575 190.598, 34.223 191.062 M 31.054 199.728 C 25.018 201.859, 17.781 209.260, 15.667 215.463 C 9.215 234.399, 22.016 253, 41.500 253 C 49.295 253, 55.452 250.453, 60.952 244.952 C 71.862 234.043, 71.862 216.957, 60.952 206.048 C 53.269 198.364, 41.789 195.938, 31.054 199.728 " stroke="none" fill="black" fill-rule="evenodd"/>
</svg>