<svg xmlns="http://www.w3.org/2000/svg" width="148" height="324" viewBox="0 0 148 324" version="1.1">
	<path d="M 63.102 127.104 C 48.516 129.321, 35.328 136.577, 24.168 148.528 C 13.872 159.552, 8.286 172.223, 6.503 188.598 C 5.964 193.549, 6.150 195.007, 7.491 196.348 C 9.547 198.404, 10.439 198.418, 12.429 196.429 C 13.404 195.453, 14.006 193.082, 14.015 190.179 C 14.091 166.127, 34.559 141.323, 59.103 135.537 C 90.978 128.024, 122.983 147.153, 131.003 178.511 C 132.101 182.806, 133 188.482, 133 191.125 C 133 194.956, 133.418 196.154, 135.064 197.034 C 142.869 201.211, 141.090 178.529, 132.293 161.700 C 126.910 151.401, 115.006 139.654, 104.500 134.271 C 91.374 127.546, 76.799 125.023, 63.102 127.104 M 39.230 223.285 C 20.953 241.591, 6 257.084, 6 257.713 C 6 258.342, 6.707 259.564, 7.571 260.429 C 8.968 261.825, 16.372 262, 74 262 C 132.388 262, 139.018 261.839, 140.473 260.384 C 141.362 259.495, 141.957 258.414, 141.795 257.982 C 141.057 256.013, 75.077 190, 73.848 190 C 73.084 190, 57.506 204.978, 39.230 223.285 M 46.500 227 L 19.514 254 74 254 L 128.486 254 101.500 227 C 86.658 212.150, 74.283 200, 74 200 C 73.717 200, 61.342 212.150, 46.500 227 " stroke="none" fill="black" fill-rule="evenodd"/>
</svg>