<svg xmlns="http://www.w3.org/2000/svg" width="196" height="324" viewBox="0 0 196 324" version="1.1">
	<path d="M 21.882 191.753 C 18.152 194.892, 13.405 202.571, 10.860 209.581 C 7.882 217.786, 7.895 232.061, 10.889 240.419 C 13.229 246.954, 17.324 253.768, 21.908 258.757 L 24.901 262.015 90.091 261.757 C 154.111 261.505, 155.302 261.464, 156.389 259.500 C 156.997 258.400, 158.533 256.035, 159.803 254.244 C 161.072 252.454, 163.548 247.954, 165.305 244.244 C 168.368 237.778, 168.500 236.984, 168.500 225 C 168.500 213.016, 168.368 212.222, 165.305 205.756 C 162.640 200.130, 160.824 197.185, 156.208 191 C 156.002 190.725, 126.297 190.275, 90.196 190 L 24.558 189.500 21.882 191.753 M 22.005 203.250 C 13.176 218.522, 14.167 236.864, 24.557 250.485 L 27.237 254 88.997 254 L 150.756 254 154.432 248.663 C 158.993 242.041, 162 232.644, 162 225.016 C 162 217.663, 158.903 207.547, 155.004 202.165 L 151.987 198 88.514 198 L 25.040 198 22.005 203.250 M 23.579 223.564 C 21.596 225.547, 21.596 226.453, 23.579 228.436 C 24.990 229.847, 32.058 229.987, 90.220 229.757 C 150.934 229.517, 155.356 229.383, 156.386 227.750 C 157.191 226.474, 157.191 225.526, 156.386 224.250 C 155.356 222.617, 150.934 222.483, 90.220 222.243 C 32.058 222.013, 24.990 222.153, 23.579 223.564 " stroke="none" fill="black" fill-rule="evenodd"/>
</svg>