<svg xmlns="http://www.w3.org/2000/svg" width="180" height="324" viewBox="0 0 180 324" version="1.1">
	<path d="M 7.571 127.571 C 6.707 128.436, 6 129.657, 6 130.286 C 6 130.914, 20.400 145.854, 38 163.485 L 70 195.540 70 227.570 C 70 251.149, 70.317 259.917, 71.200 260.800 C 72.919 262.519, 139.081 262.519, 140.800 260.800 C 141.632 259.968, 142 254.756, 142 243.800 L 142 228 144.340 228 C 148.333 228, 158.591 222.168, 162.987 217.398 C 169.574 210.252, 172.389 203.097, 172.389 193.500 C 172.389 183.903, 169.574 176.748, 162.987 169.602 C 158.591 164.832, 148.333 159, 144.340 159 L 142 159 142 144.071 C 142 131.833, 141.717 128.860, 140.429 127.571 C 139.564 126.707, 138.471 126, 138 126 C 137.529 126, 136.436 126.707, 135.571 127.571 C 134.176 128.966, 134 136.152, 134 191.571 L 134 254 106 254 L 78 254 78 191.571 C 78 136.152, 77.824 128.966, 76.429 127.571 C 74.455 125.598, 73.545 125.598, 71.571 127.571 C 70.219 128.924, 70 132.990, 70 156.799 L 70 184.455 40.711 155.227 C 24.602 139.152, 10.909 126, 10.282 126 C 9.656 126, 8.436 126.707, 7.571 127.571 M 142 193.500 L 142 221.135 144.250 220.448 C 152.603 217.897, 158.948 212.697, 162.533 205.467 C 165.287 199.912, 165.287 187.088, 162.533 181.533 C 158.948 174.303, 152.603 169.103, 144.250 166.552 L 142 165.865 142 193.500 " stroke="none" fill="black" fill-rule="evenodd"/>
</svg>