<svg xmlns="http://www.w3.org/2000/svg" width="148" height="324" viewBox="0 0 148 324" version="1.1">
	<path d="M 89.288 173.222 L 42.028 220.444 26.691 205.222 C 18.256 196.850, 10.857 190, 10.249 190 C 8.819 190, 6 192.819, 6 194.249 C 6 194.857, 12.844 202.250, 21.208 210.677 L 36.416 226 21.208 241.323 C 12.844 249.750, 6 257.143, 6 257.751 C 6 258.360, 6.710 259.568, 7.579 260.436 C 8.990 261.847, 16.058 261.987, 74.220 261.757 C 134.934 261.517, 139.356 261.383, 140.386 259.750 C 141.191 258.474, 141.191 257.526, 140.386 256.250 C 139.379 254.652, 136.506 254.477, 107.364 254.236 L 75.446 253.973 61.565 240.065 L 47.684 226.157 94.092 179.101 C 119.616 153.221, 140.650 131.339, 140.833 130.475 C 141.211 128.686, 139.302 126, 137.652 126 C 137.045 126, 115.282 147.250, 89.288 173.222 M 30.500 243 L 19.534 254 42 254 L 64.466 254 53.500 243 C 47.469 236.950, 42.294 232, 42 232 C 41.706 232, 36.531 236.950, 30.500 243 " stroke="none" fill="black" fill-rule="evenodd"/>
</svg>