<svg xmlns="http://www.w3.org/2000/svg" width="116" height="324" viewBox="0 0 116 324" version="1.1">
	<path d="M 96.500 127.046 C 71.814 130.306, 49.500 149.206, 41.614 173.536 C 40.716 176.305, 39.648 181.205, 39.241 184.423 L 38.500 190.274 33.024 191.675 C 7.477 198.206, -1.998 229.327, 15.601 248.901 C 32.592 267.799, 62.883 262.737, 73.811 239.175 C 77.560 231.093, 77.560 219.907, 73.811 211.825 C 69.069 201.601, 59.158 193.217, 49.750 191.473 C 46.683 190.904, 46 190.351, 46 188.438 C 46 183.289, 48.384 175.074, 52.191 167.101 C 61.243 148.144, 82.731 134, 102.478 134 C 106.575 134, 110 132.179, 110 130 C 110 128.317, 106.820 126.002, 104.679 126.127 C 103.480 126.197, 99.800 126.610, 96.500 127.046 M 31.054 199.668 C 25.003 201.886, 17.760 209.321, 15.667 215.463 C 11.990 226.255, 14.381 237.476, 21.976 245.071 C 28.035 251.130, 34.656 253.436, 44.059 252.764 C 58.817 251.708, 69.125 240.496, 69.125 225.500 C 69.125 215.073, 64.257 206.579, 55.261 201.307 C 49.484 197.922, 37.949 197.141, 31.054 199.668 M 36.040 210.598 C 32.250 216.574, 30.879 223.080, 32.073 229.412 C 33.151 235.122, 37.179 242.490, 40.069 244.037 C 42.775 245.485, 46 244.319, 46 241.893 C 46 240.808, 46.981 238.026, 48.180 235.710 C 51.607 229.093, 51.221 220.198, 47.163 212.250 C 44.529 207.093, 43.533 206, 41.464 206 C 39.573 206, 38.238 207.132, 36.040 210.598 M 39.422 220.563 C 38.726 224.272, 39.362 231.695, 40.470 232.804 C 41.735 234.068, 42.970 230.398, 42.985 225.332 C 43.010 216.883, 40.694 213.783, 39.422 220.563 " stroke="none" fill="black" fill-rule="evenodd"/>
</svg>