<svg xmlns="http://www.w3.org/2000/svg" width="148" height="324" viewBox="0 0 148 324" version="1.1">
	<path d="M 7.750 127.080 C 6.111 128.035, 6 132.293, 6 194.015 C 6 258.159, 6.052 259.957, 7.934 260.965 C 10.191 262.172, 137.789 262.422, 139.675 261.222 C 140.544 260.670, 141.025 243.394, 141.524 194.908 C 142.146 134.436, 142.069 129.212, 140.528 127.671 C 139.001 126.144, 133.299 126.003, 74.179 126.030 C 32.111 126.050, 8.888 126.417, 7.750 127.080 M 14 194 L 14 254 74 254 L 134 254 134 226 L 134 198 103.200 198 C 80.578 198, 72.081 197.681, 71.200 196.800 C 70.319 195.919, 70 187.422, 70 164.800 L 70 134 42 134 L 14 134 14 194 M 78 162 L 78 190 106 190 L 134 190 134 162 L 134 134 106 134 L 78 134 78 162 " stroke="none" fill="black" fill-rule="evenodd"/>
</svg>