<svg xmlns="http://www.w3.org/2000/svg" width="276" height="324" viewBox="0 0 276 324" version="1.1">
	<path d="M 136.369 126.765 C 135.748 127.169, 126.859 144.263, 116.616 164.751 L 97.994 202.001 54.035 180.018 C 29.858 167.926, 9.419 158.286, 8.615 158.594 C 6.869 159.264, 5.875 161.512, 6.549 163.268 C 6.817 163.966, 26.786 174.403, 50.925 186.462 L 94.813 208.389 82.423 233.154 C 75.608 246.776, 70.285 258.578, 70.593 259.383 C 71.266 261.135, 73.512 262.124, 75.277 261.447 C 75.980 261.177, 81.942 250.130, 88.527 236.896 C 95.112 223.663, 100.816 212.635, 101.202 212.389 C 101.588 212.143, 110.021 216.005, 119.941 220.971 C 129.862 225.937, 138.177 230, 138.418 230 C 138.660 230, 139.564 229.293, 140.429 228.429 C 141.786 227.071, 142 222.849, 142 197.437 L 142 168.016 149.326 171.641 L 156.652 175.266 178.057 218.115 C 189.831 241.682, 200.034 261.183, 200.732 261.451 C 202.488 262.125, 204.736 261.131, 205.406 259.384 C 205.714 258.581, 197.424 240.843, 186.983 219.967 C 176.543 199.091, 168 181.782, 168 181.503 C 168 181.224, 190.033 192.014, 216.962 205.481 C 243.891 218.948, 266.582 229.714, 267.385 229.406 C 269.129 228.737, 270.125 226.489, 269.453 224.738 C 269.186 224.044, 244.904 211.446, 215.491 196.742 L 162.014 170.009 151.386 148.755 C 141.843 129.670, 139.699 126.031, 138 126.031 C 137.725 126.031, 136.991 126.361, 136.369 126.765 M 121.024 171.952 C 111.975 190.076, 104.781 205.100, 105.036 205.339 C 105.291 205.578, 111.912 208.978, 119.750 212.893 L 134 220.013 134 190.578 C 134 165.152, 134.214 160.929, 135.571 159.571 C 137.567 157.576, 137.041 157.487, 144 161 C 147.269 162.650, 150.179 164, 150.466 164 C 150.754 164, 148.188 158.375, 144.763 151.500 C 141.339 144.625, 138.298 139, 138.006 139 C 137.715 139, 130.072 153.829, 121.024 171.952 " stroke="none" fill="black" fill-rule="evenodd"/>
</svg>