<svg xmlns="http://www.w3.org/2000/svg" width="84" height="324" viewBox="0 0 84 324" version="1.1">
	<path d="M 71.571 191.571 C 70.707 192.436, 70 193.529, 70 194 C 70 194.471, 70.707 195.564, 71.571 196.429 C 72.436 197.293, 73.529 198, 74 198 C 74.471 198, 75.564 197.293, 76.429 196.429 C 77.293 195.564, 78 194.471, 78 194 C 78 193.529, 77.293 192.436, 76.429 191.571 C 75.564 190.707, 74.471 190, 74 190 C 73.529 190, 72.436 190.707, 71.571 191.571 M 7.571 255.571 C 6.707 256.436, 6 257.529, 6 258 C 6 259.111, 8.889 262, 10 262 C 11.111 262, 14 259.111, 14 258 C 14 256.889, 11.111 254, 10 254 C 9.529 254, 8.436 254.707, 7.571 255.571 M 71.571 255.571 C 70.707 256.436, 70 257.529, 70 258 C 70 259.111, 72.889 262, 74 262 C 75.111 262, 78 259.111, 78 258 C 78 256.889, 75.111 254, 74 254 C 73.529 254, 72.436 254.707, 71.571 255.571 " stroke="none" fill="black" fill-rule="evenodd"/>
</svg>