<svg xmlns="http://www.w3.org/2000/svg" width="116" height="324" viewBox="0 0 116 324" version="1.1">
	<path d="M 99.631 130.523 C 87.543 140.370, 76.946 157.701, 73.047 174 C 70.289 185.530, 70.289 201.470, 73.047 213 C 76.954 229.332, 87.543 246.630, 99.691 256.526 C 105.966 261.638, 109.313 262.126, 109.787 258 C 110.014 256.025, 109.007 254.659, 104.993 251.500 C 102.198 249.300, 97.454 244.423, 94.451 240.663 C 76.444 218.113, 72.950 186.526, 85.561 160.306 C 88.712 153.754, 100.190 138.013, 101.831 137.991 C 102.852 137.978, 110 130.993, 110 130.008 C 110 128.901, 107.120 126, 106.020 126 C 105.560 126, 102.685 128.035, 99.631 130.523 M 7.200 128.200 C 5.137 130.263, 5.835 131.616, 11.426 136.392 C 21.187 144.731, 29.308 157.191, 34.004 171.033 C 37.148 180.300, 37.884 198.890, 35.531 209.617 C 32.187 224.869, 22.731 240.949, 11.426 250.608 C 5.878 255.348, 4.850 257.801, 7.495 259.996 C 9.316 261.507, 12.024 259.927, 19.350 253.079 C 32.769 240.538, 42.646 219.641, 44.437 200 C 46.628 175.976, 35.999 149.026, 17.856 132.608 C 11.588 126.936, 9.378 126.022, 7.200 128.200 " stroke="none" fill="black" fill-rule="evenodd"/>
</svg>