<svg xmlns="http://www.w3.org/2000/svg" width="212" height="324" viewBox="0 0 212 324" version="1.1">
	<path d="M 7.571 127.571 C 6.175 128.968, 6 136.372, 6 194 C 6 251.628, 6.175 259.032, 7.571 260.429 C 8.968 261.825, 16.406 262, 74.371 262 C 123.771 262, 139.891 261.709, 140.800 260.800 C 141.681 259.919, 142 251.422, 142 228.800 L 142 198 167.736 198 L 193.472 198 180.236 211.263 C 172.956 218.558, 167 225.218, 167 226.063 C 167 227.796, 168.896 230, 170.385 230 C 172.047 230, 206 195.680, 206 194 C 206 192.320, 172.047 158, 170.385 158 C 168.896 158, 167 160.204, 167 161.937 C 167 162.782, 172.956 169.442, 180.236 176.737 L 193.472 190 167.736 190 L 142 190 142 159.200 C 142 136.578, 141.681 128.081, 140.800 127.200 C 139.891 126.291, 123.771 126, 74.371 126 C 16.406 126, 8.968 126.175, 7.571 127.571 M 14 147.500 C 14 154.925, 14.149 161, 14.332 161 C 14.514 161, 16.081 158.812, 17.814 156.138 C 21.411 150.586, 33.486 138.835, 37.981 136.510 C 39.642 135.651, 41 134.735, 41 134.474 C 41 134.213, 34.925 134, 27.500 134 L 14 134 14 147.500 M 58.645 135.584 C 38.671 140.419, 20.279 158.986, 15.537 179.103 C 10.672 199.742, 16.569 220.600, 31.484 235.516 C 46.400 250.431, 67.258 256.328, 87.897 251.463 C 108.290 246.655, 126.093 229.099, 131.457 208.505 C 133.437 200.904, 133.437 186.096, 131.457 178.495 C 126.093 157.901, 108.290 140.345, 87.897 135.537 C 79.998 133.676, 66.439 133.697, 58.645 135.584 M 107.395 135.309 C 116.182 140.830, 125.691 150.235, 130.844 158.500 L 133.962 163.500 133.981 148.750 L 134 134 119.750 134.059 C 108.314 134.106, 105.874 134.353, 107.395 135.309 M 65.384 159.412 C 39.768 165.628, 29.973 197.294, 47.601 216.901 C 55.556 225.750, 68.237 230.188, 79.365 228.019 C 91.282 225.697, 100.642 218.320, 105.811 207.175 C 109.644 198.913, 109.554 187.975, 105.583 179.266 C 100.889 168.970, 91.498 161.518, 80.201 159.123 C 73.812 157.769, 72.008 157.804, 65.384 159.412 M 64.453 167.326 C 52.177 172.056, 45.331 182.563, 46.195 195.349 C 47.162 209.654, 57.349 219.839, 71.659 220.805 C 79.400 221.328, 86.290 219.156, 91.771 214.464 C 104.223 203.805, 104.235 183.205, 91.795 172.557 C 89.580 170.660, 85.714 168.409, 83.205 167.554 C 77.906 165.749, 68.834 165.638, 64.453 167.326 M 71.571 191.571 C 70.707 192.436, 70 193.529, 70 194 C 70 194.471, 70.707 195.564, 71.571 196.429 C 72.436 197.293, 73.529 198, 74 198 C 74.471 198, 75.564 197.293, 76.429 196.429 C 77.293 195.564, 78 194.471, 78 194 C 78 193.529, 77.293 192.436, 76.429 191.571 C 75.564 190.707, 74.471 190, 74 190 C 73.529 190, 72.436 190.707, 71.571 191.571 M 130.016 229.574 C 125.497 236.770, 117.268 245.015, 109.610 250.018 L 103.517 254 118.758 254 L 134 254 134 239 C 134 230.750, 133.887 224.006, 133.750 224.013 C 133.613 224.020, 131.932 226.522, 130.016 229.574 M 14 240 L 14 254 28.739 254 L 43.479 254 36.989 249.646 C 30.044 244.986, 19.019 233.871, 16.489 228.980 C 15.642 227.341, 14.735 226, 14.474 226 C 14.213 226, 14 232.300, 14 240 " stroke="none" fill="black" fill-rule="evenodd"/>
</svg>