<svg xmlns="http://www.w3.org/2000/svg" width="148" height="324" viewBox="0 0 148 324" version="1.1">
	<path d="M 7.571 127.571 C 6.707 128.436, 6 129.657, 6 130.285 C 6 130.913, 20.053 145.506, 37.229 162.713 L 68.458 194 37.229 225.287 C 20.053 242.494, 6 257.087, 6 257.715 C 6 259.201, 8.813 262, 10.305 262 C 12.018 262, 78 195.721, 78 194 C 78 192.279, 12.018 126, 10.305 126 C 9.666 126, 8.436 126.707, 7.571 127.571 M 71.571 127.571 C 70.707 128.436, 70 129.657, 70 130.285 C 70 130.913, 84.053 145.506, 101.229 162.713 L 132.458 194 101.229 225.287 C 84.053 242.494, 70 257.087, 70 257.715 C 70 259.045, 72.752 262, 73.991 262 C 75.142 262, 141.500 195.168, 141.500 194.008 C 141.500 192.823, 75.204 126, 74.029 126 C 73.542 126, 72.436 126.707, 71.571 127.571 " stroke="none" fill="black" fill-rule="evenodd"/>
</svg>