<svg xmlns="http://www.w3.org/2000/svg" width="148" height="324" viewBox="0 0 148 324" version="1.1">
	<path d="M 7.571 127.571 C 6.175 128.968, 6 136.372, 6 194 C 6 251.628, 6.175 259.032, 7.571 260.429 C 8.968 261.825, 16.343 261.998, 73.821 261.985 C 109.395 261.976, 139.081 261.601, 139.792 261.150 C 140.827 260.493, 141.071 247.248, 141.021 194.431 C 140.955 123.627, 141.005 124.321, 136.117 126.938 L 134 128.070 134 191.035 L 134 254 74 254 L 14 254 14 191.571 C 14 136.152, 13.824 128.966, 12.429 127.571 C 11.564 126.707, 10.471 126, 10 126 C 9.529 126, 8.436 126.707, 7.571 127.571 M 68.764 158.996 C 63.184 160.676, 59.145 164.067, 56.571 169.234 C 55.157 172.071, 54 175.397, 54 176.625 C 54 178.839, 56.353 182, 58 182 C 59.861 182, 62 178.700, 62 175.829 C 62 173.718, 63.030 171.770, 65.400 169.400 C 68.231 166.569, 69.533 166, 73.177 166 C 75.585 166, 78.558 166.702, 79.783 167.561 C 82.592 169.528, 85 174.116, 85 177.500 C 85 183.016, 79.978 189, 75.349 189 C 71.028 189, 70 191.403, 70 201.500 C 70 208.673, 70.367 211.224, 71.571 212.429 C 72.436 213.293, 73.529 214, 74 214 C 76.696 214, 78 210.576, 78 203.496 C 78 196.935, 78.225 196.064, 80.066 195.479 C 83.091 194.519, 88.861 189.169, 90.694 185.625 C 91.569 183.932, 92.286 180.276, 92.286 177.500 C 92.286 171.499, 90.366 167.406, 85.578 163.203 C 80.492 158.737, 74.556 157.252, 68.764 158.996 M 71.571 222.571 C 70.707 223.436, 70 224.529, 70 225 C 70 225.471, 70.707 226.564, 71.571 227.429 C 72.436 228.293, 73.529 229, 74 229 C 74.471 229, 75.564 228.293, 76.429 227.429 C 77.293 226.564, 78 225.471, 78 225 C 78 224.529, 77.293 223.436, 76.429 222.571 C 75.564 221.707, 74.471 221, 74 221 C 73.529 221, 72.436 221.707, 71.571 222.571 " stroke="none" fill="black" fill-rule="evenodd"/>
</svg>