<svg xmlns="http://www.w3.org/2000/svg" width="148" height="324" viewBox="0 0 148 324" version="1.1">
	<path d="M 98.344 127 C 88.040 129.141, 77.934 137.358, 73.417 147.266 C 71.056 152.443, 70.568 154.876, 70.537 161.620 C 70.503 169.080, 70.806 170.336, 74.268 177.084 L 78.036 184.428 42.018 220.496 C 22.208 240.333, 6 257.080, 6 257.710 C 6 259.199, 8.806 261.995, 10.321 262.017 C 10.970 262.026, 27.769 245.683, 47.654 225.700 L 83.809 189.366 87.892 191.777 C 93.057 194.827, 105.698 198.039, 108.451 197.002 C 109.578 196.577, 113.029 195.498, 116.119 194.605 C 131.944 190.030, 143.179 171.853, 139.921 156.096 C 136.450 139.308, 124.472 128.272, 107.982 126.669 C 104.967 126.376, 100.630 126.525, 98.344 127 M 95.627 135.468 C 87.862 138.236, 79.901 147.144, 78.394 154.750 L 77.750 158 89.875 158 L 102 158 102 146 C 102 132.823, 102.186 133.130, 95.627 135.468 M 109 145.892 L 109 158 121.019 158 L 133.038 158 132.392 155.250 C 130.033 145.214, 121.775 136.990, 111.456 134.400 L 109 133.783 109 145.892 M 78.022 167.250 C 78.061 169.484, 81.623 176.419, 84.451 179.770 C 87.673 183.587, 94.124 187.517, 98.750 188.481 L 102 189.159 102 177.579 L 102 166 90 166 C 81.055 166, 78.006 166.318, 78.022 167.250 M 109 177.500 C 109 183.825, 109.383 189, 109.851 189 C 111.988 189, 117.879 186.425, 121.727 183.809 C 126.035 180.881, 130.385 174.630, 131.976 169.084 L 132.860 166 120.930 166 L 109 166 109 177.500 " stroke="none" fill="black" fill-rule="evenodd"/>
</svg>