<svg xmlns="http://www.w3.org/2000/svg" width="212" height="324" viewBox="0 0 212 324" version="1.1">
	<path d="M 168.200 159.200 C 167.540 159.860, 167 161.091, 167 161.937 C 167 162.782, 172.956 169.442, 180.236 176.737 L 193.472 190 133.308 190 C 79.946 190, 72.965 190.178, 71.571 191.571 C 69.598 193.545, 69.598 194.455, 71.571 196.429 C 72.965 197.822, 79.946 198, 133.308 198 L 193.472 198 180.236 211.263 C 172.956 218.558, 167 225.218, 167 226.063 C 167 227.796, 168.896 230, 170.385 230 C 172.047 230, 206 195.680, 206 194 C 206 192.320, 172.047 158, 170.385 158 C 169.843 158, 168.860 158.540, 168.200 159.200 M 103.571 223.571 C 102.707 224.436, 102 225.636, 102 226.239 C 102 226.841, 107.941 233.334, 115.202 240.667 L 128.405 254 68.774 254 C 15.897 254, 8.965 254.178, 7.571 255.571 C 5.598 257.545, 5.598 258.455, 7.571 260.429 C 8.965 261.822, 15.897 262, 68.774 262 L 128.405 262 115.202 275.333 C 107.941 282.666, 102 289.159, 102 289.761 C 102 291.187, 104.825 294, 106.257 294 C 108.006 294, 142 259.761, 142 258 C 142 256.239, 108.006 222, 106.257 222 C 105.644 222, 104.436 222.707, 103.571 223.571 " stroke="none" fill="black" fill-rule="evenodd"/>
</svg>