<svg xmlns="http://www.w3.org/2000/svg" width="84" height="324" viewBox="0 0 84 324" version="1.1">
	<path d="M 4.364 187.169 C 1.209 188.698, -0.217 192.430, 1.182 195.500 C 1.808 196.875, 2.671 198, 3.099 198 C 3.527 198, 3.792 199.174, 3.688 200.609 C 3.479 203.504, 5.865 205.650, 8.266 204.728 C 9.113 204.403, 10.750 201.612, 11.905 198.524 C 13.840 193.353, 13.885 192.678, 12.477 189.955 C 11.636 188.330, 10.547 187, 10.056 187 C 9.565 187, 8.564 186.805, 7.832 186.567 C 7.099 186.329, 5.539 186.600, 4.364 187.169 M 35.364 187.169 C 32.247 188.679, 30.706 192.571, 32.141 195.307 C 32.774 196.513, 33.859 197.836, 34.553 198.248 C 35.247 198.659, 35.578 199.899, 35.289 201.003 C 34.702 203.247, 36.526 206, 38.599 206 C 40.473 206, 43.026 201.829, 44.113 196.992 C 44.806 193.907, 44.657 192.237, 43.486 189.972 C 42.640 188.337, 41.547 187, 41.056 187 C 40.565 187, 39.564 186.805, 38.832 186.567 C 38.099 186.329, 36.539 186.600, 35.364 187.169 " stroke="none" fill="black" fill-rule="evenodd"/>
</svg>