<svg xmlns="http://www.w3.org/2000/svg" width="180" height="324" viewBox="0 0 180 324" version="1.1">
	<path d="M 95.870 191.071 C 82.513 193.033, 69.928 199.237, 59.599 208.951 C 52.926 215.227, 45.173 226.417, 43.058 232.825 C 41.415 237.802, 40.345 238.517, 33.361 239.302 C 22.435 240.530, 4.444 252.113, 5.204 257.430 C 5.738 261.166, 9.662 260.567, 14.627 255.990 C 19.789 251.231, 28.128 247.218, 34.737 246.312 L 39.266 245.692 38.568 252.209 C 37.996 257.554, 38.165 259.022, 39.506 260.364 C 41.388 262.245, 41.936 262.326, 44 261.022 C 44.997 260.393, 45.668 257.800, 46 253.288 L 46.500 246.500 49.911 246.776 C 55.929 247.262, 65.568 252.629, 70.122 258.030 C 85.973 276.828, 117.410 278.627, 136.540 261.831 C 140.501 258.353, 141.161 254.503, 137.970 253.490 C 136.520 253.030, 134.888 253.769, 132.267 256.070 C 130.247 257.844, 125.648 260.691, 122.047 262.397 C 116.017 265.255, 114.670 265.500, 105 265.500 C 95.344 265.500, 93.977 265.252, 88 262.418 C 83.607 260.335, 79.555 257.310, 75.500 253.086 C 69.452 246.786, 59.620 241.048, 52.250 239.516 C 50.462 239.145, 49 238.380, 49 237.817 C 49 237.253, 50.669 233.577, 52.709 229.646 C 61.947 211.849, 83.440 198, 101.823 198 C 106.568 198, 110 196.321, 110 194 C 110 193.529, 109.293 192.436, 108.429 191.571 C 106.733 189.875, 104.589 189.790, 95.870 191.071 M 159.870 191.071 C 133.601 194.930, 111.011 215.254, 104.598 240.798 C 102.034 251.014, 101.611 258.468, 103.491 260.348 C 106.992 263.850, 110 260.834, 110 253.823 C 110 226.185, 138.185 198, 165.823 198 C 170.568 198, 174 196.321, 174 194 C 174 193.529, 173.293 192.436, 172.429 191.571 C 170.733 189.875, 168.589 189.790, 159.870 191.071 " stroke="none" fill="black" fill-rule="evenodd"/>
</svg>