<svg xmlns="http://www.w3.org/2000/svg" width="276" height="324" viewBox="0 0 276 324" version="1.1">
	<path d="M 168.515 158 L 136.460 190 72.801 190 C 16.263 190, 8.967 190.176, 7.571 191.571 C 5.598 193.545, 5.598 194.455, 7.571 196.429 C 8.844 197.701, 11.697 198, 22.575 198 L 36.006 198 21.020 227.961 C 12.777 244.439, 6.285 258.580, 6.594 259.384 C 7.265 261.133, 9.512 262.125, 11.274 261.448 C 11.975 261.180, 19.056 247.919, 27.010 231.980 C 34.964 216.041, 41.710 203, 42 203 C 42.290 203, 49.036 216.041, 56.990 231.980 C 64.944 247.919, 72.025 261.180, 72.726 261.448 C 73.427 261.717, 74.573 261.717, 75.274 261.448 C 75.975 261.180, 83.056 247.919, 91.010 231.980 C 98.964 216.041, 105.710 203, 106 203 C 106.290 203, 113.036 216.041, 120.990 231.980 C 128.944 247.919, 136.025 261.180, 136.726 261.448 C 138.488 262.125, 140.735 261.133, 141.406 259.384 C 141.715 258.580, 135.223 244.439, 126.980 227.961 L 111.994 198 125.710 198 L 139.427 198 170.703 166.782 L 201.979 135.563 217.440 150.908 C 229.625 163.003, 233.281 166.097, 234.700 165.518 C 235.690 165.114, 238.816 164.227, 241.647 163.547 C 255.743 160.160, 266.035 148.515, 268.361 133.322 C 268.981 129.270, 267.480 126, 265 126 C 263.208 126, 261 129.253, 261 131.893 C 261 141.055, 252.685 152.216, 243.537 155.333 C 240.846 156.250, 237.729 157, 236.611 157 C 235.326 157, 228.835 151.297, 218.969 141.500 C 210.383 132.975, 202.732 126, 201.965 126 C 201.198 126, 186.146 140.400, 168.515 158 M 60.743 223.500 C 67.750 237.525, 73.715 249, 74 249 C 74.285 249, 80.250 237.525, 87.257 223.500 L 99.995 198 74 198 L 48.005 198 60.743 223.500 " stroke="none" fill="black" fill-rule="evenodd"/>
</svg>