<svg xmlns="http://www.w3.org/2000/svg" width="276" height="324" viewBox="0 0 276 324" version="1.1">
	<path d="M 7.571 191.571 C 6.707 192.436, 6 193.666, 6 194.305 C 6 194.944, 20.970 210.437, 39.267 228.733 L 72.533 262 138 262 L 203.467 262 236.733 228.733 C 255.030 210.437, 270 194.944, 270 194.305 C 270 192.812, 267.200 190, 265.714 190 C 265.086 190, 250.146 204.400, 232.515 222 L 200.460 254 171.230 254 C 142.913 254, 142 253.939, 142 252.049 C 142 247.288, 144.488 238.855, 148.165 231.154 C 157.269 212.088, 178.648 198, 198.478 198 C 201.126 198, 203.478 197.379, 204.429 196.429 C 206.422 194.435, 206.404 193.547, 204.330 191.473 C 201.098 188.241, 183.767 191.494, 171.194 197.692 C 158.212 204.092, 143.844 219.650, 139.335 232.190 L 137.609 236.989 135.398 231.555 C 132.023 223.259, 126.582 215.741, 118.472 208.168 C 107.559 197.976, 95.100 192.356, 79.402 190.543 C 74.418 189.968, 73.002 190.141, 71.652 191.491 C 70.743 192.399, 70 193.529, 70 194 C 70 196.122, 73.426 198.001, 77.321 198.015 C 96.426 198.082, 117.897 212.438, 126.809 231.101 C 130.508 238.848, 133 247.279, 133 252.049 C 133 253.938, 132.092 254, 104.270 254 L 75.540 254 43.485 222 C 25.854 204.400, 10.914 190, 10.286 190 C 9.657 190, 8.436 190.707, 7.571 191.571 " stroke="none" fill="black" fill-rule="evenodd"/>
</svg>