<svg xmlns="http://www.w3.org/2000/svg" width="212" height="324" viewBox="0 0 212 324" version="1.1">
	<path d="M 103.588 223.266 C 39.400 287.030, 5.845 321.041, 6.166 322.015 C 6.443 322.858, 8.134 323.622, 10.077 323.782 C 13.347 324.052, 14.881 322.682, 44.494 293.032 L 75.488 262 107.544 262 C 131.143 262, 139.917 261.683, 140.800 260.800 C 141.681 259.919, 142 251.422, 142 228.800 L 142 198 172.800 198 C 195.422 198, 203.919 197.681, 204.800 196.800 C 205.686 195.914, 206 186.800, 206 162 C 206 128.376, 205.772 125.999, 202.550 126.001 C 201.972 126.001, 157.440 169.770, 103.588 223.266 M 173 164.500 L 147.515 190 173.257 190 L 199 190 199 164.500 C 199 150.475, 198.884 139, 198.743 139 C 198.601 139, 187.017 150.475, 173 164.500 M 108.500 229 L 83.515 254 108.758 254 L 134 254 134 229 C 134 215.250, 133.884 204, 133.742 204 C 133.601 204, 122.242 215.250, 108.500 229 " stroke="none" fill="black" fill-rule="evenodd"/>
</svg>