<svg xmlns="http://www.w3.org/2000/svg" width="148" height="324" viewBox="0 0 148 324" version="1.1">
	<path d="M 7.579 255.564 C 6.710 256.432, 6 257.529, 6 258 C 6 258.471, 6.710 259.568, 7.579 260.436 C 8.990 261.847, 16.058 261.987, 74.220 261.757 C 134.934 261.517, 139.356 261.383, 140.386 259.750 C 141.191 258.474, 141.191 257.526, 140.386 256.250 C 139.356 254.617, 134.934 254.483, 74.220 254.243 C 16.058 254.013, 8.990 254.153, 7.579 255.564 M 39.571 287.571 C 38.707 288.436, 38 289.529, 38 290 C 38 291.111, 40.889 294, 42 294 C 43.111 294, 46 291.111, 46 290 C 46 288.889, 43.111 286, 42 286 C 41.529 286, 40.436 286.707, 39.571 287.571 M 103.750 287.080 C 100.020 289.252, 103.345 294.956, 107.428 293.389 C 109.505 292.592, 109.498 287.405, 107.418 286.607 C 105.527 285.881, 105.888 285.835, 103.750 287.080 " stroke="none" fill="black" fill-rule="evenodd"/>
</svg>