<svg xmlns="http://www.w3.org/2000/svg" width="148" height="324" viewBox="0 0 148 324" version="1.1">
	<path d="M 7.200 127.200 C 6.291 128.109, 6 144.229, 6 193.629 C 6 251.594, 6.175 259.032, 7.571 260.429 C 8.436 261.293, 9.529 262, 10 262 C 10.471 262, 11.564 261.293, 12.429 260.429 C 13.788 259.069, 14 254.758, 14 228.429 L 14 198 74 198 L 134 198 134 228.965 C 134 259.771, 134.011 259.936, 136.183 261.098 C 138.042 262.093, 138.636 261.933, 140.183 260.022 C 141.897 257.906, 142 254.129, 142 193.461 C 142 136.323, 141.825 128.967, 140.429 127.571 C 139.032 126.175, 131.594 126, 73.629 126 C 24.229 126, 8.109 126.291, 7.200 127.200 M 14 162 L 14 190 74 190 L 134 190 134 162 L 134 134 74 134 L 14 134 14 162 " stroke="none" fill="black" fill-rule="evenodd"/>
</svg>