<svg xmlns="http://www.w3.org/2000/svg" width="212" height="324" viewBox="0 0 212 324" version="1.1">
	<path d="M 136.040 79.452 C 135.377 80.251, 134.985 81.591, 135.167 82.430 C 135.582 84.335, 168.972 118, 170.446 118 C 172.241 118, 206 83.605, 206 81.775 C 206 80.837, 205.040 79.557, 203.868 78.929 C 201.921 77.887, 200.376 79.144, 186.118 93.376 L 170.500 108.963 154.936 93.482 C 146.376 84.967, 138.893 78, 138.308 78 C 137.723 78, 136.703 78.653, 136.040 79.452 M 33.608 132.122 C 21.806 142.937, 13.219 157.313, 8.894 173.500 C 5.908 184.677, 5.908 202.323, 8.894 213.500 C 13.261 229.844, 21.574 243.687, 33.980 255.274 L 41.181 262 106.058 262 L 170.934 262 178.700 253.920 C 188.130 244.107, 192.093 238.673, 196.507 229.500 C 208.453 204.674, 207.431 176.515, 193.694 152.021 C 191.048 147.302, 186.178 141.120, 180.500 135.270 L 171.500 125.998 105.895 125.999 L 40.289 126 33.608 132.122 M 35.434 140.604 C 27.653 148.501, 20.929 159.572, 17.276 170.500 C 14.851 177.753, 14.601 179.900, 14.601 193.500 C 14.601 207.100, 14.851 209.247, 17.276 216.500 C 21.026 227.719, 27.821 238.752, 36.045 246.976 L 43.069 254 105.426 254 L 167.784 254 172.935 249.368 C 182.785 240.512, 191.595 225.729, 195.119 212.144 C 197.827 201.702, 197.828 185.302, 195.121 174.864 C 191.603 161.304, 182.829 146.498, 173.099 137.709 L 168.994 134 105.468 134 L 41.941 134 35.434 140.604 " stroke="none" fill="black" fill-rule="evenodd"/>
</svg>