<svg xmlns="http://www.w3.org/2000/svg" width="148" height="324" viewBox="0 0 148 324" version="1.1">
	<path d="M 7.571 127.571 C 6.707 128.436, 6 129.529, 6 130 C 6 130.471, 6.707 131.564, 7.571 132.429 C 8.931 133.788, 13.242 134, 39.571 134 L 70 134 70 158.583 C 70 172.104, 69.662 182.996, 69.250 182.788 C 53.583 174.888, 45.367 173.083, 33.889 175.019 C 21.070 177.181, 4.398 187.718, 5.170 193.170 C 5.705 196.948, 9.607 196.766, 13.870 192.764 C 18.715 188.216, 22.106 186.200, 28.756 183.912 C 40.111 180.005, 55.582 182.380, 65.250 189.514 L 70 193.019 70 220.712 L 70 248.405 56.667 235.202 C 49.334 227.941, 42.841 222, 42.239 222 C 40.822 222, 38 224.822, 38 226.239 C 38 226.841, 43.941 233.334, 51.202 240.667 L 64.405 254 36.774 254 C 12.988 254, 8.924 254.219, 7.571 255.571 C 5.598 257.545, 5.598 258.455, 7.571 260.429 C 8.968 261.825, 16.343 261.998, 73.821 261.985 C 109.395 261.976, 139.072 261.606, 139.772 261.162 C 141.639 259.977, 141.639 128.023, 139.772 126.838 C 139.072 126.394, 109.395 126.024, 73.821 126.015 C 16.343 126.002, 8.968 126.175, 7.571 127.571 M 78 162.929 C 78 196.066, 77.226 193.314, 87.983 198.412 C 93.979 201.253, 95.340 201.500, 105 201.500 C 114.297 201.500, 116.155 201.193, 121.213 198.822 C 124.355 197.350, 128.517 194.875, 130.463 193.322 L 134 190.500 134 162.250 L 134 134 106 134 L 78 134 78 162.929 M 129.835 202.520 C 116.642 211.166, 97.387 211.695, 81.750 203.843 L 78 201.959 78 225.182 L 78 248.405 91.333 235.202 C 98.666 227.941, 105.101 222, 105.633 222 C 107.242 222, 109 224.279, 109 226.364 C 109 227.539, 103.899 233.484, 96.299 241.164 L 83.599 254 108.799 254 L 134 254 134 227 C 134 212.150, 133.887 200.026, 133.750 200.059 C 133.613 200.091, 131.851 201.199, 129.835 202.520 " stroke="none" fill="black" fill-rule="evenodd"/>
</svg>