<svg xmlns="http://www.w3.org/2000/svg" width="148" height="324" viewBox="0 0 148 324" version="1.1">
	<path d="M 33.655 175.088 C 25.702 176.263, 14.462 181.879, 9.134 187.339 L 4.767 191.813 5.837 196.656 C 6.426 199.320, 7.421 204.200, 8.048 207.500 C 12.541 231.136, 32.568 252.022, 57 258.554 C 64.803 260.639, 80.150 260.901, 88 259.082 C 91.025 258.381, 97.745 255.776, 102.933 253.292 C 120.497 244.886, 134.277 227.627, 138.469 208.785 C 140.468 199.797, 140.198 191.144, 137.873 189.686 C 136.604 188.890, 135.265 189.468, 131.803 192.305 C 124.517 198.276, 116.710 201.317, 107.409 201.807 C 93.975 202.516, 83.819 198.549, 75.766 189.449 C 65.986 178.397, 49.441 172.755, 33.655 175.088 M 28 183.982 C 24.975 185.094, 20.700 187.259, 18.500 188.793 C 14.902 191.301, 14.469 192.061, 14.193 196.356 C 13.735 203.454, 15.671 211.107, 20.248 220.294 C 27.803 235.460, 42.269 247.165, 58.731 251.430 C 66.366 253.409, 79.578 253.423, 87.897 251.463 C 108.525 246.600, 126.655 228.210, 131.381 207.353 L 132.775 201.206 125.637 204.582 C 106.113 213.818, 83.123 209.448, 70.122 194.030 C 67.241 190.613, 63.859 188.071, 59.222 185.838 C 53.357 183.012, 51.288 182.559, 43 182.280 C 35.378 182.023, 32.412 182.360, 28 183.982 " stroke="none" fill="black" fill-rule="evenodd"/>
</svg>