<svg xmlns="http://www.w3.org/2000/svg" width="212" height="324" viewBox="0 0 212 324" version="1.1">
	<path d="M 171.065 220.435 L 140.641 250.871 138.490 245.578 C 134.518 235.805, 128.511 229.497, 119.053 225.167 C 111.627 221.767, 101.154 221.712, 92.507 225.027 C 84.374 228.146, 76.134 236.353, 73.163 244.295 C 71.973 247.474, 71 250.958, 71 252.038 C 71 253.945, 70.136 254, 40.071 254 C 13.288 254, 8.932 254.211, 7.571 255.571 C 5.598 257.545, 5.598 258.455, 7.571 260.429 C 8.968 261.825, 16.402 262, 74.327 262 L 139.511 262 172.756 228.744 C 191.040 210.454, 206 194.720, 206 193.780 C 206 192.410, 203.328 190, 201.810 190 C 201.633 190, 187.797 203.696, 171.065 220.435 M 93.146 233.085 C 89.750 234.782, 85.876 237.607, 84.536 239.363 C 81.907 242.811, 78.058 250.721, 78.022 252.750 C 78.005 253.720, 84.155 254, 105.500 254 C 136.853 254, 135.105 254.618, 130.412 245.199 C 123.519 231.367, 107.200 226.062, 93.146 233.085 " stroke="none" fill="black" fill-rule="evenodd"/>
</svg>