<svg xmlns="http://www.w3.org/2000/svg" width="212" height="324" viewBox="0 0 212 324" version="1.1">
	<path d="M 35.045 191.092 C 19.913 194.059, 8.746 206.301, 6.666 222.204 C 6.069 226.769, 7.451 230, 10 230 C 11.912 230, 14 226.663, 14 223.607 C 14 213.949, 22.088 202.862, 31.463 199.667 C 41.362 196.294, 52.360 198.192, 59.795 204.557 C 64.301 208.413, 69 216.917, 69 221.215 C 69 224.686, 72.581 238.291, 74.437 241.873 C 77.104 247.018, 84.151 253.927, 89.286 256.430 C 106.625 264.883, 126.300 259.290, 135.710 243.232 C 138.584 238.328, 141.926 227.214, 141.971 222.410 C 142.012 218.023, 147.585 207.418, 151.363 204.536 C 157.203 200.083, 163.055 198.044, 170 198.044 C 184.424 198.044, 195.259 207.968, 197.431 223.168 C 198.159 228.265, 199.840 230.383, 202.382 229.407 C 208.399 227.098, 202.831 208.708, 193.515 200.120 C 186.380 193.544, 179.351 190.732, 170.123 190.761 C 159.684 190.795, 152.515 193.600, 145.647 200.339 C 138.060 207.785, 136.196 212.154, 133.014 229.951 C 131.191 240.145, 122.958 249.588, 113.724 252.074 C 103.339 254.871, 90.732 251.170, 84.426 243.474 C 80.638 238.852, 79.213 235.571, 77.923 228.500 C 75.019 212.578, 73.371 208.527, 66.967 201.580 C 62.009 196.201, 55.105 192.467, 47.566 191.087 C 40.965 189.878, 41.242 189.878, 35.045 191.092 " stroke="none" fill="black" fill-rule="evenodd"/>
</svg>