<svg xmlns="http://www.w3.org/2000/svg" width="148" height="324" viewBox="0 0 148 324" version="1.1">
	<path d="M 71.571 127.571 C 70.220 128.922, 70 132.932, 70 156.155 C 70 171.011, 69.662 182.996, 69.250 182.788 C 53.760 174.977, 45.799 173.198, 34.434 175.007 C 21.573 177.054, 4.402 187.776, 5.183 193.271 C 5.738 197.173, 9.568 196.653, 14.627 191.990 C 27.871 179.782, 50.585 178.668, 65.250 189.508 L 70 193.019 70 220.655 L 70 248.290 64.560 243.145 C 61.568 240.315, 58.675 238, 58.131 238 C 56.829 238, 54 240.861, 54 242.178 C 54 242.747, 57.226 246.540, 61.169 250.607 L 68.338 258 61.169 265.393 C 57.226 269.460, 54 273.253, 54 273.822 C 54 275.139, 56.829 278, 58.131 278 C 58.675 278, 61.568 275.685, 64.560 272.855 L 70 267.710 70 279.284 C 70 288.472, 70.324 291.181, 71.571 292.429 C 73.678 294.535, 74.598 294.412, 76.443 291.777 C 77.622 290.095, 78 286.900, 78 278.632 L 78 267.710 83.440 272.855 C 89.246 278.346, 89.931 278.669, 91.800 276.800 C 94.157 274.443, 92.906 271.708, 86.372 264.940 L 79.744 258.074 86.372 250.916 C 92.993 243.764, 94.060 241.460, 91.800 239.200 C 89.931 237.331, 89.246 237.654, 83.440 243.145 L 78 248.290 78 225.125 L 78 201.959 81.750 203.843 C 98.079 212.043, 116.922 211.133, 131.528 201.437 C 140.095 195.751, 141.974 192.272, 137.873 189.690 C 136.602 188.890, 135.271 189.464, 131.803 192.305 C 129.359 194.308, 124.692 197.195, 121.430 198.723 C 116.114 201.213, 114.401 201.500, 104.877 201.500 C 94.464 201.500, 94.100 201.421, 86.377 197.500 L 78.500 193.500 78 161.402 C 77.608 136.239, 77.203 128.947, 76.128 127.652 C 74.419 125.595, 73.563 125.580, 71.571 127.571 M 119.315 239.213 C 109.792 248.680, 102 257.134, 102 258 C 102 259.680, 135.953 294, 137.615 294 C 139.105 294, 141 291.795, 141 290.062 C 141 289.216, 134.143 281.656, 125.762 273.262 L 110.524 258 125.762 242.738 C 134.143 234.344, 141 226.784, 141 225.938 C 141 224.205, 139.105 222, 137.615 222 C 137.073 222, 128.838 229.746, 119.315 239.213 " stroke="none" fill="black" fill-rule="evenodd"/>
</svg>