<svg xmlns="http://www.w3.org/2000/svg" width="212" height="324" viewBox="0 0 212 324" version="1.1">
	<path d="M 35.045 191.092 C 19.977 194.046, 8.919 206.108, 6.587 222.135 C 6.064 225.723, 6.277 227.134, 7.527 228.385 C 8.416 229.273, 9.529 230, 10 230 C 11.912 230, 14 226.663, 14 223.607 C 14 213.949, 22.088 202.862, 31.463 199.667 C 41.362 196.294, 52.360 198.192, 59.795 204.557 C 64.301 208.413, 69 216.917, 69 221.215 C 69 224.686, 72.581 238.291, 74.437 241.873 C 77.104 247.018, 84.151 253.927, 89.286 256.430 C 106.625 264.883, 126.300 259.290, 135.710 243.232 C 138.584 238.328, 141.926 227.214, 141.971 222.410 C 142.012 218.023, 147.585 207.418, 151.363 204.536 C 157.203 200.083, 163.055 198.044, 170 198.044 C 184.424 198.044, 195.259 207.968, 197.431 223.168 C 198.159 228.265, 199.840 230.383, 202.382 229.407 C 208.399 227.098, 202.831 208.708, 193.515 200.120 C 186.404 193.566, 179.348 190.735, 170.120 190.733 C 159.744 190.731, 152.568 193.548, 145.647 200.339 C 138.060 207.785, 136.196 212.154, 133.014 229.951 C 131.191 240.145, 122.958 249.588, 113.724 252.074 C 108.094 253.590, 98.402 252.824, 93.533 250.478 C 85.304 246.512, 79.750 238.763, 77.950 228.732 C 75.072 212.692, 73.400 208.559, 66.967 201.580 C 62.009 196.201, 55.105 192.467, 47.566 191.087 C 40.965 189.878, 41.242 189.878, 35.045 191.092 M 65.500 271.039 C 54.778 272.911, 44.838 278.003, 39.059 284.586 C 35.882 288.204, 35.907 290.518, 39.132 291.542 C 40.512 291.980, 42.272 291.084, 45.167 288.468 C 61.434 273.772, 89.699 274.813, 102.622 290.584 C 115.259 306.005, 142.105 310.009, 160.875 299.272 C 165.602 296.568, 173 290.273, 173 288.955 C 173 287.962, 170.124 285, 169.159 285 C 168.775 285, 165.770 287.032, 162.480 289.517 C 154.202 295.769, 145.448 298.380, 134.671 297.812 C 123.590 297.227, 116.730 294.014, 107.528 285.098 C 103.663 281.353, 98.700 277.386, 96.500 276.281 C 86.862 271.445, 74.829 269.410, 65.500 271.039 " stroke="none" fill="black" fill-rule="evenodd"/>
</svg>