<svg xmlns="http://www.w3.org/2000/svg" width="148" height="324" viewBox="0 0 148 324" version="1.1">
	<path d="M 71.200 127.200 C 70.319 128.081, 70 136.578, 70 159.200 L 70 190 39.200 190 C 16.578 190, 8.081 190.319, 7.200 191.200 C 5.481 192.919, 5.481 259.081, 7.200 260.800 C 8.085 261.685, 17.117 262, 41.629 262 C 70.503 262, 75.063 261.794, 76.429 260.429 C 77.788 259.069, 78 254.758, 78 228.429 L 78 198 108.429 198 C 134.758 198, 139.069 197.788, 140.429 196.429 C 141.793 195.064, 142 190.537, 142 162 C 142 133.463, 141.793 128.936, 140.429 127.571 C 139.063 126.206, 134.503 126, 105.629 126 C 81.117 126, 72.085 126.315, 71.200 127.200 M 78 162 L 78 190 106 190 L 134 190 134 162 L 134 134 106 134 L 78 134 78 162 M 14 226 L 14 254 42 254 L 70 254 70 226 L 70 198 42 198 L 14 198 14 226 " stroke="none" fill="black" fill-rule="evenodd"/>
</svg>