<svg xmlns="http://www.w3.org/2000/svg" width="148" height="324" viewBox="0 0 148 324" version="1.1">
	<path d="M 39.267 159.267 C 20.970 177.563, 6 193.056, 6 193.695 C 6 195.187, 8.799 198, 10.285 198 C 10.913 198, 25.506 183.947, 42.713 166.771 L 74 135.542 105.287 166.771 C 122.494 183.947, 137.064 198, 137.664 198 C 139.291 198, 141.212 195.312, 140.833 193.567 C 140.424 191.689, 75.041 126, 73.580 126 C 73.004 126, 57.563 140.970, 39.267 159.267 M 72.348 190.765 C 70.390 192.014, 38.011 257.865, 38.600 259.400 C 39.451 261.618, 42.109 262.213, 43.895 260.584 C 44.778 259.779, 51.794 246.493, 59.486 231.060 C 67.178 215.627, 73.709 203, 74 203 C 74.290 203, 81.036 216.041, 88.990 231.980 C 96.944 247.919, 104.083 261.201, 104.853 261.497 C 106.717 262.213, 109 260.217, 109 257.871 C 109 255.637, 77.272 191.833, 75.630 190.765 C 75.009 190.361, 74.275 190.031, 74 190.031 C 73.725 190.031, 72.981 190.361, 72.348 190.765 " stroke="none" fill="black" fill-rule="evenodd"/>
</svg>