<svg xmlns="http://www.w3.org/2000/svg" width="84" height="324" viewBox="0 0 84 324" version="1.1">
	<path d="M 35.045 127.092 C 19.977 130.046, 8.919 142.108, 6.587 158.135 C 6.064 161.723, 6.277 163.134, 7.527 164.385 C 8.416 165.273, 9.529 166, 10 166 C 11.912 166, 14 162.663, 14 159.607 C 14 149.949, 22.088 138.862, 31.463 135.667 C 42.255 131.990, 53.476 134.381, 61.071 141.976 C 69.764 150.669, 70.955 160.749, 65.504 179.500 C 62.403 190.169, 54.905 206.305, 49.025 214.964 C 39.309 229.270, 24.361 243.581, 11.250 251.125 C 7.258 253.423, 6 254.711, 6 256.502 C 6 261.945, 6.357 262, 42 262 C 70.537 262, 75.064 261.793, 76.429 260.429 C 78.244 258.613, 78.319 258.054, 77.022 256 C 76.231 254.746, 71.536 254.418, 48.423 254 L 20.770 253.500 25.514 250.096 C 42.783 237.701, 59.710 215.615, 68.057 194.585 C 72.642 183.034, 76.178 168.462, 76.206 161 C 76.270 144.360, 64.264 130.144, 47.566 127.087 C 40.965 125.878, 41.242 125.878, 35.045 127.092 " stroke="none" fill="black" fill-rule="evenodd"/>
</svg>