<svg xmlns="http://www.w3.org/2000/svg" width="148" height="324" viewBox="0 0 148 324" version="1.1">
	<path d="M 63.870 127.014 C 48.636 129.407, 37.616 135.194, 25.974 146.916 C 12.475 160.507, 6.696 174.473, 6.696 193.500 C 6.696 212.834, 12.449 226.527, 26.461 240.539 C 40.492 254.570, 54.209 260.328, 73.500 260.283 C 85.677 260.254, 93.634 258.307, 104.500 252.697 C 114.958 247.297, 126.889 235.544, 132.264 225.348 C 142.612 205.720, 142.612 181.280, 132.264 161.652 C 124.409 146.751, 106.756 132.797, 90.500 128.638 C 82.632 126.625, 70.901 125.909, 63.870 127.014 M 58.282 135.537 C 38.179 140.952, 20.756 158.481, 15.528 178.552 C 13.547 186.159, 13.575 200.562, 15.585 208.356 C 20.886 228.903, 38.095 246.083, 58.731 251.430 C 66.366 253.409, 79.578 253.423, 87.897 251.463 C 97.403 249.222, 107.521 243.468, 115.087 236.001 C 138.900 212.500, 138.900 174.500, 115.087 150.999 C 107.521 143.532, 97.403 137.778, 87.897 135.537 C 79.965 133.668, 65.223 133.668, 58.282 135.537 M 39.571 207.571 C 38.707 208.436, 38 209.659, 38 210.290 C 38 211.749, 72.192 246, 73.648 246 C 75.111 246, 108.412 212.315, 108.833 210.409 C 109.210 208.703, 107.290 206, 105.700 206 C 105.120 206, 97.845 212.750, 89.532 221 C 81.220 229.250, 74.098 236, 73.705 236 C 73.312 236, 66.355 229.243, 58.245 220.984 C 50.135 212.726, 42.970 205.976, 42.321 205.984 C 41.673 205.993, 40.436 206.707, 39.571 207.571 " stroke="none" fill="black" fill-rule="evenodd"/>
</svg>