<svg xmlns="http://www.w3.org/2000/svg" width="148" height="324" viewBox="0 0 148 324" version="1.1">
	<path d="M 65.972 159.329 C 56.002 161.530, 46.747 168.671, 42.159 177.705 C 39.593 182.757, 37.669 192.421, 38.425 196.454 C 38.980 199.408, 38.662 199.962, 34.938 202.543 C 27.758 207.518, 17.753 219.174, 13.833 227.130 C 7.655 239.667, 4.313 257.170, 7.491 260.348 C 10.992 263.850, 14 260.834, 14 253.823 C 14 238.840, 23.526 220.672, 36.961 210.031 L 40.803 206.988 43.346 211.328 C 46.351 216.455, 52.394 222.140, 57.737 224.866 C 62.901 227.500, 72.081 229.088, 77.699 228.318 L 82.306 227.686 81.614 232.093 C 80.698 237.935, 76.075 247.705, 72.070 252.267 C 68.357 256.496, 68.535 260, 72.464 260 C 77.925 260, 87.620 243.228, 88.825 231.694 C 89.483 225.402, 89.630 225.135, 94.596 221.218 C 97.398 219.006, 100.998 215.129, 102.596 212.600 C 104.193 210.072, 106.065 208.003, 106.757 208.002 C 109.173 207.998, 121.703 221.550, 125.340 228.101 C 129.365 235.350, 133 247.919, 133 254.589 C 133 258.479, 134.839 262, 136.871 262 C 140.488 262, 141.008 252.260, 138.014 240.556 C 134.386 226.371, 124.830 212.184, 113.105 203.577 L 108.252 200.014 107.816 191.716 C 107.273 181.372, 104.641 175.491, 97.353 168.339 C 89.097 160.238, 77.257 156.839, 65.972 159.329 M 63.627 167.468 C 54.155 170.845, 46.894 180.317, 46.177 190.235 C 45.768 195.883, 45.871 196.259, 47.618 195.521 C 61.950 189.475, 80.191 188.886, 94.740 194 C 97.870 195.100, 100.559 196, 100.715 196 C 100.872 196, 101 194.047, 101 191.660 C 101 185.790, 96.015 175.972, 91.031 172.024 C 83.709 166.226, 72.392 164.344, 63.627 167.468 M 60 199.119 C 52.812 201.047, 48 203.207, 48 204.505 C 48 206.994, 54.538 214.438, 59.323 217.396 C 63.261 219.831, 65.400 220.401, 71.788 220.718 C 82.004 221.226, 82.651 220.724, 80.622 213.875 C 79.746 210.919, 77.664 206.137, 75.995 203.250 C 72.990 198.052, 72.913 198.001, 68.230 198.090 C 65.628 198.140, 61.925 198.603, 60 199.119 M 82 198.517 C 82 198.684, 83.350 201.673, 84.999 205.160 C 86.649 208.647, 87.999 212.213, 87.999 213.083 C 88.001 217.559, 91.996 215.652, 96.067 209.233 C 97.680 206.690, 99 204.308, 99 203.940 C 99 203.572, 97.088 202.553, 94.750 201.674 C 90.431 200.050, 82 197.962, 82 198.517 " stroke="none" fill="black" fill-rule="evenodd"/>
</svg>