<svg xmlns="http://www.w3.org/2000/svg" width="180" height="324" viewBox="0 0 180 324" version="1.1">
	<path d="M 39.571 127.571 C 38.176 128.966, 38 136.152, 38 191.571 L 38 254 23.571 254 C 11.788 254, 8.855 254.288, 7.571 255.571 C 5.598 257.545, 5.598 258.455, 7.571 260.429 C 8.936 261.793, 13.463 262, 42 262 C 70.537 262, 75.064 261.793, 76.429 260.429 C 77.293 259.564, 78 258.471, 78 258 C 78 257.529, 77.293 256.436, 76.429 255.571 C 75.145 254.288, 72.212 254, 60.429 254 L 46 254 46 224.744 L 46 195.487 75.992 165.508 L 105.985 135.528 137.279 166.764 C 154.491 183.944, 169.087 198, 169.715 198 C 171.192 198, 174 195.191, 174 193.713 C 174 191.980, 107.766 126, 106.026 126 C 105.194 126, 91.347 139.160, 75.256 155.244 L 46 184.487 46 156.815 C 46 132.992, 45.781 128.924, 44.429 127.571 C 43.564 126.707, 42.471 126, 42 126 C 41.529 126, 40.436 126.707, 39.571 127.571 " stroke="none" fill="black" fill-rule="evenodd"/>
</svg>