<svg xmlns="http://www.w3.org/2000/svg" width="148" height="324" viewBox="0 0 148 324" version="1.1">
	<path d="M 97.384 127.370 C 86.752 130.037, 78.004 137.445, 73.163 147.880 C 71.042 152.453, 70.551 155.012, 70.528 161.620 C 70.502 169.072, 70.810 170.344, 74.268 177.084 L 78.036 184.428 42.018 220.496 C 22.208 240.333, 6 257.080, 6 257.710 C 6 259.199, 8.806 261.995, 10.321 262.017 C 10.970 262.026, 27.763 245.690, 47.640 225.714 L 83.780 189.395 88.517 192.108 C 101.744 199.684, 118.832 197.283, 129.766 186.313 C 137.455 178.600, 139.477 173.432, 139.477 161.500 C 139.477 149.374, 137.431 144.293, 129.342 136.339 C 121.049 128.185, 108.346 124.619, 97.384 127.370 M 95.627 135.468 C 90.247 137.386, 85.039 141.829, 81.500 147.519 C 77.527 153.908, 76.712 165.311, 79.741 172.129 C 84.181 182.120, 92.127 187.919, 102.521 188.754 C 114.446 189.711, 124.036 184.794, 129.500 174.921 C 132.132 170.166, 132.500 168.518, 132.500 161.500 C 132.500 154.487, 132.130 152.829, 129.500 148.061 C 126.429 142.492, 120.651 137.526, 114.684 135.326 C 110.327 133.720, 100.323 133.794, 95.627 135.468 " stroke="none" fill="black" fill-rule="evenodd"/>
</svg>