<svg xmlns="http://www.w3.org/2000/svg" width="52" height="324" viewBox="0 0 52 324" version="1.1">
	<path d="M 23.571 159.571 C 22.324 160.819, 22 163.528, 22 172.716 L 22 184.290 16.560 179.145 C 13.568 176.315, 10.675 174, 10.131 174 C 8.829 174, 6 176.861, 6 178.178 C 6 178.747, 9.226 182.540, 13.169 186.607 L 20.338 194 13.169 201.393 C 9.226 205.460, 6 209.253, 6 209.822 C 6 211.139, 8.829 214, 10.131 214 C 10.675 214, 13.568 211.685, 16.560 208.855 L 22 203.710 22 215.284 C 22 224.472, 22.324 227.181, 23.571 228.429 C 25.678 230.535, 26.598 230.412, 28.443 227.777 C 29.622 226.095, 30 222.900, 30 214.632 L 30 203.710 35.440 208.855 C 41.246 214.346, 41.931 214.669, 43.800 212.800 C 46.059 210.541, 44.994 208.237, 38.406 201.122 L 31.813 194 38.406 186.878 C 44.994 179.763, 46.059 177.459, 43.800 175.200 C 41.931 173.331, 41.246 173.654, 35.440 179.145 L 30 184.290 30 173.368 C 30 165.100, 29.622 161.905, 28.443 160.223 C 26.598 157.588, 25.678 157.465, 23.571 159.571 " stroke="none" fill="black" fill-rule="evenodd"/>
</svg>