<svg xmlns="http://www.w3.org/2000/svg" width="148" height="324" viewBox="0 0 148 324" version="1.1">
	<path d="M 33.972 159.329 C 7.103 165.260, -2.570 198.590, 16.920 218.080 C 32.716 233.876, 58.745 231.115, 70.759 212.370 C 72.475 209.692, 74.450 205.363, 75.147 202.750 C 76.290 198.467, 76.700 198, 79.313 198 C 84.357 198, 94.254 201.042, 101.500 204.820 C 110.311 209.413, 121.306 220.220, 125.780 228.686 C 129.503 235.731, 133 248.277, 133 254.589 C 133 258.479, 134.839 262, 136.871 262 C 140.482 262, 141.008 252.263, 138.028 240.609 C 134.984 228.707, 129.779 219.737, 120.503 210.407 C 113.886 203.752, 110.772 201.491, 102.978 197.684 C 97.435 194.977, 90.801 192.585, 87 191.923 C 83.425 191.300, 79.599 190.632, 78.497 190.438 C 77.003 190.176, 76.181 188.768, 75.263 184.906 C 71.017 167.028, 52.120 155.323, 33.972 159.329 M 31.627 167.468 C 26.302 169.367, 21.047 173.815, 17.618 179.328 C 14.254 184.737, 13.041 194.780, 14.916 201.708 C 16.446 207.361, 21.544 213.823, 27.266 217.361 C 33.398 221.152, 43.268 222.068, 50.852 219.549 C 56.768 217.584, 63.558 211.496, 66.523 205.500 C 69.293 199.895, 69.292 187.102, 66.521 181.500 C 63.571 175.538, 57.083 169.557, 51.504 167.656 C 45.655 165.663, 36.923 165.580, 31.627 167.468 M 23.571 191.571 C 22.707 192.436, 22 193.529, 22 194 C 22 195.111, 24.889 198, 26 198 C 27.111 198, 30 195.111, 30 194 C 30 192.889, 27.111 190, 26 190 C 25.529 190, 24.436 190.707, 23.571 191.571 M 55.616 191.527 C 54.727 192.416, 54 193.529, 54 194 C 54 195.389, 57.140 198.120, 58.295 197.735 C 60.395 197.035, 61.549 194.094, 60.423 192.310 C 58.905 189.902, 57.474 189.669, 55.616 191.527 M 39.616 207.527 C 38.727 208.416, 38 209.529, 38 210 C 38 211.389, 41.140 214.120, 42.295 213.735 C 44.395 213.035, 45.549 210.094, 44.423 208.310 C 42.905 205.902, 41.474 205.669, 39.616 207.527 " stroke="none" fill="black" fill-rule="evenodd"/>
</svg>