<svg xmlns="http://www.w3.org/2000/svg" width="148" height="324" viewBox="0 0 148 324" version="1.1">
	<path d="M 63.870 127.024 C 48.685 129.381, 37.622 135.188, 25.974 146.916 C 12.475 160.507, 6.696 174.473, 6.696 193.500 C 6.696 212.834, 12.449 226.527, 26.461 240.539 C 40.492 254.570, 54.209 260.328, 73.500 260.283 C 85.677 260.254, 93.634 258.307, 104.500 252.697 C 114.958 247.297, 126.889 235.544, 132.264 225.348 C 142.612 205.720, 142.612 181.280, 132.264 161.652 C 124.401 146.736, 106.682 132.739, 90.500 128.660 C 82.568 126.661, 70.849 125.941, 63.870 127.024 M 58.159 135.569 C 37.914 141.015, 20.798 158.320, 15.487 178.711 C 13.543 186.176, 13.590 200.623, 15.585 208.356 C 20.886 228.903, 38.095 246.083, 58.731 251.430 C 66.366 253.409, 79.578 253.423, 87.897 251.463 C 97.403 249.222, 107.521 243.468, 115.087 236.001 C 138.900 212.500, 138.900 174.500, 115.087 150.999 C 107.714 143.722, 97.850 138.035, 88.356 135.585 C 80.745 133.622, 65.427 133.613, 58.159 135.569 " stroke="none" fill="black" fill-rule="evenodd"/>
</svg>