<svg xmlns="http://www.w3.org/2000/svg" width="148" height="324" viewBox="0 0 148 324" version="1.1">
	<path d="M 7.200 191.200 C 6.315 192.085, 6 201.117, 6 225.629 C 6 254.503, 6.206 259.063, 7.571 260.429 C 8.436 261.293, 9.529 262, 10 262 C 10.471 262, 11.564 261.293, 12.429 260.429 C 13.788 259.069, 14 254.758, 14 228.429 L 14 198 74 198 L 134 198 134 228.965 C 134 259.475, 134.031 259.946, 136.117 261.062 C 140.718 263.525, 140.921 262.062, 141.040 225.605 C 141.128 198.461, 140.886 191.544, 139.825 190.871 C 137.599 189.459, 8.620 189.780, 7.200 191.200 " stroke="none" fill="black" fill-rule="evenodd"/>
</svg>