<svg xmlns="http://www.w3.org/2000/svg" width="84" height="324" viewBox="0 0 84 324" version="1.1">
	<path d="M 71.821 127.358 C 71.095 128.105, 66.907 135.987, 62.516 144.875 C 56.444 157.166, 54.170 160.894, 53.016 160.448 C 40.846 155.741, 24.785 159.884, 15.601 170.099 C 2.992 184.123, 3.652 204.812, 17.140 218.300 L 22.954 224.114 14.477 241.046 C 9.815 250.358, 6 258.176, 6 258.417 C 6 258.659, 6.707 259.564, 7.571 260.429 C 8.936 261.793, 13.463 262, 42 262 C 70.537 262, 75.064 261.793, 76.429 260.429 C 78.402 258.455, 78.402 257.545, 76.429 255.571 C 75.071 254.214, 70.849 254, 45.433 254 L 16.009 254 22.750 240.475 L 29.490 226.951 33.995 227.725 C 46.608 229.894, 57.558 226.602, 66.080 218.080 C 73.190 210.970, 76.252 203.571, 76.252 193.500 C 76.252 183.704, 73.229 176.227, 66.432 169.209 L 61.124 163.729 69.562 146.876 C 74.203 137.606, 78 129.824, 78 129.583 C 78 128.794, 74.880 126, 74 126 C 73.529 126, 72.548 126.611, 71.821 127.358 M 31.054 167.677 C 25.005 169.881, 17.763 177.312, 15.667 183.463 C 12.048 194.084, 14.346 205.217, 21.737 212.875 L 26.200 217.500 38.658 192.642 C 45.510 178.969, 50.835 167.502, 50.491 167.158 C 49.066 165.732, 35.386 166.098, 31.054 167.677 M 45.288 195.411 C 31.853 222.307, 32.051 221, 41.404 221 C 65.184 221, 77.872 193.230, 62.368 175.117 C 60.430 172.852, 58.537 171, 58.163 171 C 57.788 171, 51.994 181.985, 45.288 195.411 " stroke="none" fill="black" fill-rule="evenodd"/>
</svg>