<svg xmlns="http://www.w3.org/2000/svg" width="260" height="324" viewBox="0 0 260 324" version="1.1">
	<path d="M 71.702 127.255 C 35.513 163.140, 5.925 193.030, 5.952 193.679 C 5.978 194.327, 6.707 195.564, 7.571 196.429 C 8.928 197.785, 13.117 198, 38.190 198 L 67.237 198 64.080 201.229 C 54.337 211.195, 51.957 228.217, 58.451 241.490 C 70.054 265.205, 104.660 266.951, 118.874 244.538 L 121.516 240.371 124.866 245.437 C 134.402 259.859, 154.734 264.675, 170.341 256.209 C 176.179 253.042, 182.292 247.123, 184.012 242.971 L 185.272 239.930 188.679 244.990 C 199.115 260.486, 219.531 264.991, 235.721 255.371 C 242.807 251.160, 245.283 248.362, 249.324 240 C 252.042 234.376, 252.465 232.422, 252.465 225.500 C 252.465 218.642, 252.026 216.572, 249.388 211 C 247.696 207.425, 244.936 203.037, 243.255 201.250 L 240.198 198 245.899 198 C 251.665 198, 254 196.865, 254 194.062 C 254 193.216, 247.146 185.659, 238.769 177.268 L 223.537 162.013 230.769 154.733 C 234.746 150.729, 238 146.692, 238 145.762 C 238 144.236, 234.366 141.363, 233.455 142.169 C 226.279 148.517, 199 176.905, 199 178.024 C 199 179.754, 200.873 182, 202.315 182 C 202.818 182, 206.685 178.637, 210.908 174.527 L 218.587 167.055 230.027 178.527 L 241.467 190 176.067 190 L 110.667 190 114.372 186.295 C 116.409 184.257, 119.522 179.654, 121.288 176.066 C 124.097 170.361, 124.500 168.533, 124.500 161.500 C 124.500 154.467, 124.097 152.639, 121.288 146.934 C 117.561 139.363, 112.897 134.345, 106.233 130.736 C 100.642 127.709, 91.009 125.739, 86.037 126.607 C 82.818 127.168, 85.177 124.533, 112.250 97.323 C 128.613 80.878, 142 66.910, 142 66.283 C 142 65.045, 139.278 61.997, 138.179 62.005 C 137.805 62.008, 107.891 91.370, 71.702 127.255 M 80.398 135.326 C 78.693 135.972, 76.312 137.175, 75.109 138 C 72.953 139.479, 73.043 139.620, 81.515 148 L 90.109 156.500 98.229 148.101 L 106.350 139.701 104.095 137.876 C 99.473 134.133, 87.075 132.799, 80.398 135.326 M 66.184 146.278 C 62.139 151.152, 60.867 163.319, 63.573 171.260 C 66.178 178.906, 66.711 178.838, 75.809 169.692 L 84.001 161.457 75.671 153.170 C 68.854 146.389, 67.131 145.137, 66.184 146.278 M 103.177 153.322 L 94.999 161.543 103.329 169.830 C 112.415 178.869, 112.481 178.879, 115.479 171.705 C 118.481 164.519, 116.486 148.273, 112.282 145.674 C 111.772 145.359, 107.675 148.801, 103.177 153.322 M 37 172.500 L 19.521 190 43.927 190 L 68.333 190 64.651 186.318 C 57.979 179.646, 53.423 166.758, 54.728 158.250 C 55.003 156.463, 55.059 155, 54.853 155 C 54.647 155, 46.613 162.875, 37 172.500 M 81.159 175.340 L 72.863 183.680 75.181 185.174 C 83.125 190.294, 97.735 190.274, 104.083 185.134 L 106.325 183.318 98.530 175.159 C 94.242 170.672, 90.447 167, 90.095 167 C 89.744 167, 85.722 170.753, 81.159 175.340 M 80.398 199.326 C 78.693 199.972, 76.312 201.175, 75.109 202 C 72.953 203.479, 73.043 203.620, 81.515 212 L 90.109 220.500 98.229 212.101 L 106.350 203.701 104.095 201.876 C 99.473 198.133, 87.075 196.799, 80.398 199.326 M 114.758 201.064 C 116.406 202.749, 118.557 205.619, 119.538 207.442 L 121.323 210.755 124.837 205.628 C 126.770 202.807, 129.060 199.952, 129.926 199.282 C 131.195 198.300, 129.588 198.057, 121.631 198.032 L 111.763 198 114.758 201.064 M 144.398 199.326 C 142.693 199.972, 140.312 201.175, 139.109 202 C 136.952 203.479, 137.041 203.618, 145.468 211.985 L 154.015 220.470 162.257 212.183 L 170.500 203.896 168.170 201.973 C 163.529 198.142, 151.164 196.765, 144.398 199.326 M 179.351 201.550 C 181.247 203.502, 183.355 206.442, 184.034 208.083 L 185.270 211.067 187.775 207.283 C 189.152 205.202, 191.425 202.262, 192.827 200.750 L 195.374 198 185.639 198 L 175.904 198 179.351 201.550 M 208.398 199.326 C 206.693 199.972, 204.312 201.175, 203.109 202 C 200.952 203.479, 201.041 203.618, 209.468 211.985 L 218.015 220.470 226.257 212.183 L 234.500 203.896 232.170 201.973 C 227.529 198.142, 215.164 196.765, 208.398 199.326 M 66.184 210.278 C 62.139 215.152, 60.867 227.319, 63.573 235.260 C 66.178 242.906, 66.711 242.838, 75.809 233.692 L 84.001 225.457 75.671 217.170 C 68.854 210.389, 67.131 209.137, 66.184 210.278 M 103.177 217.322 L 94.999 225.543 103.329 233.830 C 112.415 242.869, 112.481 242.879, 115.479 235.705 C 118.481 228.519, 116.486 212.273, 112.282 209.674 C 111.772 209.359, 107.675 212.801, 103.177 217.322 M 129.781 211.250 C 124.635 219.237, 124.769 233.101, 130.058 240.058 L 131.915 242.500 139.958 234.523 C 144.381 230.136, 148 226.076, 148 225.500 C 148 224.407, 132.913 209, 131.843 209 C 131.506 209, 130.578 210.012, 129.781 211.250 M 167.177 217.322 L 158.999 225.543 167.329 233.830 C 174.116 240.581, 175.872 241.860, 176.808 240.731 C 181.359 235.248, 182.538 222.265, 179.176 214.665 C 178.104 212.241, 176.806 209.998, 176.291 209.680 C 175.776 209.362, 171.675 212.801, 167.177 217.322 M 192.464 214.250 C 190.726 217.982, 190.020 221.235, 190.020 225.500 C 190.020 231.368, 193.697 242, 195.727 242 C 196.905 242, 212 226.652, 212 225.454 C 212 224.291, 196.835 209, 195.682 209 C 195.256 209, 193.808 211.363, 192.464 214.250 M 231.227 217.271 L 222.999 225.543 231.270 233.771 C 235.820 238.297, 239.814 242, 240.148 242 C 241.877 242, 245.250 231.092, 245.250 225.500 C 245.250 219.840, 241.870 209, 240.105 209 C 239.748 209, 235.753 212.722, 231.227 217.271 M 81.159 239.340 L 72.863 247.680 75.181 249.174 C 83.125 254.294, 97.735 254.274, 104.083 249.134 L 106.325 247.318 98.530 239.159 C 94.242 234.672, 90.447 231, 90.095 231 C 89.744 231, 85.722 234.753, 81.159 239.340 M 145.159 239.340 L 136.863 247.680 139.181 249.174 C 147.199 254.342, 161.801 254.272, 168.170 249.034 L 170.500 247.118 162.523 239.059 C 158.136 234.627, 154.301 231, 154.001 231 C 153.701 231, 149.722 234.753, 145.159 239.340 M 209.159 239.340 L 200.863 247.680 203.181 249.174 C 211.199 254.342, 225.801 254.272, 232.170 249.034 L 234.500 247.118 226.523 239.059 C 222.136 234.627, 218.301 231, 218.001 231 C 217.701 231, 213.722 234.753, 209.159 239.340 " stroke="none" fill="black" fill-rule="evenodd"/>
</svg>