<svg xmlns="http://www.w3.org/2000/svg" width="68" height="324" viewBox="0 0 68 324" version="1.1">
	<path d="M 40.239 191.260 C 30.758 200.754, 23 209.249, 23 210.138 C 23 212.673, 25.555 214.312, 27.686 213.145 C 30.414 211.650, 62 179.533, 62 178.253 C 62 177.034, 59.266 174, 58.168 174 C 57.789 174, 49.721 181.767, 40.239 191.260 M 7.571 223.571 C 6.707 224.436, 6 225.529, 6 226 C 6 227.111, 8.889 230, 10 230 C 11.111 230, 14 227.111, 14 226 C 14 224.889, 11.111 222, 10 222 C 9.529 222, 8.436 222.707, 7.571 223.571 " stroke="none" fill="black" fill-rule="evenodd"/>
</svg>