<svg xmlns="http://www.w3.org/2000/svg" width="148" height="324" viewBox="0 0 148 324" version="1.1">
	<path d="M 71.571 127.571 C 70.212 128.931, 70 133.242, 70 159.571 L 70 190 39.571 190 C 13.242 190, 8.931 190.212, 7.571 191.571 C 5.598 193.545, 5.598 194.455, 7.571 196.429 C 8.931 197.788, 13.242 198, 39.571 198 L 70 198 70 228.429 C 70 254.758, 70.212 259.069, 71.571 260.429 C 72.436 261.293, 73.529 262, 74 262 C 74.471 262, 75.564 261.293, 76.429 260.429 C 77.788 259.069, 78 254.758, 78 228.429 L 78 198 103.236 198 L 128.472 198 115.236 211.263 C 107.956 218.558, 102 225.292, 102 226.228 C 102 228.579, 105.514 230.330, 107.788 229.113 C 109.828 228.022, 142 194.951, 142 193.945 C 142 192.939, 109.856 159.994, 107.802 158.894 C 105.514 157.669, 102 159.412, 102 161.772 C 102 162.708, 107.956 169.442, 115.236 176.737 L 128.472 190 103.236 190 L 78 190 78 159.571 C 78 133.242, 77.788 128.931, 76.429 127.571 C 75.564 126.707, 74.471 126, 74 126 C 73.529 126, 72.436 126.707, 71.571 127.571 " stroke="none" fill="black" fill-rule="evenodd"/>
</svg>