<svg xmlns="http://www.w3.org/2000/svg" width="132" height="324" viewBox="0 0 132 324" version="1.1">
	<path d="M 119.571 127.571 C 118.178 128.965, 118 135.899, 118 188.799 L 118 248.455 88.711 219.227 C 72.602 203.152, 58.909 190, 58.282 190 C 56.807 190, 54 192.810, 54 194.287 C 54 196.056, 120.253 262, 122.030 262 C 125.992 262, 126 261.862, 126 194.371 C 126 136.406, 125.825 128.968, 124.429 127.571 C 123.564 126.707, 122.471 126, 122 126 C 121.529 126, 120.436 126.707, 119.571 127.571 M 7.571 159.571 C 6.707 160.436, 6 161.640, 6 162.249 C 6 162.857, 12.844 170.250, 21.208 178.677 L 36.416 194 21.208 209.323 C 12.844 217.750, 6 225.143, 6 225.751 C 6 227.185, 8.820 230, 10.257 230 C 12.006 230, 46 195.761, 46 194 C 46 192.239, 12.006 158, 10.257 158 C 9.644 158, 8.436 158.707, 7.571 159.571 " stroke="none" fill="black" fill-rule="evenodd"/>
</svg>