<svg xmlns="http://www.w3.org/2000/svg" width="148" height="324" viewBox="0 0 148 324" version="1.1">
	<path d="M 63.102 127.162 C 37.850 130.772, 15.064 151.522, 8.374 177 C 6.113 185.610, 6.113 201.390, 8.374 210 C 11.589 222.245, 16.561 230.638, 26.461 240.539 C 40.540 254.618, 54.163 260.346, 73.500 260.319 C 91.884 260.292, 106.916 254.066, 120.095 241.019 C 146.932 214.451, 147.145 172.973, 120.582 146.421 C 109.514 135.358, 97.357 129.200, 82.284 127.020 C 74.450 125.888, 71.879 125.907, 63.102 127.162 M 57.500 135.870 C 37.436 141.645, 20.733 158.691, 15.585 178.644 C 13.554 186.517, 13.554 200.483, 15.585 208.356 C 20.838 228.716, 38.284 246.162, 58.644 251.415 C 65.760 253.251, 78.565 253.481, 86.201 251.910 C 89.115 251.310, 95.244 249.032, 99.820 246.847 C 115.079 239.562, 126.717 225.246, 131.003 208.489 C 132.101 204.194, 133 200.077, 133 199.340 C 133 198.249, 127.359 198, 102.700 198 C 80.467 198, 72.081 197.681, 71.200 196.800 C 70.319 195.919, 70 187.422, 70 164.800 L 70 134 66.750 134.071 C 64.963 134.110, 60.800 134.920, 57.500 135.870 M 78 162 L 78 190 105.500 190 C 137.156 190, 134.273 191.299, 131.003 178.511 C 126.717 161.754, 115.079 147.438, 99.820 140.153 C 92.461 136.639, 83.724 134, 79.451 134 C 78.218 134, 78 138.200, 78 162 " stroke="none" fill="black" fill-rule="evenodd"/>
</svg>