<svg xmlns="http://www.w3.org/2000/svg" width="132" height="324" viewBox="0 0 132 324" version="1.1">
	<path d="M 33.384 191.412 C 15.406 195.775, 3.546 213.739, 6.987 231.396 C 9.936 246.531, 20.469 257.064, 35.604 260.013 C 49.859 262.791, 65.150 255.375, 72.262 242.233 C 83.366 221.717, 72.020 196.744, 49.147 191.360 C 42.397 189.772, 40.111 189.779, 33.384 191.412 M 103.282 207.282 C 93.777 216.787, 86 225.210, 86 226 C 86 227.693, 120.031 262, 121.710 262 C 123.173 262, 126 259.200, 126 257.751 C 126 257.143, 119.156 249.750, 110.792 241.323 L 95.584 226 110.792 210.677 C 119.156 202.250, 126 194.857, 126 194.249 C 126 192.800, 123.173 190, 121.710 190 C 121.079 190, 112.787 197.777, 103.282 207.282 M 31.605 199.568 C 24.049 202.337, 24.073 202.527, 33.170 211.671 L 41.457 220.001 49.692 211.809 C 58.838 202.711, 58.906 202.178, 51.260 199.573 C 45.620 197.651, 36.842 197.649, 31.605 199.568 M 18.184 210.278 C 14.139 215.152, 12.867 227.319, 15.573 235.260 C 18.178 242.906, 18.711 242.838, 27.809 233.692 L 36.001 225.457 27.671 217.170 C 20.854 210.389, 19.131 209.137, 18.184 210.278 M 55.191 217.308 L 46.999 225.543 55.329 233.830 C 64.530 242.983, 64.678 242.998, 67.487 235.038 C 69.439 229.503, 69.415 221.574, 67.427 215.740 C 64.822 208.094, 64.289 208.162, 55.191 217.308 M 33.170 239.329 C 24.017 248.530, 24.002 248.678, 31.962 251.487 C 37.497 253.439, 45.426 253.415, 51.260 251.427 C 58.906 248.822, 58.838 248.289, 49.692 239.191 L 41.457 230.999 33.170 239.329 " stroke="none" fill="black" fill-rule="evenodd"/>
</svg>