<svg xmlns="http://www.w3.org/2000/svg" width="148" height="324" viewBox="0 0 148 324" version="1.1">
	<path d="M 40 126.978 C 38.706 127.796, 38.431 135.518, 38 183.126 L 37.500 238.325 31.263 239.597 C 19.563 241.983, 4.460 252.155, 5.170 257.170 C 5.707 260.959, 9.610 260.767, 13.870 256.741 C 18.697 252.179, 23.355 249.527, 29.932 247.595 C 38.097 245.197, 38 245.139, 38 252.429 C 38 258.567, 39.435 262, 42 262 C 44.565 262, 46 258.567, 46 252.429 C 46 248.893, 46.368 246, 46.818 246 C 47.269 246, 50.081 246.715, 53.068 247.588 C 60.227 249.682, 66.623 253.844, 71.313 259.463 C 80.354 270.295, 98.314 275.867, 113.746 272.629 C 125.964 270.066, 140.475 261.218, 139.805 256.740 C 139.161 252.438, 136.629 252.460, 130.858 256.818 C 121.268 264.058, 116.973 265.500, 105 265.500 C 95.344 265.500, 93.977 265.252, 88 262.418 C 83.623 260.343, 79.555 257.311, 75.546 253.135 C 68.745 246.052, 58.648 240.420, 50.911 239.394 L 46 238.742 46 218.371 L 46 198 74 198 L 102 198 102 228.965 C 102 259.771, 102.011 259.936, 104.183 261.098 C 106.042 262.093, 106.636 261.933, 108.183 260.022 C 109.855 257.957, 110 255.204, 110 225.461 C 110 197.414, 109.792 192.935, 108.429 191.571 C 107.069 190.212, 102.758 190, 76.429 190 L 46 190 46 159.571 C 46 133.242, 45.788 128.931, 44.429 127.571 C 42.613 125.756, 42.053 125.681, 40 126.978 " stroke="none" fill="black" fill-rule="evenodd"/>
</svg>