<svg xmlns="http://www.w3.org/2000/svg" width="212" height="324" viewBox="0 0 212 324" version="1.1">
	<path d="M 64.500 126.944 C 52.424 128.899, 42.545 133.078, 32.461 140.499 C 25.198 145.843, 25.850 145.191, 20.462 152.500 C 10.807 165.599, 6.696 177.843, 6.696 193.500 C 6.696 209.037, 10.874 221.460, 20.499 234.539 C 25.843 241.802, 25.198 241.157, 32.461 246.501 C 45.499 256.095, 57.859 260.246, 73.500 260.283 C 84.720 260.309, 92.990 258.506, 102.608 253.935 C 107.683 251.524, 118.297 244.327, 121.265 241.284 C 123.321 239.177, 129.957 230.013, 132.218 226.160 L 134.764 221.821 135.160 228.660 C 136.628 254.005, 165.406 268.630, 187.721 255.371 C 194.807 251.160, 197.283 248.362, 201.324 240 C 204.042 234.376, 204.465 232.422, 204.465 225.500 C 204.465 218.642, 204.026 216.572, 201.388 211 C 199.696 207.425, 196.936 203.037, 195.255 201.250 L 192.198 198 197.899 198 C 203.665 198, 206 196.865, 206 194.062 C 206 193.216, 199.159 185.671, 190.797 177.297 L 175.594 162.070 182.797 154.642 C 186.759 150.556, 190 146.747, 190 146.178 C 190 144.759, 186.973 141.842, 185.879 142.207 C 183.809 142.897, 151 176.588, 151 178.024 C 151 179.754, 152.873 182, 154.315 182 C 154.818 182, 158.685 178.637, 162.908 174.527 L 170.587 167.055 182.027 178.527 L 193.467 190 167.279 190 L 141.091 190 140.526 186.250 C 138.263 171.218, 130.987 155.918, 121.249 145.716 C 118.438 142.771, 107.703 135.485, 102.608 133.065 C 91.316 127.699, 75.516 125.161, 64.500 126.944 M 57.500 135.870 C 51.032 137.732, 41.202 142.647, 36.721 146.259 L 33.941 148.500 53.974 168.494 L 74.006 188.487 93.753 168.703 L 113.500 148.919 110 146.029 C 105.192 142.059, 95.721 137.490, 88.356 135.587 C 80.228 133.488, 65.301 133.624, 57.500 135.870 M 25.261 158.136 C 20.718 164.762, 17.317 171.987, 15.574 178.716 C 13.553 186.514, 13.558 200.499, 15.585 208.356 C 17.267 214.874, 22.514 225.659, 26.252 230.279 L 28.500 233.059 48.250 213.270 L 68 193.481 48.127 173.627 L 28.253 153.772 25.261 158.136 M 98.750 173.717 L 79 193.519 98.828 213.329 L 118.657 233.139 121.463 229.459 C 125.470 224.207, 129.646 215.467, 131.479 208.500 C 133.493 200.843, 133.508 186.251, 131.511 178.500 C 129.688 171.427, 124.864 161.443, 121.143 157.042 L 118.500 153.916 98.750 173.717 M 140.430 200.421 C 139.159 205.488, 140.389 206.048, 143.806 201.958 L 147.113 198 144.076 198 C 141.696 198, 140.906 198.524, 140.430 200.421 M 160.398 199.326 C 158.693 199.972, 156.312 201.175, 155.109 202 C 152.952 203.479, 153.041 203.618, 161.468 211.985 L 170.015 220.470 178.136 212.349 C 183.311 207.174, 185.985 203.785, 185.506 203.009 C 182.883 198.766, 167.746 196.545, 160.398 199.326 M 53.699 218.801 L 33.917 238.601 38.209 241.669 C 44.470 246.145, 51.809 249.637, 58.716 251.426 C 66.493 253.442, 80.500 253.443, 88.269 251.430 C 95.121 249.655, 106.017 244.354, 110.500 240.615 L 113.500 238.113 94.010 218.556 C 83.290 207.800, 74.286 199, 74 199 C 73.715 199, 64.579 207.910, 53.699 218.801 M 144.464 214.250 C 142.726 217.982, 142.020 221.235, 142.020 225.500 C 142.020 231.368, 145.697 242, 147.727 242 C 148.905 242, 164 226.652, 164 225.454 C 164 224.291, 148.835 209, 147.682 209 C 147.256 209, 145.808 211.363, 144.464 214.250 M 183.227 217.271 L 174.999 225.543 183.270 233.771 C 187.820 238.297, 191.814 242, 192.148 242 C 193.877 242, 197.250 231.092, 197.250 225.500 C 197.250 219.840, 193.870 209, 192.105 209 C 191.748 209, 187.753 212.722, 183.227 217.271 M 161.159 239.340 L 152.863 247.680 155.181 249.174 C 163.199 254.342, 177.801 254.272, 184.170 249.034 L 186.500 247.118 178.523 239.059 C 174.136 234.627, 170.301 231, 170.001 231 C 169.701 231, 165.722 234.753, 161.159 239.340 " stroke="none" fill="black" fill-rule="evenodd"/>
</svg>