<svg xmlns="http://www.w3.org/2000/svg" width="148" height="324" viewBox="0 0 148 324" version="1.1">
	<path d="M 66.223 191.008 C 55.872 193.178, 46.837 200.524, 41.712 210.934 C 38.903 216.639, 38.500 218.467, 38.500 225.500 C 38.500 232.533, 38.903 234.361, 41.712 240.066 C 43.478 243.654, 46.591 248.257, 48.628 250.295 L 52.333 254 30.738 254 C 12.439 254, 8.903 254.240, 7.571 255.571 C 5.596 257.546, 5.598 258.455, 7.579 260.436 C 8.990 261.847, 16.058 261.987, 74.220 261.757 C 134.934 261.517, 139.356 261.383, 140.386 259.750 C 141.191 258.474, 141.191 257.526, 140.387 256.250 C 139.399 254.683, 136.962 254.472, 117.074 254.231 L 94.864 253.961 98.885 249.393 C 105.887 241.438, 107.500 236.965, 107.500 225.500 C 107.500 213.464, 105.483 208.393, 97.518 200.404 C 89.702 192.563, 76.999 188.749, 66.223 191.008 M 63.502 199.604 C 56.122 202.305, 56.185 202.733, 65.278 211.779 L 73.543 220.001 81.840 211.661 L 90.137 203.320 87.819 201.826 C 81.617 197.828, 71.004 196.859, 63.502 199.604 M 49.570 211.253 C 44.719 218.656, 44.828 233.891, 49.775 239.955 C 51.490 242.057, 51.548 242.021, 59.751 233.763 L 68.001 225.457 59.605 217.104 L 51.209 208.752 49.570 211.253 M 87.227 217.271 L 78.999 225.543 87.409 233.909 L 95.819 242.276 98.142 237.888 C 101.428 231.683, 101.463 219.381, 98.212 213.250 C 96.973 210.912, 95.846 209, 95.708 209 C 95.569 209, 91.753 212.722, 87.227 217.271 M 65.170 239.329 C 56.017 248.530, 56.002 248.678, 63.962 251.487 C 71.564 254.169, 82.587 253.083, 87.818 249.137 C 90.019 247.477, 90.016 247.471, 81.739 239.237 L 73.457 230.999 65.170 239.329 " stroke="none" fill="black" fill-rule="evenodd"/>
</svg>