<svg xmlns="http://www.w3.org/2000/svg" width="148" height="324" viewBox="0 0 148 324" version="1.1">
	<path d="M 66.150 131.602 C 53.859 142.725, 45.119 157.039, 40.875 173 C 37.942 184.027, 37.744 202.033, 40.439 212.500 C 44.012 226.375, 51.124 239.755, 60.108 249.502 L 64.255 254 36.699 254 C 12.981 254, 8.924 254.219, 7.571 255.571 C 5.598 257.545, 5.598 258.455, 7.571 260.429 C 8.900 261.758, 12.389 262, 30.188 262 L 51.233 262 47.502 266.130 C 41.291 273.004, 38.556 280.149, 38.556 289.500 C 38.556 296.036, 39.038 298.538, 41.189 303.175 C 44.550 310.423, 50.494 316.860, 57.212 320.528 C 61.676 322.966, 63.902 323.476, 71.500 323.802 C 83.395 324.314, 90.248 321.890, 97.518 314.596 C 105.483 306.607, 107.500 301.536, 107.500 289.500 C 107.500 278.249, 105.971 273.831, 99.434 266.194 L 95.878 262.039 117.581 261.770 C 136.986 261.529, 139.400 261.315, 140.387 259.750 C 141.191 258.474, 141.191 257.526, 140.386 256.250 C 139.385 254.661, 136.680 254.475, 111.070 254.234 L 82.858 253.969 86.913 249.361 C 101.023 233.332, 107.986 214.874, 107.986 193.500 C 107.986 169.328, 98.597 147.888, 80.897 131.646 C 77.514 128.540, 74.204 126, 73.543 126 C 72.882 126, 69.555 128.521, 66.150 131.602 M 65.810 141.789 C 45.159 164.647, 40.067 198.176, 53.037 225.893 C 56.310 232.888, 63.286 243.108, 67.392 246.924 L 70 249.349 70 193.674 C 70 163.053, 69.827 138, 69.616 138 C 69.405 138, 67.692 139.705, 65.810 141.789 M 78.064 193.500 L 78.054 248.500 81.064 245 C 90.763 233.723, 96.716 221.980, 99.420 208.792 C 104.250 185.232, 97.748 161.105, 81.556 142.500 L 78.075 138.500 78.064 193.500 M 63.463 263.591 C 57.971 265.541, 52.552 270.205, 49.249 275.824 C 46.800 279.989, 46.500 281.483, 46.500 289.500 C 46.500 297.517, 46.800 299.011, 49.249 303.176 C 54.556 312.205, 63.289 317.069, 73.928 316.924 C 84.142 316.784, 92.647 311.739, 97.500 302.939 C 100.130 298.171, 100.500 296.513, 100.500 289.500 C 100.500 282.487, 100.130 280.829, 97.500 276.061 C 94.429 270.492, 88.651 265.526, 82.684 263.326 C 78.323 261.718, 68.351 261.856, 63.463 263.591 " stroke="none" fill="black" fill-rule="evenodd"/>
</svg>