<svg xmlns="http://www.w3.org/2000/svg" width="212" height="324" viewBox="0 0 212 324" version="1.1">
	<path d="M 67 126.580 C 49.071 129.609, 38.129 134.764, 27.164 145.349 C 15.107 156.987, 8.421 170.983, 6.503 188.598 C 5.513 197.694, 6.036 198, 22.575 198 L 36.006 198 21.020 227.961 C 12.777 244.439, 6.285 258.580, 6.594 259.384 C 7.265 261.133, 9.512 262.125, 11.274 261.448 C 11.975 261.180, 19.056 247.919, 27.010 231.980 C 34.964 216.041, 41.710 203, 42 203 C 42.290 203, 49.036 216.041, 56.990 231.980 C 64.944 247.919, 72.025 261.180, 72.726 261.448 C 73.427 261.717, 74.592 261.710, 75.315 261.433 C 76.038 261.155, 83.112 247.894, 91.035 231.964 C 98.958 216.034, 105.686 203, 105.985 203 C 106.284 203, 112.822 215.627, 120.514 231.060 C 128.206 246.493, 135.222 259.779, 136.105 260.584 C 137.896 262.217, 140.549 261.617, 141.406 259.384 C 141.715 258.580, 135.223 244.439, 126.980 227.961 L 111.994 198 125.752 198 L 139.511 198 172.756 164.744 C 191.040 146.454, 206 130.720, 206 129.780 C 206 128.840, 205.039 127.556, 203.864 126.927 C 201.899 125.876, 199.318 128.193, 171.608 155.892 C 155.042 172.451, 141.153 186, 140.744 186 C 140.335 186, 140 184.898, 140 183.552 C 140 179.272, 135.199 165.713, 131.522 159.606 C 122.371 144.410, 107.070 132.857, 90.500 128.632 C 84.129 127.008, 71.167 125.876, 67 126.580 M 58.645 135.584 C 38.562 140.445, 20.305 158.877, 15.537 179.103 C 14.708 182.621, 14.023 186.512, 14.015 187.750 L 14 190 73.638 190 L 133.275 190 132.629 184.499 C 130.009 162.207, 111.261 141.527, 88.269 135.570 C 80.844 133.646, 66.624 133.653, 58.645 135.584 M 60.743 223.500 C 67.750 237.525, 73.715 249, 74 249 C 74.285 249, 80.250 237.525, 87.257 223.500 L 99.995 198 74 198 L 48.005 198 60.743 223.500 " stroke="none" fill="black" fill-rule="evenodd"/>
</svg>