<svg xmlns="http://www.w3.org/2000/svg" width="148" height="324" viewBox="0 0 148 324" version="1.1">
	<path d="M 63.870 127.014 C 48.636 129.407, 37.616 135.194, 25.974 146.916 C 13.989 158.983, 8.432 170.878, 6.503 188.598 C 5.964 193.549, 6.150 195.007, 7.491 196.348 C 9.547 198.404, 10.439 198.418, 12.429 196.429 C 13.404 195.453, 14.006 193.082, 14.015 190.179 C 14.091 166.127, 34.559 141.323, 59.103 135.537 C 90.978 128.024, 122.983 147.153, 131.003 178.511 C 132.101 182.806, 133 188.482, 133 191.125 C 133 194.956, 133.418 196.154, 135.064 197.034 C 142.869 201.211, 141.090 178.529, 132.293 161.700 C 124.457 146.708, 106.926 132.840, 90.500 128.638 C 82.632 126.625, 70.901 125.909, 63.870 127.014 M 71.616 159.527 C 70.727 160.416, 70 161.529, 70 162 C 70 163.389, 73.140 166.120, 74.295 165.735 C 76.395 165.035, 77.549 162.094, 76.423 160.310 C 74.905 157.902, 73.474 157.669, 71.616 159.527 M 39.585 191.558 C 38.713 192.430, 38 193.529, 38 194 C 38 194.471, 38.713 195.570, 39.585 196.442 C 40.978 197.835, 45.159 197.995, 74.226 197.763 C 104.452 197.523, 107.377 197.350, 108.386 195.750 C 109.191 194.474, 109.191 193.526, 108.386 192.250 C 107.377 190.650, 104.452 190.477, 74.226 190.237 C 45.159 190.005, 40.978 190.165, 39.585 191.558 M 71.616 223.527 C 70.727 224.416, 70 225.529, 70 226 C 70 227.389, 73.140 230.120, 74.295 229.735 C 76.395 229.035, 77.549 226.094, 76.423 224.310 C 74.905 221.902, 73.474 221.669, 71.616 223.527 " stroke="none" fill="black" fill-rule="evenodd"/>
</svg>