<svg xmlns="http://www.w3.org/2000/svg" width="276" height="324" viewBox="0 0 276 324" version="1.1">
	<path d="M 39.267 159.267 C 20.970 177.563, 6 193.056, 6 193.695 C 6 195.187, 8.799 198, 10.285 198 C 10.913 198, 25.510 183.943, 42.723 166.762 L 74.019 135.523 102.112 163.617 L 130.205 191.710 126.815 193.806 C 120.633 197.626, 116.140 208.997, 119.489 212.346 C 120.399 213.256, 121.529 214, 122 214 C 123.861 214, 126 210.700, 126 207.829 C 126 205.718, 127.030 203.770, 129.400 201.400 C 132.302 198.498, 133.488 198, 137.500 198 C 141.512 198, 142.698 198.498, 145.600 201.400 C 151.296 207.096, 150.903 208.183, 133.941 233.589 C 125.658 245.994, 118.657 256.729, 118.383 257.443 C 118.109 258.158, 118.618 259.475, 119.514 260.371 C 121.895 262.753, 154.054 262.803, 156.429 260.429 C 157.293 259.564, 158 258.471, 158 258 C 158 257.529, 157.293 256.436, 156.429 255.571 C 155.162 254.305, 152.348 254, 141.926 254 L 128.995 254 143.477 232.250 L 157.960 210.500 156.402 206 C 154.244 199.762, 151.522 195.617, 148.534 194.018 C 147.140 193.272, 146 192.397, 146 192.074 C 146 191.750, 157.700 179.792, 172 165.500 L 198 139.514 198 196.757 L 198 254 183.571 254 C 171.788 254, 168.855 254.288, 167.571 255.571 C 165.598 257.545, 165.598 258.455, 167.571 260.429 C 168.936 261.793, 173.463 262, 202 262 C 230.537 262, 235.064 261.793, 236.429 260.429 C 238.402 258.455, 238.402 257.545, 236.429 255.571 C 235.145 254.288, 232.212 254, 220.429 254 L 206 254 206 196.773 L 206 139.545 235.289 168.773 C 251.398 184.848, 265.091 198, 265.718 198 C 267.193 198, 270 195.190, 270 193.713 C 270 191.980, 203.766 126, 202.026 126 C 201.193 126, 186.450 140.056, 169.264 157.236 L 138.015 188.473 106.721 157.236 C 89.509 140.056, 74.776 126, 73.980 126 C 73.184 126, 57.563 140.970, 39.267 159.267 M 72.370 190.765 C 70.401 192.045, 38.007 257.855, 38.594 259.384 C 39.265 261.133, 41.512 262.124, 43.274 261.448 C 43.975 261.180, 51.056 247.919, 59.010 231.980 C 66.964 216.041, 73.710 203, 74 203 C 74.290 203, 81.036 216.041, 88.990 231.980 C 96.944 247.919, 104.025 261.180, 104.726 261.448 C 106.488 262.124, 108.735 261.133, 109.406 259.384 C 109.993 257.855, 77.599 192.045, 75.630 190.765 C 75.009 190.361, 74.275 190.031, 74 190.031 C 73.725 190.031, 72.991 190.361, 72.370 190.765 " stroke="none" fill="black" fill-rule="evenodd"/>
</svg>