<svg xmlns="http://www.w3.org/2000/svg" width="148" height="324" viewBox="0 0 148 324" version="1.1">
	<path d="M 71.571 127.571 C 70.707 128.436, 70 129.529, 70 130 C 70 130.471, 70.707 131.564, 71.571 132.429 C 72.924 133.781, 76.991 134, 100.810 134 L 128.478 134 67.239 195.269 C 33.558 228.967, 6 257.060, 6 257.698 C 6 259.182, 8.785 261.985, 10.321 262.048 C 10.970 262.074, 39.061 234.287, 72.746 200.298 L 133.991 138.500 133.996 167.215 C 134 195.432, 134.037 195.949, 136.117 197.062 C 140.718 199.525, 140.921 198.062, 141.040 161.605 C 141.128 134.461, 140.886 127.544, 139.825 126.871 C 139.096 126.409, 123.795 126.024, 105.821 126.015 C 77.433 126.002, 72.937 126.206, 71.571 127.571 " stroke="none" fill="black" fill-rule="evenodd"/>
</svg>