<svg xmlns="http://www.w3.org/2000/svg" width="148" height="324" viewBox="0 0 148 324" version="1.1">
	<path d="M 7.200 127.200 C 6.315 128.085, 6 137.117, 6 161.629 C 6 190.503, 6.206 195.063, 7.571 196.429 C 8.436 197.293, 9.529 198, 10 198 C 10.471 198, 11.564 197.293, 12.429 196.429 C 13.781 195.076, 14 191.009, 14 167.190 L 14 139.522 75.269 200.761 C 108.967 234.442, 137.002 262, 137.569 262 C 139.189 262, 141 259.777, 141 257.788 C 141 256.729, 115.797 230.629, 80.357 194.988 L 19.715 134 47.286 134 C 71.017 134, 75.076 133.781, 76.429 132.429 C 78.402 130.455, 78.402 129.545, 76.429 127.571 C 75.063 126.206, 70.503 126, 41.629 126 C 17.117 126, 8.085 126.315, 7.200 127.200 " stroke="none" fill="black" fill-rule="evenodd"/>
</svg>