<svg xmlns="http://www.w3.org/2000/svg" width="148" height="324" viewBox="0 0 148 324" version="1.1">
	<path d="M 127.500 191.077 C 113.839 193.075, 100.021 200.074, 90.048 210.048 C 79.165 220.930, 73.238 233.125, 70.507 250.250 L 69.909 254 39.526 254 C 13.238 254, 8.931 254.212, 7.571 255.571 C 5.598 257.545, 5.598 258.455, 7.571 260.429 C 8.900 261.758, 12.389 262, 30.188 262 L 51.233 262 47.502 266.130 C 41.343 272.947, 38.611 280.128, 38.611 289.500 C 38.611 296, 39.099 298.564, 41.216 303.175 C 44.534 310.404, 50.476 316.850, 57.212 320.528 C 61.676 322.966, 63.902 323.476, 71.500 323.802 C 83.328 324.311, 89.878 321.995, 97.353 314.661 C 105.450 306.714, 107.500 301.633, 107.500 289.500 C 107.500 278.249, 105.971 273.831, 99.434 266.194 L 95.878 262.039 117.581 261.770 C 136.986 261.529, 139.400 261.315, 140.387 259.750 C 141.191 258.474, 141.191 257.526, 140.386 256.250 C 139.381 254.655, 136.559 254.477, 108.505 254.235 L 77.728 253.971 78.373 248.485 C 80.420 231.067, 93.525 212.797, 109.877 204.562 C 118.141 200.400, 123.509 198.859, 132.396 198.094 C 139.982 197.441, 142.495 195.605, 140.394 192.250 C 139.102 190.186, 135.706 189.877, 127.500 191.077 M 70.147 266.656 C 61.933 279.330, 61.933 298.670, 70.147 311.344 C 71.441 313.341, 72.813 314.981, 73.195 314.988 C 73.578 314.994, 75.603 311.536, 77.695 307.303 C 81.378 299.852, 81.500 299.267, 81.500 289.005 C 81.500 278.743, 81.378 278.156, 77.695 270.702 C 75.603 266.466, 73.578 263.006, 73.195 263.012 C 72.813 263.019, 71.441 264.659, 70.147 266.656 M 84.495 267.808 C 88.199 275.189, 89.270 281.094, 88.835 291.742 C 88.491 300.174, 87.998 302.437, 85.201 308.399 C 83.422 312.194, 82.106 315.440, 82.278 315.612 C 82.753 316.087, 88.106 313.157, 91.519 310.553 C 93.187 309.281, 95.890 305.824, 97.526 302.870 C 100.129 298.169, 100.500 296.503, 100.500 289.500 C 100.500 282.487, 100.130 280.829, 97.500 276.061 C 94.704 270.991, 88.737 265.578, 83.995 263.808 C 82.310 263.180, 82.356 263.544, 84.495 267.808 M 56.849 267.285 C 54.481 269.091, 51.183 272.770, 49.521 275.460 C 46.736 279.970, 46.500 281.066, 46.500 289.506 C 46.500 297.947, 46.735 299.041, 49.521 303.545 C 52.500 308.362, 59.968 315, 62.407 315 C 63.231 315, 62.710 313.039, 60.878 309.250 C 55.051 297.199, 54.876 282.120, 60.418 269.590 C 61.777 266.516, 62.500 264, 62.023 264 C 61.546 264, 59.218 265.478, 56.849 267.285 " stroke="none" fill="black" fill-rule="evenodd"/>
</svg>