<svg xmlns="http://www.w3.org/2000/svg" width="148" height="324" viewBox="0 0 148 324" version="1.1">
	<path d="M 66.873 126.884 C 56.135 129.138, 46.083 137.324, 41.160 147.825 L 38.500 153.500 38.500 193.500 L 38.500 233.500 41.160 239.175 C 42.624 242.296, 45.718 246.909, 48.038 249.425 L 52.255 254 30.699 254 C 12.436 254, 8.903 254.240, 7.571 255.571 C 5.598 257.545, 5.598 258.455, 7.571 260.429 C 8.930 261.787, 13.205 262, 39.159 262 L 69.176 262 68.519 266.250 C 65.557 285.415, 52.884 302.700, 35.820 310.847 C 27.178 314.974, 19.669 317, 13.022 317 C 10.829 317, 8.460 317.683, 7.571 318.571 C 5.776 320.366, 5.685 320.955, 6.905 322.881 C 8.318 325.111, 22.995 323.849, 31.807 320.739 C 53.621 313.041, 71.713 291.781, 75.223 269.719 L 76.447 262.027 107.865 261.764 C 136.529 261.523, 139.380 261.347, 140.386 259.750 C 141.190 258.475, 141.191 257.525, 140.387 256.250 C 139.408 254.695, 136.809 254.444, 117.060 254 L 94.835 253.500 97.436 251.058 C 101.984 246.789, 105.805 239.741, 107.974 231.622 C 109.947 224.236, 110.056 221.765, 109.711 192.122 C 109.320 158.474, 108.820 154.152, 104.274 145.150 C 97.753 132.237, 80.804 123.960, 66.873 126.884 M 63.463 135.591 C 57.971 137.541, 52.552 142.205, 49.249 147.824 L 46.500 152.500 46.500 193.500 L 46.500 234.500 49.249 239.176 C 61.577 260.147, 92.630 256.486, 100.129 233.177 C 101.798 227.991, 102.532 169.434, 101.048 159.870 C 99.134 147.539, 92.783 139.049, 82.684 135.326 C 78.323 133.718, 68.351 133.856, 63.463 135.591 " stroke="none" fill="black" fill-rule="evenodd"/>
</svg>