<svg xmlns="http://www.w3.org/2000/svg" width="52" height="324" viewBox="0 0 52 324" version="1.1">
	<path d="M 7.571 127.571 C 6.707 128.436, 6 129.609, 6 130.178 C 6 130.747, 9.226 134.540, 13.169 138.607 L 20.338 146 13.169 153.393 C 9.226 157.460, 6 161.253, 6 161.822 C 6 163.139, 8.829 166, 10.131 166 C 10.675 166, 13.568 163.685, 16.560 160.855 L 22 155.710 22 207.284 C 22 252.835, 22.183 259.041, 23.571 260.429 C 24.436 261.293, 25.529 262, 26 262 C 26.471 262, 27.564 261.293, 28.429 260.429 C 29.817 259.041, 30 252.835, 30 207.284 L 30 155.710 35.440 160.855 C 41.246 166.346, 41.931 166.669, 43.800 164.800 C 46.160 162.440, 44.903 159.706, 38.336 152.903 L 31.672 146 38.336 139.097 C 44.903 132.294, 46.160 129.560, 43.800 127.200 C 41.931 125.331, 41.246 125.654, 35.440 131.145 L 30 136.290 30 132.716 C 30 129.390, 27.981 126, 26 126 C 24.019 126, 22 129.390, 22 132.716 L 22 136.290 16.560 131.145 C 10.617 125.525, 9.902 125.240, 7.571 127.571 " stroke="none" fill="black" fill-rule="evenodd"/>
</svg>