<svg xmlns="http://www.w3.org/2000/svg" width="212" height="324" viewBox="0 0 212 324" version="1.1">
	<path d="M 72.200 127.200 C 71.540 127.860, 71 129.103, 71 129.963 C 71 130.822, 77.750 138.264, 86 146.500 C 94.250 154.736, 101 161.758, 101 162.104 C 101 162.450, 87.702 175.689, 71.449 191.524 L 41.899 220.316 26.627 205.158 C 18.227 196.821, 10.857 190, 10.249 190 C 8.819 190, 6 192.819, 6 194.249 C 6 194.857, 12.844 202.250, 21.208 210.677 L 36.416 226 21.208 241.323 C 12.844 249.750, 6 257.143, 6 257.751 C 6 259.181, 8.819 262, 10.249 262 C 10.857 262, 18.250 255.156, 26.677 246.792 L 42 231.584 57.323 246.792 C 65.750 255.156, 73.143 262, 73.751 262 C 75.181 262, 78 259.181, 78 257.751 C 78 257.143, 71.148 249.742, 62.774 241.305 L 47.548 225.964 77.016 196.484 L 106.483 167.004 135.980 196.501 L 165.477 225.998 150.239 241.261 C 141.857 249.655, 135 257.251, 135 258.139 C 135 260.681, 137.555 262.314, 139.686 261.135 C 140.684 260.582, 148.020 253.576, 155.988 245.564 L 170.476 230.998 186.105 246.605 C 200.376 260.855, 201.921 262.113, 203.868 261.071 C 205.040 260.443, 206 259.163, 206 258.227 C 206 257.290, 199.143 249.656, 190.762 241.262 L 175.524 226 190.762 210.738 C 199.143 202.344, 206 194.710, 206 193.773 C 206 192.837, 205.040 191.557, 203.868 190.929 C 201.921 189.887, 200.376 191.145, 186.109 205.391 L 170.482 220.995 141.015 191.515 L 111.548 162.036 126.774 146.695 C 135.148 138.258, 142 130.857, 142 130.249 C 142 129.033, 139.264 126, 138.166 126 C 137.787 126, 130.518 132.969, 122.013 141.486 L 106.551 156.973 90.955 141.486 C 82.377 132.969, 74.918 126, 74.379 126 C 73.841 126, 72.860 126.540, 72.200 127.200 " stroke="none" fill="black" fill-rule="evenodd"/>
</svg>