<svg xmlns="http://www.w3.org/2000/svg" width="148" height="324" viewBox="0 0 148 324" version="1.1">
	<path d="M 33.829 175.066 C 30.710 175.529, 25.219 177.241, 21.626 178.870 C 13.744 182.444, 4.771 190.400, 5.204 193.430 C 5.738 197.166, 9.662 196.567, 14.627 191.990 C 17.111 189.700, 21.699 186.636, 24.822 185.180 C 29.869 182.828, 31.722 182.532, 41.500 182.517 C 51.923 182.501, 52.852 182.672, 59.222 185.788 C 63.802 188.028, 67.277 190.655, 70.122 194.030 C 85.768 212.584, 115.952 214.572, 135.748 198.350 C 140.328 194.598, 141.045 191.672, 137.873 189.685 C 136.605 188.890, 135.264 189.469, 131.803 192.305 C 124.517 198.276, 116.710 201.317, 107.409 201.807 C 93.975 202.516, 83.819 198.549, 75.766 189.449 C 66.030 178.447, 49.421 172.751, 33.829 175.066 " stroke="none" fill="black" fill-rule="evenodd"/>
</svg>