<svg xmlns="http://www.w3.org/2000/svg" width="148" height="324" viewBox="0 0 148 324" version="1.1">
	<path d="M 63.102 127.104 C 48.516 129.321, 35.328 136.577, 24.168 148.528 C 14.666 158.702, 7 175.194, 7 185.460 C 7 186.929, 6.517 189.034, 5.926 190.138 C 5.180 191.532, 5.160 193.572, 5.861 196.822 C 6.416 199.395, 7.593 204.875, 8.477 209 C 11.159 221.514, 16.097 230.175, 26.461 240.539 C 36.829 250.907, 45.498 255.849, 58 258.516 C 62.125 259.396, 67.300 260.508, 69.500 260.987 C 71.813 261.490, 75.187 261.477, 77.500 260.955 C 79.700 260.459, 84.425 259.509, 88 258.843 C 91.656 258.163, 98.439 255.665, 103.500 253.136 C 120.331 244.726, 133.372 228.596, 138.014 210.444 C 144.028 186.930, 137.410 163.123, 120.095 145.981 C 104.892 130.930, 83.831 123.955, 63.102 127.104 M 57.500 135.870 C 41.398 140.505, 27.339 152.243, 20.214 167 C 17.957 171.675, 15.827 176.949, 15.482 178.720 L 14.854 181.941 21.328 179.005 C 35.707 172.485, 52.602 173.257, 65.787 181.037 C 67.617 182.116, 69.314 183, 69.557 183 C 69.801 183, 70 171.975, 70 158.500 L 70 134 66.750 134.071 C 64.963 134.110, 60.800 134.920, 57.500 135.870 M 78 163.396 L 78 192.792 82.750 195.814 C 96.538 204.589, 115.246 203.987, 129.250 194.317 C 133.706 191.240, 133.873 189.734, 131.003 178.511 C 126.717 161.754, 115.079 147.438, 99.820 140.153 C 92.461 136.639, 83.724 134, 79.451 134 C 78.216 134, 78 138.376, 78 163.396 M 28 184.038 C 24.975 185.119, 20.700 187.259, 18.500 188.793 C 14.823 191.357, 14.476 191.996, 14.201 196.707 C 13.133 214.977, 27.939 237.583, 47 246.786 C 51.675 249.043, 57.075 251.188, 59 251.551 C 62.316 252.178, 61.854 251.556, 50.250 239.767 C 43.513 232.922, 38 226.831, 38 226.232 C 38 224.820, 40.825 222, 42.239 222 C 42.841 222, 49.334 227.941, 56.667 235.202 L 70 248.405 70 220.712 L 70 193.019 65.250 189.540 C 55.132 182.130, 39.712 179.852, 28 184.038 M 125.500 204.557 C 110.455 211.861, 96.171 211.146, 78.750 202.218 C 78.338 202.006, 78 212.312, 78 225.119 L 78 248.405 91.333 235.202 C 98.666 227.941, 105.101 222, 105.633 222 C 107.120 222, 109 224.219, 109 225.975 C 109 226.841, 105.591 230.914, 101.425 235.025 C 97.259 239.136, 92.022 244.662, 89.787 247.304 L 85.724 252.107 88.612 251.445 C 90.200 251.081, 95.280 248.987, 99.899 246.791 C 115.319 239.461, 127.595 224.054, 131.405 207.250 C 132.185 203.813, 132.750 201.036, 132.661 201.080 C 132.573 201.123, 129.350 202.688, 125.500 204.557 " stroke="none" fill="black" fill-rule="evenodd"/>
</svg>