<svg xmlns="http://www.w3.org/2000/svg" width="84" height="324" viewBox="0 0 84 324" version="1.1">
	<path d="M 7.571 127.571 C 6.175 128.968, 6 136.372, 6 194 C 6 251.628, 6.175 259.032, 7.571 260.429 C 11.107 263.964, 14 260.760, 14 253.310 L 14 247.763 17.062 250.756 C 21.505 255.100, 28.620 258.653, 35.604 260.013 C 46.226 262.083, 58.487 258.180, 66.483 250.184 L 70 246.667 70 252.762 C 70 260.764, 72.779 264.078, 76.429 260.429 C 77.793 259.064, 78 254.537, 78 226 C 78 197.463, 77.793 192.936, 76.429 191.571 C 75.069 190.212, 70.758 190, 44.429 190 L 14 190 14 159.571 C 14 133.242, 13.788 128.931, 12.429 127.571 C 11.564 126.707, 10.471 126, 10 126 C 9.529 126, 8.436 126.707, 7.571 127.571 M 14.032 200.750 C 14.059 203.092, 14.251 203.278, 15.328 202 C 16.023 201.175, 17.223 199.938, 17.996 199.250 C 19.162 198.212, 18.942 198, 16.700 198 C 14.414 198, 14.005 198.421, 14.032 200.750 M 31.605 199.568 C 24.049 202.337, 24.073 202.527, 33.170 211.671 L 41.457 220.001 49.692 211.809 C 58.838 202.711, 58.906 202.178, 51.260 199.573 C 45.620 197.651, 36.842 197.649, 31.605 199.568 M 66.662 201 C 68.219 202.650, 69.607 204, 69.747 204 C 69.886 204, 70 202.650, 70 201 C 70 198.315, 69.676 198, 66.915 198 L 63.830 198 66.662 201 M 18.184 210.278 C 14.139 215.152, 12.867 227.319, 15.573 235.260 C 18.178 242.906, 18.711 242.838, 27.809 233.692 L 36.001 225.457 27.671 217.170 C 20.854 210.389, 19.131 209.137, 18.184 210.278 M 55.191 217.308 L 46.999 225.543 55.339 233.840 L 63.680 242.137 65.174 239.819 C 69.239 233.513, 70.153 223.740, 67.427 215.740 C 64.822 208.094, 64.289 208.162, 55.191 217.308 M 33.160 239.339 L 24.863 247.680 27.181 249.174 C 33.487 253.239, 43.260 254.153, 51.260 251.427 C 58.906 248.822, 58.838 248.289, 49.692 239.191 L 41.457 230.999 33.160 239.339 " stroke="none" fill="black" fill-rule="evenodd"/>
</svg>