<svg xmlns="http://www.w3.org/2000/svg" width="180" height="324" viewBox="0 0 180 324" version="1.1">
	<path d="M 39.267 159.267 C 20.970 177.563, 6 193.056, 6 193.695 C 6 195.187, 8.799 198, 10.285 198 C 10.913 198, 25.510 183.943, 42.723 166.762 L 74.019 135.523 103.754 165.258 L 133.489 194.993 117.744 226.501 C 109.085 243.830, 102 258.199, 102 258.433 C 102 258.666, 102.707 259.564, 103.571 260.429 C 104.936 261.793, 109.463 262, 138 262 C 166.537 262, 171.064 261.793, 172.429 260.429 C 173.293 259.564, 174 258.662, 174 258.423 C 174 258.183, 166.800 243.593, 158 226 L 142 194.012 142 161.577 C 142 133.425, 141.793 128.935, 140.429 127.571 C 138.455 125.598, 137.545 125.598, 135.571 127.571 C 134.219 128.924, 134 132.990, 134 156.799 L 134 184.455 104.711 155.227 C 88.602 139.152, 74.772 126, 73.978 126 C 73.183 126, 57.563 140.970, 39.267 159.267 M 124.743 228.500 L 112.005 254 138 254 L 163.995 254 151.257 228.500 C 144.250 214.475, 138.285 203, 138 203 C 137.715 203, 131.750 214.475, 124.743 228.500 " stroke="none" fill="black" fill-rule="evenodd"/>
</svg>