<svg xmlns="http://www.w3.org/2000/svg" width="84" height="324" viewBox="0 0 84 324" version="1.1">
	<path d="M 39.571 127.571 C 38.207 128.935, 38 133.425, 38 161.577 L 38 194.012 22 226 C 13.200 243.593, 6 258.183, 6 258.423 C 6 258.662, 6.707 259.564, 7.571 260.429 C 8.936 261.793, 13.463 262, 42 262 C 70.537 262, 75.064 261.793, 76.429 260.429 C 77.293 259.564, 78 258.662, 78 258.423 C 78 258.183, 70.800 243.593, 62 226 L 46 194.012 46 161.577 C 46 133.425, 45.793 128.935, 44.429 127.571 C 43.564 126.707, 42.471 126, 42 126 C 41.529 126, 40.436 126.707, 39.571 127.571 M 28.743 228.500 L 16.005 254 42 254 L 67.995 254 55.257 228.500 C 48.250 214.475, 42.285 203, 42 203 C 41.715 203, 35.750 214.475, 28.743 228.500 " stroke="none" fill="black" fill-rule="evenodd"/>
</svg>