<svg xmlns="http://www.w3.org/2000/svg" width="84" height="324" viewBox="0 0 84 324" version="1.1">
	<path d="M 7.571 127.571 C 6.707 128.436, 6 129.339, 6 129.578 C 6 129.817, 12.751 143.510, 21.003 160.006 L 36.006 190 22.575 190 C 11.697 190, 8.844 190.299, 7.571 191.571 C 5.598 193.545, 5.598 194.455, 7.571 196.429 C 8.855 197.712, 11.788 198, 23.571 198 L 38 198 38 210 L 38 222 23.571 222 C 11.788 222, 8.855 222.288, 7.571 223.571 C 5.598 225.545, 5.598 226.455, 7.571 228.429 C 8.855 229.712, 11.788 230, 23.571 230 L 38 230 38 244.429 C 38 256.212, 38.288 259.145, 39.571 260.429 C 41.545 262.402, 42.455 262.402, 44.429 260.429 C 45.712 259.145, 46 256.212, 46 244.429 L 46 230 60.429 230 C 72.212 230, 75.145 229.712, 76.429 228.429 C 78.402 226.455, 78.402 225.545, 76.429 223.571 C 75.145 222.288, 72.212 222, 60.429 222 L 46 222 46 210 L 46 198 60.429 198 C 72.212 198, 75.145 197.712, 76.429 196.429 C 78.402 194.455, 78.402 193.545, 76.429 191.571 C 75.156 190.299, 72.303 190, 61.425 190 L 47.994 190 62.980 160.039 C 71.223 143.561, 77.715 129.420, 77.406 128.616 C 76.735 126.867, 74.488 125.875, 72.726 126.552 C 72.025 126.820, 64.944 140.081, 56.990 156.020 C 49.036 171.959, 42.290 185, 42 185 C 41.709 185, 35.178 172.339, 27.486 156.864 C 19.794 141.389, 12.905 128.114, 12.179 127.364 C 10.470 125.600, 9.499 125.644, 7.571 127.571 " stroke="none" fill="black" fill-rule="evenodd"/>
</svg>