<svg xmlns="http://www.w3.org/2000/svg" width="84" height="324" viewBox="0 0 84 324" version="1.1">
	<path d="M 7.571 127.571 C 6.206 128.937, 6 133.497, 6 162.371 C 6 186.883, 6.315 195.915, 7.200 196.800 C 8.085 197.685, 17.117 198, 41.629 198 C 71.001 198, 75.046 197.811, 76.486 196.371 C 77.397 195.460, 77.839 194.027, 77.488 193.121 C 77.144 192.229, 76.446 189.316, 75.937 186.647 C 73.909 175.999, 65.834 166.108, 55.175 161.216 C 50.564 159.099, 48 158.611, 41.500 158.611 C 32.128 158.611, 24.947 161.343, 18.130 167.502 L 14 171.233 14 150.188 C 14 132.389, 13.758 128.900, 12.429 127.571 C 11.564 126.707, 10.471 126, 10 126 C 9.529 126, 8.436 126.707, 7.571 127.571 M 31.063 167.911 C 22.614 171.337, 16.617 178.318, 14.450 187.250 L 13.783 190 41.500 190 L 69.217 190 68.550 187.250 C 66.335 178.120, 59.528 170.390, 51.205 167.554 C 45.221 165.515, 36.594 165.668, 31.063 167.911 " stroke="none" fill="black" fill-rule="evenodd"/>
</svg>