<svg xmlns="http://www.w3.org/2000/svg" width="84" height="324" viewBox="0 0 84 324" version="1.1">
	<path d="M 31.263 111.514 C 24.240 113.040, 15.376 117.492, 9.682 122.354 L 5.863 125.614 5.964 191.810 C 6.020 228.217, 6.301 258.567, 6.589 259.253 C 7.274 260.885, 17.274 267.361, 23 269.882 C 30.575 273.216, 40.185 274.427, 48.379 273.079 C 55.948 271.834, 64.455 268.413, 69.458 264.604 C 71.131 263.330, 73.471 261.981, 74.658 261.606 C 75.844 261.231, 77.073 260.253, 77.387 259.434 C 77.701 258.614, 78.019 228.594, 78.092 192.722 L 78.226 127.500 73.863 123.182 C 68.309 117.686, 57.355 112.332, 49 111.029 C 40.928 109.770, 39.055 109.821, 31.263 111.514 M 29 119.875 C 23.159 121.752, 15 126.434, 15 127.908 C 15 129.464, 24.318 134.770, 29.932 136.412 C 40.865 139.609, 53.773 137.825, 63.250 131.807 C 65.862 130.149, 68 128.435, 68 128 C 68 126.522, 58.524 121.184, 53.068 119.588 C 46.026 117.529, 35.926 117.649, 29 119.875 M 14 196.620 L 14 255.904 18.651 259.104 C 32.093 268.352, 52.242 268.085, 65.250 258.486 L 70 254.981 70 195.907 C 70 163.416, 69.662 137.004, 69.250 137.212 C 53.393 145.208, 45.549 146.948, 34.079 145.013 C 30.034 144.331, 23.985 142.361, 20.411 140.563 L 14 137.336 14 196.620 " stroke="none" fill="black" fill-rule="evenodd"/>
</svg>