<svg xmlns="http://www.w3.org/2000/svg" width="148" height="324" viewBox="0 0 148 324" version="1.1">
	<path d="M 35.045 127.055 C 19.573 130.217, 7.300 144.030, 6.821 158.824 C 6.512 168.348, 15.163 195.616, 22.890 209.478 L 26.781 216.457 16.390 237.219 C 10.676 248.639, 6 258.179, 6 258.419 C 6 258.660, 6.707 259.564, 7.571 260.429 C 8.968 261.825, 16.372 262, 74 262 C 131.628 262, 139.032 261.825, 140.429 260.429 C 141.293 259.564, 142 258.660, 142 258.419 C 142 258.179, 137.291 248.571, 131.535 237.069 L 121.069 216.156 125.947 206.828 C 135.378 188.793, 141.427 166.655, 139.785 156.185 C 135.706 130.170, 105.091 117.726, 84.260 133.616 L 81.017 136.089 78.828 131.582 C 75.291 124.302, 72.154 124.447, 68.888 132.040 L 66.819 136.849 62.460 133.522 C 55.178 127.963, 43.771 125.273, 35.045 127.055 M 31.463 135.591 C 25.971 137.541, 20.552 142.205, 17.249 147.824 C 14.937 151.757, 14.526 153.533, 14.665 159 C 14.944 170.045, 22.323 194.481, 28.389 204.451 L 30.793 208.402 47.008 175.983 L 63.224 143.565 59.362 140.304 C 52.236 134.286, 40.651 132.329, 31.463 135.591 M 95.748 135.427 C 91.567 136.919, 85 141.581, 85 143.057 C 85 143.582, 92.254 158.514, 101.120 176.239 L 117.239 208.466 120.675 201.650 C 128.011 187.098, 133.842 165.098, 132.584 156.712 C 131.195 147.446, 123.365 138.316, 114.101 135.159 C 109.601 133.625, 100.422 133.759, 95.748 135.427 M 72.500 141 C 72.151 142.100, 72.177 143.983, 72.558 145.184 C 73.243 147.340, 73.269 147.334, 74.621 144.754 C 75.963 142.193, 75.596 139, 73.960 139 C 73.506 139, 72.849 139.900, 72.500 141 M 78.630 153.250 C 78.299 154.488, 78.021 156.862, 78.014 158.527 C 77.998 161.961, 75.567 166, 73.515 166 C 71.060 166, 69.002 162.938, 68.930 159.179 C 68.738 149.153, 67.819 150.420, 51.222 183.578 L 35.166 215.656 40.102 222.247 C 46.202 230.392, 57.644 241.178, 66.881 247.489 L 73.856 252.255 80.634 247.517 C 90.318 240.747, 97.723 234.087, 104.020 226.482 C 113.701 214.790, 114.542 219.633, 96.485 183.096 C 87.761 165.443, 80.310 151, 79.928 151 C 79.546 151, 78.962 152.012, 78.630 153.250 M 23.735 238.508 L 16.008 254 39.653 254 L 63.298 254 56.899 249.125 C 50.552 244.288, 38.703 232.487, 33.941 226.258 L 31.462 223.016 23.735 238.508 M 108.500 232.210 C 104.650 236.711, 97.834 243.342, 93.354 246.947 L 85.207 253.500 107.751 253.769 C 120.150 253.917, 130.477 253.856, 130.700 253.633 C 131.193 253.140, 116.744 223.995, 116.016 224.013 C 115.732 224.020, 112.350 227.709, 108.500 232.210 " stroke="none" fill="black" fill-rule="evenodd"/>
</svg>