<svg xmlns="http://www.w3.org/2000/svg" width="212" height="324" viewBox="0 0 212 324" version="1.1">
	<path d="M 39.571 127.571 C 38.207 128.935, 38 133.425, 38 161.577 L 38 194.012 22.016 225.967 C 13.225 243.542, 6.285 258.580, 6.594 259.384 C 7.265 261.133, 9.512 262.124, 11.274 261.448 C 11.975 261.180, 19.056 247.919, 27.010 231.980 C 34.964 216.041, 41.710 203, 42 203 C 42.290 203, 49.036 216.041, 56.990 231.980 C 64.944 247.919, 72.025 261.180, 72.726 261.448 C 74.486 262.124, 76.735 261.134, 77.404 259.390 C 77.711 258.589, 70.887 243.773, 62.238 226.466 L 46.514 194.999 76.001 165.499 C 92.218 149.275, 105.784 136, 106.146 136 C 106.509 136, 120.109 149.083, 136.369 165.073 L 165.933 194.146 149.983 226.034 C 140.610 244.773, 134.278 258.560, 134.627 259.470 C 134.953 260.321, 136.183 261.252, 137.360 261.538 C 138.537 261.825, 154.076 261.933, 171.891 261.779 C 201.460 261.524, 204.379 261.348, 205.385 259.752 C 206.290 258.317, 203.574 252.173, 190.244 225.498 L 174 192.992 174 160.531 C 174 128.759, 173.956 128.047, 171.936 126.966 C 170.404 126.146, 169.502 126.168, 168.436 127.053 C 167.249 128.038, 167 133.211, 167 156.866 L 167 185.487 137.244 155.744 C 120.878 139.385, 106.833 126, 106.033 126 C 105.233 126, 91.398 139.152, 75.289 155.227 L 46 184.455 46 156.799 C 46 132.990, 45.781 128.924, 44.429 127.571 C 43.564 126.707, 42.471 126, 42 126 C 41.529 126, 40.436 126.707, 39.571 127.571 M 103.557 160.223 C 102.378 161.905, 102 165.100, 102 173.368 L 102 184.290 96.560 179.145 C 93.568 176.315, 90.675 174, 90.131 174 C 88.829 174, 86 176.861, 86 178.178 C 86 178.747, 89.226 182.540, 93.169 186.607 L 100.338 194 93.169 201.393 C 89.226 205.460, 86 209.253, 86 209.822 C 86 211.139, 88.829 214, 90.131 214 C 90.675 214, 93.568 211.685, 96.560 208.855 L 102 203.710 102 214.632 C 102 222.900, 102.378 226.095, 103.557 227.777 C 105.402 230.412, 106.322 230.535, 108.429 228.429 C 109.675 227.182, 110 224.476, 110 215.328 L 110 203.799 115.581 208.900 C 118.650 211.705, 121.543 214, 122.009 214 C 123.199 214, 126 211.068, 126 209.822 C 126 209.253, 122.774 205.460, 118.831 201.393 L 111.662 194 118.831 186.607 C 122.774 182.540, 126 178.747, 126 178.178 C 126 176.932, 123.199 174, 122.009 174 C 121.543 174, 118.650 176.295, 115.581 179.100 L 110 184.201 110 172.672 C 110 163.524, 109.675 160.818, 108.429 159.571 C 106.322 157.465, 105.402 157.588, 103.557 160.223 M 157.567 227.866 C 150.591 241.809, 145.068 253.401, 145.293 253.626 C 145.518 253.851, 156.965 253.915, 170.730 253.767 L 195.759 253.500 183.004 228.008 L 170.250 202.516 157.567 227.866 " stroke="none" fill="black" fill-rule="evenodd"/>
</svg>