<svg xmlns="http://www.w3.org/2000/svg" width="180" height="324" viewBox="0 0 180 324" version="1.1">
	<path d="M 20.764 222.982 C 12.173 225.612, 6.580 232.914, 6.580 241.500 C 6.580 247.534, 9.981 254.209, 14.462 256.972 C 22.626 262.005, 22.090 261.970, 90.221 261.985 L 153.943 262 159.221 259.623 C 162.125 258.316, 165.508 256.278, 166.739 255.094 C 175.685 246.496, 173.818 231.506, 163.011 225.152 L 158.500 222.500 91 222.322 C 53.875 222.224, 22.269 222.521, 20.764 222.982 M 17.400 233.400 C 10.450 240.350, 14.088 251.132, 24.028 253.050 C 30.069 254.216, 150.442 254.196, 155.500 253.029 C 161.351 251.679, 165 247.206, 165 241.384 C 165 237.504, 164.478 236.278, 161.600 233.400 L 158.200 230 89.500 230 L 20.800 230 17.400 233.400 " stroke="none" fill="black" fill-rule="evenodd"/>
</svg>