<svg xmlns="http://www.w3.org/2000/svg" width="148" height="324" viewBox="0 0 148 324" version="1.1">
	<path d="M 64.500 62.944 C 56.325 64.268, 50.930 65.991, 43 69.814 C 32.444 74.903, 18.927 88.404, 13.778 99 C 7.648 111.615, 4.334 129.191, 7.491 132.348 C 10.992 135.850, 14 132.834, 14 125.823 C 14 107.461, 27.851 85.945, 45.603 76.732 C 79.754 59.007, 121.534 77.490, 131.003 114.511 C 132.101 118.806, 133 124.482, 133 127.125 C 133 130.956, 133.418 132.154, 135.064 133.034 C 142.863 137.208, 141.093 114.561, 132.303 97.700 C 129.753 92.809, 125.954 87.890, 120.457 82.361 C 113.703 75.568, 110.806 73.478, 102.933 69.719 C 97.745 67.242, 91.475 64.743, 89 64.165 C 82.400 62.623, 70.232 62.016, 64.500 62.944 M 71.663 126.750 C 70.604 128.495, 6 258.061, 6 258.440 C 6 258.670, 6.707 259.564, 7.571 260.429 C 8.968 261.825, 16.372 262, 74 262 C 131.628 262, 139.032 261.825, 140.429 260.429 C 141.293 259.564, 142 258.663, 142 258.426 C 142 257.155, 76.584 127.384, 75.631 126.765 C 74.159 125.809, 72.238 125.802, 71.663 126.750 M 44.747 196.500 L 16.002 254 73.584 254 C 106.809 254, 131.026 253.624, 130.833 253.110 C 129.507 249.569, 74.483 139, 74.047 139 C 73.742 139, 60.557 164.875, 44.747 196.500 " stroke="none" fill="black" fill-rule="evenodd"/>
</svg>