<svg xmlns="http://www.w3.org/2000/svg" width="212" height="324" viewBox="0 0 212 324" version="1.1">
	<path d="M 64.500 126.948 C 48.488 129.527, 38.192 134.820, 26.461 146.500 C 19.435 153.496, 16.611 157.170, 13.778 163 C 7.648 175.615, 4.334 193.191, 7.491 196.348 C 9.547 198.404, 10.439 198.418, 12.429 196.429 C 13.379 195.478, 14 193.126, 14 190.478 C 14 177.279, 20.776 162.128, 31.452 151.452 C 37.030 145.873, 40.638 143.277, 47.101 140.191 C 54.848 136.492, 63.279 134, 68.049 134 C 69.962 134, 70 135.171, 70 194 L 70 254 55.571 254 C 43.788 254, 40.855 254.288, 39.571 255.571 C 37.598 257.545, 37.598 258.455, 39.571 260.429 C 40.936 261.793, 45.463 262, 74 262 C 102.537 262, 107.064 261.793, 108.429 260.429 C 110.402 258.455, 110.402 257.545, 108.429 255.571 C 107.145 254.288, 104.212 254, 92.429 254 L 78 254 78 194 C 78 137.518, 78.103 134.001, 79.750 134.015 C 80.713 134.023, 84.379 134.708, 87.897 135.537 C 112.055 141.232, 133 166.053, 133 188.988 C 133 191.503, 133.699 194.554, 134.557 195.777 C 136.104 197.986, 136.290 198, 164.793 198 L 193.472 198 180.236 211.263 C 172.956 218.558, 167 225.218, 167 226.063 C 167 227.796, 168.896 230, 170.385 230 C 172.047 230, 206 195.680, 206 194 C 206 192.320, 172.047 158, 170.385 158 C 168.896 158, 167 160.204, 167 161.937 C 167 162.782, 172.956 169.442, 180.236 176.737 L 193.472 190 167.281 190 L 141.091 190 140.504 186.250 C 137.547 167.334, 129.392 152.485, 115.864 141.388 C 109.502 136.170, 98.701 130.661, 90.831 128.621 C 83.518 126.726, 70.871 125.922, 64.500 126.948 " stroke="none" fill="black" fill-rule="evenodd"/>
</svg>