<svg xmlns="http://www.w3.org/2000/svg" width="84" height="324" viewBox="0 0 84 324" version="1.1">
	<path d="M 7.571 127.572 C 5.673 129.470, 6.265 134.749, 9.302 142.993 C 12.116 150.632, 20.486 158.900, 28.507 161.963 C 50.202 170.248, 72.777 156.737, 76.361 133.322 C 76.981 129.270, 75.480 126, 73 126 C 71.208 126, 69 129.253, 69 131.893 C 69 137.333, 65.749 144.347, 61.048 149.048 C 50.327 159.769, 32.673 159.769, 21.952 149.048 C 17.251 144.347, 14 137.333, 14 131.893 C 14 129.253, 11.792 126, 10 126 C 9.529 126, 8.436 126.707, 7.571 127.572 " stroke="none" fill="black" fill-rule="evenodd"/>
</svg>