<svg xmlns="http://www.w3.org/2000/svg" width="148" height="324" viewBox="0 0 148 324" version="1.1">
	<path d="M 7.579 127.564 C 6.710 128.432, 6 129.529, 6 130 C 6 130.471, 6.710 131.568, 7.579 132.436 C 8.990 133.847, 16.058 133.987, 74.220 133.757 C 134.934 133.517, 139.356 133.383, 140.386 131.750 C 141.191 130.474, 141.191 129.526, 140.386 128.250 C 139.356 126.617, 134.934 126.483, 74.220 126.243 C 16.058 126.013, 8.990 126.153, 7.579 127.564 M 66.223 159.008 C 55.939 161.164, 46.017 169.415, 41.189 179.825 C 39.049 184.438, 38.551 187.001, 38.528 193.521 C 38.503 200.581, 38.889 202.333, 41.750 208.144 C 45.619 216.003, 51.929 222.162, 59.805 225.768 C 70.619 230.719, 85.929 228.636, 95.255 220.944 C 99.885 217.124, 104.590 210.408, 106.591 204.761 C 108.855 198.369, 108.544 187.529, 105.893 180.443 C 100.298 165.489, 82.132 155.673, 66.223 159.008 M 63.463 167.591 C 57.971 169.541, 52.552 174.205, 49.249 179.824 C 46.800 183.989, 46.500 185.483, 46.500 193.500 C 46.500 201.517, 46.800 203.011, 49.249 207.176 C 54.560 216.211, 63.166 221, 74.091 221 C 78.610 221, 81.168 220.307, 86.163 217.729 C 106.081 207.447, 105.901 179.103, 85.854 169.085 C 78.840 165.580, 70.664 165.035, 63.463 167.591 M 71.571 191.571 C 70.707 192.436, 70 193.529, 70 194 C 70 194.471, 70.707 195.564, 71.571 196.429 C 72.436 197.293, 73.529 198, 74 198 C 74.471 198, 75.564 197.293, 76.429 196.429 C 77.293 195.564, 78 194.471, 78 194 C 78 193.529, 77.293 192.436, 76.429 191.571 C 75.564 190.707, 74.471 190, 74 190 C 73.529 190, 72.436 190.707, 71.571 191.571 M 7.579 255.564 C 6.710 256.432, 6 257.529, 6 258 C 6 258.471, 6.710 259.568, 7.579 260.436 C 8.990 261.847, 16.058 261.987, 74.220 261.757 C 134.934 261.517, 139.356 261.383, 140.386 259.750 C 141.191 258.474, 141.191 257.526, 140.386 256.250 C 139.356 254.617, 134.934 254.483, 74.220 254.243 C 16.058 254.013, 8.990 254.153, 7.579 255.564 " stroke="none" fill="black" fill-rule="evenodd"/>
</svg>