<svg xmlns="http://www.w3.org/2000/svg" width="212" height="324" viewBox="0 0 212 324" version="1.1">
	<path d="M 7.200 159.200 C 5.471 160.929, 5.471 259.071, 7.200 260.800 C 8.940 262.540, 203.060 262.540, 204.800 260.800 C 206.529 259.071, 206.529 160.929, 204.800 159.200 C 203.060 157.460, 8.940 157.460, 7.200 159.200 M 14 210 L 14 254 106 254 L 198 254 198 210 L 198 166 106 166 L 14 166 14 210 M 167.557 192.223 C 166.331 193.973, 166 197.371, 166 208.223 L 166 222 103.571 222 C 48.152 222, 40.966 222.176, 39.571 223.571 C 37.598 225.545, 37.598 226.455, 39.571 228.429 C 40.968 229.825, 48.406 230, 106.371 230 C 155.771 230, 171.891 229.709, 172.800 228.800 C 173.643 227.957, 174 222.319, 174 209.835 C 174 193.295, 173.867 191.999, 172.066 191.035 C 169.462 189.642, 169.343 189.673, 167.557 192.223 " stroke="none" fill="black" fill-rule="evenodd"/>
</svg>