<svg xmlns="http://www.w3.org/2000/svg" width="148" height="324" viewBox="0 0 148 324" version="1.1">
	<path d="M 7.750 127.080 C 6.787 127.641, 6 128.867, 6 129.806 C 6 130.744, 20.400 145.906, 38 163.500 L 70 195.488 70 224.744 L 70 254 39.571 254 C 13.242 254, 8.931 254.212, 7.571 255.571 C 5.596 257.546, 5.598 258.455, 7.579 260.436 C 8.990 261.847, 16.058 261.987, 74.220 261.757 C 134.934 261.517, 139.356 261.383, 140.386 259.750 C 141.191 258.474, 141.191 257.526, 140.386 256.250 C 139.381 254.655, 136.566 254.477, 108.641 254.236 L 78 253.971 78.036 224.736 L 78.073 195.500 110.036 163.218 C 127.616 145.463, 142 130.533, 142 130.040 C 142 129.546, 141.293 128.436, 140.429 127.571 C 139.032 126.175, 131.670 126.003, 74.179 126.030 C 32.111 126.050, 8.888 126.417, 7.750 127.080 M 46.752 161.248 L 74 188.495 101.248 161.248 L 128.495 134 74 134 L 19.505 134 46.752 161.248 " stroke="none" fill="black" fill-rule="evenodd"/>
</svg>