<svg xmlns="http://www.w3.org/2000/svg" width="116" height="324" viewBox="0 0 116 324" version="1.1">
	<path d="M 67.045 127.051 C 55.410 129.440, 44.965 138.133, 41.001 148.727 C 39.665 152.299, 38.676 157.947, 38.296 164.178 L 37.698 174 23.420 174 C 11.774 174, 8.853 174.290, 7.571 175.571 C 5.598 177.545, 5.598 178.455, 7.571 180.429 C 8.855 181.712, 11.788 182, 23.571 182 L 38 182 38 194 L 38 206 23.571 206 C 11.788 206, 8.855 206.288, 7.571 207.571 C 5.598 209.545, 5.598 210.455, 7.571 212.429 C 8.853 213.710, 11.775 214, 23.425 214 L 37.706 214 38.265 223.250 C 39.040 236.071, 41.760 242.920, 48.920 250.080 C 56.200 257.360, 63.454 260.326, 74.020 260.345 C 80.102 260.355, 82.682 259.836, 87.520 257.627 C 97.418 253.106, 104.387 245.171, 107.416 234.972 C 109.627 227.526, 109.468 224.321, 106.817 222.902 C 104.958 221.907, 104.364 222.067, 102.817 223.978 C 101.818 225.212, 101 227.658, 101 229.414 C 101 237.467, 92.179 248.388, 83.205 251.446 C 69.548 256.099, 55.404 250.499, 49.136 237.957 C 46.331 232.343, 46 230.747, 46 222.840 L 46 214 60.429 214 C 72.212 214, 75.145 213.712, 76.429 212.429 C 78.402 210.455, 78.402 209.545, 76.429 207.571 C 75.145 206.288, 72.212 206, 60.429 206 L 46 206 46 194 L 46 182 60.429 182 C 72.212 182, 75.145 181.712, 76.429 180.429 C 77.293 179.564, 78 178.471, 78 178 C 78 177.529, 77.293 176.436, 76.429 175.571 C 75.145 174.288, 72.212 174, 60.429 174 L 46 174 46.022 164.750 C 46.056 150.481, 50.460 142.425, 61.146 137.085 C 75.200 130.062, 91.519 135.367, 98.412 149.199 C 99.835 152.055, 101 156.054, 101 158.086 C 101 160.164, 101.794 162.759, 102.817 164.022 C 104.403 165.981, 104.928 166.109, 106.946 165.029 C 109.043 163.907, 109.207 163.294, 108.706 158.443 C 106.616 138.186, 86.529 123.051, 67.045 127.051 " stroke="none" fill="black" fill-rule="evenodd"/>
</svg>