<svg xmlns="http://www.w3.org/2000/svg" width="212" height="324" viewBox="0 0 212 324" version="1.1">
	<path d="M 104.369 126.751 C 103.746 127.163, 89.008 155.963, 71.617 190.750 L 39.997 254 24.570 254 C 11.879 254, 8.864 254.279, 7.571 255.571 C 5.598 257.545, 5.598 258.455, 7.571 260.429 C 8.936 261.793, 13.463 262, 42 262 C 70.537 262, 75.064 261.793, 76.429 260.429 C 78.402 258.455, 78.402 257.545, 76.429 255.571 C 75.156 254.299, 72.303 254, 61.430 254 L 48.002 254 76.747 196.500 C 92.557 164.875, 105.721 139, 106 139 C 106.279 139, 119.437 164.862, 135.239 196.472 L 163.970 253.944 150.342 254.222 C 138.639 254.461, 136.559 254.747, 135.612 256.250 C 134.809 257.525, 134.810 258.475, 135.614 259.750 C 136.622 261.349, 139.531 261.523, 169.399 261.764 C 203.209 262.037, 206 261.750, 206 258 C 206 254.712, 202.694 254.001, 187.316 253.980 L 172.500 253.960 140.343 190.230 C 122.657 155.179, 107.582 126.388, 106.843 126.251 C 106.104 126.114, 104.991 126.339, 104.369 126.751 " stroke="none" fill="black" fill-rule="evenodd"/>
</svg>