<svg xmlns="http://www.w3.org/2000/svg" width="148" height="324" viewBox="0 0 148 324" version="1.1">
	<path d="M 64.500 126.944 C 48.438 129.544, 38.175 134.825, 26.498 146.500 C 13.978 159.017, 8.459 170.637, 6.503 188.598 C 5.964 193.549, 6.150 195.007, 7.491 196.348 C 10.992 199.850, 14 196.834, 14 189.823 C 14 176.973, 20.772 162.004, 31.388 151.388 C 42.912 139.864, 56.893 134, 72.845 134 C 83.674 134, 89.916 135.424, 99.820 140.153 C 109.977 145.002, 119.912 154.325, 125.340 164.101 C 129.365 171.350, 133 183.919, 133 190.589 C 133 194.479, 134.839 198, 136.871 198 C 140.488 198, 141.008 188.260, 138.014 176.556 C 135.002 164.779, 129.769 155.793, 120.433 146.367 C 113.680 139.549, 110.828 137.488, 102.933 133.719 C 97.745 131.242, 91.475 128.743, 89 128.165 C 82.400 126.623, 70.232 126.016, 64.500 126.944 M 72.348 190.765 C 70.390 192.014, 38.011 257.865, 38.600 259.400 C 39.451 261.618, 42.109 262.213, 43.895 260.584 C 44.778 259.779, 51.794 246.493, 59.486 231.060 C 67.178 215.627, 73.709 203, 74 203 C 74.290 203, 81.036 216.041, 88.990 231.980 C 96.944 247.919, 104.083 261.201, 104.853 261.497 C 106.717 262.213, 109 260.217, 109 257.871 C 109 255.637, 77.272 191.833, 75.630 190.765 C 75.009 190.361, 74.275 190.031, 74 190.031 C 73.725 190.031, 72.981 190.361, 72.348 190.765 " stroke="none" fill="black" fill-rule="evenodd"/>
</svg>