<svg xmlns="http://www.w3.org/2000/svg" width="148" height="324" viewBox="0 0 148 324" version="1.1">
	<path d="M 65 190.618 C 51.622 192.228, 35.753 198.433, 24.529 206.442 C 17.274 211.619, 6 223.502, 6 225.971 C 6 227.990, 19.578 241.329, 26.256 245.870 C 40.408 255.494, 56.020 260.243, 73.500 260.243 C 92.234 260.243, 108.206 255.003, 122.920 244.030 C 130.234 238.575, 141 227.796, 141 225.928 C 141 223.871, 130.257 212.364, 123.720 207.419 C 115.719 201.367, 103.575 195.548, 93.722 193.044 C 85.890 191.054, 71.486 189.837, 65 190.618 M 55 200.006 C 42.104 203.481, 26.531 212.230, 19.590 219.901 L 17.690 222 72.845 222 C 103.180 222, 128 221.629, 128 221.175 C 128 219.856, 116.015 210.546, 110 207.192 C 99.102 201.116, 89.854 198.744, 75.500 198.345 C 64.793 198.048, 61.177 198.341, 55 200.006 M 20.016 231.519 C 22.740 234.802, 33.855 242.458, 40.500 245.628 C 68.380 258.931, 100.589 254.283, 124.500 233.506 L 128.500 230.030 73.628 230.015 C 24.654 230.002, 18.891 230.163, 20.016 231.519 " stroke="none" fill="black" fill-rule="evenodd"/>
</svg>