<svg xmlns="http://www.w3.org/2000/svg" width="84" height="324" viewBox="0 0 84 324" version="1.1">
	<path d="M 7.200 127.200 C 6.291 128.109, 6 144.229, 6 193.629 C 6 251.594, 6.175 259.032, 7.571 260.429 C 8.436 261.293, 9.529 262, 10 262 C 10.471 262, 11.564 261.293, 12.429 260.429 C 13.824 259.034, 14 251.848, 14 196.429 L 14 134 26 134 L 38 134 38 196.429 C 38 251.848, 38.176 259.034, 39.571 260.429 C 40.436 261.293, 41.529 262, 42 262 C 42.471 262, 43.564 261.293, 44.429 260.429 C 45.824 259.034, 46 251.848, 46 196.429 L 46 134 58 134 L 70 134 70 196.429 C 70 251.848, 70.176 259.034, 71.571 260.429 C 73.545 262.402, 74.455 262.402, 76.429 260.429 C 77.825 259.032, 78 251.594, 78 193.629 C 78 144.229, 77.709 128.109, 76.800 127.200 C 75.081 125.481, 8.919 125.481, 7.200 127.200 " stroke="none" fill="black" fill-rule="evenodd"/>
</svg>