<svg xmlns="http://www.w3.org/2000/svg" width="276" height="324" viewBox="0 0 276 324" version="1.1">
	<path d="M 135.571 127.571 C 134.219 128.924, 134 132.988, 134 156.774 L 134 184.405 120.667 171.202 C 113.334 163.941, 106.841 158, 106.239 158 C 104.822 158, 102 160.822, 102 162.239 C 102 162.841, 107.941 169.334, 115.202 176.667 L 128.405 190 68.774 190 C 15.897 190, 8.965 190.178, 7.571 191.571 C 5.598 193.545, 5.598 194.455, 7.571 196.429 C 8.965 197.822, 15.897 198, 68.774 198 L 128.405 198 115.202 211.333 C 107.941 218.666, 102 225.159, 102 225.761 C 102 227.178, 104.822 230, 106.239 230 C 106.841 230, 113.334 224.059, 120.667 216.798 L 134 203.595 134 231.226 C 134 255.012, 134.219 259.076, 135.571 260.429 C 136.436 261.293, 137.529 262, 138 262 C 138.471 262, 139.564 261.293, 140.429 260.429 C 141.788 259.069, 142 254.758, 142 228.429 L 142 198 199.202 198 L 256.405 198 243.202 211.333 C 235.941 218.666, 230 225.159, 230 225.761 C 230 227.187, 232.825 230, 234.257 230 C 236.006 230, 270 195.761, 270 194 C 270 192.239, 236.006 158, 234.257 158 C 232.825 158, 230 160.813, 230 162.239 C 230 162.841, 235.941 169.334, 243.202 176.667 L 256.405 190 199.202 190 L 142 190 142 159.571 C 142 133.242, 141.788 128.931, 140.429 127.571 C 139.564 126.707, 138.471 126, 138 126 C 137.529 126, 136.436 126.707, 135.571 127.571 " stroke="none" fill="black" fill-rule="evenodd"/>
</svg>