<svg xmlns="http://www.w3.org/2000/svg" width="148" height="324" viewBox="0 0 148 324" version="1.1">
	<path d="M 7.627 127.515 C 6.732 128.411, 6 129.529, 6 130 C 6 132.122, 9.426 134.001, 13.321 134.015 C 31.886 134.080, 53.672 148.320, 62.330 166.046 C 65.956 173.472, 69 183.357, 69 187.710 L 69 190 39.071 190 C 13.197 190, 8.930 190.213, 7.571 191.571 C 5.598 193.545, 5.598 194.455, 7.571 196.429 C 8.930 197.787, 13.197 198, 39.071 198 C 73.156 198, 70.165 196.996, 67.485 207.540 C 66.652 210.818, 64.332 216.854, 62.330 220.954 C 53.672 238.680, 31.886 252.920, 13.321 252.985 C 9.426 252.999, 6 254.878, 6 257 C 6 257.471, 6.732 258.589, 7.627 259.485 C 9.481 261.339, 15.983 260.937, 26.500 258.320 C 43.554 254.077, 61.033 239.898, 68.824 223.988 C 73.053 215.351, 76 205.825, 76 200.790 L 76 198 102.202 198 L 128.405 198 115.202 211.333 C 107.941 218.666, 102 225.159, 102 225.761 C 102 227.200, 104.997 230.172, 106.068 229.795 C 107.353 229.342, 142 194.827, 142 194 C 142 193.173, 107.353 158.658, 106.068 158.205 C 104.997 157.828, 102 160.800, 102 162.239 C 102 162.841, 107.941 169.334, 115.202 176.667 L 128.405 190 102.202 190 L 76 190 76 186.710 C 76 181.208, 73.200 171.950, 68.850 163.065 C 61.003 147.039, 43.646 132.946, 26.500 128.680 C 15.983 126.063, 9.481 125.661, 7.627 127.515 " stroke="none" fill="black" fill-rule="evenodd"/>
</svg>