<svg xmlns="http://www.w3.org/2000/svg" width="164" height="324" viewBox="0 0 164 324" version="1.1">
	<path d="M 71.571 127.571 C 70.212 128.931, 70 133.242, 70 159.571 L 70 190 39.571 190 C 13.242 190, 8.931 190.212, 7.571 191.571 C 5.703 193.440, 5.728 192.881, 7.078 202.678 C 10.740 229.250, 30.650 251.481, 57.163 258.602 C 65.551 260.855, 81.395 260.878, 90 258.650 C 116.063 251.900, 134.519 231.587, 140.050 203.563 C 142.120 193.073, 142.135 192.572, 140.413 191.313 C 139.025 190.297, 131.750 190, 108.309 190 L 78 190 78 159.571 C 78 133.242, 77.788 128.931, 76.429 127.571 C 75.564 126.707, 74.471 126, 74 126 C 73.529 126, 72.436 126.707, 71.571 127.571 M 88.200 143.200 C 85.346 146.054, 87.235 148.642, 104.250 165.190 C 113.737 174.417, 121.955 181.974, 122.511 181.983 C 124.245 182.012, 158 147.574, 158 145.775 C 158 144.837, 157.040 143.557, 155.868 142.929 C 153.921 141.887, 152.376 143.144, 138.118 157.376 L 122.500 172.963 106.936 157.482 C 98.376 148.967, 90.928 142, 90.386 142 C 89.844 142, 88.860 142.540, 88.200 143.200 M 14.015 199.750 C 14.023 200.713, 14.708 204.379, 15.537 207.897 C 19.356 224.095, 31.887 239.545, 47.101 246.809 C 57.018 251.545, 63.332 253.005, 73.799 252.985 C 98.567 252.938, 120.843 237.597, 129.485 214.636 C 130.815 211.103, 132.208 205.914, 132.580 203.106 L 133.258 198 73.629 198 C 17.501 198, 14.001 198.103, 14.015 199.750 " stroke="none" fill="black" fill-rule="evenodd"/>
</svg>