<svg xmlns="http://www.w3.org/2000/svg" width="196" height="324" viewBox="0 0 196 324" version="1.1">
	<path d="M 145.312 165.201 L 106.065 204.401 98.639 197.201 C 94.555 193.240, 90.624 190, 89.903 190 C 89.183 190, 77.750 200.810, 64.497 214.023 L 40.400 238.047 34.091 239.063 C 30.622 239.621, 24.928 241.373, 21.438 242.955 C 13.716 246.457, 4.775 254.429, 5.204 257.430 C 5.738 261.166, 9.662 260.567, 14.627 255.990 C 18.344 252.563, 28.270 247, 30.665 247 C 31 247, 29.187 249.231, 26.637 251.957 C 24.087 254.684, 22 257.482, 22 258.175 C 22 259.899, 56.217 294, 57.946 294 C 58.706 294, 64.992 288.443, 71.914 281.651 L 84.500 269.303 90.500 271.281 C 103.412 275.539, 119.833 273.201, 131.528 265.437 C 140.095 259.751, 141.974 256.272, 137.873 253.690 C 136.602 252.890, 135.271 253.464, 131.803 256.305 C 124.291 262.461, 116.736 265.340, 107 265.758 C 101.759 265.983, 96.897 265.620, 94.319 264.812 L 90.137 263.500 108.069 245.236 C 117.931 235.191, 126 226.540, 126 226.012 C 126 225.483, 122.737 221.637, 118.749 217.463 L 111.498 209.876 150.249 170.929 C 172.323 148.742, 189 131.211, 189 130.191 C 189 128.225, 187.184 126, 185.579 126 C 185.018 126, 166.898 143.640, 145.312 165.201 M 70.044 219.456 C 53.860 235.655, 50.933 239.017, 52.554 239.537 C 62.809 242.832, 67.928 245.837, 74.996 252.711 L 82.492 260.001 99.487 243.006 L 116.482 226.011 103.505 213.005 C 96.368 205.852, 90.293 200, 90.005 200 C 89.717 200, 80.734 208.755, 70.044 219.456 M 37.487 252.013 L 31.536 258.027 44.767 271.258 L 57.998 284.489 67.517 274.970 L 77.036 265.451 71.768 259.879 C 65.166 252.896, 61.576 250.434, 54.382 247.959 C 45.494 244.901, 44.223 245.206, 37.487 252.013 " stroke="none" fill="black" fill-rule="evenodd"/>
</svg>