<svg xmlns="http://www.w3.org/2000/svg" width="196" height="324" viewBox="0 0 196 324" version="1.1">
	<path d="M 71.571 127.571 C 70.212 128.931, 70 133.242, 70 159.571 L 70 190 39.571 190 C 4.123 190, 5.480 189.635, 6.522 198.877 C 8.523 216.624, 14.012 228.091, 26.461 240.535 C 36.299 250.368, 44.878 255.430, 57.209 258.677 C 65.643 260.897, 81.484 260.844, 90 258.566 C 111.438 252.832, 129.705 235.705, 137.002 214.495 C 139.762 206.472, 141.445 193.241, 139.936 191.423 C 138.962 190.250, 133.426 190, 108.378 190 L 78 190 78 159.571 C 78 133.242, 77.788 128.931, 76.429 127.571 C 75.564 126.707, 74.471 126, 74 126 C 73.529 126, 72.436 126.707, 71.571 127.571 M 167.315 175.213 C 157.792 184.680, 150 193.134, 150 194 C 150 195.680, 183.953 230, 185.615 230 C 187.105 230, 189 227.795, 189 226.062 C 189 225.216, 182.143 217.656, 173.762 209.262 L 158.524 194 173.762 178.738 C 182.143 170.344, 189 162.784, 189 161.938 C 189 160.205, 187.105 158, 185.615 158 C 185.073 158, 176.838 165.746, 167.315 175.213 M 14 200.106 C 14 201.264, 14.713 204.976, 15.585 208.356 C 20.889 228.914, 38.828 246.683, 59.103 251.463 C 66.646 253.241, 78.760 253.441, 86.201 251.910 C 89.115 251.310, 95.244 249.032, 99.820 246.847 C 115.079 239.562, 126.717 225.246, 131.003 208.489 C 132.101 204.194, 133 200.077, 133 199.340 C 133 198.235, 122.566 198, 73.500 198 L 14 198 14 200.106 " stroke="none" fill="black" fill-rule="evenodd"/>
</svg>