<svg xmlns="http://www.w3.org/2000/svg" width="148" height="324" viewBox="0 0 148 324" version="1.1">
	<path d="M 71.571 127.571 C 70.212 128.931, 70 133.242, 70 159.571 L 70 190 39.571 190 C 3.866 190, 5.407 189.561, 6.543 199.402 C 8.546 216.746, 14.065 228.145, 26.461 240.535 C 36.299 250.368, 44.878 255.430, 57.209 258.677 C 65.643 260.897, 81.484 260.844, 90 258.566 C 111.438 252.832, 129.705 235.705, 137.002 214.495 C 139.762 206.472, 141.445 193.241, 139.936 191.423 C 138.962 190.250, 133.426 190, 108.378 190 L 78 190 78 159.571 C 78 133.242, 77.788 128.931, 76.429 127.571 C 75.564 126.707, 74.471 126, 74 126 C 73.529 126, 72.436 126.707, 71.571 127.571 M 14.015 199.750 C 14.053 204.243, 17.397 214.965, 20.767 221.397 C 25.761 230.930, 36.246 241.433, 45.603 246.278 C 82.071 265.156, 125.867 242.962, 132.485 202.250 L 133.176 198 73.588 198 C 17.499 198, 14.001 198.103, 14.015 199.750 M 55.213 287.315 C 45.746 296.838, 38 305.131, 38 305.743 C 38 307.180, 40.815 310, 42.249 310 C 42.857 310, 50.250 303.156, 58.677 294.792 L 74 279.584 89.323 294.792 C 97.750 303.156, 105.120 310, 105.700 310 C 107.589 310, 109.237 307.079, 108.654 304.763 C 107.960 302.006, 75.957 270, 73.894 270 C 73.086 270, 64.680 277.792, 55.213 287.315 " stroke="none" fill="black" fill-rule="evenodd"/>
</svg>