<svg xmlns="http://www.w3.org/2000/svg" width="276" height="324" viewBox="0 0 276 324" version="1.1">
	<path d="M 7.571 191.571 C 6.707 192.436, 6 193.658, 6 194.287 C 6 194.916, 20.953 210.409, 39.230 228.715 L 72.460 262 137.963 262 L 203.467 262 236.733 228.733 C 255.030 210.437, 270 194.944, 270 194.305 C 270 192.813, 267.201 190, 265.716 190 C 265.089 190, 251.004 203.545, 234.416 220.100 L 204.257 250.200 203.540 245.350 C 200.036 221.665, 178.800 198.947, 154 192.352 C 145.361 190.055, 129.639 190.055, 121 192.352 C 108.698 195.623, 100.346 200.576, 90.461 210.461 C 80.280 220.642, 75.164 229.480, 72.241 241.935 L 70.575 249.032 40.999 219.516 C 24.732 203.282, 10.910 190, 10.283 190 C 9.656 190, 8.436 190.707, 7.571 191.571 M 123.217 199.449 C 106.756 203.435, 91.478 215.839, 84.165 231.154 C 80.488 238.855, 78 247.288, 78 252.049 C 78 253.962, 79.167 254, 137.500 254 L 197 254 197 251.710 C 197 247.357, 193.956 237.472, 190.330 230.046 C 183.277 215.605, 168.223 203.756, 151.540 199.515 C 144.421 197.706, 130.552 197.673, 123.217 199.449 " stroke="none" fill="black" fill-rule="evenodd"/>
</svg>