<svg xmlns="http://www.w3.org/2000/svg" width="84" height="324" viewBox="0 0 84 324" version="1.1">
	<path d="M 7.200 127.200 C 5.481 128.919, 5.481 195.081, 7.200 196.800 C 8.025 197.625, 13.022 198, 23.200 198 L 38 198 38 228.429 C 38 254.758, 38.212 259.069, 39.571 260.429 C 40.436 261.293, 41.529 262, 42 262 C 42.471 262, 43.564 261.293, 44.429 260.429 C 45.788 259.069, 46 254.758, 46 228.429 L 46 198 60.800 198 C 70.978 198, 75.975 197.625, 76.800 196.800 C 78.519 195.081, 78.519 128.919, 76.800 127.200 C 75.081 125.481, 8.919 125.481, 7.200 127.200 M 14 162 L 14 190 42 190 L 70 190 70 162 L 70 134 42 134 L 14 134 14 162 " stroke="none" fill="black" fill-rule="evenodd"/>
</svg>