<svg xmlns="http://www.w3.org/2000/svg" width="84" height="324" viewBox="0 0 84 324" version="1.1">
	<path d="M 7.571 159.571 C 6.707 160.436, 6 161.529, 6 162 C 6 163.111, 8.889 166, 10 166 C 11.111 166, 14 163.111, 14 162 C 14 160.889, 11.111 158, 10 158 C 9.529 158, 8.436 158.707, 7.571 159.571 M 71.571 159.571 C 70.707 160.436, 70 161.529, 70 162 C 70 162.471, 70.707 163.564, 71.571 164.429 C 72.436 165.293, 73.529 166, 74 166 C 74.471 166, 75.564 165.293, 76.429 164.429 C 77.293 163.564, 78 162.471, 78 162 C 78 161.529, 77.293 160.436, 76.429 159.571 C 75.564 158.707, 74.471 158, 74 158 C 73.529 158, 72.436 158.707, 71.571 159.571 M 7.571 223.571 C 6.707 224.436, 6 225.529, 6 226 C 6 227.111, 8.889 230, 10 230 C 11.111 230, 14 227.111, 14 226 C 14 224.889, 11.111 222, 10 222 C 9.529 222, 8.436 222.707, 7.571 223.571 M 71.571 223.571 C 70.707 224.436, 70 225.529, 70 226 C 70 226.471, 70.707 227.564, 71.571 228.429 C 72.436 229.293, 73.529 230, 74 230 C 74.471 230, 75.564 229.293, 76.429 228.429 C 77.293 227.564, 78 226.471, 78 226 C 78 225.529, 77.293 224.436, 76.429 223.571 C 75.564 222.707, 74.471 222, 74 222 C 73.529 222, 72.436 222.707, 71.571 223.571 " stroke="none" fill="black" fill-rule="evenodd"/>
</svg>