<svg xmlns="http://www.w3.org/2000/svg" width="148" height="324" viewBox="0 0 148 324" version="1.1">
	<path d="M 7.200 159.200 C 5.481 160.919, 5.481 227.081, 7.200 228.800 C 8.607 230.207, 137.589 230.548, 139.791 229.150 C 141.679 227.953, 141.679 160.047, 139.791 158.850 C 137.589 157.452, 8.607 157.793, 7.200 159.200 M 32.798 179.333 C 40.059 186.666, 46 193.266, 46 194 C 46 194.734, 40.059 201.334, 32.798 208.667 L 19.595 222 74.034 222 L 128.472 222 115.236 208.737 C 107.956 201.442, 102 194.810, 102 194 C 102 193.190, 107.956 186.558, 115.236 179.263 L 128.472 166 74.034 166 L 19.595 166 32.798 179.333 M 122.637 182.649 L 111.774 194.044 122.637 205.272 L 133.500 216.500 133.782 205.250 C 133.937 199.062, 133.937 188.882, 133.782 182.627 L 133.500 171.254 122.637 182.649 M 14 194 L 14 216.489 25.244 205.244 L 36.489 194 25.244 182.756 L 14 171.511 14 194 " stroke="none" fill="black" fill-rule="evenodd"/>
</svg>