<svg xmlns="http://www.w3.org/2000/svg" width="148" height="324" viewBox="0 0 148 324" version="1.1">
	<path d="M 103.285 159.230 L 70 192.460 70 223.230 L 70 254 42 254 L 14 254 14 223.571 C 14 197.242, 13.788 192.931, 12.429 191.571 C 10.455 189.598, 9.545 189.598, 7.571 191.571 C 6.206 192.937, 6 197.512, 6 226.536 C 6 258.528, 6.081 259.973, 7.934 260.965 C 9.154 261.617, 21.876 262, 42.363 262 C 70.570 262, 75.064 261.793, 76.429 260.429 C 77.791 259.066, 78 254.656, 78 227.314 L 78 195.772 109.500 163.811 C 126.825 146.233, 141 131.074, 141 130.125 C 141 128.218, 139.164 126, 137.585 126 C 137.026 126, 121.591 140.953, 103.285 159.230 " stroke="none" fill="black" fill-rule="evenodd"/>
</svg>