<svg xmlns="http://www.w3.org/2000/svg" width="164" height="324" viewBox="0 0 164 324" version="1.1">
	<path d="M 7.571 127.571 C 6.707 128.436, 6 129.657, 6 130.286 C 6 130.914, 20.400 145.854, 38 163.485 L 70 195.540 70 227.199 C 70 254.646, 70.209 259.066, 71.571 260.429 C 73.545 262.402, 74.455 262.402, 76.429 260.429 C 77.794 259.063, 78 254.506, 78 225.659 L 78 192.460 44.715 159.230 C 26.409 140.953, 10.916 126, 10.287 126 C 9.658 126, 8.436 126.707, 7.571 127.571 M 119.750 159.437 L 86 192.785 86 225.738 C 86 256.391, 86.128 258.805, 87.829 260.345 C 90.085 262.387, 90.463 262.394, 92.429 260.429 C 93.791 259.066, 94 254.643, 94 227.173 L 94 195.488 126 163.500 C 143.600 145.906, 158 130.737, 158 129.791 C 158 128.402, 155.155 125.855, 153.816 126.045 C 153.642 126.069, 138.313 141.096, 119.750 159.437 " stroke="none" fill="black" fill-rule="evenodd"/>
</svg>