<svg xmlns="http://www.w3.org/2000/svg" width="212" height="324" viewBox="0 0 212 324" version="1.1">
	<path d="M 39.571 191.571 C 38.288 192.855, 38 195.788, 38 207.571 L 38 222 23.571 222 C 11.788 222, 8.855 222.288, 7.571 223.571 C 5.598 225.545, 5.598 226.455, 7.571 228.429 C 8.855 229.712, 11.788 230, 23.571 230 L 38 230 38 244.429 C 38 256.212, 38.288 259.145, 39.571 260.429 C 40.968 261.825, 48.406 262, 106.371 262 C 155.771 262, 171.891 261.709, 172.800 260.800 C 173.625 259.975, 174 254.978, 174 244.800 L 174 230 188.066 230 C 202.692 230, 206 229.262, 206 226 C 206 222.738, 202.692 222, 188.066 222 L 174 222 174 207.200 C 174 197.022, 173.625 192.025, 172.800 191.200 C 171.891 190.291, 155.771 190, 106.371 190 C 48.406 190, 40.968 190.175, 39.571 191.571 M 46 226 L 46 254 106 254 L 166 254 166 226 L 166 198 106 198 L 46 198 46 226 " stroke="none" fill="black" fill-rule="evenodd"/>
</svg>