<svg xmlns="http://www.w3.org/2000/svg" width="180" height="324" viewBox="0 0 180 324" version="1.1">
	<path d="M 39.244 159.256 L 6 192.511 6 226.056 C 6 250.812, 6.314 259.914, 7.200 260.800 C 8.109 261.709, 24.311 262, 74 262 C 123.689 262, 139.891 261.709, 140.800 260.800 C 141.686 259.914, 142 250.810, 142 226.044 L 142 192.489 108.744 159.244 C 90.454 140.960, 74.814 126, 73.989 126 C 73.164 126, 57.529 140.965, 39.244 159.256 M 151.315 143.213 C 141.792 152.680, 134 161.134, 134 162 C 134 163.761, 167.994 198, 169.743 198 C 171.180 198, 174 195.185, 174 193.751 C 174 193.143, 167.156 185.750, 158.792 177.323 L 143.584 162 158.792 146.677 C 167.156 138.250, 174 130.857, 174 130.249 C 174 128.815, 171.180 126, 169.743 126 C 169.131 126, 160.838 133.746, 151.315 143.213 M 46.500 163 L 19.514 190 74 190 L 128.486 190 101.500 163 C 86.658 148.150, 74.283 136, 74 136 C 73.717 136, 61.342 148.150, 46.500 163 M 14 226 L 14 254 74 254 L 134 254 134 226 L 134 198 74 198 L 14 198 14 226 " stroke="none" fill="black" fill-rule="evenodd"/>
</svg>