<svg xmlns="http://www.w3.org/2000/svg" width="180" height="324" viewBox="0 0 180 324" version="1.1">
	<path d="M 7.498 191.645 C 6.209 192.933, 5.987 194.399, 6.472 198.395 C 7.509 206.941, 9.099 213.219, 11.760 219.276 L 14.297 225.053 11.675 231.776 C 8.532 239.839, 7.377 244.486, 6.499 252.598 C 5.963 257.545, 6.151 259.008, 7.491 260.348 C 9.547 262.404, 10.439 262.418, 12.429 260.429 C 13.404 259.453, 14.006 257.082, 14.015 254.179 C 14.030 249.221, 16.344 238.095, 18.004 234.993 C 18.890 233.337, 19.599 233.778, 24.747 239.191 C 38.378 253.524, 54.548 260.469, 74 260.346 C 91.960 260.232, 107.028 253.922, 120.304 240.955 C 127.065 234.351, 128.233 233.567, 129.047 235.088 C 130.663 238.108, 132.970 249.289, 132.985 254.179 C 132.994 257.082, 133.596 259.453, 134.571 260.429 C 136.561 262.418, 137.453 262.404, 139.509 260.348 C 142.228 257.629, 140.318 244.584, 135.325 231.776 L 132.703 225.053 135.352 219.151 C 136.808 215.906, 138 212.740, 138 212.116 C 138 211.493, 140.813 213.842, 144.250 217.337 C 150.835 224.032, 156.864 227.107, 166.128 228.497 C 169.685 229.030, 171.041 228.816, 172.339 227.518 C 173.253 226.605, 174 225.471, 174 225 C 174 223.088, 170.663 221, 167.607 221 C 155.060 221, 142 208.195, 142 195.893 C 142 192.962, 139.739 190, 137.500 190 C 134.810 190, 133 193.089, 133 197.677 C 133 202.215, 130.627 212.959, 128.921 216.148 C 128.151 217.587, 127.076 216.865, 121.782 211.352 C 94.780 183.231, 51.758 183.436, 24.747 211.814 C 19.836 216.974, 18.861 217.609, 18.083 216.155 C 16.373 212.961, 14 202.220, 14 197.677 C 14 194.888, 13.395 192.538, 12.429 191.571 C 10.440 189.583, 9.546 189.596, 7.498 191.645 M 58.645 199.584 C 46.680 202.480, 29.898 213.969, 24.768 222.775 C 23.065 225.697, 23.084 225.816, 25.843 229.625 C 32.795 239.221, 46.392 248.254, 58.644 251.415 C 62.024 252.287, 68.709 253, 73.500 253 C 84.095 253, 92.247 251.011, 101.469 246.176 C 108.801 242.332, 119.304 233.251, 122.232 228.225 C 123.935 225.303, 123.916 225.184, 121.157 221.375 C 114.064 211.584, 100.096 202.413, 87.897 199.537 C 79.998 197.676, 66.439 197.697, 58.645 199.584 " stroke="none" fill="black" fill-rule="evenodd"/>
</svg>