<svg xmlns="http://www.w3.org/2000/svg" width="196" height="324" viewBox="0 0 196 324" version="1.1">
	<path d="M 39.230 159.285 L 6 192.569 6 241.713 C 6 285.056, 6.185 291.043, 7.571 292.429 C 8.436 293.293, 9.529 294, 10 294 C 10.471 294, 11.564 293.293, 12.429 292.429 C 13.712 291.145, 14 288.212, 14 276.429 L 14 262 74 262 L 134 262 134 276.965 C 134 291.324, 134.088 291.977, 136.183 293.098 C 138.042 294.093, 138.636 293.933, 140.183 292.022 C 141.883 289.923, 142 286.656, 142 241.156 L 142 192.533 108.733 159.267 C 90.437 140.970, 74.790 126, 73.963 126 C 73.136 126, 57.506 140.978, 39.230 159.285 M 43.744 165.756 L 14 195.512 14 224.756 L 14 254 74 254 L 134 254 134 224.744 L 134 195.487 104.244 165.744 C 87.878 149.385, 74.263 136, 73.988 136 C 73.713 136, 60.103 149.390, 43.744 165.756 M 167.315 255.213 C 157.792 264.680, 150 273.134, 150 274 C 150 275.680, 183.953 310, 185.615 310 C 187.113 310, 189.001 307.790, 188.989 306.050 C 188.984 305.198, 182.299 297.623, 174.135 289.218 L 159.291 273.936 174.123 258.718 C 182.281 250.348, 188.966 242.803, 188.978 241.950 C 189.003 240.213, 187.118 238, 185.615 238 C 185.073 238, 176.838 245.746, 167.315 255.213 " stroke="none" fill="black" fill-rule="evenodd"/>
</svg>