<svg xmlns="http://www.w3.org/2000/svg" width="180" height="324" viewBox="0 0 180 324" version="1.1">
	<path d="M 71.571 159.572 C 68.203 162.940, 72.775 177.309, 79.646 184.952 L 84.185 190 46.664 190 C 13.887 190, 8.944 190.199, 7.571 191.571 C 5.598 193.545, 5.598 194.455, 7.571 196.429 C 8.844 197.701, 11.697 198, 22.575 198 L 36.006 198 21.020 227.961 C 12.777 244.439, 6.285 258.580, 6.594 259.384 C 7.265 261.133, 9.512 262.125, 11.274 261.448 C 11.975 261.180, 19.056 247.919, 27.010 231.980 C 34.964 216.041, 41.710 203, 42 203 C 42.290 203, 49.036 216.041, 56.990 231.980 C 64.944 247.919, 72.025 261.180, 72.726 261.448 C 73.427 261.717, 74.573 261.717, 75.274 261.448 C 75.975 261.180, 83.056 247.919, 91.010 231.980 C 98.964 216.041, 105.710 203, 106 203 C 106.290 203, 113.036 216.041, 120.990 231.980 C 128.944 247.919, 136.025 261.180, 136.726 261.448 C 138.488 262.125, 140.735 261.133, 141.406 259.384 C 141.715 258.580, 135.223 244.439, 126.980 227.961 L 111.994 198 123.497 198 C 132.924 198, 135 198.264, 135 199.462 C 135 200.267, 135.973 203.526, 137.163 206.705 C 140.071 214.480, 148.411 222.888, 156.047 225.745 C 164.481 228.900, 170.321 229.536, 172.339 227.518 C 175.730 224.127, 173.573 221.884, 165.916 220.837 C 153.004 219.071, 143.742 210.065, 142.298 197.869 C 141.499 191.123, 140.149 190, 132.836 190 L 126.815 190 131.354 184.952 C 138.225 177.309, 142.797 162.940, 139.429 159.572 C 138.564 158.707, 137.471 158, 137 158 C 135.208 158, 133 161.253, 133 163.893 C 133 169.333, 129.749 176.347, 125.048 181.048 C 109.222 196.873, 80.891 187.766, 78.317 166.025 C 77.469 158.866, 74.816 156.327, 71.571 159.572 M 60.743 223.500 C 67.750 237.525, 73.715 249, 74 249 C 74.285 249, 80.250 237.525, 87.257 223.500 L 99.995 198 74 198 L 48.005 198 60.743 223.500 " stroke="none" fill="black" fill-rule="evenodd"/>
</svg>