<svg xmlns="http://www.w3.org/2000/svg" width="148" height="324" viewBox="0 0 148 324" version="1.1">
	<path d="M 7.489 127.653 C 5.994 129.148, 5.877 132.910, 6.265 166.903 C 6.719 206.666, 6.838 207.782, 11.999 220.499 L 14.085 225.636 12.057 230.366 C 9.452 236.444, 7.342 244.888, 6.503 252.598 C 5.964 257.549, 6.150 259.007, 7.491 260.348 C 10.992 263.850, 14 260.834, 14 253.823 C 14 248.944, 16.293 238.190, 18.021 234.960 C 18.712 233.670, 20.425 234.881, 27.185 241.442 C 40.625 254.484, 54.917 260.304, 73.500 260.304 C 91.918 260.304, 106.836 254.107, 120.309 240.860 L 128.118 233.181 129.129 235.838 C 131.057 240.909, 132.971 250.525, 132.985 255.215 C 132.997 258.946, 133.431 260.160, 135.064 261.034 C 138.443 262.843, 140 260.636, 140 254.038 C 140 247.489, 137.043 234.966, 134.165 229.324 C 132.248 225.565, 132.246 225.411, 134.068 221.859 C 135.091 219.864, 136.920 214.918, 138.132 210.866 C 140.194 203.973, 140.363 201.087, 140.750 165.940 C 141.110 133.237, 140.967 128.218, 139.646 127.121 C 138.540 126.204, 137.595 126.147, 136.166 126.911 C 134.287 127.917, 134.185 129.481, 133.726 164.230 C 133.248 200.470, 132.791 205.528, 129.129 215.162 L 128.118 217.819 120.167 209.984 C 113.730 203.641, 110.434 201.297, 102.858 197.671 C 91.050 192.020, 84.914 190.578, 73 190.654 C 54.818 190.769, 40.429 196.707, 27.185 209.558 C 17.864 218.604, 18.259 218.646, 15.586 208.332 C 14.279 203.286, 14 195.794, 14 165.677 C 14 133.797, 13.800 128.943, 12.429 127.571 C 10.439 125.581, 9.547 125.596, 7.489 127.653 M 57.500 199.870 C 45.228 203.402, 29.739 214.241, 24.768 222.775 C 23.065 225.697, 23.084 225.816, 25.843 229.625 C 32.795 239.221, 46.392 248.254, 58.644 251.415 C 65.760 253.251, 78.565 253.481, 86.201 251.910 C 95.798 249.936, 107.449 243.557, 114.920 236.187 C 124.715 226.524, 124.814 226.210, 119.979 220.093 C 112.154 210.194, 98.458 201.686, 86.201 199.113 C 78.463 197.488, 64.494 197.856, 57.500 199.870 " stroke="none" fill="black" fill-rule="evenodd"/>
</svg>