<svg xmlns="http://www.w3.org/2000/svg" width="212" height="324" viewBox="0 0 212 324" version="1.1">
	<path d="M 66.500 126.561 C 65.400 126.813, 62.025 127.513, 59 128.115 C 35.858 132.724, 14.520 153.250, 8.666 176.536 C 6.037 186.993, 5.595 194.452, 7.491 196.348 C 9.547 198.404, 10.439 198.418, 12.429 196.429 C 13.404 195.453, 14.006 193.082, 14.015 190.179 C 14.037 183.029, 16.651 173.465, 20.732 165.603 C 24.567 158.214, 35.665 146.070, 41.573 142.798 L 44.647 141.095 42.334 145.798 C 34.341 162.044, 39.633 181.445, 54.662 190.995 L 58.824 193.640 55.317 195.529 C 50.062 198.359, 43.384 206.373, 40.928 212.798 C 33.084 233.317, 45.440 255.293, 67.500 260.057 C 73.994 261.460, 74.480 261.449, 81.147 259.749 C 92.337 256.898, 100.914 249.731, 105.837 239.120 C 109.532 231.154, 109.546 219.876, 105.871 211.954 C 102.758 205.246, 97.935 199.561, 92.338 196.005 L 88.176 193.360 91.623 191.503 C 96.605 188.821, 102.777 181.718, 105.811 175.175 C 109.575 167.060, 109.561 155.910, 105.777 147.750 C 104.311 144.588, 103.495 142, 103.966 142 C 105.552 142, 114.596 149.716, 119.263 155.050 C 127.141 164.056, 133 178.531, 133 188.988 C 133 191.503, 133.699 194.554, 134.557 195.777 C 136.104 197.986, 136.290 198, 164.793 198 L 193.472 198 180.236 211.263 C 172.956 218.558, 167 225.218, 167 226.063 C 167 227.796, 168.896 230, 170.385 230 C 172.047 230, 206 195.680, 206 194 C 206 192.320, 172.047 158, 170.385 158 C 168.896 158, 167 160.204, 167 161.937 C 167 162.782, 172.956 169.442, 180.236 176.737 L 193.472 190 167.281 190 L 141.091 190 140.504 186.250 C 140.182 184.188, 139.188 179.602, 138.296 176.059 C 132.623 153.527, 113.378 134.506, 90.228 128.548 C 83.793 126.892, 70.067 125.742, 66.500 126.561 M 64.500 135.236 C 53.011 139.366, 46 149.299, 46 161.448 C 46 174.371, 54.645 185.389, 67.250 188.531 L 70 189.217 70 161.608 C 70 131.801, 70.283 133.158, 64.500 135.236 M 78 161.548 L 78 189.135 80.250 188.475 C 89.002 185.908, 95.564 180.372, 99.110 172.565 C 101.597 167.089, 101.609 155.932, 99.133 150.500 C 95.608 142.768, 88.145 136.313, 80.750 134.599 L 78 133.962 78 161.548 M 64.500 199.236 C 53.011 203.366, 46 213.299, 46 225.448 C 46 238.371, 54.645 249.389, 67.250 252.531 L 70 253.217 70 225.608 C 70 195.801, 70.283 197.158, 64.500 199.236 M 78 225.548 L 78 253.135 80.250 252.475 C 89.002 249.908, 95.564 244.372, 99.110 236.565 C 101.597 231.089, 101.609 219.932, 99.133 214.500 C 95.608 206.768, 88.145 200.313, 80.750 198.599 L 78 197.962 78 225.548 " stroke="none" fill="black" fill-rule="evenodd"/>
</svg>