<svg xmlns="http://www.w3.org/2000/svg" width="84" height="324" viewBox="0 0 84 324" version="1.1">
	<path d="M 23.239 111.260 L 6 128.521 6 194.060 C 6 243.702, 6.291 259.891, 7.200 260.800 C 8.919 262.519, 75.081 262.519, 76.800 260.800 C 77.709 259.891, 78 243.698, 78 194.039 L 78 128.479 60.740 111.239 C 51.246 101.758, 42.804 94, 41.979 94 C 41.154 94, 32.721 101.767, 23.239 111.260 M 27.737 117.763 L 14 131.526 14 192.763 L 14 254 42 254 L 70 254 70 192.737 L 70 131.473 56.237 117.737 C 48.667 110.181, 42.249 104, 41.974 104 C 41.698 104, 35.292 110.193, 27.737 117.763 " stroke="none" fill="black" fill-rule="evenodd"/>
</svg>