<svg xmlns="http://www.w3.org/2000/svg" width="148" height="324" viewBox="0 0 148 324" version="1.1">
	<path d="M 63.870 127.014 C 52.501 128.800, 41.308 133.555, 32.765 140.227 C 30.314 142.142, 28.374 142.936, 27.120 142.538 C 24.625 141.746, 21.739 144.603, 22.527 147.085 C 22.922 148.330, 21.910 150.547, 19.514 153.685 C 11.086 164.723, 6.696 178.359, 6.696 193.500 C 6.696 208.883, 11.277 222.846, 19.907 233.764 C 22.736 237.342, 23.535 239.080, 22.885 240.241 C 21.066 243.491, 24.523 246.926, 27.779 245.104 C 28.955 244.446, 30.599 245.129, 33.899 247.649 C 44.718 255.910, 58.469 260.304, 73.500 260.304 C 88.548 260.304, 100.980 256.240, 113.211 247.322 C 117.204 244.410, 118.241 244.059, 120.025 245.013 C 121.603 245.858, 122.486 245.841, 123.564 244.947 C 125.229 243.565, 125.467 240.407, 123.975 239.485 C 123.363 239.106, 124.121 237.371, 125.858 235.176 C 138.347 219.394, 143.122 196.528, 138.062 176.741 C 135.885 168.231, 133.504 163.072, 127.989 154.918 C 125.338 150.998, 124.354 148.597, 124.687 146.857 C 125.289 143.708, 122.850 141.425, 120.368 142.814 C 119.020 143.568, 117.495 142.938, 113.565 140.002 C 99.401 129.420, 80.312 124.431, 63.870 127.014 M 57.500 135.870 C 51.032 137.732, 41.202 142.647, 36.721 146.259 L 33.941 148.500 53.974 168.494 L 74.006 188.487 93.753 168.735 L 113.500 148.983 110.500 146.529 C 105.424 142.377, 94.618 137.122, 87.897 135.537 C 79.386 133.531, 65.080 133.688, 57.500 135.870 M 25.264 158.132 C 20.718 164.762, 17.318 171.986, 15.574 178.716 C 13.553 186.514, 13.558 200.499, 15.585 208.356 C 17.306 215.026, 22.551 225.718, 26.448 230.500 L 28.893 233.500 48.693 213.750 L 68.494 194 48.376 173.882 L 28.258 153.764 25.264 158.132 M 97.997 174.503 L 78.513 194.006 98.290 213.753 L 118.067 233.500 120.057 231 C 131.325 216.845, 135.584 196.422, 131.003 178.511 C 128.618 169.185, 121.002 155, 118.380 155 C 117.885 155, 108.713 163.776, 97.997 174.503 M 53.990 219.536 L 34.500 239.073 37 241.015 C 41.641 244.621, 52.461 249.820, 58.644 251.415 C 65.810 253.263, 78.635 253.479, 86.201 251.879 C 92.901 250.461, 102.661 246.086, 108.539 241.864 L 113.083 238.602 93.801 219.301 C 83.196 208.685, 74.286 200, 74 200 C 73.714 200, 64.710 208.791, 53.990 219.536 " stroke="none" fill="black" fill-rule="evenodd"/>
</svg>