<svg xmlns="http://www.w3.org/2000/svg" width="148" height="324" viewBox="0 0 148 324" version="1.1">
	<path d="M 135.750 127.080 C 134.143 128.016, 134 130.628, 134 159.050 L 134 190 76.798 190 L 19.595 190 32.798 176.667 C 40.059 169.334, 46 162.841, 46 162.239 C 46 160.813, 43.175 158, 41.743 158 C 39.994 158, 6 192.239, 6 194 C 6 195.761, 39.994 230, 41.743 230 C 43.175 230, 46 227.187, 46 225.761 C 46 225.159, 40.059 218.666, 32.798 211.333 L 19.595 198 79.048 197.985 C 111.746 197.976, 139.096 197.591, 139.825 197.129 C 140.886 196.457, 141.128 189.548, 141.040 162.454 C 140.920 125.636, 140.704 124.195, 135.750 127.080 " stroke="none" fill="black" fill-rule="evenodd"/>
</svg>