<svg xmlns="http://www.w3.org/2000/svg" width="180" height="324" viewBox="0 0 180 324" version="1.1">
	<path d="M 64.500 190.944 C 56.325 192.268, 50.930 193.991, 43 197.814 C 32.444 202.903, 18.927 216.404, 13.778 227 C 7.648 239.615, 4.334 257.191, 7.491 260.348 C 9.547 262.404, 10.439 262.418, 12.429 260.429 C 13.404 259.453, 14.006 257.082, 14.015 254.179 C 14.091 230.127, 34.559 205.323, 59.103 199.537 C 66.646 197.759, 78.760 197.559, 86.201 199.090 C 89.115 199.690, 95.325 202.005, 100 204.235 C 111.807 209.867, 121.131 219.191, 126.766 231 C 128.997 235.675, 131.135 241.075, 131.517 243 C 132.173 246.302, 131.507 245.806, 119.767 234.250 C 112.922 227.512, 106.831 222, 106.232 222 C 104.814 222, 102 224.827, 102 226.253 C 102 227.168, 132.228 258.707, 135.500 261.206 C 136.050 261.626, 137.161 261.976, 137.968 261.985 C 139.676 262.002, 174 227.999, 174 226.290 C 174 224.829, 171.201 222, 169.756 222 C 169.150 222, 162.316 228.285, 154.568 235.967 L 140.480 249.935 138.746 242.304 C 135.821 229.432, 130.874 220.791, 120.539 210.498 C 110.713 200.712, 102.022 195.540, 90.500 192.622 C 82.819 190.677, 70.903 189.908, 64.500 190.944 " stroke="none" fill="black" fill-rule="evenodd"/>
</svg>