<svg xmlns="http://www.w3.org/2000/svg" width="148" height="324" viewBox="0 0 148 324" version="1.1">
	<path d="M 66.344 63.041 C 56.140 65.060, 45.946 73.331, 41.417 83.266 C 39.054 88.448, 38.573 90.851, 38.565 97.500 C 38.555 107.082, 41.369 114.190, 48.038 121.425 L 52.255 126 30.699 126 C 12.436 126, 8.903 126.240, 7.571 127.571 C 5.598 129.545, 5.598 130.455, 7.571 132.429 C 8.931 133.788, 13.242 134, 39.571 134 L 70 134 70 194 L 70 254 55.571 254 C 43.788 254, 40.855 254.288, 39.571 255.571 C 37.595 257.548, 37.598 258.455, 39.585 260.442 C 40.978 261.835, 45.159 261.995, 74.226 261.763 C 104.452 261.523, 107.377 261.350, 108.386 259.750 C 109.190 258.475, 109.191 257.525, 108.387 256.250 C 107.433 254.736, 105.314 254.463, 92.643 254.223 L 78 253.947 78 193.988 L 78 134.029 108.641 133.764 C 136.566 133.523, 139.381 133.345, 140.386 131.750 C 141.191 130.474, 141.191 129.526, 140.387 128.250 C 139.399 126.683, 136.963 126.472, 117.081 126.231 L 94.879 125.961 99.458 120.731 C 105.430 113.911, 108.111 106.711, 108.111 97.500 C 108.111 80.711, 97.435 67.194, 81.147 63.360 C 74.881 61.885, 72.451 61.833, 66.344 63.041 M 63.054 71.728 C 57.018 73.859, 49.781 81.260, 47.667 87.463 C 42.058 103.925, 50.847 120.571, 67.250 124.550 L 70 125.217 70 97.608 C 70 76.146, 69.722 70.018, 68.750 70.079 C 68.063 70.122, 65.499 70.864, 63.054 71.728 M 78 97.500 L 78 125.135 80.250 124.454 C 91.928 120.922, 99.678 111.697, 100.721 100.088 C 101.929 86.632, 93.502 74.466, 80.250 70.533 L 78 69.865 78 97.500 " stroke="none" fill="black" fill-rule="evenodd"/>
</svg>