<svg xmlns="http://www.w3.org/2000/svg" width="148" height="324" viewBox="0 0 148 324" version="1.1">
	<path d="M 66.223 63.008 C 55.939 65.164, 46.017 73.415, 41.189 83.825 C 39.038 88.462, 38.556 90.964, 38.556 97.500 C 38.556 107.083, 41.376 114.198, 48.038 121.425 L 52.255 126 30.699 126 C 12.436 126, 8.903 126.240, 7.571 127.571 C 5.598 129.545, 5.598 130.455, 7.571 132.429 C 8.931 133.788, 13.242 134, 39.571 134 L 70 134 70 164.006 L 70 194.012 54.016 225.967 C 45.225 243.542, 38.285 258.580, 38.594 259.384 C 39.265 261.133, 41.512 262.124, 43.274 261.448 C 43.975 261.180, 51.056 247.919, 59.010 231.980 C 66.964 216.041, 73.704 203, 73.986 203 C 74.269 203, 80.771 215.854, 88.435 231.564 C 96.386 247.862, 103.176 260.559, 104.248 261.133 C 106.537 262.358, 109 260.667, 109 257.871 C 109 256.835, 102.025 242.043, 93.500 225 L 78 194.012 78 164.021 L 78 134.029 108.641 133.764 C 136.566 133.523, 139.381 133.345, 140.386 131.750 C 141.191 130.474, 141.191 129.526, 140.387 128.250 C 139.399 126.683, 136.962 126.472, 117.074 126.231 L 94.864 125.961 98.885 121.393 C 105.887 113.438, 107.500 108.965, 107.500 97.500 C 107.500 85.464, 105.483 80.393, 97.518 72.404 C 89.702 64.563, 76.999 60.749, 66.223 63.008 M 63.463 71.591 C 57.971 73.541, 52.552 78.205, 49.249 83.824 C 46.800 87.989, 46.500 89.483, 46.500 97.500 C 46.500 105.502, 46.803 107.015, 49.230 111.145 C 53.385 118.213, 59.168 122.498, 67.305 124.541 L 70 125.217 70 97.608 C 70 76.146, 69.722 70.018, 68.750 70.079 C 68.063 70.122, 65.683 70.803, 63.463 71.591 M 78 97.500 L 78 125.135 80.250 124.434 C 88.339 121.914, 93.775 117.656, 97.500 110.923 C 100.131 106.166, 100.500 104.517, 100.500 97.500 C 100.500 90.483, 100.131 88.834, 97.500 84.077 C 93.775 77.344, 88.339 73.086, 80.250 70.566 L 78 69.865 78 97.500 " stroke="none" fill="black" fill-rule="evenodd"/>
</svg>