<svg xmlns="http://www.w3.org/2000/svg" width="148" height="324" viewBox="0 0 148 324" version="1.1">
	<path d="M 66.223 63.008 C 55.939 65.164, 46.017 73.415, 41.189 83.825 C 39.038 88.462, 38.556 90.964, 38.556 97.500 C 38.556 107.083, 41.376 114.198, 48.038 121.425 L 52.255 126 30.699 126 C 12.436 126, 8.903 126.240, 7.571 127.571 C 5.598 129.545, 5.598 130.455, 7.571 132.429 C 8.931 133.788, 13.242 134, 39.571 134 L 70 134 70 164.034 L 70 194.068 53.873 226.221 C 41.607 250.678, 37.983 258.749, 38.732 259.938 C 39.586 261.292, 44.029 261.537, 72.109 261.779 C 89.924 261.933, 105.463 261.825, 106.640 261.538 C 107.817 261.252, 109.047 260.321, 109.373 259.470 C 109.722 258.560, 103.377 244.746, 93.984 225.967 L 78 194.012 78 164.021 L 78 134.029 108.641 133.764 C 136.566 133.523, 139.381 133.345, 140.386 131.750 C 141.191 130.474, 141.191 129.526, 140.387 128.250 C 139.399 126.683, 136.962 126.472, 117.074 126.231 L 94.864 125.961 98.885 121.393 C 109.028 109.870, 111.119 94.671, 104.392 81.374 C 97.606 67.963, 80.910 59.929, 66.223 63.008 M 63.463 71.591 C 57.971 73.541, 52.552 78.205, 49.249 83.824 C 46.800 87.989, 46.500 89.483, 46.500 97.500 C 46.500 105.502, 46.803 107.015, 49.230 111.145 C 53.385 118.213, 59.168 122.498, 67.305 124.541 L 70 125.217 70 97.608 C 70 76.146, 69.722 70.018, 68.750 70.079 C 68.063 70.122, 65.683 70.803, 63.463 71.591 M 78 97.500 L 78 125.135 80.250 124.467 C 81.487 124.100, 84.750 122.569, 87.500 121.066 C 100.082 114.186, 104.584 97.201, 97.351 83.899 C 93.793 77.354, 88.305 73.075, 80.250 70.566 L 78 69.865 78 97.500 M 60.743 228.500 L 48.005 254 73.586 254 C 88.029 254, 99.022 253.614, 98.833 253.114 C 97.585 249.795, 74.397 203.041, 73.991 203.023 C 73.711 203.010, 67.750 214.475, 60.743 228.500 " stroke="none" fill="black" fill-rule="evenodd"/>
</svg>