<svg xmlns="http://www.w3.org/2000/svg" width="116" height="324" viewBox="0 0 116 324" version="1.1">
	<path d="M 7.571 159.571 C 6.707 160.436, 6 161.659, 6 162.290 C 6 163.788, 40.212 198, 41.710 198 C 43.193 198, 46 195.193, 46 193.710 C 46 192.212, 11.788 158, 10.290 158 C 9.659 158, 8.436 158.707, 7.571 159.571 M 40.200 159.200 C 39.540 159.860, 39 161.102, 39 161.961 C 39 162.819, 46.787 171.299, 56.304 180.804 C 68.774 193.259, 74.061 197.914, 75.227 197.466 C 77.376 196.642, 78.210 194.251, 77.072 192.178 C 75.717 189.708, 43.532 158, 42.381 158 C 41.842 158, 40.860 158.540, 40.200 159.200 M 72.200 159.200 C 71.540 159.860, 71 161.102, 71 161.961 C 71 162.819, 78.815 171.327, 88.367 180.867 C 104.248 196.729, 105.916 198.115, 107.867 197.071 C 109.040 196.443, 110 195.141, 110 194.177 C 110 192.378, 76.157 158, 74.385 158 C 73.843 158, 72.860 158.540, 72.200 159.200 " stroke="none" fill="black" fill-rule="evenodd"/>
</svg>