<svg xmlns="http://www.w3.org/2000/svg" width="148" height="324" viewBox="0 0 148 324" version="1.1">
	<path d="M 127.870 191.049 C 100.317 195.205, 77.630 216.314, 71.875 243.148 L 70.837 247.989 66.636 245.527 C 52.677 237.346, 35.945 236.378, 21.527 242.915 C 13.729 246.451, 4.773 254.415, 5.204 257.430 C 5.738 261.166, 9.662 260.567, 14.627 255.990 C 21.572 249.588, 28.779 246.761, 39.500 246.236 C 46.683 245.883, 49.615 246.188, 54.024 247.742 C 61.397 250.342, 67.803 254.495, 69.796 257.967 C 71.764 261.397, 81.847 268.371, 87.880 270.475 C 100.521 274.885, 113.262 274.350, 124.943 268.920 C 137.310 263.170, 142.761 256.748, 137.873 253.685 C 136.605 252.890, 135.264 253.469, 131.803 256.305 C 117.797 267.782, 97.547 269.231, 82.750 259.814 C 78.321 256.996, 78 256.508, 78 252.606 C 78 250.304, 78.695 245.754, 79.543 242.495 C 85.818 218.405, 107.102 200.208, 131.395 198.164 C 140.010 197.439, 142.584 195.748, 140.394 192.250 C 139.112 190.203, 135.668 189.873, 127.870 191.049 " stroke="none" fill="black" fill-rule="evenodd"/>
</svg>