<svg xmlns="http://www.w3.org/2000/svg" width="148" height="324" viewBox="0 0 148 324" version="1.1">
	<path d="M 39.571 143.571 C 38.707 144.436, 38 145.644, 38 146.257 C 38 147.939, 72.204 182, 73.894 182 C 75.957 182, 107.960 149.994, 108.654 147.237 C 109.237 144.921, 107.589 142, 105.700 142 C 105.120 142, 97.750 148.844, 89.323 157.208 L 74 172.416 58.677 157.208 C 50.250 148.844, 42.857 142, 42.249 142 C 41.640 142, 40.436 142.707, 39.571 143.571 M 7.571 191.571 C 6.207 192.936, 6 197.463, 6 226 C 6 254.537, 6.207 259.064, 7.571 260.429 C 8.436 261.293, 9.529 262, 10 262 C 10.471 262, 11.564 261.293, 12.429 260.429 C 13.788 259.069, 14 254.758, 14 228.429 L 14 198 74 198 L 134 198 134 228.965 C 134 259.475, 134.031 259.946, 136.117 261.062 C 140.718 263.525, 140.921 262.062, 141.040 225.605 C 141.128 198.461, 140.886 191.544, 139.825 190.871 C 139.096 190.409, 109.395 190.024, 73.821 190.015 C 16.343 190.002, 8.968 190.175, 7.571 191.571 " stroke="none" fill="black" fill-rule="evenodd"/>
</svg>