<svg xmlns="http://www.w3.org/2000/svg" width="148" height="324" viewBox="0 0 148 324" version="1.1">
	<path d="M 7.579 191.564 C 5.598 193.545, 5.596 194.454, 7.571 196.429 C 8.855 197.712, 11.788 198, 23.571 198 L 38 198 38 226 L 38 254 23.571 254 C 11.788 254, 8.855 254.288, 7.571 255.571 C 5.596 257.546, 5.598 258.455, 7.579 260.436 C 8.990 261.847, 16.058 261.987, 74.220 261.757 C 134.934 261.517, 139.356 261.383, 140.386 259.750 C 141.190 258.475, 141.191 257.525, 140.387 256.250 C 139.433 254.736, 137.314 254.463, 124.643 254.223 L 110 253.947 110 226 L 110 198.053 124.643 197.777 C 137.314 197.537, 139.433 197.264, 140.387 195.750 C 141.191 194.475, 141.190 193.525, 140.386 192.250 C 139.356 190.617, 134.934 190.483, 74.220 190.243 C 16.058 190.013, 8.990 190.153, 7.579 191.564 M 46 226 L 46 254 74 254 L 102 254 102 226 L 102 198 74 198 L 46 198 46 226 " stroke="none" fill="black" fill-rule="evenodd"/>
</svg>