<svg xmlns="http://www.w3.org/2000/svg" width="196" height="324" viewBox="0 0 196 324" version="1.1">
	<path d="M 71.571 127.571 C 70.212 128.931, 70 133.233, 70 159.464 C 70 192.836, 70.365 191, 63.732 191 C 54.568 191, 35.820 198.385, 24.529 206.442 C 17.095 211.747, 6 223.523, 6 226.109 C 6 229.637, 9.165 230, 39.934 230 L 70 230 70 244.429 C 70 256.212, 70.288 259.145, 71.571 260.429 C 72.436 261.293, 73.529 262, 74 262 C 74.471 262, 75.564 261.293, 76.429 260.429 C 77.712 259.145, 78 256.212, 78 244.429 L 78 230 107.918 230 C 124.373 230, 138.548 229.727, 139.418 229.393 C 142.107 228.361, 141.183 224.996, 136.759 219.712 C 124.318 204.853, 103.668 193.600, 84.500 191.234 L 78.500 190.493 78 159.209 C 77.579 132.866, 77.263 127.775, 76 126.978 C 73.947 125.681, 73.387 125.756, 71.571 127.571 M 167.315 207.213 C 157.792 216.680, 150 225.134, 150 226 C 150 227.680, 183.953 262, 185.615 262 C 187.105 262, 189 259.795, 189 258.062 C 189 257.216, 182.143 249.656, 173.762 241.262 L 158.524 226 173.762 210.738 C 182.143 202.344, 189 194.784, 189 193.938 C 189 192.205, 187.105 190, 185.615 190 C 185.073 190, 176.838 197.746, 167.315 207.213 M 57.365 199.493 C 44.750 202.237, 32.468 208.503, 22.894 217.081 L 17.500 221.913 43.750 221.957 L 70 222 70 210 L 70 198 66.750 198.079 C 64.963 198.123, 60.739 198.759, 57.365 199.493 M 78 209.885 L 78 222 103.500 222 C 117.525 222, 129 221.826, 129 221.613 C 129 220.621, 114.897 209.912, 110 207.186 C 103.022 203.303, 91.176 199.368, 83.750 198.467 L 78 197.770 78 209.885 " stroke="none" fill="black" fill-rule="evenodd"/>
</svg>