<svg xmlns="http://www.w3.org/2000/svg" width="244" height="324" viewBox="0 0 244 324" version="1.1">
	<path d="M 7.571 127.571 C 6.707 128.436, 6 129.529, 6 130 C 6 131.111, 8.889 134, 10 134 C 11.111 134, 14 131.111, 14 130 C 14 128.889, 11.111 126, 10 126 C 9.529 126, 8.436 126.707, 7.571 127.571 M 71.571 159.571 C 70.707 160.436, 70 161.529, 70 162 C 70 162.471, 70.707 163.564, 71.571 164.429 C 72.436 165.293, 73.529 166, 74 166 C 74.471 166, 75.564 165.293, 76.429 164.429 C 77.293 163.564, 78 162.471, 78 162 C 78 161.529, 77.293 160.436, 76.429 159.571 C 75.564 158.707, 74.471 158, 74 158 C 73.529 158, 72.436 158.707, 71.571 159.571 M 135.616 159.527 C 134.727 160.416, 134 161.529, 134 162 C 134 163.389, 137.140 166.120, 138.295 165.735 C 140.395 165.035, 141.549 162.094, 140.423 160.310 C 138.905 157.902, 137.474 157.669, 135.616 159.527 M 129.500 174.997 C 119.334 176.653, 110.088 181.248, 103.655 187.839 C 100.317 191.259, 99.960 192.056, 100.941 193.889 C 102.506 196.814, 104.160 196.544, 108.894 192.589 C 118.725 184.375, 127.053 181.542, 139.454 182.193 C 150.689 182.783, 158.660 186.565, 167.437 195.474 C 174.827 202.973, 181.051 206.279, 192.172 208.613 C 205.212 211.348, 220.827 207.300, 231.748 198.350 C 236.328 194.598, 237.045 191.672, 233.873 189.685 C 232.605 188.890, 231.264 189.469, 227.803 192.305 C 220.517 198.276, 212.710 201.317, 203.409 201.807 C 190.086 202.510, 179.641 198.480, 172.054 189.708 C 162.749 178.951, 144.324 172.581, 129.500 174.997 M 7.571 191.571 C 6.707 192.436, 6 193.529, 6 194 C 6 195.111, 8.889 198, 10 198 C 11.111 198, 14 195.111, 14 194 C 14 192.889, 11.111 190, 10 190 C 9.529 190, 8.436 190.707, 7.571 191.571 M 71.571 223.571 C 70.707 224.436, 70 225.529, 70 226 C 70 226.471, 70.707 227.564, 71.571 228.429 C 72.436 229.293, 73.529 230, 74 230 C 74.471 230, 75.564 229.293, 76.429 228.429 C 77.293 227.564, 78 226.471, 78 226 C 78 225.529, 77.293 224.436, 76.429 223.571 C 75.564 222.707, 74.471 222, 74 222 C 73.529 222, 72.436 222.707, 71.571 223.571 M 135.616 223.527 C 134.727 224.416, 134 225.529, 134 226 C 134 227.389, 137.140 230.120, 138.295 229.735 C 140.395 229.035, 141.549 226.094, 140.423 224.310 C 138.905 221.902, 137.474 221.669, 135.616 223.527 M 7.571 255.571 C 6.707 256.436, 6 257.529, 6 258 C 6 259.111, 8.889 262, 10 262 C 11.111 262, 14 259.111, 14 258 C 14 256.889, 11.111 254, 10 254 C 9.529 254, 8.436 254.707, 7.571 255.571 " stroke="none" fill="black" fill-rule="evenodd"/>
</svg>