<svg xmlns="http://www.w3.org/2000/svg" width="148" height="324" viewBox="0 0 148 324" version="1.1">
	<path d="M 105.477 157.039 L 74.380 188.078 72.441 185.935 C 71.375 184.757, 68.687 182.729, 66.468 181.429 C 52.685 173.351, 35.872 172.411, 21.527 178.915 C 13.729 182.451, 4.773 190.415, 5.204 193.430 C 5.738 197.166, 9.662 196.567, 14.627 191.990 C 21.599 185.563, 28.781 182.756, 39.500 182.266 C 46.712 181.937, 49.639 182.255, 54.233 183.868 C 59.769 185.811, 69 191.381, 69 192.778 C 69 193.152, 54.825 207.659, 37.500 225.016 C 20.175 242.372, 6 257.086, 6 257.715 C 6 259.191, 8.809 262, 10.285 262 C 10.914 262, 25.628 247.825, 42.983 230.501 L 74.539 199.002 78.470 201.673 C 87.455 207.779, 100.777 210.703, 111.750 208.977 C 123.868 207.071, 140.509 197.440, 139.805 192.740 C 139.178 188.551, 136.558 188.409, 131.803 192.305 C 120.704 201.400, 105.950 204.330, 92.329 200.144 C 88.573 198.990, 84.150 196.935, 82.500 195.578 L 79.500 193.110 110.250 162.299 C 127.162 145.353, 141 130.793, 141 129.944 C 141 128.192, 139.103 126, 137.587 126 C 137.029 126, 122.580 139.968, 105.477 157.039 " stroke="none" fill="black" fill-rule="evenodd"/>
</svg>