<svg xmlns="http://www.w3.org/2000/svg" width="84" height="324" viewBox="0 0 84 324" version="1.1">
	<path d="M 7.571 127.571 C 6.175 128.968, 6.002 136.388, 6.016 194.321 C 6.028 244.993, 6.327 260.757, 7.360 265.147 C 13.578 291.562, 45.012 301.439, 65.100 283.290 C 67.306 281.298, 70.281 277.671, 71.710 275.231 C 77.400 265.523, 77.427 265.155, 77.740 194.336 C 77.998 135.935, 77.864 129.007, 76.443 127.586 C 74.455 125.598, 73.548 125.595, 71.571 127.571 C 70.182 128.961, 70 135.345, 70 182.699 L 70 236.255 65.599 232.198 C 51.626 219.318, 31.863 219.095, 17.955 231.660 L 14 235.233 14 182.188 C 14 135.298, 13.818 128.961, 12.429 127.571 C 11.564 126.707, 10.471 126, 10 126 C 9.529 126, 8.436 126.707, 7.571 127.571 M 39.571 159.571 C 38.707 160.436, 38 161.529, 38 162 C 38 163.111, 40.889 166, 42 166 C 43.111 166, 46 163.111, 46 162 C 46 160.889, 43.111 158, 42 158 C 41.529 158, 40.436 158.707, 39.571 159.571 M 39.571 191.571 C 38.707 192.436, 38 193.529, 38 194 C 38 195.111, 40.889 198, 42 198 C 43.111 198, 46 195.111, 46 194 C 46 192.889, 43.111 190, 42 190 C 41.529 190, 40.436 190.707, 39.571 191.571 M 31.054 231.728 C 25.018 233.859, 17.781 241.260, 15.667 247.463 C 9.198 266.450, 21.964 285, 41.500 285 C 49.295 285, 55.452 282.453, 60.952 276.952 C 78.571 259.333, 66.014 229.726, 41.072 230.079 C 38.007 230.122, 33.499 230.864, 31.054 231.728 " stroke="none" fill="black" fill-rule="evenodd"/>
</svg>