<svg xmlns="http://www.w3.org/2000/svg" width="148" height="324" viewBox="0 0 148 324" version="1.1">
	<path d="M 71.571 127.571 C 70.212 128.931, 70 133.233, 70 159.464 C 70 192.889, 70.382 191, 63.628 191 C 54.894 191, 38.643 197.086, 27.341 204.589 C 18.569 210.413, 6 223.074, 6 226.087 C 6 227.100, 6.870 228.395, 7.934 228.965 C 9.145 229.613, 21.122 230, 39.934 230 L 70 230 70 244.429 C 70 256.212, 70.288 259.145, 71.571 260.429 C 72.436 261.293, 73.529 262, 74 262 C 74.471 262, 75.564 261.293, 76.429 260.429 C 77.712 259.145, 78 256.212, 78 244.429 L 78 230 107.918 230 C 124.373 230, 138.548 229.727, 139.418 229.393 C 142.314 228.282, 141.056 224.786, 135.470 218.423 C 122.689 203.866, 103.377 193.564, 84.500 191.234 L 78.500 190.493 78 159.209 C 77.579 132.866, 77.263 127.775, 76 126.978 C 73.947 125.681, 73.387 125.756, 71.571 127.571 M 103.315 143.213 C 93.792 152.680, 86 161.134, 86 162 C 86 163.680, 119.953 198, 121.615 198 C 123.243 198, 125 195.729, 125 193.625 C 125 192.420, 119.267 185.871, 110.293 176.825 L 95.586 162 110.293 147.175 C 119.267 138.129, 125 131.580, 125 130.375 C 125 128.271, 123.243 126, 121.615 126 C 121.073 126, 112.838 133.746, 103.315 143.213 M 57.365 199.493 C 44.750 202.237, 32.468 208.503, 22.894 217.081 L 17.500 221.913 43.750 221.957 L 70 222 70 210 L 70 198 66.750 198.079 C 64.963 198.123, 60.739 198.759, 57.365 199.493 M 78 209.885 L 78 222 103.250 221.964 L 128.500 221.927 122.914 216.714 C 119.842 213.846, 114.784 209.986, 111.675 208.135 C 104.687 203.974, 91.405 199.371, 83.750 198.457 L 78 197.770 78 209.885 " stroke="none" fill="black" fill-rule="evenodd"/>
</svg>