<svg xmlns="http://www.w3.org/2000/svg" width="244" height="324" viewBox="0 0 244 324" version="1.1">
	<path d="M 168.500 158 L 136.512 190 72.827 190 C 16.266 190, 8.967 190.176, 7.571 191.571 C 5.598 193.545, 5.598 194.455, 7.571 196.429 C 8.844 197.701, 11.697 198, 22.575 198 L 36.006 198 21.020 227.961 C 12.777 244.439, 6.285 258.580, 6.594 259.384 C 7.265 261.133, 9.512 262.125, 11.274 261.448 C 11.975 261.180, 19.056 247.919, 27.010 231.980 C 34.964 216.041, 41.717 203, 42.016 203 C 42.315 203, 49.042 216.034, 56.965 231.964 C 64.888 247.894, 71.962 261.155, 72.685 261.433 C 73.408 261.710, 74.573 261.717, 75.274 261.448 C 75.975 261.180, 83.056 247.919, 91.010 231.980 C 98.964 216.041, 105.710 203, 106 203 C 106.290 203, 113.036 216.041, 120.990 231.980 C 128.944 247.919, 136.083 261.201, 136.853 261.497 C 138.718 262.213, 141 260.217, 141 257.871 C 141 256.835, 134.473 242.940, 126.497 226.993 L 111.993 198 125.313 198 L 138.632 198 170.029 166.502 L 201.427 135.005 217.034 150.502 C 225.618 159.026, 233.117 166, 233.698 166 C 235.296 166, 237.209 163.296, 236.833 161.570 C 236.419 159.669, 203.030 126, 201.559 126 C 200.970 126, 186.094 140.400, 168.500 158 M 60.743 223.500 C 67.750 237.525, 73.715 249, 74 249 C 74.285 249, 80.250 237.525, 87.257 223.500 L 99.995 198 74 198 L 48.005 198 60.743 223.500 M 167.315 239.213 C 157.792 248.680, 150 257.134, 150 258 C 150 259.680, 183.953 294, 185.615 294 C 187.105 294, 189 291.795, 189 290.062 C 189 289.216, 182.143 281.656, 173.762 273.262 L 158.524 258 173.762 242.738 C 182.143 234.344, 189 226.784, 189 225.938 C 189 224.205, 187.105 222, 185.615 222 C 185.073 222, 176.838 229.746, 167.315 239.213 " stroke="none" fill="black" fill-rule="evenodd"/>
</svg>