<svg xmlns="http://www.w3.org/2000/svg" width="212" height="324" viewBox="0 0 212 324" version="1.1">
	<path d="M 67 126.580 C 49.071 129.609, 38.129 134.764, 27.164 145.349 C 15.107 156.987, 8.421 170.983, 6.503 188.598 C 5.964 193.549, 6.150 195.007, 7.491 196.348 C 9.547 198.404, 10.439 198.418, 12.429 196.429 C 13.404 195.453, 14.006 193.082, 14.015 190.179 C 14.091 166.127, 34.559 141.323, 59.103 135.537 C 67.422 133.577, 80.634 133.591, 88.269 135.570 C 112.793 141.924, 133 166.056, 133 188.988 C 133 191.503, 133.699 194.554, 134.557 195.777 C 136.104 197.986, 136.290 198, 164.793 198 L 193.472 198 180.236 211.263 C 172.956 218.558, 167 225.218, 167 226.063 C 167 227.796, 168.896 230, 170.385 230 C 172.047 230, 206 195.680, 206 194 C 206 192.320, 172.047 158, 170.385 158 C 168.896 158, 167 160.204, 167 161.937 C 167 162.782, 172.956 169.442, 180.236 176.737 L 193.472 190 167.281 190 L 141.091 190 140.504 186.250 C 139.242 178.173, 136.528 169.326, 133.391 163.059 C 125.221 146.739, 108.325 133.177, 90.500 128.632 C 84.129 127.008, 71.167 125.876, 67 126.580 M 67.045 159.092 C 50.472 162.341, 38.748 176.597, 38.748 193.500 C 38.748 225.177, 77.698 240.495, 99.128 217.245 C 105.627 210.194, 108.444 203.016, 108.444 193.500 C 108.444 186.983, 107.960 184.458, 105.837 179.880 C 100.882 169.199, 92.164 161.953, 81.147 159.360 C 74.826 157.873, 73.405 157.846, 67.045 159.092 M 64.500 167.176 C 52.837 171.601, 46 181.309, 46 193.448 C 46 204.157, 51.461 213.331, 60.621 218.008 C 64.689 220.086, 66.913 220.500, 74 220.500 C 81.457 220.500, 83.070 220.165, 87.145 217.770 C 96.431 212.310, 100.956 204.359, 100.956 193.500 C 100.956 182.687, 96.421 174.675, 87.261 169.307 C 83.647 167.189, 81.196 166.592, 75.117 166.346 C 70.928 166.177, 66.150 166.550, 64.500 167.176 " stroke="none" fill="black" fill-rule="evenodd"/>
</svg>