<svg xmlns="http://www.w3.org/2000/svg" width="180" height="324" viewBox="0 0 180 324" version="1.1">
	<path d="M 87.571 127.571 C 86.176 128.966, 86 136.152, 86 191.571 L 86 254 71.571 254 C 59.788 254, 56.855 254.288, 55.571 255.571 C 53.598 257.545, 53.598 258.455, 55.571 260.429 C 56.936 261.793, 61.463 262, 90 262 C 118.537 262, 123.064 261.793, 124.429 260.429 C 125.293 259.564, 126 258.471, 126 258 C 126 257.529, 125.293 256.436, 124.429 255.571 C 123.145 254.288, 120.212 254, 108.429 254 L 94 254 94 191.571 C 94 136.152, 93.824 128.966, 92.429 127.571 C 91.564 126.707, 90.471 126, 90 126 C 89.529 126, 88.436 126.707, 87.571 127.571 M 23.315 175.213 C 13.792 184.680, 6 193.134, 6 194 C 6 195.761, 39.994 230, 41.743 230 C 43.180 230, 46 227.185, 46 225.751 C 46 225.143, 39.156 217.750, 30.792 209.323 L 15.584 194 30.792 178.677 C 39.156 170.250, 46 162.857, 46 162.249 C 46 160.815, 43.180 158, 41.743 158 C 41.131 158, 32.838 165.746, 23.315 175.213 M 135.571 159.571 C 134.707 160.436, 134 161.640, 134 162.249 C 134 162.857, 140.844 170.250, 149.208 178.677 L 164.416 194 149.208 209.323 C 140.844 217.750, 134 225.143, 134 225.751 C 134 227.185, 136.820 230, 138.257 230 C 140.006 230, 174 195.761, 174 194 C 174 192.239, 140.006 158, 138.257 158 C 137.644 158, 136.436 158.707, 135.571 159.571 " stroke="none" fill="black" fill-rule="evenodd"/>
</svg>