<svg xmlns="http://www.w3.org/2000/svg" width="212" height="324" viewBox="0 0 212 324" version="1.1">
	<path d="M 7.200 191.200 C 6.315 192.085, 6 201.117, 6 225.629 C 6 254.503, 6.206 259.063, 7.571 260.429 C 8.436 261.293, 9.529 262, 10 262 C 10.471 262, 11.564 261.293, 12.429 260.429 C 13.788 259.069, 14 254.758, 14 228.429 L 14 198 74 198 L 134 198 134 228.429 C 134 254.758, 134.212 259.069, 135.571 260.429 C 136.936 261.793, 141.430 262, 169.637 262 C 190.124 262, 202.846 261.617, 204.066 260.965 C 205.130 260.395, 206 259.061, 206 258 C 206 256.939, 205.130 255.605, 204.066 255.035 C 202.855 254.387, 190.878 254, 172.066 254 L 142 254 142 223.200 C 142 200.578, 141.681 192.081, 140.800 191.200 C 139.065 189.465, 8.935 189.465, 7.200 191.200 " stroke="none" fill="black" fill-rule="evenodd"/>
</svg>