<svg xmlns="http://www.w3.org/2000/svg" width="180" height="324" viewBox="0 0 180 324" version="1.1">
	<path d="M 103.627 127.515 C 102.732 128.411, 102 129.529, 102 130 C 102 132.122, 105.426 134.001, 109.321 134.015 C 132.830 134.098, 157.745 154.847, 163.463 179.103 C 165.390 187.282, 165.390 199.718, 163.463 207.897 C 158.662 228.261, 140.261 246.662, 119.897 251.463 C 92.467 257.928, 64.215 244.757, 52.172 219.889 C 49.938 215.275, 47.813 209.925, 47.449 208 C 46.826 204.696, 47.513 205.213, 59.730 217.250 C 66.848 224.262, 73.164 230, 73.765 230 C 75.187 230, 78 227.173, 78 225.743 C 78 223.994, 43.761 190, 42 190 C 40.239 190, 6 223.994, 6 225.743 C 6 227.176, 8.814 230, 10.241 230 C 10.845 230, 17.509 223.887, 25.050 216.415 L 38.760 202.830 40.008 208.165 C 45.695 232.470, 64.872 252.205, 89 258.586 C 97.616 260.864, 113.399 260.868, 121.864 258.595 C 146.257 252.044, 165.106 232.666, 171.075 208 C 172.913 200.407, 172.664 184.938, 170.576 177 C 164.413 153.566, 145.144 134.323, 122.093 128.580 C 111.976 126.060, 105.459 125.684, 103.627 127.515 " stroke="none" fill="black" fill-rule="evenodd"/>
</svg>