<svg xmlns="http://www.w3.org/2000/svg" width="180" height="324" viewBox="0 0 180 324" version="1.1">
	<path d="M 103.627 127.515 C 102.732 128.411, 102 129.529, 102 130 C 102 132.122, 105.426 134.001, 109.321 134.015 C 132.791 134.098, 157.754 154.887, 163.463 179.103 C 165.390 187.282, 165.390 199.718, 163.463 207.897 C 158.662 228.261, 140.261 246.662, 119.897 251.463 C 92.528 257.914, 64.202 244.725, 52.198 219.942 C 49.950 215.299, 47.813 209.925, 47.449 208 C 46.826 204.696, 47.513 205.213, 59.730 217.250 C 66.848 224.262, 73.164 230, 73.765 230 C 75.187 230, 78 227.173, 78 225.743 C 78 223.994, 43.761 190, 42 190 C 40.239 190, 6 223.994, 6 225.743 C 6 227.176, 8.814 230, 10.241 230 C 10.845 230, 17.493 223.903, 25.014 216.451 L 38.688 202.901 40.351 209.641 C 44.174 225.131, 55.553 240.978, 69.307 249.965 L 75.483 254 58.313 254 C 44.037 254, 40.878 254.265, 39.571 255.571 C 37.598 257.545, 37.598 258.455, 39.571 260.429 C 40.968 261.825, 48.372 262, 106 262 C 163.628 262, 171.032 261.825, 172.429 260.429 C 174.402 258.455, 174.402 257.545, 172.429 255.571 C 171.119 254.261, 167.917 254, 153.187 254 L 135.517 254 141.693 249.965 C 150.563 244.169, 160.942 232.649, 165.245 223.823 C 170.450 213.150, 172.304 205.183, 172.304 193.500 C 172.304 181.743, 170.451 173.760, 165.222 163 C 160.103 152.465, 146.580 138.930, 136 133.751 C 123.664 127.714, 106.697 124.445, 103.627 127.515 " stroke="none" fill="black" fill-rule="evenodd"/>
</svg>