<svg xmlns="http://www.w3.org/2000/svg" width="212" height="324" viewBox="0 0 212 324" version="1.1">
	<path d="M 7.571 191.571 C 4.148 194.995, 7.242 198, 14.190 198 L 19.237 198 16.080 201.229 C 9.107 208.362, 5.193 221.169, 6.996 230.954 C 9.855 246.471, 20.423 257.075, 35.938 259.996 C 49.305 262.512, 65.300 255.142, 71.515 243.603 L 73.323 240.245 76.838 245.355 C 81.102 251.554, 83.028 253.245, 89.500 256.476 C 100.178 261.806, 112.203 261.709, 122.341 256.209 C 128.179 253.042, 134.292 247.123, 136.012 242.971 L 137.272 239.930 140.679 244.990 C 148.404 256.461, 162.862 262.616, 175.802 259.943 C 188.031 257.417, 196.177 251.089, 201.361 240.089 C 204.025 234.433, 204.465 232.367, 204.465 225.500 C 204.465 218.642, 204.026 216.572, 201.388 211 C 199.696 207.425, 196.936 203.037, 195.255 201.250 L 192.198 198 197.165 198 C 199.896 198, 203.002 197.534, 204.066 196.965 C 206.554 195.633, 206.554 192.367, 204.066 191.035 C 202.771 190.342, 170.241 190, 105.637 190 C 19.248 190, 8.978 190.165, 7.571 191.571 M 31.605 199.568 C 24.049 202.337, 24.073 202.527, 33.170 211.671 L 41.457 220.001 49.692 211.809 C 58.838 202.711, 58.906 202.178, 51.260 199.573 C 45.620 197.651, 36.842 197.649, 31.605 199.568 M 65.926 200.145 C 67.192 201.325, 69.446 204.211, 70.934 206.557 L 73.640 210.824 75.443 207.476 C 76.435 205.635, 78.594 202.749, 80.242 201.064 L 83.237 198 73.430 198 L 63.623 198 65.926 200.145 M 96.398 199.326 C 94.693 199.972, 92.312 201.175, 91.109 202 C 88.952 203.479, 89.041 203.618, 97.468 211.985 L 106.015 220.470 114.257 212.183 L 122.500 203.896 120.170 201.973 C 115.529 198.142, 103.164 196.765, 96.398 199.326 M 131.351 201.550 C 133.247 203.502, 135.355 206.442, 136.034 208.083 L 137.270 211.067 139.775 207.283 C 141.152 205.202, 143.425 202.262, 144.827 200.750 L 147.374 198 137.639 198 L 127.904 198 131.351 201.550 M 160.398 199.326 C 158.693 199.972, 156.312 201.175, 155.109 202 C 152.952 203.479, 153.041 203.618, 161.468 211.985 L 170.015 220.470 178.257 212.183 L 186.500 203.896 184.170 201.973 C 179.529 198.142, 167.164 196.765, 160.398 199.326 M 18.184 210.278 C 14.139 215.152, 12.867 227.319, 15.573 235.260 C 18.178 242.906, 18.711 242.838, 27.809 233.692 L 36.001 225.457 27.671 217.170 C 20.854 210.389, 19.131 209.137, 18.184 210.278 M 55.177 217.322 L 46.999 225.543 55.329 233.830 C 64.415 242.869, 64.481 242.879, 67.479 235.705 C 70.481 228.519, 68.486 212.273, 64.282 209.674 C 63.772 209.359, 59.675 212.801, 55.177 217.322 M 81.781 211.250 C 76.635 219.237, 76.769 233.101, 82.058 240.058 L 83.915 242.500 91.958 234.523 C 96.381 230.136, 100 226.076, 100 225.500 C 100 224.407, 84.913 209, 83.843 209 C 83.506 209, 82.578 210.012, 81.781 211.250 M 119.177 217.322 L 110.999 225.543 119.329 233.830 C 128.415 242.869, 128.481 242.879, 131.479 235.705 C 134.481 228.519, 132.486 212.273, 128.282 209.674 C 127.772 209.359, 123.675 212.801, 119.177 217.322 M 144.464 214.250 C 142.726 217.982, 142.020 221.235, 142.020 225.500 C 142.020 231.368, 145.697 242, 147.727 242 C 148.905 242, 164 226.652, 164 225.454 C 164 224.291, 148.835 209, 147.682 209 C 147.256 209, 145.808 211.363, 144.464 214.250 M 183.227 217.271 L 174.999 225.543 183.270 233.771 C 187.820 238.297, 191.814 242, 192.148 242 C 193.877 242, 197.250 231.092, 197.250 225.500 C 197.250 219.840, 193.870 209, 192.105 209 C 191.748 209, 187.753 212.722, 183.227 217.271 M 33.170 239.329 C 24.017 248.530, 24.002 248.678, 31.962 251.487 C 37.497 253.439, 45.426 253.415, 51.260 251.427 C 58.906 248.822, 58.838 248.289, 49.692 239.191 L 41.457 230.999 33.170 239.329 M 97.159 239.340 L 88.863 247.680 91.181 249.174 C 99.199 254.342, 113.801 254.272, 120.170 249.034 L 122.500 247.118 114.523 239.059 C 110.136 234.627, 106.301 231, 106.001 231 C 105.701 231, 101.722 234.753, 97.159 239.340 M 161.159 239.340 L 152.863 247.680 155.181 249.174 C 163.199 254.342, 177.801 254.272, 184.170 249.034 L 186.500 247.118 178.523 239.059 C 174.136 234.627, 170.301 231, 170.001 231 C 169.701 231, 165.722 234.753, 161.159 239.340 " stroke="none" fill="black" fill-rule="evenodd"/>
</svg>