<svg xmlns="http://www.w3.org/2000/svg" width="84" height="324" viewBox="0 0 84 324" version="1.1">
	<path d="M 7.200 159.200 C 5.481 160.919, 5.481 227.081, 7.200 228.800 C 8.919 230.519, 75.081 230.519, 76.800 228.800 C 78.519 227.081, 78.519 160.919, 76.800 159.200 C 75.081 157.481, 8.919 157.481, 7.200 159.200 M 14 194 L 14 222 42 222 L 70 222 70 194 L 70 166 42 166 L 14 166 14 194 M 39.571 191.571 C 38.707 192.436, 38 193.529, 38 194 C 38 195.111, 40.889 198, 42 198 C 43.111 198, 46 195.111, 46 194 C 46 192.889, 43.111 190, 42 190 C 41.529 190, 40.436 190.707, 39.571 191.571 M 7.571 255.571 C 6.707 256.436, 6 257.529, 6 258 C 6 258.471, 6.707 259.564, 7.571 260.429 C 8.936 261.793, 13.463 262, 42 262 C 70.537 262, 75.064 261.793, 76.429 260.429 C 77.293 259.564, 78 258.471, 78 258 C 78 257.529, 77.293 256.436, 76.429 255.571 C 75.064 254.207, 70.537 254, 42 254 C 13.463 254, 8.936 254.207, 7.571 255.571 " stroke="none" fill="black" fill-rule="evenodd"/>
</svg>