<svg xmlns="http://www.w3.org/2000/svg" width="148" height="324" viewBox="0 0 148 324" version="1.1">
	<path d="M 7.571 127.571 C 6.707 128.436, 6 129.619, 6 130.200 C 6 130.782, 9.872 135.215, 14.605 140.051 L 23.210 148.845 19.558 153.628 C 11.085 164.725, 6.696 178.330, 6.696 193.500 C 6.696 212.834, 12.449 226.527, 26.461 240.539 C 40.473 254.551, 54.166 260.304, 73.500 260.304 C 88.590 260.304, 100.978 256.242, 113.308 247.251 L 118.116 243.745 127.423 252.872 C 132.542 257.893, 137.151 262, 137.665 262 C 139.123 262, 141 259.765, 141 258.029 C 141 257.165, 136.975 252.451, 132.054 247.554 L 123.109 238.650 125.938 235.075 C 141.990 214.790, 144.559 184.973, 132.264 161.652 C 126.889 151.456, 114.958 139.703, 104.500 134.303 C 93.531 128.639, 85.637 126.699, 73.500 126.681 C 58.294 126.660, 44.822 131.010, 33.628 139.558 L 28.845 143.210 20.051 134.605 C 15.215 129.872, 10.782 126, 10.200 126 C 9.619 126, 8.436 126.707, 7.571 127.571 M 57.500 135.870 C 50.941 137.758, 41.042 142.730, 36.817 146.259 L 34.134 148.500 76.095 191 L 118.056 233.500 120.052 231 C 131.315 216.888, 135.584 196.424, 131.003 178.511 C 125.680 157.698, 108.268 140.339, 87.897 135.537 C 79.386 133.531, 65.080 133.688, 57.500 135.870 M 25.263 158.133 C 20.718 164.762, 17.318 171.986, 15.574 178.716 C 13.553 186.514, 13.558 200.499, 15.585 208.356 C 20.838 228.716, 38.284 246.162, 58.644 251.415 C 65.760 253.251, 78.565 253.481, 86.201 251.910 C 92.158 250.685, 106.077 244.214, 110.232 240.739 L 112.963 238.454 70.610 196.110 L 28.257 153.766 25.263 158.133 M 87.571 159.571 C 85.391 161.752, 85.221 195.109, 87.382 196.902 C 88.332 197.691, 94.143 197.963, 106.024 197.774 C 121.193 197.533, 123.418 197.288, 124.387 195.750 C 125.191 194.475, 125.191 193.525, 124.387 192.250 C 123.430 190.730, 121.291 190.464, 108.142 190.224 L 93 189.948 93 175.174 C 93 165.016, 92.625 160.025, 91.800 159.200 C 90.219 157.619, 89.457 157.685, 87.571 159.571 " stroke="none" fill="black" fill-rule="evenodd"/>
</svg>