<svg xmlns="http://www.w3.org/2000/svg" width="164" height="324" viewBox="0 0 164 324" version="1.1">
	<path d="M 7.515 191.627 C 4.304 194.839, 7.859 212.031, 14.313 224.500 C 22.554 240.422, 39.386 253.855, 57 258.566 C 65.641 260.877, 81.343 260.879, 90 258.571 C 108.033 253.763, 123.481 241.792, 132.369 225.738 C 136.070 219.055, 139.990 207.470, 140.015 203.145 C 140.024 201.690, 140.405 199.909, 140.863 199.187 C 142.083 197.264, 147.572 202.172, 148.982 206.447 C 150.961 212.442, 146.492 219.538, 139.886 220.889 C 135.904 221.704, 134.042 224.278, 135.645 226.750 C 138.254 230.771, 148.937 226.584, 153.736 219.659 C 157.461 214.284, 157.650 205.373, 154.157 199.741 C 150.185 193.336, 137.987 187.901, 135.179 191.284 C 134.523 192.075, 133.560 196.081, 133.040 200.187 C 129.891 225.020, 112.245 245.217, 88.269 251.430 C 80.634 253.409, 67.422 253.423, 59.103 251.463 C 35.058 245.795, 14 220.683, 14 197.677 C 14 194.888, 13.395 192.538, 12.429 191.571 C 10.444 189.587, 9.546 189.597, 7.515 191.627 " stroke="none" fill="black" fill-rule="evenodd"/>
</svg>