<svg xmlns="http://www.w3.org/2000/svg" width="148" height="324" viewBox="0 0 148 324" version="1.1">
	<path d="M 71.571 127.571 C 70.178 128.965, 70 135.897, 70 188.774 L 70 248.405 56.667 235.202 C 49.334 227.941, 42.841 222, 42.239 222 C 40.825 222, 38 224.820, 38 226.232 C 38 226.831, 43.512 232.922, 50.250 239.767 C 61.854 251.556, 62.316 252.178, 59 251.551 C 57.075 251.188, 51.675 249.043, 47 246.786 C 28.415 237.813, 14 216.361, 14 197.677 C 14 194.888, 13.395 192.538, 12.429 191.571 C 10.444 189.587, 9.546 189.597, 7.515 191.627 C 4.455 194.687, 7.723 211.724, 13.687 223.806 C 17.869 232.277, 28.286 244.004, 36.433 249.412 C 43.520 254.116, 55.137 258.705, 62 259.513 C 65.025 259.869, 68.773 260.563, 70.328 261.055 C 72.027 261.593, 74.822 261.572, 77.328 261.002 C 79.623 260.480, 84.425 259.509, 88 258.843 C 91.643 258.165, 98.425 255.671, 103.431 253.169 C 114.563 247.606, 125.743 237.013, 131.564 226.513 C 140.894 209.682, 143.164 186.631, 135.064 190.966 C 133.469 191.819, 133 193.049, 133 196.375 C 133 203.078, 129.374 215.635, 125.340 222.899 C 119.901 232.695, 109.975 242.003, 99.820 246.829 C 95.244 249.004, 90.200 251.081, 88.612 251.445 L 85.724 252.107 89.787 247.304 C 92.022 244.662, 97.259 239.136, 101.425 235.025 C 105.591 230.914, 109 226.841, 109 225.975 C 109 224.219, 107.120 222, 105.633 222 C 105.101 222, 98.666 227.941, 91.333 235.202 L 78 248.405 78 189.425 C 78 137.662, 77.810 130.173, 76.443 128.223 C 74.598 125.588, 73.678 125.465, 71.571 127.571 " stroke="none" fill="black" fill-rule="evenodd"/>
</svg>