<svg xmlns="http://www.w3.org/2000/svg" width="148" height="324" viewBox="0 0 148 324" version="1.1">
	<path d="M 66.344 158.988 C 53.829 161.626, 42.604 172.450, 39.442 184.929 L 38.284 189.500 23.103 190 C 11.089 190.396, 7.725 190.813, 6.976 192 C 5.681 194.054, 5.757 194.614, 7.571 196.429 C 8.860 197.717, 11.833 198, 24.071 198 L 39 198 39 200.340 C 39 207.279, 49.023 220.431, 57.651 224.813 C 77.088 234.686, 101.530 223.802, 107.141 202.774 L 108.402 198.049 123.843 197.774 C 137.278 197.536, 139.428 197.273, 140.387 195.750 C 141.191 194.475, 141.191 193.525, 140.387 192.250 C 139.428 190.728, 137.280 190.464, 123.873 190.226 L 108.462 189.952 107.247 184.839 C 105.746 178.520, 101.058 171.062, 95.709 166.483 C 88.455 160.274, 75.694 157.017, 66.344 158.988 M 63.463 167.591 C 55.567 170.395, 48.189 178.737, 46.519 186.750 L 45.841 190 73.440 190 L 101.038 190 100.392 187.250 C 98.374 178.665, 91.032 170.404, 82.684 167.326 C 78.323 165.718, 68.351 165.856, 63.463 167.591 M 46.599 200.750 C 49.282 212.326, 60.817 221, 73.529 221 C 85.900 221, 96.568 212.967, 99.976 201.084 L 100.860 198 73.411 198 L 45.962 198 46.599 200.750 " stroke="none" fill="black" fill-rule="evenodd"/>
</svg>