<svg xmlns="http://www.w3.org/2000/svg" width="212" height="324" viewBox="0 0 212 324" version="1.1">
	<path d="M 103.571 159.571 C 102.707 160.436, 102 161.636, 102 162.239 C 102 162.841, 107.941 169.334, 115.202 176.667 L 128.405 190 68.774 190 C 15.897 190, 8.965 190.178, 7.571 191.571 C 5.598 193.545, 5.598 194.455, 7.571 196.429 C 8.965 197.822, 15.897 198, 68.774 198 L 128.405 198 115.202 211.333 C 107.941 218.666, 102 225.159, 102 225.761 C 102 227.178, 104.822 230, 106.239 230 C 106.841 230, 113.334 224.059, 120.667 216.798 L 134 203.595 134 215.226 C 134 224.466, 134.323 227.180, 135.571 228.429 C 136.937 229.794, 141.497 230, 170.371 230 C 194.883 230, 203.915 229.685, 204.800 228.800 C 206.519 227.081, 206.519 160.919, 204.800 159.200 C 203.915 158.315, 194.883 158, 170.371 158 C 141.497 158, 136.937 158.206, 135.571 159.571 C 134.323 160.820, 134 163.534, 134 172.774 L 134 184.405 120.667 171.202 C 113.334 163.941, 106.841 158, 106.239 158 C 105.636 158, 104.436 158.707, 103.571 159.571 M 142 194 L 142 222 170.500 222 L 199 222 199 194 L 199 166 170.500 166 L 142 166 142 194 " stroke="none" fill="black" fill-rule="evenodd"/>
</svg>