<svg xmlns="http://www.w3.org/2000/svg" width="148" height="324" viewBox="0 0 148 324" version="1.1">
	<path d="M 64.500 126.944 C 48.464 129.540, 38.190 134.822, 26.461 146.500 C 19.435 153.496, 16.611 157.170, 13.778 163 C 7.648 175.615, 4.334 193.191, 7.491 196.348 C 10.992 199.850, 14 196.834, 14 189.823 C 14 176.930, 20.788 161.952, 31.388 151.459 C 43.158 139.807, 56.947 134, 72.845 134 C 83.674 134, 89.916 135.424, 99.820 140.153 C 109.977 145.002, 119.912 154.325, 125.340 164.101 C 129.365 171.350, 133 183.919, 133 190.589 C 133 194.479, 134.839 198, 136.871 198 C 140.482 198, 141.008 188.263, 138.028 176.609 C 134.978 164.686, 129.782 155.740, 120.457 146.361 C 113.703 139.568, 110.806 137.478, 102.933 133.719 C 97.745 131.242, 91.475 128.743, 89 128.165 C 82.400 126.623, 70.232 126.016, 64.500 126.944 M 65.972 159.329 C 47.771 163.347, 35.510 181.552, 38.987 199.396 C 44.456 227.466, 77.888 238.223, 97.777 218.313 C 105.474 210.608, 107.500 205.439, 107.500 193.500 C 107.500 181.367, 105.450 176.286, 97.353 168.339 C 89.097 160.238, 77.257 156.839, 65.972 159.329 M 63.627 167.468 C 58.247 169.386, 53.039 173.829, 49.500 179.519 C 46.982 183.568, 46.444 185.582, 46.150 192.050 C 45.760 200.623, 47.420 205.822, 52.447 211.770 C 58.859 219.355, 71.147 222.900, 81.231 220.074 C 92.579 216.894, 101 205.574, 101 193.500 C 101 182.038, 93.486 171.200, 82.965 167.488 C 77.743 165.645, 68.766 165.636, 63.627 167.468 M 71.616 191.527 C 70.727 192.416, 70 193.529, 70 194 C 70 195.389, 73.140 198.120, 74.295 197.735 C 76.395 197.035, 77.549 194.094, 76.423 192.310 C 74.905 189.902, 73.474 189.669, 71.616 191.527 " stroke="none" fill="black" fill-rule="evenodd"/>
</svg>