<svg xmlns="http://www.w3.org/2000/svg" width="212" height="324" viewBox="0 0 212 324" version="1.1">
	<path d="M 104.582 157.989 L 72.500 189.979 40.821 189.989 C 13.366 189.999, 8.933 190.209, 7.571 191.571 C 5.598 193.545, 5.598 194.455, 7.571 196.429 C 8.931 197.788, 13.242 198, 39.571 198 L 70 198 70 228.429 C 70 254.758, 70.212 259.069, 71.571 260.429 C 72.968 261.825, 80.406 262, 138.371 262 C 187.771 262, 203.891 261.709, 204.800 260.800 C 205.686 259.914, 206 250.810, 206 226.044 L 206 192.489 172.744 159.244 C 154.454 140.960, 138.853 126, 138.076 126 C 137.299 126, 122.227 140.395, 104.582 157.989 M 125.013 148.487 L 111.526 162.002 126.763 177.263 C 135.143 185.656, 142 193.210, 142 194.049 C 142 195.777, 107.975 230, 106.257 230 C 104.805 230, 102 227.179, 102 225.719 C 102 225.094, 107.981 218.601, 115.291 211.291 L 128.582 198 103.291 198 L 78 198 78 226 L 78 254 138.500 254 L 199 254 199 224.784 L 199 195.567 168.750 165.270 L 138.499 134.973 125.013 148.487 M 94.504 178.996 L 83.534 190 106.339 190 L 129.143 190 117.950 179.250 C 111.794 173.338, 106.469 168.386, 106.116 168.246 C 105.763 168.106, 100.538 172.943, 94.504 178.996 " stroke="none" fill="black" fill-rule="evenodd"/>
</svg>