<svg xmlns="http://www.w3.org/2000/svg" width="84" height="324" viewBox="0 0 84 324" version="1.1">
	<path d="M 7.571 127.571 C 6.707 128.436, 6 129.529, 6 130 C 6 130.471, 6.707 131.564, 7.571 132.429 C 8.855 133.712, 11.788 134, 23.571 134 L 38 134 38 194 L 38 254 23.571 254 C 11.788 254, 8.855 254.288, 7.571 255.571 C 5.598 257.545, 5.598 258.455, 7.571 260.429 C 8.936 261.793, 13.463 262, 42 262 C 70.537 262, 75.064 261.793, 76.429 260.429 C 78.402 258.455, 78.402 257.545, 76.429 255.571 C 75.145 254.288, 72.212 254, 60.429 254 L 46 254 46 194 L 46 134 60.429 134 C 72.212 134, 75.145 133.712, 76.429 132.429 C 77.293 131.564, 78 130.471, 78 130 C 78 129.529, 77.293 128.436, 76.429 127.571 C 75.064 126.207, 70.537 126, 42 126 C 13.463 126, 8.936 126.207, 7.571 127.571 " stroke="none" fill="black" fill-rule="evenodd"/>
</svg>