<svg xmlns="http://www.w3.org/2000/svg" width="84" height="324" viewBox="0 0 84 324" version="1.1">
	<path d="M 7.571 127.571 C 6.707 128.436, 6 129.640, 6 130.249 C 6 130.857, 12.850 138.257, 21.223 146.692 L 36.446 162.030 21.223 177.277 C 12.850 185.662, 6 193.216, 6 194.062 C 6 197.838, 7.482 198, 42 198 C 76.518 198, 78 197.838, 78 194.062 C 78 193.216, 71.150 185.662, 62.777 177.277 L 47.554 162.030 62.777 146.692 C 71.150 138.257, 78 130.857, 78 130.249 C 78 128.819, 75.181 126, 73.751 126 C 73.143 126, 65.750 132.844, 57.323 141.208 L 42 156.416 26.677 141.208 C 18.250 132.844, 10.857 126, 10.249 126 C 9.640 126, 8.436 126.707, 7.571 127.571 M 30.500 179 L 19.534 190 42 190 L 64.466 190 53.500 179 C 47.469 172.950, 42.294 168, 42 168 C 41.706 168, 36.531 172.950, 30.500 179 " stroke="none" fill="black" fill-rule="evenodd"/>
</svg>