<svg xmlns="http://www.w3.org/2000/svg" width="148" height="324" viewBox="0 0 148 324" version="1.1">
	<path d="M 55.213 143.315 C 45.746 152.838, 38 161.131, 38 161.743 C 38 163.175, 40.813 166, 42.239 166 C 42.841 166, 49.334 160.059, 56.667 152.798 L 70 139.595 70 196.298 L 70 253 67.750 252.985 C 62.850 252.953, 52.344 249.767, 45.603 246.268 C 28.078 237.172, 14 215.527, 14 197.677 C 14 194.888, 13.395 192.538, 12.429 191.571 C 10.444 189.587, 9.546 189.597, 7.515 191.627 C 4.445 194.697, 7.714 211.664, 13.751 224 C 19.010 234.745, 32.458 248.100, 43.290 253.334 C 54.062 258.540, 71.328 262.307, 77.823 260.869 C 79.845 260.421, 84.425 259.509, 88 258.843 C 91.642 258.165, 98.427 255.671, 103.431 253.169 C 114.563 247.606, 125.743 237.013, 131.564 226.513 C 140.894 209.682, 143.164 186.631, 135.064 190.966 C 133.469 191.819, 133 193.049, 133 196.375 C 133 203.078, 129.374 215.635, 125.340 222.899 C 119.912 232.675, 109.977 241.998, 99.820 246.847 C 92.461 250.361, 83.724 253, 79.451 253 C 78.200 253, 78 245.178, 78 196.298 L 78 139.595 91.333 152.798 C 98.666 160.059, 105.101 166, 105.633 166 C 107.124 166, 109.003 163.775, 108.971 162.050 C 108.931 159.973, 75.919 125.963, 73.963 125.984 C 73.117 125.993, 64.680 133.792, 55.213 143.315 " stroke="none" fill="black" fill-rule="evenodd"/>
</svg>