<svg xmlns="http://www.w3.org/2000/svg" width="212" height="324" viewBox="0 0 212 324" version="1.1">
	<path d="M 67 126.580 C 47.642 129.850, 36.088 135.756, 24.287 148.411 C 14.039 159.400, 8.260 172.458, 6.503 188.598 C 5.964 193.549, 6.150 195.007, 7.491 196.348 C 9.547 198.404, 10.439 198.418, 12.429 196.429 C 13.404 195.453, 14.006 193.082, 14.015 190.179 C 14.077 170.508, 28.124 149.239, 47 140.235 C 57.020 135.455, 63.312 133.995, 73.799 134.015 C 90.494 134.047, 104.140 139.821, 116.007 151.875 C 126.578 162.611, 133 176.638, 133 188.988 C 133 191.503, 133.699 194.554, 134.557 195.777 C 136.103 197.986, 136.299 198, 164.807 198.017 L 193.500 198.034 179.750 211.635 C 172.188 219.116, 166 225.558, 166 225.949 C 166 226.341, 172.095 232.700, 179.545 240.080 L 193.091 253.500 164.903 254 C 139.472 254.451, 136.608 254.671, 135.613 256.250 C 134.809 257.526, 134.809 258.474, 135.613 259.750 C 136.608 261.329, 139.470 261.549, 164.874 262 L 193.032 262.500 180.016 275.486 C 172.857 282.628, 167 289.175, 167 290.036 C 167 291.791, 168.886 294, 170.385 294 C 172.016 294, 206 259.696, 206 258.049 C 206 257.210, 199.143 249.656, 190.762 241.262 L 175.524 226 190.762 210.738 C 199.143 202.344, 206 194.790, 206 193.951 C 206 192.304, 172.016 158, 170.385 158 C 168.896 158, 167 160.204, 167 161.937 C 167 162.782, 172.956 169.442, 180.236 176.737 L 193.472 190 167.281 190 L 141.091 190 140.504 186.250 C 139.242 178.173, 136.528 169.326, 133.391 163.059 C 125.221 146.739, 108.325 133.177, 90.500 128.632 C 84.129 127.008, 71.167 125.876, 67 126.580 " stroke="none" fill="black" fill-rule="evenodd"/>
</svg>