<svg xmlns="http://www.w3.org/2000/svg" width="52" height="324" viewBox="0 0 52 324" version="1.1">
	<path d="M 19.513 130.250 C 10.967 140.221, 6.933 154.458, 8.901 167.696 C 10.153 176.108, 14.497 186.218, 19.125 191.490 L 22.100 194.878 21.998 226.189 C 21.941 243.410, 21.919 258.047, 21.948 258.715 C 22.071 261.583, 29 262.601, 29 259.751 C 29 259.182, 30.782 255.895, 32.960 252.447 C 38.850 243.120, 41 235.780, 41 225 C 41 214.457, 38.811 206.735, 33.443 198.344 L 30 192.961 30 162.046 C 30 144.379, 29.582 130.031, 29.025 128.565 C 27.495 124.540, 23.854 125.185, 19.513 130.250 M 19.472 143.721 C 14.947 154.551, 14.854 167.715, 19.237 177 L 21.833 182.500 21.917 161.250 C 21.962 149.563, 21.781 140, 21.513 140 C 21.246 140, 20.327 141.674, 19.472 143.721 M 30.163 225 C 30.163 241.935, 30.216 242.387, 31.792 239 C 34.072 234.098, 34.072 215.902, 31.792 211 C 30.216 207.613, 30.163 208.065, 30.163 225 " stroke="none" fill="black" fill-rule="evenodd"/>
</svg>