<svg xmlns="http://www.w3.org/2000/svg" width="148" height="324" viewBox="0 0 148 324" version="1.1">
	<path d="M 7.571 127.571 C 6.175 128.968, 6 136.372, 6 194 C 6 251.628, 6.175 259.032, 7.571 260.429 C 8.968 261.825, 16.343 261.998, 73.821 261.985 C 109.395 261.976, 139.081 261.601, 139.792 261.150 C 140.827 260.493, 141.071 247.248, 141.021 194.431 C 140.955 123.627, 141.005 124.321, 136.117 126.938 L 134 128.070 134 191.035 L 134 254 74 254 L 14 254 14 191.571 C 14 136.152, 13.824 128.966, 12.429 127.571 C 11.564 126.707, 10.471 126, 10 126 C 9.529 126, 8.436 126.707, 7.571 127.571 M 66.223 159.008 C 55.939 161.164, 46.017 169.415, 41.189 179.825 C 39.049 184.438, 38.551 187.001, 38.528 193.521 C 38.503 200.581, 38.889 202.333, 41.750 208.144 C 50.197 225.303, 68.981 232.808, 86.469 226.012 C 93.561 223.256, 101.466 215.850, 104.885 208.758 C 111.483 195.070, 108.040 177.616, 96.738 167.454 C 88.870 160.380, 76.289 156.898, 66.223 159.008 M 63.463 167.591 C 57.971 169.541, 52.552 174.205, 49.249 179.824 C 46.800 183.989, 46.500 185.483, 46.500 193.500 C 46.500 201.517, 46.800 203.011, 49.249 207.176 C 54.560 216.211, 63.166 221, 74.091 221 C 85.769 221, 96.963 212.244, 100.098 200.657 C 103.721 187.265, 95.838 172.176, 82.684 167.326 C 78.323 165.718, 68.351 165.856, 63.463 167.591 M 71.571 191.571 C 70.707 192.436, 70 193.529, 70 194 C 70 194.471, 70.707 195.564, 71.571 196.429 C 72.436 197.293, 73.529 198, 74 198 C 74.471 198, 75.564 197.293, 76.429 196.429 C 77.293 195.564, 78 194.471, 78 194 C 78 193.529, 77.293 192.436, 76.429 191.571 C 75.564 190.707, 74.471 190, 74 190 C 73.529 190, 72.436 190.707, 71.571 191.571 " stroke="none" fill="black" fill-rule="evenodd"/>
</svg>