<svg xmlns="http://www.w3.org/2000/svg" width="244" height="324" viewBox="0 0 244 324" version="1.1">
	<path d="M 231.750 127.080 C 229.372 128.465, 229.542 131.685, 232.064 133.034 C 235.753 135.008, 238.819 130.219, 235.800 127.200 C 234.367 125.767, 234.022 125.757, 231.750 127.080 M 103.616 159.527 C 102.727 160.416, 102 161.529, 102 162 C 102 163.389, 105.140 166.120, 106.295 165.735 C 108.395 165.035, 109.549 162.094, 108.423 160.310 C 106.905 157.902, 105.474 157.669, 103.616 159.527 M 167.616 159.527 C 166.727 160.416, 166 161.529, 166 162 C 166 163.389, 169.140 166.120, 170.295 165.735 C 172.395 165.035, 173.549 162.094, 172.423 160.310 C 170.905 157.902, 169.474 157.669, 167.616 159.527 M 33.829 175.066 C 30.710 175.529, 25.219 177.241, 21.626 178.870 C 13.744 182.444, 4.771 190.400, 5.204 193.430 C 5.738 197.166, 9.662 196.567, 14.627 191.990 C 17.111 189.700, 21.699 186.641, 24.822 185.193 C 29.798 182.886, 31.798 182.556, 41 182.531 C 55.236 182.492, 60.942 184.745, 69.980 193.973 C 73.566 197.635, 78.525 201.804, 81 203.237 C 96.096 211.979, 116.756 211.243, 131.528 201.437 C 140.095 195.751, 141.974 192.272, 137.873 189.690 C 136.602 188.890, 135.271 189.464, 131.803 192.305 C 129.359 194.308, 124.692 197.195, 121.430 198.723 C 116.127 201.206, 114.389 201.500, 105 201.500 C 95.341 201.500, 93.978 201.253, 87.986 198.413 C 83.698 196.381, 79.596 193.357, 75.986 189.566 C 72.968 186.398, 68.664 182.727, 66.420 181.408 C 57.023 175.883, 44.603 173.466, 33.829 175.066 M 231.750 191.080 C 229.372 192.465, 229.542 195.685, 232.064 197.034 C 235.753 199.008, 238.819 194.219, 235.800 191.200 C 234.367 189.767, 234.022 189.757, 231.750 191.080 M 103.616 223.527 C 102.727 224.416, 102 225.529, 102 226 C 102 227.389, 105.140 230.120, 106.295 229.735 C 108.395 229.035, 109.549 226.094, 108.423 224.310 C 106.905 221.902, 105.474 221.669, 103.616 223.527 M 167.616 223.527 C 166.727 224.416, 166 225.529, 166 226 C 166 227.389, 169.140 230.120, 170.295 229.735 C 172.395 229.035, 173.549 226.094, 172.423 224.310 C 170.905 221.902, 169.474 221.669, 167.616 223.527 M 231.750 255.080 C 229.372 256.465, 229.542 259.685, 232.064 261.034 C 235.753 263.008, 238.819 258.219, 235.800 255.200 C 234.367 253.767, 234.022 253.757, 231.750 255.080 " stroke="none" fill="black" fill-rule="evenodd"/>
</svg>