<svg xmlns="http://www.w3.org/2000/svg" width="148" height="324" viewBox="0 0 148 324" version="1.1">
	<path d="M 116.289 146.234 C 98.356 164.090, 95.763 166.321, 94.233 165.209 C 90.662 162.615, 83.918 159.917, 78.498 158.915 C 63.724 156.184, 48.026 164.988, 41.216 179.825 C 39.084 184.470, 38.610 186.991, 38.606 193.717 C 38.600 201.239, 38.915 202.548, 42.315 209.175 L 46.029 216.415 44.022 218.423 L 42.014 220.430 26.684 205.215 C 18.253 196.847, 10.857 190, 10.249 190 C 8.819 190, 6 192.819, 6 194.249 C 6 194.857, 12.844 202.250, 21.208 210.677 L 36.416 226 21.208 241.323 C 12.844 249.750, 6 257.143, 6 257.751 C 6 259.181, 8.819 262, 10.249 262 C 10.857 262, 18.250 255.156, 26.677 246.792 L 42 231.584 57.323 246.792 C 65.750 255.156, 73.085 262, 73.623 262 C 75.244 262, 77 259.725, 77 257.625 C 77 256.420, 71.264 249.868, 62.286 240.817 L 47.571 225.984 49.745 223.811 L 51.918 221.638 56.709 224.218 C 70.470 231.629, 86.824 229.278, 97.777 218.313 C 104.661 211.422, 107.383 205.282, 107.847 195.598 C 108.271 186.746, 107.050 181.361, 103.316 175.614 L 100.791 171.727 120.895 151.605 C 131.953 140.537, 141 130.789, 141 129.941 C 141 128.201, 139.105 126, 137.606 126 C 137.059 126, 127.466 135.105, 116.289 146.234 M 63.627 167.468 C 58.247 169.386, 53.039 173.829, 49.500 179.519 C 46.969 183.589, 46.444 185.570, 46.143 192.193 C 45.828 199.133, 46.104 200.691, 48.524 205.638 L 51.261 211.233 70.809 191.684 C 92.389 170.105, 92.135 170.597, 83.260 167.573 C 77.631 165.655, 68.846 165.608, 63.627 167.468 M 76.527 196.675 C 58.692 215.028, 57.669 216.285, 59.480 217.609 C 64.046 220.948, 76.277 222.036, 82.684 219.674 C 97.771 214.112, 105.202 196.568, 98.536 182.250 C 97.192 179.363, 95.959 177.034, 95.796 177.075 C 95.633 177.116, 86.962 185.936, 76.527 196.675 " stroke="none" fill="black" fill-rule="evenodd"/>
</svg>