<svg xmlns="http://www.w3.org/2000/svg" width="84" height="324" viewBox="0 0 84 324" version="1.1">
	<path d="M 7.200 159.200 C 5.481 160.919, 5.481 227.081, 7.200 228.800 C 8.025 229.625, 13.022 230, 23.200 230 L 38 230 38 255.202 L 38 280.405 24.667 267.202 C 17.334 259.941, 10.841 254, 10.239 254 C 8.813 254, 6 256.825, 6 258.257 C 6 260.006, 40.239 294, 42 294 C 43.761 294, 78 260.006, 78 258.257 C 78 256.825, 75.187 254, 73.761 254 C 73.159 254, 66.666 259.941, 59.333 267.202 L 46 280.405 46 255.202 L 46 230 60.800 230 C 70.978 230, 75.975 229.625, 76.800 228.800 C 78.519 227.081, 78.519 160.919, 76.800 159.200 C 75.081 157.481, 8.919 157.481, 7.200 159.200 M 14 194 L 14 222 42 222 L 70 222 70 194 L 70 166 42 166 L 14 166 14 194 " stroke="none" fill="black" fill-rule="evenodd"/>
</svg>