<svg xmlns="http://www.w3.org/2000/svg" width="84" height="324" viewBox="0 0 84 324" version="1.1">
	<path d="M 33.384 191.412 C 19.756 194.719, 9.899 205.174, 7 219.396 C 4.849 229.942, 8.806 242.473, 16.816 250.483 L 20.333 254 14.738 254 C 7.240 254, 4.026 256.883, 7.571 260.429 C 8.936 261.793, 13.463 262, 42 262 C 70.537 262, 75.064 261.793, 76.429 260.429 C 80.078 256.779, 76.764 254, 68.762 254 L 62.667 254 66.184 250.483 C 85.756 230.911, 76.194 197.726, 49.147 191.360 C 42.397 189.772, 40.111 189.779, 33.384 191.412 M 31.605 199.568 C 24.049 202.337, 24.073 202.527, 33.170 211.671 L 41.457 220.001 49.692 211.809 C 58.838 202.711, 58.906 202.178, 51.260 199.573 C 45.620 197.651, 36.842 197.649, 31.605 199.568 M 18.184 210.278 C 14.139 215.152, 12.867 227.319, 15.573 235.260 C 18.178 242.906, 18.711 242.838, 27.809 233.692 L 36.001 225.457 27.671 217.170 C 20.854 210.389, 19.131 209.137, 18.184 210.278 M 55.191 217.308 L 46.999 225.543 55.329 233.830 C 64.530 242.983, 64.678 242.998, 67.487 235.038 C 69.439 229.503, 69.415 221.574, 67.427 215.740 C 64.822 208.094, 64.289 208.162, 55.191 217.308 M 33.170 239.329 C 24.017 248.530, 24.002 248.678, 31.962 251.487 C 37.497 253.439, 45.426 253.415, 51.260 251.427 C 58.906 248.822, 58.838 248.289, 49.692 239.191 L 41.457 230.999 33.170 239.329 " stroke="none" fill="black" fill-rule="evenodd"/>
</svg>