<svg xmlns="http://www.w3.org/2000/svg" width="132" height="324" viewBox="0 0 132 324" version="1.1">
	<path d="M 7.200 159.200 C 5.481 160.919, 5.481 227.081, 7.200 228.800 C 8.919 230.519, 75.081 230.519, 76.800 228.800 C 78.519 227.081, 78.519 160.919, 76.800 159.200 C 75.081 157.481, 8.919 157.481, 7.200 159.200 M 103.315 175.213 C 93.792 184.680, 86 193.134, 86 194 C 86 195.761, 119.994 230, 121.743 230 C 123.180 230, 126 227.185, 126 225.751 C 126 225.143, 119.156 217.750, 110.792 209.323 L 95.584 194 110.792 178.677 C 119.156 170.250, 126 162.857, 126 162.249 C 126 160.815, 123.180 158, 121.743 158 C 121.131 158, 112.838 165.746, 103.315 175.213 M 14 194 L 14 222 42 222 L 70 222 70 194 L 70 166 42 166 L 14 166 14 194 " stroke="none" fill="black" fill-rule="evenodd"/>
</svg>