<svg xmlns="http://www.w3.org/2000/svg" width="244" height="324" viewBox="0 0 244 324" version="1.1">
	<path d="M 112.067 111.097 C 104.324 112.435, 93.253 118.093, 88.154 123.318 C 84.351 127.215, 83.949 128.036, 84.939 129.886 C 86.458 132.725, 88.290 132.548, 92.215 129.186 C 98.056 124.183, 101.456 122.205, 108.040 119.978 C 121.775 115.334, 137.882 118.835, 149.235 128.932 C 152.719 132.031, 154.503 132.975, 155.985 132.505 C 163.007 130.276, 150.781 117.913, 136.797 113.102 C 129.985 110.758, 119.122 109.878, 112.067 111.097 M 115.863 135.705 C 114.412 135.929, 110.812 137.553, 107.863 139.316 C 103.298 142.043, 102.500 142.963, 102.500 145.496 C 102.500 149.599, 104.743 149.753, 110.580 146.051 C 118.018 141.334, 128.317 142.152, 133.405 147.862 C 134.453 149.038, 136.085 150, 137.033 150 C 139.440 150, 141.283 147.466, 140.552 145.162 C 139.709 142.508, 133.176 138.158, 127.438 136.431 C 122.742 135.018, 121.029 134.911, 115.863 135.705 M 23.282 175.282 C 13.777 184.787, 6 193.210, 6 194 C 6 195.693, 40.031 230, 41.710 230 C 43.173 230, 46 227.200, 46 225.751 C 46 225.143, 39.156 217.750, 30.792 209.323 L 15.584 194 30.792 178.677 C 39.156 170.250, 46 162.857, 46 162.249 C 46 160.800, 43.173 158, 41.710 158 C 41.079 158, 32.787 165.777, 23.282 175.282 M 55.750 159.080 C 54.138 160.019, 54 162.769, 54 194.015 C 54 226.522, 54.080 227.973, 55.934 228.965 C 58.287 230.224, 185.829 230.395, 187.805 229.142 C 188.836 228.487, 189.110 221.130, 189.110 194 C 189.110 166.870, 188.836 159.513, 187.805 158.858 C 185.852 157.620, 57.888 157.835, 55.750 159.080 M 199.750 159.082 C 198.787 159.642, 198 160.859, 198 161.788 C 198 162.717, 204.857 170.344, 213.238 178.738 L 228.476 194 213.238 209.262 C 204.857 217.656, 198 225.290, 198 226.227 C 198 227.163, 198.952 228.439, 200.115 229.062 C 202.040 230.092, 203.774 228.675, 219.348 213.347 C 236.797 196.174, 237.958 194.961, 237.985 193.886 C 238.002 193.179, 203.261 158.610, 202.202 158.282 C 201.816 158.162, 200.713 158.522, 199.750 159.082 M 62 194 L 62 222 90 222 L 118 222 118 194 L 118 166 90 166 L 62 166 62 194 M 126 194 L 126 222 154 222 L 182 222 182 194 L 182 166 154 166 L 126 166 126 194 M 132.872 238.655 C 128.835 243.524, 119.095 244.298, 111.328 240.369 C 105.492 237.416, 103 237.739, 103 241.448 C 103 243.425, 104.099 244.587, 108.163 246.908 C 114.726 250.657, 121.002 251.544, 127.331 249.618 C 133.098 247.862, 138.779 244.192, 139.584 241.702 C 140.848 237.793, 135.573 235.398, 132.872 238.655 M 148 256.152 C 146.075 257.842, 141.575 260.636, 138 262.362 C 131.979 265.269, 130.726 265.500, 121 265.496 C 109.269 265.492, 103.704 263.711, 95.237 257.248 C 92.413 255.092, 90.211 254.116, 89.024 254.492 C 84.312 255.988, 86.690 260.668, 94.812 265.879 C 112.779 277.409, 138.045 275.382, 153.250 261.192 C 156.205 258.434, 156.718 256.118, 154.800 254.200 C 153.025 252.425, 151.871 252.756, 148 256.152 " stroke="none" fill="black" fill-rule="evenodd"/>
</svg>