<svg xmlns="http://www.w3.org/2000/svg" width="148" height="324" viewBox="0 0 148 324" version="1.1">
	<path d="M 63.500 111.113 C 55.901 112.639, 45.028 118.323, 40.154 123.318 C 36.351 127.215, 35.949 128.036, 36.939 129.886 C 38.385 132.587, 41.162 132.586, 43.595 129.884 C 46.990 126.112, 53.520 122.183, 60.083 119.964 C 73.773 115.335, 89.898 118.849, 101.235 128.932 C 104.719 132.031, 106.503 132.975, 107.985 132.505 C 115.078 130.253, 102.768 117.909, 88.553 113.018 C 81.626 110.635, 70.203 109.766, 63.500 111.113 M 67.863 135.705 C 66.412 135.929, 62.812 137.553, 59.863 139.316 C 55.298 142.043, 54.500 142.963, 54.500 145.496 C 54.500 149.533, 57.117 149.884, 61.998 146.502 C 68.960 141.677, 78.551 141.911, 84.403 147.049 C 86.252 148.672, 88.437 150, 89.260 150 C 91.468 150, 93.254 147.376, 92.552 145.162 C 91.709 142.508, 85.176 138.158, 79.438 136.431 C 74.742 135.018, 73.029 134.911, 67.863 135.705 M 7.571 159.571 C 6.207 160.936, 6 165.463, 6 194 C 6 222.537, 6.207 227.064, 7.571 228.429 C 8.968 229.825, 16.343 229.998, 73.821 229.985 C 109.395 229.976, 139.081 229.601, 139.791 229.150 C 141.679 227.953, 141.679 160.047, 139.791 158.850 C 139.081 158.399, 109.395 158.024, 73.821 158.015 C 16.343 158.002, 8.968 158.175, 7.571 159.571 M 14 194 L 14 222 42 222 L 70 222 70 194 L 70 166 42 166 L 14 166 14 194 M 78 194 L 78 222 106 222 L 134 222 134 194 L 134 166 106 166 L 78 166 78 194 M 84.872 238.655 C 80.835 243.524, 71.095 244.298, 63.328 240.369 C 57.313 237.326, 54.715 237.729, 55.183 241.633 C 55.425 243.651, 56.788 245.002, 60.944 247.344 C 70.263 252.596, 82.142 251.237, 89.750 244.048 C 92.271 241.666, 92.574 239.974, 90.800 238.200 C 89.109 236.509, 86.485 236.710, 84.872 238.655 M 100 256.152 C 98.075 257.842, 93.575 260.636, 90 262.362 C 83.979 265.269, 82.726 265.500, 73 265.496 C 61.269 265.492, 55.704 263.711, 47.237 257.248 C 42.806 253.865, 39.755 253.590, 38.648 256.474 C 37.369 259.807, 47.181 267.450, 57.136 270.875 C 72.977 276.325, 91.575 272.903, 104.022 262.249 C 108.089 258.768, 108.930 256.330, 106.800 254.200 C 105.025 252.425, 103.871 252.756, 100 256.152 " stroke="none" fill="black" fill-rule="evenodd"/>
</svg>