<svg xmlns="http://www.w3.org/2000/svg" width="148" height="324" viewBox="0 0 148 324" version="1.1">
	<path d="M 64.500 126.944 C 56.325 128.268, 50.930 129.991, 43 133.814 C 32.444 138.903, 18.927 152.404, 13.778 163 C 7.648 175.615, 4.334 193.191, 7.491 196.348 C 10.992 199.850, 14 196.834, 14 189.823 C 14 176.987, 20.739 162.179, 31.459 151.459 C 43.091 139.828, 56.905 134, 72.845 134 C 83.674 134, 89.916 135.424, 99.820 140.153 C 109.977 145.002, 119.912 154.325, 125.340 164.101 C 129.485 171.566, 133 183.966, 133 191.125 C 133 194.956, 133.418 196.154, 135.064 197.034 C 142.863 201.208, 141.093 178.561, 132.303 161.700 C 129.753 156.809, 125.954 151.890, 120.457 146.361 C 113.703 139.568, 110.806 137.478, 102.933 133.719 C 97.745 131.242, 91.475 128.743, 89 128.165 C 82.400 126.623, 70.232 126.016, 64.500 126.944 M 65.384 159.370 C 54.736 162.041, 45.966 169.476, 41.191 179.880 C 37.525 187.867, 37.525 199.133, 41.191 207.120 C 44.319 213.936, 49.835 220.233, 55.673 223.654 C 61.075 226.820, 73.652 230.057, 76.451 229.002 C 77.578 228.577, 81.069 227.486, 84.208 226.577 C 94.328 223.647, 103.952 213.871, 107.023 203.402 C 108.919 196.941, 107.923 184.435, 105.040 178.500 C 98.016 164.038, 80.485 155.581, 65.384 159.370 M 63.627 167.468 C 58.247 169.386, 53.039 173.829, 49.500 179.519 C 45.527 185.908, 44.712 197.311, 47.741 204.129 C 51.420 212.408, 58.903 218.846, 66.750 220.481 L 70 221.159 70 193.579 C 70 172.159, 69.721 166.010, 68.750 166.044 C 68.063 166.068, 65.757 166.709, 63.627 167.468 M 78 193.567 L 78 221.135 80.250 220.434 C 88.986 217.712, 94.088 213.513, 97.883 205.919 C 100.363 200.955, 101 198.418, 101 193.500 C 101 182.038, 93.486 171.200, 82.965 167.488 C 80.646 166.669, 78.580 166, 78.374 166 C 78.168 166, 78 178.405, 78 193.567 " stroke="none" fill="black" fill-rule="evenodd"/>
</svg>