<svg xmlns="http://www.w3.org/2000/svg" width="84" height="324" viewBox="0 0 84 324" version="1.1">
	<path d="M 7.200 159.200 C 5.481 160.919, 5.481 227.081, 7.200 228.800 C 8.919 230.519, 75.081 230.519, 76.800 228.800 C 78.519 227.081, 78.519 160.919, 76.800 159.200 C 75.081 157.481, 8.919 157.481, 7.200 159.200 M 14 194 L 14 222 42 222 L 70 222 70 194 L 70 166 42 166 L 14 166 14 194 M 23.213 255.315 C 13.746 264.838, 6 273.131, 6 273.743 C 6 275.180, 8.815 278, 10.249 278 C 10.857 278, 18.250 271.156, 26.677 262.792 L 42 247.584 57.323 262.792 C 65.750 271.156, 73.143 278, 73.751 278 C 75.185 278, 78 275.180, 78 273.743 C 78 271.994, 43.761 238, 42 238 C 41.134 238, 32.680 245.792, 23.213 255.315 " stroke="none" fill="black" fill-rule="evenodd"/>
</svg>