<svg xmlns="http://www.w3.org/2000/svg" width="148" height="324" viewBox="0 0 148 324" version="1.1">
	<path d="M 66.223 191.008 C 55.939 193.164, 46.017 201.415, 41.189 211.825 C 39.038 216.462, 38.556 218.964, 38.556 225.500 C 38.556 235.083, 41.376 242.198, 48.038 249.425 L 52.255 254 30.699 254 C 12.436 254, 8.903 254.240, 7.571 255.571 C 5.596 257.546, 5.598 258.455, 7.579 260.436 C 8.990 261.847, 16.058 261.987, 74.220 261.757 C 134.934 261.517, 139.356 261.383, 140.386 259.750 C 141.190 258.475, 141.191 257.525, 140.387 256.250 C 139.408 254.695, 136.809 254.444, 117.060 254 L 94.835 253.500 97.436 251.058 C 101.787 246.974, 105.843 239.774, 107.552 233.103 C 110.482 221.667, 106.820 209.735, 97.518 200.404 C 89.702 192.563, 76.999 188.749, 66.223 191.008 M 63.463 199.591 C 55.567 202.395, 48.189 210.737, 46.519 218.750 L 45.841 222 73.440 222 L 101.038 222 100.392 219.250 C 98.374 210.665, 91.032 202.404, 82.684 199.326 C 78.323 197.718, 68.351 197.856, 63.463 199.591 M 46.599 232.750 C 48.443 240.705, 55.857 248.741, 63.872 251.472 C 79.199 256.694, 95.600 248.341, 99.976 233.084 L 100.860 230 73.411 230 L 45.962 230 46.599 232.750 " stroke="none" fill="black" fill-rule="evenodd"/>
</svg>