<svg xmlns="http://www.w3.org/2000/svg" width="164" height="324" viewBox="0 0 164 324" version="1.1">
	<path d="M 23.229 63.171 C 21.277 65.123, 21.736 66.613, 26.017 72.230 C 37.102 86.772, 36.620 107.919, 24.857 123.098 C 11.989 139.705, 8.626 147.563, 8.640 161 C 8.653 173.671, 13.034 184.797, 21.808 194.438 L 25.049 198 38.527 198 L 52.006 198 37.020 227.961 C 28.777 244.439, 22.285 258.580, 22.594 259.384 C 23.265 261.133, 25.512 262.125, 27.274 261.448 C 27.975 261.180, 35.056 247.919, 43.010 231.980 C 50.964 216.041, 57.710 203, 58 203 C 58.290 203, 65.042 216.054, 73.004 232.009 C 82.274 250.584, 88.131 261.224, 89.289 261.592 C 91.164 262.187, 94 260.489, 94 258.772 C 94 258.231, 100.372 245.384, 108.161 230.222 L 122.321 202.656 136.562 231.124 C 144.394 246.781, 151.493 260.164, 152.337 260.865 C 154.192 262.404, 158 260.785, 158 258.458 C 158 257.649, 151.475 243.943, 143.500 228 C 135.525 212.057, 129 198.785, 129 198.507 C 129 198.228, 134.655 198, 141.566 198 C 148.477 198, 155.002 197.534, 156.066 196.965 C 158.554 195.633, 158.554 192.367, 156.066 191.035 C 154.791 190.353, 132.508 190, 90.684 190 L 27.237 190 24.557 186.485 C 23.082 184.552, 20.666 180.390, 19.188 177.235 C 16.805 172.152, 16.500 170.307, 16.500 161 C 16.500 148.253, 18.176 143.993, 28.533 130.420 C 36.502 119.975, 39.557 113.570, 41.140 103.985 C 43.159 91.758, 39.314 77.140, 31.585 67.659 C 27.135 62.200, 25.226 61.174, 23.229 63.171 M 76.743 223.500 C 83.750 237.525, 89.715 249, 90 249 C 90.285 249, 96.250 237.525, 103.257 223.500 L 115.995 198 90 198 L 64.005 198 76.743 223.500 " stroke="none" fill="black" fill-rule="evenodd"/>
</svg>