<svg xmlns="http://www.w3.org/2000/svg" width="148" height="324" viewBox="0 0 148 324" version="1.1">
	<path d="M 7.571 127.571 C 6.707 128.436, 6 129.529, 6 130 C 6 131.111, 8.889 134, 10 134 C 11.111 134, 14 131.111, 14 130 C 14 128.889, 11.111 126, 10 126 C 9.529 126, 8.436 126.707, 7.571 127.571 M 7.571 159.571 C 6.207 160.936, 6 165.463, 6 194 C 6 222.537, 6.207 227.064, 7.571 228.429 C 9.545 230.402, 10.455 230.402, 12.429 228.429 C 13.793 227.064, 14 222.537, 14 194 C 14 165.463, 13.793 160.936, 12.429 159.571 C 11.564 158.707, 10.471 158, 10 158 C 9.529 158, 8.436 158.707, 7.571 159.571 M 7.571 255.571 C 6.707 256.436, 6 257.529, 6 258 C 6 259.111, 8.889 262, 10 262 C 11.111 262, 14 259.111, 14 258 C 14 256.889, 11.111 254, 10 254 C 9.529 254, 8.436 254.707, 7.571 255.571 M 39.585 255.558 C 38.713 256.430, 38 257.529, 38 258 C 38 258.471, 38.713 259.570, 39.585 260.442 C 40.978 261.835, 45.159 261.995, 74.226 261.763 C 104.452 261.523, 107.377 261.350, 108.386 259.750 C 109.191 258.474, 109.191 257.526, 108.386 256.250 C 107.377 254.650, 104.452 254.477, 74.226 254.237 C 45.159 254.005, 40.978 254.165, 39.585 255.558 M 135.750 255.080 C 133.372 256.465, 133.542 259.685, 136.064 261.034 C 139.753 263.008, 142.819 258.219, 139.800 255.200 C 138.367 253.767, 138.022 253.757, 135.750 255.080 " stroke="none" fill="black" fill-rule="evenodd"/>
</svg>