<svg xmlns="http://www.w3.org/2000/svg" width="212" height="324" viewBox="0 0 212 324" version="1.1">
	<path d="M 131 126.584 C 113.443 129.522, 102.118 134.783, 91.678 144.850 C 79.600 156.496, 73.018 169.539, 70.961 185.901 L 70.156 192.303 38.078 224.437 C 20.435 242.111, 6 257.086, 6 257.714 C 6 259.190, 8.808 262, 10.283 262 C 10.910 262, 24.772 248.678, 41.087 232.397 L 70.751 202.793 71.997 208.147 C 74.750 219.968, 80.693 230.682, 89.788 240.216 C 92.854 243.431, 96.856 246.984, 98.681 248.112 C 101.616 249.926, 102 250.666, 102 254.510 C 102 262.239, 100.840 262, 138.371 262 C 162.883 262, 171.915 261.685, 172.800 260.800 C 173.460 260.140, 174 257.478, 174 254.885 C 174 250.388, 174.243 249.979, 179.250 246.040 C 194.700 233.883, 205 212.868, 205 193.500 C 205 179.581, 198.605 161.917, 189.665 151.141 C 180.804 140.459, 167.353 131.749, 154.831 128.584 C 148.743 127.046, 135.090 125.900, 131 126.584 M 142 162 L 142 190 156.800 190 C 166.978 190, 171.975 190.375, 172.800 191.200 C 173.668 192.068, 174 199.181, 174 216.912 L 174 241.425 179.066 236.462 C 199.498 216.447, 203.270 184.608, 187.972 161.292 C 179.824 148.875, 166.464 139.232, 152.356 135.587 C 140.914 132.632, 142 129.863, 142 162 M 118.313 136.939 C 100.244 143.444, 86.408 157.661, 80.540 175.754 C 79.603 178.644, 78.987 181.460, 79.170 182.010 C 79.354 182.561, 90.300 172.209, 103.494 159.006 C 119.825 142.664, 126.848 135.012, 125.492 135.036 C 124.396 135.056, 121.166 135.912, 118.313 136.939 M 105.743 167.757 C 74.944 198.570, 76.598 196.063, 79.515 207.540 C 82.141 217.869, 87.485 227.381, 94.809 234.760 L 101.500 241.500 102 216.712 C 102.415 196.147, 102.756 191.763, 104 190.977 C 104.825 190.457, 111.912 190.024, 119.750 190.015 L 134 190 134 165 C 134 151.250, 133.884 140, 133.743 140 C 133.602 140, 121.002 152.490, 105.743 167.757 M 110 222.384 L 110 246.768 115.250 248.868 C 123.712 252.254, 130.630 253.291, 140.944 252.720 C 151.051 252.160, 158.395 250.328, 163.750 247.031 L 167 245.029 167 221.515 L 167 198 138.500 198 L 110 198 110 222.384 " stroke="none" fill="black" fill-rule="evenodd"/>
</svg>