<svg xmlns="http://www.w3.org/2000/svg" width="148" height="324" viewBox="0 0 148 324" version="1.1">
	<path d="M 63.102 127.104 C 48.516 129.321, 35.328 136.577, 24.168 148.528 C 13.801 159.628, 8.225 172.265, 6.488 188.598 C 5.962 193.536, 6.153 195.010, 7.491 196.348 C 9.547 198.404, 10.439 198.418, 12.429 196.429 C 13.404 195.453, 14.006 193.082, 14.015 190.179 C 14.091 166.127, 34.559 141.323, 59.103 135.537 C 91.523 127.895, 123.871 147.778, 131.443 180 C 132.283 183.575, 132.977 188.622, 132.985 191.215 C 132.997 194.946, 133.431 196.160, 135.064 197.034 C 142.986 201.274, 141.161 178.669, 132.196 161.516 C 126.915 151.410, 114.917 139.609, 104.500 134.271 C 91.374 127.546, 76.799 125.023, 63.102 127.104 M 71.571 159.571 C 70.288 160.855, 70 163.788, 70 175.571 L 70 190 55.571 190 C 43.788 190, 40.855 190.288, 39.571 191.571 C 37.598 193.545, 37.598 194.455, 39.571 196.429 C 40.855 197.712, 43.788 198, 55.571 198 L 70 198 70 212.429 C 70 224.212, 70.288 227.145, 71.571 228.429 C 73.678 230.535, 74.598 230.412, 76.443 227.777 C 77.669 226.028, 78 222.631, 78 211.804 L 78 198.053 92.643 197.777 C 105.314 197.537, 107.433 197.264, 108.387 195.750 C 109.191 194.475, 109.191 193.525, 108.387 192.250 C 107.433 190.736, 105.314 190.463, 92.643 190.223 L 78 189.947 78 176.196 C 78 165.369, 77.669 161.972, 76.443 160.223 C 74.598 157.588, 73.678 157.465, 71.571 159.571 " stroke="none" fill="black" fill-rule="evenodd"/>
</svg>