<svg xmlns="http://www.w3.org/2000/svg" width="212" height="324" viewBox="0 0 212 324" version="1.1">
	<path d="M 23.282 175.282 C 13.777 184.787, 6 193.210, 6 194 C 6 195.693, 40.031 230, 41.710 230 C 43.173 230, 46 227.200, 46 225.751 C 46 225.143, 39.156 217.750, 30.792 209.323 L 15.584 194 30.792 178.677 C 39.156 170.250, 46 162.857, 46 162.249 C 46 160.800, 43.173 158, 41.710 158 C 41.079 158, 32.787 165.777, 23.282 175.282 M 72 158.977 C 70.982 159.619, 70.339 162.240, 70 167.129 L 69.500 174.334 63.059 175.643 C 54.513 177.380, 47.071 181.139, 40.903 186.834 C 37.246 190.210, 36.034 191.973, 36.517 193.212 C 37.844 196.614, 40.865 196.354, 45.167 192.468 C 49.973 188.127, 59.743 183.353, 65.750 182.411 L 70 181.744 70 204.301 C 70 223.473, 70.236 227.093, 71.571 228.429 C 72.937 229.794, 77.497 230, 106.371 230 C 130.883 230, 139.915 229.685, 140.800 228.800 C 141.559 228.041, 142 224.230, 142 218.436 L 142 209.272 146.647 208.635 C 153.165 207.741, 164.781 201.879, 169.345 197.181 C 172.682 193.744, 173.040 192.944, 172.059 191.111 C 170.461 188.125, 169.232 188.423, 162.556 193.417 C 157.589 197.131, 146.485 202, 142.979 202 C 142.372 202, 142 194.103, 142 181.200 C 142 166.356, 141.656 160.056, 140.800 159.200 C 139.309 157.709, 74.344 157.498, 72 158.977 M 168.200 159.200 C 167.540 159.860, 167 161.092, 167 161.938 C 167 162.784, 173.857 170.344, 182.238 178.738 L 197.476 194 182.238 209.262 C 173.857 217.656, 167 225.216, 167 226.062 C 167 227.795, 168.895 230, 170.385 230 C 172.047 230, 206 195.680, 206 194 C 206 192.320, 172.047 158, 170.385 158 C 169.843 158, 168.860 158.540, 168.200 159.200 M 78 170.500 C 78 174.553, 78.233 175, 80.343 175 C 83.583 175, 93.497 178.515, 98.460 181.424 C 100.726 182.752, 105.214 186.542, 108.433 189.847 C 114.632 196.211, 122.190 200.367, 129.765 201.578 L 134 202.256 134 184.128 L 134 166 106 166 L 78 166 78 170.500 M 78 202 L 78 222 106.048 222 L 134.095 222 133.798 215.834 L 133.500 209.668 127.362 208.420 C 118.225 206.561, 110.240 202.280, 104 195.895 C 100.975 192.800, 96.657 189.120, 94.403 187.718 C 90.864 185.515, 81.282 182, 78.818 182 C 78.368 182, 78 191, 78 202 " stroke="none" fill="black" fill-rule="evenodd"/>
</svg>