<svg xmlns="http://www.w3.org/2000/svg" width="196" height="324" viewBox="0 0 196 324" version="1.1">
	<path d="M 55.571 143.571 C 54.707 144.436, 54 145.644, 54 146.257 C 54 147.941, 88.205 182, 89.896 182 C 92.281 182, 125 148.901, 125 146.488 C 125 144.292, 123.276 142, 121.623 142 C 121.085 142, 113.750 148.844, 105.323 157.208 L 90 172.416 74.677 157.208 C 66.250 148.844, 58.857 142, 58.249 142 C 57.640 142, 56.436 142.707, 55.571 143.571 M 20.169 193.460 C 12.479 202.218, 8.620 212.757, 8.619 225 C 8.618 238.017, 12.746 248.480, 21.814 258.446 L 25.062 262.014 90.172 261.757 C 154.111 261.505, 155.302 261.464, 156.389 259.500 C 156.997 258.400, 158.533 256.035, 159.803 254.244 C 161.072 252.454, 163.548 247.954, 165.305 244.244 C 168.368 237.778, 168.500 236.984, 168.500 225 C 168.500 212.942, 168.384 212.254, 165.212 205.557 C 163.404 201.738, 160.336 196.675, 158.395 194.307 L 154.866 190 89.037 190 L 23.207 190 20.169 193.460 M 22.005 203.250 C 13.176 218.522, 14.167 236.864, 24.557 250.485 L 27.237 254 88.997 254 L 150.756 254 154.432 248.663 C 158.993 242.041, 162 232.644, 162 225.016 C 162 217.663, 158.903 207.547, 155.004 202.165 L 151.987 198 88.514 198 L 25.040 198 22.005 203.250 M 71.213 287.315 C 61.746 296.838, 54 305.131, 54 305.743 C 54 307.180, 56.815 310, 58.249 310 C 58.857 310, 66.250 303.156, 74.677 294.792 L 90 279.584 105.323 294.792 C 113.750 303.156, 121.085 310, 121.623 310 C 123.276 310, 125 307.708, 125 305.512 C 125 303.099, 92.281 270, 89.896 270 C 89.087 270, 80.680 277.792, 71.213 287.315 " stroke="none" fill="black" fill-rule="evenodd"/>
</svg>