<svg xmlns="http://www.w3.org/2000/svg" width="148" height="324" viewBox="0 0 148 324" version="1.1">
	<path d="M 7.515 255.627 C 5.669 257.474, 6.062 263.995, 8.643 274.337 C 14.296 296.988, 33.758 316.478, 56.644 322.408 C 63.844 324.274, 81.811 324.544, 88.807 322.892 C 91.388 322.283, 97.745 319.758, 102.933 317.281 C 120.076 309.097, 133.273 292.982, 138.014 274.444 C 140.974 262.874, 140.477 254, 136.871 254 C 134.965 254, 133 257.509, 133 260.911 C 133 267.127, 129.245 279.866, 125.340 286.899 C 123.324 290.529, 118.711 296.425, 115.087 300.001 C 91.735 323.048, 54.488 322.874, 31.459 299.612 C 20.829 288.875, 14 274.108, 14 261.861 C 14 258.905, 13.413 256.556, 12.429 255.571 C 10.444 253.587, 9.546 253.597, 7.515 255.627 " stroke="none" fill="black" fill-rule="evenodd"/>
</svg>