<svg xmlns="http://www.w3.org/2000/svg" width="196" height="324" viewBox="0 0 196 324" version="1.1">
	<path d="M 39.267 159.267 C 20.970 177.563, 6 193.193, 6 194 C 6 195.906, 72.067 261.989, 74.017 262.034 C 75.420 262.065, 142 195.390, 142 193.954 C 142 192.519, 75.420 125.935, 74.017 125.967 C 73.201 125.985, 57.563 140.970, 39.267 159.267 M 44.498 165.002 L 15.509 194.004 44.754 223.250 L 74 252.496 103.246 223.250 L 132.491 194.004 103.502 165.002 C 87.558 149.051, 74.282 136, 74 136 C 73.718 136, 60.442 149.051, 44.498 165.002 M 167.315 175.213 C 157.792 184.680, 150 193.134, 150 194 C 150 195.680, 183.953 230, 185.615 230 C 187.105 230, 189 227.795, 189 226.062 C 189 225.216, 182.143 217.656, 173.762 209.262 L 158.524 194 173.762 178.738 C 182.143 170.344, 189 162.784, 189 161.938 C 189 160.205, 187.105 158, 185.615 158 C 185.073 158, 176.838 165.746, 167.315 175.213 " stroke="none" fill="black" fill-rule="evenodd"/>
</svg>