<svg xmlns="http://www.w3.org/2000/svg" width="148" height="324" viewBox="0 0 148 324" version="1.1">
	<path d="M 67.045 127.064 C 52.708 129.967, 41.545 141.276, 38.901 155.575 C 37.772 161.686, 38.282 164.511, 40.683 165.432 C 43.390 166.471, 45.998 163.131, 46.022 158.595 C 46.064 150.793, 51.704 142.016, 59.680 137.342 C 65.093 134.170, 75.591 133.058, 81.609 135.020 C 91.289 138.177, 99.161 147.224, 100.605 156.852 L 101.259 161.213 53.630 208.881 C 27.433 235.098, 6 257.068, 6 257.703 C 6 259.185, 8.789 261.987, 10.321 262.044 C 10.970 262.069, 30.958 242.414, 54.740 218.368 C 78.522 194.321, 98.170 174.839, 98.402 175.074 C 99.268 175.949, 92.210 194.802, 87.961 202.964 C 78.553 221.035, 63.674 237.595, 47.014 248.534 C 39.180 253.677, 37.967 254.845, 38.214 257 C 38.709 261.323, 42.017 260.569, 52.108 253.832 C 78.777 236.030, 98.770 206.579, 106.007 174.437 L 108.244 164.500 124.622 147.989 C 133.630 138.908, 141 130.786, 141 129.939 C 141 128.211, 139.107 126, 137.627 126 C 137.093 126, 130.216 132.384, 122.347 140.186 C 114.477 147.988, 107.902 154.176, 107.736 153.936 C 107.569 153.696, 106.821 151.700, 106.075 149.500 C 100.801 133.964, 83.131 123.806, 67.045 127.064 " stroke="none" fill="black" fill-rule="evenodd"/>
</svg>