<svg xmlns="http://www.w3.org/2000/svg" width="148" height="324" viewBox="0 0 148 324" version="1.1">
	<path d="M 39.571 127.571 C 38.207 128.935, 38 133.425, 38 161.577 L 38 194.012 22 226 C 13.200 243.593, 6 258.183, 6 258.423 C 6 258.662, 6.707 259.564, 7.571 260.429 C 8.968 261.825, 16.372 262, 74 262 C 131.628 262, 139.032 261.825, 140.429 260.429 C 141.293 259.564, 142 258.662, 142 258.423 C 142 258.183, 134.800 243.593, 126 226 L 110 194.012 110 162.229 C 110 135.080, 109.773 130.121, 108.443 128.223 C 106.598 125.588, 105.678 125.465, 103.571 127.571 C 102.208 128.935, 102.002 133.341, 102.017 160.821 L 102.034 192.500 88.267 220.736 C 80.695 236.266, 74.271 248.979, 73.992 248.986 C 73.712 248.994, 67.299 236.623, 59.742 221.495 L 46 193.991 46 161.567 C 46 133.424, 45.793 128.935, 44.429 127.571 C 43.564 126.707, 42.471 126, 42 126 C 41.529 126, 40.436 126.707, 39.571 127.571 M 28.743 228.500 L 16.005 254 42 254 L 67.995 254 55.257 228.500 C 48.250 214.475, 42.285 203, 42 203 C 41.715 203, 35.750 214.475, 28.743 228.500 M 92.743 228.500 L 80.005 254 105.503 254 C 119.526 254, 131 253.772, 131 253.492 C 131 252.827, 106.070 203, 105.737 203 C 105.597 203, 99.750 214.475, 92.743 228.500 " stroke="none" fill="black" fill-rule="evenodd"/>
</svg>