<svg xmlns="http://www.w3.org/2000/svg" width="148" height="324" viewBox="0 0 148 324" version="1.1">
	<path d="M 7.579 127.564 C 6.710 128.432, 6 129.529, 6 130 C 6 130.471, 6.710 131.568, 7.579 132.436 C 8.990 133.847, 16.058 133.987, 74.220 133.757 C 134.934 133.517, 139.356 133.383, 140.386 131.750 C 141.191 130.474, 141.191 129.526, 140.386 128.250 C 139.356 126.617, 134.934 126.483, 74.220 126.243 C 16.058 126.013, 8.990 126.153, 7.579 127.564 M 71.571 159.571 C 69.243 161.900, 69.243 194.100, 71.571 196.429 C 72.436 197.293, 73.529 198, 74 198 C 74.471 198, 75.564 197.293, 76.429 196.429 C 78.757 194.100, 78.757 161.900, 76.429 159.571 C 75.564 158.707, 74.471 158, 74 158 C 73.529 158, 72.436 158.707, 71.571 159.571 M 68.764 206.996 C 63.184 208.676, 59.145 212.067, 56.571 217.234 C 53.329 223.740, 53.334 227.271, 56.597 233.818 C 62.264 245.191, 76.162 248.065, 85.564 239.809 C 90.366 235.594, 92.286 231.506, 92.286 225.500 C 92.286 219.499, 90.366 215.406, 85.578 211.203 C 80.492 206.737, 74.556 205.252, 68.764 206.996 M 65.400 217.400 C 62.498 220.302, 62 221.488, 62 225.500 C 62 229.512, 62.498 230.698, 65.400 233.600 C 68.231 236.431, 69.533 237, 73.177 237 C 78.176 237, 81.354 235.151, 83.506 230.989 C 85.404 227.318, 85.404 223.682, 83.506 220.011 C 81.354 215.849, 78.176 214, 73.177 214 C 69.533 214, 68.231 214.569, 65.400 217.400 M 7.579 255.564 C 6.710 256.432, 6 257.529, 6 258 C 6 258.471, 6.710 259.568, 7.579 260.436 C 8.990 261.847, 16.058 261.987, 74.220 261.757 C 134.934 261.517, 139.356 261.383, 140.386 259.750 C 141.191 258.474, 141.191 257.526, 140.386 256.250 C 139.356 254.617, 134.934 254.483, 74.220 254.243 C 16.058 254.013, 8.990 254.153, 7.579 255.564 " stroke="none" fill="black" fill-rule="evenodd"/>
</svg>