<svg xmlns="http://www.w3.org/2000/svg" width="148" height="324" viewBox="0 0 148 324" version="1.1">
	<path d="M 7.571 127.571 C 4.149 130.994, 7.242 134, 14.188 134 L 19.233 134 15.660 137.955 C 13.694 140.130, 11.203 143.642, 10.123 145.759 C 7.574 150.755, 5.622 161.406, 6.828 163.738 C 7.329 164.707, 8.527 169.100, 9.490 173.500 C 13.195 190.432, 20.618 207.523, 30.021 220.769 L 34.799 227.500 20.400 242.075 C 12.480 250.091, 6 257.147, 6 257.754 C 6 258.361, 6.710 259.568, 7.579 260.436 C 8.990 261.847, 16.058 261.987, 74.220 261.757 C 134.934 261.517, 139.356 261.383, 140.386 259.750 C 141.191 258.474, 141.191 257.526, 140.387 256.250 C 139.394 254.674, 136.572 254.450, 112.028 254 L 84.772 253.500 89.136 250.358 C 113.353 232.923, 132.517 202.203, 138.874 170.631 C 141.053 159.809, 140.275 153.076, 135.915 145.028 L 132.931 139.518 137.466 135.172 C 142.490 130.358, 142.693 129.836, 140.429 127.571 C 139.032 126.175, 131.628 126, 74 126 C 16.372 126, 8.968 126.175, 7.571 127.571 M 31.054 135.728 C 24.787 137.940, 17.726 145.297, 15.534 151.899 C 13.884 156.865, 13.877 157.716, 15.413 166.115 C 18.676 183.947, 25.302 200.696, 34.554 214.500 C 37.135 218.350, 39.433 221.705, 39.662 221.956 C 40.187 222.531, 122 140.799, 122 139.699 C 122 139.254, 119.475 137.733, 116.389 136.320 C 105.676 131.416, 91.909 134.395, 84.451 143.230 C 80.698 147.676, 78.048 153.774, 78.022 158.027 C 77.998 161.891, 75.675 166, 73.515 166 C 71.013 166, 69 162.918, 69 159.088 C 69 153.811, 63.742 143.755, 59.031 140.024 C 51.523 134.078, 40.514 132.388, 31.054 135.728 M 67.430 138.054 C 69.444 140.283, 71.593 143.208, 72.207 144.554 L 73.321 147.001 75.260 143.750 C 76.327 141.963, 78.593 139.037, 80.296 137.250 L 83.392 134 73.580 134 L 63.767 134 67.430 138.054 M 86.147 186.899 L 44.996 228.798 52.451 235.761 C 56.551 239.590, 63.039 244.864, 66.868 247.480 L 73.830 252.237 81.502 246.934 C 99.411 234.553, 115.563 214.611, 123.898 194.590 C 132.357 174.271, 134.679 157.620, 130.222 149.250 C 128.978 146.912, 127.810 145, 127.628 145 C 127.446 145, 108.780 163.855, 86.147 186.899 M 29.500 244 L 19.538 254 41.418 254 L 63.298 254 56.899 249.104 C 53.380 246.412, 48.267 241.912, 45.538 239.104 C 42.808 236.297, 40.325 234, 40.019 234 C 39.713 234, 34.979 238.500, 29.500 244 " stroke="none" fill="black" fill-rule="evenodd"/>
</svg>