<svg xmlns="http://www.w3.org/2000/svg" width="148" height="324" viewBox="0 0 148 324" version="1.1">
	<path d="M 7.571 159.571 C 6.207 160.936, 6 165.463, 6 194 C 6 222.537, 6.207 227.064, 7.571 228.429 C 9.545 230.402, 10.455 230.402, 12.429 228.429 C 13.793 227.064, 14 222.537, 14 194 C 14 165.463, 13.793 160.936, 12.429 159.571 C 11.564 158.707, 10.471 158, 10 158 C 9.529 158, 8.436 158.707, 7.571 159.571 M 135.750 159.080 C 134.138 160.019, 134 162.769, 134 194.015 C 134 227.256, 134.041 227.952, 136.064 229.034 C 137.596 229.854, 138.498 229.832, 139.564 228.947 C 140.760 227.954, 141 222.127, 141 194.078 C 141 157.363, 140.815 156.130, 135.750 159.080 M 39.571 255.571 C 38.707 256.436, 38 257.529, 38 258 C 38 259.111, 40.889 262, 42 262 C 43.111 262, 46 259.111, 46 258 C 46 256.889, 43.111 254, 42 254 C 41.529 254, 40.436 254.707, 39.571 255.571 M 71.571 255.571 C 70.707 256.436, 70 257.529, 70 258 C 70 259.111, 72.889 262, 74 262 C 75.111 262, 78 259.111, 78 258 C 78 256.889, 75.111 254, 74 254 C 73.529 254, 72.436 254.707, 71.571 255.571 M 103.750 255.080 C 101.372 256.465, 101.542 259.685, 104.064 261.034 C 107.753 263.008, 110.819 258.219, 107.800 255.200 C 106.367 253.767, 106.022 253.757, 103.750 255.080 " stroke="none" fill="black" fill-rule="evenodd"/>
</svg>