<svg xmlns="http://www.w3.org/2000/svg" width="212" height="324" viewBox="0 0 212 324" version="1.1">
	<path d="M 39.571 127.571 C 38.219 128.924, 38 132.988, 38 156.774 L 38 184.405 24.667 171.202 C 17.334 163.941, 10.841 158, 10.239 158 C 8.817 158, 6 160.824, 6 162.249 C 6 162.857, 12.844 170.250, 21.208 178.677 L 36.416 194 21.208 209.323 C 12.844 217.750, 6 225.143, 6 225.751 C 6 227.176, 8.817 230, 10.239 230 C 10.841 230, 17.334 224.059, 24.667 216.798 L 38 203.595 38 231.226 C 38 255.012, 38.219 259.076, 39.571 260.429 C 40.436 261.293, 41.529 262, 42 262 C 42.471 262, 43.564 261.293, 44.429 260.429 C 45.825 259.032, 46 251.628, 46 194 C 46 136.372, 45.825 128.968, 44.429 127.571 C 43.564 126.707, 42.471 126, 42 126 C 41.529 126, 40.436 126.707, 39.571 127.571 M 167.557 128.223 C 166.187 130.178, 166 138.107, 166 194.112 C 166 254.151, 166.104 257.906, 167.817 260.022 C 169.364 261.933, 169.958 262.093, 171.817 261.098 C 173.983 259.939, 174 259.708, 174 231.228 L 174 202.527 187.869 216.369 C 200.505 228.981, 201.927 230.110, 203.869 229.070 C 205.041 228.443, 206 227.163, 206 226.227 C 206 225.290, 199.143 217.656, 190.762 209.262 L 175.524 194 190.762 178.738 C 199.143 170.344, 206 162.710, 206 161.773 C 206 160.837, 205.041 159.557, 203.869 158.930 C 201.927 157.890, 200.505 159.019, 187.869 171.631 L 174 185.473 174 156.772 C 174 129.419, 173.909 128.022, 172.066 127.035 C 169.462 125.642, 169.343 125.673, 167.557 128.223 M 71.571 255.571 C 70.707 256.436, 70 257.529, 70 258 C 70 259.111, 72.889 262, 74 262 C 75.111 262, 78 259.111, 78 258 C 78 256.889, 75.111 254, 74 254 C 73.529 254, 72.436 254.707, 71.571 255.571 M 103.571 255.571 C 102.707 256.436, 102 257.529, 102 258 C 102 259.111, 104.889 262, 106 262 C 107.111 262, 110 259.111, 110 258 C 110 256.889, 107.111 254, 106 254 C 105.529 254, 104.436 254.707, 103.571 255.571 M 136.200 255.200 C 133.181 258.219, 136.247 263.008, 139.936 261.034 C 142.536 259.643, 142.606 256.395, 140.066 255.035 C 137.655 253.745, 137.655 253.745, 136.200 255.200 " stroke="none" fill="black" fill-rule="evenodd"/>
</svg>