<svg xmlns="http://www.w3.org/2000/svg" width="116" height="324" viewBox="0 0 116 324" version="1.1">
	<path d="M 96.500 127.002 C 81.473 129.262, 69.587 135.325, 58.385 146.445 C 51.610 153.171, 49.520 156.067, 45.720 164 C 41.280 173.268, 39 181.087, 39 187.049 L 39 190 24.071 190 C 11.833 190, 8.860 190.283, 7.571 191.571 C 6.707 192.436, 6 193.334, 6 193.568 C 6 195.234, 39.757 261.076, 40.821 261.485 C 41.564 261.770, 42.762 261.665, 43.483 261.252 C 44.204 260.838, 52.319 245.447, 61.515 227.049 C 74.145 201.782, 77.997 193.219, 77.260 192.049 C 76.463 190.783, 73.519 190.450, 61.142 190.224 C 43.735 189.907, 44.672 190.646, 47.515 179.460 C 51.898 162.218, 63.700 147.545, 79.101 140.191 C 87.872 136.003, 95.316 134, 102.115 134 C 107.096 134, 110 132.527, 110 130 C 110 126.304, 106.422 125.509, 96.500 127.002 M 28.743 223.500 C 35.750 237.525, 41.715 249, 42 249 C 42.285 249, 48.250 237.525, 55.257 223.500 L 67.995 198 42 198 L 16.005 198 28.743 223.500 " stroke="none" fill="black" fill-rule="evenodd"/>
</svg>