<svg xmlns="http://www.w3.org/2000/svg" width="148" height="324" viewBox="0 0 148 324" version="1.1">
	<path d="M 39.200 223.200 C 38.375 224.025, 38 229.022, 38 239.200 L 38 254 23.571 254 C 11.788 254, 8.855 254.288, 7.571 255.571 C 5.598 257.545, 5.598 258.455, 7.571 260.429 C 8.855 261.712, 11.788 262, 23.571 262 L 38 262 38 276.800 C 38 286.978, 38.375 291.975, 39.200 292.800 C 40.085 293.685, 49.117 294, 73.629 294 C 102.503 294, 107.063 293.794, 108.429 292.429 C 109.712 291.145, 110 288.215, 110 276.455 L 110 262.053 124.643 261.777 C 137.314 261.537, 139.433 261.264, 140.387 259.750 C 141.191 258.475, 141.191 257.525, 140.387 256.250 C 139.433 254.736, 137.314 254.463, 124.643 254.223 L 110 253.947 110 239.545 C 110 227.785, 109.712 224.855, 108.429 223.571 C 107.063 222.206, 102.503 222, 73.629 222 C 49.117 222, 40.085 222.315, 39.200 223.200 M 46 242 L 46 254 74 254 L 102 254 102 242 L 102 230 74 230 L 46 230 46 242 M 46 274 L 46 286 74 286 L 102 286 102 274 L 102 262 74 262 L 46 262 46 274 " stroke="none" fill="black" fill-rule="evenodd"/>
</svg>