<svg xmlns="http://www.w3.org/2000/svg" width="244" height="324" viewBox="0 0 244 324" version="1.1">
	<path d="M 119.616 111.527 C 118.727 112.416, 118 113.640, 118 114.249 C 118 114.857, 124.844 122.250, 133.208 130.677 L 148.416 146 133.208 161.323 C 124.844 169.750, 118 177.143, 118 177.751 C 118 179.198, 120.994 182.173, 122.068 181.795 C 123.353 181.342, 158 146.827, 158 146 C 158 145.173, 123.353 110.658, 122.068 110.205 C 121.608 110.043, 120.505 110.638, 119.616 111.527 M 168.500 158 L 136.512 190 72.827 190 C 16.266 190, 8.967 190.176, 7.571 191.571 C 5.598 193.545, 5.598 194.455, 7.571 196.429 C 8.844 197.701, 11.697 198, 22.575 198 L 36.006 198 21.020 227.961 C 12.777 244.439, 6.285 258.580, 6.594 259.384 C 7.265 261.133, 9.512 262.125, 11.274 261.448 C 11.975 261.180, 19.056 247.919, 27.010 231.980 C 34.964 216.041, 41.717 203, 42.016 203 C 42.315 203, 49.042 216.034, 56.965 231.964 C 64.888 247.894, 71.962 261.155, 72.685 261.433 C 73.408 261.710, 74.573 261.717, 75.274 261.448 C 75.975 261.180, 83.056 247.919, 91.010 231.980 C 98.964 216.041, 105.710 203, 106 203 C 106.290 203, 113.036 216.041, 120.990 231.980 C 128.944 247.919, 136.083 261.201, 136.853 261.497 C 138.718 262.213, 141 260.217, 141 257.871 C 141 256.835, 134.473 242.940, 126.497 226.993 L 111.993 198 125.313 198 L 138.632 198 170.029 166.502 L 201.427 135.005 217.034 150.502 C 225.618 159.026, 233.117 166, 233.698 166 C 235.296 166, 237.209 163.296, 236.833 161.570 C 236.419 159.669, 203.030 126, 201.559 126 C 200.970 126, 186.094 140.400, 168.500 158 M 60.743 223.500 C 67.750 237.525, 73.715 249, 74 249 C 74.285 249, 80.250 237.525, 87.257 223.500 L 99.995 198 74 198 L 48.005 198 60.743 223.500 " stroke="none" fill="black" fill-rule="evenodd"/>
</svg>