<svg xmlns="http://www.w3.org/2000/svg" width="292" height="324" viewBox="0 0 292 324" version="1.1">
	<path d="M 216.500 158 L 184.512 190 120.827 190 C 64.266 190, 56.967 190.176, 55.571 191.571 C 53.598 193.545, 53.598 194.455, 55.571 196.429 C 56.844 197.701, 59.697 198, 70.575 198 L 84.006 198 69.020 227.961 C 60.777 244.439, 54.285 258.580, 54.594 259.384 C 55.265 261.133, 57.512 262.125, 59.274 261.448 C 59.975 261.180, 67.056 247.919, 75.010 231.980 C 82.964 216.041, 89.717 203, 90.016 203 C 90.315 203, 97.042 216.034, 104.965 231.964 C 112.888 247.894, 119.962 261.155, 120.685 261.433 C 121.408 261.710, 122.573 261.717, 123.274 261.448 C 123.975 261.180, 131.056 247.919, 139.010 231.980 C 146.964 216.041, 153.710 203, 154 203 C 154.290 203, 161.036 216.041, 168.990 231.980 C 176.944 247.919, 184.083 261.201, 184.853 261.497 C 186.718 262.213, 189 260.217, 189 257.871 C 189 256.835, 182.473 242.940, 174.497 226.993 L 159.993 198 173.313 198 L 186.632 198 218.029 166.502 L 249.427 135.005 265.034 150.502 C 273.618 159.026, 281.117 166, 281.698 166 C 283.296 166, 285.209 163.296, 284.833 161.570 C 284.419 159.669, 251.030 126, 249.559 126 C 248.970 126, 234.094 140.400, 216.500 158 M 7.571 159.571 C 6.707 160.436, 6 161.640, 6 162.249 C 6 162.857, 12.844 170.250, 21.208 178.677 L 36.416 194 21.208 209.323 C 12.844 217.750, 6 225.143, 6 225.751 C 6 227.200, 8.827 230, 10.290 230 C 11.969 230, 46 195.693, 46 194 C 46 192.307, 11.969 158, 10.290 158 C 9.659 158, 8.436 158.707, 7.571 159.571 M 108.743 223.500 C 115.750 237.525, 121.715 249, 122 249 C 122.285 249, 128.250 237.525, 135.257 223.500 L 147.995 198 122 198 L 96.005 198 108.743 223.500 " stroke="none" fill="black" fill-rule="evenodd"/>
</svg>