<svg xmlns="http://www.w3.org/2000/svg" width="148" height="324" viewBox="0 0 148 324" version="1.1">
	<path d="M 66.787 131.250 C 54.372 143.022, 6 192.782, 6 193.781 C 6 195.187, 8.833 198, 10.249 198 C 10.857 198, 18.250 191.156, 26.677 182.792 C 35.105 174.427, 42 167.866, 42 168.211 C 42 168.556, 41.249 171.687, 40.330 175.169 C 38 184.005, 38.076 203.186, 40.478 212.500 C 44.601 228.486, 53.555 243.697, 65.176 254.456 C 72.578 261.310, 75.228 262.232, 77.398 258.712 C 78.339 257.185, 77.507 256.034, 71.718 250.846 C 55.004 235.868, 46 215.790, 46 193.500 C 46 181.033, 48.142 171.627, 53.514 160.500 C 57.065 153.144, 59.333 150.043, 65.931 143.522 L 74.002 135.545 105.288 166.772 C 122.495 183.948, 137.064 198, 137.664 198 C 139.286 198, 141.213 195.314, 140.833 193.585 C 140.393 191.586, 75.074 126, 73.524 126 C 72.864 126, 69.832 128.363, 66.787 131.250 M 68.764 158.996 C 63.184 160.676, 59.145 164.067, 56.571 169.234 C 55.157 172.071, 54 175.397, 54 176.625 C 54 178.848, 56.355 182, 58.015 182 C 59.484 182, 62 177.693, 62 175.177 C 62 173.807, 63.440 171.360, 65.400 169.400 C 68.302 166.498, 69.488 166, 73.500 166 C 77.512 166, 78.698 166.498, 81.600 169.400 C 84.502 172.302, 85 173.488, 85 177.500 C 85 181.512, 84.502 182.698, 81.600 185.600 C 79.526 187.674, 77.214 189, 75.671 189 C 71.012 189, 70 191.231, 70 201.500 C 70 208.673, 70.367 211.224, 71.571 212.429 C 73.678 214.535, 74.598 214.412, 76.443 211.777 C 77.474 210.306, 78 207.305, 78 202.899 C 78 196.514, 78.117 196.194, 80.869 195.054 C 84.505 193.548, 89.559 188.344, 90.939 184.685 C 92.455 180.663, 92.249 172.382, 90.551 169.099 C 88.445 165.026, 82.628 160.268, 78.277 159.060 C 73.951 157.859, 72.571 157.849, 68.764 158.996 M 71.616 222.527 C 70.727 223.416, 70 224.529, 70 225 C 70 226.389, 73.140 229.120, 74.295 228.735 C 76.395 228.035, 77.549 225.094, 76.423 223.310 C 74.905 220.902, 73.474 220.669, 71.616 222.527 " stroke="none" fill="black" fill-rule="evenodd"/>
</svg>