<svg xmlns="http://www.w3.org/2000/svg" width="340" height="324" viewBox="0 0 340 324" version="1.1">
	<path d="M 103.571 159.571 C 102.707 160.436, 102 161.636, 102 162.239 C 102 162.841, 107.941 169.334, 115.202 176.667 L 128.405 190 68.774 190 C 15.897 190, 8.965 190.178, 7.571 191.571 C 5.598 193.545, 5.598 194.455, 7.571 196.429 C 8.965 197.822, 15.897 198, 68.774 198 L 128.405 198 115.202 211.333 C 107.941 218.666, 102 225.159, 102 225.761 C 102 227.180, 104.822 230, 106.241 230 C 106.845 230, 113.555 223.842, 121.151 216.315 C 128.747 208.788, 135.101 202.825, 135.271 203.065 C 135.440 203.304, 136.659 205.881, 137.980 208.791 C 140.964 215.368, 148.237 222.303, 155.762 225.749 C 163.442 229.264, 173.845 229.364, 182.493 226.003 C 190.248 222.990, 198.874 214.594, 201.502 207.500 C 202.521 204.750, 203.509 202.304, 203.697 202.064 C 203.885 201.824, 210.477 208.012, 218.347 215.814 C 226.216 223.616, 233.093 230, 233.627 230 C 235.241 230, 237 227.724, 237 225.636 C 237 224.461, 231.902 218.519, 224.307 210.844 L 211.615 198.016 271.448 197.758 C 327.182 197.518, 331.358 197.380, 332.386 195.750 C 333.191 194.474, 333.191 193.526, 332.386 192.250 C 331.358 190.620, 327.182 190.482, 271.448 190.242 L 211.615 189.984 224.307 177.156 C 231.902 169.481, 237 163.539, 237 162.364 C 237 160.276, 235.241 158, 233.627 158 C 233.093 158, 226.223 164.377, 218.362 172.171 C 206.389 184.042, 203.964 186.031, 203.427 184.421 C 198.746 170.415, 189.152 161.704, 175.434 159.006 C 160.277 156.024, 144.021 164.649, 137.527 179.118 L 134.796 185.205 121.068 171.603 C 113.517 164.121, 106.845 158, 106.241 158 C 105.637 158, 104.436 158.707, 103.571 159.571 M 159.463 167.591 C 153.971 169.541, 148.552 174.205, 145.249 179.824 C 142.800 183.989, 142.500 185.483, 142.500 193.500 C 142.500 201.517, 142.800 203.011, 145.249 207.176 C 150.560 216.211, 159.166 221, 170.091 221 C 181.769 221, 192.963 212.244, 196.098 200.657 C 199.721 187.265, 191.838 172.176, 178.684 167.326 C 174.323 165.718, 164.351 165.856, 159.463 167.591 M 135.585 255.558 C 134.713 256.430, 134 257.529, 134 258 C 134 258.471, 134.713 259.570, 135.585 260.442 C 136.978 261.835, 141.159 261.995, 170.226 261.763 C 200.452 261.523, 203.377 261.350, 204.386 259.750 C 205.191 258.474, 205.191 257.526, 204.386 256.250 C 203.377 254.650, 200.452 254.477, 170.226 254.237 C 141.159 254.005, 136.978 254.165, 135.585 255.558 " stroke="none" fill="black" fill-rule="evenodd"/>
</svg>