<svg xmlns="http://www.w3.org/2000/svg" width="148" height="324" viewBox="0 0 148 324" version="1.1">
	<path d="M 23.315 111.213 C 13.792 120.680, 6 129.134, 6 130 C 6 131.761, 39.994 166, 41.743 166 C 43.175 166, 46 163.187, 46 161.761 C 46 161.159, 40.063 154.670, 32.806 147.341 L 19.611 134.016 79.447 133.758 C 135.182 133.518, 139.358 133.380, 140.386 131.750 C 141.191 130.474, 141.191 129.526, 140.386 128.250 C 139.358 126.620, 135.182 126.482, 79.447 126.242 L 19.611 125.984 32.806 112.659 C 40.063 105.330, 46 98.841, 46 98.239 C 46 96.813, 43.175 94, 41.743 94 C 41.131 94, 32.838 101.746, 23.315 111.213 M 23.315 239.213 C 13.792 248.680, 6 257.134, 6 258 C 6 259.761, 39.994 294, 41.743 294 C 43.175 294, 46 291.187, 46 289.761 C 46 289.159, 40.063 282.670, 32.806 275.341 L 19.611 262.016 79.447 261.758 C 135.182 261.518, 139.358 261.380, 140.386 259.750 C 141.191 258.474, 141.191 257.526, 140.386 256.250 C 139.358 254.620, 135.182 254.482, 79.447 254.242 L 19.611 253.984 32.806 240.659 C 40.063 233.330, 46 226.841, 46 226.239 C 46 224.813, 43.175 222, 41.743 222 C 41.131 222, 32.838 229.746, 23.315 239.213 " stroke="none" fill="black" fill-rule="evenodd"/>
</svg>