<svg xmlns="http://www.w3.org/2000/svg" width="148" height="324" viewBox="0 0 148 324" version="1.1">
	<path d="M 116.289 146.234 C 98.356 164.090, 95.763 166.321, 94.233 165.209 C 90.662 162.615, 83.918 159.917, 78.498 158.915 C 63.724 156.184, 48.026 164.988, 41.216 179.825 C 39.084 184.470, 38.610 186.991, 38.606 193.717 C 38.600 201.238, 38.915 202.548, 42.313 209.173 L 46.027 216.410 26.013 236.511 C 15.006 247.566, 6 257.117, 6 257.734 C 6 259.186, 8.814 262, 10.266 262 C 10.883 262, 20.509 252.919, 31.656 241.820 L 51.923 221.640 56.712 224.238 C 70.243 231.578, 86.932 229.170, 97.777 218.313 C 104.661 211.422, 107.383 205.282, 107.847 195.598 C 108.271 186.746, 107.050 181.361, 103.316 175.614 L 100.791 171.727 120.895 151.605 C 131.953 140.537, 141 130.789, 141 129.941 C 141 128.201, 139.105 126, 137.606 126 C 137.059 126, 127.466 135.105, 116.289 146.234 M 63.627 167.468 C 58.247 169.386, 53.039 173.829, 49.500 179.519 C 46.969 183.589, 46.444 185.570, 46.143 192.193 C 45.828 199.133, 46.104 200.691, 48.524 205.638 L 51.261 211.233 70.809 191.684 C 92.389 170.105, 92.135 170.597, 83.260 167.573 C 77.631 165.655, 68.846 165.608, 63.627 167.468 M 76.410 196.607 C 58.733 215.005, 57.690 216.300, 59.490 217.616 C 64.046 220.948, 76.283 222.034, 82.684 219.674 C 97.771 214.112, 105.202 196.568, 98.536 182.250 C 97.192 179.363, 95.902 177, 95.670 177 C 95.438 177, 86.771 185.823, 76.410 196.607 " stroke="none" fill="black" fill-rule="evenodd"/>
</svg>