<svg xmlns="http://www.w3.org/2000/svg" width="84" height="324" viewBox="0 0 84 324" version="1.1">
	<path d="M 7.571 159.571 C 6.707 160.436, 6 161.529, 6 162 C 6 162.471, 6.707 163.564, 7.571 164.429 C 8.936 165.793, 13.463 166, 42 166 C 70.537 166, 75.064 165.793, 76.429 164.429 C 77.293 163.564, 78 162.471, 78 162 C 78 161.529, 77.293 160.436, 76.429 159.571 C 75.064 158.207, 70.537 158, 42 158 C 13.463 158, 8.936 158.207, 7.571 159.571 M 39.571 191.571 C 38.288 192.855, 38 195.788, 38 207.571 L 38 222 23.571 222 C 11.788 222, 8.855 222.288, 7.571 223.571 C 5.598 225.545, 5.598 226.455, 7.571 228.429 C 8.855 229.712, 11.788 230, 23.571 230 L 38 230 38 244.429 C 38 256.212, 38.288 259.145, 39.571 260.429 C 40.436 261.293, 41.529 262, 42 262 C 42.471 262, 43.564 261.293, 44.429 260.429 C 45.712 259.145, 46 256.212, 46 244.429 L 46 230 60.429 230 C 72.212 230, 75.145 229.712, 76.429 228.429 C 78.402 226.455, 78.402 225.545, 76.429 223.571 C 75.145 222.288, 72.212 222, 60.429 222 L 46 222 46 207.571 C 46 195.788, 45.712 192.855, 44.429 191.571 C 43.564 190.707, 42.471 190, 42 190 C 41.529 190, 40.436 190.707, 39.571 191.571 " stroke="none" fill="black" fill-rule="evenodd"/>
</svg>