<svg xmlns="http://www.w3.org/2000/svg" width="148" height="324" viewBox="0 0 148 324" version="1.1">
	<path d="M 63.102 63.104 C 48.516 65.321, 35.328 72.577, 24.168 84.528 C 13.872 95.552, 8.286 108.223, 6.503 124.598 C 5.964 129.549, 6.150 131.007, 7.491 132.348 C 9.547 134.404, 10.439 134.418, 12.429 132.429 C 13.404 131.453, 14.006 129.082, 14.015 126.179 C 14.091 102.127, 34.559 77.323, 59.103 71.537 C 90.978 64.024, 122.983 83.153, 131.003 114.511 C 132.101 118.806, 133 124.482, 133 127.125 C 133 130.956, 133.418 132.154, 135.064 133.034 C 142.869 137.211, 141.090 114.529, 132.293 97.700 C 126.910 87.401, 115.006 75.654, 104.500 70.271 C 91.374 63.546, 76.799 61.023, 63.102 63.104 M 63.102 127.104 C 48.516 129.321, 35.328 136.577, 24.168 148.528 C 13.872 159.552, 8.286 172.223, 6.503 188.598 C 5.431 198.440, 3.884 198, 39.571 198 L 70 198 70 228.429 C 70 254.758, 70.212 259.069, 71.571 260.429 C 73.678 262.535, 74.598 262.412, 76.443 259.777 C 77.768 257.887, 78 253.110, 78 227.777 L 78 198 103.202 198 L 128.405 198 115.202 211.333 C 107.941 218.666, 102 225.159, 102 225.761 C 102 227.200, 104.997 230.172, 106.068 229.795 C 106.528 229.633, 114.819 221.658, 124.492 212.074 C 137.272 199.412, 141.894 194.218, 141.403 193.074 C 141.032 192.208, 140.334 188.800, 139.853 185.500 C 137.480 169.231, 131.833 157.824, 120.515 146.435 C 105.128 130.952, 84.185 123.901, 63.102 127.104 M 58.645 135.584 C 38.562 140.445, 20.305 158.877, 15.537 179.103 C 14.708 182.621, 14.023 186.512, 14.015 187.750 L 14 190 42 190 L 70 190 70 162 L 70 134 67.250 134.083 C 65.737 134.129, 61.865 134.804, 58.645 135.584 M 78 161.886 L 78 190 103.202 190 L 128.405 190 115.202 176.667 C 107.941 169.334, 102 162.841, 102 162.239 C 102 161.045, 104.735 158, 105.808 158 C 106.173 158, 112.258 163.738, 119.329 170.750 C 131.397 182.717, 132.144 183.285, 131.493 180 C 127.052 157.563, 106.067 137.982, 82.710 134.479 L 78 133.773 78 161.886 " stroke="none" fill="black" fill-rule="evenodd"/>
</svg>