<svg xmlns="http://www.w3.org/2000/svg" width="180" height="324" viewBox="0 0 180 324" version="1.1">
	<path d="M 39.244 159.256 L 6 192.511 6 226.056 C 6 250.812, 6.314 259.914, 7.200 260.800 C 8.109 261.709, 24.311 262, 74 262 C 123.689 262, 139.891 261.709, 140.800 260.800 C 141.686 259.914, 142 250.810, 142 226.044 L 142 192.489 108.744 159.244 C 90.454 140.960, 74.814 126, 73.989 126 C 73.164 126, 57.529 140.965, 39.244 159.256 M 43.744 165.756 L 14 195.512 14 224.756 L 14 254 74 254 L 134 254 134 224.744 L 134 195.487 104.244 165.744 C 87.878 149.385, 74.263 136, 73.988 136 C 73.713 136, 60.103 149.390, 43.744 165.756 M 167.571 191.571 C 166.707 192.436, 166 193.529, 166 194 C 166 194.471, 166.707 195.564, 167.571 196.429 C 168.436 197.293, 169.529 198, 170 198 C 170.471 198, 171.564 197.293, 172.429 196.429 C 173.293 195.564, 174 194.471, 174 194 C 174 193.529, 173.293 192.436, 172.429 191.571 C 171.564 190.707, 170.471 190, 170 190 C 169.529 190, 168.436 190.707, 167.571 191.571 " stroke="none" fill="black" fill-rule="evenodd"/>
</svg>