<svg xmlns="http://www.w3.org/2000/svg" width="84" height="324" viewBox="0 0 84 324" version="1.1">
	<path d="M 7.571 191.571 C 6.206 192.937, 6 197.497, 6 226.371 C 6 250.883, 6.315 259.915, 7.200 260.800 C 8.919 262.519, 75.081 262.519, 76.800 260.800 C 77.685 259.915, 78 250.883, 78 226.371 C 78 197.497, 77.794 192.937, 76.429 191.571 C 74.455 189.598, 73.545 189.598, 71.571 191.571 C 70.212 192.931, 70 197.242, 70 223.571 L 70 254 58 254 L 46 254 46 223.571 C 46 197.242, 45.788 192.931, 44.429 191.571 C 42.455 189.598, 41.545 189.598, 39.571 191.571 C 38.212 192.931, 38 197.242, 38 223.571 L 38 254 26 254 L 14 254 14 223.571 C 14 197.242, 13.788 192.931, 12.429 191.571 C 11.564 190.707, 10.471 190, 10 190 C 9.529 190, 8.436 190.707, 7.571 191.571 " stroke="none" fill="black" fill-rule="evenodd"/>
</svg>