<svg xmlns="http://www.w3.org/2000/svg" width="148" height="324" viewBox="0 0 148 324" version="1.1">
	<path d="M 7.571 127.571 C 6.707 128.436, 6 129.619, 6 130.200 C 6 130.782, 9.872 135.215, 14.605 140.051 L 23.210 148.845 19.558 153.628 C 12.468 162.913, 7.913 174.961, 6.499 188.168 C 5.924 193.530, 6.094 194.951, 7.473 196.330 C 9.547 198.404, 10.435 198.422, 12.429 196.429 C 13.404 195.453, 14.006 193.082, 14.015 190.179 C 14.046 180.144, 19.611 164.929, 26.252 156.721 L 28.500 153.941 48.494 173.974 L 68.488 194.007 41.244 221.251 L 14 248.495 14 236.819 C 14 227.538, 13.678 224.821, 12.429 223.571 C 10.455 221.598, 9.545 221.598, 7.571 223.571 C 6.264 224.878, 6 228.042, 6 242.371 C 6 254.438, 6.360 259.960, 7.200 260.800 C 8.040 261.640, 13.562 262, 25.629 262 C 39.958 262, 43.122 261.736, 44.429 260.429 C 46.243 258.614, 46.319 258.054, 45.024 256 C 44.301 254.852, 41.252 254.383, 32.026 254 L 19.973 253.500 44.986 228.508 L 70 203.515 70 231.186 C 70 255.008, 70.219 259.076, 71.571 260.429 C 73.545 262.402, 74.455 262.402, 76.429 260.429 C 77.824 259.034, 78 251.848, 78 196.429 C 78 137.109, 78.089 134, 79.790 134 C 83.684 134, 93.881 137.216, 100.981 140.684 C 118.934 149.452, 132.924 171.540, 132.985 191.215 C 132.997 194.946, 133.431 196.160, 135.064 197.034 C 142.926 201.242, 141.164 178.620, 132.320 161.788 C 128.325 154.187, 118.951 143.439, 112.364 138.907 C 100.087 130.460, 88.226 126.722, 73.500 126.660 C 58.408 126.596, 44.867 130.976, 33.628 139.558 L 28.845 143.210 20.051 134.605 C 15.215 129.872, 10.782 126, 10.200 126 C 9.619 126, 8.436 126.707, 7.571 127.571 M 58.645 135.584 C 52.473 137.078, 41.402 142.465, 36.720 146.252 L 33.940 148.500 51.970 166.490 L 70 184.479 70 159.240 L 70 134 67.250 134.083 C 65.737 134.129, 61.865 134.804, 58.645 135.584 " stroke="none" fill="black" fill-rule="evenodd"/>
</svg>