<svg xmlns="http://www.w3.org/2000/svg" width="84" height="324" viewBox="0 0 84 324" version="1.1">
	<path d="M 7.200 127.200 C 6.291 128.109, 6 144.229, 6 193.629 C 6 251.594, 6.175 259.032, 7.571 260.429 C 8.436 261.293, 9.529 262, 10 262 C 10.471 262, 11.564 261.293, 12.429 260.429 C 13.824 259.034, 14 251.848, 14 196.429 L 14 134 44.429 134 C 70.758 134, 75.069 133.788, 76.429 132.429 C 78.402 130.455, 78.402 129.545, 76.429 127.571 C 75.063 126.206, 70.503 126, 41.629 126 C 17.117 126, 8.085 126.315, 7.200 127.200 " stroke="none" fill="black" fill-rule="evenodd"/>
</svg>