<svg xmlns="http://www.w3.org/2000/svg" width="84" height="324" viewBox="0 0 84 324" version="1.1">
	<path d="M 40.380 126.765 C 39.764 127.169, 31.776 142.434, 22.630 160.687 L 6 193.874 6 226.366 C 6 254.570, 6.207 259.064, 7.571 260.429 C 8.936 261.793, 13.463 262, 42 262 C 70.537 262, 75.064 261.793, 76.429 260.429 C 77.793 259.064, 78 254.570, 78 226.366 L 78 193.874 61.370 160.687 C 46.409 130.832, 43.726 126.031, 42 126.031 C 41.725 126.031, 40.996 126.361, 40.380 126.765 M 28.743 164.500 L 16.005 190 42 190 L 67.995 190 55.257 164.500 C 48.250 150.475, 42.285 139, 42 139 C 41.715 139, 35.750 150.475, 28.743 164.500 M 14 226 L 14 254 42 254 L 70 254 70 226 L 70 198 42 198 L 14 198 14 226 " stroke="none" fill="black" fill-rule="evenodd"/>
</svg>