<svg xmlns="http://www.w3.org/2000/svg" width="244" height="324" viewBox="0 0 244 324" version="1.1">
	<path d="M 207.495 151.025 L 182.400 176.049 175.371 175.053 C 163.778 173.408, 151.289 176.289, 141.569 182.849 L 136.967 185.954 131.620 182.534 C 123.318 177.223, 114.932 174.781, 105 174.781 C 90.483 174.782, 79.561 179.544, 69.338 190.330 C 66.368 193.463, 61.709 196.982, 58.342 198.634 C 52.987 201.261, 51.583 201.500, 41.500 201.500 C 29.167 201.500, 25.420 200.312, 16.741 193.652 C 11.359 189.521, 8.443 189.028, 7.473 192.085 C 6.210 196.063, 15.653 203.390, 26.841 207.114 C 43.718 212.730, 66.042 206.989, 75.489 194.603 C 78.799 190.264, 85.822 185.775, 92.860 183.499 C 96.849 182.209, 100.472 181.874, 107.021 182.187 C 114.708 182.554, 116.781 183.082, 123.406 186.356 C 127.985 188.619, 131.500 191.075, 132.274 192.554 C 133.788 195.443, 142.940 202.572, 148.193 204.954 L 151.887 206.629 127.880 230.564 C 114.677 243.729, 103.454 255.255, 102.940 256.178 C 102.427 257.100, 102.265 258.528, 102.581 259.350 C 104.272 263.757, 106.400 262.086, 133.104 235.396 L 159.811 208.702 164.204 209.304 C 173.964 210.642, 188.791 206.503, 198.244 199.803 C 200.035 198.533, 202.400 196.998, 203.500 196.390 C 208.203 193.793, 205.256 188.821, 195.121 182.257 L 189.742 178.773 213.371 155.129 C 226.367 142.125, 237 130.791, 237 129.942 C 237 128.196, 235.104 126, 233.595 126 C 233.042 126, 221.297 137.261, 207.495 151.025 M 155.472 183.883 C 149.852 185.908, 142 190.568, 142 191.880 C 142 193.122, 149.574 197.938, 153.960 199.486 L 157.725 200.814 167.093 191.407 L 176.460 182 168.480 182.036 C 163.377 182.059, 158.687 182.725, 155.472 183.883 M 174.978 193.612 L 166.500 202.224 173.061 201.742 C 176.670 201.477, 181.845 200.280, 184.561 199.081 C 190.105 196.635, 195.983 192.876, 195.993 191.770 C 196.001 190.912, 185.971 185.023, 184.478 185.009 C 183.916 185.004, 179.641 188.875, 174.978 193.612 " stroke="none" fill="black" fill-rule="evenodd"/>
</svg>