<svg xmlns="http://www.w3.org/2000/svg" width="180" height="324" viewBox="0 0 180 324" version="1.1">
	<path d="M 33.384 159.412 C 15.475 163.758, 3.559 181.807, 6.987 199.396 C 9.923 214.467, 20.510 225.032, 35.660 228.013 C 51.056 231.042, 68.391 221.263, 73.946 206.414 C 75.076 203.395, 76 200.267, 76 199.462 C 76 197.517, 80.513 197.562, 88.356 199.585 C 104.605 203.777, 119.577 216.013, 126.796 231 C 129.048 235.675, 131.188 241.075, 131.551 243 C 132.178 246.316, 131.556 245.854, 119.767 234.250 C 112.922 227.512, 106.831 222, 106.232 222 C 104.814 222, 102 224.827, 102 226.253 C 102 227.168, 132.228 258.707, 135.500 261.206 C 136.050 261.626, 137.161 261.976, 137.968 261.985 C 139.676 262.002, 174 227.999, 174 226.290 C 174 224.829, 171.201 222, 169.756 222 C 169.150 222, 162.316 228.285, 154.568 235.967 L 140.480 249.935 138.746 242.304 C 133.060 217.283, 111.712 196.529, 86.987 191.984 C 83.419 191.328, 79.546 190.619, 78.380 190.409 C 76.768 190.119, 76.103 189.044, 75.603 185.922 C 73.648 173.692, 62.505 162.505, 49.147 159.360 C 42.397 157.772, 40.111 157.779, 33.384 159.412 M 31.054 167.728 C 25.018 169.859, 17.781 177.260, 15.667 183.463 C 11.995 194.241, 14.382 205.477, 21.952 213.048 C 32.673 223.769, 50.327 223.769, 61.048 213.048 C 71.769 202.327, 71.769 184.673, 61.048 173.952 C 53.519 166.424, 41.696 163.970, 31.054 167.728 " stroke="none" fill="black" fill-rule="evenodd"/>
</svg>