<svg xmlns="http://www.w3.org/2000/svg" width="228" height="324" viewBox="0 0 228 324" version="1.1">
	<path d="M 7.571 127.571 C 6.707 128.436, 6 129.337, 6 129.574 C 6 130.835, 71.414 260.617, 72.369 261.249 C 72.991 261.662, 88.350 261.880, 106.500 261.735 C 142.210 261.450, 146.332 260.924, 155.651 255.464 C 169.790 247.179, 176.040 228.420, 169.963 212.507 C 166.836 204.320, 158.680 196.164, 150.493 193.037 C 137.137 187.936, 122.921 190.919, 112.920 200.920 C 99.640 214.200, 99.089 234.985, 111.646 248.952 L 116.185 254 96.094 254 L 76.003 254 44.383 190.750 C 26.992 155.962, 12.254 127.169, 11.631 126.765 C 9.978 125.692, 9.320 125.822, 7.571 127.571 M 183.250 190.662 C 181.097 191.531, 181.875 194.819, 185.293 199.297 C 191.709 207.703, 193.492 213.289, 193.496 225 C 193.500 234.674, 193.256 236.015, 190.397 242.047 C 188.691 245.648, 185.844 250.247, 184.070 252.267 C 181.769 254.888, 181.030 256.520, 181.490 257.970 C 182.503 261.161, 186.353 260.501, 189.831 256.540 C 205.266 238.960, 205.205 210.971, 189.694 193.304 C 186.858 190.075, 185.791 189.637, 183.250 190.662 M 127.627 199.468 C 122.302 201.367, 117.047 205.815, 113.618 211.328 C 109.802 217.463, 108.934 227.275, 111.519 235.058 C 117.686 253.624, 142.931 259.164, 157.048 245.048 C 167.769 234.327, 167.769 216.673, 157.048 205.952 C 149.696 198.601, 137.563 195.927, 127.627 199.468 " stroke="none" fill="black" fill-rule="evenodd"/>
</svg>