<svg xmlns="http://www.w3.org/2000/svg" width="148" height="324" viewBox="0 0 148 324" version="1.1">
	<path d="M 7.579 255.564 C 6.710 256.432, 6 257.529, 6 258 C 6 258.471, 6.710 259.568, 7.579 260.436 C 8.990 261.847, 16.058 261.987, 74.220 261.757 C 134.934 261.517, 139.356 261.383, 140.386 259.750 C 141.191 258.474, 141.191 257.526, 140.386 256.250 C 139.356 254.617, 134.934 254.483, 74.220 254.243 C 16.058 254.013, 8.990 254.153, 7.579 255.564 M 71.571 287.571 C 70.707 288.436, 70 289.529, 70 290 C 70 291.111, 72.889 294, 74 294 C 75.111 294, 78 291.111, 78 290 C 78 288.889, 75.111 286, 74 286 C 73.529 286, 72.436 286.707, 71.571 287.571 " stroke="none" fill="black" fill-rule="evenodd"/>
</svg>