<svg xmlns="http://www.w3.org/2000/svg" width="180" height="324" viewBox="0 0 180 324" version="1.1">
	<path d="M 7.571 159.571 C 6.207 160.936, 6 165.463, 6 194 C 6 222.537, 6.207 227.064, 7.571 228.429 C 8.936 229.793, 13.463 230, 42 230 C 70.537 230, 75.064 229.793, 76.429 228.429 C 77.764 227.093, 78 223.478, 78 204.349 L 78 181.841 81.250 182.480 C 87.913 183.791, 98.813 189.935, 102.537 194.479 C 115.397 210.174, 141.797 214.181, 160.790 203.322 C 167.414 199.534, 172 195.092, 172 192.464 C 172 188.434, 168.557 188.410, 163.681 192.406 C 161.304 194.353, 156.692 197.195, 153.430 198.723 C 148.127 201.206, 146.389 201.500, 137 201.500 C 127.594 201.500, 125.878 201.209, 120.528 198.704 C 116.853 196.983, 111.853 193.290, 107.528 189.102 C 103.663 185.360, 98.964 181.506, 97.087 180.539 C 92.181 178.011, 83.079 175, 80.343 175 C 78.111 175, 78 174.672, 78 168.071 C 78 163.106, 77.555 160.698, 76.429 159.571 C 75.064 158.207, 70.537 158, 42 158 C 13.463 158, 8.936 158.207, 7.571 159.571 M 14 194 L 14 222 42 222 L 70 222 70 201.872 L 70 181.744 65.750 182.411 C 59.783 183.346, 49.983 188.117, 45.255 192.388 C 40.686 196.517, 38.553 196.901, 36.939 193.886 C 35.950 192.037, 36.344 191.225, 40.081 187.418 C 44.798 182.611, 56.280 176.497, 62.500 175.480 C 69.858 174.276, 70 174.171, 70 169.933 L 70 166 42 166 L 14 166 14 194 " stroke="none" fill="black" fill-rule="evenodd"/>
</svg>