<svg xmlns="http://www.w3.org/2000/svg" width="84" height="324" viewBox="0 0 84 324" version="1.1">
	<path d="M 7.571 127.571 C 6.207 128.936, 6 133.463, 6 162 C 6 199.522, 5.654 198, 14.190 198 L 19.237 198 16.059 201.250 C 14.311 203.037, 11.467 207.370, 9.740 210.877 C 6.989 216.464, 6.600 218.277, 6.600 225.500 C 6.600 232.734, 6.988 234.533, 9.762 240.168 C 13.442 247.643, 18.127 252.669, 24.767 256.262 C 45.938 267.721, 71.337 255.397, 76.013 231.396 C 78.022 221.088, 74.249 208.726, 66.756 201.062 L 63.763 198 69.310 198 C 78.428 198, 78 199.772, 78 162 C 78 133.463, 77.793 128.936, 76.429 127.571 C 75.064 126.207, 70.537 126, 42 126 C 13.463 126, 8.936 126.207, 7.571 127.571 M 14 162 L 14 190 42 190 L 70 190 70 162 L 70 134 42 134 L 14 134 14 162 M 31.605 199.568 C 24.049 202.337, 24.073 202.527, 33.170 211.671 L 41.457 220.001 49.692 211.809 C 58.838 202.711, 58.906 202.178, 51.260 199.573 C 45.620 197.651, 36.842 197.649, 31.605 199.568 M 18.184 210.278 C 14.139 215.152, 12.867 227.319, 15.573 235.260 C 18.178 242.906, 18.711 242.838, 27.809 233.692 L 36.001 225.457 27.671 217.170 C 20.854 210.389, 19.131 209.137, 18.184 210.278 M 55.191 217.308 L 46.999 225.543 55.339 233.840 L 63.680 242.137 65.174 239.819 C 69.239 233.513, 70.153 223.740, 67.427 215.740 C 64.822 208.094, 64.289 208.162, 55.191 217.308 M 33.160 239.339 L 24.863 247.680 27.181 249.174 C 33.487 253.239, 43.260 254.153, 51.260 251.427 C 58.906 248.822, 58.838 248.289, 49.692 239.191 L 41.457 230.999 33.160 239.339 " stroke="none" fill="black" fill-rule="evenodd"/>
</svg>