<svg xmlns="http://www.w3.org/2000/svg" width="148" height="324" viewBox="0 0 148 324" version="1.1">
	<path d="M 39.267 159.267 C 20.970 177.563, 6 193.193, 6 194 C 6 195.752, 71.998 262, 73.743 262 C 75.097 262, 141.500 195.367, 141.500 194.008 C 141.500 192.624, 75.159 126, 73.780 126 C 73.094 126, 57.563 140.970, 39.267 159.267 M 44.498 165.002 L 15.509 194.004 44.754 223.250 L 74 252.496 103.246 223.250 L 132.491 194.004 103.502 165.002 C 87.558 149.051, 74.282 136, 74 136 C 73.718 136, 60.442 149.051, 44.498 165.002 " stroke="none" fill="black" fill-rule="evenodd"/>
</svg>