<svg xmlns="http://www.w3.org/2000/svg" width="212" height="324" viewBox="0 0 212 324" version="1.1">
	<path d="M 63.870 191.071 C 49.052 193.248, 35.182 200.733, 24.224 212.467 C 13.868 223.556, 8.290 236.189, 6.503 252.598 C 5.957 257.615, 6.142 258.999, 7.548 260.406 C 8.536 261.393, 9.942 261.842, 10.879 261.468 C 11.771 261.112, 14.975 260.460, 18 260.019 C 32.657 257.882, 44.169 252.455, 54.489 242.816 C 66.346 231.744, 72.988 219.914, 75.440 205.500 L 76.631 198.500 88.335 198.218 L 100.038 197.936 85.036 227.929 C 76.784 244.425, 70.285 258.580, 70.594 259.384 C 71.265 261.133, 73.512 262.125, 75.274 261.448 C 75.975 261.180, 83.056 247.919, 91.010 231.980 C 98.964 216.041, 105.710 203, 106 203 C 106.290 203, 113.042 216.054, 121.004 232.009 C 134.891 259.835, 137.551 263.942, 140.006 261.349 C 141.063 260.233, 148.832 245.311, 160.677 221.646 L 170.252 202.517 184.527 231.054 C 192.378 246.749, 199.493 260.164, 200.337 260.865 C 202.192 262.404, 206 260.785, 206 258.458 C 206 257.649, 199.475 243.943, 191.500 228 C 183.525 212.057, 177 198.785, 177 198.507 C 177 198.228, 182.655 198, 189.566 198 C 202.724 198, 206 197.203, 206 194 C 206 192.939, 205.130 191.605, 204.066 191.035 C 201.721 189.780, 72.430 189.813, 63.870 191.071 M 58.645 199.584 C 43.086 203.350, 27.664 215.818, 20.315 230.573 C 16.593 238.045, 12.996 251.330, 14.333 252.667 C 15.670 254.004, 28.955 250.407, 36.427 246.685 C 51.108 239.373, 63.341 224.304, 67.472 208.448 C 68.312 205.220, 69 201.549, 69 200.290 C 69 197.577, 67.388 197.467, 58.645 199.584 M 124.743 223.500 C 131.750 237.525, 137.715 249, 138 249 C 138.285 249, 144.250 237.525, 151.257 223.500 L 163.995 198 138 198 L 112.005 198 124.743 223.500 M 97.500 271.047 C 86.804 272.897, 76.843 277.998, 71.059 284.586 C 67.882 288.204, 67.907 290.518, 71.132 291.542 C 72.512 291.980, 74.272 291.084, 77.167 288.468 C 93.434 273.772, 121.699 274.813, 134.622 290.584 C 146.522 305.106, 171.252 309.709, 189.803 300.855 C 195.843 297.973, 205 290.796, 205 288.944 C 205 287.959, 202.118 285, 201.159 285 C 200.775 285, 197.770 287.032, 194.480 289.517 C 186.192 295.776, 177.445 298.383, 166.671 297.803 C 155.590 297.206, 148.232 293.853, 140.433 285.847 C 137.214 282.542, 132.726 278.752, 130.460 277.424 C 121.033 271.899, 107.599 269.300, 97.500 271.047 " stroke="none" fill="black" fill-rule="evenodd"/>
</svg>