<svg xmlns="http://www.w3.org/2000/svg" width="148" height="324" viewBox="0 0 148 324" version="1.1">
	<path d="M 31.263 175.514 C 19.506 178.068, 4.474 188.261, 5.174 193.204 C 5.738 197.176, 9.528 196.689, 14.627 191.990 C 30.209 177.627, 58.062 179.050, 70.766 194.859 C 79.659 205.924, 98.249 211.881, 113.746 208.629 C 125.964 206.066, 140.475 197.218, 139.805 192.740 C 139.178 188.551, 136.558 188.409, 131.803 192.305 C 129.359 194.308, 124.692 197.195, 121.430 198.723 C 116.127 201.206, 114.389 201.500, 105 201.500 C 95.344 201.500, 93.977 201.252, 88 198.418 C 83.615 196.339, 79.554 193.310, 75.522 189.110 C 68.411 181.705, 58.680 176.538, 49 175.029 C 40.928 173.770, 39.055 173.821, 31.263 175.514 M 7.579 255.564 C 6.710 256.432, 6 257.529, 6 258 C 6 258.471, 6.710 259.568, 7.579 260.436 C 8.990 261.847, 16.058 261.987, 74.220 261.757 C 134.934 261.517, 139.356 261.383, 140.386 259.750 C 141.191 258.474, 141.191 257.526, 140.386 256.250 C 139.356 254.617, 134.934 254.483, 74.220 254.243 C 16.058 254.013, 8.990 254.153, 7.579 255.564 " stroke="none" fill="black" fill-rule="evenodd"/>
</svg>