<svg xmlns="http://www.w3.org/2000/svg" width="212" height="324" viewBox="0 0 212 324" version="1.1">
	<path d="M 39.571 127.571 C 38.207 128.935, 38 133.425, 38 161.577 L 38 194.012 22 226 C 13.200 243.593, 6 258.183, 6 258.423 C 6 258.662, 6.707 259.564, 7.571 260.429 C 8.936 261.793, 13.430 262, 41.637 262 C 73.043 262, 78 261.579, 78 258.909 C 78 258.348, 70.912 243.742, 62.250 226.453 L 46.500 195.017 75.995 165.507 C 92.218 149.276, 105.831 136.110, 106.246 136.249 C 108.158 136.886, 165 193.324, 165 194.585 C 165 195.370, 158.032 209.942, 149.516 226.967 C 140.424 245.145, 134.278 258.561, 134.627 259.470 C 134.953 260.321, 136.183 261.252, 137.360 261.538 C 138.537 261.825, 154.076 261.933, 171.891 261.779 C 201.460 261.524, 204.379 261.348, 205.385 259.752 C 206.290 258.317, 203.574 252.173, 190.244 225.498 L 174 192.992 174 160.531 C 174 128.759, 173.956 128.047, 171.936 126.966 C 170.404 126.146, 169.502 126.168, 168.436 127.053 C 167.249 128.038, 167 133.211, 167 156.866 L 167 185.487 137.244 155.744 C 120.878 139.385, 106.833 126, 106.033 126 C 105.233 126, 91.398 139.152, 75.289 155.227 L 46 184.455 46 156.799 C 46 132.990, 45.781 128.924, 44.429 127.571 C 43.564 126.707, 42.471 126, 42 126 C 41.529 126, 40.436 126.707, 39.571 127.571 M 28.743 228.500 L 16.005 254 42 254 L 67.995 254 55.257 228.500 C 48.250 214.475, 42.285 203, 42 203 C 41.715 203, 35.750 214.475, 28.743 228.500 M 157.567 227.866 C 150.591 241.809, 145.068 253.401, 145.293 253.626 C 145.518 253.851, 156.965 253.915, 170.730 253.767 L 195.759 253.500 183.004 228.008 L 170.250 202.516 157.567 227.866 " stroke="none" fill="black" fill-rule="evenodd"/>
</svg>