<svg xmlns="http://www.w3.org/2000/svg" width="212" height="324" viewBox="0 0 212 324" version="1.1">
	<path d="M 39.571 127.571 C 38.207 128.935, 38 133.425, 38 161.577 L 38 194.012 22.016 225.967 C 13.225 243.542, 6.285 258.580, 6.594 259.384 C 7.265 261.133, 9.512 262.124, 11.274 261.448 C 11.975 261.180, 19.056 247.919, 27.010 231.980 C 34.964 216.041, 41.710 203, 42 203 C 42.291 203, 48.822 215.627, 56.514 231.060 C 64.206 246.493, 71.222 259.779, 72.105 260.584 C 73.894 262.216, 76.549 261.617, 77.404 259.390 C 77.711 258.589, 70.887 243.773, 62.238 226.466 L 46.514 194.998 76.501 164.999 L 106.488 135 136.165 164.665 L 165.842 194.329 150.421 225.158 C 141.939 242.114, 135 256.835, 135 257.871 C 135 260.210, 137.284 262.217, 139.123 261.493 C 139.880 261.195, 147.209 247.833, 155.409 231.799 L 170.317 202.648 184.560 231.120 C 192.393 246.779, 199.493 260.164, 200.337 260.865 C 202.191 262.404, 206 260.786, 206 258.459 C 206 257.650, 198.800 242.593, 190 225 L 174 193.012 174 161.077 C 174 133.379, 173.792 128.934, 172.429 127.571 C 170.543 125.685, 169.781 125.619, 168.200 127.200 C 167.323 128.077, 167 136.073, 167 156.928 L 167 185.455 137.212 155.728 C 120.828 139.377, 106.931 126, 106.329 126 C 105.728 126, 92.020 139.018, 75.868 154.928 L 46.500 183.857 46 155.891 C 45.582 132.499, 45.255 127.770, 44 126.978 C 41.946 125.681, 41.387 125.756, 39.571 127.571 M 103.557 160.223 C 102.378 161.905, 102 165.100, 102 173.368 L 102 184.290 96.560 179.145 C 90.754 173.654, 90.069 173.331, 88.200 175.200 C 85.951 177.449, 86.997 179.450, 94.225 186.726 L 101.450 194 94.225 201.274 C 86.997 208.550, 85.951 210.551, 88.200 212.800 C 90.069 214.669, 90.754 214.346, 96.560 208.855 L 102 203.710 102 214.632 C 102 222.900, 102.378 226.095, 103.557 227.777 C 105.402 230.412, 106.322 230.535, 108.429 228.429 C 109.685 227.172, 110 224.420, 110 214.710 L 110 202.563 115.779 208.281 C 118.957 211.427, 121.850 214, 122.208 214 C 123.241 214, 126 210.960, 126 209.822 C 126 209.253, 122.774 205.460, 118.831 201.393 L 111.662 194 118.831 186.607 C 122.774 182.540, 126 178.747, 126 178.178 C 126 177.040, 123.241 174, 122.208 174 C 121.850 174, 118.957 176.573, 115.779 179.719 L 110 185.437 110 173.290 C 110 163.580, 109.685 160.828, 108.429 159.571 C 106.322 157.465, 105.402 157.588, 103.557 160.223 " stroke="none" fill="black" fill-rule="evenodd"/>
</svg>