<svg xmlns="http://www.w3.org/2000/svg" width="84" height="324" viewBox="0 0 84 324" version="1.1">
	<path d="M 7.571 159.571 C 6.707 160.436, 6 161.529, 6 162 C 6 162.471, 6.707 163.564, 7.571 164.429 C 8.936 165.793, 13.463 166, 42 166 C 70.537 166, 75.064 165.793, 76.429 164.429 C 77.293 163.564, 78 162.471, 78 162 C 78 161.529, 77.293 160.436, 76.429 159.571 C 75.064 158.207, 70.537 158, 42 158 C 13.463 158, 8.936 158.207, 7.571 159.571 M 7.571 191.571 C 6.707 192.436, 6 193.529, 6 194 C 6 194.471, 6.707 195.564, 7.571 196.429 C 8.936 197.793, 13.463 198, 42 198 C 70.537 198, 75.064 197.793, 76.429 196.429 C 77.293 195.564, 78 194.471, 78 194 C 78 193.529, 77.293 192.436, 76.429 191.571 C 75.064 190.207, 70.537 190, 42 190 C 13.463 190, 8.936 190.207, 7.571 191.571 M 7.571 223.571 C 6.707 224.436, 6 225.529, 6 226 C 6 226.471, 6.707 227.564, 7.571 228.429 C 8.936 229.793, 13.463 230, 42 230 C 70.537 230, 75.064 229.793, 76.429 228.429 C 77.293 227.564, 78 226.471, 78 226 C 78 225.529, 77.293 224.436, 76.429 223.571 C 75.064 222.207, 70.537 222, 42 222 C 13.463 222, 8.936 222.207, 7.571 223.571 " stroke="none" fill="black" fill-rule="evenodd"/>
</svg>