<svg xmlns="http://www.w3.org/2000/svg" width="148" height="324" viewBox="0 0 148 324" version="1.1">
	<path d="M 63.102 127.162 C 37.850 130.772, 15.064 151.522, 8.374 177 C 6.113 185.610, 6.113 201.390, 8.374 210 C 12.447 225.511, 23.726 241.091, 37.307 249.965 L 43.483 254 26.313 254 C 12.037 254, 8.878 254.265, 7.571 255.571 C 5.596 257.546, 5.598 258.455, 7.579 260.436 C 8.990 261.847, 16.058 261.987, 74.220 261.757 C 134.934 261.517, 139.356 261.383, 140.386 259.750 C 141.191 258.474, 141.191 257.526, 140.387 256.250 C 139.413 254.704, 137.140 254.468, 120.895 254.226 L 102.506 253.953 108.003 250.837 C 111.026 249.124, 116.880 244.297, 121.011 240.111 C 133.915 227.034, 140 212.092, 140 193.480 C 140 181.437, 138.342 174.284, 133.041 163.450 C 123.603 144.165, 104.156 130.182, 82.398 127.037 C 74.447 125.887, 71.899 125.904, 63.102 127.162 M 58.645 135.584 C 38.761 140.397, 20.825 158.334, 15.585 178.644 C 13.554 186.517, 13.554 200.483, 15.585 208.356 C 20.889 228.914, 38.828 246.683, 59.103 251.463 C 62.621 252.292, 66.513 252.977, 67.750 252.985 L 70 253 70 193.500 L 70 134 67.250 134.083 C 65.737 134.129, 61.865 134.804, 58.645 135.584 M 78 193.614 L 78 253.227 82.538 252.547 C 105.542 249.097, 125.184 231.241, 131.003 208.489 C 138.032 181.004, 124.843 152.100, 99.820 140.153 C 92.461 136.639, 83.724 134, 79.451 134 C 78.199 134, 78 142.189, 78 193.614 " stroke="none" fill="black" fill-rule="evenodd"/>
</svg>