<svg xmlns="http://www.w3.org/2000/svg" width="148" height="324" viewBox="0 0 148 324" version="1.1">
	<path d="M 7.579 255.564 C 5.598 257.545, 5.596 258.454, 7.571 260.429 C 8.930 261.787, 13.205 262, 39.159 262 L 69.176 262 68.519 266.250 C 65.557 285.415, 52.884 302.700, 35.820 310.847 C 27.178 314.974, 19.669 317, 13.022 317 C 9.545 317, 5.973 318.948, 6.015 320.821 C 6.080 323.668, 8.054 324.247, 16.140 323.790 C 38.256 322.541, 58.881 308.232, 69.445 286.808 C 72.688 280.233, 74.389 275.229, 75.241 269.764 L 76.447 262.027 107.865 261.764 C 136.529 261.523, 139.380 261.347, 140.386 259.750 C 141.191 258.474, 141.191 257.526, 140.386 256.250 C 139.356 254.617, 134.934 254.483, 74.220 254.243 C 16.058 254.013, 8.990 254.153, 7.579 255.564 " stroke="none" fill="black" fill-rule="evenodd"/>
</svg>