<svg xmlns="http://www.w3.org/2000/svg" width="84" height="324" viewBox="0 0 84 324" version="1.1">
	<path d="M 7.571 191.571 C 6.707 192.436, 6 193.334, 6 193.568 C 6 195.149, 39.728 261.065, 40.735 261.452 C 41.431 261.719, 42.569 261.719, 43.265 261.452 C 44.272 261.065, 78 195.149, 78 193.568 C 78 193.334, 77.293 192.436, 76.429 191.571 C 75.064 190.207, 70.537 190, 42 190 C 13.463 190, 8.936 190.207, 7.571 191.571 M 28.743 223.500 C 35.750 237.525, 41.715 249, 42 249 C 42.285 249, 48.250 237.525, 55.257 223.500 L 67.995 198 42 198 L 16.005 198 28.743 223.500 " stroke="none" fill="black" fill-rule="evenodd"/>
</svg>