<svg xmlns="http://www.w3.org/2000/svg" width="212" height="324" viewBox="0 0 212 324" version="1.1">
	<path d="M 7.571 127.571 C 6.175 128.968, 6 136.372, 6 194 C 6 251.628, 6.175 259.032, 7.571 260.429 C 8.968 261.825, 16.406 262, 74.371 262 C 123.771 262, 139.891 261.709, 140.800 260.800 C 141.681 259.919, 142 251.422, 142 228.800 L 142 198 172.066 198 C 190.878 198, 202.855 197.613, 204.066 196.965 C 205.130 196.395, 206 195.061, 206 194 C 206 192.939, 205.130 191.605, 204.066 191.035 C 202.855 190.387, 190.878 190, 172.066 190 L 142 190 142 159.200 C 142 136.578, 141.681 128.081, 140.800 127.200 C 139.891 126.291, 123.771 126, 74.371 126 C 16.406 126, 8.968 126.175, 7.571 127.571 M 14 194 L 14 254 74 254 L 134 254 134 226 L 134 198 108.798 198 L 83.595 198 96.798 211.333 C 104.059 218.666, 110 225.159, 110 225.761 C 110 227.202, 107.168 230, 105.710 230 C 104.031 230, 70 195.693, 70 194 C 70 192.307, 104.031 158, 105.710 158 C 107.168 158, 110 160.798, 110 162.239 C 110 162.841, 104.059 169.334, 96.798 176.667 L 83.595 190 108.798 190 L 134 190 134 162 L 134 134 74 134 L 14 134 14 194 " stroke="none" fill="black" fill-rule="evenodd"/>
</svg>