<svg xmlns="http://www.w3.org/2000/svg" width="52" height="324" viewBox="0 0 52 324" version="1.1">
	<path d="M 7.571 127.571 C 6.707 128.436, 6 129.640, 6 130.249 C 6 130.857, 12.844 138.250, 21.208 146.677 L 36.416 162 21.208 177.323 C 12.844 185.750, 6 193.255, 6 194 C 6 194.745, 12.844 202.250, 21.208 210.677 L 36.416 226 21.208 241.323 C 12.844 249.750, 6 257.143, 6 257.751 C 6 259.208, 8.826 261.996, 10.321 262.014 C 11.477 262.028, 46 227.235, 46 226.057 C 46 225.726, 39.262 218.491, 31.026 209.978 C 22.790 201.465, 16.052 194.275, 16.052 194 C 16.052 193.725, 22.790 186.535, 31.026 178.022 C 39.262 169.509, 46 162.274, 46 161.943 C 46 160.765, 11.477 125.972, 10.321 125.986 C 9.673 125.994, 8.436 126.707, 7.571 127.571 " stroke="none" fill="black" fill-rule="evenodd"/>
</svg>