<svg xmlns="http://www.w3.org/2000/svg" width="403" height="324" viewBox="0 0 403 324" version="1.1">
	<path d="M 39.230 159.285 L 6 192.569 6 225.713 C 6 254.511, 6.206 259.063, 7.571 260.429 C 8.989 261.846, 27.997 262, 201.871 262 C 350.438 262, 394.875 261.725, 395.800 260.800 C 396.686 259.914, 397 250.810, 397 226.044 L 397 192.489 363.744 159.244 C 345.454 140.960, 330.039 126, 329.489 126 C 328.939 126, 313.529 140.965, 295.244 159.256 L 262 192.511 262 223.256 L 262 254 202 254 L 142 254 142 223.267 L 142 192.533 108.733 159.267 C 90.437 140.970, 74.790 126, 73.963 126 C 73.136 126, 57.506 140.978, 39.230 159.285 M 299.236 165.280 L 269 195.576 269 224.788 L 269 254 329.500 254 L 390 254 390 224.744 L 390 195.488 359.736 165.236 L 329.472 134.984 299.236 165.280 M 43.744 165.756 L 14 195.512 14 224.756 L 14 254 74 254 L 134 254 134 224.744 L 134 195.487 104.244 165.744 C 87.878 149.385, 74.263 136, 73.988 136 C 73.713 136, 60.103 149.390, 43.744 165.756 " stroke="none" fill="black" fill-rule="evenodd"/>
</svg>