<svg xmlns="http://www.w3.org/2000/svg" width="148" height="324" viewBox="0 0 148 324" version="1.1">
	<path d="M 37.242 160.695 C 32.843 166.948, 31.633 170.467, 31.633 177 C 31.633 181.197, 32.239 184.652, 33.342 186.750 L 35.051 190 22.097 190 C 11.654 190, 8.838 190.305, 7.571 191.571 C 5.598 193.545, 5.598 194.455, 7.571 196.429 C 8.844 197.701, 11.697 198, 22.575 198 L 36.006 198 21.020 227.961 C 12.777 244.439, 6.285 258.580, 6.594 259.384 C 7.265 261.133, 9.512 262.125, 11.274 261.448 C 11.975 261.180, 19.056 247.919, 27.010 231.980 C 34.964 216.041, 41.717 203, 42.016 203 C 42.315 203, 49.071 216.093, 57.030 232.095 C 64.988 248.098, 71.842 261.402, 72.259 261.660 C 74.831 263.250, 77.526 258.979, 91.125 231.762 L 105.744 202.502 120.310 231.620 C 128.485 247.962, 135.617 261.023, 136.565 261.386 C 138.679 262.198, 141 260.358, 141 257.871 C 141 256.835, 134.480 242.952, 126.511 227.021 L 112.021 198.056 125.653 197.778 C 137.361 197.539, 139.441 197.253, 140.388 195.750 C 141.191 194.475, 141.190 193.525, 140.387 192.250 C 139.425 190.723, 137.254 190.465, 123.313 190.226 L 107.341 189.952 105.171 186.090 C 101.821 180.130, 102.178 172.687, 106.112 166.485 C 109.460 161.205, 109.194 158.783, 105.200 158.187 C 102.261 157.749, 97.433 164.706, 95.890 171.602 C 94.717 176.841, 95.265 182.380, 97.537 188.250 C 98.158 189.854, 97.261 190, 86.791 190 L 75.368 190 73.184 186.114 C 69.820 180.129, 70.172 172.698, 74.112 166.485 C 77.354 161.373, 77.198 158.876, 73.595 158.167 C 71.194 157.695, 69.233 159.626, 66.211 165.437 C 62.960 171.688, 62.541 181.586, 65.309 186.750 L 67.051 190 55.210 190 L 43.368 190 41.184 186.114 C 37.820 180.129, 38.172 172.698, 42.112 166.485 C 44.388 162.896, 44.965 161.165, 44.260 160.039 C 42.580 157.358, 39.378 157.657, 37.242 160.695 M 60.743 223.500 C 67.750 237.525, 73.715 249, 74 249 C 74.664 249, 99 200.322, 99 198.995 C 99 198.361, 89.744 198, 73.503 198 L 48.005 198 60.743 223.500 " stroke="none" fill="black" fill-rule="evenodd"/>
</svg>