<svg xmlns="http://www.w3.org/2000/svg" width="148" height="324" viewBox="0 0 148 324" version="1.1">
	<path d="M 63.102 127.104 C 37.616 130.977, 15.059 151.543, 8.374 177 C 6.114 185.608, 6.133 201.372, 8.414 210 C 12.482 225.381, 23.539 240.853, 36.715 249.599 C 43.370 254.016, 54.529 258.531, 61.250 259.525 C 63.862 259.911, 65.993 260.513, 65.985 260.864 C 65.977 261.214, 65.259 263.525, 64.389 266 C 62.390 271.690, 63.072 278.236, 66.336 284.672 C 70.328 292.546, 74.672 295.063, 77.237 290.990 C 77.931 289.886, 77.220 288.042, 74.594 284.139 C 71.521 279.573, 71.001 277.980, 71.004 273.150 C 71.009 265.475, 73.540 261.321, 78.702 260.516 C 97.611 257.568, 108.663 252.376, 120.026 241.103 C 133.614 227.623, 140 212.403, 140 193.500 C 140 174.625, 133.603 159.354, 120.095 145.981 C 104.892 130.930, 83.831 123.955, 63.102 127.104 M 57.500 135.870 C 37.436 141.645, 20.733 158.691, 15.585 178.644 C 13.554 186.517, 13.554 200.483, 15.585 208.356 C 20.838 228.716, 38.284 246.162, 58.644 251.415 C 65.760 253.251, 78.565 253.481, 86.201 251.910 C 89.115 251.310, 95.244 249.032, 99.820 246.847 C 115.079 239.562, 126.717 225.246, 131.003 208.489 C 138.032 181.004, 124.843 152.100, 99.820 140.153 C 95.244 137.968, 89.115 135.690, 86.201 135.090 C 78.410 133.487, 64.459 133.866, 57.500 135.870 M 39.571 159.571 C 38.707 160.436, 38 161.529, 38 162 C 38 163.111, 40.889 166, 42 166 C 43.111 166, 46 163.111, 46 162 C 46 160.889, 43.111 158, 42 158 C 41.529 158, 40.436 158.707, 39.571 159.571 M 71.571 159.571 C 70.212 160.931, 70 165.242, 70 191.571 L 70 222 55.571 222 C 43.788 222, 40.855 222.288, 39.571 223.571 C 37.595 225.548, 37.598 226.455, 39.585 228.442 C 40.978 229.835, 45.159 229.995, 74.226 229.763 C 104.452 229.523, 107.377 229.350, 108.386 227.750 C 109.190 226.475, 109.191 225.525, 108.387 224.250 C 107.433 222.736, 105.314 222.463, 92.643 222.223 L 78 221.947 78 192.196 C 78 166.887, 77.768 162.113, 76.443 160.223 C 74.598 157.588, 73.678 157.465, 71.571 159.571 M 103.616 159.527 C 102.727 160.416, 102 161.529, 102 162 C 102 163.389, 105.140 166.120, 106.295 165.735 C 108.395 165.035, 109.549 162.094, 108.423 160.310 C 106.905 157.902, 105.474 157.669, 103.616 159.527 M 37.242 256.695 C 32.843 262.948, 31.633 266.467, 31.633 273 C 31.633 279.781, 32.968 283.471, 37.713 289.807 C 40.338 293.313, 43.478 293.806, 45.242 290.990 C 45.931 289.889, 45.214 288.032, 42.594 284.139 C 39.513 279.561, 39 277.985, 39 273.095 C 39 268.430, 39.567 266.498, 42.112 262.485 C 44.388 258.896, 44.965 257.165, 44.260 256.039 C 42.580 253.358, 39.378 253.657, 37.242 256.695 M 100.107 258.011 C 95.884 263.841, 94.332 271.438, 95.918 278.523 C 97.443 285.340, 102.578 292.500, 105.942 292.500 C 110.294 292.500, 110.494 289.936, 106.594 284.139 C 103.513 279.561, 103 277.985, 103 273.095 C 103 268.430, 103.567 266.498, 106.112 262.485 C 109.460 257.205, 109.194 254.783, 105.200 254.187 C 103.702 253.964, 102.248 255.055, 100.107 258.011 " stroke="none" fill="black" fill-rule="evenodd"/>
</svg>