<svg xmlns="http://www.w3.org/2000/svg" width="212" height="324" viewBox="0 0 212 324" version="1.1">
	<path d="M 33.608 132.122 C 22.087 142.679, 14.215 155.547, 9.393 171.703 C 5.857 183.551, 5.642 201.391, 8.887 213.500 C 13.274 229.864, 21.580 243.692, 33.980 255.274 L 41.181 262 71.591 262 L 102 262 102 287.202 L 102 312.405 88.667 299.202 C 81.334 291.941, 74.841 286, 74.239 286 C 72.815 286, 70 288.824, 70 290.253 C 70 290.863, 77.295 298.706, 86.210 307.681 C 101.143 322.714, 102.703 324, 106 324 C 109.297 324, 110.857 322.714, 125.790 307.681 C 134.705 298.706, 142 290.863, 142 290.253 C 142 288.848, 139.195 286, 137.811 286 C 137.236 286, 135.075 287.688, 133.009 289.750 C 130.943 291.813, 124.921 297.745, 119.626 302.934 L 110 312.368 110 287.184 L 110 262 140.467 262 L 170.934 262 178.700 253.920 C 188.130 244.107, 192.093 238.673, 196.507 229.500 C 208.545 204.484, 207.373 175.413, 193.363 151.500 C 190.480 146.579, 185.361 140.132, 180.063 134.750 L 171.450 126 105.869 126 L 40.289 126 33.608 132.122 M 35.434 140.604 C 27.566 148.589, 20.846 159.714, 17.376 170.500 C 14.229 180.282, 13.144 196.262, 14.930 206.521 C 17.578 221.725, 25.430 236.527, 36.801 247.750 L 43.134 254 72.567 254 L 102 254 102 223.571 C 102 197.242, 102.212 192.931, 103.571 191.571 C 105.545 189.598, 106.455 189.598, 108.429 191.571 C 109.788 192.931, 110 197.242, 110 223.571 L 110 254 138.892 254 L 167.784 254 172.935 249.368 C 182.791 240.507, 191.604 225.715, 195.112 212.144 C 197.803 201.735, 197.800 185.316, 195.106 174.856 C 191.715 161.697, 183.044 146.905, 173.640 138.236 L 169.045 134 105.493 134 L 41.941 134 35.434 140.604 " stroke="none" fill="black" fill-rule="evenodd"/>
</svg>