<svg xmlns="http://www.w3.org/2000/svg" width="148" height="324" viewBox="0 0 148 324" version="1.1">
	<path d="M 65.384 127.357 C 54.714 130.060, 45.962 137.484, 41.191 147.880 C 37.513 155.892, 37.524 167.131, 41.216 175.175 C 46.017 185.635, 56.144 194.040, 65.807 195.585 L 70 196.256 70 225.128 L 70 254 39.571 254 C 13.242 254, 8.931 254.212, 7.571 255.571 C 5.598 257.545, 5.598 258.455, 7.571 260.429 C 8.900 261.758, 12.389 262, 30.188 262 L 51.233 262 47.502 266.130 C 41.343 272.947, 38.611 280.128, 38.611 289.500 C 38.611 296, 39.099 298.564, 41.216 303.175 C 44.534 310.404, 50.476 316.850, 57.212 320.528 C 61.676 322.966, 63.902 323.476, 71.500 323.802 C 83.328 324.311, 89.878 321.995, 97.353 314.661 C 105.450 306.714, 107.500 301.633, 107.500 289.500 C 107.500 278.249, 105.971 273.831, 99.434 266.194 L 95.878 262.039 117.581 261.770 C 136.986 261.529, 139.400 261.315, 140.387 259.750 C 141.191 258.474, 141.191 257.526, 140.386 256.250 C 139.381 254.655, 136.566 254.477, 108.641 254.236 L 78 253.971 78.001 225.236 L 78.003 196.500 83.884 194.772 C 94.243 191.728, 103.931 181.943, 107.023 171.402 C 108.922 164.931, 107.923 152.433, 105.034 146.500 C 97.912 131.876, 80.579 123.508, 65.384 127.357 M 63.627 135.468 C 58.247 137.386, 53.039 141.829, 49.500 147.519 C 46.741 151.955, 46.500 153.073, 46.500 161.422 C 46.500 169.524, 46.796 171.003, 49.249 175.176 C 54.556 184.205, 63.289 189.069, 73.928 188.924 C 84.142 188.784, 92.647 183.739, 97.500 174.939 C 100.130 170.171, 100.500 168.513, 100.500 161.500 C 100.500 154.487, 100.130 152.829, 97.500 148.061 C 94.429 142.492, 88.651 137.526, 82.684 135.326 C 78.327 133.720, 68.323 133.794, 63.627 135.468 M 70.147 266.656 C 61.896 279.387, 61.951 299.204, 70.271 311.449 C 72.560 314.816, 72.772 314.910, 74.297 313.225 C 75.182 312.246, 77.165 308.758, 78.702 305.473 C 81.209 300.117, 81.498 298.409, 81.499 288.948 C 81.500 278.743, 81.375 278.143, 77.695 270.698 C 75.603 266.464, 73.578 263.006, 73.195 263.012 C 72.813 263.019, 71.441 264.659, 70.147 266.656 M 84.495 267.808 C 88.199 275.189, 89.270 281.094, 88.835 291.742 C 88.491 300.174, 87.998 302.437, 85.201 308.399 C 83.422 312.194, 82.106 315.440, 82.278 315.612 C 82.753 316.087, 88.106 313.157, 91.519 310.553 C 93.187 309.281, 95.890 305.824, 97.526 302.870 C 100.129 298.169, 100.500 296.503, 100.500 289.500 C 100.500 282.487, 100.130 280.829, 97.500 276.061 C 94.704 270.991, 88.737 265.578, 83.995 263.808 C 82.310 263.180, 82.356 263.544, 84.495 267.808 M 56.849 267.285 C 54.481 269.091, 51.183 272.768, 49.521 275.456 C 46.735 279.963, 46.500 281.056, 46.500 289.500 C 46.500 297.944, 46.735 299.037, 49.521 303.544 C 52.500 308.361, 59.967 315, 62.407 315 C 63.231 315, 62.710 313.039, 60.878 309.250 C 55.051 297.199, 54.876 282.120, 60.418 269.590 C 61.777 266.516, 62.500 264, 62.023 264 C 61.546 264, 59.218 265.478, 56.849 267.285 " stroke="none" fill="black" fill-rule="evenodd"/>
</svg>