<svg xmlns="http://www.w3.org/2000/svg" width="180" height="324" viewBox="0 0 180 324" version="1.1">
	<path d="M 151.282 127.282 C 141.777 136.787, 134 145.210, 134 146 C 134 147.693, 168.031 182, 169.710 182 C 171.173 182, 174 179.200, 174 177.751 C 174 177.143, 167.156 169.750, 158.792 161.323 L 143.584 146 158.792 130.677 C 167.156 122.250, 174 114.857, 174 114.249 C 174 112.800, 171.173 110, 169.710 110 C 169.079 110, 160.787 117.777, 151.282 127.282 M 103.282 159.282 C 93.777 168.787, 86 177.079, 86 177.710 C 86 179.139, 88.786 182, 90.178 182 C 90.747 182, 94.557 178.757, 98.645 174.794 L 106.077 167.588 117.283 178.794 L 128.489 190 68.816 190 C 15.901 190, 8.965 190.178, 7.571 191.571 C 4.148 194.995, 7.242 198, 14.190 198 L 19.237 198 16.059 201.250 C 14.311 203.037, 11.467 207.370, 9.740 210.877 C 6.989 216.464, 6.600 218.277, 6.600 225.500 C 6.600 232.734, 6.988 234.533, 9.762 240.168 C 15.173 251.159, 23.676 257.689, 35.604 260.013 C 49.181 262.659, 65.201 255.327, 71.533 243.568 L 73.360 240.176 76.064 244.440 C 83.573 256.280, 97.976 262.628, 111.396 260.013 C 126.531 257.064, 137.064 246.531, 140.013 231.396 C 142.022 221.088, 138.249 208.726, 130.756 201.062 L 127.763 198 133.310 198 C 138.753 198, 142 196.412, 142 193.751 C 142 193.143, 135.165 185.759, 126.812 177.343 L 111.623 162.040 118.812 154.626 C 122.765 150.549, 126 146.747, 126 146.178 C 126 144.786, 123.139 142, 121.710 142 C 121.079 142, 112.787 149.777, 103.282 159.282 M 31.605 199.568 C 24.049 202.337, 24.073 202.527, 33.170 211.671 L 41.457 220.001 49.692 211.809 C 58.838 202.711, 58.906 202.178, 51.260 199.573 C 45.620 197.651, 36.842 197.649, 31.605 199.568 M 65.926 200.145 C 67.192 201.325, 69.446 204.211, 70.934 206.557 L 73.640 210.824 75.443 207.476 C 76.435 205.635, 78.594 202.749, 80.242 201.064 L 83.237 198 73.430 198 L 63.623 198 65.926 200.145 M 95.605 199.568 C 88.049 202.337, 88.073 202.527, 97.170 211.671 L 105.457 220.001 113.692 211.809 C 122.838 202.711, 122.906 202.178, 115.260 199.573 C 109.620 197.651, 100.842 197.649, 95.605 199.568 M 18.184 210.278 C 14.139 215.152, 12.867 227.319, 15.573 235.260 C 18.178 242.906, 18.711 242.838, 27.809 233.692 L 36.001 225.457 27.671 217.170 C 20.854 210.389, 19.131 209.137, 18.184 210.278 M 55.191 217.308 L 46.999 225.543 55.329 233.830 C 64.530 242.983, 64.678 242.998, 67.487 235.038 C 69.439 229.503, 69.415 221.574, 67.427 215.740 C 64.822 208.094, 64.289 208.162, 55.191 217.308 M 82.184 210.278 C 78.139 215.152, 76.867 227.319, 79.573 235.260 C 82.178 242.906, 82.711 242.838, 91.809 233.692 L 100.001 225.457 91.671 217.170 C 84.854 210.389, 83.131 209.137, 82.184 210.278 M 119.191 217.308 L 110.999 225.543 119.329 233.830 C 128.530 242.983, 128.678 242.998, 131.487 235.038 C 133.439 229.503, 133.415 221.574, 131.427 215.740 C 128.822 208.094, 128.289 208.162, 119.191 217.308 M 33.170 239.329 C 24.017 248.530, 24.002 248.678, 31.962 251.487 C 37.497 253.439, 45.426 253.415, 51.260 251.427 C 58.906 248.822, 58.838 248.289, 49.692 239.191 L 41.457 230.999 33.170 239.329 M 97.170 239.329 C 88.017 248.530, 88.002 248.678, 95.962 251.487 C 101.497 253.439, 109.426 253.415, 115.260 251.427 C 122.906 248.822, 122.838 248.289, 113.692 239.191 L 105.457 230.999 97.170 239.329 " stroke="none" fill="black" fill-rule="evenodd"/>
</svg>