<svg xmlns="http://www.w3.org/2000/svg" width="148" height="324" viewBox="0 0 148 324" version="1.1">
	<path d="M 20.648 126.983 C 13.384 129.272, 7.912 135.505, 6.503 143.096 C 5.855 146.586, 7.585 150, 10 150 C 11.861 150, 14 146.700, 14 143.829 C 14 141.718, 15.030 139.770, 17.400 137.400 C 20.302 134.498, 21.488 134, 25.500 134 C 29.512 134, 30.698 134.498, 33.600 137.400 C 39.296 143.096, 38.903 144.183, 21.941 169.589 C 13.658 181.994, 6.657 192.729, 6.383 193.443 C 6.109 194.158, 6.618 195.475, 7.514 196.371 C 8.890 197.747, 11.750 198, 25.916 198 C 41.420 198, 42.827 197.849, 44.500 196 C 46.247 194.070, 46.247 193.930, 44.500 192 C 42.869 190.198, 41.420 190, 29.843 190 L 16.995 190 31.499 168.239 L 46.002 146.477 44.025 141.068 C 40.046 130.184, 29.898 124.069, 20.648 126.983 M 104.369 126.765 C 102.390 128.050, 38.009 257.860, 38.594 259.385 C 39.406 261.501, 42.021 262.227, 43.729 260.810 C 45.698 259.175, 109 132.510, 109 130.203 C 109 128.492, 107.232 125.982, 106.050 126.015 C 105.748 126.024, 104.991 126.361, 104.369 126.765 M 116.764 190.974 C 111.141 192.712, 107.139 196.079, 104.571 201.234 C 101.615 207.166, 101.344 210.201, 103.571 212.429 C 106.448 215.305, 108.154 213.933, 109.921 207.323 C 112.813 196.505, 126.535 194.399, 131.506 204.011 C 132.328 205.600, 133 208.070, 133 209.500 C 133 214.947, 127.983 221, 123.469 221 C 117.507 221, 116.047 228.332, 121.765 229.554 C 126.874 230.646, 129.001 231.953, 130.999 235.230 C 133.375 239.128, 133.544 243.047, 131.506 246.989 C 126.639 256.400, 112.830 254.508, 110.012 244.043 C 108.819 239.615, 106.930 237.706, 104.618 238.593 C 101.661 239.728, 101.605 243.673, 104.463 249.513 C 106.511 253.700, 108.247 255.647, 111.779 257.716 C 123.745 264.729, 138.653 257.225, 139.781 243.622 C 140.337 236.926, 138.836 232.175, 135.005 228.505 L 132.056 225.680 135.472 221.900 C 143.261 213.278, 140.721 198.746, 130.394 192.847 C 126.735 190.757, 120.317 189.875, 116.764 190.974 " stroke="none" fill="black" fill-rule="evenodd"/>
</svg>