<svg xmlns="http://www.w3.org/2000/svg" width="148" height="324" viewBox="0 0 148 324" version="1.1">
	<path d="M 19.637 127.465 C 12.890 129.870, 7.867 135.861, 6.503 143.131 C 5.855 146.586, 7.593 150, 10 150 C 11.861 150, 14 146.700, 14 143.829 C 14 141.718, 15.030 139.770, 17.400 137.400 C 20.302 134.498, 21.488 134, 25.500 134 C 29.512 134, 30.698 134.498, 33.600 137.400 C 36.502 140.302, 37 141.488, 37 145.500 C 37 149.512, 36.502 150.698, 33.600 153.600 C 31.526 155.674, 29.214 157, 27.671 157 C 24.930 157, 22 159.325, 22 161.500 C 22 163.675, 24.930 166, 27.671 166 C 29.214 166, 31.526 167.326, 33.600 169.400 C 36.502 172.302, 37 173.488, 37 177.500 C 37 181.512, 36.502 182.698, 33.600 185.600 C 30.698 188.502, 29.512 189, 25.500 189 C 21.488 189, 20.302 188.502, 17.400 185.600 C 15.326 183.526, 14 181.214, 14 179.671 C 14 177.214, 11.733 174, 10 174 C 9.529 174, 8.412 174.731, 7.519 175.624 C 4.563 178.580, 7.485 186.584, 13.422 191.797 C 16.476 194.479, 22.315 196.989, 25.500 196.989 C 28.685 196.989, 34.524 194.479, 37.578 191.797 C 42.366 187.594, 44.286 183.501, 44.286 177.500 C 44.286 171.905, 42.517 167.740, 38.581 164.062 L 35.972 161.625 38.866 158.562 C 40.458 156.878, 42.328 154.397, 43.023 153.049 C 44.781 149.637, 44.601 141.062, 42.694 137.375 C 40.458 133.052, 34.736 128.298, 30.277 127.060 C 25.498 125.733, 24.376 125.776, 19.637 127.465 M 104.369 126.765 C 102.390 128.050, 38.009 257.860, 38.594 259.385 C 39.406 261.501, 42.021 262.227, 43.729 260.810 C 45.698 259.175, 109 132.510, 109 130.203 C 109 128.492, 107.232 125.982, 106.050 126.015 C 105.748 126.024, 104.991 126.361, 104.369 126.765 M 103.571 191.571 C 102.264 192.878, 102 196.042, 102 210.371 C 102 222.438, 102.360 227.960, 103.200 228.800 C 104.025 229.625, 109.022 230, 119.200 230 L 134 230 134 244.965 C 134 259.181, 134.106 259.986, 136.117 261.062 C 140.830 263.585, 141.043 262.068, 141.043 226 C 141.043 189.932, 140.830 188.415, 136.117 190.938 C 134.106 192.014, 134 192.819, 134 207.035 L 134 222 121.500 222 L 109 222 109 207.200 C 109 197.022, 108.625 192.025, 107.800 191.200 C 106.219 189.619, 105.457 189.685, 103.571 191.571 " stroke="none" fill="black" fill-rule="evenodd"/>
</svg>