<svg xmlns="http://www.w3.org/2000/svg" width="180" height="324" viewBox="0 0 180 324" version="1.1">
	<path d="M 7.571 159.571 C 6.207 160.936, 6 165.463, 6 194 C 6 222.537, 6.207 227.064, 7.571 228.429 C 9.545 230.402, 10.455 230.402, 12.429 228.429 C 13.793 227.064, 14 222.537, 14 194 C 14 165.463, 13.793 160.936, 12.429 159.571 C 11.564 158.707, 10.471 158, 10 158 C 9.529 158, 8.436 158.707, 7.571 159.571 M 135.571 159.571 C 134.707 160.436, 134 161.640, 134 162.249 C 134 162.857, 140.844 170.250, 149.208 178.677 L 164.416 194 149.208 209.323 C 140.844 217.750, 134 225.143, 134 225.751 C 134 227.185, 136.820 230, 138.257 230 C 140.006 230, 174 195.761, 174 194 C 174 192.239, 140.006 158, 138.257 158 C 137.644 158, 136.436 158.707, 135.571 159.571 " stroke="none" fill="black" fill-rule="evenodd"/>
</svg>