<svg xmlns="http://www.w3.org/2000/svg" width="403" height="324" viewBox="0 0 403 324" version="1.1">
	<path d="M 135.571 127.571 C 134.176 128.966, 134 136.152, 134 191.571 L 134 254 119.571 254 C 107.788 254, 104.855 254.288, 103.571 255.571 C 101.595 257.548, 101.598 258.455, 103.585 260.442 C 104.978 261.835, 109.159 261.995, 138.226 261.763 C 168.452 261.523, 171.377 261.350, 172.386 259.750 C 173.190 258.475, 173.191 257.525, 172.387 256.250 C 171.430 254.730, 169.291 254.464, 156.142 254.224 L 141 253.948 141 191.174 C 141 128.929, 140.859 126, 137.871 126 C 137.471 126, 136.436 126.707, 135.571 127.571 M 263.750 127.080 C 262.207 127.979, 262 129.866, 262 143.050 L 262 158 247.200 158 C 237.022 158, 232.025 158.375, 231.200 159.200 C 230.323 160.077, 230 168.075, 230 188.937 L 230 217.473 216.131 203.631 C 203.495 191.019, 202.073 189.890, 200.131 190.930 C 198.959 191.557, 198 192.845, 198 193.791 C 198 194.737, 213.075 210.581, 231.500 229 C 260.353 257.844, 265.243 262.336, 266.750 261.387 C 268.270 260.430, 268.536 258.290, 268.776 245.142 L 269.052 230 283.826 230 C 293.984 230, 298.975 229.625, 299.800 228.800 C 301.519 227.081, 301.519 160.919, 299.800 159.200 C 298.975 158.375, 293.978 158, 283.800 158 L 269 158 269 143.200 C 269 126.584, 268.299 124.431, 263.750 127.080 M 391.724 127.134 C 390.139 128.022, 390 131.187, 390 166.512 L 390 204.925 385.500 200.552 C 368.108 183.649, 340.118 188.770, 329.281 210.836 C 326.865 215.756, 326.500 217.681, 326.500 225.500 C 326.500 233.319, 326.865 235.244, 329.281 240.164 C 343.534 269.187, 384.321 266.310, 394.755 235.545 C 396.265 231.094, 396.502 224.469, 396.768 179.304 C 397.053 130.746, 396.976 128.057, 395.259 127.138 C 394.095 126.515, 392.833 126.514, 391.724 127.134 M 237 194 L 237 222 249.500 222 L 262 222 262 194 L 262 166 249.500 166 L 237 166 237 194 M 269 194 L 269 222 281.500 222 L 294 222 294 194 L 294 166 281.500 166 L 269 166 269 194 M 7.571 191.571 C 6.707 192.436, 6 193.640, 6 194.249 C 6 194.857, 12.844 202.250, 21.208 210.677 L 36.416 226 21.208 241.323 C 12.844 249.750, 6 257.143, 6 257.751 C 6 259.181, 8.819 262, 10.249 262 C 10.857 262, 18.250 255.156, 26.677 246.792 L 42 231.584 57.323 246.792 C 65.750 255.156, 73.085 262, 73.623 262 C 75.262 262, 77 259.716, 77 257.562 C 77 256.272, 71.595 250.111, 62.263 240.762 L 47.525 226 62.263 211.238 C 71.595 201.889, 77 195.728, 77 194.438 C 77 192.284, 75.262 190, 73.623 190 C 73.085 190, 65.750 196.844, 57.323 205.208 L 42 220.416 26.677 205.208 C 18.250 196.844, 10.857 190, 10.249 190 C 9.640 190, 8.436 190.707, 7.571 191.571 M 349.500 200.353 C 343.905 202.964, 337.611 209.362, 335.229 214.860 C 334.289 217.028, 333.652 221.331, 333.652 225.500 C 333.652 233.759, 335.289 238.097, 340.653 244.046 C 351.739 256.344, 370.708 256.091, 381.793 243.498 C 386.112 238.591, 389 231.380, 389 225.500 C 389 215.684, 381.789 204.673, 372.538 200.366 C 365.625 197.146, 356.382 197.141, 349.500 200.353 M 252 239.500 C 257.203 244.725, 261.582 249, 261.730 249 C 261.879 249, 262 244.725, 262 239.500 L 262 230 252.270 230 L 242.540 230 252 239.500 " stroke="none" fill="black" fill-rule="evenodd"/>
</svg>