<svg xmlns="http://www.w3.org/2000/svg" width="372" height="324" viewBox="0 0 372 324" version="1.1">
	<path d="M 327.282 159.282 C 317.777 168.787, 310 177.079, 310 177.710 C 310 179.139, 312.786 182, 314.178 182 C 314.747 182, 318.557 178.757, 322.645 174.794 L 330.077 167.588 341.283 178.794 L 352.489 190 260.816 190 C 178.810 190, 168.977 190.166, 167.571 191.571 C 164.148 194.995, 167.242 198, 174.190 198 L 179.237 198 176.059 201.250 C 174.311 203.037, 171.467 207.370, 169.740 210.877 C 166.989 216.464, 166.600 218.277, 166.600 225.500 C 166.600 232.734, 166.988 234.533, 169.762 240.168 C 171.501 243.700, 174.591 248.257, 176.628 250.295 L 180.333 254 161.167 254 L 142 254 142 223.571 C 142 197.242, 141.788 192.931, 140.429 191.571 C 139.032 190.175, 131.628 190, 74 190 C 16.372 190, 8.968 190.175, 7.571 191.571 C 6.207 192.936, 6 197.463, 6 226 C 6 254.537, 6.207 259.064, 7.571 260.429 C 9.545 262.402, 10.455 262.402, 12.429 260.429 C 13.788 259.069, 14 254.758, 14 228.429 L 14 198 74 198 L 134 198 134 228.429 C 134 254.758, 134.212 259.069, 135.571 260.429 C 136.981 261.839, 148.736 262, 250 262 C 351.264 262, 363.019 261.839, 364.429 260.429 C 368.078 256.779, 364.764 254, 356.762 254 L 350.667 254 354.184 250.483 C 362.194 242.473, 366.151 229.942, 364 219.396 C 362.603 212.541, 359.007 205.410, 354.756 201.062 L 351.763 198 357.310 198 C 362.753 198, 366 196.412, 366 193.751 C 366 193.143, 359.165 185.759, 350.812 177.343 L 335.623 162.040 342.812 154.626 C 346.765 150.549, 350 146.747, 350 146.178 C 350 144.786, 347.139 142, 345.710 142 C 345.079 142, 336.787 149.777, 327.282 159.282 M 191.605 199.568 C 184.049 202.337, 184.073 202.527, 193.170 211.671 L 201.457 220.001 209.692 211.809 C 218.838 202.711, 218.906 202.178, 211.260 199.573 C 205.620 197.651, 196.842 197.649, 191.605 199.568 M 225.926 200.145 C 227.192 201.325, 229.446 204.211, 230.934 206.557 L 233.640 210.824 235.443 207.476 C 236.435 205.635, 238.594 202.749, 240.242 201.064 L 243.237 198 233.430 198 L 223.623 198 225.926 200.145 M 255.605 199.568 C 248.049 202.337, 248.073 202.527, 257.170 211.671 L 265.457 220.001 273.692 211.809 C 282.838 202.711, 282.906 202.178, 275.260 199.573 C 269.620 197.651, 260.842 197.649, 255.605 199.568 M 289.926 200.145 C 291.192 201.325, 293.446 204.211, 294.934 206.557 L 297.640 210.824 299.443 207.476 C 300.435 205.635, 302.594 202.749, 304.242 201.064 L 307.237 198 297.430 198 L 287.623 198 289.926 200.145 M 319.605 199.568 C 312.049 202.337, 312.073 202.527, 321.170 211.671 L 329.457 220.001 337.692 211.809 C 346.838 202.711, 346.906 202.178, 339.260 199.573 C 333.620 197.651, 324.842 197.649, 319.605 199.568 M 178.184 210.278 C 174.139 215.152, 172.867 227.319, 175.573 235.260 C 178.178 242.906, 178.711 242.838, 187.809 233.692 L 196.001 225.457 187.671 217.170 C 180.854 210.389, 179.131 209.137, 178.184 210.278 M 215.191 217.308 L 206.999 225.543 215.339 233.840 L 223.680 242.137 225.174 239.819 C 229.239 233.513, 230.153 223.740, 227.427 215.740 C 224.822 208.094, 224.289 208.162, 215.191 217.308 M 242.184 210.278 C 238.139 215.152, 236.867 227.319, 239.573 235.260 C 242.178 242.906, 242.711 242.838, 251.809 233.692 L 260.001 225.457 251.671 217.170 C 244.854 210.389, 243.131 209.137, 242.184 210.278 M 279.191 217.308 L 270.999 225.543 279.339 233.840 L 287.680 242.137 289.174 239.819 C 293.239 233.513, 294.153 223.740, 291.427 215.740 C 288.822 208.094, 288.289 208.162, 279.191 217.308 M 306.184 210.278 C 302.139 215.152, 300.867 227.319, 303.573 235.260 C 306.178 242.906, 306.711 242.838, 315.809 233.692 L 324.001 225.457 315.671 217.170 C 308.854 210.389, 307.131 209.137, 306.184 210.278 M 343.191 217.308 L 334.999 225.543 343.339 233.840 L 351.680 242.137 353.174 239.819 C 357.239 233.513, 358.153 223.740, 355.427 215.740 C 352.822 208.094, 352.289 208.162, 343.191 217.308 M 193.160 239.339 L 184.863 247.680 187.181 249.174 C 193.487 253.239, 203.260 254.153, 211.260 251.427 C 218.906 248.822, 218.838 248.289, 209.692 239.191 L 201.457 230.999 193.160 239.339 M 257.160 239.339 L 248.863 247.680 251.181 249.174 C 257.487 253.239, 267.260 254.153, 275.260 251.427 C 282.906 248.822, 282.838 248.289, 273.692 239.191 L 265.457 230.999 257.160 239.339 M 321.160 239.339 L 312.863 247.680 315.181 249.174 C 321.487 253.239, 331.260 254.153, 339.260 251.427 C 346.906 248.822, 346.838 248.289, 337.692 239.191 L 329.457 230.999 321.160 239.339 M 231.533 243.568 C 230.529 245.434, 228.123 248.544, 226.187 250.480 L 222.667 254 233.573 254 L 244.480 254 241.624 251.352 C 240.053 249.896, 237.552 246.786, 236.064 244.440 L 233.360 240.176 231.533 243.568 M 295.533 243.568 C 294.529 245.434, 292.123 248.544, 290.187 250.480 L 286.667 254 297.573 254 L 308.480 254 305.624 251.352 C 304.053 249.896, 301.552 246.786, 300.064 244.440 L 297.360 240.176 295.533 243.568 " stroke="none" fill="black" fill-rule="evenodd"/>
</svg>