<svg xmlns="http://www.w3.org/2000/svg" width="468" height="324" viewBox="0 0 468 324" version="1.1">
	<path d="M 215.571 63.571 C 214.707 64.436, 214 65.332, 214 65.564 C 214 67.123, 231.710 101.058, 232.727 101.449 C 233.427 101.717, 234.573 101.717, 235.273 101.449 C 237.129 100.736, 254.063 66.328, 253.403 64.609 C 252.732 62.858, 250.483 61.877, 248.705 62.560 C 247.993 62.833, 244.520 68.894, 240.986 76.028 C 237.453 83.163, 234.308 89, 233.997 89 C 233.687 89, 230.748 83.534, 227.467 76.853 C 219.925 61.499, 218.847 60.296, 215.571 63.571 M 23.213 143.315 C 13.746 152.838, 6 161.131, 6 161.743 C 6 163.175, 8.813 166, 10.239 166 C 10.841 166, 17.334 160.059, 24.667 152.798 L 38 139.595 38 199.598 C 38 261.687, 38.020 262, 41.987 262 C 43.757 262, 78 228.013, 78 226.257 C 78 224.825, 75.187 222, 73.761 222 C 73.159 222, 66.666 227.941, 59.333 235.202 L 46 248.405 46 188.402 C 46 126.313, 45.980 126, 42.013 126 C 41.140 126, 32.680 133.792, 23.213 143.315 M 225.384 127.412 C 207.480 131.757, 195.543 149.833, 198.993 167.372 C 199.651 170.715, 201.079 175.194, 202.166 177.325 C 204.765 182.419, 211.066 189.182, 215.377 191.503 L 218.824 193.360 214.662 196.005 C 206.442 201.228, 201.123 209.179, 199.014 219.396 C 196.201 233.027, 203.253 248.375, 215.673 255.654 C 220.824 258.673, 233.869 262.124, 236 261.032 C 236.825 260.609, 239.300 259.941, 241.500 259.548 C 250.256 257.981, 260.364 250.087, 264.834 241.325 C 272.896 225.522, 267.396 205.573, 252.338 196.005 L 248.176 193.360 251.623 191.503 C 255.934 189.182, 262.235 182.419, 264.834 177.325 C 275.106 157.191, 263.453 132.611, 241.147 127.360 C 234.397 125.772, 232.111 125.779, 225.384 127.412 M 311.282 143.282 C 301.777 152.787, 294 161.079, 294 161.710 C 294 163.173, 296.800 166, 298.249 166 C 298.857 166, 306.250 159.156, 314.677 150.792 L 330 135.584 345.323 150.792 C 353.750 159.156, 361.143 166, 361.751 166 C 363.200 166, 366 163.173, 366 161.710 C 366 160.031, 331.693 126, 330 126 C 329.210 126, 320.787 133.777, 311.282 143.282 M 223.054 135.728 C 217.018 137.859, 209.781 145.260, 207.667 151.463 C 202.058 167.925, 210.847 184.571, 227.250 188.550 L 230 189.217 230 161.608 C 230 140.146, 229.722 134.018, 228.750 134.079 C 228.063 134.122, 225.499 134.864, 223.054 135.728 M 238 161.500 L 238 189.135 240.250 188.448 C 249.341 185.671, 256.783 179.020, 259.403 171.329 C 264.885 155.241, 256.601 139.321, 240.250 134.525 L 238 133.865 238 161.500 M 391.571 159.571 C 390.207 160.936, 390 165.463, 390 194 C 390 222.537, 390.207 227.064, 391.571 228.429 C 392.936 229.793, 397.463 230, 426 230 C 454.537 230, 459.064 229.793, 460.429 228.429 C 461.793 227.064, 462 222.537, 462 194 C 462 165.463, 461.793 160.936, 460.429 159.571 C 459.064 158.207, 454.537 158, 426 158 C 397.463 158, 392.936 158.207, 391.571 159.571 M 398 194 L 398 222 426 222 L 454 222 454 194 L 454 166 426 166 L 398 166 398 194 M 103.571 191.571 C 102.707 192.436, 102 193.640, 102 194.249 C 102 194.857, 108.844 202.250, 117.208 210.677 L 132.416 226 117.208 241.323 C 108.844 249.750, 102 257.143, 102 257.751 C 102 259.181, 104.819 262, 106.249 262 C 106.857 262, 114.250 255.156, 122.677 246.792 L 138 231.584 153.323 246.792 C 161.750 255.156, 169.143 262, 169.751 262 C 171.181 262, 174 259.181, 174 257.751 C 174 257.143, 167.156 249.750, 158.792 241.323 L 143.584 226 158.792 210.677 C 167.156 202.250, 174 194.857, 174 194.249 C 174 192.819, 171.181 190, 169.751 190 C 169.143 190, 161.750 196.844, 153.323 205.208 L 138 220.416 122.677 205.208 C 114.250 196.844, 106.857 190, 106.249 190 C 105.640 190, 104.436 190.707, 103.571 191.571 M 223.054 199.728 C 217.018 201.859, 209.781 209.260, 207.667 215.463 C 202.058 231.925, 210.847 248.571, 227.250 252.550 L 230 253.217 230 225.608 C 230 204.146, 229.722 198.018, 228.750 198.079 C 228.063 198.122, 225.499 198.864, 223.054 199.728 M 238 225.500 L 238 253.135 240.250 252.448 C 249.341 249.671, 256.783 243.020, 259.403 235.329 C 264.885 219.241, 256.601 203.321, 240.250 198.525 L 238 197.865 238 225.500 M 295.571 223.571 C 294.707 224.436, 294 225.659, 294 226.290 C 294 227.969, 328.307 262, 330 262 C 331.693 262, 366 227.969, 366 226.290 C 366 224.827, 363.200 222, 361.751 222 C 361.143 222, 353.750 228.844, 345.323 237.208 L 330 252.416 314.677 237.208 C 306.250 228.844, 298.857 222, 298.249 222 C 297.640 222, 296.436 222.707, 295.571 223.571 " stroke="none" fill="black" fill-rule="evenodd"/>
</svg>