<svg xmlns="http://www.w3.org/2000/svg" width="436" height="324" viewBox="0 0 436 324" version="1.1">
	<path d="M 33.384 159.412 C 15.475 163.758, 3.559 181.807, 6.987 199.396 C 8.500 207.161, 12.212 214.019, 17.580 218.967 C 40.258 239.870, 76.252 224.246, 76.252 193.500 C 76.252 176.888, 65.367 163.178, 49.147 159.360 C 42.397 157.772, 40.111 157.779, 33.384 159.412 M 226.344 158.988 C 216.010 161.166, 205.930 169.366, 201.417 179.266 C 197.361 188.161, 197.361 198.839, 201.417 207.734 C 204.868 215.303, 211.786 222.097, 219.762 225.749 C 227.442 229.264, 237.845 229.364, 246.493 226.003 C 254.707 222.811, 262.874 214.625, 265.893 206.557 C 268.893 198.539, 268.893 188.461, 265.893 180.443 C 260.317 165.541, 242.111 155.664, 226.344 158.988 M 31.054 167.728 C 25.018 169.859, 17.781 177.260, 15.667 183.463 C 11.995 194.241, 14.382 205.477, 21.952 213.048 C 32.402 223.497, 49.888 223.773, 60.280 213.653 C 66.701 207.401, 68.500 202.989, 68.500 193.500 C 68.500 184.011, 66.701 179.599, 60.280 173.347 C 53.109 166.363, 41.332 164.099, 31.054 167.728 M 223.385 167.617 C 208.729 172.815, 201.477 191.530, 208.588 205.801 C 213.413 215.484, 222.784 221.076, 233.928 220.924 C 244.142 220.784, 252.647 215.739, 257.500 206.939 C 260.130 202.171, 260.500 200.513, 260.500 193.500 C 260.500 186.512, 260.127 184.827, 257.551 180.176 C 252.393 170.865, 243.839 165.929, 233.124 166.079 C 230.031 166.122, 225.648 166.815, 223.385 167.617 M 167.571 191.571 C 166.707 192.436, 166 193.529, 166 194 C 166 194.471, 166.707 195.564, 167.571 196.429 C 168.436 197.293, 169.529 198, 170 198 C 170.471 198, 171.564 197.293, 172.429 196.429 C 173.293 195.564, 174 194.471, 174 194 C 174 193.529, 173.293 192.436, 172.429 191.571 C 171.564 190.707, 170.471 190, 170 190 C 169.529 190, 168.436 190.707, 167.571 191.571 M 231.616 191.527 C 230.727 192.416, 230 193.529, 230 194 C 230 195.389, 233.140 198.120, 234.295 197.735 C 236.395 197.035, 237.549 194.094, 236.423 192.310 C 234.905 189.902, 233.474 189.669, 231.616 191.527 M 7.571 223.571 C 6.707 224.436, 6 225.636, 6 226.239 C 6 226.841, 11.941 233.334, 19.202 240.667 L 32.405 254 20.774 254 C 11.534 254, 8.820 254.323, 7.571 255.571 C 5.598 257.545, 5.598 258.455, 7.571 260.429 C 8.936 261.793, 13.463 262, 42 262 C 70.537 262, 75.064 261.793, 76.429 260.429 C 78.402 258.455, 78.402 257.545, 76.429 255.571 C 75.180 254.323, 72.466 254, 63.226 254 L 51.595 254 64.798 240.667 C 72.059 233.334, 78 226.841, 78 226.239 C 78 224.817, 75.176 222, 73.751 222 C 73.143 222, 65.750 228.844, 57.323 237.208 L 42 252.416 26.677 237.208 C 18.250 228.844, 10.857 222, 10.249 222 C 9.640 222, 8.436 222.707, 7.571 223.571 M 103.571 255.571 C 102.707 256.436, 102 257.529, 102 258 C 102 259.111, 104.889 262, 106 262 C 107.111 262, 110 259.111, 110 258 C 110 256.889, 107.111 254, 106 254 C 105.529 254, 104.436 254.707, 103.571 255.571 M 167.571 255.571 C 166.707 256.436, 166 257.529, 166 258 C 166 259.111, 168.889 262, 170 262 C 171.111 262, 174 259.111, 174 258 C 174 256.889, 171.111 254, 170 254 C 169.529 254, 168.436 254.707, 167.571 255.571 M 199.585 255.558 C 198.713 256.430, 198 257.529, 198 258 C 198 258.471, 198.713 259.570, 199.585 260.442 C 200.978 261.835, 205.159 261.995, 234.226 261.763 C 264.452 261.523, 267.377 261.350, 268.386 259.750 C 269.191 258.474, 269.191 257.526, 268.386 256.250 C 267.377 254.650, 264.452 254.477, 234.226 254.237 C 205.159 254.005, 200.978 254.165, 199.585 255.558 M 295.579 255.564 C 294.710 256.432, 294 257.529, 294 258 C 294 258.471, 294.710 259.568, 295.579 260.436 C 296.990 261.847, 304.058 261.987, 362.220 261.757 C 422.934 261.517, 427.356 261.383, 428.386 259.750 C 429.191 258.474, 429.191 257.526, 428.386 256.250 C 427.356 254.617, 422.934 254.483, 362.220 254.243 C 304.058 254.013, 296.990 254.153, 295.579 255.564 " stroke="none" fill="black" fill-rule="evenodd"/>
</svg>