<svg xmlns="http://www.w3.org/2000/svg" width="308" height="324" viewBox="0 0 308 324" version="1.1">
	<path d="M 215.750 63.082 C 214.787 63.642, 214.020 64.865, 214.045 65.800 C 214.070 66.735, 218.007 75.150, 222.795 84.500 C 229.673 97.932, 231.920 101.500, 233.500 101.500 C 235.080 101.500, 237.327 97.932, 244.205 84.500 C 248.993 75.150, 252.930 66.768, 252.955 65.872 C 253.024 63.359, 250.459 61.682, 248.314 62.839 C 247.316 63.377, 243.588 69.710, 240.029 76.912 L 233.558 90.007 226.529 76.295 C 222.663 68.753, 219.050 62.465, 218.500 62.323 C 217.950 62.181, 216.713 62.522, 215.750 63.082 M 23.282 143.282 C 13.777 152.787, 6 161.079, 6 161.710 C 6 163.168, 8.798 166, 10.239 166 C 10.841 166, 17.334 160.059, 24.667 152.798 L 38 139.595 38 199.763 C 38 258.906, 38.034 259.948, 40 261 C 41.309 261.700, 42.605 261.739, 43.750 261.111 C 47.599 259.002, 77 228.290, 77 226.379 C 77 224.281, 75.246 222, 73.633 222 C 73.101 222, 66.666 227.941, 59.333 235.202 L 46 248.405 46 188.774 C 46 135.897, 45.822 128.965, 44.429 127.571 C 43.564 126.707, 42.341 126, 41.710 126 C 41.079 126, 32.787 133.777, 23.282 143.282 M 226.355 158.998 C 216.139 161.122, 205.181 170.013, 200.788 179.741 C 197.728 186.517, 197.735 200.498, 200.801 207.291 C 204.026 214.435, 211.927 222.244, 219.278 225.553 C 233.296 231.863, 251.340 227.420, 260.508 215.400 C 275.051 196.334, 267.202 168.333, 245.132 160.547 C 239.788 158.661, 231.330 157.964, 226.355 158.998 M 222 168.079 C 216.133 170.731, 211.447 175.297, 208.223 181.500 C 206.150 185.491, 205.625 187.913, 205.625 193.500 C 205.625 219.015, 236.314 230.667, 253.683 211.746 C 257.999 207.045, 261 199.561, 261 193.500 C 261 183.480, 253.989 172.797, 244.500 168.358 C 237.952 165.296, 228.417 165.177, 222 168.079 M 103.571 191.571 C 102.707 192.436, 102 193.640, 102 194.249 C 102 194.857, 108.844 202.250, 117.208 210.677 L 132.416 226 117.208 241.323 C 108.844 249.750, 102 257.143, 102 257.751 C 102 258.967, 104.736 262, 105.834 262 C 106.213 262, 113.482 255.031, 121.987 246.514 L 137.449 231.027 153.045 246.514 C 161.623 255.031, 169.082 262, 169.621 262 C 171.106 262, 173 259.793, 173 258.062 C 173 257.216, 166.143 249.656, 157.762 241.262 L 142.524 226 157.762 210.738 C 166.143 202.344, 173 194.784, 173 193.938 C 173 192.207, 171.106 190, 169.621 190 C 169.082 190, 161.623 196.969, 153.045 205.486 L 137.449 220.973 121.987 205.486 C 113.482 196.969, 106.213 190, 105.834 190 C 105.454 190, 104.436 190.707, 103.571 191.571 M 231.750 191.080 C 229.372 192.465, 229.542 195.685, 232.064 197.034 C 235.753 199.008, 238.819 194.219, 235.800 191.200 C 234.367 189.767, 234.022 189.757, 231.750 191.080 M 295.724 191.134 C 291.838 193.309, 295.294 198.983, 299.224 196.880 C 300.201 196.357, 301 195.061, 301 194 C 301 191.485, 298.005 189.858, 295.724 191.134 " stroke="none" fill="black" fill-rule="evenodd"/>
</svg>