<svg xmlns="http://www.w3.org/2000/svg" width="340" height="324" viewBox="0 0 340 324" version="1.1">
	<path d="M 263.750 127.080 C 262.138 128.019, 262 130.762, 262 161.850 C 262 186.767, 262.314 195.914, 263.200 196.800 C 264.081 197.681, 272.578 198, 295.200 198 L 326 198 326 228.965 C 326 259.475, 326.031 259.946, 328.117 261.062 C 333.076 263.717, 333.023 264.446, 333.023 194 C 333.023 123.554, 333.076 124.283, 328.117 126.938 C 326.031 128.054, 326 128.525, 326 159.035 L 326 190 297.500 190 L 269 190 269 159.200 C 269 125.561, 268.770 124.156, 263.750 127.080 M 199.608 190.725 C 197.637 192.696, 166.172 258.284, 166.627 259.471 C 167.410 261.510, 170.049 262.204, 171.726 260.813 C 172.535 260.141, 179.622 246.749, 187.474 231.052 L 201.750 202.514 216.313 231.626 C 224.486 247.965, 231.617 261.023, 232.565 261.386 C 234.679 262.198, 237 260.358, 237 257.871 C 237 255.637, 205.272 191.833, 203.630 190.765 C 202.178 189.821, 200.528 189.805, 199.608 190.725 M 39.571 223.571 C 38.707 224.436, 38 225.636, 38 226.239 C 38 226.841, 43.941 233.334, 51.202 240.667 L 64.405 254 36.774 254 C 12.988 254, 8.924 254.219, 7.571 255.571 C 5.598 257.545, 5.598 258.455, 7.571 260.429 C 8.968 261.825, 16.372 262, 74 262 C 131.628 262, 139.032 261.825, 140.429 260.429 C 142.402 258.455, 142.402 257.545, 140.429 255.571 C 139.076 254.219, 135.012 254, 111.226 254 L 83.595 254 96.798 240.667 C 104.059 233.334, 110 226.841, 110 226.239 C 110 224.817, 107.176 222, 105.751 222 C 105.143 222, 97.750 228.844, 89.323 237.208 L 74 252.416 58.677 237.208 C 50.250 228.844, 42.857 222, 42.249 222 C 41.640 222, 40.436 222.707, 39.571 223.571 " stroke="none" fill="black" fill-rule="evenodd"/>
</svg>