<svg xmlns="http://www.w3.org/2000/svg" width="372" height="324" viewBox="0 0 372 324" version="1.1">
	<path d="M 33.608 132.122 C 21.806 142.937, 13.219 157.313, 8.894 173.500 C 5.908 184.677, 5.908 202.323, 8.894 213.500 C 13.226 229.712, 21.805 244.062, 33.656 254.922 C 40.569 261.256, 43.264 262.147, 45.367 258.791 C 46.262 257.362, 45.119 255.807, 38.383 249.291 C 26.089 237.399, 19.996 227.126, 16.023 211.590 C 9.291 185.268, 19.060 153.717, 39.198 136.736 C 45.465 131.452, 46.498 129.641, 44.427 127.569 C 41.948 125.091, 40.715 125.610, 33.608 132.122 M 151.282 143.282 C 141.777 152.787, 134 161.079, 134 161.710 C 134 163.168, 136.798 166, 138.239 166 C 138.841 166, 145.334 160.059, 152.667 152.798 L 166 139.595 166 199.226 C 166 252.103, 166.178 259.035, 167.571 260.429 C 168.436 261.293, 169.659 262, 170.290 262 C 171.788 262, 206 227.788, 206 226.290 C 206 224.832, 203.202 222, 201.761 222 C 201.159 222, 194.666 227.941, 187.333 235.202 L 174 248.405 174 188.774 C 174 135.897, 173.822 128.965, 172.429 127.571 C 171.564 126.707, 170.341 126, 169.710 126 C 169.079 126, 160.787 133.777, 151.282 143.282 M 71.200 128.200 C 70.540 128.860, 70 129.784, 70 130.252 C 70 130.721, 73.713 134.816, 78.250 139.353 C 93.729 154.828, 100.965 172.078, 100.965 193.500 C 100.965 214.922, 93.729 232.172, 78.250 247.647 C 69.840 256.055, 68.871 257.818, 71.472 259.977 C 73.490 261.651, 78.021 258.765, 85.121 251.280 C 92.040 243.988, 96.186 237.927, 100.536 228.744 C 106.148 216.898, 108.243 207.318, 108.243 193.500 C 108.243 184.404, 107.726 179.564, 106.106 173.500 C 101.868 157.641, 93.304 143.126, 82.021 132.680 C 75.863 126.979, 73.429 125.971, 71.200 128.200 M 49.384 159.412 C 31.475 163.758, 19.559 181.807, 22.987 199.396 C 25.921 214.454, 36.511 225.033, 51.628 228.007 C 74.713 232.548, 96.720 210.337, 91.965 187.295 C 89.006 172.962, 79.102 162.645, 65.147 159.360 C 58.397 157.772, 56.111 157.779, 49.384 159.412 M 47.054 167.728 C 41.018 169.859, 33.781 177.260, 31.667 183.463 C 25.198 202.450, 37.964 221, 57.500 221 C 73.108 221, 85 209.108, 85 193.500 C 85 177.670, 72.965 165.854, 57.072 166.079 C 54.007 166.122, 49.499 166.864, 47.054 167.728 M 255.059 175.517 C 246.360 177.455, 238.976 181.227, 232.903 186.834 C 229.246 190.210, 228.034 191.973, 228.517 193.212 C 229.844 196.614, 232.865 196.354, 237.167 192.468 C 239.414 190.438, 244.234 187.364, 247.877 185.638 C 253.993 182.740, 255.304 182.500, 265 182.500 C 274.754 182.500, 275.983 182.729, 282.306 185.724 C 286.947 187.922, 291.090 190.965, 295.331 195.290 C 308.043 208.255, 324.537 212.429, 343 207.354 C 352.935 204.624, 364 196.778, 364 192.464 C 364 188.535, 360.496 188.357, 356.267 192.070 C 354.247 193.844, 349.648 196.691, 346.047 198.397 C 340.017 201.255, 338.670 201.500, 329 201.500 C 319.333 201.500, 317.981 201.254, 311.962 198.402 C 307.858 196.457, 303.606 193.383, 300.541 190.146 C 288.481 177.409, 271.330 171.892, 255.059 175.517 " stroke="none" fill="black" fill-rule="evenodd"/>
</svg>