<svg xmlns="http://www.w3.org/2000/svg" width="340" height="324" viewBox="0 0 340 324" version="1.1">
	<path d="M 40.316 62.784 C 38.369 64.022, 22.007 97.855, 22.604 99.410 C 23.269 101.144, 25.524 102.120, 27.295 101.440 C 28.007 101.167, 31.480 95.106, 35.014 87.972 C 38.547 80.837, 41.691 75, 42 75 C 42.309 75, 45.453 80.837, 48.986 87.972 C 52.520 95.106, 55.993 101.167, 56.705 101.440 C 58.487 102.124, 60.732 101.141, 61.407 99.381 C 61.997 97.844, 45.582 64.037, 43.628 62.765 C 42.214 61.845, 41.789 61.847, 40.316 62.784 M 7.571 127.571 C 6.175 128.968, 6 136.372, 6 194 C 6 251.628, 6.175 259.032, 7.571 260.429 C 8.436 261.293, 9.666 262, 10.305 262 C 12.018 262, 78 195.721, 78 194 C 78 192.279, 12.018 126, 10.305 126 C 9.666 126, 8.436 126.707, 7.571 127.571 M 119.213 143.315 C 109.746 152.838, 102 161.131, 102 161.743 C 102 163.175, 104.813 166, 106.239 166 C 106.841 166, 113.334 160.059, 120.667 152.798 L 134 139.595 134 199.675 C 134 263.843, 133.943 263.105, 138.741 261.582 C 141 260.865, 174 227.801, 174 226.255 C 174 224.825, 171.186 222, 169.761 222 C 169.159 222, 162.666 227.941, 155.333 235.202 L 142 248.405 142 188.774 C 142 135.897, 141.822 128.965, 140.429 127.571 C 139.564 126.707, 138.310 126, 137.641 126 C 136.972 126, 128.680 133.792, 119.213 143.315 M 14 194 L 14 248.495 41.248 221.248 L 68.495 194 41.248 166.752 L 14 139.505 14 194 M 223.500 175.123 C 216.469 176.520, 205.271 182.204, 200.250 186.924 C 195.704 191.198, 195.097 193.006, 197.530 195.025 C 199.407 196.583, 201.377 195.674, 208.500 189.964 C 215.611 184.263, 224.713 181.629, 235.374 182.189 C 246.596 182.778, 254.388 186.446, 263.072 195.230 C 273.092 205.365, 282.721 209.358, 297 209.298 C 306.971 209.257, 315.600 206.700, 323.528 201.437 C 332.121 195.734, 333.976 192.273, 329.836 189.666 C 328.516 188.835, 327.229 189.391, 323.618 192.350 C 312.422 201.524, 297.206 204.474, 284.040 200.022 C 276.453 197.456, 272.862 195.115, 267.766 189.409 C 257.721 178.165, 238.847 172.074, 223.500 175.123 " stroke="none" fill="black" fill-rule="evenodd"/>
</svg>