<svg xmlns="http://www.w3.org/2000/svg" width="132" height="324" viewBox="0 0 132 324" version="1.1">
	<path d="M 7.200 63.200 C 5.512 64.888, 5.512 99.112, 7.200 100.800 C 8.888 102.488, 43.112 102.488, 44.800 100.800 C 46.488 99.112, 46.488 64.888, 44.800 63.200 C 43.112 61.512, 8.888 61.512, 7.200 63.200 M 14 82 L 14 94 26 94 L 38 94 38 82 L 38 70 26 70 L 14 70 14 82 M 23.571 127.571 C 22.175 128.968, 22 136.372, 22 194 C 22 251.628, 22.175 259.032, 23.571 260.429 C 24.436 261.293, 25.529 262, 26 262 C 26.471 262, 27.564 261.293, 28.429 260.429 C 29.825 259.032, 30 251.628, 30 194 C 30 136.372, 29.825 128.968, 28.429 127.571 C 27.564 126.707, 26.471 126, 26 126 C 25.529 126, 24.436 126.707, 23.571 127.571 M 87.285 159.230 C 68.978 177.506, 54 193.166, 54 194.030 C 54 197.785, 55.649 198, 84.427 198 L 112.455 198 83.227 227.289 C 67.152 243.398, 54 257.091, 54 257.718 C 54 259.193, 56.810 262, 58.287 262 C 60.056 262, 126 195.747, 126 193.970 C 126 190.215, 124.351 190, 95.573 190 L 67.545 190 96.773 160.711 C 112.848 144.602, 126 130.909, 126 130.282 C 126 128.807, 123.190 126, 121.713 126 C 121.084 126, 105.591 140.953, 87.285 159.230 " stroke="none" fill="black" fill-rule="evenodd"/>
</svg>