<svg xmlns="http://www.w3.org/2000/svg" width="244" height="324" viewBox="0 0 244 324" version="1.1">
	<path d="M 151.537 63.605 C 150.508 64.635, 150.172 65.980, 150.600 67.355 C 151.771 71.118, 166.889 100.814, 167.975 101.484 C 170.685 103.159, 172.956 100.142, 180.760 84.501 C 185.292 75.417, 189 67.143, 189 66.115 C 189 63.642, 186.675 61.804, 184.569 62.612 C 183.643 62.967, 179.930 69.156, 176.318 76.363 L 169.751 89.469 163.767 77.484 C 157.953 65.839, 155.511 62, 153.916 62 C 153.491 62, 152.420 62.722, 151.537 63.605 M 23.282 143.282 C 13.777 152.787, 6 161.079, 6 161.710 C 6 163.168, 8.798 166, 10.239 166 C 10.841 166, 17.334 160.059, 24.667 152.798 L 38 139.595 38 199.763 C 38 258.906, 38.034 259.948, 40 261 C 41.309 261.701, 42.604 261.739, 43.750 261.111 C 46.436 259.638, 78 227.514, 78 226.253 C 78 224.824, 75.185 222, 73.761 222 C 73.159 222, 66.666 227.941, 59.333 235.202 L 46 248.405 46 188.774 C 46 135.897, 45.822 128.965, 44.429 127.571 C 43.564 126.707, 42.341 126, 41.710 126 C 41.079 126, 32.787 133.777, 23.282 143.282 M 103.005 191.494 C 100.404 194.628, 104.204 213.523, 109.569 224.127 C 117.620 240.044, 135.143 253.982, 153 258.674 C 161.588 260.931, 177.328 260.878, 186 258.562 C 207.426 252.843, 225.704 235.706, 233.002 214.495 C 235.762 206.472, 237.445 193.241, 235.936 191.423 C 234.115 189.229, 104.827 189.298, 103.005 191.494 M 110 200.290 C 110 204.593, 112.971 213.992, 116.625 221.249 C 123.728 235.356, 139.581 247.804, 155.103 251.463 C 163.323 253.400, 175.948 253.413, 183.540 251.491 C 191.739 249.416, 202.643 243.780, 208.686 238.494 C 218.310 230.075, 226.412 215.250, 228.495 202.250 L 229.176 198 169.588 198 L 110 198 110 200.290 " stroke="none" fill="black" fill-rule="evenodd"/>
</svg>