<svg xmlns="http://www.w3.org/2000/svg" width="452" height="324" viewBox="0 0 452 324" version="1.1">
	<path d="M 55.571 63.571 C 54.707 64.436, 54 65.609, 54 66.178 C 54 66.747, 57.226 70.540, 61.169 74.607 L 68.338 82 61.169 89.393 C 57.226 93.460, 54 97.253, 54 97.822 C 54 99.161, 56.839 102, 58.178 102 C 58.747 102, 62.540 98.774, 66.607 94.831 L 74 87.662 81.393 94.831 C 85.460 98.774, 89.195 102, 89.693 102 C 91.229 102, 93 99.699, 93 97.703 C 93 96.659, 90.001 92.699, 86.336 88.903 L 79.672 82 86.336 75.097 C 90.001 71.301, 93 67.341, 93 66.297 C 93 64.301, 91.229 62, 89.693 62 C 89.195 62, 85.460 65.226, 81.393 69.169 L 74 76.338 66.607 69.169 C 62.540 65.226, 58.747 62, 58.178 62 C 57.609 62, 56.436 62.707, 55.571 63.571 M 407.200 63.200 C 405.512 64.888, 405.512 99.112, 407.200 100.800 C 408.886 102.486, 442.114 102.486, 443.800 100.800 C 445.488 99.112, 445.488 64.888, 443.800 63.200 C 442.114 61.514, 408.886 61.514, 407.200 63.200 M 413 82 L 413 94 425.500 94 L 438 94 438 82 L 438 70 425.500 70 L 413 70 413 82 M 327.750 127.080 C 326.150 128.012, 326 130.476, 326 155.858 L 326 183.617 318.250 179.821 C 300.781 171.266, 282.098 173.135, 266.367 185.013 C 260.776 189.234, 259.108 192.220, 261.040 194.548 C 262.922 196.816, 264.513 196.317, 269.689 191.835 C 272.335 189.545, 276.975 186.515, 280 185.102 C 284.848 182.838, 286.804 182.532, 296.500 182.517 C 306.369 182.502, 308.090 182.776, 313.235 185.188 C 316.390 186.666, 320.552 189.082, 322.485 190.557 L 326 193.237 326 221.337 L 326 249.437 320.120 243.619 C 314.896 238.450, 314.004 237.927, 312.120 238.936 C 308.640 240.798, 309.626 243.076, 317.225 250.726 L 324.450 258 317.225 265.274 C 309.626 272.924, 308.640 275.202, 312.120 277.064 C 314.004 278.073, 314.896 277.550, 320.120 272.381 L 326 266.563 326 279.246 C 326 291.037, 326.145 292.007, 328.064 293.034 C 332.177 295.236, 333 292.934, 333 279.225 L 333 266.696 338.926 272.348 C 345.212 278.344, 345.907 278.693, 347.800 276.800 C 350.049 274.551, 349.003 272.550, 341.775 265.274 L 334.550 258 341.775 250.726 C 349.003 243.450, 350.049 241.449, 347.800 239.200 C 345.907 237.307, 345.212 237.656, 338.926 243.652 L 333 249.304 333 225.335 L 333 201.365 339.750 204.671 C 356.388 212.820, 375.129 210.693, 390.778 198.878 C 396.367 194.658, 397.305 191.835, 393.838 189.663 C 392.521 188.838, 391.055 189.486, 386.787 192.779 C 377.288 200.107, 373.074 201.502, 360.500 201.483 C 350.697 201.468, 348.876 201.176, 343.767 198.796 C 340.614 197.327, 336.902 194.993, 335.517 193.608 L 333 191.091 333 159.745 C 333 125.523, 332.779 124.151, 327.750 127.080 M 423.724 127.134 C 422.119 128.033, 422 132.654, 422 194.015 C 422 256.133, 422.102 259.984, 423.776 260.880 C 424.902 261.483, 426.182 261.478, 427.276 260.866 C 428.881 259.967, 429 255.346, 429 193.985 C 429 131.867, 428.898 128.016, 427.224 127.120 C 426.098 126.517, 424.818 126.522, 423.724 127.134 M 193.500 159.367 C 186.383 161.190, 181.133 164.182, 176.301 169.167 C 166.333 179.452, 163.572 194.916, 169.417 207.734 C 175.923 222.005, 191.915 230.781, 206.498 228.085 C 218.381 225.888, 226.508 220.086, 232.070 209.826 C 235.326 203.820, 235.500 202.994, 235.499 193.500 C 235.499 184.448, 235.227 182.979, 232.639 178 C 225.136 163.570, 208.328 155.568, 193.500 159.367 M 191.885 167.380 C 177.023 172.691, 169.571 190.196, 175.991 204.714 C 180.442 214.779, 188.401 220.129, 199.883 220.774 C 206.995 221.173, 207.931 220.978, 214 217.830 C 224.444 212.411, 229.773 202.629, 228.713 190.821 C 227.772 180.346, 220.582 170.975, 210.684 167.326 C 206.419 165.754, 196.355 165.782, 191.885 167.380 M 127.870 191.049 C 120.273 192.195, 110.649 195.512, 104.100 199.243 C 97.093 203.234, 86.087 213.656, 81.363 220.773 C 76.858 227.559, 72.422 238.687, 71.505 245.500 C 70.237 254.922, 73.708 254, 39.504 254 C 13.236 254, 8.931 254.212, 7.571 255.571 C 5.598 257.545, 5.598 258.455, 7.571 260.429 C 8.900 261.758, 12.389 262, 30.188 262 L 51.233 262 47.660 265.955 C 31.947 283.347, 37.048 310.168, 58.151 321.114 C 64.590 324.454, 78.476 324.953, 86 322.115 C 99.581 316.993, 108.094 304.408, 108.106 289.436 C 108.113 280.508, 105.342 272.806, 99.899 266.623 L 95.865 262.039 117.574 261.770 C 136.986 261.529, 139.400 261.315, 140.387 259.750 C 141.191 258.474, 141.191 257.526, 140.386 256.250 C 139.381 254.655, 136.559 254.477, 108.505 254.235 L 77.728 253.971 78.373 248.485 C 80.420 231.067, 93.525 212.797, 109.877 204.562 C 118.141 200.400, 123.509 198.859, 132.396 198.094 C 139.982 197.441, 142.495 195.605, 140.394 192.250 C 139.112 190.203, 135.668 189.873, 127.870 191.049 M 199.616 191.527 C 198.727 192.416, 198 193.529, 198 194 C 198 195.389, 201.140 198.120, 202.295 197.735 C 204.395 197.035, 205.549 194.094, 204.423 192.310 C 202.905 189.902, 201.474 189.669, 199.616 191.527 M 167.585 255.558 C 166.713 256.430, 166 257.529, 166 258 C 166 258.471, 166.713 259.570, 167.585 260.442 C 168.978 261.835, 173.159 261.995, 202.226 261.763 C 232.452 261.523, 235.377 261.350, 236.386 259.750 C 237.191 258.474, 237.191 257.526, 236.386 256.250 C 235.377 254.650, 232.452 254.477, 202.226 254.237 C 173.159 254.005, 168.978 254.165, 167.585 255.558 M 63.627 263.468 C 58.302 265.367, 53.047 269.815, 49.618 275.328 C 46.254 280.737, 45.041 290.780, 46.916 297.708 C 48.446 303.361, 53.544 309.823, 59.266 313.361 C 65.398 317.152, 75.268 318.068, 82.852 315.549 C 88.768 313.584, 95.558 307.496, 98.523 301.500 C 101.292 295.897, 101.292 283.103, 98.523 277.500 C 95.688 271.767, 88.795 265.459, 83.329 263.597 C 77.637 261.657, 68.868 261.600, 63.627 263.468 " stroke="none" fill="black" fill-rule="evenodd"/>
</svg>