<svg xmlns="http://www.w3.org/2000/svg" width="212" height="324" viewBox="0 0 212 324" version="1.1">
	<path d="M 67 126.637 C 49.023 129.262, 36.267 135.634, 24.973 147.630 C 17.823 155.225, 13.393 162.294, 10.411 170.869 C -0.034 200.902, 10.925 232.498, 37.987 250.375 L 43.473 254 26.308 254 C 12.037 254, 8.878 254.265, 7.571 255.571 C 5.598 257.545, 5.598 258.455, 7.571 260.429 C 8.968 261.825, 16.372 262, 74 262 C 131.628 262, 139.032 261.825, 140.429 260.429 C 142.402 258.455, 142.402 257.545, 140.429 255.571 C 139.119 254.262, 135.919 254, 121.201 254 L 103.546 254 108.983 250.419 C 123.610 240.786, 133.144 228.228, 138.151 212 C 141.514 201.100, 141.342 184.647, 137.751 173.722 C 129.507 148.639, 108.232 130.622, 82.678 127.083 C 74.947 126.013, 71.876 125.925, 67 126.637 M 58.645 135.584 C 38.671 140.419, 20.279 158.986, 15.537 179.103 C 10.672 199.742, 16.569 220.600, 31.484 235.516 C 46.358 250.389, 67.265 256.327, 87.754 251.496 C 108.431 246.621, 126.041 229.298, 131.457 208.505 C 133.437 200.904, 133.437 186.096, 131.457 178.495 C 126.143 158.096, 108.841 140.870, 88.356 135.585 C 80.839 133.646, 66.653 133.645, 58.645 135.584 M 179.625 191.424 C 174.762 193.214, 169.362 198.373, 167.985 202.544 C 166.450 207.196, 166.375 243.606, 167.891 248.184 C 170.378 255.692, 180.898 262.011, 188.334 260.463 C 193.494 259.389, 199.662 255.282, 202.157 251.259 C 205.419 245.999, 205.419 237.001, 202.157 231.741 C 197.199 223.747, 185.157 220.168, 177.250 224.338 L 174 226.051 174 216.476 C 174 202.755, 176.997 198, 185.646 198 C 191.096 198, 195.523 201.590, 197.145 207.324 C 198.801 213.176, 200.179 214.510, 203.005 212.997 C 204.993 211.934, 205.174 211.276, 204.619 207.149 C 203.034 195.370, 190.436 187.444, 179.625 191.424 M 179.217 231.561 C 176.408 233.528, 174 238.116, 174 241.500 C 174 244.884, 176.408 249.472, 179.217 251.439 C 182.749 253.913, 189.318 253.445, 192.857 250.467 C 199.036 245.268, 198.872 237.191, 192.486 232.168 C 189.176 229.564, 182.504 229.258, 179.217 231.561 " stroke="none" fill="black" fill-rule="evenodd"/>
</svg>