<svg xmlns="http://www.w3.org/2000/svg" width="340" height="324" viewBox="0 0 340 324" version="1.1">
	<path d="M 39.571 127.571 C 38.176 128.966, 38 136.152, 38 191.571 L 38 254 23.571 254 C 11.788 254, 8.855 254.288, 7.571 255.571 C 5.598 257.545, 5.598 258.455, 7.571 260.429 C 8.936 261.793, 13.463 262, 42 262 C 70.537 262, 75.064 261.793, 76.429 260.429 C 77.293 259.564, 78 258.471, 78 258 C 78 257.529, 77.293 256.436, 76.429 255.571 C 75.145 254.288, 72.212 254, 60.429 254 L 46 254 46 191.571 C 46 136.152, 45.824 128.966, 44.429 127.571 C 43.564 126.707, 42.471 126, 42 126 C 41.529 126, 40.436 126.707, 39.571 127.571 M 263.750 127.080 C 262.143 128.016, 262 130.628, 262 159.050 L 262 190 231.571 190 C 205.242 190, 200.931 190.212, 199.571 191.571 C 197.598 193.545, 197.598 194.455, 199.571 196.429 C 200.931 197.788, 205.242 198, 231.571 198 L 262 198 262 228.965 C 262 259.771, 262.011 259.936, 264.183 261.098 C 266.042 262.093, 266.636 261.933, 268.183 260.022 C 269.848 257.966, 270 255.285, 270 227.889 L 270 198 295.236 198 L 320.472 198 307.236 211.263 C 299.956 218.558, 294 225.292, 294 226.228 C 294 227.164, 294.952 228.439, 296.115 229.062 C 298.040 230.092, 299.775 228.675, 315.354 213.347 C 324.772 204.081, 332.843 195.938, 333.289 195.250 C 333.734 194.563, 333.734 193.438, 333.289 192.750 C 332.843 192.063, 324.772 183.919, 315.354 174.653 C 299.775 159.325, 298.040 157.908, 296.115 158.938 C 294.952 159.561, 294 160.836, 294 161.772 C 294 162.708, 299.956 169.442, 307.236 176.737 L 320.472 190 295.236 190 L 270 190 270 160.223 C 270 134.890, 269.768 130.113, 268.443 128.223 C 266.702 125.736, 266.248 125.625, 263.750 127.080 M 130.223 159.062 C 120.059 161.065, 110.033 169.381, 105.189 179.825 C 101.440 187.907, 101.440 199.093, 105.189 207.175 C 116.246 231.015, 146.283 235.938, 163.545 216.739 C 181.167 197.139, 171.006 165.447, 145.147 159.360 C 138.857 157.880, 136.464 157.832, 130.223 159.062 M 127.463 167.591 C 121.971 169.541, 116.552 174.205, 113.249 179.824 C 110.800 183.989, 110.500 185.483, 110.500 193.500 C 110.500 201.517, 110.800 203.011, 113.249 207.176 C 116.659 212.978, 122.006 217.473, 127.872 219.472 C 133.104 221.255, 142.134 221.352, 146.684 219.674 C 157.521 215.679, 165 204.991, 165 193.500 C 165 182.009, 157.521 171.321, 146.684 167.326 C 142.323 165.718, 132.351 165.856, 127.463 167.591 M 135.571 191.571 C 134.707 192.436, 134 193.529, 134 194 C 134 194.471, 134.707 195.564, 135.571 196.429 C 136.436 197.293, 137.529 198, 138 198 C 138.471 198, 139.564 197.293, 140.429 196.429 C 141.293 195.564, 142 194.471, 142 194 C 142 193.529, 141.293 192.436, 140.429 191.571 C 139.564 190.707, 138.471 190, 138 190 C 137.529 190, 136.436 190.707, 135.571 191.571 " stroke="none" fill="black" fill-rule="evenodd"/>
</svg>