<svg xmlns="http://www.w3.org/2000/svg" width="564" height="324" viewBox="0 0 564 324" version="1.1">
	<path d="M 135.571 127.571 C 134.176 128.966, 134 136.152, 134 191.571 L 134 254 119.571 254 C 107.788 254, 104.855 254.288, 103.571 255.571 C 101.598 257.545, 101.598 258.455, 103.571 260.429 C 104.936 261.793, 109.463 262, 138 262 C 166.537 262, 171.064 261.793, 172.429 260.429 C 173.293 259.564, 174 258.471, 174 258 C 174 257.529, 173.293 256.436, 172.429 255.571 C 171.145 254.288, 168.212 254, 156.429 254 L 142 254 142 191.571 C 142 136.152, 141.824 128.966, 140.429 127.571 C 139.564 126.707, 138.471 126, 138 126 C 137.529 126, 136.436 126.707, 135.571 127.571 M 253.500 127.401 C 238.645 130.266, 227.144 136.774, 216.168 148.528 C 205.839 159.588, 200.206 172.225, 198.499 188.168 C 197.924 193.530, 198.094 194.951, 199.473 196.330 C 201.547 198.404, 202.435 198.422, 204.429 196.429 C 205.413 195.444, 206 193.095, 206 190.139 C 206 187.544, 206.682 182.738, 207.515 179.460 C 214.351 152.568, 238.034 134, 265.500 134 C 292.966 134, 316.649 152.568, 323.485 179.460 C 324.318 182.738, 325 187.544, 325 190.139 C 325 198.197, 324.216 198, 356.274 198 L 384.405 198 371.202 211.333 C 363.941 218.666, 358 225.159, 358 225.761 C 358 227.187, 360.825 230, 362.257 230 C 364.006 230, 398 195.761, 398 194 C 398 192.239, 364.006 158, 362.257 158 C 360.825 158, 358 160.813, 358 162.239 C 358 162.841, 363.941 169.334, 371.202 176.667 L 384.405 190 358.770 190 C 329.910 190, 332.759 190.888, 331.495 181.500 C 328.359 158.197, 306.738 134.824, 282.500 128.533 C 273.877 126.295, 261.699 125.820, 253.500 127.401 M 487.200 127.200 C 486.292 128.108, 486 143.689, 486 191.200 L 486 254 455.571 254 C 429.242 254, 424.931 254.212, 423.571 255.571 C 422.707 256.436, 422 257.529, 422 258 C 422 258.471, 422.707 259.564, 423.571 260.429 C 424.968 261.825, 432.372 262, 490 262 C 547.628 262, 555.032 261.825, 556.429 260.429 C 558.402 258.455, 558.402 257.545, 556.429 255.571 C 555.069 254.212, 550.758 254, 524.429 254 L 494 254 494 226 L 494 198 524.429 198 C 550.758 198, 555.069 197.788, 556.429 196.429 C 557.793 195.064, 558 190.537, 558 162 C 558 133.463, 557.793 128.936, 556.429 127.571 C 555.063 126.206, 550.503 126, 521.629 126 C 497.117 126, 488.085 126.315, 487.200 127.200 M 494 162 L 494 190 522 190 L 550 190 550 162 L 550 134 522 134 L 494 134 494 162 M 7.571 191.571 C 6.707 192.436, 6 193.640, 6 194.249 C 6 194.857, 12.844 202.250, 21.208 210.677 L 36.416 226 21.208 241.323 C 12.844 249.750, 6 257.143, 6 257.751 C 6 259.181, 8.819 262, 10.249 262 C 10.857 262, 18.250 255.156, 26.677 246.792 L 42 231.584 57.323 246.792 C 65.750 255.156, 73.143 262, 73.751 262 C 75.181 262, 78 259.181, 78 257.751 C 78 257.143, 71.156 249.750, 62.792 241.323 L 47.584 226 62.792 210.677 C 71.156 202.250, 78 194.857, 78 194.249 C 78 192.819, 75.181 190, 73.751 190 C 73.143 190, 65.750 196.844, 57.323 205.208 L 42 220.416 26.677 205.208 C 18.250 196.844, 10.857 190, 10.249 190 C 9.640 190, 8.436 190.707, 7.571 191.571 " stroke="none" fill="black" fill-rule="evenodd"/>
</svg>