<svg xmlns="http://www.w3.org/2000/svg" width="532" height="324" viewBox="0 0 532 324" version="1.1">
	<path d="M 135.571 127.571 C 134.707 128.436, 134 129.529, 134 130 C 134 130.471, 134.707 131.564, 135.571 132.429 C 136.966 133.824, 144.152 134, 199.571 134 L 262 134 262 194 L 262 254 135.571 254 C 21.970 254, 8.983 254.159, 7.571 255.571 C 5.598 257.545, 5.598 258.455, 7.571 260.429 C 8.984 261.841, 22.190 262, 138 262 C 253.810 262, 267.016 261.841, 268.429 260.429 C 269.825 259.032, 270 251.628, 270 194 C 270 136.372, 269.825 128.968, 268.429 127.571 C 267.032 126.175, 259.628 126, 202 126 C 144.372 126, 136.968 126.175, 135.571 127.571 M 354.355 126.986 C 332.853 131.520, 320.274 155.905, 329.329 175.500 C 332.298 181.925, 338.624 189.175, 343.488 191.729 C 346.304 193.207, 346.364 193.361, 344.533 194.399 C 339.291 197.369, 332.085 205.413, 329.411 211.278 C 325.431 220.009, 325.357 230.914, 329.223 239.250 C 330.689 242.412, 331.658 245, 331.375 245 C 329.804 245, 321.600 238.343, 317.090 233.408 C 308.631 224.152, 302 208.818, 302 198.512 C 302 194.610, 299.842 190, 298.015 190 C 297.535 190, 296.391 190.751, 295.473 191.670 C 294.091 193.052, 293.924 194.470, 294.506 199.903 C 295.918 213.084, 300.676 224.726, 308.779 234.822 C 317.118 245.212, 327.902 253.010, 339.410 256.969 C 345.005 258.894, 360.186 261.655, 363 261.260 C 385.050 258.158, 396.208 253.016, 409.121 240.005 C 420.616 228.423, 428 211.959, 428 197.912 C 428 191.365, 426.434 189.162, 423.064 190.966 C 421.469 191.819, 421 193.049, 421 196.375 C 421 203.095, 417.369 215.646, 413.327 222.899 C 409.362 230.012, 399.753 240.272, 393.844 243.700 L 390.188 245.821 392.661 241.056 C 397.177 232.351, 397.350 219.486, 393.069 210.643 C 390.273 204.868, 384.138 197.928, 379.728 195.553 L 376.252 193.681 380.849 190.590 C 386.522 186.776, 392.477 179.045, 394.566 172.782 C 396.546 166.844, 396.556 155.812, 394.587 150.239 C 392.593 144.596, 387.889 137.878, 383.255 134.056 C 376.138 128.186, 363.419 125.074, 354.355 126.986 M 351.385 135.617 C 349.122 136.420, 345.450 138.635, 343.224 140.541 C 330.777 151.195, 330.768 171.798, 343.205 182.443 C 346.623 185.370, 354.361 189, 357.178 189 C 357.630 189, 358 176.625, 358 161.500 C 358 140.125, 357.722 134.018, 356.750 134.079 C 356.063 134.122, 353.648 134.815, 351.385 135.617 M 366 161.500 L 366 189.135 368.250 188.454 C 379.928 184.922, 387.678 175.697, 388.721 164.088 C 389.929 150.632, 381.502 138.466, 368.250 134.533 L 366 133.865 366 161.500 M 482.355 158.986 C 470.577 161.470, 459.489 171.439, 456.023 182.661 C 453.588 190.546, 453.473 195.861, 455.584 202.972 C 458.613 213.171, 465.582 221.106, 475.480 225.627 C 483.385 229.236, 493.728 229.410, 502.297 226.077 C 509.354 223.331, 517.569 215.634, 521.056 208.500 C 523.152 204.212, 523.500 202.075, 523.500 193.500 C 523.500 181.367, 521.450 176.286, 513.353 168.339 C 505.361 160.497, 492.948 156.752, 482.355 158.986 M 479.748 167.427 C 461.840 173.818, 455.939 196.971, 468.447 211.770 C 475.835 220.510, 489.687 223.579, 500.145 218.791 C 521.658 208.942, 522.784 180.023, 502.073 169.250 C 496.947 166.583, 494.719 166.008, 489.663 166.044 C 486.273 166.068, 481.812 166.690, 479.748 167.427 M 351.385 199.617 C 349.122 200.420, 345.450 202.635, 343.224 204.541 C 330.777 215.195, 330.768 235.798, 343.205 246.443 C 346.623 249.370, 354.361 253, 357.178 253 C 357.630 253, 358 240.625, 358 225.500 C 358 204.125, 357.722 198.018, 356.750 198.079 C 356.063 198.122, 353.648 198.815, 351.385 199.617 M 366 225.500 L 366 253.135 368.250 252.454 C 379.928 248.922, 387.678 239.697, 388.721 228.088 C 389.929 214.632, 381.502 202.466, 368.250 198.533 L 366 197.865 366 225.500 M 455.750 255.073 C 453.413 256.444, 453.527 259.677, 455.960 260.979 C 457.243 261.665, 469.208 261.936, 490.601 261.764 C 520.469 261.523, 523.378 261.349, 524.386 259.750 C 525.191 258.474, 525.191 257.526, 524.386 256.250 C 523.377 254.649, 520.483 254.481, 490.391 254.273 C 469.280 254.127, 456.873 254.414, 455.750 255.073 " stroke="none" fill="black" fill-rule="evenodd"/>
</svg>