<svg xmlns="http://www.w3.org/2000/svg" width="500" height="324" viewBox="0 0 500 324" version="1.1">
	<path d="M 63.102 127.162 C 37.816 130.777, 15.183 151.403, 8.414 177 C 6.134 185.626, 6.134 201.374, 8.414 210 C 12.552 225.647, 23.709 241.079, 37.307 249.965 L 43.483 254 26.313 254 C 12.037 254, 8.878 254.265, 7.571 255.571 C 5.596 257.546, 5.598 258.455, 7.579 260.436 C 8.990 261.847, 16.058 261.987, 74.220 261.757 C 134.934 261.517, 139.356 261.383, 140.386 259.750 C 141.191 258.474, 141.191 257.526, 140.387 256.250 C 139.413 254.704, 137.140 254.468, 120.895 254.226 L 102.506 253.953 108.003 250.837 C 116.966 245.757, 128.036 233.767, 132.861 223.913 C 138.375 212.651, 140.053 205.555, 140.053 193.500 C 140.053 181.543, 138.374 174.349, 133.041 163.450 C 123.603 144.165, 104.156 130.182, 82.398 127.037 C 74.447 125.887, 71.899 125.904, 63.102 127.162 M 199.571 127.571 C 198.176 128.966, 198 136.152, 198 191.571 L 198 254 183.571 254 C 171.788 254, 168.855 254.288, 167.571 255.571 C 165.595 257.548, 165.598 258.455, 167.585 260.442 C 168.978 261.835, 173.159 261.995, 202.226 261.763 C 232.452 261.523, 235.377 261.350, 236.386 259.750 C 237.190 258.475, 237.191 257.525, 236.387 256.250 C 235.430 254.730, 233.291 254.464, 220.142 254.224 L 205 253.948 205 191.174 C 205 128.929, 204.859 126, 201.871 126 C 201.471 126, 200.436 126.707, 199.571 127.571 M 423.750 127.080 C 422.143 128.016, 422 130.628, 422 159.050 L 422 190 391.934 190 C 373.122 190, 361.145 190.387, 359.934 191.035 C 358.870 191.605, 358 192.939, 358 194 C 358 195.061, 358.870 196.395, 359.934 196.965 C 361.145 197.613, 373.122 198, 391.934 198 L 422 198 422 228.965 C 422 259.226, 422.047 259.955, 424.064 261.034 C 425.596 261.854, 426.498 261.832, 427.564 260.947 C 428.755 259.958, 429 254.493, 429 228.878 L 429 198 454.736 198 L 480.472 198 467.236 211.263 C 459.956 218.558, 454 225.292, 454 226.228 C 454 227.164, 454.944 228.435, 456.097 229.052 C 458 230.070, 459.809 228.570, 475.597 212.875 C 485.169 203.360, 493 194.866, 493 194 C 493 193.134, 485.169 184.640, 475.597 175.125 C 459.809 159.430, 458 157.930, 456.097 158.948 C 454.944 159.565, 454 160.836, 454 161.772 C 454 162.708, 459.956 169.442, 467.236 176.737 L 480.472 190 454.736 190 L 429 190 429 159.200 C 429 125.561, 428.770 124.156, 423.750 127.080 M 57.500 135.870 C 37.436 141.645, 20.733 158.691, 15.585 178.644 C 13.554 186.517, 13.554 200.483, 15.585 208.356 C 20.838 228.716, 38.284 246.162, 58.644 251.415 C 66.367 253.407, 79.556 253.429, 87.897 251.463 C 113.802 245.356, 133 220.685, 133 193.500 C 133 166.315, 113.802 141.644, 87.897 135.537 C 79.386 133.531, 65.080 133.688, 57.500 135.870 M 290.355 158.992 C 283.486 160.430, 276.607 164.556, 271.181 170.492 C 259.107 183.704, 259.107 203.296, 271.181 216.508 C 288.093 235.012, 316.353 231.701, 327.999 209.851 C 330.727 204.732, 331.438 202.140, 331.788 196.025 C 332.302 187.073, 331.181 182.377, 326.778 175.035 C 319.625 163.108, 303.862 156.165, 290.355 158.992 M 285.500 168.387 C 272.006 174.778, 265.877 191.026, 271.880 204.500 C 276.394 214.633, 284.266 220.061, 295.494 220.781 C 301.721 221.181, 303.555 220.892, 308.145 218.791 C 314.380 215.937, 319.173 211.473, 322.271 205.634 C 324.003 202.372, 324.465 199.813, 324.465 193.500 C 324.465 184.507, 322.605 179.759, 316.810 173.963 C 308.856 166.010, 295.532 163.637, 285.500 168.387 M 295.750 191.080 C 293.372 192.465, 293.542 195.685, 296.064 197.034 C 299.753 199.008, 302.819 194.219, 299.800 191.200 C 298.367 189.767, 298.022 189.757, 295.750 191.080 " stroke="none" fill="black" fill-rule="evenodd"/>
</svg>