<svg xmlns="http://www.w3.org/2000/svg" width="340" height="324" viewBox="0 0 340 324" version="1.1">
	<path d="M 119.571 63.571 C 118.707 64.436, 118 65.317, 118 65.531 C 118 66.316, 135.159 100.529, 135.965 101.349 C 138.275 103.702, 140.913 100.229, 148.760 84.501 C 153.292 75.417, 157 67.143, 157 66.115 C 157 63.770, 154.710 61.790, 152.832 62.511 C 152.050 62.811, 148.520 68.894, 144.986 76.028 C 141.453 83.163, 138.308 89, 137.997 89 C 137.687 89, 134.748 83.534, 131.467 76.853 C 123.925 61.499, 122.847 60.296, 119.571 63.571 M 23.213 143.315 C 13.746 152.838, 6 161.131, 6 161.743 C 6 163.175, 8.813 166, 10.239 166 C 10.841 166, 17.334 160.059, 24.667 152.798 L 38 139.595 38 199.598 C 38 261.687, 38.020 262, 41.987 262 C 43.757 262, 78 228.013, 78 226.257 C 78 224.825, 75.187 222, 73.761 222 C 73.159 222, 66.666 227.941, 59.333 235.202 L 46 248.405 46 189.137 C 46 150.194, 45.645 129.205, 44.965 127.934 C 44.395 126.870, 43.141 126, 42.177 126 C 41.214 126, 32.680 133.792, 23.213 143.315 M 167.571 127.571 C 166.178 128.965, 166 135.899, 166 188.799 L 166 248.455 136.711 219.227 C 120.602 203.152, 106.909 190, 106.282 190 C 104.807 190, 102 192.810, 102 194.287 C 102 195.818, 168.128 262, 169.659 262 C 170.318 262, 171.564 261.293, 172.429 260.429 C 173.825 259.033, 174 251.687, 174 194.651 C 174 138.158, 173.813 130.178, 172.443 128.223 C 170.598 125.588, 169.678 125.465, 167.571 127.571 M 199.200 191.200 C 198.315 192.085, 198 201.117, 198 225.629 C 198 254.503, 198.206 259.063, 199.571 260.429 C 201.678 262.535, 202.598 262.412, 204.443 259.777 C 205.694 257.992, 206 254.425, 206 241.627 L 206 225.700 209.154 230.100 C 219.888 245.073, 233.084 254.528, 249 258.650 C 257.671 260.895, 273.440 260.855, 282 258.566 C 292.972 255.631, 303.604 249.428, 312.072 241.019 C 316.237 236.884, 321.065 231.025, 322.800 228 L 325.956 222.500 325.978 241.215 C 325.999 259.088, 326.093 259.979, 328.064 261.034 C 329.596 261.854, 330.498 261.832, 331.564 260.947 C 333.782 259.106, 333.693 192.820, 331.470 190.975 C 330.301 190.005, 329.359 189.971, 327.470 190.832 C 325.409 191.771, 324.998 192.664, 324.985 196.229 C 324.977 198.578, 324.283 203.425, 323.443 207 C 317.066 234.138, 293.177 253, 265.184 253 C 248.524 253, 234.905 247.229, 223 235.125 C 212.431 224.380, 206 210.282, 206 197.861 C 206 191.445, 202.441 187.959, 199.200 191.200 " stroke="none" fill="black" fill-rule="evenodd"/>
</svg>