<svg xmlns="http://www.w3.org/2000/svg" width="372" height="324" viewBox="0 0 372 324" version="1.1">
	<path d="M 39.267 159.267 C 20.970 177.563, 6 193.056, 6 193.695 C 6 195.187, 8.799 198, 10.285 198 C 10.913 198, 25.506 183.947, 42.713 166.771 L 74 135.542 105.287 166.771 C 122.494 183.947, 137.087 198, 137.715 198 C 139.201 198, 142 195.187, 142 193.695 C 142 191.982, 75.721 126, 74 126 C 73.193 126, 57.563 140.970, 39.267 159.267 M 223.102 127.108 C 197.640 130.961, 175.155 151.450, 168.349 177 C 166.078 185.527, 166.091 201.277, 168.377 210 C 171.584 222.236, 176.558 230.636, 186.461 240.539 C 200.528 254.606, 214.138 260.333, 233.500 260.333 C 252.862 260.333, 266.472 254.606, 280.539 240.539 C 294.606 226.472, 300.333 212.862, 300.333 193.500 C 300.333 174.138, 294.606 160.528, 280.539 146.461 C 270.823 136.745, 262.203 131.569, 250.831 128.621 C 243.080 126.612, 230.806 125.942, 223.102 127.108 M 218.645 135.584 C 198.671 140.419, 180.279 158.986, 175.537 179.103 C 170.672 199.742, 176.569 220.600, 191.484 235.516 C 206.400 250.431, 227.258 256.328, 247.897 251.463 C 268.261 246.662, 286.662 228.261, 291.463 207.897 C 293.390 199.718, 293.390 187.282, 291.463 179.103 C 286.662 158.739, 268.261 140.338, 247.897 135.537 C 239.998 133.676, 226.439 133.697, 218.645 135.584 M 231.571 159.571 C 230.212 160.931, 230 165.242, 230 191.571 L 230 222 215.571 222 C 203.788 222, 200.855 222.288, 199.571 223.571 C 197.598 225.545, 197.598 226.455, 199.571 228.429 C 200.936 229.793, 205.463 230, 234 230 C 262.537 230, 267.064 229.793, 268.429 228.429 C 270.402 226.455, 270.402 225.545, 268.429 223.571 C 267.145 222.288, 264.212 222, 252.429 222 L 238 222 238 191.571 C 238 165.242, 237.788 160.931, 236.429 159.571 C 235.564 158.707, 234.471 158, 234 158 C 233.529 158, 232.436 158.707, 231.571 159.571 M 327.571 159.571 C 326.227 160.916, 326 164.736, 326 186 C 326 207.264, 326.227 211.084, 327.571 212.429 C 328.436 213.293, 329.529 214, 330 214 C 330.471 214, 331.564 213.293, 332.429 212.429 C 333.773 211.084, 334 207.264, 334 186 C 334 164.736, 333.773 160.916, 332.429 159.571 C 331.564 158.707, 330.471 158, 330 158 C 329.529 158, 328.436 158.707, 327.571 159.571 M 327.571 222.571 C 326.707 223.436, 326 224.529, 326 225 C 326 226.111, 328.889 229, 330 229 C 331.111 229, 334 226.111, 334 225 C 334 223.889, 331.111 221, 330 221 C 329.529 221, 328.436 221.707, 327.571 222.571 " stroke="none" fill="black" fill-rule="evenodd"/>
</svg>