<svg xmlns="http://www.w3.org/2000/svg" width="436" height="324" viewBox="0 0 436 324" version="1.1">
	<path d="M 168.372 126.765 C 167.751 127.169, 163.538 134.925, 159.009 144 C 154.480 153.075, 150.713 160.573, 150.637 160.662 C 150.562 160.751, 147.800 160.133, 144.500 159.289 C 129.298 155.401, 112.430 164.212, 105.189 179.825 C 103.049 184.438, 102.551 187.001, 102.528 193.521 C 102.503 200.596, 102.887 202.328, 105.781 208.206 C 107.871 212.452, 110.884 216.508, 114.085 219.386 L 119.108 223.903 110.554 240.836 C 105.849 250.149, 102 258.255, 102 258.849 C 102 261.585, 106.790 262, 138.363 262 C 166.570 262, 171.064 261.793, 172.429 260.429 C 173.293 259.564, 174 258.471, 174 258 C 174 257.529, 173.293 256.436, 172.429 255.571 C 171.071 254.214, 166.849 254, 141.433 254 L 112.009 254 118.755 240.456 L 125.500 226.912 129.500 227.706 C 157.400 233.243, 179.927 207.016, 169.966 180.595 C 168.465 176.611, 166.012 172.905, 162.432 169.209 L 157.124 163.729 165.562 146.876 C 170.203 137.606, 174 129.824, 174 129.583 C 174 128.874, 170.920 125.999, 170.179 126.015 C 169.805 126.024, 168.992 126.361, 168.372 126.765 M 215.213 143.315 C 205.746 152.838, 198 161.131, 198 161.743 C 198 163.175, 200.813 166, 202.239 166 C 202.841 166, 209.334 160.059, 216.667 152.798 L 230 139.595 230 199.226 C 230 252.103, 230.178 259.035, 231.571 260.429 C 233.678 262.535, 234.598 262.412, 236.443 259.777 C 237.810 257.827, 238 250.338, 238 198.575 L 238 139.595 251.333 152.798 C 258.666 160.059, 265.136 166, 265.710 166 C 267.591 166, 269.235 163.074, 268.654 160.763 C 267.960 158.006, 235.957 126, 233.894 126 C 233.086 126, 224.680 133.792, 215.213 143.315 M 33.384 159.412 C 15.475 163.758, 3.559 181.807, 6.987 199.396 C 8.500 207.161, 12.212 214.019, 17.580 218.967 C 40.258 239.870, 76.252 224.246, 76.252 193.500 C 76.252 176.888, 65.367 163.178, 49.147 159.360 C 42.397 157.772, 40.111 157.779, 33.384 159.412 M 327.173 159.292 C 326.583 160.002, 325.966 163.710, 325.800 167.531 L 325.500 174.479 320.244 175.232 C 313.462 176.204, 303.705 180.681, 298 185.439 C 292.563 189.974, 291.232 192.370, 292.980 194.476 C 294.869 196.752, 296.595 196.353, 300.747 192.681 C 305.989 188.046, 310.609 185.452, 316.932 183.595 C 326.785 180.701, 326 178.865, 326 204.800 C 326 221.200, 326.337 227.937, 327.200 228.800 C 328.648 230.248, 393.644 230.511, 395.907 229.078 C 396.940 228.425, 397.340 225.720, 397.407 218.926 L 397.500 209.665 403.227 208.361 C 414.251 205.851, 428.420 196.845, 427.805 192.740 C 427.178 188.551, 424.558 188.409, 419.803 192.305 C 414.749 196.447, 406.301 200.536, 400.701 201.552 L 396.902 202.241 397.060 180.997 C 397.187 164.048, 396.944 159.579, 395.859 158.892 C 395.112 158.418, 379.593 158.024, 361.372 158.015 C 335.505 158.003, 328.010 158.283, 327.173 159.292 M 31.054 167.728 C 25.018 169.859, 17.781 177.260, 15.667 183.463 C 11.995 194.241, 14.382 205.477, 21.952 213.048 C 32.402 223.497, 49.888 223.773, 60.280 213.653 C 65.822 208.256, 68.291 202.953, 68.805 195.341 C 69.398 186.566, 67.025 180.120, 60.974 174.069 C 53.268 166.363, 41.802 163.933, 31.054 167.728 M 127.463 167.541 C 121.930 169.575, 116.531 174.240, 113.249 179.824 C 110.800 183.989, 110.500 185.483, 110.500 193.500 C 110.500 201.502, 110.803 203.015, 113.230 207.145 C 114.732 209.699, 117.408 213.007, 119.176 214.495 L 122.392 217.201 134.754 192.492 C 141.553 178.902, 146.835 167.502, 146.491 167.158 C 145.145 165.811, 131.415 166.088, 127.463 167.541 M 333.193 170.119 L 333.500 174.238 340.968 176.129 C 349.955 178.405, 357.764 182.906, 363.360 189.035 C 369.014 195.227, 373.118 197.935, 380.181 200.133 C 390.741 203.420, 390 204.637, 390 184 L 390 166 361.443 166 L 332.885 166 333.193 170.119 M 141.251 195.485 C 127.848 222.317, 128.044 221, 137.456 221 C 148.440 221, 157.002 215.686, 161.940 205.804 C 166.917 195.845, 165.899 185.689, 158.947 175.925 C 154.223 169.291, 154.473 169.015, 141.251 195.485 M 333 201.889 L 333 222 361.548 222 L 390.095 222 389.798 215.750 C 389.505 209.615, 389.445 209.494, 386.500 209.201 C 376.722 208.228, 367.053 203.302, 359.072 195.230 C 352.437 188.519, 344.150 183.774, 336.750 182.449 L 333 181.777 333 201.889 M 7.571 255.571 C 6.707 256.436, 6 257.529, 6 258 C 6 258.471, 6.707 259.564, 7.571 260.429 C 8.936 261.793, 13.463 262, 42 262 C 70.537 262, 75.064 261.793, 76.429 260.429 C 77.293 259.564, 78 258.471, 78 258 C 78 257.529, 77.293 256.436, 76.429 255.571 C 75.064 254.207, 70.537 254, 42 254 C 13.463 254, 8.936 254.207, 7.571 255.571 " stroke="none" fill="black" fill-rule="evenodd"/>
</svg>