<svg xmlns="http://www.w3.org/2000/svg" width="403" height="324" viewBox="0 0 403 324" version="1.1">
	<path d="M 40.316 62.784 C 38.369 64.022, 22.007 97.855, 22.604 99.410 C 23.269 101.144, 25.524 102.120, 27.295 101.440 C 28.007 101.167, 31.480 95.106, 35.014 87.972 C 38.547 80.837, 41.691 75, 42 75 C 42.309 75, 45.453 80.837, 48.986 87.972 C 52.520 95.106, 55.993 101.167, 56.705 101.440 C 58.487 102.124, 60.732 101.141, 61.407 99.381 C 61.997 97.844, 45.582 64.037, 43.628 62.765 C 42.214 61.845, 41.789 61.847, 40.316 62.784 M 7.571 127.571 C 6.175 128.968, 6 136.372, 6 194 C 6 251.628, 6.175 259.032, 7.571 260.429 C 8.436 261.293, 9.666 262, 10.305 262 C 12.018 262, 78 195.721, 78 194 C 78 192.279, 12.018 126, 10.305 126 C 9.666 126, 8.436 126.707, 7.571 127.571 M 103.571 127.571 C 102.707 128.436, 102 129.640, 102 130.249 C 102 130.857, 108.850 138.257, 117.223 146.692 L 132.446 162.030 117.223 177.277 C 108.850 185.662, 102 193.216, 102 194.062 C 102 197.835, 103.497 198, 137.629 198 C 166.892 198, 171.050 197.807, 172.473 196.384 C 173.362 195.495, 173.933 194.299, 173.742 193.726 C 173.551 193.153, 166.444 185.793, 157.947 177.369 L 142.500 162.054 157.750 146.765 C 166.137 138.356, 173 130.749, 173 129.861 C 173 127.319, 170.445 125.686, 168.314 126.865 C 167.316 127.418, 159.986 134.418, 152.025 142.422 L 137.551 156.975 122.346 141.488 C 113.984 132.969, 106.692 126, 106.142 126 C 105.593 126, 104.436 126.707, 103.571 127.571 M 255.531 127.056 C 227.437 131.418, 205.313 152.439, 199.589 180.208 C 197.337 191.134, 197.478 195.650, 200.117 197.062 C 203.407 198.823, 204.763 196.545, 205.908 187.335 C 207.875 171.511, 213.311 160.704, 224.653 150.074 C 236.268 139.189, 249.352 134, 265.184 134 C 287.923 134, 308.133 146.298, 317.876 166.062 C 322.037 174.501, 324.950 185.223, 324.983 192.215 C 325.003 196.642, 328.005 199.071, 330.696 196.837 C 332.952 194.965, 331.833 181.603, 328.630 172.165 C 325.083 161.712, 320.602 154.666, 311.911 145.876 C 305.663 139.557, 302.661 137.409, 294.911 133.709 C 289.735 131.238, 283.475 128.743, 281 128.165 C 274.080 126.548, 262.148 126.029, 255.531 127.056 M 14 194 L 14 248.495 41.248 221.248 L 68.495 194 41.248 166.752 L 14 139.505 14 194 M 263.750 159.080 C 262.207 159.979, 262 161.866, 262 175.050 L 262 190 247.934 190 C 233.308 190, 230 190.738, 230 194 C 230 197.262, 233.308 198, 247.934 198 L 262 198 262 212.965 C 262 227.061, 262.120 227.994, 264.064 229.034 C 268.315 231.309, 269 229.069, 269 212.904 L 269 198.052 284.142 197.776 C 297.291 197.536, 299.430 197.270, 300.387 195.750 C 301.191 194.475, 301.191 193.525, 300.387 192.250 C 299.430 190.730, 297.291 190.464, 284.142 190.224 L 269 189.948 269 175.174 C 269 158.586, 268.297 156.432, 263.750 159.080 M 359.750 159.080 C 358.155 160.009, 358 162.388, 358 186.015 C 358 211.174, 358.060 211.962, 360.064 213.034 C 361.596 213.854, 362.498 213.832, 363.564 212.947 C 364.744 211.968, 365 207.174, 365 186.078 C 365 157.906, 364.671 156.214, 359.750 159.080 M 126.549 178.178 L 115.773 189.500 126.887 189.783 C 132.999 189.938, 142.959 189.938, 149.020 189.783 L 160.039 189.500 148.682 178.178 L 137.325 166.856 126.549 178.178 M 359.750 222.080 C 357.372 223.465, 357.542 226.685, 360.064 228.034 C 363.753 230.008, 366.819 225.219, 363.800 222.200 C 362.367 220.767, 362.022 220.757, 359.750 222.080 " stroke="none" fill="black" fill-rule="evenodd"/>
</svg>