<svg xmlns="http://www.w3.org/2000/svg" width="340" height="324" viewBox="0 0 340 324" version="1.1">
	<path d="M 7.579 191.564 C 5.598 193.545, 5.596 194.454, 7.571 196.429 C 8.844 197.701, 11.697 198, 22.576 198 L 36.009 198 25.110 219.750 C 19.115 231.713, 13.221 242.625, 12.010 244 C 6.953 249.744, 4.772 257.629, 7.489 260.346 C 10.490 263.347, 11.808 262.364, 16 254 C 17.792 250.425, 19.762 247.169, 20.379 246.765 C 20.996 246.361, 23.457 246.024, 25.850 246.015 C 29.474 246.003, 30.767 246.567, 33.600 249.400 C 35.970 251.770, 37 253.718, 37 255.829 C 37 258.700, 39.139 262, 41 262 C 41.471 262, 42.576 261.281, 43.455 260.402 C 45.228 258.629, 44.770 253.552, 42.417 248.898 C 39.677 243.478, 31.095 238.032, 25.254 238.006 C 24.542 238.002, 27.753 230.495, 32.740 220.500 C 37.544 210.875, 41.718 203, 42.016 203 C 42.315 203, 49.071 216.093, 57.030 232.095 C 64.988 248.098, 71.842 261.402, 72.259 261.660 C 74.261 262.898, 76.907 260.423, 79.571 254.822 C 83.397 246.778, 84.289 246, 89.671 246 C 93.488 246, 94.734 246.534, 97.600 249.400 C 99.970 251.770, 101 253.718, 101 255.829 C 101 258.643, 103.130 262, 104.916 262 C 105.342 262, 106.438 261.173, 107.353 260.163 C 109.171 258.153, 108.794 253.650, 106.408 248.898 C 103.692 243.488, 95.099 238.032, 89.254 238.006 C 88.542 238.002, 91.753 230.495, 96.740 220.500 C 101.544 210.875, 105.718 203, 106.016 203 C 106.315 203, 113.042 216.034, 120.965 231.964 C 133.336 256.836, 136.352 262, 138.510 262 C 139.918 262, 142 258.318, 142 255.829 C 142 253.718, 143.030 251.770, 145.400 249.400 C 148.302 246.498, 149.488 246, 153.500 246 C 157.512 246, 158.698 246.498, 161.600 249.400 C 163.970 251.770, 165 253.718, 165 255.829 C 165 258.612, 167.126 262, 168.871 262 C 172.045 262, 173.087 254.002, 170.551 249.099 C 168.380 244.901, 162.546 240.224, 157.929 238.981 C 151.537 237.260, 144.179 239.546, 139.353 244.753 C 138.048 246.161, 136.810 247.130, 136.602 246.907 C 136.393 246.683, 130.777 235.600, 124.122 222.278 L 112.020 198.056 125.653 197.778 C 137.361 197.539, 139.441 197.253, 140.388 195.750 C 141.191 194.475, 141.190 193.525, 140.386 192.250 C 139.356 190.617, 134.934 190.483, 74.220 190.243 C 16.058 190.013, 8.990 190.153, 7.579 191.564 M 225.500 191.364 C 218.664 193.110, 214.523 195.430, 208.972 200.623 C 194.895 213.790, 194.902 237.216, 208.987 250.392 C 214.772 255.802, 219.730 258.403, 227.198 259.944 C 237.607 262.092, 249.252 258.558, 257.358 250.790 L 262 246.343 262 252.600 C 262 258.457, 263.459 262, 265.871 262 C 268.433 262, 269 258.884, 269 244.800 L 269 230 297.500 230 L 326 230 326 244.965 C 326 259.181, 326.106 259.986, 328.117 261.062 C 332.830 263.585, 333.043 262.068, 333.043 226 C 333.043 189.932, 332.830 188.415, 328.117 190.938 C 326.106 192.014, 326 192.819, 326 207.035 L 326 222 297.500 222 L 269 222 269 207.200 C 269 193.116, 268.433 190, 265.871 190 C 263.545 190, 262 193.541, 262 198.872 L 262 204.602 256.938 199.850 C 248.730 192.143, 235.949 188.694, 225.500 191.364 M 60.107 222.250 C 66.771 235.588, 72.418 246.707, 72.656 246.961 C 73.826 248.207, 79.055 239.519, 89.032 219.750 L 100.009 198 74 198 L 47.992 198 60.107 222.250 M 223.627 199.468 C 218.247 201.386, 213.039 205.829, 209.500 211.519 C 205.527 217.908, 204.712 229.311, 207.741 236.129 C 212.181 246.120, 220.127 251.919, 230.521 252.754 C 242.446 253.711, 252.036 248.794, 257.500 238.921 C 260.132 234.166, 260.500 232.518, 260.500 225.500 C 260.500 218.487, 260.130 216.829, 257.500 212.061 C 254.429 206.492, 248.651 201.526, 242.684 199.326 C 238.327 197.720, 228.323 197.794, 223.627 199.468 " stroke="none" fill="black" fill-rule="evenodd"/>
</svg>