<svg xmlns="http://www.w3.org/2000/svg" width="148" height="324" viewBox="0 0 148 324" version="1.1">
	<path d="M 7.571 127.571 C 6.175 128.968, 6 136.372, 6 194 C 6 251.628, 6.175 259.032, 7.571 260.429 C 8.436 261.293, 9.529 262, 10 262 C 10.471 262, 11.564 261.293, 12.429 260.429 C 13.825 259.032, 14 251.628, 14 194 C 14 136.372, 13.825 128.968, 12.429 127.571 C 11.564 126.707, 10.471 126, 10 126 C 9.529 126, 8.436 126.707, 7.571 127.571 M 135.750 127.080 C 134.111 128.035, 134 132.293, 134 194.015 C 134 259.587, 134.011 259.935, 136.064 261.034 C 141.084 263.721, 141 264.854, 141 194.078 C 141 123.068, 141.071 123.981, 135.750 127.080 " stroke="none" fill="black" fill-rule="evenodd"/>
</svg>