<svg xmlns="http://www.w3.org/2000/svg" width="468" height="324" viewBox="0 0 468 324" version="1.1">
	<path d="M 168.316 62.784 C 166.369 64.022, 150.007 97.855, 150.604 99.410 C 151.269 101.144, 153.524 102.120, 155.295 101.440 C 156.007 101.167, 159.480 95.106, 163.014 87.972 C 166.547 80.837, 169.691 75, 170 75 C 170.309 75, 173.453 80.837, 176.986 87.972 C 180.520 95.106, 183.993 101.167, 184.705 101.440 C 186.476 102.120, 188.731 101.144, 189.396 99.410 C 189.993 97.855, 173.631 64.022, 171.684 62.784 C 170.206 61.844, 169.794 61.844, 168.316 62.784 M 23.213 143.315 C 13.746 152.838, 6 161.131, 6 161.743 C 6 163.175, 8.813 166, 10.239 166 C 10.841 166, 17.334 160.059, 24.667 152.798 L 38 139.595 38 199.598 C 38 261.687, 38.020 262, 41.987 262 C 43.757 262, 78 228.013, 78 226.257 C 78 224.825, 75.187 222, 73.761 222 C 73.159 222, 66.666 227.941, 59.333 235.202 L 46 248.405 46 188.402 C 46 126.313, 45.980 126, 42.013 126 C 41.140 126, 32.680 133.792, 23.213 143.315 M 391.571 127.571 C 390.212 128.931, 390 133.242, 390 159.571 L 390 190 359.571 190 C 333.242 190, 328.931 190.212, 327.571 191.571 C 325.598 193.545, 325.598 194.455, 327.571 196.429 C 328.931 197.788, 333.242 198, 359.571 198 L 390 198 390 228.429 C 390 254.758, 390.212 259.069, 391.571 260.429 C 392.436 261.293, 393.529 262, 394 262 C 394.471 262, 395.564 261.293, 396.429 260.429 C 397.788 259.069, 398 254.758, 398 228.429 L 398 198 428.429 198 C 454.758 198, 459.069 197.788, 460.429 196.429 C 462.402 194.455, 462.402 193.545, 460.429 191.571 C 459.069 190.212, 454.758 190, 428.429 190 L 398 190 398 159.571 C 398 133.242, 397.788 128.931, 396.429 127.571 C 395.564 126.707, 394.471 126, 394 126 C 393.529 126, 392.436 126.707, 391.571 127.571 M 263.571 159.571 C 262.707 160.436, 262 161.636, 262 162.239 C 262 162.841, 267.941 169.334, 275.202 176.667 L 288.405 190 228.774 190 C 175.897 190, 168.965 190.178, 167.571 191.571 C 165.598 193.545, 165.598 194.455, 167.571 196.429 C 168.965 197.822, 175.897 198, 228.774 198 L 288.405 198 275.202 211.333 C 267.941 218.666, 262 225.159, 262 225.761 C 262 227.187, 264.825 230, 266.257 230 C 268.006 230, 302 195.761, 302 194 C 302 192.239, 268.006 158, 266.257 158 C 265.644 158, 264.436 158.707, 263.571 159.571 M 199.571 223.571 C 198.707 224.436, 198 225.636, 198 226.239 C 198 226.841, 203.941 233.334, 211.202 240.667 L 224.405 254 164.774 254 C 111.897 254, 104.965 254.178, 103.571 255.571 C 101.598 257.545, 101.598 258.455, 103.571 260.429 C 104.965 261.822, 111.897 262, 164.774 262 L 224.405 262 211.202 275.333 C 203.941 282.666, 198 289.159, 198 289.761 C 198 291.187, 200.825 294, 202.257 294 C 204.006 294, 238 259.761, 238 258 C 238 256.239, 204.006 222, 202.257 222 C 201.644 222, 200.436 222.707, 199.571 223.571 " stroke="none" fill="black" fill-rule="evenodd"/>
</svg>