<svg xmlns="http://www.w3.org/2000/svg" width="468" height="324" viewBox="0 0 468 324" version="1.1">
	<path d="M 223.102 127.108 C 197.640 130.961, 175.155 151.450, 168.349 177 C 166.078 185.527, 166.091 201.277, 168.377 210 C 171.585 222.239, 176.558 230.636, 186.461 240.535 C 193.602 247.672, 197.136 250.360, 203.290 253.334 C 214.007 258.513, 231.272 262.296, 237.823 260.900 C 239.845 260.469, 244.875 259.396, 249 258.516 C 261.502 255.849, 270.171 250.907, 280.539 240.539 C 294.606 226.472, 300.333 212.862, 300.333 193.500 C 300.333 174.138, 294.606 160.528, 280.539 146.461 C 270.823 136.745, 262.203 131.569, 250.831 128.621 C 243.080 126.612, 230.806 125.942, 223.102 127.108 M 343.213 143.315 C 333.746 152.838, 326 161.131, 326 161.743 C 326 163.175, 328.813 166, 330.239 166 C 330.841 166, 337.334 160.059, 344.667 152.798 L 358 139.595 358 199.226 C 358 252.103, 358.178 259.035, 359.571 260.429 C 360.436 261.293, 361.529 262, 362 262 C 362.471 262, 363.564 261.293, 364.429 260.429 C 365.822 259.035, 366 252.103, 366 199.226 L 366 139.595 379.333 152.798 C 386.666 160.059, 393.159 166, 393.761 166 C 395.187 166, 398 163.175, 398 161.743 C 398 159.994, 363.761 126, 362 126 C 361.134 126, 352.680 133.792, 343.213 143.315 M 423.571 127.571 C 422.178 128.965, 422 135.897, 422 188.774 L 422 248.405 408.667 235.202 C 401.334 227.941, 394.841 222, 394.239 222 C 392.813 222, 390 224.825, 390 226.257 C 390 228.006, 424.239 262, 426 262 C 427.761 262, 462 228.006, 462 226.257 C 462 224.825, 459.187 222, 457.761 222 C 457.159 222, 450.666 227.941, 443.333 235.202 L 430 248.405 430 188.774 C 430 135.897, 429.822 128.965, 428.429 127.571 C 427.564 126.707, 426.471 126, 426 126 C 425.529 126, 424.436 126.707, 423.571 127.571 M 218.645 135.584 C 198.671 140.419, 180.279 158.986, 175.537 179.103 C 173.610 187.282, 173.610 199.718, 175.537 207.897 C 180.338 228.261, 198.739 246.662, 219.103 251.463 C 222.621 252.292, 226.512 252.977, 227.750 252.985 L 230 253 230 193.500 L 230 134 227.250 134.083 C 225.738 134.129, 221.865 134.804, 218.645 135.584 M 238 193.500 C 238 249.506, 238.103 252.999, 239.750 252.985 C 240.713 252.977, 244.379 252.292, 247.897 251.463 C 268.261 246.662, 286.662 228.261, 291.463 207.897 C 293.390 199.718, 293.390 187.282, 291.463 179.103 C 286.662 158.739, 268.261 140.338, 247.897 135.537 C 244.379 134.708, 240.713 134.023, 239.750 134.015 C 238.103 134.001, 238 137.494, 238 193.500 M 65.384 159.412 C 58.826 161.003, 52.253 164.870, 47.881 169.710 C 44.681 173.252, 43.825 173.618, 36.119 174.741 C 30.568 175.551, 25.432 177.106, 20.654 179.424 C 11.983 183.632, 4.737 190.136, 5.188 193.307 C 5.706 196.945, 9.681 196.696, 13.870 192.764 C 15.867 190.890, 18.782 188.562, 20.349 187.590 C 24.355 185.107, 33.756 182, 37.265 182 C 39.820 182, 40.144 182.303, 39.677 184.250 C 36.467 197.620, 40.051 210.183, 49.580 218.967 C 64.380 232.610, 86.172 231.613, 99.598 216.679 C 102.019 213.987, 104 211.425, 104 210.986 C 104 210.547, 106.362 209.890, 109.250 209.526 C 123.486 207.731, 140 198.568, 140 192.464 C 140 188.434, 136.557 188.410, 131.681 192.406 C 126.419 196.717, 118.020 200.665, 112.114 201.603 L 107.728 202.299 108.429 197.623 C 109.247 192.171, 107.630 183.196, 104.841 177.705 C 100.264 168.695, 91.293 161.748, 81.147 159.360 C 74.397 157.772, 72.111 157.779, 65.384 159.412 M 63.591 167.573 C 56.854 170.042, 50.331 176, 54.366 176 C 57.430 176, 69.924 183.250, 74.308 187.572 C 76.889 190.116, 79 192.541, 79 192.960 C 79 194.135, 89.974 199.677, 94.893 200.985 C 100.324 202.430, 100.963 201.689, 100.985 193.928 C 101.029 177.694, 89.179 165.867, 73.072 166.070 C 70.007 166.109, 65.741 166.785, 63.591 167.573 M 47.072 185.224 C 45.498 189.739, 45.765 197.954, 47.667 203.537 C 53.575 220.875, 77.473 226.703, 91.928 214.330 C 94.217 212.371, 95.938 210.313, 95.753 209.758 C 95.568 209.203, 92.853 207.956, 89.720 206.986 C 82.259 204.678, 75.024 199.955, 70.512 194.449 C 66.324 189.339, 60.710 185.816, 53.322 183.661 L 48.143 182.150 47.072 185.224 M 39.571 255.571 C 38.707 256.436, 38 257.529, 38 258 C 38 258.471, 38.707 259.564, 39.571 260.429 C 40.936 261.793, 45.463 262, 74 262 C 102.537 262, 107.064 261.793, 108.429 260.429 C 109.293 259.564, 110 258.471, 110 258 C 110 257.529, 109.293 256.436, 108.429 255.571 C 107.064 254.207, 102.537 254, 74 254 C 45.463 254, 40.936 254.207, 39.571 255.571 " stroke="none" fill="black" fill-rule="evenodd"/>
</svg>