<svg xmlns="http://www.w3.org/2000/svg" width="244" height="324" viewBox="0 0 244 324" version="1.1">
	<path d="M 23.213 143.315 C 13.746 152.838, 6 161.131, 6 161.743 C 6 163.175, 8.813 166, 10.239 166 C 10.841 166, 17.334 160.059, 24.667 152.798 L 38 139.595 38 199.675 C 38 263.843, 37.943 263.105, 42.741 261.582 C 45 260.865, 78 227.801, 78 226.255 C 78 224.825, 75.186 222, 73.761 222 C 73.159 222, 66.666 227.941, 59.333 235.202 L 46 248.405 46 188.774 C 46 135.897, 45.822 128.965, 44.429 127.571 C 43.564 126.707, 42.310 126, 41.641 126 C 40.972 126, 32.680 133.792, 23.213 143.315 M 103.200 127.200 C 101.465 128.935, 101.465 259.065, 103.200 260.800 C 104.109 261.709, 120.172 261.996, 169.450 261.985 C 205.227 261.976, 235.072 261.606, 235.772 261.162 C 237.639 259.977, 237.639 128.023, 235.772 126.838 C 235.072 126.394, 205.228 126.024, 169.450 126.015 C 120.172 126.004, 104.109 126.291, 103.200 127.200 M 142.752 161.248 L 170 188.495 197.248 161.248 L 224.495 134 170 134 L 115.505 134 142.752 161.248 M 202.666 166.524 L 175.833 194.009 202.666 221.420 L 229.500 248.832 229.766 221.416 C 229.912 206.337, 229.912 181.634, 229.766 166.519 L 229.500 139.039 202.666 166.524 M 110 194 L 110 248.495 137.248 221.248 L 164.495 194 137.248 166.752 L 110 139.505 110 194 M 142.500 227 L 115.514 254 170 254 L 224.486 254 197.500 227 C 182.658 212.150, 170.283 200, 170 200 C 169.717 200, 157.342 212.150, 142.500 227 " stroke="none" fill="black" fill-rule="evenodd"/>
</svg>