<svg xmlns="http://www.w3.org/2000/svg" width="372" height="324" viewBox="0 0 372 324" version="1.1">
	<path d="M 55.571 63.571 C 54.707 64.436, 54 65.332, 54 65.564 C 54 67.123, 71.710 101.058, 72.727 101.449 C 73.427 101.717, 74.573 101.717, 75.273 101.449 C 77.129 100.736, 94.063 66.328, 93.403 64.609 C 92.732 62.858, 90.483 61.877, 88.705 62.560 C 87.993 62.833, 84.520 68.894, 80.986 76.028 C 77.453 83.163, 74.308 89, 73.997 89 C 73.687 89, 70.748 83.534, 67.467 76.853 C 59.925 61.499, 58.847 60.296, 55.571 63.571 M 7.571 127.571 C 6.175 128.968, 6 136.372, 6 194 C 6 251.628, 6.175 259.032, 7.571 260.429 C 8.436 261.293, 9.529 262, 10 262 C 10.471 262, 11.564 261.293, 12.429 260.429 C 13.825 259.032, 14 251.628, 14 194 C 14 136.372, 13.825 128.968, 12.429 127.571 C 11.564 126.707, 10.471 126, 10 126 C 9.529 126, 8.436 126.707, 7.571 127.571 M 135.571 127.571 C 134.175 128.968, 134 136.372, 134 194 C 134 251.628, 134.175 259.032, 135.571 260.429 C 136.436 261.293, 137.529 262, 138 262 C 138.471 262, 139.564 261.293, 140.429 260.429 C 141.825 259.032, 142 251.628, 142 194 C 142 136.372, 141.825 128.968, 140.429 127.571 C 139.564 126.707, 138.471 126, 138 126 C 137.529 126, 136.436 126.707, 135.571 127.571 M 193.608 132.122 C 181.685 143.048, 172.326 158.975, 168.414 175 C 165.835 185.565, 166.053 202.797, 168.902 213.500 C 173.246 229.819, 181.567 243.680, 193.980 255.274 L 201.181 262 265.974 262 L 330.767 262 338.041 254.525 C 347.256 245.056, 351.251 239.521, 356.105 229.500 C 362.204 216.908, 364.259 207.692, 364.245 193 C 364.234 182.432, 363.826 179.141, 361.607 171.703 C 356.868 155.824, 349.332 143.386, 337.701 132.250 L 331.173 126 265.731 126 L 200.289 126 193.608 132.122 M 195.202 140.889 C 180.039 156.476, 173.339 174.456, 174.293 197 C 175.131 216.810, 182.262 233.193, 196.045 246.976 L 203.069 254 265.500 254 L 327.931 254 334.955 246.976 C 343.179 238.752, 349.974 227.719, 353.724 216.500 C 356.149 209.247, 356.399 207.100, 356.399 193.500 C 356.399 179.900, 356.149 177.753, 353.724 170.500 C 350.071 159.572, 343.347 148.501, 335.566 140.604 L 329.059 134 265.481 134 L 201.903 134 195.202 140.889 " stroke="none" fill="black" fill-rule="evenodd"/>
</svg>