<svg xmlns="http://www.w3.org/2000/svg" width="372" height="324" viewBox="0 0 372 324" version="1.1">
	<path d="M 7.571 127.571 C 6.707 128.436, 6 129.666, 6 130.305 C 6 130.944, 20.970 146.437, 39.267 164.733 L 72.533 198 86.270 198 L 100.006 198 85.020 227.961 C 76.777 244.439, 70.285 258.580, 70.594 259.384 C 71.265 261.133, 73.512 262.125, 75.274 261.448 C 75.975 261.180, 83.056 247.919, 91.010 231.980 C 98.964 216.041, 105.710 203, 106 203 C 106.290 203, 113.036 216.041, 120.990 231.980 C 128.944 247.919, 136.025 261.180, 136.726 261.448 C 137.427 261.717, 138.573 261.717, 139.274 261.448 C 139.975 261.180, 147.056 247.919, 155.010 231.980 C 162.964 216.041, 169.710 203, 170 203 C 170.290 203, 177.036 216.041, 184.990 231.980 C 192.944 247.919, 200.025 261.180, 200.726 261.448 C 202.488 262.125, 204.735 261.133, 205.406 259.384 C 205.715 258.580, 199.223 244.439, 190.980 227.961 L 175.994 198 189.425 198 C 200.303 198, 203.156 197.701, 204.429 196.429 C 205.293 195.564, 206 194.334, 206 193.695 C 206 192.177, 139.823 126, 138.305 126 C 136.814 126, 134 128.799, 134 130.282 C 134 130.909, 147.152 144.602, 163.227 160.711 L 192.455 190 165.998 190 L 139.540 190 107.485 158 C 89.854 140.400, 74.914 126, 74.286 126 C 72.810 126, 70 128.808, 70 130.282 C 70 130.909, 83.152 144.602, 99.227 160.711 L 128.455 190 101.998 190 L 75.540 190 43.485 158 C 25.854 140.400, 10.914 126, 10.286 126 C 9.657 126, 8.436 126.707, 7.571 127.571 M 231.571 191.571 C 230.707 192.436, 230 193.334, 230 193.568 C 230 195.149, 263.728 261.065, 264.735 261.452 C 265.431 261.719, 266.573 261.717, 267.274 261.448 C 267.975 261.180, 275.056 247.919, 283.010 231.980 C 290.964 216.041, 297.710 203, 298 203 C 298.290 203, 305.036 216.041, 312.990 231.980 C 320.944 247.919, 328.025 261.180, 328.726 261.448 C 329.427 261.717, 330.569 261.719, 331.265 261.452 C 332.272 261.065, 366 195.149, 366 193.568 C 366 193.334, 365.293 192.436, 364.429 191.571 C 363.032 190.175, 355.628 190, 298 190 C 240.372 190, 232.968 190.175, 231.571 191.571 M 124.743 223.500 C 131.750 237.525, 137.715 249, 138 249 C 138.285 249, 144.250 237.525, 151.257 223.500 L 163.995 198 138 198 L 112.005 198 124.743 223.500 M 252.743 223.500 C 259.750 237.525, 265.715 249, 266 249 C 266.285 249, 272.250 237.525, 279.257 223.500 L 291.995 198 266 198 L 240.005 198 252.743 223.500 M 316.743 223.500 C 323.750 237.525, 329.715 249, 330 249 C 330.285 249, 336.250 237.525, 343.257 223.500 L 355.995 198 330 198 L 304.005 198 316.743 223.500 " stroke="none" fill="black" fill-rule="evenodd"/>
</svg>