<svg xmlns="http://www.w3.org/2000/svg" width="547" height="324" viewBox="0 0 547 324" version="1.1">
	<path d="M 55.571 63.571 C 54.707 64.436, 54 65.609, 54 66.178 C 54 66.747, 57.226 70.540, 61.169 74.607 L 68.338 82 61.169 89.393 C 57.226 93.460, 54 97.253, 54 97.822 C 54 99.161, 56.839 102, 58.178 102 C 58.747 102, 62.540 98.774, 66.607 94.831 L 74 87.662 81.393 94.831 C 85.460 98.774, 89.215 102, 89.738 102 C 90.842 102, 94 98.713, 94 97.565 C 94 97.137, 90.774 93.460, 86.831 89.393 L 79.662 82 86.831 74.607 C 90.774 70.540, 94 66.785, 94 66.262 C 94 65.158, 90.713 62, 89.565 62 C 89.137 62, 85.460 65.226, 81.393 69.169 L 74 76.338 66.607 69.169 C 62.540 65.226, 58.747 62, 58.178 62 C 57.609 62, 56.436 62.707, 55.571 63.571 M 327.750 127.080 C 326.150 128.012, 326 130.476, 326 155.858 L 326 183.617 318.250 179.821 C 300.709 171.231, 281.849 173.158, 266.336 185.127 C 260.675 189.494, 259.128 192.245, 261.040 194.548 C 262.922 196.816, 264.513 196.317, 269.689 191.835 C 272.335 189.545, 276.975 186.515, 280 185.102 C 284.848 182.838, 286.804 182.532, 296.500 182.517 C 306.369 182.502, 308.090 182.776, 313.235 185.188 C 316.390 186.666, 320.552 189.082, 322.485 190.557 L 326 193.237 326 221.337 L 326 249.437 320.120 243.619 C 314.896 238.450, 314.004 237.927, 312.120 238.936 C 308.640 240.798, 309.626 243.076, 317.225 250.726 L 324.450 258 317.225 265.274 C 309.626 272.924, 308.640 275.202, 312.120 277.064 C 314.004 278.073, 314.896 277.550, 320.120 272.381 L 326 266.563 326 279.246 C 326 291.037, 326.145 292.007, 328.064 293.034 C 332.177 295.236, 333 292.934, 333 279.225 L 333 266.696 338.926 272.348 C 345.212 278.344, 345.907 278.693, 347.800 276.800 C 350.049 274.551, 349.003 272.550, 341.775 265.274 L 334.550 258 341.775 250.726 C 349.003 243.450, 350.049 241.449, 347.800 239.200 C 345.907 237.307, 345.212 237.656, 338.926 243.652 L 333 249.304 333 225.223 L 333 201.141 337.379 203.588 C 350.560 210.955, 366.888 211.454, 380.943 204.920 C 393.276 199.186, 398.761 192.747, 393.903 189.704 C 392.674 188.934, 391.052 189.651, 386.858 192.818 C 378.615 199.041, 372.754 201.285, 363.409 201.793 C 357.619 202.109, 353.640 201.747, 349.421 200.520 C 342.514 198.512, 335.363 194.548, 333.977 191.957 C 333.401 190.882, 333 177.450, 333 159.266 C 333 125.556, 332.771 124.155, 327.750 127.080 M 193.500 159.364 C 186.664 161.110, 182.523 163.430, 176.972 168.623 C 162.895 181.790, 162.902 205.216, 176.987 218.392 C 188.345 229.015, 202.311 231.380, 216.534 225.088 C 222.256 222.557, 229.918 214.858, 233.043 208.500 C 235.155 204.201, 235.500 202.097, 235.500 193.500 C 235.500 181.367, 233.450 176.286, 225.353 168.339 C 217.063 160.205, 204.292 156.606, 193.500 159.364 M 191.627 167.468 C 186.247 169.386, 181.039 173.829, 177.500 179.519 C 173.527 185.908, 172.712 197.311, 175.741 204.129 C 180.181 214.120, 188.127 219.919, 198.521 220.754 C 210.446 221.711, 220.036 216.794, 225.500 206.921 C 228.132 202.166, 228.500 200.518, 228.500 193.500 C 228.500 186.487, 228.130 184.829, 225.500 180.061 C 222.429 174.492, 216.651 169.526, 210.684 167.326 C 206.327 165.720, 196.323 165.794, 191.627 167.468 M 127.870 191.049 C 120.273 192.195, 110.649 195.512, 104.100 199.243 C 97.093 203.234, 86.087 213.656, 81.363 220.773 C 76.858 227.559, 72.422 238.687, 71.505 245.500 C 70.237 254.922, 73.708 254, 39.504 254 C 13.236 254, 8.931 254.212, 7.571 255.571 C 5.598 257.545, 5.598 258.455, 7.571 260.429 C 8.900 261.758, 12.389 262, 30.188 262 L 51.233 262 47.660 265.955 C 31.947 283.347, 37.048 310.168, 58.151 321.114 C 64.798 324.562, 78.463 324.957, 86.493 321.932 C 94.699 318.841, 102.839 310.701, 105.934 302.493 C 110.545 290.259, 108.145 275.990, 99.899 266.623 L 95.865 262.039 117.574 261.770 C 136.986 261.529, 139.400 261.315, 140.387 259.750 C 141.191 258.474, 141.191 257.526, 140.386 256.250 C 139.381 254.655, 136.566 254.477, 108.641 254.236 L 78 253.971 78 251.196 C 78 240.862, 85.633 225.143, 95.388 215.388 C 105.932 204.844, 117.664 199.362, 132.396 198.094 C 139.982 197.441, 142.495 195.605, 140.394 192.250 C 139.112 190.203, 135.668 189.873, 127.870 191.049 M 199.616 191.527 C 198.727 192.416, 198 193.529, 198 194 C 198 195.389, 201.140 198.120, 202.295 197.735 C 204.395 197.035, 205.549 194.094, 204.423 192.310 C 202.905 189.902, 201.474 189.669, 199.616 191.527 M 450.355 190.992 C 440.044 193.150, 430.073 201.080, 425.205 210.993 C 422.873 215.740, 422.500 217.743, 422.500 225.500 C 422.500 233.257, 422.873 235.260, 425.205 240.007 C 428.880 247.489, 435.217 253.677, 442.942 257.326 C 448.419 259.912, 450.517 260.359, 456.942 260.302 C 465.759 260.225, 471.267 258.443, 478.033 253.475 C 492.893 242.567, 496.345 221.432, 485.853 205.592 C 478.564 194.587, 463.258 188.292, 450.355 190.992 M 502.200 191.200 C 500.401 192.999, 500.707 194.189, 503.992 198.174 C 511.690 207.513, 515.199 220.369, 513.124 231.629 C 511.751 239.082, 508.169 246.858, 503.811 251.849 C 500.211 255.973, 500.344 259.366, 504.123 259.804 C 506.993 260.137, 510.347 256.585, 515.271 248 C 520.393 239.068, 522.363 224.667, 519.921 214 C 517.821 204.826, 508.623 190, 505.033 190 C 504.135 190, 502.860 190.540, 502.200 191.200 M 445.500 200.353 C 439.873 202.979, 433.871 209.089, 431.378 214.728 C 430.340 217.077, 429.711 221.141, 429.711 225.500 C 429.711 233.703, 431.431 238.254, 436.773 244.179 C 447.638 256.232, 466.403 256.034, 477.683 243.746 C 481.999 239.045, 485 231.561, 485 225.500 C 485 215.480, 477.989 204.797, 468.500 200.358 C 461.632 197.146, 452.377 197.144, 445.500 200.353 M 167.585 255.558 C 166.713 256.430, 166 257.529, 166 258 C 166 258.471, 166.713 259.570, 167.585 260.442 C 168.978 261.835, 173.159 261.995, 202.226 261.763 C 232.452 261.523, 235.377 261.350, 236.386 259.750 C 237.191 258.474, 237.191 257.526, 236.386 256.250 C 235.377 254.650, 232.452 254.477, 202.226 254.237 C 173.159 254.005, 168.978 254.165, 167.585 255.558 M 63.463 263.591 C 57.971 265.541, 52.552 270.205, 49.249 275.824 C 46.800 279.989, 46.500 281.483, 46.500 289.500 C 46.500 297.517, 46.800 299.011, 49.249 303.176 C 56.156 314.926, 70.075 319.920, 83.329 315.403 C 88.795 313.541, 95.688 307.233, 98.523 301.500 C 101.292 295.897, 101.292 283.103, 98.523 277.500 C 95.688 271.767, 88.795 265.459, 83.329 263.597 C 77.635 261.656, 68.919 261.654, 63.463 263.591 " stroke="none" fill="black" fill-rule="evenodd"/>
</svg>