<svg xmlns="http://www.w3.org/2000/svg" width="244" height="324" viewBox="0 0 244 324" version="1.1">
	<path d="M 87.571 63.571 C 86.707 64.436, 86 65.317, 86 65.531 C 86 66.316, 103.159 100.529, 103.965 101.349 C 106.297 103.725, 108.927 100.197, 117.239 83.541 C 122.036 73.928, 125.710 65.408, 125.403 64.609 C 124.695 62.762, 122.456 61.888, 120.428 62.666 C 119.563 62.998, 116.076 69.046, 112.678 76.106 C 109.280 83.166, 106.260 88.956, 105.967 88.971 C 105.673 88.987, 102.748 83.534, 99.467 76.853 C 91.925 61.499, 90.847 60.296, 87.571 63.571 M 23.213 143.315 C 13.746 152.838, 6 161.131, 6 161.743 C 6 163.175, 8.813 166, 10.239 166 C 10.841 166, 17.334 160.059, 24.667 152.798 L 38 139.595 38 199.675 C 38 263.843, 37.943 263.105, 42.741 261.582 C 45 260.865, 78 227.801, 78 226.255 C 78 224.825, 75.186 222, 73.761 222 C 73.159 222, 66.666 227.941, 59.333 235.202 L 46 248.405 46 188.774 C 46 135.897, 45.822 128.965, 44.429 127.571 C 43.564 126.707, 42.310 126, 41.641 126 C 40.972 126, 32.680 133.792, 23.213 143.315 M 199.750 127.080 C 198.111 128.035, 198 132.293, 198 194.015 L 198 259.930 200.183 261.098 C 202.042 262.093, 202.636 261.933, 204.183 260.022 C 205.896 257.906, 206 254.151, 206 194.112 C 206 138.107, 205.813 130.178, 204.443 128.223 C 202.702 125.736, 202.248 125.625, 199.750 127.080 M 111.184 199.365 C 106.133 204.516, 102 209.209, 102 209.794 C 102 211.133, 104.816 214, 106.131 214 C 106.675 214, 109.568 211.685, 112.560 208.855 L 118 203.710 118 228.855 L 118 254 111.571 254 C 107.061 254, 104.674 254.469, 103.571 255.571 C 101.598 257.545, 101.598 258.455, 103.571 260.429 C 105.900 262.757, 138.100 262.757, 140.429 260.429 C 142.402 258.455, 142.402 257.545, 140.429 255.571 C 139.326 254.469, 136.939 254, 132.429 254 L 126 254 126 223.571 C 126 197.242, 125.788 192.931, 124.429 191.571 C 123.564 190.707, 122.297 190, 121.613 190 C 120.928 190, 116.236 194.214, 111.184 199.365 M 231.750 191.080 C 229.372 192.465, 229.542 195.685, 232.064 197.034 C 235.753 199.008, 238.819 194.219, 235.800 191.200 C 234.367 189.767, 234.022 189.757, 231.750 191.080 M 167.750 255.080 C 165.372 256.465, 165.542 259.685, 168.064 261.034 C 171.753 263.008, 174.819 258.219, 171.800 255.200 C 170.367 253.767, 170.022 253.757, 167.750 255.080 " stroke="none" fill="black" fill-rule="evenodd"/>
</svg>