<svg xmlns="http://www.w3.org/2000/svg" width="468" height="324" viewBox="0 0 468 324" version="1.1">
	<path d="M 168.515 158 L 136.460 190 72.801 190 C 16.263 190, 8.967 190.176, 7.571 191.571 C 5.598 193.545, 5.598 194.455, 7.571 196.429 C 8.844 197.701, 11.697 198, 22.575 198 L 36.006 198 21.020 227.961 C 12.777 244.439, 6.285 258.580, 6.594 259.384 C 7.265 261.133, 9.512 262.125, 11.274 261.448 C 11.975 261.180, 19.056 247.919, 27.010 231.980 C 34.964 216.041, 41.710 203, 42 203 C 42.290 203, 49.036 216.041, 56.990 231.980 C 64.944 247.919, 72.025 261.180, 72.726 261.448 C 73.427 261.717, 74.573 261.717, 75.274 261.448 C 75.975 261.180, 83.056 247.919, 91.010 231.980 C 98.964 216.041, 105.710 203, 106 203 C 106.290 203, 113.036 216.041, 120.990 231.980 C 128.944 247.919, 136.025 261.180, 136.726 261.448 C 138.488 262.125, 140.735 261.133, 141.406 259.384 C 141.715 258.580, 135.223 244.439, 126.980 227.961 L 111.994 198 125.710 198 L 139.427 198 170.703 166.782 L 201.979 135.563 217.312 150.782 C 225.746 159.152, 233.143 166, 233.751 166 C 235.200 166, 238 163.173, 238 161.710 C 238 160.033, 203.695 126, 202.004 126 C 201.216 126, 186.146 140.400, 168.515 158 M 279.213 207.315 C 269.746 216.838, 262 225.131, 262 225.743 C 262 227.176, 264.814 230, 266.241 230 C 266.845 230, 273.501 223.895, 281.032 216.433 L 294.723 202.866 296.417 209.608 C 299.558 222.114, 304.480 230.550, 314.465 240.539 C 328.470 254.550, 342.164 260.304, 361.500 260.304 C 380.836 260.304, 394.530 254.550, 408.535 240.539 C 418.653 230.416, 423.643 221.764, 426.693 209.057 L 428.392 201.978 442.523 215.989 C 450.296 223.695, 457.150 230, 457.756 230 C 459.201 230, 462 227.171, 462 225.710 C 462 224.001, 427.676 189.998, 425.968 190.015 C 425.161 190.024, 424.050 190.374, 423.500 190.794 C 420.228 193.293, 390 224.832, 390 225.747 C 390 227.173, 392.814 230, 394.232 230 C 394.831 230, 400.906 224.488, 407.732 217.750 C 421.653 204.009, 422.359 204.223, 414.808 219.889 C 400.392 249.801, 363.392 261.809, 333.603 246.243 C 323.171 240.792, 313.394 230.670, 308.198 219.942 C 305.950 215.299, 303.813 209.925, 303.449 208 C 302.826 204.696, 303.513 205.213, 315.730 217.250 C 322.848 224.262, 329.164 230, 329.765 230 C 331.187 230, 334 227.173, 334 225.743 C 334 223.994, 299.761 190, 298 190 C 297.134 190, 288.680 197.792, 279.213 207.315 M 60.743 223.500 C 67.750 237.525, 73.715 249, 74 249 C 74.285 249, 80.250 237.525, 87.257 223.500 L 99.995 198 74 198 L 48.005 198 60.743 223.500 " stroke="none" fill="black" fill-rule="evenodd"/>
</svg>