<svg xmlns="http://www.w3.org/2000/svg" width="84" height="324" viewBox="0 0 84 324" version="1.1">
	<path d="M 7.200 127.200 C 6.291 128.109, 6 144.229, 6 193.629 C 6 251.594, 6.175 259.032, 7.571 260.429 C 8.436 261.293, 9.529 262, 10 262 C 10.471 262, 11.564 261.293, 12.429 260.429 C 13.788 259.069, 14 254.758, 14 228.429 L 14 198 44.800 198 C 76.437 198, 78 197.814, 78 194.044 C 78 192.019, 11.970 126, 9.944 126 C 9.095 126, 7.860 126.540, 7.200 127.200 M 14 165 L 14 190 39.242 190 L 64.485 190 39.500 165 C 25.758 151.250, 14.399 140, 14.258 140 C 14.116 140, 14 151.250, 14 165 " stroke="none" fill="black" fill-rule="evenodd"/>
</svg>