<svg xmlns="http://www.w3.org/2000/svg" width="436" height="324" viewBox="0 0 436 324" version="1.1">
	<path d="M 23.571 63.571 C 22.707 64.436, 22 65.332, 22 65.564 C 22 67.123, 39.710 101.058, 40.727 101.449 C 41.427 101.717, 42.573 101.717, 43.273 101.449 C 45.129 100.736, 62.063 66.328, 61.403 64.609 C 60.732 62.858, 58.483 61.877, 56.705 62.560 C 55.993 62.833, 52.520 68.894, 48.986 76.028 C 45.453 83.163, 42.308 89, 41.997 89 C 41.687 89, 38.748 83.534, 35.467 76.853 C 27.925 61.499, 26.847 60.296, 23.571 63.571 M 71.821 127.358 C 71.095 128.105, 66.907 135.987, 62.516 144.875 C 56.444 157.166, 54.170 160.894, 53.016 160.448 C 45.301 157.464, 33.442 158.203, 25.705 162.151 C 12.375 168.951, 4.018 185.404, 6.918 199.135 C 8.644 207.307, 12.572 214.430, 18.088 219.389 L 23.075 223.873 14.537 240.925 C 9.842 250.304, 6 258.176, 6 258.417 C 6 258.659, 6.707 259.564, 7.571 260.429 C 8.936 261.793, 13.463 262, 42 262 C 70.537 262, 75.064 261.793, 76.429 260.429 C 78.402 258.455, 78.402 257.545, 76.429 255.571 C 75.071 254.214, 70.849 254, 45.433 254 L 16.009 254 22.750 240.475 L 29.490 226.951 33.995 227.725 C 46.608 229.894, 57.558 226.602, 66.080 218.080 C 73.159 211.001, 76.193 203.627, 76.193 193.500 C 76.193 183.648, 73.197 176.194, 66.432 169.209 L 61.124 163.729 69.562 146.876 C 74.203 137.606, 78 129.824, 78 129.583 C 78 128.794, 74.880 126, 74 126 C 73.529 126, 72.548 126.611, 71.821 127.358 M 31.054 167.677 C 25.005 169.881, 17.763 177.312, 15.667 183.463 C 12.048 194.084, 14.346 205.217, 21.737 212.875 L 26.200 217.500 38.658 192.642 C 45.510 178.969, 50.835 167.502, 50.491 167.158 C 49.066 165.732, 35.386 166.098, 31.054 167.677 M 45.288 195.411 C 31.853 222.307, 32.051 221, 41.404 221 C 65.184 221, 77.872 193.230, 62.368 175.117 C 60.430 172.852, 58.537 171, 58.163 171 C 57.788 171, 51.994 181.985, 45.288 195.411 M 103.571 191.571 C 102.707 192.436, 102 193.640, 102 194.249 C 102 194.857, 108.844 202.250, 117.208 210.677 L 132.416 226 117.208 241.323 C 108.844 249.750, 102 257.143, 102 257.751 C 102 259.181, 104.819 262, 106.249 262 C 106.857 262, 114.250 255.156, 122.677 246.792 L 138 231.584 153.323 246.792 C 161.750 255.156, 169.085 262, 169.623 262 C 171.244 262, 173 259.725, 173 257.625 C 173 256.420, 167.267 249.871, 158.293 240.825 L 143.586 226 158.293 211.175 C 167.267 202.129, 173 195.580, 173 194.375 C 173 192.275, 171.244 190, 169.623 190 C 169.085 190, 161.750 196.844, 153.323 205.208 L 138 220.416 122.677 205.208 C 114.250 196.844, 106.857 190, 106.249 190 C 105.640 190, 104.436 190.707, 103.571 191.571 M 199.571 191.571 C 198.707 192.436, 198 193.640, 198 194.249 C 198 194.857, 204.844 202.250, 213.208 210.677 L 228.416 226 213.208 241.323 C 204.844 249.750, 198 257.143, 198 257.751 C 198 259.027, 200.758 262, 201.941 262 C 202.381 262, 209.799 255.182, 218.427 246.849 L 234.114 231.697 249.380 246.849 C 257.776 255.182, 265.085 262, 265.623 262 C 267.072 262, 269 259.807, 269 258.159 C 269 257.366, 262.195 249.754, 253.877 241.244 L 238.754 225.770 253.877 210.623 C 262.195 202.293, 269 194.784, 269 193.938 C 269 192.209, 267.106 190, 265.623 190 C 265.085 190, 257.776 196.818, 249.380 205.151 L 234.114 220.303 218.427 205.151 C 209.799 196.818, 202.381 190, 201.941 190 C 201.502 190, 200.436 190.707, 199.571 191.571 M 320.655 239.064 C 313.075 240.215, 301.630 245.830, 296.250 251.037 C 291.505 255.629, 291.609 255.402, 293.035 258.066 C 294.511 260.823, 296.458 260.474, 300.747 256.681 C 309.840 248.640, 318.586 245.592, 330.878 246.180 C 342.574 246.739, 350.012 250.202, 359.310 259.417 C 366.996 267.034, 373.150 270.300, 384.172 272.613 C 397.212 275.348, 412.827 271.300, 423.748 262.350 C 428.328 258.598, 429.045 255.672, 425.873 253.685 C 424.605 252.890, 423.264 253.469, 419.803 256.305 C 412.517 262.276, 404.710 265.317, 395.409 265.807 C 382.086 266.510, 371.641 262.480, 364.054 253.708 C 354.552 242.723, 336.553 236.649, 320.655 239.064 " stroke="none" fill="black" fill-rule="evenodd"/>
</svg>