<svg xmlns="http://www.w3.org/2000/svg" width="244" height="324" viewBox="0 0 244 324" version="1.1">
	<path d="M 33.384 159.357 C 15.361 163.923, 3.562 181.820, 6.987 199.396 C 9.923 214.467, 20.510 225.032, 35.660 228.013 C 51.154 231.061, 68.354 221.287, 74.043 206.202 C 76.983 198.405, 76.941 188.485, 73.934 180.507 C 68.097 165.023, 49.437 155.290, 33.384 159.357 M 31.054 167.728 C 25.018 169.859, 17.781 177.260, 15.667 183.463 C 11.995 194.241, 14.382 205.477, 21.952 213.048 C 32.402 223.497, 49.888 223.773, 60.280 213.653 C 66.701 207.401, 68.500 202.989, 68.500 193.500 C 68.500 184.011, 66.701 179.599, 60.280 173.347 C 53.109 166.363, 41.332 164.099, 31.054 167.728 M 128.067 175.091 C 120.314 176.440, 109.248 182.099, 104.154 187.318 C 100.351 191.215, 99.949 192.036, 100.939 193.886 C 102.506 196.814, 104.159 196.545, 108.894 192.589 C 118.725 184.375, 127.053 181.542, 139.454 182.193 C 150.525 182.774, 158.214 186.403, 167.159 195.267 C 178.734 206.739, 192.430 211.387, 207.614 208.998 C 219.858 207.072, 236.513 197.467, 235.805 192.740 C 235.178 188.551, 232.558 188.409, 227.803 192.305 C 220.517 198.276, 212.710 201.317, 203.409 201.807 C 189.975 202.516, 179.819 198.549, 171.766 189.449 C 161.917 178.319, 143.772 172.357, 128.067 175.091 M 7.571 223.571 C 6.707 224.436, 6 225.636, 6 226.239 C 6 226.841, 11.941 233.334, 19.202 240.667 L 32.405 254 20.774 254 C 11.534 254, 8.820 254.323, 7.571 255.571 C 5.598 257.545, 5.598 258.455, 7.571 260.429 C 8.936 261.793, 13.463 262, 42 262 C 70.537 262, 75.064 261.793, 76.429 260.429 C 78.402 258.455, 78.402 257.545, 76.429 255.571 C 75.180 254.323, 72.466 254, 63.226 254 L 51.595 254 64.798 240.667 C 72.059 233.334, 78 226.841, 78 226.239 C 78 224.817, 75.176 222, 73.751 222 C 73.143 222, 65.750 228.844, 57.323 237.208 L 42 252.416 26.677 237.208 C 18.250 228.844, 10.857 222, 10.249 222 C 9.640 222, 8.436 222.707, 7.571 223.571 " stroke="none" fill="black" fill-rule="evenodd"/>
</svg>