<svg xmlns="http://www.w3.org/2000/svg" width="372" height="324" viewBox="0 0 372 324" version="1.1">
	<path d="M 231.571 127.571 C 230.707 128.436, 230 129.529, 230 130 C 230 130.471, 230.707 131.564, 231.571 132.429 C 232.966 133.824, 240.152 134, 295.571 134 L 358 134 358 194 L 358 254 231.571 254 C 117.970 254, 104.983 254.159, 103.571 255.571 C 101.598 257.545, 101.598 258.455, 103.571 260.429 C 104.984 261.841, 118.224 262, 234.371 262 C 333.549 262, 363.879 261.721, 364.800 260.800 C 366.535 259.065, 366.535 128.935, 364.800 127.200 C 363.891 126.291, 347.771 126, 298.371 126 C 240.406 126, 232.968 126.175, 231.571 127.571 M 7.571 191.571 C 6.707 192.436, 6 193.640, 6 194.249 C 6 194.857, 12.844 202.250, 21.208 210.677 L 36.416 226 21.208 241.323 C 12.844 249.750, 6 257.143, 6 257.751 C 6 259.181, 8.819 262, 10.249 262 C 10.857 262, 18.250 255.156, 26.677 246.792 L 42 231.584 57.323 246.792 C 65.750 255.156, 73.143 262, 73.751 262 C 75.181 262, 78 259.181, 78 257.751 C 78 257.143, 71.156 249.750, 62.792 241.323 L 47.584 226 62.792 210.677 C 71.156 202.250, 78 194.857, 78 194.249 C 78 192.819, 75.181 190, 73.751 190 C 73.143 190, 65.750 196.844, 57.323 205.208 L 42 220.416 26.677 205.208 C 18.250 196.844, 10.857 190, 10.249 190 C 9.640 190, 8.436 190.707, 7.571 191.571 " stroke="none" fill="black" fill-rule="evenodd"/>
</svg>