<svg xmlns="http://www.w3.org/2000/svg" width="244" height="324" viewBox="0 0 244 324" version="1.1">
	<path d="M 167.200 159.200 C 165.481 160.919, 165.481 227.081, 167.200 228.800 C 168.602 230.202, 233.610 230.534, 235.791 229.150 C 237.679 227.953, 237.679 160.047, 235.791 158.850 C 233.610 157.466, 168.602 157.798, 167.200 159.200 M 174 194 L 174 222 202 222 L 230 222 230 194 L 230 166 202 166 L 174 166 174 194 M 7.750 191.080 C 6.787 191.641, 6 192.874, 6 193.820 C 6 195.697, 71.849 262, 73.713 262 C 75.190 262, 78 259.193, 78 257.718 C 78 257.091, 64.848 243.398, 48.773 227.289 L 19.545 198 79.201 198 C 132.101 198, 139.035 197.822, 140.429 196.429 C 141.293 195.564, 142 194.471, 142 194 C 142 193.529, 141.293 192.436, 140.429 191.571 C 139.032 190.175, 131.670 190.003, 74.179 190.030 C 32.111 190.050, 8.888 190.417, 7.750 191.080 " stroke="none" fill="black" fill-rule="evenodd"/>
</svg>