<svg xmlns="http://www.w3.org/2000/svg" width="468" height="324" viewBox="0 0 468 324" version="1.1">
	<path d="M 33.608 132.122 C 21.806 142.937, 13.219 157.313, 8.894 173.500 C 5.908 184.677, 5.908 202.323, 8.894 213.500 C 13.035 228.998, 21.508 243.543, 32.365 253.794 L 37.972 259.087 38.236 291.294 L 38.500 323.500 42 323.500 L 45.500 323.500 45.764 291.065 L 46.028 258.631 52.325 252.065 C 66.360 237.433, 72.464 224.244, 76.738 199.317 C 78.944 186.447, 71.756 160.794, 61.870 146.256 C 57.329 139.578, 43.990 126, 41.971 126 C 41.046 126, 37.283 128.755, 33.608 132.122 M 168.369 126.765 C 167.416 127.384, 102 257.155, 102 258.426 C 102 258.663, 102.707 259.564, 103.571 260.429 C 104.936 261.793, 109.463 262, 138 262 C 166.537 262, 171.064 261.793, 172.429 260.429 C 173.293 259.564, 174 258.471, 174 258 C 174 257.529, 173.293 256.436, 172.429 255.571 C 171.071 254.214, 166.849 254, 141.430 254 L 112.002 254 140.747 196.500 C 156.557 164.875, 169.722 139, 170.003 139 C 170.284 139, 184.010 166.059, 200.507 199.131 C 217.003 232.204, 231.095 259.879, 231.821 260.631 C 232.887 261.735, 239.506 262, 266 262 C 294.537 262, 299.064 261.793, 300.429 260.429 C 302.402 258.455, 302.402 257.545, 300.429 255.571 C 299.067 254.210, 294.667 254, 267.430 254 L 236.003 254 204.383 190.750 C 175.939 133.854, 171.783 126.031, 170 126.031 C 169.725 126.031, 168.991 126.361, 168.369 126.765 M 391.571 127.571 C 390.219 128.924, 390 132.971, 390 156.586 L 390 184.028 386.249 181.546 C 375.754 174.601, 357.715 172.534, 345.581 176.886 C 334.893 180.719, 323.228 189.824, 324.559 193.294 C 325.835 196.617, 328.900 196.323, 333.167 192.468 C 335.414 190.438, 340.234 187.364, 343.877 185.638 C 349.993 182.740, 351.304 182.500, 361 182.500 C 370.401 182.500, 372.124 182.792, 377.458 185.290 C 380.735 186.824, 384.897 189.210, 386.708 190.591 L 390 193.102 390 220.696 L 390 248.290 384.560 243.145 C 381.568 240.315, 378.675 238, 378.131 238 C 376.829 238, 374 240.861, 374 242.178 C 374 242.747, 377.226 246.540, 381.169 250.607 L 388.338 258 381.169 265.393 C 377.226 269.460, 374 273.253, 374 273.822 C 374 275.139, 376.829 278, 378.131 278 C 378.675 278, 381.568 275.685, 384.560 272.855 L 390 267.710 390 279.284 C 390 288.472, 390.324 291.181, 391.571 292.429 C 392.436 293.293, 393.529 294, 394 294 C 394.471 294, 395.564 293.293, 396.429 292.429 C 397.676 291.181, 398 288.472, 398 279.284 L 398 267.710 403.440 272.855 C 406.432 275.685, 409.325 278, 409.869 278 C 411.171 278, 414 275.139, 414 273.822 C 414 273.253, 410.774 269.460, 406.831 265.393 L 399.662 258 406.831 250.607 C 410.774 246.540, 414 242.747, 414 242.178 C 414 240.861, 411.171 238, 409.869 238 C 409.325 238, 406.432 240.315, 403.440 243.145 L 398 248.290 398 225.062 C 398 212.286, 398.337 202.006, 398.750 202.218 C 413.843 209.953, 424.567 211.321, 439 207.354 C 448.935 204.624, 460 196.778, 460 192.464 C 460 188.535, 456.496 188.357, 452.267 192.070 C 450.247 193.844, 445.648 196.691, 442.047 198.397 C 436.017 201.255, 434.670 201.500, 425 201.500 C 415.340 201.500, 413.979 201.253, 407.983 198.412 C 397.183 193.293, 398 196.397, 398 160.500 C 398 133.327, 397.790 128.933, 396.429 127.571 C 395.564 126.707, 394.471 126, 394 126 C 393.529 126, 392.436 126.707, 391.571 127.571 M 31.582 144.622 C 22.227 155.964, 15.971 170.294, 14.430 183.913 L 13.742 190 25.871 190 L 38 190 38 164 C 38 149.700, 37.785 138, 37.522 138 C 37.259 138, 34.586 140.980, 31.582 144.622 M 46 164.378 L 46 190 57.629 190 L 69.258 190 68.570 183.913 C 67.145 171.317, 61.803 158.257, 53.628 147.382 C 45.493 136.560, 46 135.431, 46 164.378 M 14.484 203.714 C 15.402 211.065, 18.487 221.027, 22.006 228.007 C 24.948 233.840, 32.390 244.233, 35.901 247.410 L 38 249.310 38 223.655 L 38 198 25.885 198 L 13.770 198 14.484 203.714 M 46 223.122 C 46 251.511, 45.500 250.430, 53.628 239.618 C 61.651 228.945, 66.965 216.129, 68.516 203.714 L 69.230 198 57.615 198 L 46 198 46 223.122 " stroke="none" fill="black" fill-rule="evenodd"/>
</svg>