<svg xmlns="http://www.w3.org/2000/svg" width="436" height="324" viewBox="0 0 436 324" version="1.1">
	<path d="M 135.571 127.571 C 134.707 128.436, 134 129.529, 134 130 C 134 130.471, 134.707 131.564, 135.571 132.429 C 136.966 133.824, 144.152 134, 199.571 134 L 262 134 262 194 L 262 254 135.571 254 C 21.970 254, 8.983 254.159, 7.571 255.571 C 5.598 257.545, 5.598 258.455, 7.571 260.429 C 8.984 261.841, 22.190 262, 138 262 C 253.810 262, 267.016 261.841, 268.429 260.429 C 269.825 259.032, 270 251.628, 270 194 C 270 136.372, 269.825 128.968, 268.429 127.571 C 267.032 126.175, 259.628 126, 202 126 C 144.372 126, 136.968 126.175, 135.571 127.571 M 354.355 126.986 C 332.853 131.520, 320.274 155.905, 329.329 175.500 C 332.298 181.925, 338.624 189.175, 343.488 191.729 C 346.304 193.207, 346.364 193.361, 344.533 194.399 C 339.291 197.369, 332.085 205.413, 329.411 211.278 C 325.431 220.009, 325.357 230.914, 329.223 239.250 C 330.689 242.412, 331.505 245, 331.034 245 C 329.455 245, 320.413 237.295, 315.788 232.008 C 308.148 223.274, 302 208.339, 302 198.512 C 302 194.610, 299.842 190, 298.015 190 C 296.155 190, 294 193.281, 294 196.114 C 294 201.529, 297.124 214.317, 299.992 220.642 C 305.722 233.281, 315.369 244.163, 326.913 251.013 C 335.426 256.064, 340.306 257.775, 352.329 259.927 C 362.563 261.758, 363.249 261.716, 378 258.347 C 394.592 254.557, 410.860 242.016, 419.709 226.193 C 428.789 209.957, 431.099 186.665, 423.212 190.887 C 421.710 191.691, 421.151 193.471, 420.626 199.119 C 418.946 217.189, 408.150 234.719, 392.804 244.293 L 390.109 245.975 392.804 240.781 C 396.244 234.155, 397.083 221.765, 394.596 214.310 C 392.521 208.086, 386.686 200.481, 380.990 196.574 L 376.480 193.481 380.990 190.413 C 386.667 186.552, 392.513 178.937, 394.596 172.690 C 396.962 165.597, 396.217 153.015, 393.046 146.500 C 386.221 132.479, 369.144 123.867, 354.355 126.986 M 351.627 135.468 C 346.247 137.386, 341.039 141.829, 337.500 147.519 C 333.518 153.922, 332.713 165.302, 335.755 172.180 C 339.435 180.498, 346.494 186.426, 355.250 188.550 L 358 189.217 358 161.608 C 358 140.165, 357.721 134.010, 356.750 134.044 C 356.063 134.068, 353.757 134.709, 351.627 135.468 M 365 161.500 L 365 189.217 367.750 188.543 C 379.731 185.608, 388.989 173.820, 388.989 161.500 C 388.989 149.180, 379.731 137.392, 367.750 134.457 L 365 133.783 365 161.500 M 351.627 199.468 C 346.247 201.386, 341.039 205.829, 337.500 211.519 C 333.518 217.922, 332.713 229.302, 335.755 236.180 C 339.435 244.498, 346.494 250.426, 355.250 252.550 L 358 253.217 358 225.608 C 358 204.165, 357.721 198.010, 356.750 198.044 C 356.063 198.068, 353.757 198.709, 351.627 199.468 M 365 225.500 L 365 253.217 367.750 252.543 C 379.731 249.608, 388.989 237.820, 388.989 225.500 C 388.989 213.180, 379.731 201.392, 367.750 198.457 L 365 197.783 365 225.500 " stroke="none" fill="black" fill-rule="evenodd"/>
</svg>