<svg xmlns="http://www.w3.org/2000/svg" width="308" height="324" viewBox="0 0 308 324" version="1.1">
	<path d="M 151.750 63.080 C 150.787 63.641, 150 64.757, 150 65.561 C 150 67.454, 166.603 100.636, 167.974 101.484 C 170.685 103.159, 172.956 100.143, 180.760 84.501 C 185.292 75.417, 189 67.143, 189 66.115 C 189 63.642, 186.675 61.804, 184.569 62.612 C 183.643 62.967, 179.930 69.156, 176.318 76.363 L 169.751 89.469 163.767 77.484 C 158.136 66.205, 155.479 61.960, 154.095 62.030 C 153.768 62.047, 152.713 62.519, 151.750 63.080 M 23.282 143.282 C 13.777 152.787, 6 161.079, 6 161.710 C 6 163.168, 8.798 166, 10.239 166 C 10.841 166, 17.334 160.059, 24.667 152.798 L 38 139.595 38 199.763 C 38 258.906, 38.034 259.948, 40 261 C 41.309 261.700, 42.605 261.739, 43.750 261.111 C 47.599 259.002, 77 228.290, 77 226.379 C 77 224.281, 75.246 222, 73.633 222 C 73.101 222, 66.666 227.941, 59.333 235.202 L 46 248.405 46 188.774 C 46 135.897, 45.822 128.965, 44.429 127.571 C 43.564 126.707, 42.341 126, 41.710 126 C 41.079 126, 32.787 133.777, 23.282 143.282 M 157.500 127.418 C 142.904 130.258, 130.871 136.740, 120.998 147.084 C 110.610 157.967, 103.957 172.521, 102.469 187.614 C 101.891 193.479, 102.055 194.912, 103.460 196.317 C 104.386 197.243, 105.535 198, 106.015 198 C 107.925 198, 110 193.308, 110 188.988 C 110 170.993, 124.111 149.496, 141.746 140.624 C 174.865 123.963, 213.847 139.693, 225.505 174.421 C 226.954 178.736, 228.399 185.376, 228.718 189.177 C 229.172 194.591, 229.713 196.311, 231.213 197.114 C 232.594 197.853, 233.563 197.778, 234.691 196.842 C 237.022 194.907, 235.936 181.477, 232.695 172.165 C 229.025 161.622, 224.550 154.613, 215.911 145.876 C 209.663 139.557, 206.661 137.409, 198.911 133.709 C 193.735 131.238, 187.463 128.736, 184.974 128.150 C 177.104 126.296, 164.935 125.972, 157.500 127.418 M 263.750 159.080 C 262.155 160.009, 262 162.388, 262 186.015 C 262 211.174, 262.060 211.962, 264.064 213.034 C 265.596 213.854, 266.498 213.832, 267.564 212.947 C 268.744 211.968, 269 207.174, 269 186.078 C 269 157.906, 268.671 156.214, 263.750 159.080 M 263.750 222.080 C 261.372 223.465, 261.542 226.685, 264.064 228.034 C 267.753 230.008, 270.819 225.219, 267.800 222.200 C 266.367 220.767, 266.022 220.757, 263.750 222.080 " stroke="none" fill="black" fill-rule="evenodd"/>
</svg>