<svg xmlns="http://www.w3.org/2000/svg" width="212" height="324" viewBox="0 0 212 324" version="1.1">
	<path d="M 67 126.637 C 49.023 129.262, 36.267 135.634, 24.973 147.630 C 17.823 155.225, 13.393 162.294, 10.411 170.869 C -0.034 200.902, 10.925 232.498, 37.987 250.375 L 43.473 254 26.308 254 C 12.037 254, 8.878 254.265, 7.571 255.571 C 5.598 257.545, 5.598 258.455, 7.571 260.429 C 8.968 261.825, 16.372 262, 74 262 C 131.628 262, 139.032 261.825, 140.429 260.429 C 142.402 258.455, 142.402 257.545, 140.429 255.571 C 139.119 254.262, 135.919 254, 121.201 254 L 103.546 254 108.983 250.419 C 123.610 240.786, 133.144 228.228, 138.151 212 C 141.514 201.100, 141.342 184.647, 137.751 173.722 C 129.507 148.639, 108.232 130.622, 82.678 127.083 C 74.947 126.013, 71.876 125.925, 67 126.637 M 58.645 135.584 C 38.671 140.419, 20.279 158.986, 15.537 179.103 C 10.672 199.742, 16.569 220.600, 31.484 235.516 C 46.358 250.389, 67.265 256.327, 87.754 251.496 C 108.431 246.621, 126.041 229.298, 131.457 208.505 C 133.437 200.904, 133.437 186.096, 131.457 178.495 C 126.143 158.096, 108.841 140.870, 88.356 135.585 C 80.839 133.646, 66.653 133.645, 58.645 135.584 M 179.637 191.420 C 174.879 193.171, 170.204 197.447, 168.377 201.718 C 166.588 205.899, 166.617 211.437, 168.436 212.947 C 170.583 214.729, 174 212.560, 174 209.415 C 174 206.108, 176.434 201.510, 179.217 199.561 C 180.442 198.702, 183.335 198, 185.646 198 C 193.654 198, 199.630 206.208, 196.687 213.164 C 194.872 217.455, 191.897 220.069, 187.901 220.886 C 186.151 221.244, 184.113 222.450, 183.373 223.565 C 182.230 225.287, 182.259 225.925, 183.570 227.796 C 184.422 229.012, 186.174 230, 187.480 230 C 190.728 230, 195.634 234.360, 196.982 238.447 C 198.371 242.654, 196.568 247.622, 192.486 250.832 C 189.176 253.436, 182.504 253.742, 179.217 251.439 C 176.600 249.606, 174 244.944, 174 242.085 C 174 239.392, 170.395 237.427, 168.436 239.053 C 165.027 241.882, 167.621 250.704, 173.338 255.724 C 180.025 261.595, 187.413 262.153, 195.663 257.411 C 205.854 251.552, 207.898 237.144, 199.723 228.792 L 196.500 225.500 199.731 222.178 C 207.892 213.785, 205.866 199.522, 195.663 193.543 C 190.254 190.373, 184.537 189.616, 179.637 191.420 " stroke="none" fill="black" fill-rule="evenodd"/>
</svg>