<svg xmlns="http://www.w3.org/2000/svg" width="244" height="324" viewBox="0 0 244 324" version="1.1">
	<path d="M 167.234 63.250 C 166.678 63.938, 162.553 71.846, 158.068 80.825 C 149.950 97.075, 149.162 100.081, 152.665 101.425 C 155.241 102.413, 156.843 100.284, 163.467 87.066 L 169.750 74.530 176.318 87.636 C 179.930 94.844, 183.643 101.033, 184.569 101.388 C 186.681 102.199, 189 100.355, 189 97.866 C 189 95.626, 173.264 63.831, 171.628 62.765 C 169.949 61.672, 168.369 61.846, 167.234 63.250 M 23.213 143.315 C 13.746 152.838, 6 161.131, 6 161.743 C 6 163.175, 8.813 166, 10.239 166 C 10.841 166, 17.334 160.059, 24.667 152.798 L 38 139.595 38 199.675 C 38 263.843, 37.943 263.105, 42.741 261.582 C 45 260.865, 78 227.801, 78 226.255 C 78 224.825, 75.186 222, 73.761 222 C 73.159 222, 66.666 227.941, 59.333 235.202 L 46 248.405 46 188.774 C 46 135.897, 45.822 128.965, 44.429 127.571 C 43.564 126.707, 42.310 126, 41.641 126 C 40.972 126, 32.680 133.792, 23.213 143.315 M 103.571 127.571 C 102.175 128.968, 102 136.413, 102 194.449 C 102 248.320, 102.238 259.953, 103.361 260.885 C 104.349 261.705, 122.615 261.944, 170.002 261.757 C 230.924 261.517, 235.356 261.383, 236.386 259.750 C 237.191 258.474, 237.191 257.526, 236.386 256.250 C 235.386 254.663, 232.698 254.475, 207.457 254.234 L 179.631 253.968 192.315 241.148 C 204.956 228.372, 206.664 225.626, 203.564 223.053 C 201.426 221.278, 199.935 222.425, 185.512 236.936 L 172.525 250.004 170.770 242.752 C 164.418 216.508, 142.969 195.895, 117.500 191.559 L 110.500 190.368 110 159.146 C 109.579 132.859, 109.263 127.775, 108 126.978 C 105.947 125.681, 105.387 125.756, 103.571 127.571 M 110 226 L 110 254 135.202 254 L 160.405 254 147.202 240.667 C 139.941 233.334, 134 226.841, 134 226.239 C 134 224.825, 136.820 222, 138.232 222 C 138.831 222, 144.906 227.512, 151.732 234.250 C 165.117 247.462, 165.515 247.495, 160.595 234.992 C 155.315 221.572, 144.830 210.410, 131.500 204.017 C 124.417 200.620, 115.687 198, 111.451 198 C 110.218 198, 110 202.200, 110 226 " stroke="none" fill="black" fill-rule="evenodd"/>
</svg>