<svg xmlns="http://www.w3.org/2000/svg" width="244" height="324" viewBox="0 0 244 324" version="1.1">
	<path d="M 55.571 63.571 C 54.707 64.436, 54 65.317, 54 65.531 C 54 66.316, 71.159 100.529, 71.965 101.349 C 74.297 103.725, 76.927 100.197, 85.239 83.541 C 90.036 73.928, 93.710 65.408, 93.403 64.609 C 92.732 62.858, 90.483 61.877, 88.705 62.560 C 87.993 62.833, 84.520 68.894, 80.986 76.028 C 77.453 83.163, 74.308 89, 73.997 89 C 73.687 89, 70.748 83.534, 67.467 76.853 C 59.925 61.499, 58.847 60.296, 55.571 63.571 M 7.571 127.571 C 6.175 128.968, 6 136.372, 6 194 C 6 251.628, 6.175 259.032, 7.571 260.429 C 8.436 261.293, 9.529 262, 10 262 C 10.471 262, 11.564 261.293, 12.429 260.429 C 13.825 259.032, 14 251.628, 14 194 C 14 136.372, 13.825 128.968, 12.429 127.571 C 11.564 126.707, 10.471 126, 10 126 C 9.529 126, 8.436 126.707, 7.571 127.571 M 135.571 127.571 C 134.175 128.968, 134 136.372, 134 194 C 134 251.628, 134.175 259.032, 135.571 260.429 C 137.678 262.535, 138.598 262.412, 140.443 259.777 C 141.813 257.823, 142 249.904, 142 194 C 142 138.096, 141.813 130.177, 140.443 128.223 C 138.598 125.588, 137.678 125.465, 135.571 127.571 M 194.355 158.986 C 183.790 161.214, 174.114 169.146, 169.329 179.500 C 165.374 188.059, 165.386 198.895, 169.361 207.610 C 172.861 215.285, 179.689 222.075, 187.480 225.629 C 195.387 229.236, 205.732 229.409, 214.297 226.077 C 221.354 223.331, 229.569 215.634, 233.056 208.500 C 235.152 204.212, 235.500 202.075, 235.500 193.500 C 235.500 181.367, 233.450 176.286, 225.353 168.339 C 217.361 160.497, 204.948 156.752, 194.355 158.986 M 191.627 167.468 C 186.247 169.386, 181.039 173.829, 177.500 179.519 C 174.969 183.589, 174.444 185.570, 174.143 192.193 C 173.830 199.089, 174.110 200.705, 176.454 205.496 C 186.503 226.034, 215.716 226.158, 226.150 205.707 C 228.708 200.692, 229.594 191.874, 228.096 186.337 C 224.933 174.647, 213.616 165.959, 201.663 166.044 C 198.273 166.068, 193.757 166.709, 191.627 167.468 M 199.750 191.080 C 197.372 192.465, 197.542 195.685, 200.064 197.034 C 203.753 199.008, 206.819 194.219, 203.800 191.200 C 202.367 189.767, 202.022 189.757, 199.750 191.080 " stroke="none" fill="black" fill-rule="evenodd"/>
</svg>