<svg xmlns="http://www.w3.org/2000/svg" width="595" height="324" viewBox="0 0 595 324" version="1.1">
	<path d="M 55.750 63.080 C 54.186 63.991, 54 66.007, 54 82.015 C 54 98.703, 54.132 100, 55.934 100.965 C 57.043 101.558, 64.905 102, 74.363 102 C 88.024 102, 91.127 101.730, 92.429 100.429 C 94.757 98.100, 94.757 65.900, 92.429 63.571 C 91.123 62.266, 88.036 62.005, 74.179 62.030 C 64.720 62.048, 56.742 62.502, 55.750 63.080 M 62 82 L 62 94 74 94 L 86 94 86 82 L 86 70 74 70 L 62 70 62 82 M 71.571 127.571 C 70.212 128.931, 70 133.242, 70 159.571 L 70 190 39.571 190 C 13.242 190, 8.931 190.212, 7.571 191.571 C 5.598 193.545, 5.598 194.455, 7.571 196.429 C 8.931 197.788, 13.242 198, 39.571 198 L 70 198 70 228.429 C 70 254.758, 70.212 259.069, 71.571 260.429 C 72.436 261.293, 73.529 262, 74 262 C 74.471 262, 75.564 261.293, 76.429 260.429 C 77.788 259.069, 78 254.759, 78 228.443 L 78 198.029 108.641 197.764 C 136.566 197.523, 139.381 197.345, 140.386 195.750 C 141.191 194.474, 141.191 193.526, 140.386 192.250 C 139.381 190.655, 136.566 190.477, 108.641 190.236 L 78 189.971 78 159.557 C 78 133.241, 77.788 128.931, 76.429 127.571 C 75.564 126.707, 74.471 126, 74 126 C 73.529 126, 72.436 126.707, 71.571 127.571 M 232.207 126.677 C 231.495 126.962, 227.135 134.743, 222.517 143.967 L 214.120 160.738 208.810 159.322 C 193.863 155.336, 176.265 164.245, 169.417 179.266 C 167.050 184.457, 166.574 186.839, 166.574 193.500 C 166.574 204.136, 169.987 211.959, 177.701 219.009 L 183.091 223.936 174.404 241.132 C 167.770 254.265, 165.954 258.703, 166.718 259.914 C 167.599 261.311, 171.746 261.500, 201.500 261.500 C 232.586 261.500, 235.370 261.360, 236.386 259.750 C 237.191 258.474, 237.191 257.526, 236.386 256.250 C 235.382 254.658, 232.613 254.476, 205.654 254.235 L 176.024 253.970 182.733 240.509 L 189.442 227.047 193.471 227.774 C 205.749 229.987, 217.123 226.736, 225.353 218.661 C 233.450 210.714, 235.500 205.633, 235.500 193.500 C 235.500 181.571, 233.474 176.391, 225.805 168.714 L 221.024 163.929 229.012 147.976 C 237.138 131.748, 237.928 129.328, 235.800 127.200 C 234.516 125.916, 234.212 125.872, 232.207 126.677 M 191.627 167.468 C 186.247 169.386, 181.039 173.829, 177.500 179.519 C 173.518 185.922, 172.713 197.302, 175.755 204.180 C 177.915 209.061, 183.555 216, 185.363 216 C 185.999 216, 192.003 205.021, 198.706 191.603 C 210.277 168.436, 210.781 167.175, 208.696 166.616 C 204.840 165.582, 195.628 166.042, 191.627 167.468 M 205.251 195.485 C 195.515 214.977, 193.400 219.939, 194.629 220.411 C 197.180 221.390, 207.289 220.926, 210.684 219.674 C 220.582 216.025, 227.772 206.654, 228.713 196.179 C 229.333 189.267, 228.001 183.969, 224.092 177.806 C 218.334 168.726, 218.866 168.227, 205.251 195.485 M 263.750 191.080 C 262.788 191.641, 262 192.859, 262 193.788 C 262 194.717, 268.857 202.344, 277.238 210.738 L 292.476 226 277.238 241.262 C 268.857 249.656, 262 257.290, 262 258.227 C 262 259.163, 262.960 260.443, 264.132 261.071 C 266.079 262.113, 267.624 260.855, 281.895 246.605 L 297.524 230.998 312.012 245.564 C 319.980 253.576, 327.316 260.582, 328.314 261.135 C 330.445 262.314, 333 260.681, 333 258.139 C 333 257.251, 326.143 249.656, 317.762 241.262 L 302.524 226 317.762 210.738 C 326.143 202.344, 333 194.784, 333 193.938 C 333 192.207, 331.106 190, 329.621 190 C 329.082 190, 321.623 196.969, 313.045 205.486 L 297.449 220.973 281.987 205.486 C 273.482 196.969, 266.294 190.014, 266.012 190.030 C 265.730 190.047, 264.712 190.519, 263.750 191.080 M 359.750 191.080 C 358.788 191.641, 358 192.859, 358 193.788 C 358 194.717, 364.857 202.344, 373.238 210.738 L 388.476 226 373.238 241.262 C 364.857 249.656, 358 257.290, 358 258.227 C 358 259.163, 358.960 260.443, 360.132 261.071 C 362.079 262.113, 363.624 260.855, 377.895 246.605 L 393.524 230.998 408.012 245.564 C 415.980 253.576, 423.316 260.582, 424.314 261.135 C 426.445 262.314, 429 260.681, 429 258.139 C 429 257.251, 422.143 249.656, 413.762 241.262 L 398.524 226 413.762 210.738 C 422.143 202.344, 429 194.784, 429 193.938 C 429 192.207, 427.106 190, 425.621 190 C 425.082 190, 417.623 196.969, 409.045 205.486 L 393.449 220.973 377.987 205.486 C 369.482 196.969, 362.294 190.014, 362.012 190.030 C 361.730 190.047, 360.712 190.519, 359.750 191.080 M 478.402 239.486 C 467.241 241.914, 451.549 251.931, 452.190 256.219 C 452.785 260.206, 455.471 260.654, 459.491 257.438 C 471.240 248.038, 478.139 245.571, 490.958 246.184 C 498.303 246.535, 500.804 247.125, 506.127 249.761 C 509.632 251.497, 513.731 254.173, 515.235 255.709 C 516.739 257.244, 519.439 259.985, 521.235 261.801 C 523.031 263.617, 527.650 266.645, 531.500 268.532 C 548.429 276.825, 567.019 274.776, 582.778 262.878 C 588.393 258.639, 589.305 255.835, 585.786 253.630 C 584.449 252.792, 583.460 253.046, 581.286 254.788 C 569.942 263.879, 562.942 266.374, 550.500 265.764 C 538.518 265.177, 532.521 262.454, 523.711 253.600 C 515.963 245.814, 506.131 240.650, 496 239.045 C 487.964 237.772, 486.060 237.820, 478.402 239.486 " stroke="none" fill="black" fill-rule="evenodd"/>
</svg>