<svg xmlns="http://www.w3.org/2000/svg" width="468" height="324" viewBox="0 0 468 324" version="1.1">
	<path d="M 7.571 127.571 C 6.207 128.936, 6 133.463, 6 162 C 6 190.537, 6.207 195.064, 7.571 196.429 C 8.844 197.701, 11.697 198, 22.575 198 L 36.006 198 21.020 227.961 C 12.777 244.439, 6.285 258.580, 6.594 259.384 C 7.265 261.133, 9.512 262.125, 11.274 261.448 C 11.975 261.180, 19.056 247.919, 27.010 231.980 C 34.964 216.041, 41.710 203, 42 203 C 42.291 203, 48.822 215.661, 56.514 231.136 C 64.206 246.611, 71.095 259.886, 71.821 260.636 C 73.530 262.400, 74.501 262.356, 76.429 260.429 C 77.825 259.032, 78 251.628, 78 194 C 78 136.372, 77.825 128.968, 76.429 127.571 C 74.455 125.598, 73.545 125.598, 71.571 127.571 C 70.212 128.931, 70 133.242, 70 159.571 L 70 190 42 190 L 14 190 14 159.571 C 14 133.242, 13.788 128.931, 12.429 127.571 C 11.564 126.707, 10.471 126, 10 126 C 9.529 126, 8.436 126.707, 7.571 127.571 M 129.384 127.412 C 111.480 131.757, 99.543 149.833, 102.993 167.372 C 105.077 177.960, 110.986 186.563, 119.673 191.654 C 124.824 194.673, 137.869 198.124, 140 197.032 C 140.825 196.609, 143.300 195.947, 145.500 195.560 C 147.700 195.173, 151.791 193.575, 154.591 192.009 L 159.682 189.162 178.065 207.565 L 196.448 225.968 181.224 241.307 C 172.851 249.743, 166 257.143, 166 257.751 C 166 259.181, 168.819 262, 170.249 262 C 170.857 262, 178.250 255.156, 186.677 246.792 L 202 231.584 217.323 246.792 C 225.750 255.156, 233.143 262, 233.751 262 C 235.181 262, 238 259.181, 238 257.751 C 238 257.143, 231.176 249.770, 222.836 241.367 L 207.672 226.089 225.586 207.692 L 243.500 189.296 247.757 191.747 C 252.891 194.703, 265.911 198.102, 268 197.032 C 268.825 196.609, 271.279 195.941, 273.453 195.548 C 285.361 193.394, 297.428 181.349, 299.548 169.500 C 299.941 167.300, 300.609 164.825, 301.032 164 C 302.124 161.869, 298.673 148.824, 295.654 143.673 C 294.255 141.286, 291.306 137.702, 289.100 135.710 C 268.421 117.027, 236.365 128.001, 230.987 155.604 C 229.485 163.310, 230.910 171.222, 235.183 178.902 L 238.189 184.304 220.098 202.395 L 202.007 220.486 183.584 202.084 L 165.162 183.682 168.009 178.591 C 169.575 175.791, 171.173 171.700, 171.560 169.500 C 171.947 167.300, 172.609 164.825, 173.032 164 C 174.124 161.869, 170.673 148.824, 167.654 143.673 C 162.742 135.290, 154.159 129.234, 144.201 127.123 C 137.812 125.769, 136.008 125.804, 129.384 127.412 M 127.385 135.617 C 119.428 138.439, 112.611 146.342, 110.450 155.250 L 109.783 158 121.892 158 L 134 158 134 146 C 134 132.784, 134.253 133.181, 127.385 135.617 M 142 145.933 L 142 158 153.500 158 C 159.825 158, 165 157.630, 165 157.178 C 165 156.726, 164.301 154.304, 163.446 151.795 C 160.678 143.671, 153.540 137.250, 144.250 134.525 C 142.005 133.867, 142 133.889, 142 145.933 M 255.385 135.617 C 247.428 138.439, 240.611 146.342, 238.450 155.250 L 237.783 158 249.892 158 L 262 158 262 146 C 262 132.784, 262.253 133.181, 255.385 135.617 M 270 145.933 L 270 158 281.500 158 C 287.825 158, 293 157.630, 293 157.178 C 293 156.726, 292.301 154.304, 291.446 151.795 C 288.678 143.671, 281.540 137.250, 272.250 134.525 C 270.005 133.867, 270 133.889, 270 145.933 M 110.525 168.250 C 113.250 177.540, 119.671 184.678, 127.795 187.446 C 130.304 188.301, 132.726 189, 133.178 189 C 133.630 189, 134 183.825, 134 177.500 L 134 166 121.933 166 C 109.889 166, 109.867 166.005, 110.525 168.250 M 142 177.567 C 142 189.100, 142.007 189.133, 144.250 188.448 C 154.766 185.236, 161.236 178.766, 164.448 168.250 C 165.133 166.007, 165.100 166, 153.567 166 L 142 166 142 177.567 M 238.525 168.250 C 241.250 177.540, 247.671 184.678, 255.795 187.446 C 258.304 188.301, 260.726 189, 261.178 189 C 261.630 189, 262 183.825, 262 177.500 L 262 166 249.933 166 C 237.889 166, 237.867 166.005, 238.525 168.250 M 270 177.567 C 270 189.100, 270.007 189.133, 272.250 188.448 C 282.766 185.236, 289.236 178.766, 292.448 168.250 C 293.133 166.007, 293.100 166, 281.567 166 L 270 166 270 177.567 M 327.571 191.571 C 326.207 192.936, 326 197.463, 326 226 C 326 254.537, 326.207 259.064, 327.571 260.429 C 328.436 261.293, 329.529 262, 330 262 C 330.471 262, 331.564 261.293, 332.429 260.429 C 333.788 259.069, 334 254.758, 334 228.429 L 334 198 394 198 L 454 198 454 228.429 C 454 254.758, 454.212 259.069, 455.571 260.429 C 457.545 262.402, 458.455 262.402, 460.429 260.429 C 461.793 259.064, 462 254.537, 462 226 C 462 197.463, 461.793 192.936, 460.429 191.571 C 459.032 190.175, 451.628 190, 394 190 C 336.372 190, 328.968 190.175, 327.571 191.571 M 58.607 219.250 C 64.446 230.938, 69.398 240.688, 69.612 240.917 C 69.825 241.146, 70 231.583, 70 219.667 L 70 198 58.995 198 L 47.991 198 58.607 219.250 " stroke="none" fill="black" fill-rule="evenodd"/>
</svg>