<svg xmlns="http://www.w3.org/2000/svg" width="308" height="324" viewBox="0 0 308 324" version="1.1">
	<path d="M 64.500 126.944 C 56.325 128.268, 50.930 129.991, 43 133.814 C 32.444 138.903, 18.927 152.404, 13.778 163 C 7.648 175.615, 4.334 193.191, 7.491 196.348 C 10.992 199.850, 14 196.834, 14 189.823 C 14 171.461, 27.851 149.945, 45.603 140.732 C 51.722 137.556, 62.722 134.062, 66.752 134.015 C 67.440 134.007, 54.052 161.899, 37.002 195.997 C 19.951 230.095, 6 258.188, 6 258.425 C 6 258.663, 6.707 259.564, 7.571 260.429 C 8.968 261.825, 16.372 262, 74 262 C 131.628 262, 139.032 261.825, 140.429 260.429 C 141.293 259.564, 142 258.663, 142 258.425 C 142 258.188, 128.038 230.072, 110.973 195.946 L 79.946 133.899 83.723 134.578 C 100.642 137.620, 117.131 149.317, 125.340 164.101 C 129.365 171.350, 133 183.919, 133 190.589 C 133 194.479, 134.839 198, 136.871 198 C 140.482 198, 141.008 188.263, 138.028 176.609 C 134.978 164.686, 129.782 155.740, 120.457 146.361 C 113.703 139.568, 110.806 137.478, 102.933 133.719 C 97.745 131.242, 91.475 128.743, 89 128.165 C 82.400 126.623, 70.232 126.016, 64.500 126.944 M 223.531 127.056 C 195.437 131.418, 173.313 152.439, 167.589 180.208 C 165.337 191.134, 165.478 195.650, 168.117 197.062 C 171.365 198.801, 172.656 196.613, 173.871 187.308 C 175.940 171.469, 181.277 160.826, 192.500 150.155 C 200.202 142.833, 208.878 138.015, 219.060 135.406 C 227.865 133.150, 244.045 133.924, 252.858 137.022 C 261.597 140.094, 273.093 148.027, 278.660 154.828 C 286.771 164.737, 292.929 180.812, 292.983 192.215 C 293.002 196.428, 295.359 198.498, 298.276 196.866 C 302.091 194.731, 299.123 176.088, 292.982 163.615 C 280.499 138.258, 251.089 122.777, 223.531 127.056 M 44.747 196.500 L 16.002 254 73.608 254 C 119.289 254, 131.112 253.741, 130.722 252.750 C 128.936 248.215, 74.554 139, 74.082 139 C 73.757 139, 60.557 164.875, 44.747 196.500 " stroke="none" fill="black" fill-rule="evenodd"/>
</svg>