<svg xmlns="http://www.w3.org/2000/svg" width="403" height="324" viewBox="0 0 403 324" version="1.1">
	<path d="M 39.571 127.571 C 38.176 128.966, 38 136.152, 38 191.571 L 38 254 23.571 254 C 11.788 254, 8.855 254.288, 7.571 255.571 C 5.598 257.545, 5.598 258.455, 7.571 260.429 C 8.936 261.793, 13.463 262, 42 262 C 70.537 262, 75.064 261.793, 76.429 260.429 C 77.293 259.564, 78 258.471, 78 258 C 78 257.529, 77.293 256.436, 76.429 255.571 C 75.145 254.288, 72.212 254, 60.429 254 L 46 254 46 191.571 C 46 136.152, 45.824 128.966, 44.429 127.571 C 43.564 126.707, 42.471 126, 42 126 C 41.529 126, 40.436 126.707, 39.571 127.571 M 157.500 127.418 C 132.503 132.281, 113.457 149.082, 105.265 173.500 L 102.580 181.500 102.217 220.309 C 101.945 249.402, 102.153 259.480, 103.049 260.559 C 104.068 261.787, 113.884 261.998, 169.372 261.985 C 205.193 261.976, 235.085 261.598, 235.801 261.144 C 236.828 260.493, 237.086 253.445, 237.028 227.671 C 236.953 194.453, 236.235 183.815, 233.406 174 C 227.387 153.118, 207.720 134.093, 186.500 128.627 C 177.618 126.340, 165.618 125.839, 157.500 127.418 M 317.500 127.418 C 290.214 132.726, 269.111 153.095, 263.511 179.529 C 261.307 189.937, 261.504 195.664, 264.117 197.062 C 267.365 198.801, 268.656 196.613, 269.871 187.308 C 271.940 171.469, 277.277 160.826, 288.500 150.155 C 296.190 142.844, 304.665 138.148, 315 135.472 C 323.831 133.185, 339.997 133.906, 348.723 136.976 C 362.130 141.693, 374.989 152.673, 381.261 164.762 C 385.781 173.473, 387.049 177.569, 388.413 187.863 C 389.635 197.080, 391.345 199.619, 394.543 196.964 C 395.976 195.775, 396.169 194.320, 395.731 188.022 C 394.602 171.818, 386.128 154.685, 373.703 143.485 C 367.144 137.572, 353.061 130.055, 344.974 128.150 C 337.104 126.296, 324.935 125.972, 317.500 127.418 M 154.645 135.584 C 134.654 140.423, 116.831 158.195, 111.520 178.584 C 110.301 183.265, 110 191.307, 110 219.210 L 110 254 170 254 L 230 254 229.992 226.750 C 229.979 185.290, 228.118 174.324, 218.702 160.247 C 210.584 148.109, 197.895 139.186, 183.540 135.522 C 176.221 133.653, 162.499 133.683, 154.645 135.584 " stroke="none" fill="black" fill-rule="evenodd"/>
</svg>