<svg xmlns="http://www.w3.org/2000/svg" width="468" height="324" viewBox="0 0 468 324" version="1.1">
	<path d="M 7.571 127.571 C 6.207 128.936, 6 133.463, 6 162 C 6 190.537, 6.207 195.064, 7.571 196.429 C 8.844 197.701, 11.697 198, 22.575 198 L 36.006 198 21.020 227.961 C 12.777 244.439, 6.285 258.580, 6.594 259.384 C 7.265 261.133, 9.512 262.125, 11.274 261.448 C 11.975 261.180, 19.056 247.919, 27.010 231.980 C 34.964 216.041, 41.710 203, 42 203 C 42.291 203, 48.822 215.661, 56.514 231.136 C 64.206 246.611, 71.095 259.886, 71.821 260.636 C 73.530 262.400, 74.501 262.356, 76.429 260.429 C 77.825 259.032, 78 251.628, 78 194 C 78 136.372, 77.825 128.968, 76.429 127.571 C 74.455 125.598, 73.545 125.598, 71.571 127.571 C 70.212 128.931, 70 133.242, 70 159.571 L 70 190 42 190 L 14 190 14 159.571 C 14 133.242, 13.788 128.931, 12.429 127.571 C 11.564 126.707, 10.471 126, 10 126 C 9.529 126, 8.436 126.707, 7.571 127.571 M 130.223 127.012 C 119.933 129.160, 109.981 137.443, 105.216 147.825 C 101.524 155.869, 101.513 167.108, 105.191 175.120 C 108.319 181.936, 113.835 188.233, 119.673 191.654 C 124.824 194.673, 137.869 198.124, 140 197.032 C 140.825 196.609, 143.300 195.947, 145.500 195.560 C 147.700 195.173, 151.791 193.575, 154.591 192.009 L 159.682 189.162 178.065 207.565 L 196.448 225.968 181.224 241.307 C 172.851 249.743, 166 257.143, 166 257.751 C 166 259.181, 168.819 262, 170.249 262 C 170.857 262, 178.250 255.156, 186.677 246.792 L 202 231.584 217.323 246.792 C 225.750 255.156, 233.143 262, 233.751 262 C 235.181 262, 238 259.181, 238 257.751 C 238 257.143, 231.176 249.770, 222.836 241.367 L 207.672 226.089 225.586 207.692 L 243.500 189.296 247.757 191.747 C 252.891 194.703, 265.911 198.102, 268 197.032 C 268.825 196.609, 271.279 195.941, 273.453 195.548 C 285.361 193.394, 297.428 181.349, 299.548 169.500 C 299.941 167.300, 300.609 164.825, 301.032 164 C 302.124 161.869, 298.673 148.824, 295.654 143.673 C 292.233 137.835, 285.936 132.319, 279.120 129.191 C 274.551 127.093, 271.982 126.610, 265.377 126.606 C 258.254 126.601, 256.455 126.994, 250.755 129.800 C 242.999 133.618, 236.824 139.965, 233.216 147.825 C 231.084 152.470, 230.610 154.991, 230.606 161.717 C 230.600 169.242, 230.914 170.547, 234.323 177.191 L 238.046 184.447 220.026 202.467 L 202.007 220.486 183.584 202.084 L 165.162 183.682 168.009 178.591 C 169.575 175.791, 171.173 171.700, 171.560 169.500 C 171.947 167.300, 172.609 164.825, 173.032 164 C 174.124 161.869, 170.673 148.824, 167.654 143.673 C 160.358 131.223, 144.296 124.073, 130.223 127.012 M 327.571 127.571 C 326.707 128.436, 326 129.529, 326 130 C 326 130.471, 326.707 131.564, 327.571 132.429 C 328.966 133.824, 336.152 134, 391.571 134 L 454 134 454 194 L 454 254 391.571 254 C 336.152 254, 328.966 254.176, 327.571 255.571 C 326.707 256.436, 326 257.529, 326 258 C 326 258.471, 326.707 259.564, 327.571 260.429 C 328.968 261.825, 336.372 262, 394 262 C 451.628 262, 459.032 261.825, 460.429 260.429 C 461.825 259.032, 462 251.628, 462 194 C 462 136.372, 461.825 128.968, 460.429 127.571 C 459.032 126.175, 451.628 126, 394 126 C 336.372 126, 328.968 126.175, 327.571 127.571 M 127.385 135.617 C 119.428 138.439, 112.611 146.342, 110.450 155.250 L 109.783 158 121.892 158 L 134 158 134 146 C 134 132.784, 134.253 133.181, 127.385 135.617 M 142 145.933 L 142 158 153.500 158 C 159.825 158, 165 157.630, 165 157.178 C 165 156.726, 164.282 154.248, 163.403 151.671 C 160.783 143.980, 153.341 137.329, 144.250 134.552 C 142.003 133.866, 142 133.881, 142 145.933 M 255.385 135.617 C 247.428 138.439, 240.611 146.342, 238.450 155.250 L 237.783 158 249.892 158 L 262 158 262 146 C 262 132.784, 262.253 133.181, 255.385 135.617 M 270 145.933 L 270 158 281.500 158 C 287.825 158, 293 157.630, 293 157.178 C 293 156.726, 292.282 154.248, 291.403 151.671 C 288.783 143.980, 281.341 137.329, 272.250 134.552 C 270.003 133.866, 270 133.881, 270 145.933 M 110.552 168.250 C 113.329 177.341, 119.980 184.783, 127.671 187.403 C 130.248 188.282, 132.726 189, 133.178 189 C 133.630 189, 134 183.825, 134 177.500 L 134 166 121.933 166 C 109.881 166, 109.866 166.003, 110.552 168.250 M 142 177.567 C 142 189.100, 142.007 189.133, 144.250 188.448 C 154.766 185.236, 161.236 178.766, 164.448 168.250 C 165.133 166.007, 165.100 166, 153.567 166 L 142 166 142 177.567 M 238.552 168.250 C 241.329 177.341, 247.980 184.783, 255.671 187.403 C 258.248 188.282, 260.726 189, 261.178 189 C 261.630 189, 262 183.825, 262 177.500 L 262 166 249.933 166 C 237.881 166, 237.866 166.003, 238.552 168.250 M 270 177.567 C 270 189.100, 270.007 189.133, 272.250 188.448 C 282.766 185.236, 289.236 178.766, 292.448 168.250 C 293.133 166.007, 293.100 166, 281.567 166 L 270 166 270 177.567 M 58.607 219.250 C 64.446 230.938, 69.398 240.688, 69.612 240.917 C 69.825 241.146, 70 231.583, 70 219.667 L 70 198 58.995 198 L 47.991 198 58.607 219.250 " stroke="none" fill="black" fill-rule="evenodd"/>
</svg>