<svg xmlns="http://www.w3.org/2000/svg" width="500" height="324" viewBox="0 0 500 324" version="1.1">
	<path d="M 55.571 63.571 C 54.707 64.436, 54 65.317, 54 65.531 C 54 66.993, 71.421 100.653, 72.488 101.252 C 73.225 101.665, 74.440 101.768, 75.187 101.482 C 77.102 100.747, 94.082 66.377, 93.403 64.609 C 92.732 62.858, 90.483 61.877, 88.705 62.560 C 87.993 62.833, 84.520 68.894, 80.986 76.028 C 77.453 83.163, 74.308 89, 73.997 89 C 73.687 89, 70.748 83.534, 67.467 76.853 C 59.925 61.499, 58.847 60.296, 55.571 63.571 M 295.285 159.230 C 276.978 177.506, 262 193.166, 262 194.030 C 262 197.785, 263.648 198, 292.444 198 L 320.487 198 291.244 227.256 C 275.160 243.347, 262 257.281, 262 258.221 C 262 259.161, 262.961 260.444, 264.136 261.073 C 266.103 262.126, 268.918 259.572, 299.636 228.864 C 317.986 210.520, 333 194.811, 333 193.956 C 333 190.217, 331.331 190, 302.556 190 L 274.513 190 303.756 160.744 C 319.840 144.653, 333 130.793, 333 129.944 C 333 128.191, 331.103 126, 329.585 126 C 329.026 126, 313.591 140.953, 295.285 159.230 M 413.500 127.480 C 386.453 132.502, 365.115 153.074, 359.511 179.529 C 357.307 189.937, 357.504 195.664, 360.117 197.062 C 363.374 198.806, 364.575 196.650, 365.916 186.650 C 367.337 176.057, 369.756 169.223, 374.871 161.354 C 382.126 150.191, 391.878 142.330, 404.803 137.225 C 410.803 134.856, 412.853 134.576, 424.500 134.540 C 435.626 134.506, 438.484 134.840, 444.326 136.857 C 453.442 140.004, 464.960 147.864, 470.660 154.828 C 478.771 164.737, 484.929 180.812, 484.983 192.215 C 485.003 196.661, 487.614 198.734, 490.518 196.611 C 494.648 193.591, 489.799 171.015, 482.406 158.845 C 477.314 150.463, 470.784 143.669, 462.484 138.118 C 453.822 132.324, 446.348 129.308, 436 127.431 C 426.892 125.778, 422.617 125.787, 413.500 127.480 M 39.267 223.267 C 20.970 241.563, 6 257.056, 6 257.695 C 6 259.187, 8.799 262, 10.285 262 C 10.913 262, 25.509 247.944, 42.721 230.764 L 74.015 199.527 105.264 230.764 C 122.450 247.944, 137.039 262, 137.684 262 C 138.329 262, 139.564 261.293, 140.429 260.429 C 142.780 258.077, 142.793 195.578, 140.443 192.223 C 138.598 189.588, 137.678 189.465, 135.571 191.571 C 134.219 192.924, 134 196.990, 134 220.799 L 134 248.455 104.711 219.227 C 88.602 203.152, 74.772 190, 73.978 190 C 73.183 190, 57.563 204.970, 39.267 223.267 M 167.585 191.558 C 166.713 192.430, 166 193.529, 166 194 C 166 194.471, 166.713 195.570, 167.585 196.442 C 168.978 197.835, 173.159 197.995, 202.226 197.763 C 232.452 197.523, 235.377 197.350, 236.386 195.750 C 237.191 194.474, 237.191 193.526, 236.386 192.250 C 235.377 190.650, 232.452 190.477, 202.226 190.237 C 173.159 190.005, 168.978 190.165, 167.585 191.558 " stroke="none" fill="black" fill-rule="evenodd"/>
</svg>