<svg xmlns="http://www.w3.org/2000/svg" width="564" height="324" viewBox="0 0 564 324" version="1.1">
	<path d="M 194.873 126.888 C 188.674 128.182, 180.395 132.847, 176.180 137.421 C 171.025 143.013, 168.489 148.025, 167.010 155.544 C 165.953 160.916, 166.089 162.678, 168.323 172.519 C 174.158 198.221, 184.400 217.725, 201.681 236.045 C 205.266 239.846, 211.312 245.328, 215.116 248.227 L 222.032 253.500 194.978 254 C 172.398 254.417, 167.768 254.748, 166.978 256 C 165.681 258.054, 165.756 258.613, 167.571 260.429 C 168.968 261.825, 176.372 262, 234 262 C 291.628 262, 299.032 261.825, 300.429 260.429 C 302.244 258.613, 302.319 258.054, 301.022 256 C 300.231 254.747, 295.552 254.418, 272.564 254 L 245.053 253.500 252.138 248 C 271.253 233.163, 287.943 208.988, 295.286 185.500 C 299.885 170.789, 301.288 161.720, 299.967 155.238 C 297.595 143.595, 290.120 134.240, 279.175 129.216 C 271.256 125.581, 259.969 125.577, 251.946 129.205 C 245.273 132.223, 239.589 137.021, 236.005 142.662 L 233.360 146.824 231.503 143.377 C 228.873 138.492, 221.737 132.223, 215.675 129.472 C 209.980 126.886, 200.510 125.710, 194.873 126.888 M 424.369 126.765 C 423.746 127.169, 409.008 155.963, 391.617 190.750 L 359.997 254 344.570 254 C 331.879 254, 328.864 254.279, 327.571 255.571 C 326.707 256.436, 326 257.529, 326 258 C 326 258.471, 326.707 259.564, 327.571 260.429 C 328.936 261.793, 333.463 262, 362 262 C 390.537 262, 395.064 261.793, 396.429 260.429 C 398.402 258.455, 398.402 257.545, 396.429 255.571 C 395.156 254.299, 392.303 254, 381.427 254 L 367.997 254 398.998 192.003 C 416.049 157.905, 430 129.812, 430 129.575 C 430 128.872, 426.916 125.999, 426.179 126.015 C 425.805 126.024, 424.991 126.361, 424.369 126.765 M 191.054 135.728 C 188.517 136.623, 184.606 139.299, 181.948 141.957 C 175.771 148.133, 173.502 154.735, 174.365 164.020 C 175.753 178.951, 184.608 201.354, 195.185 216.693 C 202.082 226.695, 215.474 240.104, 225.282 246.829 L 233.055 252.158 237.520 249.541 C 248.326 243.208, 261.290 230.807, 271.180 217.342 C 282.596 201.799, 293 174.511, 293 160.113 C 293 145.916, 280.451 134, 265.500 134 C 250.803 134, 238 145.922, 238 159.607 C 238 162.970, 235.867 166, 233.500 166 C 231.133 166, 229 162.970, 229 159.607 C 229 149.949, 220.912 138.862, 211.537 135.667 C 205.516 133.616, 196.964 133.641, 191.054 135.728 M 455.571 159.571 C 454.227 160.916, 454 164.736, 454 186 C 454 207.264, 454.227 211.084, 455.571 212.429 C 456.436 213.293, 457.529 214, 458 214 C 458.471 214, 459.564 213.293, 460.429 212.429 C 461.773 211.084, 462 207.264, 462 186 C 462 164.736, 461.773 160.916, 460.429 159.571 C 459.564 158.707, 458.471 158, 458 158 C 457.529 158, 456.436 158.707, 455.571 159.571 M 487.571 159.571 C 486.227 160.916, 486 164.736, 486 186 C 486 207.264, 486.227 211.084, 487.571 212.429 C 488.436 213.293, 489.529 214, 490 214 C 490.471 214, 491.564 213.293, 492.429 212.429 C 493.773 211.084, 494 207.264, 494 186 C 494 164.736, 493.773 160.916, 492.429 159.571 C 491.564 158.707, 490.471 158, 490 158 C 489.529 158, 488.436 158.707, 487.571 159.571 M 519.571 159.571 C 518.227 160.916, 518 164.736, 518 186 C 518 207.264, 518.227 211.084, 519.571 212.429 C 520.436 213.293, 521.529 214, 522 214 C 522.471 214, 523.564 213.293, 524.429 212.429 C 525.773 211.084, 526 207.264, 526 186 C 526 164.736, 525.773 160.916, 524.429 159.571 C 523.564 158.707, 522.471 158, 522 158 C 521.529 158, 520.436 158.707, 519.571 159.571 M 39.267 223.267 C 20.970 241.563, 6 257.056, 6 257.695 C 6 259.187, 8.799 262, 10.285 262 C 10.913 262, 25.506 247.947, 42.713 230.771 L 74 199.542 105.287 230.771 C 122.494 247.947, 137.087 262, 137.715 262 C 138.343 262, 139.564 261.293, 140.429 260.429 C 141.793 259.064, 142 254.537, 142 226 C 142 197.463, 141.793 192.936, 140.429 191.571 C 138.455 189.598, 137.545 189.598, 135.571 191.571 C 134.219 192.924, 134 196.990, 134 220.799 L 134 248.455 104.711 219.227 C 88.602 203.152, 74.772 190, 73.978 190 C 73.183 190, 57.563 204.970, 39.267 223.267 M 455.571 222.571 C 454.707 223.436, 454 224.529, 454 225 C 454 226.111, 456.889 229, 458 229 C 459.111 229, 462 226.111, 462 225 C 462 223.889, 459.111 221, 458 221 C 457.529 221, 456.436 221.707, 455.571 222.571 M 487.571 222.571 C 486.707 223.436, 486 224.529, 486 225 C 486 226.111, 488.889 229, 490 229 C 491.111 229, 494 226.111, 494 225 C 494 223.889, 491.111 221, 490 221 C 489.529 221, 488.436 221.707, 487.571 222.571 M 519.571 222.571 C 518.707 223.436, 518 224.529, 518 225 C 518 226.111, 520.889 229, 522 229 C 523.111 229, 526 226.111, 526 225 C 526 223.889, 523.111 221, 522 221 C 521.529 221, 520.436 221.707, 519.571 222.571 " stroke="none" fill="black" fill-rule="evenodd"/>
</svg>