<svg xmlns="http://www.w3.org/2000/svg" width="500" height="324" viewBox="0 0 500 324" version="1.1">
	<path d="M 55.571 63.571 C 54.707 64.436, 54 65.317, 54 65.531 C 54 66.993, 71.421 100.653, 72.488 101.252 C 73.225 101.665, 74.440 101.768, 75.188 101.481 C 76.837 100.849, 93 68.755, 93 66.115 C 93 63.770, 90.710 61.790, 88.832 62.511 C 88.050 62.811, 84.520 68.894, 80.986 76.028 C 77.453 83.163, 74.308 89, 73.997 89 C 73.687 89, 70.748 83.534, 67.467 76.853 C 59.925 61.499, 58.847 60.296, 55.571 63.571 M 35.045 127.064 C 19.586 130.194, 7.255 144.080, 6.841 158.824 C 6.689 164.231, 10.459 179.667, 14.976 192.133 C 18.628 202.212, 26.063 215.568, 33.594 225.579 C 47.004 243.404, 74.270 264.227, 77.454 259.074 C 77.769 258.565, 81.733 255.556, 86.263 252.388 C 112.818 233.821, 132.129 203.986, 138.872 171.112 C 141.945 156.133, 139.262 146.177, 129.518 136.404 C 116.900 123.746, 95.755 123.323, 82.257 135.459 C 79.595 137.852, 76.567 141.388, 75.529 143.317 L 73.640 146.824 70.976 142.624 C 63.636 131.049, 48.255 124.389, 35.045 127.064 M 295.285 159.230 C 276.978 177.506, 262 193.166, 262 194.030 C 262 197.785, 263.648 198, 292.444 198 L 320.487 198 291.244 227.256 C 275.160 243.347, 262 257.281, 262 258.221 C 262 259.161, 262.961 260.444, 264.136 261.073 C 266.103 262.126, 268.918 259.572, 299.636 228.864 C 317.986 210.520, 333 194.811, 333 193.956 C 333 190.217, 331.331 190, 302.556 190 L 274.513 190 303.756 160.744 C 319.840 144.653, 333 130.793, 333 129.944 C 333 128.191, 331.103 126, 329.585 126 C 329.026 126, 313.591 140.953, 295.285 159.230 M 415.531 127.067 C 387.861 131.313, 365.233 152.524, 359.499 179.588 C 357.306 189.939, 357.508 195.667, 360.117 197.062 C 363.381 198.809, 364.618 196.615, 365.816 186.954 C 368.141 168.196, 377.514 153.178, 393.310 142.903 C 403.255 136.433, 410.545 134.500, 425 134.500 C 435.533 134.500, 438.574 134.871, 444.326 136.857 C 453.442 140.004, 464.960 147.864, 470.660 154.828 C 478.771 164.737, 484.929 180.812, 484.983 192.215 C 485.002 196.428, 487.359 198.498, 490.276 196.866 C 494.091 194.731, 491.123 176.088, 484.982 163.615 C 472.508 138.277, 443.150 122.828, 415.531 127.067 M 31.591 135.573 C 23.452 138.555, 15.998 146.866, 14.553 154.569 C 13.726 158.977, 16.225 172.568, 20.050 184.464 C 25.992 202.943, 35.743 218.759, 49.988 233.026 C 55.220 238.265, 62.724 244.731, 66.665 247.394 L 73.830 252.237 81.554 246.898 C 106.445 229.690, 125.123 201.313, 131.495 171.022 C 133.741 160.345, 133.447 156.214, 129.940 149.196 C 124.547 138.404, 115.427 133.343, 102.977 134.234 C 89.428 135.203, 78.088 146.273, 78.022 158.595 C 78 162.601, 75.807 166, 73.243 166 C 71.111 166, 69 162.820, 69 159.607 C 69 149.949, 60.912 138.862, 51.537 135.667 C 45.642 133.659, 36.928 133.618, 31.591 135.573 M 167.585 191.558 C 166.713 192.430, 166 193.529, 166 194 C 166 194.471, 166.713 195.570, 167.585 196.442 C 168.978 197.835, 173.159 197.995, 202.226 197.763 C 232.452 197.523, 235.377 197.350, 236.386 195.750 C 237.191 194.474, 237.191 193.526, 236.386 192.250 C 235.377 190.650, 232.452 190.477, 202.226 190.237 C 173.159 190.005, 168.978 190.165, 167.585 191.558 " stroke="none" fill="black" fill-rule="evenodd"/>
</svg>