<svg xmlns="http://www.w3.org/2000/svg" width="532" height="324" viewBox="0 0 532 324" version="1.1">
	<path d="M 33.384 127.412 C 15.475 131.758, 3.559 149.807, 6.987 167.396 C 8.500 175.161, 12.212 182.019, 17.580 186.967 C 40.258 207.870, 76.252 192.246, 76.252 161.500 C 76.252 144.888, 65.367 131.178, 49.147 127.360 C 42.397 125.772, 40.111 125.779, 33.384 127.412 M 159.870 127.013 C 144.635 129.408, 133.615 135.195, 121.974 146.916 C 108.423 160.559, 102.624 174.521, 102.624 193.500 C 102.624 205.274, 104.486 213.242, 109.751 224 C 114.930 234.580, 128.465 248.103, 139 253.222 C 154.322 260.667, 171.016 262.509, 182.493 258.019 C 190.726 254.798, 198.871 246.618, 201.934 238.493 C 207.877 222.727, 202.138 204.751, 188.376 196.024 L 184.176 193.360 187.683 191.471 C 192.957 188.631, 199.626 180.611, 202.043 174.202 C 210.470 151.855, 195.186 128.281, 171.141 126.538 C 168.038 126.313, 162.966 126.527, 159.870 127.013 M 352.582 133.117 C 343.636 141.471, 336.150 152.395, 332.005 163.142 C 328.725 171.647, 326 185.425, 326 193.500 C 326 201.581, 328.727 215.359, 332.004 223.833 C 336.131 234.504, 341.941 243.033, 352.044 253.250 L 360.696 262 425.504 262 L 490.312 262 498.406 253.736 C 511.385 240.485, 518.195 228.656, 522.014 212.726 C 524.709 201.485, 524.683 185.416, 521.953 174 C 518.103 157.905, 507.454 140.427, 495.296 130.248 L 490.222 126 425.213 126 L 360.203 126 352.582 133.117 M 31.054 135.728 C 25.018 137.859, 17.781 145.260, 15.667 151.463 C 11.995 162.241, 14.382 173.477, 21.952 181.048 C 32.761 191.857, 50.503 191.777, 61.125 180.872 C 78.475 163.060, 65.904 133.727, 41.072 134.079 C 38.007 134.122, 33.499 134.864, 31.054 135.728 M 154.645 135.584 C 134.761 140.397, 116.825 158.334, 111.585 178.644 C 109.554 186.517, 109.554 200.483, 111.585 208.356 C 116.889 228.914, 134.828 246.683, 155.103 251.463 C 163.286 253.392, 173.578 253.413, 178.965 251.512 C 189.486 247.800, 197 236.962, 197 225.500 C 197 211.380, 184.810 198, 171.946 198 C 168.969 198, 166 195.753, 166 193.500 C 166 191.247, 168.969 189, 171.946 189 C 184.810 189, 197 175.620, 197 161.500 C 197 150.038, 189.486 139.200, 178.965 135.488 C 173.751 133.648, 162.457 133.693, 154.645 135.584 M 357.360 138.236 C 347.968 146.893, 339.267 161.727, 335.932 174.766 C 331.815 190.864, 333.910 211.899, 341.050 226.144 C 345.517 235.057, 352.022 243.935, 358.065 249.368 L 363.216 254 425.404 254 L 487.593 254 494.365 247.250 C 503.037 238.608, 509.034 228.956, 513.161 217 C 516.259 208.027, 516.441 206.723, 516.441 193.500 C 516.441 180.277, 516.259 178.973, 513.161 170 C 509.111 158.268, 503.063 148.428, 494.876 140.250 L 488.619 134 425.287 134 L 361.955 134 357.360 138.236 M 258.223 159.008 C 247.939 161.164, 238.017 169.415, 233.189 179.825 C 229.440 187.907, 229.440 199.093, 233.189 207.175 C 243.969 230.417, 272.603 235.817, 290.149 217.918 C 297.269 210.655, 300.111 203.688, 300.111 193.500 C 300.111 183.312, 297.269 176.345, 290.149 169.082 C 281.792 160.556, 269.435 156.658, 258.223 159.008 M 386.355 158.986 C 375.790 161.214, 366.114 169.146, 361.329 179.500 C 359.026 184.484, 358.558 186.854, 358.565 193.500 C 358.577 203.515, 361.873 211.488, 368.824 218.311 C 382.330 231.568, 403.321 231.935, 416.938 219.150 L 422 214.398 422 221.164 C 422 226.976, 422.291 228.085, 424.064 229.034 C 428.316 231.310, 429 229.071, 429 212.878 L 429 198 457.500 198 L 486 198 486 212.965 C 486 227.181, 486.106 227.986, 488.117 229.062 C 492.830 231.585, 493.043 230.068, 493.043 194 C 493.043 157.932, 492.830 156.415, 488.117 158.938 C 486.106 160.014, 486 160.819, 486 175.035 L 486 190 457.500 190 L 429 190 429 175.122 C 429 158.929, 428.316 156.690, 424.064 158.966 C 422.316 159.901, 422 161.029, 422 166.336 L 422 172.602 416.938 167.850 C 409.039 160.434, 396.594 156.826, 386.355 158.986 M 255.627 167.468 C 250.247 169.386, 245.039 173.829, 241.500 179.519 C 238.969 183.589, 238.444 185.570, 238.143 192.193 C 237.830 199.089, 238.110 200.705, 240.454 205.496 C 243.617 211.959, 249.485 217.296, 255.795 219.446 C 261.095 221.252, 270.110 221.360, 274.684 219.674 C 285.521 215.679, 293 204.991, 293 193.500 C 293 182.038, 285.486 171.200, 274.965 167.488 C 269.743 165.645, 260.766 165.636, 255.627 167.468 M 383.627 167.468 C 378.247 169.386, 373.039 173.829, 369.500 179.519 C 365.527 185.908, 364.712 197.311, 367.741 204.129 C 372.446 214.717, 380.286 220.123, 391.883 220.774 C 398.995 221.173, 399.931 220.978, 406 217.830 C 416.444 212.411, 421.773 202.629, 420.713 190.821 C 419.772 180.346, 412.582 170.975, 402.684 167.326 C 398.327 165.720, 388.323 165.794, 383.627 167.468 M 7.571 191.571 C 6.707 192.436, 6 193.640, 6 194.249 C 6 194.857, 12.844 202.250, 21.208 210.677 L 36.416 226 21.208 241.323 C 12.844 249.750, 6 257.143, 6 257.751 C 6 259.181, 8.819 262, 10.249 262 C 10.857 262, 18.250 255.156, 26.677 246.792 L 42 231.584 57.323 246.792 C 65.750 255.156, 73.143 262, 73.751 262 C 75.181 262, 78 259.181, 78 257.751 C 78 257.143, 71.156 249.750, 62.792 241.323 L 47.584 226 62.792 210.677 C 71.156 202.250, 78 194.857, 78 194.249 C 78 192.819, 75.181 190, 73.751 190 C 73.143 190, 65.750 196.844, 57.323 205.208 L 42 220.416 26.677 205.208 C 18.250 196.844, 10.857 190, 10.249 190 C 9.640 190, 8.436 190.707, 7.571 191.571 M 231.585 255.558 C 230.713 256.430, 230 257.529, 230 258 C 230 258.471, 230.713 259.570, 231.585 260.442 C 232.978 261.835, 237.159 261.995, 266.226 261.763 C 296.452 261.523, 299.377 261.350, 300.386 259.750 C 301.191 258.474, 301.191 257.526, 300.386 256.250 C 299.377 254.650, 296.452 254.477, 266.226 254.237 C 237.159 254.005, 232.978 254.165, 231.585 255.558 " stroke="none" fill="black" fill-rule="evenodd"/>
</svg>