<svg xmlns="http://www.w3.org/2000/svg" width="372" height="324" viewBox="0 0 372 324" version="1.1">
	<path d="M 71.571 127.571 C 70.288 128.855, 70 131.788, 70 143.571 L 70 158 55.571 158 C 43.788 158, 40.855 158.288, 39.571 159.571 C 38.219 160.924, 38 164.988, 38 188.774 L 38 216.405 24.667 203.202 C 17.334 195.941, 10.841 190, 10.239 190 C 8.791 190, 6 192.834, 6 194.305 C 6 195.823, 72.177 262, 73.695 262 C 74.334 262, 75.564 261.293, 76.429 260.429 C 77.712 259.145, 78 256.212, 78 244.429 L 78 230 92.429 230 C 104.212 230, 107.145 229.712, 108.429 228.429 C 109.793 227.064, 110 222.537, 110 194 C 110 165.463, 109.793 160.936, 108.429 159.571 C 107.145 158.288, 104.212 158, 92.429 158 L 78 158 78 143.571 C 78 131.788, 77.712 128.855, 76.429 127.571 C 75.564 126.707, 74.471 126, 74 126 C 73.529 126, 72.436 126.707, 71.571 127.571 M 162.223 159.012 C 151.933 161.160, 141.981 169.443, 137.216 179.825 C 135.092 184.453, 134.610 186.998, 134.606 193.623 C 134.601 200.746, 134.994 202.545, 137.800 208.245 C 141.618 216.001, 147.965 222.176, 155.825 225.784 C 163.894 229.488, 175.106 229.488, 183.175 225.784 C 191.035 222.176, 197.382 216.001, 201.200 208.245 C 204.016 202.526, 204.400 200.755, 204.400 193.500 C 204.400 186.245, 204.016 184.474, 201.200 178.755 C 193.955 164.039, 177.665 155.788, 162.223 159.012 M 231.571 159.571 C 230.207 160.936, 230 165.463, 230 194 C 230 222.537, 230.207 227.064, 231.571 228.429 C 233.545 230.402, 234.455 230.402, 236.429 228.429 C 237.793 227.064, 238 222.537, 238 194 C 238 165.463, 237.793 160.936, 236.429 159.571 C 235.564 158.707, 234.471 158, 234 158 C 233.529 158, 232.436 158.707, 231.571 159.571 M 359.571 159.571 C 358.207 160.936, 358 165.463, 358 194 C 358 222.537, 358.207 227.064, 359.571 228.429 C 361.545 230.402, 362.455 230.402, 364.429 228.429 C 365.793 227.064, 366 222.537, 366 194 C 366 165.463, 365.793 160.936, 364.429 159.571 C 363.564 158.707, 362.471 158, 362 158 C 361.529 158, 360.436 158.707, 359.571 159.571 M 46 194 L 46 222 58 222 L 70 222 70 194 L 70 166 58 166 L 46 166 46 194 M 78 194 L 78 222 90 222 L 102 222 102 194 L 102 166 90 166 L 78 166 78 194 M 160.453 167.326 C 145.492 173.091, 138.431 188.170, 143.597 203.329 C 145.470 208.829, 151.813 215.734, 157.500 218.467 C 163.100 221.158, 172.583 221.632, 178.895 219.535 C 184.766 217.585, 191.568 211.476, 194.523 205.500 C 197.292 199.897, 197.292 187.103, 194.523 181.500 C 191.688 175.767, 184.795 169.459, 179.329 167.597 C 173.921 165.754, 164.871 165.624, 160.453 167.326 M 167.571 191.571 C 166.707 192.436, 166 193.529, 166 194 C 166 194.471, 166.707 195.564, 167.571 196.429 C 168.436 197.293, 169.529 198, 170 198 C 170.471 198, 171.564 197.293, 172.429 196.429 C 173.293 195.564, 174 194.471, 174 194 C 174 193.529, 173.293 192.436, 172.429 191.571 C 171.564 190.707, 170.471 190, 170 190 C 169.529 190, 168.436 190.707, 167.571 191.571 M 60.500 239 C 65.427 243.950, 69.580 248, 69.729 248 C 69.878 248, 70 243.950, 70 239 L 70 230 60.771 230 L 51.542 230 60.500 239 " stroke="none" fill="black" fill-rule="evenodd"/>
</svg>