<svg xmlns="http://www.w3.org/2000/svg" width="436" height="324" viewBox="0 0 436 324" version="1.1">
	<path d="M 129.608 132.122 C 117.806 142.937, 109.219 157.313, 104.894 173.500 C 103.274 179.564, 102.757 184.404, 102.757 193.500 C 102.757 202.596, 103.274 207.436, 104.894 213.500 C 109.226 229.712, 117.805 244.062, 129.656 254.922 C 136.610 261.294, 139.276 262.154, 141.398 258.712 C 142.339 257.185, 141.507 256.034, 135.718 250.846 C 123.593 239.980, 114.911 225.214, 111.476 209.617 C 109.115 198.897, 109.848 180.314, 112.996 171.033 C 117.700 157.169, 125.682 144.843, 135.378 136.472 C 141.009 131.611, 142.043 129.443, 139.800 127.200 C 137.777 125.177, 136.530 125.779, 129.608 132.122 M 227.045 127.082 C 212.729 129.922, 201.547 141.266, 198.889 155.645 C 196.415 169.028, 206.181 198.349, 220.156 219.500 C 227.493 230.603, 244.295 247.194, 255.926 254.820 C 261.110 258.219, 265.684 261, 266.091 261 C 266.497 261, 267.881 260.108, 269.165 259.019 C 270.449 257.929, 274.425 254.927, 278 252.348 C 305.703 232.361, 322.722 206.446, 330.469 172.449 C 333.236 160.309, 332.602 153.786, 327.776 144.731 C 315.450 121.604, 282.124 120.442, 268.014 142.647 L 265.379 146.793 262.535 142.298 C 255.405 131.028, 240.141 124.483, 227.045 127.082 M 222.435 135.890 C 212.357 140.468, 205.989 149.991, 206.015 160.446 C 206.043 171.455, 211.717 189.930, 219.544 204.500 C 228.530 221.228, 242.767 237.152, 258.124 247.652 C 264.556 252.050, 264.832 252.137, 267.624 250.671 C 279.320 244.528, 297.491 226.500, 307.173 211.432 C 317.110 195.969, 325.822 169.514, 324.680 158.272 C 323.661 148.237, 316.322 138.879, 306.684 135.326 C 301.682 133.482, 291.111 133.765, 286.500 135.867 C 277.493 139.973, 271.593 147.710, 269.999 157.504 C 269.489 160.642, 268.550 163.838, 267.913 164.605 C 265.118 167.972, 261 164.685, 261 159.088 C 261 153.811, 255.742 143.755, 251.031 140.024 C 248.913 138.347, 245.283 136.306, 242.965 135.488 C 237.124 133.427, 227.441 133.617, 222.435 135.890 M 148.648 159.005 C 141.426 161.225, 135.914 167.495, 134.503 175.096 C 133.853 178.594, 135.586 182, 138.015 182 C 139.484 182, 142 177.693, 142 175.177 C 142 173.807, 143.440 171.360, 145.400 169.400 C 148.302 166.498, 149.488 166, 153.500 166 C 157.512 166, 158.698 166.498, 161.600 169.400 C 164.502 172.302, 165 173.488, 165 177.500 C 165 181.512, 164.502 182.698, 161.600 185.600 C 159.526 187.674, 157.214 189, 155.671 189 C 151.012 189, 150 191.231, 150 201.500 C 150 208.673, 150.367 211.224, 151.571 212.429 C 153.678 214.535, 154.598 214.412, 156.443 211.777 C 157.477 210.302, 158 207.300, 158 202.845 C 158 196.942, 158.248 196.056, 160.066 195.479 C 163.044 194.534, 168.851 189.190, 170.623 185.763 C 172.562 182.012, 172.583 173.020, 170.661 169.338 C 169.019 166.195, 164.585 161.790, 161.500 160.238 C 158.384 158.671, 151.792 158.038, 148.648 159.005 M 359.571 159.571 C 358.227 160.916, 358 164.736, 358 186 C 358 207.264, 358.227 211.084, 359.571 212.429 C 361.457 214.315, 362.219 214.381, 363.800 212.800 C 365.508 211.092, 365.508 160.908, 363.800 159.200 C 362.219 157.619, 361.457 157.685, 359.571 159.571 M 391.571 159.571 C 390.227 160.916, 390 164.736, 390 186 C 390 207.264, 390.227 211.084, 391.571 212.429 C 393.457 214.315, 394.219 214.381, 395.800 212.800 C 397.508 211.092, 397.508 160.908, 395.800 159.200 C 394.219 157.619, 393.457 157.685, 391.571 159.571 M 40.370 190.765 C 38.401 192.045, 6.007 257.855, 6.594 259.384 C 7.265 261.133, 9.512 262.124, 11.274 261.448 C 11.975 261.180, 19.056 247.919, 27.010 231.980 C 34.964 216.041, 41.710 203, 42 203 C 42.290 203, 49.036 216.041, 56.990 231.980 C 64.944 247.919, 72.108 261.211, 72.909 261.519 C 73.711 261.826, 75.218 261.226, 76.259 260.185 C 78.116 258.328, 77.837 257.662, 61.456 224.896 C 46.453 194.886, 43.744 190.031, 42 190.031 C 41.725 190.031, 40.991 190.361, 40.370 190.765 M 151.616 222.527 C 150.727 223.416, 150 224.529, 150 225 C 150 226.389, 153.140 229.120, 154.295 228.735 C 156.395 228.035, 157.549 225.094, 156.423 223.310 C 154.905 220.902, 153.474 220.669, 151.616 222.527 M 359.616 222.527 C 358.727 223.416, 358 224.529, 358 225 C 358 226.389, 361.140 229.120, 362.295 228.735 C 364.395 228.035, 365.549 225.094, 364.423 223.310 C 362.905 220.902, 361.474 220.669, 359.616 222.527 M 391.616 222.527 C 390.727 223.416, 390 224.529, 390 225 C 390 226.389, 393.140 229.120, 394.295 228.735 C 396.395 228.035, 397.549 225.094, 396.423 223.310 C 394.905 220.902, 393.474 220.669, 391.616 222.527 " stroke="none" fill="black" fill-rule="evenodd"/>
</svg>