<svg xmlns="http://www.w3.org/2000/svg" width="228" height="324" viewBox="0 0 228 324" version="1.1">
	<path d="M 87.571 127.571 C 86.175 128.968, 86 136.372, 86 194 C 86 251.628, 86.175 259.032, 87.571 260.429 C 88.436 261.293, 89.529 262, 90 262 C 90.471 262, 91.564 261.293, 92.429 260.429 C 93.825 259.032, 94 251.628, 94 194 C 94 136.372, 93.825 128.968, 92.429 127.571 C 91.564 126.707, 90.471 126, 90 126 C 89.529 126, 88.436 126.707, 87.571 127.571 M 215.571 127.571 C 214.175 128.968, 214 136.372, 214 194 C 214 251.628, 214.175 259.032, 215.571 260.429 C 216.436 261.293, 217.529 262, 218 262 C 218.471 262, 219.564 261.293, 220.429 260.429 C 221.825 259.032, 222 251.628, 222 194 C 222 136.372, 221.825 128.968, 220.429 127.571 C 219.564 126.707, 218.471 126, 218 126 C 217.529 126, 216.436 126.707, 215.571 127.571 M 22.495 129.015 C 21.990 130.606, 23.517 132.655, 29.758 138.765 C 38.920 147.733, 45.734 158.564, 49.724 170.500 C 52.149 177.753, 52.399 179.900, 52.399 193.500 C 52.399 207.100, 52.149 209.247, 49.724 216.500 C 45.763 228.351, 39.121 238.905, 29.937 247.942 C 21.873 255.877, 20.843 257.795, 23.472 259.977 C 25.490 261.651, 30.021 258.765, 37.121 251.280 C 47.281 240.572, 54.202 228.112, 58.106 213.500 C 61.092 202.323, 61.092 184.677, 58.106 173.500 C 53.868 157.641, 45.304 143.126, 34.021 132.680 C 27.457 126.603, 23.646 125.391, 22.495 129.015 M 23.250 158.651 C 21.099 159.539, 21.873 162.817, 25.293 167.297 C 35.820 181.088, 36.897 199.766, 28.016 214.500 C 26.358 217.250, 24.081 220.647, 22.955 222.049 C 20.770 224.772, 21.097 227.439, 23.740 228.454 C 27.020 229.712, 35.457 218.806, 38.852 208.919 C 44.188 193.381, 41.337 175.622, 31.585 163.659 C 27.480 158.623, 25.785 157.605, 23.250 158.651 M 6.590 175.553 C 5.186 176.957, 5.330 177.653, 8.101 182.803 C 12.051 190.145, 11.890 197.545, 7.643 203.964 C 4.497 208.717, 4.811 212, 8.412 212 C 11.120 212, 12.966 210.070, 16.064 204 C 19.247 197.763, 19.247 188.237, 16.064 182 C 12.008 174.054, 9.676 172.467, 6.590 175.553 " stroke="none" fill="black" fill-rule="evenodd"/>
</svg>