<svg xmlns="http://www.w3.org/2000/svg" width="692" height="324" viewBox="0 0 692 324" version="1.1">
	<path d="M 7.571 127.571 C 6.206 128.937, 6 133.497, 6 162.371 C 6 186.883, 6.315 195.915, 7.200 196.800 C 8.081 197.681, 16.578 198, 39.200 198 L 70 198 70 228.429 C 70 254.758, 70.212 259.069, 71.571 260.429 C 73.545 262.402, 74.455 262.402, 76.429 260.429 C 77.824 259.034, 78 251.848, 78 196.429 C 78 142.545, 78.199 134, 79.451 134 C 83.741 134, 92.484 136.649, 100 140.225 C 118.621 149.087, 133 170.836, 133 190.139 C 133 197.065, 136.570 200.214, 139.360 195.750 C 140.454 194, 140.582 191.869, 139.935 186.164 C 136.808 158.584, 116.993 135.685, 89.983 128.436 C 81.357 126.121, 65.651 126.118, 57.036 128.431 C 41.828 132.513, 25.740 143.895, 17.769 156.214 L 14.500 161.265 14 144.594 C 13.600 131.252, 13.200 127.734, 12 126.977 C 9.946 125.681, 9.386 125.757, 7.571 127.571 M 223.870 127.014 C 192.933 131.874, 169.619 156.506, 166.533 187.593 C 165.946 193.499, 166.106 194.963, 167.486 196.343 C 168.397 197.254, 169.535 198, 170.015 198 C 171.925 198, 174 193.308, 174 188.988 C 174 176.638, 180.422 162.611, 190.993 151.875 C 202.822 139.859, 216.541 134, 232.845 134 C 243.674 134, 249.916 135.424, 259.820 140.153 C 269.977 145.002, 279.912 154.325, 285.340 164.101 C 289.365 171.350, 293 183.919, 293 190.589 C 293 198.126, 292.466 198, 324.308 198 L 352.472 198 339.236 211.263 C 331.956 218.558, 326 225.292, 326 226.228 C 326 227.164, 326.952 228.439, 328.115 229.062 C 330.040 230.092, 331.775 228.675, 347.354 213.347 C 356.772 204.081, 364.843 195.938, 365.289 195.250 C 365.734 194.562, 365.734 193.437, 365.289 192.750 C 364.843 192.063, 356.772 183.919, 347.354 174.653 C 331.775 159.325, 330.040 157.908, 328.115 158.938 C 326.952 159.561, 326 160.836, 326 161.772 C 326 162.708, 331.956 169.442, 339.236 176.737 L 352.472 190 326.236 190 L 300 190 300 187.160 C 300 181.904, 296.085 168.955, 292.303 161.700 C 289.753 156.809, 285.954 151.890, 280.457 146.361 C 273.703 139.568, 270.806 137.478, 262.933 133.719 C 257.745 131.242, 251.475 128.743, 249 128.165 C 242.187 126.573, 230.177 126.023, 223.870 127.014 M 391.750 127.080 C 390.111 128.035, 390 132.293, 390 194.015 C 390 259.587, 390.011 259.935, 392.064 261.034 C 397.084 263.721, 397 264.854, 397 194.078 C 397 123.068, 397.071 123.981, 391.750 127.080 M 519.750 127.080 C 518.111 128.035, 518 132.293, 518 194.015 C 518 259.587, 518.011 259.935, 520.064 261.034 C 525.084 263.721, 525 264.854, 525 194.078 C 525 123.068, 525.071 123.981, 519.750 127.080 M 607.235 127.088 C 592.887 129.277, 580.473 135.710, 569.396 146.696 C 563.702 152.343, 561.153 155.893, 557.549 163.196 C 550.441 177.596, 547.671 194.683, 552.064 197.034 C 555.325 198.780, 556.669 196.737, 557.446 188.850 C 560.242 160.475, 581.876 137.526, 608.839 134.333 L 614 133.721 614 196.811 C 614 255.497, 614.120 259.968, 615.724 260.866 C 616.818 261.478, 618.098 261.483, 619.224 260.880 C 620.896 259.985, 621 256.251, 621 196.829 L 621 133.728 625.750 134.373 C 638.992 136.170, 654.358 144.685, 662.660 154.828 C 670.771 164.737, 676.929 180.812, 676.983 192.215 C 677.002 196.428, 679.359 198.498, 682.276 196.866 C 686.091 194.731, 683.123 176.088, 676.982 163.615 C 664.439 138.137, 635.197 122.822, 607.235 127.088 M 58.645 135.584 C 38.562 140.445, 20.305 158.877, 15.537 179.103 C 14.708 182.621, 14.023 186.512, 14.015 187.750 L 14 190 42 190 L 70 190 70 162 L 70 134 67.250 134.083 C 65.737 134.129, 61.865 134.804, 58.645 135.584 M 575.230 199.269 C 570.154 204.367, 566 209.301, 566 210.234 C 566 211.166, 566.954 212.440, 568.120 213.064 C 570.004 214.073, 570.896 213.550, 576.120 208.381 L 582 202.563 582 228.281 L 582 254 575.934 254 C 569.019 254, 566 255.216, 566 258 C 566 261.326, 569.285 262, 585.500 262 C 601.715 262, 605 261.326, 605 258 C 605 255.216, 601.981 254, 595.066 254 L 589 254 589 223.200 C 589 192.392, 588.750 190, 585.530 190 C 584.942 190, 580.307 194.171, 575.230 199.269 " stroke="none" fill="black" fill-rule="evenodd"/>
</svg>