<svg xmlns="http://www.w3.org/2000/svg" width="564" height="324" viewBox="0 0 564 324" version="1.1">
	<path d="M 39.571 127.571 C 38.707 128.436, 38 129.335, 38 129.569 C 38 131.164, 103.738 261.069, 104.739 261.453 C 105.432 261.719, 106.568 261.719, 107.261 261.453 C 109.123 260.739, 174.060 130.320, 173.404 128.612 C 172.736 126.870, 170.487 125.876, 168.735 126.548 C 168.039 126.815, 153.755 154.476, 136.992 188.017 C 120.228 221.558, 106.282 249, 106 249 C 105.718 249, 91.990 221.941, 75.493 188.869 C 58.997 155.796, 44.905 128.121, 44.179 127.369 C 42.471 125.600, 41.500 125.643, 39.571 127.571 M 256.500 126.944 C 248.325 128.268, 242.930 129.991, 235 133.814 C 224.444 138.903, 210.927 152.404, 205.778 163 C 199.648 175.615, 196.334 193.191, 199.491 196.348 C 201.547 198.404, 202.439 198.418, 204.429 196.429 C 205.404 195.453, 206.006 193.082, 206.015 190.179 C 206.057 176.942, 212.682 162.237, 223.459 151.459 C 235.129 139.789, 248.871 134.046, 265.201 134.015 C 275.688 133.995, 281.980 135.455, 292 140.235 C 310.952 149.275, 325 170.664, 325 190.478 C 325 198.143, 324.405 198, 356.274 198 L 384.405 198 371.202 211.333 C 363.941 218.666, 358 225.159, 358 225.761 C 358 227.187, 360.825 230, 362.257 230 C 364.006 230, 398 195.761, 398 194 C 398 192.239, 364.006 158, 362.257 158 C 360.825 158, 358 160.813, 358 162.239 C 358 162.841, 363.949 169.342, 371.219 176.684 L 384.439 190.035 358.473 189.767 L 332.508 189.500 331.805 183.870 C 329.998 169.395, 323.916 157.715, 312.084 146 C 302.740 136.748, 293.763 131.474, 282.500 128.622 C 274.819 126.677, 262.903 125.908, 256.500 126.944 M 423.571 127.571 C 422.175 128.968, 422 136.372, 422 194 C 422 251.628, 422.175 259.032, 423.571 260.429 C 424.436 261.293, 425.529 262, 426 262 C 426.471 262, 427.564 261.293, 428.429 260.429 C 429.825 259.032, 430 251.628, 430 194 C 430 136.372, 429.825 128.968, 428.429 127.571 C 427.564 126.707, 426.471 126, 426 126 C 425.529 126, 424.436 126.707, 423.571 127.571 M 551.571 127.571 C 550.175 128.968, 550 136.372, 550 194 C 550 251.628, 550.175 259.032, 551.571 260.429 C 552.436 261.293, 553.529 262, 554 262 C 554.471 262, 555.564 261.293, 556.429 260.429 C 557.825 259.032, 558 251.628, 558 194 C 558 136.372, 557.825 128.968, 556.429 127.571 C 555.564 126.707, 554.471 126, 554 126 C 553.529 126, 552.436 126.707, 551.571 127.571 M 7.571 191.571 C 6.707 192.436, 6 193.529, 6 194 C 6 195.111, 8.889 198, 10 198 C 11.111 198, 14 195.111, 14 194 C 14 192.889, 11.111 190, 10 190 C 9.529 190, 8.436 190.707, 7.571 191.571 " stroke="none" fill="black" fill-rule="evenodd"/>
</svg>