<svg xmlns="http://www.w3.org/2000/svg" width="276" height="324" viewBox="0 0 276 324" version="1.1">
	<path d="M 231.571 63.571 C 230.267 64.876, 230 68.009, 230 82 C 230 95.991, 230.267 99.124, 231.571 100.429 C 233.900 102.757, 266.100 102.757, 268.429 100.429 C 270.757 98.100, 270.757 65.900, 268.429 63.571 C 266.100 61.243, 233.900 61.243, 231.571 63.571 M 238 82 L 238 94 250 94 L 262 94 262 82 L 262 70 250 70 L 238 70 238 82 M 247.571 127.571 C 246.175 128.968, 246 136.372, 246 194 C 246 251.628, 246.175 259.032, 247.571 260.429 C 248.436 261.293, 249.529 262, 250 262 C 250.471 262, 251.564 261.293, 252.429 260.429 C 253.825 259.032, 254 251.628, 254 194 C 254 136.372, 253.825 128.968, 252.429 127.571 C 251.564 126.707, 250.471 126, 250 126 C 249.529 126, 248.436 126.707, 247.571 127.571 M 22.495 129.015 C 21.990 130.606, 23.517 132.655, 29.758 138.765 C 38.920 147.733, 45.734 158.564, 49.724 170.500 C 52.149 177.753, 52.399 179.900, 52.399 193.500 C 52.399 207.100, 52.149 209.247, 49.724 216.500 C 45.728 228.454, 38.924 239.265, 29.833 248.103 C 21.882 255.833, 20.834 257.788, 23.472 259.977 C 25.490 261.651, 30.021 258.765, 37.121 251.280 C 47.281 240.572, 54.202 228.112, 58.106 213.500 C 61.092 202.323, 61.092 184.677, 58.106 173.500 C 53.868 157.641, 45.304 143.126, 34.021 132.680 C 27.457 126.603, 23.646 125.391, 22.495 129.015 M 23.250 158.662 C 21.097 159.531, 21.875 162.819, 25.293 167.297 C 35.820 181.088, 36.897 199.766, 28.016 214.500 C 26.358 217.250, 24.081 220.647, 22.955 222.049 C 18.921 227.076, 23.513 230.799, 28.204 226.305 C 42.490 212.617, 45.650 187.274, 35.322 169.210 C 32.245 163.829, 27.157 157.975, 25.646 158.079 C 25.016 158.122, 23.938 158.385, 23.250 158.662 M 103.571 159.571 C 101.243 161.900, 101.243 194.100, 103.571 196.429 C 104.436 197.293, 105.529 198, 106 198 C 106.471 198, 107.564 197.293, 108.429 196.429 C 110.757 194.100, 110.757 161.900, 108.429 159.571 C 107.564 158.707, 106.471 158, 106 158 C 105.529 158, 104.436 158.707, 103.571 159.571 M 6.590 175.553 C 5.186 176.957, 5.330 177.653, 8.101 182.803 C 12.051 190.145, 11.890 197.545, 7.643 203.964 C 4.497 208.717, 4.811 212, 8.412 212 C 11.120 212, 12.966 210.070, 16.064 204 C 19.414 197.436, 19.258 188.257, 15.680 181.286 C 13.409 176.862, 10.642 174, 8.637 174 C 8.365 174, 7.444 174.699, 6.590 175.553 M 151.571 191.571 C 150.707 192.436, 150 193.529, 150 194 C 150 194.471, 150.707 195.564, 151.571 196.429 C 152.936 197.793, 157.463 198, 186 198 C 214.537 198, 219.064 197.793, 220.429 196.429 C 221.293 195.564, 222 194.471, 222 194 C 222 193.529, 221.293 192.436, 220.429 191.571 C 219.064 190.207, 214.537 190, 186 190 C 157.463 190, 152.936 190.207, 151.571 191.571 M 100.648 206.983 C 93.587 209.208, 88.105 215.305, 86.548 222.666 C 84.196 233.782, 97.218 246.804, 108.334 244.452 C 119.355 242.121, 126.921 230.881, 124.052 221.102 C 121.022 210.775, 109.903 204.067, 100.648 206.983 M 97.400 217.400 C 94.498 220.302, 94 221.488, 94 225.500 C 94 229.512, 94.498 230.698, 97.400 233.600 C 100.302 236.502, 101.488 237, 105.500 237 C 109.512 237, 110.698 236.502, 113.600 233.600 C 116.502 230.698, 117 229.512, 117 225.500 C 117 221.488, 116.502 220.302, 113.600 217.400 C 110.698 214.498, 109.512 214, 105.500 214 C 101.488 214, 100.302 214.498, 97.400 217.400 " stroke="none" fill="black" fill-rule="evenodd"/>
</svg>