<svg xmlns="http://www.w3.org/2000/svg" width="148" height="324" viewBox="0 0 148 324" version="1.1">
	<path d="M 7.571 159.571 C 6.207 160.936, 6 165.463, 6 194 C 6 222.537, 6.207 227.064, 7.571 228.429 C 9.545 230.402, 10.455 230.402, 12.429 228.429 C 13.793 227.064, 14 222.537, 14 194 C 14 165.463, 13.793 160.936, 12.429 159.571 C 11.564 158.707, 10.471 158, 10 158 C 9.529 158, 8.436 158.707, 7.571 159.571 M 135.750 159.080 C 134.138 160.019, 134 162.769, 134 194.015 C 134 227.256, 134.041 227.952, 136.064 229.034 C 137.596 229.854, 138.498 229.832, 139.564 228.947 C 140.760 227.954, 141 222.127, 141 194.078 C 141 157.363, 140.815 156.130, 135.750 159.080 " stroke="none" fill="black" fill-rule="evenodd"/>
</svg>