<svg xmlns="http://www.w3.org/2000/svg" width="276" height="324" viewBox="0 0 276 324" version="1.1">
	<path d="M 161.500 111.039 C 154.408 112.277, 148.330 114.580, 142.820 118.115 C 136.966 121.872, 131.874 127.509, 132.608 129.422 C 133.563 131.910, 136.289 132.181, 138.951 130.051 C 149.928 121.266, 158.015 118, 168.787 118 C 180.858 118, 192.748 123.107, 198.972 130.964 C 208.292 142.732, 229.840 148.458, 246.500 143.594 C 257.099 140.500, 268 132.828, 268 128.464 C 268 124.535, 264.496 124.357, 260.267 128.070 C 258.247 129.844, 253.648 132.691, 250.047 134.397 C 244.017 137.255, 242.670 137.500, 233 137.500 C 223.333 137.500, 221.981 137.254, 215.962 134.402 C 211.858 132.457, 207.606 129.383, 204.541 126.146 C 201.856 123.310, 197.485 119.594, 194.827 117.889 C 185.879 112.147, 171.767 109.246, 161.500 111.039 M 67.270 127.054 C 53.495 129.773, 43.135 139.496, 39.696 152.933 L 38.318 158.318 32.933 159.696 C 6.591 166.438, -2.302 198.858, 16.920 218.080 C 24.030 225.190, 31.429 228.252, 41.500 228.252 C 51.571 228.252, 58.970 225.190, 66.080 218.080 C 79.954 204.206, 79.954 182.794, 66.080 168.920 C 60.841 163.681, 52.056 159, 47.462 159 C 43.795 159, 48.030 147.875, 53.952 141.952 C 71.076 124.828, 101.030 136.911, 100.993 160.928 C 100.973 174.089, 91.595 199.398, 80.906 215.138 C 71.295 229.291, 56.294 243.619, 43.194 251.158 C 38.647 253.774, 37.931 254.590, 38.194 256.856 C 38.712 261.330, 41.907 260.641, 52.108 253.853 C 80.201 235.161, 100.985 203.389, 107.339 169.426 C 111.264 148.442, 99.689 130.817, 79.535 127.091 C 72.994 125.882, 73.205 125.883, 67.270 127.054 M 31.054 167.728 C 25.018 169.859, 17.781 177.260, 15.667 183.463 C 11.995 194.241, 14.382 205.477, 21.952 213.048 C 32.673 223.769, 50.327 223.769, 61.048 213.048 C 71.769 202.327, 71.769 184.673, 61.048 173.952 C 53.519 166.424, 41.696 163.970, 31.054 167.728 M 161.500 175.039 C 154.408 176.277, 148.330 178.580, 142.820 182.115 C 136.966 185.872, 131.874 191.509, 132.608 193.422 C 133.563 195.910, 136.289 196.181, 138.951 194.051 C 149.928 185.266, 158.015 182, 168.787 182 C 180.858 182, 192.748 187.107, 198.972 194.964 C 208.292 206.732, 229.840 212.458, 246.500 207.594 C 257.099 204.500, 268 196.828, 268 192.464 C 268 188.535, 264.496 188.357, 260.267 192.070 C 258.247 193.844, 253.648 196.691, 250.047 198.397 C 244.017 201.255, 242.670 201.500, 233 201.500 C 223.333 201.500, 221.981 201.254, 215.962 198.402 C 211.858 196.457, 207.606 193.383, 204.541 190.146 C 201.856 187.310, 197.485 183.594, 194.827 181.889 C 185.879 176.147, 171.767 173.246, 161.500 175.039 M 161.500 239.039 C 154.408 240.277, 148.330 242.580, 142.820 246.115 C 136.966 249.872, 131.874 255.509, 132.608 257.422 C 133.563 259.910, 136.289 260.181, 138.951 258.051 C 149.928 249.266, 158.015 246, 168.787 246 C 180.858 246, 192.748 251.107, 198.972 258.964 C 208.292 270.732, 229.840 276.458, 246.500 271.594 C 257.099 268.500, 268 260.828, 268 256.464 C 268 252.535, 264.496 252.357, 260.267 256.070 C 258.247 257.844, 253.648 260.691, 250.047 262.397 C 244.017 265.255, 242.670 265.500, 233 265.500 C 223.333 265.500, 221.981 265.254, 215.962 262.402 C 211.858 260.457, 207.606 257.383, 204.541 254.146 C 201.856 251.310, 197.485 247.594, 194.827 245.889 C 185.879 240.147, 171.767 237.246, 161.500 239.039 " stroke="none" fill="black" fill-rule="evenodd"/>
</svg>