<svg xmlns="http://www.w3.org/2000/svg" width="244" height="324" viewBox="0 0 244 324" version="1.1">
	<path d="M 55.200 63.200 C 53.512 64.888, 53.512 99.112, 55.200 100.800 C 56.040 101.640, 61.562 102, 73.629 102 C 87.958 102, 91.122 101.736, 92.429 100.429 C 94.757 98.100, 94.757 65.900, 92.429 63.571 C 91.122 62.264, 87.958 62, 73.629 62 C 61.562 62, 56.040 62.360, 55.200 63.200 M 62 82 L 62 94 74 94 L 86 94 86 82 L 86 70 74 70 L 62 70 62 82 M 71.571 127.571 C 70.212 128.931, 70 133.242, 70 159.571 L 70 190 39.571 190 C 13.242 190, 8.931 190.212, 7.571 191.571 C 5.598 193.545, 5.598 194.455, 7.571 196.429 C 8.931 197.788, 13.242 198, 39.571 198 L 70 198 70 228.429 C 70 254.758, 70.212 259.069, 71.571 260.429 C 72.436 261.293, 73.529 262, 74 262 C 74.471 262, 75.564 261.293, 76.429 260.429 C 77.788 259.069, 78 254.758, 78 228.429 L 78 198 103.202 198 L 128.405 198 115.202 211.333 C 107.941 218.666, 102 225.159, 102 225.761 C 102 227.202, 104.832 230, 106.290 230 C 107.969 230, 142 195.693, 142 194 C 142 192.307, 107.969 158, 106.290 158 C 104.832 158, 102 160.798, 102 162.239 C 102 162.841, 107.941 169.334, 115.202 176.667 L 128.405 190 103.202 190 L 78 190 78 159.571 C 78 133.242, 77.788 128.931, 76.429 127.571 C 75.564 126.707, 74.471 126, 74 126 C 73.529 126, 72.436 126.707, 71.571 127.571 M 199.285 159.230 C 180.978 177.506, 166 193.166, 166 194.030 C 166 197.785, 167.648 198, 196.444 198 L 224.487 198 195.244 227.256 C 179.160 243.347, 166 257.281, 166 258.221 C 166 260.963, 169.705 262.423, 172.317 260.710 C 174.784 259.092, 237.339 195.463, 237.795 194.108 C 237.957 193.626, 237.362 192.505, 236.473 191.616 C 235.063 190.206, 231.344 190, 207.336 190 L 179.814 190 208.157 160.928 C 223.746 144.938, 236.650 131.191, 236.833 130.380 C 237.215 128.681, 235.274 126, 233.662 126 C 233.061 126, 217.591 140.953, 199.285 159.230 " stroke="none" fill="black" fill-rule="evenodd"/>
</svg>