<svg xmlns="http://www.w3.org/2000/svg" width="212" height="324" viewBox="0 0 212 324" version="1.1">
	<path d="M 33.024 127.603 C 25.930 129.510, 20.224 132.902, 15.710 137.900 C -2.878 158.474, 7.882 190.093, 35.500 196.057 C 38.250 196.651, 41.175 197.149, 42 197.163 C 45.340 197.220, 55.062 194.154, 59.167 191.748 L 63.539 189.186 82.520 207.579 L 101.500 225.973 85.750 241.243 C 77.088 249.641, 70 257.003, 70 257.601 C 70 258.847, 73.232 262, 74.508 262 C 74.976 262, 82.377 255.031, 90.955 246.514 L 106.551 231.027 122.013 246.514 C 130.518 255.031, 137.787 262, 138.166 262 C 139.264 262, 142 258.967, 142 257.751 C 142 257.143, 135.166 249.760, 126.813 241.344 L 111.625 226.042 129.003 208.271 C 138.560 198.497, 146.694 190.123, 147.078 189.662 C 147.462 189.201, 149.514 189.966, 151.638 191.362 C 153.762 192.758, 157.750 194.428, 160.500 195.073 C 163.250 195.719, 166.538 196.643, 167.807 197.128 C 169.125 197.631, 170.840 197.635, 171.807 197.136 C 172.738 196.656, 175.275 195.942, 177.445 195.550 C 183.275 194.495, 189.953 190.734, 194.693 185.834 C 198.881 181.504, 203.972 172.114, 203.990 168.684 C 203.996 167.686, 204.481 165.970, 205.068 164.873 C 205.861 163.391, 205.705 161.157, 204.459 156.190 C 202.222 147.272, 199.074 141.377, 193.834 136.301 C 175.622 118.655, 145 126.087, 136.402 150.239 C 133.259 159.067, 134.919 172.864, 139.979 179.970 C 141.091 181.532, 142 183.246, 142 183.780 C 142 184.314, 134.049 192.939, 124.332 202.948 L 106.664 221.144 87.913 202.413 L 69.162 183.682 72.079 178.514 C 74.669 173.925, 77.043 166.251, 77.188 162 C 77.216 161.175, 76.749 158.145, 76.149 155.267 C 73.228 141.253, 62.924 130.603, 49.147 127.360 C 42.151 125.714, 39.931 125.747, 33.024 127.603 M 31.385 135.617 C 23.428 138.439, 16.611 146.342, 14.450 155.250 L 13.783 158 25.892 158 L 38 158 38 146 C 38 132.784, 38.253 133.181, 31.385 135.617 M 46 145.933 L 46 158 57.500 158 C 70.493 158, 70.532 157.970, 67.110 150.435 C 63.564 142.628, 57.002 137.092, 48.250 134.525 C 46.005 133.867, 46 133.889, 46 145.933 M 160.316 135.326 C 153.660 137.780, 148.380 142.551, 145.136 149.043 C 143.411 152.495, 142 155.923, 142 156.660 C 142 157.709, 144.718 158, 154.500 158 L 167 158 167 146 C 167 132.715, 167.074 132.834, 160.316 135.326 M 174 145.981 L 174 158 185.500 158 C 198.695 158, 198.636 158.055, 194.649 149.493 C 191.335 142.378, 184.130 136.391, 176.750 134.621 L 174 133.962 174 145.981 M 14.525 168.250 C 17.250 177.540, 23.671 184.678, 31.795 187.446 C 34.304 188.301, 36.726 189, 37.178 189 C 37.630 189, 38 183.825, 38 177.500 L 38 166 25.933 166 C 13.889 166, 13.867 166.005, 14.525 168.250 M 46 177.567 C 46 190.520, 45.429 189.837, 53.500 186.532 C 60.018 183.862, 66.764 175.811, 68.401 168.750 L 69.038 166 57.519 166 L 46 166 46 177.567 M 142.546 168.250 C 145.188 176.986, 152.244 184.698, 160.316 187.674 C 167.048 190.156, 167 190.229, 167 177.500 L 167 166 154.433 166 L 141.865 166 142.546 168.250 M 174 177.519 L 174 189.038 176.750 188.379 C 184.130 186.609, 191.335 180.622, 194.649 173.507 C 195.931 170.753, 196.985 167.938, 196.990 167.250 C 196.997 166.322, 194.039 166, 185.500 166 L 174 166 174 177.519 " stroke="none" fill="black" fill-rule="evenodd"/>
</svg>