<svg xmlns="http://www.w3.org/2000/svg" width="724" height="324" viewBox="0 0 724 324" version="1.1">
	<path d="M 61.500 127.404 C 46.653 130.261, 35.146 136.772, 24.168 148.528 C 13.801 159.628, 8.225 172.265, 6.488 188.598 C 5.962 193.536, 6.153 195.010, 7.491 196.348 C 9.547 198.404, 10.439 198.418, 12.429 196.429 C 13.379 195.478, 14 193.126, 14 190.478 C 14 183.304, 15.937 176.010, 20.235 167 C 25.868 155.191, 35.191 145.868, 47 140.235 C 54.836 136.497, 63.266 134, 68.049 134 C 69.962 134, 70 135.171, 70 194 L 70 254 55.571 254 C 43.788 254, 40.855 254.288, 39.571 255.571 C 37.598 257.545, 37.598 258.455, 39.571 260.429 C 40.936 261.793, 45.463 262, 74 262 C 102.537 262, 107.064 261.793, 108.429 260.429 C 110.402 258.455, 110.402 257.545, 108.429 255.571 C 107.145 254.288, 104.212 254, 92.429 254 L 78 254 78 194 C 78 142.238, 78.199 134, 79.451 134 C 83.737 134, 92.473 136.645, 99.899 140.191 C 118.631 149.136, 133 170.818, 133 190.139 C 133 198.197, 132.216 198, 164.274 198 L 192.405 198 179.202 211.333 C 171.941 218.666, 166 225.159, 166 225.761 C 166 227.202, 168.832 230, 170.290 230 C 171.969 230, 206 195.693, 206 194 C 206 192.307, 171.969 158, 170.290 158 C 168.832 158, 166 160.798, 166 162.239 C 166 162.841, 171.949 169.342, 179.219 176.684 L 192.439 190.035 166.469 189.767 L 140.500 189.500 139.873 184.500 C 138.919 176.887, 137.151 171.236, 133.147 163 C 127.990 152.394, 114.521 138.890, 104 133.778 C 90.421 127.179, 74.823 124.840, 61.500 127.404 M 295.200 127.200 C 294.292 128.108, 294 143.689, 294 191.200 L 294 254 263.571 254 C 237.242 254, 232.931 254.212, 231.571 255.571 C 229.598 257.545, 229.598 258.455, 231.571 260.429 C 232.968 261.825, 240.372 262, 298 262 C 355.628 262, 363.032 261.825, 364.429 260.429 C 365.293 259.564, 366 258.471, 366 258 C 366 257.529, 365.293 256.436, 364.429 255.571 C 363.069 254.212, 358.758 254, 332.429 254 L 302 254 302 226 L 302 198 332.429 198 C 358.758 198, 363.069 197.788, 364.429 196.429 C 365.793 195.064, 366 190.537, 366 162 C 366 133.463, 365.793 128.936, 364.429 127.571 C 363.063 126.206, 358.503 126, 329.629 126 C 305.117 126, 296.085 126.315, 295.200 127.200 M 445.500 127.480 C 420.873 132.053, 401.040 149.450, 393.555 173.046 C 390.528 182.589, 389.240 194.379, 390.994 196.493 C 392.059 197.776, 396.829 198, 423.122 198 L 454 198 454 228.429 C 454 254.758, 454.212 259.069, 455.571 260.429 C 457.678 262.535, 458.598 262.412, 460.443 259.777 C 461.768 257.887, 462 253.110, 462 227.777 L 462 198 487.202 198 L 512.405 198 499.202 211.333 C 491.941 218.666, 486 225.159, 486 225.761 C 486 227.178, 488.822 230, 490.238 230 C 490.841 230, 499.199 222.169, 508.811 212.598 C 523.003 198.467, 526.141 194.848, 525.503 193.348 C 525.071 192.331, 524.338 188.599, 523.874 185.053 C 519.960 155.153, 496.358 131.369, 466.284 127.020 C 457.726 125.783, 454.223 125.861, 445.500 127.480 M 647.750 127.080 C 646.788 127.641, 646 128.859, 646 129.788 C 646 130.717, 652.857 138.344, 661.238 146.738 L 676.476 162 661.238 177.262 C 652.857 185.656, 646 193.216, 646 194.062 C 646 196.832, 648.312 198, 653.793 198 L 659.185 198 654.603 203.097 C 642.984 216.019, 643.372 235.727, 655.502 248.829 C 662.949 256.872, 670.655 260.351, 681 260.340 C 691.193 260.329, 698.433 257.451, 705.353 250.661 C 713.450 242.714, 715.500 237.633, 715.500 225.500 C 715.500 214.243, 713.971 209.831, 707.417 202.174 L 703.844 198 709.351 198 C 714.829 198, 718.537 196.111, 717.742 193.726 C 717.551 193.153, 710.444 185.793, 701.947 177.369 L 686.500 162.054 701.750 146.765 C 710.138 138.356, 717 130.784, 717 129.938 C 717 128.207, 715.106 126, 713.621 126 C 713.082 126, 705.623 132.969, 697.045 141.486 L 681.449 156.973 665.987 141.486 C 657.482 132.969, 650.294 126.014, 650.012 126.030 C 649.730 126.047, 648.712 126.519, 647.750 127.080 M 302 162 L 302 190 330 190 L 358 190 358 162 L 358 134 330 134 L 302 134 302 162 M 442.645 135.584 C 422.654 140.423, 404.831 158.195, 399.520 178.584 C 398.684 181.794, 398 185.676, 398 187.210 L 398 190 426 190 L 454 190 454 162 L 454 134 451.250 134.083 C 449.738 134.129, 445.865 134.804, 442.645 135.584 M 462 161.886 L 462 190 487.202 190 L 512.405 190 499.202 176.667 C 491.941 169.334, 486 162.841, 486 162.239 C 486 160.859, 488.807 158, 490.162 158 C 490.722 158, 496.801 163.511, 503.671 170.247 C 517.145 183.458, 517.513 183.488, 512.595 170.992 C 505.148 152.066, 486.840 137.498, 466.710 134.479 L 462 133.773 462 161.886 M 670 178.500 L 658.533 190 681.500 190 L 704.467 190 693 178.500 C 686.693 172.175, 681.518 167, 681.500 167 C 681.482 167, 676.307 172.175, 670 178.500 M 551.750 191.073 C 549.413 192.444, 549.527 195.677, 551.960 196.979 C 553.243 197.665, 565.208 197.936, 586.601 197.764 C 616.469 197.523, 619.378 197.349, 620.386 195.750 C 621.191 194.474, 621.191 193.526, 620.386 192.250 C 619.377 190.649, 616.483 190.481, 586.391 190.273 C 565.280 190.127, 552.873 190.414, 551.750 191.073 M 671.748 199.427 C 653.840 205.818, 647.939 228.971, 660.447 243.770 C 667.835 252.510, 681.687 255.579, 692.145 250.791 C 698.380 247.937, 703.173 243.473, 706.271 237.634 C 708.003 234.372, 708.465 231.813, 708.465 225.500 C 708.465 216.507, 706.605 211.759, 700.810 205.963 C 693.649 198.802, 681.288 196.022, 671.748 199.427 M 679.750 223.080 C 677.372 224.465, 677.542 227.685, 680.064 229.034 C 683.753 231.008, 686.819 226.219, 683.800 223.200 C 682.367 221.767, 682.022 221.757, 679.750 223.080 " stroke="none" fill="black" fill-rule="evenodd"/>
</svg>